<?xml version="1.0" encoding="UTF-8" standalone="no"?>
<!DOCTYPE svg PUBLIC "-//W3C//DTD SVG 1.1//EN"
 "http://www.w3.org/Graphics/SVG/1.1/DTD/svg11.dtd">
<!-- Generated by graphviz version 10.0.1 (0)
 -->
<!-- Pages: 1 -->
<svg width="3129pt" height="2719pt"
 viewBox="0.00 0.00 3129.00 2718.95" xmlns="http://www.w3.org/2000/svg" xmlns:xlink="http://www.w3.org/1999/xlink">
<g id="graph0" class="graph" transform="scale(1 1) rotate(0) translate(4 2714.95)">
<polygon fill="white" stroke="none" points="-4,4 -4,-2714.95 3125,-2714.95 3125,4 -4,4"/>
<!-- 5 -->
<g id="node1" class="node">
<title>5</title>
<text text-anchor="start" x="787.11" y="-661.02" font-family="Times,serif" font-size="14.00">OSI: </text>
<text text-anchor="start" x="816.36" y="-661.02" font-family="Times,serif" font-weight="bold" font-size="14.00" fill="#8b0000">Rejected</text>
</g>
<!-- 30 -->
<g id="node2" class="node">
<title>30</title>
<ellipse fill="none" stroke="#dac767" cx="1001.71" cy="-1025.19" rx="157.15" ry="28.99"/>
<text text-anchor="middle" x="1001.71" y="-1028.39" font-family="Times,serif" font-size="14.00" fill="gray">SPDXLicense</text>
<text text-anchor="middle" x="1001.71" y="-1011.89" font-family="Times,serif" font-size="14.00" fill="gray">1787176efb77e5e5d3ecc1beb19f3227</text>
</g>
<!-- 5&#45;&gt;30 -->
<g id="edge1" class="edge">
<title>5&#45;&gt;30</title>
<path fill="none" stroke="#dac767" d="M830.06,-682.73C849.62,-789.94 856.78,-805.63 976.2,-986.59"/>
<polygon fill="#dac767" stroke="#dac767" points="973.27,-988.5 981.7,-994.92 979.11,-984.64 973.27,-988.5"/>
</g>
<!-- 31 -->
<g id="node3" class="node">
<title>31</title>
<polygon fill="none" stroke="black" points="1450.77,-1557.24 1450.77,-1572.15 1399.07,-1582.7 1325.94,-1582.7 1274.24,-1572.15 1274.24,-1557.24 1325.94,-1546.7 1399.07,-1546.7 1450.77,-1557.24"/>
<polygon fill="none" stroke="black" points="1454.77,-1553.97 1454.77,-1575.42 1399.47,-1586.7 1325.54,-1586.7 1270.24,-1575.42 1270.24,-1553.97 1325.54,-1542.7 1399.47,-1542.7 1454.77,-1553.97"/>
<polygon fill="none" stroke="black" points="1458.77,-1550.71 1458.77,-1578.69 1399.87,-1590.7 1325.14,-1590.7 1266.24,-1578.69 1266.24,-1550.71 1325.14,-1538.7 1399.87,-1538.7 1458.77,-1550.71"/>
<text text-anchor="middle" x="1362.5" y="-1559.65" font-family="Times,serif" font-size="14.00">spdx:3D&#45;Slicer&#45;1.0</text>
</g>
<!-- 30&#45;&gt;31 -->
<g id="edge2" class="edge">
<title>30&#45;&gt;31</title>
<path fill="none" stroke="#dac767" d="M1007.66,-1054.65C1051.63,-1271.14 1064.41,-1290.47 1325.65,-1530.82"/>
<polygon fill="#dac767" stroke="#dac767" points="1323.01,-1533.15 1332.74,-1537.34 1327.75,-1527.99 1323.01,-1533.15"/>
</g>
<!-- 28556 -->
<g id="node13" class="node">
<title>28556</title>
<polygon fill="none" stroke="black" points="1945.47,-1221.67 1945.47,-1236.58 1887.6,-1247.13 1805.76,-1247.13 1747.89,-1236.58 1747.89,-1221.67 1805.76,-1211.13 1887.6,-1211.13 1945.47,-1221.67"/>
<polygon fill="none" stroke="black" points="1949.47,-1218.33 1949.47,-1239.92 1887.96,-1251.13 1805.4,-1251.13 1743.89,-1239.92 1743.89,-1218.33 1805.4,-1207.13 1887.96,-1207.13 1949.47,-1218.33"/>
<text text-anchor="middle" x="1846.68" y="-1224.08" font-family="Times,serif" font-size="14.00">scancode:3dslicer&#45;1.0</text>
</g>
<!-- 31&#45;&gt;28556 -->
<g id="edge3" class="edge">
<title>31&#45;&gt;28556</title>
<path fill="none" stroke="#deb256" stroke-width="2" d="M1405.63,-1539.63C1500.27,-1478.62 1724.51,-1323.14 1811.44,-1258.2"/>
<polygon fill="#deb256" stroke="#deb256" stroke-width="2" points="1818.43,-1252.93 1813.15,-1262.54 1816.68,-1254.88 1810.74,-1259.35 1810.44,-1258.95 1810.14,-1258.55 1816.08,-1254.08 1807.73,-1255.35 1818.43,-1252.93"/>
</g>
<!-- 42994 -->
<g id="node31" class="node">
<title>42994</title>
<polygon fill="none" stroke="#379469" points="2354.74,-1820.3 2354.74,-1835.21 2177.77,-1845.75 1927.5,-1845.75 1750.53,-1835.21 1750.53,-1820.3 1927.5,-1809.75 2177.77,-1809.75 2354.74,-1820.3"/>
<polygon fill="none" stroke="#379469" points="2358.74,-1816.53 2358.74,-1838.98 2177.89,-1849.75 1927.38,-1849.75 1746.53,-1838.98 1746.53,-1816.53 1927.38,-1805.75 2177.89,-1805.75 2358.74,-1816.53"/>
<text text-anchor="middle" x="2052.63" y="-1822.7" font-family="Times,serif" font-size="14.00">metaeffekt:3D Slicer Contribution and Software License Agreement 1.0</text>
</g>
<!-- 31&#45;&gt;42994 -->
<g id="edge4" class="edge">
<title>31&#45;&gt;42994</title>
<path fill="none" stroke="#379469" stroke-width="2" d="M1401.43,-1590.72C1601.99,-1724.71 1694.45,-1784.52 1784.35,-1810.37"/>
<polygon fill="#379469" stroke="#379469" stroke-width="2" points="1792.67,-1812.64 1781.84,-1814.35 1790.06,-1812.44 1782.89,-1810.49 1783.02,-1810 1783.15,-1809.52 1790.33,-1811.48 1784.21,-1805.66 1792.67,-1812.64"/>
</g>
<!-- 32 -->
<g id="node4" class="node">
<title>32</title>
<polygon fill="none" stroke="black" points="1676.83,-1342.47 1676.83,-1357.39 1637.78,-1367.93 1582.56,-1367.93 1543.51,-1357.39 1543.51,-1342.47 1582.56,-1331.93 1637.78,-1331.93 1676.83,-1342.47"/>
<polygon fill="none" stroke="black" points="1680.83,-1339.41 1680.83,-1360.45 1638.31,-1371.93 1582.03,-1371.93 1539.51,-1360.45 1539.51,-1339.41 1582.03,-1327.93 1638.31,-1327.93 1680.83,-1339.41"/>
<text text-anchor="middle" x="1610.17" y="-1344.88" font-family="Times,serif" font-size="14.00">3D&#45;Slicer&#45;1.0</text>
</g>
<!-- 32&#45;&gt;31 -->
<g id="edge5" class="edge">
<title>32&#45;&gt;31</title>
<path fill="none" stroke="black" stroke-width="2" d="M1588.5,-1372.25C1486.17,-1477.61 1458.07,-1505.52 1414.86,-1533.44"/>
<polygon fill="black" stroke="black" stroke-width="2" points="1407.44,-1538.12 1413.5,-1528.98 1409.34,-1536.33 1415.63,-1532.36 1415.9,-1532.78 1416.17,-1533.2 1409.88,-1537.17 1418.3,-1536.59 1407.44,-1538.12"/>
</g>
<!-- 40974 -->
<g id="node29" class="node">
<title>40974</title>
<polygon fill="none" stroke="#379469" points="1556.62,-976.83 1556.62,-991.74 1504.59,-1002.28 1431.01,-1002.28 1378.98,-991.74 1378.98,-976.83 1431.01,-966.28 1504.59,-966.28 1556.62,-976.83"/>
<polygon fill="none" stroke="#379469" points="1560.62,-973.56 1560.62,-995.01 1504.99,-1006.28 1430.61,-1006.28 1374.98,-995.01 1374.98,-973.56 1430.61,-962.28 1504.99,-962.28 1560.62,-973.56"/>
<text text-anchor="middle" x="1467.8" y="-979.23" font-family="Times,serif" font-size="14.00">cavil:3D&#45;Slicer&#45;1.0</text>
</g>
<!-- 32&#45;&gt;40974 -->
<g id="edge6" class="edge">
<title>32&#45;&gt;40974</title>
<path fill="none" stroke="#379469" stroke-width="2" d="M1603.25,-1327.68C1537.64,-1116.61 1528.72,-1089.98 1486.26,-1016.04"/>
<polygon fill="#379469" stroke="#379469" stroke-width="2" points="1482.13,-1008.88 1491.03,-1015.29 1483.85,-1010.85 1487.57,-1017.29 1487.13,-1017.54 1486.7,-1017.79 1482.98,-1011.35 1483.23,-1019.79 1482.13,-1008.88"/>
</g>
<!-- 32&#45;&gt;42994 -->
<g id="edge7" class="edge">
<title>32&#45;&gt;42994</title>
<path fill="none" stroke="#379469" stroke-dasharray="5,2" d="M1631.92,-1372.42C1904.83,-1654.64 1927.75,-1678.74 2026.86,-1796.97"/>
<polygon fill="#379469" stroke="#379469" points="2033.04,-1804.34 2023.17,-1799.56 2030.61,-1801.44 2026.62,-1796.67 2026.62,-1796.67 2026.62,-1796.67 2030.61,-1801.44 2030.06,-1793.78 2033.04,-1804.34"/>
</g>
<!-- 33 -->
<g id="node5" class="node">
<title>33</title>
<polygon fill="none" stroke="black" points="1591.83,-1933.37 1591.83,-1948.29 1530.71,-1958.83 1444.28,-1958.83 1383.17,-1948.29 1383.17,-1933.37 1444.28,-1922.83 1530.71,-1922.83 1591.83,-1933.37"/>
<polygon fill="none" stroke="black" points="1595.83,-1930.01 1595.83,-1951.66 1531.06,-1962.83 1443.94,-1962.83 1379.17,-1951.66 1379.17,-1930.01 1443.94,-1918.83 1531.06,-1918.83 1595.83,-1930.01"/>
<text text-anchor="middle" x="1487.5" y="-1935.78" font-family="Times,serif" font-size="14.00">3D Slicer License v1.0</text>
</g>
<!-- 33&#45;&gt;31 -->
<g id="edge8" class="edge">
<title>33&#45;&gt;31</title>
<path fill="none" stroke="#dac767" stroke-width="2" d="M1470.38,-1918.6C1403.98,-1831.74 1398.21,-1811.66 1367.9,-1602.14"/>
<polygon fill="#dac767" stroke="#dac767" stroke-width="2" points="1366.65,-1593.45 1372.53,-1602.7 1367.51,-1595.91 1368.57,-1603.27 1368.08,-1603.35 1367.58,-1603.42 1366.52,-1596.06 1363.62,-1603.99 1366.65,-1593.45"/>
</g>
<!-- 33&#45;&gt;42994 -->
<g id="edge9" class="edge">
<title>33&#45;&gt;42994</title>
<path fill="none" stroke="#379469" stroke-dasharray="5,2" d="M1579.05,-1955.05C1797.76,-1987.71 1832.41,-1976.65 2010.57,-1856.31"/>
<polygon fill="#379469" stroke="#379469" points="2018.7,-1850.8 2012.94,-1860.13 2015.57,-1852.92 2010.42,-1856.41 2010.42,-1856.41 2010.42,-1856.41 2015.57,-1852.92 2007.9,-1852.68 2018.7,-1850.8"/>
</g>
<!-- 66183 -->
<g id="node39" class="node">
<title>66183</title>
<polygon fill="none" stroke="#00876c" points="1285.47,-1886.67 1285.47,-1901.58 1211.7,-1912.13 1107.37,-1912.13 1033.59,-1901.58 1033.59,-1886.67 1107.37,-1876.13 1211.7,-1876.13 1285.47,-1886.67"/>
<polygon fill="none" stroke="#00876c" points="1289.47,-1883.2 1289.47,-1905.05 1211.98,-1916.13 1107.08,-1916.13 1029.59,-1905.05 1029.59,-1883.2 1107.08,-1872.13 1211.98,-1872.13 1289.47,-1883.2"/>
<text text-anchor="middle" x="1159.53" y="-1889.08" font-family="Times,serif" font-size="14.00">spdx:3D Slicer License v1.0</text>
</g>
<!-- 33&#45;&gt;66183 -->
<g id="edge10" class="edge">
<title>33&#45;&gt;66183</title>
<path fill="none" stroke="#00876c" stroke-width="2" d="M1405.9,-1956.67C1311.35,-1973.38 1282.9,-1967.32 1206.05,-1922.18"/>
<polygon fill="#00876c" stroke="#00876c" stroke-width="2" points="1198.53,-1917.72 1209.42,-1918.95 1200.99,-1918.6 1207.39,-1922.39 1207.13,-1922.82 1206.88,-1923.25 1200.48,-1919.46 1204.84,-1926.69 1198.53,-1917.72"/>
</g>
<!-- 34 -->
<g id="node6" class="node">
<title>34</title>
<text text-anchor="middle" x="540.85" y="-904.13" font-family="Times,serif" font-size="14.00">$TEXT</text>
</g>
<!-- 34&#45;&gt;30 -->
<g id="edge11" class="edge">
<title>34&#45;&gt;30</title>
<path fill="none" stroke="#dac767" d="M569.33,-912.68C673.17,-925.6 701.38,-932.12 909.78,-996.65"/>
<polygon fill="#dac767" stroke="#dac767" points="908.46,-999.9 919.05,-999.52 910.53,-993.21 908.46,-999.9"/>
</g>
<!-- 35 -->
<g id="node7" class="node">
<title>35</title>
<text text-anchor="middle" x="317.34" y="-828.38" font-family="Times,serif" font-size="14.00">$TEXT</text>
</g>
<!-- 35&#45;&gt;34 -->
<g id="edge12" class="edge">
<title>35&#45;&gt;34</title>
<path fill="none" stroke="#dac767" d="M345.74,-841.77C384.65,-853.33 405.49,-860.56 501.72,-895.12"/>
<polygon fill="#dac767" stroke="#dac767" points="500.52,-898.4 511.12,-898.49 502.89,-891.82 500.52,-898.4"/>
</g>
<!-- 36 -->
<g id="node8" class="node">
<title>36</title>
<text text-anchor="middle" x="655.28" y="-732.08" font-family="Times,serif" font-size="14.00">https://slicer.org/LICENSE</text>
</g>
<!-- 36&#45;&gt;30 -->
<g id="edge13" class="edge">
<title>36&#45;&gt;30</title>
<path fill="none" stroke="#dac767" d="M673.12,-754.89C747.46,-828.72 765.89,-844.04 955.54,-989.74"/>
<polygon fill="#dac767" stroke="#dac767" points="953.15,-992.31 963.21,-995.63 957.41,-986.76 953.15,-992.31"/>
</g>
<!-- 37 -->
<g id="node9" class="node">
<title>37</title>
<text text-anchor="middle" x="1510.89" y="-696.44" font-family="Times,serif" font-size="14.00">https://github.com/Slicer/Slicer/blob/main/License.txt</text>
</g>
<!-- 37&#45;&gt;30 -->
<g id="edge14" class="edge">
<title>37&#45;&gt;30</title>
<path fill="none" stroke="#dac767" d="M1417.15,-719.45C1202,-762.28 1173.31,-787.45 1029.38,-986.76"/>
<polygon fill="#dac767" stroke="#dac767" points="1026.56,-984.68 1023.55,-994.84 1032.24,-988.78 1026.56,-984.68"/>
</g>
<!-- 28555 -->
<g id="node12" class="node">
<title>28555</title>
<ellipse fill="none" stroke="#deb256" cx="2094.26" cy="-572.32" rx="158.22" ry="28.99"/>
<text text-anchor="middle" x="2094.26" y="-575.52" font-family="Times,serif" font-size="14.00" fill="gray">ScancodeData</text>
<text text-anchor="middle" x="2094.26" y="-559.02" font-family="Times,serif" font-size="14.00" fill="gray">1e8770329e5feb6f39d80a716ddba606</text>
</g>
<!-- 37&#45;&gt;28555 -->
<g id="edge15" class="edge">
<title>37&#45;&gt;28555</title>
<path fill="none" stroke="#deb256" d="M1544.11,-683.66C1780.68,-556.84 1834.65,-531.79 1969.12,-550.25"/>
<polygon fill="#deb256" stroke="#deb256" points="1968.33,-553.67 1978.73,-551.63 1969.33,-546.74 1968.33,-553.67"/>
</g>
<!-- 5550 -->
<g id="node10" class="node">
<title>5550</title>
<text text-anchor="middle" x="2121.63" y="-142.73" font-family="Times,serif" font-size="14.00">LicenseType Permissive</text>
</g>
<!-- 5550&#45;&gt;28555 -->
<g id="edge16" class="edge">
<title>5550&#45;&gt;28555</title>
<path fill="none" stroke="#deb256" d="M2125.22,-165.59C2148.16,-280.15 2147.21,-297.13 2102.04,-531.94"/>
<polygon fill="#deb256" stroke="#deb256" points="2098.67,-530.95 2100.21,-541.43 2105.54,-532.28 2098.67,-530.95"/>
</g>
<!-- 27478 -->
<g id="node11" class="node">
<title>27478</title>
<text text-anchor="middle" x="2668.68" y="-500.01" font-family="Times,serif" font-size="14.00">https://github.com/Slicer/Slicer/blob/v4.6.2/COPYRIGHT.txt</text>
</g>
<!-- 27478&#45;&gt;28555 -->
<g id="edge17" class="edge">
<title>27478&#45;&gt;28555</title>
<path fill="none" stroke="#deb256" d="M2587.5,-487.08C2470,-463.53 2419.29,-472.73 2187,-543.77"/>
<polygon fill="#deb256" stroke="#deb256" points="2186.15,-540.37 2177.61,-546.64 2188.2,-547.06 2186.15,-540.37"/>
</g>
<!-- 28555&#45;&gt;28556 -->
<g id="edge18" class="edge">
<title>28555&#45;&gt;28556</title>
<path fill="none" stroke="#deb256" d="M2090.63,-601.78C2066.76,-793.89 2057.09,-816.78 1863.36,-1196.45"/>
<polygon fill="#deb256" stroke="#deb256" points="1860.27,-1194.79 1858.85,-1205.29 1866.51,-1197.97 1860.27,-1194.79"/>
</g>
<!-- 28556&#45;&gt;31 -->
<g id="edge19" class="edge">
<title>28556&#45;&gt;31</title>
<path fill="none" stroke="#00876c" stroke-width="2" d="M1807.73,-1251.51C1717.43,-1309.39 1494.69,-1463.67 1402.95,-1531.75"/>
<polygon fill="#00876c" stroke="#00876c" stroke-width="2" points="1396.18,-1536.8 1401.5,-1527.22 1397.94,-1534.87 1403.9,-1530.42 1404.2,-1530.82 1404.5,-1531.22 1398.54,-1535.67 1406.89,-1534.43 1396.18,-1536.8"/>
</g>
<!-- 28556&#45;&gt;42994 -->
<g id="edge20" class="edge">
<title>28556&#45;&gt;42994</title>
<path fill="none" stroke="#379469" stroke-dasharray="5,2" d="M1860.35,-1251.53C2053.42,-1568.09 2062.63,-1588.16 2054.07,-1794.49"/>
<polygon fill="#379469" stroke="#379469" points="2053.66,-1804.2 2049.58,-1794.02 2053.82,-1800.43 2054.08,-1794.21 2054.08,-1794.21 2054.08,-1794.21 2053.82,-1800.43 2058.58,-1794.4 2053.66,-1804.2"/>
</g>
<!-- 28557 -->
<g id="node14" class="node">
<title>28557</title>
<polygon fill="none" stroke="black" points="2242.32,-1153.71 2242.32,-1168.62 2207.49,-1179.17 2158.23,-1179.17 2123.4,-1168.62 2123.4,-1153.71 2158.23,-1143.17 2207.49,-1143.17 2242.32,-1153.71"/>
<polygon fill="none" stroke="black" points="2246.32,-1150.74 2246.32,-1171.59 2208.08,-1183.17 2157.64,-1183.17 2119.4,-1171.59 2119.4,-1150.74 2157.64,-1139.17 2208.08,-1139.17 2246.32,-1150.74"/>
<text text-anchor="middle" x="2182.86" y="-1156.12" font-family="Times,serif" font-size="14.00">3dslicer&#45;1.0</text>
</g>
<!-- 28557&#45;&gt;28556 -->
<g id="edge21" class="edge">
<title>28557&#45;&gt;28556</title>
<path fill="none" stroke="black" stroke-width="2" d="M2119.03,-1169.93C2074.95,-1176.65 2037.32,-1184.79 1929.61,-1209.8"/>
<polygon fill="black" stroke="black" stroke-width="2" points="1921.34,-1211.72 1930.06,-1205.08 1923.73,-1210.66 1930.97,-1208.97 1931.08,-1209.46 1931.2,-1209.95 1923.95,-1211.63 1932.1,-1213.84 1921.34,-1211.72"/>
</g>
<!-- 28558 -->
<g id="node15" class="node">
<title>28558</title>
<polygon fill="none" stroke="black" points="1994.46,-1559.06 1994.46,-1573.97 1936.26,-1584.51 1853.96,-1584.51 1795.76,-1573.97 1795.76,-1559.06 1853.96,-1548.51 1936.26,-1548.51 1994.46,-1559.06"/>
<polygon fill="none" stroke="black" points="1998.46,-1555.72 1998.46,-1577.31 1936.62,-1588.51 1853.6,-1588.51 1791.76,-1577.31 1791.76,-1555.72 1853.6,-1544.51 1936.62,-1544.51 1998.46,-1555.72"/>
<text text-anchor="middle" x="1895.11" y="-1561.46" font-family="Times,serif" font-size="14.00">3D Slicer License 1.0</text>
</g>
<!-- 28558&#45;&gt;28556 -->
<g id="edge22" class="edge">
<title>28558&#45;&gt;28556</title>
<path fill="none" stroke="#deb256" stroke-width="2" d="M1901.17,-1544.37C1935.17,-1419.27 1933.67,-1403.47 1862.85,-1261.42"/>
<polygon fill="#deb256" stroke="#deb256" stroke-width="2" points="1858.95,-1253.61 1867.44,-1260.54 1860.54,-1255.68 1863.86,-1262.33 1863.41,-1262.55 1862.97,-1262.78 1859.64,-1256.12 1859.39,-1264.56 1858.95,-1253.61"/>
</g>
<!-- 66181 -->
<g id="node37" class="node">
<title>66181</title>
<polygon fill="none" stroke="#00876c" points="1734.37,-1836.05 1734.37,-1850.96 1653.13,-1861.5 1538.25,-1861.5 1457.01,-1850.96 1457.01,-1836.05 1538.25,-1825.5 1653.13,-1825.5 1734.37,-1836.05"/>
<polygon fill="none" stroke="#00876c" points="1738.37,-1832.53 1738.37,-1854.47 1653.39,-1865.5 1537.99,-1865.5 1453.01,-1854.47 1453.01,-1832.53 1537.99,-1821.5 1653.39,-1821.5 1738.37,-1832.53"/>
<text text-anchor="middle" x="1595.69" y="-1838.45" font-family="Times,serif" font-size="14.00">scancode:3D Slicer License 1.0</text>
</g>
<!-- 28558&#45;&gt;66181 -->
<g id="edge23" class="edge">
<title>28558&#45;&gt;66181</title>
<path fill="none" stroke="#00876c" stroke-width="2" d="M1883.13,-1588.9C1797.46,-1748.77 1779.53,-1775.12 1667.48,-1817.66"/>
<polygon fill="#00876c" stroke="#00876c" stroke-width="2" points="1659.36,-1820.71 1667.14,-1812.98 1661.58,-1819.34 1668.55,-1816.73 1668.72,-1817.2 1668.9,-1817.66 1661.93,-1820.27 1670.3,-1821.41 1659.36,-1820.71"/>
</g>
<!-- 28559 -->
<g id="node16" class="node">
<title>28559</title>
<polygon fill="none" stroke="black" points="2335.68,-1756.92 2335.68,-1771.83 2182.73,-1782.38 1966.42,-1782.38 1813.47,-1771.83 1813.47,-1756.92 1966.42,-1746.38 2182.73,-1746.38 2335.68,-1756.92"/>
<polygon fill="none" stroke="black" points="2339.68,-1753.19 2339.68,-1775.57 2182.87,-1786.38 1966.28,-1786.38 1809.47,-1775.57 1809.47,-1753.19 1966.28,-1742.38 2182.87,-1742.38 2339.68,-1753.19"/>
<text text-anchor="middle" x="2074.58" y="-1759.33" font-family="Times,serif" font-size="14.00">3D Slicer Contribution and Software License Agreement v1.0</text>
</g>
<!-- 28559&#45;&gt;28556 -->
<g id="edge24" class="edge">
<title>28559&#45;&gt;28556</title>
<path fill="none" stroke="#deb256" stroke-width="2" d="M2073.99,-1742.11C2068.67,-1546.68 2061.66,-1530.14 1868.96,-1260.31"/>
<polygon fill="#deb256" stroke="#deb256" stroke-width="2" points="1864.04,-1253.41 1873.51,-1258.93 1865.93,-1255.2 1870.26,-1261.26 1869.85,-1261.55 1869.44,-1261.84 1865.12,-1255.79 1866.19,-1264.16 1864.04,-1253.41"/>
</g>
<!-- 28559&#45;&gt;42994 -->
<g id="edge25" class="edge">
<title>28559&#45;&gt;42994</title>
<path fill="none" stroke="#379469" stroke-dasharray="5,2" d="M2073.74,-1786.82C2073.54,-1789.77 2073.29,-1792.37 2072.94,-1794.72"/>
<polygon fill="#379469" stroke="#379469" points="2070.36,-1804.21 2068.64,-1793.38 2071.35,-1800.56 2072.98,-1794.56 2072.98,-1794.56 2072.98,-1794.56 2071.35,-1800.56 2077.32,-1795.74 2070.36,-1804.21"/>
</g>
<!-- 66180 -->
<g id="node36" class="node">
<title>66180</title>
<polygon fill="none" stroke="#00876c" points="1687.37,-1614.41 1687.37,-1629.32 1511.37,-1639.86 1262.48,-1639.86 1086.49,-1629.32 1086.49,-1614.41 1262.48,-1603.86 1511.37,-1603.86 1687.37,-1614.41"/>
<polygon fill="none" stroke="#00876c" points="1691.37,-1610.64 1691.37,-1633.09 1511.49,-1643.86 1262.36,-1643.86 1082.49,-1633.09 1082.49,-1610.64 1262.36,-1599.86 1511.49,-1599.86 1691.37,-1610.64"/>
<text text-anchor="middle" x="1386.93" y="-1616.81" font-family="Times,serif" font-size="14.00">scancode:3D Slicer Contribution and Software License Agreement v1.0</text>
</g>
<!-- 28559&#45;&gt;66180 -->
<g id="edge26" class="edge">
<title>28559&#45;&gt;66180</title>
<path fill="none" stroke="#00876c" stroke-width="2" d="M1957.18,-1786.21C1791.11,-1813.05 1733.11,-1790.9 1442.81,-1649.19"/>
<polygon fill="#00876c" stroke="#00876c" stroke-width="2" points="1435.02,-1645.39 1445.98,-1645.73 1437.54,-1646.06 1444.23,-1649.33 1444.01,-1649.77 1443.79,-1650.22 1437.11,-1646.96 1442.03,-1653.82 1435.02,-1645.39"/>
</g>
<!-- 28560 -->
<g id="node17" class="node">
<title>28560</title>
<text text-anchor="middle" x="1933.49" y="-127.28" font-family="Times,serif" font-size="14.00">https://www.slicer.org/wiki/License</text>
</g>
<!-- 28560&#45;&gt;28555 -->
<g id="edge27" class="edge">
<title>28560&#45;&gt;28555</title>
<path fill="none" stroke="#deb256" d="M1949.21,-150.09C2048.05,-262.11 2054.51,-279.67 2088.75,-531.64"/>
<polygon fill="#deb256" stroke="#deb256" points="2085.28,-532.09 2090.1,-541.53 2092.22,-531.15 2085.28,-532.09"/>
</g>
<!-- 28561 -->
<g id="node18" class="node">
<title>28561</title>
<text text-anchor="middle" x="2328.6" y="-12.46" font-family="Times,serif" font-size="14.00">https://slicer.readthedocs.io/en/latest/user_guide/about.html#license</text>
</g>
<!-- 28561&#45;&gt;28555 -->
<g id="edge28" class="edge">
<title>28561&#45;&gt;28555</title>
<path fill="none" stroke="#deb256" d="M2323.15,-35.36C2276.79,-187.32 2269.37,-204.92 2113.11,-532.77"/>
<polygon fill="#deb256" stroke="#deb256" points="2110,-531.16 2108.86,-541.7 2116.32,-534.17 2110,-531.16"/>
</g>
<!-- 28562 -->
<g id="node19" class="node">
<title>28562</title>
<text text-anchor="middle" x="2444.61" y="-455.3" font-family="Times,serif" font-size="14.00">http://www.slicer.org</text>
</g>
<!-- 28562&#45;&gt;28555 -->
<g id="edge29" class="edge">
<title>28562&#45;&gt;28555</title>
<path fill="none" stroke="#deb256" d="M2379.43,-461.47C2317.86,-464.82 2282.32,-478.85 2159.56,-539.74"/>
<polygon fill="#deb256" stroke="#deb256" points="2158.15,-536.53 2150.75,-544.12 2161.26,-542.8 2158.15,-536.53"/>
</g>
<!-- 28563 -->
<g id="node20" class="node">
<title>28563</title>
<text text-anchor="middle" x="2502.5" y="-238.43" font-family="Times,serif" font-size="14.00">http://wiki.na&#45;mic.org/Wiki/index.php/Slicer3</text>
</g>
<!-- 28563&#45;&gt;28555 -->
<g id="edge30" class="edge">
<title>28563&#45;&gt;28555</title>
<path fill="none" stroke="#deb256" d="M2472.29,-261.42C2368.11,-323.59 2344.98,-342.9 2133.93,-536.01"/>
<polygon fill="#deb256" stroke="#deb256" points="2131.82,-533.2 2126.81,-542.53 2136.55,-538.36 2131.82,-533.2"/>
</g>
<!-- 28564 -->
<g id="node21" class="node">
<title>28564</title>
<text text-anchor="middle" x="2282.16" y="-278.41" font-family="Times,serif" font-size="14.00">$TEXT</text>
</g>
<!-- 28564&#45;&gt;28555 -->
<g id="edge31" class="edge">
<title>28564&#45;&gt;28555</title>
<path fill="none" stroke="#deb256" d="M2271.06,-301.21C2229.9,-367.02 2219.23,-383.42 2119.58,-534.06"/>
<polygon fill="#deb256" stroke="#deb256" points="2116.95,-531.69 2114.35,-541.96 2122.79,-535.55 2116.95,-531.69"/>
</g>
<!-- 35432 -->
<g id="node22" class="node">
<title>35432</title>
<text text-anchor="middle" x="266.21" y="-2123.91" font-family="Times,serif" font-size="14.00">LicenseTag (ScopedLicenseTag &quot;OrtLicenseCategorization&quot; &quot;permissive&quot; NoLicenseTagText)</text>
</g>
<!-- 35434 -->
<g id="node24" class="node">
<title>35434</title>
<ellipse fill="none" stroke="#d43d51" cx="867.99" cy="-1882.92" rx="152.38" ry="28.99"/>
<text text-anchor="middle" x="867.99" y="-1886.12" font-family="Times,serif" font-size="14.00" fill="gray">OrtLicenseCategorization</text>
<text text-anchor="middle" x="867.99" y="-1869.62" font-family="Times,serif" font-size="14.00" fill="gray">48fa747f9e4dca3ffb1599b515cef2e1</text>
</g>
<!-- 35432&#45;&gt;35434 -->
<g id="edge32" class="edge">
<title>35432&#45;&gt;35434</title>
<path fill="none" stroke="#d43d51" d="M333.87,-2111.08C457.49,-2077.53 506.49,-2055.79 800.92,-1915.01"/>
<polygon fill="#d43d51" stroke="#d43d51" points="802.17,-1918.29 809.68,-1910.82 799.15,-1911.97 802.17,-1918.29"/>
</g>
<!-- 35813 -->
<g id="node25" class="node">
<title>35813</title>
<ellipse fill="none" stroke="#d43d51" cx="533.18" cy="-2580.81" rx="156.09" ry="28.99"/>
<text text-anchor="middle" x="533.18" y="-2584.01" font-family="Times,serif" font-size="14.00" fill="gray">OrtLicenseCategorization</text>
<text text-anchor="middle" x="533.18" y="-2567.51" font-family="Times,serif" font-size="14.00" fill="gray">efe312a9da912e7b62bc0fa74c81e07b</text>
</g>
<!-- 35432&#45;&gt;35813 -->
<g id="edge33" class="edge">
<title>35432&#45;&gt;35813</title>
<path fill="none" stroke="#d43d51" d="M269.5,-2146.75C316.62,-2401.29 324.09,-2424.9 485.79,-2545.71"/>
<polygon fill="#d43d51" stroke="#d43d51" points="483.29,-2548.21 493.4,-2551.38 487.48,-2542.6 483.29,-2548.21"/>
</g>
<!-- 35433 -->
<g id="node23" class="node">
<title>35433</title>
<text text-anchor="middle" x="447.35" y="-2430.38" font-family="Times,serif" font-size="14.00">LicenseTag (ScopedLicenseTag &quot;OrtLicenseCategorization&quot; &quot;include&#45;in&#45;notice&#45;file&quot; NoLicenseTagText)</text>
</g>
<!-- 35433&#45;&gt;35434 -->
<g id="edge34" class="edge">
<title>35433&#45;&gt;35434</title>
<path fill="none" stroke="#d43d51" d="M457.88,-2417.55C551.77,-2258.25 564.65,-2241.28 836.12,-1920.57"/>
<polygon fill="#d43d51" stroke="#d43d51" points="838.63,-1923.01 842.42,-1913.12 833.29,-1918.49 838.63,-1923.01"/>
</g>
<!-- 35433&#45;&gt;35813 -->
<g id="edge35" class="edge">
<title>35433&#45;&gt;35813</title>
<path fill="none" stroke="#d43d51" d="M451.07,-2453.37C462,-2505.66 467.49,-2524.97 487.21,-2544.59"/>
<polygon fill="#d43d51" stroke="#d43d51" points="484.65,-2547 494.39,-2551.18 489.39,-2541.84 484.65,-2547"/>
</g>
<!-- 35434&#45;&gt;31 -->
<g id="edge36" class="edge">
<title>35434&#45;&gt;31</title>
<path fill="none" stroke="#d43d51" d="M920.93,-1855.38C1025.55,-1800.4 1064.14,-1774.31 1316.14,-1597.27"/>
<polygon fill="#d43d51" stroke="#d43d51" points="1317.79,-1600.4 1323.96,-1591.78 1313.76,-1594.67 1317.79,-1600.4"/>
</g>
<!-- 35814 -->
<g id="node26" class="node">
<title>35814</title>
<polygon fill="none" stroke="#d43d51" points="712.86,-2645.07 712.86,-2659.98 609.56,-2670.52 463.46,-2670.52 360.16,-2659.98 360.16,-2645.07 463.46,-2634.52 609.56,-2634.52 712.86,-2645.07"/>
<polygon fill="none" stroke="#d43d51" points="716.86,-2641.45 716.86,-2663.59 609.76,-2674.52 463.26,-2674.52 356.16,-2663.59 356.16,-2641.45 463.26,-2630.52 609.76,-2630.52 716.86,-2641.45"/>
<text text-anchor="middle" x="536.51" y="-2647.47" font-family="Times,serif" font-size="14.00">SPDX:LicenseRef&#45;scancode&#45;3dslicer&#45;1.0</text>
</g>
<!-- 35813&#45;&gt;35814 -->
<g id="edge37" class="edge">
<title>35813&#45;&gt;35814</title>
<path fill="none" stroke="#d43d51" d="M528.92,-2610.01C528.53,-2613.35 528.27,-2616.26 528.14,-2618.88"/>
<polygon fill="#d43d51" stroke="#d43d51" points="524.64,-2618.86 528.57,-2628.69 531.63,-2618.55 524.64,-2618.86"/>
</g>
<!-- 35815 -->
<g id="node27" class="node">
<title>35815</title>
<polygon fill="none" stroke="black" points="1139.49,-2644.84 1139.49,-2659.75 1052.73,-2670.29 930.05,-2670.29 843.29,-2659.75 843.29,-2644.84 930.05,-2634.29 1052.73,-2634.29 1139.49,-2644.84"/>
<polygon fill="none" stroke="black" points="1143.49,-2641.29 1143.49,-2663.29 1052.98,-2674.29 929.8,-2674.29 839.29,-2663.29 839.29,-2641.29 929.8,-2630.29 1052.98,-2630.29 1143.49,-2641.29"/>
<text text-anchor="middle" x="991.39" y="-2647.24" font-family="Times,serif" font-size="14.00">LicenseRef&#45;scancode&#45;3dslicer&#45;1.0</text>
</g>
<!-- 35815&#45;&gt;35814 -->
<g id="edge38" class="edge">
<title>35815&#45;&gt;35814</title>
<path fill="none" stroke="#d43d51" stroke-width="2" d="M917.39,-2673.17C744.74,-2721.2 707.68,-2723.19 599.62,-2679.27"/>
<polygon fill="#d43d51" stroke="#d43d51" stroke-width="2" points="591.54,-2675.94 602.5,-2675.58 594.1,-2676.46 600.98,-2679.28 600.79,-2679.75 600.6,-2680.21 593.72,-2677.38 599.08,-2683.91 591.54,-2675.94"/>
</g>
<!-- 66182 -->
<g id="node38" class="node">
<title>66182</title>
<polygon fill="none" stroke="#00876c" points="1376.07,-2120.81 1376.07,-2135.72 1266.27,-2146.26 1111,-2146.26 1001.21,-2135.72 1001.21,-2120.81 1111,-2110.26 1266.27,-2110.26 1376.07,-2120.81"/>
<polygon fill="none" stroke="#00876c" points="1380.07,-2117.17 1380.07,-2139.35 1266.46,-2150.26 1110.81,-2150.26 997.21,-2139.35 997.21,-2117.17 1110.81,-2106.26 1266.46,-2106.26 1380.07,-2117.17"/>
<text text-anchor="middle" x="1188.64" y="-2123.21" font-family="Times,serif" font-size="14.00">scancode:LicenseRef&#45;scancode&#45;3dslicer&#45;1.0</text>
</g>
<!-- 35815&#45;&gt;66182 -->
<g id="edge39" class="edge">
<title>35815&#45;&gt;66182</title>
<path fill="none" stroke="#00876c" stroke-width="2" d="M998.7,-2629.93C1042.54,-2495.85 1050.26,-2475.68 1175.61,-2160.97"/>
<polygon fill="#00876c" stroke="#00876c" stroke-width="2" points="1178.83,-2152.87 1179.31,-2163.83 1178.35,-2155.44 1175.6,-2162.35 1175.13,-2162.16 1174.67,-2161.98 1177.42,-2155.07 1170.95,-2160.5 1178.83,-2152.87"/>
</g>
<!-- 40973 -->
<g id="node28" class="node">
<title>40973</title>
<ellipse fill="none" stroke="#379469" cx="1295.54" cy="-568.72" rx="159.28" ry="28.99"/>
<text text-anchor="middle" x="1295.54" y="-571.92" font-family="Times,serif" font-size="14.00" fill="gray">CavilLicenseChange</text>
<text text-anchor="middle" x="1295.54" y="-555.42" font-family="Times,serif" font-size="14.00" fill="gray">9687d76bcea9b8dce4b3d6bf783489be</text>
</g>
<!-- 40973&#45;&gt;40974 -->
<g id="edge40" class="edge">
<title>40973&#45;&gt;40974</title>
<path fill="none" stroke="#379469" d="M1309.84,-598C1354.01,-688.73 1364.09,-713.96 1455.17,-951.35"/>
<polygon fill="#379469" stroke="#379469" points="1451.89,-952.58 1458.74,-960.66 1458.43,-950.07 1451.89,-952.58"/>
</g>
<!-- 42993 -->
<g id="node30" class="node">
<title>42993</title>
<ellipse fill="none" stroke="#379469" cx="2279.93" cy="-2483.38" rx="155.03" ry="28.99"/>
<text text-anchor="middle" x="2279.93" y="-2486.58" font-family="Times,serif" font-size="14.00" fill="gray">MetaeffektLicense</text>
<text text-anchor="middle" x="2279.93" y="-2470.08" font-family="Times,serif" font-size="14.00" fill="gray">fe021352b28a446fc2e8a3aa1df0a333</text>
</g>
<!-- 42993&#45;&gt;42994 -->
<g id="edge41" class="edge">
<title>42993&#45;&gt;42994</title>
<path fill="none" stroke="#379469" d="M2275.86,-2453.91C2250.31,-2270.26 2241.19,-2246.62 2067.32,-1860.37"/>
<polygon fill="#379469" stroke="#379469" points="2070.57,-1859.07 2063.27,-1851.39 2064.19,-1861.94 2070.57,-1859.07"/>
</g>
<!-- 42995 -->
<g id="node32" class="node">
<title>42995</title>
<polygon fill="none" stroke="#379469" points="3106.49,-2006.52 3106.49,-2021.43 2956.46,-2031.97 2744.28,-2031.97 2594.25,-2021.43 2594.25,-2006.52 2744.28,-1995.97 2956.46,-1995.97 3106.49,-2006.52"/>
<polygon fill="none" stroke="#379469" points="3110.49,-2002.79 3110.49,-2025.16 2956.6,-2035.97 2744.14,-2035.97 2590.25,-2025.16 2590.25,-2002.79 2744.14,-1991.97 2956.6,-1991.97 3110.49,-2002.79"/>
<text text-anchor="middle" x="2850.37" y="-2008.92" font-family="Times,serif" font-size="14.00">3D Slicer Contribution and Software License Agreement 1.0</text>
</g>
<!-- 42995&#45;&gt;42994 -->
<g id="edge42" class="edge">
<title>42995&#45;&gt;42994</title>
<path fill="none" stroke="#379469" stroke-width="2" d="M2622.77,-2000.04C2521.41,-1984.01 2406.33,-1946.73 2129.4,-1853.59"/>
<polygon fill="#379469" stroke="#379469" stroke-width="2" points="2121.37,-1850.89 2132.28,-1849.82 2123.96,-1851.24 2131.01,-1853.61 2130.85,-1854.08 2130.69,-1854.55 2123.64,-1852.18 2129.41,-1858.35 2121.37,-1850.89"/>
</g>
<!-- 42996 -->
<g id="node33" class="node">
<title>42996</title>
<polygon fill="none" stroke="#379469" points="2545.82,-2158.25 2545.82,-2173.16 2516.5,-2183.7 2475.05,-2183.7 2445.73,-2173.16 2445.73,-2158.25 2475.05,-2147.7 2516.5,-2147.7 2545.82,-2158.25"/>
<text text-anchor="middle" x="2495.78" y="-2160.65" font-family="Times,serif" font-size="14.00">3D Slicer</text>
</g>
<!-- 42996&#45;&gt;42994 -->
<g id="edge43" class="edge">
<title>42996&#45;&gt;42994</title>
<path fill="none" stroke="#379469" stroke-dasharray="5,2" d="M2470.93,-2148.77C2361.01,-2073.74 2339.59,-2057.18 2089.18,-1856.98"/>
<polygon fill="#379469" stroke="#379469" points="2081.51,-1850.84 2092.13,-1853.57 2084.47,-1853.21 2089.32,-1857.09 2089.32,-1857.09 2089.32,-1857.09 2084.47,-1853.21 2086.51,-1860.6 2081.51,-1850.84"/>
</g>
<!-- 42997 -->
<g id="node34" class="node">
<title>42997</title>
<polygon fill="none" stroke="#379469" points="3120.67,-2419.14 3120.67,-2434.06 2914.5,-2444.6 2622.92,-2444.6 2416.75,-2434.06 2416.75,-2419.14 2622.92,-2408.6 2914.5,-2408.6 3120.67,-2419.14"/>
<text text-anchor="middle" x="2768.71" y="-2421.55" font-family="Times,serif" font-size="14.00">3D Slicer Contribution and Software License Agreement (&quot;Agreement&quot;) Version 1.0</text>
</g>
<!-- 42997&#45;&gt;42994 -->
<g id="edge44" class="edge">
<title>42997&#45;&gt;42994</title>
<path fill="none" stroke="#379469" stroke-dasharray="5,2" d="M2745.41,-2408.16C2553.08,-2255.92 2531.7,-2237.92 2087.02,-1857.19"/>
<polygon fill="#379469" stroke="#379469" points="2079.7,-1850.93 2090.22,-1854.01 2082.57,-1853.39 2087.3,-1857.43 2087.3,-1857.43 2087.3,-1857.43 2082.57,-1853.39 2084.37,-1860.85 2079.7,-1850.93"/>
</g>
<!-- 66179 -->
<g id="node35" class="node">
<title>66179</title>
<ellipse fill="none" stroke="#00876c" cx="923.16" cy="-1539.27" rx="157.68" ry="28.99"/>
<text text-anchor="middle" x="923.16" y="-1542.47" font-family="Times,serif" font-size="14.00" fill="gray">LicenseLynx</text>
<text text-anchor="middle" x="923.16" y="-1525.97" font-family="Times,serif" font-size="14.00" fill="gray">d85b516fbe12b580fa741f0c9414b04b</text>
</g>
<!-- 66179&#45;&gt;31 -->
<g id="edge45" class="edge">
<title>66179&#45;&gt;31</title>
<path fill="none" stroke="#00876c" d="M998.97,-1565.09C1063.49,-1584.21 1109.35,-1584.72 1254.7,-1573.45"/>
<polygon fill="#00876c" stroke="#00876c" points="1254.59,-1576.97 1264.29,-1572.7 1254.04,-1569.99 1254.59,-1576.97"/>
</g>
<!-- 66180&#45;&gt;31 -->
<g id="edge46" class="edge">
<title>66180&#45;&gt;31</title>
<path fill="none" stroke="#00876c" stroke-width="2" d="M1368.56,-1599.61C1368.5,-1599.46 1368.44,-1599.3 1368.38,-1599.15"/>
<polygon fill="#00876c" stroke="#00876c" stroke-width="2" points="1366.84,-1593.54 1373.83,-1601.99 1368,-1595.88 1369.98,-1603.05 1369.5,-1603.18 1369.01,-1603.32 1367.04,-1596.15 1365.16,-1604.38 1366.84,-1593.54"/>
</g>
<!-- 66181&#45;&gt;31 -->
<g id="edge47" class="edge">
<title>66181&#45;&gt;31</title>
<path fill="none" stroke="#00876c" stroke-width="2" d="M1552.77,-1821.1C1467.45,-1775.22 1452.32,-1752.67 1379.73,-1600.82"/>
<polygon fill="#00876c" stroke="#00876c" stroke-width="2" points="1376.14,-1593.31 1384.51,-1600.4 1377.69,-1595.41 1380.9,-1602.12 1380.45,-1602.34 1380,-1602.55 1376.79,-1595.84 1376.39,-1604.28 1376.14,-1593.31"/>
</g>
<!-- 66182&#45;&gt;31 -->
<g id="edge48" class="edge">
<title>66182&#45;&gt;31</title>
<path fill="none" stroke="#00876c" stroke-width="2" d="M1192.07,-2106.04C1215.79,-1953.24 1222.21,-1933.26 1348.53,-1601.39"/>
<polygon fill="#00876c" stroke="#00876c" stroke-width="2" points="1351.63,-1593.26 1352.28,-1604.2 1351.19,-1595.83 1348.54,-1602.78 1348.07,-1602.6 1347.61,-1602.42 1350.25,-1595.47 1343.87,-1601 1351.63,-1593.26"/>
</g>
<!-- 66183&#45;&gt;31 -->
<g id="edge49" class="edge">
<title>66183&#45;&gt;31</title>
<path fill="none" stroke="#00876c" stroke-width="2" d="M1170.97,-1871.7C1210.97,-1793.49 1222.8,-1774.62 1338.85,-1600.24"/>
<polygon fill="#00876c" stroke="#00876c" stroke-width="2" points="1343.65,-1593.03 1341.85,-1603.84 1342.64,-1595.44 1338.52,-1601.63 1338.11,-1601.35 1337.69,-1601.07 1341.81,-1594.88 1334.36,-1598.86 1343.65,-1593.03"/>
</g>
</g>
</svg>
