<?xml version="1.0" encoding="UTF-8" standalone="no"?>
<!DOCTYPE svg PUBLIC "-//W3C//DTD SVG 1.1//EN"
 "http://www.w3.org/Graphics/SVG/1.1/DTD/svg11.dtd">
<!-- Generated by graphviz version 10.0.1 (0)
 -->
<!-- Pages: 1 -->
<svg width="1577pt" height="1355pt"
 viewBox="0.00 0.00 1577.00 1355.00" xmlns="http://www.w3.org/2000/svg" xmlns:xlink="http://www.w3.org/1999/xlink">
<g id="graph0" class="graph" transform="scale(1 1) rotate(0) translate(4 1351)">
<polygon fill="white" stroke="none" points="-4,4 -4,-1351 1573,-1351 1573,4 -4,4"/>
<!-- 225 -->
<g id="node1" class="node">
<title>225</title>
<ellipse fill="none" stroke="#b8bf62" cx="156.63" cy="-1035.8" rx="156.62" ry="28.99"/>
<text text-anchor="middle" x="156.63" y="-1039" font-family="Times,serif" font-size="14.00" fill="gray">SPDXLicense</text>
<text text-anchor="middle" x="156.63" y="-1022.5" font-family="Times,serif" font-size="14.00" fill="gray">07710a3cbf10f611dd0f761c2c4b09c7</text>
</g>
<!-- 226 -->
<g id="node2" class="node">
<title>226</title>
<polygon fill="none" stroke="black" points="609.2,-893.6 609.2,-908.52 558.14,-919.06 485.94,-919.06 434.88,-908.52 434.88,-893.6 485.94,-883.06 558.14,-883.06 609.2,-893.6"/>
<polygon fill="none" stroke="black" points="613.2,-890.35 613.2,-911.77 558.55,-923.06 485.53,-923.06 430.88,-911.77 430.88,-890.35 485.53,-879.06 558.55,-879.06 613.2,-890.35"/>
<polygon fill="none" stroke="black" points="617.2,-887.09 617.2,-915.03 558.96,-927.06 485.12,-927.06 426.88,-915.03 426.88,-887.09 485.12,-875.06 558.96,-875.06 617.2,-887.09"/>
<text text-anchor="middle" x="522.04" y="-896.01" font-family="Times,serif" font-size="14.00">spdx:AdaCore&#45;doc</text>
</g>
<!-- 225&#45;&gt;226 -->
<g id="edge1" class="edge">
<title>225&#45;&gt;226</title>
<path fill="none" stroke="#b8bf62" d="M254.46,-1012.87C298.61,-999.58 346.64,-979.09 459.37,-928.97"/>
<polygon fill="#b8bf62" stroke="#b8bf62" points="460.66,-932.23 468.37,-924.97 457.81,-925.84 460.66,-932.23"/>
</g>
<!-- 5859 -->
<g id="node6" class="node">
<title>5859</title>
<polygon fill="none" stroke="#e09d4b" points="611.16,-956.85 611.16,-971.77 554.91,-982.31 475.36,-982.31 419.11,-971.77 419.11,-956.85 475.36,-946.31 554.91,-946.31 611.16,-956.85"/>
<polygon fill="none" stroke="#e09d4b" points="615.16,-953.53 615.16,-975.09 555.28,-986.31 474.99,-986.31 415.11,-975.09 415.11,-953.53 474.99,-942.31 555.28,-942.31 615.16,-953.53"/>
<text text-anchor="middle" x="515.13" y="-959.26" font-family="Times,serif" font-size="14.00">Fedora:AdaCore&#45;doc</text>
</g>
<!-- 226&#45;&gt;5859 -->
<g id="edge2" class="edge">
<title>226&#45;&gt;5859</title>
<path fill="none" stroke="#e09d4b" stroke-width="2" d="M514.19,-927.3C513.8,-928.77 513.46,-930.15 513.16,-931.45"/>
<polygon fill="#e09d4b" stroke="#e09d4b" stroke-width="2" points="511.89,-939.9 508.92,-929.34 511.78,-937.29 512.88,-929.93 513.37,-930.01 513.87,-930.08 512.77,-937.44 517.83,-930.68 511.89,-939.9"/>
</g>
<!-- 39126 -->
<g id="node13" class="node">
<title>39126</title>
<polygon fill="none" stroke="#00876c" points="923.21,-943.1 923.21,-958.02 837.1,-968.56 715.33,-968.56 629.23,-958.02 629.23,-943.1 715.33,-932.56 837.1,-932.56 923.21,-943.1"/>
<polygon fill="none" stroke="#00876c" points="927.21,-939.56 927.21,-961.56 837.35,-972.56 715.09,-972.56 625.23,-961.56 625.23,-939.56 715.09,-928.56 837.35,-928.56 927.21,-939.56"/>
<text text-anchor="middle" x="776.22" y="-945.51" font-family="Times,serif" font-size="14.00">metaeffekt:AdaCore Doc License</text>
</g>
<!-- 226&#45;&gt;39126 -->
<g id="edge3" class="edge">
<title>226&#45;&gt;39126</title>
<path fill="none" stroke="#00876c" stroke-width="2" d="M560.4,-927.02C581.64,-940.9 598.02,-950.14 614.57,-955.74"/>
<polygon fill="#00876c" stroke="#00876c" stroke-width="2" points="622.6,-958.08 611.74,-959.6 620,-957.84 612.86,-955.76 613,-955.28 613.14,-954.8 620.28,-956.88 614.26,-950.96 622.6,-958.08"/>
</g>
<!-- 227 -->
<g id="node3" class="node">
<title>227</title>
<polygon fill="none" stroke="black" points="763.23,-686.94 763.23,-701.85 724.83,-712.4 670.53,-712.4 632.13,-701.85 632.13,-686.94 670.53,-676.4 724.83,-676.4 763.23,-686.94"/>
<polygon fill="none" stroke="black" points="767.23,-683.89 767.23,-704.9 725.37,-716.4 669.99,-716.4 628.13,-704.9 628.13,-683.89 669.99,-672.4 725.37,-672.4 767.23,-683.89"/>
<text text-anchor="middle" x="697.68" y="-689.35" font-family="Times,serif" font-size="14.00">AdaCore&#45;doc</text>
</g>
<!-- 227&#45;&gt;226 -->
<g id="edge4" class="edge">
<title>227&#45;&gt;226</title>
<path fill="none" stroke="black" stroke-width="2" d="M675.8,-716.74C588.48,-805.95 568.79,-827.01 543.99,-865.5"/>
<polygon fill="black" stroke="black" stroke-width="2" points="539.55,-872.51 541.1,-861.66 540.5,-870.08 544.48,-863.8 544.9,-864.06 545.33,-864.33 541.35,-870.61 548.71,-866.47 539.55,-872.51"/>
</g>
<!-- 227&#45;&gt;5859 -->
<g id="edge5" class="edge">
<title>227&#45;&gt;5859</title>
<path fill="none" stroke="#e09d4b" stroke-width="2" d="M679.98,-716.84C574.2,-850.99 558.3,-872.36 530.05,-932.08"/>
<polygon fill="#e09d4b" stroke="#e09d4b" stroke-width="2" points="526.43,-939.82 526.6,-928.85 527.07,-937.28 530.22,-930.55 530.67,-930.76 531.13,-930.97 527.97,-937.71 534.75,-932.67 526.43,-939.82"/>
</g>
<!-- 11280 -->
<g id="node8" class="node">
<title>11280</title>
<polygon fill="none" stroke="black" points="1115.92,-675.54 1115.92,-690.45 1057.4,-700.99 974.64,-700.99 916.12,-690.45 916.12,-675.54 974.64,-664.99 1057.4,-664.99 1115.92,-675.54"/>
<polygon fill="none" stroke="black" points="1119.92,-672.19 1119.92,-693.79 1057.76,-704.99 974.28,-704.99 912.12,-693.79 912.12,-672.19 974.28,-660.99 1057.76,-660.99 1119.92,-672.19"/>
<text text-anchor="middle" x="1016.02" y="-677.94" font-family="Times,serif" font-size="14.00">scancode:adacore&#45;doc</text>
</g>
<!-- 227&#45;&gt;11280 -->
<g id="edge6" class="edge">
<title>227&#45;&gt;11280</title>
<path fill="none" stroke="black" stroke-width="2" d="M767.71,-696.7C843.82,-699.1 884.54,-699.82 916.78,-697.89"/>
<polygon fill="black" stroke="black" stroke-width="2" points="925.45,-697.27 915.79,-702.48 922.93,-697.96 915.51,-698.49 915.47,-697.99 915.44,-697.49 922.86,-696.96 915.15,-693.5 925.45,-697.27"/>
</g>
<!-- 36408 -->
<g id="node11" class="node">
<title>36408</title>
<polygon fill="none" stroke="#379469" points="827.91,-379.2 827.91,-394.11 776.53,-404.66 703.87,-404.66 652.49,-394.11 652.49,-379.2 703.87,-368.66 776.53,-368.66 827.91,-379.2"/>
<polygon fill="none" stroke="#379469" points="831.91,-375.94 831.91,-397.37 776.94,-408.66 703.46,-408.66 648.49,-397.37 648.49,-375.94 703.46,-364.66 776.94,-364.66 831.91,-375.94"/>
<text text-anchor="middle" x="740.2" y="-381.61" font-family="Times,serif" font-size="14.00">cavil:AdaCore&#45;doc</text>
</g>
<!-- 227&#45;&gt;36408 -->
<g id="edge7" class="edge">
<title>227&#45;&gt;36408</title>
<path fill="none" stroke="#379469" stroke-width="2" d="M697.02,-671.91C692.23,-508.43 692.95,-485.01 724.44,-418.8"/>
<polygon fill="#379469" stroke="#379469" stroke-width="2" points="728.25,-410.9 727.96,-421.86 727.59,-413.42 724.36,-420.12 723.91,-419.9 723.46,-419.69 726.69,-412.99 719.85,-417.95 728.25,-410.9"/>
</g>
<!-- 227&#45;&gt;39126 -->
<g id="edge8" class="edge">
<title>227&#45;&gt;39126</title>
<path fill="none" stroke="#00876c" stroke-dasharray="5,2" d="M700.52,-716.52C717.45,-847.99 721.82,-871.69 753.93,-919.09"/>
<polygon fill="#00876c" stroke="#00876c" points="759.56,-927.25 750.18,-921.58 757.41,-924.14 753.88,-919.02 753.88,-919.02 753.88,-919.02 757.41,-924.14 757.58,-916.46 759.56,-927.25"/>
</g>
<!-- 228 -->
<g id="node4" class="node">
<title>228</title>
<polygon fill="none" stroke="black" points="1012.76,-888.96 1012.76,-903.87 953.59,-914.42 869.91,-914.42 810.74,-903.87 810.74,-888.96 869.91,-878.42 953.59,-878.42 1012.76,-888.96"/>
<polygon fill="none" stroke="black" points="1016.76,-885.61 1016.76,-907.22 953.94,-918.42 869.56,-918.42 806.74,-907.22 806.74,-885.61 869.56,-874.42 953.94,-874.42 1016.76,-885.61"/>
<text text-anchor="middle" x="911.75" y="-891.37" font-family="Times,serif" font-size="14.00">AdaCore Doc License</text>
</g>
<!-- 228&#45;&gt;226 -->
<g id="edge9" class="edge">
<title>228&#45;&gt;226</title>
<path fill="none" stroke="#b8bf62" stroke-width="2" d="M855.26,-916.32C718.71,-963.78 686.51,-966.91 586.87,-927.76"/>
<polygon fill="#b8bf62" stroke="#b8bf62" stroke-width="2" points="578.95,-924.6 589.91,-924.12 581.52,-925.09 588.43,-927.84 588.24,-928.3 588.06,-928.77 581.15,-926.02 586.58,-932.48 578.95,-924.6"/>
</g>
<!-- 228&#45;&gt;11280 -->
<g id="edge10" class="edge">
<title>228&#45;&gt;11280</title>
<path fill="none" stroke="#dac767" stroke-width="2" d="M937.05,-874.05C997.07,-820.27 1004.09,-805.04 1012.88,-716.25"/>
<polygon fill="#dac767" stroke="#dac767" stroke-width="2" points="1013.7,-707.77 1017.22,-718.16 1013.95,-710.37 1013.23,-717.77 1012.74,-717.73 1012.24,-717.68 1012.96,-710.28 1008.26,-717.29 1013.7,-707.77"/>
</g>
<!-- 228&#45;&gt;39126 -->
<g id="edge11" class="edge">
<title>228&#45;&gt;39126</title>
<path fill="none" stroke="#00876c" stroke-width="2" d="M886.84,-918.79C884.08,-921.19 881.48,-923.42 878.98,-925.48"/>
<polygon fill="#00876c" stroke="#00876c" stroke-width="2" points="872.33,-930.74 877.38,-921.01 874.03,-928.76 879.87,-924.14 880.18,-924.53 880.49,-924.93 874.65,-929.54 882.97,-928.06 872.33,-930.74"/>
</g>
<!-- 5858 -->
<g id="node5" class="node">
<title>5858</title>
<ellipse fill="none" stroke="#e09d4b" cx="357.29" cy="-1318.41" rx="155.56" ry="28.99"/>
<text text-anchor="middle" x="357.29" y="-1321.61" font-family="Times,serif" font-size="14.00" fill="gray">FedoraEntry</text>
<text text-anchor="middle" x="357.29" y="-1305.11" font-family="Times,serif" font-size="14.00" fill="gray">1e8bac319e9861fc3660d7e2bf1f197e</text>
</g>
<!-- 5858&#45;&gt;5859 -->
<g id="edge12" class="edge">
<title>5858&#45;&gt;5859</title>
<path fill="none" stroke="#e09d4b" d="M365.65,-1289.13C389.66,-1206.11 400.38,-1183.66 498.05,-996.96"/>
<polygon fill="#e09d4b" stroke="#e09d4b" points="501.14,-998.61 502.67,-988.12 494.93,-995.36 501.14,-998.61"/>
</g>
<!-- 11279 -->
<g id="node7" class="node">
<title>11279</title>
<ellipse fill="none" stroke="#dac767" cx="1407.04" cy="-650.78" rx="161.93" ry="28.99"/>
<text text-anchor="middle" x="1407.04" y="-653.98" font-family="Times,serif" font-size="14.00" fill="gray">ScancodeData</text>
<text text-anchor="middle" x="1407.04" y="-637.48" font-family="Times,serif" font-size="14.00" fill="gray">c5d41428f52b0024b89b0780116b4811</text>
</g>
<!-- 11279&#45;&gt;11280 -->
<g id="edge13" class="edge">
<title>11279&#45;&gt;11280</title>
<path fill="none" stroke="#dac767" d="M1268.65,-666.12C1236.24,-668.77 1195.11,-671.57 1131.42,-675.66"/>
<polygon fill="#dac767" stroke="#dac767" points="1131.41,-672.16 1121.65,-676.29 1131.85,-679.14 1131.41,-672.16"/>
</g>
<!-- 11280&#45;&gt;39126 -->
<g id="edge14" class="edge">
<title>11280&#45;&gt;39126</title>
<path fill="none" stroke="#00876c" stroke-dasharray="5,2" d="M1007.07,-705.49C949.28,-850.36 936.5,-872.64 833.37,-923.34"/>
<polygon fill="#00876c" stroke="#00876c" points="824.54,-927.64 831.56,-919.22 827.94,-925.99 833.53,-923.26 833.53,-923.26 833.53,-923.26 827.94,-925.99 835.5,-927.31 824.54,-927.64"/>
</g>
<!-- 28597 -->
<g id="node9" class="node">
<title>28597</title>
<ellipse fill="none" stroke="#dc574a" cx="178.85" cy="-731.74" rx="155.56" ry="28.99"/>
<text text-anchor="middle" x="178.85" y="-734.94" font-family="Times,serif" font-size="14.00" fill="gray">OrtLicenseCategorization</text>
<text text-anchor="middle" x="178.85" y="-718.44" font-family="Times,serif" font-size="14.00" fill="gray">6cbe731ae3c2844c0a3865e254f1ccf7</text>
</g>
<!-- 28597&#45;&gt;226 -->
<g id="edge15" class="edge">
<title>28597&#45;&gt;226</title>
<path fill="none" stroke="#dc574a" d="M205.31,-760.61C269.03,-829.05 294.08,-843.05 436.52,-879.6"/>
<polygon fill="#dc574a" stroke="#dc574a" points="435.42,-882.93 445.97,-882.02 437.15,-876.15 435.42,-882.93"/>
</g>
<!-- 36407 -->
<g id="node10" class="node">
<title>36407</title>
<ellipse fill="none" stroke="#379469" cx="816.7" cy="-28.6" rx="155.56" ry="28.99"/>
<text text-anchor="middle" x="816.7" y="-31.8" font-family="Times,serif" font-size="14.00" fill="gray">CavilLicenseChange</text>
<text text-anchor="middle" x="816.7" y="-15.3" font-family="Times,serif" font-size="14.00" fill="gray">597af48e5a6f9231643320f3f617633c</text>
</g>
<!-- 36407&#45;&gt;36408 -->
<g id="edge16" class="edge">
<title>36407&#45;&gt;36408</title>
<path fill="none" stroke="#379469" d="M805.89,-57.94C778.6,-132.93 774.13,-157.5 745.16,-353.15"/>
<polygon fill="#379469" stroke="#379469" points="741.71,-352.53 743.71,-362.93 748.64,-353.56 741.71,-352.53"/>
</g>
<!-- 39125 -->
<g id="node12" class="node">
<title>39125</title>
<ellipse fill="none" stroke="#00876c" cx="784.7" cy="-1010.99" rx="156.09" ry="28.99"/>
<text text-anchor="middle" x="784.7" y="-1014.19" font-family="Times,serif" font-size="14.00" fill="gray">MetaeffektLicense</text>
<text text-anchor="middle" x="784.7" y="-997.69" font-family="Times,serif" font-size="14.00" fill="gray">87d54af071fa58da0f3bb9742d54bf60</text>
</g>
<!-- 39125&#45;&gt;39126 -->
<g id="edge17" class="edge">
<title>39125&#45;&gt;39126</title>
<path fill="none" stroke="#00876c" d="M779.32,-981.72C779.31,-981.57 779.29,-981.41 779.27,-981.25"/>
<polygon fill="#00876c" stroke="#00876c" points="783.1,-984.14 778.57,-974.56 776.13,-984.88 783.1,-984.14"/>
</g>
</g>
</svg>
