<?xml version="1.0" encoding="UTF-8" standalone="no"?>
<!DOCTYPE svg PUBLIC "-//W3C//DTD SVG 1.1//EN"
 "http://www.w3.org/Graphics/SVG/1.1/DTD/svg11.dtd">
<!-- Generated by graphviz version 10.0.1 (0)
 -->
<!-- Pages: 1 -->
<svg width="2310pt" height="1504pt"
 viewBox="0.00 0.00 2310.00 1504.00" xmlns="http://www.w3.org/2000/svg" xmlns:xlink="http://www.w3.org/1999/xlink">
<g id="graph0" class="graph" transform="scale(1 1) rotate(0) translate(4 1500)">
<polygon fill="white" stroke="none" points="-4,4 -4,-1500 2306,-1500 2306,4 -4,4"/>
<!-- 43 -->
<g id="node1" class="node">
<title>43</title>
<ellipse fill="none" stroke="#78ab63" cx="661.93" cy="-1283.99" rx="160.87" ry="28.99"/>
<text text-anchor="middle" x="661.93" y="-1287.19" font-family="Times,serif" font-size="14.00" fill="gray">SPDXLicense</text>
<text text-anchor="middle" x="661.93" y="-1270.69" font-family="Times,serif" font-size="14.00" fill="gray">73950a2b858713c5706d23af86029d94</text>
</g>
<!-- 44 -->
<g id="node2" class="node">
<title>44</title>
<polygon fill="none" stroke="black" points="983.73,-961.31 983.73,-976.22 943.7,-986.76 887.1,-986.76 847.08,-976.22 847.08,-961.31 887.1,-950.76 943.7,-950.76 983.73,-961.31"/>
<polygon fill="none" stroke="black" points="987.73,-958.22 987.73,-979.3 944.22,-990.76 886.59,-990.76 843.08,-979.3 843.08,-958.22 886.59,-946.76 944.22,-946.76 987.73,-958.22"/>
<polygon fill="none" stroke="black" points="991.73,-955.14 991.73,-982.38 944.74,-994.76 886.07,-994.76 839.08,-982.38 839.08,-955.14 886.07,-942.76 944.74,-942.76 991.73,-955.14"/>
<text text-anchor="middle" x="915.4" y="-963.71" font-family="Times,serif" font-size="14.00">spdx:AFL&#45;1.2</text>
</g>
<!-- 43&#45;&gt;44 -->
<g id="edge1" class="edge">
<title>43&#45;&gt;44</title>
<path fill="none" stroke="#78ab63" d="M682.61,-1255.07C731.48,-1186.98 749.95,-1164.47 885.79,-1003.79"/>
<polygon fill="#78ab63" stroke="#78ab63" points="888.43,-1006.08 892.22,-996.18 883.09,-1001.56 888.43,-1006.08"/>
</g>
<!-- 4946 -->
<g id="node6" class="node">
<title>4946</title>
<polygon fill="none" stroke="#e06f45" points="610.68,-1017.93 610.68,-1032.84 569.36,-1043.38 510.93,-1043.38 469.6,-1032.84 469.6,-1017.93 510.93,-1007.38 569.36,-1007.38 610.68,-1017.93"/>
<polygon fill="none" stroke="#e06f45" points="614.68,-1014.82 614.68,-1035.95 569.86,-1047.38 510.42,-1047.38 465.6,-1035.95 465.6,-1014.82 510.42,-1003.38 569.86,-1003.38 614.68,-1014.82"/>
<text text-anchor="middle" x="540.14" y="-1020.33" font-family="Times,serif" font-size="14.00">google:AFL12</text>
</g>
<!-- 44&#45;&gt;4946 -->
<g id="edge2" class="edge">
<title>44&#45;&gt;4946</title>
<path fill="none" stroke="#e06f45" stroke-width="2" d="M850.6,-985.84C723.14,-1019.26 676.79,-1029.79 626.31,-1030.28"/>
<polygon fill="#e06f45" stroke="#e06f45" stroke-width="2" points="617.53,-1030.25 627.55,-1025.79 620.1,-1029.76 627.53,-1029.79 627.53,-1030.29 627.53,-1030.79 620.09,-1030.76 627.51,-1034.79 617.53,-1030.25"/>
</g>
<!-- 9536 -->
<g id="node11" class="node">
<title>9536</title>
<polygon fill="none" stroke="#deb256" points="728.83,-824.52 728.83,-839.44 654.08,-849.98 548.37,-849.98 473.63,-839.44 473.63,-824.52 548.37,-813.98 654.08,-813.98 728.83,-824.52"/>
<text text-anchor="middle" x="601.23" y="-826.93" font-family="Times,serif" font-size="14.00">fsf:AcademicFreeLicense1.2</text>
</g>
<!-- 44&#45;&gt;9536 -->
<g id="edge3" class="edge">
<title>44&#45;&gt;9536</title>
<path fill="none" stroke="#deb256" stroke-dasharray="5,2" d="M841.78,-954.09C710.48,-927.27 687.02,-916.12 627.39,-857.95"/>
<polygon fill="#deb256" stroke="#deb256" points="620.4,-851.08 630.69,-854.88 623.1,-853.73 627.53,-858.09 627.53,-858.09 627.53,-858.09 623.1,-853.73 624.38,-861.3 620.4,-851.08"/>
</g>
<!-- 38632 -->
<g id="node23" class="node">
<title>38632</title>
<polygon fill="none" stroke="#d43d51" points="1541.4,-1094.57 1541.4,-1109.48 1442.64,-1120.03 1302.97,-1120.03 1204.21,-1109.48 1204.21,-1094.57 1302.97,-1084.03 1442.64,-1084.03 1541.4,-1094.57"/>
<polygon fill="none" stroke="#d43d51" points="1545.4,-1090.98 1545.4,-1113.08 1442.85,-1124.03 1302.76,-1124.03 1200.21,-1113.08 1200.21,-1090.98 1302.76,-1080.03 1442.85,-1080.03 1545.4,-1090.98"/>
<text text-anchor="middle" x="1372.8" y="-1096.98" font-family="Times,serif" font-size="14.00">metaeffekt:Academic Free License 1.2</text>
</g>
<!-- 44&#45;&gt;38632 -->
<g id="edge4" class="edge">
<title>44&#45;&gt;38632</title>
<path fill="none" stroke="#d43d51" stroke-width="2" d="M950.3,-993.68C1081.65,-1087.23 1128.76,-1116.16 1215.16,-1116.46"/>
<polygon fill="#d43d51" stroke="#d43d51" stroke-width="2" points="1223.75,-1116.38 1213.79,-1120.98 1221.19,-1116.9 1213.75,-1116.98 1213.75,-1116.48 1213.74,-1115.98 1221.18,-1115.9 1213.71,-1111.98 1223.75,-1116.38"/>
</g>
<!-- 45 -->
<g id="node3" class="node">
<title>45</title>
<polygon fill="none" stroke="black" points="1277.31,-711.79 1277.31,-726.7 1249.94,-737.24 1211.24,-737.24 1183.87,-726.7 1183.87,-711.79 1211.24,-701.24 1249.94,-701.24 1277.31,-711.79"/>
<polygon fill="none" stroke="black" points="1281.31,-709.04 1281.31,-729.44 1250.68,-741.24 1210.49,-741.24 1179.87,-729.44 1179.87,-709.04 1210.49,-697.24 1250.68,-697.24 1281.31,-709.04"/>
<text text-anchor="middle" x="1230.59" y="-714.19" font-family="Times,serif" font-size="14.00">AFL&#45;1.2</text>
</g>
<!-- 45&#45;&gt;44 -->
<g id="edge5" class="edge">
<title>45&#45;&gt;44</title>
<path fill="none" stroke="black" stroke-width="2" d="M1207.11,-740.33C1056.97,-875.2 1026.05,-902.14 964.81,-939.55"/>
<polygon fill="black" stroke="black" stroke-width="2" points="957.62,-943.9 963.85,-934.87 959.55,-942.14 965.92,-938.29 966.18,-938.72 966.44,-939.15 960.07,-943 968.51,-942.57 957.62,-943.9"/>
</g>
<!-- 8222 -->
<g id="node10" class="node">
<title>8222</title>
<polygon fill="none" stroke="#00876c" points="1127.99,-418.04 1127.99,-432.95 1078.23,-443.5 1007.86,-443.5 958.11,-432.95 958.11,-418.04 1007.86,-407.5 1078.23,-407.5 1127.99,-418.04"/>
<polygon fill="none" stroke="#00876c" points="1131.99,-414.8 1131.99,-436.2 1078.65,-447.5 1007.45,-447.5 954.11,-436.2 954.11,-414.8 1007.45,-403.5 1078.65,-403.5 1131.99,-414.8"/>
<text text-anchor="middle" x="1043.05" y="-420.45" font-family="Times,serif" font-size="14.00">BlueOak:AFL&#45;1.2</text>
</g>
<!-- 45&#45;&gt;8222 -->
<g id="edge6" class="edge">
<title>45&#45;&gt;8222</title>
<path fill="none" stroke="#00876c" stroke-width="2" d="M1220.33,-696.92C1144.43,-531.8 1130.9,-505.2 1076.22,-455.01"/>
<polygon fill="#00876c" stroke="#00876c" stroke-width="2" points="1070.03,-449.39 1080.46,-452.77 1072.26,-450.74 1077.77,-455.74 1077.43,-456.11 1077.1,-456.48 1071.59,-451.48 1074.41,-459.44 1070.03,-449.39"/>
</g>
<!-- 10873 -->
<g id="node13" class="node">
<title>10873</title>
<polygon fill="none" stroke="black" points="1631.45,-716.85 1631.45,-731.76 1585.91,-742.31 1521.51,-742.31 1475.97,-731.76 1475.97,-716.85 1521.51,-706.31 1585.91,-706.31 1631.45,-716.85"/>
<polygon fill="none" stroke="black" points="1635.45,-713.67 1635.45,-734.94 1586.37,-746.31 1521.05,-746.31 1471.97,-734.94 1471.97,-713.67 1521.05,-702.31 1586.37,-702.31 1635.45,-713.67"/>
<text text-anchor="middle" x="1553.71" y="-719.26" font-family="Times,serif" font-size="14.00">scancode:afl&#45;1.2</text>
</g>
<!-- 45&#45;&gt;10873 -->
<g id="edge7" class="edge">
<title>45&#45;&gt;10873</title>
<path fill="none" stroke="black" stroke-width="2" d="M1281.78,-718.24C1378.58,-716.37 1424.15,-715.75 1460.6,-717.04"/>
<polygon fill="black" stroke="black" stroke-width="2" points="1469.23,-717.4 1459.05,-721.48 1466.65,-717.8 1459.22,-717.48 1459.24,-716.99 1459.26,-716.49 1466.69,-716.8 1459.43,-712.49 1469.23,-717.4"/>
</g>
<!-- 25474 -->
<g id="node17" class="node">
<title>25474</title>
<polygon fill="none" stroke="#e18745" points="1324.59,-420.54 1324.59,-435.45 1272.88,-445.99 1199.76,-445.99 1148.05,-435.45 1148.05,-420.54 1199.76,-409.99 1272.88,-409.99 1324.59,-420.54"/>
<polygon fill="none" stroke="#e18745" points="1328.59,-417.27 1328.59,-438.72 1273.28,-449.99 1199.35,-449.99 1144.05,-438.72 1144.05,-417.27 1199.35,-405.99 1273.28,-405.99 1328.59,-417.27"/>
<text text-anchor="middle" x="1236.32" y="-422.94" font-family="Times,serif" font-size="14.00">fossology:AFL&#45;1.2</text>
</g>
<!-- 45&#45;&gt;25474 -->
<g id="edge8" class="edge">
<title>45&#45;&gt;25474</title>
<path fill="none" stroke="#e18745" stroke-width="2" d="M1233.72,-696.9C1254.89,-545.39 1257.23,-521.66 1243.99,-461.09"/>
<polygon fill="#e18745" stroke="#e18745" stroke-width="2" points="1242.07,-452.55 1248.65,-461.32 1243.12,-454.95 1244.75,-462.2 1244.26,-462.31 1243.77,-462.42 1242.14,-455.16 1239.87,-463.3 1242.07,-452.55"/>
</g>
<!-- 35833 -->
<g id="node21" class="node">
<title>35833</title>
<polygon fill="none" stroke="#379469" points="1482.11,-453.08 1482.11,-467.99 1441.76,-478.54 1384.7,-478.54 1344.35,-467.99 1344.35,-453.08 1384.7,-442.54 1441.76,-442.54 1482.11,-453.08"/>
<polygon fill="none" stroke="#379469" points="1486.11,-449.99 1486.11,-471.08 1442.28,-482.54 1384.19,-482.54 1340.35,-471.08 1340.35,-449.99 1384.19,-438.54 1442.28,-438.54 1486.11,-449.99"/>
<text text-anchor="middle" x="1413.23" y="-455.49" font-family="Times,serif" font-size="14.00">cavil:AFL&#45;1.2</text>
</g>
<!-- 45&#45;&gt;35833 -->
<g id="edge9" class="edge">
<title>45&#45;&gt;35833</title>
<path fill="none" stroke="#379469" stroke-width="2" d="M1248.34,-697.03C1350.83,-568.8 1367.3,-547.26 1396.5,-492.51"/>
<polygon fill="#379469" stroke="#379469" stroke-width="2" points="1400.57,-484.81 1399.87,-495.75 1399.82,-487.31 1396.34,-493.88 1395.9,-493.65 1395.45,-493.41 1398.93,-486.84 1391.92,-491.54 1400.57,-484.81"/>
</g>
<!-- 45&#45;&gt;38632 -->
<g id="edge10" class="edge">
<title>45&#45;&gt;38632</title>
<path fill="none" stroke="#d43d51" stroke-dasharray="5,2" d="M1241.92,-741.73C1346.32,-949.03 1356.57,-971.84 1368.8,-1068.91"/>
<polygon fill="#d43d51" stroke="#d43d51" points="1370,-1078.62 1364.31,-1069.25 1369.54,-1074.87 1368.77,-1068.69 1368.77,-1068.69 1368.77,-1068.69 1369.54,-1074.87 1373.24,-1068.14 1370,-1078.62"/>
</g>
<!-- 50154 -->
<g id="node27" class="node">
<title>50154</title>
<polygon fill="none" stroke="#b8bf62" points="1778.09,-983.49 1778.09,-998.4 1677.06,-1008.94 1534.18,-1008.94 1433.15,-998.4 1433.15,-983.49 1534.18,-972.94 1677.06,-972.94 1778.09,-983.49"/>
<polygon fill="none" stroke="#b8bf62" points="1782.09,-979.88 1782.09,-1002 1677.27,-1012.94 1533.97,-1012.94 1429.15,-1002 1429.15,-979.88 1533.97,-968.94 1677.27,-968.94 1782.09,-979.88"/>
<text text-anchor="middle" x="1605.62" y="-985.89" font-family="Times,serif" font-size="14.00">foss&#45;license:Academic Free License 1.2</text>
</g>
<!-- 45&#45;&gt;50154 -->
<g id="edge11" class="edge">
<title>45&#45;&gt;50154</title>
<path fill="none" stroke="#b8bf62" stroke-width="2" d="M1260.3,-737.75C1476.77,-872.61 1504.02,-890.67 1575.73,-961.23"/>
<polygon fill="#b8bf62" stroke="#b8bf62" stroke-width="2" points="1581.55,-966.98 1571.27,-963.15 1579.37,-965.53 1574.08,-960.31 1574.43,-959.95 1574.78,-959.6 1580.08,-964.82 1577.6,-956.75 1581.55,-966.98"/>
</g>
<!-- 50398 -->
<g id="node31" class="node">
<title>50398</title>
<polygon fill="none" stroke="#dac767" points="1015.51,-532.53 1015.51,-547.44 919.02,-557.98 782.57,-557.98 686.08,-547.44 686.08,-532.53 782.57,-521.98 919.02,-521.98 1015.51,-532.53"/>
<polygon fill="none" stroke="#dac767" points="1019.51,-528.94 1019.51,-551.03 919.24,-561.98 782.35,-561.98 682.08,-551.03 682.08,-528.94 782.35,-517.98 919.24,-517.98 1019.51,-528.94"/>
<text text-anchor="middle" x="850.79" y="-534.93" font-family="Times,serif" font-size="14.00">fosslight:Academic Free License v1.2</text>
</g>
<!-- 45&#45;&gt;50398 -->
<g id="edge12" class="edge">
<title>45&#45;&gt;50398</title>
<path fill="none" stroke="#dac767" stroke-width="2" d="M1200.4,-700.79C1054.23,-611.5 1003.98,-581.78 948.04,-563.67"/>
<polygon fill="#dac767" stroke="#dac767" stroke-width="2" points="939.83,-561.13 950.72,-559.79 942.43,-561.41 949.54,-563.61 949.39,-564.09 949.24,-564.56 942.14,-562.37 948.06,-568.39 939.83,-561.13"/>
</g>
<!-- 46 -->
<g id="node4" class="node">
<title>46</title>
<polygon fill="none" stroke="black" points="1122.18,-635.75 1122.18,-650.66 1047.44,-661.2 941.73,-661.2 866.98,-650.66 866.98,-635.75 941.73,-625.2 1047.44,-625.2 1122.18,-635.75"/>
<polygon fill="none" stroke="black" points="1126.18,-632.27 1126.18,-654.14 1047.72,-665.2 941.45,-665.2 862.98,-654.14 862.98,-632.27 941.45,-621.2 1047.72,-621.2 1126.18,-632.27"/>
<text text-anchor="middle" x="994.58" y="-638.15" font-family="Times,serif" font-size="14.00">Academic Free License v1.2</text>
</g>
<!-- 46&#45;&gt;44 -->
<g id="edge13" class="edge">
<title>46&#45;&gt;44</title>
<path fill="none" stroke="#78ab63" stroke-width="2" d="M981.76,-665.66C899.82,-809.41 892.5,-828.48 909.11,-931.39"/>
<polygon fill="#78ab63" stroke="#78ab63" stroke-width="2" points="910.51,-939.9 904.44,-930.76 909.6,-937.45 908.39,-930.11 908.88,-930.03 909.38,-929.95 910.58,-937.29 913.32,-929.3 910.51,-939.9"/>
</g>
<!-- 46&#45;&gt;8222 -->
<g id="edge14" class="edge">
<title>46&#45;&gt;8222</title>
<path fill="none" stroke="#00876c" stroke-width="2" d="M994.71,-620.79C995.34,-519.01 997.08,-497.98 1022.31,-457.09"/>
<polygon fill="#00876c" stroke="#00876c" stroke-width="2" points="1026.94,-449.79 1025.38,-460.64 1025.99,-452.22 1022.01,-458.5 1021.58,-458.23 1021.16,-457.96 1025.15,-451.68 1017.78,-455.82 1026.94,-449.79"/>
</g>
<!-- 46&#45;&gt;25474 -->
<g id="edge15" class="edge">
<title>46&#45;&gt;25474</title>
<path fill="none" stroke="#e18745" stroke-width="2" d="M1008.79,-621.12C1084.93,-502.88 1104.37,-477.01 1171.39,-450.66"/>
<polygon fill="#e18745" stroke="#e18745" stroke-width="2" points="1179.35,-447.63 1171.61,-455.39 1177.14,-449.01 1170.19,-451.65 1170.01,-451.19 1169.83,-450.72 1176.78,-448.07 1168.41,-446.98 1179.35,-447.63"/>
</g>
<!-- 46&#45;&gt;50398 -->
<g id="edge16" class="edge">
<title>46&#45;&gt;50398</title>
<path fill="none" stroke="#dac767" stroke-width="2" d="M962.97,-620.81C924.07,-593.24 905.41,-579.97 890.05,-568.85"/>
<polygon fill="#dac767" stroke="#dac767" stroke-width="2" points="883.23,-563.89 893.97,-566.13 885.6,-564.99 891.61,-569.37 891.32,-569.77 891.02,-570.18 885.01,-565.8 888.67,-573.41 883.23,-563.89"/>
</g>
<!-- 4945 -->
<g id="node5" class="node">
<title>4945</title>
<ellipse fill="none" stroke="#e06f45" cx="157.95" cy="-1175.02" rx="157.68" ry="28.99"/>
<text text-anchor="middle" x="157.95" y="-1178.22" font-family="Times,serif" font-size="14.00" fill="gray">GoogleLicense</text>
<text text-anchor="middle" x="157.95" y="-1161.72" font-family="Times,serif" font-size="14.00" fill="gray">d121ac48d59ba35a9743d0e52eebfe7e</text>
</g>
<!-- 4945&#45;&gt;4946 -->
<g id="edge17" class="edge">
<title>4945&#45;&gt;4946</title>
<path fill="none" stroke="#e06f45" d="M230.09,-1148.81C284.91,-1128.53 331.22,-1109.97 484.43,-1047.95"/>
<polygon fill="#e06f45" stroke="#e06f45" points="485.32,-1051.36 493.27,-1044.36 482.69,-1044.87 485.32,-1051.36"/>
</g>
<!-- 4947 -->
<g id="node7" class="node">
<title>4947</title>
<polygon fill="none" stroke="#e06f45" points="312.08,-1006.6 312.08,-1021.51 288.28,-1032.05 254.63,-1032.05 230.83,-1021.51 230.83,-1006.6 254.63,-996.05 288.28,-996.05 312.08,-1006.6"/>
<polygon fill="none" stroke="#e06f45" points="316.08,-1003.99 316.08,-1024.11 289.13,-1036.05 253.78,-1036.05 226.83,-1024.11 226.83,-1003.99 253.78,-992.05 289.13,-992.05 316.08,-1003.99"/>
<text text-anchor="middle" x="271.46" y="-1009" font-family="Times,serif" font-size="14.00">AFL12</text>
</g>
<!-- 4947&#45;&gt;4946 -->
<g id="edge18" class="edge">
<title>4947&#45;&gt;4946</title>
<path fill="none" stroke="#e06f45" stroke-width="2" d="M313.69,-1025.67C351.19,-1034.85 377.28,-1035.79 454.13,-1031.13"/>
<polygon fill="#e06f45" stroke="#e06f45" stroke-width="2" points="462.88,-1030.58 453.18,-1035.69 460.35,-1031.24 452.93,-1031.7 452.9,-1031.2 452.87,-1030.7 460.29,-1030.24 452.62,-1026.71 462.88,-1030.58"/>
</g>
<!-- 5294 -->
<g id="node8" class="node">
<title>5294</title>
<polygon fill="none" stroke="black" points="1381.5,-1470.18 1381.5,-1485.1 1363.55,-1495.64 1338.15,-1495.64 1320.2,-1485.1 1320.2,-1470.18 1338.15,-1459.64 1363.55,-1459.64 1381.5,-1470.18"/>
<text text-anchor="middle" x="1350.85" y="-1472.59" font-family="Times,serif" font-size="14.00">AFL</text>
</g>
<!-- 5294&#45;&gt;38632 -->
<g id="edge19" class="edge">
<title>5294&#45;&gt;38632</title>
<path fill="none" stroke="#d43d51" stroke-dasharray="5,2" d="M1356.79,-1459.33C1387.54,-1363.93 1388.23,-1347.31 1374.89,-1135.14"/>
<polygon fill="#d43d51" stroke="#d43d51" points="1374.28,-1125.44 1379.4,-1135.13 1374.52,-1129.21 1374.91,-1135.42 1374.91,-1135.42 1374.91,-1135.42 1374.52,-1129.21 1370.42,-1135.7 1374.28,-1125.44"/>
</g>
<!-- 8221 -->
<g id="node9" class="node">
<title>8221</title>
<ellipse fill="none" stroke="#00876c" cx="909.44" cy="-29.23" rx="160.34" ry="28.99"/>
<text text-anchor="middle" x="909.44" y="-32.43" font-family="Times,serif" font-size="14.00" fill="gray">BlueOakCouncil</text>
<text text-anchor="middle" x="909.44" y="-15.93" font-family="Times,serif" font-size="14.00" fill="gray">c2b6b12086db746f15dcb7e9016dad0d</text>
</g>
<!-- 8221&#45;&gt;8222 -->
<g id="edge20" class="edge">
<title>8221&#45;&gt;8222</title>
<path fill="none" stroke="#00876c" d="M919.29,-58.37C948.95,-146.09 957.19,-170.54 1031.92,-392.45"/>
<polygon fill="#00876c" stroke="#00876c" points="1028.54,-393.37 1035.05,-401.73 1035.17,-391.14 1028.54,-393.37"/>
</g>
<!-- 10872 -->
<g id="node12" class="node">
<title>10872</title>
<ellipse fill="none" stroke="#98b561" cx="1890.56" cy="-469.87" rx="158.75" ry="28.99"/>
<text text-anchor="middle" x="1890.56" y="-473.07" font-family="Times,serif" font-size="14.00" fill="gray">ScancodeData</text>
<text text-anchor="middle" x="1890.56" y="-456.57" font-family="Times,serif" font-size="14.00" fill="gray">a2bc4d08e9be5007c576afb765729dc4</text>
</g>
<!-- 10872&#45;&gt;10873 -->
<g id="edge21" class="edge">
<title>10872&#45;&gt;10873</title>
<path fill="none" stroke="#98b561" d="M1866.66,-498.8C1805.99,-571.33 1782.13,-588.18 1599.68,-696.94"/>
<polygon fill="#98b561" stroke="#98b561" points="1598.12,-693.79 1591.32,-701.92 1601.7,-699.81 1598.12,-693.79"/>
</g>
<!-- 10873&#45;&gt;38632 -->
<g id="edge22" class="edge">
<title>10873&#45;&gt;38632</title>
<path fill="none" stroke="#d43d51" stroke-dasharray="5,2" d="M1552.1,-746.59C1538.21,-937.45 1532.59,-955.59 1405.27,-1072.41"/>
<polygon fill="#d43d51" stroke="#d43d51" points="1398.01,-1079.05 1402.35,-1068.98 1400.8,-1076.5 1405.39,-1072.3 1405.39,-1072.3 1405.39,-1072.3 1400.8,-1076.5 1408.43,-1075.62 1398.01,-1079.05"/>
</g>
<!-- 10873&#45;&gt;50154 -->
<g id="edge23" class="edge">
<title>10873&#45;&gt;50154</title>
<path fill="none" stroke="#b8bf62" stroke-width="2" d="M1565.7,-746.73C1625.07,-858.02 1630.37,-874.84 1612.88,-957.79"/>
<polygon fill="#b8bf62" stroke="#b8bf62" stroke-width="2" points="1611.08,-966.15 1608.78,-955.43 1611.13,-963.54 1612.7,-956.27 1613.18,-956.37 1613.67,-956.48 1612.11,-963.75 1617.58,-957.32 1611.08,-966.15"/>
</g>
<!-- 10874 -->
<g id="node14" class="node">
<title>10874</title>
<polygon fill="none" stroke="black" points="1854.7,-701.34 1854.7,-716.26 1827.98,-726.8 1790.2,-726.8 1763.48,-716.26 1763.48,-701.34 1790.2,-690.8 1827.98,-690.8 1854.7,-701.34"/>
<polygon fill="none" stroke="black" points="1858.7,-698.62 1858.7,-718.98 1828.74,-730.8 1789.43,-730.8 1759.48,-718.98 1759.48,-698.62 1789.43,-686.8 1828.74,-686.8 1858.7,-698.62"/>
<text text-anchor="middle" x="1809.09" y="-703.75" font-family="Times,serif" font-size="14.00">AFL 1.2</text>
</g>
<!-- 10874&#45;&gt;10873 -->
<g id="edge24" class="edge">
<title>10874&#45;&gt;10873</title>
<path fill="none" stroke="#98b561" stroke-width="2" d="M1759.15,-711.88C1731.26,-713.59 1705.58,-715.14 1646.73,-718.7"/>
<polygon fill="#98b561" stroke="#98b561" stroke-width="2" points="1638.19,-719.21 1647.9,-714.12 1640.72,-718.56 1648.14,-718.11 1648.17,-718.61 1648.2,-719.11 1640.78,-719.56 1648.44,-723.1 1638.19,-719.21"/>
</g>
<!-- 10874&#45;&gt;50154 -->
<g id="edge25" class="edge">
<title>10874&#45;&gt;50154</title>
<path fill="none" stroke="#b8bf62" stroke-width="2" d="M1804.25,-731.05C1777.82,-851.48 1768.7,-866.95 1643.78,-962.05"/>
<polygon fill="#b8bf62" stroke="#b8bf62" stroke-width="2" points="1636.93,-967.25 1642.17,-957.62 1638.66,-965.31 1644.59,-960.81 1644.89,-961.2 1645.19,-961.6 1639.27,-966.1 1647.61,-964.79 1636.93,-967.25"/>
</g>
<!-- 10875 -->
<g id="node15" class="node">
<title>10875</title>
<polygon fill="none" stroke="black" points="1903.72,-929.27 1903.72,-944.18 1831.9,-954.72 1730.32,-954.72 1658.5,-944.18 1658.5,-929.27 1730.32,-918.72 1831.9,-918.72 1903.72,-929.27"/>
<polygon fill="none" stroke="black" points="1907.72,-925.81 1907.72,-947.63 1832.19,-958.72 1730.03,-958.72 1654.5,-947.63 1654.5,-925.81 1730.03,-914.72 1832.19,-914.72 1907.72,-925.81"/>
<text text-anchor="middle" x="1781.11" y="-931.67" font-family="Times,serif" font-size="14.00">Academic Free License 1.2</text>
</g>
<!-- 10875&#45;&gt;10873 -->
<g id="edge26" class="edge">
<title>10875&#45;&gt;10873</title>
<path fill="none" stroke="#98b561" stroke-width="2" d="M1768.92,-914.35C1731.63,-846.76 1717.02,-832.94 1596.34,-752.59"/>
<polygon fill="#98b561" stroke="#98b561" stroke-width="2" points="1589.1,-747.78 1599.92,-749.57 1591.52,-748.78 1597.71,-752.9 1597.43,-753.32 1597.15,-753.73 1590.96,-749.62 1594.94,-757.06 1589.1,-747.78"/>
</g>
<!-- 10875&#45;&gt;38632 -->
<g id="edge27" class="edge">
<title>10875&#45;&gt;38632</title>
<path fill="none" stroke="#d43d51" stroke-width="2" d="M1758.86,-958.94C1673.21,-1044.03 1645.25,-1063.27 1508.99,-1083.87"/>
<polygon fill="#d43d51" stroke="#d43d51" stroke-width="2" points="1500.53,-1085.12 1509.76,-1079.2 1502.99,-1084.25 1510.34,-1083.16 1510.42,-1083.65 1510.49,-1084.15 1503.14,-1085.24 1511.08,-1088.11 1500.53,-1085.12"/>
</g>
<!-- 10875&#45;&gt;50154 -->
<g id="edge28" class="edge">
<title>10875&#45;&gt;50154</title>
<path fill="none" stroke="#b8bf62" stroke-width="2" d="M1750.44,-959.04C1744.18,-963.1 1738.27,-966.41 1731.95,-969.2"/>
<polygon fill="#b8bf62" stroke="#b8bf62" stroke-width="2" points="1723.83,-972.31 1731.56,-964.53 1726.05,-970.93 1732.99,-968.26 1733.17,-968.73 1733.35,-969.19 1726.41,-971.86 1734.78,-972.93 1723.83,-972.31"/>
</g>
<!-- 25473 -->
<g id="node16" class="node">
<title>25473</title>
<ellipse fill="none" stroke="#e18745" cx="1257.18" cy="-357.6" rx="157.15" ry="28.99"/>
<text text-anchor="middle" x="1257.18" y="-360.8" font-family="Times,serif" font-size="14.00" fill="gray">Fossology</text>
<text text-anchor="middle" x="1257.18" y="-344.3" font-family="Times,serif" font-size="14.00" fill="gray">2e2e6355ec2dd359feb3963f878ba7ed</text>
</g>
<!-- 25473&#45;&gt;25474 -->
<g id="edge29" class="edge">
<title>25473&#45;&gt;25474</title>
<path fill="none" stroke="#e18745" d="M1248.31,-386.58C1247.62,-388.94 1246.85,-391.57 1245.98,-394.57"/>
<polygon fill="#e18745" stroke="#e18745" points="1242.63,-393.56 1243.21,-404.14 1249.35,-395.5 1242.63,-393.56"/>
</g>
<!-- 27978 -->
<g id="node18" class="node">
<title>27978</title>
<ellipse fill="none" stroke="#e09d4b" cx="885.06" cy="-1350.51" rx="151.32" ry="28.99"/>
<text text-anchor="middle" x="885.06" y="-1353.71" font-family="Times,serif" font-size="14.00" fill="gray">OrtLicenseCategorization</text>
<text text-anchor="middle" x="885.06" y="-1337.21" font-family="Times,serif" font-size="14.00" fill="gray">2e1ef4649f7f0a3af38fabe95f008647</text>
</g>
<!-- 27978&#45;&gt;44 -->
<g id="edge30" class="edge">
<title>27978&#45;&gt;44</title>
<path fill="none" stroke="#e09d4b" d="M879.38,-1321.33C861.81,-1228.72 864.6,-1205.97 907.38,-1006.19"/>
<polygon fill="#e09d4b" stroke="#e09d4b" points="910.79,-1006.98 909.46,-996.47 903.94,-1005.51 910.79,-1006.98"/>
</g>
<!-- 34845 -->
<g id="node19" class="node">
<title>34845</title>
<ellipse fill="none" stroke="#dac767" cx="590.39" cy="-1181.11" rx="158.75" ry="28.99"/>
<text text-anchor="middle" x="590.39" y="-1184.31" font-family="Times,serif" font-size="14.00" fill="gray">OrtLicenseCategorization</text>
<text text-anchor="middle" x="590.39" y="-1167.81" font-family="Times,serif" font-size="14.00" fill="gray">848fe8b4e9ab77c35c98302d9b5571ce</text>
</g>
<!-- 34845&#45;&gt;44 -->
<g id="edge31" class="edge">
<title>34845&#45;&gt;44</title>
<path fill="none" stroke="#dac767" d="M640.26,-1153.2C695.67,-1121.59 729.19,-1098.8 870.97,-999.8"/>
<polygon fill="#dac767" stroke="#dac767" points="872.58,-1002.94 878.78,-994.35 868.58,-997.2 872.58,-1002.94"/>
</g>
<!-- 35832 -->
<g id="node20" class="node">
<title>35832</title>
<ellipse fill="none" stroke="#379469" cx="1590.39" cy="-92.37" rx="161.4" ry="28.99"/>
<text text-anchor="middle" x="1590.39" y="-95.57" font-family="Times,serif" font-size="14.00" fill="gray">CavilLicenseChange</text>
<text text-anchor="middle" x="1590.39" y="-79.07" font-family="Times,serif" font-size="14.00" fill="gray">2cb6bbba3cd1924d574d77da6d191e2b</text>
</g>
<!-- 35832&#45;&gt;35833 -->
<g id="edge32" class="edge">
<title>35832&#45;&gt;35833</title>
<path fill="none" stroke="#379469" d="M1580.5,-121.72C1551.01,-208.42 1539.4,-231.14 1430.9,-428.43"/>
<polygon fill="#379469" stroke="#379469" points="1427.97,-426.49 1426.22,-436.94 1434.1,-429.86 1427.97,-426.49"/>
</g>
<!-- 38631 -->
<g id="node22" class="node">
<title>38631</title>
<ellipse fill="none" stroke="#d43d51" cx="1377.09" cy="-1166.15" rx="157.15" ry="28.99"/>
<text text-anchor="middle" x="1377.09" y="-1169.35" font-family="Times,serif" font-size="14.00" fill="gray">MetaeffektLicense</text>
<text text-anchor="middle" x="1377.09" y="-1152.85" font-family="Times,serif" font-size="14.00" fill="gray">1ae3cd3e2641ca6c54244bc0f2ca9323</text>
</g>
<!-- 38631&#45;&gt;38632 -->
<g id="edge33" class="edge">
<title>38631&#45;&gt;38632</title>
<path fill="none" stroke="#d43d51" d="M1379.2,-1136.68C1379.15,-1136.37 1379.11,-1136.04 1379.06,-1135.71"/>
<polygon fill="#d43d51" stroke="#d43d51" points="1382.53,-1135.19 1377.43,-1125.91 1375.62,-1136.35 1382.53,-1135.19"/>
</g>
<!-- 38633 -->
<g id="node24" class="node">
<title>38633</title>
<polygon fill="none" stroke="black" points="1820.87,-1324.36 1820.87,-1339.28 1773.06,-1349.82 1705.44,-1349.82 1657.63,-1339.28 1657.63,-1324.36 1705.44,-1313.82 1773.06,-1313.82 1820.87,-1324.36"/>
<polygon fill="none" stroke="black" points="1824.87,-1321.15 1824.87,-1342.49 1773.49,-1353.82 1705.01,-1353.82 1653.63,-1342.49 1653.63,-1321.15 1705.01,-1309.82 1773.49,-1309.82 1824.87,-1321.15"/>
<text text-anchor="middle" x="1739.25" y="-1326.77" font-family="Times,serif" font-size="14.00">AFL, Version 1.2</text>
</g>
<!-- 38633&#45;&gt;38632 -->
<g id="edge34" class="edge">
<title>38633&#45;&gt;38632</title>
<path fill="none" stroke="#d43d51" stroke-dasharray="5,2" d="M1690.58,-1312.56C1612.96,-1280.79 1581.68,-1259.02 1411.4,-1131.05"/>
<polygon fill="#d43d51" stroke="#d43d51" points="1403.63,-1125.21 1414.33,-1127.63 1406.66,-1127.49 1411.63,-1131.22 1411.63,-1131.22 1411.63,-1131.22 1406.66,-1127.49 1408.92,-1134.82 1403.63,-1125.21"/>
</g>
<!-- 38633&#45;&gt;50154 -->
<g id="edge35" class="edge">
<title>38633&#45;&gt;50154</title>
<path fill="none" stroke="#b8bf62" stroke-width="2" d="M1737.53,-1309.45C1729.77,-1211.74 1722.75,-1194.87 1623.98,-1022.89"/>
<polygon fill="#b8bf62" stroke="#b8bf62" stroke-width="2" points="1619.65,-1015.35 1628.54,-1021.78 1621.36,-1017.32 1625.07,-1023.77 1624.64,-1024.02 1624.2,-1024.27 1620.5,-1017.82 1620.73,-1026.26 1619.65,-1015.35"/>
</g>
<!-- 38634 -->
<g id="node25" class="node">
<title>38634</title>
<polygon fill="none" stroke="black" points="1633.12,-1353.48 1633.12,-1368.39 1604.45,-1378.94 1563.91,-1378.94 1535.25,-1368.39 1535.25,-1353.48 1563.91,-1342.94 1604.45,-1342.94 1633.12,-1353.48"/>
<polygon fill="none" stroke="black" points="1637.12,-1350.69 1637.12,-1371.19 1605.16,-1382.94 1563.2,-1382.94 1531.25,-1371.19 1531.25,-1350.69 1563.2,-1338.94 1605.16,-1338.94 1637.12,-1350.69"/>
<text text-anchor="middle" x="1584.18" y="-1355.89" font-family="Times,serif" font-size="14.00">AFL, 1.2</text>
</g>
<!-- 38634&#45;&gt;38632 -->
<g id="edge36" class="edge">
<title>38634&#45;&gt;38632</title>
<path fill="none" stroke="#d43d51" stroke-dasharray="5,2" d="M1563.65,-1338.59C1517.49,-1288.13 1502.08,-1268.84 1396.7,-1132.87"/>
<polygon fill="#d43d51" stroke="#d43d51" points="1390.71,-1125.14 1400.4,-1130.29 1393.03,-1128.13 1396.84,-1133.05 1396.84,-1133.05 1396.84,-1133.05 1393.03,-1128.13 1393.28,-1135.8 1390.71,-1125.14"/>
</g>
<!-- 38634&#45;&gt;50154 -->
<g id="edge37" class="edge">
<title>38634&#45;&gt;50154</title>
<path fill="none" stroke="#b8bf62" stroke-width="2" d="M1594.79,-1338.76C1645.31,-1232.47 1645.86,-1215.18 1611.63,-1024.36"/>
<polygon fill="#b8bf62" stroke="#b8bf62" stroke-width="2" points="1610.09,-1015.75 1616.28,-1024.79 1611.03,-1018.18 1612.35,-1025.5 1611.86,-1025.59 1611.36,-1025.68 1610.05,-1018.36 1607.43,-1026.39 1610.09,-1015.75"/>
</g>
<!-- 50153 -->
<g id="node26" class="node">
<title>50153</title>
<ellipse fill="none" stroke="#b8bf62" cx="2141.94" cy="-1035.79" rx="160.34" ry="28.99"/>
<text text-anchor="middle" x="2141.94" y="-1038.99" font-family="Times,serif" font-size="14.00" fill="gray">FossLicense</text>
<text text-anchor="middle" x="2141.94" y="-1022.49" font-family="Times,serif" font-size="14.00" fill="gray">e4c04854b7b1f805cc2b9543d0b9b42d</text>
</g>
<!-- 50153&#45;&gt;50154 -->
<g id="edge38" class="edge">
<title>50153&#45;&gt;50154</title>
<path fill="none" stroke="#b8bf62" d="M1986.8,-1043.47C1930.51,-1041.43 1863.51,-1032.12 1729.57,-1010.84"/>
<polygon fill="#b8bf62" stroke="#b8bf62" points="1730.46,-1007.44 1720.03,-1009.32 1729.36,-1014.35 1730.46,-1007.44"/>
</g>
<!-- 50155 -->
<g id="node28" class="node">
<title>50155</title>
<polygon fill="none" stroke="#b8bf62" points="1780.75,-1037.25 1780.75,-1052.16 1731.97,-1062.7 1662.97,-1062.7 1614.19,-1052.16 1614.19,-1037.25 1662.97,-1026.7 1731.97,-1026.7 1780.75,-1037.25"/>
<polygon fill="none" stroke="#b8bf62" points="1784.75,-1034.02 1784.75,-1055.39 1732.39,-1066.7 1662.55,-1066.7 1610.19,-1055.39 1610.19,-1034.02 1662.55,-1022.7 1732.39,-1022.7 1784.75,-1034.02"/>
<text text-anchor="middle" x="1697.47" y="-1039.65" font-family="Times,serif" font-size="14.00">scancode://afl&#45;1.2</text>
</g>
<!-- 50155&#45;&gt;50154 -->
<g id="edge39" class="edge">
<title>50155&#45;&gt;50154</title>
<path fill="none" stroke="#b8bf62" stroke-width="2" d="M1661.05,-1022.75C1658.95,-1021.53 1656.69,-1020.22 1654.22,-1018.79"/>
<polygon fill="#b8bf62" stroke="#b8bf62" stroke-width="2" points="1647.02,-1014.65 1657.93,-1015.74 1649.49,-1015.5 1655.94,-1019.2 1655.69,-1019.64 1655.44,-1020.07 1648.99,-1016.36 1653.44,-1023.54 1647.02,-1014.65"/>
</g>
<!-- 50156 -->
<g id="node29" class="node">
<title>50156</title>
<polygon fill="none" stroke="#b8bf62" points="2067.42,-1207.59 2067.42,-1222.5 2021.88,-1233.04 1957.48,-1233.04 1911.94,-1222.5 1911.94,-1207.59 1957.48,-1197.04 2021.88,-1197.04 2067.42,-1207.59"/>
<polygon fill="none" stroke="#b8bf62" points="2071.42,-1204.41 2071.42,-1225.68 2022.34,-1237.04 1957.02,-1237.04 1907.94,-1225.68 1907.94,-1204.41 1957.02,-1193.04 2022.34,-1193.04 2071.42,-1204.41"/>
<text text-anchor="middle" x="1989.68" y="-1209.99" font-family="Times,serif" font-size="14.00">scancode:afl&#45;1.2</text>
</g>
<!-- 50156&#45;&gt;50154 -->
<g id="edge40" class="edge">
<title>50156&#45;&gt;50154</title>
<path fill="none" stroke="#b8bf62" stroke-width="2" d="M1953.93,-1193.35C1877.93,-1147.31 1848.56,-1130.29 1654.48,-1018.97"/>
<polygon fill="#b8bf62" stroke="#b8bf62" stroke-width="2" points="1646.93,-1014.63 1657.84,-1015.71 1649.4,-1015.48 1655.85,-1019.18 1655.6,-1019.61 1655.35,-1020.04 1648.9,-1016.34 1653.36,-1023.51 1646.93,-1014.63"/>
</g>
<!-- 50397 -->
<g id="node30" class="node">
<title>50397</title>
<ellipse fill="none" stroke="#dac767" cx="422.12" cy="-263.55" rx="159.81" ry="28.99"/>
<text text-anchor="middle" x="422.12" y="-266.75" font-family="Times,serif" font-size="14.00" fill="gray">FOSSLight</text>
<text text-anchor="middle" x="422.12" y="-250.25" font-family="Times,serif" font-size="14.00" fill="gray">dc2adbc16ab55ac328380710731a13cd</text>
</g>
<!-- 50397&#45;&gt;50398 -->
<g id="edge41" class="edge">
<title>50397&#45;&gt;50398</title>
<path fill="none" stroke="#dac767" d="M467.03,-291.7C551.53,-344.75 586.44,-367.42 806.77,-511.24"/>
<polygon fill="#dac767" stroke="#dac767" points="804.82,-514.15 815.11,-516.69 808.65,-508.29 804.82,-514.15"/>
</g>
</g>
</svg>
