<?xml version="1.0" encoding="UTF-8" standalone="no"?>
<!DOCTYPE svg PUBLIC "-//W3C//DTD SVG 1.1//EN"
 "http://www.w3.org/Graphics/SVG/1.1/DTD/svg11.dtd">
<!-- Generated by graphviz version 10.0.1 (0)
 -->
<!-- Pages: 1 -->
<svg width="1873pt" height="1248pt"
 viewBox="0.00 0.00 1873.00 1248.00" xmlns="http://www.w3.org/2000/svg" xmlns:xlink="http://www.w3.org/1999/xlink">
<g id="graph0" class="graph" transform="scale(1 1) rotate(0) translate(4 1244)">
<polygon fill="white" stroke="none" points="-4,4 -4,-1244 1869,-1244 1869,4 -4,4"/>
<!-- 74 -->
<g id="node1" class="node">
<title>74</title>
<ellipse fill="none" stroke="#b8bf62" cx="1423.67" cy="-395.56" rx="156.09" ry="28.99"/>
<text text-anchor="middle" x="1423.67" y="-398.76" font-family="Times,serif" font-size="14.00" fill="gray">SPDXLicense</text>
<text text-anchor="middle" x="1423.67" y="-382.26" font-family="Times,serif" font-size="14.00" fill="gray">22407dad520ee83b4ef5cf1e4aae785d</text>
</g>
<!-- 75 -->
<g id="node2" class="node">
<title>75</title>
<polygon fill="none" stroke="black" points="1215.86,-600.08 1215.86,-614.99 1152.47,-625.54 1062.83,-625.54 999.44,-614.99 999.44,-600.08 1062.83,-589.54 1152.47,-589.54 1215.86,-600.08"/>
<polygon fill="none" stroke="black" points="1219.86,-596.69 1219.86,-618.38 1152.8,-629.54 1062.5,-629.54 995.44,-618.38 995.44,-596.69 1062.5,-585.54 1152.8,-585.54 1219.86,-596.69"/>
<polygon fill="none" stroke="black" points="1223.86,-593.3 1223.86,-621.77 1153.13,-633.54 1062.17,-633.54 991.44,-621.77 991.44,-593.3 1062.17,-581.54 1153.13,-581.54 1223.86,-593.3"/>
<text text-anchor="middle" x="1107.65" y="-602.49" font-family="Times,serif" font-size="14.00">spdx:AGPL&#45;1.0&#45;or&#45;later</text>
</g>
<!-- 74&#45;&gt;75 -->
<g id="edge1" class="edge">
<title>74&#45;&gt;75</title>
<path fill="none" stroke="#b8bf62" d="M1392.71,-424.24C1339.31,-472.88 1312.26,-490.21 1163.67,-575.45"/>
<polygon fill="#b8bf62" stroke="#b8bf62" points="1161.96,-572.4 1155.02,-580.41 1165.44,-578.47 1161.96,-572.4"/>
</g>
<!-- 38987 -->
<g id="node15" class="node">
<title>38987</title>
<polygon fill="none" stroke="#00876c" points="1522.27,-902.01 1522.27,-916.92 1460.18,-927.47 1372.37,-927.47 1310.28,-916.92 1310.28,-902.01 1372.37,-891.47 1460.18,-891.47 1522.27,-902.01"/>
<polygon fill="none" stroke="#00876c" points="1526.27,-898.63 1526.27,-920.3 1460.52,-931.47 1372.04,-931.47 1306.28,-920.3 1306.28,-898.63 1372.04,-887.47 1460.52,-887.47 1526.27,-898.63"/>
<text text-anchor="middle" x="1416.28" y="-904.42" font-family="Times,serif" font-size="14.00">metaeffekt:AGPL&#45;1.0+</text>
</g>
<!-- 75&#45;&gt;38987 -->
<g id="edge2" class="edge">
<title>75&#45;&gt;38987</title>
<path fill="none" stroke="#00876c" stroke-width="2" d="M1141.21,-634C1320.91,-775.81 1342.45,-795.06 1396.04,-877.82"/>
<polygon fill="#00876c" stroke="#00876c" stroke-width="2" points="1400.71,-885.08 1391.52,-879.1 1398.91,-883.19 1394.88,-876.94 1395.3,-876.67 1395.72,-876.4 1399.75,-882.65 1399.08,-874.23 1400.71,-885.08"/>
</g>
<!-- 76 -->
<g id="node3" class="node">
<title>76</title>
<polygon fill="none" stroke="black" points="823.68,-484.23 823.68,-499.14 772.94,-509.69 701.2,-509.69 650.47,-499.14 650.47,-484.23 701.2,-473.69 772.94,-473.69 823.68,-484.23"/>
<polygon fill="none" stroke="black" points="827.68,-480.98 827.68,-502.4 773.35,-513.69 700.79,-513.69 646.47,-502.4 646.47,-480.98 700.79,-469.69 773.35,-469.69 827.68,-480.98"/>
<text text-anchor="middle" x="737.07" y="-486.64" font-family="Times,serif" font-size="14.00">AGPL&#45;1.0&#45;or&#45;later</text>
</g>
<!-- 76&#45;&gt;75 -->
<g id="edge3" class="edge">
<title>76&#45;&gt;75</title>
<path fill="none" stroke="black" stroke-width="2" d="M827.88,-483.3C909.78,-479.31 944.81,-496.61 1059.99,-574.92"/>
<polygon fill="black" stroke="black" stroke-width="2" points="1067.14,-579.79 1056.35,-577.88 1064.74,-578.76 1058.6,-574.57 1058.88,-574.16 1059.16,-573.75 1065.31,-577.93 1061.41,-570.44 1067.14,-579.79"/>
</g>
<!-- 9332 -->
<g id="node7" class="node">
<title>9332</title>
<polygon fill="none" stroke="#00876c" points="1016.51,-725.66 1016.51,-740.57 943.39,-751.12 839.97,-751.12 766.85,-740.57 766.85,-725.66 839.97,-715.12 943.39,-715.12 1016.51,-725.66"/>
<polygon fill="none" stroke="#00876c" points="1020.51,-722.2 1020.51,-744.04 943.67,-755.12 839.69,-755.12 762.85,-744.04 762.85,-722.2 839.69,-711.12 943.67,-711.12 1020.51,-722.2"/>
<text text-anchor="middle" x="891.68" y="-728.07" font-family="Times,serif" font-size="14.00">BlueOak:AGPL&#45;1.0&#45;or&#45;later</text>
</g>
<!-- 76&#45;&gt;9332 -->
<g id="edge4" class="edge">
<title>76&#45;&gt;9332</title>
<path fill="none" stroke="#00876c" stroke-width="2" d="M740.96,-514.12C756.2,-600.37 764.67,-614.97 859.38,-703.19"/>
<polygon fill="#00876c" stroke="#00876c" stroke-width="2" points="865.79,-709.14 855.4,-705.63 863.57,-707.76 858.13,-702.7 858.47,-702.34 858.81,-701.97 864.25,-707.03 861.53,-699.04 865.79,-709.14"/>
</g>
<!-- 36434 -->
<g id="node12" class="node">
<title>36434</title>
<polygon fill="none" stroke="#379469" points="600.36,-261.46 600.36,-276.37 536.65,-286.91 446.55,-286.91 382.83,-276.37 382.83,-261.46 446.55,-250.91 536.65,-250.91 600.36,-261.46"/>
<polygon fill="none" stroke="#379469" points="604.36,-258.06 604.36,-279.76 536.98,-290.91 446.22,-290.91 378.83,-279.76 378.83,-258.06 446.22,-246.91 536.98,-246.91 604.36,-258.06"/>
<text text-anchor="middle" x="491.6" y="-263.86" font-family="Times,serif" font-size="14.00">cavil:AGPL&#45;1.0&#45;or&#45;later</text>
</g>
<!-- 76&#45;&gt;36434 -->
<g id="edge5" class="edge">
<title>76&#45;&gt;36434</title>
<path fill="none" stroke="#379469" stroke-width="2" d="M711.17,-469.38C587.1,-362.52 563.33,-341.67 521.35,-299.27"/>
<polygon fill="#379469" stroke="#379469" stroke-width="2" points="515.28,-293.11 525.5,-297.07 517.43,-294.58 522.65,-299.88 522.3,-300.23 521.94,-300.58 516.72,-295.28 519.09,-303.39 515.28,-293.11"/>
</g>
<!-- 54449 -->
<g id="node21" class="node">
<title>54449</title>
<polygon fill="none" stroke="#98b561" points="532,-576.82 532,-591.74 463.42,-602.28 366.43,-602.28 297.85,-591.74 297.85,-576.82 366.43,-566.28 463.42,-566.28 532,-576.82"/>
<polygon fill="none" stroke="#98b561" points="536,-573.39 536,-595.17 463.72,-606.28 366.13,-606.28 293.85,-595.17 293.85,-573.39 366.13,-562.28 463.72,-562.28 536,-573.39"/>
<text text-anchor="middle" x="414.92" y="-579.23" font-family="Times,serif" font-size="14.00">eclipse:AGPL&#45;1.0&#45;or&#45;later</text>
</g>
<!-- 76&#45;&gt;54449 -->
<g id="edge6" class="edge">
<title>76&#45;&gt;54449</title>
<path fill="none" stroke="#98b561" stroke-width="2" d="M650.65,-503.78C539.08,-519.88 507.71,-528.1 459.85,-556.2"/>
<polygon fill="#98b561" stroke="#98b561" stroke-width="2" points="452.45,-560.64 458.71,-551.64 454.39,-558.89 460.77,-555.07 461.03,-555.5 461.28,-555.92 454.91,-559.75 463.34,-559.35 452.45,-560.64"/>
</g>
<!-- 77 -->
<g id="node4" class="node">
<title>77</title>
<polygon fill="none" stroke="black" points="907.74,-778.08 907.74,-792.99 798.27,-803.53 643.45,-803.53 533.99,-792.99 533.99,-778.08 643.45,-767.53 798.27,-767.53 907.74,-778.08"/>
<polygon fill="none" stroke="black" points="911.74,-774.44 911.74,-796.62 798.46,-807.53 643.26,-807.53 529.99,-796.62 529.99,-774.44 643.26,-763.53 798.46,-763.53 911.74,-774.44"/>
<text text-anchor="middle" x="720.86" y="-780.48" font-family="Times,serif" font-size="14.00">Affero General Public License v1.0 or later</text>
</g>
<!-- 77&#45;&gt;75 -->
<g id="edge7" class="edge">
<title>77&#45;&gt;75</title>
<path fill="none" stroke="#b8bf62" stroke-width="2" d="M869.91,-769.93C921.5,-754.25 967.42,-720.21 1066.38,-640.77"/>
<polygon fill="#b8bf62" stroke="#b8bf62" stroke-width="2" points="1072.95,-635.49 1067.97,-645.26 1071.26,-637.48 1065.47,-642.14 1065.15,-641.75 1064.84,-641.36 1070.64,-636.7 1062.34,-638.24 1072.95,-635.49"/>
</g>
<!-- 77&#45;&gt;9332 -->
<g id="edge8" class="edge">
<title>77&#45;&gt;9332</title>
<path fill="none" stroke="#00876c" stroke-width="2" d="M823.35,-765.43C827.01,-763.8 830.88,-762.03 835.01,-760.12"/>
<polygon fill="#00876c" stroke="#00876c" stroke-width="2" points="842.89,-756.44 835.73,-764.75 840.78,-757.98 834.04,-761.13 833.83,-760.67 833.62,-760.22 840.35,-757.08 831.92,-756.6 842.89,-756.44"/>
</g>
<!-- 77&#45;&gt;54449 -->
<g id="edge9" class="edge">
<title>77&#45;&gt;54449</title>
<path fill="none" stroke="#98b561" stroke-width="2" d="M663.51,-763.1C514,-704.21 491.82,-690.03 437.44,-615.63"/>
<polygon fill="#98b561" stroke="#98b561" stroke-width="2" points="432.43,-608.73 441.95,-614.18 434.34,-610.51 438.71,-616.53 438.3,-616.82 437.9,-617.12 433.53,-611.1 434.66,-619.47 432.43,-608.73"/>
</g>
<!-- 9328 -->
<g id="node5" class="node">
<title>9328</title>
<polygon fill="none" stroke="black" points="1365.68,-710.83 1365.68,-725.74 1286.72,-736.29 1175.05,-736.29 1096.08,-725.74 1096.08,-710.83 1175.05,-700.29 1286.72,-700.29 1365.68,-710.83"/>
<text text-anchor="middle" x="1230.88" y="-713.24" font-family="Times,serif" font-size="14.00">Affero General Public License</text>
</g>
<!-- 9328&#45;&gt;9332 -->
<g id="edge10" class="edge">
<title>9328&#45;&gt;9332</title>
<path fill="none" stroke="#00876c" stroke-dasharray="5,2" d="M1187.21,-736.74C1127.75,-760.66 1097.95,-763.79 1002.37,-750.31"/>
<polygon fill="#00876c" stroke="#00876c" points="992.54,-748.9 1003.08,-745.87 996.28,-749.44 1002.44,-750.32 1002.44,-750.32 1002.44,-750.32 996.28,-749.44 1001.8,-754.78 992.54,-748.9"/>
</g>
<!-- 9331 -->
<g id="node6" class="node">
<title>9331</title>
<ellipse fill="none" stroke="#00876c" cx="543.83" cy="-694.3" rx="159.28" ry="28.99"/>
<text text-anchor="middle" x="543.83" y="-697.5" font-family="Times,serif" font-size="14.00" fill="gray">BlueOakCouncil</text>
<text text-anchor="middle" x="543.83" y="-681" font-family="Times,serif" font-size="14.00" fill="gray">67ab43264d9bfd3ea31233cbe83446a5</text>
</g>
<!-- 9331&#45;&gt;9332 -->
<g id="edge11" class="edge">
<title>9331&#45;&gt;9332</title>
<path fill="none" stroke="#00876c" d="M609.66,-721.11C648.37,-734.49 680.79,-738.25 751.29,-737.36"/>
<polygon fill="#00876c" stroke="#00876c" points="751,-740.86 760.94,-737.21 750.89,-733.86 751,-740.86"/>
</g>
<!-- 11559 -->
<g id="node8" class="node">
<title>11559</title>
<polygon fill="none" stroke="black" points="1834.12,-991.96 1834.12,-1006.88 1773.01,-1017.42 1686.58,-1017.42 1625.46,-1006.88 1625.46,-991.96 1686.58,-981.42 1773.01,-981.42 1834.12,-991.96"/>
<text text-anchor="middle" x="1729.79" y="-994.37" font-family="Times,serif" font-size="14.00">scancode:agpl&#45;1.0&#45;plus</text>
</g>
<!-- 11559&#45;&gt;38987 -->
<g id="edge12" class="edge">
<title>11559&#45;&gt;38987</title>
<path fill="none" stroke="#00876c" stroke-dasharray="5,2" d="M1654.08,-986.64C1616.38,-978.48 1577.84,-965.87 1484.43,-933.31"/>
<polygon fill="#00876c" stroke="#00876c" points="1475.15,-930.07 1486.07,-929.12 1478.72,-931.32 1484.59,-933.36 1484.59,-933.36 1484.59,-933.36 1478.72,-931.32 1483.11,-937.61 1475.15,-930.07"/>
</g>
<!-- 28576 -->
<g id="node9" class="node">
<title>28576</title>
<ellipse fill="none" stroke="#dc574a" cx="1320.04" cy="-276.74" rx="160.34" ry="28.99"/>
<text text-anchor="middle" x="1320.04" y="-279.94" font-family="Times,serif" font-size="14.00" fill="gray">OrtLicenseCategorization</text>
<text text-anchor="middle" x="1320.04" y="-263.44" font-family="Times,serif" font-size="14.00" fill="gray">9ce578d4a8f15b80906931585b54b9c2</text>
</g>
<!-- 28576&#45;&gt;75 -->
<g id="edge13" class="edge">
<title>28576&#45;&gt;75</title>
<path fill="none" stroke="#dc574a" d="M1310.54,-306.03C1281.08,-395.43 1267.3,-415.49 1136.67,-572.66"/>
<polygon fill="#dc574a" stroke="#dc574a" points="1134.21,-570.14 1130.51,-580.07 1139.6,-574.61 1134.21,-570.14"/>
</g>
<!-- 35442 -->
<g id="node10" class="node">
<title>35442</title>
<ellipse fill="none" stroke="#e18745" cx="988.21" cy="-242.87" rx="154.5" ry="28.99"/>
<text text-anchor="middle" x="988.21" y="-246.07" font-family="Times,serif" font-size="14.00" fill="gray">OrtLicenseCategorization</text>
<text text-anchor="middle" x="988.21" y="-229.57" font-family="Times,serif" font-size="14.00" fill="gray">ec7dd30facef7ccf04e8e5d548b090dd</text>
</g>
<!-- 35442&#45;&gt;75 -->
<g id="edge14" class="edge">
<title>35442&#45;&gt;75</title>
<path fill="none" stroke="#e18745" d="M1012.79,-271.95C1082.85,-355.98 1088.48,-379.08 1104.51,-569.78"/>
<polygon fill="#e18745" stroke="#e18745" points="1101,-569.89 1105.33,-579.57 1107.98,-569.31 1101,-569.89"/>
</g>
<!-- 36433 -->
<g id="node11" class="node">
<title>36433</title>
<ellipse fill="none" stroke="#379469" cx="194.67" cy="-28.97" rx="159.81" ry="28.99"/>
<text text-anchor="middle" x="194.67" y="-32.17" font-family="Times,serif" font-size="14.00" fill="gray">CavilLicenseChange</text>
<text text-anchor="middle" x="194.67" y="-15.67" font-family="Times,serif" font-size="14.00" fill="gray">5c4052e364e9017a0c43034982c03ec8</text>
</g>
<!-- 36433&#45;&gt;36434 -->
<g id="edge15" class="edge">
<title>36433&#45;&gt;36434</title>
<path fill="none" stroke="#379469" d="M229.73,-57.5C283.92,-101.59 310.73,-123.21 455.14,-239.54"/>
<polygon fill="#379469" stroke="#379469" points="452.75,-242.11 462.73,-245.66 457.14,-236.66 452.75,-242.11"/>
</g>
<!-- 38985 -->
<g id="node13" class="node">
<title>38985</title>
<polygon fill="none" stroke="#00876c" points="1521.17,-1143.75 1521.17,-1158.66 1499,-1169.21 1467.64,-1169.21 1445.46,-1158.66 1445.46,-1143.75 1467.64,-1133.21 1499,-1133.21 1521.17,-1143.75"/>
<text text-anchor="middle" x="1483.32" y="-1146.16" font-family="Times,serif" font-size="14.00">AGPL</text>
</g>
<!-- 38985&#45;&gt;38987 -->
<g id="edge16" class="edge">
<title>38985&#45;&gt;38987</title>
<path fill="none" stroke="#00876c" stroke-dasharray="5,2" d="M1484.46,-1133.07C1488.37,-1066.68 1484.58,-1052.63 1431.73,-941.78"/>
<polygon fill="#00876c" stroke="#00876c" points="1427.51,-932.94 1435.88,-940.03 1429.14,-936.35 1431.82,-941.96 1431.82,-941.96 1431.82,-941.96 1429.14,-936.35 1427.76,-943.9 1427.51,-932.94"/>
</g>
<!-- 38986 -->
<g id="node14" class="node">
<title>38986</title>
<ellipse fill="none" stroke="#00876c" cx="1430.43" cy="-969.81" rx="161.4" ry="28.99"/>
<text text-anchor="middle" x="1430.43" y="-973.01" font-family="Times,serif" font-size="14.00" fill="gray">MetaeffektLicense</text>
<text text-anchor="middle" x="1430.43" y="-956.51" font-family="Times,serif" font-size="14.00" fill="gray">369c873527c892b145c37a55bb8a7885</text>
</g>
<!-- 38986&#45;&gt;38987 -->
<g id="edge17" class="edge">
<title>38986&#45;&gt;38987</title>
<path fill="none" stroke="#00876c" d="M1429.99,-940.63C1429.94,-940.47 1429.89,-940.31 1429.83,-940.14"/>
<polygon fill="#00876c" stroke="#00876c" points="1434.01,-941.23 1427.12,-933.18 1427.49,-943.77 1434.01,-941.23"/>
</g>
<!-- 38988 -->
<g id="node16" class="node">
<title>38988</title>
<polygon fill="none" stroke="#00876c" points="1737.51,-814.85 1737.51,-829.76 1702.36,-840.31 1652.64,-840.31 1617.49,-829.76 1617.49,-814.85 1652.64,-804.31 1702.36,-804.31 1737.51,-814.85"/>
<polygon fill="none" stroke="#00876c" points="1741.51,-811.88 1741.51,-832.74 1702.95,-844.31 1652.05,-844.31 1613.49,-832.74 1613.49,-811.88 1652.05,-800.31 1702.95,-800.31 1741.51,-811.88"/>
<text text-anchor="middle" x="1677.5" y="-817.26" font-family="Times,serif" font-size="14.00">AGPL&#45;1.0+</text>
</g>
<!-- 38988&#45;&gt;38987 -->
<g id="edge18" class="edge">
<title>38988&#45;&gt;38987</title>
<path fill="none" stroke="#00876c" stroke-width="2" d="M1650.17,-844.07C1611.54,-873.95 1589.95,-884.18 1526.11,-894.54"/>
<polygon fill="#00876c" stroke="#00876c" stroke-width="2" points="1517.46,-895.9 1526.64,-889.9 1519.91,-895 1527.26,-893.85 1527.34,-894.35 1527.41,-894.84 1520.07,-895.99 1528.03,-898.79 1517.46,-895.9"/>
</g>
<!-- 38989 -->
<g id="node17" class="node">
<title>38989</title>
<polygon fill="none" stroke="#00876c" points="1256.49,-1002.16 1256.49,-1017.07 1090.23,-1027.61 855.1,-1027.61 688.84,-1017.07 688.84,-1002.16 855.1,-991.61 1090.23,-991.61 1256.49,-1002.16"/>
<polygon fill="none" stroke="#00876c" points="1260.49,-998.4 1260.49,-1020.82 1090.35,-1031.61 854.98,-1031.61 684.84,-1020.82 684.84,-998.4 854.98,-987.61 1090.35,-987.61 1260.49,-998.4"/>
<text text-anchor="middle" x="972.66" y="-1004.56" font-family="Times,serif" font-size="14.00">metaeffekt:Affero General Public License 1.0 (or any later version)</text>
</g>
<!-- 38989&#45;&gt;38987 -->
<g id="edge19" class="edge">
<title>38989&#45;&gt;38987</title>
<path fill="none" stroke="#00876c" stroke-width="2" d="M1260.71,-1006.53C1296.15,-994.19 1329.1,-972.77 1376.62,-938.44"/>
<polygon fill="#00876c" stroke="#00876c" stroke-width="2" points="1383.7,-933.31 1378.24,-942.83 1381.92,-935.22 1375.9,-939.59 1375.6,-939.18 1375.31,-938.78 1381.33,-934.41 1372.96,-935.54 1383.7,-933.31"/>
</g>
<!-- 38990 -->
<g id="node18" class="node">
<title>38990</title>
<polygon fill="none" stroke="#00876c" points="1143.02,-1060.81 1143.02,-1075.72 1003.7,-1086.27 806.66,-1086.27 667.34,-1075.72 667.34,-1060.81 806.66,-1050.27 1003.7,-1050.27 1143.02,-1060.81"/>
<polygon fill="none" stroke="#00876c" points="1147.02,-1057.1 1147.02,-1079.43 1003.85,-1090.27 806.51,-1090.27 663.34,-1079.43 663.34,-1057.1 806.51,-1046.27 1003.85,-1046.27 1147.02,-1057.1"/>
<text text-anchor="middle" x="905.18" y="-1063.22" font-family="Times,serif" font-size="14.00">Affero General Public License 1.0 (or any later version)</text>
</g>
<!-- 38990&#45;&gt;38989 -->
<g id="edge20" class="edge">
<title>38990&#45;&gt;38989</title>
<path fill="none" stroke="#00876c" stroke-width="2" d="M945.57,-1045.9C947.01,-1044.28 948.51,-1042.5 950.09,-1040.52"/>
<polygon fill="#00876c" stroke="#00876c" stroke-width="2" points="955.24,-1033.79 952.74,-1044.47 954.08,-1036.13 949.56,-1042.04 949.17,-1041.73 948.77,-1041.43 953.28,-1035.52 945.59,-1039 955.24,-1033.79"/>
</g>
<!-- 38991 -->
<g id="node19" class="node">
<title>38991</title>
<polygon fill="none" stroke="#00876c" points="1864.99,-1214.71 1864.99,-1229.62 1761.04,-1240.16 1614.03,-1240.16 1510.07,-1229.62 1510.07,-1214.71 1614.03,-1204.16 1761.04,-1204.16 1864.99,-1214.71"/>
<text text-anchor="middle" x="1687.53" y="-1217.11" font-family="Times,serif" font-size="14.00">https://spdx.org/licenses/agpl&#45;1.0&#45;or&#45;later</text>
</g>
<!-- 38991&#45;&gt;38987 -->
<g id="edge21" class="edge">
<title>38991&#45;&gt;38987</title>
<path fill="none" stroke="#00876c" stroke-dasharray="5,2" d="M1675.79,-1203.67C1621.52,-1118.4 1608.23,-1103.31 1446.15,-939.62"/>
<polygon fill="#00876c" stroke="#00876c" points="1439.17,-932.58 1449.41,-936.52 1441.84,-935.27 1446.21,-939.69 1446.21,-939.69 1446.21,-939.69 1441.84,-935.27 1443.01,-942.85 1439.17,-932.58"/>
</g>
<!-- 54448 -->
<g id="node20" class="node">
<title>54448</title>
<ellipse fill="none" stroke="#98b561" cx="160.43" cy="-665.04" rx="160.87" ry="28.99"/>
<text text-anchor="middle" x="160.43" y="-668.24" font-family="Times,serif" font-size="14.00" fill="gray">EclipseLicense</text>
<text text-anchor="middle" x="160.43" y="-651.74" font-family="Times,serif" font-size="14.00" fill="gray">e32641ecd0b50571300cbe07577d99ba</text>
</g>
<!-- 54448&#45;&gt;54449 -->
<g id="edge22" class="edge">
<title>54448&#45;&gt;54449</title>
<path fill="none" stroke="#98b561" d="M214.56,-637.34C240.39,-625.96 267.11,-618.31 325.08,-604.75"/>
<polygon fill="#98b561" stroke="#98b561" points="325.85,-608.17 334.8,-602.49 324.26,-601.35 325.85,-608.17"/>
</g>
</g>
</svg>
