<?xml version="1.0" encoding="UTF-8" standalone="no"?>
<!DOCTYPE svg PUBLIC "-//W3C//DTD SVG 1.1//EN"
 "http://www.w3.org/Graphics/SVG/1.1/DTD/svg11.dtd">
<!-- Generated by graphviz version 10.0.1 (0)
 -->
<!-- Pages: 1 -->
<svg width="2364pt" height="2088pt"
 viewBox="0.00 0.00 2364.00 2088.00" xmlns="http://www.w3.org/2000/svg" xmlns:xlink="http://www.w3.org/1999/xlink">
<g id="graph0" class="graph" transform="scale(1 1) rotate(0) translate(4 2084)">
<polygon fill="white" stroke="none" points="-4,4 -4,-2084 2360,-2084 2360,4 -4,4"/>
<!-- 5 -->
<g id="node1" class="node">
<title>5</title>
<text text-anchor="start" x="419.89" y="-804.82" font-family="Times,serif" font-size="14.00">OSI: </text>
<text text-anchor="start" x="449.14" y="-804.82" font-family="Times,serif" font-weight="bold" font-size="14.00" fill="#8b0000">Rejected</text>
</g>
<!-- 133 -->
<g id="node2" class="node">
<title>133</title>
<ellipse fill="none" stroke="#dac767" cx="753.7" cy="-989.69" rx="157.15" ry="28.99"/>
<text text-anchor="middle" x="753.7" y="-992.89" font-family="Times,serif" font-size="14.00" fill="gray">SPDXLicense</text>
<text text-anchor="middle" x="753.7" y="-976.39" font-family="Times,serif" font-size="14.00" fill="gray">bd8d977dc069c80df07b7217c92fadf1</text>
</g>
<!-- 5&#45;&gt;133 -->
<g id="edge1" class="edge">
<title>5&#45;&gt;133</title>
<path fill="none" stroke="#dac767" d="M479.08,-826.77C533.54,-876.52 553.47,-889.29 688.61,-957.13"/>
<polygon fill="#dac767" stroke="#dac767" points="686.68,-960.08 697.19,-961.44 689.82,-953.82 686.68,-960.08"/>
</g>
<!-- 134 -->
<g id="node3" class="node">
<title>134</title>
<polygon fill="none" stroke="black" points="1346.94,-917.54 1346.94,-932.45 1295.55,-943 1222.89,-943 1171.51,-932.45 1171.51,-917.54 1222.89,-907 1295.55,-907 1346.94,-917.54"/>
<polygon fill="none" stroke="black" points="1350.94,-914.28 1350.94,-935.72 1295.96,-947 1222.48,-947 1167.51,-935.72 1167.51,-914.28 1222.48,-903 1295.96,-903 1350.94,-914.28"/>
<polygon fill="none" stroke="black" points="1354.94,-911.02 1354.94,-938.98 1296.37,-951 1222.08,-951 1163.51,-938.98 1163.51,-911.02 1222.08,-899 1296.37,-899 1354.94,-911.02"/>
<text text-anchor="middle" x="1259.22" y="-919.95" font-family="Times,serif" font-size="14.00">spdx:AMD&#45;newlib</text>
</g>
<!-- 133&#45;&gt;134 -->
<g id="edge2" class="edge">
<title>133&#45;&gt;134</title>
<path fill="none" stroke="#dac767" d="M811.98,-962.41C906.34,-919.95 949.51,-915.27 1151.95,-921.42"/>
<polygon fill="#dac767" stroke="#dac767" points="1151.67,-924.92 1161.77,-921.73 1151.88,-917.92 1151.67,-924.92"/>
</g>
<!-- 9490 -->
<g id="node13" class="node">
<title>9490</title>
<polygon fill="none" stroke="#e09d4b" points="1317.43,-531.81 1317.43,-546.72 1260.86,-557.26 1180.85,-557.26 1124.28,-546.72 1124.28,-531.81 1180.85,-521.26 1260.86,-521.26 1317.43,-531.81"/>
<polygon fill="none" stroke="#e09d4b" points="1321.43,-528.48 1321.43,-550.04 1261.23,-561.26 1180.48,-561.26 1120.28,-550.04 1120.28,-528.48 1180.48,-517.26 1261.23,-517.26 1321.43,-528.48"/>
<text text-anchor="middle" x="1220.85" y="-534.21" font-family="Times,serif" font-size="14.00">Fedora:AMD&#45;newlib</text>
</g>
<!-- 134&#45;&gt;9490 -->
<g id="edge3" class="edge">
<title>134&#45;&gt;9490</title>
<path fill="none" stroke="#e09d4b" stroke-width="2" d="M1258.84,-898.72C1255.69,-682.1 1254.46,-655.77 1230.54,-572.34"/>
<polygon fill="#e09d4b" stroke="#e09d4b" stroke-width="2" points="1228.1,-563.93 1235.2,-572.28 1229.29,-566.25 1231.36,-573.39 1230.88,-573.53 1230.4,-573.67 1228.33,-566.53 1226.56,-574.78 1228.1,-563.93"/>
</g>
<!-- 28702 -->
<g id="node16" class="node">
<title>28702</title>
<polygon fill="none" stroke="black" points="1629.97,-1212.05 1629.97,-1226.96 1565.93,-1237.51 1475.37,-1237.51 1411.33,-1226.96 1411.33,-1212.05 1475.37,-1201.51 1565.93,-1201.51 1629.97,-1212.05"/>
<polygon fill="none" stroke="black" points="1633.97,-1208.65 1633.97,-1230.36 1566.26,-1241.51 1475.04,-1241.51 1407.33,-1230.36 1407.33,-1208.65 1475.04,-1197.51 1566.26,-1197.51 1633.97,-1208.65"/>
<text text-anchor="middle" x="1520.65" y="-1214.46" font-family="Times,serif" font-size="14.00">scancode:amd&#45;historical</text>
</g>
<!-- 134&#45;&gt;28702 -->
<g id="edge4" class="edge">
<title>134&#45;&gt;28702</title>
<path fill="none" stroke="#deb256" stroke-width="2" d="M1277.48,-951.43C1321.25,-1006.17 1432.08,-1131.31 1487.78,-1189.2"/>
<polygon fill="#deb256" stroke="#deb256" stroke-width="2" points="1493.88,-1195.49 1483.69,-1191.45 1491.74,-1193.99 1486.56,-1188.66 1486.91,-1188.31 1487.27,-1187.96 1492.45,-1193.3 1490.14,-1185.18 1493.88,-1195.49"/>
</g>
<!-- 55697 -->
<g id="node30" class="node">
<title>55697</title>
<polygon fill="none" stroke="#379469" points="1325.35,-858.65 1325.35,-873.56 1229.18,-884.11 1093.19,-884.11 997.02,-873.56 997.02,-858.65 1093.19,-848.11 1229.18,-848.11 1325.35,-858.65"/>
<polygon fill="none" stroke="#379469" points="1329.35,-855.07 1329.35,-877.15 1229.4,-888.11 1092.97,-888.11 993.02,-877.15 993.02,-855.07 1092.97,-844.11 1229.4,-844.11 1329.35,-855.07"/>
<text text-anchor="middle" x="1161.18" y="-861.06" font-family="Times,serif" font-size="14.00">metaeffekt:Permission Terms (AMD)</text>
</g>
<!-- 134&#45;&gt;55697 -->
<g id="edge5" class="edge">
<title>134&#45;&gt;55697</title>
<path fill="none" stroke="#379469" stroke-width="2" d="M1236.31,-898.59C1235.51,-897.72 1234.72,-896.87 1233.95,-896.05"/>
<polygon fill="#379469" stroke="#379469" stroke-width="2" points="1227.88,-889.96 1238.13,-893.87 1230.05,-891.43 1235.3,-896.69 1234.94,-897.04 1234.59,-897.4 1229.34,-892.13 1231.76,-900.22 1227.88,-889.96"/>
</g>
<!-- 135 -->
<g id="node4" class="node">
<title>135</title>
<polygon fill="none" stroke="black" points="1547.72,-581.23 1547.72,-596.15 1509,-606.69 1454.23,-606.69 1415.51,-596.15 1415.51,-581.23 1454.23,-570.69 1509,-570.69 1547.72,-581.23"/>
<polygon fill="none" stroke="black" points="1551.72,-578.18 1551.72,-599.2 1509.53,-610.69 1453.7,-610.69 1411.51,-599.2 1411.51,-578.18 1453.7,-566.69 1509.53,-566.69 1551.72,-578.18"/>
<text text-anchor="middle" x="1481.61" y="-583.64" font-family="Times,serif" font-size="14.00">AMD&#45;newlib</text>
</g>
<!-- 135&#45;&gt;134 -->
<g id="edge6" class="edge">
<title>135&#45;&gt;134</title>
<path fill="none" stroke="black" stroke-width="2" d="M1467.11,-611.03C1417.77,-686.99 1404.81,-706.55 1282.78,-889.66"/>
<polygon fill="black" stroke="black" stroke-width="2" points="1278.04,-896.76 1279.84,-885.94 1279.05,-894.35 1283.17,-888.16 1283.59,-888.44 1284,-888.71 1279.88,-894.9 1287.33,-890.93 1278.04,-896.76"/>
</g>
<!-- 135&#45;&gt;9490 -->
<g id="edge7" class="edge">
<title>135&#45;&gt;9490</title>
<path fill="none" stroke="#e09d4b" stroke-width="2" d="M1449.54,-567.52C1394.8,-531.96 1370.41,-521.26 1320.45,-524.81"/>
<polygon fill="#e09d4b" stroke="#e09d4b" stroke-width="2" points="1311.81,-525.57 1321.38,-520.21 1314.32,-524.85 1321.73,-524.2 1321.77,-524.7 1321.81,-525.2 1314.41,-525.85 1322.16,-529.18 1311.81,-525.57"/>
</g>
<!-- 41017 -->
<g id="node27" class="node">
<title>41017</title>
<polygon fill="none" stroke="#379469" points="1814.21,-334.31 1814.21,-349.23 1762.5,-359.77 1689.38,-359.77 1637.67,-349.23 1637.67,-334.31 1689.38,-323.77 1762.5,-323.77 1814.21,-334.31"/>
<polygon fill="none" stroke="#379469" points="1818.21,-331.05 1818.21,-352.49 1762.91,-363.77 1688.98,-363.77 1633.67,-352.49 1633.67,-331.05 1688.98,-319.77 1762.91,-319.77 1818.21,-331.05"/>
<text text-anchor="middle" x="1725.94" y="-336.72" font-family="Times,serif" font-size="14.00">cavil:AMD&#45;newlib</text>
</g>
<!-- 135&#45;&gt;41017 -->
<g id="edge8" class="edge">
<title>135&#45;&gt;41017</title>
<path fill="none" stroke="#379469" stroke-width="2" d="M1501.81,-566.55C1620.2,-436.78 1643.16,-412.19 1691.02,-371.2"/>
<polygon fill="#379469" stroke="#379469" stroke-width="2" points="1697.41,-365.76 1692.71,-375.67 1695.78,-367.8 1690.12,-372.62 1689.8,-372.24 1689.47,-371.86 1695.13,-367.04 1686.88,-368.81 1697.41,-365.76"/>
</g>
<!-- 136 -->
<g id="node5" class="node">
<title>136</title>
<polygon fill="none" stroke="black" points="1606.02,-746.39 1606.02,-761.3 1547.83,-771.85 1465.52,-771.85 1407.33,-761.3 1407.33,-746.39 1465.52,-735.85 1547.83,-735.85 1606.02,-746.39"/>
<polygon fill="none" stroke="black" points="1610.02,-743.05 1610.02,-764.65 1548.18,-775.85 1465.16,-775.85 1403.33,-764.65 1403.33,-743.05 1465.16,-731.85 1548.18,-731.85 1610.02,-743.05"/>
<text text-anchor="middle" x="1506.67" y="-748.8" font-family="Times,serif" font-size="14.00">AMD newlib License</text>
</g>
<!-- 136&#45;&gt;134 -->
<g id="edge9" class="edge">
<title>136&#45;&gt;134</title>
<path fill="none" stroke="#dac767" stroke-width="2" d="M1465.74,-776.21C1424.72,-799.39 1399.04,-818.08 1302.29,-892.04"/>
<polygon fill="#dac767" stroke="#dac767" stroke-width="2" points="1295.58,-897.17 1300.79,-887.52 1297.31,-895.21 1303.22,-890.7 1303.53,-891.09 1303.83,-891.49 1297.92,-896.01 1306.26,-894.67 1295.58,-897.17"/>
</g>
<!-- 136&#45;&gt;55697 -->
<g id="edge10" class="edge">
<title>136&#45;&gt;55697</title>
<path fill="none" stroke="#379469" stroke-dasharray="5,2" d="M1402.84,-755.77C1356.29,-762.68 1313.78,-783.38 1212.14,-838.41"/>
<polygon fill="#379469" stroke="#379469" points="1203.52,-843.08 1210.17,-834.36 1206.85,-841.28 1212.31,-838.31 1212.31,-838.31 1212.31,-838.31 1206.85,-841.28 1214.46,-842.27 1203.52,-843.08"/>
</g>
<!-- 66281 -->
<g id="node35" class="node">
<title>66281</title>
<polygon fill="none" stroke="#00876c" points="1758.06,-804.28 1758.06,-819.19 1687.21,-829.73 1587.01,-829.73 1516.15,-819.19 1516.15,-804.28 1587.01,-793.73 1687.21,-793.73 1758.06,-804.28"/>
<polygon fill="none" stroke="#00876c" points="1762.06,-800.83 1762.06,-822.64 1687.5,-833.73 1586.71,-833.73 1512.15,-822.64 1512.15,-800.83 1586.71,-789.73 1687.5,-789.73 1762.06,-800.83"/>
<text text-anchor="middle" x="1637.11" y="-806.68" font-family="Times,serif" font-size="14.00">spdx:AMD newlib License</text>
</g>
<!-- 136&#45;&gt;66281 -->
<g id="edge11" class="edge">
<title>136&#45;&gt;66281</title>
<path fill="none" stroke="#00876c" stroke-width="2" d="M1585.87,-769.46C1594.17,-772.65 1600.8,-776.6 1607.56,-782.11"/>
<polygon fill="#00876c" stroke="#00876c" stroke-width="2" points="1613.84,-787.71 1603.38,-784.41 1611.59,-786.38 1606.05,-781.43 1606.38,-781.06 1606.71,-780.68 1612.26,-785.63 1609.37,-777.7 1613.84,-787.71"/>
</g>
<!-- 137 -->
<g id="node6" class="node">
<title>137</title>
<text text-anchor="middle" x="381.07" y="-984" font-family="Times,serif" font-size="14.00">$TEXT</text>
</g>
<!-- 137&#45;&gt;133 -->
<g id="edge12" class="edge">
<title>137&#45;&gt;133</title>
<path fill="none" stroke="#dac767" d="M409.66,-987.57C468.47,-984.62 497.25,-983.95 585.91,-985.72"/>
<polygon fill="#dac767" stroke="#dac767" points="585.74,-989.22 595.81,-985.92 585.89,-982.22 585.74,-989.22"/>
</g>
<!-- 138 -->
<g id="node7" class="node">
<title>138</title>
<text text-anchor="middle" x="183.73" y="-976.78" font-family="Times,serif" font-size="14.00">$TEXT</text>
</g>
<!-- 138&#45;&gt;137 -->
<g id="edge13" class="edge">
<title>138&#45;&gt;137</title>
<path fill="none" stroke="#dac767" d="M212.11,-982.43C243.13,-983.14 263.08,-983.93 341.25,-987.32"/>
<polygon fill="#dac767" stroke="#dac767" points="341.02,-990.81 351.17,-987.75 341.33,-983.82 341.02,-990.81"/>
</g>
<!-- 139 -->
<g id="node8" class="node">
<title>139</title>
<text text-anchor="middle" x="1019.95" y="-1733.76" font-family="Times,serif" font-size="14.00">https://sourceware.org/git/?p=newlib&#45;cygwin.git;a=blob;f=newlib/libc/sys/a29khif/_close.S;h=04f52ae00de1dafbd9055ad8d73c5c697a3aae7f;hb=HEAD</text>
</g>
<!-- 139&#45;&gt;133 -->
<g id="edge14" class="edge">
<title>139&#45;&gt;133</title>
<path fill="none" stroke="#dac767" d="M1003.17,-1720.84C787,-1489.16 780.16,-1471.62 755.92,-1030.21"/>
<polygon fill="#dac767" stroke="#dac767" points="759.43,-1030.35 755.39,-1020.55 752.44,-1030.73 759.43,-1030.35"/>
</g>
<!-- 28701 -->
<g id="node15" class="node">
<title>28701</title>
<ellipse fill="none" stroke="#deb256" cx="1776.28" cy="-1697.21" rx="157.68" ry="28.99"/>
<text text-anchor="middle" x="1776.28" y="-1700.41" font-family="Times,serif" font-size="14.00" fill="gray">ScancodeData</text>
<text text-anchor="middle" x="1776.28" y="-1683.91" font-family="Times,serif" font-size="14.00" fill="gray">42e6a1cc3cc1446480afa6b830a15896</text>
</g>
<!-- 139&#45;&gt;28701 -->
<g id="edge15" class="edge">
<title>139&#45;&gt;28701</title>
<path fill="none" stroke="#deb256" d="M1082.06,-1756.79C1418.54,-1853.81 1457.52,-1854.21 1710.42,-1729.86"/>
<polygon fill="#deb256" stroke="#deb256" points="1711.89,-1733.04 1719.31,-1725.48 1708.79,-1726.76 1711.89,-1733.04"/>
</g>
<!-- 5550 -->
<g id="node9" class="node">
<title>5550</title>
<text text-anchor="middle" x="1870.99" y="-2049.12" font-family="Times,serif" font-size="14.00">LicenseType Permissive</text>
</g>
<!-- 5550&#45;&gt;28701 -->
<g id="edge16" class="edge">
<title>5550&#45;&gt;28701</title>
<path fill="none" stroke="#deb256" d="M1870.66,-2036.45C1868.68,-1939.95 1864.57,-1923.69 1791.81,-1737"/>
<polygon fill="#deb256" stroke="#deb256" points="1795.17,-1735.98 1788.27,-1727.93 1788.65,-1738.52 1795.17,-1735.98"/>
</g>
<!-- 6592 -->
<g id="node10" class="node">
<title>6592</title>
<text text-anchor="middle" x="1288.36" y="-147.9" font-family="Times,serif" font-size="14.00">[&quot;allowed&quot;]</text>
</g>
<!-- 9489 -->
<g id="node12" class="node">
<title>9489</title>
<ellipse fill="none" stroke="#e09d4b" cx="1033.58" cy="-167.92" rx="157.15" ry="28.99"/>
<text text-anchor="middle" x="1033.58" y="-171.12" font-family="Times,serif" font-size="14.00" fill="gray">FedoraEntry</text>
<text text-anchor="middle" x="1033.58" y="-154.62" font-family="Times,serif" font-size="14.00" fill="gray">50f8191f27506571a64e8c69adaa75c6</text>
</g>
<!-- 6592&#45;&gt;9489 -->
<g id="edge17" class="edge">
<title>6592&#45;&gt;9489</title>
<path fill="none" stroke="#e09d4b" d="M1248.7,-139.65C1182.02,-117.91 1157.51,-115.45 1104.36,-136.44"/>
<polygon fill="#e09d4b" stroke="#e09d4b" points="1103.05,-133.2 1095.11,-140.22 1105.69,-139.68 1103.05,-133.2"/>
</g>
<!-- 6593 -->
<g id="node11" class="node">
<title>6593</title>
<text text-anchor="start" x="1262.28" y="-103.53" font-family="Times,serif" font-size="14.00">Fedora: </text>
<text text-anchor="start" x="1307.28" y="-103.53" font-family="Times,serif" font-weight="bold" font-size="14.00" fill="#228b22">allowed</text>
<text text-anchor="start" x="1098.41" y="-89.53" font-family="Times,serif" font-size="14.00">A license is allowed if Fedora determines that the license is a free software /</text>
<text text-anchor="start" x="1093.16" y="-75.53" font-family="Times,serif" font-size="14.00">open source license. At a high level, the inquiry involves determining whether</text>
<text text-anchor="start" x="1092.03" y="-61.53" font-family="Times,serif" font-size="14.00">the license provides software freedom, and (equivalently) making sure that the</text>
<text text-anchor="start" x="1102.16" y="-47.53" font-family="Times,serif" font-size="14.00">license does not place burdens on users&#39; exercise of its permissions that are</text>
<text text-anchor="start" x="1101.78" y="-33.53" font-family="Times,serif" font-size="14.00">inconsistent with evolving community norms and traditions around what is</text>
<text text-anchor="start" x="1093.53" y="-19.53" font-family="Times,serif" font-size="14.00">acceptable in a free software / open source license. See below for more on the</text>
<text text-anchor="start" x="1213.53" y="-5.53" font-family="Times,serif" font-size="14.00">history of Fedora licensing policy.</text>
</g>
<!-- 6593&#45;&gt;6592 -->
<g id="edge18" class="edge">
<title>6593&#45;&gt;6592</title>
<path fill="none" stroke="#e09d4b" d="M1294.37,-119.42C1294.11,-120.87 1293.83,-122.37 1293.55,-123.93"/>
<polygon fill="#e09d4b" stroke="#e09d4b" points="1290.14,-123.16 1291.81,-133.63 1297.03,-124.4 1290.14,-123.16"/>
</g>
<!-- 9489&#45;&gt;9490 -->
<g id="edge19" class="edge">
<title>9489&#45;&gt;9490</title>
<path fill="none" stroke="#e09d4b" d="M1058.15,-196.93C1119.12,-269.89 1130.41,-295.97 1208.68,-506.49"/>
<polygon fill="#e09d4b" stroke="#e09d4b" points="1205.28,-507.41 1212.05,-515.56 1211.85,-504.97 1205.28,-507.41"/>
</g>
<!-- 22577 -->
<g id="node14" class="node">
<title>22577</title>
<text text-anchor="middle" x="2155.02" y="-2062.86" font-family="Times,serif" font-size="14.00">ScancodeData:</text>
<text text-anchor="middle" x="2155.02" y="-2046.36" font-family="Times,serif" font-size="14.00">this is a short historical permissive license seen in the newlib C library</text>
</g>
<!-- 22577&#45;&gt;28701 -->
<g id="edge20" class="edge">
<title>22577&#45;&gt;28701</title>
<path fill="none" stroke="#deb256" d="M2132.13,-2039.25C2041.33,-1958.21 2021.37,-1938.97 1813.51,-1733.93"/>
<polygon fill="#deb256" stroke="#deb256" points="1816.05,-1731.52 1806.47,-1726.99 1811.13,-1736.51 1816.05,-1731.52"/>
</g>
<!-- 28701&#45;&gt;28702 -->
<g id="edge21" class="edge">
<title>28701&#45;&gt;28702</title>
<path fill="none" stroke="#deb256" d="M1767.98,-1667.76C1730.11,-1534.38 1717.35,-1512.48 1542.06,-1251.38"/>
<polygon fill="#deb256" stroke="#deb256" points="1545.08,-1249.6 1536.6,-1243.25 1539.27,-1253.51 1545.08,-1249.6"/>
</g>
<!-- 28702&#45;&gt;134 -->
<g id="edge22" class="edge">
<title>28702&#45;&gt;134</title>
<path fill="none" stroke="#00876c" stroke-width="2" d="M1505.78,-1197.34C1465.47,-1146.18 1353.88,-1019.93 1295.6,-958.95"/>
<polygon fill="#00876c" stroke="#00876c" stroke-width="2" points="1289.77,-952.9 1299.95,-956.99 1291.91,-954.4 1297.07,-959.76 1296.71,-960.11 1296.35,-960.45 1291.19,-955.1 1293.47,-963.23 1289.77,-952.9"/>
</g>
<!-- 28702&#45;&gt;55697 -->
<g id="edge23" class="edge">
<title>28702&#45;&gt;55697</title>
<path fill="none" stroke="#379469" stroke-dasharray="5,2" d="M1510.67,-1197.42C1445.24,-1053.16 1430.97,-1038.08 1205.67,-894.42"/>
<polygon fill="#379469" stroke="#379469" points="1197.55,-889.25 1208.4,-890.83 1200.74,-891.28 1205.99,-894.62 1205.99,-894.62 1205.99,-894.62 1200.74,-891.28 1203.57,-898.42 1197.55,-889.25"/>
</g>
<!-- 28703 -->
<g id="node17" class="node">
<title>28703</title>
<polygon fill="none" stroke="black" points="1936.81,-1269.23 1936.81,-1284.14 1895.81,-1294.69 1837.83,-1294.69 1796.83,-1284.14 1796.83,-1269.23 1837.83,-1258.69 1895.81,-1258.69 1936.81,-1269.23"/>
<polygon fill="none" stroke="black" points="1940.81,-1266.13 1940.81,-1287.24 1896.31,-1298.69 1837.32,-1298.69 1792.83,-1287.24 1792.83,-1266.13 1837.32,-1254.69 1896.31,-1254.69 1940.81,-1266.13"/>
<text text-anchor="middle" x="1866.82" y="-1271.64" font-family="Times,serif" font-size="14.00">amd&#45;historical</text>
</g>
<!-- 28703&#45;&gt;28702 -->
<g id="edge24" class="edge">
<title>28703&#45;&gt;28702</title>
<path fill="none" stroke="black" stroke-width="2" d="M1792.74,-1273.93C1749.87,-1270.68 1710.07,-1262.81 1607.53,-1239.45"/>
<polygon fill="black" stroke="black" stroke-width="2" points="1599.11,-1237.53 1609.86,-1235.37 1601.72,-1237.61 1608.97,-1239.27 1608.86,-1239.76 1608.75,-1240.24 1601.5,-1238.59 1607.86,-1244.14 1599.11,-1237.53"/>
</g>
<!-- 28704 -->
<g id="node18" class="node">
<title>28704</title>
<polygon fill="none" stroke="black" points="1348.83,-1303 1348.83,-1317.91 1283.5,-1328.46 1191.1,-1328.46 1125.76,-1317.91 1125.76,-1303 1191.1,-1292.46 1283.5,-1292.46 1348.83,-1303"/>
<polygon fill="none" stroke="black" points="1352.83,-1299.6 1352.83,-1321.32 1283.82,-1332.46 1190.78,-1332.46 1121.76,-1321.32 1121.76,-1299.6 1190.78,-1288.46 1283.82,-1288.46 1352.83,-1299.6"/>
<text text-anchor="middle" x="1237.3" y="-1305.41" font-family="Times,serif" font-size="14.00">AMD Historical License</text>
</g>
<!-- 28704&#45;&gt;28702 -->
<g id="edge25" class="edge">
<title>28704&#45;&gt;28702</title>
<path fill="none" stroke="#deb256" stroke-width="2" d="M1353.27,-1307.8C1413.95,-1303.26 1438.52,-1290.08 1486.74,-1249.07"/>
<polygon fill="#deb256" stroke="#deb256" stroke-width="2" points="1493.18,-1243.54 1488.52,-1253.47 1491.56,-1245.59 1485.91,-1250.44 1485.59,-1250.06 1485.26,-1249.68 1490.9,-1244.83 1482.66,-1246.64 1493.18,-1243.54"/>
</g>
<!-- 66279 -->
<g id="node33" class="node">
<title>66279</title>
<polygon fill="none" stroke="#00876c" points="1359.45,-1241.7 1359.45,-1256.61 1271.08,-1267.15 1146.1,-1267.15 1057.72,-1256.61 1057.72,-1241.7 1146.1,-1231.15 1271.08,-1231.15 1359.45,-1241.7"/>
<polygon fill="none" stroke="#00876c" points="1363.45,-1238.14 1363.45,-1260.16 1271.32,-1271.15 1145.86,-1271.15 1053.72,-1260.16 1053.72,-1238.14 1145.86,-1227.15 1271.32,-1227.15 1363.45,-1238.14"/>
<text text-anchor="middle" x="1208.59" y="-1244.1" font-family="Times,serif" font-size="14.00">scancode:AMD Historical License</text>
</g>
<!-- 28704&#45;&gt;66279 -->
<g id="edge26" class="edge">
<title>28704&#45;&gt;66279</title>
<path fill="none" stroke="#00876c" stroke-width="2" d="M1224.13,-1288.31C1223.27,-1286.4 1222.35,-1284.27 1221.34,-1281.84"/>
<polygon fill="#00876c" stroke="#00876c" stroke-width="2" points="1218.1,-1273.75 1226,-1281.36 1219.52,-1275.95 1222.29,-1282.85 1221.82,-1283.04 1221.36,-1283.22 1218.59,-1276.32 1217.64,-1284.71 1218.1,-1273.75"/>
</g>
<!-- 28705 -->
<g id="node19" class="node">
<title>28705</title>
<text text-anchor="middle" x="2042.9" y="-1856.2" font-family="Times,serif" font-size="14.00">$TEXT</text>
</g>
<!-- 28705&#45;&gt;28701 -->
<g id="edge27" class="edge">
<title>28705&#45;&gt;28701</title>
<path fill="none" stroke="#deb256" d="M2014.34,-1849.16C1958.43,-1825.09 1937.41,-1811.92 1825.28,-1732.13"/>
<polygon fill="#deb256" stroke="#deb256" points="1827.37,-1729.33 1817.2,-1726.38 1823.31,-1735.03 1827.37,-1729.33"/>
</g>
<!-- 35432 -->
<g id="node20" class="node">
<title>35432</title>
<text text-anchor="middle" x="648.24" y="-1256.42" font-family="Times,serif" font-size="14.00">LicenseTag (ScopedLicenseTag &quot;OrtLicenseCategorization&quot; &quot;permissive&quot; NoLicenseTagText)</text>
</g>
<!-- 35448 -->
<g id="node22" class="node">
<title>35448</title>
<ellipse fill="none" stroke="#d43d51" cx="782.64" cy="-1205.06" rx="156.09" ry="28.99"/>
<text text-anchor="middle" x="782.64" y="-1208.26" font-family="Times,serif" font-size="14.00" fill="gray">OrtLicenseCategorization</text>
<text text-anchor="middle" x="782.64" y="-1191.76" font-family="Times,serif" font-size="14.00" fill="gray">b1730f40e28da428c3e6af6f94eb11dd</text>
</g>
<!-- 35432&#45;&gt;35448 -->
<g id="edge28" class="edge">
<title>35432&#45;&gt;35448</title>
<path fill="none" stroke="#d43d51" d="M690.71,-1243.61C695.75,-1241.49 701.32,-1239.15 707.99,-1236.35"/>
<polygon fill="#d43d51" stroke="#d43d51" points="709.34,-1239.58 717.21,-1232.49 706.63,-1233.13 709.34,-1239.58"/>
</g>
<!-- 35944 -->
<g id="node23" class="node">
<title>35944</title>
<ellipse fill="none" stroke="#d43d51" cx="708.25" cy="-1331.58" rx="159.28" ry="28.99"/>
<text text-anchor="middle" x="708.25" y="-1334.78" font-family="Times,serif" font-size="14.00" fill="gray">OrtLicenseCategorization</text>
<text text-anchor="middle" x="708.25" y="-1318.28" font-family="Times,serif" font-size="14.00" fill="gray">ca2b1f697838d57756795eb283aabc73</text>
</g>
<!-- 35432&#45;&gt;35944 -->
<g id="edge29" class="edge">
<title>35432&#45;&gt;35944</title>
<path fill="none" stroke="#d43d51" d="M653.97,-1279.3C655.96,-1285.09 657.82,-1289.78 659.91,-1293.82"/>
<polygon fill="#d43d51" stroke="#d43d51" points="656.94,-1295.68 665.44,-1302 662.74,-1291.76 656.94,-1295.68"/>
</g>
<!-- 35433 -->
<g id="node21" class="node">
<title>35433</title>
<text text-anchor="middle" x="294.38" y="-1590.9" font-family="Times,serif" font-size="14.00">LicenseTag (ScopedLicenseTag &quot;OrtLicenseCategorization&quot; &quot;include&#45;in&#45;notice&#45;file&quot; NoLicenseTagText)</text>
</g>
<!-- 35433&#45;&gt;35448 -->
<g id="edge30" class="edge">
<title>35433&#45;&gt;35448</title>
<path fill="none" stroke="#d43d51" d="M312.18,-1578.3C424.39,-1467.22 443.95,-1451.53 734.57,-1240.03"/>
<polygon fill="#d43d51" stroke="#d43d51" points="736.44,-1243 742.47,-1234.29 732.32,-1237.34 736.44,-1243"/>
</g>
<!-- 35433&#45;&gt;35944 -->
<g id="edge31" class="edge">
<title>35433&#45;&gt;35944</title>
<path fill="none" stroke="#d43d51" d="M321.93,-1578.12C412.88,-1519.27 437.84,-1503.34 654.35,-1365.82"/>
<polygon fill="#d43d51" stroke="#d43d51" points="655.95,-1368.95 662.52,-1360.63 652.2,-1363.04 655.95,-1368.95"/>
</g>
<!-- 35448&#45;&gt;134 -->
<g id="edge32" class="edge">
<title>35448&#45;&gt;134</title>
<path fill="none" stroke="#d43d51" d="M813.04,-1176.29C907.27,-1087.85 937.19,-1071.14 1197.36,-953.04"/>
<polygon fill="#d43d51" stroke="#d43d51" points="1198.47,-956.38 1206.13,-949.06 1195.58,-950.01 1198.47,-956.38"/>
</g>
<!-- 35945 -->
<g id="node24" class="node">
<title>35945</title>
<polygon fill="none" stroke="#d43d51" points="1320.44,-1583 1320.44,-1597.91 1210.97,-1608.45 1056.16,-1608.45 946.69,-1597.91 946.69,-1583 1056.16,-1572.45 1210.97,-1572.45 1320.44,-1583"/>
<polygon fill="none" stroke="#d43d51" points="1324.44,-1579.36 1324.44,-1601.54 1211.16,-1612.45 1055.96,-1612.45 942.69,-1601.54 942.69,-1579.36 1055.96,-1568.45 1211.16,-1568.45 1324.44,-1579.36"/>
<text text-anchor="middle" x="1133.56" y="-1585.4" font-family="Times,serif" font-size="14.00">SPDX:LicenseRef&#45;scancode&#45;amd&#45;historical</text>
</g>
<!-- 35944&#45;&gt;35945 -->
<g id="edge33" class="edge">
<title>35944&#45;&gt;35945</title>
<path fill="none" stroke="#d43d51" d="M730.06,-1360.63C842.75,-1510.41 872.22,-1540.54 1012.13,-1568.89"/>
<polygon fill="#d43d51" stroke="#d43d51" points="1011.31,-1572.3 1021.8,-1570.81 1012.68,-1565.44 1011.31,-1572.3"/>
</g>
<!-- 35946 -->
<g id="node25" class="node">
<title>35946</title>
<polygon fill="none" stroke="black" points="1740.72,-1336.59 1740.72,-1351.5 1647.8,-1362.05 1516.4,-1362.05 1423.48,-1351.5 1423.48,-1336.59 1516.4,-1326.05 1647.8,-1326.05 1740.72,-1336.59"/>
<polygon fill="none" stroke="black" points="1744.72,-1333.02 1744.72,-1355.07 1648.03,-1366.05 1516.17,-1366.05 1419.48,-1355.07 1419.48,-1333.02 1516.17,-1322.05 1648.03,-1322.05 1744.72,-1333.02"/>
<text text-anchor="middle" x="1582.1" y="-1339" font-family="Times,serif" font-size="14.00">LicenseRef&#45;scancode&#45;amd&#45;historical</text>
</g>
<!-- 35946&#45;&gt;35945 -->
<g id="edge34" class="edge">
<title>35946&#45;&gt;35945</title>
<path fill="none" stroke="#d43d51" stroke-width="2" d="M1563.05,-1366.49C1437.31,-1514.43 1401.69,-1550.78 1280.86,-1571.84"/>
<polygon fill="#d43d51" stroke="#d43d51" stroke-width="2" points="1272.48,-1573.24 1281.6,-1567.16 1274.93,-1572.33 1282.26,-1571.1 1282.34,-1571.59 1282.43,-1572.09 1275.09,-1573.31 1283.09,-1576.03 1272.48,-1573.24"/>
</g>
<!-- 66280 -->
<g id="node34" class="node">
<title>66280</title>
<polygon fill="none" stroke="#00876c" points="1774.25,-1282.73 1774.25,-1297.64 1658.29,-1308.18 1494.3,-1308.18 1378.34,-1297.64 1378.34,-1282.73 1494.3,-1272.18 1658.29,-1272.18 1774.25,-1282.73"/>
<polygon fill="none" stroke="#00876c" points="1778.25,-1279.07 1778.25,-1301.29 1658.47,-1312.18 1494.11,-1312.18 1374.34,-1301.29 1374.34,-1279.07 1494.11,-1268.18 1658.47,-1268.18 1778.25,-1279.07"/>
<text text-anchor="middle" x="1576.29" y="-1285.13" font-family="Times,serif" font-size="14.00">scancode:LicenseRef&#45;scancode&#45;amd&#45;historical</text>
</g>
<!-- 35946&#45;&gt;66280 -->
<g id="edge35" class="edge">
<title>35946&#45;&gt;66280</title>
<path fill="none" stroke="#00876c" stroke-width="2" d="M1585.88,-1321.73C1585.87,-1321.65 1585.86,-1321.56 1585.85,-1321.47"/>
<polygon fill="#00876c" stroke="#00876c" stroke-width="2" points="1584.37,-1314.69 1590.9,-1323.5 1585.4,-1317.09 1587,-1324.35 1586.51,-1324.46 1586.02,-1324.57 1584.43,-1317.3 1582.11,-1325.42 1584.37,-1314.69"/>
</g>
<!-- 41016 -->
<g id="node26" class="node">
<title>41016</title>
<ellipse fill="none" stroke="#379469" cx="2008.03" cy="-51.67" rx="155.56" ry="28.99"/>
<text text-anchor="middle" x="2008.03" y="-54.87" font-family="Times,serif" font-size="14.00" fill="gray">CavilLicenseChange</text>
<text text-anchor="middle" x="2008.03" y="-38.37" font-family="Times,serif" font-size="14.00" fill="gray">f130dd8a7d4faee1c090c787d6411f5c</text>
</g>
<!-- 41016&#45;&gt;41017 -->
<g id="edge36" class="edge">
<title>41016&#45;&gt;41017</title>
<path fill="none" stroke="#379469" d="M1976.74,-80.43C1918.59,-134.19 1895.79,-158.29 1754.4,-311.03"/>
<polygon fill="#379469" stroke="#379469" points="1751.94,-308.53 1747.72,-318.24 1757.08,-313.28 1751.94,-308.53"/>
</g>
<!-- 50154 -->
<g id="node28" class="node">
<title>50154</title>
<polygon fill="none" stroke="#379469" points="935.24,-646.22 935.24,-661.13 902.03,-671.67 855.07,-671.67 821.86,-661.13 821.86,-646.22 855.07,-635.67 902.03,-635.67 935.24,-646.22"/>
<text text-anchor="middle" x="878.55" y="-648.62" font-family="Times,serif" font-size="14.00">Permission</text>
</g>
<!-- 50154&#45;&gt;55697 -->
<g id="edge37" class="edge">
<title>50154&#45;&gt;55697</title>
<path fill="none" stroke="#379469" stroke-dasharray="5,2" d="M913.57,-668.52C982.42,-698.52 1003.74,-716.27 1129.8,-836.21"/>
<polygon fill="#379469" stroke="#379469" points="1136.97,-843.04 1126.63,-839.41 1134.24,-840.44 1129.73,-836.15 1129.73,-836.15 1129.73,-836.15 1134.24,-840.44 1132.83,-832.89 1136.97,-843.04"/>
</g>
<!-- 55696 -->
<g id="node29" class="node">
<title>55696</title>
<ellipse fill="none" stroke="#379469" cx="870.18" cy="-467.67" rx="159.28" ry="28.99"/>
<text text-anchor="middle" x="870.18" y="-470.87" font-family="Times,serif" font-size="14.00" fill="gray">MetaeffektLicense</text>
<text text-anchor="middle" x="870.18" y="-454.37" font-family="Times,serif" font-size="14.00" fill="gray">1cd51d4c400e93a42be664088ba9ac6e</text>
</g>
<!-- 55696&#45;&gt;55697 -->
<g id="edge38" class="edge">
<title>55696&#45;&gt;55697</title>
<path fill="none" stroke="#379469" d="M898.25,-496.52C974.68,-575.63 992.72,-602.18 1140.88,-834.29"/>
<polygon fill="#379469" stroke="#379469" points="1137.75,-835.89 1146.08,-842.43 1143.65,-832.12 1137.75,-835.89"/>
</g>
<!-- 55698 -->
<g id="node31" class="node">
<title>55698</title>
<polygon fill="none" stroke="#379469" points="1244.95,-805.94 1244.95,-820.85 1175.72,-831.4 1077.81,-831.4 1008.58,-820.85 1008.58,-805.94 1077.81,-795.4 1175.72,-795.4 1244.95,-805.94"/>
<polygon fill="none" stroke="#379469" points="1248.95,-802.5 1248.95,-824.29 1176.02,-835.4 1077.51,-835.4 1004.58,-824.29 1004.58,-802.5 1077.51,-791.4 1176.02,-791.4 1248.95,-802.5"/>
<text text-anchor="middle" x="1126.77" y="-808.35" font-family="Times,serif" font-size="14.00">Permission Terms (AMD)</text>
</g>
<!-- 55698&#45;&gt;55697 -->
<g id="edge39" class="edge">
<title>55698&#45;&gt;55697</title>
<path fill="none" stroke="#379469" stroke-width="2" d="M1145.56,-835.67C1145.64,-835.82 1145.73,-835.96 1145.81,-836.11"/>
<polygon fill="#379469" stroke="#379469" stroke-width="2" points="1148.79,-841.66 1140.09,-834.98 1147.14,-839.64 1143.61,-833.09 1144.05,-832.85 1144.5,-832.61 1148.02,-839.16 1148.02,-830.72 1148.79,-841.66"/>
</g>
<!-- 66278 -->
<g id="node32" class="node">
<title>66278</title>
<ellipse fill="none" stroke="#00876c" cx="1657.43" cy="-944.65" rx="155.56" ry="28.99"/>
<text text-anchor="middle" x="1657.43" y="-947.85" font-family="Times,serif" font-size="14.00" fill="gray">LicenseLynx</text>
<text text-anchor="middle" x="1657.43" y="-931.35" font-family="Times,serif" font-size="14.00" fill="gray">d7db06eff3d42ffa964c708de1b49722</text>
</g>
<!-- 66278&#45;&gt;134 -->
<g id="edge40" class="edge">
<title>66278&#45;&gt;134</title>
<path fill="none" stroke="#00876c" d="M1568.83,-920.39C1521.72,-911.02 1476.37,-911.32 1366.5,-918.03"/>
<polygon fill="#00876c" stroke="#00876c" points="1366.58,-914.52 1356.82,-918.63 1367.01,-921.51 1366.58,-914.52"/>
</g>
<!-- 66279&#45;&gt;134 -->
<g id="edge41" class="edge">
<title>66279&#45;&gt;134</title>
<path fill="none" stroke="#00876c" stroke-width="2" d="M1222.65,-1226.77C1279.71,-1135.29 1282.36,-1117.95 1263.75,-962.39"/>
<polygon fill="#00876c" stroke="#00876c" stroke-width="2" points="1262.73,-953.86 1268.39,-963.26 1263.53,-956.35 1264.42,-963.73 1263.92,-963.79 1263.42,-963.85 1262.53,-956.47 1259.45,-964.33 1262.73,-953.86"/>
</g>
<!-- 66280&#45;&gt;134 -->
<g id="edge42" class="edge">
<title>66280&#45;&gt;134</title>
<path fill="none" stroke="#00876c" stroke-width="2" d="M1566.96,-1267.94C1513.6,-1141.32 1499.89,-1125.05 1299.5,-958.44"/>
<polygon fill="#00876c" stroke="#00876c" stroke-width="2" points="1292.93,-952.98 1303.5,-955.91 1295.22,-954.24 1300.94,-958.99 1300.62,-959.38 1300.3,-959.76 1294.58,-955.01 1297.75,-962.84 1292.93,-952.98"/>
</g>
<!-- 66281&#45;&gt;134 -->
<g id="edge43" class="edge">
<title>66281&#45;&gt;134</title>
<path fill="none" stroke="#00876c" stroke-width="2" d="M1536.04,-826.67C1490.55,-836.77 1441.46,-854.64 1326.81,-898.86"/>
<polygon fill="#00876c" stroke="#00876c" stroke-width="2" points="1318.89,-901.92 1326.6,-894.12 1321.1,-900.53 1328.04,-897.85 1328.22,-898.32 1328.4,-898.78 1321.46,-901.46 1329.84,-902.51 1318.89,-901.92"/>
</g>
</g>
</svg>
