<?xml version="1.0" encoding="UTF-8" standalone="no"?>
<!DOCTYPE svg PUBLIC "-//W3C//DTD SVG 1.1//EN"
 "http://www.w3.org/Graphics/SVG/1.1/DTD/svg11.dtd">
<!-- Generated by graphviz version 10.0.1 (0)
 -->
<!-- Pages: 1 -->
<svg width="1719pt" height="1015pt"
 viewBox="0.00 0.00 1719.00 1015.00" xmlns="http://www.w3.org/2000/svg" xmlns:xlink="http://www.w3.org/1999/xlink">
<g id="graph0" class="graph" transform="scale(1 1) rotate(0) translate(4 1011)">
<polygon fill="white" stroke="none" points="-4,4 -4,-1011 1715,-1011 1715,4 -4,4"/>
<!-- 127 -->
<g id="node1" class="node">
<title>127</title>
<ellipse fill="none" stroke="#78ab63" cx="284.99" cy="-720.5" rx="155.03" ry="28.99"/>
<text text-anchor="middle" x="284.99" y="-723.7" font-family="Times,serif" font-size="14.00" fill="gray">SPDXLicense</text>
<text text-anchor="middle" x="284.99" y="-707.2" font-family="Times,serif" font-size="14.00" fill="gray">12e2f65139a7f64784cb529b2cdf97cf</text>
</g>
<!-- 128 -->
<g id="node2" class="node">
<title>128</title>
<polygon fill="none" stroke="black" points="704.15,-485.31 704.15,-500.23 652.44,-510.77 579.32,-510.77 527.61,-500.23 527.61,-485.31 579.32,-474.77 652.44,-474.77 704.15,-485.31"/>
<polygon fill="none" stroke="black" points="708.15,-482.05 708.15,-503.49 652.85,-514.77 578.92,-514.77 523.61,-503.49 523.61,-482.05 578.92,-470.77 652.85,-470.77 708.15,-482.05"/>
<polygon fill="none" stroke="black" points="712.15,-478.78 712.15,-506.76 653.25,-518.77 578.51,-518.77 519.61,-506.76 519.61,-478.78 578.51,-466.77 653.25,-466.77 712.15,-478.78"/>
<text text-anchor="middle" x="615.88" y="-487.72" font-family="Times,serif" font-size="14.00">spdx:AML&#45;glslang</text>
</g>
<!-- 127&#45;&gt;128 -->
<g id="edge1" class="edge">
<title>127&#45;&gt;128</title>
<path fill="none" stroke="#78ab63" d="M311.87,-691.83C369.78,-630.97 395.27,-614.27 560.59,-523.18"/>
<polygon fill="#78ab63" stroke="#78ab63" points="562.24,-526.27 569.31,-518.38 558.86,-520.13 562.24,-526.27"/>
</g>
<!-- 5317 -->
<g id="node6" class="node">
<title>5317</title>
<polygon fill="none" stroke="#e09d4b" points="646.03,-242.85 646.03,-257.76 589.13,-268.31 508.66,-268.31 451.77,-257.76 451.77,-242.85 508.66,-232.31 589.13,-232.31 646.03,-242.85"/>
<polygon fill="none" stroke="#e09d4b" points="650.03,-239.52 650.03,-261.09 589.5,-272.31 508.3,-272.31 447.77,-261.09 447.77,-239.52 508.3,-228.31 589.5,-228.31 650.03,-239.52"/>
<text text-anchor="middle" x="548.9" y="-245.26" font-family="Times,serif" font-size="14.00">Fedora:AML&#45;glslang</text>
</g>
<!-- 128&#45;&gt;5317 -->
<g id="edge2" class="edge">
<title>128&#45;&gt;5317</title>
<path fill="none" stroke="#e09d4b" stroke-width="2" d="M601.41,-466.45C545.76,-364.95 538.84,-346.78 545.15,-283.46"/>
<polygon fill="#e09d4b" stroke="#e09d4b" stroke-width="2" points="546.06,-274.87 549.48,-285.29 546.29,-277.47 545.5,-284.87 545,-284.81 544.51,-284.76 545.29,-277.36 540.53,-284.34 546.06,-274.87"/>
</g>
<!-- 45305 -->
<g id="node14" class="node">
<title>45305</title>
<polygon fill="none" stroke="#d43d51" points="1314.96,-498.23 1314.96,-513.15 1199.65,-523.69 1036.58,-523.69 921.27,-513.15 921.27,-498.23 1036.58,-487.69 1199.65,-487.69 1314.96,-498.23"/>
<polygon fill="none" stroke="#d43d51" points="1318.96,-494.58 1318.96,-516.8 1199.83,-527.69 1036.39,-527.69 917.27,-516.8 917.27,-494.58 1036.39,-483.69 1199.83,-483.69 1318.96,-494.58"/>
<text text-anchor="middle" x="1118.11" y="-500.64" font-family="Times,serif" font-size="14.00">metaeffekt:NVIDIA 2002 Proprietary License</text>
</g>
<!-- 128&#45;&gt;45305 -->
<g id="edge3" class="edge">
<title>128&#45;&gt;45305</title>
<path fill="none" stroke="#d43d51" stroke-width="2" d="M712.57,-484.84C890.67,-470.51 949.41,-468.32 1019.16,-481.63"/>
<polygon fill="#d43d51" stroke="#d43d51" stroke-width="2" points="1027.62,-483.32 1016.93,-485.77 1025.01,-483.31 1017.72,-481.85 1017.81,-481.36 1017.91,-480.87 1025.2,-482.33 1018.7,-476.95 1027.62,-483.32"/>
</g>
<!-- 129 -->
<g id="node3" class="node">
<title>129</title>
<polygon fill="none" stroke="black" points="859.08,-310.64 859.08,-325.55 820.03,-336.09 764.81,-336.09 725.76,-325.55 725.76,-310.64 764.81,-300.09 820.03,-300.09 859.08,-310.64"/>
<polygon fill="none" stroke="black" points="863.08,-307.57 863.08,-328.61 820.56,-340.09 764.28,-340.09 721.76,-328.61 721.76,-307.57 764.28,-296.09 820.56,-296.09 863.08,-307.57"/>
<text text-anchor="middle" x="792.42" y="-313.04" font-family="Times,serif" font-size="14.00">AML&#45;glslang</text>
</g>
<!-- 129&#45;&gt;128 -->
<g id="edge4" class="edge">
<title>129&#45;&gt;128</title>
<path fill="none" stroke="black" stroke-width="2" d="M751.8,-337.1C673.92,-374.22 659.84,-388.08 630.8,-456.59"/>
<polygon fill="black" stroke="black" stroke-width="2" points="627.53,-464.38 627.25,-453.42 628.06,-461.82 630.94,-454.97 631.4,-455.16 631.86,-455.35 628.98,-462.21 635.55,-456.9 627.53,-464.38"/>
</g>
<!-- 129&#45;&gt;5317 -->
<g id="edge5" class="edge">
<title>129&#45;&gt;5317</title>
<path fill="none" stroke="#e09d4b" stroke-width="2" d="M751.76,-299.02C710.24,-279.65 682.75,-267.35 660.74,-259.76"/>
<polygon fill="#e09d4b" stroke="#e09d4b" stroke-width="2" points="652.65,-257.14 663.55,-255.94 655.24,-257.46 662.32,-259.74 662.17,-260.22 662.01,-260.69 654.94,-258.41 660.78,-264.5 652.65,-257.14"/>
</g>
<!-- 35860 -->
<g id="node12" class="node">
<title>35860</title>
<polygon fill="none" stroke="#379469" points="943.66,-92.46 943.66,-107.37 891.63,-117.92 818.05,-117.92 766.02,-107.37 766.02,-92.46 818.05,-81.92 891.63,-81.92 943.66,-92.46"/>
<polygon fill="none" stroke="#379469" points="947.66,-89.19 947.66,-110.64 892.03,-121.92 817.65,-121.92 762.02,-110.64 762.02,-89.19 817.65,-77.92 892.03,-77.92 947.66,-89.19"/>
<text text-anchor="middle" x="854.84" y="-94.87" font-family="Times,serif" font-size="14.00">cavil:AML&#45;glslang</text>
</g>
<!-- 129&#45;&gt;35860 -->
<g id="edge6" class="edge">
<title>129&#45;&gt;35860</title>
<path fill="none" stroke="#379469" stroke-width="2" d="M796.23,-295.76C814.11,-191.36 818.94,-167.58 837.11,-132.18"/>
<polygon fill="#379469" stroke="#379469" stroke-width="2" points="841.18,-124.5 840.48,-135.45 840.42,-127 836.94,-133.57 836.5,-133.34 836.06,-133.1 839.54,-126.53 832.52,-131.23 841.18,-124.5"/>
</g>
<!-- 129&#45;&gt;45305 -->
<g id="edge7" class="edge">
<title>129&#45;&gt;45305</title>
<path fill="none" stroke="#d43d51" stroke-dasharray="5,2" d="M856.36,-330.84C998.5,-360.01 1019.46,-374.24 1095.09,-474.82"/>
<polygon fill="#d43d51" stroke="#d43d51" points="1100.87,-482.54 1091.27,-477.23 1098.6,-479.51 1094.87,-474.53 1094.87,-474.53 1094.87,-474.53 1098.6,-479.51 1098.48,-471.84 1100.87,-482.54"/>
</g>
<!-- 130 -->
<g id="node4" class="node">
<title>130</title>
<polygon fill="none" stroke="black" points="790.09,-543.56 790.09,-558.47 714.05,-569.01 606.51,-569.01 530.46,-558.47 530.46,-543.56 606.51,-533.01 714.05,-533.01 790.09,-543.56"/>
<polygon fill="none" stroke="black" points="794.09,-540.07 794.09,-561.95 714.32,-573.01 606.23,-573.01 526.46,-561.95 526.46,-540.07 606.23,-529.01 714.32,-529.01 794.09,-540.07"/>
<text text-anchor="middle" x="660.28" y="-545.96" font-family="Times,serif" font-size="14.00">AML glslang variant License</text>
</g>
<!-- 130&#45;&gt;128 -->
<g id="edge8" class="edge">
<title>130&#45;&gt;128</title>
<path fill="none" stroke="#78ab63" stroke-width="2" d="M632.43,-528.69C632.11,-528.38 631.8,-528.07 631.49,-527.76"/>
<polygon fill="#78ab63" stroke="#78ab63" stroke-width="2" points="626.11,-520.97 635.85,-526.01 628.09,-522.67 632.71,-528.5 632.32,-528.81 631.93,-529.12 627.31,-523.29 628.79,-531.6 626.11,-520.97"/>
</g>
<!-- 130&#45;&gt;45305 -->
<g id="edge9" class="edge">
<title>130&#45;&gt;45305</title>
<path fill="none" stroke="#d43d51" stroke-dasharray="5,2" d="M784.73,-563.75C937.82,-578.2 977.19,-573.2 1062.61,-532.93"/>
<polygon fill="#d43d51" stroke="#d43d51" points="1071.6,-528.64 1064.51,-537.01 1068.19,-530.27 1062.58,-532.95 1062.58,-532.95 1062.58,-532.95 1068.19,-530.27 1060.64,-528.89 1071.6,-528.64"/>
</g>
<!-- 5316 -->
<g id="node5" class="node">
<title>5316</title>
<ellipse fill="none" stroke="#e09d4b" cx="156.33" cy="-344.42" rx="156.09" ry="28.99"/>
<text text-anchor="middle" x="156.33" y="-347.62" font-family="Times,serif" font-size="14.00" fill="gray">FedoraEntry</text>
<text text-anchor="middle" x="156.33" y="-331.12" font-family="Times,serif" font-size="14.00" fill="gray">10af7d61c1c5de46532a98c0e7f4c8eb</text>
</g>
<!-- 5316&#45;&gt;5317 -->
<g id="edge10" class="edge">
<title>5316&#45;&gt;5317</title>
<path fill="none" stroke="#e09d4b" d="M200.94,-316.33C267.55,-275.88 301.44,-266.92 436.19,-257.45"/>
<polygon fill="#e09d4b" stroke="#e09d4b" points="436.12,-260.96 445.85,-256.78 435.63,-253.98 436.12,-260.96"/>
</g>
<!-- 18924 -->
<g id="node7" class="node">
<title>18924</title>
<polygon fill="none" stroke="black" points="1200.5,-449.98 1200.5,-464.9 1178.98,-475.44 1148.54,-475.44 1127.01,-464.9 1127.01,-449.98 1148.54,-439.44 1178.98,-439.44 1200.5,-449.98"/>
<text text-anchor="middle" x="1163.76" y="-452.39" font-family="Times,serif" font-size="14.00">nvidia</text>
</g>
<!-- 18924&#45;&gt;45305 -->
<g id="edge11" class="edge">
<title>18924&#45;&gt;45305</title>
<path fill="none" stroke="#d43d51" stroke-dasharray="5,2" d="M1154.82,-475.94C1154.71,-476.1 1154.59,-476.26 1154.48,-476.43"/>
<polygon fill="#d43d51" stroke="#d43d51" points="1148.88,-482.64 1152.23,-472.2 1151.41,-479.83 1155.57,-475.21 1155.57,-475.21 1155.57,-475.21 1151.41,-479.83 1158.92,-478.22 1148.88,-482.64"/>
</g>
<!-- 25244 -->
<g id="node8" class="node">
<title>25244</title>
<polygon fill="none" stroke="black" points="1679.08,-458.44 1679.08,-473.36 1620.88,-483.9 1538.58,-483.9 1480.39,-473.36 1480.39,-458.44 1538.58,-447.9 1620.88,-447.9 1679.08,-458.44"/>
<text text-anchor="middle" x="1579.73" y="-460.85" font-family="Times,serif" font-size="14.00">scancode:nvidia&#45;2002</text>
</g>
<!-- 25244&#45;&gt;45305 -->
<g id="edge12" class="edge">
<title>25244&#45;&gt;45305</title>
<path fill="none" stroke="#d43d51" stroke-dasharray="5,2" d="M1492.78,-476.06C1445.46,-481.24 1402.75,-484.92 1312.16,-491.64"/>
<polygon fill="#d43d51" stroke="#d43d51" points="1302.39,-492.37 1312.03,-487.14 1306.16,-492.09 1312.36,-491.63 1312.36,-491.63 1312.36,-491.63 1306.16,-492.09 1312.69,-496.12 1302.39,-492.37"/>
</g>
<!-- 25245 -->
<g id="node9" class="node">
<title>25245</title>
<polygon fill="none" stroke="black" points="1529.09,-275.25 1529.09,-290.16 1493.94,-300.71 1444.22,-300.71 1409.06,-290.16 1409.06,-275.25 1444.22,-264.71 1493.94,-264.71 1529.09,-275.25"/>
<text text-anchor="middle" x="1469.08" y="-277.66" font-family="Times,serif" font-size="14.00">nvidia&#45;2002</text>
</g>
<!-- 25245&#45;&gt;25244 -->
<g id="edge13" class="edge">
<title>25245&#45;&gt;25244</title>
<path fill="none" stroke="black" stroke-width="2" d="M1490.17,-300.83C1557.54,-359.04 1566.21,-371.48 1575.74,-436.77"/>
<polygon fill="black" stroke="black" stroke-width="2" points="1576.94,-445.3 1571.09,-436.03 1576.09,-442.84 1575.05,-435.47 1575.55,-435.4 1576.04,-435.33 1577.08,-442.7 1580,-434.77 1576.94,-445.3"/>
</g>
<!-- 25245&#45;&gt;45305 -->
<g id="edge14" class="edge">
<title>25245&#45;&gt;45305</title>
<path fill="none" stroke="#d43d51" stroke-dasharray="5,2" d="M1449.88,-301.17C1379.17,-368.8 1358.94,-381.73 1171.62,-478.18"/>
<polygon fill="#d43d51" stroke="#d43d51" points="1162.78,-482.73 1169.62,-474.15 1166.15,-481 1171.68,-478.15 1171.68,-478.15 1171.68,-478.15 1166.15,-481 1173.73,-482.15 1162.78,-482.73"/>
</g>
<!-- 27990 -->
<g id="node10" class="node">
<title>27990</title>
<ellipse fill="none" stroke="#e09d4b" cx="278.28" cy="-209.19" rx="160.34" ry="28.99"/>
<text text-anchor="middle" x="278.28" y="-212.39" font-family="Times,serif" font-size="14.00" fill="gray">OrtLicenseCategorization</text>
<text text-anchor="middle" x="278.28" y="-195.89" font-family="Times,serif" font-size="14.00" fill="gray">79bede81f8d26a413a6b45316188028d</text>
</g>
<!-- 27990&#45;&gt;128 -->
<g id="edge15" class="edge">
<title>27990&#45;&gt;128</title>
<path fill="none" stroke="#e09d4b" d="M300.96,-238.24C361.86,-315.48 385.04,-334.04 568.27,-460.06"/>
<polygon fill="#e09d4b" stroke="#e09d4b" points="566.22,-462.9 576.44,-465.68 570.18,-457.13 566.22,-462.9"/>
</g>
<!-- 35859 -->
<g id="node11" class="node">
<title>35859</title>
<ellipse fill="none" stroke="#379469" cx="861.97" cy="-28.58" rx="160.87" ry="28.99"/>
<text text-anchor="middle" x="861.97" y="-31.78" font-family="Times,serif" font-size="14.00" fill="gray">CavilLicenseChange</text>
<text text-anchor="middle" x="861.97" y="-15.28" font-family="Times,serif" font-size="14.00" fill="gray">824c9d8c47bd699a079a82b43c26d3ed</text>
</g>
<!-- 35859&#45;&gt;35860 -->
<g id="edge16" class="edge">
<title>35859&#45;&gt;35860</title>
<path fill="none" stroke="#379469" d="M858.06,-57.97C857.84,-60.39 857.61,-63.09 857.36,-66.19"/>
<polygon fill="#379469" stroke="#379469" points="853.88,-65.82 856.61,-76.06 860.86,-66.36 853.88,-65.82"/>
</g>
<!-- 45304 -->
<g id="node13" class="node">
<title>45304</title>
<ellipse fill="none" stroke="#d43d51" cx="1553.57" cy="-812.95" rx="157.68" ry="28.99"/>
<text text-anchor="middle" x="1553.57" y="-816.15" font-family="Times,serif" font-size="14.00" fill="gray">MetaeffektLicense</text>
<text text-anchor="middle" x="1553.57" y="-799.65" font-family="Times,serif" font-size="14.00" fill="gray">847b223780d494fa9e730e3c1e5baf40</text>
</g>
<!-- 45304&#45;&gt;45305 -->
<g id="edge17" class="edge">
<title>45304&#45;&gt;45305</title>
<path fill="none" stroke="#d43d51" d="M1525.58,-784C1440.08,-696.21 1412.65,-677.98 1166.2,-533.8"/>
<polygon fill="#d43d51" stroke="#d43d51" points="1168.29,-530.97 1157.89,-528.94 1164.76,-537.01 1168.29,-530.97"/>
</g>
<!-- 45306 -->
<g id="node15" class="node">
<title>45306</title>
<polygon fill="none" stroke="#d43d51" points="1370.6,-553.73 1370.6,-568.64 1282.22,-579.19 1157.24,-579.19 1068.86,-568.64 1068.86,-553.73 1157.24,-543.19 1282.22,-543.19 1370.6,-553.73"/>
<polygon fill="none" stroke="#d43d51" points="1374.6,-550.18 1374.6,-572.2 1282.46,-583.19 1157,-583.19 1064.86,-572.2 1064.86,-550.18 1157,-539.19 1282.46,-539.19 1374.6,-550.18"/>
<text text-anchor="middle" x="1219.73" y="-556.14" font-family="Times,serif" font-size="14.00">NVIDIA 2002 Proprietary License</text>
</g>
<!-- 45306&#45;&gt;45305 -->
<g id="edge18" class="edge">
<title>45306&#45;&gt;45305</title>
<path fill="none" stroke="#d43d51" stroke-width="2" d="M1192.57,-538.82C1189.4,-536.81 1185.93,-534.87 1181.88,-532.81"/>
<polygon fill="#d43d51" stroke="#d43d51" stroke-width="2" points="1174.14,-529.13 1185.1,-529.37 1176.67,-529.78 1183.38,-532.98 1183.17,-533.43 1182.95,-533.88 1176.24,-530.68 1181.23,-537.49 1174.14,-529.13"/>
</g>
<!-- 45307 -->
<g id="node16" class="node">
<title>45307</title>
<polygon fill="none" stroke="#d43d51" points="1381.03,-981.06 1381.03,-995.97 1301.09,-1006.51 1188.04,-1006.51 1108.1,-995.97 1108.1,-981.06 1188.04,-970.51 1301.09,-970.51 1381.03,-981.06"/>
<text text-anchor="middle" x="1244.56" y="-983.46" font-family="Times,serif" font-size="14.00">AML License (glslang variant)</text>
</g>
<!-- 45307&#45;&gt;45305 -->
<g id="edge19" class="edge">
<title>45307&#45;&gt;45305</title>
<path fill="none" stroke="#d43d51" stroke-dasharray="5,2" d="M1246.21,-970.51C1260.54,-812.87 1256.73,-797.58 1133.58,-538.25"/>
<polygon fill="#d43d51" stroke="#d43d51" points="1129.3,-529.22 1137.65,-536.32 1130.92,-532.64 1133.59,-538.26 1133.59,-538.26 1133.59,-538.26 1130.92,-532.64 1129.52,-540.19 1129.3,-529.22"/>
</g>
</g>
</svg>
