<?xml version="1.0" encoding="UTF-8" standalone="no"?>
<!DOCTYPE svg PUBLIC "-//W3C//DTD SVG 1.1//EN"
 "http://www.w3.org/Graphics/SVG/1.1/DTD/svg11.dtd">
<!-- Generated by graphviz version 10.0.1 (0)
 -->
<!-- Pages: 1 -->
<svg width="1770pt" height="1347pt"
 viewBox="0.00 0.00 1770.00 1347.00" xmlns="http://www.w3.org/2000/svg" xmlns:xlink="http://www.w3.org/1999/xlink">
<g id="graph0" class="graph" transform="scale(1 1) rotate(0) translate(4 1343)">
<polygon fill="white" stroke="none" points="-4,4 -4,-1343 1766,-1343 1766,4 -4,4"/>
<!-- 648 -->
<g id="node1" class="node">
<title>648</title>
<ellipse fill="none" stroke="#b8bf62" cx="1145.65" cy="-1286.83" rx="159.28" ry="28.99"/>
<text text-anchor="middle" x="1145.65" y="-1290.03" font-family="Times,serif" font-size="14.00" fill="gray">SPDXLicense</text>
<text text-anchor="middle" x="1145.65" y="-1273.53" font-family="Times,serif" font-size="14.00" fill="gray">4932108ab2777815137cbf874dd5ecac</text>
</g>
<!-- 649 -->
<g id="node2" class="node">
<title>649</title>
<polygon fill="none" stroke="black" points="1096.76,-904.33 1096.76,-919.24 1059.01,-929.79 1005.62,-929.79 967.86,-919.24 967.86,-904.33 1005.62,-893.79 1059.01,-893.79 1096.76,-904.33"/>
<polygon fill="none" stroke="black" points="1100.76,-901.29 1100.76,-922.28 1059.55,-933.79 1005.07,-933.79 963.86,-922.28 963.86,-901.29 1005.07,-889.79 1059.55,-889.79 1100.76,-901.29"/>
<polygon fill="none" stroke="black" points="1104.76,-898.26 1104.76,-925.31 1060.1,-937.79 1004.52,-937.79 959.86,-925.31 959.86,-898.26 1004.52,-885.79 1060.1,-885.79 1104.76,-898.26"/>
<text text-anchor="middle" x="1032.31" y="-906.74" font-family="Times,serif" font-size="14.00">spdx:Bahyph</text>
</g>
<!-- 648&#45;&gt;649 -->
<g id="edge1" class="edge">
<title>648&#45;&gt;649</title>
<path fill="none" stroke="#b8bf62" d="M1139.98,-1257.57C1123.33,-1172.66 1115.72,-1148.96 1045.27,-948.61"/>
<polygon fill="#b8bf62" stroke="#b8bf62" points="1048.66,-947.7 1042.04,-939.43 1042.05,-950.02 1048.66,-947.7"/>
</g>
<!-- 6025 -->
<g id="node6" class="node">
<title>6025</title>
<polygon fill="none" stroke="#e09d4b" points="879.06,-938.55 879.06,-953.46 836.12,-964 775.39,-964 732.44,-953.46 732.44,-938.55 775.39,-928 836.12,-928 879.06,-938.55"/>
<polygon fill="none" stroke="#e09d4b" points="883.06,-935.41 883.06,-956.6 836.6,-968 774.9,-968 728.44,-956.6 728.44,-935.41 774.9,-924 836.6,-924 883.06,-935.41"/>
<text text-anchor="middle" x="805.75" y="-940.95" font-family="Times,serif" font-size="14.00">Fedora:Bahyph</text>
</g>
<!-- 649&#45;&gt;6025 -->
<g id="edge2" class="edge">
<title>649&#45;&gt;6025</title>
<path fill="none" stroke="#e09d4b" stroke-width="2" d="M992.55,-934.79C945.03,-961.44 923.2,-968.2 881.02,-962.01"/>
<polygon fill="#e09d4b" stroke="#e09d4b" stroke-width="2" points="872.55,-960.61 883.15,-957.8 875.16,-960.54 882.5,-961.75 882.42,-962.24 882.34,-962.73 875,-961.52 881.69,-966.68 872.55,-960.61"/>
</g>
<!-- 39868 -->
<g id="node17" class="node">
<title>39868</title>
<polygon fill="none" stroke="#00876c" points="1273.4,-616.74 1273.4,-631.65 1201.57,-642.2 1099.99,-642.2 1028.17,-631.65 1028.17,-616.74 1099.99,-606.2 1201.57,-606.2 1273.4,-616.74"/>
<polygon fill="none" stroke="#00876c" points="1277.4,-613.29 1277.4,-635.11 1201.86,-646.2 1099.7,-646.2 1024.17,-635.11 1024.17,-613.29 1099.7,-602.2 1201.86,-602.2 1277.4,-613.29"/>
<text text-anchor="middle" x="1150.78" y="-619.15" font-family="Times,serif" font-size="14.00">metaeffekt:Bahyph License</text>
</g>
<!-- 649&#45;&gt;39868 -->
<g id="edge3" class="edge">
<title>649&#45;&gt;39868</title>
<path fill="none" stroke="#00876c" stroke-width="2" d="M1058.2,-885.39C1141.11,-800.22 1147.58,-782.94 1150.18,-657.37"/>
<polygon fill="#00876c" stroke="#00876c" stroke-width="2" points="1150.35,-648.95 1154.65,-659.04 1150.79,-651.53 1150.65,-658.96 1150.15,-658.95 1149.65,-658.94 1149.8,-651.51 1145.65,-658.87 1150.35,-648.95"/>
</g>
<!-- 650 -->
<g id="node3" class="node">
<title>650</title>
<polygon fill="none" stroke="black" points="852.23,-690.05 852.23,-704.96 827.14,-715.5 791.65,-715.5 766.55,-704.96 766.55,-690.05 791.65,-679.5 827.14,-679.5 852.23,-690.05"/>
<polygon fill="none" stroke="black" points="856.23,-687.39 856.23,-707.62 827.94,-719.5 790.84,-719.5 762.55,-707.62 762.55,-687.39 790.84,-675.5 827.94,-675.5 856.23,-687.39"/>
<text text-anchor="middle" x="809.39" y="-692.45" font-family="Times,serif" font-size="14.00">Bahyph</text>
</g>
<!-- 650&#45;&gt;649 -->
<g id="edge4" class="edge">
<title>650&#45;&gt;649</title>
<path fill="none" stroke="black" stroke-width="2" d="M826.7,-719.84C911.72,-829.47 934.54,-857 979.93,-883.92"/>
<polygon fill="black" stroke="black" stroke-width="2" points="987.55,-888.29 976.64,-887.22 985.08,-887.45 978.63,-883.75 978.87,-883.32 979.12,-882.88 985.57,-886.58 981.11,-879.41 987.55,-888.29"/>
</g>
<!-- 650&#45;&gt;6025 -->
<g id="edge5" class="edge">
<title>650&#45;&gt;6025</title>
<path fill="none" stroke="#e09d4b" stroke-width="2" d="M806.32,-719.73C789.4,-842.19 787.19,-865.03 797.83,-913.11"/>
<polygon fill="#e09d4b" stroke="#e09d4b" stroke-width="2" points="799.75,-921.43 793.12,-912.7 798.69,-919.04 797.02,-911.8 797.5,-911.68 797.99,-911.57 799.66,-918.82 801.89,-910.67 799.75,-921.43"/>
</g>
<!-- 8753 -->
<g id="node8" class="node">
<title>8753</title>
<polygon fill="none" stroke="#00876c" points="1118.33,-463.24 1118.33,-478.15 1070.85,-488.7 1003.69,-488.7 956.2,-478.15 956.2,-463.24 1003.69,-452.7 1070.85,-452.7 1118.33,-463.24"/>
<polygon fill="none" stroke="#00876c" points="1122.33,-460.03 1122.33,-481.36 1071.29,-492.7 1003.25,-492.7 952.2,-481.36 952.2,-460.03 1003.25,-448.7 1071.29,-448.7 1122.33,-460.03"/>
<text text-anchor="middle" x="1037.27" y="-465.65" font-family="Times,serif" font-size="14.00">BlueOak:Bahyph</text>
</g>
<!-- 650&#45;&gt;8753 -->
<g id="edge6" class="edge">
<title>650&#45;&gt;8753</title>
<path fill="none" stroke="#00876c" stroke-width="2" d="M827.75,-675.47C925.83,-557.84 948.81,-531.52 994.19,-499.49"/>
<polygon fill="#00876c" stroke="#00876c" stroke-width="2" points="1001.26,-494.58 995.61,-503.98 999.44,-496.45 993.33,-500.69 993.04,-500.28 992.76,-499.87 998.87,-495.63 990.48,-496.58 1001.26,-494.58"/>
</g>
<!-- 12231 -->
<g id="node10" class="node">
<title>12231</title>
<polygon fill="none" stroke="black" points="940.19,-417.71 940.19,-432.62 893.02,-443.16 826.33,-443.16 779.16,-432.62 779.16,-417.71 826.33,-407.16 893.02,-407.16 940.19,-417.71"/>
<polygon fill="none" stroke="black" points="944.19,-414.5 944.19,-435.82 893.47,-447.16 825.88,-447.16 775.16,-435.82 775.16,-414.5 825.88,-403.16 893.47,-403.16 944.19,-414.5"/>
<text text-anchor="middle" x="859.68" y="-420.11" font-family="Times,serif" font-size="14.00">scancode:bahyph</text>
</g>
<!-- 650&#45;&gt;12231 -->
<g id="edge7" class="edge">
<title>650&#45;&gt;12231</title>
<path fill="none" stroke="black" stroke-width="2" d="M809.79,-675.16C812.31,-534.83 814.04,-511.49 842.28,-457.25"/>
<polygon fill="black" stroke="black" stroke-width="2" points="846.31,-449.65 845.6,-460.59 845.55,-452.14 842.07,-458.71 841.63,-458.48 841.18,-458.25 844.67,-451.68 837.65,-456.37 846.31,-449.65"/>
</g>
<!-- 27728 -->
<g id="node12" class="node">
<title>27728</title>
<polygon fill="none" stroke="#e18745" points="727.69,-514.34 727.69,-529.25 678.26,-539.8 608.35,-539.8 558.92,-529.25 558.92,-514.34 608.35,-503.8 678.26,-503.8 727.69,-514.34"/>
<polygon fill="none" stroke="#e18745" points="731.69,-511.1 731.69,-532.49 678.68,-543.8 607.93,-543.8 554.92,-532.49 554.92,-511.1 607.93,-499.8 678.68,-499.8 731.69,-511.1"/>
<text text-anchor="middle" x="643.3" y="-516.75" font-family="Times,serif" font-size="14.00">fossology:Bahyph</text>
</g>
<!-- 650&#45;&gt;27728 -->
<g id="edge8" class="edge">
<title>650&#45;&gt;27728</title>
<path fill="none" stroke="#e18745" stroke-width="2" d="M785.18,-677.6C701.04,-608.31 683.35,-592.14 660.97,-553.82"/>
<polygon fill="#e18745" stroke="#e18745" stroke-width="2" points="656.67,-546.25 665.52,-552.72 658.37,-548.23 662.05,-554.7 661.61,-554.94 661.18,-555.19 657.5,-548.73 657.7,-557.17 656.67,-546.25"/>
</g>
<!-- 36419 -->
<g id="node15" class="node">
<title>36419</title>
<polygon fill="none" stroke="#379469" points="590.79,-779.21 590.79,-794.12 552.72,-804.67 498.87,-804.67 460.79,-794.12 460.79,-779.21 498.87,-768.67 552.72,-768.67 590.79,-779.21"/>
<polygon fill="none" stroke="#379469" points="594.79,-776.17 594.79,-797.17 553.26,-808.67 498.33,-808.67 456.79,-797.17 456.79,-776.17 498.33,-764.67 553.26,-764.67 594.79,-776.17"/>
<text text-anchor="middle" x="525.79" y="-781.62" font-family="Times,serif" font-size="14.00">cavil:Bahyph</text>
</g>
<!-- 650&#45;&gt;36419 -->
<g id="edge9" class="edge">
<title>650&#45;&gt;36419</title>
<path fill="none" stroke="#379469" stroke-width="2" d="M768.69,-710.6C663.01,-744.59 625.47,-756.6 588.42,-767.9"/>
<polygon fill="#379469" stroke="#379469" stroke-width="2" points="580.27,-770.38 588.53,-763.17 582.57,-769.15 589.69,-766.99 589.83,-767.47 589.98,-767.95 582.86,-770.11 591.14,-771.78 580.27,-770.38"/>
</g>
<!-- 650&#45;&gt;39868 -->
<g id="edge10" class="edge">
<title>650&#45;&gt;39868</title>
<path fill="none" stroke="#00876c" stroke-dasharray="5,2" d="M856.63,-689.1C981.99,-666.77 1028.92,-658.07 1071.98,-646.98"/>
<polygon fill="#00876c" stroke="#00876c" points="1081.42,-644.49 1072.9,-651.39 1077.76,-645.45 1071.75,-647.04 1071.75,-647.04 1071.75,-647.04 1077.76,-645.45 1070.6,-642.69 1081.42,-644.49"/>
</g>
<!-- 651 -->
<g id="node4" class="node">
<title>651</title>
<polygon fill="none" stroke="black" points="1021.6,-668.74 1021.6,-683.66 976.71,-694.2 913.23,-694.2 868.34,-683.66 868.34,-668.74 913.23,-658.2 976.71,-658.2 1021.6,-668.74"/>
<polygon fill="none" stroke="black" points="1025.6,-665.57 1025.6,-686.83 977.18,-698.2 912.77,-698.2 864.34,-686.83 864.34,-665.57 912.77,-654.2 977.18,-654.2 1025.6,-665.57"/>
<text text-anchor="middle" x="944.97" y="-671.15" font-family="Times,serif" font-size="14.00">Bahyph License</text>
</g>
<!-- 651&#45;&gt;649 -->
<g id="edge11" class="edge">
<title>651&#45;&gt;649</title>
<path fill="none" stroke="#b8bf62" stroke-width="2" d="M955.85,-698.35C1008.93,-806.52 1019.45,-829.74 1026.95,-874.68"/>
<polygon fill="#b8bf62" stroke="#b8bf62" stroke-width="2" points="1028.29,-883.22 1022.29,-874.04 1027.4,-880.77 1026.25,-873.42 1026.74,-873.34 1027.23,-873.26 1028.39,-880.61 1031.19,-872.64 1028.29,-883.22"/>
</g>
<!-- 651&#45;&gt;6025 -->
<g id="edge12" class="edge">
<title>651&#45;&gt;6025</title>
<path fill="none" stroke="#e09d4b" stroke-dasharray="5,2" d="M936.75,-698.5C883.3,-843.52 872.77,-869.22 832.99,-915.46"/>
<polygon fill="#e09d4b" stroke="#e09d4b" points="826.58,-922.8 829.77,-912.31 829.07,-919.95 833.16,-915.27 833.16,-915.27 833.16,-915.27 829.07,-919.95 836.55,-918.23 826.58,-922.8"/>
</g>
<!-- 651&#45;&gt;8753 -->
<g id="edge13" class="edge">
<title>651&#45;&gt;8753</title>
<path fill="none" stroke="#00876c" stroke-width="2" d="M958.45,-653.91C1012.47,-564.51 1023.17,-544.86 1031.38,-504.03"/>
<polygon fill="#00876c" stroke="#00876c" stroke-width="2" points="1032.99,-495.54 1035.55,-506.2 1033,-498.15 1031.62,-505.46 1031.13,-505.36 1030.64,-505.27 1032.02,-497.96 1026.71,-504.53 1032.99,-495.54"/>
</g>
<!-- 651&#45;&gt;12231 -->
<g id="edge14" class="edge">
<title>651&#45;&gt;12231</title>
<path fill="none" stroke="#dac767" stroke-width="2" d="M940.77,-653.78C916.62,-525.14 910.96,-500.85 881.53,-456.56"/>
<polygon fill="#dac767" stroke="#dac767" stroke-width="2" points="876.69,-449.42 886.02,-455.17 878.54,-451.26 882.71,-457.41 882.3,-457.69 881.89,-457.97 877.71,-451.82 878.58,-460.22 876.69,-449.42"/>
</g>
<!-- 651&#45;&gt;27728 -->
<g id="edge15" class="edge">
<title>651&#45;&gt;27728</title>
<path fill="none" stroke="#e18745" stroke-width="2" d="M908.61,-654.77C787.92,-583.71 751.16,-562.78 705.64,-544.55"/>
<polygon fill="#e18745" stroke="#e18745" stroke-width="2" points="697.71,-541.45 708.66,-540.9 700.27,-541.92 707.2,-544.63 707.02,-545.1 706.84,-545.56 699.91,-542.85 705.38,-549.29 697.71,-541.45"/>
</g>
<!-- 651&#45;&gt;39868 -->
<g id="edge16" class="edge">
<title>651&#45;&gt;39868</title>
<path fill="none" stroke="#00876c" stroke-width="2" d="M1011.77,-661.93C1040.56,-655.72 1060.21,-651.33 1075.85,-647.45"/>
<polygon fill="#00876c" stroke="#00876c" stroke-width="2" points="1084.24,-645.31 1075.67,-652.15 1081.88,-646.43 1074.68,-648.27 1074.55,-647.79 1074.43,-647.3 1081.64,-645.46 1073.44,-643.43 1084.24,-645.31"/>
</g>
<!-- 6024 -->
<g id="node5" class="node">
<title>6024</title>
<ellipse fill="none" stroke="#e09d4b" cx="652.55" cy="-1309.7" rx="159.81" ry="28.99"/>
<text text-anchor="middle" x="652.55" y="-1312.9" font-family="Times,serif" font-size="14.00" fill="gray">FedoraEntry</text>
<text text-anchor="middle" x="652.55" y="-1296.4" font-family="Times,serif" font-size="14.00" fill="gray">ebe20842aecbe0bd3a81da17402b1320</text>
</g>
<!-- 6024&#45;&gt;6025 -->
<g id="edge17" class="edge">
<title>6024&#45;&gt;6025</title>
<path fill="none" stroke="#e09d4b" d="M666.63,-1280.57C703.41,-1204.23 713.45,-1179.63 792.72,-978.98"/>
<polygon fill="#e09d4b" stroke="#e09d4b" points="795.95,-980.35 796.37,-969.76 789.44,-977.78 795.95,-980.35"/>
</g>
<!-- 8752 -->
<g id="node7" class="node">
<title>8752</title>
<ellipse fill="none" stroke="#00876c" cx="1275.1" cy="-142.91" rx="159.28" ry="28.99"/>
<text text-anchor="middle" x="1275.1" y="-146.11" font-family="Times,serif" font-size="14.00" fill="gray">BlueOakCouncil</text>
<text text-anchor="middle" x="1275.1" y="-129.61" font-family="Times,serif" font-size="14.00" fill="gray">d7dbeaa997150f8779dc841662dc929a</text>
</g>
<!-- 8752&#45;&gt;8753 -->
<g id="edge18" class="edge">
<title>8752&#45;&gt;8753</title>
<path fill="none" stroke="#00876c" d="M1254.68,-171.9C1205.98,-240.97 1188.95,-264.3 1060.42,-439.2"/>
<polygon fill="#00876c" stroke="#00876c" points="1057.61,-437.11 1054.51,-447.24 1063.25,-441.26 1057.61,-437.11"/>
</g>
<!-- 12230 -->
<g id="node9" class="node">
<title>12230</title>
<ellipse fill="none" stroke="#dac767" cx="795.56" cy="-28.98" rx="156.62" ry="28.99"/>
<text text-anchor="middle" x="795.56" y="-32.18" font-family="Times,serif" font-size="14.00" fill="gray">ScancodeData</text>
<text text-anchor="middle" x="795.56" y="-15.68" font-family="Times,serif" font-size="14.00" fill="gray">dd1bc74b77965a28dadf7b1bf4c935fe</text>
</g>
<!-- 12230&#45;&gt;12231 -->
<g id="edge19" class="edge">
<title>12230&#45;&gt;12231</title>
<path fill="none" stroke="#dac767" d="M801.11,-58.31C817.54,-145.39 821.4,-170.08 854.62,-391.44"/>
<polygon fill="#dac767" stroke="#dac767" points="851.15,-391.96 856.1,-401.33 858.08,-390.92 851.15,-391.96"/>
</g>
<!-- 12231&#45;&gt;39868 -->
<g id="edge20" class="edge">
<title>12231&#45;&gt;39868</title>
<path fill="none" stroke="#00876c" stroke-dasharray="5,2" d="M923.94,-440.86C1041.89,-470.85 1061.1,-487.6 1130.28,-592.8"/>
<polygon fill="#00876c" stroke="#00876c" points="1135.57,-600.87 1126.32,-594.97 1133.49,-597.7 1130.08,-592.5 1130.08,-592.5 1130.08,-592.5 1133.49,-597.7 1133.85,-590.04 1135.57,-600.87"/>
</g>
<!-- 27727 -->
<g id="node11" class="node">
<title>27727</title>
<ellipse fill="none" stroke="#e18745" cx="302.13" cy="-293.38" rx="162.46" ry="28.99"/>
<text text-anchor="middle" x="302.13" y="-296.58" font-family="Times,serif" font-size="14.00" fill="gray">Fossology</text>
<text text-anchor="middle" x="302.13" y="-280.08" font-family="Times,serif" font-size="14.00" fill="gray">09006726a3da495b746dd27b1669671c</text>
</g>
<!-- 27727&#45;&gt;27728 -->
<g id="edge21" class="edge">
<title>27727&#45;&gt;27728</title>
<path fill="none" stroke="#e18745" d="M343.56,-321.88C404.44,-363.68 436.05,-384.7 600.03,-493.17"/>
<polygon fill="#e18745" stroke="#e18745" points="597.94,-495.98 608.21,-498.58 601.8,-490.15 597.94,-495.98"/>
</g>
<!-- 28545 -->
<g id="node13" class="node">
<title>28545</title>
<ellipse fill="none" stroke="#e06f45" cx="1352.86" cy="-1124.77" rx="153.97" ry="28.99"/>
<text text-anchor="middle" x="1352.86" y="-1127.97" font-family="Times,serif" font-size="14.00" fill="gray">OrtLicenseCategorization</text>
<text text-anchor="middle" x="1352.86" y="-1111.47" font-family="Times,serif" font-size="14.00" fill="gray">c5268e6ac41bc4362f912fba5f3b93af</text>
</g>
<!-- 28545&#45;&gt;649 -->
<g id="edge22" class="edge">
<title>28545&#45;&gt;649</title>
<path fill="none" stroke="#e06f45" d="M1294.07,-1097.59C1239.24,-1070.59 1204.54,-1045.08 1073.31,-943.53"/>
<polygon fill="#e06f45" stroke="#e06f45" points="1075.77,-941.01 1065.72,-937.66 1071.48,-946.55 1075.77,-941.01"/>
</g>
<!-- 36418 -->
<g id="node14" class="node">
<title>36418</title>
<ellipse fill="none" stroke="#379469" cx="159.24" cy="-898.86" rx="159.28" ry="28.99"/>
<text text-anchor="middle" x="159.24" y="-902.06" font-family="Times,serif" font-size="14.00" fill="gray">CavilLicenseChange</text>
<text text-anchor="middle" x="159.24" y="-885.56" font-family="Times,serif" font-size="14.00" fill="gray">4e7ed5d115523f99cbae6cb7d208bd7d</text>
</g>
<!-- 36418&#45;&gt;36419 -->
<g id="edge23" class="edge">
<title>36418&#45;&gt;36419</title>
<path fill="none" stroke="#379469" d="M243.33,-873.87C289.06,-860.12 337.28,-845.2 464.06,-805.84"/>
<polygon fill="#379469" stroke="#379469" points="464.98,-809.22 473.49,-802.91 462.91,-802.53 464.98,-809.22"/>
</g>
<!-- 39867 -->
<g id="node16" class="node">
<title>39867</title>
<ellipse fill="none" stroke="#00876c" cx="1599.13" cy="-554.23" rx="162.99" ry="28.99"/>
<text text-anchor="middle" x="1599.13" y="-557.43" font-family="Times,serif" font-size="14.00" fill="gray">MetaeffektLicense</text>
<text text-anchor="middle" x="1599.13" y="-540.93" font-family="Times,serif" font-size="14.00" fill="gray">99d4ddb9481e319439d425ba5153d080</text>
</g>
<!-- 39867&#45;&gt;39868 -->
<g id="edge24" class="edge">
<title>39867&#45;&gt;39868</title>
<path fill="none" stroke="#00876c" d="M1474.57,-573.25C1428.24,-580.43 1372.34,-589.22 1260,-606.95"/>
<polygon fill="#00876c" stroke="#00876c" points="1259.78,-603.45 1250.45,-608.46 1260.87,-610.36 1259.78,-603.45"/>
</g>
</g>
</svg>
