<?xml version="1.0" encoding="UTF-8" standalone="no"?>
<!DOCTYPE svg PUBLIC "-//W3C//DTD SVG 1.1//EN"
 "http://www.w3.org/Graphics/SVG/1.1/DTD/svg11.dtd">
<!-- Generated by graphviz version 10.0.1 (0)
 -->
<!-- Pages: 1 -->
<svg width="1366pt" height="929pt"
 viewBox="0.00 0.00 1366.00 929.00" xmlns="http://www.w3.org/2000/svg" xmlns:xlink="http://www.w3.org/1999/xlink">
<g id="graph0" class="graph" transform="scale(1 1) rotate(0) translate(4 925)">
<polygon fill="white" stroke="none" points="-4,4 -4,-925 1362,-925 1362,4 -4,4"/>
<!-- 655 -->
<g id="node1" class="node">
<title>655</title>
<ellipse fill="none" stroke="#b8bf62" cx="287.4" cy="-891.63" rx="157.68" ry="28.99"/>
<text text-anchor="middle" x="287.4" y="-894.83" font-family="Times,serif" font-size="14.00" fill="gray">SPDXLicense</text>
<text text-anchor="middle" x="287.4" y="-878.33" font-family="Times,serif" font-size="14.00" fill="gray">614065e3df4a73632c23be16af289a32</text>
</g>
<!-- 656 -->
<g id="node2" class="node">
<title>656</title>
<polygon fill="none" stroke="black" points="559.59,-613.65 559.59,-628.56 529.63,-639.1 487.25,-639.1 457.29,-628.56 457.29,-613.65 487.25,-603.1 529.63,-603.1 559.59,-613.65"/>
<polygon fill="none" stroke="black" points="563.59,-610.81 563.59,-631.39 530.31,-643.1 486.57,-643.1 453.29,-631.39 453.29,-610.81 486.57,-599.1 530.31,-599.1 563.59,-610.81"/>
<polygon fill="none" stroke="black" points="567.59,-607.98 567.59,-634.22 530.99,-647.1 485.89,-647.1 449.29,-634.22 449.29,-607.98 485.89,-595.1 530.99,-595.1 567.59,-607.98"/>
<text text-anchor="middle" x="508.44" y="-616.05" font-family="Times,serif" font-size="14.00">spdx:Barr</text>
</g>
<!-- 655&#45;&gt;656 -->
<g id="edge1" class="edge">
<title>655&#45;&gt;656</title>
<path fill="none" stroke="#b8bf62" d="M308.89,-862.55C349.08,-808.44 367.35,-786.49 478.62,-656.05"/>
<polygon fill="#b8bf62" stroke="#b8bf62" points="481.28,-658.33 485.11,-648.45 475.95,-653.78 481.28,-658.33"/>
</g>
<!-- 6027 -->
<g id="node6" class="node">
<title>6027</title>
<polygon fill="none" stroke="#e09d4b" points="518.32,-438.72 518.32,-453.63 483.17,-464.18 433.45,-464.18 398.3,-453.63 398.3,-438.72 433.45,-428.18 483.17,-428.18 518.32,-438.72"/>
<polygon fill="none" stroke="#e09d4b" points="522.32,-435.74 522.32,-456.61 483.75,-468.18 432.86,-468.18 394.3,-456.61 394.3,-435.74 432.86,-424.18 483.75,-424.18 522.32,-435.74"/>
<text text-anchor="middle" x="458.31" y="-441.13" font-family="Times,serif" font-size="14.00">Fedora:Barr</text>
</g>
<!-- 656&#45;&gt;6027 -->
<g id="edge2" class="edge">
<title>656&#45;&gt;6027</title>
<path fill="none" stroke="#e09d4b" stroke-width="2" d="M487.88,-594.88C454.95,-551.82 451,-537.18 455.46,-479.22"/>
<polygon fill="#e09d4b" stroke="#e09d4b" stroke-width="2" points="456.15,-470.72 459.83,-481.05 456.44,-473.31 455.84,-480.73 455.34,-480.69 454.84,-480.65 455.45,-473.23 450.86,-480.32 456.15,-470.72"/>
</g>
<!-- 39859 -->
<g id="node16" class="node">
<title>39859</title>
<polygon fill="none" stroke="#00876c" points="813.31,-692.8 813.31,-707.71 749.27,-718.26 658.71,-718.26 594.67,-707.71 594.67,-692.8 658.71,-682.26 749.27,-682.26 813.31,-692.8"/>
<polygon fill="none" stroke="#00876c" points="817.31,-689.4 817.31,-711.11 749.6,-722.26 658.38,-722.26 590.67,-711.11 590.67,-689.4 658.38,-678.26 749.6,-678.26 817.31,-689.4"/>
<text text-anchor="middle" x="703.99" y="-695.21" font-family="Times,serif" font-size="14.00">metaeffekt:Barr License</text>
</g>
<!-- 656&#45;&gt;39859 -->
<g id="edge3" class="edge">
<title>656&#45;&gt;39859</title>
<path fill="none" stroke="#00876c" stroke-width="2" d="M535.01,-646.18C554.1,-663.88 568.2,-675.8 581.99,-683.81"/>
<polygon fill="#00876c" stroke="#00876c" stroke-width="2" points="589.38,-687.64 578.44,-687.04 586.88,-686.91 580.28,-683.49 580.51,-683.04 580.74,-682.6 587.34,-686.02 582.58,-679.05 589.38,-687.64"/>
</g>
<!-- 657 -->
<g id="node3" class="node">
<title>657</title>
<polygon fill="none" stroke="black" points="704.32,-478.44 704.32,-493.36 687.02,-503.9 662.54,-503.9 645.23,-493.36 645.23,-478.44 662.54,-467.9 687.02,-467.9 704.32,-478.44"/>
<polygon fill="none" stroke="black" points="708.32,-476.2 708.32,-495.6 688.14,-507.9 661.42,-507.9 641.23,-495.6 641.23,-476.2 661.42,-463.9 688.14,-463.9 708.32,-476.2"/>
<text text-anchor="middle" x="674.78" y="-480.85" font-family="Times,serif" font-size="14.00">Barr</text>
</g>
<!-- 657&#45;&gt;656 -->
<g id="edge4" class="edge">
<title>657&#45;&gt;656</title>
<path fill="none" stroke="black" stroke-width="2" d="M654.38,-503.82C594.83,-556.1 572.33,-575.58 550.36,-591.94"/>
<polygon fill="black" stroke="black" stroke-width="2" points="543.52,-596.93 548.95,-587.4 545.3,-595.01 551.3,-590.63 551.6,-591.04 551.89,-591.44 545.88,-595.82 554.25,-594.67 543.52,-596.93"/>
</g>
<!-- 657&#45;&gt;6027 -->
<g id="edge5" class="edge">
<title>657&#45;&gt;6027</title>
<path fill="none" stroke="#e09d4b" stroke-width="2" d="M641.03,-481.97C573.08,-474.02 542.43,-470.08 517.59,-464.39"/>
<polygon fill="#e09d4b" stroke="#e09d4b" stroke-width="2" points="509.21,-462.31 520,-460.35 511.82,-462.44 519.04,-464.23 518.92,-464.71 518.8,-465.2 511.58,-463.41 517.83,-469.08 509.21,-462.31"/>
</g>
<!-- 8756 -->
<g id="node8" class="node">
<title>8756</title>
<polygon fill="none" stroke="#00876c" points="849.46,-300.12 849.46,-315.03 809.76,-325.57 753.62,-325.57 713.92,-315.03 713.92,-300.12 753.62,-289.57 809.76,-289.57 849.46,-300.12"/>
<polygon fill="none" stroke="#00876c" points="853.46,-297.04 853.46,-318.11 810.29,-329.57 753.1,-329.57 709.92,-318.11 709.92,-297.04 753.1,-285.57 810.29,-285.57 853.46,-297.04"/>
<text text-anchor="middle" x="781.69" y="-302.52" font-family="Times,serif" font-size="14.00">BlueOak:Barr</text>
</g>
<!-- 657&#45;&gt;8756 -->
<g id="edge6" class="edge">
<title>657&#45;&gt;8756</title>
<path fill="none" stroke="#00876c" stroke-width="2" d="M688.87,-464.08C737.84,-388.26 750.8,-367.75 765.5,-339.61"/>
<polygon fill="#00876c" stroke="#00876c" stroke-width="2" points="769.49,-331.86 768.92,-342.81 768.76,-334.36 765.36,-340.98 764.92,-340.75 764.47,-340.52 767.87,-333.91 760.92,-338.69 769.49,-331.86"/>
</g>
<!-- 27731 -->
<g id="node11" class="node">
<title>27731</title>
<polygon fill="none" stroke="#e18745" points="669.05,-297.2 669.05,-312.11 627.4,-322.66 568.5,-322.66 526.86,-312.11 526.86,-297.2 568.5,-286.66 627.4,-286.66 669.05,-297.2"/>
<polygon fill="none" stroke="#e18745" points="673.05,-294.09 673.05,-315.23 627.9,-326.66 568.01,-326.66 522.86,-315.23 522.86,-294.09 568.01,-282.66 627.9,-282.66 673.05,-294.09"/>
<text text-anchor="middle" x="597.95" y="-299.61" font-family="Times,serif" font-size="14.00">fossology:Barr</text>
</g>
<!-- 657&#45;&gt;27731 -->
<g id="edge7" class="edge">
<title>657&#45;&gt;27731</title>
<path fill="none" stroke="#e18745" stroke-width="2" d="M663.91,-463.5C626.81,-386.96 617.13,-366.2 607.83,-337.43"/>
<polygon fill="#e18745" stroke="#e18745" stroke-width="2" points="605.24,-329.14 612.52,-337.34 606.48,-331.44 608.7,-338.54 608.22,-338.69 607.74,-338.84 605.52,-331.74 603.93,-340.03 605.24,-329.14"/>
</g>
<!-- 36421 -->
<g id="node14" class="node">
<title>36421</title>
<polygon fill="none" stroke="#379469" points="930.88,-485.52 930.88,-500.43 900.6,-510.97 857.76,-510.97 827.47,-500.43 827.47,-485.52 857.76,-474.97 900.6,-474.97 930.88,-485.52"/>
<polygon fill="none" stroke="#379469" points="934.88,-482.68 934.88,-503.27 901.27,-514.97 857.09,-514.97 823.47,-503.27 823.47,-482.68 857.09,-470.97 901.27,-470.97 934.88,-482.68"/>
<text text-anchor="middle" x="879.18" y="-487.92" font-family="Times,serif" font-size="14.00">cavil:Barr</text>
</g>
<!-- 657&#45;&gt;36421 -->
<g id="edge8" class="edge">
<title>657&#45;&gt;36421</title>
<path fill="none" stroke="#379469" stroke-width="2" d="M708.58,-489.51C762.16,-495.18 790.41,-497.89 812.28,-498.28"/>
<polygon fill="#379469" stroke="#379469" stroke-width="2" points="820.8,-498.28 810.8,-502.78 818.24,-498.78 810.8,-498.78 810.8,-498.28 810.8,-497.78 818.24,-497.78 810.8,-493.78 820.8,-498.28"/>
</g>
<!-- 657&#45;&gt;39859 -->
<g id="edge9" class="edge">
<title>657&#45;&gt;39859</title>
<path fill="none" stroke="#00876c" stroke-dasharray="5,2" d="M677.43,-508.06C689.47,-608.66 692.41,-632.33 698.25,-667.11"/>
<polygon fill="#00876c" stroke="#00876c" points="699.87,-676.63 693.76,-667.52 699.24,-672.9 698.19,-666.77 698.19,-666.77 698.19,-666.77 699.24,-672.9 702.63,-666.01 699.87,-676.63"/>
</g>
<!-- 658 -->
<g id="node4" class="node">
<title>658</title>
<polygon fill="none" stroke="black" points="664.37,-424.96 664.37,-439.87 627.27,-450.42 574.8,-450.42 537.7,-439.87 537.7,-424.96 574.8,-414.42 627.27,-414.42 664.37,-424.96"/>
<polygon fill="none" stroke="black" points="668.37,-421.94 668.37,-442.89 627.83,-454.42 574.24,-454.42 533.7,-442.89 533.7,-421.94 574.24,-410.42 627.83,-410.42 668.37,-421.94"/>
<text text-anchor="middle" x="601.04" y="-427.37" font-family="Times,serif" font-size="14.00">Barr License</text>
</g>
<!-- 658&#45;&gt;656 -->
<g id="edge10" class="edge">
<title>658&#45;&gt;656</title>
<path fill="none" stroke="#b8bf62" stroke-width="2" d="M584.65,-454.86C532,-527.14 520.32,-545.67 513.59,-583.86"/>
<polygon fill="#b8bf62" stroke="#b8bf62" stroke-width="2" points="512.26,-592.22 509.39,-581.64 512.17,-589.61 513.34,-582.26 513.83,-582.34 514.32,-582.42 513.16,-589.77 518.27,-583.05 512.26,-592.22"/>
</g>
<!-- 658&#45;&gt;6027 -->
<g id="edge11" class="edge">
<title>658&#45;&gt;6027</title>
<path fill="none" stroke="#e09d4b" stroke-dasharray="5,2" d="M533.29,-434.63C533.16,-434.64 533.04,-434.64 532.91,-434.65"/>
<polygon fill="#e09d4b" stroke="#e09d4b" points="523.22,-435.16 532.97,-430.14 527,-434.96 533.21,-434.63 533.21,-434.63 533.21,-434.63 527,-434.96 533.45,-439.13 523.22,-435.16"/>
</g>
<!-- 658&#45;&gt;8756 -->
<g id="edge12" class="edge">
<title>658&#45;&gt;8756</title>
<path fill="none" stroke="#00876c" stroke-width="2" d="M621.44,-410C667.93,-359.08 688.32,-338.67 714.74,-326.55"/>
<polygon fill="#00876c" stroke="#00876c" stroke-width="2" points="722.56,-323.35 715.01,-331.31 720.38,-324.78 713.5,-327.61 713.31,-327.14 713.12,-326.68 720,-323.86 711.6,-322.98 722.56,-323.35"/>
</g>
<!-- 658&#45;&gt;27731 -->
<g id="edge13" class="edge">
<title>658&#45;&gt;27731</title>
<path fill="none" stroke="#e18745" stroke-width="2" d="M596.21,-410.3C587.66,-370.7 585.16,-354.96 588.13,-338.05"/>
<polygon fill="#e18745" stroke="#e18745" stroke-width="2" points="590.12,-329.52 592.23,-340.28 590.02,-332.13 588.33,-339.37 587.84,-339.26 587.36,-339.15 589.05,-331.9 583.46,-338.24 590.12,-329.52"/>
</g>
<!-- 658&#45;&gt;39859 -->
<g id="edge14" class="edge">
<title>658&#45;&gt;39859</title>
<path fill="none" stroke="#00876c" stroke-width="2" d="M605.47,-454.81C633.5,-595.98 639.71,-620.24 678.63,-669.43"/>
<polygon fill="#00876c" stroke="#00876c" stroke-width="2" points="683.92,-676.01 674.14,-671.04 681.92,-674.32 677.26,-668.53 677.65,-668.22 678.04,-667.9 682.7,-673.7 681.16,-665.4 683.92,-676.01"/>
</g>
<!-- 6026 -->
<g id="node5" class="node">
<title>6026</title>
<ellipse fill="none" stroke="#e09d4b" cx="156.68" cy="-328.16" rx="156.62" ry="28.99"/>
<text text-anchor="middle" x="156.68" y="-331.36" font-family="Times,serif" font-size="14.00" fill="gray">FedoraEntry</text>
<text text-anchor="middle" x="156.68" y="-314.86" font-family="Times,serif" font-size="14.00" fill="gray">4abd301b2ae639f8c9e8c5cef998465d</text>
</g>
<!-- 6026&#45;&gt;6027 -->
<g id="edge15" class="edge">
<title>6026&#45;&gt;6027</title>
<path fill="none" stroke="#e09d4b" d="M209.75,-355.78C250.71,-375.9 286.09,-388.56 400.51,-426.87"/>
<polygon fill="#e09d4b" stroke="#e09d4b" points="399.06,-430.07 409.65,-429.93 401.28,-423.43 399.06,-430.07"/>
</g>
<!-- 8755 -->
<g id="node7" class="node">
<title>8755</title>
<ellipse fill="none" stroke="#00876c" cx="971.22" cy="-28.5" rx="160.87" ry="28.99"/>
<text text-anchor="middle" x="971.22" y="-31.7" font-family="Times,serif" font-size="14.00" fill="gray">BlueOakCouncil</text>
<text text-anchor="middle" x="971.22" y="-15.2" font-family="Times,serif" font-size="14.00" fill="gray">2c9771a77615407418c6a4e954d76e65</text>
</g>
<!-- 8755&#45;&gt;8756 -->
<g id="edge16" class="edge">
<title>8755&#45;&gt;8756</title>
<path fill="none" stroke="#00876c" d="M951.34,-57.65C914.56,-111.63 898.98,-134.59 803.35,-275.63"/>
<polygon fill="#00876c" stroke="#00876c" points="800.5,-273.6 797.78,-283.84 806.29,-277.53 800.5,-273.6"/>
</g>
<!-- 12250 -->
<g id="node9" class="node">
<title>12250</title>
<polygon fill="none" stroke="black" points="623.4,-891.28 623.4,-906.19 574.94,-916.74 506.41,-916.74 457.95,-906.19 457.95,-891.28 506.41,-880.74 574.94,-880.74 623.4,-891.28"/>
<text text-anchor="middle" x="540.67" y="-893.69" font-family="Times,serif" font-size="14.00">scancode:barr&#45;tex</text>
</g>
<!-- 12250&#45;&gt;39859 -->
<g id="edge17" class="edge">
<title>12250&#45;&gt;39859</title>
<path fill="none" stroke="#00876c" stroke-dasharray="5,2" d="M567.99,-880.36C611.49,-850.08 624.48,-832.16 685.04,-731.74"/>
<polygon fill="#00876c" stroke="#00876c" points="690.03,-723.47 688.72,-734.35 688.08,-726.71 684.87,-732.03 684.87,-732.03 684.87,-732.03 688.08,-726.71 681.01,-729.71 690.03,-723.47"/>
</g>
<!-- 27730 -->
<g id="node10" class="node">
<title>27730</title>
<ellipse fill="none" stroke="#e18745" cx="555.86" cy="-243.9" rx="157.15" ry="28.99"/>
<text text-anchor="middle" x="555.86" y="-247.1" font-family="Times,serif" font-size="14.00" fill="gray">Fossology</text>
<text text-anchor="middle" x="555.86" y="-230.6" font-family="Times,serif" font-size="14.00" fill="gray">1023e57ed593b80f05f90e80c70721f7</text>
</g>
<!-- 27730&#45;&gt;27731 -->
<g id="edge18" class="edge">
<title>27730&#45;&gt;27731</title>
<path fill="none" stroke="#e18745" d="M577.19,-272.86C577.25,-272.94 577.3,-273.03 577.36,-273.12"/>
<polygon fill="#e18745" stroke="#e18745" points="574.33,-274.87 582.75,-281.3 580.17,-271.03 574.33,-274.87"/>
</g>
<!-- 28546 -->
<g id="node12" class="node">
<title>28546</title>
<ellipse fill="none" stroke="#e06f45" cx="331.28" cy="-705.95" rx="153.97" ry="28.99"/>
<text text-anchor="middle" x="331.28" y="-709.15" font-family="Times,serif" font-size="14.00" fill="gray">OrtLicenseCategorization</text>
<text text-anchor="middle" x="331.28" y="-692.65" font-family="Times,serif" font-size="14.00" fill="gray">1c50db8ab8f1b601e93d2aff80d8f15f</text>
</g>
<!-- 28546&#45;&gt;656 -->
<g id="edge19" class="edge">
<title>28546&#45;&gt;656</title>
<path fill="none" stroke="#e06f45" d="M400.91,-679.64C415.43,-672.5 433.51,-662.73 460.59,-647.74"/>
<polygon fill="#e06f45" stroke="#e06f45" points="462.18,-650.86 469.23,-642.95 458.78,-644.74 462.18,-650.86"/>
</g>
<!-- 36420 -->
<g id="node13" class="node">
<title>36420</title>
<ellipse fill="none" stroke="#379469" cx="1199.49" cy="-505.5" rx="158.75" ry="28.99"/>
<text text-anchor="middle" x="1199.49" y="-508.7" font-family="Times,serif" font-size="14.00" fill="gray">CavilLicenseChange</text>
<text text-anchor="middle" x="1199.49" y="-492.2" font-family="Times,serif" font-size="14.00" fill="gray">3ea50e20112c7772694973341f9f678b</text>
</g>
<!-- 36420&#45;&gt;36421 -->
<g id="edge20" class="edge">
<title>36420&#45;&gt;36421</title>
<path fill="none" stroke="#379469" d="M1041.49,-502.24C1016.95,-500.97 986.57,-499.24 946.73,-496.92"/>
<polygon fill="#379469" stroke="#379469" points="946.94,-493.43 936.75,-496.34 946.53,-500.42 946.94,-493.43"/>
</g>
<!-- 39858 -->
<g id="node15" class="node">
<title>39858</title>
<ellipse fill="none" stroke="#00876c" cx="763.03" cy="-760.35" rx="155.03" ry="28.99"/>
<text text-anchor="middle" x="763.03" y="-763.55" font-family="Times,serif" font-size="14.00" fill="gray">MetaeffektLicense</text>
<text text-anchor="middle" x="763.03" y="-747.05" font-family="Times,serif" font-size="14.00" fill="gray">9635a9313ee6ee14e8aea6fc5ec2eda0</text>
</g>
<!-- 39858&#45;&gt;39859 -->
<g id="edge21" class="edge">
<title>39858&#45;&gt;39859</title>
<path fill="none" stroke="#00876c" d="M726.75,-731.82C726.69,-731.74 726.62,-731.65 726.56,-731.57"/>
<polygon fill="#00876c" stroke="#00876c" points="729.44,-729.58 720.66,-723.65 723.82,-733.76 729.44,-729.58"/>
</g>
</g>
</svg>
