<?xml version="1.0" encoding="UTF-8" standalone="no"?>
<!DOCTYPE svg PUBLIC "-//W3C//DTD SVG 1.1//EN"
 "http://www.w3.org/Graphics/SVG/1.1/DTD/svg11.dtd">
<!-- Generated by graphviz version 10.0.1 (0)
 -->
<!-- Pages: 1 -->
<svg width="3940pt" height="2948pt"
 viewBox="0.00 0.00 3940.00 2947.66" xmlns="http://www.w3.org/2000/svg" xmlns:xlink="http://www.w3.org/1999/xlink">
<g id="graph0" class="graph" transform="scale(1 1) rotate(0) translate(4 2943.66)">
<polygon fill="white" stroke="none" points="-4,4 -4,-2943.66 3936,-2943.66 3936,4 -4,4"/>
<!-- 5 -->
<g id="node1" class="node">
<title>5</title>
<text text-anchor="start" x="525.4" y="-1225.52" font-family="Times,serif" font-size="14.00">OSI: </text>
<text text-anchor="start" x="554.65" y="-1225.52" font-family="Times,serif" font-weight="bold" font-size="14.00" fill="#8b0000">Rejected</text>
</g>
<!-- 797 -->
<g id="node2" class="node">
<title>797</title>
<ellipse fill="none" stroke="#dac767" cx="837.84" cy="-1343.28" rx="155.03" ry="28.99"/>
<text text-anchor="middle" x="837.84" y="-1346.48" font-family="Times,serif" font-size="14.00" fill="gray">SPDXLicense</text>
<text text-anchor="middle" x="837.84" y="-1329.98" font-family="Times,serif" font-size="14.00" fill="gray">eeabc8843c47a7aad6f1607f3502ac9a</text>
</g>
<!-- 5&#45;&gt;797 -->
<g id="edge1" class="edge">
<title>5&#45;&gt;797</title>
<path fill="none" stroke="#dac767" d="M592.58,-1247.41C634.84,-1274.35 657.75,-1284.54 748.63,-1314.4"/>
<polygon fill="#dac767" stroke="#dac767" points="747.42,-1317.68 758.01,-1317.47 749.59,-1311.03 747.42,-1317.68"/>
</g>
<!-- 798 -->
<g id="node3" class="node">
<title>798</title>
<polygon fill="none" stroke="black" points="1424.79,-1415.42 1424.79,-1430.33 1377.95,-1440.88 1311.71,-1440.88 1264.87,-1430.33 1264.87,-1415.42 1311.71,-1404.88 1377.95,-1404.88 1424.79,-1415.42"/>
<polygon fill="none" stroke="black" points="1428.79,-1412.22 1428.79,-1433.53 1378.39,-1444.88 1311.27,-1444.88 1260.87,-1433.53 1260.87,-1412.22 1311.27,-1400.88 1378.39,-1400.88 1428.79,-1412.22"/>
<polygon fill="none" stroke="black" points="1432.79,-1409.02 1432.79,-1436.73 1378.84,-1448.88 1310.82,-1448.88 1256.87,-1436.73 1256.87,-1409.02 1310.82,-1396.88 1378.84,-1396.88 1432.79,-1409.02"/>
<text text-anchor="middle" x="1344.83" y="-1417.83" font-family="Times,serif" font-size="14.00">spdx:Boehm&#45;GC</text>
</g>
<!-- 797&#45;&gt;798 -->
<g id="edge2" class="edge">
<title>797&#45;&gt;798</title>
<path fill="none" stroke="#dac767" d="M936.29,-1366.01C1003.26,-1380.13 1064.19,-1388.42 1245.3,-1410.69"/>
<polygon fill="#dac767" stroke="#dac767" points="1244.69,-1414.14 1255.05,-1411.88 1245.55,-1407.19 1244.69,-1414.14"/>
</g>
<!-- 6853 -->
<g id="node16" class="node">
<title>6853</title>
<polygon fill="none" stroke="#e09d4b" points="1677.86,-1011.37 1677.86,-1026.28 1625.83,-1036.83 1552.25,-1036.83 1500.22,-1026.28 1500.22,-1011.37 1552.25,-1000.83 1625.83,-1000.83 1677.86,-1011.37"/>
<polygon fill="none" stroke="#e09d4b" points="1681.86,-1008.1 1681.86,-1029.56 1626.23,-1040.83 1551.85,-1040.83 1496.22,-1029.56 1496.22,-1008.1 1551.85,-996.83 1626.23,-996.83 1681.86,-1008.1"/>
<text text-anchor="middle" x="1589.04" y="-1013.78" font-family="Times,serif" font-size="14.00">Fedora:Boehm&#45;GC</text>
</g>
<!-- 798&#45;&gt;6853 -->
<g id="edge3" class="edge">
<title>798&#45;&gt;6853</title>
<path fill="none" stroke="#e09d4b" stroke-width="2" d="M1348.64,-1396.57C1377.29,-1199.85 1385.95,-1181.78 1552.51,-1048.05"/>
<polygon fill="#e09d4b" stroke="#e09d4b" stroke-width="2" points="1559.18,-1042.7 1554.2,-1052.47 1557.49,-1044.69 1551.69,-1049.35 1551.38,-1048.96 1551.07,-1048.57 1556.87,-1043.91 1548.56,-1045.45 1559.18,-1042.7"/>
</g>
<!-- 21209 -->
<g id="node19" class="node">
<title>21209</title>
<polygon fill="none" stroke="black" points="1047.43,-1736.29 1047.43,-1751.2 992.16,-1761.74 913.99,-1761.74 858.71,-1751.2 858.71,-1736.29 913.99,-1725.74 992.16,-1725.74 1047.43,-1736.29"/>
<polygon fill="none" stroke="black" points="1051.43,-1732.98 1051.43,-1754.51 992.54,-1765.74 913.61,-1765.74 854.71,-1754.51 854.71,-1732.98 913.61,-1721.74 992.54,-1721.74 1051.43,-1732.98"/>
<text text-anchor="middle" x="953.07" y="-1738.69" font-family="Times,serif" font-size="14.00">scancode:mozilla&#45;gc</text>
</g>
<!-- 798&#45;&gt;21209 -->
<g id="edge4" class="edge">
<title>798&#45;&gt;21209</title>
<path fill="none" stroke="#deb256" stroke-width="2" d="M1307.14,-1448.49C1229.59,-1507.32 1053.71,-1651.44 983.14,-1714.03"/>
<polygon fill="#deb256" stroke="#deb256" stroke-width="2" points="976.88,-1719.62 981.34,-1709.6 978.46,-1717.54 984,-1712.59 984.34,-1712.96 984.67,-1713.33 979.13,-1718.29 987.34,-1716.31 976.88,-1719.62"/>
</g>
<!-- 799 -->
<g id="node4" class="node">
<title>799</title>
<polygon fill="none" stroke="black" points="1416.69,-1079.88 1416.69,-1094.79 1382.51,-1105.34 1334.17,-1105.34 1299.99,-1094.79 1299.99,-1079.88 1334.17,-1069.34 1382.51,-1069.34 1416.69,-1079.88"/>
<polygon fill="none" stroke="black" points="1420.69,-1076.93 1420.69,-1097.74 1383.12,-1109.34 1333.57,-1109.34 1295.99,-1097.74 1295.99,-1076.93 1333.57,-1065.34 1383.12,-1065.34 1420.69,-1076.93"/>
<text text-anchor="middle" x="1358.34" y="-1082.29" font-family="Times,serif" font-size="14.00">Boehm&#45;GC</text>
</g>
<!-- 799&#45;&gt;798 -->
<g id="edge5" class="edge">
<title>799&#45;&gt;798</title>
<path fill="none" stroke="black" stroke-width="2" d="M1347.78,-1109.59C1291.32,-1229.01 1289.53,-1245.72 1333.3,-1386.18"/>
<polygon fill="black" stroke="black" stroke-width="2" points="1335.8,-1394.19 1328.52,-1385.99 1334.56,-1391.89 1332.34,-1384.79 1332.82,-1384.64 1333.3,-1384.49 1335.52,-1391.59 1337.11,-1383.3 1335.8,-1394.19"/>
</g>
<!-- 799&#45;&gt;6853 -->
<g id="edge6" class="edge">
<title>799&#45;&gt;6853</title>
<path fill="none" stroke="#e09d4b" stroke-width="2" d="M1384.99,-1065.77C1419.25,-1038.85 1438.63,-1029.2 1485.08,-1024.36"/>
<polygon fill="#e09d4b" stroke="#e09d4b" stroke-width="2" points="1493.67,-1023.57 1484.13,-1028.97 1491.16,-1024.3 1483.76,-1024.99 1483.71,-1024.49 1483.67,-1023.99 1491.07,-1023.31 1483.3,-1020.01 1493.67,-1023.57"/>
</g>
<!-- 41122 -->
<g id="node38" class="node">
<title>41122</title>
<polygon fill="none" stroke="#379469" points="1347.2,-786.81 1347.2,-801.72 1300.04,-812.27 1233.34,-812.27 1186.18,-801.72 1186.18,-786.81 1233.34,-776.27 1300.04,-776.27 1347.2,-786.81"/>
<polygon fill="none" stroke="#379469" points="1351.2,-783.61 1351.2,-804.93 1300.48,-816.27 1232.9,-816.27 1182.18,-804.93 1182.18,-783.61 1232.9,-772.27 1300.48,-772.27 1351.2,-783.61"/>
<text text-anchor="middle" x="1266.69" y="-789.22" font-family="Times,serif" font-size="14.00">cavil:Boehm&#45;GC</text>
</g>
<!-- 799&#45;&gt;41122 -->
<g id="edge7" class="edge">
<title>799&#45;&gt;41122</title>
<path fill="none" stroke="#379469" stroke-width="2" d="M1346.81,-1065.28C1272.62,-923.3 1264.09,-903.26 1265.66,-827.6"/>
<polygon fill="#379469" stroke="#379469" stroke-width="2" points="1265.89,-818.97 1270.13,-829.08 1266.32,-821.54 1266.13,-828.98 1265.63,-828.96 1265.13,-828.95 1265.32,-821.52 1261.13,-828.85 1265.89,-818.97"/>
</g>
<!-- 800 -->
<g id="node5" class="node">
<title>800</title>
<polygon fill="none" stroke="black" points="1815.53,-1606.02 1815.53,-1620.93 1722.94,-1631.47 1591.99,-1631.47 1499.39,-1620.93 1499.39,-1606.02 1591.99,-1595.47 1722.94,-1595.47 1815.53,-1606.02"/>
<polygon fill="none" stroke="black" points="1819.53,-1602.45 1819.53,-1624.5 1723.16,-1635.47 1591.76,-1635.47 1495.39,-1624.5 1495.39,-1602.45 1591.76,-1591.47 1723.16,-1591.47 1819.53,-1602.45"/>
<text text-anchor="middle" x="1657.46" y="-1608.42" font-family="Times,serif" font-size="14.00">Boehm&#45;Demers&#45;Weiser GC License</text>
</g>
<!-- 800&#45;&gt;798 -->
<g id="edge8" class="edge">
<title>800&#45;&gt;798</title>
<path fill="none" stroke="#dac767" stroke-width="2" d="M1593.43,-1591.05C1450.32,-1540.47 1425.6,-1526.02 1371.7,-1457.74"/>
<polygon fill="#dac767" stroke="#dac767" stroke-width="2" points="1366.48,-1451.06 1376.18,-1456.16 1368.45,-1452.77 1373.03,-1458.63 1372.64,-1458.94 1372.25,-1459.24 1367.66,-1453.39 1369.1,-1461.71 1366.48,-1451.06"/>
</g>
<!-- 66582 -->
<g id="node42" class="node">
<title>66582</title>
<polygon fill="none" stroke="#00876c" points="1873.69,-1658.05 1873.69,-1672.97 1768.44,-1683.51 1619.59,-1683.51 1514.34,-1672.97 1514.34,-1658.05 1619.59,-1647.51 1768.44,-1647.51 1873.69,-1658.05"/>
<polygon fill="none" stroke="#00876c" points="1877.69,-1654.43 1877.69,-1676.59 1768.64,-1687.51 1619.39,-1687.51 1510.34,-1676.59 1510.34,-1654.43 1619.39,-1643.51 1768.64,-1643.51 1877.69,-1654.43"/>
<text text-anchor="middle" x="1694.02" y="-1660.46" font-family="Times,serif" font-size="14.00">spdx:Boehm&#45;Demers&#45;Weiser GC License</text>
</g>
<!-- 800&#45;&gt;66582 -->
<g id="edge9" class="edge">
<title>800&#45;&gt;66582</title>
<path fill="none" stroke="#00876c" stroke-width="2" d="M1663.41,-1635.57C1663.44,-1635.66 1663.47,-1635.75 1663.51,-1635.84"/>
<polygon fill="#00876c" stroke="#00876c" stroke-width="2" points="1665.76,-1640.86 1657.56,-1633.58 1664.26,-1638.73 1661.21,-1631.94 1661.67,-1631.74 1662.12,-1631.53 1665.17,-1638.32 1665.77,-1629.9 1665.76,-1640.86"/>
</g>
<!-- 801 -->
<g id="node6" class="node">
<title>801</title>
<text text-anchor="middle" x="610.3" y="-1068.18" font-family="Times,serif" font-size="14.00">$TEXT</text>
</g>
<!-- 801&#45;&gt;797 -->
<g id="edge10" class="edge">
<title>801&#45;&gt;797</title>
<path fill="none" stroke="#dac767" d="M616.7,-1091.11C651.32,-1187.17 661.81,-1201.93 793.33,-1307.64"/>
<polygon fill="#dac767" stroke="#dac767" points="791,-1310.26 800.99,-1313.79 795.38,-1304.8 791,-1310.26"/>
</g>
<!-- 802 -->
<g id="node7" class="node">
<title>802</title>
<text text-anchor="middle" x="477.19" y="-936.98" font-family="Times,serif" font-size="14.00">$TEXT</text>
</g>
<!-- 802&#45;&gt;801 -->
<g id="edge11" class="edge">
<title>802&#45;&gt;801</title>
<path fill="none" stroke="#dac767" d="M487.2,-959.93C506.22,-993.06 516.95,-1003.67 576.88,-1048.42"/>
<polygon fill="#dac767" stroke="#dac767" points="574.76,-1051.21 584.87,-1054.38 578.95,-1045.6 574.76,-1051.21"/>
</g>
<!-- 803 -->
<g id="node8" class="node">
<title>803</title>
<text text-anchor="middle" x="342.73" y="-1534.18" font-family="Times,serif" font-size="14.00">https://fedoraproject.org/wiki/Licensing:MIT#Another_Minimal_variant_(found_in_libatomic_ops)</text>
</g>
<!-- 803&#45;&gt;797 -->
<g id="edge12" class="edge">
<title>803&#45;&gt;797</title>
<path fill="none" stroke="#dac767" d="M369.11,-1521.33C472.76,-1451.36 501.45,-1438.84 740.67,-1370.79"/>
<polygon fill="#dac767" stroke="#dac767" points="741.36,-1374.23 750.02,-1368.13 739.44,-1367.5 741.36,-1374.23"/>
</g>
<!-- 21208 -->
<g id="node18" class="node">
<title>21208</title>
<ellipse fill="none" stroke="#deb256" cx="527.52" cy="-2005.31" rx="159.81" ry="28.99"/>
<text text-anchor="middle" x="527.52" y="-2008.51" font-family="Times,serif" font-size="14.00" fill="gray">ScancodeData</text>
<text text-anchor="middle" x="527.52" y="-1992.01" font-family="Times,serif" font-size="14.00" fill="gray">377e431241ed1dcdbecb522e5a794ab7</text>
</g>
<!-- 803&#45;&gt;21208 -->
<g id="edge13" class="edge">
<title>803&#45;&gt;21208</title>
<path fill="none" stroke="#deb256" d="M342.36,-1557.16C337.89,-1779.8 341.48,-1798.48 493.77,-1967.91"/>
<polygon fill="#deb256" stroke="#deb256" points="491.07,-1970.14 500.36,-1975.24 496.27,-1965.46 491.07,-1970.14"/>
</g>
<!-- 804 -->
<g id="node9" class="node">
<title>804</title>
<text text-anchor="middle" x="591.05" y="-1649.64" font-family="Times,serif" font-size="14.00">https://github.com/ivmai/libatomic_ops/blob/master/LICENSE</text>
</g>
<!-- 804&#45;&gt;797 -->
<g id="edge14" class="edge">
<title>804&#45;&gt;797</title>
<path fill="none" stroke="#dac767" d="M596.27,-1636.92C632.23,-1515.1 641.92,-1499.63 793.05,-1378.93"/>
<polygon fill="#dac767" stroke="#dac767" points="794.95,-1381.89 800.59,-1372.91 790.59,-1376.41 794.95,-1381.89"/>
</g>
<!-- 804&#45;&gt;21208 -->
<g id="edge15" class="edge">
<title>804&#45;&gt;21208</title>
<path fill="none" stroke="#deb256" d="M581.95,-1672.45C499.92,-1832.81 492.75,-1852.41 518.11,-1964.86"/>
<polygon fill="#deb256" stroke="#deb256" points="514.68,-1965.6 520.32,-1974.57 521.51,-1964.04 514.68,-1965.6"/>
</g>
<!-- 805 -->
<g id="node10" class="node">
<title>805</title>
<text text-anchor="middle" x="498.59" y="-1595.62" font-family="Times,serif" font-size="14.00">https://github.com/uim/libgcroots/blob/master/COPYING</text>
</g>
<!-- 805&#45;&gt;797 -->
<g id="edge16" class="edge">
<title>805&#45;&gt;797</title>
<path fill="none" stroke="#dac767" d="M510.63,-1582.9C576.79,-1485.63 592.96,-1471.23 774.69,-1376.18"/>
<polygon fill="#dac767" stroke="#dac767" points="776.3,-1379.29 783.54,-1371.55 773.06,-1373.08 776.3,-1379.29"/>
</g>
<!-- 805&#45;&gt;21208 -->
<g id="edge17" class="edge">
<title>805&#45;&gt;21208</title>
<path fill="none" stroke="#deb256" d="M493.49,-1618.49C439.47,-1807.48 437.2,-1826.8 507.37,-1965.78"/>
<polygon fill="#deb256" stroke="#deb256" points="504.22,-1967.3 511.86,-1974.64 510.46,-1964.14 504.22,-1967.3"/>
</g>
<!-- 3156 -->
<g id="node11" class="node">
<title>3156</title>
<polygon fill="none" stroke="black" points="1665.69,-734.99 1665.69,-749.91 1647.73,-760.45 1622.34,-760.45 1604.38,-749.91 1604.38,-734.99 1622.34,-724.45 1647.73,-724.45 1665.69,-734.99"/>
<text text-anchor="middle" x="1635.03" y="-737.4" font-family="Times,serif" font-size="14.00">MIT</text>
</g>
<!-- 3156&#45;&gt;6853 -->
<g id="edge18" class="edge">
<title>3156&#45;&gt;6853</title>
<path fill="none" stroke="#e09d4b" stroke-dasharray="5,2" d="M1624.44,-760.49C1584.09,-829.76 1581.78,-844.99 1587.63,-985.8"/>
<polygon fill="#e09d4b" stroke="#e09d4b" points="1588.04,-995.39 1583.12,-985.59 1587.88,-991.61 1587.62,-985.4 1587.62,-985.4 1587.62,-985.4 1587.88,-991.61 1592.11,-985.21 1588.04,-995.39"/>
</g>
<!-- 5550 -->
<g id="node12" class="node">
<title>5550</title>
<text text-anchor="middle" x="429.28" y="-2349.32" font-family="Times,serif" font-size="14.00">LicenseType Permissive</text>
</g>
<!-- 5550&#45;&gt;21208 -->
<g id="edge19" class="edge">
<title>5550&#45;&gt;21208</title>
<path fill="none" stroke="#deb256" d="M427.35,-2336.52C415.04,-2221.25 418.31,-2205.65 506.26,-2044.22"/>
<polygon fill="#deb256" stroke="#deb256" points="509.18,-2046.18 510.89,-2035.73 503.03,-2042.83 509.18,-2046.18"/>
</g>
<!-- 6592 -->
<g id="node13" class="node">
<title>6592</title>
<text text-anchor="middle" x="2076.47" y="-361.14" font-family="Times,serif" font-size="14.00">[&quot;allowed&quot;]</text>
</g>
<!-- 6852 -->
<g id="node15" class="node">
<title>6852</title>
<ellipse fill="none" stroke="#e09d4b" cx="1872.14" cy="-657.2" rx="155.56" ry="28.99"/>
<text text-anchor="middle" x="1872.14" y="-660.4" font-family="Times,serif" font-size="14.00" fill="gray">FedoraEntry</text>
<text text-anchor="middle" x="1872.14" y="-643.9" font-family="Times,serif" font-size="14.00" fill="gray">5d4faba391d01c71dfae4320c15cf93d</text>
</g>
<!-- 6592&#45;&gt;6852 -->
<g id="edge20" class="edge">
<title>6592&#45;&gt;6852</title>
<path fill="none" stroke="#e09d4b" d="M2052.42,-383.91C1979.77,-438.03 1967.63,-456.57 1890.96,-617.58"/>
<polygon fill="#e09d4b" stroke="#e09d4b" points="1887.85,-615.98 1886.71,-626.51 1894.17,-618.99 1887.85,-615.98"/>
</g>
<!-- 6593 -->
<g id="node14" class="node">
<title>6593</title>
<text text-anchor="start" x="2238.66" y="-103.31" font-family="Times,serif" font-size="14.00">Fedora: </text>
<text text-anchor="start" x="2283.66" y="-103.31" font-family="Times,serif" font-weight="bold" font-size="14.00" fill="#228b22">allowed</text>
<text text-anchor="start" x="2074.78" y="-89.31" font-family="Times,serif" font-size="14.00">A license is allowed if Fedora determines that the license is a free software /</text>
<text text-anchor="start" x="2069.53" y="-75.31" font-family="Times,serif" font-size="14.00">open source license. At a high level, the inquiry involves determining whether</text>
<text text-anchor="start" x="2068.41" y="-61.31" font-family="Times,serif" font-size="14.00">the license provides software freedom, and (equivalently) making sure that the</text>
<text text-anchor="start" x="2078.53" y="-47.31" font-family="Times,serif" font-size="14.00">license does not place burdens on users&#39; exercise of its permissions that are</text>
<text text-anchor="start" x="2078.16" y="-33.31" font-family="Times,serif" font-size="14.00">inconsistent with evolving community norms and traditions around what is</text>
<text text-anchor="start" x="2069.91" y="-19.31" font-family="Times,serif" font-size="14.00">acceptable in a free software / open source license. See below for more on the</text>
<text text-anchor="start" x="2189.91" y="-5.31" font-family="Times,serif" font-size="14.00">history of Fedora licensing policy.</text>
</g>
<!-- 6593&#45;&gt;6592 -->
<g id="edge21" class="edge">
<title>6593&#45;&gt;6592</title>
<path fill="none" stroke="#e09d4b" d="M2219.95,-119.42C2184.37,-158.51 2160.47,-203.1 2090.8,-338.36"/>
<polygon fill="#e09d4b" stroke="#e09d4b" points="2087.86,-336.42 2086.39,-346.92 2094.08,-339.63 2087.86,-336.42"/>
</g>
<!-- 6852&#45;&gt;6853 -->
<g id="edge22" class="edge">
<title>6852&#45;&gt;6853</title>
<path fill="none" stroke="#e09d4b" d="M1821.5,-684.96C1700.8,-752.55 1685.77,-778.72 1602.3,-985.87"/>
<polygon fill="#e09d4b" stroke="#e09d4b" points="1599.06,-984.53 1598.58,-995.11 1605.56,-987.14 1599.06,-984.53"/>
</g>
<!-- 6854 -->
<g id="node17" class="node">
<title>6854</title>
<polygon fill="none" stroke="#e09d4b" points="2020.85,-882.12 2020.85,-897.03 1942.21,-907.58 1830.99,-907.58 1752.35,-897.03 1752.35,-882.12 1830.99,-871.58 1942.21,-871.58 2020.85,-882.12"/>
<text text-anchor="middle" x="1886.6" y="-884.53" font-family="Times,serif" font-size="14.00">MIT Another Minimal variant</text>
</g>
<!-- 6854&#45;&gt;6853 -->
<g id="edge23" class="edge">
<title>6854&#45;&gt;6853</title>
<path fill="none" stroke="#e09d4b" stroke-dasharray="5,2" d="M1758.92,-898.38C1704.52,-907.76 1677.43,-929.33 1618.54,-988.77"/>
<polygon fill="#e09d4b" stroke="#e09d4b" points="1611.66,-995.74 1615.48,-985.46 1614.32,-993.05 1618.69,-988.62 1618.69,-988.62 1618.69,-988.62 1614.32,-993.05 1621.89,-991.78 1611.66,-995.74"/>
</g>
<!-- 21208&#45;&gt;21209 -->
<g id="edge24" class="edge">
<title>21208&#45;&gt;21209</title>
<path fill="none" stroke="#deb256" d="M563.21,-1976.77C644.75,-1912.12 676.36,-1893.66 902.44,-1771.17"/>
<polygon fill="#deb256" stroke="#deb256" points="903.85,-1774.38 910.97,-1766.54 900.51,-1768.23 903.85,-1774.38"/>
</g>
<!-- 21209&#45;&gt;798 -->
<g id="edge25" class="edge">
<title>21209&#45;&gt;798</title>
<path fill="none" stroke="#00876c" stroke-width="2" d="M986.59,-1721.28C1060.32,-1665.74 1235.76,-1522.18 1310.36,-1456.48"/>
<polygon fill="#00876c" stroke="#00876c" stroke-width="2" points="1316.7,-1450.86 1312.2,-1460.86 1315.12,-1452.93 1309.55,-1457.87 1309.22,-1457.49 1308.89,-1457.12 1314.45,-1452.19 1306.23,-1454.13 1316.7,-1450.86"/>
</g>
<!-- 21210 -->
<g id="node20" class="node">
<title>21210</title>
<polygon fill="none" stroke="black" points="925.54,-1979.17 925.54,-1994.08 893.31,-2004.62 847.72,-2004.62 815.49,-1994.08 815.49,-1979.17 847.72,-1968.62 893.31,-1968.62 925.54,-1979.17"/>
<polygon fill="none" stroke="black" points="929.54,-1976.27 929.54,-1996.98 893.95,-2008.62 847.08,-2008.62 811.49,-1996.98 811.49,-1976.27 847.08,-1964.62 893.95,-1964.62 929.54,-1976.27"/>
<text text-anchor="middle" x="870.52" y="-1981.57" font-family="Times,serif" font-size="14.00">mozilla&#45;gc</text>
</g>
<!-- 21210&#45;&gt;21209 -->
<g id="edge26" class="edge">
<title>21210&#45;&gt;21209</title>
<path fill="none" stroke="black" stroke-width="2" d="M869.27,-1964.37C865.53,-1891.49 870.56,-1876.49 933.25,-1775.53"/>
<polygon fill="black" stroke="black" stroke-width="2" points="937.8,-1768.22 936.34,-1779.09 936.87,-1770.66 932.94,-1776.97 932.52,-1776.71 932.09,-1776.45 936.02,-1770.13 928.7,-1774.33 937.8,-1768.22"/>
</g>
<!-- 21211 -->
<g id="node21" class="node">
<title>21211</title>
<polygon fill="none" stroke="black" points="1173.53,-1964.71 1173.53,-1979.63 1118.58,-1990.17 1040.87,-1990.17 985.92,-1979.63 985.92,-1964.71 1040.87,-1954.17 1118.58,-1954.17 1173.53,-1964.71"/>
<polygon fill="none" stroke="black" points="1177.53,-1961.41 1177.53,-1982.93 1118.96,-1994.17 1040.49,-1994.17 981.92,-1982.93 981.92,-1961.41 1040.49,-1950.17 1118.96,-1950.17 1177.53,-1961.41"/>
<text text-anchor="middle" x="1079.72" y="-1967.12" font-family="Times,serif" font-size="14.00">Mozilla GC License</text>
</g>
<!-- 21211&#45;&gt;21209 -->
<g id="edge27" class="edge">
<title>21211&#45;&gt;21209</title>
<path fill="none" stroke="#deb256" stroke-width="2" d="M1053.02,-1949.86C977.12,-1885.88 968.69,-1870.76 957.04,-1776.98"/>
<polygon fill="#deb256" stroke="#deb256" stroke-width="2" points="956.01,-1768.51 961.69,-1777.89 956.81,-1770.99 957.71,-1778.38 957.22,-1778.44 956.72,-1778.5 955.82,-1771.12 952.75,-1778.98 956.01,-1768.51"/>
</g>
<!-- 66581 -->
<g id="node41" class="node">
<title>66581</title>
<polygon fill="none" stroke="#00876c" points="1389.26,-1719.25 1389.26,-1734.16 1311.26,-1744.71 1200.97,-1744.71 1122.98,-1734.16 1122.98,-1719.25 1200.97,-1708.71 1311.26,-1708.71 1389.26,-1719.25"/>
<polygon fill="none" stroke="#00876c" points="1393.26,-1715.76 1393.26,-1737.66 1311.53,-1748.71 1200.7,-1748.71 1118.98,-1737.66 1118.98,-1715.76 1200.7,-1704.71 1311.53,-1704.71 1393.26,-1715.76"/>
<text text-anchor="middle" x="1256.12" y="-1721.66" font-family="Times,serif" font-size="14.00">scancode:Mozilla GC License</text>
</g>
<!-- 21211&#45;&gt;66581 -->
<g id="edge28" class="edge">
<title>21211&#45;&gt;66581</title>
<path fill="none" stroke="#00876c" stroke-width="2" d="M1088.11,-1949.9C1113.68,-1882.95 1125.11,-1867.56 1227.73,-1757.19"/>
<polygon fill="#00876c" stroke="#00876c" stroke-width="2" points="1233.62,-1750.86 1230.11,-1761.25 1232.24,-1753.08 1227.18,-1758.52 1226.81,-1758.18 1226.45,-1757.84 1231.51,-1752.4 1223.52,-1755.12 1233.62,-1750.86"/>
</g>
<!-- 21212 -->
<g id="node22" class="node">
<title>21212</title>
<text text-anchor="middle" x="135.92" y="-2208.29" font-family="Times,serif" font-size="14.00">ScancodeData:</text>
<text text-anchor="middle" x="135.92" y="-2191.79" font-family="Times,serif" font-size="14.00">stlport&#45;4.5 and mozilla&#45;gc are mostly the same</text>
</g>
<!-- 21212&#45;&gt;21208 -->
<g id="edge29" class="edge">
<title>21212&#45;&gt;21208</title>
<path fill="none" stroke="#deb256" d="M171.63,-2184.7C246.16,-2142.32 276.46,-2127.01 460.54,-2037.77"/>
<polygon fill="#deb256" stroke="#deb256" points="462.02,-2040.94 469.5,-2033.43 458.97,-2034.64 462.02,-2040.94"/>
</g>
<!-- 21213 -->
<g id="node23" class="node">
<title>21213</title>
<text text-anchor="middle" x="501.93" y="-2055.29" font-family="Times,serif" font-size="14.00">http://www.hboehm.info/gc/license.txt</text>
</g>
<!-- 21213&#45;&gt;21208 -->
<g id="edge30" class="edge">
<title>21213&#45;&gt;21208</title>
<path fill="none" stroke="#deb256" d="M504.15,-2042.39C504.2,-2042.22 504.24,-2042.06 504.29,-2041.9"/>
<polygon fill="#deb256" stroke="#deb256" points="506.19,-2046.53 506.69,-2035.95 499.7,-2043.91 506.19,-2046.53"/>
</g>
<!-- 21214 -->
<g id="node24" class="node">
<title>21214</title>
<text text-anchor="middle" x="281.05" y="-2291.05" font-family="Times,serif" font-size="14.00">http://www.hboehm.info/gc/</text>
</g>
<!-- 21214&#45;&gt;21208 -->
<g id="edge31" class="edge">
<title>21214&#45;&gt;21208</title>
<path fill="none" stroke="#deb256" d="M289.65,-2278.25C332.3,-2190.1 344.22,-2175.28 488.09,-2041.83"/>
<polygon fill="#deb256" stroke="#deb256" points="490.33,-2044.53 495.28,-2035.16 485.57,-2039.4 490.33,-2044.53"/>
</g>
<!-- 21215 -->
<g id="node25" class="node">
<title>21215</title>
<text text-anchor="middle" x="216.74" y="-2047.67" font-family="Times,serif" font-size="14.00">$TEXT</text>
</g>
<!-- 21215&#45;&gt;21208 -->
<g id="edge32" class="edge">
<title>21215&#45;&gt;21208</title>
<path fill="none" stroke="#deb256" d="M244.95,-2052.34C298.1,-2051.4 322.96,-2048.67 412.33,-2030.01"/>
<polygon fill="#deb256" stroke="#deb256" points="413.01,-2033.44 422.08,-2027.96 411.57,-2026.59 413.01,-2033.44"/>
</g>
<!-- 35300 -->
<g id="node26" class="node">
<title>35300</title>
<polygon fill="none" stroke="black" points="1715.87,-528.11 1715.87,-543.02 1682.67,-553.56 1635.7,-553.56 1602.49,-543.02 1602.49,-528.11 1635.7,-517.56 1682.67,-517.56 1715.87,-528.11"/>
<text text-anchor="middle" x="1659.18" y="-530.51" font-family="Times,serif" font-size="14.00">mit&#45;license</text>
</g>
<!-- 35300&#45;&gt;3156 -->
<g id="edge33" class="edge">
<title>35300&#45;&gt;3156</title>
<path fill="none" stroke="#58a066" stroke-dasharray="5,2" d="M1651.39,-553.87C1632.97,-598.04 1631.74,-612.77 1634.27,-713.27"/>
<polygon fill="#58a066" stroke="#58a066" points="1634.52,-723.05 1629.77,-713.16 1634.43,-719.27 1634.27,-713.05 1634.27,-713.05 1634.27,-713.05 1634.43,-719.27 1638.77,-712.93 1634.52,-723.05"/>
</g>
<!-- 35432 -->
<g id="node27" class="node">
<title>35432</title>
<text text-anchor="middle" x="2240.51" y="-1672.57" font-family="Times,serif" font-size="14.00">LicenseTag (ScopedLicenseTag &quot;OrtLicenseCategorization&quot; &quot;permissive&quot; NoLicenseTagText)</text>
</g>
<!-- 35532 -->
<g id="node29" class="node">
<title>35532</title>
<ellipse fill="none" stroke="#d43d51" cx="1801.83" cy="-1468.9" rx="156.09" ry="28.99"/>
<text text-anchor="middle" x="1801.83" y="-1472.1" font-family="Times,serif" font-size="14.00" fill="gray">OrtLicenseCategorization</text>
<text text-anchor="middle" x="1801.83" y="-1455.6" font-family="Times,serif" font-size="14.00" fill="gray">43847efe38ff5b8935b286c3945f4857</text>
</g>
<!-- 35432&#45;&gt;35532 -->
<g id="edge34" class="edge">
<title>35432&#45;&gt;35532</title>
<path fill="none" stroke="#d43d51" d="M2092.35,-1659.66C2028.63,-1642.29 1975.67,-1604.19 1847.38,-1504.41"/>
<polygon fill="#d43d51" stroke="#d43d51" points="1849.65,-1501.74 1839.61,-1498.36 1845.36,-1507.26 1849.65,-1501.74"/>
</g>
<!-- 38012 -->
<g id="node30" class="node">
<title>38012</title>
<ellipse fill="none" stroke="#d43d51" cx="2620.24" cy="-1978.44" rx="154.5" ry="28.99"/>
<text text-anchor="middle" x="2620.24" y="-1981.64" font-family="Times,serif" font-size="14.00" fill="gray">OrtLicenseCategorization</text>
<text text-anchor="middle" x="2620.24" y="-1965.14" font-family="Times,serif" font-size="14.00" fill="gray">c4bd9d3df39f62ab4d3f1aad8cd27cdf</text>
</g>
<!-- 35432&#45;&gt;38012 -->
<g id="edge35" class="edge">
<title>35432&#45;&gt;38012</title>
<path fill="none" stroke="#d43d51" d="M2262.17,-1695.36C2464.1,-1860.74 2498.89,-1889.05 2572.26,-1943.22"/>
<polygon fill="#d43d51" stroke="#d43d51" points="2570.07,-1945.96 2580.2,-1949.07 2574.22,-1940.32 2570.07,-1945.96"/>
</g>
<!-- 35433 -->
<g id="node28" class="node">
<title>35433</title>
<text text-anchor="middle" x="2324.02" y="-1541.68" font-family="Times,serif" font-size="14.00">LicenseTag (ScopedLicenseTag &quot;OrtLicenseCategorization&quot; &quot;include&#45;in&#45;notice&#45;file&quot; NoLicenseTagText)</text>
</g>
<!-- 35433&#45;&gt;35532 -->
<g id="edge36" class="edge">
<title>35433&#45;&gt;35532</title>
<path fill="none" stroke="#d43d51" d="M2029.95,-1541.95C1992.53,-1531.34 1947.45,-1516.95 1890.08,-1498.1"/>
<polygon fill="#d43d51" stroke="#d43d51" points="1891.25,-1494.8 1880.66,-1495 1889.06,-1501.45 1891.25,-1494.8"/>
</g>
<!-- 35433&#45;&gt;38012 -->
<g id="edge37" class="edge">
<title>35433&#45;&gt;38012</title>
<path fill="none" stroke="#d43d51" d="M2339.13,-1564.47C2537.9,-1797.79 2557.64,-1822.44 2604.56,-1938.97"/>
<polygon fill="#d43d51" stroke="#d43d51" points="2601.21,-1940.01 2608.18,-1948 2607.71,-1937.41 2601.21,-1940.01"/>
</g>
<!-- 35532&#45;&gt;798 -->
<g id="edge38" class="edge">
<title>35532&#45;&gt;798</title>
<path fill="none" stroke="#d43d51" d="M1650.64,-1461.27C1534.3,-1455.06 1486.36,-1450.92 1434.15,-1441.53"/>
<polygon fill="#d43d51" stroke="#d43d51" points="1434.88,-1438.11 1424.41,-1439.72 1433.6,-1444.99 1434.88,-1438.11"/>
</g>
<!-- 38013 -->
<g id="node31" class="node">
<title>38013</title>
<polygon fill="none" stroke="black" points="2548.95,-2303.54 2548.95,-2318.45 2448.24,-2328.99 2305.82,-2328.99 2205.11,-2318.45 2205.11,-2303.54 2305.82,-2292.99 2448.24,-2292.99 2548.95,-2303.54"/>
<polygon fill="none" stroke="black" points="2552.95,-2299.93 2552.95,-2322.05 2448.45,-2332.99 2305.61,-2332.99 2201.11,-2322.05 2201.11,-2299.93 2305.61,-2288.99 2448.45,-2288.99 2552.95,-2299.93"/>
<text text-anchor="middle" x="2377.03" y="-2305.94" font-family="Times,serif" font-size="14.00">SPDX:LicenseRef&#45;scancode&#45;mozilla&#45;gc</text>
</g>
<!-- 38012&#45;&gt;38013 -->
<g id="edge39" class="edge">
<title>38012&#45;&gt;38013</title>
<path fill="none" stroke="#d43d51" d="M2611.01,-2007.82C2553.82,-2189.44 2541.95,-2212.42 2424.62,-2282.89"/>
<polygon fill="#d43d51" stroke="#d43d51" points="2422.95,-2279.82 2416.16,-2287.95 2426.54,-2285.83 2422.95,-2279.82"/>
</g>
<!-- 38014 -->
<g id="node32" class="node">
<title>38014</title>
<polygon fill="none" stroke="black" points="2073.81,-2079.3 2073.81,-2094.21 1989.65,-2104.76 1870.63,-2104.76 1786.48,-2094.21 1786.48,-2079.3 1870.63,-2068.76 1989.65,-2068.76 2073.81,-2079.3"/>
<polygon fill="none" stroke="black" points="2077.81,-2075.77 2077.81,-2097.74 1989.9,-2108.76 1870.38,-2108.76 1782.48,-2097.74 1782.48,-2075.77 1870.38,-2064.76 1989.9,-2064.76 2077.81,-2075.77"/>
<text text-anchor="middle" x="1930.14" y="-2081.71" font-family="Times,serif" font-size="14.00">LicenseRef&#45;scancode&#45;mozilla&#45;gc</text>
</g>
<!-- 38014&#45;&gt;38013 -->
<g id="edge40" class="edge">
<title>38014&#45;&gt;38013</title>
<path fill="none" stroke="black" stroke-width="2" d="M1956.61,-2109.21C2101.62,-2232.13 2154.36,-2274.45 2228.29,-2293.1"/>
<polygon fill="black" stroke="black" stroke-width="2" points="2236.5,-2295.02 2225.73,-2297.12 2233.89,-2294.92 2226.65,-2293.23 2226.76,-2292.74 2226.87,-2292.25 2234.11,-2293.95 2227.79,-2288.36 2236.5,-2295.02"/>
</g>
<!-- 66580 -->
<g id="node40" class="node">
<title>66580</title>
<polygon fill="none" stroke="#00876c" points="1819.75,-1778.69 1819.75,-1793.61 1712.55,-1804.15 1560.95,-1804.15 1453.75,-1793.61 1453.75,-1778.69 1560.95,-1768.15 1712.55,-1768.15 1819.75,-1778.69"/>
<polygon fill="none" stroke="#00876c" points="1823.75,-1775.07 1823.75,-1797.23 1712.75,-1808.15 1560.76,-1808.15 1449.75,-1797.23 1449.75,-1775.07 1560.76,-1764.15 1712.75,-1764.15 1823.75,-1775.07"/>
<text text-anchor="middle" x="1636.75" y="-1781.1" font-family="Times,serif" font-size="14.00">scancode:LicenseRef&#45;scancode&#45;mozilla&#45;gc</text>
</g>
<!-- 38014&#45;&gt;66580 -->
<g id="edge41" class="edge">
<title>38014&#45;&gt;66580</title>
<path fill="none" stroke="#00876c" stroke-width="2" d="M1875.93,-2064.4C1760.84,-2015.51 1743.56,-1991.77 1653.42,-1818.29"/>
<polygon fill="#00876c" stroke="#00876c" stroke-width="2" points="1649.49,-1810.73 1658.09,-1817.53 1651.12,-1812.77 1654.54,-1819.37 1654.1,-1819.6 1653.66,-1819.83 1650.23,-1813.23 1650.1,-1821.68 1649.49,-1810.73"/>
</g>
<!-- 39999 -->
<g id="node33" class="node">
<title>39999</title>
<text text-anchor="middle" x="3183.87" y="-2807.37" font-family="Times,serif" font-size="14.00">LicenseTag (ScopedLicenseTag &quot;OrtLicenseCategorization&quot; &quot;permissive&quot; (LicenseTagDescription &quot;Open source license that is made available under \&quot;non&#45;copyleft\&quot; licenses. These generally require attribution of the included works and may include other obligations.&quot;))</text>
</g>
<!-- 40759 -->
<g id="node36" class="node">
<title>40759</title>
<ellipse fill="none" stroke="#e06f45" cx="1912.05" cy="-2711.18" rx="156.09" ry="28.99"/>
<text text-anchor="middle" x="1912.05" y="-2714.38" font-family="Times,serif" font-size="14.00" fill="gray">OrtLicenseCategorization</text>
<text text-anchor="middle" x="1912.05" y="-2697.88" font-family="Times,serif" font-size="14.00" fill="gray">1e941ad65a4a6fc2b0426b4fccc4a885</text>
</g>
<!-- 39999&#45;&gt;40759 -->
<g id="edge42" class="edge">
<title>39999&#45;&gt;40759</title>
<path fill="none" stroke="#e06f45" d="M3131.6,-2830.35C2666.78,-2989.4 2626.84,-2986.89 1990.63,-2741.53"/>
<polygon fill="#e06f45" stroke="#e06f45" points="1992.28,-2738.41 1981.69,-2738.08 1989.76,-2744.94 1992.28,-2738.41"/>
</g>
<!-- 40001 -->
<g id="node34" class="node">
<title>40001</title>
<text text-anchor="middle" x="1230.62" y="-2761.15" font-family="Times,serif" font-size="14.00">LicenseTag (ScopedLicenseTag &quot;OrtLicenseCategorization&quot; &quot;property:include&#45;in&#45;notice&#45;file&quot; (LicenseTagDescription &quot;Whether the license includes a notice obligation or similar which can be fulfilled by adding the relevant copyright notices and the license text into the project/product notice file.&quot;))</text>
</g>
<!-- 40001&#45;&gt;40759 -->
<g id="edge43" class="edge">
<title>40001&#45;&gt;40759</title>
<path fill="none" stroke="#e06f45" d="M1283.15,-2784.17C1513.53,-2862.31 1549.77,-2860.3 1837.06,-2742.19"/>
<polygon fill="#e06f45" stroke="#e06f45" points="1838.07,-2745.56 1845.98,-2738.51 1835.4,-2739.08 1838.07,-2745.56"/>
</g>
<!-- 40002 -->
<g id="node35" class="node">
<title>40002</title>
<text text-anchor="middle" x="2832.01" y="-2763.36" font-family="Times,serif" font-size="14.00">LicenseTag (ScopedLicenseTag &quot;OrtLicenseCategorization&quot; &quot;include&#45;in&#45;notice&#45;file&quot; (LicenseTagDescription &quot;Same as above, as a temporary work&#45;around for the category name not being configurable in ORT reports, see https://github.com/oss&#45;review&#45;toolkit/ort/issues/8220.&quot;))</text>
</g>
<!-- 40002&#45;&gt;40759 -->
<g id="edge44" class="edge">
<title>40002&#45;&gt;40759</title>
<path fill="none" stroke="#e06f45" d="M2782.66,-2786.34C2446.88,-2907.91 2409.59,-2907.22 1989.79,-2741.9"/>
<polygon fill="#e06f45" stroke="#e06f45" points="1991.16,-2738.68 1980.58,-2738.27 1988.6,-2745.19 1991.16,-2738.68"/>
</g>
<!-- 40759&#45;&gt;38013 -->
<g id="edge45" class="edge">
<title>40759&#45;&gt;38013</title>
<path fill="none" stroke="#e06f45" d="M1991.68,-2685.87C2161.37,-2629.83 2188.26,-2596.86 2356.04,-2342.8"/>
<polygon fill="#e06f45" stroke="#e06f45" points="2358.9,-2344.82 2361.49,-2334.54 2353.06,-2340.96 2358.9,-2344.82"/>
</g>
<!-- 41121 -->
<g id="node37" class="node">
<title>41121</title>
<ellipse fill="none" stroke="#379469" cx="1159.69" cy="-454.51" rx="159.81" ry="28.99"/>
<text text-anchor="middle" x="1159.69" y="-457.71" font-family="Times,serif" font-size="14.00" fill="gray">CavilLicenseChange</text>
<text text-anchor="middle" x="1159.69" y="-441.21" font-family="Times,serif" font-size="14.00" fill="gray">dc0f9014ce68b8518640c2b3185b608e</text>
</g>
<!-- 41121&#45;&gt;41122 -->
<g id="edge46" class="edge">
<title>41121&#45;&gt;41122</title>
<path fill="none" stroke="#379469" d="M1161.3,-483.95C1166.36,-567.99 1174.13,-589.32 1251.85,-761.44"/>
<polygon fill="#379469" stroke="#379469" points="1248.65,-762.85 1255.96,-770.53 1255.03,-759.97 1248.65,-762.85"/>
</g>
<!-- 66579 -->
<g id="node39" class="node">
<title>66579</title>
<ellipse fill="none" stroke="#00876c" cx="1157.24" cy="-1176.57" rx="160.87" ry="28.99"/>
<text text-anchor="middle" x="1157.24" y="-1179.77" font-family="Times,serif" font-size="14.00" fill="gray">LicenseLynx</text>
<text text-anchor="middle" x="1157.24" y="-1163.27" font-family="Times,serif" font-size="14.00" fill="gray">46a80442e4b651689a9c0b366ba802e3</text>
</g>
<!-- 66579&#45;&gt;798 -->
<g id="edge47" class="edge">
<title>66579&#45;&gt;798</title>
<path fill="none" stroke="#00876c" d="M1166.37,-1205.83C1189.71,-1278.67 1203.14,-1295.83 1306.92,-1388.98"/>
<polygon fill="#00876c" stroke="#00876c" points="1304.31,-1391.34 1314.09,-1395.41 1308.98,-1386.13 1304.31,-1391.34"/>
</g>
<!-- 66580&#45;&gt;798 -->
<g id="edge48" class="edge">
<title>66580&#45;&gt;798</title>
<path fill="none" stroke="#00876c" stroke-width="2" d="M1602.95,-1763.72C1414.39,-1638.33 1399.52,-1621.38 1354.88,-1459.68"/>
<polygon fill="#00876c" stroke="#00876c" stroke-width="2" points="1352.68,-1451.68 1359.67,-1460.13 1353.85,-1454.02 1355.82,-1461.19 1355.33,-1461.32 1354.85,-1461.45 1352.88,-1454.28 1351,-1462.51 1352.68,-1451.68"/>
</g>
<!-- 66581&#45;&gt;798 -->
<g id="edge49" class="edge">
<title>66581&#45;&gt;798</title>
<path fill="none" stroke="#00876c" stroke-width="2" d="M1253.27,-1704.25C1239.52,-1594.18 1243.1,-1577.85 1321.5,-1458.27"/>
<polygon fill="#00876c" stroke="#00876c" stroke-width="2" points="1326.19,-1451.13 1324.46,-1461.96 1325.2,-1453.55 1321.12,-1459.76 1320.7,-1459.49 1320.28,-1459.22 1324.36,-1453 1316.94,-1457.02 1326.19,-1451.13"/>
</g>
<!-- 66582&#45;&gt;798 -->
<g id="edge50" class="edge">
<title>66582&#45;&gt;798</title>
<path fill="none" stroke="#00876c" stroke-width="2" d="M1639.94,-1643.01C1456.35,-1566.31 1432.18,-1550.77 1368.82,-1458.4"/>
<polygon fill="#00876c" stroke="#00876c" stroke-width="2" points="1363.93,-1451.23 1373.28,-1456.96 1365.78,-1453.07 1369.97,-1459.21 1369.56,-1459.49 1369.15,-1459.78 1364.96,-1453.63 1365.84,-1462.03 1363.93,-1451.23"/>
</g>
</g>
</svg>
