<?xml version="1.0" encoding="UTF-8" standalone="no"?>
<!DOCTYPE svg PUBLIC "-//W3C//DTD SVG 1.1//EN"
 "http://www.w3.org/Graphics/SVG/1.1/DTD/svg11.dtd">
<!-- Generated by graphviz version 10.0.1 (0)
 -->
<!-- Pages: 1 -->
<svg width="4037pt" height="3258pt"
 viewBox="0.00 0.00 4037.00 3258.00" xmlns="http://www.w3.org/2000/svg" xmlns:xlink="http://www.w3.org/1999/xlink">
<g id="graph0" class="graph" transform="scale(1 1) rotate(0) translate(4 3254)">
<polygon fill="white" stroke="none" points="-4,4 -4,-3254 4033,-3254 4033,4 -4,4"/>
<!-- 5 -->
<g id="node1" class="node">
<title>5</title>
<text text-anchor="start" x="1406.2" y="-924.11" font-family="Times,serif" font-size="14.00">OSI: </text>
<text text-anchor="start" x="1435.45" y="-924.11" font-family="Times,serif" font-weight="bold" font-size="14.00" fill="#8b0000">Rejected</text>
</g>
<!-- 806 -->
<g id="node2" class="node">
<title>806</title>
<ellipse fill="none" stroke="#dac767" cx="1776.06" cy="-1167.78" rx="158.22" ry="28.99"/>
<text text-anchor="middle" x="1776.06" y="-1170.98" font-family="Times,serif" font-size="14.00" fill="gray">SPDXLicense</text>
<text text-anchor="middle" x="1776.06" y="-1154.48" font-family="Times,serif" font-size="14.00" fill="gray">cca4a1f3a2d39359712b405295e31c3c</text>
</g>
<!-- 5&#45;&gt;806 -->
<g id="edge1" class="edge">
<title>5&#45;&gt;806</title>
<path fill="none" stroke="#dac767" d="M1485.69,-946.13C1561.15,-981.08 1586.89,-1001.27 1735.14,-1131.73"/>
<polygon fill="#dac767" stroke="#dac767" points="1732.73,-1134.27 1742.55,-1138.25 1737.35,-1129.01 1732.73,-1134.27"/>
</g>
<!-- 807 -->
<g id="node3" class="node">
<title>807</title>
<polygon fill="none" stroke="black" points="2422.96,-1363.87 2422.96,-1378.78 2383.58,-1389.32 2327.9,-1389.32 2288.53,-1378.78 2288.53,-1363.87 2327.9,-1353.32 2383.58,-1353.32 2422.96,-1363.87"/>
<polygon fill="none" stroke="black" points="2426.96,-1360.8 2426.96,-1381.85 2384.11,-1393.32 2327.37,-1393.32 2284.53,-1381.85 2284.53,-1360.8 2327.37,-1349.32 2384.11,-1349.32 2426.96,-1360.8"/>
<polygon fill="none" stroke="black" points="2430.96,-1357.73 2430.96,-1384.92 2384.64,-1397.32 2326.85,-1397.32 2280.53,-1384.92 2280.53,-1357.73 2326.85,-1345.32 2384.64,-1345.32 2430.96,-1357.73"/>
<text text-anchor="middle" x="2355.74" y="-1366.27" font-family="Times,serif" font-size="14.00">spdx:Borceux</text>
</g>
<!-- 806&#45;&gt;807 -->
<g id="edge2" class="edge">
<title>806&#45;&gt;807</title>
<path fill="none" stroke="#dac767" d="M1928.69,-1159.88C2083.74,-1157.13 2131.97,-1188.3 2315.64,-1338.45"/>
<polygon fill="#dac767" stroke="#dac767" points="2313.36,-1341.11 2323.31,-1344.74 2317.79,-1335.69 2313.36,-1341.11"/>
</g>
<!-- 6856 -->
<g id="node13" class="node">
<title>6856</title>
<polygon fill="none" stroke="#e09d4b" points="2498.54,-1241.26 2498.54,-1256.18 2453.98,-1266.72 2390.95,-1266.72 2346.38,-1256.18 2346.38,-1241.26 2390.95,-1230.72 2453.98,-1230.72 2498.54,-1241.26"/>
<polygon fill="none" stroke="#e09d4b" points="2502.54,-1238.1 2502.54,-1259.34 2454.44,-1270.72 2390.48,-1270.72 2342.38,-1259.34 2342.38,-1238.1 2390.48,-1226.72 2454.44,-1226.72 2502.54,-1238.1"/>
<text text-anchor="middle" x="2422.46" y="-1243.67" font-family="Times,serif" font-size="14.00">Fedora:Borceux</text>
</g>
<!-- 807&#45;&gt;6856 -->
<g id="edge3" class="edge">
<title>807&#45;&gt;6856</title>
<path fill="none" stroke="#e09d4b" stroke-width="2" d="M2373.83,-1345.07C2396.96,-1311.35 2406.08,-1296.94 2412.26,-1281.49"/>
<polygon fill="#e09d4b" stroke="#e09d4b" stroke-width="2" points="2415.2,-1273.27 2416.07,-1284.2 2414.81,-1275.85 2412.31,-1282.85 2411.84,-1282.68 2411.37,-1282.51 2413.87,-1275.51 2407.6,-1281.17 2415.2,-1273.27"/>
</g>
<!-- 13977 -->
<g id="node19" class="node">
<title>13977</title>
<polygon fill="none" stroke="black" points="2891.3,-1234.41 2891.3,-1249.32 2842.52,-1259.86 2773.53,-1259.86 2724.74,-1249.32 2724.74,-1234.41 2773.53,-1223.86 2842.52,-1223.86 2891.3,-1234.41"/>
<polygon fill="none" stroke="black" points="2895.3,-1231.18 2895.3,-1252.55 2842.95,-1263.86 2773.1,-1263.86 2720.74,-1252.55 2720.74,-1231.18 2773.1,-1219.86 2842.95,-1219.86 2895.3,-1231.18"/>
<text text-anchor="middle" x="2808.02" y="-1236.81" font-family="Times,serif" font-size="14.00">scancode:borceux</text>
</g>
<!-- 807&#45;&gt;13977 -->
<g id="edge4" class="edge">
<title>807&#45;&gt;13977</title>
<path fill="none" stroke="#deb256" stroke-width="2" d="M2426.81,-1356.22C2515.05,-1333.41 2664.05,-1290.68 2747.24,-1264.28"/>
<polygon fill="#deb256" stroke="#deb256" stroke-width="2" points="2755.47,-1261.64 2747.31,-1268.98 2753.18,-1262.9 2746.09,-1265.17 2745.94,-1264.69 2745.79,-1264.22 2752.87,-1261.95 2744.57,-1260.41 2755.47,-1261.64"/>
</g>
<!-- 44909 -->
<g id="node33" class="node">
<title>44909</title>
<polygon fill="none" stroke="#379469" points="2807.84,-1182.36 2807.84,-1197.27 2734.4,-1207.82 2630.52,-1207.82 2557.08,-1197.27 2557.08,-1182.36 2630.52,-1171.82 2734.4,-1171.82 2807.84,-1182.36"/>
<polygon fill="none" stroke="#379469" points="2811.84,-1178.9 2811.84,-1200.74 2734.68,-1211.82 2630.24,-1211.82 2553.08,-1200.74 2553.08,-1178.9 2630.24,-1167.82 2734.68,-1167.82 2811.84,-1178.9"/>
<text text-anchor="middle" x="2682.46" y="-1184.77" font-family="Times,serif" font-size="14.00">metaeffekt:Borceux License</text>
</g>
<!-- 807&#45;&gt;44909 -->
<g id="edge5" class="edge">
<title>807&#45;&gt;44909</title>
<path fill="none" stroke="#379469" stroke-width="2" d="M2395.39,-1347.92C2537.2,-1264.23 2574.27,-1242.74 2626.2,-1217.01"/>
<polygon fill="#379469" stroke="#379469" stroke-width="2" points="2633.91,-1213.21 2626.93,-1221.67 2631.83,-1214.79 2625.16,-1218.08 2624.94,-1217.63 2624.72,-1217.18 2631.39,-1213.9 2622.95,-1213.59 2633.91,-1213.21"/>
</g>
<!-- 808 -->
<g id="node4" class="node">
<title>808</title>
<polygon fill="none" stroke="black" points="2755.16,-1434.21 2755.16,-1449.12 2728.44,-1459.66 2690.65,-1459.66 2663.94,-1449.12 2663.94,-1434.21 2690.65,-1423.66 2728.44,-1423.66 2755.16,-1434.21"/>
<polygon fill="none" stroke="black" points="2759.16,-1431.49 2759.16,-1451.84 2729.2,-1463.66 2689.89,-1463.66 2659.94,-1451.84 2659.94,-1431.49 2689.89,-1419.66 2729.2,-1419.66 2759.16,-1431.49"/>
<text text-anchor="middle" x="2709.55" y="-1436.61" font-family="Times,serif" font-size="14.00">Borceux</text>
</g>
<!-- 808&#45;&gt;807 -->
<g id="edge6" class="edge">
<title>808&#45;&gt;807</title>
<path fill="none" stroke="black" stroke-width="2" d="M2678.14,-1423.84C2608.88,-1385.29 2581.97,-1378.95 2442.48,-1374.02"/>
<polygon fill="black" stroke="black" stroke-width="2" points="2433.78,-1373.72 2443.93,-1369.56 2436.36,-1373.31 2443.79,-1373.56 2443.77,-1374.06 2443.76,-1374.56 2436.32,-1374.31 2443.62,-1378.56 2433.78,-1373.72"/>
</g>
<!-- 808&#45;&gt;6856 -->
<g id="edge7" class="edge">
<title>808&#45;&gt;6856</title>
<path fill="none" stroke="#e09d4b" stroke-width="2" d="M2695.3,-1419.49C2635.49,-1326.91 2618.93,-1312.43 2486.83,-1269.33"/>
<polygon fill="#e09d4b" stroke="#e09d4b" stroke-width="2" points="2478.58,-1266.65 2489.49,-1265.46 2481.18,-1266.96 2488.25,-1269.26 2488.1,-1269.74 2487.94,-1270.21 2480.87,-1267.92 2486.71,-1274.02 2478.58,-1266.65"/>
</g>
<!-- 10388 -->
<g id="node16" class="node">
<title>10388</title>
<polygon fill="none" stroke="#00876c" points="3075.34,-1556.23 3075.34,-1571.14 3026.23,-1581.69 2956.78,-1581.69 2907.67,-1571.14 2907.67,-1556.23 2956.78,-1545.69 3026.23,-1545.69 3075.34,-1556.23"/>
<polygon fill="none" stroke="#00876c" points="3079.34,-1553 3079.34,-1574.38 3026.65,-1585.69 2956.35,-1585.69 2903.67,-1574.38 2903.67,-1553 2956.35,-1541.69 3026.65,-1541.69 3079.34,-1553"/>
<text text-anchor="middle" x="2991.5" y="-1558.64" font-family="Times,serif" font-size="14.00">BlueOak:Borceux</text>
</g>
<!-- 808&#45;&gt;10388 -->
<g id="edge8" class="edge">
<title>808&#45;&gt;10388</title>
<path fill="none" stroke="#00876c" stroke-width="2" d="M2755.78,-1453.63C2883.77,-1486.94 2910.92,-1496.52 2957.07,-1534.22"/>
<polygon fill="#00876c" stroke="#00876c" stroke-width="2" points="2963.74,-1539.77 2953.18,-1536.84 2961.45,-1538.52 2955.73,-1533.76 2956.05,-1533.38 2956.37,-1532.99 2962.09,-1537.75 2958.93,-1529.92 2963.74,-1539.77"/>
</g>
<!-- 808&#45;&gt;13977 -->
<g id="edge9" class="edge">
<title>808&#45;&gt;13977</title>
<path fill="none" stroke="black" stroke-width="2" d="M2727.17,-1419.19C2788.51,-1340.79 2798.85,-1324.2 2804.74,-1275.02"/>
<polygon fill="black" stroke="black" stroke-width="2" points="2805.68,-1266.42 2809.07,-1276.85 2805.9,-1269.02 2805.09,-1276.41 2804.6,-1276.36 2804.1,-1276.3 2804.91,-1268.91 2800.12,-1275.87 2805.68,-1266.42"/>
</g>
<!-- 34716 -->
<g id="node23" class="node">
<title>34716</title>
<polygon fill="none" stroke="#e18745" points="2401.98,-1587.21 2401.98,-1602.12 2350.92,-1612.67 2278.72,-1612.67 2227.66,-1602.12 2227.66,-1587.21 2278.72,-1576.67 2350.92,-1576.67 2401.98,-1587.21"/>
<polygon fill="none" stroke="#e18745" points="2405.98,-1583.95 2405.98,-1605.38 2351.33,-1616.67 2278.31,-1616.67 2223.66,-1605.38 2223.66,-1583.95 2278.31,-1572.67 2351.33,-1572.67 2405.98,-1583.95"/>
<text text-anchor="middle" x="2314.82" y="-1589.62" font-family="Times,serif" font-size="14.00">fossology:Borceux</text>
</g>
<!-- 808&#45;&gt;34716 -->
<g id="edge10" class="edge">
<title>808&#45;&gt;34716</title>
<path fill="none" stroke="#e18745" stroke-width="2" d="M2676.1,-1458.75C2599.77,-1497.41 2570.51,-1508.49 2380.47,-1572.56"/>
<polygon fill="#e18745" stroke="#e18745" stroke-width="2" points="2372.42,-1575.28 2380.46,-1567.82 2374.69,-1573.98 2381.74,-1571.61 2381.89,-1572.08 2382.05,-1572.56 2375.01,-1574.93 2383.33,-1576.35 2372.42,-1575.28"/>
</g>
<!-- 41126 -->
<g id="node31" class="node">
<title>41126</title>
<polygon fill="none" stroke="#379469" points="3241.14,-1439.62 3241.14,-1454.53 3201.44,-1465.07 3145.3,-1465.07 3105.6,-1454.53 3105.6,-1439.62 3145.3,-1429.07 3201.44,-1429.07 3241.14,-1439.62"/>
<polygon fill="none" stroke="#379469" points="3245.14,-1436.54 3245.14,-1457.6 3201.96,-1469.07 3144.78,-1469.07 3101.6,-1457.6 3101.6,-1436.54 3144.78,-1425.07 3201.96,-1425.07 3245.14,-1436.54"/>
<text text-anchor="middle" x="3173.37" y="-1442.02" font-family="Times,serif" font-size="14.00">cavil:Borceux</text>
</g>
<!-- 808&#45;&gt;41126 -->
<g id="edge11" class="edge">
<title>808&#45;&gt;41126</title>
<path fill="none" stroke="#379469" stroke-width="2" d="M2759.29,-1439.35C2963.9,-1429.88 3019.55,-1428.08 3090.31,-1435.85"/>
<polygon fill="#379469" stroke="#379469" stroke-width="2" points="3098.93,-1436.85 3088.48,-1440.17 3096.32,-1437.05 3088.93,-1436.2 3088.99,-1435.7 3089.05,-1435.21 3096.44,-1436.06 3089.51,-1431.23 3098.93,-1436.85"/>
</g>
<!-- 808&#45;&gt;44909 -->
<g id="edge12" class="edge">
<title>808&#45;&gt;44909</title>
<path fill="none" stroke="#379469" stroke-dasharray="5,2" d="M2714.51,-1419.23C2738.65,-1309.54 2739.22,-1292.19 2700.59,-1222.02"/>
<polygon fill="#379469" stroke="#379469" points="2695.74,-1213.3 2704.54,-1219.85 2697.58,-1216.61 2700.6,-1222.04 2700.6,-1222.04 2700.6,-1222.04 2697.58,-1216.61 2696.67,-1224.23 2695.74,-1213.3"/>
</g>
<!-- 809 -->
<g id="node5" class="node">
<title>809</title>
<polygon fill="none" stroke="black" points="2721.28,-1594.34 2721.28,-1609.25 2676.71,-1619.79 2613.68,-1619.79 2569.12,-1609.25 2569.12,-1594.34 2613.68,-1583.79 2676.71,-1583.79 2721.28,-1594.34"/>
<polygon fill="none" stroke="black" points="2725.28,-1591.17 2725.28,-1612.41 2677.18,-1623.79 2613.22,-1623.79 2565.12,-1612.41 2565.12,-1591.17 2613.22,-1579.79 2677.18,-1579.79 2725.28,-1591.17"/>
<text text-anchor="middle" x="2645.2" y="-1596.74" font-family="Times,serif" font-size="14.00">Borceux license</text>
</g>
<!-- 809&#45;&gt;807 -->
<g id="edge13" class="edge">
<title>809&#45;&gt;807</title>
<path fill="none" stroke="#dac767" stroke-width="2" d="M2632.97,-1579.32C2577.45,-1477.93 2562.06,-1463.03 2414,-1397.05"/>
<polygon fill="#dac767" stroke="#dac767" stroke-width="2" points="2406.28,-1393.62 2417.25,-1393.57 2408.83,-1394.2 2415.62,-1397.22 2415.42,-1397.68 2415.22,-1398.14 2408.42,-1395.12 2413.59,-1401.79 2406.28,-1393.62"/>
</g>
<!-- 809&#45;&gt;6856 -->
<g id="edge14" class="edge">
<title>809&#45;&gt;6856</title>
<path fill="none" stroke="#e09d4b" stroke-dasharray="5,2" d="M2641.56,-1579.36C2613.69,-1408.57 2605.77,-1391.51 2459.72,-1277.63"/>
<polygon fill="#e09d4b" stroke="#e09d4b" points="2452.25,-1271.82 2462.91,-1274.41 2455.23,-1274.14 2460.14,-1277.96 2460.14,-1277.96 2460.14,-1277.96 2455.23,-1274.14 2457.38,-1281.51 2452.25,-1271.82"/>
</g>
<!-- 809&#45;&gt;10388 -->
<g id="edge15" class="edge">
<title>809&#45;&gt;10388</title>
<path fill="none" stroke="#00876c" stroke-width="2" d="M2725.52,-1594.27C2815.82,-1585.78 2859.84,-1581.45 2896.29,-1577.03"/>
<polygon fill="#00876c" stroke="#00876c" stroke-width="2" points="2904.98,-1575.95 2895.61,-1581.65 2902.5,-1576.76 2895.12,-1577.68 2895.06,-1577.18 2895,-1576.68 2902.38,-1575.77 2894.5,-1572.72 2904.98,-1575.95"/>
</g>
<!-- 809&#45;&gt;13977 -->
<g id="edge16" class="edge">
<title>809&#45;&gt;13977</title>
<path fill="none" stroke="#deb256" stroke-width="2" d="M2662.72,-1579.34C2791.47,-1414.19 2801.88,-1396.08 2806.8,-1275.56"/>
<polygon fill="#deb256" stroke="#deb256" stroke-width="2" points="2807.14,-1266.8 2811.25,-1276.96 2807.54,-1269.38 2807.25,-1276.81 2806.75,-1276.79 2806.25,-1276.77 2806.54,-1269.34 2802.25,-1276.61 2807.14,-1266.8"/>
</g>
<!-- 809&#45;&gt;34716 -->
<g id="edge17" class="edge">
<title>809&#45;&gt;34716</title>
<path fill="none" stroke="#e18745" stroke-width="2" d="M2564.64,-1596.53C2531.03,-1595.02 2494.11,-1594.64 2417.38,-1594.61"/>
<polygon fill="#e18745" stroke="#e18745" stroke-width="2" points="2408.72,-1594.6 2418.72,-1590.11 2411.29,-1594.1 2418.72,-1594.11 2418.72,-1594.61 2418.72,-1595.11 2411.28,-1595.1 2418.72,-1599.11 2408.72,-1594.6"/>
</g>
<!-- 809&#45;&gt;44909 -->
<g id="edge18" class="edge">
<title>809&#45;&gt;44909</title>
<path fill="none" stroke="#379469" stroke-width="2" d="M2654.37,-1579.61C2735.9,-1382.32 2739.75,-1364.13 2693.29,-1222.52"/>
<polygon fill="#379469" stroke="#379469" stroke-width="2" points="2690.62,-1214.42 2698.03,-1222.51 2691.9,-1216.7 2694.23,-1223.76 2693.75,-1223.92 2693.28,-1224.07 2690.95,-1217.01 2689.48,-1225.32 2690.62,-1214.42"/>
</g>
<!-- 66588 -->
<g id="node35" class="node">
<title>66588</title>
<polygon fill="none" stroke="#00876c" points="2468.38,-1756.36 2468.38,-1771.27 2398.83,-1781.81 2300.46,-1781.81 2230.91,-1771.27 2230.91,-1756.36 2300.46,-1745.81 2398.83,-1745.81 2468.38,-1756.36"/>
<polygon fill="none" stroke="#00876c" points="2472.38,-1752.92 2472.38,-1774.71 2399.13,-1785.81 2300.16,-1785.81 2226.91,-1774.71 2226.91,-1752.92 2300.16,-1741.81 2399.13,-1741.81 2472.38,-1752.92"/>
<text text-anchor="middle" x="2349.65" y="-1758.76" font-family="Times,serif" font-size="14.00">scancode:Borceux License</text>
</g>
<!-- 809&#45;&gt;66588 -->
<g id="edge19" class="edge">
<title>809&#45;&gt;66588</title>
<path fill="none" stroke="#00876c" stroke-width="2" d="M2624.75,-1624.19C2571.11,-1682.17 2550.41,-1694.68 2420.7,-1739.53"/>
<polygon fill="#00876c" stroke="#00876c" stroke-width="2" points="2412.65,-1742.31 2420.63,-1734.8 2414.91,-1741 2421.94,-1738.58 2422.1,-1739.05 2422.26,-1739.52 2415.23,-1741.95 2423.57,-1743.31 2412.65,-1742.31"/>
</g>
<!-- 66589 -->
<g id="node36" class="node">
<title>66589</title>
<polygon fill="none" stroke="#00876c" points="2573.62,-1704.31 2573.62,-1719.22 2516.39,-1729.76 2435.47,-1729.76 2378.25,-1719.22 2378.25,-1704.31 2435.47,-1693.76 2516.39,-1693.76 2573.62,-1704.31"/>
<polygon fill="none" stroke="#00876c" points="2577.62,-1700.98 2577.62,-1722.55 2516.76,-1733.76 2435.1,-1733.76 2374.25,-1722.55 2374.25,-1700.98 2435.1,-1689.76 2516.76,-1689.76 2577.62,-1700.98"/>
<text text-anchor="middle" x="2475.93" y="-1706.71" font-family="Times,serif" font-size="14.00">spdx:Borceux license</text>
</g>
<!-- 809&#45;&gt;66589 -->
<g id="edge20" class="edge">
<title>809&#45;&gt;66589</title>
<path fill="none" stroke="#00876c" stroke-width="2" d="M2627.83,-1623.89C2604.79,-1652.11 2590.12,-1662.45 2535.08,-1686.57"/>
<polygon fill="#00876c" stroke="#00876c" stroke-width="2" points="2527.35,-1689.93 2534.73,-1681.82 2529.5,-1688.45 2536.32,-1685.49 2536.52,-1685.95 2536.72,-1686.41 2529.9,-1689.37 2538.31,-1690.07 2527.35,-1689.93"/>
</g>
<!-- 77092 -->
<g id="node38" class="node">
<title>77092</title>
<polygon fill="none" stroke="#e09d4b" points="2909.82,-2158.94 2909.82,-2173.85 2844.48,-2184.4 2752.08,-2184.4 2686.75,-2173.85 2686.75,-2158.94 2752.08,-2148.4 2844.48,-2148.4 2909.82,-2158.94"/>
<polygon fill="none" stroke="#e09d4b" points="2913.82,-2155.54 2913.82,-2177.26 2844.8,-2188.4 2751.76,-2188.4 2682.75,-2177.26 2682.75,-2155.54 2751.76,-2144.4 2844.8,-2144.4 2913.82,-2155.54"/>
<text text-anchor="middle" x="2798.28" y="-2161.35" font-family="Times,serif" font-size="14.00">tldr&#45;title:Borceux license</text>
</g>
<!-- 809&#45;&gt;77092 -->
<g id="edge21" class="edge">
<title>809&#45;&gt;77092</title>
<path fill="none" stroke="#e09d4b" stroke-width="2" d="M2658,-1623.95C2823.03,-1909.68 2830.47,-1928.76 2802.84,-2133.09"/>
<polygon fill="#e09d4b" stroke="#e09d4b" stroke-width="2" points="2801.7,-2141.51 2798.59,-2130.99 2801.55,-2138.9 2802.55,-2131.53 2803.05,-2131.6 2803.54,-2131.67 2802.54,-2139.04 2807.5,-2132.2 2801.7,-2141.51"/>
</g>
<!-- 810 -->
<g id="node6" class="node">
<title>810</title>
<text text-anchor="middle" x="1305.37" y="-1108.84" font-family="Times,serif" font-size="14.00">$TEXT</text>
</g>
<!-- 810&#45;&gt;806 -->
<g id="edge22" class="edge">
<title>810&#45;&gt;806</title>
<path fill="none" stroke="#dac767" d="M1333.88,-1107.05C1458.42,-1077.5 1486.52,-1078.04 1684.31,-1139.12"/>
<polygon fill="#dac767" stroke="#dac767" points="1683.06,-1142.4 1693.65,-1142.01 1685.13,-1135.71 1683.06,-1142.4"/>
</g>
<!-- 811 -->
<g id="node7" class="node">
<title>811</title>
<text text-anchor="middle" x="1065.48" y="-1070.09" font-family="Times,serif" font-size="14.00">$TEXT</text>
</g>
<!-- 811&#45;&gt;810 -->
<g id="edge23" class="edge">
<title>811&#45;&gt;810</title>
<path fill="none" stroke="#dac767" d="M1094.07,-1072.82C1141.99,-1069.55 1162.21,-1073.54 1266.08,-1102.78"/>
<polygon fill="#dac767" stroke="#dac767" points="1265.05,-1106.13 1275.62,-1105.48 1266.95,-1099.39 1265.05,-1106.13"/>
</g>
<!-- 812 -->
<g id="node8" class="node">
<title>812</title>
<text text-anchor="middle" x="1714.28" y="-1217.77" font-family="Times,serif" font-size="14.00">https://fedoraproject.org/wiki/Licensing/Borceux</text>
</g>
<!-- 812&#45;&gt;806 -->
<g id="edge24" class="edge">
<title>812&#45;&gt;806</title>
<path fill="none" stroke="#dac767" d="M1723.84,-1205.14C1723.9,-1205.03 1723.97,-1204.91 1724.03,-1204.8"/>
<polygon fill="#dac767" stroke="#dac767" points="1726.56,-1207.39 1728.72,-1197.01 1720.57,-1203.77 1726.56,-1207.39"/>
</g>
<!-- 6855 -->
<g id="node12" class="node">
<title>6855</title>
<ellipse fill="none" stroke="#e09d4b" cx="2000.78" cy="-863.9" rx="155.56" ry="28.99"/>
<text text-anchor="middle" x="2000.78" y="-867.1" font-family="Times,serif" font-size="14.00" fill="gray">FedoraEntry</text>
<text text-anchor="middle" x="2000.78" y="-850.6" font-family="Times,serif" font-size="14.00" fill="gray">dc8895942c677e9e3fb09a6f9af86e5d</text>
</g>
<!-- 812&#45;&gt;6855 -->
<g id="edge25" class="edge">
<title>812&#45;&gt;6855</title>
<path fill="none" stroke="#e09d4b" d="M1722.14,-1205.15C1817.94,-990 1834.17,-958.16 1940.37,-897.24"/>
<polygon fill="#e09d4b" stroke="#e09d4b" points="1941.95,-900.37 1948.92,-892.38 1938.49,-894.28 1941.95,-900.37"/>
</g>
<!-- 34715 -->
<g id="node22" class="node">
<title>34715</title>
<ellipse fill="none" stroke="#e18745" cx="1748.6" cy="-1721.56" rx="158.22" ry="28.99"/>
<text text-anchor="middle" x="1748.6" y="-1724.76" font-family="Times,serif" font-size="14.00" fill="gray">Fossology</text>
<text text-anchor="middle" x="1748.6" y="-1708.26" font-family="Times,serif" font-size="14.00" fill="gray">2da44e0987a689242c581fbfa83d03d8</text>
</g>
<!-- 812&#45;&gt;34715 -->
<g id="edge26" class="edge">
<title>812&#45;&gt;34715</title>
<path fill="none" stroke="#e18745" d="M1708.04,-1240.61C1646.67,-1416.05 1646.5,-1432.42 1734.5,-1681.71"/>
<polygon fill="#e18745" stroke="#e18745" points="1731.08,-1682.52 1737.71,-1690.78 1737.68,-1680.19 1731.08,-1682.52"/>
</g>
<!-- 5550 -->
<g id="node9" class="node">
<title>5550</title>
<text text-anchor="middle" x="3652.44" y="-1075.39" font-family="Times,serif" font-size="14.00">LicenseType Permissive</text>
</g>
<!-- 10387 -->
<g id="node15" class="node">
<title>10387</title>
<ellipse fill="none" stroke="#00876c" cx="3433.2" cy="-1436.52" rx="159.28" ry="28.99"/>
<text text-anchor="middle" x="3433.2" y="-1439.72" font-family="Times,serif" font-size="14.00" fill="gray">BlueOakCouncil</text>
<text text-anchor="middle" x="3433.2" y="-1423.22" font-family="Times,serif" font-size="14.00" fill="gray">c850eb51046cb0311bd2a0af76288e58</text>
</g>
<!-- 5550&#45;&gt;10387 -->
<g id="edge27" class="edge">
<title>5550&#45;&gt;10387</title>
<path fill="none" stroke="#00876c" d="M3649.24,-1098.31C3625.6,-1229.56 3617.76,-1245.03 3468.7,-1399.75"/>
<polygon fill="#00876c" stroke="#00876c" points="3466.5,-1396.99 3462.08,-1406.62 3471.54,-1401.85 3466.5,-1396.99"/>
</g>
<!-- 13976 -->
<g id="node18" class="node">
<title>13976</title>
<ellipse fill="none" stroke="#deb256" cx="3302.18" cy="-894.37" rx="159.28" ry="28.99"/>
<text text-anchor="middle" x="3302.18" y="-897.57" font-family="Times,serif" font-size="14.00" fill="gray">ScancodeData</text>
<text text-anchor="middle" x="3302.18" y="-881.07" font-family="Times,serif" font-size="14.00" fill="gray">638f026240e346459a4309a88f79211d</text>
</g>
<!-- 5550&#45;&gt;13976 -->
<g id="edge28" class="edge">
<title>5550&#45;&gt;13976</title>
<path fill="none" stroke="#deb256" d="M3637.86,-1062.71C3565.04,-974.49 3544.22,-956.94 3407.73,-920.96"/>
<polygon fill="#deb256" stroke="#deb256" points="3408.85,-917.64 3398.29,-918.5 3407.08,-924.41 3408.85,-917.64"/>
</g>
<!-- 6592 -->
<g id="node10" class="node">
<title>6592</title>
<text text-anchor="middle" x="1758.3" y="-460.01" font-family="Times,serif" font-size="14.00">[&quot;allowed&quot;]</text>
</g>
<!-- 6592&#45;&gt;6855 -->
<g id="edge29" class="edge">
<title>6592&#45;&gt;6855</title>
<path fill="none" stroke="#e09d4b" d="M1776.26,-482.85C1862.45,-568.51 1873.46,-587.33 1982.6,-824.39"/>
<polygon fill="#e09d4b" stroke="#e09d4b" points="1979.37,-825.74 1986.73,-833.36 1985.73,-822.82 1979.37,-825.74"/>
</g>
<!-- 6593 -->
<g id="node11" class="node">
<title>6593</title>
<text text-anchor="start" x="1458.62" y="-103.97" font-family="Times,serif" font-size="14.00">Fedora: </text>
<text text-anchor="start" x="1503.62" y="-103.97" font-family="Times,serif" font-weight="bold" font-size="14.00" fill="#228b22">allowed</text>
<text text-anchor="start" x="1294.75" y="-89.97" font-family="Times,serif" font-size="14.00">A license is allowed if Fedora determines that the license is a free software /</text>
<text text-anchor="start" x="1289.5" y="-75.97" font-family="Times,serif" font-size="14.00">open source license. At a high level, the inquiry involves determining whether</text>
<text text-anchor="start" x="1288.37" y="-61.97" font-family="Times,serif" font-size="14.00">the license provides software freedom, and (equivalently) making sure that the</text>
<text text-anchor="start" x="1298.5" y="-47.97" font-family="Times,serif" font-size="14.00">license does not place burdens on users&#39; exercise of its permissions that are</text>
<text text-anchor="start" x="1298.12" y="-33.97" font-family="Times,serif" font-size="14.00">inconsistent with evolving community norms and traditions around what is</text>
<text text-anchor="start" x="1289.87" y="-19.97" font-family="Times,serif" font-size="14.00">acceptable in a free software / open source license. See below for more on the</text>
<text text-anchor="start" x="1409.87" y="-5.97" font-family="Times,serif" font-size="14.00">history of Fedora licensing policy.</text>
</g>
<!-- 6593&#45;&gt;6592 -->
<g id="edge30" class="edge">
<title>6593&#45;&gt;6592</title>
<path fill="none" stroke="#e09d4b" d="M1557.18,-120.1C1609.64,-181.49 1635.6,-229.68 1743.75,-437.15"/>
<polygon fill="#e09d4b" stroke="#e09d4b" points="1740.54,-438.56 1748.26,-445.81 1746.75,-435.32 1740.54,-438.56"/>
</g>
<!-- 6855&#45;&gt;6856 -->
<g id="edge31" class="edge">
<title>6855&#45;&gt;6856</title>
<path fill="none" stroke="#e09d4b" d="M2075.62,-889.73C2243.81,-949.59 2266.76,-979.58 2403.73,-1216.3"/>
<polygon fill="#e09d4b" stroke="#e09d4b" points="2400.69,-1218.05 2408.73,-1224.95 2406.75,-1214.55 2400.69,-1218.05"/>
</g>
<!-- 10364 -->
<g id="node14" class="node">
<title>10364</title>
<text text-anchor="start" x="3478.38" y="-1521.28" font-family="Times,serif" font-size="14.00">BlueOakCouncil: </text>
<text text-anchor="start" x="3576.63" y="-1521.28" font-family="Times,serif" font-weight="bold" font-size="14.00" fill="#8b0000">Lead</text>
<text text-anchor="start" x="3323.88" y="-1507.28" font-family="Times,serif" font-size="14.00">These licenses lack one or more essential elements of permissive open software</text>
<text text-anchor="start" x="3334.75" y="-1493.28" font-family="Times,serif" font-size="14.00">licenses or impose unusually burdensome requirements. &#160;Many use unclear,</text>
<text text-anchor="start" x="3454" y="-1479.28" font-family="Times,serif" font-size="14.00">jocular, or incomplete language.</text>
</g>
<!-- 10364&#45;&gt;10387 -->
<g id="edge32" class="edge">
<title>10364&#45;&gt;10387</title>
<path fill="none" stroke="#00876c" d="M3513.43,-1473.59C3511.32,-1471.97 3509.08,-1470.41 3506.64,-1468.87"/>
<polygon fill="#00876c" stroke="#00876c" points="3508.5,-1465.9 3498.07,-1464.04 3505.06,-1472 3508.5,-1465.9"/>
</g>
<!-- 10387&#45;&gt;10388 -->
<g id="edge33" class="edge">
<title>10387&#45;&gt;10388</title>
<path fill="none" stroke="#00876c" d="M3367.77,-1463.39C3300.08,-1490.05 3253.26,-1502.24 3069.46,-1545.42"/>
<polygon fill="#00876c" stroke="#00876c" points="3068.72,-1542 3059.78,-1547.69 3070.32,-1548.81 3068.72,-1542"/>
</g>
<!-- 10389 -->
<g id="node17" class="node">
<title>10389</title>
<text text-anchor="middle" x="3916.24" y="-1591.77" font-family="Times,serif" font-size="14.00">https://spdx.org/licenses/Borceux.html</text>
</g>
<!-- 10389&#45;&gt;10387 -->
<g id="edge34" class="edge">
<title>10389&#45;&gt;10387</title>
<path fill="none" stroke="#00876c" d="M3887.19,-1578.87C3789.86,-1519.13 3758.97,-1507.18 3548.23,-1461.28"/>
<polygon fill="#00876c" stroke="#00876c" points="3549.06,-1457.88 3538.55,-1459.18 3547.58,-1464.72 3549.06,-1457.88"/>
</g>
<!-- 13976&#45;&gt;13977 -->
<g id="edge35" class="edge">
<title>13976&#45;&gt;13977</title>
<path fill="none" stroke="#deb256" d="M3267.69,-922.97C3163.95,-1008.71 3133.07,-1029.7 2851.52,-1213.48"/>
<polygon fill="#deb256" stroke="#deb256" points="2849.98,-1210.3 2843.52,-1218.69 2853.81,-1216.16 2849.98,-1210.3"/>
</g>
<!-- 13977&#45;&gt;807 -->
<g id="edge36" class="edge">
<title>13977&#45;&gt;807</title>
<path fill="none" stroke="#00876c" stroke-width="2" d="M2737.95,-1256.71C2650.89,-1279.18 2503.61,-1321.37 2419.56,-1347.95"/>
<polygon fill="#00876c" stroke="#00876c" stroke-width="2" points="2411.2,-1350.61 2419.36,-1343.29 2413.49,-1349.36 2420.58,-1347.1 2420.73,-1347.57 2420.88,-1348.05 2413.8,-1350.31 2422.1,-1351.86 2411.2,-1350.61"/>
</g>
<!-- 13977&#45;&gt;44909 -->
<g id="edge37" class="edge">
<title>13977&#45;&gt;44909</title>
<path fill="none" stroke="#379469" stroke-dasharray="5,2" d="M2784.73,-1219.48C2781.94,-1217.12 2779.25,-1215.03 2776.51,-1213.16"/>
<polygon fill="#379469" stroke="#379469" points="2767.9,-1208.19 2778.81,-1209.3 2771.17,-1210.08 2776.56,-1213.19 2776.56,-1213.19 2776.56,-1213.19 2771.17,-1210.08 2774.31,-1217.09 2767.9,-1208.19"/>
</g>
<!-- 13978 -->
<g id="node20" class="node">
<title>13978</title>
<text text-anchor="middle" x="3732.8" y="-579.83" font-family="Times,serif" font-size="14.00">https://fedoraproject.org/wiki/Licensing/Borceux</text>
</g>
<!-- 13978&#45;&gt;13976 -->
<g id="edge38" class="edge">
<title>13978&#45;&gt;13976</title>
<path fill="none" stroke="#deb256" d="M3710.92,-602.69C3614.17,-681.33 3592.3,-697.01 3353.28,-859.62"/>
<polygon fill="#deb256" stroke="#deb256" points="3351.5,-856.6 3345.2,-865.12 3355.44,-862.38 3351.5,-856.6"/>
</g>
<!-- 13979 -->
<g id="node21" class="node">
<title>13979</title>
<text text-anchor="middle" x="3506.69" y="-564.31" font-family="Times,serif" font-size="14.00">$TEXT</text>
</g>
<!-- 13979&#45;&gt;13976 -->
<g id="edge39" class="edge">
<title>13979&#45;&gt;13976</title>
<path fill="none" stroke="#deb256" d="M3501.12,-587.22C3470.86,-683.7 3461.67,-699.07 3333.01,-856.66"/>
<polygon fill="#deb256" stroke="#deb256" points="3330.56,-854.12 3326.95,-864.08 3335.98,-858.55 3330.56,-854.12"/>
</g>
<!-- 34715&#45;&gt;34716 -->
<g id="edge40" class="edge">
<title>34715&#45;&gt;34716</title>
<path fill="none" stroke="#e18745" d="M1884.26,-1736.74C2075.75,-1755.51 2115.83,-1737.99 2274.8,-1623.61"/>
<polygon fill="#e18745" stroke="#e18745" points="2276.66,-1626.59 2282.72,-1617.9 2272.56,-1620.91 2276.66,-1626.59"/>
</g>
<!-- 34717 -->
<g id="node24" class="node">
<title>34717</title>
<text text-anchor="middle" x="1494.44" y="-1993.62" font-family="Times,serif" font-size="14.00">$TEXT</text>
</g>
<!-- 34717&#45;&gt;34715 -->
<g id="edge41" class="edge">
<title>34717&#45;&gt;34715</title>
<path fill="none" stroke="#e18745" d="M1505.66,-1980.78C1553.64,-1904.54 1567.09,-1889.59 1709.14,-1758.05"/>
<polygon fill="#e18745" stroke="#e18745" points="1711.27,-1760.86 1716.23,-1751.5 1706.51,-1755.72 1711.27,-1760.86"/>
</g>
<!-- 35432 -->
<g id="node25" class="node">
<title>35432</title>
<text text-anchor="middle" x="2319.61" y="-197.71" font-family="Times,serif" font-size="14.00">LicenseTag (ScopedLicenseTag &quot;OrtLicenseCategorization&quot; &quot;permissive&quot; NoLicenseTagText)</text>
</g>
<!-- 35534 -->
<g id="node27" class="node">
<title>35534</title>
<ellipse fill="none" stroke="#d43d51" cx="2342.02" cy="-863.93" rx="156.09" ry="28.99"/>
<text text-anchor="middle" x="2342.02" y="-867.13" font-family="Times,serif" font-size="14.00" fill="gray">OrtLicenseCategorization</text>
<text text-anchor="middle" x="2342.02" y="-850.63" font-family="Times,serif" font-size="14.00" fill="gray">3b12008edf5ed6582fc18acf09d81c2d</text>
</g>
<!-- 35432&#45;&gt;35534 -->
<g id="edge42" class="edge">
<title>35432&#45;&gt;35534</title>
<path fill="none" stroke="#d43d51" d="M2323.84,-220.7C2366.24,-400.82 2366.87,-419.1 2344.3,-823.22"/>
<polygon fill="#d43d51" stroke="#d43d51" points="2340.81,-822.98 2343.74,-833.16 2347.8,-823.37 2340.81,-822.98"/>
</g>
<!-- 35433 -->
<g id="node26" class="node">
<title>35433</title>
<text text-anchor="middle" x="2352.39" y="-803.84" font-family="Times,serif" font-size="14.00">LicenseTag (ScopedLicenseTag &quot;OrtLicenseCategorization&quot; &quot;include&#45;in&#45;notice&#45;file&quot; NoLicenseTagText)</text>
</g>
<!-- 35433&#45;&gt;35534 -->
<g id="edge43" class="edge">
<title>35433&#45;&gt;35534</title>
<path fill="none" stroke="#d43d51" d="M2350.81,-826.8C2350.78,-826.94 2350.76,-827.09 2350.73,-827.24"/>
<polygon fill="#d43d51" stroke="#d43d51" points="2348.06,-822.83 2349.49,-833.33 2354.92,-824.23 2348.06,-822.83"/>
</g>
<!-- 35534&#45;&gt;807 -->
<g id="edge44" class="edge">
<title>35534&#45;&gt;807</title>
<path fill="none" stroke="#d43d51" d="M2352.89,-893.31C2402.46,-1028.42 2401.87,-1051.9 2361.14,-1334.03"/>
<polygon fill="#d43d51" stroke="#d43d51" points="2357.73,-1333.15 2359.76,-1343.55 2364.66,-1334.15 2357.73,-1333.15"/>
</g>
<!-- 39999 -->
<g id="node28" class="node">
<title>39999</title>
<text text-anchor="middle" x="747.62" y="-1949.59" font-family="Times,serif" font-size="14.00">LicenseTag (ScopedLicenseTag &quot;OrtLicenseCategorization&quot; &quot;permissive&quot; (LicenseTagDescription &quot;Open source license that is made available under \&quot;non&#45;copyleft\&quot; licenses. These generally require attribution of the included works and may include other obligations.&quot;))</text>
</g>
<!-- 40070 -->
<g id="node29" class="node">
<title>40070</title>
<ellipse fill="none" stroke="#e06f45" cx="1877.35" cy="-1531.82" rx="160.34" ry="28.99"/>
<text text-anchor="middle" x="1877.35" y="-1535.02" font-family="Times,serif" font-size="14.00" fill="gray">OrtLicenseCategorization</text>
<text text-anchor="middle" x="1877.35" y="-1518.52" font-family="Times,serif" font-size="14.00" fill="gray">1c20339ed998b901eb672cb81f782667</text>
</g>
<!-- 39999&#45;&gt;40070 -->
<g id="edge45" class="edge">
<title>39999&#45;&gt;40070</title>
<path fill="none" stroke="#e06f45" d="M781.84,-1936.72C1063.53,-1789.3 1100.83,-1775.18 1785.45,-1560.61"/>
<polygon fill="#e06f45" stroke="#e06f45" points="1786.41,-1563.98 1794.9,-1557.65 1784.31,-1557.3 1786.41,-1563.98"/>
</g>
<!-- 40070&#45;&gt;807 -->
<g id="edge46" class="edge">
<title>40070&#45;&gt;807</title>
<path fill="none" stroke="#e06f45" d="M1925.87,-1503.89C2121.47,-1391.56 2166.1,-1370.07 2268.87,-1369.28"/>
<polygon fill="#e06f45" stroke="#e06f45" points="2268.84,-1372.78 2278.84,-1369.28 2268.83,-1365.78 2268.84,-1372.78"/>
</g>
<!-- 41125 -->
<g id="node30" class="node">
<title>41125</title>
<ellipse fill="none" stroke="#379469" cx="3760.42" cy="-1436.54" rx="159.81" ry="28.99"/>
<text text-anchor="middle" x="3760.42" y="-1439.74" font-family="Times,serif" font-size="14.00" fill="gray">CavilLicenseChange</text>
<text text-anchor="middle" x="3760.42" y="-1423.24" font-family="Times,serif" font-size="14.00" fill="gray">113426f2716cd718b84181a43ada185c</text>
</g>
<!-- 41125&#45;&gt;41126 -->
<g id="edge47" class="edge">
<title>41125&#45;&gt;41126</title>
<path fill="none" stroke="#379469" d="M3603.88,-1430.46C3534.1,-1430.02 3450.8,-1433.63 3256.76,-1443.02"/>
<polygon fill="#379469" stroke="#379469" points="3256.67,-1439.52 3246.85,-1443.5 3257.01,-1446.51 3256.67,-1439.52"/>
</g>
<!-- 44908 -->
<g id="node32" class="node">
<title>44908</title>
<ellipse fill="none" stroke="#379469" cx="2864.67" cy="-724.02" rx="158.75" ry="28.99"/>
<text text-anchor="middle" x="2864.67" y="-727.22" font-family="Times,serif" font-size="14.00" fill="gray">MetaeffektLicense</text>
<text text-anchor="middle" x="2864.67" y="-710.72" font-family="Times,serif" font-size="14.00" fill="gray">56d8c1578c46469ebd232f4c0a3c82cb</text>
</g>
<!-- 44908&#45;&gt;44909 -->
<g id="edge48" class="edge">
<title>44908&#45;&gt;44909</title>
<path fill="none" stroke="#379469" d="M2861.81,-753.45C2848.56,-886.5 2839.05,-907.93 2700.33,-1157.66"/>
<polygon fill="#379469" stroke="#379469" points="2697.45,-1155.64 2695.65,-1166.08 2703.57,-1159.04 2697.45,-1155.64"/>
</g>
<!-- 66587 -->
<g id="node34" class="node">
<title>66587</title>
<ellipse fill="none" stroke="#00876c" cx="2073.06" cy="-1704.77" rx="158.22" ry="28.99"/>
<text text-anchor="middle" x="2073.06" y="-1707.97" font-family="Times,serif" font-size="14.00" fill="gray">LicenseLynx</text>
<text text-anchor="middle" x="2073.06" y="-1691.47" font-family="Times,serif" font-size="14.00" fill="gray">a6741949b9c200b170f496cceb34eec9</text>
</g>
<!-- 66587&#45;&gt;807 -->
<g id="edge49" class="edge">
<title>66587&#45;&gt;807</title>
<path fill="none" stroke="#00876c" d="M2104.55,-1676.11C2274.24,-1521.51 2294.82,-1499.89 2338.58,-1408.02"/>
<polygon fill="#00876c" stroke="#00876c" points="2341.71,-1409.59 2342.82,-1399.06 2335.38,-1406.6 2341.71,-1409.59"/>
</g>
<!-- 66588&#45;&gt;807 -->
<g id="edge50" class="edge">
<title>66588&#45;&gt;807</title>
<path fill="none" stroke="#00876c" stroke-width="2" d="M2358.27,-1741.35C2424.75,-1567.85 2427.33,-1549.55 2370.33,-1407.38"/>
<polygon fill="#00876c" stroke="#00876c" stroke-width="2" points="2367.21,-1399.64 2375.12,-1407.24 2368.63,-1401.83 2371.41,-1408.73 2370.95,-1408.92 2370.48,-1409.11 2367.71,-1402.21 2366.77,-1410.6 2367.21,-1399.64"/>
</g>
<!-- 66589&#45;&gt;807 -->
<g id="edge51" class="edge">
<title>66589&#45;&gt;807</title>
<path fill="none" stroke="#00876c" stroke-width="2" d="M2477.2,-1689.42C2485.53,-1540.33 2481.83,-1522.49 2384.99,-1406.2"/>
<polygon fill="#00876c" stroke="#00876c" stroke-width="2" points="2379.42,-1399.53 2389.28,-1404.32 2381.44,-1401.18 2386.21,-1406.89 2385.83,-1407.21 2385.44,-1407.53 2380.68,-1401.82 2382.37,-1410.09 2379.42,-1399.53"/>
</g>
<!-- 77091 -->
<g id="node37" class="node">
<title>77091</title>
<ellipse fill="none" stroke="#e09d4b" cx="2787.24" cy="-2717.56" rx="160.34" ry="28.99"/>
<text text-anchor="middle" x="2787.24" y="-2720.76" font-family="Times,serif" font-size="14.00" fill="gray">TLDRNaming</text>
<text text-anchor="middle" x="2787.24" y="-2704.26" font-family="Times,serif" font-size="14.00" fill="gray">d361ca7ea9162abb4e9224a5b032d643</text>
</g>
<!-- 77091&#45;&gt;77092 -->
<g id="edge52" class="edge">
<title>77091&#45;&gt;77092</title>
<path fill="none" stroke="#e09d4b" d="M2799.36,-2688.4C2866.27,-2526.52 2865.28,-2504.61 2804.87,-2199.59"/>
<polygon fill="#e09d4b" stroke="#e09d4b" points="2808.36,-2199.23 2802.99,-2190.1 2801.5,-2200.59 2808.36,-2199.23"/>
</g>
<!-- 77093 -->
<g id="node39" class="node">
<title>77093</title>
<polygon fill="none" stroke="#e09d4b" points="3165.32,-2581.33 3165.32,-2596.24 3099.99,-2606.78 3007.59,-2606.78 2942.26,-2596.24 2942.26,-2581.33 3007.59,-2570.78 3099.99,-2570.78 3165.32,-2581.33"/>
<polygon fill="none" stroke="#e09d4b" points="3169.32,-2577.92 3169.32,-2599.65 3100.31,-2610.78 3007.27,-2610.78 2938.26,-2599.65 2938.26,-2577.92 3007.27,-2566.78 3100.31,-2566.78 3169.32,-2577.92"/>
<text text-anchor="middle" x="3053.79" y="-2583.73" font-family="Times,serif" font-size="14.00">tldr&#45;slug:borceux&#45;license</text>
</g>
<!-- 77093&#45;&gt;77092 -->
<g id="edge53" class="edge">
<title>77093&#45;&gt;77092</title>
<path fill="none" stroke="#e09d4b" stroke-width="2" d="M3046.02,-2566.49C3003.45,-2444.97 2992.33,-2427.33 2821.46,-2197.56"/>
<polygon fill="#e09d4b" stroke="#e09d4b" stroke-width="2" points="2816.25,-2190.55 2825.83,-2195.89 2818.18,-2192.3 2822.62,-2198.27 2822.21,-2198.57 2821.81,-2198.87 2817.38,-2192.9 2818.6,-2201.26 2816.25,-2190.55"/>
</g>
<!-- 77094 -->
<g id="node40" class="node">
<title>77094</title>
<polygon fill="none" stroke="#e09d4b" points="3326.04,-2911.58 3326.04,-2926.5 3282.12,-2937.04 3220.01,-2937.04 3176.09,-2926.5 3176.09,-2911.58 3220.01,-2901.04 3282.12,-2901.04 3326.04,-2911.58"/>
<polygon fill="none" stroke="#e09d4b" points="3330.04,-2908.43 3330.04,-2929.65 3282.59,-2941.04 3219.54,-2941.04 3172.09,-2929.65 3172.09,-2908.43 3219.54,-2897.04 3282.59,-2897.04 3330.04,-2908.43"/>
<text text-anchor="middle" x="3251.07" y="-2913.99" font-family="Times,serif" font-size="14.00">borceux&#45;license</text>
</g>
<!-- 77094&#45;&gt;77093 -->
<g id="edge54" class="edge">
<title>77094&#45;&gt;77093</title>
<path fill="none" stroke="#e09d4b" stroke-width="2" d="M3242.14,-2896.6C3208.19,-2811.8 3197.16,-2794.06 3075.72,-2620.17"/>
<polygon fill="#e09d4b" stroke="#e09d4b" stroke-width="2" points="3070.87,-2613.22 3080.28,-2618.84 3072.74,-2615.04 3077,-2621.13 3076.59,-2621.42 3076.18,-2621.71 3071.92,-2615.61 3072.9,-2624 3070.87,-2613.22"/>
</g>
<!-- 77095 -->
<g id="node41" class="node">
<title>77095</title>
<text text-anchor="middle" x="2798.08" y="-3226.89" font-family="Times,serif" font-size="14.00">TLDR: https://tldrlegal.com/license/borceux&#45;license</text>
</g>
<!-- 77095&#45;&gt;77091 -->
<g id="edge55" class="edge">
<title>77095&#45;&gt;77091</title>
<path fill="none" stroke="#e09d4b" d="M2802.88,-3214.36C2842.25,-3069.8 2842.09,-3052.65 2793.88,-2758.05"/>
<polygon fill="#e09d4b" stroke="#e09d4b" points="2797.38,-2757.8 2792.31,-2748.5 2790.47,-2758.93 2797.38,-2757.8"/>
</g>
</g>
</svg>
