<?xml version="1.0" encoding="UTF-8" standalone="no"?>
<!DOCTYPE svg PUBLIC "-//W3C//DTD SVG 1.1//EN"
 "http://www.w3.org/Graphics/SVG/1.1/DTD/svg11.dtd">
<!-- Generated by graphviz version 10.0.1 (0)
 -->
<!-- Pages: 1 -->
<svg width="4386pt" height="3039pt"
 viewBox="0.00 0.00 4386.00 3039.00" xmlns="http://www.w3.org/2000/svg" xmlns:xlink="http://www.w3.org/1999/xlink">
<g id="graph0" class="graph" transform="scale(1 1) rotate(0) translate(4 3035)">
<polygon fill="white" stroke="none" points="-4,4 -4,-3035 4382,-3035 4382,4 -4,4"/>
<!-- 5 -->
<g id="node1" class="node">
<title>5</title>
<text text-anchor="start" x="2410.05" y="-586.9" font-family="Times,serif" font-size="14.00">OSI: </text>
<text text-anchor="start" x="2439.3" y="-586.9" font-family="Times,serif" font-weight="bold" font-size="14.00" fill="#8b0000">Rejected</text>
</g>
<!-- 675 -->
<g id="node2" class="node">
<title>675</title>
<ellipse fill="none" stroke="#dac767" cx="2343.38" cy="-971.35" rx="155.03" ry="28.99"/>
<text text-anchor="middle" x="2343.38" y="-974.55" font-family="Times,serif" font-size="14.00" fill="gray">SPDXLicense</text>
<text text-anchor="middle" x="2343.38" y="-958.05" font-family="Times,serif" font-size="14.00" fill="gray">e70ef9b9b61844f05d634b63afba2afd</text>
</g>
<!-- 5&#45;&gt;675 -->
<g id="edge1" class="edge">
<title>5&#45;&gt;675</title>
<path fill="none" stroke="#dac767" d="M2444.87,-608.72C2419.38,-700.44 2414.51,-717.87 2354.71,-930.94"/>
<polygon fill="#dac767" stroke="#dac767" points="2351.38,-929.87 2352.05,-940.44 2358.12,-931.76 2351.38,-929.87"/>
</g>
<!-- 676 -->
<g id="node3" class="node">
<title>676</title>
<polygon fill="none" stroke="black" points="2395.98,-1569.43 2395.98,-1584.35 2332.59,-1594.89 2242.95,-1594.89 2179.56,-1584.35 2179.56,-1569.43 2242.95,-1558.89 2332.59,-1558.89 2395.98,-1569.43"/>
<polygon fill="none" stroke="black" points="2399.98,-1566.04 2399.98,-1587.74 2332.92,-1598.89 2242.62,-1598.89 2175.56,-1587.74 2175.56,-1566.04 2242.62,-1554.89 2332.92,-1554.89 2399.98,-1566.04"/>
<polygon fill="none" stroke="black" points="2403.98,-1562.66 2403.98,-1591.13 2333.26,-1602.89 2242.29,-1602.89 2171.56,-1591.13 2171.56,-1562.66 2242.29,-1550.89 2333.26,-1550.89 2403.98,-1562.66"/>
<text text-anchor="middle" x="2287.77" y="-1571.84" font-family="Times,serif" font-size="14.00">spdx:BSD&#45;Source&#45;Code</text>
</g>
<!-- 675&#45;&gt;676 -->
<g id="edge2" class="edge">
<title>675&#45;&gt;676</title>
<path fill="none" stroke="#dac767" d="M2347.67,-1000.67C2371.02,-1162.01 2367.86,-1186.53 2295.48,-1539.35"/>
<polygon fill="#dac767" stroke="#dac767" points="2292.09,-1538.44 2293.51,-1548.94 2298.95,-1539.85 2292.09,-1538.44"/>
</g>
<!-- 6815 -->
<g id="node13" class="node">
<title>6815</title>
<polygon fill="none" stroke="#e09d4b" points="2739.7,-1889.25 2739.7,-1904.17 2671.12,-1914.71 2574.14,-1914.71 2505.56,-1904.17 2505.56,-1889.25 2574.14,-1878.71 2671.12,-1878.71 2739.7,-1889.25"/>
<polygon fill="none" stroke="#e09d4b" points="2743.7,-1885.82 2743.7,-1907.6 2671.43,-1918.71 2573.83,-1918.71 2501.56,-1907.6 2501.56,-1885.82 2573.83,-1874.71 2671.43,-1874.71 2743.7,-1885.82"/>
<text text-anchor="middle" x="2622.63" y="-1891.66" font-family="Times,serif" font-size="14.00">Fedora:BSD&#45;Source&#45;Code</text>
</g>
<!-- 676&#45;&gt;6815 -->
<g id="edge3" class="edge">
<title>676&#45;&gt;6815</title>
<path fill="none" stroke="#e09d4b" stroke-width="2" d="M2316.6,-1603.36C2502.58,-1774.14 2526.88,-1796.84 2594.04,-1866.83"/>
<polygon fill="#e09d4b" stroke="#e09d4b" stroke-width="2" points="2599.88,-1872.92 2589.71,-1868.81 2597.75,-1871.41 2592.6,-1866.04 2592.96,-1865.7 2593.32,-1865.35 2598.47,-1870.72 2596.21,-1862.58 2599.88,-1872.92"/>
</g>
<!-- 11062 -->
<g id="node19" class="node">
<title>11062</title>
<polygon fill="none" stroke="#78ab63" points="1919.19,-1705.84 1919.19,-1720.75 1854.51,-1731.3 1763.03,-1731.3 1698.34,-1720.75 1698.34,-1705.84 1763.03,-1695.3 1854.51,-1695.3 1919.19,-1705.84"/>
<polygon fill="none" stroke="#78ab63" points="1923.19,-1702.44 1923.19,-1724.15 1854.83,-1735.3 1762.7,-1735.3 1694.34,-1724.15 1694.34,-1702.44 1762.7,-1691.3 1854.83,-1691.3 1923.19,-1702.44"/>
<text text-anchor="middle" x="1808.77" y="-1708.25" font-family="Times,serif" font-size="14.00">osadl:BSD&#45;Source&#45;Code</text>
</g>
<!-- 676&#45;&gt;11062 -->
<g id="edge4" class="edge">
<title>676&#45;&gt;11062</title>
<path fill="none" stroke="#78ab63" stroke-width="2" d="M2231.06,-1601.47C2063.27,-1674.08 2000.85,-1699.25 1934.33,-1708.17"/>
<polygon fill="#78ab63" stroke="#78ab63" stroke-width="2" points="1926.02,-1709.18 1935.41,-1703.51 1928.51,-1708.37 1935.89,-1707.48 1935.95,-1707.98 1936.01,-1708.47 1928.63,-1709.36 1936.49,-1712.44 1926.02,-1709.18"/>
</g>
<!-- 14513 -->
<g id="node24" class="node">
<title>14513</title>
<polygon fill="none" stroke="black" points="2251.41,-1927.19 2251.41,-1942.1 2183.15,-1952.65 2086.62,-1952.65 2018.37,-1942.1 2018.37,-1927.19 2086.62,-1916.65 2183.15,-1916.65 2251.41,-1927.19"/>
<polygon fill="none" stroke="black" points="2255.41,-1923.76 2255.41,-1945.53 2183.46,-1956.65 2086.32,-1956.65 2014.37,-1945.53 2014.37,-1923.76 2086.32,-1912.65 2183.46,-1912.65 2255.41,-1923.76"/>
<text text-anchor="middle" x="2134.89" y="-1929.6" font-family="Times,serif" font-size="14.00">scancode:bsd&#45;source&#45;code</text>
</g>
<!-- 676&#45;&gt;14513 -->
<g id="edge5" class="edge">
<title>676&#45;&gt;14513</title>
<path fill="none" stroke="#deb256" stroke-width="2" d="M2272.38,-1603.16C2240.82,-1667.26 2170.59,-1831.45 2144.54,-1901.84"/>
<polygon fill="#deb256" stroke="#deb256" stroke-width="2" points="2141.58,-1910.01 2140.75,-1899.07 2141.98,-1907.43 2144.52,-1900.43 2144.99,-1900.6 2145.46,-1900.77 2142.92,-1907.77 2149.22,-1902.14 2141.58,-1910.01"/>
</g>
<!-- 677 -->
<g id="node4" class="node">
<title>677</title>
<polygon fill="none" stroke="black" points="2287.46,-2049.58 2287.46,-2064.49 2236.73,-2075.03 2164.98,-2075.03 2114.25,-2064.49 2114.25,-2049.58 2164.98,-2039.03 2236.73,-2039.03 2287.46,-2049.58"/>
<polygon fill="none" stroke="black" points="2291.46,-2046.32 2291.46,-2067.74 2237.14,-2079.03 2164.57,-2079.03 2110.25,-2067.74 2110.25,-2046.32 2164.57,-2035.03 2237.14,-2035.03 2291.46,-2046.32"/>
<text text-anchor="middle" x="2200.85" y="-2051.98" font-family="Times,serif" font-size="14.00">BSD&#45;Source&#45;Code</text>
</g>
<!-- 677&#45;&gt;676 -->
<g id="edge6" class="edge">
<title>677&#45;&gt;676</title>
<path fill="none" stroke="black" stroke-width="2" d="M2210.34,-2034.61C2259.9,-1916.93 2263.15,-1896.16 2284.9,-1614.18"/>
<polygon fill="black" stroke="black" stroke-width="2" points="2285.56,-1605.6 2289.28,-1615.91 2285.86,-1608.19 2285.29,-1615.61 2284.79,-1615.57 2284.3,-1615.53 2284.87,-1608.11 2280.31,-1615.22 2285.56,-1605.6"/>
</g>
<!-- 677&#45;&gt;6815 -->
<g id="edge7" class="edge">
<title>677&#45;&gt;6815</title>
<path fill="none" stroke="#e09d4b" stroke-width="2" d="M2291.88,-2057C2441.81,-2055.17 2470.86,-2038.55 2590.67,-1926.7"/>
<polygon fill="#e09d4b" stroke="#e09d4b" stroke-width="2" points="2596.92,-1920.85 2592.69,-1930.97 2595.39,-1922.97 2589.96,-1928.05 2589.61,-1927.69 2589.27,-1927.32 2594.7,-1922.24 2586.54,-1924.4 2596.92,-1920.85"/>
</g>
<!-- 10095 -->
<g id="node16" class="node">
<title>10095</title>
<polygon fill="none" stroke="#00876c" points="2653.42,-2309.54 2653.42,-2324.46 2580.3,-2335 2476.88,-2335 2403.76,-2324.46 2403.76,-2309.54 2476.88,-2299 2580.3,-2299 2653.42,-2309.54"/>
<polygon fill="none" stroke="#00876c" points="2657.42,-2306.08 2657.42,-2327.92 2580.58,-2339 2476.6,-2339 2399.76,-2327.92 2399.76,-2306.08 2476.6,-2295 2580.58,-2295 2657.42,-2306.08"/>
<text text-anchor="middle" x="2528.59" y="-2311.95" font-family="Times,serif" font-size="14.00">BlueOak:BSD&#45;Source&#45;Code</text>
</g>
<!-- 677&#45;&gt;10095 -->
<g id="edge8" class="edge">
<title>677&#45;&gt;10095</title>
<path fill="none" stroke="#00876c" stroke-width="2" d="M2220.46,-2079.37C2352.31,-2229.54 2382.39,-2261.27 2458.52,-2291.8"/>
<polygon fill="#00876c" stroke="#00876c" stroke-width="2" points="2466.28,-2294.83 2455.33,-2295.38 2463.71,-2294.36 2456.78,-2291.66 2456.97,-2291.19 2457.15,-2290.73 2464.07,-2293.43 2458.6,-2287 2466.28,-2294.83"/>
</g>
<!-- 677&#45;&gt;11062 -->
<g id="edge9" class="edge">
<title>677&#45;&gt;11062</title>
<path fill="none" stroke="#78ab63" stroke-width="2" d="M2144.64,-2038.71C1965.85,-1979.49 1947.17,-1958.19 1826.87,-1745.38"/>
<polygon fill="#78ab63" stroke="#78ab63" stroke-width="2" points="1822.64,-1737.88 1831.47,-1744.38 1824.33,-1739.87 1827.99,-1746.35 1827.56,-1746.59 1827.12,-1746.84 1823.46,-1740.36 1823.64,-1748.8 1822.64,-1737.88"/>
</g>
<!-- 677&#45;&gt;14513 -->
<g id="edge10" class="edge">
<title>677&#45;&gt;14513</title>
<path fill="none" stroke="black" stroke-width="2" d="M2179.12,-2034.62C2167.17,-2020.41 2160.75,-2006.19 2146.67,-1967.48"/>
<polygon fill="black" stroke="black" stroke-width="2" points="2143.75,-1959.38 2151.38,-1967.26 2145.09,-1961.63 2147.62,-1968.62 2147.15,-1968.79 2146.68,-1968.96 2144.15,-1961.97 2142.91,-1970.32 2143.75,-1959.38"/>
</g>
<!-- 34700 -->
<g id="node29" class="node">
<title>34700</title>
<polygon fill="none" stroke="#e18745" points="2547.12,-1688.92 2547.12,-1703.83 2472.05,-1714.37 2365.89,-1714.37 2290.82,-1703.83 2290.82,-1688.92 2365.89,-1678.37 2472.05,-1678.37 2547.12,-1688.92"/>
<polygon fill="none" stroke="#e18745" points="2551.12,-1685.44 2551.12,-1707.31 2472.33,-1718.37 2365.61,-1718.37 2286.82,-1707.31 2286.82,-1685.44 2365.61,-1674.37 2472.33,-1674.37 2551.12,-1685.44"/>
<text text-anchor="middle" x="2418.97" y="-1691.32" font-family="Times,serif" font-size="14.00">fossology:BSD&#45;Source&#45;Code</text>
</g>
<!-- 677&#45;&gt;34700 -->
<g id="edge11" class="edge">
<title>677&#45;&gt;34700</title>
<path fill="none" stroke="#e18745" stroke-width="2" d="M2230.98,-2034.66C2332.12,-1958.78 2342.45,-1937.77 2408.57,-1729.24"/>
<polygon fill="#e18745" stroke="#e18745" stroke-width="2" points="2411.13,-1721.17 2412.4,-1732.06 2410.83,-1723.76 2408.58,-1730.85 2408.11,-1730.7 2407.63,-1730.55 2409.88,-1723.46 2403.82,-1729.34 2411.13,-1721.17"/>
</g>
<!-- 41207 -->
<g id="node39" class="node">
<title>41207</title>
<polygon fill="none" stroke="#379469" points="2228.28,-2515.81 2228.28,-2530.72 2164.56,-2541.27 2074.46,-2541.27 2010.75,-2530.72 2010.75,-2515.81 2074.46,-2505.27 2164.56,-2505.27 2228.28,-2515.81"/>
<polygon fill="none" stroke="#379469" points="2232.28,-2512.42 2232.28,-2534.11 2164.89,-2545.27 2074.13,-2545.27 2006.75,-2534.11 2006.75,-2512.42 2074.13,-2501.27 2164.89,-2501.27 2232.28,-2512.42"/>
<text text-anchor="middle" x="2119.51" y="-2518.22" font-family="Times,serif" font-size="14.00">cavil:BSD&#45;Source&#45;Code</text>
</g>
<!-- 677&#45;&gt;41207 -->
<g id="edge12" class="edge">
<title>677&#45;&gt;41207</title>
<path fill="none" stroke="#379469" stroke-width="2" d="M2197.88,-2079.08C2160.27,-2357.91 2156.27,-2385.03 2128.32,-2490.31"/>
<polygon fill="#379469" stroke="#379469" stroke-width="2" points="2126.07,-2498.75 2124.3,-2487.93 2126.25,-2496.14 2128.16,-2488.96 2128.65,-2489.09 2129.13,-2489.22 2127.22,-2496.4 2133,-2490.24 2126.07,-2498.75"/>
</g>
<!-- 59743 -->
<g id="node42" class="node">
<title>59743</title>
<polygon fill="none" stroke="#b8bf62" points="1915.87,-2389.99 1915.87,-2404.9 1809.32,-2415.45 1658.64,-2415.45 1552.09,-2404.9 1552.09,-2389.99 1658.64,-2379.45 1809.32,-2379.45 1915.87,-2389.99"/>
<polygon fill="none" stroke="#b8bf62" points="1919.87,-2386.37 1919.87,-2408.53 1809.52,-2419.45 1658.44,-2419.45 1548.09,-2408.53 1548.09,-2386.37 1658.44,-2375.45 1809.52,-2375.45 1919.87,-2386.37"/>
<text text-anchor="middle" x="1733.98" y="-2392.4" font-family="Times,serif" font-size="14.00">foss&#45;license:BSD Source Code Attribution</text>
</g>
<!-- 677&#45;&gt;59743 -->
<g id="edge13" class="edge">
<title>677&#45;&gt;59743</title>
<path fill="none" stroke="#b8bf62" stroke-width="2" d="M2179.48,-2079.43C1974.06,-2294.54 1936.11,-2331.54 1817.17,-2371.57"/>
<polygon fill="#b8bf62" stroke="#b8bf62" stroke-width="2" points="1808.88,-2374.32 1816.96,-2366.91 1811.15,-2373.04 1818.21,-2370.7 1818.37,-2371.18 1818.53,-2371.65 1811.47,-2373.99 1819.78,-2375.45 1808.88,-2374.32"/>
</g>
<!-- 61262 -->
<g id="node48" class="node">
<title>61262</title>
<polygon fill="none" stroke="#dac767" points="2476.1,-2433.53 2476.1,-2448.45 2377.02,-2458.99 2236.89,-2458.99 2137.81,-2448.45 2137.81,-2433.53 2236.89,-2422.99 2377.02,-2422.99 2476.1,-2433.53"/>
<polygon fill="none" stroke="#dac767" points="2480.1,-2429.94 2480.1,-2452.04 2377.23,-2462.99 2236.68,-2462.99 2133.81,-2452.04 2133.81,-2429.94 2236.68,-2418.99 2377.23,-2418.99 2480.1,-2429.94"/>
<text text-anchor="middle" x="2306.95" y="-2435.94" font-family="Times,serif" font-size="14.00">fosslight:BSD Source Code Attribution</text>
</g>
<!-- 677&#45;&gt;61262 -->
<g id="edge14" class="edge">
<title>677&#45;&gt;61262</title>
<path fill="none" stroke="#dac767" stroke-width="2" d="M2205.82,-2079.44C2254.93,-2301.21 2261.31,-2327.94 2293.7,-2408.42"/>
<polygon fill="#dac767" stroke="#dac767" stroke-width="2" points="2296.87,-2416.26 2288.95,-2408.68 2295.45,-2414.07 2292.66,-2407.18 2293.12,-2406.99 2293.59,-2406.8 2296.38,-2413.69 2297.3,-2405.3 2296.87,-2416.26"/>
</g>
<!-- 678 -->
<g id="node5" class="node">
<title>678</title>
<polygon fill="none" stroke="black" points="2254.53,-1995.37 2254.53,-2010.28 2177.19,-2020.82 2067.81,-2020.82 1990.47,-2010.28 1990.47,-1995.37 2067.81,-1984.82 2177.19,-1984.82 2254.53,-1995.37"/>
<polygon fill="none" stroke="black" points="2258.53,-1991.87 2258.53,-2013.77 2177.46,-2024.82 2067.54,-2024.82 1986.47,-2013.77 1986.47,-1991.87 2067.54,-1980.82 2177.46,-1980.82 2258.53,-1991.87"/>
<text text-anchor="middle" x="2122.5" y="-1997.77" font-family="Times,serif" font-size="14.00">BSD Source Code Attribution</text>
</g>
<!-- 678&#45;&gt;676 -->
<g id="edge15" class="edge">
<title>678&#45;&gt;676</title>
<path fill="none" stroke="#dac767" stroke-width="2" d="M2138.69,-1980.37C2207.55,-1884.34 2214.99,-1863.03 2278.33,-1614.04"/>
<polygon fill="#dac767" stroke="#dac767" stroke-width="2" points="2280.5,-1605.53 2282.39,-1616.33 2280.35,-1608.14 2278.52,-1615.34 2278.03,-1615.22 2277.55,-1615.1 2279.38,-1607.89 2273.67,-1614.11 2280.5,-1605.53"/>
</g>
<!-- 678&#45;&gt;10095 -->
<g id="edge16" class="edge">
<title>678&#45;&gt;10095</title>
<path fill="none" stroke="#00876c" stroke-width="2" d="M2141.96,-2025.16C2313.21,-2221.66 2345.09,-2255.17 2453.71,-2292.9"/>
<polygon fill="#00876c" stroke="#00876c" stroke-width="2" points="2461.8,-2295.67 2450.88,-2296.69 2459.22,-2295.31 2452.18,-2292.91 2452.34,-2292.44 2452.5,-2291.96 2459.54,-2294.36 2453.79,-2288.18 2461.8,-2295.67"/>
</g>
<!-- 678&#45;&gt;14513 -->
<g id="edge17" class="edge">
<title>678&#45;&gt;14513</title>
<path fill="none" stroke="#deb256" stroke-width="2" d="M2127.04,-1980.6C2127.68,-1977.1 2128.39,-1973.06 2129.3,-1967.81"/>
<polygon fill="#deb256" stroke="#deb256" stroke-width="2" points="2130.74,-1959.29 2133.5,-1969.9 2130.81,-1961.9 2129.56,-1969.23 2129.07,-1969.14 2128.58,-1969.06 2129.82,-1961.73 2124.63,-1968.39 2130.74,-1959.29"/>
</g>
<!-- 678&#45;&gt;34700 -->
<g id="edge18" class="edge">
<title>678&#45;&gt;34700</title>
<path fill="none" stroke="#e18745" stroke-width="2" d="M2175.27,-1980.48C2286.41,-1931.96 2304.26,-1907.49 2401.5,-1728.58"/>
<polygon fill="#e18745" stroke="#e18745" stroke-width="2" points="2405.63,-1720.97 2404.81,-1731.9 2404.85,-1723.46 2401.3,-1729.99 2400.86,-1729.75 2400.42,-1729.51 2403.97,-1722.98 2396.9,-1727.61 2405.63,-1720.97"/>
</g>
<!-- 678&#45;&gt;59743 -->
<g id="edge19" class="edge">
<title>678&#45;&gt;59743</title>
<path fill="none" stroke="#b8bf62" stroke-width="2" d="M2105.14,-2025.16C1913.14,-2272.27 1888.45,-2301.98 1779.96,-2369.38"/>
<polygon fill="#b8bf62" stroke="#b8bf62" stroke-width="2" points="1772.68,-2373.88 1778.82,-2364.79 1774.59,-2372.11 1780.92,-2368.2 1781.18,-2368.62 1781.45,-2369.05 1775.12,-2372.96 1783.55,-2372.45 1772.68,-2373.88"/>
</g>
<!-- 678&#45;&gt;61262 -->
<g id="edge20" class="edge">
<title>678&#45;&gt;61262</title>
<path fill="none" stroke="#dac767" stroke-width="2" d="M2129.34,-2025.27C2209.91,-2289.66 2219.2,-2316.86 2284.69,-2409.73"/>
<polygon fill="#dac767" stroke="#dac767" stroke-width="2" points="2289.58,-2416.65 2280.13,-2411.08 2287.69,-2414.84 2283.4,-2408.77 2283.8,-2408.48 2284.21,-2408.2 2288.51,-2414.26 2287.48,-2405.88 2289.58,-2416.65"/>
</g>
<!-- 66483 -->
<g id="node50" class="node">
<title>66483</title>
<polygon fill="none" stroke="#00876c" points="2578.88,-1954.24 2578.88,-1969.15 2488.88,-1979.69 2361.6,-1979.69 2271.61,-1969.15 2271.61,-1954.24 2361.6,-1943.69 2488.88,-1943.69 2578.88,-1954.24"/>
<polygon fill="none" stroke="#00876c" points="2582.88,-1950.68 2582.88,-1972.71 2489.11,-1983.69 2361.37,-1983.69 2267.61,-1972.71 2267.61,-1950.68 2361.37,-1939.69 2489.11,-1939.69 2582.88,-1950.68"/>
<text text-anchor="middle" x="2425.24" y="-1956.64" font-family="Times,serif" font-size="14.00">spdx:BSD Source Code Attribution</text>
</g>
<!-- 678&#45;&gt;66483 -->
<g id="edge21" class="edge">
<title>678&#45;&gt;66483</title>
<path fill="none" stroke="#00876c" stroke-width="2" d="M2203.85,-2021.68C2276.31,-2036.19 2304.11,-2029.46 2376.54,-1989.37"/>
<polygon fill="#00876c" stroke="#00876c" stroke-width="2" points="2383.95,-1985.23 2377.41,-1994.04 2381.96,-1986.92 2375.46,-1990.54 2375.22,-1990.11 2374.98,-1989.67 2381.47,-1986.05 2373.03,-1986.18 2383.95,-1985.23"/>
</g>
<!-- 679 -->
<g id="node6" class="node">
<title>679</title>
<text text-anchor="middle" x="2269.8" y="-520.03" font-family="Times,serif" font-size="14.00">$TEXT</text>
</g>
<!-- 679&#45;&gt;675 -->
<g id="edge22" class="edge">
<title>679&#45;&gt;675</title>
<path fill="none" stroke="#dac767" d="M2276.57,-543.05C2318.27,-653.97 2321.18,-671.89 2340.38,-930.88"/>
<polygon fill="#dac767" stroke="#dac767" points="2336.88,-930.97 2341.11,-940.68 2343.86,-930.45 2336.88,-930.97"/>
</g>
<!-- 680 -->
<g id="node7" class="node">
<title>680</title>
<text text-anchor="middle" x="2250.75" y="-289.59" font-family="Times,serif" font-size="14.00">$TEXT</text>
</g>
<!-- 680&#45;&gt;679 -->
<g id="edge23" class="edge">
<title>680&#45;&gt;679</title>
<path fill="none" stroke="#dac767" d="M2253.95,-312.44C2262.64,-361.39 2263.74,-376.7 2268.61,-495.87"/>
<polygon fill="#dac767" stroke="#dac767" points="2265.11,-495.98 2269.02,-505.83 2272.1,-495.7 2265.11,-495.98"/>
</g>
<!-- 681 -->
<g id="node8" class="node">
<title>681</title>
<text text-anchor="middle" x="2651.24" y="-1483.35" font-family="Times,serif" font-size="14.00">https://github.com/robbiehanson/CocoaHTTPServer/blob/master/LICENSE.txt</text>
</g>
<!-- 681&#45;&gt;675 -->
<g id="edge24" class="edge">
<title>681&#45;&gt;675</title>
<path fill="none" stroke="#dac767" d="M2647.84,-1470.77C2590.03,-1171.37 2582.25,-1147.09 2391.46,-1006.54"/>
<polygon fill="#dac767" stroke="#dac767" points="2393.59,-1003.75 2383.46,-1000.65 2389.44,-1009.39 2393.59,-1003.75"/>
</g>
<!-- 14512 -->
<g id="node23" class="node">
<title>14512</title>
<ellipse fill="none" stroke="#deb256" cx="2652.01" cy="-1545.39" rx="158.75" ry="28.99"/>
<text text-anchor="middle" x="2652.01" y="-1548.59" font-family="Times,serif" font-size="14.00" fill="gray">ScancodeData</text>
<text text-anchor="middle" x="2652.01" y="-1532.09" font-family="Times,serif" font-size="14.00" fill="gray">5a8b4e1b2a966f8622f7d76199049a59</text>
</g>
<!-- 681&#45;&gt;14512 -->
<g id="edge25" class="edge">
<title>681&#45;&gt;14512</title>
<path fill="none" stroke="#deb256" d="M2658.15,-1506.17C2658.19,-1506.28 2658.23,-1506.4 2658.26,-1506.52"/>
<polygon fill="#deb256" stroke="#deb256" points="2654.52,-1505.59 2659.87,-1514.74 2661.39,-1504.25 2654.52,-1505.59"/>
</g>
<!-- 34699 -->
<g id="node28" class="node">
<title>34699</title>
<ellipse fill="none" stroke="#e18745" cx="2892.89" cy="-1369.01" rx="157.68" ry="28.99"/>
<text text-anchor="middle" x="2892.89" y="-1372.21" font-family="Times,serif" font-size="14.00" fill="gray">Fossology</text>
<text text-anchor="middle" x="2892.89" y="-1355.71" font-family="Times,serif" font-size="14.00" fill="gray">50bbdaa3dd79baeac153ad09d3a9cf27</text>
</g>
<!-- 681&#45;&gt;34699 -->
<g id="edge26" class="edge">
<title>681&#45;&gt;34699</title>
<path fill="none" stroke="#e18745" d="M2697.5,-1470.41C2784.86,-1436.34 2815.59,-1423.31 2845.44,-1403.8"/>
<polygon fill="#e18745" stroke="#e18745" points="2847.16,-1406.86 2853.48,-1398.36 2843.24,-1401.06 2847.16,-1406.86"/>
</g>
<!-- 5550 -->
<g id="node9" class="node">
<title>5550</title>
<text text-anchor="middle" x="2865.19" y="-2082.17" font-family="Times,serif" font-size="14.00">LicenseType Permissive</text>
</g>
<!-- 10094 -->
<g id="node15" class="node">
<title>10094</title>
<ellipse fill="none" stroke="#00876c" cx="3043.92" cy="-2555.03" rx="155.03" ry="28.99"/>
<text text-anchor="middle" x="3043.92" y="-2558.23" font-family="Times,serif" font-size="14.00" fill="gray">BlueOakCouncil</text>
<text text-anchor="middle" x="3043.92" y="-2541.73" font-family="Times,serif" font-size="14.00" fill="gray">136584f67e1890e96694aef2f1bf034c</text>
</g>
<!-- 5550&#45;&gt;10094 -->
<g id="edge27" class="edge">
<title>5550&#45;&gt;10094</title>
<path fill="none" stroke="#00876c" d="M2874.29,-2104.83C3009.7,-2366.97 3022.59,-2393.84 3038.73,-2514.65"/>
<polygon fill="#00876c" stroke="#00876c" points="3035.23,-2514.89 3040.01,-2524.35 3042.17,-2513.98 3035.23,-2514.89"/>
</g>
<!-- 5550&#45;&gt;14512 -->
<g id="edge28" class="edge">
<title>5550&#45;&gt;14512</title>
<path fill="none" stroke="#deb256" d="M2864.89,-2069.33C2861.56,-1878.9 2856.13,-1862.58 2676.98,-1584.16"/>
<polygon fill="#deb256" stroke="#deb256" points="2679.98,-1582.36 2671.63,-1575.84 2674.1,-1586.15 2679.98,-1582.36"/>
</g>
<!-- 61261 -->
<g id="node47" class="node">
<title>61261</title>
<ellipse fill="none" stroke="#dac767" cx="2761.43" cy="-2488.42" rx="159.28" ry="28.99"/>
<text text-anchor="middle" x="2761.43" y="-2491.62" font-family="Times,serif" font-size="14.00" fill="gray">FOSSLight</text>
<text text-anchor="middle" x="2761.43" y="-2475.12" font-family="Times,serif" font-size="14.00" fill="gray">006e77ba21b27466f3e788ae78a90318</text>
</g>
<!-- 5550&#45;&gt;61261 -->
<g id="edge29" class="edge">
<title>5550&#45;&gt;61261</title>
<path fill="none" stroke="#dac767" d="M2865.21,-2105.06C2865.34,-2326.35 2863.49,-2352.06 2790.29,-2450.34"/>
<polygon fill="#dac767" stroke="#dac767" points="2787.58,-2448.13 2784.38,-2458.23 2793.18,-2452.33 2787.58,-2448.13"/>
</g>
<!-- 6592 -->
<g id="node10" class="node">
<title>6592</title>
<text text-anchor="middle" x="3674.07" y="-1850.6" font-family="Times,serif" font-size="14.00">[&quot;allowed&quot;]</text>
</g>
<!-- 6814 -->
<g id="node12" class="node">
<title>6814</title>
<ellipse fill="none" stroke="#e09d4b" cx="3189.99" cy="-1884.08" rx="160.87" ry="28.99"/>
<text text-anchor="middle" x="3189.99" y="-1887.28" font-family="Times,serif" font-size="14.00" fill="gray">FedoraEntry</text>
<text text-anchor="middle" x="3189.99" y="-1870.78" font-family="Times,serif" font-size="14.00" fill="gray">a461b48f972a9ad8570484d217d39d26</text>
</g>
<!-- 6592&#45;&gt;6814 -->
<g id="edge30" class="edge">
<title>6592&#45;&gt;6814</title>
<path fill="none" stroke="#e09d4b" d="M3634.29,-1866.47C3547.84,-1889.48 3510.46,-1894.12 3359.43,-1889.92"/>
<polygon fill="#e09d4b" stroke="#e09d4b" points="3359.96,-1886.44 3349.87,-1889.65 3359.76,-1893.43 3359.96,-1886.44"/>
</g>
<!-- 6593 -->
<g id="node11" class="node">
<title>6593</title>
<text text-anchor="start" x="4110.4" y="-1931.1" font-family="Times,serif" font-size="14.00">Fedora: </text>
<text text-anchor="start" x="4155.4" y="-1931.1" font-family="Times,serif" font-weight="bold" font-size="14.00" fill="#228b22">allowed</text>
<text text-anchor="start" x="3946.53" y="-1917.1" font-family="Times,serif" font-size="14.00">A license is allowed if Fedora determines that the license is a free software /</text>
<text text-anchor="start" x="3941.28" y="-1903.1" font-family="Times,serif" font-size="14.00">open source license. At a high level, the inquiry involves determining whether</text>
<text text-anchor="start" x="3940.15" y="-1889.1" font-family="Times,serif" font-size="14.00">the license provides software freedom, and (equivalently) making sure that the</text>
<text text-anchor="start" x="3950.28" y="-1875.1" font-family="Times,serif" font-size="14.00">license does not place burdens on users&#39; exercise of its permissions that are</text>
<text text-anchor="start" x="3949.9" y="-1861.1" font-family="Times,serif" font-size="14.00">inconsistent with evolving community norms and traditions around what is</text>
<text text-anchor="start" x="3941.65" y="-1847.1" font-family="Times,serif" font-size="14.00">acceptable in a free software / open source license. See below for more on the</text>
<text text-anchor="start" x="4061.65" y="-1833.1" font-family="Times,serif" font-size="14.00">history of Fedora licensing policy.</text>
</g>
<!-- 6593&#45;&gt;6592 -->
<g id="edge31" class="edge">
<title>6593&#45;&gt;6592</title>
<path fill="none" stroke="#e09d4b" d="M3932.23,-1881.95C3883.89,-1877.67 3819.89,-1871.03 3725.1,-1861.04"/>
<polygon fill="#e09d4b" stroke="#e09d4b" points="3725.51,-1857.56 3715.2,-1859.99 3724.78,-1864.52 3725.51,-1857.56"/>
</g>
<!-- 6814&#45;&gt;6815 -->
<g id="edge32" class="edge">
<title>6814&#45;&gt;6815</title>
<path fill="none" stroke="#e09d4b" d="M3108.53,-1909.4C3011.58,-1936.99 2957.36,-1936.07 2743.67,-1911.15"/>
<polygon fill="#e09d4b" stroke="#e09d4b" points="2744.22,-1907.69 2733.89,-1910 2743.41,-1914.64 2744.22,-1907.69"/>
</g>
<!-- 10004 -->
<g id="node14" class="node">
<title>10004</title>
<text text-anchor="start" x="3417.97" y="-2970.85" font-family="Times,serif" font-size="14.00">BlueOakCouncil: </text>
<text text-anchor="start" x="3516.22" y="-2970.85" font-family="Times,serif" font-weight="bold" font-size="14.00" fill="#000000">Bronze</text>
<text text-anchor="start" x="3280.72" y="-2956.85" font-family="Times,serif" font-size="14.00">These licenses lack important but nonessential elements of permissive open</text>
<text text-anchor="start" x="3282.6" y="-2942.85" font-family="Times,serif" font-size="14.00">software licenses or impose additional requirements or restrictions, such as</text>
<text text-anchor="start" x="3323.47" y="-2928.85" font-family="Times,serif" font-size="14.00">BSD&#45;style prohibitions against endorsement and promotion.</text>
</g>
<!-- 10004&#45;&gt;10094 -->
<g id="edge33" class="edge">
<title>10004&#45;&gt;10094</title>
<path fill="none" stroke="#00876c" d="M3446.23,-2923.32C3345.95,-2845.99 3315.21,-2817.24 3081.59,-2591.44"/>
<polygon fill="#00876c" stroke="#00876c" points="3084.26,-2589.15 3074.64,-2584.72 3079.4,-2594.19 3084.26,-2589.15"/>
</g>
<!-- 10094&#45;&gt;10095 -->
<g id="edge34" class="edge">
<title>10094&#45;&gt;10095</title>
<path fill="none" stroke="#00876c" d="M2921.14,-2536.98C2832.17,-2517.87 2772.38,-2480.33 2571.29,-2345.63"/>
<polygon fill="#00876c" stroke="#00876c" points="2573.43,-2342.85 2563.17,-2340.19 2569.53,-2348.66 2573.43,-2342.85"/>
</g>
<!-- 10096 -->
<g id="node17" class="node">
<title>10096</title>
<text text-anchor="middle" x="3247.94" y="-3008.13" font-family="Times,serif" font-size="14.00">https://spdx.org/licenses/BSD&#45;Source&#45;Code.html</text>
</g>
<!-- 10096&#45;&gt;10094 -->
<g id="edge35" class="edge">
<title>10096&#45;&gt;10094</title>
<path fill="none" stroke="#00876c" d="M3243.01,-2995.56C3207.76,-2869.72 3200.32,-2852.87 3064.47,-2594.14"/>
<polygon fill="#00876c" stroke="#00876c" points="3067.61,-2592.61 3059.86,-2585.38 3061.41,-2595.86 3067.61,-2592.61"/>
</g>
<!-- 11061 -->
<g id="node18" class="node">
<title>11061</title>
<ellipse fill="none" stroke="#78ab63" cx="1262.74" cy="-1676.31" rx="158.75" ry="28.99"/>
<text text-anchor="middle" x="1262.74" y="-1679.51" font-family="Times,serif" font-size="14.00" fill="gray">OSADLRule</text>
<text text-anchor="middle" x="1262.74" y="-1663.01" font-family="Times,serif" font-size="14.00" fill="gray">8fc855752450444594e099cb55f6927a</text>
</g>
<!-- 11061&#45;&gt;11062 -->
<g id="edge36" class="edge">
<title>11061&#45;&gt;11062</title>
<path fill="none" stroke="#78ab63" d="M1352.55,-1700.61C1432.29,-1719.66 1489.95,-1721.47 1682.56,-1716.68"/>
<polygon fill="#78ab63" stroke="#78ab63" points="1682.51,-1720.19 1692.42,-1716.44 1682.34,-1713.19 1682.51,-1720.19"/>
</g>
<!-- 11063 -->
<g id="node20" class="node">
<title>11063</title>
<text text-anchor="middle" x="880.46" y="-1641.84" font-family="Times,serif" font-size="14.00">$RULE</text>
</g>
<!-- 11063&#45;&gt;11061 -->
<g id="edge37" class="edge">
<title>11063&#45;&gt;11061</title>
<path fill="none" stroke="#78ab63" d="M909.26,-1653.02C970.62,-1665.88 1000.04,-1670.02 1093.25,-1672.79"/>
<polygon fill="#78ab63" stroke="#78ab63" points="1093.02,-1676.29 1103.12,-1673.07 1093.22,-1669.29 1093.02,-1676.29"/>
</g>
<!-- 11209 -->
<g id="node21" class="node">
<title>11209</title>
<ellipse fill="none" stroke="#78ab63" cx="1356.3" cy="-1418.06" rx="160.34" ry="28.99"/>
<text text-anchor="middle" x="1356.3" y="-1421.26" font-family="Times,serif" font-size="14.00" fill="gray">OSADLMatrix</text>
<text text-anchor="middle" x="1356.3" y="-1404.76" font-family="Times,serif" font-size="14.00" fill="gray">e35b266575081c073abe921a3658a7e5</text>
</g>
<!-- 11209&#45;&gt;11062 -->
<g id="edge38" class="edge">
<title>11209&#45;&gt;11062</title>
<path fill="none" stroke="#78ab63" d="M1378.48,-1447.26C1469.42,-1566.18 1493.72,-1581.99 1747.02,-1687.62"/>
<polygon fill="#78ab63" stroke="#78ab63" points="1745.33,-1690.7 1755.9,-1691.32 1748.02,-1684.24 1745.33,-1690.7"/>
</g>
<!-- 11210 -->
<g id="node22" class="node">
<title>11210</title>
<text text-anchor="middle" x="999.2" y="-1190.7" font-family="Times,serif" font-size="14.00">$COMPATIBILITIES</text>
</g>
<!-- 11210&#45;&gt;11209 -->
<g id="edge39" class="edge">
<title>11210&#45;&gt;11209</title>
<path fill="none" stroke="#78ab63" d="M1017.19,-1213.33C1088.61,-1282.8 1108.84,-1296.15 1290,-1385.46"/>
<polygon fill="#78ab63" stroke="#78ab63" points="1288.29,-1388.52 1298.81,-1389.8 1291.39,-1382.24 1288.29,-1388.52"/>
</g>
<!-- 14512&#45;&gt;14513 -->
<g id="edge40" class="edge">
<title>14512&#45;&gt;14513</title>
<path fill="none" stroke="#deb256" d="M2634.78,-1574.55C2493.4,-1813.53 2471.64,-1836.71 2213.66,-1911.97"/>
<polygon fill="#deb256" stroke="#deb256" points="2212.87,-1908.56 2204.25,-1914.71 2214.83,-1915.28 2212.87,-1908.56"/>
</g>
<!-- 14513&#45;&gt;676 -->
<g id="edge41" class="edge">
<title>14513&#45;&gt;676</title>
<path fill="none" stroke="#00876c" stroke-width="2" d="M2148.33,-1912.3C2178.33,-1852.3 2249.05,-1687.33 2276.72,-1613.46"/>
<polygon fill="#00876c" stroke="#00876c" stroke-width="2" points="2279.64,-1605.54 2280.41,-1616.48 2279.22,-1608.12 2276.65,-1615.09 2276.18,-1614.92 2275.71,-1614.75 2278.28,-1607.77 2271.96,-1613.37 2279.64,-1605.54"/>
</g>
<!-- 44445 -->
<g id="node40" class="node">
<title>44445</title>
<polygon fill="none" stroke="#379469" points="1832.1,-2016.6 1832.1,-2031.52 1727.5,-2042.06 1579.57,-2042.06 1474.97,-2031.52 1474.97,-2016.6 1579.57,-2006.06 1727.5,-2006.06 1832.1,-2016.6"/>
<text text-anchor="middle" x="1653.53" y="-2019.01" font-family="Times,serif" font-size="14.00">metaeffekt:BSD&#45;3&#45;Clause&#45;without&#45;binary</text>
</g>
<!-- 14513&#45;&gt;44445 -->
<g id="edge42" class="edge">
<title>14513&#45;&gt;44445</title>
<path fill="none" stroke="#379469" stroke-dasharray="5,2" d="M2083.99,-1956.73C1897.07,-2037.59 1847.5,-2054.95 1754.21,-2042.46"/>
<polygon fill="#379469" stroke="#379469" points="1744.43,-2041.06 1754.96,-2038.03 1748.17,-2041.6 1754.33,-2042.48 1754.33,-2042.48 1754.33,-2042.48 1748.17,-2041.6 1753.69,-2046.93 1744.43,-2041.06"/>
</g>
<!-- 14513&#45;&gt;59743 -->
<g id="edge43" class="edge">
<title>14513&#45;&gt;59743</title>
<path fill="none" stroke="#b8bf62" stroke-width="2" d="M2119.08,-1956.92C1910.85,-2250.39 1888.92,-2279.49 1772.57,-2368.27"/>
<polygon fill="#b8bf62" stroke="#b8bf62" stroke-width="2" points="1765.59,-2373.57 1770.83,-2363.94 1767.33,-2371.62 1773.25,-2367.12 1773.55,-2367.52 1773.85,-2367.92 1767.94,-2372.42 1776.28,-2371.1 1765.59,-2373.57"/>
</g>
<!-- 14514 -->
<g id="node25" class="node">
<title>14514</title>
<text text-anchor="middle" x="2855.42" y="-997.04" font-family="Times,serif" font-size="14.00">https://github.com/infusion/PHP/blob/master/TSRM/LICENSE</text>
</g>
<!-- 14514&#45;&gt;14512 -->
<g id="edge44" class="edge">
<title>14514&#45;&gt;14512</title>
<path fill="none" stroke="#deb256" d="M2855.81,-1019.82C2860.04,-1219.32 2855.23,-1235.51 2677.14,-1507.1"/>
<polygon fill="#deb256" stroke="#deb256" points="2674.4,-1504.91 2671.84,-1515.19 2680.25,-1508.75 2674.4,-1504.91"/>
</g>
<!-- 14515 -->
<g id="node26" class="node">
<title>14515</title>
<text text-anchor="middle" x="3032.44" y="-1114.6" font-family="Times,serif" font-size="14.00">https://github.com/infusion/PHP/blob/master/TSRM/LICENSE</text>
</g>
<!-- 14515&#45;&gt;14512 -->
<g id="edge45" class="edge">
<title>14515&#45;&gt;14512</title>
<path fill="none" stroke="#deb256" d="M3024.7,-1137.2C2955.73,-1293.22 2943.42,-1308.53 2696.01,-1509.65"/>
<polygon fill="#deb256" stroke="#deb256" points="2693.84,-1506.91 2688.29,-1515.93 2698.25,-1512.34 2693.84,-1506.91"/>
</g>
<!-- 14516 -->
<g id="node27" class="node">
<title>14516</title>
<text text-anchor="middle" x="2691.08" y="-1170.17" font-family="Times,serif" font-size="14.00">$TEXT</text>
</g>
<!-- 14516&#45;&gt;14512 -->
<g id="edge46" class="edge">
<title>14516&#45;&gt;14512</title>
<path fill="none" stroke="#deb256" d="M2696.72,-1193.08C2739.06,-1327.58 2739.2,-1343.67 2669.22,-1505.73"/>
<polygon fill="#deb256" stroke="#deb256" points="2666.09,-1504.15 2665.33,-1514.72 2672.52,-1506.93 2666.09,-1504.15"/>
</g>
<!-- 34699&#45;&gt;34700 -->
<g id="edge47" class="edge">
<title>34699&#45;&gt;34700</title>
<path fill="none" stroke="#e18745" d="M2871.67,-1398.17C2776.22,-1528.64 2752.31,-1545.03 2478.54,-1669.37"/>
<polygon fill="#e18745" stroke="#e18745" points="2477.31,-1666.08 2469.65,-1673.4 2480.21,-1672.46 2477.31,-1666.08"/>
</g>
<!-- 34701 -->
<g id="node30" class="node">
<title>34701</title>
<text text-anchor="middle" x="3241.72" y="-1158.99" font-family="Times,serif" font-size="14.00">$TEXT</text>
</g>
<!-- 34701&#45;&gt;34699 -->
<g id="edge48" class="edge">
<title>34701&#45;&gt;34699</title>
<path fill="none" stroke="#e18745" d="M3220.2,-1181.92C3151.53,-1238.65 3129.46,-1251.93 2958.84,-1336.42"/>
<polygon fill="#e18745" stroke="#e18745" points="2957.5,-1333.17 2950.09,-1340.75 2960.61,-1339.45 2957.5,-1333.17"/>
</g>
<!-- 35432 -->
<g id="node31" class="node">
<title>35432</title>
<text text-anchor="middle" x="3570.87" y="-1383.19" font-family="Times,serif" font-size="14.00">LicenseTag (ScopedLicenseTag &quot;OrtLicenseCategorization&quot; &quot;permissive&quot; NoLicenseTagText)</text>
</g>
<!-- 35516 -->
<g id="node33" class="node">
<title>35516</title>
<ellipse fill="none" stroke="#d43d51" cx="2942.97" cy="-1621.33" rx="158.22" ry="28.99"/>
<text text-anchor="middle" x="2942.97" y="-1624.53" font-family="Times,serif" font-size="14.00" fill="gray">OrtLicenseCategorization</text>
<text text-anchor="middle" x="2942.97" y="-1608.03" font-family="Times,serif" font-size="14.00" fill="gray">d2aeebde54ebcb54bb0ab5fd7580de03</text>
</g>
<!-- 35432&#45;&gt;35516 -->
<g id="edge49" class="edge">
<title>35432&#45;&gt;35516</title>
<path fill="none" stroke="#d43d51" d="M3542.85,-1406.15C3402.92,-1495.27 3371.41,-1508.13 3045.07,-1594.42"/>
<polygon fill="#d43d51" stroke="#d43d51" points="3044.57,-1590.93 3035.8,-1596.87 3046.36,-1597.7 3044.57,-1590.93"/>
</g>
<!-- 35433 -->
<g id="node32" class="node">
<title>35433</title>
<text text-anchor="middle" x="3629.6" y="-1934.28" font-family="Times,serif" font-size="14.00">LicenseTag (ScopedLicenseTag &quot;OrtLicenseCategorization&quot; &quot;include&#45;in&#45;notice&#45;file&quot; NoLicenseTagText)</text>
</g>
<!-- 35433&#45;&gt;35516 -->
<g id="edge50" class="edge">
<title>35433&#45;&gt;35516</title>
<path fill="none" stroke="#d43d51" d="M3601.14,-1921.43C3442.09,-1821.58 3411.78,-1807.4 3020.73,-1652.18"/>
<polygon fill="#d43d51" stroke="#d43d51" points="3022.24,-1649.01 3011.65,-1648.57 3019.65,-1655.51 3022.24,-1649.01"/>
</g>
<!-- 35516&#45;&gt;676 -->
<g id="edge51" class="edge">
<title>35516&#45;&gt;676</title>
<path fill="none" stroke="#d43d51" d="M2784.33,-1621.67C2706.54,-1619.38 2621.68,-1611.46 2415.49,-1590.15"/>
<polygon fill="#d43d51" stroke="#d43d51" points="2416.12,-1586.7 2405.81,-1589.15 2415.4,-1593.66 2416.12,-1586.7"/>
</g>
<!-- 39999 -->
<g id="node34" class="node">
<title>39999</title>
<text text-anchor="middle" x="748.06" y="-684.14" font-family="Times,serif" font-size="14.00">LicenseTag (ScopedLicenseTag &quot;OrtLicenseCategorization&quot; &quot;permissive&quot; (LicenseTagDescription &quot;Open source license that is made available under \&quot;non&#45;copyleft\&quot; licenses. These generally require attribution of the included works and may include other obligations.&quot;))</text>
</g>
<!-- 40060 -->
<g id="node37" class="node">
<title>40060</title>
<ellipse fill="none" stroke="#e06f45" cx="1853.48" cy="-1122.48" rx="156.09" ry="28.99"/>
<text text-anchor="middle" x="1853.48" y="-1125.68" font-family="Times,serif" font-size="14.00" fill="gray">OrtLicenseCategorization</text>
<text text-anchor="middle" x="1853.48" y="-1109.18" font-family="Times,serif" font-size="14.00" fill="gray">403b024f89adf4d9e0eb4f23694f7245</text>
</g>
<!-- 39999&#45;&gt;40060 -->
<g id="edge52" class="edge">
<title>39999&#45;&gt;40060</title>
<path fill="none" stroke="#e06f45" d="M825.71,-707.17C1099.9,-771.34 1159.53,-797.11 1785.22,-1090.47"/>
<polygon fill="#e06f45" stroke="#e06f45" points="1783.49,-1093.53 1794.03,-1094.61 1786.47,-1087.19 1783.49,-1093.53"/>
</g>
<!-- 40001 -->
<g id="node35" class="node">
<title>40001</title>
<text text-anchor="middle" x="990.44" y="-185.91" font-family="Times,serif" font-size="14.00">LicenseTag (ScopedLicenseTag &quot;OrtLicenseCategorization&quot; &quot;property:include&#45;in&#45;notice&#45;file&quot; (LicenseTagDescription &quot;Whether the license includes a notice obligation or similar which can be fulfilled by adding the relevant copyright notices and the license text into the project/product notice file.&quot;))</text>
</g>
<!-- 40001&#45;&gt;40060 -->
<g id="edge53" class="edge">
<title>40001&#45;&gt;40060</title>
<path fill="none" stroke="#e06f45" d="M1007.37,-208.79C1248.28,-462.58 1265.39,-481.06 1819.82,-1085.77"/>
<polygon fill="#e06f45" stroke="#e06f45" points="1816.83,-1087.69 1826.17,-1092.7 1821.99,-1082.96 1816.83,-1087.69"/>
</g>
<!-- 40002 -->
<g id="node36" class="node">
<title>40002</title>
<text text-anchor="middle" x="1380.64" y="-12.47" font-family="Times,serif" font-size="14.00">LicenseTag (ScopedLicenseTag &quot;OrtLicenseCategorization&quot; &quot;include&#45;in&#45;notice&#45;file&quot; (LicenseTagDescription &quot;Same as above, as a temporary work&#45;around for the category name not being configurable in ORT reports, see https://github.com/oss&#45;review&#45;toolkit/ort/issues/8220.&quot;))</text>
</g>
<!-- 40002&#45;&gt;40060 -->
<g id="edge54" class="edge">
<title>40002&#45;&gt;40060</title>
<path fill="none" stroke="#e06f45" d="M1386.44,-35.49C1490.84,-358.64 1498.73,-377.08 1834.67,-1082.96"/>
<polygon fill="#e06f45" stroke="#e06f45" points="1831.4,-1084.24 1838.86,-1091.77 1837.72,-1081.24 1831.4,-1084.24"/>
</g>
<!-- 40060&#45;&gt;676 -->
<g id="edge55" class="edge">
<title>40060&#45;&gt;676</title>
<path fill="none" stroke="#e06f45" d="M1886.63,-1151.26C1995.09,-1245.73 2019.77,-1272.61 2257.19,-1542.16"/>
<polygon fill="#e06f45" stroke="#e06f45" points="2254.4,-1544.29 2263.63,-1549.48 2259.65,-1539.66 2254.4,-1544.29"/>
</g>
<!-- 41206 -->
<g id="node38" class="node">
<title>41206</title>
<ellipse fill="none" stroke="#379469" cx="2102.01" cy="-3002.13" rx="154.5" ry="28.99"/>
<text text-anchor="middle" x="2102.01" y="-3005.33" font-family="Times,serif" font-size="14.00" fill="gray">CavilLicenseChange</text>
<text text-anchor="middle" x="2102.01" y="-2988.83" font-family="Times,serif" font-size="14.00" fill="gray">977694722eca76fa1e9c398eebfccac2</text>
</g>
<!-- 41206&#45;&gt;41207 -->
<g id="edge56" class="edge">
<title>41206&#45;&gt;41207</title>
<path fill="none" stroke="#379469" d="M2102.58,-2972.67C2104.75,-2860.88 2105.76,-2835.63 2118.03,-2556.81"/>
<polygon fill="#379469" stroke="#379469" points="2121.52,-2557.16 2118.47,-2547.01 2114.53,-2556.85 2121.52,-2557.16"/>
</g>
<!-- 59742 -->
<g id="node41" class="node">
<title>59742</title>
<ellipse fill="none" stroke="#b8bf62" cx="1213.58" cy="-2664.14" rx="156.09" ry="28.99"/>
<text text-anchor="middle" x="1213.58" y="-2667.34" font-family="Times,serif" font-size="14.00" fill="gray">FossLicense</text>
<text text-anchor="middle" x="1213.58" y="-2650.84" font-family="Times,serif" font-size="14.00" fill="gray">9acf55e367ee8c360beb35383c2f51e6</text>
</g>
<!-- 59742&#45;&gt;59743 -->
<g id="edge57" class="edge">
<title>59742&#45;&gt;59743</title>
<path fill="none" stroke="#b8bf62" d="M1317.5,-2642.1C1416.1,-2617.03 1471.35,-2580.88 1692.74,-2426.27"/>
<polygon fill="#b8bf62" stroke="#b8bf62" points="1694.6,-2429.23 1700.8,-2420.64 1690.6,-2423.49 1694.6,-2429.23"/>
</g>
<!-- 59744 -->
<g id="node43" class="node">
<title>59744</title>
<polygon fill="none" stroke="#b8bf62" points="1341.91,-2464.62 1341.91,-2479.53 1272.03,-2490.08 1173.21,-2490.08 1103.33,-2479.53 1103.33,-2464.62 1173.21,-2454.08 1272.03,-2454.08 1341.91,-2464.62"/>
<polygon fill="none" stroke="#b8bf62" points="1345.91,-2461.18 1345.91,-2482.98 1272.33,-2494.08 1172.91,-2494.08 1099.33,-2482.98 1099.33,-2461.18 1172.91,-2450.08 1272.33,-2450.08 1345.91,-2461.18"/>
<text text-anchor="middle" x="1222.62" y="-2467.03" font-family="Times,serif" font-size="14.00">BSD Source Code License</text>
</g>
<!-- 59744&#45;&gt;59743 -->
<g id="edge58" class="edge">
<title>59744&#45;&gt;59743</title>
<path fill="none" stroke="#b8bf62" stroke-width="2" d="M1303.23,-2489.87C1412.05,-2511.17 1457.87,-2499.94 1663.7,-2423.63"/>
<polygon fill="#b8bf62" stroke="#b8bf62" stroke-width="2" points="1671.65,-2420.68 1663.85,-2428.38 1669.43,-2422.04 1662.45,-2424.63 1662.28,-2424.16 1662.11,-2423.69 1669.08,-2421.1 1660.71,-2419.94 1671.65,-2420.68"/>
</g>
<!-- 59745 -->
<g id="node44" class="node">
<title>59745</title>
<polygon fill="none" stroke="#b8bf62" points="1560.81,-2850.92 1560.81,-2865.83 1489.31,-2876.38 1388.19,-2876.38 1316.69,-2865.83 1316.69,-2850.92 1388.19,-2840.38 1489.31,-2840.38 1560.81,-2850.92"/>
<polygon fill="none" stroke="#b8bf62" points="1564.81,-2847.47 1564.81,-2869.29 1489.6,-2880.38 1387.9,-2880.38 1312.69,-2869.29 1312.69,-2847.47 1387.9,-2836.38 1489.6,-2836.38 1564.81,-2847.47"/>
<text text-anchor="middle" x="1438.75" y="-2853.33" font-family="Times,serif" font-size="14.00">scancode://bsd&#45;source&#45;code</text>
</g>
<!-- 59745&#45;&gt;59743 -->
<g id="edge59" class="edge">
<title>59745&#45;&gt;59743</title>
<path fill="none" stroke="#b8bf62" stroke-width="2" d="M1454.6,-2836.08C1532.02,-2727.1 1545.04,-2706.44 1714.42,-2429.43"/>
<polygon fill="#b8bf62" stroke="#b8bf62" stroke-width="2" points="1718.98,-2421.97 1717.6,-2432.85 1718.07,-2424.42 1714.19,-2430.77 1713.77,-2430.51 1713.34,-2430.24 1717.22,-2423.9 1709.93,-2428.16 1718.98,-2421.97"/>
</g>
<!-- 59746 -->
<g id="node45" class="node">
<title>59746</title>
<polygon fill="none" stroke="#b8bf62" points="1750.13,-2861.66 1750.13,-2876.57 1700.04,-2887.11 1629.22,-2887.11 1579.13,-2876.57 1579.13,-2861.66 1629.22,-2851.11 1700.04,-2851.11 1750.13,-2861.66"/>
<polygon fill="none" stroke="#b8bf62" points="1754.13,-2858.41 1754.13,-2879.82 1700.46,-2891.11 1628.8,-2891.11 1575.13,-2879.82 1575.13,-2858.41 1628.8,-2847.11 1700.46,-2847.11 1754.13,-2858.41"/>
<text text-anchor="middle" x="1664.63" y="-2864.06" font-family="Times,serif" font-size="14.00">BSD Source Code</text>
</g>
<!-- 59746&#45;&gt;59743 -->
<g id="edge60" class="edge">
<title>59746&#45;&gt;59743</title>
<path fill="none" stroke="#b8bf62" stroke-width="2" d="M1664.1,-2846.79C1661.35,-2724.45 1664.63,-2704.93 1726.52,-2430.5"/>
<polygon fill="#b8bf62" stroke="#b8bf62" stroke-width="2" points="1728.4,-2422.16 1730.59,-2432.91 1728.32,-2424.77 1726.69,-2432.03 1726.2,-2431.92 1725.71,-2431.81 1727.35,-2424.55 1721.81,-2430.93 1728.4,-2422.16"/>
</g>
<!-- 59747 -->
<g id="node46" class="node">
<title>59747</title>
<polygon fill="none" stroke="#b8bf62" points="1471.21,-2737.11 1471.21,-2752.02 1402.96,-2762.56 1306.43,-2762.56 1238.17,-2752.02 1238.17,-2737.11 1306.43,-2726.56 1402.96,-2726.56 1471.21,-2737.11"/>
<polygon fill="none" stroke="#b8bf62" points="1475.21,-2733.68 1475.21,-2755.45 1403.26,-2766.56 1306.12,-2766.56 1234.17,-2755.45 1234.17,-2733.68 1306.12,-2722.56 1403.26,-2722.56 1475.21,-2733.68"/>
<text text-anchor="middle" x="1354.69" y="-2739.51" font-family="Times,serif" font-size="14.00">scancode:bsd&#45;source&#45;code</text>
</g>
<!-- 59747&#45;&gt;59743 -->
<g id="edge61" class="edge">
<title>59747&#45;&gt;59743</title>
<path fill="none" stroke="#b8bf62" stroke-width="2" d="M1390.01,-2722.19C1488.34,-2659.34 1511.76,-2636.09 1705.73,-2427.79"/>
<polygon fill="#b8bf62" stroke="#b8bf62" stroke-width="2" points="1711.64,-2421.44 1708.12,-2431.83 1710.26,-2423.66 1705.19,-2429.1 1704.82,-2428.76 1704.46,-2428.42 1709.53,-2422.98 1701.53,-2425.7 1711.64,-2421.44"/>
</g>
<!-- 61261&#45;&gt;61262 -->
<g id="edge62" class="edge">
<title>61261&#45;&gt;61262</title>
<path fill="none" stroke="#dac767" d="M2679.2,-2513.67C2571.41,-2544.05 2531.76,-2535.35 2370.28,-2467.74"/>
<polygon fill="#dac767" stroke="#dac767" points="2371.95,-2464.64 2361.37,-2464 2369.24,-2471.1 2371.95,-2464.64"/>
</g>
<!-- 66482 -->
<g id="node49" class="node">
<title>66482</title>
<ellipse fill="none" stroke="#00876c" cx="2722.53" cy="-1688.73" rx="159.81" ry="28.99"/>
<text text-anchor="middle" x="2722.53" y="-1691.93" font-family="Times,serif" font-size="14.00" fill="gray">LicenseLynx</text>
<text text-anchor="middle" x="2722.53" y="-1675.43" font-family="Times,serif" font-size="14.00" fill="gray">32093ef3ba572287565a9a059b379dc6</text>
</g>
<!-- 66482&#45;&gt;676 -->
<g id="edge63" class="edge">
<title>66482&#45;&gt;676</title>
<path fill="none" stroke="#00876c" d="M2613.36,-1667.18C2562.46,-1655.67 2506.09,-1639.89 2373.38,-1601.62"/>
<polygon fill="#00876c" stroke="#00876c" points="2374.46,-1598.29 2363.88,-1598.88 2372.52,-1605.01 2374.46,-1598.29"/>
</g>
<!-- 66483&#45;&gt;676 -->
<g id="edge64" class="edge">
<title>66483&#45;&gt;676</title>
<path fill="none" stroke="#00876c" stroke-width="2" d="M2420.98,-1939.44C2402.11,-1841.82 2395.05,-1822.81 2303.64,-1613.26"/>
<polygon fill="#00876c" stroke="#00876c" stroke-width="2" points="2300.2,-1605.37 2308.32,-1612.73 2301.68,-1607.52 2304.66,-1614.33 2304.2,-1614.53 2303.74,-1614.73 2300.77,-1607.92 2300.07,-1616.33 2300.2,-1605.37"/>
</g>
</g>
</svg>
