<?xml version="1.0" encoding="UTF-8" standalone="no"?>
<!DOCTYPE svg PUBLIC "-//W3C//DTD SVG 1.1//EN"
 "http://www.w3.org/Graphics/SVG/1.1/DTD/svg11.dtd">
<!-- Generated by graphviz version 10.0.1 (0)
 -->
<!-- Pages: 1 -->
<svg width="3138pt" height="2586pt"
 viewBox="0.00 0.00 3138.00 2585.72" xmlns="http://www.w3.org/2000/svg" xmlns:xlink="http://www.w3.org/1999/xlink">
<g id="graph0" class="graph" transform="scale(1 1) rotate(0) translate(4 2561)">
<polygon fill="white" stroke="none" points="-4,24.72 -4,-2561 3134,-2561 3134,24.72 -4,24.72"/>
<!-- 5 -->
<g id="node1" class="node">
<title>5</title>
<text text-anchor="start" x="2091.89" y="-801.4" font-family="Times,serif" font-size="14.00">OSI: </text>
<text text-anchor="start" x="2121.14" y="-801.4" font-family="Times,serif" font-weight="bold" font-size="14.00" fill="#8b0000">Rejected</text>
</g>
<!-- 561 -->
<g id="node2" class="node">
<title>561</title>
<ellipse fill="none" stroke="#dac767" cx="2005.03" cy="-1029.23" rx="155.56" ry="28.99"/>
<text text-anchor="middle" x="2005.03" y="-1032.43" font-family="Times,serif" font-size="14.00" fill="gray">SPDXLicense</text>
<text text-anchor="middle" x="2005.03" y="-1015.93" font-family="Times,serif" font-size="14.00" fill="gray">5529c3e3fa073464f0bacd4a7f54d0e7</text>
</g>
<!-- 5&#45;&gt;561 -->
<g id="edge1" class="edge">
<title>5&#45;&gt;561</title>
<path fill="none" stroke="#dac767" d="M2126.93,-823.26C2111.36,-881.22 2103.65,-895.6 2033.4,-990.88"/>
<polygon fill="#dac767" stroke="#dac767" points="2030.66,-988.7 2027.54,-998.82 2036.29,-992.85 2030.66,-988.7"/>
</g>
<!-- 562 -->
<g id="node3" class="node">
<title>562</title>
<polygon fill="none" stroke="black" points="1692.25,-1278.1 1692.25,-1293.02 1627.56,-1303.56 1536.08,-1303.56 1471.4,-1293.02 1471.4,-1278.1 1536.08,-1267.56 1627.56,-1267.56 1692.25,-1278.1"/>
<polygon fill="none" stroke="black" points="1696.25,-1274.7 1696.25,-1296.42 1627.89,-1307.56 1535.76,-1307.56 1467.4,-1296.42 1467.4,-1274.7 1535.76,-1263.56 1627.89,-1263.56 1696.25,-1274.7"/>
<polygon fill="none" stroke="black" points="1700.25,-1271.3 1700.25,-1299.82 1628.21,-1311.56 1535.43,-1311.56 1463.4,-1299.82 1463.4,-1271.3 1535.43,-1259.56 1628.21,-1259.56 1700.25,-1271.3"/>
<text text-anchor="middle" x="1581.82" y="-1280.51" font-family="Times,serif" font-size="14.00">spdx:BSD&#45;3&#45;Clause&#45;Sun</text>
</g>
<!-- 561&#45;&gt;562 -->
<g id="edge2" class="edge">
<title>561&#45;&gt;562</title>
<path fill="none" stroke="#dac767" d="M1962.01,-1057.53C1882.3,-1109.74 1847.4,-1130.53 1636.83,-1253.45"/>
<polygon fill="#dac767" stroke="#dac767" points="1635.18,-1250.37 1628.31,-1258.43 1638.71,-1256.41 1635.18,-1250.37"/>
</g>
<!-- 6780 -->
<g id="node15" class="node">
<title>6780</title>
<polygon fill="none" stroke="#e09d4b" points="1409.28,-1420.93 1409.28,-1435.84 1339.4,-1446.39 1240.58,-1446.39 1170.7,-1435.84 1170.7,-1420.93 1240.58,-1410.39 1339.4,-1410.39 1409.28,-1420.93"/>
<polygon fill="none" stroke="#e09d4b" points="1413.28,-1417.49 1413.28,-1439.28 1339.7,-1450.39 1240.28,-1450.39 1166.7,-1439.28 1166.7,-1417.49 1240.28,-1406.39 1339.7,-1406.39 1413.28,-1417.49"/>
<text text-anchor="middle" x="1289.99" y="-1423.34" font-family="Times,serif" font-size="14.00">Fedora:BSD&#45;3&#45;Clause&#45;Sun</text>
</g>
<!-- 562&#45;&gt;6780 -->
<g id="edge3" class="edge">
<title>562&#45;&gt;6780</title>
<path fill="none" stroke="#e09d4b" stroke-width="2" d="M1532.19,-1311.46C1427.55,-1366.05 1391.21,-1384.64 1352.15,-1401.99"/>
<polygon fill="#e09d4b" stroke="#e09d4b" stroke-width="2" points="1344.35,-1405.42 1351.69,-1397.28 1346.49,-1403.93 1353.3,-1400.94 1353.5,-1401.4 1353.7,-1401.86 1346.89,-1404.85 1355.31,-1405.52 1344.35,-1405.42"/>
</g>
<!-- 14268 -->
<g id="node21" class="node">
<title>14268</title>
<polygon fill="none" stroke="black" points="1471.71,-1636.88 1471.71,-1651.79 1402.16,-1662.33 1303.79,-1662.33 1234.24,-1651.79 1234.24,-1636.88 1303.79,-1626.33 1402.16,-1626.33 1471.71,-1636.88"/>
<polygon fill="none" stroke="black" points="1475.71,-1633.44 1475.71,-1655.23 1402.46,-1666.33 1303.49,-1666.33 1230.24,-1655.23 1230.24,-1633.44 1303.49,-1622.33 1402.46,-1622.33 1475.71,-1633.44"/>
<text text-anchor="middle" x="1352.97" y="-1639.28" font-family="Times,serif" font-size="14.00">scancode:bsd&#45;3&#45;clause&#45;sun</text>
</g>
<!-- 562&#45;&gt;14268 -->
<g id="edge4" class="edge">
<title>562&#45;&gt;14268</title>
<path fill="none" stroke="#deb256" stroke-width="2" d="M1560.42,-1311.94C1514.67,-1376.54 1408.9,-1542.3 1368.69,-1612.36"/>
<polygon fill="#deb256" stroke="#deb256" stroke-width="2" points="1364.45,-1619.86 1365.46,-1608.94 1365.28,-1617.38 1368.94,-1610.91 1369.38,-1611.15 1369.81,-1611.4 1366.15,-1617.87 1373.29,-1613.37 1364.45,-1619.86"/>
</g>
<!-- 44584 -->
<g id="node36" class="node">
<title>44584</title>
<polygon fill="none" stroke="#379469" points="1703.94,-1767.65 1703.94,-1782.56 1566.88,-1793.11 1373.06,-1793.11 1236.01,-1782.56 1236.01,-1767.65 1373.06,-1757.11 1566.88,-1757.11 1703.94,-1767.65"/>
<polygon fill="none" stroke="#379469" points="1707.94,-1763.95 1707.94,-1786.27 1567.04,-1797.11 1372.91,-1797.11 1232.01,-1786.27 1232.01,-1763.95 1372.91,-1753.11 1567.04,-1753.11 1707.94,-1763.95"/>
<text text-anchor="middle" x="1469.97" y="-1770.06" font-family="Times,serif" font-size="14.00">metaeffekt:BSD 3&#45;Clause License (Sun Microsystems)</text>
</g>
<!-- 562&#45;&gt;44584 -->
<g id="edge5" class="edge">
<title>562&#45;&gt;44584</title>
<path fill="none" stroke="#379469" stroke-width="2" d="M1576.42,-1311.59C1516.02,-1602.87 1510.07,-1630.49 1479.19,-1741.94"/>
<polygon fill="#379469" stroke="#379469" stroke-width="2" points="1476.88,-1750.29 1475.21,-1739.45 1477.08,-1747.69 1479.07,-1740.52 1479.55,-1740.65 1480.03,-1740.79 1478.04,-1747.95 1483.89,-1741.86 1476.88,-1750.29"/>
</g>
<!-- 563 -->
<g id="node4" class="node">
<title>563</title>
<polygon fill="none" stroke="black" points="1718.28,-1563.74 1718.28,-1578.66 1666.25,-1589.2 1592.67,-1589.2 1540.64,-1578.66 1540.64,-1563.74 1592.67,-1553.2 1666.25,-1553.2 1718.28,-1563.74"/>
<polygon fill="none" stroke="black" points="1722.28,-1560.47 1722.28,-1581.93 1666.65,-1593.2 1592.27,-1593.2 1536.64,-1581.93 1536.64,-1560.47 1592.27,-1549.2 1666.65,-1549.2 1722.28,-1560.47"/>
<text text-anchor="middle" x="1629.46" y="-1566.15" font-family="Times,serif" font-size="14.00">BSD&#45;3&#45;Clause&#45;Sun</text>
</g>
<!-- 563&#45;&gt;562 -->
<g id="edge6" class="edge">
<title>563&#45;&gt;562</title>
<path fill="none" stroke="black" stroke-width="2" d="M1627.21,-1548.81C1620.95,-1487.37 1617.65,-1468.38 1589.06,-1322.49"/>
<polygon fill="black" stroke="black" stroke-width="2" points="1587.43,-1314.15 1593.77,-1323.1 1588.41,-1316.57 1589.84,-1323.87 1589.35,-1323.97 1588.86,-1324.06 1587.43,-1316.76 1584.94,-1324.83 1587.43,-1314.15"/>
</g>
<!-- 563&#45;&gt;6780 -->
<g id="edge7" class="edge">
<title>563&#45;&gt;6780</title>
<path fill="none" stroke="#e09d4b" stroke-width="2" d="M1536.4,-1568.09C1434.3,-1562.24 1407.47,-1544.73 1320.23,-1458.49"/>
<polygon fill="#e09d4b" stroke="#e09d4b" stroke-width="2" points="1314.17,-1452.49 1324.44,-1456.34 1316.35,-1453.94 1321.63,-1459.18 1321.28,-1459.53 1320.92,-1459.89 1315.64,-1454.65 1318.11,-1462.73 1314.17,-1452.49"/>
</g>
<!-- 10082 -->
<g id="node18" class="node">
<title>10082</title>
<polygon fill="none" stroke="#00876c" points="2157.19,-1728.09 2157.19,-1743 2082.76,-1753.55 1977.52,-1753.55 1903.1,-1743 1903.1,-1728.09 1977.52,-1717.55 2082.76,-1717.55 2157.19,-1728.09"/>
<polygon fill="none" stroke="#00876c" points="2161.19,-1724.62 2161.19,-1746.48 2083.05,-1757.55 1977.23,-1757.55 1899.1,-1746.48 1899.1,-1724.62 1977.23,-1713.55 2083.05,-1713.55 2161.19,-1724.62"/>
<text text-anchor="middle" x="2030.14" y="-1730.5" font-family="Times,serif" font-size="14.00">BlueOak:BSD&#45;3&#45;Clause&#45;Sun</text>
</g>
<!-- 563&#45;&gt;10082 -->
<g id="edge8" class="edge">
<title>563&#45;&gt;10082</title>
<path fill="none" stroke="#00876c" stroke-width="2" d="M1666.04,-1593.54C1796.68,-1673.22 1850.34,-1704.5 1904.72,-1719.24"/>
<polygon fill="#00876c" stroke="#00876c" stroke-width="2" points="1912.9,-1721.29 1902.1,-1723.22 1910.29,-1721.15 1903.08,-1719.34 1903.2,-1718.86 1903.32,-1718.37 1910.53,-1720.18 1904.3,-1714.49 1912.9,-1721.29"/>
</g>
<!-- 563&#45;&gt;14268 -->
<g id="edge9" class="edge">
<title>563&#45;&gt;14268</title>
<path fill="none" stroke="black" stroke-width="2" d="M1592.65,-1593.69C1543.7,-1623.39 1513.75,-1640.16 1486.65,-1648.27"/>
<polygon fill="black" stroke="black" stroke-width="2" points="1478.33,-1650.44 1486.87,-1643.56 1480.68,-1649.31 1487.88,-1647.43 1488,-1647.92 1488.13,-1648.4 1480.93,-1650.28 1489.14,-1652.27 1478.33,-1650.44"/>
</g>
<!-- 41183 -->
<g id="node33" class="node">
<title>41183</title>
<polygon fill="none" stroke="#379469" points="1946.35,-1780.13 1946.35,-1795.04 1881.34,-1805.58 1789.4,-1805.58 1724.39,-1795.04 1724.39,-1780.13 1789.4,-1769.58 1881.34,-1769.58 1946.35,-1780.13"/>
<polygon fill="none" stroke="#379469" points="1950.35,-1776.72 1950.35,-1798.44 1881.66,-1809.58 1789.08,-1809.58 1720.39,-1798.44 1720.39,-1776.72 1789.08,-1765.58 1881.66,-1765.58 1950.35,-1776.72"/>
<text text-anchor="middle" x="1835.37" y="-1782.53" font-family="Times,serif" font-size="14.00">cavil:BSD&#45;3&#45;Clause&#45;Sun</text>
</g>
<!-- 563&#45;&gt;41183 -->
<g id="edge10" class="edge">
<title>563&#45;&gt;41183</title>
<path fill="none" stroke="#379469" stroke-width="2" d="M1646.7,-1593.55C1731.31,-1703.14 1752.39,-1729.07 1793.26,-1758.86"/>
<polygon fill="#379469" stroke="#379469" stroke-width="2" points="1800.33,-1763.89 1789.57,-1761.76 1797.95,-1762.81 1791.89,-1758.5 1792.18,-1758.09 1792.47,-1757.68 1798.53,-1762 1794.79,-1754.43 1800.33,-1763.89"/>
</g>
<!-- 564 -->
<g id="node5" class="node">
<title>564</title>
<polygon fill="none" stroke="black" points="2018.36,-1434.99 2018.36,-1449.9 1931.93,-1460.45 1809.7,-1460.45 1723.27,-1449.9 1723.27,-1434.99 1809.7,-1424.45 1931.93,-1424.45 2018.36,-1434.99"/>
<polygon fill="none" stroke="black" points="2022.36,-1431.45 2022.36,-1453.44 1932.17,-1464.45 1809.46,-1464.45 1719.27,-1453.44 1719.27,-1431.45 1809.46,-1420.45 1932.17,-1420.45 2022.36,-1431.45"/>
<text text-anchor="middle" x="1870.82" y="-1437.4" font-family="Times,serif" font-size="14.00">BSD 3&#45;Clause Sun Microsystems</text>
</g>
<!-- 564&#45;&gt;562 -->
<g id="edge11" class="edge">
<title>564&#45;&gt;562</title>
<path fill="none" stroke="#dac767" stroke-width="2" d="M1830.18,-1420.05C1784.43,-1394.88 1755.5,-1379.22 1639.83,-1316.84"/>
<polygon fill="#dac767" stroke="#dac767" stroke-width="2" points="1632.39,-1312.82 1643.32,-1313.61 1634.88,-1313.6 1641.43,-1317.13 1641.19,-1317.57 1640.95,-1318.01 1634.41,-1314.48 1639.05,-1321.53 1632.39,-1312.82"/>
</g>
<!-- 564&#45;&gt;10082 -->
<g id="edge12" class="edge">
<title>564&#45;&gt;10082</title>
<path fill="none" stroke="#00876c" stroke-width="2" d="M1886.36,-1464.7C1988.18,-1610.54 2001.56,-1631.67 2021.22,-1702.34"/>
<polygon fill="#00876c" stroke="#00876c" stroke-width="2" points="2023.53,-1710.8 2016.55,-1702.34 2022.37,-1708.46 2020.41,-1701.28 2020.89,-1701.15 2021.38,-1701.02 2023.34,-1708.19 2025.23,-1699.96 2023.53,-1710.8"/>
</g>
<!-- 66450 -->
<g id="node41" class="node">
<title>66450</title>
<polygon fill="none" stroke="#00876c" points="1826.04,-1222.06 1826.04,-1236.97 1726.96,-1247.52 1586.83,-1247.52 1487.75,-1236.97 1487.75,-1222.06 1586.83,-1211.52 1726.96,-1211.52 1826.04,-1222.06"/>
<polygon fill="none" stroke="#00876c" points="1830.04,-1218.47 1830.04,-1240.57 1727.17,-1251.52 1586.62,-1251.52 1483.75,-1240.57 1483.75,-1218.47 1586.62,-1207.52 1727.17,-1207.52 1830.04,-1218.47"/>
<text text-anchor="middle" x="1656.9" y="-1224.47" font-family="Times,serif" font-size="14.00">spdx:BSD 3&#45;Clause Sun Microsystems</text>
</g>
<!-- 564&#45;&gt;66450 -->
<g id="edge13" class="edge">
<title>564&#45;&gt;66450</title>
<path fill="none" stroke="#00876c" stroke-width="2" d="M1858.65,-1420.29C1824.1,-1358.19 1809.78,-1344.08 1695.73,-1258.56"/>
<polygon fill="#00876c" stroke="#00876c" stroke-width="2" points="1688.93,-1253.47 1699.63,-1255.86 1691.28,-1254.6 1697.23,-1259.06 1696.93,-1259.46 1696.63,-1259.86 1690.68,-1255.41 1694.24,-1263.07 1688.93,-1253.47"/>
</g>
<!-- 565 -->
<g id="node6" class="node">
<title>565</title>
<text text-anchor="middle" x="2297.52" y="-711.09" font-family="Times,serif" font-size="14.00">SPDXLicense:</text>
<text text-anchor="middle" x="2297.52" y="-694.59" font-family="Times,serif" font-size="14.00">This license is very similar to BSD&#45;3&#45;Clause&#45;No&#45;Nuclear&#45;Warranty except it has</text>
<text text-anchor="middle" x="2297.52" y="-678.09" font-family="Times,serif" font-size="14.00">variations in the disclaimer and omits the no&#45;nuclear&#45;warranty at the end.</text>
</g>
<!-- 565&#45;&gt;561 -->
<g id="edge14" class="edge">
<title>565&#45;&gt;561</title>
<path fill="none" stroke="#dac767" d="M2278.91,-728.12C2225.26,-809.6 2206,-830.52 2042.07,-992.62"/>
<polygon fill="#dac767" stroke="#dac767" points="2039.88,-989.86 2035.23,-999.38 2044.81,-994.84 2039.88,-989.86"/>
</g>
<!-- 566 -->
<g id="node7" class="node">
<title>566</title>
<text text-anchor="middle" x="2238.38" y="-926.02" font-family="Times,serif" font-size="14.00">$TEXT</text>
</g>
<!-- 566&#45;&gt;561 -->
<g id="edge15" class="edge">
<title>566&#45;&gt;561</title>
<path fill="none" stroke="#dac767" d="M2209.97,-941.05C2172.24,-954.48 2151.5,-963.13 2075.04,-997.59"/>
<polygon fill="#dac767" stroke="#dac767" points="2073.97,-994.23 2066.29,-1001.53 2076.85,-1000.61 2073.97,-994.23"/>
</g>
<!-- 567 -->
<g id="node8" class="node">
<title>567</title>
<text text-anchor="middle" x="2435.91" y="-873.36" font-family="Times,serif" font-size="14.00">$TEXT</text>
</g>
<!-- 567&#45;&gt;566 -->
<g id="edge16" class="edge">
<title>567&#45;&gt;566</title>
<path fill="none" stroke="#dac767" d="M2407.36,-882.48C2374.51,-887.58 2355.12,-893.17 2277.59,-918.32"/>
<polygon fill="#dac767" stroke="#dac767" points="2276.66,-914.94 2268.23,-921.36 2278.82,-921.6 2276.66,-914.94"/>
</g>
<!-- 568 -->
<g id="node9" class="node">
<title>568</title>
<text text-anchor="middle" x="2702.31" y="-934.75" font-family="Times,serif" font-size="14.00">https://github.com/xmlark/msv/blob/b9316e2f2270bc1606952ea4939ec87fbba157f3/xsdlib/src/main/java/com/sun/msv/datatype/regexp/InternalImpl.java</text>
</g>
<!-- 568&#45;&gt;561 -->
<g id="edge17" class="edge">
<title>568&#45;&gt;561</title>
<path fill="none" stroke="#dac767" d="M2384.33,-957.76C2321.67,-968.01 2240.85,-983.32 2124.61,-1005.91"/>
<polygon fill="#dac767" stroke="#dac767" points="2124.25,-1002.41 2115.1,-1007.76 2125.59,-1009.28 2124.25,-1002.41"/>
</g>
<!-- 5550 -->
<g id="node10" class="node">
<title>5550</title>
<text text-anchor="middle" x="1537.58" y="-2156.33" font-family="Times,serif" font-size="14.00">LicenseType Permissive</text>
</g>
<!-- 10081 -->
<g id="node17" class="node">
<title>10081</title>
<ellipse fill="none" stroke="#00876c" cx="2106.67" cy="-2145.1" rx="157.68" ry="28.99"/>
<text text-anchor="middle" x="2106.67" y="-2148.3" font-family="Times,serif" font-size="14.00" fill="gray">BlueOakCouncil</text>
<text text-anchor="middle" x="2106.67" y="-2131.8" font-family="Times,serif" font-size="14.00" fill="gray">799f173ce7e97e1554da9dd6901a619f</text>
</g>
<!-- 5550&#45;&gt;10081 -->
<g id="edge18" class="edge">
<title>5550&#45;&gt;10081</title>
<path fill="none" stroke="#00876c" d="M1593.79,-2179.28C1827.09,-2253.11 1864.07,-2255.54 2037.4,-2177.05"/>
<polygon fill="#00876c" stroke="#00876c" points="2038.62,-2180.35 2046.27,-2173.02 2035.72,-2173.97 2038.62,-2180.35"/>
</g>
<!-- 14267 -->
<g id="node20" class="node">
<title>14267</title>
<ellipse fill="none" stroke="#deb256" cx="1180.43" cy="-2083.26" rx="160.87" ry="28.99"/>
<text text-anchor="middle" x="1180.43" y="-2086.46" font-family="Times,serif" font-size="14.00" fill="gray">ScancodeData</text>
<text text-anchor="middle" x="1180.43" y="-2069.96" font-family="Times,serif" font-size="14.00" fill="gray">774bee3b75642978ed5d91986da11ce7</text>
</g>
<!-- 5550&#45;&gt;14267 -->
<g id="edge19" class="edge">
<title>5550&#45;&gt;14267</title>
<path fill="none" stroke="#deb256" d="M1462.97,-2173.13C1355.56,-2188.51 1325.68,-2180.44 1231.63,-2117.95"/>
<polygon fill="#deb256" stroke="#deb256" points="1233.84,-2115.21 1223.59,-2112.57 1229.95,-2121.03 1233.84,-2115.21"/>
</g>
<!-- 6592 -->
<g id="node11" class="node">
<title>6592</title>
<text text-anchor="middle" x="540.28" y="-1301.06" font-family="Times,serif" font-size="14.00">[&quot;allowed&quot;]</text>
</g>
<!-- 6779 -->
<g id="node14" class="node">
<title>6779</title>
<ellipse fill="none" stroke="#e09d4b" cx="852.49" cy="-1356" rx="156.62" ry="28.99"/>
<text text-anchor="middle" x="852.49" y="-1359.2" font-family="Times,serif" font-size="14.00" fill="gray">FedoraEntry</text>
<text text-anchor="middle" x="852.49" y="-1342.7" font-family="Times,serif" font-size="14.00" fill="gray">11cfa635418142fe8fde1729739dde78</text>
</g>
<!-- 6592&#45;&gt;6779 -->
<g id="edge20" class="edge">
<title>6592&#45;&gt;6779</title>
<path fill="none" stroke="#e09d4b" d="M579.92,-1318.16C617.25,-1329.05 643,-1334.23 702.79,-1340.99"/>
<polygon fill="#e09d4b" stroke="#e09d4b" points="702.11,-1344.43 712.43,-1342.06 702.88,-1337.48 702.11,-1344.43"/>
</g>
<!-- 6593 -->
<g id="node12" class="node">
<title>6593</title>
<text text-anchor="start" x="178.24" y="-1299.66" font-family="Times,serif" font-size="14.00">Fedora: </text>
<text text-anchor="start" x="223.24" y="-1299.66" font-family="Times,serif" font-weight="bold" font-size="14.00" fill="#228b22">allowed</text>
<text text-anchor="start" x="14.37" y="-1285.66" font-family="Times,serif" font-size="14.00">A license is allowed if Fedora determines that the license is a free software /</text>
<text text-anchor="start" x="9.12" y="-1271.66" font-family="Times,serif" font-size="14.00">open source license. At a high level, the inquiry involves determining whether</text>
<text text-anchor="start" x="7.99" y="-1257.66" font-family="Times,serif" font-size="14.00">the license provides software freedom, and (equivalently) making sure that the</text>
<text text-anchor="start" x="18.12" y="-1243.66" font-family="Times,serif" font-size="14.00">license does not place burdens on users&#39; exercise of its permissions that are</text>
<text text-anchor="start" x="17.74" y="-1229.66" font-family="Times,serif" font-size="14.00">inconsistent with evolving community norms and traditions around what is</text>
<text text-anchor="start" x="9.49" y="-1215.66" font-family="Times,serif" font-size="14.00">acceptable in a free software / open source license. See below for more on the</text>
<text text-anchor="start" x="129.49" y="-1201.66" font-family="Times,serif" font-size="14.00">history of Fedora licensing policy.</text>
</g>
<!-- 6593&#45;&gt;6592 -->
<g id="edge21" class="edge">
<title>6593&#45;&gt;6592</title>
<path fill="none" stroke="#e09d4b" d="M445.29,-1295.41C458.68,-1296.95 473.31,-1298.6 489.37,-1300.41"/>
<polygon fill="#e09d4b" stroke="#e09d4b" points="488.89,-1303.87 499.22,-1301.51 489.67,-1296.92 488.89,-1303.87"/>
</g>
<!-- 6743 -->
<g id="node13" class="node">
<title>6743</title>
<polygon fill="none" stroke="black" points="1175.39,-1886.9 1175.39,-1901.81 1157.11,-1912.36 1131.26,-1912.36 1112.98,-1901.81 1112.98,-1886.9 1131.26,-1876.36 1157.11,-1876.36 1175.39,-1886.9"/>
<text text-anchor="middle" x="1144.19" y="-1889.31" font-family="Times,serif" font-size="14.00">BSD</text>
</g>
<!-- 6743&#45;&gt;44584 -->
<g id="edge22" class="edge">
<title>6743&#45;&gt;44584</title>
<path fill="none" stroke="#379469" stroke-dasharray="5,2" d="M1175.57,-1895.06C1269.72,-1896.63 1290.71,-1888.92 1425.29,-1803.57"/>
<polygon fill="#379469" stroke="#379469" points="1433.72,-1798.21 1427.69,-1807.37 1430.52,-1800.24 1425.28,-1803.58 1425.28,-1803.58 1425.28,-1803.58 1430.52,-1800.24 1422.86,-1799.78 1433.72,-1798.21"/>
</g>
<!-- 6779&#45;&gt;6780 -->
<g id="edge23" class="edge">
<title>6779&#45;&gt;6780</title>
<path fill="none" stroke="#e09d4b" d="M917.57,-1382.77C979.05,-1406.17 1021.56,-1412.83 1154.79,-1420.9"/>
<polygon fill="#e09d4b" stroke="#e09d4b" points="1154.54,-1424.39 1164.73,-1421.5 1154.96,-1417.41 1154.54,-1424.39"/>
</g>
<!-- 10004 -->
<g id="node16" class="node">
<title>10004</title>
<text text-anchor="start" x="2231.5" y="-2540.49" font-family="Times,serif" font-size="14.00">BlueOakCouncil: </text>
<text text-anchor="start" x="2329.75" y="-2540.49" font-family="Times,serif" font-weight="bold" font-size="14.00" fill="#000000">Bronze</text>
<text text-anchor="start" x="2094.25" y="-2526.49" font-family="Times,serif" font-size="14.00">These licenses lack important but nonessential elements of permissive open</text>
<text text-anchor="start" x="2096.13" y="-2512.49" font-family="Times,serif" font-size="14.00">software licenses or impose additional requirements or restrictions, such as</text>
<text text-anchor="start" x="2137" y="-2498.49" font-family="Times,serif" font-size="14.00">BSD&#45;style prohibitions against endorsement and promotion.</text>
</g>
<!-- 10004&#45;&gt;10081 -->
<g id="edge24" class="edge">
<title>10004&#45;&gt;10081</title>
<path fill="none" stroke="#00876c" d="M2286.77,-2492.98C2249.04,-2410.43 2235.59,-2384.72 2127.67,-2184.13"/>
<polygon fill="#00876c" stroke="#00876c" points="2130.83,-2182.61 2123.01,-2175.46 2124.67,-2185.93 2130.83,-2182.61"/>
</g>
<!-- 10081&#45;&gt;10082 -->
<g id="edge25" class="edge">
<title>10081&#45;&gt;10082</title>
<path fill="none" stroke="#00876c" d="M2109.21,-2115.69C2117.91,-2010.2 2112.64,-1987.96 2041.06,-1768.93"/>
<polygon fill="#00876c" stroke="#00876c" points="2044.4,-1767.87 2037.96,-1759.45 2037.74,-1770.04 2044.4,-1767.87"/>
</g>
<!-- 10083 -->
<g id="node19" class="node">
<title>10083</title>
<text text-anchor="middle" x="2389.39" y="-2345.37" font-family="Times,serif" font-size="14.00">https://spdx.org/licenses/BSD&#45;3&#45;Clause&#45;Sun</text>
</g>
<!-- 10083&#45;&gt;10081 -->
<g id="edge26" class="edge">
<title>10083&#45;&gt;10081</title>
<path fill="none" stroke="#00876c" d="M2350.12,-2332.48C2290.6,-2304.35 2266.13,-2285.14 2147.71,-2181.18"/>
<polygon fill="#00876c" stroke="#00876c" points="2150.36,-2178.85 2140.54,-2174.88 2145.74,-2184.11 2150.36,-2178.85"/>
</g>
<!-- 14267&#45;&gt;14268 -->
<g id="edge27" class="edge">
<title>14267&#45;&gt;14268</title>
<path fill="none" stroke="#deb256" d="M1189.78,-2054.13C1223.22,-1950.42 1233.04,-1926.32 1338.98,-1677.22"/>
<polygon fill="#deb256" stroke="#deb256" points="1342.16,-1678.7 1342.85,-1668.13 1335.72,-1675.96 1342.16,-1678.7"/>
</g>
<!-- 14268&#45;&gt;562 -->
<g id="edge28" class="edge">
<title>14268&#45;&gt;562</title>
<path fill="none" stroke="#00876c" stroke-width="2" d="M1371.57,-1621.9C1414.9,-1561.41 1521.36,-1394.83 1563.96,-1321.25"/>
<polygon fill="#00876c" stroke="#00876c" stroke-width="2" points="1568.09,-1314.03 1567.03,-1324.94 1567.25,-1316.5 1563.56,-1322.96 1563.12,-1322.71 1562.69,-1322.46 1566.38,-1316.01 1559.22,-1320.47 1568.09,-1314.03"/>
</g>
<!-- 14269 -->
<g id="node22" class="node">
<title>14269</title>
<polygon fill="none" stroke="black" points="1212.58,-1504.63 1212.58,-1519.54 1161.19,-1530.09 1088.53,-1530.09 1037.15,-1519.54 1037.15,-1504.63 1088.53,-1494.09 1161.19,-1494.09 1212.58,-1504.63"/>
<polygon fill="none" stroke="black" points="1216.58,-1501.37 1216.58,-1522.81 1161.6,-1534.09 1088.12,-1534.09 1033.15,-1522.81 1033.15,-1501.37 1088.12,-1490.09 1161.6,-1490.09 1216.58,-1501.37"/>
<text text-anchor="middle" x="1124.86" y="-1507.04" font-family="Times,serif" font-size="14.00">BSD 3&#45;Clause Sun</text>
</g>
<!-- 14269&#45;&gt;14268 -->
<g id="edge29" class="edge">
<title>14269&#45;&gt;14268</title>
<path fill="none" stroke="#deb256" stroke-width="2" d="M1141.42,-1534.4C1183.94,-1591.22 1201.8,-1608.65 1259.59,-1624.14"/>
<polygon fill="#deb256" stroke="#deb256" stroke-width="2" points="1268.09,-1626.31 1257.28,-1628.19 1265.48,-1626.16 1258.28,-1624.32 1258.4,-1623.83 1258.52,-1623.35 1265.73,-1625.19 1259.52,-1619.47 1268.09,-1626.31"/>
</g>
<!-- 66448 -->
<g id="node39" class="node">
<title>66448</title>
<polygon fill="none" stroke="#00876c" points="1367.32,-1272.41 1367.32,-1287.32 1292.9,-1297.87 1187.65,-1297.87 1113.23,-1287.32 1113.23,-1272.41 1187.65,-1261.87 1292.9,-1261.87 1367.32,-1272.41"/>
<polygon fill="none" stroke="#00876c" points="1371.32,-1268.94 1371.32,-1290.8 1293.18,-1301.87 1187.37,-1301.87 1109.23,-1290.8 1109.23,-1268.94 1187.37,-1257.87 1293.18,-1257.87 1371.32,-1268.94"/>
<text text-anchor="middle" x="1240.28" y="-1274.82" font-family="Times,serif" font-size="14.00">scancode:BSD 3&#45;Clause Sun</text>
</g>
<!-- 14269&#45;&gt;66448 -->
<g id="edge30" class="edge">
<title>14269&#45;&gt;66448</title>
<path fill="none" stroke="#00876c" stroke-width="2" d="M1126.72,-1489.68C1133.03,-1417.73 1140.12,-1403.09 1215.07,-1310.78"/>
<polygon fill="#00876c" stroke="#00876c" stroke-width="2" points="1220.51,-1304.1 1217.69,-1314.69 1219.28,-1306.4 1214.59,-1312.17 1214.2,-1311.86 1213.81,-1311.54 1218.5,-1305.77 1210.71,-1309.02 1220.51,-1304.1"/>
</g>
<!-- 14270 -->
<g id="node23" class="node">
<title>14270</title>
<text text-anchor="middle" x="707.09" y="-2458.2" font-family="Times,serif" font-size="14.00">https://github.com/xmlark/msv/blob/b9316e2f2270bc1606952ea4939ec87fbba157f3/xsdlib/src/main/java/com/sun/msv/datatype/regexp/InternalImpl.java</text>
</g>
<!-- 14270&#45;&gt;14267 -->
<g id="edge31" class="edge">
<title>14270&#45;&gt;14267</title>
<path fill="none" stroke="#deb256" d="M742.38,-2445.38C874.55,-2377.97 899.32,-2356.75 1142.79,-2119.88"/>
<polygon fill="#deb256" stroke="#deb256" points="1144.99,-2122.63 1149.72,-2113.14 1140.11,-2117.61 1144.99,-2122.63"/>
</g>
<!-- 14271 -->
<g id="node24" class="node">
<title>14271</title>
<text text-anchor="middle" x="1285.48" y="-2529.46" font-family="Times,serif" font-size="14.00">ScancodeData:</text>
<text text-anchor="middle" x="1285.48" y="-2512.96" font-family="Times,serif" font-size="14.00">This is the same as the bsd&#45;3&#45;clause&#45;no&#45;nuclear&#45;warranty but without the nuclear</text>
<text text-anchor="middle" x="1285.48" y="-2496.46" font-family="Times,serif" font-size="14.00">related terms. Rare and not exactly the same as a plain bsd.</text>
</g>
<!-- 14271&#45;&gt;14267 -->
<g id="edge32" class="edge">
<title>14271&#45;&gt;14267</title>
<path fill="none" stroke="#deb256" d="M1268.31,-2489.55C1208.37,-2389.27 1203.73,-2364.78 1183.77,-2123.79"/>
<polygon fill="#deb256" stroke="#deb256" points="1187.27,-2123.71 1182.96,-2114.03 1180.3,-2124.28 1187.27,-2123.71"/>
</g>
<!-- 14272 -->
<g id="node25" class="node">
<title>14272</title>
<text text-anchor="middle" x="1001.35" y="-2254.39" font-family="Times,serif" font-size="14.00">$TEXT</text>
</g>
<!-- 14272&#45;&gt;14267 -->
<g id="edge33" class="edge">
<title>14272&#45;&gt;14267</title>
<path fill="none" stroke="#deb256" d="M1028.13,-2241.48C1064.89,-2216.08 1080.89,-2199.53 1148.47,-2120.64"/>
<polygon fill="#deb256" stroke="#deb256" points="1150.79,-2123.32 1154.64,-2113.44 1145.47,-2118.76 1150.79,-2123.32"/>
</g>
<!-- 35432 -->
<g id="node26" class="node">
<title>35432</title>
<text text-anchor="middle" x="1612.97" y="-398.04" font-family="Times,serif" font-size="14.00">LicenseTag (ScopedLicenseTag &quot;OrtLicenseCategorization&quot; &quot;permissive&quot; NoLicenseTagText)</text>
</g>
<!-- 35504 -->
<g id="node28" class="node">
<title>35504</title>
<ellipse fill="none" stroke="#d43d51" cx="1757.19" cy="-855.9" rx="153.97" ry="28.99"/>
<text text-anchor="middle" x="1757.19" y="-859.1" font-family="Times,serif" font-size="14.00" fill="gray">OrtLicenseCategorization</text>
<text text-anchor="middle" x="1757.19" y="-842.6" font-family="Times,serif" font-size="14.00" fill="gray">ec47a1c22ab349346bfef3159222f8fc</text>
</g>
<!-- 35432&#45;&gt;35504 -->
<g id="edge34" class="edge">
<title>35432&#45;&gt;35504</title>
<path fill="none" stroke="#d43d51" d="M1624.96,-420.96C1698.89,-531.37 1704.55,-549.49 1750.23,-815.28"/>
<polygon fill="#d43d51" stroke="#d43d51" points="1746.75,-815.73 1751.89,-824.99 1753.65,-814.54 1746.75,-815.73"/>
</g>
<!-- 36232 -->
<g id="node29" class="node">
<title>36232</title>
<ellipse fill="none" stroke="#d43d51" cx="1764.58" cy="-48.07" rx="156.09" ry="28.99"/>
<text text-anchor="middle" x="1764.58" y="-51.27" font-family="Times,serif" font-size="14.00" fill="gray">OrtLicenseCategorization</text>
<text text-anchor="middle" x="1764.58" y="-34.77" font-family="Times,serif" font-size="14.00" fill="gray">eba8190f6be0e6fd2cc444a00ed5c3b1</text>
</g>
<!-- 35432&#45;&gt;36232 -->
<g id="edge35" class="edge">
<title>35432&#45;&gt;36232</title>
<path fill="none" stroke="#d43d51" d="M1618.91,-385.28C1686.18,-183.72 1697.24,-152.28 1739.43,-86.41"/>
<polygon fill="#d43d51" stroke="#d43d51" points="1742.29,-88.44 1744.78,-78.14 1736.41,-84.64 1742.29,-88.44"/>
</g>
<!-- 35433 -->
<g id="node27" class="node">
<title>35433</title>
<text text-anchor="middle" x="2181.52" y="-429.2" font-family="Times,serif" font-size="14.00">LicenseTag (ScopedLicenseTag &quot;OrtLicenseCategorization&quot; &quot;include&#45;in&#45;notice&#45;file&quot; NoLicenseTagText)</text>
</g>
<!-- 35433&#45;&gt;35504 -->
<g id="edge36" class="edge">
<title>35433&#45;&gt;35504</title>
<path fill="none" stroke="#d43d51" d="M2157.37,-452.24C2038.31,-541.16 2019.34,-560.55 1790.25,-818.65"/>
<polygon fill="#d43d51" stroke="#d43d51" points="1787.74,-816.21 1783.72,-826.01 1792.97,-820.86 1787.74,-816.21"/>
</g>
<!-- 35433&#45;&gt;36232 -->
<g id="edge37" class="edge">
<title>35433&#45;&gt;36232</title>
<path fill="none" stroke="#d43d51" d="M2171.7,-416.65C2034.92,-171.79 2013.48,-138.77 1848.59,-77.89"/>
<polygon fill="#d43d51" stroke="#d43d51" points="1850.06,-74.7 1839.46,-74.55 1847.65,-81.28 1850.06,-74.7"/>
</g>
<!-- 35504&#45;&gt;562 -->
<g id="edge38" class="edge">
<title>35504&#45;&gt;562</title>
<path fill="none" stroke="#d43d51" d="M1746.94,-885.28C1712.1,-984.83 1701.81,-1009.42 1597.86,-1248.66"/>
<polygon fill="#d43d51" stroke="#d43d51" points="1594.7,-1247.14 1593.92,-1257.71 1601.12,-1249.93 1594.7,-1247.14"/>
</g>
<!-- 36233 -->
<g id="node30" class="node">
<title>36233</title>
<polygon fill="none" stroke="#d43d51" points="1594.4,-14.44 1594.4,-29.35 1479.42,-39.89 1316.8,-39.89 1201.82,-29.35 1201.82,-14.44 1316.8,-3.89 1479.42,-3.89 1594.4,-14.44"/>
<polygon fill="none" stroke="#d43d51" points="1598.4,-10.79 1598.4,-33 1479.6,-43.89 1316.62,-43.89 1197.82,-33 1197.82,-10.79 1316.62,0.11 1479.6,0.11 1598.4,-10.79"/>
<text text-anchor="middle" x="1398.11" y="-16.84" font-family="Times,serif" font-size="14.00">SPDX:LicenseRef&#45;scancode&#45;bsd&#45;3&#45;clause&#45;sun</text>
</g>
<!-- 36232&#45;&gt;36233 -->
<g id="edge39" class="edge">
<title>36232&#45;&gt;36233</title>
<path fill="none" stroke="#d43d51" d="M1706.57,-20.77C1604.46,26.23 1572.01,31.3 1478.65,3.77"/>
<polygon fill="#d43d51" stroke="#d43d51" points="1477.91,7.2 1469.34,0.97 1479.92,0.49 1477.91,7.2"/>
</g>
<!-- 36234 -->
<g id="node31" class="node">
<title>36234</title>
<polygon fill="none" stroke="black" points="1334.4,-402.61 1334.4,-417.52 1235.97,-428.06 1096.76,-428.06 998.32,-417.52 998.32,-402.61 1096.76,-392.06 1235.97,-392.06 1334.4,-402.61"/>
<polygon fill="none" stroke="black" points="1338.4,-399.01 1338.4,-421.11 1236.18,-432.06 1096.55,-432.06 994.32,-421.11 994.32,-399.01 1096.55,-388.06 1236.18,-388.06 1338.4,-399.01"/>
<text text-anchor="middle" x="1166.36" y="-405.01" font-family="Times,serif" font-size="14.00">LicenseRef&#45;scancode&#45;bsd&#45;3&#45;clause&#45;sun</text>
</g>
<!-- 36234&#45;&gt;36233 -->
<g id="edge40" class="edge">
<title>36234&#45;&gt;36233</title>
<path fill="none" stroke="#d43d51" stroke-width="2" d="M1173.74,-387.6C1250.16,-155.1 1260.97,-129.01 1360.4,-51"/>
<polygon fill="#d43d51" stroke="#d43d51" stroke-width="2" points="1367.08,-45.79 1361.96,-55.49 1365.36,-47.76 1359.5,-52.33 1359.19,-51.94 1358.88,-51.54 1364.75,-46.97 1356.42,-48.39 1367.08,-45.79"/>
</g>
<!-- 66449 -->
<g id="node40" class="node">
<title>66449</title>
<polygon fill="none" stroke="#00876c" points="1590.31,-840.77 1590.31,-855.68 1468.83,-866.23 1297.04,-866.23 1175.56,-855.68 1175.56,-840.77 1297.04,-830.23 1468.83,-830.23 1590.31,-840.77"/>
<polygon fill="none" stroke="#00876c" points="1594.31,-837.1 1594.31,-859.35 1469.01,-870.23 1296.87,-870.23 1171.56,-859.35 1171.56,-837.1 1296.87,-826.23 1469.01,-826.23 1594.31,-837.1"/>
<text text-anchor="middle" x="1382.94" y="-843.18" font-family="Times,serif" font-size="14.00">scancode:LicenseRef&#45;scancode&#45;bsd&#45;3&#45;clause&#45;sun</text>
</g>
<!-- 36234&#45;&gt;66449 -->
<g id="edge41" class="edge">
<title>36234&#45;&gt;66449</title>
<path fill="none" stroke="#00876c" stroke-width="2" d="M1177.99,-432.36C1232.56,-537.06 1242.49,-557.31 1367.28,-815.8"/>
<polygon fill="#00876c" stroke="#00876c" stroke-width="2" points="1371.09,-823.7 1362.69,-816.65 1369.53,-821.61 1366.3,-814.91 1366.75,-814.69 1367.2,-814.47 1370.43,-821.17 1370.8,-812.74 1371.09,-823.7"/>
</g>
<!-- 41182 -->
<g id="node32" class="node">
<title>41182</title>
<ellipse fill="none" stroke="#379469" cx="2229.04" cy="-1873.85" rx="160.34" ry="28.99"/>
<text text-anchor="middle" x="2229.04" y="-1877.05" font-family="Times,serif" font-size="14.00" fill="gray">CavilLicenseChange</text>
<text text-anchor="middle" x="2229.04" y="-1860.55" font-family="Times,serif" font-size="14.00" fill="gray">658d8a6e2fc2d7db624d7a63d62982b2</text>
</g>
<!-- 41182&#45;&gt;41183 -->
<g id="edge42" class="edge">
<title>41182&#45;&gt;41183</title>
<path fill="none" stroke="#379469" d="M2069.09,-1876.83C2029.13,-1867.84 1980.42,-1848.66 1897.08,-1813.65"/>
<polygon fill="#379469" stroke="#379469" points="1898.44,-1810.42 1887.87,-1809.77 1895.73,-1816.88 1898.44,-1810.42"/>
</g>
<!-- 43136 -->
<g id="node34" class="node">
<title>43136</title>
<text text-anchor="start" x="1776.76" y="-2277.14" font-family="Times,serif" font-size="14.00">CoDEStatus: </text>
<text text-anchor="start" x="1851.01" y="-2277.14" font-family="Times,serif" font-weight="bold" font-size="14.00" fill="#228b22">Approved</text>
<text text-anchor="start" x="1629.39" y="-2263.14" font-family="Times,serif" font-size="14.00">Eine Lizenz ist freigegeben, wenn sie nach fachlicher und juristischer Prüfung</text>
<text text-anchor="start" x="1611.39" y="-2249.14" font-family="Times,serif" font-size="14.00">seitens Open CoDE sowohl der Open Source Definition (gemäß Definition der Open</text>
<text text-anchor="start" x="1653.39" y="-2235.14" font-family="Times,serif" font-size="14.00">Source Initiative [extern]) entspricht und darüber hinaus keine für die</text>
<text text-anchor="start" x="1656.39" y="-2221.14" font-family="Times,serif" font-size="14.00">Öffentliche Verwaltung erkennbaren Schwierigkeiten birgt. Außer in</text>
<text text-anchor="start" x="1641.39" y="-2207.14" font-family="Times,serif" font-size="14.00">Ausnahmefällen ist nicht zu erwarten, dass einmal freigegebene Lizenzen</text>
<text text-anchor="start" x="1781.26" y="-2193.14" font-family="Times,serif" font-size="14.00">deklassifiziert werden.</text>
</g>
<!-- 44583 -->
<g id="node35" class="node">
<title>44583</title>
<ellipse fill="none" stroke="#379469" cx="1780.94" cy="-2150.43" rx="159.81" ry="28.99"/>
<text text-anchor="middle" x="1780.94" y="-2153.63" font-family="Times,serif" font-size="14.00" fill="gray">MetaeffektLicense</text>
<text text-anchor="middle" x="1780.94" y="-2137.13" font-family="Times,serif" font-size="14.00" fill="gray">ddc439b8132955eeda220bb96c2639fb</text>
</g>
<!-- 43136&#45;&gt;44583 -->
<g id="edge43" class="edge">
<title>43136&#45;&gt;44583</title>
<path fill="none" stroke="#379469" d="M1801.67,-2187.64C1801.58,-2187.49 1801.49,-2187.33 1801.4,-2187.17"/>
<polygon fill="#379469" stroke="#379469" points="1805.8,-2187.85 1797.84,-2180.86 1799.71,-2191.29 1805.8,-2187.85"/>
</g>
<!-- 44583&#45;&gt;44584 -->
<g id="edge44" class="edge">
<title>44583&#45;&gt;44584</title>
<path fill="none" stroke="#379469" d="M1735.5,-2122.16C1636.3,-2059.01 1616.66,-2029.69 1488.39,-1807.1"/>
<polygon fill="#379469" stroke="#379469" points="1491.58,-1805.61 1483.56,-1798.69 1485.51,-1809.11 1491.58,-1805.61"/>
</g>
<!-- 44585 -->
<g id="node37" class="node">
<title>44585</title>
<polygon fill="none" stroke="#379469" points="1465.55,-2203.07 1465.55,-2217.99 1355.43,-2228.53 1199.7,-2228.53 1089.58,-2217.99 1089.58,-2203.07 1199.7,-2192.53 1355.43,-2192.53 1465.55,-2203.07"/>
<polygon fill="none" stroke="#379469" points="1469.55,-2199.44 1469.55,-2221.62 1355.62,-2232.53 1199.51,-2232.53 1085.58,-2221.62 1085.58,-2199.44 1199.51,-2188.53 1355.62,-2188.53 1469.55,-2199.44"/>
<text text-anchor="middle" x="1277.57" y="-2205.48" font-family="Times,serif" font-size="14.00">BSD 3&#45;Clause License (Sun Microsystems)</text>
</g>
<!-- 44585&#45;&gt;44584 -->
<g id="edge45" class="edge">
<title>44585&#45;&gt;44584</title>
<path fill="none" stroke="#379469" stroke-width="2" d="M1290.25,-2188.34C1347.64,-2087.72 1356.38,-2067.05 1457.32,-1807.64"/>
<polygon fill="#379469" stroke="#379469" stroke-width="2" points="1460.37,-1799.79 1460.94,-1810.74 1459.91,-1802.36 1457.21,-1809.29 1456.75,-1809.11 1456.28,-1808.93 1458.98,-1801.99 1452.55,-1807.48 1460.37,-1799.79"/>
</g>
<!-- 66447 -->
<g id="node38" class="node">
<title>66447</title>
<ellipse fill="none" stroke="#00876c" cx="1350.14" cy="-1037.98" rx="159.28" ry="28.99"/>
<text text-anchor="middle" x="1350.14" y="-1041.18" font-family="Times,serif" font-size="14.00" fill="gray">LicenseLynx</text>
<text text-anchor="middle" x="1350.14" y="-1024.68" font-family="Times,serif" font-size="14.00" fill="gray">99496776229342eb5a567e9e5cda09f1</text>
</g>
<!-- 66447&#45;&gt;562 -->
<g id="edge46" class="edge">
<title>66447&#45;&gt;562</title>
<path fill="none" stroke="#00876c" d="M1377.3,-1066.91C1419.5,-1111.86 1440.22,-1134.02 1549.61,-1251.08"/>
<polygon fill="#00876c" stroke="#00876c" points="1546.87,-1253.28 1556.26,-1258.2 1551.99,-1248.5 1546.87,-1253.28"/>
</g>
<!-- 66448&#45;&gt;562 -->
<g id="edge47" class="edge">
<title>66448&#45;&gt;562</title>
<path fill="none" stroke="#00876c" stroke-width="2" d="M1371.72,-1287.69C1392.82,-1287.89 1418.28,-1287.77 1452.21,-1287.38"/>
<polygon fill="#00876c" stroke="#00876c" stroke-width="2" points="1460.59,-1287.28 1450.64,-1291.9 1458.03,-1287.82 1450.59,-1287.9 1450.59,-1287.4 1450.58,-1286.9 1458.02,-1286.82 1450.53,-1282.9 1460.59,-1287.28"/>
</g>
<!-- 66449&#45;&gt;562 -->
<g id="edge48" class="edge">
<title>66449&#45;&gt;562</title>
<path fill="none" stroke="#00876c" stroke-width="2" d="M1393.72,-870.47C1444.09,-974.4 1453.36,-994.93 1565.81,-1249.33"/>
<polygon fill="#00876c" stroke="#00876c" stroke-width="2" points="1569.21,-1257.03 1561.05,-1249.7 1567.72,-1254.89 1564.71,-1248.08 1565.17,-1247.88 1565.62,-1247.68 1568.63,-1254.48 1569.28,-1246.06 1569.21,-1257.03"/>
</g>
<!-- 66450&#45;&gt;562 -->
<g id="edge49" class="edge">
<title>66450&#45;&gt;562</title>
<path fill="none" stroke="#00876c" stroke-width="2" d="M1636.86,-1251.93C1636.51,-1252.22 1636.16,-1252.51 1635.8,-1252.8"/>
<polygon fill="#00876c" stroke="#00876c" stroke-width="2" points="1628.94,-1257.75 1634.42,-1248.25 1630.73,-1255.84 1636.76,-1251.49 1637.05,-1251.9 1637.34,-1252.3 1631.31,-1256.65 1639.68,-1255.55 1628.94,-1257.75"/>
</g>
</g>
</svg>
