<?xml version="1.0" encoding="UTF-8" standalone="no"?>
<!DOCTYPE svg PUBLIC "-//W3C//DTD SVG 1.1//EN"
 "http://www.w3.org/Graphics/SVG/1.1/DTD/svg11.dtd">
<!-- Generated by graphviz version 10.0.1 (0)
 -->
<!-- Pages: 1 -->
<svg width="4629pt" height="3732pt"
 viewBox="0.00 0.00 4629.00 3732.00" xmlns="http://www.w3.org/2000/svg" xmlns:xlink="http://www.w3.org/1999/xlink">
<g id="graph0" class="graph" transform="scale(1 1) rotate(0) translate(4 3728)">
<polygon fill="white" stroke="none" points="-4,4 -4,-3728 4625,-3728 4625,4 -4,4"/>
<!-- 5 -->
<g id="node1" class="node">
<title>5</title>
<text text-anchor="start" x="1482.03" y="-553.05" font-family="Times,serif" font-size="14.00">OSI: </text>
<text text-anchor="start" x="1511.28" y="-553.05" font-family="Times,serif" font-weight="bold" font-size="14.00" fill="#8b0000">Rejected</text>
</g>
<!-- 59316 -->
<g id="node50" class="node">
<title>59316</title>
<ellipse fill="none" stroke="#dc574a" cx="1792.81" cy="-916.79" rx="158.75" ry="28.99"/>
<text text-anchor="middle" x="1792.81" y="-919.99" font-family="Times,serif" font-size="14.00" fill="gray">HermineLicense</text>
<text text-anchor="middle" x="1792.81" y="-903.49" font-family="Times,serif" font-size="14.00" fill="gray">65eee046e3df7468d61d3353284fd5d6</text>
</g>
<!-- 5&#45;&gt;59316 -->
<g id="edge1" class="edge">
<title>5&#45;&gt;59316</title>
<path fill="none" stroke="#dc574a" d="M1537.49,-574.84C1608.57,-655.29 1621.83,-673.04 1765.98,-878.54"/>
<polygon fill="#dc574a" stroke="#dc574a" points="1763.02,-880.41 1771.63,-886.59 1768.75,-876.39 1763.02,-880.41"/>
</g>
<!-- 19 -->
<g id="node2" class="node">
<title>19</title>
<text text-anchor="start" x="2575.49" y="-444.23" font-family="Times,serif" font-size="14.00">OSI: </text>
<text text-anchor="start" x="2604.74" y="-444.23" font-family="Times,serif" font-weight="bold" font-size="14.00" fill="#228b22">Approved</text>
</g>
<!-- 552 -->
<g id="node3" class="node">
<title>552</title>
<ellipse fill="none" stroke="#dac767" cx="2335.7" cy="-785.81" rx="155.56" ry="28.99"/>
<text text-anchor="middle" x="2335.7" y="-789.01" font-family="Times,serif" font-size="14.00" fill="gray">SPDXLicense</text>
<text text-anchor="middle" x="2335.7" y="-772.51" font-family="Times,serif" font-size="14.00" fill="gray">f2f62229276a4386270fe3cf4c6809b6</text>
</g>
<!-- 19&#45;&gt;552 -->
<g id="edge2" class="edge">
<title>19&#45;&gt;552</title>
<path fill="none" stroke="#dac767" d="M2590.45,-466.24C2494.02,-527.53 2478.52,-547.64 2358.97,-746.96"/>
<polygon fill="#dac767" stroke="#dac767" points="2356.12,-744.92 2353.98,-755.29 2362.12,-748.51 2356.12,-744.92"/>
</g>
<!-- 553 -->
<g id="node4" class="node">
<title>553</title>
<polygon fill="none" stroke="black" points="2317.95,-1563.02 2317.95,-1577.93 2237.03,-1588.48 2122.61,-1588.48 2041.7,-1577.93 2041.7,-1563.02 2122.61,-1552.48 2237.03,-1552.48 2317.95,-1563.02"/>
<polygon fill="none" stroke="black" points="2321.95,-1559.51 2321.95,-1581.44 2237.29,-1592.48 2122.35,-1592.48 2037.7,-1581.44 2037.7,-1559.51 2122.35,-1548.48 2237.29,-1548.48 2321.95,-1559.51"/>
<polygon fill="none" stroke="black" points="2325.95,-1555.99 2325.95,-1584.96 2237.55,-1596.48 2122.09,-1596.48 2033.7,-1584.96 2033.7,-1555.99 2122.09,-1544.48 2237.55,-1544.48 2325.95,-1555.99"/>
<text text-anchor="middle" x="2179.82" y="-1565.43" font-family="Times,serif" font-size="14.00">spdx:BSD&#45;3&#45;Clause&#45;Open&#45;MPI</text>
</g>
<!-- 552&#45;&gt;553 -->
<g id="edge3" class="edge">
<title>552&#45;&gt;553</title>
<path fill="none" stroke="#dac767" d="M2324.31,-815.22C2247.25,-1014.72 2242.75,-1041.64 2184.29,-1532.92"/>
<polygon fill="#dac767" stroke="#dac767" points="2180.83,-1532.39 2183.12,-1542.74 2187.78,-1533.22 2180.83,-1532.39"/>
</g>
<!-- 6778 -->
<g id="node17" class="node">
<title>6778</title>
<polygon fill="none" stroke="#e09d4b" points="2988.94,-2154.36 2988.94,-2169.28 2902.84,-2179.82 2781.07,-2179.82 2694.97,-2169.28 2694.97,-2154.36 2781.07,-2143.82 2902.84,-2143.82 2988.94,-2154.36"/>
<polygon fill="none" stroke="#e09d4b" points="2992.94,-2150.82 2992.94,-2172.82 2903.08,-2183.82 2780.83,-2183.82 2690.97,-2172.82 2690.97,-2150.82 2780.83,-2139.82 2903.08,-2139.82 2992.94,-2150.82"/>
<text text-anchor="middle" x="2841.96" y="-2156.77" font-family="Times,serif" font-size="14.00">Fedora:BSD&#45;3&#45;Clause&#45;Open&#45;MPI</text>
</g>
<!-- 553&#45;&gt;6778 -->
<g id="edge4" class="edge">
<title>553&#45;&gt;6778</title>
<path fill="none" stroke="#e09d4b" stroke-width="2" d="M2224.63,-1596.86C2670.35,-1859.38 2691.99,-1877.58 2825.07,-2129.75"/>
<polygon fill="#e09d4b" stroke="#e09d4b" stroke-width="2" points="2829.12,-2137.43 2820.48,-2130.69 2827.48,-2135.4 2824.02,-2128.82 2824.46,-2128.59 2824.9,-2128.36 2828.37,-2134.93 2828.44,-2126.49 2829.12,-2137.43"/>
</g>
<!-- 10941 -->
<g id="node23" class="node">
<title>10941</title>
<polygon fill="none" stroke="#78ab63" points="1117.2,-2214.77 1117.2,-2229.68 1035,-2240.22 918.73,-2240.22 836.52,-2229.68 836.52,-2214.77 918.73,-2204.22 1035,-2204.22 1117.2,-2214.77"/>
<polygon fill="none" stroke="#78ab63" points="1121.2,-2211.25 1121.2,-2233.2 1035.25,-2244.22 918.48,-2244.22 832.52,-2233.2 832.52,-2211.25 918.48,-2200.22 1035.25,-2200.22 1121.2,-2211.25"/>
<text text-anchor="middle" x="976.86" y="-2217.17" font-family="Times,serif" font-size="14.00">osadl:BSD&#45;3&#45;Clause&#45;Open&#45;MPI</text>
</g>
<!-- 553&#45;&gt;10941 -->
<g id="edge5" class="edge">
<title>553&#45;&gt;10941</title>
<path fill="none" stroke="#78ab63" stroke-width="2" d="M2114.25,-1595.87C1331.89,-1898.89 1298.04,-1916.33 1007.97,-2192.57"/>
<polygon fill="#78ab63" stroke="#78ab63" stroke-width="2" points="1001.95,-2198.3 1006.09,-2188.14 1003.46,-2196.17 1008.85,-2191.04 1009.19,-2191.4 1009.54,-2191.76 1004.15,-2196.89 1012.3,-2194.66 1001.95,-2198.3"/>
</g>
<!-- 14264 -->
<g id="node28" class="node">
<title>14264</title>
<polygon fill="none" stroke="black" points="2731.74,-1515.84 2731.74,-1530.75 2647.59,-1541.3 2528.57,-1541.3 2444.42,-1530.75 2444.42,-1515.84 2528.57,-1505.3 2647.59,-1505.3 2731.74,-1515.84"/>
<polygon fill="none" stroke="black" points="2735.74,-1512.31 2735.74,-1534.28 2647.84,-1545.3 2528.32,-1545.3 2440.42,-1534.28 2440.42,-1512.31 2528.32,-1501.3 2647.84,-1501.3 2735.74,-1512.31"/>
<text text-anchor="middle" x="2588.08" y="-1518.25" font-family="Times,serif" font-size="14.00">scancode:bsd&#45;3&#45;clause&#45;open&#45;mpi</text>
</g>
<!-- 553&#45;&gt;14264 -->
<g id="edge6" class="edge">
<title>553&#45;&gt;14264</title>
<path fill="none" stroke="#deb256" stroke-width="2" d="M2326.23,-1560.1C2375.99,-1554.79 2430.74,-1548.33 2477.26,-1542.23"/>
<polygon fill="#deb256" stroke="#deb256" stroke-width="2" points="2485.87,-1541.1 2476.54,-1546.87 2483.39,-1541.93 2476.02,-1542.9 2475.95,-1542.41 2475.89,-1541.91 2483.26,-1540.94 2475.36,-1537.95 2485.87,-1541.1"/>
</g>
<!-- 44607 -->
<g id="node47" class="node">
<title>44607</title>
<polygon fill="none" stroke="#379469" points="3095.16,-1897.94 3095.16,-1912.85 2977.26,-1923.39 2810.51,-1923.39 2692.61,-1912.85 2692.61,-1897.94 2810.51,-1887.39 2977.26,-1887.39 3095.16,-1897.94"/>
<polygon fill="none" stroke="#379469" points="3099.16,-1894.28 3099.16,-1916.51 2977.44,-1927.39 2810.33,-1927.39 2688.61,-1916.51 2688.61,-1894.28 2810.33,-1883.39 2977.44,-1883.39 3099.16,-1894.28"/>
<text text-anchor="middle" x="2893.88" y="-1900.34" font-family="Times,serif" font-size="14.00">metaeffekt:BSD 3&#45;Clause License (Open MPI)</text>
</g>
<!-- 553&#45;&gt;44607 -->
<g id="edge7" class="edge">
<title>553&#45;&gt;44607</title>
<path fill="none" stroke="#379469" stroke-width="2" d="M2287.19,-1590.44C2658.07,-1660.13 2689.93,-1679.34 2866.42,-1874.88"/>
<polygon fill="#379469" stroke="#379469" stroke-width="2" points="2872.21,-1881.3 2862.17,-1876.89 2870.12,-1879.73 2865.14,-1874.21 2865.51,-1873.87 2865.88,-1873.54 2870.86,-1879.06 2868.85,-1870.86 2872.21,-1881.3"/>
</g>
<!-- 554 -->
<g id="node5" class="node">
<title>554</title>
<polygon fill="none" stroke="black" points="2067.72,-1847.8 2067.72,-1862.72 1999.46,-1873.26 1902.93,-1873.26 1834.68,-1862.72 1834.68,-1847.8 1902.93,-1837.26 1999.46,-1837.26 2067.72,-1847.8"/>
<polygon fill="none" stroke="black" points="2071.72,-1844.37 2071.72,-1866.15 1999.77,-1877.26 1902.63,-1877.26 1830.68,-1866.15 1830.68,-1844.37 1902.63,-1833.26 1999.77,-1833.26 2071.72,-1844.37"/>
<text text-anchor="middle" x="1951.2" y="-1850.21" font-family="Times,serif" font-size="14.00">BSD&#45;3&#45;Clause&#45;Open&#45;MPI</text>
</g>
<!-- 554&#45;&gt;553 -->
<g id="edge8" class="edge">
<title>554&#45;&gt;553</title>
<path fill="none" stroke="black" stroke-width="2" d="M1957.62,-1832.99C1998.01,-1693.48 2008.44,-1673.59 2126.12,-1602.43"/>
<polygon fill="black" stroke="black" stroke-width="2" points="2133.45,-1598.01 2127.21,-1607.03 2131.51,-1599.76 2125.14,-1603.6 2124.88,-1603.17 2124.63,-1602.74 2131,-1598.91 2122.56,-1599.32 2133.45,-1598.01"/>
</g>
<!-- 554&#45;&gt;6778 -->
<g id="edge9" class="edge">
<title>554&#45;&gt;6778</title>
<path fill="none" stroke="#e09d4b" stroke-width="2" d="M1989.48,-1877.6C2398.04,-2116.03 2480.02,-2160.55 2679.69,-2164.06"/>
<polygon fill="#e09d4b" stroke="#e09d4b" stroke-width="2" points="2688.4,-2164.18 2678.34,-2168.54 2685.83,-2164.64 2678.39,-2164.54 2678.4,-2164.04 2678.4,-2163.54 2685.84,-2163.64 2678.46,-2159.54 2688.4,-2164.18"/>
</g>
<!-- 10079 -->
<g id="node20" class="node">
<title>10079</title>
<polygon fill="none" stroke="#00876c" points="1456.17,-1649.66 1456.17,-1664.57 1365.52,-1675.12 1237.33,-1675.12 1146.68,-1664.57 1146.68,-1649.66 1237.33,-1639.12 1365.52,-1639.12 1456.17,-1649.66"/>
<polygon fill="none" stroke="#00876c" points="1460.17,-1646.1 1460.17,-1668.14 1365.76,-1679.12 1237.1,-1679.12 1142.68,-1668.14 1142.68,-1646.1 1237.1,-1635.12 1365.76,-1635.12 1460.17,-1646.1"/>
<text text-anchor="middle" x="1301.43" y="-1652.07" font-family="Times,serif" font-size="14.00">BlueOak:BSD&#45;3&#45;Clause&#45;Open&#45;MPI</text>
</g>
<!-- 554&#45;&gt;10079 -->
<g id="edge10" class="edge">
<title>554&#45;&gt;10079</title>
<path fill="none" stroke="#00876c" stroke-width="2" d="M1879.28,-1836.49C1543.73,-1748.84 1491.07,-1733.97 1366.31,-1683.63"/>
<polygon fill="#00876c" stroke="#00876c" stroke-width="2" points="1358.27,-1680.37 1369.22,-1679.96 1360.83,-1680.87 1367.72,-1683.66 1367.53,-1684.13 1367.35,-1684.59 1360.45,-1681.8 1365.85,-1688.3 1358.27,-1680.37"/>
</g>
<!-- 554&#45;&gt;10941 -->
<g id="edge11" class="edge">
<title>554&#45;&gt;10941</title>
<path fill="none" stroke="#78ab63" stroke-width="2" d="M1889.36,-1875.49C1304.59,-2066.82 1255.81,-2084.03 1031.62,-2195.03"/>
<polygon fill="#78ab63" stroke="#78ab63" stroke-width="2" points="1024.03,-2198.79 1031,-2190.31 1026.11,-2197.2 1032.77,-2193.9 1032.99,-2194.35 1033.22,-2194.8 1026.55,-2198.1 1034.99,-2198.38 1024.03,-2198.79"/>
</g>
<!-- 554&#45;&gt;14264 -->
<g id="edge12" class="edge">
<title>554&#45;&gt;14264</title>
<path fill="none" stroke="black" stroke-width="2" d="M1972,-1832.98C2189.47,-1600.14 2234.09,-1558.1 2432.99,-1536.36"/>
<polygon fill="black" stroke="black" stroke-width="2" points="2441.7,-1535.44 2432.23,-1540.97 2439.21,-1536.2 2431.81,-1536.99 2431.76,-1536.49 2431.7,-1535.99 2439.1,-1535.21 2431.28,-1532.02 2441.7,-1535.44"/>
</g>
<!-- 34693 -->
<g id="node32" class="node">
<title>34693</title>
<polygon fill="none" stroke="#e18745" points="1585.15,-1440.75 1585.15,-1455.66 1492.56,-1466.2 1361.61,-1466.2 1269.02,-1455.66 1269.02,-1440.75 1361.61,-1430.2 1492.56,-1430.2 1585.15,-1440.75"/>
<polygon fill="none" stroke="#e18745" points="1589.15,-1437.18 1589.15,-1459.23 1492.79,-1470.2 1361.39,-1470.2 1265.02,-1459.23 1265.02,-1437.18 1361.39,-1426.2 1492.79,-1426.2 1589.15,-1437.18"/>
<text text-anchor="middle" x="1427.09" y="-1443.15" font-family="Times,serif" font-size="14.00">fossology:BSD&#45;3&#45;Clause&#45;Open&#45;MPI</text>
</g>
<!-- 554&#45;&gt;34693 -->
<g id="edge13" class="edge">
<title>554&#45;&gt;34693</title>
<path fill="none" stroke="#e18745" stroke-width="2" d="M1915.96,-1832.9C1588.05,-1624.75 1561.46,-1605.92 1453.18,-1478.95"/>
<polygon fill="#e18745" stroke="#e18745" stroke-width="2" points="1447.51,-1472.28 1457.41,-1476.98 1449.55,-1473.91 1454.37,-1479.57 1453.99,-1479.9 1453.61,-1480.22 1448.79,-1474.56 1450.56,-1482.81 1447.51,-1472.28"/>
</g>
<!-- 41181 -->
<g id="node43" class="node">
<title>41181</title>
<polygon fill="none" stroke="#379469" points="994.6,-2133.59 994.6,-2148.5 913.36,-2159.04 798.48,-2159.04 717.24,-2148.5 717.24,-2133.59 798.48,-2123.04 913.36,-2123.04 994.6,-2133.59"/>
<polygon fill="none" stroke="#379469" points="998.6,-2130.07 998.6,-2152.01 913.62,-2163.04 798.22,-2163.04 713.24,-2152.01 713.24,-2130.07 798.22,-2119.04 913.62,-2119.04 998.6,-2130.07"/>
<text text-anchor="middle" x="855.92" y="-2135.99" font-family="Times,serif" font-size="14.00">cavil:BSD&#45;3&#45;Clause&#45;Open&#45;MPI</text>
</g>
<!-- 554&#45;&gt;41181 -->
<g id="edge14" class="edge">
<title>554&#45;&gt;41181</title>
<path fill="none" stroke="#379469" stroke-width="2" d="M1872.9,-1873.17C1238.87,-2018.26 1175.25,-2033.81 930.39,-2115.95"/>
<polygon fill="#379469" stroke="#379469" stroke-width="2" points="922.41,-2118.63 930.46,-2111.18 924.68,-2117.34 931.73,-2114.98 931.89,-2115.45 932.05,-2115.92 925,-2118.29 933.32,-2119.72 922.41,-2118.63"/>
</g>
<!-- 554&#45;&gt;44607 -->
<g id="edge15" class="edge">
<title>554&#45;&gt;44607</title>
<path fill="none" stroke="#379469" stroke-dasharray="5,2" d="M2072.11,-1865.46C2426.03,-1895.28 2554.66,-1905.33 2677.09,-1907.28"/>
<polygon fill="#379469" stroke="#379469" points="2686.95,-1907.42 2676.89,-1911.78 2683.17,-1907.37 2676.95,-1907.28 2676.95,-1907.28 2676.95,-1907.28 2683.17,-1907.37 2677.01,-1902.78 2686.95,-1907.42"/>
</g>
<!-- 555 -->
<g id="node6" class="node">
<title>555</title>
<polygon fill="none" stroke="black" points="2230.02,-1623.56 2230.02,-1638.48 2144.89,-1649.02 2024.5,-1649.02 1939.37,-1638.48 1939.37,-1623.56 2024.5,-1613.02 2144.89,-1613.02 2230.02,-1623.56"/>
<polygon fill="none" stroke="black" points="2234.02,-1620.03 2234.02,-1642.01 2145.14,-1653.02 2024.25,-1653.02 1935.37,-1642.01 1935.37,-1620.03 2024.25,-1609.02 2145.14,-1609.02 2234.02,-1620.03"/>
<text text-anchor="middle" x="2084.7" y="-1625.97" font-family="Times,serif" font-size="14.00">BSD 3&#45;Clause Open MPI variant</text>
</g>
<!-- 555&#45;&gt;553 -->
<g id="edge16" class="edge">
<title>555&#45;&gt;553</title>
<path fill="none" stroke="black" stroke-width="2" d="M2100.96,-1608.66C2102.34,-1606.85 2103.67,-1605.15 2104.97,-1603.56"/>
<polygon fill="black" stroke="black" stroke-width="2" points="2110.49,-1597.34 2107.22,-1607.81 2109.16,-1599.59 2104.23,-1605.15 2103.85,-1604.82 2103.48,-1604.49 2108.41,-1598.92 2100.49,-1601.84 2110.49,-1597.34"/>
</g>
<!-- 555&#45;&gt;10079 -->
<g id="edge17" class="edge">
<title>555&#45;&gt;10079</title>
<path fill="none" stroke="#00876c" stroke-width="2" d="M1934.93,-1620.25C1603.32,-1596.86 1536.03,-1597.54 1390.91,-1633.67"/>
<polygon fill="#00876c" stroke="#00876c" stroke-width="2" points="1382.69,-1635.74 1391.29,-1628.94 1385.05,-1634.63 1392.26,-1632.82 1392.39,-1633.3 1392.51,-1633.79 1385.3,-1635.6 1393.48,-1637.67 1382.69,-1635.74"/>
</g>
<!-- 555&#45;&gt;14264 -->
<g id="edge18" class="edge">
<title>555&#45;&gt;14264</title>
<path fill="none" stroke="#deb256" stroke-width="2" d="M2122.16,-1608.6C2306.28,-1498.66 2346.98,-1480.59 2483.2,-1503.25"/>
<polygon fill="#deb256" stroke="#deb256" stroke-width="2" points="2491.64,-1504.7 2481.03,-1507.45 2489.03,-1504.76 2481.7,-1503.51 2481.78,-1503.01 2481.87,-1502.52 2489.2,-1503.77 2482.54,-1498.58 2491.64,-1504.7"/>
</g>
<!-- 555&#45;&gt;34693 -->
<g id="edge19" class="edge">
<title>555&#45;&gt;34693</title>
<path fill="none" stroke="#e18745" stroke-width="2" d="M2022.66,-1608.81C1747.12,-1510.22 1663.65,-1481.6 1565.11,-1465.36"/>
<polygon fill="#e18745" stroke="#e18745" stroke-width="2" points="1556.67,-1464.01 1567.25,-1461.14 1559.28,-1463.92 1566.62,-1465.09 1566.55,-1465.59 1566.47,-1466.08 1559.12,-1464.91 1565.84,-1470.03 1556.67,-1464.01"/>
</g>
<!-- 555&#45;&gt;44607 -->
<g id="edge20" class="edge">
<title>555&#45;&gt;44607</title>
<path fill="none" stroke="#379469" stroke-dasharray="5,2" d="M2215.53,-1644.74C2620.18,-1688.02 2659.08,-1705.48 2859.26,-1875.83"/>
<polygon fill="#379469" stroke="#379469" points="2866.75,-1882.21 2856.22,-1879.15 2863.87,-1879.76 2859.13,-1875.72 2859.13,-1875.72 2859.13,-1875.72 2863.87,-1879.76 2862.05,-1872.3 2866.75,-1882.21"/>
</g>
<!-- 66446 -->
<g id="node52" class="node">
<title>66446</title>
<polygon fill="none" stroke="#00876c" points="1843.88,-1384.61 1843.88,-1399.52 1746.09,-1410.06 1607.8,-1410.06 1510.02,-1399.52 1510.02,-1384.61 1607.8,-1374.06 1746.09,-1374.06 1843.88,-1384.61"/>
<polygon fill="none" stroke="#00876c" points="1847.88,-1381.02 1847.88,-1403.11 1746.31,-1414.06 1607.59,-1414.06 1506.02,-1403.11 1506.02,-1381.02 1607.59,-1370.06 1746.31,-1370.06 1847.88,-1381.02"/>
<text text-anchor="middle" x="1676.95" y="-1387.01" font-family="Times,serif" font-size="14.00">spdx:BSD 3&#45;Clause Open MPI variant</text>
</g>
<!-- 555&#45;&gt;66446 -->
<g id="edge21" class="edge">
<title>555&#45;&gt;66446</title>
<path fill="none" stroke="#00876c" stroke-width="2" d="M2050.11,-1608.65C1851.62,-1480.32 1811.78,-1455.25 1735.57,-1419.15"/>
<polygon fill="#00876c" stroke="#00876c" stroke-width="2" points="1727.78,-1415.48 1738.74,-1415.67 1730.31,-1416.12 1737.04,-1419.29 1736.83,-1419.74 1736.61,-1420.19 1729.88,-1417.03 1734.91,-1423.81 1727.78,-1415.48"/>
</g>
<!-- 556 -->
<g id="node7" class="node">
<title>556</title>
<text text-anchor="middle" x="2752.75" y="-250.69" font-family="Times,serif" font-size="14.00">SPDXLicense:</text>
<text text-anchor="middle" x="2752.75" y="-234.19" font-family="Times,serif" font-size="14.00">This license is largely similar to BSD&#45;3&#45;Clause, but notably includes an</text>
<text text-anchor="middle" x="2752.75" y="-217.69" font-family="Times,serif" font-size="14.00">additional paragraph between the three main clauses and the all&#45;caps disclaimer</text>
<text text-anchor="middle" x="2752.75" y="-201.19" font-family="Times,serif" font-size="14.00">text.</text>
</g>
<!-- 556&#45;&gt;552 -->
<g id="edge22" class="edge">
<title>556&#45;&gt;552</title>
<path fill="none" stroke="#dac767" d="M2704.37,-267.98C2570.69,-371.54 2547.22,-408.58 2357.57,-746.78"/>
<polygon fill="#dac767" stroke="#dac767" points="2354.64,-744.87 2352.8,-755.3 2360.74,-748.29 2354.64,-744.87"/>
</g>
<!-- 557 -->
<g id="node8" class="node">
<title>557</title>
<text text-anchor="middle" x="2401.35" y="-274.66" font-family="Times,serif" font-size="14.00">$TEXT</text>
</g>
<!-- 557&#45;&gt;552 -->
<g id="edge23" class="edge">
<title>557&#45;&gt;552</title>
<path fill="none" stroke="#dac767" d="M2398,-297.57C2373.95,-425.88 2371.61,-444 2339.94,-745.41"/>
<polygon fill="#dac767" stroke="#dac767" points="2336.47,-744.9 2338.91,-755.21 2343.44,-745.63 2336.47,-744.9"/>
</g>
<!-- 558 -->
<g id="node9" class="node">
<title>558</title>
<text text-anchor="middle" x="2438.79" y="-13.37" font-family="Times,serif" font-size="14.00">$TEXT</text>
</g>
<!-- 558&#45;&gt;557 -->
<g id="edge24" class="edge">
<title>558&#45;&gt;557</title>
<path fill="none" stroke="#dac767" d="M2435.31,-36.18C2424.02,-93.89 2421.87,-109.57 2404.84,-250.77"/>
<polygon fill="#dac767" stroke="#dac767" points="2401.38,-250.21 2403.66,-260.56 2408.33,-251.05 2401.38,-250.21"/>
</g>
<!-- 559 -->
<g id="node10" class="node">
<title>559</title>
<text text-anchor="middle" x="1758.18" y="-852.37" font-family="Times,serif" font-size="14.00">https://www.open&#45;mpi.org/community/license.php</text>
</g>
<!-- 559&#45;&gt;552 -->
<g id="edge25" class="edge">
<title>559&#45;&gt;552</title>
<path fill="none" stroke="#dac767" d="M1789.62,-839.48C1988.27,-726.38 2024.4,-713.58 2228.19,-760.16"/>
<polygon fill="#dac767" stroke="#dac767" points="2227.28,-763.55 2237.81,-762.38 2228.85,-756.72 2227.28,-763.55"/>
</g>
<!-- 14263 -->
<g id="node27" class="node">
<title>14263</title>
<ellipse fill="none" stroke="#deb256" cx="2067.77" cy="-1095.49" rx="154.5" ry="28.99"/>
<text text-anchor="middle" x="2067.77" y="-1098.69" font-family="Times,serif" font-size="14.00" fill="gray">ScancodeData</text>
<text text-anchor="middle" x="2067.77" y="-1082.19" font-family="Times,serif" font-size="14.00" fill="gray">8ca1cb0ef6c2500e1ef73723ac4ddf28</text>
</g>
<!-- 559&#45;&gt;14263 -->
<g id="edge26" class="edge">
<title>559&#45;&gt;14263</title>
<path fill="none" stroke="#deb256" d="M1803.57,-875.4C1878.2,-906.28 1903.28,-928.21 2031.85,-1058.92"/>
<polygon fill="#deb256" stroke="#deb256" points="2029.09,-1061.11 2038.6,-1065.78 2034.09,-1056.2 2029.09,-1061.11"/>
</g>
<!-- 34692 -->
<g id="node31" class="node">
<title>34692</title>
<ellipse fill="none" stroke="#e18745" cx="1112.32" cy="-885.19" rx="158.22" ry="28.99"/>
<text text-anchor="middle" x="1112.32" y="-888.39" font-family="Times,serif" font-size="14.00" fill="gray">Fossology</text>
<text text-anchor="middle" x="1112.32" y="-871.89" font-family="Times,serif" font-size="14.00" fill="gray">2cf48dbee2cd89482978c29de7ce2005</text>
</g>
<!-- 559&#45;&gt;34692 -->
<g id="edge27" class="edge">
<title>559&#45;&gt;34692</title>
<path fill="none" stroke="#e18745" d="M1669.35,-839.44C1385.65,-782.59 1339.18,-782.21 1181.43,-853.27"/>
<polygon fill="#e18745" stroke="#e18745" points="1180.41,-849.89 1172.75,-857.2 1183.3,-856.26 1180.41,-849.89"/>
</g>
<!-- 559&#45;&gt;59316 -->
<g id="edge28" class="edge">
<title>559&#45;&gt;59316</title>
<path fill="none" stroke="#dc574a" d="M1768.98,-875.41C1769.4,-876.13 1769.84,-876.87 1770.29,-877.64"/>
<polygon fill="#dc574a" stroke="#dc574a" points="1767.23,-879.34 1775.27,-886.24 1773.28,-875.83 1767.23,-879.34"/>
</g>
<!-- 560 -->
<g id="node11" class="node">
<title>560</title>
<text text-anchor="middle" x="2337.11" y="-721.32" font-family="Times,serif" font-size="14.00">http://www.netlib.org/lapack/LICENSE.txt</text>
</g>
<!-- 560&#45;&gt;552 -->
<g id="edge29" class="edge">
<title>560&#45;&gt;552</title>
<path fill="none" stroke="#dac767" d="M2336.68,-744.19C2336.68,-744.5 2336.67,-744.82 2336.66,-745.14"/>
<polygon fill="#dac767" stroke="#dac767" points="2333.17,-744.78 2336.43,-754.86 2340.17,-744.94 2333.17,-744.78"/>
</g>
<!-- 560&#45;&gt;14263 -->
<g id="edge30" class="edge">
<title>560&#45;&gt;14263</title>
<path fill="none" stroke="#deb256" d="M2309.69,-744.16C2197.95,-817.2 2184.91,-836.63 2085.67,-1055.87"/>
<polygon fill="#deb256" stroke="#deb256" points="2082.59,-1054.19 2081.66,-1064.74 2088.97,-1057.07 2082.59,-1054.19"/>
</g>
<!-- 5550 -->
<g id="node12" class="node">
<title>5550</title>
<text text-anchor="middle" x="1419.82" y="-1137.2" font-family="Times,serif" font-size="14.00">LicenseType Permissive</text>
</g>
<!-- 10078 -->
<g id="node19" class="node">
<title>10078</title>
<ellipse fill="none" stroke="#00876c" cx="853.73" cy="-1344.94" rx="157.68" ry="28.99"/>
<text text-anchor="middle" x="853.73" y="-1348.14" font-family="Times,serif" font-size="14.00" fill="gray">BlueOakCouncil</text>
<text text-anchor="middle" x="853.73" y="-1331.64" font-family="Times,serif" font-size="14.00" fill="gray">e14ba0c82c99df48641ede76d944a5ee</text>
</g>
<!-- 5550&#45;&gt;10078 -->
<g id="edge31" class="edge">
<title>5550&#45;&gt;10078</title>
<path fill="none" stroke="#00876c" d="M1345.23,-1150.97C1057.76,-1184.94 1022.75,-1196.29 894.49,-1308.8"/>
<polygon fill="#00876c" stroke="#00876c" points="892.23,-1306.12 887.04,-1315.36 896.86,-1311.38 892.23,-1306.12"/>
</g>
<!-- 5550&#45;&gt;14263 -->
<g id="edge32" class="edge">
<title>5550&#45;&gt;14263</title>
<path fill="none" stroke="#deb256" d="M1454.71,-1124.26C1641.74,-1028.21 1678.15,-1020.15 1949.45,-1072.23"/>
<polygon fill="#deb256" stroke="#deb256" points="1948.49,-1075.61 1958.97,-1074.07 1949.81,-1068.74 1948.49,-1075.61"/>
</g>
<!-- 5550&#45;&gt;59316 -->
<g id="edge33" class="edge">
<title>5550&#45;&gt;59316</title>
<path fill="none" stroke="#dc574a" d="M1432.73,-1124.48C1526,-996.31 1550.32,-968.86 1673.45,-940.72"/>
<polygon fill="#dc574a" stroke="#dc574a" points="1674,-944.19 1683,-938.59 1672.48,-937.35 1674,-944.19"/>
</g>
<!-- 6592 -->
<g id="node13" class="node">
<title>6592</title>
<text text-anchor="middle" x="3335.58" y="-3215.4" font-family="Times,serif" font-size="14.00">[&quot;allowed&quot;]</text>
</g>
<!-- 6777 -->
<g id="node16" class="node">
<title>6777</title>
<ellipse fill="none" stroke="#e09d4b" cx="3124.63" cy="-2788.28" rx="158.22" ry="28.99"/>
<text text-anchor="middle" x="3124.63" y="-2791.48" font-family="Times,serif" font-size="14.00" fill="gray">FedoraEntry</text>
<text text-anchor="middle" x="3124.63" y="-2774.98" font-family="Times,serif" font-size="14.00" fill="gray">3dbf19d01e142c5a559223bdb6e602af</text>
</g>
<!-- 6592&#45;&gt;6777 -->
<g id="edge34" class="edge">
<title>6592&#45;&gt;6777</title>
<path fill="none" stroke="#e09d4b" d="M3329.87,-3202.62C3292.04,-3084.78 3283.89,-3067.96 3146.79,-2827.19"/>
<polygon fill="#e09d4b" stroke="#e09d4b" points="3149.97,-2825.69 3141.98,-2818.73 3143.88,-2829.15 3149.97,-2825.69"/>
</g>
<!-- 6593 -->
<g id="node14" class="node">
<title>6593</title>
<text text-anchor="start" x="3508.51" y="-3707.69" font-family="Times,serif" font-size="14.00">Fedora: </text>
<text text-anchor="start" x="3553.51" y="-3707.69" font-family="Times,serif" font-weight="bold" font-size="14.00" fill="#228b22">allowed</text>
<text text-anchor="start" x="3344.63" y="-3693.69" font-family="Times,serif" font-size="14.00">A license is allowed if Fedora determines that the license is a free software /</text>
<text text-anchor="start" x="3339.38" y="-3679.69" font-family="Times,serif" font-size="14.00">open source license. At a high level, the inquiry involves determining whether</text>
<text text-anchor="start" x="3338.26" y="-3665.69" font-family="Times,serif" font-size="14.00">the license provides software freedom, and (equivalently) making sure that the</text>
<text text-anchor="start" x="3348.38" y="-3651.69" font-family="Times,serif" font-size="14.00">license does not place burdens on users&#39; exercise of its permissions that are</text>
<text text-anchor="start" x="3348.01" y="-3637.69" font-family="Times,serif" font-size="14.00">inconsistent with evolving community norms and traditions around what is</text>
<text text-anchor="start" x="3339.76" y="-3623.69" font-family="Times,serif" font-size="14.00">acceptable in a free software / open source license. See below for more on the</text>
<text text-anchor="start" x="3459.76" y="-3609.69" font-family="Times,serif" font-size="14.00">history of Fedora licensing policy.</text>
</g>
<!-- 6593&#45;&gt;6592 -->
<g id="edge35" class="edge">
<title>6593&#45;&gt;6592</title>
<path fill="none" stroke="#e09d4b" d="M3531.23,-3604.13C3498.8,-3517.85 3476.55,-3476.42 3350.85,-3248.19"/>
<polygon fill="#e09d4b" stroke="#e09d4b" points="3353.99,-3246.63 3346.1,-3239.56 3347.86,-3250.01 3353.99,-3246.63"/>
</g>
<!-- 6743 -->
<g id="node15" class="node">
<title>6743</title>
<polygon fill="none" stroke="black" points="3295.82,-1777.24 3295.82,-1792.15 3277.54,-1802.69 3251.69,-1802.69 3233.41,-1792.15 3233.41,-1777.24 3251.69,-1766.69 3277.54,-1766.69 3295.82,-1777.24"/>
<text text-anchor="middle" x="3264.62" y="-1779.64" font-family="Times,serif" font-size="14.00">BSD</text>
</g>
<!-- 44602 -->
<g id="node45" class="node">
<title>44602</title>
<polygon fill="none" stroke="#379469" points="3519.01,-1729.73 3519.01,-1744.65 3364.44,-1755.19 3145.83,-1755.19 2991.26,-1744.65 2991.26,-1729.73 3145.83,-1719.19 3364.44,-1719.19 3519.01,-1729.73"/>
<text text-anchor="middle" x="3255.14" y="-1732.14" font-family="Times,serif" font-size="14.00">metaeffekt:BSD&#45;3&#45;Clause&#45;Open&#45;MPI&#45;copyright&#45;holder&#45;variant</text>
</g>
<!-- 6743&#45;&gt;44602 -->
<g id="edge36" class="edge">
<title>6743&#45;&gt;44602</title>
<path fill="none" stroke="#379469" stroke-dasharray="5,2" d="M3267.53,-1766.31C3267.54,-1766.19 3267.54,-1766.07 3267.54,-1765.95"/>
<polygon fill="#379469" stroke="#379469" points="3265.93,-1756.82 3272.1,-1765.89 3266.59,-1760.54 3267.67,-1766.67 3267.67,-1766.67 3267.67,-1766.67 3266.59,-1760.54 3263.24,-1767.45 3265.93,-1756.82"/>
</g>
<!-- 6743&#45;&gt;44607 -->
<g id="edge37" class="edge">
<title>6743&#45;&gt;44607</title>
<path fill="none" stroke="#379469" stroke-dasharray="5,2" d="M3241.5,-1797.27C3169.73,-1836.08 3144.85,-1845.53 2996.69,-1881.04"/>
<polygon fill="#379469" stroke="#379469" points="2986.99,-1883.36 2995.67,-1876.66 2990.67,-1882.48 2996.72,-1881.04 2996.72,-1881.04 2996.72,-1881.04 2990.67,-1882.48 2997.76,-1885.41 2986.99,-1883.36"/>
</g>
<!-- 6777&#45;&gt;6778 -->
<g id="edge38" class="edge">
<title>6777&#45;&gt;6778</title>
<path fill="none" stroke="#e09d4b" d="M3119.33,-2758.94C3085.37,-2572.21 3074.26,-2549.97 2861.16,-2193.9"/>
<polygon fill="#e09d4b" stroke="#e09d4b" points="2864.19,-2192.16 2856.06,-2185.37 2858.19,-2195.75 2864.19,-2192.16"/>
</g>
<!-- 10004 -->
<g id="node18" class="node">
<title>10004</title>
<text text-anchor="start" x="144.86" y="-1458.37" font-family="Times,serif" font-size="14.00">BlueOakCouncil: </text>
<text text-anchor="start" x="243.11" y="-1458.37" font-family="Times,serif" font-weight="bold" font-size="14.00" fill="#000000">Bronze</text>
<text text-anchor="start" x="7.61" y="-1444.37" font-family="Times,serif" font-size="14.00">These licenses lack important but nonessential elements of permissive open</text>
<text text-anchor="start" x="9.49" y="-1430.37" font-family="Times,serif" font-size="14.00">software licenses or impose additional requirements or restrictions, such as</text>
<text text-anchor="start" x="50.36" y="-1416.37" font-family="Times,serif" font-size="14.00">BSD&#45;style prohibitions against endorsement and promotion.</text>
</g>
<!-- 10004&#45;&gt;10078 -->
<g id="edge39" class="edge">
<title>10004&#45;&gt;10078</title>
<path fill="none" stroke="#00876c" d="M291.79,-1410.8C397.71,-1369.01 455.06,-1360.52 687.62,-1351.11"/>
<polygon fill="#00876c" stroke="#00876c" points="687.47,-1354.62 697.32,-1350.72 687.19,-1347.62 687.47,-1354.62"/>
</g>
<!-- 10078&#45;&gt;10079 -->
<g id="edge40" class="edge">
<title>10078&#45;&gt;10079</title>
<path fill="none" stroke="#00876c" d="M881.18,-1373.76C969.68,-1466.02 996.99,-1483.95 1252.1,-1629.08"/>
<polygon fill="#00876c" stroke="#00876c" points="1250.31,-1632.09 1260.74,-1633.99 1253.78,-1626 1250.31,-1632.09"/>
</g>
<!-- 10080 -->
<g id="node21" class="node">
<title>10080</title>
<text text-anchor="middle" x="341.44" y="-1213.43" font-family="Times,serif" font-size="14.00">https://spdx.org/licenses/BSD&#45;3&#45;Clause&#45;Open&#45;MPI</text>
</g>
<!-- 10080&#45;&gt;10078 -->
<g id="edge41" class="edge">
<title>10080&#45;&gt;10078</title>
<path fill="none" stroke="#00876c" d="M434.72,-1236.45C507.01,-1251.2 565.57,-1266.49 753.53,-1317.64"/>
<polygon fill="#00876c" stroke="#00876c" points="752.6,-1321.01 763.16,-1320.26 754.43,-1314.26 752.6,-1321.01"/>
</g>
<!-- 10940 -->
<g id="node22" class="node">
<title>10940</title>
<ellipse fill="none" stroke="#78ab63" cx="785.56" cy="-2710.67" rx="157.68" ry="28.99"/>
<text text-anchor="middle" x="785.56" y="-2713.87" font-family="Times,serif" font-size="14.00" fill="gray">OSADLRule</text>
<text text-anchor="middle" x="785.56" y="-2697.37" font-family="Times,serif" font-size="14.00" fill="gray">895bc9bd5c64b334c95f02abefdbbc68</text>
</g>
<!-- 10940&#45;&gt;10941 -->
<g id="edge42" class="edge">
<title>10940&#45;&gt;10941</title>
<path fill="none" stroke="#78ab63" d="M785.44,-2681.2C785.09,-2513.68 793.61,-2494.22 955.45,-2253.98"/>
<polygon fill="#78ab63" stroke="#78ab63" points="958.24,-2256.11 960.92,-2245.86 952.43,-2252.2 958.24,-2256.11"/>
</g>
<!-- 10942 -->
<g id="node24" class="node">
<title>10942</title>
<text text-anchor="middle" x="569.08" y="-3021.26" font-family="Times,serif" font-size="14.00">$RULE</text>
</g>
<!-- 10942&#45;&gt;10940 -->
<g id="edge43" class="edge">
<title>10942&#45;&gt;10940</title>
<path fill="none" stroke="#78ab63" d="M575.68,-3008.32C610.05,-2915.13 620.09,-2899.88 753.17,-2747.67"/>
<polygon fill="#78ab63" stroke="#78ab63" points="755.49,-2750.33 759.44,-2740.5 750.22,-2745.73 755.49,-2750.33"/>
</g>
<!-- 11201 -->
<g id="node25" class="node">
<title>11201</title>
<ellipse fill="none" stroke="#78ab63" cx="1075.15" cy="-2848.39" rx="157.68" ry="28.99"/>
<text text-anchor="middle" x="1075.15" y="-2851.59" font-family="Times,serif" font-size="14.00" fill="gray">OSADLMatrix</text>
<text text-anchor="middle" x="1075.15" y="-2835.09" font-family="Times,serif" font-size="14.00" fill="gray">8bc232dab619a61dbf971b1060afc34a</text>
</g>
<!-- 11201&#45;&gt;10941 -->
<g id="edge44" class="edge">
<title>11201&#45;&gt;10941</title>
<path fill="none" stroke="#78ab63" d="M1056.75,-2819.38C918.44,-2600.86 916.23,-2580.58 971.19,-2255.72"/>
<polygon fill="#78ab63" stroke="#78ab63" points="974.61,-2256.46 972.83,-2246.02 967.71,-2255.3 974.61,-2256.46"/>
</g>
<!-- 11202 -->
<g id="node26" class="node">
<title>11202</title>
<text text-anchor="middle" x="1006.13" y="-3290.41" font-family="Times,serif" font-size="14.00">$COMPATIBILITIES</text>
</g>
<!-- 11202&#45;&gt;11201 -->
<g id="edge45" class="edge">
<title>11202&#45;&gt;11201</title>
<path fill="none" stroke="#78ab63" d="M1002.72,-3277.73C976.68,-3141.22 978.66,-3124.85 1061.22,-2888.26"/>
<polygon fill="#78ab63" stroke="#78ab63" points="1064.46,-2889.59 1064.45,-2878.99 1057.85,-2887.28 1064.46,-2889.59"/>
</g>
<!-- 14263&#45;&gt;14264 -->
<g id="edge46" class="edge">
<title>14263&#45;&gt;14264</title>
<path fill="none" stroke="#deb256" d="M2149.74,-1120.48C2329.11,-1177.35 2359.76,-1212.56 2565.11,-1492.01"/>
<polygon fill="#deb256" stroke="#deb256" points="2562.22,-1494 2570.96,-1499.99 2567.86,-1489.85 2562.22,-1494"/>
</g>
<!-- 14264&#45;&gt;553 -->
<g id="edge47" class="edge">
<title>14264&#45;&gt;553</title>
<path fill="none" stroke="#00876c" stroke-width="2" d="M2439.94,-1533.86C2395.35,-1538.63 2346.9,-1544.31 2304.04,-1549.8"/>
<polygon fill="#00876c" stroke="#00876c" stroke-width="2" points="2295.39,-1550.92 2304.73,-1545.18 2297.87,-1550.1 2305.25,-1549.14 2305.31,-1549.64 2305.37,-1550.13 2298,-1551.09 2305.89,-1554.1 2295.39,-1550.92"/>
</g>
<!-- 14264&#45;&gt;44602 -->
<g id="edge48" class="edge">
<title>14264&#45;&gt;44602</title>
<path fill="none" stroke="#379469" stroke-dasharray="5,2" d="M2708.15,-1538.21C3032.73,-1579.23 3068.32,-1593.6 3222.51,-1712.02"/>
<polygon fill="#379469" stroke="#379469" points="3230.42,-1718.1 3219.75,-1715.57 3227.43,-1715.8 3222.5,-1712 3222.5,-1712 3222.5,-1712 3227.43,-1715.8 3225.24,-1708.44 3230.42,-1718.1"/>
</g>
<!-- 14264&#45;&gt;44607 -->
<g id="edge49" class="edge">
<title>14264&#45;&gt;44607</title>
<path fill="none" stroke="#379469" stroke-dasharray="5,2" d="M2622.65,-1545.75C2822.11,-1675.58 2835.6,-1692.04 2884.88,-1872.23"/>
<polygon fill="#379469" stroke="#379469" points="2887.47,-1881.74 2880.5,-1873.28 2886.48,-1878.09 2884.84,-1872.09 2884.84,-1872.09 2884.84,-1872.09 2886.48,-1878.09 2889.18,-1870.91 2887.47,-1881.74"/>
</g>
<!-- 14265 -->
<g id="node29" class="node">
<title>14265</title>
<text text-anchor="middle" x="2077.2" y="-1031.13" font-family="Times,serif" font-size="14.00">https://www.open&#45;mpi.org/community/license.php</text>
</g>
<!-- 14265&#45;&gt;14263 -->
<g id="edge50" class="edge">
<title>14265&#45;&gt;14263</title>
<path fill="none" stroke="#deb256" d="M2070.53,-1053.91C2070.46,-1054.23 2070.39,-1054.54 2070.33,-1054.86"/>
<polygon fill="#deb256" stroke="#deb256" points="2066.88,-1054.22 2069.14,-1064.57 2073.83,-1055.07 2066.88,-1054.22"/>
</g>
<!-- 14266 -->
<g id="node30" class="node">
<title>14266</title>
<text text-anchor="middle" x="2421.65" y="-922.18" font-family="Times,serif" font-size="14.00">$TEXT</text>
</g>
<!-- 14266&#45;&gt;14263 -->
<g id="edge51" class="edge">
<title>14266&#45;&gt;14263</title>
<path fill="none" stroke="#deb256" d="M2393.21,-928.19C2251.42,-933.24 2231.9,-940.68 2106.07,-1059.21"/>
<polygon fill="#deb256" stroke="#deb256" points="2103.99,-1056.36 2099.12,-1065.77 2108.8,-1061.45 2103.99,-1056.36"/>
</g>
<!-- 34692&#45;&gt;34693 -->
<g id="edge52" class="edge">
<title>34692&#45;&gt;34693</title>
<path fill="none" stroke="#e18745" d="M1119.33,-914.49C1161.66,-1090.07 1174.53,-1111.06 1403.64,-1416.91"/>
<polygon fill="#e18745" stroke="#e18745" points="1400.78,-1418.93 1409.58,-1424.83 1406.38,-1414.73 1400.78,-1418.93"/>
</g>
<!-- 34694 -->
<g id="node33" class="node">
<title>34694</title>
<text text-anchor="middle" x="602.58" y="-475.75" font-family="Times,serif" font-size="14.00">Fossology:</text>
<text text-anchor="middle" x="602.58" y="-459.25" font-family="Times,serif" font-size="14.00">This license is largely similar to BSD&#45;3&#45;Clause, but notably includes an</text>
<text text-anchor="middle" x="602.58" y="-442.75" font-family="Times,serif" font-size="14.00">additional paragraph between the three main clauses and the all&#45;caps disclaimer</text>
<text text-anchor="middle" x="602.58" y="-426.25" font-family="Times,serif" font-size="14.00">text.</text>
</g>
<!-- 34694&#45;&gt;34692 -->
<g id="edge53" class="edge">
<title>34694&#45;&gt;34692</title>
<path fill="none" stroke="#e18745" d="M645.41,-492.74C752.98,-584.84 788.18,-614.35 1069.38,-849.32"/>
<polygon fill="#e18745" stroke="#e18745" points="1067.12,-851.99 1077.04,-855.71 1071.61,-846.62 1067.12,-851.99"/>
</g>
<!-- 34695 -->
<g id="node34" class="node">
<title>34695</title>
<text text-anchor="middle" x="786.5" y="-649.9" font-family="Times,serif" font-size="14.00">$TEXT</text>
</g>
<!-- 34695&#45;&gt;34692 -->
<g id="edge54" class="edge">
<title>34695&#45;&gt;34692</title>
<path fill="none" stroke="#e18745" d="M813.91,-672.71C882.97,-717.6 905.75,-733.81 1064.35,-850.03"/>
<polygon fill="#e18745" stroke="#e18745" points="1062.13,-852.74 1072.27,-855.83 1066.27,-847.1 1062.13,-852.74"/>
</g>
<!-- 35432 -->
<g id="node35" class="node">
<title>35432</title>
<text text-anchor="middle" x="2913.8" y="-1279.83" font-family="Times,serif" font-size="14.00">LicenseTag (ScopedLicenseTag &quot;OrtLicenseCategorization&quot; &quot;permissive&quot; NoLicenseTagText)</text>
</g>
<!-- 35503 -->
<g id="node37" class="node">
<title>35503</title>
<ellipse fill="none" stroke="#d43d51" cx="2781.42" cy="-1344.3" rx="156.62" ry="28.99"/>
<text text-anchor="middle" x="2781.42" y="-1347.5" font-family="Times,serif" font-size="14.00" fill="gray">OrtLicenseCategorization</text>
<text text-anchor="middle" x="2781.42" y="-1331" font-family="Times,serif" font-size="14.00" fill="gray">0bbffe68ebaeea7291d8d7d588d55cda</text>
</g>
<!-- 35432&#45;&gt;35503 -->
<g id="edge55" class="edge">
<title>35432&#45;&gt;35503</title>
<path fill="none" stroke="#d43d51" d="M2855.1,-1302.73C2850.47,-1305.02 2845.37,-1307.71 2839.54,-1310.91"/>
<polygon fill="#d43d51" stroke="#d43d51" points="2838.08,-1307.71 2831.04,-1315.64 2841.48,-1313.83 2838.08,-1307.71"/>
</g>
<!-- 35433 -->
<g id="node36" class="node">
<title>35433</title>
<text text-anchor="middle" x="3485.08" y="-1027.81" font-family="Times,serif" font-size="14.00">LicenseTag (ScopedLicenseTag &quot;OrtLicenseCategorization&quot; &quot;include&#45;in&#45;notice&#45;file&quot; NoLicenseTagText)</text>
</g>
<!-- 35433&#45;&gt;35503 -->
<g id="edge56" class="edge">
<title>35433&#45;&gt;35503</title>
<path fill="none" stroke="#d43d51" d="M3414.2,-1050.79C3254.98,-1092.09 3204.39,-1117.01 2842.94,-1311.23"/>
<polygon fill="#d43d51" stroke="#d43d51" points="2841.47,-1308.05 2834.32,-1315.86 2844.78,-1314.21 2841.47,-1308.05"/>
</g>
<!-- 35503&#45;&gt;553 -->
<g id="edge57" class="edge">
<title>35503&#45;&gt;553</title>
<path fill="none" stroke="#d43d51" d="M2624.68,-1345.26C2514.2,-1354.23 2447.68,-1393.87 2229.37,-1537.77"/>
<polygon fill="#d43d51" stroke="#d43d51" points="2227.55,-1534.78 2221.13,-1543.21 2231.4,-1540.62 2227.55,-1534.78"/>
</g>
<!-- 39999 -->
<g id="node38" class="node">
<title>39999</title>
<text text-anchor="middle" x="2792.47" y="-2316.07" font-family="Times,serif" font-size="14.00">LicenseTag (ScopedLicenseTag &quot;OrtLicenseCategorization&quot; &quot;permissive&quot; (LicenseTagDescription &quot;Open source license that is made available under \&quot;non&#45;copyleft\&quot; licenses. These generally require attribution of the included works and may include other obligations.&quot;))</text>
</g>
<!-- 40052 -->
<g id="node41" class="node">
<title>40052</title>
<ellipse fill="none" stroke="#e06f45" cx="2516.07" cy="-2215.02" rx="158.75" ry="28.99"/>
<text text-anchor="middle" x="2516.07" y="-2218.22" font-family="Times,serif" font-size="14.00" fill="gray">OrtLicenseCategorization</text>
<text text-anchor="middle" x="2516.07" y="-2201.72" font-family="Times,serif" font-size="14.00" fill="gray">728cf93ca92b324b9f5271266c404366</text>
</g>
<!-- 39999&#45;&gt;40052 -->
<g id="edge58" class="edge">
<title>39999&#45;&gt;40052</title>
<path fill="none" stroke="#e06f45" d="M2686.18,-2303.18C2659.89,-2293.45 2628.52,-2277.21 2576.07,-2248.32"/>
<polygon fill="#e06f45" stroke="#e06f45" points="2577.8,-2245.28 2567.35,-2243.51 2574.42,-2251.41 2577.8,-2245.28"/>
</g>
<!-- 40001 -->
<g id="node39" class="node">
<title>40001</title>
<text text-anchor="middle" x="2633.42" y="-2269.13" font-family="Times,serif" font-size="14.00">LicenseTag (ScopedLicenseTag &quot;OrtLicenseCategorization&quot; &quot;property:include&#45;in&#45;notice&#45;file&quot; (LicenseTagDescription &quot;Whether the license includes a notice obligation or similar which can be fulfilled by adding the relevant copyright notices and the license text into the project/product notice file.&quot;))</text>
</g>
<!-- 40001&#45;&gt;40052 -->
<g id="edge59" class="edge">
<title>40001&#45;&gt;40052</title>
<path fill="none" stroke="#e06f45" d="M2577.59,-2256.27C2574.23,-2254.32 2570.61,-2252.09 2566.6,-2249.51"/>
<polygon fill="#e06f45" stroke="#e06f45" points="2568.69,-2246.7 2558.41,-2244.14 2564.85,-2252.55 2568.69,-2246.7"/>
</g>
<!-- 40002 -->
<g id="node40" class="node">
<title>40002</title>
<text text-anchor="middle" x="1031.53" y="-2269.18" font-family="Times,serif" font-size="14.00">LicenseTag (ScopedLicenseTag &quot;OrtLicenseCategorization&quot; &quot;include&#45;in&#45;notice&#45;file&quot; (LicenseTagDescription &quot;Same as above, as a temporary work&#45;around for the category name not being configurable in ORT reports, see https://github.com/oss&#45;review&#45;toolkit/ort/issues/8220.&quot;))</text>
</g>
<!-- 40002&#45;&gt;40052 -->
<g id="edge60" class="edge">
<title>40002&#45;&gt;40052</title>
<path fill="none" stroke="#e06f45" d="M1094.38,-2292.14C1514.66,-2411.32 1570.54,-2408.77 2398.49,-2239.15"/>
<polygon fill="#e06f45" stroke="#e06f45" points="2398.92,-2242.63 2408.01,-2237.19 2397.51,-2235.77 2398.92,-2242.63"/>
</g>
<!-- 40052&#45;&gt;553 -->
<g id="edge61" class="edge">
<title>40052&#45;&gt;553</title>
<path fill="none" stroke="#e06f45" d="M2508.94,-2185.67C2461.29,-1990.46 2448.63,-1967.87 2204.06,-1606.3"/>
<polygon fill="#e06f45" stroke="#e06f45" points="2207.04,-1604.45 2198.53,-1598.13 2201.24,-1608.38 2207.04,-1604.45"/>
</g>
<!-- 41180 -->
<g id="node42" class="node">
<title>41180</title>
<ellipse fill="none" stroke="#379469" cx="500.89" cy="-2400.6" rx="160.34" ry="28.99"/>
<text text-anchor="middle" x="500.89" y="-2403.8" font-family="Times,serif" font-size="14.00" fill="gray">CavilLicenseChange</text>
<text text-anchor="middle" x="500.89" y="-2387.3" font-family="Times,serif" font-size="14.00" fill="gray">7529d7ea1a519e31ee47511601d9e4b9</text>
</g>
<!-- 41180&#45;&gt;41181 -->
<g id="edge62" class="edge">
<title>41180&#45;&gt;41181</title>
<path fill="none" stroke="#379469" d="M525.59,-2371.7C590.46,-2296.68 615.11,-2279.75 807.14,-2169.11"/>
<polygon fill="#379469" stroke="#379469" points="808.78,-2172.21 815.69,-2164.19 805.28,-2166.14 808.78,-2172.21"/>
</g>
<!-- 43136 -->
<g id="node44" class="node">
<title>43136</title>
<text text-anchor="start" x="4315.53" y="-2354.99" font-family="Times,serif" font-size="14.00">CoDEStatus: </text>
<text text-anchor="start" x="4389.78" y="-2354.99" font-family="Times,serif" font-weight="bold" font-size="14.00" fill="#228b22">Approved</text>
<text text-anchor="start" x="4168.16" y="-2340.99" font-family="Times,serif" font-size="14.00">Eine Lizenz ist freigegeben, wenn sie nach fachlicher und juristischer Prüfung</text>
<text text-anchor="start" x="4150.16" y="-2326.99" font-family="Times,serif" font-size="14.00">seitens Open CoDE sowohl der Open Source Definition (gemäß Definition der Open</text>
<text text-anchor="start" x="4192.16" y="-2312.99" font-family="Times,serif" font-size="14.00">Source Initiative [extern]) entspricht und darüber hinaus keine für die</text>
<text text-anchor="start" x="4195.16" y="-2298.99" font-family="Times,serif" font-size="14.00">Öffentliche Verwaltung erkennbaren Schwierigkeiten birgt. Außer in</text>
<text text-anchor="start" x="4180.16" y="-2284.99" font-family="Times,serif" font-size="14.00">Ausnahmefällen ist nicht zu erwarten, dass einmal freigegebene Lizenzen</text>
<text text-anchor="start" x="4320.03" y="-2270.99" font-family="Times,serif" font-size="14.00">deklassifiziert werden.</text>
</g>
<!-- 44606 -->
<g id="node46" class="node">
<title>44606</title>
<ellipse fill="none" stroke="#379469" cx="3700.31" cy="-2115.09" rx="159.28" ry="28.99"/>
<text text-anchor="middle" x="3700.31" y="-2118.29" font-family="Times,serif" font-size="14.00" fill="gray">MetaeffektLicense</text>
<text text-anchor="middle" x="3700.31" y="-2101.79" font-family="Times,serif" font-size="14.00" fill="gray">1498f8004378c3974add7751ddfd53ab</text>
</g>
<!-- 43136&#45;&gt;44606 -->
<g id="edge63" class="edge">
<title>43136&#45;&gt;44606</title>
<path fill="none" stroke="#379469" d="M4232.23,-2265.42C4144.9,-2236.32 4053.95,-2211.07 3800.78,-2142.34"/>
<polygon fill="#379469" stroke="#379469" points="3801.8,-2138.99 3791.24,-2139.75 3799.97,-2145.75 3801.8,-2138.99"/>
</g>
<!-- 44606&#45;&gt;44607 -->
<g id="edge64" class="edge">
<title>44606&#45;&gt;44607</title>
<path fill="none" stroke="#379469" d="M3623.32,-2089.33C3466.44,-2037.35 3403.3,-2021.73 2999.25,-1929.44"/>
<polygon fill="#379469" stroke="#379469" points="3000.12,-1926.05 2989.59,-1927.24 2998.56,-1932.88 3000.12,-1926.05"/>
</g>
<!-- 44608 -->
<g id="node48" class="node">
<title>44608</title>
<polygon fill="none" stroke="#379469" points="3781.92,-2261.41 3781.92,-2276.32 3690.95,-2286.87 3562.3,-2286.87 3471.33,-2276.32 3471.33,-2261.41 3562.3,-2250.87 3690.95,-2250.87 3781.92,-2261.41"/>
<polygon fill="none" stroke="#379469" points="3785.92,-2257.85 3785.92,-2279.89 3691.18,-2290.87 3562.07,-2290.87 3467.33,-2279.89 3467.33,-2257.85 3562.07,-2246.87 3691.18,-2246.87 3785.92,-2257.85"/>
<text text-anchor="middle" x="3626.63" y="-2263.82" font-family="Times,serif" font-size="14.00">BSD 3&#45;Clause License (Open MPI)</text>
</g>
<!-- 44608&#45;&gt;44607 -->
<g id="edge65" class="edge">
<title>44608&#45;&gt;44607</title>
<path fill="none" stroke="#379469" stroke-width="2" d="M3594.37,-2246.47C3425.74,-2129.66 3393.41,-2114.09 2957.66,-1932.03"/>
<polygon fill="#379469" stroke="#379469" stroke-width="2" points="2949.87,-1928.78 2960.83,-1928.48 2952.43,-1929.3 2959.29,-1932.17 2959.1,-1932.63 2958.91,-1933.09 2952.04,-1930.23 2957.36,-1936.78 2949.87,-1928.78"/>
</g>
<!-- 59265 -->
<g id="node49" class="node">
<title>59265</title>
<text text-anchor="start" x="1532.25" y="-375.19" font-family="Times,serif" font-size="14.00">HermineLicense: </text>
<text text-anchor="start" x="1629.75" y="-375.19" font-family="Times,serif" font-weight="bold" font-size="14.00" fill="#228b22">We consider it is FOSS</text>
</g>
<!-- 59265&#45;&gt;59316 -->
<g id="edge66" class="edge">
<title>59265&#45;&gt;59316</title>
<path fill="none" stroke="#dc574a" d="M1650.61,-396.89C1671.12,-542.42 1675.81,-559.99 1779.59,-876.49"/>
<polygon fill="#dc574a" stroke="#dc574a" points="1776.25,-877.55 1782.69,-885.96 1782.9,-875.36 1776.25,-877.55"/>
</g>
<!-- 59316&#45;&gt;553 -->
<g id="edge67" class="edge">
<title>59316&#45;&gt;553</title>
<path fill="none" stroke="#dc574a" d="M1811.45,-945.96C1913.53,-1105.71 1928.99,-1132.2 2159.09,-1534.25"/>
<polygon fill="#dc574a" stroke="#dc574a" points="2155.98,-1535.86 2163.98,-1542.8 2162.05,-1532.39 2155.98,-1535.86"/>
</g>
<!-- 66445 -->
<g id="node51" class="node">
<title>66445</title>
<ellipse fill="none" stroke="#00876c" cx="2806.3" cy="-1656.22" rx="158.75" ry="28.99"/>
<text text-anchor="middle" x="2806.3" y="-1659.42" font-family="Times,serif" font-size="14.00" fill="gray">LicenseLynx</text>
<text text-anchor="middle" x="2806.3" y="-1642.92" font-family="Times,serif" font-size="14.00" fill="gray">8b552968fbe55db7f9e79c6644d321e0</text>
</g>
<!-- 66445&#45;&gt;553 -->
<g id="edge68" class="edge">
<title>66445&#45;&gt;553</title>
<path fill="none" stroke="#00876c" d="M2759.94,-1628.16C2592.94,-1527.85 2551.19,-1516.76 2312.08,-1550.74"/>
<polygon fill="#00876c" stroke="#00876c" points="2311.81,-1547.24 2302.41,-1552.12 2312.8,-1554.17 2311.81,-1547.24"/>
</g>
<!-- 66446&#45;&gt;553 -->
<g id="edge69" class="edge">
<title>66446&#45;&gt;553</title>
<path fill="none" stroke="#00876c" stroke-width="2" d="M1811.01,-1407.55C1880.19,-1422.03 1945.42,-1452.78 2117.34,-1539.07"/>
<polygon fill="#00876c" stroke="#00876c" stroke-width="2" points="2125.03,-1542.93 2114.07,-1542.46 2122.51,-1542.22 2115.87,-1538.89 2116.09,-1538.44 2116.32,-1537.99 2122.96,-1541.33 2118.11,-1534.42 2125.03,-1542.93"/>
</g>
</g>
</svg>
