<?xml version="1.0" encoding="UTF-8" standalone="no"?>
<!DOCTYPE svg PUBLIC "-//W3C//DTD SVG 1.1//EN"
 "http://www.w3.org/Graphics/SVG/1.1/DTD/svg11.dtd">
<!-- Generated by graphviz version 10.0.1 (0)
 -->
<!-- Pages: 1 -->
<svg width="4893pt" height="3903pt"
 viewBox="0.00 0.00 4893.00 3903.00" xmlns="http://www.w3.org/2000/svg" xmlns:xlink="http://www.w3.org/1999/xlink">
<g id="graph0" class="graph" transform="scale(1 1) rotate(0) translate(4 3899)">
<polygon fill="white" stroke="none" points="-4,4 -4,-3899 4889,-3899 4889,4 -4,4"/>
<!-- 5 -->
<g id="node1" class="node">
<title>5</title>
<text text-anchor="start" x="1010.21" y="-488.09" font-family="Times,serif" font-size="14.00">OSI: </text>
<text text-anchor="start" x="1039.46" y="-488.09" font-family="Times,serif" font-weight="bold" font-size="14.00" fill="#8b0000">Rejected</text>
</g>
<!-- 536 -->
<g id="node2" class="node">
<title>536</title>
<ellipse fill="none" stroke="#dac767" cx="1405.24" cy="-723.69" rx="158.22" ry="28.99"/>
<text text-anchor="middle" x="1405.24" y="-726.89" font-family="Times,serif" font-size="14.00" fill="gray">SPDXLicense</text>
<text text-anchor="middle" x="1405.24" y="-710.39" font-family="Times,serif" font-size="14.00" fill="gray">64d5da1274d313f24b3a52a8ee0baeda</text>
</g>
<!-- 5&#45;&gt;536 -->
<g id="edge1" class="edge">
<title>5&#45;&gt;536</title>
<path fill="none" stroke="#dac767" d="M1090.53,-510.09C1167.56,-544.86 1195.62,-564.29 1358.87,-688.4"/>
<polygon fill="#dac767" stroke="#dac767" points="1356.48,-690.98 1366.56,-694.25 1360.72,-685.41 1356.48,-690.98"/>
</g>
<!-- 537 -->
<g id="node3" class="node">
<title>537</title>
<polygon fill="none" stroke="black" points="2134.53,-1425.7 2134.53,-1440.61 2031.22,-1451.15 1885.13,-1451.15 1781.83,-1440.61 1781.83,-1425.7 1885.13,-1415.15 2031.22,-1415.15 2134.53,-1425.7"/>
<polygon fill="none" stroke="black" points="2138.53,-1422.08 2138.53,-1444.22 2031.43,-1455.15 1884.93,-1455.15 1777.83,-1444.22 1777.83,-1422.08 1884.93,-1411.15 2031.43,-1411.15 2138.53,-1422.08"/>
<polygon fill="none" stroke="black" points="2142.53,-1418.47 2142.53,-1447.83 2031.63,-1459.15 1884.72,-1459.15 1773.83,-1447.83 1773.83,-1418.47 1884.72,-1407.15 2031.63,-1407.15 2142.53,-1418.47"/>
<text text-anchor="middle" x="1958.18" y="-1428.1" font-family="Times,serif" font-size="14.00">spdx:BSD&#45;3&#45;Clause&#45;No&#45;Nuclear&#45;License</text>
</g>
<!-- 536&#45;&gt;537 -->
<g id="edge2" class="edge">
<title>536&#45;&gt;537</title>
<path fill="none" stroke="#dac767" d="M1426.26,-752.87C1560.55,-939.24 1580.57,-964.58 1930.05,-1398.25"/>
<polygon fill="#dac767" stroke="#dac767" points="1927.1,-1400.17 1936.1,-1405.76 1932.55,-1395.77 1927.1,-1400.17"/>
</g>
<!-- 9504 -->
<g id="node15" class="node">
<title>9504</title>
<polygon fill="none" stroke="#e09d4b" points="2313.08,-2225.97 2313.08,-2240.88 2204.59,-2251.43 2051.15,-2251.43 1942.66,-2240.88 1942.66,-2225.97 2051.15,-2215.43 2204.59,-2215.43 2313.08,-2225.97"/>
<polygon fill="none" stroke="#e09d4b" points="2317.08,-2222.34 2317.08,-2244.51 2204.78,-2255.43 2050.96,-2255.43 1938.66,-2244.51 1938.66,-2222.34 2050.96,-2211.43 2204.78,-2211.43 2317.08,-2222.34"/>
<text text-anchor="middle" x="2127.87" y="-2228.38" font-family="Times,serif" font-size="14.00">Fedora:BSD&#45;3&#45;Clause&#45;No&#45;Nuclear&#45;License</text>
</g>
<!-- 537&#45;&gt;9504 -->
<g id="edge3" class="edge">
<title>537&#45;&gt;9504</title>
<path fill="none" stroke="#e09d4b" stroke-width="2" d="M1952.8,-1459.53C1887.56,-1780.29 1891.61,-1798.86 2110.43,-2201.36"/>
<polygon fill="#e09d4b" stroke="#e09d4b" stroke-width="2" points="2114.47,-2208.8 2105.74,-2202.16 2112.81,-2206.78 2109.25,-2200.25 2109.69,-2200.01 2110.13,-2199.77 2113.69,-2206.31 2113.65,-2197.86 2114.47,-2208.8"/>
</g>
<!-- 26339 -->
<g id="node18" class="node">
<title>26339</title>
<polygon fill="none" stroke="black" points="1651.99,-1159.05 1651.99,-1173.96 1576.92,-1184.51 1470.75,-1184.51 1395.68,-1173.96 1395.68,-1159.05 1470.75,-1148.51 1576.92,-1148.51 1651.99,-1159.05"/>
<polygon fill="none" stroke="black" points="1655.99,-1155.57 1655.99,-1177.44 1577.2,-1188.51 1470.47,-1188.51 1391.68,-1177.44 1391.68,-1155.57 1470.47,-1144.51 1577.2,-1144.51 1655.99,-1155.57"/>
<text text-anchor="middle" x="1523.83" y="-1161.46" font-family="Times,serif" font-size="14.00">scancode:sun&#45;bsd&#45;no&#45;nuclear</text>
</g>
<!-- 537&#45;&gt;26339 -->
<g id="edge4" class="edge">
<title>537&#45;&gt;26339</title>
<path fill="none" stroke="#deb256" stroke-width="2" d="M1922.86,-1406.78C1846.95,-1356.1 1667.96,-1246 1577.75,-1194.26"/>
<polygon fill="#deb256" stroke="#deb256" stroke-width="2" points="1570.37,-1190.05 1581.29,-1191.1 1572.85,-1190.89 1579.31,-1194.57 1579.06,-1195.01 1578.81,-1195.44 1572.35,-1191.76 1576.83,-1198.92 1570.37,-1190.05"/>
</g>
<!-- 44477 -->
<g id="node39" class="node">
<title>44477</title>
<polygon fill="none" stroke="#379469" points="1430.41,-1624.11 1430.41,-1639.02 1257.66,-1649.56 1013.36,-1649.56 840.61,-1639.02 840.61,-1624.11 1013.36,-1613.56 1257.66,-1613.56 1430.41,-1624.11"/>
<polygon fill="none" stroke="#379469" points="1434.41,-1620.34 1434.41,-1642.78 1257.78,-1653.56 1013.23,-1653.56 836.61,-1642.78 836.61,-1620.34 1013.23,-1609.56 1257.78,-1609.56 1434.41,-1620.34"/>
<text text-anchor="middle" x="1135.51" y="-1626.51" font-family="Times,serif" font-size="14.00">metaeffekt:BSD 3&#45;Clause License (no nuclear use; disclaimer variant)</text>
</g>
<!-- 537&#45;&gt;44477 -->
<g id="edge5" class="edge">
<title>537&#45;&gt;44477</title>
<path fill="none" stroke="#379469" stroke-width="2" d="M1773.46,-1442.61C1415.3,-1462.34 1366.89,-1479.69 1178.74,-1603.06"/>
<polygon fill="#379469" stroke="#379469" stroke-width="2" points="1171.42,-1607.87 1177.31,-1598.62 1173.29,-1606.04 1179.51,-1601.96 1179.78,-1602.38 1180.06,-1602.79 1173.84,-1606.88 1182.25,-1606.14 1171.42,-1607.87"/>
</g>
<!-- 538 -->
<g id="node4" class="node">
<title>538</title>
<polygon fill="none" stroke="black" points="2543.68,-1779.34 2543.68,-1794.25 2453.04,-1804.79 2324.84,-1804.79 2234.2,-1794.25 2234.2,-1779.34 2324.84,-1768.79 2453.04,-1768.79 2543.68,-1779.34"/>
<polygon fill="none" stroke="black" points="2547.68,-1775.77 2547.68,-1797.81 2453.27,-1808.79 2324.61,-1808.79 2230.2,-1797.81 2230.2,-1775.77 2324.61,-1764.79 2453.27,-1764.79 2547.68,-1775.77"/>
<text text-anchor="middle" x="2388.94" y="-1781.74" font-family="Times,serif" font-size="14.00">BSD&#45;3&#45;Clause&#45;No&#45;Nuclear&#45;License</text>
</g>
<!-- 538&#45;&gt;537 -->
<g id="edge6" class="edge">
<title>538&#45;&gt;537</title>
<path fill="none" stroke="black" stroke-width="2" d="M2365.02,-1764.62C2140.29,-1556.37 2106,-1525.54 2010.39,-1465.45"/>
<polygon fill="black" stroke="black" stroke-width="2" points="2003,-1460.83 2013.87,-1462.31 2005.44,-1461.76 2011.74,-1465.71 2011.48,-1466.13 2011.21,-1466.55 2004.91,-1462.61 2009.09,-1469.94 2003,-1460.83"/>
</g>
<!-- 538&#45;&gt;9504 -->
<g id="edge7" class="edge">
<title>538&#45;&gt;9504</title>
<path fill="none" stroke="#e09d4b" stroke-width="2" d="M2369.12,-1809.05C2173.67,-2028.7 2160.43,-2047.46 2133.58,-2200.36"/>
<polygon fill="#e09d4b" stroke="#e09d4b" stroke-width="2" points="2132.12,-2208.72 2129.41,-2198.09 2132.07,-2206.11 2133.35,-2198.78 2133.84,-2198.87 2134.33,-2198.95 2133.06,-2206.28 2138.27,-2199.64 2132.12,-2208.72"/>
</g>
<!-- 34681 -->
<g id="node24" class="node">
<title>34681</title>
<polygon fill="none" stroke="#e18745" points="2640.83,-1251.16 2640.83,-1266.08 2525.85,-1276.62 2363.23,-1276.62 2248.25,-1266.08 2248.25,-1251.16 2363.23,-1240.62 2525.85,-1240.62 2640.83,-1251.16"/>
<polygon fill="none" stroke="#e18745" points="2644.83,-1247.51 2644.83,-1269.73 2526.03,-1280.62 2363.05,-1280.62 2244.25,-1269.73 2244.25,-1247.51 2363.05,-1236.62 2526.03,-1236.62 2644.83,-1247.51"/>
<text text-anchor="middle" x="2444.54" y="-1253.57" font-family="Times,serif" font-size="14.00">fossology:BSD&#45;3&#45;Clause&#45;No&#45;Nuclear&#45;License</text>
</g>
<!-- 538&#45;&gt;34681 -->
<g id="edge8" class="edge">
<title>538&#45;&gt;34681</title>
<path fill="none" stroke="#e18745" stroke-width="2" d="M2390.23,-1764.48C2408.78,-1443.31 2410.79,-1415.96 2437.38,-1291.81"/>
<polygon fill="#e18745" stroke="#e18745" stroke-width="2" points="2439.17,-1283.48 2441.47,-1294.2 2439.12,-1286.09 2437.56,-1293.36 2437.07,-1293.26 2436.58,-1293.15 2438.14,-1285.88 2432.67,-1292.31 2439.17,-1283.48"/>
</g>
<!-- 41175 -->
<g id="node36" class="node">
<title>41175</title>
<polygon fill="none" stroke="#379469" points="2285.61,-1902.64 2285.61,-1917.55 2181.98,-1928.09 2035.43,-1928.09 1931.8,-1917.55 1931.8,-1902.64 2035.43,-1892.09 2181.98,-1892.09 2285.61,-1902.64"/>
<polygon fill="none" stroke="#379469" points="2289.61,-1899.02 2289.61,-1921.16 2182.18,-1932.09 2035.23,-1932.09 1927.8,-1921.16 1927.8,-1899.02 2035.23,-1888.09 2182.18,-1888.09 2289.61,-1899.02"/>
<text text-anchor="middle" x="2108.71" y="-1905.04" font-family="Times,serif" font-size="14.00">cavil:BSD&#45;3&#45;Clause&#45;No&#45;Nuclear&#45;License</text>
</g>
<!-- 538&#45;&gt;41175 -->
<g id="edge9" class="edge">
<title>538&#45;&gt;41175</title>
<path fill="none" stroke="#379469" stroke-width="2" d="M2288.03,-1805.03C2206.2,-1821.48 2182.84,-1834.71 2137.81,-1880.01"/>
<polygon fill="#379469" stroke="#379469" stroke-width="2" points="2131.78,-1886.14 2135.58,-1875.85 2133.22,-1883.96 2138.43,-1878.66 2138.79,-1879.01 2139.15,-1879.36 2133.93,-1884.66 2142,-1882.16 2131.78,-1886.14"/>
</g>
<!-- 539 -->
<g id="node5" class="node">
<title>539</title>
<polygon fill="none" stroke="black" points="1906.52,-1364.58 1906.52,-1379.5 1817.18,-1390.04 1690.82,-1390.04 1601.47,-1379.5 1601.47,-1364.58 1690.82,-1354.04 1817.18,-1354.04 1906.52,-1364.58"/>
<polygon fill="none" stroke="black" points="1910.52,-1361.03 1910.52,-1383.05 1817.41,-1394.04 1690.58,-1394.04 1597.47,-1383.05 1597.47,-1361.03 1690.58,-1350.04 1817.41,-1350.04 1910.52,-1361.03"/>
<text text-anchor="middle" x="1754" y="-1366.99" font-family="Times,serif" font-size="14.00">BSD 3&#45;Clause No Nuclear License</text>
</g>
<!-- 539&#45;&gt;537 -->
<g id="edge10" class="edge">
<title>539&#45;&gt;537</title>
<path fill="none" stroke="#dac767" stroke-width="2" d="M1857.75,-1389.61C1866.76,-1393.11 1876.95,-1397.35 1888.89,-1402.49"/>
<polygon fill="#dac767" stroke="#dac767" stroke-width="2" points="1896.62,-1405.84 1885.65,-1405.99 1894.07,-1405.28 1887.24,-1402.32 1887.44,-1401.86 1887.64,-1401.4 1894.46,-1404.36 1889.23,-1397.73 1896.62,-1405.84"/>
</g>
<!-- 539&#45;&gt;34681 -->
<g id="edge11" class="edge">
<title>539&#45;&gt;34681</title>
<path fill="none" stroke="#e18745" stroke-width="2" d="M1788.78,-1349.62C2002.95,-1211.95 2042.65,-1196.99 2314.15,-1238.02"/>
<polygon fill="#e18745" stroke="#e18745" stroke-width="2" points="2322.75,-1239.33 2312.18,-1242.27 2320.14,-1239.44 2312.79,-1238.32 2312.86,-1237.82 2312.94,-1237.33 2320.29,-1238.45 2313.54,-1233.37 2322.75,-1239.33"/>
</g>
<!-- 539&#45;&gt;44477 -->
<g id="edge12" class="edge">
<title>539&#45;&gt;44477</title>
<path fill="none" stroke="#379469" stroke-dasharray="5,2" d="M1651.6,-1389.94C1341.61,-1444.79 1309.26,-1460.99 1165.87,-1601.64"/>
<polygon fill="#379469" stroke="#379469" points="1158.94,-1608.45 1162.92,-1598.23 1161.63,-1605.8 1166.07,-1601.44 1166.07,-1601.44 1166.07,-1601.44 1161.63,-1605.8 1169.22,-1604.65 1158.94,-1608.45"/>
</g>
<!-- 66442 -->
<g id="node44" class="node">
<title>66442</title>
<polygon fill="none" stroke="#00876c" points="1543.93,-1336.2 1543.93,-1351.11 1441.93,-1361.65 1297.67,-1361.65 1195.66,-1351.11 1195.66,-1336.2 1297.67,-1325.65 1441.93,-1325.65 1543.93,-1336.2"/>
<polygon fill="none" stroke="#00876c" points="1547.93,-1332.59 1547.93,-1354.72 1442.13,-1365.65 1297.46,-1365.65 1191.66,-1354.72 1191.66,-1332.59 1297.46,-1321.65 1442.13,-1321.65 1547.93,-1332.59"/>
<text text-anchor="middle" x="1369.8" y="-1338.6" font-family="Times,serif" font-size="14.00">spdx:BSD 3&#45;Clause No Nuclear License</text>
</g>
<!-- 539&#45;&gt;66442 -->
<g id="edge13" class="edge">
<title>539&#45;&gt;66442</title>
<path fill="none" stroke="#00876c" stroke-width="2" d="M1665.75,-1352.51C1576.79,-1333.13 1530.38,-1324.78 1490.41,-1324.8"/>
<polygon fill="#00876c" stroke="#00876c" stroke-width="2" points="1481.71,-1324.97 1491.62,-1320.27 1484.27,-1324.42 1491.7,-1324.27 1491.71,-1324.77 1491.72,-1325.27 1484.29,-1325.42 1491.8,-1329.27 1481.71,-1324.97"/>
</g>
<!-- 540 -->
<g id="node6" class="node">
<title>540</title>
<text text-anchor="middle" x="844.17" y="-346.12" font-family="Times,serif" font-size="14.00">SPDXLicense:</text>
<text text-anchor="middle" x="844.17" y="-329.62" font-family="Times,serif" font-size="14.00">This license has an older Sun copyright notice and is the same license as</text>
<text text-anchor="middle" x="844.17" y="-313.12" font-family="Times,serif" font-size="14.00">BSD&#45;3&#45;Clause&#45;No&#45;Nuclear&#45;Warranty, except it specifies that that software is &quot;not</text>
<text text-anchor="middle" x="844.17" y="-296.62" font-family="Times,serif" font-size="14.00">licensed&quot; for use in a nuclear facility, as opposed to a disclaimer for such</text>
<text text-anchor="middle" x="844.17" y="-280.12" font-family="Times,serif" font-size="14.00">use.</text>
</g>
<!-- 540&#45;&gt;536 -->
<g id="edge14" class="edge">
<title>540&#45;&gt;536</title>
<path fill="none" stroke="#dac767" d="M926.7,-363.38C1036.14,-425.02 1089.71,-467.23 1361.14,-687.84"/>
<polygon fill="#dac767" stroke="#dac767" points="1358.92,-690.54 1368.88,-694.13 1363.33,-685.11 1358.92,-690.54"/>
</g>
<!-- 541 -->
<g id="node7" class="node">
<title>541</title>
<text text-anchor="middle" x="1230.52" y="-251.31" font-family="Times,serif" font-size="14.00">$TEXT</text>
</g>
<!-- 541&#45;&gt;536 -->
<g id="edge15" class="edge">
<title>541&#45;&gt;536</title>
<path fill="none" stroke="#dac767" d="M1233.58,-274.23C1256.08,-405.22 1262.3,-422.18 1386.46,-684.09"/>
<polygon fill="#dac767" stroke="#dac767" points="1383.22,-685.41 1390.66,-692.95 1389.54,-682.42 1383.22,-685.41"/>
</g>
<!-- 542 -->
<g id="node8" class="node">
<title>542</title>
<text text-anchor="middle" x="1133.91" y="-12.87" font-family="Times,serif" font-size="14.00">$TEXT</text>
</g>
<!-- 542&#45;&gt;541 -->
<g id="edge16" class="edge">
<title>542&#45;&gt;541</title>
<path fill="none" stroke="#dac767" d="M1138.33,-35.83C1152.35,-92 1158.5,-106.58 1217.02,-228.31"/>
<polygon fill="#dac767" stroke="#dac767" points="1213.75,-229.58 1221.24,-237.07 1220.06,-226.54 1213.75,-229.58"/>
</g>
<!-- 543 -->
<g id="node9" class="node">
<title>543</title>
<text text-anchor="middle" x="1349.02" y="-658.77" font-family="Times,serif" font-size="14.00">http://download.oracle.com/otn&#45;pub/java/licenses/bsd.txt</text>
</g>
<!-- 543&#45;&gt;536 -->
<g id="edge17" class="edge">
<title>543&#45;&gt;536</title>
<path fill="none" stroke="#dac767" d="M1366.63,-681.69C1368.07,-683.22 1369.61,-684.84 1371.31,-686.67"/>
<polygon fill="#dac767" stroke="#dac767" points="1368.46,-688.75 1377.82,-693.71 1373.6,-683.99 1368.46,-688.75"/>
</g>
<!-- 551 -->
<g id="node10" class="node">
<title>551</title>
<text text-anchor="middle" x="2054.74" y="-204.18" font-family="Times,serif" font-size="14.00">https://jogamp.org/git/?p=gluegen.git;a=blob_plain;f=LICENSE.txt</text>
</g>
<!-- 26338 -->
<g id="node17" class="node">
<title>26338</title>
<ellipse fill="none" stroke="#deb256" cx="1942.56" cy="-844.45" rx="157.68" ry="28.99"/>
<text text-anchor="middle" x="1942.56" y="-847.65" font-family="Times,serif" font-size="14.00" fill="gray">ScancodeData</text>
<text text-anchor="middle" x="1942.56" y="-831.15" font-family="Times,serif" font-size="14.00" fill="gray">e41560506e146623f9ff995944056ba6</text>
</g>
<!-- 551&#45;&gt;26338 -->
<g id="edge18" class="edge">
<title>551&#45;&gt;26338</title>
<path fill="none" stroke="#deb256" d="M2046.02,-227.18C1962.97,-398.35 1959.74,-416.63 1944.18,-803.85"/>
<polygon fill="#deb256" stroke="#deb256" points="1940.7,-803.47 1943.79,-813.61 1947.69,-803.75 1940.7,-803.47"/>
</g>
<!-- 6640 -->
<g id="node11" class="node">
<title>6640</title>
<text text-anchor="middle" x="2252.92" y="-3403.98" font-family="Times,serif" font-size="14.00">[&quot;not&#45;allowed&quot;]</text>
</g>
<!-- 9503 -->
<g id="node14" class="node">
<title>9503</title>
<ellipse fill="none" stroke="#e09d4b" cx="2206.24" cy="-2941.57" rx="150.79" ry="28.99"/>
<text text-anchor="middle" x="2206.24" y="-2944.77" font-family="Times,serif" font-size="14.00" fill="gray">FedoraEntry</text>
<text text-anchor="middle" x="2206.24" y="-2928.27" font-family="Times,serif" font-size="14.00" fill="gray">fa80afb50c032fff458fa442cac0bd0d</text>
</g>
<!-- 6640&#45;&gt;9503 -->
<g id="edge19" class="edge">
<title>6640&#45;&gt;9503</title>
<path fill="none" stroke="#e09d4b" d="M2247.95,-3391.2C2215.08,-3272.88 2213.31,-3255.01 2207.16,-2982.3"/>
<polygon fill="#e09d4b" stroke="#e09d4b" points="2210.66,-2982.25 2206.93,-2972.33 2203.66,-2982.4 2210.66,-2982.25"/>
</g>
<!-- 6641 -->
<g id="node12" class="node">
<title>6641</title>
<text text-anchor="start" x="2240.07" y="-3878.39" font-family="Times,serif" font-size="14.00">Fedora: </text>
<text text-anchor="start" x="2285.07" y="-3878.39" font-family="Times,serif" font-weight="bold" font-size="14.00" fill="#8b0000">not&#45;allowed</text>
<text text-anchor="start" x="2106.57" y="-3864.39" font-family="Times,serif" font-size="14.00">Any license that does not meet the criteria above for allowed licenses</text>
<text text-anchor="start" x="2138.07" y="-3850.39" font-family="Times,serif" font-size="14.00">(including allowed for a specific category) is not&#45;allowed.</text>
</g>
<!-- 6641&#45;&gt;6640 -->
<g id="edge20" class="edge">
<title>6641&#45;&gt;6640</title>
<path fill="none" stroke="#e09d4b" d="M2290.81,-3844.92C2266.27,-3733.93 2264.76,-3712.35 2254.05,-3437.96"/>
<polygon fill="#e09d4b" stroke="#e09d4b" points="2257.56,-3438.2 2253.67,-3428.34 2250.57,-3438.47 2257.56,-3438.2"/>
</g>
<!-- 6743 -->
<g id="node13" class="node">
<title>6743</title>
<polygon fill="none" stroke="black" points="840.45,-2115.57 840.45,-2130.48 822.17,-2141.02 796.32,-2141.02 778.04,-2130.48 778.04,-2115.57 796.32,-2105.02 822.17,-2105.02 840.45,-2115.57"/>
<text text-anchor="middle" x="809.24" y="-2117.97" font-family="Times,serif" font-size="14.00">BSD</text>
</g>
<!-- 6743&#45;&gt;44477 -->
<g id="edge21" class="edge">
<title>6743&#45;&gt;44477</title>
<path fill="none" stroke="#379469" stroke-dasharray="5,2" d="M812.55,-2104.71C852.87,-1881.68 860.87,-1866.63 1101.19,-1660.91"/>
<polygon fill="#379469" stroke="#379469" points="1108.54,-1654.62 1103.87,-1664.54 1105.67,-1657.08 1100.94,-1661.12 1100.94,-1661.12 1100.94,-1661.12 1105.67,-1657.08 1098.02,-1657.7 1108.54,-1654.62"/>
</g>
<!-- 9503&#45;&gt;9504 -->
<g id="edge22" class="edge">
<title>9503&#45;&gt;9504</title>
<path fill="none" stroke="#e09d4b" d="M2193.69,-2912.18C2112.81,-2722.19 2111.53,-2697.28 2126.68,-2267"/>
<polygon fill="#e09d4b" stroke="#e09d4b" points="2130.17,-2267.41 2127.03,-2257.29 2123.17,-2267.16 2130.17,-2267.41"/>
</g>
<!-- 12469 -->
<g id="node16" class="node">
<title>12469</title>
<text text-anchor="middle" x="2216.38" y="-431.97" font-family="Times,serif" font-size="14.00">LicenseType Free Restricted</text>
</g>
<!-- 12469&#45;&gt;26338 -->
<g id="edge23" class="edge">
<title>12469&#45;&gt;26338</title>
<path fill="none" stroke="#deb256" d="M2189.75,-454.87C2059.57,-542.58 2047.73,-561.55 1957.29,-804.76"/>
<polygon fill="#deb256" stroke="#deb256" points="1954.07,-803.37 1953.87,-813.97 1960.63,-805.81 1954.07,-803.37"/>
</g>
<!-- 26338&#45;&gt;26339 -->
<g id="edge24" class="edge">
<title>26338&#45;&gt;26339</title>
<path fill="none" stroke="#deb256" d="M1855.93,-869.12C1677.39,-921.67 1654.34,-947.55 1543.04,-1134.22"/>
<polygon fill="#deb256" stroke="#deb256" points="1540.03,-1132.42 1537.92,-1142.81 1546.05,-1136 1540.03,-1132.42"/>
</g>
<!-- 26339&#45;&gt;537 -->
<g id="edge25" class="edge">
<title>26339&#45;&gt;537</title>
<path fill="none" stroke="#00876c" stroke-width="2" d="M1553.13,-1188.84C1623.34,-1236.23 1802.2,-1346.47 1897.04,-1401.24"/>
<polygon fill="#00876c" stroke="#00876c" stroke-width="2" points="1904.39,-1405.47 1893.48,-1404.38 1901.92,-1404.62 1895.47,-1400.92 1895.72,-1400.48 1895.97,-1400.05 1902.42,-1403.76 1897.96,-1396.58 1904.39,-1405.47"/>
</g>
<!-- 26339&#45;&gt;44477 -->
<g id="edge26" class="edge">
<title>26339&#45;&gt;44477</title>
<path fill="none" stroke="#379469" stroke-dasharray="5,2" d="M1486.03,-1188.86C1231.85,-1339.47 1218.02,-1356.66 1145.33,-1598.74"/>
<polygon fill="#379469" stroke="#379469" points="1142.51,-1608.15 1141.07,-1597.28 1143.6,-1604.52 1145.38,-1598.57 1145.38,-1598.57 1145.38,-1598.57 1143.6,-1604.52 1149.69,-1599.86 1142.51,-1608.15"/>
</g>
<!-- 26340 -->
<g id="node19" class="node">
<title>26340</title>
<polygon fill="none" stroke="black" points="1182.83,-1057.37 1182.83,-1072.28 1130.8,-1082.83 1057.22,-1082.83 1005.19,-1072.28 1005.19,-1057.37 1057.22,-1046.83 1130.8,-1046.83 1182.83,-1057.37"/>
<polygon fill="none" stroke="black" points="1186.83,-1054.1 1186.83,-1075.55 1131.2,-1086.83 1056.82,-1086.83 1001.19,-1075.55 1001.19,-1054.1 1056.82,-1042.83 1131.2,-1042.83 1186.83,-1054.1"/>
<text text-anchor="middle" x="1094.01" y="-1059.78" font-family="Times,serif" font-size="14.00">sun&#45;bsd&#45;no&#45;nuclear</text>
</g>
<!-- 26340&#45;&gt;26339 -->
<g id="edge27" class="edge">
<title>26340&#45;&gt;26339</title>
<path fill="none" stroke="black" stroke-width="2" d="M1187.3,-1065.98C1249.78,-1070.29 1300.82,-1086.46 1453.69,-1141.27"/>
<polygon fill="black" stroke="black" stroke-width="2" points="1461.62,-1144.12 1450.69,-1144.97 1459.04,-1143.72 1452.04,-1141.21 1452.21,-1140.74 1452.37,-1140.27 1459.37,-1142.78 1453.72,-1136.5 1461.62,-1144.12"/>
</g>
<!-- 26341 -->
<g id="node20" class="node">
<title>26341</title>
<polygon fill="none" stroke="black" points="1838.01,-1668.58 1838.01,-1683.49 1733.41,-1694.03 1585.48,-1694.03 1480.88,-1683.49 1480.88,-1668.58 1585.48,-1658.03 1733.41,-1658.03 1838.01,-1668.58"/>
<polygon fill="none" stroke="black" points="1842.01,-1664.96 1842.01,-1687.11 1733.61,-1698.03 1585.28,-1698.03 1476.88,-1687.11 1476.88,-1664.96 1585.28,-1654.03 1733.61,-1654.03 1842.01,-1664.96"/>
<text text-anchor="middle" x="1659.44" y="-1670.98" font-family="Times,serif" font-size="14.00">Sun BSD&#45;Style with Nuclear Restrictions</text>
</g>
<!-- 26341&#45;&gt;26339 -->
<g id="edge28" class="edge">
<title>26341&#45;&gt;26339</title>
<path fill="none" stroke="#deb256" stroke-width="2" d="M1648.19,-1653.86C1510.84,-1383.17 1502.96,-1362.56 1520.21,-1199.9"/>
<polygon fill="#deb256" stroke="#deb256" stroke-width="2" points="1521.12,-1191.4 1524.53,-1201.83 1521.34,-1194 1520.55,-1201.4 1520.05,-1201.35 1519.55,-1201.29 1520.35,-1193.9 1515.58,-1200.87 1521.12,-1191.4"/>
</g>
<!-- 26341&#45;&gt;44477 -->
<g id="edge29" class="edge">
<title>26341&#45;&gt;44477</title>
<path fill="none" stroke="#379469" stroke-dasharray="5,2" d="M1534.75,-1658.69C1496.48,-1653.42 1463.82,-1649 1435.4,-1645.32"/>
<polygon fill="#379469" stroke="#379469" points="1425.51,-1644.05 1436.01,-1640.86 1429.26,-1644.53 1435.43,-1645.32 1435.43,-1645.32 1435.43,-1645.32 1429.26,-1644.53 1434.86,-1649.79 1425.51,-1644.05"/>
</g>
<!-- 66441 -->
<g id="node43" class="node">
<title>66441</title>
<polygon fill="none" stroke="#00876c" points="1631.46,-1725.13 1631.46,-1740.04 1503.82,-1750.58 1323.31,-1750.58 1195.67,-1740.04 1195.67,-1725.13 1323.31,-1714.58 1503.82,-1714.58 1631.46,-1725.13"/>
<polygon fill="none" stroke="#00876c" points="1635.46,-1721.44 1635.46,-1743.72 1503.99,-1754.58 1323.15,-1754.58 1191.67,-1743.72 1191.67,-1721.44 1323.15,-1710.58 1503.99,-1710.58 1635.46,-1721.44"/>
<text text-anchor="middle" x="1413.57" y="-1727.53" font-family="Times,serif" font-size="14.00">scancode:Sun BSD&#45;Style with Nuclear Restrictions</text>
</g>
<!-- 26341&#45;&gt;66441 -->
<g id="edge30" class="edge">
<title>26341&#45;&gt;66441</title>
<path fill="none" stroke="#00876c" stroke-width="2" d="M1515.37,-1691.4C1494.97,-1694.99 1480.25,-1699.31 1465.27,-1705.72"/>
<polygon fill="#00876c" stroke="#00876c" stroke-width="2" points="1457.54,-1709.23 1464.78,-1700.99 1459.66,-1707.71 1466.43,-1704.63 1466.64,-1705.09 1466.85,-1705.55 1460.08,-1708.62 1468.5,-1709.19 1457.54,-1709.23"/>
</g>
<!-- 26342 -->
<g id="node21" class="node">
<title>26342</title>
<text text-anchor="middle" x="1945.36" y="-899.44" font-family="Times,serif" font-size="14.00">http://download.oracle.com/otn&#45;pub/java/licenses/bsd.txt?AuthParam=1467140197_43d516ce1776bd08a58235a7785be1cc</text>
</g>
<!-- 26342&#45;&gt;26338 -->
<g id="edge31" class="edge">
<title>26342&#45;&gt;26338</title>
<path fill="none" stroke="#deb256" d="M1942.58,-886.71C1942.48,-886.06 1942.39,-885.43 1942.3,-884.81"/>
<polygon fill="#deb256" stroke="#deb256" points="1945.82,-884.75 1941.01,-875.31 1938.88,-885.69 1945.82,-884.75"/>
</g>
<!-- 34680 -->
<g id="node23" class="node">
<title>34680</title>
<ellipse fill="none" stroke="#e18745" cx="3008.97" cy="-905.52" rx="155.03" ry="28.99"/>
<text text-anchor="middle" x="3008.97" y="-908.72" font-family="Times,serif" font-size="14.00" fill="gray">Fossology</text>
<text text-anchor="middle" x="3008.97" y="-892.22" font-family="Times,serif" font-size="14.00" fill="gray">694fe93d6e0913a13c57df50e803f67f</text>
</g>
<!-- 26342&#45;&gt;34680 -->
<g id="edge32" class="edge">
<title>26342&#45;&gt;34680</title>
<path fill="none" stroke="#e18745" d="M1990.99,-886.54C2458.81,-702.74 2496.61,-698.51 2932.83,-874.66"/>
<polygon fill="#e18745" stroke="#e18745" points="2931.22,-877.78 2941.81,-878.28 2933.85,-871.29 2931.22,-877.78"/>
</g>
<!-- 26343 -->
<g id="node22" class="node">
<title>26343</title>
<text text-anchor="middle" x="1936.98" y="-445.83" font-family="Times,serif" font-size="14.00">$TEXT</text>
</g>
<!-- 26343&#45;&gt;26338 -->
<g id="edge33" class="edge">
<title>26343&#45;&gt;26338</title>
<path fill="none" stroke="#deb256" d="M1933.28,-468.77C1912.67,-569.05 1912.86,-586.23 1937.89,-803.94"/>
<polygon fill="#deb256" stroke="#deb256" points="1934.38,-804.1 1939,-813.64 1941.34,-803.3 1934.38,-804.1"/>
</g>
<!-- 34680&#45;&gt;34681 -->
<g id="edge34" class="edge">
<title>34680&#45;&gt;34681</title>
<path fill="none" stroke="#e18745" d="M2907.2,-927.73C2765.62,-962.29 2718.87,-1002.01 2476.82,-1228.42"/>
<polygon fill="#e18745" stroke="#e18745" points="2474.51,-1225.78 2469.6,-1235.17 2479.29,-1230.89 2474.51,-1225.78"/>
</g>
<!-- 34682 -->
<g id="node25" class="node">
<title>34682</title>
<text text-anchor="middle" x="3595.78" y="-629.65" font-family="Times,serif" font-size="14.00">Fossology:</text>
<text text-anchor="middle" x="3595.78" y="-613.15" font-family="Times,serif" font-size="14.00">This license has an older Sun copyright notice and is the same license as</text>
<text text-anchor="middle" x="3595.78" y="-596.65" font-family="Times,serif" font-size="14.00">BSD&#45;3&#45;Clause&#45;No&#45;Nuclear&#45;Warranty, except it specifies that that software is &quot;not</text>
<text text-anchor="middle" x="3595.78" y="-580.15" font-family="Times,serif" font-size="14.00">licensed&quot; for use in a nuclear facility, as opposed to a disclaimer for such</text>
<text text-anchor="middle" x="3595.78" y="-563.65" font-family="Times,serif" font-size="14.00">use.</text>
</g>
<!-- 34682&#45;&gt;34680 -->
<g id="edge35" class="edge">
<title>34682&#45;&gt;34680</title>
<path fill="none" stroke="#e18745" d="M3418.84,-646.81C3337.89,-677.59 3258.59,-731.14 3058.73,-870.74"/>
<polygon fill="#e18745" stroke="#e18745" points="3056.87,-867.77 3050.67,-876.37 3060.87,-873.51 3056.87,-867.77"/>
</g>
<!-- 34683 -->
<g id="node26" class="node">
<title>34683</title>
<text text-anchor="middle" x="3382.91" y="-814.27" font-family="Times,serif" font-size="14.00">$TEXT</text>
</g>
<!-- 34683&#45;&gt;34680 -->
<g id="edge36" class="edge">
<title>34683&#45;&gt;34680</title>
<path fill="none" stroke="#e18745" d="M3354.33,-815.39C3252.48,-801.78 3228.4,-805.58 3078.23,-873.78"/>
<polygon fill="#e18745" stroke="#e18745" points="3077.18,-870.41 3069.53,-877.74 3080.08,-876.78 3077.18,-870.41"/>
</g>
<!-- 35433 -->
<g id="node27" class="node">
<title>35433</title>
<text text-anchor="middle" x="3022.79" y="-342.69" font-family="Times,serif" font-size="14.00">LicenseTag (ScopedLicenseTag &quot;OrtLicenseCategorization&quot; &quot;include&#45;in&#45;notice&#45;file&quot; NoLicenseTagText)</text>
</g>
<!-- 35500 -->
<g id="node29" class="node">
<title>35500</title>
<ellipse fill="none" stroke="#d43d51" cx="2564.44" cy="-925.21" rx="160.34" ry="28.99"/>
<text text-anchor="middle" x="2564.44" y="-928.41" font-family="Times,serif" font-size="14.00" fill="gray">OrtLicenseCategorization</text>
<text text-anchor="middle" x="2564.44" y="-911.91" font-family="Times,serif" font-size="14.00" fill="gray">84030538c43005819322e1765b8da8fe</text>
</g>
<!-- 35433&#45;&gt;35500 -->
<g id="edge37" class="edge">
<title>35433&#45;&gt;35500</title>
<path fill="none" stroke="#d43d51" d="M2999.45,-365.64C2836.75,-490.62 2821.28,-511.1 2588.64,-886.19"/>
<polygon fill="#d43d51" stroke="#d43d51" points="2585.67,-884.33 2583.37,-894.68 2591.62,-888.02 2585.67,-884.33"/>
</g>
<!-- 35464 -->
<g id="node28" class="node">
<title>35464</title>
<text text-anchor="middle" x="2571.26" y="-860.19" font-family="Times,serif" font-size="14.00">LicenseTag (ScopedLicenseTag &quot;OrtLicenseCategorization&quot; &quot;free&#45;restricted&quot; NoLicenseTagText)</text>
</g>
<!-- 35464&#45;&gt;35500 -->
<g id="edge38" class="edge">
<title>35464&#45;&gt;35500</title>
<path fill="none" stroke="#d43d51" d="M2569.26,-883.23C2569.21,-883.66 2569.17,-884.09 2569.12,-884.53"/>
<polygon fill="#d43d51" stroke="#d43d51" points="2565.66,-883.96 2568,-894.29 2572.61,-884.76 2565.66,-883.96"/>
</g>
<!-- 35500&#45;&gt;537 -->
<g id="edge39" class="edge">
<title>35500&#45;&gt;537</title>
<path fill="none" stroke="#d43d51" d="M2480.31,-950.24C2231.38,-1025.95 2202.61,-1059.79 1981.65,-1397.27"/>
<polygon fill="#d43d51" stroke="#d43d51" points="1978.77,-1395.28 1976.23,-1405.57 1984.63,-1399.12 1978.77,-1395.28"/>
</g>
<!-- 39999 -->
<g id="node30" class="node">
<title>39999</title>
<text text-anchor="middle" x="4008.99" y="-1751.63" font-family="Times,serif" font-size="14.00">LicenseTag (ScopedLicenseTag &quot;OrtLicenseCategorization&quot; &quot;permissive&quot; (LicenseTagDescription &quot;Open source license that is made available under \&quot;non&#45;copyleft\&quot; licenses. These generally require attribution of the included works and may include other obligations.&quot;))</text>
</g>
<!-- 40049 -->
<g id="node33" class="node">
<title>40049</title>
<ellipse fill="none" stroke="#e06f45" cx="2745.38" cy="-1760.03" rx="156.62" ry="28.99"/>
<text text-anchor="middle" x="2745.38" y="-1763.23" font-family="Times,serif" font-size="14.00" fill="gray">OrtLicenseCategorization</text>
<text text-anchor="middle" x="2745.38" y="-1746.73" font-family="Times,serif" font-size="14.00" fill="gray">f36087a1fae0c4c6448aa967185d27c4</text>
</g>
<!-- 39999&#45;&gt;40049 -->
<g id="edge40" class="edge">
<title>39999&#45;&gt;40049</title>
<path fill="none" stroke="#e06f45" d="M3862.71,-1738.72C3626.05,-1711.55 3515.21,-1714.95 2906.58,-1750.56"/>
<polygon fill="#e06f45" stroke="#e06f45" points="2906.6,-1747.05 2896.82,-1751.13 2907.01,-1754.04 2906.6,-1747.05"/>
</g>
<!-- 40001 -->
<g id="node31" class="node">
<title>40001</title>
<text text-anchor="middle" x="3857.82" y="-2535.33" font-family="Times,serif" font-size="14.00">LicenseTag (ScopedLicenseTag &quot;OrtLicenseCategorization&quot; &quot;property:include&#45;in&#45;notice&#45;file&quot; (LicenseTagDescription &quot;Whether the license includes a notice obligation or similar which can be fulfilled by adding the relevant copyright notices and the license text into the project/product notice file.&quot;))</text>
</g>
<!-- 40001&#45;&gt;40049 -->
<g id="edge41" class="edge">
<title>40001&#45;&gt;40049</title>
<path fill="none" stroke="#e06f45" d="M3841.88,-2522.47C3572.91,-2220.42 3551.82,-2204.84 2805.85,-1793.38"/>
<polygon fill="#e06f45" stroke="#e06f45" points="2807.7,-1790.41 2797.26,-1788.64 2804.32,-1796.54 2807.7,-1790.41"/>
</g>
<!-- 40002 -->
<g id="node32" class="node">
<title>40002</title>
<text text-anchor="middle" x="3510.14" y="-2783.2" font-family="Times,serif" font-size="14.00">LicenseTag (ScopedLicenseTag &quot;OrtLicenseCategorization&quot; &quot;include&#45;in&#45;notice&#45;file&quot; (LicenseTagDescription &quot;Same as above, as a temporary work&#45;around for the category name not being configurable in ORT reports, see https://github.com/oss&#45;review&#45;toolkit/ort/issues/8220.&quot;))</text>
</g>
<!-- 40002&#45;&gt;40049 -->
<g id="edge42" class="edge">
<title>40002&#45;&gt;40049</title>
<path fill="none" stroke="#e06f45" d="M3503.49,-2770.47C3361.93,-2392.17 3350.4,-2375.65 2781.71,-1796.99"/>
<polygon fill="#e06f45" stroke="#e06f45" points="2784.29,-1794.62 2774.78,-1789.94 2779.29,-1799.53 2784.29,-1794.62"/>
</g>
<!-- 40049&#45;&gt;537 -->
<g id="edge43" class="edge">
<title>40049&#45;&gt;537</title>
<path fill="none" stroke="#e06f45" d="M2707.54,-1731.55C2403.29,-1502.64 2325.29,-1448.42 2154.14,-1436.27"/>
<polygon fill="#e06f45" stroke="#e06f45" points="2154.45,-1432.78 2144.24,-1435.63 2154,-1439.77 2154.45,-1432.78"/>
</g>
<!-- 40050 -->
<g id="node34" class="node">
<title>40050</title>
<text text-anchor="middle" x="4052.45" y="-2166" font-family="Times,serif" font-size="14.00">LicenseTag (ScopedLicenseTag &quot;OrtLicenseCategorization&quot; &quot;property:nuclear&#45;restriction&quot; (LicenseTagDescription &quot;This property denies the use of the software in a nuclear facility. A mere warranty clause that does not deny use in a nuclear facility, is not considered a restriction under this property.&quot;))</text>
</g>
<!-- 40050&#45;&gt;40049 -->
<g id="edge44" class="edge">
<title>40050&#45;&gt;40049</title>
<path fill="none" stroke="#e06f45" d="M4018.46,-2153.11C3686.89,-1978.34 3647.33,-1965.09 2856.4,-1785.26"/>
<polygon fill="#e06f45" stroke="#e06f45" points="2857.29,-1781.87 2846.77,-1783.07 2855.74,-1788.7 2857.29,-1781.87"/>
</g>
<!-- 41174 -->
<g id="node35" class="node">
<title>41174</title>
<ellipse fill="none" stroke="#379469" cx="2164.59" cy="-1974.3" rx="157.15" ry="28.99"/>
<text text-anchor="middle" x="2164.59" y="-1977.5" font-family="Times,serif" font-size="14.00" fill="gray">CavilLicenseChange</text>
<text text-anchor="middle" x="2164.59" y="-1961" font-family="Times,serif" font-size="14.00" fill="gray">7a506c1435ef902ab4f76bdf39277b1d</text>
</g>
<!-- 41174&#45;&gt;41175 -->
<g id="edge45" class="edge">
<title>41174&#45;&gt;41175</title>
<path fill="none" stroke="#379469" d="M2127.49,-1945.77C2126.06,-1944.38 2124.77,-1943.02 2123.61,-1941.66"/>
<polygon fill="#379469" stroke="#379469" points="2126.62,-1939.87 2118.14,-1933.52 2120.81,-1943.77 2126.62,-1939.87"/>
</g>
<!-- 43779 -->
<g id="node37" class="node">
<title>43779</title>
<text text-anchor="start" x="249.55" y="-1972.28" font-family="Times,serif" font-size="14.00">CoDEStatus: </text>
<text text-anchor="start" x="323.8" y="-1972.28" font-family="Times,serif" font-weight="bold" font-size="14.00" fill="#000000">not approved</text>
</g>
<!-- 44476 -->
<g id="node38" class="node">
<title>44476</title>
<ellipse fill="none" stroke="#379469" cx="670.13" cy="-1675.72" rx="158.22" ry="28.99"/>
<text text-anchor="middle" x="670.13" y="-1678.92" font-family="Times,serif" font-size="14.00" fill="gray">MetaeffektLicense</text>
<text text-anchor="middle" x="670.13" y="-1662.42" font-family="Times,serif" font-size="14.00" fill="gray">28bf1b126e97b489e43e545b3fc6518a</text>
</g>
<!-- 43779&#45;&gt;44476 -->
<g id="edge46" class="edge">
<title>43779&#45;&gt;44476</title>
<path fill="none" stroke="#379469" d="M334.46,-1958.74C400.53,-1832.12 414.52,-1816.62 609.5,-1709.03"/>
<polygon fill="#379469" stroke="#379469" points="611.14,-1712.12 618.21,-1704.23 607.76,-1705.99 611.14,-1712.12"/>
</g>
<!-- 44476&#45;&gt;44477 -->
<g id="edge47" class="edge">
<title>44476&#45;&gt;44477</title>
<path fill="none" stroke="#379469" d="M761.57,-1651.65C782.04,-1647.17 801.79,-1643.89 824.95,-1641.4"/>
<polygon fill="#379469" stroke="#379469" points="825.12,-1644.9 834.73,-1640.43 824.43,-1637.94 825.12,-1644.9"/>
</g>
<!-- 44478 -->
<g id="node40" class="node">
<title>44478</title>
<polygon fill="none" stroke="#379469" points="502.29,-1563.13 502.29,-1578.05 356.48,-1588.59 150.26,-1588.59 4.45,-1578.05 4.45,-1563.13 150.26,-1552.59 356.48,-1552.59 502.29,-1563.13"/>
<polygon fill="none" stroke="#379469" points="506.29,-1559.41 506.29,-1581.77 356.62,-1592.59 150.12,-1592.59 0.45,-1581.77 0.45,-1559.41 150.12,-1548.59 356.62,-1548.59 506.29,-1559.41"/>
<text text-anchor="middle" x="253.37" y="-1565.54" font-family="Times,serif" font-size="14.00">BSD 3&#45;Clause License (no nuclear use; disclaimer variant)</text>
</g>
<!-- 44478&#45;&gt;44477 -->
<g id="edge48" class="edge">
<title>44478&#45;&gt;44477</title>
<path fill="none" stroke="#379469" stroke-width="2" d="M506.73,-1571.89C600.07,-1576.36 714.21,-1587.35 944.51,-1611.45"/>
<polygon fill="#379469" stroke="#379469" stroke-width="2" points="953.14,-1612.36 942.73,-1615.79 950.54,-1612.59 943.14,-1611.81 943.2,-1611.32 943.25,-1610.82 950.64,-1611.59 943.66,-1606.84 953.14,-1612.36"/>
</g>
<!-- 44479 -->
<g id="node41" class="node">
<title>44479</title>
<polygon fill="none" stroke="#379469" points="683.22,-1921.01 683.22,-1935.92 594.19,-1946.47 468.29,-1946.47 379.27,-1935.92 379.27,-1921.01 468.29,-1910.47 594.19,-1910.47 683.22,-1921.01"/>
<text text-anchor="middle" x="531.24" y="-1923.42" font-family="Times,serif" font-size="14.00">BSD 3 Clause No Nuclear License</text>
</g>
<!-- 44479&#45;&gt;44477 -->
<g id="edge49" class="edge">
<title>44479&#45;&gt;44477</title>
<path fill="none" stroke="#379469" stroke-dasharray="5,2" d="M550.22,-1910.16C689.48,-1776.1 713.49,-1762.24 1052.26,-1657.28"/>
<polygon fill="#379469" stroke="#379469" points="1061.72,-1654.35 1053.5,-1661.6 1058.11,-1655.47 1052.17,-1657.31 1052.17,-1657.31 1052.17,-1657.31 1058.11,-1655.47 1050.84,-1653.01 1061.72,-1654.35"/>
</g>
<!-- 66440 -->
<g id="node42" class="node">
<title>66440</title>
<ellipse fill="none" stroke="#00876c" cx="1791.02" cy="-1998.02" rx="153.44" ry="28.99"/>
<text text-anchor="middle" x="1791.02" y="-2001.22" font-family="Times,serif" font-size="14.00" fill="gray">LicenseLynx</text>
<text text-anchor="middle" x="1791.02" y="-1984.72" font-family="Times,serif" font-size="14.00" fill="gray">f081778ad07c7044a33ff9ff02663e4a</text>
</g>
<!-- 66440&#45;&gt;537 -->
<g id="edge50" class="edge">
<title>66440&#45;&gt;537</title>
<path fill="none" stroke="#00876c" d="M1788.74,-1968.76C1766.94,-1686.8 1770.92,-1665.33 1929.68,-1468.39"/>
<polygon fill="#00876c" stroke="#00876c" points="1932.35,-1470.65 1935.91,-1460.67 1926.91,-1466.26 1932.35,-1470.65"/>
</g>
<!-- 66441&#45;&gt;537 -->
<g id="edge51" class="edge">
<title>66441&#45;&gt;537</title>
<path fill="none" stroke="#00876c" stroke-width="2" d="M1431.22,-1710.18C1559.11,-1548.2 1584.03,-1528.05 1851.01,-1460.03"/>
<polygon fill="#00876c" stroke="#00876c" stroke-width="2" points="1859.48,-1457.88 1850.9,-1464.71 1857.12,-1459 1849.91,-1460.83 1849.79,-1460.35 1849.67,-1459.86 1856.87,-1458.03 1848.68,-1455.98 1859.48,-1457.88"/>
</g>
<!-- 66442&#45;&gt;537 -->
<g id="edge52" class="edge">
<title>66442&#45;&gt;537</title>
<path fill="none" stroke="#00876c" stroke-width="2" d="M1535.83,-1330.85C1607.53,-1333.72 1684.37,-1353.6 1861.23,-1404.89"/>
<polygon fill="#00876c" stroke="#00876c" stroke-width="2" points="1869.58,-1407.32 1858.72,-1408.85 1866.97,-1407.08 1859.83,-1405.01 1859.97,-1404.53 1860.11,-1404.05 1867.25,-1406.12 1861.23,-1400.21 1869.58,-1407.32"/>
</g>
</g>
</svg>
