<?xml version="1.0" encoding="UTF-8" standalone="no"?>
<!DOCTYPE svg PUBLIC "-//W3C//DTD SVG 1.1//EN"
 "http://www.w3.org/Graphics/SVG/1.1/DTD/svg11.dtd">
<!-- Generated by graphviz version 10.0.1 (0)
 -->
<!-- Pages: 1 -->
<svg width="2663pt" height="2684pt"
 viewBox="0.00 0.00 2663.00 2684.00" xmlns="http://www.w3.org/2000/svg" xmlns:xlink="http://www.w3.org/1999/xlink">
<g id="graph0" class="graph" transform="scale(1 1) rotate(0) translate(4 2680)">
<polygon fill="white" stroke="none" points="-4,4 -4,-2680 2659,-2680 2659,4 -4,4"/>
<!-- 5 -->
<g id="node1" class="node">
<title>5</title>
<text text-anchor="start" x="793.31" y="-419.9" font-family="Times,serif" font-size="14.00">OSI: </text>
<text text-anchor="start" x="822.56" y="-419.9" font-family="Times,serif" font-weight="bold" font-size="14.00" fill="#8b0000">Rejected</text>
</g>
<!-- 690 -->
<g id="node2" class="node">
<title>690</title>
<ellipse fill="none" stroke="#dac767" cx="1192.15" cy="-592.31" rx="156.09" ry="28.99"/>
<text text-anchor="middle" x="1192.15" y="-595.51" font-family="Times,serif" font-size="14.00" fill="gray">SPDXLicense</text>
<text text-anchor="middle" x="1192.15" y="-579.01" font-family="Times,serif" font-size="14.00" fill="gray">cb67091cabff087305499ebf4c635a5b</text>
</g>
<!-- 5&#45;&gt;690 -->
<g id="edge1" class="edge">
<title>5&#45;&gt;690</title>
<path fill="none" stroke="#dac767" d="M880.63,-427.33C977.58,-435.34 1004.17,-449.6 1145.8,-557.03"/>
<polygon fill="#dac767" stroke="#dac767" points="1143.56,-559.72 1153.64,-562.98 1147.79,-554.15 1143.56,-559.72"/>
</g>
<!-- 691 -->
<g id="node3" class="node">
<title>691</title>
<polygon fill="none" stroke="black" points="1475.51,-1226.33 1475.51,-1241.25 1392.33,-1251.79 1274.69,-1251.79 1191.51,-1241.25 1191.51,-1226.33 1274.69,-1215.79 1392.33,-1215.79 1475.51,-1226.33"/>
<polygon fill="none" stroke="black" points="1479.51,-1222.81 1479.51,-1244.77 1392.58,-1255.79 1274.44,-1255.79 1187.51,-1244.77 1187.51,-1222.81 1274.44,-1211.79 1392.58,-1211.79 1479.51,-1222.81"/>
<polygon fill="none" stroke="black" points="1483.51,-1219.28 1483.51,-1248.3 1392.84,-1259.79 1274.19,-1259.79 1183.51,-1248.3 1183.51,-1219.28 1274.19,-1207.79 1392.84,-1207.79 1483.51,-1219.28"/>
<text text-anchor="middle" x="1333.51" y="-1228.74" font-family="Times,serif" font-size="14.00">spdx:BSD&#45;Systemics&#45;W3Works</text>
</g>
<!-- 690&#45;&gt;691 -->
<g id="edge2" class="edge">
<title>690&#45;&gt;691</title>
<path fill="none" stroke="#dac767" d="M1200,-621.77C1242.03,-779.6 1247.65,-806.08 1326.01,-1196.41"/>
<polygon fill="#dac767" stroke="#dac767" points="1322.53,-1196.87 1327.93,-1205.99 1329.39,-1195.5 1322.53,-1196.87"/>
</g>
<!-- 6817 -->
<g id="node13" class="node">
<title>6817</title>
<polygon fill="none" stroke="#e09d4b" points="1683.96,-1167.7 1683.96,-1182.61 1595.58,-1193.16 1470.6,-1193.16 1382.22,-1182.61 1382.22,-1167.7 1470.6,-1157.16 1595.58,-1157.16 1683.96,-1167.7"/>
<polygon fill="none" stroke="#e09d4b" points="1687.96,-1164.15 1687.96,-1186.17 1595.82,-1197.16 1470.36,-1197.16 1378.22,-1186.17 1378.22,-1164.15 1470.36,-1153.16 1595.82,-1153.16 1687.96,-1164.15"/>
<text text-anchor="middle" x="1533.09" y="-1170.11" font-family="Times,serif" font-size="14.00">Fedora:BSD&#45;Systemics&#45;W3Works</text>
</g>
<!-- 691&#45;&gt;6817 -->
<g id="edge3" class="edge">
<title>691&#45;&gt;6817</title>
<path fill="none" stroke="#e09d4b" stroke-width="2" d="M1387.65,-1207.3C1396.44,-1203.08 1404.33,-1199.37 1411.52,-1196.11"/>
<polygon fill="#e09d4b" stroke="#e09d4b" stroke-width="2" points="1419.33,-1192.65 1412.01,-1200.82 1417.19,-1194.15 1410.39,-1197.16 1410.19,-1196.7 1409.99,-1196.25 1416.78,-1193.23 1408.36,-1192.59 1419.33,-1192.65"/>
</g>
<!-- 14518 -->
<g id="node15" class="node">
<title>14518</title>
<polygon fill="none" stroke="black" points="2009.89,-1234.56 2009.89,-1249.48 1923.46,-1260.02 1801.24,-1260.02 1714.81,-1249.48 1714.81,-1234.56 1801.24,-1224.02 1923.46,-1224.02 2009.89,-1234.56"/>
<polygon fill="none" stroke="black" points="2013.89,-1231.02 2013.89,-1253.02 1923.71,-1264.02 1800.99,-1264.02 1710.81,-1253.02 1710.81,-1231.02 1800.99,-1220.02 1923.71,-1220.02 2013.89,-1231.02"/>
<text text-anchor="middle" x="1862.35" y="-1236.97" font-family="Times,serif" font-size="14.00">scancode:bsd&#45;systemics&#45;w3works</text>
</g>
<!-- 691&#45;&gt;14518 -->
<g id="edge4" class="edge">
<title>691&#45;&gt;14518</title>
<path fill="none" stroke="#deb256" stroke-width="2" d="M1483.9,-1242.29C1551.27,-1244.08 1630.86,-1245.36 1699.63,-1245.77"/>
<polygon fill="#deb256" stroke="#deb256" stroke-width="2" points="1708.13,-1245.82 1698.11,-1250.26 1705.56,-1246.3 1698.13,-1246.26 1698.13,-1245.76 1698.13,-1245.26 1705.57,-1245.3 1698.15,-1241.26 1708.13,-1245.82"/>
</g>
<!-- 56432 -->
<g id="node24" class="node">
<title>56432</title>
<polygon fill="none" stroke="#379469" points="1962.2,-1632.84 1962.2,-1647.75 1878.05,-1658.29 1759.03,-1658.29 1674.88,-1647.75 1674.88,-1632.84 1759.03,-1622.29 1878.05,-1622.29 1962.2,-1632.84"/>
<polygon fill="none" stroke="#379469" points="1966.2,-1629.31 1966.2,-1651.28 1878.3,-1662.29 1758.78,-1662.29 1670.88,-1651.28 1670.88,-1629.31 1758.78,-1618.29 1878.3,-1618.29 1966.2,-1629.31"/>
<text text-anchor="middle" x="1818.54" y="-1635.24" font-family="Times,serif" font-size="14.00">metaeffekt:Systemics&#45;W3Works</text>
</g>
<!-- 691&#45;&gt;56432 -->
<g id="edge5" class="edge">
<title>691&#45;&gt;56432</title>
<path fill="none" stroke="#379469" stroke-width="2" d="M1371.65,-1260.28C1670.24,-1467.76 1695.84,-1487.65 1793.85,-1609.45"/>
<polygon fill="#379469" stroke="#379469" stroke-width="2" points="1799.2,-1616.11 1789.43,-1611.14 1797.2,-1614.43 1792.55,-1608.63 1792.94,-1608.32 1793.33,-1608 1797.98,-1613.8 1796.44,-1605.5 1799.2,-1616.11"/>
</g>
<!-- 692 -->
<g id="node4" class="node">
<title>692</title>
<polygon fill="none" stroke="black" points="1649.3,-1621.75 1649.3,-1636.66 1578.77,-1647.21 1479.03,-1647.21 1408.5,-1636.66 1408.5,-1621.75 1479.03,-1611.21 1578.77,-1611.21 1649.3,-1621.75"/>
<polygon fill="none" stroke="black" points="1653.3,-1618.31 1653.3,-1640.11 1579.07,-1651.21 1478.73,-1651.21 1404.5,-1640.11 1404.5,-1618.31 1478.73,-1607.21 1579.07,-1607.21 1653.3,-1618.31"/>
<text text-anchor="middle" x="1528.9" y="-1624.16" font-family="Times,serif" font-size="14.00">BSD&#45;Systemics&#45;W3Works</text>
</g>
<!-- 692&#45;&gt;691 -->
<g id="edge6" class="edge">
<title>692&#45;&gt;691</title>
<path fill="none" stroke="black" stroke-width="2" d="M1523.71,-1606.91C1497.62,-1495.8 1488.43,-1477.72 1356.25,-1269.57"/>
<polygon fill="black" stroke="black" stroke-width="2" points="1351.58,-1262.22 1360.74,-1268.25 1353.37,-1264.11 1357.36,-1270.39 1356.94,-1270.66 1356.52,-1270.93 1352.53,-1264.65 1353.14,-1273.07 1351.58,-1262.22"/>
</g>
<!-- 692&#45;&gt;6817 -->
<g id="edge7" class="edge">
<title>692&#45;&gt;6817</title>
<path fill="none" stroke="#e09d4b" stroke-width="2" d="M1538.77,-1606.96C1613.79,-1437.46 1614.46,-1420.94 1544,-1208.03"/>
<polygon fill="#e09d4b" stroke="#e09d4b" stroke-width="2" points="1541.24,-1199.72 1548.66,-1207.8 1542.53,-1202 1544.86,-1209.05 1544.39,-1209.21 1543.92,-1209.37 1541.58,-1202.31 1540.12,-1210.63 1541.24,-1199.72"/>
</g>
<!-- 692&#45;&gt;14518 -->
<g id="edge8" class="edge">
<title>692&#45;&gt;14518</title>
<path fill="none" stroke="black" stroke-width="2" d="M1564.52,-1606.73C1781.91,-1469.32 1796.57,-1452.99 1852.18,-1274.81"/>
<polygon fill="black" stroke="black" stroke-width="2" points="1854.75,-1266.57 1856.07,-1277.46 1854.46,-1269.17 1852.25,-1276.27 1851.77,-1276.12 1851.3,-1275.97 1853.51,-1268.87 1847.48,-1274.79 1854.75,-1266.57"/>
</g>
<!-- 41211 -->
<g id="node22" class="node">
<title>41211</title>
<polygon fill="none" stroke="#379469" points="1532.52,-2156.24 1532.52,-2171.15 1449.01,-2181.7 1330.91,-2181.7 1247.4,-2171.15 1247.4,-2156.24 1330.91,-2145.7 1449.01,-2145.7 1532.52,-2156.24"/>
<polygon fill="none" stroke="#379469" points="1536.52,-2152.72 1536.52,-2174.68 1449.26,-2185.7 1330.66,-2185.7 1243.4,-2174.68 1243.4,-2152.72 1330.66,-2141.7 1449.26,-2141.7 1536.52,-2152.72"/>
<text text-anchor="middle" x="1389.96" y="-2158.65" font-family="Times,serif" font-size="14.00">cavil:BSD&#45;Systemics&#45;W3Works</text>
</g>
<!-- 692&#45;&gt;41211 -->
<g id="edge9" class="edge">
<title>692&#45;&gt;41211</title>
<path fill="none" stroke="#379469" stroke-width="2" d="M1526.27,-1651.53C1487.78,-1978.61 1483.38,-2004.91 1408.69,-2132.06"/>
<polygon fill="#379469" stroke="#379469" stroke-width="2" points="1404.42,-2139.29 1405.62,-2128.39 1405.29,-2136.83 1409.07,-2130.42 1409.5,-2130.68 1409.93,-2130.93 1406.16,-2137.34 1413.38,-2132.96 1404.42,-2139.29"/>
</g>
<!-- 693 -->
<g id="node5" class="node">
<title>693</title>
<polygon fill="none" stroke="black" points="1554.29,-1299.13 1554.29,-1314.04 1449.37,-1324.59 1300.98,-1324.59 1196.06,-1314.04 1196.06,-1299.13 1300.98,-1288.59 1449.37,-1288.59 1554.29,-1299.13"/>
<polygon fill="none" stroke="black" points="1558.29,-1295.51 1558.29,-1317.66 1449.57,-1328.59 1300.78,-1328.59 1192.06,-1317.66 1192.06,-1295.51 1300.78,-1284.59 1449.57,-1284.59 1558.29,-1295.51"/>
<text text-anchor="middle" x="1375.17" y="-1301.54" font-family="Times,serif" font-size="14.00">Systemics W3Works BSD variant license</text>
</g>
<!-- 693&#45;&gt;691 -->
<g id="edge10" class="edge">
<title>693&#45;&gt;691</title>
<path fill="none" stroke="#dac767" stroke-width="2" d="M1368.83,-1284.44C1367.17,-1278.85 1365.68,-1274.19 1364.22,-1270.2"/>
<polygon fill="#dac767" stroke="#dac767" stroke-width="2" points="1360.76,-1262.21 1368.86,-1269.6 1362.24,-1264.36 1365.19,-1271.19 1364.73,-1271.38 1364.27,-1271.58 1361.32,-1264.76 1360.6,-1273.17 1360.76,-1262.21"/>
</g>
<!-- 693&#45;&gt;14518 -->
<g id="edge11" class="edge">
<title>693&#45;&gt;14518</title>
<path fill="none" stroke="#deb256" stroke-width="2" d="M1491.38,-1288.38C1601.69,-1271.16 1662.11,-1262.04 1710.01,-1256.08"/>
<polygon fill="#deb256" stroke="#deb256" stroke-width="2" points="1718.57,-1255.04 1709.19,-1260.71 1716.09,-1255.84 1708.71,-1256.74 1708.65,-1256.25 1708.59,-1255.75 1715.97,-1254.85 1708.1,-1251.78 1718.57,-1255.04"/>
</g>
<!-- 693&#45;&gt;56432 -->
<g id="edge12" class="edge">
<title>693&#45;&gt;56432</title>
<path fill="none" stroke="#379469" stroke-dasharray="5,2" d="M1408.28,-1328.95C1668.35,-1504.65 1696.92,-1524.91 1787.12,-1610.36"/>
<polygon fill="#379469" stroke="#379469" points="1794.28,-1617.16 1783.93,-1613.54 1791.54,-1614.56 1787.03,-1610.28 1787.03,-1610.28 1787.03,-1610.28 1791.54,-1614.56 1790.13,-1607.02 1794.28,-1617.16"/>
</g>
<!-- 66489 -->
<g id="node31" class="node">
<title>66489</title>
<polygon fill="none" stroke="#00876c" points="1031.28,-1277.92 1031.28,-1292.83 913.7,-1303.37 747.42,-1303.37 629.84,-1292.83 629.84,-1277.92 747.42,-1267.37 913.7,-1267.37 1031.28,-1277.92"/>
<polygon fill="none" stroke="#00876c" points="1035.28,-1274.26 1035.28,-1296.49 913.88,-1307.37 747.24,-1307.37 625.84,-1296.49 625.84,-1274.26 747.24,-1263.37 913.88,-1263.37 1035.28,-1274.26"/>
<text text-anchor="middle" x="830.56" y="-1280.32" font-family="Times,serif" font-size="14.00">spdx:Systemics W3Works BSD variant license</text>
</g>
<!-- 693&#45;&gt;66489 -->
<g id="edge13" class="edge">
<title>693&#45;&gt;66489</title>
<path fill="none" stroke="#00876c" stroke-width="2" d="M1209.22,-1293.3C1137.85,-1287.72 1087.27,-1284.11 1046.75,-1282.04"/>
<polygon fill="#00876c" stroke="#00876c" stroke-width="2" points="1038.01,-1281.62 1048.22,-1277.61 1040.6,-1281.25 1048.02,-1281.61 1048,-1282.1 1047.98,-1282.6 1040.55,-1282.24 1047.78,-1286.6 1038.01,-1281.62"/>
</g>
<!-- 694 -->
<g id="node6" class="node">
<title>694</title>
<text text-anchor="middle" x="954.01" y="-197.17" font-family="Times,serif" font-size="14.00">$TEXT</text>
</g>
<!-- 694&#45;&gt;690 -->
<g id="edge14" class="edge">
<title>694&#45;&gt;690</title>
<path fill="none" stroke="#dac767" d="M969.81,-219.97C1045.61,-305.39 1056.59,-323.83 1172.44,-553.26"/>
<polygon fill="#dac767" stroke="#dac767" points="1169.19,-554.58 1176.82,-561.93 1175.44,-551.42 1169.19,-554.58"/>
</g>
<!-- 695 -->
<g id="node7" class="node">
<title>695</title>
<text text-anchor="middle" x="836.14" y="-13.45" font-family="Times,serif" font-size="14.00">$TEXT</text>
</g>
<!-- 695&#45;&gt;694 -->
<g id="edge15" class="edge">
<title>695&#45;&gt;694</title>
<path fill="none" stroke="#dac767" d="M851.77,-36.44C879.28,-68.51 888.71,-84.06 938.75,-174.58"/>
<polygon fill="#dac767" stroke="#dac767" points="935.58,-176.09 943.48,-183.15 941.71,-172.7 935.58,-176.09"/>
</g>
<!-- 696 -->
<g id="node8" class="node">
<title>696</title>
<text text-anchor="middle" x="1833.13" y="-361.22" font-family="Times,serif" font-size="14.00">https://metacpan.org/release/DPARIS/Crypt&#45;Blowfish&#45;2.14/source/COPYRIGHT#L7</text>
</g>
<!-- 696&#45;&gt;690 -->
<g id="edge16" class="edge">
<title>696&#45;&gt;690</title>
<path fill="none" stroke="#dac767" d="M1593.65,-364.31C1500.02,-379.83 1423.17,-429.95 1241.62,-557.5"/>
<polygon fill="#dac767" stroke="#dac767" points="1239.74,-554.54 1233.57,-563.16 1243.76,-560.27 1239.74,-554.54"/>
</g>
<!-- 14517 -->
<g id="node14" class="node">
<title>14517</title>
<ellipse fill="none" stroke="#deb256" cx="2282.96" cy="-746.8" rx="153.44" ry="28.99"/>
<text text-anchor="middle" x="2282.96" y="-750" font-family="Times,serif" font-size="14.00" fill="gray">ScancodeData</text>
<text text-anchor="middle" x="2282.96" y="-733.5" font-family="Times,serif" font-size="14.00" fill="gray">db56acc1487facb3abeff32f8d9c0933</text>
</g>
<!-- 696&#45;&gt;14517 -->
<g id="edge17" class="edge">
<title>696&#45;&gt;14517</title>
<path fill="none" stroke="#deb256" d="M1885.74,-384.27C2125.59,-466.85 2145.76,-485.43 2262.36,-707.45"/>
<polygon fill="#deb256" stroke="#deb256" points="2259.18,-708.92 2266.92,-716.15 2265.37,-705.66 2259.18,-708.92"/>
</g>
<!-- 5550 -->
<g id="node9" class="node">
<title>5550</title>
<text text-anchor="middle" x="2545.81" y="-418.45" font-family="Times,serif" font-size="14.00">LicenseType Permissive</text>
</g>
<!-- 5550&#45;&gt;14517 -->
<g id="edge18" class="edge">
<title>5550&#45;&gt;14517</title>
<path fill="none" stroke="#deb256" d="M2536.01,-441.26C2485.84,-531.91 2473.51,-547.33 2318.15,-709.97"/>
<polygon fill="#deb256" stroke="#deb256" points="2316.07,-707.09 2311.69,-716.74 2321.13,-711.92 2316.07,-707.09"/>
</g>
<!-- 6592 -->
<g id="node10" class="node">
<title>6592</title>
<text text-anchor="middle" x="1542.82" y="-377.77" font-family="Times,serif" font-size="14.00">[&quot;allowed&quot;]</text>
</g>
<!-- 6816 -->
<g id="node12" class="node">
<title>6816</title>
<ellipse fill="none" stroke="#e09d4b" cx="1588.17" cy="-687.62" rx="159.28" ry="28.99"/>
<text text-anchor="middle" x="1588.17" y="-690.82" font-family="Times,serif" font-size="14.00" fill="gray">FedoraEntry</text>
<text text-anchor="middle" x="1588.17" y="-674.32" font-family="Times,serif" font-size="14.00" fill="gray">7cb04725d8afe6923a80e6a8b05b6499</text>
</g>
<!-- 6592&#45;&gt;6816 -->
<g id="edge19" class="edge">
<title>6592&#45;&gt;6816</title>
<path fill="none" stroke="#e09d4b" d="M1550.51,-400.75C1580.64,-471.51 1583.14,-488.27 1587.17,-647.04"/>
<polygon fill="#e09d4b" stroke="#e09d4b" points="1583.66,-646.79 1587.41,-656.7 1590.66,-646.61 1583.66,-646.79"/>
</g>
<!-- 6593 -->
<g id="node11" class="node">
<title>6593</title>
<text text-anchor="start" x="1312.81" y="-331.27" font-family="Times,serif" font-size="14.00">Fedora: </text>
<text text-anchor="start" x="1357.81" y="-331.27" font-family="Times,serif" font-weight="bold" font-size="14.00" fill="#228b22">allowed</text>
<text text-anchor="start" x="1148.94" y="-317.27" font-family="Times,serif" font-size="14.00">A license is allowed if Fedora determines that the license is a free software /</text>
<text text-anchor="start" x="1143.69" y="-303.27" font-family="Times,serif" font-size="14.00">open source license. At a high level, the inquiry involves determining whether</text>
<text text-anchor="start" x="1142.56" y="-289.27" font-family="Times,serif" font-size="14.00">the license provides software freedom, and (equivalently) making sure that the</text>
<text text-anchor="start" x="1152.69" y="-275.27" font-family="Times,serif" font-size="14.00">license does not place burdens on users&#39; exercise of its permissions that are</text>
<text text-anchor="start" x="1152.31" y="-261.27" font-family="Times,serif" font-size="14.00">inconsistent with evolving community norms and traditions around what is</text>
<text text-anchor="start" x="1144.06" y="-247.27" font-family="Times,serif" font-size="14.00">acceptable in a free software / open source license. See below for more on the</text>
<text text-anchor="start" x="1264.06" y="-233.27" font-family="Times,serif" font-size="14.00">history of Fedora licensing policy.</text>
</g>
<!-- 6593&#45;&gt;6592 -->
<g id="edge20" class="edge">
<title>6593&#45;&gt;6592</title>
<path fill="none" stroke="#e09d4b" d="M1507.45,-347.26C1510.52,-350.27 1513.72,-353.44 1517.07,-356.8"/>
<polygon fill="#e09d4b" stroke="#e09d4b" points="1514.58,-359.25 1524.11,-363.87 1519.54,-354.31 1514.58,-359.25"/>
</g>
<!-- 6816&#45;&gt;6817 -->
<g id="edge21" class="edge">
<title>6816&#45;&gt;6817</title>
<path fill="none" stroke="#e09d4b" d="M1592.05,-716.86C1608.47,-842.73 1604.76,-866.11 1540.89,-1141.55"/>
<polygon fill="#e09d4b" stroke="#e09d4b" points="1537.49,-1140.72 1538.64,-1151.25 1544.31,-1142.3 1537.49,-1140.72"/>
</g>
<!-- 14517&#45;&gt;14518 -->
<g id="edge22" class="edge">
<title>14517&#45;&gt;14518</title>
<path fill="none" stroke="#deb256" d="M2268.94,-776.08C2192.61,-934.86 2174.47,-954.77 1895.1,-1211.88"/>
<polygon fill="#deb256" stroke="#deb256" points="1892.86,-1209.19 1887.88,-1218.53 1897.61,-1214.34 1892.86,-1209.19"/>
</g>
<!-- 14518&#45;&gt;691 -->
<g id="edge23" class="edge">
<title>14518&#45;&gt;691</title>
<path fill="none" stroke="#00876c" stroke-width="2" d="M1710.55,-1233.48C1642.92,-1231.69 1563.2,-1230.42 1494.53,-1230.03"/>
<polygon fill="#00876c" stroke="#00876c" stroke-width="2" points="1486.05,-1229.98 1496.07,-1225.53 1488.61,-1229.5 1496.05,-1229.53 1496.05,-1230.03 1496.04,-1230.53 1488.61,-1230.5 1496.02,-1234.53 1486.05,-1229.98"/>
</g>
<!-- 14518&#45;&gt;56432 -->
<g id="edge24" class="edge">
<title>14518&#45;&gt;56432</title>
<path fill="none" stroke="#379469" stroke-dasharray="5,2" d="M1868.27,-1264.49C1915.61,-1444.77 1915.6,-1461.98 1836.12,-1608.14"/>
<polygon fill="#379469" stroke="#379469" points="1831.35,-1616.88 1832.19,-1605.95 1833.16,-1613.56 1836.14,-1608.1 1836.14,-1608.1 1836.14,-1608.1 1833.16,-1613.56 1840.09,-1610.26 1831.35,-1616.88"/>
</g>
<!-- 14519 -->
<g id="node16" class="node">
<title>14519</title>
<polygon fill="none" stroke="black" points="2424.39,-1371.44 2424.39,-1386.35 2348.34,-1396.89 2240.8,-1396.89 2164.76,-1386.35 2164.76,-1371.44 2240.8,-1360.89 2348.34,-1360.89 2424.39,-1371.44"/>
<polygon fill="none" stroke="black" points="2428.39,-1367.95 2428.39,-1389.83 2348.62,-1400.89 2240.52,-1400.89 2160.76,-1389.83 2160.76,-1367.95 2240.52,-1356.89 2348.62,-1356.89 2428.39,-1367.95"/>
<text text-anchor="middle" x="2294.57" y="-1373.84" font-family="Times,serif" font-size="14.00">Systemics W3Works License</text>
</g>
<!-- 14519&#45;&gt;14518 -->
<g id="edge25" class="edge">
<title>14519&#45;&gt;14518</title>
<path fill="none" stroke="#deb256" stroke-width="2" d="M2254.93,-1356.4C2177.44,-1313.25 2143.13,-1302.23 1962.65,-1263.4"/>
<polygon fill="#deb256" stroke="#deb256" stroke-width="2" points="1954.07,-1261.55 1964.79,-1259.25 1956.68,-1261.6 1963.95,-1263.16 1963.84,-1263.65 1963.74,-1264.14 1956.47,-1262.58 1962.9,-1268.05 1954.07,-1261.55"/>
</g>
<!-- 56434 -->
<g id="node26" class="node">
<title>56434</title>
<polygon fill="none" stroke="#379469" points="2491.17,-1432.47 2491.17,-1447.39 2388.19,-1457.93 2242.56,-1457.93 2139.58,-1447.39 2139.58,-1432.47 2242.56,-1421.93 2388.19,-1421.93 2491.17,-1432.47"/>
<polygon fill="none" stroke="#379469" points="2495.17,-1428.86 2495.17,-1451 2388.4,-1461.93 2242.36,-1461.93 2135.58,-1451 2135.58,-1428.86 2242.36,-1417.93 2388.4,-1417.93 2495.17,-1428.86"/>
<text text-anchor="middle" x="2315.38" y="-1434.88" font-family="Times,serif" font-size="14.00">metaeffekt:Systemics W3Works License</text>
</g>
<!-- 14519&#45;&gt;56434 -->
<g id="edge26" class="edge">
<title>14519&#45;&gt;56434</title>
<path fill="none" stroke="#379469" stroke-width="2" d="M2310.2,-1401.03C2311.42,-1403.03 2312.42,-1404.88 2313.23,-1406.65"/>
<polygon fill="#379469" stroke="#379469" stroke-width="2" points="2315.55,-1415.08 2308.56,-1406.64 2314.39,-1412.74 2312.42,-1405.57 2312.9,-1405.44 2313.38,-1405.31 2315.35,-1412.48 2317.24,-1404.25 2315.55,-1415.08"/>
</g>
<!-- 66488 -->
<g id="node30" class="node">
<title>66488</title>
<polygon fill="none" stroke="#00876c" points="2046.65,-1117.45 2046.65,-1132.36 1947.57,-1142.91 1807.44,-1142.91 1708.35,-1132.36 1708.35,-1117.45 1807.44,-1106.91 1947.57,-1106.91 2046.65,-1117.45"/>
<polygon fill="none" stroke="#00876c" points="2050.65,-1113.85 2050.65,-1135.96 1947.78,-1146.91 1807.23,-1146.91 1704.35,-1135.96 1704.35,-1113.85 1807.23,-1102.91 1947.78,-1102.91 2050.65,-1113.85"/>
<text text-anchor="middle" x="1877.5" y="-1119.86" font-family="Times,serif" font-size="14.00">scancode:Systemics W3Works License</text>
</g>
<!-- 14519&#45;&gt;66488 -->
<g id="edge27" class="edge">
<title>14519&#45;&gt;66488</title>
<path fill="none" stroke="#00876c" stroke-width="2" d="M2276.62,-1356.72C2190.35,-1250.65 2169.22,-1236.23 1946.99,-1151.33"/>
<polygon fill="#00876c" stroke="#00876c" stroke-width="2" points="1938.88,-1148.24 1949.83,-1147.6 1941.45,-1148.68 1948.4,-1151.34 1948.22,-1151.8 1948.04,-1152.27 1941.1,-1149.62 1946.62,-1156.01 1938.88,-1148.24"/>
</g>
<!-- 14520 -->
<g id="node17" class="node">
<title>14520</title>
<text text-anchor="middle" x="2626.17" y="-633.59" font-family="Times,serif" font-size="14.00">$TEXT</text>
</g>
<!-- 14520&#45;&gt;14517 -->
<g id="edge28" class="edge">
<title>14520&#45;&gt;14517</title>
<path fill="none" stroke="#deb256" d="M2597.8,-643.45C2526.66,-655.74 2501.79,-663.15 2362.15,-716.45"/>
<polygon fill="#deb256" stroke="#deb256" points="2360.96,-713.16 2352.86,-720 2363.46,-719.7 2360.96,-713.16"/>
</g>
<!-- 35432 -->
<g id="node18" class="node">
<title>35432</title>
<text text-anchor="middle" x="830.42" y="-1595.34" font-family="Times,serif" font-size="14.00">LicenseTag (ScopedLicenseTag &quot;OrtLicenseCategorization&quot; &quot;permissive&quot; NoLicenseTagText)</text>
</g>
<!-- 35519 -->
<g id="node20" class="node">
<title>35519</title>
<ellipse fill="none" stroke="#d43d51" cx="900.8" cy="-1544" rx="157.15" ry="28.99"/>
<text text-anchor="middle" x="900.8" y="-1547.2" font-family="Times,serif" font-size="14.00" fill="gray">OrtLicenseCategorization</text>
<text text-anchor="middle" x="900.8" y="-1530.7" font-family="Times,serif" font-size="14.00" fill="gray">a0f14132411d3076dd06fbb3a3bea3f8</text>
</g>
<!-- 35432&#45;&gt;35519 -->
<g id="edge29" class="edge">
<title>35432&#45;&gt;35519</title>
<path fill="none" stroke="#d43d51" d="M848.61,-1582.41C849.8,-1581.38 851.05,-1580.34 852.39,-1579.25"/>
<polygon fill="#d43d51" stroke="#d43d51" points="854.34,-1582.16 860.09,-1573.27 850.05,-1576.63 854.34,-1582.16"/>
</g>
<!-- 35433 -->
<g id="node19" class="node">
<title>35433</title>
<text text-anchor="middle" x="294.23" y="-1855.48" font-family="Times,serif" font-size="14.00">LicenseTag (ScopedLicenseTag &quot;OrtLicenseCategorization&quot; &quot;include&#45;in&#45;notice&#45;file&quot; NoLicenseTagText)</text>
</g>
<!-- 35433&#45;&gt;35519 -->
<g id="edge30" class="edge">
<title>35433&#45;&gt;35519</title>
<path fill="none" stroke="#d43d51" d="M327.57,-1842.62C468.51,-1766.93 499.61,-1750.73 837.17,-1576.78"/>
<polygon fill="#d43d51" stroke="#d43d51" points="838.62,-1579.98 845.9,-1572.28 835.41,-1573.75 838.62,-1579.98"/>
</g>
<!-- 35519&#45;&gt;691 -->
<g id="edge31" class="edge">
<title>35519&#45;&gt;691</title>
<path fill="none" stroke="#d43d51" d="M925.96,-1515.09C1009.6,-1419.75 1035.75,-1401.73 1277.05,-1265.61"/>
<polygon fill="#d43d51" stroke="#d43d51" points="1278.52,-1268.79 1285.52,-1260.83 1275.09,-1262.7 1278.52,-1268.79"/>
</g>
<!-- 41210 -->
<g id="node21" class="node">
<title>41210</title>
<ellipse fill="none" stroke="#379469" cx="1284.37" cy="-2647.09" rx="156.09" ry="28.99"/>
<text text-anchor="middle" x="1284.37" y="-2650.29" font-family="Times,serif" font-size="14.00" fill="gray">CavilLicenseChange</text>
<text text-anchor="middle" x="1284.37" y="-2633.79" font-family="Times,serif" font-size="14.00" fill="gray">a0daad2f0096810f15a94836f22617ae</text>
</g>
<!-- 41210&#45;&gt;41211 -->
<g id="edge32" class="edge">
<title>41210&#45;&gt;41211</title>
<path fill="none" stroke="#379469" d="M1295.34,-2617.83C1336.78,-2506.71 1341.55,-2481.2 1384.89,-2196.95"/>
<polygon fill="#379469" stroke="#379469" points="1388.31,-2197.77 1386.36,-2187.36 1381.39,-2196.72 1388.31,-2197.77"/>
</g>
<!-- 56431 -->
<g id="node23" class="node">
<title>56431</title>
<ellipse fill="none" stroke="#379469" cx="2096.31" cy="-2112.94" rx="158.75" ry="28.99"/>
<text text-anchor="middle" x="2096.31" y="-2116.14" font-family="Times,serif" font-size="14.00" fill="gray">MetaeffektLicense</text>
<text text-anchor="middle" x="2096.31" y="-2099.64" font-family="Times,serif" font-size="14.00" fill="gray">a557a43811912fd2d5b357365a962f7e</text>
</g>
<!-- 56431&#45;&gt;56432 -->
<g id="edge33" class="edge">
<title>56431&#45;&gt;56432</title>
<path fill="none" stroke="#379469" d="M2086.48,-2083.81C2041.65,-1951.85 2027.9,-1930.18 1841.33,-1671.84"/>
<polygon fill="#379469" stroke="#379469" points="1844.19,-1669.83 1835.5,-1663.77 1838.52,-1673.93 1844.19,-1669.83"/>
</g>
<!-- 56433 -->
<g id="node25" class="node">
<title>56433</title>
<polygon fill="none" stroke="#379469" points="2303.78,-1886.98 2303.78,-1901.89 2246.56,-1912.44 2165.63,-1912.44 2108.41,-1901.89 2108.41,-1886.98 2165.63,-1876.44 2246.56,-1876.44 2303.78,-1886.98"/>
<polygon fill="none" stroke="#379469" points="2307.78,-1883.65 2307.78,-1905.22 2246.92,-1916.44 2165.27,-1916.44 2104.41,-1905.22 2104.41,-1883.65 2165.27,-1872.44 2246.92,-1872.44 2307.78,-1883.65"/>
<text text-anchor="middle" x="2206.09" y="-1889.39" font-family="Times,serif" font-size="14.00">Systemics&#45;W3Works</text>
</g>
<!-- 56433&#45;&gt;56432 -->
<g id="edge34" class="edge">
<title>56433&#45;&gt;56432</title>
<path fill="none" stroke="#379469" stroke-width="2" d="M2173.02,-1872.11C2093.21,-1818.28 2065.62,-1800.27 1862.21,-1668.57"/>
<polygon fill="#379469" stroke="#379469" stroke-width="2" points="1855.07,-1663.94 1865.91,-1665.6 1857.49,-1664.92 1863.73,-1668.96 1863.46,-1669.38 1863.19,-1669.8 1856.95,-1665.76 1861.02,-1673.16 1855.07,-1663.94"/>
</g>
<!-- 56434&#45;&gt;56432 -->
<g id="edge35" class="edge">
<title>56434&#45;&gt;56432</title>
<path fill="none" stroke="#379469" stroke-width="2" d="M2290.13,-1462.22C2182.82,-1556.48 2154.62,-1570.5 1920.13,-1619.4"/>
<polygon fill="#379469" stroke="#379469" stroke-width="2" points="1911.56,-1621.18 1920.43,-1614.74 1913.97,-1620.17 1921.25,-1618.65 1921.35,-1619.14 1921.45,-1619.63 1914.17,-1621.15 1922.27,-1623.55 1911.56,-1621.18"/>
</g>
<!-- 56435 -->
<g id="node27" class="node">
<title>56435</title>
<polygon fill="none" stroke="#379469" points="1920.47,-2025.25 1920.47,-2040.16 1889.53,-2050.71 1845.78,-2050.71 1814.84,-2040.16 1814.84,-2025.25 1845.78,-2014.71 1889.53,-2014.71 1920.47,-2025.25"/>
<text text-anchor="middle" x="1867.65" y="-2027.66" font-family="Times,serif" font-size="14.00">Systemics</text>
</g>
<!-- 56435&#45;&gt;56432 -->
<g id="edge36" class="edge">
<title>56435&#45;&gt;56432</title>
<path fill="none" stroke="#379469" stroke-dasharray="5,2" d="M1871.81,-2014.49C1898.46,-1896.88 1896.56,-1881.48 1829.19,-1673.18"/>
<polygon fill="#379469" stroke="#379469" points="1826.2,-1663.94 1833.56,-1672.07 1827.37,-1667.54 1829.28,-1673.46 1829.28,-1673.46 1829.28,-1673.46 1827.37,-1667.54 1825,-1674.84 1826.2,-1663.94"/>
</g>
<!-- 56436 -->
<g id="node28" class="node">
<title>56436</title>
<polygon fill="none" stroke="#379469" points="2008.93,-1685.89 2008.93,-1700.8 1919.91,-1711.34 1794.01,-1711.34 1704.98,-1700.8 1704.98,-1685.89 1794.01,-1675.34 1919.91,-1675.34 2008.93,-1685.89"/>
<text text-anchor="middle" x="1856.96" y="-1688.29" font-family="Times,serif" font-size="14.00">BSD Systemics W3Works License</text>
</g>
<!-- 56436&#45;&gt;56432 -->
<g id="edge37" class="edge">
<title>56436&#45;&gt;56432</title>
<path fill="none" stroke="#379469" stroke-dasharray="5,2" d="M1847.88,-1674.85C1847.1,-1673.66 1846.24,-1672.44 1845.28,-1671.15"/>
<polygon fill="#379469" stroke="#379469" points="1839.1,-1663.53 1848.9,-1668.47 1841.49,-1666.47 1845.4,-1671.3 1845.4,-1671.3 1845.4,-1671.3 1841.49,-1666.47 1841.9,-1674.13 1839.1,-1663.53"/>
</g>
<!-- 66487 -->
<g id="node29" class="node">
<title>66487</title>
<ellipse fill="none" stroke="#00876c" cx="857.03" cy="-1053.22" rx="162.46" ry="28.99"/>
<text text-anchor="middle" x="857.03" y="-1056.42" font-family="Times,serif" font-size="14.00" fill="gray">LicenseLynx</text>
<text text-anchor="middle" x="857.03" y="-1039.92" font-family="Times,serif" font-size="14.00" fill="gray">81d9b3d7d87845d17da83288cb4342ad</text>
</g>
<!-- 66487&#45;&gt;691 -->
<g id="edge38" class="edge">
<title>66487&#45;&gt;691</title>
<path fill="none" stroke="#00876c" d="M971.96,-1074.04C1038.57,-1090.52 1099.2,-1118.66 1269.43,-1202.27"/>
<polygon fill="#00876c" stroke="#00876c" points="1267.85,-1205.39 1278.37,-1206.66 1270.94,-1199.11 1267.85,-1205.39"/>
</g>
<!-- 66488&#45;&gt;691 -->
<g id="edge39" class="edge">
<title>66488&#45;&gt;691</title>
<path fill="none" stroke="#00876c" stroke-width="2" d="M1704.13,-1133.31C1644.21,-1143.01 1570.67,-1163.57 1424.29,-1206.86"/>
<polygon fill="#00876c" stroke="#00876c" stroke-width="2" points="1415.96,-1209.32 1424.27,-1202.17 1418.28,-1208.12 1425.41,-1206.01 1425.55,-1206.49 1425.69,-1206.97 1418.56,-1209.08 1426.83,-1210.8 1415.96,-1209.32"/>
</g>
<!-- 66489&#45;&gt;691 -->
<g id="edge40" class="edge">
<title>66489&#45;&gt;691</title>
<path fill="none" stroke="#00876c" stroke-width="2" d="M893.49,-1262.92C971.96,-1236.41 1016.98,-1230.97 1172.37,-1231.86"/>
<polygon fill="#00876c" stroke="#00876c" stroke-width="2" points="1180.82,-1231.92 1170.8,-1236.35 1178.26,-1232.4 1170.82,-1232.35 1170.82,-1231.85 1170.83,-1231.35 1178.26,-1231.4 1170.85,-1227.35 1180.82,-1231.92"/>
</g>
</g>
</svg>
