<?xml version="1.0" encoding="UTF-8" standalone="no"?>
<!DOCTYPE svg PUBLIC "-//W3C//DTD SVG 1.1//EN"
 "http://www.w3.org/Graphics/SVG/1.1/DTD/svg11.dtd">
<!-- Generated by graphviz version 10.0.1 (0)
 -->
<!-- Pages: 1 -->
<svg width="1526pt" height="1229pt"
 viewBox="0.00 0.00 1526.00 1229.00" xmlns="http://www.w3.org/2000/svg" xmlns:xlink="http://www.w3.org/1999/xlink">
<g id="graph0" class="graph" transform="scale(1 1) rotate(0) translate(4 1225)">
<polygon fill="white" stroke="none" points="-4,4 -4,-1225 1522,-1225 1522,4 -4,4"/>
<!-- 511 -->
<g id="node1" class="node">
<title>511</title>
<ellipse fill="none" stroke="#b8bf62" cx="180.79" cy="-612.77" rx="154.5" ry="28.99"/>
<text text-anchor="middle" x="180.79" y="-615.97" font-family="Times,serif" font-size="14.00" fill="gray">SPDXLicense</text>
<text text-anchor="middle" x="180.79" y="-599.47" font-family="Times,serif" font-size="14.00" fill="gray">ddef689d2badd94efa3012f617c54fc9</text>
</g>
<!-- 512 -->
<g id="node2" class="node">
<title>512</title>
<polygon fill="none" stroke="black" points="633.57,-682.66 633.57,-697.57 568.89,-708.11 477.41,-708.11 412.72,-697.57 412.72,-682.66 477.41,-672.11 568.89,-672.11 633.57,-682.66"/>
<polygon fill="none" stroke="black" points="637.57,-679.26 637.57,-700.97 569.21,-712.11 477.08,-712.11 408.72,-700.97 408.72,-679.26 477.08,-668.11 569.21,-668.11 637.57,-679.26"/>
<polygon fill="none" stroke="black" points="641.57,-675.86 641.57,-704.37 569.53,-716.11 476.76,-716.11 404.72,-704.37 404.72,-675.86 476.76,-664.11 569.53,-664.11 641.57,-675.86"/>
<text text-anchor="middle" x="523.15" y="-685.06" font-family="Times,serif" font-size="14.00">spdx:BSD&#45;3&#45;Clause&#45;flex</text>
</g>
<!-- 511&#45;&gt;512 -->
<g id="edge1" class="edge">
<title>511&#45;&gt;512</title>
<path fill="none" stroke="#b8bf62" d="M243.14,-639.69C281.58,-654.45 315.54,-661.72 396.98,-673.22"/>
<polygon fill="#b8bf62" stroke="#b8bf62" points="396.36,-676.67 406.75,-674.59 397.33,-669.73 396.36,-676.67"/>
</g>
<!-- 5976 -->
<g id="node7" class="node">
<title>5976</title>
<polygon fill="none" stroke="#e09d4b" points="516.6,-335.6 516.6,-350.51 446.72,-361.06 347.9,-361.06 278.02,-350.51 278.02,-335.6 347.9,-325.06 446.72,-325.06 516.6,-335.6"/>
<polygon fill="none" stroke="#e09d4b" points="520.6,-332.16 520.6,-353.95 447.02,-365.06 347.6,-365.06 274.02,-353.95 274.02,-332.16 347.6,-321.06 447.02,-321.06 520.6,-332.16"/>
<text text-anchor="middle" x="397.31" y="-338.01" font-family="Times,serif" font-size="14.00">Fedora:BSD&#45;3&#45;Clause&#45;flex</text>
</g>
<!-- 512&#45;&gt;5976 -->
<g id="edge2" class="edge">
<title>512&#45;&gt;5976</title>
<path fill="none" stroke="#e09d4b" stroke-width="2" d="M505.26,-663.85C399.43,-508.25 390.89,-489.61 395.73,-376.43"/>
<polygon fill="#e09d4b" stroke="#e09d4b" stroke-width="2" points="396.11,-367.98 400.15,-378.17 396.49,-370.56 396.16,-377.99 395.66,-377.97 395.16,-377.95 395.49,-370.52 391.16,-377.77 396.11,-367.98"/>
</g>
<!-- 39558 -->
<g id="node13" class="node">
<title>39558</title>
<polygon fill="none" stroke="#00876c" points="1124.08,-760.29 1124.08,-775.2 1020.78,-785.75 874.68,-785.75 771.38,-775.2 771.38,-760.29 874.68,-749.75 1020.78,-749.75 1124.08,-760.29"/>
<polygon fill="none" stroke="#00876c" points="1128.08,-756.68 1128.08,-778.81 1020.98,-789.75 874.48,-789.75 767.38,-778.81 767.38,-756.68 874.48,-745.75 1020.98,-745.75 1128.08,-756.68"/>
<text text-anchor="middle" x="947.73" y="-762.7" font-family="Times,serif" font-size="14.00">metaeffekt:BSD 3&#45;Clause License (Flex)</text>
</g>
<!-- 512&#45;&gt;39558 -->
<g id="edge3" class="edge">
<title>512&#45;&gt;39558</title>
<path fill="none" stroke="#00876c" stroke-width="2" d="M565.09,-716.52C686.67,-792.52 722.86,-806.84 835.11,-789.01"/>
<polygon fill="#00876c" stroke="#00876c" stroke-width="2" points="843.45,-787.64 834.31,-793.7 841,-788.55 833.66,-789.76 833.58,-789.26 833.5,-788.77 840.84,-787.56 832.85,-784.82 843.45,-787.64"/>
</g>
<!-- 513 -->
<g id="node3" class="node">
<title>513</title>
<polygon fill="none" stroke="black" points="768.34,-459.2 768.34,-474.11 716.31,-484.66 642.73,-484.66 590.7,-474.11 590.7,-459.2 642.73,-448.66 716.31,-448.66 768.34,-459.2"/>
<polygon fill="none" stroke="black" points="772.34,-455.93 772.34,-477.38 716.71,-488.66 642.33,-488.66 586.7,-477.38 586.7,-455.93 642.33,-444.66 716.71,-444.66 772.34,-455.93"/>
<text text-anchor="middle" x="679.52" y="-461.61" font-family="Times,serif" font-size="14.00">BSD&#45;3&#45;Clause&#45;flex</text>
</g>
<!-- 513&#45;&gt;512 -->
<g id="edge4" class="edge">
<title>513&#45;&gt;512</title>
<path fill="none" stroke="black" stroke-width="2" d="M650.35,-489.06C560.2,-558.65 547.83,-574.08 530.73,-653.27"/>
<polygon fill="black" stroke="black" stroke-width="2" points="529.01,-661.4 526.68,-650.69 529.05,-658.79 530.59,-651.52 531.08,-651.62 531.57,-651.72 530.03,-659 535.49,-652.55 529.01,-661.4"/>
</g>
<!-- 513&#45;&gt;5976 -->
<g id="edge5" class="edge">
<title>513&#45;&gt;5976</title>
<path fill="none" stroke="#e09d4b" stroke-width="2" d="M640.09,-444.69C556.14,-397.97 517.84,-377.43 484,-365.02"/>
<polygon fill="#e09d4b" stroke="#e09d4b" stroke-width="2" points="475.89,-362.21 486.82,-361.23 478.48,-362.57 485.5,-365.01 485.34,-365.49 485.18,-365.96 478.15,-363.52 483.87,-369.74 475.89,-362.21"/>
</g>
<!-- 36575 -->
<g id="node11" class="node">
<title>36575</title>
<polygon fill="none" stroke="#379469" points="999.47,-580.31 999.47,-595.23 934.46,-605.77 842.52,-605.77 777.51,-595.23 777.51,-580.31 842.52,-569.77 934.46,-569.77 999.47,-580.31"/>
<polygon fill="none" stroke="#379469" points="1003.47,-576.91 1003.47,-598.63 934.78,-609.77 842.2,-609.77 773.51,-598.63 773.51,-576.91 842.2,-565.77 934.78,-565.77 1003.47,-576.91"/>
<text text-anchor="middle" x="888.49" y="-582.72" font-family="Times,serif" font-size="14.00">cavil:BSD&#45;3&#45;Clause&#45;flex</text>
</g>
<!-- 513&#45;&gt;36575 -->
<g id="edge6" class="edge">
<title>513&#45;&gt;36575</title>
<path fill="none" stroke="#379469" stroke-width="2" d="M762.95,-479.77C800.16,-489.81 819.92,-507.87 862.56,-557.34"/>
<polygon fill="#379469" stroke="#379469" stroke-width="2" points="868.02,-563.7 858.09,-559.04 865.97,-562.08 861.12,-556.44 861.5,-556.11 861.88,-555.79 866.73,-561.43 864.92,-553.18 868.02,-563.7"/>
</g>
<!-- 513&#45;&gt;39558 -->
<g id="edge7" class="edge">
<title>513&#45;&gt;39558</title>
<path fill="none" stroke="#00876c" stroke-dasharray="5,2" d="M709.39,-489.04C877.57,-615.18 894.46,-631.72 935.13,-735.19"/>
<polygon fill="#00876c" stroke="#00876c" points="938.71,-744.34 930.88,-736.66 937.33,-740.82 935.07,-735.02 935.07,-735.02 935.07,-735.02 937.33,-740.82 939.26,-733.39 938.71,-744.34"/>
</g>
<!-- 514 -->
<g id="node4" class="node">
<title>514</title>
<polygon fill="none" stroke="black" points="673.4,-741.14 673.4,-756.05 602.88,-766.59 503.14,-766.59 432.61,-756.05 432.61,-741.14 503.14,-730.59 602.88,-730.59 673.4,-741.14"/>
<polygon fill="none" stroke="black" points="677.4,-737.69 677.4,-759.49 603.17,-770.59 502.84,-770.59 428.61,-759.49 428.61,-737.69 502.84,-726.59 603.17,-726.59 677.4,-737.69"/>
<text text-anchor="middle" x="553.01" y="-743.54" font-family="Times,serif" font-size="14.00">BSD 3&#45;Clause Flex variant</text>
</g>
<!-- 514&#45;&gt;512 -->
<g id="edge8" class="edge">
<title>514&#45;&gt;512</title>
<path fill="none" stroke="#b8bf62" stroke-width="2" d="M530.79,-726.39C530.72,-726.3 530.66,-726.2 530.6,-726.1"/>
<polygon fill="#b8bf62" stroke="#b8bf62" stroke-width="2" points="527.41,-718.4 535.4,-725.92 528.85,-720.58 531.7,-727.45 531.24,-727.64 530.78,-727.83 527.93,-720.96 527.08,-729.36 527.41,-718.4"/>
</g>
<!-- 514&#45;&gt;39558 -->
<g id="edge9" class="edge">
<title>514&#45;&gt;39558</title>
<path fill="none" stroke="#00876c" stroke-dasharray="5,2" d="M601.99,-770.95C724.06,-825.92 755.68,-830.67 870.9,-793.63"/>
<polygon fill="#00876c" stroke="#00876c" points="880.41,-790.54 872.29,-797.92 876.81,-791.71 870.9,-793.64 870.9,-793.64 870.9,-793.64 876.81,-791.71 869.5,-789.36 880.41,-790.54"/>
</g>
<!-- 5935 -->
<g id="node5" class="node">
<title>5935</title>
<polygon fill="none" stroke="black" points="1020.3,-813.8 1020.3,-828.71 1002.02,-839.26 976.17,-839.26 957.89,-828.71 957.89,-813.8 976.17,-803.26 1002.02,-803.26 1020.3,-813.8"/>
<text text-anchor="middle" x="989.1" y="-816.21" font-family="Times,serif" font-size="14.00">BSD</text>
</g>
<!-- 5935&#45;&gt;39558 -->
<g id="edge10" class="edge">
<title>5935&#45;&gt;39558</title>
<path fill="none" stroke="#00876c" stroke-dasharray="5,2" d="M977.43,-803.02C976.37,-801.62 975.22,-800.13 973.91,-798.5"/>
<polygon fill="#00876c" stroke="#00876c" points="967.74,-791.05 977.58,-795.88 970.15,-793.96 974.11,-798.75 974.11,-798.75 974.11,-798.75 970.15,-793.96 970.65,-801.62 967.74,-791.05"/>
</g>
<!-- 5975 -->
<g id="node6" class="node">
<title>5975</title>
<ellipse fill="none" stroke="#e09d4b" cx="154.06" cy="-28.54" rx="153.97" ry="28.99"/>
<text text-anchor="middle" x="154.06" y="-31.74" font-family="Times,serif" font-size="14.00" fill="gray">FedoraEntry</text>
<text text-anchor="middle" x="154.06" y="-15.24" font-family="Times,serif" font-size="14.00" fill="gray">0ee53eac5dff16c4f70a67360d4f75b5</text>
</g>
<!-- 5975&#45;&gt;5976 -->
<g id="edge11" class="edge">
<title>5975&#45;&gt;5976</title>
<path fill="none" stroke="#e09d4b" d="M171.41,-57.8C215.17,-131.01 232.51,-152.38 370.49,-312.03"/>
<polygon fill="#e09d4b" stroke="#e09d4b" points="367.83,-314.31 377.02,-319.58 373.13,-309.73 367.83,-314.31"/>
</g>
<!-- 15537 -->
<g id="node8" class="node">
<title>15537</title>
<polygon fill="none" stroke="black" points="1412.77,-683.28 1412.77,-698.19 1364.31,-708.74 1295.78,-708.74 1247.32,-698.19 1247.32,-683.28 1295.78,-672.74 1364.31,-672.74 1412.77,-683.28"/>
<text text-anchor="middle" x="1330.05" y="-685.69" font-family="Times,serif" font-size="14.00">scancode:flex&#45;2.5</text>
</g>
<!-- 15537&#45;&gt;39558 -->
<g id="edge12" class="edge">
<title>15537&#45;&gt;39558</title>
<path fill="none" stroke="#00876c" stroke-dasharray="5,2" d="M1295.16,-709.04C1241.45,-736.6 1211.26,-747.36 1136.81,-754.96"/>
<polygon fill="#00876c" stroke="#00876c" points="1127.22,-755.89 1136.73,-750.44 1130.98,-755.53 1137.17,-754.92 1137.17,-754.92 1137.17,-754.92 1130.98,-755.53 1137.61,-759.4 1127.22,-755.89"/>
</g>
<!-- 28632 -->
<g id="node9" class="node">
<title>28632</title>
<ellipse fill="none" stroke="#dc574a" cx="212.45" cy="-948.41" rx="158.75" ry="28.99"/>
<text text-anchor="middle" x="212.45" y="-951.61" font-family="Times,serif" font-size="14.00" fill="gray">OrtLicenseCategorization</text>
<text text-anchor="middle" x="212.45" y="-935.11" font-family="Times,serif" font-size="14.00" fill="gray">6979b3cc1aa94e2f18891c58a4bd7058</text>
</g>
<!-- 28632&#45;&gt;512 -->
<g id="edge13" class="edge">
<title>28632&#45;&gt;512</title>
<path fill="none" stroke="#dc574a" d="M239.04,-919.72C294.75,-860.21 319.05,-840.8 478.21,-723.27"/>
<polygon fill="#dc574a" stroke="#dc574a" points="480.2,-726.15 486.17,-717.4 476.04,-720.52 480.2,-726.15"/>
</g>
<!-- 36574 -->
<g id="node10" class="node">
<title>36574</title>
<ellipse fill="none" stroke="#379469" cx="972.01" cy="-525.08" rx="156.09" ry="28.99"/>
<text text-anchor="middle" x="972.01" y="-528.28" font-family="Times,serif" font-size="14.00" fill="gray">CavilLicenseChange</text>
<text text-anchor="middle" x="972.01" y="-511.78" font-family="Times,serif" font-size="14.00" fill="gray">b44a0f885cf134d2285fa27c22d1ca75</text>
</g>
<!-- 36574&#45;&gt;36575 -->
<g id="edge14" class="edge">
<title>36574&#45;&gt;36575</title>
<path fill="none" stroke="#379469" d="M942.11,-553.96C939.84,-555.58 937.33,-557.3 934.51,-559.17"/>
<polygon fill="#379469" stroke="#379469" points="932.8,-556.11 926.29,-564.47 936.59,-561.99 932.8,-556.11"/>
</g>
<!-- 39557 -->
<g id="node12" class="node">
<title>39557</title>
<ellipse fill="none" stroke="#00876c" cx="1359.47" cy="-1009.69" rx="158.22" ry="28.99"/>
<text text-anchor="middle" x="1359.47" y="-1012.89" font-family="Times,serif" font-size="14.00" fill="gray">MetaeffektLicense</text>
<text text-anchor="middle" x="1359.47" y="-996.39" font-family="Times,serif" font-size="14.00" fill="gray">62774ac7a52e6e0b96687b6c52a7f9c2</text>
</g>
<!-- 39557&#45;&gt;39558 -->
<g id="edge15" class="edge">
<title>39557&#45;&gt;39558</title>
<path fill="none" stroke="#00876c" d="M1305.92,-981.94C1229.81,-942.07 1191.29,-918.7 993.33,-796.01"/>
<polygon fill="#00876c" stroke="#00876c" points="995.41,-793.18 985.07,-790.89 991.72,-799.13 995.41,-793.18"/>
</g>
<!-- 39559 -->
<g id="node14" class="node">
<title>39559</title>
<polygon fill="none" stroke="#00876c" points="1192.44,-1191.72 1192.44,-1206.63 1116.07,-1217.17 1008.07,-1217.17 931.7,-1206.63 931.7,-1191.72 1008.07,-1181.17 1116.07,-1181.17 1192.44,-1191.72"/>
<polygon fill="none" stroke="#00876c" points="1196.44,-1188.23 1196.44,-1210.12 1116.35,-1221.17 1007.8,-1221.17 927.7,-1210.12 927.7,-1188.23 1007.8,-1177.17 1116.35,-1177.17 1196.44,-1188.23"/>
<text text-anchor="middle" x="1062.07" y="-1194.12" font-family="Times,serif" font-size="14.00">BSD 3&#45;Clause License (Flex)</text>
</g>
<!-- 39559&#45;&gt;39558 -->
<g id="edge16" class="edge">
<title>39559&#45;&gt;39558</title>
<path fill="none" stroke="#00876c" stroke-width="2" d="M1060.79,-1176.84C1054,-1062.01 1048.58,-1043.26 959.64,-800.27"/>
<polygon fill="#00876c" stroke="#00876c" stroke-width="2" points="956.73,-792.32 964.4,-800.17 958.08,-794.56 960.64,-801.54 960.17,-801.72 959.7,-801.89 957.14,-794.9 955.94,-803.26 956.73,-792.32"/>
</g>
</g>
</svg>
