<?xml version="1.0" encoding="UTF-8" standalone="no"?>
<!DOCTYPE svg PUBLIC "-//W3C//DTD SVG 1.1//EN"
 "http://www.w3.org/Graphics/SVG/1.1/DTD/svg11.dtd">
<!-- Generated by graphviz version 10.0.1 (0)
 -->
<!-- Pages: 1 -->
<svg width="3895pt" height="2533pt"
 viewBox="0.00 0.00 3895.00 2533.00" xmlns="http://www.w3.org/2000/svg" xmlns:xlink="http://www.w3.org/1999/xlink">
<g id="graph0" class="graph" transform="scale(1 1) rotate(0) translate(4 2529)">
<polygon fill="white" stroke="none" points="-4,4 -4,-2529 3891,-2529 3891,4 -4,4"/>
<!-- 5 -->
<g id="node1" class="node">
<title>5</title>
<text text-anchor="start" x="2291.66" y="-356.36" font-family="Times,serif" font-size="14.00">OSI: </text>
<text text-anchor="start" x="2320.91" y="-356.36" font-family="Times,serif" font-weight="bold" font-size="14.00" fill="#8b0000">Rejected</text>
</g>
<!-- 713 -->
<g id="node2" class="node">
<title>713</title>
<ellipse fill="none" stroke="#dac767" cx="2162.7" cy="-711.13" rx="161.93" ry="28.99"/>
<text text-anchor="middle" x="2162.7" y="-714.33" font-family="Times,serif" font-size="14.00" fill="gray">SPDXLicense</text>
<text text-anchor="middle" x="2162.7" y="-697.83" font-family="Times,serif" font-size="14.00" fill="gray">bdb03c723a7688e2742b591db7a3431d</text>
</g>
<!-- 5&#45;&gt;713 -->
<g id="edge1" class="edge">
<title>5&#45;&gt;713</title>
<path fill="none" stroke="#dac767" d="M2322.1,-378.16C2279.38,-459.63 2271.06,-476.95 2181.06,-671.44"/>
<polygon fill="#dac767" stroke="#dac767" points="2177.95,-669.83 2176.92,-680.38 2184.3,-672.77 2177.95,-669.83"/>
</g>
<!-- 714 -->
<g id="node3" class="node">
<title>714</title>
<polygon fill="none" stroke="black" points="2299.35,-1379.14 2299.35,-1394.05 2255.43,-1404.6 2193.32,-1404.6 2149.4,-1394.05 2149.4,-1379.14 2193.32,-1368.6 2255.43,-1368.6 2299.35,-1379.14"/>
<polygon fill="none" stroke="black" points="2303.35,-1375.99 2303.35,-1397.2 2255.9,-1408.6 2192.85,-1408.6 2145.4,-1397.2 2145.4,-1375.99 2192.85,-1364.6 2255.9,-1364.6 2303.35,-1375.99"/>
<polygon fill="none" stroke="black" points="2307.35,-1372.83 2307.35,-1400.36 2256.38,-1412.6 2192.37,-1412.6 2141.4,-1400.36 2141.4,-1372.83 2192.37,-1360.6 2256.38,-1360.6 2307.35,-1372.83"/>
<text text-anchor="middle" x="2224.38" y="-1381.55" font-family="Times,serif" font-size="14.00">spdx:BUSL&#45;1.1</text>
</g>
<!-- 713&#45;&gt;714 -->
<g id="edge2" class="edge">
<title>713&#45;&gt;714</title>
<path fill="none" stroke="#dac767" d="M2178.33,-740.29C2292.83,-954.47 2293.8,-976.75 2230.74,-1349.1"/>
<polygon fill="#dac767" stroke="#dac767" points="2227.32,-1348.29 2229.1,-1358.73 2234.23,-1349.46 2227.32,-1348.29"/>
</g>
<!-- 6828 -->
<g id="node13" class="node">
<title>6828</title>
<polygon fill="none" stroke="#e09d4b" points="1783.18,-1337.2 1783.18,-1352.11 1734.07,-1362.66 1664.62,-1362.66 1615.51,-1352.11 1615.51,-1337.2 1664.62,-1326.66 1734.07,-1326.66 1783.18,-1337.2"/>
<polygon fill="none" stroke="#e09d4b" points="1787.18,-1333.97 1787.18,-1355.34 1734.5,-1366.66 1664.2,-1366.66 1611.51,-1355.34 1611.51,-1333.97 1664.2,-1322.66 1734.5,-1322.66 1787.18,-1333.97"/>
<text text-anchor="middle" x="1699.35" y="-1339.61" font-family="Times,serif" font-size="14.00">Fedora:BUSL&#45;1.1</text>
</g>
<!-- 714&#45;&gt;6828 -->
<g id="edge3" class="edge">
<title>714&#45;&gt;6828</title>
<path fill="none" stroke="#e09d4b" stroke-width="2" d="M2165.33,-1406.47C1992.68,-1463.57 1960.12,-1459.5 1754.98,-1369.27"/>
<polygon fill="#e09d4b" stroke="#e09d4b" stroke-width="2" points="1746.99,-1365.75 1757.95,-1365.67 1749.53,-1366.33 1756.34,-1369.33 1756.14,-1369.78 1755.94,-1370.24 1749.13,-1367.24 1754.32,-1373.9 1746.99,-1365.75"/>
</g>
<!-- 14579 -->
<g id="node18" class="node">
<title>14579</title>
<polygon fill="none" stroke="black" points="2596.94,-1596.88 2596.94,-1611.79 2550.75,-1622.33 2485.43,-1622.33 2439.24,-1611.79 2439.24,-1596.88 2485.43,-1586.33 2550.75,-1586.33 2596.94,-1596.88"/>
<polygon fill="none" stroke="black" points="2600.94,-1593.69 2600.94,-1614.98 2551.2,-1626.33 2484.98,-1626.33 2435.24,-1614.98 2435.24,-1593.69 2484.98,-1582.33 2551.2,-1582.33 2600.94,-1593.69"/>
<text text-anchor="middle" x="2518.09" y="-1599.28" font-family="Times,serif" font-size="14.00">scancode:bsl&#45;1.1</text>
</g>
<!-- 714&#45;&gt;14579 -->
<g id="edge4" class="edge">
<title>714&#45;&gt;14579</title>
<path fill="none" stroke="#deb256" stroke-width="2" d="M2252.67,-1412.97C2303.56,-1454.43 2410.77,-1534.16 2472.25,-1576.49"/>
<polygon fill="#deb256" stroke="#deb256" stroke-width="2" points="2479.33,-1581.33 2468.53,-1579.41 2476.93,-1580.3 2470.79,-1576.1 2471.07,-1575.69 2471.35,-1575.28 2477.49,-1579.47 2473.61,-1571.98 2479.33,-1581.33"/>
</g>
<!-- 44246 -->
<g id="node37" class="node">
<title>44246</title>
<polygon fill="none" stroke="#379469" points="2534.3,-1944.77 2534.3,-1959.68 2452.09,-1970.22 2335.83,-1970.22 2253.62,-1959.68 2253.62,-1944.77 2335.83,-1934.22 2452.09,-1934.22 2534.3,-1944.77"/>
<polygon fill="none" stroke="#379469" points="2538.3,-1941.25 2538.3,-1963.2 2452.35,-1974.22 2335.58,-1974.22 2249.62,-1963.2 2249.62,-1941.25 2335.58,-1930.22 2452.35,-1930.22 2538.3,-1941.25"/>
<text text-anchor="middle" x="2393.96" y="-1947.17" font-family="Times,serif" font-size="14.00">metaeffekt:Business&#45;Source&#45;1.1</text>
</g>
<!-- 714&#45;&gt;44246 -->
<g id="edge5" class="edge">
<title>714&#45;&gt;44246</title>
<path fill="none" stroke="#379469" stroke-width="2" d="M2236.08,-1413.09C2378.67,-1735.99 2387.65,-1760.13 2392.93,-1918.82"/>
<polygon fill="#379469" stroke="#379469" stroke-width="2" points="2393.21,-1927.54 2388.39,-1917.69 2392.62,-1924.99 2392.38,-1917.56 2392.88,-1917.54 2393.38,-1917.53 2393.62,-1924.96 2397.38,-1917.4 2393.21,-1927.54"/>
</g>
<!-- 715 -->
<g id="node4" class="node">
<title>715</title>
<polygon fill="none" stroke="black" points="1884.38,-1575.82 1884.38,-1590.73 1853.12,-1601.27 1808.91,-1601.27 1777.64,-1590.73 1777.64,-1575.82 1808.91,-1565.27 1853.12,-1565.27 1884.38,-1575.82"/>
<polygon fill="none" stroke="black" points="1888.38,-1572.94 1888.38,-1593.6 1853.77,-1605.27 1808.25,-1605.27 1773.64,-1593.6 1773.64,-1572.94 1808.25,-1561.27 1853.77,-1561.27 1888.38,-1572.94"/>
<text text-anchor="middle" x="1831.01" y="-1578.22" font-family="Times,serif" font-size="14.00">BUSL&#45;1.1</text>
</g>
<!-- 715&#45;&gt;714 -->
<g id="edge6" class="edge">
<title>715&#45;&gt;714</title>
<path fill="none" stroke="black" stroke-width="2" d="M1888.85,-1579.06C2047.39,-1566.65 2071.21,-1552.71 2192.73,-1421.04"/>
<polygon fill="black" stroke="black" stroke-width="2" points="2198.46,-1414.82 2194.99,-1425.23 2197.09,-1417.05 2192.05,-1422.52 2191.69,-1422.18 2191.32,-1421.84 2196.36,-1416.37 2188.38,-1419.13 2198.46,-1414.82"/>
</g>
<!-- 715&#45;&gt;6828 -->
<g id="edge7" class="edge">
<title>715&#45;&gt;6828</title>
<path fill="none" stroke="#e09d4b" stroke-width="2" d="M1803.93,-1562.3C1734.96,-1508.11 1727.07,-1491.77 1705.53,-1377.8"/>
<polygon fill="#e09d4b" stroke="#e09d4b" stroke-width="2" points="1703.92,-1369.23 1710.19,-1378.23 1704.89,-1371.66 1706.26,-1378.97 1705.77,-1379.06 1705.28,-1379.15 1703.9,-1371.84 1701.34,-1379.89 1703.92,-1369.23"/>
</g>
<!-- 41215 -->
<g id="node35" class="node">
<title>41215</title>
<polygon fill="none" stroke="#379469" points="1544.6,-1691.25 1544.6,-1706.16 1500.35,-1716.71 1437.79,-1716.71 1393.54,-1706.16 1393.54,-1691.25 1437.79,-1680.71 1500.35,-1680.71 1544.6,-1691.25"/>
<polygon fill="none" stroke="#379469" points="1548.6,-1688.09 1548.6,-1709.32 1500.82,-1720.71 1437.32,-1720.71 1389.54,-1709.32 1389.54,-1688.09 1437.32,-1676.71 1500.82,-1676.71 1548.6,-1688.09"/>
<text text-anchor="middle" x="1469.07" y="-1693.66" font-family="Times,serif" font-size="14.00">cavil:BUSL&#45;1.1</text>
</g>
<!-- 715&#45;&gt;41215 -->
<g id="edge8" class="edge">
<title>715&#45;&gt;41215</title>
<path fill="none" stroke="#379469" stroke-width="2" d="M1795.66,-1601.56C1661.11,-1671.06 1617.17,-1691.94 1559.57,-1697.46"/>
<polygon fill="#379469" stroke="#379469" stroke-width="2" points="1551.06,-1698.13 1560.68,-1692.86 1553.58,-1697.43 1560.99,-1696.85 1561.03,-1697.35 1561.07,-1697.85 1553.66,-1698.43 1561.39,-1701.83 1551.06,-1698.13"/>
</g>
<!-- 59762 -->
<g id="node43" class="node">
<title>59762</title>
<polygon fill="none" stroke="#b8bf62" points="2195.04,-2011.78 2195.04,-2026.69 2091.41,-2037.23 1944.86,-2037.23 1841.23,-2026.69 1841.23,-2011.78 1944.86,-2001.23 2091.41,-2001.23 2195.04,-2011.78"/>
<polygon fill="none" stroke="#b8bf62" points="2199.04,-2008.17 2199.04,-2030.3 2091.61,-2041.23 1944.65,-2041.23 1837.23,-2030.3 1837.23,-2008.17 1944.65,-1997.23 2091.61,-1997.23 2199.04,-2008.17"/>
<text text-anchor="middle" x="2018.13" y="-2014.18" font-family="Times,serif" font-size="14.00">foss&#45;license:Business Source License 1.1</text>
</g>
<!-- 715&#45;&gt;59762 -->
<g id="edge9" class="edge">
<title>715&#45;&gt;59762</title>
<path fill="none" stroke="#b8bf62" stroke-width="2" d="M1837.46,-1605.63C1913.44,-1868.92 1922.46,-1896.01 1993.84,-1988.21"/>
<polygon fill="#b8bf62" stroke="#b8bf62" stroke-width="2" points="1999.22,-1995.12 1989.53,-1989.99 1997.25,-1993.4 1992.68,-1987.53 1993.08,-1987.23 1993.47,-1986.92 1998.04,-1992.79 1996.63,-1984.46 1999.22,-1995.12"/>
</g>
<!-- 716 -->
<g id="node5" class="node">
<title>716</title>
<polygon fill="none" stroke="black" points="2249.09,-1548.15 2249.09,-1563.06 2174.67,-1573.61 2069.42,-1573.61 1995,-1563.06 1995,-1548.15 2069.42,-1537.61 2174.67,-1537.61 2249.09,-1548.15"/>
<polygon fill="none" stroke="black" points="2253.09,-1544.68 2253.09,-1566.53 2174.95,-1577.61 2069.14,-1577.61 1991,-1566.53 1991,-1544.68 2069.14,-1533.61 2174.95,-1533.61 2253.09,-1544.68"/>
<text text-anchor="middle" x="2122.04" y="-1550.56" font-family="Times,serif" font-size="14.00">Business Source License 1.1</text>
</g>
<!-- 716&#45;&gt;714 -->
<g id="edge10" class="edge">
<title>716&#45;&gt;714</title>
<path fill="none" stroke="#dac767" stroke-width="2" d="M2152.53,-1533.34C2195.42,-1500.95 2203.8,-1486.07 2216.87,-1423.92"/>
<polygon fill="#dac767" stroke="#dac767" stroke-width="2" points="2218.61,-1415.47 2221,-1426.18 2218.58,-1418.08 2217.08,-1425.37 2216.59,-1425.27 2216.1,-1425.17 2217.6,-1417.88 2212.18,-1424.36 2218.61,-1415.47"/>
</g>
<!-- 716&#45;&gt;14579 -->
<g id="edge11" class="edge">
<title>716&#45;&gt;14579</title>
<path fill="none" stroke="#deb256" stroke-width="2" d="M2191.2,-1575.78C2328.42,-1615.52 2373.4,-1625.5 2433.54,-1618.94"/>
<polygon fill="#deb256" stroke="#deb256" stroke-width="2" points="2442.14,-1617.89 2432.76,-1623.57 2439.66,-1618.7 2432.27,-1619.6 2432.21,-1619.11 2432.15,-1618.61 2439.53,-1617.7 2431.66,-1614.64 2442.14,-1617.89"/>
</g>
<!-- 716&#45;&gt;44246 -->
<g id="edge12" class="edge">
<title>716&#45;&gt;44246</title>
<path fill="none" stroke="#379469" stroke-dasharray="5,2" d="M2137.03,-1577.9C2292.58,-1809.24 2309.98,-1834.95 2371.51,-1920.89"/>
<polygon fill="#379469" stroke="#379469" points="2377.3,-1928.98 2367.82,-1923.47 2375.1,-1925.9 2371.48,-1920.85 2371.48,-1920.85 2371.48,-1920.85 2375.1,-1925.9 2375.13,-1918.23 2377.3,-1928.98"/>
</g>
<!-- 44248 -->
<g id="node39" class="node">
<title>44248</title>
<polygon fill="none" stroke="#379469" points="2086.3,-1958.52 2086.3,-1973.43 1984.95,-1983.97 1841.61,-1983.97 1740.25,-1973.43 1740.25,-1958.52 1841.61,-1947.97 1984.95,-1947.97 2086.3,-1958.52"/>
<polygon fill="none" stroke="#379469" points="2090.3,-1954.91 2090.3,-1977.04 1985.16,-1987.97 1841.4,-1987.97 1736.25,-1977.04 1736.25,-1954.91 1841.4,-1943.97 1985.16,-1943.97 2090.3,-1954.91"/>
<text text-anchor="middle" x="1913.28" y="-1960.92" font-family="Times,serif" font-size="14.00">metaeffekt:Business Source License 1.1</text>
</g>
<!-- 716&#45;&gt;44248 -->
<g id="edge13" class="edge">
<title>716&#45;&gt;44248</title>
<path fill="none" stroke="#379469" stroke-width="2" d="M2115.17,-1578.02C2039.41,-1824.97 2029.54,-1851.63 1944.15,-1935.92"/>
<polygon fill="#379469" stroke="#379469" stroke-width="2" points="1937.95,-1942.01 1941.93,-1931.79 1939.43,-1939.86 1944.74,-1934.65 1945.09,-1935 1945.44,-1935.36 1940.13,-1940.57 1948.24,-1938.21 1937.95,-1942.01"/>
</g>
<!-- 716&#45;&gt;59762 -->
<g id="edge14" class="edge">
<title>716&#45;&gt;59762</title>
<path fill="none" stroke="#b8bf62" stroke-width="2" d="M2120,-1577.87C2094.68,-1854.14 2091.1,-1880.35 2035.18,-1987.05"/>
<polygon fill="#b8bf62" stroke="#b8bf62" stroke-width="2" points="2031.11,-1994.78 2031.79,-1983.84 2031.86,-1992.28 2035.33,-1985.7 2035.77,-1985.94 2036.21,-1986.17 2032.75,-1992.75 2039.75,-1988.03 2031.11,-1994.78"/>
</g>
<!-- 65566 -->
<g id="node49" class="node">
<title>65566</title>
<polygon fill="none" stroke="#dc574a" points="1944.65,-1037.77 1944.65,-1052.68 1852.38,-1063.22 1721.89,-1063.22 1629.62,-1052.68 1629.62,-1037.77 1721.89,-1027.22 1852.38,-1027.22 1944.65,-1037.77"/>
<polygon fill="none" stroke="#dc574a" points="1948.65,-1034.2 1948.65,-1056.25 1852.61,-1067.22 1721.66,-1067.22 1625.62,-1056.25 1625.62,-1034.2 1721.66,-1023.22 1852.61,-1023.22 1948.65,-1034.2"/>
<text text-anchor="middle" x="1787.14" y="-1040.17" font-family="Times,serif" font-size="14.00">ifrOSS:Business Source License 1.1</text>
</g>
<!-- 716&#45;&gt;65566 -->
<g id="edge15" class="edge">
<title>716&#45;&gt;65566</title>
<path fill="none" stroke="#dc574a" stroke-width="2" d="M2100.63,-1533.39C1991.7,-1420.03 1978.2,-1397.83 1804.35,-1076.99"/>
<polygon fill="#dc574a" stroke="#dc574a" stroke-width="2" points="1800.32,-1069.55 1809.04,-1076.2 1801.98,-1071.57 1805.52,-1078.1 1805.08,-1078.34 1804.64,-1078.58 1801.1,-1072.04 1801.12,-1080.49 1800.32,-1069.55"/>
</g>
<!-- 66521 -->
<g id="node52" class="node">
<title>66521</title>
<polygon fill="none" stroke="#00876c" points="2393.92,-1600.2 2393.92,-1615.11 2306.84,-1625.65 2183.69,-1625.65 2096.62,-1615.11 2096.62,-1600.2 2183.69,-1589.65 2306.84,-1589.65 2393.92,-1600.2"/>
<polygon fill="none" stroke="#00876c" points="2397.92,-1596.65 2397.92,-1618.65 2307.08,-1629.65 2183.45,-1629.65 2092.62,-1618.65 2092.62,-1596.65 2183.45,-1585.65 2307.08,-1585.65 2397.92,-1596.65"/>
<text text-anchor="middle" x="2245.27" y="-1602.6" font-family="Times,serif" font-size="14.00">spdx:Business Source License 1.1</text>
</g>
<!-- 716&#45;&gt;66521 -->
<g id="edge16" class="edge">
<title>716&#45;&gt;66521</title>
<path fill="none" stroke="#00876c" stroke-width="2" d="M2158.98,-1577.98C2160.86,-1579.09 2162.67,-1580.16 2164.42,-1581.19"/>
<polygon fill="#00876c" stroke="#00876c" stroke-width="2" points="2171.65,-1585.35 2160.74,-1584.26 2169.18,-1584.5 2162.74,-1580.79 2162.98,-1580.36 2163.23,-1579.93 2169.68,-1583.63 2165.23,-1576.46 2171.65,-1585.35"/>
</g>
<!-- 717 -->
<g id="node6" class="node">
<title>717</title>
<text text-anchor="middle" x="1956.62" y="-157.49" font-family="Times,serif" font-size="14.00">SPDXLicense:</text>
<text text-anchor="middle" x="1956.62" y="-140.99" font-family="Times,serif" font-size="14.00">The Business Source License (this document, or the “License”) is not an Open</text>
<text text-anchor="middle" x="1956.62" y="-124.49" font-family="Times,serif" font-size="14.00">Source license. However, the Licensed Work will eventually be made available</text>
<text text-anchor="middle" x="1956.62" y="-107.99" font-family="Times,serif" font-size="14.00">under an Open Source License, as stated in this License. This is a paramaterized</text>
<text text-anchor="middle" x="1956.62" y="-91.49" font-family="Times,serif" font-size="14.00">license. The license parameters are: restrictions on usage, a change date, and</text>
<text text-anchor="middle" x="1956.62" y="-74.99" font-family="Times,serif" font-size="14.00">the open source license that will govern usage of the software after the change</text>
<text text-anchor="middle" x="1956.62" y="-58.49" font-family="Times,serif" font-size="14.00">date.</text>
</g>
<!-- 717&#45;&gt;713 -->
<g id="edge17" class="edge">
<title>717&#45;&gt;713</title>
<path fill="none" stroke="#dac767" d="M1998.62,-174.45C2075.3,-289.71 2087.35,-339.32 2154.57,-671"/>
<polygon fill="#dac767" stroke="#dac767" points="2151.06,-671.31 2156.48,-680.42 2157.92,-669.92 2151.06,-671.31"/>
</g>
<!-- 718 -->
<g id="node7" class="node">
<title>718</title>
<text text-anchor="middle" x="2188.16" y="-247.04" font-family="Times,serif" font-size="14.00">$TEXT</text>
</g>
<!-- 718&#45;&gt;713 -->
<g id="edge18" class="edge">
<title>718&#45;&gt;713</title>
<path fill="none" stroke="#dac767" d="M2189.85,-269.95C2200.99,-388.32 2200.02,-405.95 2167.65,-670.67"/>
<polygon fill="#dac767" stroke="#dac767" points="2164.21,-669.97 2166.47,-680.32 2171.16,-670.82 2164.21,-669.97"/>
</g>
<!-- 719 -->
<g id="node8" class="node">
<title>719</title>
<text text-anchor="middle" x="2210.18" y="-12.74" font-family="Times,serif" font-size="14.00">$TEXT</text>
</g>
<!-- 719&#45;&gt;718 -->
<g id="edge19" class="edge">
<title>719&#45;&gt;718</title>
<path fill="none" stroke="#dac767" d="M2210.01,-35.44C2209.45,-86.51 2207.89,-101.62 2192,-222.83"/>
<polygon fill="#dac767" stroke="#dac767" points="2188.55,-222.23 2190.72,-232.6 2195.49,-223.14 2188.55,-222.23"/>
</g>
<!-- 720 -->
<g id="node9" class="node">
<title>720</title>
<text text-anchor="middle" x="1838.73" y="-415.37" font-family="Times,serif" font-size="14.00">https://mariadb.com/bsl11/</text>
</g>
<!-- 720&#45;&gt;713 -->
<g id="edge20" class="edge">
<title>720&#45;&gt;713</title>
<path fill="none" stroke="#dac767" d="M1889.77,-438.36C2001.81,-479.04 2022.72,-501.91 2136.83,-672.39"/>
<polygon fill="#dac767" stroke="#dac767" points="2133.91,-674.33 2142.38,-680.69 2139.73,-670.44 2133.91,-674.33"/>
</g>
<!-- 65565 -->
<g id="node48" class="node">
<title>65565</title>
<ellipse fill="none" stroke="#dc574a" cx="1500.02" cy="-524.43" rx="153.97" ry="28.99"/>
<text text-anchor="middle" x="1500.02" y="-527.63" font-family="Times,serif" font-size="14.00" fill="gray">ifrOSS License</text>
<text text-anchor="middle" x="1500.02" y="-511.13" font-family="Times,serif" font-size="14.00" fill="gray">aa03e00926b7f79eec2f20ff73527a56</text>
</g>
<!-- 720&#45;&gt;65565 -->
<g id="edge21" class="edge">
<title>720&#45;&gt;65565</title>
<path fill="none" stroke="#dc574a" d="M1757.59,-414.71C1657.66,-409.52 1629.15,-421.11 1544.12,-488.77"/>
<polygon fill="#dc574a" stroke="#dc574a" points="1541.96,-486.02 1536.34,-495 1546.33,-491.49 1541.96,-486.02"/>
</g>
<!-- 6640 -->
<g id="node10" class="node">
<title>6640</title>
<text text-anchor="middle" x="637.03" y="-1274.76" font-family="Times,serif" font-size="14.00">[&quot;not&#45;allowed&quot;]</text>
</g>
<!-- 6827 -->
<g id="node12" class="node">
<title>6827</title>
<ellipse fill="none" stroke="#e09d4b" cx="1101.5" cy="-1273.16" rx="155.03" ry="28.99"/>
<text text-anchor="middle" x="1101.5" y="-1276.36" font-family="Times,serif" font-size="14.00" fill="gray">FedoraEntry</text>
<text text-anchor="middle" x="1101.5" y="-1259.86" font-family="Times,serif" font-size="14.00" fill="gray">59b9d2d4fe5afbbcaa5824ce90fdc030</text>
</g>
<!-- 6640&#45;&gt;6827 -->
<g id="edge22" class="edge">
<title>6640&#45;&gt;6827</title>
<path fill="none" stroke="#e09d4b" d="M687.55,-1279.04C759.33,-1277.96 798.77,-1277.39 935.18,-1275.48"/>
<polygon fill="#e09d4b" stroke="#e09d4b" points="935.02,-1278.98 944.97,-1275.34 934.92,-1271.98 935.02,-1278.98"/>
</g>
<!-- 6641 -->
<g id="node11" class="node">
<title>6641</title>
<text text-anchor="start" x="141.27" y="-1271.92" font-family="Times,serif" font-size="14.00">Fedora: </text>
<text text-anchor="start" x="186.27" y="-1271.92" font-family="Times,serif" font-weight="bold" font-size="14.00" fill="#8b0000">not&#45;allowed</text>
<text text-anchor="start" x="7.77" y="-1257.92" font-family="Times,serif" font-size="14.00">Any license that does not meet the criteria above for allowed licenses</text>
<text text-anchor="start" x="39.27" y="-1243.92" font-family="Times,serif" font-size="14.00">(including allowed for a specific category) is not&#45;allowed.</text>
</g>
<!-- 6641&#45;&gt;6640 -->
<g id="edge23" class="edge">
<title>6641&#45;&gt;6640</title>
<path fill="none" stroke="#e09d4b" d="M395.06,-1273.39C437.37,-1274.71 493.05,-1276.16 575.02,-1278.24"/>
<polygon fill="#e09d4b" stroke="#e09d4b" points="574.89,-1281.74 584.98,-1278.49 575.07,-1274.74 574.89,-1281.74"/>
</g>
<!-- 6827&#45;&gt;6828 -->
<g id="edge24" class="edge">
<title>6827&#45;&gt;6828</title>
<path fill="none" stroke="#e09d4b" d="M1195.7,-1296.62C1287.51,-1317.7 1352.49,-1323.34 1599.99,-1338.59"/>
<polygon fill="#e09d4b" stroke="#e09d4b" points="1599.44,-1342.06 1609.64,-1339.18 1599.87,-1335.07 1599.44,-1342.06"/>
</g>
<!-- 6829 -->
<g id="node14" class="node">
<title>6829</title>
<text text-anchor="middle" x="767.24" y="-1131.31" font-family="Times,serif" font-size="14.00">$TEXT</text>
</g>
<!-- 6829&#45;&gt;6827 -->
<g id="edge25" class="edge">
<title>6829&#45;&gt;6827</title>
<path fill="none" stroke="#e09d4b" d="M793.6,-1154.1C852.84,-1193.48 877.88,-1204.65 1008.8,-1244.94"/>
<polygon fill="#e09d4b" stroke="#e09d4b" points="1007.64,-1248.24 1018.23,-1247.83 1009.69,-1241.55 1007.64,-1248.24"/>
</g>
<!-- 13449 -->
<g id="node15" class="node">
<title>13449</title>
<text text-anchor="middle" x="3569.73" y="-1136.76" font-family="Times,serif" font-size="14.00">LicenseType Source&#45;available</text>
</g>
<!-- 14578 -->
<g id="node17" class="node">
<title>14578</title>
<ellipse fill="none" stroke="#deb256" cx="3210.13" cy="-1414.54" rx="154.5" ry="28.99"/>
<text text-anchor="middle" x="3210.13" y="-1417.74" font-family="Times,serif" font-size="14.00" fill="gray">ScancodeData</text>
<text text-anchor="middle" x="3210.13" y="-1401.24" font-family="Times,serif" font-size="14.00" fill="gray">87f208087a63f72e4f95fa375a50e43a</text>
</g>
<!-- 13449&#45;&gt;14578 -->
<g id="edge26" class="edge">
<title>13449&#45;&gt;14578</title>
<path fill="none" stroke="#deb256" d="M3558.18,-1159.51C3486.83,-1268.45 3470.74,-1283.21 3274.99,-1381.96"/>
<polygon fill="#deb256" stroke="#deb256" points="3273.63,-1378.73 3266.27,-1386.35 3276.78,-1384.98 3273.63,-1378.73"/>
</g>
<!-- 14576 -->
<g id="node16" class="node">
<title>14576</title>
<text text-anchor="middle" x="3745.52" y="-1438.72" font-family="Times,serif" font-size="14.00">https://mariadb.com/products/mariadb&#45;enterprise</text>
</g>
<!-- 14576&#45;&gt;14578 -->
<g id="edge27" class="edge">
<title>14576&#45;&gt;14578</title>
<path fill="none" stroke="#deb256" d="M3604.02,-1440.1C3550.79,-1437.85 3489.14,-1433.93 3366.73,-1425.46"/>
<polygon fill="#deb256" stroke="#deb256" points="3367.21,-1421.99 3356.99,-1424.79 3366.72,-1428.97 3367.21,-1421.99"/>
</g>
<!-- 14578&#45;&gt;14579 -->
<g id="edge28" class="edge">
<title>14578&#45;&gt;14579</title>
<path fill="none" stroke="#deb256" d="M3165.78,-1442.67C3012.4,-1539.08 2971.5,-1549.85 2612.61,-1593.04"/>
<polygon fill="#deb256" stroke="#deb256" points="2612.36,-1589.54 2602.85,-1594.21 2613.2,-1596.49 2612.36,-1589.54"/>
</g>
<!-- 14579&#45;&gt;714 -->
<g id="edge29" class="edge">
<title>14579&#45;&gt;714</title>
<path fill="none" stroke="#00876c" stroke-width="2" d="M2494.93,-1582.17C2447.44,-1542.93 2338.33,-1461.59 2274.1,-1417.11"/>
<polygon fill="#00876c" stroke="#00876c" stroke-width="2" points="2266.97,-1412.21 2277.76,-1414.17 2269.36,-1413.25 2275.49,-1417.46 2275.21,-1417.88 2274.92,-1418.29 2268.8,-1414.07 2272.66,-1421.58 2266.97,-1412.21"/>
</g>
<!-- 14579&#45;&gt;44246 -->
<g id="edge30" class="edge">
<title>14579&#45;&gt;44246</title>
<path fill="none" stroke="#379469" stroke-dasharray="5,2" d="M2517.09,-1626.76C2508.82,-1811.68 2504.95,-1832.32 2422.26,-1921.92"/>
<polygon fill="#379469" stroke="#379469" points="2415.66,-1929.05 2419.16,-1918.65 2418.23,-1926.27 2422.46,-1921.71 2422.46,-1921.71 2422.46,-1921.71 2418.23,-1926.27 2425.76,-1924.77 2415.66,-1929.05"/>
</g>
<!-- 14579&#45;&gt;59762 -->
<g id="edge31" class="edge">
<title>14579&#45;&gt;59762</title>
<path fill="none" stroke="#b8bf62" stroke-width="2" d="M2505.2,-1626.71C2351.2,-1893.93 2329.78,-1922.52 2102.31,-1993.53"/>
<polygon fill="#b8bf62" stroke="#b8bf62" stroke-width="2" points="2094,-1996.11 2102.22,-1988.85 2096.3,-1994.87 2103.41,-1992.67 2103.55,-1993.14 2103.7,-1993.62 2096.6,-1995.83 2104.89,-1997.44 2094,-1996.11"/>
</g>
<!-- 14580 -->
<g id="node19" class="node">
<title>14580</title>
<polygon fill="none" stroke="black" points="2736.02,-1381.08 2736.02,-1395.99 2712.87,-1406.54 2680.13,-1406.54 2656.98,-1395.99 2656.98,-1381.08 2680.13,-1370.54 2712.87,-1370.54 2736.02,-1381.08"/>
<polygon fill="none" stroke="black" points="2740.02,-1378.51 2740.02,-1398.57 2713.74,-1410.54 2679.27,-1410.54 2652.98,-1398.57 2652.98,-1378.51 2679.27,-1366.54 2713.74,-1366.54 2740.02,-1378.51"/>
<text text-anchor="middle" x="2696.5" y="-1383.49" font-family="Times,serif" font-size="14.00">bsl&#45;1.1</text>
</g>
<!-- 14580&#45;&gt;14579 -->
<g id="edge32" class="edge">
<title>14580&#45;&gt;14579</title>
<path fill="none" stroke="black" stroke-width="2" d="M2690.06,-1410.83C2663.36,-1502.34 2653.66,-1517.77 2562.41,-1576.3"/>
<polygon fill="black" stroke="black" stroke-width="2" points="2555.07,-1580.99 2561.08,-1571.81 2556.96,-1579.19 2563.23,-1575.19 2563.5,-1575.61 2563.77,-1576.03 2557.5,-1580.03 2565.92,-1579.4 2555.07,-1580.99"/>
</g>
<!-- 14581 -->
<g id="node20" class="node">
<title>14581</title>
<text text-anchor="middle" x="3608.74" y="-1582.07" font-family="Times,serif" font-size="14.00">https://mariadb.com/bsl11/</text>
</g>
<!-- 14581&#45;&gt;14578 -->
<g id="edge33" class="edge">
<title>14581&#45;&gt;14578</title>
<path fill="none" stroke="#deb256" d="M3580.59,-1569.24C3503.5,-1520.65 3476.16,-1508.44 3294.51,-1444.25"/>
<polygon fill="#deb256" stroke="#deb256" points="3295.78,-1440.99 3285.18,-1440.96 3293.44,-1447.59 3295.78,-1440.99"/>
</g>
<!-- 14582 -->
<g id="node21" class="node">
<title>14582</title>
<text text-anchor="middle" x="3679.93" y="-1250.02" font-family="Times,serif" font-size="14.00">https://mariadb.com/bsl&#45;faq&#45;adopting/</text>
</g>
<!-- 14582&#45;&gt;14578 -->
<g id="edge34" class="edge">
<title>14582&#45;&gt;14578</title>
<path fill="none" stroke="#deb256" d="M3651.06,-1272.99C3557.01,-1330.89 3526.67,-1342.71 3321.18,-1389.51"/>
<polygon fill="#deb256" stroke="#deb256" points="3320.44,-1386.09 3311.46,-1391.72 3321.99,-1392.92 3320.44,-1386.09"/>
</g>
<!-- 14583 -->
<g id="node22" class="node">
<title>14583</title>
<text text-anchor="middle" x="3452.9" y="-1033.95" font-family="Times,serif" font-size="14.00">https://www.hashicorp.com/bsl</text>
</g>
<!-- 14583&#45;&gt;14578 -->
<g id="edge35" class="edge">
<title>14583&#45;&gt;14578</title>
<path fill="none" stroke="#deb256" d="M3449.81,-1056.88C3422.75,-1212.79 3414.99,-1229.11 3250.56,-1378.03"/>
<polygon fill="#deb256" stroke="#deb256" points="3248.29,-1375.37 3243.22,-1384.67 3252.99,-1380.56 3248.29,-1375.37"/>
</g>
<!-- 14584 -->
<g id="node23" class="node">
<title>14584</title>
<text text-anchor="middle" x="3550.67" y="-1373.21" font-family="Times,serif" font-size="14.00">$TEXT</text>
</g>
<!-- 14584&#45;&gt;14578 -->
<g id="edge36" class="edge">
<title>14584&#45;&gt;14578</title>
<path fill="none" stroke="#deb256" d="M3522.37,-1385C3471.85,-1396.85 3445.25,-1401.32 3370.7,-1406.06"/>
<polygon fill="#deb256" stroke="#deb256" points="3370.62,-1402.56 3360.85,-1406.67 3371.05,-1409.55 3370.62,-1402.56"/>
</g>
<!-- 35433 -->
<g id="node24" class="node">
<title>35433</title>
<text text-anchor="middle" x="3129.36" y="-2202.65" font-family="Times,serif" font-size="14.00">LicenseTag (ScopedLicenseTag &quot;OrtLicenseCategorization&quot; &quot;include&#45;in&#45;notice&#45;file&quot; NoLicenseTagText)</text>
</g>
<!-- 35521 -->
<g id="node25" class="node">
<title>35521</title>
<ellipse fill="none" stroke="#d43d51" cx="2621.47" cy="-1733.42" rx="156.09" ry="28.99"/>
<text text-anchor="middle" x="2621.47" y="-1736.62" font-family="Times,serif" font-size="14.00" fill="gray">OrtLicenseCategorization</text>
<text text-anchor="middle" x="2621.47" y="-1720.12" font-family="Times,serif" font-size="14.00" fill="gray">7779b852d31ff2959618a95efba0aec8</text>
</g>
<!-- 35433&#45;&gt;35521 -->
<g id="edge37" class="edge">
<title>35433&#45;&gt;35521</title>
<path fill="none" stroke="#d43d51" d="M3112.81,-2190.02C2990.62,-2059.59 2972.79,-2042.97 2662.13,-1769.24"/>
<polygon fill="#d43d51" stroke="#d43d51" points="2664.75,-1766.88 2654.93,-1762.9 2660.12,-1772.14 2664.75,-1766.88"/>
</g>
<!-- 36322 -->
<g id="node27" class="node">
<title>36322</title>
<ellipse fill="none" stroke="#d43d51" cx="3299.33" cy="-2152.69" rx="157.68" ry="28.99"/>
<text text-anchor="middle" x="3299.33" y="-2155.89" font-family="Times,serif" font-size="14.00" fill="gray">OrtLicenseCategorization</text>
<text text-anchor="middle" x="3299.33" y="-2139.39" font-family="Times,serif" font-size="14.00" fill="gray">9b1f4371e94a2246c460ab7fe80a6557</text>
</g>
<!-- 35433&#45;&gt;36322 -->
<g id="edge38" class="edge">
<title>35433&#45;&gt;36322</title>
<path fill="none" stroke="#d43d51" d="M3250.54,-2189.87C3251.98,-2189.12 3253.4,-2188.34 3254.83,-2187.51"/>
<polygon fill="#d43d51" stroke="#d43d51" points="3256.52,-2190.59 3263.02,-2182.23 3252.72,-2184.71 3256.52,-2190.59"/>
</g>
<!-- 35521&#45;&gt;714 -->
<g id="edge39" class="edge">
<title>35521&#45;&gt;714</title>
<path fill="none" stroke="#d43d51" d="M2594.72,-1704.56C2514.94,-1618.84 2489.69,-1597.54 2266,-1419.68"/>
<polygon fill="#d43d51" stroke="#d43d51" points="2268.46,-1417.17 2258.46,-1413.68 2264.11,-1422.65 2268.46,-1417.17"/>
</g>
<!-- 35522 -->
<g id="node26" class="node">
<title>35522</title>
<text text-anchor="middle" x="2704.9" y="-1783.4" font-family="Times,serif" font-size="14.00">LicenseTag (ScopedLicenseTag &quot;OrtLicenseCategorization&quot; &quot;source&#45;available&quot; NoLicenseTagText)</text>
</g>
<!-- 35522&#45;&gt;35521 -->
<g id="edge40" class="edge">
<title>35522&#45;&gt;35521</title>
<path fill="none" stroke="#d43d51" d="M2677.42,-1770.73C2676.11,-1769.87 2674.74,-1768.96 2673.29,-1768.01"/>
<polygon fill="#d43d51" stroke="#d43d51" points="2675.45,-1765.24 2665.18,-1762.62 2671.58,-1771.07 2675.45,-1765.24"/>
</g>
<!-- 35522&#45;&gt;36322 -->
<g id="edge41" class="edge">
<title>35522&#45;&gt;36322</title>
<path fill="none" stroke="#d43d51" d="M2733.27,-1806.28C3071.32,-2018.74 3115.62,-2046.42 3241.41,-2119.25"/>
<polygon fill="#d43d51" stroke="#d43d51" points="3239.3,-2122.06 3249.71,-2124.04 3242.8,-2116.01 3239.3,-2122.06"/>
</g>
<!-- 36323 -->
<g id="node28" class="node">
<title>36323</title>
<polygon fill="none" stroke="#d43d51" points="3851.43,-2111.7 3851.43,-2126.61 3759.81,-2137.16 3630.24,-2137.16 3538.62,-2126.61 3538.62,-2111.7 3630.24,-2101.16 3759.81,-2101.16 3851.43,-2111.7"/>
<polygon fill="none" stroke="#d43d51" points="3855.43,-2108.14 3855.43,-2130.18 3760.04,-2141.16 3630.01,-2141.16 3534.62,-2130.18 3534.62,-2108.14 3630.01,-2097.16 3760.04,-2097.16 3855.43,-2108.14"/>
<text text-anchor="middle" x="3695.02" y="-2114.11" font-family="Times,serif" font-size="14.00">SPDX:LicenseRef&#45;scancode&#45;bsl&#45;1.1</text>
</g>
<!-- 36322&#45;&gt;36323 -->
<g id="edge42" class="edge">
<title>36322&#45;&gt;36323</title>
<path fill="none" stroke="#d43d51" d="M3445.31,-2164.01C3540.76,-2169.93 3577.58,-2165.95 3631.43,-2145.67"/>
<polygon fill="#d43d51" stroke="#d43d51" points="3632.6,-2148.97 3640.66,-2142.09 3630.07,-2142.44 3632.6,-2148.97"/>
</g>
<!-- 36324 -->
<g id="node29" class="node">
<title>36324</title>
<polygon fill="none" stroke="black" points="3404.74,-1832.7 3404.74,-1847.61 3329.67,-1858.16 3223.5,-1858.16 3148.43,-1847.61 3148.43,-1832.7 3223.5,-1822.16 3329.67,-1822.16 3404.74,-1832.7"/>
<polygon fill="none" stroke="black" points="3408.74,-1829.22 3408.74,-1851.09 3329.95,-1862.16 3223.22,-1862.16 3144.43,-1851.09 3144.43,-1829.22 3223.22,-1818.16 3329.95,-1818.16 3408.74,-1829.22"/>
<text text-anchor="middle" x="3276.59" y="-1835.11" font-family="Times,serif" font-size="14.00">LicenseRef&#45;scancode&#45;bsl&#45;1.1</text>
</g>
<!-- 36324&#45;&gt;36323 -->
<g id="edge43" class="edge">
<title>36324&#45;&gt;36323</title>
<path fill="none" stroke="#d43d51" stroke-width="2" d="M3313.68,-1862.62C3546.33,-2003.53 3577.39,-2023.16 3659.17,-2089.75"/>
<polygon fill="#d43d51" stroke="#d43d51" stroke-width="2" points="3665.9,-2095.24 3655.3,-2092.41 3663.6,-2094.01 3657.83,-2089.31 3658.15,-2088.92 3658.47,-2088.53 3664.23,-2093.24 3661,-2085.43 3665.9,-2095.24"/>
</g>
<!-- 66520 -->
<g id="node51" class="node">
<title>66520</title>
<polygon fill="none" stroke="#00876c" points="2937.15,-1544.85 2937.15,-1559.76 2839.04,-1570.3 2700.29,-1570.3 2602.18,-1559.76 2602.18,-1544.85 2700.29,-1534.3 2839.04,-1534.3 2937.15,-1544.85"/>
<polygon fill="none" stroke="#00876c" points="2941.15,-1541.26 2941.15,-1563.35 2839.25,-1574.3 2700.08,-1574.3 2598.18,-1563.35 2598.18,-1541.26 2700.08,-1530.3 2839.25,-1530.3 2941.15,-1541.26"/>
<text text-anchor="middle" x="2769.66" y="-1547.25" font-family="Times,serif" font-size="14.00">scancode:LicenseRef&#45;scancode&#45;bsl&#45;1.1</text>
</g>
<!-- 36324&#45;&gt;66520 -->
<g id="edge44" class="edge">
<title>36324&#45;&gt;66520</title>
<path fill="none" stroke="#00876c" stroke-width="2" d="M3244.22,-1817.81C3135.4,-1742.91 3105.59,-1726.43 2822.43,-1579.65"/>
<polygon fill="#00876c" stroke="#00876c" stroke-width="2" points="2814.85,-1575.72 2825.79,-1576.32 2817.35,-1576.45 2823.95,-1579.88 2823.72,-1580.32 2823.49,-1580.76 2816.89,-1577.34 2821.65,-1584.31 2814.85,-1575.72"/>
</g>
<!-- 40001 -->
<g id="node30" class="node">
<title>40001</title>
<text text-anchor="middle" x="2735.41" y="-804.3" font-family="Times,serif" font-size="14.00">LicenseTag (ScopedLicenseTag &quot;OrtLicenseCategorization&quot; &quot;property:include&#45;in&#45;notice&#45;file&quot; (LicenseTagDescription &quot;Whether the license includes a notice obligation or similar which can be fulfilled by adding the relevant copyright notices and the license text into the project/product notice file.&quot;))</text>
</g>
<!-- 40062 -->
<g id="node32" class="node">
<title>40062</title>
<ellipse fill="none" stroke="#e06f45" cx="2538.42" cy="-926.79" rx="158.22" ry="28.99"/>
<text text-anchor="middle" x="2538.42" y="-929.99" font-family="Times,serif" font-size="14.00" fill="gray">OrtLicenseCategorization</text>
<text text-anchor="middle" x="2538.42" y="-913.49" font-family="Times,serif" font-size="14.00" fill="gray">0dcb50eb15d23735df58b5a562ef513e</text>
</g>
<!-- 40001&#45;&gt;40062 -->
<g id="edge45" class="edge">
<title>40001&#45;&gt;40062</title>
<path fill="none" stroke="#e06f45" d="M2706.3,-827.22C2678.51,-844.21 2659.05,-855.79 2595.62,-893.13"/>
<polygon fill="#e06f45" stroke="#e06f45" points="2594.09,-889.97 2587.25,-898.06 2597.64,-896.01 2594.09,-889.97"/>
</g>
<!-- 40002 -->
<g id="node31" class="node">
<title>40002</title>
<text text-anchor="middle" x="2550.92" y="-866.67" font-family="Times,serif" font-size="14.00">LicenseTag (ScopedLicenseTag &quot;OrtLicenseCategorization&quot; &quot;include&#45;in&#45;notice&#45;file&quot; (LicenseTagDescription &quot;Same as above, as a temporary work&#45;around for the category name not being configurable in ORT reports, see https://github.com/oss&#45;review&#45;toolkit/ort/issues/8220.&quot;))</text>
</g>
<!-- 40002&#45;&gt;40062 -->
<g id="edge46" class="edge">
<title>40002&#45;&gt;40062</title>
<path fill="none" stroke="#e06f45" d="M2552.68,-889.57C2552.67,-889.73 2552.66,-889.89 2552.65,-890.06"/>
<polygon fill="#e06f45" stroke="#e06f45" points="2549.93,-885.68 2551.47,-896.16 2556.8,-887 2549.93,-885.68"/>
</g>
<!-- 40062&#45;&gt;714 -->
<g id="edge47" class="edge">
<title>40062&#45;&gt;714</title>
<path fill="none" stroke="#e06f45" d="M2531.39,-956.04C2491.07,-1122.54 2477.63,-1141.81 2259.95,-1352.24"/>
<polygon fill="#e06f45" stroke="#e06f45" points="2257.64,-1349.61 2252.88,-1359.07 2262.5,-1354.64 2257.64,-1349.61"/>
</g>
<!-- 40063 -->
<g id="node33" class="node">
<title>40063</title>
<text text-anchor="middle" x="1419.03" y="-651.05" font-family="Times,serif" font-size="14.00">LicenseTag (ScopedLicenseTag &quot;OrtLicenseCategorization&quot; &quot;commercial&quot; (LicenseTagDescription &quot;A license for third&#45;party proprietary content offered under a direct commercial license between a supplier and a customer.&quot;))</text>
</g>
<!-- 40063&#45;&gt;40062 -->
<g id="edge48" class="edge">
<title>40063&#45;&gt;40062</title>
<path fill="none" stroke="#e06f45" d="M1529.98,-638.11C1981.96,-566.1 2030.14,-585.28 2486.76,-892.05"/>
<polygon fill="#e06f45" stroke="#e06f45" points="2484.74,-894.91 2495,-897.58 2488.65,-889.1 2484.74,-894.91"/>
</g>
<!-- 41214 -->
<g id="node34" class="node">
<title>41214</title>
<ellipse fill="none" stroke="#379469" cx="1062.08" cy="-1860.51" rx="158.75" ry="28.99"/>
<text text-anchor="middle" x="1062.08" y="-1863.71" font-family="Times,serif" font-size="14.00" fill="gray">CavilLicenseChange</text>
<text text-anchor="middle" x="1062.08" y="-1847.21" font-family="Times,serif" font-size="14.00" fill="gray">713a44f8d6e5ee936d184ce2c8b8524b</text>
</g>
<!-- 41214&#45;&gt;41215 -->
<g id="edge49" class="edge">
<title>41214&#45;&gt;41215</title>
<path fill="none" stroke="#379469" d="M1161.29,-1837.52C1216.9,-1821.25 1270.26,-1796.14 1417.65,-1723.93"/>
<polygon fill="#379469" stroke="#379469" points="1419.17,-1727.08 1426.6,-1719.54 1416.08,-1720.8 1419.17,-1727.08"/>
</g>
<!-- 44245 -->
<g id="node36" class="node">
<title>44245</title>
<ellipse fill="none" stroke="#379469" cx="2621.56" cy="-2442.81" rx="155.56" ry="28.99"/>
<text text-anchor="middle" x="2621.56" y="-2446.01" font-family="Times,serif" font-size="14.00" fill="gray">MetaeffektLicense</text>
<text text-anchor="middle" x="2621.56" y="-2429.51" font-family="Times,serif" font-size="14.00" fill="gray">40179f0543d1eb6efa0dcd01f2c09a7e</text>
</g>
<!-- 44245&#45;&gt;44246 -->
<g id="edge50" class="edge">
<title>44245&#45;&gt;44246</title>
<path fill="none" stroke="#379469" d="M2610.42,-2413.48C2564.53,-2292.96 2552.86,-2268.68 2410.19,-1984.54"/>
<polygon fill="#379469" stroke="#379469" points="2413.35,-1983.04 2405.74,-1975.67 2407.1,-1986.18 2413.35,-1983.04"/>
</g>
<!-- 44247 -->
<g id="node38" class="node">
<title>44247</title>
<polygon fill="none" stroke="#379469" points="2441.28,-2394.5 2441.28,-2409.41 2386.01,-2419.95 2307.84,-2419.95 2252.56,-2409.41 2252.56,-2394.5 2307.84,-2383.95 2386.01,-2383.95 2441.28,-2394.5"/>
<polygon fill="none" stroke="#379469" points="2445.28,-2391.19 2445.28,-2412.72 2386.39,-2423.95 2307.46,-2423.95 2248.56,-2412.72 2248.56,-2391.19 2307.46,-2379.95 2386.39,-2379.95 2445.28,-2391.19"/>
<text text-anchor="middle" x="2346.92" y="-2396.9" font-family="Times,serif" font-size="14.00">Business&#45;Source&#45;1.1</text>
</g>
<!-- 44247&#45;&gt;44246 -->
<g id="edge51" class="edge">
<title>44247&#45;&gt;44246</title>
<path fill="none" stroke="#379469" stroke-width="2" d="M2356.51,-2379.71C2406.58,-2262.94 2407.87,-2243.68 2395.56,-1985.47"/>
<polygon fill="#379469" stroke="#379469" stroke-width="2" points="2395.15,-1977.03 2400.12,-1986.81 2395.77,-1979.57 2396.13,-1987 2395.63,-1987.02 2395.13,-1987.05 2394.78,-1979.62 2391.13,-1987.24 2395.15,-1977.03"/>
</g>
<!-- 44248&#45;&gt;44246 -->
<g id="edge52" class="edge">
<title>44248&#45;&gt;44246</title>
<path fill="none" stroke="#379469" stroke-width="2" d="M1984.28,-1988.38C2161.25,-2043.36 2195.67,-2042.62 2335.86,-1979.06"/>
<polygon fill="#379469" stroke="#379469" stroke-width="2" points="2343.48,-1975.59 2336.24,-1983.83 2341.35,-1977.1 2334.59,-1980.19 2334.38,-1979.73 2334.17,-1979.28 2340.94,-1976.19 2332.51,-1975.64 2343.48,-1975.59"/>
</g>
<!-- 44249 -->
<g id="node40" class="node">
<title>44249</title>
<polygon fill="none" stroke="#379469" points="2593.29,-2332.78 2593.29,-2347.69 2547.75,-2358.23 2483.35,-2358.23 2437.81,-2347.69 2437.81,-2332.78 2483.35,-2322.23 2547.75,-2322.23 2593.29,-2332.78"/>
<text text-anchor="middle" x="2515.55" y="-2335.18" font-family="Times,serif" font-size="14.00">Business Source</text>
</g>
<!-- 44249&#45;&gt;44246 -->
<g id="edge53" class="edge">
<title>44249&#45;&gt;44246</title>
<path fill="none" stroke="#379469" stroke-dasharray="5,2" d="M2512.58,-2321.98C2496,-2220.73 2490.71,-2204.31 2406.53,-1984.95"/>
<polygon fill="#379469" stroke="#379469" points="2403.03,-1975.83 2410.81,-1983.55 2404.38,-1979.36 2406.61,-1985.17 2406.61,-1985.17 2406.61,-1985.17 2404.38,-1979.36 2402.41,-1986.78 2403.03,-1975.83"/>
</g>
<!-- 44250 -->
<g id="node41" class="node">
<title>44250</title>
<polygon fill="none" stroke="#379469" points="2699.46,-1992.84 2699.46,-2007.75 2555.27,-2018.29 2351.35,-2018.29 2207.16,-2007.75 2207.16,-1992.84 2351.35,-1982.29 2555.27,-1982.29 2699.46,-1992.84"/>
<text text-anchor="middle" x="2453.31" y="-1995.24" font-family="Times,serif" font-size="14.00">https://github.com/getsentry/sentry/blob/master/LICENSE</text>
</g>
<!-- 44250&#45;&gt;44246 -->
<g id="edge54" class="edge">
<title>44250&#45;&gt;44246</title>
<path fill="none" stroke="#379469" stroke-dasharray="5,2" d="M2425.58,-1982.01C2425.44,-1981.88 2425.29,-1981.75 2425.14,-1981.62"/>
<polygon fill="#379469" stroke="#379469" points="2418.4,-1975.49 2428.82,-1978.88 2421.19,-1978.03 2425.79,-1982.21 2425.79,-1982.21 2425.79,-1982.21 2421.19,-1978.03 2422.77,-1985.54 2418.4,-1975.49"/>
</g>
<!-- 59761 -->
<g id="node42" class="node">
<title>59761</title>
<ellipse fill="none" stroke="#b8bf62" cx="1515.92" cy="-2305.89" rx="157.15" ry="28.99"/>
<text text-anchor="middle" x="1515.92" y="-2309.09" font-family="Times,serif" font-size="14.00" fill="gray">FossLicense</text>
<text text-anchor="middle" x="1515.92" y="-2292.59" font-family="Times,serif" font-size="14.00" fill="gray">7a06ecd02f74d0aac5a8b1a85a9818a7</text>
</g>
<!-- 59761&#45;&gt;59762 -->
<g id="edge55" class="edge">
<title>59761&#45;&gt;59762</title>
<path fill="none" stroke="#b8bf62" d="M1638.96,-2287.51C1751.7,-2264.91 1799.7,-2224.21 1985.79,-2049.61"/>
<polygon fill="#b8bf62" stroke="#b8bf62" points="1988.18,-2052.17 1993.08,-2042.77 1983.39,-2047.06 1988.18,-2052.17"/>
</g>
<!-- 59763 -->
<g id="node44" class="node">
<title>59763</title>
<polygon fill="none" stroke="#b8bf62" points="1886.35,-2470.13 1886.35,-2485.04 1830.42,-2495.58 1751.33,-2495.58 1695.41,-2485.04 1695.41,-2470.13 1751.33,-2459.58 1830.42,-2459.58 1886.35,-2470.13"/>
<polygon fill="none" stroke="#b8bf62" points="1890.35,-2466.81 1890.35,-2488.36 1830.8,-2499.58 1750.96,-2499.58 1691.41,-2488.36 1691.41,-2466.81 1750.96,-2455.58 1830.8,-2455.58 1890.35,-2466.81"/>
<text text-anchor="middle" x="1790.88" y="-2472.53" font-family="Times,serif" font-size="14.00">Businnes&#45;Source&#45;1.1</text>
</g>
<!-- 59763&#45;&gt;59762 -->
<g id="edge56" class="edge">
<title>59763&#45;&gt;59762</title>
<path fill="none" stroke="#b8bf62" stroke-width="2" d="M1810.2,-2455.16C1897.63,-2353.2 1907.2,-2331.46 2006.51,-2051.96"/>
<polygon fill="#b8bf62" stroke="#b8bf62" stroke-width="2" points="2009.42,-2043.77 2010.31,-2054.7 2009.03,-2046.35 2006.54,-2053.36 2006.07,-2053.19 2005.6,-2053.03 2008.09,-2046.02 2001.83,-2051.69 2009.42,-2043.77"/>
</g>
<!-- 59764 -->
<g id="node45" class="node">
<title>59764</title>
<polygon fill="none" stroke="#b8bf62" points="2071.14,-2495.95 2071.14,-2510.86 2021.71,-2521.4 1951.8,-2521.4 1902.37,-2510.86 1902.37,-2495.95 1951.8,-2485.4 2021.71,-2485.4 2071.14,-2495.95"/>
<polygon fill="none" stroke="#b8bf62" points="2075.14,-2492.71 2075.14,-2514.09 2022.13,-2525.4 1951.38,-2525.4 1898.37,-2514.09 1898.37,-2492.71 1951.38,-2481.4 2022.13,-2481.4 2075.14,-2492.71"/>
<text text-anchor="middle" x="1986.76" y="-2498.35" font-family="Times,serif" font-size="14.00">scancode://bsl&#45;1.1</text>
</g>
<!-- 59764&#45;&gt;59762 -->
<g id="edge57" class="edge">
<title>59764&#45;&gt;59762</title>
<path fill="none" stroke="#b8bf62" stroke-width="2" d="M1990.02,-2481.18C2007.55,-2361.59 2008.64,-2341.33 2017.16,-2052.14"/>
<polygon fill="#b8bf62" stroke="#b8bf62" stroke-width="2" points="2017.41,-2043.73 2021.62,-2053.86 2017.84,-2046.3 2017.62,-2053.74 2017.12,-2053.72 2016.62,-2053.71 2016.84,-2046.28 2012.62,-2053.59 2017.41,-2043.73"/>
</g>
<!-- 59765 -->
<g id="node46" class="node">
<title>59765</title>
<polygon fill="none" stroke="#b8bf62" points="1791.23,-2357.46 1791.23,-2372.37 1745.05,-2382.92 1679.72,-2382.92 1633.54,-2372.37 1633.54,-2357.46 1679.72,-2346.92 1745.05,-2346.92 1791.23,-2357.46"/>
<polygon fill="none" stroke="#b8bf62" points="1795.23,-2354.27 1795.23,-2375.56 1745.5,-2386.92 1679.27,-2386.92 1629.54,-2375.56 1629.54,-2354.27 1679.27,-2342.92 1745.5,-2342.92 1795.23,-2354.27"/>
<text text-anchor="middle" x="1712.38" y="-2359.87" font-family="Times,serif" font-size="14.00">scancode:bsl&#45;1.1</text>
</g>
<!-- 59765&#45;&gt;59762 -->
<g id="edge58" class="edge">
<title>59765&#45;&gt;59762</title>
<path fill="none" stroke="#b8bf62" stroke-width="2" d="M1750.33,-2343.62C1853.95,-2284.5 1871.39,-2260.92 1998.74,-2051.2"/>
<polygon fill="#b8bf62" stroke="#b8bf62" stroke-width="2" points="2003.23,-2043.8 2001.89,-2054.69 2002.32,-2046.25 1998.47,-2052.61 1998.04,-2052.35 1997.61,-2052.09 2001.47,-2045.74 1994.19,-2050.02 2003.23,-2043.8"/>
</g>
<!-- 65551 -->
<g id="node47" class="node">
<title>65551</title>
<text text-anchor="start" x="909.43" y="-105.69" font-family="Times,serif" font-size="14.00">ifrOSS Classification: </text>
<text text-anchor="start" x="1032.43" y="-105.69" font-family="Times,serif" font-weight="bold" font-size="14.00" fill="#8b0000">Sonstige (non&#45;free) Software Lizenzen</text>
<text text-anchor="start" x="851.68" y="-91.69" font-family="Times,serif" font-size="14.00">Die hier aufgelisteten Lizenzen stammen aus dem Bereich der Freien Software oder</text>
<text text-anchor="start" x="868.56" y="-77.69" font-family="Times,serif" font-size="14.00">geben sich den Anschein, Freie Software zu sein, ohne die Anforderungen der</text>
<text text-anchor="start" x="864.81" y="-63.69" font-family="Times,serif" font-size="14.00">Definition Freier Software oder der Open&#45;Source&#45;Definition zu erfüllen. Einige</text>
<text text-anchor="start" x="899.31" y="-49.69" font-family="Times,serif" font-size="14.00">von ihnen sind nicht&#45;kommerzielle Lizenzen, die im Gegensatz zu</text>
<text text-anchor="start" x="888.81" y="-35.69" font-family="Times,serif" font-size="14.00">Open&#45;Source&#45;Lizenzen die kommerzielle Weiterverbreitung verbieten.</text>
</g>
<!-- 65551&#45;&gt;65565 -->
<g id="edge59" class="edge">
<title>65551&#45;&gt;65565</title>
<path fill="none" stroke="#dc574a" d="M1133.29,-121.71C1222.84,-201.23 1257.58,-240.72 1467.97,-486.93"/>
<polygon fill="#dc574a" stroke="#dc574a" points="1465.07,-488.92 1474.23,-494.25 1470.39,-484.37 1465.07,-488.92"/>
</g>
<!-- 65565&#45;&gt;65566 -->
<g id="edge60" class="edge">
<title>65565&#45;&gt;65566</title>
<path fill="none" stroke="#dc574a" d="M1514.62,-553.46C1579.03,-681.31 1592.79,-705.84 1768.85,-1013.28"/>
<polygon fill="#dc574a" stroke="#dc574a" points="1765.61,-1014.68 1773.62,-1021.62 1771.69,-1011.2 1765.61,-1014.68"/>
</g>
<!-- 66519 -->
<g id="node50" class="node">
<title>66519</title>
<ellipse fill="none" stroke="#00876c" cx="1923.54" cy="-1642.29" rx="160.87" ry="28.99"/>
<text text-anchor="middle" x="1923.54" y="-1645.49" font-family="Times,serif" font-size="14.00" fill="gray">LicenseLynx</text>
<text text-anchor="middle" x="1923.54" y="-1628.99" font-family="Times,serif" font-size="14.00" fill="gray">651a9884eb93ba03754094243581adee</text>
</g>
<!-- 66519&#45;&gt;714 -->
<g id="edge61" class="edge">
<title>66519&#45;&gt;714</title>
<path fill="none" stroke="#00876c" d="M2003.64,-1616.74C2104.98,-1581.86 2126.48,-1555.5 2203.59,-1422.58"/>
<polygon fill="#00876c" stroke="#00876c" points="2206.5,-1424.54 2208.48,-1414.13 2200.44,-1421.03 2206.5,-1424.54"/>
</g>
<!-- 66520&#45;&gt;714 -->
<g id="edge62" class="edge">
<title>66520&#45;&gt;714</title>
<path fill="none" stroke="#00876c" stroke-width="2" d="M2688.46,-1531.11C2597.89,-1506.99 2540.79,-1488.95 2295.36,-1409.56"/>
<polygon fill="#00876c" stroke="#00876c" stroke-width="2" points="2287.36,-1406.97 2298.26,-1405.77 2289.95,-1407.29 2297.03,-1409.58 2296.87,-1410.05 2296.72,-1410.53 2289.64,-1408.24 2295.49,-1414.33 2287.36,-1406.97"/>
</g>
<!-- 66521&#45;&gt;714 -->
<g id="edge63" class="edge">
<title>66521&#45;&gt;714</title>
<path fill="none" stroke="#00876c" stroke-width="2" d="M2251.74,-1585.19C2267.09,-1530.29 2265.55,-1514.47 2236.31,-1423.43"/>
<polygon fill="#00876c" stroke="#00876c" stroke-width="2" points="2233.66,-1415.19 2241.01,-1423.32 2234.92,-1417.47 2237.2,-1424.55 2236.73,-1424.71 2236.25,-1424.86 2233.97,-1417.78 2232.44,-1426.09 2233.66,-1415.19"/>
</g>
</g>
</svg>
