<?xml version="1.0" encoding="UTF-8" standalone="no"?>
<!DOCTYPE svg PUBLIC "-//W3C//DTD SVG 1.1//EN"
 "http://www.w3.org/Graphics/SVG/1.1/DTD/svg11.dtd">
<!-- Generated by graphviz version 10.0.1 (0)
 -->
<!-- Pages: 1 -->
<svg width="1474pt" height="1238pt"
 viewBox="0.00 0.00 1474.00 1238.00" xmlns="http://www.w3.org/2000/svg" xmlns:xlink="http://www.w3.org/1999/xlink">
<g id="graph0" class="graph" transform="scale(1 1) rotate(0) translate(4 1234)">
<polygon fill="white" stroke="none" points="-4,4 -4,-1234 1470,-1234 1470,4 -4,4"/>
<!-- 4488 -->
<g id="node1" class="node">
<title>4488</title>
<ellipse fill="none" stroke="#b8bf62" cx="668.61" cy="-1052.67" rx="156.09" ry="28.99"/>
<text text-anchor="middle" x="668.61" y="-1055.87" font-family="Times,serif" font-size="14.00" fill="gray">SPDXLicense</text>
<text text-anchor="middle" x="668.61" y="-1039.37" font-family="Times,serif" font-size="14.00" fill="gray">3570a5c13eefd24312fb6aee54c3a506</text>
</g>
<!-- 4489 -->
<g id="node2" class="node">
<title>4489</title>
<polygon fill="none" stroke="black" points="771.44,-688.58 771.44,-703.49 724.93,-714.04 659.15,-714.04 612.64,-703.49 612.64,-688.58 659.15,-678.04 724.93,-678.04 771.44,-688.58"/>
<polygon fill="none" stroke="black" points="775.44,-685.39 775.44,-706.69 725.38,-718.04 658.7,-718.04 608.64,-706.69 608.64,-685.39 658.7,-674.04 725.38,-674.04 775.44,-685.39"/>
<polygon fill="none" stroke="black" points="779.44,-682.19 779.44,-709.88 725.83,-722.04 658.25,-722.04 604.64,-709.88 604.64,-682.19 658.25,-670.04 725.83,-670.04 779.44,-682.19"/>
<text text-anchor="middle" x="692.04" y="-690.99" font-family="Times,serif" font-size="14.00">spdx:bzip2&#45;1.0.5</text>
</g>
<!-- 4488&#45;&gt;4489 -->
<g id="edge1" class="edge">
<title>4488&#45;&gt;4489</title>
<path fill="none" stroke="#b8bf62" d="M667.96,-1023.18C666.45,-946.71 668.42,-922.49 688.13,-733.45"/>
<polygon fill="#b8bf62" stroke="#b8bf62" points="691.59,-734.07 689.15,-723.76 684.63,-733.34 691.59,-734.07"/>
</g>
<!-- 9763 -->
<g id="node8" class="node">
<title>9763</title>
<polygon fill="none" stroke="#58a066" points="769.19,-375.15 769.19,-390.06 721.38,-400.6 653.76,-400.6 605.95,-390.06 605.95,-375.15 653.76,-364.6 721.38,-364.6 769.19,-375.15"/>
<polygon fill="none" stroke="#58a066" points="773.19,-371.93 773.19,-393.27 721.81,-404.6 653.33,-404.6 601.95,-393.27 601.95,-371.93 653.33,-360.6 721.81,-360.6 773.19,-371.93"/>
<text text-anchor="middle" x="687.57" y="-377.55" font-family="Times,serif" font-size="14.00">osadl:bzip2&#45;1.0.5</text>
</g>
<!-- 4489&#45;&gt;9763 -->
<g id="edge2" class="edge">
<title>4489&#45;&gt;9763</title>
<path fill="none" stroke="#58a066" stroke-width="2" d="M687.89,-669.68C662.42,-507.82 660.15,-484.32 678.46,-415.45"/>
<polygon fill="#58a066" stroke="#58a066" stroke-width="2" points="680.68,-407.29 682.4,-418.12 680.49,-409.9 678.54,-417.07 678.06,-416.94 677.58,-416.81 679.52,-409.64 673.72,-415.77 680.68,-407.29"/>
</g>
<!-- 39142 -->
<g id="node14" class="node">
<title>39142</title>
<polygon fill="none" stroke="#00876c" points="1162.58,-870.16 1162.58,-885.07 1082.31,-895.62 968.81,-895.62 888.54,-885.07 888.54,-870.16 968.81,-859.62 1082.31,-859.62 1162.58,-870.16"/>
<polygon fill="none" stroke="#00876c" points="1166.58,-866.65 1166.58,-888.58 1082.58,-899.62 968.54,-899.62 884.54,-888.58 884.54,-866.65 968.54,-855.62 1082.58,-855.62 1166.58,-866.65"/>
<text text-anchor="middle" x="1025.56" y="-872.57" font-family="Times,serif" font-size="14.00">metaeffekt:bzip2 License 1.0.5</text>
</g>
<!-- 4489&#45;&gt;39142 -->
<g id="edge3" class="edge">
<title>4489&#45;&gt;39142</title>
<path fill="none" stroke="#00876c" stroke-width="2" d="M727.95,-721.83C847.69,-807.74 889.22,-836.02 939.52,-854.04"/>
<polygon fill="#00876c" stroke="#00876c" stroke-width="2" points="947.76,-856.84 936.84,-857.88 945.17,-856.49 938.13,-854.09 938.29,-853.62 938.46,-853.15 945.5,-855.54 939.75,-849.36 947.76,-856.84"/>
</g>
<!-- 4490 -->
<g id="node3" class="node">
<title>4490</title>
<polygon fill="none" stroke="black" points="555.67,-543.59 555.67,-558.5 521.81,-569.05 473.93,-569.05 440.07,-558.5 440.07,-543.59 473.93,-533.05 521.81,-533.05 555.67,-543.59"/>
<polygon fill="none" stroke="black" points="559.67,-540.65 559.67,-561.45 522.42,-573.05 473.32,-573.05 436.07,-561.45 436.07,-540.65 473.32,-529.05 522.42,-529.05 559.67,-540.65"/>
<text text-anchor="middle" x="497.87" y="-546" font-family="Times,serif" font-size="14.00">bzip2&#45;1.0.5</text>
</g>
<!-- 4490&#45;&gt;4489 -->
<g id="edge4" class="edge">
<title>4490&#45;&gt;4489</title>
<path fill="none" stroke="black" stroke-width="2" d="M512.36,-573.3C542.06,-617.95 556.89,-630.34 634.12,-668.17"/>
<polygon fill="black" stroke="black" stroke-width="2" points="641.66,-671.84 630.7,-671.51 639.14,-671.17 632.45,-667.91 632.67,-667.46 632.89,-667.01 639.57,-670.27 634.64,-663.42 641.66,-671.84"/>
</g>
<!-- 8796 -->
<g id="node6" class="node">
<title>8796</title>
<polygon fill="none" stroke="#00876c" points="434.09,-749.29 434.09,-764.2 377.84,-774.75 298.29,-774.75 242.04,-764.2 242.04,-749.29 298.29,-738.75 377.84,-738.75 434.09,-749.29"/>
<polygon fill="none" stroke="#00876c" points="438.09,-745.97 438.09,-767.52 378.21,-778.75 297.92,-778.75 238.04,-767.52 238.04,-745.97 297.92,-734.75 378.21,-734.75 438.09,-745.97"/>
<text text-anchor="middle" x="338.06" y="-751.7" font-family="Times,serif" font-size="14.00">BlueOak:bzip2&#45;1.0.5</text>
</g>
<!-- 4490&#45;&gt;8796 -->
<g id="edge5" class="edge">
<title>4490&#45;&gt;8796</title>
<path fill="none" stroke="#00876c" stroke-width="2" d="M471.67,-572.82C380.67,-648.65 366.74,-663.85 347.84,-724.01"/>
<polygon fill="#00876c" stroke="#00876c" stroke-width="2" points="345.34,-732.17 343.97,-721.29 345.62,-729.57 347.8,-722.46 348.27,-722.61 348.75,-722.75 346.57,-729.86 352.58,-723.93 345.34,-732.17"/>
</g>
<!-- 4490&#45;&gt;9763 -->
<g id="edge6" class="edge">
<title>4490&#45;&gt;9763</title>
<path fill="none" stroke="#58a066" stroke-width="2" d="M508.92,-528.79C548.43,-449.72 561.45,-431.95 626.84,-405.44"/>
<polygon fill="#58a066" stroke="#58a066" stroke-width="2" points="634.61,-402.36 626.98,-410.23 632.42,-403.77 625.5,-406.51 625.32,-406.05 625.13,-405.58 632.05,-402.84 623.66,-401.86 634.61,-402.36"/>
</g>
<!-- 27464 -->
<g id="node11" class="node">
<title>27464</title>
<polygon fill="none" stroke="#e18745" points="356.48,-638.81 356.48,-653.72 298.28,-664.27 215.98,-664.27 157.79,-653.72 157.79,-638.81 215.98,-628.27 298.28,-628.27 356.48,-638.81"/>
<polygon fill="none" stroke="#e18745" points="360.48,-635.47 360.48,-657.06 298.64,-668.27 215.62,-668.27 153.79,-657.06 153.79,-635.47 215.62,-624.27 298.64,-624.27 360.48,-635.47"/>
<text text-anchor="middle" x="257.13" y="-641.22" font-family="Times,serif" font-size="14.00">fossology:bzip2&#45;1.0.5</text>
</g>
<!-- 4490&#45;&gt;27464 -->
<g id="edge7" class="edge">
<title>4490&#45;&gt;27464</title>
<path fill="none" stroke="#e18745" stroke-width="2" d="M445.66,-564.82C357.27,-588.32 329.88,-597.3 297.68,-617.82"/>
<polygon fill="#e18745" stroke="#e18745" stroke-width="2" points="290.45,-622.59 296.31,-613.32 292.31,-620.76 298.52,-616.66 298.79,-617.08 299.07,-617.5 292.86,-621.59 301.27,-620.84 290.45,-622.59"/>
</g>
<!-- 4491 -->
<g id="node4" class="node">
<title>4491</title>
<polygon fill="none" stroke="black" points="457.76,-692.42 457.76,-707.33 370.68,-717.88 247.54,-717.88 160.46,-707.33 160.46,-692.42 247.54,-681.88 370.68,-681.88 457.76,-692.42"/>
<polygon fill="none" stroke="black" points="461.76,-688.88 461.76,-710.88 370.92,-721.88 247.29,-721.88 156.46,-710.88 156.46,-688.88 247.29,-677.88 370.92,-677.88 461.76,-688.88"/>
<text text-anchor="middle" x="309.11" y="-694.83" font-family="Times,serif" font-size="14.00">bzip2 and libbzip2 License v1.0.5</text>
</g>
<!-- 4491&#45;&gt;4489 -->
<g id="edge8" class="edge">
<title>4491&#45;&gt;4489</title>
<path fill="none" stroke="#b8bf62" stroke-width="2" d="M417.65,-716.69C456.87,-718.79 502.74,-715.45 593.36,-706.28"/>
<polygon fill="#b8bf62" stroke="#b8bf62" stroke-width="2" points="601.91,-705.42 592.42,-710.9 599.41,-706.17 592.02,-706.92 591.96,-706.43 591.91,-705.93 599.31,-705.18 591.51,-701.95 601.91,-705.42"/>
</g>
<!-- 4491&#45;&gt;8796 -->
<g id="edge9" class="edge">
<title>4491&#45;&gt;8796</title>
<path fill="none" stroke="#00876c" stroke-width="2" d="M311.4,-722.13C311.55,-722.87 311.71,-723.58 311.89,-724.27"/>
<polygon fill="#00876c" stroke="#00876c" stroke-width="2" points="315.38,-732.06 307.19,-724.77 313.88,-729.93 310.84,-723.14 311.3,-722.94 311.75,-722.73 314.79,-729.52 315.4,-721.1 315.38,-732.06"/>
</g>
<!-- 4491&#45;&gt;27464 -->
<g id="edge10" class="edge">
<title>4491&#45;&gt;27464</title>
<path fill="none" stroke="#e18745" stroke-width="2" d="M275.35,-677.64C275.14,-677.45 274.93,-677.27 274.73,-677.09"/>
<polygon fill="#e18745" stroke="#e18745" stroke-width="2" points="268.93,-670.51 278.92,-675.04 271,-672.1 275.91,-677.68 275.54,-678.01 275.16,-678.34 270.25,-672.76 272.16,-680.99 268.93,-670.51"/>
</g>
<!-- 8795 -->
<g id="node5" class="node">
<title>8795</title>
<ellipse fill="none" stroke="#00876c" cx="284.9" cy="-816.27" rx="160.34" ry="28.99"/>
<text text-anchor="middle" x="284.9" y="-819.47" font-family="Times,serif" font-size="14.00" fill="gray">BlueOakCouncil</text>
<text text-anchor="middle" x="284.9" y="-802.97" font-family="Times,serif" font-size="14.00" fill="gray">98568497019e95a3ed1f57163eb2b931</text>
</g>
<!-- 8795&#45;&gt;8796 -->
<g id="edge11" class="edge">
<title>8795&#45;&gt;8796</title>
<path fill="none" stroke="#00876c" d="M304.18,-787.02C304.33,-786.87 304.47,-786.72 304.62,-786.58"/>
<polygon fill="#00876c" stroke="#00876c" points="306.48,-789.64 311.34,-780.22 301.67,-784.55 306.48,-789.64"/>
</g>
<!-- 9762 -->
<g id="node7" class="node">
<title>9762</title>
<ellipse fill="none" stroke="#58a066" cx="905.3" cy="-101.19" rx="159.81" ry="28.99"/>
<text text-anchor="middle" x="905.3" y="-104.39" font-family="Times,serif" font-size="14.00" fill="gray">OSADLRule</text>
<text text-anchor="middle" x="905.3" y="-87.89" font-family="Times,serif" font-size="14.00" fill="gray">a8286613076047dc9430c2f5c694b17a</text>
</g>
<!-- 9762&#45;&gt;9763 -->
<g id="edge12" class="edge">
<title>9762&#45;&gt;9763</title>
<path fill="none" stroke="#58a066" d="M866.98,-129.52C809.4,-173.69 792.09,-200.38 705.81,-350.78"/>
<polygon fill="#58a066" stroke="#58a066" points="702.99,-348.66 701.05,-359.08 709.06,-352.14 702.99,-348.66"/>
</g>
<!-- 9824 -->
<g id="node9" class="node">
<title>9824</title>
<ellipse fill="none" stroke="#58a066" cx="630.82" cy="-28.87" rx="160.34" ry="28.99"/>
<text text-anchor="middle" x="630.82" y="-32.07" font-family="Times,serif" font-size="14.00" fill="gray">OSADLMatrix</text>
<text text-anchor="middle" x="630.82" y="-15.57" font-family="Times,serif" font-size="14.00" fill="gray">e2bcb3f39d086e0d5119483532d624c3</text>
</g>
<!-- 9824&#45;&gt;9763 -->
<g id="edge13" class="edge">
<title>9824&#45;&gt;9763</title>
<path fill="none" stroke="#58a066" d="M635.13,-58.09C646.27,-133.5 650.2,-157.57 681.96,-348.84"/>
<polygon fill="#58a066" stroke="#58a066" points="678.5,-349.39 683.6,-358.68 685.41,-348.24 678.5,-349.39"/>
</g>
<!-- 27463 -->
<g id="node10" class="node">
<title>27463</title>
<ellipse fill="none" stroke="#e18745" cx="158.81" cy="-583.38" rx="158.75" ry="28.99"/>
<text text-anchor="middle" x="158.81" y="-586.58" font-family="Times,serif" font-size="14.00" fill="gray">Fossology</text>
<text text-anchor="middle" x="158.81" y="-570.08" font-family="Times,serif" font-size="14.00" fill="gray">bb938564d40b3ef5f63e0d56e2ed5bd0</text>
</g>
<!-- 27463&#45;&gt;27464 -->
<g id="edge14" class="edge">
<title>27463&#45;&gt;27464</title>
<path fill="none" stroke="#e18745" d="M186.63,-612.23C190.25,-614.81 194.35,-617.31 199.35,-619.98"/>
<polygon fill="#e18745" stroke="#e18745" points="197.55,-622.99 208.06,-624.37 200.7,-616.74 197.55,-622.99"/>
</g>
<!-- 39129 -->
<g id="node12" class="node">
<title>39129</title>
<polygon fill="none" stroke="#00876c" points="1040.09,-931.46 1040.09,-946.37 1020.19,-956.91 992.04,-956.91 972.14,-946.37 972.14,-931.46 992.04,-920.91 1020.19,-920.91 1040.09,-931.46"/>
<text text-anchor="middle" x="1006.11" y="-933.86" font-family="Times,serif" font-size="14.00">bzip2</text>
</g>
<!-- 39129&#45;&gt;39142 -->
<g id="edge15" class="edge">
<title>39129&#45;&gt;39142</title>
<path fill="none" stroke="#00876c" stroke-dasharray="5,2" d="M1020.25,-920.64C1021.83,-917.66 1022.9,-914.6 1023.63,-910.87"/>
<polygon fill="#00876c" stroke="#00876c" points="1024.74,-901.1 1028.08,-911.54 1024.32,-904.86 1023.61,-911.03 1023.61,-911.03 1023.61,-911.03 1024.32,-904.86 1019.14,-910.52 1024.74,-901.1"/>
</g>
<!-- 39141 -->
<g id="node13" class="node">
<title>39141</title>
<ellipse fill="none" stroke="#00876c" cx="1300.48" cy="-1200.64" rx="158.75" ry="28.99"/>
<text text-anchor="middle" x="1300.48" y="-1203.84" font-family="Times,serif" font-size="14.00" fill="gray">MetaeffektLicense</text>
<text text-anchor="middle" x="1300.48" y="-1187.34" font-family="Times,serif" font-size="14.00" fill="gray">c16437a1662b3d79e8665bbf50a8a7ec</text>
</g>
<!-- 39141&#45;&gt;39142 -->
<g id="edge16" class="edge">
<title>39141&#45;&gt;39142</title>
<path fill="none" stroke="#00876c" d="M1278.72,-1171.9C1224.43,-1100.45 1205.06,-1078.22 1053.2,-908.5"/>
<polygon fill="#00876c" stroke="#00876c" points="1055.92,-906.29 1046.64,-901.17 1050.7,-910.96 1055.92,-906.29"/>
</g>
<!-- 39143 -->
<g id="node15" class="node">
<title>39143</title>
<polygon fill="none" stroke="#00876c" points="1462.47,-865.02 1462.47,-879.93 1409.15,-890.48 1333.73,-890.48 1280.4,-879.93 1280.4,-865.02 1333.73,-854.48 1409.15,-854.48 1462.47,-865.02"/>
<polygon fill="none" stroke="#00876c" points="1466.47,-861.74 1466.47,-883.22 1409.54,-894.48 1333.34,-894.48 1276.4,-883.22 1276.4,-861.74 1333.34,-850.48 1409.54,-850.48 1466.47,-861.74"/>
<text text-anchor="middle" x="1371.44" y="-867.43" font-family="Times,serif" font-size="14.00">bzip2 License 1.0.5</text>
</g>
<!-- 39143&#45;&gt;39142 -->
<g id="edge17" class="edge">
<title>39143&#45;&gt;39142</title>
<path fill="none" stroke="#00876c" stroke-width="2" d="M1312,-890.66C1266.56,-902.64 1233.75,-903.39 1151.27,-893.83"/>
<polygon fill="#00876c" stroke="#00876c" stroke-width="2" points="1142.55,-892.8 1153.01,-889.51 1145.16,-892.61 1152.54,-893.48 1152.48,-893.97 1152.43,-894.47 1145.04,-893.6 1151.96,-898.44 1142.55,-892.8"/>
</g>
</g>
</svg>
