<?xml version="1.0" encoding="UTF-8" standalone="no"?>
<!DOCTYPE svg PUBLIC "-//W3C//DTD SVG 1.1//EN"
 "http://www.w3.org/Graphics/SVG/1.1/DTD/svg11.dtd">
<!-- Generated by graphviz version 10.0.1 (0)
 -->
<!-- Pages: 1 -->
<svg width="1169pt" height="1026pt"
 viewBox="0.00 0.00 1169.00 1026.00" xmlns="http://www.w3.org/2000/svg" xmlns:xlink="http://www.w3.org/1999/xlink">
<g id="graph0" class="graph" transform="scale(1 1) rotate(0) translate(4 1022)">
<polygon fill="white" stroke="none" points="-4,4 -4,-1022 1165,-1022 1165,4 -4,4"/>
<!-- 1361 -->
<g id="node1" class="node">
<title>1361</title>
<ellipse fill="none" stroke="#b8bf62" cx="246.92" cy="-988.71" rx="161.93" ry="28.99"/>
<text text-anchor="middle" x="246.92" y="-991.91" font-family="Times,serif" font-size="14.00" fill="gray">SPDXLicense</text>
<text text-anchor="middle" x="246.92" y="-975.41" font-family="Times,serif" font-size="14.00" fill="gray">d75e7330476742a5170d10c1495591bc</text>
</g>
<!-- 1362 -->
<g id="node2" class="node">
<title>1362</title>
<polygon fill="none" stroke="black" points="556.26,-735.46 556.26,-750.37 518.51,-760.91 465.12,-760.91 427.36,-750.37 427.36,-735.46 465.12,-724.91 518.51,-724.91 556.26,-735.46"/>
<polygon fill="none" stroke="black" points="560.26,-732.42 560.26,-753.41 519.05,-764.91 464.57,-764.91 423.36,-753.41 423.36,-732.42 464.57,-720.91 519.05,-720.91 560.26,-732.42"/>
<polygon fill="none" stroke="black" points="564.26,-729.39 564.26,-756.44 519.6,-768.91 464.02,-768.91 419.36,-756.44 419.36,-729.39 464.02,-716.91 519.6,-716.91 564.26,-729.39"/>
<text text-anchor="middle" x="491.81" y="-737.86" font-family="Times,serif" font-size="14.00">spdx:Caldera</text>
</g>
<!-- 1361&#45;&gt;1362 -->
<g id="edge1" class="edge">
<title>1361&#45;&gt;1362</title>
<path fill="none" stroke="#b8bf62" d="M285.73,-960.2C334.41,-923.33 357.5,-898.22 461.63,-777.83"/>
<polygon fill="#b8bf62" stroke="#b8bf62" points="464.06,-780.38 467.95,-770.52 458.76,-775.8 464.06,-780.38"/>
</g>
<!-- 40971 -->
<g id="node13" class="node">
<title>40971</title>
<polygon fill="none" stroke="#00876c" points="1003.04,-780.48 1003.04,-795.39 931.22,-805.94 829.64,-805.94 757.81,-795.39 757.81,-780.48 829.64,-769.94 931.22,-769.94 1003.04,-780.48"/>
<polygon fill="none" stroke="#00876c" points="1007.04,-777.03 1007.04,-798.85 931.51,-809.94 829.35,-809.94 753.81,-798.85 753.81,-777.03 829.35,-765.94 931.51,-765.94 1007.04,-777.03"/>
<text text-anchor="middle" x="880.43" y="-782.89" font-family="Times,serif" font-size="14.00">metaeffekt:Caldera License</text>
</g>
<!-- 1362&#45;&gt;40971 -->
<g id="edge2" class="edge">
<title>1362&#45;&gt;40971</title>
<path fill="none" stroke="#00876c" stroke-width="2" d="M540.42,-763.43C680.54,-822.21 716.89,-832.06 801.81,-810.64"/>
<polygon fill="#00876c" stroke="#00876c" stroke-width="2" points="810.06,-808.49 801.52,-815.37 807.7,-809.62 800.51,-811.49 800.38,-811.01 800.25,-810.53 807.45,-808.65 799.24,-806.66 810.06,-808.49"/>
</g>
<!-- 1363 -->
<g id="node3" class="node">
<title>1363</title>
<polygon fill="none" stroke="black" points="686.64,-572.61 686.64,-587.53 661.54,-598.07 626.05,-598.07 600.96,-587.53 600.96,-572.61 626.05,-562.07 661.54,-562.07 686.64,-572.61"/>
<polygon fill="none" stroke="black" points="690.64,-569.96 690.64,-590.18 662.35,-602.07 625.25,-602.07 596.96,-590.18 596.96,-569.96 625.25,-558.07 662.35,-558.07 690.64,-569.96"/>
<text text-anchor="middle" x="643.8" y="-575.02" font-family="Times,serif" font-size="14.00">Caldera</text>
</g>
<!-- 1363&#45;&gt;1362 -->
<g id="edge3" class="edge">
<title>1363&#45;&gt;1362</title>
<path fill="none" stroke="black" stroke-width="2" d="M629.55,-602.55C585.6,-671.74 569.12,-695.65 542.78,-714.27"/>
<polygon fill="black" stroke="black" stroke-width="2" points="535.46,-719.1 541.33,-709.84 537.32,-717.27 543.53,-713.18 543.81,-713.59 544.08,-714.01 537.87,-718.1 546.28,-717.35 535.46,-719.1"/>
</g>
<!-- 13109 -->
<g id="node6" class="node">
<title>13109</title>
<polygon fill="none" stroke="black" points="730.72,-798.87 730.72,-813.78 683.88,-824.33 617.64,-824.33 570.8,-813.78 570.8,-798.87 617.64,-788.33 683.88,-788.33 730.72,-798.87"/>
<polygon fill="none" stroke="black" points="734.72,-795.67 734.72,-816.98 684.32,-828.33 617.19,-828.33 566.8,-816.98 566.8,-795.67 617.19,-784.33 684.32,-784.33 734.72,-795.67"/>
<text text-anchor="middle" x="650.76" y="-801.28" font-family="Times,serif" font-size="14.00">scancode:caldera</text>
</g>
<!-- 1363&#45;&gt;13109 -->
<g id="edge4" class="edge">
<title>1363&#45;&gt;13109</title>
<path fill="none" stroke="black" stroke-width="2" d="M646.48,-602.2C659.55,-710.09 661.71,-733.11 656.09,-773.19"/>
<polygon fill="black" stroke="black" stroke-width="2" points="654.81,-781.7 651.85,-771.14 654.7,-779.09 655.8,-771.73 656.3,-771.81 656.79,-771.88 655.69,-779.24 660.75,-772.48 654.81,-781.7"/>
</g>
<!-- 27764 -->
<g id="node8" class="node">
<title>27764</title>
<polygon fill="none" stroke="#e18745" points="916.24,-559.89 916.24,-574.8 866.81,-585.35 796.9,-585.35 747.46,-574.8 747.46,-559.89 796.9,-549.35 866.81,-549.35 916.24,-559.89"/>
<polygon fill="none" stroke="#e18745" points="920.24,-556.66 920.24,-578.04 867.23,-589.35 796.47,-589.35 743.46,-578.04 743.46,-556.66 796.47,-545.35 867.23,-545.35 920.24,-556.66"/>
<text text-anchor="middle" x="831.85" y="-562.3" font-family="Times,serif" font-size="14.00">fossology:Caldera</text>
</g>
<!-- 1363&#45;&gt;27764 -->
<g id="edge5" class="edge">
<title>1363&#45;&gt;27764</title>
<path fill="none" stroke="#e18745" stroke-width="2" d="M691.05,-582.93C722.03,-584.69 742.41,-585.44 758.46,-584.76"/>
<polygon fill="#e18745" stroke="#e18745" stroke-width="2" points="767.04,-584.18 757.37,-589.35 764.52,-584.85 757.1,-585.36 757.06,-584.86 757.03,-584.36 764.45,-583.85 756.76,-580.37 767.04,-584.18"/>
</g>
<!-- 36528 -->
<g id="node11" class="node">
<title>36528</title>
<polygon fill="none" stroke="#379469" points="651.38,-344.84 651.38,-359.75 613.31,-370.29 559.46,-370.29 521.38,-359.75 521.38,-344.84 559.46,-334.29 613.31,-334.29 651.38,-344.84"/>
<polygon fill="none" stroke="#379469" points="655.38,-341.79 655.38,-362.79 613.85,-374.29 558.91,-374.29 517.38,-362.79 517.38,-341.79 558.91,-330.29 613.85,-330.29 655.38,-341.79"/>
<text text-anchor="middle" x="586.38" y="-347.24" font-family="Times,serif" font-size="14.00">cavil:Caldera</text>
</g>
<!-- 1363&#45;&gt;36528 -->
<g id="edge6" class="edge">
<title>1363&#45;&gt;36528</title>
<path fill="none" stroke="#379469" stroke-width="2" d="M643.91,-557.89C644.37,-450.42 642.44,-430.2 609.47,-383.52"/>
<polygon fill="#379469" stroke="#379469" stroke-width="2" points="604.37,-376.45 613.87,-381.93 606.27,-378.23 610.62,-384.26 610.22,-384.56 609.81,-384.85 605.46,-378.82 606.57,-387.19 604.37,-376.45"/>
</g>
<!-- 1363&#45;&gt;40971 -->
<g id="edge7" class="edge">
<title>1363&#45;&gt;40971</title>
<path fill="none" stroke="#00876c" stroke-dasharray="5,2" d="M666.63,-600.67C779.21,-702.21 804.07,-724.47 844.83,-758.46"/>
<polygon fill="#00876c" stroke="#00876c" points="852.29,-764.67 841.72,-761.73 849.38,-762.25 844.6,-758.27 844.6,-758.27 844.6,-758.27 849.38,-762.25 847.48,-754.81 852.29,-764.67"/>
</g>
<!-- 1364 -->
<g id="node4" class="node">
<title>1364</title>
<polygon fill="none" stroke="black" points="736.84,-732.56 736.84,-747.47 691.95,-758.01 628.46,-758.01 583.57,-747.47 583.57,-732.56 628.46,-722.01 691.95,-722.01 736.84,-732.56"/>
<polygon fill="none" stroke="black" points="740.84,-729.39 740.84,-750.64 692.41,-762.01 628,-762.01 579.57,-750.64 579.57,-729.39 628,-718.01 692.41,-718.01 740.84,-729.39"/>
<text text-anchor="middle" x="660.21" y="-734.96" font-family="Times,serif" font-size="14.00">Caldera License</text>
</g>
<!-- 1364&#45;&gt;1362 -->
<g id="edge8" class="edge">
<title>1364&#45;&gt;1362</title>
<path fill="none" stroke="#b8bf62" stroke-width="2" d="M612.68,-758.85C589.96,-766.75 575.19,-768.67 556.16,-764.81"/>
<polygon fill="#b8bf62" stroke="#b8bf62" stroke-width="2" points="547.78,-762.75 558.56,-760.77 550.39,-762.87 557.61,-764.65 557.49,-765.14 557.37,-765.62 550.15,-763.85 556.42,-769.51 547.78,-762.75"/>
</g>
<!-- 1364&#45;&gt;13109 -->
<g id="edge9" class="edge">
<title>1364&#45;&gt;13109</title>
<path fill="none" stroke="#dac767" stroke-width="2" d="M659.63,-762.22C659.5,-766.28 659.35,-769.76 659.17,-772.81"/>
<polygon fill="#dac767" stroke="#dac767" stroke-width="2" points="658.3,-781.5 654.82,-771.1 658.06,-778.9 658.8,-771.5 659.29,-771.55 659.79,-771.6 659.06,-779 663.77,-771.99 658.3,-781.5"/>
</g>
<!-- 1364&#45;&gt;27764 -->
<g id="edge10" class="edge">
<title>1364&#45;&gt;27764</title>
<path fill="none" stroke="#e18745" stroke-width="2" d="M704.01,-720.35C774.24,-687.85 787.02,-673.15 818.2,-599.96"/>
<polygon fill="#e18745" stroke="#e18745" stroke-width="2" points="821.57,-591.98 821.83,-602.95 821.04,-594.54 818.14,-601.39 817.68,-601.19 817.22,-601 820.12,-594.15 813.54,-599.44 821.57,-591.98"/>
</g>
<!-- 1364&#45;&gt;40971 -->
<g id="edge11" class="edge">
<title>1364&#45;&gt;40971</title>
<path fill="none" stroke="#00876c" stroke-width="2" d="M704.98,-759.57C719.65,-765.9 732.24,-771.21 743.32,-775.62"/>
<polygon fill="#00876c" stroke="#00876c" stroke-width="2" points="751.23,-778.69 740.28,-779.27 748.66,-778.23 741.73,-775.54 741.91,-775.07 742.09,-774.6 749.03,-777.3 743.54,-770.88 751.23,-778.69"/>
</g>
<!-- 13108 -->
<g id="node5" class="node">
<title>13108</title>
<ellipse fill="none" stroke="#dac767" cx="663.4" cy="-866.48" rx="158.75" ry="28.99"/>
<text text-anchor="middle" x="663.4" y="-869.68" font-family="Times,serif" font-size="14.00" fill="gray">ScancodeData</text>
<text text-anchor="middle" x="663.4" y="-853.18" font-family="Times,serif" font-size="14.00" fill="gray">c241d63d46a62004d7b6862ade4e2fce</text>
</g>
<!-- 13108&#45;&gt;13109 -->
<g id="edge12" class="edge">
<title>13108&#45;&gt;13109</title>
<path fill="none" stroke="#dac767" d="M657.44,-837.23C657.41,-837.07 657.38,-836.91 657.34,-836.75"/>
<polygon fill="#dac767" stroke="#dac767" points="661.44,-839.15 655.91,-830.11 654.6,-840.62 661.44,-839.15"/>
</g>
<!-- 13109&#45;&gt;40971 -->
<g id="edge13" class="edge">
<title>13109&#45;&gt;40971</title>
<path fill="none" stroke="#00876c" stroke-dasharray="5,2" d="M720.81,-820.58C771.59,-829.8 794.24,-828.91 827.05,-814.87"/>
<polygon fill="#00876c" stroke="#00876c" points="835.99,-810.82 828.73,-819.04 832.55,-812.38 826.88,-814.94 826.88,-814.94 826.88,-814.94 832.55,-812.38 825.02,-810.84 835.99,-810.82"/>
</g>
<!-- 27763 -->
<g id="node7" class="node">
<title>27763</title>
<ellipse fill="none" stroke="#e18745" cx="931.68" cy="-506.21" rx="156.62" ry="28.99"/>
<text text-anchor="middle" x="931.68" y="-509.41" font-family="Times,serif" font-size="14.00" fill="gray">Fossology</text>
<text text-anchor="middle" x="931.68" y="-492.91" font-family="Times,serif" font-size="14.00" fill="gray">0315b8fd5cd3dd69d1deca8ffb2c9b16</text>
</g>
<!-- 27763&#45;&gt;27764 -->
<g id="edge14" class="edge">
<title>27763&#45;&gt;27764</title>
<path fill="none" stroke="#e18745" d="M904.21,-535.11C900.47,-537.79 896.27,-540.28 891.14,-542.89"/>
<polygon fill="#e18745" stroke="#e18745" points="889.7,-539.69 882.14,-547.11 892.68,-546.03 889.7,-539.69"/>
</g>
<!-- 28642 -->
<g id="node9" class="node">
<title>28642</title>
<ellipse fill="none" stroke="#e06f45" cx="156.36" cy="-717.22" rx="156.62" ry="28.99"/>
<text text-anchor="middle" x="156.36" y="-720.42" font-family="Times,serif" font-size="14.00" fill="gray">OrtLicenseCategorization</text>
<text text-anchor="middle" x="156.36" y="-703.92" font-family="Times,serif" font-size="14.00" fill="gray">36f10b4823770d35831fcf91e45bf792</text>
</g>
<!-- 28642&#45;&gt;1362 -->
<g id="edge15" class="edge">
<title>28642&#45;&gt;1362</title>
<path fill="none" stroke="#e06f45" d="M214.4,-744.39C269.24,-767.56 302.39,-768.55 408.04,-754.59"/>
<polygon fill="#e06f45" stroke="#e06f45" points="408.23,-758.09 417.68,-753.3 407.31,-751.15 408.23,-758.09"/>
</g>
<!-- 36527 -->
<g id="node10" class="node">
<title>36527</title>
<ellipse fill="none" stroke="#379469" cx="523.84" cy="-28.85" rx="159.28" ry="28.99"/>
<text text-anchor="middle" x="523.84" y="-32.05" font-family="Times,serif" font-size="14.00" fill="gray">CavilLicenseChange</text>
<text text-anchor="middle" x="523.84" y="-15.55" font-family="Times,serif" font-size="14.00" fill="gray">32b40f15f00b974ca10e0bb75280b933</text>
</g>
<!-- 36527&#45;&gt;36528 -->
<g id="edge16" class="edge">
<title>36527&#45;&gt;36528</title>
<path fill="none" stroke="#379469" d="M531.78,-58.26C549.26,-123.76 553.53,-147.83 581.01,-318.81"/>
<polygon fill="#379469" stroke="#379469" points="577.52,-319.21 582.57,-328.52 584.43,-318.1 577.52,-319.21"/>
</g>
<!-- 40970 -->
<g id="node12" class="node">
<title>40970</title>
<ellipse fill="none" stroke="#00876c" cx="1005.04" cy="-851.23" rx="155.56" ry="28.99"/>
<text text-anchor="middle" x="1005.04" y="-854.43" font-family="Times,serif" font-size="14.00" fill="gray">MetaeffektLicense</text>
<text text-anchor="middle" x="1005.04" y="-837.93" font-family="Times,serif" font-size="14.00" fill="gray">a5a78a7e3f0f251083ee40fe29163552</text>
</g>
<!-- 40970&#45;&gt;40971 -->
<g id="edge17" class="edge">
<title>40970&#45;&gt;40971</title>
<path fill="none" stroke="#00876c" d="M942.49,-824.51C938.12,-822.04 933.28,-819.26 927.82,-816.07"/>
<polygon fill="#00876c" stroke="#00876c" points="929.71,-813.12 919.32,-811.07 926.16,-819.15 929.71,-813.12"/>
</g>
</g>
</svg>
