<?xml version="1.0" encoding="UTF-8" standalone="no"?>
<!DOCTYPE svg PUBLIC "-//W3C//DTD SVG 1.1//EN"
 "http://www.w3.org/Graphics/SVG/1.1/DTD/svg11.dtd">
<!-- Generated by graphviz version 10.0.1 (0)
 -->
<!-- Pages: 1 -->
<svg width="2686pt" height="3054pt"
 viewBox="0.00 0.00 2686.00 3054.00" xmlns="http://www.w3.org/2000/svg" xmlns:xlink="http://www.w3.org/1999/xlink">
<g id="graph0" class="graph" transform="scale(1 1) rotate(0) translate(4 3050)">
<polygon fill="white" stroke="none" points="-4,4 -4,-3050 2682,-3050 2682,4 -4,4"/>
<!-- 5 -->
<g id="node1" class="node">
<title>5</title>
<text text-anchor="start" x="1202.34" y="-300.83" font-family="Times,serif" font-size="14.00">OSI: </text>
<text text-anchor="start" x="1231.59" y="-300.83" font-family="Times,serif" font-weight="bold" font-size="14.00" fill="#8b0000">Rejected</text>
</g>
<!-- 1473 -->
<g id="node2" class="node">
<title>1473</title>
<ellipse fill="none" stroke="#dac767" cx="1394.56" cy="-620.1" rx="155.56" ry="28.99"/>
<text text-anchor="middle" x="1394.56" y="-623.3" font-family="Times,serif" font-size="14.00" fill="gray">SPDXLicense</text>
<text text-anchor="middle" x="1394.56" y="-606.8" font-family="Times,serif" font-size="14.00" fill="gray">0a13f3ca1b35eaae266b8e30fa8ed385</text>
</g>
<!-- 5&#45;&gt;1473 -->
<g id="edge1" class="edge">
<title>5&#45;&gt;1473</title>
<path fill="none" stroke="#dac767" d="M1257.21,-322.62C1313.31,-388.87 1321.61,-406.61 1380.87,-580"/>
<polygon fill="#dac767" stroke="#dac767" points="1377.54,-581.05 1384.08,-589.39 1384.16,-578.79 1377.54,-581.05"/>
</g>
<!-- 1474 -->
<g id="node3" class="node">
<title>1474</title>
<polygon fill="none" stroke="black" points="1367.78,-1224.25 1367.78,-1239.16 1298.23,-1249.7 1199.87,-1249.7 1130.31,-1239.16 1130.31,-1224.25 1199.87,-1213.7 1298.23,-1213.7 1367.78,-1224.25"/>
<polygon fill="none" stroke="black" points="1371.78,-1220.81 1371.78,-1242.6 1298.53,-1253.7 1199.57,-1253.7 1126.31,-1242.6 1126.31,-1220.81 1199.57,-1209.7 1298.53,-1209.7 1371.78,-1220.81"/>
<polygon fill="none" stroke="black" points="1375.78,-1217.37 1375.78,-1246.04 1298.83,-1257.7 1199.26,-1257.7 1122.31,-1246.04 1122.31,-1217.37 1199.26,-1205.7 1298.83,-1205.7 1375.78,-1217.37"/>
<text text-anchor="middle" x="1249.05" y="-1226.65" font-family="Times,serif" font-size="14.00">spdx:Caldera&#45;no&#45;preamble</text>
</g>
<!-- 1473&#45;&gt;1474 -->
<g id="edge2" class="edge">
<title>1473&#45;&gt;1474</title>
<path fill="none" stroke="#dac767" d="M1382.29,-649.08C1320,-796.76 1314.56,-823.06 1255.08,-1194.06"/>
<polygon fill="#dac767" stroke="#dac767" points="1251.63,-1193.5 1253.5,-1203.93 1258.54,-1194.61 1251.63,-1193.5"/>
</g>
<!-- 7073 -->
<g id="node14" class="node">
<title>7073</title>
<polygon fill="none" stroke="#e09d4b" points="1660.37,-1709.32 1660.37,-1724.23 1585.62,-1734.78 1479.91,-1734.78 1405.17,-1724.23 1405.17,-1709.32 1479.91,-1698.78 1585.62,-1698.78 1660.37,-1709.32"/>
<polygon fill="none" stroke="#e09d4b" points="1664.37,-1705.84 1664.37,-1727.71 1585.9,-1738.78 1479.63,-1738.78 1401.17,-1727.71 1401.17,-1705.84 1479.63,-1694.78 1585.9,-1694.78 1664.37,-1705.84"/>
<text text-anchor="middle" x="1532.77" y="-1711.73" font-family="Times,serif" font-size="14.00">Fedora:Caldera&#45;no&#45;preamble</text>
</g>
<!-- 1474&#45;&gt;7073 -->
<g id="edge3" class="edge">
<title>1474&#45;&gt;7073</title>
<path fill="none" stroke="#e09d4b" stroke-width="2" d="M1284.68,-1258.12C1465.81,-1392.94 1475.68,-1413.75 1526.5,-1683.41"/>
<polygon fill="#e09d4b" stroke="#e09d4b" stroke-width="2" points="1528.11,-1691.95 1521.84,-1682.96 1527.14,-1689.53 1525.77,-1682.22 1526.26,-1682.13 1526.75,-1682.03 1528.12,-1689.34 1530.68,-1681.3 1528.11,-1691.95"/>
</g>
<!-- 14663 -->
<g id="node16" class="node">
<title>14663</title>
<polygon fill="none" stroke="black" points="1644.38,-1356.96 1644.38,-1371.87 1565.74,-1382.42 1454.53,-1382.42 1375.89,-1371.87 1375.89,-1356.96 1454.53,-1346.42 1565.74,-1346.42 1644.38,-1356.96"/>
<polygon fill="none" stroke="black" points="1648.38,-1353.46 1648.38,-1375.37 1566.01,-1386.42 1454.26,-1386.42 1371.89,-1375.37 1371.89,-1353.46 1454.26,-1342.42 1566.01,-1342.42 1648.38,-1353.46"/>
<text text-anchor="middle" x="1510.13" y="-1359.37" font-family="Times,serif" font-size="14.00">scancode:caldera&#45;no&#45;preamble</text>
</g>
<!-- 1474&#45;&gt;14663 -->
<g id="edge4" class="edge">
<title>1474&#45;&gt;14663</title>
<path fill="none" stroke="#deb256" stroke-width="2" d="M1289.53,-1258.06C1330.7,-1281.06 1395.14,-1314.09 1443.78,-1337.3"/>
<polygon fill="#deb256" stroke="#deb256" stroke-width="2" points="1451.7,-1341.05 1440.74,-1340.84 1449.17,-1340.41 1442.45,-1337.22 1442.66,-1336.77 1442.88,-1336.32 1449.6,-1339.5 1444.59,-1332.7 1451.7,-1341.05"/>
</g>
<!-- 46814 -->
<g id="node25" class="node">
<title>46814</title>
<polygon fill="none" stroke="#379469" points="1050.23,-1555.72 1050.23,-1570.63 955.04,-1581.17 820.42,-1581.17 725.23,-1570.63 725.23,-1555.72 820.42,-1545.17 955.04,-1545.17 1050.23,-1555.72"/>
<polygon fill="none" stroke="#379469" points="1054.23,-1552.13 1054.23,-1574.21 955.26,-1585.17 820.2,-1585.17 721.23,-1574.21 721.23,-1552.13 820.2,-1541.17 955.26,-1541.17 1054.23,-1552.13"/>
<text text-anchor="middle" x="887.73" y="-1558.12" font-family="Times,serif" font-size="14.00">metaeffekt:Caldera&#45;Copyright&#45;Notice</text>
</g>
<!-- 1474&#45;&gt;46814 -->
<g id="edge5" class="edge">
<title>1474&#45;&gt;46814</title>
<path fill="none" stroke="#379469" stroke-width="2" d="M1193.66,-1257.33C991.66,-1351.36 974.15,-1369.45 902.07,-1530.9"/>
<polygon fill="#379469" stroke="#379469" stroke-width="2" points="898.68,-1538.49 898.64,-1527.52 899.27,-1535.95 902.3,-1529.15 902.75,-1529.36 903.21,-1529.56 900.18,-1536.35 906.86,-1531.19 898.68,-1538.49"/>
</g>
<!-- 1475 -->
<g id="node4" class="node">
<title>1475</title>
<polygon fill="none" stroke="black" points="1340.37,-1540.38 1340.37,-1555.29 1283.47,-1565.83 1203,-1565.83 1146.11,-1555.29 1146.11,-1540.38 1203,-1529.83 1283.47,-1529.83 1340.37,-1540.38"/>
<polygon fill="none" stroke="black" points="1344.37,-1537.05 1344.37,-1558.61 1283.84,-1569.83 1202.64,-1569.83 1142.11,-1558.61 1142.11,-1537.05 1202.64,-1525.83 1283.84,-1525.83 1344.37,-1537.05"/>
<text text-anchor="middle" x="1243.24" y="-1542.78" font-family="Times,serif" font-size="14.00">Caldera&#45;no&#45;preamble</text>
</g>
<!-- 1475&#45;&gt;1474 -->
<g id="edge6" class="edge">
<title>1475&#45;&gt;1474</title>
<path fill="none" stroke="black" stroke-width="2" d="M1239.72,-1525.6C1214.03,-1363 1211.61,-1338.33 1235.82,-1268.31"/>
<polygon fill="black" stroke="black" stroke-width="2" points="1238.61,-1260.41 1239.53,-1271.33 1238.23,-1262.99 1235.76,-1270 1235.28,-1269.84 1234.81,-1269.67 1237.28,-1262.66 1231.04,-1268.34 1238.61,-1260.41"/>
</g>
<!-- 1475&#45;&gt;7073 -->
<g id="edge7" class="edge">
<title>1475&#45;&gt;7073</title>
<path fill="none" stroke="#e09d4b" stroke-width="2" d="M1269.54,-1570.07C1363.14,-1649.1 1399.27,-1678.04 1442.27,-1694.41"/>
<polygon fill="#e09d4b" stroke="#e09d4b" stroke-width="2" points="1450.48,-1697.31 1439.56,-1698.22 1447.9,-1696.92 1440.89,-1694.45 1441.06,-1693.98 1441.22,-1693.5 1448.23,-1695.98 1442.55,-1689.73 1450.48,-1697.31"/>
</g>
<!-- 1475&#45;&gt;14663 -->
<g id="edge8" class="edge">
<title>1475&#45;&gt;14663</title>
<path fill="none" stroke="black" stroke-width="2" d="M1268.04,-1525.61C1365.45,-1438.39 1397.86,-1410.7 1440.52,-1390.83"/>
<polygon fill="black" stroke="black" stroke-width="2" points="1448.49,-1387.29 1441.17,-1395.46 1446.35,-1388.79 1439.55,-1391.81 1439.35,-1391.35 1439.14,-1390.89 1445.94,-1387.88 1437.52,-1387.24 1448.49,-1387.29"/>
</g>
<!-- 41227 -->
<g id="node23" class="node">
<title>41227</title>
<polygon fill="none" stroke="#379469" points="1054.96,-1382.57 1054.96,-1397.48 985.08,-1408.02 886.25,-1408.02 816.38,-1397.48 816.38,-1382.57 886.25,-1372.02 985.08,-1372.02 1054.96,-1382.57"/>
<polygon fill="none" stroke="#379469" points="1058.96,-1379.13 1058.96,-1400.92 985.38,-1412.02 885.95,-1412.02 812.38,-1400.92 812.38,-1379.13 885.95,-1368.02 985.38,-1368.02 1058.96,-1379.13"/>
<text text-anchor="middle" x="935.67" y="-1384.97" font-family="Times,serif" font-size="14.00">cavil:Caldera&#45;no&#45;preamble</text>
</g>
<!-- 1475&#45;&gt;41227 -->
<g id="edge9" class="edge">
<title>1475&#45;&gt;41227</title>
<path fill="none" stroke="#379469" stroke-width="2" d="M1193.89,-1526.96C1054.31,-1467.84 1023.45,-1453.42 974.8,-1418.81"/>
<polygon fill="#379469" stroke="#379469" stroke-width="2" points="967.8,-1413.76 978.54,-1415.95 970.17,-1414.85 976.2,-1419.2 975.91,-1419.61 975.62,-1420.01 969.59,-1415.67 973.28,-1423.26 967.8,-1413.76"/>
</g>
<!-- 1475&#45;&gt;46814 -->
<g id="edge10" class="edge">
<title>1475&#45;&gt;46814</title>
<path fill="none" stroke="#379469" stroke-dasharray="5,2" d="M1141.8,-1554.36C1111.43,-1556.29 1086.64,-1557.83 1065.65,-1559.04"/>
<polygon fill="#379469" stroke="#379469" points="1055.91,-1559.6 1065.64,-1554.54 1059.68,-1559.38 1065.89,-1559.03 1065.89,-1559.03 1065.89,-1559.03 1059.68,-1559.38 1066.15,-1563.52 1055.91,-1559.6"/>
</g>
<!-- 1476 -->
<g id="node5" class="node">
<title>1476</title>
<polygon fill="none" stroke="black" points="1371.64,-1295.58 1371.64,-1310.49 1279.7,-1321.04 1149.67,-1321.04 1057.72,-1310.49 1057.72,-1295.58 1149.67,-1285.04 1279.7,-1285.04 1371.64,-1295.58"/>
<polygon fill="none" stroke="black" points="1375.64,-1292.01 1375.64,-1314.06 1279.92,-1325.04 1149.44,-1325.04 1053.72,-1314.06 1053.72,-1292.01 1149.44,-1281.04 1279.92,-1281.04 1375.64,-1292.01"/>
<text text-anchor="middle" x="1214.68" y="-1297.99" font-family="Times,serif" font-size="14.00">Caldera License (without preamble)</text>
</g>
<!-- 1476&#45;&gt;1474 -->
<g id="edge11" class="edge">
<title>1476&#45;&gt;1474</title>
<path fill="none" stroke="#dac767" stroke-width="2" d="M1219.68,-1280.8C1220.82,-1275.97 1221.87,-1271.86 1222.91,-1268.29"/>
<polygon fill="#dac767" stroke="#dac767" stroke-width="2" points="1225.75,-1260.25 1226.66,-1271.18 1225.37,-1262.83 1222.89,-1269.84 1222.42,-1269.68 1221.95,-1269.51 1224.43,-1262.5 1218.18,-1268.18 1225.75,-1260.25"/>
</g>
<!-- 1476&#45;&gt;14663 -->
<g id="edge12" class="edge">
<title>1476&#45;&gt;14663</title>
<path fill="none" stroke="#deb256" stroke-width="2" d="M1326.72,-1285.93C1374.53,-1283.8 1403.83,-1296.99 1466.1,-1336.2"/>
<polygon fill="#deb256" stroke="#deb256" stroke-width="2" points="1473.47,-1340.87 1462.61,-1339.32 1471.04,-1339.92 1464.75,-1335.94 1465.02,-1335.52 1465.29,-1335.1 1471.57,-1339.07 1467.43,-1331.72 1473.47,-1340.87"/>
</g>
<!-- 1476&#45;&gt;46814 -->
<g id="edge13" class="edge">
<title>1476&#45;&gt;46814</title>
<path fill="none" stroke="#379469" stroke-dasharray="5,2" d="M1162.88,-1325.48C986.41,-1402.37 967.19,-1417.83 905.15,-1531.06"/>
<polygon fill="#379469" stroke="#379469" points="900.4,-1539.78 901.24,-1528.84 902.21,-1536.46 905.19,-1531 905.19,-1531 905.19,-1531 902.21,-1536.46 909.14,-1533.15 900.4,-1539.78"/>
</g>
<!-- 66913 -->
<g id="node31" class="node">
<title>66913</title>
<polygon fill="none" stroke="#00876c" points="1375.62,-1712.9 1375.62,-1727.82 1271.02,-1738.36 1123.09,-1738.36 1018.49,-1727.82 1018.49,-1712.9 1123.09,-1702.36 1271.02,-1702.36 1375.62,-1712.9"/>
<polygon fill="none" stroke="#00876c" points="1379.62,-1709.29 1379.62,-1731.43 1271.22,-1742.36 1122.89,-1742.36 1014.49,-1731.43 1014.49,-1709.29 1122.89,-1698.36 1271.22,-1698.36 1379.62,-1709.29"/>
<text text-anchor="middle" x="1197.05" y="-1715.31" font-family="Times,serif" font-size="14.00">spdx:Caldera License (without preamble)</text>
</g>
<!-- 1476&#45;&gt;66913 -->
<g id="edge14" class="edge">
<title>1476&#45;&gt;66913</title>
<path fill="none" stroke="#00876c" stroke-width="2" d="M1204.44,-1325.49C1127.27,-1495 1125.45,-1511.54 1185.79,-1687.64"/>
<polygon fill="#00876c" stroke="#00876c" stroke-width="2" points="1188.58,-1695.77 1181.08,-1687.77 1187.28,-1693.51 1184.86,-1686.47 1185.33,-1686.31 1185.81,-1686.15 1188.22,-1693.18 1189.59,-1684.85 1188.58,-1695.77"/>
</g>
<!-- 1477 -->
<g id="node6" class="node">
<title>1477</title>
<text text-anchor="middle" x="1759.42" y="-216.31" font-family="Times,serif" font-size="14.00">SPDXLicense:</text>
<text text-anchor="middle" x="1759.42" y="-199.81" font-family="Times,serif" font-size="14.00">This is identical to Caldera License, but does not include first paragraph.</text>
</g>
<!-- 1477&#45;&gt;1473 -->
<g id="edge15" class="edge">
<title>1477&#45;&gt;1473</title>
<path fill="none" stroke="#dac767" d="M1726,-233.44C1604.72,-307.86 1586.1,-330.94 1419.92,-581.79"/>
<polygon fill="#dac767" stroke="#dac767" points="1417.13,-579.66 1414.53,-589.93 1422.97,-583.52 1417.13,-579.66"/>
</g>
<!-- 1478 -->
<g id="node7" class="node">
<title>1478</title>
<text text-anchor="middle" x="1467.04" y="-226.98" font-family="Times,serif" font-size="14.00">$TEXT</text>
</g>
<!-- 1478&#45;&gt;1473 -->
<g id="edge16" class="edge">
<title>1478&#45;&gt;1473</title>
<path fill="none" stroke="#dac767" d="M1462.43,-249.98C1438.65,-342.75 1435.36,-360.47 1400.95,-579.37"/>
<polygon fill="#dac767" stroke="#dac767" points="1397.51,-578.72 1399.42,-589.14 1404.43,-579.8 1397.51,-578.72"/>
</g>
<!-- 1479 -->
<g id="node8" class="node">
<title>1479</title>
<text text-anchor="middle" x="1494.66" y="-12.99" font-family="Times,serif" font-size="14.00">$TEXT</text>
</g>
<!-- 1479&#45;&gt;1478 -->
<g id="edge17" class="edge">
<title>1479&#45;&gt;1478</title>
<path fill="none" stroke="#dac767" d="M1492.04,-35.8C1485.56,-79.98 1483.65,-95.03 1470.55,-203.12"/>
<polygon fill="#dac767" stroke="#dac767" points="1467.11,-202.38 1469.38,-212.73 1474.06,-203.22 1467.11,-202.38"/>
</g>
<!-- 1480 -->
<g id="node9" class="node">
<title>1480</title>
<text text-anchor="middle" x="1830.79" y="-688.07" font-family="Times,serif" font-size="14.00">https://github.com/apache/apr/blob/trunk/LICENSE#L298C6&#45;L298C29</text>
</g>
<!-- 1480&#45;&gt;1473 -->
<g id="edge18" class="edge">
<title>1480&#45;&gt;1473</title>
<path fill="none" stroke="#dac767" d="M1802.28,-675.16C1673.54,-594.3 1638.58,-578.53 1516.55,-597.56"/>
<polygon fill="#dac767" stroke="#dac767" points="1516.06,-594.09 1506.75,-599.14 1517.18,-601 1516.06,-594.09"/>
</g>
<!-- 14662 -->
<g id="node15" class="node">
<title>14662</title>
<ellipse fill="none" stroke="#deb256" cx="2076.75" cy="-1146.66" rx="162.46" ry="28.99"/>
<text text-anchor="middle" x="2076.75" y="-1149.86" font-family="Times,serif" font-size="14.00" fill="gray">ScancodeData</text>
<text text-anchor="middle" x="2076.75" y="-1133.36" font-family="Times,serif" font-size="14.00" fill="gray">b04271b676994790e7bb0a980ebb2318</text>
</g>
<!-- 1480&#45;&gt;14662 -->
<g id="edge19" class="edge">
<title>1480&#45;&gt;14662</title>
<path fill="none" stroke="#deb256" d="M1853.48,-710.97C2018.93,-841.35 2028.8,-858.16 2070.06,-1106.17"/>
<polygon fill="#deb256" stroke="#deb256" points="2066.58,-1106.6 2071.67,-1115.89 2073.49,-1105.45 2066.58,-1106.6"/>
</g>
<!-- 5550 -->
<g id="node10" class="node">
<title>5550</title>
<text text-anchor="middle" x="2465.06" y="-1082.51" font-family="Times,serif" font-size="14.00">LicenseType Permissive</text>
</g>
<!-- 5550&#45;&gt;14662 -->
<g id="edge20" class="edge">
<title>5550&#45;&gt;14662</title>
<path fill="none" stroke="#deb256" d="M2390.55,-1087.45C2340.56,-1089.06 2299.29,-1096.34 2188.83,-1121.14"/>
<polygon fill="#deb256" stroke="#deb256" points="2188.39,-1117.65 2179.4,-1123.26 2189.92,-1124.48 2188.39,-1117.65"/>
</g>
<!-- 6592 -->
<g id="node11" class="node">
<title>6592</title>
<text text-anchor="middle" x="1902.47" y="-2575.84" font-family="Times,serif" font-size="14.00">[&quot;allowed&quot;]</text>
</g>
<!-- 7072 -->
<g id="node13" class="node">
<title>7072</title>
<ellipse fill="none" stroke="#e09d4b" cx="1754.57" cy="-2225.47" rx="156.09" ry="28.99"/>
<text text-anchor="middle" x="1754.57" y="-2228.67" font-family="Times,serif" font-size="14.00" fill="gray">FedoraEntry</text>
<text text-anchor="middle" x="1754.57" y="-2212.17" font-family="Times,serif" font-size="14.00" fill="gray">bd2c08ed0a8addbfebea1c4de53eee73</text>
</g>
<!-- 6592&#45;&gt;7072 -->
<g id="edge21" class="edge">
<title>6592&#45;&gt;7072</title>
<path fill="none" stroke="#e09d4b" d="M1896.58,-2563.13C1867.45,-2475.32 1860.44,-2458.46 1772.52,-2264.96"/>
<polygon fill="#e09d4b" stroke="#e09d4b" points="1775.81,-2263.74 1768.48,-2256.08 1769.43,-2266.64 1775.81,-2263.74"/>
</g>
<!-- 6593 -->
<g id="node12" class="node">
<title>6593</title>
<text text-anchor="start" x="2017.2" y="-3029.87" font-family="Times,serif" font-size="14.00">Fedora: </text>
<text text-anchor="start" x="2062.2" y="-3029.87" font-family="Times,serif" font-weight="bold" font-size="14.00" fill="#228b22">allowed</text>
<text text-anchor="start" x="1853.32" y="-3015.87" font-family="Times,serif" font-size="14.00">A license is allowed if Fedora determines that the license is a free software /</text>
<text text-anchor="start" x="1848.07" y="-3001.87" font-family="Times,serif" font-size="14.00">open source license. At a high level, the inquiry involves determining whether</text>
<text text-anchor="start" x="1846.95" y="-2987.87" font-family="Times,serif" font-size="14.00">the license provides software freedom, and (equivalently) making sure that the</text>
<text text-anchor="start" x="1857.07" y="-2973.87" font-family="Times,serif" font-size="14.00">license does not place burdens on users&#39; exercise of its permissions that are</text>
<text text-anchor="start" x="1856.7" y="-2959.87" font-family="Times,serif" font-size="14.00">inconsistent with evolving community norms and traditions around what is</text>
<text text-anchor="start" x="1848.45" y="-2945.87" font-family="Times,serif" font-size="14.00">acceptable in a free software / open source license. See below for more on the</text>
<text text-anchor="start" x="1968.45" y="-2931.87" font-family="Times,serif" font-size="14.00">history of Fedora licensing policy.</text>
</g>
<!-- 6593&#45;&gt;6592 -->
<g id="edge22" class="edge">
<title>6593&#45;&gt;6592</title>
<path fill="none" stroke="#e09d4b" d="M2042.45,-2926.35C2018.61,-2854.49 2000.94,-2812.31 1914.54,-2609.26"/>
<polygon fill="#e09d4b" stroke="#e09d4b" points="1917.83,-2608.07 1910.7,-2600.23 1911.39,-2610.81 1917.83,-2608.07"/>
</g>
<!-- 7072&#45;&gt;7073 -->
<g id="edge23" class="edge">
<title>7072&#45;&gt;7073</title>
<path fill="none" stroke="#e09d4b" d="M1745.86,-2196.35C1706.77,-2066.16 1695.82,-2042.49 1548.99,-1749.17"/>
<polygon fill="#e09d4b" stroke="#e09d4b" points="1552.22,-1747.8 1544.61,-1740.43 1545.96,-1750.94 1552.22,-1747.8"/>
</g>
<!-- 14662&#45;&gt;14663 -->
<g id="edge24" class="edge">
<title>14662&#45;&gt;14663</title>
<path fill="none" stroke="#deb256" d="M1986.38,-1171.13C1889.75,-1198.73 1829.25,-1224.28 1571.38,-1337.51"/>
<polygon fill="#deb256" stroke="#deb256" points="1570.07,-1334.27 1562.32,-1341.49 1572.88,-1340.67 1570.07,-1334.27"/>
</g>
<!-- 14663&#45;&gt;1474 -->
<g id="edge25" class="edge">
<title>14663&#45;&gt;1474</title>
<path fill="none" stroke="#00876c" stroke-width="2" d="M1476.56,-1341.95C1437.24,-1319.63 1371.07,-1285.54 1320.18,-1261.11"/>
<polygon fill="#00876c" stroke="#00876c" stroke-width="2" points="1312.42,-1257.41 1323.39,-1257.65 1314.95,-1258.06 1321.66,-1261.26 1321.45,-1261.71 1321.23,-1262.16 1314.52,-1258.96 1319.51,-1265.78 1312.42,-1257.41"/>
</g>
<!-- 14663&#45;&gt;46814 -->
<g id="edge26" class="edge">
<title>14663&#45;&gt;46814</title>
<path fill="none" stroke="#379469" stroke-dasharray="5,2" d="M1389.04,-1378.17C1100.86,-1411.7 1063.32,-1426.2 925.13,-1533.83"/>
<polygon fill="#379469" stroke="#379469" points="917.27,-1539.97 922.38,-1530.26 920.25,-1537.64 925.15,-1533.81 925.15,-1533.81 925.15,-1533.81 920.25,-1537.64 927.92,-1537.36 917.27,-1539.97"/>
</g>
<!-- 14664 -->
<g id="node17" class="node">
<title>14664</title>
<text text-anchor="middle" x="2506.43" y="-871.35" font-family="Times,serif" font-size="14.00">ScancodeData:</text>
<text text-anchor="middle" x="2506.43" y="-854.85" font-family="Times,serif" font-size="14.00">Added in SPDX license list 3.23</text>
<text text-anchor="middle" x="2506.43" y="-838.35" font-family="Times,serif" font-size="14.00">This was previously the license rule: bsd&#45;original_46.RULE</text>
</g>
<!-- 14664&#45;&gt;14662 -->
<g id="edge27" class="edge">
<title>14664&#45;&gt;14662</title>
<path fill="none" stroke="#deb256" d="M2468.4,-888.61C2384.8,-951.44 2352.36,-972.63 2131.25,-1112.25"/>
<polygon fill="#deb256" stroke="#deb256" points="2129.47,-1109.24 2122.88,-1117.53 2133.21,-1115.16 2129.47,-1109.24"/>
</g>
<!-- 14665 -->
<g id="node18" class="node">
<title>14665</title>
<text text-anchor="middle" x="2384.81" y="-1283.63" font-family="Times,serif" font-size="14.00">$TEXT</text>
</g>
<!-- 14665&#45;&gt;14662 -->
<g id="edge28" class="edge">
<title>14665&#45;&gt;14662</title>
<path fill="none" stroke="#deb256" d="M2367.55,-1270.87C2310.62,-1212.55 2289.41,-1197.47 2188.67,-1172.49"/>
<polygon fill="#deb256" stroke="#deb256" points="2189.69,-1169.14 2179.14,-1170.16 2188.03,-1175.94 2189.69,-1169.14"/>
</g>
<!-- 35432 -->
<g id="node19" class="node">
<title>35432</title>
<text text-anchor="middle" x="711.84" y="-824.86" font-family="Times,serif" font-size="14.00">LicenseTag (ScopedLicenseTag &quot;OrtLicenseCategorization&quot; &quot;permissive&quot; NoLicenseTagText)</text>
</g>
<!-- 35625 -->
<g id="node21" class="node">
<title>35625</title>
<ellipse fill="none" stroke="#d43d51" cx="800.6" cy="-886.58" rx="156.09" ry="28.99"/>
<text text-anchor="middle" x="800.6" y="-889.78" font-family="Times,serif" font-size="14.00" fill="gray">OrtLicenseCategorization</text>
<text text-anchor="middle" x="800.6" y="-873.28" font-family="Times,serif" font-size="14.00" fill="gray">4a67883d63cf593ba47cfbf74da05d9e</text>
</g>
<!-- 35432&#45;&gt;35625 -->
<g id="edge29" class="edge">
<title>35432&#45;&gt;35625</title>
<path fill="none" stroke="#d43d51" d="M747.93,-847.75C749.78,-848.96 751.75,-850.3 753.86,-851.77"/>
<polygon fill="#d43d51" stroke="#d43d51" points="751.47,-854.36 761.63,-857.34 755.54,-848.67 751.47,-854.36"/>
</g>
<!-- 35433 -->
<g id="node20" class="node">
<title>35433</title>
<text text-anchor="middle" x="294.33" y="-464.09" font-family="Times,serif" font-size="14.00">LicenseTag (ScopedLicenseTag &quot;OrtLicenseCategorization&quot; &quot;include&#45;in&#45;notice&#45;file&quot; NoLicenseTagText)</text>
</g>
<!-- 35433&#45;&gt;35625 -->
<g id="edge30" class="edge">
<title>35433&#45;&gt;35625</title>
<path fill="none" stroke="#d43d51" d="M320.19,-487.03C452.78,-578.83 475.04,-597.48 759.95,-850.48"/>
<polygon fill="#d43d51" stroke="#d43d51" points="757.53,-853 767.33,-857.03 762.17,-847.77 757.53,-853"/>
</g>
<!-- 35625&#45;&gt;1474 -->
<g id="edge31" class="edge">
<title>35625&#45;&gt;1474</title>
<path fill="none" stroke="#d43d51" d="M856.09,-914.07C960.62,-967.09 995.22,-996.9 1212.55,-1197.93"/>
<polygon fill="#d43d51" stroke="#d43d51" points="1209.86,-1200.21 1219.58,-1204.43 1214.62,-1195.07 1209.86,-1200.21"/>
</g>
<!-- 41226 -->
<g id="node22" class="node">
<title>41226</title>
<ellipse fill="none" stroke="#379469" cx="636.09" cy="-1448.92" rx="160.87" ry="28.99"/>
<text text-anchor="middle" x="636.09" y="-1452.12" font-family="Times,serif" font-size="14.00" fill="gray">CavilLicenseChange</text>
<text text-anchor="middle" x="636.09" y="-1435.62" font-family="Times,serif" font-size="14.00" fill="gray">9443a62bcda29c0a22cb64816d698288</text>
</g>
<!-- 41226&#45;&gt;41227 -->
<g id="edge32" class="edge">
<title>41226&#45;&gt;41227</title>
<path fill="none" stroke="#379469" d="M700.14,-1421.9C726.47,-1412.81 752.65,-1407.78 800.69,-1402.5"/>
<polygon fill="#379469" stroke="#379469" points="800.9,-1405.99 810.47,-1401.45 800.15,-1399.03 800.9,-1405.99"/>
</g>
<!-- 46813 -->
<g id="node24" class="node">
<title>46813</title>
<ellipse fill="none" stroke="#379469" cx="765" cy="-2059.81" rx="157.68" ry="28.99"/>
<text text-anchor="middle" x="765" y="-2063.01" font-family="Times,serif" font-size="14.00" fill="gray">MetaeffektLicense</text>
<text text-anchor="middle" x="765" y="-2046.51" font-family="Times,serif" font-size="14.00" fill="gray">d395ad7d8a5f9ea9c37b7b9d4406f7da</text>
</g>
<!-- 46813&#45;&gt;46814 -->
<g id="edge33" class="edge">
<title>46813&#45;&gt;46814</title>
<path fill="none" stroke="#379469" d="M760.92,-2030.57C738.53,-1867.6 744.45,-1847.63 871.37,-1595.63"/>
<polygon fill="#379469" stroke="#379469" points="874.47,-1597.26 875.84,-1586.76 868.22,-1594.11 874.47,-1597.26"/>
</g>
<!-- 46815 -->
<g id="node26" class="node">
<title>46815</title>
<polygon fill="none" stroke="#379469" points="712.49,-1917.47 712.49,-1932.38 644.24,-1942.93 547.71,-1942.93 479.45,-1932.38 479.45,-1917.47 547.71,-1906.93 644.24,-1906.93 712.49,-1917.47"/>
<polygon fill="none" stroke="#379469" points="716.49,-1914.04 716.49,-1935.81 644.55,-1946.93 547.4,-1946.93 475.45,-1935.81 475.45,-1914.04 547.4,-1902.93 644.55,-1902.93 716.49,-1914.04"/>
<text text-anchor="middle" x="595.97" y="-1919.88" font-family="Times,serif" font-size="14.00">Caldera&#45;Copyright&#45;Notice</text>
</g>
<!-- 46815&#45;&gt;46814 -->
<g id="edge34" class="edge">
<title>46815&#45;&gt;46814</title>
<path fill="none" stroke="#379469" stroke-width="2" d="M604.82,-1902.6C652.72,-1782.29 665.67,-1766.49 855.13,-1593"/>
<polygon fill="#379469" stroke="#379469" stroke-width="2" points="861.61,-1587.07 857.27,-1597.14 860.06,-1589.17 854.57,-1594.19 854.23,-1593.82 853.9,-1593.45 859.38,-1588.43 851.19,-1590.5 861.61,-1587.07"/>
</g>
<!-- 46816 -->
<g id="node27" class="node">
<title>46816</title>
<polygon fill="none" stroke="#379469" points="497.68,-1374.7 497.68,-1389.62 382.05,-1400.16 218.51,-1400.16 102.88,-1389.62 102.88,-1374.7 218.51,-1364.16 382.05,-1364.16 497.68,-1374.7"/>
<polygon fill="none" stroke="#379469" points="501.68,-1371.05 501.68,-1393.27 382.23,-1404.16 218.33,-1404.16 98.88,-1393.27 98.88,-1371.05 218.33,-1360.16 382.23,-1360.16 501.68,-1371.05"/>
<text text-anchor="middle" x="300.28" y="-1377.11" font-family="Times,serif" font-size="14.00">metaeffekt:Caldera License (copyright notice)</text>
</g>
<!-- 46816&#45;&gt;46814 -->
<g id="edge35" class="edge">
<title>46816&#45;&gt;46814</title>
<path fill="none" stroke="#379469" stroke-width="2" d="M347.31,-1404.66C463.54,-1459.69 505.37,-1472.19 790.96,-1540.19"/>
<polygon fill="#379469" stroke="#379469" stroke-width="2" points="799.29,-1542.17 788.52,-1544.23 796.68,-1542.06 789.45,-1540.34 789.56,-1539.85 789.68,-1539.37 796.91,-1541.09 790.61,-1535.48 799.29,-1542.17"/>
</g>
<!-- 46817 -->
<g id="node28" class="node">
<title>46817</title>
<polygon fill="none" stroke="#379469" points="602.05,-1322.33 602.05,-1337.24 513.35,-1347.78 387.9,-1347.78 299.2,-1337.24 299.2,-1322.33 387.9,-1311.78 513.35,-1311.78 602.05,-1322.33"/>
<polygon fill="none" stroke="#379469" points="606.05,-1318.77 606.05,-1340.79 513.58,-1351.78 387.67,-1351.78 295.2,-1340.79 295.2,-1318.77 387.67,-1307.78 513.58,-1307.78 606.05,-1318.77"/>
<text text-anchor="middle" x="450.63" y="-1324.73" font-family="Times,serif" font-size="14.00">Caldera License (copyright notice)</text>
</g>
<!-- 46817&#45;&gt;46814 -->
<g id="edge36" class="edge">
<title>46817&#45;&gt;46814</title>
<path fill="none" stroke="#379469" stroke-dasharray="5,2" d="M476.17,-1352.15C564.79,-1429.21 590.79,-1443.04 822.02,-1536.63"/>
<polygon fill="#379469" stroke="#379469" points="830.98,-1540.25 820.02,-1540.67 827.48,-1538.83 821.71,-1536.5 821.71,-1536.5 821.71,-1536.5 827.48,-1538.83 823.4,-1532.33 830.98,-1540.25"/>
</g>
<!-- 46817&#45;&gt;46816 -->
<g id="edge37" class="edge">
<title>46817&#45;&gt;46816</title>
<path fill="none" stroke="#379469" stroke-width="2" d="M360.87,-1349.04C354.33,-1350.95 348.77,-1352.9 343.67,-1355.06"/>
<polygon fill="#379469" stroke="#379469" stroke-width="2" points="335.86,-1358.82 342.92,-1350.43 337.95,-1357.26 344.65,-1354.04 344.87,-1354.49 345.09,-1354.94 338.38,-1358.16 346.82,-1358.54 335.86,-1358.82"/>
</g>
<!-- 46818 -->
<g id="node29" class="node">
<title>46818</title>
<polygon fill="none" stroke="#379469" points="588.65,-1756.45 588.65,-1771.36 521.04,-1781.9 425.43,-1781.9 357.82,-1771.36 357.82,-1756.45 425.43,-1745.9 521.04,-1745.9 588.65,-1756.45"/>
<text text-anchor="middle" x="473.24" y="-1758.85" font-family="Times,serif" font-size="14.00">Caldera Copyright Notice</text>
</g>
<!-- 46818&#45;&gt;46814 -->
<g id="edge38" class="edge">
<title>46818&#45;&gt;46814</title>
<path fill="none" stroke="#379469" stroke-dasharray="5,2" d="M499.93,-1745.46C584.34,-1687.5 610.35,-1674.94 821.81,-1589.71"/>
<polygon fill="#379469" stroke="#379469" points="830.89,-1586.05 823.29,-1593.96 827.38,-1587.46 821.61,-1589.79 821.61,-1589.79 821.61,-1589.79 827.38,-1587.46 819.93,-1585.61 830.89,-1586.05"/>
</g>
<!-- 66912 -->
<g id="node30" class="node">
<title>66912</title>
<ellipse fill="none" stroke="#00876c" cx="1697.91" cy="-1259.13" rx="153.97" ry="28.99"/>
<text text-anchor="middle" x="1697.91" y="-1262.33" font-family="Times,serif" font-size="14.00" fill="gray">LicenseLynx</text>
<text text-anchor="middle" x="1697.91" y="-1245.83" font-family="Times,serif" font-size="14.00" fill="gray">81f4ab0a62504f2ce9a6231e9fccea30</text>
</g>
<!-- 66912&#45;&gt;1474 -->
<g id="edge39" class="edge">
<title>66912&#45;&gt;1474</title>
<path fill="none" stroke="#00876c" d="M1643.63,-1231.65C1530.31,-1175.52 1494.58,-1171.49 1344.2,-1207.81"/>
<polygon fill="#00876c" stroke="#00876c" points="1343.53,-1204.37 1334.64,-1210.14 1345.19,-1211.17 1343.53,-1204.37"/>
</g>
<!-- 66913&#45;&gt;1474 -->
<g id="edge40" class="edge">
<title>66913&#45;&gt;1474</title>
<path fill="none" stroke="#00876c" stroke-width="2" d="M1191.86,-1697.91C1135.82,-1455.32 1135.02,-1435.16 1228.79,-1267.68"/>
<polygon fill="#00876c" stroke="#00876c" stroke-width="2" points="1233.02,-1260.14 1232.05,-1271.06 1232.2,-1262.62 1228.56,-1269.11 1228.13,-1268.86 1227.69,-1268.62 1231.33,-1262.13 1224.2,-1266.66 1233.02,-1260.14"/>
</g>
</g>
</svg>
