<?xml version="1.0" encoding="UTF-8" standalone="no"?>
<!DOCTYPE svg PUBLIC "-//W3C//DTD SVG 1.1//EN"
 "http://www.w3.org/Graphics/SVG/1.1/DTD/svg11.dtd">
<!-- Generated by graphviz version 10.0.1 (0)
 -->
<!-- Pages: 1 -->
<svg width="2089pt" height="1988pt"
 viewBox="0.00 0.00 2089.00 1988.00" xmlns="http://www.w3.org/2000/svg" xmlns:xlink="http://www.w3.org/1999/xlink">
<g id="graph0" class="graph" transform="scale(1 1) rotate(0) translate(4 1984)">
<polygon fill="white" stroke="none" points="-4,4 -4,-1984 2085,-1984 2085,4 -4,4"/>
<!-- 1001 -->
<g id="node1" class="node">
<title>1001</title>
<ellipse fill="none" stroke="#b8bf62" cx="1775.73" cy="-565.7" rx="151.85" ry="28.99"/>
<text text-anchor="middle" x="1775.73" y="-568.9" font-family="Times,serif" font-size="14.00" fill="gray">SPDXLicense</text>
<text text-anchor="middle" x="1775.73" y="-552.4" font-family="Times,serif" font-size="14.00" fill="gray">df8860f247273efaa639d2f00fb6a6cf</text>
</g>
<!-- 1002 -->
<g id="node2" class="node">
<title>1002</title>
<polygon fill="none" stroke="black" points="1582.69,-880.96 1582.69,-895.87 1517.03,-906.41 1424.18,-906.41 1358.52,-895.87 1358.52,-880.96 1424.18,-870.41 1517.03,-870.41 1582.69,-880.96"/>
<polygon fill="none" stroke="black" points="1586.69,-877.55 1586.69,-899.28 1517.35,-910.41 1423.86,-910.41 1354.52,-899.28 1354.52,-877.55 1423.86,-866.41 1517.35,-866.41 1586.69,-877.55"/>
<polygon fill="none" stroke="black" points="1590.69,-874.14 1590.69,-902.69 1517.67,-914.41 1423.54,-914.41 1350.52,-902.69 1350.52,-874.14 1423.54,-862.41 1517.67,-862.41 1590.69,-874.14"/>
<text text-anchor="middle" x="1470.61" y="-883.36" font-family="Times,serif" font-size="14.00">spdx:CC&#45;BY&#45;NC&#45;SA&#45;3.0</text>
</g>
<!-- 1001&#45;&gt;1002 -->
<g id="edge1" class="edge">
<title>1001&#45;&gt;1002</title>
<path fill="none" stroke="#b8bf62" d="M1759.03,-594.7C1706.2,-685.54 1687.04,-704.79 1510.25,-854.81"/>
<polygon fill="#b8bf62" stroke="#b8bf62" points="1508.23,-851.93 1502.86,-861.07 1512.75,-857.27 1508.23,-851.93"/>
</g>
<!-- 5415 -->
<g id="node6" class="node">
<title>5415</title>
<polygon fill="none" stroke="#e06f45" points="1721.39,-383.24 1721.39,-398.15 1659.63,-408.7 1572.28,-408.7 1510.51,-398.15 1510.51,-383.24 1572.28,-372.7 1659.63,-372.7 1721.39,-383.24"/>
<polygon fill="none" stroke="#e06f45" points="1725.39,-379.86 1725.39,-401.53 1659.97,-412.7 1571.94,-412.7 1506.51,-401.53 1506.51,-379.86 1571.94,-368.7 1659.97,-368.7 1725.39,-379.86"/>
<text text-anchor="middle" x="1615.95" y="-385.65" font-family="Times,serif" font-size="14.00">google:CCBYNCSA30</text>
</g>
<!-- 1002&#45;&gt;5415 -->
<g id="edge2" class="edge">
<title>1002&#45;&gt;5415</title>
<path fill="none" stroke="#e06f45" stroke-width="2" d="M1484.07,-862.11C1619.18,-598 1627.45,-576.5 1618.07,-423.71"/>
<polygon fill="#e06f45" stroke="#e06f45" stroke-width="2" points="1617.55,-415.4 1622.67,-425.1 1618.21,-417.92 1618.68,-425.35 1618.18,-425.38 1617.68,-425.41 1617.21,-417.99 1613.69,-425.66 1617.55,-415.4"/>
</g>
<!-- 6151 -->
<g id="node9" class="node">
<title>6151</title>
<polygon fill="none" stroke="#e09d4b" points="1551,-1224.29 1551,-1239.2 1480.15,-1249.75 1379.95,-1249.75 1309.1,-1239.2 1309.1,-1224.29 1379.95,-1213.75 1480.15,-1213.75 1551,-1224.29"/>
<polygon fill="none" stroke="#e09d4b" points="1555,-1220.84 1555,-1242.65 1480.45,-1253.75 1379.66,-1253.75 1305.1,-1242.65 1305.1,-1220.84 1379.66,-1209.75 1480.45,-1209.75 1555,-1220.84"/>
<text text-anchor="middle" x="1430.05" y="-1226.7" font-family="Times,serif" font-size="14.00">Fedora:CC&#45;BY&#45;NC&#45;SA&#45;3.0</text>
</g>
<!-- 1002&#45;&gt;6151 -->
<g id="edge3" class="edge">
<title>1002&#45;&gt;6151</title>
<path fill="none" stroke="#e09d4b" stroke-width="2" d="M1477.4,-914.48C1515.16,-1060.18 1514.45,-1077.69 1447.81,-1199.52"/>
<polygon fill="#e09d4b" stroke="#e09d4b" stroke-width="2" points="1443.63,-1207.12 1444.5,-1196.19 1444.43,-1204.63 1448.01,-1198.11 1448.44,-1198.35 1448.88,-1198.6 1445.31,-1205.12 1452.39,-1200.52 1443.63,-1207.12"/>
</g>
<!-- 40160 -->
<g id="node22" class="node">
<title>40160</title>
<polygon fill="none" stroke="#00876c" points="1320.53,-1373.03 1320.53,-1387.94 1203.28,-1398.48 1037.45,-1398.48 920.19,-1387.94 920.19,-1373.03 1037.45,-1362.48 1203.28,-1362.48 1320.53,-1373.03"/>
<polygon fill="none" stroke="#00876c" points="1324.53,-1369.37 1324.53,-1391.59 1203.46,-1402.48 1037.27,-1402.48 916.19,-1391.59 916.19,-1369.37 1037.27,-1358.48 1203.46,-1358.48 1324.53,-1369.37"/>
<text text-anchor="middle" x="1120.36" y="-1375.43" font-family="Times,serif" font-size="14.00">metaeffekt:Creative Commons BY&#45;NC&#45;SA 3.0</text>
</g>
<!-- 1002&#45;&gt;40160 -->
<g id="edge4" class="edge">
<title>1002&#45;&gt;40160</title>
<path fill="none" stroke="#00876c" stroke-width="2" d="M1464.62,-914.5C1403.89,-1178.74 1393.43,-1198.03 1162.99,-1352.07"/>
<polygon fill="#00876c" stroke="#00876c" stroke-width="2" points="1156.02,-1356.73 1161.84,-1347.43 1157.87,-1354.89 1164.06,-1350.76 1164.33,-1351.18 1164.61,-1351.59 1158.43,-1355.72 1166.83,-1354.92 1156.02,-1356.73"/>
</g>
<!-- 1003 -->
<g id="node3" class="node">
<title>1003</title>
<polygon fill="none" stroke="black" points="1177.61,-1083.39 1177.61,-1098.31 1124.61,-1108.85 1049.65,-1108.85 996.65,-1098.31 996.65,-1083.39 1049.65,-1072.85 1124.61,-1072.85 1177.61,-1083.39"/>
<polygon fill="none" stroke="black" points="1181.61,-1080.11 1181.61,-1101.59 1125,-1112.85 1049.26,-1112.85 992.65,-1101.59 992.65,-1080.11 1049.26,-1068.85 1125,-1068.85 1181.61,-1080.11"/>
<text text-anchor="middle" x="1087.13" y="-1085.8" font-family="Times,serif" font-size="14.00">CC&#45;BY&#45;NC&#45;SA&#45;3.0</text>
</g>
<!-- 1003&#45;&gt;1002 -->
<g id="edge5" class="edge">
<title>1003&#45;&gt;1002</title>
<path fill="none" stroke="black" stroke-width="2" d="M1140.46,-1071.42C1335.65,-1000.14 1366.98,-985.71 1435.23,-922.14"/>
<polygon fill="black" stroke="black" stroke-width="2" points="1441.52,-916.23 1437.31,-926.36 1439.99,-918.35 1434.57,-923.44 1434.23,-923.08 1433.88,-922.71 1439.31,-917.62 1431.15,-919.8 1441.52,-916.23"/>
</g>
<!-- 1003&#45;&gt;6151 -->
<g id="edge6" class="edge">
<title>1003&#45;&gt;6151</title>
<path fill="none" stroke="#e09d4b" stroke-width="2" d="M1129.67,-1112.36C1250.42,-1173.37 1296.39,-1195.76 1341.94,-1210.1"/>
<polygon fill="#e09d4b" stroke="#e09d4b" stroke-width="2" points="1350.28,-1212.62 1339.41,-1214.04 1347.68,-1212.36 1340.56,-1210.21 1340.71,-1209.73 1340.85,-1209.25 1347.97,-1211.4 1342.01,-1205.42 1350.28,-1212.62"/>
</g>
<!-- 13411 -->
<g id="node12" class="node">
<title>13411</title>
<polygon fill="none" stroke="black" points="969.18,-832.54 969.18,-847.46 902.54,-858 808.31,-858 741.68,-847.46 741.68,-832.54 808.31,-822 902.54,-822 969.18,-832.54"/>
<polygon fill="none" stroke="black" points="973.18,-829.13 973.18,-850.87 902.86,-862 807.99,-862 737.68,-850.87 737.68,-829.13 807.99,-818 902.86,-818 973.18,-829.13"/>
<text text-anchor="middle" x="855.43" y="-834.95" font-family="Times,serif" font-size="14.00">scancode:cc&#45;by&#45;nc&#45;sa&#45;3.0</text>
</g>
<!-- 1003&#45;&gt;13411 -->
<g id="edge7" class="edge">
<title>1003&#45;&gt;13411</title>
<path fill="none" stroke="black" stroke-width="2" d="M1060.09,-1068.59C925.67,-957.86 907.13,-940.27 871.73,-872.14"/>
<polygon fill="black" stroke="black" stroke-width="2" points="867.72,-864.34 876.29,-871.18 869.33,-866.39 872.73,-873 872.29,-873.23 871.84,-873.46 868.45,-866.85 868.29,-875.29 867.72,-864.34"/>
</g>
<!-- 26824 -->
<g id="node15" class="node">
<title>26824</title>
<polygon fill="none" stroke="#e18745" points="1399.25,-1480.51 1399.25,-1495.42 1321.9,-1505.96 1212.53,-1505.96 1135.18,-1495.42 1135.18,-1480.51 1212.53,-1469.96 1321.9,-1469.96 1399.25,-1480.51"/>
<polygon fill="none" stroke="#e18745" points="1403.25,-1477.01 1403.25,-1498.91 1322.18,-1509.96 1212.26,-1509.96 1131.18,-1498.91 1131.18,-1477.01 1212.26,-1465.96 1322.18,-1465.96 1403.25,-1477.01"/>
<text text-anchor="middle" x="1267.22" y="-1482.91" font-family="Times,serif" font-size="14.00">fossology:CC&#45;BY&#45;NC&#45;SA&#45;3.0</text>
</g>
<!-- 1003&#45;&gt;26824 -->
<g id="edge8" class="edge">
<title>1003&#45;&gt;26824</title>
<path fill="none" stroke="#e18745" stroke-width="2" d="M1097.21,-1113.03C1201.57,-1342.73 1213.37,-1368.72 1252.61,-1455.6"/>
<polygon fill="#e18745" stroke="#e18745" stroke-width="2" points="1256.14,-1463.42 1247.92,-1456.16 1254.63,-1461.29 1251.57,-1454.52 1252.02,-1454.31 1252.48,-1454.1 1255.54,-1460.88 1256.12,-1452.46 1256.14,-1463.42"/>
</g>
<!-- 36592 -->
<g id="node19" class="node">
<title>36592</title>
<polygon fill="none" stroke="#379469" points="742.37,-1109.79 742.37,-1124.7 676.39,-1135.24 583.07,-1135.24 517.09,-1124.7 517.09,-1109.79 583.07,-1099.24 676.39,-1099.24 742.37,-1109.79"/>
<polygon fill="none" stroke="#379469" points="746.37,-1106.38 746.37,-1128.11 676.71,-1139.24 582.76,-1139.24 513.09,-1128.11 513.09,-1106.38 582.76,-1095.24 676.71,-1095.24 746.37,-1106.38"/>
<text text-anchor="middle" x="629.73" y="-1112.19" font-family="Times,serif" font-size="14.00">cavil:CC&#45;BY&#45;NC&#45;SA&#45;3.0</text>
</g>
<!-- 1003&#45;&gt;36592 -->
<g id="edge9" class="edge">
<title>1003&#45;&gt;36592</title>
<path fill="none" stroke="#379469" stroke-width="2" d="M1012.39,-1105.89C841.77,-1139.98 789.63,-1147.55 719.77,-1136.45"/>
<polygon fill="#379469" stroke="#379469" stroke-width="2" points="711.25,-1135 721.87,-1132.24 713.86,-1134.93 721.2,-1136.18 721.11,-1136.67 721.03,-1137.17 713.7,-1135.92 720.36,-1141.11 711.25,-1135"/>
</g>
<!-- 1003&#45;&gt;40160 -->
<g id="edge10" class="edge">
<title>1003&#45;&gt;40160</title>
<path fill="none" stroke="#00876c" stroke-dasharray="5,2" d="M1090.6,-1113.26C1114.17,-1265.65 1117.73,-1290.68 1119.5,-1347.16"/>
<polygon fill="#00876c" stroke="#00876c" points="1119.78,-1356.89 1115,-1347.03 1119.67,-1353.11 1119.5,-1346.9 1119.5,-1346.9 1119.5,-1346.9 1119.67,-1353.11 1123.99,-1346.77 1119.78,-1356.89"/>
</g>
<!-- 51158 -->
<g id="node25" class="node">
<title>51158</title>
<polygon fill="none" stroke="#dac767" points="1264.44,-1533.31 1264.44,-1548.22 1057.61,-1558.76 765.12,-1558.76 558.3,-1548.22 558.3,-1533.31 765.12,-1522.76 1057.61,-1522.76 1264.44,-1533.31"/>
<polygon fill="none" stroke="#dac767" points="1268.44,-1529.51 1268.44,-1552.02 1057.72,-1562.76 765.02,-1562.76 554.3,-1552.02 554.3,-1529.51 765.02,-1518.76 1057.72,-1518.76 1268.44,-1529.51"/>
<text text-anchor="middle" x="911.37" y="-1535.71" font-family="Times,serif" font-size="14.00">fosslight:Creative Commons Attribution Non Commercial Share Alike 3.0 Unported</text>
</g>
<!-- 1003&#45;&gt;51158 -->
<g id="edge11" class="edge">
<title>1003&#45;&gt;51158</title>
<path fill="none" stroke="#dac767" stroke-width="2" d="M1080.12,-1113.33C995.61,-1384.33 986.4,-1411.69 930.03,-1508.84"/>
<polygon fill="#dac767" stroke="#dac767" stroke-width="2" points="925.65,-1516.37 926.79,-1505.46 926.51,-1513.9 930.25,-1507.47 930.68,-1507.72 931.11,-1507.98 927.37,-1514.4 934.57,-1509.99 925.65,-1516.37"/>
</g>
<!-- 1004 -->
<g id="node4" class="node">
<title>1004</title>
<polygon fill="none" stroke="black" points="1384.81,-1427.8 1384.81,-1442.71 1199.72,-1453.26 937.98,-1453.26 752.9,-1442.71 752.9,-1427.8 937.98,-1417.26 1199.72,-1417.26 1384.81,-1427.8"/>
<polygon fill="none" stroke="black" points="1388.81,-1424.02 1388.81,-1446.49 1199.84,-1457.26 937.87,-1457.26 748.9,-1446.49 748.9,-1424.02 937.87,-1413.26 1199.84,-1413.26 1388.81,-1424.02"/>
<text text-anchor="middle" x="1068.85" y="-1430.21" font-family="Times,serif" font-size="14.00">Creative Commons Attribution Non Commercial Share Alike 3.0 Unported</text>
</g>
<!-- 1004&#45;&gt;1002 -->
<g id="edge12" class="edge">
<title>1004&#45;&gt;1002</title>
<path fill="none" stroke="#b8bf62" stroke-width="2" d="M1104.98,-1412.82C1368.27,-1249 1381.42,-1230.1 1461.03,-925.17"/>
<polygon fill="#b8bf62" stroke="#b8bf62" stroke-width="2" points="1463.16,-917.03 1464.99,-927.84 1462.99,-919.64 1461.12,-926.83 1460.63,-926.71 1460.15,-926.58 1462.03,-919.38 1456.28,-925.57 1463.16,-917.03"/>
</g>
<!-- 1004&#45;&gt;26824 -->
<g id="edge13" class="edge">
<title>1004&#45;&gt;26824</title>
<path fill="none" stroke="#e18745" stroke-width="2" d="M1106.3,-1457.6C1114.54,-1462.44 1121.99,-1466.72 1128.83,-1470.5"/>
<polygon fill="#e18745" stroke="#e18745" stroke-width="2" points="1136.28,-1474.51 1125.34,-1473.73 1133.79,-1473.74 1127.24,-1470.21 1127.48,-1469.77 1127.71,-1469.33 1134.26,-1472.85 1129.61,-1465.81 1136.28,-1474.51"/>
</g>
<!-- 1004&#45;&gt;40160 -->
<g id="edge14" class="edge">
<title>1004&#45;&gt;40160</title>
<path fill="none" stroke="#00876c" stroke-dasharray="5,2" d="M1100.9,-1413.11C1101.16,-1412.75 1101.42,-1412.38 1101.69,-1412"/>
<polygon fill="#00876c" stroke="#00876c" points="1107.05,-1403.61 1105.45,-1414.46 1105.01,-1406.8 1101.66,-1412.04 1101.66,-1412.04 1101.66,-1412.04 1105.01,-1406.8 1097.87,-1409.62 1107.05,-1403.61"/>
</g>
<!-- 1004&#45;&gt;51158 -->
<g id="edge15" class="edge">
<title>1004&#45;&gt;51158</title>
<path fill="none" stroke="#dac767" stroke-width="2" d="M1048.49,-1457.53C1023.5,-1484.71 1007.49,-1501.28 992.96,-1512.23"/>
<polygon fill="#dac767" stroke="#dac767" stroke-width="2" points="986.05,-1516.98 991.74,-1507.61 987.88,-1515.12 994.01,-1510.9 994.29,-1511.31 994.57,-1511.73 988.45,-1515.94 996.84,-1515.02 986.05,-1516.98"/>
</g>
<!-- 5414 -->
<g id="node5" class="node">
<title>5414</title>
<ellipse fill="none" stroke="#e06f45" cx="1885.6" cy="-28.61" rx="157.15" ry="28.99"/>
<text text-anchor="middle" x="1885.6" y="-31.81" font-family="Times,serif" font-size="14.00" fill="gray">GoogleLicense</text>
<text text-anchor="middle" x="1885.6" y="-15.31" font-family="Times,serif" font-size="14.00" fill="gray">13ca0e2257c7faa8bcd8a8886e91a041</text>
</g>
<!-- 5414&#45;&gt;5415 -->
<g id="edge16" class="edge">
<title>5414&#45;&gt;5415</title>
<path fill="none" stroke="#e06f45" d="M1866.68,-57.75C1812.61,-140.79 1795.09,-163.7 1640.58,-359.5"/>
<polygon fill="#e06f45" stroke="#e06f45" points="1637.98,-357.14 1634.53,-367.16 1643.47,-361.48 1637.98,-357.14"/>
</g>
<!-- 5416 -->
<g id="node7" class="node">
<title>5416</title>
<polygon fill="none" stroke="#e06f45" points="1702.63,-32.89 1702.63,-47.8 1658.39,-58.35 1595.82,-58.35 1551.58,-47.8 1551.58,-32.89 1595.82,-22.35 1658.39,-22.35 1702.63,-32.89"/>
<polygon fill="none" stroke="#e06f45" points="1706.63,-29.73 1706.63,-50.96 1658.86,-62.35 1595.35,-62.35 1547.58,-50.96 1547.58,-29.73 1595.35,-18.35 1658.86,-18.35 1706.63,-29.73"/>
<text text-anchor="middle" x="1627.1" y="-35.3" font-family="Times,serif" font-size="14.00">CCBYNCSA30</text>
</g>
<!-- 5416&#45;&gt;5415 -->
<g id="edge17" class="edge">
<title>5416&#45;&gt;5415</title>
<path fill="none" stroke="#e06f45" stroke-width="2" d="M1633.89,-62.6C1661.8,-155.18 1660.66,-173.01 1622.8,-357.43"/>
<polygon fill="#e06f45" stroke="#e06f45" stroke-width="2" points="1621.04,-365.98 1618.65,-355.28 1621.07,-363.37 1622.57,-356.08 1623.06,-356.18 1623.55,-356.28 1622.05,-363.57 1627.47,-357.09 1621.04,-365.98"/>
</g>
<!-- 6150 -->
<g id="node8" class="node">
<title>6150</title>
<ellipse fill="none" stroke="#e09d4b" cx="1752.22" cy="-1595.1" rx="157.68" ry="28.99"/>
<text text-anchor="middle" x="1752.22" y="-1598.3" font-family="Times,serif" font-size="14.00" fill="gray">FedoraEntry</text>
<text text-anchor="middle" x="1752.22" y="-1581.8" font-family="Times,serif" font-size="14.00" fill="gray">58f0577440c4f608ceb635a22b67e4c1</text>
</g>
<!-- 6150&#45;&gt;6151 -->
<g id="edge18" class="edge">
<title>6150&#45;&gt;6151</title>
<path fill="none" stroke="#e09d4b" d="M1732.19,-1566.01C1669.55,-1475.45 1649.58,-1453.93 1460.25,-1262.3"/>
<polygon fill="#e09d4b" stroke="#e09d4b" points="1462.86,-1259.96 1453.34,-1255.31 1457.88,-1264.88 1462.86,-1259.96"/>
</g>
<!-- 6152 -->
<g id="node10" class="node">
<title>6152</title>
<polygon fill="none" stroke="black" points="1158.31,-991.55 1158.31,-1006.46 975.5,-1017 716.97,-1017 534.16,-1006.46 534.16,-991.55 716.97,-981 975.5,-981 1158.31,-991.55"/>
<text text-anchor="middle" x="846.23" y="-993.95" font-family="Times,serif" font-size="14.00">Creative Commons Attribution&#45;NonCommercial&#45;ShareAlike 3.0 Unported</text>
</g>
<!-- 6152&#45;&gt;6151 -->
<g id="edge19" class="edge">
<title>6152&#45;&gt;6151</title>
<path fill="none" stroke="#e09d4b" stroke-dasharray="5,2" d="M877.74,-1017.4C1126.91,-1162.82 1195.62,-1201.25 1298.13,-1218.1"/>
<polygon fill="#e09d4b" stroke="#e09d4b" points="1307.95,-1219.63 1297.38,-1222.54 1304.21,-1219.05 1298.07,-1218.09 1298.07,-1218.09 1298.07,-1218.09 1304.21,-1219.05 1298.76,-1213.65 1307.95,-1219.63"/>
</g>
<!-- 6152&#45;&gt;40160 -->
<g id="edge20" class="edge">
<title>6152&#45;&gt;40160</title>
<path fill="none" stroke="#00876c" stroke-dasharray="5,2" d="M853.4,-1017.13C946.54,-1252.41 959.16,-1278.92 1074.89,-1352.23"/>
<polygon fill="#00876c" stroke="#00876c" points="1083.12,-1357.41 1072.26,-1355.89 1079.92,-1355.39 1074.66,-1352.08 1074.66,-1352.08 1074.66,-1352.08 1079.92,-1355.39 1077.06,-1348.27 1083.12,-1357.41"/>
</g>
<!-- 13410 -->
<g id="node11" class="node">
<title>13410</title>
<ellipse fill="none" stroke="#dac767" cx="499.47" cy="-550.82" rx="156.09" ry="28.99"/>
<text text-anchor="middle" x="499.47" y="-554.02" font-family="Times,serif" font-size="14.00" fill="gray">ScancodeData</text>
<text text-anchor="middle" x="499.47" y="-537.52" font-family="Times,serif" font-size="14.00" fill="gray">27bbf4510c3ff823bc019fd017801a4d</text>
</g>
<!-- 13410&#45;&gt;13411 -->
<g id="edge21" class="edge">
<title>13410&#45;&gt;13411</title>
<path fill="none" stroke="#dac767" d="M534.69,-579.46C605.63,-637.13 633.61,-659.85 819.32,-810.68"/>
<polygon fill="#dac767" stroke="#dac767" points="816.86,-813.19 826.83,-816.77 821.27,-807.75 816.86,-813.19"/>
</g>
<!-- 13411&#45;&gt;40160 -->
<g id="edge22" class="edge">
<title>13411&#45;&gt;40160</title>
<path fill="none" stroke="#00876c" stroke-dasharray="5,2" d="M860.38,-862.4C934.37,-1196.44 942.44,-1221.7 1086.83,-1350.71"/>
<polygon fill="#00876c" stroke="#00876c" points="1094.25,-1357.33 1083.79,-1354.04 1091.43,-1354.81 1086.79,-1350.68 1086.79,-1350.68 1086.79,-1350.68 1091.43,-1354.81 1089.78,-1347.32 1094.25,-1357.33"/>
</g>
<!-- 13412 -->
<g id="node13" class="node">
<title>13412</title>
<polygon fill="none" stroke="#dac767" points="977.79,-223.44 977.79,-238.36 796.28,-248.9 539.59,-248.9 358.08,-238.36 358.08,-223.44 539.59,-212.9 796.28,-212.9 977.79,-223.44"/>
<polygon fill="none" stroke="#dac767" points="981.79,-219.67 981.79,-242.13 796.4,-252.9 539.47,-252.9 354.08,-242.13 354.08,-219.67 539.47,-208.9 796.4,-208.9 981.79,-219.67"/>
<text text-anchor="middle" x="667.94" y="-225.85" font-family="Times,serif" font-size="14.00">Creative Commons Attribution Non&#45;Commercial Share Alike License 3.0</text>
</g>
<!-- 13412&#45;&gt;13411 -->
<g id="edge23" class="edge">
<title>13412&#45;&gt;13411</title>
<path fill="none" stroke="#dac767" stroke-width="2" d="M671.04,-253.26C694.6,-422.54 701.02,-442.13 842.77,-807.39"/>
<polygon fill="#dac767" stroke="#dac767" stroke-width="2" points="845.9,-815.47 838.09,-807.77 844.51,-813.26 841.82,-806.32 842.29,-806.14 842.75,-805.96 845.44,-812.9 846.48,-804.52 845.9,-815.47"/>
</g>
<!-- 26823 -->
<g id="node14" class="node">
<title>26823</title>
<ellipse fill="none" stroke="#e18745" cx="1444.31" cy="-1947.63" rx="156.62" ry="28.99"/>
<text text-anchor="middle" x="1444.31" y="-1950.83" font-family="Times,serif" font-size="14.00" fill="gray">Fossology</text>
<text text-anchor="middle" x="1444.31" y="-1934.33" font-family="Times,serif" font-size="14.00" fill="gray">a7ed8c9cb6eb59c223f91fe2d2934e7d</text>
</g>
<!-- 26823&#45;&gt;26824 -->
<g id="edge24" class="edge">
<title>26823&#45;&gt;26824</title>
<path fill="none" stroke="#e18745" d="M1433.93,-1918.35C1395.72,-1810.67 1386.05,-1785.95 1280.3,-1520.76"/>
<polygon fill="#e18745" stroke="#e18745" points="1283.68,-1519.81 1276.73,-1511.82 1277.18,-1522.4 1283.68,-1519.81"/>
</g>
<!-- 28592 -->
<g id="node16" class="node">
<title>28592</title>
<ellipse fill="none" stroke="#e06f45" cx="1927.29" cy="-946.92" rx="153.97" ry="28.99"/>
<text text-anchor="middle" x="1927.29" y="-950.12" font-family="Times,serif" font-size="14.00" fill="gray">OrtLicenseCategorization</text>
<text text-anchor="middle" x="1927.29" y="-933.62" font-family="Times,serif" font-size="14.00" fill="gray">2c3a6078c8f38da2ad82df5cbf50f67e</text>
</g>
<!-- 28592&#45;&gt;1002 -->
<g id="edge25" class="edge">
<title>28592&#45;&gt;1002</title>
<path fill="none" stroke="#e06f45" d="M1838.67,-922.82C1783.45,-909.9 1733.33,-904.78 1602.37,-896.45"/>
<polygon fill="#e06f45" stroke="#e06f45" points="1602.84,-892.98 1592.64,-895.84 1602.4,-899.96 1602.84,-892.98"/>
</g>
<!-- 35419 -->
<g id="node17" class="node">
<title>35419</title>
<ellipse fill="none" stroke="#e09d4b" cx="1915.18" cy="-730.98" rx="159.28" ry="28.99"/>
<text text-anchor="middle" x="1915.18" y="-734.18" font-family="Times,serif" font-size="14.00" fill="gray">OrtLicenseCategorization</text>
<text text-anchor="middle" x="1915.18" y="-717.68" font-family="Times,serif" font-size="14.00" fill="gray">9a6608032d58fc479c4d4921d81aeb2c</text>
</g>
<!-- 35419&#45;&gt;1002 -->
<g id="edge26" class="edge">
<title>35419&#45;&gt;1002</title>
<path fill="none" stroke="#e09d4b" d="M1849.08,-757.76C1780.52,-785.06 1733.67,-801.12 1550.4,-861.95"/>
<polygon fill="#e09d4b" stroke="#e09d4b" points="1549.39,-858.6 1541,-865.07 1551.6,-865.24 1549.39,-858.6"/>
</g>
<!-- 36591 -->
<g id="node18" class="node">
<title>36591</title>
<ellipse fill="none" stroke="#379469" cx="160.97" cy="-1197.68" rx="160.87" ry="28.99"/>
<text text-anchor="middle" x="160.97" y="-1200.88" font-family="Times,serif" font-size="14.00" fill="gray">CavilLicenseChange</text>
<text text-anchor="middle" x="160.97" y="-1184.38" font-family="Times,serif" font-size="14.00" fill="gray">656196d558c69521f0559b86db383a3e</text>
</g>
<!-- 36591&#45;&gt;36592 -->
<g id="edge27" class="edge">
<title>36591&#45;&gt;36592</title>
<path fill="none" stroke="#379469" d="M293.25,-1180.81C344.17,-1172.88 405.96,-1161.11 534.58,-1135.92"/>
<polygon fill="#379469" stroke="#379469" points="534.97,-1139.41 544.11,-1134.05 533.62,-1132.54 534.97,-1139.41"/>
</g>
<!-- 40158 -->
<g id="node20" class="node">
<title>40158</title>
<polygon fill="none" stroke="#00876c" points="731.28,-1471.12 731.28,-1486.03 687.68,-1496.58 626.03,-1496.58 582.44,-1486.03 582.44,-1471.12 626.03,-1460.58 687.68,-1460.58 731.28,-1471.12"/>
<text text-anchor="middle" x="656.86" y="-1473.53" font-family="Times,serif" font-size="14.00">CC&#45;BY&#45;NC&#45;SA</text>
</g>
<!-- 40158&#45;&gt;40160 -->
<g id="edge28" class="edge">
<title>40158&#45;&gt;40160</title>
<path fill="none" stroke="#00876c" stroke-dasharray="5,2" d="M715.67,-1490.2C849.15,-1515.28 881.31,-1505.95 1068.02,-1408.05"/>
<polygon fill="#00876c" stroke="#00876c" points="1076.82,-1403.43 1070.05,-1412.06 1073.47,-1405.19 1067.96,-1408.08 1067.96,-1408.08 1067.96,-1408.08 1073.47,-1405.19 1065.87,-1404.09 1076.82,-1403.43"/>
</g>
<!-- 40159 -->
<g id="node21" class="node">
<title>40159</title>
<ellipse fill="none" stroke="#00876c" cx="1682.65" cy="-1453.12" rx="159.81" ry="28.99"/>
<text text-anchor="middle" x="1682.65" y="-1456.32" font-family="Times,serif" font-size="14.00" fill="gray">MetaeffektLicense</text>
<text text-anchor="middle" x="1682.65" y="-1439.82" font-family="Times,serif" font-size="14.00" fill="gray">4eb3e20acd324b18c8c988a9a7911720</text>
</g>
<!-- 40159&#45;&gt;40160 -->
<g id="edge29" class="edge">
<title>40159&#45;&gt;40160</title>
<path fill="none" stroke="#00876c" d="M1581.73,-1476.03C1473.02,-1496.66 1417.6,-1482.98 1195.88,-1406.61"/>
<polygon fill="#00876c" stroke="#00876c" points="1197.22,-1403.37 1186.62,-1403.42 1194.94,-1409.99 1197.22,-1403.37"/>
</g>
<!-- 40161 -->
<g id="node23" class="node">
<title>40161</title>
<polygon fill="none" stroke="#00876c" points="1211.03,-1950.06 1211.03,-1964.97 1120.7,-1975.51 992.97,-1975.51 902.64,-1964.97 902.64,-1950.06 992.97,-1939.51 1120.7,-1939.51 1211.03,-1950.06"/>
<polygon fill="none" stroke="#00876c" points="1215.03,-1946.5 1215.03,-1968.53 1120.94,-1979.51 992.73,-1979.51 898.64,-1968.53 898.64,-1946.5 992.73,-1935.51 1120.94,-1935.51 1215.03,-1946.5"/>
<text text-anchor="middle" x="1056.83" y="-1952.46" font-family="Times,serif" font-size="14.00">Creative Commons BY&#45;NC&#45;SA 3.0</text>
</g>
<!-- 40161&#45;&gt;40160 -->
<g id="edge30" class="edge">
<title>40161&#45;&gt;40160</title>
<path fill="none" stroke="#00876c" stroke-width="2" d="M1061.98,-1935.23C1095.81,-1788.51 1097.77,-1767.8 1118.41,-1414.06"/>
<polygon fill="#00876c" stroke="#00876c" stroke-width="2" points="1118.91,-1405.4 1122.82,-1415.64 1119.26,-1407.98 1118.83,-1415.41 1118.33,-1415.38 1117.83,-1415.35 1118.26,-1407.93 1113.84,-1415.12 1118.91,-1405.4"/>
</g>
<!-- 51157 -->
<g id="node24" class="node">
<title>51157</title>
<ellipse fill="none" stroke="#dac767" cx="835.27" cy="-1599.79" rx="156.09" ry="28.99"/>
<text text-anchor="middle" x="835.27" y="-1602.99" font-family="Times,serif" font-size="14.00" fill="gray">FOSSLight</text>
<text text-anchor="middle" x="835.27" y="-1586.49" font-family="Times,serif" font-size="14.00" fill="gray">cfbbd04ddad1505e8beeef1685d56f82</text>
</g>
<!-- 51157&#45;&gt;51158 -->
<g id="edge31" class="edge">
<title>51157&#45;&gt;51158</title>
<path fill="none" stroke="#dac767" d="M882.79,-1571.8C883.03,-1571.55 883.27,-1571.3 883.51,-1571.05"/>
<polygon fill="#dac767" stroke="#dac767" points="885.88,-1573.65 890.21,-1563.98 880.79,-1568.83 885.88,-1573.65"/>
</g>
</g>
</svg>
