<?xml version="1.0" encoding="UTF-8" standalone="no"?>
<!DOCTYPE svg PUBLIC "-//W3C//DTD SVG 1.1//EN"
 "http://www.w3.org/Graphics/SVG/1.1/DTD/svg11.dtd">
<!-- Generated by graphviz version 10.0.1 (0)
 -->
<!-- Pages: 1 -->
<svg width="2619pt" height="2213pt"
 viewBox="0.00 0.00 2619.00 2213.00" xmlns="http://www.w3.org/2000/svg" xmlns:xlink="http://www.w3.org/1999/xlink">
<g id="graph0" class="graph" transform="scale(1 1) rotate(0) translate(4 2209)">
<polygon fill="white" stroke="none" points="-4,4 -4,-2209 2615,-2209 2615,4 -4,4"/>
<!-- 840 -->
<g id="node1" class="node">
<title>840</title>
<ellipse fill="none" stroke="#b8bf62" cx="471.35" cy="-873.09" rx="157.68" ry="28.99"/>
<text text-anchor="middle" x="471.35" y="-876.29" font-family="Times,serif" font-size="14.00" fill="gray">SPDXLicense</text>
<text text-anchor="middle" x="471.35" y="-859.79" font-family="Times,serif" font-size="14.00" fill="gray">cf121557a5cf0d7d3104e653b4a2273a</text>
</g>
<!-- 841 -->
<g id="node2" class="node">
<title>841</title>
<polygon fill="none" stroke="black" points="900.43,-673.37 900.43,-688.28 854.24,-698.83 788.92,-698.83 742.73,-688.28 742.73,-673.37 788.92,-662.83 854.24,-662.83 900.43,-673.37"/>
<polygon fill="none" stroke="black" points="904.43,-670.18 904.43,-691.47 854.69,-702.83 788.47,-702.83 738.73,-691.47 738.73,-670.18 788.47,-658.83 854.69,-658.83 904.43,-670.18"/>
<polygon fill="none" stroke="black" points="908.43,-666.99 908.43,-694.66 855.14,-706.83 788.02,-706.83 734.73,-694.66 734.73,-666.99 788.02,-654.83 855.14,-654.83 908.43,-666.99"/>
<text text-anchor="middle" x="821.58" y="-675.78" font-family="Times,serif" font-size="14.00">spdx:CC&#45;BY&#45;3.0</text>
</g>
<!-- 840&#45;&gt;841 -->
<g id="edge1" class="edge">
<title>840&#45;&gt;841</title>
<path fill="none" stroke="#b8bf62" d="M494.4,-843.93C565.1,-755.35 588.36,-739.81 738.88,-701.4"/>
<polygon fill="#b8bf62" stroke="#b8bf62" points="739.64,-704.82 748.48,-698.97 737.92,-698.03 739.64,-704.82"/>
</g>
<!-- 5522 -->
<g id="node6" class="node">
<title>5522</title>
<polygon fill="none" stroke="#e06f45" points="637.75,-368.87 637.75,-383.79 591.56,-394.33 526.24,-394.33 480.05,-383.79 480.05,-368.87 526.24,-358.33 591.56,-358.33 637.75,-368.87"/>
<polygon fill="none" stroke="#e06f45" points="641.75,-365.68 641.75,-386.98 592.01,-398.33 525.78,-398.33 476.05,-386.98 476.05,-365.68 525.78,-354.33 592.01,-354.33 641.75,-365.68"/>
<text text-anchor="middle" x="558.9" y="-371.28" font-family="Times,serif" font-size="14.00">google:CCBY30</text>
</g>
<!-- 841&#45;&gt;5522 -->
<g id="edge2" class="edge">
<title>841&#45;&gt;5522</title>
<path fill="none" stroke="#e06f45" stroke-width="2" d="M797.34,-654.42C651.78,-495.85 631.45,-473.1 581.96,-407.22"/>
<polygon fill="#e06f45" stroke="#e06f45" stroke-width="2" points="576.9,-400.47 586.5,-405.78 578.84,-402.22 583.3,-408.17 582.9,-408.47 582.5,-408.77 578.04,-402.82 579.3,-411.17 576.9,-400.47"/>
</g>
<!-- 6085 -->
<g id="node10" class="node">
<title>6085</title>
<polygon fill="none" stroke="#e09d4b" points="1334.69,-563.31 1334.69,-578.23 1283.31,-588.77 1210.65,-588.77 1159.26,-578.23 1159.26,-563.31 1210.65,-552.77 1283.31,-552.77 1334.69,-563.31"/>
<polygon fill="none" stroke="#e09d4b" points="1338.69,-560.05 1338.69,-581.49 1283.72,-592.77 1210.24,-592.77 1155.26,-581.49 1155.26,-560.05 1210.24,-548.77 1283.72,-548.77 1338.69,-560.05"/>
<text text-anchor="middle" x="1246.98" y="-565.72" font-family="Times,serif" font-size="14.00">Fedora:CC&#45;BY&#45;3.0</text>
</g>
<!-- 841&#45;&gt;6085 -->
<g id="edge3" class="edge">
<title>841&#45;&gt;6085</title>
<path fill="none" stroke="#e09d4b" stroke-width="2" d="M855.35,-654.68C969.04,-567.27 999.95,-553.49 1143.78,-562.73"/>
<polygon fill="#e09d4b" stroke="#e09d4b" stroke-width="2" points="1152.36,-563.3 1142.08,-567.12 1149.77,-563.63 1142.35,-563.13 1142.38,-562.63 1142.42,-562.13 1149.84,-562.63 1142.68,-558.14 1152.36,-563.3"/>
</g>
<!-- 9509 -->
<g id="node13" class="node">
<title>9509</title>
<polygon fill="none" stroke="#58a066" points="1029.22,-421.53 1029.22,-436.44 981.73,-446.98 914.57,-446.98 867.09,-436.44 867.09,-421.53 914.57,-410.98 981.73,-410.98 1029.22,-421.53"/>
<polygon fill="none" stroke="#58a066" points="1033.22,-418.32 1033.22,-439.65 982.17,-450.98 914.14,-450.98 863.09,-439.65 863.09,-418.32 914.14,-406.98 982.17,-406.98 1033.22,-418.32"/>
<text text-anchor="middle" x="948.15" y="-423.93" font-family="Times,serif" font-size="14.00">osadl:CC&#45;BY&#45;3.0</text>
</g>
<!-- 841&#45;&gt;9509 -->
<g id="edge4" class="edge">
<title>841&#45;&gt;9509</title>
<path fill="none" stroke="#58a066" stroke-width="2" d="M826.02,-654.77C847.24,-530.8 853.93,-509.94 913.38,-458.28"/>
<polygon fill="#58a066" stroke="#58a066" stroke-width="2" points="919.87,-452.71 915.21,-462.64 918.25,-454.76 912.6,-459.61 912.28,-459.23 911.95,-458.85 917.59,-454 909.35,-455.81 919.87,-452.71"/>
</g>
<!-- 40274 -->
<g id="node24" class="node">
<title>40274</title>
<polygon fill="none" stroke="#00876c" points="1477.03,-1048.62 1477.03,-1063.53 1378.59,-1074.08 1239.39,-1074.08 1140.95,-1063.53 1140.95,-1048.62 1239.39,-1038.08 1378.59,-1038.08 1477.03,-1048.62"/>
<polygon fill="none" stroke="#00876c" points="1481.03,-1045.03 1481.03,-1067.13 1378.81,-1078.08 1239.17,-1078.08 1136.95,-1067.13 1136.95,-1045.03 1239.17,-1034.08 1378.81,-1034.08 1481.03,-1045.03"/>
<text text-anchor="middle" x="1308.99" y="-1051.03" font-family="Times,serif" font-size="14.00">metaeffekt:Creative Commons BY 3.0</text>
</g>
<!-- 841&#45;&gt;40274 -->
<g id="edge5" class="edge">
<title>841&#45;&gt;40274</title>
<path fill="none" stroke="#00876c" stroke-width="2" d="M860.1,-706.06C974.98,-781.6 1004.62,-805.25 1273.46,-1026.79"/>
<polygon fill="#00876c" stroke="#00876c" stroke-width="2" points="1280.01,-1032.19 1269.43,-1029.31 1277.71,-1030.95 1271.97,-1026.22 1272.29,-1025.83 1272.61,-1025.45 1278.35,-1030.18 1275.15,-1022.36 1280.01,-1032.19"/>
</g>
<!-- 842 -->
<g id="node3" class="node">
<title>842</title>
<polygon fill="none" stroke="black" points="1095.26,-769.81 1095.26,-784.72 1061.73,-795.27 1014.3,-795.27 980.77,-784.72 980.77,-769.81 1014.3,-759.27 1061.73,-759.27 1095.26,-769.81"/>
<polygon fill="none" stroke="black" points="1099.26,-766.88 1099.26,-787.66 1062.34,-799.27 1013.69,-799.27 976.77,-787.66 976.77,-766.88 1013.69,-755.27 1062.34,-755.27 1099.26,-766.88"/>
<text text-anchor="middle" x="1038.01" y="-772.22" font-family="Times,serif" font-size="14.00">CC&#45;BY&#45;3.0</text>
</g>
<!-- 842&#45;&gt;841 -->
<g id="edge6" class="edge">
<title>842&#45;&gt;841</title>
<path fill="none" stroke="black" stroke-width="2" d="M1004.11,-757.77C953.39,-728.67 925.1,-712.92 902.38,-703.01"/>
<polygon fill="black" stroke="black" stroke-width="2" points="894.52,-699.78 905.48,-699.43 897.08,-700.29 903.96,-703.13 903.77,-703.59 903.58,-704.05 896.7,-701.22 902.05,-707.75 894.52,-699.78"/>
</g>
<!-- 842&#45;&gt;6085 -->
<g id="edge7" class="edge">
<title>842&#45;&gt;6085</title>
<path fill="none" stroke="#e09d4b" stroke-width="2" d="M1049.91,-754.79C1107.23,-646.68 1122.68,-623.18 1186.69,-594.93"/>
<polygon fill="#e09d4b" stroke="#e09d4b" stroke-width="2" points="1194.71,-591.49 1187.29,-599.57 1192.55,-592.96 1185.72,-595.89 1185.52,-595.43 1185.32,-594.97 1192.15,-592.04 1183.74,-591.3 1194.71,-591.49"/>
</g>
<!-- 842&#45;&gt;9509 -->
<g id="edge8" class="edge">
<title>842&#45;&gt;9509</title>
<path fill="none" stroke="#58a066" stroke-width="2" d="M1030.12,-754.93C963.42,-566.09 955.71,-541.92 950.25,-462.5"/>
<polygon fill="#58a066" stroke="#58a066" stroke-width="2" points="949.68,-453.88 954.83,-463.57 950.35,-456.41 950.84,-463.83 950.34,-463.86 949.84,-463.9 949.35,-456.47 945.85,-464.16 949.68,-453.88"/>
</g>
<!-- 13272 -->
<g id="node16" class="node">
<title>13272</title>
<polygon fill="none" stroke="black" points="1546.2,-718.54 1546.2,-733.45 1493.84,-744 1419.8,-744 1367.45,-733.45 1367.45,-718.54 1419.8,-708 1493.84,-708 1546.2,-718.54"/>
<polygon fill="none" stroke="black" points="1550.2,-715.27 1550.2,-736.73 1494.24,-748 1419.4,-748 1363.45,-736.73 1363.45,-715.27 1419.4,-704 1494.24,-704 1550.2,-715.27"/>
<text text-anchor="middle" x="1456.82" y="-720.95" font-family="Times,serif" font-size="14.00">scancode:cc&#45;by&#45;3.0</text>
</g>
<!-- 842&#45;&gt;13272 -->
<g id="edge9" class="edge">
<title>842&#45;&gt;13272</title>
<path fill="none" stroke="black" stroke-width="2" d="M1072.5,-758.11C1212.19,-680.94 1241.15,-672.81 1380.6,-706.66"/>
<polygon fill="black" stroke="black" stroke-width="2" points="1388.92,-708.7 1378.13,-710.69 1386.31,-708.58 1379.08,-706.81 1379.2,-706.32 1379.32,-705.84 1386.55,-707.61 1380.28,-701.95 1388.92,-708.7"/>
</g>
<!-- 26321 -->
<g id="node18" class="node">
<title>26321</title>
<polygon fill="none" stroke="#e18745" points="805.59,-806.55 805.59,-821.46 747.72,-832.01 665.87,-832.01 608,-821.46 608,-806.55 665.87,-796.01 747.72,-796.01 805.59,-806.55"/>
<polygon fill="none" stroke="#e18745" points="809.59,-803.22 809.59,-824.8 748.08,-836.01 665.51,-836.01 604,-824.8 604,-803.22 665.51,-792.01 748.08,-792.01 809.59,-803.22"/>
<text text-anchor="middle" x="706.8" y="-808.96" font-family="Times,serif" font-size="14.00">fossology:CC&#45;BY&#45;3.0</text>
</g>
<!-- 842&#45;&gt;26321 -->
<g id="edge10" class="edge">
<title>842&#45;&gt;26321</title>
<path fill="none" stroke="#e18745" stroke-width="2" d="M976.4,-771.7C850.89,-760.7 817.72,-761.62 760.75,-787.33"/>
<polygon fill="#e18745" stroke="#e18745" stroke-width="2" points="752.82,-791.02 759.99,-782.73 754.93,-789.49 761.68,-786.35 761.89,-786.81 762.1,-787.26 755.35,-790.39 763.78,-790.89 752.82,-791.02"/>
</g>
<!-- 36540 -->
<g id="node22" class="node">
<title>36540</title>
<polygon fill="none" stroke="#379469" points="1269.37,-427.22 1269.37,-442.13 1222.85,-452.68 1157.07,-452.68 1110.56,-442.13 1110.56,-427.22 1157.07,-416.68 1222.85,-416.68 1269.37,-427.22"/>
<polygon fill="none" stroke="#379469" points="1273.37,-424.03 1273.37,-445.33 1223.3,-456.68 1156.62,-456.68 1106.56,-445.33 1106.56,-424.03 1156.62,-412.68 1223.3,-412.68 1273.37,-424.03"/>
<text text-anchor="middle" x="1189.96" y="-429.63" font-family="Times,serif" font-size="14.00">cavil:CC&#45;BY&#45;3.0</text>
</g>
<!-- 842&#45;&gt;36540 -->
<g id="edge11" class="edge">
<title>842&#45;&gt;36540</title>
<path fill="none" stroke="#379469" stroke-width="2" d="M1042.54,-755.02C1082.1,-560.59 1089.05,-536.26 1159.79,-464.64"/>
<polygon fill="#379469" stroke="#379469" stroke-width="2" points="1165.58,-458.81 1161.72,-469.07 1164.13,-460.98 1158.89,-466.25 1158.53,-465.9 1158.18,-465.55 1163.42,-460.28 1155.34,-462.73 1165.58,-458.81"/>
</g>
<!-- 842&#45;&gt;40274 -->
<g id="edge12" class="edge">
<title>842&#45;&gt;40274</title>
<path fill="none" stroke="#00876c" stroke-dasharray="5,2" d="M1063.93,-799.11C1126.56,-852.21 1145.34,-872.29 1281.95,-1025.7"/>
<polygon fill="#00876c" stroke="#00876c" points="1288.59,-1033.16 1278.58,-1028.68 1286.07,-1030.33 1281.94,-1025.69 1281.94,-1025.69 1281.94,-1025.69 1286.07,-1030.33 1285.3,-1022.7 1288.59,-1033.16"/>
</g>
<!-- 50403 -->
<g id="node31" class="node">
<title>50403</title>
<polygon fill="none" stroke="#b8bf62" points="1965.5,-1088.7 1965.5,-1103.62 1827.15,-1114.16 1631.49,-1114.16 1493.14,-1103.62 1493.14,-1088.7 1631.49,-1078.16 1827.15,-1078.16 1965.5,-1088.7"/>
<polygon fill="none" stroke="#b8bf62" points="1969.5,-1085 1969.5,-1107.32 1827.3,-1118.16 1631.34,-1118.16 1489.14,-1107.32 1489.14,-1085 1631.34,-1074.16 1827.3,-1074.16 1969.5,-1085"/>
<text text-anchor="middle" x="1729.32" y="-1091.11" font-family="Times,serif" font-size="14.00">foss&#45;license:Creative Commons Attribution License 3.0</text>
</g>
<!-- 842&#45;&gt;50403 -->
<g id="edge13" class="edge">
<title>842&#45;&gt;50403</title>
<path fill="none" stroke="#b8bf62" stroke-width="2" d="M1099.65,-780.57C1436.33,-799.1 1461.89,-813.55 1700.57,-1065.75"/>
<polygon fill="#b8bf62" stroke="#b8bf62" stroke-width="2" points="1706.38,-1071.89 1696.24,-1067.72 1704.26,-1070.37 1699.15,-1064.97 1699.51,-1064.63 1699.87,-1064.28 1704.98,-1069.69 1702.78,-1061.53 1706.38,-1071.89"/>
</g>
<!-- 51124 -->
<g id="node37" class="node">
<title>51124</title>
<polygon fill="none" stroke="#dac767" points="889.68,-1168.31 889.68,-1183.22 754.9,-1193.77 564.29,-1193.77 429.51,-1183.22 429.51,-1168.31 564.29,-1157.77 754.9,-1157.77 889.68,-1168.31"/>
<polygon fill="none" stroke="#dac767" points="893.68,-1164.61 893.68,-1186.92 755.06,-1197.77 564.13,-1197.77 425.51,-1186.92 425.51,-1164.61 564.13,-1153.77 755.06,-1153.77 893.68,-1164.61"/>
<text text-anchor="middle" x="659.6" y="-1170.72" font-family="Times,serif" font-size="14.00">fosslight:Creative Commons Attribution 3.0 Unported</text>
</g>
<!-- 842&#45;&gt;51124 -->
<g id="edge14" class="edge">
<title>842&#45;&gt;51124</title>
<path fill="none" stroke="#dac767" stroke-width="2" d="M1004.35,-796.67C756.36,-939.78 740.59,-955.03 671.52,-1143.12"/>
<polygon fill="#dac767" stroke="#dac767" stroke-width="2" points="668.6,-1151.1 667.81,-1140.16 669.01,-1148.52 671.57,-1141.54 672.04,-1141.71 672.51,-1141.88 669.95,-1148.86 676.26,-1143.26 668.6,-1151.1"/>
</g>
<!-- 54255 -->
<g id="node41" class="node">
<title>54255</title>
<polygon fill="none" stroke="#98b561" points="791.73,-945.65 791.73,-960.57 740.34,-971.11 667.68,-971.11 616.3,-960.57 616.3,-945.65 667.68,-935.11 740.34,-935.11 791.73,-945.65"/>
<polygon fill="none" stroke="#98b561" points="795.73,-942.39 795.73,-963.83 740.75,-975.11 667.27,-975.11 612.3,-963.83 612.3,-942.39 667.27,-931.11 740.75,-931.11 795.73,-942.39"/>
<text text-anchor="middle" x="704.01" y="-948.06" font-family="Times,serif" font-size="14.00">eclipse:CC&#45;BY&#45;3.0</text>
</g>
<!-- 842&#45;&gt;54255 -->
<g id="edge15" class="edge">
<title>842&#45;&gt;54255</title>
<path fill="none" stroke="#98b561" stroke-width="2" d="M981.98,-789.76C821.68,-825.96 799.23,-837.58 729.18,-922.28"/>
<polygon fill="#98b561" stroke="#98b561" stroke-width="2" points="723.8,-928.82 726.68,-918.24 725.04,-926.53 729.77,-920.78 730.15,-921.1 730.54,-921.42 725.81,-927.16 733.63,-923.96 723.8,-928.82"/>
</g>
<!-- 843 -->
<g id="node4" class="node">
<title>843</title>
<polygon fill="none" stroke="black" points="1124.92,-1049.36 1124.92,-1064.27 1011.88,-1074.82 852.02,-1074.82 738.98,-1064.27 738.98,-1049.36 852.02,-1038.82 1011.88,-1038.82 1124.92,-1049.36"/>
<polygon fill="none" stroke="black" points="1128.92,-1045.72 1128.92,-1067.92 1012.07,-1078.82 851.83,-1078.82 734.98,-1067.92 734.98,-1045.72 851.83,-1034.82 1012.07,-1034.82 1128.92,-1045.72"/>
<text text-anchor="middle" x="931.95" y="-1051.77" font-family="Times,serif" font-size="14.00">Creative Commons Attribution 3.0 Unported</text>
</g>
<!-- 843&#45;&gt;841 -->
<g id="edge16" class="edge">
<title>843&#45;&gt;841</title>
<path fill="none" stroke="#b8bf62" stroke-width="2" d="M919.67,-1034.47C818.43,-850.19 809.32,-828.84 818.3,-718.26"/>
<polygon fill="#b8bf62" stroke="#b8bf62" stroke-width="2" points="819.02,-709.7 822.67,-720.04 819.3,-712.3 818.68,-719.71 818.18,-719.66 817.68,-719.62 818.31,-712.21 813.7,-719.29 819.02,-709.7"/>
</g>
<!-- 843&#45;&gt;26321 -->
<g id="edge17" class="edge">
<title>843&#45;&gt;26321</title>
<path fill="none" stroke="#e18745" stroke-width="2" d="M904.74,-1034.61C775.41,-928.96 757.01,-911.6 723.01,-846.08"/>
<polygon fill="#e18745" stroke="#e18745" stroke-width="2" points="719.21,-838.67 727.78,-845.51 720.83,-840.72 724.22,-847.34 723.78,-847.57 723.33,-847.8 719.94,-841.18 719.77,-849.62 719.21,-838.67"/>
</g>
<!-- 843&#45;&gt;50403 -->
<g id="edge18" class="edge">
<title>843&#45;&gt;50403</title>
<path fill="none" stroke="#b8bf62" stroke-width="2" d="M1039.25,-1036.86C1411.67,-968.25 1457.87,-970.89 1671.18,-1069.11"/>
<polygon fill="#b8bf62" stroke="#b8bf62" stroke-width="2" points="1678.92,-1072.69 1667.96,-1072.58 1676.39,-1072.06 1669.63,-1068.95 1669.84,-1068.49 1670.05,-1068.04 1676.8,-1071.16 1671.73,-1064.41 1678.92,-1072.69"/>
</g>
<!-- 843&#45;&gt;51124 -->
<g id="edge19" class="edge">
<title>843&#45;&gt;51124</title>
<path fill="none" stroke="#dac767" stroke-width="2" d="M860.28,-1079.29C763.93,-1109.82 736.11,-1121.03 698.5,-1147.12"/>
<polygon fill="#dac767" stroke="#dac767" stroke-width="2" points="691.75,-1151.9 697.31,-1142.45 693.55,-1150.01 699.62,-1145.71 699.91,-1146.12 700.2,-1146.53 694.13,-1150.83 702.51,-1149.79 691.75,-1151.9"/>
</g>
<!-- 51295 -->
<g id="node39" class="node">
<title>51295</title>
<polygon fill="none" stroke="#d43d51" points="1281.48,-1101.6 1281.48,-1116.51 1150.92,-1127.06 966.28,-1127.06 835.72,-1116.51 835.72,-1101.6 966.28,-1091.06 1150.92,-1091.06 1281.48,-1101.6"/>
<polygon fill="none" stroke="#d43d51" points="1285.48,-1097.91 1285.48,-1120.2 1151.08,-1131.06 966.12,-1131.06 831.72,-1120.2 831.72,-1097.91 966.12,-1087.06 1151.08,-1087.06 1285.48,-1097.91"/>
<text text-anchor="middle" x="1058.6" y="-1104.01" font-family="Times,serif" font-size="14.00">hitachi:Creative Commons Attribution 3.0 Unported</text>
</g>
<!-- 843&#45;&gt;51295 -->
<g id="edge20" class="edge">
<title>843&#45;&gt;51295</title>
<path fill="none" stroke="#d43d51" stroke-width="2" d="M969.12,-1079.2C971.69,-1080.37 974.41,-1081.52 977.38,-1082.7"/>
<polygon fill="#d43d51" stroke="#d43d51" stroke-width="2" points="985.53,-1085.74 974.59,-1086.46 982.96,-1085.32 975.99,-1082.71 976.16,-1082.25 976.34,-1081.78 983.31,-1084.38 977.74,-1078.03 985.53,-1085.74"/>
</g>
<!-- 843&#45;&gt;54255 -->
<g id="edge21" class="edge">
<title>843&#45;&gt;54255</title>
<path fill="none" stroke="#98b561" stroke-width="2" d="M872.91,-1034.44C802.27,-1007.53 775.54,-996.41 748.72,-981.08"/>
<polygon fill="#98b561" stroke="#98b561" stroke-width="2" points="741.26,-976.69 752.16,-977.89 743.73,-977.56 750.13,-981.33 749.88,-981.76 749.63,-982.19 743.22,-978.42 747.6,-985.64 741.26,-976.69"/>
</g>
<!-- 5521 -->
<g id="node5" class="node">
<title>5521</title>
<ellipse fill="none" stroke="#e06f45" cx="190.86" cy="-189.81" rx="152.91" ry="28.99"/>
<text text-anchor="middle" x="190.86" y="-193.01" font-family="Times,serif" font-size="14.00" fill="gray">GoogleLicense</text>
<text text-anchor="middle" x="190.86" y="-176.51" font-family="Times,serif" font-size="14.00" fill="gray">fe798f428bf7fa0a84c2411bfa73c851</text>
</g>
<!-- 5521&#45;&gt;5522 -->
<g id="edge22" class="edge">
<title>5521&#45;&gt;5522</title>
<path fill="none" stroke="#e06f45" d="M267.25,-215.24C323.75,-236.3 367.83,-261.63 513.11,-348.83"/>
<polygon fill="#e06f45" stroke="#e06f45" points="511.16,-351.74 521.53,-353.88 514.76,-345.74 511.16,-351.74"/>
</g>
<!-- 5523 -->
<g id="node7" class="node">
<title>5523</title>
<polygon fill="none" stroke="#e06f45" points="455.02,-140.85 455.02,-155.76 426.36,-166.31 385.82,-166.31 357.15,-155.76 357.15,-140.85 385.82,-130.31 426.36,-130.31 455.02,-140.85"/>
<polygon fill="none" stroke="#e06f45" points="459.02,-138.06 459.02,-158.55 427.07,-170.31 385.11,-170.31 353.15,-158.55 353.15,-138.06 385.11,-126.31 427.07,-126.31 459.02,-138.06"/>
<text text-anchor="middle" x="406.09" y="-143.26" font-family="Times,serif" font-size="14.00">CCBY30</text>
</g>
<!-- 5523&#45;&gt;5522 -->
<g id="edge23" class="edge">
<title>5523&#45;&gt;5522</title>
<path fill="none" stroke="#e06f45" stroke-width="2" d="M417.39,-170.46C443.14,-220.44 454.67,-237.13 535.39,-344.96"/>
<polygon fill="#e06f45" stroke="#e06f45" stroke-width="2" points="540.65,-351.97 531.05,-346.66 538.71,-350.22 534.25,-344.27 534.65,-343.97 535.05,-343.67 539.51,-349.62 538.25,-341.27 540.65,-351.97"/>
</g>
<!-- 6060 -->
<g id="node8" class="node">
<title>6060</title>
<polygon fill="none" stroke="black" points="1355.61,-766.58 1355.61,-781.49 1330.83,-792.04 1295.8,-792.04 1271.03,-781.49 1271.03,-766.58 1295.8,-756.04 1330.83,-756.04 1355.61,-766.58"/>
<text text-anchor="middle" x="1313.32" y="-768.99" font-family="Times,serif" font-size="14.00">CC&#45;BY</text>
</g>
<!-- 6060&#45;&gt;6085 -->
<g id="edge24" class="edge">
<title>6060&#45;&gt;6085</title>
<path fill="none" stroke="#e09d4b" stroke-dasharray="5,2" d="M1308.81,-755.83C1284.66,-658.22 1278.41,-634.61 1263.27,-602.86"/>
<polygon fill="#e09d4b" stroke="#e09d4b" points="1259.03,-594.24 1267.48,-601.23 1260.7,-597.63 1263.44,-603.21 1263.44,-603.21 1263.44,-603.21 1260.7,-597.63 1259.4,-605.2 1259.03,-594.24"/>
</g>
<!-- 6060&#45;&gt;40274 -->
<g id="edge25" class="edge">
<title>6060&#45;&gt;40274</title>
<path fill="none" stroke="#00876c" stroke-dasharray="5,2" d="M1313.22,-792.46C1312.86,-855.53 1312.59,-872.04 1309.64,-1022.92"/>
<polygon fill="#00876c" stroke="#00876c" points="1309.45,-1032.8 1305.14,-1022.72 1309.52,-1029.02 1309.64,-1022.81 1309.64,-1022.81 1309.64,-1022.81 1309.52,-1029.02 1314.14,-1022.89 1309.45,-1032.8"/>
</g>
<!-- 6084 -->
<g id="node9" class="node">
<title>6084</title>
<ellipse fill="none" stroke="#e09d4b" cx="1440.13" cy="-228.64" rx="158.75" ry="28.99"/>
<text text-anchor="middle" x="1440.13" y="-231.84" font-family="Times,serif" font-size="14.00" fill="gray">FedoraEntry</text>
<text text-anchor="middle" x="1440.13" y="-215.34" font-family="Times,serif" font-size="14.00" fill="gray">7d074a77c85d1a724787bf16fa596968</text>
</g>
<!-- 6084&#45;&gt;6085 -->
<g id="edge26" class="edge">
<title>6084&#45;&gt;6085</title>
<path fill="none" stroke="#e09d4b" d="M1411.59,-257.48C1349.83,-321.09 1337.39,-347.26 1260.18,-538.1"/>
<polygon fill="#e09d4b" stroke="#e09d4b" points="1257.05,-536.52 1256.54,-547.1 1263.54,-539.14 1257.05,-536.52"/>
</g>
<!-- 6086 -->
<g id="node11" class="node">
<title>6086</title>
<polygon fill="none" stroke="black" points="1851.21,-649.91 1851.21,-664.82 1744.01,-675.36 1592.41,-675.36 1485.22,-664.82 1485.22,-649.91 1592.41,-639.36 1744.01,-639.36 1851.21,-649.91"/>
<polygon fill="none" stroke="black" points="1855.21,-646.28 1855.21,-668.45 1744.21,-679.36 1592.22,-679.36 1481.22,-668.45 1481.22,-646.28 1592.22,-635.36 1744.21,-635.36 1855.21,-646.28"/>
<text text-anchor="middle" x="1668.21" y="-652.31" font-family="Times,serif" font-size="14.00">Creative Commons Attribution license 3.0</text>
</g>
<!-- 6086&#45;&gt;6085 -->
<g id="edge27" class="edge">
<title>6086&#45;&gt;6085</title>
<path fill="none" stroke="#e09d4b" stroke-dasharray="5,2" d="M1635.1,-634.97C1507.05,-548.81 1476.4,-536.44 1339.86,-556.05"/>
<polygon fill="#e09d4b" stroke="#e09d4b" points="1330.17,-557.47 1339.41,-551.57 1333.91,-556.92 1340.07,-556.02 1340.07,-556.02 1340.07,-556.02 1333.91,-556.92 1340.72,-560.47 1330.17,-557.47"/>
</g>
<!-- 6086&#45;&gt;13272 -->
<g id="edge28" class="edge">
<title>6086&#45;&gt;13272</title>
<path fill="none" stroke="#dac767" stroke-width="2" d="M1550.57,-675.58C1538.19,-681.47 1523.77,-689.06 1505.97,-698.78"/>
<polygon fill="#dac767" stroke="#dac767" stroke-width="2" points="1498.49,-702.88 1505.09,-694.13 1500.49,-701.21 1507.01,-697.64 1507.25,-698.08 1507.49,-698.51 1500.97,-702.09 1509.42,-702.02 1498.49,-702.88"/>
</g>
<!-- 6086&#45;&gt;50403 -->
<g id="edge29" class="edge">
<title>6086&#45;&gt;50403</title>
<path fill="none" stroke="#b8bf62" stroke-width="2" d="M1681.76,-679.5C1771.22,-826.11 1773.55,-842.92 1735.14,-1062.96"/>
<polygon fill="#b8bf62" stroke="#b8bf62" stroke-width="2" points="1733.64,-1071.53 1730.93,-1060.91 1733.59,-1068.92 1734.87,-1061.59 1735.36,-1061.68 1735.86,-1061.77 1734.57,-1069.09 1739.8,-1062.46 1733.64,-1071.53"/>
</g>
<!-- 9508 -->
<g id="node12" class="node">
<title>9508</title>
<ellipse fill="none" stroke="#58a066" cx="951.73" cy="-28.57" rx="161.4" ry="28.99"/>
<text text-anchor="middle" x="951.73" y="-31.77" font-family="Times,serif" font-size="14.00" fill="gray">OSADLRule</text>
<text text-anchor="middle" x="951.73" y="-15.27" font-family="Times,serif" font-size="14.00" fill="gray">3d29cb9680841c524a675d1a7657c158</text>
</g>
<!-- 9508&#45;&gt;9509 -->
<g id="edge30" class="edge">
<title>9508&#45;&gt;9509</title>
<path fill="none" stroke="#58a066" d="M944.35,-57.89C921.09,-151.96 922,-175.52 944.69,-395.47"/>
<polygon fill="#58a066" stroke="#58a066" points="941.19,-395.69 945.7,-405.27 948.15,-394.97 941.19,-395.69"/>
</g>
<!-- 9830 -->
<g id="node14" class="node">
<title>9830</title>
<ellipse fill="none" stroke="#58a066" cx="738.36" cy="-94.56" rx="159.81" ry="28.99"/>
<text text-anchor="middle" x="738.36" y="-97.76" font-family="Times,serif" font-size="14.00" fill="gray">OSADLMatrix</text>
<text text-anchor="middle" x="738.36" y="-81.26" font-family="Times,serif" font-size="14.00" fill="gray">139d08d86e1e82d03f07a6e4d1dbe054</text>
</g>
<!-- 9830&#45;&gt;9509 -->
<g id="edge31" class="edge">
<title>9830&#45;&gt;9509</title>
<path fill="none" stroke="#58a066" d="M758.17,-123.64C804.34,-191.6 819.27,-215.86 928.81,-397"/>
<polygon fill="#58a066" stroke="#58a066" points="925.66,-398.55 933.83,-405.3 931.65,-394.93 925.66,-398.55"/>
</g>
<!-- 13271 -->
<g id="node15" class="node">
<title>13271</title>
<ellipse fill="none" stroke="#dac767" cx="1760.54" cy="-461.9" rx="160.34" ry="28.99"/>
<text text-anchor="middle" x="1760.54" y="-465.1" font-family="Times,serif" font-size="14.00" fill="gray">ScancodeData</text>
<text text-anchor="middle" x="1760.54" y="-448.6" font-family="Times,serif" font-size="14.00" fill="gray">82f461028e84733ad060c7872cd6d59b</text>
</g>
<!-- 13271&#45;&gt;13272 -->
<g id="edge32" class="edge">
<title>13271&#45;&gt;13272</title>
<path fill="none" stroke="#dac767" d="M1712.23,-489.81C1648.65,-528.02 1620.72,-555.33 1485.83,-695.78"/>
<polygon fill="#dac767" stroke="#dac767" points="1483.52,-693.14 1479.12,-702.77 1488.57,-697.98 1483.52,-693.14"/>
</g>
<!-- 13272&#45;&gt;40274 -->
<g id="edge33" class="edge">
<title>13272&#45;&gt;40274</title>
<path fill="none" stroke="#00876c" stroke-dasharray="5,2" d="M1445.66,-748.12C1409.17,-820.58 1400.55,-840.17 1322.86,-1023.37"/>
<polygon fill="#00876c" stroke="#00876c" points="1318.97,-1032.53 1318.74,-1021.57 1320.45,-1029.05 1322.88,-1023.32 1322.88,-1023.32 1322.88,-1023.32 1320.45,-1029.05 1327.02,-1025.08 1318.97,-1032.53"/>
</g>
<!-- 13272&#45;&gt;50403 -->
<g id="edge34" class="edge">
<title>13272&#45;&gt;50403</title>
<path fill="none" stroke="#b8bf62" stroke-width="2" d="M1492.36,-748.45C1660.56,-855.1 1672.31,-872.45 1720.93,-1063.1"/>
<polygon fill="#b8bf62" stroke="#b8bf62" stroke-width="2" points="1723.05,-1071.44 1716.23,-1062.86 1721.94,-1069.08 1720.1,-1061.87 1720.59,-1061.75 1721.07,-1061.63 1722.91,-1068.84 1724.95,-1060.64 1723.05,-1071.44"/>
</g>
<!-- 26320 -->
<g id="node17" class="node">
<title>26320</title>
<ellipse fill="none" stroke="#e18745" cx="155.1" cy="-807.06" rx="155.03" ry="28.99"/>
<text text-anchor="middle" x="155.1" y="-810.26" font-family="Times,serif" font-size="14.00" fill="gray">Fossology</text>
<text text-anchor="middle" x="155.1" y="-793.76" font-family="Times,serif" font-size="14.00" fill="gray">c7c12bceeabc53a04af005c4e4149fd8</text>
</g>
<!-- 26320&#45;&gt;26321 -->
<g id="edge35" class="edge">
<title>26320&#45;&gt;26321</title>
<path fill="none" stroke="#e18745" d="M273.27,-787.9C344.37,-780.2 410.86,-784.57 592.33,-802.52"/>
<polygon fill="#e18745" stroke="#e18745" points="591.79,-805.98 602.09,-803.49 592.48,-799.02 591.79,-805.98"/>
</g>
<!-- 28565 -->
<g id="node19" class="node">
<title>28565</title>
<ellipse fill="none" stroke="#e06f45" cx="474.36" cy="-622.45" rx="158.22" ry="28.99"/>
<text text-anchor="middle" x="474.36" y="-625.65" font-family="Times,serif" font-size="14.00" fill="gray">OrtLicenseCategorization</text>
<text text-anchor="middle" x="474.36" y="-609.15" font-family="Times,serif" font-size="14.00" fill="gray">f75e8e8983bd713092feeb279a6d27db</text>
</g>
<!-- 28565&#45;&gt;841 -->
<g id="edge36" class="edge">
<title>28565&#45;&gt;841</title>
<path fill="none" stroke="#e06f45" d="M630.94,-627.04C659.36,-633.42 694.98,-643.39 745.57,-658.27"/>
<polygon fill="#e06f45" stroke="#e06f45" points="744.56,-661.62 755.14,-661.09 746.54,-654.91 744.56,-661.62"/>
</g>
<!-- 35402 -->
<g id="node20" class="node">
<title>35402</title>
<ellipse fill="none" stroke="#e09d4b" cx="553.03" cy="-492.33" rx="159.28" ry="28.99"/>
<text text-anchor="middle" x="553.03" y="-495.53" font-family="Times,serif" font-size="14.00" fill="gray">OrtLicenseCategorization</text>
<text text-anchor="middle" x="553.03" y="-479.03" font-family="Times,serif" font-size="14.00" fill="gray">443c101b95cde0a2a24606f0a69d7b09</text>
</g>
<!-- 35402&#45;&gt;841 -->
<g id="edge37" class="edge">
<title>35402&#45;&gt;841</title>
<path fill="none" stroke="#e09d4b" d="M598.15,-520.62C640.16,-547.44 669.43,-568.58 777.01,-647.94"/>
<polygon fill="#e09d4b" stroke="#e09d4b" points="774.93,-650.75 785.06,-653.87 779.09,-645.12 774.93,-650.75"/>
</g>
<!-- 36539 -->
<g id="node21" class="node">
<title>36539</title>
<ellipse fill="none" stroke="#379469" cx="1280.9" cy="-51.97" rx="155.03" ry="28.99"/>
<text text-anchor="middle" x="1280.9" y="-55.17" font-family="Times,serif" font-size="14.00" fill="gray">CavilLicenseChange</text>
<text text-anchor="middle" x="1280.9" y="-38.67" font-family="Times,serif" font-size="14.00" fill="gray">f06200f0e5e253c581c5cdf63a3dee71</text>
</g>
<!-- 36539&#45;&gt;36540 -->
<g id="edge38" class="edge">
<title>36539&#45;&gt;36540</title>
<path fill="none" stroke="#379469" d="M1267.48,-81.35C1230.54,-163.22 1225.74,-188.11 1194.82,-401.14"/>
<polygon fill="#379469" stroke="#379469" points="1191.38,-400.53 1193.4,-410.92 1198.3,-401.53 1191.38,-400.53"/>
</g>
<!-- 40273 -->
<g id="node23" class="node">
<title>40273</title>
<ellipse fill="none" stroke="#00876c" cx="1644.71" cy="-1428.14" rx="157.15" ry="28.99"/>
<text text-anchor="middle" x="1644.71" y="-1431.34" font-family="Times,serif" font-size="14.00" fill="gray">MetaeffektLicense</text>
<text text-anchor="middle" x="1644.71" y="-1414.84" font-family="Times,serif" font-size="14.00" fill="gray">60b9491c2e8d90ce29da5fcdf575081e</text>
</g>
<!-- 40273&#45;&gt;40274 -->
<g id="edge39" class="edge">
<title>40273&#45;&gt;40274</title>
<path fill="none" stroke="#00876c" d="M1623.25,-1398.98C1556.01,-1308 1535.35,-1285.97 1338.95,-1086.5"/>
<polygon fill="#00876c" stroke="#00876c" points="1341.56,-1084.16 1332.05,-1079.49 1336.57,-1089.07 1341.56,-1084.16"/>
</g>
<!-- 40275 -->
<g id="node25" class="node">
<title>40275</title>
<polygon fill="none" stroke="black" points="1768.06,-1140.71 1768.06,-1155.62 1696.56,-1166.17 1595.44,-1166.17 1523.94,-1155.62 1523.94,-1140.71 1595.44,-1130.17 1696.56,-1130.17 1768.06,-1140.71"/>
<polygon fill="none" stroke="black" points="1772.06,-1137.26 1772.06,-1159.07 1696.86,-1170.17 1595.15,-1170.17 1519.94,-1159.07 1519.94,-1137.26 1595.15,-1126.17 1696.86,-1126.17 1772.06,-1137.26"/>
<text text-anchor="middle" x="1646" y="-1143.12" font-family="Times,serif" font-size="14.00">Creative Commons BY 3.0</text>
</g>
<!-- 40275&#45;&gt;40274 -->
<g id="edge40" class="edge">
<title>40275&#45;&gt;40274</title>
<path fill="none" stroke="#00876c" stroke-width="2" d="M1596.99,-1125.7C1551.86,-1106.11 1519.28,-1097.32 1419.5,-1077.53"/>
<polygon fill="#00876c" stroke="#00876c" stroke-width="2" points="1411.04,-1075.85 1421.72,-1073.38 1413.65,-1075.86 1420.94,-1077.3 1420.85,-1077.79 1420.75,-1078.28 1413.45,-1076.84 1419.98,-1082.21 1411.04,-1075.85"/>
</g>
<!-- 40275&#45;&gt;50403 -->
<g id="edge41" class="edge">
<title>40275&#45;&gt;50403</title>
<path fill="none" stroke="#b8bf62" stroke-width="2" d="M1697.38,-1125.82C1698.23,-1125.36 1699.05,-1124.89 1699.85,-1124.44"/>
<polygon fill="#b8bf62" stroke="#b8bf62" stroke-width="2" points="1706.85,-1119.71 1701.08,-1129.04 1705,-1121.56 1698.84,-1125.72 1698.56,-1125.31 1698.28,-1124.89 1704.44,-1120.73 1696.04,-1121.58 1706.85,-1119.71"/>
</g>
<!-- 40276 -->
<g id="node26" class="node">
<title>40276</title>
<polygon fill="none" stroke="black" points="1449.11,-1581.69 1449.11,-1596.61 1359.76,-1607.15 1233.4,-1607.15 1144.05,-1596.61 1144.05,-1581.69 1233.4,-1571.15 1359.76,-1571.15 1449.11,-1581.69"/>
<polygon fill="none" stroke="black" points="1453.11,-1578.14 1453.11,-1600.16 1360,-1611.15 1233.17,-1611.15 1140.05,-1600.16 1140.05,-1578.14 1233.17,-1567.15 1360,-1567.15 1453.11,-1578.14"/>
<text text-anchor="middle" x="1296.58" y="-1584.1" font-family="Times,serif" font-size="14.00">Creative Commons Attribution 3.0</text>
</g>
<!-- 40276&#45;&gt;40274 -->
<g id="edge42" class="edge">
<title>40276&#45;&gt;40274</title>
<path fill="none" stroke="#00876c" stroke-dasharray="5,2" d="M1297.26,-1566.81C1301.35,-1432.86 1301.81,-1412.28 1308.31,-1089.6"/>
<polygon fill="#00876c" stroke="#00876c" points="1308.51,-1079.71 1312.81,-1089.8 1308.44,-1083.49 1308.31,-1089.71 1308.31,-1089.71 1308.31,-1089.71 1308.44,-1083.49 1303.81,-1089.62 1308.51,-1079.71"/>
</g>
<!-- 40276&#45;&gt;50403 -->
<g id="edge43" class="edge">
<title>40276&#45;&gt;50403</title>
<path fill="none" stroke="#b8bf62" stroke-width="2" d="M1342.32,-1566.82C1590.37,-1445.23 1604.93,-1424.84 1717.12,-1128.42"/>
<polygon fill="#b8bf62" stroke="#b8bf62" stroke-width="2" points="1720.12,-1120.49 1720.79,-1131.44 1719.68,-1123.07 1717.05,-1130.02 1716.58,-1129.85 1716.12,-1129.67 1718.75,-1122.71 1712.38,-1128.25 1720.12,-1120.49"/>
</g>
<!-- 55560 -->
<g id="node43" class="node">
<title>55560</title>
<polygon fill="none" stroke="#e18745" points="1475.25,-2109.33 1475.25,-2124.24 1368.06,-2134.78 1216.46,-2134.78 1109.26,-2124.24 1109.26,-2109.33 1216.46,-2098.78 1368.06,-2098.78 1475.25,-2109.33"/>
<polygon fill="none" stroke="#e18745" points="1479.25,-2105.7 1479.25,-2127.86 1368.25,-2138.78 1216.26,-2138.78 1105.26,-2127.86 1105.26,-2105.7 1216.26,-2094.78 1368.25,-2094.78 1479.25,-2105.7"/>
<text text-anchor="middle" x="1292.26" y="-2111.73" font-family="Times,serif" font-size="14.00">ifrOSS:Creative Commons Attribution 3.0</text>
</g>
<!-- 40276&#45;&gt;55560 -->
<g id="edge44" class="edge">
<title>40276&#45;&gt;55560</title>
<path fill="none" stroke="#e18745" stroke-width="2" d="M1296.36,-1611.41C1293.13,-1931.92 1292.87,-1959.22 1292.38,-2083.56"/>
<polygon fill="#e18745" stroke="#e18745" stroke-width="2" points="1292.35,-2092.25 1287.89,-2082.23 1291.86,-2089.68 1291.89,-2082.25 1292.39,-2082.25 1292.89,-2082.25 1292.86,-2089.69 1296.89,-2082.27 1292.35,-2092.25"/>
</g>
<!-- 40277 -->
<g id="node27" class="node">
<title>40277</title>
<polygon fill="none" stroke="black" points="1482.02,-1360.93 1482.02,-1375.84 1452.38,-1386.39 1410.47,-1386.39 1380.83,-1375.84 1380.83,-1360.93 1410.47,-1350.39 1452.38,-1350.39 1482.02,-1360.93"/>
<polygon fill="none" stroke="black" points="1486.02,-1358.11 1486.02,-1378.66 1453.07,-1390.39 1409.78,-1390.39 1376.83,-1378.66 1376.83,-1358.11 1409.78,-1346.39 1453.07,-1346.39 1486.02,-1358.11"/>
<text text-anchor="middle" x="1431.42" y="-1363.34" font-family="Times,serif" font-size="14.00">CC&#45;A 3.0</text>
</g>
<!-- 40277&#45;&gt;40274 -->
<g id="edge45" class="edge">
<title>40277&#45;&gt;40274</title>
<path fill="none" stroke="#00876c" stroke-dasharray="5,2" d="M1425.22,-1345.99C1404.9,-1273.1 1397.35,-1254.56 1323.49,-1088.64"/>
<polygon fill="#00876c" stroke="#00876c" points="1319.49,-1079.66 1327.67,-1086.97 1321.03,-1083.12 1323.56,-1088.8 1323.56,-1088.8 1323.56,-1088.8 1321.03,-1083.12 1319.45,-1090.63 1319.49,-1079.66"/>
</g>
<!-- 40277&#45;&gt;50403 -->
<g id="edge46" class="edge">
<title>40277&#45;&gt;50403</title>
<path fill="none" stroke="#b8bf62" stroke-width="2" d="M1468.5,-1351.38C1640.28,-1272.28 1656.29,-1258.41 1714.82,-1128.58"/>
<polygon fill="#b8bf62" stroke="#b8bf62" stroke-width="2" points="1718.3,-1120.84 1718.31,-1131.8 1717.71,-1123.38 1714.66,-1130.17 1714.2,-1129.96 1713.75,-1129.76 1716.8,-1122.97 1710.1,-1128.12 1718.3,-1120.84"/>
</g>
<!-- 40278 -->
<g id="node28" class="node">
<title>40278</title>
<polygon fill="none" stroke="black" points="1899.14,-1140.73 1899.14,-1155.64 1865.61,-1166.18 1818.19,-1166.18 1784.66,-1155.64 1784.66,-1140.73 1818.19,-1130.18 1865.61,-1130.18 1899.14,-1140.73"/>
<polygon fill="none" stroke="black" points="1903.14,-1137.79 1903.14,-1158.58 1866.22,-1170.18 1817.57,-1170.18 1780.66,-1158.58 1780.66,-1137.79 1817.57,-1126.18 1866.22,-1126.18 1903.14,-1137.79"/>
<text text-anchor="middle" x="1841.9" y="-1143.13" font-family="Times,serif" font-size="14.00">CC&#45;BY 3.0</text>
</g>
<!-- 40278&#45;&gt;40274 -->
<g id="edge47" class="edge">
<title>40278&#45;&gt;40274</title>
<path fill="none" stroke="#00876c" stroke-dasharray="5,2" d="M1792.29,-1133.8C1697.2,-1106.68 1654.71,-1098.94 1449.86,-1073.42"/>
<polygon fill="#00876c" stroke="#00876c" points="1440.23,-1072.22 1450.71,-1068.99 1443.99,-1072.69 1450.16,-1073.46 1450.16,-1073.46 1450.16,-1073.46 1443.99,-1072.69 1449.6,-1077.92 1440.23,-1072.22"/>
</g>
<!-- 40278&#45;&gt;50403 -->
<g id="edge48" class="edge">
<title>40278&#45;&gt;50403</title>
<path fill="none" stroke="#b8bf62" stroke-width="2" d="M1812.69,-1127.23C1810.05,-1125.77 1807.27,-1124.35 1804.19,-1122.93"/>
<polygon fill="#b8bf62" stroke="#b8bf62" stroke-width="2" points="1796.14,-1119.51 1807.1,-1119.28 1798.7,-1120.05 1805.54,-1122.96 1805.34,-1123.42 1805.15,-1123.88 1798.3,-1120.97 1803.58,-1127.56 1796.14,-1119.51"/>
</g>
<!-- 40279 -->
<g id="node29" class="node">
<title>40279</title>
<polygon fill="none" stroke="#00876c" points="1717.59,-1533.65 1717.59,-1548.57 1608.77,-1559.11 1454.88,-1559.11 1346.06,-1548.57 1346.06,-1533.65 1454.88,-1523.11 1608.77,-1523.11 1717.59,-1533.65"/>
<text text-anchor="middle" x="1531.83" y="-1536.06" font-family="Times,serif" font-size="14.00">http://creativecommons.org/licenses/by/3.0</text>
</g>
<!-- 40279&#45;&gt;40274 -->
<g id="edge49" class="edge">
<title>40279&#45;&gt;40274</title>
<path fill="none" stroke="#00876c" stroke-dasharray="5,2" d="M1524.88,-1522.92C1475.86,-1394.74 1467.95,-1377.73 1325.03,-1088.53"/>
<polygon fill="#00876c" stroke="#00876c" points="1320.65,-1079.66 1329.11,-1086.63 1322.32,-1083.05 1325.08,-1088.62 1325.08,-1088.62 1325.08,-1088.62 1322.32,-1083.05 1321.04,-1090.62 1320.65,-1079.66"/>
</g>
<!-- 50402 -->
<g id="node30" class="node">
<title>50402</title>
<ellipse fill="none" stroke="#b8bf62" cx="2254.33" cy="-1219.34" rx="153.97" ry="28.99"/>
<text text-anchor="middle" x="2254.33" y="-1222.54" font-family="Times,serif" font-size="14.00" fill="gray">FossLicense</text>
<text text-anchor="middle" x="2254.33" y="-1206.04" font-family="Times,serif" font-size="14.00" fill="gray">dda97f57a334c7a26eaea3dcf5bfc569</text>
</g>
<!-- 50402&#45;&gt;50403 -->
<g id="edge50" class="edge">
<title>50402&#45;&gt;50403</title>
<path fill="none" stroke="#b8bf62" d="M2178.35,-1193.79C2100.11,-1168.49 2046.95,-1156.76 1852.66,-1119.62"/>
<polygon fill="#b8bf62" stroke="#b8bf62" points="1853.46,-1116.21 1842.98,-1117.77 1852.14,-1123.09 1853.46,-1116.21"/>
</g>
<!-- 50404 -->
<g id="node32" class="node">
<title>50404</title>
<polygon fill="none" stroke="#b8bf62" points="2231.8,-1325.5 2231.8,-1340.41 2176.2,-1350.95 2097.57,-1350.95 2041.97,-1340.41 2041.97,-1325.5 2097.57,-1314.95 2176.2,-1314.95 2231.8,-1325.5"/>
<polygon fill="none" stroke="#b8bf62" points="2235.8,-1322.19 2235.8,-1343.72 2176.57,-1354.95 2097.19,-1354.95 2037.97,-1343.72 2037.97,-1322.19 2097.19,-1310.95 2176.57,-1310.95 2235.8,-1322.19"/>
<text text-anchor="middle" x="2136.88" y="-1327.9" font-family="Times,serif" font-size="14.00">scancode://cc&#45;by&#45;3.0</text>
</g>
<!-- 50404&#45;&gt;50403 -->
<g id="edge51" class="edge">
<title>50404&#45;&gt;50403</title>
<path fill="none" stroke="#b8bf62" stroke-width="2" d="M2112.43,-1310.59C2030.95,-1236.56 2006.23,-1222.42 1788.88,-1123.29"/>
<polygon fill="#b8bf62" stroke="#b8bf62" stroke-width="2" points="1780.94,-1119.67 1791.91,-1119.72 1783.48,-1120.27 1790.25,-1123.36 1790.04,-1123.81 1789.83,-1124.27 1783.07,-1121.18 1788.17,-1127.91 1780.94,-1119.67"/>
</g>
<!-- 50405 -->
<g id="node33" class="node">
<title>50405</title>
<polygon fill="none" stroke="#b8bf62" points="2607.31,-1072.97 2607.31,-1087.88 2469.28,-1098.42 2274.08,-1098.42 2136.06,-1087.88 2136.06,-1072.97 2274.08,-1062.42 2469.28,-1062.42 2607.31,-1072.97"/>
<polygon fill="none" stroke="#b8bf62" points="2611.31,-1069.26 2611.31,-1091.58 2469.43,-1102.42 2273.93,-1102.42 2132.06,-1091.58 2132.06,-1069.26 2273.93,-1058.42 2469.43,-1058.42 2611.31,-1069.26"/>
<text text-anchor="middle" x="2371.68" y="-1075.37" font-family="Times,serif" font-size="14.00">Creative Commons Attribution unported (CC&#45;BY) v3.0</text>
</g>
<!-- 50405&#45;&gt;50403 -->
<g id="edge52" class="edge">
<title>50405&#45;&gt;50403</title>
<path fill="none" stroke="#b8bf62" stroke-width="2" d="M2131.91,-1086.82C2092.34,-1087.78 2044.65,-1088.9 1980.6,-1090.38"/>
<polygon fill="#b8bf62" stroke="#b8bf62" stroke-width="2" points="1972.18,-1090.58 1982.07,-1085.84 1974.73,-1090.02 1982.17,-1089.84 1982.18,-1090.34 1982.19,-1090.84 1974.76,-1091.02 1982.28,-1094.84 1972.18,-1090.58"/>
</g>
<!-- 50406 -->
<g id="node34" class="node">
<title>50406</title>
<polygon fill="none" stroke="#b8bf62" points="2455.07,-885.8 2455.07,-900.71 2346.25,-911.25 2192.35,-911.25 2083.53,-900.71 2083.53,-885.8 2192.35,-875.25 2346.25,-875.25 2455.07,-885.8"/>
<polygon fill="none" stroke="#b8bf62" points="2459.07,-882.17 2459.07,-904.34 2346.44,-915.25 2192.16,-915.25 2079.53,-904.34 2079.53,-882.17 2192.16,-871.25 2346.44,-871.25 2459.07,-882.17"/>
<text text-anchor="middle" x="2269.3" y="-888.2" font-family="Times,serif" font-size="14.00">http://creativecommons.org/licenses/by/3.0</text>
</g>
<!-- 50406&#45;&gt;50403 -->
<g id="edge53" class="edge">
<title>50406&#45;&gt;50403</title>
<path fill="none" stroke="#b8bf62" stroke-width="2" d="M2227.56,-915.58C2119.79,-972.75 2082.25,-986.44 1812,-1070.48"/>
<polygon fill="#b8bf62" stroke="#b8bf62" stroke-width="2" points="1803.79,-1073.04 1812,-1065.77 1806.09,-1071.8 1813.19,-1069.59 1813.34,-1070.07 1813.49,-1070.55 1806.39,-1072.75 1814.67,-1074.37 1803.79,-1073.04"/>
</g>
<!-- 50407 -->
<g id="node35" class="node">
<title>50407</title>
<polygon fill="none" stroke="#b8bf62" points="2110.15,-1457.18 2110.15,-1472.1 2057.79,-1482.64 1983.75,-1482.64 1931.4,-1472.1 1931.4,-1457.18 1983.75,-1446.64 2057.79,-1446.64 2110.15,-1457.18"/>
<polygon fill="none" stroke="#b8bf62" points="2114.15,-1453.91 2114.15,-1475.37 2058.19,-1486.64 1983.35,-1486.64 1927.4,-1475.37 1927.4,-1453.91 1983.35,-1442.64 2058.19,-1442.64 2114.15,-1453.91"/>
<text text-anchor="middle" x="2020.77" y="-1459.59" font-family="Times,serif" font-size="14.00">scancode:cc&#45;by&#45;3.0</text>
</g>
<!-- 50407&#45;&gt;50403 -->
<g id="edge54" class="edge">
<title>50407&#45;&gt;50403</title>
<path fill="none" stroke="#b8bf62" stroke-width="2" d="M2012.78,-1442.42C1966.64,-1314.78 1954.25,-1299.2 1762.06,-1125.69"/>
<polygon fill="#b8bf62" stroke="#b8bf62" stroke-width="2" points="1755.77,-1120.02 1766.21,-1123.38 1758.01,-1121.37 1763.53,-1126.35 1763.2,-1126.72 1762.86,-1127.09 1757.34,-1122.11 1760.18,-1130.06 1755.77,-1120.02"/>
</g>
<!-- 51123 -->
<g id="node36" class="node">
<title>51123</title>
<ellipse fill="none" stroke="#dac767" cx="307.26" cy="-1552.22" rx="156.62" ry="28.99"/>
<text text-anchor="middle" x="307.26" y="-1555.42" font-family="Times,serif" font-size="14.00" fill="gray">FOSSLight</text>
<text text-anchor="middle" x="307.26" y="-1538.92" font-family="Times,serif" font-size="14.00" fill="gray">0b5dbc84ba5d5b2326efca58f8dbb0f8</text>
</g>
<!-- 51123&#45;&gt;51124 -->
<g id="edge55" class="edge">
<title>51123&#45;&gt;51124</title>
<path fill="none" stroke="#dac767" d="M321.85,-1522.91C383.13,-1400.75 401.55,-1382.33 622.72,-1205.26"/>
<polygon fill="#dac767" stroke="#dac767" points="624.89,-1208.01 630.51,-1199.03 620.52,-1202.54 624.89,-1208.01"/>
</g>
<!-- 51294 -->
<g id="node38" class="node">
<title>51294</title>
<ellipse fill="none" stroke="#d43d51" cx="1060.08" cy="-1168.09" rx="158.22" ry="28.99"/>
<text text-anchor="middle" x="1060.08" y="-1171.29" font-family="Times,serif" font-size="14.00" fill="gray">HitachiOpenLicense</text>
<text text-anchor="middle" x="1060.08" y="-1154.79" font-family="Times,serif" font-size="14.00" fill="gray">25f06e790e4b68e8d7847b973fc92c17</text>
</g>
<!-- 51294&#45;&gt;51295 -->
<g id="edge56" class="edge">
<title>51294&#45;&gt;51295</title>
<path fill="none" stroke="#d43d51" d="M1050.57,-1138.82C1050.57,-1138.67 1050.57,-1138.53 1050.58,-1138.38"/>
<polygon fill="#d43d51" stroke="#d43d51" points="1053.46,-1143.26 1051.3,-1132.89 1046.52,-1142.34 1053.46,-1143.26"/>
</g>
<!-- 54254 -->
<g id="node40" class="node">
<title>54254</title>
<ellipse fill="none" stroke="#98b561" cx="258.99" cy="-1161.94" rx="158.22" ry="28.99"/>
<text text-anchor="middle" x="258.99" y="-1165.14" font-family="Times,serif" font-size="14.00" fill="gray">EclipseLicense</text>
<text text-anchor="middle" x="258.99" y="-1148.64" font-family="Times,serif" font-size="14.00" fill="gray">01f423bfa9143d12e1e21d78bb889ae2</text>
</g>
<!-- 54254&#45;&gt;54255 -->
<g id="edge57" class="edge">
<title>54254&#45;&gt;54255</title>
<path fill="none" stroke="#98b561" d="M291.67,-1133.26C378.15,-1058.3 408.77,-1044.7 634.95,-974.48"/>
<polygon fill="#98b561" stroke="#98b561" points="635.91,-977.84 644.43,-971.54 633.84,-971.16 635.91,-977.84"/>
</g>
<!-- 55559 -->
<g id="node42" class="node">
<title>55559</title>
<ellipse fill="none" stroke="#e18745" cx="1290.43" cy="-2175.81" rx="156.09" ry="28.99"/>
<text text-anchor="middle" x="1290.43" y="-2179.01" font-family="Times,serif" font-size="14.00" fill="gray">ifrOSS License</text>
<text text-anchor="middle" x="1290.43" y="-2162.51" font-family="Times,serif" font-size="14.00" fill="gray">b1f90fab5c0adfd82134722d35f81204</text>
</g>
<!-- 55559&#45;&gt;55560 -->
<g id="edge58" class="edge">
<title>55559&#45;&gt;55560</title>
<path fill="none" stroke="#e18745" d="M1291.47,-2146.68C1291.47,-2146.54 1291.48,-2146.4 1291.48,-2146.26"/>
<polygon fill="#e18745" stroke="#e18745" points="1294.86,-2150.73 1291.63,-2140.64 1287.86,-2150.54 1294.86,-2150.73"/>
</g>
</g>
</svg>
