<?xml version="1.0" encoding="UTF-8" standalone="no"?>
<!DOCTYPE svg PUBLIC "-//W3C//DTD SVG 1.1//EN"
 "http://www.w3.org/Graphics/SVG/1.1/DTD/svg11.dtd">
<!-- Generated by graphviz version 10.0.1 (0)
 -->
<!-- Pages: 1 -->
<svg width="1902pt" height="1492pt"
 viewBox="0.00 0.00 1902.00 1492.00" xmlns="http://www.w3.org/2000/svg" xmlns:xlink="http://www.w3.org/1999/xlink">
<g id="graph0" class="graph" transform="scale(1 1) rotate(0) translate(4 1488)">
<polygon fill="white" stroke="none" points="-4,4 -4,-1488 1898,-1488 1898,4 -4,4"/>
<!-- 798 -->
<g id="node1" class="node">
<title>798</title>
<ellipse fill="none" stroke="#b8bf62" cx="407.09" cy="-315.84" rx="158.75" ry="28.99"/>
<text text-anchor="middle" x="407.09" y="-319.04" font-family="Times,serif" font-size="14.00" fill="gray">SPDXLicense</text>
<text text-anchor="middle" x="407.09" y="-302.54" font-family="Times,serif" font-size="14.00" fill="gray">def4bc85434e416181f6d1bb19a93bdd</text>
</g>
<!-- 799 -->
<g id="node2" class="node">
<title>799</title>
<polygon fill="none" stroke="black" points="849.89,-537.81 849.89,-552.72 794.61,-563.26 716.44,-563.26 661.17,-552.72 661.17,-537.81 716.44,-527.26 794.61,-527.26 849.89,-537.81"/>
<polygon fill="none" stroke="black" points="853.89,-534.5 853.89,-556.03 794.99,-567.26 716.06,-567.26 657.17,-556.03 657.17,-534.5 716.06,-523.26 794.99,-523.26 853.89,-534.5"/>
<polygon fill="none" stroke="black" points="857.89,-531.19 857.89,-559.34 795.37,-571.26 715.69,-571.26 653.17,-559.34 653.17,-531.19 715.69,-519.26 795.37,-519.26 857.89,-531.19"/>
<text text-anchor="middle" x="755.53" y="-540.21" font-family="Times,serif" font-size="14.00">spdx:CC&#45;BY&#45;3.0&#45;AT</text>
</g>
<!-- 798&#45;&gt;799 -->
<g id="edge1" class="edge">
<title>798&#45;&gt;799</title>
<path fill="none" stroke="#b8bf62" d="M457.58,-343.7C519.59,-378.58 553.96,-402.21 709.45,-512.55"/>
<polygon fill="#b8bf62" stroke="#b8bf62" points="706.98,-515.09 717.16,-518.03 711.03,-509.38 706.98,-515.09"/>
</g>
<!-- 6073 -->
<g id="node7" class="node">
<title>6073</title>
<polygon fill="none" stroke="#e09d4b" points="964.54,-423.27 964.54,-438.18 904.07,-448.73 818.56,-448.73 758.09,-438.18 758.09,-423.27 818.56,-412.73 904.07,-412.73 964.54,-423.27"/>
<polygon fill="none" stroke="#e09d4b" points="968.54,-419.91 968.54,-441.55 904.42,-452.73 818.21,-452.73 754.09,-441.55 754.09,-419.91 818.21,-408.73 904.42,-408.73 968.54,-419.91"/>
<text text-anchor="middle" x="861.32" y="-425.68" font-family="Times,serif" font-size="14.00">Fedora:CC&#45;BY&#45;3.0&#45;AT</text>
</g>
<!-- 799&#45;&gt;6073 -->
<g id="edge2" class="edge">
<title>799&#45;&gt;6073</title>
<path fill="none" stroke="#e09d4b" stroke-width="2" d="M767.48,-518.81C782.48,-486.17 791.31,-470.75 806.53,-458.94"/>
<polygon fill="#e09d4b" stroke="#e09d4b" stroke-width="2" points="813.71,-454.03 807.99,-463.39 811.88,-455.89 805.74,-460.08 805.46,-459.67 805.17,-459.26 811.32,-455.06 802.92,-455.95 813.71,-454.03"/>
</g>
<!-- 40294 -->
<g id="node17" class="node">
<title>40294</title>
<polygon fill="none" stroke="#00876c" points="731.83,-950.14 731.83,-965.05 620.74,-975.6 463.63,-975.6 352.54,-965.05 352.54,-950.14 463.63,-939.6 620.74,-939.6 731.83,-950.14"/>
<polygon fill="none" stroke="#00876c" points="735.83,-946.5 735.83,-968.69 620.93,-979.6 463.44,-979.6 348.54,-968.69 348.54,-946.5 463.44,-935.6 620.93,-935.6 735.83,-946.5"/>
<text text-anchor="middle" x="542.19" y="-952.55" font-family="Times,serif" font-size="14.00">metaeffekt:Creative Commons BY 3.0 (AT)</text>
</g>
<!-- 799&#45;&gt;40294 -->
<g id="edge3" class="edge">
<title>799&#45;&gt;40294</title>
<path fill="none" stroke="#00876c" stroke-width="2" d="M730.37,-571.65C566.6,-743.65 556.15,-761.62 544.5,-924.21"/>
<polygon fill="#00876c" stroke="#00876c" stroke-width="2" points="543.9,-932.7 540.12,-922.41 543.58,-930.11 544.11,-922.69 544.6,-922.72 545.1,-922.76 544.58,-930.18 549.09,-923.04 543.9,-932.7"/>
</g>
<!-- 800 -->
<g id="node3" class="node">
<title>800</title>
<polygon fill="none" stroke="black" points="1044.94,-743.06 1044.94,-757.97 1002.32,-768.52 942.05,-768.52 899.43,-757.97 899.43,-743.06 942.05,-732.52 1002.32,-732.52 1044.94,-743.06"/>
<polygon fill="none" stroke="black" points="1048.94,-739.93 1048.94,-761.1 1002.81,-772.52 941.56,-772.52 895.43,-761.1 895.43,-739.93 941.56,-728.52 1002.81,-728.52 1048.94,-739.93"/>
<text text-anchor="middle" x="972.18" y="-745.47" font-family="Times,serif" font-size="14.00">CC&#45;BY&#45;3.0&#45;AT</text>
</g>
<!-- 800&#45;&gt;799 -->
<g id="edge4" class="edge">
<title>800&#45;&gt;799</title>
<path fill="none" stroke="black" stroke-width="2" d="M949.99,-728.4C854.7,-633.45 829.59,-608.73 794.72,-578.52"/>
<polygon fill="black" stroke="black" stroke-width="2" points="788.46,-573.13 798.97,-576.24 790.72,-574.42 796.36,-579.27 796.04,-579.65 795.71,-580.03 790.07,-575.18 793.1,-583.06 788.46,-573.13"/>
</g>
<!-- 800&#45;&gt;6073 -->
<g id="edge5" class="edge">
<title>800&#45;&gt;6073</title>
<path fill="none" stroke="#e09d4b" stroke-width="2" d="M965.38,-728.1C911.75,-551.52 903.51,-525.5 875.84,-463.09"/>
<polygon fill="#e09d4b" stroke="#e09d4b" stroke-width="2" points="872.41,-455.39 880.59,-462.7 873.91,-457.53 876.93,-464.32 876.48,-464.53 876.02,-464.73 872.99,-457.94 872.37,-466.36 872.41,-455.39"/>
</g>
<!-- 13251 -->
<g id="node10" class="node">
<title>13251</title>
<polygon fill="none" stroke="black" points="724.92,-896.54 724.92,-911.45 666.4,-922 583.64,-922 525.12,-911.45 525.12,-896.54 583.64,-886 666.4,-886 724.92,-896.54"/>
<polygon fill="none" stroke="black" points="728.92,-893.2 728.92,-914.8 666.76,-926 583.28,-926 521.12,-914.8 521.12,-893.2 583.28,-882 666.76,-882 728.92,-893.2"/>
<text text-anchor="middle" x="625.02" y="-898.95" font-family="Times,serif" font-size="14.00">scancode:cc&#45;by&#45;3.0&#45;at</text>
</g>
<!-- 800&#45;&gt;13251 -->
<g id="edge6" class="edge">
<title>800&#45;&gt;13251</title>
<path fill="none" stroke="black" stroke-width="2" d="M930.94,-770.25C784.48,-840.3 742.68,-859.89 690.23,-880.02"/>
<polygon fill="black" stroke="black" stroke-width="2" points="682.2,-883.07 689.96,-875.31 684.42,-881.69 691.38,-879.05 691.55,-879.52 691.73,-879.99 684.78,-882.63 693.15,-883.73 682.2,-883.07"/>
</g>
<!-- 28086 -->
<g id="node12" class="node">
<title>28086</title>
<polygon fill="none" stroke="#e18745" points="1452.4,-695.47 1452.4,-710.38 1385.44,-720.92 1290.75,-720.92 1223.79,-710.38 1223.79,-695.47 1290.75,-684.92 1385.44,-684.92 1452.4,-695.47"/>
<polygon fill="none" stroke="#e18745" points="1456.4,-692.05 1456.4,-713.8 1385.76,-724.92 1290.44,-724.92 1219.79,-713.8 1219.79,-692.05 1290.44,-680.92 1385.76,-680.92 1456.4,-692.05"/>
<text text-anchor="middle" x="1338.1" y="-697.87" font-family="Times,serif" font-size="14.00">fossology:CC&#45;BY&#45;3.0&#45;AT</text>
</g>
<!-- 800&#45;&gt;28086 -->
<g id="edge7" class="edge">
<title>800&#45;&gt;28086</title>
<path fill="none" stroke="#e18745" stroke-width="2" d="M1049.43,-741.72C1146.53,-730.63 1194.6,-724.97 1233.35,-719.58"/>
<polygon fill="#e18745" stroke="#e18745" stroke-width="2" points="1241.66,-718.4 1232.39,-724.26 1239.19,-719.25 1231.83,-720.3 1231.76,-719.8 1231.69,-719.31 1239.05,-718.26 1231.13,-715.35 1241.66,-718.4"/>
</g>
<!-- 36542 -->
<g id="node15" class="node">
<title>36542</title>
<polygon fill="none" stroke="#379469" points="1351.17,-962.66 1351.17,-977.57 1295.57,-988.12 1216.94,-988.12 1161.34,-977.57 1161.34,-962.66 1216.94,-952.12 1295.57,-952.12 1351.17,-962.66"/>
<polygon fill="none" stroke="#379469" points="1355.17,-959.35 1355.17,-980.88 1295.94,-992.12 1216.56,-992.12 1157.34,-980.88 1157.34,-959.35 1216.56,-948.12 1295.94,-948.12 1355.17,-959.35"/>
<text text-anchor="middle" x="1256.25" y="-965.07" font-family="Times,serif" font-size="14.00">cavil:CC&#45;BY&#45;3.0&#45;AT</text>
</g>
<!-- 800&#45;&gt;36542 -->
<g id="edge8" class="edge">
<title>800&#45;&gt;36542</title>
<path fill="none" stroke="#379469" stroke-width="2" d="M1001.77,-772.82C1143.11,-879.4 1170.61,-900.31 1220.35,-940.77"/>
<polygon fill="#379469" stroke="#379469" stroke-width="2" points="1226.99,-946.18 1216.4,-943.36 1224.69,-944.95 1218.93,-940.25 1219.24,-939.87 1219.56,-939.48 1225.32,-944.18 1222.08,-936.38 1226.99,-946.18"/>
</g>
<!-- 801 -->
<g id="node4" class="node">
<title>801</title>
<polygon fill="none" stroke="black" points="1171.58,-884.35 1171.58,-899.26 1063.73,-909.8 911.21,-909.8 803.37,-899.26 803.37,-884.35 911.21,-873.8 1063.73,-873.8 1171.58,-884.35"/>
<polygon fill="none" stroke="black" points="1175.58,-880.72 1175.58,-902.89 1063.92,-913.8 911.02,-913.8 799.37,-902.89 799.37,-880.72 911.02,-869.8 1063.92,-869.8 1175.58,-880.72"/>
<text text-anchor="middle" x="987.47" y="-886.75" font-family="Times,serif" font-size="14.00">Creative Commons Attribution 3.0 Austria</text>
</g>
<!-- 801&#45;&gt;799 -->
<g id="edge9" class="edge">
<title>801&#45;&gt;799</title>
<path fill="none" stroke="#b8bf62" stroke-width="2" d="M965.43,-869.48C808.23,-710.2 792.24,-690.56 764.71,-582.36"/>
<polygon fill="#b8bf62" stroke="#b8bf62" stroke-width="2" points="762.6,-573.97 769.4,-582.57 763.71,-576.33 765.53,-583.54 765.04,-583.66 764.56,-583.79 762.74,-576.57 760.68,-584.76 762.6,-573.97"/>
</g>
<!-- 801&#45;&gt;13251 -->
<g id="edge10" class="edge">
<title>801&#45;&gt;13251</title>
<path fill="none" stroke="#dac767" stroke-width="2" d="M903.39,-913.5C789.76,-942.07 753.79,-945.38 691.93,-926.92"/>
<polygon fill="#dac767" stroke="#dac767" stroke-width="2" points="683.67,-924.36 694.55,-923.02 686.26,-924.64 693.37,-926.84 693.22,-927.32 693.07,-927.8 685.97,-925.59 691.88,-931.62 683.67,-924.36"/>
</g>
<!-- 801&#45;&gt;28086 -->
<g id="edge11" class="edge">
<title>801&#45;&gt;28086</title>
<path fill="none" stroke="#e18745" stroke-width="2" d="M1062.89,-869.39C1221.28,-821.72 1246.61,-807.49 1311.47,-733.7"/>
<polygon fill="#e18745" stroke="#e18745" stroke-width="2" points="1317.13,-727.22 1313.94,-737.71 1315.82,-729.48 1310.92,-735.08 1310.55,-734.75 1310.17,-734.42 1315.06,-728.82 1307.16,-731.79 1317.13,-727.22"/>
</g>
<!-- 6060 -->
<g id="node5" class="node">
<title>6060</title>
<polygon fill="none" stroke="black" points="629.55,-583.92 629.55,-598.83 604.78,-609.38 569.75,-609.38 544.98,-598.83 544.98,-583.92 569.75,-573.38 604.78,-573.38 629.55,-583.92"/>
<text text-anchor="middle" x="587.27" y="-586.33" font-family="Times,serif" font-size="14.00">CC&#45;BY</text>
</g>
<!-- 6060&#45;&gt;6073 -->
<g id="edge12" class="edge">
<title>6060&#45;&gt;6073</title>
<path fill="none" stroke="#e09d4b" stroke-dasharray="5,2" d="M600.74,-573.13C663.35,-488.6 682.27,-469.27 770.2,-449.07"/>
<polygon fill="#e09d4b" stroke="#e09d4b" points="779.78,-446.93 771.01,-453.5 776.09,-447.75 770.02,-449.11 770.02,-449.11 770.02,-449.11 776.09,-447.75 769.04,-444.72 779.78,-446.93"/>
</g>
<!-- 6060&#45;&gt;40294 -->
<g id="edge13" class="edge">
<title>6060&#45;&gt;40294</title>
<path fill="none" stroke="#00876c" stroke-dasharray="5,2" d="M578.01,-609.63C497.17,-769.24 493.08,-785.06 532.77,-924.8"/>
<polygon fill="#00876c" stroke="#00876c" points="535.5,-934.35 528.43,-925.97 534.46,-930.72 532.76,-924.74 532.76,-924.74 532.76,-924.74 534.46,-930.72 537.08,-923.5 535.5,-934.35"/>
</g>
<!-- 6072 -->
<g id="node6" class="node">
<title>6072</title>
<ellipse fill="none" stroke="#e09d4b" cx="908.2" cy="-29.31" rx="156.09" ry="28.99"/>
<text text-anchor="middle" x="908.2" y="-32.51" font-family="Times,serif" font-size="14.00" fill="gray">FedoraEntry</text>
<text text-anchor="middle" x="908.2" y="-16.01" font-family="Times,serif" font-size="14.00" fill="gray">e44f2b26a2e46ba19e5ab9ee5bb39fbe</text>
</g>
<!-- 6072&#45;&gt;6073 -->
<g id="edge14" class="edge">
<title>6072&#45;&gt;6073</title>
<path fill="none" stroke="#e09d4b" d="M900.19,-58.56C876.05,-147.71 873.95,-172.28 862.95,-397.23"/>
<polygon fill="#e09d4b" stroke="#e09d4b" points="859.47,-396.77 862.48,-406.93 866.46,-397.12 859.47,-396.77"/>
</g>
<!-- 6074 -->
<g id="node8" class="node">
<title>6074</title>
<polygon fill="none" stroke="#e09d4b" points="1393.92,-82.37 1393.92,-97.28 1268.22,-107.83 1090.46,-107.83 964.77,-97.28 964.77,-82.37 1090.46,-71.83 1268.22,-71.83 1393.92,-82.37"/>
<text text-anchor="middle" x="1179.34" y="-84.78" font-family="Times,serif" font-size="14.00">Creative Commons Attribution license 3.0 Austria</text>
</g>
<!-- 6074&#45;&gt;6073 -->
<g id="edge15" class="edge">
<title>6074&#45;&gt;6073</title>
<path fill="none" stroke="#e09d4b" stroke-dasharray="5,2" d="M1145.33,-108.29C1038.21,-167.19 1021.09,-188.47 882.03,-399.3"/>
<polygon fill="#e09d4b" stroke="#e09d4b" points="876.63,-407.49 878.38,-396.66 878.72,-404.33 882.14,-399.14 882.14,-399.14 882.14,-399.14 878.72,-404.33 885.9,-401.61 876.63,-407.49"/>
</g>
<!-- 13250 -->
<g id="node9" class="node">
<title>13250</title>
<ellipse fill="none" stroke="#dac767" cx="179.05" cy="-932.54" rx="159.81" ry="28.99"/>
<text text-anchor="middle" x="179.05" y="-935.74" font-family="Times,serif" font-size="14.00" fill="gray">ScancodeData</text>
<text text-anchor="middle" x="179.05" y="-919.24" font-family="Times,serif" font-size="14.00" fill="gray">d069c8d39adc24139a09944d0d54c64f</text>
</g>
<!-- 13250&#45;&gt;13251 -->
<g id="edge16" class="edge">
<title>13250&#45;&gt;13251</title>
<path fill="none" stroke="#dac767" d="M335.33,-939.08C376.9,-936.56 430.04,-930.16 518.8,-918.33"/>
<polygon fill="#dac767" stroke="#dac767" points="519.15,-921.82 528.59,-917.02 518.22,-914.88 519.15,-921.82"/>
</g>
<!-- 13251&#45;&gt;40294 -->
<g id="edge17" class="edge">
<title>13251&#45;&gt;40294</title>
<path fill="none" stroke="#00876c" stroke-dasharray="5,2" d="M588.2,-926.49C586.45,-927.57 584.81,-928.58 583.25,-929.55"/>
<polygon fill="#00876c" stroke="#00876c" points="575.18,-934.61 581.26,-925.49 578.38,-932.6 583.65,-929.3 583.65,-929.3 583.65,-929.3 578.38,-932.6 586.04,-933.11 575.18,-934.61"/>
</g>
<!-- 28085 -->
<g id="node11" class="node">
<title>28085</title>
<ellipse fill="none" stroke="#e18745" cx="1740.46" cy="-641.02" rx="153.97" ry="28.99"/>
<text text-anchor="middle" x="1740.46" y="-644.22" font-family="Times,serif" font-size="14.00" fill="gray">Fossology</text>
<text text-anchor="middle" x="1740.46" y="-627.72" font-family="Times,serif" font-size="14.00" fill="gray">0f08dac1560fff4490e0e707448dac0e</text>
</g>
<!-- 28085&#45;&gt;28086 -->
<g id="edge18" class="edge">
<title>28085&#45;&gt;28086</title>
<path fill="none" stroke="#e18745" d="M1625.89,-660.73C1586.73,-666.99 1539.1,-674 1448.89,-687"/>
<polygon fill="#e18745" stroke="#e18745" points="1448.57,-683.51 1439.17,-688.4 1449.57,-690.43 1448.57,-683.51"/>
</g>
<!-- 28566 -->
<g id="node13" class="node">
<title>28566</title>
<ellipse fill="none" stroke="#e06f45" cx="605.47" cy="-165.49" rx="156.62" ry="28.99"/>
<text text-anchor="middle" x="605.47" y="-168.69" font-family="Times,serif" font-size="14.00" fill="gray">OrtLicenseCategorization</text>
<text text-anchor="middle" x="605.47" y="-152.19" font-family="Times,serif" font-size="14.00" fill="gray">8f92a474ee6c51aa1de2580f32a2b765</text>
</g>
<!-- 28566&#45;&gt;799 -->
<g id="edge19" class="edge">
<title>28566&#45;&gt;799</title>
<path fill="none" stroke="#e06f45" d="M612.39,-194.93C633.83,-284.89 643.61,-308.03 738.28,-508.72"/>
<polygon fill="#e06f45" stroke="#e06f45" points="735.07,-510.12 742.5,-517.67 741.4,-507.13 735.07,-510.12"/>
</g>
<!-- 36541 -->
<g id="node14" class="node">
<title>36541</title>
<ellipse fill="none" stroke="#379469" cx="1560.85" cy="-1210.67" rx="155.56" ry="28.99"/>
<text text-anchor="middle" x="1560.85" y="-1213.87" font-family="Times,serif" font-size="14.00" fill="gray">CavilLicenseChange</text>
<text text-anchor="middle" x="1560.85" y="-1197.37" font-family="Times,serif" font-size="14.00" fill="gray">ab22212fb57fec1f99d9d38d17f3647c</text>
</g>
<!-- 36541&#45;&gt;36542 -->
<g id="edge20" class="edge">
<title>36541&#45;&gt;36542</title>
<path fill="none" stroke="#379469" d="M1525.59,-1182.01C1470.16,-1137.03 1442.84,-1115.6 1293.87,-999.45"/>
<polygon fill="#379469" stroke="#379469" points="1296.05,-996.71 1286.01,-993.32 1291.75,-1002.23 1296.05,-996.71"/>
</g>
<!-- 40293 -->
<g id="node16" class="node">
<title>40293</title>
<ellipse fill="none" stroke="#00876c" cx="457.34" cy="-1454.64" rx="159.28" ry="28.99"/>
<text text-anchor="middle" x="457.34" y="-1457.84" font-family="Times,serif" font-size="14.00" fill="gray">MetaeffektLicense</text>
<text text-anchor="middle" x="457.34" y="-1441.34" font-family="Times,serif" font-size="14.00" fill="gray">4e830b3e37504b5e44d0ecb4c2f1341d</text>
</g>
<!-- 40293&#45;&gt;40294 -->
<g id="edge21" class="edge">
<title>40293&#45;&gt;40294</title>
<path fill="none" stroke="#00876c" d="M452.8,-1425.43C431.03,-1283.21 435.95,-1261.44 530.62,-990.65"/>
<polygon fill="#00876c" stroke="#00876c" points="533.82,-992.11 533.82,-981.51 527.21,-989.79 533.82,-992.11"/>
</g>
<!-- 40295 -->
<g id="node18" class="node">
<title>40295</title>
<polygon fill="none" stroke="#00876c" points="688.82,-1003.16 688.82,-1018.07 604.66,-1028.61 485.64,-1028.61 401.49,-1018.07 401.49,-1003.16 485.64,-992.61 604.66,-992.61 688.82,-1003.16"/>
<polygon fill="none" stroke="#00876c" points="692.82,-999.63 692.82,-1021.6 604.91,-1032.61 485.39,-1032.61 397.49,-1021.6 397.49,-999.63 485.39,-988.61 604.91,-988.61 692.82,-999.63"/>
<text text-anchor="middle" x="545.15" y="-1005.56" font-family="Times,serif" font-size="14.00">Creative Commons BY 3.0 (AT)</text>
</g>
<!-- 40295&#45;&gt;40294 -->
<g id="edge22" class="edge">
<title>40295&#45;&gt;40294</title>
<path fill="none" stroke="#00876c" stroke-width="2" d="M536.84,-988.2C536.83,-988.05 536.82,-987.89 536.82,-987.74"/>
<polygon fill="#00876c" stroke="#00876c" stroke-width="2" points="537.2,-982.25 541,-992.54 537.52,-984.85 537.01,-992.26 536.51,-992.23 536.01,-992.2 536.52,-984.78 532.02,-991.92 537.2,-982.25"/>
</g>
<!-- 40296 -->
<g id="node19" class="node">
<title>40296</title>
<polygon fill="none" stroke="#00876c" points="321.25,-1282.45 321.25,-1297.36 227.03,-1307.9 93.79,-1307.9 -0.43,-1297.36 -0.43,-1282.45 93.79,-1271.9 227.03,-1271.9 321.25,-1282.45"/>
<text text-anchor="middle" x="160.41" y="-1284.85" font-family="Times,serif" font-size="14.00">Creative Commons BY 3.0 (Austria)</text>
</g>
<!-- 40296&#45;&gt;40294 -->
<g id="edge23" class="edge">
<title>40296&#45;&gt;40294</title>
<path fill="none" stroke="#00876c" stroke-dasharray="5,2" d="M177.69,-1271.67C262.62,-1182.23 280.33,-1167.02 505.76,-986.72"/>
<polygon fill="#00876c" stroke="#00876c" points="513.26,-980.72 508.26,-990.48 510.31,-983.09 505.45,-986.97 505.45,-986.97 505.45,-986.97 510.31,-983.09 502.64,-983.46 513.26,-980.72"/>
</g>
</g>
</svg>
