<?xml version="1.0" encoding="UTF-8" standalone="no"?>
<!DOCTYPE svg PUBLIC "-//W3C//DTD SVG 1.1//EN"
 "http://www.w3.org/Graphics/SVG/1.1/DTD/svg11.dtd">
<!-- Generated by graphviz version 10.0.1 (0)
 -->
<!-- Pages: 1 -->
<svg width="2810pt" height="1876pt"
 viewBox="0.00 0.00 2810.00 1876.00" xmlns="http://www.w3.org/2000/svg" xmlns:xlink="http://www.w3.org/1999/xlink">
<g id="graph0" class="graph" transform="scale(1 1) rotate(0) translate(4 1872)">
<polygon fill="white" stroke="none" points="-4,4 -4,-1872 2806,-1872 2806,4 -4,4"/>
<!-- 1008 -->
<g id="node1" class="node">
<title>1008</title>
<ellipse fill="none" stroke="#b8bf62" cx="556.74" cy="-1012.04" rx="160.34" ry="28.99"/>
<text text-anchor="middle" x="556.74" y="-1015.24" font-family="Times,serif" font-size="14.00" fill="gray">SPDXLicense</text>
<text text-anchor="middle" x="556.74" y="-998.74" font-family="Times,serif" font-size="14.00" fill="gray">92a0159cf3d3c7c2b3920d24d378b8db</text>
</g>
<!-- 1009 -->
<g id="node2" class="node">
<title>1009</title>
<polygon fill="none" stroke="black" points="1185.52,-920.67 1185.52,-935.58 1119.86,-946.12 1027,-946.12 961.34,-935.58 961.34,-920.67 1027,-910.12 1119.86,-910.12 1185.52,-920.67"/>
<polygon fill="none" stroke="black" points="1189.52,-917.26 1189.52,-938.99 1120.18,-950.12 1026.68,-950.12 957.34,-938.99 957.34,-917.26 1026.68,-906.12 1120.18,-906.12 1189.52,-917.26"/>
<polygon fill="none" stroke="black" points="1193.52,-913.85 1193.52,-942.4 1120.5,-954.12 1026.36,-954.12 953.34,-942.4 953.34,-913.85 1026.36,-902.12 1120.5,-902.12 1193.52,-913.85"/>
<text text-anchor="middle" x="1073.43" y="-923.07" font-family="Times,serif" font-size="14.00">spdx:CC&#45;BY&#45;NC&#45;SA&#45;4.0</text>
</g>
<!-- 1008&#45;&gt;1009 -->
<g id="edge1" class="edge">
<title>1008&#45;&gt;1009</title>
<path fill="none" stroke="#b8bf62" d="M658.37,-989.28C722.92,-975.93 782.66,-967.1 946.73,-945.06"/>
<polygon fill="#b8bf62" stroke="#b8bf62" points="946.75,-948.59 956.19,-943.79 945.82,-941.65 946.75,-948.59"/>
</g>
<!-- 5418 -->
<g id="node6" class="node">
<title>5418</title>
<polygon fill="none" stroke="#e06f45" points="676.16,-729.21 676.16,-744.12 614.4,-754.67 527.05,-754.67 465.28,-744.12 465.28,-729.21 527.05,-718.67 614.4,-718.67 676.16,-729.21"/>
<polygon fill="none" stroke="#e06f45" points="680.16,-725.83 680.16,-747.5 614.74,-758.67 526.71,-758.67 461.28,-747.5 461.28,-725.83 526.71,-714.67 614.74,-714.67 680.16,-725.83"/>
<text text-anchor="middle" x="570.72" y="-731.62" font-family="Times,serif" font-size="14.00">google:CCBYNCSA40</text>
</g>
<!-- 1009&#45;&gt;5418 -->
<g id="edge2" class="edge">
<title>1009&#45;&gt;5418</title>
<path fill="none" stroke="#e06f45" stroke-width="2" d="M1002.73,-905.49C757.18,-826.81 714.48,-811.65 622.95,-764.19"/>
<polygon fill="#e06f45" stroke="#e06f45" stroke-width="2" points="615.2,-760.15 626.15,-760.78 617.71,-760.89 624.3,-764.33 624.07,-764.77 623.84,-765.21 617.25,-761.78 621.99,-768.76 615.2,-760.15"/>
</g>
<!-- 6154 -->
<g id="node9" class="node">
<title>6154</title>
<polygon fill="none" stroke="#e09d4b" points="1512.04,-613.12 1512.04,-628.03 1441.19,-638.58 1340.99,-638.58 1270.14,-628.03 1270.14,-613.12 1340.99,-602.58 1441.19,-602.58 1512.04,-613.12"/>
<polygon fill="none" stroke="#e09d4b" points="1516.04,-609.67 1516.04,-631.48 1441.48,-642.58 1340.69,-642.58 1266.14,-631.48 1266.14,-609.67 1340.69,-598.58 1441.48,-598.58 1516.04,-609.67"/>
<text text-anchor="middle" x="1391.09" y="-615.53" font-family="Times,serif" font-size="14.00">Fedora:CC&#45;BY&#45;NC&#45;SA&#45;4.0</text>
</g>
<!-- 1009&#45;&gt;6154 -->
<g id="edge3" class="edge">
<title>1009&#45;&gt;6154</title>
<path fill="none" stroke="#e09d4b" stroke-width="2" d="M1085.12,-901.63C1159.32,-734 1174.71,-712.62 1328,-647.08"/>
<polygon fill="#e09d4b" stroke="#e09d4b" stroke-width="2" points="1336.05,-643.65 1328.61,-651.71 1333.89,-645.12 1327.05,-648.03 1326.85,-647.57 1326.65,-647.11 1333.5,-644.2 1325.09,-643.43 1336.05,-643.65"/>
</g>
<!-- 40156 -->
<g id="node23" class="node">
<title>40156</title>
<polygon fill="none" stroke="#00876c" points="1816.03,-554.07 1816.03,-568.99 1698.77,-579.53 1532.94,-579.53 1415.68,-568.99 1415.68,-554.07 1532.94,-543.53 1698.77,-543.53 1816.03,-554.07"/>
<polygon fill="none" stroke="#00876c" points="1820.03,-550.42 1820.03,-572.64 1698.95,-583.53 1532.76,-583.53 1411.68,-572.64 1411.68,-550.42 1532.76,-539.53 1698.95,-539.53 1820.03,-550.42"/>
<text text-anchor="middle" x="1615.85" y="-556.48" font-family="Times,serif" font-size="14.00">metaeffekt:Creative Commons BY&#45;NC&#45;SA 4.0</text>
</g>
<!-- 1009&#45;&gt;40156 -->
<g id="edge4" class="edge">
<title>1009&#45;&gt;40156</title>
<path fill="none" stroke="#00876c" stroke-width="2" d="M1093.39,-901.77C1275.43,-661.62 1309.06,-624.45 1499.1,-584.22"/>
<polygon fill="#00876c" stroke="#00876c" stroke-width="2" points="1507.66,-582.43 1498.79,-588.88 1505.26,-583.44 1497.98,-584.96 1497.87,-584.47 1497.77,-583.98 1505.05,-582.46 1496.95,-580.07 1507.66,-582.43"/>
</g>
<!-- 1010 -->
<g id="node3" class="node">
<title>1010</title>
<polygon fill="none" stroke="black" points="1711.22,-942.69 1711.22,-957.6 1658.22,-968.15 1583.26,-968.15 1530.26,-957.6 1530.26,-942.69 1583.26,-932.15 1658.22,-932.15 1711.22,-942.69"/>
<polygon fill="none" stroke="black" points="1715.22,-939.41 1715.22,-960.89 1658.61,-972.15 1582.87,-972.15 1526.26,-960.89 1526.26,-939.41 1582.87,-928.15 1658.61,-928.15 1715.22,-939.41"/>
<text text-anchor="middle" x="1620.74" y="-945.1" font-family="Times,serif" font-size="14.00">CC&#45;BY&#45;NC&#45;SA&#45;4.0</text>
</g>
<!-- 1010&#45;&gt;1009 -->
<g id="edge5" class="edge">
<title>1010&#45;&gt;1009</title>
<path fill="none" stroke="black" stroke-width="2" d="M1525.99,-949.98C1344.01,-949.58 1271.14,-948.74 1204.86,-943.32"/>
<polygon fill="black" stroke="black" stroke-width="2" points="1196.26,-942.58 1206.61,-938.96 1198.86,-942.31 1206.27,-942.94 1206.23,-943.44 1206.18,-943.94 1198.77,-943.3 1205.84,-947.92 1196.26,-942.58"/>
</g>
<!-- 1010&#45;&gt;6154 -->
<g id="edge6" class="edge">
<title>1010&#45;&gt;6154</title>
<path fill="none" stroke="#e09d4b" stroke-width="2" d="M1614.14,-927.95C1558.78,-742.15 1548.68,-719.52 1436.61,-648.8"/>
<polygon fill="#e09d4b" stroke="#e09d4b" stroke-width="2" points="1429.34,-644.24 1440.2,-645.74 1431.78,-645.18 1438.08,-649.13 1437.81,-649.55 1437.55,-649.98 1431.25,-646.03 1435.42,-653.37 1429.34,-644.24"/>
</g>
<!-- 13417 -->
<g id="node12" class="node">
<title>13417</title>
<polygon fill="none" stroke="black" points="2193.07,-887.23 2193.07,-902.15 2126.44,-912.69 2032.21,-912.69 1965.57,-902.15 1965.57,-887.23 2032.21,-876.69 2126.44,-876.69 2193.07,-887.23"/>
<polygon fill="none" stroke="black" points="2197.07,-883.82 2197.07,-905.56 2126.76,-916.69 2031.89,-916.69 1961.57,-905.56 1961.57,-883.82 2031.89,-872.69 2126.76,-872.69 2197.07,-883.82"/>
<text text-anchor="middle" x="2079.32" y="-889.64" font-family="Times,serif" font-size="14.00">scancode:cc&#45;by&#45;nc&#45;sa&#45;4.0</text>
</g>
<!-- 1010&#45;&gt;13417 -->
<g id="edge7" class="edge">
<title>1010&#45;&gt;13417</title>
<path fill="none" stroke="black" stroke-width="2" d="M1715.71,-941.24C1866.12,-927.07 1923.26,-921.16 1979.58,-912.33"/>
<polygon fill="black" stroke="black" stroke-width="2" points="1988.08,-910.97 1978.92,-916.99 1985.63,-911.87 1978.28,-913.04 1978.21,-912.55 1978.13,-912.06 1985.47,-910.88 1977.49,-908.11 1988.08,-910.97"/>
</g>
<!-- 27294 -->
<g id="node15" class="node">
<title>27294</title>
<polygon fill="none" stroke="#e18745" points="1463.46,-1201 1463.46,-1215.92 1386.12,-1226.46 1276.74,-1226.46 1199.4,-1215.92 1199.4,-1201 1276.74,-1190.46 1386.12,-1190.46 1463.46,-1201"/>
<polygon fill="none" stroke="#e18745" points="1467.46,-1197.51 1467.46,-1219.41 1386.39,-1230.46 1276.47,-1230.46 1195.4,-1219.41 1195.4,-1197.51 1276.47,-1186.46 1386.39,-1186.46 1467.46,-1197.51"/>
<text text-anchor="middle" x="1331.43" y="-1203.41" font-family="Times,serif" font-size="14.00">fossology:CC&#45;BY&#45;NC&#45;SA&#45;4.0</text>
</g>
<!-- 1010&#45;&gt;27294 -->
<g id="edge8" class="edge">
<title>1010&#45;&gt;27294</title>
<path fill="none" stroke="#e18745" stroke-width="2" d="M1608.44,-972.47C1527.4,-1119.36 1509.33,-1145.12 1404.6,-1183.37"/>
<polygon fill="#e18745" stroke="#e18745" stroke-width="2" points="1396.48,-1186.29 1404.37,-1178.67 1398.73,-1184.95 1405.72,-1182.43 1405.89,-1182.9 1406.06,-1183.37 1399.07,-1185.89 1407.42,-1187.14 1396.48,-1186.29"/>
</g>
<!-- 36598 -->
<g id="node21" class="node">
<title>36598</title>
<polygon fill="none" stroke="#379469" points="1909.37,-1392.76 1909.37,-1407.67 1843.39,-1418.22 1750.07,-1418.22 1684.09,-1407.67 1684.09,-1392.76 1750.07,-1382.22 1843.39,-1382.22 1909.37,-1392.76"/>
<polygon fill="none" stroke="#379469" points="1913.37,-1389.35 1913.37,-1411.08 1843.71,-1422.22 1749.75,-1422.22 1680.09,-1411.08 1680.09,-1389.35 1749.75,-1378.22 1843.71,-1378.22 1913.37,-1389.35"/>
<text text-anchor="middle" x="1796.73" y="-1395.17" font-family="Times,serif" font-size="14.00">cavil:CC&#45;BY&#45;NC&#45;SA&#45;4.0</text>
</g>
<!-- 1010&#45;&gt;36598 -->
<g id="edge9" class="edge">
<title>1010&#45;&gt;36598</title>
<path fill="none" stroke="#379469" stroke-width="2" d="M1633.61,-972.48C1773.78,-1215.77 1784.28,-1237.24 1794.31,-1367.33"/>
<polygon fill="#379469" stroke="#379469" stroke-width="2" points="1794.94,-1375.71 1789.7,-1366.08 1794.25,-1373.19 1793.69,-1365.78 1794.19,-1365.74 1794.69,-1365.7 1795.25,-1373.12 1798.68,-1365.4 1794.94,-1375.71"/>
</g>
<!-- 1010&#45;&gt;40156 -->
<g id="edge10" class="edge">
<title>1010&#45;&gt;40156</title>
<path fill="none" stroke="#00876c" stroke-dasharray="5,2" d="M1626.06,-927.68C1673.99,-724.85 1676.37,-704.2 1629.78,-594.01"/>
<polygon fill="#00876c" stroke="#00876c" points="1625.9,-584.9 1633.96,-592.34 1627.38,-588.38 1629.82,-594.1 1629.82,-594.1 1629.82,-594.1 1627.38,-588.38 1625.68,-595.86 1625.9,-584.9"/>
</g>
<!-- 1011 -->
<g id="node4" class="node">
<title>1011</title>
<polygon fill="none" stroke="black" points="1397.39,-986.23 1397.39,-1001.14 1204.52,-1011.69 931.76,-1011.69 738.9,-1001.14 738.9,-986.23 931.76,-975.69 1204.52,-975.69 1397.39,-986.23"/>
<polygon fill="none" stroke="black" points="1401.39,-982.44 1401.39,-1004.93 1204.63,-1015.69 931.66,-1015.69 734.9,-1004.93 734.9,-982.44 931.66,-971.69 1204.63,-971.69 1401.39,-982.44"/>
<text text-anchor="middle" x="1068.14" y="-988.64" font-family="Times,serif" font-size="14.00">Creative Commons Attribution Non Commercial Share Alike 4.0 International</text>
</g>
<!-- 1011&#45;&gt;1009 -->
<g id="edge11" class="edge">
<title>1011&#45;&gt;1009</title>
<path fill="none" stroke="#b8bf62" stroke-width="2" d="M1061.56,-971.25C1061.19,-969.28 1060.96,-967.44 1060.88,-965.65"/>
<polygon fill="#b8bf62" stroke="#b8bf62" stroke-width="2" points="1061.99,-956.99 1065.19,-967.48 1062.16,-959.6 1061.22,-966.97 1060.72,-966.91 1060.23,-966.85 1061.17,-959.47 1056.26,-966.34 1061.99,-956.99"/>
</g>
<!-- 1011&#45;&gt;27294 -->
<g id="edge12" class="edge">
<title>1011&#45;&gt;27294</title>
<path fill="none" stroke="#e18745" stroke-width="2" d="M1079.87,-1015.92C1137.16,-1124.18 1152.66,-1143.62 1259.86,-1183.14"/>
<polygon fill="#e18745" stroke="#e18745" stroke-width="2" points="1267.88,-1186.07 1256.94,-1186.87 1265.3,-1185.66 1258.31,-1183.11 1258.49,-1182.64 1258.66,-1182.17 1265.64,-1184.72 1260.03,-1178.41 1267.88,-1186.07"/>
</g>
<!-- 1011&#45;&gt;40156 -->
<g id="edge13" class="edge">
<title>1011&#45;&gt;40156</title>
<path fill="none" stroke="#00876c" stroke-dasharray="5,2" d="M1082.63,-971.34C1269.7,-682.8 1295.84,-649.51 1521.84,-586.78"/>
<polygon fill="#00876c" stroke="#00876c" points="1531.23,-584.19 1522.79,-591.18 1527.58,-585.19 1521.59,-586.85 1521.59,-586.85 1521.59,-586.85 1527.58,-585.19 1520.39,-582.51 1531.23,-584.19"/>
</g>
<!-- 5417 -->
<g id="node5" class="node">
<title>5417</title>
<ellipse fill="none" stroke="#e06f45" cx="163" cy="-462.77" rx="162.99" ry="28.99"/>
<text text-anchor="middle" x="163" y="-465.97" font-family="Times,serif" font-size="14.00" fill="gray">GoogleLicense</text>
<text text-anchor="middle" x="163" y="-449.47" font-family="Times,serif" font-size="14.00" fill="gray">10993920304819432b955a34329eb2b3</text>
</g>
<!-- 5417&#45;&gt;5418 -->
<g id="edge14" class="edge">
<title>5417&#45;&gt;5418</title>
<path fill="none" stroke="#e06f45" d="M192.83,-491.5C270.8,-565.9 299,-583.76 520.98,-708.69"/>
<polygon fill="#e06f45" stroke="#e06f45" points="519.26,-711.74 529.69,-713.59 522.69,-705.64 519.26,-711.74"/>
</g>
<!-- 5419 -->
<g id="node7" class="node">
<title>5419</title>
<polygon fill="none" stroke="#e06f45" points="258.94,-722.57 258.94,-737.48 214.69,-748.03 152.13,-748.03 107.88,-737.48 107.88,-722.57 152.13,-712.03 214.69,-712.03 258.94,-722.57"/>
<polygon fill="none" stroke="#e06f45" points="262.94,-719.41 262.94,-740.64 215.16,-752.03 151.66,-752.03 103.88,-740.64 103.88,-719.41 151.66,-708.03 215.16,-708.03 262.94,-719.41"/>
<text text-anchor="middle" x="183.41" y="-724.98" font-family="Times,serif" font-size="14.00">CCBYNCSA40</text>
</g>
<!-- 5419&#45;&gt;5418 -->
<g id="edge15" class="edge">
<title>5419&#45;&gt;5418</title>
<path fill="none" stroke="#e06f45" stroke-width="2" d="M263.36,-723.15C307.68,-720.7 349.46,-722.17 449.61,-728.6"/>
<polygon fill="#e06f45" stroke="#e06f45" stroke-width="2" points="458.36,-729.16 448.09,-733.01 455.77,-729.49 448.35,-729.02 448.38,-728.52 448.41,-728.02 455.83,-728.5 448.67,-724.03 458.36,-729.16"/>
</g>
<!-- 6153 -->
<g id="node8" class="node">
<title>6153</title>
<ellipse fill="none" stroke="#e09d4b" cx="1577.46" cy="-159.23" rx="159.28" ry="28.99"/>
<text text-anchor="middle" x="1577.46" y="-162.43" font-family="Times,serif" font-size="14.00" fill="gray">FedoraEntry</text>
<text text-anchor="middle" x="1577.46" y="-145.93" font-family="Times,serif" font-size="14.00" fill="gray">b82d9c19a955b6f6bcdc74c9073102eb</text>
</g>
<!-- 6153&#45;&gt;6154 -->
<g id="edge16" class="edge">
<title>6153&#45;&gt;6154</title>
<path fill="none" stroke="#e09d4b" d="M1560.3,-188.37C1500.95,-289.67 1491.43,-315.66 1401.86,-587.83"/>
<polygon fill="#e09d4b" stroke="#e09d4b" points="1398.64,-586.42 1398.84,-597.02 1405.29,-588.61 1398.64,-586.42"/>
</g>
<!-- 6155 -->
<g id="node10" class="node">
<title>6155</title>
<polygon fill="none" stroke="black" points="2022.26,-496.21 2022.26,-511.12 1831.66,-521.67 1562.11,-521.67 1371.52,-511.12 1371.52,-496.21 1562.11,-485.67 1831.66,-485.67 2022.26,-496.21"/>
<text text-anchor="middle" x="1696.89" y="-498.62" font-family="Times,serif" font-size="14.00">Creative Commons Attribution&#45;NonCommercial&#45;ShareAlike 4.0 International</text>
</g>
<!-- 6155&#45;&gt;6154 -->
<g id="edge17" class="edge">
<title>6155&#45;&gt;6154</title>
<path fill="none" stroke="#e09d4b" stroke-dasharray="5,2" d="M1549.28,-521.44C1520.49,-534.42 1486.55,-556.17 1433.09,-592.16"/>
<polygon fill="#e09d4b" stroke="#e09d4b" points="1424.99,-597.63 1430.76,-588.31 1428.12,-595.51 1433.28,-592.04 1433.28,-592.04 1433.28,-592.04 1428.12,-595.51 1435.8,-595.77 1424.99,-597.63"/>
</g>
<!-- 6155&#45;&gt;40156 -->
<g id="edge18" class="edge">
<title>6155&#45;&gt;40156</title>
<path fill="none" stroke="#00876c" stroke-dasharray="5,2" d="M1661.46,-522.15C1657.87,-524.85 1653.88,-528.1 1649.11,-532.17"/>
<polygon fill="#00876c" stroke="#00876c" points="1641.82,-538.47 1646.44,-528.53 1644.68,-536 1649.38,-531.93 1649.38,-531.93 1649.38,-531.93 1644.68,-536 1652.33,-535.33 1641.82,-538.47"/>
</g>
<!-- 13416 -->
<g id="node11" class="node">
<title>13416</title>
<ellipse fill="none" stroke="#dac767" cx="2646.86" cy="-895.68" rx="155.56" ry="28.99"/>
<text text-anchor="middle" x="2646.86" y="-898.88" font-family="Times,serif" font-size="14.00" fill="gray">ScancodeData</text>
<text text-anchor="middle" x="2646.86" y="-882.38" font-family="Times,serif" font-size="14.00" fill="gray">f22f4b73307c053ae6f1c71ad3ed5e77</text>
</g>
<!-- 13416&#45;&gt;13417 -->
<g id="edge19" class="edge">
<title>13416&#45;&gt;13417</title>
<path fill="none" stroke="#dac767" d="M2492.1,-892.01C2431.71,-891.38 2359.34,-891.88 2208.88,-893.37"/>
<polygon fill="#dac767" stroke="#dac767" points="2208.92,-889.87 2198.95,-893.47 2208.99,-896.87 2208.92,-889.87"/>
</g>
<!-- 13417&#45;&gt;40156 -->
<g id="edge20" class="edge">
<title>13417&#45;&gt;40156</title>
<path fill="none" stroke="#00876c" stroke-dasharray="5,2" d="M2065.92,-872.28C1960.27,-695.93 1941.76,-677.97 1689.4,-587.66"/>
<polygon fill="#00876c" stroke="#00876c" points="1680.31,-584.41 1691.24,-583.54 1683.87,-585.68 1689.72,-587.78 1689.72,-587.78 1689.72,-587.78 1683.87,-585.68 1688.21,-592.01 1680.31,-584.41"/>
</g>
<!-- 13418 -->
<g id="node13" class="node">
<title>13418</title>
<polygon fill="none" stroke="#dac767" points="2523.42,-948.91 2523.42,-963.82 2296.48,-974.37 1975.53,-974.37 1748.59,-963.82 1748.59,-948.91 1975.53,-938.37 2296.48,-938.37 2523.42,-948.91"/>
<polygon fill="none" stroke="#dac767" points="2527.42,-945.09 2527.42,-967.64 2296.57,-978.37 1975.44,-978.37 1744.59,-967.64 1744.59,-945.09 1975.44,-934.37 2296.57,-934.37 2527.42,-945.09"/>
<text text-anchor="middle" x="2136.01" y="-951.32" font-family="Times,serif" font-size="14.00">Creative Commons Attribution&#45;NonCommercial&#45;ShareAlike 4.0 International Public License</text>
</g>
<!-- 13418&#45;&gt;13417 -->
<g id="edge21" class="edge">
<title>13418&#45;&gt;13417</title>
<path fill="none" stroke="#dac767" stroke-width="2" d="M2126.57,-934.07C2124.61,-930.62 2122.38,-927.61 2119.47,-924.57"/>
<polygon fill="#dac767" stroke="#dac767" stroke-width="2" points="2113.04,-918.81 2123.49,-922.13 2115.28,-920.15 2120.82,-925.11 2120.49,-925.48 2120.16,-925.86 2114.61,-920.9 2117.49,-928.84 2113.04,-918.81"/>
</g>
<!-- 27293 -->
<g id="node14" class="node">
<title>27293</title>
<ellipse fill="none" stroke="#e18745" cx="1320.72" cy="-1281.91" rx="157.15" ry="28.99"/>
<text text-anchor="middle" x="1320.72" y="-1285.11" font-family="Times,serif" font-size="14.00" fill="gray">Fossology</text>
<text text-anchor="middle" x="1320.72" y="-1268.61" font-family="Times,serif" font-size="14.00" fill="gray">1f05031b3977a1628eebe3eca5213df5</text>
</g>
<!-- 27293&#45;&gt;27294 -->
<g id="edge22" class="edge">
<title>27293&#45;&gt;27294</title>
<path fill="none" stroke="#e18745" d="M1323.94,-1252.85C1324.41,-1249.78 1324.98,-1246.27 1325.68,-1242.07"/>
<polygon fill="#e18745" stroke="#e18745" points="1329.1,-1242.83 1327.32,-1232.39 1322.2,-1241.67 1329.1,-1242.83"/>
</g>
<!-- 28261 -->
<g id="node16" class="node">
<title>28261</title>
<ellipse fill="none" stroke="#379469" cx="1934.66" cy="-630.48" rx="157.15" ry="28.99"/>
<text text-anchor="middle" x="1934.66" y="-633.68" font-family="Times,serif" font-size="14.00" fill="gray">OKFN</text>
<text text-anchor="middle" x="1934.66" y="-617.18" font-family="Times,serif" font-size="14.00" fill="gray">77fb46e257c0db856d8094ee29cf6ce6</text>
</g>
<!-- 28261&#45;&gt;1010 -->
<g id="edge23" class="edge">
<title>28261&#45;&gt;1010</title>
<path fill="none" stroke="#379469" d="M1917.94,-659.55C1863.23,-753.77 1843.95,-772.11 1657.71,-920.68"/>
<polygon fill="#379469" stroke="#379469" points="1655.53,-917.94 1649.9,-926.91 1659.9,-923.41 1655.53,-917.94"/>
</g>
<!-- 28262 -->
<g id="node17" class="node">
<title>28262</title>
<polygon fill="none" stroke="#379469" points="2293.25,-712.26 2293.25,-727.17 2181.51,-737.71 2023.48,-737.71 1911.74,-727.17 1911.74,-712.26 2023.48,-701.71 2181.51,-701.71 2293.25,-712.26"/>
<polygon fill="none" stroke="#379469" points="2297.25,-708.62 2297.25,-730.81 2181.69,-741.71 2023.29,-741.71 1907.74,-730.81 1907.74,-708.62 2023.29,-697.71 2181.69,-697.71 2297.25,-708.62"/>
<text text-anchor="middle" x="2102.49" y="-714.66" font-family="Times,serif" font-size="14.00">Attribution&#45;NonCommercial&#45;ShareAlike 4.0</text>
</g>
<!-- 28262&#45;&gt;1010 -->
<g id="edge24" class="edge">
<title>28262&#45;&gt;1010</title>
<path fill="none" stroke="#379469" stroke-width="2" d="M2069.35,-742.18C1970.54,-808.71 1939.79,-822.8 1680.83,-926.18"/>
<polygon fill="#379469" stroke="#379469" stroke-width="2" points="1672.99,-929.31 1680.61,-921.42 1675.19,-927.9 1682.09,-925.14 1682.28,-925.6 1682.46,-926.07 1675.56,-928.82 1683.95,-929.78 1672.99,-929.31"/>
</g>
<!-- 28595 -->
<g id="node18" class="node">
<title>28595</title>
<ellipse fill="none" stroke="#e06f45" cx="850.97" cy="-1386.35" rx="160.34" ry="28.99"/>
<text text-anchor="middle" x="850.97" y="-1389.55" font-family="Times,serif" font-size="14.00" fill="gray">OrtLicenseCategorization</text>
<text text-anchor="middle" x="850.97" y="-1373.05" font-family="Times,serif" font-size="14.00" fill="gray">7b456e7172ecd23b7b24d589d40cfd1b</text>
</g>
<!-- 28595&#45;&gt;1009 -->
<g id="edge25" class="edge">
<title>28595&#45;&gt;1009</title>
<path fill="none" stroke="#e06f45" d="M854.28,-1356.95C871.2,-1209.87 881.8,-1189.55 1047.52,-963.44"/>
<polygon fill="#e06f45" stroke="#e06f45" points="1050.26,-965.62 1053.35,-955.49 1044.62,-961.48 1050.26,-965.62"/>
</g>
<!-- 35420 -->
<g id="node19" class="node">
<title>35420</title>
<ellipse fill="none" stroke="#e09d4b" cx="676.12" cy="-1223.5" rx="155.03" ry="28.99"/>
<text text-anchor="middle" x="676.12" y="-1226.7" font-family="Times,serif" font-size="14.00" fill="gray">OrtLicenseCategorization</text>
<text text-anchor="middle" x="676.12" y="-1210.2" font-family="Times,serif" font-size="14.00" fill="gray">c84eb5f7b2fa32ac4cb15c4c5f935925</text>
</g>
<!-- 35420&#45;&gt;1009 -->
<g id="edge26" class="edge">
<title>35420&#45;&gt;1009</title>
<path fill="none" stroke="#e09d4b" d="M700.65,-1194.58C775.5,-1107.12 800.81,-1089.06 1018.77,-960.36"/>
<polygon fill="#e09d4b" stroke="#e09d4b" points="1020.48,-963.41 1027.32,-955.31 1016.93,-957.38 1020.48,-963.41"/>
</g>
<!-- 36597 -->
<g id="node20" class="node">
<title>36597</title>
<ellipse fill="none" stroke="#379469" cx="1971.48" cy="-1839.41" rx="156.62" ry="28.99"/>
<text text-anchor="middle" x="1971.48" y="-1842.61" font-family="Times,serif" font-size="14.00" fill="gray">CavilLicenseChange</text>
<text text-anchor="middle" x="1971.48" y="-1826.11" font-family="Times,serif" font-size="14.00" fill="gray">31019355cffedda06b4d30eed8d3f112</text>
</g>
<!-- 36597&#45;&gt;36598 -->
<g id="edge27" class="edge">
<title>36597&#45;&gt;36598</title>
<path fill="none" stroke="#379469" d="M1964.71,-1810.26C1938.89,-1700.23 1928.98,-1677.17 1812.34,-1432.89"/>
<polygon fill="#379469" stroke="#379469" points="1815.54,-1431.49 1808.08,-1423.97 1809.23,-1434.5 1815.54,-1431.49"/>
</g>
<!-- 40155 -->
<g id="node22" class="node">
<title>40155</title>
<ellipse fill="none" stroke="#00876c" cx="1916.3" cy="-28.85" rx="157.15" ry="28.99"/>
<text text-anchor="middle" x="1916.3" y="-32.05" font-family="Times,serif" font-size="14.00" fill="gray">MetaeffektLicense</text>
<text text-anchor="middle" x="1916.3" y="-15.55" font-family="Times,serif" font-size="14.00" fill="gray">ec2c409f4be16eeec097968b705c96c1</text>
</g>
<!-- 40155&#45;&gt;40156 -->
<g id="edge28" class="edge">
<title>40155&#45;&gt;40156</title>
<path fill="none" stroke="#00876c" d="M1900.02,-57.96C1828.23,-186.36 1814.03,-211.48 1633.97,-529.53"/>
<polygon fill="#00876c" stroke="#00876c" points="1630.95,-527.77 1629.06,-538.2 1637.04,-531.22 1630.95,-527.77"/>
</g>
<!-- 40157 -->
<g id="node24" class="node">
<title>40157</title>
<polygon fill="none" stroke="#00876c" points="2054.8,-1039.67 2054.8,-1054.58 1964.48,-1065.12 1836.74,-1065.12 1746.42,-1054.58 1746.42,-1039.67 1836.74,-1029.12 1964.48,-1029.12 2054.8,-1039.67"/>
<polygon fill="none" stroke="#00876c" points="2058.8,-1036.11 2058.8,-1058.14 1964.71,-1069.12 1836.51,-1069.12 1742.42,-1058.14 1742.42,-1036.11 1836.51,-1025.12 1964.71,-1025.12 2058.8,-1036.11"/>
<text text-anchor="middle" x="1900.61" y="-1042.07" font-family="Times,serif" font-size="14.00">Creative Commons BY&#45;NC&#45;SA 4.0</text>
</g>
<!-- 40157&#45;&gt;40156 -->
<g id="edge29" class="edge">
<title>40157&#45;&gt;40156</title>
<path fill="none" stroke="#00876c" stroke-width="2" d="M1897.69,-1024.68C1865.63,-779.15 1858.03,-761.56 1651.47,-590.89"/>
<polygon fill="#00876c" stroke="#00876c" stroke-width="2" points="1644.97,-585.52 1655.54,-588.42 1647.26,-586.77 1653,-591.5 1652.68,-591.89 1652.36,-592.27 1646.62,-587.54 1649.81,-595.36 1644.97,-585.52"/>
</g>
<!-- 40158 -->
<g id="node25" class="node">
<title>40158</title>
<polygon fill="none" stroke="#00876c" points="1409.45,-115.12 1409.45,-130.03 1365.85,-140.57 1304.21,-140.57 1260.61,-130.03 1260.61,-115.12 1304.21,-104.57 1365.85,-104.57 1409.45,-115.12"/>
<text text-anchor="middle" x="1335.03" y="-117.52" font-family="Times,serif" font-size="14.00">CC&#45;BY&#45;NC&#45;SA</text>
</g>
<!-- 40158&#45;&gt;40156 -->
<g id="edge30" class="edge">
<title>40158&#45;&gt;40156</title>
<path fill="none" stroke="#00876c" stroke-dasharray="5,2" d="M1359.27,-140.95C1484.07,-236.01 1494.88,-255.26 1603.02,-529.02"/>
<polygon fill="#00876c" stroke="#00876c" points="1606.63,-538.15 1598.77,-530.5 1605.24,-534.63 1602.95,-528.85 1602.95,-528.85 1602.95,-528.85 1605.24,-534.63 1607.14,-527.19 1606.63,-538.15"/>
</g>
</g>
</svg>
