<?xml version="1.0" encoding="UTF-8" standalone="no"?>
<!DOCTYPE svg PUBLIC "-//W3C//DTD SVG 1.1//EN"
 "http://www.w3.org/Graphics/SVG/1.1/DTD/svg11.dtd">
<!-- Generated by graphviz version 10.0.1 (0)
 -->
<!-- Pages: 1 -->
<svg width="2544pt" height="1906pt"
 viewBox="0.00 0.00 2544.00 1906.00" xmlns="http://www.w3.org/2000/svg" xmlns:xlink="http://www.w3.org/1999/xlink">
<g id="graph0" class="graph" transform="scale(1 1) rotate(0) translate(4 1902)">
<polygon fill="white" stroke="none" points="-4,4 -4,-1902 2540,-1902 2540,4 -4,4"/>
<!-- 5 -->
<g id="node1" class="node">
<title>5</title>
<text text-anchor="start" x="1972.75" y="-499.75" font-family="Times,serif" font-size="14.00">OSI: </text>
<text text-anchor="start" x="2002" y="-499.75" font-family="Times,serif" font-weight="bold" font-size="14.00" fill="#8b0000">Rejected</text>
</g>
<!-- 922 -->
<g id="node2" class="node">
<title>922</title>
<ellipse fill="none" stroke="#dac767" cx="1717.47" cy="-699.14" rx="157.15" ry="28.99"/>
<text text-anchor="middle" x="1717.47" y="-702.34" font-family="Times,serif" font-size="14.00" fill="gray">SPDXLicense</text>
<text text-anchor="middle" x="1717.47" y="-685.84" font-family="Times,serif" font-size="14.00" fill="gray">e0d4c3ce13a9713dfcef4820b0690159</text>
</g>
<!-- 5&#45;&gt;922 -->
<g id="edge1" class="edge">
<title>5&#45;&gt;922</title>
<path fill="none" stroke="#dac767" d="M1987.72,-521.6C1930.57,-562.52 1908.78,-576.9 1771.23,-664.8"/>
<polygon fill="#dac767" stroke="#dac767" points="1769.38,-661.83 1762.83,-670.16 1773.15,-667.73 1769.38,-661.83"/>
</g>
<!-- 923 -->
<g id="node3" class="node">
<title>923</title>
<polygon fill="none" stroke="black" points="1433.13,-1102.58 1433.13,-1117.49 1374.61,-1128.04 1291.85,-1128.04 1233.33,-1117.49 1233.33,-1102.58 1291.85,-1092.04 1374.61,-1092.04 1433.13,-1102.58"/>
<polygon fill="none" stroke="black" points="1437.13,-1099.24 1437.13,-1120.84 1374.96,-1132.04 1291.49,-1132.04 1229.33,-1120.84 1229.33,-1099.24 1291.49,-1088.04 1374.96,-1088.04 1437.13,-1099.24"/>
<polygon fill="none" stroke="black" points="1441.13,-1095.89 1441.13,-1124.18 1375.32,-1136.04 1291.13,-1136.04 1225.33,-1124.18 1225.33,-1095.89 1291.13,-1084.04 1375.32,-1084.04 1441.13,-1095.89"/>
<text text-anchor="middle" x="1333.23" y="-1104.99" font-family="Times,serif" font-size="14.00">spdx:CC&#45;BY&#45;3.0&#45;IGO</text>
</g>
<!-- 922&#45;&gt;923 -->
<g id="edge2" class="edge">
<title>922&#45;&gt;923</title>
<path fill="none" stroke="#dac767" d="M1704.8,-728.1C1639.11,-877.49 1621.52,-896.03 1377.81,-1076.97"/>
<polygon fill="#dac767" stroke="#dac767" points="1375.83,-1074.08 1369.89,-1082.85 1380.01,-1079.7 1375.83,-1074.08"/>
</g>
<!-- 14836 -->
<g id="node12" class="node">
<title>14836</title>
<polygon fill="none" stroke="black" points="1488.06,-1158.87 1488.06,-1173.78 1426.3,-1184.33 1338.95,-1184.33 1277.18,-1173.78 1277.18,-1158.87 1338.95,-1148.33 1426.3,-1148.33 1488.06,-1158.87"/>
<polygon fill="none" stroke="black" points="1492.06,-1155.5 1492.06,-1177.16 1426.64,-1188.33 1338.61,-1188.33 1273.18,-1177.16 1273.18,-1155.5 1338.61,-1144.33 1426.64,-1144.33 1492.06,-1155.5"/>
<text text-anchor="middle" x="1382.62" y="-1161.28" font-family="Times,serif" font-size="14.00">scancode:cc&#45;by&#45;3.0&#45;igo</text>
</g>
<!-- 923&#45;&gt;14836 -->
<g id="edge3" class="edge">
<title>923&#45;&gt;14836</title>
<path fill="none" stroke="#deb256" stroke-width="2" d="M1347.51,-1136.32C1347.63,-1136.47 1347.77,-1136.63 1347.9,-1136.79"/>
<polygon fill="#deb256" stroke="#deb256" stroke-width="2" points="1352.42,-1142.09 1342.5,-1137.41 1350.38,-1140.46 1345.54,-1134.81 1345.92,-1134.49 1346.3,-1134.16 1351.14,-1139.81 1349.34,-1131.56 1352.42,-1142.09"/>
</g>
<!-- 46002 -->
<g id="node21" class="node">
<title>46002</title>
<polygon fill="none" stroke="#379469" points="1005.17,-1348.39 1005.17,-1363.3 890.83,-1373.84 729.13,-1373.84 614.8,-1363.3 614.8,-1348.39 729.13,-1337.84 890.83,-1337.84 1005.17,-1348.39"/>
<polygon fill="none" stroke="#379469" points="1009.17,-1344.74 1009.17,-1366.95 891.01,-1377.84 728.95,-1377.84 610.8,-1366.95 610.8,-1344.74 728.95,-1333.84 891.01,-1333.84 1009.17,-1344.74"/>
<text text-anchor="middle" x="809.98" y="-1350.79" font-family="Times,serif" font-size="14.00">metaeffekt:Creative Commons BY 3.0 (IGO)</text>
</g>
<!-- 923&#45;&gt;46002 -->
<g id="edge4" class="edge">
<title>923&#45;&gt;46002</title>
<path fill="none" stroke="#379469" stroke-width="2" d="M1293.68,-1136.36C1087.87,-1273.28 1025.02,-1312.98 937.57,-1334.2"/>
<polygon fill="#379469" stroke="#379469" stroke-width="2" points="929.15,-1336.15 937.87,-1329.51 931.53,-1335.09 938.78,-1333.41 938.89,-1333.9 939,-1334.38 931.76,-1336.06 939.9,-1338.28 929.15,-1336.15"/>
</g>
<!-- 924 -->
<g id="node4" class="node">
<title>924</title>
<polygon fill="none" stroke="black" points="1353.73,-792.79 1353.73,-807.7 1307.87,-818.25 1243.01,-818.25 1197.14,-807.7 1197.14,-792.79 1243.01,-782.25 1307.87,-782.25 1353.73,-792.79"/>
<polygon fill="none" stroke="black" points="1357.73,-789.61 1357.73,-810.89 1308.32,-822.25 1242.55,-822.25 1193.14,-810.89 1193.14,-789.61 1242.55,-778.25 1308.32,-778.25 1357.73,-789.61"/>
<text text-anchor="middle" x="1275.44" y="-795.2" font-family="Times,serif" font-size="14.00">CC&#45;BY&#45;3.0&#45;IGO</text>
</g>
<!-- 924&#45;&gt;923 -->
<g id="edge5" class="edge">
<title>924&#45;&gt;923</title>
<path fill="none" stroke="black" stroke-width="2" d="M1287.65,-822.45C1358.58,-951.71 1364.42,-969.78 1341.73,-1072.66"/>
<polygon fill="black" stroke="black" stroke-width="2" points="1339.82,-1081.19 1337.61,-1070.45 1339.89,-1078.58 1341.51,-1071.32 1342,-1071.43 1342.49,-1071.54 1340.87,-1078.8 1346.39,-1072.41 1339.82,-1081.19"/>
</g>
<!-- 924&#45;&gt;14836 -->
<g id="edge6" class="edge">
<title>924&#45;&gt;14836</title>
<path fill="none" stroke="black" stroke-width="2" d="M1287.66,-822.69C1386.34,-1003.96 1394.38,-1023.53 1385.49,-1133.16"/>
<polygon fill="black" stroke="black" stroke-width="2" points="1384.78,-1141.63 1381.13,-1131.29 1384.5,-1139.04 1385.11,-1131.62 1385.61,-1131.67 1386.11,-1131.71 1385.49,-1139.12 1390.1,-1132.04 1384.78,-1141.63"/>
</g>
<!-- 41249 -->
<g id="node19" class="node">
<title>41249</title>
<polygon fill="none" stroke="#379469" points="1240.86,-414.14 1240.86,-429.05 1182.02,-439.6 1098.8,-439.6 1039.95,-429.05 1039.95,-414.14 1098.8,-403.6 1182.02,-403.6 1240.86,-414.14"/>
<polygon fill="none" stroke="#379469" points="1244.86,-410.79 1244.86,-432.4 1182.37,-443.6 1098.44,-443.6 1035.95,-432.4 1035.95,-410.79 1098.44,-399.6 1182.37,-399.6 1244.86,-410.79"/>
<text text-anchor="middle" x="1140.41" y="-416.55" font-family="Times,serif" font-size="14.00">cavil:CC&#45;BY&#45;3.0&#45;IGO</text>
</g>
<!-- 924&#45;&gt;41249 -->
<g id="edge7" class="edge">
<title>924&#45;&gt;41249</title>
<path fill="none" stroke="#379469" stroke-width="2" d="M1268.7,-778.07C1202.08,-558.87 1193.56,-532.27 1155.93,-453.71"/>
<polygon fill="#379469" stroke="#379469" stroke-width="2" points="1152.24,-446.05 1160.63,-453.11 1153.81,-448.14 1157.03,-454.84 1156.58,-455.06 1156.13,-455.28 1152.91,-448.58 1152.52,-457.01 1152.24,-446.05"/>
</g>
<!-- 925 -->
<g id="node5" class="node">
<title>925</title>
<polygon fill="none" stroke="black" points="1761.89,-1453.34 1761.89,-1468.25 1660.53,-1478.8 1517.19,-1478.8 1415.84,-1468.25 1415.84,-1453.34 1517.19,-1442.8 1660.53,-1442.8 1761.89,-1453.34"/>
<polygon fill="none" stroke="black" points="1765.89,-1449.74 1765.89,-1471.86 1660.74,-1482.8 1516.99,-1482.8 1411.84,-1471.86 1411.84,-1449.74 1516.99,-1438.8 1660.74,-1438.8 1765.89,-1449.74"/>
<text text-anchor="middle" x="1588.86" y="-1455.75" font-family="Times,serif" font-size="14.00">Creative Commons Attribution 3.0 IGO</text>
</g>
<!-- 925&#45;&gt;923 -->
<g id="edge8" class="edge">
<title>925&#45;&gt;923</title>
<path fill="none" stroke="#dac767" stroke-width="2" d="M1570.03,-1438.5C1506.77,-1363.4 1492.08,-1342.81 1357.52,-1145.64"/>
<polygon fill="#dac767" stroke="#dac767" stroke-width="2" points="1352.6,-1138.43 1361.95,-1144.16 1354.46,-1140.27 1358.65,-1146.41 1358.24,-1146.69 1357.82,-1146.97 1353.63,-1140.83 1354.52,-1149.23 1352.6,-1138.43"/>
</g>
<!-- 925&#45;&gt;14836 -->
<g id="edge9" class="edge">
<title>925&#45;&gt;14836</title>
<path fill="none" stroke="#deb256" stroke-width="2" d="M1571.48,-1438.34C1524.28,-1377.2 1510.77,-1357.58 1403.8,-1197.94"/>
<polygon fill="#deb256" stroke="#deb256" stroke-width="2" points="1398.99,-1190.76 1408.29,-1196.56 1400.83,-1192.61 1404.97,-1198.79 1404.56,-1199.06 1404.14,-1199.34 1400,-1193.16 1400.82,-1201.57 1398.99,-1190.76"/>
</g>
<!-- 66622 -->
<g id="node28" class="node">
<title>66622</title>
<polygon fill="none" stroke="#00876c" points="1896.04,-1391.06 1896.04,-1405.97 1782.03,-1416.51 1620.79,-1416.51 1506.78,-1405.97 1506.78,-1391.06 1620.79,-1380.51 1782.03,-1380.51 1896.04,-1391.06"/>
<polygon fill="none" stroke="#00876c" points="1900.04,-1387.41 1900.04,-1409.61 1782.21,-1420.51 1620.61,-1420.51 1502.78,-1409.61 1502.78,-1387.41 1620.61,-1376.51 1782.21,-1376.51 1900.04,-1387.41"/>
<text text-anchor="middle" x="1701.41" y="-1393.46" font-family="Times,serif" font-size="14.00">spdx:Creative Commons Attribution 3.0 IGO</text>
</g>
<!-- 925&#45;&gt;66622 -->
<g id="edge10" class="edge">
<title>925&#45;&gt;66622</title>
<path fill="none" stroke="#00876c" stroke-width="2" d="M1665.86,-1438.92C1669.29,-1436.18 1672.66,-1432.97 1676.23,-1429.14"/>
<polygon fill="#00876c" stroke="#00876c" stroke-width="2" points="1681.8,-1422.82 1678.57,-1433.3 1680.48,-1425.07 1675.57,-1430.66 1675.19,-1430.33 1674.81,-1430 1679.73,-1424.41 1671.81,-1427.35 1681.8,-1422.82"/>
</g>
<!-- 926 -->
<g id="node6" class="node">
<title>926</title>
<text text-anchor="middle" x="1840.31" y="-333.91" font-family="Times,serif" font-size="14.00">$TEXT</text>
</g>
<!-- 926&#45;&gt;922 -->
<g id="edge11" class="edge">
<title>926&#45;&gt;922</title>
<path fill="none" stroke="#dac767" d="M1839.86,-356.92C1837.04,-463.28 1832.09,-479.24 1738.06,-659.67"/>
<polygon fill="#dac767" stroke="#dac767" points="1735,-657.98 1733.48,-668.46 1741.21,-661.21 1735,-657.98"/>
</g>
<!-- 927 -->
<g id="node7" class="node">
<title>927</title>
<text text-anchor="middle" x="1920.57" y="-136.1" font-family="Times,serif" font-size="14.00">$TEXT</text>
</g>
<!-- 927&#45;&gt;926 -->
<g id="edge12" class="edge">
<title>927&#45;&gt;926</title>
<path fill="none" stroke="#dac767" d="M1917.27,-158.94C1908.52,-204.73 1902.76,-218.31 1854.82,-310.96"/>
<polygon fill="#dac767" stroke="#dac767" points="1851.76,-309.27 1850.27,-319.76 1857.97,-312.48 1851.76,-309.27"/>
</g>
<!-- 928 -->
<g id="node8" class="node">
<title>928</title>
<text text-anchor="middle" x="2157.3" y="-857.16" font-family="Times,serif" font-size="14.00">https://creativecommons.org/licenses/by/3.0/igo/legalcode</text>
</g>
<!-- 928&#45;&gt;922 -->
<g id="edge13" class="edge">
<title>928&#45;&gt;922</title>
<path fill="none" stroke="#dac767" d="M2135.2,-844.35C2044.63,-771.57 2017.59,-757.49 1838.84,-722.32"/>
<polygon fill="#dac767" stroke="#dac767" points="1839.66,-718.91 1829.18,-720.42 1838.32,-725.78 1839.66,-718.91"/>
</g>
<!-- 14835 -->
<g id="node11" class="node">
<title>14835</title>
<ellipse fill="none" stroke="#deb256" cx="1961" cy="-1282.69" rx="159.28" ry="28.99"/>
<text text-anchor="middle" x="1961" y="-1285.89" font-family="Times,serif" font-size="14.00" fill="gray">ScancodeData</text>
<text text-anchor="middle" x="1961" y="-1269.39" font-family="Times,serif" font-size="14.00" fill="gray">a1b38e54836a6abb44891bba90fb2c13</text>
</g>
<!-- 928&#45;&gt;14835 -->
<g id="edge14" class="edge">
<title>928&#45;&gt;14835</title>
<path fill="none" stroke="#deb256" d="M2156.78,-880.13C2151.12,-1072.65 2146.36,-1090.44 1996.69,-1245.79"/>
<polygon fill="#deb256" stroke="#deb256" points="1994.46,-1243.06 1990.03,-1252.69 1999.49,-1247.92 1994.46,-1243.06"/>
</g>
<!-- 5550 -->
<g id="node9" class="node">
<title>5550</title>
<text text-anchor="middle" x="2351.95" y="-1244.26" font-family="Times,serif" font-size="14.00">LicenseType Permissive</text>
</g>
<!-- 5550&#45;&gt;14835 -->
<g id="edge15" class="edge">
<title>5550&#45;&gt;14835</title>
<path fill="none" stroke="#deb256" d="M2299.94,-1267.26C2248.29,-1283.95 2214.58,-1288.82 2129.84,-1287.78"/>
<polygon fill="#deb256" stroke="#deb256" points="2129.97,-1284.28 2119.92,-1287.63 2129.86,-1291.28 2129.97,-1284.28"/>
</g>
<!-- 6868 -->
<g id="node10" class="node">
<title>6868</title>
<polygon fill="none" stroke="black" points="770.16,-1751.44 770.16,-1766.35 745.39,-1776.89 710.36,-1776.89 685.59,-1766.35 685.59,-1751.44 710.36,-1740.89 745.39,-1740.89 770.16,-1751.44"/>
<text text-anchor="middle" x="727.87" y="-1753.84" font-family="Times,serif" font-size="14.00">CC&#45;BY</text>
</g>
<!-- 6868&#45;&gt;46002 -->
<g id="edge16" class="edge">
<title>6868&#45;&gt;46002</title>
<path fill="none" stroke="#379469" stroke-dasharray="5,2" d="M726.42,-1740.73C717.37,-1625.82 720.69,-1610.07 798.49,-1388.53"/>
<polygon fill="#379469" stroke="#379469" points="801.73,-1379.31 802.66,-1390.24 800.48,-1382.88 798.42,-1388.75 798.42,-1388.75 798.42,-1388.75 800.48,-1382.88 794.17,-1387.26 801.73,-1379.31"/>
</g>
<!-- 14835&#45;&gt;14836 -->
<g id="edge17" class="edge">
<title>14835&#45;&gt;14836</title>
<path fill="none" stroke="#deb256" d="M1801.36,-1282.99C1727.54,-1275.66 1648.22,-1251.78 1454.13,-1189.37"/>
<polygon fill="#deb256" stroke="#deb256" points="1455.33,-1186.08 1444.74,-1186.35 1453.19,-1192.74 1455.33,-1186.08"/>
</g>
<!-- 14836&#45;&gt;923 -->
<g id="edge18" class="edge">
<title>14836&#45;&gt;923</title>
<path fill="none" stroke="#00876c" stroke-width="2" d="M1371.5,-1144.02C1371.37,-1143.85 1371.25,-1143.69 1371.12,-1143.53"/>
<polygon fill="#00876c" stroke="#00876c" stroke-width="2" points="1366.66,-1138.07 1376.47,-1142.97 1368.67,-1139.74 1373.37,-1145.5 1372.99,-1145.82 1372.6,-1146.13 1367.9,-1140.37 1369.5,-1148.66 1366.66,-1138.07"/>
</g>
<!-- 14836&#45;&gt;46002 -->
<g id="edge19" class="edge">
<title>14836&#45;&gt;46002</title>
<path fill="none" stroke="#379469" stroke-dasharray="5,2" d="M1344.27,-1188.64C1172.55,-1288.45 1094.4,-1332.21 1020.27,-1349.54"/>
<polygon fill="#379469" stroke="#379469" points="1010.55,-1351.65 1019.36,-1345.13 1014.24,-1350.85 1020.32,-1349.53 1020.32,-1349.53 1020.32,-1349.53 1014.24,-1350.85 1021.27,-1353.93 1010.55,-1351.65"/>
</g>
<!-- 14837 -->
<g id="node13" class="node">
<title>14837</title>
<text text-anchor="middle" x="2397.25" y="-1482.29" font-family="Times,serif" font-size="14.00">https://creativecommons.org/licenses/by/3.0/igo</text>
</g>
<!-- 14837&#45;&gt;14835 -->
<g id="edge20" class="edge">
<title>14837&#45;&gt;14835</title>
<path fill="none" stroke="#deb256" d="M2358.66,-1469.48C2271.19,-1428.96 2238.88,-1413.79 2029.19,-1314.86"/>
<polygon fill="#deb256" stroke="#deb256" points="2030.97,-1311.83 2020.44,-1310.73 2027.99,-1318.16 2030.97,-1311.83"/>
</g>
<!-- 14838 -->
<g id="node14" class="node">
<title>14838</title>
<text text-anchor="middle" x="2178.9" y="-1534.93" font-family="Times,serif" font-size="14.00">$TEXT</text>
</g>
<!-- 14838&#45;&gt;14835 -->
<g id="edge21" class="edge">
<title>14838&#45;&gt;14835</title>
<path fill="none" stroke="#deb256" d="M2169.44,-1522.24C2131.29,-1451.11 2119.31,-1436.51 1998.75,-1319.33"/>
<polygon fill="#deb256" stroke="#deb256" points="2001.35,-1316.97 1991.74,-1312.51 1996.47,-1321.99 2001.35,-1316.97"/>
</g>
<!-- 35432 -->
<g id="node15" class="node">
<title>35432</title>
<text text-anchor="middle" x="1294.65" y="-1572.84" font-family="Times,serif" font-size="14.00">LicenseTag (ScopedLicenseTag &quot;OrtLicenseCategorization&quot; &quot;permissive&quot; NoLicenseTagText)</text>
</g>
<!-- 35549 -->
<g id="node17" class="node">
<title>35549</title>
<ellipse fill="none" stroke="#d43d51" cx="1167.55" cy="-1512.72" rx="155.03" ry="28.99"/>
<text text-anchor="middle" x="1167.55" y="-1515.92" font-family="Times,serif" font-size="14.00" fill="gray">OrtLicenseCategorization</text>
<text text-anchor="middle" x="1167.55" y="-1499.42" font-family="Times,serif" font-size="14.00" fill="gray">0220bbdfd1d5e0a1f94f9d5409bf7f7d</text>
</g>
<!-- 35432&#45;&gt;35549 -->
<g id="edge22" class="edge">
<title>35432&#45;&gt;35549</title>
<path fill="none" stroke="#d43d51" d="M1218.86,-1559.96C1214.61,-1556.92 1210.14,-1553.28 1205.2,-1548.91"/>
<polygon fill="#d43d51" stroke="#d43d51" points="1207.85,-1546.59 1198.11,-1542.43 1203.13,-1551.76 1207.85,-1546.59"/>
</g>
<!-- 35433 -->
<g id="node16" class="node">
<title>35433</title>
<text text-anchor="middle" x="898.74" y="-1628.36" font-family="Times,serif" font-size="14.00">LicenseTag (ScopedLicenseTag &quot;OrtLicenseCategorization&quot; &quot;include&#45;in&#45;notice&#45;file&quot; NoLicenseTagText)</text>
</g>
<!-- 35433&#45;&gt;35549 -->
<g id="edge23" class="edge">
<title>35433&#45;&gt;35549</title>
<path fill="none" stroke="#d43d51" d="M1015.22,-1615.47C1041.78,-1603.97 1071.13,-1583.97 1120.2,-1547.85"/>
<polygon fill="#d43d51" stroke="#d43d51" points="1122.07,-1550.82 1128.03,-1542.07 1117.91,-1545.19 1122.07,-1550.82"/>
</g>
<!-- 35549&#45;&gt;923 -->
<g id="edge24" class="edge">
<title>35549&#45;&gt;923</title>
<path fill="none" stroke="#d43d51" d="M1187.53,-1483.52C1243.96,-1400.24 1253.38,-1374.18 1321.95,-1147.35"/>
<polygon fill="#d43d51" stroke="#d43d51" points="1325.28,-1148.43 1324.83,-1137.85 1318.58,-1146.41 1325.28,-1148.43"/>
</g>
<!-- 41248 -->
<g id="node18" class="node">
<title>41248</title>
<ellipse fill="none" stroke="#379469" cx="990.52" cy="-29.26" rx="157.15" ry="28.99"/>
<text text-anchor="middle" x="990.52" y="-32.46" font-family="Times,serif" font-size="14.00" fill="gray">CavilLicenseChange</text>
<text text-anchor="middle" x="990.52" y="-15.96" font-family="Times,serif" font-size="14.00" fill="gray">65dbfc04a009004146bf2c30d48f05a3</text>
</g>
<!-- 41248&#45;&gt;41249 -->
<g id="edge25" class="edge">
<title>41248&#45;&gt;41249</title>
<path fill="none" stroke="#379469" d="M1003.72,-58.4C1041.83,-142.85 1050.98,-167.74 1128.82,-388.69"/>
<polygon fill="#379469" stroke="#379469" points="1125.45,-389.67 1132.07,-397.94 1132.05,-387.34 1125.45,-389.67"/>
</g>
<!-- 46001 -->
<g id="node20" class="node">
<title>46001</title>
<ellipse fill="none" stroke="#379469" cx="545.27" cy="-1868.52" rx="156.62" ry="28.99"/>
<text text-anchor="middle" x="545.27" y="-1871.72" font-family="Times,serif" font-size="14.00" fill="gray">MetaeffektLicense</text>
<text text-anchor="middle" x="545.27" y="-1855.22" font-family="Times,serif" font-size="14.00" fill="gray">3dd8ee642f1e1494d4f0f317a554a837</text>
</g>
<!-- 46001&#45;&gt;46002 -->
<g id="edge26" class="edge">
<title>46001&#45;&gt;46002</title>
<path fill="none" stroke="#379469" d="M554.82,-1839.37C600.07,-1701.94 612.71,-1679.1 790.62,-1387.57"/>
<polygon fill="#379469" stroke="#379469" points="793.46,-1389.63 795.68,-1379.27 787.49,-1385.98 793.46,-1389.63"/>
</g>
<!-- 46003 -->
<g id="node22" class="node">
<title>46003</title>
<polygon fill="none" stroke="#379469" points="550.14,-1006.55 550.14,-1021.46 462.74,-1032.01 339.14,-1032.01 251.73,-1021.46 251.73,-1006.55 339.14,-996.01 462.74,-996.01 550.14,-1006.55"/>
<polygon fill="none" stroke="#379469" points="554.14,-1003 554.14,-1025.01 462.98,-1036.01 338.9,-1036.01 247.73,-1025.01 247.73,-1003 338.9,-992.01 462.98,-992.01 554.14,-1003"/>
<text text-anchor="middle" x="400.94" y="-1008.96" font-family="Times,serif" font-size="14.00">Creative Commons BY 3.0 (IGO)</text>
</g>
<!-- 46003&#45;&gt;46002 -->
<g id="edge27" class="edge">
<title>46003&#45;&gt;46002</title>
<path fill="none" stroke="#379469" stroke-width="2" d="M412.26,-1036.46C498.57,-1207.26 514.41,-1224.07 749.42,-1328.94"/>
<polygon fill="#379469" stroke="#379469" stroke-width="2" points="757.09,-1332.36 746.12,-1332.4 754.55,-1331.78 747.75,-1328.75 747.96,-1328.29 748.16,-1327.84 754.95,-1330.86 749.79,-1324.18 757.09,-1332.36"/>
</g>
<!-- 46004 -->
<g id="node23" class="node">
<title>46004</title>
<polygon fill="none" stroke="#379469" points="556.08,-1640.96 556.08,-1655.87 510.86,-1666.42 446.92,-1666.42 401.7,-1655.87 401.7,-1640.96 446.92,-1630.42 510.86,-1630.42 556.08,-1640.96"/>
<text text-anchor="middle" x="478.89" y="-1643.37" font-family="Times,serif" font-size="14.00">CC BY 3.0 IGO</text>
</g>
<!-- 46004&#45;&gt;46002 -->
<g id="edge28" class="edge">
<title>46004&#45;&gt;46002</title>
<path fill="none" stroke="#379469" stroke-dasharray="5,2" d="M499.78,-1630.01C575.24,-1563.49 593.78,-1547.1 776.35,-1385.59"/>
<polygon fill="#379469" stroke="#379469" points="783.69,-1379.1 779.18,-1389.1 780.86,-1381.61 776.2,-1385.73 776.2,-1385.73 776.2,-1385.73 780.86,-1381.61 773.22,-1382.36 783.69,-1379.1"/>
</g>
<!-- 46005 -->
<g id="node24" class="node">
<title>46005</title>
<polygon fill="none" stroke="#379469" points="451.59,-1357.42 451.59,-1372.33 397.61,-1382.87 321.27,-1382.87 267.3,-1372.33 267.3,-1357.42 321.27,-1346.87 397.61,-1346.87 451.59,-1357.42"/>
<text text-anchor="middle" x="359.44" y="-1359.82" font-family="Times,serif" font-size="14.00">Attribution 3.0 IGO</text>
</g>
<!-- 46005&#45;&gt;46002 -->
<g id="edge29" class="edge">
<title>46005&#45;&gt;46002</title>
<path fill="none" stroke="#379469" stroke-dasharray="5,2" d="M414.37,-1380.06C494.52,-1400.91 533.76,-1400.86 683.33,-1376.9"/>
<polygon fill="#379469" stroke="#379469" points="693.09,-1375.33 683.93,-1381.36 689.36,-1375.93 683.22,-1376.92 683.22,-1376.92 683.22,-1376.92 689.36,-1375.93 682.5,-1372.48 693.09,-1375.33"/>
</g>
<!-- 46006 -->
<g id="node25" class="node">
<title>46006</title>
<polygon fill="none" stroke="#379469" points="438.5,-1595.21 438.5,-1610.12 320.59,-1620.66 153.85,-1620.66 35.94,-1610.12 35.94,-1595.21 153.85,-1584.66 320.59,-1584.66 438.5,-1595.21"/>
<text text-anchor="middle" x="237.22" y="-1597.61" font-family="Times,serif" font-size="14.00">http://creativecommons.org/licenses/by/3.0/igo</text>
</g>
<!-- 46006&#45;&gt;46002 -->
<g id="edge30" class="edge">
<title>46006&#45;&gt;46002</title>
<path fill="none" stroke="#379469" stroke-dasharray="5,2" d="M303.26,-1584.21C421.93,-1550.11 468.91,-1527.87 755.69,-1383.23"/>
<polygon fill="#379469" stroke="#379469" points="764.47,-1378.81 757.57,-1387.33 761.09,-1380.51 755.54,-1383.31 755.54,-1383.31 755.54,-1383.31 761.09,-1380.51 753.52,-1379.29 764.47,-1378.81"/>
</g>
<!-- 46008 -->
<g id="node26" class="node">
<title>46008</title>
<polygon fill="none" stroke="#379469" points="410.4,-1210.02 410.4,-1224.93 290.22,-1235.47 120.27,-1235.47 0.09,-1224.93 0.09,-1210.02 120.27,-1199.47 290.22,-1199.47 410.4,-1210.02"/>
<text text-anchor="middle" x="205.24" y="-1212.42" font-family="Times,serif" font-size="14.00">https://creativecommons.org/licenses/by/3.0/igo</text>
</g>
<!-- 46008&#45;&gt;46002 -->
<g id="edge31" class="edge">
<title>46008&#45;&gt;46002</title>
<path fill="none" stroke="#379469" stroke-dasharray="5,2" d="M234.15,-1235.72C360.03,-1314.83 400.53,-1332.77 599.35,-1345.31"/>
<polygon fill="#379469" stroke="#379469" points="609.27,-1345.92 599.01,-1349.8 605.49,-1345.69 599.29,-1345.31 599.29,-1345.31 599.29,-1345.31 605.49,-1345.69 599.56,-1340.81 609.27,-1345.92"/>
</g>
<!-- 66621 -->
<g id="node27" class="node">
<title>66621</title>
<ellipse fill="none" stroke="#00876c" cx="1015.28" cy="-827.35" rx="155.03" ry="28.99"/>
<text text-anchor="middle" x="1015.28" y="-830.55" font-family="Times,serif" font-size="14.00" fill="gray">LicenseLynx</text>
<text text-anchor="middle" x="1015.28" y="-814.05" font-family="Times,serif" font-size="14.00" fill="gray">426dfb65f705d0c9f3d252f7a92f9416</text>
</g>
<!-- 66621&#45;&gt;923 -->
<g id="edge32" class="edge">
<title>66621&#45;&gt;923</title>
<path fill="none" stroke="#00876c" d="M1029.26,-856.56C1086.05,-974.32 1103.58,-991.73 1274.1,-1079.72"/>
<polygon fill="#00876c" stroke="#00876c" points="1272.36,-1082.76 1282.86,-1084.23 1275.57,-1076.54 1272.36,-1082.76"/>
</g>
<!-- 66622&#45;&gt;923 -->
<g id="edge33" class="edge">
<title>66622&#45;&gt;923</title>
<path fill="none" stroke="#00876c" stroke-width="2" d="M1662.64,-1376.11C1578.79,-1327.08 1551.77,-1304.6 1371.01,-1143.69"/>
<polygon fill="#00876c" stroke="#00876c" stroke-width="2" points="1364.66,-1138.04 1375.13,-1141.33 1366.91,-1139.37 1372.47,-1144.31 1372.13,-1144.69 1371.8,-1145.06 1366.25,-1140.11 1369.14,-1148.05 1364.66,-1138.04"/>
</g>
</g>
</svg>
