<?xml version="1.0" encoding="UTF-8" standalone="no"?>
<!DOCTYPE svg PUBLIC "-//W3C//DTD SVG 1.1//EN"
 "http://www.w3.org/Graphics/SVG/1.1/DTD/svg11.dtd">
<!-- Generated by graphviz version 10.0.1 (0)
 -->
<!-- Pages: 1 -->
<svg width="3305pt" height="3005pt"
 viewBox="0.00 0.00 3305.00 3005.00" xmlns="http://www.w3.org/2000/svg" xmlns:xlink="http://www.w3.org/1999/xlink">
<g id="graph0" class="graph" transform="scale(1 1) rotate(0) translate(4 3001)">
<polygon fill="white" stroke="none" points="-4,4 -4,-3001 3301,-3001 3301,4 -4,4"/>
<!-- 5 -->
<g id="node1" class="node">
<title>5</title>
<text text-anchor="start" x="234.91" y="-950.89" font-family="Times,serif" font-size="14.00">OSI: </text>
<text text-anchor="start" x="264.16" y="-950.89" font-family="Times,serif" font-weight="bold" font-size="14.00" fill="#8b0000">Rejected</text>
</g>
<!-- 929 -->
<g id="node2" class="node">
<title>929</title>
<ellipse fill="none" stroke="#dac767" cx="644.37" cy="-892.85" rx="156.62" ry="28.99"/>
<text text-anchor="middle" x="644.37" y="-896.05" font-family="Times,serif" font-size="14.00" fill="gray">SPDXLicense</text>
<text text-anchor="middle" x="644.37" y="-879.55" font-family="Times,serif" font-size="14.00" fill="gray">c55e52ed1b818b1ac6a7adf435fe7353</text>
</g>
<!-- 5&#45;&gt;929 -->
<g id="edge1" class="edge">
<title>5&#45;&gt;929</title>
<path fill="none" stroke="#dac767" d="M308.02,-936.99C365.9,-906.49 395.68,-896.41 476.23,-893.5"/>
<polygon fill="#dac767" stroke="#dac767" points="476,-897.01 485.88,-893.19 475.78,-890.01 476,-897.01"/>
</g>
<!-- 930 -->
<g id="node3" class="node">
<title>930</title>
<polygon fill="none" stroke="black" points="1309.33,-1194.08 1309.33,-1208.99 1253.4,-1219.54 1174.31,-1219.54 1118.39,-1208.99 1118.39,-1194.08 1174.31,-1183.54 1253.4,-1183.54 1309.33,-1194.08"/>
<polygon fill="none" stroke="black" points="1313.33,-1190.77 1313.33,-1212.31 1253.78,-1223.54 1173.94,-1223.54 1114.39,-1212.31 1114.39,-1190.77 1173.94,-1179.54 1253.78,-1179.54 1313.33,-1190.77"/>
<polygon fill="none" stroke="black" points="1317.33,-1187.45 1317.33,-1215.63 1254.15,-1227.54 1173.57,-1227.54 1110.39,-1215.63 1110.39,-1187.45 1173.57,-1175.54 1254.15,-1175.54 1317.33,-1187.45"/>
<text text-anchor="middle" x="1213.86" y="-1196.49" font-family="Times,serif" font-size="14.00">spdx:CC&#45;BY&#45;3.0&#45;NL</text>
</g>
<!-- 929&#45;&gt;930 -->
<g id="edge2" class="edge">
<title>929&#45;&gt;930</title>
<path fill="none" stroke="#dac767" d="M700.43,-920.29C818.09,-978.13 861.54,-1002.23 1159.06,-1170.54"/>
<polygon fill="#dac767" stroke="#dac767" points="1157.1,-1173.45 1167.53,-1175.33 1160.55,-1167.36 1157.1,-1173.45"/>
</g>
<!-- 6887 -->
<g id="node15" class="node">
<title>6887</title>
<polygon fill="none" stroke="#e09d4b" points="1700.37,-1539.5 1700.37,-1554.41 1639.25,-1564.96 1552.82,-1564.96 1491.71,-1554.41 1491.71,-1539.5 1552.82,-1528.96 1639.25,-1528.96 1700.37,-1539.5"/>
<polygon fill="none" stroke="#e09d4b" points="1704.37,-1536.13 1704.37,-1557.78 1639.6,-1568.96 1552.48,-1568.96 1487.71,-1557.78 1487.71,-1536.13 1552.48,-1524.96 1639.6,-1524.96 1704.37,-1536.13"/>
<text text-anchor="middle" x="1596.04" y="-1541.91" font-family="Times,serif" font-size="14.00">Fedora:CC&#45;BY&#45;3.0&#45;NL</text>
</g>
<!-- 930&#45;&gt;6887 -->
<g id="edge3" class="edge">
<title>930&#45;&gt;6887</title>
<path fill="none" stroke="#e09d4b" stroke-width="2" d="M1234.74,-1227.95C1310.75,-1323.6 1332.31,-1342.18 1558.36,-1517.71"/>
<polygon fill="#e09d4b" stroke="#e09d4b" stroke-width="2" points="1565.26,-1523.07 1554.6,-1520.49 1562.93,-1521.89 1557.05,-1517.33 1557.36,-1516.94 1557.67,-1516.54 1563.54,-1521.1 1560.12,-1513.38 1565.26,-1523.07"/>
</g>
<!-- 14840 -->
<g id="node18" class="node">
<title>14840</title>
<polygon fill="none" stroke="black" points="1458.24,-850.01 1458.24,-864.92 1399.39,-875.46 1316.18,-875.46 1257.33,-864.92 1257.33,-850.01 1316.18,-839.46 1399.39,-839.46 1458.24,-850.01"/>
<polygon fill="none" stroke="black" points="1462.24,-846.66 1462.24,-868.27 1399.75,-879.46 1315.82,-879.46 1253.33,-868.27 1253.33,-846.66 1315.82,-835.46 1399.75,-835.46 1462.24,-846.66"/>
<text text-anchor="middle" x="1357.78" y="-852.41" font-family="Times,serif" font-size="14.00">scancode:cc&#45;by&#45;3.0&#45;nl</text>
</g>
<!-- 930&#45;&gt;14840 -->
<g id="edge4" class="edge">
<title>930&#45;&gt;14840</title>
<path fill="none" stroke="#deb256" stroke-width="2" d="M1229.11,-1175.18C1259.12,-1113.12 1324.05,-958.07 1348.53,-890.17"/>
<polygon fill="#deb256" stroke="#deb256" stroke-width="2" points="1351.42,-881.96 1352.34,-892.89 1351.04,-884.55 1348.57,-891.56 1348.09,-891.4 1347.62,-891.23 1350.09,-884.22 1343.85,-889.9 1351.42,-881.96"/>
</g>
<!-- 45993 -->
<g id="node27" class="node">
<title>45993</title>
<polygon fill="none" stroke="#379469" points="2013.18,-901.63 2013.18,-916.54 1901.44,-927.08 1743.41,-927.08 1631.67,-916.54 1631.67,-901.63 1743.41,-891.08 1901.44,-891.08 2013.18,-901.63"/>
<polygon fill="none" stroke="#379469" points="2017.18,-897.99 2017.18,-920.18 1901.62,-931.08 1743.22,-931.08 1627.67,-920.18 1627.67,-897.99 1743.22,-887.08 1901.62,-887.08 2017.18,-897.99"/>
<text text-anchor="middle" x="1822.42" y="-904.03" font-family="Times,serif" font-size="14.00">metaeffekt:Creative Commons BY 3.0 (NL)</text>
</g>
<!-- 930&#45;&gt;45993 -->
<g id="edge5" class="edge">
<title>930&#45;&gt;45993</title>
<path fill="none" stroke="#379469" stroke-width="2" d="M1239.15,-1175.35C1419.48,-988.77 1471.07,-941.37 1623.94,-922.58"/>
<polygon fill="#379469" stroke="#379469" stroke-width="2" points="1632.22,-921.61 1622.81,-927.25 1629.73,-922.41 1622.35,-923.27 1622.29,-922.78 1622.23,-922.28 1629.62,-921.42 1621.77,-918.31 1632.22,-921.61"/>
</g>
<!-- 931 -->
<g id="node4" class="node">
<title>931</title>
<polygon fill="none" stroke="black" points="1561.87,-1228.86 1561.87,-1243.78 1518.6,-1254.32 1457.41,-1254.32 1414.15,-1243.78 1414.15,-1228.86 1457.41,-1218.32 1518.6,-1218.32 1561.87,-1228.86"/>
<polygon fill="none" stroke="black" points="1565.87,-1225.72 1565.87,-1246.92 1519.09,-1258.32 1456.93,-1258.32 1410.15,-1246.92 1410.15,-1225.72 1456.93,-1214.32 1519.09,-1214.32 1565.87,-1225.72"/>
<text text-anchor="middle" x="1488.01" y="-1231.27" font-family="Times,serif" font-size="14.00">CC&#45;BY&#45;3.0&#45;NL</text>
</g>
<!-- 931&#45;&gt;930 -->
<g id="edge6" class="edge">
<title>931&#45;&gt;930</title>
<path fill="none" stroke="black" stroke-width="2" d="M1433.75,-1219.5C1384.67,-1204.44 1353.43,-1195.65 1328.32,-1191.64"/>
<polygon fill="black" stroke="black" stroke-width="2" points="1319.96,-1190.49 1330.47,-1187.39 1322.56,-1190.35 1329.93,-1191.35 1329.87,-1191.85 1329.8,-1192.34 1322.43,-1191.34 1329.26,-1196.31 1319.96,-1190.49"/>
</g>
<!-- 931&#45;&gt;6887 -->
<g id="edge7" class="edge">
<title>931&#45;&gt;6887</title>
<path fill="none" stroke="#e09d4b" stroke-width="2" d="M1489.6,-1258.58C1495.74,-1340.77 1502.12,-1357.88 1579.91,-1514.51"/>
<polygon fill="#e09d4b" stroke="#e09d4b" stroke-width="2" points="1583.8,-1522.36 1575.32,-1515.4 1582.21,-1520.28 1578.91,-1513.62 1579.35,-1513.4 1579.8,-1513.18 1583.11,-1519.84 1583.38,-1511.4 1583.8,-1522.36"/>
</g>
<!-- 931&#45;&gt;14840 -->
<g id="edge8" class="edge">
<title>931&#45;&gt;14840</title>
<path fill="none" stroke="black" stroke-width="2" d="M1479.4,-1214.03C1396.82,-1000.37 1387.43,-975.11 1366.02,-890.4"/>
<polygon fill="black" stroke="black" stroke-width="2" points="1363.94,-882.12 1370.74,-890.72 1365.05,-884.48 1366.86,-891.69 1366.38,-891.82 1365.89,-891.94 1364.08,-884.73 1362.01,-892.91 1363.94,-882.12"/>
</g>
<!-- 41251 -->
<g id="node24" class="node">
<title>41251</title>
<polygon fill="none" stroke="#379469" points="1496.55,-1594.2 1496.55,-1609.11 1440.3,-1619.66 1360.75,-1619.66 1304.5,-1609.11 1304.5,-1594.2 1360.75,-1583.66 1440.3,-1583.66 1496.55,-1594.2"/>
<polygon fill="none" stroke="#379469" points="1500.55,-1590.88 1500.55,-1612.43 1440.67,-1623.66 1360.38,-1623.66 1300.5,-1612.43 1300.5,-1590.88 1360.38,-1579.66 1440.67,-1579.66 1500.55,-1590.88"/>
<text text-anchor="middle" x="1400.52" y="-1596.61" font-family="Times,serif" font-size="14.00">cavil:CC&#45;BY&#45;3.0&#45;NL</text>
</g>
<!-- 931&#45;&gt;41251 -->
<g id="edge9" class="edge">
<title>931&#45;&gt;41251</title>
<path fill="none" stroke="#379469" stroke-width="2" d="M1471.85,-1258.43C1380.05,-1384.39 1375.76,-1400.59 1396.39,-1568.39"/>
<polygon fill="#379469" stroke="#379469" stroke-width="2" points="1397.45,-1576.98 1391.75,-1567.61 1396.64,-1574.5 1395.72,-1567.12 1396.22,-1567.06 1396.72,-1567 1397.63,-1574.38 1400.69,-1566.51 1397.45,-1576.98"/>
</g>
<!-- 931&#45;&gt;45993 -->
<g id="edge10" class="edge">
<title>931&#45;&gt;45993</title>
<path fill="none" stroke="#379469" stroke-dasharray="5,2" d="M1502.64,-1214.01C1633.79,-1014.2 1656.86,-982.86 1759.74,-936.15"/>
<polygon fill="#379469" stroke="#379469" points="1768.85,-932.07 1761.56,-940.26 1765.39,-933.61 1759.72,-936.16 1759.72,-936.16 1759.72,-936.16 1765.39,-933.61 1757.88,-932.05 1768.85,-932.07"/>
</g>
<!-- 932 -->
<g id="node5" class="node">
<title>932</title>
<polygon fill="none" stroke="black" points="1236.66,-855.15 1236.66,-870.06 1117.45,-880.6 948.87,-880.6 829.67,-870.06 829.67,-855.15 948.87,-844.6 1117.45,-844.6 1236.66,-855.15"/>
<polygon fill="none" stroke="black" points="1240.66,-851.49 1240.66,-873.72 1117.63,-884.6 948.7,-884.6 825.67,-873.72 825.67,-851.49 948.7,-840.6 1117.63,-840.6 1240.66,-851.49"/>
<text text-anchor="middle" x="1033.16" y="-857.55" font-family="Times,serif" font-size="14.00">Creative Commons Attribution 3.0 Netherlands</text>
</g>
<!-- 932&#45;&gt;930 -->
<g id="edge11" class="edge">
<title>932&#45;&gt;930</title>
<path fill="none" stroke="#dac767" stroke-width="2" d="M1039.42,-885.04C1065.09,-976.15 1074.85,-993.91 1190.13,-1166.12"/>
<polygon fill="#dac767" stroke="#dac767" stroke-width="2" points="1194.88,-1173.21 1185.58,-1167.41 1193.04,-1171.36 1188.9,-1165.18 1189.32,-1164.9 1189.73,-1164.63 1193.87,-1170.81 1193.06,-1162.4 1194.88,-1173.21"/>
</g>
<!-- 932&#45;&gt;14840 -->
<g id="edge12" class="edge">
<title>932&#45;&gt;14840</title>
<path fill="none" stroke="#deb256" stroke-width="2" d="M1084.83,-840.18C1148.4,-814.32 1178.06,-813.96 1277.15,-837.48"/>
<polygon fill="#deb256" stroke="#deb256" stroke-width="2" points="1285.57,-839.49 1274.79,-841.54 1282.96,-839.38 1275.72,-837.65 1275.84,-837.16 1275.96,-836.67 1283.19,-838.41 1276.89,-832.79 1285.57,-839.49"/>
</g>
<!-- 66624 -->
<g id="node35" class="node">
<title>66624</title>
<polygon fill="none" stroke="#00876c" points="1276.47,-925.99 1276.47,-940.91 1144.61,-951.45 958.14,-951.45 826.28,-940.91 826.28,-925.99 958.14,-915.45 1144.61,-915.45 1276.47,-925.99"/>
<polygon fill="none" stroke="#00876c" points="1280.47,-922.3 1280.47,-944.6 1144.77,-955.45 957.98,-955.45 822.28,-944.6 822.28,-922.3 957.98,-911.45 1144.77,-911.45 1280.47,-922.3"/>
<text text-anchor="middle" x="1051.38" y="-928.4" font-family="Times,serif" font-size="14.00">spdx:Creative Commons Attribution 3.0 Netherlands</text>
</g>
<!-- 932&#45;&gt;66624 -->
<g id="edge13" class="edge">
<title>932&#45;&gt;66624</title>
<path fill="none" stroke="#00876c" stroke-width="2" d="M1033.33,-884.77C1034.04,-889.41 1035.43,-894.26 1037.93,-900.96"/>
<polygon fill="#00876c" stroke="#00876c" stroke-width="2" points="1041.15,-909.11 1033.29,-901.47 1039.75,-906.91 1037.01,-900 1037.47,-899.81 1037.94,-899.63 1040.67,-906.54 1041.66,-898.16 1041.15,-909.11"/>
</g>
<!-- 933 -->
<g id="node6" class="node">
<title>933</title>
<text text-anchor="middle" x="273.87" y="-701.16" font-family="Times,serif" font-size="14.00">$TEXT</text>
</g>
<!-- 933&#45;&gt;929 -->
<g id="edge14" class="edge">
<title>933&#45;&gt;929</title>
<path fill="none" stroke="#dac767" d="M302.32,-719.05C381.18,-754.75 406.14,-767.33 581.8,-859.87"/>
<polygon fill="#dac767" stroke="#dac767" points="580.11,-862.94 590.59,-864.5 583.37,-856.74 580.11,-862.94"/>
</g>
<!-- 934 -->
<g id="node7" class="node">
<title>934</title>
<text text-anchor="middle" x="63.63" y="-605.49" font-family="Times,serif" font-size="14.00">$TEXT</text>
</g>
<!-- 934&#45;&gt;933 -->
<g id="edge15" class="edge">
<title>934&#45;&gt;933</title>
<path fill="none" stroke="#dac767" d="M92.15,-621.6C128.02,-635.73 148.19,-645.15 235.44,-687.53"/>
<polygon fill="#dac767" stroke="#dac767" points="233.65,-690.55 244.17,-691.77 236.71,-684.25 233.65,-690.55"/>
</g>
<!-- 935 -->
<g id="node8" class="node">
<title>935</title>
<text text-anchor="middle" x="654.22" y="-827.92" font-family="Times,serif" font-size="14.00">https://creativecommons.org/licenses/by/3.0/nl/legalcode</text>
</g>
<!-- 935&#45;&gt;929 -->
<g id="edge16" class="edge">
<title>935&#45;&gt;929</title>
<path fill="none" stroke="#dac767" d="M643.69,-850.91C643.48,-851.42 643.28,-851.92 643.1,-852.42"/>
<polygon fill="#dac767" stroke="#dac767" points="639.68,-851.65 641.41,-862.1 646.58,-852.85 639.68,-851.65"/>
</g>
<!-- 14839 -->
<g id="node17" class="node">
<title>14839</title>
<ellipse fill="none" stroke="#deb256" cx="1005.48" cy="-432.14" rx="158.75" ry="28.99"/>
<text text-anchor="middle" x="1005.48" y="-435.34" font-family="Times,serif" font-size="14.00" fill="gray">ScancodeData</text>
<text text-anchor="middle" x="1005.48" y="-418.84" font-family="Times,serif" font-size="14.00" fill="gray">3442eab8b467386925c6466ad14dfdf2</text>
</g>
<!-- 935&#45;&gt;14839 -->
<g id="edge17" class="edge">
<title>935&#45;&gt;14839</title>
<path fill="none" stroke="#deb256" d="M660.82,-815.05C747.23,-580.8 760.14,-555.45 939.81,-464.79"/>
<polygon fill="#deb256" stroke="#deb256" points="941.19,-468.02 948.55,-460.4 938.04,-461.76 941.19,-468.02"/>
</g>
<!-- 5550 -->
<g id="node9" class="node">
<title>5550</title>
<text text-anchor="middle" x="989.11" y="-13.38" font-family="Times,serif" font-size="14.00">LicenseType Permissive</text>
</g>
<!-- 5550&#45;&gt;14839 -->
<g id="edge18" class="edge">
<title>5550&#45;&gt;14839</title>
<path fill="none" stroke="#deb256" d="M985.16,-36.32C961.04,-146.03 961.6,-163.09 998.86,-391.63"/>
<polygon fill="#deb256" stroke="#deb256" points="995.35,-391.88 1000.41,-401.18 1002.26,-390.75 995.35,-391.88"/>
</g>
<!-- 6669 -->
<g id="node10" class="node">
<title>6669</title>
<text text-anchor="start" x="2219.4" y="-2902.53" font-family="Times,serif" font-size="14.00">Fedora: </text>
<text text-anchor="start" x="2264.4" y="-2902.53" font-family="Times,serif" font-weight="bold" font-size="14.00" fill="#000000">allowed&#45;documentation</text>
</g>
<!-- 6869 -->
<g id="node12" class="node">
<title>6869</title>
<text text-anchor="middle" x="2039.85" y="-2593.96" font-family="Times,serif" font-size="14.00">[&quot;allowed&#45;content&quot;,&quot;allowed&#45;documentation&quot;]</text>
</g>
<!-- 6669&#45;&gt;6869 -->
<g id="edge19" class="edge">
<title>6669&#45;&gt;6869</title>
<path fill="none" stroke="#e09d4b" d="M2286.29,-2888.72C2208.96,-2829.48 2194.06,-2811.08 2059.43,-2625.95"/>
<polygon fill="#e09d4b" stroke="#e09d4b" points="2062.32,-2623.98 2053.61,-2617.95 2056.66,-2628.09 2062.32,-2623.98"/>
</g>
<!-- 6868 -->
<g id="node11" class="node">
<title>6868</title>
<polygon fill="none" stroke="black" points="1859.84,-1311.08 1859.84,-1326 1835.07,-1336.54 1800.04,-1336.54 1775.27,-1326 1775.27,-1311.08 1800.04,-1300.54 1835.07,-1300.54 1859.84,-1311.08"/>
<text text-anchor="middle" x="1817.55" y="-1313.49" font-family="Times,serif" font-size="14.00">CC&#45;BY</text>
</g>
<!-- 6868&#45;&gt;6887 -->
<g id="edge20" class="edge">
<title>6868&#45;&gt;6887</title>
<path fill="none" stroke="#e09d4b" stroke-dasharray="5,2" d="M1799.23,-1336.36C1751.38,-1382.95 1736.28,-1398.63 1624.72,-1516.62"/>
<polygon fill="#e09d4b" stroke="#e09d4b" points="1618.06,-1523.66 1621.66,-1513.3 1620.66,-1520.91 1624.93,-1516.39 1624.93,-1516.39 1624.93,-1516.39 1620.66,-1520.91 1628.2,-1519.48 1618.06,-1523.66"/>
</g>
<!-- 6868&#45;&gt;45993 -->
<g id="edge21" class="edge">
<title>6868&#45;&gt;45993</title>
<path fill="none" stroke="#379469" stroke-dasharray="5,2" d="M1819.91,-1300.12C1850.13,-1063.88 1852.46,-1038.99 1830.27,-942.4"/>
<polygon fill="#379469" stroke="#379469" points="1828.02,-932.72 1834.66,-941.45 1828.87,-936.41 1830.28,-942.46 1830.28,-942.46 1830.28,-942.46 1828.87,-936.41 1825.9,-943.48 1828.02,-932.72"/>
</g>
<!-- 6886 -->
<g id="node14" class="node">
<title>6886</title>
<ellipse fill="none" stroke="#e09d4b" cx="1817.63" cy="-2089.89" rx="160.34" ry="28.99"/>
<text text-anchor="middle" x="1817.63" y="-2093.09" font-family="Times,serif" font-size="14.00" fill="gray">FedoraEntry</text>
<text text-anchor="middle" x="1817.63" y="-2076.59" font-family="Times,serif" font-size="14.00" fill="gray">66504b6399dc9ab2a672140df8a53d13</text>
</g>
<!-- 6869&#45;&gt;6886 -->
<g id="edge22" class="edge">
<title>6869&#45;&gt;6886</title>
<path fill="none" stroke="#e09d4b" d="M2030.84,-2581.38C1966.11,-2454.56 1958.24,-2436.46 1833.69,-2129.49"/>
<polygon fill="#e09d4b" stroke="#e09d4b" points="1836.97,-2128.27 1829.97,-2120.32 1830.49,-2130.9 1836.97,-2128.27"/>
</g>
<!-- 6870 -->
<g id="node13" class="node">
<title>6870</title>
<text text-anchor="start" x="2006.15" y="-2974.77" font-family="Times,serif" font-size="14.00">Fedora: </text>
<text text-anchor="start" x="2051.15" y="-2974.77" font-family="Times,serif" font-weight="bold" font-size="14.00" fill="#000000">allowed&#45;content</text>
</g>
<!-- 6870&#45;&gt;6869 -->
<g id="edge23" class="edge">
<title>6870&#45;&gt;6869</title>
<path fill="none" stroke="#e09d4b" d="M2075.27,-2960.89C2079.84,-2864.93 2078.14,-2848.75 2044.32,-2628.15"/>
<polygon fill="#e09d4b" stroke="#e09d4b" points="2047.78,-2627.65 2042.81,-2618.29 2040.86,-2628.71 2047.78,-2627.65"/>
</g>
<!-- 6886&#45;&gt;6887 -->
<g id="edge24" class="edge">
<title>6886&#45;&gt;6887</title>
<path fill="none" stroke="#e09d4b" d="M1800.87,-2060.7C1729.61,-1936.15 1719.69,-1909.73 1607.34,-1580.11"/>
<polygon fill="#e09d4b" stroke="#e09d4b" points="1610.67,-1579.03 1604.13,-1570.7 1604.04,-1581.29 1610.67,-1579.03"/>
</g>
<!-- 6888 -->
<g id="node16" class="node">
<title>6888</title>
<polygon fill="none" stroke="#e09d4b" points="2256.08,-1863.61 2256.08,-1878.53 2119.03,-1889.07 1925.21,-1889.07 1788.16,-1878.53 1788.16,-1863.61 1925.21,-1853.07 2119.03,-1853.07 2256.08,-1863.61"/>
<text text-anchor="middle" x="2022.12" y="-1866.02" font-family="Times,serif" font-size="14.00">Creative Commons Attribution license 3.0 Netherlands</text>
</g>
<!-- 6888&#45;&gt;6887 -->
<g id="edge25" class="edge">
<title>6888&#45;&gt;6887</title>
<path fill="none" stroke="#e09d4b" stroke-dasharray="5,2" d="M1986.95,-1852.74C1877.25,-1795.1 1852.33,-1774.77 1629.64,-1576.83"/>
<polygon fill="#e09d4b" stroke="#e09d4b" points="1622.2,-1570.22 1632.67,-1573.5 1625.03,-1572.73 1629.68,-1576.87 1629.68,-1576.87 1629.68,-1576.87 1625.03,-1572.73 1626.69,-1580.23 1622.2,-1570.22"/>
</g>
<!-- 14839&#45;&gt;14840 -->
<g id="edge26" class="edge">
<title>14839&#45;&gt;14840</title>
<path fill="none" stroke="#deb256" d="M1035.94,-460.85C1126.86,-546.96 1147.67,-573.67 1334.66,-826.23"/>
<polygon fill="#deb256" stroke="#deb256" points="1331.72,-828.14 1340.49,-834.1 1337.35,-823.98 1331.72,-828.14"/>
</g>
<!-- 14840&#45;&gt;930 -->
<g id="edge27" class="edge">
<title>14840&#45;&gt;930</title>
<path fill="none" stroke="#00876c" stroke-width="2" d="M1344.54,-879.71C1316.03,-937.69 1250.52,-1093.74 1224.48,-1165.08"/>
<polygon fill="#00876c" stroke="#00876c" stroke-width="2" points="1221.61,-1173.08 1220.75,-1162.15 1222.01,-1170.5 1224.52,-1163.5 1224.99,-1163.66 1225.46,-1163.83 1222.95,-1170.83 1229.22,-1165.18 1221.61,-1173.08"/>
</g>
<!-- 14840&#45;&gt;45993 -->
<g id="edge28" class="edge">
<title>14840&#45;&gt;45993</title>
<path fill="none" stroke="#379469" stroke-dasharray="5,2" d="M1420.52,-838.79C1568.62,-795.88 1600.83,-800.95 1766.72,-881.73"/>
<polygon fill="#379469" stroke="#379469" points="1775.7,-886.11 1764.74,-885.77 1772.31,-884.45 1766.72,-881.72 1766.72,-881.72 1766.72,-881.72 1772.31,-884.45 1768.69,-877.68 1775.7,-886.11"/>
</g>
<!-- 14841 -->
<g id="node19" class="node">
<title>14841</title>
<text text-anchor="middle" x="809.89" y="-128.01" font-family="Times,serif" font-size="14.00">$TEXT</text>
</g>
<!-- 14841&#45;&gt;14839 -->
<g id="edge29" class="edge">
<title>14841&#45;&gt;14839</title>
<path fill="none" stroke="#deb256" d="M822.15,-150.98C867.73,-217.6 878.77,-234.5 980.58,-393.31"/>
<polygon fill="#deb256" stroke="#deb256" points="977.62,-395.17 985.96,-401.7 983.51,-391.39 977.62,-395.17"/>
</g>
<!-- 35432 -->
<g id="node20" class="node">
<title>35432</title>
<text text-anchor="middle" x="266.2" y="-1911.97" font-family="Times,serif" font-size="14.00">LicenseTag (ScopedLicenseTag &quot;OrtLicenseCategorization&quot; &quot;permissive&quot; NoLicenseTagText)</text>
</g>
<!-- 35550 -->
<g id="node22" class="node">
<title>35550</title>
<ellipse fill="none" stroke="#d43d51" cx="821.01" cy="-1604.13" rx="157.68" ry="28.99"/>
<text text-anchor="middle" x="821.01" y="-1607.33" font-family="Times,serif" font-size="14.00" fill="gray">OrtLicenseCategorization</text>
<text text-anchor="middle" x="821.01" y="-1590.83" font-family="Times,serif" font-size="14.00" fill="gray">756b6e24a00a161fc9e4ceb77809a3e0</text>
</g>
<!-- 35432&#45;&gt;35550 -->
<g id="edge30" class="edge">
<title>35432&#45;&gt;35550</title>
<path fill="none" stroke="#d43d51" d="M287.64,-1899.28C412.05,-1796.6 436.37,-1782.43 751.68,-1636.24"/>
<polygon fill="#d43d51" stroke="#d43d51" points="753.08,-1639.45 760.68,-1632.07 750.14,-1633.1 753.08,-1639.45"/>
</g>
<!-- 35433 -->
<g id="node21" class="node">
<title>35433</title>
<text text-anchor="middle" x="455.52" y="-2160.39" font-family="Times,serif" font-size="14.00">LicenseTag (ScopedLicenseTag &quot;OrtLicenseCategorization&quot; &quot;include&#45;in&#45;notice&#45;file&quot; NoLicenseTagText)</text>
</g>
<!-- 35433&#45;&gt;35550 -->
<g id="edge31" class="edge">
<title>35433&#45;&gt;35550</title>
<path fill="none" stroke="#d43d51" d="M459.97,-2147.5C511.23,-1940.95 520.56,-1924.97 786.62,-1640.83"/>
<polygon fill="#d43d51" stroke="#d43d51" points="788.85,-1643.57 793.13,-1633.88 783.74,-1638.79 788.85,-1643.57"/>
</g>
<!-- 35550&#45;&gt;930 -->
<g id="edge32" class="edge">
<title>35550&#45;&gt;930</title>
<path fill="none" stroke="#d43d51" d="M832.47,-1574.85C902.13,-1397.64 918.62,-1379.11 1161.08,-1233.22"/>
<polygon fill="#d43d51" stroke="#d43d51" points="1162.85,-1236.23 1169.62,-1228.08 1159.24,-1230.23 1162.85,-1236.23"/>
</g>
<!-- 41250 -->
<g id="node23" class="node">
<title>41250</title>
<ellipse fill="none" stroke="#379469" cx="1310.43" cy="-2034.76" rx="155.56" ry="28.99"/>
<text text-anchor="middle" x="1310.43" y="-2037.96" font-family="Times,serif" font-size="14.00" fill="gray">CavilLicenseChange</text>
<text text-anchor="middle" x="1310.43" y="-2021.46" font-family="Times,serif" font-size="14.00" fill="gray">cadc247a6c5b45ff9e1922c189ac73e9</text>
</g>
<!-- 41250&#45;&gt;41251 -->
<g id="edge33" class="edge">
<title>41250&#45;&gt;41251</title>
<path fill="none" stroke="#379469" d="M1307.61,-2005.32C1296.7,-1887.5 1302.4,-1865.7 1388.17,-1634.88"/>
<polygon fill="#379469" stroke="#379469" points="1391.45,-1636.1 1391.65,-1625.5 1384.89,-1633.66 1391.45,-1636.1"/>
</g>
<!-- 43136 -->
<g id="node25" class="node">
<title>43136</title>
<text text-anchor="start" x="2991.52" y="-1049.67" font-family="Times,serif" font-size="14.00">CoDEStatus: </text>
<text text-anchor="start" x="3065.77" y="-1049.67" font-family="Times,serif" font-weight="bold" font-size="14.00" fill="#228b22">Approved</text>
<text text-anchor="start" x="2844.14" y="-1035.67" font-family="Times,serif" font-size="14.00">Eine Lizenz ist freigegeben, wenn sie nach fachlicher und juristischer Prüfung</text>
<text text-anchor="start" x="2826.14" y="-1021.67" font-family="Times,serif" font-size="14.00">seitens Open CoDE sowohl der Open Source Definition (gemäß Definition der Open</text>
<text text-anchor="start" x="2868.14" y="-1007.67" font-family="Times,serif" font-size="14.00">Source Initiative [extern]) entspricht und darüber hinaus keine für die</text>
<text text-anchor="start" x="2871.14" y="-993.67" font-family="Times,serif" font-size="14.00">Öffentliche Verwaltung erkennbaren Schwierigkeiten birgt. Außer in</text>
<text text-anchor="start" x="2856.14" y="-979.67" font-family="Times,serif" font-size="14.00">Ausnahmefällen ist nicht zu erwarten, dass einmal freigegebene Lizenzen</text>
<text text-anchor="start" x="2996.02" y="-965.67" font-family="Times,serif" font-size="14.00">deklassifiziert werden.</text>
</g>
<!-- 45992 -->
<g id="node26" class="node">
<title>45992</title>
<ellipse fill="none" stroke="#379469" cx="2448.67" cy="-978.35" rx="158.22" ry="28.99"/>
<text text-anchor="middle" x="2448.67" y="-981.55" font-family="Times,serif" font-size="14.00" fill="gray">MetaeffektLicense</text>
<text text-anchor="middle" x="2448.67" y="-965.05" font-family="Times,serif" font-size="14.00" fill="gray">64f97785d8eb88ad24c6e2c4c34b4ead</text>
</g>
<!-- 43136&#45;&gt;45992 -->
<g id="edge34" class="edge">
<title>43136&#45;&gt;45992</title>
<path fill="none" stroke="#379469" d="M2863.73,-959.98C2805.15,-953.7 2733.92,-956.54 2606.11,-966.02"/>
<polygon fill="#379469" stroke="#379469" points="2606.01,-962.52 2596.3,-966.75 2606.53,-969.5 2606.01,-962.52"/>
</g>
<!-- 45992&#45;&gt;45993 -->
<g id="edge35" class="edge">
<title>45992&#45;&gt;45993</title>
<path fill="none" stroke="#379469" d="M2398.68,-950.37C2241.57,-863.4 2198.6,-854.54 1956.32,-889.13"/>
<polygon fill="#379469" stroke="#379469" points="1955.9,-885.66 1946.5,-890.54 1956.9,-892.58 1955.9,-885.66"/>
</g>
<!-- 45994 -->
<g id="node28" class="node">
<title>45994</title>
<polygon fill="none" stroke="#379469" points="2469.68,-675.97 2469.68,-690.88 2384.87,-701.42 2264.94,-701.42 2180.13,-690.88 2180.13,-675.97 2264.94,-665.42 2384.87,-665.42 2469.68,-675.97"/>
<polygon fill="none" stroke="#379469" points="2473.68,-672.43 2473.68,-694.41 2385.12,-705.42 2264.69,-705.42 2176.13,-694.41 2176.13,-672.43 2264.69,-661.42 2385.12,-661.42 2473.68,-672.43"/>
<text text-anchor="middle" x="2324.91" y="-678.37" font-family="Times,serif" font-size="14.00">Creative Commons BY 3.0 (NL)</text>
</g>
<!-- 45994&#45;&gt;45993 -->
<g id="edge36" class="edge">
<title>45994&#45;&gt;45993</title>
<path fill="none" stroke="#379469" stroke-width="2" d="M2203.33,-698.24C2115.75,-715.02 2058,-751.05 1865.11,-880.42"/>
<polygon fill="#379469" stroke="#379469" stroke-width="2" points="1857.85,-885.3 1863.65,-875.99 1859.7,-883.46 1865.87,-879.31 1866.15,-879.73 1866.43,-880.14 1860.26,-884.29 1868.66,-883.46 1857.85,-885.3"/>
</g>
<!-- 45995 -->
<g id="node29" class="node">
<title>45995</title>
<polygon fill="none" stroke="#379469" points="2170.94,-424.8 2170.94,-439.71 2099.12,-450.25 1997.54,-450.25 1925.72,-439.71 1925.72,-424.8 1997.54,-414.25 2099.12,-414.25 2170.94,-424.8"/>
<text text-anchor="middle" x="2048.33" y="-427.2" font-family="Times,serif" font-size="14.00">Attribution 3.0 Netherlands</text>
</g>
<!-- 45995&#45;&gt;45993 -->
<g id="edge37" class="edge">
<title>45995&#45;&gt;45993</title>
<path fill="none" stroke="#379469" stroke-dasharray="5,2" d="M2038.01,-450.52C1971.97,-567.5 1963.68,-585.33 1836.48,-876.86"/>
<polygon fill="#379469" stroke="#379469" points="1832.59,-885.79 1832.46,-874.82 1834.1,-882.32 1836.59,-876.62 1836.59,-876.62 1836.59,-876.62 1834.1,-882.32 1840.71,-878.42 1832.59,-885.79"/>
</g>
<!-- 45996 -->
<g id="node30" class="node">
<title>45996</title>
<polygon fill="none" stroke="#379469" points="1908.93,-416.4 1908.93,-431.31 1849.44,-441.85 1765.3,-441.85 1705.81,-431.31 1705.81,-416.4 1765.3,-405.85 1849.44,-405.85 1908.93,-416.4"/>
<text text-anchor="middle" x="1807.37" y="-418.8" font-family="Times,serif" font-size="14.00">Naamsvermelding 3.0</text>
</g>
<!-- 45996&#45;&gt;45993 -->
<g id="edge38" class="edge">
<title>45996&#45;&gt;45993</title>
<path fill="none" stroke="#379469" stroke-dasharray="5,2" d="M1810.65,-442.08C1833.09,-567.3 1833.45,-584.65 1823.55,-875.93"/>
<polygon fill="#379469" stroke="#379469" points="1823.22,-885.64 1819.06,-875.49 1823.35,-881.86 1823.56,-875.64 1823.56,-875.64 1823.56,-875.64 1823.35,-881.86 1828.06,-875.8 1823.22,-885.64"/>
</g>
<!-- 45997 -->
<g id="node31" class="node">
<title>45997</title>
<polygon fill="none" stroke="#379469" points="2319.45,-907.37 2319.45,-922.28 2276.83,-932.82 2216.56,-932.82 2173.94,-922.28 2173.94,-907.37 2216.56,-896.82 2276.83,-896.82 2319.45,-907.37"/>
<text text-anchor="middle" x="2246.7" y="-909.77" font-family="Times,serif" font-size="14.00">CC BY 3.0 NL</text>
</g>
<!-- 45997&#45;&gt;45993 -->
<g id="edge39" class="edge">
<title>45997&#45;&gt;45993</title>
<path fill="none" stroke="#379469" stroke-dasharray="5,2" d="M2209.49,-898.34C2099.43,-850.22 2068.75,-846.48 1917.54,-884.41"/>
<polygon fill="#379469" stroke="#379469" points="1908.11,-886.79 1916.7,-879.98 1911.78,-885.87 1917.81,-884.35 1917.81,-884.35 1917.81,-884.35 1911.78,-885.87 1918.91,-888.71 1908.11,-886.79"/>
</g>
<!-- 45998 -->
<g id="node32" class="node">
<title>45998</title>
<polygon fill="none" stroke="#379469" points="2479.26,-474.03 2479.26,-488.94 2364.27,-499.49 2201.66,-499.49 2086.67,-488.94 2086.67,-474.03 2201.66,-463.49 2364.27,-463.49 2479.26,-474.03"/>
<text text-anchor="middle" x="2282.97" y="-476.44" font-family="Times,serif" font-size="14.00">http://creativecommons.org/licenses/by/3.0/nl</text>
</g>
<!-- 45998&#45;&gt;45993 -->
<g id="edge40" class="edge">
<title>45998&#45;&gt;45993</title>
<path fill="none" stroke="#379469" stroke-dasharray="5,2" d="M2251.41,-499.97C2112.94,-581.46 2092.05,-602.6 1849.25,-878.58"/>
<polygon fill="#379469" stroke="#379469" points="1842.81,-885.91 1846.04,-875.43 1845.31,-883.07 1849.42,-878.4 1849.42,-878.4 1849.42,-878.4 1845.31,-883.07 1852.79,-881.37 1842.81,-885.91"/>
</g>
<!-- 46000 -->
<g id="node33" class="node">
<title>46000</title>
<polygon fill="none" stroke="#379469" points="2026.1,-837.15 2026.1,-852.06 1908.85,-862.61 1743.02,-862.61 1625.76,-852.06 1625.76,-837.15 1743.02,-826.61 1908.85,-826.61 2026.1,-837.15"/>
<text text-anchor="middle" x="1825.93" y="-839.56" font-family="Times,serif" font-size="14.00">https://creativecommons.org/licenses/by/3.0/nl</text>
</g>
<!-- 46000&#45;&gt;45993 -->
<g id="edge41" class="edge">
<title>46000&#45;&gt;45993</title>
<path fill="none" stroke="#379469" stroke-dasharray="5,2" d="M1826.97,-862.93C1826.92,-866.58 1826.67,-870.61 1826.14,-876.11"/>
<polygon fill="#379469" stroke="#379469" points="1825.13,-885.73 1821.7,-875.32 1825.52,-881.97 1826.18,-875.79 1826.18,-875.79 1826.18,-875.79 1825.52,-881.97 1830.65,-876.26 1825.13,-885.73"/>
</g>
<!-- 66623 -->
<g id="node34" class="node">
<title>66623</title>
<ellipse fill="none" stroke="#00876c" cx="834.85" cy="-1388.83" rx="157.15" ry="28.99"/>
<text text-anchor="middle" x="834.85" y="-1392.03" font-family="Times,serif" font-size="14.00" fill="gray">LicenseLynx</text>
<text text-anchor="middle" x="834.85" y="-1375.53" font-family="Times,serif" font-size="14.00" fill="gray">6e772e612ea7041f69381274ccf70a2d</text>
</g>
<!-- 66623&#45;&gt;930 -->
<g id="edge42" class="edge">
<title>66623&#45;&gt;930</title>
<path fill="none" stroke="#00876c" d="M861.35,-1359.88C934.55,-1280.88 960.65,-1266.12 1125.34,-1223.84"/>
<polygon fill="#00876c" stroke="#00876c" points="1126.1,-1227.25 1134.92,-1221.39 1124.37,-1220.47 1126.1,-1227.25"/>
</g>
<!-- 66624&#45;&gt;930 -->
<g id="edge43" class="edge">
<title>66624&#45;&gt;930</title>
<path fill="none" stroke="#00876c" stroke-width="2" d="M1059.29,-955.74C1083.4,-1022.84 1093.92,-1039.75 1187.86,-1166.51"/>
<polygon fill="#00876c" stroke="#00876c" stroke-width="2" points="1193.02,-1173.46 1183.45,-1168.11 1191.09,-1171.7 1186.66,-1165.73 1187.07,-1165.43 1187.47,-1165.13 1191.9,-1171.1 1190.68,-1162.75 1193.02,-1173.46"/>
</g>
</g>
</svg>
