<?xml version="1.0" encoding="UTF-8" standalone="no"?>
<!DOCTYPE svg PUBLIC "-//W3C//DTD SVG 1.1//EN"
 "http://www.w3.org/Graphics/SVG/1.1/DTD/svg11.dtd">
<!-- Generated by graphviz version 10.0.1 (0)
 -->
<!-- Pages: 1 -->
<svg width="2556pt" height="1664pt"
 viewBox="0.00 0.00 2556.00 1664.00" xmlns="http://www.w3.org/2000/svg" xmlns:xlink="http://www.w3.org/1999/xlink">
<g id="graph0" class="graph" transform="scale(1 1) rotate(0) translate(4 1660)">
<polygon fill="white" stroke="none" points="-4,4 -4,-1660 2552,-1660 2552,4 -4,4"/>
<!-- 5 -->
<g id="node1" class="node">
<title>5</title>
<text text-anchor="start" x="955.83" y="-172.58" font-family="Times,serif" font-size="14.00">OSI: </text>
<text text-anchor="start" x="985.08" y="-172.58" font-family="Times,serif" font-weight="bold" font-size="14.00" fill="#8b0000">Rejected</text>
</g>
<!-- 908 -->
<g id="node2" class="node">
<title>908</title>
<ellipse fill="none" stroke="#dac767" cx="1003.34" cy="-501.15" rx="160.34" ry="28.99"/>
<text text-anchor="middle" x="1003.34" y="-504.35" font-family="Times,serif" font-size="14.00" fill="gray">SPDXLicense</text>
<text text-anchor="middle" x="1003.34" y="-487.85" font-family="Times,serif" font-size="14.00" fill="gray">1cad45dac54eb5bd6192c4d0ed281192</text>
</g>
<!-- 5&#45;&gt;908 -->
<g id="edge1" class="edge">
<title>5&#45;&gt;908</title>
<path fill="none" stroke="#dac767" d="M990.9,-194.46C969.43,-276.83 969.65,-293.22 996.74,-460.56"/>
<polygon fill="#dac767" stroke="#dac767" points="993.26,-461 998.32,-470.31 1000.17,-459.88 993.26,-461"/>
</g>
<!-- 909 -->
<g id="node3" class="node">
<title>909</title>
<polygon fill="none" stroke="black" points="1272.1,-842.49 1272.1,-857.41 1215.53,-867.95 1135.52,-867.95 1078.95,-857.41 1078.95,-842.49 1135.52,-831.95 1215.53,-831.95 1272.1,-842.49"/>
<polygon fill="none" stroke="black" points="1276.1,-839.17 1276.1,-860.73 1215.9,-871.95 1135.15,-871.95 1074.95,-860.73 1074.95,-839.17 1135.15,-827.95 1215.9,-827.95 1276.1,-839.17"/>
<polygon fill="none" stroke="black" points="1280.1,-835.85 1280.1,-864.05 1216.27,-875.95 1134.78,-875.95 1070.95,-864.05 1070.95,-835.85 1134.78,-823.95 1216.27,-823.95 1280.1,-835.85"/>
<text text-anchor="middle" x="1175.53" y="-844.9" font-family="Times,serif" font-size="14.00">spdx:CC&#45;BY&#45;3.0&#45;AU</text>
</g>
<!-- 908&#45;&gt;909 -->
<g id="edge2" class="edge">
<title>908&#45;&gt;909</title>
<path fill="none" stroke="#dac767" d="M1009.53,-530.48C1029.21,-621.63 1040.42,-642.58 1152.15,-814.1"/>
<polygon fill="#dac767" stroke="#dac767" points="1149.2,-815.99 1157.6,-822.45 1155.07,-812.16 1149.2,-815.99"/>
</g>
<!-- 14830 -->
<g id="node12" class="node">
<title>14830</title>
<polygon fill="none" stroke="black" points="1094.78,-714.1 1094.78,-729.01 1034.96,-739.56 950.37,-739.56 890.55,-729.01 890.55,-714.1 950.37,-703.56 1034.96,-703.56 1094.78,-714.1"/>
<polygon fill="none" stroke="black" points="1098.78,-710.75 1098.78,-732.37 1035.31,-743.56 950.02,-743.56 886.55,-732.37 886.55,-710.75 950.02,-699.56 1035.31,-699.56 1098.78,-710.75"/>
<text text-anchor="middle" x="992.67" y="-716.51" font-family="Times,serif" font-size="14.00">scancode:cc&#45;by&#45;3.0&#45;au</text>
</g>
<!-- 909&#45;&gt;14830 -->
<g id="edge3" class="edge">
<title>909&#45;&gt;14830</title>
<path fill="none" stroke="#deb256" stroke-width="2" d="M1147.1,-823.59C1119.44,-802.06 1076.85,-771.86 1043.38,-749.84"/>
<polygon fill="#deb256" stroke="#deb256" stroke-width="2" points="1036.24,-745.19 1047.08,-746.88 1038.66,-746.17 1044.9,-750.23 1044.62,-750.65 1044.35,-751.07 1038.12,-747.01 1042.17,-754.42 1036.24,-745.19"/>
</g>
<!-- 46019 -->
<g id="node20" class="node">
<title>46019</title>
<polygon fill="none" stroke="#379469" points="922.5,-1120.74 922.5,-1135.66 810.11,-1146.2 651.17,-1146.2 538.78,-1135.66 538.78,-1120.74 651.17,-1110.2 810.11,-1110.2 922.5,-1120.74"/>
<polygon fill="none" stroke="#379469" points="926.5,-1117.1 926.5,-1139.3 810.3,-1150.2 650.98,-1150.2 534.78,-1139.3 534.78,-1117.1 650.98,-1106.2 810.3,-1106.2 926.5,-1117.1"/>
<text text-anchor="middle" x="730.64" y="-1123.15" font-family="Times,serif" font-size="14.00">metaeffekt:Creative Commons BY 3.0 (AU)</text>
</g>
<!-- 909&#45;&gt;46019 -->
<g id="edge4" class="edge">
<title>909&#45;&gt;46019</title>
<path fill="none" stroke="#379469" stroke-width="2" d="M1131.83,-875.68C892.28,-1016.76 858.49,-1037.24 770.95,-1099.42"/>
<polygon fill="#379469" stroke="#379469" stroke-width="2" points="764,-1104.37 769.54,-1094.9 765.8,-1102.48 771.86,-1098.16 772.15,-1098.57 772.44,-1098.98 766.38,-1103.29 774.76,-1102.24 764,-1104.37"/>
</g>
<!-- 910 -->
<g id="node4" class="node">
<title>910</title>
<polygon fill="none" stroke="black" points="916.26,-799.48 916.26,-814.39 872.34,-824.93 810.23,-824.93 766.32,-814.39 766.32,-799.48 810.23,-788.93 872.34,-788.93 916.26,-799.48"/>
<polygon fill="none" stroke="black" points="920.26,-796.32 920.26,-817.54 872.81,-828.93 809.76,-828.93 762.32,-817.54 762.32,-796.32 809.76,-784.93 872.81,-784.93 920.26,-796.32"/>
<text text-anchor="middle" x="841.29" y="-801.88" font-family="Times,serif" font-size="14.00">CC&#45;BY&#45;3.0&#45;AU</text>
</g>
<!-- 910&#45;&gt;909 -->
<g id="edge5" class="edge">
<title>910&#45;&gt;909</title>
<path fill="none" stroke="black" stroke-width="2" d="M908.38,-820.85C944.94,-827.6 979.59,-831.71 1059.71,-839.28"/>
<polygon fill="black" stroke="black" stroke-width="2" points="1068.35,-840.09 1057.97,-843.64 1065.75,-840.35 1058.35,-839.66 1058.39,-839.16 1058.44,-838.66 1065.85,-839.36 1058.82,-834.68 1068.35,-840.09"/>
</g>
<!-- 910&#45;&gt;14830 -->
<g id="edge6" class="edge">
<title>910&#45;&gt;14830</title>
<path fill="none" stroke="black" stroke-width="2" d="M860.87,-784.46C877.89,-766.14 890.87,-757.58 924.03,-745.12"/>
<polygon fill="black" stroke="black" stroke-width="2" points="932.18,-742.14 924.33,-749.8 929.94,-743.49 922.96,-746.04 922.78,-745.57 922.61,-745.1 929.6,-742.55 921.24,-741.35 932.18,-742.14"/>
</g>
<!-- 41245 -->
<g id="node18" class="node">
<title>41245</title>
<polygon fill="none" stroke="#379469" points="614.63,-684.76 614.63,-699.67 557.74,-710.22 477.27,-710.22 420.37,-699.67 420.37,-684.76 477.27,-674.22 557.74,-674.22 614.63,-684.76"/>
<polygon fill="none" stroke="#379469" points="618.63,-681.43 618.63,-703 558.1,-714.22 476.9,-714.22 416.37,-703 416.37,-681.43 476.9,-670.22 558.1,-670.22 618.63,-681.43"/>
<text text-anchor="middle" x="517.5" y="-687.17" font-family="Times,serif" font-size="14.00">cavil:CC&#45;BY&#45;3.0&#45;AU</text>
</g>
<!-- 910&#45;&gt;41245 -->
<g id="edge7" class="edge">
<title>910&#45;&gt;41245</title>
<path fill="none" stroke="#379469" stroke-width="2" d="M784.63,-790.58C653.84,-752.73 616.97,-741.09 570.54,-718.96"/>
<polygon fill="#379469" stroke="#379469" stroke-width="2" points="562.64,-715.14 573.6,-715.45 565.16,-715.8 571.85,-719.05 571.64,-719.5 571.42,-719.95 564.73,-716.7 569.67,-723.55 562.64,-715.14"/>
</g>
<!-- 910&#45;&gt;46019 -->
<g id="edge8" class="edge">
<title>910&#45;&gt;46019</title>
<path fill="none" stroke="#379469" stroke-dasharray="5,2" d="M826.39,-829.08C730.05,-972.52 721.82,-990.12 728.37,-1094.85"/>
<polygon fill="#379469" stroke="#379469" points="729.02,-1104.74 723.87,-1095.06 728.77,-1100.97 728.37,-1094.77 728.37,-1094.77 728.37,-1094.77 728.77,-1100.97 732.86,-1094.47 729.02,-1104.74"/>
</g>
<!-- 911 -->
<g id="node5" class="node">
<title>911</title>
<polygon fill="none" stroke="black" points="1677.49,-822.91 1677.49,-837.82 1565.42,-848.37 1406.94,-848.37 1294.87,-837.82 1294.87,-822.91 1406.94,-812.37 1565.42,-812.37 1677.49,-822.91"/>
<polygon fill="none" stroke="black" points="1681.49,-819.27 1681.49,-841.46 1565.61,-852.37 1406.75,-852.37 1290.87,-841.46 1290.87,-819.27 1406.75,-808.37 1565.61,-808.37 1681.49,-819.27"/>
<text text-anchor="middle" x="1486.18" y="-825.32" font-family="Times,serif" font-size="14.00">Creative Commons Attribution 3.0 Australia</text>
</g>
<!-- 911&#45;&gt;909 -->
<g id="edge9" class="edge">
<title>911&#45;&gt;909</title>
<path fill="none" stroke="#dac767" stroke-width="2" d="M1376.06,-849.95C1354.58,-851.29 1328.44,-851.64 1291.12,-851.41"/>
<polygon fill="#dac767" stroke="#dac767" stroke-width="2" points="1282.73,-851.35 1292.76,-846.92 1285.29,-850.87 1292.73,-850.92 1292.73,-851.42 1292.72,-851.92 1285.29,-851.87 1292.69,-855.92 1282.73,-851.35"/>
</g>
<!-- 911&#45;&gt;14830 -->
<g id="edge10" class="edge">
<title>911&#45;&gt;14830</title>
<path fill="none" stroke="#deb256" stroke-width="2" d="M1437.17,-807.95C1243.48,-719.54 1191.35,-699.4 1098,-707.23"/>
<polygon fill="#deb256" stroke="#deb256" stroke-width="2" points="1089.44,-708.03 1098.98,-702.62 1091.95,-707.29 1099.35,-706.6 1099.4,-707.1 1099.44,-707.6 1092.04,-708.29 1099.82,-711.58 1089.44,-708.03"/>
</g>
<!-- 66618 -->
<g id="node28" class="node">
<title>66618</title>
<polygon fill="none" stroke="#00876c" points="1796.02,-875 1796.02,-889.91 1671.29,-900.45 1494.91,-900.45 1370.19,-889.91 1370.19,-875 1494.91,-864.45 1671.29,-864.45 1796.02,-875"/>
<polygon fill="none" stroke="#00876c" points="1800.02,-871.32 1800.02,-893.58 1671.46,-904.45 1494.74,-904.45 1366.19,-893.58 1366.19,-871.32 1494.74,-860.45 1671.46,-860.45 1800.02,-871.32"/>
<text text-anchor="middle" x="1583.1" y="-877.4" font-family="Times,serif" font-size="14.00">spdx:Creative Commons Attribution 3.0 Australia</text>
</g>
<!-- 911&#45;&gt;66618 -->
<g id="edge11" class="edge">
<title>911&#45;&gt;66618</title>
<path fill="none" stroke="#00876c" stroke-width="2" d="M1540.01,-852.76C1541.6,-853.49 1543.1,-854.2 1544.53,-854.89"/>
<polygon fill="#00876c" stroke="#00876c" stroke-width="2" points="1552.05,-858.82 1541.1,-858.17 1549.55,-858.08 1542.96,-854.63 1543.19,-854.18 1543.42,-853.74 1550.01,-857.19 1545.28,-850.2 1552.05,-858.82"/>
</g>
<!-- 912 -->
<g id="node6" class="node">
<title>912</title>
<text text-anchor="middle" x="1191.83" y="-211.37" font-family="Times,serif" font-size="14.00">$TEXT</text>
</g>
<!-- 912&#45;&gt;908 -->
<g id="edge12" class="edge">
<title>912&#45;&gt;908</title>
<path fill="none" stroke="#dac767" d="M1165,-234.3C1080.01,-291.57 1069.08,-309.17 1016.98,-461.16"/>
<polygon fill="#dac767" stroke="#dac767" points="1013.73,-459.83 1013.81,-470.42 1020.36,-462.1 1013.73,-459.83"/>
</g>
<!-- 913 -->
<g id="node7" class="node">
<title>913</title>
<text text-anchor="middle" x="1283.5" y="-55.04" font-family="Times,serif" font-size="14.00">$TEXT</text>
</g>
<!-- 913&#45;&gt;912 -->
<g id="edge13" class="edge">
<title>913&#45;&gt;912</title>
<path fill="none" stroke="#dac767" d="M1263.45,-78.05C1237.68,-102.23 1230.11,-117.32 1202.67,-188.27"/>
<polygon fill="#dac767" stroke="#dac767" points="1199.54,-186.65 1199.2,-197.24 1206.07,-189.17 1199.54,-186.65"/>
</g>
<!-- 914 -->
<g id="node8" class="node">
<title>914</title>
<text text-anchor="middle" x="961.2" y="-551.61" font-family="Times,serif" font-size="14.00">https://creativecommons.org/licenses/by/3.0/au/legalcode</text>
</g>
<!-- 914&#45;&gt;908 -->
<g id="edge14" class="edge">
<title>914&#45;&gt;908</title>
<path fill="none" stroke="#dac767" d="M966.76,-538.75C966.79,-538.65 966.83,-538.54 966.86,-538.44"/>
<polygon fill="#dac767" stroke="#dac767" points="969.26,-541.98 969.54,-531.39 962.72,-539.5 969.26,-541.98"/>
</g>
<!-- 14829 -->
<g id="node11" class="node">
<title>14829</title>
<ellipse fill="none" stroke="#deb256" cx="759.56" cy="-327.94" rx="154.5" ry="28.99"/>
<text text-anchor="middle" x="759.56" y="-331.14" font-family="Times,serif" font-size="14.00" fill="gray">ScancodeData</text>
<text text-anchor="middle" x="759.56" y="-314.64" font-family="Times,serif" font-size="14.00" fill="gray">5b40ecc2fd1901ffdc0b0ebba93fb001</text>
</g>
<!-- 914&#45;&gt;14829 -->
<g id="edge15" class="edge">
<title>914&#45;&gt;14829</title>
<path fill="none" stroke="#deb256" d="M944.42,-538.67C843.25,-430.16 820.26,-405.2 788.85,-365.58"/>
<polygon fill="#deb256" stroke="#deb256" points="791.86,-363.74 782.93,-358.05 786.36,-368.07 791.86,-363.74"/>
</g>
<!-- 5550 -->
<g id="node9" class="node">
<title>5550</title>
<text text-anchor="middle" x="501.82" y="-58.06" font-family="Times,serif" font-size="14.00">LicenseType Permissive</text>
</g>
<!-- 5550&#45;&gt;14829 -->
<g id="edge16" class="edge">
<title>5550&#45;&gt;14829</title>
<path fill="none" stroke="#deb256" d="M518.78,-81.06C574.5,-139.98 590.18,-156.08 723.61,-291.46"/>
<polygon fill="#deb256" stroke="#deb256" points="720.73,-293.53 730.24,-298.19 725.71,-288.61 720.73,-293.53"/>
</g>
<!-- 6868 -->
<g id="node10" class="node">
<title>6868</title>
<polygon fill="none" stroke="black" points="821.37,-1479.57 821.37,-1494.48 796.6,-1505.02 761.56,-1505.02 736.79,-1494.48 736.79,-1479.57 761.56,-1469.02 796.6,-1469.02 821.37,-1479.57"/>
<text text-anchor="middle" x="779.08" y="-1481.97" font-family="Times,serif" font-size="14.00">CC&#45;BY</text>
</g>
<!-- 6868&#45;&gt;46019 -->
<g id="edge17" class="edge">
<title>6868&#45;&gt;46019</title>
<path fill="none" stroke="#379469" stroke-dasharray="5,2" d="M768.29,-1468.83C705.33,-1362.29 703.14,-1347.04 726.41,-1161.66"/>
<polygon fill="#379469" stroke="#379469" points="727.64,-1151.88 730.86,-1162.37 727.17,-1155.63 726.4,-1161.8 726.4,-1161.8 726.4,-1161.8 727.17,-1155.63 721.93,-1161.24 727.64,-1151.88"/>
</g>
<!-- 14829&#45;&gt;14830 -->
<g id="edge18" class="edge">
<title>14829&#45;&gt;14830</title>
<path fill="none" stroke="#deb256" d="M768.68,-357.24C802.73,-465.42 816.14,-486.2 969.29,-690.41"/>
<polygon fill="#deb256" stroke="#deb256" points="966.27,-692.21 975.07,-698.11 971.87,-688.01 966.27,-692.21"/>
</g>
<!-- 14830&#45;&gt;909 -->
<g id="edge19" class="edge">
<title>14830&#45;&gt;909</title>
<path fill="none" stroke="#00876c" stroke-width="2" d="M1016.05,-743.96C1042.22,-764.71 1085.45,-795.56 1120.31,-818.69"/>
<polygon fill="#00876c" stroke="#00876c" stroke-width="2" points="1127.4,-823.36 1116.58,-821.62 1124.99,-822.37 1118.77,-818.28 1119.05,-817.86 1119.32,-817.45 1125.54,-821.53 1121.52,-814.1 1127.4,-823.36"/>
</g>
<!-- 14830&#45;&gt;46019 -->
<g id="edge20" class="edge">
<title>14830&#45;&gt;46019</title>
<path fill="none" stroke="#379469" stroke-dasharray="5,2" d="M970.35,-743.9C780.89,-933.73 767.26,-951.54 737.34,-1095.49"/>
<polygon fill="#379469" stroke="#379469" points="735.4,-1104.88 733.01,-1094.18 736.16,-1101.18 737.42,-1095.09 737.42,-1095.09 737.42,-1095.09 736.16,-1101.18 741.83,-1096 735.4,-1104.88"/>
</g>
<!-- 14831 -->
<g id="node13" class="node">
<title>14831</title>
<text text-anchor="middle" x="686.99" y="-12.46" font-family="Times,serif" font-size="14.00">$TEXT</text>
</g>
<!-- 14831&#45;&gt;14829 -->
<g id="edge21" class="edge">
<title>14831&#45;&gt;14829</title>
<path fill="none" stroke="#deb256" d="M686.2,-35.45C682.8,-118.03 686.26,-133.95 744.51,-288.19"/>
<polygon fill="#deb256" stroke="#deb256" points="741.08,-289.01 747.89,-297.13 747.63,-286.54 741.08,-289.01"/>
</g>
<!-- 35432 -->
<g id="node14" class="node">
<title>35432</title>
<text text-anchor="middle" x="1673.49" y="-552.53" font-family="Times,serif" font-size="14.00">LicenseTag (ScopedLicenseTag &quot;OrtLicenseCategorization&quot; &quot;permissive&quot; NoLicenseTagText)</text>
</g>
<!-- 35547 -->
<g id="node16" class="node">
<title>35547</title>
<ellipse fill="none" stroke="#d43d51" cx="1623.26" cy="-613.37" rx="156.62" ry="28.99"/>
<text text-anchor="middle" x="1623.26" y="-616.57" font-family="Times,serif" font-size="14.00" fill="gray">OrtLicenseCategorization</text>
<text text-anchor="middle" x="1623.26" y="-600.07" font-family="Times,serif" font-size="14.00" fill="gray">efd3de1696449a55a9ed7170f80fb1d1</text>
</g>
<!-- 35432&#45;&gt;35547 -->
<g id="edge22" class="edge">
<title>35432&#45;&gt;35547</title>
<path fill="none" stroke="#d43d51" d="M1661.32,-575.29C1661.1,-575.56 1660.89,-575.82 1660.67,-576.08"/>
<polygon fill="#d43d51" stroke="#d43d51" points="1658.11,-573.69 1653.96,-583.43 1663.28,-578.41 1658.11,-573.69"/>
</g>
<!-- 35433 -->
<g id="node15" class="node">
<title>35433</title>
<text text-anchor="middle" x="2254.28" y="-562.79" font-family="Times,serif" font-size="14.00">LicenseTag (ScopedLicenseTag &quot;OrtLicenseCategorization&quot; &quot;include&#45;in&#45;notice&#45;file&quot; NoLicenseTagText)</text>
</g>
<!-- 35433&#45;&gt;35547 -->
<g id="edge23" class="edge">
<title>35433&#45;&gt;35547</title>
<path fill="none" stroke="#d43d51" d="M1960.42,-565.24C1909.38,-571.16 1845.12,-580.27 1756.94,-593.35"/>
<polygon fill="#d43d51" stroke="#d43d51" points="1756.65,-589.86 1747.28,-594.79 1757.68,-596.78 1756.65,-589.86"/>
</g>
<!-- 35547&#45;&gt;909 -->
<g id="edge24" class="edge">
<title>35547&#45;&gt;909</title>
<path fill="none" stroke="#d43d51" d="M1556.56,-640.02C1476.29,-673.16 1431.59,-698.52 1228.98,-818.32"/>
<polygon fill="#d43d51" stroke="#d43d51" points="1227.34,-815.23 1220.52,-823.33 1230.91,-821.25 1227.34,-815.23"/>
</g>
<!-- 41244 -->
<g id="node17" class="node">
<title>41244</title>
<ellipse fill="none" stroke="#379469" cx="158.1" cy="-561.04" rx="157.68" ry="28.99"/>
<text text-anchor="middle" x="158.1" y="-564.24" font-family="Times,serif" font-size="14.00" fill="gray">CavilLicenseChange</text>
<text text-anchor="middle" x="158.1" y="-547.74" font-family="Times,serif" font-size="14.00" fill="gray">433f3b141d8054a73ddda56a33db7bff</text>
</g>
<!-- 41244&#45;&gt;41245 -->
<g id="edge25" class="edge">
<title>41244&#45;&gt;41245</title>
<path fill="none" stroke="#379469" d="M216.98,-588.39C268.17,-611.24 308.37,-624.97 447.85,-669.85"/>
<polygon fill="#379469" stroke="#379469" points="446.48,-673.08 457.07,-672.81 448.62,-666.42 446.48,-673.08"/>
</g>
<!-- 46018 -->
<g id="node19" class="node">
<title>46018</title>
<ellipse fill="none" stroke="#379469" cx="235.27" cy="-1128.04" rx="155.03" ry="28.99"/>
<text text-anchor="middle" x="235.27" y="-1131.24" font-family="Times,serif" font-size="14.00" fill="gray">MetaeffektLicense</text>
<text text-anchor="middle" x="235.27" y="-1114.74" font-family="Times,serif" font-size="14.00" fill="gray">4a1e4df08a2f19b40deece77a84f9662</text>
</g>
<!-- 46018&#45;&gt;46019 -->
<g id="edge26" class="edge">
<title>46018&#45;&gt;46019</title>
<path fill="none" stroke="#379469" d="M341.26,-1149.54C396.86,-1157.45 448.6,-1155.85 566.1,-1144.77"/>
<polygon fill="#379469" stroke="#379469" points="566.17,-1148.28 575.8,-1143.85 565.51,-1141.31 566.17,-1148.28"/>
</g>
<!-- 46020 -->
<g id="node21" class="node">
<title>46020</title>
<polygon fill="none" stroke="#379469" points="736.48,-1600.94 736.48,-1615.85 651.03,-1626.4 530.18,-1626.4 444.72,-1615.85 444.72,-1600.94 530.18,-1590.4 651.03,-1590.4 736.48,-1600.94"/>
<polygon fill="none" stroke="#379469" points="740.48,-1597.41 740.48,-1619.39 651.27,-1630.4 529.93,-1630.4 440.72,-1619.39 440.72,-1597.41 529.93,-1586.4 651.27,-1586.4 740.48,-1597.41"/>
<text text-anchor="middle" x="590.6" y="-1603.35" font-family="Times,serif" font-size="14.00">Creative Commons BY 3.0 (AU)</text>
</g>
<!-- 46020&#45;&gt;46019 -->
<g id="edge27" class="edge">
<title>46020&#45;&gt;46019</title>
<path fill="none" stroke="#379469" stroke-width="2" d="M589.97,-1585.96C586,-1439.55 591.62,-1421.86 715.5,-1160.17"/>
<polygon fill="#379469" stroke="#379469" stroke-width="2" points="719.1,-1152.56 718.89,-1163.52 718.46,-1155.09 715.28,-1161.81 714.83,-1161.59 714.37,-1161.38 717.56,-1154.66 710.76,-1159.67 719.1,-1152.56"/>
</g>
<!-- 46021 -->
<g id="node22" class="node">
<title>46021</title>
<polygon fill="none" stroke="#379469" points="569.02,-1518.21 569.02,-1533.13 474.8,-1543.67 341.56,-1543.67 247.34,-1533.13 247.34,-1518.21 341.56,-1507.67 474.8,-1507.67 569.02,-1518.21"/>
<text text-anchor="middle" x="408.18" y="-1520.62" font-family="Times,serif" font-size="14.00">Creative Commons BY 3.0 Australia</text>
</g>
<!-- 46021&#45;&gt;46019 -->
<g id="edge28" class="edge">
<title>46021&#45;&gt;46019</title>
<path fill="none" stroke="#379469" stroke-dasharray="5,2" d="M418.42,-1507.29C483.46,-1390.79 496.08,-1375.43 701.68,-1158.72"/>
<polygon fill="#379469" stroke="#379469" points="708.55,-1151.48 704.94,-1161.83 705.95,-1154.22 701.67,-1158.73 701.67,-1158.73 701.67,-1158.73 705.95,-1154.22 698.41,-1155.63 708.55,-1151.48"/>
</g>
<!-- 46022 -->
<g id="node23" class="node">
<title>46022</title>
<polygon fill="none" stroke="#379469" points="916.55,-1182.01 916.55,-1196.92 873.6,-1207.46 812.87,-1207.46 769.93,-1196.92 769.93,-1182.01 812.87,-1171.46 873.6,-1171.46 916.55,-1182.01"/>
<text text-anchor="middle" x="843.24" y="-1184.41" font-family="Times,serif" font-size="14.00">CC BY 3.0 AU</text>
</g>
<!-- 46022&#45;&gt;46019 -->
<g id="edge29" class="edge">
<title>46022&#45;&gt;46019</title>
<path fill="none" stroke="#379469" stroke-dasharray="5,2" d="M788.92,-1176.85C774.06,-1172.28 765.09,-1167.23 755.98,-1158.41"/>
<polygon fill="#379469" stroke="#379469" points="749.36,-1151.35 759.48,-1155.57 751.94,-1154.11 756.2,-1158.65 756.2,-1158.65 756.2,-1158.65 751.94,-1154.11 752.92,-1161.73 749.36,-1151.35"/>
</g>
<!-- 46023 -->
<g id="node24" class="node">
<title>46023</title>
<polygon fill="none" stroke="#379469" points="450.8,-1333.13 450.8,-1348.04 386.11,-1358.59 294.63,-1358.59 229.95,-1348.04 229.95,-1333.13 294.63,-1322.59 386.11,-1322.59 450.8,-1333.13"/>
<text text-anchor="middle" x="340.37" y="-1335.54" font-family="Times,serif" font-size="14.00">Attribution 3.0 Australia</text>
</g>
<!-- 46023&#45;&gt;46019 -->
<g id="edge30" class="edge">
<title>46023&#45;&gt;46019</title>
<path fill="none" stroke="#379469" stroke-dasharray="5,2" d="M374.59,-1322.1C454.4,-1278.97 482.76,-1263.53 679.85,-1155.93"/>
<polygon fill="#379469" stroke="#379469" points="688.6,-1151.15 681.98,-1159.89 685.29,-1152.96 679.83,-1155.94 679.83,-1155.94 679.83,-1155.94 685.29,-1152.96 677.67,-1151.99 688.6,-1151.15"/>
</g>
<!-- 46024 -->
<g id="node25" class="node">
<title>46024</title>
<polygon fill="none" stroke="#379469" points="680.72,-1176.37 680.72,-1191.28 564.76,-1201.82 400.77,-1201.82 284.81,-1191.28 284.81,-1176.37 400.77,-1165.82 564.76,-1165.82 680.72,-1176.37"/>
<text text-anchor="middle" x="482.76" y="-1178.77" font-family="Times,serif" font-size="14.00">http://creativecommons.org/licenses/by/3.0/au</text>
</g>
<!-- 46024&#45;&gt;46019 -->
<g id="edge31" class="edge">
<title>46024&#45;&gt;46019</title>
<path fill="none" stroke="#379469" stroke-dasharray="5,2" d="M592.63,-1167.94C606.61,-1164.35 623.13,-1159.74 643.9,-1153.73"/>
<polygon fill="#379469" stroke="#379469" points="653.28,-1151.01 644.93,-1158.12 649.65,-1152.06 643.67,-1153.8 643.67,-1153.8 643.67,-1153.8 649.65,-1152.06 642.42,-1149.48 653.28,-1151.01"/>
</g>
<!-- 46026 -->
<g id="node26" class="node">
<title>46026</title>
<polygon fill="none" stroke="#379469" points="1162.41,-1630.45 1162.41,-1645.36 1044.18,-1655.91 876.98,-1655.91 758.75,-1645.36 758.75,-1630.45 876.98,-1619.91 1044.18,-1619.91 1162.41,-1630.45"/>
<text text-anchor="middle" x="960.58" y="-1632.86" font-family="Times,serif" font-size="14.00">https://creativecommons.org/licenses/by/3.0/au</text>
</g>
<!-- 46026&#45;&gt;46019 -->
<g id="edge32" class="edge">
<title>46026&#45;&gt;46019</title>
<path fill="none" stroke="#379469" stroke-dasharray="5,2" d="M940.42,-1619.6C782.83,-1476.2 775.82,-1459.53 735.13,-1161.18"/>
<polygon fill="#379469" stroke="#379469" points="733.83,-1151.65 739.64,-1160.95 734.34,-1155.4 735.18,-1161.56 735.18,-1161.56 735.18,-1161.56 734.34,-1155.4 730.72,-1162.17 733.83,-1151.65"/>
</g>
<!-- 66617 -->
<g id="node27" class="node">
<title>66617</title>
<ellipse fill="none" stroke="#00876c" cx="1438.05" cy="-1152.57" rx="159.28" ry="28.99"/>
<text text-anchor="middle" x="1438.05" y="-1155.77" font-family="Times,serif" font-size="14.00" fill="gray">LicenseLynx</text>
<text text-anchor="middle" x="1438.05" y="-1139.27" font-family="Times,serif" font-size="14.00" fill="gray">c13093b0d16cc8477f3d3178236f12d6</text>
</g>
<!-- 66617&#45;&gt;909 -->
<g id="edge33" class="edge">
<title>66617&#45;&gt;909</title>
<path fill="none" stroke="#00876c" d="M1393.58,-1124.39C1323.36,-1078.21 1302.85,-1050.06 1198.24,-885.68"/>
<polygon fill="#00876c" stroke="#00876c" points="1201.35,-884.05 1193.03,-877.49 1195.44,-887.8 1201.35,-884.05"/>
</g>
<!-- 66618&#45;&gt;909 -->
<g id="edge34" class="edge">
<title>66618&#45;&gt;909</title>
<path fill="none" stroke="#00876c" stroke-width="2" d="M1365.86,-878.98C1343.29,-875.88 1317.04,-871.98 1285.65,-867.16"/>
<polygon fill="#00876c" stroke="#00876c" stroke-width="2" points="1277.21,-865.86 1287.78,-862.93 1279.82,-865.75 1287.17,-866.88 1287.09,-867.38 1287.02,-867.87 1279.67,-866.74 1286.41,-871.83 1277.21,-865.86"/>
</g>
</g>
</svg>
