<?xml version="1.0" encoding="UTF-8" standalone="no"?>
<!DOCTYPE svg PUBLIC "-//W3C//DTD SVG 1.1//EN"
 "http://www.w3.org/Graphics/SVG/1.1/DTD/svg11.dtd">
<!-- Generated by graphviz version 10.0.1 (0)
 -->
<!-- Pages: 1 -->
<svg width="2573pt" height="1834pt"
 viewBox="0.00 0.00 2573.00 1834.00" xmlns="http://www.w3.org/2000/svg" xmlns:xlink="http://www.w3.org/1999/xlink">
<g id="graph0" class="graph" transform="scale(1 1) rotate(0) translate(4 1830)">
<polygon fill="white" stroke="none" points="-4,4 -4,-1830 2569,-1830 2569,4 -4,4"/>
<!-- 5 -->
<g id="node1" class="node">
<title>5</title>
<text text-anchor="start" x="1509.23" y="-118.59" font-family="Times,serif" font-size="14.00">OSI: </text>
<text text-anchor="start" x="1538.48" y="-118.59" font-family="Times,serif" font-weight="bold" font-size="14.00" fill="#8b0000">Rejected</text>
</g>
<!-- 1356 -->
<g id="node2" class="node">
<title>1356</title>
<ellipse fill="none" stroke="#dac767" cx="1536.18" cy="-492.96" rx="159.81" ry="28.99"/>
<text text-anchor="middle" x="1536.18" y="-496.16" font-family="Times,serif" font-size="14.00" fill="gray">SPDXLicense</text>
<text text-anchor="middle" x="1536.18" y="-479.66" font-family="Times,serif" font-size="14.00" fill="gray">4bc2ef27608de69114510c4d023d57c9</text>
</g>
<!-- 5&#45;&gt;1356 -->
<g id="edge1" class="edge">
<title>5&#45;&gt;1356</title>
<path fill="none" stroke="#dac767" d="M1552.46,-140.55C1570.58,-234.47 1570.07,-251.47 1541.9,-452.34"/>
<polygon fill="#dac767" stroke="#dac767" points="1538.45,-451.73 1540.52,-462.12 1545.38,-452.7 1538.45,-451.73"/>
</g>
<!-- 1357 -->
<g id="node3" class="node">
<title>1357</title>
<polygon fill="none" stroke="black" points="1255.89,-891.13 1255.89,-906.04 1197.37,-916.58 1114.61,-916.58 1056.08,-906.04 1056.08,-891.13 1114.61,-880.58 1197.37,-880.58 1255.89,-891.13"/>
<polygon fill="none" stroke="black" points="1259.89,-887.78 1259.89,-909.38 1197.72,-920.58 1114.25,-920.58 1052.08,-909.38 1052.08,-887.78 1114.25,-876.58 1197.72,-876.58 1259.89,-887.78"/>
<polygon fill="none" stroke="black" points="1263.89,-884.44 1263.89,-912.73 1198.08,-924.58 1113.89,-924.58 1048.08,-912.73 1048.08,-884.44 1113.89,-872.58 1198.08,-872.58 1263.89,-884.44"/>
<text text-anchor="middle" x="1155.99" y="-893.53" font-family="Times,serif" font-size="14.00">spdx:CERN&#45;OHL&#45;1.1</text>
</g>
<!-- 1356&#45;&gt;1357 -->
<g id="edge2" class="edge">
<title>1356&#45;&gt;1357</title>
<path fill="none" stroke="#dac767" d="M1490.02,-521.1C1379.9,-589.44 1355.62,-619.58 1181.35,-863.12"/>
<polygon fill="#dac767" stroke="#dac767" points="1178.67,-860.85 1175.7,-871.02 1184.36,-864.92 1178.67,-860.85"/>
</g>
<!-- 15310 -->
<g id="node11" class="node">
<title>15310</title>
<polygon fill="none" stroke="black" points="1432.46,-1139.08 1432.46,-1153.99 1373.61,-1164.54 1290.39,-1164.54 1231.55,-1153.99 1231.55,-1139.08 1290.39,-1128.54 1373.61,-1128.54 1432.46,-1139.08"/>
<polygon fill="none" stroke="black" points="1436.46,-1135.74 1436.46,-1157.34 1373.97,-1168.54 1290.04,-1168.54 1227.55,-1157.34 1227.55,-1135.74 1290.04,-1124.54 1373.97,-1124.54 1436.46,-1135.74"/>
<text text-anchor="middle" x="1332" y="-1141.49" font-family="Times,serif" font-size="14.00">scancode:cern&#45;ohl&#45;1.1</text>
</g>
<!-- 1357&#45;&gt;15310 -->
<g id="edge3" class="edge">
<title>1357&#45;&gt;15310</title>
<path fill="none" stroke="#deb256" stroke-width="2" d="M1169.46,-924.78C1198.27,-970.91 1265.68,-1066.23 1304.11,-1115.55"/>
<polygon fill="#deb256" stroke="#deb256" stroke-width="2" points="1309.42,-1122.28 1299.69,-1117.22 1307.44,-1120.58 1302.83,-1114.74 1303.23,-1114.43 1303.62,-1114.12 1308.22,-1119.96 1306.76,-1111.64 1309.42,-1122.28"/>
</g>
<!-- 46701 -->
<g id="node23" class="node">
<title>46701</title>
<polygon fill="none" stroke="#379469" points="983.18,-1242.22 983.18,-1257.14 865.93,-1267.68 700.1,-1267.68 582.84,-1257.14 582.84,-1242.22 700.1,-1231.68 865.93,-1231.68 983.18,-1242.22"/>
<polygon fill="none" stroke="#379469" points="987.18,-1238.57 987.18,-1260.79 866.1,-1271.68 699.92,-1271.68 578.84,-1260.79 578.84,-1238.57 699.92,-1227.68 866.1,-1227.68 987.18,-1238.57"/>
<text text-anchor="middle" x="783.01" y="-1244.63" font-family="Times,serif" font-size="14.00">metaeffekt:CERN Open Hardware License 1.1</text>
</g>
<!-- 1357&#45;&gt;46701 -->
<g id="edge4" class="edge">
<title>1357&#45;&gt;46701</title>
<path fill="none" stroke="#379469" stroke-width="2" d="M1123.21,-924.85C900.75,-1103.2 877.23,-1123.75 806.26,-1218.43"/>
<polygon fill="#379469" stroke="#379469" stroke-width="2" points="801.16,-1225.26 803.54,-1214.56 802.29,-1222.91 806.74,-1216.95 807.14,-1217.25 807.54,-1217.55 803.09,-1223.51 810.75,-1219.95 801.16,-1225.26"/>
</g>
<!-- 1358 -->
<g id="node4" class="node">
<title>1358</title>
<polygon fill="none" stroke="black" points="1188.24,-1237.58 1188.24,-1252.49 1142.38,-1263.03 1077.51,-1263.03 1031.65,-1252.49 1031.65,-1237.58 1077.51,-1227.03 1142.38,-1227.03 1188.24,-1237.58"/>
<polygon fill="none" stroke="black" points="1192.24,-1234.39 1192.24,-1255.67 1142.83,-1267.03 1077.06,-1267.03 1027.65,-1255.67 1027.65,-1234.39 1077.06,-1223.03 1142.83,-1223.03 1192.24,-1234.39"/>
<text text-anchor="middle" x="1109.94" y="-1239.98" font-family="Times,serif" font-size="14.00">CERN&#45;OHL&#45;1.1</text>
</g>
<!-- 1358&#45;&gt;1357 -->
<g id="edge5" class="edge">
<title>1358&#45;&gt;1357</title>
<path fill="none" stroke="black" stroke-width="2" d="M1105.45,-1222.81C1086.59,-1128.04 1089.18,-1110.27 1144.32,-935.46"/>
<polygon fill="black" stroke="black" stroke-width="2" points="1146.95,-927.15 1148.23,-938.04 1146.65,-929.75 1144.41,-936.84 1143.94,-936.69 1143.46,-936.54 1145.7,-929.45 1139.65,-935.33 1146.95,-927.15"/>
</g>
<!-- 1358&#45;&gt;15310 -->
<g id="edge6" class="edge">
<title>1358&#45;&gt;15310</title>
<path fill="none" stroke="black" stroke-width="2" d="M1192.46,-1238.59C1221.35,-1231.27 1245.67,-1214.72 1295.26,-1175.71"/>
<polygon fill="black" stroke="black" stroke-width="2" points="1301.87,-1170.49 1296.81,-1180.22 1300.17,-1172.47 1294.33,-1177.08 1294.02,-1176.68 1293.71,-1176.29 1299.55,-1171.68 1291.24,-1173.15 1301.87,-1170.49"/>
</g>
<!-- 34731 -->
<g id="node16" class="node">
<title>34731</title>
<polygon fill="none" stroke="#e18745" points="1392.24,-1411.55 1392.24,-1426.46 1322.04,-1437.01 1222.76,-1437.01 1152.56,-1426.46 1152.56,-1411.55 1222.76,-1401.01 1322.04,-1401.01 1392.24,-1411.55"/>
<polygon fill="none" stroke="#e18745" points="1396.24,-1408.11 1396.24,-1429.91 1322.34,-1441.01 1222.46,-1441.01 1148.56,-1429.91 1148.56,-1408.11 1222.46,-1397.01 1322.34,-1397.01 1396.24,-1408.11"/>
<text text-anchor="middle" x="1272.4" y="-1413.96" font-family="Times,serif" font-size="14.00">fossology:CERN&#45;OHL&#45;1.1</text>
</g>
<!-- 1358&#45;&gt;34731 -->
<g id="edge7" class="edge">
<title>1358&#45;&gt;34731</title>
<path fill="none" stroke="#e18745" stroke-width="2" d="M1121.93,-1267.51C1164.09,-1346.37 1178.92,-1370.43 1214.65,-1391.34"/>
<polygon fill="#e18745" stroke="#e18745" stroke-width="2" points="1222.08,-1395.44 1211.15,-1394.55 1219.6,-1394.64 1213.08,-1391.05 1213.33,-1390.61 1213.57,-1390.17 1220.08,-1393.77 1215.5,-1386.67 1222.08,-1395.44"/>
</g>
<!-- 41372 -->
<g id="node21" class="node">
<title>41372</title>
<polygon fill="none" stroke="#379469" points="916.55,-1400.51 916.55,-1415.42 857.7,-1425.97 774.48,-1425.97 715.64,-1415.42 715.64,-1400.51 774.48,-1389.97 857.7,-1389.97 916.55,-1400.51"/>
<polygon fill="none" stroke="#379469" points="920.55,-1397.17 920.55,-1418.77 858.06,-1429.97 774.13,-1429.97 711.64,-1418.77 711.64,-1397.17 774.13,-1385.97 858.06,-1385.97 920.55,-1397.17"/>
<text text-anchor="middle" x="816.09" y="-1402.92" font-family="Times,serif" font-size="14.00">cavil:CERN&#45;OHL&#45;1.1</text>
</g>
<!-- 1358&#45;&gt;41372 -->
<g id="edge8" class="edge">
<title>1358&#45;&gt;41372</title>
<path fill="none" stroke="#379469" stroke-width="2" d="M1078.77,-1267.35C971.67,-1343.94 934.83,-1369.08 890.71,-1385.74"/>
<polygon fill="#379469" stroke="#379469" stroke-width="2" points="882.53,-1388.68 890.42,-1381.07 884.77,-1387.34 891.77,-1384.83 891.94,-1385.3 892.11,-1385.77 885.11,-1388.29 893.46,-1389.54 882.53,-1388.68"/>
</g>
<!-- 1358&#45;&gt;46701 -->
<g id="edge9" class="edge">
<title>1358&#45;&gt;46701</title>
<path fill="none" stroke="#379469" stroke-dasharray="5,2" d="M1044.78,-1259.97C942.12,-1283.08 905.6,-1287.75 857.14,-1275.09"/>
<polygon fill="#379469" stroke="#379469" points="847.76,-1272.45 858.61,-1270.83 851.41,-1273.48 857.39,-1275.16 857.39,-1275.16 857.39,-1275.16 851.41,-1273.48 856.17,-1279.49 847.76,-1272.45"/>
</g>
<!-- 1359 -->
<g id="node5" class="node">
<title>1359</title>
<polygon fill="none" stroke="black" points="1290.03,-830.38 1290.03,-845.29 1196.46,-855.84 1064.14,-855.84 970.57,-845.29 970.57,-830.38 1064.14,-819.84 1196.46,-819.84 1290.03,-830.38"/>
<polygon fill="none" stroke="black" points="1294.03,-826.81 1294.03,-848.87 1196.69,-859.84 1063.91,-859.84 966.57,-848.87 966.57,-826.81 1063.91,-815.84 1196.69,-815.84 1294.03,-826.81"/>
<text text-anchor="middle" x="1130.3" y="-832.79" font-family="Times,serif" font-size="14.00">CERN Open Hardware Licence v1.1</text>
</g>
<!-- 1359&#45;&gt;1357 -->
<g id="edge10" class="edge">
<title>1359&#45;&gt;1357</title>
<path fill="none" stroke="#dac767" stroke-width="2" d="M1132.04,-860.26C1132.19,-860.86 1132.36,-861.45 1132.55,-862.03"/>
<polygon fill="#dac767" stroke="#dac767" stroke-width="2" points="1136.28,-869.92 1127.94,-862.8 1134.73,-867.81 1131.55,-861.09 1132.01,-860.88 1132.46,-860.66 1135.64,-867.39 1136.07,-858.95 1136.28,-869.92"/>
</g>
<!-- 66831 -->
<g id="node29" class="node">
<title>66831</title>
<polygon fill="none" stroke="#00876c" points="1288.62,-429.98 1288.62,-444.9 1182.39,-455.44 1032.17,-455.44 925.95,-444.9 925.95,-429.98 1032.17,-419.44 1182.39,-419.44 1288.62,-429.98"/>
<polygon fill="none" stroke="#00876c" points="1292.62,-426.36 1292.62,-448.52 1182.59,-459.44 1031.97,-459.44 921.95,-448.52 921.95,-426.36 1031.97,-415.44 1182.59,-415.44 1292.62,-426.36"/>
<text text-anchor="middle" x="1107.28" y="-432.39" font-family="Times,serif" font-size="14.00">spdx:CERN Open Hardware Licence v1.1</text>
</g>
<!-- 1359&#45;&gt;66831 -->
<g id="edge11" class="edge">
<title>1359&#45;&gt;66831</title>
<path fill="none" stroke="#00876c" stroke-width="2" d="M1125.97,-815.61C1082.38,-591.93 1078.92,-567.83 1099.92,-470.59"/>
<polygon fill="#00876c" stroke="#00876c" stroke-width="2" points="1101.79,-462.04 1104.05,-472.77 1101.73,-464.65 1100.14,-471.91 1099.66,-471.81 1099.17,-471.7 1100.76,-464.43 1095.26,-470.84 1101.79,-462.04"/>
</g>
<!-- 1360 -->
<g id="node6" class="node">
<title>1360</title>
<text text-anchor="middle" x="1800.18" y="-182.18" font-family="Times,serif" font-size="14.00">$TEXT</text>
</g>
<!-- 1360&#45;&gt;1356 -->
<g id="edge12" class="edge">
<title>1360&#45;&gt;1356</title>
<path fill="none" stroke="#dac767" d="M1782.16,-205.05C1716.93,-269.72 1702.01,-287.16 1566.75,-455.02"/>
<polygon fill="#dac767" stroke="#dac767" points="1564.08,-452.75 1560.53,-462.73 1569.53,-457.14 1564.08,-452.75"/>
</g>
<!-- 1361 -->
<g id="node7" class="node">
<title>1361</title>
<text text-anchor="middle" x="1934.84" y="-13.05" font-family="Times,serif" font-size="14.00">$TEXT</text>
</g>
<!-- 1361&#45;&gt;1360 -->
<g id="edge13" class="edge">
<title>1361&#45;&gt;1360</title>
<path fill="none" stroke="#dac767" d="M1919.62,-36.07C1893.76,-66.69 1882.35,-81.15 1820.89,-160.49"/>
<polygon fill="#dac767" stroke="#dac767" points="1818.25,-158.18 1814.89,-168.23 1823.78,-162.47 1818.25,-158.18"/>
</g>
<!-- 1362 -->
<g id="node8" class="node">
<title>1362</title>
<text text-anchor="middle" x="1596.68" y="-1003.6" font-family="Times,serif" font-size="14.00">https://www.ohwr.org/project/licenses/wikis/cern&#45;ohl&#45;v1.1</text>
</g>
<!-- 1362&#45;&gt;1356 -->
<g id="edge14" class="edge">
<title>1362&#45;&gt;1356</title>
<path fill="none" stroke="#dac767" d="M1600.12,-990.87C1652.72,-719.02 1654.29,-697.12 1558.66,-531.58"/>
<polygon fill="#dac767" stroke="#dac767" points="1561.93,-530.24 1553.89,-523.35 1555.87,-533.75 1561.93,-530.24"/>
</g>
<!-- 15309 -->
<g id="node10" class="node">
<title>15309</title>
<ellipse fill="none" stroke="#deb256" cx="1916.66" cy="-1087.08" rx="159.81" ry="28.99"/>
<text text-anchor="middle" x="1916.66" y="-1090.28" font-family="Times,serif" font-size="14.00" fill="gray">ScancodeData</text>
<text text-anchor="middle" x="1916.66" y="-1073.78" font-family="Times,serif" font-size="14.00" fill="gray">93e433907bf0b434b32c78bf23522404</text>
</g>
<!-- 1362&#45;&gt;15309 -->
<g id="edge15" class="edge">
<title>1362&#45;&gt;15309</title>
<path fill="none" stroke="#deb256" d="M1666.77,-1026.6C1734.28,-1043.88 1774.22,-1054.04 1804.9,-1061.55"/>
<polygon fill="#deb256" stroke="#deb256" points="1803.8,-1064.89 1814.35,-1063.85 1805.46,-1058.09 1803.8,-1064.89"/>
</g>
<!-- 34730 -->
<g id="node15" class="node">
<title>34730</title>
<ellipse fill="none" stroke="#e18745" cx="1588.78" cy="-1086.23" rx="159.28" ry="28.99"/>
<text text-anchor="middle" x="1588.78" y="-1089.43" font-family="Times,serif" font-size="14.00" fill="gray">Fossology</text>
<text text-anchor="middle" x="1588.78" y="-1072.93" font-family="Times,serif" font-size="14.00" fill="gray">b458de1360f3edca76821abb88d89bc7</text>
</g>
<!-- 1362&#45;&gt;34730 -->
<g id="edge16" class="edge">
<title>1362&#45;&gt;34730</title>
<path fill="none" stroke="#e18745" d="M1600.66,-1026.35C1602.39,-1034.49 1603.42,-1040.61 1603.63,-1045.89"/>
<polygon fill="#e18745" stroke="#e18745" points="1600.16,-1045.41 1602.72,-1055.69 1607.13,-1046.06 1600.16,-1045.41"/>
</g>
<!-- 5550 -->
<g id="node9" class="node">
<title>5550</title>
<text text-anchor="middle" x="2327.79" y="-1015.47" font-family="Times,serif" font-size="14.00">LicenseType Permissive</text>
</g>
<!-- 5550&#45;&gt;15309 -->
<g id="edge17" class="edge">
<title>5550&#45;&gt;15309</title>
<path fill="none" stroke="#deb256" d="M2279.93,-1038.48C2220.76,-1059.83 2185.47,-1067.02 2077.68,-1075.66"/>
<polygon fill="#deb256" stroke="#deb256" points="2077.52,-1072.16 2067.82,-1076.43 2078.07,-1079.14 2077.52,-1072.16"/>
</g>
<!-- 15309&#45;&gt;15310 -->
<g id="edge18" class="edge">
<title>15309&#45;&gt;15310</title>
<path fill="none" stroke="#deb256" d="M1857.69,-1114.47C1737.18,-1168.91 1691.7,-1173.28 1447.98,-1155.38"/>
<polygon fill="#deb256" stroke="#deb256" points="1448.34,-1151.9 1438.11,-1154.65 1447.82,-1158.88 1448.34,-1151.9"/>
</g>
<!-- 15310&#45;&gt;1357 -->
<g id="edge19" class="edge">
<title>15310&#45;&gt;1357</title>
<path fill="none" stroke="#00876c" stroke-width="2" d="M1321.06,-1124.42C1294.53,-1081.17 1226.95,-985.32 1186.89,-933.46"/>
<polygon fill="#00876c" stroke="#00876c" stroke-width="2" points="1181.73,-926.84 1191.43,-931.96 1183.7,-928.55 1188.27,-934.42 1187.88,-934.72 1187.49,-935.03 1182.91,-929.17 1184.33,-937.49 1181.73,-926.84"/>
</g>
<!-- 15310&#45;&gt;46701 -->
<g id="edge20" class="edge">
<title>15310&#45;&gt;46701</title>
<path fill="none" stroke="#379469" stroke-dasharray="5,2" d="M1280.87,-1167.24C1073.73,-1250.95 1007.89,-1274.62 918.44,-1269.22"/>
<polygon fill="#379469" stroke="#379469" points="908.62,-1268.51 918.92,-1264.74 912.39,-1268.78 918.59,-1269.23 918.59,-1269.23 918.59,-1269.23 912.39,-1268.78 918.26,-1273.72 908.62,-1268.51"/>
</g>
<!-- 15311 -->
<g id="node12" class="node">
<title>15311</title>
<polygon fill="none" stroke="black" points="1014.69,-1188.18 1014.69,-1203.09 921.44,-1213.63 789.58,-1213.63 696.33,-1203.09 696.33,-1188.18 789.58,-1177.63 921.44,-1177.63 1014.69,-1188.18"/>
<polygon fill="none" stroke="black" points="1018.69,-1184.61 1018.69,-1206.66 921.67,-1217.63 789.35,-1217.63 692.33,-1206.66 692.33,-1184.61 789.35,-1173.63 921.67,-1173.63 1018.69,-1184.61"/>
<text text-anchor="middle" x="855.51" y="-1190.58" font-family="Times,serif" font-size="14.00">CERN Open Hardware License v1.1</text>
</g>
<!-- 15311&#45;&gt;15310 -->
<g id="edge21" class="edge">
<title>15311&#45;&gt;15310</title>
<path fill="none" stroke="#deb256" stroke-width="2" d="M931.58,-1216.93C1033.72,-1242.88 1076.34,-1234.22 1264.39,-1169.84"/>
<polygon fill="#deb256" stroke="#deb256" stroke-width="2" points="1272.62,-1167.02 1264.62,-1174.52 1270.36,-1168.32 1263.32,-1170.73 1263.16,-1170.26 1263,-1169.79 1270.03,-1167.37 1261.7,-1166 1272.62,-1167.02"/>
</g>
<!-- 15311&#45;&gt;34731 -->
<g id="edge22" class="edge">
<title>15311&#45;&gt;34731</title>
<path fill="none" stroke="#e18745" stroke-width="2" d="M874.29,-1218.07C989.68,-1355.71 1019,-1383.94 1151.15,-1403.96"/>
<polygon fill="#e18745" stroke="#e18745" stroke-width="2" points="1159.71,-1405.22 1149.16,-1408.21 1157.1,-1405.34 1149.74,-1404.26 1149.82,-1403.76 1149.89,-1403.27 1157.25,-1404.35 1150.47,-1399.31 1159.71,-1405.22"/>
</g>
<!-- 15311&#45;&gt;46701 -->
<g id="edge23" class="edge">
<title>15311&#45;&gt;46701</title>
<path fill="none" stroke="#379469" stroke-dasharray="5,2" d="M824.48,-1218.09C823.05,-1219.13 821.7,-1220.12 820.41,-1221.06"/>
<polygon fill="#379469" stroke="#379469" points="812.73,-1226.69 818.13,-1217.15 815.78,-1224.45 820.79,-1220.78 820.79,-1220.78 820.79,-1220.78 815.78,-1224.45 823.45,-1224.41 812.73,-1226.69"/>
</g>
<!-- 66830 -->
<g id="node28" class="node">
<title>66830</title>
<polygon fill="none" stroke="#00876c" points="1028.3,-1123.7 1028.3,-1138.61 912.02,-1149.15 747.57,-1149.15 631.28,-1138.61 631.28,-1123.7 747.57,-1113.15 912.02,-1113.15 1028.3,-1123.7"/>
<polygon fill="none" stroke="#00876c" points="1032.3,-1120.04 1032.3,-1142.26 912.2,-1153.15 747.38,-1153.15 627.28,-1142.26 627.28,-1120.04 747.38,-1109.15 912.2,-1109.15 1032.3,-1120.04"/>
<text text-anchor="middle" x="829.79" y="-1126.1" font-family="Times,serif" font-size="14.00">scancode:CERN Open Hardware License v1.1</text>
</g>
<!-- 15311&#45;&gt;66830 -->
<g id="edge24" class="edge">
<title>15311&#45;&gt;66830</title>
<path fill="none" stroke="#00876c" stroke-width="2" d="M835.96,-1173.31C834.25,-1170.44 833.06,-1167.56 832.21,-1164.24"/>
<polygon fill="#00876c" stroke="#00876c" stroke-width="2" points="830.94,-1155.83 836.88,-1165.05 831.82,-1158.29 832.92,-1165.65 832.43,-1165.72 831.93,-1165.8 830.83,-1158.44 827.98,-1166.39 830.94,-1155.83"/>
</g>
<!-- 15312 -->
<g id="node13" class="node">
<title>15312</title>
<text text-anchor="middle" x="2398.58" y="-1285.66" font-family="Times,serif" font-size="14.00">https://www.ohwr.org/project/licenses/wikis/cern&#45;ohl&#45;v1.1</text>
</g>
<!-- 15312&#45;&gt;15309 -->
<g id="edge25" class="edge">
<title>15312&#45;&gt;15309</title>
<path fill="none" stroke="#deb256" d="M2362.55,-1272.78C2264.43,-1224.14 2231.76,-1210.42 1995.23,-1117.82"/>
<polygon fill="#deb256" stroke="#deb256" points="1996.54,-1114.58 1985.95,-1114.19 1993.99,-1121.09 1996.54,-1114.58"/>
</g>
<!-- 15313 -->
<g id="node14" class="node">
<title>15313</title>
<text text-anchor="middle" x="1937.15" y="-1141.03" font-family="Times,serif" font-size="14.00">$TEXT</text>
</g>
<!-- 15313&#45;&gt;15309 -->
<g id="edge26" class="edge">
<title>15313&#45;&gt;15309</title>
<path fill="none" stroke="#deb256" d="M1937.66,-1128.42C1937.63,-1128.01 1937.6,-1127.62 1937.56,-1127.22"/>
<polygon fill="#deb256" stroke="#deb256" points="1940.95,-1126.35 1934.95,-1117.62 1934.19,-1128.19 1940.95,-1126.35"/>
</g>
<!-- 15313&#45;&gt;34730 -->
<g id="edge27" class="edge">
<title>15313&#45;&gt;34730</title>
<path fill="none" stroke="#e18745" d="M1908.53,-1145.4C1842.41,-1143.61 1815.93,-1140.07 1697.16,-1112.11"/>
<polygon fill="#e18745" stroke="#e18745" points="1698.16,-1108.75 1687.63,-1109.86 1696.56,-1115.57 1698.16,-1108.75"/>
</g>
<!-- 34730&#45;&gt;34731 -->
<g id="edge28" class="edge">
<title>34730&#45;&gt;34731</title>
<path fill="none" stroke="#e18745" d="M1574.59,-1115.48C1480.36,-1309.39 1462.83,-1335.96 1334.38,-1392.52"/>
<polygon fill="#e18745" stroke="#e18745" points="1333.27,-1389.19 1325.5,-1396.4 1336.07,-1395.6 1333.27,-1389.19"/>
</g>
<!-- 35432 -->
<g id="node17" class="node">
<title>35432</title>
<text text-anchor="middle" x="639.09" y="-480.86" font-family="Times,serif" font-size="14.00">LicenseTag (ScopedLicenseTag &quot;OrtLicenseCategorization&quot; &quot;permissive&quot; NoLicenseTagText)</text>
</g>
<!-- 35608 -->
<g id="node19" class="node">
<title>35608</title>
<ellipse fill="none" stroke="#d43d51" cx="743.25" cy="-549.67" rx="158.22" ry="28.99"/>
<text text-anchor="middle" x="743.25" y="-552.87" font-family="Times,serif" font-size="14.00" fill="gray">OrtLicenseCategorization</text>
<text text-anchor="middle" x="743.25" y="-536.37" font-family="Times,serif" font-size="14.00" fill="gray">4d54257e80bd19c85eff31aed72b6975</text>
</g>
<!-- 35432&#45;&gt;35608 -->
<g id="edge29" class="edge">
<title>35432&#45;&gt;35608</title>
<path fill="none" stroke="#d43d51" d="M669.61,-503.77C674.96,-507 680.91,-510.65 688.72,-515.51"/>
<polygon fill="#d43d51" stroke="#d43d51" points="686.76,-518.41 697.1,-520.74 690.47,-512.47 686.76,-518.41"/>
</g>
<!-- 35433 -->
<g id="node18" class="node">
<title>35433</title>
<text text-anchor="middle" x="294.59" y="-49.24" font-family="Times,serif" font-size="14.00">LicenseTag (ScopedLicenseTag &quot;OrtLicenseCategorization&quot; &quot;include&#45;in&#45;notice&#45;file&quot; NoLicenseTagText)</text>
</g>
<!-- 35433&#45;&gt;35608 -->
<g id="edge30" class="edge">
<title>35433&#45;&gt;35608</title>
<path fill="none" stroke="#d43d51" d="M307.47,-71.91C410.72,-213.08 425.66,-229.6 706.92,-513.07"/>
<polygon fill="#d43d51" stroke="#d43d51" points="704.3,-515.39 713.82,-520.03 709.26,-510.46 704.3,-515.39"/>
</g>
<!-- 35608&#45;&gt;1357 -->
<g id="edge31" class="edge">
<title>35608&#45;&gt;1357</title>
<path fill="none" stroke="#d43d51" d="M769.98,-578.44C852.89,-667.2 878.57,-688.12 1112.1,-865.3"/>
<polygon fill="#d43d51" stroke="#d43d51" points="1109.93,-868.04 1120.01,-871.3 1114.16,-862.46 1109.93,-868.04"/>
</g>
<!-- 41371 -->
<g id="node20" class="node">
<title>41371</title>
<ellipse fill="none" stroke="#379469" cx="769.96" cy="-1486.05" rx="156.09" ry="28.99"/>
<text text-anchor="middle" x="769.96" y="-1489.25" font-family="Times,serif" font-size="14.00" fill="gray">CavilLicenseChange</text>
<text text-anchor="middle" x="769.96" y="-1472.75" font-family="Times,serif" font-size="14.00" fill="gray">e09aa900503fcb92cf44e80b63dd825f</text>
</g>
<!-- 41371&#45;&gt;41372 -->
<g id="edge32" class="edge">
<title>41371&#45;&gt;41372</title>
<path fill="none" stroke="#379469" d="M783.84,-1457.04C786.59,-1452.38 790.04,-1446.96 794.81,-1439.72"/>
<polygon fill="#379469" stroke="#379469" points="797.61,-1441.84 800.23,-1431.57 791.78,-1437.96 797.61,-1441.84"/>
</g>
<!-- 46700 -->
<g id="node22" class="node">
<title>46700</title>
<ellipse fill="none" stroke="#379469" cx="199" cy="-1176.95" rx="158.75" ry="28.99"/>
<text text-anchor="middle" x="199" y="-1180.15" font-family="Times,serif" font-size="14.00" fill="gray">MetaeffektLicense</text>
<text text-anchor="middle" x="199" y="-1163.65" font-family="Times,serif" font-size="14.00" fill="gray">f64d0a545a7c79007e92b69b59bf2227</text>
</g>
<!-- 46700&#45;&gt;46701 -->
<g id="edge33" class="edge">
<title>46700&#45;&gt;46701</title>
<path fill="none" stroke="#379469" d="M262.82,-1203.94C355.75,-1241.84 405.05,-1251.26 567.26,-1251.67"/>
<polygon fill="#379469" stroke="#379469" points="567.1,-1255.17 577.11,-1251.69 567.11,-1248.17 567.1,-1255.17"/>
</g>
<!-- 46702 -->
<g id="node24" class="node">
<title>46702</title>
<polygon fill="none" stroke="#379469" points="733.62,-1796.43 733.62,-1811.35 643.29,-1821.89 515.56,-1821.89 425.23,-1811.35 425.23,-1796.43 515.56,-1785.89 643.29,-1785.89 733.62,-1796.43"/>
<polygon fill="none" stroke="#379469" points="737.62,-1792.87 737.62,-1814.91 643.53,-1825.89 515.32,-1825.89 421.23,-1814.91 421.23,-1792.87 515.32,-1781.89 643.53,-1781.89 737.62,-1792.87"/>
<text text-anchor="middle" x="579.42" y="-1798.84" font-family="Times,serif" font-size="14.00">CERN Open Hardware License 1.1</text>
</g>
<!-- 46702&#45;&gt;46701 -->
<g id="edge34" class="edge">
<title>46702&#45;&gt;46701</title>
<path fill="none" stroke="#379469" stroke-width="2" d="M581.65,-1781.63C598.33,-1616.03 605.5,-1597.72 766.53,-1281.98"/>
<polygon fill="#379469" stroke="#379469" stroke-width="2" points="770.48,-1274.25 769.94,-1285.2 769.76,-1276.76 766.38,-1283.38 765.93,-1283.15 765.49,-1282.93 768.87,-1276.3 761.93,-1281.11 770.48,-1274.25"/>
</g>
<!-- 46703 -->
<g id="node25" class="node">
<title>46703</title>
<polygon fill="none" stroke="#379469" points="394.37,-1360.33 394.37,-1375.24 358.24,-1385.78 307.15,-1385.78 271.02,-1375.24 271.02,-1360.33 307.15,-1349.78 358.24,-1349.78 394.37,-1360.33"/>
<text text-anchor="middle" x="332.69" y="-1362.73" font-family="Times,serif" font-size="14.00">CERN OHL</text>
</g>
<!-- 46703&#45;&gt;46701 -->
<g id="edge35" class="edge">
<title>46703&#45;&gt;46701</title>
<path fill="none" stroke="#379469" stroke-dasharray="5,2" d="M394.65,-1361.21C474.78,-1351.65 517.4,-1339.18 705.96,-1275.69"/>
<polygon fill="#379469" stroke="#379469" points="715.36,-1272.52 707.32,-1279.98 711.78,-1273.73 705.88,-1275.71 705.88,-1275.71 705.88,-1275.71 711.78,-1273.73 704.45,-1271.45 715.36,-1272.52"/>
</g>
<!-- 46704 -->
<g id="node26" class="node">
<title>46704</title>
<polygon fill="none" stroke="#379469" points="495.76,-1577.89 495.76,-1592.8 447.94,-1603.35 380.33,-1603.35 332.52,-1592.8 332.52,-1577.89 380.33,-1567.35 447.94,-1567.35 495.76,-1577.89"/>
<text text-anchor="middle" x="414.14" y="-1580.3" font-family="Times,serif" font-size="14.00">CERN OHL v1.1</text>
</g>
<!-- 46704&#45;&gt;46701 -->
<g id="edge36" class="edge">
<title>46704&#45;&gt;46701</title>
<path fill="none" stroke="#379469" stroke-dasharray="5,2" d="M431.72,-1567.02C515.01,-1480.33 532.47,-1464.62 748.5,-1279.29"/>
<polygon fill="#379469" stroke="#379469" points="756,-1272.85 751.34,-1282.77 753.13,-1275.31 748.41,-1279.36 748.41,-1279.36 748.41,-1279.36 753.13,-1275.31 745.48,-1275.94 756,-1272.85"/>
</g>
<!-- 66829 -->
<g id="node27" class="node">
<title>66829</title>
<ellipse fill="none" stroke="#00876c" cx="1444.86" cy="-1270.59" rx="157.15" ry="28.99"/>
<text text-anchor="middle" x="1444.86" y="-1273.79" font-family="Times,serif" font-size="14.00" fill="gray">LicenseLynx</text>
<text text-anchor="middle" x="1444.86" y="-1257.29" font-family="Times,serif" font-size="14.00" fill="gray">2cbb79c7e0aeac19d40d7636af40da0a</text>
</g>
<!-- 66829&#45;&gt;1357 -->
<g id="edge37" class="edge">
<title>66829&#45;&gt;1357</title>
<path fill="none" stroke="#00876c" d="M1403.86,-1242.23C1313.12,-1178.15 1294.53,-1149.57 1176.07,-934.98"/>
<polygon fill="#00876c" stroke="#00876c" points="1179.16,-933.35 1171.26,-926.28 1173.03,-936.73 1179.16,-933.35"/>
</g>
<!-- 66830&#45;&gt;1357 -->
<g id="edge38" class="edge">
<title>66830&#45;&gt;1357</title>
<path fill="none" stroke="#00876c" stroke-width="2" d="M851.5,-1108.98C913.27,-1046.35 934.94,-1031.12 1103.02,-930.3"/>
<polygon fill="#00876c" stroke="#00876c" stroke-width="2" points="1110.36,-925.91 1104.1,-934.91 1108.42,-927.65 1102.04,-931.48 1101.78,-931.05 1101.53,-930.62 1107.91,-926.79 1099.47,-927.19 1110.36,-925.91"/>
</g>
<!-- 66831&#45;&gt;1357 -->
<g id="edge39" class="edge">
<title>66831&#45;&gt;1357</title>
<path fill="none" stroke="#00876c" stroke-width="2" d="M1103.71,-459.83C1084.1,-584.15 1086.51,-603.5 1147.23,-861.41"/>
<polygon fill="#00876c" stroke="#00876c" stroke-width="2" points="1149.23,-869.9 1142.55,-861.2 1148.15,-867.52 1146.45,-860.28 1146.93,-860.17 1147.42,-860.05 1149.12,-867.29 1151.31,-859.14 1149.23,-869.9"/>
</g>
</g>
</svg>
