<?xml version="1.0" encoding="UTF-8" standalone="no"?>
<!DOCTYPE svg PUBLIC "-//W3C//DTD SVG 1.1//EN"
 "http://www.w3.org/Graphics/SVG/1.1/DTD/svg11.dtd">
<!-- Generated by graphviz version 10.0.1 (0)
 -->
<!-- Pages: 1 -->
<svg width="3622pt" height="3165pt"
 viewBox="0.00 0.00 3622.00 3165.00" xmlns="http://www.w3.org/2000/svg" xmlns:xlink="http://www.w3.org/1999/xlink">
<g id="graph0" class="graph" transform="scale(1 1) rotate(0) translate(4 3161)">
<polygon fill="white" stroke="none" points="-4,4 -4,-3161 3618,-3161 3618,4 -4,4"/>
<!-- 19 -->
<g id="node1" class="node">
<title>19</title>
<text text-anchor="start" x="1928.2" y="-308.91" font-family="Times,serif" font-size="14.00">OSI: </text>
<text text-anchor="start" x="1957.45" y="-308.91" font-family="Times,serif" font-weight="bold" font-size="14.00" fill="#228b22">Approved</text>
</g>
<!-- 1383 -->
<g id="node3" class="node">
<title>1383</title>
<ellipse fill="none" stroke="#dac767" cx="2064.96" cy="-690.62" rx="151.32" ry="28.99"/>
<text text-anchor="middle" x="2064.96" y="-693.82" font-family="Times,serif" font-size="14.00" fill="gray">SPDXLicense</text>
<text text-anchor="middle" x="2064.96" y="-677.32" font-family="Times,serif" font-size="14.00" fill="gray">bb35f25636cdfe5f7fcf39b7b5f3eea7</text>
</g>
<!-- 19&#45;&gt;1383 -->
<g id="edge1" class="edge">
<title>19&#45;&gt;1383</title>
<path fill="none" stroke="#dac767" d="M1981.44,-330.77C2030.45,-420.83 2034.72,-438.36 2060.11,-650.1"/>
<polygon fill="#dac767" stroke="#dac767" points="2056.61,-650.3 2061.28,-659.82 2063.56,-649.47 2056.61,-650.3"/>
</g>
<!-- 1376 -->
<g id="node2" class="node">
<title>1376</title>
<text text-anchor="middle" x="2598.05" y="-975.45" font-family="Times,serif" font-size="14.00">https://www.ohwr.org/project/cernohl/wikis/Documents/CERN&#45;OHL&#45;version&#45;2</text>
</g>
<!-- 1376&#45;&gt;1383 -->
<g id="edge2" class="edge">
<title>1376&#45;&gt;1383</title>
<path fill="none" stroke="#dac767" d="M2583.73,-962.72C2430.22,-772.27 2400.09,-741.29 2198.88,-709.65"/>
<polygon fill="#dac767" stroke="#dac767" points="2199.52,-706.21 2189.1,-708.13 2198.44,-713.12 2199.52,-706.21"/>
</g>
<!-- 35075 -->
<g id="node29" class="node">
<title>35075</title>
<ellipse fill="none" stroke="#e18745" cx="2634.47" cy="-1039.66" rx="160.34" ry="28.99"/>
<text text-anchor="middle" x="2634.47" y="-1042.86" font-family="Times,serif" font-size="14.00" fill="gray">Fossology</text>
<text text-anchor="middle" x="2634.47" y="-1026.36" font-family="Times,serif" font-size="14.00" fill="gray">539ab6c418c72286614bb89f88d0d6e4</text>
</g>
<!-- 1376&#45;&gt;35075 -->
<g id="edge3" class="edge">
<title>1376&#45;&gt;35075</title>
<path fill="none" stroke="#e18745" d="M2620.48,-998.48C2621.1,-999.15 2621.69,-999.83 2622.24,-1000.51"/>
<polygon fill="#e18745" stroke="#e18745" points="2619.1,-1002.06 2627.08,-1009.03 2625.19,-998.61 2619.1,-1002.06"/>
</g>
<!-- 1384 -->
<g id="node4" class="node">
<title>1384</title>
<polygon fill="none" stroke="black" points="1863.55,-1191.85 1863.55,-1206.77 1797.57,-1217.31 1704.25,-1217.31 1638.27,-1206.77 1638.27,-1191.85 1704.25,-1181.31 1797.57,-1181.31 1863.55,-1191.85"/>
<polygon fill="none" stroke="black" points="1867.55,-1188.44 1867.55,-1210.18 1797.88,-1221.31 1703.93,-1221.31 1634.27,-1210.18 1634.27,-1188.44 1703.93,-1177.31 1797.88,-1177.31 1867.55,-1188.44"/>
<polygon fill="none" stroke="black" points="1871.55,-1185.03 1871.55,-1213.59 1798.2,-1225.31 1703.61,-1225.31 1630.27,-1213.59 1630.27,-1185.03 1703.61,-1173.31 1798.2,-1173.31 1871.55,-1185.03"/>
<text text-anchor="middle" x="1750.91" y="-1194.26" font-family="Times,serif" font-size="14.00">spdx:CERN&#45;OHL&#45;W&#45;2.0</text>
</g>
<!-- 1383&#45;&gt;1384 -->
<g id="edge4" class="edge">
<title>1383&#45;&gt;1384</title>
<path fill="none" stroke="#dac767" d="M2035.99,-719.27C1929.76,-825.01 1914.54,-852.9 1768.05,-1163"/>
<polygon fill="#dac767" stroke="#dac767" points="1764.99,-1161.3 1763.88,-1171.83 1771.32,-1164.29 1764.99,-1161.3"/>
</g>
<!-- 12400 -->
<g id="node11" class="node">
<title>12400</title>
<polygon fill="none" stroke="#58a066" points="2344.86,-981.07 2344.86,-995.98 2298.99,-1006.52 2234.13,-1006.52 2188.26,-995.98 2188.26,-981.07 2234.13,-970.52 2298.99,-970.52 2344.86,-981.07"/>
<polygon fill="none" stroke="#58a066" points="2348.86,-977.88 2348.86,-999.16 2299.44,-1010.52 2233.67,-1010.52 2184.26,-999.16 2184.26,-977.88 2233.67,-966.52 2299.44,-966.52 2348.86,-977.88"/>
<text text-anchor="middle" x="2266.56" y="-983.47" font-family="Times,serif" font-size="14.00">cal:cern&#45;ohl&#45;w&#45;2</text>
</g>
<!-- 1384&#45;&gt;12400 -->
<g id="edge5" class="edge">
<title>1384&#45;&gt;12400</title>
<path fill="none" stroke="#58a066" stroke-width="2" d="M1788.85,-1173.04C2005.07,-1023.49 2049.71,-996.77 2172.82,-990.64"/>
<polygon fill="#58a066" stroke="#58a066" stroke-width="2" points="2181.36,-990.27 2171.56,-995.2 2178.82,-990.88 2171.39,-991.21 2171.37,-990.71 2171.34,-990.21 2178.77,-989.88 2171.17,-986.21 2181.36,-990.27"/>
</g>
<!-- 15340 -->
<g id="node22" class="node">
<title>15340</title>
<polygon fill="none" stroke="black" points="1511.85,-1746.6 1511.85,-1761.51 1446.84,-1772.05 1354.9,-1772.05 1289.89,-1761.51 1289.89,-1746.6 1354.9,-1736.05 1446.84,-1736.05 1511.85,-1746.6"/>
<polygon fill="none" stroke="black" points="1515.85,-1743.19 1515.85,-1764.91 1447.16,-1776.05 1354.58,-1776.05 1285.89,-1764.91 1285.89,-1743.19 1354.58,-1732.05 1447.16,-1732.05 1515.85,-1743.19"/>
<text text-anchor="middle" x="1400.87" y="-1749" font-family="Times,serif" font-size="14.00">scancode:cern&#45;ohl&#45;w&#45;2.0</text>
</g>
<!-- 1384&#45;&gt;15340 -->
<g id="edge6" class="edge">
<title>1384&#45;&gt;15340</title>
<path fill="none" stroke="#deb256" stroke-width="2" d="M1730.63,-1225.51C1667.25,-1317.08 1474.56,-1622.39 1417.09,-1722.21"/>
<polygon fill="#deb256" stroke="#deb256" stroke-width="2" points="1412.87,-1729.63 1413.9,-1718.71 1413.7,-1727.15 1417.38,-1720.69 1417.81,-1720.94 1418.25,-1721.19 1414.57,-1727.65 1421.73,-1723.17 1412.87,-1729.63"/>
</g>
<!-- 46716 -->
<g id="node39" class="node">
<title>46716</title>
<polygon fill="none" stroke="#379469" points="1622.39,-1682.91 1622.39,-1697.82 1458.4,-1708.36 1226.49,-1708.36 1062.5,-1697.82 1062.5,-1682.91 1226.49,-1672.36 1458.4,-1672.36 1622.39,-1682.91"/>
<polygon fill="none" stroke="#379469" points="1626.39,-1679.16 1626.39,-1701.57 1458.53,-1712.36 1226.36,-1712.36 1058.5,-1701.57 1058.5,-1679.16 1226.36,-1668.36 1458.53,-1668.36 1626.39,-1679.16"/>
<text text-anchor="middle" x="1342.44" y="-1685.31" font-family="Times,serif" font-size="14.00">metaeffekt:CERN Open Hardware Licence Weakly Reciprocal 2.0</text>
</g>
<!-- 1384&#45;&gt;46716 -->
<g id="edge7" class="edge">
<title>1384&#45;&gt;46716</title>
<path fill="none" stroke="#379469" stroke-width="2" d="M1706.15,-1225.7C1443.53,-1380.89 1429.31,-1400.13 1352.22,-1657.63"/>
<polygon fill="#379469" stroke="#379469" stroke-width="2" points="1349.79,-1665.74 1348.34,-1654.87 1350.04,-1663.14 1352.17,-1656.02 1352.65,-1656.16 1353.13,-1656.3 1351,-1663.43 1356.97,-1657.45 1349.79,-1665.74"/>
</g>
<!-- 1385 -->
<g id="node5" class="node">
<title>1385</title>
<polygon fill="none" stroke="black" points="1957.42,-1652.37 1957.42,-1667.28 1904.09,-1677.82 1828.67,-1677.82 1775.34,-1667.28 1775.34,-1652.37 1828.67,-1641.82 1904.09,-1641.82 1957.42,-1652.37"/>
<polygon fill="none" stroke="black" points="1961.42,-1649.08 1961.42,-1670.56 1904.48,-1681.82 1828.28,-1681.82 1771.34,-1670.56 1771.34,-1649.08 1828.28,-1637.82 1904.48,-1637.82 1961.42,-1649.08"/>
<text text-anchor="middle" x="1866.38" y="-1654.77" font-family="Times,serif" font-size="14.00">CERN&#45;OHL&#45;W&#45;2.0</text>
</g>
<!-- 1385&#45;&gt;1384 -->
<g id="edge8" class="edge">
<title>1385&#45;&gt;1384</title>
<path fill="none" stroke="black" stroke-width="2" d="M1862.48,-1637.49C1815.01,-1365.21 1809.11,-1335.15 1766.73,-1235.91"/>
<polygon fill="black" stroke="black" stroke-width="2" points="1763.33,-1228 1771.41,-1235.41 1764.8,-1230.15 1767.73,-1236.99 1767.27,-1237.19 1766.81,-1237.38 1763.88,-1230.55 1763.14,-1238.96 1763.33,-1228"/>
</g>
<!-- 1385&#45;&gt;15340 -->
<g id="edge9" class="edge">
<title>1385&#45;&gt;15340</title>
<path fill="none" stroke="black" stroke-width="2" d="M1810.34,-1678.6C1651.18,-1731.83 1588.16,-1751.44 1527.16,-1756.48"/>
<polygon fill="black" stroke="black" stroke-width="2" points="1518.6,-1757.07 1528.27,-1751.9 1521.13,-1756.4 1528.55,-1755.89 1528.58,-1756.39 1528.61,-1756.89 1521.19,-1757.4 1528.89,-1760.88 1518.6,-1757.07"/>
</g>
<!-- 35076 -->
<g id="node30" class="node">
<title>35076</title>
<polygon fill="none" stroke="#e18745" points="2387.68,-1422.82 2387.68,-1437.73 2310.02,-1448.27 2200.18,-1448.27 2122.51,-1437.73 2122.51,-1422.82 2200.18,-1412.27 2310.02,-1412.27 2387.68,-1422.82"/>
<polygon fill="none" stroke="#e18745" points="2391.68,-1419.32 2391.68,-1441.22 2310.29,-1452.27 2199.91,-1452.27 2118.51,-1441.22 2118.51,-1419.32 2199.91,-1408.27 2310.29,-1408.27 2391.68,-1419.32"/>
<text text-anchor="middle" x="2255.1" y="-1425.22" font-family="Times,serif" font-size="14.00">fossology:CERN&#45;OHL&#45;W&#45;2.0</text>
</g>
<!-- 1385&#45;&gt;35076 -->
<g id="edge10" class="edge">
<title>1385&#45;&gt;35076</title>
<path fill="none" stroke="#e18745" stroke-width="2" d="M1912.69,-1639.16C2123.61,-1544.96 2152.01,-1529.88 2224.59,-1460.05"/>
<polygon fill="#e18745" stroke="#e18745" stroke-width="2" points="2230.48,-1454.35 2226.42,-1464.54 2228.99,-1456.49 2223.64,-1461.67 2223.29,-1461.31 2222.95,-1460.95 2228.29,-1455.78 2220.16,-1458.07 2230.48,-1454.35"/>
</g>
<!-- 41380 -->
<g id="node37" class="node">
<title>41380</title>
<polygon fill="none" stroke="#379469" points="2280.44,-1974.36 2280.44,-1989.28 2214.13,-1999.82 2120.35,-1999.82 2054.04,-1989.28 2054.04,-1974.36 2120.35,-1963.82 2214.13,-1963.82 2280.44,-1974.36"/>
<polygon fill="none" stroke="#379469" points="2284.44,-1970.95 2284.44,-1992.69 2214.44,-2003.82 2120.04,-2003.82 2050.04,-1992.69 2050.04,-1970.95 2120.04,-1959.82 2214.44,-1959.82 2284.44,-1970.95"/>
<text text-anchor="middle" x="2167.24" y="-1976.77" font-family="Times,serif" font-size="14.00">cavil:CERN&#45;OHL&#45;W&#45;2.0</text>
</g>
<!-- 1385&#45;&gt;41380 -->
<g id="edge11" class="edge">
<title>1385&#45;&gt;41380</title>
<path fill="none" stroke="#379469" stroke-width="2" d="M1886.72,-1682.07C2051.73,-1862.54 2074.15,-1886.88 2137.87,-1951.91"/>
<polygon fill="#379469" stroke="#379469" stroke-width="2" points="2143.73,-1957.88 2133.51,-1953.89 2141.58,-1956.4 2136.37,-1951.09 2136.73,-1950.74 2137.08,-1950.39 2142.29,-1955.7 2139.94,-1947.59 2143.73,-1957.88"/>
</g>
<!-- 1385&#45;&gt;46716 -->
<g id="edge12" class="edge">
<title>1385&#45;&gt;46716</title>
<path fill="none" stroke="#379469" stroke-dasharray="5,2" d="M1784.62,-1673.64C1644.29,-1697.23 1571.99,-1708.25 1514.69,-1709.77"/>
<polygon fill="#379469" stroke="#379469" points="1505,-1709.93 1514.93,-1705.27 1508.78,-1709.87 1515,-1709.77 1515,-1709.77 1515,-1709.77 1508.78,-1709.87 1515.07,-1714.27 1505,-1709.93"/>
</g>
<!-- 46719 -->
<g id="node42" class="node">
<title>46719</title>
<polygon fill="none" stroke="#379469" points="1887,-1971.66 1887,-1986.58 1825.23,-1997.12 1737.88,-1997.12 1676.12,-1986.58 1676.12,-1971.66 1737.88,-1961.12 1825.23,-1961.12 1887,-1971.66"/>
<polygon fill="none" stroke="#379469" points="1891,-1968.29 1891,-1989.95 1825.57,-2001.12 1737.55,-2001.12 1672.12,-1989.95 1672.12,-1968.29 1737.55,-1957.12 1825.57,-1957.12 1891,-1968.29"/>
<text text-anchor="middle" x="1781.56" y="-1974.07" font-family="Times,serif" font-size="14.00">osi:CERN&#45;OHL&#45;W&#45;2.0</text>
</g>
<!-- 1385&#45;&gt;46719 -->
<g id="edge13" class="edge">
<title>1385&#45;&gt;46719</title>
<path fill="none" stroke="#379469" stroke-width="2" d="M1862.64,-1682.17C1833.13,-1858.19 1828.01,-1884.14 1797.68,-1946.68"/>
<polygon fill="#379469" stroke="#379469" stroke-width="2" points="1793.87,-1954.44 1794.24,-1943.48 1794.55,-1951.92 1797.83,-1945.24 1798.28,-1945.46 1798.72,-1945.68 1795.45,-1952.36 1802.32,-1947.44 1793.87,-1954.44"/>
</g>
<!-- 1386 -->
<g id="node6" class="node">
<title>1386</title>
<polygon fill="none" stroke="black" points="2050.01,-1266.77 2050.01,-1281.68 1894.78,-1292.23 1675.26,-1292.23 1520.04,-1281.68 1520.04,-1266.77 1675.26,-1256.23 1894.78,-1256.23 2050.01,-1266.77"/>
<polygon fill="none" stroke="black" points="2054.01,-1263.03 2054.01,-1285.42 1894.92,-1296.23 1675.13,-1296.23 1516.04,-1285.42 1516.04,-1263.03 1675.13,-1252.23 1894.92,-1252.23 2054.01,-1263.03"/>
<text text-anchor="middle" x="1785.02" y="-1269.18" font-family="Times,serif" font-size="14.00">CERN Open Hardware Licence Version 2 &#45; Weakly Reciprocal</text>
</g>
<!-- 1386&#45;&gt;1384 -->
<g id="edge14" class="edge">
<title>1386&#45;&gt;1384</title>
<path fill="none" stroke="#dac767" stroke-width="2" d="M1777.08,-1251.75C1774.81,-1245.4 1772.91,-1240.19 1771.22,-1235.79"/>
<polygon fill="#dac767" stroke="#dac767" stroke-width="2" points="1768.06,-1228.04 1776.01,-1235.6 1769.49,-1230.23 1772.3,-1237.11 1771.84,-1237.3 1771.38,-1237.49 1768.57,-1230.61 1767.68,-1239 1768.06,-1228.04"/>
</g>
<!-- 1386&#45;&gt;12400 -->
<g id="edge15" class="edge">
<title>1386&#45;&gt;12400</title>
<path fill="none" stroke="#58a066" stroke-width="2" d="M1811.77,-1251.78C2033.27,-1065.93 2072.69,-1035.43 2189.88,-1006.1"/>
<polygon fill="#58a066" stroke="#58a066" stroke-width="2" points="2198.35,-1004.02 2189.71,-1010.78 2195.98,-1005.12 2188.76,-1006.89 2188.64,-1006.41 2188.52,-1005.92 2195.74,-1004.15 2187.56,-1002.04 2198.35,-1004.02"/>
</g>
<!-- 1386&#45;&gt;15340 -->
<g id="edge16" class="edge">
<title>1386&#45;&gt;15340</title>
<path fill="none" stroke="#deb256" stroke-width="2" d="M1751.37,-1296.45C1487.01,-1471.27 1473.16,-1487.92 1409.75,-1721.23"/>
<polygon fill="#deb256" stroke="#deb256" stroke-width="2" points="1407.53,-1729.43 1405.81,-1718.6 1407.72,-1726.82 1409.67,-1719.65 1410.15,-1719.78 1410.63,-1719.91 1408.68,-1727.08 1414.49,-1720.95 1407.53,-1729.43"/>
</g>
<!-- 1386&#45;&gt;35076 -->
<g id="edge17" class="edge">
<title>1386&#45;&gt;35076</title>
<path fill="none" stroke="#e18745" stroke-width="2" d="M2028.57,-1287.6C2103.38,-1301.05 2143.09,-1330.47 2221.82,-1400.47"/>
<polygon fill="#e18745" stroke="#e18745" stroke-width="2" points="2228.25,-1406.21 2217.8,-1402.91 2226.01,-1404.88 2220.46,-1399.93 2220.79,-1399.56 2221.12,-1399.18 2226.67,-1404.13 2223.78,-1396.2 2228.25,-1406.21"/>
</g>
<!-- 1386&#45;&gt;46716 -->
<g id="edge18" class="edge">
<title>1386&#45;&gt;46716</title>
<path fill="none" stroke="#379469" stroke-dasharray="5,2" d="M1739.28,-1296.61C1464.04,-1431.56 1446.65,-1448.34 1356.33,-1658"/>
<polygon fill="#379469" stroke="#379469" points="1352.46,-1667.01 1352.28,-1656.05 1353.95,-1663.54 1356.41,-1657.82 1356.41,-1657.82 1356.41,-1657.82 1353.95,-1663.54 1360.54,-1659.6 1352.46,-1667.01"/>
</g>
<!-- 66839 -->
<g id="node44" class="node">
<title>66839</title>
<polygon fill="none" stroke="#00876c" points="1510.34,-949.5 1510.34,-964.41 1342.46,-974.96 1105.04,-974.96 937.16,-964.41 937.16,-949.5 1105.04,-938.96 1342.46,-938.96 1510.34,-949.5"/>
<polygon fill="none" stroke="#00876c" points="1514.34,-945.75 1514.34,-968.17 1342.59,-978.96 1104.92,-978.96 933.16,-968.17 933.16,-945.75 1104.92,-934.96 1342.59,-934.96 1514.34,-945.75"/>
<text text-anchor="middle" x="1223.75" y="-951.91" font-family="Times,serif" font-size="14.00">spdx:CERN Open Hardware Licence Version 2 &#45; Weakly Reciprocal</text>
</g>
<!-- 1386&#45;&gt;66839 -->
<g id="edge19" class="edge">
<title>1386&#45;&gt;66839</title>
<path fill="none" stroke="#00876c" stroke-width="2" d="M1755.53,-1251.85C1495.92,-1054.86 1441.88,-1015.83 1323.63,-982.27"/>
<polygon fill="#00876c" stroke="#00876c" stroke-width="2" points="1315.46,-980 1326.3,-978.34 1318.07,-980.2 1325.23,-982.2 1325.1,-982.68 1324.96,-983.16 1317.8,-981.17 1323.89,-987.01 1315.46,-980"/>
</g>
<!-- 1387 -->
<g id="node7" class="node">
<title>1387</title>
<text text-anchor="middle" x="2188.39" y="-264.56" font-family="Times,serif" font-size="14.00">$TEXT</text>
</g>
<!-- 1387&#45;&gt;1383 -->
<g id="edge20" class="edge">
<title>1387&#45;&gt;1383</title>
<path fill="none" stroke="#dac767" d="M2183.09,-287.59C2152.59,-391.12 2147.38,-408.9 2076.73,-650.37"/>
<polygon fill="#dac767" stroke="#dac767" points="2073.41,-649.25 2073.96,-659.83 2080.13,-651.22 2073.41,-649.25"/>
</g>
<!-- 1388 -->
<g id="node8" class="node">
<title>1388</title>
<text text-anchor="middle" x="2247.75" y="-32.53" font-family="Times,serif" font-size="14.00">$TEXT</text>
</g>
<!-- 1388&#45;&gt;1387 -->
<g id="edge21" class="edge">
<title>1388&#45;&gt;1387</title>
<path fill="none" stroke="#dac767" d="M2243.6,-55.27C2231.85,-105.23 2227.94,-120.39 2195.98,-240.95"/>
<polygon fill="#dac767" stroke="#dac767" points="2192.68,-239.74 2193.5,-250.3 2199.45,-241.53 2192.68,-239.74"/>
</g>
<!-- 12238 -->
<g id="node9" class="node">
<title>12238</title>
<text text-anchor="middle" x="3305.29" y="-382.03" font-family="Times,serif" font-size="14.00">ChooseALicense:</text>
<text text-anchor="middle" x="3305.29" y="-365.53" font-family="Times,serif" font-size="14.00">How to apply this license:</text>
<text text-anchor="middle" x="3305.29" y="-349.03" font-family="Times,serif" font-size="14.00">Create a text file (typically named LICENSE or LICENSE.txt) in the root of your</text>
<text text-anchor="middle" x="3305.29" y="-332.53" font-family="Times,serif" font-size="14.00">source code and copy the text of the license into the file.</text>
</g>
<!-- 12399 -->
<g id="node10" class="node">
<title>12399</title>
<ellipse fill="none" stroke="#58a066" cx="2764.27" cy="-683.96" rx="159.81" ry="28.99"/>
<text text-anchor="middle" x="2764.27" y="-687.16" font-family="Times,serif" font-size="14.00" fill="gray">ChooseALicense</text>
<text text-anchor="middle" x="2764.27" y="-670.66" font-family="Times,serif" font-size="14.00" fill="gray">791c5b81f02adc2266e215d052c79b9b</text>
</g>
<!-- 12238&#45;&gt;12399 -->
<g id="edge22" class="edge">
<title>12238&#45;&gt;12399</title>
<path fill="none" stroke="#58a066" d="M3224.37,-399.2C3124.76,-445.98 3070.92,-480.54 2816.41,-649.37"/>
<polygon fill="#58a066" stroke="#58a066" points="2814.54,-646.41 2808.14,-654.85 2818.41,-652.24 2814.54,-646.41"/>
</g>
<!-- 12399&#45;&gt;12400 -->
<g id="edge23" class="edge">
<title>12399&#45;&gt;12400</title>
<path fill="none" stroke="#58a066" d="M2698.45,-710.85C2594.11,-754.8 2551.11,-784.15 2306.71,-959.68"/>
<polygon fill="#58a066" stroke="#58a066" points="2304.87,-956.7 2298.78,-965.37 2308.95,-962.38 2304.87,-956.7"/>
</g>
<!-- 12401 -->
<g id="node12" class="node">
<title>12401</title>
<polygon fill="none" stroke="#58a066" points="2489.34,-731.33 2489.34,-746.24 2451.91,-756.78 2398.98,-756.78 2361.56,-746.24 2361.56,-731.33 2398.98,-720.78 2451.91,-720.78 2489.34,-731.33"/>
<polygon fill="none" stroke="#58a066" points="2493.34,-728.3 2493.34,-749.27 2452.47,-760.78 2398.43,-760.78 2357.56,-749.27 2357.56,-728.3 2398.43,-716.78 2452.47,-716.78 2493.34,-728.3"/>
<text text-anchor="middle" x="2425.45" y="-733.73" font-family="Times,serif" font-size="14.00">cern&#45;ohl&#45;w&#45;2</text>
</g>
<!-- 12401&#45;&gt;12400 -->
<g id="edge24" class="edge">
<title>12401&#45;&gt;12400</title>
<path fill="none" stroke="#58a066" stroke-width="2" d="M2412.86,-761.04C2382.74,-814.12 2371.21,-831.95 2287.69,-956.92"/>
<polygon fill="#58a066" stroke="#58a066" stroke-width="2" points="2282.9,-964.08 2284.72,-953.27 2283.91,-961.67 2288.04,-955.49 2288.46,-955.77 2288.87,-956.05 2284.74,-962.23 2292.2,-958.27 2282.9,-964.08"/>
</g>
<!-- 12402 -->
<g id="node13" class="node">
<title>12402</title>
<polygon fill="none" stroke="#58a066" points="2747.95,-1237.82 2747.95,-1252.73 2658.28,-1263.28 2531.46,-1263.28 2441.79,-1252.73 2441.79,-1237.82 2531.46,-1227.28 2658.28,-1227.28 2747.95,-1237.82"/>
<text text-anchor="middle" x="2594.87" y="-1240.23" font-family="Times,serif" font-size="14.00">CERN OHL v2 Weakly Reciprocal</text>
</g>
<!-- 12402&#45;&gt;12400 -->
<g id="edge25" class="edge">
<title>12402&#45;&gt;12400</title>
<path fill="none" stroke="#58a066" stroke-dasharray="5,2" d="M2584.97,-1227.15C2506.51,-1083.8 2492.08,-1066.79 2329.35,-1010.07"/>
<polygon fill="#58a066" stroke="#58a066" points="2320.08,-1006.85 2331,-1005.88 2323.65,-1008.09 2329.53,-1010.13 2329.53,-1010.13 2329.53,-1010.13 2323.65,-1008.09 2328.05,-1014.38 2320.08,-1006.85"/>
</g>
<!-- 12403 -->
<g id="node14" class="node">
<title>12403</title>
<text text-anchor="middle" x="3387.02" y="-650.3" font-family="Times,serif" font-size="14.00">ChooseALicense:</text>
<text text-anchor="middle" x="3387.02" y="-633.8" font-family="Times,serif" font-size="14.00">Permissions of this weakly&#45;reciprocal license are conditioned on making</text>
<text text-anchor="middle" x="3387.02" y="-617.3" font-family="Times,serif" font-size="14.00">available complete sources of licensed works and modifications under the same</text>
<text text-anchor="middle" x="3387.02" y="-600.8" font-family="Times,serif" font-size="14.00">license. Notices must be preserved. Contributors provide an express grant of</text>
<text text-anchor="middle" x="3387.02" y="-584.3" font-family="Times,serif" font-size="14.00">patent rights. However, a larger work using the licensed work through interfaces</text>
<text text-anchor="middle" x="3387.02" y="-567.8" font-family="Times,serif" font-size="14.00">provided by the licensed work may be distributed under different terms and</text>
<text text-anchor="middle" x="3387.02" y="-551.3" font-family="Times,serif" font-size="14.00">without sources for the larger work.</text>
</g>
<!-- 12403&#45;&gt;12399 -->
<g id="edge26" class="edge">
<title>12403&#45;&gt;12399</title>
<path fill="none" stroke="#58a066" d="M3160.04,-588.09C3094.54,-595.32 3012.45,-616.07 2864.08,-656.57"/>
<polygon fill="#58a066" stroke="#58a066" points="2863.46,-653.11 2854.74,-659.12 2865.31,-659.86 2863.46,-653.11"/>
</g>
<!-- 12404 -->
<g id="node15" class="node">
<title>12404</title>
<polygon fill="none" stroke="black" points="2927.13,-247.72 2927.13,-269.72 3020.13,-269.72 3020.13,-247.72 2927.13,-247.72"/>
<text text-anchor="start" x="2940.63" y="-253.42" font-family="Times,serif" font-size="14.00">Permissions</text>
<polygon fill="none" stroke="black" points="3022.13,-247.72 3022.13,-269.72 3143.13,-269.72 3143.13,-247.72 3022.13,-247.72"/>
<text text-anchor="start" x="3053.01" y="-253.42" font-family="Times,serif" font-size="14.00">Conditions</text>
<polygon fill="none" stroke="black" points="3145.13,-247.72 3145.13,-269.72 3214.13,-269.72 3214.13,-247.72 3145.13,-247.72"/>
<text text-anchor="start" x="3148.13" y="-253.42" font-family="Times,serif" font-size="14.00">Limitations</text>
<polygon fill="none" stroke="black" points="3216.13,-247.72 3216.13,-269.72 3286.13,-269.72 3286.13,-247.72 3216.13,-247.72"/>
<text text-anchor="start" x="3218.88" y="-253.42" font-family="Times,serif" font-size="14.00">Restrictions</text>
<polygon fill="none" stroke="black" points="2927.13,-157.72 2927.13,-245.72 3020.13,-245.72 3020.13,-157.72 2927.13,-157.72"/>
<text text-anchor="start" x="2929.76" y="-229.42" font-family="Times,serif" font-size="14.00">commercial&#45;use</text>
<text text-anchor="start" x="2936.13" y="-212.92" font-family="Times,serif" font-size="14.00">modifications</text>
<text text-anchor="start" x="2942.51" y="-196.42" font-family="Times,serif" font-size="14.00">distribution</text>
<text text-anchor="start" x="2943.63" y="-179.92" font-family="Times,serif" font-size="14.00">private&#45;use</text>
<text text-anchor="start" x="2945.88" y="-163.42" font-family="Times,serif" font-size="14.00">patent&#45;use</text>
<polygon fill="none" stroke="black" points="3022.13,-157.72 3022.13,-245.72 3143.13,-245.72 3143.13,-157.72 3022.13,-157.72"/>
<text text-anchor="start" x="3034.63" y="-221.42" font-family="Times,serif" font-size="14.00">include&#45;copyright</text>
<text text-anchor="start" x="3031.63" y="-204.92" font-family="Times,serif" font-size="14.00">document&#45;changes</text>
<text text-anchor="start" x="3041.01" y="-188.42" font-family="Times,serif" font-size="14.00">disclose&#45;source</text>
<text text-anchor="start" x="3024.88" y="-171.92" font-family="Times,serif" font-size="14.00">same&#45;license&#45;&#45;library</text>
<polygon fill="none" stroke="black" points="3145.13,-157.72 3145.13,-245.72 3214.13,-245.72 3214.13,-157.72 3145.13,-157.72"/>
<text text-anchor="start" x="3158.63" y="-204.92" font-family="Times,serif" font-size="14.00">liability</text>
<text text-anchor="start" x="3155.63" y="-188.42" font-family="Times,serif" font-size="14.00">warranty</text>
<polygon fill="none" stroke="black" points="3216.13,-157.72 3216.13,-245.72 3286.13,-245.72 3286.13,-157.72 3216.13,-157.72"/>
<polygon fill="none" stroke="black" points="2924.13,-154.72 2924.13,-272.72 3289.13,-272.72 3289.13,-154.72 2924.13,-154.72"/>
</g>
<!-- 12404&#45;&gt;12399 -->
<g id="edge27" class="edge">
<title>12404&#45;&gt;12399</title>
<path fill="none" stroke="#58a066" d="M3069.74,-276.64C3014.18,-369.7 2980.94,-412.49 2794.28,-646.37"/>
<polygon fill="#58a066" stroke="#58a066" points="2791.74,-643.95 2788.23,-653.94 2797.21,-648.31 2791.74,-643.95"/>
</g>
<!-- 12439 -->
<g id="node16" class="node">
<title>12439</title>
<text text-anchor="middle" x="1236.11" y="-2779.18" font-family="Times,serif" font-size="14.00">LicenseType Copyleft Limited</text>
</g>
<!-- 15339 -->
<g id="node21" class="node">
<title>15339</title>
<ellipse fill="none" stroke="#deb256" cx="998.47" cy="-2428.43" rx="156.62" ry="28.99"/>
<text text-anchor="middle" x="998.47" y="-2431.63" font-family="Times,serif" font-size="14.00" fill="gray">ScancodeData</text>
<text text-anchor="middle" x="998.47" y="-2415.13" font-family="Times,serif" font-size="14.00" fill="gray">2aacb86f8724383f8894babbfe16d027</text>
</g>
<!-- 12439&#45;&gt;15339 -->
<g id="edge28" class="edge">
<title>12439&#45;&gt;15339</title>
<path fill="none" stroke="#deb256" d="M1208.51,-2766.48C1077.82,-2681.99 1066.42,-2664.75 1010.02,-2468.76"/>
<polygon fill="#deb256" stroke="#deb256" points="1013.4,-2467.86 1007.28,-2459.22 1006.67,-2469.79 1013.4,-2467.86"/>
</g>
<!-- 15320 -->
<g id="node17" class="node">
<title>15320</title>
<text text-anchor="middle" x="628.3" y="-2944.56" font-family="Times,serif" font-size="14.00">https://www.ohwr.org/project/cernohl/wikis/Documents/CERN&#45;OHL&#45;version&#45;2</text>
</g>
<!-- 15320&#45;&gt;15339 -->
<g id="edge29" class="edge">
<title>15320&#45;&gt;15339</title>
<path fill="none" stroke="#deb256" d="M639.02,-2931.87C725.08,-2789.48 737.31,-2772.27 969.65,-2466.37"/>
<polygon fill="#deb256" stroke="#deb256" points="972.41,-2468.52 975.67,-2458.44 966.84,-2464.29 972.41,-2468.52"/>
</g>
<!-- 15326 -->
<g id="node18" class="node">
<title>15326</title>
<text text-anchor="middle" x="586.88" y="-2303.02" font-family="Times,serif" font-size="14.00">https://ohwr.org/project/cernohl</text>
</g>
<!-- 15326&#45;&gt;15339 -->
<g id="edge30" class="edge">
<title>15326&#45;&gt;15339</title>
<path fill="none" stroke="#deb256" d="M608.73,-2325.89C693.54,-2394.74 724.47,-2413.93 833.15,-2421.97"/>
<polygon fill="#deb256" stroke="#deb256" points="832.9,-2425.46 843.12,-2422.66 833.38,-2418.48 832.9,-2425.46"/>
</g>
<!-- 15327 -->
<g id="node19" class="node">
<title>15327</title>
<text text-anchor="middle" x="606.17" y="-2526.77" font-family="Times,serif" font-size="14.00">https://cern&#45;ohl.web.cern.ch/</text>
</g>
<!-- 15327&#45;&gt;15339 -->
<g id="edge31" class="edge">
<title>15327&#45;&gt;15339</title>
<path fill="none" stroke="#deb256" d="M692.17,-2531.4C749.7,-2527.66 794.31,-2512.19 923.5,-2459.3"/>
<polygon fill="#deb256" stroke="#deb256" points="924.44,-2462.7 932.37,-2455.67 921.79,-2456.22 924.44,-2462.7"/>
</g>
<!-- 15328 -->
<g id="node20" class="node">
<title>15328</title>
<text text-anchor="middle" x="453.74" y="-2702.04" font-family="Times,serif" font-size="14.00">https://ohwr.org/project/cernohl/wikis/Documents/CERN&#45;OHL&#45;version&#45;2</text>
</g>
<!-- 15328&#45;&gt;15339 -->
<g id="edge32" class="edge">
<title>15328&#45;&gt;15339</title>
<path fill="none" stroke="#deb256" d="M510.7,-2689.18C632.8,-2649.93 673.09,-2627.44 942.95,-2462.4"/>
<polygon fill="#deb256" stroke="#deb256" points="944.65,-2465.47 951.35,-2457.26 940.99,-2459.5 944.65,-2465.47"/>
</g>
<!-- 15339&#45;&gt;15340 -->
<g id="edge33" class="edge">
<title>15339&#45;&gt;15340</title>
<path fill="none" stroke="#deb256" d="M1008.52,-2399.28C1078.41,-2197.09 1092.74,-2174.77 1377.71,-1785.67"/>
<polygon fill="#deb256" stroke="#deb256" points="1380.52,-1787.77 1383.6,-1777.63 1374.87,-1783.63 1380.52,-1787.77"/>
</g>
<!-- 15340&#45;&gt;1384 -->
<g id="edge34" class="edge">
<title>15340&#45;&gt;1384</title>
<path fill="none" stroke="#00876c" stroke-width="2" d="M1418.41,-1731.79C1478.01,-1646.51 1671.34,-1340.42 1732.38,-1235.14"/>
<polygon fill="#00876c" stroke="#00876c" stroke-width="2" points="1736.65,-1227.71 1735.57,-1238.62 1735.81,-1230.18 1732.1,-1236.63 1731.67,-1236.38 1731.24,-1236.13 1734.94,-1229.68 1727.77,-1234.14 1736.65,-1227.71"/>
</g>
<!-- 15340&#45;&gt;46716 -->
<g id="edge35" class="edge">
<title>15340&#45;&gt;46716</title>
<path fill="none" stroke="#379469" stroke-dasharray="5,2" d="M1365.25,-1731.75C1361.44,-1728.68 1358.54,-1725.69 1356.1,-1722.28"/>
<polygon fill="#379469" stroke="#379469" points="1351.32,-1713.76 1360.14,-1720.28 1353.17,-1717.05 1356.21,-1722.48 1356.21,-1722.48 1356.21,-1722.48 1353.17,-1717.05 1352.29,-1724.68 1351.32,-1713.76"/>
</g>
<!-- 15341 -->
<g id="node23" class="node">
<title>15341</title>
<text text-anchor="middle" x="865.76" y="-2861.54" font-family="Times,serif" font-size="14.00">https://opensource.org/CERN&#45;OHL&#45;W</text>
</g>
<!-- 15341&#45;&gt;15339 -->
<g id="edge36" class="edge">
<title>15341&#45;&gt;15339</title>
<path fill="none" stroke="#deb256" d="M866.78,-2848.67C873.97,-2724.37 878.84,-2707.65 981.51,-2467.98"/>
<polygon fill="#deb256" stroke="#deb256" points="984.68,-2469.48 985.4,-2458.91 978.24,-2466.72 984.68,-2469.48"/>
</g>
<!-- 15342 -->
<g id="node24" class="node">
<title>15342</title>
<text text-anchor="middle" x="1118.26" y="-2897.69" font-family="Times,serif" font-size="14.00">OSI: https://opensource.org/CERN&#45;OHL&#45;W</text>
</g>
<!-- 15342&#45;&gt;15339 -->
<g id="edge37" class="edge">
<title>15342&#45;&gt;15339</title>
<path fill="none" stroke="#deb256" d="M1105.26,-2885.08C1007.62,-2752.15 1002.93,-2735.14 999.04,-2469.1"/>
<polygon fill="#deb256" stroke="#deb256" points="1002.55,-2469.35 998.9,-2459.4 995.55,-2469.45 1002.55,-2469.35"/>
</g>
<!-- 15343 -->
<g id="node25" class="node">
<title>15343</title>
<text text-anchor="middle" x="713.21" y="-2746.16" font-family="Times,serif" font-size="14.00">https://ohwr.org/cern_ohl_w_v2.txt</text>
</g>
<!-- 15343&#45;&gt;15339 -->
<g id="edge38" class="edge">
<title>15343&#45;&gt;15339</title>
<path fill="none" stroke="#deb256" d="M728.41,-2733.28C793.27,-2656.81 808.05,-2640.11 964.75,-2465.91"/>
<polygon fill="#deb256" stroke="#deb256" points="967.22,-2468.4 971.31,-2458.62 962.02,-2463.72 967.22,-2468.4"/>
</g>
<!-- 15344 -->
<g id="node26" class="node">
<title>15344</title>
<text text-anchor="middle" x="290.97" y="-2481.38" font-family="Times,serif" font-size="14.00">https://ohwr.org/project/cernohl/wikis/uploads/10946616b8cbcdef2274a58d9f3a98fb/cern_ohl_w_v2.txt</text>
</g>
<!-- 15344&#45;&gt;15339 -->
<g id="edge39" class="edge">
<title>15344&#45;&gt;15339</title>
<path fill="none" stroke="#deb256" d="M369.02,-2504.41C522.45,-2537.92 577.65,-2531.04 892.11,-2454.48"/>
<polygon fill="#deb256" stroke="#deb256" points="892.57,-2457.97 901.45,-2452.2 890.91,-2451.17 892.57,-2457.97"/>
</g>
<!-- 15345 -->
<g id="node27" class="node">
<title>15345</title>
<text text-anchor="middle" x="932.71" y="-3133.91" font-family="Times,serif" font-size="14.00">https://ohwr.org/project/cernohl/wikis/uploads/b94a1a92b29984226c56a0dd4dca0d39/cern_ohl_w_v2.pdf</text>
</g>
<!-- 15345&#45;&gt;15339 -->
<g id="edge40" class="edge">
<title>15345&#45;&gt;15339</title>
<path fill="none" stroke="#deb256" d="M929.08,-3121.26C885.32,-2907.05 886.67,-2889.62 988.68,-2468.78"/>
<polygon fill="#deb256" stroke="#deb256" points="992.03,-2469.82 990.99,-2459.28 985.23,-2468.17 992.03,-2469.82"/>
</g>
<!-- 15346 -->
<g id="node28" class="node">
<title>15346</title>
<text text-anchor="middle" x="1253.78" y="-2601.99" font-family="Times,serif" font-size="14.00">$TEXT</text>
</g>
<!-- 15346&#45;&gt;15339 -->
<g id="edge41" class="edge">
<title>15346&#45;&gt;15339</title>
<path fill="none" stroke="#deb256" d="M1225.27,-2600.27C1104.01,-2571.21 1086.64,-2561.64 1023.8,-2467.07"/>
<polygon fill="#deb256" stroke="#deb256" points="1026.84,-2465.32 1018.4,-2458.91 1021,-2469.18 1026.84,-2465.32"/>
</g>
<!-- 35075&#45;&gt;35076 -->
<g id="edge42" class="edge">
<title>35075&#45;&gt;35076</title>
<path fill="none" stroke="#e18745" d="M2615.46,-1068.7C2542.64,-1179.34 2521.89,-1199.45 2289.75,-1400.3"/>
<polygon fill="#e18745" stroke="#e18745" points="2287.47,-1397.65 2282.2,-1406.84 2292.05,-1402.94 2287.47,-1397.65"/>
</g>
<!-- 35077 -->
<g id="node31" class="node">
<title>35077</title>
<text text-anchor="middle" x="3009.86" y="-1084.67" font-family="Times,serif" font-size="14.00">$TEXT</text>
</g>
<!-- 35077&#45;&gt;35075 -->
<g id="edge43" class="edge">
<title>35077&#45;&gt;35075</title>
<path fill="none" stroke="#e18745" d="M2981.32,-1075.73C2918.36,-1045.3 2888.72,-1035.69 2804.76,-1035.22"/>
<polygon fill="#e18745" stroke="#e18745" points="2804.91,-1031.73 2794.91,-1035.22 2804.9,-1038.73 2804.91,-1031.73"/>
</g>
<!-- 35433 -->
<g id="node32" class="node">
<title>35433</title>
<text text-anchor="middle" x="1256.75" y="-12.75" font-family="Times,serif" font-size="14.00">LicenseTag (ScopedLicenseTag &quot;OrtLicenseCategorization&quot; &quot;include&#45;in&#45;notice&#45;file&quot; NoLicenseTagText)</text>
</g>
<!-- 35612 -->
<g id="node35" class="node">
<title>35612</title>
<ellipse fill="none" stroke="#d43d51" cx="1398.5" cy="-684.13" rx="157.68" ry="28.99"/>
<text text-anchor="middle" x="1398.5" y="-687.33" font-family="Times,serif" font-size="14.00" fill="gray">OrtLicenseCategorization</text>
<text text-anchor="middle" x="1398.5" y="-670.83" font-family="Times,serif" font-size="14.00" fill="gray">1bb211fea8d7fcbdb3c7a3771c55b940</text>
</g>
<!-- 35433&#45;&gt;35612 -->
<g id="edge44" class="edge">
<title>35433&#45;&gt;35612</title>
<path fill="none" stroke="#d43d51" d="M1258.6,-35.7C1277.56,-218.6 1281.42,-236.76 1387.93,-643.78"/>
<polygon fill="#d43d51" stroke="#d43d51" points="1384.49,-644.45 1390.41,-653.24 1391.26,-642.68 1384.49,-644.45"/>
</g>
<!-- 35444 -->
<g id="node33" class="node">
<title>35444</title>
<text text-anchor="middle" x="794.74" y="-251.26" font-family="Times,serif" font-size="14.00">LicenseTag (ScopedLicenseTag &quot;OrtLicenseCategorization&quot; &quot;include&#45;source&#45;code&#45;offer&#45;in&#45;notice&#45;file&quot; NoLicenseTagText)</text>
</g>
<!-- 35444&#45;&gt;35612 -->
<g id="edge45" class="edge">
<title>35444&#45;&gt;35612</title>
<path fill="none" stroke="#d43d51" d="M839.06,-274.2C1011.55,-344.44 1041.72,-367.9 1357.73,-647.99"/>
<polygon fill="#d43d51" stroke="#d43d51" points="1355.27,-650.49 1365.08,-654.5 1359.91,-645.25 1355.27,-650.49"/>
</g>
<!-- 35459 -->
<g id="node34" class="node">
<title>35459</title>
<text text-anchor="middle" x="1028.94" y="-132.68" font-family="Times,serif" font-size="14.00">LicenseTag (ScopedLicenseTag &quot;OrtLicenseCategorization&quot; &quot;copyleft&#45;limited&quot; NoLicenseTagText)</text>
</g>
<!-- 35459&#45;&gt;35612 -->
<g id="edge46" class="edge">
<title>35459&#45;&gt;35612</title>
<path fill="none" stroke="#d43d51" d="M1043.38,-155.71C1150.39,-289.02 1162.94,-307.74 1374.24,-645.37"/>
<polygon fill="#d43d51" stroke="#d43d51" points="1371.15,-647.04 1379.42,-653.66 1377.09,-643.32 1371.15,-647.04"/>
</g>
<!-- 35612&#45;&gt;1384 -->
<g id="edge47" class="edge">
<title>35612&#45;&gt;1384</title>
<path fill="none" stroke="#d43d51" d="M1425.8,-712.91C1529.25,-822.38 1546.77,-849.96 1729.78,-1163.15"/>
<polygon fill="#d43d51" stroke="#d43d51" points="1726.69,-1164.8 1734.76,-1171.67 1732.74,-1161.27 1726.69,-1164.8"/>
</g>
<!-- 41379 -->
<g id="node36" class="node">
<title>41379</title>
<ellipse fill="none" stroke="#379469" cx="2501.08" cy="-2327.1" rx="156.62" ry="28.99"/>
<text text-anchor="middle" x="2501.08" y="-2330.3" font-family="Times,serif" font-size="14.00" fill="gray">CavilLicenseChange</text>
<text text-anchor="middle" x="2501.08" y="-2313.8" font-family="Times,serif" font-size="14.00" fill="gray">ecbdc209c845ba0bce95bebe8c6f72e2</text>
</g>
<!-- 41379&#45;&gt;41380 -->
<g id="edge48" class="edge">
<title>41379&#45;&gt;41380</title>
<path fill="none" stroke="#379469" d="M2472.29,-2298.38C2400.23,-2226.4 2377.25,-2202.44 2196.37,-2012.42"/>
<polygon fill="#379469" stroke="#379469" points="2198.95,-2010.05 2189.52,-2005.22 2193.88,-2014.88 2198.95,-2010.05"/>
</g>
<!-- 46715 -->
<g id="node38" class="node">
<title>46715</title>
<ellipse fill="none" stroke="#379469" cx="691.52" cy="-1749.91" rx="159.28" ry="28.99"/>
<text text-anchor="middle" x="691.52" y="-1753.11" font-family="Times,serif" font-size="14.00" fill="gray">MetaeffektLicense</text>
<text text-anchor="middle" x="691.52" y="-1736.61" font-family="Times,serif" font-size="14.00" fill="gray">a545aa2b09d78e4c09b57884f0a37419</text>
</g>
<!-- 46715&#45;&gt;46716 -->
<g id="edge49" class="edge">
<title>46715&#45;&gt;46716</title>
<path fill="none" stroke="#379469" d="M847.09,-1743.22C918.07,-1738.66 994.51,-1730.6 1165.08,-1710.94"/>
<polygon fill="#379469" stroke="#379469" points="1165.42,-1714.43 1174.95,-1709.81 1164.62,-1707.47 1165.42,-1714.43"/>
</g>
<!-- 46717 -->
<g id="node40" class="node">
<title>46717</title>
<polygon fill="none" stroke="#379469" points="915.7,-1301.46 915.7,-1316.37 778.65,-1326.92 584.83,-1326.92 447.78,-1316.37 447.78,-1301.46 584.83,-1290.92 778.65,-1290.92 915.7,-1301.46"/>
<polygon fill="none" stroke="#379469" points="919.7,-1297.76 919.7,-1320.08 778.8,-1330.92 584.67,-1330.92 443.78,-1320.08 443.78,-1297.76 584.67,-1286.92 778.8,-1286.92 919.7,-1297.76"/>
<text text-anchor="middle" x="681.74" y="-1303.87" font-family="Times,serif" font-size="14.00">CERN Open Hardware Licence Weakly Reciprocal 2.0</text>
</g>
<!-- 46717&#45;&gt;46716 -->
<g id="edge50" class="edge">
<title>46717&#45;&gt;46716</title>
<path fill="none" stroke="#379469" stroke-width="2" d="M704.3,-1331.09C853.73,-1477.66 879.21,-1492.47 1279.64,-1663.55"/>
<polygon fill="#379469" stroke="#379469" stroke-width="2" points="1287.54,-1666.92 1276.57,-1667.13 1284.98,-1666.38 1278.14,-1663.45 1278.34,-1662.99 1278.54,-1662.54 1285.38,-1665.46 1280.11,-1658.86 1287.54,-1666.92"/>
</g>
<!-- 46718 -->
<g id="node41" class="node">
<title>46718</title>
<polygon fill="none" stroke="#379469" points="888.89,-1516.47 888.89,-1531.38 806.35,-1541.93 689.63,-1541.93 607.1,-1531.38 607.1,-1516.47 689.63,-1505.93 806.35,-1505.93 888.89,-1516.47"/>
<text text-anchor="middle" x="747.99" y="-1518.88" font-family="Times,serif" font-size="14.00">CERN OHL Weakly Reciprocal</text>
</g>
<!-- 46718&#45;&gt;46716 -->
<g id="edge51" class="edge">
<title>46718&#45;&gt;46716</title>
<path fill="none" stroke="#379469" stroke-dasharray="5,2" d="M784.52,-1542.33C906.76,-1603.49 944.43,-1615.32 1212.55,-1666.01"/>
<polygon fill="#379469" stroke="#379469" points="1222.22,-1667.84 1211.56,-1670.4 1218.5,-1667.13 1212.39,-1665.98 1212.39,-1665.98 1212.39,-1665.98 1218.5,-1667.13 1213.23,-1661.56 1222.22,-1667.84"/>
</g>
<!-- 46719&#45;&gt;46716 -->
<g id="edge52" class="edge">
<title>46719&#45;&gt;46716</title>
<path fill="none" stroke="#379469" stroke-dasharray="5,2" d="M1707.78,-1961.7C1500.3,-1911.77 1477.81,-1892.53 1363.58,-1722.01"/>
<polygon fill="#379469" stroke="#379469" points="1358.03,-1713.72 1367.33,-1719.53 1360.13,-1716.87 1363.59,-1722.04 1363.59,-1722.04 1363.59,-1722.04 1360.13,-1716.87 1359.85,-1724.54 1358.03,-1713.72"/>
</g>
<!-- 66838 -->
<g id="node43" class="node">
<title>66838</title>
<ellipse fill="none" stroke="#00876c" cx="1609.47" cy="-812.62" rx="156.62" ry="28.99"/>
<text text-anchor="middle" x="1609.47" y="-815.82" font-family="Times,serif" font-size="14.00" fill="gray">LicenseLynx</text>
<text text-anchor="middle" x="1609.47" y="-799.32" font-family="Times,serif" font-size="14.00" fill="gray">6e2f3a5a5b791376af919fde82973230</text>
</g>
<!-- 66838&#45;&gt;1384 -->
<g id="edge53" class="edge">
<title>66838&#45;&gt;1384</title>
<path fill="none" stroke="#00876c" d="M1623.08,-841.73C1661.07,-923.47 1669.81,-948.63 1738.94,-1162.29"/>
<polygon fill="#00876c" stroke="#00876c" points="1735.51,-1163.07 1741.92,-1171.5 1742.17,-1160.91 1735.51,-1163.07"/>
</g>
<!-- 66839&#45;&gt;1384 -->
<g id="edge54" class="edge">
<title>66839&#45;&gt;1384</title>
<path fill="none" stroke="#00876c" stroke-width="2" d="M1363.86,-978.04C1447.1,-998.16 1511.72,-1038.9 1702.49,-1166.81"/>
<polygon fill="#00876c" stroke="#00876c" stroke-width="2" points="1709.64,-1171.61 1698.83,-1169.77 1707.24,-1170.6 1701.06,-1166.45 1701.34,-1166.04 1701.62,-1165.62 1707.79,-1169.76 1703.84,-1162.3 1709.64,-1171.61"/>
</g>
</g>
</svg>
