<?xml version="1.0" encoding="UTF-8" standalone="no"?>
<!DOCTYPE svg PUBLIC "-//W3C//DTD SVG 1.1//EN"
 "http://www.w3.org/Graphics/SVG/1.1/DTD/svg11.dtd">
<!-- Generated by graphviz version 10.0.1 (0)
 -->
<!-- Pages: 1 -->
<svg width="3367pt" height="2592pt"
 viewBox="0.00 0.00 3367.00 2592.00" xmlns="http://www.w3.org/2000/svg" xmlns:xlink="http://www.w3.org/1999/xlink">
<g id="graph0" class="graph" transform="scale(1 1) rotate(0) translate(4 2588)">
<polygon fill="white" stroke="none" points="-4,4 -4,-2588 3363,-2588 3363,4 -4,4"/>
<!-- 19 -->
<g id="node1" class="node">
<title>19</title>
<text text-anchor="start" x="770.83" y="-2058.8" font-family="Times,serif" font-size="14.00">OSI: </text>
<text text-anchor="start" x="800.08" y="-2058.8" font-family="Times,serif" font-weight="bold" font-size="14.00" fill="#228b22">Approved</text>
</g>
<!-- 1370 -->
<g id="node2" class="node">
<title>1370</title>
<ellipse fill="none" stroke="#dac767" cx="1022.5" cy="-1799.68" rx="156.09" ry="28.99"/>
<text text-anchor="middle" x="1022.5" y="-1802.88" font-family="Times,serif" font-size="14.00" fill="gray">SPDXLicense</text>
<text text-anchor="middle" x="1022.5" y="-1786.38" font-family="Times,serif" font-size="14.00" fill="gray">37895e9dadd0acc0ac497f3dfe9e6960</text>
</g>
<!-- 19&#45;&gt;1370 -->
<g id="edge1" class="edge">
<title>19&#45;&gt;1370</title>
<path fill="none" stroke="#dac767" d="M825.01,-2044.97C864.3,-1979.42 876.32,-1964.15 989.39,-1836.91"/>
<polygon fill="#dac767" stroke="#dac767" points="991.95,-1839.3 995.98,-1829.5 986.72,-1834.65 991.95,-1839.3"/>
</g>
<!-- 1371 -->
<g id="node3" class="node">
<title>1371</title>
<polygon fill="none" stroke="black" points="1410.99,-1372.45 1410.99,-1387.36 1347.28,-1397.91 1257.18,-1397.91 1193.46,-1387.36 1193.46,-1372.45 1257.18,-1361.91 1347.28,-1361.91 1410.99,-1372.45"/>
<polygon fill="none" stroke="black" points="1414.99,-1369.06 1414.99,-1390.76 1347.61,-1401.91 1256.85,-1401.91 1189.46,-1390.76 1189.46,-1369.06 1256.85,-1357.91 1347.61,-1357.91 1414.99,-1369.06"/>
<polygon fill="none" stroke="black" points="1418.99,-1365.67 1418.99,-1394.15 1347.94,-1405.91 1256.52,-1405.91 1185.46,-1394.15 1185.46,-1365.67 1256.52,-1353.91 1347.94,-1353.91 1418.99,-1365.67"/>
<text text-anchor="middle" x="1302.23" y="-1374.86" font-family="Times,serif" font-size="14.00">spdx:CERN&#45;OHL&#45;P&#45;2.0</text>
</g>
<!-- 1370&#45;&gt;1371 -->
<g id="edge2" class="edge">
<title>1370&#45;&gt;1371</title>
<path fill="none" stroke="#dac767" d="M1032.2,-1770.29C1073.71,-1645.63 1088.33,-1625 1271.66,-1414.92"/>
<polygon fill="#dac767" stroke="#dac767" points="1274.16,-1417.37 1278.1,-1407.54 1268.89,-1412.77 1274.16,-1417.37"/>
</g>
<!-- 9533 -->
<g id="node13" class="node">
<title>9533</title>
<polygon fill="none" stroke="#e09d4b" points="1241.83,-962.17 1241.83,-977.08 1172.93,-987.63 1075.48,-987.63 1006.58,-977.08 1006.58,-962.17 1075.48,-951.63 1172.93,-951.63 1241.83,-962.17"/>
<polygon fill="none" stroke="#e09d4b" points="1245.83,-958.74 1245.83,-980.52 1173.23,-991.63 1075.18,-991.63 1002.58,-980.52 1002.58,-958.74 1075.18,-947.63 1173.23,-947.63 1245.83,-958.74"/>
<text text-anchor="middle" x="1124.21" y="-964.58" font-family="Times,serif" font-size="14.00">Fedora:CERN&#45;OHL&#45;P&#45;2.0</text>
</g>
<!-- 1371&#45;&gt;9533 -->
<g id="edge3" class="edge">
<title>1371&#45;&gt;9533</title>
<path fill="none" stroke="#e09d4b" stroke-width="2" d="M1281.95,-1353.71C1136.93,-1166.19 1127.09,-1147.44 1124.66,-1002.97"/>
<polygon fill="#e09d4b" stroke="#e09d4b" stroke-width="2" points="1124.53,-994.32 1129.18,-1004.25 1125.07,-996.87 1125.18,-1004.31 1124.68,-1004.32 1124.18,-1004.32 1124.07,-996.89 1120.19,-1004.38 1124.53,-994.32"/>
</g>
<!-- 12388 -->
<g id="node16" class="node">
<title>12388</title>
<polygon fill="none" stroke="#58a066" points="1467.76,-1734.37 1467.76,-1749.28 1423.19,-1759.82 1360.16,-1759.82 1315.6,-1749.28 1315.6,-1734.37 1360.16,-1723.82 1423.19,-1723.82 1467.76,-1734.37"/>
<polygon fill="none" stroke="#58a066" points="1471.76,-1731.2 1471.76,-1752.44 1423.66,-1763.82 1359.7,-1763.82 1311.6,-1752.44 1311.6,-1731.2 1359.7,-1719.82 1423.66,-1719.82 1471.76,-1731.2"/>
<text text-anchor="middle" x="1391.68" y="-1736.77" font-family="Times,serif" font-size="14.00">cal:cern&#45;ohl&#45;p&#45;2</text>
</g>
<!-- 1371&#45;&gt;12388 -->
<g id="edge4" class="edge">
<title>1371&#45;&gt;12388</title>
<path fill="none" stroke="#58a066" stroke-width="2" d="M1300.7,-1406.2C1290.15,-1590.18 1292.51,-1610.68 1367.77,-1710.46"/>
<polygon fill="#58a066" stroke="#58a066" stroke-width="2" points="1373.06,-1717.45 1363.44,-1712.2 1371.12,-1715.71 1366.63,-1709.78 1367.03,-1709.48 1367.42,-1709.18 1371.91,-1715.11 1370.61,-1706.77 1373.06,-1717.45"/>
</g>
<!-- 15319 -->
<g id="node22" class="node">
<title>15319</title>
<polygon fill="none" stroke="black" points="1924.84,-1242.33 1924.84,-1257.25 1861.13,-1267.79 1771.03,-1267.79 1707.31,-1257.25 1707.31,-1242.33 1771.03,-1231.79 1861.13,-1231.79 1924.84,-1242.33"/>
<polygon fill="none" stroke="black" points="1928.84,-1238.94 1928.84,-1260.64 1861.46,-1271.79 1770.7,-1271.79 1703.31,-1260.64 1703.31,-1238.94 1770.7,-1227.79 1861.46,-1227.79 1928.84,-1238.94"/>
<text text-anchor="middle" x="1816.08" y="-1244.74" font-family="Times,serif" font-size="14.00">scancode:cern&#45;ohl&#45;p&#45;2.0</text>
</g>
<!-- 1371&#45;&gt;15319 -->
<g id="edge5" class="edge">
<title>1371&#45;&gt;15319</title>
<path fill="none" stroke="#deb256" stroke-width="2" d="M1396.59,-1361.52C1497.28,-1338.12 1654.49,-1298.14 1745.14,-1272.77"/>
<polygon fill="#deb256" stroke="#deb256" stroke-width="2" points="1753.51,-1270.41 1745.11,-1277.45 1751.18,-1271.59 1744.02,-1273.6 1743.89,-1273.12 1743.75,-1272.64 1750.91,-1270.62 1742.67,-1268.79 1753.51,-1270.41"/>
</g>
<!-- 46726 -->
<g id="node43" class="node">
<title>46726</title>
<polygon fill="none" stroke="#379469" points="1928.34,-1190.32 1928.34,-1205.23 1783.18,-1215.77 1577.88,-1215.77 1432.72,-1205.23 1432.72,-1190.32 1577.88,-1179.77 1783.18,-1179.77 1928.34,-1190.32"/>
<polygon fill="none" stroke="#379469" points="1932.34,-1186.6 1932.34,-1208.95 1783.32,-1219.77 1577.74,-1219.77 1428.72,-1208.95 1428.72,-1186.6 1577.74,-1175.77 1783.32,-1175.77 1932.34,-1186.6"/>
<text text-anchor="middle" x="1680.53" y="-1192.72" font-family="Times,serif" font-size="14.00">metaeffekt:CERN Open Hardware Licence Permissive 2.0</text>
</g>
<!-- 1371&#45;&gt;46726 -->
<g id="edge6" class="edge">
<title>1371&#45;&gt;46726</title>
<path fill="none" stroke="#379469" stroke-width="2" d="M1332.44,-1353.52C1401.13,-1294.46 1429.31,-1280.84 1601.79,-1223.69"/>
<polygon fill="#379469" stroke="#379469" stroke-width="2" points="1609.96,-1220.99 1601.88,-1228.4 1607.68,-1222.27 1600.62,-1224.6 1600.47,-1224.13 1600.31,-1223.66 1607.37,-1221.32 1599.05,-1219.86 1609.96,-1220.99"/>
</g>
<!-- 1372 -->
<g id="node4" class="node">
<title>1372</title>
<polygon fill="none" stroke="black" points="1416.57,-1142.81 1416.57,-1157.72 1365.51,-1168.27 1293.31,-1168.27 1242.25,-1157.72 1242.25,-1142.81 1293.31,-1132.27 1365.51,-1132.27 1416.57,-1142.81"/>
<polygon fill="none" stroke="black" points="1420.57,-1139.55 1420.57,-1160.98 1365.92,-1172.27 1292.9,-1172.27 1238.25,-1160.98 1238.25,-1139.55 1292.9,-1128.27 1365.92,-1128.27 1420.57,-1139.55"/>
<text text-anchor="middle" x="1329.41" y="-1145.22" font-family="Times,serif" font-size="14.00">CERN&#45;OHL&#45;P&#45;2.0</text>
</g>
<!-- 1372&#45;&gt;1371 -->
<g id="edge7" class="edge">
<title>1372&#45;&gt;1371</title>
<path fill="none" stroke="black" stroke-width="2" d="M1317.39,-1172.76C1275.86,-1251 1272.29,-1266.92 1292.19,-1342.89"/>
<polygon fill="black" stroke="black" stroke-width="2" points="1294.38,-1351.14 1287.46,-1342.63 1293.24,-1348.79 1291.33,-1341.6 1291.81,-1341.48 1292.29,-1341.35 1294.2,-1348.53 1296.16,-1340.32 1294.38,-1351.14"/>
</g>
<!-- 1372&#45;&gt;9533 -->
<g id="edge8" class="edge">
<title>1372&#45;&gt;9533</title>
<path fill="none" stroke="#e09d4b" stroke-width="2" d="M1300.06,-1127.89C1202.23,-1053.26 1180.51,-1035.68 1149.96,-1000.4"/>
<polygon fill="#e09d4b" stroke="#e09d4b" stroke-width="2" points="1144.42,-993.91 1154.33,-998.6 1146.46,-995.54 1151.29,-1001.19 1150.91,-1001.52 1150.53,-1001.84 1145.7,-996.19 1147.49,-1004.44 1144.42,-993.91"/>
</g>
<!-- 1372&#45;&gt;15319 -->
<g id="edge9" class="edge">
<title>1372&#45;&gt;15319</title>
<path fill="none" stroke="black" stroke-width="2" d="M1421.02,-1143.57C1503.89,-1141 1556.45,-1156.74 1748.56,-1225.54"/>
<polygon fill="black" stroke="black" stroke-width="2" points="1756.71,-1228.46 1745.78,-1229.32 1754.13,-1228.06 1747.13,-1225.56 1747.3,-1225.09 1747.47,-1224.61 1754.47,-1227.12 1748.82,-1220.85 1756.71,-1228.46"/>
</g>
<!-- 35070 -->
<g id="node35" class="node">
<title>35070</title>
<polygon fill="none" stroke="#e18745" points="1674.77,-1468.85 1674.77,-1483.76 1599.37,-1494.3 1492.75,-1494.3 1417.35,-1483.76 1417.35,-1468.85 1492.75,-1458.3 1599.37,-1458.3 1674.77,-1468.85"/>
<polygon fill="none" stroke="#e18745" points="1678.77,-1465.37 1678.77,-1487.24 1599.65,-1498.3 1492.47,-1498.3 1413.35,-1487.24 1413.35,-1465.37 1492.47,-1454.3 1599.65,-1454.3 1678.77,-1465.37"/>
<text text-anchor="middle" x="1546.06" y="-1471.25" font-family="Times,serif" font-size="14.00">fossology:CERN&#45;OHL&#45;P&#45;2.0</text>
</g>
<!-- 1372&#45;&gt;35070 -->
<g id="edge10" class="edge">
<title>1372&#45;&gt;35070</title>
<path fill="none" stroke="#e18745" stroke-width="2" d="M1333.42,-1172.62C1358.26,-1310.08 1367.06,-1325.66 1511.01,-1446.89"/>
<polygon fill="#e18745" stroke="#e18745" stroke-width="2" points="1517.46,-1452.31 1506.91,-1449.32 1515.18,-1451.04 1509.48,-1446.26 1509.81,-1445.87 1510.13,-1445.49 1515.82,-1450.28 1512.7,-1442.43 1517.46,-1452.31"/>
</g>
<!-- 41376 -->
<g id="node41" class="node">
<title>41376</title>
<polygon fill="none" stroke="#379469" points="1226.08,-1154.56 1226.08,-1169.48 1162.05,-1180.02 1071.48,-1180.02 1007.45,-1169.48 1007.45,-1154.56 1071.48,-1144.02 1162.05,-1144.02 1226.08,-1154.56"/>
<polygon fill="none" stroke="#379469" points="1230.08,-1151.17 1230.08,-1172.87 1162.37,-1184.02 1071.16,-1184.02 1003.45,-1172.87 1003.45,-1151.17 1071.16,-1140.02 1162.37,-1140.02 1230.08,-1151.17"/>
<text text-anchor="middle" x="1116.76" y="-1156.97" font-family="Times,serif" font-size="14.00">cavil:CERN&#45;OHL&#45;P&#45;2.0</text>
</g>
<!-- 1372&#45;&gt;41376 -->
<g id="edge11" class="edge">
<title>1372&#45;&gt;41376</title>
<path fill="none" stroke="#379469" stroke-width="2" d="M1237.85,-1146.78C1229.88,-1146.59 1222.74,-1146.48 1216.24,-1146.47"/>
<polygon fill="#379469" stroke="#379469" stroke-width="2" points="1207.62,-1146.55 1217.58,-1141.96 1210.18,-1146.03 1217.61,-1145.96 1217.62,-1146.46 1217.62,-1146.96 1210.19,-1147.03 1217.66,-1150.96 1207.62,-1146.55"/>
</g>
<!-- 1372&#45;&gt;46726 -->
<g id="edge12" class="edge">
<title>1372&#45;&gt;46726</title>
<path fill="none" stroke="#379469" stroke-dasharray="5,2" d="M1420.92,-1141.41C1460.52,-1141.47 1500.4,-1149.77 1586.57,-1172.51"/>
<polygon fill="#379469" stroke="#379469" points="1596.13,-1175.04 1585.31,-1176.83 1592.48,-1174.08 1586.47,-1172.48 1586.47,-1172.48 1586.47,-1172.48 1592.48,-1174.08 1587.62,-1168.13 1596.13,-1175.04"/>
</g>
<!-- 46729 -->
<g id="node46" class="node">
<title>46729</title>
<polygon fill="none" stroke="#379469" points="1506.77,-871.39 1506.77,-886.3 1447.28,-896.84 1363.14,-896.84 1303.65,-886.3 1303.65,-871.39 1363.14,-860.84 1447.28,-860.84 1506.77,-871.39"/>
<polygon fill="none" stroke="#379469" points="1510.77,-868.03 1510.77,-889.65 1447.63,-900.84 1362.79,-900.84 1299.65,-889.65 1299.65,-868.03 1362.79,-856.84 1447.63,-856.84 1510.77,-868.03"/>
<text text-anchor="middle" x="1405.21" y="-873.79" font-family="Times,serif" font-size="14.00">osi:CERN&#45;OHL&#45;P&#45;2.0</text>
</g>
<!-- 1372&#45;&gt;46729 -->
<g id="edge13" class="edge">
<title>1372&#45;&gt;46729</title>
<path fill="none" stroke="#379469" stroke-width="2" d="M1328.87,-1127.96C1325.78,-995.56 1328.03,-975.98 1380.12,-909.95"/>
<polygon fill="#379469" stroke="#379469" stroke-width="2" points="1385.56,-903.11 1382.85,-913.74 1384.36,-905.43 1379.72,-911.25 1379.33,-910.93 1378.94,-910.62 1383.57,-904.81 1375.81,-908.13 1385.56,-903.11"/>
</g>
<!-- 1373 -->
<g id="node5" class="node">
<title>1373</title>
<polygon fill="none" stroke="black" points="1922.57,-1416.8 1922.57,-1431.72 1786.17,-1442.26 1593.27,-1442.26 1456.86,-1431.72 1456.86,-1416.8 1593.27,-1406.26 1786.17,-1406.26 1922.57,-1416.8"/>
<polygon fill="none" stroke="black" points="1926.57,-1413.1 1926.57,-1435.42 1786.32,-1446.26 1593.11,-1446.26 1452.86,-1435.42 1452.86,-1413.1 1593.11,-1402.26 1786.32,-1402.26 1926.57,-1413.1"/>
<text text-anchor="middle" x="1689.72" y="-1419.21" font-family="Times,serif" font-size="14.00">CERN Open Hardware Licence Version 2 &#45; Permissive</text>
</g>
<!-- 1373&#45;&gt;1371 -->
<g id="edge14" class="edge">
<title>1373&#45;&gt;1371</title>
<path fill="none" stroke="#dac767" stroke-width="2" d="M1452.44,-1432.86C1419.72,-1429.82 1395.09,-1422.6 1365,-1409.65"/>
<polygon fill="#dac767" stroke="#dac767" stroke-width="2" points="1357.25,-1406.22 1368.22,-1406.15 1359.8,-1406.8 1366.6,-1409.81 1366.4,-1410.26 1366.19,-1410.72 1359.39,-1407.71 1364.58,-1414.38 1357.25,-1406.22"/>
</g>
<!-- 1373&#45;&gt;12388 -->
<g id="edge15" class="edge">
<title>1373&#45;&gt;12388</title>
<path fill="none" stroke="#58a066" stroke-width="2" d="M1672.26,-1446.48C1526.54,-1631.9 1503.76,-1659.46 1431.27,-1713.11"/>
<polygon fill="#58a066" stroke="#58a066" stroke-width="2" points="1424.62,-1718 1430.01,-1708.45 1426.39,-1716.08 1432.38,-1711.68 1432.68,-1712.08 1432.98,-1712.48 1426.98,-1716.89 1435.34,-1715.71 1424.62,-1718"/>
</g>
<!-- 1373&#45;&gt;15319 -->
<g id="edge16" class="edge">
<title>1373&#45;&gt;15319</title>
<path fill="none" stroke="#deb256" stroke-width="2" d="M1724.09,-1401.79C1781.58,-1363.35 1791.27,-1348.93 1808.02,-1282.75"/>
<polygon fill="#deb256" stroke="#deb256" stroke-width="2" points="1810.07,-1274.5 1812.02,-1285.3 1809.93,-1277.11 1808.14,-1284.33 1807.65,-1284.21 1807.17,-1284.09 1808.96,-1276.87 1803.29,-1283.12 1810.07,-1274.5"/>
</g>
<!-- 1373&#45;&gt;35070 -->
<g id="edge17" class="edge">
<title>1373&#45;&gt;35070</title>
<path fill="none" stroke="#e18745" stroke-width="2" d="M1655.32,-1446.69C1651.6,-1449.06 1648.11,-1451.26 1644.82,-1453.29"/>
<polygon fill="#e18745" stroke="#e18745" stroke-width="2" points="1637.58,-1457.65 1643.83,-1448.64 1639.52,-1455.9 1645.89,-1452.06 1646.15,-1452.49 1646.41,-1452.92 1640.04,-1456.75 1648.47,-1456.35 1637.58,-1457.65"/>
</g>
<!-- 1373&#45;&gt;46726 -->
<g id="edge18" class="edge">
<title>1373&#45;&gt;46726</title>
<path fill="none" stroke="#379469" stroke-dasharray="5,2" d="M1692.3,-1401.91C1697.26,-1356.59 1696.17,-1338.93 1684.24,-1231.16"/>
<polygon fill="#379469" stroke="#379469" points="1683.15,-1221.3 1688.72,-1230.74 1683.56,-1225.06 1684.25,-1231.24 1684.25,-1231.24 1684.25,-1231.24 1683.56,-1225.06 1679.78,-1231.73 1683.15,-1221.3"/>
</g>
<!-- 66835 -->
<g id="node48" class="node">
<title>66835</title>
<polygon fill="none" stroke="#00876c" points="2200.32,-1468.92 2200.32,-1483.83 2051.26,-1494.37 1840.46,-1494.37 1691.4,-1483.83 1691.4,-1468.92 1840.46,-1458.37 2051.26,-1458.37 2200.32,-1468.92"/>
<polygon fill="none" stroke="#00876c" points="2204.32,-1465.19 2204.32,-1487.56 2051.4,-1498.37 1840.32,-1498.37 1687.4,-1487.56 1687.4,-1465.19 1840.32,-1454.37 2051.4,-1454.37 2204.32,-1465.19"/>
<text text-anchor="middle" x="1945.86" y="-1471.32" font-family="Times,serif" font-size="14.00">spdx:CERN Open Hardware Licence Version 2 &#45; Permissive</text>
</g>
<!-- 1373&#45;&gt;66835 -->
<g id="edge19" class="edge">
<title>1373&#45;&gt;66835</title>
<path fill="none" stroke="#00876c" stroke-width="2" d="M1745.73,-1446.7C1752.82,-1449.51 1759.5,-1452.13 1765.81,-1454.56"/>
<polygon fill="#00876c" stroke="#00876c" stroke-width="2" points="1773.8,-1457.62 1762.85,-1458.25 1771.23,-1457.17 1764.28,-1454.52 1764.46,-1454.05 1764.64,-1453.58 1771.59,-1456.24 1766.07,-1449.85 1773.8,-1457.62"/>
</g>
<!-- 1374 -->
<g id="node6" class="node">
<title>1374</title>
<text text-anchor="middle" x="678.6" y="-1961.42" font-family="Times,serif" font-size="14.00">$TEXT</text>
</g>
<!-- 1374&#45;&gt;1370 -->
<g id="edge20" class="edge">
<title>1374&#45;&gt;1370</title>
<path fill="none" stroke="#dac767" d="M707.12,-1956.29C781.61,-1929.48 805.54,-1917.88 961.44,-1832.98"/>
<polygon fill="#dac767" stroke="#dac767" points="962.97,-1836.13 970.07,-1828.27 959.62,-1829.98 962.97,-1836.13"/>
</g>
<!-- 1375 -->
<g id="node7" class="node">
<title>1375</title>
<text text-anchor="middle" x="511.96" y="-2054.7" font-family="Times,serif" font-size="14.00">$TEXT</text>
</g>
<!-- 1375&#45;&gt;1374 -->
<g id="edge21" class="edge">
<title>1375&#45;&gt;1374</title>
<path fill="none" stroke="#dac767" d="M540.55,-2045.48C564.6,-2033.24 582.5,-2023 640.63,-1988.82"/>
<polygon fill="#dac767" stroke="#dac767" points="642.16,-1991.98 649.01,-1983.89 638.62,-1985.95 642.16,-1991.98"/>
</g>
<!-- 1376 -->
<g id="node8" class="node">
<title>1376</title>
<text text-anchor="middle" x="1095.93" y="-1849.67" font-family="Times,serif" font-size="14.00">https://www.ohwr.org/project/cernohl/wikis/Documents/CERN&#45;OHL&#45;version&#45;2</text>
</g>
<!-- 1376&#45;&gt;1370 -->
<g id="edge22" class="edge">
<title>1376&#45;&gt;1370</title>
<path fill="none" stroke="#dac767" d="M1049.66,-1836.83C1049.56,-1836.76 1049.47,-1836.69 1049.37,-1836.62"/>
<polygon fill="#dac767" stroke="#dac767" points="1051.84,-1834.14 1042.16,-1829.84 1047.05,-1839.24 1051.84,-1834.14"/>
</g>
<!-- 35069 -->
<g id="node34" class="node">
<title>35069</title>
<ellipse fill="none" stroke="#e18745" cx="1574.8" cy="-1879.98" rx="160.34" ry="28.99"/>
<text text-anchor="middle" x="1574.8" y="-1883.18" font-family="Times,serif" font-size="14.00" fill="gray">Fossology</text>
<text text-anchor="middle" x="1574.8" y="-1866.68" font-family="Times,serif" font-size="14.00" fill="gray">e92c9a58c1791443ec0510a9886b7692</text>
</g>
<!-- 1376&#45;&gt;35069 -->
<g id="edge23" class="edge">
<title>1376&#45;&gt;35069</title>
<path fill="none" stroke="#e18745" d="M1131.94,-1872.63C1263.22,-1937.39 1296.6,-1944.36 1465.78,-1905.86"/>
<polygon fill="#e18745" stroke="#e18745" points="1466.42,-1909.31 1475.38,-1903.66 1464.85,-1902.48 1466.42,-1909.31"/>
</g>
<!-- 5550 -->
<g id="node9" class="node">
<title>5550</title>
<text text-anchor="middle" x="2705.16" y="-1350.3" font-family="Times,serif" font-size="14.00">LicenseType Permissive</text>
</g>
<!-- 15318 -->
<g id="node21" class="node">
<title>15318</title>
<ellipse fill="none" stroke="#deb256" cx="2378.19" cy="-1202.09" rx="158.75" ry="28.99"/>
<text text-anchor="middle" x="2378.19" y="-1205.29" font-family="Times,serif" font-size="14.00" fill="gray">ScancodeData</text>
<text text-anchor="middle" x="2378.19" y="-1188.79" font-family="Times,serif" font-size="14.00" fill="gray">764eb2550692d25302103f8a3bbf0ced</text>
</g>
<!-- 5550&#45;&gt;15318 -->
<g id="edge24" class="edge">
<title>5550&#45;&gt;15318</title>
<path fill="none" stroke="#deb256" d="M2684.36,-1337.7C2623.87,-1286.83 2601.65,-1274.65 2468.08,-1231.05"/>
<polygon fill="#deb256" stroke="#deb256" points="2469.44,-1227.81 2458.85,-1228.04 2467.28,-1234.47 2469.44,-1227.81"/>
</g>
<!-- 6870 -->
<g id="node10" class="node">
<title>6870</title>
<text text-anchor="start" x="511.41" y="-13.68" font-family="Times,serif" font-size="14.00">Fedora: </text>
<text text-anchor="start" x="556.41" y="-13.68" font-family="Times,serif" font-weight="bold" font-size="14.00" fill="#000000">allowed&#45;content</text>
</g>
<!-- 6968 -->
<g id="node11" class="node">
<title>6968</title>
<text text-anchor="middle" x="704.17" y="-224.73" font-family="Times,serif" font-size="14.00">[&quot;allowed&#45;content&quot;]</text>
</g>
<!-- 6870&#45;&gt;6968 -->
<g id="edge25" class="edge">
<title>6870&#45;&gt;6968</title>
<path fill="none" stroke="#e09d4b" d="M587.31,-35.55C608.39,-84.3 616.87,-98.33 686.14,-202.63"/>
<polygon fill="#e09d4b" stroke="#e09d4b" points="683.06,-204.33 691.51,-210.73 688.89,-200.46 683.06,-204.33"/>
</g>
<!-- 9532 -->
<g id="node12" class="node">
<title>9532</title>
<ellipse fill="none" stroke="#e09d4b" cx="882.06" cy="-552.61" rx="155.56" ry="28.99"/>
<text text-anchor="middle" x="882.06" y="-555.81" font-family="Times,serif" font-size="14.00" fill="gray">FedoraEntry</text>
<text text-anchor="middle" x="882.06" y="-539.31" font-family="Times,serif" font-size="14.00" fill="gray">00efaa355353bd0f8ea949e07f64242c</text>
</g>
<!-- 6968&#45;&gt;9532 -->
<g id="edge26" class="edge">
<title>6968&#45;&gt;9532</title>
<path fill="none" stroke="#e09d4b" d="M710.27,-247.57C739.73,-333.12 748.36,-349.03 856.73,-514.07"/>
<polygon fill="#e09d4b" stroke="#e09d4b" points="853.74,-515.89 862.16,-522.33 859.59,-512.05 853.74,-515.89"/>
</g>
<!-- 9532&#45;&gt;9533 -->
<g id="edge27" class="edge">
<title>9532&#45;&gt;9533</title>
<path fill="none" stroke="#e09d4b" d="M891.01,-581.96C926.6,-697.57 939.93,-718.67 1101,-938.04"/>
<polygon fill="#e09d4b" stroke="#e09d4b" points="1098.15,-940.07 1106.89,-946.06 1103.79,-935.92 1098.15,-940.07"/>
</g>
<!-- 12238 -->
<g id="node14" class="node">
<title>12238</title>
<text text-anchor="middle" x="1911.23" y="-2482.87" font-family="Times,serif" font-size="14.00">ChooseALicense:</text>
<text text-anchor="middle" x="1911.23" y="-2466.37" font-family="Times,serif" font-size="14.00">How to apply this license:</text>
<text text-anchor="middle" x="1911.23" y="-2449.87" font-family="Times,serif" font-size="14.00">Create a text file (typically named LICENSE or LICENSE.txt) in the root of your</text>
<text text-anchor="middle" x="1911.23" y="-2433.37" font-family="Times,serif" font-size="14.00">source code and copy the text of the license into the file.</text>
</g>
<!-- 12387 -->
<g id="node15" class="node">
<title>12387</title>
<ellipse fill="none" stroke="#58a066" cx="1596.23" cy="-2033.61" rx="158.75" ry="28.99"/>
<text text-anchor="middle" x="1596.23" y="-2036.81" font-family="Times,serif" font-size="14.00" fill="gray">ChooseALicense</text>
<text text-anchor="middle" x="1596.23" y="-2020.31" font-family="Times,serif" font-size="14.00" fill="gray">aaa999bc0952d0de7011826cb4d918fc</text>
</g>
<!-- 12238&#45;&gt;12387 -->
<g id="edge28" class="edge">
<title>12238&#45;&gt;12387</title>
<path fill="none" stroke="#58a066" d="M1860.95,-2426.19C1764.22,-2353.15 1742.9,-2317.39 1616.36,-2072.58"/>
<polygon fill="#58a066" stroke="#58a066" points="1619.63,-2071.28 1611.93,-2064 1613.41,-2074.49 1619.63,-2071.28"/>
</g>
<!-- 12387&#45;&gt;12388 -->
<g id="edge29" class="edge">
<title>12387&#45;&gt;12388</title>
<path fill="none" stroke="#58a066" d="M1551.99,-2005.3C1476.3,-1955.11 1463.15,-1929.78 1404.14,-1774.67"/>
<polygon fill="#58a066" stroke="#58a066" points="1407.55,-1773.78 1400.72,-1765.68 1401,-1776.27 1407.55,-1773.78"/>
</g>
<!-- 12389 -->
<g id="node17" class="node">
<title>12389</title>
<polygon fill="none" stroke="#58a066" points="1451.25,-1967.15 1451.25,-1982.06 1415.12,-1992.6 1364.03,-1992.6 1327.9,-1982.06 1327.9,-1967.15 1364.03,-1956.6 1415.12,-1956.6 1451.25,-1967.15"/>
<polygon fill="none" stroke="#58a066" points="1455.25,-1964.15 1455.25,-1985.06 1415.69,-1996.6 1363.46,-1996.6 1323.9,-1985.06 1323.9,-1964.15 1363.46,-1952.6 1415.69,-1952.6 1455.25,-1964.15"/>
<text text-anchor="middle" x="1389.58" y="-1969.55" font-family="Times,serif" font-size="14.00">cern&#45;ohl&#45;p&#45;2</text>
</g>
<!-- 12389&#45;&gt;12388 -->
<g id="edge30" class="edge">
<title>12389&#45;&gt;12388</title>
<path fill="none" stroke="#58a066" stroke-width="2" d="M1383.7,-1952.4C1370.92,-1902.45 1371.65,-1885.32 1387.01,-1775.13"/>
<polygon fill="#58a066" stroke="#58a066" stroke-width="2" points="1388.2,-1766.58 1391.27,-1777.11 1388.34,-1769.19 1387.31,-1776.55 1386.82,-1776.48 1386.32,-1776.41 1387.35,-1769.05 1382.36,-1775.86 1388.2,-1766.58"/>
</g>
<!-- 12390 -->
<g id="node18" class="node">
<title>12390</title>
<polygon fill="none" stroke="#58a066" points="1315.39,-2008.75 1315.39,-2023.67 1244.54,-2034.21 1144.34,-2034.21 1073.49,-2023.67 1073.49,-2008.75 1144.34,-1998.21 1244.54,-1998.21 1315.39,-2008.75"/>
<text text-anchor="middle" x="1194.44" y="-2011.16" font-family="Times,serif" font-size="14.00">CERN OHL v2 Permissive</text>
</g>
<!-- 12390&#45;&gt;12388 -->
<g id="edge31" class="edge">
<title>12390&#45;&gt;12388</title>
<path fill="none" stroke="#58a066" stroke-dasharray="5,2" d="M1208.43,-1997.82C1253.83,-1938.09 1265.63,-1921.57 1369.89,-1772.89"/>
<polygon fill="#58a066" stroke="#58a066" points="1375.53,-1764.85 1373.47,-1775.62 1373.36,-1767.94 1369.79,-1773.04 1369.79,-1773.04 1369.79,-1773.04 1373.36,-1767.94 1366.11,-1770.45 1375.53,-1764.85"/>
</g>
<!-- 12391 -->
<g id="node19" class="node">
<title>12391</title>
<text text-anchor="middle" x="1450.5" y="-2567.1" font-family="Times,serif" font-size="14.00">ChooseALicense:</text>
<text text-anchor="middle" x="1450.5" y="-2550.6" font-family="Times,serif" font-size="14.00">A permissive license for hardware designs, with conditions only requiring</text>
<text text-anchor="middle" x="1450.5" y="-2534.1" font-family="Times,serif" font-size="14.00">preservation of notices. Contributors provide an express grant of patent rights.</text>
<text text-anchor="middle" x="1450.5" y="-2517.6" font-family="Times,serif" font-size="14.00">Licensed works, modifications, and larger works may be distributed under</text>
<text text-anchor="middle" x="1450.5" y="-2501.1" font-family="Times,serif" font-size="14.00">different terms and without sources.</text>
</g>
<!-- 12391&#45;&gt;12387 -->
<g id="edge32" class="edge">
<title>12391&#45;&gt;12387</title>
<path fill="none" stroke="#58a066" d="M1467.61,-2493.92C1506.38,-2390.59 1516.21,-2353.54 1586.17,-2073.83"/>
<polygon fill="#58a066" stroke="#58a066" points="1589.5,-2074.94 1588.53,-2064.39 1582.71,-2073.24 1589.5,-2074.94"/>
</g>
<!-- 12392 -->
<g id="node20" class="node">
<title>12392</title>
<polygon fill="none" stroke="black" points="1422.96,-2167.6 1422.96,-2189.6 1515.96,-2189.6 1515.96,-2167.6 1422.96,-2167.6"/>
<text text-anchor="start" x="1436.46" y="-2173.3" font-family="Times,serif" font-size="14.00">Permissions</text>
<polygon fill="none" stroke="black" points="1517.96,-2167.6 1517.96,-2189.6 1625.96,-2189.6 1625.96,-2167.6 1517.96,-2167.6"/>
<text text-anchor="start" x="1542.33" y="-2173.3" font-family="Times,serif" font-size="14.00">Conditions</text>
<polygon fill="none" stroke="black" points="1627.96,-2167.6 1627.96,-2189.6 1696.96,-2189.6 1696.96,-2167.6 1627.96,-2167.6"/>
<text text-anchor="start" x="1630.96" y="-2173.3" font-family="Times,serif" font-size="14.00">Limitations</text>
<polygon fill="none" stroke="black" points="1698.96,-2167.6 1698.96,-2189.6 1768.96,-2189.6 1768.96,-2167.6 1698.96,-2167.6"/>
<text text-anchor="start" x="1701.71" y="-2173.3" font-family="Times,serif" font-size="14.00">Restrictions</text>
<polygon fill="none" stroke="black" points="1422.96,-2077.6 1422.96,-2165.6 1515.96,-2165.6 1515.96,-2077.6 1422.96,-2077.6"/>
<text text-anchor="start" x="1425.58" y="-2149.3" font-family="Times,serif" font-size="14.00">commercial&#45;use</text>
<text text-anchor="start" x="1431.96" y="-2132.8" font-family="Times,serif" font-size="14.00">modifications</text>
<text text-anchor="start" x="1438.33" y="-2116.3" font-family="Times,serif" font-size="14.00">distribution</text>
<text text-anchor="start" x="1439.46" y="-2099.8" font-family="Times,serif" font-size="14.00">private&#45;use</text>
<text text-anchor="start" x="1441.71" y="-2083.3" font-family="Times,serif" font-size="14.00">patent&#45;use</text>
<polygon fill="none" stroke="black" points="1517.96,-2077.6 1517.96,-2165.6 1625.96,-2165.6 1625.96,-2077.6 1517.96,-2077.6"/>
<text text-anchor="start" x="1523.96" y="-2124.8" font-family="Times,serif" font-size="14.00">include&#45;copyright</text>
<text text-anchor="start" x="1520.96" y="-2108.3" font-family="Times,serif" font-size="14.00">document&#45;changes</text>
<polygon fill="none" stroke="black" points="1627.96,-2077.6 1627.96,-2165.6 1696.96,-2165.6 1696.96,-2077.6 1627.96,-2077.6"/>
<text text-anchor="start" x="1641.46" y="-2124.8" font-family="Times,serif" font-size="14.00">liability</text>
<text text-anchor="start" x="1638.46" y="-2108.3" font-family="Times,serif" font-size="14.00">warranty</text>
<polygon fill="none" stroke="black" points="1698.96,-2077.6 1698.96,-2165.6 1768.96,-2165.6 1768.96,-2077.6 1698.96,-2077.6"/>
<polygon fill="none" stroke="black" points="1419.96,-2074.6 1419.96,-2192.6 1771.96,-2192.6 1771.96,-2074.6 1419.96,-2074.6"/>
</g>
<!-- 12392&#45;&gt;12387 -->
<g id="edge33" class="edge">
<title>12392&#45;&gt;12387</title>
<path fill="none" stroke="#58a066" d="M1595.08,-2070.74C1595.08,-2070.59 1595.08,-2070.44 1595.09,-2070.29"/>
<polygon fill="#58a066" stroke="#58a066" points="1598.46,-2074.64 1595.26,-2064.54 1591.46,-2074.43 1598.46,-2074.64"/>
</g>
<!-- 15318&#45;&gt;15319 -->
<g id="edge34" class="edge">
<title>15318&#45;&gt;15319</title>
<path fill="none" stroke="#deb256" d="M2223.92,-1209.35C2163.24,-1213.61 2090.5,-1220.89 1937.85,-1236.94"/>
<polygon fill="#deb256" stroke="#deb256" points="1937.81,-1233.43 1928.23,-1237.95 1938.54,-1240.39 1937.81,-1233.43"/>
</g>
<!-- 15319&#45;&gt;1371 -->
<g id="edge35" class="edge">
<title>15319&#45;&gt;1371</title>
<path fill="none" stroke="#00876c" stroke-width="2" d="M1731.98,-1265.8C1635.09,-1288.08 1477.07,-1328.11 1382.04,-1354.46"/>
<polygon fill="#00876c" stroke="#00876c" stroke-width="2" points="1373.68,-1356.79 1382.11,-1349.77 1376.02,-1355.62 1383.18,-1353.62 1383.31,-1354.1 1383.45,-1354.58 1376.29,-1356.58 1384.52,-1358.44 1373.68,-1356.79"/>
</g>
<!-- 15319&#45;&gt;46726 -->
<g id="edge36" class="edge">
<title>15319&#45;&gt;46726</title>
<path fill="none" stroke="#379469" stroke-dasharray="5,2" d="M1792.83,-1227.5C1792.74,-1227.41 1792.64,-1227.33 1792.54,-1227.24"/>
<polygon fill="#379469" stroke="#379469" points="1784.91,-1220.86 1795.47,-1223.82 1787.81,-1223.29 1792.58,-1227.27 1792.58,-1227.27 1792.58,-1227.27 1787.81,-1223.29 1789.7,-1230.73 1784.91,-1220.86"/>
</g>
<!-- 15320 -->
<g id="node23" class="node">
<title>15320</title>
<text text-anchor="middle" x="2874.22" y="-1459.25" font-family="Times,serif" font-size="14.00">https://www.ohwr.org/project/cernohl/wikis/Documents/CERN&#45;OHL&#45;version&#45;2</text>
</g>
<!-- 15320&#45;&gt;15318 -->
<g id="edge37" class="edge">
<title>15320&#45;&gt;15318</title>
<path fill="none" stroke="#deb256" d="M2854.86,-1446.35C2747.4,-1346.97 2724,-1333.13 2458.64,-1232.51"/>
<polygon fill="#deb256" stroke="#deb256" points="2459.88,-1229.24 2449.29,-1228.97 2457.4,-1235.78 2459.88,-1229.24"/>
</g>
<!-- 15321 -->
<g id="node24" class="node">
<title>15321</title>
<text text-anchor="middle" x="2667.01" y="-914.8" font-family="Times,serif" font-size="14.00">https://opensource.org/CERN&#45;OHL&#45;P</text>
</g>
<!-- 15321&#45;&gt;15318 -->
<g id="edge38" class="edge">
<title>15321&#45;&gt;15318</title>
<path fill="none" stroke="#deb256" d="M2657,-937.84C2604.55,-1031.71 2590.9,-1046.23 2426.02,-1167.1"/>
<polygon fill="#deb256" stroke="#deb256" points="2424.25,-1164.06 2418.25,-1172.79 2428.38,-1169.71 2424.25,-1164.06"/>
</g>
<!-- 15322 -->
<g id="node25" class="node">
<title>15322</title>
<text text-anchor="middle" x="2559.58" y="-820.67" font-family="Times,serif" font-size="14.00">OSI: https://opensource.org/CERN&#45;OHL&#45;P</text>
</g>
<!-- 15322&#45;&gt;15318 -->
<g id="edge39" class="edge">
<title>15322&#45;&gt;15318</title>
<path fill="none" stroke="#deb256" d="M2558.27,-843.37C2548.15,-977.21 2542.06,-992.78 2407.87,-1164.24"/>
<polygon fill="#deb256" stroke="#deb256" points="2405.31,-1161.83 2401.9,-1171.86 2410.82,-1166.15 2405.31,-1161.83"/>
</g>
<!-- 15323 -->
<g id="node26" class="node">
<title>15323</title>
<text text-anchor="middle" x="2723.26" y="-1029.41" font-family="Times,serif" font-size="14.00">https://ohwr.org/cern_ohl_p_v2.txt</text>
</g>
<!-- 15323&#45;&gt;15318 -->
<g id="edge40" class="edge">
<title>15323&#45;&gt;15318</title>
<path fill="none" stroke="#deb256" d="M2698.18,-1052.14C2633.38,-1097.43 2609.06,-1109.64 2455.47,-1171.22"/>
<polygon fill="#deb256" stroke="#deb256" points="2454.55,-1167.82 2446.57,-1174.79 2457.16,-1174.32 2454.55,-1167.82"/>
</g>
<!-- 15324 -->
<g id="node27" class="node">
<title>15324</title>
<text text-anchor="middle" x="3032.9" y="-1073.88" font-family="Times,serif" font-size="14.00">https://ohwr.org/project/cernohl/wikis/uploads/055bd8b281d0805a3a38188838b370e1/cern_ohl_p_v2.pdf</text>
</g>
<!-- 15324&#45;&gt;15318 -->
<g id="edge41" class="edge">
<title>15324&#45;&gt;15318</title>
<path fill="none" stroke="#deb256" d="M2949.12,-1096.89C2839.9,-1120.06 2777.8,-1131.5 2504.08,-1179.86"/>
<polygon fill="#deb256" stroke="#deb256" points="2503.72,-1176.37 2494.49,-1181.56 2504.94,-1183.27 2503.72,-1176.37"/>
</g>
<!-- 15325 -->
<g id="node28" class="node">
<title>15325</title>
<text text-anchor="middle" x="2432.71" y="-1252.08" font-family="Times,serif" font-size="14.00">https://ohwr.org/project/cernohl/wikis/uploads/5a639eaec042c5584104afdbc9350245/cern_ohl_p_v2.txt</text>
</g>
<!-- 15325&#45;&gt;15318 -->
<g id="edge42" class="edge">
<title>15325&#45;&gt;15318</title>
<path fill="none" stroke="#deb256" d="M2424.77,-1239.22C2424.71,-1239.11 2424.66,-1239.01 2424.6,-1238.9"/>
<polygon fill="#deb256" stroke="#deb256" points="2428.02,-1237.69 2419.43,-1231.49 2422.28,-1241.69 2428.02,-1237.69"/>
</g>
<!-- 15326 -->
<g id="node29" class="node">
<title>15326</title>
<text text-anchor="middle" x="2800.21" y="-1179.32" font-family="Times,serif" font-size="14.00">https://ohwr.org/project/cernohl</text>
</g>
<!-- 15326&#45;&gt;15318 -->
<g id="edge43" class="edge">
<title>15326&#45;&gt;15318</title>
<path fill="none" stroke="#deb256" d="M2706.5,-1184.72C2665.64,-1185.46 2624.1,-1187.4 2540.77,-1192.28"/>
<polygon fill="#deb256" stroke="#deb256" points="2540.58,-1188.79 2530.8,-1192.87 2540.99,-1195.77 2540.58,-1188.79"/>
</g>
<!-- 15327 -->
<g id="node30" class="node">
<title>15327</title>
<text text-anchor="middle" x="2549.97" y="-1501.89" font-family="Times,serif" font-size="14.00">https://cern&#45;ohl.web.cern.ch/</text>
</g>
<!-- 15327&#45;&gt;15318 -->
<g id="edge44" class="edge">
<title>15327&#45;&gt;15318</title>
<path fill="none" stroke="#deb256" d="M2548.01,-1489.19C2534.84,-1371.22 2528.47,-1355.52 2414.46,-1238.99"/>
<polygon fill="#deb256" stroke="#deb256" points="2416.99,-1236.57 2407.49,-1231.87 2411.99,-1241.47 2416.99,-1236.57"/>
</g>
<!-- 15328 -->
<g id="node31" class="node">
<title>15328</title>
<text text-anchor="middle" x="2480.82" y="-1142.03" font-family="Times,serif" font-size="14.00">https://ohwr.org/project/cernohl/wikis/Documents/CERN&#45;OHL&#45;version&#45;2</text>
</g>
<!-- 15328&#45;&gt;15318 -->
<g id="edge45" class="edge">
<title>15328&#45;&gt;15318</title>
<path fill="none" stroke="#deb256" d="M2458.47,-1164.83C2455.99,-1166.52 2453.43,-1168.13 2450.62,-1169.75"/>
<polygon fill="#deb256" stroke="#deb256" points="2449.11,-1166.58 2441.91,-1174.35 2452.38,-1172.77 2449.11,-1166.58"/>
</g>
<!-- 15329 -->
<g id="node32" class="node">
<title>15329</title>
<text text-anchor="middle" x="3045.05" y="-1279.26" font-family="Times,serif" font-size="14.00">https://ohwr.org/project/cernohl/wikis/uploads/0be6f561d2b4a686c5765c74be32daf9/CERN_OHL_rationale.pdf</text>
</g>
<!-- 15329&#45;&gt;15318 -->
<g id="edge46" class="edge">
<title>15329&#45;&gt;15318</title>
<path fill="none" stroke="#deb256" d="M2968.69,-1266.36C2855.98,-1240.68 2797.05,-1233.69 2537.17,-1213.98"/>
<polygon fill="#deb256" stroke="#deb256" points="2537.59,-1210.5 2527.35,-1213.24 2537.06,-1217.48 2537.59,-1210.5"/>
</g>
<!-- 15330 -->
<g id="node33" class="node">
<title>15330</title>
<text text-anchor="middle" x="2438.17" y="-911.85" font-family="Times,serif" font-size="14.00">$TEXT</text>
</g>
<!-- 15330&#45;&gt;15318 -->
<g id="edge47" class="edge">
<title>15330&#45;&gt;15318</title>
<path fill="none" stroke="#deb256" d="M2441.79,-934.67C2461.46,-1032.09 2459.98,-1047.46 2399.06,-1162.83"/>
<polygon fill="#deb256" stroke="#deb256" points="2396.08,-1160.99 2394.49,-1171.47 2402.27,-1164.27 2396.08,-1160.99"/>
</g>
<!-- 35069&#45;&gt;35070 -->
<g id="edge48" class="edge">
<title>35069&#45;&gt;35070</title>
<path fill="none" stroke="#e18745" d="M1565.87,-1850.7C1537.97,-1757.89 1537.38,-1733.89 1544.93,-1509.69"/>
<polygon fill="#e18745" stroke="#e18745" points="1548.41,-1510.14 1545.25,-1500.03 1541.42,-1509.91 1548.41,-1510.14"/>
</g>
<!-- 35071 -->
<g id="node36" class="node">
<title>35071</title>
<text text-anchor="middle" x="1816.66" y="-2134" font-family="Times,serif" font-size="14.00">$TEXT</text>
</g>
<!-- 35071&#45;&gt;35069 -->
<g id="edge49" class="edge">
<title>35071&#45;&gt;35069</title>
<path fill="none" stroke="#e18745" d="M1788.09,-2124.91C1703.29,-2082.32 1688.6,-2065.52 1598.34,-1918.43"/>
<polygon fill="#e18745" stroke="#e18745" points="1601.57,-1917 1593.36,-1910.31 1595.6,-1920.66 1601.57,-1917"/>
</g>
<!-- 35432 -->
<g id="node37" class="node">
<title>35432</title>
<text text-anchor="middle" x="408.34" y="-821.12" font-family="Times,serif" font-size="14.00">LicenseTag (ScopedLicenseTag &quot;OrtLicenseCategorization&quot; &quot;permissive&quot; NoLicenseTagText)</text>
</g>
<!-- 35610 -->
<g id="node39" class="node">
<title>35610</title>
<ellipse fill="none" stroke="#d43d51" cx="871.96" cy="-1102.92" rx="159.81" ry="28.99"/>
<text text-anchor="middle" x="871.96" y="-1106.12" font-family="Times,serif" font-size="14.00" fill="gray">OrtLicenseCategorization</text>
<text text-anchor="middle" x="871.96" y="-1089.62" font-family="Times,serif" font-size="14.00" fill="gray">08a8b9d8fd866dd348c3186ca7e65284</text>
</g>
<!-- 35432&#45;&gt;35610 -->
<g id="edge50" class="edge">
<title>35432&#45;&gt;35610</title>
<path fill="none" stroke="#d43d51" d="M430.08,-844.03C530.5,-926.27 553.91,-940.47 808.03,-1070.28"/>
<polygon fill="#d43d51" stroke="#d43d51" points="806.1,-1073.23 816.6,-1074.66 809.28,-1066.99 806.1,-1073.23"/>
</g>
<!-- 35433 -->
<g id="node38" class="node">
<title>35433</title>
<text text-anchor="middle" x="294.08" y="-1024.06" font-family="Times,serif" font-size="14.00">LicenseTag (ScopedLicenseTag &quot;OrtLicenseCategorization&quot; &quot;include&#45;in&#45;notice&#45;file&quot; NoLicenseTagText)</text>
</g>
<!-- 35433&#45;&gt;35610 -->
<g id="edge51" class="edge">
<title>35433&#45;&gt;35610</title>
<path fill="none" stroke="#d43d51" d="M487.05,-1047.06C542.35,-1053.95 613.44,-1064.27 736.52,-1082.64"/>
<polygon fill="#d43d51" stroke="#d43d51" points="735.9,-1086.09 746.31,-1084.1 736.93,-1079.16 735.9,-1086.09"/>
</g>
<!-- 35610&#45;&gt;1371 -->
<g id="edge52" class="edge">
<title>35610&#45;&gt;1371</title>
<path fill="none" stroke="#d43d51" d="M897.19,-1131.74C980.08,-1225.63 1006.43,-1242.22 1238.2,-1350.16"/>
<polygon fill="#d43d51" stroke="#d43d51" points="1236.4,-1353.18 1246.95,-1354.23 1239.36,-1346.84 1236.4,-1353.18"/>
</g>
<!-- 41375 -->
<g id="node40" class="node">
<title>41375</title>
<ellipse fill="none" stroke="#379469" cx="583.32" cy="-1168.96" rx="158.75" ry="28.99"/>
<text text-anchor="middle" x="583.32" y="-1172.16" font-family="Times,serif" font-size="14.00" fill="gray">CavilLicenseChange</text>
<text text-anchor="middle" x="583.32" y="-1155.66" font-family="Times,serif" font-size="14.00" fill="gray">5b1cc372b654b75eb0a2319f6515e6ce</text>
</g>
<!-- 41375&#45;&gt;41376 -->
<g id="edge53" class="edge">
<title>41375&#45;&gt;41376</title>
<path fill="none" stroke="#379469" d="M723.14,-1154.93C780.93,-1151.9 847.86,-1153.16 991.7,-1157.83"/>
<polygon fill="#379469" stroke="#379469" points="991.48,-1161.33 1001.59,-1158.15 991.71,-1154.33 991.48,-1161.33"/>
</g>
<!-- 46725 -->
<g id="node42" class="node">
<title>46725</title>
<ellipse fill="none" stroke="#379469" cx="1723.41" cy="-1138.75" rx="158.75" ry="28.99"/>
<text text-anchor="middle" x="1723.41" y="-1141.95" font-family="Times,serif" font-size="14.00" fill="gray">MetaeffektLicense</text>
<text text-anchor="middle" x="1723.41" y="-1125.45" font-family="Times,serif" font-size="14.00" fill="gray">6088cdf417233b30ab0f79295000e2a6</text>
</g>
<!-- 46725&#45;&gt;46726 -->
<g id="edge54" class="edge">
<title>46725&#45;&gt;46726</title>
<path fill="none" stroke="#379469" d="M1697.34,-1167.7C1697.25,-1167.84 1697.17,-1167.98 1697.08,-1168.13"/>
<polygon fill="#379469" stroke="#379469" points="1695.61,-1163.67 1693.65,-1174.08 1701.67,-1167.17 1695.61,-1163.67"/>
</g>
<!-- 46727 -->
<g id="node44" class="node">
<title>46727</title>
<polygon fill="none" stroke="#379469" points="2047.16,-653.84 2047.16,-668.75 1928.93,-679.29 1761.73,-679.29 1643.5,-668.75 1643.5,-653.84 1761.73,-643.29 1928.93,-643.29 2047.16,-653.84"/>
<polygon fill="none" stroke="#379469" points="2051.16,-650.18 2051.16,-672.41 1929.11,-683.29 1761.55,-683.29 1639.5,-672.41 1639.5,-650.18 1761.55,-639.29 1929.11,-639.29 2051.16,-650.18"/>
<text text-anchor="middle" x="1845.33" y="-656.24" font-family="Times,serif" font-size="14.00">CERN Open Hardware Licence Permissive 2.0</text>
</g>
<!-- 46727&#45;&gt;46726 -->
<g id="edge55" class="edge">
<title>46727&#45;&gt;46726</title>
<path fill="none" stroke="#379469" stroke-width="2" d="M1837.34,-683.49C1789.42,-816.68 1783.22,-837.35 1689.99,-1164.57"/>
<polygon fill="#379469" stroke="#379469" stroke-width="2" points="1687.59,-1173 1686,-1162.15 1687.81,-1170.4 1689.85,-1163.25 1690.33,-1163.38 1690.81,-1163.52 1688.77,-1170.67 1694.65,-1164.62 1687.59,-1173"/>
</g>
<!-- 46728 -->
<g id="node45" class="node">
<title>46728</title>
<polygon fill="none" stroke="#379469" points="1783.52,-728.51 1783.52,-743.43 1720.13,-753.97 1630.49,-753.97 1567.1,-743.43 1567.1,-728.51 1630.49,-717.97 1720.13,-717.97 1783.52,-728.51"/>
<text text-anchor="middle" x="1675.31" y="-730.92" font-family="Times,serif" font-size="14.00">CERN OHL Permissive</text>
</g>
<!-- 46728&#45;&gt;46726 -->
<g id="edge56" class="edge">
<title>46728&#45;&gt;46726</title>
<path fill="none" stroke="#379469" stroke-dasharray="5,2" d="M1675.59,-754.21C1677.41,-870.68 1677.6,-888.14 1680.21,-1164.49"/>
<polygon fill="#379469" stroke="#379469" points="1680.31,-1174.48 1675.71,-1164.53 1680.27,-1170.7 1680.21,-1164.48 1680.21,-1164.48 1680.21,-1164.48 1680.27,-1170.7 1684.71,-1164.44 1680.31,-1174.48"/>
</g>
<!-- 46729&#45;&gt;46726 -->
<g id="edge57" class="edge">
<title>46729&#45;&gt;46726</title>
<path fill="none" stroke="#379469" stroke-dasharray="5,2" d="M1430.82,-901.26C1500.73,-962.9 1518.17,-984.27 1656.77,-1166.52"/>
<polygon fill="#379469" stroke="#379469" points="1662.72,-1174.35 1653.09,-1169.11 1660.43,-1171.34 1656.67,-1166.39 1656.67,-1166.39 1656.67,-1166.39 1660.43,-1171.34 1660.25,-1163.66 1662.72,-1174.35"/>
</g>
<!-- 66834 -->
<g id="node47" class="node">
<title>66834</title>
<ellipse fill="none" stroke="#00876c" cx="930.59" cy="-1423.97" rx="155.03" ry="28.99"/>
<text text-anchor="middle" x="930.59" y="-1427.17" font-family="Times,serif" font-size="14.00" fill="gray">LicenseLynx</text>
<text text-anchor="middle" x="930.59" y="-1410.67" font-family="Times,serif" font-size="14.00" fill="gray">79feb0fd0fb14b1eb6b65cc67486fbc0</text>
</g>
<!-- 66834&#45;&gt;1371 -->
<g id="edge58" class="edge">
<title>66834&#45;&gt;1371</title>
<path fill="none" stroke="#00876c" d="M1071.4,-1411.48C1098.37,-1408.17 1131.83,-1403.67 1179.39,-1397.08"/>
<polygon fill="#00876c" stroke="#00876c" points="1179.85,-1400.55 1189.27,-1395.71 1178.88,-1393.62 1179.85,-1400.55"/>
</g>
<!-- 66835&#45;&gt;1371 -->
<g id="edge59" class="edge">
<title>66835&#45;&gt;1371</title>
<path fill="none" stroke="#00876c" stroke-width="2" d="M1831.86,-1498.26C1591.45,-1542.75 1549.31,-1531.58 1354.49,-1412.16"/>
<polygon fill="#00876c" stroke="#00876c" stroke-width="2" points="1347.17,-1407.67 1358.05,-1409.06 1349.62,-1408.58 1355.96,-1412.47 1355.7,-1412.9 1355.43,-1413.32 1349.1,-1409.43 1353.34,-1416.73 1347.17,-1407.67"/>
</g>
</g>
</svg>
