<?xml version="1.0" encoding="UTF-8" standalone="no"?>
<!DOCTYPE svg PUBLIC "-//W3C//DTD SVG 1.1//EN"
 "http://www.w3.org/Graphics/SVG/1.1/DTD/svg11.dtd">
<!-- Generated by graphviz version 10.0.1 (0)
 -->
<!-- Pages: 1 -->
<svg width="1591pt" height="1006pt"
 viewBox="0.00 0.00 1591.00 1006.00" xmlns="http://www.w3.org/2000/svg" xmlns:xlink="http://www.w3.org/1999/xlink">
<g id="graph0" class="graph" transform="scale(1 1) rotate(0) translate(4 1002)">
<polygon fill="white" stroke="none" points="-4,4 -4,-1002 1587,-1002 1587,4 -4,4"/>
<!-- 1236 -->
<g id="node1" class="node">
<title>1236</title>
<ellipse fill="none" stroke="#b8bf62" cx="381.78" cy="-968.95" rx="156.09" ry="28.99"/>
<text text-anchor="middle" x="381.78" y="-972.15" font-family="Times,serif" font-size="14.00" fill="gray">SPDXLicense</text>
<text text-anchor="middle" x="381.78" y="-955.65" font-family="Times,serif" font-size="14.00" fill="gray">9920ba86dc432f6ef505ad8068e37fa5</text>
</g>
<!-- 1237 -->
<g id="node2" class="node">
<title>1237</title>
<polygon fill="none" stroke="black" points="617.99,-627.8 617.99,-642.71 559.47,-653.25 476.71,-653.25 418.19,-642.71 418.19,-627.8 476.71,-617.25 559.47,-617.25 617.99,-627.8"/>
<polygon fill="none" stroke="black" points="621.99,-624.45 621.99,-646.05 559.83,-657.25 476.36,-657.25 414.19,-646.05 414.19,-624.45 476.36,-613.25 559.83,-613.25 621.99,-624.45"/>
<polygon fill="none" stroke="black" points="625.99,-621.11 625.99,-649.4 560.19,-661.25 476,-661.25 410.19,-649.4 410.19,-621.11 476,-609.25 560.19,-609.25 625.99,-621.11"/>
<text text-anchor="middle" x="518.09" y="-630.2" font-family="Times,serif" font-size="14.00">spdx:CERN&#45;OHL&#45;1.1</text>
</g>
<!-- 1236&#45;&gt;1237 -->
<g id="edge1" class="edge">
<title>1236&#45;&gt;1237</title>
<path fill="none" stroke="#b8bf62" d="M385.37,-939.52C396.24,-854.2 405.67,-833.28 497.53,-671.43"/>
<polygon fill="#b8bf62" stroke="#b8bf62" points="500.48,-673.33 502.38,-662.9 494.39,-669.87 500.48,-673.33"/>
</g>
<!-- 40858 -->
<g id="node14" class="node">
<title>40858</title>
<polygon fill="none" stroke="#00876c" points="1166.78,-478.87 1166.78,-493.78 1049.52,-504.32 883.7,-504.32 766.44,-493.78 766.44,-478.87 883.7,-468.32 1049.52,-468.32 1166.78,-478.87"/>
<polygon fill="none" stroke="#00876c" points="1170.78,-475.21 1170.78,-497.43 1049.7,-508.32 883.52,-508.32 762.44,-497.43 762.44,-475.21 883.52,-464.32 1049.7,-464.32 1170.78,-475.21"/>
<text text-anchor="middle" x="966.61" y="-481.27" font-family="Times,serif" font-size="14.00">metaeffekt:CERN Open Hardware License 1.1</text>
</g>
<!-- 1237&#45;&gt;40858 -->
<g id="edge2" class="edge">
<title>1237&#45;&gt;40858</title>
<path fill="none" stroke="#00876c" stroke-width="2" d="M626.49,-631.85C697.81,-624.26 750.97,-599.11 913.99,-513.89"/>
<polygon fill="#00876c" stroke="#00876c" stroke-width="2" points="921.7,-509.85 914.93,-518.48 919.66,-511.48 913.07,-514.93 912.84,-514.49 912.61,-514.04 919.2,-510.6 910.75,-510.5 921.7,-509.85"/>
</g>
<!-- 1238 -->
<g id="node3" class="node">
<title>1238</title>
<polygon fill="none" stroke="black" points="691.18,-364.57 691.18,-379.48 645.32,-390.02 580.46,-390.02 534.59,-379.48 534.59,-364.57 580.46,-354.02 645.32,-354.02 691.18,-364.57"/>
<polygon fill="none" stroke="black" points="695.18,-361.38 695.18,-382.66 645.77,-394.02 580,-394.02 530.59,-382.66 530.59,-361.38 580,-350.02 645.77,-350.02 695.18,-361.38"/>
<text text-anchor="middle" x="612.89" y="-366.97" font-family="Times,serif" font-size="14.00">CERN&#45;OHL&#45;1.1</text>
</g>
<!-- 1238&#45;&gt;1237 -->
<g id="edge3" class="edge">
<title>1238&#45;&gt;1237</title>
<path fill="none" stroke="black" stroke-width="2" d="M595.5,-394.39C519.3,-492.7 511.05,-509.58 515.77,-597.7"/>
<polygon fill="black" stroke="black" stroke-width="2" points="516.26,-606.38 511.2,-596.66 515.62,-603.85 515.19,-596.43 515.69,-596.4 516.19,-596.37 516.62,-603.8 520.19,-596.14 516.26,-606.38"/>
</g>
<!-- 13725 -->
<g id="node6" class="node">
<title>13725</title>
<polygon fill="none" stroke="black" points="748.92,-502.55 748.92,-517.46 690.08,-528.01 606.86,-528.01 548.02,-517.46 548.02,-502.55 606.86,-492.01 690.08,-492.01 748.92,-502.55"/>
<polygon fill="none" stroke="black" points="752.92,-499.2 752.92,-520.81 690.43,-532.01 606.5,-532.01 544.02,-520.81 544.02,-499.2 606.5,-488.01 690.43,-488.01 752.92,-499.2"/>
<text text-anchor="middle" x="648.47" y="-504.96" font-family="Times,serif" font-size="14.00">scancode:cern&#45;ohl&#45;1.1</text>
</g>
<!-- 1238&#45;&gt;13725 -->
<g id="edge4" class="edge">
<title>1238&#45;&gt;13725</title>
<path fill="none" stroke="black" stroke-width="2" d="M609.65,-394.45C605.7,-425.81 608.62,-438.09 630.39,-477.82"/>
<polygon fill="black" stroke="black" stroke-width="2" points="634.64,-485.49 625.86,-478.93 632.96,-483.49 629.36,-476.99 629.8,-476.74 630.23,-476.5 633.84,-483 633.73,-474.56 634.64,-485.49"/>
</g>
<!-- 27756 -->
<g id="node9" class="node">
<title>27756</title>
<polygon fill="none" stroke="#e18745" points="1032.86,-374.83 1032.86,-389.74 962.65,-400.28 863.37,-400.28 793.17,-389.74 793.17,-374.83 863.37,-364.28 962.65,-364.28 1032.86,-374.83"/>
<polygon fill="none" stroke="#e18745" points="1036.86,-371.38 1036.86,-393.18 962.95,-404.28 863.07,-404.28 789.17,-393.18 789.17,-371.38 863.07,-360.28 962.95,-360.28 1036.86,-371.38"/>
<text text-anchor="middle" x="913.01" y="-377.23" font-family="Times,serif" font-size="14.00">fossology:CERN&#45;OHL&#45;1.1</text>
</g>
<!-- 1238&#45;&gt;27756 -->
<g id="edge5" class="edge">
<title>1238&#45;&gt;27756</title>
<path fill="none" stroke="#e18745" stroke-width="2" d="M661.63,-353.27C735.79,-325.93 762.13,-325.95 846.78,-356.97"/>
<polygon fill="#e18745" stroke="#e18745" stroke-width="2" points="854.83,-359.95 843.89,-360.7 852.25,-359.53 845.28,-356.95 845.45,-356.48 845.63,-356.01 852.6,-358.59 847.02,-352.26 854.83,-359.95"/>
</g>
<!-- 36665 -->
<g id="node12" class="node">
<title>36665</title>
<polygon fill="none" stroke="#379469" points="666.66,-312.56 666.66,-327.47 607.81,-338.02 524.59,-338.02 465.75,-327.47 465.75,-312.56 524.59,-302.02 607.81,-302.02 666.66,-312.56"/>
<polygon fill="none" stroke="#379469" points="670.66,-309.21 670.66,-330.82 608.17,-342.02 524.24,-342.02 461.75,-330.82 461.75,-309.21 524.24,-298.02 608.17,-298.02 670.66,-309.21"/>
<text text-anchor="middle" x="566.2" y="-314.97" font-family="Times,serif" font-size="14.00">cavil:CERN&#45;OHL&#45;1.1</text>
</g>
<!-- 1238&#45;&gt;36665 -->
<g id="edge6" class="edge">
<title>1238&#45;&gt;36665</title>
<path fill="none" stroke="#379469" stroke-width="2" d="M590.5,-349.53C590.33,-349.36 590.17,-349.19 590.01,-349.03"/>
<polygon fill="#379469" stroke="#379469" stroke-width="2" points="585.36,-344.17 595.53,-348.29 587.5,-345.68 592.64,-351.06 592.28,-351.4 591.92,-351.75 586.77,-346.37 589.02,-354.51 585.36,-344.17"/>
</g>
<!-- 1238&#45;&gt;40858 -->
<g id="edge7" class="edge">
<title>1238&#45;&gt;40858</title>
<path fill="none" stroke="#00876c" stroke-dasharray="5,2" d="M695.55,-364.91C784.59,-360.05 815.54,-375.94 927.28,-457.47"/>
<polygon fill="#00876c" stroke="#00876c" points="935.2,-463.25 924.47,-460.98 932.15,-461.02 927.13,-457.35 927.13,-457.35 927.13,-457.35 932.15,-461.02 929.78,-453.72 935.2,-463.25"/>
</g>
<!-- 1239 -->
<g id="node4" class="node">
<title>1239</title>
<polygon fill="none" stroke="#b8bf62" points="337.27,-767.11 337.27,-782.02 243.7,-792.57 111.38,-792.57 17.81,-782.02 17.81,-767.11 111.38,-756.57 243.7,-756.57 337.27,-767.11"/>
<polygon fill="none" stroke="#b8bf62" points="341.27,-763.53 341.27,-785.6 243.93,-796.57 111.15,-796.57 13.81,-785.6 13.81,-763.53 111.15,-752.57 243.93,-752.57 341.27,-763.53"/>
<text text-anchor="middle" x="177.54" y="-769.52" font-family="Times,serif" font-size="14.00">CERN Open Hardware Licence v1.1</text>
</g>
<!-- 1239&#45;&gt;1237 -->
<g id="edge8" class="edge">
<title>1239&#45;&gt;1237</title>
<path fill="none" stroke="#b8bf62" stroke-width="2" d="M237.22,-752.12C286.23,-733.37 324.49,-717.41 451.73,-663.42"/>
<polygon fill="#b8bf62" stroke="#b8bf62" stroke-width="2" points="459.62,-660.08 452.17,-668.12 457.45,-661.54 450.61,-664.44 450.41,-663.98 450.22,-663.52 457.06,-660.62 448.65,-659.84 459.62,-660.08"/>
</g>
<!-- 13724 -->
<g id="node5" class="node">
<title>13724</title>
<ellipse fill="none" stroke="#dac767" cx="683.6" cy="-569.04" rx="159.81" ry="28.99"/>
<text text-anchor="middle" x="683.6" y="-572.24" font-family="Times,serif" font-size="14.00" fill="gray">ScancodeData</text>
<text text-anchor="middle" x="683.6" y="-555.74" font-family="Times,serif" font-size="14.00" fill="gray">93e433907bf0b434b32c78bf23522404</text>
</g>
<!-- 13724&#45;&gt;13725 -->
<g id="edge9" class="edge">
<title>13724&#45;&gt;13725</title>
<path fill="none" stroke="#dac767" d="M654.9,-540.22C654.83,-540.07 654.76,-539.92 654.69,-539.77"/>
<polygon fill="#dac767" stroke="#dac767" points="659.22,-542.14 652.63,-533.84 652.6,-544.44 659.22,-542.14"/>
</g>
<!-- 13725&#45;&gt;40858 -->
<g id="edge10" class="edge">
<title>13725&#45;&gt;40858</title>
<path fill="none" stroke="#00876c" stroke-dasharray="5,2" d="M753.27,-502.86C762.19,-502.25 770.53,-501.67 778.37,-501.13"/>
<polygon fill="#00876c" stroke="#00876c" points="788.28,-500.45 778.61,-505.63 784.51,-500.71 778.3,-501.14 778.3,-501.14 778.3,-501.14 784.51,-500.71 777.99,-496.65 788.28,-500.45"/>
</g>
<!-- 13726 -->
<g id="node7" class="node">
<title>13726</title>
<polygon fill="none" stroke="black" points="1100.2,-426.85 1100.2,-441.77 1006.96,-452.31 875.09,-452.31 781.85,-441.77 781.85,-426.85 875.09,-416.31 1006.96,-416.31 1100.2,-426.85"/>
<polygon fill="none" stroke="black" points="1104.2,-423.28 1104.2,-445.34 1007.19,-456.31 874.87,-456.31 777.85,-445.34 777.85,-423.28 874.87,-412.31 1007.19,-412.31 1104.2,-423.28"/>
<text text-anchor="middle" x="941.03" y="-429.26" font-family="Times,serif" font-size="14.00">CERN Open Hardware License v1.1</text>
</g>
<!-- 13726&#45;&gt;13725 -->
<g id="edge11" class="edge">
<title>13726&#45;&gt;13725</title>
<path fill="none" stroke="#dac767" stroke-width="2" d="M777.38,-434.86C754.82,-444.13 729.15,-459.11 693.17,-481.66"/>
<polygon fill="#dac767" stroke="#dac767" stroke-width="2" points="685.86,-486.26 691.93,-477.12 687.77,-484.47 694.06,-480.51 694.33,-480.93 694.59,-481.35 688.3,-485.31 696.72,-484.74 685.86,-486.26"/>
</g>
<!-- 13726&#45;&gt;27756 -->
<g id="edge12" class="edge">
<title>13726&#45;&gt;27756</title>
<path fill="none" stroke="#e18745" stroke-width="2" d="M937.57,-412.13C937.55,-412.04 937.53,-411.95 937.51,-411.86"/>
<polygon fill="#e18745" stroke="#e18745" stroke-width="2" points="935.83,-406.96 943.33,-414.95 937.13,-409.22 939.54,-416.25 939.07,-416.41 938.6,-416.58 936.19,-409.54 934.82,-417.87 935.83,-406.96"/>
</g>
<!-- 13726&#45;&gt;40858 -->
<g id="edge13" class="edge">
<title>13726&#45;&gt;40858</title>
<path fill="none" stroke="#00876c" stroke-dasharray="5,2" d="M961.47,-456.79C961.55,-456.93 961.63,-457.07 961.71,-457.21"/>
<polygon fill="#00876c" stroke="#00876c" points="963.9,-462.83 956.08,-455.15 962.53,-459.31 960.27,-453.51 960.27,-453.51 960.27,-453.51 962.53,-459.31 964.46,-451.88 963.9,-462.83"/>
</g>
<!-- 27755 -->
<g id="node8" class="node">
<title>27755</title>
<ellipse fill="none" stroke="#e18745" cx="1060.22" cy="-28.79" rx="159.28" ry="28.99"/>
<text text-anchor="middle" x="1060.22" y="-31.99" font-family="Times,serif" font-size="14.00" fill="gray">Fossology</text>
<text text-anchor="middle" x="1060.22" y="-15.49" font-family="Times,serif" font-size="14.00" fill="gray">b458de1360f3edca76821abb88d89bc7</text>
</g>
<!-- 27755&#45;&gt;27756 -->
<g id="edge14" class="edge">
<title>27755&#45;&gt;27756</title>
<path fill="none" stroke="#e18745" d="M1052.07,-58.15C1029.23,-139.45 1019.1,-162.22 928.67,-349.81"/>
<polygon fill="#e18745" stroke="#e18745" points="925.59,-348.15 924.4,-358.67 931.89,-351.19 925.59,-348.15"/>
</g>
<!-- 28626 -->
<g id="node10" class="node">
<title>28626</title>
<ellipse fill="none" stroke="#e06f45" cx="158.15" cy="-588.61" rx="158.22" ry="28.99"/>
<text text-anchor="middle" x="158.15" y="-591.81" font-family="Times,serif" font-size="14.00" fill="gray">OrtLicenseCategorization</text>
<text text-anchor="middle" x="158.15" y="-575.31" font-family="Times,serif" font-size="14.00" fill="gray">4d54257e80bd19c85eff31aed72b6975</text>
</g>
<!-- 28626&#45;&gt;1237 -->
<g id="edge15" class="edge">
<title>28626&#45;&gt;1237</title>
<path fill="none" stroke="#e06f45" d="M233.03,-614.56C273.02,-625.79 310.92,-629.45 398.4,-632.22"/>
<polygon fill="#e06f45" stroke="#e06f45" points="398.29,-635.71 408.39,-632.52 398.5,-628.72 398.29,-635.71"/>
</g>
<!-- 36664 -->
<g id="node11" class="node">
<title>36664</title>
<ellipse fill="none" stroke="#379469" cx="345.33" cy="-40.27" rx="156.09" ry="28.99"/>
<text text-anchor="middle" x="345.33" y="-43.47" font-family="Times,serif" font-size="14.00" fill="gray">CavilLicenseChange</text>
<text text-anchor="middle" x="345.33" y="-26.97" font-family="Times,serif" font-size="14.00" fill="gray">e09aa900503fcb92cf44e80b63dd825f</text>
</g>
<!-- 36664&#45;&gt;36665 -->
<g id="edge16" class="edge">
<title>36664&#45;&gt;36665</title>
<path fill="none" stroke="#379469" d="M364.2,-69.33C403.62,-129.52 421.06,-150.78 539.72,-289.15"/>
<polygon fill="#379469" stroke="#379469" points="536.78,-291.1 545.95,-296.41 542.1,-286.54 536.78,-291.1"/>
</g>
<!-- 40857 -->
<g id="node13" class="node">
<title>40857</title>
<ellipse fill="none" stroke="#00876c" cx="1424.5" cy="-599.67" rx="158.75" ry="28.99"/>
<text text-anchor="middle" x="1424.5" y="-602.87" font-family="Times,serif" font-size="14.00" fill="gray">MetaeffektLicense</text>
<text text-anchor="middle" x="1424.5" y="-586.37" font-family="Times,serif" font-size="14.00" fill="gray">f64d0a545a7c79007e92b69b59bf2227</text>
</g>
<!-- 40857&#45;&gt;40858 -->
<g id="edge17" class="edge">
<title>40857&#45;&gt;40858</title>
<path fill="none" stroke="#00876c" d="M1347.84,-573.84C1285.45,-553.85 1235.78,-542.35 1078.34,-509.52"/>
<polygon fill="#00876c" stroke="#00876c" points="1079.3,-506.14 1068.79,-507.53 1077.87,-513 1079.3,-506.14"/>
</g>
<!-- 40859 -->
<g id="node15" class="node">
<title>40859</title>
<polygon fill="none" stroke="#00876c" points="1177.71,-530.89 1177.71,-545.8 1087.39,-556.34 959.65,-556.34 869.33,-545.8 869.33,-530.89 959.65,-520.34 1087.39,-520.34 1177.71,-530.89"/>
<polygon fill="none" stroke="#00876c" points="1181.71,-527.33 1181.71,-549.36 1087.62,-560.34 959.42,-560.34 865.33,-549.36 865.33,-527.33 959.42,-516.34 1087.62,-516.34 1181.71,-527.33"/>
<text text-anchor="middle" x="1023.52" y="-533.29" font-family="Times,serif" font-size="14.00">CERN Open Hardware License 1.1</text>
</g>
<!-- 40859&#45;&gt;40858 -->
<g id="edge18" class="edge">
<title>40859&#45;&gt;40858</title>
<path fill="none" stroke="#00876c" stroke-width="2" d="M1009.68,-516.14C1009.54,-515.99 1009.4,-515.84 1009.26,-515.69"/>
<polygon fill="#00876c" stroke="#00876c" stroke-width="2" points="1003.27,-510.42 1013.75,-513.64 1005.52,-511.74 1011.11,-516.65 1010.78,-517.02 1010.45,-517.4 1004.86,-512.49 1007.81,-520.4 1003.27,-510.42"/>
</g>
<!-- 40860 -->
<g id="node16" class="node">
<title>40860</title>
<polygon fill="none" stroke="#00876c" points="1250.25,-766.99 1250.25,-781.91 1214.13,-792.45 1163.03,-792.45 1126.9,-781.91 1126.9,-766.99 1163.03,-756.45 1214.13,-756.45 1250.25,-766.99"/>
<text text-anchor="middle" x="1188.58" y="-769.4" font-family="Times,serif" font-size="14.00">CERN OHL</text>
</g>
<!-- 40860&#45;&gt;40858 -->
<g id="edge19" class="edge">
<title>40860&#45;&gt;40858</title>
<path fill="none" stroke="#00876c" stroke-dasharray="5,2" d="M1181.34,-756.17C1145.6,-666.38 1135.01,-652.43 997.04,-516.31"/>
<polygon fill="#00876c" stroke="#00876c" points="989.95,-509.32 1000.23,-513.14 992.64,-511.97 997.07,-516.34 997.07,-516.34 997.07,-516.34 992.64,-511.97 993.91,-519.54 989.95,-509.32"/>
</g>
<!-- 40861 -->
<g id="node17" class="node">
<title>40861</title>
<polygon fill="none" stroke="#00876c" points="1399.14,-320.97 1399.14,-335.89 1351.33,-346.43 1283.71,-346.43 1235.9,-335.89 1235.9,-320.97 1283.71,-310.43 1351.33,-310.43 1399.14,-320.97"/>
<text text-anchor="middle" x="1317.52" y="-323.38" font-family="Times,serif" font-size="14.00">CERN OHL v1.1</text>
</g>
<!-- 40861&#45;&gt;40858 -->
<g id="edge20" class="edge">
<title>40861&#45;&gt;40858</title>
<path fill="none" stroke="#00876c" stroke-dasharray="5,2" d="M1286.09,-346.87C1221.36,-384.48 1194.02,-396.61 1033.81,-459.84"/>
<polygon fill="#00876c" stroke="#00876c" points="1024.7,-463.44 1032.35,-455.58 1028.22,-462.05 1034,-459.77 1034,-459.77 1034,-459.77 1028.22,-462.05 1035.65,-463.95 1024.7,-463.44"/>
</g>
</g>
</svg>
