<?xml version="1.0" encoding="UTF-8" standalone="no"?>
<!DOCTYPE svg PUBLIC "-//W3C//DTD SVG 1.1//EN"
 "http://www.w3.org/Graphics/SVG/1.1/DTD/svg11.dtd">
<!-- Generated by graphviz version 10.0.1 (0)
 -->
<!-- Pages: 1 -->
<svg width="3442pt" height="2104pt"
 viewBox="0.00 0.00 3442.00 2104.00" xmlns="http://www.w3.org/2000/svg" xmlns:xlink="http://www.w3.org/1999/xlink">
<g id="graph0" class="graph" transform="scale(1 1) rotate(0) translate(4 2100)">
<polygon fill="white" stroke="none" points="-4,4 -4,-2100 3438,-2100 3438,4 -4,4"/>
<!-- 5 -->
<g id="node1" class="node">
<title>5</title>
<text text-anchor="start" x="2014.86" y="-407.52" font-family="Times,serif" font-size="14.00">OSI: </text>
<text text-anchor="start" x="2044.11" y="-407.52" font-family="Times,serif" font-weight="bold" font-size="14.00" fill="#8b0000">Rejected</text>
</g>
<!-- 1389 -->
<g id="node2" class="node">
<title>1389</title>
<ellipse fill="none" stroke="#dac767" cx="1808.4" cy="-655.59" rx="160.87" ry="28.99"/>
<text text-anchor="middle" x="1808.4" y="-658.79" font-family="Times,serif" font-size="14.00" fill="gray">SPDXLicense</text>
<text text-anchor="middle" x="1808.4" y="-642.29" font-family="Times,serif" font-size="14.00" fill="gray">d3c47b995169d734b6dfb89d3c7b6a14</text>
</g>
<!-- 5&#45;&gt;1389 -->
<g id="edge1" class="edge">
<title>5&#45;&gt;1389</title>
<path fill="none" stroke="#dac767" d="M2025.2,-429.41C1961.9,-468.5 1944.04,-487.45 1838.69,-618.01"/>
<polygon fill="#dac767" stroke="#dac767" points="1836.12,-615.61 1832.57,-625.59 1841.57,-620 1836.12,-615.61"/>
</g>
<!-- 1390 -->
<g id="node3" class="node">
<title>1390</title>
<polygon fill="none" stroke="black" points="1610.72,-1219.13 1610.72,-1234.04 1569.08,-1244.58 1510.18,-1244.58 1468.54,-1234.04 1468.54,-1219.13 1510.18,-1208.58 1569.08,-1208.58 1610.72,-1219.13"/>
<polygon fill="none" stroke="black" points="1614.72,-1216.01 1614.72,-1237.15 1569.58,-1248.58 1509.68,-1248.58 1464.54,-1237.15 1464.54,-1216.01 1509.68,-1204.58 1569.58,-1204.58 1614.72,-1216.01"/>
<polygon fill="none" stroke="black" points="1618.72,-1212.9 1618.72,-1240.27 1570.07,-1252.58 1509.18,-1252.58 1460.54,-1240.27 1460.54,-1212.9 1509.18,-1200.58 1570.07,-1200.58 1618.72,-1212.9"/>
<text text-anchor="middle" x="1539.63" y="-1221.53" font-family="Times,serif" font-size="14.00">spdx:CFITSIO</text>
</g>
<!-- 1389&#45;&gt;1390 -->
<g id="edge2" class="edge">
<title>1389&#45;&gt;1390</title>
<path fill="none" stroke="#dac767" d="M1777.38,-684.45C1631.73,-820.67 1622.15,-846.66 1547.72,-1189.29"/>
<polygon fill="#dac767" stroke="#dac767" points="1544.35,-1188.31 1545.65,-1198.82 1551.19,-1189.79 1544.35,-1188.31"/>
</g>
<!-- 7044 -->
<g id="node14" class="node">
<title>7044</title>
<polygon fill="none" stroke="#e09d4b" points="1982.72,-1356.05 1982.72,-1370.96 1935.88,-1381.5 1869.64,-1381.5 1822.8,-1370.96 1822.8,-1356.05 1869.64,-1345.5 1935.88,-1345.5 1982.72,-1356.05"/>
<polygon fill="none" stroke="#e09d4b" points="1986.72,-1352.85 1986.72,-1374.16 1936.33,-1385.5 1869.2,-1385.5 1818.8,-1374.16 1818.8,-1352.85 1869.2,-1341.5 1936.33,-1341.5 1986.72,-1352.85"/>
<text text-anchor="middle" x="1902.76" y="-1358.45" font-family="Times,serif" font-size="14.00">Fedora:CFITSIO</text>
</g>
<!-- 1390&#45;&gt;7044 -->
<g id="edge3" class="edge">
<title>1390&#45;&gt;7044</title>
<path fill="none" stroke="#e09d4b" stroke-width="2" d="M1571.87,-1252.29C1688.36,-1344.9 1721.44,-1365.91 1807.55,-1366.77"/>
<polygon fill="#e09d4b" stroke="#e09d4b" stroke-width="2" points="1816.17,-1366.77 1806.17,-1371.27 1813.61,-1367.27 1806.17,-1367.27 1806.17,-1366.77 1806.17,-1366.27 1813.61,-1366.27 1806.18,-1362.27 1816.17,-1366.77"/>
</g>
<!-- 15348 -->
<g id="node20" class="node">
<title>15348</title>
<polygon fill="none" stroke="black" points="1348.94,-1243.91 1348.94,-1258.82 1304.37,-1269.37 1241.35,-1269.37 1196.78,-1258.82 1196.78,-1243.91 1241.35,-1233.37 1304.37,-1233.37 1348.94,-1243.91"/>
<polygon fill="none" stroke="black" points="1352.94,-1240.75 1352.94,-1261.99 1304.84,-1273.37 1240.88,-1273.37 1192.78,-1261.99 1192.78,-1240.75 1240.88,-1229.37 1304.84,-1229.37 1352.94,-1240.75"/>
<text text-anchor="middle" x="1272.86" y="-1246.32" font-family="Times,serif" font-size="14.00">scancode:cfitsio</text>
</g>
<!-- 1390&#45;&gt;15348 -->
<g id="edge4" class="edge">
<title>1390&#45;&gt;15348</title>
<path fill="none" stroke="#deb256" stroke-width="2" d="M1460.1,-1227.72C1427.32,-1230.1 1389.33,-1233.59 1356.17,-1237.28"/>
<polygon fill="#deb256" stroke="#deb256" stroke-width="2" points="1347.55,-1238.26 1356.97,-1232.66 1350.04,-1237.48 1357.42,-1236.64 1357.48,-1237.13 1357.54,-1237.63 1350.15,-1238.47 1357.99,-1241.6 1347.55,-1238.26"/>
</g>
<!-- 46626 -->
<g id="node30" class="node">
<title>46626</title>
<polygon fill="none" stroke="#379469" points="1513.94,-1579.06 1513.94,-1593.97 1438.23,-1604.51 1331.14,-1604.51 1255.42,-1593.97 1255.42,-1579.06 1331.14,-1568.51 1438.23,-1568.51 1513.94,-1579.06"/>
<polygon fill="none" stroke="#379469" points="1517.94,-1575.58 1517.94,-1597.45 1438.5,-1608.51 1330.86,-1608.51 1251.42,-1597.45 1251.42,-1575.58 1330.86,-1564.51 1438.5,-1564.51 1517.94,-1575.58"/>
<text text-anchor="middle" x="1384.68" y="-1581.46" font-family="Times,serif" font-size="14.00">metaeffekt:CFITSIO License</text>
</g>
<!-- 1390&#45;&gt;46626 -->
<g id="edge5" class="edge">
<title>1390&#45;&gt;46626</title>
<path fill="none" stroke="#379469" stroke-width="2" d="M1526.28,-1253.07C1428.59,-1447 1417.07,-1471.37 1393.85,-1553.54"/>
<polygon fill="#379469" stroke="#379469" stroke-width="2" points="1391.54,-1561.8 1389.91,-1550.95 1391.75,-1559.19 1393.76,-1552.03 1394.24,-1552.17 1394.72,-1552.3 1392.71,-1559.46 1398.57,-1553.38 1391.54,-1561.8"/>
</g>
<!-- 1391 -->
<g id="node4" class="node">
<title>1391</title>
<polygon fill="none" stroke="black" points="1652.23,-1405.16 1652.23,-1420.07 1623.24,-1430.61 1582.24,-1430.61 1553.25,-1420.07 1553.25,-1405.16 1582.24,-1394.61 1623.24,-1394.61 1652.23,-1405.16"/>
<polygon fill="none" stroke="black" points="1656.23,-1402.35 1656.23,-1422.87 1623.95,-1434.61 1581.54,-1434.61 1549.25,-1422.87 1549.25,-1402.35 1581.54,-1390.61 1623.95,-1390.61 1656.23,-1402.35"/>
<text text-anchor="middle" x="1602.74" y="-1407.56" font-family="Times,serif" font-size="14.00">CFITSIO</text>
</g>
<!-- 1391&#45;&gt;1390 -->
<g id="edge6" class="edge">
<title>1391&#45;&gt;1390</title>
<path fill="none" stroke="black" stroke-width="2" d="M1583.74,-1390.12C1556.34,-1356.42 1551.6,-1339.97 1543.5,-1264.07"/>
<polygon fill="black" stroke="black" stroke-width="2" points="1542.58,-1255.38 1548.1,-1264.85 1543.35,-1257.88 1544.13,-1265.27 1543.63,-1265.32 1543.13,-1265.38 1542.35,-1257.98 1539.15,-1265.8 1542.58,-1255.38"/>
</g>
<!-- 1391&#45;&gt;7044 -->
<g id="edge7" class="edge">
<title>1391&#45;&gt;7044</title>
<path fill="none" stroke="#e09d4b" stroke-width="2" d="M1653.92,-1424.15C1746.48,-1444.05 1770.77,-1439.98 1856.43,-1390.7"/>
<polygon fill="#e09d4b" stroke="#e09d4b" stroke-width="2" points="1863.94,-1386.35 1857.54,-1395.26 1861.97,-1388.07 1855.53,-1391.8 1855.28,-1391.36 1855.03,-1390.93 1861.47,-1387.2 1853.03,-1387.47 1863.94,-1386.35"/>
</g>
<!-- 10107 -->
<g id="node17" class="node">
<title>10107</title>
<polygon fill="none" stroke="#00876c" points="1632.56,-1091.86 1632.56,-1106.77 1581.18,-1117.31 1508.52,-1117.31 1457.14,-1106.77 1457.14,-1091.86 1508.52,-1081.31 1581.18,-1081.31 1632.56,-1091.86"/>
<polygon fill="none" stroke="#00876c" points="1636.56,-1088.6 1636.56,-1110.03 1581.59,-1121.31 1508.11,-1121.31 1453.14,-1110.03 1453.14,-1088.6 1508.11,-1077.31 1581.59,-1077.31 1636.56,-1088.6"/>
<text text-anchor="middle" x="1544.85" y="-1094.26" font-family="Times,serif" font-size="14.00">BlueOak:CFITSIO</text>
</g>
<!-- 1391&#45;&gt;10107 -->
<g id="edge8" class="edge">
<title>1391&#45;&gt;10107</title>
<path fill="none" stroke="#00876c" stroke-width="2" d="M1588.81,-1390.22C1540.8,-1312.24 1538.34,-1294.37 1543.72,-1132.53"/>
<polygon fill="#00876c" stroke="#00876c" stroke-width="2" points="1544,-1124.09 1548.17,-1134.24 1544.42,-1126.67 1544.17,-1134.1 1543.67,-1134.08 1543.17,-1134.07 1543.42,-1126.64 1539.17,-1133.93 1544,-1124.09"/>
</g>
<!-- 1391&#45;&gt;15348 -->
<g id="edge9" class="edge">
<title>1391&#45;&gt;15348</title>
<path fill="none" stroke="black" stroke-width="2" d="M1548.88,-1405.49C1400.41,-1385.3 1379.04,-1374.39 1299.11,-1282.01"/>
<polygon fill="black" stroke="black" stroke-width="2" points="1293.56,-1275.57 1303.5,-1280.21 1295.61,-1277.19 1300.47,-1282.82 1300.09,-1283.15 1299.71,-1283.47 1294.86,-1277.84 1296.68,-1286.08 1293.56,-1275.57"/>
</g>
<!-- 41382 -->
<g id="node28" class="node">
<title>41382</title>
<polygon fill="none" stroke="#379469" points="1848.83,-1693.48 1848.83,-1708.39 1806.86,-1718.93 1747.51,-1718.93 1705.54,-1708.39 1705.54,-1693.48 1747.51,-1682.93 1806.86,-1682.93 1848.83,-1693.48"/>
<polygon fill="none" stroke="#379469" points="1852.83,-1690.36 1852.83,-1711.51 1807.36,-1722.93 1747.01,-1722.93 1701.54,-1711.51 1701.54,-1690.36 1747.01,-1678.93 1807.36,-1678.93 1852.83,-1690.36"/>
<text text-anchor="middle" x="1777.18" y="-1695.88" font-family="Times,serif" font-size="14.00">cavil:CFITSIO</text>
</g>
<!-- 1391&#45;&gt;41382 -->
<g id="edge10" class="edge">
<title>1391&#45;&gt;41382</title>
<path fill="none" stroke="#379469" stroke-width="2" d="M1611.6,-1435.01C1675.18,-1595.57 1687.1,-1621.8 1742.74,-1671.34"/>
<polygon fill="#379469" stroke="#379469" stroke-width="2" points="1749.06,-1676.89 1738.57,-1673.67 1746.8,-1675.58 1741.21,-1670.67 1741.54,-1670.29 1741.87,-1669.92 1747.46,-1674.82 1744.51,-1666.91 1749.06,-1676.89"/>
</g>
<!-- 1391&#45;&gt;46626 -->
<g id="edge11" class="edge">
<title>1391&#45;&gt;46626</title>
<path fill="none" stroke="#379469" stroke-dasharray="5,2" d="M1581.26,-1434.6C1503.98,-1513.62 1477.64,-1539.32 1442.97,-1558.94"/>
<polygon fill="#379469" stroke="#379469" points="1434.51,-1563.52 1441.17,-1554.8 1437.84,-1561.72 1443.31,-1558.76 1443.31,-1558.76 1443.31,-1558.76 1437.84,-1561.72 1445.45,-1562.72 1434.51,-1563.52"/>
</g>
<!-- 1392 -->
<g id="node5" class="node">
<title>1392</title>
<polygon fill="none" stroke="black" points="1431.17,-1307.4 1431.17,-1322.31 1382.38,-1332.86 1313.39,-1332.86 1264.61,-1322.31 1264.61,-1307.4 1313.39,-1296.86 1382.38,-1296.86 1431.17,-1307.4"/>
<polygon fill="none" stroke="black" points="1435.17,-1304.17 1435.17,-1325.54 1382.81,-1336.86 1312.96,-1336.86 1260.61,-1325.54 1260.61,-1304.17 1312.96,-1292.86 1382.81,-1292.86 1435.17,-1304.17"/>
<text text-anchor="middle" x="1347.89" y="-1309.81" font-family="Times,serif" font-size="14.00">CFITSIO License</text>
</g>
<!-- 1392&#45;&gt;1390 -->
<g id="edge12" class="edge">
<title>1392&#45;&gt;1390</title>
<path fill="none" stroke="#dac767" stroke-width="2" d="M1404.41,-1297.12C1423.81,-1289.34 1445.59,-1278.1 1487.26,-1255.35"/>
<polygon fill="#dac767" stroke="#dac767" stroke-width="2" points="1494.93,-1251.15 1488.32,-1259.9 1492.92,-1252.82 1486.4,-1256.39 1486.16,-1255.95 1485.92,-1255.51 1492.44,-1251.95 1484,-1252.01 1494.93,-1251.15"/>
</g>
<!-- 1392&#45;&gt;10107 -->
<g id="edge13" class="edge">
<title>1392&#45;&gt;10107</title>
<path fill="none" stroke="#00876c" stroke-width="2" d="M1361.74,-1292.48C1394.55,-1240.15 1409.11,-1224.79 1512.62,-1129.08"/>
<polygon fill="#00876c" stroke="#00876c" stroke-width="2" points="1518.77,-1123.4 1514.48,-1133.49 1517.22,-1125.51 1511.76,-1130.55 1511.42,-1130.19 1511.08,-1129.82 1516.54,-1124.77 1508.37,-1126.88 1518.77,-1123.4"/>
</g>
<!-- 1392&#45;&gt;15348 -->
<g id="edge14" class="edge">
<title>1392&#45;&gt;15348</title>
<path fill="none" stroke="#deb256" stroke-width="2" d="M1303.13,-1294.58C1297.84,-1291.13 1293.87,-1287.44 1290.23,-1282.69"/>
<polygon fill="#deb256" stroke="#deb256" stroke-width="2" points="1285.6,-1275.59 1294.83,-1281.5 1287.42,-1277.46 1291.48,-1283.69 1291.06,-1283.96 1290.64,-1284.23 1286.58,-1278.01 1287.29,-1286.42 1285.6,-1275.59"/>
</g>
<!-- 1392&#45;&gt;46626 -->
<g id="edge15" class="edge">
<title>1392&#45;&gt;46626</title>
<path fill="none" stroke="#379469" stroke-width="2" d="M1345.67,-1337.21C1332.41,-1471.67 1332.37,-1492.48 1366.55,-1554.6"/>
<polygon fill="#379469" stroke="#379469" stroke-width="2" points="1370.66,-1561.96 1361.85,-1555.42 1368.97,-1559.96 1365.35,-1553.47 1365.78,-1553.23 1366.22,-1552.98 1369.84,-1559.48 1369.71,-1551.03 1370.66,-1561.96"/>
</g>
<!-- 66841 -->
<g id="node32" class="node">
<title>66841</title>
<polygon fill="none" stroke="#00876c" points="1385.69,-1040.68 1385.69,-1055.59 1324.25,-1066.13 1237.36,-1066.13 1175.92,-1055.59 1175.92,-1040.68 1237.36,-1030.13 1324.25,-1030.13 1385.69,-1040.68"/>
<polygon fill="none" stroke="#00876c" points="1389.69,-1037.31 1389.69,-1058.96 1324.59,-1070.13 1237.02,-1070.13 1171.92,-1058.96 1171.92,-1037.31 1237.02,-1026.13 1324.59,-1026.13 1389.69,-1037.31"/>
<text text-anchor="middle" x="1280.81" y="-1043.08" font-family="Times,serif" font-size="14.00">spdx:CFITSIO License</text>
</g>
<!-- 1392&#45;&gt;66841 -->
<g id="edge16" class="edge">
<title>1392&#45;&gt;66841</title>
<path fill="none" stroke="#00876c" stroke-width="2" d="M1331.48,-1292.6C1268.12,-1206.15 1263.72,-1190.76 1276.75,-1081.29"/>
<polygon fill="#00876c" stroke="#00876c" stroke-width="2" points="1277.77,-1072.82 1281.04,-1083.28 1277.96,-1075.42 1277.07,-1082.8 1276.57,-1082.74 1276.08,-1082.68 1276.97,-1075.3 1272.1,-1082.21 1277.77,-1072.82"/>
</g>
<!-- 1393 -->
<g id="node6" class="node">
<title>1393</title>
<text text-anchor="middle" x="1792.54" y="-232.87" font-family="Times,serif" font-size="14.00">$TEXT</text>
</g>
<!-- 1393&#45;&gt;1389 -->
<g id="edge17" class="edge">
<title>1393&#45;&gt;1389</title>
<path fill="none" stroke="#dac767" d="M1795.3,-255.86C1811.1,-359.05 1811.76,-376.8 1808.9,-614.69"/>
<polygon fill="#dac767" stroke="#dac767" points="1805.4,-614.63 1808.78,-624.67 1812.4,-614.72 1805.4,-614.63"/>
</g>
<!-- 1394 -->
<g id="node7" class="node">
<title>1394</title>
<text text-anchor="middle" x="1790.75" y="-13.17" font-family="Times,serif" font-size="14.00">$TEXT</text>
</g>
<!-- 1394&#45;&gt;1393 -->
<g id="edge18" class="edge">
<title>1394&#45;&gt;1393</title>
<path fill="none" stroke="#dac767" d="M1791.94,-36.21C1794.93,-82.04 1794.95,-97.28 1793.04,-208.57"/>
<polygon fill="#dac767" stroke="#dac767" points="1789.55,-208.44 1792.87,-218.5 1796.55,-208.56 1789.55,-208.44"/>
</g>
<!-- 1395 -->
<g id="node8" class="node">
<title>1395</title>
<text text-anchor="middle" x="2309.89" y="-422.67" font-family="Times,serif" font-size="14.00">https://heasarc.gsfc.nasa.gov/docs/software/ftools/fv/doc/license.html</text>
</g>
<!-- 1395&#45;&gt;1389 -->
<g id="edge19" class="edge">
<title>1395&#45;&gt;1389</title>
<path fill="none" stroke="#dac767" d="M2188.04,-445.64C2105.34,-463.77 2046.6,-499.39 1861.17,-620.95"/>
<polygon fill="#dac767" stroke="#dac767" points="1859.37,-617.94 1852.93,-626.35 1863.21,-623.8 1859.37,-617.94"/>
</g>
<!-- 1396 -->
<g id="node9" class="node">
<title>1396</title>
<text text-anchor="middle" x="2100.04" y="-175.55" font-family="Times,serif" font-size="14.00">https://heasarc.gsfc.nasa.gov/docs/software/fitsio/c/f_user/node9.html</text>
</g>
<!-- 1396&#45;&gt;1389 -->
<g id="edge20" class="edge">
<title>1396&#45;&gt;1389</title>
<path fill="none" stroke="#dac767" d="M2085.73,-198.5C1996.96,-309.69 1985.67,-328.35 1829.59,-616.47"/>
<polygon fill="#dac767" stroke="#dac767" points="1826.62,-614.6 1824.94,-625.06 1832.78,-617.94 1826.62,-614.6"/>
</g>
<!-- 5550 -->
<g id="node10" class="node">
<title>5550</title>
<text text-anchor="middle" x="1109.64" y="-614.66" font-family="Times,serif" font-size="14.00">LicenseType Permissive</text>
</g>
<!-- 10106 -->
<g id="node16" class="node">
<title>10106</title>
<ellipse fill="none" stroke="#00876c" cx="1409.42" cy="-705.99" rx="156.09" ry="28.99"/>
<text text-anchor="middle" x="1409.42" y="-709.19" font-family="Times,serif" font-size="14.00" fill="gray">BlueOakCouncil</text>
<text text-anchor="middle" x="1409.42" y="-692.69" font-family="Times,serif" font-size="14.00" fill="gray">741c1ec786e09fe9a1fb8e4199b4ca87</text>
</g>
<!-- 5550&#45;&gt;10106 -->
<g id="edge21" class="edge">
<title>5550&#45;&gt;10106</title>
<path fill="none" stroke="#00876c" d="M1184.24,-624.19C1221.05,-629.33 1255.17,-641.53 1334.94,-674.71"/>
<polygon fill="#00876c" stroke="#00876c" points="1333.46,-677.88 1344.04,-678.5 1336.15,-671.42 1333.46,-677.88"/>
</g>
<!-- 15347 -->
<g id="node19" class="node">
<title>15347</title>
<ellipse fill="none" stroke="#deb256" cx="882.9" cy="-931.32" rx="156.62" ry="28.99"/>
<text text-anchor="middle" x="882.9" y="-934.52" font-family="Times,serif" font-size="14.00" fill="gray">ScancodeData</text>
<text text-anchor="middle" x="882.9" y="-918.02" font-family="Times,serif" font-size="14.00" fill="gray">e1e548bae03ab155c30f252cfd5785e2</text>
</g>
<!-- 5550&#45;&gt;15347 -->
<g id="edge22" class="edge">
<title>5550&#45;&gt;15347</title>
<path fill="none" stroke="#deb256" d="M1083.77,-637.65C937.4,-739.42 923.58,-755.06 892.06,-891.03"/>
<polygon fill="#deb256" stroke="#deb256" points="888.73,-889.9 889.9,-900.43 895.55,-891.47 888.73,-889.9"/>
</g>
<!-- 6592 -->
<g id="node11" class="node">
<title>6592</title>
<text text-anchor="middle" x="2791.03" y="-1509.6" font-family="Times,serif" font-size="14.00">[&quot;allowed&quot;]</text>
</g>
<!-- 7043 -->
<g id="node13" class="node">
<title>7043</title>
<ellipse fill="none" stroke="#e09d4b" cx="2382.81" cy="-1452.59" rx="159.28" ry="28.99"/>
<text text-anchor="middle" x="2382.81" y="-1455.79" font-family="Times,serif" font-size="14.00" fill="gray">FedoraEntry</text>
<text text-anchor="middle" x="2382.81" y="-1439.29" font-family="Times,serif" font-size="14.00" fill="gray">92d9891bacea2c926d59a3e50a903a63</text>
</g>
<!-- 6592&#45;&gt;7043 -->
<g id="edge23" class="edge">
<title>6592&#45;&gt;7043</title>
<path fill="none" stroke="#e09d4b" d="M2751.18,-1516.35C2673.02,-1519.16 2640.55,-1514.91 2490.09,-1478.71"/>
<polygon fill="#e09d4b" stroke="#e09d4b" points="2491.06,-1475.35 2480.52,-1476.41 2489.42,-1482.15 2491.06,-1475.35"/>
</g>
<!-- 6593 -->
<g id="node12" class="node">
<title>6593</title>
<text text-anchor="start" x="3166.78" y="-1616.14" font-family="Times,serif" font-size="14.00">Fedora: </text>
<text text-anchor="start" x="3211.78" y="-1616.14" font-family="Times,serif" font-weight="bold" font-size="14.00" fill="#228b22">allowed</text>
<text text-anchor="start" x="3002.91" y="-1602.14" font-family="Times,serif" font-size="14.00">A license is allowed if Fedora determines that the license is a free software /</text>
<text text-anchor="start" x="2997.66" y="-1588.14" font-family="Times,serif" font-size="14.00">open source license. At a high level, the inquiry involves determining whether</text>
<text text-anchor="start" x="2996.53" y="-1574.14" font-family="Times,serif" font-size="14.00">the license provides software freedom, and (equivalently) making sure that the</text>
<text text-anchor="start" x="3006.66" y="-1560.14" font-family="Times,serif" font-size="14.00">license does not place burdens on users&#39; exercise of its permissions that are</text>
<text text-anchor="start" x="3006.28" y="-1546.14" font-family="Times,serif" font-size="14.00">inconsistent with evolving community norms and traditions around what is</text>
<text text-anchor="start" x="2998.03" y="-1532.14" font-family="Times,serif" font-size="14.00">acceptable in a free software / open source license. See below for more on the</text>
<text text-anchor="start" x="3118.03" y="-1518.14" font-family="Times,serif" font-size="14.00">history of Fedora licensing policy.</text>
</g>
<!-- 6593&#45;&gt;6592 -->
<g id="edge24" class="edge">
<title>6593&#45;&gt;6592</title>
<path fill="none" stroke="#e09d4b" d="M2988.6,-1554.4C2951.4,-1547.43 2904.48,-1537.92 2841.53,-1525.02"/>
<polygon fill="#e09d4b" stroke="#e09d4b" points="2842.42,-1521.63 2831.92,-1523.05 2841.01,-1528.49 2842.42,-1521.63"/>
</g>
<!-- 7043&#45;&gt;7044 -->
<g id="edge25" class="edge">
<title>7043&#45;&gt;7044</title>
<path fill="none" stroke="#e09d4b" d="M2227.98,-1459.7C2171.16,-1453.45 2105.47,-1432.6 1966.2,-1385.17"/>
<polygon fill="#e09d4b" stroke="#e09d4b" points="1967.63,-1381.96 1957.03,-1382.05 1965.37,-1388.59 1967.63,-1381.96"/>
</g>
<!-- 10004 -->
<g id="node15" class="node">
<title>10004</title>
<text text-anchor="start" x="1874.51" y="-790.69" font-family="Times,serif" font-size="14.00">BlueOakCouncil: </text>
<text text-anchor="start" x="1972.76" y="-790.69" font-family="Times,serif" font-weight="bold" font-size="14.00" fill="#000000">Bronze</text>
<text text-anchor="start" x="1737.26" y="-776.69" font-family="Times,serif" font-size="14.00">These licenses lack important but nonessential elements of permissive open</text>
<text text-anchor="start" x="1739.13" y="-762.69" font-family="Times,serif" font-size="14.00">software licenses or impose additional requirements or restrictions, such as</text>
<text text-anchor="start" x="1780.01" y="-748.69" font-family="Times,serif" font-size="14.00">BSD&#45;style prohibitions against endorsement and promotion.</text>
</g>
<!-- 10004&#45;&gt;10106 -->
<g id="edge26" class="edge">
<title>10004&#45;&gt;10106</title>
<path fill="none" stroke="#00876c" d="M1880.4,-743C1696.62,-651.65 1653.49,-640.71 1507.29,-678.74"/>
<polygon fill="#00876c" stroke="#00876c" points="1506.83,-675.24 1498.05,-681.17 1508.61,-682.01 1506.83,-675.24"/>
</g>
<!-- 10106&#45;&gt;10107 -->
<g id="edge27" class="edge">
<title>10106&#45;&gt;10107</title>
<path fill="none" stroke="#00876c" d="M1408.81,-735.45C1406.74,-854.31 1414.61,-874.09 1526.09,-1066.9"/>
<polygon fill="#00876c" stroke="#00876c" points="1523.03,-1068.6 1531.07,-1075.51 1529.09,-1065.1 1523.03,-1068.6"/>
</g>
<!-- 10108 -->
<g id="node18" class="node">
<title>10108</title>
<text text-anchor="middle" x="1009.83" y="-519.99" font-family="Times,serif" font-size="14.00">https://spdx.org/licenses/CFITSIO</text>
</g>
<!-- 10108&#45;&gt;10106 -->
<g id="edge28" class="edge">
<title>10108&#45;&gt;10106</title>
<path fill="none" stroke="#00876c" d="M1078.34,-543.01C1146.28,-562.56 1188.25,-583.91 1349.18,-672.7"/>
<polygon fill="#00876c" stroke="#00876c" points="1347.17,-675.59 1357.61,-677.35 1350.55,-669.46 1347.17,-675.59"/>
</g>
<!-- 15347&#45;&gt;15348 -->
<g id="edge29" class="edge">
<title>15347&#45;&gt;15348</title>
<path fill="none" stroke="#deb256" d="M899.32,-960.29C973.33,-1089.99 992.99,-1105.96 1223.25,-1225.64"/>
<polygon fill="#deb256" stroke="#deb256" points="1221.47,-1228.66 1231.96,-1230.16 1224.7,-1222.45 1221.47,-1228.66"/>
</g>
<!-- 15348&#45;&gt;1390 -->
<g id="edge30" class="edge">
<title>15348&#45;&gt;1390</title>
<path fill="none" stroke="#00876c" stroke-width="2" d="M1353.11,-1250.18C1383.52,-1247.97 1418.34,-1244.8 1449.59,-1241.41"/>
<polygon fill="#00876c" stroke="#00876c" stroke-width="2" points="1458.06,-1240.47 1448.61,-1246.04 1455.56,-1241.25 1448.17,-1242.07 1448.12,-1241.57 1448.06,-1241.07 1455.45,-1240.26 1447.62,-1237.1 1458.06,-1240.47"/>
</g>
<!-- 15348&#45;&gt;46626 -->
<g id="edge31" class="edge">
<title>15348&#45;&gt;46626</title>
<path fill="none" stroke="#379469" stroke-dasharray="5,2" d="M1273.36,-1273.7C1277.38,-1448.97 1280.77,-1469.38 1357.24,-1555.88"/>
<polygon fill="#379469" stroke="#379469" points="1363.81,-1563.27 1353.8,-1558.79 1361.3,-1560.45 1357.17,-1555.8 1357.17,-1555.8 1357.17,-1555.8 1361.3,-1560.45 1360.53,-1552.81 1363.81,-1563.27"/>
</g>
<!-- 15349 -->
<g id="node21" class="node">
<title>15349</title>
<text text-anchor="middle" x="678.44" y="-870.07" font-family="Times,serif" font-size="14.00">https://heasarc.gsfc.nasa.gov/docs/software/fitsio/c/f_user/node9.html</text>
</g>
<!-- 15349&#45;&gt;15347 -->
<g id="edge32" class="edge">
<title>15349&#45;&gt;15347</title>
<path fill="none" stroke="#deb256" d="M730.86,-893.05C743.13,-896.79 756.58,-900.46 775.77,-905.31"/>
<polygon fill="#deb256" stroke="#deb256" points="774.68,-908.64 785.23,-907.68 776.38,-901.85 774.68,-908.64"/>
</g>
<!-- 15350 -->
<g id="node22" class="node">
<title>15350</title>
<text text-anchor="middle" x="230.09" y="-890.28" font-family="Times,serif" font-size="14.00">ScancodeData:</text>
<text text-anchor="middle" x="230.09" y="-873.78" font-family="Times,serif" font-size="14.00">this is &#160;a combination of us&#45;govt&#45;public&#45;domain AND nist&#45;pd licenses but SPDX</text>
<text text-anchor="middle" x="230.09" y="-857.28" font-family="Times,serif" font-size="14.00">does not recognize public&#45;domain as a license so they have created a new license</text>
<text text-anchor="middle" x="230.09" y="-840.78" font-family="Times,serif" font-size="14.00">for this specific text. Minimum coverage is added to ensure both parts are</text>
<text text-anchor="middle" x="230.09" y="-824.28" font-family="Times,serif" font-size="14.00">detected.</text>
</g>
<!-- 15350&#45;&gt;15347 -->
<g id="edge33" class="edge">
<title>15350&#45;&gt;15347</title>
<path fill="none" stroke="#deb256" d="M459.33,-884.15C521.3,-890.7 602.07,-899.7 737.21,-914.91"/>
<polygon fill="#deb256" stroke="#deb256" points="736.48,-918.35 746.81,-915.99 737.26,-911.39 736.48,-918.35"/>
</g>
<!-- 15351 -->
<g id="node23" class="node">
<title>15351</title>
<text text-anchor="middle" x="573.71" y="-746.81" font-family="Times,serif" font-size="14.00">$TEXT</text>
</g>
<!-- 15351&#45;&gt;15347 -->
<g id="edge34" class="edge">
<title>15351&#45;&gt;15347</title>
<path fill="none" stroke="#deb256" d="M593.85,-769.67C651.68,-820.46 672.43,-833.1 814.02,-899.26"/>
<polygon fill="#deb256" stroke="#deb256" points="812.51,-902.42 823.05,-903.48 815.47,-896.08 812.51,-902.42"/>
</g>
<!-- 35432 -->
<g id="node24" class="node">
<title>35432</title>
<text text-anchor="middle" x="934.6" y="-1579.02" font-family="Times,serif" font-size="14.00">LicenseTag (ScopedLicenseTag &quot;OrtLicenseCategorization&quot; &quot;permissive&quot; NoLicenseTagText)</text>
</g>
<!-- 35613 -->
<g id="node26" class="node">
<title>35613</title>
<ellipse fill="none" stroke="#d43d51" cx="1073.91" cy="-1520.82" rx="155.56" ry="28.99"/>
<text text-anchor="middle" x="1073.91" y="-1524.02" font-family="Times,serif" font-size="14.00" fill="gray">OrtLicenseCategorization</text>
<text text-anchor="middle" x="1073.91" y="-1507.52" font-family="Times,serif" font-size="14.00" fill="gray">c0aac533d6497186f1cf4e3c72ec17e6</text>
</g>
<!-- 35432&#45;&gt;35613 -->
<g id="edge35" class="edge">
<title>35432&#45;&gt;35613</title>
<path fill="none" stroke="#d43d51" d="M984.71,-1566.07C991.83,-1562.86 999.96,-1558.92 1010.34,-1553.69"/>
<polygon fill="#d43d51" stroke="#d43d51" points="1011.86,-1556.84 1019.19,-1549.19 1008.69,-1550.6 1011.86,-1556.84"/>
</g>
<!-- 35433 -->
<g id="node25" class="node">
<title>35433</title>
<text text-anchor="middle" x="584.93" y="-1962.23" font-family="Times,serif" font-size="14.00">LicenseTag (ScopedLicenseTag &quot;OrtLicenseCategorization&quot; &quot;include&#45;in&#45;notice&#45;file&quot; NoLicenseTagText)</text>
</g>
<!-- 35433&#45;&gt;35613 -->
<g id="edge36" class="edge">
<title>35433&#45;&gt;35613</title>
<path fill="none" stroke="#d43d51" d="M602.66,-1949.41C720.63,-1830.48 739.09,-1813.67 1032.96,-1556.64"/>
<polygon fill="#d43d51" stroke="#d43d51" points="1034.92,-1559.57 1040.15,-1550.35 1030.31,-1554.3 1034.92,-1559.57"/>
</g>
<!-- 35613&#45;&gt;1390 -->
<g id="edge37" class="edge">
<title>35613&#45;&gt;1390</title>
<path fill="none" stroke="#d43d51" d="M1125.31,-1493.16C1220.14,-1441.66 1258.07,-1416.77 1493.43,-1257.8"/>
<polygon fill="#d43d51" stroke="#d43d51" points="1495.39,-1260.7 1501.72,-1252.2 1491.47,-1254.9 1495.39,-1260.7"/>
</g>
<!-- 41381 -->
<g id="node27" class="node">
<title>41381</title>
<ellipse fill="none" stroke="#379469" cx="1981.44" cy="-2066.7" rx="158.22" ry="28.99"/>
<text text-anchor="middle" x="1981.44" y="-2069.9" font-family="Times,serif" font-size="14.00" fill="gray">CavilLicenseChange</text>
<text text-anchor="middle" x="1981.44" y="-2053.4" font-family="Times,serif" font-size="14.00" fill="gray">891d5feab4b06e00f479c8c625885226</text>
</g>
<!-- 41381&#45;&gt;41382 -->
<g id="edge38" class="edge">
<title>41381&#45;&gt;41382</title>
<path fill="none" stroke="#379469" d="M1956.81,-2037.79C1896.97,-1966.69 1884.01,-1940.61 1791.71,-1733.53"/>
<polygon fill="#379469" stroke="#379469" points="1794.99,-1732.3 1787.72,-1724.59 1788.6,-1735.15 1794.99,-1732.3"/>
</g>
<!-- 46625 -->
<g id="node29" class="node">
<title>46625</title>
<ellipse fill="none" stroke="#379469" cx="1270.56" cy="-2061.66" rx="158.22" ry="28.99"/>
<text text-anchor="middle" x="1270.56" y="-2064.86" font-family="Times,serif" font-size="14.00" fill="gray">MetaeffektLicense</text>
<text text-anchor="middle" x="1270.56" y="-2048.36" font-family="Times,serif" font-size="14.00" fill="gray">1bbc653bee2744c594dd8384981fd3cf</text>
</g>
<!-- 46625&#45;&gt;46626 -->
<g id="edge39" class="edge">
<title>46625&#45;&gt;46626</title>
<path fill="none" stroke="#379469" d="M1273.16,-2032.42C1283.85,-1914.56 1290.29,-1890.66 1374.29,-1619.99"/>
<polygon fill="#379469" stroke="#379469" points="1377.63,-1621.04 1377.25,-1610.45 1370.94,-1618.97 1377.63,-1621.04"/>
</g>
<!-- 66840 -->
<g id="node31" class="node">
<title>66840</title>
<ellipse fill="none" stroke="#00876c" cx="1692.74" cy="-1587.1" rx="155.56" ry="28.99"/>
<text text-anchor="middle" x="1692.74" y="-1590.3" font-family="Times,serif" font-size="14.00" fill="gray">LicenseLynx</text>
<text text-anchor="middle" x="1692.74" y="-1573.8" font-family="Times,serif" font-size="14.00" fill="gray">f8ffad0737e3bf0b04e134b88e235058</text>
</g>
<!-- 66840&#45;&gt;1390 -->
<g id="edge40" class="edge">
<title>66840&#45;&gt;1390</title>
<path fill="none" stroke="#00876c" d="M1666.05,-1558.28C1598.51,-1484.15 1590.21,-1459.35 1547.72,-1263.88"/>
<polygon fill="#00876c" stroke="#00876c" points="1551.2,-1263.42 1545.66,-1254.39 1544.36,-1264.91 1551.2,-1263.42"/>
</g>
<!-- 66841&#45;&gt;1390 -->
<g id="edge41" class="edge">
<title>66841&#45;&gt;1390</title>
<path fill="none" stroke="#00876c" stroke-width="2" d="M1295.32,-1070.49C1343.18,-1143.52 1359.62,-1157.39 1475.16,-1202.07"/>
<polygon fill="#00876c" stroke="#00876c" stroke-width="2" points="1483.25,-1205.19 1472.3,-1205.79 1480.68,-1204.73 1473.74,-1202.06 1473.92,-1201.59 1474.09,-1201.13 1481.04,-1203.8 1475.53,-1197.39 1483.25,-1205.19"/>
</g>
</g>
</svg>
