<?xml version="1.0" encoding="UTF-8" standalone="no"?>
<!DOCTYPE svg PUBLIC "-//W3C//DTD SVG 1.1//EN"
 "http://www.w3.org/Graphics/SVG/1.1/DTD/svg11.dtd">
<!-- Generated by graphviz version 10.0.1 (0)
 -->
<!-- Pages: 1 -->
<svg width="1337pt" height="1160pt"
 viewBox="0.00 0.00 1337.00 1160.00" xmlns="http://www.w3.org/2000/svg" xmlns:xlink="http://www.w3.org/1999/xlink">
<g id="graph0" class="graph" transform="scale(1 1) rotate(0) translate(4 1156)">
<polygon fill="white" stroke="none" points="-4,4 -4,-1156 1333,-1156 1333,4 -4,4"/>
<!-- 4515 -->
<g id="node1" class="node">
<title>4515</title>
<ellipse fill="none" stroke="#b8bf62" cx="571.34" cy="-911.97" rx="155.56" ry="28.99"/>
<text text-anchor="middle" x="571.34" y="-915.17" font-family="Times,serif" font-size="14.00" fill="gray">SPDXLicense</text>
<text text-anchor="middle" x="571.34" y="-898.67" font-family="Times,serif" font-size="14.00" fill="gray">8c6fc25a51a970b868a12beb22c73f6f</text>
</g>
<!-- 4516 -->
<g id="node2" class="node">
<title>4516</title>
<polygon fill="none" stroke="black" points="689.71,-838.03 689.71,-852.94 648.71,-863.49 590.73,-863.49 549.73,-852.94 549.73,-838.03 590.73,-827.49 648.71,-827.49 689.71,-838.03"/>
<polygon fill="none" stroke="black" points="693.71,-834.93 693.71,-856.04 649.21,-867.49 590.22,-867.49 545.73,-856.04 545.73,-834.93 590.22,-823.49 649.21,-823.49 693.71,-834.93"/>
<polygon fill="none" stroke="black" points="697.71,-831.83 697.71,-859.15 649.72,-871.49 589.72,-871.49 541.73,-859.15 541.73,-831.83 589.72,-819.49 649.72,-819.49 697.71,-831.83"/>
<text text-anchor="middle" x="619.72" y="-840.44" font-family="Times,serif" font-size="14.00">spdx:checkmk</text>
</g>
<!-- 4515&#45;&gt;4516 -->
<g id="edge1" class="edge">
<title>4515&#45;&gt;4516</title>
<path fill="none" stroke="#b8bf62" d="M597.92,-883.13C598.23,-882.63 598.54,-882.13 598.87,-881.61"/>
<polygon fill="#b8bf62" stroke="#b8bf62" points="601.76,-883.59 603.89,-873.21 595.76,-879.99 601.76,-883.59"/>
</g>
<!-- 8545 -->
<g id="node6" class="node">
<title>8545</title>
<polygon fill="none" stroke="#e09d4b" points="568.19,-605.28 568.19,-620.19 522,-630.74 456.68,-630.74 410.49,-620.19 410.49,-605.28 456.68,-594.74 522,-594.74 568.19,-605.28"/>
<polygon fill="none" stroke="#e09d4b" points="572.19,-602.09 572.19,-623.38 522.45,-634.74 456.23,-634.74 406.49,-623.38 406.49,-602.09 456.23,-590.74 522.45,-590.74 572.19,-602.09"/>
<text text-anchor="middle" x="489.34" y="-607.69" font-family="Times,serif" font-size="14.00">Fedora:checkmk</text>
</g>
<!-- 4516&#45;&gt;8545 -->
<g id="edge2" class="edge">
<title>4516&#45;&gt;8545</title>
<path fill="none" stroke="#e09d4b" stroke-width="2" d="M586.56,-820.05C528.31,-774.05 520.06,-754.92 496.47,-646.01"/>
<polygon fill="#e09d4b" stroke="#e09d4b" stroke-width="2" points="494.65,-637.57 501.16,-646.4 495.68,-639.97 497.25,-647.24 496.76,-647.35 496.27,-647.45 494.7,-640.18 492.36,-648.3 494.65,-637.57"/>
</g>
<!-- 40789 -->
<g id="node13" class="node">
<title>40789</title>
<polygon fill="none" stroke="#00876c" points="1089.36,-865.58 1089.36,-880.5 1012.99,-891.04 904.99,-891.04 828.62,-880.5 828.62,-865.58 904.99,-855.04 1012.99,-855.04 1089.36,-865.58"/>
<polygon fill="none" stroke="#00876c" points="1093.36,-862.1 1093.36,-883.98 1013.27,-895.04 904.71,-895.04 824.62,-883.98 824.62,-862.1 904.71,-851.04 1013.27,-851.04 1093.36,-862.1"/>
<text text-anchor="middle" x="958.99" y="-867.99" font-family="Times,serif" font-size="14.00">metaeffekt:Checkmk License</text>
</g>
<!-- 4516&#45;&gt;40789 -->
<g id="edge3" class="edge">
<title>4516&#45;&gt;40789</title>
<path fill="none" stroke="#00876c" stroke-width="2" d="M673.09,-865.98C783.9,-908.05 817.54,-915.46 884.24,-897.17"/>
<polygon fill="#00876c" stroke="#00876c" stroke-width="2" points="892.44,-894.82 884.07,-901.9 890.12,-896 882.97,-898.05 882.83,-897.57 882.69,-897.09 889.84,-895.04 881.59,-893.24 892.44,-894.82"/>
</g>
<!-- 4517 -->
<g id="node3" class="node">
<title>4517</title>
<polygon fill="none" stroke="black" points="791.09,-636.3 791.09,-651.22 762.75,-661.76 722.67,-661.76 694.33,-651.22 694.33,-636.3 722.67,-625.76 762.75,-625.76 791.09,-636.3"/>
<polygon fill="none" stroke="black" points="795.09,-633.52 795.09,-654 763.47,-665.76 721.95,-665.76 690.33,-654 690.33,-633.52 721.95,-621.76 763.47,-621.76 795.09,-633.52"/>
<text text-anchor="middle" x="742.71" y="-638.71" font-family="Times,serif" font-size="14.00">checkmk</text>
</g>
<!-- 4517&#45;&gt;4516 -->
<g id="edge4" class="edge">
<title>4517&#45;&gt;4516</title>
<path fill="none" stroke="black" stroke-width="2" d="M734.18,-665.95C698.54,-758.46 687.31,-784.42 658.97,-811.94"/>
<polygon fill="black" stroke="black" stroke-width="2" points="652.72,-817.74 656.98,-807.64 654.26,-815.63 659.71,-810.57 660.05,-810.94 660.39,-811.31 654.94,-816.37 663.11,-814.24 652.72,-817.74"/>
</g>
<!-- 4517&#45;&gt;8545 -->
<g id="edge5" class="edge">
<title>4517&#45;&gt;8545</title>
<path fill="none" stroke="#e09d4b" stroke-width="2" d="M689.99,-650.8C606.06,-661.53 580.35,-660.76 537.13,-639.21"/>
<polygon fill="#e09d4b" stroke="#e09d4b" stroke-width="2" points="529.47,-635.25 540.42,-635.85 531.98,-635.98 538.58,-639.4 538.36,-639.84 538.13,-640.29 531.52,-636.87 536.29,-643.84 529.47,-635.25"/>
</g>
<!-- 13783 -->
<g id="node8" class="node">
<title>13783</title>
<polygon fill="none" stroke="black" points="1039.76,-809.11 1039.76,-824.03 988.38,-834.57 915.71,-834.57 864.33,-824.03 864.33,-809.11 915.71,-798.57 988.38,-798.57 1039.76,-809.11"/>
<polygon fill="none" stroke="black" points="1043.76,-805.85 1043.76,-827.29 988.78,-838.57 915.31,-838.57 860.33,-827.29 860.33,-805.85 915.31,-794.57 988.78,-794.57 1043.76,-805.85"/>
<text text-anchor="middle" x="952.05" y="-811.52" font-family="Times,serif" font-size="14.00">scancode:checkmk</text>
</g>
<!-- 4517&#45;&gt;13783 -->
<g id="edge6" class="edge">
<title>4517&#45;&gt;13783</title>
<path fill="none" stroke="black" stroke-width="2" d="M767.7,-664.51C859.52,-740.76 883.96,-761.02 916.08,-787.26"/>
<polygon fill="black" stroke="black" stroke-width="2" points="922.57,-792.56 911.97,-789.72 920.26,-791.32 914.5,-786.62 914.82,-786.23 915.13,-785.85 920.9,-790.55 917.66,-782.75 922.57,-792.56"/>
</g>
<!-- 36679 -->
<g id="node11" class="node">
<title>36679</title>
<polygon fill="none" stroke="#379469" points="845.96,-366.85 845.96,-381.76 804.64,-392.3 746.2,-392.3 704.88,-381.76 704.88,-366.85 746.2,-356.3 804.64,-356.3 845.96,-366.85"/>
<polygon fill="none" stroke="#379469" points="849.96,-363.74 849.96,-384.87 805.14,-396.3 745.7,-396.3 700.88,-384.87 700.88,-363.74 745.7,-352.3 805.14,-352.3 849.96,-363.74"/>
<text text-anchor="middle" x="775.42" y="-369.25" font-family="Times,serif" font-size="14.00">cavil:checkmk</text>
</g>
<!-- 4517&#45;&gt;36679 -->
<g id="edge7" class="edge">
<title>4517&#45;&gt;36679</title>
<path fill="none" stroke="#379469" stroke-width="2" d="M750.85,-621.47C796.75,-495.44 801.53,-476.15 784.17,-407.31"/>
<polygon fill="#379469" stroke="#379469" stroke-width="2" points="782.05,-399.14 788.91,-407.7 783.18,-401.49 785.04,-408.7 784.55,-408.82 784.07,-408.95 782.21,-401.74 780.2,-409.95 782.05,-399.14"/>
</g>
<!-- 4517&#45;&gt;40789 -->
<g id="edge8" class="edge">
<title>4517&#45;&gt;40789</title>
<path fill="none" stroke="#00876c" stroke-dasharray="5,2" d="M764.08,-665.9C873.03,-778.81 894.03,-800.73 931.81,-842.7"/>
<polygon fill="#00876c" stroke="#00876c" points="938.27,-849.89 928.24,-845.46 935.74,-847.08 931.59,-842.46 931.59,-842.46 931.59,-842.46 935.74,-847.08 934.93,-839.45 938.27,-849.89"/>
</g>
<!-- 4518 -->
<g id="node4" class="node">
<title>4518</title>
<polygon fill="none" stroke="black" points="838.96,-776.83 838.96,-791.74 789.52,-802.28 719.61,-802.28 670.18,-791.74 670.18,-776.83 719.61,-766.28 789.52,-766.28 838.96,-776.83"/>
<polygon fill="none" stroke="black" points="842.96,-773.59 842.96,-794.98 789.94,-806.28 719.19,-806.28 666.18,-794.98 666.18,-773.59 719.19,-762.28 789.94,-762.28 842.96,-773.59"/>
<text text-anchor="middle" x="754.57" y="-779.23" font-family="Times,serif" font-size="14.00">Checkmk License</text>
</g>
<!-- 4518&#45;&gt;4516 -->
<g id="edge9" class="edge">
<title>4518&#45;&gt;4516</title>
<path fill="none" stroke="#b8bf62" stroke-width="2" d="M730.19,-806.76C721.22,-814.84 713.79,-821.2 707.04,-826.2"/>
<polygon fill="#b8bf62" stroke="#b8bf62" stroke-width="2" points="700.19,-830.86 705.93,-821.51 702.03,-829 708.18,-824.82 708.46,-825.23 708.75,-825.65 702.6,-829.83 710.99,-828.95 700.19,-830.86"/>
</g>
<!-- 4518&#45;&gt;13783 -->
<g id="edge10" class="edge">
<title>4518&#45;&gt;13783</title>
<path fill="none" stroke="#dac767" stroke-width="2" d="M805.88,-803.38C823.33,-809.73 837.25,-814.49 849.12,-817.91"/>
<polygon fill="#dac767" stroke="#dac767" stroke-width="2" points="857.56,-820.16 846.74,-821.93 854.95,-819.98 847.77,-818.07 847.9,-817.58 848.03,-817.1 855.21,-819.02 849.06,-813.24 857.56,-820.16"/>
</g>
<!-- 4518&#45;&gt;40789 -->
<g id="edge11" class="edge">
<title>4518&#45;&gt;40789</title>
<path fill="none" stroke="#00876c" stroke-width="2" d="M790.76,-806.61C824.77,-827.5 847.37,-840.92 865.57,-849.93"/>
<polygon fill="#00876c" stroke="#00876c" stroke-width="2" points="873.35,-853.58 862.38,-853.4 870.82,-852.95 864.09,-849.78 864.3,-849.33 864.51,-848.88 871.24,-852.04 866.21,-845.26 873.35,-853.58"/>
</g>
<!-- 8544 -->
<g id="node5" class="node">
<title>8544</title>
<ellipse fill="none" stroke="#e09d4b" cx="155.6" cy="-462.82" rx="156.09" ry="28.99"/>
<text text-anchor="middle" x="155.6" y="-466.02" font-family="Times,serif" font-size="14.00" fill="gray">FedoraEntry</text>
<text text-anchor="middle" x="155.6" y="-449.52" font-family="Times,serif" font-size="14.00" fill="gray">5ea36ea11b41d3a3ffd34ce40a68e4b2</text>
</g>
<!-- 8544&#45;&gt;8545 -->
<g id="edge12" class="edge">
<title>8544&#45;&gt;8545</title>
<path fill="none" stroke="#e09d4b" d="M196.23,-491.26C249.44,-527.26 281.54,-540.41 426.72,-590.99"/>
<polygon fill="#e09d4b" stroke="#e09d4b" points="425.35,-594.22 435.94,-594.2 427.65,-587.61 425.35,-594.22"/>
</g>
<!-- 13782 -->
<g id="node7" class="node">
<title>13782</title>
<ellipse fill="none" stroke="#dac767" cx="1058.07" cy="-749.84" rx="157.68" ry="28.99"/>
<text text-anchor="middle" x="1058.07" y="-753.04" font-family="Times,serif" font-size="14.00" fill="gray">ScancodeData</text>
<text text-anchor="middle" x="1058.07" y="-736.54" font-family="Times,serif" font-size="14.00" fill="gray">c626d75c81ca7ffe2d61db948bb2c262</text>
</g>
<!-- 13782&#45;&gt;13783 -->
<g id="edge13" class="edge">
<title>13782&#45;&gt;13783</title>
<path fill="none" stroke="#dac767" d="M1037.06,-778.85C1031.89,-784.91 1026.85,-789.43 1020.62,-793.28"/>
<polygon fill="#dac767" stroke="#dac767" points="1019.11,-790.12 1011.83,-797.82 1022.32,-796.34 1019.11,-790.12"/>
</g>
<!-- 13783&#45;&gt;40789 -->
<g id="edge14" class="edge">
<title>13783&#45;&gt;40789</title>
<path fill="none" stroke="#00876c" stroke-dasharray="5,2" d="M959.1,-838.67C959.24,-839.14 959.37,-839.6 959.49,-840.05"/>
<polygon fill="#00876c" stroke="#00876c" points="961.56,-849.68 955.06,-840.85 960.77,-845.99 959.46,-839.91 959.46,-839.91 959.46,-839.91 960.77,-845.99 963.86,-838.96 961.56,-849.68"/>
</g>
<!-- 35282 -->
<g id="node9" class="node">
<title>35282</title>
<ellipse fill="none" stroke="#e06f45" cx="353.75" cy="-1123.1" rx="161.4" ry="28.99"/>
<text text-anchor="middle" x="353.75" y="-1126.3" font-family="Times,serif" font-size="14.00" fill="gray">OrtLicenseCategorization</text>
<text text-anchor="middle" x="353.75" y="-1109.8" font-family="Times,serif" font-size="14.00" fill="gray">48a27352437132e0a52a10b2783a1861</text>
</g>
<!-- 35282&#45;&gt;4516 -->
<g id="edge15" class="edge">
<title>35282&#45;&gt;4516</title>
<path fill="none" stroke="#e06f45" d="M395.67,-1094.71C455.61,-1052.73 478.66,-1025.69 592.33,-880.5"/>
<polygon fill="#e06f45" stroke="#e06f45" points="594.9,-882.9 598.3,-872.87 589.38,-878.59 594.9,-882.9"/>
</g>
<!-- 36678 -->
<g id="node10" class="node">
<title>36678</title>
<ellipse fill="none" stroke="#379469" cx="803.69" cy="-28.72" rx="157.15" ry="28.99"/>
<text text-anchor="middle" x="803.69" y="-31.92" font-family="Times,serif" font-size="14.00" fill="gray">CavilLicenseChange</text>
<text text-anchor="middle" x="803.69" y="-15.42" font-family="Times,serif" font-size="14.00" fill="gray">2605bc8f4ddeab7d81edad0fda02bc79</text>
</g>
<!-- 36678&#45;&gt;36679 -->
<g id="edge16" class="edge">
<title>36678&#45;&gt;36679</title>
<path fill="none" stroke="#379469" d="M805.79,-58.12C810.86,-133.79 808.22,-157.21 780.47,-340.91"/>
<polygon fill="#379469" stroke="#379469" points="777.04,-340.18 779.01,-350.59 783.96,-341.22 777.04,-340.18"/>
</g>
<!-- 40788 -->
<g id="node12" class="node">
<title>40788</title>
<ellipse fill="none" stroke="#00876c" cx="1041.1" cy="-940.12" rx="155.03" ry="28.99"/>
<text text-anchor="middle" x="1041.1" y="-943.32" font-family="Times,serif" font-size="14.00" fill="gray">MetaeffektLicense</text>
<text text-anchor="middle" x="1041.1" y="-926.82" font-family="Times,serif" font-size="14.00" fill="gray">0c96c9aee3f3577d22b9af6411c4fe14</text>
</g>
<!-- 40788&#45;&gt;40789 -->
<g id="edge17" class="edge">
<title>40788&#45;&gt;40789</title>
<path fill="none" stroke="#00876c" d="M1003.99,-911.62C1000.98,-909.09 997.61,-906.23 993.74,-902.93"/>
<polygon fill="#00876c" stroke="#00876c" points="996.07,-900.31 986.2,-896.47 991.51,-905.63 996.07,-900.31"/>
</g>
<!-- 40790 -->
<g id="node14" class="node">
<title>40790</title>
<polygon fill="none" stroke="#00876c" points="1328.64,-1040.46 1328.64,-1055.37 1288.29,-1065.92 1231.23,-1065.92 1190.88,-1055.37 1190.88,-1040.46 1231.23,-1029.92 1288.29,-1029.92 1328.64,-1040.46"/>
<text text-anchor="middle" x="1259.76" y="-1042.87" font-family="Times,serif" font-size="14.00">Micah Cowan</text>
</g>
<!-- 40790&#45;&gt;40789 -->
<g id="edge18" class="edge">
<title>40790&#45;&gt;40789</title>
<path fill="none" stroke="#00876c" stroke-dasharray="5,2" d="M1222.6,-1031.83C1163.57,-1005.76 1137.48,-989.8 1002.11,-901.27"/>
<polygon fill="#00876c" stroke="#00876c" points="994.06,-896 1004.89,-897.7 997.22,-898.07 1002.43,-901.47 1002.43,-901.47 1002.43,-901.47 997.22,-898.07 999.96,-905.24 994.06,-896"/>
</g>
</g>
</svg>
