<?xml version="1.0" encoding="UTF-8" standalone="no"?>
<!DOCTYPE svg PUBLIC "-//W3C//DTD SVG 1.1//EN"
 "http://www.w3.org/Graphics/SVG/1.1/DTD/svg11.dtd">
<!-- Generated by graphviz version 10.0.1 (0)
 -->
<!-- Pages: 1 -->
<svg width="3060pt" height="4286pt"
 viewBox="0.00 0.00 3060.00 4286.00" xmlns="http://www.w3.org/2000/svg" xmlns:xlink="http://www.w3.org/1999/xlink">
<g id="graph0" class="graph" transform="scale(1 1) rotate(0) translate(4 4282)">
<polygon fill="white" stroke="none" points="-4,4 -4,-4282 3056,-4282 3056,4 -4,4"/>
<!-- 5 -->
<g id="node1" class="node">
<title>5</title>
<text text-anchor="start" x="2387.61" y="-2320.81" font-family="Times,serif" font-size="14.00">OSI: </text>
<text text-anchor="start" x="2416.86" y="-2320.81" font-family="Times,serif" font-weight="bold" font-size="14.00" fill="#8b0000">Rejected</text>
</g>
<!-- 1405 -->
<g id="node2" class="node">
<title>1405</title>
<ellipse fill="none" stroke="#dac767" cx="2210.19" cy="-2030.28" rx="156.09" ry="28.99"/>
<text text-anchor="middle" x="2210.19" y="-2033.48" font-family="Times,serif" font-size="14.00" fill="gray">SPDXLicense</text>
<text text-anchor="middle" x="2210.19" y="-2016.98" font-family="Times,serif" font-size="14.00" fill="gray">776c1dd83b2aeaaf766c1faa927231c3</text>
</g>
<!-- 5&#45;&gt;1405 -->
<g id="edge1" class="edge">
<title>5&#45;&gt;1405</title>
<path fill="none" stroke="#dac767" d="M2422.97,-2307.1C2394.36,-2192.13 2385.61,-2176.71 2252.97,-2065.86"/>
<polygon fill="#dac767" stroke="#dac767" points="2255.55,-2063.46 2245.63,-2059.74 2251.07,-2068.83 2255.55,-2063.46"/>
</g>
<!-- 1406 -->
<g id="node3" class="node">
<title>1406</title>
<polygon fill="none" stroke="black" points="1697.69,-1837.65 1697.69,-1852.56 1648.91,-1863.11 1579.92,-1863.11 1531.13,-1852.56 1531.13,-1837.65 1579.92,-1827.11 1648.91,-1827.11 1697.69,-1837.65"/>
<polygon fill="none" stroke="black" points="1701.69,-1834.42 1701.69,-1855.79 1649.34,-1867.11 1579.49,-1867.11 1527.13,-1855.79 1527.13,-1834.42 1579.49,-1823.11 1649.34,-1823.11 1701.69,-1834.42"/>
<polygon fill="none" stroke="black" points="1705.69,-1831.2 1705.69,-1859.02 1649.76,-1871.11 1579.06,-1871.11 1523.13,-1859.02 1523.13,-1831.2 1579.06,-1819.11 1649.76,-1819.11 1705.69,-1831.2"/>
<text text-anchor="middle" x="1614.41" y="-1840.06" font-family="Times,serif" font-size="14.00">spdx:CMU&#45;Mach</text>
</g>
<!-- 1405&#45;&gt;1406 -->
<g id="edge2" class="edge">
<title>1405&#45;&gt;1406</title>
<path fill="none" stroke="#dac767" d="M2174.71,-2001.89C2036.23,-1891.89 2001.73,-1879.27 1717.13,-1853.99"/>
<polygon fill="#dac767" stroke="#dac767" points="1717.8,-1850.54 1707.53,-1853.14 1717.19,-1857.51 1717.8,-1850.54"/>
</g>
<!-- 7048 -->
<g id="node13" class="node">
<title>7048</title>
<polygon fill="none" stroke="#e09d4b" points="1874.5,-1400.82 1874.5,-1415.73 1820.53,-1426.27 1744.19,-1426.27 1690.21,-1415.73 1690.21,-1400.82 1744.19,-1390.27 1820.53,-1390.27 1874.5,-1400.82"/>
<polygon fill="none" stroke="#e09d4b" points="1878.5,-1397.52 1878.5,-1419.02 1820.91,-1430.27 1743.8,-1430.27 1686.21,-1419.02 1686.21,-1397.52 1743.8,-1386.27 1820.91,-1386.27 1878.5,-1397.52"/>
<text text-anchor="middle" x="1782.36" y="-1403.22" font-family="Times,serif" font-size="14.00">Fedora:CMU&#45;Mach</text>
</g>
<!-- 1406&#45;&gt;7048 -->
<g id="edge3" class="edge">
<title>1406&#45;&gt;7048</title>
<path fill="none" stroke="#e09d4b" stroke-width="2" d="M1624.13,-1818.89C1718.53,-1564.18 1728.64,-1537.3 1768.82,-1440.75"/>
<polygon fill="#e09d4b" stroke="#e09d4b" stroke-width="2" points="1772.13,-1432.8 1772.44,-1443.76 1771.61,-1435.35 1768.75,-1442.22 1768.29,-1442.03 1767.82,-1441.83 1770.68,-1434.97 1764.13,-1440.3 1772.13,-1432.8"/>
</g>
<!-- 14760 -->
<g id="node15" class="node">
<title>14760</title>
<polygon fill="none" stroke="black" points="1803.79,-1487.41 1803.79,-1502.32 1705.36,-1512.87 1566.15,-1512.87 1467.71,-1502.32 1467.71,-1487.41 1566.15,-1476.87 1705.36,-1476.87 1803.79,-1487.41"/>
<polygon fill="none" stroke="black" points="1807.79,-1483.82 1807.79,-1505.92 1705.57,-1516.87 1565.94,-1516.87 1463.71,-1505.92 1463.71,-1483.82 1565.94,-1472.87 1705.57,-1472.87 1807.79,-1483.82"/>
<text text-anchor="middle" x="1635.75" y="-1489.82" font-family="Times,serif" font-size="14.00">scancode:carnegie&#45;mellon&#45;contributors</text>
</g>
<!-- 1406&#45;&gt;14760 -->
<g id="edge4" class="edge">
<title>1406&#45;&gt;14760</title>
<path fill="none" stroke="#deb256" stroke-width="2" d="M1619.82,-1818.73C1627.48,-1755.88 1637.25,-1597.42 1637.88,-1528.14"/>
<polygon fill="#deb256" stroke="#deb256" stroke-width="2" points="1637.9,-1519.49 1642.38,-1529.5 1638.39,-1522.05 1638.38,-1529.49 1637.88,-1529.49 1637.38,-1529.49 1637.39,-1522.05 1633.38,-1529.48 1637.9,-1519.49"/>
</g>
<!-- 55667 -->
<g id="node35" class="node">
<title>55667</title>
<polygon fill="none" stroke="#379469" points="1331.6,-1468.16 1331.6,-1483.07 1235.77,-1493.62 1100.23,-1493.62 1004.39,-1483.07 1004.39,-1468.16 1100.23,-1457.62 1235.77,-1457.62 1331.6,-1468.16"/>
<polygon fill="none" stroke="#379469" points="1335.6,-1464.58 1335.6,-1486.66 1235.98,-1497.62 1100.01,-1497.62 1000.39,-1486.66 1000.39,-1464.58 1100.01,-1453.62 1235.98,-1453.62 1335.6,-1464.58"/>
<text text-anchor="middle" x="1168" y="-1470.57" font-family="Times,serif" font-size="14.00">metaeffekt:Permission Terms (CMU)</text>
</g>
<!-- 1406&#45;&gt;55667 -->
<g id="edge5" class="edge">
<title>1406&#45;&gt;55667</title>
<path fill="none" stroke="#379469" stroke-width="2" d="M1591.98,-1819C1392.03,-1586.44 1359.97,-1552.41 1236.41,-1502.22"/>
<polygon fill="#379469" stroke="#379469" stroke-width="2" points="1228.43,-1499.01 1239.39,-1498.56 1230.99,-1499.5 1237.9,-1502.27 1237.71,-1502.74 1237.52,-1503.2 1230.62,-1500.43 1236.03,-1506.91 1228.43,-1499.01"/>
</g>
<!-- 1407 -->
<g id="node4" class="node">
<title>1407</title>
<polygon fill="none" stroke="black" points="2010.17,-1632.28 2010.17,-1647.19 1974.04,-1657.74 1922.94,-1657.74 1886.82,-1647.19 1886.82,-1632.28 1922.94,-1621.74 1974.04,-1621.74 2010.17,-1632.28"/>
<polygon fill="none" stroke="black" points="2014.17,-1629.28 2014.17,-1650.19 1974.61,-1661.74 1922.37,-1661.74 1882.82,-1650.19 1882.82,-1629.28 1922.37,-1617.74 1974.61,-1617.74 2014.17,-1629.28"/>
<text text-anchor="middle" x="1948.49" y="-1634.69" font-family="Times,serif" font-size="14.00">CMU&#45;Mach</text>
</g>
<!-- 1407&#45;&gt;1406 -->
<g id="edge6" class="edge">
<title>1407&#45;&gt;1406</title>
<path fill="none" stroke="black" stroke-width="2" d="M1897.95,-1655.06C1825.43,-1678.47 1796.17,-1699.09 1655.78,-1811.84"/>
<polygon fill="black" stroke="black" stroke-width="2" points="1649.15,-1817.16 1654.13,-1807.39 1650.84,-1815.17 1656.64,-1810.51 1656.95,-1810.9 1657.26,-1811.29 1651.46,-1815.95 1659.77,-1814.41 1649.15,-1817.16"/>
</g>
<!-- 1407&#45;&gt;7048 -->
<g id="edge7" class="edge">
<title>1407&#45;&gt;7048</title>
<path fill="none" stroke="#e09d4b" stroke-width="2" d="M1941.03,-1617.51C1901.02,-1498.63 1890.75,-1476.19 1828.52,-1436.33"/>
<polygon fill="#e09d4b" stroke="#e09d4b" stroke-width="2" points="1821.44,-1431.88 1832.3,-1433.4 1823.88,-1432.82 1830.17,-1436.79 1829.91,-1437.21 1829.64,-1437.63 1823.35,-1433.67 1827.51,-1441.02 1821.44,-1431.88"/>
</g>
<!-- 41392 -->
<g id="node31" class="node">
<title>41392</title>
<polygon fill="none" stroke="#379469" points="2369.44,-1534.03 2369.44,-1548.94 2320.33,-1559.48 2250.88,-1559.48 2201.77,-1548.94 2201.77,-1534.03 2250.88,-1523.48 2320.33,-1523.48 2369.44,-1534.03"/>
<polygon fill="none" stroke="#379469" points="2373.44,-1530.79 2373.44,-1552.17 2320.76,-1563.48 2250.46,-1563.48 2197.77,-1552.17 2197.77,-1530.79 2250.46,-1519.48 2320.76,-1519.48 2373.44,-1530.79"/>
<text text-anchor="middle" x="2285.61" y="-1536.43" font-family="Times,serif" font-size="14.00">cavil:CMU&#45;Mach</text>
</g>
<!-- 1407&#45;&gt;41392 -->
<g id="edge8" class="edge">
<title>1407&#45;&gt;41392</title>
<path fill="none" stroke="#379469" stroke-width="2" d="M1989.52,-1621.69C2097.81,-1574.13 2143.42,-1555.22 2186.55,-1547.43"/>
<polygon fill="#379469" stroke="#379469" stroke-width="2" points="2195.09,-1546.06 2185.93,-1552.09 2192.64,-1546.96 2185.3,-1548.14 2185.22,-1547.64 2185.14,-1547.15 2192.48,-1545.97 2184.51,-1543.2 2195.09,-1546.06"/>
</g>
<!-- 1408 -->
<g id="node5" class="node">
<title>1408</title>
<polygon fill="none" stroke="black" points="1498.51,-1820.11 1498.51,-1835.02 1442.91,-1845.57 1364.28,-1845.57 1308.68,-1835.02 1308.68,-1820.11 1364.28,-1809.57 1442.91,-1809.57 1498.51,-1820.11"/>
<polygon fill="none" stroke="black" points="1502.51,-1816.8 1502.51,-1838.34 1443.28,-1849.57 1363.9,-1849.57 1304.68,-1838.34 1304.68,-1816.8 1363.9,-1805.57 1443.28,-1805.57 1502.51,-1816.8"/>
<text text-anchor="middle" x="1403.59" y="-1822.52" font-family="Times,serif" font-size="14.00">CMU Mach License</text>
</g>
<!-- 1408&#45;&gt;1406 -->
<g id="edge9" class="edge">
<title>1408&#45;&gt;1406</title>
<path fill="none" stroke="#dac767" stroke-width="2" d="M1464.47,-1809.1C1498.24,-1800.89 1518.26,-1802.92 1554.26,-1817.66"/>
<polygon fill="#dac767" stroke="#dac767" stroke-width="2" points="1562.07,-1820.97 1551.11,-1821.21 1559.52,-1820.43 1552.67,-1817.53 1552.86,-1817.07 1553.06,-1816.61 1559.91,-1819.51 1554.62,-1812.92 1562.07,-1820.97"/>
</g>
<!-- 1408&#45;&gt;55667 -->
<g id="edge10" class="edge">
<title>1408&#45;&gt;55667</title>
<path fill="none" stroke="#379469" stroke-dasharray="5,2" d="M1389.91,-1805.37C1264.97,-1602.62 1248.41,-1576.43 1192.76,-1506.52"/>
<polygon fill="#379469" stroke="#379469" points="1186.53,-1498.71 1196.28,-1503.72 1188.89,-1501.67 1192.76,-1506.53 1192.76,-1506.53 1192.76,-1506.53 1188.89,-1501.67 1189.25,-1509.33 1186.53,-1498.71"/>
</g>
<!-- 66855 -->
<g id="node41" class="node">
<title>66855</title>
<polygon fill="none" stroke="#00876c" points="1447.51,-1752.95 1447.51,-1767.86 1379.25,-1778.41 1282.73,-1778.41 1214.47,-1767.86 1214.47,-1752.95 1282.73,-1742.41 1379.25,-1742.41 1447.51,-1752.95"/>
<polygon fill="none" stroke="#00876c" points="1451.51,-1749.52 1451.51,-1771.29 1379.56,-1782.41 1282.42,-1782.41 1210.47,-1771.29 1210.47,-1749.52 1282.42,-1738.41 1379.56,-1738.41 1451.51,-1749.52"/>
<text text-anchor="middle" x="1330.99" y="-1755.36" font-family="Times,serif" font-size="14.00">spdx:CMU Mach License</text>
</g>
<!-- 1408&#45;&gt;66855 -->
<g id="edge11" class="edge">
<title>1408&#45;&gt;66855</title>
<path fill="none" stroke="#00876c" stroke-width="2" d="M1384.19,-1805.21C1379.17,-1799.48 1374.96,-1794.77 1371.28,-1790.81"/>
<polygon fill="#00876c" stroke="#00876c" stroke-width="2" points="1365.21,-1784.55 1375.4,-1788.59 1367.35,-1786.04 1372.53,-1791.38 1372.17,-1791.73 1371.82,-1792.08 1366.63,-1786.74 1368.95,-1794.86 1365.21,-1784.55"/>
</g>
<!-- 1409 -->
<g id="node6" class="node">
<title>1409</title>
<text text-anchor="middle" x="2595.31" y="-2205.04" font-family="Times,serif" font-size="14.00">$TEXT</text>
</g>
<!-- 1409&#45;&gt;1405 -->
<g id="edge12" class="edge">
<title>1409&#45;&gt;1405</title>
<path fill="none" stroke="#dac767" d="M2574.36,-2192.27C2498.02,-2127.74 2474.44,-2114.95 2300.62,-2059.08"/>
<polygon fill="#dac767" stroke="#dac767" points="2301.81,-2055.79 2291.22,-2056.06 2299.67,-2062.45 2301.81,-2055.79"/>
</g>
<!-- 1410 -->
<g id="node7" class="node">
<title>1410</title>
<text text-anchor="middle" x="2803.55" y="-2306.11" font-family="Times,serif" font-size="14.00">$TEXT</text>
</g>
<!-- 1410&#45;&gt;1409 -->
<g id="edge13" class="edge">
<title>1410&#45;&gt;1409</title>
<path fill="none" stroke="#dac767" d="M2780.58,-2293.27C2746.41,-2267.42 2727.45,-2258.94 2634.4,-2224.5"/>
<polygon fill="#dac767" stroke="#dac767" points="2635.63,-2221.23 2625.04,-2221.04 2633.21,-2227.79 2635.63,-2221.23"/>
</g>
<!-- 1411 -->
<g id="node8" class="node">
<title>1411</title>
<text text-anchor="middle" x="2451.74" y="-1633.13" font-family="Times,serif" font-size="14.00">https://www.cs.cmu.edu/~410/licenses.html</text>
</g>
<!-- 1411&#45;&gt;1405 -->
<g id="edge14" class="edge">
<title>1411&#45;&gt;1405</title>
<path fill="none" stroke="#dac767" d="M2447.92,-1656.17C2418.67,-1793.22 2410.22,-1808.83 2243.93,-1992.97"/>
<polygon fill="#dac767" stroke="#dac767" points="2241.53,-1990.4 2237.42,-2000.17 2246.73,-1995.1 2241.53,-1990.4"/>
</g>
<!-- 14759 -->
<g id="node14" class="node">
<title>14759</title>
<ellipse fill="none" stroke="#deb256" cx="2218.41" cy="-1226.55" rx="159.81" ry="28.99"/>
<text text-anchor="middle" x="2218.41" y="-1229.75" font-family="Times,serif" font-size="14.00" fill="gray">ScancodeData</text>
<text text-anchor="middle" x="2218.41" y="-1213.25" font-family="Times,serif" font-size="14.00" fill="gray">037a2ea60888a2588a0329b7bae4b7cb</text>
</g>
<!-- 1411&#45;&gt;14759 -->
<g id="edge15" class="edge">
<title>1411&#45;&gt;14759</title>
<path fill="none" stroke="#deb256" d="M2448.75,-1620.52C2410.14,-1392.91 2403.2,-1369.52 2264.4,-1261.85"/>
<polygon fill="#deb256" stroke="#deb256" points="2266.76,-1259.24 2256.7,-1255.89 2262.47,-1264.78 2266.76,-1259.24"/>
</g>
<!-- 5550 -->
<g id="node9" class="node">
<title>5550</title>
<text text-anchor="middle" x="2573.1" y="-1008.97" font-family="Times,serif" font-size="14.00">LicenseType Permissive</text>
</g>
<!-- 5550&#45;&gt;14759 -->
<g id="edge16" class="edge">
<title>5550&#45;&gt;14759</title>
<path fill="none" stroke="#deb256" d="M2522.84,-1031.98C2450.84,-1058.89 2419.15,-1079.79 2266.67,-1191.23"/>
<polygon fill="#deb256" stroke="#deb256" points="2264.65,-1188.38 2258.64,-1197.1 2268.78,-1194.03 2264.65,-1188.38"/>
</g>
<!-- 6592 -->
<g id="node10" class="node">
<title>6592</title>
<text text-anchor="middle" x="1987.61" y="-476.8" font-family="Times,serif" font-size="14.00">[&quot;allowed&quot;]</text>
</g>
<!-- 7047 -->
<g id="node12" class="node">
<title>7047</title>
<ellipse fill="none" stroke="#e09d4b" cx="1885.31" cy="-902.74" rx="157.15" ry="28.99"/>
<text text-anchor="middle" x="1885.31" y="-905.94" font-family="Times,serif" font-size="14.00" fill="gray">FedoraEntry</text>
<text text-anchor="middle" x="1885.31" y="-889.44" font-family="Times,serif" font-size="14.00" fill="gray">9da160f94524f26e64b7b57c6e4f2473</text>
</g>
<!-- 6592&#45;&gt;7047 -->
<g id="edge17" class="edge">
<title>6592&#45;&gt;7047</title>
<path fill="none" stroke="#e09d4b" d="M1983.77,-499.61C1961.13,-604.13 1956.86,-621.69 1895.54,-862.58"/>
<polygon fill="#e09d4b" stroke="#e09d4b" points="1892.21,-861.45 1893.14,-872.01 1899,-863.18 1892.21,-861.45"/>
</g>
<!-- 6593 -->
<g id="node11" class="node">
<title>6593</title>
<text text-anchor="start" x="2061.99" y="-103.42" font-family="Times,serif" font-size="14.00">Fedora: </text>
<text text-anchor="start" x="2106.99" y="-103.42" font-family="Times,serif" font-weight="bold" font-size="14.00" fill="#228b22">allowed</text>
<text text-anchor="start" x="1898.11" y="-89.42" font-family="Times,serif" font-size="14.00">A license is allowed if Fedora determines that the license is a free software /</text>
<text text-anchor="start" x="1892.86" y="-75.42" font-family="Times,serif" font-size="14.00">open source license. At a high level, the inquiry involves determining whether</text>
<text text-anchor="start" x="1891.74" y="-61.42" font-family="Times,serif" font-size="14.00">the license provides software freedom, and (equivalently) making sure that the</text>
<text text-anchor="start" x="1901.86" y="-47.42" font-family="Times,serif" font-size="14.00">license does not place burdens on users&#39; exercise of its permissions that are</text>
<text text-anchor="start" x="1901.49" y="-33.42" font-family="Times,serif" font-size="14.00">inconsistent with evolving community norms and traditions around what is</text>
<text text-anchor="start" x="1893.24" y="-19.42" font-family="Times,serif" font-size="14.00">acceptable in a free software / open source license. See below for more on the</text>
<text text-anchor="start" x="2013.24" y="-5.42" font-family="Times,serif" font-size="14.00">history of Fedora licensing policy.</text>
</g>
<!-- 6593&#45;&gt;6592 -->
<g id="edge18" class="edge">
<title>6593&#45;&gt;6592</title>
<path fill="none" stroke="#e09d4b" d="M2089.64,-119.53C2068.76,-193.17 2056.4,-237.09 1995.78,-452.8"/>
<polygon fill="#e09d4b" stroke="#e09d4b" points="1992.41,-451.84 1993.08,-462.41 1999.15,-453.73 1992.41,-451.84"/>
</g>
<!-- 7047&#45;&gt;7048 -->
<g id="edge19" class="edge">
<title>7047&#45;&gt;7048</title>
<path fill="none" stroke="#e09d4b" d="M1881.39,-931.99C1864.88,-1054.21 1859.49,-1079.04 1790.13,-1375.1"/>
<polygon fill="#e09d4b" stroke="#e09d4b" points="1786.75,-1374.19 1787.88,-1384.73 1793.56,-1375.79 1786.75,-1374.19"/>
</g>
<!-- 14759&#45;&gt;14760 -->
<g id="edge20" class="edge">
<title>14759&#45;&gt;14760</title>
<path fill="none" stroke="#deb256" d="M2081.18,-1241.59C1971.22,-1260.39 1907.46,-1302.42 1676.66,-1465.88"/>
<polygon fill="#deb256" stroke="#deb256" points="1674.7,-1462.98 1668.56,-1471.62 1678.74,-1468.69 1674.7,-1462.98"/>
</g>
<!-- 14760&#45;&gt;1406 -->
<g id="edge21" class="edge">
<title>14760&#45;&gt;1406</title>
<path fill="none" stroke="#00876c" stroke-width="2" d="M1630.84,-1517.36C1623.25,-1576.26 1613.28,-1735.42 1612.33,-1808.06"/>
<polygon fill="#00876c" stroke="#00876c" stroke-width="2" points="1612.27,-1816.51 1607.84,-1806.48 1611.79,-1813.94 1611.84,-1806.51 1612.34,-1806.51 1612.84,-1806.51 1612.79,-1813.95 1616.84,-1806.54 1612.27,-1816.51"/>
</g>
<!-- 14760&#45;&gt;55667 -->
<g id="edge22" class="edge">
<title>14760&#45;&gt;55667</title>
<path fill="none" stroke="#379469" stroke-dasharray="5,2" d="M1579.97,-1472.4C1408.85,-1404.09 1374.37,-1399.72 1237.68,-1449.44"/>
<polygon fill="#379469" stroke="#379469" points="1228.37,-1452.86 1236.21,-1445.19 1231.92,-1451.56 1237.76,-1449.41 1237.76,-1449.41 1237.76,-1449.41 1231.92,-1451.56 1239.31,-1453.64 1228.37,-1452.86"/>
</g>
<!-- 14761 -->
<g id="node16" class="node">
<title>14761</title>
<polygon fill="none" stroke="black" points="1630.89,-1024.96 1630.89,-1039.87 1555.5,-1050.42 1448.87,-1050.42 1373.48,-1039.87 1373.48,-1024.96 1448.87,-1014.42 1555.5,-1014.42 1630.89,-1024.96"/>
<polygon fill="none" stroke="black" points="1634.89,-1021.48 1634.89,-1043.35 1555.78,-1054.42 1448.6,-1054.42 1369.48,-1043.35 1369.48,-1021.48 1448.6,-1010.42 1555.78,-1010.42 1634.89,-1021.48"/>
<text text-anchor="middle" x="1502.19" y="-1027.37" font-family="Times,serif" font-size="14.00">carnegie&#45;mellon&#45;contributors</text>
</g>
<!-- 14761&#45;&gt;14760 -->
<g id="edge23" class="edge">
<title>14761&#45;&gt;14760</title>
<path fill="none" stroke="black" stroke-width="2" d="M1514.05,-1054.86C1571.67,-1164.37 1576.99,-1185.19 1629.44,-1461.59"/>
<polygon fill="black" stroke="black" stroke-width="2" points="1631.04,-1469.98 1624.75,-1461 1630.07,-1467.56 1628.68,-1460.25 1629.17,-1460.16 1629.66,-1460.07 1631.05,-1467.37 1633.59,-1459.32 1631.04,-1469.98"/>
</g>
<!-- 14762 -->
<g id="node17" class="node">
<title>14762</title>
<polygon fill="none" stroke="black" points="1984.46,-1990.4 1984.46,-2005.31 1906.47,-2015.85 1796.18,-2015.85 1718.19,-2005.31 1718.19,-1990.4 1796.18,-1979.85 1906.47,-1979.85 1984.46,-1990.4"/>
<polygon fill="none" stroke="black" points="1988.46,-1986.9 1988.46,-2008.81 1906.74,-2019.85 1795.91,-2019.85 1714.19,-2008.81 1714.19,-1986.9 1795.91,-1975.85 1906.74,-1975.85 1988.46,-1986.9"/>
<text text-anchor="middle" x="1851.33" y="-1992.8" font-family="Times,serif" font-size="14.00">Carnegie Mellon Contributors</text>
</g>
<!-- 14762&#45;&gt;14760 -->
<g id="edge24" class="edge">
<title>14762&#45;&gt;14760</title>
<path fill="none" stroke="#deb256" stroke-width="2" d="M1847.79,-1975.46C1800.06,-1673.07 1793.76,-1649.21 1666.31,-1524.56"/>
<polygon fill="#deb256" stroke="#deb256" stroke-width="2" points="1660.3,-1518.69 1670.6,-1522.45 1662.48,-1520.12 1667.8,-1525.31 1667.46,-1525.67 1667.11,-1526.03 1661.78,-1520.83 1664.31,-1528.89 1660.3,-1518.69"/>
</g>
<!-- 66852 -->
<g id="node38" class="node">
<title>66852</title>
<polygon fill="none" stroke="#00876c" points="2022.47,-2046.57 2022.47,-2061.48 1921.43,-2072.03 1778.55,-2072.03 1677.52,-2061.48 1677.52,-2046.57 1778.55,-2036.03 1921.43,-2036.03 2022.47,-2046.57"/>
<polygon fill="none" stroke="#00876c" points="2026.47,-2042.97 2026.47,-2065.09 1921.64,-2076.03 1778.35,-2076.03 1673.52,-2065.09 1673.52,-2042.97 1778.35,-2032.03 1921.64,-2032.03 2026.47,-2042.97"/>
<text text-anchor="middle" x="1849.99" y="-2048.98" font-family="Times,serif" font-size="14.00">scancode:Carnegie Mellon Contributors</text>
</g>
<!-- 14762&#45;&gt;66852 -->
<g id="edge25" class="edge">
<title>14762&#45;&gt;66852</title>
<path fill="none" stroke="#00876c" stroke-width="2" d="M1858.53,-2020.24C1858.55,-2020.47 1858.57,-2020.69 1858.58,-2020.91"/>
<polygon fill="#00876c" stroke="#00876c" stroke-width="2" points="1857.58,-2029.44 1854.28,-2018.98 1857.38,-2026.84 1858.25,-2019.45 1858.74,-2019.51 1859.24,-2019.57 1858.37,-2026.95 1863.21,-2020.03 1857.58,-2029.44"/>
</g>
<!-- 14763 -->
<g id="node18" class="node">
<title>14763</title>
<polygon fill="none" stroke="black" points="1278.14,-1830.14 1278.14,-1845.05 1180.35,-1855.59 1042.06,-1855.59 944.28,-1845.05 944.28,-1830.14 1042.06,-1819.59 1180.35,-1819.59 1278.14,-1830.14"/>
<polygon fill="none" stroke="black" points="1282.14,-1826.55 1282.14,-1848.64 1180.57,-1859.59 1041.85,-1859.59 940.28,-1848.64 940.28,-1826.55 1041.85,-1815.59 1180.57,-1815.59 1282.14,-1826.55"/>
<text text-anchor="middle" x="1111.21" y="-1832.54" font-family="Times,serif" font-size="14.00">Carnegie Mellon Contributors License</text>
</g>
<!-- 14763&#45;&gt;14760 -->
<g id="edge26" class="edge">
<title>14763&#45;&gt;14760</title>
<path fill="none" stroke="#deb256" stroke-width="2" d="M1128.45,-1815.21C1303.75,-1587.76 1335.97,-1552.18 1520.16,-1515.71"/>
<polygon fill="#deb256" stroke="#deb256" stroke-width="2" points="1528.67,-1514.05 1519.71,-1520.38 1526.25,-1515.03 1518.95,-1516.46 1518.85,-1515.97 1518.76,-1515.48 1526.06,-1514.05 1517.99,-1511.55 1528.67,-1514.05"/>
</g>
<!-- 66853 -->
<g id="node39" class="node">
<title>66853</title>
<polygon fill="none" stroke="#00876c" points="1320.22,-1883.36 1320.22,-1898.28 1199.39,-1908.82 1028.51,-1908.82 907.69,-1898.28 907.69,-1883.36 1028.51,-1872.82 1199.39,-1872.82 1320.22,-1883.36"/>
<polygon fill="none" stroke="#00876c" points="1324.22,-1879.7 1324.22,-1901.94 1199.56,-1912.82 1028.34,-1912.82 903.69,-1901.94 903.69,-1879.7 1028.34,-1868.82 1199.56,-1868.82 1324.22,-1879.7"/>
<text text-anchor="middle" x="1113.95" y="-1885.77" font-family="Times,serif" font-size="14.00">scancode:Carnegie Mellon Contributors License</text>
</g>
<!-- 14763&#45;&gt;66853 -->
<g id="edge27" class="edge">
<title>14763&#45;&gt;66853</title>
<path fill="none" stroke="#00876c" stroke-width="2" d="M1105.92,-1859.78C1105.93,-1859.94 1105.94,-1860.11 1105.95,-1860.27"/>
<polygon fill="#00876c" stroke="#00876c" stroke-width="2" points="1106.96,-1866.25 1100.86,-1857.13 1106.04,-1863.8 1104.8,-1856.47 1105.3,-1856.39 1105.79,-1856.3 1107.02,-1863.64 1109.74,-1855.64 1106.96,-1866.25"/>
</g>
<!-- 14764 -->
<g id="node19" class="node">
<title>14764</title>
<text text-anchor="middle" x="2398.89" y="-917.5" font-family="Times,serif" font-size="14.00">$TEXT</text>
</g>
<!-- 14764&#45;&gt;14759 -->
<g id="edge28" class="edge">
<title>14764&#45;&gt;14759</title>
<path fill="none" stroke="#deb256" d="M2389.84,-940.31C2352.77,-1012.97 2343.08,-1029.3 2242.91,-1187.78"/>
<polygon fill="#deb256" stroke="#deb256" points="2240.01,-1185.82 2237.63,-1196.15 2245.93,-1189.56 2240.01,-1185.82"/>
</g>
<!-- 35432 -->
<g id="node20" class="node">
<title>35432</title>
<text text-anchor="middle" x="723.58" y="-2555.65" font-family="Times,serif" font-size="14.00">LicenseTag (ScopedLicenseTag &quot;OrtLicenseCategorization&quot; &quot;permissive&quot; NoLicenseTagText)</text>
</g>
<!-- 35614 -->
<g id="node22" class="node">
<title>35614</title>
<ellipse fill="none" stroke="#d43d51" cx="1166.12" cy="-2110.89" rx="157.68" ry="28.99"/>
<text text-anchor="middle" x="1166.12" y="-2114.09" font-family="Times,serif" font-size="14.00" fill="gray">OrtLicenseCategorization</text>
<text text-anchor="middle" x="1166.12" y="-2097.59" font-family="Times,serif" font-size="14.00" fill="gray">df39bfa0d1d223aa497bcbc9410e360b</text>
</g>
<!-- 35432&#45;&gt;35614 -->
<g id="edge29" class="edge">
<title>35432&#45;&gt;35614</title>
<path fill="none" stroke="#d43d51" d="M733.4,-2542.92C821.23,-2384.07 835.39,-2368.66 1120.45,-2146.47"/>
<polygon fill="#d43d51" stroke="#d43d51" points="1122.46,-2149.34 1128.2,-2140.43 1118.16,-2143.82 1122.46,-2149.34"/>
</g>
<!-- 36378 -->
<g id="node23" class="node">
<title>36378</title>
<ellipse fill="none" stroke="#d43d51" cx="759.81" cy="-2616.43" rx="154.5" ry="28.99"/>
<text text-anchor="middle" x="759.81" y="-2619.63" font-family="Times,serif" font-size="14.00" fill="gray">OrtLicenseCategorization</text>
<text text-anchor="middle" x="759.81" y="-2603.13" font-family="Times,serif" font-size="14.00" fill="gray">8c4f91988da4fa4f691503de305aaf2b</text>
</g>
<!-- 35432&#45;&gt;36378 -->
<g id="edge30" class="edge">
<title>35432&#45;&gt;36378</title>
<path fill="none" stroke="#d43d51" d="M727.21,-2578.44C727.23,-2578.55 727.26,-2578.66 727.29,-2578.77"/>
<polygon fill="#d43d51" stroke="#d43d51" points="723.3,-2577.72 729.6,-2586.25 729.99,-2575.66 723.3,-2577.72"/>
</g>
<!-- 35433 -->
<g id="node21" class="node">
<title>35433</title>
<text text-anchor="middle" x="497.73" y="-2235.25" font-family="Times,serif" font-size="14.00">LicenseTag (ScopedLicenseTag &quot;OrtLicenseCategorization&quot; &quot;include&#45;in&#45;notice&#45;file&quot; NoLicenseTagText)</text>
</g>
<!-- 35433&#45;&gt;35614 -->
<g id="edge31" class="edge">
<title>35433&#45;&gt;35614</title>
<path fill="none" stroke="#d43d51" d="M559.86,-2222.37C685.42,-2186.61 737.82,-2176.63 1033.05,-2131.27"/>
<polygon fill="#d43d51" stroke="#d43d51" points="1033.26,-2134.78 1042.61,-2129.8 1032.19,-2127.86 1033.26,-2134.78"/>
</g>
<!-- 35433&#45;&gt;36378 -->
<g id="edge32" class="edge">
<title>35433&#45;&gt;36378</title>
<path fill="none" stroke="#d43d51" d="M501.35,-2258.16C538.4,-2440.49 546.49,-2459.04 711.99,-2581.31"/>
<polygon fill="#d43d51" stroke="#d43d51" points="709.68,-2583.96 719.8,-2587.08 713.83,-2578.32 709.68,-2583.96"/>
</g>
<!-- 35614&#45;&gt;1406 -->
<g id="edge33" class="edge">
<title>35614&#45;&gt;1406</title>
<path fill="none" stroke="#d43d51" d="M1187.63,-2081.81C1305.97,-1922.18 1331.46,-1899.49 1518.36,-1863"/>
<polygon fill="#d43d51" stroke="#d43d51" points="1518.79,-1866.49 1527.94,-1861.15 1517.46,-1859.61 1518.79,-1866.49"/>
</g>
<!-- 36379 -->
<g id="node24" class="node">
<title>36379</title>
<polygon fill="none" stroke="black" points="1608.29,-2556.03 1608.29,-2570.94 1464.43,-2581.49 1260.97,-2581.49 1117.1,-2570.94 1117.1,-2556.03 1260.97,-2545.49 1464.43,-2545.49 1608.29,-2556.03"/>
<polygon fill="none" stroke="black" points="1612.29,-2552.31 1612.29,-2574.66 1464.57,-2585.49 1260.82,-2585.49 1113.1,-2574.66 1113.1,-2552.31 1260.82,-2541.49 1464.57,-2541.49 1612.29,-2552.31"/>
<text text-anchor="middle" x="1362.7" y="-2558.44" font-family="Times,serif" font-size="14.00">SPDX:LicenseRef&#45;scancode&#45;carnegie&#45;mellon&#45;contributors</text>
</g>
<!-- 36378&#45;&gt;36379 -->
<g id="edge34" class="edge">
<title>36378&#45;&gt;36379</title>
<path fill="none" stroke="#d43d51" d="M851.22,-2640.1C971.61,-2668.13 1026.98,-2658.56 1273.33,-2588.91"/>
<polygon fill="#d43d51" stroke="#d43d51" points="1273.94,-2592.38 1282.6,-2586.28 1272.03,-2585.64 1273.94,-2592.38"/>
</g>
<!-- 36380 -->
<g id="node25" class="node">
<title>36380</title>
<polygon fill="none" stroke="black" points="1571.49,-2494.82 1571.49,-2509.73 1444.18,-2520.28 1264.12,-2520.28 1136.8,-2509.73 1136.8,-2494.82 1264.12,-2484.28 1444.18,-2484.28 1571.49,-2494.82"/>
<polygon fill="none" stroke="black" points="1575.49,-2491.14 1575.49,-2513.42 1444.34,-2524.28 1263.96,-2524.28 1132.8,-2513.42 1132.8,-2491.14 1263.96,-2480.28 1444.34,-2480.28 1575.49,-2491.14"/>
<text text-anchor="middle" x="1354.15" y="-2497.23" font-family="Times,serif" font-size="14.00">LicenseRef&#45;scancode&#45;carnegie&#45;mellon&#45;contributors</text>
</g>
<!-- 36380&#45;&gt;36379 -->
<g id="edge35" class="edge">
<title>36380&#45;&gt;36379</title>
<path fill="none" stroke="black" stroke-width="2" d="M1353.95,-2524.75C1353.96,-2526.66 1353.98,-2528.42 1354.02,-2530.06"/>
<polygon fill="black" stroke="black" stroke-width="2" points="1354.6,-2538.79 1349.44,-2529.12 1353.93,-2536.27 1353.43,-2528.85 1353.93,-2528.82 1354.43,-2528.78 1354.93,-2536.2 1358.42,-2528.51 1354.6,-2538.79"/>
</g>
<!-- 66854 -->
<g id="node40" class="node">
<title>66854</title>
<polygon fill="none" stroke="#00876c" points="1624.45,-2441.56 1624.45,-2456.47 1474.09,-2467.02 1261.45,-2467.02 1111.1,-2456.47 1111.1,-2441.56 1261.45,-2431.02 1474.09,-2431.02 1624.45,-2441.56"/>
<polygon fill="none" stroke="#00876c" points="1628.45,-2437.83 1628.45,-2460.2 1474.23,-2471.02 1261.31,-2471.02 1107.1,-2460.2 1107.1,-2437.83 1261.31,-2427.02 1474.23,-2427.02 1628.45,-2437.83"/>
<text text-anchor="middle" x="1367.77" y="-2443.97" font-family="Times,serif" font-size="14.00">scancode:LicenseRef&#45;scancode&#45;carnegie&#45;mellon&#45;contributors</text>
</g>
<!-- 36380&#45;&gt;66854 -->
<g id="edge36" class="edge">
<title>36380&#45;&gt;66854</title>
<path fill="none" stroke="#00876c" stroke-width="2" d="M1358.13,-2480.08C1358.17,-2479.92 1358.21,-2479.76 1358.26,-2479.6"/>
<polygon fill="#00876c" stroke="#00876c" stroke-width="2" points="1360.08,-2473.48 1361.54,-2484.34 1359.83,-2476.08 1357.71,-2483.2 1357.23,-2483.06 1356.75,-2482.92 1358.87,-2475.79 1352.92,-2481.78 1360.08,-2473.48"/>
</g>
<!-- 39999 -->
<g id="node26" class="node">
<title>39999</title>
<text text-anchor="middle" x="2303.94" y="-4135.22" font-family="Times,serif" font-size="14.00">LicenseTag (ScopedLicenseTag &quot;OrtLicenseCategorization&quot; &quot;permissive&quot; (LicenseTagDescription &quot;Open source license that is made available under \&quot;non&#45;copyleft\&quot; licenses. These generally require attribution of the included works and may include other obligations.&quot;))</text>
</g>
<!-- 40692 -->
<g id="node29" class="node">
<title>40692</title>
<ellipse fill="none" stroke="#e06f45" cx="1831.06" cy="-3102.63" rx="159.28" ry="28.99"/>
<text text-anchor="middle" x="1831.06" y="-3105.83" font-family="Times,serif" font-size="14.00" fill="gray">OrtLicenseCategorization</text>
<text text-anchor="middle" x="1831.06" y="-3089.33" font-family="Times,serif" font-size="14.00" fill="gray">ab31f83d377b8a99e1c6a3c561d05b25</text>
</g>
<!-- 39999&#45;&gt;40692 -->
<g id="edge37" class="edge">
<title>39999&#45;&gt;40692</title>
<path fill="none" stroke="#e06f45" d="M2294.63,-4122.33C2148.43,-3840.78 2139.73,-3821.63 1848.18,-3142.51"/>
<polygon fill="#e06f45" stroke="#e06f45" points="1851.41,-3141.16 1844.25,-3133.35 1844.98,-3143.92 1851.41,-3141.16"/>
</g>
<!-- 40001 -->
<g id="node27" class="node">
<title>40001</title>
<text text-anchor="middle" x="1935.67" y="-3156.46" font-family="Times,serif" font-size="14.00">LicenseTag (ScopedLicenseTag &quot;OrtLicenseCategorization&quot; &quot;property:include&#45;in&#45;notice&#45;file&quot; (LicenseTagDescription &quot;Whether the license includes a notice obligation or similar which can be fulfilled by adding the relevant copyright notices and the license text into the project/product notice file.&quot;))</text>
</g>
<!-- 40001&#45;&gt;40692 -->
<g id="edge38" class="edge">
<title>40001&#45;&gt;40692</title>
<path fill="none" stroke="#e06f45" d="M1880.8,-3143.53C1878.61,-3142.02 1876.32,-3140.35 1873.88,-3138.48"/>
<polygon fill="#e06f45" stroke="#e06f45" points="1876.13,-3135.79 1866.11,-3132.33 1871.78,-3141.28 1876.13,-3135.79"/>
</g>
<!-- 40002 -->
<g id="node28" class="node">
<title>40002</title>
<text text-anchor="middle" x="1791.45" y="-4254.86" font-family="Times,serif" font-size="14.00">LicenseTag (ScopedLicenseTag &quot;OrtLicenseCategorization&quot; &quot;include&#45;in&#45;notice&#45;file&quot; (LicenseTagDescription &quot;Same as above, as a temporary work&#45;around for the category name not being configurable in ORT reports, see https://github.com/oss&#45;review&#45;toolkit/ort/issues/8220.&quot;))</text>
</g>
<!-- 40002&#45;&gt;40692 -->
<g id="edge39" class="edge">
<title>40002&#45;&gt;40692</title>
<path fill="none" stroke="#e06f45" d="M1794.57,-4242.22C1852.35,-3914.56 1852.99,-3895.79 1832.19,-3143.29"/>
<polygon fill="#e06f45" stroke="#e06f45" points="1835.69,-3143.29 1831.91,-3133.39 1828.69,-3143.48 1835.69,-3143.29"/>
</g>
<!-- 40692&#45;&gt;36379 -->
<g id="edge40" class="edge">
<title>40692&#45;&gt;36379</title>
<path fill="none" stroke="#e06f45" d="M1783.1,-3074.67C1614.86,-2975.56 1593.01,-2944.57 1382.02,-2595.48"/>
<polygon fill="#e06f45" stroke="#e06f45" points="1385.16,-2593.89 1376.99,-2587.15 1379.17,-2597.52 1385.16,-2593.89"/>
</g>
<!-- 41391 -->
<g id="node30" class="node">
<title>41391</title>
<ellipse fill="none" stroke="#379469" cx="2724.61" cy="-1451.39" rx="157.15" ry="28.99"/>
<text text-anchor="middle" x="2724.61" y="-1454.59" font-family="Times,serif" font-size="14.00" fill="gray">CavilLicenseChange</text>
<text text-anchor="middle" x="2724.61" y="-1438.09" font-family="Times,serif" font-size="14.00" fill="gray">86c07008fa7340ade8a23ceea6173e73</text>
</g>
<!-- 41391&#45;&gt;41392 -->
<g id="edge41" class="edge">
<title>41391&#45;&gt;41392</title>
<path fill="none" stroke="#379469" d="M2570.77,-1457.7C2523.49,-1466.52 2463.8,-1484.64 2352.44,-1520.12"/>
<polygon fill="#379469" stroke="#379469" points="2351.41,-1516.78 2342.94,-1523.15 2353.54,-1523.45 2351.41,-1516.78"/>
</g>
<!-- 43136 -->
<g id="node32" class="node">
<title>43136</title>
<text text-anchor="start" x="173.74" y="-762.61" font-family="Times,serif" font-size="14.00">CoDEStatus: </text>
<text text-anchor="start" x="247.99" y="-762.61" font-family="Times,serif" font-weight="bold" font-size="14.00" fill="#228b22">Approved</text>
<text text-anchor="start" x="26.37" y="-748.61" font-family="Times,serif" font-size="14.00">Eine Lizenz ist freigegeben, wenn sie nach fachlicher und juristischer Prüfung</text>
<text text-anchor="start" x="8.37" y="-734.61" font-family="Times,serif" font-size="14.00">seitens Open CoDE sowohl der Open Source Definition (gemäß Definition der Open</text>
<text text-anchor="start" x="50.37" y="-720.61" font-family="Times,serif" font-size="14.00">Source Initiative [extern]) entspricht und darüber hinaus keine für die</text>
<text text-anchor="start" x="53.37" y="-706.61" font-family="Times,serif" font-size="14.00">Öffentliche Verwaltung erkennbaren Schwierigkeiten birgt. Außer in</text>
<text text-anchor="start" x="38.37" y="-692.61" font-family="Times,serif" font-size="14.00">Ausnahmefällen ist nicht zu erwarten, dass einmal freigegebene Lizenzen</text>
<text text-anchor="start" x="178.24" y="-678.61" font-family="Times,serif" font-size="14.00">deklassifiziert werden.</text>
</g>
<!-- 55666 -->
<g id="node34" class="node">
<title>55666</title>
<ellipse fill="none" stroke="#379469" cx="701.15" cy="-1092.81" rx="158.22" ry="28.99"/>
<text text-anchor="middle" x="701.15" y="-1096.01" font-family="Times,serif" font-size="14.00" fill="gray">MetaeffektLicense</text>
<text text-anchor="middle" x="701.15" y="-1079.51" font-family="Times,serif" font-size="14.00" fill="gray">ba0796c31923825fb6342af672bebc42</text>
</g>
<!-- 43136&#45;&gt;55666 -->
<g id="edge42" class="edge">
<title>43136&#45;&gt;55666</title>
<path fill="none" stroke="#379469" d="M324.75,-778.77C403.85,-830.16 455.63,-874.98 660.14,-1056.43"/>
<polygon fill="#379469" stroke="#379469" points="657.8,-1059.03 667.6,-1063.05 662.45,-1053.79 657.8,-1059.03"/>
</g>
<!-- 50154 -->
<g id="node33" class="node">
<title>50154</title>
<polygon fill="none" stroke="#379469" points="1000.86,-1136.09 1000.86,-1151.01 967.65,-1161.55 920.69,-1161.55 887.48,-1151.01 887.48,-1136.09 920.69,-1125.55 967.65,-1125.55 1000.86,-1136.09"/>
<text text-anchor="middle" x="944.17" y="-1138.5" font-family="Times,serif" font-size="14.00">Permission</text>
</g>
<!-- 50154&#45;&gt;55667 -->
<g id="edge43" class="edge">
<title>50154&#45;&gt;55667</title>
<path fill="none" stroke="#379469" stroke-dasharray="5,2" d="M957.71,-1161.57C1014.28,-1236.95 1025.59,-1253.92 1147.67,-1443.97"/>
<polygon fill="#379469" stroke="#379469" points="1152.91,-1452.13 1143.72,-1446.15 1150.87,-1448.95 1147.51,-1443.72 1147.51,-1443.72 1147.51,-1443.72 1150.87,-1448.95 1151.29,-1441.29 1152.91,-1452.13"/>
</g>
<!-- 55666&#45;&gt;55667 -->
<g id="edge44" class="edge">
<title>55666&#45;&gt;55667</title>
<path fill="none" stroke="#379469" d="M750.68,-1120.68C864.78,-1185.76 896.93,-1214.88 1136.39,-1445.21"/>
<polygon fill="#379469" stroke="#379469" points="1133.91,-1447.68 1143.54,-1452.09 1138.76,-1442.63 1133.91,-1447.68"/>
</g>
<!-- 55668 -->
<g id="node36" class="node">
<title>55668</title>
<polygon fill="none" stroke="#379469" points="813.35,-1351.38 813.35,-1366.3 744.44,-1376.84 647,-1376.84 578.09,-1366.3 578.09,-1351.38 647,-1340.84 744.44,-1340.84 813.35,-1351.38"/>
<polygon fill="none" stroke="#379469" points="817.35,-1347.95 817.35,-1369.73 744.75,-1380.84 646.69,-1380.84 574.09,-1369.73 574.09,-1347.95 646.69,-1336.84 744.75,-1336.84 817.35,-1347.95"/>
<text text-anchor="middle" x="695.72" y="-1353.79" font-family="Times,serif" font-size="14.00">Permission Terms (CMU)</text>
</g>
<!-- 55668&#45;&gt;55667 -->
<g id="edge45" class="edge">
<title>55668&#45;&gt;55667</title>
<path fill="none" stroke="#379469" stroke-width="2" d="M817.56,-1351.43C888.34,-1353.69 945.78,-1376.4 1107.93,-1448.74"/>
<polygon fill="#379469" stroke="#379469" stroke-width="2" points="1115.53,-1452.13 1104.56,-1452.16 1112.98,-1451.54 1106.19,-1448.51 1106.39,-1448.05 1106.6,-1447.6 1113.39,-1450.63 1108.23,-1443.94 1115.53,-1452.13"/>
</g>
<!-- 66851 -->
<g id="node37" class="node">
<title>66851</title>
<ellipse fill="none" stroke="#00876c" cx="1702.47" cy="-2250.38" rx="158.75" ry="28.99"/>
<text text-anchor="middle" x="1702.47" y="-2253.58" font-family="Times,serif" font-size="14.00" fill="gray">LicenseLynx</text>
<text text-anchor="middle" x="1702.47" y="-2237.08" font-family="Times,serif" font-size="14.00" fill="gray">50485e99153b2cc757275fc74dea3ed1</text>
</g>
<!-- 66851&#45;&gt;1406 -->
<g id="edge46" class="edge">
<title>66851&#45;&gt;1406</title>
<path fill="none" stroke="#00876c" d="M1705.3,-2221.22C1724.72,-2019.48 1722.75,-1997.02 1640.06,-1880.78"/>
<polygon fill="#00876c" stroke="#00876c" points="1642.97,-1878.84 1634.31,-1872.74 1637.27,-1882.91 1642.97,-1878.84"/>
</g>
<!-- 66852&#45;&gt;1406 -->
<g id="edge47" class="edge">
<title>66852&#45;&gt;1406</title>
<path fill="none" stroke="#00876c" stroke-width="2" d="M1839.07,-2031.57C1788.46,-1927.99 1774.12,-1908.22 1681.84,-1871.01"/>
<polygon fill="#00876c" stroke="#00876c" stroke-width="2" points="1673.7,-1867.77 1684.66,-1867.29 1676.27,-1868.26 1683.18,-1871.01 1682.99,-1871.47 1682.81,-1871.94 1675.9,-1869.19 1681.33,-1875.65 1673.7,-1867.77"/>
</g>
<!-- 66853&#45;&gt;1406 -->
<g id="edge48" class="edge">
<title>66853&#45;&gt;1406</title>
<path fill="none" stroke="#00876c" stroke-width="2" d="M1154.86,-1868.44C1294.91,-1792.52 1327.84,-1786.63 1523.2,-1826.15"/>
<polygon fill="#00876c" stroke="#00876c" stroke-width="2" points="1531.76,-1827.89 1521.07,-1830.3 1529.15,-1827.87 1521.86,-1826.38 1521.96,-1825.89 1522.06,-1825.4 1529.35,-1826.89 1522.86,-1821.48 1531.76,-1827.89"/>
</g>
<!-- 66854&#45;&gt;1406 -->
<g id="edge49" class="edge">
<title>66854&#45;&gt;1406</title>
<path fill="none" stroke="#00876c" stroke-width="2" d="M1367.47,-2426.88C1364.29,-2185.53 1370.45,-2168.21 1588.13,-1879.9"/>
<polygon fill="#00876c" stroke="#00876c" stroke-width="2" points="1593.16,-1873.23 1590.73,-1883.92 1592.02,-1875.58 1587.53,-1881.51 1587.13,-1881.21 1586.74,-1880.91 1591.22,-1874.97 1583.54,-1878.5 1593.16,-1873.23"/>
</g>
<!-- 66855&#45;&gt;1406 -->
<g id="edge50" class="edge">
<title>66855&#45;&gt;1406</title>
<path fill="none" stroke="#00876c" stroke-width="2" d="M1451.68,-1755.46C1483.47,-1761.65 1513.33,-1778.45 1566.85,-1813.53"/>
<polygon fill="#00876c" stroke="#00876c" stroke-width="2" points="1573.97,-1818.21 1563.15,-1816.48 1571.56,-1817.22 1565.34,-1813.14 1565.62,-1812.72 1565.89,-1812.3 1572.11,-1816.39 1568.09,-1808.96 1573.97,-1818.21"/>
</g>
</g>
</svg>
