<?xml version="1.0" encoding="UTF-8" standalone="no"?>
<!DOCTYPE svg PUBLIC "-//W3C//DTD SVG 1.1//EN"
 "http://www.w3.org/Graphics/SVG/1.1/DTD/svg11.dtd">
<!-- Generated by graphviz version 10.0.1 (0)
 -->
<!-- Pages: 1 -->
<svg width="1541pt" height="1214pt"
 viewBox="0.00 0.00 1541.00 1214.00" xmlns="http://www.w3.org/2000/svg" xmlns:xlink="http://www.w3.org/1999/xlink">
<g id="graph0" class="graph" transform="scale(1 1) rotate(0) translate(4 1210)">
<polygon fill="white" stroke="none" points="-4,4 -4,-1210 1537,-1210 1537,4 -4,4"/>
<!-- 1292 -->
<g id="node1" class="node">
<title>1292</title>
<ellipse fill="none" stroke="#b8bf62" cx="292.32" cy="-156.33" rx="158.75" ry="28.99"/>
<text text-anchor="middle" x="292.32" y="-159.53" font-family="Times,serif" font-size="14.00" fill="gray">SPDXLicense</text>
<text text-anchor="middle" x="292.32" y="-143.03" font-family="Times,serif" font-size="14.00" fill="gray">bc0c6caebbebb6009a646bdd9c11ce20</text>
</g>
<!-- 1293 -->
<g id="node2" class="node">
<title>1293</title>
<polygon fill="none" stroke="black" points="696.47,-413.61 696.47,-428.52 645.42,-439.07 573.21,-439.07 522.16,-428.52 522.16,-413.61 573.21,-403.07 645.42,-403.07 696.47,-413.61"/>
<polygon fill="none" stroke="black" points="700.47,-410.35 700.47,-431.78 645.83,-443.07 572.8,-443.07 518.16,-431.78 518.16,-410.35 572.8,-399.07 645.83,-399.07 700.47,-410.35"/>
<polygon fill="none" stroke="black" points="704.47,-407.09 704.47,-435.04 646.23,-447.07 572.39,-447.07 514.16,-435.04 514.16,-407.09 572.39,-395.07 646.23,-395.07 704.47,-407.09"/>
<text text-anchor="middle" x="609.31" y="-416.02" font-family="Times,serif" font-size="14.00">spdx:CNRI&#45;Jython</text>
</g>
<!-- 1292&#45;&gt;1293 -->
<g id="edge1" class="edge">
<title>1292&#45;&gt;1293</title>
<path fill="none" stroke="#b8bf62" d="M330.35,-184.61C391.95,-230.75 419.51,-254.38 571.01,-387.42"/>
<polygon fill="#b8bf62" stroke="#b8bf62" points="568.3,-389.7 578.12,-393.67 572.92,-384.44 568.3,-389.7"/>
</g>
<!-- 40692 -->
<g id="node17" class="node">
<title>40692</title>
<polygon fill="none" stroke="#00876c" points="1163.03,-412.84 1163.03,-427.75 1078.23,-438.29 958.29,-438.29 873.49,-427.75 873.49,-412.84 958.29,-402.29 1078.23,-402.29 1163.03,-412.84"/>
<polygon fill="none" stroke="#00876c" points="1167.03,-409.3 1167.03,-431.28 1078.48,-442.29 958.05,-442.29 869.49,-431.28 869.49,-409.3 958.05,-398.29 1078.48,-398.29 1167.03,-409.3"/>
<text text-anchor="middle" x="1018.26" y="-415.24" font-family="Times,serif" font-size="14.00">metaeffekt:CNRI Jython License</text>
</g>
<!-- 1293&#45;&gt;40692 -->
<g id="edge2" class="edge">
<title>1293&#45;&gt;40692</title>
<path fill="none" stroke="#00876c" stroke-width="2" d="M670.26,-399.66C812.26,-350.55 844.79,-348.66 955.1,-393.62"/>
<polygon fill="#00876c" stroke="#00876c" stroke-width="2" points="963.05,-396.9 952.09,-397.25 960.49,-396.38 953.61,-393.55 953.8,-393.09 953.99,-392.63 960.87,-395.46 955.52,-388.93 963.05,-396.9"/>
</g>
<!-- 1294 -->
<g id="node3" class="node">
<title>1294</title>
<polygon fill="none" stroke="black" points="857.52,-733.43 857.52,-748.34 819.12,-758.88 764.82,-758.88 726.42,-748.34 726.42,-733.43 764.82,-722.88 819.12,-722.88 857.52,-733.43"/>
<polygon fill="none" stroke="black" points="861.52,-730.38 861.52,-751.39 819.66,-762.88 764.28,-762.88 722.42,-751.39 722.42,-730.38 764.28,-718.88 819.66,-718.88 861.52,-730.38"/>
<text text-anchor="middle" x="791.97" y="-735.83" font-family="Times,serif" font-size="14.00">CNRI&#45;Jython</text>
</g>
<!-- 1294&#45;&gt;1293 -->
<g id="edge3" class="edge">
<title>1294&#45;&gt;1293</title>
<path fill="none" stroke="black" stroke-width="2" d="M772.5,-718.74C645.48,-574.15 631.58,-554.71 615.27,-458.11"/>
<polygon fill="black" stroke="black" stroke-width="2" points="613.87,-449.64 619.94,-458.77 614.78,-452.09 615.99,-459.42 615.5,-459.5 615.01,-459.59 613.79,-452.25 611.06,-460.24 613.87,-449.64"/>
</g>
<!-- 8811 -->
<g id="node6" class="node">
<title>8811</title>
<polygon fill="none" stroke="#00876c" points="811.03,-944.54 811.03,-959.45 750.23,-970 664.26,-970 603.47,-959.45 603.47,-944.54 664.26,-934 750.23,-934 811.03,-944.54"/>
<polygon fill="none" stroke="#00876c" points="815.03,-941.18 815.03,-962.82 750.58,-974 663.92,-974 599.47,-962.82 599.47,-941.18 663.92,-930 750.58,-930 815.03,-941.18"/>
<text text-anchor="middle" x="707.25" y="-946.95" font-family="Times,serif" font-size="14.00">BlueOak:CNRI&#45;Jython</text>
</g>
<!-- 1294&#45;&gt;8811 -->
<g id="edge4" class="edge">
<title>1294&#45;&gt;8811</title>
<path fill="none" stroke="#00876c" stroke-width="2" d="M785.26,-763.14C754.98,-863.43 747.1,-887.45 727.56,-920.08"/>
<polygon fill="#00876c" stroke="#00876c" stroke-width="2" points="722.99,-927.5 724.4,-916.63 723.91,-925.06 727.8,-918.72 728.23,-918.99 728.66,-919.25 724.76,-925.58 732.06,-921.35 722.99,-927.5"/>
</g>
<!-- 13979 -->
<g id="node8" class="node">
<title>13979</title>
<polygon fill="none" stroke="black" points="835.31,-577.75 835.31,-592.66 779.39,-603.2 700.3,-603.2 644.37,-592.66 644.37,-577.75 700.3,-567.2 779.39,-567.2 835.31,-577.75"/>
<polygon fill="none" stroke="black" points="839.31,-574.43 839.31,-595.97 779.76,-607.2 699.92,-607.2 640.37,-595.97 640.37,-574.43 699.92,-563.2 779.76,-563.2 839.31,-574.43"/>
<text text-anchor="middle" x="739.84" y="-580.15" font-family="Times,serif" font-size="14.00">scancode:cnri&#45;jython</text>
</g>
<!-- 1294&#45;&gt;13979 -->
<g id="edge5" class="edge">
<title>1294&#45;&gt;13979</title>
<path fill="none" stroke="black" stroke-width="2" d="M779.14,-718.5C766.6,-695.36 761.87,-679.24 747.53,-618.16"/>
<polygon fill="black" stroke="black" stroke-width="2" points="745.6,-609.9 752.26,-618.61 746.67,-612.28 748.36,-619.52 747.87,-619.64 747.39,-619.75 745.69,-612.51 743.49,-620.66 745.6,-609.9"/>
</g>
<!-- 27760 -->
<g id="node11" class="node">
<title>27760</title>
<polygon fill="none" stroke="#e18745" points="592.09,-888.45 592.09,-903.36 529.35,-913.9 440.62,-913.9 377.88,-903.36 377.88,-888.45 440.62,-877.9 529.35,-877.9 592.09,-888.45"/>
<polygon fill="none" stroke="#e18745" points="596.09,-885.06 596.09,-906.74 529.68,-917.9 440.29,-917.9 373.88,-906.74 373.88,-885.06 440.29,-873.9 529.68,-873.9 596.09,-885.06"/>
<text text-anchor="middle" x="484.98" y="-890.85" font-family="Times,serif" font-size="14.00">fossology:CNRI&#45;Jython</text>
</g>
<!-- 1294&#45;&gt;27760 -->
<g id="edge6" class="edge">
<title>1294&#45;&gt;27760</title>
<path fill="none" stroke="#e18745" stroke-width="2" d="M762.17,-762.46C661.99,-834.9 622.39,-862.14 578.95,-876.7"/>
<polygon fill="#e18745" stroke="#e18745" stroke-width="2" points="570.72,-879.26 578.94,-871.99 573.02,-878.02 580.12,-875.81 580.27,-876.29 580.42,-876.77 573.32,-878.97 581.6,-880.59 570.72,-879.26"/>
</g>
<!-- 36687 -->
<g id="node15" class="node">
<title>36687</title>
<polygon fill="none" stroke="#379469" points="1082.07,-1039.76 1082.07,-1054.67 1030.69,-1065.22 958.03,-1065.22 906.64,-1054.67 906.64,-1039.76 958.03,-1029.22 1030.69,-1029.22 1082.07,-1039.76"/>
<polygon fill="none" stroke="#379469" points="1086.07,-1036.5 1086.07,-1057.94 1031.1,-1069.22 957.62,-1069.22 902.64,-1057.94 902.64,-1036.5 957.62,-1025.22 1031.1,-1025.22 1086.07,-1036.5"/>
<text text-anchor="middle" x="994.36" y="-1042.17" font-family="Times,serif" font-size="14.00">cavil:CNRI&#45;Jython</text>
</g>
<!-- 1294&#45;&gt;36687 -->
<g id="edge7" class="edge">
<title>1294&#45;&gt;36687</title>
<path fill="none" stroke="#379469" stroke-width="2" d="M805.26,-763.34C906.14,-933.76 922.06,-959.76 968.67,-1016.39"/>
<polygon fill="#379469" stroke="#379469" stroke-width="2" points="974.23,-1023.11 964.39,-1018.27 972.21,-1021.45 967.47,-1015.72 967.85,-1015.4 968.24,-1015.08 972.98,-1020.81 971.32,-1012.53 974.23,-1023.11"/>
</g>
<!-- 1294&#45;&gt;40692 -->
<g id="edge8" class="edge">
<title>1294&#45;&gt;40692</title>
<path fill="none" stroke="#00876c" stroke-dasharray="5,2" d="M816.53,-718.61C968.67,-580.47 982.77,-563.52 1010.23,-453.26"/>
<polygon fill="#00876c" stroke="#00876c" points="1012.55,-443.84 1014.52,-454.63 1011.64,-447.51 1010.15,-453.55 1010.15,-453.55 1010.15,-453.55 1011.64,-447.51 1005.79,-452.47 1012.55,-443.84"/>
</g>
<!-- 1295 -->
<g id="node4" class="node">
<title>1295</title>
<polygon fill="none" stroke="black" points="803.14,-638.12 803.14,-653.04 745.27,-663.58 663.43,-663.58 605.56,-653.04 605.56,-638.12 663.43,-627.58 745.27,-627.58 803.14,-638.12"/>
<polygon fill="none" stroke="black" points="807.14,-634.79 807.14,-656.37 745.63,-667.58 663.07,-667.58 601.56,-656.37 601.56,-634.79 663.07,-623.58 745.63,-623.58 807.14,-634.79"/>
<text text-anchor="middle" x="704.35" y="-640.53" font-family="Times,serif" font-size="14.00">CNRI Jython License</text>
</g>
<!-- 1295&#45;&gt;1293 -->
<g id="edge9" class="edge">
<title>1295&#45;&gt;1293</title>
<path fill="none" stroke="#b8bf62" stroke-width="2" d="M690.12,-623.35C629.02,-527.8 617.83,-507.55 612.46,-458.49"/>
<polygon fill="#b8bf62" stroke="#b8bf62" stroke-width="2" points="611.63,-449.97 617.08,-459.48 612.37,-452.47 613.1,-459.87 612.6,-459.92 612.1,-459.97 611.38,-452.57 608.12,-460.36 611.63,-449.97"/>
</g>
<!-- 1295&#45;&gt;8811 -->
<g id="edge10" class="edge">
<title>1295&#45;&gt;8811</title>
<path fill="none" stroke="#00876c" stroke-width="2" d="M702.58,-668.01C689.7,-831.69 688.47,-856.44 700.55,-918.98"/>
<polygon fill="#00876c" stroke="#00876c" stroke-width="2" points="702.22,-927.41 695.86,-918.47 701.23,-924.99 699.79,-917.7 700.28,-917.6 700.77,-917.5 702.21,-924.8 704.69,-916.73 702.22,-927.41"/>
</g>
<!-- 1295&#45;&gt;13979 -->
<g id="edge11" class="edge">
<title>1295&#45;&gt;13979</title>
<path fill="none" stroke="#dac767" stroke-width="2" d="M709.5,-623.11C710.45,-620.87 711.62,-618.69 713.11,-616.37"/>
<polygon fill="#dac767" stroke="#dac767" stroke-width="2" points="718.2,-609.62 715.78,-620.32 717.06,-611.97 712.58,-617.91 712.19,-617.61 711.79,-617.31 716.26,-611.37 708.59,-614.9 718.2,-609.62"/>
</g>
<!-- 1295&#45;&gt;27760 -->
<g id="edge12" class="edge">
<title>1295&#45;&gt;27760</title>
<path fill="none" stroke="#e18745" stroke-width="2" d="M684.08,-667.7C568.59,-793.74 548.45,-816.05 509.6,-864.79"/>
<polygon fill="#e18745" stroke="#e18745" stroke-width="2" points="504.16,-871.64 506.86,-861.01 505.37,-869.32 509.99,-863.49 510.39,-863.81 510.78,-864.12 506.15,-869.94 513.91,-866.61 504.16,-871.64"/>
</g>
<!-- 1295&#45;&gt;40692 -->
<g id="edge13" class="edge">
<title>1295&#45;&gt;40692</title>
<path fill="none" stroke="#00876c" stroke-width="2" d="M735.21,-623.25C891.02,-510.48 921.06,-488.8 977.72,-448.84"/>
<polygon fill="#00876c" stroke="#00876c" stroke-width="2" points="984.68,-443.93 979.1,-453.37 982.88,-445.82 976.8,-450.1 976.51,-449.69 976.22,-449.29 982.3,-445 973.92,-446.02 984.68,-443.93"/>
</g>
<!-- 8810 -->
<g id="node5" class="node">
<title>8810</title>
<ellipse fill="none" stroke="#00876c" cx="688.94" cy="-1019.32" rx="159.28" ry="28.99"/>
<text text-anchor="middle" x="688.94" y="-1022.52" font-family="Times,serif" font-size="14.00" fill="gray">BlueOakCouncil</text>
<text text-anchor="middle" x="688.94" y="-1006.02" font-family="Times,serif" font-size="14.00" fill="gray">c892ac851b135777a53f53adc1254d33</text>
</g>
<!-- 8810&#45;&gt;8811 -->
<g id="edge14" class="edge">
<title>8810&#45;&gt;8811</title>
<path fill="none" stroke="#00876c" d="M697.74,-990.33C698.15,-988.75 698.59,-987.03 699.07,-985.16"/>
<polygon fill="#00876c" stroke="#00876c" points="702.38,-986.35 701.4,-975.8 695.58,-984.66 702.38,-986.35"/>
</g>
<!-- 13978 -->
<g id="node7" class="node">
<title>13978</title>
<ellipse fill="none" stroke="#dac767" cx="780.09" cy="-516.69" rx="162.46" ry="28.99"/>
<text text-anchor="middle" x="780.09" y="-519.89" font-family="Times,serif" font-size="14.00" fill="gray">ScancodeData</text>
<text text-anchor="middle" x="780.09" y="-503.39" font-family="Times,serif" font-size="14.00" fill="gray">7d5692a536d12ab277121653011da631</text>
</g>
<!-- 13978&#45;&gt;13979 -->
<g id="edge15" class="edge">
<title>13978&#45;&gt;13979</title>
<path fill="none" stroke="#dac767" d="M755.08,-545.65C754.16,-547.61 753.21,-549.78 752.21,-552.19"/>
<polygon fill="#dac767" stroke="#dac767" points="748.99,-550.83 748.6,-561.42 755.5,-553.39 748.99,-550.83"/>
</g>
<!-- 13979&#45;&gt;40692 -->
<g id="edge16" class="edge">
<title>13979&#45;&gt;40692</title>
<path fill="none" stroke="#00876c" stroke-dasharray="5,2" d="M773.36,-562.78C881.95,-490.16 916.83,-467.47 957.59,-447.55"/>
<polygon fill="#00876c" stroke="#00876c" points="966.45,-443.31 959.37,-451.68 963.04,-444.94 957.43,-447.62 957.43,-447.62 957.43,-447.62 963.04,-444.94 955.49,-443.57 966.45,-443.31"/>
</g>
<!-- 17979 -->
<g id="node9" class="node">
<title>17979</title>
<polygon fill="none" stroke="black" points="1213.52,-36.17 1213.52,-51.08 1156.3,-61.62 1075.37,-61.62 1018.15,-51.08 1018.15,-36.17 1075.37,-25.62 1156.3,-25.62 1213.52,-36.17"/>
<text text-anchor="middle" x="1115.84" y="-38.57" font-family="Times,serif" font-size="14.00">scancode:jpython&#45;1.1</text>
</g>
<!-- 17979&#45;&gt;40692 -->
<g id="edge17" class="edge">
<title>17979&#45;&gt;40692</title>
<path fill="none" stroke="#00876c" stroke-dasharray="5,2" d="M1115.85,-61.82C1115.79,-166.78 1111.6,-182.51 1031.11,-387.57"/>
<polygon fill="#00876c" stroke="#00876c" points="1027.54,-396.67 1027.01,-385.71 1028.93,-393.15 1031.2,-387.36 1031.2,-387.36 1031.2,-387.36 1028.93,-393.15 1035.39,-389 1027.54,-396.67"/>
</g>
<!-- 27759 -->
<g id="node10" class="node">
<title>27759</title>
<ellipse fill="none" stroke="#e18745" cx="160.23" cy="-1177.01" rx="160.34" ry="28.99"/>
<text text-anchor="middle" x="160.23" y="-1180.21" font-family="Times,serif" font-size="14.00" fill="gray">Fossology</text>
<text text-anchor="middle" x="160.23" y="-1163.71" font-family="Times,serif" font-size="14.00" fill="gray">2845d3c0b82b831c1be5e438c38703ea</text>
</g>
<!-- 27759&#45;&gt;27760 -->
<g id="edge18" class="edge">
<title>27759&#45;&gt;27760</title>
<path fill="none" stroke="#e18745" d="M195.86,-1148.52C260.92,-1096.29 287.61,-1072.74 451.66,-925.76"/>
<polygon fill="#e18745" stroke="#e18745" points="453.85,-928.5 458.96,-919.22 449.18,-923.29 453.85,-928.5"/>
</g>
<!-- 28634 -->
<g id="node12" class="node">
<title>28634</title>
<ellipse fill="none" stroke="#e06f45" cx="199.19" cy="-373.32" rx="159.28" ry="28.99"/>
<text text-anchor="middle" x="199.19" y="-376.52" font-family="Times,serif" font-size="14.00" fill="gray">OrtLicenseCategorization</text>
<text text-anchor="middle" x="199.19" y="-360.02" font-family="Times,serif" font-size="14.00" fill="gray">8d1131b691adc735aec0aae51a519283</text>
</g>
<!-- 28634&#45;&gt;1293 -->
<g id="edge19" class="edge">
<title>28634&#45;&gt;1293</title>
<path fill="none" stroke="#e06f45" d="M355.26,-367.19C393.48,-372.01 442.09,-382.34 520.93,-400.5"/>
<polygon fill="#e06f45" stroke="#e06f45" points="519.72,-403.82 530.25,-402.66 521.3,-397 519.72,-403.82"/>
</g>
<!-- 35435 -->
<g id="node13" class="node">
<title>35435</title>
<ellipse fill="none" stroke="#e09d4b" cx="493.64" cy="-28.62" rx="159.28" ry="28.99"/>
<text text-anchor="middle" x="493.64" y="-31.82" font-family="Times,serif" font-size="14.00" fill="gray">OrtLicenseCategorization</text>
<text text-anchor="middle" x="493.64" y="-15.32" font-family="Times,serif" font-size="14.00" fill="gray">902e7061763a5be9f7748b31965b41f4</text>
</g>
<!-- 35435&#45;&gt;1293 -->
<g id="edge20" class="edge">
<title>35435&#45;&gt;1293</title>
<path fill="none" stroke="#e09d4b" d="M497.77,-58.03C511,-150.46 518.55,-174 595.67,-383.95"/>
<polygon fill="#e09d4b" stroke="#e09d4b" points="592.38,-385.14 599.12,-393.32 598.95,-382.73 592.38,-385.14"/>
</g>
<!-- 36686 -->
<g id="node14" class="node">
<title>36686</title>
<ellipse fill="none" stroke="#379469" cx="1030.12" cy="-1107.18" rx="159.81" ry="28.99"/>
<text text-anchor="middle" x="1030.12" y="-1110.38" font-family="Times,serif" font-size="14.00" fill="gray">CavilLicenseChange</text>
<text text-anchor="middle" x="1030.12" y="-1093.88" font-family="Times,serif" font-size="14.00" fill="gray">973e696a5dc94734e4e631257e8c6c04</text>
</g>
<!-- 36686&#45;&gt;36687 -->
<g id="edge21" class="edge">
<title>36686&#45;&gt;36687</title>
<path fill="none" stroke="#379469" d="M1012.26,-1078.33C1012.17,-1078.18 1012.08,-1078.02 1011.98,-1077.86"/>
<polygon fill="#379469" stroke="#379469" points="1016.05,-1077.9 1008.02,-1071 1009.99,-1081.41 1016.05,-1077.9"/>
</g>
<!-- 40691 -->
<g id="node16" class="node">
<title>40691</title>
<ellipse fill="none" stroke="#00876c" cx="1373.64" cy="-99.55" rx="159.81" ry="28.99"/>
<text text-anchor="middle" x="1373.64" y="-102.75" font-family="Times,serif" font-size="14.00" fill="gray">MetaeffektLicense</text>
<text text-anchor="middle" x="1373.64" y="-86.25" font-family="Times,serif" font-size="14.00" fill="gray">7541cc3b84389c36359f48e81a083b05</text>
</g>
<!-- 40691&#45;&gt;40692 -->
<g id="edge22" class="edge">
<title>40691&#45;&gt;40692</title>
<path fill="none" stroke="#00876c" d="M1344.1,-128.4C1271.96,-198.7 1246.78,-221.04 1052.3,-390.61"/>
<polygon fill="#00876c" stroke="#00876c" points="1050.2,-387.8 1044.96,-397.01 1054.8,-393.08 1050.2,-387.8"/>
</g>
<!-- 40693 -->
<g id="node18" class="node">
<title>40693</title>
<polygon fill="none" stroke="#00876c" points="1418.64,-308.88 1418.64,-323.8 1380.56,-334.34 1326.72,-334.34 1288.64,-323.8 1288.64,-308.88 1326.72,-298.34 1380.56,-298.34 1418.64,-308.88"/>
<text text-anchor="middle" x="1353.64" y="-311.29" font-family="Times,serif" font-size="14.00">CNRI Jython</text>
</g>
<!-- 40693&#45;&gt;40692 -->
<g id="edge23" class="edge">
<title>40693&#45;&gt;40692</title>
<path fill="none" stroke="#00876c" stroke-dasharray="5,2" d="M1296.47,-326.32C1245.34,-336.31 1209.7,-348.4 1088.11,-394.01"/>
<polygon fill="#00876c" stroke="#00876c" points="1078.79,-397.51 1086.57,-389.78 1082.33,-396.18 1088.15,-393.99 1088.15,-393.99 1088.15,-393.99 1082.33,-396.18 1089.73,-398.21 1078.79,-397.51"/>
</g>
<!-- 40694 -->
<g id="node19" class="node">
<title>40694</title>
<polygon fill="none" stroke="#00876c" points="1504.16,-519.97 1504.16,-534.88 1445.96,-545.42 1363.66,-545.42 1305.46,-534.88 1305.46,-519.97 1363.66,-509.42 1445.96,-509.42 1504.16,-519.97"/>
<text text-anchor="middle" x="1404.81" y="-522.37" font-family="Times,serif" font-size="14.00">JPython version 1.1.x</text>
</g>
<!-- 40694&#45;&gt;40692 -->
<g id="edge24" class="edge">
<title>40694&#45;&gt;40692</title>
<path fill="none" stroke="#00876c" stroke-dasharray="5,2" d="M1376.59,-509.09C1306.5,-464.1 1277.82,-452.6 1152.46,-436.31"/>
<polygon fill="#00876c" stroke="#00876c" points="1142.86,-435.07 1153.36,-431.88 1146.62,-435.56 1152.78,-436.35 1152.78,-436.35 1152.78,-436.35 1146.62,-435.56 1152.21,-440.81 1142.86,-435.07"/>
</g>
</g>
</svg>
