<?xml version="1.0" encoding="UTF-8" standalone="no"?>
<!DOCTYPE svg PUBLIC "-//W3C//DTD SVG 1.1//EN"
 "http://www.w3.org/Graphics/SVG/1.1/DTD/svg11.dtd">
<!-- Generated by graphviz version 10.0.1 (0)
 -->
<!-- Pages: 1 -->
<svg width="3159pt" height="2476pt"
 viewBox="0.00 0.00 3159.00 2476.00" xmlns="http://www.w3.org/2000/svg" xmlns:xlink="http://www.w3.org/1999/xlink">
<g id="graph0" class="graph" transform="scale(1 1) rotate(0) translate(4 2472)">
<polygon fill="white" stroke="none" points="-4,4 -4,-2472 3155,-2472 3155,4 -4,4"/>
<!-- 1330 -->
<g id="node1" class="node">
<title>1330</title>
<ellipse fill="none" stroke="#b8bf62" cx="2170.41" cy="-540.12" rx="159.28" ry="28.99"/>
<text text-anchor="middle" x="2170.41" y="-543.32" font-family="Times,serif" font-size="14.00" fill="gray">SPDXLicense</text>
<text text-anchor="middle" x="2170.41" y="-526.82" font-family="Times,serif" font-size="14.00" fill="gray">425c2990c63a7bbc43c514e832029f38</text>
</g>
<!-- 1331 -->
<g id="node2" class="node">
<title>1331</title>
<polygon fill="none" stroke="black" points="2077.81,-1005.92 2077.81,-1020.83 2038.11,-1031.38 1981.97,-1031.38 1942.27,-1020.83 1942.27,-1005.92 1981.97,-995.38 2038.11,-995.38 2077.81,-1005.92"/>
<polygon fill="none" stroke="black" points="2081.81,-1002.84 2081.81,-1023.91 2038.63,-1035.38 1981.45,-1035.38 1938.27,-1023.91 1938.27,-1002.84 1981.45,-991.38 2038.63,-991.38 2081.81,-1002.84"/>
<polygon fill="none" stroke="black" points="2085.81,-999.77 2085.81,-1026.99 2039.15,-1039.38 1980.92,-1039.38 1934.27,-1026.99 1934.27,-999.77 1980.92,-987.38 2039.15,-987.38 2085.81,-999.77"/>
<text text-anchor="middle" x="2010.04" y="-1008.33" font-family="Times,serif" font-size="14.00">spdx:CPL&#45;1.0</text>
</g>
<!-- 1330&#45;&gt;1331 -->
<g id="edge1" class="edge">
<title>1330&#45;&gt;1331</title>
<path fill="none" stroke="#b8bf62" d="M2169.44,-569.28C2164.6,-705.16 2156.34,-726.94 2028.67,-976.93"/>
<polygon fill="#b8bf62" stroke="#b8bf62" points="2025.61,-975.22 2024.17,-985.72 2031.84,-978.41 2025.61,-975.22"/>
</g>
<!-- 4971 -->
<g id="node6" class="node">
<title>4971</title>
<polygon fill="none" stroke="black" points="2334.33,-1155.26 2334.33,-1170.18 2298.85,-1180.72 2248.67,-1180.72 2213.19,-1170.18 2213.19,-1155.26 2248.67,-1144.72 2298.85,-1144.72 2334.33,-1155.26"/>
<polygon fill="none" stroke="black" points="2338.33,-1152.28 2338.33,-1173.16 2299.43,-1184.72 2248.09,-1184.72 2209.19,-1173.16 2209.19,-1152.28 2248.09,-1140.72 2299.43,-1140.72 2338.33,-1152.28"/>
<text text-anchor="middle" x="2273.76" y="-1157.67" font-family="Times,serif" font-size="14.00">osi:CPL&#45;1.0</text>
</g>
<!-- 1331&#45;&gt;4971 -->
<g id="edge2" class="edge">
<title>1331&#45;&gt;4971</title>
<path fill="none" stroke="#78ab63" stroke-width="2" d="M2068.73,-1031.82C2182.25,-1067.96 2204.21,-1079.91 2248.59,-1132.2"/>
<polygon fill="#78ab63" stroke="#78ab63" stroke-width="2" points="2254.05,-1138.71 2244.18,-1133.94 2252.02,-1137.07 2247.24,-1131.37 2247.63,-1131.05 2248.01,-1130.73 2252.79,-1136.43 2251.07,-1128.16 2254.05,-1138.71"/>
</g>
<!-- 5648 -->
<g id="node13" class="node">
<title>5648</title>
<polygon fill="none" stroke="#e06f45" points="1998.96,-490.62 1998.96,-505.53 1957.97,-516.07 1899.99,-516.07 1858.99,-505.53 1858.99,-490.62 1899.99,-480.07 1957.97,-480.07 1998.96,-490.62"/>
<polygon fill="none" stroke="#e06f45" points="2002.96,-487.52 2002.96,-508.63 1958.47,-520.07 1899.48,-520.07 1854.99,-508.63 1854.99,-487.52 1899.48,-476.07 1958.47,-476.07 2002.96,-487.52"/>
<text text-anchor="middle" x="1928.98" y="-493.02" font-family="Times,serif" font-size="14.00">google:CPL10</text>
</g>
<!-- 1331&#45;&gt;5648 -->
<g id="edge3" class="edge">
<title>1331&#45;&gt;5648</title>
<path fill="none" stroke="#e06f45" stroke-width="2" d="M2012.03,-987.32C2034.22,-695.51 2033.27,-672.45 1948.12,-529.91"/>
<polygon fill="#e06f45" stroke="#e06f45" stroke-width="2" points="1943.64,-522.43 1952.64,-528.7 1945.39,-524.37 1949.21,-530.75 1948.78,-531.01 1948.35,-531.27 1944.53,-524.89 1944.92,-533.32 1943.64,-522.43"/>
</g>
<!-- 6252 -->
<g id="node16" class="node">
<title>6252</title>
<polygon fill="none" stroke="#e09d4b" points="2407.5,-1322.51 2407.5,-1337.42 2362.61,-1347.96 2299.13,-1347.96 2254.24,-1337.42 2254.24,-1322.51 2299.13,-1311.96 2362.61,-1311.96 2407.5,-1322.51"/>
<polygon fill="none" stroke="#e09d4b" points="2411.5,-1319.34 2411.5,-1340.59 2363.08,-1351.96 2298.66,-1351.96 2250.24,-1340.59 2250.24,-1319.34 2298.66,-1307.96 2363.08,-1307.96 2411.5,-1319.34"/>
<text text-anchor="middle" x="2330.87" y="-1324.91" font-family="Times,serif" font-size="14.00">Fedora:CPL&#45;1.0</text>
</g>
<!-- 1331&#45;&gt;6252 -->
<g id="edge4" class="edge">
<title>1331&#45;&gt;6252</title>
<path fill="none" stroke="#e09d4b" stroke-width="2" d="M2049.53,-1036.91C2244.95,-1153.61 2262.4,-1169.7 2317.14,-1297.58"/>
<polygon fill="#e09d4b" stroke="#e09d4b" stroke-width="2" points="2320.55,-1305.56 2312.49,-1298.13 2319.08,-1303.4 2316.17,-1296.56 2316.63,-1296.36 2317.09,-1296.17 2320,-1303.01 2320.77,-1294.6 2320.55,-1305.56"/>
</g>
<!-- 9526 -->
<g id="node21" class="node">
<title>9526</title>
<polygon fill="none" stroke="#58a066" points="1772.49,-1130.2 1772.49,-1145.11 1731.49,-1155.66 1673.51,-1155.66 1632.52,-1145.11 1632.52,-1130.2 1673.51,-1119.66 1731.49,-1119.66 1772.49,-1130.2"/>
<polygon fill="none" stroke="#58a066" points="1776.49,-1127.1 1776.49,-1148.22 1732,-1159.66 1673.01,-1159.66 1628.52,-1148.22 1628.52,-1127.1 1673.01,-1115.66 1732,-1115.66 1776.49,-1127.1"/>
<text text-anchor="middle" x="1702.5" y="-1132.61" font-family="Times,serif" font-size="14.00">osadl:CPL&#45;1.0</text>
</g>
<!-- 1331&#45;&gt;9526 -->
<g id="edge5" class="edge">
<title>1331&#45;&gt;9526</title>
<path fill="none" stroke="#58a066" stroke-width="2" d="M1951.24,-1031.93C1906.89,-1046.79 1870.87,-1062.33 1754.87,-1114.21"/>
<polygon fill="#58a066" stroke="#58a066" stroke-width="2" points="1747.12,-1117.68 1754.41,-1109.49 1749.26,-1116.18 1756.05,-1113.14 1756.25,-1113.6 1756.45,-1114.05 1749.67,-1117.09 1758.09,-1117.7 1747.12,-1117.68"/>
</g>
<!-- 10126 -->
<g id="node24" class="node">
<title>10126</title>
<polygon fill="none" stroke="#deb256" points="1664.63,-884.44 1664.63,-899.36 1588.58,-909.9 1481.04,-909.9 1405,-899.36 1405,-884.44 1481.04,-873.9 1588.58,-873.9 1664.63,-884.44"/>
<polygon fill="none" stroke="#deb256" points="1668.63,-880.96 1668.63,-902.84 1588.86,-913.9 1480.76,-913.9 1401,-902.84 1401,-880.96 1480.76,-869.9 1588.86,-869.9 1668.63,-880.96"/>
<text text-anchor="middle" x="1534.81" y="-886.85" font-family="Times,serif" font-size="14.00">fsf:CommonPublicLicense10</text>
</g>
<!-- 1331&#45;&gt;10126 -->
<g id="edge6" class="edge">
<title>1331&#45;&gt;10126</title>
<path fill="none" stroke="#deb256" stroke-dasharray="5,2" d="M1977.57,-988.18C1859.61,-897.13 1823.57,-878.37 1679.92,-883.44"/>
<polygon fill="#deb256" stroke="#deb256" points="1670.14,-883.82 1679.96,-878.93 1673.92,-883.67 1680.14,-883.43 1680.14,-883.43 1680.14,-883.43 1673.92,-883.67 1680.31,-887.93 1670.14,-883.82"/>
</g>
<!-- 40551 -->
<g id="node43" class="node">
<title>40551</title>
<polygon fill="none" stroke="#00876c" points="2261.73,-1427.53 2261.73,-1442.45 2160.05,-1452.99 2016.25,-1452.99 1914.57,-1442.45 1914.57,-1427.53 2016.25,-1416.99 2160.05,-1416.99 2261.73,-1427.53"/>
<polygon fill="none" stroke="#00876c" points="2265.73,-1423.93 2265.73,-1446.05 2160.26,-1456.99 2016.04,-1456.99 1910.57,-1446.05 1910.57,-1423.93 2016.04,-1412.99 2160.26,-1412.99 2265.73,-1423.93"/>
<text text-anchor="middle" x="2088.15" y="-1429.94" font-family="Times,serif" font-size="14.00">metaeffekt:Common Public License 1.0</text>
</g>
<!-- 1331&#45;&gt;40551 -->
<g id="edge7" class="edge">
<title>1331&#45;&gt;40551</title>
<path fill="none" stroke="#00876c" stroke-width="2" d="M2025.78,-1039.76C2128.5,-1212.32 2132.64,-1230.15 2095.39,-1401.87"/>
<polygon fill="#00876c" stroke="#00876c" stroke-width="2" points="2093.58,-1410.21 2091.31,-1399.48 2093.64,-1407.6 2095.22,-1400.34 2095.71,-1400.44 2096.19,-1400.55 2094.61,-1407.81 2100.1,-1401.4 2093.58,-1410.21"/>
</g>
<!-- 1332 -->
<g id="node3" class="node">
<title>1332</title>
<polygon fill="none" stroke="black" points="2000.45,-1494.52 2000.45,-1509.43 1973.41,-1519.97 1935.17,-1519.97 1908.12,-1509.43 1908.12,-1494.52 1935.17,-1483.97 1973.41,-1483.97 2000.45,-1494.52"/>
<polygon fill="none" stroke="black" points="2004.45,-1491.78 2004.45,-1512.16 1974.16,-1523.97 1934.41,-1523.97 1904.12,-1512.16 1904.12,-1491.78 1934.41,-1479.97 1974.16,-1479.97 2004.45,-1491.78"/>
<text text-anchor="middle" x="1954.29" y="-1496.92" font-family="Times,serif" font-size="14.00">CPL&#45;1.0</text>
</g>
<!-- 1332&#45;&gt;1331 -->
<g id="edge8" class="edge">
<title>1332&#45;&gt;1331</title>
<path fill="none" stroke="black" stroke-width="2" d="M1966.08,-1479.63C2074.16,-1274.73 2077.99,-1256.77 2020.4,-1050.32"/>
<polygon fill="black" stroke="black" stroke-width="2" points="2018.09,-1042.05 2025.11,-1050.46 2019.26,-1044.38 2021.26,-1051.54 2020.78,-1051.68 2020.3,-1051.81 2018.3,-1044.65 2016.45,-1052.89 2018.09,-1042.05"/>
</g>
<!-- 1332&#45;&gt;4971 -->
<g id="edge9" class="edge">
<title>1332&#45;&gt;4971</title>
<path fill="none" stroke="black" stroke-width="2" d="M1984.32,-1483.7C2191.54,-1357.47 2207.27,-1342.84 2261.85,-1195.21"/>
<polygon fill="black" stroke="black" stroke-width="2" points="2264.83,-1187.11 2265.6,-1198.05 2264.42,-1189.69 2261.85,-1196.67 2261.38,-1196.49 2260.91,-1196.32 2263.48,-1189.34 2257.15,-1194.94 2264.83,-1187.11"/>
</g>
<!-- 1332&#45;&gt;6252 -->
<g id="edge10" class="edge">
<title>1332&#45;&gt;6252</title>
<path fill="none" stroke="#e09d4b" stroke-width="2" d="M2003.05,-1490.87C2198.69,-1446.1 2224.74,-1435.96 2301.19,-1359.94"/>
<polygon fill="#e09d4b" stroke="#e09d4b" stroke-width="2" points="2307.03,-1354.1 2303.14,-1364.35 2305.57,-1356.27 2300.31,-1361.53 2299.96,-1361.17 2299.6,-1360.82 2304.86,-1355.56 2296.78,-1357.99 2307.03,-1354.1"/>
</g>
<!-- 9386 -->
<g id="node19" class="node">
<title>9386</title>
<polygon fill="none" stroke="#00876c" points="2394.92,-1727.86 2394.92,-1742.78 2345.49,-1753.32 2275.58,-1753.32 2226.14,-1742.78 2226.14,-1727.86 2275.58,-1717.32 2345.49,-1717.32 2394.92,-1727.86"/>
<polygon fill="none" stroke="#00876c" points="2398.92,-1724.63 2398.92,-1746.01 2345.91,-1757.32 2275.16,-1757.32 2222.14,-1746.01 2222.14,-1724.63 2275.16,-1713.32 2345.91,-1713.32 2398.92,-1724.63"/>
<text text-anchor="middle" x="2310.53" y="-1730.27" font-family="Times,serif" font-size="14.00">BlueOak:CPL&#45;1.0</text>
</g>
<!-- 1332&#45;&gt;9386 -->
<g id="edge11" class="edge">
<title>1332&#45;&gt;9386</title>
<path fill="none" stroke="#00876c" stroke-width="2" d="M1982.93,-1521.02C2166.53,-1643.12 2199.62,-1665.04 2266.04,-1707.17"/>
<polygon fill="#00876c" stroke="#00876c" stroke-width="2" points="2273.14,-1711.67 2262.29,-1710.12 2270.71,-1710.72 2264.43,-1706.74 2264.7,-1706.32 2264.96,-1705.9 2271.25,-1709.88 2267.11,-1702.52 2273.14,-1711.67"/>
</g>
<!-- 1332&#45;&gt;9526 -->
<g id="edge12" class="edge">
<title>1332&#45;&gt;9526</title>
<path fill="none" stroke="#58a066" stroke-width="2" d="M1948.18,-1479.7C1913.65,-1354.68 1902.75,-1338.99 1732.42,-1167.71"/>
<polygon fill="#58a066" stroke="#58a066" stroke-width="2" points="1726.43,-1161.69 1736.67,-1165.61 1728.59,-1163.16 1733.84,-1168.43 1733.48,-1168.78 1733.13,-1169.13 1727.88,-1163.86 1730.29,-1171.96 1726.43,-1161.69"/>
</g>
<!-- 14247 -->
<g id="node28" class="node">
<title>14247</title>
<polygon fill="none" stroke="black" points="2034.79,-1791.8 2034.79,-1806.71 1988.28,-1817.25 1922.5,-1817.25 1875.99,-1806.71 1875.99,-1791.8 1922.5,-1781.25 1988.28,-1781.25 2034.79,-1791.8"/>
<polygon fill="none" stroke="black" points="2038.79,-1788.6 2038.79,-1809.9 1988.73,-1821.25 1922.05,-1821.25 1871.99,-1809.9 1871.99,-1788.6 1922.05,-1777.25 1988.73,-1777.25 2038.79,-1788.6"/>
<text text-anchor="middle" x="1955.39" y="-1794.2" font-family="Times,serif" font-size="14.00">scancode:cpl&#45;1.0</text>
</g>
<!-- 1332&#45;&gt;14247 -->
<g id="edge13" class="edge">
<title>1332&#45;&gt;14247</title>
<path fill="none" stroke="black" stroke-width="2" d="M1959.02,-1524.46C1990.46,-1674.07 1993.09,-1695.38 1967.58,-1766.46"/>
<polygon fill="black" stroke="black" stroke-width="2" points="1964.62,-1774.55 1963.82,-1763.62 1965.03,-1771.97 1967.58,-1764.99 1968.05,-1765.16 1968.52,-1765.33 1965.97,-1772.32 1972.28,-1766.7 1964.62,-1774.55"/>
</g>
<!-- 26114 -->
<g id="node31" class="node">
<title>26114</title>
<polygon fill="none" stroke="#e18745" points="2264.73,-1843.56 2264.73,-1858.47 2213.34,-1869.02 2140.68,-1869.02 2089.3,-1858.47 2089.3,-1843.56 2140.68,-1833.02 2213.34,-1833.02 2264.73,-1843.56"/>
<polygon fill="none" stroke="#e18745" points="2268.73,-1840.3 2268.73,-1861.73 2213.75,-1873.02 2140.27,-1873.02 2085.3,-1861.73 2085.3,-1840.3 2140.27,-1829.02 2213.75,-1829.02 2268.73,-1840.3"/>
<text text-anchor="middle" x="2177.01" y="-1845.97" font-family="Times,serif" font-size="14.00">fossology:CPL&#45;1.0</text>
</g>
<!-- 1332&#45;&gt;26114 -->
<g id="edge14" class="edge">
<title>1332&#45;&gt;26114</title>
<path fill="none" stroke="#e18745" stroke-width="2" d="M1971.18,-1524.45C2110.97,-1710.55 2126.8,-1732.99 2163.27,-1818.42"/>
<polygon fill="#e18745" stroke="#e18745" stroke-width="2" points="2166.64,-1826.35 2158.59,-1818.9 2165.17,-1824.18 2162.27,-1817.34 2162.73,-1817.14 2163.19,-1816.95 2166.1,-1823.79 2166.87,-1815.38 2166.64,-1826.35"/>
</g>
<!-- 36707 -->
<g id="node35" class="node">
<title>36707</title>
<polygon fill="none" stroke="#379469" points="1734.66,-1958.01 1734.66,-1972.92 1694.64,-1983.46 1638.04,-1983.46 1598.02,-1972.92 1598.02,-1958.01 1638.04,-1947.46 1694.64,-1947.46 1734.66,-1958.01"/>
<polygon fill="none" stroke="#379469" points="1738.66,-1954.92 1738.66,-1976 1695.16,-1987.46 1637.52,-1987.46 1594.02,-1976 1594.02,-1954.92 1637.52,-1943.46 1695.16,-1943.46 1738.66,-1954.92"/>
<text text-anchor="middle" x="1666.34" y="-1960.41" font-family="Times,serif" font-size="14.00">cavil:CPL&#45;1.0</text>
</g>
<!-- 1332&#45;&gt;36707 -->
<g id="edge15" class="edge">
<title>1332&#45;&gt;36707</title>
<path fill="none" stroke="#379469" stroke-width="2" d="M1947.72,-1524.21C1863.64,-1808.82 1853.53,-1833.27 1706.19,-1937.52"/>
<polygon fill="#379469" stroke="#379469" stroke-width="2" points="1699.21,-1942.44 1704.79,-1933 1701.02,-1940.55 1707.1,-1936.27 1707.38,-1936.68 1707.67,-1937.08 1701.59,-1941.37 1709.98,-1940.35 1699.21,-1942.44"/>
</g>
<!-- 1332&#45;&gt;40551 -->
<g id="edge16" class="edge">
<title>1332&#45;&gt;40551</title>
<path fill="none" stroke="#00876c" stroke-dasharray="5,2" d="M2003.93,-1491.16C2033.46,-1484.03 2046.82,-1478.1 2061.06,-1464.86"/>
<polygon fill="#00876c" stroke="#00876c" points="2067.82,-1458.09 2063.94,-1468.35 2065.14,-1460.77 2060.75,-1465.17 2060.75,-1465.17 2060.75,-1465.17 2065.14,-1460.77 2057.57,-1461.99 2067.82,-1458.09"/>
</g>
<!-- 50456 -->
<g id="node53" class="node">
<title>50456</title>
<polygon fill="none" stroke="#b8bf62" points="1681.7,-1581.79 1681.7,-1596.71 1577.75,-1607.25 1430.74,-1607.25 1326.79,-1596.71 1326.79,-1581.79 1430.74,-1571.25 1577.75,-1571.25 1681.7,-1581.79"/>
<polygon fill="none" stroke="#b8bf62" points="1685.7,-1578.18 1685.7,-1600.32 1577.95,-1611.25 1430.54,-1611.25 1322.79,-1600.32 1322.79,-1578.18 1430.54,-1567.25 1577.95,-1567.25 1685.7,-1578.18"/>
<text text-anchor="middle" x="1504.24" y="-1584.2" font-family="Times,serif" font-size="14.00">foss&#45;license:Common Public License 1.0</text>
</g>
<!-- 1332&#45;&gt;50456 -->
<g id="edge17" class="edge">
<title>1332&#45;&gt;50456</title>
<path fill="none" stroke="#b8bf62" stroke-width="2" d="M1926.09,-1521.18C1804.01,-1604.01 1768.69,-1621.26 1640.9,-1607.68"/>
<polygon fill="#b8bf62" stroke="#b8bf62" stroke-width="2" points="1632.33,-1606.73 1642.76,-1603.35 1634.93,-1606.51 1642.32,-1607.33 1642.26,-1607.83 1642.21,-1608.32 1634.82,-1607.51 1641.77,-1612.3 1632.33,-1606.73"/>
</g>
<!-- 50959 -->
<g id="node59" class="node">
<title>50959</title>
<polygon fill="none" stroke="#dac767" points="2646.15,-1675.82 2646.15,-1690.73 2549.66,-1701.28 2413.21,-1701.28 2316.72,-1690.73 2316.72,-1675.82 2413.21,-1665.28 2549.66,-1665.28 2646.15,-1675.82"/>
<polygon fill="none" stroke="#dac767" points="2650.15,-1672.24 2650.15,-1694.32 2549.88,-1705.28 2412.99,-1705.28 2312.72,-1694.32 2312.72,-1672.24 2412.99,-1661.28 2549.88,-1661.28 2650.15,-1672.24"/>
<text text-anchor="middle" x="2481.44" y="-1678.23" font-family="Times,serif" font-size="14.00">fosslight:Common Public License 1.0</text>
</g>
<!-- 1332&#45;&gt;50959 -->
<g id="edge18" class="edge">
<title>1332&#45;&gt;50959</title>
<path fill="none" stroke="#dac767" stroke-width="2" d="M1992.51,-1517.33C2233.24,-1614.01 2297.77,-1639.33 2381.36,-1660.45"/>
<polygon fill="#dac767" stroke="#dac767" stroke-width="2" points="2389.84,-1662.55 2379.05,-1664.51 2387.24,-1662.42 2380.02,-1660.63 2380.14,-1660.14 2380.26,-1659.66 2387.48,-1661.45 2381.22,-1655.77 2389.84,-1662.55"/>
</g>
<!-- 54269 -->
<g id="node63" class="node">
<title>54269</title>
<polygon fill="none" stroke="#98b561" points="1767.68,-1786.88 1767.68,-1801.8 1722.79,-1812.34 1659.3,-1812.34 1614.41,-1801.8 1614.41,-1786.88 1659.3,-1776.34 1722.79,-1776.34 1767.68,-1786.88"/>
<polygon fill="none" stroke="#98b561" points="1771.68,-1783.71 1771.68,-1804.96 1723.25,-1816.34 1658.84,-1816.34 1610.41,-1804.96 1610.41,-1783.71 1658.84,-1772.34 1723.25,-1772.34 1771.68,-1783.71"/>
<text text-anchor="middle" x="1691.05" y="-1789.29" font-family="Times,serif" font-size="14.00">eclipse:CPL&#45;1.0</text>
</g>
<!-- 1332&#45;&gt;54269 -->
<g id="edge19" class="edge">
<title>1332&#45;&gt;54269</title>
<path fill="none" stroke="#98b561" stroke-width="2" d="M1944.74,-1524.32C1872.56,-1692.94 1859.29,-1715.21 1744.01,-1769.86"/>
<polygon fill="#98b561" stroke="#98b561" stroke-width="2" points="1736.25,-1773.51 1743.38,-1765.18 1738.36,-1771.97 1745.09,-1768.8 1745.3,-1769.25 1745.51,-1769.71 1738.78,-1772.87 1747.21,-1773.33 1736.25,-1773.51"/>
</g>
<!-- 1333 -->
<g id="node4" class="node">
<title>1333</title>
<polygon fill="none" stroke="black" points="2271.81,-1479.55 2271.81,-1494.46 2197.06,-1505 2091.35,-1505 2016.61,-1494.46 2016.61,-1479.55 2091.35,-1469 2197.06,-1469 2271.81,-1479.55"/>
<polygon fill="none" stroke="black" points="2275.81,-1476.07 2275.81,-1497.94 2197.34,-1509 2091.07,-1509 2012.61,-1497.94 2012.61,-1476.07 2091.07,-1465 2197.34,-1465 2275.81,-1476.07"/>
<text text-anchor="middle" x="2144.21" y="-1481.95" font-family="Times,serif" font-size="14.00">Common Public License 1.0</text>
</g>
<!-- 1333&#45;&gt;1331 -->
<g id="edge20" class="edge">
<title>1333&#45;&gt;1331</title>
<path fill="none" stroke="#b8bf62" stroke-width="2" d="M2147.18,-1464.81C2173.85,-1264.36 2170.57,-1246.9 2034.26,-1048.55"/>
<polygon fill="#b8bf62" stroke="#b8bf62" stroke-width="2" points="2029.48,-1041.59 2038.85,-1047.28 2031.34,-1043.41 2035.56,-1049.54 2035.14,-1049.83 2034.73,-1050.11 2030.52,-1043.98 2031.44,-1052.38 2029.48,-1041.59"/>
</g>
<!-- 1333&#45;&gt;9386 -->
<g id="edge21" class="edge">
<title>1333&#45;&gt;9386</title>
<path fill="none" stroke="#00876c" stroke-width="2" d="M2163.74,-1509.32C2263.28,-1623.14 2278.12,-1642.21 2299.44,-1702.62"/>
<polygon fill="#00876c" stroke="#00876c" stroke-width="2" points="2302.28,-1710.81 2294.75,-1702.84 2300.97,-1708.55 2298.53,-1701.53 2299,-1701.36 2299.48,-1701.2 2301.91,-1708.23 2303.26,-1699.89 2302.28,-1710.81"/>
</g>
<!-- 1333&#45;&gt;14247 -->
<g id="edge22" class="edge">
<title>1333&#45;&gt;14247</title>
<path fill="none" stroke="#dac767" stroke-width="2" d="M2139.89,-1509.42C2108.4,-1672.53 2100.78,-1692.29 1995.12,-1770.3"/>
<polygon fill="#dac767" stroke="#dac767" stroke-width="2" points="1988.28,-1775.33 1993.67,-1765.78 1990.05,-1773.41 1996.04,-1769 1996.34,-1769.4 1996.63,-1769.81 1990.64,-1774.21 1999,-1773.03 1988.28,-1775.33"/>
</g>
<!-- 1333&#45;&gt;26114 -->
<g id="edge23" class="edge">
<title>1333&#45;&gt;26114</title>
<path fill="none" stroke="#e18745" stroke-width="2" d="M2151.64,-1509.36C2213.21,-1694.69 2217.53,-1714.97 2186.95,-1818.19"/>
<polygon fill="#e18745" stroke="#e18745" stroke-width="2" points="2184.47,-1826.45 2183.03,-1815.58 2184.73,-1823.85 2186.86,-1816.73 2187.34,-1816.87 2187.82,-1817.01 2185.69,-1824.14 2191.65,-1818.16 2184.47,-1826.45"/>
</g>
<!-- 1333&#45;&gt;40551 -->
<g id="edge24" class="edge">
<title>1333&#45;&gt;40551</title>
<path fill="none" stroke="#00876c" stroke-width="2" d="M2125.75,-1464.51C2125.6,-1464.38 2125.44,-1464.24 2125.29,-1464.1"/>
<polygon fill="#00876c" stroke="#00876c" stroke-width="2" points="2118.9,-1458.74 2129.45,-1461.72 2121.18,-1460 2126.88,-1464.78 2126.56,-1465.17 2126.23,-1465.55 2120.54,-1460.77 2123.66,-1468.61 2118.9,-1458.74"/>
</g>
<!-- 1333&#45;&gt;50456 -->
<g id="edge25" class="edge">
<title>1333&#45;&gt;50456</title>
<path fill="none" stroke="#b8bf62" stroke-width="2" d="M2109.09,-1509.32C1935.17,-1619.37 1895.25,-1633.79 1650.63,-1606.68"/>
<polygon fill="#b8bf62" stroke="#b8bf62" stroke-width="2" points="1642,-1605.72 1652.44,-1602.36 1644.61,-1605.5 1652,-1606.33 1651.94,-1606.83 1651.89,-1607.32 1644.5,-1606.5 1651.44,-1611.3 1642,-1605.72"/>
</g>
<!-- 1333&#45;&gt;50959 -->
<g id="edge26" class="edge">
<title>1333&#45;&gt;50959</title>
<path fill="none" stroke="#dac767" stroke-width="2" d="M2184.77,-1509.35C2347.69,-1599.12 2380.85,-1617.8 2438.26,-1654.99"/>
<polygon fill="#dac767" stroke="#dac767" stroke-width="2" points="2445.27,-1659.55 2434.43,-1657.87 2442.84,-1658.57 2436.61,-1654.52 2436.88,-1654.1 2437.16,-1653.68 2443.39,-1657.74 2439.34,-1650.33 2445.27,-1659.55"/>
</g>
<!-- 4970 -->
<g id="node5" class="node">
<title>4970</title>
<ellipse fill="none" stroke="#78ab63" cx="2607.11" cy="-819.19" rx="156.09" ry="28.99"/>
<text text-anchor="middle" x="2607.11" y="-822.39" font-family="Times,serif" font-size="14.00" fill="gray">OSILicense</text>
<text text-anchor="middle" x="2607.11" y="-805.89" font-family="Times,serif" font-size="14.00" fill="gray">1b25360ae22b0ff7f493f946740b479c</text>
</g>
<!-- 4970&#45;&gt;4971 -->
<g id="edge27" class="edge">
<title>4970&#45;&gt;4971</title>
<path fill="none" stroke="#78ab63" d="M2592.19,-848.29C2534.58,-959.69 2516.13,-977.43 2310.87,-1134.37"/>
<polygon fill="#78ab63" stroke="#78ab63" points="2308.93,-1131.45 2303.11,-1140.3 2313.18,-1137.01 2308.93,-1131.45"/>
</g>
<!-- 4971&#45;&gt;40551 -->
<g id="edge28" class="edge">
<title>4971&#45;&gt;40551</title>
<path fill="none" stroke="#00876c" stroke-dasharray="5,2" d="M2269.5,-1184.97C2248.04,-1295.78 2239.35,-1310.93 2123.87,-1405.8"/>
<polygon fill="#00876c" stroke="#00876c" points="2116.31,-1411.99 2121.19,-1402.17 2119.24,-1409.6 2124.04,-1405.65 2124.04,-1405.65 2124.04,-1405.65 2119.24,-1409.6 2126.9,-1409.13 2116.31,-1411.99"/>
</g>
<!-- 4972 -->
<g id="node7" class="node">
<title>4972</title>
<polygon fill="none" stroke="black" points="2173.8,-1375.49 2173.8,-1390.4 2078.29,-1400.94 1943.21,-1400.94 1847.69,-1390.4 1847.69,-1375.49 1943.21,-1364.94 2078.29,-1364.94 2173.8,-1375.49"/>
<polygon fill="none" stroke="black" points="2177.8,-1371.9 2177.8,-1393.98 2078.51,-1404.94 1942.99,-1404.94 1843.69,-1393.98 1843.69,-1371.9 1942.99,-1360.94 2078.51,-1360.94 2177.8,-1371.9"/>
<text text-anchor="middle" x="2010.75" y="-1377.89" font-family="Times,serif" font-size="14.00">Common Public License, Version 1.0</text>
</g>
<!-- 4972&#45;&gt;4971 -->
<g id="edge29" class="edge">
<title>4972&#45;&gt;4971</title>
<path fill="none" stroke="#78ab63" stroke-width="2" d="M2053.33,-1360.46C2193.51,-1286.15 2212.64,-1271.46 2256.03,-1194.72"/>
<polygon fill="#78ab63" stroke="#78ab63" stroke-width="2" points="2260.26,-1187.17 2259.29,-1198.1 2259.44,-1189.65 2255.81,-1196.14 2255.37,-1195.9 2254.93,-1195.65 2258.57,-1189.16 2251.44,-1193.7 2260.26,-1187.17"/>
</g>
<!-- 4972&#45;&gt;40551 -->
<g id="edge30" class="edge">
<title>4972&#45;&gt;40551</title>
<path fill="none" stroke="#00876c" stroke-dasharray="5,2" d="M2049,-1405.27C2049.87,-1405.79 2050.72,-1406.31 2051.54,-1406.81"/>
<polygon fill="#00876c" stroke="#00876c" points="2059.79,-1412 2048.93,-1410.48 2056.59,-1409.98 2051.33,-1406.67 2051.33,-1406.67 2051.33,-1406.67 2056.59,-1409.98 2053.73,-1402.86 2059.79,-1412"/>
</g>
<!-- 4972&#45;&gt;50456 -->
<g id="edge31" class="edge">
<title>4972&#45;&gt;50456</title>
<path fill="none" stroke="#b8bf62" stroke-width="2" d="M1988.64,-1405.34C1866.75,-1528.56 1826.96,-1562.48 1697.3,-1577.16"/>
<polygon fill="#b8bf62" stroke="#b8bf62" stroke-width="2" points="1688.57,-1578.09 1698.03,-1572.55 1691.06,-1577.32 1698.46,-1576.53 1698.51,-1577.03 1698.56,-1577.53 1691.17,-1578.32 1698.99,-1581.5 1688.57,-1578.09"/>
</g>
<!-- 4973 -->
<g id="node8" class="node">
<title>4973</title>
<polygon fill="none" stroke="#78ab63" points="2695.49,-1075.86 2695.49,-1090.78 2662.28,-1101.32 2615.32,-1101.32 2582.11,-1090.78 2582.11,-1075.86 2615.32,-1065.32 2662.28,-1065.32 2695.49,-1075.86"/>
<polygon fill="none" stroke="#78ab63" points="2699.49,-1072.94 2699.49,-1093.7 2662.9,-1105.32 2614.7,-1105.32 2578.11,-1093.7 2578.11,-1072.94 2614.7,-1061.32 2662.9,-1061.32 2699.49,-1072.94"/>
<text text-anchor="middle" x="2638.8" y="-1078.27" font-family="Times,serif" font-size="14.00">DEP5:CPL</text>
</g>
<!-- 4973&#45;&gt;4971 -->
<g id="edge32" class="edge">
<title>4973&#45;&gt;4971</title>
<path fill="none" stroke="#78ab63" stroke-width="2" d="M2588.28,-1097.33C2530.42,-1113 2494.01,-1120.55 2346.31,-1148.85"/>
<polygon fill="#78ab63" stroke="#78ab63" stroke-width="2" points="2337.88,-1150.46 2346.85,-1144.16 2340.3,-1149.49 2347.61,-1148.09 2347.7,-1148.58 2347.8,-1149.07 2340.49,-1150.47 2348.55,-1153 2337.88,-1150.46"/>
</g>
<!-- 4974 -->
<g id="node9" class="node">
<title>4974</title>
<polygon fill="none" stroke="black" points="2665.52,-1303.78 2665.52,-1318.7 2647.89,-1329.24 2622.95,-1329.24 2605.32,-1318.7 2605.32,-1303.78 2622.95,-1293.24 2647.89,-1293.24 2665.52,-1303.78"/>
<polygon fill="none" stroke="black" points="2669.52,-1301.52 2669.52,-1320.96 2648.99,-1333.24 2621.85,-1333.24 2601.32,-1320.96 2601.32,-1301.52 2621.85,-1289.24 2648.99,-1289.24 2669.52,-1301.52"/>
<text text-anchor="middle" x="2635.42" y="-1306.19" font-family="Times,serif" font-size="14.00">CPL</text>
</g>
<!-- 4974&#45;&gt;4973 -->
<g id="edge33" class="edge">
<title>4974&#45;&gt;4973</title>
<path fill="none" stroke="#78ab63" stroke-width="2" d="M2644.57,-1288.8C2678.07,-1206.01 2679.74,-1190.75 2651.46,-1116.04"/>
<polygon fill="#78ab63" stroke="#78ab63" stroke-width="2" points="2648.34,-1107.88 2656.12,-1115.62 2649.72,-1110.1 2652.38,-1117.05 2651.91,-1117.22 2651.45,-1117.4 2648.79,-1110.46 2647.71,-1118.83 2648.34,-1107.88"/>
</g>
<!-- 4974&#45;&gt;6252 -->
<g id="edge34" class="edge">
<title>4974&#45;&gt;6252</title>
<path fill="none" stroke="#e09d4b" stroke-dasharray="5,2" d="M2600.97,-1316.85C2551.8,-1324.55 2525.3,-1326.37 2422.91,-1328.35"/>
<polygon fill="#e09d4b" stroke="#e09d4b" points="2412.97,-1328.54 2422.88,-1323.85 2416.75,-1328.47 2422.97,-1328.35 2422.97,-1328.35 2422.97,-1328.35 2416.75,-1328.47 2423.05,-1332.85 2412.97,-1328.54"/>
</g>
<!-- 4974&#45;&gt;40551 -->
<g id="edge35" class="edge">
<title>4974&#45;&gt;40551</title>
<path fill="none" stroke="#00876c" stroke-dasharray="5,2" d="M2607.46,-1325.16C2492.9,-1381.91 2459.06,-1392.76 2238.14,-1418.24"/>
<polygon fill="#00876c" stroke="#00876c" points="2228.35,-1419.37 2237.77,-1413.76 2232.1,-1418.94 2238.28,-1418.23 2238.28,-1418.23 2238.28,-1418.23 2232.1,-1418.94 2238.79,-1422.7 2228.35,-1419.37"/>
</g>
<!-- 40561 -->
<g id="node50" class="node">
<title>40561</title>
<polygon fill="none" stroke="#00876c" points="3077.7,-1192.29 3077.7,-1207.2 3023.72,-1217.74 2947.39,-1217.74 2893.41,-1207.2 2893.41,-1192.29 2947.39,-1181.74 3023.72,-1181.74 3077.7,-1192.29"/>
<text text-anchor="middle" x="2985.56" y="-1194.69" font-family="Times,serif" font-size="14.00">metaeffekt:CPL&#45;0.5</text>
</g>
<!-- 4974&#45;&gt;40561 -->
<g id="edge36" class="edge">
<title>4974&#45;&gt;40561</title>
<path fill="none" stroke="#00876c" stroke-dasharray="5,2" d="M2669.76,-1303.71C2847.84,-1264.62 2881.26,-1256.18 2942.84,-1223.37"/>
<polygon fill="#00876c" stroke="#00876c" points="2951.5,-1218.69 2944.84,-1227.4 2948.17,-1220.49 2942.7,-1223.44 2942.7,-1223.44 2942.7,-1223.44 2948.17,-1220.49 2940.56,-1219.48 2951.5,-1218.69"/>
</g>
<!-- 40565 -->
<g id="node51" class="node">
<title>40565</title>
<polygon fill="none" stroke="#00876c" points="3056.47,-1366.2 3056.47,-1381.11 3007.36,-1391.66 2937.91,-1391.66 2888.8,-1381.11 2888.8,-1366.2 2937.91,-1355.66 3007.36,-1355.66 3056.47,-1366.2"/>
<text text-anchor="middle" x="2972.64" y="-1368.61" font-family="Times,serif" font-size="14.00">metaeffekt:CPL&#45;?</text>
</g>
<!-- 4974&#45;&gt;40565 -->
<g id="edge37" class="edge">
<title>4974&#45;&gt;40565</title>
<path fill="none" stroke="#00876c" stroke-dasharray="5,2" d="M2669.73,-1316.63C2813.77,-1339.29 2857.98,-1346.47 2905.58,-1357.29"/>
<polygon fill="#00876c" stroke="#00876c" points="2915.29,-1359.54 2904.54,-1361.66 2911.61,-1358.68 2905.55,-1357.28 2905.55,-1357.28 2905.55,-1357.28 2911.61,-1358.68 2906.57,-1352.9 2915.29,-1359.54"/>
</g>
<!-- 4975 -->
<g id="node10" class="node">
<title>4975</title>
<polygon fill="none" stroke="#78ab63" points="2565.84,-1069.63 2565.84,-1084.54 2419.37,-1095.09 2212.24,-1095.09 2065.78,-1084.54 2065.78,-1069.63 2212.24,-1059.09 2419.37,-1059.09 2565.84,-1069.63"/>
<polygon fill="none" stroke="#78ab63" points="2569.84,-1065.91 2569.84,-1088.27 2419.52,-1099.09 2212.1,-1099.09 2061.78,-1088.27 2061.78,-1065.91 2212.1,-1055.09 2419.52,-1055.09 2569.84,-1065.91"/>
<text text-anchor="middle" x="2315.81" y="-1072.04" font-family="Times,serif" font-size="14.00">Trove:License :: OSI Approved :: Common Public License</text>
</g>
<!-- 4975&#45;&gt;4971 -->
<g id="edge38" class="edge">
<title>4975&#45;&gt;4971</title>
<path fill="none" stroke="#78ab63" stroke-width="2" d="M2314.13,-1099.33C2312.51,-1111.7 2309.19,-1119.52 2299.66,-1132.02"/>
<polygon fill="#78ab63" stroke="#78ab63" stroke-width="2" points="2294.4,-1138.58 2297.14,-1127.96 2295.61,-1136.26 2300.26,-1130.46 2300.65,-1130.77 2301.04,-1131.09 2296.39,-1136.89 2304.17,-1133.59 2294.4,-1138.58"/>
</g>
<!-- 4976 -->
<g id="node11" class="node">
<title>4976</title>
<polygon fill="none" stroke="#78ab63" points="2587.91,-1017.59 2587.91,-1032.5 2457.02,-1043.04 2271.92,-1043.04 2141.03,-1032.5 2141.03,-1017.59 2271.92,-1007.04 2457.02,-1007.04 2587.91,-1017.59"/>
<polygon fill="none" stroke="#78ab63" points="2591.91,-1013.9 2591.91,-1036.19 2457.18,-1047.04 2271.76,-1047.04 2137.03,-1036.19 2137.03,-1013.9 2271.76,-1003.04 2457.18,-1003.04 2591.91,-1013.9"/>
<text text-anchor="middle" x="2364.47" y="-1019.99" font-family="Times,serif" font-size="14.00">License :: OSI Approved :: Common Public License</text>
</g>
<!-- 4976&#45;&gt;4975 -->
<g id="edge39" class="edge">
<title>4976&#45;&gt;4975</title>
<path fill="none" stroke="#78ab63" stroke-width="2" d="M2351.64,-1047.37C2351.51,-1047.51 2351.38,-1047.66 2351.24,-1047.81"/>
<polygon fill="#78ab63" stroke="#78ab63" stroke-width="2" points="2345.64,-1053.2 2349.72,-1043.02 2347.14,-1051.07 2352.5,-1045.9 2352.84,-1046.26 2353.19,-1046.62 2347.84,-1051.79 2355.97,-1049.51 2345.64,-1053.2"/>
</g>
<!-- 5647 -->
<g id="node12" class="node">
<title>5647</title>
<ellipse fill="none" stroke="#e06f45" cx="1960.18" cy="-28.98" rx="157.68" ry="28.99"/>
<text text-anchor="middle" x="1960.18" y="-32.18" font-family="Times,serif" font-size="14.00" fill="gray">GoogleLicense</text>
<text text-anchor="middle" x="1960.18" y="-15.68" font-family="Times,serif" font-size="14.00" fill="gray">d0e1cd6d4b6bbcf26af85003dda257a4</text>
</g>
<!-- 5647&#45;&gt;5648 -->
<g id="edge40" class="edge">
<title>5647&#45;&gt;5648</title>
<path fill="none" stroke="#e06f45" d="M1963.71,-58.28C1977.21,-172.67 1974.73,-196.83 1934.08,-464.52"/>
<polygon fill="#e06f45" stroke="#e06f45" points="1930.63,-463.89 1932.59,-474.3 1937.55,-464.94 1930.63,-463.89"/>
</g>
<!-- 5649 -->
<g id="node14" class="node">
<title>5649</title>
<polygon fill="none" stroke="#e06f45" points="1935.67,-175.19 1935.67,-190.1 1912.19,-200.65 1879,-200.65 1855.53,-190.1 1855.53,-175.19 1879,-164.65 1912.19,-164.65 1935.67,-175.19"/>
<polygon fill="none" stroke="#e06f45" points="1939.67,-172.6 1939.67,-192.69 1913.05,-204.65 1878.14,-204.65 1851.53,-192.69 1851.53,-172.6 1878.14,-160.65 1913.05,-160.65 1939.67,-172.6"/>
<text text-anchor="middle" x="1895.6" y="-177.6" font-family="Times,serif" font-size="14.00">CPL10</text>
</g>
<!-- 5649&#45;&gt;5648 -->
<g id="edge41" class="edge">
<title>5649&#45;&gt;5648</title>
<path fill="none" stroke="#e06f45" stroke-width="2" d="M1904.44,-205.04C1932.85,-277.91 1934.14,-296.67 1929.84,-464.79"/>
<polygon fill="#e06f45" stroke="#e06f45" stroke-width="2" points="1929.62,-473.38 1925.38,-463.27 1929.19,-470.81 1929.38,-463.37 1929.88,-463.38 1930.38,-463.4 1930.19,-470.83 1934.38,-463.5 1929.62,-473.38"/>
</g>
<!-- 6251 -->
<g id="node15" class="node">
<title>6251</title>
<ellipse fill="none" stroke="#e09d4b" cx="2779.53" cy="-1428.69" rx="153.97" ry="28.99"/>
<text text-anchor="middle" x="2779.53" y="-1431.89" font-family="Times,serif" font-size="14.00" fill="gray">FedoraEntry</text>
<text text-anchor="middle" x="2779.53" y="-1415.39" font-family="Times,serif" font-size="14.00" fill="gray">ae74b9eb01fe1f9cafb8419c13f87823</text>
</g>
<!-- 6251&#45;&gt;6252 -->
<g id="edge42" class="edge">
<title>6251&#45;&gt;6252</title>
<path fill="none" stroke="#e09d4b" d="M2689.18,-1404.87C2630.23,-1390.1 2574.49,-1378.59 2410.97,-1345.94"/>
<polygon fill="#e09d4b" stroke="#e09d4b" points="2412.02,-1342.58 2401.52,-1344.06 2410.65,-1349.45 2412.02,-1342.58"/>
</g>
<!-- 6253 -->
<g id="node17" class="node">
<title>6253</title>
<polygon fill="none" stroke="black" points="2771.71,-1539.41 2771.71,-1554.32 2706.05,-1564.86 2613.19,-1564.86 2547.53,-1554.32 2547.53,-1539.41 2613.19,-1528.86 2706.05,-1528.86 2771.71,-1539.41"/>
<text text-anchor="middle" x="2659.62" y="-1541.81" font-family="Times,serif" font-size="14.00">Common Public License</text>
</g>
<!-- 6253&#45;&gt;6252 -->
<g id="edge43" class="edge">
<title>6253&#45;&gt;6252</title>
<path fill="none" stroke="#e09d4b" stroke-dasharray="5,2" d="M2641.9,-1528.4C2576.52,-1460.69 2557.62,-1448.18 2380.41,-1355.76"/>
<polygon fill="#e09d4b" stroke="#e09d4b" points="2371.55,-1351.14 2382.5,-1351.77 2374.9,-1352.89 2380.42,-1355.76 2380.42,-1355.76 2380.42,-1355.76 2374.9,-1352.89 2378.34,-1359.75 2371.55,-1351.14"/>
</g>
<!-- 6253&#45;&gt;9386 -->
<g id="edge44" class="edge">
<title>6253&#45;&gt;9386</title>
<path fill="none" stroke="#00876c" stroke-dasharray="5,2" d="M2644.8,-1565.2C2567.37,-1660.7 2548.88,-1674.42 2385.55,-1716.39"/>
<polygon fill="#00876c" stroke="#00876c" points="2376.28,-1718.77 2384.86,-1711.93 2379.95,-1717.83 2385.97,-1716.29 2385.97,-1716.29 2385.97,-1716.29 2379.95,-1717.83 2387.09,-1720.65 2376.28,-1718.77"/>
</g>
<!-- 6253&#45;&gt;40565 -->
<g id="edge45" class="edge">
<title>6253&#45;&gt;40565</title>
<path fill="none" stroke="#00876c" stroke-dasharray="5,2" d="M2712.73,-1529.55C2868.21,-1478.58 2890.41,-1466.91 2949.23,-1400.51"/>
<polygon fill="#00876c" stroke="#00876c" points="2955.79,-1393.04 2952.56,-1403.53 2953.29,-1395.88 2949.18,-1400.55 2949.18,-1400.55 2949.18,-1400.55 2953.29,-1395.88 2945.81,-1397.58 2955.79,-1393.04"/>
</g>
<!-- 9385 -->
<g id="node18" class="node">
<title>9385</title>
<ellipse fill="none" stroke="#00876c" cx="2658.77" cy="-2089.31" rx="158.75" ry="28.99"/>
<text text-anchor="middle" x="2658.77" y="-2092.51" font-family="Times,serif" font-size="14.00" fill="gray">BlueOakCouncil</text>
<text text-anchor="middle" x="2658.77" y="-2076.01" font-family="Times,serif" font-size="14.00" fill="gray">bdc103289ef65c08782cbb4c1e9ebd50</text>
</g>
<!-- 9385&#45;&gt;9386 -->
<g id="edge46" class="edge">
<title>9385&#45;&gt;9386</title>
<path fill="none" stroke="#00876c" d="M2635.33,-2060.21C2565.74,-1974.17 2543.59,-1952.5 2342.59,-1765.19"/>
<polygon fill="#00876c" stroke="#00876c" points="2345.25,-1762.88 2335.54,-1758.62 2340.47,-1768 2345.25,-1762.88"/>
</g>
<!-- 9525 -->
<g id="node20" class="node">
<title>9525</title>
<ellipse fill="none" stroke="#58a066" cx="1266.19" cy="-950.93" rx="161.4" ry="28.99"/>
<text text-anchor="middle" x="1266.19" y="-954.13" font-family="Times,serif" font-size="14.00" fill="gray">OSADLRule</text>
<text text-anchor="middle" x="1266.19" y="-937.63" font-family="Times,serif" font-size="14.00" fill="gray">345e44d34838188b91b5b6f46d41235e</text>
</g>
<!-- 9525&#45;&gt;9526 -->
<g id="edge47" class="edge">
<title>9525&#45;&gt;9526</title>
<path fill="none" stroke="#58a066" d="M1408.41,-964.92C1470.59,-980.26 1525.67,-1015.86 1661.27,-1109.22"/>
<polygon fill="#58a066" stroke="#58a066" points="1659.27,-1112.1 1669.49,-1114.89 1663.25,-1106.34 1659.27,-1112.1"/>
</g>
<!-- 9838 -->
<g id="node22" class="node">
<title>9838</title>
<ellipse fill="none" stroke="#58a066" cx="1413.6" cy="-779.65" rx="156.09" ry="28.99"/>
<text text-anchor="middle" x="1413.6" y="-782.85" font-family="Times,serif" font-size="14.00" fill="gray">OSADLMatrix</text>
<text text-anchor="middle" x="1413.6" y="-766.35" font-family="Times,serif" font-size="14.00" fill="gray">c52f873d4ad6c9a2cf4cba1c5d1732ab</text>
</g>
<!-- 9838&#45;&gt;9526 -->
<g id="edge48" class="edge">
<title>9838&#45;&gt;9526</title>
<path fill="none" stroke="#58a066" d="M1458.05,-807.91C1549.88,-867.8 1568.62,-896.6 1684.65,-1105.51"/>
<polygon fill="#58a066" stroke="#58a066" points="1681.43,-1106.9 1689.34,-1113.94 1687.55,-1103.5 1681.43,-1106.9"/>
</g>
<!-- 10125 -->
<g id="node23" class="node">
<title>10125</title>
<ellipse fill="none" stroke="#deb256" cx="1116.71" cy="-542.87" rx="160.34" ry="28.99"/>
<text text-anchor="middle" x="1116.71" y="-546.07" font-family="Times,serif" font-size="14.00" fill="gray">FSF</text>
<text text-anchor="middle" x="1116.71" y="-529.57" font-family="Times,serif" font-size="14.00" fill="gray">bb4a8776b4bfd758d00aabd5eb581315</text>
</g>
<!-- 10125&#45;&gt;10126 -->
<g id="edge49" class="edge">
<title>10125&#45;&gt;10126</title>
<path fill="none" stroke="#deb256" d="M1173.91,-570.29C1278.09,-621.8 1309.86,-652.93 1506.27,-861.57"/>
<polygon fill="#deb256" stroke="#deb256" points="1503.48,-863.72 1512.89,-868.6 1508.58,-858.92 1503.48,-863.72"/>
</g>
<!-- 10127 -->
<g id="node25" class="node">
<title>10127</title>
<polygon fill="none" stroke="#deb256" points="1406.24,-461.54 1406.24,-476.45 1337.99,-486.99 1241.46,-486.99 1173.2,-476.45 1173.2,-461.54 1241.46,-450.99 1337.99,-450.99 1406.24,-461.54"/>
<polygon fill="none" stroke="#deb256" points="1410.24,-458.11 1410.24,-479.88 1338.29,-490.99 1241.15,-490.99 1169.2,-479.88 1169.2,-458.11 1241.15,-446.99 1338.29,-446.99 1410.24,-458.11"/>
<text text-anchor="middle" x="1289.72" y="-463.94" font-family="Times,serif" font-size="14.00">CommonPublicLicense10</text>
</g>
<!-- 10127&#45;&gt;10126 -->
<g id="edge50" class="edge">
<title>10127&#45;&gt;10126</title>
<path fill="none" stroke="#deb256" stroke-width="2" d="M1307.69,-491.31C1382.26,-584.27 1393.89,-605.62 1518.92,-859.62"/>
<polygon fill="#deb256" stroke="#deb256" stroke-width="2" points="1522.73,-867.35 1514.27,-860.36 1521.15,-865.27 1517.86,-858.6 1518.31,-858.38 1518.76,-858.15 1522.04,-864.83 1522.35,-856.39 1522.73,-867.35"/>
</g>
<!-- 10128 -->
<g id="node26" class="node">
<title>10128</title>
<polygon fill="none" stroke="black" points="1587.62,-1504.21 1587.62,-1519.12 1493.73,-1529.67 1360.94,-1529.67 1267.05,-1519.12 1267.05,-1504.21 1360.94,-1493.67 1493.73,-1493.67 1587.62,-1504.21"/>
<polygon fill="none" stroke="black" points="1591.62,-1500.63 1591.62,-1522.7 1493.95,-1533.67 1360.72,-1533.67 1263.05,-1522.7 1263.05,-1500.63 1360.72,-1489.67 1493.95,-1489.67 1591.62,-1500.63"/>
<text text-anchor="middle" x="1427.34" y="-1506.62" font-family="Times,serif" font-size="14.00">Common Public License Version 1.0</text>
</g>
<!-- 10128&#45;&gt;10126 -->
<g id="edge51" class="edge">
<title>10128&#45;&gt;10126</title>
<path fill="none" stroke="#deb256" stroke-width="2" d="M1423.22,-1489.55C1364.6,-1174.55 1365.53,-1156.39 1514.78,-923.15"/>
<polygon fill="#deb256" stroke="#deb256" stroke-width="2" points="1519.29,-916.09 1517.69,-926.94 1518.33,-918.52 1514.32,-924.79 1513.9,-924.52 1513.48,-924.25 1517.49,-917.98 1510.11,-922.09 1519.29,-916.09"/>
</g>
<!-- 10128&#45;&gt;36707 -->
<g id="edge52" class="edge">
<title>10128&#45;&gt;36707</title>
<path fill="none" stroke="#379469" stroke-dasharray="5,2" d="M1434.99,-1533.82C1531.53,-1813.37 1542.55,-1840.86 1636,-1935.18"/>
<polygon fill="#379469" stroke="#379469" points="1642.92,-1942.13 1632.68,-1938.22 1640.25,-1939.45 1635.87,-1935.04 1635.87,-1935.04 1635.87,-1935.04 1640.25,-1939.45 1639.06,-1931.87 1642.92,-1942.13"/>
</g>
<!-- 10128&#45;&gt;40551 -->
<g id="edge53" class="edge">
<title>10128&#45;&gt;40551</title>
<path fill="none" stroke="#00876c" stroke-dasharray="5,2" d="M1536.11,-1529.36C1817.37,-1574.11 1857.6,-1566.75 2039.69,-1462.86"/>
<polygon fill="#00876c" stroke="#00876c" points="2048.26,-1457.96 2041.81,-1466.83 2044.98,-1459.84 2039.58,-1462.93 2039.58,-1462.93 2039.58,-1462.93 2044.98,-1459.84 2037.34,-1459.02 2048.26,-1457.96"/>
</g>
<!-- 10128&#45;&gt;50456 -->
<g id="edge54" class="edge">
<title>10128&#45;&gt;50456</title>
<path fill="none" stroke="#b8bf62" stroke-width="2" d="M1439.18,-1533.95C1445.04,-1544.72 1449.68,-1552.59 1454.24,-1558.7"/>
<polygon fill="#b8bf62" stroke="#b8bf62" stroke-width="2" points="1459.91,-1565.18 1449.94,-1560.61 1457.85,-1563.58 1452.95,-1557.98 1453.33,-1557.65 1453.7,-1557.32 1458.6,-1562.92 1456.71,-1554.69 1459.91,-1565.18"/>
</g>
<!-- 51279 -->
<g id="node61" class="node">
<title>51279</title>
<polygon fill="none" stroke="#d43d51" points="918.12,-1439.42 918.12,-1454.33 806.7,-1464.88 649.13,-1464.88 537.72,-1454.33 537.72,-1439.42 649.13,-1428.88 806.7,-1428.88 918.12,-1439.42"/>
<polygon fill="none" stroke="#d43d51" points="922.12,-1435.78 922.12,-1457.97 806.89,-1468.88 648.94,-1468.88 533.72,-1457.97 533.72,-1435.78 648.94,-1424.88 806.89,-1424.88 922.12,-1435.78"/>
<text text-anchor="middle" x="727.92" y="-1441.83" font-family="Times,serif" font-size="14.00">hitachi:Common Public License Version 1.0</text>
</g>
<!-- 10128&#45;&gt;51279 -->
<g id="edge55" class="edge">
<title>10128&#45;&gt;51279</title>
<path fill="none" stroke="#d43d51" stroke-width="2" d="M1262.65,-1521.7C985.75,-1537.54 932.56,-1531.11 791.69,-1473.55"/>
<polygon fill="#d43d51" stroke="#d43d51" stroke-width="2" points="783.65,-1470.24 794.61,-1469.88 786.21,-1470.75 793.09,-1473.58 792.9,-1474.04 792.71,-1474.5 785.83,-1471.68 791.19,-1478.2 783.65,-1470.24"/>
</g>
<!-- 10128&#45;&gt;54269 -->
<g id="edge56" class="edge">
<title>10128&#45;&gt;54269</title>
<path fill="none" stroke="#98b561" stroke-width="2" d="M1440.46,-1533.92C1538.65,-1700.33 1556.93,-1727.32 1639.36,-1769.28"/>
<polygon fill="#98b561" stroke="#98b561" stroke-width="2" points="1647,-1773.11 1636.05,-1772.65 1644.49,-1772.41 1637.84,-1769.07 1638.06,-1768.63 1638.29,-1768.18 1644.94,-1771.51 1640.08,-1764.6 1647,-1773.11"/>
</g>
<!-- 14246 -->
<g id="node27" class="node">
<title>14246</title>
<ellipse fill="none" stroke="#dac767" cx="2096.93" cy="-2256.04" rx="159.28" ry="28.99"/>
<text text-anchor="middle" x="2096.93" y="-2259.24" font-family="Times,serif" font-size="14.00" fill="gray">ScancodeData</text>
<text text-anchor="middle" x="2096.93" y="-2242.74" font-family="Times,serif" font-size="14.00" fill="gray">5e1431be5eb69327c8452637e0cf4843</text>
</g>
<!-- 14246&#45;&gt;14247 -->
<g id="edge57" class="edge">
<title>14246&#45;&gt;14247</title>
<path fill="none" stroke="#dac767" d="M2092.14,-2226.65C2073.53,-2113.79 2065.5,-2090.08 1967.8,-1832.03"/>
<polygon fill="#dac767" stroke="#dac767" points="1971.19,-1831.09 1964.37,-1822.98 1964.64,-1833.57 1971.19,-1831.09"/>
</g>
<!-- 14247&#45;&gt;40551 -->
<g id="edge58" class="edge">
<title>14247&#45;&gt;40551</title>
<path fill="none" stroke="#00876c" stroke-dasharray="5,2" d="M1976.46,-1777.05C2075.05,-1672.71 2080.71,-1655.44 2087.05,-1468.4"/>
<polygon fill="#00876c" stroke="#00876c" points="2087.38,-1458.53 2091.54,-1468.68 2087.25,-1462.31 2087.05,-1468.53 2087.05,-1468.53 2087.05,-1468.53 2087.25,-1462.31 2082.55,-1468.38 2087.38,-1458.53"/>
</g>
<!-- 14247&#45;&gt;50456 -->
<g id="edge59" class="edge">
<title>14247&#45;&gt;50456</title>
<path fill="none" stroke="#b8bf62" stroke-width="2" d="M1871.53,-1793.76C1761.37,-1783.59 1722.77,-1758.32 1541.88,-1618.4"/>
<polygon fill="#b8bf62" stroke="#b8bf62" stroke-width="2" points="1535.09,-1613.15 1545.75,-1615.71 1537.42,-1614.32 1543.3,-1618.87 1542.99,-1619.27 1542.69,-1619.66 1536.81,-1615.11 1540.24,-1622.82 1535.09,-1613.15"/>
</g>
<!-- 14248 -->
<g id="node29" class="node">
<title>14248</title>
<polygon fill="none" stroke="black" points="1873.84,-1738.35 1873.84,-1753.26 1847.45,-1763.8 1810.12,-1763.8 1783.73,-1753.26 1783.73,-1738.35 1810.12,-1727.8 1847.45,-1727.8 1873.84,-1738.35"/>
<polygon fill="none" stroke="black" points="1877.84,-1735.64 1877.84,-1755.97 1848.22,-1767.8 1809.36,-1767.8 1779.73,-1755.97 1779.73,-1735.64 1809.36,-1723.8 1848.22,-1723.8 1877.84,-1735.64"/>
<text text-anchor="middle" x="1828.79" y="-1740.75" font-family="Times,serif" font-size="14.00">CPL 1.0</text>
</g>
<!-- 14248&#45;&gt;14247 -->
<g id="edge60" class="edge">
<title>14248&#45;&gt;14247</title>
<path fill="none" stroke="#dac767" stroke-width="2" d="M1857.48,-1764.45C1866.37,-1770.16 1873.86,-1774.86 1880.41,-1778.74"/>
<polygon fill="#dac767" stroke="#dac767" stroke-width="2" points="1887.87,-1782.99 1876.96,-1781.96 1885.4,-1782.16 1878.93,-1778.48 1879.18,-1778.04 1879.43,-1777.61 1885.89,-1781.29 1881.41,-1774.13 1887.87,-1782.99"/>
</g>
<!-- 14248&#45;&gt;36707 -->
<g id="edge61" class="edge">
<title>14248&#45;&gt;36707</title>
<path fill="none" stroke="#379469" stroke-dasharray="5,2" d="M1819.66,-1768.04C1772.97,-1881.57 1761.18,-1904.99 1710.14,-1938.58"/>
<polygon fill="#379469" stroke="#379469" points="1701.9,-1943.88 1707.88,-1934.69 1705.08,-1941.83 1710.31,-1938.47 1710.31,-1938.47 1710.31,-1938.47 1705.08,-1941.83 1712.74,-1942.26 1701.9,-1943.88"/>
</g>
<!-- 14248&#45;&gt;40551 -->
<g id="edge62" class="edge">
<title>14248&#45;&gt;40551</title>
<path fill="none" stroke="#00876c" stroke-dasharray="5,2" d="M1861.09,-1728.63C2008.92,-1649.63 2021.03,-1634.43 2077.26,-1467.5"/>
<polygon fill="#00876c" stroke="#00876c" points="2080.28,-1458.49 2081.36,-1469.4 2079.08,-1462.08 2077.1,-1467.97 2077.1,-1467.97 2077.1,-1467.97 2079.08,-1462.08 2072.83,-1466.54 2080.28,-1458.49"/>
</g>
<!-- 14248&#45;&gt;50456 -->
<g id="edge63" class="edge">
<title>14248&#45;&gt;50456</title>
<path fill="none" stroke="#b8bf62" stroke-width="2" d="M1779.43,-1742.93C1686.66,-1736.28 1662.69,-1721.9 1539.2,-1618.58"/>
<polygon fill="#b8bf62" stroke="#b8bf62" stroke-width="2" points="1532.78,-1613.21 1543.34,-1616.18 1535.07,-1614.47 1540.77,-1619.25 1540.45,-1619.63 1540.13,-1620.02 1534.43,-1615.24 1537.56,-1623.08 1532.78,-1613.21"/>
</g>
<!-- 26113 -->
<g id="node30" class="node">
<title>26113</title>
<ellipse fill="none" stroke="#e18745" cx="2418.35" cy="-2280.41" rx="153.97" ry="28.99"/>
<text text-anchor="middle" x="2418.35" y="-2283.61" font-family="Times,serif" font-size="14.00" fill="gray">Fossology</text>
<text text-anchor="middle" x="2418.35" y="-2267.11" font-family="Times,serif" font-size="14.00" fill="gray">6fb93b035e2d2521f75f1200ffbf30d8</text>
</g>
<!-- 26113&#45;&gt;26114 -->
<g id="edge64" class="edge">
<title>26113&#45;&gt;26114</title>
<path fill="none" stroke="#e18745" d="M2406.7,-2251.32C2363.12,-2143.15 2349.63,-2120.44 2197.38,-1882.81"/>
<polygon fill="#e18745" stroke="#e18745" points="2200.37,-1880.97 2192.02,-1874.44 2194.47,-1884.75 2200.37,-1880.97"/>
</g>
<!-- 28639 -->
<g id="node32" class="node">
<title>28639</title>
<ellipse fill="none" stroke="#e06f45" cx="2261" cy="-606.17" rx="162.99" ry="28.99"/>
<text text-anchor="middle" x="2261" y="-609.37" font-family="Times,serif" font-size="14.00" fill="gray">OrtLicenseCategorization</text>
<text text-anchor="middle" x="2261" y="-592.87" font-family="Times,serif" font-size="14.00" fill="gray">dd15d81887c458207d241de241757795</text>
</g>
<!-- 28639&#45;&gt;1331 -->
<g id="edge65" class="edge">
<title>28639&#45;&gt;1331</title>
<path fill="none" stroke="#e06f45" d="M2251.13,-635.28C2212.8,-747.34 2198.82,-768.62 2037.25,-978.12"/>
<polygon fill="#e06f45" stroke="#e06f45" points="2034.71,-975.68 2031.37,-985.74 2040.25,-979.96 2034.71,-975.68"/>
</g>
<!-- 35437 -->
<g id="node33" class="node">
<title>35437</title>
<ellipse fill="none" stroke="#e09d4b" cx="1847.8" cy="-599.45" rx="155.03" ry="28.99"/>
<text text-anchor="middle" x="1847.8" y="-602.65" font-family="Times,serif" font-size="14.00" fill="gray">OrtLicenseCategorization</text>
<text text-anchor="middle" x="1847.8" y="-586.15" font-family="Times,serif" font-size="14.00" fill="gray">f5dc5c5d04659afb216fd0ee0a27ca2b</text>
</g>
<!-- 35437&#45;&gt;1331 -->
<g id="edge66" class="edge">
<title>35437&#45;&gt;1331</title>
<path fill="none" stroke="#e09d4b" d="M1876.26,-628.15C1980.05,-733.65 1986.92,-756.12 2006.68,-975.7"/>
<polygon fill="#e09d4b" stroke="#e09d4b" points="2003.18,-975.83 2007.56,-985.48 2010.15,-975.21 2003.18,-975.83"/>
</g>
<!-- 36706 -->
<g id="node34" class="node">
<title>36706</title>
<ellipse fill="none" stroke="#379469" cx="1877.78" cy="-2394.6" rx="160.87" ry="28.99"/>
<text text-anchor="middle" x="1877.78" y="-2397.8" font-family="Times,serif" font-size="14.00" fill="gray">CavilLicenseChange</text>
<text text-anchor="middle" x="1877.78" y="-2381.3" font-family="Times,serif" font-size="14.00" fill="gray">72ee019d1028e3db889e8a553917ad1b</text>
</g>
<!-- 36706&#45;&gt;36707 -->
<g id="edge67" class="edge">
<title>36706&#45;&gt;36707</title>
<path fill="none" stroke="#379469" d="M1857.11,-2365.54C1793.25,-2275.17 1781.54,-2249 1679.62,-1998.15"/>
<polygon fill="#379469" stroke="#379469" points="1682.9,-1996.94 1675.9,-1988.99 1676.42,-1999.57 1682.9,-1996.94"/>
</g>
<!-- 36708 -->
<g id="node36" class="node">
<title>36708</title>
<polygon fill="none" stroke="#379469" points="1808.18,-2442.18 1808.18,-2457.09 1719.16,-2467.64 1593.26,-2467.64 1504.23,-2457.09 1504.23,-2442.18 1593.26,-2431.64 1719.16,-2431.64 1808.18,-2442.18"/>
<text text-anchor="middle" x="1656.21" y="-2444.59" font-family="Times,serif" font-size="14.00">CPL (Common Public License) v1</text>
</g>
<!-- 36708&#45;&gt;36707 -->
<g id="edge68" class="edge">
<title>36708&#45;&gt;36707</title>
<path fill="none" stroke="#379469" stroke-dasharray="5,2" d="M1657.92,-2431.24C1669.35,-2307.9 1669.62,-2290.3 1666.68,-1998.66"/>
<polygon fill="#379469" stroke="#379469" points="1666.58,-1988.94 1671.18,-1998.89 1666.62,-1992.72 1666.68,-1998.94 1666.68,-1998.94 1666.68,-1998.94 1666.62,-1992.72 1662.18,-1998.98 1666.58,-1988.94"/>
</g>
<!-- 36709 -->
<g id="node37" class="node">
<title>36709</title>
<polygon fill="none" stroke="#379469" points="1482.49,-2182.77 1482.49,-2197.68 1449.6,-2208.23 1403.1,-2208.23 1370.21,-2197.68 1370.21,-2182.77 1403.1,-2172.23 1449.6,-2172.23 1482.49,-2182.77"/>
<text text-anchor="middle" x="1426.35" y="-2185.18" font-family="Times,serif" font-size="14.00">CPL 1.0 ...</text>
</g>
<!-- 36709&#45;&gt;36707 -->
<g id="edge69" class="edge">
<title>36709&#45;&gt;36707</title>
<path fill="none" stroke="#379469" stroke-dasharray="5,2" d="M1462.18,-2175.84C1539.79,-2143.71 1555.85,-2125.99 1644.87,-1996.7"/>
<polygon fill="#379469" stroke="#379469" points="1650.44,-1988.62 1648.48,-1999.41 1648.29,-1991.73 1644.77,-1996.86 1644.77,-1996.86 1644.77,-1996.86 1648.29,-1991.73 1641.06,-1994.3 1650.44,-1988.62"/>
</g>
<!-- 36710 -->
<g id="node38" class="node">
<title>36710</title>
<polygon fill="none" stroke="black" points="1714.72,-1633.84 1714.72,-1648.75 1631.86,-1659.29 1514.68,-1659.29 1431.82,-1648.75 1431.82,-1633.84 1514.68,-1623.29 1631.86,-1623.29 1714.72,-1633.84"/>
<polygon fill="none" stroke="black" points="1718.72,-1630.31 1718.72,-1652.27 1632.12,-1663.29 1514.43,-1663.29 1427.82,-1652.27 1427.82,-1630.31 1514.43,-1619.29 1632.12,-1619.29 1718.72,-1630.31"/>
<text text-anchor="middle" x="1573.27" y="-1636.24" font-family="Times,serif" font-size="14.00">Common Public License &#45; v 1.0</text>
</g>
<!-- 36710&#45;&gt;36707 -->
<g id="edge70" class="edge">
<title>36710&#45;&gt;36707</title>
<path fill="none" stroke="#379469" stroke-dasharray="5,2" d="M1578.33,-1663.7C1618.9,-1843.32 1625.28,-1869.43 1652.32,-1933.03"/>
<polygon fill="#379469" stroke="#379469" points="1656.17,-1942.03 1648.1,-1934.61 1654.69,-1938.56 1652.24,-1932.84 1652.24,-1932.84 1652.24,-1932.84 1654.69,-1938.56 1656.37,-1931.07 1656.17,-1942.03"/>
</g>
<!-- 36710&#45;&gt;40551 -->
<g id="edge71" class="edge">
<title>36710&#45;&gt;40551</title>
<path fill="none" stroke="#00876c" stroke-dasharray="5,2" d="M1718.96,-1632.27C1894.86,-1618.33 1930.29,-1593.72 2058.37,-1465.04"/>
<polygon fill="#00876c" stroke="#00876c" points="2065.27,-1458.09 2061.42,-1468.35 2062.61,-1460.77 2058.23,-1465.18 2058.23,-1465.18 2058.23,-1465.18 2062.61,-1460.77 2055.03,-1462.01 2065.27,-1458.09"/>
</g>
<!-- 36710&#45;&gt;50456 -->
<g id="edge72" class="edge">
<title>36710&#45;&gt;50456</title>
<path fill="none" stroke="#b8bf62" stroke-width="2" d="M1527.97,-1619.2C1527.85,-1619.06 1527.72,-1618.92 1527.6,-1618.78"/>
<polygon fill="#b8bf62" stroke="#b8bf62" stroke-width="2" points="1523.15,-1613.53 1533.05,-1618.26 1525.19,-1615.17 1530,-1620.84 1529.62,-1621.16 1529.23,-1621.49 1524.43,-1615.81 1526.18,-1624.07 1523.15,-1613.53"/>
</g>
<!-- 36711 -->
<g id="node39" class="node">
<title>36711</title>
<polygon fill="none" stroke="#379469" points="1506.32,-2354.11 1506.32,-2369.03 1388.74,-2379.57 1222.45,-2379.57 1104.87,-2369.03 1104.87,-2354.11 1222.45,-2343.57 1388.74,-2343.57 1506.32,-2354.11"/>
<text text-anchor="middle" x="1305.6" y="-2356.52" font-family="Times,serif" font-size="14.00">Common Public License Version 1.0 (CPL1.0)</text>
</g>
<!-- 36711&#45;&gt;36707 -->
<g id="edge73" class="edge">
<title>36711&#45;&gt;36707</title>
<path fill="none" stroke="#379469" stroke-dasharray="5,2" d="M1339.51,-2343.27C1471.35,-2271.52 1488.12,-2250.1 1646.49,-1997.18"/>
<polygon fill="#379469" stroke="#379469" points="1651.78,-1988.73 1650.29,-1999.6 1649.77,-1991.94 1646.47,-1997.21 1646.47,-1997.21 1646.47,-1997.21 1649.77,-1991.94 1642.66,-1994.82 1651.78,-1988.73"/>
</g>
<!-- 36712 -->
<g id="node40" class="node">
<title>36712</title>
<polygon fill="none" stroke="black" points="1993.98,-1901.96 1993.98,-1916.87 1916.32,-1927.42 1806.48,-1927.42 1728.81,-1916.87 1728.81,-1901.96 1806.48,-1891.42 1916.32,-1891.42 1993.98,-1901.96"/>
<polygon fill="none" stroke="black" points="1997.98,-1898.47 1997.98,-1920.37 1916.59,-1931.42 1806.21,-1931.42 1724.81,-1920.37 1724.81,-1898.47 1806.21,-1887.42 1916.59,-1887.42 1997.98,-1898.47"/>
<text text-anchor="middle" x="1861.4" y="-1904.37" font-family="Times,serif" font-size="14.00">Common Public License v1.0</text>
</g>
<!-- 36712&#45;&gt;36707 -->
<g id="edge74" class="edge">
<title>36712&#45;&gt;36707</title>
<path fill="none" stroke="#379469" stroke-dasharray="5,2" d="M1832.06,-1931.89C1797.12,-1958.1 1778.58,-1968.47 1750.07,-1970.58"/>
<polygon fill="#379469" stroke="#379469" points="1740.28,-1970.95 1750.1,-1966.08 1744.06,-1970.81 1750.27,-1970.57 1750.27,-1970.57 1750.27,-1970.57 1744.06,-1970.81 1750.44,-1975.07 1740.28,-1970.95"/>
</g>
<!-- 36712&#45;&gt;40551 -->
<g id="edge75" class="edge">
<title>36712&#45;&gt;40551</title>
<path fill="none" stroke="#00876c" stroke-dasharray="5,2" d="M1887.09,-1887.14C2039.64,-1754.46 2047.3,-1735.86 2083.67,-1468.13"/>
<polygon fill="#00876c" stroke="#00876c" points="2084.97,-1458.47 2088.09,-1468.99 2084.47,-1462.22 2083.63,-1468.38 2083.63,-1468.38 2083.63,-1468.38 2084.47,-1462.22 2079.17,-1467.78 2084.97,-1458.47"/>
</g>
<!-- 36712&#45;&gt;50456 -->
<g id="edge76" class="edge">
<title>36712&#45;&gt;50456</title>
<path fill="none" stroke="#b8bf62" stroke-width="2" d="M1808.16,-1886.92C1704.55,-1841.55 1679.76,-1814.03 1528.55,-1620.4"/>
<polygon fill="#b8bf62" stroke="#b8bf62" stroke-width="2" points="1523.22,-1613.57 1532.92,-1618.68 1525.19,-1615.28 1529.77,-1621.14 1529.37,-1621.45 1528.98,-1621.76 1524.4,-1615.9 1525.82,-1624.22 1523.22,-1613.57"/>
</g>
<!-- 36713 -->
<g id="node41" class="node">
<title>36713</title>
<polygon fill="none" stroke="#379469" points="1636.39,-2398.15 1636.39,-2413.06 1542.5,-2423.6 1409.71,-2423.6 1315.82,-2413.06 1315.82,-2398.15 1409.71,-2387.6 1542.5,-2387.6 1636.39,-2398.15"/>
<text text-anchor="middle" x="1476.11" y="-2400.55" font-family="Times,serif" font-size="14.00">Common Public License v1.0 (CPL)</text>
</g>
<!-- 36713&#45;&gt;36707 -->
<g id="edge77" class="edge">
<title>36713&#45;&gt;36707</title>
<path fill="none" stroke="#379469" stroke-dasharray="5,2" d="M1490.07,-2387.26C1567.99,-2284.61 1575.27,-2266.38 1656.43,-1998.21"/>
<polygon fill="#379469" stroke="#379469" points="1659.25,-1988.91 1660.66,-1999.78 1658.15,-1992.53 1656.35,-1998.48 1656.35,-1998.48 1656.35,-1998.48 1658.15,-1992.53 1652.05,-1997.18 1659.25,-1988.91"/>
</g>
<!-- 40550 -->
<g id="node42" class="node">
<title>40550</title>
<ellipse fill="none" stroke="#00876c" cx="2282.81" cy="-878.46" rx="159.81" ry="28.99"/>
<text text-anchor="middle" x="2282.81" y="-881.66" font-family="Times,serif" font-size="14.00" fill="gray">MetaeffektLicense</text>
<text text-anchor="middle" x="2282.81" y="-865.16" font-family="Times,serif" font-size="14.00" fill="gray">66d48e418d507fb76e70a6cc4bd32792</text>
</g>
<!-- 40550&#45;&gt;40551 -->
<g id="edge78" class="edge">
<title>40550&#45;&gt;40551</title>
<path fill="none" stroke="#00876c" d="M2284.99,-907.8C2301.49,-1133.37 2294.77,-1152.05 2110.94,-1403.81"/>
<polygon fill="#00876c" stroke="#00876c" points="2108.29,-1401.5 2105.22,-1411.64 2113.94,-1405.63 2108.29,-1401.5"/>
</g>
<!-- 40552 -->
<g id="node44" class="node">
<title>40552</title>
<polygon fill="none" stroke="black" points="1744.46,-1297.45 1744.46,-1312.36 1714.5,-1322.9 1672.12,-1322.9 1642.16,-1312.36 1642.16,-1297.45 1672.12,-1286.9 1714.5,-1286.9 1744.46,-1297.45"/>
<polygon fill="none" stroke="black" points="1748.46,-1294.61 1748.46,-1315.19 1715.18,-1326.9 1671.44,-1326.9 1638.16,-1315.19 1638.16,-1294.61 1671.44,-1282.9 1715.18,-1282.9 1748.46,-1294.61"/>
<text text-anchor="middle" x="1693.31" y="-1299.85" font-family="Times,serif" font-size="14.00">CPL&#45;v1.0</text>
</g>
<!-- 40552&#45;&gt;40551 -->
<g id="edge79" class="edge">
<title>40552&#45;&gt;40551</title>
<path fill="none" stroke="#00876c" stroke-dasharray="5,2" d="M1735.83,-1320.12C1890.62,-1375.49 1944.76,-1394.6 1997.81,-1410.24"/>
<polygon fill="#00876c" stroke="#00876c" points="2007.26,-1413 1996.4,-1414.52 2003.63,-1411.94 1997.66,-1410.2 1997.66,-1410.2 1997.66,-1410.2 2003.63,-1411.94 1998.92,-1405.88 2007.26,-1413"/>
</g>
<!-- 40552&#45;&gt;50456 -->
<g id="edge80" class="edge">
<title>40552&#45;&gt;50456</title>
<path fill="none" stroke="#b8bf62" stroke-width="2" d="M1684.08,-1327.15C1618.01,-1486.27 1605.31,-1512.53 1543.34,-1560.29"/>
<polygon fill="#b8bf62" stroke="#b8bf62" stroke-width="2" points="1536.63,-1565.39 1541.86,-1555.76 1538.36,-1563.44 1544.29,-1558.94 1544.59,-1559.34 1544.89,-1559.74 1538.97,-1564.24 1547.31,-1562.93 1536.63,-1565.39"/>
</g>
<!-- 40553 -->
<g id="node45" class="node">
<title>40553</title>
<polygon fill="none" stroke="black" points="2264.34,-1546.55 2264.34,-1561.46 2163.96,-1572.01 2021.99,-1572.01 1921.61,-1561.46 1921.61,-1546.55 2021.99,-1536.01 2163.96,-1536.01 2264.34,-1546.55"/>
<polygon fill="none" stroke="black" points="2268.34,-1542.95 2268.34,-1565.06 2164.16,-1576.01 2021.78,-1576.01 1917.61,-1565.06 1917.61,-1542.95 2021.78,-1532.01 2164.16,-1532.01 2268.34,-1542.95"/>
<text text-anchor="middle" x="2092.97" y="-1548.96" font-family="Times,serif" font-size="14.00">Common Public License (CPL) &#45;&#45; V1.0</text>
</g>
<!-- 40553&#45;&gt;40551 -->
<g id="edge81" class="edge">
<title>40553&#45;&gt;40551</title>
<path fill="none" stroke="#00876c" stroke-dasharray="5,2" d="M2101.28,-1531.76C2108.81,-1509.6 2108.47,-1498.36 2099.05,-1468.04"/>
<polygon fill="#00876c" stroke="#00876c" points="2096.04,-1458.64 2103.37,-1466.79 2097.19,-1462.24 2099.09,-1468.17 2099.09,-1468.17 2099.09,-1468.17 2097.19,-1462.24 2094.8,-1469.54 2096.04,-1458.64"/>
</g>
<!-- 40553&#45;&gt;50456 -->
<g id="edge82" class="edge">
<title>40553&#45;&gt;50456</title>
<path fill="none" stroke="#b8bf62" stroke-width="2" d="M2048.38,-1576.48C1883.13,-1659.05 1846.11,-1664.35 1607.01,-1612.15"/>
<polygon fill="#b8bf62" stroke="#b8bf62" stroke-width="2" points="1598.59,-1610.31 1609.32,-1608.05 1601.2,-1610.37 1608.46,-1611.96 1608.36,-1612.45 1608.25,-1612.94 1600.99,-1611.35 1607.39,-1616.84 1598.59,-1610.31"/>
</g>
<!-- 40554 -->
<g id="node46" class="node">
<title>40554</title>
<polygon fill="none" stroke="black" points="1753.05,-1452.19 1753.05,-1467.1 1672.46,-1477.64 1558.49,-1477.64 1477.9,-1467.1 1477.9,-1452.19 1558.49,-1441.64 1672.46,-1441.64 1753.05,-1452.19"/>
<polygon fill="none" stroke="black" points="1757.05,-1448.68 1757.05,-1470.61 1672.72,-1481.64 1558.23,-1481.64 1473.9,-1470.61 1473.9,-1448.68 1558.23,-1437.64 1672.72,-1437.64 1757.05,-1448.68"/>
<text text-anchor="middle" x="1615.48" y="-1454.59" font-family="Times,serif" font-size="14.00">Common Public License v. 1.0</text>
</g>
<!-- 40554&#45;&gt;40551 -->
<g id="edge83" class="edge">
<title>40554&#45;&gt;40551</title>
<path fill="none" stroke="#00876c" stroke-dasharray="5,2" d="M1724.48,-1475.36C1894.59,-1499.04 1936.46,-1497.51 2025.57,-1461.61"/>
<polygon fill="#00876c" stroke="#00876c" points="2034.67,-1457.89 2027.12,-1465.84 2031.17,-1459.32 2025.41,-1461.68 2025.41,-1461.68 2025.41,-1461.68 2031.17,-1459.32 2023.71,-1457.51 2034.67,-1457.89"/>
</g>
<!-- 40554&#45;&gt;50456 -->
<g id="edge84" class="edge">
<title>40554&#45;&gt;50456</title>
<path fill="none" stroke="#b8bf62" stroke-width="2" d="M1602.43,-1482.06C1576.52,-1526.45 1564.25,-1545.93 1548.93,-1559.92"/>
<polygon fill="#b8bf62" stroke="#b8bf62" stroke-width="2" points="1542.44,-1565.29 1547.28,-1555.45 1544.1,-1563.27 1549.83,-1558.53 1550.15,-1558.92 1550.47,-1559.3 1544.73,-1564.04 1553.01,-1562.39 1542.44,-1565.29"/>
</g>
<!-- 40555 -->
<g id="node47" class="node">
<title>40555</title>
<polygon fill="none" stroke="#00876c" points="1949.65,-1066.23 1949.65,-1081.14 1926.17,-1091.69 1892.98,-1091.69 1869.5,-1081.14 1869.5,-1066.23 1892.98,-1055.69 1926.17,-1055.69 1949.65,-1066.23"/>
<text text-anchor="middle" x="1909.58" y="-1068.64" font-family="Times,serif" font-size="14.00">CPLv1</text>
</g>
<!-- 40555&#45;&gt;40551 -->
<g id="edge85" class="edge">
<title>40555&#45;&gt;40551</title>
<path fill="none" stroke="#00876c" stroke-dasharray="5,2" d="M1926.4,-1091.98C2068.66,-1246.74 2078.88,-1262.64 2086.43,-1401.39"/>
<polygon fill="#00876c" stroke="#00876c" points="2086.95,-1411.27 2081.93,-1401.53 2086.75,-1407.5 2086.43,-1401.29 2086.43,-1401.29 2086.43,-1401.29 2086.75,-1407.5 2090.92,-1401.05 2086.95,-1411.27"/>
</g>
<!-- 40556 -->
<g id="node48" class="node">
<title>40556</title>
<polygon fill="none" stroke="#00876c" points="2751.03,-1813.73 2751.03,-1828.65 2647.73,-1839.19 2501.64,-1839.19 2398.33,-1828.65 2398.33,-1813.73 2501.64,-1803.19 2647.73,-1803.19 2751.03,-1813.73"/>
<text text-anchor="middle" x="2574.68" y="-1816.14" font-family="Times,serif" font-size="14.00">https://opensource.org/licenses/cpl1.0.txt</text>
</g>
<!-- 40556&#45;&gt;40551 -->
<g id="edge86" class="edge">
<title>40556&#45;&gt;40551</title>
<path fill="none" stroke="#00876c" stroke-dasharray="5,2" d="M2556.79,-1802.97C2445.64,-1689.89 2426.5,-1674.9 2128.63,-1463.69"/>
<polygon fill="#00876c" stroke="#00876c" points="2120.73,-1458.08 2131.49,-1460.2 2123.81,-1460.27 2128.88,-1463.87 2128.88,-1463.87 2128.88,-1463.87 2123.81,-1460.27 2126.28,-1467.54 2120.73,-1458.08"/>
</g>
<!-- 40558 -->
<g id="node49" class="node">
<title>40558</title>
<polygon fill="none" stroke="#00876c" points="2885.38,-1198.22 2885.38,-1213.13 2770.4,-1223.68 2607.78,-1223.68 2492.8,-1213.13 2492.8,-1198.22 2607.78,-1187.68 2770.4,-1187.68 2885.38,-1198.22"/>
<text text-anchor="middle" x="2689.09" y="-1200.63" font-family="Times,serif" font-size="14.00">http://www.opensource.org/licenses/cpl1.0.txt</text>
</g>
<!-- 40558&#45;&gt;40551 -->
<g id="edge87" class="edge">
<title>40558&#45;&gt;40551</title>
<path fill="none" stroke="#00876c" stroke-dasharray="5,2" d="M2664.52,-1223.91C2528.59,-1324.46 2499.77,-1337.29 2186.97,-1411.62"/>
<polygon fill="#00876c" stroke="#00876c" points="2177.39,-1413.9 2186.08,-1407.21 2181.07,-1413.02 2187.12,-1411.59 2187.12,-1411.59 2187.12,-1411.59 2181.07,-1413.02 2188.16,-1415.97 2177.39,-1413.9"/>
</g>
<!-- 50455 -->
<g id="node52" class="node">
<title>50455</title>
<ellipse fill="none" stroke="#b8bf62" cx="1020.42" cy="-1960.89" rx="161.4" ry="28.99"/>
<text text-anchor="middle" x="1020.42" y="-1964.09" font-family="Times,serif" font-size="14.00" fill="gray">FossLicense</text>
<text text-anchor="middle" x="1020.42" y="-1947.59" font-family="Times,serif" font-size="14.00" fill="gray">ab0dd849707a9d0bb506197aae2b63bb</text>
</g>
<!-- 50455&#45;&gt;50456 -->
<g id="edge88" class="edge">
<title>50455&#45;&gt;50456</title>
<path fill="none" stroke="#b8bf62" d="M1081.11,-1933.65C1200.94,-1878.39 1236.52,-1846.61 1473.05,-1619.25"/>
<polygon fill="#b8bf62" stroke="#b8bf62" points="1475.31,-1621.93 1480.09,-1612.47 1470.46,-1616.88 1475.31,-1621.93"/>
</g>
<!-- 50457 -->
<g id="node54" class="node">
<title>50457</title>
<polygon fill="none" stroke="#b8bf62" points="1146.32,-1796.94 1146.32,-1811.85 1096.56,-1822.4 1026.19,-1822.4 976.43,-1811.85 976.43,-1796.94 1026.19,-1786.4 1096.56,-1786.4 1146.32,-1796.94"/>
<polygon fill="none" stroke="#b8bf62" points="1150.32,-1793.7 1150.32,-1815.1 1096.98,-1826.4 1025.77,-1826.4 972.43,-1815.1 972.43,-1793.7 1025.77,-1782.4 1096.98,-1782.4 1150.32,-1793.7"/>
<text text-anchor="middle" x="1061.37" y="-1799.35" font-family="Times,serif" font-size="14.00">scancode://cpl&#45;1.0</text>
</g>
<!-- 50457&#45;&gt;50456 -->
<g id="edge89" class="edge">
<title>50457&#45;&gt;50456</title>
<path fill="none" stroke="#b8bf62" stroke-width="2" d="M1142.5,-1791.65C1233.76,-1774.34 1276.63,-1747.5 1463.11,-1617.87"/>
<polygon fill="#b8bf62" stroke="#b8bf62" stroke-width="2" points="1470.1,-1613.01 1464.46,-1622.42 1468.28,-1614.89 1462.17,-1619.13 1461.89,-1618.72 1461.6,-1618.31 1467.71,-1614.07 1459.32,-1615.03 1470.1,-1613.01"/>
</g>
<!-- 50458 -->
<g id="node55" class="node">
<title>50458</title>
<polygon fill="none" stroke="#b8bf62" points="1058.98,-1734.6 1058.98,-1749.51 947.24,-1760.06 789.22,-1760.06 677.48,-1749.51 677.48,-1734.6 789.22,-1724.06 947.24,-1724.06 1058.98,-1734.6"/>
<polygon fill="none" stroke="#b8bf62" points="1062.98,-1730.96 1062.98,-1753.15 947.43,-1764.06 789.03,-1764.06 673.48,-1753.15 673.48,-1730.96 789.03,-1720.06 947.43,-1720.06 1062.98,-1730.96"/>
<text text-anchor="middle" x="868.23" y="-1737.01" font-family="Times,serif" font-size="14.00">Common Public License (CPL), Version 1.0</text>
</g>
<!-- 50458&#45;&gt;50456 -->
<g id="edge90" class="edge">
<title>50458&#45;&gt;50456</title>
<path fill="none" stroke="#b8bf62" stroke-width="2" d="M1063.34,-1748.63C1147.39,-1739.4 1233.88,-1704.71 1441.66,-1616.01"/>
<polygon fill="#b8bf62" stroke="#b8bf62" stroke-width="2" points="1449.73,-1612.56 1442.3,-1620.63 1447.57,-1614.03 1440.73,-1616.95 1440.53,-1616.49 1440.33,-1616.03 1447.17,-1613.11 1438.76,-1612.35 1449.73,-1612.56"/>
</g>
<!-- 50459 -->
<g id="node56" class="node">
<title>50459</title>
<polygon fill="none" stroke="#b8bf62" points="1111.32,-1431.25 1111.32,-1446.16 1064.81,-1456.7 999.03,-1456.7 952.52,-1446.16 952.52,-1431.25 999.03,-1420.7 1064.81,-1420.7 1111.32,-1431.25"/>
<polygon fill="none" stroke="#b8bf62" points="1115.32,-1428.05 1115.32,-1449.35 1065.26,-1460.7 998.58,-1460.7 948.52,-1449.35 948.52,-1428.05 998.58,-1416.7 1065.26,-1416.7 1115.32,-1428.05"/>
<text text-anchor="middle" x="1031.92" y="-1433.65" font-family="Times,serif" font-size="14.00">scancode:cpl&#45;1.0</text>
</g>
<!-- 50459&#45;&gt;50456 -->
<g id="edge91" class="edge">
<title>50459&#45;&gt;50456</title>
<path fill="none" stroke="#b8bf62" stroke-width="2" d="M1057.68,-1461.13C1156.1,-1546.41 1192.62,-1571.13 1311.35,-1581.2"/>
<polygon fill="#b8bf62" stroke="#b8bf62" stroke-width="2" points="1319.9,-1581.88 1309.57,-1585.57 1317.3,-1582.18 1309.89,-1581.59 1309.93,-1581.09 1309.97,-1580.59 1317.38,-1581.18 1310.29,-1576.6 1319.9,-1581.88"/>
</g>
<!-- 50460 -->
<g id="node57" class="node">
<title>50460</title>
<polygon fill="none" stroke="#b8bf62" points="1100.92,-1607.57 1100.92,-1622.48 1065.44,-1633.03 1015.26,-1633.03 979.78,-1622.48 979.78,-1607.57 1015.26,-1597.03 1065.44,-1597.03 1100.92,-1607.57"/>
<polygon fill="none" stroke="#b8bf62" points="1104.92,-1604.59 1104.92,-1625.47 1066.02,-1637.03 1014.68,-1637.03 975.78,-1625.47 975.78,-1604.59 1014.68,-1593.03 1066.02,-1593.03 1104.92,-1604.59"/>
<text text-anchor="middle" x="1040.35" y="-1609.98" font-family="Times,serif" font-size="14.00">osi:CPL&#45;1.0</text>
</g>
<!-- 50460&#45;&gt;50456 -->
<g id="edge92" class="edge">
<title>50460&#45;&gt;50456</title>
<path fill="none" stroke="#b8bf62" stroke-width="2" d="M1087.74,-1630.97C1200.25,-1667.8 1234.4,-1666.49 1417.1,-1614.44"/>
<polygon fill="#b8bf62" stroke="#b8bf62" stroke-width="2" points="1425.28,-1612.1 1416.9,-1619.17 1422.95,-1613.28 1415.8,-1615.33 1415.66,-1614.85 1415.53,-1614.37 1422.68,-1612.32 1414.43,-1610.52 1425.28,-1612.1"/>
</g>
<!-- 50958 -->
<g id="node58" class="node">
<title>50958</title>
<ellipse fill="none" stroke="#dac767" cx="2996" cy="-1958.9" rx="155.03" ry="28.99"/>
<text text-anchor="middle" x="2996" y="-1962.1" font-family="Times,serif" font-size="14.00" fill="gray">FOSSLight</text>
<text text-anchor="middle" x="2996" y="-1945.6" font-family="Times,serif" font-size="14.00" fill="gray">ec01d4e1763283b2fff653c50e09a6ee</text>
</g>
<!-- 50958&#45;&gt;50959 -->
<g id="edge93" class="edge">
<title>50958&#45;&gt;50959</title>
<path fill="none" stroke="#dac767" d="M2945.86,-1931C2843.84,-1874.35 2803.54,-1852.95 2533.94,-1710.93"/>
<polygon fill="#dac767" stroke="#dac767" points="2535.66,-1707.88 2525.18,-1706.32 2532.39,-1714.08 2535.66,-1707.88"/>
</g>
<!-- 51278 -->
<g id="node60" class="node">
<title>51278</title>
<ellipse fill="none" stroke="#d43d51" cx="153.31" cy="-1423.54" rx="153.44" ry="28.99"/>
<text text-anchor="middle" x="153.31" y="-1426.74" font-family="Times,serif" font-size="14.00" fill="gray">HitachiOpenLicense</text>
<text text-anchor="middle" x="153.31" y="-1410.24" font-family="Times,serif" font-size="14.00" fill="gray">1d76919e87f809f4f7173645f4ece1af</text>
</g>
<!-- 51278&#45;&gt;51279 -->
<g id="edge94" class="edge">
<title>51278&#45;&gt;51279</title>
<path fill="none" stroke="#d43d51" d="M268.79,-1442.93C331.52,-1451.24 389.75,-1452.82 521.91,-1450.86"/>
<polygon fill="#d43d51" stroke="#d43d51" points="521.77,-1454.37 531.72,-1450.71 521.67,-1447.37 521.77,-1454.37"/>
</g>
<!-- 54268 -->
<g id="node62" class="node">
<title>54268</title>
<ellipse fill="none" stroke="#98b561" cx="1645.99" cy="-2245.27" rx="157.15" ry="28.99"/>
<text text-anchor="middle" x="1645.99" y="-2248.47" font-family="Times,serif" font-size="14.00" fill="gray">EclipseLicense</text>
<text text-anchor="middle" x="1645.99" y="-2231.97" font-family="Times,serif" font-size="14.00" fill="gray">50f06736bef1f14eb89693768bc02e34</text>
</g>
<!-- 54268&#45;&gt;54269 -->
<g id="edge95" class="edge">
<title>54268&#45;&gt;54269</title>
<path fill="none" stroke="#98b561" d="M1653.1,-2216.13C1678.19,-2112.28 1679.98,-2087.42 1689.77,-1828.13"/>
<polygon fill="#98b561" stroke="#98b561" points="1693.26,-1828.45 1690.14,-1818.33 1686.27,-1828.19 1693.26,-1828.45"/>
</g>
</g>
</svg>
