<?xml version="1.0" encoding="UTF-8" standalone="no"?>
<!DOCTYPE svg PUBLIC "-//W3C//DTD SVG 1.1//EN"
 "http://www.w3.org/Graphics/SVG/1.1/DTD/svg11.dtd">
<!-- Generated by graphviz version 10.0.1 (0)
 -->
<!-- Pages: 1 -->
<svg width="2414pt" height="2217pt"
 viewBox="0.00 0.00 2414.00 2217.00" xmlns="http://www.w3.org/2000/svg" xmlns:xlink="http://www.w3.org/1999/xlink">
<g id="graph0" class="graph" transform="scale(1 1) rotate(0) translate(4 2213)">
<polygon fill="white" stroke="none" points="-4,4 -4,-2213 2410,-2213 2410,4 -4,4"/>
<!-- 5 -->
<g id="node1" class="node">
<title>5</title>
<text text-anchor="start" x="154.88" y="-1118.53" font-family="Times,serif" font-size="14.00">OSI: </text>
<text text-anchor="start" x="184.13" y="-1118.53" font-family="Times,serif" font-weight="bold" font-size="14.00" fill="#8b0000">Rejected</text>
</g>
<!-- 1546 -->
<g id="node2" class="node">
<title>1546</title>
<ellipse fill="none" stroke="#dac767" cx="542.72" cy="-1062.46" rx="157.68" ry="28.99"/>
<text text-anchor="middle" x="542.72" y="-1065.66" font-family="Times,serif" font-size="14.00" fill="gray">SPDXLicense</text>
<text text-anchor="middle" x="542.72" y="-1049.16" font-family="Times,serif" font-size="14.00" fill="gray">f6beec60bcea45c2b9db375ea0465064</text>
</g>
<!-- 5&#45;&gt;1546 -->
<g id="edge1" class="edge">
<title>5&#45;&gt;1546</title>
<path fill="none" stroke="#dac767" d="M242.38,-1108.49C286.39,-1096.08 317.22,-1090.21 398.69,-1079.86"/>
<polygon fill="#dac767" stroke="#dac767" points="398.99,-1083.35 408.47,-1078.63 398.11,-1076.4 398.99,-1083.35"/>
</g>
<!-- 1547 -->
<g id="node3" class="node">
<title>1547</title>
<polygon fill="none" stroke="black" points="1124.07,-1164.21 1124.07,-1179.12 1079.18,-1189.67 1015.69,-1189.67 970.8,-1179.12 970.8,-1164.21 1015.69,-1153.67 1079.18,-1153.67 1124.07,-1164.21"/>
<polygon fill="none" stroke="black" points="1128.07,-1161.04 1128.07,-1182.29 1079.64,-1193.67 1015.23,-1193.67 966.8,-1182.29 966.8,-1161.04 1015.23,-1149.67 1079.64,-1149.67 1128.07,-1161.04"/>
<polygon fill="none" stroke="black" points="1132.07,-1157.87 1132.07,-1185.46 1080.1,-1197.67 1014.76,-1197.67 962.8,-1185.46 962.8,-1157.87 1014.76,-1145.67 1080.1,-1145.67 1132.07,-1157.87"/>
<text text-anchor="middle" x="1047.43" y="-1166.62" font-family="Times,serif" font-size="14.00">spdx:Crossword</text>
</g>
<!-- 1546&#45;&gt;1547 -->
<g id="edge2" class="edge">
<title>1546&#45;&gt;1547</title>
<path fill="none" stroke="#dac767" d="M612.24,-1088.88C692.46,-1117.92 743,-1127.35 951.29,-1157.73"/>
<polygon fill="#dac767" stroke="#dac767" points="950.73,-1161.18 961.13,-1159.16 951.74,-1154.26 950.73,-1161.18"/>
</g>
<!-- 7087 -->
<g id="node13" class="node">
<title>7087</title>
<polygon fill="none" stroke="#e09d4b" points="985.61,-1062 985.61,-1076.91 935.52,-1087.46 864.7,-1087.46 814.61,-1076.91 814.61,-1062 864.7,-1051.46 935.52,-1051.46 985.61,-1062"/>
<polygon fill="none" stroke="#e09d4b" points="989.61,-1058.76 989.61,-1080.16 935.94,-1091.46 864.28,-1091.46 810.61,-1080.16 810.61,-1058.76 864.28,-1047.46 935.94,-1047.46 989.61,-1058.76"/>
<text text-anchor="middle" x="900.11" y="-1064.41" font-family="Times,serif" font-size="14.00">Fedora:Crossword</text>
</g>
<!-- 1547&#45;&gt;7087 -->
<g id="edge3" class="edge">
<title>1547&#45;&gt;7087</title>
<path fill="none" stroke="#e09d4b" stroke-width="2" d="M997.75,-1149.38C954.82,-1129.62 939.31,-1119.82 923.08,-1100.45"/>
<polygon fill="#e09d4b" stroke="#e09d4b" stroke-width="2" points="917.77,-1093.76 927.51,-1098.79 919.76,-1095.45 924.38,-1101.28 923.99,-1101.59 923.6,-1101.9 918.97,-1096.08 920.46,-1104.39 917.77,-1093.76"/>
</g>
<!-- 15967 -->
<g id="node19" class="node">
<title>15967</title>
<polygon fill="none" stroke="black" points="1155.6,-941 1155.6,-955.92 1101.63,-966.46 1025.29,-966.46 971.31,-955.92 971.31,-941 1025.29,-930.46 1101.63,-930.46 1155.6,-941"/>
<polygon fill="none" stroke="black" points="1159.6,-937.71 1159.6,-959.21 1102.01,-970.46 1024.9,-970.46 967.31,-959.21 967.31,-937.71 1024.9,-926.46 1102.01,-926.46 1159.6,-937.71"/>
<text text-anchor="middle" x="1063.46" y="-943.41" font-family="Times,serif" font-size="14.00">scancode:crossword</text>
</g>
<!-- 1547&#45;&gt;15967 -->
<g id="edge4" class="edge">
<title>1547&#45;&gt;15967</title>
<path fill="none" stroke="#deb256" stroke-width="2" d="M1053.88,-1145.51C1059.58,-1104.9 1065.33,-1026.71 1066.03,-982"/>
<polygon fill="#deb256" stroke="#deb256" stroke-width="2" points="1066.08,-973.3 1070.52,-983.33 1066.57,-975.87 1066.52,-983.3 1066.02,-983.3 1065.52,-983.3 1065.57,-975.86 1061.52,-983.28 1066.08,-973.3"/>
</g>
<!-- 45356 -->
<g id="node31" class="node">
<title>45356</title>
<polygon fill="none" stroke="#379469" points="1519.72,-1142.25 1519.72,-1157.16 1440.76,-1167.71 1329.09,-1167.71 1250.12,-1157.16 1250.12,-1142.25 1329.09,-1131.71 1440.76,-1131.71 1519.72,-1142.25"/>
<polygon fill="none" stroke="#379469" points="1523.72,-1138.75 1523.72,-1160.66 1441.03,-1171.71 1328.82,-1171.71 1246.12,-1160.66 1246.12,-1138.75 1328.82,-1127.71 1441.03,-1127.71 1523.72,-1138.75"/>
<text text-anchor="middle" x="1384.92" y="-1144.66" font-family="Times,serif" font-size="14.00">metaeffekt:Crossword License</text>
</g>
<!-- 1547&#45;&gt;45356 -->
<g id="edge5" class="edge">
<title>1547&#45;&gt;45356</title>
<path fill="none" stroke="#379469" stroke-width="2" d="M1111.87,-1190.58C1215.03,-1219.73 1243.82,-1218.05 1329.81,-1176.95"/>
<polygon fill="#379469" stroke="#379469" stroke-width="2" points="1337.54,-1173.22 1330.49,-1181.62 1335.44,-1174.79 1328.75,-1178.02 1328.53,-1177.57 1328.31,-1177.12 1335.01,-1173.89 1326.57,-1173.52 1337.54,-1173.22"/>
</g>
<!-- 1548 -->
<g id="node4" class="node">
<title>1548</title>
<polygon fill="none" stroke="black" points="1112.48,-1239.8 1112.48,-1254.72 1080.24,-1265.26 1034.66,-1265.26 1002.42,-1254.72 1002.42,-1239.8 1034.66,-1229.26 1080.24,-1229.26 1112.48,-1239.8"/>
<polygon fill="none" stroke="black" points="1116.48,-1236.9 1116.48,-1257.62 1080.88,-1269.26 1034.02,-1269.26 998.42,-1257.62 998.42,-1236.9 1034.02,-1225.26 1080.88,-1225.26 1116.48,-1236.9"/>
<text text-anchor="middle" x="1057.45" y="-1242.21" font-family="Times,serif" font-size="14.00">Crossword</text>
</g>
<!-- 1548&#45;&gt;1547 -->
<g id="edge6" class="edge">
<title>1548&#45;&gt;1547</title>
<path fill="none" stroke="black" stroke-width="2" d="M1045.35,-1224.94C1043.43,-1219.89 1042.61,-1215.13 1042.68,-1209.02"/>
<polygon fill="black" stroke="black" stroke-width="2" points="1043.3,-1200.48 1047.06,-1210.78 1043.61,-1203.07 1043.07,-1210.49 1042.57,-1210.45 1042.07,-1210.42 1042.62,-1203 1038.08,-1210.13 1043.3,-1200.48"/>
</g>
<!-- 1548&#45;&gt;7087 -->
<g id="edge7" class="edge">
<title>1548&#45;&gt;7087</title>
<path fill="none" stroke="#e09d4b" stroke-width="2" d="M1025.8,-1227.47C944.87,-1176.49 931.96,-1163.34 910.82,-1101.86"/>
<polygon fill="#e09d4b" stroke="#e09d4b" stroke-width="2" points="908.12,-1093.87 915.59,-1101.9 909.42,-1096.14 911.8,-1103.18 911.32,-1103.34 910.85,-1103.5 908.47,-1096.46 907.06,-1104.78 908.12,-1093.87"/>
</g>
<!-- 10406 -->
<g id="node16" class="node">
<title>10406</title>
<polygon fill="none" stroke="#00876c" points="1418.53,-1027.81 1418.53,-1042.73 1363.9,-1053.27 1286.65,-1053.27 1232.02,-1042.73 1232.02,-1027.81 1286.65,-1017.27 1363.9,-1017.27 1418.53,-1027.81"/>
<polygon fill="none" stroke="#00876c" points="1422.53,-1024.51 1422.53,-1046.03 1364.29,-1057.27 1286.27,-1057.27 1228.02,-1046.03 1228.02,-1024.51 1286.27,-1013.27 1364.29,-1013.27 1422.53,-1024.51"/>
<text text-anchor="middle" x="1325.28" y="-1030.22" font-family="Times,serif" font-size="14.00">BlueOak:Crossword</text>
</g>
<!-- 1548&#45;&gt;10406 -->
<g id="edge8" class="edge">
<title>1548&#45;&gt;10406</title>
<path fill="none" stroke="#00876c" stroke-width="2" d="M1100.79,-1231.27C1168.64,-1204.84 1190.23,-1184.54 1297.77,-1065.72"/>
<polygon fill="#00876c" stroke="#00876c" stroke-width="2" points="1303.34,-1059.55 1299.97,-1069.99 1301.99,-1061.79 1297,-1067.31 1296.63,-1066.97 1296.26,-1066.63 1301.25,-1061.12 1293.29,-1063.95 1303.34,-1059.55"/>
</g>
<!-- 1548&#45;&gt;15967 -->
<g id="edge9" class="edge">
<title>1548&#45;&gt;15967</title>
<path fill="none" stroke="black" stroke-width="2" d="M1049.1,-1224.81C1004.98,-1105.65 1003.84,-1089.58 1049.62,-980.95"/>
<polygon fill="black" stroke="black" stroke-width="2" points="1052.94,-973.11 1053.19,-984.07 1052.41,-975.66 1049.51,-982.51 1049.05,-982.31 1048.58,-982.12 1051.48,-975.27 1044.9,-980.56 1052.94,-973.11"/>
</g>
<!-- 34742 -->
<g id="node23" class="node">
<title>34742</title>
<polygon fill="none" stroke="#e18745" points="882.47,-1382.59 882.47,-1397.5 825.9,-1408.05 745.89,-1408.05 689.32,-1397.5 689.32,-1382.59 745.89,-1372.05 825.9,-1372.05 882.47,-1382.59"/>
<polygon fill="none" stroke="#e18745" points="886.47,-1379.27 886.47,-1400.82 826.27,-1412.05 745.53,-1412.05 685.32,-1400.82 685.32,-1379.27 745.53,-1368.05 826.27,-1368.05 886.47,-1379.27"/>
<text text-anchor="middle" x="785.9" y="-1385" font-family="Times,serif" font-size="14.00">fossology:Crossword</text>
</g>
<!-- 1548&#45;&gt;34742 -->
<g id="edge10" class="edge">
<title>1548&#45;&gt;34742</title>
<path fill="none" stroke="#e18745" stroke-width="2" d="M1024.46,-1266.66C919.94,-1328.08 884.86,-1348.22 846.65,-1365.23"/>
<polygon fill="#e18745" stroke="#e18745" stroke-width="2" points="839.06,-1368.54 846.43,-1360.42 841.21,-1367.06 848.03,-1364.09 848.23,-1364.55 848.43,-1365.01 841.61,-1367.98 850.03,-1368.67 839.06,-1368.54"/>
</g>
<!-- 41428 -->
<g id="node29" class="node">
<title>41428</title>
<polygon fill="none" stroke="#379469" points="978.84,-1517.53 978.84,-1532.45 933.63,-1542.99 869.68,-1542.99 824.47,-1532.45 824.47,-1517.53 869.68,-1506.99 933.63,-1506.99 978.84,-1517.53"/>
<polygon fill="none" stroke="#379469" points="982.84,-1514.36 982.84,-1535.62 934.09,-1546.99 869.22,-1546.99 820.47,-1535.62 820.47,-1514.36 869.22,-1502.99 934.09,-1502.99 982.84,-1514.36"/>
<text text-anchor="middle" x="901.66" y="-1519.94" font-family="Times,serif" font-size="14.00">cavil:Crossword</text>
</g>
<!-- 1548&#45;&gt;41428 -->
<g id="edge11" class="edge">
<title>1548&#45;&gt;41428</title>
<path fill="none" stroke="#379469" stroke-width="2" d="M1043.58,-1269.55C954.95,-1411.98 940.99,-1435.21 915.85,-1492.26"/>
<polygon fill="#379469" stroke="#379469" stroke-width="2" points="912.33,-1500.29 912.22,-1489.33 912.9,-1497.75 915.88,-1490.93 916.34,-1491.13 916.8,-1491.33 913.82,-1498.15 920.46,-1492.94 912.33,-1500.29"/>
</g>
<!-- 1548&#45;&gt;45356 -->
<g id="edge12" class="edge">
<title>1548&#45;&gt;45356</title>
<path fill="none" stroke="#379469" stroke-dasharray="5,2" d="M1116.88,-1253.15C1224.01,-1262.6 1248.65,-1253.31 1346.95,-1178.77"/>
<polygon fill="#379469" stroke="#379469" points="1354.77,-1172.82 1349.54,-1182.46 1351.76,-1175.11 1346.81,-1178.88 1346.81,-1178.88 1346.81,-1178.88 1351.76,-1175.11 1344.09,-1175.3 1354.77,-1172.82"/>
</g>
<!-- 1549 -->
<g id="node5" class="node">
<title>1549</title>
<polygon fill="none" stroke="black" points="1195.06,-1311.47 1195.06,-1326.38 1143.03,-1336.93 1069.45,-1336.93 1017.42,-1326.38 1017.42,-1311.47 1069.45,-1300.93 1143.03,-1300.93 1195.06,-1311.47"/>
<polygon fill="none" stroke="black" points="1199.06,-1308.2 1199.06,-1329.65 1143.43,-1340.93 1069.05,-1340.93 1013.42,-1329.65 1013.42,-1308.2 1069.05,-1296.93 1143.43,-1296.93 1199.06,-1308.2"/>
<text text-anchor="middle" x="1106.24" y="-1313.88" font-family="Times,serif" font-size="14.00">Crossword License</text>
</g>
<!-- 1549&#45;&gt;1547 -->
<g id="edge13" class="edge">
<title>1549&#45;&gt;1547</title>
<path fill="none" stroke="#dac767" stroke-width="2" d="M1084.35,-1296.83C1060.62,-1271.57 1055.57,-1257.72 1050.75,-1209.06"/>
<polygon fill="#dac767" stroke="#dac767" stroke-width="2" points="1049.95,-1200.56 1055.37,-1210.1 1050.69,-1203.07 1051.39,-1210.47 1050.89,-1210.52 1050.39,-1210.57 1049.69,-1203.16 1046.41,-1210.94 1049.95,-1200.56"/>
</g>
<!-- 1549&#45;&gt;7087 -->
<g id="edge14" class="edge">
<title>1549&#45;&gt;7087</title>
<path fill="none" stroke="#e09d4b" stroke-dasharray="5,2" d="M1069.5,-1296.6C954.65,-1226.3 942,-1210.74 909.83,-1102.61"/>
<polygon fill="#e09d4b" stroke="#e09d4b" points="906.99,-1093.03 914.14,-1101.34 908.06,-1096.65 909.83,-1102.62 909.83,-1102.62 909.83,-1102.62 908.06,-1096.65 905.51,-1103.89 906.99,-1093.03"/>
</g>
<!-- 1549&#45;&gt;10406 -->
<g id="edge15" class="edge">
<title>1549&#45;&gt;10406</title>
<path fill="none" stroke="#00876c" stroke-width="2" d="M1143.87,-1296.71C1224.26,-1248.02 1237.88,-1225.96 1310.44,-1067.69"/>
<polygon fill="#00876c" stroke="#00876c" stroke-width="2" points="1314.06,-1059.79 1313.99,-1070.75 1313.45,-1062.32 1310.35,-1069.09 1309.9,-1068.88 1309.44,-1068.67 1312.54,-1061.91 1305.81,-1067 1314.06,-1059.79"/>
</g>
<!-- 1549&#45;&gt;15967 -->
<g id="edge16" class="edge">
<title>1549&#45;&gt;15967</title>
<path fill="none" stroke="#deb256" stroke-width="2" d="M1093.66,-1296.46C1017.47,-1159.95 1014.86,-1143.67 1055.13,-981.73"/>
<polygon fill="#deb256" stroke="#deb256" stroke-width="2" points="1057.25,-973.21 1059.2,-984 1057.12,-975.82 1055.32,-983.04 1054.83,-982.92 1054.35,-982.79 1056.15,-975.58 1050.47,-981.83 1057.25,-973.21"/>
</g>
<!-- 1549&#45;&gt;34742 -->
<g id="edge17" class="edge">
<title>1549&#45;&gt;34742</title>
<path fill="none" stroke="#e18745" stroke-width="2" d="M1055.94,-1338.63C974.94,-1370.22 933.12,-1385.38 897.65,-1391.39"/>
<polygon fill="#e18745" stroke="#e18745" stroke-width="2" points="889.22,-1392.62 898.47,-1386.73 891.68,-1391.76 899.04,-1390.68 899.12,-1391.18 899.19,-1391.67 891.83,-1392.75 899.77,-1395.63 889.22,-1392.62"/>
</g>
<!-- 1549&#45;&gt;45356 -->
<g id="edge18" class="edge">
<title>1549&#45;&gt;45356</title>
<path fill="none" stroke="#379469" stroke-width="2" d="M1189.5,-1305.85C1263.44,-1291.14 1286.92,-1269.61 1359.75,-1180.63"/>
<polygon fill="#379469" stroke="#379469" stroke-width="2" points="1365.18,-1173.98 1362.34,-1184.57 1363.95,-1176.28 1359.24,-1182.04 1358.86,-1181.73 1358.47,-1181.41 1363.17,-1175.65 1355.37,-1178.88 1365.18,-1173.98"/>
</g>
<!-- 66944 -->
<g id="node33" class="node">
<title>66944</title>
<polygon fill="none" stroke="#00876c" points="1451.83,-1311.15 1451.83,-1326.06 1387.15,-1336.61 1295.67,-1336.61 1230.98,-1326.06 1230.98,-1311.15 1295.67,-1300.61 1387.15,-1300.61 1451.83,-1311.15"/>
<polygon fill="none" stroke="#00876c" points="1455.83,-1307.75 1455.83,-1329.46 1387.47,-1340.61 1295.34,-1340.61 1226.98,-1329.46 1226.98,-1307.75 1295.34,-1296.61 1387.47,-1296.61 1455.83,-1307.75"/>
<text text-anchor="middle" x="1341.41" y="-1313.56" font-family="Times,serif" font-size="14.00">spdx:Crossword License</text>
</g>
<!-- 1549&#45;&gt;66944 -->
<g id="edge19" class="edge">
<title>1549&#45;&gt;66944</title>
<path fill="none" stroke="#00876c" stroke-width="2" d="M1158.3,-1338.4C1211.22,-1357.1 1234.11,-1358.87 1278.27,-1343.65"/>
<polygon fill="#00876c" stroke="#00876c" stroke-width="2" points="1286.39,-1340.72 1278.5,-1348.35 1284.14,-1342.06 1277.15,-1344.58 1276.98,-1344.11 1276.81,-1343.64 1283.8,-1341.12 1275.45,-1339.88 1286.39,-1340.72"/>
</g>
<!-- 77112 -->
<g id="node35" class="node">
<title>77112</title>
<polygon fill="none" stroke="#e09d4b" points="1311.59,-1741.96 1311.59,-1756.87 1238.79,-1767.41 1135.84,-1767.41 1063.04,-1756.87 1063.04,-1741.96 1135.84,-1731.41 1238.79,-1731.41 1311.59,-1741.96"/>
<polygon fill="none" stroke="#e09d4b" points="1315.59,-1738.49 1315.59,-1760.33 1239.08,-1771.41 1135.55,-1771.41 1059.04,-1760.33 1059.04,-1738.49 1135.55,-1727.41 1239.08,-1727.41 1315.59,-1738.49"/>
<text text-anchor="middle" x="1187.32" y="-1744.36" font-family="Times,serif" font-size="14.00">tldr&#45;title:Crossword License</text>
</g>
<!-- 1549&#45;&gt;77112 -->
<g id="edge20" class="edge">
<title>1549&#45;&gt;77112</title>
<path fill="none" stroke="#e09d4b" stroke-width="2" d="M1108.41,-1341.36C1132.86,-1594.41 1136.25,-1621.17 1174.11,-1716.56"/>
<polygon fill="#e09d4b" stroke="#e09d4b" stroke-width="2" points="1177.36,-1724.69 1169.47,-1717.08 1175.94,-1722.5 1173.18,-1715.59 1173.65,-1715.41 1174.11,-1715.22 1176.87,-1722.13 1177.83,-1713.74 1177.36,-1724.69"/>
</g>
<!-- 1550 -->
<g id="node6" class="node">
<title>1550</title>
<text text-anchor="middle" x="194.35" y="-918.54" font-family="Times,serif" font-size="14.00">$TEXT</text>
</g>
<!-- 1550&#45;&gt;1546 -->
<g id="edge21" class="edge">
<title>1550&#45;&gt;1546</title>
<path fill="none" stroke="#dac767" d="M222.53,-940.31C285.3,-977.16 311.51,-988.14 452.37,-1033.53"/>
<polygon fill="#dac767" stroke="#dac767" points="451.13,-1036.81 461.72,-1036.54 453.27,-1030.15 451.13,-1036.81"/>
</g>
<!-- 1551 -->
<g id="node7" class="node">
<title>1551</title>
<text text-anchor="middle" x="28.83" y="-854.62" font-family="Times,serif" font-size="14.00">$TEXT</text>
</g>
<!-- 1551&#45;&gt;1550 -->
<g id="edge22" class="edge">
<title>1551&#45;&gt;1550</title>
<path fill="none" stroke="#dac767" d="M57.17,-874.24C79.09,-884.92 97.59,-891.58 155.18,-910.66"/>
<polygon fill="#dac767" stroke="#dac767" points="153.96,-913.94 164.55,-913.76 156.16,-907.3 153.96,-913.94"/>
</g>
<!-- 1552 -->
<g id="node8" class="node">
<title>1552</title>
<text text-anchor="middle" x="568.8" y="-1134.35" font-family="Times,serif" font-size="14.00">https://fedoraproject.org/wiki/Licensing/Crossword</text>
</g>
<!-- 1552&#45;&gt;1546 -->
<g id="edge23" class="edge">
<title>1552&#45;&gt;1546</title>
<path fill="none" stroke="#dac767" d="M555.47,-1121.59C549.88,-1113.82 546.33,-1108.08 544.18,-1102.53"/>
<polygon fill="#dac767" stroke="#dac767" points="547.65,-1102.01 541.96,-1093.08 540.84,-1103.61 547.65,-1102.01"/>
</g>
<!-- 7086 -->
<g id="node12" class="node">
<title>7086</title>
<ellipse fill="none" stroke="#e09d4b" cx="832.57" cy="-722.7" rx="156.62" ry="28.99"/>
<text text-anchor="middle" x="832.57" y="-725.9" font-family="Times,serif" font-size="14.00" fill="gray">FedoraEntry</text>
<text text-anchor="middle" x="832.57" y="-709.4" font-family="Times,serif" font-size="14.00" fill="gray">3135b8b0bf35567f4e15443cd034d4ff</text>
</g>
<!-- 1552&#45;&gt;7086 -->
<g id="edge24" class="edge">
<title>1552&#45;&gt;7086</title>
<path fill="none" stroke="#e09d4b" d="M571.67,-1121.54C604.93,-915.28 612.17,-896.23 787.15,-758.32"/>
<polygon fill="#e09d4b" stroke="#e09d4b" points="789.27,-761.1 794.96,-752.17 784.94,-755.6 789.27,-761.1"/>
</g>
<!-- 34741 -->
<g id="node22" class="node">
<title>34741</title>
<ellipse fill="none" stroke="#e18745" cx="355.56" cy="-1511.62" rx="157.15" ry="28.99"/>
<text text-anchor="middle" x="355.56" y="-1514.82" font-family="Times,serif" font-size="14.00" fill="gray">Fossology</text>
<text text-anchor="middle" x="355.56" y="-1498.32" font-family="Times,serif" font-size="14.00" fill="gray">f88d16df9d93d7a75dda2f91ddc155e7</text>
</g>
<!-- 1552&#45;&gt;34741 -->
<g id="edge25" class="edge">
<title>1552&#45;&gt;34741</title>
<path fill="none" stroke="#e18745" d="M552.68,-1157.38C396.14,-1332.1 380.89,-1352.25 361.78,-1471.23"/>
<polygon fill="#e18745" stroke="#e18745" points="358.37,-1470.37 360.27,-1480.79 365.29,-1471.46 358.37,-1470.37"/>
</g>
<!-- 5550 -->
<g id="node9" class="node">
<title>5550</title>
<text text-anchor="middle" x="1362.61" y="-469.87" font-family="Times,serif" font-size="14.00">LicenseType Permissive</text>
</g>
<!-- 10405 -->
<g id="node15" class="node">
<title>10405</title>
<ellipse fill="none" stroke="#00876c" cx="1649.52" cy="-682.54" rx="158.22" ry="28.99"/>
<text text-anchor="middle" x="1649.52" y="-685.74" font-family="Times,serif" font-size="14.00" fill="gray">BlueOakCouncil</text>
<text text-anchor="middle" x="1649.52" y="-669.24" font-family="Times,serif" font-size="14.00" fill="gray">3362bf223106dcb4938db1060f40cf14</text>
</g>
<!-- 5550&#45;&gt;10405 -->
<g id="edge26" class="edge">
<title>5550&#45;&gt;10405</title>
<path fill="none" stroke="#00876c" d="M1435.95,-492.9C1533.34,-518.72 1554.88,-539.29 1624.31,-644.14"/>
<polygon fill="#00876c" stroke="#00876c" points="1621.24,-645.85 1629.67,-652.26 1627.08,-641.99 1621.24,-645.85"/>
</g>
<!-- 15966 -->
<g id="node18" class="node">
<title>15966</title>
<ellipse fill="none" stroke="#deb256" cx="905.95" cy="-485.53" rx="157.15" ry="28.99"/>
<text text-anchor="middle" x="905.95" y="-488.73" font-family="Times,serif" font-size="14.00" fill="gray">ScancodeData</text>
<text text-anchor="middle" x="905.95" y="-472.23" font-family="Times,serif" font-size="14.00" fill="gray">4a3ac9b53f339dd5a77cc69de3f4951d</text>
</g>
<!-- 5550&#45;&gt;15966 -->
<g id="edge27" class="edge">
<title>5550&#45;&gt;15966</title>
<path fill="none" stroke="#deb256" d="M1312.4,-456.98C1148.58,-399.01 1115.05,-396.22 978.33,-454.04"/>
<polygon fill="#deb256" stroke="#deb256" points="977.1,-450.76 969.27,-457.9 979.84,-457.2 977.1,-450.76"/>
</g>
<!-- 6592 -->
<g id="node10" class="node">
<title>6592</title>
<text text-anchor="middle" x="1117.19" y="-479.02" font-family="Times,serif" font-size="14.00">[&quot;allowed&quot;]</text>
</g>
<!-- 6592&#45;&gt;7086 -->
<g id="edge28" class="edge">
<title>6592&#45;&gt;7086</title>
<path fill="none" stroke="#e09d4b" d="M1077.5,-496.01C954.16,-533.75 937.03,-548.82 855.61,-684.18"/>
<polygon fill="#e09d4b" stroke="#e09d4b" points="852.82,-682.03 850.67,-692.4 858.82,-685.63 852.82,-682.03"/>
</g>
<!-- 6593 -->
<g id="node11" class="node">
<title>6593</title>
<text text-anchor="start" x="1082.92" y="-419.28" font-family="Times,serif" font-size="14.00">Fedora: </text>
<text text-anchor="start" x="1127.92" y="-419.28" font-family="Times,serif" font-weight="bold" font-size="14.00" fill="#228b22">allowed</text>
<text text-anchor="start" x="919.05" y="-405.28" font-family="Times,serif" font-size="14.00">A license is allowed if Fedora determines that the license is a free software /</text>
<text text-anchor="start" x="913.8" y="-391.28" font-family="Times,serif" font-size="14.00">open source license. At a high level, the inquiry involves determining whether</text>
<text text-anchor="start" x="912.67" y="-377.28" font-family="Times,serif" font-size="14.00">the license provides software freedom, and (equivalently) making sure that the</text>
<text text-anchor="start" x="922.8" y="-363.28" font-family="Times,serif" font-size="14.00">license does not place burdens on users&#39; exercise of its permissions that are</text>
<text text-anchor="start" x="922.42" y="-349.28" font-family="Times,serif" font-size="14.00">inconsistent with evolving community norms and traditions around what is</text>
<text text-anchor="start" x="914.17" y="-335.28" font-family="Times,serif" font-size="14.00">acceptable in a free software / open source license. See below for more on the</text>
<text text-anchor="start" x="1034.17" y="-321.28" font-family="Times,serif" font-size="14.00">history of Fedora licensing policy.</text>
</g>
<!-- 6593&#45;&gt;6592 -->
<g id="edge29" class="edge">
<title>6593&#45;&gt;6592</title>
<path fill="none" stroke="#e09d4b" d="M1119.01,-435.15C1118.75,-440.79 1118.49,-447.27 1118.21,-454.86"/>
<polygon fill="#e09d4b" stroke="#e09d4b" points="1114.71,-454.73 1117.85,-464.85 1121.71,-454.98 1114.71,-454.73"/>
</g>
<!-- 7086&#45;&gt;7087 -->
<g id="edge30" class="edge">
<title>7086&#45;&gt;7087</title>
<path fill="none" stroke="#e09d4b" d="M826.98,-751.94C808.03,-853.68 812.8,-873.01 885.44,-1036.5"/>
<polygon fill="#e09d4b" stroke="#e09d4b" points="882.21,-1037.86 889.47,-1045.58 888.61,-1035.02 882.21,-1037.86"/>
</g>
<!-- 10364 -->
<g id="node14" class="node">
<title>10364</title>
<text text-anchor="start" x="2116.38" y="-495.85" font-family="Times,serif" font-size="14.00">BlueOakCouncil: </text>
<text text-anchor="start" x="2214.63" y="-495.85" font-family="Times,serif" font-weight="bold" font-size="14.00" fill="#8b0000">Lead</text>
<text text-anchor="start" x="1961.88" y="-481.85" font-family="Times,serif" font-size="14.00">These licenses lack one or more essential elements of permissive open software</text>
<text text-anchor="start" x="1972.76" y="-467.85" font-family="Times,serif" font-size="14.00">licenses or impose unusually burdensome requirements. &#160;Many use unclear,</text>
<text text-anchor="start" x="2092.01" y="-453.85" font-family="Times,serif" font-size="14.00">jocular, or incomplete language.</text>
</g>
<!-- 10364&#45;&gt;10405 -->
<g id="edge31" class="edge">
<title>10364&#45;&gt;10405</title>
<path fill="none" stroke="#00876c" d="M2038.57,-512.04C1970.5,-532.39 1898.3,-565.24 1717.89,-650.28"/>
<polygon fill="#00876c" stroke="#00876c" points="1716.46,-647.08 1708.91,-654.51 1719.44,-653.42 1716.46,-647.08"/>
</g>
<!-- 10405&#45;&gt;10406 -->
<g id="edge32" class="edge">
<title>10405&#45;&gt;10406</title>
<path fill="none" stroke="#00876c" d="M1626.64,-711.54C1561.26,-794.09 1540.2,-816.32 1355.11,-1004.88"/>
<polygon fill="#00876c" stroke="#00876c" points="1352.88,-1002.15 1348.38,-1011.74 1357.88,-1007.06 1352.88,-1002.15"/>
</g>
<!-- 10407 -->
<g id="node17" class="node">
<title>10407</title>
<text text-anchor="middle" x="1965.3" y="-374.51" font-family="Times,serif" font-size="14.00">https://spdx.org/licenses/Crossword.html</text>
</g>
<!-- 10407&#45;&gt;10405 -->
<g id="edge33" class="edge">
<title>10407&#45;&gt;10405</title>
<path fill="none" stroke="#00876c" d="M1947.16,-397.09C1874.98,-466.86 1857.91,-483.23 1687.97,-645.76"/>
<polygon fill="#00876c" stroke="#00876c" points="1685.67,-643.13 1680.86,-652.57 1690.5,-648.19 1685.67,-643.13"/>
</g>
<!-- 15966&#45;&gt;15967 -->
<g id="edge34" class="edge">
<title>15966&#45;&gt;15967</title>
<path fill="none" stroke="#deb256" d="M912.11,-514.75C936.37,-628.8 945.06,-652.59 1050.27,-915.5"/>
<polygon fill="#deb256" stroke="#deb256" points="1047.01,-916.78 1053.97,-924.76 1053.51,-914.18 1047.01,-916.78"/>
</g>
<!-- 15967&#45;&gt;1547 -->
<g id="edge35" class="edge">
<title>15967&#45;&gt;1547</title>
<path fill="none" stroke="#00876c" stroke-width="2" d="M1057.57,-970.78C1051.86,-1008.99 1045.93,-1087.3 1044.93,-1134.06"/>
<polygon fill="#00876c" stroke="#00876c" stroke-width="2" points="1044.82,-1142.79 1040.45,-1132.73 1044.35,-1140.22 1044.45,-1132.78 1044.95,-1132.79 1045.45,-1132.8 1045.35,-1140.23 1049.45,-1132.85 1044.82,-1142.79"/>
</g>
<!-- 15967&#45;&gt;45356 -->
<g id="edge36" class="edge">
<title>15967&#45;&gt;45356</title>
<path fill="none" stroke="#379469" stroke-dasharray="5,2" d="M1146.07,-962.34C1246.82,-981.78 1270.98,-1004.23 1360.73,-1118.73"/>
<polygon fill="#379469" stroke="#379469" points="1366.85,-1126.54 1357.14,-1121.43 1364.52,-1123.56 1360.68,-1118.66 1360.68,-1118.66 1360.68,-1118.66 1364.52,-1123.56 1364.23,-1115.89 1366.85,-1126.54"/>
</g>
<!-- 15968 -->
<g id="node20" class="node">
<title>15968</title>
<text text-anchor="middle" x="841.52" y="-12.88" font-family="Times,serif" font-size="14.00">https://fedoraproject.org/wiki/Licensing/Crossword</text>
</g>
<!-- 15968&#45;&gt;15966 -->
<g id="edge37" class="edge">
<title>15968&#45;&gt;15966</title>
<path fill="none" stroke="#deb256" d="M841.31,-35.56C839.91,-158.38 842.27,-175.77 897.66,-445.27"/>
<polygon fill="#deb256" stroke="#deb256" points="894.17,-445.63 899.61,-454.72 901.02,-444.22 894.17,-445.63"/>
</g>
<!-- 15969 -->
<g id="node21" class="node">
<title>15969</title>
<text text-anchor="middle" x="739.71" y="-199.74" font-family="Times,serif" font-size="14.00">$TEXT</text>
</g>
<!-- 15969&#45;&gt;15966 -->
<g id="edge38" class="edge">
<title>15969&#45;&gt;15966</title>
<path fill="none" stroke="#deb256" d="M751.44,-222.65C791.05,-283.06 800.96,-299.87 883.95,-446.62"/>
<polygon fill="#deb256" stroke="#deb256" points="880.8,-448.17 888.77,-455.16 886.9,-444.73 880.8,-448.17"/>
</g>
<!-- 34741&#45;&gt;34742 -->
<g id="edge39" class="edge">
<title>34741&#45;&gt;34742</title>
<path fill="none" stroke="#e18745" d="M475.22,-1492.49C526.49,-1480.75 585.34,-1460.79 719.72,-1413.42"/>
<polygon fill="#e18745" stroke="#e18745" points="720.68,-1416.79 728.95,-1410.16 718.35,-1410.18 720.68,-1416.79"/>
</g>
<!-- 34743 -->
<g id="node24" class="node">
<title>34743</title>
<text text-anchor="middle" x="72.58" y="-1668.55" font-family="Times,serif" font-size="14.00">$TEXT</text>
</g>
<!-- 34743&#45;&gt;34741 -->
<g id="edge40" class="edge">
<title>34743&#45;&gt;34741</title>
<path fill="none" stroke="#e18745" d="M101.15,-1655.69C151.4,-1624.33 174.93,-1610.92 294.9,-1544.95"/>
<polygon fill="#e18745" stroke="#e18745" points="296.46,-1548.08 303.54,-1540.2 293.09,-1541.95 296.46,-1548.08"/>
</g>
<!-- 35432 -->
<g id="node25" class="node">
<title>35432</title>
<text text-anchor="middle" x="1485.14" y="-1510.33" font-family="Times,serif" font-size="14.00">LicenseTag (ScopedLicenseTag &quot;OrtLicenseCategorization&quot; &quot;permissive&quot; NoLicenseTagText)</text>
</g>
<!-- 35633 -->
<g id="node27" class="node">
<title>35633</title>
<ellipse fill="none" stroke="#d43d51" cx="1400.71" cy="-1447.99" rx="156.09" ry="28.99"/>
<text text-anchor="middle" x="1400.71" y="-1451.19" font-family="Times,serif" font-size="14.00" fill="gray">OrtLicenseCategorization</text>
<text text-anchor="middle" x="1400.71" y="-1434.69" font-family="Times,serif" font-size="14.00" fill="gray">dbc7a63b8e7549280e53f2e6cc06eaf8</text>
</g>
<!-- 35432&#45;&gt;35633 -->
<g id="edge41" class="edge">
<title>35432&#45;&gt;35633</title>
<path fill="none" stroke="#d43d51" d="M1454.53,-1497.61C1450.09,-1494.26 1445.3,-1490.18 1439.24,-1484.67"/>
<polygon fill="#d43d51" stroke="#d43d51" points="1441.65,-1482.13 1431.94,-1477.9 1436.89,-1487.26 1441.65,-1482.13"/>
</g>
<!-- 35433 -->
<g id="node26" class="node">
<title>35433</title>
<text text-anchor="middle" x="1957.43" y="-1764.11" font-family="Times,serif" font-size="14.00">LicenseTag (ScopedLicenseTag &quot;OrtLicenseCategorization&quot; &quot;include&#45;in&#45;notice&#45;file&quot; NoLicenseTagText)</text>
</g>
<!-- 35433&#45;&gt;35633 -->
<g id="edge42" class="edge">
<title>35433&#45;&gt;35633</title>
<path fill="none" stroke="#d43d51" d="M1907.12,-1751.28C1771.53,-1702.4 1735.61,-1679.91 1451.13,-1482.92"/>
<polygon fill="#d43d51" stroke="#d43d51" points="1453.24,-1480.12 1443.02,-1477.3 1449.25,-1485.87 1453.24,-1480.12"/>
</g>
<!-- 35633&#45;&gt;1547 -->
<g id="edge43" class="edge">
<title>35633&#45;&gt;1547</title>
<path fill="none" stroke="#d43d51" d="M1319.11,-1422.86C1232.41,-1392.57 1201.17,-1359.45 1076.09,-1206.72"/>
<polygon fill="#d43d51" stroke="#d43d51" points="1078.9,-1204.62 1069.86,-1199.1 1073.48,-1209.06 1078.9,-1204.62"/>
</g>
<!-- 41427 -->
<g id="node28" class="node">
<title>41427</title>
<ellipse fill="none" stroke="#379469" cx="670.6" cy="-1851.87" rx="155.03" ry="28.99"/>
<text text-anchor="middle" x="670.6" y="-1855.07" font-family="Times,serif" font-size="14.00" fill="gray">CavilLicenseChange</text>
<text text-anchor="middle" x="670.6" y="-1838.57" font-family="Times,serif" font-size="14.00" fill="gray">1fe8e29bd61b1c1f2e22b7f2272feb95</text>
</g>
<!-- 41427&#45;&gt;41428 -->
<g id="edge44" class="edge">
<title>41427&#45;&gt;41428</title>
<path fill="none" stroke="#379469" d="M691.07,-1822.73C738.8,-1754.78 755.51,-1731.16 879.17,-1556.71"/>
<polygon fill="#379469" stroke="#379469" points="881.91,-1558.89 884.84,-1548.71 876.2,-1554.85 881.91,-1558.89"/>
</g>
<!-- 45355 -->
<g id="node30" class="node">
<title>45355</title>
<ellipse fill="none" stroke="#379469" cx="1835.55" cy="-1156.79" rx="154.5" ry="28.99"/>
<text text-anchor="middle" x="1835.55" y="-1159.99" font-family="Times,serif" font-size="14.00" fill="gray">MetaeffektLicense</text>
<text text-anchor="middle" x="1835.55" y="-1143.49" font-family="Times,serif" font-size="14.00" fill="gray">8f2d73bdb4cebea8f2ebf7c28f9b27d5</text>
</g>
<!-- 45355&#45;&gt;45356 -->
<g id="edge45" class="edge">
<title>45355&#45;&gt;45356</title>
<path fill="none" stroke="#379469" d="M1682.58,-1161.36C1647.17,-1160.9 1603.22,-1159.33 1535.67,-1156.44"/>
<polygon fill="#379469" stroke="#379469" points="1535.83,-1152.94 1525.68,-1156.01 1535.52,-1159.93 1535.83,-1152.94"/>
</g>
<!-- 66943 -->
<g id="node32" class="node">
<title>66943</title>
<ellipse fill="none" stroke="#00876c" cx="1263.02" cy="-860.11" rx="155.56" ry="28.99"/>
<text text-anchor="middle" x="1263.02" y="-863.31" font-family="Times,serif" font-size="14.00" fill="gray">LicenseLynx</text>
<text text-anchor="middle" x="1263.02" y="-846.81" font-family="Times,serif" font-size="14.00" fill="gray">04a84af32a45c8e5e44e8f7e4a39ab48</text>
</g>
<!-- 66943&#45;&gt;1547 -->
<g id="edge46" class="edge">
<title>66943&#45;&gt;1547</title>
<path fill="none" stroke="#00876c" d="M1218.05,-888.26C1125,-947.93 1112.27,-971.97 1059.53,-1134.28"/>
<polygon fill="#00876c" stroke="#00876c" points="1056.22,-1133.14 1056.46,-1143.73 1062.88,-1135.3 1056.22,-1133.14"/>
</g>
<!-- 66944&#45;&gt;1547 -->
<g id="edge47" class="edge">
<title>66944&#45;&gt;1547</title>
<path fill="none" stroke="#00876c" stroke-width="2" d="M1227.28,-1307.32C1180.88,-1296.09 1150.49,-1271.18 1082.69,-1205.86"/>
<polygon fill="#00876c" stroke="#00876c" stroke-width="2" points="1076.44,-1199.82 1086.76,-1203.53 1078.63,-1201.25 1083.98,-1206.41 1083.63,-1206.77 1083.29,-1207.13 1077.94,-1201.96 1080.51,-1210.01 1076.44,-1199.82"/>
</g>
<!-- 77111 -->
<g id="node34" class="node">
<title>77111</title>
<ellipse fill="none" stroke="#e09d4b" cx="1446.44" cy="-2115.76" rx="157.15" ry="28.99"/>
<text text-anchor="middle" x="1446.44" y="-2118.96" font-family="Times,serif" font-size="14.00" fill="gray">TLDRNaming</text>
<text text-anchor="middle" x="1446.44" y="-2102.46" font-family="Times,serif" font-size="14.00" fill="gray">a415a41f1b0ea8843661bea9af649697</text>
</g>
<!-- 77111&#45;&gt;77112 -->
<g id="edge48" class="edge">
<title>77111&#45;&gt;77112</title>
<path fill="none" stroke="#e09d4b" d="M1410.98,-2087.05C1331.2,-2021.26 1314.65,-1993.55 1204.13,-1781.67"/>
<polygon fill="#e09d4b" stroke="#e09d4b" points="1207.4,-1780.36 1199.67,-1773.11 1201.19,-1783.6 1207.4,-1780.36"/>
</g>
<!-- 77113 -->
<g id="node36" class="node">
<title>77113</title>
<polygon fill="none" stroke="#e09d4b" points="1111.04,-2098.3 1111.04,-2113.22 1040.52,-2123.76 940.78,-2123.76 870.25,-2113.22 870.25,-2098.3 940.78,-2087.76 1040.52,-2087.76 1111.04,-2098.3"/>
<polygon fill="none" stroke="#e09d4b" points="1115.04,-2094.86 1115.04,-2116.66 1040.81,-2127.76 940.48,-2127.76 866.25,-2116.66 866.25,-2094.86 940.48,-2083.76 1040.81,-2083.76 1115.04,-2094.86"/>
<text text-anchor="middle" x="990.65" y="-2100.71" font-family="Times,serif" font-size="14.00">tldr&#45;slug:crossword&#45;license</text>
</g>
<!-- 77113&#45;&gt;77112 -->
<g id="edge49" class="edge">
<title>77113&#45;&gt;77112</title>
<path fill="none" stroke="#e09d4b" stroke-width="2" d="M1010.45,-2083.53C1075.29,-2010.16 1085.87,-1988.98 1173.51,-1782.03"/>
<polygon fill="#e09d4b" stroke="#e09d4b" stroke-width="2" points="1176.93,-1773.95 1177.18,-1784.92 1176.39,-1776.51 1173.49,-1783.36 1173.03,-1783.16 1172.57,-1782.97 1175.47,-1776.12 1168.89,-1781.41 1176.93,-1773.95"/>
</g>
<!-- 77114 -->
<g id="node37" class="node">
<title>77114</title>
<polygon fill="none" stroke="#e09d4b" points="1052.35,-2179.3 1052.35,-2194.21 1003.24,-2204.75 933.79,-2204.75 884.68,-2194.21 884.68,-2179.3 933.79,-2168.75 1003.24,-2168.75 1052.35,-2179.3"/>
<polygon fill="none" stroke="#e09d4b" points="1056.35,-2176.06 1056.35,-2197.44 1003.66,-2208.75 933.36,-2208.75 880.68,-2197.44 880.68,-2176.06 933.36,-2164.75 1003.66,-2164.75 1056.35,-2176.06"/>
<text text-anchor="middle" x="968.51" y="-2181.7" font-family="Times,serif" font-size="14.00">crossword&#45;license</text>
</g>
<!-- 77114&#45;&gt;77113 -->
<g id="edge50" class="edge">
<title>77114&#45;&gt;77113</title>
<path fill="none" stroke="#e09d4b" stroke-width="2" d="M975.34,-2164.32C977.12,-2158.03 979.07,-2150.72 982.16,-2138.78"/>
<polygon fill="#e09d4b" stroke="#e09d4b" stroke-width="2" points="984.29,-2130.5 986.16,-2141.31 984.14,-2133.11 982.28,-2140.31 981.8,-2140.19 981.31,-2140.06 983.17,-2132.86 977.44,-2139.06 984.29,-2130.5"/>
</g>
<!-- 77115 -->
<g id="node38" class="node">
<title>77115</title>
<text text-anchor="middle" x="1485.21" y="-2184.91" font-family="Times,serif" font-size="14.00">TLDR: https://tldrlegal.com/license/crossword&#45;license</text>
</g>
<!-- 77115&#45;&gt;77111 -->
<g id="edge51" class="edge">
<title>77115&#45;&gt;77111</title>
<path fill="none" stroke="#e09d4b" d="M1472.84,-2172.11C1470.09,-2167.55 1467.46,-2162.49 1463.96,-2155.02"/>
<polygon fill="#e09d4b" stroke="#e09d4b" points="1467.36,-2154.04 1460.02,-2146.4 1461,-2156.95 1467.36,-2154.04"/>
</g>
</g>
</svg>
