<?xml version="1.0" encoding="UTF-8" standalone="no"?>
<!DOCTYPE svg PUBLIC "-//W3C//DTD SVG 1.1//EN"
 "http://www.w3.org/Graphics/SVG/1.1/DTD/svg11.dtd">
<!-- Generated by graphviz version 10.0.1 (0)
 -->
<!-- Pages: 1 -->
<svg width="4301pt" height="2837pt"
 viewBox="0.00 0.00 4301.00 2837.00" xmlns="http://www.w3.org/2000/svg" xmlns:xlink="http://www.w3.org/1999/xlink">
<g id="graph0" class="graph" transform="scale(1 1) rotate(0) translate(4 2833)">
<polygon fill="white" stroke="none" points="-4,4 -4,-2833 4297,-2833 4297,4 -4,4"/>
<!-- 5 -->
<g id="node1" class="node">
<title>5</title>
<text text-anchor="start" x="2406.59" y="-258.91" font-family="Times,serif" font-size="14.00">OSI: </text>
<text text-anchor="start" x="2435.84" y="-258.91" font-family="Times,serif" font-weight="bold" font-size="14.00" fill="#8b0000">Rejected</text>
</g>
<!-- 1561 -->
<g id="node2" class="node">
<title>1561</title>
<ellipse fill="none" stroke="#dac767" cx="2480.21" cy="-656.8" rx="161.4" ry="28.99"/>
<text text-anchor="middle" x="2480.21" y="-660" font-family="Times,serif" font-size="14.00" fill="gray">SPDXLicense</text>
<text text-anchor="middle" x="2480.21" y="-643.5" font-family="Times,serif" font-size="14.00" fill="gray">d2b74c910a7346c204d018e40456c755</text>
</g>
<!-- 5&#45;&gt;1561 -->
<g id="edge1" class="edge">
<title>5&#45;&gt;1561</title>
<path fill="none" stroke="#dac767" d="M2452.4,-280.63C2486.19,-379.77 2487.7,-396.93 2481.39,-616.37"/>
<polygon fill="#dac767" stroke="#dac767" points="2477.89,-616.04 2481.1,-626.14 2484.89,-616.25 2477.89,-616.04"/>
</g>
<!-- 1562 -->
<g id="node3" class="node">
<title>1562</title>
<polygon fill="none" stroke="black" points="2177.03,-1155.7 2177.03,-1170.62 2123.05,-1181.16 2046.71,-1181.16 1992.74,-1170.62 1992.74,-1155.7 2046.71,-1145.16 2123.05,-1145.16 2177.03,-1155.7"/>
<polygon fill="none" stroke="black" points="2181.03,-1152.41 2181.03,-1173.91 2123.44,-1185.16 2046.33,-1185.16 1988.74,-1173.91 1988.74,-1152.41 2046.33,-1141.16 2123.44,-1141.16 2181.03,-1152.41"/>
<polygon fill="none" stroke="black" points="2185.03,-1149.12 2185.03,-1177.2 2123.82,-1189.16 2045.94,-1189.16 1984.74,-1177.2 1984.74,-1149.12 2045.94,-1137.16 2123.82,-1137.16 2185.03,-1149.12"/>
<text text-anchor="middle" x="2084.88" y="-1158.11" font-family="Times,serif" font-size="14.00">spdx:CrystalStacker</text>
</g>
<!-- 1561&#45;&gt;1562 -->
<g id="edge2" class="edge">
<title>1561&#45;&gt;1562</title>
<path fill="none" stroke="#dac767" d="M2444.13,-685.27C2319.14,-784.65 2299.05,-813.73 2106.76,-1127.46"/>
<polygon fill="#dac767" stroke="#dac767" points="2104.05,-1125.18 2101.81,-1135.54 2110.02,-1128.84 2104.05,-1125.18"/>
</g>
<!-- 7089 -->
<g id="node13" class="node">
<title>7089</title>
<polygon fill="none" stroke="#e09d4b" points="2688.76,-1110.28 2688.76,-1125.19 2629.59,-1135.73 2545.91,-1135.73 2486.74,-1125.19 2486.74,-1110.28 2545.91,-1099.73 2629.59,-1099.73 2688.76,-1110.28"/>
<polygon fill="none" stroke="#e09d4b" points="2692.76,-1106.93 2692.76,-1128.54 2629.94,-1139.73 2545.56,-1139.73 2482.74,-1128.54 2482.74,-1106.93 2545.56,-1095.73 2629.94,-1095.73 2692.76,-1106.93"/>
<text text-anchor="middle" x="2587.75" y="-1112.68" font-family="Times,serif" font-size="14.00">Fedora:CrystalStacker</text>
</g>
<!-- 1562&#45;&gt;7089 -->
<g id="edge3" class="edge">
<title>1562&#45;&gt;7089</title>
<path fill="none" stroke="#e09d4b" stroke-width="2" d="M2148.38,-1141.48C2356.8,-1070.69 2398.46,-1062.7 2514.96,-1095.69"/>
<polygon fill="#e09d4b" stroke="#e09d4b" stroke-width="2" points="2523.38,-1098.11 2512.52,-1099.67 2520.78,-1097.88 2513.63,-1095.83 2513.77,-1095.35 2513.91,-1094.87 2521.05,-1096.92 2515.02,-1091.02 2523.38,-1098.11"/>
</g>
<!-- 15995 -->
<g id="node22" class="node">
<title>15995</title>
<polygon fill="none" stroke="black" points="2324.08,-1614.91 2324.08,-1629.82 2260.05,-1640.36 2169.49,-1640.36 2105.45,-1629.82 2105.45,-1614.91 2169.49,-1604.36 2260.05,-1604.36 2324.08,-1614.91"/>
<polygon fill="none" stroke="black" points="2328.08,-1611.51 2328.08,-1633.22 2260.37,-1644.36 2169.16,-1644.36 2101.45,-1633.22 2101.45,-1611.51 2169.16,-1600.36 2260.37,-1600.36 2328.08,-1611.51"/>
<text text-anchor="middle" x="2214.77" y="-1617.31" font-family="Times,serif" font-size="14.00">scancode:crystal&#45;stacker</text>
</g>
<!-- 1562&#45;&gt;15995 -->
<g id="edge4" class="edge">
<title>1562&#45;&gt;15995</title>
<path fill="none" stroke="#deb256" stroke-width="2" d="M2088.87,-1189.4C2106.53,-1268.15 2172.61,-1502.33 2201.53,-1589.34"/>
<polygon fill="#deb256" stroke="#deb256" stroke-width="2" points="2204.32,-1597.6 2196.85,-1589.57 2203.03,-1595.33 2200.64,-1588.28 2201.12,-1588.12 2201.59,-1587.96 2203.98,-1595.01 2205.38,-1586.68 2204.32,-1597.6"/>
</g>
<!-- 45324 -->
<g id="node34" class="node">
<title>45324</title>
<polygon fill="none" stroke="#379469" points="2095.92,-1216.76 2095.92,-1231.67 2007.87,-1242.21 1883.34,-1242.21 1795.29,-1231.67 1795.29,-1216.76 1883.34,-1206.21 2007.87,-1206.21 2095.92,-1216.76"/>
<polygon fill="none" stroke="#379469" points="2099.92,-1213.21 2099.92,-1235.22 2008.11,-1246.21 1883.1,-1246.21 1791.29,-1235.22 1791.29,-1213.21 1883.1,-1202.21 2008.11,-1202.21 2099.92,-1213.21"/>
<text text-anchor="middle" x="1945.61" y="-1219.16" font-family="Times,serif" font-size="14.00">metaeffekt:CrystalStacker License</text>
</g>
<!-- 1562&#45;&gt;45324 -->
<g id="edge5" class="edge">
<title>1562&#45;&gt;45324</title>
<path fill="none" stroke="#379469" stroke-width="2" d="M1993.7,-1179.35C1987.66,-1183.17 1981.69,-1188.06 1974.94,-1194.39"/>
<polygon fill="#379469" stroke="#379469" stroke-width="2" points="1969.01,-1200.14 1973.05,-1189.95 1970.5,-1198 1975.84,-1192.82 1976.19,-1193.18 1976.53,-1193.53 1971.2,-1198.71 1979.32,-1196.41 1969.01,-1200.14"/>
</g>
<!-- 1563 -->
<g id="node4" class="node">
<title>1563</title>
<polygon fill="none" stroke="black" points="2292.48,-1460.2 2292.48,-1475.12 2251.16,-1485.66 2192.72,-1485.66 2151.4,-1475.12 2151.4,-1460.2 2192.72,-1449.66 2251.16,-1449.66 2292.48,-1460.2"/>
<polygon fill="none" stroke="black" points="2296.48,-1457.1 2296.48,-1478.22 2251.66,-1489.66 2192.22,-1489.66 2147.4,-1478.22 2147.4,-1457.1 2192.22,-1445.66 2251.66,-1445.66 2296.48,-1457.1"/>
<text text-anchor="middle" x="2221.94" y="-1462.61" font-family="Times,serif" font-size="14.00">CrystalStacker</text>
</g>
<!-- 1563&#45;&gt;1562 -->
<g id="edge6" class="edge">
<title>1563&#45;&gt;1562</title>
<path fill="none" stroke="black" stroke-width="2" d="M2215.43,-1445.37C2167.18,-1280.21 2157.69,-1251.69 2114.09,-1197.87"/>
<polygon fill="black" stroke="black" stroke-width="2" points="2108.64,-1191.24 2118.47,-1196.11 2110.66,-1192.91 2115.38,-1198.65 2114.99,-1198.97 2114.61,-1199.29 2109.88,-1193.54 2111.52,-1201.83 2108.64,-1191.24"/>
</g>
<!-- 1563&#45;&gt;7089 -->
<g id="edge7" class="edge">
<title>1563&#45;&gt;7089</title>
<path fill="none" stroke="#e09d4b" stroke-width="2" d="M2249.89,-1445.45C2474.35,-1267 2497.11,-1247.24 2565.79,-1149.3"/>
<polygon fill="#e09d4b" stroke="#e09d4b" stroke-width="2" points="2570.75,-1142.21 2568.71,-1152.98 2569.69,-1144.6 2565.43,-1150.69 2565.02,-1150.41 2564.61,-1150.12 2568.87,-1144.02 2561.33,-1147.83 2570.75,-1142.21"/>
</g>
<!-- 10409 -->
<g id="node19" class="node">
<title>10409</title>
<polygon fill="none" stroke="#00876c" points="1909.84,-1719.43 1909.84,-1734.34 1846.12,-1744.88 1756.02,-1744.88 1692.31,-1734.34 1692.31,-1719.43 1756.02,-1708.88 1846.12,-1708.88 1909.84,-1719.43"/>
<polygon fill="none" stroke="#00876c" points="1913.84,-1716.03 1913.84,-1737.73 1846.45,-1748.88 1755.69,-1748.88 1688.31,-1737.73 1688.31,-1716.03 1755.69,-1704.88 1846.45,-1704.88 1913.84,-1716.03"/>
<text text-anchor="middle" x="1801.07" y="-1721.83" font-family="Times,serif" font-size="14.00">BlueOak:CrystalStacker</text>
</g>
<!-- 1563&#45;&gt;10409 -->
<g id="edge8" class="edge">
<title>1563&#45;&gt;10409</title>
<path fill="none" stroke="#00876c" stroke-width="2" d="M2193.06,-1490.09C1997.87,-1641.68 1957.53,-1671.41 1871.16,-1703.02"/>
<polygon fill="#00876c" stroke="#00876c" stroke-width="2" points="1862.97,-1705.97 1870.85,-1698.35 1865.21,-1704.63 1872.21,-1702.11 1872.38,-1702.58 1872.55,-1703.05 1865.55,-1705.57 1873.9,-1706.82 1862.97,-1705.97"/>
</g>
<!-- 34452 -->
<g id="node27" class="node">
<title>34452</title>
<polygon fill="none" stroke="#e18745" points="2123.87,-1512.26 2123.87,-1527.17 2058.21,-1537.71 1965.35,-1537.71 1899.69,-1527.17 1899.69,-1512.26 1965.35,-1501.71 2058.21,-1501.71 2123.87,-1512.26"/>
<polygon fill="none" stroke="#e18745" points="2127.87,-1508.85 2127.87,-1530.58 2058.53,-1541.71 1965.03,-1541.71 1895.69,-1530.58 1895.69,-1508.85 1965.03,-1497.71 2058.53,-1497.71 2127.87,-1508.85"/>
<text text-anchor="middle" x="2011.78" y="-1514.66" font-family="Times,serif" font-size="14.00">fossology:CrystalStacker</text>
</g>
<!-- 1563&#45;&gt;34452 -->
<g id="edge9" class="edge">
<title>1563&#45;&gt;34452</title>
<path fill="none" stroke="#e18745" stroke-width="2" d="M2184.84,-1488.1C2166.12,-1498.3 2151.1,-1506.16 2138.2,-1512.08"/>
<polygon fill="#e18745" stroke="#e18745" stroke-width="2" points="2130.5,-1515.44 2137.86,-1507.31 2132.65,-1513.96 2139.47,-1510.98 2139.67,-1511.44 2139.87,-1511.89 2133.05,-1514.87 2141.47,-1515.56 2130.5,-1515.44"/>
</g>
<!-- 41430 -->
<g id="node32" class="node">
<title>41430</title>
<polygon fill="none" stroke="#379469" points="2412.49,-1892.77 2412.49,-1907.68 2358.18,-1918.23 2281.39,-1918.23 2227.09,-1907.68 2227.09,-1892.77 2281.39,-1882.23 2358.18,-1882.23 2412.49,-1892.77"/>
<polygon fill="none" stroke="#379469" points="2416.49,-1889.47 2416.49,-1910.98 2358.57,-1922.23 2281,-1922.23 2223.09,-1910.98 2223.09,-1889.47 2281,-1878.23 2358.57,-1878.23 2416.49,-1889.47"/>
<text text-anchor="middle" x="2319.79" y="-1895.18" font-family="Times,serif" font-size="14.00">cavil:CrystalStacker</text>
</g>
<!-- 1563&#45;&gt;41430 -->
<g id="edge10" class="edge">
<title>1563&#45;&gt;41430</title>
<path fill="none" stroke="#379469" stroke-width="2" d="M2228.45,-1490.12C2300.74,-1739.4 2307.62,-1765.08 2316.85,-1866.79"/>
<polygon fill="#379469" stroke="#379469" stroke-width="2" points="2317.62,-1875.46 2312.25,-1865.9 2316.9,-1872.95 2316.23,-1865.54 2316.73,-1865.49 2317.23,-1865.45 2317.89,-1872.86 2321.21,-1865.09 2317.62,-1875.46"/>
</g>
<!-- 1563&#45;&gt;45324 -->
<g id="edge11" class="edge">
<title>1563&#45;&gt;45324</title>
<path fill="none" stroke="#379469" stroke-dasharray="5,2" d="M2197.98,-1445.21C2062.29,-1318.08 2036.23,-1294.11 1983.49,-1253.22"/>
<polygon fill="#379469" stroke="#379469" points="1975.75,-1247.24 1986.41,-1249.79 1978.74,-1249.55 1983.66,-1253.35 1983.66,-1253.35 1983.66,-1253.35 1978.74,-1249.55 1980.91,-1256.92 1975.75,-1247.24"/>
</g>
<!-- 1564 -->
<g id="node5" class="node">
<title>1564</title>
<polygon fill="none" stroke="black" points="1732.11,-1248.18 1732.11,-1263.09 1670.99,-1273.63 1584.56,-1273.63 1523.44,-1263.09 1523.44,-1248.18 1584.56,-1237.63 1670.99,-1237.63 1732.11,-1248.18"/>
<polygon fill="none" stroke="black" points="1736.11,-1244.81 1736.11,-1266.46 1671.33,-1277.63 1584.22,-1277.63 1519.44,-1266.46 1519.44,-1244.81 1584.22,-1233.63 1671.33,-1233.63 1736.11,-1244.81"/>
<text text-anchor="middle" x="1627.78" y="-1250.58" font-family="Times,serif" font-size="14.00">CrystalStacker License</text>
</g>
<!-- 1564&#45;&gt;1562 -->
<g id="edge12" class="edge">
<title>1564&#45;&gt;1562</title>
<path fill="none" stroke="#dac767" stroke-width="2" d="M1662.07,-1233.22C1763.84,-1167.45 1795.67,-1157.82 1973.43,-1160.67"/>
<polygon fill="#dac767" stroke="#dac767" stroke-width="2" points="1982.07,-1160.81 1971.99,-1165.14 1979.5,-1161.27 1972.06,-1161.14 1972.07,-1160.64 1972.08,-1160.14 1979.51,-1160.27 1972.15,-1156.14 1982.07,-1160.81"/>
</g>
<!-- 1564&#45;&gt;10409 -->
<g id="edge13" class="edge">
<title>1564&#45;&gt;10409</title>
<path fill="none" stroke="#00876c" stroke-width="2" d="M1626.7,-1277.94C1616.28,-1497.19 1620.65,-1514.18 1774.79,-1695.95"/>
<polygon fill="#00876c" stroke="#00876c" stroke-width="2" points="1780.42,-1702.6 1770.52,-1697.88 1778.38,-1700.97 1773.57,-1695.29 1773.95,-1694.97 1774.33,-1694.65 1779.15,-1700.32 1777.38,-1692.06 1780.42,-1702.6"/>
</g>
<!-- 1564&#45;&gt;34452 -->
<g id="edge14" class="edge">
<title>1564&#45;&gt;34452</title>
<path fill="none" stroke="#e18745" stroke-width="2" d="M1645.55,-1277.89C1721.86,-1372.93 1742.07,-1387.14 1955.99,-1492.34"/>
<polygon fill="#e18745" stroke="#e18745" stroke-width="2" points="1963.81,-1496.18 1952.85,-1495.81 1961.29,-1495.5 1954.61,-1492.22 1954.83,-1491.77 1955.05,-1491.32 1961.73,-1494.6 1956.82,-1487.73 1963.81,-1496.18"/>
</g>
<!-- 1564&#45;&gt;45324 -->
<g id="edge15" class="edge">
<title>1564&#45;&gt;45324</title>
<path fill="none" stroke="#379469" stroke-width="2" d="M1678.84,-1234.52C1710.99,-1222.53 1735.87,-1217.65 1779.93,-1217.27"/>
<polygon fill="#379469" stroke="#379469" stroke-width="2" points="1788.47,-1217.27 1778.47,-1221.77 1785.91,-1217.77 1778.47,-1217.77 1778.47,-1217.27 1778.47,-1216.77 1785.91,-1216.77 1778.47,-1212.77 1788.47,-1217.27"/>
</g>
<!-- 66950 -->
<g id="node38" class="node">
<title>66950</title>
<polygon fill="none" stroke="#00876c" points="1815.19,-1017.94 1815.19,-1032.85 1741.42,-1043.39 1637.09,-1043.39 1563.32,-1032.85 1563.32,-1017.94 1637.09,-1007.39 1741.42,-1007.39 1815.19,-1017.94"/>
<polygon fill="none" stroke="#00876c" points="1819.19,-1014.47 1819.19,-1036.32 1741.7,-1047.39 1636.81,-1047.39 1559.32,-1036.32 1559.32,-1014.47 1636.81,-1003.39 1741.7,-1003.39 1819.19,-1014.47"/>
<text text-anchor="middle" x="1689.26" y="-1020.34" font-family="Times,serif" font-size="14.00">spdx:CrystalStacker License</text>
</g>
<!-- 1564&#45;&gt;66950 -->
<g id="edge16" class="edge">
<title>1564&#45;&gt;66950</title>
<path fill="none" stroke="#00876c" stroke-width="2" d="M1626.05,-1233.4C1618.38,-1132.55 1620.24,-1115.32 1665.11,-1056.36"/>
<polygon fill="#00876c" stroke="#00876c" stroke-width="2" points="1670.24,-1049.68 1667.71,-1060.35 1669.08,-1052.02 1664.54,-1057.92 1664.15,-1057.61 1663.75,-1057.31 1668.28,-1051.41 1660.58,-1054.87 1670.24,-1049.68"/>
</g>
<!-- 77117 -->
<g id="node40" class="node">
<title>77117</title>
<polygon fill="none" stroke="#e09d4b" points="1197.94,-936.74 1197.94,-951.65 1116.06,-962.19 1000.25,-962.19 918.37,-951.65 918.37,-936.74 1000.25,-926.19 1116.06,-926.19 1197.94,-936.74"/>
<polygon fill="none" stroke="#e09d4b" points="1201.94,-933.22 1201.94,-955.17 1116.31,-966.19 1000,-966.19 914.37,-955.17 914.37,-933.22 1000,-922.19 1116.31,-922.19 1201.94,-933.22"/>
<text text-anchor="middle" x="1058.16" y="-939.14" font-family="Times,serif" font-size="14.00">tldr&#45;title:CrystalStacker License</text>
</g>
<!-- 1564&#45;&gt;77117 -->
<g id="edge17" class="edge">
<title>1564&#45;&gt;77117</title>
<path fill="none" stroke="#e09d4b" stroke-width="2" d="M1583.43,-1233.43C1257.87,-1070.46 1220.58,-1051.02 1101.29,-972.66"/>
<polygon fill="#e09d4b" stroke="#e09d4b" stroke-width="2" points="1094.21,-968 1105.04,-969.74 1096.63,-968.99 1102.84,-973.08 1102.57,-973.5 1102.29,-973.92 1096.08,-969.83 1100.1,-977.26 1094.21,-968"/>
</g>
<!-- 1565 -->
<g id="node6" class="node">
<title>1565</title>
<text text-anchor="middle" x="2671.83" y="-244.23" font-family="Times,serif" font-size="14.00">$TEXT</text>
</g>
<!-- 1565&#45;&gt;1561 -->
<g id="edge18" class="edge">
<title>1565&#45;&gt;1561</title>
<path fill="none" stroke="#dac767" d="M2663.1,-267.23C2614.97,-366.28 2606.67,-383.96 2498.44,-617.46"/>
<polygon fill="#dac767" stroke="#dac767" points="2495.38,-615.74 2494.35,-626.28 2501.73,-618.68 2495.38,-615.74"/>
</g>
<!-- 1566 -->
<g id="node7" class="node">
<title>1566</title>
<text text-anchor="middle" x="2767.15" y="-13.42" font-family="Times,serif" font-size="14.00">$TEXT</text>
</g>
<!-- 1566&#45;&gt;1565 -->
<g id="edge19" class="edge">
<title>1566&#45;&gt;1565</title>
<path fill="none" stroke="#dac767" d="M2760.12,-36.45C2740.71,-86.07 2734.36,-101.33 2683.69,-221.22"/>
<polygon fill="#dac767" stroke="#dac767" points="2680.57,-219.62 2679.9,-230.19 2687.01,-222.35 2680.57,-219.62"/>
</g>
<!-- 1567 -->
<g id="node8" class="node">
<title>1567</title>
<text text-anchor="middle" x="2959.29" y="-1149.86" font-family="Times,serif" font-size="14.00">https://fedoraproject.org/wiki/Licensing:CrystalStacker?rd=Licensing/CrystalStacker</text>
</g>
<!-- 1567&#45;&gt;1561 -->
<g id="edge20" class="edge">
<title>1567&#45;&gt;1561</title>
<path fill="none" stroke="#dac767" d="M2952.23,-1137.26C2832.58,-837.97 2818.66,-813.51 2549.7,-688.79"/>
<polygon fill="#dac767" stroke="#dac767" points="2551.53,-685.78 2540.98,-684.75 2548.59,-692.13 2551.53,-685.78"/>
</g>
<!-- 34451 -->
<g id="node26" class="node">
<title>34451</title>
<ellipse fill="none" stroke="#e18745" cx="2547.72" cy="-1653.04" rx="155.03" ry="28.99"/>
<text text-anchor="middle" x="2547.72" y="-1656.24" font-family="Times,serif" font-size="14.00" fill="gray">Fossology</text>
<text text-anchor="middle" x="2547.72" y="-1639.74" font-family="Times,serif" font-size="14.00" fill="gray">124ab7f3aaabedf719ba947caa82c9a2</text>
</g>
<!-- 1567&#45;&gt;34451 -->
<g id="edge21" class="edge">
<title>1567&#45;&gt;34451</title>
<path fill="none" stroke="#e18745" d="M2953.7,-1172.9C2886.06,-1390.47 2875.34,-1406.83 2594.27,-1618.1"/>
<polygon fill="#e18745" stroke="#e18745" points="2592.55,-1615.01 2586.66,-1623.82 2596.75,-1620.61 2592.55,-1615.01"/>
</g>
<!-- 5550 -->
<g id="node9" class="node">
<title>5550</title>
<text text-anchor="middle" x="1952.73" y="-2483.31" font-family="Times,serif" font-size="14.00">LicenseType Permissive</text>
</g>
<!-- 10408 -->
<g id="node18" class="node">
<title>10408</title>
<ellipse fill="none" stroke="#00876c" cx="1604.35" cy="-2296.08" rx="159.81" ry="28.99"/>
<text text-anchor="middle" x="1604.35" y="-2299.28" font-family="Times,serif" font-size="14.00" fill="gray">BlueOakCouncil</text>
<text text-anchor="middle" x="1604.35" y="-2282.78" font-family="Times,serif" font-size="14.00" fill="gray">ec82b0283e5c8b1db7c1c1c66d9d7a40</text>
</g>
<!-- 5550&#45;&gt;10408 -->
<g id="edge22" class="edge">
<title>5550&#45;&gt;10408</title>
<path fill="none" stroke="#00876c" d="M1878,-2479.91C1759.71,-2464.83 1734.09,-2446.37 1636.74,-2333.79"/>
<polygon fill="#00876c" stroke="#00876c" points="1639.46,-2331.59 1630.28,-2326.3 1634.16,-2336.16 1639.46,-2331.59"/>
</g>
<!-- 15994 -->
<g id="node21" class="node">
<title>15994</title>
<ellipse fill="none" stroke="#deb256" cx="2293.57" cy="-2206.35" rx="158.22" ry="28.99"/>
<text text-anchor="middle" x="2293.57" y="-2209.55" font-family="Times,serif" font-size="14.00" fill="gray">ScancodeData</text>
<text text-anchor="middle" x="2293.57" y="-2193.05" font-family="Times,serif" font-size="14.00" fill="gray">23f3aab6086975dd0c89d51af14d66e4</text>
</g>
<!-- 5550&#45;&gt;15994 -->
<g id="edge23" class="edge">
<title>5550&#45;&gt;15994</title>
<path fill="none" stroke="#deb256" d="M2008.97,-2470.43C2115.99,-2434.72 2139.71,-2410.34 2264.95,-2244.35"/>
<polygon fill="#deb256" stroke="#deb256" points="2267.64,-2246.6 2270.86,-2236.51 2262.05,-2242.38 2267.64,-2246.6"/>
</g>
<!-- 6592 -->
<g id="node10" class="node">
<title>6592</title>
<text text-anchor="middle" x="3641.43" y="-758.37" font-family="Times,serif" font-size="14.00">[&quot;allowed&quot;]</text>
</g>
<!-- 7088 -->
<g id="node12" class="node">
<title>7088</title>
<ellipse fill="none" stroke="#e09d4b" cx="3219.56" cy="-959.52" rx="159.81" ry="28.99"/>
<text text-anchor="middle" x="3219.56" y="-962.72" font-family="Times,serif" font-size="14.00" fill="gray">FedoraEntry</text>
<text text-anchor="middle" x="3219.56" y="-946.22" font-family="Times,serif" font-size="14.00" fill="gray">ab8757211468bb9cff5bb6d2090090dd</text>
</g>
<!-- 6592&#45;&gt;7088 -->
<g id="edge24" class="edge">
<title>6592&#45;&gt;7088</title>
<path fill="none" stroke="#e09d4b" d="M3604.81,-781.28C3521.42,-821.89 3490.18,-836.36 3289.69,-927.61"/>
<polygon fill="#e09d4b" stroke="#e09d4b" points="3288.42,-924.34 3280.77,-931.67 3291.32,-930.71 3288.42,-924.34"/>
</g>
<!-- 6593 -->
<g id="node11" class="node">
<title>6593</title>
<text text-anchor="start" x="4025.42" y="-631.91" font-family="Times,serif" font-size="14.00">Fedora: </text>
<text text-anchor="start" x="4070.42" y="-631.91" font-family="Times,serif" font-weight="bold" font-size="14.00" fill="#228b22">allowed</text>
<text text-anchor="start" x="3861.54" y="-617.91" font-family="Times,serif" font-size="14.00">A license is allowed if Fedora determines that the license is a free software /</text>
<text text-anchor="start" x="3856.29" y="-603.91" font-family="Times,serif" font-size="14.00">open source license. At a high level, the inquiry involves determining whether</text>
<text text-anchor="start" x="3855.17" y="-589.91" font-family="Times,serif" font-size="14.00">the license provides software freedom, and (equivalently) making sure that the</text>
<text text-anchor="start" x="3865.29" y="-575.91" font-family="Times,serif" font-size="14.00">license does not place burdens on users&#39; exercise of its permissions that are</text>
<text text-anchor="start" x="3864.92" y="-561.91" font-family="Times,serif" font-size="14.00">inconsistent with evolving community norms and traditions around what is</text>
<text text-anchor="start" x="3856.67" y="-547.91" font-family="Times,serif" font-size="14.00">acceptable in a free software / open source license. See below for more on the</text>
<text text-anchor="start" x="3976.67" y="-533.91" font-family="Times,serif" font-size="14.00">history of Fedora licensing policy.</text>
</g>
<!-- 6593&#45;&gt;6592 -->
<g id="edge25" class="edge">
<title>6593&#45;&gt;6592</title>
<path fill="none" stroke="#e09d4b" d="M3919.81,-648.13C3872.56,-667.45 3808.81,-693.89 3691.65,-742.56"/>
<polygon fill="#e09d4b" stroke="#e09d4b" points="3690.56,-739.22 3682.66,-746.29 3693.24,-745.69 3690.56,-739.22"/>
</g>
<!-- 7088&#45;&gt;7089 -->
<g id="edge26" class="edge">
<title>7088&#45;&gt;7089</title>
<path fill="none" stroke="#e09d4b" d="M3085.89,-975.7C2994.81,-990.06 2914.03,-1014.48 2658.98,-1095.18"/>
<polygon fill="#e09d4b" stroke="#e09d4b" points="2658.2,-1091.75 2649.72,-1098.11 2660.31,-1098.43 2658.2,-1091.75"/>
</g>
<!-- 7090 -->
<g id="node14" class="node">
<title>7090</title>
<polygon fill="none" stroke="black" points="2377.1,-1238.15 2377.1,-1253.06 2314.36,-1263.6 2225.64,-1263.6 2162.9,-1253.06 2162.9,-1238.15 2225.64,-1227.6 2314.36,-1227.6 2377.1,-1238.15"/>
<polygon fill="none" stroke="black" points="2381.1,-1234.76 2381.1,-1256.44 2314.7,-1267.6 2225.3,-1267.6 2158.9,-1256.44 2158.9,-1234.76 2225.3,-1223.6 2314.7,-1223.6 2381.1,-1234.76"/>
<text text-anchor="middle" x="2270" y="-1240.55" font-family="Times,serif" font-size="14.00">Crystal Stacker License</text>
</g>
<!-- 7090&#45;&gt;7089 -->
<g id="edge27" class="edge">
<title>7090&#45;&gt;7089</title>
<path fill="none" stroke="#e09d4b" stroke-dasharray="5,2" d="M2314.31,-1223.12C2418.46,-1170.34 2460.88,-1149.73 2501.44,-1137.21"/>
<polygon fill="#e09d4b" stroke="#e09d4b" points="2510.86,-1134.45 2502.53,-1141.58 2507.23,-1135.51 2501.26,-1137.26 2501.26,-1137.26 2501.26,-1137.26 2507.23,-1135.51 2500,-1132.94 2510.86,-1134.45"/>
</g>
<!-- 7090&#45;&gt;15995 -->
<g id="edge28" class="edge">
<title>7090&#45;&gt;15995</title>
<path fill="none" stroke="#deb256" stroke-width="2" d="M2275.16,-1267.99C2314.02,-1437.01 2313.42,-1454.06 2233.61,-1590.37"/>
<polygon fill="#deb256" stroke="#deb256" stroke-width="2" points="2229.21,-1597.85 2230.39,-1586.95 2230.08,-1595.39 2233.84,-1588.98 2234.27,-1589.23 2234.71,-1589.48 2230.94,-1595.9 2238.16,-1591.51 2229.21,-1597.85"/>
</g>
<!-- 7090&#45;&gt;45324 -->
<g id="edge29" class="edge">
<title>7090&#45;&gt;45324</title>
<path fill="none" stroke="#379469" stroke-dasharray="5,2" d="M2219,-1224.22C2121.31,-1183.89 2090.52,-1177.7 2020.65,-1198.65"/>
<polygon fill="#379469" stroke="#379469" points="2011.21,-1201.58 2019.43,-1194.32 2014.83,-1200.46 2020.77,-1198.62 2020.77,-1198.62 2020.77,-1198.62 2014.83,-1200.46 2022.1,-1202.92 2011.21,-1201.58"/>
</g>
<!-- 66949 -->
<g id="node37" class="node">
<title>66949</title>
<polygon fill="none" stroke="#00876c" points="2501.17,-1172.57 2501.17,-1187.48 2415.39,-1198.03 2294.08,-1198.03 2208.3,-1187.48 2208.3,-1172.57 2294.08,-1162.03 2415.39,-1162.03 2501.17,-1172.57"/>
<polygon fill="none" stroke="#00876c" points="2505.17,-1169.03 2505.17,-1191.02 2415.63,-1202.03 2293.83,-1202.03 2204.3,-1191.02 2204.3,-1169.03 2293.83,-1158.03 2415.63,-1158.03 2505.17,-1169.03"/>
<text text-anchor="middle" x="2354.73" y="-1174.98" font-family="Times,serif" font-size="14.00">scancode:Crystal Stacker License</text>
</g>
<!-- 7090&#45;&gt;66949 -->
<g id="edge30" class="edge">
<title>7090&#45;&gt;66949</title>
<path fill="none" stroke="#00876c" stroke-width="2" d="M2295.24,-1223.4C2301.71,-1217.76 2307.03,-1213.16 2311.6,-1209.32"/>
<polygon fill="#00876c" stroke="#00876c" stroke-width="2" points="2318.19,-1203.91 2313.31,-1213.73 2316.53,-1205.92 2310.78,-1210.64 2310.46,-1210.25 2310.14,-1209.87 2315.89,-1205.15 2307.61,-1206.77 2318.19,-1203.91"/>
</g>
<!-- 7091 -->
<g id="node15" class="node">
<title>7091</title>
<polygon fill="none" stroke="#e09d4b" points="2958.71,-877.36 2958.71,-892.28 2915.77,-902.82 2855.03,-902.82 2812.09,-892.28 2812.09,-877.36 2855.03,-866.82 2915.77,-866.82 2958.71,-877.36"/>
<text text-anchor="middle" x="2885.4" y="-879.77" font-family="Times,serif" font-size="14.00">Crystal Stacker</text>
</g>
<!-- 7091&#45;&gt;7089 -->
<g id="edge31" class="edge">
<title>7091&#45;&gt;7089</title>
<path fill="none" stroke="#e09d4b" stroke-dasharray="5,2" d="M2863.43,-903.28C2801.44,-955.3 2781.88,-970.49 2625.88,-1088.81"/>
<polygon fill="#e09d4b" stroke="#e09d4b" points="2618.35,-1094.53 2623.59,-1084.9 2621.36,-1092.24 2626.31,-1088.49 2626.31,-1088.49 2626.31,-1088.49 2621.36,-1092.24 2629.03,-1092.07 2618.35,-1094.53"/>
</g>
<!-- 7092 -->
<g id="node16" class="node">
<title>7092</title>
<text text-anchor="middle" x="3760.69" y="-993.54" font-family="Times,serif" font-size="14.00">https://fedoraproject.org/wiki/Licensing/CrystalStacker</text>
</g>
<!-- 7092&#45;&gt;7088 -->
<g id="edge32" class="edge">
<title>7092&#45;&gt;7088</title>
<path fill="none" stroke="#e09d4b" d="M3703.16,-980.66C3611.1,-953.03 3565.66,-948.3 3388.17,-953.59"/>
<polygon fill="#e09d4b" stroke="#e09d4b" points="3388.25,-950.08 3378.36,-953.89 3388.47,-957.08 3388.25,-950.08"/>
</g>
<!-- 10364 -->
<g id="node17" class="node">
<title>10364</title>
<text text-anchor="start" x="1092.06" y="-2728.07" font-family="Times,serif" font-size="14.00">BlueOakCouncil: </text>
<text text-anchor="start" x="1190.31" y="-2728.07" font-family="Times,serif" font-weight="bold" font-size="14.00" fill="#8b0000">Lead</text>
<text text-anchor="start" x="937.56" y="-2714.07" font-family="Times,serif" font-size="14.00">These licenses lack one or more essential elements of permissive open software</text>
<text text-anchor="start" x="948.43" y="-2700.07" font-family="Times,serif" font-size="14.00">licenses or impose unusually burdensome requirements. &#160;Many use unclear,</text>
<text text-anchor="start" x="1067.68" y="-2686.07" font-family="Times,serif" font-size="14.00">jocular, or incomplete language.</text>
</g>
<!-- 10364&#45;&gt;10408 -->
<g id="edge33" class="edge">
<title>10364&#45;&gt;10408</title>
<path fill="none" stroke="#00876c" d="M1200.99,-2680.51C1307.87,-2604.46 1338.75,-2573.83 1568.85,-2333.21"/>
<polygon fill="#00876c" stroke="#00876c" points="1571.34,-2335.67 1575.72,-2326.02 1566.28,-2330.83 1571.34,-2335.67"/>
</g>
<!-- 10408&#45;&gt;10409 -->
<g id="edge34" class="edge">
<title>10408&#45;&gt;10409</title>
<path fill="none" stroke="#00876c" d="M1608.49,-2266.84C1630.65,-2111.97 1639.6,-2088.66 1786.52,-1759.47"/>
<polygon fill="#00876c" stroke="#00876c" points="1789.64,-1761.08 1790.52,-1750.52 1783.25,-1758.22 1789.64,-1761.08"/>
</g>
<!-- 10410 -->
<g id="node20" class="node">
<title>10410</title>
<text text-anchor="middle" x="1485.06" y="-2767.6" font-family="Times,serif" font-size="14.00">https://spdx.org/licenses/CrystalStacker.html</text>
</g>
<!-- 10410&#45;&gt;10408 -->
<g id="edge35" class="edge">
<title>10410&#45;&gt;10408</title>
<path fill="none" stroke="#00876c" d="M1486.62,-2754.71C1497.85,-2626.35 1502.16,-2608.97 1591.33,-2335.94"/>
<polygon fill="#00876c" stroke="#00876c" points="1594.56,-2337.32 1594.34,-2326.72 1587.91,-2335.14 1594.56,-2337.32"/>
</g>
<!-- 15994&#45;&gt;15995 -->
<g id="edge36" class="edge">
<title>15994&#45;&gt;15995</title>
<path fill="none" stroke="#deb256" d="M2291.14,-2176.98C2279.13,-2032.64 2275.44,-2007.17 2220.07,-1655.98"/>
<polygon fill="#deb256" stroke="#deb256" points="2223.54,-1655.51 2218.52,-1646.18 2216.62,-1656.6 2223.54,-1655.51"/>
</g>
<!-- 15995&#45;&gt;1562 -->
<g id="edge37" class="edge">
<title>15995&#45;&gt;1562</title>
<path fill="none" stroke="#00876c" stroke-width="2" d="M2211.63,-1600C2195.6,-1526.41 2129.44,-1291.44 2099.39,-1200.03"/>
<polygon fill="#00876c" stroke="#00876c" stroke-width="2" points="2096.69,-1191.93 2104.12,-1199.99 2097.97,-1194.2 2100.33,-1201.25 2099.85,-1201.41 2099.38,-1201.57 2097.02,-1194.52 2095.59,-1202.84 2096.69,-1191.93"/>
</g>
<!-- 15995&#45;&gt;45324 -->
<g id="edge38" class="edge">
<title>15995&#45;&gt;45324</title>
<path fill="none" stroke="#379469" stroke-dasharray="5,2" d="M2187.31,-1600.08C1996.54,-1445.06 1984.12,-1428.62 1951.82,-1257.52"/>
<polygon fill="#379469" stroke="#379469" points="1949.99,-1247.77 1956.26,-1256.76 1950.69,-1251.48 1951.83,-1257.6 1951.83,-1257.6 1951.83,-1257.6 1950.69,-1251.48 1947.41,-1258.43 1949.99,-1247.77"/>
</g>
<!-- 15996 -->
<g id="node23" class="node">
<title>15996</title>
<polygon fill="none" stroke="black" points="2574.74,-1863.73 2574.74,-1878.64 2533.75,-1889.18 2475.77,-1889.18 2434.77,-1878.64 2434.77,-1863.73 2475.77,-1853.18 2533.75,-1853.18 2574.74,-1863.73"/>
<polygon fill="none" stroke="black" points="2578.74,-1860.62 2578.74,-1881.74 2534.25,-1893.18 2475.26,-1893.18 2430.77,-1881.74 2430.77,-1860.62 2475.26,-1849.18 2534.25,-1849.18 2578.74,-1860.62"/>
<text text-anchor="middle" x="2504.76" y="-1866.13" font-family="Times,serif" font-size="14.00">crystal&#45;stacker</text>
</g>
<!-- 15996&#45;&gt;15995 -->
<g id="edge39" class="edge">
<title>15996&#45;&gt;15995</title>
<path fill="none" stroke="black" stroke-width="2" d="M2469.2,-1850.4C2402.55,-1810.69 2379.94,-1789.58 2244.48,-1652.46"/>
<polygon fill="black" stroke="black" stroke-width="2" points="2238.39,-1646.29 2248.61,-1650.24 2240.54,-1647.76 2245.77,-1653.05 2245.41,-1653.4 2245.06,-1653.76 2239.83,-1648.46 2242.21,-1656.57 2238.39,-1646.29"/>
</g>
<!-- 15997 -->
<g id="node24" class="node">
<title>15997</title>
<text text-anchor="middle" x="2475.4" y="-2805.59" font-family="Times,serif" font-size="14.00">https://fedoraproject.org/wiki/Licensing:CrystalStacker?rd=Licensing/CrystalStacker</text>
</g>
<!-- 15997&#45;&gt;15994 -->
<g id="edge40" class="edge">
<title>15997&#45;&gt;15994</title>
<path fill="none" stroke="#deb256" d="M2469.05,-2792.9C2413.12,-2636.77 2407.61,-2618.39 2304.7,-2246.56"/>
<polygon fill="#deb256" stroke="#deb256" points="2308.15,-2245.9 2302.1,-2237.2 2301.4,-2247.77 2308.15,-2245.9"/>
</g>
<!-- 15998 -->
<g id="node25" class="node">
<title>15998</title>
<text text-anchor="middle" x="2616.28" y="-2047.66" font-family="Times,serif" font-size="14.00">$TEXT</text>
</g>
<!-- 15998&#45;&gt;15994 -->
<g id="edge41" class="edge">
<title>15998&#45;&gt;15994</title>
<path fill="none" stroke="#deb256" d="M2599.48,-2070.68C2529.12,-2145.8 2498.32,-2175.77 2445.12,-2190.07"/>
<polygon fill="#deb256" stroke="#deb256" points="2444.53,-2186.61 2435.63,-2192.38 2446.18,-2193.42 2444.53,-2186.61"/>
</g>
<!-- 15998&#45;&gt;34451 -->
<g id="edge42" class="edge">
<title>15998&#45;&gt;34451</title>
<path fill="none" stroke="#e18745" d="M2619.16,-2034.74C2637.85,-1917.02 2635.5,-1900.71 2561.85,-1692.85"/>
<polygon fill="#e18745" stroke="#e18745" points="2565.2,-1691.84 2558.56,-1683.58 2558.61,-1694.18 2565.2,-1691.84"/>
</g>
<!-- 34451&#45;&gt;34452 -->
<g id="edge43" class="edge">
<title>34451&#45;&gt;34452</title>
<path fill="none" stroke="#e18745" d="M2400.03,-1662.17C2321.28,-1658.44 2253.93,-1630.49 2070.46,-1546.6"/>
<polygon fill="#e18745" stroke="#e18745" points="2072.14,-1543.52 2061.59,-1542.54 2069.23,-1549.89 2072.14,-1543.52"/>
</g>
<!-- 35432 -->
<g id="node28" class="node">
<title>35432</title>
<text text-anchor="middle" x="842.5" y="-1347.11" font-family="Times,serif" font-size="14.00">LicenseTag (ScopedLicenseTag &quot;OrtLicenseCategorization&quot; &quot;permissive&quot; NoLicenseTagText)</text>
</g>
<!-- 35635 -->
<g id="node30" class="node">
<title>35635</title>
<ellipse fill="none" stroke="#d43d51" cx="1483.51" cy="-1323.18" rx="158.75" ry="28.99"/>
<text text-anchor="middle" x="1483.51" y="-1326.38" font-family="Times,serif" font-size="14.00" fill="gray">OrtLicenseCategorization</text>
<text text-anchor="middle" x="1483.51" y="-1309.88" font-family="Times,serif" font-size="14.00" fill="gray">f0b65ab152848fe032b2c3500045a032</text>
</g>
<!-- 35432&#45;&gt;35635 -->
<g id="edge44" class="edge">
<title>35432&#45;&gt;35635</title>
<path fill="none" stroke="#d43d51" d="M1001.65,-1334.18C1070.26,-1328.71 1147.02,-1326.86 1313.64,-1324.95"/>
<polygon fill="#d43d51" stroke="#d43d51" points="1313.27,-1328.45 1323.23,-1324.84 1313.19,-1321.45 1313.27,-1328.45"/>
</g>
<!-- 35433 -->
<g id="node29" class="node">
<title>35433</title>
<text text-anchor="middle" x="880.35" y="-1631.14" font-family="Times,serif" font-size="14.00">LicenseTag (ScopedLicenseTag &quot;OrtLicenseCategorization&quot; &quot;include&#45;in&#45;notice&#45;file&quot; NoLicenseTagText)</text>
</g>
<!-- 35433&#45;&gt;35635 -->
<g id="edge45" class="edge">
<title>35433&#45;&gt;35635</title>
<path fill="none" stroke="#d43d51" d="M900.43,-1618.38C1037.06,-1497.44 1061.68,-1483.38 1402.93,-1353.73"/>
<polygon fill="#d43d51" stroke="#d43d51" points="1404.12,-1357.03 1412.23,-1350.2 1401.63,-1350.48 1404.12,-1357.03"/>
</g>
<!-- 35635&#45;&gt;1562 -->
<g id="edge46" class="edge">
<title>35635&#45;&gt;1562</title>
<path fill="none" stroke="#d43d51" d="M1523.5,-1294.98C1657.87,-1201.12 1695.49,-1189.52 1973.3,-1170.52"/>
<polygon fill="#d43d51" stroke="#d43d51" points="1973.31,-1174.02 1983.05,-1169.85 1972.83,-1167.04 1973.31,-1174.02"/>
</g>
<!-- 41429 -->
<g id="node31" class="node">
<title>41429</title>
<ellipse fill="none" stroke="#379469" cx="2528.52" cy="-2321.64" rx="155.03" ry="28.99"/>
<text text-anchor="middle" x="2528.52" y="-2324.84" font-family="Times,serif" font-size="14.00" fill="gray">CavilLicenseChange</text>
<text text-anchor="middle" x="2528.52" y="-2308.34" font-family="Times,serif" font-size="14.00" fill="gray">6e27cefa62beef75118e6ee6c361d8c0</text>
</g>
<!-- 41429&#45;&gt;41430 -->
<g id="edge47" class="edge">
<title>41429&#45;&gt;41430</title>
<path fill="none" stroke="#379469" d="M2512.18,-2292.61C2460.21,-2200.11 2448.12,-2175 2334.92,-1932.63"/>
<polygon fill="#379469" stroke="#379469" points="2338.2,-1931.38 2330.79,-1923.8 2331.86,-1934.34 2338.2,-1931.38"/>
</g>
<!-- 45323 -->
<g id="node33" class="node">
<title>45323</title>
<ellipse fill="none" stroke="#379469" cx="1681.87" cy="-730.6" rx="157.68" ry="28.99"/>
<text text-anchor="middle" x="1681.87" y="-733.8" font-family="Times,serif" font-size="14.00" fill="gray">MetaeffektLicense</text>
<text text-anchor="middle" x="1681.87" y="-717.3" font-family="Times,serif" font-size="14.00" fill="gray">5673ef17f9dc172e995357e181aa9568</text>
</g>
<!-- 45323&#45;&gt;45324 -->
<g id="edge48" class="edge">
<title>45323&#45;&gt;45324</title>
<path fill="none" stroke="#379469" d="M1693.69,-759.68C1744.91,-885.18 1758.08,-908.73 1926.45,-1191.99"/>
<polygon fill="#379469" stroke="#379469" points="1923.35,-1193.63 1931.47,-1200.44 1929.37,-1190.05 1923.35,-1193.63"/>
</g>
<!-- 45325 -->
<g id="node35" class="node">
<title>45325</title>
<polygon fill="none" stroke="#379469" points="1917.49,-929.39 1917.49,-944.3 1846.97,-954.85 1747.23,-954.85 1676.7,-944.3 1676.7,-929.39 1747.23,-918.85 1846.97,-918.85 1917.49,-929.39"/>
<text text-anchor="middle" x="1797.1" y="-931.8" font-family="Times,serif" font-size="14.00">Crystal Stacker is freeware</text>
</g>
<!-- 45325&#45;&gt;45324 -->
<g id="edge49" class="edge">
<title>45325&#45;&gt;45324</title>
<path fill="none" stroke="#379469" stroke-dasharray="5,2" d="M1803.64,-955.33C1829.09,-1026.78 1837.31,-1042.38 1926.6,-1192.32"/>
<polygon fill="#379469" stroke="#379469" points="1931.7,-1200.87 1922.71,-1194.58 1929.76,-1197.62 1926.58,-1192.28 1926.58,-1192.28 1926.58,-1192.28 1929.76,-1197.62 1930.44,-1189.98 1931.7,-1200.87"/>
</g>
<!-- 66948 -->
<g id="node36" class="node">
<title>66948</title>
<ellipse fill="none" stroke="#00876c" cx="2556.2" cy="-1243.07" rx="157.15" ry="28.99"/>
<text text-anchor="middle" x="2556.2" y="-1246.27" font-family="Times,serif" font-size="14.00" fill="gray">LicenseLynx</text>
<text text-anchor="middle" x="2556.2" y="-1229.77" font-family="Times,serif" font-size="14.00" fill="gray">a83cf7bdaf7d702e1c5cd3660187cb08</text>
</g>
<!-- 66948&#45;&gt;1562 -->
<g id="edge50" class="edge">
<title>66948&#45;&gt;1562</title>
<path fill="none" stroke="#00876c" d="M2512.53,-1214.83C2400.19,-1143.19 2364.98,-1133.73 2196.62,-1150.81"/>
<polygon fill="#00876c" stroke="#00876c" points="2196.43,-1147.31 2186.84,-1151.81 2197.14,-1154.27 2196.43,-1147.31"/>
</g>
<!-- 66949&#45;&gt;1562 -->
<g id="edge51" class="edge">
<title>66949&#45;&gt;1562</title>
<path fill="none" stroke="#00876c" stroke-width="2" d="M2309.67,-1157.65C2252.88,-1130.55 2227.74,-1126.23 2167.47,-1140.5"/>
<polygon fill="#00876c" stroke="#00876c" stroke-width="2" points="2159.01,-1142.58 2167.65,-1135.82 2161.38,-1141.48 2168.6,-1139.71 2168.72,-1140.19 2168.84,-1140.68 2161.62,-1142.46 2169.8,-1144.56 2159.01,-1142.58"/>
</g>
<!-- 66950&#45;&gt;1562 -->
<g id="edge52" class="edge">
<title>66950&#45;&gt;1562</title>
<path fill="none" stroke="#00876c" stroke-width="2" d="M1818.59,-1036.83C1866.58,-1048.6 1917.96,-1074.19 2028.37,-1132.98"/>
<polygon fill="#00876c" stroke="#00876c" stroke-width="2" points="2036.03,-1137.06 2025.09,-1136.33 2033.53,-1136.3 2026.97,-1132.8 2027.2,-1132.36 2027.44,-1131.92 2034,-1135.42 2029.32,-1128.39 2036.03,-1137.06"/>
</g>
<!-- 77116 -->
<g id="node39" class="node">
<title>77116</title>
<ellipse fill="none" stroke="#e09d4b" cx="641" cy="-529.64" rx="158.75" ry="28.99"/>
<text text-anchor="middle" x="641" y="-532.84" font-family="Times,serif" font-size="14.00" fill="gray">TLDRNaming</text>
<text text-anchor="middle" x="641" y="-516.34" font-family="Times,serif" font-size="14.00" fill="gray">e39dd0ffb347e878082b5b39ed0472a5</text>
</g>
<!-- 77116&#45;&gt;77117 -->
<g id="edge53" class="edge">
<title>77116&#45;&gt;77117</title>
<path fill="none" stroke="#e09d4b" d="M660.8,-558.57C743.17,-678.43 764.65,-698.53 1023.09,-914.85"/>
<polygon fill="#e09d4b" stroke="#e09d4b" points="1020.52,-917.26 1030.43,-920.99 1025.01,-911.89 1020.52,-917.26"/>
</g>
<!-- 77118 -->
<g id="node41" class="node">
<title>77118</title>
<polygon fill="none" stroke="#e09d4b" points="648.92,-816.81 648.92,-831.72 570.28,-842.26 459.06,-842.26 380.42,-831.72 380.42,-816.81 459.06,-806.26 570.28,-806.26 648.92,-816.81"/>
<polygon fill="none" stroke="#e09d4b" points="652.92,-813.31 652.92,-835.22 570.54,-846.26 458.8,-846.26 376.42,-835.22 376.42,-813.31 458.8,-802.26 570.54,-802.26 652.92,-813.31"/>
<text text-anchor="middle" x="514.67" y="-819.21" font-family="Times,serif" font-size="14.00">tldr&#45;slug:crystalstacker&#45;license</text>
</g>
<!-- 77118&#45;&gt;77117 -->
<g id="edge54" class="edge">
<title>77118&#45;&gt;77117</title>
<path fill="none" stroke="#e09d4b" stroke-width="2" d="M629.35,-838.88C703.14,-850.34 771.26,-867.6 972.01,-921.17"/>
<polygon fill="#e09d4b" stroke="#e09d4b" stroke-width="2" points="980.24,-923.37 969.42,-925.14 977.64,-923.19 970.45,-921.27 970.58,-920.79 970.71,-920.31 977.9,-922.22 971.74,-916.44 980.24,-923.37"/>
</g>
<!-- 77119 -->
<g id="node42" class="node">
<title>77119</title>
<polygon fill="none" stroke="#e09d4b" points="199.08,-729.01 199.08,-743.92 141.86,-754.47 60.93,-754.47 3.71,-743.92 3.71,-729.01 60.93,-718.47 141.86,-718.47 199.08,-729.01"/>
<polygon fill="none" stroke="#e09d4b" points="203.08,-725.68 203.08,-747.25 142.22,-758.47 60.57,-758.47 -0.29,-747.25 -0.29,-725.68 60.57,-714.47 142.22,-714.47 203.08,-725.68"/>
<text text-anchor="middle" x="101.39" y="-731.42" font-family="Times,serif" font-size="14.00">crystalstacker&#45;license</text>
</g>
<!-- 77119&#45;&gt;77118 -->
<g id="edge55" class="edge">
<title>77119&#45;&gt;77118</title>
<path fill="none" stroke="#e09d4b" stroke-width="2" d="M193.9,-749.38C244.72,-757.8 295.4,-769.72 425.87,-802.14"/>
<polygon fill="#e09d4b" stroke="#e09d4b" stroke-width="2" points="434.28,-804.23 423.49,-806.19 431.68,-804.1 424.46,-802.31 424.58,-801.82 424.7,-801.34 431.92,-803.13 425.66,-797.45 434.28,-804.23"/>
</g>
<!-- 77120 -->
<g id="node43" class="node">
<title>77120</title>
<text text-anchor="middle" x="260.07" y="-173.73" font-family="Times,serif" font-size="14.00">TLDR: https://tldrlegal.com/license/crystalstacker&#45;license</text>
</g>
<!-- 77120&#45;&gt;77116 -->
<g id="edge56" class="edge">
<title>77120&#45;&gt;77116</title>
<path fill="none" stroke="#e09d4b" d="M275.23,-196.57C358.38,-293.97 375.29,-309.61 597.88,-493.94"/>
<polygon fill="#e09d4b" stroke="#e09d4b" points="595.47,-496.49 605.4,-500.17 599.93,-491.1 595.47,-496.49"/>
</g>
</g>
</svg>
