<?xml version="1.0" encoding="UTF-8" standalone="no"?>
<!DOCTYPE svg PUBLIC "-//W3C//DTD SVG 1.1//EN"
 "http://www.w3.org/Graphics/SVG/1.1/DTD/svg11.dtd">
<!-- Generated by graphviz version 10.0.1 (0)
 -->
<!-- Pages: 1 -->
<svg width="2880pt" height="1519pt"
 viewBox="0.00 0.00 2880.00 1519.00" xmlns="http://www.w3.org/2000/svg" xmlns:xlink="http://www.w3.org/1999/xlink">
<g id="graph0" class="graph" transform="scale(1 1) rotate(0) translate(4 1515)">
<polygon fill="white" stroke="none" points="-4,4 -4,-1515 2876,-1515 2876,4 -4,4"/>
<!-- 5 -->
<g id="node1" class="node">
<title>5</title>
<text text-anchor="start" x="2477.63" y="-350.23" font-family="Times,serif" font-size="14.00">OSI: </text>
<text text-anchor="start" x="2506.88" y="-350.23" font-family="Times,serif" font-weight="bold" font-size="14.00" fill="#8b0000">Rejected</text>
</g>
<!-- 1590 -->
<g id="node2" class="node">
<title>1590</title>
<ellipse fill="none" stroke="#dac767" cx="2226.03" cy="-495.63" rx="155.03" ry="28.99"/>
<text text-anchor="middle" x="2226.03" y="-498.83" font-family="Times,serif" font-size="14.00" fill="gray">SPDXLicense</text>
<text text-anchor="middle" x="2226.03" y="-482.33" font-family="Times,serif" font-size="14.00" fill="gray">f0d1f8e8c22f6840bc5f9e7996151e05</text>
</g>
<!-- 5&#45;&gt;1590 -->
<g id="edge1" class="edge">
<title>5&#45;&gt;1590</title>
<path fill="none" stroke="#dac767" d="M2486.28,-372.26C2437.52,-400.17 2412.35,-412.33 2297.13,-463.89"/>
<polygon fill="#dac767" stroke="#dac767" points="2295.9,-460.6 2288.2,-467.88 2298.76,-466.99 2295.9,-460.6"/>
</g>
<!-- 1591 -->
<g id="node3" class="node">
<title>1591</title>
<polygon fill="none" stroke="black" points="1925.15,-753.73 1925.15,-768.64 1871.17,-779.18 1794.84,-779.18 1740.86,-768.64 1740.86,-753.73 1794.84,-743.18 1871.17,-743.18 1925.15,-753.73"/>
<polygon fill="none" stroke="black" points="1929.15,-750.43 1929.15,-771.93 1871.56,-783.18 1794.45,-783.18 1736.86,-771.93 1736.86,-750.43 1794.45,-739.18 1871.56,-739.18 1929.15,-750.43"/>
<polygon fill="none" stroke="black" points="1933.15,-747.14 1933.15,-775.23 1871.95,-787.18 1794.06,-787.18 1732.86,-775.23 1732.86,-747.14 1794.06,-735.18 1871.95,-735.18 1933.15,-747.14"/>
<text text-anchor="middle" x="1833.01" y="-756.13" font-family="Times,serif" font-size="14.00">spdx:DEC&#45;3&#45;Clause</text>
</g>
<!-- 1590&#45;&gt;1591 -->
<g id="edge2" class="edge">
<title>1590&#45;&gt;1591</title>
<path fill="none" stroke="#dac767" d="M2199.27,-524.63C2125.95,-603.23 2099.34,-620.39 1890.23,-730.97"/>
<polygon fill="#dac767" stroke="#dac767" points="1888.67,-727.83 1881.47,-735.6 1891.95,-734.02 1888.67,-727.83"/>
</g>
<!-- 7096 -->
<g id="node13" class="node">
<title>7096</title>
<polygon fill="none" stroke="#e09d4b" points="1550.05,-867.16 1550.05,-882.07 1490.88,-892.61 1407.2,-892.61 1348.03,-882.07 1348.03,-867.16 1407.2,-856.61 1490.88,-856.61 1550.05,-867.16"/>
<polygon fill="none" stroke="#e09d4b" points="1554.05,-863.81 1554.05,-885.42 1491.23,-896.61 1406.85,-896.61 1344.03,-885.42 1344.03,-863.81 1406.85,-852.61 1491.23,-852.61 1554.05,-863.81"/>
<text text-anchor="middle" x="1449.04" y="-869.56" font-family="Times,serif" font-size="14.00">Fedora:DEC&#45;3&#45;Clause</text>
</g>
<!-- 1591&#45;&gt;7096 -->
<g id="edge3" class="edge">
<title>1591&#45;&gt;7096</title>
<path fill="none" stroke="#e09d4b" stroke-width="2" d="M1794.4,-787.66C1728.16,-831.89 1696.45,-842.39 1558.45,-860.74"/>
<polygon fill="#e09d4b" stroke="#e09d4b" stroke-width="2" points="1549.86,-861.87 1559.19,-856.11 1552.34,-861.04 1559.71,-860.07 1559.78,-860.57 1559.84,-861.06 1552.47,-862.03 1560.37,-865.03 1549.86,-861.87"/>
</g>
<!-- 16221 -->
<g id="node15" class="node">
<title>16221</title>
<polygon fill="none" stroke="black" points="2158.72,-978.44 2158.72,-993.36 2099.23,-1003.9 2015.09,-1003.9 1955.6,-993.36 1955.6,-978.44 2015.09,-967.9 2099.23,-967.9 2158.72,-978.44"/>
<polygon fill="none" stroke="black" points="2162.72,-975.09 2162.72,-996.71 2099.58,-1007.9 2014.74,-1007.9 1951.6,-996.71 1951.6,-975.09 2014.74,-963.9 2099.58,-963.9 2162.72,-975.09"/>
<text text-anchor="middle" x="2057.16" y="-980.85" font-family="Times,serif" font-size="14.00">scancode:dec&#45;3&#45;clause</text>
</g>
<!-- 1591&#45;&gt;16221 -->
<g id="edge4" class="edge">
<title>1591&#45;&gt;16221</title>
<path fill="none" stroke="#deb256" stroke-width="2" d="M1853.1,-787.43C1890.85,-829.55 1972.52,-911.74 2020.35,-956.03"/>
<polygon fill="#deb256" stroke="#deb256" stroke-width="2" points="2026.79,-961.94 2016.38,-958.49 2024.56,-960.57 2019.08,-955.55 2019.42,-955.18 2019.76,-954.81 2025.24,-959.84 2022.46,-951.86 2026.79,-961.94"/>
</g>
<!-- 47156 -->
<g id="node23" class="node">
<title>47156</title>
<polygon fill="none" stroke="#379469" points="1846.24,-1077.72 1846.24,-1092.63 1758.51,-1103.18 1634.45,-1103.18 1546.72,-1092.63 1546.72,-1077.72 1634.45,-1067.18 1758.51,-1067.18 1846.24,-1077.72"/>
<polygon fill="none" stroke="#379469" points="1850.24,-1074.17 1850.24,-1096.18 1758.75,-1107.18 1634.21,-1107.18 1542.72,-1096.18 1542.72,-1074.17 1634.21,-1063.18 1758.75,-1063.18 1850.24,-1074.17"/>
<text text-anchor="middle" x="1696.48" y="-1080.13" font-family="Times,serif" font-size="14.00">metaeffekt:DEC 3&#45;Clause License</text>
</g>
<!-- 1591&#45;&gt;47156 -->
<g id="edge5" class="edge">
<title>1591&#45;&gt;47156</title>
<path fill="none" stroke="#379469" stroke-width="2" d="M1832.23,-787.47C1827.54,-940.77 1822.21,-959.03 1726.49,-1055.26"/>
<polygon fill="#379469" stroke="#379469" stroke-width="2" points="1720.54,-1061.21 1724.42,-1050.96 1722,-1059.05 1727.25,-1053.78 1727.61,-1054.14 1727.96,-1054.49 1722.71,-1059.75 1730.79,-1057.31 1720.54,-1061.21"/>
</g>
<!-- 1592 -->
<g id="node4" class="node">
<title>1592</title>
<polygon fill="none" stroke="black" points="1795.02,-1017.86 1795.02,-1032.77 1753.7,-1043.32 1695.26,-1043.32 1653.94,-1032.77 1653.94,-1017.86 1695.26,-1007.32 1753.7,-1007.32 1795.02,-1017.86"/>
<polygon fill="none" stroke="black" points="1799.02,-1014.75 1799.02,-1035.88 1754.2,-1047.32 1694.76,-1047.32 1649.94,-1035.88 1649.94,-1014.75 1694.76,-1003.32 1754.2,-1003.32 1799.02,-1014.75"/>
<text text-anchor="middle" x="1724.48" y="-1020.27" font-family="Times,serif" font-size="14.00">DEC&#45;3&#45;Clause</text>
</g>
<!-- 1592&#45;&gt;1591 -->
<g id="edge6" class="edge">
<title>1592&#45;&gt;1591</title>
<path fill="none" stroke="black" stroke-width="2" d="M1746.09,-1002.94C1823.56,-922.27 1831.03,-906.15 1832.62,-798.53"/>
<polygon fill="black" stroke="black" stroke-width="2" points="1832.73,-789.91 1837.1,-799.97 1833.2,-792.48 1833.1,-799.92 1832.6,-799.91 1832.1,-799.9 1832.2,-792.47 1828.1,-799.85 1832.73,-789.91"/>
</g>
<!-- 1592&#45;&gt;7096 -->
<g id="edge7" class="edge">
<title>1592&#45;&gt;7096</title>
<path fill="none" stroke="#e09d4b" stroke-width="2" d="M1667.9,-1009.66C1621.4,-994.67 1591.38,-975.34 1489.72,-903.44"/>
<polygon fill="#e09d4b" stroke="#e09d4b" stroke-width="2" points="1482.63,-898.43 1493.4,-900.53 1485.02,-899.5 1491.09,-903.8 1490.8,-904.2 1490.51,-904.61 1484.44,-900.32 1488.2,-907.88 1482.63,-898.43"/>
</g>
<!-- 1592&#45;&gt;16221 -->
<g id="edge8" class="edge">
<title>1592&#45;&gt;16221</title>
<path fill="none" stroke="black" stroke-width="2" d="M1799.48,-1029.39C1915.04,-1035.24 1949.48,-1033.31 2000.86,-1012"/>
<polygon fill="black" stroke="black" stroke-width="2" points="2008.8,-1008.59 2001.38,-1016.67 2006.64,-1010.06 1999.81,-1013 1999.61,-1012.54 1999.41,-1012.08 2006.25,-1009.14 1997.83,-1008.4 2008.8,-1008.59"/>
</g>
<!-- 41442 -->
<g id="node21" class="node">
<title>41442</title>
<polygon fill="none" stroke="#379469" points="1840.76,-1219.05 1840.76,-1233.96 1786.46,-1244.5 1709.67,-1244.5 1655.36,-1233.96 1655.36,-1219.05 1709.67,-1208.5 1786.46,-1208.5 1840.76,-1219.05"/>
<polygon fill="none" stroke="#379469" points="1844.76,-1215.75 1844.76,-1237.26 1786.85,-1248.5 1709.28,-1248.5 1651.36,-1237.26 1651.36,-1215.75 1709.28,-1204.5 1786.85,-1204.5 1844.76,-1215.75"/>
<text text-anchor="middle" x="1748.06" y="-1221.45" font-family="Times,serif" font-size="14.00">cavil:DEC&#45;3&#45;Clause</text>
</g>
<!-- 1592&#45;&gt;41442 -->
<g id="edge9" class="edge">
<title>1592&#45;&gt;41442</title>
<path fill="none" stroke="#379469" stroke-width="2" d="M1730.75,-1047.55C1755.53,-1135.57 1760,-1155.68 1754.2,-1193.45"/>
<polygon fill="#379469" stroke="#379469" stroke-width="2" points="1752.81,-1201.65 1750.04,-1191.04 1752.75,-1199.04 1753.99,-1191.71 1754.48,-1191.79 1754.97,-1191.87 1753.73,-1199.21 1758.92,-1192.54 1752.81,-1201.65"/>
</g>
<!-- 1592&#45;&gt;47156 -->
<g id="edge10" class="edge">
<title>1592&#45;&gt;47156</title>
<path fill="none" stroke="#379469" stroke-dasharray="5,2" d="M1721.34,-1047.73C1721.05,-1049.35 1720.76,-1050.85 1720.45,-1052.26"/>
<polygon fill="#379469" stroke="#379469" points="1717.42,-1061.67 1716.21,-1050.77 1718.58,-1058.07 1720.49,-1052.15 1720.49,-1052.15 1720.49,-1052.15 1718.58,-1058.07 1724.77,-1053.53 1717.42,-1061.67"/>
</g>
<!-- 1593 -->
<g id="node5" class="node">
<title>1593</title>
<polygon fill="none" stroke="black" points="2077.54,-918.04 2077.54,-932.95 2016.75,-943.49 1930.78,-943.49 1869.99,-932.95 1869.99,-918.04 1930.78,-907.49 2016.75,-907.49 2077.54,-918.04"/>
<polygon fill="none" stroke="black" points="2081.54,-914.67 2081.54,-936.31 2017.1,-947.49 1930.44,-947.49 1865.99,-936.31 1865.99,-914.67 1930.44,-903.49 2017.1,-903.49 2081.54,-914.67"/>
<text text-anchor="middle" x="1973.77" y="-920.44" font-family="Times,serif" font-size="14.00">DEC 3&#45;Clause License</text>
</g>
<!-- 1593&#45;&gt;1591 -->
<g id="edge11" class="edge">
<title>1593&#45;&gt;1591</title>
<path fill="none" stroke="#dac767" stroke-width="2" d="M1965.3,-903.25C1947.78,-858.55 1937.09,-845.19 1874.08,-794.12"/>
<polygon fill="#dac767" stroke="#dac767" stroke-width="2" points="1867.6,-788.89 1878.21,-791.67 1869.91,-790.11 1875.7,-794.78 1875.38,-795.17 1875.07,-795.56 1869.28,-790.89 1872.56,-798.67 1867.6,-788.89"/>
</g>
<!-- 1593&#45;&gt;16221 -->
<g id="edge12" class="edge">
<title>1593&#45;&gt;16221</title>
<path fill="none" stroke="#deb256" stroke-width="2" d="M2010.72,-947.98C2016.27,-951.45 2020.83,-954.37 2024.72,-957.01"/>
<polygon fill="#deb256" stroke="#deb256" stroke-width="2" points="2031.74,-962.05 2020.99,-959.87 2029.36,-960.96 2023.32,-956.62 2023.62,-956.21 2023.91,-955.81 2029.95,-960.15 2026.24,-952.56 2031.74,-962.05"/>
</g>
<!-- 1593&#45;&gt;47156 -->
<g id="edge13" class="edge">
<title>1593&#45;&gt;47156</title>
<path fill="none" stroke="#379469" stroke-width="2" d="M1957.12,-947.86C1902.81,-1020.32 1883.55,-1037.37 1789.27,-1062.41"/>
<polygon fill="#379469" stroke="#379469" stroke-width="2" points="1781.02,-1064.57 1789.56,-1057.68 1783.37,-1063.43 1790.57,-1061.55 1790.7,-1062.04 1790.82,-1062.52 1783.63,-1064.4 1791.83,-1066.39 1781.02,-1064.57"/>
</g>
<!-- 66956 -->
<g id="node25" class="node">
<title>66956</title>
<polygon fill="none" stroke="#00876c" points="1751.01,-812.14 1751.01,-827.05 1677.56,-837.6 1573.69,-837.6 1500.24,-827.05 1500.24,-812.14 1573.69,-801.6 1677.56,-801.6 1751.01,-812.14"/>
<polygon fill="none" stroke="#00876c" points="1755.01,-808.68 1755.01,-830.52 1677.85,-841.6 1573.4,-841.6 1496.24,-830.52 1496.24,-808.68 1573.4,-797.6 1677.85,-797.6 1755.01,-808.68"/>
<text text-anchor="middle" x="1625.63" y="-814.55" font-family="Times,serif" font-size="14.00">spdx:DEC 3&#45;Clause License</text>
</g>
<!-- 1593&#45;&gt;66956 -->
<g id="edge14" class="edge">
<title>1593&#45;&gt;66956</title>
<path fill="none" stroke="#00876c" stroke-width="2" d="M1909.82,-906.72C1862.74,-892.8 1823.08,-880.63 1702.01,-843.21"/>
<polygon fill="#00876c" stroke="#00876c" stroke-width="2" points="1693.93,-840.72 1704.81,-839.37 1696.52,-840.99 1703.63,-843.19 1703.48,-843.67 1703.33,-844.15 1696.23,-841.95 1702.15,-847.97 1693.93,-840.72"/>
</g>
<!-- 1594 -->
<g id="node6" class="node">
<title>1594</title>
<text text-anchor="middle" x="2351" y="-175.99" font-family="Times,serif" font-size="14.00">$TEXT</text>
</g>
<!-- 1594&#45;&gt;1590 -->
<g id="edge15" class="edge">
<title>1594&#45;&gt;1590</title>
<path fill="none" stroke="#dac767" d="M2350.75,-198.84C2349.17,-300.45 2344.18,-315.74 2251.45,-457.02"/>
<polygon fill="#dac767" stroke="#dac767" points="2248.61,-454.97 2246.05,-465.25 2254.46,-458.81 2248.61,-454.97"/>
</g>
<!-- 1595 -->
<g id="node7" class="node">
<title>1595</title>
<text text-anchor="middle" x="2424.12" y="-13.38" font-family="Times,serif" font-size="14.00">$TEXT</text>
</g>
<!-- 1595&#45;&gt;1594 -->
<g id="edge16" class="edge">
<title>1595&#45;&gt;1594</title>
<path fill="none" stroke="#dac767" d="M2421.96,-36.2C2416.81,-75.69 2411.25,-87.79 2368.88,-153.45"/>
<polygon fill="#dac767" stroke="#dac767" points="2365.96,-151.51 2363.47,-161.81 2371.84,-155.31 2365.96,-151.51"/>
</g>
<!-- 1596 -->
<g id="node8" class="node">
<title>1596</title>
<text text-anchor="middle" x="2517.43" y="-979.58" font-family="Times,serif" font-size="14.00">https://gitlab.freedesktop.org/xorg/xserver/&#45;/blob/master/COPYING?ref_type=heads#L239</text>
</g>
<!-- 1596&#45;&gt;1590 -->
<g id="edge17" class="edge">
<title>1596&#45;&gt;1590</title>
<path fill="none" stroke="#dac767" d="M2515.11,-966.68C2487.01,-750.49 2479.85,-733.51 2265.02,-532.11"/>
<polygon fill="#dac767" stroke="#dac767" points="2267.42,-529.57 2257.73,-525.29 2262.64,-534.68 2267.42,-529.57"/>
</g>
<!-- 16220 -->
<g id="node14" class="node">
<title>16220</title>
<ellipse fill="none" stroke="#deb256" cx="2516.78" cy="-1054.27" rx="158.22" ry="28.99"/>
<text text-anchor="middle" x="2516.78" y="-1057.47" font-family="Times,serif" font-size="14.00" fill="gray">ScancodeData</text>
<text text-anchor="middle" x="2516.78" y="-1040.97" font-family="Times,serif" font-size="14.00" fill="gray">1b91f47d3e5c8be0fde71594620d265c</text>
</g>
<!-- 1596&#45;&gt;16220 -->
<g id="edge18" class="edge">
<title>1596&#45;&gt;16220</title>
<path fill="none" stroke="#deb256" d="M2523.46,-1002.52C2524.81,-1006.82 2525.8,-1010.45 2526.43,-1013.72"/>
<polygon fill="#deb256" stroke="#deb256" points="2522.93,-1013.85 2526.98,-1023.64 2529.92,-1013.46 2522.93,-1013.85"/>
</g>
<!-- 5550 -->
<g id="node9" class="node">
<title>5550</title>
<text text-anchor="middle" x="2796.77" y="-1282.8" font-family="Times,serif" font-size="14.00">LicenseType Permissive</text>
</g>
<!-- 5550&#45;&gt;16220 -->
<g id="edge19" class="edge">
<title>5550&#45;&gt;16220</title>
<path fill="none" stroke="#deb256" d="M2783.12,-1269.95C2730.43,-1201.21 2714.49,-1187.31 2568.08,-1088.74"/>
<polygon fill="#deb256" stroke="#deb256" points="2570.22,-1085.96 2559.97,-1083.28 2566.31,-1091.77 2570.22,-1085.96"/>
</g>
<!-- 6592 -->
<g id="node10" class="node">
<title>6592</title>
<text text-anchor="middle" x="621.98" y="-888.5" font-family="Times,serif" font-size="14.00">[&quot;allowed&quot;]</text>
</g>
<!-- 7095 -->
<g id="node12" class="node">
<title>7095</title>
<ellipse fill="none" stroke="#e09d4b" cx="971.26" cy="-887.64" rx="158.75" ry="28.99"/>
<text text-anchor="middle" x="971.26" y="-890.84" font-family="Times,serif" font-size="14.00" fill="gray">FedoraEntry</text>
<text text-anchor="middle" x="971.26" y="-874.34" font-family="Times,serif" font-size="14.00" fill="gray">01c5dd8629fa1c0f355619b3590bc5b8</text>
</g>
<!-- 6592&#45;&gt;7095 -->
<g id="edge20" class="edge">
<title>6592&#45;&gt;7095</title>
<path fill="none" stroke="#e09d4b" d="M661.49,-897.69C708.6,-902.3 737.42,-902.96 811.13,-898.62"/>
<polygon fill="#e09d4b" stroke="#e09d4b" points="811.06,-902.13 820.83,-898.03 810.64,-895.14 811.06,-902.13"/>
</g>
<!-- 6593 -->
<g id="node11" class="node">
<title>6593</title>
<text text-anchor="start" x="178.3" y="-937.04" font-family="Times,serif" font-size="14.00">Fedora: </text>
<text text-anchor="start" x="223.3" y="-937.04" font-family="Times,serif" font-weight="bold" font-size="14.00" fill="#228b22">allowed</text>
<text text-anchor="start" x="14.42" y="-923.04" font-family="Times,serif" font-size="14.00">A license is allowed if Fedora determines that the license is a free software /</text>
<text text-anchor="start" x="9.17" y="-909.04" font-family="Times,serif" font-size="14.00">open source license. At a high level, the inquiry involves determining whether</text>
<text text-anchor="start" x="8.05" y="-895.04" font-family="Times,serif" font-size="14.00">the license provides software freedom, and (equivalently) making sure that the</text>
<text text-anchor="start" x="18.17" y="-881.04" font-family="Times,serif" font-size="14.00">license does not place burdens on users&#39; exercise of its permissions that are</text>
<text text-anchor="start" x="17.8" y="-867.04" font-family="Times,serif" font-size="14.00">inconsistent with evolving community norms and traditions around what is</text>
<text text-anchor="start" x="9.55" y="-853.04" font-family="Times,serif" font-size="14.00">acceptable in a free software / open source license. See below for more on the</text>
<text text-anchor="start" x="129.55" y="-839.04" font-family="Times,serif" font-size="14.00">history of Fedora licensing policy.</text>
</g>
<!-- 6593&#45;&gt;6592 -->
<g id="edge21" class="edge">
<title>6593&#45;&gt;6592</title>
<path fill="none" stroke="#e09d4b" d="M445.5,-899.97C478.41,-898.96 518.94,-897.47 570.95,-895.49"/>
<polygon fill="#e09d4b" stroke="#e09d4b" points="570.85,-899 580.71,-895.12 570.59,-892.01 570.85,-899"/>
</g>
<!-- 7095&#45;&gt;7096 -->
<g id="edge22" class="edge">
<title>7095&#45;&gt;7096</title>
<path fill="none" stroke="#e09d4b" d="M1070.5,-910.67C1136.81,-921.85 1191.76,-916.26 1350.18,-890.76"/>
<polygon fill="#e09d4b" stroke="#e09d4b" points="1350.46,-894.26 1359.77,-889.21 1349.34,-887.35 1350.46,-894.26"/>
</g>
<!-- 16220&#45;&gt;16221 -->
<g id="edge23" class="edge">
<title>16220&#45;&gt;16221</title>
<path fill="none" stroke="#deb256" d="M2370.09,-1043.14C2322.64,-1036.71 2262.28,-1025.55 2149.17,-1003.72"/>
<polygon fill="#deb256" stroke="#deb256" points="2150.02,-1000.32 2139.54,-1001.86 2148.69,-1007.19 2150.02,-1000.32"/>
</g>
<!-- 16221&#45;&gt;1591 -->
<g id="edge24" class="edge">
<title>16221&#45;&gt;1591</title>
<path fill="none" stroke="#00876c" stroke-width="2" d="M2040.5,-963.52C2005.54,-923.93 1924.03,-841.67 1874.17,-795.1"/>
<polygon fill="#00876c" stroke="#00876c" stroke-width="2" points="1867.94,-789.33 1878.33,-792.82 1870.16,-790.7 1875.62,-795.76 1875.28,-796.13 1874.94,-796.49 1869.48,-791.44 1872.22,-799.43 1867.94,-789.33"/>
</g>
<!-- 16221&#45;&gt;47156 -->
<g id="edge25" class="edge">
<title>16221&#45;&gt;47156</title>
<path fill="none" stroke="#379469" stroke-dasharray="5,2" d="M2027.86,-1008.21C1968.04,-1053.14 1939.13,-1068.53 1861.24,-1076.34"/>
<polygon fill="#379469" stroke="#379469" points="1851.66,-1077.23 1861.2,-1071.82 1855.43,-1076.88 1861.62,-1076.3 1861.62,-1076.3 1861.62,-1076.3 1855.43,-1076.88 1862.04,-1080.78 1851.66,-1077.23"/>
</g>
<!-- 16222 -->
<g id="node16" class="node">
<title>16222</title>
<text text-anchor="middle" x="2835.59" y="-1060.19" font-family="Times,serif" font-size="14.00">$TEXT</text>
</g>
<!-- 16222&#45;&gt;16220 -->
<g id="edge26" class="edge">
<title>16222&#45;&gt;16220</title>
<path fill="none" stroke="#deb256" d="M2807.16,-1068.03C2761.02,-1072.34 2735.8,-1073.05 2670.74,-1068.06"/>
<polygon fill="#deb256" stroke="#deb256" points="2671.25,-1064.59 2661.01,-1067.29 2670.7,-1071.57 2671.25,-1064.59"/>
</g>
<!-- 35432 -->
<g id="node17" class="node">
<title>35432</title>
<text text-anchor="middle" x="1487.73" y="-464.67" font-family="Times,serif" font-size="14.00">LicenseTag (ScopedLicenseTag &quot;OrtLicenseCategorization&quot; &quot;permissive&quot; NoLicenseTagText)</text>
</g>
<!-- 35638 -->
<g id="node19" class="node">
<title>35638</title>
<ellipse fill="none" stroke="#d43d51" cx="1479.29" cy="-527.84" rx="155.56" ry="28.99"/>
<text text-anchor="middle" x="1479.29" y="-531.04" font-family="Times,serif" font-size="14.00" fill="gray">OrtLicenseCategorization</text>
<text text-anchor="middle" x="1479.29" y="-514.54" font-family="Times,serif" font-size="14.00" fill="gray">fc47acae92ebf1305b6d4cdf05121703</text>
</g>
<!-- 35432&#45;&gt;35638 -->
<g id="edge27" class="edge">
<title>35432&#45;&gt;35638</title>
<path fill="none" stroke="#d43d51" d="M1485.48,-487.52C1485.47,-487.61 1485.46,-487.71 1485.44,-487.8"/>
<polygon fill="#d43d51" stroke="#d43d51" points="1482.07,-486.67 1484.07,-497.08 1489,-487.7 1482.07,-486.67"/>
</g>
<!-- 35433 -->
<g id="node18" class="node">
<title>35433</title>
<text text-anchor="middle" x="1129.25" y="-30.01" font-family="Times,serif" font-size="14.00">LicenseTag (ScopedLicenseTag &quot;OrtLicenseCategorization&quot; &quot;include&#45;in&#45;notice&#45;file&quot; NoLicenseTagText)</text>
</g>
<!-- 35433&#45;&gt;35638 -->
<g id="edge28" class="edge">
<title>35433&#45;&gt;35638</title>
<path fill="none" stroke="#d43d51" d="M1148.79,-52.87C1267.59,-161.43 1280.93,-180.91 1457.16,-489.12"/>
<polygon fill="#d43d51" stroke="#d43d51" points="1453.93,-490.53 1461.93,-497.48 1460.01,-487.06 1453.93,-490.53"/>
</g>
<!-- 35638&#45;&gt;1591 -->
<g id="edge29" class="edge">
<title>35638&#45;&gt;1591</title>
<path fill="none" stroke="#d43d51" d="M1559.69,-553.05C1716.83,-603.31 1740.45,-621.44 1809.59,-725.54"/>
<polygon fill="#d43d51" stroke="#d43d51" points="1806.49,-727.19 1814.92,-733.6 1812.33,-723.33 1806.49,-727.19"/>
</g>
<!-- 41441 -->
<g id="node20" class="node">
<title>41441</title>
<ellipse fill="none" stroke="#379469" cx="1739.97" cy="-1293.62" rx="160.34" ry="28.99"/>
<text text-anchor="middle" x="1739.97" y="-1296.82" font-family="Times,serif" font-size="14.00" fill="gray">CavilLicenseChange</text>
<text text-anchor="middle" x="1739.97" y="-1280.32" font-family="Times,serif" font-size="14.00" fill="gray">1538aeca918d158e3ddad7952a452605</text>
</g>
<!-- 41441&#45;&gt;41442 -->
<g id="edge30" class="edge">
<title>41441&#45;&gt;41442</title>
<path fill="none" stroke="#379469" d="M1749.65,-1264.54C1749.72,-1263.1 1749.76,-1261.56 1749.76,-1259.9"/>
<polygon fill="#379469" stroke="#379469" points="1753.27,-1260.19 1749.49,-1250.29 1746.28,-1260.39 1753.27,-1260.19"/>
</g>
<!-- 47155 -->
<g id="node22" class="node">
<title>47155</title>
<ellipse fill="none" stroke="#379469" cx="1463.55" cy="-1482.04" rx="157.15" ry="28.99"/>
<text text-anchor="middle" x="1463.55" y="-1485.24" font-family="Times,serif" font-size="14.00" fill="gray">MetaeffektLicense</text>
<text text-anchor="middle" x="1463.55" y="-1468.74" font-family="Times,serif" font-size="14.00" fill="gray">5b42662114aefaae916c1e9bd01278f7</text>
</g>
<!-- 47155&#45;&gt;47156 -->
<g id="edge31" class="edge">
<title>47155&#45;&gt;47156</title>
<path fill="none" stroke="#379469" d="M1499.94,-1453.49C1600.44,-1373.5 1612.09,-1347.47 1685.88,-1118.15"/>
<polygon fill="#379469" stroke="#379469" points="1689.14,-1119.46 1688.87,-1108.87 1682.48,-1117.32 1689.14,-1119.46"/>
</g>
<!-- 66955 -->
<g id="node24" class="node">
<title>66955</title>
<ellipse fill="none" stroke="#00876c" cx="2057.95" cy="-1103.51" rx="159.28" ry="28.99"/>
<text text-anchor="middle" x="2057.95" y="-1106.71" font-family="Times,serif" font-size="14.00" fill="gray">LicenseLynx</text>
<text text-anchor="middle" x="2057.95" y="-1090.21" font-family="Times,serif" font-size="14.00" fill="gray">beb6b392531c8a714da80b40c4bf936a</text>
</g>
<!-- 66955&#45;&gt;1591 -->
<g id="edge32" class="edge">
<title>66955&#45;&gt;1591</title>
<path fill="none" stroke="#00876c" d="M2050.81,-1074.36C2023.8,-965.91 2010.91,-947.12 1866.03,-795.66"/>
<polygon fill="#00876c" stroke="#00876c" points="1868.62,-793.3 1859.18,-788.49 1863.56,-798.14 1868.62,-793.3"/>
</g>
<!-- 66956&#45;&gt;1591 -->
<g id="edge33" class="edge">
<title>66956&#45;&gt;1591</title>
<path fill="none" stroke="#00876c" stroke-width="2" d="M1720.94,-803.32C1745.1,-798.72 1761.2,-794.8 1775.13,-789.88"/>
<polygon fill="#00876c" stroke="#00876c" stroke-width="2" points="1783.18,-786.78 1775.47,-794.57 1780.97,-788.17 1774.03,-790.84 1773.85,-790.38 1773.67,-789.91 1780.61,-787.24 1772.23,-786.18 1783.18,-786.78"/>
</g>
</g>
</svg>
