<?xml version="1.0" encoding="UTF-8" standalone="no"?>
<!DOCTYPE svg PUBLIC "-//W3C//DTD SVG 1.1//EN"
 "http://www.w3.org/Graphics/SVG/1.1/DTD/svg11.dtd">
<!-- Generated by graphviz version 10.0.1 (0)
 -->
<!-- Pages: 1 -->
<svg width="3123pt" height="2122pt"
 viewBox="0.00 0.00 3123.00 2122.00" xmlns="http://www.w3.org/2000/svg" xmlns:xlink="http://www.w3.org/1999/xlink">
<g id="graph0" class="graph" transform="scale(1 1) rotate(0) translate(4 2118)">
<polygon fill="white" stroke="none" points="-4,4 -4,-2118 3119,-2118 3119,4 -4,4"/>
<!-- 5 -->
<g id="node1" class="node">
<title>5</title>
<text text-anchor="start" x="916.78" y="-27.87" font-family="Times,serif" font-size="14.00">OSI: </text>
<text text-anchor="start" x="946.03" y="-27.87" font-family="Times,serif" font-weight="bold" font-size="14.00" fill="#8b0000">Rejected</text>
</g>
<!-- 5117 -->
<g id="node2" class="node">
<title>5117</title>
<ellipse fill="none" stroke="#dac767" cx="1077.81" cy="-345.95" rx="159.81" ry="28.99"/>
<text text-anchor="middle" x="1077.81" y="-349.15" font-family="Times,serif" font-size="14.00" fill="gray">SPDXLicense</text>
<text text-anchor="middle" x="1077.81" y="-332.65" font-family="Times,serif" font-size="14.00" fill="gray">171780f81389b0eb26dcdba6b27de87a</text>
</g>
<!-- 5&#45;&gt;5117 -->
<g id="edge1" class="edge">
<title>5&#45;&gt;5117</title>
<path fill="none" stroke="#dac767" d="M961.03,-49.81C980.51,-126.82 986.82,-143.24 1060.04,-306.37"/>
<polygon fill="#dac767" stroke="#dac767" points="1056.82,-307.74 1064.11,-315.43 1063.2,-304.88 1056.82,-307.74"/>
</g>
<!-- 5118 -->
<g id="node3" class="node">
<title>5118</title>
<polygon fill="none" stroke="black" points="1505.98,-697.81 1505.98,-712.72 1465.63,-723.27 1408.57,-723.27 1368.22,-712.72 1368.22,-697.81 1408.57,-687.27 1465.63,-687.27 1505.98,-697.81"/>
<polygon fill="none" stroke="black" points="1509.98,-694.72 1509.98,-715.81 1466.14,-727.27 1408.05,-727.27 1364.22,-715.81 1364.22,-694.72 1408.05,-683.27 1466.14,-683.27 1509.98,-694.72"/>
<polygon fill="none" stroke="black" points="1513.98,-691.63 1513.98,-718.9 1466.66,-731.27 1407.54,-731.27 1360.22,-718.9 1360.22,-691.63 1407.54,-679.27 1466.66,-679.27 1513.98,-691.63"/>
<text text-anchor="middle" x="1437.1" y="-700.22" font-family="Times,serif" font-size="14.00">spdx:diffmark</text>
</g>
<!-- 5117&#45;&gt;5118 -->
<g id="edge2" class="edge">
<title>5117&#45;&gt;5118</title>
<path fill="none" stroke="#dac767" d="M1118.03,-374.38C1205.8,-437.28 1231.37,-465.11 1407.25,-670.42"/>
<polygon fill="#dac767" stroke="#dac767" points="1404.51,-672.59 1413.67,-677.91 1409.82,-668.04 1404.51,-672.59"/>
</g>
<!-- 9396 -->
<g id="node13" class="node">
<title>9396</title>
<polygon fill="none" stroke="#e09d4b" points="1528.79,-461.69 1528.79,-476.6 1483.25,-487.15 1418.85,-487.15 1373.31,-476.6 1373.31,-461.69 1418.85,-451.15 1483.25,-451.15 1528.79,-461.69"/>
<polygon fill="none" stroke="#e09d4b" points="1532.79,-458.51 1532.79,-479.78 1483.71,-491.15 1418.39,-491.15 1369.31,-479.78 1369.31,-458.51 1418.39,-447.15 1483.71,-447.15 1532.79,-458.51"/>
<text text-anchor="middle" x="1451.05" y="-464.1" font-family="Times,serif" font-size="14.00">Fedora:diffmark</text>
</g>
<!-- 5118&#45;&gt;9396 -->
<g id="edge3" class="edge">
<title>5118&#45;&gt;9396</title>
<path fill="none" stroke="#e09d4b" stroke-width="2" d="M1436.44,-678.93C1433.68,-567.17 1433.79,-543.43 1443,-502.28"/>
<polygon fill="#e09d4b" stroke="#e09d4b" stroke-width="2" points="1444.99,-493.75 1447.1,-504.51 1444.89,-496.36 1443.2,-503.6 1442.72,-503.49 1442.23,-503.38 1443.92,-496.13 1438.33,-502.47 1444.99,-493.75"/>
</g>
<!-- 16295 -->
<g id="node20" class="node">
<title>16295</title>
<polygon fill="none" stroke="black" points="1317.46,-724.82 1317.46,-739.73 1266.73,-750.28 1194.98,-750.28 1144.25,-739.73 1144.25,-724.82 1194.98,-714.28 1266.73,-714.28 1317.46,-724.82"/>
<polygon fill="none" stroke="black" points="1321.46,-721.57 1321.46,-742.99 1267.14,-754.28 1194.57,-754.28 1140.25,-742.99 1140.25,-721.57 1194.57,-710.28 1267.14,-710.28 1321.46,-721.57"/>
<text text-anchor="middle" x="1230.85" y="-727.23" font-family="Times,serif" font-size="14.00">scancode:diffmark</text>
</g>
<!-- 5118&#45;&gt;16295 -->
<g id="edge4" class="edge">
<title>5118&#45;&gt;16295</title>
<path fill="none" stroke="#deb256" stroke-width="2" d="M1359.74,-708.8C1343.88,-710.62 1327.14,-712.79 1311.17,-715.09"/>
<polygon fill="#deb256" stroke="#deb256" stroke-width="2" points="1302.67,-716.34 1311.91,-710.43 1305.13,-715.47 1312.49,-714.39 1312.56,-714.88 1312.64,-715.38 1305.28,-716.46 1313.22,-719.34 1302.67,-716.34"/>
</g>
<!-- 47024 -->
<g id="node33" class="node">
<title>47024</title>
<polygon fill="none" stroke="#379469" points="1334.7,-657.47 1334.7,-672.38 1260.28,-682.93 1155.03,-682.93 1080.61,-672.38 1080.61,-657.47 1155.03,-646.93 1260.28,-646.93 1334.7,-657.47"/>
<polygon fill="none" stroke="#379469" points="1338.7,-654 1338.7,-675.86 1260.56,-686.93 1154.75,-686.93 1076.61,-675.86 1076.61,-654 1154.75,-642.93 1260.56,-642.93 1338.7,-654"/>
<text text-anchor="middle" x="1207.66" y="-659.88" font-family="Times,serif" font-size="14.00">metaeffekt:diffmark License</text>
</g>
<!-- 5118&#45;&gt;47024 -->
<g id="edge5" class="edge">
<title>5118&#45;&gt;47024</title>
<path fill="none" stroke="#379469" stroke-width="2" d="M1387.39,-684.21C1372.75,-678.11 1360.18,-673.05 1349.08,-668.91"/>
<polygon fill="#379469" stroke="#379469" stroke-width="2" points="1341.16,-666.05 1352.1,-665.21 1343.74,-666.45 1350.74,-668.97 1350.57,-669.44 1350.4,-669.91 1343.4,-667.39 1349.04,-673.68 1341.16,-666.05"/>
</g>
<!-- 5119 -->
<g id="node4" class="node">
<title>5119</title>
<polygon fill="none" stroke="black" points="1618.3,-628.97 1618.3,-643.88 1590.61,-654.43 1551.45,-654.43 1523.76,-643.88 1523.76,-628.97 1551.45,-618.43 1590.61,-618.43 1618.3,-628.97"/>
<polygon fill="none" stroke="black" points="1622.3,-626.22 1622.3,-646.64 1591.35,-658.43 1550.71,-658.43 1519.76,-646.64 1519.76,-626.22 1550.71,-614.43 1591.35,-614.43 1622.3,-626.22"/>
<text text-anchor="middle" x="1571.03" y="-631.38" font-family="Times,serif" font-size="14.00">diffmark</text>
</g>
<!-- 5119&#45;&gt;5118 -->
<g id="edge6" class="edge">
<title>5119&#45;&gt;5118</title>
<path fill="none" stroke="black" stroke-width="2" d="M1519.28,-641.89C1501.72,-645.95 1489.71,-653.69 1470.88,-671.45"/>
<polygon fill="black" stroke="black" stroke-width="2" points="1464.75,-677.37 1468.82,-667.19 1466.25,-675.23 1471.59,-670.07 1471.94,-670.43 1472.29,-670.79 1466.94,-675.95 1475.07,-673.66 1464.75,-677.37"/>
</g>
<!-- 5119&#45;&gt;9396 -->
<g id="edge7" class="edge">
<title>5119&#45;&gt;9396</title>
<path fill="none" stroke="#e09d4b" stroke-width="2" d="M1559.63,-614.16C1522.87,-542.5 1510.17,-519.68 1487.89,-498.8"/>
<polygon fill="#e09d4b" stroke="#e09d4b" stroke-width="2" points="1481.37,-493.04 1491.84,-496.3 1483.62,-494.36 1489.19,-499.29 1488.86,-499.67 1488.53,-500.04 1482.96,-495.11 1485.88,-503.04 1481.37,-493.04"/>
</g>
<!-- 10412 -->
<g id="node16" class="node">
<title>10412</title>
<polygon fill="none" stroke="#00876c" points="1972.6,-568.23 1972.6,-583.14 1922.51,-593.69 1851.68,-593.69 1801.6,-583.14 1801.6,-568.23 1851.68,-557.69 1922.51,-557.69 1972.6,-568.23"/>
<polygon fill="none" stroke="#00876c" points="1976.6,-564.99 1976.6,-586.39 1922.93,-597.69 1851.27,-597.69 1797.6,-586.39 1797.6,-564.99 1851.27,-553.69 1922.93,-553.69 1976.6,-564.99"/>
<text text-anchor="middle" x="1887.1" y="-570.64" font-family="Times,serif" font-size="14.00">BlueOak:diffmark</text>
</g>
<!-- 5119&#45;&gt;10412 -->
<g id="edge8" class="edge">
<title>5119&#45;&gt;10412</title>
<path fill="none" stroke="#00876c" stroke-width="2" d="M1605.23,-619.34C1711.65,-566.39 1745.63,-552.66 1803.79,-559.59"/>
<polygon fill="#00876c" stroke="#00876c" stroke-width="2" points="1812.13,-560.73 1801.62,-563.83 1809.53,-560.88 1802.16,-559.87 1802.22,-559.38 1802.29,-558.88 1809.66,-559.88 1802.83,-554.92 1812.13,-560.73"/>
</g>
<!-- 5119&#45;&gt;16295 -->
<g id="edge9" class="edge">
<title>5119&#45;&gt;16295</title>
<path fill="none" stroke="black" stroke-width="2" d="M1519.46,-632.04C1387.6,-621.45 1363.94,-628.2 1267.69,-703.23"/>
<polygon fill="black" stroke="black" stroke-width="2" points="1261,-708.47 1266.1,-698.76 1262.71,-706.49 1268.57,-701.91 1268.88,-702.3 1269.18,-702.7 1263.33,-707.28 1271.65,-705.85 1261,-708.47"/>
</g>
<!-- 35013 -->
<g id="node25" class="node">
<title>35013</title>
<polygon fill="none" stroke="#e18745" points="1837.22,-456.22 1837.22,-471.13 1785.19,-481.68 1711.61,-481.68 1659.58,-471.13 1659.58,-456.22 1711.61,-445.68 1785.19,-445.68 1837.22,-456.22"/>
<polygon fill="none" stroke="#e18745" points="1841.22,-452.95 1841.22,-474.4 1785.59,-485.68 1711.21,-485.68 1655.58,-474.4 1655.58,-452.95 1711.21,-441.68 1785.59,-441.68 1841.22,-452.95"/>
<text text-anchor="middle" x="1748.4" y="-458.63" font-family="Times,serif" font-size="14.00">fossology:diffmark</text>
</g>
<!-- 5119&#45;&gt;35013 -->
<g id="edge10" class="edge">
<title>5119&#45;&gt;35013</title>
<path fill="none" stroke="#e18745" stroke-width="2" d="M1587.36,-614.07C1645.03,-535.21 1664.48,-510.51 1696.41,-490.58"/>
<polygon fill="#e18745" stroke="#e18745" stroke-width="2" points="1703.69,-486.29 1697.37,-495.25 1701.74,-488.02 1695.33,-491.8 1695.08,-491.37 1694.83,-490.94 1701.23,-487.16 1692.79,-487.49 1703.69,-486.29"/>
</g>
<!-- 41444 -->
<g id="node31" class="node">
<title>41444</title>
<polygon fill="none" stroke="#379469" points="1911.45,-667.24 1911.45,-682.15 1870.78,-692.7 1813.26,-692.7 1772.58,-682.15 1772.58,-667.24 1813.26,-656.7 1870.78,-656.7 1911.45,-667.24"/>
<polygon fill="none" stroke="#379469" points="1915.45,-664.15 1915.45,-685.25 1871.29,-696.7 1812.75,-696.7 1768.58,-685.25 1768.58,-664.15 1812.75,-652.7 1871.29,-652.7 1915.45,-664.15"/>
<text text-anchor="middle" x="1842.02" y="-669.65" font-family="Times,serif" font-size="14.00">cavil:diffmark</text>
</g>
<!-- 5119&#45;&gt;41444 -->
<g id="edge11" class="edge">
<title>5119&#45;&gt;41444</title>
<path fill="none" stroke="#379469" stroke-width="2" d="M1622.62,-625.88C1710,-608.77 1733.44,-611.33 1797.82,-648.34"/>
<polygon fill="#379469" stroke="#379469" stroke-width="2" points="1805.08,-652.57 1794.17,-651.43 1802.61,-651.71 1796.18,-647.97 1796.44,-647.54 1796.69,-647.11 1803.11,-650.85 1798.7,-643.65 1805.08,-652.57"/>
</g>
<!-- 5119&#45;&gt;47024 -->
<g id="edge12" class="edge">
<title>5119&#45;&gt;47024</title>
<path fill="none" stroke="#379469" stroke-dasharray="5,2" d="M1523.23,-624.38C1383.21,-589.55 1355,-589.24 1260.07,-637.46"/>
<polygon fill="#379469" stroke="#379469" points="1251.45,-641.89 1258.29,-633.32 1254.81,-640.16 1260.34,-637.33 1260.34,-637.33 1260.34,-637.33 1254.81,-640.16 1262.4,-641.33 1251.45,-641.89"/>
</g>
<!-- 5120 -->
<g id="node5" class="node">
<title>5120</title>
<polygon fill="none" stroke="black" points="1649.67,-756.52 1649.67,-771.44 1604.13,-781.98 1539.73,-781.98 1494.19,-771.44 1494.19,-756.52 1539.73,-745.98 1604.13,-745.98 1649.67,-756.52"/>
<polygon fill="none" stroke="black" points="1653.67,-753.34 1653.67,-774.62 1604.59,-785.98 1539.27,-785.98 1490.19,-774.62 1490.19,-753.34 1539.27,-741.98 1604.59,-741.98 1653.67,-753.34"/>
<text text-anchor="middle" x="1571.93" y="-758.93" font-family="Times,serif" font-size="14.00">diffmark license</text>
</g>
<!-- 5120&#45;&gt;5118 -->
<g id="edge13" class="edge">
<title>5120&#45;&gt;5118</title>
<path fill="none" stroke="#dac767" stroke-width="2" d="M1544.11,-741.65C1535.9,-735.18 1528.91,-729.87 1522.66,-725.51"/>
<polygon fill="#dac767" stroke="#dac767" stroke-width="2" points="1515.4,-720.75 1526.23,-722.47 1517.82,-721.74 1524.04,-725.82 1523.76,-726.24 1523.49,-726.65 1517.27,-722.57 1521.29,-730 1515.4,-720.75"/>
</g>
<!-- 5120&#45;&gt;9396 -->
<g id="edge14" class="edge">
<title>5120&#45;&gt;9396</title>
<path fill="none" stroke="#e09d4b" stroke-dasharray="5,2" d="M1564.82,-741.65C1513.62,-580.81 1504.71,-554.99 1471.03,-500.65"/>
<polygon fill="#e09d4b" stroke="#e09d4b" points="1465.81,-492.31 1474.93,-498.4 1467.82,-495.52 1471.12,-500.79 1471.12,-500.79 1471.12,-500.79 1467.82,-495.52 1467.3,-503.17 1465.81,-492.31"/>
</g>
<!-- 5120&#45;&gt;10412 -->
<g id="edge15" class="edge">
<title>5120&#45;&gt;10412</title>
<path fill="none" stroke="#00876c" stroke-width="2" d="M1598.08,-741.49C1715.95,-640.2 1750.98,-612.15 1808.51,-594.39"/>
<polygon fill="#00876c" stroke="#00876c" stroke-width="2" points="1816.8,-591.97 1808.46,-599.09 1814.48,-593.17 1807.34,-595.25 1807.2,-594.77 1807.06,-594.29 1814.2,-592.21 1805.94,-590.45 1816.8,-591.97"/>
</g>
<!-- 5120&#45;&gt;16295 -->
<g id="edge16" class="edge">
<title>5120&#45;&gt;16295</title>
<path fill="none" stroke="#deb256" stroke-width="2" d="M1523.25,-745.44C1402.25,-699.74 1369.5,-692.23 1299.06,-711.2"/>
<polygon fill="#deb256" stroke="#deb256" stroke-width="2" points="1290.72,-713.54 1299.14,-706.51 1293.06,-712.37 1300.22,-710.36 1300.35,-710.84 1300.49,-711.32 1293.33,-713.33 1301.57,-715.18 1290.72,-713.54"/>
</g>
<!-- 5120&#45;&gt;35013 -->
<g id="edge17" class="edge">
<title>5120&#45;&gt;35013</title>
<path fill="none" stroke="#e18745" stroke-width="2" d="M1582.66,-741.48C1662.23,-574.67 1675.76,-548.05 1721.38,-494.62"/>
<polygon fill="#e18745" stroke="#e18745" stroke-width="2" points="1727.08,-488 1723.96,-498.52 1725.79,-490.27 1720.93,-495.91 1720.55,-495.58 1720.18,-495.25 1725.03,-489.62 1717.15,-492.64 1727.08,-488"/>
</g>
<!-- 5120&#45;&gt;47024 -->
<g id="edge18" class="edge">
<title>5120&#45;&gt;47024</title>
<path fill="none" stroke="#379469" stroke-width="2" d="M1533.43,-743.03C1440.14,-692.39 1393.45,-668.68 1349.88,-660.06"/>
<polygon fill="#379469" stroke="#379469" stroke-width="2" points="1341.25,-658.6 1351.86,-655.84 1343.86,-658.54 1351.19,-659.78 1351.1,-660.27 1351.02,-660.76 1343.69,-659.52 1350.35,-664.71 1341.25,-658.6"/>
</g>
<!-- 70040 -->
<g id="node35" class="node">
<title>70040</title>
<polygon fill="none" stroke="#00876c" points="1767.88,-956.71 1767.88,-971.62 1697.35,-982.17 1597.61,-982.17 1527.09,-971.62 1527.09,-956.71 1597.61,-946.17 1697.35,-946.17 1767.88,-956.71"/>
<polygon fill="none" stroke="#00876c" points="1771.88,-953.26 1771.88,-975.07 1697.65,-986.17 1597.32,-986.17 1523.09,-975.07 1523.09,-953.26 1597.32,-942.17 1697.65,-942.17 1771.88,-953.26"/>
<text text-anchor="middle" x="1647.48" y="-959.12" font-family="Times,serif" font-size="14.00">scancode:diffmark License</text>
</g>
<!-- 5120&#45;&gt;70040 -->
<g id="edge19" class="edge">
<title>5120&#45;&gt;70040</title>
<path fill="none" stroke="#00876c" stroke-width="2" d="M1590.32,-786.39C1618.32,-821.78 1623.79,-839.48 1641.19,-930.82"/>
<polygon fill="#00876c" stroke="#00876c" stroke-width="2" points="1642.8,-939.32 1636.51,-930.34 1641.83,-936.9 1640.44,-929.59 1640.94,-929.5 1641.43,-929.4 1642.81,-936.71 1645.36,-928.66 1642.8,-939.32"/>
</g>
<!-- 70041 -->
<g id="node36" class="node">
<title>70041</title>
<polygon fill="none" stroke="#00876c" points="1505.96,-981.05 1505.96,-995.96 1447.77,-1006.51 1365.47,-1006.51 1307.27,-995.96 1307.27,-981.05 1365.47,-970.51 1447.77,-970.51 1505.96,-981.05"/>
<polygon fill="none" stroke="#00876c" points="1509.96,-977.71 1509.96,-999.3 1448.13,-1010.51 1365.11,-1010.51 1303.27,-999.3 1303.27,-977.71 1365.11,-966.51 1448.13,-966.51 1509.96,-977.71"/>
<text text-anchor="middle" x="1406.62" y="-983.46" font-family="Times,serif" font-size="14.00">spdx:diffmark license</text>
</g>
<!-- 5120&#45;&gt;70041 -->
<g id="edge20" class="edge">
<title>5120&#45;&gt;70041</title>
<path fill="none" stroke="#00876c" stroke-width="2" d="M1535.72,-785.55C1473.92,-823.68 1462.69,-842.96 1419.05,-956.11"/>
<polygon fill="#00876c" stroke="#00876c" stroke-width="2" points="1416.02,-963.97 1415.42,-953.02 1416.48,-961.4 1419.15,-954.46 1419.62,-954.64 1420.08,-954.82 1417.41,-961.76 1423.81,-956.25 1416.02,-963.97"/>
</g>
<!-- 77132 -->
<g id="node38" class="node">
<title>77132</title>
<polygon fill="none" stroke="#e09d4b" points="1778.22,-1204.14 1778.22,-1219.05 1711.92,-1229.6 1618.14,-1229.6 1551.83,-1219.05 1551.83,-1204.14 1618.14,-1193.6 1711.92,-1193.6 1778.22,-1204.14"/>
<polygon fill="none" stroke="#e09d4b" points="1782.22,-1200.73 1782.22,-1222.47 1712.23,-1233.6 1617.82,-1233.6 1547.83,-1222.47 1547.83,-1200.73 1617.82,-1189.6 1712.23,-1189.6 1782.22,-1200.73"/>
<text text-anchor="middle" x="1665.03" y="-1206.55" font-family="Times,serif" font-size="14.00">tldr&#45;title:diffmark license</text>
</g>
<!-- 5120&#45;&gt;77132 -->
<g id="edge21" class="edge">
<title>5120&#45;&gt;77132</title>
<path fill="none" stroke="#e09d4b" stroke-width="2" d="M1587.13,-786.07C1675.07,-914.34 1678.13,-932.38 1666.6,-1178.27"/>
<polygon fill="#e09d4b" stroke="#e09d4b" stroke-width="2" points="1666.2,-1186.95 1662.17,-1176.75 1665.82,-1184.37 1666.17,-1176.94 1666.67,-1176.97 1667.17,-1176.99 1666.82,-1184.42 1671.16,-1177.18 1666.2,-1186.95"/>
</g>
<!-- 5121 -->
<g id="node6" class="node">
<title>5121</title>
<text text-anchor="middle" x="790.92" y="-122.86" font-family="Times,serif" font-size="14.00">$TEXT</text>
</g>
<!-- 5121&#45;&gt;5117 -->
<g id="edge22" class="edge">
<title>5121&#45;&gt;5117</title>
<path fill="none" stroke="#dac767" d="M819.52,-142.78C886.43,-178.02 906.98,-194.18 1037.21,-309.84"/>
<polygon fill="#dac767" stroke="#dac767" points="1034.6,-312.21 1044.4,-316.24 1039.25,-306.98 1034.6,-312.21"/>
</g>
<!-- 5122 -->
<g id="node7" class="node">
<title>5122</title>
<text text-anchor="middle" x="663.99" y="-12.59" font-family="Times,serif" font-size="14.00">$TEXT</text>
</g>
<!-- 5122&#45;&gt;5121 -->
<g id="edge23" class="edge">
<title>5122&#45;&gt;5121</title>
<path fill="none" stroke="#dac767" d="M688.8,-35.41C707.3,-49.22 721.31,-61.92 763.8,-102.17"/>
<polygon fill="#dac767" stroke="#dac767" points="761.31,-104.64 770.98,-108.98 766.13,-99.56 761.31,-104.64"/>
</g>
<!-- 5123 -->
<g id="node8" class="node">
<title>5123</title>
<text text-anchor="middle" x="1421.09" y="-339.46" font-family="Times,serif" font-size="14.00">https://fedoraproject.org/wiki/Licensing/diffmark</text>
</g>
<!-- 5123&#45;&gt;5117 -->
<g id="edge24" class="edge">
<title>5123&#45;&gt;5117</title>
<path fill="none" stroke="#dac767" d="M1363.45,-326.59C1253.29,-292.96 1219.81,-288.88 1151.26,-314.82"/>
<polygon fill="#dac767" stroke="#dac767" points="1150.34,-311.42 1142.29,-318.31 1152.88,-317.94 1150.34,-311.42"/>
</g>
<!-- 9395 -->
<g id="node12" class="node">
<title>9395</title>
<ellipse fill="none" stroke="#e09d4b" cx="1428.5" cy="-399.69" rx="158.22" ry="28.99"/>
<text text-anchor="middle" x="1428.5" y="-402.89" font-family="Times,serif" font-size="14.00" fill="gray">FedoraEntry</text>
<text text-anchor="middle" x="1428.5" y="-386.39" font-family="Times,serif" font-size="14.00" fill="gray">afec9d3d2895d0c3c7b75b958db3f330</text>
</g>
<!-- 5123&#45;&gt;9395 -->
<g id="edge25" class="edge">
<title>5123&#45;&gt;9395</title>
<path fill="none" stroke="#e09d4b" d="M1423,-362.33C1423.02,-362.47 1423.04,-362.62 1423.05,-362.77"/>
<polygon fill="#e09d4b" stroke="#e09d4b" points="1419.06,-359.45 1423.9,-368.87 1425.99,-358.49 1419.06,-359.45"/>
</g>
<!-- 35012 -->
<g id="node24" class="node">
<title>35012</title>
<ellipse fill="none" stroke="#e18745" cx="1799.7" cy="-379.86" rx="155.56" ry="28.99"/>
<text text-anchor="middle" x="1799.7" y="-383.06" font-family="Times,serif" font-size="14.00" fill="gray">Fossology</text>
<text text-anchor="middle" x="1799.7" y="-366.56" font-family="Times,serif" font-size="14.00" fill="gray">6d0a5ac55815610f550614c01fff459d</text>
</g>
<!-- 5123&#45;&gt;35012 -->
<g id="edge26" class="edge">
<title>5123&#45;&gt;35012</title>
<path fill="none" stroke="#e18745" d="M1482.25,-326.52C1598.02,-293.53 1629.23,-295.49 1735.01,-347.28"/>
<polygon fill="#e18745" stroke="#e18745" points="1733.26,-350.32 1743.78,-351.6 1736.36,-344.04 1733.26,-350.32"/>
</g>
<!-- 5550 -->
<g id="node9" class="node">
<title>5550</title>
<text text-anchor="middle" x="2656.9" y="-317.99" font-family="Times,serif" font-size="14.00">LicenseType Permissive</text>
</g>
<!-- 10411 -->
<g id="node15" class="node">
<title>10411</title>
<ellipse fill="none" stroke="#00876c" cx="2340.65" cy="-413.02" rx="155.03" ry="28.99"/>
<text text-anchor="middle" x="2340.65" y="-416.22" font-family="Times,serif" font-size="14.00" fill="gray">BlueOakCouncil</text>
<text text-anchor="middle" x="2340.65" y="-399.72" font-family="Times,serif" font-size="14.00" fill="gray">774bfbf07e20b22f9189478f32822f1c</text>
</g>
<!-- 5550&#45;&gt;10411 -->
<g id="edge27" class="edge">
<title>5550&#45;&gt;10411</title>
<path fill="none" stroke="#00876c" d="M2582.42,-329.31C2542.9,-335.2 2506.7,-347.6 2418.15,-382.35"/>
<polygon fill="#00876c" stroke="#00876c" points="2417.11,-379 2409.08,-385.92 2419.67,-385.52 2417.11,-379"/>
</g>
<!-- 6592 -->
<g id="node10" class="node">
<title>6592</title>
<text text-anchor="middle" x="1597.64" y="-215.84" font-family="Times,serif" font-size="14.00">[&quot;allowed&quot;]</text>
</g>
<!-- 6592&#45;&gt;9395 -->
<g id="edge28" class="edge">
<title>6592&#45;&gt;9395</title>
<path fill="none" stroke="#e09d4b" d="M1559.78,-238.81C1514.26,-261.87 1499.77,-279.72 1451.39,-360.96"/>
<polygon fill="#e09d4b" stroke="#e09d4b" points="1448.51,-358.96 1446.41,-369.34 1454.53,-362.53 1448.51,-358.96"/>
</g>
<!-- 6593 -->
<g id="node11" class="node">
<title>6593</title>
<text text-anchor="start" x="1561.99" y="-177.49" font-family="Times,serif" font-size="14.00">Fedora: </text>
<text text-anchor="start" x="1606.99" y="-177.49" font-family="Times,serif" font-weight="bold" font-size="14.00" fill="#228b22">allowed</text>
<text text-anchor="start" x="1398.12" y="-163.49" font-family="Times,serif" font-size="14.00">A license is allowed if Fedora determines that the license is a free software /</text>
<text text-anchor="start" x="1392.87" y="-149.49" font-family="Times,serif" font-size="14.00">open source license. At a high level, the inquiry involves determining whether</text>
<text text-anchor="start" x="1391.74" y="-135.49" font-family="Times,serif" font-size="14.00">the license provides software freedom, and (equivalently) making sure that the</text>
<text text-anchor="start" x="1401.87" y="-121.49" font-family="Times,serif" font-size="14.00">license does not place burdens on users&#39; exercise of its permissions that are</text>
<text text-anchor="start" x="1401.49" y="-107.49" font-family="Times,serif" font-size="14.00">inconsistent with evolving community norms and traditions around what is</text>
<text text-anchor="start" x="1393.24" y="-93.49" font-family="Times,serif" font-size="14.00">acceptable in a free software / open source license. See below for more on the</text>
<text text-anchor="start" x="1513.24" y="-79.49" font-family="Times,serif" font-size="14.00">history of Fedora licensing policy.</text>
</g>
<!-- 6593&#45;&gt;6592 -->
<g id="edge29" class="edge">
<title>6593&#45;&gt;6592</title>
<path fill="none" stroke="#e09d4b" d="M1600.07,-193.39C1600.06,-193.49 1600.05,-193.58 1600.04,-193.67"/>
<polygon fill="#e09d4b" stroke="#e09d4b" points="1596.75,-191.14 1599.35,-201.42 1603.72,-191.76 1596.75,-191.14"/>
</g>
<!-- 9395&#45;&gt;9396 -->
<g id="edge30" class="edge">
<title>9395&#45;&gt;9396</title>
<path fill="none" stroke="#e09d4b" d="M1439.41,-428.97C1440.06,-431.08 1440.76,-433.41 1441.53,-436.03"/>
<polygon fill="#e09d4b" stroke="#e09d4b" points="1438.12,-436.84 1444.27,-445.46 1444.84,-434.88 1438.12,-436.84"/>
</g>
<!-- 10364 -->
<g id="node14" class="node">
<title>10364</title>
<text text-anchor="start" x="2825" y="-403.98" font-family="Times,serif" font-size="14.00">BlueOakCouncil: </text>
<text text-anchor="start" x="2923.25" y="-403.98" font-family="Times,serif" font-weight="bold" font-size="14.00" fill="#8b0000">Lead</text>
<text text-anchor="start" x="2670.5" y="-389.98" font-family="Times,serif" font-size="14.00">These licenses lack one or more essential elements of permissive open software</text>
<text text-anchor="start" x="2681.37" y="-375.98" font-family="Times,serif" font-size="14.00">licenses or impose unusually burdensome requirements. &#160;Many use unclear,</text>
<text text-anchor="start" x="2800.62" y="-361.98" font-family="Times,serif" font-size="14.00">jocular, or incomplete language.</text>
</g>
<!-- 10364&#45;&gt;10411 -->
<g id="edge31" class="edge">
<title>10364&#45;&gt;10411</title>
<path fill="none" stroke="#00876c" d="M2662.52,-358.67C2614.49,-362.64 2553.67,-372.83 2461.4,-390.08"/>
<polygon fill="#00876c" stroke="#00876c" points="2460.96,-386.6 2451.78,-391.88 2462.25,-393.48 2460.96,-386.6"/>
</g>
<!-- 10411&#45;&gt;10412 -->
<g id="edge32" class="edge">
<title>10411&#45;&gt;10412</title>
<path fill="none" stroke="#00876c" d="M2210.68,-429.2C2150.66,-443.35 2089.74,-472.75 1938.91,-549.34"/>
<polygon fill="#00876c" stroke="#00876c" points="1937.53,-546.12 1930.2,-553.77 1940.7,-552.36 1937.53,-546.12"/>
</g>
<!-- 10413 -->
<g id="node17" class="node">
<title>10413</title>
<text text-anchor="middle" x="2637.7" y="-125.18" font-family="Times,serif" font-size="14.00">https://spdx.org/licenses/diffmark.html</text>
</g>
<!-- 10413&#45;&gt;10411 -->
<g id="edge33" class="edge">
<title>10413&#45;&gt;10411</title>
<path fill="none" stroke="#00876c" d="M2620.33,-148.14C2555.78,-214.62 2538.95,-230.62 2380.15,-376.69"/>
<polygon fill="#00876c" stroke="#00876c" points="2378.09,-373.83 2373.1,-383.18 2382.83,-378.98 2378.09,-373.83"/>
</g>
<!-- 12813 -->
<g id="node18" class="node">
<title>12813</title>
<text text-anchor="middle" x="515.8" y="-1210.29" font-family="Times,serif" font-size="14.00">LicenseType Public Domain</text>
</g>
<!-- 16294 -->
<g id="node19" class="node">
<title>16294</title>
<ellipse fill="none" stroke="#deb256" cx="770.01" cy="-912.13" rx="159.81" ry="28.99"/>
<text text-anchor="middle" x="770.01" y="-915.33" font-family="Times,serif" font-size="14.00" fill="gray">ScancodeData</text>
<text text-anchor="middle" x="770.01" y="-898.83" font-family="Times,serif" font-size="14.00" fill="gray">577b42e7260d00169e38f8c5c168a0dd</text>
</g>
<!-- 12813&#45;&gt;16294 -->
<g id="edge34" class="edge">
<title>12813&#45;&gt;16294</title>
<path fill="none" stroke="#deb256" d="M521.48,-1197.5C560.37,-1075.81 570.54,-1060.12 722.06,-947.59"/>
<polygon fill="#deb256" stroke="#deb256" points="724.12,-950.42 730.06,-941.65 719.95,-944.8 724.12,-950.42"/>
</g>
<!-- 16294&#45;&gt;16295 -->
<g id="edge35" class="edge">
<title>16294&#45;&gt;16295</title>
<path fill="none" stroke="#deb256" d="M801.37,-883.35C898.62,-795.02 928.62,-781.78 1138.45,-747.2"/>
<polygon fill="#deb256" stroke="#deb256" points="1138.76,-750.7 1148.06,-745.62 1137.63,-743.79 1138.76,-750.7"/>
</g>
<!-- 16295&#45;&gt;5118 -->
<g id="edge36" class="edge">
<title>16295&#45;&gt;5118</title>
<path fill="none" stroke="#00876c" stroke-width="2" d="M1321.89,-727.11C1333.12,-725.73 1344.54,-724.21 1355.61,-722.62"/>
<polygon fill="#00876c" stroke="#00876c" stroke-width="2" points="1364.14,-721.37 1354.9,-727.27 1361.68,-722.24 1354.32,-723.32 1354.25,-722.82 1354.17,-722.33 1361.53,-721.25 1353.59,-718.37 1364.14,-721.37"/>
</g>
<!-- 16295&#45;&gt;47024 -->
<g id="edge37" class="edge">
<title>16295&#45;&gt;47024</title>
<path fill="none" stroke="#379469" stroke-dasharray="5,2" d="M1220.12,-709.99C1217.8,-705.08 1215.97,-701.04 1214.51,-697.56"/>
<polygon fill="#379469" stroke="#379469" points="1211.22,-688.45 1218.85,-696.32 1212.51,-692.01 1214.62,-697.85 1214.62,-697.85 1214.62,-697.85 1212.51,-692.01 1210.39,-699.38 1211.22,-688.45"/>
</g>
<!-- 16296 -->
<g id="node21" class="node">
<title>16296</title>
<text text-anchor="middle" x="307.95" y="-856.13" font-family="Times,serif" font-size="14.00">https://fedoraproject.org/wiki/Licensing/diffmark</text>
</g>
<!-- 16296&#45;&gt;16294 -->
<g id="edge38" class="edge">
<title>16296&#45;&gt;16294</title>
<path fill="none" stroke="#deb256" d="M449.82,-872.97C490.62,-877.22 540.79,-883.28 626.69,-894.05"/>
<polygon fill="#deb256" stroke="#deb256" points="626.05,-897.5 636.41,-895.27 626.92,-890.55 626.05,-897.5"/>
</g>
<!-- 16297 -->
<g id="node22" class="node">
<title>16297</title>
<text text-anchor="middle" x="219.02" y="-1161.27" font-family="Times,serif" font-size="14.00">ScancodeData:</text>
<text text-anchor="middle" x="219.02" y="-1144.77" font-family="Times,serif" font-size="14.00">Per Fedora, this extremely minimal and permissive license was found in</text>
<text text-anchor="middle" x="219.02" y="-1128.27" font-family="Times,serif" font-size="14.00">diffmark (0.08). While poorly written, our interpretation of the text</text>
<text text-anchor="middle" x="219.02" y="-1111.77" font-family="Times,serif" font-size="14.00">permits use, modification, and distribution. It also permits wearing it as</text>
<text text-anchor="middle" x="219.02" y="-1095.27" font-family="Times,serif" font-size="14.00">a hat or eating it for lunch, although neither of those cases are</text>
<text text-anchor="middle" x="219.02" y="-1078.77" font-family="Times,serif" font-size="14.00">recommended. This would perhaps be considered Copyright only, except that</text>
<text text-anchor="middle" x="219.02" y="-1062.27" font-family="Times,serif" font-size="14.00">no requirement of retention of copyright is present, and the copyright</text>
<text text-anchor="middle" x="219.02" y="-1045.77" font-family="Times,serif" font-size="14.00">holder is disclaiming liability (albeit, poorly). This license is Free, and</text>
<text text-anchor="middle" x="219.02" y="-1029.27" font-family="Times,serif" font-size="14.00">GPL compatible.</text>
</g>
<!-- 16297&#45;&gt;16294 -->
<g id="edge39" class="edge">
<title>16297&#45;&gt;16294</title>
<path fill="none" stroke="#deb256" d="M355.89,-1022.15C417.57,-994.52 490.78,-975.69 657.81,-937.56"/>
<polygon fill="#deb256" stroke="#deb256" points="658.5,-940.99 667.48,-935.36 656.95,-934.17 658.5,-940.99"/>
</g>
<!-- 16298 -->
<g id="node23" class="node">
<title>16298</title>
<text text-anchor="middle" x="496.09" y="-1006.67" font-family="Times,serif" font-size="14.00">$TEXT</text>
</g>
<!-- 16298&#45;&gt;16294 -->
<g id="edge40" class="edge">
<title>16298&#45;&gt;16294</title>
<path fill="none" stroke="#deb256" d="M521.79,-993.74C562.47,-965.9 584.57,-955.78 658.86,-937.66"/>
<polygon fill="#deb256" stroke="#deb256" points="659.33,-941.15 668.23,-935.4 657.69,-934.34 659.33,-941.15"/>
</g>
<!-- 35012&#45;&gt;35013 -->
<g id="edge41" class="edge">
<title>35012&#45;&gt;35013</title>
<path fill="none" stroke="#e18745" d="M1778.2,-408.81C1774.78,-414.46 1770.87,-421.48 1765.55,-431.39"/>
<polygon fill="#e18745" stroke="#e18745" points="1762.57,-429.53 1760.94,-440 1768.74,-432.83 1762.57,-429.53"/>
</g>
<!-- 35014 -->
<g id="node26" class="node">
<title>35014</title>
<text text-anchor="middle" x="1981.47" y="-114.71" font-family="Times,serif" font-size="14.00">$TEXT</text>
</g>
<!-- 35014&#45;&gt;35012 -->
<g id="edge42" class="edge">
<title>35014&#45;&gt;35012</title>
<path fill="none" stroke="#e18745" d="M1964.98,-137.46C1917.99,-188.21 1906.24,-205.35 1823.27,-341.23"/>
<polygon fill="#e18745" stroke="#e18745" points="1820.44,-339.14 1818.22,-349.49 1826.42,-342.78 1820.44,-339.14"/>
</g>
<!-- 35433 -->
<g id="node27" class="node">
<title>35433</title>
<text text-anchor="middle" x="2344.74" y="-1122.63" font-family="Times,serif" font-size="14.00">LicenseTag (ScopedLicenseTag &quot;OrtLicenseCategorization&quot; &quot;include&#45;in&#45;notice&#45;file&quot; NoLicenseTagText)</text>
</g>
<!-- 39950 -->
<g id="node29" class="node">
<title>39950</title>
<ellipse fill="none" stroke="#d43d51" cx="1817.81" cy="-800.08" rx="155.03" ry="28.99"/>
<text text-anchor="middle" x="1817.81" y="-803.28" font-family="Times,serif" font-size="14.00" fill="gray">OrtLicenseCategorization</text>
<text text-anchor="middle" x="1817.81" y="-786.78" font-family="Times,serif" font-size="14.00" fill="gray">6c2f425c0568ab7ffa564f493940e4d5</text>
</g>
<!-- 35433&#45;&gt;39950 -->
<g id="edge43" class="edge">
<title>35433&#45;&gt;39950</title>
<path fill="none" stroke="#d43d51" d="M2331.11,-1109.8C2213.12,-955.23 2193.31,-939.18 1899.46,-830.23"/>
<polygon fill="#d43d51" stroke="#d43d51" points="1900.9,-827.03 1890.31,-826.84 1898.47,-833.59 1900.9,-827.03"/>
</g>
<!-- 35455 -->
<g id="node28" class="node">
<title>35455</title>
<text text-anchor="middle" x="1900.44" y="-850.22" font-family="Times,serif" font-size="14.00">LicenseTag (ScopedLicenseTag &quot;OrtLicenseCategorization&quot; &quot;public&#45;domain&quot; NoLicenseTagText)</text>
</g>
<!-- 35455&#45;&gt;39950 -->
<g id="edge44" class="edge">
<title>35455&#45;&gt;39950</title>
<path fill="none" stroke="#d43d51" d="M1888.69,-837.43C1888.23,-836.78 1887.78,-836.14 1887.34,-835.52"/>
<polygon fill="#d43d51" stroke="#d43d51" points="1890.29,-833.62 1881.32,-827.98 1884.82,-837.98 1890.29,-833.62"/>
</g>
<!-- 39950&#45;&gt;5118 -->
<g id="edge45" class="edge">
<title>39950&#45;&gt;5118</title>
<path fill="none" stroke="#d43d51" d="M1778.14,-771.74C1668.15,-693.8 1637.5,-681.06 1525.8,-693.56"/>
<polygon fill="#d43d51" stroke="#d43d51" points="1525.4,-690.09 1515.87,-694.72 1526.21,-697.04 1525.4,-690.09"/>
</g>
<!-- 41443 -->
<g id="node30" class="node">
<title>41443</title>
<ellipse fill="none" stroke="#379469" cx="2212.02" cy="-739.41" rx="159.81" ry="28.99"/>
<text text-anchor="middle" x="2212.02" y="-742.61" font-family="Times,serif" font-size="14.00" fill="gray">CavilLicenseChange</text>
<text text-anchor="middle" x="2212.02" y="-726.11" font-family="Times,serif" font-size="14.00" fill="gray">b19833969f9f4a14670b75e89d9988b4</text>
</g>
<!-- 41443&#45;&gt;41444 -->
<g id="edge46" class="edge">
<title>41443&#45;&gt;41444</title>
<path fill="none" stroke="#379469" d="M2165.76,-711.22C2095.14,-669.87 2063.08,-664.64 1926.79,-670.55"/>
<polygon fill="#379469" stroke="#379469" points="1926.83,-667.05 1916.99,-670.99 1927.14,-674.04 1926.83,-667.05"/>
</g>
<!-- 47023 -->
<g id="node32" class="node">
<title>47023</title>
<ellipse fill="none" stroke="#379469" cx="784.8" cy="-593.73" rx="158.75" ry="28.99"/>
<text text-anchor="middle" x="784.8" y="-596.93" font-family="Times,serif" font-size="14.00" fill="gray">MetaeffektLicense</text>
<text text-anchor="middle" x="784.8" y="-580.43" font-family="Times,serif" font-size="14.00" fill="gray">f54703e27cd942ec43a9be34994d96c0</text>
</g>
<!-- 47023&#45;&gt;47024 -->
<g id="edge47" class="edge">
<title>47023&#45;&gt;47024</title>
<path fill="none" stroke="#379469" d="M942.6,-589.94C985.19,-596.85 1038.52,-612.27 1131.06,-641"/>
<polygon fill="#379469" stroke="#379469" points="1129.91,-644.31 1140.5,-643.93 1131.99,-637.62 1129.91,-644.31"/>
</g>
<!-- 70039 -->
<g id="node34" class="node">
<title>70039</title>
<ellipse fill="none" stroke="#00876c" cx="1123.05" cy="-935.98" rx="158.75" ry="28.99"/>
<text text-anchor="middle" x="1123.05" y="-939.18" font-family="Times,serif" font-size="14.00" fill="gray">LicenseLynx</text>
<text text-anchor="middle" x="1123.05" y="-922.68" font-family="Times,serif" font-size="14.00" fill="gray">96c6316c646e073d55a08f89fb09d9d2</text>
</g>
<!-- 70039&#45;&gt;5118 -->
<g id="edge48" class="edge">
<title>70039&#45;&gt;5118</title>
<path fill="none" stroke="#00876c" d="M1140.3,-906.77C1210.79,-788.03 1229.69,-769.39 1365.68,-726.93"/>
<polygon fill="#00876c" stroke="#00876c" points="1366.59,-730.31 1375.1,-724.01 1364.52,-723.62 1366.59,-730.31"/>
</g>
<!-- 70040&#45;&gt;5118 -->
<g id="edge49" class="edge">
<title>70040&#45;&gt;5118</title>
<path fill="none" stroke="#00876c" stroke-width="2" d="M1634.96,-941.81C1556.43,-801.68 1538.74,-773.01 1484.14,-735.48"/>
<polygon fill="#00876c" stroke="#00876c" stroke-width="2" points="1477.07,-730.72 1487.87,-732.57 1479.47,-731.74 1485.64,-735.89 1485.36,-736.3 1485.08,-736.72 1478.91,-732.57 1482.85,-740.04 1477.07,-730.72"/>
</g>
<!-- 70041&#45;&gt;5118 -->
<g id="edge50" class="edge">
<title>70041&#45;&gt;5118</title>
<path fill="none" stroke="#00876c" stroke-width="2" d="M1404.77,-966.13C1393.16,-824.7 1392.66,-800.22 1419.53,-741.68"/>
<polygon fill="#00876c" stroke="#00876c" stroke-width="2" points="1423.24,-733.77 1423.07,-744.74 1422.6,-736.31 1419.45,-743.04 1418.99,-742.83 1418.54,-742.61 1421.7,-735.88 1414.92,-740.92 1423.24,-733.77"/>
</g>
<!-- 77131 -->
<g id="node37" class="node">
<title>77131</title>
<ellipse fill="none" stroke="#e09d4b" cx="1624.16" cy="-1659.5" rx="156.62" ry="28.99"/>
<text text-anchor="middle" x="1624.16" y="-1662.7" font-family="Times,serif" font-size="14.00" fill="gray">TLDRNaming</text>
<text text-anchor="middle" x="1624.16" y="-1646.2" font-family="Times,serif" font-size="14.00" fill="gray">4cf95d8b8955f04e6c2eb78bc7fb0d21</text>
</g>
<!-- 77131&#45;&gt;77132 -->
<g id="edge51" class="edge">
<title>77131&#45;&gt;77132</title>
<path fill="none" stroke="#e09d4b" d="M1632.85,-1630.19C1663.49,-1525.73 1664.73,-1501.09 1665,-1244.98"/>
<polygon fill="#e09d4b" stroke="#e09d4b" points="1668.5,-1245.32 1665.01,-1235.31 1661.5,-1245.31 1668.5,-1245.32"/>
</g>
<!-- 77133 -->
<g id="node39" class="node">
<title>77133</title>
<polygon fill="none" stroke="#e09d4b" points="1965,-1562 1965,-1576.91 1897.72,-1587.45 1802.56,-1587.45 1735.28,-1576.91 1735.28,-1562 1802.56,-1551.45 1897.72,-1551.45 1965,-1562"/>
<polygon fill="none" stroke="#e09d4b" points="1969,-1558.57 1969,-1580.33 1898.03,-1591.45 1802.25,-1591.45 1731.28,-1580.33 1731.28,-1558.57 1802.25,-1547.45 1898.03,-1547.45 1969,-1558.57"/>
<text text-anchor="middle" x="1850.14" y="-1564.4" font-family="Times,serif" font-size="14.00">tldr&#45;slug:diffmark&#45;license</text>
</g>
<!-- 77133&#45;&gt;77132 -->
<g id="edge52" class="edge">
<title>77133&#45;&gt;77132</title>
<path fill="none" stroke="#e09d4b" stroke-width="2" d="M1839.79,-1547.23C1800.34,-1462.62 1790.3,-1443.48 1682.26,-1243.48"/>
<polygon fill="#e09d4b" stroke="#e09d4b" stroke-width="2" points="1678.19,-1235.97 1686.91,-1242.63 1679.85,-1237.98 1683.39,-1244.53 1682.95,-1244.76 1682.51,-1245 1678.97,-1238.46 1678.99,-1246.9 1678.19,-1235.97"/>
</g>
<!-- 77134 -->
<g id="node40" class="node">
<title>77134</title>
<polygon fill="none" stroke="#e09d4b" points="2074.4,-1846.77 2074.4,-1861.68 2028.53,-1872.22 1963.67,-1872.22 1917.8,-1861.68 1917.8,-1846.77 1963.67,-1836.22 2028.53,-1836.22 2074.4,-1846.77"/>
<polygon fill="none" stroke="#e09d4b" points="2078.4,-1843.58 2078.4,-1864.86 2028.98,-1876.22 1963.22,-1876.22 1913.8,-1864.86 1913.8,-1843.58 1963.22,-1832.22 2028.98,-1832.22 2078.4,-1843.58"/>
<text text-anchor="middle" x="1996.1" y="-1849.17" font-family="Times,serif" font-size="14.00">diffmark&#45;license</text>
</g>
<!-- 77134&#45;&gt;77133 -->
<g id="edge53" class="edge">
<title>77134&#45;&gt;77133</title>
<path fill="none" stroke="#e09d4b" stroke-width="2" d="M1985.33,-1831.94C1955.4,-1770.1 1945.75,-1751.43 1866.89,-1601.33"/>
<polygon fill="#e09d4b" stroke="#e09d4b" stroke-width="2" points="1862.98,-1593.89 1871.61,-1600.64 1864.61,-1595.92 1868.07,-1602.51 1867.63,-1602.74 1867.19,-1602.97 1863.73,-1596.39 1863.65,-1604.83 1862.98,-1593.89"/>
</g>
<!-- 77135 -->
<g id="node41" class="node">
<title>77135</title>
<text text-anchor="middle" x="1614.29" y="-2091.36" font-family="Times,serif" font-size="14.00">TLDR: https://tldrlegal.com/license/diffmark&#45;license</text>
</g>
<!-- 77135&#45;&gt;77131 -->
<g id="edge54" class="edge">
<title>77135&#45;&gt;77131</title>
<path fill="none" stroke="#e09d4b" d="M1615.86,-2078.41C1625.29,-1969.98 1625.69,-1952.09 1624.38,-1700.18"/>
<polygon fill="#e09d4b" stroke="#e09d4b" points="1627.88,-1700.28 1624.33,-1690.3 1620.88,-1700.32 1627.88,-1700.28"/>
</g>
</g>
</svg>
