<?xml version="1.0" encoding="UTF-8" standalone="no"?>
<!DOCTYPE svg PUBLIC "-//W3C//DTD SVG 1.1//EN"
 "http://www.w3.org/Graphics/SVG/1.1/DTD/svg11.dtd">
<!-- Generated by graphviz version 10.0.1 (0)
 -->
<!-- Pages: 1 -->
<svg width="4772pt" height="2447pt"
 viewBox="0.00 0.00 4772.00 2447.00" xmlns="http://www.w3.org/2000/svg" xmlns:xlink="http://www.w3.org/1999/xlink">
<g id="graph0" class="graph" transform="scale(1 1) rotate(0) translate(4 2443)">
<polygon fill="white" stroke="none" points="-4,4 -4,-2443 4768,-2443 4768,4 -4,4"/>
<!-- 5 -->
<g id="node1" class="node">
<title>5</title>
<text text-anchor="start" x="2956.74" y="-364.57" font-family="Times,serif" font-size="14.00">OSI: </text>
<text text-anchor="start" x="2985.99" y="-364.57" font-family="Times,serif" font-weight="bold" font-size="14.00" fill="#8b0000">Rejected</text>
</g>
<!-- 5124 -->
<g id="node2" class="node">
<title>5124</title>
<ellipse fill="none" stroke="#dac767" cx="3158.77" cy="-677.44" rx="159.28" ry="28.99"/>
<text text-anchor="middle" x="3158.77" y="-680.64" font-family="Times,serif" font-size="14.00" fill="gray">SPDXLicense</text>
<text text-anchor="middle" x="3158.77" y="-664.14" font-family="Times,serif" font-size="14.00" fill="gray">9e47b867f09957c85237c6fd1031d464</text>
</g>
<!-- 5&#45;&gt;5124 -->
<g id="edge1" class="edge">
<title>5&#45;&gt;5124</title>
<path fill="none" stroke="#dac767" d="M3018.78,-386.61C3118.84,-467.74 3127.98,-483.8 3152.39,-636.85"/>
<polygon fill="#dac767" stroke="#dac767" points="3148.91,-637.28 3153.94,-646.61 3155.83,-636.19 3148.91,-637.28"/>
</g>
<!-- 5125 -->
<g id="node3" class="node">
<title>5125</title>
<polygon fill="none" stroke="black" points="3425.99,-1143.66 3425.99,-1158.57 3396.35,-1169.12 3354.44,-1169.12 3324.8,-1158.57 3324.8,-1143.66 3354.44,-1133.12 3396.35,-1133.12 3425.99,-1143.66"/>
<polygon fill="none" stroke="black" points="3429.99,-1140.84 3429.99,-1161.4 3397.05,-1173.12 3353.75,-1173.12 3320.8,-1161.4 3320.8,-1140.84 3353.75,-1129.12 3397.05,-1129.12 3429.99,-1140.84"/>
<polygon fill="none" stroke="black" points="3433.99,-1138.02 3433.99,-1164.22 3397.74,-1177.12 3353.06,-1177.12 3316.8,-1164.22 3316.8,-1138.02 3353.06,-1125.12 3397.74,-1125.12 3433.99,-1138.02"/>
<text text-anchor="middle" x="3375.4" y="-1146.07" font-family="Times,serif" font-size="14.00">spdx:dtoa</text>
</g>
<!-- 5124&#45;&gt;5125 -->
<g id="edge2" class="edge">
<title>5124&#45;&gt;5125</title>
<path fill="none" stroke="#dac767" d="M3188.16,-706.3C3356.51,-872.05 3365.54,-892.07 3374.01,-1113.48"/>
<polygon fill="#dac767" stroke="#dac767" points="3370.51,-1113.5 3374.38,-1123.36 3377.5,-1113.23 3370.51,-1113.5"/>
</g>
<!-- 9398 -->
<g id="node14" class="node">
<title>9398</title>
<polygon fill="none" stroke="#e09d4b" points="3670.96,-897.74 3670.96,-912.65 3636.13,-923.19 3586.88,-923.19 3552.04,-912.65 3552.04,-897.74 3586.88,-887.19 3636.13,-887.19 3670.96,-897.74"/>
<polygon fill="none" stroke="#e09d4b" points="3674.96,-894.77 3674.96,-915.62 3636.73,-927.19 3586.28,-927.19 3548.04,-915.62 3548.04,-894.77 3586.28,-883.19 3636.73,-883.19 3674.96,-894.77"/>
<text text-anchor="middle" x="3611.5" y="-900.14" font-family="Times,serif" font-size="14.00">Fedora:dtoa</text>
</g>
<!-- 5125&#45;&gt;9398 -->
<g id="edge3" class="edge">
<title>5125&#45;&gt;9398</title>
<path fill="none" stroke="#e09d4b" stroke-width="2" d="M3407.06,-1128.11C3543.29,-1028.95 3561.1,-1012.66 3596.62,-937.47"/>
<polygon fill="#e09d4b" stroke="#e09d4b" stroke-width="2" points="3600.25,-929.69 3600.09,-940.66 3599.62,-932.23 3596.47,-938.97 3596.02,-938.75 3595.56,-938.54 3598.71,-931.8 3591.94,-936.85 3600.25,-929.69"/>
</g>
<!-- 28141 -->
<g id="node16" class="node">
<title>28141</title>
<polygon fill="none" stroke="black" points="3415.14,-1528.93 3415.14,-1543.84 3360.19,-1554.38 3282.47,-1554.38 3227.52,-1543.84 3227.52,-1528.93 3282.47,-1518.38 3360.19,-1518.38 3415.14,-1528.93"/>
<polygon fill="none" stroke="black" points="3419.14,-1525.62 3419.14,-1547.15 3360.57,-1558.38 3282.09,-1558.38 3223.52,-1547.15 3223.52,-1525.62 3282.09,-1514.38 3360.57,-1514.38 3419.14,-1525.62"/>
<text text-anchor="middle" x="3321.33" y="-1531.33" font-family="Times,serif" font-size="14.00">scancode:x11&#45;lucent</text>
</g>
<!-- 5125&#45;&gt;28141 -->
<g id="edge4" class="edge">
<title>5125&#45;&gt;28141</title>
<path fill="none" stroke="#deb256" stroke-width="2" d="M3368.02,-1177.4C3354.4,-1245.52 3328.72,-1427.72 3321.99,-1503.06"/>
<polygon fill="#deb256" stroke="#deb256" stroke-width="2" points="3321.28,-1511.78 3317.61,-1501.44 3320.99,-1509.18 3321.6,-1501.77 3322.09,-1501.81 3322.59,-1501.85 3321.98,-1509.26 3326.58,-1502.18 3321.28,-1511.78"/>
</g>
<!-- 55307 -->
<g id="node35" class="node">
<title>55307</title>
<polygon fill="none" stroke="#379469" points="3871.25,-1474.1 3871.25,-1489.01 3778.98,-1499.55 3648.5,-1499.55 3556.23,-1489.01 3556.23,-1474.1 3648.5,-1463.55 3778.98,-1463.55 3871.25,-1474.1"/>
<polygon fill="none" stroke="#379469" points="3875.25,-1470.53 3875.25,-1492.58 3779.21,-1503.55 3648.27,-1503.55 3552.23,-1492.58 3552.23,-1470.53 3648.27,-1459.55 3779.21,-1459.55 3875.25,-1470.53"/>
<text text-anchor="middle" x="3713.74" y="-1476.5" font-family="Times,serif" font-size="14.00">metaeffekt:Permission Terms (dtoa)</text>
</g>
<!-- 5125&#45;&gt;55307 -->
<g id="edge5" class="edge">
<title>5125&#45;&gt;55307</title>
<path fill="none" stroke="#379469" stroke-width="2" d="M3409.33,-1173.42C3621.35,-1312.91 3640.37,-1329.37 3698.34,-1449.35"/>
<polygon fill="#379469" stroke="#379469" stroke-width="2" points="3702.08,-1457.13 3693.69,-1450.07 3700.52,-1455.04 3697.3,-1448.34 3697.75,-1448.12 3698.2,-1447.9 3701.42,-1454.61 3701.8,-1446.17 3702.08,-1457.13"/>
</g>
<!-- 5126 -->
<g id="node4" class="node">
<title>5126</title>
<polygon fill="none" stroke="black" points="3657.13,-1040.79 3657.13,-1055.7 3640.15,-1066.24 3616.13,-1066.24 3599.15,-1055.7 3599.15,-1040.79 3616.13,-1030.24 3640.15,-1030.24 3657.13,-1040.79"/>
<polygon fill="none" stroke="black" points="3661.13,-1038.56 3661.13,-1057.92 3641.29,-1070.24 3614.99,-1070.24 3595.15,-1057.92 3595.15,-1038.56 3614.99,-1026.24 3641.29,-1026.24 3661.13,-1038.56"/>
<text text-anchor="middle" x="3628.14" y="-1043.19" font-family="Times,serif" font-size="14.00">dtoa</text>
</g>
<!-- 5126&#45;&gt;5125 -->
<g id="edge6" class="edge">
<title>5126&#45;&gt;5125</title>
<path fill="none" stroke="black" stroke-width="2" d="M3603.64,-1063.63C3560.62,-1090.17 3539.72,-1098.71 3437.09,-1131.52"/>
<polygon fill="black" stroke="black" stroke-width="2" points="3428.88,-1134.14 3437.04,-1126.81 3431.17,-1132.88 3438.25,-1130.62 3438.41,-1131.1 3438.56,-1131.58 3431.47,-1133.84 3439.77,-1135.39 3428.88,-1134.14"/>
</g>
<!-- 5126&#45;&gt;9398 -->
<g id="edge7" class="edge">
<title>5126&#45;&gt;9398</title>
<path fill="none" stroke="#e09d4b" stroke-width="2" d="M3633.85,-1025.9C3644.68,-982.41 3644.86,-969.12 3628.72,-937.06"/>
<polygon fill="#e09d4b" stroke="#e09d4b" stroke-width="2" points="3624.85,-929.63 3633.46,-936.43 3626.48,-931.68 3629.92,-938.27 3629.47,-938.5 3629.03,-938.73 3625.59,-932.14 3625.48,-940.58 3624.85,-929.63"/>
</g>
<!-- 41466 -->
<g id="node31" class="node">
<title>41466</title>
<polygon fill="none" stroke="#379469" points="3935.34,-970.44 3935.34,-985.35 3905.38,-995.9 3863,-995.9 3833.04,-985.35 3833.04,-970.44 3863,-959.9 3905.38,-959.9 3935.34,-970.44"/>
<polygon fill="none" stroke="#379469" points="3939.34,-967.61 3939.34,-988.19 3906.06,-999.9 3862.32,-999.9 3829.04,-988.19 3829.04,-967.61 3862.32,-955.9 3906.06,-955.9 3939.34,-967.61"/>
<text text-anchor="middle" x="3884.19" y="-972.85" font-family="Times,serif" font-size="14.00">cavil:dtoa</text>
</g>
<!-- 5126&#45;&gt;41466 -->
<g id="edge8" class="edge">
<title>5126&#45;&gt;41466</title>
<path fill="none" stroke="#379469" stroke-width="2" d="M3661.33,-1040.32C3763.19,-1016 3796.99,-1007.67 3831.31,-996.47"/>
<polygon fill="#379469" stroke="#379469" stroke-width="2" points="3839.24,-993.82 3831.18,-1001.25 3836.97,-995.1 3829.91,-997.46 3829.76,-996.98 3829.6,-996.51 3836.65,-994.15 3828.33,-992.71 3839.24,-993.82"/>
</g>
<!-- 5127 -->
<g id="node5" class="node">
<title>5127</title>
<polygon fill="none" stroke="black" points="3676.98,-1296.17 3676.98,-1311.08 3604.18,-1321.63 3501.23,-1321.63 3428.43,-1311.08 3428.43,-1296.17 3501.23,-1285.63 3604.18,-1285.63 3676.98,-1296.17"/>
<polygon fill="none" stroke="black" points="3680.98,-1292.71 3680.98,-1314.54 3604.47,-1325.63 3500.94,-1325.63 3424.43,-1314.54 3424.43,-1292.71 3500.94,-1281.63 3604.47,-1281.63 3680.98,-1292.71"/>
<text text-anchor="middle" x="3552.7" y="-1298.58" font-family="Times,serif" font-size="14.00">David M. Gay dtoa License</text>
</g>
<!-- 5127&#45;&gt;5125 -->
<g id="edge9" class="edge">
<title>5127&#45;&gt;5125</title>
<path fill="none" stroke="#dac767" stroke-width="2" d="M3540.23,-1281.24C3513.77,-1234.81 3500.28,-1222.55 3422.06,-1177.63"/>
<polygon fill="#dac767" stroke="#dac767" stroke-width="2" points="3414.83,-1173.49 3425.75,-1174.55 3417.31,-1174.33 3423.76,-1178.03 3423.51,-1178.46 3423.27,-1178.89 3416.81,-1175.2 3421.28,-1182.37 3414.83,-1173.49"/>
</g>
<!-- 5127&#45;&gt;55307 -->
<g id="edge10" class="edge">
<title>5127&#45;&gt;55307</title>
<path fill="none" stroke="#379469" stroke-dasharray="5,2" d="M3582.67,-1326.02C3664.6,-1387.46 3680.05,-1402.16 3700.37,-1448.96"/>
<polygon fill="#379469" stroke="#379469" points="3704.19,-1457.99 3696.16,-1450.53 3702.72,-1454.51 3700.3,-1448.78 3700.3,-1448.78 3700.3,-1448.78 3702.72,-1454.51 3704.44,-1447.03 3704.19,-1457.99"/>
</g>
<!-- 70122 -->
<g id="node43" class="node">
<title>70122</title>
<polygon fill="none" stroke="#00876c" points="3763.14,-1244.09 3763.14,-1259 3677.69,-1269.54 3556.84,-1269.54 3471.38,-1259 3471.38,-1244.09 3556.84,-1233.54 3677.69,-1233.54 3763.14,-1244.09"/>
<polygon fill="none" stroke="#00876c" points="3767.14,-1240.55 3767.14,-1262.54 3677.94,-1273.54 3556.59,-1273.54 3467.38,-1262.54 3467.38,-1240.55 3556.59,-1229.54 3677.94,-1229.54 3767.14,-1240.55"/>
<text text-anchor="middle" x="3617.26" y="-1246.49" font-family="Times,serif" font-size="14.00">spdx:David M. Gay dtoa License</text>
</g>
<!-- 5127&#45;&gt;70122 -->
<g id="edge11" class="edge">
<title>5127&#45;&gt;70122</title>
<path fill="none" stroke="#00876c" stroke-width="2" d="M3593.29,-1281.25C3593.52,-1281.09 3593.74,-1280.93 3593.96,-1280.78"/>
<polygon fill="#00876c" stroke="#00876c" stroke-width="2" points="3600.43,-1275.3 3595.71,-1285.2 3598.79,-1277.34 3593.12,-1282.15 3592.8,-1281.77 3592.47,-1281.39 3598.15,-1276.58 3589.89,-1278.33 3600.43,-1275.3"/>
</g>
<!-- 5128 -->
<g id="node6" class="node">
<title>5128</title>
<text text-anchor="middle" x="3163.85" y="-283.6" font-family="Times,serif" font-size="14.00">$TEXT</text>
</g>
<!-- 5128&#45;&gt;5124 -->
<g id="edge12" class="edge">
<title>5128&#45;&gt;5124</title>
<path fill="none" stroke="#dac767" d="M3170.66,-306.45C3214.88,-422.66 3215.36,-438.86 3168.39,-637"/>
<polygon fill="#dac767" stroke="#dac767" points="3165,-636.11 3166.1,-646.65 3171.82,-637.73 3165,-636.11"/>
</g>
<!-- 5129 -->
<g id="node7" class="node">
<title>5129</title>
<text text-anchor="middle" x="3159.56" y="-90.74" font-family="Times,serif" font-size="14.00">$TEXT</text>
</g>
<!-- 5129&#45;&gt;5128 -->
<g id="edge13" class="edge">
<title>5129&#45;&gt;5128</title>
<path fill="none" stroke="#dac767" d="M3166.42,-113.66C3183.13,-158.25 3183.1,-171.75 3168.66,-259.67"/>
<polygon fill="#dac767" stroke="#dac767" points="3165.25,-258.84 3167.07,-269.27 3172.16,-259.98 3165.25,-258.84"/>
</g>
<!-- 5130 -->
<g id="node8" class="node">
<title>5130</title>
<text text-anchor="middle" x="3110.84" y="-617.4" font-family="Times,serif" font-size="14.00">https://sourceware.org/git/?p=newlib&#45;cygwin.git;a=blob;f=newlib/libc/stdlib/mprec.h;hb=HEAD</text>
</g>
<!-- 5130&#45;&gt;5124 -->
<g id="edge14" class="edge">
<title>5130&#45;&gt;5124</title>
<path fill="none" stroke="#dac767" d="M3140.49,-640.25C3140.66,-640.4 3140.82,-640.55 3140.98,-640.71"/>
<polygon fill="#dac767" stroke="#dac767" points="3137.21,-641.61 3146.22,-647.17 3142.65,-637.2 3137.21,-641.61"/>
</g>
<!-- 5131 -->
<g id="node9" class="node">
<title>5131</title>
<text text-anchor="middle" x="2822.58" y="-777.53" font-family="Times,serif" font-size="14.00">https://github.com/SWI&#45;Prolog/swipl&#45;devel/blob/master/src/os/dtoa.c</text>
</g>
<!-- 5131&#45;&gt;5124 -->
<g id="edge15" class="edge">
<title>5131&#45;&gt;5124</title>
<path fill="none" stroke="#dac767" d="M2863.86,-764.68C2942.88,-730.48 2988.94,-711.02 3024.39,-699.3"/>
<polygon fill="#dac767" stroke="#dac767" points="3025.16,-702.72 3033.63,-696.36 3023.04,-696.05 3025.16,-702.72"/>
</g>
<!-- 28140 -->
<g id="node15" class="node">
<title>28140</title>
<ellipse fill="none" stroke="#deb256" cx="3146.8" cy="-1193.61" rx="161.93" ry="28.99"/>
<text text-anchor="middle" x="3146.8" y="-1196.81" font-family="Times,serif" font-size="14.00" fill="gray">ScancodeData</text>
<text text-anchor="middle" x="3146.8" y="-1180.31" font-family="Times,serif" font-size="14.00" fill="gray">d821be5c520bdadb815436e1d1118d05</text>
</g>
<!-- 5131&#45;&gt;28140 -->
<g id="edge16" class="edge">
<title>5131&#45;&gt;28140</title>
<path fill="none" stroke="#deb256" d="M2850.1,-800.38C3068.4,-941.75 3083.67,-957.9 3136.1,-1153.36"/>
<polygon fill="#deb256" stroke="#deb256" points="3132.68,-1154.11 3138.64,-1162.87 3139.44,-1152.31 3132.68,-1154.11"/>
</g>
<!-- 5550 -->
<g id="node10" class="node">
<title>5550</title>
<text text-anchor="middle" x="2959.61" y="-886.64" font-family="Times,serif" font-size="14.00">LicenseType Permissive</text>
</g>
<!-- 5550&#45;&gt;28140 -->
<g id="edge17" class="edge">
<title>5550&#45;&gt;28140</title>
<path fill="none" stroke="#deb256" d="M2981.38,-909.53C3109.18,-1014.42 3121.72,-1030.21 3140.77,-1153.26"/>
<polygon fill="#deb256" stroke="#deb256" points="3137.25,-1153.44 3142.22,-1162.8 3144.17,-1152.39 3137.25,-1153.44"/>
</g>
<!-- 6592 -->
<g id="node11" class="node">
<title>6592</title>
<text text-anchor="middle" x="4174.96" y="-319.89" font-family="Times,serif" font-size="14.00">[&quot;allowed&quot;]</text>
</g>
<!-- 9397 -->
<g id="node13" class="node">
<title>9397</title>
<ellipse fill="none" stroke="#e09d4b" cx="3904.86" cy="-585.96" rx="161.93" ry="28.99"/>
<text text-anchor="middle" x="3904.86" y="-589.16" font-family="Times,serif" font-size="14.00" fill="gray">FedoraEntry</text>
<text text-anchor="middle" x="3904.86" y="-572.66" font-family="Times,serif" font-size="14.00" fill="gray">20ab1a4d4c1d80461d22d4594db92c24</text>
</g>
<!-- 6592&#45;&gt;9397 -->
<g id="edge18" class="edge">
<title>6592&#45;&gt;9397</title>
<path fill="none" stroke="#e09d4b" d="M4162.8,-342.93C4111.94,-417.84 4097.39,-432.31 3949.01,-550.76"/>
<polygon fill="#e09d4b" stroke="#e09d4b" points="3947.27,-547.67 3941.64,-556.65 3951.64,-553.14 3947.27,-547.67"/>
</g>
<!-- 6593 -->
<g id="node12" class="node">
<title>6593</title>
<text text-anchor="start" x="4397.51" y="-104.15" font-family="Times,serif" font-size="14.00">Fedora: </text>
<text text-anchor="start" x="4442.51" y="-104.15" font-family="Times,serif" font-weight="bold" font-size="14.00" fill="#228b22">allowed</text>
<text text-anchor="start" x="4233.63" y="-90.15" font-family="Times,serif" font-size="14.00">A license is allowed if Fedora determines that the license is a free software /</text>
<text text-anchor="start" x="4228.38" y="-76.15" font-family="Times,serif" font-size="14.00">open source license. At a high level, the inquiry involves determining whether</text>
<text text-anchor="start" x="4227.26" y="-62.15" font-family="Times,serif" font-size="14.00">the license provides software freedom, and (equivalently) making sure that the</text>
<text text-anchor="start" x="4237.38" y="-48.15" font-family="Times,serif" font-size="14.00">license does not place burdens on users&#39; exercise of its permissions that are</text>
<text text-anchor="start" x="4237.01" y="-34.15" font-family="Times,serif" font-size="14.00">inconsistent with evolving community norms and traditions around what is</text>
<text text-anchor="start" x="4228.76" y="-20.15" font-family="Times,serif" font-size="14.00">acceptable in a free software / open source license. See below for more on the</text>
<text text-anchor="start" x="4348.76" y="-6.15" font-family="Times,serif" font-size="14.00">history of Fedora licensing policy.</text>
</g>
<!-- 6593&#45;&gt;6592 -->
<g id="edge19" class="edge">
<title>6593&#45;&gt;6592</title>
<path fill="none" stroke="#e09d4b" d="M4399.26,-120.22C4364.48,-164.88 4329.16,-195.59 4205.08,-299.69"/>
<polygon fill="#e09d4b" stroke="#e09d4b" points="4202.95,-296.9 4197.54,-306.01 4207.45,-302.26 4202.95,-296.9"/>
</g>
<!-- 9397&#45;&gt;9398 -->
<g id="edge20" class="edge">
<title>9397&#45;&gt;9398</title>
<path fill="none" stroke="#e09d4b" d="M3890.41,-615.16C3841.77,-712.41 3823.98,-730.43 3646.96,-876.05"/>
<polygon fill="#e09d4b" stroke="#e09d4b" points="3644.8,-873.3 3639.3,-882.35 3649.25,-878.7 3644.8,-873.3"/>
</g>
<!-- 28140&#45;&gt;28141 -->
<g id="edge21" class="edge">
<title>28140&#45;&gt;28141</title>
<path fill="none" stroke="#deb256" d="M3172.12,-1222.26C3298.84,-1365.86 3309.54,-1384.34 3318.84,-1502.83"/>
<polygon fill="#deb256" stroke="#deb256" points="3315.35,-1503.01 3319.6,-1512.72 3322.33,-1502.48 3315.35,-1503.01"/>
</g>
<!-- 28141&#45;&gt;5125 -->
<g id="edge22" class="edge">
<title>28141&#45;&gt;5125</title>
<path fill="none" stroke="#00876c" stroke-width="2" d="M3327.93,-1513.91C3341.11,-1450.11 3367,-1267.38 3374.38,-1188.32"/>
<polygon fill="#00876c" stroke="#00876c" stroke-width="2" points="3375.12,-1179.86 3378.73,-1190.21 3375.39,-1182.46 3374.75,-1189.87 3374.25,-1189.82 3373.75,-1189.78 3374.4,-1182.37 3369.77,-1189.43 3375.12,-1179.86"/>
</g>
<!-- 28141&#45;&gt;55307 -->
<g id="edge23" class="edge">
<title>28141&#45;&gt;55307</title>
<path fill="none" stroke="#379469" stroke-dasharray="5,2" d="M3419.6,-1533.45C3548.52,-1529.23 3591.06,-1525.12 3644.46,-1507.54"/>
<polygon fill="#379469" stroke="#379469" points="3653.79,-1504.36 3645.77,-1511.84 3650.21,-1505.58 3644.32,-1507.58 3644.32,-1507.58 3644.32,-1507.58 3650.21,-1505.58 3642.87,-1503.32 3653.79,-1504.36"/>
</g>
<!-- 60424 -->
<g id="node38" class="node">
<title>60424</title>
<polygon fill="none" stroke="#b8bf62" points="3466.04,-1985.76 3466.04,-2000.67 3384.16,-2011.21 3268.36,-2011.21 3186.47,-2000.67 3186.47,-1985.76 3268.36,-1975.21 3384.16,-1975.21 3466.04,-1985.76"/>
<polygon fill="none" stroke="#b8bf62" points="3470.04,-1982.24 3470.04,-2004.19 3384.42,-2015.21 3268.1,-2015.21 3182.47,-2004.19 3182.47,-1982.24 3268.1,-1971.21 3384.42,-1971.21 3470.04,-1982.24"/>
<text text-anchor="middle" x="3326.26" y="-1988.16" font-family="Times,serif" font-size="14.00">foss&#45;license:X11&#45;Style (Lucent)</text>
</g>
<!-- 28141&#45;&gt;60424 -->
<g id="edge24" class="edge">
<title>28141&#45;&gt;60424</title>
<path fill="none" stroke="#b8bf62" stroke-width="2" d="M3327.95,-1558.65C3397.91,-1794.23 3400.68,-1813.96 3339.94,-1960.47"/>
<polygon fill="#b8bf62" stroke="#b8bf62" stroke-width="2" points="3336.59,-1968.52 3336.28,-1957.56 3337.11,-1965.96 3339.97,-1959.1 3340.43,-1959.29 3340.89,-1959.48 3338.04,-1966.35 3344.59,-1961.02 3336.59,-1968.52"/>
</g>
<!-- 28142 -->
<g id="node17" class="node">
<title>28142</title>
<polygon fill="none" stroke="black" points="3293.32,-1787.15 3293.32,-1802.07 3261.41,-1812.61 3216.28,-1812.61 3184.37,-1802.07 3184.37,-1787.15 3216.28,-1776.61 3261.41,-1776.61 3293.32,-1787.15"/>
<polygon fill="none" stroke="black" points="3297.32,-1784.26 3297.32,-1804.96 3262.06,-1816.61 3215.64,-1816.61 3180.37,-1804.96 3180.37,-1784.26 3215.64,-1772.61 3262.06,-1772.61 3297.32,-1784.26"/>
<text text-anchor="middle" x="3238.85" y="-1789.56" font-family="Times,serif" font-size="14.00">x11&#45;lucent</text>
</g>
<!-- 28142&#45;&gt;28141 -->
<g id="edge25" class="edge">
<title>28142&#45;&gt;28141</title>
<path fill="none" stroke="black" stroke-width="2" d="M3257.84,-1772.33C3322.58,-1695.84 3327.66,-1680.3 3322.88,-1569.83"/>
<polygon fill="black" stroke="black" stroke-width="2" points="3322.5,-1561.28 3327.44,-1571.07 3323.11,-1563.81 3323.44,-1571.24 3322.94,-1571.27 3322.45,-1571.29 3322.11,-1563.86 3318.45,-1571.47 3322.5,-1561.28"/>
</g>
<!-- 28142&#45;&gt;60424 -->
<g id="edge26" class="edge">
<title>28142&#45;&gt;60424</title>
<path fill="none" stroke="#b8bf62" stroke-width="2" d="M3252.86,-1817.01C3305.09,-1900.64 3315.35,-1919.36 3321.83,-1959.97"/>
<polygon fill="#b8bf62" stroke="#b8bf62" stroke-width="2" points="3323.07,-1968.41 3317.17,-1959.16 3322.2,-1965.94 3321.13,-1958.58 3321.62,-1958.51 3322.12,-1958.44 3323.19,-1965.8 3326.07,-1957.86 3323.07,-1968.41"/>
</g>
<!-- 28143 -->
<g id="node18" class="node">
<title>28143</title>
<polygon fill="none" stroke="black" points="3536.87,-1754.34 3536.87,-1769.25 3484.19,-1779.8 3409.69,-1779.8 3357.02,-1769.25 3357.02,-1754.34 3409.69,-1743.8 3484.19,-1743.8 3536.87,-1754.34"/>
<polygon fill="none" stroke="black" points="3540.87,-1751.06 3540.87,-1772.53 3484.59,-1783.8 3409.3,-1783.8 3353.02,-1772.53 3353.02,-1751.06 3409.3,-1739.8 3484.59,-1739.8 3540.87,-1751.06"/>
<text text-anchor="middle" x="3446.94" y="-1756.75" font-family="Times,serif" font-size="14.00">X11&#45;Style (Lucent)</text>
</g>
<!-- 28143&#45;&gt;28141 -->
<g id="edge27" class="edge">
<title>28143&#45;&gt;28141</title>
<path fill="none" stroke="#deb256" stroke-width="2" d="M3443.16,-1739.43C3431.88,-1674.99 3423.55,-1660.23 3347.03,-1567.45"/>
<polygon fill="#deb256" stroke="#deb256" stroke-width="2" points="3341.47,-1560.71 3351.3,-1565.55 3343.48,-1562.37 3348.22,-1568.1 3347.84,-1568.42 3347.45,-1568.74 3342.71,-1563 3344.37,-1571.28 3341.47,-1560.71"/>
</g>
<!-- 28143&#45;&gt;60424 -->
<g id="edge28" class="edge">
<title>28143&#45;&gt;60424</title>
<path fill="none" stroke="#b8bf62" stroke-width="2" d="M3444.34,-1784.22C3431.89,-1889.9 3426.19,-1907.52 3361.2,-1963.68"/>
<polygon fill="#b8bf62" stroke="#b8bf62" stroke-width="2" points="3354.82,-1969.14 3359.49,-1959.22 3356.44,-1967.1 3362.09,-1962.26 3362.42,-1962.64 3362.74,-1963.02 3357.09,-1967.86 3365.34,-1966.05 3354.82,-1969.14"/>
</g>
<!-- 70121 -->
<g id="node42" class="node">
<title>70121</title>
<polygon fill="none" stroke="#00876c" points="3540.22,-1448.28 3540.22,-1463.19 3464.5,-1473.73 3357.41,-1473.73 3281.69,-1463.19 3281.69,-1448.28 3357.41,-1437.73 3464.5,-1437.73 3540.22,-1448.28"/>
<polygon fill="none" stroke="#00876c" points="3544.22,-1444.8 3544.22,-1466.67 3464.77,-1477.73 3357.14,-1477.73 3277.69,-1466.67 3277.69,-1444.8 3357.14,-1433.73 3464.77,-1433.73 3544.22,-1444.8"/>
<text text-anchor="middle" x="3410.95" y="-1450.68" font-family="Times,serif" font-size="14.00">scancode:X11&#45;Style (Lucent)</text>
</g>
<!-- 28143&#45;&gt;70121 -->
<g id="edge29" class="edge">
<title>28143&#45;&gt;70121</title>
<path fill="none" stroke="#00876c" stroke-width="2" d="M3453.62,-1739.62C3484.15,-1637.34 3482.62,-1621.71 3424.97,-1488.08"/>
<polygon fill="#00876c" stroke="#00876c" stroke-width="2" points="3421.5,-1480.06 3429.6,-1487.45 3422.98,-1482.21 3425.93,-1489.04 3425.47,-1489.24 3425.01,-1489.43 3422.06,-1482.61 3421.34,-1491.02 3421.5,-1480.06"/>
</g>
<!-- 28144 -->
<g id="node19" class="node">
<title>28144</title>
<text text-anchor="middle" x="2843.34" y="-1024.31" font-family="Times,serif" font-size="14.00">$TEXT</text>
</g>
<!-- 28144&#45;&gt;28140 -->
<g id="edge30" class="edge">
<title>28144&#45;&gt;28140</title>
<path fill="none" stroke="#deb256" d="M2871.94,-1038.5C3032.85,-1089.99 3060.96,-1101.05 3113.44,-1156.75"/>
<polygon fill="#deb256" stroke="#deb256" points="3110.63,-1158.86 3120,-1163.81 3115.75,-1154.1 3110.63,-1158.86"/>
</g>
<!-- 35432 -->
<g id="node20" class="node">
<title>35432</title>
<text text-anchor="middle" x="2044.27" y="-1048.03" font-family="Times,serif" font-size="14.00">LicenseTag (ScopedLicenseTag &quot;OrtLicenseCategorization&quot; &quot;permissive&quot; NoLicenseTagText)</text>
</g>
<!-- 39558 -->
<g id="node22" class="node">
<title>39558</title>
<ellipse fill="none" stroke="#d43d51" cx="158.09" cy="-1369.14" rx="158.22" ry="28.99"/>
<text text-anchor="middle" x="158.09" y="-1372.34" font-family="Times,serif" font-size="14.00" fill="gray">OrtLicenseCategorization</text>
<text text-anchor="middle" x="158.09" y="-1355.84" font-family="Times,serif" font-size="14.00" fill="gray">362e1e155e40fa542622fb7385e47d9d</text>
</g>
<!-- 35432&#45;&gt;39558 -->
<g id="edge31" class="edge">
<title>35432&#45;&gt;39558</title>
<path fill="none" stroke="#d43d51" d="M1891.3,-1071.03C792.9,-1200.04 703.73,-1213.7 255.51,-1341.3"/>
<polygon fill="#d43d51" stroke="#d43d51" points="254.63,-1337.91 245.97,-1344.01 256.55,-1344.64 254.63,-1337.91"/>
</g>
<!-- 39951 -->
<g id="node25" class="node">
<title>39951</title>
<ellipse fill="none" stroke="#d43d51" cx="2819.94" cy="-1138.17" rx="156.62" ry="28.99"/>
<text text-anchor="middle" x="2819.94" y="-1141.37" font-family="Times,serif" font-size="14.00" fill="gray">OrtLicenseCategorization</text>
<text text-anchor="middle" x="2819.94" y="-1124.87" font-family="Times,serif" font-size="14.00" fill="gray">ff7e229b9801ecc403cb7b61bf516135</text>
</g>
<!-- 35432&#45;&gt;39951 -->
<g id="edge32" class="edge">
<title>35432&#45;&gt;39951</title>
<path fill="none" stroke="#d43d51" d="M2123.21,-1035.08C2466.97,-957.33 2507.06,-961.64 2761.07,-1104.79"/>
<polygon fill="#d43d51" stroke="#d43d51" points="2759.23,-1107.77 2769.65,-1109.64 2762.67,-1101.68 2759.23,-1107.77"/>
</g>
<!-- 35433 -->
<g id="node21" class="node">
<title>35433</title>
<text text-anchor="middle" x="2099.78" y="-1131.83" font-family="Times,serif" font-size="14.00">LicenseTag (ScopedLicenseTag &quot;OrtLicenseCategorization&quot; &quot;include&#45;in&#45;notice&#45;file&quot; NoLicenseTagText)</text>
</g>
<!-- 35433&#45;&gt;39558 -->
<g id="edge33" class="edge">
<title>35433&#45;&gt;39558</title>
<path fill="none" stroke="#d43d51" d="M1906.65,-1154.84C831.24,-1254.92 721.08,-1267.23 282.49,-1346.53"/>
<polygon fill="#d43d51" stroke="#d43d51" points="282.11,-1343.04 272.9,-1348.26 283.36,-1349.93 282.11,-1343.04"/>
</g>
<!-- 35433&#45;&gt;39951 -->
<g id="edge34" class="edge">
<title>35433&#45;&gt;39951</title>
<path fill="none" stroke="#d43d51" d="M2179.5,-1118.91C2515.62,-1043.46 2566.61,-1039.39 2742.65,-1107.42"/>
<polygon fill="#d43d51" stroke="#d43d51" points="2741.32,-1110.66 2751.91,-1111.03 2743.86,-1104.14 2741.32,-1110.66"/>
</g>
<!-- 39559 -->
<g id="node23" class="node">
<title>39559</title>
<polygon fill="none" stroke="black" points="348.2,-1421.4 348.2,-1436.31 247.82,-1446.85 105.86,-1446.85 5.48,-1436.31 5.48,-1421.4 105.86,-1410.85 247.82,-1410.85 348.2,-1421.4"/>
<polygon fill="none" stroke="black" points="352.2,-1417.8 352.2,-1439.91 248.03,-1450.85 105.65,-1450.85 1.48,-1439.91 1.48,-1417.8 105.65,-1406.85 248.03,-1406.85 352.2,-1417.8"/>
<text text-anchor="middle" x="176.84" y="-1423.8" font-family="Times,serif" font-size="14.00">SPDX:LicenseRef&#45;scancode&#45;x11&#45;lucent</text>
</g>
<!-- 39558&#45;&gt;39559 -->
<g id="edge35" class="edge">
<title>39558&#45;&gt;39559</title>
<path fill="none" stroke="#d43d51" d="M157.71,-1398.35C157.73,-1398.44 157.75,-1398.52 157.78,-1398.61"/>
<polygon fill="#d43d51" stroke="#d43d51" points="153.48,-1397.41 160.57,-1405.28 159.93,-1394.7 153.48,-1397.41"/>
</g>
<!-- 39560 -->
<g id="node24" class="node">
<title>39560</title>
<polygon fill="none" stroke="black" points="1837.77,-1481.07 1837.77,-1495.98 1753.94,-1506.53 1635.38,-1506.53 1551.55,-1495.98 1551.55,-1481.07 1635.38,-1470.53 1753.94,-1470.53 1837.77,-1481.07"/>
<polygon fill="none" stroke="black" points="1841.77,-1477.54 1841.77,-1499.51 1754.19,-1510.53 1635.13,-1510.53 1547.55,-1499.51 1547.55,-1477.54 1635.13,-1466.53 1754.19,-1466.53 1841.77,-1477.54"/>
<text text-anchor="middle" x="1694.66" y="-1483.48" font-family="Times,serif" font-size="14.00">LicenseRef&#45;scancode&#45;x11&#45;lucent</text>
</g>
<!-- 39560&#45;&gt;39559 -->
<g id="edge36" class="edge">
<title>39560&#45;&gt;39559</title>
<path fill="none" stroke="black" stroke-width="2" d="M1547.33,-1491.26C725.39,-1506.4 626.63,-1504.92 295.78,-1449.25"/>
<polygon fill="black" stroke="black" stroke-width="2" points="287.32,-1447.82 297.93,-1445.05 289.93,-1447.76 297.26,-1448.99 297.18,-1449.49 297.09,-1449.98 289.76,-1448.74 296.43,-1453.92 287.32,-1447.82"/>
</g>
<!-- 70120 -->
<g id="node41" class="node">
<title>70120</title>
<polygon fill="none" stroke="#00876c" points="3159.64,-1333.95 3159.64,-1348.86 3052.76,-1359.41 2901.62,-1359.41 2794.75,-1348.86 2794.75,-1333.95 2901.62,-1323.41 3052.76,-1323.41 3159.64,-1333.95"/>
<polygon fill="none" stroke="#00876c" points="3163.64,-1330.33 3163.64,-1352.49 3052.96,-1363.41 2901.42,-1363.41 2790.75,-1352.49 2790.75,-1330.33 2901.42,-1319.41 3052.96,-1319.41 3163.64,-1330.33"/>
<text text-anchor="middle" x="2977.19" y="-1336.36" font-family="Times,serif" font-size="14.00">scancode:LicenseRef&#45;scancode&#45;x11&#45;lucent</text>
</g>
<!-- 39560&#45;&gt;70120 -->
<g id="edge37" class="edge">
<title>39560&#45;&gt;70120</title>
<path fill="none" stroke="#00876c" stroke-width="2" d="M1764.21,-1509.73C2262.54,-1661.05 2303.66,-1653.41 2918.67,-1368.54"/>
<polygon fill="#00876c" stroke="#00876c" stroke-width="2" points="2926.47,-1364.92 2919.29,-1373.21 2924.35,-1366.46 2917.61,-1369.58 2917.4,-1369.13 2917.19,-1368.67 2923.93,-1365.55 2915.5,-1365.05 2926.47,-1364.92"/>
</g>
<!-- 39951&#45;&gt;5125 -->
<g id="edge38" class="edge">
<title>39951&#45;&gt;5125</title>
<path fill="none" stroke="#d43d51" d="M2976.43,-1136.2C3167.08,-1134.04 3218.12,-1135.19 3305.07,-1143.73"/>
<polygon fill="#d43d51" stroke="#d43d51" points="3304.64,-1147.21 3314.94,-1144.72 3305.33,-1140.24 3304.64,-1147.21"/>
</g>
<!-- 39999 -->
<g id="node26" class="node">
<title>39999</title>
<text text-anchor="middle" x="2377.04" y="-1283.73" font-family="Times,serif" font-size="14.00">LicenseTag (ScopedLicenseTag &quot;OrtLicenseCategorization&quot; &quot;permissive&quot; (LicenseTagDescription &quot;Open source license that is made available under \&quot;non&#45;copyleft\&quot; licenses. These generally require attribution of the included works and may include other obligations.&quot;))</text>
</g>
<!-- 40843 -->
<g id="node29" class="node">
<title>40843</title>
<ellipse fill="none" stroke="#e06f45" cx="2349.91" cy="-1343.81" rx="155.03" ry="28.99"/>
<text text-anchor="middle" x="2349.91" y="-1347.01" font-family="Times,serif" font-size="14.00" fill="gray">OrtLicenseCategorization</text>
<text text-anchor="middle" x="2349.91" y="-1330.51" font-family="Times,serif" font-size="14.00" fill="gray">3e95581a84a29f35cca9605cf9d3f2a0</text>
</g>
<!-- 39999&#45;&gt;40843 -->
<g id="edge39" class="edge">
<title>39999&#45;&gt;40843</title>
<path fill="none" stroke="#e06f45" d="M2369.86,-1306.59C2369.82,-1306.69 2369.78,-1306.79 2369.74,-1306.89"/>
<polygon fill="#e06f45" stroke="#e06f45" points="2367.6,-1302.9 2367.01,-1313.48 2374.07,-1305.58 2367.6,-1302.9"/>
</g>
<!-- 40001 -->
<g id="node27" class="node">
<title>40001</title>
<text text-anchor="middle" x="1186.74" y="-1435.43" font-family="Times,serif" font-size="14.00">LicenseTag (ScopedLicenseTag &quot;OrtLicenseCategorization&quot; &quot;property:include&#45;in&#45;notice&#45;file&quot; (LicenseTagDescription &quot;Whether the license includes a notice obligation or similar which can be fulfilled by adding the relevant copyright notices and the license text into the project/product notice file.&quot;))</text>
</g>
<!-- 40001&#45;&gt;40843 -->
<g id="edge40" class="edge">
<title>40001&#45;&gt;40843</title>
<path fill="none" stroke="#e06f45" d="M1763.01,-1422.51C1872.69,-1409.39 2014.37,-1390.15 2213.24,-1362.71"/>
<polygon fill="#e06f45" stroke="#e06f45" points="2213.65,-1366.18 2223.08,-1361.35 2212.7,-1359.25 2213.65,-1366.18"/>
</g>
<!-- 40002 -->
<g id="node28" class="node">
<title>40002</title>
<text text-anchor="middle" x="2788.06" y="-1393.78" font-family="Times,serif" font-size="14.00">LicenseTag (ScopedLicenseTag &quot;OrtLicenseCategorization&quot; &quot;include&#45;in&#45;notice&#45;file&quot; (LicenseTagDescription &quot;Same as above, as a temporary work&#45;around for the category name not being configurable in ORT reports, see https://github.com/oss&#45;review&#45;toolkit/ort/issues/8220.&quot;))</text>
</g>
<!-- 40002&#45;&gt;40843 -->
<g id="edge41" class="edge">
<title>40002&#45;&gt;40843</title>
<path fill="none" stroke="#e06f45" d="M2479.35,-1380.83C2468.92,-1377.94 2457.91,-1374.84 2446.26,-1371.53"/>
<polygon fill="#e06f45" stroke="#e06f45" points="2447.42,-1368.22 2436.84,-1368.85 2445.5,-1374.95 2447.42,-1368.22"/>
</g>
<!-- 40843&#45;&gt;39559 -->
<g id="edge42" class="edge">
<title>40843&#45;&gt;39559</title>
<path fill="none" stroke="#e06f45" d="M2204.28,-1354.05C981.06,-1440.02 831.87,-1448.79 363.96,-1434.84"/>
<polygon fill="#e06f45" stroke="#e06f45" points="364.11,-1431.34 354.01,-1434.54 363.9,-1438.34 364.11,-1431.34"/>
</g>
<!-- 41465 -->
<g id="node30" class="node">
<title>41465</title>
<ellipse fill="none" stroke="#379469" cx="4212.69" cy="-897.05" rx="159.28" ry="28.99"/>
<text text-anchor="middle" x="4212.69" y="-900.25" font-family="Times,serif" font-size="14.00" fill="gray">CavilLicenseChange</text>
<text text-anchor="middle" x="4212.69" y="-883.75" font-family="Times,serif" font-size="14.00" fill="gray">4835961471451a17e2ca95494e8fddbe</text>
</g>
<!-- 41465&#45;&gt;41466 -->
<g id="edge43" class="edge">
<title>41465&#45;&gt;41466</title>
<path fill="none" stroke="#379469" d="M4126.78,-921.8C4089.79,-931.57 4045.75,-941.68 3947.38,-963.74"/>
<polygon fill="#379469" stroke="#379469" points="3946.87,-960.27 3937.88,-965.87 3948.4,-967.1 3946.87,-960.27"/>
</g>
<!-- 43136 -->
<g id="node32" class="node">
<title>43136</title>
<text text-anchor="start" x="4458.42" y="-2072.03" font-family="Times,serif" font-size="14.00">CoDEStatus: </text>
<text text-anchor="start" x="4532.67" y="-2072.03" font-family="Times,serif" font-weight="bold" font-size="14.00" fill="#228b22">Approved</text>
<text text-anchor="start" x="4311.04" y="-2058.03" font-family="Times,serif" font-size="14.00">Eine Lizenz ist freigegeben, wenn sie nach fachlicher und juristischer Prüfung</text>
<text text-anchor="start" x="4293.04" y="-2044.03" font-family="Times,serif" font-size="14.00">seitens Open CoDE sowohl der Open Source Definition (gemäß Definition der Open</text>
<text text-anchor="start" x="4335.04" y="-2030.03" font-family="Times,serif" font-size="14.00">Source Initiative [extern]) entspricht und darüber hinaus keine für die</text>
<text text-anchor="start" x="4338.04" y="-2016.03" font-family="Times,serif" font-size="14.00">Öffentliche Verwaltung erkennbaren Schwierigkeiten birgt. Außer in</text>
<text text-anchor="start" x="4323.04" y="-2002.03" font-family="Times,serif" font-size="14.00">Ausnahmefällen ist nicht zu erwarten, dass einmal freigegebene Lizenzen</text>
<text text-anchor="start" x="4462.92" y="-1988.03" font-family="Times,serif" font-size="14.00">deklassifiziert werden.</text>
</g>
<!-- 55306 -->
<g id="node34" class="node">
<title>55306</title>
<ellipse fill="none" stroke="#379469" cx="4114.08" cy="-1761.35" rx="157.68" ry="28.99"/>
<text text-anchor="middle" x="4114.08" y="-1764.55" font-family="Times,serif" font-size="14.00" fill="gray">MetaeffektLicense</text>
<text text-anchor="middle" x="4114.08" y="-1748.05" font-family="Times,serif" font-size="14.00" fill="gray">63703b75f0a8bc5dbde1404998c26cef</text>
</g>
<!-- 43136&#45;&gt;55306 -->
<g id="edge44" class="edge">
<title>43136&#45;&gt;55306</title>
<path fill="none" stroke="#379469" d="M4466.57,-1982.36C4405.99,-1929.18 4360.53,-1901.66 4173.25,-1795.01"/>
<polygon fill="#379469" stroke="#379469" points="4175.08,-1792.03 4164.66,-1790.12 4171.62,-1798.11 4175.08,-1792.03"/>
</g>
<!-- 50154 -->
<g id="node33" class="node">
<title>50154</title>
<polygon fill="none" stroke="#379469" points="3948.21,-1719.12 3948.21,-1734.03 3915,-1744.58 3868.03,-1744.58 3834.83,-1734.03 3834.83,-1719.12 3868.03,-1708.58 3915,-1708.58 3948.21,-1719.12"/>
<text text-anchor="middle" x="3891.52" y="-1721.53" font-family="Times,serif" font-size="14.00">Permission</text>
</g>
<!-- 50154&#45;&gt;55307 -->
<g id="edge45" class="edge">
<title>50154&#45;&gt;55307</title>
<path fill="none" stroke="#379469" stroke-dasharray="5,2" d="M3886.28,-1708.32C3862.66,-1626.72 3853.65,-1613.36 3745.45,-1511.36"/>
<polygon fill="#379469" stroke="#379469" points="3738.37,-1504.7 3748.74,-1508.28 3741.12,-1507.29 3745.65,-1511.55 3745.65,-1511.55 3745.65,-1511.55 3741.12,-1507.29 3742.57,-1514.83 3738.37,-1504.7"/>
</g>
<!-- 55306&#45;&gt;55307 -->
<g id="edge46" class="edge">
<title>55306&#45;&gt;55307</title>
<path fill="none" stroke="#379469" d="M4087.34,-1732.35C4011.3,-1650.64 3984.85,-1633.27 3763.73,-1509.5"/>
<polygon fill="#379469" stroke="#379469" points="3765.49,-1506.48 3755.06,-1504.65 3762.08,-1512.59 3765.49,-1506.48"/>
</g>
<!-- 55308 -->
<g id="node36" class="node">
<title>55308</title>
<polygon fill="none" stroke="#379469" points="4190.58,-1536.02 4190.58,-1550.93 4125.24,-1561.47 4032.85,-1561.47 3967.51,-1550.93 3967.51,-1536.02 4032.85,-1525.47 4125.24,-1525.47 4190.58,-1536.02"/>
<polygon fill="none" stroke="#379469" points="4194.58,-1532.61 4194.58,-1554.33 4125.56,-1565.47 4032.53,-1565.47 3963.51,-1554.33 3963.51,-1532.61 4032.53,-1521.47 4125.56,-1521.47 4194.58,-1532.61"/>
<text text-anchor="middle" x="4079.05" y="-1538.42" font-family="Times,serif" font-size="14.00">Permission Terms (dtoa)</text>
</g>
<!-- 55308&#45;&gt;55307 -->
<g id="edge47" class="edge">
<title>55308&#45;&gt;55307</title>
<path fill="none" stroke="#379469" stroke-width="2" d="M3984.81,-1528.71C3948.95,-1522.85 3908.15,-1515.78 3827.4,-1501.58"/>
<polygon fill="#379469" stroke="#379469" stroke-width="2" points="3819.21,-1500.14 3829.84,-1497.44 3821.82,-1500.09 3829.15,-1501.38 3829.06,-1501.87 3828.98,-1502.37 3821.65,-1501.08 3828.28,-1506.3 3819.21,-1500.14"/>
</g>
<!-- 60423 -->
<g id="node37" class="node">
<title>60423</title>
<ellipse fill="none" stroke="#b8bf62" cx="3218.03" cy="-2409.73" rx="158.75" ry="28.99"/>
<text text-anchor="middle" x="3218.03" y="-2412.93" font-family="Times,serif" font-size="14.00" fill="gray">FossLicense</text>
<text text-anchor="middle" x="3218.03" y="-2396.43" font-family="Times,serif" font-size="14.00" fill="gray">756623f6889e61ba5a6dbfd6e0449275</text>
</g>
<!-- 60423&#45;&gt;60424 -->
<g id="edge48" class="edge">
<title>60423&#45;&gt;60424</title>
<path fill="none" stroke="#b8bf62" d="M3240.3,-2380.88C3325.78,-2269.29 3329.52,-2247.73 3326.7,-2026.88"/>
<polygon fill="#b8bf62" stroke="#b8bf62" points="3330.21,-2026.99 3326.58,-2017.03 3323.21,-2027.08 3330.21,-2026.99"/>
</g>
<!-- 60425 -->
<g id="node39" class="node">
<title>60425</title>
<polygon fill="none" stroke="#b8bf62" points="3445.28,-2299.03 3445.28,-2313.94 3409.47,-2324.48 3358.84,-2324.48 3323.03,-2313.94 3323.03,-2299.03 3358.84,-2288.48 3409.47,-2288.48 3445.28,-2299.03"/>
<polygon fill="none" stroke="#b8bf62" points="3449.28,-2296.04 3449.28,-2316.93 3410.05,-2328.48 3358.26,-2328.48 3319.03,-2316.93 3319.03,-2296.04 3358.26,-2284.48 3410.05,-2284.48 3449.28,-2296.04"/>
<text text-anchor="middle" x="3384.15" y="-2301.43" font-family="Times,serif" font-size="14.00">MIT&#45;Lucent</text>
</g>
<!-- 60425&#45;&gt;60424 -->
<g id="edge49" class="edge">
<title>60425&#45;&gt;60424</title>
<path fill="none" stroke="#b8bf62" stroke-width="2" d="M3387.53,-2284C3400.05,-2198.52 3396.46,-2181.52 3338.5,-2025.99"/>
<polygon fill="#b8bf62" stroke="#b8bf62" stroke-width="2" points="3335.45,-2017.82 3343.16,-2025.62 3336.82,-2020.05 3339.41,-2027.02 3338.95,-2027.19 3338.48,-2027.37 3335.88,-2020.4 3334.73,-2028.77 3335.45,-2017.82"/>
</g>
<!-- 70119 -->
<g id="node40" class="node">
<title>70119</title>
<ellipse fill="none" stroke="#00876c" cx="3398.5" cy="-846.18" rx="158.75" ry="28.99"/>
<text text-anchor="middle" x="3398.5" y="-849.38" font-family="Times,serif" font-size="14.00" fill="gray">LicenseLynx</text>
<text text-anchor="middle" x="3398.5" y="-832.88" font-family="Times,serif" font-size="14.00" fill="gray">57580ba49647ae970222a3e57cefbd99</text>
</g>
<!-- 70119&#45;&gt;5125 -->
<g id="edge50" class="edge">
<title>70119&#45;&gt;5125</title>
<path fill="none" stroke="#00876c" d="M3408.54,-875.38C3443.03,-976.88 3441.86,-995.25 3391.1,-1114.5"/>
<polygon fill="#00876c" stroke="#00876c" points="3388.01,-1112.84 3387.3,-1123.41 3394.45,-1115.59 3388.01,-1112.84"/>
</g>
<!-- 70120&#45;&gt;5125 -->
<g id="edge51" class="edge">
<title>70120&#45;&gt;5125</title>
<path fill="none" stroke="#00876c" stroke-width="2" d="M3046.91,-1319C3236.32,-1257.85 3268.23,-1243.78 3339.24,-1182.82"/>
<polygon fill="#00876c" stroke="#00876c" stroke-width="2" points="3345.79,-1177.16 3341.17,-1187.1 3344.18,-1179.21 3338.56,-1184.08 3338.23,-1183.7 3337.9,-1183.32 3343.53,-1178.46 3335.28,-1180.3 3345.79,-1177.16"/>
</g>
<!-- 70121&#45;&gt;5125 -->
<g id="edge52" class="edge">
<title>70121&#45;&gt;5125</title>
<path fill="none" stroke="#00876c" stroke-width="2" d="M3417.56,-1433.24C3450.86,-1319.08 3450.46,-1302.37 3393.51,-1187.39"/>
<polygon fill="#00876c" stroke="#00876c" stroke-width="2" points="3389.66,-1179.64 3398.14,-1186.59 3391.25,-1181.71 3394.56,-1188.37 3394.11,-1188.59 3393.66,-1188.81 3390.35,-1182.15 3390.08,-1190.59 3389.66,-1179.64"/>
</g>
<!-- 70122&#45;&gt;5125 -->
<g id="edge53" class="edge">
<title>70122&#45;&gt;5125</title>
<path fill="none" stroke="#00876c" stroke-width="2" d="M3586.76,-1229.23C3550.99,-1204.2 3527.92,-1195.09 3439.47,-1169.46"/>
<polygon fill="#00876c" stroke="#00876c" stroke-width="2" points="3431.28,-1167.09 3442.14,-1165.55 3433.89,-1167.33 3441.03,-1169.39 3440.89,-1169.87 3440.75,-1170.35 3433.61,-1168.29 3439.64,-1174.19 3431.28,-1167.09"/>
</g>
</g>
</svg>
