<?xml version="1.0" encoding="UTF-8" standalone="no"?>
<!DOCTYPE svg PUBLIC "-//W3C//DTD SVG 1.1//EN"
 "http://www.w3.org/Graphics/SVG/1.1/DTD/svg11.dtd">
<!-- Generated by graphviz version 10.0.1 (0)
 -->
<!-- Pages: 1 -->
<svg width="1874pt" height="1609pt"
 viewBox="0.00 0.00 1874.00 1609.00" xmlns="http://www.w3.org/2000/svg" xmlns:xlink="http://www.w3.org/1999/xlink">
<g id="graph0" class="graph" transform="scale(1 1) rotate(0) translate(4 1605)">
<polygon fill="white" stroke="none" points="-4,4 -4,-1605 1870,-1605 1870,4 -4,4"/>
<!-- 1536 -->
<g id="node1" class="node">
<title>1536</title>
<ellipse fill="none" stroke="#b8bf62" cx="261.8" cy="-698.16" rx="160.34" ry="28.99"/>
<text text-anchor="middle" x="261.8" y="-701.36" font-family="Times,serif" font-size="14.00" fill="gray">SPDXLicense</text>
<text text-anchor="middle" x="261.8" y="-684.86" font-family="Times,serif" font-size="14.00" fill="gray">605d8b5db66b691ca3f3333c74356d3e</text>
</g>
<!-- 1537 -->
<g id="node2" class="node">
<title>1537</title>
<polygon fill="none" stroke="black" points="734.19,-582.37 734.19,-597.28 694.82,-607.82 639.13,-607.82 599.76,-597.28 599.76,-582.37 639.13,-571.82 694.82,-571.82 734.19,-582.37"/>
<polygon fill="none" stroke="black" points="738.19,-579.3 738.19,-600.35 695.34,-611.82 638.61,-611.82 595.76,-600.35 595.76,-579.3 638.61,-567.82 695.34,-567.82 738.19,-579.3"/>
<polygon fill="none" stroke="black" points="742.19,-576.23 742.19,-603.42 695.87,-615.82 638.08,-615.82 591.76,-603.42 591.76,-576.23 638.08,-563.82 695.87,-563.82 742.19,-576.23"/>
<text text-anchor="middle" x="666.97" y="-584.77" font-family="Times,serif" font-size="14.00">spdx:EFL&#45;2.0</text>
</g>
<!-- 1536&#45;&gt;1537 -->
<g id="edge1" class="edge">
<title>1536&#45;&gt;1537</title>
<path fill="none" stroke="#b8bf62" d="M305.54,-669.83C378.67,-623.95 412.98,-615.46 580.18,-598.42"/>
<polygon fill="#b8bf62" stroke="#b8bf62" points="580.29,-601.93 589.88,-597.44 579.58,-594.96 580.29,-601.93"/>
</g>
<!-- 5005 -->
<g id="node6" class="node">
<title>5005</title>
<polygon fill="none" stroke="black" points="945.31,-420.36 945.31,-435.27 910.16,-445.81 860.44,-445.81 825.28,-435.27 825.28,-420.36 860.44,-409.81 910.16,-409.81 945.31,-420.36"/>
<polygon fill="none" stroke="black" points="949.31,-417.38 949.31,-438.24 910.74,-449.81 859.85,-449.81 821.28,-438.24 821.28,-417.38 859.85,-405.81 910.74,-405.81 949.31,-417.38"/>
<text text-anchor="middle" x="885.3" y="-422.76" font-family="Times,serif" font-size="14.00">osi:EFL&#45;2.0</text>
</g>
<!-- 1537&#45;&gt;5005 -->
<g id="edge2" class="edge">
<title>1537&#45;&gt;5005</title>
<path fill="none" stroke="#78ab63" stroke-width="2" d="M684.04,-563.51C737.06,-482.28 753.88,-463.86 820.37,-444.54"/>
<polygon fill="#78ab63" stroke="#78ab63" stroke-width="2" points="828.66,-442.21 820.25,-449.25 826.33,-443.39 819.17,-445.4 819.04,-444.92 818.9,-444.44 826.06,-442.43 817.82,-440.59 828.66,-442.21"/>
</g>
<!-- 6314 -->
<g id="node12" class="node">
<title>6314</title>
<polygon fill="none" stroke="#e09d4b" points="923.84,-670.12 923.84,-685.04 879.27,-695.58 816.25,-695.58 771.68,-685.04 771.68,-670.12 816.25,-659.58 879.27,-659.58 923.84,-670.12"/>
<polygon fill="none" stroke="#e09d4b" points="927.84,-666.96 927.84,-688.2 879.74,-699.58 815.78,-699.58 767.68,-688.2 767.68,-666.96 815.78,-655.58 879.74,-655.58 927.84,-666.96"/>
<text text-anchor="middle" x="847.76" y="-672.53" font-family="Times,serif" font-size="14.00">Fedora:EFL&#45;2.0</text>
</g>
<!-- 1537&#45;&gt;6314 -->
<g id="edge3" class="edge">
<title>1537&#45;&gt;6314</title>
<path fill="none" stroke="#e09d4b" stroke-width="2" d="M725.36,-608.27C743.39,-616.1 764.21,-627.82 802.38,-650.48"/>
<polygon fill="#e09d4b" stroke="#e09d4b" stroke-width="2" points="809.81,-654.9 798.91,-653.65 807.35,-654.02 800.96,-650.21 801.21,-649.78 801.47,-649.35 807.86,-653.16 803.51,-645.92 809.81,-654.9"/>
</g>
<!-- 9534 -->
<g id="node18" class="node">
<title>9534</title>
<polygon fill="none" stroke="#58a066" points="754.2,-949.28 754.2,-964.19 713.53,-974.73 656.01,-974.73 615.33,-964.19 615.33,-949.28 656.01,-938.73 713.53,-938.73 754.2,-949.28"/>
<polygon fill="none" stroke="#58a066" points="758.2,-946.18 758.2,-967.28 714.04,-978.73 655.5,-978.73 611.33,-967.28 611.33,-946.18 655.5,-934.73 714.04,-934.73 758.2,-946.18"/>
<text text-anchor="middle" x="684.77" y="-951.68" font-family="Times,serif" font-size="14.00">osadl:EFL&#45;2.0</text>
</g>
<!-- 1537&#45;&gt;9534 -->
<g id="edge4" class="edge">
<title>1537&#45;&gt;9534</title>
<path fill="none" stroke="#58a066" stroke-width="2" d="M657.36,-616.21C606.49,-756.55 606.85,-773.85 670.86,-924.21"/>
<polygon fill="#58a066" stroke="#58a066" stroke-width="2" points="674.21,-932.07 666.15,-924.64 672.74,-929.91 669.82,-923.07 670.28,-922.87 670.74,-922.68 673.66,-929.52 674.42,-921.11 674.21,-932.07"/>
</g>
<!-- 10178 -->
<g id="node21" class="node">
<title>10178</title>
<polygon fill="none" stroke="#deb256" points="520.88,-259.74 520.88,-274.65 492.86,-285.19 453.24,-285.19 425.22,-274.65 425.22,-259.74 453.24,-249.19 492.86,-249.19 520.88,-259.74"/>
<polygon fill="none" stroke="#deb256" points="524.88,-256.97 524.88,-277.42 493.59,-289.19 452.51,-289.19 421.22,-277.42 421.22,-256.97 452.51,-245.19 493.59,-245.19 524.88,-256.97"/>
<text text-anchor="middle" x="473.05" y="-262.14" font-family="Times,serif" font-size="14.00">fsf:Eiffel</text>
</g>
<!-- 1537&#45;&gt;10178 -->
<g id="edge5" class="edge">
<title>1537&#45;&gt;10178</title>
<path fill="none" stroke="#deb256" stroke-dasharray="5,2" d="M648.71,-563.54C532.82,-396.7 517.77,-373.65 486.65,-299.89"/>
<polygon fill="#deb256" stroke="#deb256" points="482.82,-290.76 490.83,-298.24 484.28,-294.24 486.68,-299.98 486.68,-299.98 486.68,-299.98 484.28,-294.24 482.53,-301.72 482.82,-290.76"/>
</g>
<!-- 41708 -->
<g id="node34" class="node">
<title>41708</title>
<polygon fill="none" stroke="#00876c" points="1293.21,-417.22 1293.21,-432.13 1199.64,-442.68 1067.32,-442.68 973.75,-432.13 973.75,-417.22 1067.32,-406.68 1199.64,-406.68 1293.21,-417.22"/>
<polygon fill="none" stroke="#00876c" points="1297.21,-413.65 1297.21,-435.71 1199.87,-446.68 1067.09,-446.68 969.75,-435.71 969.75,-413.65 1067.09,-402.68 1199.87,-402.68 1297.21,-413.65"/>
<text text-anchor="middle" x="1133.48" y="-419.63" font-family="Times,serif" font-size="14.00">metaeffekt:Eiffel Forum License 2.0</text>
</g>
<!-- 1537&#45;&gt;41708 -->
<g id="edge6" class="edge">
<title>1537&#45;&gt;41708</title>
<path fill="none" stroke="#00876c" stroke-width="2" d="M698.59,-564.12C825.22,-461.36 873.07,-426.97 958.32,-419.82"/>
<polygon fill="#00876c" stroke="#00876c" stroke-width="2" points="967.04,-419.21 957.37,-424.39 964.52,-419.89 957.1,-420.4 957.06,-419.9 957.03,-419.41 964.45,-418.89 956.75,-415.42 967.04,-419.21"/>
</g>
<!-- 1538 -->
<g id="node3" class="node">
<title>1538</title>
<polygon fill="none" stroke="black" points="1004.56,-781.36 1004.56,-796.27 977.85,-806.81 940.06,-806.81 913.34,-796.27 913.34,-781.36 940.06,-770.81 977.85,-770.81 1004.56,-781.36"/>
<polygon fill="none" stroke="black" points="1008.56,-778.64 1008.56,-798.99 978.61,-810.81 939.3,-810.81 909.34,-798.99 909.34,-778.64 939.3,-766.81 978.61,-766.81 1008.56,-778.64"/>
<text text-anchor="middle" x="958.95" y="-783.76" font-family="Times,serif" font-size="14.00">EFL&#45;2.0</text>
</g>
<!-- 1538&#45;&gt;1537 -->
<g id="edge7" class="edge">
<title>1538&#45;&gt;1537</title>
<path fill="none" stroke="black" stroke-width="2" d="M932.41,-769.02C800.25,-670.5 767.44,-646.54 718.27,-618.28"/>
<polygon fill="black" stroke="black" stroke-width="2" points="710.65,-613.95 721.56,-614.98 713.12,-614.78 719.59,-618.45 719.34,-618.89 719.09,-619.32 712.63,-615.65 717.11,-622.8 710.65,-613.95"/>
</g>
<!-- 1538&#45;&gt;5005 -->
<g id="edge8" class="edge">
<title>1538&#45;&gt;5005</title>
<path fill="none" stroke="black" stroke-width="2" d="M955.34,-766.43C922.3,-561.72 917.7,-535.36 895.25,-460.56"/>
<polygon fill="black" stroke="black" stroke-width="2" points="892.82,-452.5 900.01,-460.77 894.04,-454.81 896.18,-461.93 895.71,-462.07 895.23,-462.22 893.08,-455.1 891.4,-463.37 892.82,-452.5"/>
</g>
<!-- 5007 -->
<g id="node8" class="node">
<title>5007</title>
<polygon fill="none" stroke="#78ab63" points="1134.38,-583.8 1134.38,-598.71 1092.09,-609.26 1032.27,-609.26 989.98,-598.71 989.98,-583.8 1032.27,-573.26 1092.09,-573.26 1134.38,-583.8"/>
<polygon fill="none" stroke="#78ab63" points="1138.38,-580.68 1138.38,-601.84 1092.58,-613.26 1031.78,-613.26 985.98,-601.84 985.98,-580.68 1031.78,-569.26 1092.58,-569.26 1138.38,-580.68"/>
<text text-anchor="middle" x="1062.18" y="-586.21" font-family="Times,serif" font-size="14.00">DEP5:EFL&#45;2.0</text>
</g>
<!-- 1538&#45;&gt;5007 -->
<g id="edge9" class="edge">
<title>1538&#45;&gt;5007</title>
<path fill="none" stroke="#78ab63" stroke-width="2" d="M971.76,-766.39C1021.99,-678.37 1033.98,-656.79 1048.38,-623.88"/>
<polygon fill="#78ab63" stroke="#78ab63" stroke-width="2" points="1051.79,-615.96 1051.97,-626.92 1051.23,-618.51 1048.29,-625.34 1047.83,-625.14 1047.37,-624.95 1050.32,-618.12 1043.7,-623.36 1051.79,-615.96"/>
</g>
<!-- 1538&#45;&gt;6314 -->
<g id="edge10" class="edge">
<title>1538&#45;&gt;6314</title>
<path fill="none" stroke="#e09d4b" stroke-width="2" d="M940.8,-766.4C914.98,-734.59 901.37,-718.42 889.06,-706.98"/>
<polygon fill="#e09d4b" stroke="#e09d4b" stroke-width="2" points="882.46,-701.28 892.96,-704.41 884.72,-702.57 890.35,-707.44 890.02,-707.81 889.7,-708.19 884.07,-703.33 887.08,-711.22 882.46,-701.28"/>
</g>
<!-- 9095 -->
<g id="node16" class="node">
<title>9095</title>
<polygon fill="none" stroke="#00876c" points="1275.4,-1000.14 1275.4,-1015.06 1226.29,-1025.6 1156.84,-1025.6 1107.73,-1015.06 1107.73,-1000.14 1156.84,-989.6 1226.29,-989.6 1275.4,-1000.14"/>
<polygon fill="none" stroke="#00876c" points="1279.4,-996.91 1279.4,-1018.29 1226.72,-1029.6 1156.42,-1029.6 1103.73,-1018.29 1103.73,-996.91 1156.42,-985.6 1226.72,-985.6 1279.4,-996.91"/>
<text text-anchor="middle" x="1191.57" y="-1002.55" font-family="Times,serif" font-size="14.00">BlueOak:EFL&#45;2.0</text>
</g>
<!-- 1538&#45;&gt;9095 -->
<g id="edge11" class="edge">
<title>1538&#45;&gt;9095</title>
<path fill="none" stroke="#00876c" stroke-width="2" d="M982.97,-809.5C1103.54,-913.41 1126,-933.37 1164.86,-977.07"/>
<polygon fill="#00876c" stroke="#00876c" stroke-width="2" points="1170.44,-983.4 1160.45,-978.88 1168.37,-981.81 1163.45,-976.24 1163.82,-975.9 1164.2,-975.57 1169.12,-981.15 1167.2,-972.93 1170.44,-983.4"/>
</g>
<!-- 1538&#45;&gt;9534 -->
<g id="edge12" class="edge">
<title>1538&#45;&gt;9534</title>
<path fill="none" stroke="#58a066" stroke-width="2" d="M929.29,-807.3C804.66,-884.95 773.59,-904.21 729.82,-930.18"/>
<polygon fill="#58a066" stroke="#58a066" stroke-width="2" points="722.35,-934.6 728.66,-925.63 724.3,-932.86 730.7,-929.08 730.95,-929.51 731.21,-929.94 724.81,-933.72 733.25,-933.38 722.35,-934.6"/>
</g>
<!-- 15014 -->
<g id="node24" class="node">
<title>15014</title>
<polygon fill="none" stroke="black" points="1356.55,-736.27 1356.55,-751.18 1311.01,-761.72 1246.61,-761.72 1201.07,-751.18 1201.07,-736.27 1246.61,-725.72 1311.01,-725.72 1356.55,-736.27"/>
<polygon fill="none" stroke="black" points="1360.55,-733.09 1360.55,-754.36 1311.47,-765.72 1246.15,-765.72 1197.07,-754.36 1197.07,-733.09 1246.15,-721.72 1311.47,-721.72 1360.55,-733.09"/>
<text text-anchor="middle" x="1278.81" y="-738.67" font-family="Times,serif" font-size="14.00">scancode:efl&#45;2.0</text>
</g>
<!-- 1538&#45;&gt;15014 -->
<g id="edge13" class="edge">
<title>1538&#45;&gt;15014</title>
<path fill="none" stroke="black" stroke-width="2" d="M1009.06,-781.14C1104.53,-766.52 1149.78,-759.68 1185.8,-754.84"/>
<polygon fill="black" stroke="black" stroke-width="2" points="1194.32,-753.71 1185,-759.48 1191.84,-754.54 1184.47,-755.52 1184.41,-755.02 1184.34,-754.53 1191.71,-753.55 1183.82,-750.56 1194.32,-753.71"/>
</g>
<!-- 26676 -->
<g id="node26" class="node">
<title>26676</title>
<polygon fill="none" stroke="#e18745" points="1024.29,-1127.73 1024.29,-1142.64 973.24,-1153.19 901.03,-1153.19 849.98,-1142.64 849.98,-1127.73 901.03,-1117.19 973.24,-1117.19 1024.29,-1127.73"/>
<polygon fill="none" stroke="#e18745" points="1028.29,-1124.47 1028.29,-1145.9 973.65,-1157.19 900.62,-1157.19 845.98,-1145.9 845.98,-1124.47 900.62,-1113.19 973.65,-1113.19 1028.29,-1124.47"/>
<text text-anchor="middle" x="937.14" y="-1130.14" font-family="Times,serif" font-size="14.00">fossology:EFL&#45;2.0</text>
</g>
<!-- 1538&#45;&gt;26676 -->
<g id="edge14" class="edge">
<title>1538&#45;&gt;26676</title>
<path fill="none" stroke="#e18745" stroke-width="2" d="M958.54,-811.16C954.97,-1004.11 954.12,-1030.34 942.64,-1101.8"/>
<polygon fill="#e18745" stroke="#e18745" stroke-width="2" points="941.26,-1110.29 938.42,-1099.7 941.18,-1107.68 942.37,-1100.34 942.86,-1100.42 943.36,-1100.5 942.16,-1107.84 947.31,-1101.14 941.26,-1110.29"/>
</g>
<!-- 36759 -->
<g id="node32" class="node">
<title>36759</title>
<polygon fill="none" stroke="#379469" points="1158.47,-1074.73 1158.47,-1089.65 1118.77,-1100.19 1062.63,-1100.19 1022.93,-1089.65 1022.93,-1074.73 1062.63,-1064.19 1118.77,-1064.19 1158.47,-1074.73"/>
<polygon fill="none" stroke="#379469" points="1162.47,-1071.66 1162.47,-1092.72 1119.29,-1104.19 1062.11,-1104.19 1018.93,-1092.72 1018.93,-1071.66 1062.11,-1060.19 1119.29,-1060.19 1162.47,-1071.66"/>
<text text-anchor="middle" x="1090.7" y="-1077.14" font-family="Times,serif" font-size="14.00">cavil:EFL&#45;2.0</text>
</g>
<!-- 1538&#45;&gt;36759 -->
<g id="edge15" class="edge">
<title>1538&#45;&gt;36759</title>
<path fill="none" stroke="#379469" stroke-width="2" d="M970.32,-811.07C1048.54,-964.32 1060.14,-988.02 1080.15,-1049.26"/>
<polygon fill="#379469" stroke="#379469" stroke-width="2" points="1082.83,-1057.55 1075.47,-1049.42 1081.57,-1055.26 1079.28,-1048.19 1079.75,-1048.03 1080.23,-1047.88 1082.52,-1054.95 1084.03,-1046.65 1082.83,-1057.55"/>
</g>
<!-- 1538&#45;&gt;41708 -->
<g id="edge16" class="edge">
<title>1538&#45;&gt;41708</title>
<path fill="none" stroke="#00876c" stroke-dasharray="5,2" d="M970.23,-766.63C1074.22,-562.05 1086.69,-537.05 1120.03,-457.08"/>
<polygon fill="#00876c" stroke="#00876c" points="1123.74,-448.17 1124.05,-459.13 1122.29,-451.66 1119.9,-457.4 1119.9,-457.4 1119.9,-457.4 1122.29,-451.66 1115.74,-455.67 1123.74,-448.17"/>
</g>
<!-- 1539 -->
<g id="node4" class="node">
<title>1539</title>
<polygon fill="none" stroke="black" points="991.06,-889.31 991.06,-904.22 921.51,-914.77 823.14,-914.77 753.59,-904.22 753.59,-889.31 823.14,-878.77 921.51,-878.77 991.06,-889.31"/>
<polygon fill="none" stroke="black" points="995.06,-885.87 995.06,-907.66 921.81,-918.77 822.84,-918.77 749.59,-907.66 749.59,-885.87 822.84,-874.77 921.81,-874.77 995.06,-885.87"/>
<text text-anchor="middle" x="872.32" y="-891.72" font-family="Times,serif" font-size="14.00">Eiffel Forum License v2.0</text>
</g>
<!-- 1539&#45;&gt;1537 -->
<g id="edge17" class="edge">
<title>1539&#45;&gt;1537</title>
<path fill="none" stroke="#b8bf62" stroke-width="2" d="M850.58,-874.32C716.52,-735.83 700.62,-716.24 676.56,-626.75"/>
<polygon fill="#b8bf62" stroke="#b8bf62" stroke-width="2" points="674.35,-618.44 681.27,-626.96 675.49,-620.79 677.4,-627.98 676.92,-628.11 676.43,-628.24 674.53,-621.05 672.57,-629.26 674.35,-618.44"/>
</g>
<!-- 1539&#45;&gt;9095 -->
<g id="edge18" class="edge">
<title>1539&#45;&gt;9095</title>
<path fill="none" stroke="#00876c" stroke-width="2" d="M911.48,-919.06C1008.5,-974.15 1049.01,-995.39 1092.21,-1003.32"/>
<polygon fill="#00876c" stroke="#00876c" stroke-width="2" points="1100.88,-1004.68 1090.3,-1007.57 1098.27,-1004.77 1090.92,-1003.62 1091,-1003.13 1091.07,-1002.63 1098.42,-1003.79 1091.7,-998.68 1100.88,-1004.68"/>
</g>
<!-- 1539&#45;&gt;26676 -->
<g id="edge19" class="edge">
<title>1539&#45;&gt;26676</title>
<path fill="none" stroke="#e18745" stroke-width="2" d="M875.74,-918.89C894.2,-1038.11 898.74,-1062.18 919.87,-1103.3"/>
<polygon fill="#e18745" stroke="#e18745" stroke-width="2" points="923.82,-1110.82 915.18,-1104.07 922.19,-1108.78 918.72,-1102.2 919.17,-1101.97 919.61,-1101.74 923.07,-1108.32 923.15,-1099.87 923.82,-1110.82"/>
</g>
<!-- 5004 -->
<g id="node5" class="node">
<title>5004</title>
<ellipse fill="none" stroke="#78ab63" cx="966.66" cy="-29.2" rx="160.87" ry="28.99"/>
<text text-anchor="middle" x="966.66" y="-32.4" font-family="Times,serif" font-size="14.00" fill="gray">OSILicense</text>
<text text-anchor="middle" x="966.66" y="-15.9" font-family="Times,serif" font-size="14.00" fill="gray">c5d3ad448b951b39694654daaec13b83</text>
</g>
<!-- 5004&#45;&gt;5005 -->
<g id="edge20" class="edge">
<title>5004&#45;&gt;5005</title>
<path fill="none" stroke="#78ab63" d="M956.38,-58.43C926.1,-145.28 921.77,-170.14 890.02,-394.42"/>
<polygon fill="#78ab63" stroke="#78ab63" points="886.59,-393.71 888.65,-404.1 893.52,-394.69 886.59,-393.71"/>
</g>
<!-- 5005&#45;&gt;41708 -->
<g id="edge21" class="edge">
<title>5005&#45;&gt;41708</title>
<path fill="none" stroke="#00876c" stroke-dasharray="5,2" d="M930.06,-411.22C995.68,-387.54 1020.54,-383.61 1066.65,-398.66"/>
<polygon fill="#00876c" stroke="#00876c" points="1076.01,-401.88 1065.09,-402.88 1072.43,-400.65 1066.55,-398.63 1066.55,-398.63 1066.55,-398.63 1072.43,-400.65 1068.02,-394.37 1076.01,-401.88"/>
</g>
<!-- 5006 -->
<g id="node7" class="node">
<title>5006</title>
<polygon fill="none" stroke="black" points="907.62,-124.14 907.62,-139.06 824.76,-149.6 707.58,-149.6 624.72,-139.06 624.72,-124.14 707.58,-113.6 824.76,-113.6 907.62,-124.14"/>
<polygon fill="none" stroke="black" points="911.62,-120.62 911.62,-142.58 825.01,-153.6 707.33,-153.6 620.72,-142.58 620.72,-120.62 707.33,-109.6 825.01,-109.6 911.62,-120.62"/>
<text text-anchor="middle" x="766.17" y="-126.55" font-family="Times,serif" font-size="14.00">Eiffel Forum License, Version 2</text>
</g>
<!-- 5006&#45;&gt;5005 -->
<g id="edge22" class="edge">
<title>5006&#45;&gt;5005</title>
<path fill="none" stroke="#78ab63" stroke-width="2" d="M778.39,-154.08C811.4,-215.18 818.93,-234.96 874.09,-395.23"/>
<polygon fill="#78ab63" stroke="#78ab63" stroke-width="2" points="876.83,-403.18 869.32,-395.19 875.52,-400.92 873.1,-393.89 873.57,-393.73 874.05,-393.56 876.46,-400.6 877.83,-392.26 876.83,-403.18"/>
</g>
<!-- 5006&#45;&gt;10178 -->
<g id="edge23" class="edge">
<title>5006&#45;&gt;10178</title>
<path fill="none" stroke="#deb256" stroke-width="2" d="M633.04,-144.63C583.27,-155.74 556.66,-178.49 501.52,-236.8"/>
<polygon fill="#deb256" stroke="#deb256" stroke-width="2" points="495.59,-243.1 499.17,-232.73 496.98,-240.89 502.08,-235.48 502.45,-235.82 502.81,-236.16 497.71,-241.57 505.72,-238.9 495.59,-243.1"/>
</g>
<!-- 5006&#45;&gt;41708 -->
<g id="edge24" class="edge">
<title>5006&#45;&gt;41708</title>
<path fill="none" stroke="#00876c" stroke-dasharray="5,2" d="M837.75,-152.38C950.46,-187.47 976.8,-216.44 1110.02,-393.47"/>
<polygon fill="#00876c" stroke="#00876c" points="1115.92,-401.31 1106.31,-396.02 1113.65,-398.29 1109.91,-393.32 1109.91,-393.32 1109.91,-393.32 1113.65,-398.29 1113.51,-390.61 1115.92,-401.31"/>
</g>
<!-- 5007&#45;&gt;5005 -->
<g id="edge25" class="edge">
<title>5007&#45;&gt;5005</title>
<path fill="none" stroke="#78ab63" stroke-width="2" d="M1047.98,-568.8C997.52,-489.24 981.52,-467.7 940.02,-448.79"/>
<polygon fill="#78ab63" stroke="#78ab63" stroke-width="2" points="932.07,-445.36 943.03,-445.19 934.62,-445.92 941.45,-448.86 941.25,-449.32 941.05,-449.78 934.22,-446.83 939.47,-453.45 932.07,-445.36"/>
</g>
<!-- 5008 -->
<g id="node9" class="node">
<title>5008</title>
<polygon fill="none" stroke="#78ab63" points="1104.53,-341.73 1104.53,-356.64 966.18,-367.19 770.53,-367.19 632.18,-356.64 632.18,-341.73 770.53,-331.19 966.18,-331.19 1104.53,-341.73"/>
<polygon fill="none" stroke="#78ab63" points="1108.53,-338.02 1108.53,-360.35 966.33,-371.19 770.37,-371.19 628.18,-360.35 628.18,-338.02 770.37,-327.19 966.33,-327.19 1108.53,-338.02"/>
<text text-anchor="middle" x="868.35" y="-344.14" font-family="Times,serif" font-size="14.00">Trove:License :: OSI Approved :: Eiffel Forum License</text>
</g>
<!-- 5008&#45;&gt;5005 -->
<g id="edge26" class="edge">
<title>5008&#45;&gt;5005</title>
<path fill="none" stroke="#78ab63" stroke-width="2" d="M874.05,-371.37C875.38,-377.17 876.77,-383.92 878.86,-394.55"/>
<polygon fill="#78ab63" stroke="#78ab63" stroke-width="2" points="880.52,-403.09 874.19,-394.14 879.54,-400.67 878.12,-393.37 878.61,-393.28 879.1,-393.18 880.52,-400.48 883.03,-392.42 880.52,-403.09"/>
</g>
<!-- 5009 -->
<g id="node10" class="node">
<title>5009</title>
<polygon fill="none" stroke="#78ab63" points="1064.02,-289.21 1064.02,-304.12 941.24,-314.66 767.61,-314.66 644.84,-304.12 644.84,-289.21 767.61,-278.66 941.24,-278.66 1064.02,-289.21"/>
<polygon fill="none" stroke="#78ab63" points="1068.02,-285.54 1068.02,-307.79 941.41,-318.66 767.44,-318.66 640.84,-307.79 640.84,-285.54 767.44,-274.66 941.41,-274.66 1068.02,-285.54"/>
<text text-anchor="middle" x="854.43" y="-291.61" font-family="Times,serif" font-size="14.00">License :: OSI Approved :: Eiffel Forum License</text>
</g>
<!-- 5009&#45;&gt;5008 -->
<g id="edge27" class="edge">
<title>5009&#45;&gt;5008</title>
<path fill="none" stroke="#78ab63" stroke-width="2" d="M861.22,-318.89C861.25,-319.03 861.29,-319.17 861.32,-319.32"/>
<polygon fill="#78ab63" stroke="#78ab63" stroke-width="2" points="862.58,-324.52 855.86,-315.86 861.49,-322.14 859.74,-314.92 860.23,-314.8 860.72,-314.68 862.47,-321.91 864.6,-313.74 862.58,-324.52"/>
</g>
<!-- 6313 -->
<g id="node11" class="node">
<title>6313</title>
<ellipse fill="none" stroke="#e09d4b" cx="465.79" cy="-775.76" rx="152.38" ry="28.99"/>
<text text-anchor="middle" x="465.79" y="-778.96" font-family="Times,serif" font-size="14.00" fill="gray">FedoraEntry</text>
<text text-anchor="middle" x="465.79" y="-762.46" font-family="Times,serif" font-size="14.00" fill="gray">6aac1be86b5ff934efd54cf4e12b9f75</text>
</g>
<!-- 6313&#45;&gt;6314 -->
<g id="edge28" class="edge">
<title>6313&#45;&gt;6314</title>
<path fill="none" stroke="#e09d4b" d="M512.91,-747.76C575.71,-712.1 610.72,-703.88 756.16,-687.55"/>
<polygon fill="#e09d4b" stroke="#e09d4b" points="756.23,-691.07 765.78,-686.48 755.46,-684.11 756.23,-691.07"/>
</g>
<!-- 6315 -->
<g id="node13" class="node">
<title>6315</title>
<polygon fill="none" stroke="black" points="1239.86,-484.89 1239.86,-499.8 1173.22,-510.35 1078.99,-510.35 1012.36,-499.8 1012.36,-484.89 1078.99,-474.35 1173.22,-474.35 1239.86,-484.89"/>
<polygon fill="none" stroke="black" points="1243.86,-481.48 1243.86,-503.22 1173.54,-514.35 1078.67,-514.35 1008.36,-503.22 1008.36,-481.48 1078.67,-470.35 1173.54,-470.35 1243.86,-481.48"/>
<text text-anchor="middle" x="1126.11" y="-487.3" font-family="Times,serif" font-size="14.00">Eiffel Forum License 2.0</text>
</g>
<!-- 6315&#45;&gt;1538 -->
<g id="edge29" class="edge">
<title>6315&#45;&gt;1538</title>
<path fill="none" stroke="#379469" stroke-width="2" d="M1115.14,-514.69C1082.16,-581.71 1071.54,-600.21 977.99,-756.93"/>
<polygon fill="#379469" stroke="#379469" stroke-width="2" points="973.55,-764.37 974.81,-753.48 974.43,-761.91 978.24,-755.53 978.67,-755.78 979.1,-756.04 975.29,-762.43 982.54,-758.09 973.55,-764.37"/>
</g>
<!-- 6315&#45;&gt;6314 -->
<g id="edge30" class="edge">
<title>6315&#45;&gt;6314</title>
<path fill="none" stroke="#e09d4b" stroke-dasharray="5,2" d="M1053.06,-510.7C999.02,-528.05 970.15,-553.9 877.57,-647.4"/>
<polygon fill="#e09d4b" stroke="#e09d4b" points="870.77,-654.28 874.6,-644 873.43,-651.59 877.8,-647.17 877.8,-647.17 877.8,-647.17 873.43,-651.59 881,-650.33 870.77,-654.28"/>
</g>
<!-- 6315&#45;&gt;15014 -->
<g id="edge31" class="edge">
<title>6315&#45;&gt;15014</title>
<path fill="none" stroke="#dac767" stroke-width="2" d="M1156.29,-514.81C1243.55,-580.39 1252.6,-596.51 1272.98,-710.55"/>
<polygon fill="#dac767" stroke="#dac767" stroke-width="2" points="1274.5,-719.12 1268.33,-710.06 1273.56,-716.68 1272.26,-709.36 1272.76,-709.27 1273.25,-709.18 1274.55,-716.51 1277.19,-708.49 1274.5,-719.12"/>
</g>
<!-- 6315&#45;&gt;41708 -->
<g id="edge32" class="edge">
<title>6315&#45;&gt;41708</title>
<path fill="none" stroke="#00876c" stroke-width="2" d="M1131.18,-469.97C1132.21,-465.27 1133.02,-461.35 1133.63,-457.96"/>
<polygon fill="#00876c" stroke="#00876c" stroke-width="2" points="1134.8,-449.34 1137.92,-459.86 1134.95,-451.95 1133.95,-459.32 1133.46,-459.25 1132.96,-459.19 1133.96,-451.82 1129,-458.65 1134.8,-449.34"/>
</g>
<!-- 6316 -->
<g id="node14" class="node">
<title>6316</title>
<polygon fill="none" stroke="black" points="1161.81,-719 1161.81,-733.91 1135.74,-744.45 1098.87,-744.45 1072.81,-733.91 1072.81,-719 1098.87,-708.45 1135.74,-708.45 1161.81,-719"/>
<polygon fill="none" stroke="black" points="1165.81,-716.3 1165.81,-736.61 1136.52,-748.45 1098.1,-748.45 1068.81,-736.61 1068.81,-716.3 1098.1,-704.45 1136.52,-704.45 1165.81,-716.3"/>
<text text-anchor="middle" x="1117.31" y="-721.4" font-family="Times,serif" font-size="14.00">EFL 2.0</text>
</g>
<!-- 6316&#45;&gt;6314 -->
<g id="edge33" class="edge">
<title>6316&#45;&gt;6314</title>
<path fill="none" stroke="#e09d4b" stroke-dasharray="5,2" d="M1089.01,-707.71C1027.42,-667.45 1003.98,-658.11 937.48,-664.97"/>
<polygon fill="#e09d4b" stroke="#e09d4b" points="927.64,-666.07 937.08,-660.49 931.4,-665.65 937.58,-664.96 937.58,-664.96 937.58,-664.96 931.4,-665.65 938.08,-669.43 927.64,-666.07"/>
</g>
<!-- 6316&#45;&gt;15014 -->
<g id="edge34" class="edge">
<title>6316&#45;&gt;15014</title>
<path fill="none" stroke="#dac767" stroke-width="2" d="M1166.08,-726.91C1181.4,-727.12 1193.5,-727.4 1203.58,-727.9"/>
<polygon fill="#dac767" stroke="#dac767" stroke-width="2" points="1212.12,-728.44 1201.86,-732.3 1209.53,-728.78 1202.11,-728.31 1202.14,-727.81 1202.17,-727.31 1209.59,-727.78 1202.42,-723.32 1212.12,-728.44"/>
</g>
<!-- 6316&#45;&gt;41708 -->
<g id="edge35" class="edge">
<title>6316&#45;&gt;41708</title>
<path fill="none" stroke="#00876c" stroke-dasharray="5,2" d="M1122.71,-704.01C1159.54,-550.66 1163.1,-528.96 1143.1,-457.59"/>
<polygon fill="#00876c" stroke="#00876c" points="1140.45,-448.34 1147.53,-456.72 1141.49,-451.98 1143.2,-457.96 1143.2,-457.96 1143.2,-457.96 1141.49,-451.98 1138.87,-459.19 1140.45,-448.34"/>
</g>
<!-- 9094 -->
<g id="node15" class="node">
<title>9094</title>
<ellipse fill="none" stroke="#00876c" cx="1531.28" cy="-1276.48" rx="158.75" ry="28.99"/>
<text text-anchor="middle" x="1531.28" y="-1279.68" font-family="Times,serif" font-size="14.00" fill="gray">BlueOakCouncil</text>
<text text-anchor="middle" x="1531.28" y="-1263.18" font-family="Times,serif" font-size="14.00" fill="gray">36b329458b408fe7dcdca57d47c08c2a</text>
</g>
<!-- 9094&#45;&gt;9095 -->
<g id="edge36" class="edge">
<title>9094&#45;&gt;9095</title>
<path fill="none" stroke="#00876c" d="M1495.21,-1248.06C1429.43,-1196.22 1401.25,-1173.9 1228.54,-1036.92"/>
<polygon fill="#00876c" stroke="#00876c" points="1230.86,-1034.3 1220.85,-1030.83 1226.51,-1039.78 1230.86,-1034.3"/>
</g>
<!-- 9533 -->
<g id="node17" class="node">
<title>9533</title>
<ellipse fill="none" stroke="#58a066" cx="518.41" cy="-1325.76" rx="157.15" ry="28.99"/>
<text text-anchor="middle" x="518.41" y="-1328.96" font-family="Times,serif" font-size="14.00" fill="gray">OSADLRule</text>
<text text-anchor="middle" x="518.41" y="-1312.46" font-family="Times,serif" font-size="14.00" fill="gray">b4ff38acb05b7947a7f2d900e8889009</text>
</g>
<!-- 9533&#45;&gt;9534 -->
<g id="edge37" class="edge">
<title>9533&#45;&gt;9534</title>
<path fill="none" stroke="#58a066" d="M524.68,-1296.35C545.04,-1202.58 555.75,-1181.01 666.2,-988.99"/>
<polygon fill="#58a066" stroke="#58a066" points="669.17,-990.84 671.13,-980.43 663.11,-987.35 669.17,-990.84"/>
</g>
<!-- 9846 -->
<g id="node19" class="node">
<title>9846</title>
<ellipse fill="none" stroke="#58a066" cx="364.69" cy="-1216.79" rx="159.28" ry="28.99"/>
<text text-anchor="middle" x="364.69" y="-1219.99" font-family="Times,serif" font-size="14.00" fill="gray">OSADLMatrix</text>
<text text-anchor="middle" x="364.69" y="-1203.49" font-family="Times,serif" font-size="14.00" fill="gray">7c80cbd62396d5898c753a8df7e665e5</text>
</g>
<!-- 9846&#45;&gt;9534 -->
<g id="edge38" class="edge">
<title>9846&#45;&gt;9534</title>
<path fill="none" stroke="#58a066" d="M396.97,-1188C456.77,-1134.92 483.31,-1113.79 647.02,-986.16"/>
<polygon fill="#58a066" stroke="#58a066" points="649.01,-989.04 654.74,-980.14 644.7,-983.52 649.01,-989.04"/>
</g>
<!-- 10177 -->
<g id="node20" class="node">
<title>10177</title>
<ellipse fill="none" stroke="#deb256" cx="156.06" cy="-29.02" rx="155.56" ry="28.99"/>
<text text-anchor="middle" x="156.06" y="-32.22" font-family="Times,serif" font-size="14.00" fill="gray">FSF</text>
<text text-anchor="middle" x="156.06" y="-15.72" font-family="Times,serif" font-size="14.00" fill="gray">480a1b2da0f4b259b9df6aed49d5ff00</text>
</g>
<!-- 10177&#45;&gt;10178 -->
<g id="edge39" class="edge">
<title>10177&#45;&gt;10178</title>
<path fill="none" stroke="#deb256" d="M202.96,-57.06C262.36,-93.42 293.2,-118.14 439.9,-239.71"/>
<polygon fill="#deb256" stroke="#deb256" points="437.24,-242.06 447.18,-245.74 441.71,-236.67 437.24,-242.06"/>
</g>
<!-- 10179 -->
<g id="node22" class="node">
<title>10179</title>
<polygon fill="none" stroke="#deb256" points="392.94,-36.48 392.94,-51.39 372.71,-61.94 344.1,-61.94 323.87,-51.39 323.87,-36.48 344.1,-25.94 372.71,-25.94 392.94,-36.48"/>
<polygon fill="none" stroke="#deb256" points="396.94,-34.06 396.94,-53.82 373.69,-65.94 343.12,-65.94 319.87,-53.82 319.87,-34.06 343.12,-21.94 373.69,-21.94 396.94,-34.06"/>
<text text-anchor="middle" x="358.4" y="-38.89" font-family="Times,serif" font-size="14.00">Eiffel</text>
</g>
<!-- 10179&#45;&gt;10178 -->
<g id="edge40" class="edge">
<title>10179&#45;&gt;10178</title>
<path fill="none" stroke="#deb256" stroke-width="2" d="M366.38,-66.1C383.83,-113.89 392.78,-130.64 454.4,-235.48"/>
<polygon fill="#deb256" stroke="#deb256" stroke-width="2" points="458.69,-242.78 449.74,-236.44 456.96,-240.82 453.19,-234.41 453.62,-234.16 454.05,-233.9 457.82,-240.32 457.5,-231.88 458.69,-242.78"/>
</g>
<!-- 15013 -->
<g id="node23" class="node">
<title>15013</title>
<ellipse fill="none" stroke="#dac767" cx="1703.86" cy="-812.54" rx="162.46" ry="28.99"/>
<text text-anchor="middle" x="1703.86" y="-815.74" font-family="Times,serif" font-size="14.00" fill="gray">ScancodeData</text>
<text text-anchor="middle" x="1703.86" y="-799.24" font-family="Times,serif" font-size="14.00" fill="gray">453d33ed0d304863694861169114ae35</text>
</g>
<!-- 15013&#45;&gt;15014 -->
<g id="edge41" class="edge">
<title>15013&#45;&gt;15014</title>
<path fill="none" stroke="#dac767" d="M1616.4,-787.73C1563.34,-774.7 1512,-768.15 1372.02,-753.43"/>
<polygon fill="#dac767" stroke="#dac767" points="1372.71,-749.98 1362.4,-752.42 1371.98,-756.94 1372.71,-749.98"/>
</g>
<!-- 15014&#45;&gt;41708 -->
<g id="edge42" class="edge">
<title>15014&#45;&gt;41708</title>
<path fill="none" stroke="#00876c" stroke-dasharray="5,2" d="M1276.86,-721.39C1262.48,-558.16 1257.27,-538.77 1166.17,-454.54"/>
<polygon fill="#00876c" stroke="#00876c" points="1158.88,-447.83 1169.28,-451.29 1161.66,-450.39 1166.24,-454.6 1166.24,-454.6 1166.24,-454.6 1161.66,-450.39 1163.19,-457.91 1158.88,-447.83"/>
</g>
<!-- 26675 -->
<g id="node25" class="node">
<title>26675</title>
<ellipse fill="none" stroke="#e18745" cx="925.53" cy="-1571.75" rx="158.75" ry="28.99"/>
<text text-anchor="middle" x="925.53" y="-1574.95" font-family="Times,serif" font-size="14.00" fill="gray">Fossology</text>
<text text-anchor="middle" x="925.53" y="-1558.45" font-family="Times,serif" font-size="14.00" fill="gray">6c9b56552ca24d0bc395b3974ea3aaca</text>
</g>
<!-- 26675&#45;&gt;26676 -->
<g id="edge43" class="edge">
<title>26675&#45;&gt;26676</title>
<path fill="none" stroke="#e18745" d="M926.76,-1542.59C930.93,-1443.17 931.51,-1418.35 936.46,-1168.95"/>
<polygon fill="#e18745" stroke="#e18745" points="939.96,-1169.26 936.66,-1159.19 932.96,-1169.12 939.96,-1169.26"/>
</g>
<!-- 27231 -->
<g id="node27" class="node">
<title>27231</title>
<polygon fill="none" stroke="black" points="1360.88,-124.03 1360.88,-138.94 1343.57,-149.48 1319.1,-149.48 1301.79,-138.94 1301.79,-124.03 1319.1,-113.48 1343.57,-113.48 1360.88,-124.03"/>
<text text-anchor="middle" x="1331.33" y="-126.43" font-family="Times,serif" font-size="14.00">EFL</text>
</g>
<!-- 27231&#45;&gt;41708 -->
<g id="edge44" class="edge">
<title>27231&#45;&gt;41708</title>
<path fill="none" stroke="#00876c" stroke-dasharray="5,2" d="M1318.11,-149.17C1269.81,-213.88 1258.84,-230.3 1153.9,-393.01"/>
<polygon fill="#00876c" stroke="#00876c" points="1148.51,-401.37 1150.15,-390.53 1150.56,-398.19 1153.93,-392.96 1153.93,-392.96 1153.93,-392.96 1150.56,-398.19 1157.71,-395.4 1148.51,-401.37"/>
</g>
<!-- 28287 -->
<g id="node28" class="node">
<title>28287</title>
<ellipse fill="none" stroke="#379469" cx="563.15" cy="-891.96" rx="161.93" ry="28.99"/>
<text text-anchor="middle" x="563.15" y="-895.16" font-family="Times,serif" font-size="14.00" fill="gray">OKFN</text>
<text text-anchor="middle" x="563.15" y="-878.66" font-family="Times,serif" font-size="14.00" fill="gray">9a3d35ba59811981c55d7343c9335336</text>
</g>
<!-- 28287&#45;&gt;1538 -->
<g id="edge45" class="edge">
<title>28287&#45;&gt;1538</title>
<path fill="none" stroke="#379469" d="M651.91,-867.35C702.6,-853.62 755.62,-840.14 901.11,-803.41"/>
<polygon fill="#379469" stroke="#379469" points="901.9,-806.82 910.74,-800.98 900.19,-800.04 901.9,-806.82"/>
</g>
<!-- 28665 -->
<g id="node29" class="node">
<title>28665</title>
<ellipse fill="none" stroke="#e06f45" cx="256.46" cy="-545.65" rx="159.28" ry="28.99"/>
<text text-anchor="middle" x="256.46" y="-548.85" font-family="Times,serif" font-size="14.00" fill="gray">OrtLicenseCategorization</text>
<text text-anchor="middle" x="256.46" y="-532.35" font-family="Times,serif" font-size="14.00" fill="gray">a78ca145824a1e8baed78ec078515d90</text>
</g>
<!-- 28665&#45;&gt;1537 -->
<g id="edge46" class="edge">
<title>28665&#45;&gt;1537</title>
<path fill="none" stroke="#e06f45" d="M414.15,-541.23C452.99,-545.93 503.04,-555.64 584.11,-572.48"/>
<polygon fill="#e06f45" stroke="#e06f45" points="583.23,-575.87 593.73,-574.48 584.66,-569.02 583.23,-575.87"/>
</g>
<!-- 35441 -->
<g id="node30" class="node">
<title>35441</title>
<ellipse fill="none" stroke="#e09d4b" cx="306.82" cy="-405.22" rx="158.22" ry="28.99"/>
<text text-anchor="middle" x="306.82" y="-408.42" font-family="Times,serif" font-size="14.00" fill="gray">OrtLicenseCategorization</text>
<text text-anchor="middle" x="306.82" y="-391.92" font-family="Times,serif" font-size="14.00" fill="gray">597f718e312433db3510666ece453f9e</text>
</g>
<!-- 35441&#45;&gt;1537 -->
<g id="edge47" class="edge">
<title>35441&#45;&gt;1537</title>
<path fill="none" stroke="#e09d4b" d="M370.94,-432.19C426.89,-456.64 467.85,-478.84 615.99,-561.4"/>
<polygon fill="#e09d4b" stroke="#e09d4b" points="614.15,-564.38 624.59,-566.19 617.56,-558.26 614.15,-564.38"/>
</g>
<!-- 36758 -->
<g id="node31" class="node">
<title>36758</title>
<ellipse fill="none" stroke="#379469" cx="1268.31" cy="-1454.17" rx="156.09" ry="28.99"/>
<text text-anchor="middle" x="1268.31" y="-1457.37" font-family="Times,serif" font-size="14.00" fill="gray">CavilLicenseChange</text>
<text text-anchor="middle" x="1268.31" y="-1440.87" font-family="Times,serif" font-size="14.00" fill="gray">e8fdcf9785abb19702c70153fd194cab</text>
</g>
<!-- 36758&#45;&gt;36759 -->
<g id="edge48" class="edge">
<title>36758&#45;&gt;36759</title>
<path fill="none" stroke="#379469" d="M1255.32,-1425.05C1218.68,-1343 1207.12,-1319.11 1106.69,-1114.73"/>
<polygon fill="#379469" stroke="#379469" points="1109.91,-1113.34 1102.35,-1105.91 1103.62,-1116.42 1109.91,-1113.34"/>
</g>
<!-- 41707 -->
<g id="node33" class="node">
<title>41707</title>
<ellipse fill="none" stroke="#00876c" cx="1525.7" cy="-86.03" rx="155.03" ry="28.99"/>
<text text-anchor="middle" x="1525.7" y="-89.23" font-family="Times,serif" font-size="14.00" fill="gray">MetaeffektLicense</text>
<text text-anchor="middle" x="1525.7" y="-72.73" font-family="Times,serif" font-size="14.00" fill="gray">2e7aaf6837a9a568acd3611e214ff99d</text>
</g>
<!-- 41707&#45;&gt;41708 -->
<g id="edge49" class="edge">
<title>41707&#45;&gt;41708</title>
<path fill="none" stroke="#00876c" d="M1481.54,-114.14C1391.22,-172.42 1361.94,-199.8 1164.26,-394.37"/>
<polygon fill="#00876c" stroke="#00876c" points="1162,-391.69 1157.33,-401.2 1166.91,-396.68 1162,-391.69"/>
</g>
<!-- 41709 -->
<g id="node35" class="node">
<title>41709</title>
<polygon fill="none" stroke="#00876c" points="1615.33,-297.96 1615.33,-312.87 1568.17,-323.42 1501.47,-323.42 1454.31,-312.87 1454.31,-297.96 1501.47,-287.42 1568.17,-287.42 1615.33,-297.96"/>
<text text-anchor="middle" x="1534.82" y="-300.37" font-family="Times,serif" font-size="14.00">EFL, Version 2.0</text>
</g>
<!-- 41709&#45;&gt;41708 -->
<g id="edge50" class="edge">
<title>41709&#45;&gt;41708</title>
<path fill="none" stroke="#00876c" stroke-dasharray="5,2" d="M1453.9,-305.81C1385.48,-309.37 1341.95,-326.86 1191.23,-397.52"/>
<polygon fill="#00876c" stroke="#00876c" points="1182.25,-401.73 1189.39,-393.41 1185.67,-400.13 1191.3,-397.49 1191.3,-397.49 1191.3,-397.49 1185.67,-400.13 1193.21,-401.56 1182.25,-401.73"/>
</g>
</g>
</svg>
