<?xml version="1.0" encoding="UTF-8" standalone="no"?>
<!DOCTYPE svg PUBLIC "-//W3C//DTD SVG 1.1//EN"
 "http://www.w3.org/Graphics/SVG/1.1/DTD/svg11.dtd">
<!-- Generated by graphviz version 10.0.1 (0)
 -->
<!-- Pages: 1 -->
<svg width="1263pt" height="908pt"
 viewBox="0.00 0.00 1263.00 908.00" xmlns="http://www.w3.org/2000/svg" xmlns:xlink="http://www.w3.org/1999/xlink">
<g id="graph0" class="graph" transform="scale(1 1) rotate(0) translate(4 904)">
<polygon fill="white" stroke="none" points="-4,4 -4,-904 1259,-904 1259,4 -4,4"/>
<!-- 1609 -->
<g id="node1" class="node">
<title>1609</title>
<ellipse fill="none" stroke="#b8bf62" cx="191.54" cy="-727.01" rx="155.56" ry="28.99"/>
<text text-anchor="middle" x="191.54" y="-730.21" font-family="Times,serif" font-size="14.00" fill="gray">SPDXLicense</text>
<text text-anchor="middle" x="191.54" y="-713.71" font-family="Times,serif" font-size="14.00" fill="gray">4cb664e124f2679ab8fda0f20ade83c4</text>
</g>
<!-- 1610 -->
<g id="node2" class="node">
<title>1610</title>
<polygon fill="none" stroke="black" points="566.12,-565.64 566.12,-580.55 521.23,-591.1 457.74,-591.1 412.85,-580.55 412.85,-565.64 457.74,-555.1 521.23,-555.1 566.12,-565.64"/>
<polygon fill="none" stroke="black" points="570.12,-562.47 570.12,-583.72 521.69,-595.1 457.28,-595.1 408.85,-583.72 408.85,-562.47 457.28,-551.1 521.69,-551.1 570.12,-562.47"/>
<polygon fill="none" stroke="black" points="574.12,-559.3 574.12,-586.89 522.16,-599.1 456.82,-599.1 404.85,-586.89 404.85,-559.3 456.82,-547.1 522.16,-547.1 574.12,-559.3"/>
<text text-anchor="middle" x="489.49" y="-568.05" font-family="Times,serif" font-size="14.00">spdx:Elastic&#45;2.0</text>
</g>
<!-- 1609&#45;&gt;1610 -->
<g id="edge1" class="edge">
<title>1609&#45;&gt;1610</title>
<path fill="none" stroke="#b8bf62" d="M255.14,-700.18C295.55,-682.02 331.99,-662.03 437.14,-602.68"/>
<polygon fill="#b8bf62" stroke="#b8bf62" points="438.54,-605.9 445.53,-597.94 435.1,-599.81 438.54,-605.9"/>
</g>
<!-- 41670 -->
<g id="node11" class="node">
<title>41670</title>
<polygon fill="none" stroke="#00876c" points="971.9,-592.79 971.9,-607.7 893.26,-618.24 782.05,-618.24 703.41,-607.7 703.41,-592.79 782.05,-582.24 893.26,-582.24 971.9,-592.79"/>
<polygon fill="none" stroke="#00876c" points="975.9,-589.29 975.9,-611.2 893.53,-622.24 781.78,-622.24 699.41,-611.2 699.41,-589.29 781.78,-578.24 893.53,-578.24 975.9,-589.29"/>
<text text-anchor="middle" x="837.66" y="-595.19" font-family="Times,serif" font-size="14.00">metaeffekt:Elastic License 2.0</text>
</g>
<!-- 1610&#45;&gt;41670 -->
<g id="edge2" class="edge">
<title>1610&#45;&gt;41670</title>
<path fill="none" stroke="#00876c" stroke-width="2" d="M541.47,-594.95C653.42,-641.41 685.56,-648.08 763.82,-624.76"/>
<polygon fill="#00876c" stroke="#00876c" stroke-width="2" points="771.8,-622.32 763.55,-629.55 769.49,-623.55 762.38,-625.72 762.24,-625.25 762.09,-624.77 769.2,-622.59 760.92,-620.94 771.8,-622.32"/>
</g>
<!-- 1611 -->
<g id="node3" class="node">
<title>1611</title>
<polygon fill="none" stroke="black" points="538.79,-310.35 538.79,-325.26 506.56,-335.8 460.97,-335.8 428.74,-325.26 428.74,-310.35 460.97,-299.8 506.56,-299.8 538.79,-310.35"/>
<polygon fill="none" stroke="black" points="542.79,-307.45 542.79,-328.16 507.2,-339.8 460.34,-339.8 424.74,-328.16 424.74,-307.45 460.34,-295.8 507.2,-295.8 542.79,-307.45"/>
<text text-anchor="middle" x="483.77" y="-312.75" font-family="Times,serif" font-size="14.00">Elastic&#45;2.0</text>
</g>
<!-- 1611&#45;&gt;1610 -->
<g id="edge3" class="edge">
<title>1611&#45;&gt;1610</title>
<path fill="none" stroke="black" stroke-width="2" d="M475.3,-340.01C440.19,-432.69 438.78,-448.99 474.35,-536.52"/>
<polygon fill="black" stroke="black" stroke-width="2" points="477.58,-544.41 469.63,-536.86 476.15,-542.23 473.33,-535.35 473.79,-535.16 474.26,-534.97 477.07,-541.85 477.96,-533.45 477.58,-544.41"/>
</g>
<!-- 36763 -->
<g id="node9" class="node">
<title>36763</title>
<polygon fill="none" stroke="#379469" points="624.79,-80.26 624.79,-95.18 579.58,-105.72 515.63,-105.72 470.42,-95.18 470.42,-80.26 515.63,-69.72 579.58,-69.72 624.79,-80.26"/>
<polygon fill="none" stroke="#379469" points="628.79,-77.09 628.79,-98.35 580.04,-109.72 515.17,-109.72 466.42,-98.35 466.42,-77.09 515.17,-65.72 580.04,-65.72 628.79,-77.09"/>
<text text-anchor="middle" x="547.61" y="-82.67" font-family="Times,serif" font-size="14.00">cavil:Elastic&#45;2.0</text>
</g>
<!-- 1611&#45;&gt;36763 -->
<g id="edge4" class="edge">
<title>1611&#45;&gt;36763</title>
<path fill="none" stroke="#379469" stroke-width="2" d="M485.48,-295.69C494.24,-183.36 497.41,-161.15 525.55,-118.98"/>
<polygon fill="#379469" stroke="#379469" stroke-width="2" points="530.36,-111.95 528.43,-122.75 529.32,-114.35 525.12,-120.49 524.71,-120.21 524.3,-119.92 528.5,-113.79 521,-117.67 530.36,-111.95"/>
</g>
<!-- 1612 -->
<g id="node4" class="node">
<title>1612</title>
<polygon fill="none" stroke="black" points="684.3,-785.67 684.3,-800.58 632.6,-811.12 559.48,-811.12 507.77,-800.58 507.77,-785.67 559.48,-775.12 632.6,-775.12 684.3,-785.67"/>
<polygon fill="none" stroke="black" points="688.3,-782.4 688.3,-803.85 633,-815.12 559.07,-815.12 503.77,-803.85 503.77,-782.4 559.07,-771.12 633,-771.12 688.3,-782.4"/>
<text text-anchor="middle" x="596.04" y="-788.07" font-family="Times,serif" font-size="14.00">Elastic License 2.0</text>
</g>
<!-- 1612&#45;&gt;1610 -->
<g id="edge5" class="edge">
<title>1612&#45;&gt;1610</title>
<path fill="none" stroke="#b8bf62" stroke-width="2" d="M571.92,-770.77C530.05,-730.8 522.51,-712.44 498.21,-610.13"/>
<polygon fill="#b8bf62" stroke="#b8bf62" stroke-width="2" points="496.2,-601.66 502.88,-610.36 497.28,-604.04 498.99,-611.28 498.5,-611.39 498.02,-611.51 496.3,-604.27 494.12,-612.43 496.2,-601.66"/>
</g>
<!-- 1612&#45;&gt;41670 -->
<g id="edge6" class="edge">
<title>1612&#45;&gt;41670</title>
<path fill="none" stroke="#00876c" stroke-width="2" d="M657.84,-775.79C733.46,-752.53 751.98,-732.2 817.12,-631.98"/>
<polygon fill="#00876c" stroke="#00876c" stroke-width="2" points="821.83,-624.73 820.16,-635.57 820.85,-627.16 816.8,-633.4 816.39,-633.12 815.97,-632.85 820.01,-626.61 812.61,-630.67 821.83,-624.73"/>
</g>
<!-- 15082 -->
<g id="node5" class="node">
<title>15082</title>
<polygon fill="none" stroke="black" points="893.88,-544.77 893.88,-559.68 823.03,-570.22 722.83,-570.22 651.97,-559.68 651.97,-544.77 722.83,-534.22 823.03,-534.22 893.88,-544.77"/>
<text text-anchor="middle" x="772.93" y="-547.17" font-family="Times,serif" font-size="14.00">scancode:elastic&#45;license&#45;v2</text>
</g>
<!-- 15082&#45;&gt;41670 -->
<g id="edge7" class="edge">
<title>15082&#45;&gt;41670</title>
<path fill="none" stroke="#00876c" stroke-dasharray="5,2" d="M797.93,-570.55C798.29,-570.82 798.65,-571.08 799,-571.34"/>
<polygon fill="#00876c" stroke="#00876c" points="806.97,-577.19 796.25,-574.9 803.92,-574.95 798.91,-571.27 798.91,-571.27 798.91,-571.27 803.92,-574.95 801.58,-567.64 806.97,-577.19"/>
</g>
<!-- 28673 -->
<g id="node6" class="node">
<title>28673</title>
<ellipse fill="none" stroke="#e06f45" cx="481.51" cy="-636.34" rx="155.56" ry="28.99"/>
<text text-anchor="middle" x="481.51" y="-639.54" font-family="Times,serif" font-size="14.00" fill="gray">OrtLicenseCategorization</text>
<text text-anchor="middle" x="481.51" y="-623.04" font-family="Times,serif" font-size="14.00" fill="gray">7c9a134f366ba04aee81ac9bfc0b42a8</text>
</g>
<!-- 28673&#45;&gt;1610 -->
<g id="edge8" class="edge">
<title>28673&#45;&gt;1610</title>
<path fill="none" stroke="#e06f45" d="M479.83,-607.02C479.85,-606.87 479.88,-606.73 479.91,-606.58"/>
<polygon fill="#e06f45" stroke="#e06f45" points="482.38,-611.26 481.34,-600.71 475.58,-609.61 482.38,-611.26"/>
</g>
<!-- 35446 -->
<g id="node7" class="node">
<title>35446</title>
<ellipse fill="none" stroke="#e09d4b" cx="159.58" cy="-495.98" rx="159.81" ry="28.99"/>
<text text-anchor="middle" x="159.58" y="-499.18" font-family="Times,serif" font-size="14.00" fill="gray">OrtLicenseCategorization</text>
<text text-anchor="middle" x="159.58" y="-482.68" font-family="Times,serif" font-size="14.00" fill="gray">464c52652526271cab885f717523a64a</text>
</g>
<!-- 35446&#45;&gt;1610 -->
<g id="edge9" class="edge">
<title>35446&#45;&gt;1610</title>
<path fill="none" stroke="#e09d4b" d="M209.9,-523.76C256.42,-547.45 289.17,-554.36 393.3,-564.38"/>
<polygon fill="#e09d4b" stroke="#e09d4b" points="392.84,-567.86 403.12,-565.32 393.5,-560.89 392.84,-567.86"/>
</g>
<!-- 36762 -->
<g id="node8" class="node">
<title>36762</title>
<ellipse fill="none" stroke="#379469" cx="566.66" cy="-28.72" rx="159.81" ry="28.99"/>
<text text-anchor="middle" x="566.66" y="-31.92" font-family="Times,serif" font-size="14.00" fill="gray">CavilLicenseChange</text>
<text text-anchor="middle" x="566.66" y="-15.42" font-family="Times,serif" font-size="14.00" fill="gray">45e6033a091a921d4a3d02bc440ecc23</text>
</g>
<!-- 36762&#45;&gt;36763 -->
<g id="edge10" class="edge">
<title>36762&#45;&gt;36763</title>
<path fill="none" stroke="#379469" d="M553.13,-58.06C553.1,-58.2 553.07,-58.34 553.04,-58.48"/>
<polygon fill="#379469" stroke="#379469" points="550.46,-53.61 551.89,-64.11 557.32,-55 550.46,-53.61"/>
</g>
<!-- 41669 -->
<g id="node10" class="node">
<title>41669</title>
<ellipse fill="none" stroke="#00876c" cx="1078.9" cy="-498.18" rx="157.15" ry="28.99"/>
<text text-anchor="middle" x="1078.9" y="-501.38" font-family="Times,serif" font-size="14.00" fill="gray">MetaeffektLicense</text>
<text text-anchor="middle" x="1078.9" y="-484.88" font-family="Times,serif" font-size="14.00" fill="gray">49eacf860d2777bf64e5637b24b0554f</text>
</g>
<!-- 41669&#45;&gt;41670 -->
<g id="edge11" class="edge">
<title>41669&#45;&gt;41670</title>
<path fill="none" stroke="#00876c" d="M1047.59,-526.92C1016.15,-554.25 994.77,-564.73 934.05,-579.24"/>
<polygon fill="#00876c" stroke="#00876c" points="933.52,-575.77 924.59,-581.46 935.12,-582.58 933.52,-575.77"/>
</g>
<!-- 41671 -->
<g id="node12" class="node">
<title>41671</title>
<polygon fill="none" stroke="#00876c" points="969.35,-640.79 969.35,-655.7 946.52,-666.25 914.25,-666.25 891.42,-655.7 891.42,-640.79 914.25,-630.25 946.52,-630.25 969.35,-640.79"/>
<text text-anchor="middle" x="930.38" y="-643.2" font-family="Times,serif" font-size="14.00">Elastic</text>
</g>
<!-- 41671&#45;&gt;41670 -->
<g id="edge12" class="edge">
<title>41671&#45;&gt;41670</title>
<path fill="none" stroke="#00876c" stroke-dasharray="5,2" d="M902.14,-635.67C897.86,-633.54 893.16,-631.08 887.28,-627.89"/>
<polygon fill="#00876c" stroke="#00876c" points="878.77,-623.23 889.7,-624.09 882.09,-625.05 887.54,-628.04 887.54,-628.04 887.54,-628.04 882.09,-625.05 885.38,-631.98 878.77,-623.23"/>
</g>
<!-- 41672 -->
<g id="node13" class="node">
<title>41672</title>
<polygon fill="none" stroke="#00876c" points="916.87,-874.99 916.87,-889.9 884.96,-900.44 839.83,-900.44 807.92,-889.9 807.92,-874.99 839.83,-864.44 884.96,-864.44 916.87,-874.99"/>
<text text-anchor="middle" x="862.39" y="-877.39" font-family="Times,serif" font-size="14.00">Elastic 2.0</text>
</g>
<!-- 41672&#45;&gt;41670 -->
<g id="edge13" class="edge">
<title>41672&#45;&gt;41670</title>
<path fill="none" stroke="#00876c" stroke-dasharray="5,2" d="M866.59,-863.99C883.01,-790.78 881.52,-775.54 845.91,-633.13"/>
<polygon fill="#00876c" stroke="#00876c" points="843.58,-623.83 850.37,-632.44 844.5,-627.5 846.01,-633.53 846.01,-633.53 846.01,-633.53 844.5,-627.5 841.64,-634.63 843.58,-623.83"/>
</g>
<!-- 41673 -->
<g id="node14" class="node">
<title>41673</title>
<polygon fill="none" stroke="#00876c" points="1092.71,-808.76 1092.71,-823.68 1057.88,-834.22 1008.62,-834.22 973.79,-823.68 973.79,-808.76 1008.62,-798.22 1057.88,-798.22 1092.71,-808.76"/>
<text text-anchor="middle" x="1033.25" y="-811.17" font-family="Times,serif" font-size="14.00">Elastic v2.0</text>
</g>
<!-- 41673&#45;&gt;41670 -->
<g id="edge14" class="edge">
<title>41673&#45;&gt;41670</title>
<path fill="none" stroke="#00876c" stroke-dasharray="5,2" d="M1019.55,-798.06C982.22,-748.83 968.95,-734.36 867.31,-630.52"/>
<polygon fill="#00876c" stroke="#00876c" points="860.36,-623.43 870.58,-627.43 863.01,-626.13 867.36,-630.57 867.36,-630.57 867.36,-630.57 863.01,-626.13 864.14,-633.72 860.36,-623.43"/>
</g>
<!-- 41674 -->
<g id="node15" class="node">
<title>41674</title>
<polygon fill="none" stroke="#00876c" points="1255.07,-656.37 1255.07,-671.29 1200.44,-681.83 1123.19,-681.83 1068.56,-671.29 1068.56,-656.37 1123.19,-645.83 1200.44,-645.83 1255.07,-656.37"/>
<text text-anchor="middle" x="1161.82" y="-658.78" font-family="Times,serif" font-size="14.00">Elastic License v2.0</text>
</g>
<!-- 41674&#45;&gt;41670 -->
<g id="edge15" class="edge">
<title>41674&#45;&gt;41670</title>
<path fill="none" stroke="#00876c" stroke-dasharray="5,2" d="M1068.29,-657.94C1035.22,-653.13 996.85,-643.63 921.94,-623.31"/>
<polygon fill="#00876c" stroke="#00876c" points="912.3,-620.69 923.13,-618.97 915.95,-621.68 921.95,-623.31 921.95,-623.31 921.95,-623.31 915.95,-621.68 920.77,-627.66 912.3,-620.69"/>
</g>
<!-- 41675 -->
<g id="node16" class="node">
<title>41675</title>
<polygon fill="none" stroke="#00876c" points="1179.95,-314.42 1179.95,-329.33 1109.1,-339.87 1008.9,-339.87 938.05,-329.33 938.05,-314.42 1008.9,-303.87 1109.1,-303.87 1179.95,-314.42"/>
<text text-anchor="middle" x="1059" y="-316.82" font-family="Times,serif" font-size="14.00">Elastic License Version 2.0</text>
</g>
<!-- 41675&#45;&gt;41670 -->
<g id="edge16" class="edge">
<title>41675&#45;&gt;41670</title>
<path fill="none" stroke="#00876c" stroke-dasharray="5,2" d="M1053.88,-340.13C1021.83,-453.91 1012.67,-467.96 876.15,-571.23"/>
<polygon fill="#00876c" stroke="#00876c" points="868.38,-577.1 873.65,-567.49 871.4,-574.82 876.36,-571.08 876.36,-571.08 876.36,-571.08 871.4,-574.82 879.07,-574.67 868.38,-577.1"/>
</g>
</g>
</svg>
