<?xml version="1.0" encoding="UTF-8" standalone="no"?>
<!DOCTYPE svg PUBLIC "-//W3C//DTD SVG 1.1//EN"
 "http://www.w3.org/Graphics/SVG/1.1/DTD/svg11.dtd">
<!-- Generated by graphviz version 10.0.1 (0)
 -->
<!-- Pages: 1 -->
<svg width="2125pt" height="1938pt"
 viewBox="0.00 0.00 2125.00 1938.00" xmlns="http://www.w3.org/2000/svg" xmlns:xlink="http://www.w3.org/1999/xlink">
<g id="graph0" class="graph" transform="scale(1 1) rotate(0) translate(4 1934)">
<polygon fill="white" stroke="none" points="-4,4 -4,-1934 2121,-1934 2121,4 -4,4"/>
<!-- 1625 -->
<g id="node1" class="node">
<title>1625</title>
<ellipse fill="none" stroke="#b8bf62" cx="1324.59" cy="-259.43" rx="155.03" ry="28.99"/>
<text text-anchor="middle" x="1324.59" y="-262.63" font-family="Times,serif" font-size="14.00" fill="gray">SPDXLicense</text>
<text text-anchor="middle" x="1324.59" y="-246.13" font-family="Times,serif" font-size="14.00" fill="gray">ed36ffa9fb00b0720cba564297b618fa</text>
</g>
<!-- 1626 -->
<g id="node2" class="node">
<title>1626</title>
<polygon fill="none" stroke="black" points="1332.88,-690.34 1332.88,-705.25 1289.94,-715.8 1229.21,-715.8 1186.27,-705.25 1186.27,-690.34 1229.21,-679.8 1289.94,-679.8 1332.88,-690.34"/>
<polygon fill="none" stroke="black" points="1336.88,-687.21 1336.88,-708.39 1290.42,-719.8 1228.73,-719.8 1182.27,-708.39 1182.27,-687.21 1228.73,-675.8 1290.42,-675.8 1336.88,-687.21"/>
<polygon fill="none" stroke="black" points="1340.88,-684.07 1340.88,-711.53 1290.91,-723.8 1228.24,-723.8 1178.27,-711.53 1178.27,-684.07 1228.24,-671.8 1290.91,-671.8 1340.88,-684.07"/>
<text text-anchor="middle" x="1259.57" y="-692.75" font-family="Times,serif" font-size="14.00">spdx:ErlPL&#45;1.1</text>
</g>
<!-- 1625&#45;&gt;1626 -->
<g id="edge1" class="edge">
<title>1625&#45;&gt;1626</title>
<path fill="none" stroke="#b8bf62" d="M1325.79,-288.68C1329.85,-395.17 1325.57,-419.06 1268.4,-660.55"/>
<polygon fill="#b8bf62" stroke="#b8bf62" points="1265.06,-659.45 1266.16,-669.99 1271.87,-661.06 1265.06,-659.45"/>
</g>
<!-- 6346 -->
<g id="node6" class="node">
<title>6346</title>
<polygon fill="none" stroke="#e09d4b" points="1586.33,-786.67 1586.33,-801.58 1538.19,-812.12 1470.12,-812.12 1421.98,-801.58 1421.98,-786.67 1470.12,-776.12 1538.19,-776.12 1586.33,-786.67"/>
<polygon fill="none" stroke="#e09d4b" points="1590.33,-783.45 1590.33,-804.8 1538.62,-816.12 1469.68,-816.12 1417.98,-804.8 1417.98,-783.45 1469.68,-772.12 1538.62,-772.12 1590.33,-783.45"/>
<text text-anchor="middle" x="1504.15" y="-789.07" font-family="Times,serif" font-size="14.00">Fedora:ErlPL&#45;1.1</text>
</g>
<!-- 1626&#45;&gt;6346 -->
<g id="edge2" class="edge">
<title>1626&#45;&gt;6346</title>
<path fill="none" stroke="#e09d4b" stroke-width="2" d="M1341.19,-707.54C1412.51,-717.38 1434.01,-727.47 1473.77,-764.63"/>
<polygon fill="#e09d4b" stroke="#e09d4b" stroke-width="2" points="1479.66,-770.22 1469.31,-766.6 1477.46,-768.81 1472.06,-763.7 1472.4,-763.33 1472.75,-762.97 1478.14,-768.09 1475.5,-760.07 1479.66,-770.22"/>
</g>
<!-- 41591 -->
<g id="node21" class="node">
<title>41591</title>
<polygon fill="none" stroke="#00876c" points="1085.39,-1105.2 1085.39,-1120.11 990.53,-1130.65 856.37,-1130.65 761.5,-1120.11 761.5,-1105.2 856.37,-1094.65 990.53,-1094.65 1085.39,-1105.2"/>
<polygon fill="none" stroke="#00876c" points="1089.39,-1101.62 1089.39,-1123.69 990.75,-1134.65 856.14,-1134.65 757.5,-1123.69 757.5,-1101.62 856.14,-1090.65 990.75,-1090.65 1089.39,-1101.62"/>
<text text-anchor="middle" x="923.45" y="-1107.6" font-family="Times,serif" font-size="14.00">metaeffekt:Erlang Public License 1.1</text>
</g>
<!-- 1626&#45;&gt;41591 -->
<g id="edge3" class="edge">
<title>1626&#45;&gt;41591</title>
<path fill="none" stroke="#00876c" stroke-width="2" d="M1232.79,-724.06C1145.2,-810.3 1126.32,-834.82 946.31,-1081.33"/>
<polygon fill="#00876c" stroke="#00876c" stroke-width="2" points="941.28,-1088.23 943.54,-1077.5 942.39,-1085.86 946.77,-1079.85 947.18,-1080.15 947.58,-1080.44 943.2,-1086.45 950.81,-1082.8 941.28,-1088.23"/>
</g>
<!-- 1627 -->
<g id="node3" class="node">
<title>1627</title>
<polygon fill="none" stroke="black" points="1142.39,-779.94 1142.39,-794.86 1112.1,-805.4 1069.27,-805.4 1038.98,-794.86 1038.98,-779.94 1069.27,-769.4 1112.1,-769.4 1142.39,-779.94"/>
<polygon fill="none" stroke="black" points="1146.39,-777.1 1146.39,-797.7 1112.78,-809.4 1068.59,-809.4 1034.98,-797.7 1034.98,-777.1 1068.59,-765.4 1112.78,-765.4 1146.39,-777.1"/>
<text text-anchor="middle" x="1090.68" y="-782.35" font-family="Times,serif" font-size="14.00">ErlPL&#45;1.1</text>
</g>
<!-- 1627&#45;&gt;1626 -->
<g id="edge4" class="edge">
<title>1627&#45;&gt;1626</title>
<path fill="none" stroke="black" stroke-width="2" d="M1117.37,-766.9C1147.66,-743.72 1166.81,-729.61 1182.69,-720.4"/>
<polygon fill="black" stroke="black" stroke-width="2" points="1190.08,-716.42 1183.41,-725.12 1188.06,-718.07 1181.52,-721.6 1181.28,-721.16 1181.04,-720.72 1187.59,-717.19 1179.14,-717.2 1190.08,-716.42"/>
</g>
<!-- 1627&#45;&gt;6346 -->
<g id="edge5" class="edge">
<title>1627&#45;&gt;6346</title>
<path fill="none" stroke="#e09d4b" stroke-width="2" d="M1146.55,-778.16C1324.53,-748.95 1363.8,-745.89 1442.38,-771.87"/>
<polygon fill="#e09d4b" stroke="#e09d4b" stroke-width="2" points="1450.38,-774.58 1439.46,-775.63 1447.79,-774.23 1440.75,-771.84 1440.91,-771.37 1441.07,-770.9 1448.11,-773.28 1442.35,-767.11 1450.38,-774.58"/>
</g>
<!-- 9396 -->
<g id="node10" class="node">
<title>9396</title>
<polygon fill="none" stroke="#00876c" points="1473.57,-890.95 1473.57,-905.86 1420.89,-916.41 1346.39,-916.41 1293.71,-905.86 1293.71,-890.95 1346.39,-880.41 1420.89,-880.41 1473.57,-890.95"/>
<polygon fill="none" stroke="#00876c" points="1477.57,-887.67 1477.57,-909.14 1421.29,-920.41 1346,-920.41 1289.71,-909.14 1289.71,-887.67 1346,-876.41 1421.29,-876.41 1477.57,-887.67"/>
<text text-anchor="middle" x="1383.64" y="-893.36" font-family="Times,serif" font-size="14.00">BlueOak:ErlPL&#45;1.1</text>
</g>
<!-- 1627&#45;&gt;9396 -->
<g id="edge6" class="edge">
<title>1627&#45;&gt;9396</title>
<path fill="none" stroke="#00876c" stroke-width="2" d="M1146.66,-793.18C1270.11,-806.42 1293.77,-814.56 1352.24,-868.62"/>
<polygon fill="#00876c" stroke="#00876c" stroke-width="2" points="1358.56,-874.52 1348.18,-870.98 1356.35,-873.14 1350.91,-868.06 1351.25,-867.7 1351.59,-867.33 1357.03,-872.41 1354.32,-864.41 1358.56,-874.52"/>
</g>
<!-- 26862 -->
<g id="node16" class="node">
<title>26862</title>
<polygon fill="none" stroke="#e18745" points="840.57,-819.67 840.57,-834.58 785.94,-845.12 708.69,-845.12 654.06,-834.58 654.06,-819.67 708.69,-809.12 785.94,-809.12 840.57,-819.67"/>
<polygon fill="none" stroke="#e18745" points="844.57,-816.37 844.57,-837.88 786.32,-849.12 708.31,-849.12 650.06,-837.88 650.06,-816.37 708.31,-805.12 786.32,-805.12 844.57,-816.37"/>
<text text-anchor="middle" x="747.32" y="-822.07" font-family="Times,serif" font-size="14.00">fossology:ErlPL&#45;1.1</text>
</g>
<!-- 1627&#45;&gt;26862 -->
<g id="edge7" class="edge">
<title>1627&#45;&gt;26862</title>
<path fill="none" stroke="#e18745" stroke-width="2" d="M1034.7,-779.26C898.86,-759.92 868.99,-761.01 796.37,-799.72"/>
<polygon fill="#e18745" stroke="#e18745" stroke-width="2" points="788.95,-803.73 795.6,-795.02 790.97,-802.08 797.51,-798.54 797.75,-798.98 797.98,-799.42 791.44,-802.95 799.89,-802.93 788.95,-803.73"/>
</g>
<!-- 36775 -->
<g id="node19" class="node">
<title>36775</title>
<polygon fill="none" stroke="#379469" points="1050.42,-443.75 1050.42,-458.66 1007.15,-469.21 945.96,-469.21 902.69,-458.66 902.69,-443.75 945.96,-433.21 1007.15,-433.21 1050.42,-443.75"/>
<polygon fill="none" stroke="#379469" points="1054.42,-440.61 1054.42,-461.8 1007.63,-473.21 945.48,-473.21 898.69,-461.8 898.69,-440.61 945.48,-429.21 1007.63,-429.21 1054.42,-440.61"/>
<text text-anchor="middle" x="976.55" y="-446.16" font-family="Times,serif" font-size="14.00">cavil:ErlPL&#45;1.1</text>
</g>
<!-- 1627&#45;&gt;36775 -->
<g id="edge8" class="edge">
<title>1627&#45;&gt;36775</title>
<path fill="none" stroke="#379469" stroke-width="2" d="M1084.86,-765.03C1035.63,-575.89 1028.14,-549.56 993.57,-483.29"/>
<polygon fill="#379469" stroke="#379469" stroke-width="2" points="989.64,-475.81 998.28,-482.57 991.28,-477.84 994.73,-484.43 994.29,-484.66 993.85,-484.89 990.39,-478.31 990.31,-486.75 989.64,-475.81"/>
</g>
<!-- 1627&#45;&gt;41591 -->
<g id="edge9" class="edge">
<title>1627&#45;&gt;41591</title>
<path fill="none" stroke="#00876c" stroke-dasharray="5,2" d="M1067.2,-809.13C945.69,-921.85 936.81,-937.62 925.92,-1079.39"/>
<polygon fill="#00876c" stroke="#00876c" points="925.19,-1089.06 921.45,-1078.75 925.47,-1085.29 925.94,-1079.09 925.94,-1079.09 925.94,-1079.09 925.47,-1085.29 930.43,-1079.42 925.19,-1089.06"/>
</g>
<!-- 51118 -->
<g id="node26" class="node">
<title>51118</title>
<polygon fill="none" stroke="#dac767" points="846.47,-971.74 846.47,-986.65 753.88,-997.19 622.93,-997.19 530.34,-986.65 530.34,-971.74 622.93,-961.19 753.88,-961.19 846.47,-971.74"/>
<polygon fill="none" stroke="#dac767" points="850.47,-968.17 850.47,-990.22 754.1,-1001.19 622.7,-1001.19 526.34,-990.22 526.34,-968.17 622.7,-957.19 754.1,-957.19 850.47,-968.17"/>
<text text-anchor="middle" x="688.4" y="-974.14" font-family="Times,serif" font-size="14.00">fosslight:Erlang Public License v1.1</text>
</g>
<!-- 1627&#45;&gt;51118 -->
<g id="edge10" class="edge">
<title>1627&#45;&gt;51118</title>
<path fill="none" stroke="#dac767" stroke-width="2" d="M1036.08,-798.52C828.55,-841.07 803.95,-852.03 715.67,-948.95"/>
<polygon fill="#dac767" stroke="#dac767" stroke-width="2" points="709.99,-955.21 713.38,-944.78 711.34,-952.98 716.34,-947.47 716.71,-947.81 717.08,-948.14 712.08,-953.65 720.04,-950.83 709.99,-955.21"/>
</g>
<!-- 1628 -->
<g id="node4" class="node">
<title>1628</title>
<polygon fill="none" stroke="black" points="1242.38,-1052.57 1242.38,-1067.48 1171.53,-1078.02 1071.33,-1078.02 1000.47,-1067.48 1000.47,-1052.57 1071.33,-1042.02 1171.53,-1042.02 1242.38,-1052.57"/>
<polygon fill="none" stroke="black" points="1246.38,-1049.12 1246.38,-1070.93 1171.82,-1082.02 1071.03,-1082.02 996.47,-1070.93 996.47,-1049.12 1071.03,-1038.02 1171.82,-1038.02 1246.38,-1049.12"/>
<text text-anchor="middle" x="1121.43" y="-1054.97" font-family="Times,serif" font-size="14.00">Erlang Public License v1.1</text>
</g>
<!-- 1628&#45;&gt;1626 -->
<g id="edge11" class="edge">
<title>1628&#45;&gt;1626</title>
<path fill="none" stroke="#b8bf62" stroke-width="2" d="M1134.89,-1037.57C1243.03,-857.11 1254.28,-834.79 1258.33,-735.43"/>
<polygon fill="#b8bf62" stroke="#b8bf62" stroke-width="2" points="1258.66,-726.68 1262.78,-736.84 1259.06,-729.26 1258.78,-736.69 1258.28,-736.68 1257.78,-736.66 1258.06,-729.23 1253.79,-736.51 1258.66,-726.68"/>
</g>
<!-- 1628&#45;&gt;9396 -->
<g id="edge12" class="edge">
<title>1628&#45;&gt;9396</title>
<path fill="none" stroke="#00876c" stroke-width="2" d="M1176.23,-1038.23C1293.35,-991.34 1316.14,-978.34 1358.06,-929.31"/>
<polygon fill="#00876c" stroke="#00876c" stroke-width="2" points="1363.69,-922.64 1360.68,-933.19 1362.42,-924.92 1357.62,-930.61 1357.24,-930.29 1356.86,-929.97 1361.65,-924.28 1353.8,-927.39 1363.69,-922.64"/>
</g>
<!-- 15221 -->
<g id="node13" class="node">
<title>15221</title>
<polygon fill="none" stroke="black" points="1325.28,-1495.9 1325.28,-1510.81 1266.76,-1521.35 1184,-1521.35 1125.48,-1510.81 1125.48,-1495.9 1184,-1485.35 1266.76,-1485.35 1325.28,-1495.9"/>
<polygon fill="none" stroke="black" points="1329.28,-1492.55 1329.28,-1514.15 1267.12,-1525.35 1183.65,-1525.35 1121.48,-1514.15 1121.48,-1492.55 1183.65,-1481.35 1267.12,-1481.35 1329.28,-1492.55"/>
<text text-anchor="middle" x="1225.38" y="-1498.3" font-family="Times,serif" font-size="14.00">scancode:erlangpl&#45;1.1</text>
</g>
<!-- 1628&#45;&gt;15221 -->
<g id="edge13" class="edge">
<title>1628&#45;&gt;15221</title>
<path fill="none" stroke="#dac767" stroke-width="2" d="M1127.48,-1082.41C1197.49,-1341.51 1204.27,-1367.76 1220.25,-1470.11"/>
<polygon fill="#dac767" stroke="#dac767" stroke-width="2" points="1221.56,-1478.52 1215.57,-1469.33 1220.67,-1476.07 1219.53,-1468.72 1220.02,-1468.64 1220.51,-1468.57 1221.66,-1475.92 1224.47,-1467.95 1221.56,-1478.52"/>
</g>
<!-- 1628&#45;&gt;26862 -->
<g id="edge14" class="edge">
<title>1628&#45;&gt;26862</title>
<path fill="none" stroke="#e18745" stroke-width="2" d="M1074.6,-1037.54C873.58,-940.91 845.77,-925.18 777.03,-857.02"/>
<polygon fill="#e18745" stroke="#e18745" stroke-width="2" points="771.07,-851.08 781.33,-854.95 773.24,-852.53 778.51,-857.79 778.15,-858.14 777.8,-858.49 772.53,-853.24 774.97,-861.33 771.07,-851.08"/>
</g>
<!-- 1628&#45;&gt;41591 -->
<g id="edge15" class="edge">
<title>1628&#45;&gt;41591</title>
<path fill="none" stroke="#00876c" stroke-dasharray="5,2" d="M1083.22,-1082.52C1077.15,-1086.04 1071.51,-1089.26 1066.23,-1092.2"/>
<polygon fill="#00876c" stroke="#00876c" points="1057.56,-1096.93 1064.18,-1088.19 1060.88,-1095.12 1066.34,-1092.14 1066.34,-1092.14 1066.34,-1092.14 1060.88,-1095.12 1068.5,-1096.09 1057.56,-1096.93"/>
</g>
<!-- 1628&#45;&gt;51118 -->
<g id="edge16" class="edge">
<title>1628&#45;&gt;51118</title>
<path fill="none" stroke="#dac767" stroke-width="2" d="M996.28,-1055.18C850.58,-1048.68 811.89,-1041.07 741.41,-1006.45"/>
<polygon fill="#dac767" stroke="#dac767" stroke-width="2" points="733.89,-1002.7 744.85,-1003.13 736.41,-1003.4 743.07,-1006.71 742.84,-1007.16 742.62,-1007.61 735.96,-1004.29 740.84,-1011.19 733.89,-1002.7"/>
</g>
<!-- 6345 -->
<g id="node5" class="node">
<title>6345</title>
<ellipse fill="none" stroke="#e09d4b" cx="1956.17" cy="-719.74" rx="160.87" ry="28.99"/>
<text text-anchor="middle" x="1956.17" y="-722.94" font-family="Times,serif" font-size="14.00" fill="gray">FedoraEntry</text>
<text text-anchor="middle" x="1956.17" y="-706.44" font-family="Times,serif" font-size="14.00" fill="gray">9257eb595815de69a5e4deba2237d362</text>
</g>
<!-- 6345&#45;&gt;6346 -->
<g id="edge17" class="edge">
<title>6345&#45;&gt;6346</title>
<path fill="none" stroke="#e09d4b" d="M1814.24,-733.69C1766.03,-740.96 1704.65,-753.1 1585.76,-777.4"/>
<polygon fill="#e09d4b" stroke="#e09d4b" points="1585.42,-773.9 1576.32,-779.33 1586.82,-780.76 1585.42,-773.9"/>
</g>
<!-- 6347 -->
<g id="node7" class="node">
<title>6347</title>
<polygon fill="none" stroke="black" points="1502.02,-1175.75 1502.02,-1190.66 1434.08,-1201.21 1338.02,-1201.21 1270.08,-1190.66 1270.08,-1175.75 1338.02,-1165.21 1434.08,-1165.21 1502.02,-1175.75"/>
<polygon fill="none" stroke="black" points="1506.02,-1172.32 1506.02,-1194.09 1434.39,-1205.21 1337.71,-1205.21 1266.08,-1194.09 1266.08,-1172.32 1337.71,-1161.21 1434.39,-1161.21 1506.02,-1172.32"/>
<text text-anchor="middle" x="1386.05" y="-1178.16" font-family="Times,serif" font-size="14.00">Erlang Public License 1.1</text>
</g>
<!-- 6347&#45;&gt;6346 -->
<g id="edge18" class="edge">
<title>6347&#45;&gt;6346</title>
<path fill="none" stroke="#e09d4b" stroke-dasharray="5,2" d="M1402.6,-1160.81C1518.68,-1003.54 1525.01,-987.01 1507.79,-827.24"/>
<polygon fill="#e09d4b" stroke="#e09d4b" points="1506.76,-817.72 1512.31,-827.17 1507.17,-821.48 1507.84,-827.66 1507.84,-827.66 1507.84,-827.66 1507.17,-821.48 1503.36,-828.14 1506.76,-817.72"/>
</g>
<!-- 6347&#45;&gt;15221 -->
<g id="edge19" class="edge">
<title>6347&#45;&gt;15221</title>
<path fill="none" stroke="#dac767" stroke-width="2" d="M1381.86,-1205.61C1348.9,-1381.29 1342.02,-1403.59 1260.05,-1474.08"/>
<polygon fill="#dac767" stroke="#dac767" stroke-width="2" points="1253.74,-1479.48 1258.42,-1469.56 1255.36,-1477.43 1261.02,-1472.6 1261.34,-1472.98 1261.66,-1473.36 1256.01,-1478.19 1264.26,-1476.41 1253.74,-1479.48"/>
</g>
<!-- 6347&#45;&gt;41591 -->
<g id="edge20" class="edge">
<title>6347&#45;&gt;41591</title>
<path fill="none" stroke="#00876c" stroke-width="2" d="M1311.28,-1201.47C1203.47,-1225.4 1163.91,-1215.23 985.95,-1139.44"/>
<polygon fill="#00876c" stroke="#00876c" stroke-width="2" points="977.95,-1136.02 988.92,-1135.81 980.51,-1136.57 987.35,-1139.49 987.15,-1139.95 986.95,-1140.41 980.11,-1137.49 985.38,-1144.09 977.95,-1136.02"/>
</g>
<!-- 6348 -->
<g id="node8" class="node">
<title>6348</title>
<polygon fill="none" stroke="#e09d4b" points="1794.79,-654.83 1794.79,-669.74 1773.59,-680.28 1743.6,-680.28 1722.4,-669.74 1722.4,-654.83 1743.6,-644.28 1773.59,-644.28 1794.79,-654.83"/>
<text text-anchor="middle" x="1758.6" y="-657.23" font-family="Times,serif" font-size="14.00">ERPL</text>
</g>
<!-- 6348&#45;&gt;6346 -->
<g id="edge21" class="edge">
<title>6348&#45;&gt;6346</title>
<path fill="none" stroke="#e09d4b" stroke-dasharray="5,2" d="M1734.79,-676.37C1688.26,-703.74 1668.01,-714.19 1556.42,-768.64"/>
<polygon fill="#e09d4b" stroke="#e09d4b" points="1547.52,-772.98 1554.54,-764.55 1550.92,-771.33 1556.51,-768.6 1556.51,-768.6 1556.51,-768.6 1550.92,-771.33 1558.48,-772.64 1547.52,-772.98"/>
</g>
<!-- 9395 -->
<g id="node9" class="node">
<title>9395</title>
<ellipse fill="none" stroke="#00876c" cx="1803.28" cy="-1063.59" rx="157.15" ry="28.99"/>
<text text-anchor="middle" x="1803.28" y="-1066.79" font-family="Times,serif" font-size="14.00" fill="gray">BlueOakCouncil</text>
<text text-anchor="middle" x="1803.28" y="-1050.29" font-family="Times,serif" font-size="14.00" fill="gray">e2df2e906b5e423dbc4f28214298893f</text>
</g>
<!-- 9395&#45;&gt;9396 -->
<g id="edge22" class="edge">
<title>9395&#45;&gt;9396</title>
<path fill="none" stroke="#00876c" d="M1760.4,-1035.24C1686.56,-987.56 1650.82,-974.68 1456.33,-919.1"/>
<polygon fill="#00876c" stroke="#00876c" points="1457.46,-915.79 1446.88,-916.41 1455.54,-922.52 1457.46,-915.79"/>
</g>
<!-- 9397 -->
<g id="node11" class="node">
<title>9397</title>
<polygon fill="none" stroke="black" points="1159.54,-694.82 1159.54,-709.74 1100.69,-720.28 1017.47,-720.28 958.63,-709.74 958.63,-694.82 1017.47,-684.28 1100.69,-684.28 1159.54,-694.82"/>
<text text-anchor="middle" x="1059.08" y="-697.23" font-family="Times,serif" font-size="14.00">Erlang Public License</text>
</g>
<!-- 9397&#45;&gt;9396 -->
<g id="edge23" class="edge">
<title>9397&#45;&gt;9396</title>
<path fill="none" stroke="#00876c" stroke-dasharray="5,2" d="M1126.03,-716.19C1263.65,-745.78 1284.53,-761.36 1361.19,-867.19"/>
<polygon fill="#00876c" stroke="#00876c" points="1366.84,-875 1357.33,-869.53 1364.62,-871.94 1360.98,-866.9 1360.98,-866.9 1360.98,-866.9 1364.62,-871.94 1364.63,-864.26 1366.84,-875"/>
</g>
<!-- 9397&#45;&gt;36775 -->
<g id="edge24" class="edge">
<title>9397&#45;&gt;36775</title>
<path fill="none" stroke="#379469" stroke-dasharray="5,2" d="M1054.32,-684.14C1019.73,-552.5 1012.77,-527.45 992.2,-483.54"/>
<polygon fill="#379469" stroke="#379469" points="987.95,-474.62 996.31,-481.72 989.58,-478.04 992.25,-483.65 992.25,-483.65 992.25,-483.65 989.58,-478.04 988.18,-485.58 987.95,-474.62"/>
</g>
<!-- 9397&#45;&gt;41591 -->
<g id="edge25" class="edge">
<title>9397&#45;&gt;41591</title>
<path fill="none" stroke="#00876c" stroke-dasharray="5,2" d="M1042.6,-720.69C931.07,-845.61 925.76,-861.22 923.73,-1079.03"/>
<polygon fill="#00876c" stroke="#00876c" points="923.64,-1089.02 919.23,-1078.98 923.68,-1085.23 923.73,-1079.02 923.73,-1079.02 923.73,-1079.02 923.68,-1085.23 928.23,-1079.06 923.64,-1089.02"/>
</g>
<!-- 15220 -->
<g id="node12" class="node">
<title>15220</title>
<ellipse fill="none" stroke="#dac767" cx="1475.54" cy="-1901.15" rx="153.44" ry="28.99"/>
<text text-anchor="middle" x="1475.54" y="-1904.35" font-family="Times,serif" font-size="14.00" fill="gray">ScancodeData</text>
<text text-anchor="middle" x="1475.54" y="-1887.85" font-family="Times,serif" font-size="14.00" fill="gray">d2d8655f36459cad1d2f426ffcbad3fc</text>
</g>
<!-- 15220&#45;&gt;15221 -->
<g id="edge26" class="edge">
<title>15220&#45;&gt;15221</title>
<path fill="none" stroke="#dac767" d="M1452.05,-1872.12C1386.58,-1790.72 1371.22,-1764.74 1243.34,-1535.54"/>
<polygon fill="#dac767" stroke="#dac767" points="1246.42,-1533.88 1238.49,-1526.85 1240.31,-1537.29 1246.42,-1533.88"/>
</g>
<!-- 15221&#45;&gt;41591 -->
<g id="edge27" class="edge">
<title>15221&#45;&gt;41591</title>
<path fill="none" stroke="#00876c" stroke-dasharray="5,2" d="M1191.78,-1481.05C1082.6,-1407.77 1067.23,-1384.18 940.4,-1144.68"/>
<polygon fill="#00876c" stroke="#00876c" points="935.83,-1136.04 944.48,-1142.78 937.59,-1139.39 940.5,-1144.88 940.5,-1144.88 940.5,-1144.88 937.59,-1139.39 936.53,-1146.99 935.83,-1136.04"/>
</g>
<!-- 15222 -->
<g id="node14" class="node">
<title>15222</title>
<polygon fill="none" stroke="black" points="1302.26,-1850.52 1302.26,-1865.44 1266.78,-1875.98 1216.61,-1875.98 1181.13,-1865.44 1181.13,-1850.52 1216.61,-1839.98 1266.78,-1839.98 1302.26,-1850.52"/>
<polygon fill="none" stroke="black" points="1306.26,-1847.54 1306.26,-1868.42 1267.36,-1879.98 1216.02,-1879.98 1177.13,-1868.42 1177.13,-1847.54 1216.02,-1835.98 1267.36,-1835.98 1306.26,-1847.54"/>
<text text-anchor="middle" x="1241.69" y="-1852.93" font-family="Times,serif" font-size="14.00">erlangpl&#45;1.1</text>
</g>
<!-- 15222&#45;&gt;15221 -->
<g id="edge28" class="edge">
<title>15222&#45;&gt;15221</title>
<path fill="none" stroke="black" stroke-width="2" d="M1243.48,-1835.5C1249.92,-1752.74 1248.7,-1733.27 1228.77,-1536.72"/>
<polygon fill="black" stroke="black" stroke-width="2" points="1227.9,-1528.11 1233.38,-1537.61 1228.65,-1530.61 1229.41,-1538.01 1228.91,-1538.06 1228.41,-1538.11 1227.66,-1530.71 1224.43,-1538.52 1227.9,-1528.11"/>
</g>
<!-- 26861 -->
<g id="node15" class="node">
<title>26861</title>
<ellipse fill="none" stroke="#e18745" cx="223" cy="-796.12" rx="156.09" ry="28.99"/>
<text text-anchor="middle" x="223" y="-799.32" font-family="Times,serif" font-size="14.00" fill="gray">Fossology</text>
<text text-anchor="middle" x="223" y="-782.82" font-family="Times,serif" font-size="14.00" fill="gray">334663d4cff349b96fc73ea58766e34a</text>
</g>
<!-- 26861&#45;&gt;26862 -->
<g id="edge29" class="edge">
<title>26861&#45;&gt;26862</title>
<path fill="none" stroke="#e18745" d="M375.8,-789.81C431.87,-791.3 500.42,-798.39 639.04,-814.47"/>
<polygon fill="#e18745" stroke="#e18745" points="638.62,-817.94 648.96,-815.62 639.43,-810.99 638.62,-817.94"/>
</g>
<!-- 28675 -->
<g id="node17" class="node">
<title>28675</title>
<ellipse fill="none" stroke="#e06f45" cx="1527.48" cy="-351.09" rx="153.44" ry="28.99"/>
<text text-anchor="middle" x="1527.48" y="-354.29" font-family="Times,serif" font-size="14.00" fill="gray">OrtLicenseCategorization</text>
<text text-anchor="middle" x="1527.48" y="-337.79" font-family="Times,serif" font-size="14.00" fill="gray">203d03bd5f8f439961a2ff377ff2c5d1</text>
</g>
<!-- 28675&#45;&gt;1626 -->
<g id="edge30" class="edge">
<title>28675&#45;&gt;1626</title>
<path fill="none" stroke="#e06f45" d="M1504.85,-380.07C1448.03,-452.85 1429.5,-476.89 1286.82,-662.37"/>
<polygon fill="#e06f45" stroke="#e06f45" points="1284.18,-660.07 1280.86,-670.13 1289.73,-664.34 1284.18,-660.07"/>
</g>
<!-- 36774 -->
<g id="node18" class="node">
<title>36774</title>
<ellipse fill="none" stroke="#379469" cx="824.97" cy="-29.39" rx="160.87" ry="28.99"/>
<text text-anchor="middle" x="824.97" y="-32.59" font-family="Times,serif" font-size="14.00" fill="gray">CavilLicenseChange</text>
<text text-anchor="middle" x="824.97" y="-16.09" font-family="Times,serif" font-size="14.00" fill="gray">97201475a5ba24641b660aa24ac80346</text>
</g>
<!-- 36774&#45;&gt;36775 -->
<g id="edge31" class="edge">
<title>36774&#45;&gt;36775</title>
<path fill="none" stroke="#379469" d="M838.44,-58.72C880.55,-150.86 889.16,-176.25 966.02,-418.07"/>
<polygon fill="#379469" stroke="#379469" points="962.67,-419.08 969.04,-427.55 969.34,-416.96 962.67,-419.08"/>
</g>
<!-- 41590 -->
<g id="node20" class="node">
<title>41590</title>
<ellipse fill="none" stroke="#00876c" cx="549.44" cy="-747.51" rx="160.34" ry="28.99"/>
<text text-anchor="middle" x="549.44" y="-750.71" font-family="Times,serif" font-size="14.00" fill="gray">MetaeffektLicense</text>
<text text-anchor="middle" x="549.44" y="-734.21" font-family="Times,serif" font-size="14.00" fill="gray">b3cae9be12df3d71907b023b7d5d3b28</text>
</g>
<!-- 41590&#45;&gt;41591 -->
<g id="edge32" class="edge">
<title>41590&#45;&gt;41591</title>
<path fill="none" stroke="#00876c" d="M563.7,-776.82C629.73,-911.66 648.14,-928.93 880.55,-1084.06"/>
<polygon fill="#00876c" stroke="#00876c" points="878.46,-1086.87 888.72,-1089.51 882.35,-1081.05 878.46,-1086.87"/>
</g>
<!-- 41592 -->
<g id="node22" class="node">
<title>41592</title>
<polygon fill="none" stroke="#00876c" points="674.06,-1444.23 674.06,-1459.14 582.76,-1469.69 453.65,-1469.69 362.35,-1459.14 362.35,-1444.23 453.65,-1433.69 582.76,-1433.69 674.06,-1444.23"/>
<text text-anchor="middle" x="518.21" y="-1446.64" font-family="Times,serif" font-size="14.00">http://www.erlang.org/EPLICENSE</text>
</g>
<!-- 41592&#45;&gt;41591 -->
<g id="edge33" class="edge">
<title>41592&#45;&gt;41591</title>
<path fill="none" stroke="#00876c" stroke-dasharray="5,2" d="M542.01,-1433.26C640.38,-1357.05 660.87,-1339.73 889.33,-1142.16"/>
<polygon fill="#00876c" stroke="#00876c" points="896.62,-1135.85 892,-1145.8 893.76,-1138.32 889.06,-1142.39 889.06,-1142.39 889.06,-1142.39 893.76,-1138.32 886.11,-1138.99 896.62,-1135.85"/>
</g>
<!-- 41594 -->
<g id="node23" class="node">
<title>41594</title>
<polygon fill="none" stroke="#00876c" points="1044.71,-1153.24 1044.71,-1168.15 959.26,-1178.69 838.41,-1178.69 752.95,-1168.15 752.95,-1153.24 838.41,-1142.69 959.26,-1142.69 1044.71,-1153.24"/>
<text text-anchor="middle" x="898.83" y="-1155.64" font-family="Times,serif" font-size="14.00">https://spdx.org/licenses/erlpl&#45;1.1</text>
</g>
<!-- 41594&#45;&gt;41591 -->
<g id="edge34" class="edge">
<title>41594&#45;&gt;41591</title>
<path fill="none" stroke="#00876c" stroke-dasharray="5,2" d="M906.16,-1142.25C906.23,-1142.12 906.29,-1141.99 906.36,-1141.86"/>
<polygon fill="#00876c" stroke="#00876c" points="909.49,-1136.21 908.58,-1147.14 907.65,-1139.52 904.64,-1144.96 904.64,-1144.96 904.64,-1144.96 907.65,-1139.52 900.71,-1142.78 909.49,-1136.21"/>
</g>
<!-- 41596 -->
<g id="node24" class="node">
<title>41596</title>
<polygon fill="none" stroke="black" points="900.36,-1627.32 900.36,-1642.23 793.49,-1652.77 642.35,-1652.77 535.47,-1642.23 535.47,-1627.32 642.35,-1616.77 793.49,-1616.77 900.36,-1627.32"/>
<text text-anchor="middle" x="717.92" y="-1629.72" font-family="Times,serif" font-size="14.00">ERLANG PUBLIC LICENSE Version 1.1</text>
</g>
<!-- 41596&#45;&gt;41591 -->
<g id="edge35" class="edge">
<title>41596&#45;&gt;41591</title>
<path fill="none" stroke="#00876c" stroke-dasharray="5,2" d="M723.02,-1616.71C763.15,-1474.88 769.89,-1458.05 909.19,-1144.71"/>
<polygon fill="#00876c" stroke="#00876c" points="913.07,-1135.99 913.12,-1146.96 911.53,-1139.45 909.01,-1145.13 909.01,-1145.13 909.01,-1145.13 911.53,-1139.45 904.89,-1143.3 913.07,-1135.99"/>
</g>
<!-- 51117 -->
<g id="node25" class="node">
<title>51117</title>
<ellipse fill="none" stroke="#dac767" cx="159.08" cy="-1121.73" rx="159.28" ry="28.99"/>
<text text-anchor="middle" x="159.08" y="-1124.93" font-family="Times,serif" font-size="14.00" fill="gray">FOSSLight</text>
<text text-anchor="middle" x="159.08" y="-1108.43" font-family="Times,serif" font-size="14.00" fill="gray">bf20e416279c3387dd5dc211eee69781</text>
</g>
<!-- 51117&#45;&gt;51118 -->
<g id="edge36" class="edge">
<title>51117&#45;&gt;51118</title>
<path fill="none" stroke="#dac767" d="M231.82,-1095.62C316.17,-1066.18 369.3,-1052.77 590.61,-1001.71"/>
<polygon fill="#dac767" stroke="#dac767" points="591.19,-1005.17 600.15,-999.51 589.62,-998.35 591.19,-1005.17"/>
</g>
</g>
</svg>
