<?xml version="1.0" encoding="UTF-8" standalone="no"?>
<!DOCTYPE svg PUBLIC "-//W3C//DTD SVG 1.1//EN"
 "http://www.w3.org/Graphics/SVG/1.1/DTD/svg11.dtd">
<!-- Generated by graphviz version 10.0.1 (0)
 -->
<!-- Pages: 1 -->
<svg width="2252pt" height="2031pt"
 viewBox="0.00 0.00 2252.00 2031.00" xmlns="http://www.w3.org/2000/svg" xmlns:xlink="http://www.w3.org/1999/xlink">
<g id="graph0" class="graph" transform="scale(1 1) rotate(0) translate(4 2027)">
<polygon fill="white" stroke="none" points="-4,4 -4,-2027 2248,-2027 2248,4 -4,4"/>
<!-- 4582 -->
<g id="node1" class="node">
<title>4582</title>
<ellipse fill="none" stroke="#b8bf62" cx="1341.89" cy="-540.73" rx="157.15" ry="28.99"/>
<text text-anchor="middle" x="1341.89" y="-543.93" font-family="Times,serif" font-size="14.00" fill="gray">SPDXLicense</text>
<text text-anchor="middle" x="1341.89" y="-527.43" font-family="Times,serif" font-size="14.00" fill="gray">817b713f3830226dbcef225f9e02647a</text>
</g>
<!-- 4583 -->
<g id="node2" class="node">
<title>4583</title>
<polygon fill="none" stroke="black" points="1726.11,-745.5 1726.11,-760.41 1683.16,-770.96 1622.43,-770.96 1579.49,-760.41 1579.49,-745.5 1622.43,-734.96 1683.16,-734.96 1726.11,-745.5"/>
<polygon fill="none" stroke="black" points="1730.11,-742.37 1730.11,-763.55 1683.65,-774.96 1621.95,-774.96 1575.49,-763.55 1575.49,-742.37 1621.95,-730.96 1683.65,-730.96 1730.11,-742.37"/>
<polygon fill="none" stroke="black" points="1734.11,-739.23 1734.11,-766.69 1684.13,-778.96 1621.46,-778.96 1571.49,-766.69 1571.49,-739.23 1621.46,-726.96 1684.13,-726.96 1734.11,-739.23"/>
<text text-anchor="middle" x="1652.8" y="-747.91" font-family="Times,serif" font-size="14.00">spdx:etalab&#45;2.0</text>
</g>
<!-- 4582&#45;&gt;4583 -->
<g id="edge1" class="edge">
<title>4582&#45;&gt;4583</title>
<path fill="none" stroke="#b8bf62" d="M1432.91,-564.72C1542.27,-595.65 1564.85,-617.03 1629.63,-716.9"/>
<polygon fill="#b8bf62" stroke="#b8bf62" points="1626.64,-718.72 1635.01,-725.22 1632.52,-714.92 1626.64,-718.72"/>
</g>
<!-- 8557 -->
<g id="node6" class="node">
<title>8557</title>
<polygon fill="none" stroke="#e09d4b" points="1814.71,-432.84 1814.71,-447.75 1766.57,-458.29 1698.5,-458.29 1650.36,-447.75 1650.36,-432.84 1698.5,-422.29 1766.57,-422.29 1814.71,-432.84"/>
<polygon fill="none" stroke="#e09d4b" points="1818.71,-429.62 1818.71,-450.97 1767.01,-462.29 1698.06,-462.29 1646.36,-450.97 1646.36,-429.62 1698.06,-418.29 1767.01,-418.29 1818.71,-429.62"/>
<text text-anchor="middle" x="1732.54" y="-435.24" font-family="Times,serif" font-size="14.00">Fedora:etalab&#45;2.0</text>
</g>
<!-- 4583&#45;&gt;8557 -->
<g id="edge2" class="edge">
<title>4583&#45;&gt;8557</title>
<path fill="none" stroke="#e09d4b" stroke-width="2" d="M1665.27,-726.63C1736.21,-576.65 1743.46,-556.14 1735.87,-473.54"/>
<polygon fill="#e09d4b" stroke="#e09d4b" stroke-width="2" points="1735.06,-465.01 1740.49,-474.53 1735.8,-467.51 1736.51,-474.91 1736.01,-474.96 1735.51,-475.01 1734.8,-467.61 1731.53,-475.39 1735.06,-465.01"/>
</g>
<!-- 41568 -->
<g id="node21" class="node">
<title>41568</title>
<polygon fill="none" stroke="#00876c" points="1396.46,-1000.4 1396.46,-1015.31 1329.18,-1025.85 1234.03,-1025.85 1166.74,-1015.31 1166.74,-1000.4 1234.03,-989.85 1329.18,-989.85 1396.46,-1000.4"/>
<polygon fill="none" stroke="#00876c" points="1400.46,-996.97 1400.46,-1018.73 1329.49,-1029.85 1233.71,-1029.85 1162.74,-1018.73 1162.74,-996.97 1233.71,-985.85 1329.49,-985.85 1400.46,-996.97"/>
<text text-anchor="middle" x="1281.6" y="-1002.8" font-family="Times,serif" font-size="14.00">metaeffekt:Etalab&#45;2.0&#45;FR</text>
</g>
<!-- 4583&#45;&gt;41568 -->
<g id="edge3" class="edge">
<title>4583&#45;&gt;41568</title>
<path fill="none" stroke="#00876c" stroke-width="2" d="M1624.65,-779.36C1553.89,-845.17 1527.66,-862.33 1329.05,-979.81"/>
<polygon fill="#00876c" stroke="#00876c" stroke-width="2" points="1321.56,-984.24 1327.87,-975.27 1323.51,-982.5 1329.91,-978.72 1330.16,-979.15 1330.42,-979.58 1324.02,-983.36 1332.45,-983.02 1321.56,-984.24"/>
</g>
<!-- 4584 -->
<g id="node3" class="node">
<title>4584</title>
<polygon fill="none" stroke="black" points="1568.61,-688.86 1568.61,-703.77 1538.32,-714.32 1495.49,-714.32 1465.2,-703.77 1465.2,-688.86 1495.49,-678.32 1538.32,-678.32 1568.61,-688.86"/>
<polygon fill="none" stroke="black" points="1572.61,-686.02 1572.61,-706.61 1539,-718.32 1494.81,-718.32 1461.2,-706.61 1461.2,-686.02 1494.81,-674.32 1539,-674.32 1572.61,-686.02"/>
<text text-anchor="middle" x="1516.91" y="-691.27" font-family="Times,serif" font-size="14.00">etalab&#45;2.0</text>
</g>
<!-- 4584&#45;&gt;4583 -->
<g id="edge4" class="edge">
<title>4584&#45;&gt;4583</title>
<path fill="none" stroke="black" stroke-width="2" d="M1572.92,-704.7C1593.31,-708.48 1605.43,-712.53 1616.66,-719.93"/>
<polygon fill="black" stroke="black" stroke-width="2" points="1623.67,-725.18 1612.97,-722.79 1621.32,-724.05 1615.37,-719.59 1615.66,-719.19 1615.96,-718.79 1621.92,-723.25 1618.36,-715.58 1623.67,-725.18"/>
</g>
<!-- 4584&#45;&gt;8557 -->
<g id="edge5" class="edge">
<title>4584&#45;&gt;8557</title>
<path fill="none" stroke="#e09d4b" stroke-width="2" d="M1537.27,-674.12C1654.53,-546.24 1673.79,-524.59 1710.83,-471.68"/>
<polygon fill="#e09d4b" stroke="#e09d4b" stroke-width="2" points="1715.81,-464.53 1713.79,-475.31 1714.76,-466.92 1710.51,-473.02 1710.1,-472.74 1709.69,-472.45 1713.94,-466.35 1706.4,-470.17 1715.81,-464.53"/>
</g>
<!-- 15259 -->
<g id="node14" class="node">
<title>15259</title>
<polygon fill="none" stroke="black" points="1674.59,-998.25 1674.59,-1013.17 1621.27,-1023.71 1545.85,-1023.71 1492.52,-1013.17 1492.52,-998.25 1545.85,-987.71 1621.27,-987.71 1674.59,-998.25"/>
<polygon fill="none" stroke="black" points="1678.59,-994.97 1678.59,-1016.45 1621.66,-1027.71 1545.46,-1027.71 1488.52,-1016.45 1488.52,-994.97 1545.46,-983.71 1621.66,-983.71 1678.59,-994.97"/>
<text text-anchor="middle" x="1583.56" y="-1000.66" font-family="Times,serif" font-size="14.00">scancode:etalab&#45;2.0</text>
</g>
<!-- 4584&#45;&gt;15259 -->
<g id="edge6" class="edge">
<title>4584&#45;&gt;15259</title>
<path fill="none" stroke="black" stroke-width="2" d="M1532.48,-718.65C1603.94,-821.55 1607.77,-837.42 1588.39,-972.51"/>
<polygon fill="black" stroke="black" stroke-width="2" points="1587.18,-980.91 1584.16,-970.37 1587.05,-978.3 1588.12,-970.94 1588.61,-971.01 1589.11,-971.08 1588.04,-978.44 1593.06,-971.65 1587.18,-980.91"/>
</g>
<!-- 28184 -->
<g id="node16" class="node">
<title>28184</title>
<polygon fill="none" stroke="#e18745" points="1862.35,-833.32 1862.35,-848.23 1807.73,-858.77 1730.47,-858.77 1675.85,-848.23 1675.85,-833.32 1730.47,-822.77 1807.73,-822.77 1862.35,-833.32"/>
<polygon fill="none" stroke="#e18745" points="1866.35,-830.01 1866.35,-851.53 1808.11,-862.77 1730.09,-862.77 1671.85,-851.53 1671.85,-830.01 1730.09,-818.77 1808.11,-818.77 1866.35,-830.01"/>
<text text-anchor="middle" x="1769.1" y="-835.72" font-family="Times,serif" font-size="14.00">fossology:etalab&#45;2.0</text>
</g>
<!-- 4584&#45;&gt;28184 -->
<g id="edge7" class="edge">
<title>4584&#45;&gt;28184</title>
<path fill="none" stroke="#e18745" stroke-width="2" d="M1565.68,-709.4C1679.09,-740.24 1699.13,-750.92 1745.54,-810.03"/>
<polygon fill="#e18745" stroke="#e18745" stroke-width="2" points="1750.78,-816.77 1741.09,-811.64 1748.81,-815.05 1744.25,-809.18 1744.64,-808.87 1745.04,-808.57 1749.6,-814.44 1748.2,-806.11 1750.78,-816.77"/>
</g>
<!-- 36777 -->
<g id="node19" class="node">
<title>36777</title>
<polygon fill="none" stroke="#379469" points="1479.1,-382.32 1479.1,-397.23 1435.83,-407.78 1374.64,-407.78 1331.37,-397.23 1331.37,-382.32 1374.64,-371.78 1435.83,-371.78 1479.1,-382.32"/>
<polygon fill="none" stroke="#379469" points="1483.1,-379.18 1483.1,-400.38 1436.31,-411.78 1374.16,-411.78 1327.37,-400.38 1327.37,-379.18 1374.16,-367.78 1436.31,-367.78 1483.1,-379.18"/>
<text text-anchor="middle" x="1405.24" y="-384.73" font-family="Times,serif" font-size="14.00">cavil:etalab&#45;2.0</text>
</g>
<!-- 4584&#45;&gt;36777 -->
<g id="edge8" class="edge">
<title>4584&#45;&gt;36777</title>
<path fill="none" stroke="#379469" stroke-width="2" d="M1514.99,-673.92C1501,-511.07 1496.73,-489.6 1433.02,-419.68"/>
<polygon fill="#379469" stroke="#379469" stroke-width="2" points="1427.47,-413.63 1437.54,-417.95 1429.57,-415.18 1434.6,-420.66 1434.23,-420.99 1433.86,-421.33 1428.83,-415.86 1430.91,-424.04 1427.47,-413.63"/>
</g>
<!-- 4584&#45;&gt;41568 -->
<g id="edge9" class="edge">
<title>4584&#45;&gt;41568</title>
<path fill="none" stroke="#00876c" stroke-dasharray="5,2" d="M1507.29,-718.74C1468.5,-808.46 1455.77,-824.73 1310.46,-977.53"/>
<polygon fill="#00876c" stroke="#00876c" points="1303.82,-984.5 1307.46,-974.16 1306.43,-981.76 1310.72,-977.26 1310.72,-977.26 1310.72,-977.26 1306.43,-981.76 1313.98,-980.36 1303.82,-984.5"/>
</g>
<!-- 4585 -->
<g id="node4" class="node">
<title>4585</title>
<polygon fill="none" stroke="black" points="1624.83,-944.18 1624.83,-959.1 1559.82,-969.64 1467.88,-969.64 1402.87,-959.1 1402.87,-944.18 1467.88,-933.64 1559.82,-933.64 1624.83,-944.18"/>
<polygon fill="none" stroke="black" points="1628.83,-940.78 1628.83,-962.5 1560.14,-973.64 1467.56,-973.64 1398.87,-962.5 1398.87,-940.78 1467.56,-929.64 1560.14,-929.64 1628.83,-940.78"/>
<text text-anchor="middle" x="1513.85" y="-946.59" font-family="Times,serif" font-size="14.00">Etalab Open License 2.0</text>
</g>
<!-- 4585&#45;&gt;4583 -->
<g id="edge10" class="edge">
<title>4585&#45;&gt;4583</title>
<path fill="none" stroke="black" stroke-width="2" d="M1536.22,-929.28C1611.91,-853.47 1627.04,-835.76 1641.89,-789.96"/>
<polygon fill="black" stroke="black" stroke-width="2" points="1644.46,-781.72 1645.78,-792.61 1644.17,-784.32 1641.96,-791.42 1641.49,-791.27 1641.01,-791.12 1643.22,-784.02 1637.19,-789.93 1644.46,-781.72"/>
</g>
<!-- 4585&#45;&gt;15259 -->
<g id="edge11" class="edge">
<title>4585&#45;&gt;15259</title>
<path fill="none" stroke="#dac767" stroke-width="2" d="M1556.48,-973.85C1557.71,-974.65 1558.87,-975.43 1559.96,-976.21"/>
<polygon fill="#dac767" stroke="#dac767" stroke-width="2" points="1566.46,-981.88 1555.97,-978.7 1564.2,-980.58 1558.6,-975.69 1558.92,-975.31 1559.25,-974.93 1564.86,-979.82 1561.88,-971.92 1566.46,-981.88"/>
</g>
<!-- 4585&#45;&gt;28184 -->
<g id="edge12" class="edge">
<title>4585&#45;&gt;28184</title>
<path fill="none" stroke="#e18745" stroke-width="2" d="M1569.9,-930.83C1658.32,-897.9 1688.75,-885.77 1721.02,-868.45"/>
<polygon fill="#e18745" stroke="#e18745" stroke-width="2" points="1728.55,-864.32 1721.95,-873.08 1726.54,-865.99 1720.02,-869.57 1719.78,-869.13 1719.54,-868.69 1726.06,-865.12 1717.62,-865.19 1728.55,-864.32"/>
</g>
<!-- 4585&#45;&gt;41568 -->
<g id="edge13" class="edge">
<title>4585&#45;&gt;41568</title>
<path fill="none" stroke="#00876c" stroke-dasharray="5,2" d="M1450.39,-971.32C1432.03,-976.22 1410.64,-981.07 1375.15,-988.53"/>
<polygon fill="#00876c" stroke="#00876c" points="1365.4,-990.57 1374.27,-984.12 1369.11,-989.8 1375.19,-988.52 1375.19,-988.52 1375.19,-988.52 1369.11,-989.8 1376.11,-992.93 1365.4,-990.57"/>
</g>
<!-- 8556 -->
<g id="node5" class="node">
<title>8556</title>
<ellipse fill="none" stroke="#e09d4b" cx="2089.66" cy="-217.66" rx="153.97" ry="28.99"/>
<text text-anchor="middle" x="2089.66" y="-220.86" font-family="Times,serif" font-size="14.00" fill="gray">FedoraEntry</text>
<text text-anchor="middle" x="2089.66" y="-204.36" font-family="Times,serif" font-size="14.00" fill="gray">fc6beddabbd370fe6667c49a28fccc1a</text>
</g>
<!-- 8556&#45;&gt;8557 -->
<g id="edge14" class="edge">
<title>8556&#45;&gt;8557</title>
<path fill="none" stroke="#e09d4b" d="M2034.29,-245.09C1971.22,-277.26 1934.66,-301.52 1774.41,-411.54"/>
<polygon fill="#e09d4b" stroke="#e09d4b" points="1772.69,-408.47 1766.43,-417.01 1776.66,-414.24 1772.69,-408.47"/>
</g>
<!-- 8558 -->
<g id="node7" class="node">
<title>8558</title>
<polygon fill="none" stroke="#e09d4b" points="1978.21,-154.15 1978.21,-169.06 1932.67,-179.61 1868.27,-179.61 1822.73,-169.06 1822.73,-154.15 1868.27,-143.61 1932.67,-143.61 1978.21,-154.15"/>
<text text-anchor="middle" x="1900.47" y="-156.56" font-family="Times,serif" font-size="14.00">License Ouverte</text>
</g>
<!-- 8558&#45;&gt;8557 -->
<g id="edge15" class="edge">
<title>8558&#45;&gt;8557</title>
<path fill="none" stroke="#e09d4b" stroke-dasharray="5,2" d="M1892.87,-179.91C1863.38,-250.47 1854.07,-265.65 1754.47,-408.8"/>
<polygon fill="#e09d4b" stroke="#e09d4b" points="1748.79,-416.96 1750.8,-406.18 1750.95,-413.85 1754.5,-408.75 1754.5,-408.75 1754.5,-408.75 1750.95,-413.85 1758.19,-411.32 1748.79,-416.96"/>
</g>
<!-- 8559 -->
<g id="node8" class="node">
<title>8559</title>
<polygon fill="none" stroke="#e09d4b" points="1778.86,-153.49 1778.86,-168.41 1753.12,-178.95 1716.71,-178.95 1690.96,-168.41 1690.96,-153.49 1716.71,-142.95 1753.12,-142.95 1778.86,-153.49"/>
<text text-anchor="middle" x="1734.91" y="-155.9" font-family="Times,serif" font-size="14.00">Ouverte</text>
</g>
<!-- 8559&#45;&gt;8557 -->
<g id="edge16" class="edge">
<title>8559&#45;&gt;8557</title>
<path fill="none" stroke="#e09d4b" stroke-dasharray="5,2" d="M1741.56,-179.38C1768.03,-253.58 1767.81,-268.63 1739.35,-407.25"/>
<polygon fill="#e09d4b" stroke="#e09d4b" points="1737.41,-416.7 1735.01,-406 1738.17,-413 1739.42,-406.91 1739.42,-406.91 1739.42,-406.91 1738.17,-413 1743.83,-407.82 1737.41,-416.7"/>
</g>
<!-- 15252 -->
<g id="node9" class="node">
<title>15252</title>
<ellipse fill="none" stroke="#dac767" cx="457.7" cy="-859.26" rx="156.62" ry="28.99"/>
<text text-anchor="middle" x="457.7" y="-862.46" font-family="Times,serif" font-size="14.00" fill="gray">ScancodeData</text>
<text text-anchor="middle" x="457.7" y="-845.96" font-family="Times,serif" font-size="14.00" fill="gray">423bcfff01a2a94a134596c502570532</text>
</g>
<!-- 15253 -->
<g id="node10" class="node">
<title>15253</title>
<polygon fill="none" stroke="#dac767" points="659.17,-912.22 659.17,-927.14 600,-937.68 516.32,-937.68 457.16,-927.14 457.16,-912.22 516.32,-901.68 600,-901.68 659.17,-912.22"/>
<polygon fill="none" stroke="#dac767" points="663.17,-908.87 663.17,-930.49 600.36,-941.68 515.97,-941.68 453.16,-930.49 453.16,-908.87 515.97,-897.68 600.36,-897.68 663.17,-908.87"/>
<text text-anchor="middle" x="558.16" y="-914.63" font-family="Times,serif" font-size="14.00">scancode:etalab&#45;2.0&#45;fr</text>
</g>
<!-- 15252&#45;&gt;15253 -->
<g id="edge17" class="edge">
<title>15252&#45;&gt;15253</title>
<path fill="none" stroke="#dac767" d="M493.74,-887.84C496.48,-889.42 499.5,-891.06 502.9,-892.85"/>
<polygon fill="#dac767" stroke="#dac767" points="501.03,-895.82 511.53,-897.23 504.2,-889.58 501.03,-895.82"/>
</g>
<!-- 15254 -->
<g id="node11" class="node">
<title>15254</title>
<polygon fill="none" stroke="black" points="947.15,-936.1 947.15,-951.01 911.02,-961.55 859.93,-961.55 823.8,-951.01 823.8,-936.1 859.93,-925.55 911.02,-925.55 947.15,-936.1"/>
<polygon fill="none" stroke="black" points="951.15,-933.1 951.15,-954.01 911.6,-965.55 859.36,-965.55 819.8,-954.01 819.8,-933.1 859.36,-921.55 911.6,-921.55 951.15,-933.1"/>
<text text-anchor="middle" x="885.48" y="-938.5" font-family="Times,serif" font-size="14.00">etalab&#45;2.0&#45;fr</text>
</g>
<!-- 15254&#45;&gt;15253 -->
<g id="edge18" class="edge">
<title>15254&#45;&gt;15253</title>
<path fill="none" stroke="#dac767" stroke-width="2" d="M819.48,-936.39C748.49,-928.73 706.59,-924.42 674.6,-922.06"/>
<polygon fill="#dac767" stroke="#dac767" stroke-width="2" points="666.1,-921.47 676.38,-917.67 668.69,-921.15 676.11,-921.66 676.07,-922.16 676.04,-922.66 668.62,-922.14 675.76,-926.65 666.1,-921.47"/>
</g>
<!-- 15254&#45;&gt;41568 -->
<g id="edge19" class="edge">
<title>15254&#45;&gt;41568</title>
<path fill="none" stroke="#00876c" stroke-width="2" d="M951.46,-933.71C1023.39,-925.25 1062.22,-934.27 1210.52,-983.89"/>
<polygon fill="#00876c" stroke="#00876c" stroke-width="2" points="1218.61,-986.6 1207.7,-987.69 1216.02,-986.26 1208.97,-983.9 1209.13,-983.43 1209.29,-982.95 1216.34,-985.32 1210.56,-979.16 1218.61,-986.6"/>
</g>
<!-- 15255 -->
<g id="node12" class="node">
<title>15255</title>
<polygon fill="none" stroke="#dac767" points="286.76,-903.1 286.76,-918.01 203.9,-928.56 86.72,-928.56 3.87,-918.01 3.87,-903.1 86.72,-892.56 203.9,-892.56 286.76,-903.1"/>
<polygon fill="none" stroke="#dac767" points="290.76,-899.58 290.76,-921.53 204.16,-932.56 86.47,-932.56 -0.13,-921.53 -0.13,-899.58 86.47,-888.56 204.16,-888.56 290.76,-899.58"/>
<text text-anchor="middle" x="145.31" y="-905.51" font-family="Times,serif" font-size="14.00">Etalab Open License 2.0 French</text>
</g>
<!-- 15255&#45;&gt;15253 -->
<g id="edge20" class="edge">
<title>15255&#45;&gt;15253</title>
<path fill="none" stroke="#dac767" stroke-width="2" d="M291.19,-907.45C326.38,-908.24 371.14,-910.22 441.62,-913.74"/>
<polygon fill="#dac767" stroke="#dac767" stroke-width="2" points="450.25,-914.17 440.04,-918.17 447.67,-914.54 440.24,-914.17 440.26,-913.67 440.29,-913.17 447.72,-913.54 440.49,-909.18 450.25,-914.17"/>
</g>
<!-- 15258 -->
<g id="node13" class="node">
<title>15258</title>
<ellipse fill="none" stroke="#dac767" cx="1830.24" cy="-1338.68" rx="160.34" ry="28.99"/>
<text text-anchor="middle" x="1830.24" y="-1341.88" font-family="Times,serif" font-size="14.00" fill="gray">ScancodeData</text>
<text text-anchor="middle" x="1830.24" y="-1325.38" font-family="Times,serif" font-size="14.00" fill="gray">49d1bc6172918a388928eb646b684baf</text>
</g>
<!-- 15258&#45;&gt;15259 -->
<g id="edge21" class="edge">
<title>15258&#45;&gt;15259</title>
<path fill="none" stroke="#dac767" d="M1821.42,-1309.49C1787.91,-1200.18 1773.85,-1182.44 1615.8,-1035.62"/>
<polygon fill="#dac767" stroke="#dac767" points="1618.49,-1033.35 1608.79,-1029.11 1613.73,-1038.48 1618.49,-1033.35"/>
</g>
<!-- 15259&#45;&gt;41568 -->
<g id="edge22" class="edge">
<title>15259&#45;&gt;41568</title>
<path fill="none" stroke="#00876c" stroke-dasharray="5,2" d="M1488.12,-1006.02C1468.48,-1006.15 1445.26,-1006.34 1411.93,-1006.64"/>
<polygon fill="#00876c" stroke="#00876c" points="1401.96,-1006.73 1411.92,-1002.14 1405.74,-1006.7 1411.96,-1006.64 1411.96,-1006.64 1411.96,-1006.64 1405.74,-1006.7 1412,-1011.14 1401.96,-1006.73"/>
</g>
<!-- 28183 -->
<g id="node15" class="node">
<title>28183</title>
<ellipse fill="none" stroke="#e18745" cx="1940.76" cy="-951.99" rx="153.97" ry="28.99"/>
<text text-anchor="middle" x="1940.76" y="-955.19" font-family="Times,serif" font-size="14.00" fill="gray">Fossology</text>
<text text-anchor="middle" x="1940.76" y="-938.69" font-family="Times,serif" font-size="14.00" fill="gray">2f1ca556fd830abb25ff3ac17c6a7415</text>
</g>
<!-- 28183&#45;&gt;28184 -->
<g id="edge23" class="edge">
<title>28183&#45;&gt;28184</title>
<path fill="none" stroke="#e18745" d="M1918.87,-922.94C1897.68,-896.69 1881.5,-886.02 1830.27,-864.98"/>
<polygon fill="#e18745" stroke="#e18745" points="1831.9,-861.86 1821.32,-861.34 1829.27,-868.35 1831.9,-861.86"/>
</g>
<!-- 35290 -->
<g id="node17" class="node">
<title>35290</title>
<ellipse fill="none" stroke="#e06f45" cx="2043.75" cy="-612.12" rx="159.81" ry="28.99"/>
<text text-anchor="middle" x="2043.75" y="-615.32" font-family="Times,serif" font-size="14.00" fill="gray">OrtLicenseCategorization</text>
<text text-anchor="middle" x="2043.75" y="-598.82" font-family="Times,serif" font-size="14.00" fill="gray">e485e78330e4905ed5c71e8ed1a71921</text>
</g>
<!-- 35290&#45;&gt;4583 -->
<g id="edge24" class="edge">
<title>35290&#45;&gt;4583</title>
<path fill="none" stroke="#e06f45" d="M1961.93,-637.32C1909.44,-654.31 1860.54,-672.8 1717.35,-728.04"/>
<polygon fill="#e06f45" stroke="#e06f45" points="1716.36,-724.67 1708.29,-731.54 1718.88,-731.2 1716.36,-724.67"/>
</g>
<!-- 36776 -->
<g id="node18" class="node">
<title>36776</title>
<ellipse fill="none" stroke="#379469" cx="1264.02" cy="-29.37" rx="159.28" ry="28.99"/>
<text text-anchor="middle" x="1264.02" y="-32.57" font-family="Times,serif" font-size="14.00" fill="gray">CavilLicenseChange</text>
<text text-anchor="middle" x="1264.02" y="-16.07" font-family="Times,serif" font-size="14.00" fill="gray">22a721b3f7cc61e48356c9da7b929b90</text>
</g>
<!-- 36776&#45;&gt;36777 -->
<g id="edge25" class="edge">
<title>36776&#45;&gt;36777</title>
<path fill="none" stroke="#379469" d="M1288.71,-58.33C1351.59,-133.28 1358.95,-157.89 1398.54,-356.16"/>
<polygon fill="#379469" stroke="#379469" points="1395.07,-356.68 1400.46,-365.8 1401.94,-355.31 1395.07,-356.68"/>
</g>
<!-- 41567 -->
<g id="node20" class="node">
<title>41567</title>
<ellipse fill="none" stroke="#00876c" cx="1045.02" cy="-1378.68" rx="157.68" ry="28.99"/>
<text text-anchor="middle" x="1045.02" y="-1381.88" font-family="Times,serif" font-size="14.00" fill="gray">MetaeffektLicense</text>
<text text-anchor="middle" x="1045.02" y="-1365.38" font-family="Times,serif" font-size="14.00" fill="gray">276f8bbf2cb6a426aa003024a063b29c</text>
</g>
<!-- 41567&#45;&gt;41568 -->
<g id="edge26" class="edge">
<title>41567&#45;&gt;41568</title>
<path fill="none" stroke="#00876c" d="M1083.97,-1350.29C1179.16,-1279.6 1192.05,-1253.22 1269.55,-1040.91"/>
<polygon fill="#00876c" stroke="#00876c" points="1272.75,-1042.34 1272.89,-1031.75 1266.18,-1039.94 1272.75,-1042.34"/>
</g>
<!-- 41569 -->
<g id="node22" class="node">
<title>41569</title>
<polygon fill="none" stroke="#00876c" points="1392.28,-1529.35 1392.28,-1544.26 1287.68,-1554.8 1139.76,-1554.8 1035.15,-1544.26 1035.15,-1529.35 1139.76,-1518.8 1287.68,-1518.8 1392.28,-1529.35"/>
<polygon fill="none" stroke="#00876c" points="1396.28,-1525.73 1396.28,-1547.88 1287.88,-1558.8 1139.55,-1558.8 1031.15,-1547.88 1031.15,-1525.73 1139.55,-1514.8 1287.88,-1514.8 1396.28,-1525.73"/>
<text text-anchor="middle" x="1213.72" y="-1531.75" font-family="Times,serif" font-size="14.00">metaeffekt:Etalab Open License 2.0 (FR)</text>
</g>
<!-- 41569&#45;&gt;41568 -->
<g id="edge27" class="edge">
<title>41569&#45;&gt;41568</title>
<path fill="none" stroke="#00876c" stroke-width="2" d="M1224.27,-1514.63C1291.63,-1372.5 1293.35,-1353.05 1282.73,-1040.81"/>
<polygon fill="#00876c" stroke="#00876c" stroke-width="2" points="1282.44,-1032.49 1287.28,-1042.33 1283.03,-1035.04 1283.28,-1042.47 1282.79,-1042.49 1282.29,-1042.51 1282.03,-1035.07 1278.29,-1042.64 1282.44,-1032.49"/>
</g>
<!-- 41570 -->
<g id="node23" class="node">
<title>41570</title>
<polygon fill="none" stroke="#00876c" points="1270.68,-1993.83 1270.68,-2008.74 1193.01,-2019.28 1083.17,-2019.28 1005.51,-2008.74 1005.51,-1993.83 1083.17,-1983.28 1193.01,-1983.28 1270.68,-1993.83"/>
<polygon fill="none" stroke="#00876c" points="1274.68,-1990.33 1274.68,-2012.23 1193.28,-2023.28 1082.9,-2023.28 1001.51,-2012.23 1001.51,-1990.33 1082.9,-1979.28 1193.28,-1979.28 1274.68,-1990.33"/>
<text text-anchor="middle" x="1138.09" y="-1996.23" font-family="Times,serif" font-size="14.00">Etalab Open License 2.0 (FR)</text>
</g>
<!-- 41570&#45;&gt;41569 -->
<g id="edge28" class="edge">
<title>41570&#45;&gt;41569</title>
<path fill="none" stroke="#00876c" stroke-width="2" d="M1145.24,-1979.02C1181.29,-1866.25 1184.18,-1845.89 1210.55,-1570.02"/>
<polygon fill="#00876c" stroke="#00876c" stroke-width="2" points="1211.34,-1561.68 1214.87,-1572.06 1211.6,-1564.28 1210.89,-1571.68 1210.39,-1571.63 1209.9,-1571.59 1210.6,-1564.18 1205.91,-1571.21 1211.34,-1561.68"/>
</g>
<!-- 41571 -->
<g id="node24" class="node">
<title>41571</title>
<polygon fill="none" stroke="#00876c" points="1062.38,-1099.03 1062.38,-1113.94 1040.53,-1124.48 1009.63,-1124.48 987.78,-1113.94 987.78,-1099.03 1009.63,-1088.48 1040.53,-1088.48 1062.38,-1099.03"/>
<text text-anchor="middle" x="1025.08" y="-1101.43" font-family="Times,serif" font-size="14.00">Etalab</text>
</g>
<!-- 41571&#45;&gt;41568 -->
<g id="edge29" class="edge">
<title>41571&#45;&gt;41568</title>
<path fill="none" stroke="#00876c" stroke-dasharray="5,2" d="M1062.8,-1105.48C1169.36,-1102.27 1188.91,-1096.21 1250.83,-1037.57"/>
<polygon fill="#00876c" stroke="#00876c" points="1257.72,-1031 1253.59,-1041.16 1254.99,-1033.61 1250.49,-1037.9 1250.49,-1037.9 1250.49,-1037.9 1254.99,-1033.61 1247.38,-1034.65 1257.72,-1031"/>
</g>
<!-- 41572 -->
<g id="node25" class="node">
<title>41572</title>
<polygon fill="none" stroke="#00876c" points="1061.7,-1305.56 1061.7,-1320.48 912.64,-1331.02 701.84,-1331.02 552.78,-1320.48 552.78,-1305.56 701.84,-1295.02 912.64,-1295.02 1061.7,-1305.56"/>
<text text-anchor="middle" x="807.24" y="-1307.97" font-family="Times,serif" font-size="14.00">See https://www.etalab.gouv.fr/licence&#45;ouverte&#45;open&#45;licence</text>
</g>
<!-- 41572&#45;&gt;41568 -->
<g id="edge30" class="edge">
<title>41572&#45;&gt;41568</title>
<path fill="none" stroke="#00876c" stroke-dasharray="5,2" d="M871.03,-1294.54C991.27,-1258.02 1026.61,-1230.37 1247.57,-1037.56"/>
<polygon fill="#00876c" stroke="#00876c" points="1254.93,-1031.14 1250.36,-1041.1 1252.08,-1033.62 1247.4,-1037.71 1247.4,-1037.71 1247.4,-1037.71 1252.08,-1033.62 1244.44,-1034.32 1254.93,-1031.14"/>
</g>
<!-- 41574 -->
<g id="node26" class="node">
<title>41574</title>
<polygon fill="none" stroke="#00876c" points="1453.3,-1348.55 1453.3,-1363.46 1396.73,-1374 1316.72,-1374 1260.15,-1363.46 1260.15,-1348.55 1316.72,-1338 1396.73,-1338 1453.3,-1348.55"/>
<text text-anchor="middle" x="1356.72" y="-1350.95" font-family="Times,serif" font-size="14.00">Licence Ouverte 2.0.</text>
</g>
<!-- 41574&#45;&gt;41568 -->
<g id="edge31" class="edge">
<title>41574&#45;&gt;41568</title>
<path fill="none" stroke="#00876c" stroke-dasharray="5,2" d="M1359.08,-1337.52C1372.07,-1233.91 1368.84,-1218.76 1295.07,-1040.37"/>
<polygon fill="#00876c" stroke="#00876c" points="1291.28,-1031.2 1299.26,-1038.72 1292.72,-1034.7 1295.1,-1040.44 1295.1,-1040.44 1295.1,-1040.44 1292.72,-1034.7 1290.94,-1042.16 1291.28,-1031.2"/>
</g>
<!-- 50086 -->
<g id="node27" class="node">
<title>50086</title>
<ellipse fill="none" stroke="#dc574a" cx="2073.01" cy="-815.52" rx="156.09" ry="28.99"/>
<text text-anchor="middle" x="2073.01" y="-818.72" font-family="Times,serif" font-size="14.00" fill="gray">HermineLicense</text>
<text text-anchor="middle" x="2073.01" y="-802.22" font-family="Times,serif" font-size="14.00" fill="gray">0ed8ddebf3504440b96c1e8fcbf9c152</text>
</g>
<!-- 50086&#45;&gt;4583 -->
<g id="edge32" class="edge">
<title>50086&#45;&gt;4583</title>
<path fill="none" stroke="#dc574a" d="M2009.39,-788.67C1944.49,-763.49 1901.78,-759.02 1745.77,-755.08"/>
<polygon fill="#dc574a" stroke="#dc574a" points="1745.93,-751.59 1735.85,-754.84 1745.76,-758.58 1745.93,-751.59"/>
</g>
</g>
</svg>
