<?xml version="1.0" encoding="UTF-8" standalone="no"?>
<!DOCTYPE svg PUBLIC "-//W3C//DTD SVG 1.1//EN"
 "http://www.w3.org/Graphics/SVG/1.1/DTD/svg11.dtd">
<!-- Generated by graphviz version 10.0.1 (0)
 -->
<!-- Pages: 1 -->
<svg width="1855pt" height="1735pt"
 viewBox="0.00 0.00 1855.00 1735.00" xmlns="http://www.w3.org/2000/svg" xmlns:xlink="http://www.w3.org/1999/xlink">
<g id="graph0" class="graph" transform="scale(1 1) rotate(0) translate(4 1731)">
<polygon fill="white" stroke="none" points="-4,4 -4,-1731 1851,-1731 1851,4 -4,4"/>
<!-- 1716 -->
<g id="node1" class="node">
<title>1716</title>
<ellipse fill="none" stroke="#b8bf62" cx="154.11" cy="-775.46" rx="153.97" ry="28.99"/>
<text text-anchor="middle" x="154.11" y="-778.66" font-family="Times,serif" font-size="14.00" fill="gray">SPDXLicense</text>
<text text-anchor="middle" x="154.11" y="-762.16" font-family="Times,serif" font-size="14.00" fill="gray">ed718f1ffb70bc74bddde958f0b60f4c</text>
</g>
<!-- 1717 -->
<g id="node2" class="node">
<title>1717</title>
<polygon fill="none" stroke="black" points="672.65,-820.63 672.65,-835.54 616.4,-846.09 536.85,-846.09 480.6,-835.54 480.6,-820.63 536.85,-810.09 616.4,-810.09 672.65,-820.63"/>
<polygon fill="none" stroke="black" points="676.65,-817.31 676.65,-838.86 616.77,-850.09 536.48,-850.09 476.6,-838.86 476.6,-817.31 536.48,-806.09 616.77,-806.09 676.65,-817.31"/>
<polygon fill="none" stroke="black" points="680.65,-813.99 680.65,-842.18 617.14,-854.09 536.11,-854.09 472.6,-842.18 472.6,-813.99 536.11,-802.09 617.14,-802.09 680.65,-813.99"/>
<text text-anchor="middle" x="576.62" y="-823.04" font-family="Times,serif" font-size="14.00">spdx:Frameworx&#45;1.0</text>
</g>
<!-- 1716&#45;&gt;1717 -->
<g id="edge1" class="edge">
<title>1716&#45;&gt;1717</title>
<path fill="none" stroke="#b8bf62" d="M281.28,-792.17C321.33,-797.22 371.08,-803.28 461.19,-814.16"/>
<polygon fill="#b8bf62" stroke="#b8bf62" points="460.53,-817.61 470.88,-815.33 461.37,-810.66 460.53,-817.61"/>
</g>
<!-- 5034 -->
<g id="node6" class="node">
<title>5034</title>
<polygon fill="none" stroke="black" points="676.71,-980.81 676.71,-995.72 624.68,-1006.26 551.1,-1006.26 499.07,-995.72 499.07,-980.81 551.1,-970.26 624.68,-970.26 676.71,-980.81"/>
<polygon fill="none" stroke="black" points="680.71,-977.54 680.71,-998.99 625.08,-1010.26 550.7,-1010.26 495.07,-998.99 495.07,-977.54 550.7,-966.26 625.08,-966.26 680.71,-977.54"/>
<text text-anchor="middle" x="587.89" y="-983.21" font-family="Times,serif" font-size="14.00">osi:Frameworx&#45;1.0</text>
</g>
<!-- 1717&#45;&gt;5034 -->
<g id="edge2" class="edge">
<title>1717&#45;&gt;5034</title>
<path fill="none" stroke="#78ab63" stroke-width="2" d="M568.51,-854.5C554.24,-902.31 554.11,-916.48 572.27,-955.99"/>
<polygon fill="#78ab63" stroke="#78ab63" stroke-width="2" points="575.95,-963.8 567.62,-956.67 574.4,-961.7 571.23,-954.97 571.69,-954.76 572.14,-954.54 575.31,-961.27 575.76,-952.84 575.95,-963.8"/>
</g>
<!-- 6380 -->
<g id="node9" class="node">
<title>6380</title>
<polygon fill="none" stroke="#e09d4b" points="820.82,-466.56 820.82,-481.47 759.38,-492.01 672.49,-492.01 611.05,-481.47 611.05,-466.56 672.49,-456.01 759.38,-456.01 820.82,-466.56"/>
<polygon fill="none" stroke="#e09d4b" points="824.82,-463.19 824.82,-484.84 759.72,-496.01 672.15,-496.01 607.05,-484.84 607.05,-463.19 672.15,-452.01 759.72,-452.01 824.82,-463.19"/>
<text text-anchor="middle" x="715.93" y="-468.96" font-family="Times,serif" font-size="14.00">Fedora:Frameworx&#45;1.0</text>
</g>
<!-- 1717&#45;&gt;6380 -->
<g id="edge3" class="edge">
<title>1717&#45;&gt;6380</title>
<path fill="none" stroke="#e09d4b" stroke-width="2" d="M577.73,-801.71C585.37,-621.56 590.3,-601.72 686.24,-503.99"/>
<polygon fill="#e09d4b" stroke="#e09d4b" stroke-width="2" points="692.21,-497.93 688.4,-508.21 690.77,-500.1 685.55,-505.4 685.19,-505.05 684.84,-504.7 690.06,-499.4 681.99,-501.89 692.21,-497.93"/>
</g>
<!-- 42024 -->
<g id="node23" class="node">
<title>42024</title>
<polygon fill="none" stroke="#00876c" points="1025.19,-1236.01 1025.19,-1250.92 935.19,-1261.47 807.91,-1261.47 717.91,-1250.92 717.91,-1236.01 807.91,-1225.47 935.19,-1225.47 1025.19,-1236.01"/>
<polygon fill="none" stroke="#00876c" points="1029.19,-1232.45 1029.19,-1254.48 935.42,-1265.47 807.68,-1265.47 713.91,-1254.48 713.91,-1232.45 807.68,-1221.47 935.42,-1221.47 1029.19,-1232.45"/>
<text text-anchor="middle" x="871.55" y="-1238.42" font-family="Times,serif" font-size="14.00">metaeffekt:Frameworx License 1.0</text>
</g>
<!-- 1717&#45;&gt;42024 -->
<g id="edge4" class="edge">
<title>1717&#45;&gt;42024</title>
<path fill="none" stroke="#00876c" stroke-width="2" d="M583.41,-854.52C642.5,-1084.14 653.06,-1105.06 826.59,-1215.14"/>
<polygon fill="#00876c" stroke="#00876c" stroke-width="2" points="834,-1219.83 823.15,-1218.28 831.57,-1218.88 825.29,-1214.9 825.55,-1214.48 825.82,-1214.06 832.1,-1218.04 827.96,-1210.68 834,-1219.83"/>
</g>
<!-- 1718 -->
<g id="node3" class="node">
<title>1718</title>
<polygon fill="none" stroke="black" points="964.1,-792.14 964.1,-807.05 920.5,-817.59 858.85,-817.59 815.26,-807.05 815.26,-792.14 858.85,-781.59 920.5,-781.59 964.1,-792.14"/>
<polygon fill="none" stroke="black" points="968.1,-788.99 968.1,-810.2 920.98,-821.59 858.38,-821.59 811.26,-810.2 811.26,-788.99 858.38,-777.59 920.98,-777.59 968.1,-788.99"/>
<text text-anchor="middle" x="889.68" y="-794.54" font-family="Times,serif" font-size="14.00">Frameworx&#45;1.0</text>
</g>
<!-- 1718&#45;&gt;1717 -->
<g id="edge5" class="edge">
<title>1718&#45;&gt;1717</title>
<path fill="none" stroke="black" stroke-width="2" d="M810.96,-799.09C730.99,-798.78 692.84,-799.81 659.61,-805.55"/>
<polygon fill="black" stroke="black" stroke-width="2" points="651.34,-807.12 660.32,-800.83 653.76,-806.15 661.07,-804.76 661.16,-805.25 661.25,-805.74 653.95,-807.13 662,-809.67 651.34,-807.12"/>
</g>
<!-- 1718&#45;&gt;5034 -->
<g id="edge6" class="edge">
<title>1718&#45;&gt;5034</title>
<path fill="none" stroke="black" stroke-width="2" d="M848.18,-819.48C694.72,-893.13 668.44,-907.75 617.38,-958.32"/>
<polygon fill="black" stroke="black" stroke-width="2" points="611.37,-964.33 615.26,-954.08 612.83,-962.16 618.09,-956.9 618.44,-957.26 618.79,-957.61 613.54,-962.87 621.62,-960.44 611.37,-964.33"/>
</g>
<!-- 1718&#45;&gt;6380 -->
<g id="edge7" class="edge">
<title>1718&#45;&gt;6380</title>
<path fill="none" stroke="#e09d4b" stroke-width="2" d="M877.8,-777.32C782,-597.68 768.54,-572.44 733.11,-506.15"/>
<polygon fill="#e09d4b" stroke="#e09d4b" stroke-width="2" points="729.1,-498.65 737.79,-505.35 730.75,-500.68 734.26,-507.24 733.82,-507.47 733.38,-507.71 729.87,-501.15 729.85,-509.59 729.1,-498.65"/>
</g>
<!-- 15507 -->
<g id="node12" class="node">
<title>15507</title>
<polygon fill="none" stroke="black" points="1388.04,-953.89 1388.04,-968.81 1322.7,-979.35 1230.31,-979.35 1164.97,-968.81 1164.97,-953.89 1230.31,-943.35 1322.7,-943.35 1388.04,-953.89"/>
<polygon fill="none" stroke="black" points="1392.04,-950.49 1392.04,-972.21 1323.02,-983.35 1229.99,-983.35 1160.97,-972.21 1160.97,-950.49 1229.99,-939.35 1323.02,-939.35 1392.04,-950.49"/>
<text text-anchor="middle" x="1276.5" y="-956.3" font-family="Times,serif" font-size="14.00">scancode:frameworx&#45;1.0</text>
</g>
<!-- 1718&#45;&gt;15507 -->
<g id="edge8" class="edge">
<title>1718&#45;&gt;15507</title>
<path fill="none" stroke="black" stroke-width="2" d="M942.69,-816.79C1130.52,-877.82 1165.98,-890.96 1232.73,-933.02"/>
<polygon fill="black" stroke="black" stroke-width="2" points="1239.87,-937.56 1229.02,-935.99 1237.44,-936.61 1231.17,-932.62 1231.43,-932.19 1231.7,-931.77 1237.98,-935.76 1233.85,-928.4 1239.87,-937.56"/>
</g>
<!-- 26049 -->
<g id="node16" class="node">
<title>26049</title>
<polygon fill="none" stroke="#e18745" points="1175.7,-1129.11 1175.7,-1144.02 1107.76,-1154.57 1011.7,-1154.57 943.76,-1144.02 943.76,-1129.11 1011.7,-1118.57 1107.76,-1118.57 1175.7,-1129.11"/>
<polygon fill="none" stroke="#e18745" points="1179.7,-1125.69 1179.7,-1147.45 1108.07,-1158.57 1011.39,-1158.57 939.76,-1147.45 939.76,-1125.69 1011.39,-1114.57 1108.07,-1114.57 1179.7,-1125.69"/>
<text text-anchor="middle" x="1059.73" y="-1131.52" font-family="Times,serif" font-size="14.00">fossology:Frameworx&#45;1.0</text>
</g>
<!-- 1718&#45;&gt;26049 -->
<g id="edge9" class="edge">
<title>1718&#45;&gt;26049</title>
<path fill="none" stroke="#e18745" stroke-width="2" d="M900.91,-822.04C994.95,-1010 1007.64,-1035.29 1043.33,-1104.7"/>
<polygon fill="#e18745" stroke="#e18745" stroke-width="2" points="1047.17,-1112.17 1038.6,-1105.33 1045.55,-1110.12 1042.15,-1103.5 1042.6,-1103.27 1043.04,-1103.05 1046.44,-1109.66 1046.6,-1101.22 1047.17,-1112.17"/>
</g>
<!-- 36797 -->
<g id="node21" class="node">
<title>36797</title>
<polygon fill="none" stroke="#379469" points="1188.3,-482.43 1188.3,-497.34 1131.72,-507.89 1051.72,-507.89 995.14,-497.34 995.14,-482.43 1051.72,-471.89 1131.72,-471.89 1188.3,-482.43"/>
<polygon fill="none" stroke="#379469" points="1192.3,-479.11 1192.3,-500.66 1132.09,-511.89 1051.35,-511.89 991.14,-500.66 991.14,-479.11 1051.35,-467.89 1132.09,-467.89 1192.3,-479.11"/>
<text text-anchor="middle" x="1091.72" y="-484.84" font-family="Times,serif" font-size="14.00">cavil:Frameworx&#45;1.0</text>
</g>
<!-- 1718&#45;&gt;36797 -->
<g id="edge10" class="edge">
<title>1718&#45;&gt;36797</title>
<path fill="none" stroke="#379469" stroke-width="2" d="M901.84,-777.24C997.01,-602.42 1012.27,-575.88 1063.39,-520.18"/>
<polygon fill="#379469" stroke="#379469" stroke-width="2" points="1069.2,-513.9 1065.71,-524.3 1067.83,-516.12 1062.78,-521.58 1062.41,-521.24 1062.04,-520.91 1067.09,-515.44 1059.11,-518.19 1069.2,-513.9"/>
</g>
<!-- 1719 -->
<g id="node4" class="node">
<title>1719</title>
<polygon fill="none" stroke="black" points="714.01,-1175.66 714.01,-1190.57 636.67,-1201.11 527.29,-1201.11 449.95,-1190.57 449.95,-1175.66 527.29,-1165.11 636.67,-1165.11 714.01,-1175.66"/>
<polygon fill="none" stroke="black" points="718.01,-1172.16 718.01,-1194.06 636.94,-1205.11 527.02,-1205.11 445.95,-1194.06 445.95,-1172.16 527.02,-1161.11 636.94,-1161.11 718.01,-1172.16"/>
<text text-anchor="middle" x="581.98" y="-1178.06" font-family="Times,serif" font-size="14.00">Frameworx Open License 1.0</text>
</g>
<!-- 1719&#45;&gt;1717 -->
<g id="edge11" class="edge">
<title>1719&#45;&gt;1717</title>
<path fill="none" stroke="#b8bf62" stroke-width="2" d="M571.92,-1160.92C517.77,-1040.88 516.78,-1024.02 565.26,-865.12"/>
<polygon fill="#b8bf62" stroke="#b8bf62" stroke-width="2" points="567.81,-856.78 569.19,-867.66 567.54,-859.38 565.36,-866.49 564.88,-866.34 564.41,-866.2 566.58,-859.08 560.58,-865.03 567.81,-856.78"/>
</g>
<!-- 1719&#45;&gt;26049 -->
<g id="edge12" class="edge">
<title>1719&#45;&gt;26049</title>
<path fill="none" stroke="#e18745" stroke-width="2" d="M647.62,-1204.12C779.48,-1244.73 815.01,-1238.82 997.63,-1162.67"/>
<polygon fill="#e18745" stroke="#e18745" stroke-width="2" points="1005.61,-1159.33 998.12,-1167.34 1003.44,-1160.78 996.58,-1163.65 996.39,-1163.19 996.19,-1162.73 1003.05,-1159.86 994.65,-1159.03 1005.61,-1159.33"/>
</g>
<!-- 5033 -->
<g id="node5" class="node">
<title>5033</title>
<ellipse fill="none" stroke="#78ab63" cx="170.06" cy="-1106.01" rx="157.68" ry="28.99"/>
<text text-anchor="middle" x="170.06" y="-1109.21" font-family="Times,serif" font-size="14.00" fill="gray">OSILicense</text>
<text text-anchor="middle" x="170.06" y="-1092.71" font-family="Times,serif" font-size="14.00" fill="gray">e9975f9191574c7e5859f764e1a6d3cd</text>
</g>
<!-- 5033&#45;&gt;5034 -->
<g id="edge13" class="edge">
<title>5033&#45;&gt;5034</title>
<path fill="none" stroke="#78ab63" d="M264.44,-1082.35C317.35,-1068.47 371.67,-1052.55 517.33,-1009.25"/>
<polygon fill="#78ab63" stroke="#78ab63" points="517.93,-1012.72 526.52,-1006.52 515.94,-1006.01 517.93,-1012.72"/>
</g>
<!-- 5034&#45;&gt;42024 -->
<g id="edge14" class="edge">
<title>5034&#45;&gt;42024</title>
<path fill="none" stroke="#00876c" stroke-dasharray="5,2" d="M599.29,-1010.73C670.47,-1150.75 686.88,-1174.41 799.01,-1217.12"/>
<polygon fill="#00876c" stroke="#00876c" points="808.29,-1220.61 797.34,-1221.3 804.75,-1219.28 798.93,-1217.09 798.93,-1217.09 798.93,-1217.09 804.75,-1219.28 800.52,-1212.88 808.29,-1220.61"/>
</g>
<!-- 5035 -->
<g id="node7" class="node">
<title>5035</title>
<polygon fill="none" stroke="black" points="552.71,-1276.96 552.71,-1291.87 468.87,-1302.41 350.32,-1302.41 266.48,-1291.87 266.48,-1276.96 350.32,-1266.41 468.87,-1266.41 552.71,-1276.96"/>
<polygon fill="none" stroke="black" points="556.71,-1273.43 556.71,-1295.4 469.12,-1306.41 350.07,-1306.41 262.48,-1295.4 262.48,-1273.43 350.07,-1262.41 469.12,-1262.41 556.71,-1273.43"/>
<text text-anchor="middle" x="409.59" y="-1279.36" font-family="Times,serif" font-size="14.00">Frameworx License, Version 1.0</text>
</g>
<!-- 5035&#45;&gt;5034 -->
<g id="edge15" class="edge">
<title>5035&#45;&gt;5034</title>
<path fill="none" stroke="#78ab63" stroke-width="2" d="M415.89,-1262.03C439.72,-1178.41 449.9,-1162.19 563.32,-1019.2"/>
<polygon fill="#78ab63" stroke="#78ab63" stroke-width="2" points="568.71,-1012.41 566.02,-1023.04 567.51,-1014.73 562.89,-1020.56 562.49,-1020.25 562.1,-1019.94 566.73,-1014.11 558.97,-1017.45 568.71,-1012.41"/>
</g>
<!-- 5035&#45;&gt;42024 -->
<g id="edge16" class="edge">
<title>5035&#45;&gt;42024</title>
<path fill="none" stroke="#00876c" stroke-dasharray="5,2" d="M479.58,-1305.57C580.32,-1333.78 620.57,-1327.4 795.22,-1269.17"/>
<polygon fill="#00876c" stroke="#00876c" points="804.66,-1266.02 796.6,-1273.46 801.08,-1267.22 795.18,-1269.19 795.18,-1269.19 795.18,-1269.19 801.08,-1267.22 793.75,-1264.92 804.66,-1266.02"/>
</g>
<!-- 6379 -->
<g id="node8" class="node">
<title>6379</title>
<ellipse fill="none" stroke="#e09d4b" cx="718.21" cy="-28.96" rx="157.15" ry="28.99"/>
<text text-anchor="middle" x="718.21" y="-32.16" font-family="Times,serif" font-size="14.00" fill="gray">FedoraEntry</text>
<text text-anchor="middle" x="718.21" y="-15.66" font-family="Times,serif" font-size="14.00" fill="gray">389e121069eb548f87227ef382cf5d25</text>
</g>
<!-- 6379&#45;&gt;6380 -->
<g id="edge17" class="edge">
<title>6379&#45;&gt;6380</title>
<path fill="none" stroke="#e09d4b" d="M711.96,-58.33C689.74,-164.38 690.59,-188.59 712.94,-440.35"/>
<polygon fill="#e09d4b" stroke="#e09d4b" points="709.45,-440.57 713.82,-450.23 716.42,-439.96 709.45,-440.57"/>
</g>
<!-- 6381 -->
<g id="node10" class="node">
<title>6381</title>
<polygon fill="none" stroke="#e09d4b" points="629.68,-149.49 629.68,-164.4 575.71,-174.95 499.37,-174.95 445.39,-164.4 445.39,-149.49 499.37,-138.95 575.71,-138.95 629.68,-149.49"/>
<text text-anchor="middle" x="537.54" y="-151.9" font-family="Times,serif" font-size="14.00">Frameworx License</text>
</g>
<!-- 6381&#45;&gt;6380 -->
<g id="edge18" class="edge">
<title>6381&#45;&gt;6380</title>
<path fill="none" stroke="#e09d4b" stroke-dasharray="5,2" d="M548.02,-175.11C590.26,-248.35 599.6,-264.99 698.15,-442.06"/>
<polygon fill="#e09d4b" stroke="#e09d4b" points="702.93,-450.66 694.14,-444.11 701.09,-447.35 698.07,-441.92 698.07,-441.92 698.07,-441.92 701.09,-447.35 702,-439.73 702.93,-450.66"/>
</g>
<!-- 15506 -->
<g id="node11" class="node">
<title>15506</title>
<ellipse fill="none" stroke="#dac767" cx="1691.65" cy="-822.78" rx="155.56" ry="28.99"/>
<text text-anchor="middle" x="1691.65" y="-825.98" font-family="Times,serif" font-size="14.00" fill="gray">ScancodeData</text>
<text text-anchor="middle" x="1691.65" y="-809.48" font-family="Times,serif" font-size="14.00" fill="gray">7929e5449d913bf9e922fc7c82fee5de</text>
</g>
<!-- 15506&#45;&gt;15507 -->
<g id="edge19" class="edge">
<title>15506&#45;&gt;15507</title>
<path fill="none" stroke="#dac767" d="M1645.27,-850.87C1575.81,-891.66 1538.85,-903.17 1366.11,-941.59"/>
<polygon fill="#dac767" stroke="#dac767" points="1365.56,-938.12 1356.56,-943.71 1367.08,-944.96 1365.56,-938.12"/>
</g>
<!-- 15507&#45;&gt;42024 -->
<g id="edge20" class="edge">
<title>15507&#45;&gt;42024</title>
<path fill="none" stroke="#00876c" stroke-dasharray="5,2" d="M1261.65,-983.6C1146.89,-1155.26 1123.41,-1182.69 968.58,-1220.98"/>
<polygon fill="#00876c" stroke="#00876c" points="958.88,-1223.35 967.53,-1216.6 962.56,-1222.45 968.6,-1220.97 968.6,-1220.97 968.6,-1220.97 962.56,-1222.45 969.67,-1225.35 958.88,-1223.35"/>
</g>
<!-- 15508 -->
<g id="node13" class="node">
<title>15508</title>
<polygon fill="none" stroke="black" points="1341.01,-1193.17 1341.01,-1208.08 1297.74,-1218.62 1236.55,-1218.62 1193.28,-1208.08 1193.28,-1193.17 1236.55,-1182.62 1297.74,-1182.62 1341.01,-1193.17"/>
<polygon fill="none" stroke="black" points="1345.01,-1190.02 1345.01,-1211.22 1298.22,-1222.62 1236.07,-1222.62 1189.28,-1211.22 1189.28,-1190.02 1236.07,-1178.62 1298.22,-1178.62 1345.01,-1190.02"/>
<text text-anchor="middle" x="1267.14" y="-1195.57" font-family="Times,serif" font-size="14.00">Frameworx 1.0</text>
</g>
<!-- 15508&#45;&gt;15507 -->
<g id="edge21" class="edge">
<title>15508&#45;&gt;15507</title>
<path fill="none" stroke="#dac767" stroke-width="2" d="M1277.82,-1178.25C1309.06,-1111.91 1309.56,-1096.47 1284.71,-994.59"/>
<polygon fill="#dac767" stroke="#dac767" stroke-width="2" points="1282.64,-986.15 1289.39,-994.79 1283.73,-988.52 1285.5,-995.74 1285.02,-995.86 1284.53,-995.98 1282.76,-988.76 1280.65,-996.94 1282.64,-986.15"/>
</g>
<!-- 15508&#45;&gt;42024 -->
<g id="edge22" class="edge">
<title>15508&#45;&gt;42024</title>
<path fill="none" stroke="#00876c" stroke-dasharray="5,2" d="M1230.27,-1221.43C1122.38,-1281.75 1091.41,-1290.37 970.04,-1265.42"/>
<polygon fill="#00876c" stroke="#00876c" points="960.39,-1263.4 971.1,-1261.04 964.09,-1264.18 970.18,-1265.45 970.18,-1265.45 970.18,-1265.45 964.09,-1264.18 969.26,-1269.85 960.39,-1263.4"/>
</g>
<!-- 15509 -->
<g id="node14" class="node">
<title>15509</title>
<polygon fill="none" stroke="#dac767" points="1820.91,-1045.24 1820.91,-1060.15 1740.65,-1070.7 1627.14,-1070.7 1546.88,-1060.15 1546.88,-1045.24 1627.14,-1034.7 1740.65,-1034.7 1820.91,-1045.24"/>
<polygon fill="none" stroke="#dac767" points="1824.91,-1041.73 1824.91,-1063.66 1740.91,-1074.7 1626.88,-1074.7 1542.88,-1063.66 1542.88,-1041.73 1626.88,-1030.7 1740.91,-1030.7 1824.91,-1041.73"/>
<text text-anchor="middle" x="1683.9" y="-1047.65" font-family="Times,serif" font-size="14.00">Frameworx Open License v1.0</text>
</g>
<!-- 15509&#45;&gt;15507 -->
<g id="edge23" class="edge">
<title>15509&#45;&gt;15507</title>
<path fill="none" stroke="#dac767" stroke-width="2" d="M1594.8,-1034.44C1544.75,-1023.84 1494.52,-1012.28 1363.23,-981.62"/>
<polygon fill="#dac767" stroke="#dac767" stroke-width="2" points="1354.76,-979.64 1365.52,-977.53 1357.37,-979.73 1364.61,-981.43 1364.5,-981.91 1364.38,-982.4 1357.14,-980.71 1363.47,-986.3 1354.76,-979.64"/>
</g>
<!-- 26048 -->
<g id="node15" class="node">
<title>26048</title>
<ellipse fill="none" stroke="#e18745" cx="1410.41" cy="-1419.32" rx="158.75" ry="28.99"/>
<text text-anchor="middle" x="1410.41" y="-1422.52" font-family="Times,serif" font-size="14.00" fill="gray">Fossology</text>
<text text-anchor="middle" x="1410.41" y="-1406.02" font-family="Times,serif" font-size="14.00" fill="gray">a7c0e49b4920f241bb40ab7ca40be894</text>
</g>
<!-- 26048&#45;&gt;26049 -->
<g id="edge24" class="edge">
<title>26048&#45;&gt;26049</title>
<path fill="none" stroke="#e18745" d="M1361.95,-1391.29C1288.34,-1347.63 1257.64,-1320.51 1091.88,-1166.46"/>
<polygon fill="#e18745" stroke="#e18745" points="1094.7,-1164.3 1084.99,-1160.05 1089.93,-1169.43 1094.7,-1164.3"/>
</g>
<!-- 28299 -->
<g id="node17" class="node">
<title>28299</title>
<ellipse fill="none" stroke="#379469" cx="620.31" cy="-548.89" rx="151.85" ry="28.99"/>
<text text-anchor="middle" x="620.31" y="-552.09" font-family="Times,serif" font-size="14.00" fill="gray">OKFN</text>
<text text-anchor="middle" x="620.31" y="-535.59" font-family="Times,serif" font-size="14.00" fill="gray">92a6c31706ef6ffe7a203f54cfab7e5b</text>
</g>
<!-- 28299&#45;&gt;1718 -->
<g id="edge25" class="edge">
<title>28299&#45;&gt;1718</title>
<path fill="none" stroke="#379469" d="M654.87,-577.37C706.53,-620.32 730.87,-643.68 858.84,-769.31"/>
<polygon fill="#379469" stroke="#379469" points="856.35,-771.77 865.93,-776.28 861.25,-766.77 856.35,-771.77"/>
</g>
<!-- 28300 -->
<g id="node18" class="node">
<title>28300</title>
<polygon fill="none" stroke="black" points="914.2,-1123.4 914.2,-1138.31 851.14,-1148.85 761.95,-1148.85 698.89,-1138.31 698.89,-1123.4 761.95,-1112.85 851.14,-1112.85 914.2,-1123.4"/>
<polygon fill="none" stroke="black" points="918.2,-1120.01 918.2,-1141.7 851.47,-1152.85 761.62,-1152.85 694.89,-1141.7 694.89,-1120.01 761.62,-1108.85 851.47,-1108.85 918.2,-1120.01"/>
<text text-anchor="middle" x="806.54" y="-1125.8" font-family="Times,serif" font-size="14.00">Frameworx License 1.0</text>
</g>
<!-- 28300&#45;&gt;1718 -->
<g id="edge26" class="edge">
<title>28300&#45;&gt;1718</title>
<path fill="none" stroke="#379469" stroke-width="2" d="M806.76,-1108.45C807.81,-1023.95 812.78,-1006.05 877.53,-832.18"/>
<polygon fill="#379469" stroke="#379469" stroke-width="2" points="880.52,-824.16 881.24,-835.1 880.09,-826.74 877.5,-833.7 877.03,-833.53 876.56,-833.36 879.15,-826.39 872.81,-831.96 880.52,-824.16"/>
</g>
<!-- 28300&#45;&gt;42024 -->
<g id="edge27" class="edge">
<title>28300&#45;&gt;42024</title>
<path fill="none" stroke="#00876c" stroke-width="2" d="M813.71,-1153.27C823.98,-1185.06 829.77,-1200.64 838.32,-1212.56"/>
<polygon fill="#00876c" stroke="#00876c" stroke-width="2" points="843.95,-1219.29 834.09,-1214.51 841.93,-1217.65 837.15,-1211.94 837.54,-1211.62 837.92,-1211.3 842.69,-1217 840.99,-1208.73 843.95,-1219.29"/>
</g>
<!-- 28687 -->
<g id="node19" class="node">
<title>28687</title>
<ellipse fill="none" stroke="#e06f45" cx="224.52" cy="-577.71" rx="160.87" ry="28.99"/>
<text text-anchor="middle" x="224.52" y="-580.91" font-family="Times,serif" font-size="14.00" fill="gray">OrtLicenseCategorization</text>
<text text-anchor="middle" x="224.52" y="-564.41" font-family="Times,serif" font-size="14.00" fill="gray">c0921637058f84230c76498d4d24637e</text>
</g>
<!-- 28687&#45;&gt;1717 -->
<g id="edge28" class="edge">
<title>28687&#45;&gt;1717</title>
<path fill="none" stroke="#e06f45" d="M251.83,-606.73C315.13,-673.16 341.26,-690.86 522.51,-796.57"/>
<polygon fill="#e06f45" stroke="#e06f45" points="520.68,-799.55 531.08,-801.56 524.2,-793.5 520.68,-799.55"/>
</g>
<!-- 36796 -->
<g id="node20" class="node">
<title>36796</title>
<ellipse fill="none" stroke="#379469" cx="1326.44" cy="-129.45" rx="160.87" ry="28.99"/>
<text text-anchor="middle" x="1326.44" y="-132.65" font-family="Times,serif" font-size="14.00" fill="gray">CavilLicenseChange</text>
<text text-anchor="middle" x="1326.44" y="-116.15" font-family="Times,serif" font-size="14.00" fill="gray">688a150d4a73f28332885522e0993735</text>
</g>
<!-- 36796&#45;&gt;36797 -->
<g id="edge29" class="edge">
<title>36796&#45;&gt;36797</title>
<path fill="none" stroke="#379469" d="M1304.67,-158.48C1249.65,-232.17 1233.92,-257.12 1111.25,-457.92"/>
<polygon fill="#379469" stroke="#379469" points="1108.34,-455.96 1106.11,-466.32 1114.31,-459.61 1108.34,-455.96"/>
</g>
<!-- 42023 -->
<g id="node22" class="node">
<title>42023</title>
<ellipse fill="none" stroke="#00876c" cx="1179.23" cy="-871.2" rx="157.68" ry="28.99"/>
<text text-anchor="middle" x="1179.23" y="-874.4" font-family="Times,serif" font-size="14.00" fill="gray">MetaeffektLicense</text>
<text text-anchor="middle" x="1179.23" y="-857.9" font-family="Times,serif" font-size="14.00" fill="gray">afb8febdd55c286e7a5679b3472ad25d</text>
</g>
<!-- 42023&#45;&gt;42024 -->
<g id="edge30" class="edge">
<title>42023&#45;&gt;42024</title>
<path fill="none" stroke="#00876c" d="M1167.54,-900.33C1080.16,-1117.83 1065.4,-1143.26 925.41,-1215.99"/>
<polygon fill="#00876c" stroke="#00876c" points="924.18,-1212.68 916.91,-1220.38 927.4,-1218.9 924.18,-1212.68"/>
</g>
<!-- 42025 -->
<g id="node24" class="node">
<title>42025</title>
<polygon fill="none" stroke="#00876c" points="1043.39,-1573.8 1043.39,-1588.71 1009.21,-1599.26 960.87,-1599.26 926.69,-1588.71 926.69,-1573.8 960.87,-1563.26 1009.21,-1563.26 1043.39,-1573.8"/>
<text text-anchor="middle" x="985.04" y="-1576.21" font-family="Times,serif" font-size="14.00">Frameworx</text>
</g>
<!-- 42025&#45;&gt;42024 -->
<g id="edge31" class="edge">
<title>42025&#45;&gt;42024</title>
<path fill="none" stroke="#00876c" stroke-dasharray="5,2" d="M974.57,-1563C931.03,-1486.72 925.59,-1469.39 879.46,-1276.56"/>
<polygon fill="#00876c" stroke="#00876c" points="877.15,-1266.92 883.86,-1275.6 878.03,-1270.6 879.48,-1276.65 879.48,-1276.65 879.48,-1276.65 878.03,-1270.6 875.1,-1277.69 877.15,-1266.92"/>
</g>
<!-- 42026 -->
<g id="node25" class="node">
<title>42026</title>
<polygon fill="none" stroke="#00876c" points="748.43,-1598.96 748.43,-1613.87 684.4,-1624.41 593.84,-1624.41 529.8,-1613.87 529.8,-1598.96 593.84,-1588.41 684.4,-1588.41 748.43,-1598.96"/>
<text text-anchor="middle" x="639.12" y="-1601.36" font-family="Times,serif" font-size="14.00">Frameworx, Version 1.0</text>
</g>
<!-- 42026&#45;&gt;42024 -->
<g id="edge32" class="edge">
<title>42026&#45;&gt;42024</title>
<path fill="none" stroke="#00876c" stroke-dasharray="5,2" d="M655.96,-1588.17C727.78,-1510.1 738.9,-1491.84 854.34,-1275.71"/>
<polygon fill="#00876c" stroke="#00876c" points="858.98,-1267.01 858.24,-1277.95 857.2,-1270.35 854.27,-1275.83 854.27,-1275.83 854.27,-1275.83 857.2,-1270.35 850.3,-1273.71 858.98,-1267.01"/>
</g>
<!-- 42027 -->
<g id="node26" class="node">
<title>42027</title>
<polygon fill="none" stroke="#00876c" points="932.59,-1672.08 932.59,-1686.99 867.9,-1697.54 776.42,-1697.54 711.74,-1686.99 711.74,-1672.08 776.42,-1661.54 867.9,-1661.54 932.59,-1672.08"/>
<text text-anchor="middle" x="822.16" y="-1674.49" font-family="Times,serif" font-size="14.00">Frameworx License, 1.0</text>
</g>
<!-- 42027&#45;&gt;42024 -->
<g id="edge33" class="edge">
<title>42027&#45;&gt;42024</title>
<path fill="none" stroke="#00876c" stroke-dasharray="5,2" d="M824.05,-1661.24C835.32,-1552.34 837.3,-1534.95 867.64,-1276.73"/>
<polygon fill="#00876c" stroke="#00876c" points="868.78,-1267.07 872.08,-1277.52 868.34,-1270.82 867.61,-1277 867.61,-1277 867.61,-1277 868.34,-1270.82 863.14,-1276.47 868.78,-1267.07"/>
</g>
<!-- 42028 -->
<g id="node27" class="node">
<title>42028</title>
<polygon fill="none" stroke="#00876c" points="1331.18,-1701.43 1331.18,-1716.34 1221.06,-1726.88 1065.33,-1726.88 955.21,-1716.34 955.21,-1701.43 1065.33,-1690.88 1221.06,-1690.88 1331.18,-1701.43"/>
<text text-anchor="middle" x="1143.19" y="-1703.83" font-family="Times,serif" font-size="14.00">THE FRAMEWORX OPEN LICENSE 1.0</text>
</g>
<!-- 42028&#45;&gt;42024 -->
<g id="edge34" class="edge">
<title>42028&#45;&gt;42024</title>
<path fill="none" stroke="#00876c" stroke-dasharray="5,2" d="M1125.63,-1690.61C1025.18,-1585.82 1014.96,-1566.95 885.82,-1275.66"/>
<polygon fill="#00876c" stroke="#00876c" points="881.86,-1266.74 890.03,-1274.06 883.4,-1270.2 885.92,-1275.88 885.92,-1275.88 885.92,-1275.88 883.4,-1270.2 881.8,-1277.71 881.86,-1266.74"/>
</g>
</g>
</svg>
