<?xml version="1.0" encoding="UTF-8" standalone="no"?>
<!DOCTYPE svg PUBLIC "-//W3C//DTD SVG 1.1//EN"
 "http://www.w3.org/Graphics/SVG/1.1/DTD/svg11.dtd">
<!-- Generated by graphviz version 10.0.1 (0)
 -->
<!-- Pages: 1 -->
<svg width="1168pt" height="1060pt"
 viewBox="0.00 0.00 1168.00 1060.00" xmlns="http://www.w3.org/2000/svg" xmlns:xlink="http://www.w3.org/1999/xlink">
<g id="graph0" class="graph" transform="scale(1 1) rotate(0) translate(4 1056)">
<polygon fill="white" stroke="none" points="-4,4 -4,-1056 1164,-1056 1164,4 -4,4"/>
<!-- 1746 -->
<g id="node1" class="node">
<title>1746</title>
<ellipse fill="none" stroke="#b8bf62" cx="246.56" cy="-1022.85" rx="155.56" ry="28.99"/>
<text text-anchor="middle" x="246.56" y="-1026.05" font-family="Times,serif" font-size="14.00" fill="gray">SPDXLicense</text>
<text text-anchor="middle" x="246.56" y="-1009.55" font-family="Times,serif" font-size="14.00" fill="gray">7323bcc0a044553fbf8f3619954042ef</text>
</g>
<!-- 1747 -->
<g id="node2" class="node">
<title>1747</title>
<polygon fill="none" stroke="black" points="580.31,-784.08 580.31,-798.99 536.07,-809.53 473.5,-809.53 429.26,-798.99 429.26,-784.08 473.5,-773.53 536.07,-773.53 580.31,-784.08"/>
<polygon fill="none" stroke="black" points="584.31,-780.92 584.31,-802.15 536.54,-813.53 473.03,-813.53 425.26,-802.15 425.26,-780.92 473.03,-769.53 536.54,-769.53 584.31,-780.92"/>
<polygon fill="none" stroke="black" points="588.31,-777.76 588.31,-805.31 537.01,-817.53 472.56,-817.53 421.26,-805.31 421.26,-777.76 472.56,-765.53 537.01,-765.53 588.31,-777.76"/>
<text text-anchor="middle" x="504.78" y="-786.48" font-family="Times,serif" font-size="14.00">spdx:GCR&#45;docs</text>
</g>
<!-- 1746&#45;&gt;1747 -->
<g id="edge1" class="edge">
<title>1746&#45;&gt;1747</title>
<path fill="none" stroke="#b8bf62" d="M294.72,-994.91C344.57,-964.22 370.43,-938.05 473.11,-826.1"/>
<polygon fill="#b8bf62" stroke="#b8bf62" points="475.44,-828.75 479.61,-819.01 470.28,-824.02 475.44,-828.75"/>
</g>
<!-- 6392 -->
<g id="node6" class="node">
<title>6392</title>
<polygon fill="none" stroke="#e09d4b" points="662.73,-840.46 662.73,-855.37 613.3,-865.91 543.39,-865.91 493.95,-855.37 493.95,-840.46 543.39,-829.91 613.3,-829.91 662.73,-840.46"/>
<polygon fill="none" stroke="#e09d4b" points="666.73,-837.22 666.73,-858.61 613.72,-869.91 542.96,-869.91 489.95,-858.61 489.95,-837.22 542.96,-825.91 613.72,-825.91 666.73,-837.22"/>
<text text-anchor="middle" x="578.34" y="-842.86" font-family="Times,serif" font-size="14.00">Fedora:GCR&#45;docs</text>
</g>
<!-- 1747&#45;&gt;6392 -->
<g id="edge2" class="edge">
<title>1747&#45;&gt;6392</title>
<path fill="none" stroke="#e09d4b" stroke-width="2" d="M524.75,-817.97C525.15,-818.46 525.53,-818.93 525.91,-819.4"/>
<polygon fill="#e09d4b" stroke="#e09d4b" stroke-width="2" points="531.74,-825.96 521.74,-821.47 529.66,-824.38 524.73,-818.82 525.1,-818.48 525.48,-818.15 530.41,-823.72 528.47,-815.5 531.74,-825.96"/>
</g>
<!-- 42369 -->
<g id="node13" class="node">
<title>42369</title>
<polygon fill="none" stroke="#00876c" points="1113.89,-791.86 1113.89,-806.77 991.12,-817.32 817.49,-817.32 694.72,-806.77 694.72,-791.86 817.49,-781.32 991.12,-781.32 1113.89,-791.86"/>
<polygon fill="none" stroke="#00876c" points="1117.89,-788.19 1117.89,-810.44 991.29,-821.32 817.32,-821.32 690.72,-810.44 690.72,-788.19 817.32,-777.32 991.29,-777.32 1117.89,-788.19"/>
<text text-anchor="middle" x="904.31" y="-794.27" font-family="Times,serif" font-size="14.00">metaeffekt:Gnome GCR Documentation License</text>
</g>
<!-- 1747&#45;&gt;42369 -->
<g id="edge3" class="edge">
<title>1747&#45;&gt;42369</title>
<path fill="none" stroke="#00876c" stroke-width="2" d="M565.14,-811.2C710.41,-857.97 744.58,-861.7 838.88,-825.74"/>
<polygon fill="#00876c" stroke="#00876c" stroke-width="2" points="846.85,-822.65 839.15,-830.46 844.64,-824.05 837.7,-826.73 837.52,-826.26 837.34,-825.8 844.28,-823.11 835.9,-822.07 846.85,-822.65"/>
</g>
<!-- 1748 -->
<g id="node3" class="node">
<title>1748</title>
<polygon fill="none" stroke="black" points="674.42,-597.3 674.42,-612.21 642.84,-622.75 598.17,-622.75 566.58,-612.21 566.58,-597.3 598.17,-586.75 642.84,-586.75 674.42,-597.3"/>
<polygon fill="none" stroke="black" points="678.42,-594.41 678.42,-615.09 643.49,-626.75 597.52,-626.75 562.58,-615.09 562.58,-594.41 597.52,-582.75 643.49,-582.75 678.42,-594.41"/>
<text text-anchor="middle" x="620.5" y="-599.7" font-family="Times,serif" font-size="14.00">GCR&#45;docs</text>
</g>
<!-- 1748&#45;&gt;1747 -->
<g id="edge4" class="edge">
<title>1748&#45;&gt;1747</title>
<path fill="none" stroke="black" stroke-width="2" d="M610.34,-627.12C573.83,-707.37 561.4,-732.89 540.06,-756.93"/>
<polygon fill="black" stroke="black" stroke-width="2" points="534.1,-763.32 537.63,-752.94 535.48,-761.1 540.56,-755.67 540.92,-756.01 541.29,-756.35 536.22,-761.79 544.21,-759.08 534.1,-763.32"/>
</g>
<!-- 1748&#45;&gt;6392 -->
<g id="edge5" class="edge">
<title>1748&#45;&gt;6392</title>
<path fill="none" stroke="#e09d4b" stroke-width="2" d="M618.36,-627.2C606.76,-748.23 603.86,-772.67 589.82,-815.06"/>
<polygon fill="#e09d4b" stroke="#e09d4b" stroke-width="2" points="587,-823.35 585.96,-812.43 587.35,-820.76 589.74,-813.72 590.22,-813.88 590.69,-814.04 588.3,-821.08 594.48,-815.33 587,-823.35"/>
</g>
<!-- 15790 -->
<g id="node8" class="node">
<title>15790</title>
<polygon fill="none" stroke="#dac767" points="932.01,-686.88 932.01,-701.79 881.93,-712.33 811.1,-712.33 761.02,-701.79 761.02,-686.88 811.1,-676.33 881.93,-676.33 932.01,-686.88"/>
<polygon fill="none" stroke="#dac767" points="936.01,-683.63 936.01,-705.03 882.35,-716.33 810.69,-716.33 757.02,-705.03 757.02,-683.63 810.69,-672.33 882.35,-672.33 936.01,-683.63"/>
<text text-anchor="middle" x="846.52" y="-689.28" font-family="Times,serif" font-size="14.00">scancode:gcr&#45;docs</text>
</g>
<!-- 1748&#45;&gt;15790 -->
<g id="edge6" class="edge">
<title>1748&#45;&gt;15790</title>
<path fill="none" stroke="#dac767" stroke-width="2" d="M656.57,-622.73C713.7,-651.15 744,-665.78 768.37,-674.89"/>
<polygon fill="#dac767" stroke="#dac767" stroke-width="2" points="776.56,-677.79 765.64,-678.7 773.98,-677.4 766.97,-674.93 767.14,-674.45 767.3,-673.98 774.31,-676.46 768.64,-670.21 776.56,-677.79"/>
</g>
<!-- 36817 -->
<g id="node11" class="node">
<title>36817</title>
<polygon fill="none" stroke="#379469" points="639.77,-348.16 639.77,-363.07 595.2,-373.62 532.18,-373.62 487.61,-363.07 487.61,-348.16 532.18,-337.62 595.2,-337.62 639.77,-348.16"/>
<polygon fill="none" stroke="#379469" points="643.77,-345 643.77,-366.24 595.67,-377.62 531.71,-377.62 483.61,-366.24 483.61,-345 531.71,-333.62 595.67,-333.62 643.77,-345"/>
<text text-anchor="middle" x="563.69" y="-350.57" font-family="Times,serif" font-size="14.00">cavil:GCR&#45;docs</text>
</g>
<!-- 1748&#45;&gt;36817 -->
<g id="edge7" class="edge">
<title>1748&#45;&gt;36817</title>
<path fill="none" stroke="#379469" stroke-width="2" d="M618.52,-582.34C607.38,-456.75 604.24,-432.91 581.04,-387.72"/>
<polygon fill="#379469" stroke="#379469" stroke-width="2" points="577.08,-380.19 585.72,-386.95 578.72,-382.23 582.18,-388.81 581.73,-389.04 581.29,-389.27 577.83,-382.69 577.75,-391.13 577.08,-380.19"/>
</g>
<!-- 1748&#45;&gt;42369 -->
<g id="edge8" class="edge">
<title>1748&#45;&gt;42369</title>
<path fill="none" stroke="#00876c" stroke-dasharray="5,2" d="M647.97,-625.56C773.64,-720.77 805.7,-744.49 853.17,-771.45"/>
<polygon fill="#00876c" stroke="#00876c" points="861.84,-776.31 850.92,-775.35 858.54,-774.46 853.12,-771.42 853.12,-771.42 853.12,-771.42 858.54,-774.46 855.32,-767.5 861.84,-776.31"/>
</g>
<!-- 1749 -->
<g id="node4" class="node">
<title>1749</title>
<polygon fill="none" stroke="black" points="1023.23,-739.02 1023.23,-753.93 927.39,-764.47 791.86,-764.47 696.02,-753.93 696.02,-739.02 791.86,-728.47 927.39,-728.47 1023.23,-739.02"/>
<polygon fill="none" stroke="black" points="1027.23,-735.43 1027.23,-757.51 927.61,-768.47 791.64,-768.47 692.02,-757.51 692.02,-735.43 791.64,-724.47 927.61,-724.47 1027.23,-735.43"/>
<text text-anchor="middle" x="859.63" y="-741.42" font-family="Times,serif" font-size="14.00">Gnome GCR Documentation License</text>
</g>
<!-- 1749&#45;&gt;1747 -->
<g id="edge9" class="edge">
<title>1749&#45;&gt;1747</title>
<path fill="none" stroke="#b8bf62" stroke-width="2" d="M821.55,-768.85C729.09,-822.45 700.55,-829.9 592.23,-809.47"/>
<polygon fill="#b8bf62" stroke="#b8bf62" stroke-width="2" points="583.88,-807.87 594.55,-805.34 586.49,-807.86 593.8,-809.27 593.7,-809.76 593.61,-810.25 586.31,-808.84 592.85,-814.18 583.88,-807.87"/>
</g>
<!-- 1749&#45;&gt;15790 -->
<g id="edge10" class="edge">
<title>1749&#45;&gt;15790</title>
<path fill="none" stroke="#dac767" stroke-width="2" d="M859.4,-724.15C859.36,-724.02 859.32,-723.88 859.28,-723.74"/>
<polygon fill="#dac767" stroke="#dac767" stroke-width="2" points="857.61,-719.05 865.21,-726.96 858.94,-721.3 861.44,-728.31 860.97,-728.47 860.5,-728.64 858,-721.64 856.73,-729.98 857.61,-719.05"/>
</g>
<!-- 1749&#45;&gt;42369 -->
<g id="edge11" class="edge">
<title>1749&#45;&gt;42369</title>
<path fill="none" stroke="#00876c" stroke-width="2" d="M880.24,-768.52C880.34,-768.63 880.43,-768.73 880.53,-768.84"/>
<polygon fill="#00876c" stroke="#00876c" stroke-width="2" points="886.38,-775.33 876.34,-770.91 884.29,-773.76 879.31,-768.23 879.69,-767.9 880.06,-767.56 885.03,-773.09 883.03,-764.89 886.38,-775.33"/>
</g>
<!-- 6391 -->
<g id="node5" class="node">
<title>6391</title>
<ellipse fill="none" stroke="#e09d4b" cx="537.35" cy="-908.41" rx="159.28" ry="28.99"/>
<text text-anchor="middle" x="537.35" y="-911.61" font-family="Times,serif" font-size="14.00" fill="gray">FedoraEntry</text>
<text text-anchor="middle" x="537.35" y="-895.11" font-family="Times,serif" font-size="14.00" fill="gray">4b4d3baae6c5178b5e68ceb0bca4d436</text>
</g>
<!-- 6391&#45;&gt;6392 -->
<g id="edge12" class="edge">
<title>6391&#45;&gt;6392</title>
<path fill="none" stroke="#e09d4b" d="M562.87,-879.45C562.91,-879.36 562.96,-879.28 563.01,-879.19"/>
<polygon fill="#e09d4b" stroke="#e09d4b" points="565.5,-882 566.93,-871.5 559.27,-878.81 565.5,-882"/>
</g>
<!-- 15789 -->
<g id="node7" class="node">
<title>15789</title>
<ellipse fill="none" stroke="#dac767" cx="905.3" cy="-631.19" rx="153.97" ry="28.99"/>
<text text-anchor="middle" x="905.3" y="-634.39" font-family="Times,serif" font-size="14.00" fill="gray">ScancodeData</text>
<text text-anchor="middle" x="905.3" y="-617.89" font-family="Times,serif" font-size="14.00" fill="gray">74fff469e35ede0c2990a1a1f3643a8d</text>
</g>
<!-- 15789&#45;&gt;15790 -->
<g id="edge13" class="edge">
<title>15789&#45;&gt;15790</title>
<path fill="none" stroke="#dac767" d="M893.36,-660.48C892.7,-661.6 892.01,-662.67 891.29,-663.7"/>
<polygon fill="#dac767" stroke="#dac767" points="888.79,-661.25 884.58,-670.97 893.94,-665.99 888.79,-661.25"/>
</g>
<!-- 28691 -->
<g id="node9" class="node">
<title>28691</title>
<ellipse fill="none" stroke="#e06f45" cx="160.6" cy="-745.4" rx="160.34" ry="28.99"/>
<text text-anchor="middle" x="160.6" y="-748.6" font-family="Times,serif" font-size="14.00" fill="gray">OrtLicenseCategorization</text>
<text text-anchor="middle" x="160.6" y="-732.1" font-family="Times,serif" font-size="14.00" fill="gray">482cd651db022a1a5c61a10a5b69abdb</text>
</g>
<!-- 28691&#45;&gt;1747 -->
<g id="edge14" class="edge">
<title>28691&#45;&gt;1747</title>
<path fill="none" stroke="#e06f45" d="M209.55,-773.48C272.61,-807.91 303.63,-812.65 409.82,-802.07"/>
<polygon fill="#e06f45" stroke="#e06f45" points="409.93,-805.57 419.52,-801.08 409.22,-798.61 409.93,-805.57"/>
</g>
<!-- 36816 -->
<g id="node10" class="node">
<title>36816</title>
<ellipse fill="none" stroke="#379469" cx="502.24" cy="-28.73" rx="158.22" ry="28.99"/>
<text text-anchor="middle" x="502.24" y="-31.93" font-family="Times,serif" font-size="14.00" fill="gray">CavilLicenseChange</text>
<text text-anchor="middle" x="502.24" y="-15.43" font-family="Times,serif" font-size="14.00" fill="gray">5fdf23128db89a70da906e7445e5c70d</text>
</g>
<!-- 36816&#45;&gt;36817 -->
<g id="edge15" class="edge">
<title>36816&#45;&gt;36817</title>
<path fill="none" stroke="#379469" d="M508.69,-58.14C523.29,-125.04 527.64,-149.05 557.83,-322.05"/>
<polygon fill="#379469" stroke="#379469" points="554.39,-322.65 559.55,-331.9 561.28,-321.44 554.39,-322.65"/>
</g>
<!-- 42368 -->
<g id="node12" class="node">
<title>42368</title>
<ellipse fill="none" stroke="#00876c" cx="1000.49" cy="-858.41" rx="159.81" ry="28.99"/>
<text text-anchor="middle" x="1000.49" y="-861.61" font-family="Times,serif" font-size="14.00" fill="gray">MetaeffektLicense</text>
<text text-anchor="middle" x="1000.49" y="-845.11" font-family="Times,serif" font-size="14.00" fill="gray">51b2cb1e918342db06a544aa9336f159</text>
</g>
<!-- 42368&#45;&gt;42369 -->
<g id="edge16" class="edge">
<title>42368&#45;&gt;42369</title>
<path fill="none" stroke="#00876c" d="M951.09,-830.36C949.88,-829.58 948.62,-828.75 947.31,-827.89"/>
<polygon fill="#00876c" stroke="#00876c" points="949.41,-825.09 939.14,-822.51 945.56,-830.93 949.41,-825.09"/>
</g>
</g>
</svg>
