<?xml version="1.0" encoding="UTF-8" standalone="no"?>
<!DOCTYPE svg PUBLIC "-//W3C//DTD SVG 1.1//EN"
 "http://www.w3.org/Graphics/SVG/1.1/DTD/svg11.dtd">
<!-- Generated by graphviz version 10.0.1 (0)
 -->
<!-- Pages: 1 -->
<svg width="1287pt" height="724pt"
 viewBox="0.00 0.00 1287.00 724.00" xmlns="http://www.w3.org/2000/svg" xmlns:xlink="http://www.w3.org/1999/xlink">
<g id="graph0" class="graph" transform="scale(1 1) rotate(0) translate(4 720)">
<polygon fill="white" stroke="none" points="-4,4 -4,-720 1283,-720 1283,4 -4,4"/>
<!-- 1753 -->
<g id="node1" class="node">
<title>1753</title>
<ellipse fill="none" stroke="#b8bf62" cx="954.03" cy="-687.4" rx="158.22" ry="28.99"/>
<text text-anchor="middle" x="954.03" y="-690.6" font-family="Times,serif" font-size="14.00" fill="gray">SPDXLicense</text>
<text text-anchor="middle" x="954.03" y="-674.1" font-family="Times,serif" font-size="14.00" fill="gray">3f10d6ee729bf739956836956646b89f</text>
</g>
<!-- 1754 -->
<g id="node2" class="node">
<title>1754</title>
<polygon fill="none" stroke="black" points="957.88,-357.68 957.88,-372.59 929.87,-383.13 890.25,-383.13 862.23,-372.59 862.23,-357.68 890.25,-347.13 929.87,-347.13 957.88,-357.68"/>
<polygon fill="none" stroke="black" points="961.88,-354.91 961.88,-375.36 930.6,-387.13 889.52,-387.13 858.23,-375.36 858.23,-354.91 889.52,-343.13 930.6,-343.13 961.88,-354.91"/>
<polygon fill="none" stroke="black" points="965.88,-352.14 965.88,-378.13 931.32,-391.13 888.79,-391.13 854.23,-378.13 854.23,-352.14 888.79,-339.13 931.32,-339.13 965.88,-352.14"/>
<text text-anchor="middle" x="910.06" y="-360.08" font-family="Times,serif" font-size="14.00">spdx:GD</text>
</g>
<!-- 1753&#45;&gt;1754 -->
<g id="edge1" class="edge">
<title>1753&#45;&gt;1754</title>
<path fill="none" stroke="#b8bf62" d="M961.77,-658.15C985.97,-564.85 982.7,-545.45 924.95,-401.99"/>
<polygon fill="#b8bf62" stroke="#b8bf62" points="928.25,-400.82 921.27,-392.85 921.76,-403.43 928.25,-400.82"/>
</g>
<!-- 43181 -->
<g id="node10" class="node">
<title>43181</title>
<polygon fill="none" stroke="#00876c" points="957.52,-174.63 957.52,-189.54 895.43,-200.09 807.62,-200.09 745.53,-189.54 745.53,-174.63 807.62,-164.09 895.43,-164.09 957.52,-174.63"/>
<polygon fill="none" stroke="#00876c" points="961.52,-171.25 961.52,-192.92 895.76,-204.09 807.28,-204.09 741.53,-192.92 741.53,-171.25 807.28,-160.09 895.76,-160.09 961.52,-171.25"/>
<text text-anchor="middle" x="851.52" y="-177.04" font-family="Times,serif" font-size="14.00">metaeffekt:GD License</text>
</g>
<!-- 1754&#45;&gt;43181 -->
<g id="edge2" class="edge">
<title>1754&#45;&gt;43181</title>
<path fill="none" stroke="#00876c" stroke-width="2" d="M911.78,-338.67C915.72,-273.35 912.55,-257.83 877.02,-213.14"/>
<polygon fill="#00876c" stroke="#00876c" stroke-width="2" points="871.53,-206.33 881.31,-211.29 873.53,-208.01 878.19,-213.8 877.8,-214.12 877.42,-214.43 872.75,-208.64 874.3,-216.94 871.53,-206.33"/>
</g>
<!-- 1755 -->
<g id="node3" class="node">
<title>1755</title>
<polygon fill="none" stroke="black" points="1055.97,-235.95 1055.97,-250.86 1040.16,-261.4 1017.79,-261.4 1001.97,-250.86 1001.97,-235.95 1017.79,-225.4 1040.16,-225.4 1055.97,-235.95"/>
<polygon fill="none" stroke="black" points="1059.97,-233.81 1059.97,-253 1041.37,-265.4 1016.58,-265.4 997.97,-253 997.97,-233.81 1016.58,-221.4 1041.37,-221.4 1059.97,-233.81"/>
<text text-anchor="middle" x="1028.97" y="-238.35" font-family="Times,serif" font-size="14.00">GD</text>
</g>
<!-- 1755&#45;&gt;1754 -->
<g id="edge3" class="edge">
<title>1755&#45;&gt;1754</title>
<path fill="none" stroke="black" stroke-width="2" d="M1018.29,-265.78C1004.42,-293.31 993.83,-304.48 950.66,-336"/>
<polygon fill="black" stroke="black" stroke-width="2" points="943.55,-341.15 949,-331.64 945.33,-339.24 951.35,-334.87 951.65,-335.28 951.94,-335.68 945.92,-340.05 954.29,-338.92 943.55,-341.15"/>
</g>
<!-- 36819 -->
<g id="node8" class="node">
<title>36819</title>
<polygon fill="none" stroke="#379469" points="1129.4,-92.74 1129.4,-107.65 1101.05,-118.2 1060.98,-118.2 1032.63,-107.65 1032.63,-92.74 1060.98,-82.2 1101.05,-82.2 1129.4,-92.74"/>
<polygon fill="none" stroke="#379469" points="1133.4,-89.96 1133.4,-110.43 1101.77,-122.2 1060.26,-122.2 1028.63,-110.43 1028.63,-89.96 1060.26,-78.2 1101.77,-78.2 1133.4,-89.96"/>
<text text-anchor="middle" x="1081.01" y="-95.15" font-family="Times,serif" font-size="14.00">cavil:GD</text>
</g>
<!-- 1755&#45;&gt;36819 -->
<g id="edge4" class="edge">
<title>1755&#45;&gt;36819</title>
<path fill="none" stroke="#379469" stroke-width="2" d="M1042.74,-221.86C1072.56,-174.91 1080.09,-160.14 1081.32,-133.52"/>
<polygon fill="#379469" stroke="#379469" stroke-width="2" points="1081.48,-125.09 1085.8,-135.17 1081.93,-127.66 1081.8,-135.09 1081.3,-135.08 1080.8,-135.07 1080.93,-127.64 1076.8,-135 1081.48,-125.09"/>
</g>
<!-- 1755&#45;&gt;43181 -->
<g id="edge5" class="edge">
<title>1755&#45;&gt;43181</title>
<path fill="none" stroke="#00876c" stroke-dasharray="5,2" d="M1008.57,-226.2C990.98,-211.88 978.41,-203.99 958.7,-198.32"/>
<polygon fill="#00876c" stroke="#00876c" points="949.22,-195.91 960.02,-194.01 952.88,-196.84 958.91,-198.37 958.91,-198.37 958.91,-198.37 952.88,-196.84 957.8,-202.73 949.22,-195.91"/>
</g>
<!-- 1756 -->
<g id="node4" class="node">
<title>1756</title>
<polygon fill="none" stroke="black" points="789.77,-255.46 789.77,-270.37 754.61,-280.91 704.89,-280.91 669.74,-270.37 669.74,-255.46 704.89,-244.91 754.61,-244.91 789.77,-255.46"/>
<polygon fill="none" stroke="black" points="793.77,-252.48 793.77,-273.35 755.2,-284.91 704.31,-284.91 665.74,-273.35 665.74,-252.48 704.31,-240.91 755.2,-240.91 793.77,-252.48"/>
<text text-anchor="middle" x="729.75" y="-257.86" font-family="Times,serif" font-size="14.00">GD License</text>
</g>
<!-- 1756&#45;&gt;1754 -->
<g id="edge6" class="edge">
<title>1756&#45;&gt;1754</title>
<path fill="none" stroke="#b8bf62" stroke-width="2" d="M778.39,-278.45C838.52,-298.06 858.23,-307.38 880.86,-331"/>
<polygon fill="#b8bf62" stroke="#b8bf62" stroke-width="2" points="886.72,-337.4 876.65,-333.06 884.63,-335.84 879.6,-330.36 879.97,-330.02 880.34,-329.68 885.36,-335.17 883.29,-326.98 886.72,-337.4"/>
</g>
<!-- 1756&#45;&gt;43181 -->
<g id="edge7" class="edge">
<title>1756&#45;&gt;43181</title>
<path fill="none" stroke="#00876c" stroke-width="2" d="M758.96,-241.75C779,-227.27 792.25,-217.81 802.7,-210.72"/>
<polygon fill="#00876c" stroke="#00876c" stroke-width="2" points="809.97,-205.92 804.11,-215.19 808.1,-207.75 801.9,-211.85 801.63,-211.44 801.35,-211.02 807.55,-206.91 799.14,-207.68 809.97,-205.92"/>
</g>
<!-- 54474 -->
<g id="node12" class="node">
<title>54474</title>
<polygon fill="none" stroke="#e18745" points="569.32,-257.02 569.32,-271.93 516.32,-282.48 441.36,-282.48 388.36,-271.93 388.36,-257.02 441.36,-246.48 516.32,-246.48 569.32,-257.02"/>
<polygon fill="none" stroke="#e18745" points="573.32,-253.74 573.32,-275.22 516.71,-286.48 440.97,-286.48 384.36,-275.22 384.36,-253.74 440.97,-242.48 516.71,-242.48 573.32,-253.74"/>
<text text-anchor="middle" x="478.84" y="-259.43" font-family="Times,serif" font-size="14.00">ifrOSS:GD License</text>
</g>
<!-- 1756&#45;&gt;54474 -->
<g id="edge8" class="edge">
<title>1756&#45;&gt;54474</title>
<path fill="none" stroke="#e18745" stroke-width="2" d="M681.37,-247.44C608.98,-224.93 584.17,-222.33 536.44,-240.09"/>
<polygon fill="#e18745" stroke="#e18745" stroke-width="2" points="528.5,-243.17 536.2,-235.35 530.71,-241.77 537.64,-239.08 537.82,-239.55 538,-240.02 531.07,-242.7 539.45,-243.75 528.5,-243.17"/>
</g>
<!-- 18502 -->
<g id="node5" class="node">
<title>18502</title>
<polygon fill="none" stroke="black" points="1259.99,-200.45 1259.99,-215.36 1204.39,-225.9 1125.76,-225.9 1070.16,-215.36 1070.16,-200.45 1125.76,-189.9 1204.39,-189.9 1259.99,-200.45"/>
<text text-anchor="middle" x="1165.07" y="-202.85" font-family="Times,serif" font-size="14.00">scancode:libgd&#45;2018</text>
</g>
<!-- 18502&#45;&gt;43181 -->
<g id="edge9" class="edge">
<title>18502&#45;&gt;43181</title>
<path fill="none" stroke="#00876c" stroke-dasharray="5,2" d="M1119.38,-190.8C1076.53,-176.03 1048.18,-172.66 972.68,-175.61"/>
<polygon fill="#00876c" stroke="#00876c" points="962.93,-176.01 972.73,-171.1 966.71,-175.85 972.92,-175.6 972.92,-175.6 972.92,-175.6 966.71,-175.85 973.11,-180.09 962.93,-176.01"/>
</g>
<!-- 28692 -->
<g id="node6" class="node">
<title>28692</title>
<ellipse fill="none" stroke="#e06f45" cx="950.84" cy="-440.09" rx="158.22" ry="28.99"/>
<text text-anchor="middle" x="950.84" y="-443.29" font-family="Times,serif" font-size="14.00" fill="gray">OrtLicenseCategorization</text>
<text text-anchor="middle" x="950.84" y="-426.79" font-family="Times,serif" font-size="14.00" fill="gray">cb1c30876b7d3950634af214f903ce41</text>
</g>
<!-- 28692&#45;&gt;1754 -->
<g id="edge10" class="edge">
<title>28692&#45;&gt;1754</title>
<path fill="none" stroke="#e06f45" d="M945.9,-410.71C944.55,-407.03 942.74,-403.57 940.18,-399.77"/>
<polygon fill="#e06f45" stroke="#e06f45" points="943.04,-397.75 934.18,-391.94 937.48,-402.01 943.04,-397.75"/>
</g>
<!-- 36818 -->
<g id="node7" class="node">
<title>36818</title>
<ellipse fill="none" stroke="#379469" cx="1118.25" cy="-28.99" rx="160.34" ry="28.99"/>
<text text-anchor="middle" x="1118.25" y="-32.19" font-family="Times,serif" font-size="14.00" fill="gray">CavilLicenseChange</text>
<text text-anchor="middle" x="1118.25" y="-15.69" font-family="Times,serif" font-size="14.00" fill="gray">33b91bd41e3dbe10590c933dc25935f5</text>
</g>
<!-- 36818&#45;&gt;36819 -->
<g id="edge11" class="edge">
<title>36818&#45;&gt;36819</title>
<path fill="none" stroke="#379469" d="M1109.8,-58.11C1108.18,-61.21 1106.15,-64.57 1103.51,-68.56"/>
<polygon fill="#379469" stroke="#379469" points="1100.82,-66.3 1098.05,-76.53 1106.59,-70.26 1100.82,-66.3"/>
</g>
<!-- 43180 -->
<g id="node9" class="node">
<title>43180</title>
<ellipse fill="none" stroke="#00876c" cx="802.9" cy="-113.75" rx="157.15" ry="28.99"/>
<text text-anchor="middle" x="802.9" y="-116.95" font-family="Times,serif" font-size="14.00" fill="gray">MetaeffektLicense</text>
<text text-anchor="middle" x="802.9" y="-100.45" font-family="Times,serif" font-size="14.00" fill="gray">6d5bf72c610ace6970c466cc0ee2dc78</text>
</g>
<!-- 43180&#45;&gt;43181 -->
<g id="edge12" class="edge">
<title>43180&#45;&gt;43181</title>
<path fill="none" stroke="#00876c" d="M838.01,-142.35C839.12,-144.32 840.15,-146.48 841.15,-148.89"/>
<polygon fill="#00876c" stroke="#00876c" points="837.82,-149.96 844.48,-158.2 844.41,-147.61 837.82,-149.96"/>
</g>
<!-- 54473 -->
<g id="node11" class="node">
<title>54473</title>
<ellipse fill="none" stroke="#e18745" cx="160.01" cy="-319.9" rx="160.34" ry="28.99"/>
<text text-anchor="middle" x="160.01" y="-323.1" font-family="Times,serif" font-size="14.00" fill="gray">ifrOSS License</text>
<text text-anchor="middle" x="160.01" y="-306.6" font-family="Times,serif" font-size="14.00" fill="gray">5b4d79e8310b655b865b884b7aa8f9e2</text>
</g>
<!-- 54473&#45;&gt;54474 -->
<g id="edge13" class="edge">
<title>54473&#45;&gt;54474</title>
<path fill="none" stroke="#e18745" d="M227.69,-293.19C262.26,-282.05 296.14,-277.41 372.88,-271.7"/>
<polygon fill="#e18745" stroke="#e18745" points="372.77,-275.22 382.49,-271 372.26,-268.24 372.77,-275.22"/>
</g>
</g>
</svg>
