<?xml version="1.0" encoding="UTF-8" standalone="no"?>
<!DOCTYPE svg PUBLIC "-//W3C//DTD SVG 1.1//EN"
 "http://www.w3.org/Graphics/SVG/1.1/DTD/svg11.dtd">
<!-- Generated by graphviz version 10.0.1 (0)
 -->
<!-- Pages: 1 -->
<svg width="2251pt" height="2008pt"
 viewBox="0.00 0.00 2251.00 2008.00" xmlns="http://www.w3.org/2000/svg" xmlns:xlink="http://www.w3.org/1999/xlink">
<g id="graph0" class="graph" transform="scale(1 1) rotate(0) translate(4 2004)">
<polygon fill="white" stroke="none" points="-4,4 -4,-2004 2247,-2004 2247,4 -4,4"/>
<!-- 5 -->
<g id="node1" class="node">
<title>5</title>
<text text-anchor="start" x="450.8" y="-1719.92" font-family="Times,serif" font-size="14.00">OSI: </text>
<text text-anchor="start" x="480.05" y="-1719.92" font-family="Times,serif" font-weight="bold" font-size="14.00" fill="#8b0000">Rejected</text>
</g>
<!-- 5180 -->
<g id="node2" class="node">
<title>5180</title>
<ellipse fill="none" stroke="#dac767" cx="731.06" cy="-1483.66" rx="157.15" ry="28.99"/>
<text text-anchor="middle" x="731.06" y="-1486.86" font-family="Times,serif" font-size="14.00" fill="gray">SPDXLicense</text>
<text text-anchor="middle" x="731.06" y="-1470.36" font-family="Times,serif" font-size="14.00" fill="gray">3c2e47c8dc3b3f4bdee008e1ec3b468a</text>
</g>
<!-- 5&#45;&gt;5180 -->
<g id="edge1" class="edge">
<title>5&#45;&gt;5180</title>
<path fill="none" stroke="#dac767" d="M510.58,-1706.04C563.45,-1658.59 579.85,-1642.08 695.81,-1520.6"/>
<polygon fill="#dac767" stroke="#dac767" points="698.17,-1523.19 702.55,-1513.54 693.11,-1518.36 698.17,-1523.19"/>
</g>
<!-- 5181 -->
<g id="node3" class="node">
<title>5181</title>
<polygon fill="none" stroke="black" points="1242.51,-1395.32 1242.51,-1410.23 1196.97,-1420.77 1132.57,-1420.77 1087.03,-1410.23 1087.03,-1395.32 1132.57,-1384.77 1196.97,-1384.77 1242.51,-1395.32"/>
<polygon fill="none" stroke="black" points="1246.51,-1392.14 1246.51,-1413.41 1197.43,-1424.77 1132.11,-1424.77 1083.03,-1413.41 1083.03,-1392.14 1132.11,-1380.77 1197.43,-1380.77 1246.51,-1392.14"/>
<polygon fill="none" stroke="black" points="1250.51,-1388.96 1250.51,-1416.59 1197.89,-1428.77 1131.66,-1428.77 1079.03,-1416.59 1079.03,-1388.96 1131.66,-1376.77 1197.89,-1376.77 1250.51,-1388.96"/>
<text text-anchor="middle" x="1164.77" y="-1397.72" font-family="Times,serif" font-size="14.00">spdx:generic&#45;xts</text>
</g>
<!-- 5180&#45;&gt;5181 -->
<g id="edge2" class="edge">
<title>5180&#45;&gt;5181</title>
<path fill="none" stroke="#dac767" d="M837.84,-1505.33C919.92,-1516.94 964.85,-1500.5 1107.55,-1430.87"/>
<polygon fill="#dac767" stroke="#dac767" points="1108.74,-1434.18 1116.18,-1426.65 1105.66,-1427.9 1108.74,-1434.18"/>
</g>
<!-- 9890 -->
<g id="node13" class="node">
<title>9890</title>
<polygon fill="none" stroke="#e09d4b" points="1492.21,-1162.06 1492.21,-1176.97 1441.48,-1187.52 1369.73,-1187.52 1319,-1176.97 1319,-1162.06 1369.73,-1151.52 1441.48,-1151.52 1492.21,-1162.06"/>
<polygon fill="none" stroke="#e09d4b" points="1496.21,-1158.81 1496.21,-1180.23 1441.89,-1191.52 1369.32,-1191.52 1315,-1180.23 1315,-1158.81 1369.32,-1147.52 1441.89,-1147.52 1496.21,-1158.81"/>
<text text-anchor="middle" x="1405.61" y="-1164.47" font-family="Times,serif" font-size="14.00">Fedora:generic&#45;xts</text>
</g>
<!-- 5181&#45;&gt;9890 -->
<g id="edge3" class="edge">
<title>5181&#45;&gt;9890</title>
<path fill="none" stroke="#e09d4b" stroke-width="2" d="M1219.81,-1381.49C1312.51,-1344.15 1328.32,-1323.69 1389.55,-1201.67"/>
<polygon fill="#e09d4b" stroke="#e09d4b" stroke-width="2" points="1393.34,-1194.1 1392.88,-1205.06 1392.64,-1196.62 1389.31,-1203.27 1388.86,-1203.05 1388.41,-1202.82 1391.74,-1196.17 1384.84,-1201.03 1393.34,-1194.1"/>
</g>
<!-- 29888 -->
<g id="node15" class="node">
<title>29888</title>
<polygon fill="none" stroke="black" points="1550.02,-1563.65 1550.02,-1578.57 1494.1,-1589.11 1415.01,-1589.11 1359.09,-1578.57 1359.09,-1563.65 1415.01,-1553.11 1494.1,-1553.11 1550.02,-1563.65"/>
<polygon fill="none" stroke="black" points="1554.02,-1560.34 1554.02,-1581.88 1494.47,-1593.11 1414.64,-1593.11 1355.09,-1581.88 1355.09,-1560.34 1414.64,-1549.11 1494.47,-1549.11 1554.02,-1560.34"/>
<text text-anchor="middle" x="1454.55" y="-1566.06" font-family="Times,serif" font-size="14.00">scancode:generic&#45;xts</text>
</g>
<!-- 5181&#45;&gt;29888 -->
<g id="edge4" class="edge">
<title>5181&#45;&gt;29888</title>
<path fill="none" stroke="#deb256" stroke-width="2" d="M1194.99,-1428.98C1288.09,-1509.54 1322.18,-1536.85 1368.29,-1552.15"/>
<polygon fill="#deb256" stroke="#deb256" stroke-width="2" points="1376.66,-1554.72 1365.78,-1556.09 1374.06,-1554.44 1366.95,-1552.26 1367.1,-1551.78 1367.24,-1551.31 1374.35,-1553.49 1368.42,-1547.48 1376.66,-1554.72"/>
</g>
<!-- 49740 -->
<g id="node23" class="node">
<title>49740</title>
<polygon fill="none" stroke="#379469" points="1247.79,-1675.35 1247.79,-1690.27 1182.45,-1700.81 1090.05,-1700.81 1024.72,-1690.27 1024.72,-1675.35 1090.05,-1664.81 1182.45,-1664.81 1247.79,-1675.35"/>
<polygon fill="none" stroke="#379469" points="1251.79,-1671.95 1251.79,-1693.67 1182.77,-1704.81 1089.73,-1704.81 1020.72,-1693.67 1020.72,-1671.95 1089.73,-1660.81 1182.77,-1660.81 1251.79,-1671.95"/>
<text text-anchor="middle" x="1136.25" y="-1677.76" font-family="Times,serif" font-size="14.00">metaeffekt:Generic&#45;XTS</text>
</g>
<!-- 5181&#45;&gt;49740 -->
<g id="edge5" class="edge">
<title>5181&#45;&gt;49740</title>
<path fill="none" stroke="#379469" stroke-width="2" d="M1163.26,-1429.1C1155.02,-1572.37 1153.17,-1597.62 1142.96,-1649.75"/>
<polygon fill="#379469" stroke="#379469" stroke-width="2" points="1141.28,-1658.19 1138.82,-1647.5 1141.29,-1655.57 1142.75,-1648.28 1143.24,-1648.38 1143.73,-1648.48 1142.27,-1655.77 1147.65,-1649.26 1141.28,-1658.19"/>
</g>
<!-- 5182 -->
<g id="node4" class="node">
<title>5182</title>
<polygon fill="none" stroke="black" points="1338.6,-1465.71 1338.6,-1480.62 1305.71,-1491.16 1259.21,-1491.16 1226.32,-1480.62 1226.32,-1465.71 1259.21,-1455.16 1305.71,-1455.16 1338.6,-1465.71"/>
<polygon fill="none" stroke="black" points="1342.6,-1462.79 1342.6,-1483.54 1306.34,-1495.16 1258.58,-1495.16 1222.32,-1483.54 1222.32,-1462.79 1258.58,-1451.16 1306.34,-1451.16 1342.6,-1462.79"/>
<text text-anchor="middle" x="1282.46" y="-1468.11" font-family="Times,serif" font-size="14.00">generic&#45;xts</text>
</g>
<!-- 5182&#45;&gt;5181 -->
<g id="edge6" class="edge">
<title>5182&#45;&gt;5181</title>
<path fill="none" stroke="black" stroke-width="2" d="M1231.03,-1459.57C1222.26,-1454.76 1213.27,-1447.74 1200.84,-1436.58"/>
<polygon fill="black" stroke="black" stroke-width="2" points="1194.43,-1430.72 1204.85,-1434.14 1196.66,-1432.08 1202.15,-1437.1 1201.81,-1437.46 1201.48,-1437.83 1195.98,-1432.82 1198.78,-1440.79 1194.43,-1430.72"/>
</g>
<!-- 5182&#45;&gt;9890 -->
<g id="edge7" class="edge">
<title>5182&#45;&gt;9890</title>
<path fill="none" stroke="#e09d4b" stroke-width="2" d="M1304.87,-1450.87C1376.71,-1378.65 1382.81,-1360.52 1401.64,-1202.97"/>
<polygon fill="#e09d4b" stroke="#e09d4b" stroke-width="2" points="1402.67,-1194.31 1405.96,-1204.77 1402.87,-1196.92 1401.99,-1204.3 1401.49,-1204.24 1401,-1204.18 1401.87,-1196.8 1397.02,-1203.71 1402.67,-1194.31"/>
</g>
<!-- 5182&#45;&gt;29888 -->
<g id="edge8" class="edge">
<title>5182&#45;&gt;29888</title>
<path fill="none" stroke="black" stroke-width="2" d="M1308.85,-1494.85C1342.63,-1522.5 1362.75,-1538.27 1379.95,-1548.26"/>
<polygon fill="black" stroke="black" stroke-width="2" points="1387.67,-1552.38 1376.73,-1551.64 1385.17,-1551.61 1378.61,-1548.11 1378.84,-1547.67 1379.08,-1547.23 1385.64,-1550.73 1380.96,-1543.7 1387.67,-1552.38"/>
</g>
<!-- 41540 -->
<g id="node21" class="node">
<title>41540</title>
<polygon fill="none" stroke="#379469" points="1311.48,-1748.61 1311.48,-1763.52 1265.62,-1774.06 1200.76,-1774.06 1154.89,-1763.52 1154.89,-1748.61 1200.76,-1738.06 1265.62,-1738.06 1311.48,-1748.61"/>
<polygon fill="none" stroke="#379469" points="1315.48,-1745.42 1315.48,-1766.7 1266.07,-1778.06 1200.3,-1778.06 1150.89,-1766.7 1150.89,-1745.42 1200.3,-1734.06 1266.07,-1734.06 1315.48,-1745.42"/>
<text text-anchor="middle" x="1233.19" y="-1751.01" font-family="Times,serif" font-size="14.00">cavil:generic&#45;xts</text>
</g>
<!-- 5182&#45;&gt;41540 -->
<g id="edge9" class="edge">
<title>5182&#45;&gt;41540</title>
<path fill="none" stroke="#379469" stroke-width="2" d="M1281.08,-1495.42C1271.84,-1644.4 1269.45,-1669.15 1247.1,-1723.5"/>
<polygon fill="#379469" stroke="#379469" stroke-width="2" points="1243.8,-1731.4 1243.51,-1720.43 1244.33,-1728.84 1247.2,-1721.98 1247.66,-1722.17 1248.12,-1722.37 1245.25,-1729.23 1251.81,-1723.91 1243.8,-1731.4"/>
</g>
<!-- 5182&#45;&gt;49740 -->
<g id="edge10" class="edge">
<title>5182&#45;&gt;49740</title>
<path fill="none" stroke="#379469" stroke-width="2" d="M1272.98,-1495.66C1229.26,-1599.22 1217.22,-1623.73 1177.84,-1653.83"/>
<polygon fill="#379469" stroke="#379469" stroke-width="2" points="1170.96,-1658.92 1176.32,-1649.36 1172.72,-1657 1178.7,-1652.57 1179,-1652.97 1179.29,-1653.38 1173.32,-1657.8 1181.67,-1656.59 1170.96,-1658.92"/>
</g>
<!-- 5183 -->
<g id="node5" class="node">
<title>5183</title>
<polygon fill="none" stroke="black" points="1524.97,-1631.28 1524.97,-1646.19 1467.1,-1656.73 1385.26,-1656.73 1327.38,-1646.19 1327.38,-1631.28 1385.26,-1620.73 1467.1,-1620.73 1524.97,-1631.28"/>
<polygon fill="none" stroke="black" points="1528.97,-1627.94 1528.97,-1649.52 1467.46,-1660.73 1384.89,-1660.73 1323.38,-1649.52 1323.38,-1627.94 1384.89,-1616.73 1467.46,-1616.73 1528.97,-1627.94"/>
<text text-anchor="middle" x="1426.18" y="-1633.68" font-family="Times,serif" font-size="14.00">Generic XTS License</text>
</g>
<!-- 5183&#45;&gt;5181 -->
<g id="edge11" class="edge">
<title>5183&#45;&gt;5181</title>
<path fill="none" stroke="#dac767" stroke-width="2" d="M1381.37,-1617.11C1319.25,-1585.55 1296.87,-1561.99 1193.55,-1437.5"/>
<polygon fill="#dac767" stroke="#dac767" stroke-width="2" points="1188.18,-1431.02 1198.03,-1435.85 1190.2,-1432.68 1194.95,-1438.4 1194.56,-1438.72 1194.18,-1439.04 1189.43,-1433.32 1191.1,-1441.59 1188.18,-1431.02"/>
</g>
<!-- 5183&#45;&gt;29888 -->
<g id="edge12" class="edge">
<title>5183&#45;&gt;29888</title>
<path fill="none" stroke="#deb256" stroke-width="2" d="M1444.63,-1616.58C1446.25,-1613.21 1447.51,-1609.39 1448.68,-1604.48"/>
<polygon fill="#deb256" stroke="#deb256" stroke-width="2" points="1450.42,-1595.91 1452.84,-1606.61 1450.4,-1598.52 1448.92,-1605.81 1448.43,-1605.71 1447.94,-1605.61 1449.42,-1598.33 1444.02,-1604.82 1450.42,-1595.91"/>
</g>
<!-- 5183&#45;&gt;49740 -->
<g id="edge13" class="edge">
<title>5183&#45;&gt;49740</title>
<path fill="none" stroke="#379469" stroke-dasharray="5,2" d="M1388.71,-1661.16C1319.28,-1702.05 1292.42,-1711.46 1228.34,-1701.53"/>
<polygon fill="#379469" stroke="#379469" points="1218.49,-1699.89 1229.09,-1697.09 1222.22,-1700.51 1228.35,-1701.53 1228.35,-1701.53 1228.35,-1701.53 1222.22,-1700.51 1227.61,-1705.97 1218.49,-1699.89"/>
</g>
<!-- 49741 -->
<g id="node24" class="node">
<title>49741</title>
<polygon fill="none" stroke="#379469" points="1612.34,-1690.87 1612.34,-1705.78 1527.54,-1716.33 1407.6,-1716.33 1322.8,-1705.78 1322.8,-1690.87 1407.6,-1680.33 1527.54,-1680.33 1612.34,-1690.87"/>
<polygon fill="none" stroke="#379469" points="1616.34,-1687.34 1616.34,-1709.32 1527.79,-1720.33 1407.36,-1720.33 1318.8,-1709.32 1318.8,-1687.34 1407.36,-1676.33 1527.79,-1676.33 1616.34,-1687.34"/>
<text text-anchor="middle" x="1467.57" y="-1693.28" font-family="Times,serif" font-size="14.00">metaeffekt:Generic XTS License</text>
</g>
<!-- 5183&#45;&gt;49741 -->
<g id="edge14" class="edge">
<title>5183&#45;&gt;49741</title>
<path fill="none" stroke="#379469" stroke-width="2" d="M1440.27,-1661.01C1441.6,-1663.09 1442.82,-1664.99 1443.95,-1666.74"/>
<polygon fill="#379469" stroke="#379469" stroke-width="2" points="1448.62,-1673.84 1439.37,-1667.96 1446.8,-1671.97 1442.71,-1665.76 1443.13,-1665.49 1443.54,-1665.21 1447.63,-1671.42 1446.88,-1663.01 1448.62,-1673.84"/>
</g>
<!-- 70595 -->
<g id="node26" class="node">
<title>70595</title>
<polygon fill="none" stroke="#00876c" points="1584.54,-1314.79 1584.54,-1329.71 1514.01,-1340.25 1414.27,-1340.25 1343.75,-1329.71 1343.75,-1314.79 1414.27,-1304.25 1514.01,-1304.25 1584.54,-1314.79"/>
<polygon fill="none" stroke="#00876c" points="1588.54,-1311.35 1588.54,-1333.15 1514.31,-1344.25 1413.98,-1344.25 1339.75,-1333.15 1339.75,-1311.35 1413.98,-1300.25 1514.31,-1300.25 1588.54,-1311.35"/>
<text text-anchor="middle" x="1464.14" y="-1317.2" font-family="Times,serif" font-size="14.00">spdx:Generic XTS License</text>
</g>
<!-- 5183&#45;&gt;70595 -->
<g id="edge15" class="edge">
<title>5183&#45;&gt;70595</title>
<path fill="none" stroke="#00876c" stroke-width="2" d="M1437.72,-1616.35C1478.09,-1537.21 1479.49,-1519.32 1466.76,-1355.56"/>
<polygon fill="#00876c" stroke="#00876c" stroke-width="2" points="1466.09,-1346.99 1471.35,-1356.61 1466.79,-1349.51 1467.36,-1356.92 1466.87,-1356.96 1466.37,-1357 1465.79,-1349.59 1462.38,-1357.31 1466.09,-1346.99"/>
</g>
<!-- 5184 -->
<g id="node6" class="node">
<title>5184</title>
<text text-anchor="middle" x="371.11" y="-1540.45" font-family="Times,serif" font-size="14.00">$TEXT</text>
</g>
<!-- 5184&#45;&gt;5180 -->
<g id="edge16" class="edge">
<title>5184&#45;&gt;5180</title>
<path fill="none" stroke="#dac767" d="M399.71,-1549.53C483.14,-1560.89 508.66,-1558.35 644.35,-1513.04"/>
<polygon fill="#dac767" stroke="#dac767" points="645.38,-1516.39 653.75,-1509.9 643.16,-1509.75 645.38,-1516.39"/>
</g>
<!-- 5185 -->
<g id="node7" class="node">
<title>5185</title>
<text text-anchor="middle" x="210.53" y="-1576.47" font-family="Times,serif" font-size="14.00">$TEXT</text>
</g>
<!-- 5185&#45;&gt;5184 -->
<g id="edge17" class="edge">
<title>5185&#45;&gt;5184</title>
<path fill="none" stroke="#dac767" d="M238.97,-1581.4C263.29,-1580.5 279.87,-1576.18 331.92,-1558.75"/>
<polygon fill="#dac767" stroke="#dac767" points="333.01,-1562.07 341.38,-1555.56 330.78,-1555.43 333.01,-1562.07"/>
</g>
<!-- 5186 -->
<g id="node8" class="node">
<title>5186</title>
<text text-anchor="middle" x="1199.66" y="-1115.9" font-family="Times,serif" font-size="14.00">https://github.com/mhogomchungu/zuluCrypt/blob/master/external_libraries/tcplay/generic_xts.c</text>
</g>
<!-- 5186&#45;&gt;5180 -->
<g id="edge18" class="edge">
<title>5186&#45;&gt;5180</title>
<path fill="none" stroke="#dac767" d="M1181.85,-1138.63C954.28,-1364.57 915.23,-1401.84 804.21,-1452.1"/>
<polygon fill="#dac767" stroke="#dac767" points="803.03,-1448.8 795.33,-1456.08 805.89,-1455.19 803.03,-1448.8"/>
</g>
<!-- 29887 -->
<g id="node14" class="node">
<title>29887</title>
<ellipse fill="none" stroke="#deb256" cx="1824.02" cy="-1344.04" rx="156.62" ry="28.99"/>
<text text-anchor="middle" x="1824.02" y="-1347.24" font-family="Times,serif" font-size="14.00" fill="gray">ScancodeData</text>
<text text-anchor="middle" x="1824.02" y="-1330.74" font-family="Times,serif" font-size="14.00" fill="gray">e4631fb34fd0bb85f1367607789ee2ac</text>
</g>
<!-- 5186&#45;&gt;29887 -->
<g id="edge19" class="edge">
<title>5186&#45;&gt;29887</title>
<path fill="none" stroke="#deb256" d="M1242.17,-1138.85C1536.79,-1262.86 1609.15,-1292.53 1713.44,-1318.71"/>
<polygon fill="#deb256" stroke="#deb256" points="1712.29,-1322.03 1722.84,-1321.03 1713.97,-1315.23 1712.29,-1322.03"/>
</g>
<!-- 5550 -->
<g id="node9" class="node">
<title>5550</title>
<text text-anchor="middle" x="2168.15" y="-1237.95" font-family="Times,serif" font-size="14.00">LicenseType Permissive</text>
</g>
<!-- 5550&#45;&gt;29887 -->
<g id="edge20" class="edge">
<title>5550&#45;&gt;29887</title>
<path fill="none" stroke="#deb256" d="M2142.63,-1260.89C2084.82,-1300.9 2058.52,-1313.31 1967.12,-1326.5"/>
<polygon fill="#deb256" stroke="#deb256" points="1966.87,-1323 1957.45,-1327.86 1967.84,-1329.93 1966.87,-1323"/>
</g>
<!-- 6592 -->
<g id="node10" class="node">
<title>6592</title>
<text text-anchor="middle" x="1681.09" y="-417.29" font-family="Times,serif" font-size="14.00">[&quot;allowed&quot;]</text>
</g>
<!-- 9889 -->
<g id="node12" class="node">
<title>9889</title>
<ellipse fill="none" stroke="#e09d4b" cx="1550.87" cy="-757.18" rx="155.56" ry="28.99"/>
<text text-anchor="middle" x="1550.87" y="-760.38" font-family="Times,serif" font-size="14.00" fill="gray">FedoraEntry</text>
<text text-anchor="middle" x="1550.87" y="-743.88" font-family="Times,serif" font-size="14.00" fill="gray">14894f9a289115961f6f08be92c6fe92</text>
</g>
<!-- 6592&#45;&gt;9889 -->
<g id="edge21" class="edge">
<title>6592&#45;&gt;9889</title>
<path fill="none" stroke="#e09d4b" d="M1679.63,-440.29C1671.54,-537.38 1665.86,-553.07 1572.67,-718.54"/>
<polygon fill="#e09d4b" stroke="#e09d4b" points="1569.89,-716.33 1568.03,-726.77 1575.99,-719.77 1569.89,-716.33"/>
</g>
<!-- 6593 -->
<g id="node11" class="node">
<title>6593</title>
<text text-anchor="start" x="1778.94" y="-103.2" font-family="Times,serif" font-size="14.00">Fedora: </text>
<text text-anchor="start" x="1823.94" y="-103.2" font-family="Times,serif" font-weight="bold" font-size="14.00" fill="#228b22">allowed</text>
<text text-anchor="start" x="1615.07" y="-89.2" font-family="Times,serif" font-size="14.00">A license is allowed if Fedora determines that the license is a free software /</text>
<text text-anchor="start" x="1609.82" y="-75.2" font-family="Times,serif" font-size="14.00">open source license. At a high level, the inquiry involves determining whether</text>
<text text-anchor="start" x="1608.69" y="-61.2" font-family="Times,serif" font-size="14.00">the license provides software freedom, and (equivalently) making sure that the</text>
<text text-anchor="start" x="1618.82" y="-47.2" font-family="Times,serif" font-size="14.00">license does not place burdens on users&#39; exercise of its permissions that are</text>
<text text-anchor="start" x="1618.44" y="-33.2" font-family="Times,serif" font-size="14.00">inconsistent with evolving community norms and traditions around what is</text>
<text text-anchor="start" x="1610.19" y="-19.2" font-family="Times,serif" font-size="14.00">acceptable in a free software / open source license. See below for more on the</text>
<text text-anchor="start" x="1730.19" y="-5.2" font-family="Times,serif" font-size="14.00">history of Fedora licensing policy.</text>
</g>
<!-- 6593&#45;&gt;6592 -->
<g id="edge22" class="edge">
<title>6593&#45;&gt;6592</title>
<path fill="none" stroke="#e09d4b" d="M1812.41,-119.48C1798.28,-186.66 1780.39,-224.26 1695.04,-394.52"/>
<polygon fill="#e09d4b" stroke="#e09d4b" points="1692.03,-392.73 1690.67,-403.23 1698.28,-395.86 1692.03,-392.73"/>
</g>
<!-- 9889&#45;&gt;9890 -->
<g id="edge23" class="edge">
<title>9889&#45;&gt;9890</title>
<path fill="none" stroke="#e09d4b" d="M1552.98,-786.54C1564.13,-945.81 1557.68,-964.02 1429.09,-1137.83"/>
<polygon fill="#e09d4b" stroke="#e09d4b" points="1426.31,-1135.71 1423.17,-1145.83 1431.94,-1139.87 1426.31,-1135.71"/>
</g>
<!-- 29887&#45;&gt;29888 -->
<g id="edge24" class="edge">
<title>29887&#45;&gt;29888</title>
<path fill="none" stroke="#deb256" d="M1803.5,-1373.27C1716.79,-1496.17 1694.51,-1515.05 1537.81,-1552.12"/>
<polygon fill="#deb256" stroke="#deb256" points="1537.2,-1548.66 1528.27,-1554.36 1538.8,-1555.48 1537.2,-1548.66"/>
</g>
<!-- 29888&#45;&gt;49740 -->
<g id="edge25" class="edge">
<title>29888&#45;&gt;49740</title>
<path fill="none" stroke="#379469" stroke-dasharray="5,2" d="M1428.58,-1593.31C1352.66,-1657.91 1321.82,-1679.95 1263.05,-1685.07"/>
<polygon fill="#379469" stroke="#379469" points="1253.36,-1685.73 1263.03,-1680.56 1257.13,-1685.47 1263.33,-1685.05 1263.33,-1685.05 1263.33,-1685.05 1257.13,-1685.47 1263.64,-1689.54 1253.36,-1685.73"/>
</g>
<!-- 29889 -->
<g id="node16" class="node">
<title>29889</title>
<text text-anchor="middle" x="2113.18" y="-1448.08" font-family="Times,serif" font-size="14.00">$TEXT</text>
</g>
<!-- 29889&#45;&gt;29887 -->
<g id="edge26" class="edge">
<title>29889&#45;&gt;29887</title>
<path fill="none" stroke="#deb256" d="M2084.78,-1444.06C2032.26,-1427.16 2008.87,-1418.44 1900.64,-1374.92"/>
<polygon fill="#deb256" stroke="#deb256" points="1902.24,-1371.79 1891.65,-1371.3 1899.62,-1378.28 1902.24,-1371.79"/>
</g>
<!-- 35432 -->
<g id="node17" class="node">
<title>35432</title>
<text text-anchor="middle" x="266.5" y="-1048.51" font-family="Times,serif" font-size="14.00">LicenseTag (ScopedLicenseTag &quot;OrtLicenseCategorization&quot; &quot;permissive&quot; NoLicenseTagText)</text>
</g>
<!-- 39957 -->
<g id="node19" class="node">
<title>39957</title>
<ellipse fill="none" stroke="#d43d51" cx="779.47" cy="-1182.91" rx="157.68" ry="28.99"/>
<text text-anchor="middle" x="779.47" y="-1186.11" font-family="Times,serif" font-size="14.00" fill="gray">OrtLicenseCategorization</text>
<text text-anchor="middle" x="779.47" y="-1169.61" font-family="Times,serif" font-size="14.00" fill="gray">728246004e576e45c5dcc9ebdf684eea</text>
</g>
<!-- 35432&#45;&gt;39957 -->
<g id="edge27" class="edge">
<title>35432&#45;&gt;39957</title>
<path fill="none" stroke="#d43d51" d="M298.57,-1071.38C400.78,-1127.72 435.21,-1139.24 636.65,-1165.16"/>
<polygon fill="#d43d51" stroke="#d43d51" points="636.08,-1168.61 646.44,-1166.41 636.97,-1161.67 636.08,-1168.61"/>
</g>
<!-- 35433 -->
<g id="node18" class="node">
<title>35433</title>
<text text-anchor="middle" x="408.72" y="-692.21" font-family="Times,serif" font-size="14.00">LicenseTag (ScopedLicenseTag &quot;OrtLicenseCategorization&quot; &quot;include&#45;in&#45;notice&#45;file&quot; NoLicenseTagText)</text>
</g>
<!-- 35433&#45;&gt;39957 -->
<g id="edge28" class="edge">
<title>35433&#45;&gt;39957</title>
<path fill="none" stroke="#d43d51" d="M413.74,-715.23C469.95,-915.95 479.99,-932.01 736.93,-1147.31"/>
<polygon fill="#d43d51" stroke="#d43d51" points="734.32,-1149.68 744.23,-1153.42 738.81,-1144.32 734.32,-1149.68"/>
</g>
<!-- 39957&#45;&gt;5181 -->
<g id="edge29" class="edge">
<title>39957&#45;&gt;5181</title>
<path fill="none" stroke="#d43d51" d="M802.76,-1211.76C910.08,-1344.3 936.72,-1368.26 1067.55,-1389.14"/>
<polygon fill="#d43d51" stroke="#d43d51" points="1066.92,-1392.59 1077.34,-1390.67 1068,-1385.67 1066.92,-1392.59"/>
</g>
<!-- 41539 -->
<g id="node20" class="node">
<title>41539</title>
<ellipse fill="none" stroke="#379469" cx="1225.8" cy="-1829.31" rx="155.03" ry="28.99"/>
<text text-anchor="middle" x="1225.8" y="-1832.51" font-family="Times,serif" font-size="14.00" fill="gray">CavilLicenseChange</text>
<text text-anchor="middle" x="1225.8" y="-1816.01" font-family="Times,serif" font-size="14.00" fill="gray">6c160863eef6e1998b8baf50fa5e7c46</text>
</g>
<!-- 41539&#45;&gt;41540 -->
<g id="edge30" class="edge">
<title>41539&#45;&gt;41540</title>
<path fill="none" stroke="#379469" d="M1231.31,-1800.01C1231.55,-1797.03 1231.75,-1793.65 1231.95,-1789.63"/>
<polygon fill="#379469" stroke="#379469" points="1235.44,-1789.85 1232.36,-1779.71 1228.45,-1789.56 1235.44,-1789.85"/>
</g>
<!-- 49739 -->
<g id="node22" class="node">
<title>49739</title>
<ellipse fill="none" stroke="#379469" cx="839.46" cy="-1971.17" rx="159.28" ry="28.99"/>
<text text-anchor="middle" x="839.46" y="-1974.37" font-family="Times,serif" font-size="14.00" fill="gray">MetaeffektLicense</text>
<text text-anchor="middle" x="839.46" y="-1957.87" font-family="Times,serif" font-size="14.00" fill="gray">59092db791f901c23fe39216545a7450</text>
</g>
<!-- 49739&#45;&gt;49740 -->
<g id="edge31" class="edge">
<title>49739&#45;&gt;49740</title>
<path fill="none" stroke="#379469" d="M897.26,-1943.76C974.34,-1904.83 998.79,-1874.7 1113.63,-1714.42"/>
<polygon fill="#379469" stroke="#379469" points="1116.38,-1716.58 1119.36,-1706.41 1110.69,-1712.51 1116.38,-1716.58"/>
</g>
<!-- 49741&#45;&gt;49740 -->
<g id="edge32" class="edge">
<title>49741&#45;&gt;49740</title>
<path fill="none" stroke="#379469" stroke-width="2" d="M1407.1,-1720.7C1329.01,-1747.82 1299.47,-1745.42 1200.81,-1707.99"/>
<polygon fill="#379469" stroke="#379469" stroke-width="2" points="1192.67,-1704.88 1203.62,-1704.24 1195.25,-1705.33 1202.19,-1707.98 1202.01,-1708.45 1201.84,-1708.92 1194.89,-1706.26 1200.41,-1712.65 1192.67,-1704.88"/>
</g>
<!-- 70594 -->
<g id="node25" class="node">
<title>70594</title>
<ellipse fill="none" stroke="#00876c" cx="1546.29" cy="-1411.5" rx="157.15" ry="28.99"/>
<text text-anchor="middle" x="1546.29" y="-1414.7" font-family="Times,serif" font-size="14.00" fill="gray">LicenseLynx</text>
<text text-anchor="middle" x="1546.29" y="-1398.2" font-family="Times,serif" font-size="14.00" fill="gray">263dcf5665fc7540e872001a7b2ae2bc</text>
</g>
<!-- 70594&#45;&gt;5181 -->
<g id="edge33" class="edge">
<title>70594&#45;&gt;5181</title>
<path fill="none" stroke="#00876c" d="M1478.49,-1438.08C1400.24,-1466.28 1364.81,-1463.1 1239.12,-1425.5"/>
<polygon fill="#00876c" stroke="#00876c" points="1240.34,-1422.21 1229.76,-1422.68 1238.32,-1428.91 1240.34,-1422.21"/>
</g>
<!-- 70595&#45;&gt;5181 -->
<g id="edge34" class="edge">
<title>70595&#45;&gt;5181</title>
<path fill="none" stroke="#00876c" stroke-width="2" d="M1435.54,-1344.69C1365.19,-1399.33 1339.91,-1412.11 1261.61,-1409.42"/>
<polygon fill="#00876c" stroke="#00876c" stroke-width="2" points="1253.17,-1409.07 1263.35,-1404.99 1255.75,-1408.68 1263.18,-1408.99 1263.16,-1409.49 1263.14,-1409.99 1255.71,-1409.68 1262.97,-1413.98 1253.17,-1409.07"/>
</g>
</g>
</svg>
