<?xml version="1.0" encoding="UTF-8" standalone="no"?>
<!DOCTYPE svg PUBLIC "-//W3C//DTD SVG 1.1//EN"
 "http://www.w3.org/Graphics/SVG/1.1/DTD/svg11.dtd">
<!-- Generated by graphviz version 10.0.1 (0)
 -->
<!-- Pages: 1 -->
<svg width="3915pt" height="2896pt"
 viewBox="0.00 0.00 3915.00 2896.00" xmlns="http://www.w3.org/2000/svg" xmlns:xlink="http://www.w3.org/1999/xlink">
<g id="graph0" class="graph" transform="scale(1 1) rotate(0) translate(4 2892)">
<polygon fill="white" stroke="none" points="-4,4 -4,-2892 3911,-2892 3911,4 -4,4"/>
<!-- 5 -->
<g id="node1" class="node">
<title>5</title>
<text text-anchor="start" x="1205.64" y="-439.28" font-family="Times,serif" font-size="14.00">OSI: </text>
<text text-anchor="start" x="1234.89" y="-439.28" font-family="Times,serif" font-weight="bold" font-size="14.00" fill="#8b0000">Rejected</text>
</g>
<!-- 1984 -->
<g id="node6" class="node">
<title>1984</title>
<ellipse fill="none" stroke="#dac767" cx="1483.73" cy="-723.01" rx="155.56" ry="28.99"/>
<text text-anchor="middle" x="1483.73" y="-726.21" font-family="Times,serif" font-size="14.00" fill="gray">SPDXLicense</text>
<text text-anchor="middle" x="1483.73" y="-709.71" font-family="Times,serif" font-size="14.00" fill="gray">60f4557635e08ff9cd7befc001d87679</text>
</g>
<!-- 5&#45;&gt;1984 -->
<g id="edge1" class="edge">
<title>5&#45;&gt;1984</title>
<path fill="none" stroke="#dac767" d="M1262.67,-460.97C1319.65,-519.26 1333.96,-536.19 1453.76,-685.62"/>
<polygon fill="#dac767" stroke="#dac767" points="1450.74,-687.44 1459.72,-693.06 1456.2,-683.07 1450.74,-687.44"/>
</g>
<!-- 1975 -->
<g id="node2" class="node">
<title>1975</title>
<text text-anchor="middle" x="1501.97" y="-225.75" font-family="Times,serif" font-size="14.00">$TEXT</text>
</g>
<!-- 1975&#45;&gt;1984 -->
<g id="edge2" class="edge">
<title>1975&#45;&gt;1984</title>
<path fill="none" stroke="#dac767" d="M1496.17,-248.52C1452.52,-382.38 1451.76,-399.72 1479.73,-682.67"/>
<polygon fill="#dac767" stroke="#dac767" points="1476.21,-682.61 1480.67,-692.22 1483.17,-681.92 1476.21,-682.61"/>
</g>
<!-- 1976 -->
<g id="node3" class="node">
<title>1976</title>
<text text-anchor="middle" x="1424.11" y="-13.28" font-family="Times,serif" font-size="14.00">$TEXT</text>
</g>
<!-- 1976&#45;&gt;1975 -->
<g id="edge3" class="edge">
<title>1976&#45;&gt;1975</title>
<path fill="none" stroke="#dac767" d="M1430.53,-36.02C1446.52,-80.06 1452,-94.99 1491.54,-202.46"/>
<polygon fill="#dac767" stroke="#dac767" points="1488.21,-203.55 1494.95,-211.73 1494.78,-201.14 1488.21,-203.55"/>
</g>
<!-- 1977 -->
<g id="node4" class="node">
<title>1977</title>
<text text-anchor="middle" x="1070.06" y="-1092.85" font-family="Times,serif" font-size="14.00">https://www.gnu.org/licenses/old&#45;licenses/fdl&#45;1.1.txt</text>
</g>
<!-- 1977&#45;&gt;1984 -->
<g id="edge4" class="edge">
<title>1977&#45;&gt;1984</title>
<path fill="none" stroke="#dac767" d="M1078.41,-1079.92C1178.54,-864.59 1193.93,-841.29 1407.09,-753.98"/>
<polygon fill="#dac767" stroke="#dac767" points="1408.39,-757.23 1416.32,-750.21 1405.74,-750.75 1408.39,-757.23"/>
</g>
<!-- 17743 -->
<g id="node21" class="node">
<title>17743</title>
<ellipse fill="none" stroke="#deb256" cx="836.98" cy="-1624.21" rx="158.75" ry="28.99"/>
<text text-anchor="middle" x="836.98" y="-1627.41" font-family="Times,serif" font-size="14.00" fill="gray">ScancodeData</text>
<text text-anchor="middle" x="836.98" y="-1610.91" font-family="Times,serif" font-size="14.00" fill="gray">bc4caf9b8570071c698b63604f639b34</text>
</g>
<!-- 1977&#45;&gt;17743 -->
<g id="edge5" class="edge">
<title>1977&#45;&gt;17743</title>
<path fill="none" stroke="#deb256" d="M1053.85,-1115.68C850.31,-1339.05 839.37,-1356.72 837.28,-1583.59"/>
<polygon fill="#deb256" stroke="#deb256" points="833.78,-1583.36 837.2,-1593.39 840.78,-1583.42 833.78,-1583.36"/>
</g>
<!-- 1983 -->
<g id="node5" class="node">
<title>1983</title>
<text text-anchor="middle" x="1582.78" y="-13.5" font-family="Times,serif" font-size="14.00">$TEXT</text>
</g>
<!-- 1983&#45;&gt;1975 -->
<g id="edge6" class="edge">
<title>1983&#45;&gt;1975</title>
<path fill="none" stroke="#dac767" d="M1567.68,-36.25C1531.57,-79.33 1526.67,-94.46 1507.16,-202.03"/>
<polygon fill="#dac767" stroke="#dac767" points="1503.76,-201.13 1505.42,-211.6 1510.65,-202.38 1503.76,-201.13"/>
</g>
<!-- 1985 -->
<g id="node7" class="node">
<title>1985</title>
<polygon fill="none" stroke="black" points="2034.47,-1317.42 2034.47,-1332.33 1945.12,-1342.87 1818.76,-1342.87 1729.41,-1332.33 1729.41,-1317.42 1818.76,-1306.87 1945.12,-1306.87 2034.47,-1317.42"/>
<polygon fill="none" stroke="black" points="2038.47,-1313.86 2038.47,-1335.88 1945.36,-1346.87 1818.53,-1346.87 1725.41,-1335.88 1725.41,-1313.86 1818.53,-1302.87 1945.36,-1302.87 2038.47,-1313.86"/>
<polygon fill="none" stroke="black" points="2042.47,-1310.31 2042.47,-1339.44 1945.59,-1350.87 1818.29,-1350.87 1721.41,-1339.44 1721.41,-1310.31 1818.29,-1298.87 1945.59,-1298.87 2042.47,-1310.31"/>
<text text-anchor="middle" x="1881.94" y="-1319.82" font-family="Times,serif" font-size="14.00">spdx:GFDL&#45;1.1&#45;no&#45;invariants&#45;only</text>
</g>
<!-- 1984&#45;&gt;1985 -->
<g id="edge7" class="edge">
<title>1984&#45;&gt;1985</title>
<path fill="none" stroke="#dac767" d="M1503.18,-751.91C1602.39,-899.28 1619.37,-925.02 1858.45,-1289.1"/>
<polygon fill="#dac767" stroke="#dac767" points="1855.44,-1290.89 1863.86,-1297.33 1861.29,-1287.05 1855.44,-1290.89"/>
</g>
<!-- 7207 -->
<g id="node15" class="node">
<title>7207</title>
<polygon fill="none" stroke="#e09d4b" points="2686.25,-1189.8 2686.25,-1204.71 2591.71,-1215.25 2458.01,-1215.25 2363.47,-1204.71 2363.47,-1189.8 2458.01,-1179.25 2591.71,-1179.25 2686.25,-1189.8"/>
<polygon fill="none" stroke="#e09d4b" points="2690.25,-1186.22 2690.25,-1208.29 2591.93,-1219.25 2457.78,-1219.25 2359.47,-1208.29 2359.47,-1186.22 2457.78,-1175.25 2591.93,-1175.25 2690.25,-1186.22"/>
<text text-anchor="middle" x="2524.86" y="-1192.2" font-family="Times,serif" font-size="14.00">Fedora:GFDL&#45;1.1&#45;no&#45;invariants&#45;only</text>
</g>
<!-- 1985&#45;&gt;7207 -->
<g id="edge8" class="edge">
<title>1985&#45;&gt;7207</title>
<path fill="none" stroke="#e09d4b" stroke-width="2" d="M1957.75,-1299.83C2176.92,-1227.57 2264.66,-1200.58 2348.35,-1193.57"/>
<polygon fill="#e09d4b" stroke="#e09d4b" stroke-width="2" points="2356.91,-1192.94 2347.26,-1198.16 2354.39,-1193.63 2346.97,-1194.17 2346.93,-1193.67 2346.9,-1193.18 2354.31,-1192.63 2346.6,-1189.19 2356.91,-1192.94"/>
</g>
<!-- 17744 -->
<g id="node22" class="node">
<title>17744</title>
<polygon fill="none" stroke="black" points="1760.91,-1628.65 1760.91,-1643.56 1667.02,-1654.1 1534.24,-1654.1 1440.35,-1643.56 1440.35,-1628.65 1534.24,-1618.1 1667.02,-1618.1 1760.91,-1628.65"/>
<polygon fill="none" stroke="black" points="1764.91,-1625.07 1764.91,-1647.14 1667.25,-1658.1 1534.01,-1658.1 1436.35,-1647.14 1436.35,-1625.07 1534.01,-1614.1 1667.25,-1614.1 1764.91,-1625.07"/>
<text text-anchor="middle" x="1600.63" y="-1631.05" font-family="Times,serif" font-size="14.00">scancode:gfdl&#45;1.1&#45;no&#45;invariants&#45;only</text>
</g>
<!-- 1985&#45;&gt;17744 -->
<g id="edge9" class="edge">
<title>1985&#45;&gt;17744</title>
<path fill="none" stroke="#deb256" stroke-width="2" d="M1852.4,-1351.37C1795.7,-1408.88 1673.11,-1544.55 1622.78,-1605.55"/>
<polygon fill="#deb256" stroke="#deb256" stroke-width="2" points="1617.43,-1612.1 1620.27,-1601.51 1618.66,-1609.8 1623.37,-1604.04 1623.75,-1604.35 1624.14,-1604.67 1619.44,-1610.43 1627.24,-1607.2 1617.43,-1612.1"/>
</g>
<!-- 49525 -->
<g id="node33" class="node">
<title>49525</title>
<polygon fill="none" stroke="#379469" points="2441.68,-1746.87 2441.68,-1761.79 2350.39,-1772.33 2221.27,-1772.33 2129.98,-1761.79 2129.98,-1746.87 2221.27,-1736.33 2350.39,-1736.33 2441.68,-1746.87"/>
<polygon fill="none" stroke="#379469" points="2445.68,-1743.31 2445.68,-1765.35 2350.62,-1776.33 2221.04,-1776.33 2125.98,-1765.35 2125.98,-1743.31 2221.04,-1732.33 2350.62,-1732.33 2445.68,-1743.31"/>
<text text-anchor="middle" x="2285.83" y="-1749.28" font-family="Times,serif" font-size="14.00">metaeffekt:GFDL&#45;1.1&#45;no&#45;invariants</text>
</g>
<!-- 1985&#45;&gt;49525 -->
<g id="edge10" class="edge">
<title>1985&#45;&gt;49525</title>
<path fill="none" stroke="#379469" stroke-width="2" d="M1909.34,-1351.11C2157.6,-1588.89 2180.15,-1611.6 2262.83,-1723.17"/>
<polygon fill="#379469" stroke="#379469" stroke-width="2" points="2267.97,-1730.12 2258.4,-1724.76 2266.04,-1728.36 2261.62,-1722.38 2262.02,-1722.08 2262.42,-1721.78 2266.85,-1727.76 2265.64,-1719.4 2267.97,-1730.12"/>
</g>
<!-- 1986 -->
<g id="node8" class="node">
<title>1986</title>
<polygon fill="none" stroke="black" points="2213.42,-1376.81 2213.42,-1391.72 2136.73,-1402.27 2028.27,-1402.27 1951.58,-1391.72 1951.58,-1376.81 2028.27,-1366.27 2136.73,-1366.27 2213.42,-1376.81"/>
<polygon fill="none" stroke="black" points="2217.42,-1373.32 2217.42,-1395.21 2137.01,-1406.27 2028,-1406.27 1947.58,-1395.21 1947.58,-1373.32 2028,-1362.27 2137.01,-1362.27 2217.42,-1373.32"/>
<text text-anchor="middle" x="2082.5" y="-1379.22" font-family="Times,serif" font-size="14.00">GFDL&#45;1.1&#45;no&#45;invariants&#45;only</text>
</g>
<!-- 1986&#45;&gt;1985 -->
<g id="edge11" class="edge">
<title>1986&#45;&gt;1985</title>
<path fill="none" stroke="black" stroke-width="2" d="M2054.21,-1361.96C2047.51,-1356.78 2041.4,-1352.18 2035.7,-1348.11"/>
<polygon fill="black" stroke="black" stroke-width="2" points="2028.48,-1343.13 2039.26,-1345.1 2030.87,-1344.17 2037,-1348.39 2036.71,-1348.8 2036.43,-1349.22 2030.3,-1345 2034.16,-1352.51 2028.48,-1343.13"/>
</g>
<!-- 1986&#45;&gt;7207 -->
<g id="edge12" class="edge">
<title>1986&#45;&gt;7207</title>
<path fill="none" stroke="#e09d4b" stroke-width="2" d="M2134.96,-1361.87C2340.24,-1274.22 2386.47,-1254.55 2460.41,-1223.9"/>
<polygon fill="#e09d4b" stroke="#e09d4b" stroke-width="2" points="2468.31,-1220.63 2460.79,-1228.61 2466.13,-1222.07 2459.26,-1224.92 2459.07,-1224.45 2458.88,-1223.99 2465.75,-1221.15 2457.35,-1220.3 2468.31,-1220.63"/>
</g>
<!-- 1986&#45;&gt;17744 -->
<g id="edge13" class="edge">
<title>1986&#45;&gt;17744</title>
<path fill="none" stroke="black" stroke-width="2" d="M2041.19,-1406.65C1792.6,-1541.33 1750.22,-1564.02 1657.39,-1608.85"/>
<polygon fill="black" stroke="black" stroke-width="2" points="1649.53,-1612.64 1656.59,-1604.24 1651.62,-1611.08 1658.32,-1607.85 1658.54,-1608.3 1658.76,-1608.75 1652.06,-1611.98 1660.49,-1612.35 1649.53,-1612.64"/>
</g>
<!-- 41546 -->
<g id="node30" class="node">
<title>41546</title>
<polygon fill="none" stroke="#379469" points="2386.28,-1005.16 2386.28,-1020.07 2296.61,-1030.61 2169.79,-1030.61 2080.12,-1020.07 2080.12,-1005.16 2169.79,-994.61 2296.61,-994.61 2386.28,-1005.16"/>
<polygon fill="none" stroke="#379469" points="2390.28,-1001.6 2390.28,-1023.63 2296.84,-1034.61 2169.56,-1034.61 2076.12,-1023.63 2076.12,-1001.6 2169.56,-990.61 2296.84,-990.61 2390.28,-1001.6"/>
<text text-anchor="middle" x="2233.2" y="-1007.56" font-family="Times,serif" font-size="14.00">cavil:GFDL&#45;1.1&#45;no&#45;invariants&#45;only</text>
</g>
<!-- 1986&#45;&gt;41546 -->
<g id="edge14" class="edge">
<title>1986&#45;&gt;41546</title>
<path fill="none" stroke="#379469" stroke-width="2" d="M2094.01,-1361.78C2197.65,-1159.2 2208.62,-1135.88 2226.75,-1045.58"/>
<polygon fill="#379469" stroke="#379469" stroke-width="2" points="2228.41,-1037.21 2230.87,-1047.9 2228.4,-1039.82 2226.95,-1047.12 2226.46,-1047.02 2225.97,-1046.92 2227.42,-1039.63 2222.05,-1046.15 2228.41,-1037.21"/>
</g>
<!-- 1986&#45;&gt;49525 -->
<g id="edge15" class="edge">
<title>1986&#45;&gt;49525</title>
<path fill="none" stroke="#379469" stroke-dasharray="5,2" d="M2099.93,-1406.6C2244.91,-1592.47 2258.01,-1612.3 2279.5,-1721.35"/>
<polygon fill="#379469" stroke="#379469" points="2281.37,-1730.99 2275.05,-1722.03 2280.65,-1727.28 2279.46,-1721.17 2279.46,-1721.17 2279.46,-1721.17 2280.65,-1727.28 2283.88,-1720.31 2281.37,-1730.99"/>
</g>
<!-- 1987 -->
<g id="node9" class="node">
<title>1987</title>
<polygon fill="none" stroke="black" points="2478.95,-1689.49 2478.95,-1704.4 2329.89,-1714.95 2119.09,-1714.95 1970.03,-1704.4 1970.03,-1689.49 2119.09,-1678.95 2329.89,-1678.95 2478.95,-1689.49"/>
<polygon fill="none" stroke="black" points="2482.95,-1685.76 2482.95,-1708.13 2330.04,-1718.95 2118.95,-1718.95 1966.03,-1708.13 1966.03,-1685.76 2118.95,-1674.95 2330.04,-1674.95 2482.95,-1685.76"/>
<text text-anchor="middle" x="2224.49" y="-1691.9" font-family="Times,serif" font-size="14.00">GNU Free Documentation License v1.1 only &#45; no invariants</text>
</g>
<!-- 1987&#45;&gt;1985 -->
<g id="edge16" class="edge">
<title>1987&#45;&gt;1985</title>
<path fill="none" stroke="#dac767" stroke-width="2" d="M2209.52,-1674.74C2140.1,-1572.04 2123.43,-1554.29 1917.71,-1358.84"/>
<polygon fill="#dac767" stroke="#dac767" stroke-width="2" points="1911.45,-1352.89 1921.8,-1356.52 1913.65,-1354.3 1919.04,-1359.42 1918.7,-1359.78 1918.36,-1360.14 1912.96,-1355.02 1915.6,-1363.04 1911.45,-1352.89"/>
</g>
<!-- 1987&#45;&gt;7207 -->
<g id="edge17" class="edge">
<title>1987&#45;&gt;7207</title>
<path fill="none" stroke="#e09d4b" stroke-dasharray="5,2" d="M2248.37,-1674.66C2479.69,-1458.57 2491.66,-1441.46 2520.38,-1230.54"/>
<polygon fill="#e09d4b" stroke="#e09d4b" points="2521.68,-1220.9 2524.8,-1231.41 2521.17,-1224.65 2520.34,-1230.81 2520.34,-1230.81 2520.34,-1230.81 2521.17,-1224.65 2515.88,-1230.21 2521.68,-1220.9"/>
</g>
<!-- 1987&#45;&gt;17744 -->
<g id="edge18" class="edge">
<title>1987&#45;&gt;17744</title>
<path fill="none" stroke="#deb256" stroke-width="2" d="M2143.19,-1719.35C1905.5,-1783.77 1868.71,-1777.57 1652.62,-1663.66"/>
<polygon fill="#deb256" stroke="#deb256" stroke-width="2" points="1645.01,-1659.65 1655.96,-1660.34 1647.51,-1660.4 1654.09,-1663.88 1653.86,-1664.32 1653.62,-1664.76 1647.05,-1661.29 1651.76,-1668.3 1645.01,-1659.65"/>
</g>
<!-- 1987&#45;&gt;49525 -->
<g id="edge19" class="edge">
<title>1987&#45;&gt;49525</title>
<path fill="none" stroke="#379469" stroke-dasharray="5,2" d="M2248.4,-1719.3C2250.34,-1721.11 2252.12,-1722.78 2253.77,-1724.32"/>
<polygon fill="#379469" stroke="#379469" points="2261.07,-1731.14 2250.69,-1727.6 2258.3,-1728.56 2253.76,-1724.31 2253.76,-1724.31 2253.76,-1724.31 2258.3,-1728.56 2256.84,-1721.03 2261.07,-1731.14"/>
</g>
<!-- 67214 -->
<g id="node38" class="node">
<title>67214</title>
<polygon fill="none" stroke="#00876c" points="1836.81,-1380.2 1836.81,-1395.11 1675.09,-1405.65 1446.39,-1405.65 1284.68,-1395.11 1284.68,-1380.2 1446.39,-1369.65 1675.09,-1369.65 1836.81,-1380.2"/>
<polygon fill="none" stroke="#00876c" points="1840.81,-1376.45 1840.81,-1398.85 1675.22,-1409.65 1446.26,-1409.65 1280.68,-1398.85 1280.68,-1376.45 1446.26,-1365.65 1675.22,-1365.65 1840.81,-1376.45"/>
<text text-anchor="middle" x="1560.74" y="-1382.6" font-family="Times,serif" font-size="14.00">spdx:GNU Free Documentation License v1.1 only &#45; no invariants</text>
</g>
<!-- 1987&#45;&gt;67214 -->
<g id="edge20" class="edge">
<title>1987&#45;&gt;67214</title>
<path fill="none" stroke="#00876c" stroke-width="2" d="M2029.94,-1680.78C1816.56,-1657.7 1770.8,-1617.35 1588.39,-1417.93"/>
<polygon fill="#00876c" stroke="#00876c" stroke-width="2" points="1582.65,-1411.65 1592.72,-1415.99 1584.75,-1413.2 1589.77,-1418.69 1589.4,-1419.03 1589.03,-1419.37 1584.01,-1413.88 1586.08,-1422.07 1582.65,-1411.65"/>
</g>
<!-- 1988 -->
<g id="node10" class="node">
<title>1988</title>
<text text-anchor="middle" x="1056.63" y="-280.04" font-family="Times,serif" font-size="14.00">SPDXLicense:</text>
<text text-anchor="middle" x="1056.63" y="-263.54" font-family="Times,serif" font-size="14.00">This license was released March 2000. The identifier GFDL&#45;1.1&#45;only&#45;no&#45;invariants</text>
<text text-anchor="middle" x="1056.63" y="-247.04" font-family="Times,serif" font-size="14.00">should only be used when there are no Invariant Sections, Front&#45;Cover Texts or</text>
<text text-anchor="middle" x="1056.63" y="-230.54" font-family="Times,serif" font-size="14.00">Back&#45;Cover Texts. See GFDL&#45;1.1&#45;only and GFDL&#45;1.1&#45;only&#45;invariants for</text>
<text text-anchor="middle" x="1056.63" y="-214.04" font-family="Times,serif" font-size="14.00">alternatives.</text>
</g>
<!-- 1988&#45;&gt;1984 -->
<g id="edge21" class="edge">
<title>1988&#45;&gt;1984</title>
<path fill="none" stroke="#dac767" d="M1104.26,-297.25C1196.71,-385.57 1230.09,-424.01 1451.83,-685.41"/>
<polygon fill="#dac767" stroke="#dac767" points="1449.01,-687.49 1458.14,-692.85 1454.34,-682.96 1449.01,-687.49"/>
</g>
<!-- 6668 -->
<g id="node11" class="node">
<title>6668</title>
<text text-anchor="middle" x="3507.89" y="-627.11" font-family="Times,serif" font-size="14.00">[&quot;allowed&#45;documentation&quot;]</text>
</g>
<!-- 7206 -->
<g id="node14" class="node">
<title>7206</title>
<ellipse fill="none" stroke="#e09d4b" cx="3081.28" cy="-877.64" rx="158.22" ry="28.99"/>
<text text-anchor="middle" x="3081.28" y="-880.84" font-family="Times,serif" font-size="14.00" fill="gray">FedoraEntry</text>
<text text-anchor="middle" x="3081.28" y="-864.34" font-family="Times,serif" font-size="14.00" fill="gray">261ad7a10a30cb003922e8e332e1efd1</text>
</g>
<!-- 6668&#45;&gt;7206 -->
<g id="edge22" class="edge">
<title>6668&#45;&gt;7206</title>
<path fill="none" stroke="#e09d4b" d="M3478.93,-650.06C3387.75,-706.33 3361.18,-721.56 3141.14,-844.27"/>
<polygon fill="#e09d4b" stroke="#e09d4b" points="3139.55,-841.15 3132.52,-849.07 3142.96,-847.26 3139.55,-841.15"/>
</g>
<!-- 6669 -->
<g id="node12" class="node">
<title>6669</title>
<text text-anchor="start" x="3718.69" y="-456.65" font-family="Times,serif" font-size="14.00">Fedora: </text>
<text text-anchor="start" x="3763.69" y="-456.65" font-family="Times,serif" font-weight="bold" font-size="14.00" fill="#000000">allowed&#45;documentation</text>
</g>
<!-- 6669&#45;&gt;6668 -->
<g id="edge23" class="edge">
<title>6669&#45;&gt;6668</title>
<path fill="none" stroke="#e09d4b" d="M3779.19,-478.57C3721.56,-512.97 3697.32,-526.65 3549.73,-608.86"/>
<polygon fill="#e09d4b" stroke="#e09d4b" points="3548.19,-605.71 3541.15,-613.64 3551.59,-611.83 3548.19,-605.71"/>
</g>
<!-- 7203 -->
<g id="node13" class="node">
<title>7203</title>
<polygon fill="none" stroke="black" points="2639.55,-1533 2639.55,-1547.91 2617.38,-1558.45 2586.02,-1558.45 2563.84,-1547.91 2563.84,-1533 2586.02,-1522.45 2617.38,-1522.45 2639.55,-1533"/>
<text text-anchor="middle" x="2601.7" y="-1535.4" font-family="Times,serif" font-size="14.00">GFDL</text>
</g>
<!-- 7203&#45;&gt;7207 -->
<g id="edge24" class="edge">
<title>7203&#45;&gt;7207</title>
<path fill="none" stroke="#e09d4b" stroke-dasharray="5,2" d="M2604.89,-1522.1C2630.93,-1371.73 2629.65,-1356.13 2545.89,-1229.01"/>
<polygon fill="#e09d4b" stroke="#e09d4b" points="2540.39,-1220.68 2549.66,-1226.54 2542.47,-1223.83 2545.9,-1229.02 2545.9,-1229.02 2545.9,-1229.02 2542.47,-1223.83 2542.15,-1231.5 2540.39,-1220.68"/>
</g>
<!-- 7203&#45;&gt;49525 -->
<g id="edge25" class="edge">
<title>7203&#45;&gt;49525</title>
<path fill="none" stroke="#379469" stroke-dasharray="5,2" d="M2589.94,-1558.73C2523.74,-1661.29 2507.34,-1677.38 2361.46,-1728.39"/>
<polygon fill="#379469" stroke="#379469" points="2352.35,-1731.56 2360.31,-1724.02 2355.92,-1730.32 2361.79,-1728.27 2361.79,-1728.27 2361.79,-1728.27 2355.92,-1730.32 2363.27,-1732.52 2352.35,-1731.56"/>
</g>
<!-- 7206&#45;&gt;7207 -->
<g id="edge26" class="edge">
<title>7206&#45;&gt;7207</title>
<path fill="none" stroke="#e09d4b" d="M3037.42,-905.8C2921.1,-980.24 2883.68,-1001.22 2575.66,-1169.5"/>
<polygon fill="#e09d4b" stroke="#e09d4b" points="2574.43,-1166.19 2567.33,-1174.05 2577.78,-1172.33 2574.43,-1166.19"/>
</g>
<!-- 12439 -->
<g id="node16" class="node">
<title>12439</title>
<text text-anchor="middle" x="739.97" y="-2034.25" font-family="Times,serif" font-size="14.00">LicenseType Copyleft Limited</text>
</g>
<!-- 12439&#45;&gt;17743 -->
<g id="edge27" class="edge">
<title>12439&#45;&gt;17743</title>
<path fill="none" stroke="#deb256" d="M736.77,-2021.4C709.51,-1868.39 711.61,-1852.2 815.36,-1663.44"/>
<polygon fill="#deb256" stroke="#deb256" points="818.38,-1665.22 820.13,-1654.77 812.24,-1661.84 818.38,-1665.22"/>
</g>
<!-- 17733 -->
<g id="node17" class="node">
<title>17733</title>
<text text-anchor="middle" x="475.21" y="-2013.43" font-family="Times,serif" font-size="14.00">http://www.gnu.org/licenses/old&#45;licenses/fdl&#45;1.1.txt</text>
</g>
<!-- 17733&#45;&gt;17743 -->
<g id="edge28" class="edge">
<title>17733&#45;&gt;17743</title>
<path fill="none" stroke="#deb256" d="M483.6,-2000.53C549.69,-1859.53 562.5,-1844.21 792.39,-1659.92"/>
<polygon fill="#deb256" stroke="#deb256" points="794.57,-1662.65 800.19,-1653.67 790.2,-1657.19 794.57,-1662.65"/>
</g>
<!-- 17735 -->
<g id="node18" class="node">
<title>17735</title>
<text text-anchor="middle" x="377.25" y="-1682.69" font-family="Times,serif" font-size="14.00">http://www.gnu.org/licenses/fdl&#45;1.1.txt</text>
</g>
<!-- 17735&#45;&gt;17743 -->
<g id="edge29" class="edge">
<title>17735&#45;&gt;17743</title>
<path fill="none" stroke="#deb256" d="M490.86,-1673.24C538.14,-1666.97 590.59,-1659.57 700.3,-1643.84"/>
<polygon fill="#deb256" stroke="#deb256" points="700.55,-1647.34 709.95,-1642.45 699.56,-1640.41 700.55,-1647.34"/>
</g>
<!-- 17736 -->
<g id="node19" class="node">
<title>17736</title>
<text text-anchor="middle" x="357.82" y="-1874.11" font-family="Times,serif" font-size="14.00">http://www.gnu.org/licenses/old&#45;licenses/fdl&#45;1.1.txt</text>
</g>
<!-- 17736&#45;&gt;17743 -->
<g id="edge30" class="edge">
<title>17736&#45;&gt;17743</title>
<path fill="none" stroke="#deb256" d="M381.09,-1861.18C483.94,-1781.99 509.03,-1768.27 765.08,-1655.76"/>
<polygon fill="#deb256" stroke="#deb256" points="766.33,-1659.03 774.08,-1651.81 763.52,-1652.63 766.33,-1659.03"/>
</g>
<!-- 17737 -->
<g id="node20" class="node">
<title>17737</title>
<text text-anchor="middle" x="353.33" y="-1313.02" font-family="Times,serif" font-size="14.00">http://www.lysator.liu.se/~kjell&#45;e/tekla/linux/security/fdl.html</text>
</g>
<!-- 17737&#45;&gt;17743 -->
<g id="edge31" class="edge">
<title>17737&#45;&gt;17743</title>
<path fill="none" stroke="#deb256" d="M368.05,-1336.01C472.46,-1462.96 492.23,-1477.77 762.93,-1592.83"/>
<polygon fill="#deb256" stroke="#deb256" points="761.54,-1596.04 772.11,-1596.73 764.27,-1589.6 761.54,-1596.04"/>
</g>
<!-- 17743&#45;&gt;17744 -->
<g id="edge32" class="edge">
<title>17743&#45;&gt;17744</title>
<path fill="none" stroke="#deb256" d="M951.63,-1644.6C1068.88,-1663.1 1145.95,-1662.47 1424.81,-1646.47"/>
<polygon fill="#deb256" stroke="#deb256" points="1424.81,-1649.97 1434.59,-1645.9 1424.4,-1642.99 1424.81,-1649.97"/>
</g>
<!-- 17744&#45;&gt;1985 -->
<g id="edge33" class="edge">
<title>17744&#45;&gt;1985</title>
<path fill="none" stroke="#00876c" stroke-width="2" d="M1626.05,-1613.76C1679.46,-1560.16 1802.45,-1424.31 1856.17,-1359.81"/>
<polygon fill="#00876c" stroke="#00876c" stroke-width="2" points="1861.72,-1353.08 1858.83,-1363.65 1860.47,-1355.37 1855.74,-1361.11 1855.36,-1360.79 1854.97,-1360.47 1859.7,-1354.73 1851.89,-1357.92 1861.72,-1353.08"/>
</g>
<!-- 17744&#45;&gt;49525 -->
<g id="edge34" class="edge">
<title>17744&#45;&gt;49525</title>
<path fill="none" stroke="#379469" stroke-dasharray="5,2" d="M1638.61,-1658.42C1905.6,-1814.99 1944.95,-1829.6 2187.5,-1776.56"/>
<polygon fill="#379469" stroke="#379469" points="2197.26,-1774.41 2188.46,-1780.95 2193.57,-1775.22 2187.5,-1776.56 2187.5,-1776.56 2187.5,-1776.56 2193.57,-1775.22 2186.53,-1772.16 2197.26,-1774.41"/>
</g>
<!-- 17745 -->
<g id="node23" class="node">
<title>17745</title>
<text text-anchor="middle" x="205.32" y="-1605.46" font-family="Times,serif" font-size="14.00">ScancodeData:</text>
<text text-anchor="middle" x="205.32" y="-1588.96" font-family="Times,serif" font-size="14.00">Per SPDX.org, this license was released March 2000</text>
<text text-anchor="middle" x="205.32" y="-1572.46" font-family="Times,serif" font-size="14.00">The identifier GFDL&#45;1.1&#45;no&#45;invariants&#45;only should only be used when</text>
<text text-anchor="middle" x="205.32" y="-1555.96" font-family="Times,serif" font-size="14.00">there are no Invariant Sections, Front&#45;Cover Texts or Back&#45;Cover Texts.</text>
<text text-anchor="middle" x="205.32" y="-1539.46" font-family="Times,serif" font-size="14.00">See GFDL&#45;1.1&#45;only and GFDL&#45;1.1&#45;invariants&#45;only for alternatives.</text>
</g>
<!-- 17745&#45;&gt;17743 -->
<g id="edge35" class="edge">
<title>17745&#45;&gt;17743</title>
<path fill="none" stroke="#deb256" d="M410.49,-1609.92C468.51,-1614.84 542.08,-1617.44 667.87,-1620.45"/>
<polygon fill="#deb256" stroke="#deb256" points="667.41,-1623.94 677.49,-1620.67 667.58,-1616.94 667.41,-1623.94"/>
</g>
<!-- 17746 -->
<g id="node24" class="node">
<title>17746</title>
<text text-anchor="middle" x="542.04" y="-1442.09" font-family="Times,serif" font-size="14.00">$TEXT</text>
</g>
<!-- 17746&#45;&gt;17743 -->
<g id="edge36" class="edge">
<title>17746&#45;&gt;17743</title>
<path fill="none" stroke="#deb256" d="M557.2,-1465.06C612.13,-1529.58 630.34,-1543.15 757.82,-1593.43"/>
<polygon fill="#deb256" stroke="#deb256" points="756.43,-1596.64 767.01,-1597.04 758.99,-1590.13 756.43,-1596.64"/>
</g>
<!-- 35433 -->
<g id="node25" class="node">
<title>35433</title>
<text text-anchor="middle" x="1854.06" y="-2643.73" font-family="Times,serif" font-size="14.00">LicenseTag (ScopedLicenseTag &quot;OrtLicenseCategorization&quot; &quot;include&#45;in&#45;notice&#45;file&quot; NoLicenseTagText)</text>
</g>
<!-- 35686 -->
<g id="node28" class="node">
<title>35686</title>
<ellipse fill="none" stroke="#d43d51" cx="1727.19" cy="-1960.74" rx="161.4" ry="28.99"/>
<text text-anchor="middle" x="1727.19" y="-1963.94" font-family="Times,serif" font-size="14.00" fill="gray">OrtLicenseCategorization</text>
<text text-anchor="middle" x="1727.19" y="-1947.44" font-family="Times,serif" font-size="14.00" fill="gray">9d8272996399b35ee0c2d40e4067d0a4</text>
</g>
<!-- 35433&#45;&gt;35686 -->
<g id="edge37" class="edge">
<title>35433&#45;&gt;35686</title>
<path fill="none" stroke="#d43d51" d="M1846.3,-2630.85C1767.02,-2447.46 1763.63,-2428.89 1730.35,-2001.37"/>
<polygon fill="#d43d51" stroke="#d43d51" points="1733.84,-2001.11 1729.58,-1991.41 1726.86,-2001.65 1733.84,-2001.11"/>
</g>
<!-- 35444 -->
<g id="node26" class="node">
<title>35444</title>
<text text-anchor="middle" x="1307.27" y="-2598.17" font-family="Times,serif" font-size="14.00">LicenseTag (ScopedLicenseTag &quot;OrtLicenseCategorization&quot; &quot;include&#45;source&#45;code&#45;offer&#45;in&#45;notice&#45;file&quot; NoLicenseTagText)</text>
</g>
<!-- 35444&#45;&gt;35686 -->
<g id="edge38" class="edge">
<title>35444&#45;&gt;35686</title>
<path fill="none" stroke="#d43d51" d="M1320.68,-2585.37C1442.86,-2422.69 1455.02,-2403.98 1703.38,-1999.52"/>
<polygon fill="#d43d51" stroke="#d43d51" points="1706.25,-2001.54 1708.5,-1991.19 1700.28,-1997.88 1706.25,-2001.54"/>
</g>
<!-- 35459 -->
<g id="node27" class="node">
<title>35459</title>
<text text-anchor="middle" x="1698.06" y="-2021.71" font-family="Times,serif" font-size="14.00">LicenseTag (ScopedLicenseTag &quot;OrtLicenseCategorization&quot; &quot;copyleft&#45;limited&quot; NoLicenseTagText)</text>
</g>
<!-- 35459&#45;&gt;35686 -->
<g id="edge39" class="edge">
<title>35459&#45;&gt;35686</title>
<path fill="none" stroke="#d43d51" d="M1705.91,-2009.03C1707.05,-2006.46 1708.26,-2003.72 1709.71,-2000.42"/>
<polygon fill="#d43d51" stroke="#d43d51" points="1712.81,-2002.07 1713.64,-1991.51 1706.4,-1999.25 1712.81,-2002.07"/>
</g>
<!-- 35686&#45;&gt;1985 -->
<g id="edge40" class="edge">
<title>35686&#45;&gt;1985</title>
<path fill="none" stroke="#d43d51" d="M1727.06,-1931.53C1726.47,-1752.42 1733.11,-1728.71 1868.32,-1361.81"/>
<polygon fill="#d43d51" stroke="#d43d51" points="1871.56,-1363.15 1871.74,-1352.56 1864.99,-1360.73 1871.56,-1363.15"/>
</g>
<!-- 41545 -->
<g id="node29" class="node">
<title>41545</title>
<ellipse fill="none" stroke="#379469" cx="2267.23" cy="-945.81" rx="156.62" ry="28.99"/>
<text text-anchor="middle" x="2267.23" y="-949.01" font-family="Times,serif" font-size="14.00" fill="gray">CavilLicenseChange</text>
<text text-anchor="middle" x="2267.23" y="-932.51" font-family="Times,serif" font-size="14.00" fill="gray">1c5ea4623137f8fc8fc84b7d350d4278</text>
</g>
<!-- 41545&#45;&gt;41546 -->
<g id="edge41" class="edge">
<title>41545&#45;&gt;41546</title>
<path fill="none" stroke="#379469" d="M2253.64,-974.82C2252.76,-976.49 2251.8,-978.3 2250.74,-980.29"/>
<polygon fill="#379469" stroke="#379469" points="2247.74,-978.48 2246.07,-988.94 2253.9,-981.8 2247.74,-978.48"/>
</g>
<!-- 43136 -->
<g id="node31" class="node">
<title>43136</title>
<text text-anchor="start" x="3398.09" y="-2159.77" font-family="Times,serif" font-size="14.00">CoDEStatus: </text>
<text text-anchor="start" x="3472.34" y="-2159.77" font-family="Times,serif" font-weight="bold" font-size="14.00" fill="#228b22">Approved</text>
<text text-anchor="start" x="3250.72" y="-2145.77" font-family="Times,serif" font-size="14.00">Eine Lizenz ist freigegeben, wenn sie nach fachlicher und juristischer Prüfung</text>
<text text-anchor="start" x="3232.72" y="-2131.77" font-family="Times,serif" font-size="14.00">seitens Open CoDE sowohl der Open Source Definition (gemäß Definition der Open</text>
<text text-anchor="start" x="3274.72" y="-2117.77" font-family="Times,serif" font-size="14.00">Source Initiative [extern]) entspricht und darüber hinaus keine für die</text>
<text text-anchor="start" x="3277.72" y="-2103.77" font-family="Times,serif" font-size="14.00">Öffentliche Verwaltung erkennbaren Schwierigkeiten birgt. Außer in</text>
<text text-anchor="start" x="3262.72" y="-2089.77" font-family="Times,serif" font-size="14.00">Ausnahmefällen ist nicht zu erwarten, dass einmal freigegebene Lizenzen</text>
<text text-anchor="start" x="3402.59" y="-2075.77" font-family="Times,serif" font-size="14.00">deklassifiziert werden.</text>
</g>
<!-- 49524 -->
<g id="node32" class="node">
<title>49524</title>
<ellipse fill="none" stroke="#379469" cx="2862.71" cy="-1930.16" rx="160.34" ry="28.99"/>
<text text-anchor="middle" x="2862.71" y="-1933.36" font-family="Times,serif" font-size="14.00" fill="gray">MetaeffektLicense</text>
<text text-anchor="middle" x="2862.71" y="-1916.86" font-family="Times,serif" font-size="14.00" fill="gray">b9544276ac57ec895ee42b1858c6554d</text>
</g>
<!-- 43136&#45;&gt;49524 -->
<g id="edge42" class="edge">
<title>43136&#45;&gt;49524</title>
<path fill="none" stroke="#379469" d="M3256.15,-2070.08C3190.81,-2049.39 3104.89,-2018.47 2945.29,-1960.29"/>
<polygon fill="#379469" stroke="#379469" points="2946.69,-1957.07 2936.09,-1956.93 2944.29,-1963.65 2946.69,-1957.07"/>
</g>
<!-- 49524&#45;&gt;49525 -->
<g id="edge43" class="edge">
<title>49524&#45;&gt;49525</title>
<path fill="none" stroke="#379469" d="M2735.4,-1912.22C2652.12,-1896.49 2578.67,-1869.12 2353.42,-1780.84"/>
<polygon fill="#379469" stroke="#379469" points="2354.92,-1777.67 2344.34,-1777.28 2352.37,-1784.19 2354.92,-1777.67"/>
</g>
<!-- 49526 -->
<g id="node34" class="node">
<title>49526</title>
<polygon fill="none" stroke="#379469" points="2623.48,-2140.65 2623.48,-2155.57 2559.12,-2166.11 2468.1,-2166.11 2403.74,-2155.57 2403.74,-2140.65 2468.1,-2130.11 2559.12,-2130.11 2623.48,-2140.65"/>
<polygon fill="none" stroke="#379469" points="2627.48,-2137.26 2627.48,-2158.96 2559.44,-2170.11 2467.77,-2170.11 2399.74,-2158.96 2399.74,-2137.26 2467.77,-2126.11 2559.44,-2126.11 2627.48,-2137.26"/>
<text text-anchor="middle" x="2513.61" y="-2143.06" font-family="Times,serif" font-size="14.00">GFDL&#45;1.1&#45;no&#45;invariants</text>
</g>
<!-- 49526&#45;&gt;49525 -->
<g id="edge44" class="edge">
<title>49526&#45;&gt;49525</title>
<path fill="none" stroke="#379469" stroke-width="2" d="M2504.24,-2125.75C2461.14,-2023.25 2450.06,-2004.74 2306.51,-1785.86"/>
<polygon fill="#379469" stroke="#379469" stroke-width="2" points="2301.8,-1778.68 2311.05,-1784.58 2303.63,-1780.55 2307.71,-1786.77 2307.29,-1787.04 2306.87,-1787.32 2302.79,-1781.1 2303.53,-1789.51 2301.8,-1778.68"/>
</g>
<!-- 49527 -->
<g id="node35" class="node">
<title>49527</title>
<polygon fill="none" stroke="#379469" points="3055.68,-2305.91 3055.68,-2320.82 2894.29,-2331.36 2666.05,-2331.36 2504.66,-2320.82 2504.66,-2305.91 2666.05,-2295.36 2894.29,-2295.36 3055.68,-2305.91"/>
<polygon fill="none" stroke="#379469" points="3059.68,-2302.16 3059.68,-2324.57 2894.42,-2335.36 2665.92,-2335.36 2500.66,-2324.57 2500.66,-2302.16 2665.92,-2291.36 2894.42,-2291.36 3059.68,-2302.16"/>
<text text-anchor="middle" x="2780.17" y="-2308.31" font-family="Times,serif" font-size="14.00">metaeffekt:GNU Free Documentation License 1.1 (no invariants)</text>
</g>
<!-- 49527&#45;&gt;49525 -->
<g id="edge45" class="edge">
<title>49527&#45;&gt;49525</title>
<path fill="none" stroke="#379469" stroke-width="2" d="M2761.78,-2291.04C2640.44,-2143.84 2622.74,-2124.02 2313.69,-1784.9"/>
<polygon fill="#379469" stroke="#379469" stroke-width="2" points="2307.98,-1778.63 2318.04,-1782.99 2310.07,-1780.19 2315.08,-1785.68 2314.71,-1786.02 2314.34,-1786.36 2309.33,-1780.86 2311.39,-1789.05 2307.98,-1778.63"/>
</g>
<!-- 49528 -->
<g id="node36" class="node">
<title>49528</title>
<polygon fill="none" stroke="#379469" points="3513.52,-2858.43 3513.52,-2873.34 3379.06,-2883.88 3188.91,-2883.88 3054.46,-2873.34 3054.46,-2858.43 3188.91,-2847.88 3379.06,-2847.88 3513.52,-2858.43"/>
<polygon fill="none" stroke="#379469" points="3517.52,-2854.73 3517.52,-2877.04 3379.22,-2887.88 3188.76,-2887.88 3050.46,-2877.04 3050.46,-2854.73 3188.76,-2843.88 3379.22,-2843.88 3517.52,-2854.73"/>
<text text-anchor="middle" x="3283.99" y="-2860.83" font-family="Times,serif" font-size="14.00">GNU Free Documentation License 1.1 (no invariants)</text>
</g>
<!-- 49528&#45;&gt;49527 -->
<g id="edge46" class="edge">
<title>49528&#45;&gt;49527</title>
<path fill="none" stroke="#379469" stroke-width="2" d="M3263.91,-2843.39C3137.51,-2701.8 3118.97,-2681.54 2808.19,-2343.81"/>
<polygon fill="#379469" stroke="#379469" stroke-width="2" points="2802.44,-2337.56 2812.52,-2341.87 2804.54,-2339.11 2809.58,-2344.58 2809.21,-2344.92 2808.84,-2345.26 2803.81,-2339.79 2805.9,-2347.97 2802.44,-2337.56"/>
</g>
<!-- 67213 -->
<g id="node37" class="node">
<title>67213</title>
<ellipse fill="none" stroke="#00876c" cx="1953.91" cy="-1790.15" rx="153.97" ry="28.99"/>
<text text-anchor="middle" x="1953.91" y="-1793.35" font-family="Times,serif" font-size="14.00" fill="gray">LicenseLynx</text>
<text text-anchor="middle" x="1953.91" y="-1776.85" font-family="Times,serif" font-size="14.00" fill="gray">e37d39d83ef01a2ff785253a9f789ece</text>
</g>
<!-- 67213&#45;&gt;1985 -->
<g id="edge47" class="edge">
<title>67213&#45;&gt;1985</title>
<path fill="none" stroke="#00876c" d="M1940.82,-1760.89C1891.97,-1650.71 1889.34,-1625.85 1882.87,-1362.75"/>
<polygon fill="#00876c" stroke="#00876c" points="1886.37,-1362.69 1882.62,-1352.78 1879.37,-1362.86 1886.37,-1362.69"/>
</g>
<!-- 67214&#45;&gt;1985 -->
<g id="edge48" class="edge">
<title>67214&#45;&gt;1985</title>
<path fill="none" stroke="#00876c" stroke-width="2" d="M1602.6,-1365.16C1637.8,-1347.24 1662.74,-1338.93 1709.84,-1333.9"/>
<polygon fill="#00876c" stroke="#00876c" stroke-width="2" points="1718.49,-1333.05 1708.98,-1338.5 1715.99,-1333.79 1708.59,-1334.52 1708.54,-1334.02 1708.49,-1333.53 1715.89,-1332.8 1708.1,-1329.55 1718.49,-1333.05"/>
</g>
</g>
</svg>
