<?xml version="1.0" encoding="UTF-8" standalone="no"?>
<!DOCTYPE svg PUBLIC "-//W3C//DTD SVG 1.1//EN"
 "http://www.w3.org/Graphics/SVG/1.1/DTD/svg11.dtd">
<!-- Generated by graphviz version 10.0.1 (0)
 -->
<!-- Pages: 1 -->
<svg width="3881pt" height="2916pt"
 viewBox="0.00 0.00 3881.00 2916.00" xmlns="http://www.w3.org/2000/svg" xmlns:xlink="http://www.w3.org/1999/xlink">
<g id="graph0" class="graph" transform="scale(1 1) rotate(0) translate(4 2912)">
<polygon fill="white" stroke="none" points="-4,4 -4,-2912 3877,-2912 3877,4 -4,4"/>
<!-- 5 -->
<g id="node1" class="node">
<title>5</title>
<text text-anchor="start" x="2906.12" y="-965.92" font-family="Times,serif" font-size="14.00">OSI: </text>
<text text-anchor="start" x="2935.37" y="-965.92" font-family="Times,serif" font-weight="bold" font-size="14.00" fill="#8b0000">Rejected</text>
</g>
<!-- 2049 -->
<g id="node2" class="node">
<title>2049</title>
<ellipse fill="none" stroke="#dac767" cx="2619.81" cy="-1084.74" rx="159.28" ry="28.99"/>
<text text-anchor="middle" x="2619.81" y="-1087.94" font-family="Times,serif" font-size="14.00" fill="gray">SPDXLicense</text>
<text text-anchor="middle" x="2619.81" y="-1071.44" font-family="Times,serif" font-size="14.00" fill="gray">b112c4cfb6c2361004921cc0645c6728</text>
</g>
<!-- 5&#45;&gt;2049 -->
<g id="edge1" class="edge">
<title>5&#45;&gt;2049</title>
<path fill="none" stroke="#dac767" d="M2898.31,-982.49C2846.94,-996.51 2814.96,-1008.09 2698,-1053.98"/>
<polygon fill="#dac767" stroke="#dac767" points="2696.99,-1050.62 2688.96,-1057.53 2699.55,-1057.14 2696.99,-1050.62"/>
</g>
<!-- 2050 -->
<g id="node3" class="node">
<title>2050</title>
<polygon fill="none" stroke="black" points="2273.53,-1648.41 2273.53,-1663.32 2191.97,-1673.86 2076.63,-1673.86 1995.07,-1663.32 1995.07,-1648.41 2076.63,-1637.86 2191.97,-1637.86 2273.53,-1648.41"/>
<polygon fill="none" stroke="black" points="2277.53,-1644.89 2277.53,-1666.84 2192.23,-1677.86 2076.37,-1677.86 1991.07,-1666.84 1991.07,-1644.89 2076.37,-1633.86 2192.23,-1633.86 2277.53,-1644.89"/>
<polygon fill="none" stroke="black" points="2281.53,-1641.37 2281.53,-1670.35 2192.49,-1681.86 2076.11,-1681.86 1987.07,-1670.35 1987.07,-1641.37 2076.11,-1629.86 2192.49,-1629.86 2281.53,-1641.37"/>
<text text-anchor="middle" x="2134.3" y="-1650.81" font-family="Times,serif" font-size="14.00">spdx:GFDL&#45;1.3&#45;invariants&#45;only</text>
</g>
<!-- 2049&#45;&gt;2050 -->
<g id="edge2" class="edge">
<title>2049&#45;&gt;2050</title>
<path fill="none" stroke="#dac767" d="M2608.9,-1114.13C2527.01,-1333.99 2510.16,-1353.48 2176.05,-1622.29"/>
<polygon fill="#dac767" stroke="#dac767" points="2173.86,-1619.56 2168.27,-1628.55 2178.25,-1625.01 2173.86,-1619.56"/>
</g>
<!-- 7228 -->
<g id="node15" class="node">
<title>7228</title>
<polygon fill="none" stroke="#e09d4b" points="2069.89,-1579.29 2069.89,-1594.2 1983.13,-1604.75 1860.44,-1604.75 1773.69,-1594.2 1773.69,-1579.29 1860.44,-1568.75 1983.13,-1568.75 2069.89,-1579.29"/>
<polygon fill="none" stroke="#e09d4b" points="2073.89,-1575.75 2073.89,-1597.75 1983.37,-1608.75 1860.2,-1608.75 1769.69,-1597.75 1769.69,-1575.75 1860.2,-1564.75 1983.37,-1564.75 2073.89,-1575.75"/>
<text text-anchor="middle" x="1921.79" y="-1581.7" font-family="Times,serif" font-size="14.00">Fedora:GFDL&#45;1.3&#45;invariants&#45;only</text>
</g>
<!-- 2050&#45;&gt;7228 -->
<g id="edge3" class="edge">
<title>2050&#45;&gt;7228</title>
<path fill="none" stroke="#e09d4b" stroke-width="2" d="M2012.97,-1637.59C2001.05,-1631.7 1987.27,-1624.19 1970.46,-1614.69"/>
<polygon fill="#e09d4b" stroke="#e09d4b" stroke-width="2" points="1962.91,-1610.4 1973.83,-1611.43 1965.39,-1611.23 1971.86,-1614.91 1971.61,-1615.34 1971.36,-1615.78 1964.9,-1612.1 1969.39,-1619.25 1962.91,-1610.4"/>
</g>
<!-- 29900 -->
<g id="node18" class="node">
<title>29900</title>
<polygon fill="none" stroke="black" points="2002.13,-1200.02 2002.13,-1214.94 1916.03,-1225.48 1794.26,-1225.48 1708.16,-1214.94 1708.16,-1200.02 1794.26,-1189.48 1916.03,-1189.48 2002.13,-1200.02"/>
<polygon fill="none" stroke="black" points="2006.13,-1196.48 2006.13,-1218.48 1916.27,-1229.48 1794.02,-1229.48 1704.16,-1218.48 1704.16,-1196.48 1794.02,-1185.48 1916.27,-1185.48 2006.13,-1196.48"/>
<text text-anchor="middle" x="1855.15" y="-1202.43" font-family="Times,serif" font-size="14.00">scancode:gfdl&#45;1.3&#45;invariants&#45;only</text>
</g>
<!-- 2050&#45;&gt;29900 -->
<g id="edge4" class="edge">
<title>2050&#45;&gt;29900</title>
<path fill="none" stroke="#deb256" stroke-width="2" d="M2121.7,-1629.37C2078.36,-1551.37 1936.34,-1322.95 1879.16,-1238.93"/>
<polygon fill="#deb256" stroke="#deb256" stroke-width="2" points="1874.31,-1231.88 1883.69,-1237.58 1876.18,-1233.71 1880.39,-1239.84 1879.98,-1240.13 1879.57,-1240.41 1875.35,-1234.28 1876.27,-1242.67 1874.31,-1231.88"/>
</g>
<!-- 49415 -->
<g id="node31" class="node">
<title>49415</title>
<polygon fill="none" stroke="#379469" points="1795.33,-2234.37 1795.33,-2249.28 1711.82,-2259.83 1593.72,-2259.83 1510.21,-2249.28 1510.21,-2234.37 1593.72,-2223.83 1711.82,-2223.83 1795.33,-2234.37"/>
<polygon fill="none" stroke="#379469" points="1799.33,-2230.85 1799.33,-2252.81 1712.07,-2263.83 1593.47,-2263.83 1506.21,-2252.81 1506.21,-2230.85 1593.47,-2219.83 1712.07,-2219.83 1799.33,-2230.85"/>
<text text-anchor="middle" x="1652.77" y="-2236.78" font-family="Times,serif" font-size="14.00">metaeffekt:GFDL&#45;1.3&#45;invariants</text>
</g>
<!-- 2050&#45;&gt;49415 -->
<g id="edge5" class="edge">
<title>2050&#45;&gt;49415</title>
<path fill="none" stroke="#379469" stroke-width="2" d="M2119.17,-1682.32C1897.59,-2069.82 1877.68,-2100.26 1697.89,-2213.61"/>
<polygon fill="#379469" stroke="#379469" stroke-width="2" points="1690.71,-2218.12 1696.78,-2208.99 1692.61,-2216.34 1698.91,-2212.38 1699.18,-2212.8 1699.44,-2213.22 1693.15,-2217.18 1701.57,-2216.61 1690.71,-2218.12"/>
</g>
<!-- 2051 -->
<g id="node4" class="node">
<title>2051</title>
<polygon fill="none" stroke="black" points="2043.32,-1789.65 2043.32,-1804.56 1974.41,-1815.11 1876.97,-1815.11 1808.06,-1804.56 1808.06,-1789.65 1876.97,-1779.11 1974.41,-1779.11 2043.32,-1789.65"/>
<polygon fill="none" stroke="black" points="2047.32,-1786.22 2047.32,-1808 1974.72,-1819.11 1876.66,-1819.11 1804.06,-1808 1804.06,-1786.22 1876.66,-1775.11 1974.72,-1775.11 2047.32,-1786.22"/>
<text text-anchor="middle" x="1925.69" y="-1792.06" font-family="Times,serif" font-size="14.00">GFDL&#45;1.3&#45;invariants&#45;only</text>
</g>
<!-- 2051&#45;&gt;2050 -->
<g id="edge6" class="edge">
<title>2051&#45;&gt;2050</title>
<path fill="none" stroke="black" stroke-width="2" d="M2005.52,-1779.41C2046.24,-1766.52 2065.52,-1747.14 2107.97,-1691.07"/>
<polygon fill="black" stroke="black" stroke-width="2" points="2113.24,-1684.09 2110.81,-1694.79 2112.09,-1686.44 2107.62,-1692.38 2107.22,-1692.08 2106.82,-1691.78 2111.29,-1685.84 2103.62,-1689.37 2113.24,-1684.09"/>
</g>
<!-- 2051&#45;&gt;7228 -->
<g id="edge7" class="edge">
<title>2051&#45;&gt;7228</title>
<path fill="none" stroke="#e09d4b" stroke-width="2" d="M1924.23,-1774.79C1921.75,-1735.45 1921.54,-1717.84 1921.72,-1620.09"/>
<polygon fill="#e09d4b" stroke="#e09d4b" stroke-width="2" points="1921.74,-1611.52 1926.22,-1621.53 1922.23,-1614.08 1922.22,-1621.52 1921.72,-1621.52 1921.22,-1621.52 1921.23,-1614.08 1917.22,-1621.51 1921.74,-1611.52"/>
</g>
<!-- 2051&#45;&gt;29900 -->
<g id="edge8" class="edge">
<title>2051&#45;&gt;29900</title>
<path fill="none" stroke="black" stroke-width="2" d="M1913.12,-1774.68C1811.76,-1593.54 1810.16,-1575.11 1851.05,-1240.85"/>
<polygon fill="black" stroke="black" stroke-width="2" points="1852.11,-1232.27 1855.36,-1242.74 1852.29,-1234.88 1851.39,-1242.26 1850.89,-1242.2 1850.39,-1242.14 1851.3,-1234.75 1846.42,-1241.65 1852.11,-1232.27"/>
</g>
<!-- 41580 -->
<g id="node28" class="node">
<title>41580</title>
<polygon fill="none" stroke="#379469" points="2452.4,-2108.11 2452.4,-2123.02 2370.52,-2133.57 2254.71,-2133.57 2172.83,-2123.02 2172.83,-2108.11 2254.71,-2097.57 2370.52,-2097.57 2452.4,-2108.11"/>
<polygon fill="none" stroke="#379469" points="2456.4,-2104.6 2456.4,-2126.54 2370.77,-2137.57 2254.46,-2137.57 2168.83,-2126.54 2168.83,-2104.6 2254.46,-2093.57 2370.77,-2093.57 2456.4,-2104.6"/>
<text text-anchor="middle" x="2312.61" y="-2110.52" font-family="Times,serif" font-size="14.00">cavil:GFDL&#45;1.3&#45;invariants&#45;only</text>
</g>
<!-- 2051&#45;&gt;41580 -->
<g id="edge9" class="edge">
<title>2051&#45;&gt;41580</title>
<path fill="none" stroke="#379469" stroke-width="2" d="M1945.76,-1819.43C2120.16,-2013.45 2151.48,-2045.97 2248.33,-2088.7"/>
<polygon fill="#379469" stroke="#379469" stroke-width="2" points="2256.31,-2092.18 2245.35,-2092.31 2253.76,-2091.61 2246.95,-2088.64 2247.14,-2088.19 2247.34,-2087.73 2254.16,-2090.69 2248.94,-2084.06 2256.31,-2092.18"/>
</g>
<!-- 2051&#45;&gt;49415 -->
<g id="edge10" class="edge">
<title>2051&#45;&gt;49415</title>
<path fill="none" stroke="#379469" stroke-dasharray="5,2" d="M1914.51,-1819.32C1776.95,-2092.56 1762.1,-2120.21 1680.22,-2211.48"/>
<polygon fill="#379469" stroke="#379469" points="1673.7,-2218.72 1677.05,-2208.28 1676.23,-2215.91 1680.39,-2211.29 1680.39,-2211.29 1680.39,-2211.29 1676.23,-2215.91 1683.74,-2214.3 1673.7,-2218.72"/>
</g>
<!-- 2052 -->
<g id="node5" class="node">
<title>2052</title>
<polygon fill="none" stroke="black" points="1739.84,-1588 1739.84,-1602.91 1598.25,-1613.45 1398,-1613.45 1256.41,-1602.91 1256.41,-1588 1398,-1577.45 1598.25,-1577.45 1739.84,-1588"/>
<polygon fill="none" stroke="black" points="1743.84,-1584.29 1743.84,-1606.62 1598.4,-1617.45 1397.85,-1617.45 1252.41,-1606.62 1252.41,-1584.29 1397.85,-1573.45 1598.4,-1573.45 1743.84,-1584.29"/>
<text text-anchor="middle" x="1498.13" y="-1590.4" font-family="Times,serif" font-size="14.00">GNU Free Documentation License v1.3 only &#45; invariants</text>
</g>
<!-- 2052&#45;&gt;2050 -->
<g id="edge11" class="edge">
<title>2052&#45;&gt;2050</title>
<path fill="none" stroke="#dac767" stroke-width="2" d="M1538.75,-1617.79C1719.73,-1716.69 1758.05,-1725.29 2016.46,-1678.02"/>
<polygon fill="#dac767" stroke="#dac767" stroke-width="2" points="2024.94,-1676.47 2015.92,-1682.7 2022.51,-1677.42 2015.2,-1678.76 2015.1,-1678.27 2015.01,-1677.78 2022.33,-1676.44 2014.29,-1673.85 2024.94,-1676.47"/>
</g>
<!-- 2052&#45;&gt;7228 -->
<g id="edge12" class="edge">
<title>2052&#45;&gt;7228</title>
<path fill="none" stroke="#e09d4b" stroke-dasharray="5,2" d="M1585.08,-1617.94C1641.23,-1628.88 1686.88,-1625.45 1807.59,-1605.88"/>
<polygon fill="#e09d4b" stroke="#e09d4b" points="1817.14,-1604.32 1807.99,-1610.37 1813.41,-1604.93 1807.27,-1605.93 1807.27,-1605.93 1807.27,-1605.93 1813.41,-1604.93 1806.55,-1601.49 1817.14,-1604.32"/>
</g>
<!-- 2052&#45;&gt;29900 -->
<g id="edge13" class="edge">
<title>2052&#45;&gt;29900</title>
<path fill="none" stroke="#deb256" stroke-width="2" d="M1505.99,-1572.98C1569.62,-1391.8 1582.09,-1375.69 1809.41,-1235.6"/>
<polygon fill="#deb256" stroke="#deb256" stroke-width="2" points="1816.56,-1231.19 1810.4,-1240.27 1814.64,-1232.96 1808.31,-1236.86 1808.04,-1236.44 1807.78,-1236.01 1814.11,-1232.11 1805.68,-1232.61 1816.56,-1231.19"/>
</g>
<!-- 2052&#45;&gt;49415 -->
<g id="edge14" class="edge">
<title>2052&#45;&gt;49415</title>
<path fill="none" stroke="#379469" stroke-dasharray="5,2" d="M1497.9,-1617.94C1494.14,-2002.9 1496.45,-2026.05 1629.99,-2210.48"/>
<polygon fill="#379469" stroke="#379469" points="1635.73,-2218.4 1626.22,-2212.95 1633.51,-2215.34 1629.86,-2210.31 1629.86,-2210.31 1629.86,-2210.31 1633.51,-2215.34 1633.51,-2207.67 1635.73,-2218.4"/>
</g>
<!-- 67242 -->
<g id="node46" class="node">
<title>67242</title>
<polygon fill="none" stroke="#00876c" points="1800.01,-1519.25 1800.01,-1534.16 1645.76,-1544.7 1427.62,-1544.7 1273.36,-1534.16 1273.36,-1519.25 1427.62,-1508.7 1645.76,-1508.7 1800.01,-1519.25"/>
<polygon fill="none" stroke="#00876c" points="1804.01,-1515.51 1804.01,-1537.89 1645.9,-1548.7 1427.48,-1548.7 1269.36,-1537.89 1269.36,-1515.51 1427.48,-1504.7 1645.9,-1504.7 1804.01,-1515.51"/>
<text text-anchor="middle" x="1536.69" y="-1521.65" font-family="Times,serif" font-size="14.00">spdx:GNU Free Documentation License v1.3 only &#45; invariants</text>
</g>
<!-- 2052&#45;&gt;67242 -->
<g id="edge15" class="edge">
<title>2052&#45;&gt;67242</title>
<path fill="none" stroke="#00876c" stroke-width="2" d="M1502.01,-1573.29C1503.62,-1567.9 1505.99,-1563.27 1510.13,-1557.55"/>
<polygon fill="#00876c" stroke="#00876c" stroke-width="2" points="1515.47,-1550.81 1512.79,-1561.44 1514.27,-1553.13 1509.65,-1558.96 1509.26,-1558.65 1508.87,-1558.34 1513.49,-1552.51 1505.74,-1555.85 1515.47,-1550.81"/>
</g>
<!-- 2053 -->
<g id="node6" class="node">
<title>2053</title>
<text text-anchor="middle" x="3234.81" y="-1065.66" font-family="Times,serif" font-size="14.00">SPDXLicense:</text>
<text text-anchor="middle" x="3234.81" y="-1049.16" font-family="Times,serif" font-size="14.00">This license was released 3 November 2008. The identifier</text>
<text text-anchor="middle" x="3234.81" y="-1032.66" font-family="Times,serif" font-size="14.00">GFDL&#45;1.3&#45;only&#45;invariants should only be used when there are Invariant Sections,</text>
<text text-anchor="middle" x="3234.81" y="-1016.16" font-family="Times,serif" font-size="14.00">Front&#45;Cover Texts or Back&#45;Cover Texts. See GFDL&#45;1.3&#45;only and</text>
<text text-anchor="middle" x="3234.81" y="-999.66" font-family="Times,serif" font-size="14.00">GFDL&#45;1.3&#45;only&#45;no&#45;invariants for alternatives.</text>
</g>
<!-- 2053&#45;&gt;2049 -->
<g id="edge16" class="edge">
<title>2053&#45;&gt;2049</title>
<path fill="none" stroke="#dac767" d="M3004.17,-1027.87C2946.36,-1032.82 2871.69,-1043.93 2750.29,-1063.51"/>
<polygon fill="#dac767" stroke="#dac767" points="2749.98,-1060.01 2740.66,-1065.06 2751.09,-1066.92 2749.98,-1060.01"/>
</g>
<!-- 2054 -->
<g id="node7" class="node">
<title>2054</title>
<text text-anchor="middle" x="2941.17" y="-742.64" font-family="Times,serif" font-size="14.00">$TEXT</text>
</g>
<!-- 2054&#45;&gt;2049 -->
<g id="edge17" class="edge">
<title>2054&#45;&gt;2049</title>
<path fill="none" stroke="#dac767" d="M2928.81,-765.49C2862.73,-860.51 2848.12,-875.99 2659.44,-1048.52"/>
<polygon fill="#dac767" stroke="#dac767" points="2657.34,-1045.7 2652.32,-1055.04 2662.06,-1050.87 2657.34,-1045.7"/>
</g>
<!-- 2055 -->
<g id="node8" class="node">
<title>2055</title>
<text text-anchor="middle" x="3158.01" y="-630.62" font-family="Times,serif" font-size="14.00">$TEXT</text>
</g>
<!-- 2055&#45;&gt;2054 -->
<g id="edge18" class="edge">
<title>2055&#45;&gt;2054</title>
<path fill="none" stroke="#dac767" d="M3129.62,-647.6C3090.95,-664.14 3070.84,-674.86 2979.51,-726.14"/>
<polygon fill="#dac767" stroke="#dac767" points="2977.86,-723.05 2970.86,-731 2981.29,-729.16 2977.86,-723.05"/>
</g>
<!-- 2056 -->
<g id="node9" class="node">
<title>2056</title>
<text text-anchor="middle" x="2264.17" y="-698.8" font-family="Times,serif" font-size="14.00">https://www.gnu.org/licenses/fdl&#45;1.3.txt</text>
</g>
<!-- 2056&#45;&gt;2049 -->
<g id="edge19" class="edge">
<title>2056&#45;&gt;2049</title>
<path fill="none" stroke="#dac767" d="M2303.29,-721.75C2500.68,-812.49 2516.61,-830.06 2603.8,-1045.1"/>
<polygon fill="#dac767" stroke="#dac767" points="2600.44,-1046.13 2607.44,-1054.09 2606.93,-1043.51 2600.44,-1046.13"/>
</g>
<!-- 29899 -->
<g id="node17" class="node">
<title>29899</title>
<ellipse fill="none" stroke="#deb256" cx="1777.83" cy="-539.47" rx="157.68" ry="28.99"/>
<text text-anchor="middle" x="1777.83" y="-542.67" font-family="Times,serif" font-size="14.00" fill="gray">ScancodeData</text>
<text text-anchor="middle" x="1777.83" y="-526.17" font-family="Times,serif" font-size="14.00" fill="gray">940b94a358f3dbcc3d53eef7018c5517</text>
</g>
<!-- 2056&#45;&gt;29899 -->
<g id="edge20" class="edge">
<title>2056&#45;&gt;29899</title>
<path fill="none" stroke="#deb256" d="M2241.73,-686.09C2091.33,-567.17 2044.17,-533.48 1940.28,-530.97"/>
<polygon fill="#deb256" stroke="#deb256" points="1940.58,-527.47 1930.54,-530.83 1940.49,-534.47 1940.58,-527.47"/>
</g>
<!-- 2062 -->
<g id="node10" class="node">
<title>2062</title>
<text text-anchor="middle" x="3054.58" y="-527.65" font-family="Times,serif" font-size="14.00">$TEXT</text>
</g>
<!-- 2062&#45;&gt;2054 -->
<g id="edge21" class="edge">
<title>2062&#45;&gt;2054</title>
<path fill="none" stroke="#dac767" d="M3050.42,-550.42C3036.94,-606.79 3029.79,-619.95 2960.13,-720.39"/>
<polygon fill="#dac767" stroke="#dac767" points="2957.34,-718.27 2954.51,-728.48 2963.09,-722.26 2957.34,-718.27"/>
</g>
<!-- 6668 -->
<g id="node11" class="node">
<title>6668</title>
<text text-anchor="middle" x="2052.06" y="-651.31" font-family="Times,serif" font-size="14.00">[&quot;allowed&#45;documentation&quot;]</text>
</g>
<!-- 7227 -->
<g id="node14" class="node">
<title>7227</title>
<ellipse fill="none" stroke="#e09d4b" cx="2034.61" cy="-1072.99" rx="160.87" ry="28.99"/>
<text text-anchor="middle" x="2034.61" y="-1076.19" font-family="Times,serif" font-size="14.00" fill="gray">FedoraEntry</text>
<text text-anchor="middle" x="2034.61" y="-1059.69" font-family="Times,serif" font-size="14.00" fill="gray">361d53620645c25f74c6a7d0747209db</text>
</g>
<!-- 6668&#45;&gt;7227 -->
<g id="edge22" class="edge">
<title>6668&#45;&gt;7227</title>
<path fill="none" stroke="#e09d4b" d="M2052.93,-674.34C2057.89,-777.7 2057.14,-795.4 2037.92,-1032.27"/>
<polygon fill="#e09d4b" stroke="#e09d4b" points="2034.43,-1031.96 2037.11,-1042.21 2041.41,-1032.52 2034.43,-1031.96"/>
</g>
<!-- 6669 -->
<g id="node12" class="node">
<title>6669</title>
<text text-anchor="start" x="2083.75" y="-328.48" font-family="Times,serif" font-size="14.00">Fedora: </text>
<text text-anchor="start" x="2128.75" y="-328.48" font-family="Times,serif" font-weight="bold" font-size="14.00" fill="#000000">allowed&#45;documentation</text>
</g>
<!-- 6669&#45;&gt;6668 -->
<g id="edge23" class="edge">
<title>6669&#45;&gt;6668</title>
<path fill="none" stroke="#e09d4b" d="M2165.07,-350.08C2127.14,-423.81 2121.24,-440.19 2061.21,-627.77"/>
<polygon fill="#e09d4b" stroke="#e09d4b" points="2057.92,-626.56 2058.21,-637.16 2064.59,-628.7 2057.92,-626.56"/>
</g>
<!-- 7203 -->
<g id="node13" class="node">
<title>7203</title>
<polygon fill="none" stroke="black" points="1737.01,-1897.12 1737.01,-1912.03 1714.84,-1922.57 1683.48,-1922.57 1661.3,-1912.03 1661.3,-1897.12 1683.48,-1886.57 1714.84,-1886.57 1737.01,-1897.12"/>
<text text-anchor="middle" x="1699.16" y="-1899.52" font-family="Times,serif" font-size="14.00">GFDL</text>
</g>
<!-- 7203&#45;&gt;7228 -->
<g id="edge24" class="edge">
<title>7203&#45;&gt;7228</title>
<path fill="none" stroke="#e09d4b" stroke-dasharray="5,2" d="M1715.44,-1886.82C1777.04,-1819.41 1788.81,-1802.03 1902.14,-1618.56"/>
<polygon fill="#e09d4b" stroke="#e09d4b" points="1907.33,-1610.16 1905.9,-1621.04 1905.34,-1613.38 1902.07,-1618.67 1902.07,-1618.67 1902.07,-1618.67 1905.34,-1613.38 1898.25,-1616.31 1907.33,-1610.16"/>
</g>
<!-- 7203&#45;&gt;49415 -->
<g id="edge25" class="edge">
<title>7203&#45;&gt;49415</title>
<path fill="none" stroke="#379469" stroke-dasharray="5,2" d="M1695.2,-1923.04C1655.1,-2110.19 1650.3,-2135.08 1651.84,-2208.21"/>
<polygon fill="#379469" stroke="#379469" points="1652.09,-2218.16 1647.34,-2208.27 1651.99,-2214.38 1651.84,-2208.17 1651.84,-2208.17 1651.84,-2208.17 1651.99,-2214.38 1656.34,-2208.06 1652.09,-2218.16"/>
</g>
<!-- 7227&#45;&gt;7228 -->
<g id="edge26" class="edge">
<title>7227&#45;&gt;7228</title>
<path fill="none" stroke="#e09d4b" d="M2030.32,-1102.37C2011.96,-1227.27 2006.13,-1252.18 1930.18,-1553.48"/>
<polygon fill="#e09d4b" stroke="#e09d4b" points="1926.87,-1552.29 1927.82,-1562.84 1933.65,-1554 1926.87,-1552.29"/>
</g>
<!-- 12439 -->
<g id="node16" class="node">
<title>12439</title>
<text text-anchor="middle" x="1513.03" y="-202.1" font-family="Times,serif" font-size="14.00">LicenseType Copyleft Limited</text>
</g>
<!-- 12439&#45;&gt;29899 -->
<g id="edge27" class="edge">
<title>12439&#45;&gt;29899</title>
<path fill="none" stroke="#deb256" d="M1536.43,-225.05C1619.01,-288.68 1633.54,-307.91 1753.76,-500.83"/>
<polygon fill="#deb256" stroke="#deb256" points="1750.7,-502.52 1758.96,-509.16 1756.64,-498.82 1750.7,-502.52"/>
</g>
<!-- 29899&#45;&gt;29900 -->
<g id="edge28" class="edge">
<title>29899&#45;&gt;29900</title>
<path fill="none" stroke="#deb256" d="M1779.49,-568.81C1789.17,-738.44 1792.43,-764.15 1850.39,-1173.88"/>
<polygon fill="#deb256" stroke="#deb256" points="1846.91,-1174.27 1851.78,-1183.68 1853.84,-1173.29 1846.91,-1174.27"/>
</g>
<!-- 29900&#45;&gt;2050 -->
<g id="edge29" class="edge">
<title>29900&#45;&gt;2050</title>
<path fill="none" stroke="#00876c" stroke-width="2" d="M1865.46,-1229.82C1905.21,-1302.38 2047.55,-1531.59 2107.52,-1620.33"/>
<polygon fill="#00876c" stroke="#00876c" stroke-width="2" points="2112.36,-1627.44 2103.01,-1621.71 2110.51,-1625.6 2106.32,-1619.46 2106.73,-1619.17 2107.15,-1618.89 2111.33,-1625.04 2110.45,-1616.64 2112.36,-1627.44"/>
</g>
<!-- 29901 -->
<g id="node19" class="node">
<title>29901</title>
<text text-anchor="middle" x="1850.84" y="-44.71" font-family="Times,serif" font-size="14.00">http://www.gnu.org/licenses/fdl&#45;1.3.txt</text>
</g>
<!-- 29901&#45;&gt;29899 -->
<g id="edge30" class="edge">
<title>29901&#45;&gt;29899</title>
<path fill="none" stroke="#deb256" d="M1845.17,-67.47C1805.69,-191.18 1803.02,-209.15 1780.93,-498.69"/>
<polygon fill="#deb256" stroke="#deb256" points="1777.46,-498.25 1780.19,-508.49 1784.44,-498.78 1777.46,-498.25"/>
</g>
<!-- 29902 -->
<g id="node20" class="node">
<title>29902</title>
<text text-anchor="middle" x="1524.14" y="-23.24" font-family="Times,serif" font-size="14.00">ScancodeData:</text>
<text text-anchor="middle" x="1524.14" y="-6.74" font-family="Times,serif" font-size="14.00">Per SPDX.org, this license was released 3 November 2008.</text>
</g>
<!-- 29902&#45;&gt;29899 -->
<g id="edge31" class="edge">
<title>29902&#45;&gt;29899</title>
<path fill="none" stroke="#deb256" d="M1537.77,-40.24C1620.68,-163.3 1630.38,-183.73 1761.38,-499.77"/>
<polygon fill="#deb256" stroke="#deb256" points="1758.05,-500.88 1765.11,-508.78 1764.51,-498.2 1758.05,-500.88"/>
</g>
<!-- 29903 -->
<g id="node21" class="node">
<title>29903</title>
<text text-anchor="middle" x="1352.2" y="-311.51" font-family="Times,serif" font-size="14.00">http://www.gnu.org/licenses/fdl&#45;1.3.txt</text>
</g>
<!-- 29903&#45;&gt;29899 -->
<g id="edge32" class="edge">
<title>29903&#45;&gt;29899</title>
<path fill="none" stroke="#deb256" d="M1465.91,-333.16C1542.57,-350.39 1589.28,-384.86 1734.38,-503.79"/>
<polygon fill="#deb256" stroke="#deb256" points="1732.05,-506.41 1742,-510.04 1736.49,-501 1732.05,-506.41"/>
</g>
<!-- 29904 -->
<g id="node22" class="node">
<title>29904</title>
<text text-anchor="middle" x="1724.58" y="-179.75" font-family="Times,serif" font-size="14.00">$TEXT</text>
</g>
<!-- 29904&#45;&gt;29899 -->
<g id="edge33" class="edge">
<title>29904&#45;&gt;29899</title>
<path fill="none" stroke="#deb256" d="M1727.05,-202.79C1738.59,-286.82 1741.2,-304.21 1771.53,-499.03"/>
<polygon fill="#deb256" stroke="#deb256" points="1768.05,-499.44 1773.05,-508.78 1774.97,-498.36 1768.05,-499.44"/>
</g>
<!-- 35433 -->
<g id="node23" class="node">
<title>35433</title>
<text text-anchor="middle" x="2858.15" y="-1858.41" font-family="Times,serif" font-size="14.00">LicenseTag (ScopedLicenseTag &quot;OrtLicenseCategorization&quot; &quot;include&#45;in&#45;notice&#45;file&quot; NoLicenseTagText)</text>
</g>
<!-- 35696 -->
<g id="node26" class="node">
<title>35696</title>
<ellipse fill="none" stroke="#d43d51" cx="2756.79" cy="-1807.86" rx="158.75" ry="28.99"/>
<text text-anchor="middle" x="2756.79" y="-1811.06" font-family="Times,serif" font-size="14.00" fill="gray">OrtLicenseCategorization</text>
<text text-anchor="middle" x="2756.79" y="-1794.56" font-family="Times,serif" font-size="14.00" fill="gray">58fc6b3372d79a793b44f839dc4d4ed2</text>
</g>
<!-- 35433&#45;&gt;35696 -->
<g id="edge34" class="edge">
<title>35433&#45;&gt;35696</title>
<path fill="none" stroke="#d43d51" d="M2828.69,-1845.58C2826.06,-1844.1 2823.24,-1842.55 2820.09,-1840.84"/>
<polygon fill="#d43d51" stroke="#d43d51" points="2821.98,-1837.88 2811.51,-1836.26 2818.68,-1844.06 2821.98,-1837.88"/>
</g>
<!-- 35444 -->
<g id="node24" class="node">
<title>35444</title>
<text text-anchor="middle" x="3528.94" y="-1874.53" font-family="Times,serif" font-size="14.00">LicenseTag (ScopedLicenseTag &quot;OrtLicenseCategorization&quot; &quot;include&#45;source&#45;code&#45;offer&#45;in&#45;notice&#45;file&quot; NoLicenseTagText)</text>
</g>
<!-- 35444&#45;&gt;35696 -->
<g id="edge35" class="edge">
<title>35444&#45;&gt;35696</title>
<path fill="none" stroke="#d43d51" d="M3184.59,-1871.88C3114.19,-1863.12 3022.87,-1849.35 2889.63,-1828.62"/>
<polygon fill="#d43d51" stroke="#d43d51" points="2890.21,-1825.16 2879.79,-1827.08 2889.13,-1832.08 2890.21,-1825.16"/>
</g>
<!-- 35459 -->
<g id="node25" class="node">
<title>35459</title>
<text text-anchor="middle" x="3329.34" y="-2117.11" font-family="Times,serif" font-size="14.00">LicenseTag (ScopedLicenseTag &quot;OrtLicenseCategorization&quot; &quot;copyleft&#45;limited&quot; NoLicenseTagText)</text>
</g>
<!-- 35459&#45;&gt;35696 -->
<g id="edge36" class="edge">
<title>35459&#45;&gt;35696</title>
<path fill="none" stroke="#d43d51" d="M3300.16,-2104.36C3168.3,-2023.96 3139.88,-2008.42 2819.75,-1840.81"/>
<polygon fill="#d43d51" stroke="#d43d51" points="2821.53,-1837.79 2811.04,-1836.26 2818.28,-1844 2821.53,-1837.79"/>
</g>
<!-- 35696&#45;&gt;2050 -->
<g id="edge37" class="edge">
<title>35696&#45;&gt;2050</title>
<path fill="none" stroke="#d43d51" d="M2614.85,-1794.57C2529.74,-1782.32 2449.41,-1757.86 2219.71,-1683.54"/>
<polygon fill="#d43d51" stroke="#d43d51" points="2221.04,-1680.29 2210.45,-1680.54 2218.89,-1686.95 2221.04,-1680.29"/>
</g>
<!-- 41579 -->
<g id="node27" class="node">
<title>41579</title>
<ellipse fill="none" stroke="#379469" cx="2689.28" cy="-2466.2" rx="155.03" ry="28.99"/>
<text text-anchor="middle" x="2689.28" y="-2469.4" font-family="Times,serif" font-size="14.00" fill="gray">CavilLicenseChange</text>
<text text-anchor="middle" x="2689.28" y="-2452.9" font-family="Times,serif" font-size="14.00" fill="gray">92886cff45a04e9c29fc88bb9b11f090</text>
</g>
<!-- 41579&#45;&gt;41580 -->
<g id="edge38" class="edge">
<title>41579&#45;&gt;41580</title>
<path fill="none" stroke="#379469" d="M2648.39,-2437.92C2559.46,-2375.69 2532.39,-2348.46 2341.38,-2146.06"/>
<polygon fill="#379469" stroke="#379469" points="2344.08,-2143.82 2334.67,-2138.95 2338.99,-2148.63 2344.08,-2143.82"/>
</g>
<!-- 43136 -->
<g id="node29" class="node">
<title>43136</title>
<text text-anchor="start" x="487.86" y="-2761.77" font-family="Times,serif" font-size="14.00">CoDEStatus: </text>
<text text-anchor="start" x="562.11" y="-2761.77" font-family="Times,serif" font-weight="bold" font-size="14.00" fill="#228b22">Approved</text>
<text text-anchor="start" x="340.49" y="-2747.77" font-family="Times,serif" font-size="14.00">Eine Lizenz ist freigegeben, wenn sie nach fachlicher und juristischer Prüfung</text>
<text text-anchor="start" x="322.49" y="-2733.77" font-family="Times,serif" font-size="14.00">seitens Open CoDE sowohl der Open Source Definition (gemäß Definition der Open</text>
<text text-anchor="start" x="364.49" y="-2719.77" font-family="Times,serif" font-size="14.00">Source Initiative [extern]) entspricht und darüber hinaus keine für die</text>
<text text-anchor="start" x="367.49" y="-2705.77" font-family="Times,serif" font-size="14.00">Öffentliche Verwaltung erkennbaren Schwierigkeiten birgt. Außer in</text>
<text text-anchor="start" x="352.49" y="-2691.77" font-family="Times,serif" font-size="14.00">Ausnahmefällen ist nicht zu erwarten, dass einmal freigegebene Lizenzen</text>
<text text-anchor="start" x="492.36" y="-2677.77" font-family="Times,serif" font-size="14.00">deklassifiziert werden.</text>
</g>
<!-- 49414 -->
<g id="node30" class="node">
<title>49414</title>
<ellipse fill="none" stroke="#379469" cx="1093.41" cy="-2417.72" rx="157.15" ry="28.99"/>
<text text-anchor="middle" x="1093.41" y="-2420.92" font-family="Times,serif" font-size="14.00" fill="gray">MetaeffektLicense</text>
<text text-anchor="middle" x="1093.41" y="-2404.42" font-family="Times,serif" font-size="14.00" fill="gray">826f4a57eb646310a45ff88777bc3367</text>
</g>
<!-- 43136&#45;&gt;49414 -->
<g id="edge39" class="edge">
<title>43136&#45;&gt;49414</title>
<path fill="none" stroke="#379469" d="M690.2,-2672.23C766.37,-2637.51 838.64,-2589.89 1042.18,-2452.35"/>
<polygon fill="#379469" stroke="#379469" points="1044.08,-2455.29 1050.41,-2446.79 1040.16,-2449.49 1044.08,-2455.29"/>
</g>
<!-- 49414&#45;&gt;49415 -->
<g id="edge40" class="edge">
<title>49414&#45;&gt;49415</title>
<path fill="none" stroke="#379469" d="M1250.64,-2419.16C1336.45,-2410.66 1406.09,-2375.71 1601.46,-2269.71"/>
<polygon fill="#379469" stroke="#379469" points="1603.01,-2272.85 1610.13,-2265 1599.67,-2266.7 1603.01,-2272.85"/>
</g>
<!-- 49416 -->
<g id="node32" class="node">
<title>49416</title>
<polygon fill="none" stroke="#379469" points="1800.58,-2660.93 1800.58,-2675.84 1744.01,-2686.38 1664,-2686.38 1607.43,-2675.84 1607.43,-2660.93 1664,-2650.38 1744.01,-2650.38 1800.58,-2660.93"/>
<polygon fill="none" stroke="#379469" points="1804.58,-2657.6 1804.58,-2679.16 1744.38,-2690.38 1663.63,-2690.38 1603.43,-2679.16 1603.43,-2657.6 1663.63,-2646.38 1744.38,-2646.38 1804.58,-2657.6"/>
<text text-anchor="middle" x="1704.01" y="-2663.33" font-family="Times,serif" font-size="14.00">GFDL&#45;1.3&#45;invariants</text>
</g>
<!-- 49416&#45;&gt;49415 -->
<g id="edge41" class="edge">
<title>49416&#45;&gt;49415</title>
<path fill="none" stroke="#379469" stroke-width="2" d="M1695.96,-2646.09C1658.55,-2541.75 1656.77,-2521.92 1653.24,-2275.25"/>
<polygon fill="#379469" stroke="#379469" stroke-width="2" points="1653.12,-2266.53 1657.76,-2276.47 1653.66,-2269.09 1653.76,-2276.53 1653.26,-2276.53 1652.76,-2276.54 1652.66,-2269.1 1648.76,-2276.6 1653.12,-2266.53"/>
</g>
<!-- 49417 -->
<g id="node33" class="node">
<title>49417</title>
<polygon fill="none" stroke="#379469" points="1184.52,-2211.05 1184.52,-2225.96 1030.59,-2236.5 812.91,-2236.5 658.98,-2225.96 658.98,-2211.05 812.91,-2200.5 1030.59,-2200.5 1184.52,-2211.05"/>
<polygon fill="none" stroke="#379469" points="1188.52,-2207.31 1188.52,-2229.69 1030.73,-2240.5 812.77,-2240.5 654.98,-2229.69 654.98,-2207.31 812.77,-2196.5 1030.73,-2196.5 1188.52,-2207.31"/>
<text text-anchor="middle" x="921.75" y="-2213.45" font-family="Times,serif" font-size="14.00">metaeffekt:GNU Free Documentation License 1.3 (invariants)</text>
</g>
<!-- 49417&#45;&gt;49415 -->
<g id="edge42" class="edge">
<title>49417&#45;&gt;49415</title>
<path fill="none" stroke="#379469" stroke-width="2" d="M971.09,-2240.92C1176.98,-2333.69 1217.17,-2336.16 1555.09,-2263.13"/>
<polygon fill="#379469" stroke="#379469" stroke-width="2" points="1563.57,-2261.29 1554.75,-2267.8 1561.17,-2262.32 1553.9,-2263.9 1553.79,-2263.41 1553.69,-2262.92 1560.96,-2261.34 1552.84,-2259.01 1563.57,-2261.29"/>
</g>
<!-- 49418 -->
<g id="node34" class="node">
<title>49418</title>
<polygon fill="none" stroke="#379469" points="437.88,-2280.69 437.88,-2295.6 310.89,-2306.14 131.3,-2306.14 4.3,-2295.6 4.3,-2280.69 131.3,-2270.14 310.89,-2270.14 437.88,-2280.69"/>
<polygon fill="none" stroke="#379469" points="441.88,-2277 441.88,-2299.28 311.06,-2310.14 131.13,-2310.14 0.3,-2299.28 0.3,-2277 131.13,-2266.14 311.06,-2266.14 441.88,-2277"/>
<text text-anchor="middle" x="221.09" y="-2283.09" font-family="Times,serif" font-size="14.00">GNU Free Documentation License 1.3 (invariants)</text>
</g>
<!-- 49418&#45;&gt;49417 -->
<g id="edge43" class="edge">
<title>49418&#45;&gt;49417</title>
<path fill="none" stroke="#379469" stroke-width="2" d="M354.69,-2306.94C462.84,-2317.22 542.29,-2303.24 810.76,-2243.38"/>
<polygon fill="#379469" stroke="#379469" stroke-width="2" points="819.24,-2241.48 810.46,-2248.05 816.85,-2242.53 809.59,-2244.15 809.48,-2243.66 809.37,-2243.17 816.63,-2241.55 808.5,-2239.27 819.24,-2241.48"/>
</g>
<!-- 49419 -->
<g id="node35" class="node">
<title>49419</title>
<polygon fill="none" stroke="#379469" points="2019.49,-2882.94 2019.49,-2897.85 1877.25,-2908.39 1676.08,-2908.39 1533.84,-2897.85 1533.84,-2882.94 1676.08,-2872.39 1877.25,-2872.39 2019.49,-2882.94"/>
<text text-anchor="middle" x="1776.67" y="-2885.34" font-family="Times,serif" font-size="14.00">GNU Free Documentation License Version 1.3 invariants</text>
</g>
<!-- 49419&#45;&gt;49415 -->
<g id="edge44" class="edge">
<title>49419&#45;&gt;49415</title>
<path fill="none" stroke="#379469" stroke-dasharray="5,2" d="M1768.45,-2872.15C1690.92,-2699.75 1687.84,-2681.84 1655.43,-2275.2"/>
<polygon fill="#379469" stroke="#379469" points="1654.66,-2265.5 1659.94,-2275.11 1654.96,-2269.27 1655.45,-2275.47 1655.45,-2275.47 1655.45,-2275.47 1654.96,-2269.27 1650.96,-2275.83 1654.66,-2265.5"/>
</g>
<!-- 49420 -->
<g id="node36" class="node">
<title>49420</title>
<polygon fill="none" stroke="#379469" points="1271.02,-2508.37 1271.02,-2523.28 1125.2,-2533.82 918.99,-2533.82 773.17,-2523.28 773.17,-2508.37 918.99,-2497.82 1125.2,-2497.82 1271.02,-2508.37"/>
<text text-anchor="middle" x="1022.1" y="-2510.77" font-family="Times,serif" font-size="14.00">GNU Free Documentation License Version &#45; 1.3 invariants</text>
</g>
<!-- 49420&#45;&gt;49415 -->
<g id="edge45" class="edge">
<title>49420&#45;&gt;49415</title>
<path fill="none" stroke="#379469" stroke-dasharray="5,2" d="M1163.04,-2500.13C1279.09,-2480.62 1349.31,-2438.04 1608.96,-2270.17"/>
<polygon fill="#379469" stroke="#379469" points="1617.25,-2264.81 1611.3,-2274.01 1614.08,-2266.86 1608.86,-2270.24 1608.86,-2270.24 1608.86,-2270.24 1614.08,-2266.86 1606.41,-2266.46 1617.25,-2264.81"/>
</g>
<!-- 49421 -->
<g id="node37" class="node">
<title>49421</title>
<polygon fill="none" stroke="#379469" points="1591.59,-2829.82 1591.59,-2844.73 1446.43,-2855.28 1241.13,-2855.28 1095.97,-2844.73 1095.97,-2829.82 1241.13,-2819.28 1446.43,-2819.28 1591.59,-2829.82"/>
<text text-anchor="middle" x="1343.78" y="-2832.23" font-family="Times,serif" font-size="14.00">GNU Free Documentation License Version v1.3 invariants</text>
</g>
<!-- 49421&#45;&gt;49415 -->
<g id="edge46" class="edge">
<title>49421&#45;&gt;49415</title>
<path fill="none" stroke="#379469" stroke-dasharray="5,2" d="M1354.69,-2819.14C1445.77,-2667.65 1455,-2649.62 1637.1,-2274.15"/>
<polygon fill="#379469" stroke="#379469" points="1641.45,-2265.17 1641.14,-2276.13 1639.8,-2268.58 1637.09,-2274.17 1637.09,-2274.17 1637.09,-2274.17 1639.8,-2268.58 1633.04,-2272.21 1641.45,-2265.17"/>
</g>
<!-- 49422 -->
<g id="node38" class="node">
<title>49422</title>
<polygon fill="none" stroke="#379469" points="2483.63,-2566.74 2483.63,-2581.65 2334.89,-2592.19 2124.55,-2592.19 1975.82,-2581.65 1975.82,-2566.74 2124.55,-2556.19 2334.89,-2556.19 2483.63,-2566.74"/>
<text text-anchor="middle" x="2229.72" y="-2569.14" font-family="Times,serif" font-size="14.00">GNU Free Documentation License Version &#45; v1.3 invariants</text>
</g>
<!-- 49422&#45;&gt;49415 -->
<g id="edge47" class="edge">
<title>49422&#45;&gt;49415</title>
<path fill="none" stroke="#379469" stroke-dasharray="5,2" d="M2098.51,-2557.57C1939.55,-2532.52 1893.54,-2490.84 1682.02,-2272.1"/>
<polygon fill="#379469" stroke="#379469" points="1675.27,-2265.12 1685.45,-2269.18 1677.9,-2267.83 1682.22,-2272.31 1682.22,-2272.31 1682.22,-2272.31 1677.9,-2267.83 1678.98,-2275.43 1675.27,-2265.12"/>
</g>
<!-- 49423 -->
<g id="node39" class="node">
<title>49423</title>
<polygon fill="none" stroke="#379469" points="1425.45,-2561.48 1425.45,-2576.39 1346.81,-2586.94 1235.59,-2586.94 1156.95,-2576.39 1156.95,-2561.48 1235.59,-2550.94 1346.81,-2550.94 1425.45,-2561.48"/>
<text text-anchor="middle" x="1291.2" y="-2563.89" font-family="Times,serif" font-size="14.00">GFDL Version 1.3 &#45; invariants</text>
</g>
<!-- 49423&#45;&gt;49415 -->
<g id="edge48" class="edge">
<title>49423&#45;&gt;49415</title>
<path fill="none" stroke="#379469" stroke-dasharray="5,2" d="M1324.64,-2550.45C1425.99,-2493.83 1447,-2472.89 1625.54,-2272.42"/>
<polygon fill="#379469" stroke="#379469" points="1631.97,-2265.19 1628.68,-2275.65 1629.46,-2268.02 1625.32,-2272.66 1625.32,-2272.66 1625.32,-2272.66 1629.46,-2268.02 1621.96,-2269.67 1631.97,-2265.19"/>
</g>
<!-- 49424 -->
<g id="node40" class="node">
<title>49424</title>
<polygon fill="none" stroke="#379469" points="1985.51,-2612.69 1985.51,-2627.6 1926.34,-2638.14 1842.66,-2638.14 1783.49,-2627.6 1783.49,-2612.69 1842.66,-2602.14 1926.34,-2602.14 1985.51,-2612.69"/>
<text text-anchor="middle" x="1884.5" y="-2615.09" font-family="Times,serif" font-size="14.00">GFDL 1.3 &#45; invariants</text>
</g>
<!-- 49424&#45;&gt;49415 -->
<g id="edge49" class="edge">
<title>49424&#45;&gt;49415</title>
<path fill="none" stroke="#379469" stroke-dasharray="5,2" d="M1861.1,-2601.91C1757.9,-2521 1747.92,-2502.43 1664.61,-2274.29"/>
<polygon fill="#379469" stroke="#379469" points="1661.27,-2265.12 1668.92,-2272.98 1662.56,-2268.68 1664.69,-2274.52 1664.69,-2274.52 1664.69,-2274.52 1662.56,-2268.68 1660.47,-2276.06 1661.27,-2265.12"/>
</g>
<!-- 49425 -->
<g id="node41" class="node">
<title>49425</title>
<polygon fill="none" stroke="#379469" points="1497.25,-2338.33 1497.25,-2353.24 1422.18,-2363.79 1316.01,-2363.79 1240.94,-2353.24 1240.94,-2338.33 1316.01,-2327.79 1422.18,-2327.79 1497.25,-2338.33"/>
<text text-anchor="middle" x="1369.1" y="-2340.74" font-family="Times,serif" font-size="14.00">GFDL Version 1.3 invariants</text>
</g>
<!-- 49425&#45;&gt;49415 -->
<g id="edge50" class="edge">
<title>49425&#45;&gt;49415</title>
<path fill="none" stroke="#379469" stroke-dasharray="5,2" d="M1484.69,-2336.25C1514.57,-2326.32 1548.05,-2307 1607.55,-2270.07"/>
<polygon fill="#379469" stroke="#379469" points="1615.88,-2264.88 1609.77,-2273.99 1612.67,-2266.88 1607.39,-2270.16 1607.39,-2270.16 1607.39,-2270.16 1612.67,-2266.88 1605.01,-2266.34 1615.88,-2264.88"/>
</g>
<!-- 49426 -->
<g id="node42" class="node">
<title>49426</title>
<polygon fill="none" stroke="#379469" points="1699.75,-2739.47 1699.75,-2754.38 1620.79,-2764.92 1509.11,-2764.92 1430.15,-2754.38 1430.15,-2739.47 1509.11,-2728.92 1620.79,-2728.92 1699.75,-2739.47"/>
<text text-anchor="middle" x="1564.95" y="-2741.87" font-family="Times,serif" font-size="14.00">GFDL Version 1.3 (invariants)</text>
</g>
<!-- 49426&#45;&gt;49415 -->
<g id="edge51" class="edge">
<title>49426&#45;&gt;49415</title>
<path fill="none" stroke="#379469" stroke-dasharray="5,2" d="M1566.5,-2728.63C1577.79,-2596.23 1580.92,-2578.88 1645.72,-2274.92"/>
<polygon fill="#379469" stroke="#379469" points="1647.79,-2265.18 1650.11,-2275.9 1647,-2268.88 1645.71,-2274.96 1645.71,-2274.96 1645.71,-2274.96 1647,-2268.88 1641.31,-2274.02 1647.79,-2265.18"/>
</g>
<!-- 49427 -->
<g id="node43" class="node">
<title>49427</title>
<polygon fill="none" stroke="#379469" points="2073.16,-2471.36 2073.16,-2486.27 2014.64,-2496.81 1931.88,-2496.81 1873.36,-2486.27 1873.36,-2471.36 1931.88,-2460.81 2014.64,-2460.81 2073.16,-2471.36"/>
<text text-anchor="middle" x="1973.26" y="-2473.76" font-family="Times,serif" font-size="14.00">GFDL v1.3 invariants</text>
</g>
<!-- 49427&#45;&gt;49415 -->
<g id="edge52" class="edge">
<title>49427&#45;&gt;49415</title>
<path fill="none" stroke="#379469" stroke-dasharray="5,2" d="M1911.51,-2464.12C1806.55,-2437.38 1784.31,-2415.12 1676.06,-2272.57"/>
<polygon fill="#379469" stroke="#379469" points="1670.22,-2264.87 1679.85,-2270.12 1672.51,-2267.89 1676.27,-2272.84 1676.27,-2272.84 1676.27,-2272.84 1672.51,-2267.89 1672.68,-2275.56 1670.22,-2264.87"/>
</g>
<!-- 49428 -->
<g id="node44" class="node">
<title>49428</title>
<polygon fill="none" stroke="#379469" points="1564.41,-2611.39 1564.41,-2626.31 1502.32,-2636.85 1414.51,-2636.85 1352.42,-2626.31 1352.42,-2611.39 1414.51,-2600.85 1502.32,-2600.85 1564.41,-2611.39"/>
<text text-anchor="middle" x="1458.42" y="-2613.8" font-family="Times,serif" font-size="14.00">GFDL v1.3 &#45; invariants</text>
</g>
<!-- 49428&#45;&gt;49415 -->
<g id="edge53" class="edge">
<title>49428&#45;&gt;49415</title>
<path fill="none" stroke="#379469" stroke-dasharray="5,2" d="M1469.61,-2600.37C1522.74,-2512.51 1531.65,-2494.92 1637.37,-2274.03"/>
<polygon fill="#379469" stroke="#379469" points="1641.62,-2265.14 1641.36,-2276.1 1639.99,-2268.55 1637.3,-2274.16 1637.3,-2274.16 1637.3,-2274.16 1639.99,-2268.55 1633.24,-2272.22 1641.62,-2265.14"/>
</g>
<!-- 67241 -->
<g id="node45" class="node">
<title>67241</title>
<ellipse fill="none" stroke="#00876c" cx="2594.72" cy="-1553.96" rx="160.34" ry="28.99"/>
<text text-anchor="middle" x="2594.72" y="-1557.16" font-family="Times,serif" font-size="14.00" fill="gray">LicenseLynx</text>
<text text-anchor="middle" x="2594.72" y="-1540.66" font-family="Times,serif" font-size="14.00" fill="gray">c20b1a21a9e04dab300648ca90560709</text>
</g>
<!-- 67241&#45;&gt;2050 -->
<g id="edge54" class="edge">
<title>67241&#45;&gt;2050</title>
<path fill="none" stroke="#00876c" d="M2546.14,-1581.91C2470.97,-1623.86 2432.37,-1634.93 2292.97,-1645.51"/>
<polygon fill="#00876c" stroke="#00876c" points="2293.09,-1641.99 2283.38,-1646.22 2293.61,-1648.97 2293.09,-1641.99"/>
</g>
<!-- 67242&#45;&gt;2050 -->
<g id="edge55" class="edge">
<title>67242&#45;&gt;2050</title>
<path fill="none" stroke="#00876c" stroke-width="2" d="M1567.69,-1549.01C1729.26,-1664.88 1769.24,-1684.27 1975.79,-1669.47"/>
<polygon fill="#00876c" stroke="#00876c" stroke-width="2" points="1984.29,-1668.85 1974.64,-1674.07 1981.77,-1669.53 1974.35,-1670.08 1974.31,-1669.58 1974.28,-1669.08 1981.69,-1668.54 1973.98,-1665.09 1984.29,-1668.85"/>
</g>
</g>
</svg>
