<?xml version="1.0" encoding="UTF-8" standalone="no"?>
<!DOCTYPE svg PUBLIC "-//W3C//DTD SVG 1.1//EN"
 "http://www.w3.org/Graphics/SVG/1.1/DTD/svg11.dtd">
<!-- Generated by graphviz version 10.0.1 (0)
 -->
<!-- Pages: 1 -->
<svg width="3766pt" height="2201pt"
 viewBox="0.00 0.00 3766.00 2201.00" xmlns="http://www.w3.org/2000/svg" xmlns:xlink="http://www.w3.org/1999/xlink">
<g id="graph0" class="graph" transform="scale(1 1) rotate(0) translate(4 2197)">
<polygon fill="white" stroke="none" points="-4,4 -4,-2197 3762,-2197 3762,4 -4,4"/>
<!-- 5 -->
<g id="node1" class="node">
<title>5</title>
<text text-anchor="start" x="999.49" y="-503.11" font-family="Times,serif" font-size="14.00">OSI: </text>
<text text-anchor="start" x="1028.74" y="-503.11" font-family="Times,serif" font-weight="bold" font-size="14.00" fill="#8b0000">Rejected</text>
</g>
<!-- 2028 -->
<g id="node6" class="node">
<title>2028</title>
<ellipse fill="none" stroke="#dac767" cx="1348.59" cy="-666.19" rx="159.81" ry="28.99"/>
<text text-anchor="middle" x="1348.59" y="-669.39" font-family="Times,serif" font-size="14.00" fill="gray">SPDXLicense</text>
<text text-anchor="middle" x="1348.59" y="-652.89" font-family="Times,serif" font-size="14.00" fill="gray">f2ec85b2dee2344ba5334b36354133b4</text>
</g>
<!-- 5&#45;&gt;2028 -->
<g id="edge1" class="edge">
<title>5&#45;&gt;2028</title>
<path fill="none" stroke="#dac767" d="M1085.18,-525.05C1137.55,-546.12 1168.05,-562.53 1290.14,-632.59"/>
<polygon fill="#dac767" stroke="#dac767" points="1288.14,-635.48 1298.55,-637.43 1291.62,-629.41 1288.14,-635.48"/>
</g>
<!-- 2014 -->
<g id="node2" class="node">
<title>2014</title>
<text text-anchor="middle" x="1241.19" y="-208.83" font-family="Times,serif" font-size="14.00">$TEXT</text>
</g>
<!-- 2014&#45;&gt;2028 -->
<g id="edge2" class="edge">
<title>2014&#45;&gt;2028</title>
<path fill="none" stroke="#dac767" d="M1240.29,-231.55C1233.61,-364.15 1237.2,-380.71 1332.94,-626.12"/>
<polygon fill="#dac767" stroke="#dac767" points="1329.68,-627.38 1336.57,-635.42 1336.2,-624.84 1329.68,-627.38"/>
</g>
<!-- 2015 -->
<g id="node3" class="node">
<title>2015</title>
<text text-anchor="middle" x="1080.74" y="-92.84" font-family="Times,serif" font-size="14.00">$TEXT</text>
</g>
<!-- 2015&#45;&gt;2014 -->
<g id="edge3" class="edge">
<title>2015&#45;&gt;2014</title>
<path fill="none" stroke="#dac767" d="M1108.91,-111.5C1136.87,-125.81 1153.1,-138.46 1211.7,-188.59"/>
<polygon fill="#dac767" stroke="#dac767" points="1209.23,-191.08 1219.1,-194.93 1213.78,-185.76 1209.23,-191.08"/>
</g>
<!-- 2016 -->
<g id="node4" class="node">
<title>2016</title>
<text text-anchor="middle" x="949.54" y="-1039.97" font-family="Times,serif" font-size="14.00">https://www.gnu.org/licenses/old&#45;licenses/fdl&#45;1.2.txt</text>
</g>
<!-- 2016&#45;&gt;2028 -->
<g id="edge4" class="edge">
<title>2016&#45;&gt;2028</title>
<path fill="none" stroke="#dac767" d="M957.13,-1027.15C1037.94,-837.12 1051.12,-818.76 1284.33,-699.01"/>
<polygon fill="#dac767" stroke="#dac767" points="1285.87,-702.16 1293.17,-694.48 1282.67,-695.93 1285.87,-702.16"/>
</g>
<!-- 17774 -->
<g id="node22" class="node">
<title>17774</title>
<ellipse fill="none" stroke="#deb256" cx="668" cy="-1520.38" rx="158.75" ry="28.99"/>
<text text-anchor="middle" x="668" y="-1523.58" font-family="Times,serif" font-size="14.00" fill="gray">ScancodeData</text>
<text text-anchor="middle" x="668" y="-1507.08" font-family="Times,serif" font-size="14.00" fill="gray">20ef6361896882b7bad52eb215fd2ab2</text>
</g>
<!-- 2016&#45;&gt;17774 -->
<g id="edge5" class="edge">
<title>2016&#45;&gt;17774</title>
<path fill="none" stroke="#deb256" d="M932.05,-1063.01C715.53,-1285.68 700.3,-1305.13 673.96,-1479.93"/>
<polygon fill="#deb256" stroke="#deb256" points="670.53,-1479.21 672.51,-1489.62 677.45,-1480.25 670.53,-1479.21"/>
</g>
<!-- 2022 -->
<g id="node5" class="node">
<title>2022</title>
<text text-anchor="middle" x="1328.32" y="-38.97" font-family="Times,serif" font-size="14.00">$TEXT</text>
</g>
<!-- 2022&#45;&gt;2014 -->
<g id="edge6" class="edge">
<title>2022&#45;&gt;2014</title>
<path fill="none" stroke="#dac767" d="M1307.01,-61.79C1268.81,-94.52 1262.75,-108.37 1247.08,-184.74"/>
<polygon fill="#dac767" stroke="#dac767" points="1243.67,-183.96 1245.1,-194.46 1250.53,-185.35 1243.67,-183.96"/>
</g>
<!-- 2029 -->
<g id="node7" class="node">
<title>2029</title>
<polygon fill="none" stroke="black" points="1908.61,-1198.73 1908.61,-1213.64 1812.45,-1224.19 1676.45,-1224.19 1580.29,-1213.64 1580.29,-1198.73 1676.45,-1188.19 1812.45,-1188.19 1908.61,-1198.73"/>
<polygon fill="none" stroke="black" points="1912.61,-1195.14 1912.61,-1217.23 1812.67,-1228.19 1676.23,-1228.19 1576.29,-1217.23 1576.29,-1195.14 1676.23,-1184.19 1812.67,-1184.19 1912.61,-1195.14"/>
<polygon fill="none" stroke="black" points="1916.61,-1191.56 1916.61,-1220.81 1812.89,-1232.19 1676.02,-1232.19 1572.29,-1220.81 1572.29,-1191.56 1676.02,-1180.19 1812.89,-1180.19 1916.61,-1191.56"/>
<text text-anchor="middle" x="1744.45" y="-1201.14" font-family="Times,serif" font-size="14.00">spdx:GFDL&#45;1.2&#45;no&#45;invariants&#45;or&#45;later</text>
</g>
<!-- 2028&#45;&gt;2029 -->
<g id="edge7" class="edge">
<title>2028&#45;&gt;2029</title>
<path fill="none" stroke="#dac767" d="M1359.3,-695.49C1424.1,-871.86 1440.11,-892.51 1711.28,-1172"/>
<polygon fill="#dac767" stroke="#dac767" points="1708.43,-1174.1 1717.91,-1178.84 1713.45,-1169.22 1708.43,-1174.1"/>
</g>
<!-- 7222 -->
<g id="node16" class="node">
<title>7222</title>
<polygon fill="none" stroke="#e09d4b" points="2495.6,-1015.31 2495.6,-1030.22 2394.25,-1040.76 2250.91,-1040.76 2149.55,-1030.22 2149.55,-1015.31 2250.91,-1004.76 2394.25,-1004.76 2495.6,-1015.31"/>
<polygon fill="none" stroke="#e09d4b" points="2499.6,-1011.7 2499.6,-1033.83 2394.45,-1044.76 2250.7,-1044.76 2145.55,-1033.83 2145.55,-1011.7 2250.7,-1000.76 2394.45,-1000.76 2499.6,-1011.7"/>
<text text-anchor="middle" x="2322.58" y="-1017.71" font-family="Times,serif" font-size="14.00">Fedora:GFDL&#45;1.2&#45;no&#45;invariants&#45;or&#45;later</text>
</g>
<!-- 2029&#45;&gt;7222 -->
<g id="edge8" class="edge">
<title>2029&#45;&gt;7222</title>
<path fill="none" stroke="#e09d4b" stroke-width="2" d="M1857.66,-1184.63C2123.24,-1133.64 2164.47,-1120.38 2277.35,-1050.96"/>
<polygon fill="#e09d4b" stroke="#e09d4b" stroke-width="2" points="2284.61,-1046.48 2278.47,-1055.56 2282.69,-1048.25 2276.36,-1052.16 2276.1,-1051.73 2275.84,-1051.31 2282.17,-1047.4 2273.74,-1047.91 2284.61,-1046.48"/>
</g>
<!-- 17775 -->
<g id="node23" class="node">
<title>17775</title>
<polygon fill="none" stroke="black" points="1465.21,-1378.52 1465.21,-1393.43 1364.5,-1403.98 1222.08,-1403.98 1121.37,-1393.43 1121.37,-1378.52 1222.08,-1367.98 1364.5,-1367.98 1465.21,-1378.52"/>
<polygon fill="none" stroke="black" points="1469.21,-1374.92 1469.21,-1397.03 1364.71,-1407.98 1221.87,-1407.98 1117.37,-1397.03 1117.37,-1374.92 1221.87,-1363.98 1364.71,-1363.98 1469.21,-1374.92"/>
<text text-anchor="middle" x="1293.29" y="-1380.93" font-family="Times,serif" font-size="14.00">scancode:gfdl&#45;1.2&#45;no&#45;invariants&#45;or&#45;later</text>
</g>
<!-- 2029&#45;&gt;17775 -->
<g id="edge9" class="edge">
<title>2029&#45;&gt;17775</title>
<path fill="none" stroke="#deb256" stroke-width="2" d="M1666.76,-1231.55C1575.79,-1265.39 1427.47,-1324.7 1347.87,-1359.22"/>
<polygon fill="#deb256" stroke="#deb256" stroke-width="2" points="1340.27,-1362.54 1347.64,-1354.41 1342.42,-1361.06 1349.24,-1358.08 1349.44,-1358.54 1349.64,-1359 1342.82,-1361.97 1351.24,-1362.66 1340.27,-1362.54"/>
</g>
<!-- 2030 -->
<g id="node8" class="node">
<title>2030</title>
<polygon fill="none" stroke="black" points="1945.67,-1141.46 1945.67,-1156.38 1862.16,-1166.92 1744.06,-1166.92 1660.56,-1156.38 1660.56,-1141.46 1744.06,-1130.92 1862.16,-1130.92 1945.67,-1141.46"/>
<polygon fill="none" stroke="black" points="1949.67,-1137.94 1949.67,-1159.9 1862.41,-1170.92 1743.81,-1170.92 1656.56,-1159.9 1656.56,-1137.94 1743.81,-1126.92 1862.41,-1126.92 1949.67,-1137.94"/>
<text text-anchor="middle" x="1803.11" y="-1143.87" font-family="Times,serif" font-size="14.00">GFDL&#45;1.2&#45;no&#45;invariants&#45;or&#45;later</text>
</g>
<!-- 2030&#45;&gt;2029 -->
<g id="edge10" class="edge">
<title>2030&#45;&gt;2029</title>
<path fill="none" stroke="black" stroke-width="2" d="M1778.68,-1171.28C1778.35,-1171.59 1778.02,-1171.89 1777.7,-1172.18"/>
<polygon fill="black" stroke="black" stroke-width="2" points="1771.35,-1178.1 1775.6,-1167.99 1772.89,-1175.99 1778.33,-1170.92 1778.67,-1171.28 1779.01,-1171.65 1773.57,-1176.72 1781.74,-1174.58 1771.35,-1178.1"/>
</g>
<!-- 2030&#45;&gt;7222 -->
<g id="edge11" class="edge">
<title>2030&#45;&gt;7222</title>
<path fill="none" stroke="#e09d4b" stroke-width="2" d="M1897.83,-1130.99C2115.98,-1089.58 2168.26,-1078.13 2251.04,-1048.96"/>
<polygon fill="#e09d4b" stroke="#e09d4b" stroke-width="2" points="2259.27,-1046.03 2251.36,-1053.62 2257.03,-1047.36 2250.02,-1049.85 2249.85,-1049.38 2249.68,-1048.91 2256.69,-1046.42 2248.34,-1045.14 2259.27,-1046.03"/>
</g>
<!-- 2030&#45;&gt;17775 -->
<g id="edge12" class="edge">
<title>2030&#45;&gt;17775</title>
<path fill="none" stroke="black" stroke-width="2" d="M1756.45,-1171.3C1497.25,-1295.59 1451.05,-1317.51 1355.16,-1359.21"/>
<polygon fill="black" stroke="black" stroke-width="2" points="1347.33,-1362.61 1354.71,-1354.5 1349.48,-1361.13 1356.3,-1358.17 1356.5,-1358.63 1356.7,-1359.09 1349.88,-1362.05 1358.29,-1362.76 1347.33,-1362.61"/>
</g>
<!-- 41566 -->
<g id="node30" class="node">
<title>41566</title>
<polygon fill="none" stroke="#379469" points="2044.61,-932.9 2044.61,-947.81 1948.12,-958.35 1811.66,-958.35 1715.17,-947.81 1715.17,-932.9 1811.66,-922.35 1948.12,-922.35 2044.61,-932.9"/>
<polygon fill="none" stroke="#379469" points="2048.61,-929.31 2048.61,-951.4 1948.34,-962.35 1811.44,-962.35 1711.17,-951.4 1711.17,-929.31 1811.44,-918.35 1948.34,-918.35 2048.61,-929.31"/>
<text text-anchor="middle" x="1879.89" y="-935.3" font-family="Times,serif" font-size="14.00">cavil:GFDL&#45;1.2&#45;no&#45;invariants&#45;or&#45;later</text>
</g>
<!-- 2030&#45;&gt;41566 -->
<g id="edge13" class="edge">
<title>2030&#45;&gt;41566</title>
<path fill="none" stroke="#379469" stroke-width="2" d="M1805.07,-1126.76C1813.72,-1030.1 1817.56,-1009.99 1851.82,-970.75"/>
<polygon fill="#379469" stroke="#379469" stroke-width="2" points="1857.46,-964.44 1854.15,-974.89 1856.13,-966.68 1851.17,-972.23 1850.8,-971.9 1850.42,-971.56 1855.38,-966.02 1847.44,-968.9 1857.46,-964.44"/>
</g>
<!-- 2031 -->
<g id="node9" class="node">
<title>2031</title>
<polygon fill="none" stroke="black" points="2120.4,-1255.37 2120.4,-1270.28 1964.85,-1280.83 1744.87,-1280.83 1589.32,-1270.28 1589.32,-1255.37 1744.87,-1244.83 1964.85,-1244.83 2120.4,-1255.37"/>
<polygon fill="none" stroke="black" points="2124.4,-1251.63 2124.4,-1274.02 1964.98,-1284.83 1744.73,-1284.83 1585.32,-1274.02 1585.32,-1251.63 1744.73,-1240.83 1964.98,-1240.83 2124.4,-1251.63"/>
<text text-anchor="middle" x="1854.86" y="-1257.78" font-family="Times,serif" font-size="14.00">GNU Free Documentation License v1.2 or later &#45; no invariants</text>
</g>
<!-- 2031&#45;&gt;2029 -->
<g id="edge14" class="edge">
<title>2031&#45;&gt;2029</title>
<path fill="none" stroke="#dac767" stroke-width="2" d="M1776.05,-1240.6C1775.89,-1240.45 1775.72,-1240.3 1775.55,-1240.15"/>
<polygon fill="#dac767" stroke="#dac767" stroke-width="2" points="1769.44,-1234.17 1779.73,-1237.94 1771.62,-1235.6 1776.94,-1240.8 1776.59,-1241.16 1776.24,-1241.52 1770.92,-1236.32 1773.44,-1244.38 1769.44,-1234.17"/>
</g>
<!-- 2031&#45;&gt;7222 -->
<g id="edge15" class="edge">
<title>2031&#45;&gt;7222</title>
<path fill="none" stroke="#e09d4b" stroke-dasharray="5,2" d="M1932.39,-1240.34C2170.37,-1170.87 2198.87,-1155.85 2294.27,-1053.43"/>
<polygon fill="#e09d4b" stroke="#e09d4b" points="2301.04,-1046.14 2297.54,-1056.53 2298.47,-1048.91 2294.24,-1053.47 2294.24,-1053.47 2294.24,-1053.47 2298.47,-1048.91 2290.94,-1050.4 2301.04,-1046.14"/>
</g>
<!-- 2031&#45;&gt;17775 -->
<g id="edge16" class="edge">
<title>2031&#45;&gt;17775</title>
<path fill="none" stroke="#deb256" stroke-width="2" d="M1790.62,-1285.28C1626.07,-1342.69 1545.99,-1369.44 1480.41,-1380.89"/>
<polygon fill="#deb256" stroke="#deb256" stroke-width="2" points="1471.99,-1382.26 1481.13,-1376.21 1474.43,-1381.36 1481.77,-1380.16 1481.85,-1380.65 1481.94,-1381.14 1474.6,-1382.34 1482.58,-1385.09 1471.99,-1382.26"/>
</g>
<!-- 67232 -->
<g id="node32" class="node">
<title>67232</title>
<polygon fill="none" stroke="#00876c" points="1485.51,-1243.41 1485.51,-1258.32 1317.31,-1268.87 1079.43,-1268.87 911.22,-1258.32 911.22,-1243.41 1079.43,-1232.87 1317.31,-1232.87 1485.51,-1243.41"/>
<polygon fill="none" stroke="#00876c" points="1489.51,-1239.66 1489.51,-1262.08 1317.43,-1272.87 1079.3,-1272.87 907.22,-1262.08 907.22,-1239.66 1079.3,-1228.87 1317.43,-1228.87 1489.51,-1239.66"/>
<text text-anchor="middle" x="1198.37" y="-1245.82" font-family="Times,serif" font-size="14.00">spdx:GNU Free Documentation License v1.2 or later &#45; no invariants</text>
</g>
<!-- 2031&#45;&gt;67232 -->
<g id="edge17" class="edge">
<title>2031&#45;&gt;67232</title>
<path fill="none" stroke="#00876c" stroke-width="2" d="M1683.39,-1281.1C1457.53,-1304.27 1396.28,-1303.89 1288.48,-1276.1"/>
<polygon fill="#00876c" stroke="#00876c" stroke-width="2" points="1280.25,-1273.95 1291.06,-1272.13 1282.85,-1274.11 1290.05,-1276 1289.92,-1276.48 1289.79,-1276.97 1282.6,-1275.08 1288.78,-1280.84 1280.25,-1273.95"/>
</g>
<!-- 2032 -->
<g id="node10" class="node">
<title>2032</title>
<text text-anchor="middle" x="1422.2" y="-611.18" font-family="Times,serif" font-size="14.00">SPDXLicense:</text>
<text text-anchor="middle" x="1422.2" y="-594.68" font-family="Times,serif" font-size="14.00">This license was released November 2002. The identifier</text>
<text text-anchor="middle" x="1422.2" y="-578.18" font-family="Times,serif" font-size="14.00">GFDL&#45;1.2&#45;or&#45;later&#45;no&#45;invariants should only be used when there are no Invariant</text>
<text text-anchor="middle" x="1422.2" y="-561.68" font-family="Times,serif" font-size="14.00">Sections, Front&#45;Cover Texts or Back&#45;Cover Texts. See GFDL&#45;1.2&#45;or&#45;later and</text>
<text text-anchor="middle" x="1422.2" y="-545.18" font-family="Times,serif" font-size="14.00">GFDL&#45;1.2&#45;or&#45;later&#45;invariants for alternatives.</text>
</g>
<!-- 2032&#45;&gt;2028 -->
<g id="edge18" class="edge">
<title>2032&#45;&gt;2028</title>
<path fill="none" stroke="#dac767" d="M1363.52,-628.45C1363.45,-628.6 1363.37,-628.76 1363.29,-628.92"/>
<polygon fill="#dac767" stroke="#dac767" points="1361.29,-624.84 1360.38,-635.4 1367.67,-627.71 1361.29,-624.84"/>
</g>
<!-- 2033 -->
<g id="node11" class="node">
<title>2033</title>
<text text-anchor="middle" x="1192.75" y="-13.36" font-family="Times,serif" font-size="14.00">$TEXT</text>
</g>
<!-- 2033&#45;&gt;2014 -->
<g id="edge19" class="edge">
<title>2033&#45;&gt;2014</title>
<path fill="none" stroke="#dac767" d="M1193.26,-36.24C1194.77,-79.96 1198.46,-93.73 1231.07,-185.45"/>
<polygon fill="#dac767" stroke="#dac767" points="1227.7,-186.43 1234.35,-194.68 1234.29,-184.08 1227.7,-186.43"/>
</g>
<!-- 6668 -->
<g id="node12" class="node">
<title>6668</title>
<text text-anchor="middle" x="3345.96" y="-766.78" font-family="Times,serif" font-size="14.00">[&quot;allowed&#45;documentation&quot;]</text>
</g>
<!-- 7221 -->
<g id="node15" class="node">
<title>7221</title>
<ellipse fill="none" stroke="#e09d4b" cx="2920.03" cy="-880.12" rx="158.22" ry="28.99"/>
<text text-anchor="middle" x="2920.03" y="-883.32" font-family="Times,serif" font-size="14.00" fill="gray">FedoraEntry</text>
<text text-anchor="middle" x="2920.03" y="-866.82" font-family="Times,serif" font-size="14.00" fill="gray">308fd1ac15660d1702828fbc274e9d6a</text>
</g>
<!-- 6668&#45;&gt;7221 -->
<g id="edge20" class="edge">
<title>6668&#45;&gt;7221</title>
<path fill="none" stroke="#e09d4b" d="M3281.51,-789.81C3219.7,-806.83 3176.25,-817.74 3027.12,-854.07"/>
<polygon fill="#e09d4b" stroke="#e09d4b" points="3026.55,-850.6 3017.66,-856.37 3028.21,-857.4 3026.55,-850.6"/>
</g>
<!-- 6669 -->
<g id="node13" class="node">
<title>6669</title>
<text text-anchor="start" x="3568.97" y="-688.61" font-family="Times,serif" font-size="14.00">Fedora: </text>
<text text-anchor="start" x="3613.97" y="-688.61" font-family="Times,serif" font-weight="bold" font-size="14.00" fill="#000000">allowed&#45;documentation</text>
</g>
<!-- 6669&#45;&gt;6668 -->
<g id="edge21" class="edge">
<title>6669&#45;&gt;6668</title>
<path fill="none" stroke="#e09d4b" d="M3592.52,-710.66C3556.14,-720.25 3519.93,-729.26 3430.53,-751.14"/>
<polygon fill="#e09d4b" stroke="#e09d4b" points="3429.72,-747.74 3420.83,-753.52 3431.38,-754.54 3429.72,-747.74"/>
</g>
<!-- 7203 -->
<g id="node14" class="node">
<title>7203</title>
<polygon fill="none" stroke="black" points="2672.13,-837.15 2672.13,-852.06 2649.96,-862.6 2618.6,-862.6 2596.42,-852.06 2596.42,-837.15 2618.6,-826.6 2649.96,-826.6 2672.13,-837.15"/>
<text text-anchor="middle" x="2634.28" y="-839.55" font-family="Times,serif" font-size="14.00">GFDL</text>
</g>
<!-- 7203&#45;&gt;7222 -->
<g id="edge22" class="edge">
<title>7203&#45;&gt;7222</title>
<path fill="none" stroke="#e09d4b" stroke-dasharray="5,2" d="M2614.12,-860.92C2552.96,-910.13 2532.8,-921.79 2379.21,-995.6"/>
<polygon fill="#e09d4b" stroke="#e09d4b" points="2370.49,-999.79 2377.55,-991.4 2373.9,-998.15 2379.5,-995.46 2379.5,-995.46 2379.5,-995.46 2373.9,-998.15 2381.45,-999.52 2370.49,-999.79"/>
</g>
<!-- 7221&#45;&gt;7222 -->
<g id="edge23" class="edge">
<title>7221&#45;&gt;7222</title>
<path fill="none" stroke="#e09d4b" d="M2829.27,-904.31C2736.42,-928.7 2672.85,-943.46 2424.13,-999.78"/>
<polygon fill="#e09d4b" stroke="#e09d4b" points="2423.37,-996.36 2414.39,-1001.98 2424.92,-1003.19 2423.37,-996.36"/>
</g>
<!-- 12439 -->
<g id="node17" class="node">
<title>12439</title>
<text text-anchor="middle" x="298.7" y="-1635.7" font-family="Times,serif" font-size="14.00">LicenseType Copyleft Limited</text>
</g>
<!-- 12439&#45;&gt;17774 -->
<g id="edge24" class="edge">
<title>12439&#45;&gt;17774</title>
<path fill="none" stroke="#deb256" d="M355.82,-1622.88C410.02,-1605.82 448.12,-1593.33 579.56,-1549.73"/>
<polygon fill="#deb256" stroke="#deb256" points="580.62,-1553.06 589.01,-1546.59 578.42,-1546.42 580.62,-1553.06"/>
</g>
<!-- 17763 -->
<g id="node18" class="node">
<title>17763</title>
<text text-anchor="middle" x="489.81" y="-1964.8" font-family="Times,serif" font-size="14.00">http://www.gnu.org/licenses/old&#45;licenses/fdl&#45;1.2.txt</text>
</g>
<!-- 17763&#45;&gt;17774 -->
<g id="edge25" class="edge">
<title>17763&#45;&gt;17774</title>
<path fill="none" stroke="#deb256" d="M490.07,-1951.85C492.45,-1796.53 497.78,-1780.48 642.75,-1558.92"/>
<polygon fill="#deb256" stroke="#deb256" points="645.48,-1561.13 648.03,-1550.85 639.63,-1557.3 645.48,-1561.13"/>
</g>
<!-- 17764 -->
<g id="node19" class="node">
<title>17764</title>
<text text-anchor="middle" x="163.86" y="-1529.11" font-family="Times,serif" font-size="14.00">ScancodeData:</text>
<text text-anchor="middle" x="163.86" y="-1512.61" font-family="Times,serif" font-size="14.00">Per SPDX.org, this license was released November 2002</text>
</g>
<!-- 17764&#45;&gt;17774 -->
<g id="edge26" class="edge">
<title>17764&#45;&gt;17774</title>
<path fill="none" stroke="#deb256" d="M327.23,-1544.34C370.74,-1544.74 424.31,-1541.36 512.89,-1533.95"/>
<polygon fill="#deb256" stroke="#deb256" points="512.98,-1537.45 522.65,-1533.12 512.39,-1530.47 512.98,-1537.45"/>
</g>
<!-- 17765 -->
<g id="node20" class="node">
<title>17765</title>
<text text-anchor="middle" x="346.69" y="-1810.56" font-family="Times,serif" font-size="14.00">http://www.gnu.org/licenses/fdl&#45;1.2.txt</text>
</g>
<!-- 17765&#45;&gt;17774 -->
<g id="edge27" class="edge">
<title>17765&#45;&gt;17774</title>
<path fill="none" stroke="#deb256" d="M359.17,-1797.88C422.47,-1708.17 437.83,-1693.51 620.95,-1555.74"/>
<polygon fill="#deb256" stroke="#deb256" points="622.98,-1558.59 628.87,-1549.78 618.78,-1552.99 622.98,-1558.59"/>
</g>
<!-- 17766 -->
<g id="node21" class="node">
<title>17766</title>
<text text-anchor="middle" x="254.69" y="-1303.21" font-family="Times,serif" font-size="14.00">http://www.gnu.org/licenses/old&#45;licenses/fdl&#45;1.2.txt</text>
</g>
<!-- 17766&#45;&gt;17774 -->
<g id="edge28" class="edge">
<title>17766&#45;&gt;17774</title>
<path fill="none" stroke="#deb256" d="M271.21,-1326.23C358.52,-1420.87 380.44,-1436.14 571.46,-1492.37"/>
<polygon fill="#deb256" stroke="#deb256" points="570.44,-1495.72 581.02,-1495.18 572.41,-1489.01 570.44,-1495.72"/>
</g>
<!-- 17774&#45;&gt;17775 -->
<g id="edge29" class="edge">
<title>17774&#45;&gt;17775</title>
<path fill="none" stroke="#deb256" d="M802.95,-1504.75C887.79,-1492.27 967.66,-1472.17 1201.39,-1410.32"/>
<polygon fill="#deb256" stroke="#deb256" points="1202.05,-1413.77 1210.82,-1407.83 1200.26,-1407.01 1202.05,-1413.77"/>
</g>
<!-- 17775&#45;&gt;2029 -->
<g id="edge30" class="edge">
<title>17775&#45;&gt;2029</title>
<path fill="none" stroke="#00876c" stroke-width="2" d="M1363.17,-1363.51C1449.94,-1331.47 1596.71,-1272.96 1680.59,-1236.94"/>
<polygon fill="#00876c" stroke="#00876c" stroke-width="2" points="1688.51,-1233.52 1681.11,-1241.62 1686.36,-1235 1679.53,-1237.95 1679.33,-1237.49 1679.13,-1237.03 1685.96,-1234.08 1677.55,-1233.35 1688.51,-1233.52"/>
</g>
<!-- 17776 -->
<g id="node24" class="node">
<title>17776</title>
<text text-anchor="middle" x="654.72" y="-1828.07" font-family="Times,serif" font-size="14.00">$TEXT</text>
</g>
<!-- 17776&#45;&gt;17774 -->
<g id="edge31" class="edge">
<title>17776&#45;&gt;17774</title>
<path fill="none" stroke="#deb256" d="M647.91,-1815.39C608.49,-1712.41 607.7,-1696.96 654.42,-1559.92"/>
<polygon fill="#deb256" stroke="#deb256" points="657.6,-1561.43 657.53,-1550.84 650.98,-1559.17 657.6,-1561.43"/>
</g>
<!-- 35433 -->
<g id="node25" class="node">
<title>35433</title>
<text text-anchor="middle" x="2726.84" y="-1954.85" font-family="Times,serif" font-size="14.00">LicenseTag (ScopedLicenseTag &quot;OrtLicenseCategorization&quot; &quot;include&#45;in&#45;notice&#45;file&quot; NoLicenseTagText)</text>
</g>
<!-- 35693 -->
<g id="node28" class="node">
<title>35693</title>
<ellipse fill="none" stroke="#d43d51" cx="2190.5" cy="-1616.24" rx="157.68" ry="28.99"/>
<text text-anchor="middle" x="2190.5" y="-1619.44" font-family="Times,serif" font-size="14.00" fill="gray">OrtLicenseCategorization</text>
<text text-anchor="middle" x="2190.5" y="-1602.94" font-family="Times,serif" font-size="14.00" fill="gray">f14da9715c81d30ca0083afe61923801</text>
</g>
<!-- 35433&#45;&gt;35693 -->
<g id="edge32" class="edge">
<title>35433&#45;&gt;35693</title>
<path fill="none" stroke="#d43d51" d="M2682.12,-1942.01C2545.13,-1886.61 2513.18,-1864.53 2236.61,-1651.73"/>
<polygon fill="#d43d51" stroke="#d43d51" points="2238.77,-1648.98 2228.71,-1645.65 2234.5,-1654.53 2238.77,-1648.98"/>
</g>
<!-- 35444 -->
<g id="node26" class="node">
<title>35444</title>
<text text-anchor="middle" x="2199.14" y="-1677.54" font-family="Times,serif" font-size="14.00">LicenseTag (ScopedLicenseTag &quot;OrtLicenseCategorization&quot; &quot;include&#45;source&#45;code&#45;offer&#45;in&#45;notice&#45;file&quot; NoLicenseTagText)</text>
</g>
<!-- 35444&#45;&gt;35693 -->
<g id="edge33" class="edge">
<title>35444&#45;&gt;35693</title>
<path fill="none" stroke="#d43d51" d="M2200.34,-1664.63C2200.26,-1662.14 2200.03,-1659.59 2199.6,-1656.65"/>
<polygon fill="#d43d51" stroke="#d43d51" points="2203.07,-1656.21 2197.77,-1647.04 2196.2,-1657.51 2203.07,-1656.21"/>
</g>
<!-- 35459 -->
<g id="node27" class="node">
<title>35459</title>
<text text-anchor="middle" x="2468.5" y="-2169.74" font-family="Times,serif" font-size="14.00">LicenseTag (ScopedLicenseTag &quot;OrtLicenseCategorization&quot; &quot;copyleft&#45;limited&quot; NoLicenseTagText)</text>
</g>
<!-- 35459&#45;&gt;35693 -->
<g id="edge34" class="edge">
<title>35459&#45;&gt;35693</title>
<path fill="none" stroke="#d43d51" d="M2460.37,-2156.94C2393.05,-2009.24 2384.13,-1991.35 2210.7,-1655.37"/>
<polygon fill="#d43d51" stroke="#d43d51" points="2213.91,-1653.96 2206.22,-1646.68 2207.69,-1657.17 2213.91,-1653.96"/>
</g>
<!-- 35693&#45;&gt;2029 -->
<g id="edge35" class="edge">
<title>35693&#45;&gt;2029</title>
<path fill="none" stroke="#d43d51" d="M2132.53,-1589.01C2002.76,-1526.52 1973.68,-1494.24 1772.38,-1241.29"/>
<polygon fill="#d43d51" stroke="#d43d51" points="1775.36,-1239.42 1766.39,-1233.77 1769.88,-1243.78 1775.36,-1239.42"/>
</g>
<!-- 41565 -->
<g id="node29" class="node">
<title>41565</title>
<ellipse fill="none" stroke="#379469" cx="1912.7" cy="-876.73" rx="157.68" ry="28.99"/>
<text text-anchor="middle" x="1912.7" y="-879.93" font-family="Times,serif" font-size="14.00" fill="gray">CavilLicenseChange</text>
<text text-anchor="middle" x="1912.7" y="-863.43" font-family="Times,serif" font-size="14.00" fill="gray">21d851dba1b32b25b9ff2f23040c057c</text>
</g>
<!-- 41565&#45;&gt;41566 -->
<g id="edge36" class="edge">
<title>41565&#45;&gt;41566</title>
<path fill="none" stroke="#379469" d="M1893.54,-905.83C1893.31,-906.36 1893.08,-906.9 1892.84,-907.46"/>
<polygon fill="#379469" stroke="#379469" points="1889.66,-906 1889.13,-916.59 1896.14,-908.64 1889.66,-906"/>
</g>
<!-- 67231 -->
<g id="node31" class="node">
<title>67231</title>
<ellipse fill="none" stroke="#00876c" cx="1686.21" cy="-1693.16" rx="155.56" ry="28.99"/>
<text text-anchor="middle" x="1686.21" y="-1696.36" font-family="Times,serif" font-size="14.00" fill="gray">LicenseLynx</text>
<text text-anchor="middle" x="1686.21" y="-1679.86" font-family="Times,serif" font-size="14.00" fill="gray">49c7f928fd0841d14f260fedc27e4991</text>
</g>
<!-- 67231&#45;&gt;2029 -->
<g id="edge37" class="edge">
<title>67231&#45;&gt;2029</title>
<path fill="none" stroke="#00876c" d="M1683.94,-1663.88C1674.8,-1542.43 1678.48,-1518.18 1736.57,-1243.42"/>
<polygon fill="#00876c" stroke="#00876c" points="1739.97,-1244.26 1738.62,-1233.75 1733.12,-1242.81 1739.97,-1244.26"/>
</g>
<!-- 67232&#45;&gt;2029 -->
<g id="edge38" class="edge">
<title>67232&#45;&gt;2029</title>
<path fill="none" stroke="#00876c" stroke-width="2" d="M1489.8,-1243.03C1521.07,-1238.91 1557.59,-1233.74 1601.49,-1227.33"/>
<polygon fill="#00876c" stroke="#00876c" stroke-width="2" points="1610.09,-1226.08 1600.85,-1231.97 1607.63,-1226.94 1600.27,-1228.02 1600.2,-1227.52 1600.12,-1227.03 1607.48,-1225.95 1599.55,-1223.07 1610.09,-1226.08"/>
</g>
</g>
</svg>
