<?xml version="1.0" encoding="UTF-8" standalone="no"?>
<!DOCTYPE svg PUBLIC "-//W3C//DTD SVG 1.1//EN"
 "http://www.w3.org/Graphics/SVG/1.1/DTD/svg11.dtd">
<!-- Generated by graphviz version 10.0.1 (0)
 -->
<!-- Pages: 1 -->
<svg width="2918pt" height="3556pt"
 viewBox="0.00 0.00 2918.00 3556.00" xmlns="http://www.w3.org/2000/svg" xmlns:xlink="http://www.w3.org/1999/xlink">
<g id="graph0" class="graph" transform="scale(1 1) rotate(0) translate(4 3552)">
<polygon fill="white" stroke="none" points="-4,4 -4,-3552 2914,-3552 2914,4 -4,4"/>
<!-- 5 -->
<g id="node1" class="node">
<title>5</title>
<text text-anchor="start" x="2368.73" y="-834.76" font-family="Times,serif" font-size="14.00">OSI: </text>
<text text-anchor="start" x="2397.98" y="-834.76" font-family="Times,serif" font-weight="bold" font-size="14.00" fill="#8b0000">Rejected</text>
</g>
<!-- 2009 -->
<g id="node2" class="node">
<title>2009</title>
<ellipse fill="none" stroke="#dac767" cx="2051.37" cy="-863.78" rx="158.75" ry="28.99"/>
<text text-anchor="middle" x="2051.37" y="-866.98" font-family="Times,serif" font-size="14.00" fill="gray">SPDXLicense</text>
<text text-anchor="middle" x="2051.37" y="-850.48" font-family="Times,serif" font-size="14.00" fill="gray">efbd2e7582dad83f7e65d288d6615699</text>
</g>
<!-- 5&#45;&gt;2009 -->
<g id="edge1" class="edge">
<title>5&#45;&gt;2009</title>
<path fill="none" stroke="#dac767" d="M2360.95,-823.97C2289.04,-802.77 2258,-803.83 2146.68,-835.59"/>
<polygon fill="#dac767" stroke="#dac767" points="2145.75,-832.22 2137.11,-838.34 2147.69,-838.95 2145.75,-832.22"/>
</g>
<!-- 2010 -->
<g id="node3" class="node">
<title>2010</title>
<polygon fill="none" stroke="black" points="1722.18,-1423.07 1722.18,-1437.98 1640.62,-1448.53 1525.27,-1448.53 1443.71,-1437.98 1443.71,-1423.07 1525.27,-1412.53 1640.62,-1412.53 1722.18,-1423.07"/>
<polygon fill="none" stroke="black" points="1726.18,-1419.55 1726.18,-1441.5 1640.88,-1452.53 1525.02,-1452.53 1439.71,-1441.5 1439.71,-1419.55 1525.02,-1408.53 1640.88,-1408.53 1726.18,-1419.55"/>
<polygon fill="none" stroke="black" points="1730.18,-1416.04 1730.18,-1445.02 1641.13,-1456.53 1524.76,-1456.53 1435.71,-1445.02 1435.71,-1416.04 1524.76,-1404.53 1641.13,-1404.53 1730.18,-1416.04"/>
<text text-anchor="middle" x="1582.95" y="-1425.48" font-family="Times,serif" font-size="14.00">spdx:GFDL&#45;1.2&#45;invariants&#45;only</text>
</g>
<!-- 2009&#45;&gt;2010 -->
<g id="edge2" class="edge">
<title>2009&#45;&gt;2010</title>
<path fill="none" stroke="#dac767" d="M2021.77,-892.56C1893.61,-1017.48 1871.9,-1044.99 1609.57,-1395"/>
<polygon fill="#dac767" stroke="#dac767" points="1606.84,-1392.81 1603.64,-1402.91 1612.44,-1397.01 1606.84,-1392.81"/>
</g>
<!-- 7216 -->
<g id="node16" class="node">
<title>7216</title>
<polygon fill="none" stroke="#e09d4b" points="1336.71,-1899.45 1336.71,-1914.37 1249.96,-1924.91 1127.27,-1924.91 1040.52,-1914.37 1040.52,-1899.45 1127.27,-1888.91 1249.96,-1888.91 1336.71,-1899.45"/>
<polygon fill="none" stroke="#e09d4b" points="1340.71,-1895.91 1340.71,-1917.91 1250.2,-1928.91 1127.03,-1928.91 1036.52,-1917.91 1036.52,-1895.91 1127.03,-1884.91 1250.2,-1884.91 1340.71,-1895.91"/>
<text text-anchor="middle" x="1188.61" y="-1901.86" font-family="Times,serif" font-size="14.00">Fedora:GFDL&#45;1.2&#45;invariants&#45;only</text>
</g>
<!-- 2010&#45;&gt;7216 -->
<g id="edge3" class="edge">
<title>2010&#45;&gt;7216</title>
<path fill="none" stroke="#e09d4b" stroke-width="2" d="M1531.16,-1456.96C1324.77,-1563.14 1309.66,-1587.54 1200.96,-1874.3"/>
<polygon fill="#e09d4b" stroke="#e09d4b" stroke-width="2" points="1197.92,-1882.33 1197.25,-1871.38 1198.36,-1879.76 1200.99,-1872.8 1201.46,-1872.98 1201.93,-1873.16 1199.29,-1880.11 1205.67,-1874.57 1197.92,-1882.33"/>
</g>
<!-- 17762 -->
<g id="node19" class="node">
<title>17762</title>
<polygon fill="none" stroke="black" points="1299.87,-1116.01 1299.87,-1130.92 1213.77,-1141.47 1092,-1141.47 1005.89,-1130.92 1005.89,-1116.01 1092,-1105.47 1213.77,-1105.47 1299.87,-1116.01"/>
<polygon fill="none" stroke="black" points="1303.87,-1112.47 1303.87,-1134.46 1214.01,-1145.47 1091.75,-1145.47 1001.89,-1134.46 1001.89,-1112.47 1091.75,-1101.47 1214.01,-1101.47 1303.87,-1112.47"/>
<text text-anchor="middle" x="1152.88" y="-1118.42" font-family="Times,serif" font-size="14.00">scancode:gfdl&#45;1.2&#45;invariants&#45;only</text>
</g>
<!-- 2010&#45;&gt;17762 -->
<g id="edge4" class="edge">
<title>2010&#45;&gt;17762</title>
<path fill="none" stroke="#deb256" stroke-width="2" d="M1552.47,-1404.11C1478.53,-1346.7 1289.37,-1211.42 1200.42,-1152.08"/>
<polygon fill="#deb256" stroke="#deb256" stroke-width="2" points="1193.13,-1147.25 1203.96,-1149.03 1195.55,-1148.25 1201.74,-1152.36 1201.47,-1152.78 1201.19,-1153.2 1194.99,-1149.09 1198.98,-1156.53 1193.13,-1147.25"/>
</g>
<!-- 49473 -->
<g id="node33" class="node">
<title>49473</title>
<polygon fill="none" stroke="#379469" points="1849.73,-2092.13 1849.73,-2107.04 1766.22,-2117.59 1648.13,-2117.59 1564.62,-2107.04 1564.62,-2092.13 1648.13,-2081.59 1766.22,-2081.59 1849.73,-2092.13"/>
<polygon fill="none" stroke="#379469" points="1853.73,-2088.6 1853.73,-2110.57 1766.47,-2121.59 1647.87,-2121.59 1560.62,-2110.57 1560.62,-2088.6 1647.87,-2077.59 1766.47,-2077.59 1853.73,-2088.6"/>
<text text-anchor="middle" x="1707.17" y="-2094.54" font-family="Times,serif" font-size="14.00">metaeffekt:GFDL&#45;1.2&#45;invariants</text>
</g>
<!-- 2010&#45;&gt;49473 -->
<g id="edge5" class="edge">
<title>2010&#45;&gt;49473</title>
<path fill="none" stroke="#379469" stroke-width="2" d="M1598.75,-1456.72C1774.69,-1748.52 1778.91,-1767.01 1714.33,-2066.49"/>
<polygon fill="#379469" stroke="#379469" stroke-width="2" points="1712.52,-2074.88 1710.23,-2064.15 1712.57,-2072.27 1714.14,-2065 1714.63,-2065.1 1715.12,-2065.21 1713.55,-2072.48 1719.03,-2066.05 1712.52,-2074.88"/>
</g>
<!-- 2011 -->
<g id="node4" class="node">
<title>2011</title>
<polygon fill="none" stroke="black" points="1553.32,-1607.68 1553.32,-1622.59 1484.42,-1633.14 1386.97,-1633.14 1318.07,-1622.59 1318.07,-1607.68 1386.97,-1597.14 1484.42,-1597.14 1553.32,-1607.68"/>
<polygon fill="none" stroke="black" points="1557.32,-1604.25 1557.32,-1626.03 1484.72,-1637.14 1386.67,-1637.14 1314.07,-1626.03 1314.07,-1604.25 1386.67,-1593.14 1484.72,-1593.14 1557.32,-1604.25"/>
<text text-anchor="middle" x="1435.7" y="-1610.09" font-family="Times,serif" font-size="14.00">GFDL&#45;1.2&#45;invariants&#45;only</text>
</g>
<!-- 2011&#45;&gt;2010 -->
<g id="edge6" class="edge">
<title>2011&#45;&gt;2010</title>
<path fill="none" stroke="black" stroke-width="2" d="M1449.12,-1592.91C1497.71,-1512.57 1514.38,-1486.51 1539.79,-1463.76"/>
<polygon fill="black" stroke="black" stroke-width="2" points="1546.15,-1458.33 1541.47,-1468.24 1544.53,-1460.37 1538.87,-1465.2 1538.55,-1464.82 1538.22,-1464.44 1543.88,-1459.61 1535.62,-1461.4 1546.15,-1458.33"/>
</g>
<!-- 2011&#45;&gt;7216 -->
<g id="edge7" class="edge">
<title>2011&#45;&gt;7216</title>
<path fill="none" stroke="#e09d4b" stroke-width="2" d="M1403.64,-1637.47C1249.67,-1744.95 1234.86,-1760.68 1198.92,-1873.92"/>
<polygon fill="#e09d4b" stroke="#e09d4b" stroke-width="2" points="1196.34,-1882.12 1195.05,-1871.23 1196.63,-1879.52 1198.86,-1872.43 1199.34,-1872.58 1199.82,-1872.73 1197.58,-1879.82 1203.63,-1873.93 1196.34,-1882.12"/>
</g>
<!-- 2011&#45;&gt;17762 -->
<g id="edge8" class="edge">
<title>2011&#45;&gt;17762</title>
<path fill="none" stroke="black" stroke-width="2" d="M1424.13,-1592.98C1266.54,-1290.95 1251.78,-1263.56 1175.18,-1154.97"/>
<polygon fill="black" stroke="black" stroke-width="2" points="1170.23,-1147.95 1179.67,-1153.52 1172.11,-1149.76 1176.4,-1155.83 1176,-1156.12 1175.59,-1156.41 1171.3,-1150.34 1172.32,-1158.72 1170.23,-1147.95"/>
</g>
<!-- 41560 -->
<g id="node30" class="node">
<title>41560</title>
<polygon fill="none" stroke="#379469" points="1837.43,-1231.44 1837.43,-1246.35 1755.55,-1256.9 1639.74,-1256.9 1557.86,-1246.35 1557.86,-1231.44 1639.74,-1220.9 1755.55,-1220.9 1837.43,-1231.44"/>
<polygon fill="none" stroke="#379469" points="1841.43,-1227.92 1841.43,-1249.87 1755.8,-1260.9 1639.49,-1260.9 1553.86,-1249.87 1553.86,-1227.92 1639.49,-1216.9 1755.8,-1216.9 1841.43,-1227.92"/>
<text text-anchor="middle" x="1697.65" y="-1233.85" font-family="Times,serif" font-size="14.00">cavil:GFDL&#45;1.2&#45;invariants&#45;only</text>
</g>
<!-- 2011&#45;&gt;41560 -->
<g id="edge9" class="edge">
<title>2011&#45;&gt;41560</title>
<path fill="none" stroke="#379469" stroke-width="2" d="M1448.61,-1592.77C1578.39,-1368.14 1595.18,-1340.71 1667.24,-1268.86"/>
<polygon fill="#379469" stroke="#379469" stroke-width="2" points="1673.13,-1263.01 1669.21,-1273.24 1671.67,-1265.17 1666.39,-1270.41 1666.04,-1270.05 1665.68,-1269.7 1670.96,-1264.46 1662.86,-1266.86 1673.13,-1263.01"/>
</g>
<!-- 2011&#45;&gt;49473 -->
<g id="edge10" class="edge">
<title>2011&#45;&gt;49473</title>
<path fill="none" stroke="#379469" stroke-dasharray="5,2" d="M1452.17,-1637.5C1647.66,-1902.97 1661.78,-1924.59 1698.74,-2066.78"/>
<polygon fill="#379469" stroke="#379469" points="1701.14,-2076.05 1694.28,-2067.5 1700.19,-2072.39 1698.63,-2066.37 1698.63,-2066.37 1698.63,-2066.37 1700.19,-2072.39 1702.99,-2065.25 1701.14,-2076.05"/>
</g>
<!-- 2012 -->
<g id="node5" class="node">
<title>2012</title>
<polygon fill="none" stroke="black" points="1812.19,-1494.68 1812.19,-1509.6 1670.59,-1520.14 1470.35,-1520.14 1328.75,-1509.6 1328.75,-1494.68 1470.35,-1484.14 1670.59,-1484.14 1812.19,-1494.68"/>
<polygon fill="none" stroke="black" points="1816.19,-1490.97 1816.19,-1513.31 1670.74,-1524.14 1470.2,-1524.14 1324.75,-1513.31 1324.75,-1490.97 1470.2,-1480.14 1670.74,-1480.14 1816.19,-1490.97"/>
<text text-anchor="middle" x="1570.47" y="-1497.09" font-family="Times,serif" font-size="14.00">GNU Free Documentation License v1.2 only &#45; invariants</text>
</g>
<!-- 2012&#45;&gt;2010 -->
<g id="edge11" class="edge">
<title>2012&#45;&gt;2010</title>
<path fill="none" stroke="#dac767" stroke-width="2" d="M1575.66,-1479.91C1576.76,-1475.19 1577.66,-1471.17 1578.43,-1467.66"/>
<polygon fill="#dac767" stroke="#dac767" stroke-width="2" points="1580.12,-1459.27 1582.55,-1469.96 1580.1,-1461.88 1578.63,-1469.17 1578.14,-1469.07 1577.65,-1468.98 1579.12,-1461.69 1573.73,-1468.19 1580.12,-1459.27"/>
</g>
<!-- 2012&#45;&gt;7216 -->
<g id="edge12" class="edge">
<title>2012&#45;&gt;7216</title>
<path fill="none" stroke="#e09d4b" stroke-dasharray="5,2" d="M1522.42,-1524.56C1307.04,-1625.63 1291.82,-1644.92 1201.44,-1874.27"/>
<polygon fill="#e09d4b" stroke="#e09d4b" points="1197.81,-1883.51 1197.28,-1872.56 1199.19,-1879.99 1201.47,-1874.2 1201.47,-1874.2 1201.47,-1874.2 1199.19,-1879.99 1205.66,-1875.85 1197.81,-1883.51"/>
</g>
<!-- 2012&#45;&gt;17762 -->
<g id="edge13" class="edge">
<title>2012&#45;&gt;17762</title>
<path fill="none" stroke="#deb256" stroke-width="2" d="M1553.3,-1479.87C1366.84,-1238.1 1339.27,-1205.4 1215.25,-1150.24"/>
<polygon fill="#deb256" stroke="#deb256" stroke-width="2" points="1207.58,-1146.86 1218.55,-1146.78 1210.13,-1147.44 1216.93,-1150.44 1216.73,-1150.9 1216.53,-1151.35 1209.73,-1148.35 1214.92,-1155.01 1207.58,-1146.86"/>
</g>
<!-- 2012&#45;&gt;49473 -->
<g id="edge14" class="edge">
<title>2012&#45;&gt;49473</title>
<path fill="none" stroke="#379469" stroke-dasharray="5,2" d="M1583.76,-1524.32C1752.66,-1806.36 1758.63,-1824.25 1713.42,-2066.35"/>
<polygon fill="#379469" stroke="#379469" points="1711.59,-2076.1 1709.01,-2065.44 1712.29,-2072.38 1713.43,-2066.27 1713.43,-2066.27 1713.43,-2066.27 1712.29,-2072.38 1717.86,-2067.1 1711.59,-2076.1"/>
</g>
<!-- 67226 -->
<g id="node41" class="node">
<title>67226</title>
<polygon fill="none" stroke="#00876c" points="2426.52,-1596.72 2426.52,-1611.63 2272.27,-1622.18 2054.13,-1622.18 1899.88,-1611.63 1899.88,-1596.72 2054.13,-1586.18 2272.27,-1586.18 2426.52,-1596.72"/>
<polygon fill="none" stroke="#00876c" points="2430.52,-1592.98 2430.52,-1615.37 2272.41,-1626.18 2053.99,-1626.18 1895.88,-1615.37 1895.88,-1592.98 2053.99,-1582.18 2272.41,-1582.18 2430.52,-1592.98"/>
<text text-anchor="middle" x="2163.2" y="-1599.13" font-family="Times,serif" font-size="14.00">spdx:GNU Free Documentation License v1.2 only &#45; invariants</text>
</g>
<!-- 2012&#45;&gt;67226 -->
<g id="edge15" class="edge">
<title>2012&#45;&gt;67226</title>
<path fill="none" stroke="#00876c" stroke-width="2" d="M1816.37,-1500.63C1964.31,-1503.45 2011.48,-1519.75 2113.75,-1576.35"/>
<polygon fill="#00876c" stroke="#00876c" stroke-width="2" points="2121.36,-1580.59 2110.43,-1579.66 2118.88,-1579.78 2112.38,-1576.16 2112.62,-1575.73 2112.86,-1575.29 2119.36,-1578.9 2114.81,-1571.79 2121.36,-1580.59"/>
</g>
<!-- 2013 -->
<g id="node6" class="node">
<title>2013</title>
<text text-anchor="middle" x="2673.23" y="-940.22" font-family="Times,serif" font-size="14.00">SPDXLicense:</text>
<text text-anchor="middle" x="2673.23" y="-923.72" font-family="Times,serif" font-size="14.00">This license was released November 2002. The identifier GFDL&#45;1.2&#45;only&#45;invariants</text>
<text text-anchor="middle" x="2673.23" y="-907.22" font-family="Times,serif" font-size="14.00">should only be used when there are Invariant Sections, Front&#45;Cover Texts or</text>
<text text-anchor="middle" x="2673.23" y="-890.72" font-family="Times,serif" font-size="14.00">Back&#45;Cover Texts. See GFDL&#45;1.2&#45;only and GFDL&#45;1.2&#45;only&#45;no&#45;invariants for</text>
<text text-anchor="middle" x="2673.23" y="-874.22" font-family="Times,serif" font-size="14.00">alternatives.</text>
</g>
<!-- 2013&#45;&gt;2009 -->
<g id="edge16" class="edge">
<title>2013&#45;&gt;2009</title>
<path fill="none" stroke="#dac767" d="M2581.23,-867.12C2462.23,-812.15 2405.5,-810.05 2184.5,-843.14"/>
<polygon fill="#dac767" stroke="#dac767" points="2184.03,-839.67 2174.66,-844.62 2185.07,-846.59 2184.03,-839.67"/>
</g>
<!-- 2014 -->
<g id="node7" class="node">
<title>2014</title>
<text text-anchor="middle" x="2424.16" y="-496.35" font-family="Times,serif" font-size="14.00">$TEXT</text>
</g>
<!-- 2014&#45;&gt;2009 -->
<g id="edge17" class="edge">
<title>2014&#45;&gt;2009</title>
<path fill="none" stroke="#dac767" d="M2400.98,-519.24C2302.72,-595.06 2284.02,-613.61 2085.82,-826.73"/>
<polygon fill="#dac767" stroke="#dac767" points="2083.36,-824.23 2079.11,-833.94 2088.48,-829 2083.36,-824.23"/>
</g>
<!-- 2015 -->
<g id="node8" class="node">
<title>2015</title>
<text text-anchor="middle" x="2662.03" y="-453.39" font-family="Times,serif" font-size="14.00">$TEXT</text>
</g>
<!-- 2015&#45;&gt;2014 -->
<g id="edge18" class="edge">
<title>2015&#45;&gt;2014</title>
<path fill="none" stroke="#dac767" d="M2633.56,-453.56C2578.7,-444.84 2560.05,-448.84 2463.26,-486.21"/>
<polygon fill="#dac767" stroke="#dac767" points="2462.16,-482.88 2454.1,-489.75 2464.69,-489.41 2462.16,-482.88"/>
</g>
<!-- 2016 -->
<g id="node9" class="node">
<title>2016</title>
<text text-anchor="middle" x="1427.26" y="-603.92" font-family="Times,serif" font-size="14.00">https://www.gnu.org/licenses/old&#45;licenses/fdl&#45;1.2.txt</text>
</g>
<!-- 2016&#45;&gt;2009 -->
<g id="edge19" class="edge">
<title>2016&#45;&gt;2009</title>
<path fill="none" stroke="#dac767" d="M1577.45,-609.11C1770.62,-613.5 1816.65,-645.85 2012.11,-827.25"/>
<polygon fill="#dac767" stroke="#dac767" points="2009.51,-829.61 2019.21,-833.85 2014.27,-824.48 2009.51,-829.61"/>
</g>
<!-- 17761 -->
<g id="node18" class="node">
<title>17761</title>
<ellipse fill="none" stroke="#deb256" cx="787.67" cy="-538.58" rx="161.4" ry="28.99"/>
<text text-anchor="middle" x="787.67" y="-541.78" font-family="Times,serif" font-size="14.00" fill="gray">ScancodeData</text>
<text text-anchor="middle" x="787.67" y="-525.28" font-family="Times,serif" font-size="14.00" fill="gray">8e1e2d6189dc17d765041377c89da880</text>
</g>
<!-- 2016&#45;&gt;17761 -->
<g id="edge20" class="edge">
<title>2016&#45;&gt;17761</title>
<path fill="none" stroke="#deb256" d="M1387.18,-591.08C1111.77,-468.36 1068.34,-455.14 880.96,-510.04"/>
<polygon fill="#deb256" stroke="#deb256" points="880.22,-506.61 871.62,-512.8 882.21,-513.32 880.22,-506.61"/>
</g>
<!-- 2022 -->
<g id="node10" class="node">
<title>2022</title>
<text text-anchor="middle" x="2606.93" y="-327.07" font-family="Times,serif" font-size="14.00">$TEXT</text>
</g>
<!-- 2022&#45;&gt;2014 -->
<g id="edge21" class="edge">
<title>2022&#45;&gt;2014</title>
<path fill="none" stroke="#dac767" d="M2583.04,-350.09C2546.98,-377.62 2530.83,-393.21 2449.82,-475.36"/>
<polygon fill="#dac767" stroke="#dac767" points="2447.37,-472.86 2442.84,-482.44 2452.35,-477.78 2447.37,-472.86"/>
</g>
<!-- 2033 -->
<g id="node11" class="node">
<title>2033</title>
<text text-anchor="middle" x="2482.89" y="-263.18" font-family="Times,serif" font-size="14.00">$TEXT</text>
</g>
<!-- 2033&#45;&gt;2014 -->
<g id="edge22" class="edge">
<title>2033&#45;&gt;2014</title>
<path fill="none" stroke="#dac767" d="M2482.57,-285.88C2481.3,-342.55 2477.47,-356.65 2434.54,-473.24"/>
<polygon fill="#dac767" stroke="#dac767" points="2431.39,-471.68 2431.21,-482.28 2437.96,-474.1 2431.39,-471.68"/>
</g>
<!-- 6668 -->
<g id="node12" class="node">
<title>6668</title>
<text text-anchor="middle" x="357.57" y="-2666.19" font-family="Times,serif" font-size="14.00">[&quot;allowed&#45;documentation&quot;]</text>
</g>
<!-- 7215 -->
<g id="node15" class="node">
<title>7215</title>
<ellipse fill="none" stroke="#e09d4b" cx="709.71" cy="-2338.14" rx="160.87" ry="28.99"/>
<text text-anchor="middle" x="709.71" y="-2341.34" font-family="Times,serif" font-size="14.00" fill="gray">FedoraEntry</text>
<text text-anchor="middle" x="709.71" y="-2324.84" font-family="Times,serif" font-size="14.00" fill="gray">7bcd98ac6e0677cc920600615365505d</text>
</g>
<!-- 6668&#45;&gt;7215 -->
<g id="edge23" class="edge">
<title>6668&#45;&gt;7215</title>
<path fill="none" stroke="#e09d4b" d="M374.47,-2653.3C453.54,-2569.47 470.75,-2553.22 669.45,-2374.37"/>
<polygon fill="#e09d4b" stroke="#e09d4b" points="671.6,-2377.14 676.69,-2367.85 666.92,-2371.94 671.6,-2377.14"/>
</g>
<!-- 6669 -->
<g id="node13" class="node">
<title>6669</title>
<text text-anchor="start" x="7.67" y="-2915.66" font-family="Times,serif" font-size="14.00">Fedora: </text>
<text text-anchor="start" x="52.67" y="-2915.66" font-family="Times,serif" font-weight="bold" font-size="14.00" fill="#000000">allowed&#45;documentation</text>
</g>
<!-- 6669&#45;&gt;6668 -->
<g id="edge24" class="edge">
<title>6669&#45;&gt;6668</title>
<path fill="none" stroke="#e09d4b" d="M115.02,-2901.89C170.48,-2843.81 186.02,-2829.1 330.06,-2696.55"/>
<polygon fill="#e09d4b" stroke="#e09d4b" points="332.27,-2699.28 337.25,-2689.93 327.53,-2694.13 332.27,-2699.28"/>
</g>
<!-- 7203 -->
<g id="node14" class="node">
<title>7203</title>
<polygon fill="none" stroke="black" points="1414.25,-2169.78 1414.25,-2184.69 1392.07,-2195.23 1360.71,-2195.23 1338.54,-2184.69 1338.54,-2169.78 1360.71,-2159.23 1392.07,-2159.23 1414.25,-2169.78"/>
<text text-anchor="middle" x="1376.39" y="-2172.18" font-family="Times,serif" font-size="14.00">GFDL</text>
</g>
<!-- 7203&#45;&gt;7216 -->
<g id="edge25" class="edge">
<title>7203&#45;&gt;7216</title>
<path fill="none" stroke="#e09d4b" stroke-dasharray="5,2" d="M1352.91,-2162.72C1253.49,-2100.9 1244.01,-2086.86 1198.56,-1939.36"/>
<polygon fill="#e09d4b" stroke="#e09d4b" points="1195.73,-1930.14 1202.97,-1938.38 1196.84,-1933.76 1198.67,-1939.7 1198.67,-1939.7 1198.67,-1939.7 1196.84,-1933.76 1194.37,-1941.03 1195.73,-1930.14"/>
</g>
<!-- 7203&#45;&gt;49473 -->
<g id="edge26" class="edge">
<title>7203&#45;&gt;49473</title>
<path fill="none" stroke="#379469" stroke-dasharray="5,2" d="M1414.32,-2182.89C1542.67,-2201.63 1564.92,-2197.88 1666.15,-2128.19"/>
<polygon fill="#379469" stroke="#379469" points="1674.2,-2122.62 1668.54,-2132.01 1671.09,-2124.78 1665.98,-2128.31 1665.98,-2128.31 1665.98,-2128.31 1671.09,-2124.78 1663.42,-2124.61 1674.2,-2122.62"/>
</g>
<!-- 7215&#45;&gt;7216 -->
<g id="edge27" class="edge">
<title>7215&#45;&gt;7216</title>
<path fill="none" stroke="#e09d4b" d="M736.7,-2309.32C840.74,-2198.5 866.13,-2176.39 1153.5,-1936.25"/>
<polygon fill="#e09d4b" stroke="#e09d4b" points="1155.49,-1939.15 1160.92,-1930.05 1151,-1933.78 1155.49,-1939.15"/>
</g>
<!-- 12439 -->
<g id="node17" class="node">
<title>12439</title>
<text text-anchor="middle" x="496.45" y="-223.32" font-family="Times,serif" font-size="14.00">LicenseType Copyleft Limited</text>
</g>
<!-- 12439&#45;&gt;17761 -->
<g id="edge28" class="edge">
<title>12439&#45;&gt;17761</title>
<path fill="none" stroke="#deb256" d="M519.02,-246.36C595.15,-307.33 612.02,-325.79 756.61,-500.94"/>
<polygon fill="#deb256" stroke="#deb256" points="753.79,-503.02 762.85,-508.5 759.18,-498.56 753.79,-503.02"/>
</g>
<!-- 17761&#45;&gt;17762 -->
<g id="edge29" class="edge">
<title>17761&#45;&gt;17762</title>
<path fill="none" stroke="#deb256" d="M808.15,-567.68C905.29,-705.86 921.24,-732.07 1133.75,-1091.13"/>
<polygon fill="#deb256" stroke="#deb256" points="1130.73,-1092.91 1138.84,-1099.73 1136.75,-1089.34 1130.73,-1092.91"/>
</g>
<!-- 17762&#45;&gt;2010 -->
<g id="edge30" class="edge">
<title>17762&#45;&gt;2010</title>
<path fill="none" stroke="#00876c" stroke-width="2" d="M1178.08,-1145.76C1246.38,-1199.38 1436,-1335.19 1529.49,-1397.95"/>
<polygon fill="#00876c" stroke="#00876c" stroke-width="2" points="1536.74,-1402.79 1525.93,-1400.98 1534.34,-1401.78 1528.15,-1397.65 1528.43,-1397.24 1528.71,-1396.82 1534.89,-1400.95 1530.93,-1393.5 1536.74,-1402.79"/>
</g>
<!-- 17763 -->
<g id="node20" class="node">
<title>17763</title>
<text text-anchor="middle" x="295.23" y="-296.56" font-family="Times,serif" font-size="14.00">http://www.gnu.org/licenses/old&#45;licenses/fdl&#45;1.2.txt</text>
</g>
<!-- 17763&#45;&gt;17761 -->
<g id="edge31" class="edge">
<title>17763&#45;&gt;17761</title>
<path fill="none" stroke="#deb256" d="M400.84,-319.59C489.68,-339.25 543.38,-372.65 736.56,-503.83"/>
<polygon fill="#deb256" stroke="#deb256" points="734.38,-506.58 744.61,-509.3 738.31,-500.79 734.38,-506.58"/>
</g>
<!-- 17764 -->
<g id="node21" class="node">
<title>17764</title>
<text text-anchor="middle" x="460.59" y="-70.03" font-family="Times,serif" font-size="14.00">ScancodeData:</text>
<text text-anchor="middle" x="460.59" y="-53.53" font-family="Times,serif" font-size="14.00">Per SPDX.org, this license was released November 2002</text>
</g>
<!-- 17764&#45;&gt;17761 -->
<g id="edge32" class="edge">
<title>17764&#45;&gt;17761</title>
<path fill="none" stroke="#deb256" d="M476.69,-87.27C564.47,-198.82 578.22,-218.88 762.63,-500.36"/>
<polygon fill="#deb256" stroke="#deb256" points="759.46,-501.91 767.87,-508.36 765.32,-498.08 759.46,-501.91"/>
</g>
<!-- 17765 -->
<g id="node22" class="node">
<title>17765</title>
<text text-anchor="middle" x="293.51" y="-506.27" font-family="Times,serif" font-size="14.00">http://www.gnu.org/licenses/fdl&#45;1.2.txt</text>
</g>
<!-- 17765&#45;&gt;17761 -->
<g id="edge33" class="edge">
<title>17765&#45;&gt;17761</title>
<path fill="none" stroke="#deb256" d="M345.2,-493.37C467.32,-452.08 503.95,-453.24 693.65,-510"/>
<polygon fill="#deb256" stroke="#deb256" points="692.55,-513.32 703.13,-512.84 694.56,-506.62 692.55,-513.32"/>
</g>
<!-- 17766 -->
<g id="node23" class="node">
<title>17766</title>
<text text-anchor="middle" x="718.02" y="-12.91" font-family="Times,serif" font-size="14.00">http://www.gnu.org/licenses/old&#45;licenses/fdl&#45;1.2.txt</text>
</g>
<!-- 17766&#45;&gt;17761 -->
<g id="edge34" class="edge">
<title>17766&#45;&gt;17761</title>
<path fill="none" stroke="#deb256" d="M716.97,-35.7C708.66,-177.65 710.94,-195.11 778.69,-498.43"/>
<polygon fill="#deb256" stroke="#deb256" points="775.21,-498.87 780.8,-507.86 782.04,-497.34 775.21,-498.87"/>
</g>
<!-- 17767 -->
<g id="node24" class="node">
<title>17767</title>
<text text-anchor="middle" x="442.7" y="-621.27" font-family="Times,serif" font-size="14.00">$TEXT</text>
</g>
<!-- 17767&#45;&gt;17761 -->
<g id="edge35" class="edge">
<title>17767&#45;&gt;17761</title>
<path fill="none" stroke="#deb256" d="M465.89,-608.36C530.96,-558.24 561.67,-538.31 618.31,-533.23"/>
<polygon fill="#deb256" stroke="#deb256" points="618.37,-536.73 628.09,-532.54 617.87,-529.75 618.37,-536.73"/>
</g>
<!-- 35433 -->
<g id="node25" class="node">
<title>35433</title>
<text text-anchor="middle" x="1130.19" y="-208.62" font-family="Times,serif" font-size="14.00">LicenseTag (ScopedLicenseTag &quot;OrtLicenseCategorization&quot; &quot;include&#45;in&#45;notice&#45;file&quot; NoLicenseTagText)</text>
</g>
<!-- 35690 -->
<g id="node28" class="node">
<title>35690</title>
<ellipse fill="none" stroke="#d43d51" cx="1391.77" cy="-842.93" rx="155.56" ry="28.99"/>
<text text-anchor="middle" x="1391.77" y="-846.13" font-family="Times,serif" font-size="14.00" fill="gray">OrtLicenseCategorization</text>
<text text-anchor="middle" x="1391.77" y="-829.63" font-family="Times,serif" font-size="14.00" fill="gray">1e466f02bae494da54577f1fb3df7d02</text>
</g>
<!-- 35433&#45;&gt;35690 -->
<g id="edge36" class="edge">
<title>35433&#45;&gt;35690</title>
<path fill="none" stroke="#d43d51" d="M1141.08,-231.52C1237.04,-388.99 1244.78,-407.9 1378.22,-802.81"/>
<polygon fill="#d43d51" stroke="#d43d51" points="1374.9,-803.92 1381.41,-812.27 1381.53,-801.68 1374.9,-803.92"/>
</g>
<!-- 35444 -->
<g id="node26" class="node">
<title>35444</title>
<text text-anchor="middle" x="1250.42" y="-777.58" font-family="Times,serif" font-size="14.00">LicenseTag (ScopedLicenseTag &quot;OrtLicenseCategorization&quot; &quot;include&#45;source&#45;code&#45;offer&#45;in&#45;notice&#45;file&quot; NoLicenseTagText)</text>
</g>
<!-- 35444&#45;&gt;35690 -->
<g id="edge37" class="edge">
<title>35444&#45;&gt;35690</title>
<path fill="none" stroke="#d43d51" d="M1336.75,-800.41C1339.96,-802.53 1343.34,-804.91 1346.97,-807.57"/>
<polygon fill="#d43d51" stroke="#d43d51" points="1344.61,-810.17 1354.7,-813.4 1348.82,-804.58 1344.61,-810.17"/>
</g>
<!-- 35459 -->
<g id="node27" class="node">
<title>35459</title>
<text text-anchor="middle" x="1712.95" y="-250.47" font-family="Times,serif" font-size="14.00">LicenseTag (ScopedLicenseTag &quot;OrtLicenseCategorization&quot; &quot;copyleft&#45;limited&quot; NoLicenseTagText)</text>
</g>
<!-- 35459&#45;&gt;35690 -->
<g id="edge38" class="edge">
<title>35459&#45;&gt;35690</title>
<path fill="none" stroke="#d43d51" d="M1696.45,-273.16C1567.2,-411.57 1557.01,-430.82 1407.78,-802.98"/>
<polygon fill="#d43d51" stroke="#d43d51" points="1404.59,-801.54 1404.12,-812.13 1411.09,-804.15 1404.59,-801.54"/>
</g>
<!-- 35690&#45;&gt;2010 -->
<g id="edge39" class="edge">
<title>35690&#45;&gt;2010</title>
<path fill="none" stroke="#d43d51" d="M1409.19,-872.13C1491.16,-1010.13 1498.61,-1036.87 1574.9,-1392.94"/>
<polygon fill="#d43d51" stroke="#d43d51" points="1571.46,-1393.59 1576.98,-1402.64 1578.3,-1392.13 1571.46,-1393.59"/>
</g>
<!-- 41559 -->
<g id="node29" class="node">
<title>41559</title>
<ellipse fill="none" stroke="#379469" cx="1760.21" cy="-796.07" rx="155.03" ry="28.99"/>
<text text-anchor="middle" x="1760.21" y="-799.27" font-family="Times,serif" font-size="14.00" fill="gray">CavilLicenseChange</text>
<text text-anchor="middle" x="1760.21" y="-782.77" font-family="Times,serif" font-size="14.00" fill="gray">9d1f04a4b116c8e09f442499ae18ff61</text>
</g>
<!-- 41559&#45;&gt;41560 -->
<g id="edge40" class="edge">
<title>41559&#45;&gt;41560</title>
<path fill="none" stroke="#379469" d="M1760.01,-825.25C1759.07,-930.69 1755.03,-954.76 1704.34,-1205.76"/>
<polygon fill="#379469" stroke="#379469" points="1700.98,-1204.74 1702.43,-1215.23 1707.84,-1206.12 1700.98,-1204.74"/>
</g>
<!-- 43136 -->
<g id="node31" class="node">
<title>43136</title>
<text text-anchor="start" x="2561.3" y="-2948.49" font-family="Times,serif" font-size="14.00">CoDEStatus: </text>
<text text-anchor="start" x="2635.55" y="-2948.49" font-family="Times,serif" font-weight="bold" font-size="14.00" fill="#228b22">Approved</text>
<text text-anchor="start" x="2413.92" y="-2934.49" font-family="Times,serif" font-size="14.00">Eine Lizenz ist freigegeben, wenn sie nach fachlicher und juristischer Prüfung</text>
<text text-anchor="start" x="2395.92" y="-2920.49" font-family="Times,serif" font-size="14.00">seitens Open CoDE sowohl der Open Source Definition (gemäß Definition der Open</text>
<text text-anchor="start" x="2437.92" y="-2906.49" font-family="Times,serif" font-size="14.00">Source Initiative [extern]) entspricht und darüber hinaus keine für die</text>
<text text-anchor="start" x="2440.92" y="-2892.49" font-family="Times,serif" font-size="14.00">Öffentliche Verwaltung erkennbaren Schwierigkeiten birgt. Außer in</text>
<text text-anchor="start" x="2425.92" y="-2878.49" font-family="Times,serif" font-size="14.00">Ausnahmefällen ist nicht zu erwarten, dass einmal freigegebene Lizenzen</text>
<text text-anchor="start" x="2565.8" y="-2864.49" font-family="Times,serif" font-size="14.00">deklassifiziert werden.</text>
</g>
<!-- 49472 -->
<g id="node32" class="node">
<title>49472</title>
<ellipse fill="none" stroke="#379469" cx="2193.72" cy="-2471.57" rx="161.4" ry="28.99"/>
<text text-anchor="middle" x="2193.72" y="-2474.77" font-family="Times,serif" font-size="14.00" fill="gray">MetaeffektLicense</text>
<text text-anchor="middle" x="2193.72" y="-2458.27" font-family="Times,serif" font-size="14.00" fill="gray">4434901950b5553e7b0b3bdee41a689c</text>
</g>
<!-- 43136&#45;&gt;49472 -->
<g id="edge41" class="edge">
<title>43136&#45;&gt;49472</title>
<path fill="none" stroke="#379469" d="M2577.18,-2859.03C2496.93,-2774.78 2457.84,-2735.52 2230.33,-2508.15"/>
<polygon fill="#379469" stroke="#379469" points="2233.12,-2505.99 2223.58,-2501.4 2228.18,-2510.94 2233.12,-2505.99"/>
</g>
<!-- 49472&#45;&gt;49473 -->
<g id="edge42" class="edge">
<title>49472&#45;&gt;49473</title>
<path fill="none" stroke="#379469" d="M2148.42,-2443.39C2036.86,-2373.55 2003.75,-2346.91 1742.55,-2129.09"/>
<polygon fill="#379469" stroke="#379469" points="1745.05,-2126.61 1735.13,-2122.9 1740.56,-2131.99 1745.05,-2126.61"/>
</g>
<!-- 49474 -->
<g id="node34" class="node">
<title>49474</title>
<polygon fill="none" stroke="#379469" points="2008.51,-2453.44 2008.51,-2468.35 1951.93,-2478.89 1871.93,-2478.89 1815.35,-2468.35 1815.35,-2453.44 1871.93,-2442.89 1951.93,-2442.89 2008.51,-2453.44"/>
<polygon fill="none" stroke="#379469" points="2012.51,-2450.11 2012.51,-2471.67 1952.3,-2482.89 1871.56,-2482.89 1811.35,-2471.67 1811.35,-2450.11 1871.56,-2438.89 1952.3,-2438.89 2012.51,-2450.11"/>
<text text-anchor="middle" x="1911.93" y="-2455.84" font-family="Times,serif" font-size="14.00">GFDL&#45;1.2&#45;invariants</text>
</g>
<!-- 49474&#45;&gt;49473 -->
<g id="edge43" class="edge">
<title>49474&#45;&gt;49473</title>
<path fill="none" stroke="#379469" stroke-width="2" d="M1900.99,-2438.39C1858.57,-2351.38 1847.53,-2332.29 1726.3,-2131.29"/>
<polygon fill="#379469" stroke="#379469" stroke-width="2" points="1721.89,-2123.98 1730.91,-2130.22 1723.64,-2125.92 1727.48,-2132.28 1727.05,-2132.54 1726.63,-2132.8 1722.79,-2126.43 1723.2,-2134.87 1721.89,-2123.98"/>
</g>
<!-- 49475 -->
<g id="node35" class="node">
<title>49475</title>
<polygon fill="none" stroke="#379469" points="1925.06,-2808.47 1925.06,-2823.39 1771.13,-2833.93 1553.44,-2833.93 1399.52,-2823.39 1399.52,-2808.47 1553.44,-2797.93 1771.13,-2797.93 1925.06,-2808.47"/>
<polygon fill="none" stroke="#379469" points="1929.06,-2804.74 1929.06,-2827.12 1771.27,-2837.93 1553.31,-2837.93 1395.52,-2827.12 1395.52,-2804.74 1553.31,-2793.93 1771.27,-2793.93 1929.06,-2804.74"/>
<text text-anchor="middle" x="1662.29" y="-2810.88" font-family="Times,serif" font-size="14.00">metaeffekt:GNU Free Documentation License 1.2 (invariants)</text>
</g>
<!-- 49475&#45;&gt;49473 -->
<g id="edge44" class="edge">
<title>49475&#45;&gt;49473</title>
<path fill="none" stroke="#379469" stroke-width="2" d="M1669.13,-2793.6C1728.96,-2598.01 1729.64,-2577.59 1708.74,-2132.88"/>
<polygon fill="#379469" stroke="#379469" stroke-width="2" points="1708.34,-2124.39 1713.31,-2134.17 1708.96,-2126.93 1709.31,-2134.35 1708.81,-2134.38 1708.31,-2134.4 1707.96,-2126.97 1704.32,-2134.59 1708.34,-2124.39"/>
</g>
<!-- 49476 -->
<g id="node36" class="node">
<title>49476</title>
<polygon fill="none" stroke="#379469" points="1822.07,-3518.65 1822.07,-3533.56 1695.07,-3544.11 1515.48,-3544.11 1388.49,-3533.56 1388.49,-3518.65 1515.48,-3508.11 1695.07,-3508.11 1822.07,-3518.65"/>
<polygon fill="none" stroke="#379469" points="1826.07,-3514.97 1826.07,-3537.25 1695.24,-3548.11 1515.31,-3548.11 1384.49,-3537.25 1384.49,-3514.97 1515.31,-3504.11 1695.24,-3504.11 1826.07,-3514.97"/>
<text text-anchor="middle" x="1605.28" y="-3521.06" font-family="Times,serif" font-size="14.00">GNU Free Documentation License 1.2 (invariants)</text>
</g>
<!-- 49476&#45;&gt;49475 -->
<g id="edge45" class="edge">
<title>49476&#45;&gt;49475</title>
<path fill="none" stroke="#379469" stroke-width="2" d="M1610.15,-3503.74C1650.89,-3316.28 1652.21,-3295.34 1661.59,-2849.32"/>
<polygon fill="#379469" stroke="#379469" stroke-width="2" points="1661.77,-2840.8 1666.05,-2850.89 1662.21,-2843.37 1662.05,-2850.81 1661.56,-2850.8 1661.06,-2850.79 1661.21,-2843.35 1657.06,-2850.7 1661.77,-2840.8"/>
</g>
<!-- 49477 -->
<g id="node37" class="node">
<title>49477</title>
<polygon fill="none" stroke="#379469" points="2205.91,-2219.96 2205.91,-2234.87 2147.39,-2245.41 2064.63,-2245.41 2006.1,-2234.87 2006.1,-2219.96 2064.63,-2209.41 2147.39,-2209.41 2205.91,-2219.96"/>
<text text-anchor="middle" x="2106.01" y="-2222.36" font-family="Times,serif" font-size="14.00">GFDL v1.2 invariants</text>
</g>
<!-- 49477&#45;&gt;49473 -->
<g id="edge46" class="edge">
<title>49477&#45;&gt;49473</title>
<path fill="none" stroke="#379469" stroke-dasharray="5,2" d="M2011.74,-2218.52C1955.04,-2209.3 1906,-2189.07 1766.81,-2126.47"/>
<polygon fill="#379469" stroke="#379469" points="1757.74,-2122.39 1768.71,-2122.39 1761.19,-2123.94 1766.86,-2126.49 1766.86,-2126.49 1766.86,-2126.49 1761.19,-2123.94 1765.02,-2130.6 1757.74,-2122.39"/>
</g>
<!-- 49478 -->
<g id="node38" class="node">
<title>49478</title>
<polygon fill="none" stroke="#379469" points="1830.06,-2505.71 1830.06,-2520.62 1774.46,-2531.16 1695.83,-2531.16 1640.23,-2520.62 1640.23,-2505.71 1695.83,-2495.16 1774.46,-2495.16 1830.06,-2505.71"/>
<text text-anchor="middle" x="1735.15" y="-2508.11" font-family="Times,serif" font-size="14.00">GFDL 1.2 invariants</text>
</g>
<!-- 49478&#45;&gt;49473 -->
<g id="edge47" class="edge">
<title>49478&#45;&gt;49473</title>
<path fill="none" stroke="#379469" stroke-dasharray="5,2" d="M1738.3,-2494.99C1757.25,-2384.89 1755.95,-2368.39 1713.26,-2133.09"/>
<polygon fill="#379469" stroke="#379469" points="1711.48,-2123.28 1717.69,-2132.31 1712.15,-2127 1713.26,-2133.12 1713.26,-2133.12 1713.26,-2133.12 1712.15,-2127 1708.84,-2133.92 1711.48,-2123.28"/>
</g>
<!-- 49479 -->
<g id="node39" class="node">
<title>49479</title>
<polygon fill="none" stroke="#379469" points="1618.05,-2495.59 1618.05,-2510.5 1550.12,-2521.04 1454.05,-2521.04 1386.12,-2510.5 1386.12,-2495.59 1454.05,-2485.04 1550.12,-2485.04 1618.05,-2495.59"/>
<text text-anchor="middle" x="1502.09" y="-2497.99" font-family="Times,serif" font-size="14.00">GFDL 1.2 invariants&#45;only</text>
</g>
<!-- 49479&#45;&gt;49473 -->
<g id="edge48" class="edge">
<title>49479&#45;&gt;49473</title>
<path fill="none" stroke="#379469" stroke-dasharray="5,2" d="M1522.52,-2484.59C1625.14,-2391.51 1633.22,-2373.46 1698.36,-2132.28"/>
<polygon fill="#379469" stroke="#379469" points="1700.88,-2122.92 1702.62,-2133.75 1699.9,-2126.57 1698.28,-2132.58 1698.28,-2132.58 1698.28,-2132.58 1699.9,-2126.57 1693.93,-2131.4 1700.88,-2122.92"/>
</g>
<!-- 67225 -->
<g id="node40" class="node">
<title>67225</title>
<ellipse fill="none" stroke="#00876c" cx="1102.86" cy="-1555.15" rx="157.15" ry="28.99"/>
<text text-anchor="middle" x="1102.86" y="-1558.35" font-family="Times,serif" font-size="14.00" fill="gray">LicenseLynx</text>
<text text-anchor="middle" x="1102.86" y="-1541.85" font-family="Times,serif" font-size="14.00" fill="gray">e45f1fc27dae1976e167085878c9ab4d</text>
</g>
<!-- 67225&#45;&gt;2010 -->
<g id="edge49" class="edge">
<title>67225&#45;&gt;2010</title>
<path fill="none" stroke="#00876c" d="M1140.55,-1526.59C1264.24,-1433.33 1305.59,-1410.24 1424.1,-1415.89"/>
<polygon fill="#00876c" stroke="#00876c" points="1423.75,-1419.37 1433.92,-1416.42 1424.12,-1412.38 1423.75,-1419.37"/>
</g>
<!-- 67226&#45;&gt;2010 -->
<g id="edge50" class="edge">
<title>67226&#45;&gt;2010</title>
<path fill="none" stroke="#00876c" stroke-width="2" d="M2135.6,-1582.04C2001.87,-1475.18 1966.25,-1456.64 1741.73,-1440.54"/>
<polygon fill="#00876c" stroke="#00876c" stroke-width="2" points="1732.97,-1439.92 1743.27,-1436.13 1735.57,-1439.6 1742.98,-1440.12 1742.95,-1440.62 1742.91,-1441.12 1735.5,-1440.6 1742.63,-1445.11 1732.97,-1439.92"/>
</g>
</g>
</svg>
