<?xml version="1.0" encoding="UTF-8" standalone="no"?>
<!DOCTYPE svg PUBLIC "-//W3C//DTD SVG 1.1//EN"
 "http://www.w3.org/Graphics/SVG/1.1/DTD/svg11.dtd">
<!-- Generated by graphviz version 10.0.1 (0)
 -->
<!-- Pages: 1 -->
<svg width="2425pt" height="1951pt"
 viewBox="0.00 0.00 2425.00 1951.00" xmlns="http://www.w3.org/2000/svg" xmlns:xlink="http://www.w3.org/1999/xlink">
<g id="graph0" class="graph" transform="scale(1 1) rotate(0) translate(4 1947)">
<polygon fill="white" stroke="none" points="-4,4 -4,-1947 2421,-1947 2421,4 -4,4"/>
<!-- 1839 -->
<g id="node1" class="node">
<title>1839</title>
<ellipse fill="none" stroke="#b8bf62" cx="520.61" cy="-242.28" rx="155.56" ry="28.99"/>
<text text-anchor="middle" x="520.61" y="-245.48" font-family="Times,serif" font-size="14.00" fill="gray">SPDXLicense</text>
<text text-anchor="middle" x="520.61" y="-228.98" font-family="Times,serif" font-size="14.00" fill="gray">80c2756a13fc5ceac53f5c6e57d89b6e</text>
</g>
<!-- 1840 -->
<g id="node2" class="node">
<title>1840</title>
<polygon fill="none" stroke="black" points="948.27,-674.76 948.27,-689.68 866.71,-700.22 751.37,-700.22 669.81,-689.68 669.81,-674.76 751.37,-664.22 866.71,-664.22 948.27,-674.76"/>
<polygon fill="none" stroke="black" points="952.27,-671.25 952.27,-693.19 866.97,-704.22 751.11,-704.22 665.81,-693.19 665.81,-671.25 751.11,-660.22 866.97,-660.22 952.27,-671.25"/>
<polygon fill="none" stroke="black" points="956.27,-667.73 956.27,-696.71 867.23,-708.22 750.85,-708.22 661.81,-696.71 661.81,-667.73 750.85,-656.22 867.23,-656.22 956.27,-667.73"/>
<text text-anchor="middle" x="809.04" y="-677.17" font-family="Times,serif" font-size="14.00">spdx:GFDL&#45;1.3&#45;invariants&#45;only</text>
</g>
<!-- 1839&#45;&gt;1840 -->
<g id="edge1" class="edge">
<title>1839&#45;&gt;1840</title>
<path fill="none" stroke="#b8bf62" d="M533.94,-271.46C586.65,-386.35 602.2,-408.92 782.44,-647.08"/>
<polygon fill="#b8bf62" stroke="#b8bf62" points="779.46,-648.94 788.28,-654.8 785.04,-644.72 779.46,-648.94"/>
</g>
<!-- 6420 -->
<g id="node7" class="node">
<title>6420</title>
<polygon fill="none" stroke="#e09d4b" points="1492.8,-663.81 1492.8,-678.72 1406.05,-689.26 1283.36,-689.26 1196.6,-678.72 1196.6,-663.81 1283.36,-653.26 1406.05,-653.26 1492.8,-663.81"/>
<polygon fill="none" stroke="#e09d4b" points="1496.8,-660.26 1496.8,-682.26 1406.29,-693.26 1283.12,-693.26 1192.6,-682.26 1192.6,-660.26 1283.12,-649.26 1406.29,-649.26 1496.8,-660.26"/>
<text text-anchor="middle" x="1344.7" y="-666.21" font-family="Times,serif" font-size="14.00">Fedora:GFDL&#45;1.3&#45;invariants&#45;only</text>
</g>
<!-- 1840&#45;&gt;6420 -->
<g id="edge2" class="edge">
<title>1840&#45;&gt;6420</title>
<path fill="none" stroke="#e09d4b" stroke-width="2" d="M866.88,-655.75C1017.79,-587.88 1055.18,-586.88 1262.17,-646.95"/>
<polygon fill="#e09d4b" stroke="#e09d4b" stroke-width="2" points="1270.46,-649.36 1259.6,-650.89 1267.86,-649.13 1260.72,-647.05 1260.86,-646.57 1261,-646.09 1268.14,-648.17 1262.12,-642.25 1270.46,-649.36"/>
</g>
<!-- 42907 -->
<g id="node14" class="node">
<title>42907</title>
<polygon fill="none" stroke="#00876c" points="1035.22,-1245.03 1035.22,-1259.94 951.71,-1270.48 833.61,-1270.48 750.11,-1259.94 750.11,-1245.03 833.61,-1234.48 951.71,-1234.48 1035.22,-1245.03"/>
<polygon fill="none" stroke="#00876c" points="1039.22,-1241.5 1039.22,-1263.47 951.96,-1274.48 833.36,-1274.48 746.11,-1263.47 746.11,-1241.5 833.36,-1230.48 951.96,-1230.48 1039.22,-1241.5"/>
<text text-anchor="middle" x="892.66" y="-1247.43" font-family="Times,serif" font-size="14.00">metaeffekt:GFDL&#45;1.3&#45;invariants</text>
</g>
<!-- 1840&#45;&gt;42907 -->
<g id="edge3" class="edge">
<title>1840&#45;&gt;42907</title>
<path fill="none" stroke="#00876c" stroke-width="2" d="M802.27,-708.4C738.39,-956.07 740.3,-974.02 875.24,-1220.69"/>
<polygon fill="#00876c" stroke="#00876c" stroke-width="2" points="879.35,-1228.19 870.6,-1221.57 877.68,-1226.18 874.11,-1219.65 874.54,-1219.41 874.98,-1219.17 878.55,-1225.7 878.49,-1217.25 879.35,-1228.19"/>
</g>
<!-- 1841 -->
<g id="node3" class="node">
<title>1841</title>
<polygon fill="none" stroke="black" points="1230.56,-746.35 1230.56,-761.26 1161.65,-771.81 1064.21,-771.81 995.3,-761.26 995.3,-746.35 1064.21,-735.81 1161.65,-735.81 1230.56,-746.35"/>
<polygon fill="none" stroke="black" points="1234.56,-742.92 1234.56,-764.7 1161.96,-775.81 1063.9,-775.81 991.3,-764.7 991.3,-742.92 1063.9,-731.81 1161.96,-731.81 1234.56,-742.92"/>
<text text-anchor="middle" x="1112.93" y="-748.76" font-family="Times,serif" font-size="14.00">GFDL&#45;1.3&#45;invariants&#45;only</text>
</g>
<!-- 1841&#45;&gt;1840 -->
<g id="edge4" class="edge">
<title>1841&#45;&gt;1840</title>
<path fill="none" stroke="black" stroke-width="2" d="M1060.01,-732.08C1020.33,-715.89 990.87,-704.23 966.95,-696"/>
<polygon fill="black" stroke="black" stroke-width="2" points="958.64,-693.22 969.55,-692.12 961.23,-693.56 968.29,-695.92 968.13,-696.39 967.97,-696.86 960.92,-694.51 966.7,-700.66 958.64,-693.22"/>
</g>
<!-- 1841&#45;&gt;6420 -->
<g id="edge5" class="edge">
<title>1841&#45;&gt;6420</title>
<path fill="none" stroke="#e09d4b" stroke-width="2" d="M1142.76,-731.37C1167.15,-713.16 1185.66,-699.88 1201.65,-690.34"/>
<polygon fill="#e09d4b" stroke="#e09d4b" stroke-width="2" points="1209.2,-686.08 1202.71,-694.92 1207.21,-687.77 1200.74,-691.43 1200.49,-691 1200.25,-690.56 1206.72,-686.9 1198.28,-687.08 1209.2,-686.08"/>
</g>
<!-- 15921 -->
<g id="node9" class="node">
<title>15921</title>
<polygon fill="none" stroke="#dac767" points="1007.91,-536.38 1007.91,-551.3 921.81,-561.84 800.04,-561.84 713.93,-551.3 713.93,-536.38 800.04,-525.84 921.81,-525.84 1007.91,-536.38"/>
<polygon fill="none" stroke="#dac767" points="1011.91,-532.84 1011.91,-554.84 922.05,-565.84 799.79,-565.84 709.93,-554.84 709.93,-532.84 799.79,-521.84 922.05,-521.84 1011.91,-532.84"/>
<text text-anchor="middle" x="860.92" y="-538.79" font-family="Times,serif" font-size="14.00">scancode:gfdl&#45;1.3&#45;invariants&#45;only</text>
</g>
<!-- 1841&#45;&gt;15921 -->
<g id="edge6" class="edge">
<title>1841&#45;&gt;15921</title>
<path fill="none" stroke="#dac767" stroke-width="2" d="M1090.17,-731.62C981.79,-626.01 954.51,-600.41 908.97,-572.04"/>
<polygon fill="#dac767" stroke="#dac767" stroke-width="2" points="901.67,-567.58 912.55,-568.95 904.12,-568.49 910.46,-572.37 910.2,-572.79 909.94,-573.22 903.6,-569.34 907.85,-576.63 901.67,-567.58"/>
</g>
<!-- 36859 -->
<g id="node12" class="node">
<title>36859</title>
<polygon fill="none" stroke="#379469" points="1372.67,-222.52 1372.67,-237.44 1290.78,-247.98 1174.98,-247.98 1093.1,-237.44 1093.1,-222.52 1174.98,-211.98 1290.78,-211.98 1372.67,-222.52"/>
<polygon fill="none" stroke="#379469" points="1376.67,-219.01 1376.67,-240.95 1291.04,-251.98 1174.72,-251.98 1089.1,-240.95 1089.1,-219.01 1174.72,-207.98 1291.04,-207.98 1376.67,-219.01"/>
<text text-anchor="middle" x="1232.88" y="-224.93" font-family="Times,serif" font-size="14.00">cavil:GFDL&#45;1.3&#45;invariants&#45;only</text>
</g>
<!-- 1841&#45;&gt;36859 -->
<g id="edge7" class="edge">
<title>1841&#45;&gt;36859</title>
<path fill="none" stroke="#379469" stroke-width="2" d="M1116.07,-731.56C1161.23,-411.28 1165.86,-384.04 1218.66,-262.48"/>
<polygon fill="#379469" stroke="#379469" stroke-width="2" points="1222.09,-254.62 1222.22,-265.59 1221.52,-257.17 1218.55,-263.99 1218.09,-263.79 1217.63,-263.59 1220.6,-256.77 1213.96,-261.99 1222.09,-254.62"/>
</g>
<!-- 1841&#45;&gt;42907 -->
<g id="edge8" class="edge">
<title>1841&#45;&gt;42907</title>
<path fill="none" stroke="#00876c" stroke-dasharray="5,2" d="M1094.64,-776.14C905.43,-1007.22 895.51,-1025.11 893.03,-1218.88"/>
<polygon fill="#00876c" stroke="#00876c" points="892.91,-1228.84 888.53,-1218.78 892.96,-1225.06 893.03,-1218.84 893.03,-1218.84 893.03,-1218.84 892.96,-1225.06 897.53,-1218.89 892.91,-1228.84"/>
</g>
<!-- 1842 -->
<g id="node4" class="node">
<title>1842</title>
<polygon fill="none" stroke="black" points="1121.16,-611.42 1121.16,-626.33 979.57,-636.87 779.32,-636.87 637.73,-626.33 637.73,-611.42 779.32,-600.87 979.57,-600.87 1121.16,-611.42"/>
<polygon fill="none" stroke="black" points="1125.16,-607.7 1125.16,-630.04 979.72,-640.87 779.17,-640.87 633.73,-630.04 633.73,-607.7 779.17,-596.87 979.72,-596.87 1125.16,-607.7"/>
<text text-anchor="middle" x="879.45" y="-613.82" font-family="Times,serif" font-size="14.00">GNU Free Documentation License v1.3 only &#45; invariants</text>
</g>
<!-- 1842&#45;&gt;1840 -->
<g id="edge9" class="edge">
<title>1842&#45;&gt;1840</title>
<path fill="none" stroke="#b8bf62" stroke-width="2" d="M833.58,-641.16C831.72,-642.83 830.01,-644.65 828.38,-646.69"/>
<polygon fill="#b8bf62" stroke="#b8bf62" stroke-width="2" points="823.65,-653.74 825.48,-642.93 824.66,-651.33 828.81,-645.16 829.22,-645.44 829.64,-645.71 825.5,-651.89 832.96,-647.94 823.65,-653.74"/>
</g>
<!-- 1842&#45;&gt;6420 -->
<g id="edge10" class="edge">
<title>1842&#45;&gt;6420</title>
<path fill="none" stroke="#e09d4b" stroke-dasharray="5,2" d="M953.61,-596.48C1077.04,-561.24 1114,-568.95 1284.44,-644.38"/>
<polygon fill="#e09d4b" stroke="#e09d4b" points="1293.4,-648.36 1282.44,-648.42 1289.95,-646.82 1284.26,-644.3 1284.26,-644.3 1284.26,-644.3 1289.95,-646.82 1286.09,-640.19 1293.4,-648.36"/>
</g>
<!-- 1842&#45;&gt;15921 -->
<g id="edge11" class="edge">
<title>1842&#45;&gt;15921</title>
<path fill="none" stroke="#dac767" stroke-width="2" d="M870.76,-596.68C867.53,-588.24 865.28,-582.01 863.75,-576.83"/>
<polygon fill="#dac767" stroke="#dac767" stroke-width="2" points="861.85,-568.5 868.46,-577.26 862.91,-570.89 864.56,-578.14 864.07,-578.25 863.58,-578.36 861.93,-571.11 859.68,-579.25 861.85,-568.5"/>
</g>
<!-- 1842&#45;&gt;42907 -->
<g id="edge12" class="edge">
<title>1842&#45;&gt;42907</title>
<path fill="none" stroke="#00876c" stroke-dasharray="5,2" d="M870.58,-641.36C763.96,-912.25 763.35,-929.2 879.77,-1220.3"/>
<polygon fill="#00876c" stroke="#00876c" points="883.33,-1229.19 875.44,-1221.58 881.93,-1225.68 879.62,-1219.91 879.62,-1219.91 879.62,-1219.91 881.93,-1225.68 883.79,-1218.24 883.33,-1229.19"/>
</g>
<!-- 6395 -->
<g id="node5" class="node">
<title>6395</title>
<polygon fill="none" stroke="black" points="1229.68,-997.29 1229.68,-1012.2 1207.5,-1022.75 1176.14,-1022.75 1153.97,-1012.2 1153.97,-997.29 1176.14,-986.75 1207.5,-986.75 1229.68,-997.29"/>
<text text-anchor="middle" x="1191.82" y="-999.7" font-family="Times,serif" font-size="14.00">GFDL</text>
</g>
<!-- 6395&#45;&gt;6420 -->
<g id="edge13" class="edge">
<title>6395&#45;&gt;6420</title>
<path fill="none" stroke="#e09d4b" stroke-dasharray="5,2" d="M1200.17,-986.42C1286.18,-797.52 1297.72,-772.23 1329.72,-703.44"/>
<polygon fill="#e09d4b" stroke="#e09d4b" points="1333.87,-694.52 1333.73,-705.49 1332.28,-697.95 1329.65,-703.59 1329.65,-703.59 1329.65,-703.59 1332.28,-697.95 1325.57,-701.69 1333.87,-694.52"/>
</g>
<!-- 6395&#45;&gt;42907 -->
<g id="edge14" class="edge">
<title>6395&#45;&gt;42907</title>
<path fill="none" stroke="#00876c" stroke-dasharray="5,2" d="M1172.53,-1021.34C1016.01,-1155.96 988.57,-1179.36 930.81,-1223.52"/>
<polygon fill="#00876c" stroke="#00876c" points="923.02,-1229.46 928.24,-1219.82 926.02,-1227.17 930.97,-1223.4 930.97,-1223.4 930.97,-1223.4 926.02,-1227.17 933.7,-1226.98 923.02,-1229.46"/>
</g>
<!-- 6419 -->
<g id="node6" class="node">
<title>6419</title>
<ellipse fill="none" stroke="#e09d4b" cx="1806.18" cy="-436.91" rx="160.87" ry="28.99"/>
<text text-anchor="middle" x="1806.18" y="-440.11" font-family="Times,serif" font-size="14.00" fill="gray">FedoraEntry</text>
<text text-anchor="middle" x="1806.18" y="-423.61" font-family="Times,serif" font-size="14.00" fill="gray">361d53620645c25f74c6a7d0747209db</text>
</g>
<!-- 6419&#45;&gt;6420 -->
<g id="edge15" class="edge">
<title>6419&#45;&gt;6420</title>
<path fill="none" stroke="#e09d4b" d="M1713.47,-460.95C1633.39,-485.13 1581.57,-517.02 1388.56,-642.69"/>
<polygon fill="#e09d4b" stroke="#e09d4b" points="1386.7,-639.72 1380.23,-648.11 1390.52,-645.59 1386.7,-639.72"/>
</g>
<!-- 15920 -->
<g id="node8" class="node">
<title>15920</title>
<ellipse fill="none" stroke="#dac767" cx="772.62" cy="-29.12" rx="157.68" ry="28.99"/>
<text text-anchor="middle" x="772.62" y="-32.32" font-family="Times,serif" font-size="14.00" fill="gray">ScancodeData</text>
<text text-anchor="middle" x="772.62" y="-15.82" font-family="Times,serif" font-size="14.00" fill="gray">940b94a358f3dbcc3d53eef7018c5517</text>
</g>
<!-- 15920&#45;&gt;15921 -->
<g id="edge16" class="edge">
<title>15920&#45;&gt;15921</title>
<path fill="none" stroke="#dac767" d="M771.29,-58.54C765.51,-192.27 770.54,-215.97 851.69,-510.36"/>
<polygon fill="#dac767" stroke="#dac767" points="848.3,-511.23 854.33,-519.94 855.05,-509.37 848.3,-511.23"/>
</g>
<!-- 28705 -->
<g id="node10" class="node">
<title>28705</title>
<ellipse fill="none" stroke="#e06f45" cx="347.94" cy="-432.69" rx="158.75" ry="28.99"/>
<text text-anchor="middle" x="347.94" y="-435.89" font-family="Times,serif" font-size="14.00" fill="gray">OrtLicenseCategorization</text>
<text text-anchor="middle" x="347.94" y="-419.39" font-family="Times,serif" font-size="14.00" fill="gray">58fc6b3372d79a793b44f839dc4d4ed2</text>
</g>
<!-- 28705&#45;&gt;1840 -->
<g id="edge17" class="edge">
<title>28705&#45;&gt;1840</title>
<path fill="none" stroke="#e06f45" d="M405.9,-460.05C491.69,-501 533.83,-524.54 753.11,-650.17"/>
<polygon fill="#e06f45" stroke="#e06f45" points="751.28,-653.15 761.7,-655.09 754.76,-647.08 751.28,-653.15"/>
</g>
<!-- 36858 -->
<g id="node11" class="node">
<title>36858</title>
<ellipse fill="none" stroke="#379469" cx="1247.08" cy="-146.86" rx="155.03" ry="28.99"/>
<text text-anchor="middle" x="1247.08" y="-150.06" font-family="Times,serif" font-size="14.00" fill="gray">CavilLicenseChange</text>
<text text-anchor="middle" x="1247.08" y="-133.56" font-family="Times,serif" font-size="14.00" fill="gray">92886cff45a04e9c29fc88bb9b11f090</text>
</g>
<!-- 36858&#45;&gt;36859 -->
<g id="edge18" class="edge">
<title>36858&#45;&gt;36859</title>
<path fill="none" stroke="#379469" d="M1240.41,-176.27C1239.52,-181.5 1238.59,-187.82 1237.39,-196.5"/>
<polygon fill="#379469" stroke="#379469" points="1233.93,-195.98 1236.04,-206.36 1240.86,-196.92 1233.93,-195.98"/>
</g>
<!-- 42906 -->
<g id="node13" class="node">
<title>42906</title>
<ellipse fill="none" stroke="#00876c" cx="1265.25" cy="-1553.92" rx="157.68" ry="28.99"/>
<text text-anchor="middle" x="1265.25" y="-1557.12" font-family="Times,serif" font-size="14.00" fill="gray">MetaeffektLicense</text>
<text text-anchor="middle" x="1265.25" y="-1540.62" font-family="Times,serif" font-size="14.00" fill="gray">84966399ed2da9aeddf1e7dbc003e0ae</text>
</g>
<!-- 42906&#45;&gt;42907 -->
<g id="edge19" class="edge">
<title>42906&#45;&gt;42907</title>
<path fill="none" stroke="#00876c" d="M1178.8,-1529.33C1054.64,-1491.21 1029.07,-1460.41 913.57,-1284.41"/>
<polygon fill="#00876c" stroke="#00876c" points="916.53,-1282.53 908.12,-1276.08 910.67,-1286.37 916.53,-1282.53"/>
</g>
<!-- 42908 -->
<g id="node15" class="node">
<title>42908</title>
<polygon fill="none" stroke="#00876c" points="1054.87,-1695.11 1054.87,-1710.02 998.29,-1720.57 918.29,-1720.57 861.71,-1710.02 861.71,-1695.11 918.29,-1684.57 998.29,-1684.57 1054.87,-1695.11"/>
<polygon fill="none" stroke="#00876c" points="1058.87,-1691.79 1058.87,-1713.35 998.66,-1724.57 917.92,-1724.57 857.71,-1713.35 857.71,-1691.79 917.92,-1680.57 998.66,-1680.57 1058.87,-1691.79"/>
<text text-anchor="middle" x="958.29" y="-1697.52" font-family="Times,serif" font-size="14.00">GFDL&#45;1.3&#45;invariants</text>
</g>
<!-- 42908&#45;&gt;42907 -->
<g id="edge20" class="edge">
<title>42908&#45;&gt;42907</title>
<path fill="none" stroke="#00876c" stroke-width="2" d="M946.51,-1680.29C883.73,-1561.03 881.75,-1541.99 891.4,-1285.89"/>
<polygon fill="#00876c" stroke="#00876c" stroke-width="2" points="891.73,-1277.15 895.85,-1287.31 892.13,-1279.73 891.85,-1287.16 891.35,-1287.14 890.85,-1287.12 891.13,-1279.69 886.85,-1286.97 891.73,-1277.15"/>
</g>
<!-- 42909 -->
<g id="node16" class="node">
<title>42909</title>
<polygon fill="none" stroke="#00876c" points="1863.4,-1486.86 1863.4,-1501.78 1709.47,-1512.32 1491.79,-1512.32 1337.86,-1501.78 1337.86,-1486.86 1491.79,-1476.32 1709.47,-1476.32 1863.4,-1486.86"/>
<polygon fill="none" stroke="#00876c" points="1867.4,-1483.13 1867.4,-1505.51 1709.61,-1516.32 1491.65,-1516.32 1333.86,-1505.51 1333.86,-1483.13 1491.65,-1472.32 1709.61,-1472.32 1867.4,-1483.13"/>
<text text-anchor="middle" x="1600.63" y="-1489.27" font-family="Times,serif" font-size="14.00">metaeffekt:GNU Free Documentation License 1.3 (invariants)</text>
</g>
<!-- 42909&#45;&gt;42907 -->
<g id="edge21" class="edge">
<title>42909&#45;&gt;42907</title>
<path fill="none" stroke="#00876c" stroke-width="2" d="M1333.6,-1502.53C1220.46,-1488.55 1138.78,-1432.67 932.24,-1281.49"/>
<polygon fill="#00876c" stroke="#00876c" stroke-width="2" points="925.23,-1276.35 935.96,-1278.63 927.6,-1277.46 933.6,-1281.86 933.3,-1282.26 933.01,-1282.66 927,-1278.27 930.64,-1285.89 925.23,-1276.35"/>
</g>
<!-- 42910 -->
<g id="node17" class="node">
<title>42910</title>
<polygon fill="none" stroke="#00876c" points="2412.57,-1840.23 2412.57,-1855.15 2285.58,-1865.69 2105.99,-1865.69 1978.99,-1855.15 1978.99,-1840.23 2105.99,-1829.69 2285.58,-1829.69 2412.57,-1840.23"/>
<polygon fill="none" stroke="#00876c" points="2416.57,-1836.55 2416.57,-1858.83 2285.75,-1869.69 2105.82,-1869.69 1974.99,-1858.83 1974.99,-1836.55 2105.82,-1825.69 2285.75,-1825.69 2416.57,-1836.55"/>
<text text-anchor="middle" x="2195.78" y="-1842.64" font-family="Times,serif" font-size="14.00">GNU Free Documentation License 1.3 (invariants)</text>
</g>
<!-- 42910&#45;&gt;42909 -->
<g id="edge22" class="edge">
<title>42910&#45;&gt;42909</title>
<path fill="none" stroke="#00876c" stroke-width="2" d="M2138.85,-1825.36C1997.03,-1768.94 1957.3,-1742.94 1641.79,-1523.02"/>
<polygon fill="#00876c" stroke="#00876c" stroke-width="2" points="1634.86,-1518.18 1645.63,-1520.21 1637.25,-1519.24 1643.35,-1523.49 1643.06,-1523.9 1642.78,-1524.31 1636.67,-1520.06 1640.49,-1527.59 1634.86,-1518.18"/>
</g>
<!-- 42911 -->
<g id="node18" class="node">
<title>42911</title>
<polygon fill="none" stroke="#00876c" points="552.53,-1554.78 552.53,-1569.69 410.28,-1580.23 209.12,-1580.23 66.88,-1569.69 66.88,-1554.78 209.12,-1544.23 410.28,-1544.23 552.53,-1554.78"/>
<text text-anchor="middle" x="309.7" y="-1557.18" font-family="Times,serif" font-size="14.00">GNU Free Documentation License Version 1.3 invariants</text>
</g>
<!-- 42911&#45;&gt;42907 -->
<g id="edge23" class="edge">
<title>42911&#45;&gt;42907</title>
<path fill="none" stroke="#00876c" stroke-dasharray="5,2" d="M353.02,-1543.88C490.25,-1485.45 524.74,-1466.37 844.84,-1280.29"/>
<polygon fill="#00876c" stroke="#00876c" points="853.35,-1275.35 846.96,-1284.26 850.08,-1277.25 844.7,-1280.37 844.7,-1280.37 844.7,-1280.37 850.08,-1277.25 842.44,-1276.48 853.35,-1275.35"/>
</g>
<!-- 42912 -->
<g id="node19" class="node">
<title>42912</title>
<polygon fill="none" stroke="#00876c" points="1101.54,-1917.36 1101.54,-1932.27 955.73,-1942.81 749.52,-1942.81 603.7,-1932.27 603.7,-1917.36 749.52,-1906.81 955.73,-1906.81 1101.54,-1917.36"/>
<text text-anchor="middle" x="852.62" y="-1919.76" font-family="Times,serif" font-size="14.00">GNU Free Documentation License Version &#45; 1.3 invariants</text>
</g>
<!-- 42912&#45;&gt;42907 -->
<g id="edge24" class="edge">
<title>42912&#45;&gt;42907</title>
<path fill="none" stroke="#00876c" stroke-dasharray="5,2" d="M848.9,-1906.51C809.37,-1711.73 810.59,-1694.65 886.49,-1285.71"/>
<polygon fill="#00876c" stroke="#00876c" points="888.31,-1275.94 890.91,-1286.59 887.62,-1279.66 886.48,-1285.77 886.48,-1285.77 886.48,-1285.77 887.62,-1279.66 882.06,-1284.95 888.31,-1275.94"/>
</g>
<!-- 42913 -->
<g id="node20" class="node">
<title>42913</title>
<polygon fill="none" stroke="#00876c" points="521.23,-1381.44 521.23,-1396.35 376.07,-1406.89 170.77,-1406.89 25.61,-1396.35 25.61,-1381.44 170.77,-1370.89 376.07,-1370.89 521.23,-1381.44"/>
<text text-anchor="middle" x="273.42" y="-1383.84" font-family="Times,serif" font-size="14.00">GNU Free Documentation License Version v1.3 invariants</text>
</g>
<!-- 42913&#45;&gt;42907 -->
<g id="edge25" class="edge">
<title>42913&#45;&gt;42907</title>
<path fill="none" stroke="#00876c" stroke-dasharray="5,2" d="M453.17,-1376.07C527.81,-1363.98 615.34,-1338.11 813.4,-1276.99"/>
<polygon fill="#00876c" stroke="#00876c" points="822.66,-1274.13 814.44,-1281.38 819.05,-1275.24 813.11,-1277.08 813.11,-1277.08 813.11,-1277.08 819.05,-1275.24 811.78,-1272.78 822.66,-1274.13"/>
</g>
<!-- 42914 -->
<g id="node21" class="node">
<title>42914</title>
<polygon fill="none" stroke="#00876c" points="508.15,-1146.41 508.15,-1161.33 359.41,-1171.87 149.07,-1171.87 0.33,-1161.33 0.33,-1146.41 149.07,-1135.87 359.41,-1135.87 508.15,-1146.41"/>
<text text-anchor="middle" x="254.24" y="-1148.82" font-family="Times,serif" font-size="14.00">GNU Free Documentation License Version &#45; v1.3 invariants</text>
</g>
<!-- 42914&#45;&gt;42907 -->
<g id="edge26" class="edge">
<title>42914&#45;&gt;42907</title>
<path fill="none" stroke="#00876c" stroke-dasharray="5,2" d="M293.26,-1172.26C430.5,-1236.38 471.68,-1246.08 734.57,-1250.44"/>
<polygon fill="#00876c" stroke="#00876c" points="744.41,-1250.6 734.34,-1254.94 740.63,-1250.54 734.41,-1250.44 734.41,-1250.44 734.41,-1250.44 740.63,-1250.54 734.48,-1245.94 744.41,-1250.6"/>
</g>
<!-- 42915 -->
<g id="node22" class="node">
<title>42915</title>
<polygon fill="none" stroke="#00876c" points="609.55,-1078.28 609.55,-1093.19 530.91,-1103.74 419.69,-1103.74 341.05,-1093.19 341.05,-1078.28 419.69,-1067.74 530.91,-1067.74 609.55,-1078.28"/>
<text text-anchor="middle" x="475.3" y="-1080.69" font-family="Times,serif" font-size="14.00">GFDL Version 1.3 &#45; invariants</text>
</g>
<!-- 42915&#45;&gt;42907 -->
<g id="edge27" class="edge">
<title>42915&#45;&gt;42907</title>
<path fill="none" stroke="#00876c" stroke-dasharray="5,2" d="M495.34,-1104.21C584.77,-1186.25 609.61,-1200.71 783.49,-1232.94"/>
<polygon fill="#00876c" stroke="#00876c" points="793.13,-1234.72 782.48,-1237.33 789.41,-1234.03 783.3,-1232.9 783.3,-1232.9 783.3,-1232.9 789.41,-1234.03 784.11,-1228.48 793.13,-1234.72"/>
</g>
<!-- 42916 -->
<g id="node23" class="node">
<title>42916</title>
<polygon fill="none" stroke="#00876c" points="843.35,-1668.02 843.35,-1682.93 784.18,-1693.48 700.5,-1693.48 641.33,-1682.93 641.33,-1668.02 700.5,-1657.48 784.18,-1657.48 843.35,-1668.02"/>
<text text-anchor="middle" x="742.34" y="-1670.43" font-family="Times,serif" font-size="14.00">GFDL 1.3 &#45; invariants</text>
</g>
<!-- 42916&#45;&gt;42907 -->
<g id="edge28" class="edge">
<title>42916&#45;&gt;42907</title>
<path fill="none" stroke="#00876c" stroke-dasharray="5,2" d="M744.84,-1657.27C761.23,-1538.87 767.07,-1522.84 877.66,-1284.77"/>
<polygon fill="#00876c" stroke="#00876c" points="881.81,-1275.85 881.67,-1286.81 880.21,-1279.28 877.59,-1284.92 877.59,-1284.92 877.59,-1284.92 880.21,-1279.28 873.51,-1283.02 881.81,-1275.85"/>
</g>
<!-- 42917 -->
<g id="node24" class="node">
<title>42917</title>
<polygon fill="none" stroke="#00876c" points="1485.68,-1285.69 1485.68,-1300.61 1410.61,-1311.15 1304.45,-1311.15 1229.38,-1300.61 1229.38,-1285.69 1304.45,-1275.15 1410.61,-1275.15 1485.68,-1285.69"/>
<text text-anchor="middle" x="1357.53" y="-1288.1" font-family="Times,serif" font-size="14.00">GFDL Version 1.3 invariants</text>
</g>
<!-- 42917&#45;&gt;42907 -->
<g id="edge29" class="edge">
<title>42917&#45;&gt;42907</title>
<path fill="none" stroke="#00876c" stroke-dasharray="5,2" d="M1294.38,-1310.11C1118.1,-1356.71 1086.81,-1354.1 944.47,-1279.86"/>
<polygon fill="#00876c" stroke="#00876c" points="936.01,-1275.43 946.96,-1276.08 939.36,-1277.19 944.87,-1280.07 944.87,-1280.07 944.87,-1280.07 939.36,-1277.19 942.79,-1284.06 936.01,-1275.43"/>
</g>
<!-- 42918 -->
<g id="node25" class="node">
<title>42918</title>
<polygon fill="none" stroke="#00876c" points="714.59,-1602.26 714.59,-1617.17 635.63,-1627.72 523.96,-1627.72 444.99,-1617.17 444.99,-1602.26 523.96,-1591.72 635.63,-1591.72 714.59,-1602.26"/>
<text text-anchor="middle" x="579.79" y="-1604.67" font-family="Times,serif" font-size="14.00">GFDL Version 1.3 (invariants)</text>
</g>
<!-- 42918&#45;&gt;42907 -->
<g id="edge30" class="edge">
<title>42918&#45;&gt;42907</title>
<path fill="none" stroke="#00876c" stroke-dasharray="5,2" d="M594.25,-1591.34C665.48,-1500.88 679.85,-1484.62 864.74,-1282.94"/>
<polygon fill="#00876c" stroke="#00876c" points="871.42,-1275.66 867.98,-1286.07 868.86,-1278.45 864.66,-1283.03 864.66,-1283.03 864.66,-1283.03 868.86,-1278.45 861.34,-1279.99 871.42,-1275.66"/>
</g>
<!-- 42919 -->
<g id="node26" class="node">
<title>42919</title>
<polygon fill="none" stroke="#00876c" points="1222.39,-1621.74 1222.39,-1636.66 1163.87,-1647.2 1081.11,-1647.2 1022.59,-1636.66 1022.59,-1621.74 1081.11,-1611.2 1163.87,-1611.2 1222.39,-1621.74"/>
<text text-anchor="middle" x="1122.49" y="-1624.15" font-family="Times,serif" font-size="14.00">GFDL v1.3 invariants</text>
</g>
<!-- 42919&#45;&gt;42907 -->
<g id="edge31" class="edge">
<title>42919&#45;&gt;42907</title>
<path fill="none" stroke="#00876c" stroke-dasharray="5,2" d="M1096.9,-1610.82C978.2,-1525.07 968.65,-1507.21 902.51,-1285.54"/>
<polygon fill="#00876c" stroke="#00876c" points="899.66,-1276 906.83,-1284.3 900.74,-1279.62 902.52,-1285.58 902.52,-1285.58 902.52,-1285.58 900.74,-1279.62 898.21,-1286.87 899.66,-1276"/>
</g>
<!-- 42920 -->
<g id="node27" class="node">
<title>42920</title>
<polygon fill="none" stroke="#00876c" points="844.49,-1310.19 844.49,-1325.1 782.4,-1335.64 694.59,-1335.64 632.5,-1325.1 632.5,-1310.19 694.59,-1299.64 782.4,-1299.64 844.49,-1310.19"/>
<text text-anchor="middle" x="738.49" y="-1312.59" font-family="Times,serif" font-size="14.00">GFDL v1.3 &#45; invariants</text>
</g>
<!-- 42920&#45;&gt;42907 -->
<g id="edge32" class="edge">
<title>42920&#45;&gt;42907</title>
<path fill="none" stroke="#00876c" stroke-dasharray="5,2" d="M794.61,-1301.29C805.94,-1296.57 819.44,-1290.06 839.21,-1280.02"/>
<polygon fill="#00876c" stroke="#00876c" points="848.01,-1275.53 841.15,-1284.08 844.64,-1277.25 839.1,-1280.07 839.1,-1280.07 839.1,-1280.07 844.64,-1277.25 837.06,-1276.07 848.01,-1275.53"/>
</g>
</g>
</svg>
