<?xml version="1.0" encoding="UTF-8" standalone="no"?>
<!DOCTYPE svg PUBLIC "-//W3C//DTD SVG 1.1//EN"
 "http://www.w3.org/Graphics/SVG/1.1/DTD/svg11.dtd">
<!-- Generated by graphviz version 10.0.1 (0)
 -->
<!-- Pages: 1 -->
<svg width="1685pt" height="1185pt"
 viewBox="0.00 0.00 1685.00 1185.00" xmlns="http://www.w3.org/2000/svg" xmlns:xlink="http://www.w3.org/1999/xlink">
<g id="graph0" class="graph" transform="scale(1 1) rotate(0) translate(4 1181)">
<polygon fill="white" stroke="none" points="-4,4 -4,-1181 1681,-1181 1681,4 -4,4"/>
<!-- 1818 -->
<g id="node1" class="node">
<title>1818</title>
<ellipse fill="none" stroke="#b8bf62" cx="673.14" cy="-460.63" rx="157.68" ry="28.99"/>
<text text-anchor="middle" x="673.14" y="-463.83" font-family="Times,serif" font-size="14.00" fill="gray">SPDXLicense</text>
<text text-anchor="middle" x="673.14" y="-447.33" font-family="Times,serif" font-size="14.00" fill="gray">8a6f6aff170931bb9072dd802544d33e</text>
</g>
<!-- 1819 -->
<g id="node2" class="node">
<title>1819</title>
<polygon fill="none" stroke="black" points="784.12,-516.18 784.12,-531.09 687.95,-541.63 551.96,-541.63 455.79,-531.09 455.79,-516.18 551.96,-505.63 687.95,-505.63 784.12,-516.18"/>
<polygon fill="none" stroke="black" points="788.12,-512.59 788.12,-534.67 688.17,-545.63 551.74,-545.63 451.79,-534.67 451.79,-512.59 551.74,-501.63 688.17,-501.63 788.12,-512.59"/>
<polygon fill="none" stroke="black" points="792.12,-509 792.12,-538.26 688.39,-549.63 551.52,-549.63 447.79,-538.26 447.79,-509 551.52,-497.63 688.39,-497.63 792.12,-509"/>
<text text-anchor="middle" x="619.95" y="-518.58" font-family="Times,serif" font-size="14.00">spdx:GFDL&#45;1.2&#45;no&#45;invariants&#45;or&#45;later</text>
</g>
<!-- 1818&#45;&gt;1819 -->
<g id="edge1" class="edge">
<title>1818&#45;&gt;1819</title>
<path fill="none" stroke="#b8bf62" d="M633.72,-488.85C633.6,-489.01 633.49,-489.16 633.38,-489.32"/>
<polygon fill="#b8bf62" stroke="#b8bf62" points="631.58,-485.39 629.73,-495.82 637.68,-488.82 631.58,-485.39"/>
</g>
<!-- 6414 -->
<g id="node7" class="node">
<title>6414</title>
<polygon fill="none" stroke="#e09d4b" points="743.12,-789.33 743.12,-804.24 641.77,-814.78 498.43,-814.78 397.07,-804.24 397.07,-789.33 498.43,-778.78 641.77,-778.78 743.12,-789.33"/>
<polygon fill="none" stroke="#e09d4b" points="747.12,-785.72 747.12,-807.85 641.98,-818.78 498.22,-818.78 393.07,-807.85 393.07,-785.72 498.22,-774.78 641.98,-774.78 747.12,-785.72"/>
<text text-anchor="middle" x="570.1" y="-791.73" font-family="Times,serif" font-size="14.00">Fedora:GFDL&#45;1.2&#45;no&#45;invariants&#45;or&#45;later</text>
</g>
<!-- 1819&#45;&gt;6414 -->
<g id="edge2" class="edge">
<title>1819&#45;&gt;6414</title>
<path fill="none" stroke="#e09d4b" stroke-width="2" d="M606.4,-550.07C548.8,-662.77 543.91,-680.45 562.43,-763.6"/>
<polygon fill="#e09d4b" stroke="#e09d4b" stroke-width="2" points="564.33,-771.98 557.73,-763.22 563.28,-769.59 561.64,-762.34 562.12,-762.22 562.61,-762.11 564.25,-769.37 566.51,-761.23 564.33,-771.98"/>
</g>
<!-- 1820 -->
<g id="node3" class="node">
<title>1820</title>
<polygon fill="none" stroke="black" points="736.66,-735.61 736.66,-750.52 653.15,-761.06 535.05,-761.06 451.55,-750.52 451.55,-735.61 535.05,-725.06 653.15,-725.06 736.66,-735.61"/>
<polygon fill="none" stroke="black" points="740.66,-732.08 740.66,-754.05 653.4,-765.06 534.8,-765.06 447.55,-754.05 447.55,-732.08 534.8,-721.06 653.4,-721.06 740.66,-732.08"/>
<text text-anchor="middle" x="594.1" y="-738.01" font-family="Times,serif" font-size="14.00">GFDL&#45;1.2&#45;no&#45;invariants&#45;or&#45;later</text>
</g>
<!-- 1820&#45;&gt;1819 -->
<g id="edge3" class="edge">
<title>1820&#45;&gt;1819</title>
<path fill="none" stroke="black" stroke-width="2" d="M587.46,-720.82C566.94,-651.01 567.5,-635.68 602.67,-560.14"/>
<polygon fill="black" stroke="black" stroke-width="2" points="606.34,-552.31 606.17,-563.28 605.7,-554.85 602.55,-561.58 602.1,-561.37 601.64,-561.16 604.8,-554.42 598.02,-559.46 606.34,-552.31"/>
</g>
<!-- 1820&#45;&gt;6414 -->
<g id="edge4" class="edge">
<title>1820&#45;&gt;6414</title>
<path fill="none" stroke="#e09d4b" stroke-width="2" d="M579.94,-765.55C579.88,-765.65 579.82,-765.76 579.75,-765.87"/>
<polygon fill="#e09d4b" stroke="#e09d4b" stroke-width="2" points="576.35,-772.21 577.11,-761.27 577.12,-769.72 580.64,-763.16 581.08,-763.4 581.52,-763.64 578,-770.19 585.04,-765.53 576.35,-772.21"/>
</g>
<!-- 15909 -->
<g id="node9" class="node">
<title>15909</title>
<polygon fill="none" stroke="#dac767" points="1205.39,-493.85 1205.39,-508.76 1104.68,-519.31 962.26,-519.31 861.55,-508.76 861.55,-493.85 962.26,-483.31 1104.68,-483.31 1205.39,-493.85"/>
<polygon fill="none" stroke="#dac767" points="1209.39,-490.25 1209.39,-512.37 1104.89,-523.31 962.05,-523.31 857.55,-512.37 857.55,-490.25 962.05,-479.31 1104.89,-479.31 1209.39,-490.25"/>
<text text-anchor="middle" x="1033.47" y="-496.26" font-family="Times,serif" font-size="14.00">scancode:gfdl&#45;1.2&#45;no&#45;invariants&#45;or&#45;later</text>
</g>
<!-- 1820&#45;&gt;15909 -->
<g id="edge5" class="edge">
<title>1820&#45;&gt;15909</title>
<path fill="none" stroke="#dac767" stroke-width="2" d="M671.3,-722.89C758.81,-697.42 802.08,-668.46 993.64,-530.1"/>
<polygon fill="#dac767" stroke="#dac767" stroke-width="2" points="1000.6,-525.07 995.13,-534.57 998.82,-526.97 992.79,-531.33 992.5,-530.92 992.21,-530.52 998.23,-526.16 989.86,-527.28 1000.6,-525.07"/>
</g>
<!-- 36845 -->
<g id="node12" class="node">
<title>36845</title>
<polygon fill="none" stroke="#379469" points="435.74,-487.2 435.74,-502.11 339.25,-512.66 202.79,-512.66 106.31,-502.11 106.31,-487.2 202.79,-476.66 339.25,-476.66 435.74,-487.2"/>
<polygon fill="none" stroke="#379469" points="439.74,-483.62 439.74,-505.7 339.47,-516.66 202.58,-516.66 102.31,-505.7 102.31,-483.62 202.58,-472.66 339.47,-472.66 439.74,-483.62"/>
<text text-anchor="middle" x="271.02" y="-489.61" font-family="Times,serif" font-size="14.00">cavil:GFDL&#45;1.2&#45;no&#45;invariants&#45;or&#45;later</text>
</g>
<!-- 1820&#45;&gt;36845 -->
<g id="edge6" class="edge">
<title>1820&#45;&gt;36845</title>
<path fill="none" stroke="#379469" stroke-width="2" d="M547.92,-720.57C369.74,-633.54 348.56,-618.48 290.78,-526.54"/>
<polygon fill="#379469" stroke="#379469" stroke-width="2" points="286.18,-519.17 295.29,-525.26 287.96,-521.07 291.9,-527.38 291.47,-527.65 291.05,-527.91 287.11,-521.6 287.66,-530.03 286.18,-519.17"/>
</g>
<!-- 1821 -->
<g id="node4" class="node">
<title>1821</title>
<polygon fill="none" stroke="black" points="1342.76,-546.67 1342.76,-561.58 1187.21,-572.13 967.23,-572.13 811.68,-561.58 811.68,-546.67 967.23,-536.13 1187.21,-536.13 1342.76,-546.67"/>
<polygon fill="none" stroke="black" points="1346.76,-542.93 1346.76,-565.32 1187.34,-576.13 967.09,-576.13 807.68,-565.32 807.68,-542.93 967.09,-532.13 1187.34,-532.13 1346.76,-542.93"/>
<text text-anchor="middle" x="1077.22" y="-549.08" font-family="Times,serif" font-size="14.00">GNU Free Documentation License v1.2 or later &#45; no invariants</text>
</g>
<!-- 1821&#45;&gt;1819 -->
<g id="edge7" class="edge">
<title>1821&#45;&gt;1819</title>
<path fill="none" stroke="#b8bf62" stroke-width="2" d="M1032.07,-531.67C891.77,-462.52 857.1,-455.33 713.82,-495.81"/>
<polygon fill="#b8bf62" stroke="#b8bf62" stroke-width="2" points="705.65,-498.14 714.03,-491.07 707.98,-496.95 715.13,-494.91 715.27,-495.39 715.41,-495.87 708.25,-497.91 716.5,-499.72 705.65,-498.14"/>
</g>
<!-- 1821&#45;&gt;6414 -->
<g id="edge8" class="edge">
<title>1821&#45;&gt;6414</title>
<path fill="none" stroke="#e09d4b" stroke-dasharray="5,2" d="M1050.96,-576.49C887.43,-715.69 829.08,-762.69 742.08,-781.51"/>
<polygon fill="#e09d4b" stroke="#e09d4b" points="732.51,-783.44 741.43,-777.06 736.22,-782.69 742.32,-781.47 742.32,-781.47 742.32,-781.47 736.22,-782.69 743.2,-785.88 732.51,-783.44"/>
</g>
<!-- 1821&#45;&gt;15909 -->
<g id="edge9" class="edge">
<title>1821&#45;&gt;15909</title>
<path fill="none" stroke="#dac767" stroke-width="2" d="M1069.76,-531.97C1069.71,-531.87 1069.66,-531.78 1069.61,-531.68"/>
<polygon fill="#dac767" stroke="#dac767" stroke-width="2" points="1065.49,-525.65 1074.85,-531.37 1067.35,-527.49 1071.55,-533.63 1071.14,-533.91 1070.72,-534.19 1066.53,-528.05 1067.42,-536.45 1065.49,-525.65"/>
</g>
<!-- 6395 -->
<g id="node5" class="node">
<title>6395</title>
<polygon fill="none" stroke="black" points="620.57,-1151.55 620.57,-1166.46 598.4,-1177 567.04,-1177 544.86,-1166.46 544.86,-1151.55 567.04,-1141 598.4,-1141 620.57,-1151.55"/>
<text text-anchor="middle" x="582.72" y="-1153.95" font-family="Times,serif" font-size="14.00">GFDL</text>
</g>
<!-- 6395&#45;&gt;6414 -->
<g id="edge10" class="edge">
<title>6395&#45;&gt;6414</title>
<path fill="none" stroke="#e09d4b" stroke-dasharray="5,2" d="M575.71,-1140.82C538.06,-1042.65 537.67,-1026.78 565.37,-830.19"/>
<polygon fill="#e09d4b" stroke="#e09d4b" points="566.76,-820.36 569.82,-830.89 566.23,-824.11 565.36,-830.26 565.36,-830.26 565.36,-830.26 566.23,-824.11 560.91,-829.64 566.76,-820.36"/>
</g>
<!-- 6413 -->
<g id="node6" class="node">
<title>6413</title>
<ellipse fill="none" stroke="#e09d4b" cx="158.19" cy="-1081.18" rx="158.22" ry="28.99"/>
<text text-anchor="middle" x="158.19" y="-1084.38" font-family="Times,serif" font-size="14.00" fill="gray">FedoraEntry</text>
<text text-anchor="middle" x="158.19" y="-1067.88" font-family="Times,serif" font-size="14.00" fill="gray">308fd1ac15660d1702828fbc274e9d6a</text>
</g>
<!-- 6413&#45;&gt;6414 -->
<g id="edge11" class="edge">
<title>6413&#45;&gt;6414</title>
<path fill="none" stroke="#e09d4b" d="M201.03,-1052.9C283.3,-998.49 316.42,-975.37 529.12,-825.63"/>
<polygon fill="#e09d4b" stroke="#e09d4b" points="531,-828.59 537.16,-819.97 526.97,-822.87 531,-828.59"/>
</g>
<!-- 15908 -->
<g id="node8" class="node">
<title>15908</title>
<ellipse fill="none" stroke="#dac767" cx="1518.11" cy="-416.09" rx="158.75" ry="28.99"/>
<text text-anchor="middle" x="1518.11" y="-419.29" font-family="Times,serif" font-size="14.00" fill="gray">ScancodeData</text>
<text text-anchor="middle" x="1518.11" y="-402.79" font-family="Times,serif" font-size="14.00" fill="gray">20ef6361896882b7bad52eb215fd2ab2</text>
</g>
<!-- 15908&#45;&gt;15909 -->
<g id="edge12" class="edge">
<title>15908&#45;&gt;15909</title>
<path fill="none" stroke="#dac767" d="M1383.24,-431.65C1331.1,-439.6 1268.91,-452.07 1139.65,-479.07"/>
<polygon fill="#dac767" stroke="#dac767" points="1139.15,-475.6 1130.07,-481.07 1140.58,-482.45 1139.15,-475.6"/>
</g>
<!-- 28702 -->
<g id="node10" class="node">
<title>28702</title>
<ellipse fill="none" stroke="#e06f45" cx="611.4" cy="-28.58" rx="157.68" ry="28.99"/>
<text text-anchor="middle" x="611.4" y="-31.78" font-family="Times,serif" font-size="14.00" fill="gray">OrtLicenseCategorization</text>
<text text-anchor="middle" x="611.4" y="-15.28" font-family="Times,serif" font-size="14.00" fill="gray">f14da9715c81d30ca0083afe61923801</text>
</g>
<!-- 28702&#45;&gt;1819 -->
<g id="edge13" class="edge">
<title>28702&#45;&gt;1819</title>
<path fill="none" stroke="#e06f45" d="M602.18,-57.61C560.25,-190.88 561.76,-213.87 612.92,-486.25"/>
<polygon fill="#e06f45" stroke="#e06f45" points="609.43,-486.63 614.72,-495.81 616.31,-485.34 609.43,-486.63"/>
</g>
<!-- 36844 -->
<g id="node11" class="node">
<title>36844</title>
<ellipse fill="none" stroke="#379469" cx="203.55" cy="-435.33" rx="157.68" ry="28.99"/>
<text text-anchor="middle" x="203.55" y="-438.53" font-family="Times,serif" font-size="14.00" fill="gray">CavilLicenseChange</text>
<text text-anchor="middle" x="203.55" y="-422.03" font-family="Times,serif" font-size="14.00" fill="gray">21d851dba1b32b25b9ff2f23040c057c</text>
</g>
<!-- 36844&#45;&gt;36845 -->
<g id="edge14" class="edge">
<title>36844&#45;&gt;36845</title>
<path fill="none" stroke="#379469" d="M226.58,-464.4C227.04,-464.77 227.5,-465.15 227.98,-465.53"/>
<polygon fill="#379469" stroke="#379469" points="225.73,-468.21 235.85,-471.34 229.89,-462.58 225.73,-468.21"/>
</g>
</g>
</svg>
