<?xml version="1.0" encoding="UTF-8" standalone="no"?>
<!DOCTYPE svg PUBLIC "-//W3C//DTD SVG 1.1//EN"
 "http://www.w3.org/Graphics/SVG/1.1/DTD/svg11.dtd">
<!-- Generated by graphviz version 10.0.1 (0)
 -->
<!-- Pages: 1 -->
<svg width="2985pt" height="2268pt"
 viewBox="0.00 0.00 2985.00 2268.00" xmlns="http://www.w3.org/2000/svg" xmlns:xlink="http://www.w3.org/1999/xlink">
<g id="graph0" class="graph" transform="scale(1 1) rotate(0) translate(4 2264)">
<polygon fill="white" stroke="none" points="-4,4 -4,-2264 2981,-2264 2981,4 -4,4"/>
<!-- 5 -->
<g id="node1" class="node">
<title>5</title>
<text text-anchor="start" x="1406.34" y="-355.36" font-family="Times,serif" font-size="14.00">OSI: </text>
<text text-anchor="start" x="1435.59" y="-355.36" font-family="Times,serif" font-weight="bold" font-size="14.00" fill="#8b0000">Rejected</text>
</g>
<!-- 2095 -->
<g id="node2" class="node">
<title>2095</title>
<ellipse fill="none" stroke="#dac767" cx="1680.2" cy="-636.2" rx="160.34" ry="28.99"/>
<text text-anchor="middle" x="1680.2" y="-639.4" font-family="Times,serif" font-size="14.00" fill="gray">SPDXLicense</text>
<text text-anchor="middle" x="1680.2" y="-622.9" font-family="Times,serif" font-size="14.00" fill="gray">50d3dddb423a6934dc1fa5e55b128831</text>
</g>
<!-- 5&#45;&gt;2095 -->
<g id="edge1" class="edge">
<title>5&#45;&gt;2095</title>
<path fill="none" stroke="#dac767" d="M1479.8,-377.38C1565.91,-424.16 1580.5,-443.65 1660.09,-597.26"/>
<polygon fill="#dac767" stroke="#dac767" points="1656.77,-598.47 1664.48,-605.74 1662.99,-595.25 1656.77,-598.47"/>
</g>
<!-- 2096 -->
<g id="node3" class="node">
<title>2096</title>
<polygon fill="none" stroke="black" points="1956.74,-1144.96 1956.74,-1159.87 1913.48,-1170.41 1852.29,-1170.41 1809.02,-1159.87 1809.02,-1144.96 1852.29,-1134.41 1913.48,-1134.41 1956.74,-1144.96"/>
<polygon fill="none" stroke="black" points="1960.74,-1141.82 1960.74,-1163.01 1913.96,-1174.41 1851.8,-1174.41 1805.02,-1163.01 1805.02,-1141.82 1851.8,-1130.41 1913.96,-1130.41 1960.74,-1141.82"/>
<polygon fill="none" stroke="black" points="1964.74,-1138.67 1964.74,-1166.15 1914.44,-1178.41 1851.32,-1178.41 1801.02,-1166.15 1801.02,-1138.67 1851.32,-1126.41 1914.44,-1126.41 1964.74,-1138.67"/>
<text text-anchor="middle" x="1882.88" y="-1147.36" font-family="Times,serif" font-size="14.00">spdx:GLWTPL</text>
</g>
<!-- 2095&#45;&gt;2096 -->
<g id="edge2" class="edge">
<title>2095&#45;&gt;2096</title>
<path fill="none" stroke="#dac767" d="M1708.87,-665.03C1861.39,-819.05 1868.43,-840.75 1881.18,-1115.2"/>
<polygon fill="#dac767" stroke="#dac767" points="1877.66,-1115 1881.62,-1124.83 1884.66,-1114.68 1877.66,-1115"/>
</g>
<!-- 17862 -->
<g id="node15" class="node">
<title>17862</title>
<polygon fill="none" stroke="black" points="1806.97,-1274.84 1806.97,-1289.75 1762.08,-1300.3 1698.6,-1300.3 1653.71,-1289.75 1653.71,-1274.84 1698.6,-1264.3 1762.08,-1264.3 1806.97,-1274.84"/>
<polygon fill="none" stroke="black" points="1810.97,-1271.67 1810.97,-1292.92 1762.55,-1304.3 1698.13,-1304.3 1649.71,-1292.92 1649.71,-1271.67 1698.13,-1260.3 1762.55,-1260.3 1810.97,-1271.67"/>
<text text-anchor="middle" x="1730.34" y="-1277.25" font-family="Times,serif" font-size="14.00">scancode:glwtpl</text>
</g>
<!-- 2096&#45;&gt;17862 -->
<g id="edge3" class="edge">
<title>2096&#45;&gt;17862</title>
<path fill="none" stroke="#deb256" stroke-width="2" d="M1844.93,-1177.19C1817.61,-1198.59 1781.48,-1229.45 1757.12,-1252.25"/>
<polygon fill="#deb256" stroke="#deb256" stroke-width="2" points="1750.79,-1258.27 1754.94,-1248.12 1752.31,-1256.14 1757.69,-1251.01 1758.04,-1251.38 1758.38,-1251.74 1752.99,-1256.87 1761.14,-1254.64 1750.79,-1258.27"/>
</g>
<!-- 48809 -->
<g id="node27" class="node">
<title>48809</title>
<polygon fill="none" stroke="#379469" points="2446.87,-1362.6 2446.87,-1377.52 2325.07,-1388.06 2152.82,-1388.06 2031.02,-1377.52 2031.02,-1362.6 2152.82,-1352.06 2325.07,-1352.06 2446.87,-1362.6"/>
<polygon fill="none" stroke="#379469" points="2450.87,-1358.94 2450.87,-1381.18 2325.24,-1392.06 2152.65,-1392.06 2027.02,-1381.18 2027.02,-1358.94 2152.65,-1348.06 2325.24,-1348.06 2450.87,-1358.94"/>
<text text-anchor="middle" x="2238.95" y="-1365.01" font-family="Times,serif" font-size="14.00">metaeffekt:Good Luck With That Public License</text>
</g>
<!-- 2096&#45;&gt;48809 -->
<g id="edge4" class="edge">
<title>2096&#45;&gt;48809</title>
<path fill="none" stroke="#379469" stroke-width="2" d="M1929.23,-1175.2C2114.69,-1266.49 2143.33,-1282.5 2207.06,-1340.54"/>
<polygon fill="#379469" stroke="#379469" stroke-width="2" points="2213.23,-1346.18 2202.81,-1342.75 2211,-1344.82 2205.52,-1339.8 2205.85,-1339.43 2206.19,-1339.06 2211.67,-1344.08 2208.89,-1336.11 2213.23,-1346.18"/>
</g>
<!-- 2097 -->
<g id="node4" class="node">
<title>2097</title>
<polygon fill="none" stroke="black" points="1761.02,-1501.53 1761.02,-1516.45 1730.41,-1526.99 1687.11,-1526.99 1656.5,-1516.45 1656.5,-1501.53 1687.11,-1490.99 1730.41,-1490.99 1761.02,-1501.53"/>
<polygon fill="none" stroke="black" points="1765.02,-1498.68 1765.02,-1519.3 1731.08,-1530.99 1686.44,-1530.99 1652.5,-1519.3 1652.5,-1498.68 1686.44,-1486.99 1731.08,-1486.99 1765.02,-1498.68"/>
<text text-anchor="middle" x="1708.76" y="-1503.94" font-family="Times,serif" font-size="14.00">GLWTPL</text>
</g>
<!-- 2097&#45;&gt;2096 -->
<g id="edge5" class="edge">
<title>2097&#45;&gt;2096</title>
<path fill="none" stroke="black" stroke-width="2" d="M1733.4,-1487.3C1854.14,-1380.63 1862.78,-1363.46 1879.36,-1189.97"/>
<polygon fill="black" stroke="black" stroke-width="2" points="1880.18,-1181.29 1883.72,-1191.67 1880.44,-1183.89 1879.73,-1191.3 1879.24,-1191.25 1878.74,-1191.2 1879.44,-1183.8 1874.76,-1190.82 1880.18,-1181.29"/>
</g>
<!-- 10439 -->
<g id="node12" class="node">
<title>10439</title>
<polygon fill="none" stroke="#00876c" points="1442.23,-1482.77 1442.23,-1497.68 1389.23,-1508.22 1314.27,-1508.22 1261.26,-1497.68 1261.26,-1482.77 1314.27,-1472.22 1389.23,-1472.22 1442.23,-1482.77"/>
<polygon fill="none" stroke="#00876c" points="1446.23,-1479.48 1446.23,-1500.96 1389.62,-1512.22 1313.87,-1512.22 1257.26,-1500.96 1257.26,-1479.48 1313.87,-1468.22 1389.62,-1468.22 1446.23,-1479.48"/>
<text text-anchor="middle" x="1351.75" y="-1485.17" font-family="Times,serif" font-size="14.00">BlueOak:GLWTPL</text>
</g>
<!-- 2097&#45;&gt;10439 -->
<g id="edge6" class="edge">
<title>2097&#45;&gt;10439</title>
<path fill="none" stroke="#00876c" stroke-width="2" d="M1665.85,-1524.4C1553.12,-1564.19 1526.94,-1564.13 1409.43,-1514.89"/>
<polygon fill="#00876c" stroke="#00876c" stroke-width="2" points="1401.54,-1511.56 1412.5,-1511.3 1404.1,-1512.1 1410.95,-1514.99 1410.76,-1515.45 1410.56,-1515.91 1403.71,-1513.02 1409.01,-1519.59 1401.54,-1511.56"/>
</g>
<!-- 2097&#45;&gt;17862 -->
<g id="edge7" class="edge">
<title>2097&#45;&gt;17862</title>
<path fill="none" stroke="black" stroke-width="2" d="M1720.11,-1486.75C1746.59,-1433.72 1747.53,-1417.57 1734.61,-1315.55"/>
<polygon fill="black" stroke="black" stroke-width="2" points="1733.54,-1307.15 1739.27,-1316.5 1734.36,-1309.63 1735.3,-1317.01 1734.81,-1317.07 1734.31,-1317.13 1733.37,-1309.76 1730.34,-1317.64 1733.54,-1307.15"/>
</g>
<!-- 35092 -->
<g id="node19" class="node">
<title>35092</title>
<polygon fill="none" stroke="#e18745" points="1585.14,-1677.25 1585.14,-1692.16 1530.19,-1702.7 1452.48,-1702.7 1397.53,-1692.16 1397.53,-1677.25 1452.48,-1666.7 1530.19,-1666.7 1585.14,-1677.25"/>
<polygon fill="none" stroke="#e18745" points="1589.14,-1673.94 1589.14,-1695.46 1530.57,-1706.7 1452.1,-1706.7 1393.53,-1695.46 1393.53,-1673.94 1452.1,-1662.7 1530.57,-1662.7 1589.14,-1673.94"/>
<text text-anchor="middle" x="1491.34" y="-1679.65" font-family="Times,serif" font-size="14.00">fossology:GLWTPL</text>
</g>
<!-- 2097&#45;&gt;35092 -->
<g id="edge8" class="edge">
<title>2097&#45;&gt;35092</title>
<path fill="none" stroke="#e18745" stroke-width="2" d="M1693.63,-1531.45C1634.21,-1619.44 1614.95,-1643.79 1563.47,-1663.02"/>
<polygon fill="#e18745" stroke="#e18745" stroke-width="2" points="1555.39,-1665.88 1563.32,-1658.3 1557.64,-1664.55 1564.66,-1662.07 1564.82,-1662.55 1564.99,-1663.02 1557.98,-1665.5 1566.32,-1666.79 1555.39,-1665.88"/>
</g>
<!-- 41604 -->
<g id="node25" class="node">
<title>41604</title>
<polygon fill="none" stroke="#379469" points="1926.46,-1842.49 1926.46,-1857.4 1882.86,-1867.94 1821.21,-1867.94 1777.62,-1857.4 1777.62,-1842.49 1821.21,-1831.94 1882.86,-1831.94 1926.46,-1842.49"/>
<polygon fill="none" stroke="#379469" points="1930.46,-1839.34 1930.46,-1860.55 1883.34,-1871.94 1820.74,-1871.94 1773.62,-1860.55 1773.62,-1839.34 1820.74,-1827.94 1883.34,-1827.94 1930.46,-1839.34"/>
<text text-anchor="middle" x="1852.04" y="-1844.89" font-family="Times,serif" font-size="14.00">cavil:GLWTPL</text>
</g>
<!-- 2097&#45;&gt;41604 -->
<g id="edge9" class="edge">
<title>2097&#45;&gt;41604</title>
<path fill="none" stroke="#379469" stroke-width="2" d="M1718.86,-1531.39C1803.54,-1719.18 1814.65,-1744.37 1840.4,-1816.93"/>
<polygon fill="#379469" stroke="#379469" stroke-width="2" points="1843.33,-1825.2 1835.75,-1817.27 1842,-1822.95 1839.52,-1815.94 1840,-1815.77 1840.47,-1815.61 1842.95,-1822.62 1844.24,-1814.27 1843.33,-1825.2"/>
</g>
<!-- 2098 -->
<g id="node5" class="node">
<title>2098</title>
<polygon fill="none" stroke="black" points="1911.24,-1344.58 1911.24,-1359.49 1816.38,-1370.04 1682.22,-1370.04 1587.35,-1359.49 1587.35,-1344.58 1682.22,-1334.04 1816.38,-1334.04 1911.24,-1344.58"/>
<polygon fill="none" stroke="black" points="1915.24,-1341 1915.24,-1363.07 1816.6,-1374.04 1682,-1374.04 1583.35,-1363.07 1583.35,-1341 1682,-1330.04 1816.6,-1330.04 1915.24,-1341"/>
<text text-anchor="middle" x="1749.3" y="-1346.99" font-family="Times,serif" font-size="14.00">Good Luck With That Public License</text>
</g>
<!-- 2098&#45;&gt;2096 -->
<g id="edge10" class="edge">
<title>2098&#45;&gt;2096</title>
<path fill="none" stroke="#dac767" stroke-width="2" d="M1779.24,-1329.7C1850.36,-1276.13 1861.3,-1261.2 1875.73,-1189.77"/>
<polygon fill="#dac767" stroke="#dac767" stroke-width="2" points="1877.42,-1181.21 1879.9,-1191.89 1877.42,-1183.82 1875.98,-1191.11 1875.49,-1191.02 1875,-1190.92 1876.44,-1183.62 1871.07,-1190.15 1877.42,-1181.21"/>
</g>
<!-- 2098&#45;&gt;10439 -->
<g id="edge11" class="edge">
<title>2098&#45;&gt;10439</title>
<path fill="none" stroke="#00876c" stroke-width="2" d="M1722.56,-1374.35C1599.76,-1476.55 1567.54,-1497.42 1457.61,-1495.45"/>
<polygon fill="#00876c" stroke="#00876c" stroke-width="2" points="1449.16,-1495.25 1459.27,-1490.99 1451.74,-1494.81 1459.17,-1494.99 1459.16,-1495.49 1459.15,-1495.99 1451.71,-1495.81 1459.05,-1499.99 1449.16,-1495.25"/>
</g>
<!-- 2098&#45;&gt;17862 -->
<g id="edge12" class="edge">
<title>2098&#45;&gt;17862</title>
<path fill="none" stroke="#deb256" stroke-width="2" d="M1749.78,-1329.91C1749.19,-1325.35 1747.87,-1320.79 1745.43,-1314.73"/>
<polygon fill="#deb256" stroke="#deb256" stroke-width="2" points="1741.98,-1306.82 1750.11,-1314.18 1743.46,-1308.97 1746.44,-1315.79 1745.98,-1315.99 1745.53,-1316.19 1742.55,-1309.37 1741.86,-1317.79 1741.98,-1306.82"/>
</g>
<!-- 2098&#45;&gt;35092 -->
<g id="edge13" class="edge">
<title>2098&#45;&gt;35092</title>
<path fill="none" stroke="#e18745" stroke-width="2" d="M1740.03,-1374.39C1658.65,-1570.62 1645,-1596.8 1540.96,-1656.84"/>
<polygon fill="#e18745" stroke="#e18745" stroke-width="2" points="1533.4,-1661.16 1539.85,-1652.29 1535.38,-1659.46 1541.83,-1655.76 1542.08,-1656.2 1542.33,-1656.63 1535.87,-1660.32 1544.32,-1660.1 1533.4,-1661.16"/>
</g>
<!-- 2098&#45;&gt;48809 -->
<g id="edge14" class="edge">
<title>2098&#45;&gt;48809</title>
<path fill="none" stroke="#379469" stroke-width="2" d="M1864.72,-1369.1C1997.17,-1388.34 2056.69,-1394.76 2112.16,-1390.9"/>
<polygon fill="#379469" stroke="#379469" stroke-width="2" points="2120.79,-1390.19 2111.19,-1395.5 2118.28,-1390.9 2110.86,-1391.51 2110.82,-1391.01 2110.78,-1390.51 2118.19,-1389.9 2110.45,-1386.53 2120.79,-1390.19"/>
</g>
<!-- 67260 -->
<g id="node29" class="node">
<title>67260</title>
<polygon fill="none" stroke="#00876c" points="2430,-1169.78 2430,-1184.69 2322.48,-1195.23 2170.42,-1195.23 2062.9,-1184.69 2062.9,-1169.78 2170.42,-1159.23 2322.48,-1159.23 2430,-1169.78"/>
<polygon fill="none" stroke="#00876c" points="2434,-1166.15 2434,-1188.31 2322.67,-1199.23 2170.22,-1199.23 2058.9,-1188.31 2058.9,-1166.15 2170.22,-1155.23 2322.67,-1155.23 2434,-1166.15"/>
<text text-anchor="middle" x="2246.45" y="-1172.18" font-family="Times,serif" font-size="14.00">spdx:Good Luck With That Public License</text>
</g>
<!-- 2098&#45;&gt;67260 -->
<g id="edge15" class="edge">
<title>2098&#45;&gt;67260</title>
<path fill="none" stroke="#00876c" stroke-width="2" d="M1854.41,-1333.77C2075.6,-1294.73 2110.53,-1281.53 2208.77,-1206.42"/>
<polygon fill="#00876c" stroke="#00876c" stroke-width="2" points="2215.6,-1201.18 2210.41,-1210.84 2213.87,-1203.14 2207.97,-1207.67 2207.67,-1207.27 2207.36,-1206.88 2213.26,-1202.35 2204.93,-1203.7 2215.6,-1201.18"/>
</g>
<!-- 2099 -->
<g id="node6" class="node">
<title>2099</title>
<text text-anchor="middle" x="1625.29" y="-224.61" font-family="Times,serif" font-size="14.00">$TEXT</text>
</g>
<!-- 2099&#45;&gt;2095 -->
<g id="edge16" class="edge">
<title>2099&#45;&gt;2095</title>
<path fill="none" stroke="#dac767" d="M1631.98,-247.56C1669.48,-348.15 1671.85,-365.73 1678.96,-595.49"/>
<polygon fill="#dac767" stroke="#dac767" points="1675.46,-595.55 1679.26,-605.43 1682.45,-595.33 1675.46,-595.55"/>
</g>
<!-- 2100 -->
<g id="node7" class="node">
<title>2100</title>
<text text-anchor="middle" x="1583.12" y="-12.95" font-family="Times,serif" font-size="14.00">$TEXT</text>
</g>
<!-- 2100&#45;&gt;2099 -->
<g id="edge17" class="edge">
<title>2100&#45;&gt;2099</title>
<path fill="none" stroke="#dac767" d="M1590.41,-35.76C1607.82,-78.87 1610.46,-93.97 1622.1,-200.39"/>
<polygon fill="#dac767" stroke="#dac767" points="1618.6,-200.61 1623.17,-210.18 1625.56,-199.86 1618.6,-200.61"/>
</g>
<!-- 2101 -->
<g id="node8" class="node">
<title>2101</title>
<text text-anchor="middle" x="1286.46" y="-1050.96" font-family="Times,serif" font-size="14.00">https://github.com/me&#45;shaon/GLWTPL/commit/da5f6bc734095efbacb442c0b31e33a65b9d6e85</text>
</g>
<!-- 2101&#45;&gt;2095 -->
<g id="edge18" class="edge">
<title>2101&#45;&gt;2095</title>
<path fill="none" stroke="#dac767" d="M1297.1,-1038.26C1457.33,-770.98 1480.93,-734.88 1612.87,-668.77"/>
<polygon fill="#dac767" stroke="#dac767" points="1614.23,-672 1621.63,-664.42 1611.11,-665.73 1614.23,-672"/>
</g>
<!-- 17861 -->
<g id="node14" class="node">
<title>17861</title>
<ellipse fill="none" stroke="#deb256" cx="1286.42" cy="-1117.55" rx="157.15" ry="28.99"/>
<text text-anchor="middle" x="1286.42" y="-1120.75" font-family="Times,serif" font-size="14.00" fill="gray">ScancodeData</text>
<text text-anchor="middle" x="1286.42" y="-1104.25" font-family="Times,serif" font-size="14.00" fill="gray">25e34d7d448384ca8f107fc68ee513bc</text>
</g>
<!-- 2101&#45;&gt;17861 -->
<g id="edge19" class="edge">
<title>2101&#45;&gt;17861</title>
<path fill="none" stroke="#deb256" d="M1279.4,-1073.67C1279.03,-1074.84 1278.7,-1075.95 1278.43,-1077.03"/>
<polygon fill="#deb256" stroke="#deb256" points="1274.97,-1076.38 1277.7,-1086.62 1281.95,-1076.92 1274.97,-1076.38"/>
</g>
<!-- 35091 -->
<g id="node18" class="node">
<title>35091</title>
<ellipse fill="none" stroke="#e18745" cx="1058.75" cy="-1714.04" rx="153.97" ry="28.99"/>
<text text-anchor="middle" x="1058.75" y="-1717.24" font-family="Times,serif" font-size="14.00" fill="gray">Fossology</text>
<text text-anchor="middle" x="1058.75" y="-1700.74" font-family="Times,serif" font-size="14.00" fill="gray">57f5d3b2fa7dcb79257af2778f8f18c7</text>
</g>
<!-- 2101&#45;&gt;35091 -->
<g id="edge20" class="edge">
<title>2101&#45;&gt;35091</title>
<path fill="none" stroke="#e18745" d="M1276.99,-1073.75C1077.17,-1448.34 1064.96,-1474.11 1059.73,-1673.12"/>
<polygon fill="#e18745" stroke="#e18745" points="1056.23,-1673 1059.48,-1683.09 1063.23,-1673.18 1056.23,-1673"/>
</g>
<!-- 5550 -->
<g id="node9" class="node">
<title>5550</title>
<text text-anchor="middle" x="878.16" y="-1135.68" font-family="Times,serif" font-size="14.00">LicenseType Permissive</text>
</g>
<!-- 10438 -->
<g id="node11" class="node">
<title>10438</title>
<ellipse fill="none" stroke="#00876c" cx="807.96" cy="-1488.82" rx="161.93" ry="28.99"/>
<text text-anchor="middle" x="807.96" y="-1492.02" font-family="Times,serif" font-size="14.00" fill="gray">BlueOakCouncil</text>
<text text-anchor="middle" x="807.96" y="-1475.52" font-family="Times,serif" font-size="14.00" fill="gray">48d171986888635376bc7b9c93200acb</text>
</g>
<!-- 5550&#45;&gt;10438 -->
<g id="edge21" class="edge">
<title>5550&#45;&gt;10438</title>
<path fill="none" stroke="#00876c" d="M868.62,-1158.59C784.05,-1317.17 776.55,-1336.64 799.44,-1448.56"/>
<polygon fill="#00876c" stroke="#00876c" points="795.98,-1449.13 801.44,-1458.21 802.84,-1447.7 795.98,-1449.13"/>
</g>
<!-- 5550&#45;&gt;17861 -->
<g id="edge22" class="edge">
<title>5550&#45;&gt;17861</title>
<path fill="none" stroke="#deb256" d="M952.85,-1133.8C996.72,-1130.08 1035.2,-1127.9 1121.07,-1124.26"/>
<polygon fill="#deb256" stroke="#deb256" points="1121,-1127.76 1130.84,-1123.85 1120.71,-1120.77 1121,-1127.76"/>
</g>
<!-- 10364 -->
<g id="node10" class="node">
<title>10364</title>
<text text-anchor="start" x="162.83" y="-1433.9" font-family="Times,serif" font-size="14.00">BlueOakCouncil: </text>
<text text-anchor="start" x="261.08" y="-1433.9" font-family="Times,serif" font-weight="bold" font-size="14.00" fill="#8b0000">Lead</text>
<text text-anchor="start" x="8.33" y="-1419.9" font-family="Times,serif" font-size="14.00">These licenses lack one or more essential elements of permissive open software</text>
<text text-anchor="start" x="19.2" y="-1405.9" font-family="Times,serif" font-size="14.00">licenses or impose unusually burdensome requirements. &#160;Many use unclear,</text>
<text text-anchor="start" x="138.45" y="-1391.9" font-family="Times,serif" font-size="14.00">jocular, or incomplete language.</text>
</g>
<!-- 10364&#45;&gt;10438 -->
<g id="edge23" class="edge">
<title>10364&#45;&gt;10438</title>
<path fill="none" stroke="#00876c" d="M308.17,-1450.16C395.75,-1482.1 450.64,-1488.58 634.25,-1489.19"/>
<polygon fill="#00876c" stroke="#00876c" points="634.14,-1492.69 644.15,-1489.22 634.16,-1485.69 634.14,-1492.69"/>
</g>
<!-- 10438&#45;&gt;10439 -->
<g id="edge24" class="edge">
<title>10438&#45;&gt;10439</title>
<path fill="none" stroke="#00876c" d="M878.88,-1515.28C992.25,-1555.33 1038.51,-1552.5 1265.81,-1507.44"/>
<polygon fill="#00876c" stroke="#00876c" points="1266.16,-1510.94 1275.28,-1505.55 1264.79,-1504.07 1266.16,-1510.94"/>
</g>
<!-- 10440 -->
<g id="node13" class="node">
<title>10440</title>
<text text-anchor="middle" x="407.36" y="-1656.45" font-family="Times,serif" font-size="14.00">https://spdx.org/licenses/GLWTPL</text>
</g>
<!-- 10440&#45;&gt;10438 -->
<g id="edge25" class="edge">
<title>10440&#45;&gt;10438</title>
<path fill="none" stroke="#00876c" d="M453.99,-1643.55C526.74,-1615.32 561.97,-1599.91 737.31,-1520.74"/>
<polygon fill="#00876c" stroke="#00876c" points="738.63,-1523.99 746.3,-1516.68 735.74,-1517.61 738.63,-1523.99"/>
</g>
<!-- 17861&#45;&gt;17862 -->
<g id="edge26" class="edge">
<title>17861&#45;&gt;17862</title>
<path fill="none" stroke="#deb256" d="M1326.88,-1145.84C1493.67,-1262.21 1533.59,-1284.98 1638.07,-1285.2"/>
<polygon fill="#deb256" stroke="#deb256" points="1637.92,-1288.7 1647.9,-1285.15 1637.88,-1281.7 1637.92,-1288.7"/>
</g>
<!-- 17862&#45;&gt;2096 -->
<g id="edge27" class="edge">
<title>17862&#45;&gt;2096</title>
<path fill="none" stroke="#00876c" stroke-width="2" d="M1764.42,-1260.53C1790.58,-1240.29 1826.32,-1209.97 1851.72,-1186.53"/>
<polygon fill="#00876c" stroke="#00876c" stroke-width="2" points="1858.13,-1180.54 1853.9,-1190.66 1856.6,-1182.66 1851.17,-1187.74 1850.82,-1187.37 1850.48,-1187.01 1855.91,-1181.93 1847.75,-1184.08 1858.13,-1180.54"/>
</g>
<!-- 17862&#45;&gt;48809 -->
<g id="edge28" class="edge">
<title>17862&#45;&gt;48809</title>
<path fill="none" stroke="#379469" stroke-dasharray="5,2" d="M1794.29,-1297.23C1923.04,-1327.26 1995.97,-1343.88 2050.61,-1353.59"/>
<polygon fill="#379469" stroke="#379469" points="2060.46,-1355.29 2049.84,-1358.02 2056.73,-1354.65 2050.6,-1353.59 2050.6,-1353.59 2050.6,-1353.59 2056.73,-1354.65 2051.37,-1349.16 2060.46,-1355.29"/>
</g>
<!-- 17863 -->
<g id="node16" class="node">
<title>17863</title>
<text text-anchor="middle" x="1186.67" y="-1599.13" font-family="Times,serif" font-size="14.00">https://github.com/me&#45;shaon/GLWTPL/blob/master/LICENSE</text>
</g>
<!-- 17863&#45;&gt;17861 -->
<g id="edge29" class="edge">
<title>17863&#45;&gt;17861</title>
<path fill="none" stroke="#deb256" d="M1184.29,-1586.23C1164.41,-1434.97 1167.29,-1418.37 1270.6,-1157.45"/>
<polygon fill="#deb256" stroke="#deb256" points="1273.81,-1158.85 1274.24,-1148.27 1267.3,-1156.27 1273.81,-1158.85"/>
</g>
<!-- 17864 -->
<g id="node17" class="node">
<title>17864</title>
<text text-anchor="middle" x="1031.12" y="-846.51" font-family="Times,serif" font-size="14.00">$TEXT</text>
</g>
<!-- 17864&#45;&gt;17861 -->
<g id="edge30" class="edge">
<title>17864&#45;&gt;17861</title>
<path fill="none" stroke="#deb256" d="M1041.61,-869.5C1087.77,-948.14 1101.12,-962.67 1243.49,-1081.72"/>
<polygon fill="#deb256" stroke="#deb256" points="1241.07,-1084.26 1250.99,-1087.98 1245.56,-1078.89 1241.07,-1084.26"/>
</g>
<!-- 35091&#45;&gt;35092 -->
<g id="edge31" class="edge">
<title>35091&#45;&gt;35092</title>
<path fill="none" stroke="#e18745" d="M1132.69,-1739.84C1237.64,-1774.14 1274.48,-1767.97 1429.28,-1708.71"/>
<polygon fill="#e18745" stroke="#e18745" points="1430.16,-1712.12 1438.24,-1705.27 1427.65,-1705.58 1430.16,-1712.12"/>
</g>
<!-- 35093 -->
<g id="node20" class="node">
<title>35093</title>
<text text-anchor="middle" x="833.26" y="-1979.52" font-family="Times,serif" font-size="14.00">$TEXT</text>
</g>
<!-- 35093&#45;&gt;35091 -->
<g id="edge32" class="edge">
<title>35093&#45;&gt;35091</title>
<path fill="none" stroke="#e18745" d="M848.92,-1966.96C900.36,-1909.07 914.02,-1892.63 1028.4,-1751.5"/>
<polygon fill="#e18745" stroke="#e18745" points="1030.83,-1754.06 1034.4,-1744.09 1025.39,-1749.65 1030.83,-1754.06"/>
</g>
<!-- 35432 -->
<g id="node21" class="node">
<title>35432</title>
<text text-anchor="middle" x="2711.05" y="-521.7" font-family="Times,serif" font-size="14.00">LicenseTag (ScopedLicenseTag &quot;OrtLicenseCategorization&quot; &quot;permissive&quot; NoLicenseTagText)</text>
</g>
<!-- 35703 -->
<g id="node23" class="node">
<title>35703</title>
<ellipse fill="none" stroke="#d43d51" cx="2206.23" cy="-888.76" rx="157.15" ry="28.99"/>
<text text-anchor="middle" x="2206.23" y="-891.96" font-family="Times,serif" font-size="14.00" fill="gray">OrtLicenseCategorization</text>
<text text-anchor="middle" x="2206.23" y="-875.46" font-family="Times,serif" font-size="14.00" fill="gray">ee4b17dffecae5733455c73185339717</text>
</g>
<!-- 35432&#45;&gt;35703 -->
<g id="edge33" class="edge">
<title>35432&#45;&gt;35703</title>
<path fill="none" stroke="#d43d51" d="M2692.44,-544.4C2578.3,-652.48 2557.47,-667.56 2260.17,-854.8"/>
<polygon fill="#d43d51" stroke="#d43d51" points="2258.72,-851.58 2252.12,-859.87 2262.45,-857.5 2258.72,-851.58"/>
</g>
<!-- 35433 -->
<g id="node22" class="node">
<title>35433</title>
<text text-anchor="middle" x="2262.28" y="-828.72" font-family="Times,serif" font-size="14.00">LicenseTag (ScopedLicenseTag &quot;OrtLicenseCategorization&quot; &quot;include&#45;in&#45;notice&#45;file&quot; NoLicenseTagText)</text>
</g>
<!-- 35433&#45;&gt;35703 -->
<g id="edge34" class="edge">
<title>35433&#45;&gt;35703</title>
<path fill="none" stroke="#d43d51" d="M2250.52,-851.63C2250.38,-851.81 2250.23,-851.98 2250.09,-852.16"/>
<polygon fill="#d43d51" stroke="#d43d51" points="2247.73,-849.56 2243.23,-859.15 2252.73,-854.46 2247.73,-849.56"/>
</g>
<!-- 35703&#45;&gt;2096 -->
<g id="edge35" class="edge">
<title>35703&#45;&gt;2096</title>
<path fill="none" stroke="#d43d51" d="M2186.02,-917.91C2129.36,-998.62 2107.63,-1015.57 1932.73,-1122.11"/>
<polygon fill="#d43d51" stroke="#d43d51" points="1930.94,-1119.1 1924.22,-1127.29 1934.58,-1125.08 1930.94,-1119.1"/>
</g>
<!-- 41603 -->
<g id="node24" class="node">
<title>41603</title>
<ellipse fill="none" stroke="#379469" cx="2001.17" cy="-2230.74" rx="157.15" ry="28.99"/>
<text text-anchor="middle" x="2001.17" y="-2233.94" font-family="Times,serif" font-size="14.00" fill="gray">CavilLicenseChange</text>
<text text-anchor="middle" x="2001.17" y="-2217.44" font-family="Times,serif" font-size="14.00" fill="gray">3efc6c52112877006a61cde7ef96163b</text>
</g>
<!-- 41603&#45;&gt;41604 -->
<g id="edge36" class="edge">
<title>41603&#45;&gt;41604</title>
<path fill="none" stroke="#379469" d="M1991.38,-2201.55C1962.6,-2116.11 1952.99,-2092.27 1865.65,-1882.61"/>
<polygon fill="#379469" stroke="#379469" points="1868.95,-1881.44 1861.87,-1873.55 1862.49,-1884.13 1868.95,-1881.44"/>
</g>
<!-- 48808 -->
<g id="node26" class="node">
<title>48808</title>
<ellipse fill="none" stroke="#379469" cx="2796.23" cy="-1516.35" rx="154.5" ry="28.99"/>
<text text-anchor="middle" x="2796.23" y="-1519.55" font-family="Times,serif" font-size="14.00" fill="gray">MetaeffektLicense</text>
<text text-anchor="middle" x="2796.23" y="-1503.05" font-family="Times,serif" font-size="14.00" fill="gray">de861ff1bd571fe296bf6d74fb34e005</text>
</g>
<!-- 48808&#45;&gt;48809 -->
<g id="edge37" class="edge">
<title>48808&#45;&gt;48809</title>
<path fill="none" stroke="#379469" d="M2699.46,-1493.41C2617.46,-1473.58 2553.78,-1456.4 2331.95,-1395.57"/>
<polygon fill="#379469" stroke="#379469" points="2332.95,-1392.22 2322.38,-1392.95 2331.1,-1398.97 2332.95,-1392.22"/>
</g>
<!-- 67259 -->
<g id="node28" class="node">
<title>67259</title>
<ellipse fill="none" stroke="#00876c" cx="2155.49" cy="-1467.48" rx="159.28" ry="28.99"/>
<text text-anchor="middle" x="2155.49" y="-1470.68" font-family="Times,serif" font-size="14.00" fill="gray">LicenseLynx</text>
<text text-anchor="middle" x="2155.49" y="-1454.18" font-family="Times,serif" font-size="14.00" fill="gray">4549d1e014a9d57df59f183a522380d4</text>
</g>
<!-- 67259&#45;&gt;2096 -->
<g id="edge38" class="edge">
<title>67259&#45;&gt;2096</title>
<path fill="none" stroke="#00876c" d="M2142.52,-1438.09C2099.91,-1342.72 2083.06,-1324.14 1922.01,-1185.94"/>
<polygon fill="#00876c" stroke="#00876c" points="1924.75,-1183.68 1914.88,-1179.83 1920.19,-1189 1924.75,-1183.68"/>
</g>
<!-- 67260&#45;&gt;2096 -->
<g id="edge39" class="edge">
<title>67260&#45;&gt;2096</title>
<path fill="none" stroke="#00876c" stroke-width="2" d="M2068.83,-1164.72C2044.15,-1163.08 2014.24,-1161.09 1976.18,-1158.58"/>
<polygon fill="#00876c" stroke="#00876c" stroke-width="2" points="1967.66,-1158.01 1977.93,-1154.18 1970.25,-1157.68 1977.67,-1158.17 1977.64,-1158.67 1977.6,-1159.17 1970.18,-1158.68 1977.34,-1163.16 1967.66,-1158.01"/>
</g>
</g>
</svg>
