<?xml version="1.0" encoding="UTF-8" standalone="no"?>
<!DOCTYPE svg PUBLIC "-//W3C//DTD SVG 1.1//EN"
 "http://www.w3.org/Graphics/SVG/1.1/DTD/svg11.dtd">
<!-- Generated by graphviz version 10.0.1 (0)
 -->
<!-- Pages: 1 -->
<svg width="3176pt" height="1669pt"
 viewBox="0.00 0.00 3176.00 1669.00" xmlns="http://www.w3.org/2000/svg" xmlns:xlink="http://www.w3.org/1999/xlink">
<g id="graph0" class="graph" transform="scale(1 1) rotate(0) translate(4 1665)">
<polygon fill="white" stroke="none" points="-4,4 -4,-1665 3172,-1665 3172,4 -4,4"/>
<!-- 1892 -->
<g id="node1" class="node">
<title>1892</title>
<ellipse fill="none" stroke="#b8bf62" cx="2367.84" cy="-136.45" rx="158.75" ry="28.99"/>
<text text-anchor="middle" x="2367.84" y="-139.65" font-family="Times,serif" font-size="14.00" fill="gray">SPDXLicense</text>
<text text-anchor="middle" x="2367.84" y="-123.15" font-family="Times,serif" font-size="14.00" fill="gray">32d093b6cbc87ced6bf9c908c0b04c13</text>
</g>
<!-- 1893 -->
<g id="node2" class="node">
<title>1893</title>
<polygon fill="none" stroke="#b8bf62" points="2219.09,-512.18 2219.09,-527.1 2175.5,-537.64 2113.85,-537.64 2070.25,-527.1 2070.25,-512.18 2113.85,-501.64 2175.5,-501.64 2219.09,-512.18"/>
<polygon fill="none" stroke="#b8bf62" points="2223.09,-509.04 2223.09,-530.24 2175.97,-541.64 2113.37,-541.64 2066.25,-530.24 2066.25,-509.04 2113.37,-497.64 2175.97,-497.64 2223.09,-509.04"/>
<text text-anchor="middle" x="2144.67" y="-514.59" font-family="Times,serif" font-size="14.00">spdx:GPL&#45;1.0+</text>
</g>
<!-- 1892&#45;&gt;1893 -->
<g id="edge1" class="edge">
<title>1892&#45;&gt;1893</title>
<path fill="none" stroke="#b8bf62" d="M2359.19,-165.86C2327.84,-270.98 2314.69,-291.69 2168.28,-488"/>
<polygon fill="#b8bf62" stroke="#b8bf62" points="2165.51,-485.86 2162.34,-495.97 2171.12,-490.04 2165.51,-485.86"/>
</g>
<!-- 1894 -->
<g id="node3" class="node">
<title>1894</title>
<polygon fill="none" stroke="black" points="1997.88,-840.52 1997.88,-855.43 1966.94,-865.98 1923.19,-865.98 1892.25,-855.43 1892.25,-840.52 1923.19,-829.98 1966.94,-829.98 1997.88,-840.52"/>
<polygon fill="none" stroke="black" points="2001.88,-837.66 2001.88,-858.29 1967.6,-869.98 1922.53,-869.98 1888.25,-858.29 1888.25,-837.66 1922.53,-825.98 1967.6,-825.98 2001.88,-837.66"/>
<text text-anchor="middle" x="1945.06" y="-842.93" font-family="Times,serif" font-size="14.00">GPL&#45;1.0+</text>
</g>
<!-- 1894&#45;&gt;1893 -->
<g id="edge2" class="edge">
<title>1894&#45;&gt;1893</title>
<path fill="none" stroke="#b8bf62" stroke-width="2" d="M1965.73,-825.58C2104.45,-675.11 2117.79,-656.95 2138.27,-553.11"/>
<polygon fill="#b8bf62" stroke="#b8bf62" stroke-width="2" points="2139.94,-544.49 2142.45,-555.17 2139.95,-547.1 2138.53,-554.4 2138.04,-554.31 2137.55,-554.21 2138.96,-546.91 2133.62,-553.45 2139.94,-544.49"/>
</g>
<!-- 1909 -->
<g id="node7" class="node">
<title>1909</title>
<polygon fill="none" stroke="black" points="2262.73,-882.19 2262.73,-897.1 2216.22,-907.64 2150.44,-907.64 2103.93,-897.1 2103.93,-882.19 2150.44,-871.64 2216.22,-871.64 2262.73,-882.19"/>
<polygon fill="none" stroke="black" points="2266.73,-878.99 2266.73,-900.29 2216.67,-911.64 2149.99,-911.64 2099.93,-900.29 2099.93,-878.99 2149.99,-867.64 2216.67,-867.64 2266.73,-878.99"/>
<text text-anchor="middle" x="2183.33" y="-884.59" font-family="Times,serif" font-size="14.00">GPL&#45;1.0&#45;or&#45;later</text>
</g>
<!-- 1894&#45;&gt;1909 -->
<g id="edge3" class="edge">
<title>1894&#45;&gt;1909</title>
<path fill="none" stroke="#78ab63" stroke-width="2" d="M2002.33,-856.44C2053.88,-864.08 2083.27,-868.6 2106.11,-872.71"/>
<polygon fill="#78ab63" stroke="#78ab63" stroke-width="2" points="2114.46,-874.27 2103.81,-876.86 2111.85,-874.29 2104.54,-872.93 2104.63,-872.44 2104.72,-871.95 2112.03,-873.31 2105.45,-868.02 2114.46,-874.27"/>
</g>
<!-- 25912 -->
<g id="node24" class="node">
<title>25912</title>
<polygon fill="none" stroke="#e18745" points="2504.24,-870.77 2504.24,-885.68 2448.96,-896.23 2370.79,-896.23 2315.51,-885.68 2315.51,-870.77 2370.79,-860.23 2448.96,-860.23 2504.24,-870.77"/>
<polygon fill="none" stroke="#e18745" points="2508.24,-867.46 2508.24,-888.99 2449.34,-900.23 2370.41,-900.23 2311.51,-888.99 2311.51,-867.46 2370.41,-856.23 2449.34,-856.23 2508.24,-867.46"/>
<text text-anchor="middle" x="2409.87" y="-873.18" font-family="Times,serif" font-size="14.00">fossology:GPL&#45;1.0+</text>
</g>
<!-- 1894&#45;&gt;25912 -->
<g id="edge4" class="edge">
<title>1894&#45;&gt;25912</title>
<path fill="none" stroke="#e18745" stroke-width="2" d="M2001.96,-851.51C2175.86,-862.33 2240.75,-866.4 2300.2,-870.46"/>
<polygon fill="#e18745" stroke="#e18745" stroke-width="2" points="2308.83,-871.05 2298.54,-874.86 2306.23,-871.38 2298.82,-870.87 2298.85,-870.37 2298.88,-869.87 2306.3,-870.38 2299.16,-865.88 2308.83,-871.05"/>
</g>
<!-- 36889 -->
<g id="node29" class="node">
<title>36889</title>
<polygon fill="none" stroke="#379469" points="2431.94,-1058.28 2431.94,-1073.19 2372.45,-1083.73 2288.31,-1083.73 2228.81,-1073.19 2228.81,-1058.28 2288.31,-1047.73 2372.45,-1047.73 2431.94,-1058.28"/>
<polygon fill="none" stroke="#379469" points="2435.94,-1054.92 2435.94,-1076.54 2372.8,-1087.73 2287.96,-1087.73 2224.81,-1076.54 2224.81,-1054.92 2287.96,-1043.73 2372.8,-1043.73 2435.94,-1054.92"/>
<text text-anchor="middle" x="2330.38" y="-1060.68" font-family="Times,serif" font-size="14.00">cavil:GPL&#45;1.0&#45;or&#45;later</text>
</g>
<!-- 1894&#45;&gt;36889 -->
<g id="edge5" class="edge">
<title>1894&#45;&gt;36889</title>
<path fill="none" stroke="#379469" stroke-dasharray="5,2" d="M1982.49,-865.23C2193,-962.33 2223.82,-977.9 2295.19,-1036.42"/>
<polygon fill="#379469" stroke="#379469" points="2302.69,-1042.61 2292.12,-1039.72 2299.78,-1040.21 2294.98,-1036.25 2294.98,-1036.25 2294.98,-1036.25 2299.78,-1040.21 2297.84,-1032.78 2302.69,-1042.61"/>
</g>
<!-- 42817 -->
<g id="node32" class="node">
<title>42817</title>
<polygon fill="none" stroke="#00876c" points="1547.56,-877.57 1547.56,-892.49 1489.69,-903.03 1407.84,-903.03 1349.97,-892.49 1349.97,-877.57 1407.84,-867.03 1489.69,-867.03 1547.56,-877.57"/>
<polygon fill="none" stroke="#00876c" points="1551.56,-874.24 1551.56,-895.82 1490.05,-907.03 1407.48,-907.03 1345.97,-895.82 1345.97,-874.24 1407.48,-863.03 1490.05,-863.03 1551.56,-874.24"/>
<text text-anchor="middle" x="1448.77" y="-879.98" font-family="Times,serif" font-size="14.00">metaeffekt:GPL&#45;1.0+</text>
</g>
<!-- 1894&#45;&gt;42817 -->
<g id="edge6" class="edge">
<title>1894&#45;&gt;42817</title>
<path fill="none" stroke="#00876c" stroke-width="2" d="M1899.24,-862.39C1803.35,-891.76 1764.98,-895.07 1562.87,-888.82"/>
<polygon fill="#00876c" stroke="#00876c" stroke-width="2" points="1554.29,-888.55 1564.43,-884.37 1556.87,-888.13 1564.31,-888.36 1564.29,-888.86 1564.27,-889.36 1556.84,-889.13 1564.15,-893.36 1554.29,-888.55"/>
</g>
<!-- 50534 -->
<g id="node44" class="node">
<title>50534</title>
<polygon fill="none" stroke="#b8bf62" points="1798.96,-987.93 1798.96,-1002.84 1666.12,-1013.38 1478.27,-1013.38 1345.43,-1002.84 1345.43,-987.93 1478.27,-977.38 1666.12,-977.38 1798.96,-987.93"/>
<polygon fill="none" stroke="#b8bf62" points="1802.96,-984.23 1802.96,-1006.53 1666.28,-1017.38 1478.11,-1017.38 1341.43,-1006.53 1341.43,-984.23 1478.11,-973.38 1666.28,-973.38 1802.96,-984.23"/>
<text text-anchor="middle" x="1572.2" y="-990.33" font-family="Times,serif" font-size="14.00">foss&#45;license:GNU General Public License 1.0 or later</text>
</g>
<!-- 1894&#45;&gt;50534 -->
<g id="edge7" class="edge">
<title>1894&#45;&gt;50534</title>
<path fill="none" stroke="#b8bf62" stroke-width="2" d="M1922.02,-870.04C1851.79,-936.76 1824.65,-954.79 1714.49,-973.99"/>
<polygon fill="#b8bf62" stroke="#b8bf62" stroke-width="2" points="1705.97,-975.44 1715.07,-969.32 1708.41,-974.52 1715.74,-973.27 1715.83,-973.76 1715.91,-974.25 1708.58,-975.5 1716.59,-978.19 1705.97,-975.44"/>
</g>
<!-- 1895 -->
<g id="node4" class="node">
<title>1895</title>
<polygon fill="none" stroke="black" points="2377.86,-818.72 2377.86,-833.64 2271.31,-844.18 2120.63,-844.18 2014.08,-833.64 2014.08,-818.72 2120.63,-808.18 2271.31,-808.18 2377.86,-818.72"/>
<polygon fill="none" stroke="black" points="2381.86,-815.1 2381.86,-837.26 2271.5,-848.18 2120.43,-848.18 2010.08,-837.26 2010.08,-815.1 2120.43,-804.18 2271.5,-804.18 2381.86,-815.1"/>
<text text-anchor="middle" x="2195.97" y="-821.13" font-family="Times,serif" font-size="14.00">GNU General Public License v1.0 or later</text>
</g>
<!-- 1895&#45;&gt;1893 -->
<g id="edge8" class="edge">
<title>1895&#45;&gt;1893</title>
<path fill="none" stroke="#b8bf62" stroke-width="2" d="M2200.48,-803.89C2227.55,-669.47 2226.82,-652.64 2164.48,-551.49"/>
<polygon fill="#b8bf62" stroke="#b8bf62" stroke-width="2" points="2159.95,-544.16 2169.04,-550.3 2161.73,-546.08 2165.64,-552.4 2165.22,-552.67 2164.79,-552.93 2160.88,-546.61 2161.39,-555.04 2159.95,-544.16"/>
</g>
<!-- 1908 -->
<g id="node6" class="node">
<title>1908</title>
<polygon fill="none" stroke="black" points="2050.06,-546.92 2050.06,-561.84 1990.89,-572.38 1907.21,-572.38 1848.04,-561.84 1848.04,-546.92 1907.21,-536.38 1990.89,-536.38 2050.06,-546.92"/>
<polygon fill="none" stroke="black" points="2054.06,-543.57 2054.06,-565.19 1991.24,-576.38 1906.86,-576.38 1844.04,-565.19 1844.04,-543.57 1906.86,-532.38 1991.24,-532.38 2054.06,-543.57"/>
<polygon fill="none" stroke="black" points="2058.06,-540.22 2058.06,-568.54 1991.6,-580.38 1906.5,-580.38 1840.04,-568.54 1840.04,-540.22 1906.5,-528.38 1991.6,-528.38 2058.06,-540.22"/>
<text text-anchor="middle" x="1949.05" y="-549.33" font-family="Times,serif" font-size="14.00">spdx:GPL&#45;1.0&#45;or&#45;later</text>
</g>
<!-- 1895&#45;&gt;1908 -->
<g id="edge9" class="edge">
<title>1895&#45;&gt;1908</title>
<path fill="none" stroke="#b8bf62" stroke-width="2" d="M2188.43,-803.98C2147.5,-684.02 2135.81,-666.88 2002.24,-586.21"/>
<polygon fill="#b8bf62" stroke="#b8bf62" stroke-width="2" points="1994.93,-581.8 2005.82,-583.11 1997.38,-582.69 2003.75,-586.53 2003.49,-586.96 2003.24,-587.39 1996.87,-583.55 2001.17,-590.82 1994.93,-581.8"/>
</g>
<!-- 6438 -->
<g id="node9" class="node">
<title>6438</title>
<polygon fill="none" stroke="#e09d4b" points="2594.84,-610.26 2594.84,-625.17 2530.48,-635.72 2439.46,-635.72 2375.1,-625.17 2375.1,-610.26 2439.46,-599.72 2530.48,-599.72 2594.84,-610.26"/>
<polygon fill="none" stroke="#e09d4b" points="2598.84,-606.86 2598.84,-628.57 2530.81,-639.72 2439.13,-639.72 2371.1,-628.57 2371.1,-606.86 2439.13,-595.72 2530.81,-595.72 2598.84,-606.86"/>
<text text-anchor="middle" x="2484.97" y="-612.67" font-family="Times,serif" font-size="14.00">Fedora:GPL&#45;1.0&#45;or&#45;later</text>
</g>
<!-- 1895&#45;&gt;6438 -->
<g id="edge10" class="edge">
<title>1895&#45;&gt;6438</title>
<path fill="none" stroke="#e09d4b" stroke-dasharray="5,2" d="M2238.24,-803.68C2388.42,-723.6 2411.97,-708.36 2460.45,-648.62"/>
<polygon fill="#e09d4b" stroke="#e09d4b" points="2466.71,-640.84 2463.95,-651.45 2464.34,-643.78 2460.44,-648.63 2460.44,-648.63 2460.44,-648.63 2464.34,-643.78 2456.94,-645.81 2466.71,-640.84"/>
</g>
<!-- 9346 -->
<g id="node14" class="node">
<title>9346</title>
<polygon fill="none" stroke="#00876c" points="2639.69,-1208.42 2639.69,-1223.33 2570.78,-1233.88 2473.34,-1233.88 2404.43,-1223.33 2404.43,-1208.42 2473.34,-1197.88 2570.78,-1197.88 2639.69,-1208.42"/>
<polygon fill="none" stroke="#00876c" points="2643.69,-1204.99 2643.69,-1226.77 2571.09,-1237.88 2473.03,-1237.88 2400.43,-1226.77 2400.43,-1204.99 2473.03,-1193.88 2571.09,-1193.88 2643.69,-1204.99"/>
<text text-anchor="middle" x="2522.06" y="-1210.83" font-family="Times,serif" font-size="14.00">BlueOak:GPL&#45;1.0&#45;or&#45;later</text>
</g>
<!-- 1895&#45;&gt;9346 -->
<g id="edge11" class="edge">
<title>1895&#45;&gt;9346</title>
<path fill="none" stroke="#00876c" stroke-width="2" d="M2222.61,-848.49C2441.29,-1031.68 2458.51,-1049.53 2509.78,-1183.47"/>
<polygon fill="#00876c" stroke="#00876c" stroke-width="2" points="2512.82,-1191.47 2505.06,-1183.72 2511.44,-1189.25 2508.8,-1182.3 2509.26,-1182.12 2509.73,-1181.94 2512.38,-1188.89 2513.47,-1180.52 2512.82,-1191.47"/>
</g>
<!-- 1895&#45;&gt;25912 -->
<g id="edge12" class="edge">
<title>1895&#45;&gt;25912</title>
<path fill="none" stroke="#e18745" stroke-width="2" d="M2301.15,-845.67C2319.71,-849.36 2333.4,-852.41 2345.26,-855.58"/>
<polygon fill="#e18745" stroke="#e18745" stroke-width="2" points="2353.39,-857.87 2342.54,-859.48 2350.79,-857.65 2343.63,-855.63 2343.77,-855.15 2343.9,-854.67 2351.06,-856.69 2344.99,-850.82 2353.39,-857.87"/>
</g>
<!-- 1895&#45;&gt;50534 -->
<g id="edge13" class="edge">
<title>1895&#45;&gt;50534</title>
<path fill="none" stroke="#b8bf62" stroke-width="2" d="M2160.52,-848.48C2030.44,-929.76 1990.86,-944.49 1734.16,-976.12"/>
<polygon fill="#b8bf62" stroke="#b8bf62" stroke-width="2" points="1725.78,-977.15 1735.16,-971.46 1728.26,-976.34 1735.64,-975.43 1735.71,-975.93 1735.77,-976.43 1728.38,-977.33 1736.25,-980.4 1725.78,-977.15"/>
</g>
<!-- 1907 -->
<g id="node5" class="node">
<title>1907</title>
<ellipse fill="none" stroke="#b8bf62" cx="1951.42" cy="-136.5" rx="157.15" ry="28.99"/>
<text text-anchor="middle" x="1951.42" y="-139.7" font-family="Times,serif" font-size="14.00" fill="gray">SPDXLicense</text>
<text text-anchor="middle" x="1951.42" y="-123.2" font-family="Times,serif" font-size="14.00" fill="gray">09acee21c3dc42dfa67330d97c4baed4</text>
</g>
<!-- 1907&#45;&gt;1908 -->
<g id="edge14" class="edge">
<title>1907&#45;&gt;1908</title>
<path fill="none" stroke="#b8bf62" d="M1961.43,-165.63C1998.31,-274.3 1997.07,-296.74 1956.1,-516.64"/>
<polygon fill="#b8bf62" stroke="#b8bf62" points="1952.66,-515.99 1954.27,-526.46 1959.54,-517.27 1952.66,-515.99"/>
</g>
<!-- 1908&#45;&gt;6438 -->
<g id="edge15" class="edge">
<title>1908&#45;&gt;6438</title>
<path fill="none" stroke="#e09d4b" stroke-width="2" d="M2058.34,-552.34C2278.72,-548.7 2324.97,-553.06 2423.25,-592.13"/>
<polygon fill="#e09d4b" stroke="#e09d4b" stroke-width="2" points="2431.31,-595.37 2420.35,-595.81 2428.74,-594.88 2421.84,-592.1 2422.03,-591.64 2422.21,-591.17 2429.11,-593.95 2423.71,-587.46 2431.31,-595.37"/>
</g>
<!-- 9574 -->
<g id="node16" class="node">
<title>9574</title>
<polygon fill="none" stroke="#58a066" points="2485.75,-441.74 2485.75,-456.65 2425.29,-467.2 2339.77,-467.2 2279.3,-456.65 2279.3,-441.74 2339.77,-431.2 2425.29,-431.2 2485.75,-441.74"/>
<polygon fill="none" stroke="#58a066" points="2489.75,-438.38 2489.75,-460.02 2425.63,-471.2 2339.43,-471.2 2275.3,-460.02 2275.3,-438.38 2339.43,-427.2 2425.63,-427.2 2489.75,-438.38"/>
<text text-anchor="middle" x="2382.53" y="-444.15" font-family="Times,serif" font-size="14.00">osadl:GPL&#45;1.0&#45;or&#45;later</text>
</g>
<!-- 1908&#45;&gt;9574 -->
<g id="edge16" class="edge">
<title>1908&#45;&gt;9574</title>
<path fill="none" stroke="#58a066" stroke-width="2" d="M2016.16,-532.41C2153.17,-487.65 2211.73,-469.52 2264.25,-460.45"/>
<polygon fill="#58a066" stroke="#58a066" stroke-width="2" points="2272.64,-459.09 2263.49,-465.14 2270.19,-460 2262.85,-461.19 2262.76,-460.69 2262.68,-460.2 2270.03,-459.01 2262.04,-456.25 2272.64,-459.09"/>
</g>
<!-- 1908&#45;&gt;42817 -->
<g id="edge17" class="edge">
<title>1908&#45;&gt;42817</title>
<path fill="none" stroke="#00876c" stroke-width="2" d="M1899.35,-579.4C1786.33,-636.88 1750.65,-662.07 1487.54,-856.39"/>
<polygon fill="#00876c" stroke="#00876c" stroke-width="2" points="1480.85,-861.33 1486.22,-851.77 1482.61,-859.41 1488.6,-854.99 1488.89,-855.39 1489.19,-855.79 1483.21,-860.21 1491.57,-859.01 1480.85,-861.33"/>
</g>
<!-- 1909&#45;&gt;1908 -->
<g id="edge18" class="edge">
<title>1909&#45;&gt;1908</title>
<path fill="none" stroke="black" stroke-width="2" d="M2178.81,-867.22C2148.39,-717.32 2139.21,-699.85 1992.3,-587.33"/>
<polygon fill="black" stroke="black" stroke-width="2" points="1985.76,-582.32 1996.44,-584.82 1988.1,-583.48 1994.01,-588 1993.7,-588.4 1993.4,-588.8 1987.49,-584.28 1990.97,-591.97 1985.76,-582.32"/>
</g>
<!-- 1909&#45;&gt;6438 -->
<g id="edge19" class="edge">
<title>1909&#45;&gt;6438</title>
<path fill="none" stroke="#e09d4b" stroke-width="2" d="M2218.69,-867.61C2396.2,-756.86 2416.23,-740.88 2467.32,-649.7"/>
<polygon fill="#e09d4b" stroke="#e09d4b" stroke-width="2" points="2471.51,-642.16 2470.58,-653.09 2470.7,-644.64 2467.09,-651.14 2466.65,-650.9 2466.21,-650.66 2469.83,-644.16 2462.72,-648.71 2471.51,-642.16"/>
</g>
<!-- 1909&#45;&gt;9346 -->
<g id="edge20" class="edge">
<title>1909&#45;&gt;9346</title>
<path fill="none" stroke="#00876c" stroke-width="2" d="M2214,-912C2423.22,-1064.56 2444.03,-1082.34 2503.71,-1184.22"/>
<polygon fill="#00876c" stroke="#00876c" stroke-width="2" points="2508,-1191.58 2499.08,-1185.2 2506.28,-1189.61 2502.53,-1183.19 2502.96,-1182.94 2503.4,-1182.68 2507.14,-1189.11 2506.85,-1180.67 2508,-1191.58"/>
</g>
<!-- 1909&#45;&gt;9574 -->
<g id="edge21" class="edge">
<title>1909&#45;&gt;9574</title>
<path fill="none" stroke="#58a066" stroke-width="2" d="M2201.2,-867.32C2366.39,-660.95 2376.63,-642.95 2381.59,-482.46"/>
<polygon fill="#58a066" stroke="#58a066" stroke-width="2" points="2381.84,-474.11 2386.04,-484.24 2382.26,-476.69 2382.04,-484.12 2381.54,-484.11 2381.04,-484.09 2381.26,-476.66 2377.04,-483.98 2381.84,-474.11"/>
</g>
<!-- 1909&#45;&gt;36889 -->
<g id="edge22" class="edge">
<title>1909&#45;&gt;36889</title>
<path fill="none" stroke="#379469" stroke-width="2" d="M2210.44,-912.09C2285.65,-974.56 2300.47,-989.67 2318.01,-1033"/>
<polygon fill="#379469" stroke="#379469" stroke-width="2" points="2321.18,-1041.07 2313.34,-1033.41 2319.78,-1038.87 2317.06,-1031.95 2317.53,-1031.76 2318,-1031.58 2320.71,-1038.51 2321.72,-1030.12 2321.18,-1041.07"/>
</g>
<!-- 1909&#45;&gt;50534 -->
<g id="edge23" class="edge">
<title>1909&#45;&gt;50534</title>
<path fill="none" stroke="#b8bf62" stroke-width="2" d="M2142.54,-910.42C2031.24,-966.55 1985.55,-981.74 1814.59,-989.03"/>
<polygon fill="#b8bf62" stroke="#b8bf62" stroke-width="2" points="1805.85,-989.39 1815.65,-984.49 1808.39,-988.79 1815.82,-988.48 1815.84,-988.98 1815.86,-989.48 1808.43,-989.79 1816.02,-993.48 1805.85,-989.39"/>
</g>
<!-- 6437 -->
<g id="node8" class="node">
<title>6437</title>
<ellipse fill="none" stroke="#e09d4b" cx="2896.36" cy="-385.48" rx="151.85" ry="28.99"/>
<text text-anchor="middle" x="2896.36" y="-388.68" font-family="Times,serif" font-size="14.00" fill="gray">FedoraEntry</text>
<text text-anchor="middle" x="2896.36" y="-372.18" font-family="Times,serif" font-size="14.00" fill="gray">15c7a8fe50a4ab20083e3f49f4af63ef</text>
</g>
<!-- 6437&#45;&gt;6438 -->
<g id="edge24" class="edge">
<title>6437&#45;&gt;6438</title>
<path fill="none" stroke="#e09d4b" d="M2859.41,-413.96C2783.38,-471.87 2751.04,-489.12 2541.39,-590.47"/>
<polygon fill="#e09d4b" stroke="#e09d4b" points="2540.12,-587.19 2532.64,-594.7 2543.16,-593.5 2540.12,-587.19"/>
</g>
<!-- 6439 -->
<g id="node10" class="node">
<title>6439</title>
<polygon fill="none" stroke="#e09d4b" points="3168.37,-528.6 3168.37,-543.51 3062.15,-554.06 2911.93,-554.06 2805.7,-543.51 2805.7,-528.6 2911.93,-518.06 3062.15,-518.06 3168.37,-528.6"/>
<text text-anchor="middle" x="2987.04" y="-531.01" font-family="Times,serif" font-size="14.00">GNU General Public License (no version)</text>
</g>
<!-- 6439&#45;&gt;6438 -->
<g id="edge25" class="edge">
<title>6439&#45;&gt;6438</title>
<path fill="none" stroke="#e09d4b" stroke-dasharray="5,2" d="M2873.95,-550.77C2812.13,-559.57 2748.53,-570.61 2583.31,-600.13"/>
<polygon fill="#e09d4b" stroke="#e09d4b" points="2573.48,-601.89 2582.53,-595.7 2577.2,-601.22 2583.32,-600.13 2583.32,-600.13 2583.32,-600.13 2577.2,-601.22 2584.11,-604.56 2573.48,-601.89"/>
</g>
<!-- 6440 -->
<g id="node11" class="node">
<title>6440</title>
<polygon fill="none" stroke="black" points="2638.74,-881.54 2638.74,-896.45 2617.21,-907 2586.77,-907 2565.25,-896.45 2565.25,-881.54 2586.77,-871 2617.21,-871 2638.74,-881.54"/>
<text text-anchor="middle" x="2601.99" y="-883.95" font-family="Times,serif" font-size="14.00">GPL+</text>
</g>
<!-- 6440&#45;&gt;6438 -->
<g id="edge26" class="edge">
<title>6440&#45;&gt;6438</title>
<path fill="none" stroke="#e09d4b" stroke-dasharray="5,2" d="M2602.03,-870.53C2602.12,-759.23 2597.87,-744.56 2512.44,-648.43"/>
<polygon fill="#e09d4b" stroke="#e09d4b" points="2505.85,-641.03 2515.86,-645.5 2508.36,-643.86 2512.5,-648.5 2512.5,-648.5 2512.5,-648.5 2508.36,-643.86 2509.14,-651.49 2505.85,-641.03"/>
</g>
<!-- 6440&#45;&gt;36889 -->
<g id="edge27" class="edge">
<title>6440&#45;&gt;36889</title>
<path fill="none" stroke="#379469" stroke-dasharray="5,2" d="M2588.55,-907.47C2536.72,-978.14 2520.73,-990.74 2393.14,-1041.2"/>
<polygon fill="#379469" stroke="#379469" points="2384.07,-1044.77 2391.72,-1036.92 2387.59,-1043.38 2393.37,-1041.1 2393.37,-1041.1 2393.37,-1041.1 2387.59,-1043.38 2395.02,-1045.29 2384.07,-1044.77"/>
</g>
<!-- 9343 -->
<g id="node12" class="node">
<title>9343</title>
<polygon fill="none" stroke="black" points="3062.97,-1453.76 3062.97,-1468.68 2986.93,-1479.22 2879.39,-1479.22 2803.34,-1468.68 2803.34,-1453.76 2879.39,-1443.22 2986.93,-1443.22 3062.97,-1453.76"/>
<text text-anchor="middle" x="2933.16" y="-1456.17" font-family="Times,serif" font-size="14.00">GNU General Public License</text>
</g>
<!-- 9343&#45;&gt;9346 -->
<g id="edge28" class="edge">
<title>9343&#45;&gt;9346</title>
<path fill="none" stroke="#00876c" stroke-dasharray="5,2" d="M2907.16,-1442.79C2819.49,-1380.8 2795.07,-1366.44 2572.44,-1243.66"/>
<polygon fill="#00876c" stroke="#00876c" points="2563.79,-1238.89 2574.72,-1239.77 2567.11,-1240.71 2572.55,-1243.72 2572.55,-1243.72 2572.55,-1243.72 2567.11,-1240.71 2570.38,-1247.66 2563.79,-1238.89"/>
</g>
<!-- 9345 -->
<g id="node13" class="node">
<title>9345</title>
<ellipse fill="none" stroke="#00876c" cx="2813.98" cy="-1622.82" rx="157.15" ry="28.99"/>
<text text-anchor="middle" x="2813.98" y="-1626.02" font-family="Times,serif" font-size="14.00" fill="gray">BlueOakCouncil</text>
<text text-anchor="middle" x="2813.98" y="-1609.52" font-family="Times,serif" font-size="14.00" fill="gray">67de331b91850ccfa901d73fd1df0901</text>
</g>
<!-- 9345&#45;&gt;9346 -->
<g id="edge29" class="edge">
<title>9345&#45;&gt;9346</title>
<path fill="none" stroke="#00876c" d="M2803.12,-1593.75C2757.2,-1471.86 2741.89,-1452.12 2550.61,-1246.55"/>
<polygon fill="#00876c" stroke="#00876c" points="2553.26,-1244.25 2543.88,-1239.32 2548.13,-1249.02 2553.26,-1244.25"/>
</g>
<!-- 9573 -->
<g id="node15" class="node">
<title>9573</title>
<ellipse fill="none" stroke="#58a066" cx="2754.74" cy="-143.7" rx="159.28" ry="28.99"/>
<text text-anchor="middle" x="2754.74" y="-146.9" font-family="Times,serif" font-size="14.00" fill="gray">OSADLRule</text>
<text text-anchor="middle" x="2754.74" y="-130.4" font-family="Times,serif" font-size="14.00" fill="gray">14171b9ee57739242cd87347f76db73f</text>
</g>
<!-- 9573&#45;&gt;9574 -->
<g id="edge30" class="edge">
<title>9573&#45;&gt;9574</title>
<path fill="none" stroke="#58a066" d="M2727.32,-172.49C2655.02,-247.91 2629.5,-267.91 2422.17,-420.11"/>
<polygon fill="#58a066" stroke="#58a066" points="2420.33,-417.12 2414.34,-425.85 2424.48,-422.76 2420.33,-417.12"/>
</g>
<!-- 9868 -->
<g id="node17" class="node">
<title>9868</title>
<ellipse fill="none" stroke="#58a066" cx="2622.15" cy="-29.46" rx="159.28" ry="28.99"/>
<text text-anchor="middle" x="2622.15" y="-32.66" font-family="Times,serif" font-size="14.00" fill="gray">OSADLMatrix</text>
<text text-anchor="middle" x="2622.15" y="-16.16" font-family="Times,serif" font-size="14.00" fill="gray">3b6e5ce33b7f6d6225d19bcb52d4eb7e</text>
</g>
<!-- 9868&#45;&gt;9574 -->
<g id="edge31" class="edge">
<title>9868&#45;&gt;9574</title>
<path fill="none" stroke="#58a066" d="M2614.92,-58.89C2584.17,-182.41 2571.42,-202.75 2406.57,-417.85"/>
<polygon fill="#58a066" stroke="#58a066" points="2403.85,-415.64 2400.54,-425.71 2409.4,-419.9 2403.85,-415.64"/>
</g>
<!-- 16277 -->
<g id="node18" class="node">
<title>16277</title>
<ellipse fill="none" stroke="#dac767" cx="788.16" cy="-241.36" rx="156.62" ry="28.99"/>
<text text-anchor="middle" x="788.16" y="-244.56" font-family="Times,serif" font-size="14.00" fill="gray">ScancodeData</text>
<text text-anchor="middle" x="788.16" y="-228.06" font-family="Times,serif" font-size="14.00" fill="gray">e9465ac3e8bc270561217c08afadfb07</text>
</g>
<!-- 16278 -->
<g id="node19" class="node">
<title>16278</title>
<polygon fill="none" stroke="black" points="1289.36,-507.1 1289.36,-522.01 1230.84,-532.55 1148.08,-532.55 1089.56,-522.01 1089.56,-507.1 1148.08,-496.55 1230.84,-496.55 1289.36,-507.1"/>
<polygon fill="none" stroke="black" points="1293.36,-503.75 1293.36,-525.35 1231.2,-536.55 1147.73,-536.55 1085.56,-525.35 1085.56,-503.75 1147.73,-492.55 1231.2,-492.55 1293.36,-503.75"/>
<text text-anchor="middle" x="1189.46" y="-509.5" font-family="Times,serif" font-size="14.00">scancode:gpl&#45;1.0&#45;plus</text>
</g>
<!-- 16277&#45;&gt;16278 -->
<g id="edge32" class="edge">
<title>16277&#45;&gt;16278</title>
<path fill="none" stroke="#dac767" d="M832.86,-269.62C911.7,-319.65 945.41,-343.03 1148.54,-485.79"/>
<polygon fill="#dac767" stroke="#dac767" points="1146.28,-488.48 1156.47,-491.36 1150.3,-482.75 1146.28,-488.48"/>
</g>
<!-- 16278&#45;&gt;42817 -->
<g id="edge33" class="edge">
<title>16278&#45;&gt;42817</title>
<path fill="none" stroke="#00876c" stroke-dasharray="5,2" d="M1196.91,-536.75C1236.54,-654.26 1248.19,-670.45 1420.36,-854.66"/>
<polygon fill="#00876c" stroke="#00876c" points="1427.04,-861.81 1416.93,-857.58 1424.46,-859.05 1420.21,-854.5 1420.21,-854.5 1420.21,-854.5 1424.46,-859.05 1423.5,-851.43 1427.04,-861.81"/>
</g>
<!-- 16278&#45;&gt;50534 -->
<g id="edge34" class="edge">
<title>16278&#45;&gt;50534</title>
<path fill="none" stroke="#b8bf62" stroke-width="2" d="M1198.06,-536.83C1263.55,-706.01 1276.66,-722.18 1540.37,-965.98"/>
<polygon fill="#b8bf62" stroke="#b8bf62" stroke-width="2" points="1546.46,-971.6 1536.06,-968.12 1544.24,-970.23 1538.78,-965.18 1539.12,-964.81 1539.45,-964.45 1544.92,-969.49 1542.17,-961.51 1546.46,-971.6"/>
</g>
<!-- 16279 -->
<g id="node20" class="node">
<title>16279</title>
<polygon fill="none" stroke="black" points="1078.11,-192 1078.11,-206.92 1042.63,-217.46 992.45,-217.46 956.97,-206.92 956.97,-192 992.45,-181.46 1042.63,-181.46 1078.11,-192"/>
<polygon fill="none" stroke="black" points="1082.11,-189.02 1082.11,-209.9 1043.21,-221.46 991.87,-221.46 952.97,-209.9 952.97,-189.02 991.87,-177.46 1043.21,-177.46 1082.11,-189.02"/>
<text text-anchor="middle" x="1017.54" y="-194.41" font-family="Times,serif" font-size="14.00">gpl&#45;1.0&#45;plus</text>
</g>
<!-- 16279&#45;&gt;16278 -->
<g id="edge35" class="edge">
<title>16279&#45;&gt;16278</title>
<path fill="none" stroke="black" stroke-width="2" d="M1024.88,-221.95C1051.54,-302.91 1061.53,-320.38 1168.93,-483.4"/>
<polygon fill="black" stroke="black" stroke-width="2" points="1173.45,-490.26 1164.19,-484.38 1171.62,-488.39 1167.53,-482.18 1167.95,-481.91 1168.36,-481.63 1172.46,-487.84 1171.7,-479.43 1173.45,-490.26"/>
</g>
<!-- 16280 -->
<g id="node21" class="node">
<title>16280</title>
<polygon fill="none" stroke="black" points="1572.22,-495.28 1572.22,-510.2 1527.01,-520.74 1463.06,-520.74 1417.85,-510.2 1417.85,-495.28 1463.06,-484.74 1527.01,-484.74 1572.22,-495.28"/>
<polygon fill="none" stroke="black" points="1576.22,-492.11 1576.22,-513.37 1527.47,-524.74 1462.6,-524.74 1413.85,-513.37 1413.85,-492.11 1462.6,-480.74 1527.47,-480.74 1576.22,-492.11"/>
<text text-anchor="middle" x="1495.04" y="-497.69" font-family="Times,serif" font-size="14.00">GPL 1.0 or later</text>
</g>
<!-- 16280&#45;&gt;16278 -->
<g id="edge36" class="edge">
<title>16280&#45;&gt;16278</title>
<path fill="none" stroke="#dac767" stroke-width="2" d="M1429.26,-488C1331.71,-466.82 1301.84,-465.85 1246.32,-488.68"/>
<polygon fill="#dac767" stroke="#dac767" stroke-width="2" points="1238.26,-492.1 1245.71,-484.05 1240.43,-490.64 1247.27,-487.73 1247.47,-488.19 1247.66,-488.65 1240.82,-491.56 1249.23,-492.34 1238.26,-492.1"/>
</g>
<!-- 16280&#45;&gt;50534 -->
<g id="edge37" class="edge">
<title>16280&#45;&gt;50534</title>
<path fill="none" stroke="#b8bf62" stroke-width="2" d="M1493.15,-524.87C1481.78,-659.99 1485.23,-678.85 1563.19,-962.62"/>
<polygon fill="#b8bf62" stroke="#b8bf62" stroke-width="2" points="1565.47,-970.91 1558.48,-962.46 1564.31,-968.57 1562.34,-961.4 1562.82,-961.27 1563.3,-961.14 1565.27,-968.31 1567.16,-960.08 1565.47,-970.91"/>
</g>
<!-- 16281 -->
<g id="node22" class="node">
<title>16281</title>
<polygon fill="none" stroke="black" points="1289.53,-559.14 1289.53,-574.05 1185.9,-584.6 1039.35,-584.6 935.72,-574.05 935.72,-559.14 1039.35,-548.6 1185.9,-548.6 1289.53,-559.14"/>
<polygon fill="none" stroke="black" points="1293.53,-555.53 1293.53,-577.67 1186.1,-588.6 1039.14,-588.6 931.72,-577.67 931.72,-555.53 1039.14,-544.6 1186.1,-544.6 1293.53,-555.53"/>
<text text-anchor="middle" x="1112.62" y="-561.55" font-family="Times,serif" font-size="14.00">GNU General Public License 1.0 or later</text>
</g>
<!-- 16281&#45;&gt;16278 -->
<g id="edge38" class="edge">
<title>16281&#45;&gt;16278</title>
<path fill="none" stroke="#dac767" stroke-width="2" d="M1127.52,-544.35C1127.99,-543.76 1128.45,-543.18 1128.91,-542.62"/>
<polygon fill="#dac767" stroke="#dac767" stroke-width="2" points="1134.93,-536.62 1131.03,-546.87 1133.47,-538.78 1128.2,-544.03 1127.85,-543.68 1127.5,-543.33 1132.76,-538.07 1124.67,-540.49 1134.93,-536.62"/>
</g>
<!-- 16281&#45;&gt;50534 -->
<g id="edge39" class="edge">
<title>16281&#45;&gt;50534</title>
<path fill="none" stroke="#b8bf62" stroke-width="2" d="M1125.24,-588.95C1215.77,-748.95 1232.39,-764.48 1530.18,-966.85"/>
<polygon fill="#b8bf62" stroke="#b8bf62" stroke-width="2" points="1537.06,-971.52 1526.26,-969.62 1534.66,-970.5 1528.51,-966.32 1528.79,-965.9 1529.07,-965.49 1535.22,-969.67 1531.32,-962.18 1537.06,-971.52"/>
</g>
<!-- 25911 -->
<g id="node23" class="node">
<title>25911</title>
<ellipse fill="none" stroke="#e18745" cx="2869.42" cy="-908.48" rx="153.97" ry="28.99"/>
<text text-anchor="middle" x="2869.42" y="-911.68" font-family="Times,serif" font-size="14.00" fill="gray">Fossology</text>
<text text-anchor="middle" x="2869.42" y="-895.18" font-family="Times,serif" font-size="14.00" fill="gray">f8774ec06e9ec21d0c3c5feef616c911</text>
</g>
<!-- 25911&#45;&gt;25912 -->
<g id="edge40" class="edge">
<title>25911&#45;&gt;25912</title>
<path fill="none" stroke="#e18745" d="M2724.2,-898.49C2679.48,-895.52 2622.53,-891.85 2520.05,-885.28"/>
<polygon fill="#e18745" stroke="#e18745" points="2520.38,-881.8 2510.18,-884.65 2519.93,-888.78 2520.38,-881.8"/>
</g>
<!-- 27164 -->
<g id="node25" class="node">
<title>27164</title>
<polygon fill="none" stroke="black" points="1500.22,-1159.2 1500.22,-1174.11 1482.26,-1184.65 1456.87,-1184.65 1438.91,-1174.11 1438.91,-1159.2 1456.87,-1148.65 1482.26,-1148.65 1500.22,-1159.2"/>
<text text-anchor="middle" x="1469.56" y="-1161.6" font-family="Times,serif" font-size="14.00">GPL</text>
</g>
<!-- 27164&#45;&gt;42817 -->
<g id="edge41" class="edge">
<title>27164&#45;&gt;42817</title>
<path fill="none" stroke="#00876c" stroke-dasharray="5,2" d="M1461.55,-1148.27C1431.05,-1077.6 1430.14,-1062.13 1445.25,-918.24"/>
<polygon fill="#00876c" stroke="#00876c" points="1446.29,-908.41 1449.71,-918.83 1445.89,-912.17 1445.24,-918.35 1445.24,-918.35 1445.24,-918.35 1445.89,-912.17 1440.76,-917.88 1446.29,-908.41"/>
</g>
<!-- 28714 -->
<g id="node26" class="node">
<title>28714</title>
<ellipse fill="none" stroke="#e06f45" cx="1627.26" cy="-156.01" rx="158.75" ry="28.99"/>
<text text-anchor="middle" x="1627.26" y="-159.21" font-family="Times,serif" font-size="14.00" fill="gray">OrtLicenseCategorization</text>
<text text-anchor="middle" x="1627.26" y="-142.71" font-family="Times,serif" font-size="14.00" fill="gray">8b8f4d02ac25833491d3e540fc5d20d7</text>
</g>
<!-- 28714&#45;&gt;1908 -->
<g id="edge42" class="edge">
<title>28714&#45;&gt;1908</title>
<path fill="none" stroke="#e06f45" d="M1679.81,-183.64C1822.44,-259.9 1838.77,-286.58 1933.92,-517.57"/>
<polygon fill="#e06f45" stroke="#e06f45" points="1930.6,-518.7 1937.64,-526.61 1937.07,-516.03 1930.6,-518.7"/>
</g>
<!-- 35461 -->
<g id="node27" class="node">
<title>35461</title>
<ellipse fill="none" stroke="#e09d4b" cx="2077.51" cy="-70.41" rx="157.15" ry="28.99"/>
<text text-anchor="middle" x="2077.51" y="-73.61" font-family="Times,serif" font-size="14.00" fill="gray">OrtLicenseCategorization</text>
<text text-anchor="middle" x="2077.51" y="-57.11" font-family="Times,serif" font-size="14.00" fill="gray">37c6696e3d330bf94d5381cfda085f23</text>
</g>
<!-- 35461&#45;&gt;1908 -->
<g id="edge43" class="edge">
<title>35461&#45;&gt;1908</title>
<path fill="none" stroke="#e09d4b" d="M2077.42,-99.51C2076.7,-230.69 2069.79,-253.42 1963.79,-517.66"/>
<polygon fill="#e09d4b" stroke="#e09d4b" points="1960.69,-515.98 1960.22,-526.57 1967.19,-518.59 1960.69,-515.98"/>
</g>
<!-- 36888 -->
<g id="node28" class="node">
<title>36888</title>
<ellipse fill="none" stroke="#379469" cx="2810.68" cy="-1242.9" rx="158.75" ry="28.99"/>
<text text-anchor="middle" x="2810.68" y="-1246.1" font-family="Times,serif" font-size="14.00" fill="gray">CavilLicenseChange</text>
<text text-anchor="middle" x="2810.68" y="-1229.6" font-family="Times,serif" font-size="14.00" fill="gray">f08f7239e30c61812359e22be778d454</text>
</g>
<!-- 36888&#45;&gt;36889 -->
<g id="edge44" class="edge">
<title>36888&#45;&gt;36889</title>
<path fill="none" stroke="#379469" d="M2743.16,-1216.21C2663.85,-1185.1 2614.61,-1167.27 2397.08,-1089.56"/>
<polygon fill="#379469" stroke="#379469" points="2398.27,-1086.27 2387.68,-1086.2 2395.92,-1092.86 2398.27,-1086.27"/>
</g>
<!-- 36890 -->
<g id="node30" class="node">
<title>36890</title>
<polygon fill="none" stroke="black" points="2065.81,-1226.01 2065.81,-1240.92 2038.44,-1251.46 1999.74,-1251.46 1972.37,-1240.92 1972.37,-1226.01 1999.74,-1215.46 2038.44,-1215.46 2065.81,-1226.01"/>
<polygon fill="none" stroke="black" points="2069.81,-1223.26 2069.81,-1243.67 2039.18,-1255.46 1998.99,-1255.46 1968.37,-1243.67 1968.37,-1223.26 1998.99,-1211.46 2039.18,-1211.46 2069.81,-1223.26"/>
<text text-anchor="middle" x="2019.09" y="-1228.41" font-family="Times,serif" font-size="14.00">GPLv1+</text>
</g>
<!-- 36890&#45;&gt;36889 -->
<g id="edge45" class="edge">
<title>36890&#45;&gt;36889</title>
<path fill="none" stroke="#379469" stroke-dasharray="5,2" d="M2067.94,-1222.15C2219.76,-1186.61 2241.27,-1175.87 2305.67,-1096.6"/>
<polygon fill="#379469" stroke="#379469" points="2311.7,-1089.13 2308.92,-1099.74 2309.33,-1092.07 2305.42,-1096.91 2305.42,-1096.91 2305.42,-1096.91 2309.33,-1092.07 2301.92,-1094.08 2311.7,-1089.13"/>
</g>
<!-- 36890&#45;&gt;50534 -->
<g id="edge46" class="edge">
<title>36890&#45;&gt;50534</title>
<path fill="none" stroke="#b8bf62" stroke-width="2" d="M1970.5,-1222C1859.37,-1194.81 1828.27,-1175.77 1612.95,-1024.11"/>
<polygon fill="#b8bf62" stroke="#b8bf62" stroke-width="2" points="1605.88,-1019.13 1616.64,-1021.21 1608.26,-1020.19 1614.34,-1024.48 1614.05,-1024.89 1613.76,-1025.29 1607.68,-1021.01 1611.46,-1028.56 1605.88,-1019.13"/>
</g>
<!-- 42816 -->
<g id="node31" class="node">
<title>42816</title>
<ellipse fill="none" stroke="#00876c" cx="983.11" cy="-1067.92" rx="153.97" ry="28.99"/>
<text text-anchor="middle" x="983.11" y="-1071.12" font-family="Times,serif" font-size="14.00" fill="gray">MetaeffektLicense</text>
<text text-anchor="middle" x="983.11" y="-1054.62" font-family="Times,serif" font-size="14.00" fill="gray">6c5e50caea3fb5e5b3fe6a2f761b17dc</text>
</g>
<!-- 42816&#45;&gt;42817 -->
<g id="edge47" class="edge">
<title>42816&#45;&gt;42817</title>
<path fill="none" stroke="#00876c" d="M1050.69,-1041.54C1127.54,-1011.52 1175.98,-992.47 1386.37,-909.61"/>
<polygon fill="#00876c" stroke="#00876c" points="1387.4,-912.96 1395.43,-906.04 1384.84,-906.45 1387.4,-912.96"/>
</g>
<!-- 42818 -->
<g id="node33" class="node">
<title>42818</title>
<polygon fill="none" stroke="#00876c" points="1157.3,-663.23 1157.3,-678.14 993.96,-688.69 762.97,-688.69 599.63,-678.14 599.63,-663.23 762.97,-652.69 993.96,-652.69 1157.3,-663.23"/>
<polygon fill="none" stroke="#00876c" points="1161.3,-659.48 1161.3,-681.89 994.09,-692.69 762.84,-692.69 595.63,-681.89 595.63,-659.48 762.84,-648.69 994.09,-648.69 1161.3,-659.48"/>
<text text-anchor="middle" x="878.47" y="-665.64" font-family="Times,serif" font-size="14.00">metaeffekt:GNU General Public License 1.0 (or any later version)</text>
</g>
<!-- 42818&#45;&gt;42817 -->
<g id="edge48" class="edge">
<title>42818&#45;&gt;42817</title>
<path fill="none" stroke="#00876c" stroke-width="2" d="M918.35,-692.97C1037.03,-758.77 1073.44,-771.82 1376.62,-863.29"/>
<polygon fill="#00876c" stroke="#00876c" stroke-width="2" points="1384.72,-865.73 1373.85,-867.15 1382.12,-865.47 1375,-863.32 1375.15,-862.84 1375.29,-862.37 1382.41,-864.51 1376.45,-858.54 1384.72,-865.73"/>
</g>
<!-- 42819 -->
<g id="node34" class="node">
<title>42819</title>
<polygon fill="none" stroke="black" points="1266.22,-611.19 1266.22,-626.1 1129.82,-636.64 936.92,-636.64 800.51,-626.1 800.51,-611.19 936.92,-600.64 1129.82,-600.64 1266.22,-611.19"/>
<polygon fill="none" stroke="black" points="1270.22,-607.49 1270.22,-629.8 1129.97,-640.64 936.76,-640.64 796.51,-629.8 796.51,-607.49 936.76,-596.64 1129.97,-596.64 1270.22,-607.49"/>
<text text-anchor="middle" x="1033.37" y="-613.59" font-family="Times,serif" font-size="14.00">GNU General Public License 1.0 (or any later version)</text>
</g>
<!-- 42819&#45;&gt;42818 -->
<g id="edge49" class="edge">
<title>42819&#45;&gt;42818</title>
<path fill="none" stroke="#00876c" stroke-width="2" d="M925.48,-640.27C923.35,-641.14 921.29,-642.05 919.28,-643.02"/>
<polygon fill="#00876c" stroke="#00876c" stroke-width="2" points="911.59,-647.22 918.21,-638.48 913.6,-645.55 920.13,-641.99 920.37,-642.43 920.6,-642.87 914.08,-646.43 922.52,-646.38 911.59,-647.22"/>
</g>
<!-- 42819&#45;&gt;50534 -->
<g id="edge50" class="edge">
<title>42819&#45;&gt;50534</title>
<path fill="none" stroke="#b8bf62" stroke-width="2" d="M1050.86,-641.04C1166.42,-788.66 1187.39,-803.62 1517.31,-968.05"/>
<polygon fill="#b8bf62" stroke="#b8bf62" stroke-width="2" points="1524.98,-971.87 1514.02,-971.44 1522.46,-971.18 1515.81,-967.86 1516.03,-967.41 1516.25,-966.97 1522.91,-970.28 1518.04,-963.39 1524.98,-971.87"/>
</g>
<!-- 42820 -->
<g id="node35" class="node">
<title>42820</title>
<polygon fill="none" stroke="black" points="1169.88,-926.59 1169.88,-941.5 1060.41,-952.05 905.6,-952.05 796.13,-941.5 796.13,-926.59 905.6,-916.05 1060.41,-916.05 1169.88,-926.59"/>
<polygon fill="none" stroke="black" points="1173.88,-922.96 1173.88,-945.14 1060.6,-956.05 905.41,-956.05 792.13,-945.14 792.13,-922.96 905.41,-912.05 1060.6,-912.05 1173.88,-922.96"/>
<text text-anchor="middle" x="983.01" y="-929" font-family="Times,serif" font-size="14.00">GNU General Public License, Version 1.0+</text>
</g>
<!-- 42820&#45;&gt;42817 -->
<g id="edge51" class="edge">
<title>42820&#45;&gt;42817</title>
<path fill="none" stroke="#00876c" stroke-dasharray="5,2" d="M1168.33,-921.96C1209.46,-917.27 1262.72,-910.26 1343.37,-899.35"/>
<polygon fill="#00876c" stroke="#00876c" points="1353.2,-898.02 1343.89,-903.82 1349.45,-898.53 1343.29,-899.36 1343.29,-899.36 1343.29,-899.36 1349.45,-898.53 1342.68,-894.9 1353.2,-898.02"/>
</g>
<!-- 42820&#45;&gt;50534 -->
<g id="edge52" class="edge">
<title>42820&#45;&gt;50534</title>
<path fill="none" stroke="#b8bf62" stroke-width="2" d="M1036.81,-956.44C1134.03,-995.96 1181.53,-1006.59 1330.08,-1004.03"/>
<polygon fill="#b8bf62" stroke="#b8bf62" stroke-width="2" points="1338.51,-1003.87 1328.6,-1008.56 1335.96,-1004.41 1328.52,-1004.56 1328.51,-1004.06 1328.5,-1003.56 1335.94,-1003.41 1328.43,-999.56 1338.51,-1003.87"/>
</g>
<!-- 42821 -->
<g id="node36" class="node">
<title>42821</title>
<polygon fill="none" stroke="black" points="1281.88,-1232.09 1281.88,-1247 1176.96,-1257.55 1028.57,-1257.55 923.65,-1247 923.65,-1232.09 1028.57,-1221.55 1176.96,-1221.55 1281.88,-1232.09"/>
<polygon fill="none" stroke="black" points="1285.88,-1228.47 1285.88,-1250.62 1177.16,-1261.55 1028.37,-1261.55 919.65,-1250.62 919.65,-1228.47 1028.37,-1217.55 1177.16,-1217.55 1285.88,-1228.47"/>
<text text-anchor="middle" x="1102.77" y="-1234.5" font-family="Times,serif" font-size="14.00">GNU General Public License, Version 1+</text>
</g>
<!-- 42821&#45;&gt;42817 -->
<g id="edge53" class="edge">
<title>42821&#45;&gt;42817</title>
<path fill="none" stroke="#00876c" stroke-dasharray="5,2" d="M1120.56,-1217.25C1194.11,-1125.29 1211.95,-1107.46 1417.08,-914.79"/>
<polygon fill="#00876c" stroke="#00876c" points="1424.2,-908.1 1419.99,-918.23 1421.44,-910.69 1416.91,-914.95 1416.91,-914.95 1416.91,-914.95 1421.44,-910.69 1413.83,-911.67 1424.2,-908.1"/>
</g>
<!-- 42821&#45;&gt;50534 -->
<g id="edge54" class="edge">
<title>42821&#45;&gt;50534</title>
<path fill="none" stroke="#b8bf62" stroke-width="2" d="M1184.76,-1217.91C1274.37,-1191.66 1322.07,-1161.92 1529.44,-1023.86"/>
<polygon fill="#b8bf62" stroke="#b8bf62" stroke-width="2" points="1536.45,-1019.2 1530.62,-1028.48 1534.59,-1021.03 1528.4,-1025.16 1528.13,-1024.74 1527.85,-1024.32 1534.04,-1020.2 1525.63,-1020.99 1536.45,-1019.2"/>
</g>
<!-- 42822 -->
<g id="node37" class="node">
<title>42822</title>
<polygon fill="none" stroke="black" points="1381.71,-1171.91 1381.71,-1186.82 1351.42,-1197.37 1308.59,-1197.37 1278.3,-1186.82 1278.3,-1171.91 1308.59,-1161.37 1351.42,-1161.37 1381.71,-1171.91"/>
<polygon fill="none" stroke="black" points="1385.71,-1169.07 1385.71,-1189.67 1352.1,-1201.37 1307.91,-1201.37 1274.3,-1189.67 1274.3,-1169.07 1307.91,-1157.37 1352.1,-1157.37 1385.71,-1169.07"/>
<text text-anchor="middle" x="1330.01" y="-1174.32" font-family="Times,serif" font-size="14.00">GPL 1.0+</text>
</g>
<!-- 42822&#45;&gt;42817 -->
<g id="edge55" class="edge">
<title>42822&#45;&gt;42817</title>
<path fill="none" stroke="#00876c" stroke-dasharray="5,2" d="M1333.41,-1157.04C1345.16,-1081.78 1352.52,-1064.68 1431.64,-916.97"/>
<polygon fill="#00876c" stroke="#00876c" points="1436.13,-908.59 1435.37,-919.53 1434.34,-911.92 1431.41,-917.4 1431.41,-917.4 1431.41,-917.4 1434.34,-911.92 1427.44,-915.28 1436.13,-908.59"/>
</g>
<!-- 42822&#45;&gt;50534 -->
<g id="edge56" class="edge">
<title>42822&#45;&gt;50534</title>
<path fill="none" stroke="#b8bf62" stroke-width="2" d="M1369.4,-1162.93C1422.07,-1139.72 1443.71,-1121.02 1541.56,-1025.38"/>
<polygon fill="#b8bf62" stroke="#b8bf62" stroke-width="2" points="1547.62,-1019.45 1543.62,-1029.65 1546.14,-1021.6 1540.82,-1026.8 1540.47,-1026.44 1540.12,-1026.08 1545.44,-1020.88 1537.33,-1023.22 1547.62,-1019.45"/>
</g>
<!-- 42823 -->
<g id="node38" class="node">
<title>42823</title>
<polygon fill="none" stroke="black" points="1276.21,-971.96 1276.21,-986.87 1249.81,-997.42 1212.49,-997.42 1186.09,-986.87 1186.09,-971.96 1212.49,-961.42 1249.81,-961.42 1276.21,-971.96"/>
<polygon fill="none" stroke="black" points="1280.21,-969.25 1280.21,-989.58 1250.58,-1001.42 1211.72,-1001.42 1182.09,-989.58 1182.09,-969.25 1211.72,-957.42 1250.58,-957.42 1280.21,-969.25"/>
<text text-anchor="middle" x="1231.15" y="-974.37" font-family="Times,serif" font-size="14.00">GPL&#45;1+</text>
</g>
<!-- 42823&#45;&gt;42817 -->
<g id="edge57" class="edge">
<title>42823&#45;&gt;42817</title>
<path fill="none" stroke="#00876c" stroke-dasharray="5,2" d="M1267.04,-963.47C1296.54,-950.41 1319.32,-940.57 1389.47,-910.46"/>
<polygon fill="#00876c" stroke="#00876c" points="1398.57,-906.56 1391.15,-914.64 1395.09,-908.05 1389.38,-910.5 1389.38,-910.5 1389.38,-910.5 1395.09,-908.05 1387.6,-906.37 1398.57,-906.56"/>
</g>
<!-- 42823&#45;&gt;50534 -->
<g id="edge58" class="edge">
<title>42823&#45;&gt;50534</title>
<path fill="none" stroke="#b8bf62" stroke-width="2" d="M1267.15,-995.15C1326.81,-1020.48 1355.64,-1026.38 1434.51,-1016.63"/>
<polygon fill="#b8bf62" stroke="#b8bf62" stroke-width="2" points="1443.03,-1015.53 1433.68,-1021.27 1440.55,-1016.35 1433.17,-1017.3 1433.11,-1016.81 1433.05,-1016.31 1440.42,-1015.36 1432.54,-1012.34 1443.03,-1015.53"/>
</g>
<!-- 42824 -->
<g id="node39" class="node">
<title>42824</title>
<polygon fill="none" stroke="black" points="1284.16,-1119.48 1284.16,-1134.39 1224.66,-1144.93 1140.53,-1144.93 1081.03,-1134.39 1081.03,-1119.48 1140.53,-1108.93 1224.66,-1108.93 1284.16,-1119.48"/>
<polygon fill="none" stroke="black" points="1288.16,-1116.12 1288.16,-1137.74 1225.01,-1148.93 1140.17,-1148.93 1077.03,-1137.74 1077.03,-1116.12 1140.17,-1104.93 1225.01,-1104.93 1288.16,-1116.12"/>
<text text-anchor="middle" x="1182.59" y="-1121.88" font-family="Times,serif" font-size="14.00">GPL version 1 or later</text>
</g>
<!-- 42824&#45;&gt;42817 -->
<g id="edge59" class="edge">
<title>42824&#45;&gt;42817</title>
<path fill="none" stroke="#00876c" stroke-dasharray="5,2" d="M1202.47,-1104.74C1253.43,-1048.17 1272.03,-1031.7 1413.45,-914.33"/>
<polygon fill="#00876c" stroke="#00876c" points="1421.11,-907.97 1416.29,-917.82 1418.2,-910.39 1413.42,-914.36 1413.42,-914.36 1413.42,-914.36 1418.2,-910.39 1410.54,-910.89 1421.11,-907.97"/>
</g>
<!-- 42824&#45;&gt;50534 -->
<g id="edge60" class="edge">
<title>42824&#45;&gt;50534</title>
<path fill="none" stroke="#b8bf62" stroke-width="2" d="M1288.64,-1119.35C1342.28,-1110.03 1391.5,-1087.06 1518.58,-1022.63"/>
<polygon fill="#b8bf62" stroke="#b8bf62" stroke-width="2" points="1526.09,-1018.82 1519.21,-1027.36 1524.03,-1020.43 1517.4,-1023.79 1517.17,-1023.35 1516.95,-1022.9 1523.58,-1019.54 1515.14,-1019.33 1526.09,-1018.82"/>
</g>
<!-- 42825 -->
<g id="node40" class="node">
<title>42825</title>
<polygon fill="none" stroke="black" points="1238.77,-816.18 1238.77,-831.09 1174.74,-841.63 1084.17,-841.63 1020.14,-831.09 1020.14,-816.18 1084.17,-805.63 1174.74,-805.63 1238.77,-816.18"/>
<polygon fill="none" stroke="black" points="1242.77,-812.78 1242.77,-834.48 1175.06,-845.63 1083.85,-845.63 1016.14,-834.48 1016.14,-812.78 1083.85,-801.63 1175.06,-801.63 1242.77,-812.78"/>
<text text-anchor="middle" x="1129.45" y="-818.58" font-family="Times,serif" font-size="14.00">GPL version 1.0 or later</text>
</g>
<!-- 42825&#45;&gt;42817 -->
<g id="edge61" class="edge">
<title>42825&#45;&gt;42817</title>
<path fill="none" stroke="#00876c" stroke-dasharray="5,2" d="M1186.21,-844.29C1223.74,-856.57 1255.88,-862.37 1337.21,-872.17"/>
<polygon fill="#00876c" stroke="#00876c" points="1346.72,-873.3 1336.25,-876.59 1342.96,-872.86 1336.79,-872.12 1336.79,-872.12 1336.79,-872.12 1342.96,-872.86 1337.32,-867.65 1346.72,-873.3"/>
</g>
<!-- 42825&#45;&gt;50534 -->
<g id="edge62" class="edge">
<title>42825&#45;&gt;50534</title>
<path fill="none" stroke="#b8bf62" stroke-width="2" d="M1154.7,-845.92C1244.05,-924.23 1272.89,-939.96 1446.07,-972.57"/>
<polygon fill="#b8bf62" stroke="#b8bf62" stroke-width="2" points="1454.47,-974.15 1443.82,-976.73 1451.86,-974.17 1444.55,-972.8 1444.64,-972.31 1444.74,-971.81 1452.05,-973.18 1445.47,-967.88 1454.47,-974.15"/>
</g>
<!-- 42826 -->
<g id="node41" class="node">
<title>42826</title>
<polygon fill="none" stroke="black" points="1074.25,-1001.43 1074.25,-1016.34 760.66,-1026.89 317.18,-1026.89 3.6,-1016.34 3.6,-1001.43 317.18,-990.89 760.66,-990.89 1074.25,-1001.43"/>
<polygon fill="none" stroke="black" points="1078.25,-997.56 1078.25,-1020.21 760.73,-1030.89 317.12,-1030.89 -0.4,-1020.21 -0.4,-997.56 317.12,-986.89 760.73,-986.89 1078.25,-997.56"/>
<text text-anchor="middle" x="538.92" y="-1003.84" font-family="Times,serif" font-size="14.00">GNU General Public License as published by the Free Software Foundation; either version 1, or (at your option) any later version</text>
</g>
<!-- 42826&#45;&gt;42817 -->
<g id="edge63" class="edge">
<title>42826&#45;&gt;42817</title>
<path fill="none" stroke="#00876c" stroke-dasharray="5,2" d="M758.42,-986.41C875.43,-972.65 1004.44,-953.2 1348.33,-900.44"/>
<polygon fill="#00876c" stroke="#00876c" points="1358.15,-898.94 1348.95,-904.9 1354.41,-899.51 1348.26,-900.45 1348.26,-900.45 1348.26,-900.45 1354.41,-899.51 1347.58,-896.01 1358.15,-898.94"/>
</g>
<!-- 42826&#45;&gt;50534 -->
<g id="edge64" class="edge">
<title>42826&#45;&gt;50534</title>
<path fill="none" stroke="#b8bf62" stroke-width="2" d="M669.1,-1031.36C853.8,-1060.69 948.38,-1056.5 1393.28,-1013.02"/>
<polygon fill="#b8bf62" stroke="#b8bf62" stroke-width="2" points="1401.76,-1012.19 1392.25,-1017.65 1399.26,-1012.94 1391.86,-1013.67 1391.81,-1013.17 1391.76,-1012.67 1399.16,-1011.95 1391.37,-1008.69 1401.76,-1012.19"/>
</g>
<!-- 42827 -->
<g id="node42" class="node">
<title>42827</title>
<polygon fill="none" stroke="black" points="1412.95,-1351.08 1412.95,-1365.99 1293.42,-1376.54 1124.38,-1376.54 1004.85,-1365.99 1004.85,-1351.08 1124.38,-1340.54 1293.42,-1340.54 1412.95,-1351.08"/>
<polygon fill="none" stroke="black" points="1416.95,-1347.42 1416.95,-1369.66 1293.59,-1380.54 1124.2,-1380.54 1000.85,-1369.66 1000.85,-1347.42 1124.2,-1336.54 1293.59,-1336.54 1416.95,-1347.42"/>
<text text-anchor="middle" x="1208.9" y="-1353.49" font-family="Times,serif" font-size="14.00">GNU General Public License, version 1 or later</text>
</g>
<!-- 42827&#45;&gt;42817 -->
<g id="edge65" class="edge">
<title>42827&#45;&gt;42817</title>
<path fill="none" stroke="#00876c" stroke-dasharray="5,2" d="M1216.02,-1336.2C1257.78,-1205.77 1267.64,-1187.12 1429.77,-916.71"/>
<polygon fill="#00876c" stroke="#00876c" points="1434.72,-908.44 1433.44,-919.34 1432.78,-911.69 1429.58,-917.02 1429.58,-917.02 1429.58,-917.02 1432.78,-911.69 1425.72,-914.71 1434.72,-908.44"/>
</g>
<!-- 42827&#45;&gt;50534 -->
<g id="edge66" class="edge">
<title>42827&#45;&gt;50534</title>
<path fill="none" stroke="#b8bf62" stroke-width="2" d="M1240.78,-1336.2C1337.93,-1267.62 1359.09,-1244.76 1546.22,-1025.79"/>
<polygon fill="#b8bf62" stroke="#b8bf62" stroke-width="2" points="1551.65,-1019.44 1548.57,-1029.96 1550.36,-1021.71 1545.53,-1027.36 1545.15,-1027.04 1544.77,-1026.71 1549.6,-1021.06 1541.73,-1024.12 1551.65,-1019.44"/>
</g>
<!-- 50533 -->
<g id="node43" class="node">
<title>50533</title>
<ellipse fill="none" stroke="#b8bf62" cx="1519.7" cy="-1631.57" rx="161.93" ry="28.99"/>
<text text-anchor="middle" x="1519.7" y="-1634.77" font-family="Times,serif" font-size="14.00" fill="gray">FossLicense</text>
<text text-anchor="middle" x="1519.7" y="-1618.27" font-family="Times,serif" font-size="14.00" fill="gray">83267897075b6ac154233623a9e01074</text>
</g>
<!-- 50533&#45;&gt;50534 -->
<g id="edge67" class="edge">
<title>50533&#45;&gt;50534</title>
<path fill="none" stroke="#b8bf62" d="M1522.21,-1602.12C1535.65,-1443.9 1537.78,-1417.97 1569.45,-1029.14"/>
<polygon fill="#b8bf62" stroke="#b8bf62" points="1572.92,-1029.59 1570.24,-1019.33 1565.94,-1029.02 1572.92,-1029.59"/>
</g>
<!-- 50535 -->
<g id="node45" class="node">
<title>50535</title>
<polygon fill="none" stroke="black" points="2036.87,-1105.09 2036.87,-1120 2007.88,-1130.54 1966.88,-1130.54 1937.89,-1120 1937.89,-1105.09 1966.88,-1094.54 2007.88,-1094.54 2036.87,-1105.09"/>
<polygon fill="none" stroke="black" points="2040.87,-1102.29 2040.87,-1122.8 2008.59,-1134.54 1966.18,-1134.54 1933.89,-1122.8 1933.89,-1102.29 1966.18,-1090.54 2008.59,-1090.54 2040.87,-1102.29"/>
<text text-anchor="middle" x="1987.38" y="-1107.49" font-family="Times,serif" font-size="14.00">GPL1.0+</text>
</g>
<!-- 50535&#45;&gt;1909 -->
<g id="edge68" class="edge">
<title>50535&#45;&gt;1909</title>
<path fill="none" stroke="#78ab63" stroke-width="2" d="M2018.46,-1093.89C2129.53,-1026.91 2142.83,-1013.16 2172.7,-922.55"/>
<polygon fill="#78ab63" stroke="#78ab63" stroke-width="2" points="2175.38,-914.34 2176.56,-925.25 2175.06,-916.94 2172.75,-924 2172.28,-923.85 2171.8,-923.69 2174.11,-916.62 2168,-922.45 2175.38,-914.34"/>
</g>
<!-- 50535&#45;&gt;50534 -->
<g id="edge69" class="edge">
<title>50535&#45;&gt;50534</title>
<path fill="none" stroke="#b8bf62" stroke-width="2" d="M1933.64,-1114.47C1841.15,-1116.42 1807.24,-1104.71 1630.19,-1022.42"/>
<polygon fill="#b8bf62" stroke="#b8bf62" stroke-width="2" points="1622.48,-1018.84 1633.45,-1018.98 1625.02,-1019.47 1631.76,-1022.6 1631.55,-1023.06 1631.34,-1023.51 1624.6,-1020.37 1629.65,-1027.14 1622.48,-1018.84"/>
</g>
<!-- 50536 -->
<g id="node46" class="node">
<title>50536</title>
<polygon fill="none" stroke="black" points="1989.74,-1001.92 1989.74,-1016.83 1965.29,-1027.38 1930.72,-1027.38 1906.27,-1016.83 1906.27,-1001.92 1930.72,-991.38 1965.29,-991.38 1989.74,-1001.92"/>
<polygon fill="none" stroke="black" points="1993.74,-999.29 1993.74,-1019.46 1966.12,-1031.38 1929.89,-1031.38 1902.27,-1019.46 1902.27,-999.29 1929.89,-987.38 1966.12,-987.38 1993.74,-999.29"/>
<text text-anchor="middle" x="1948.01" y="-1004.33" font-family="Times,serif" font-size="14.00">GPL1+</text>
</g>
<!-- 50536&#45;&gt;1909 -->
<g id="edge70" class="edge">
<title>50536&#45;&gt;1909</title>
<path fill="none" stroke="#78ab63" stroke-width="2" d="M1990.44,-997.48C2094.86,-967.96 2117.2,-958.62 2155.32,-919.65"/>
<polygon fill="#78ab63" stroke="#78ab63" stroke-width="2" points="2160.96,-913.78 2157.28,-924.11 2159.55,-915.98 2154.4,-921.34 2154.04,-921 2153.68,-920.65 2158.83,-915.28 2150.79,-917.88 2160.96,-913.78"/>
</g>
<!-- 50536&#45;&gt;50534 -->
<g id="edge71" class="edge">
<title>50536&#45;&gt;50534</title>
<path fill="none" stroke="#b8bf62" stroke-width="2" d="M1908.65,-1022.56C1829.42,-1048.27 1799.12,-1049.3 1675.09,-1020.35"/>
<polygon fill="#b8bf62" stroke="#b8bf62" stroke-width="2" points="1666.77,-1018.4 1677.54,-1016.31 1669.38,-1018.5 1676.62,-1020.2 1676.51,-1020.69 1676.39,-1021.17 1669.15,-1019.47 1675.48,-1025.07 1666.77,-1018.4"/>
</g>
<!-- 50537 -->
<g id="node47" class="node">
<title>50537</title>
<polygon fill="none" stroke="#b8bf62" points="1473.78,-1519.82 1473.78,-1534.73 1412.02,-1545.27 1324.67,-1545.27 1262.9,-1534.73 1262.9,-1519.82 1324.67,-1509.27 1412.02,-1509.27 1473.78,-1519.82"/>
<polygon fill="none" stroke="#b8bf62" points="1477.78,-1516.44 1477.78,-1538.1 1412.36,-1549.27 1324.33,-1549.27 1258.9,-1538.1 1258.9,-1516.44 1324.33,-1505.27 1412.36,-1505.27 1477.78,-1516.44"/>
<text text-anchor="middle" x="1368.34" y="-1522.22" font-family="Times,serif" font-size="14.00">scancode://gpl&#45;1.0&#45;plus</text>
</g>
<!-- 50537&#45;&gt;50534 -->
<g id="edge72" class="edge">
<title>50537&#45;&gt;50534</title>
<path fill="none" stroke="#b8bf62" stroke-width="2" d="M1378.71,-1505.09C1439.55,-1374.75 1447.27,-1353.97 1560.86,-1027.93"/>
<polygon fill="#b8bf62" stroke="#b8bf62" stroke-width="2" points="1563.62,-1020 1564.58,-1030.92 1563.25,-1022.59 1560.8,-1029.61 1560.33,-1029.44 1559.86,-1029.28 1562.31,-1022.26 1556.08,-1027.96 1563.62,-1020"/>
</g>
<!-- 50538 -->
<g id="node48" class="node">
<title>50538</title>
<polygon fill="none" stroke="#b8bf62" points="1505.33,-547.33 1505.33,-562.24 1446.81,-572.79 1364.05,-572.79 1305.53,-562.24 1305.53,-547.33 1364.05,-536.79 1446.81,-536.79 1505.33,-547.33"/>
<polygon fill="none" stroke="#b8bf62" points="1509.33,-543.99 1509.33,-565.59 1447.17,-576.79 1363.7,-576.79 1301.53,-565.59 1301.53,-543.99 1363.7,-532.79 1447.17,-532.79 1509.33,-543.99"/>
<text text-anchor="middle" x="1405.43" y="-549.74" font-family="Times,serif" font-size="14.00">scancode:gpl&#45;1.0&#45;plus</text>
</g>
<!-- 50538&#45;&gt;50534 -->
<g id="edge73" class="edge">
<title>50538&#45;&gt;50534</title>
<path fill="none" stroke="#b8bf62" stroke-width="2" d="M1405.7,-577.08C1407.63,-721.71 1414.19,-738.46 1552.69,-963.69"/>
<polygon fill="#b8bf62" stroke="#b8bf62" stroke-width="2" points="1557.25,-971.1 1548.18,-964.94 1555.48,-969.18 1551.58,-962.85 1552.01,-962.58 1552.44,-962.32 1556.33,-968.66 1555.84,-960.23 1557.25,-971.1"/>
</g>
<!-- 50539 -->
<g id="node49" class="node">
<title>50539</title>
<polygon fill="none" stroke="#b8bf62" points="1693.37,-1472.49 1693.37,-1487.4 1661.46,-1497.95 1616.33,-1497.95 1584.42,-1487.4 1584.42,-1472.49 1616.33,-1461.95 1661.46,-1461.95 1693.37,-1472.49"/>
<polygon fill="none" stroke="#b8bf62" points="1697.37,-1469.6 1697.37,-1490.29 1662.1,-1501.95 1615.69,-1501.95 1580.42,-1490.29 1580.42,-1469.6 1615.69,-1457.95 1662.1,-1457.95 1697.37,-1469.6"/>
<text text-anchor="middle" x="1638.9" y="-1474.9" font-family="Times,serif" font-size="14.00">GPLv1.0+</text>
</g>
<!-- 50539&#45;&gt;50534 -->
<g id="edge74" class="edge">
<title>50539&#45;&gt;50534</title>
<path fill="none" stroke="#b8bf62" stroke-width="2" d="M1634.59,-1457.82C1611.45,-1338.74 1608.81,-1318.45 1575.94,-1028.38"/>
<polygon fill="#b8bf62" stroke="#b8bf62" stroke-width="2" points="1574.98,-1019.93 1580.57,-1029.36 1575.76,-1022.42 1576.6,-1029.81 1576.1,-1029.86 1575.61,-1029.92 1574.77,-1022.53 1571.63,-1030.37 1574.98,-1019.93"/>
</g>
<!-- 56000 -->
<g id="node50" class="node">
<title>56000</title>
<ellipse fill="none" stroke="#78ab63" cx="2363.49" cy="-1298.64" rx="158.22" ry="28.99"/>
<text text-anchor="middle" x="2363.49" y="-1301.84" font-family="Times,serif" font-size="14.00" fill="gray">Curation</text>
<text text-anchor="middle" x="2363.49" y="-1285.34" font-family="Times,serif" font-size="14.00" fill="gray">1404e45dbe61a57d510cb87de8b06fdf</text>
</g>
<!-- 56000&#45;&gt;1909 -->
<g id="edge75" class="edge">
<title>56000&#45;&gt;1909</title>
<path fill="none" stroke="#78ab63" d="M2362.34,-1269.55C2356.58,-1132.34 2347.51,-1113.61 2206.36,-921.03"/>
<polygon fill="#78ab63" stroke="#78ab63" points="2209.39,-919.24 2200.65,-913.25 2203.74,-923.38 2209.39,-919.24"/>
</g>
</g>
</svg>
