<?xml version="1.0" encoding="UTF-8" standalone="no"?>
<!DOCTYPE svg PUBLIC "-//W3C//DTD SVG 1.1//EN"
 "http://www.w3.org/Graphics/SVG/1.1/DTD/svg11.dtd">
<!-- Generated by graphviz version 10.0.1 (0)
 -->
<!-- Pages: 1 -->
<svg width="879pt" height="261pt"
 viewBox="0.00 0.00 879.00 261.00" xmlns="http://www.w3.org/2000/svg" xmlns:xlink="http://www.w3.org/1999/xlink">
<g id="graph0" class="graph" transform="scale(1 1) rotate(0) translate(4 257)">
<polygon fill="white" stroke="none" points="-4,4 -4,-257 875,-257 875,4 -4,4"/>
<!-- 6521 -->
<g id="node1" class="node">
<title>6521</title>
<ellipse fill="none" stroke="#e09d4b" cx="220.13" cy="-55.8" rx="158.75" ry="28.99"/>
<text text-anchor="middle" x="220.13" y="-59" font-family="Times,serif" font-size="14.00" fill="gray">FedoraEntry</text>
<text text-anchor="middle" x="220.13" y="-42.5" font-family="Times,serif" font-size="14.00" fill="gray">ce5747ab669f53072be26eb3351ac8b7</text>
</g>
<!-- 6522 -->
<g id="node2" class="node">
<title>6522</title>
<polygon fill="none" stroke="#e09d4b" points="513.86,-109 513.86,-123.91 364.48,-134.45 153.22,-134.45 3.83,-123.91 3.83,-109 153.22,-98.45 364.48,-98.45 513.86,-109"/>
<polygon fill="none" stroke="#e09d4b" points="517.86,-105.27 517.86,-127.64 364.62,-138.45 153.08,-138.45 -0.17,-127.64 -0.17,-105.27 153.08,-94.45 364.62,-94.45 517.86,-105.27"/>
<text text-anchor="middle" x="258.85" y="-111.4" font-family="Times,serif" font-size="14.00">Fedora:GPL&#45;2.0&#45;or&#45;later_WITH_Autoconf&#45;exception&#45;macro</text>
</g>
<!-- 6521&#45;&gt;6522 -->
<g id="edge1" class="edge">
<title>6521&#45;&gt;6522</title>
<path fill="none" stroke="#e09d4b" d="M229.62,-85.02C229.68,-85.11 229.74,-85.19 229.8,-85.28"/>
<polygon fill="#e09d4b" stroke="#e09d4b" points="226.88,-87.24 235.89,-92.83 232.33,-82.85 226.88,-87.24"/>
</g>
<!-- 6523 -->
<g id="node3" class="node">
<title>6523</title>
<polygon fill="none" stroke="#e09d4b" points="866.79,-14.37 866.79,-29.28 735.25,-39.82 549.23,-39.82 417.7,-29.28 417.7,-14.37 549.23,-3.82 735.25,-3.82 866.79,-14.37"/>
<polygon fill="none" stroke="#e09d4b" points="870.79,-10.67 870.79,-32.97 735.41,-43.82 549.07,-43.82 413.7,-32.97 413.7,-10.67 549.07,0.18 735.41,0.18 870.79,-10.67"/>
<text text-anchor="middle" x="642.24" y="-16.77" font-family="Times,serif" font-size="14.00">GPL&#45;2.0&#45;or&#45;later_WITH_Autoconf&#45;exception&#45;macro</text>
</g>
<!-- 6523&#45;&gt;6522 -->
<g id="edge2" class="edge">
<title>6523&#45;&gt;6522</title>
<path fill="none" stroke="#e09d4b" stroke-width="2" d="M413.43,-30.83C385.19,-43.81 351.7,-62.5 307.06,-88.36"/>
<polygon fill="#e09d4b" stroke="#e09d4b" stroke-width="2" points="299.48,-92.76 305.87,-83.85 301.44,-91.04 307.87,-87.31 308.12,-87.74 308.38,-88.17 301.94,-91.91 310.38,-91.63 299.48,-92.76"/>
</g>
<!-- 6524 -->
<g id="node4" class="node">
<title>6524</title>
<polygon fill="none" stroke="#e09d4b" points="497.1,-165.09 497.1,-180 356.48,-190.54 157.61,-190.54 16.99,-180 16.99,-165.09 157.61,-154.54 356.48,-154.54 497.1,-165.09"/>
<polygon fill="none" stroke="#e09d4b" points="501.1,-161.38 501.1,-183.71 356.63,-194.54 157.46,-194.54 12.99,-183.71 12.99,-161.38 157.46,-150.54 356.63,-150.54 501.1,-161.38"/>
<polygon fill="none" stroke="#e09d4b" points="505.1,-157.66 505.1,-187.42 356.78,-198.54 157.31,-198.54 8.99,-187.42 8.99,-157.66 157.31,-146.54 356.78,-146.54 505.1,-157.66"/>
<text text-anchor="middle" x="257.04" y="-167.49" font-family="Times,serif" font-size="14.00">spdx:GPL&#45;2.0&#45;or&#45;later WITH Autoconf&#45;exception&#45;macro</text>
</g>
<!-- 6524&#45;&gt;6522 -->
<g id="edge3" class="edge">
<title>6524&#45;&gt;6522</title>
<path fill="none" stroke="#e09d4b" stroke-width="2" d="M249.56,-146.33C249.56,-146.18 249.56,-146.03 249.56,-145.88"/>
<polygon fill="#e09d4b" stroke="#e09d4b" stroke-width="2" points="250.19,-141.27 253.3,-151.78 250.34,-143.87 249.33,-151.24 248.84,-151.17 248.34,-151.11 249.35,-143.74 244.38,-150.57 250.19,-141.27"/>
</g>
<!-- 6525 -->
<g id="node5" class="node">
<title>6525</title>
<polygon fill="none" stroke="#e09d4b" points="461.21,-223.5 461.21,-238.41 333.24,-248.96 152.27,-248.96 24.31,-238.41 24.31,-223.5 152.27,-212.96 333.24,-212.96 461.21,-223.5"/>
<polygon fill="none" stroke="#e09d4b" points="465.21,-219.82 465.21,-242.1 333.41,-252.96 152.11,-252.96 20.31,-242.1 20.31,-219.82 152.11,-208.96 333.41,-208.96 465.21,-219.82"/>
<text text-anchor="middle" x="242.76" y="-225.91" font-family="Times,serif" font-size="14.00">GPL&#45;2.0&#45;or&#45;later WITH Autoconf&#45;exception&#45;macro</text>
</g>
<!-- 6525&#45;&gt;6524 -->
<g id="edge4" class="edge">
<title>6525&#45;&gt;6524</title>
<path fill="none" stroke="#e09d4b" stroke-width="2" d="M240.9,-208.51C240.91,-208.41 240.93,-208.31 240.94,-208.22"/>
<polygon fill="#e09d4b" stroke="#e09d4b" stroke-width="2" points="243.03,-200.99 244.58,-211.84 242.8,-203.59 240.73,-210.73 240.25,-210.59 239.77,-210.46 241.84,-203.31 235.93,-209.34 243.03,-200.99"/>
</g>
</g>
</svg>
