<?xml version="1.0" encoding="UTF-8" standalone="no"?>
<!DOCTYPE svg PUBLIC "-//W3C//DTD SVG 1.1//EN"
 "http://www.w3.org/Graphics/SVG/1.1/DTD/svg11.dtd">
<!-- Generated by graphviz version 10.0.1 (0)
 -->
<!-- Pages: 1 -->
<svg width="1232pt" height="545pt"
 viewBox="0.00 0.00 1232.00 545.00" xmlns="http://www.w3.org/2000/svg" xmlns:xlink="http://www.w3.org/1999/xlink">
<g id="graph0" class="graph" transform="scale(1 1) rotate(0) translate(4 541)">
<polygon fill="white" stroke="none" points="-4,4 -4,-541 1228,-541 1228,4 -4,4"/>
<!-- 6441 -->
<g id="node1" class="node">
<title>6441</title>
<ellipse fill="none" stroke="#e09d4b" cx="1068.29" cy="-65.29" rx="156.09" ry="28.99"/>
<text text-anchor="middle" x="1068.29" y="-68.49" font-family="Times,serif" font-size="14.00" fill="gray">FedoraEntry</text>
<text text-anchor="middle" x="1068.29" y="-51.99" font-family="Times,serif" font-size="14.00" fill="gray">47f1e55d94aee6c23deab6c6d21d7f7e</text>
</g>
<!-- 6442 -->
<g id="node2" class="node">
<title>6442</title>
<polygon fill="none" stroke="#e09d4b" points="820.77,-352.33 820.77,-367.25 704.16,-377.79 539.25,-377.79 422.64,-367.25 422.64,-352.33 539.25,-341.79 704.16,-341.79 820.77,-352.33"/>
<polygon fill="none" stroke="#e09d4b" points="824.77,-348.68 824.77,-370.9 704.34,-381.79 539.07,-381.79 418.64,-370.9 418.64,-348.68 539.07,-337.79 704.34,-337.79 824.77,-348.68"/>
<text text-anchor="middle" x="621.7" y="-354.74" font-family="Times,serif" font-size="14.00">Fedora:GPL&#45;1.0&#45;or&#45;later_OR_Artistic&#45;1.0&#45;Perl</text>
</g>
<!-- 6441&#45;&gt;6442 -->
<g id="edge1" class="edge">
<title>6441&#45;&gt;6442</title>
<path fill="none" stroke="#e09d4b" d="M1039.9,-94.29C952.42,-182.93 924.36,-200.35 674.55,-331.97"/>
<polygon fill="#e09d4b" stroke="#e09d4b" points="672.97,-328.85 665.75,-336.61 676.23,-335.04 672.97,-328.85"/>
</g>
<!-- 6443 -->
<g id="node3" class="node">
<title>6443</title>
<polygon fill="none" stroke="#e09d4b" points="863.97,-298.11 863.97,-313.02 765.21,-323.56 625.54,-323.56 526.78,-313.02 526.78,-298.11 625.54,-287.56 765.21,-287.56 863.97,-298.11"/>
<polygon fill="none" stroke="#e09d4b" points="867.97,-294.51 867.97,-316.61 765.42,-327.56 625.33,-327.56 522.78,-316.61 522.78,-294.51 625.33,-283.56 765.42,-283.56 867.97,-294.51"/>
<text text-anchor="middle" x="695.38" y="-300.51" font-family="Times,serif" font-size="14.00">GPL&#45;1.0&#45;or&#45;later_OR_Artistic&#45;1.0&#45;Perl</text>
</g>
<!-- 6443&#45;&gt;6442 -->
<g id="edge2" class="edge">
<title>6443&#45;&gt;6442</title>
<path fill="none" stroke="#e09d4b" stroke-width="2" d="M681.01,-327.93C680.76,-328.29 680.52,-328.63 680.27,-328.98"/>
<polygon fill="#e09d4b" stroke="#e09d4b" stroke-width="2" points="674.99,-335.63 677.69,-325 676.19,-333.31 680.82,-327.49 681.21,-327.8 681.6,-328.11 676.98,-333.94 684.73,-330.6 674.99,-335.63"/>
</g>
<!-- 6444 -->
<g id="node4" class="node">
<title>6444</title>
<polygon fill="none" stroke="#e09d4b" points="1037.19,-408.81 1037.19,-423.72 928.69,-434.26 775.26,-434.26 666.76,-423.72 666.76,-408.81 775.26,-398.26 928.69,-398.26 1037.19,-408.81"/>
<polygon fill="none" stroke="#e09d4b" points="1041.19,-405.18 1041.19,-427.35 928.89,-438.26 775.06,-438.26 662.76,-427.35 662.76,-405.18 775.06,-394.26 928.89,-394.26 1041.19,-405.18"/>
<polygon fill="none" stroke="#e09d4b" points="1045.19,-401.55 1045.19,-430.98 929.08,-442.26 774.87,-442.26 658.76,-430.98 658.76,-401.55 774.87,-390.26 929.08,-390.26 1045.19,-401.55"/>
<text text-anchor="middle" x="851.98" y="-411.21" font-family="Times,serif" font-size="14.00">spdx:GPL&#45;1.0&#45;or&#45;later OR Artistic&#45;1.0&#45;Perl</text>
</g>
<!-- 6444&#45;&gt;6442 -->
<g id="edge3" class="edge">
<title>6444&#45;&gt;6442</title>
<path fill="none" stroke="#e09d4b" stroke-width="2" d="M711.92,-395.99C704.37,-393.12 696.15,-389.91 687.12,-386.32"/>
<polygon fill="#e09d4b" stroke="#e09d4b" stroke-width="2" points="679.25,-383.17 690.2,-382.71 681.81,-383.66 688.72,-386.42 688.53,-386.88 688.35,-387.35 681.44,-384.59 686.86,-391.06 679.25,-383.17"/>
</g>
<!-- 6445 -->
<g id="node5" class="node">
<title>6445</title>
<polygon fill="none" stroke="#e09d4b" points="1037.76,-471.28 1037.76,-486.19 941.92,-496.74 806.38,-496.74 710.54,-486.19 710.54,-471.28 806.38,-460.74 941.92,-460.74 1037.76,-471.28"/>
<polygon fill="none" stroke="#e09d4b" points="1041.76,-467.7 1041.76,-489.78 942.14,-500.74 806.16,-500.74 706.54,-489.78 706.54,-467.7 806.16,-456.74 942.14,-456.74 1041.76,-467.7"/>
<text text-anchor="middle" x="874.15" y="-473.69" font-family="Times,serif" font-size="14.00">GPL&#45;1.0&#45;or&#45;later OR Artistic&#45;1.0&#45;Perl</text>
</g>
<!-- 6445&#45;&gt;6444 -->
<g id="edge4" class="edge">
<title>6445&#45;&gt;6444</title>
<path fill="none" stroke="#e09d4b" stroke-width="2" d="M872.18,-456.48C871.83,-455.24 871.42,-453.97 870.93,-452.65"/>
<polygon fill="#e09d4b" stroke="#e09d4b" stroke-width="2" points="867.45,-444.89 875.65,-452.17 868.96,-447.03 872,-453.81 871.55,-454.02 871.09,-454.22 868.05,-447.44 867.44,-455.86 867.45,-444.89"/>
</g>
<!-- 6446 -->
<g id="node6" class="node">
<title>6446</title>
<polygon fill="none" stroke="#e09d4b" points="548.61,-511.61 548.61,-526.52 387.87,-537.06 160.55,-537.06 -0.19,-526.52 -0.19,-511.61 160.55,-501.06 387.87,-501.06 548.61,-511.61"/>
<text text-anchor="middle" x="274.21" y="-514.01" font-family="Times,serif" font-size="14.00">GNU General Public License v1.0 or later or Artistic License 1.0</text>
</g>
<!-- 6446&#45;&gt;6442 -->
<g id="edge5" class="edge">
<title>6446&#45;&gt;6442</title>
<path fill="none" stroke="#e09d4b" stroke-dasharray="5,2" d="M355.21,-500.67C406.92,-485.67 449.07,-462.25 574.34,-387.94"/>
<polygon fill="#e09d4b" stroke="#e09d4b" points="582.85,-382.88 576.55,-391.86 579.6,-384.81 574.25,-387.99 574.25,-387.99 574.25,-387.99 579.6,-384.81 571.96,-384.12 582.85,-382.88"/>
</g>
<!-- 6447 -->
<g id="node7" class="node">
<title>6447</title>
<polygon fill="none" stroke="#e09d4b" points="434.85,-10.11 434.85,-25.02 388.01,-35.57 321.77,-35.57 274.93,-25.02 274.93,-10.11 321.77,0.43 388.01,0.43 434.85,-10.11"/>
<text text-anchor="middle" x="354.89" y="-12.52" font-family="Times,serif" font-size="14.00">GPL+ or Artistic</text>
</g>
<!-- 6447&#45;&gt;6442 -->
<g id="edge6" class="edge">
<title>6447&#45;&gt;6442</title>
<path fill="none" stroke="#e09d4b" stroke-dasharray="5,2" d="M363.83,-35.88C413.26,-136.76 424.91,-151.57 593.07,-329.51"/>
<polygon fill="#e09d4b" stroke="#e09d4b" points="599.84,-336.67 589.7,-332.49 597.24,-333.92 592.97,-329.4 592.97,-329.4 592.97,-329.4 597.24,-333.92 596.24,-326.31 599.84,-336.67"/>
</g>
</g>
</svg>
