<?xml version="1.0" encoding="UTF-8" standalone="no"?>
<!DOCTYPE svg PUBLIC "-//W3C//DTD SVG 1.1//EN"
 "http://www.w3.org/Graphics/SVG/1.1/DTD/svg11.dtd">
<!-- Generated by graphviz version 10.0.1 (0)
 -->
<!-- Pages: 1 -->
<svg width="2633pt" height="1065pt"
 viewBox="0.00 0.00 2633.00 1065.00" xmlns="http://www.w3.org/2000/svg" xmlns:xlink="http://www.w3.org/1999/xlink">
<g id="graph0" class="graph" transform="scale(1 1) rotate(0) translate(4 1061)">
<polygon fill="white" stroke="none" points="-4,4 -4,-1061 2629,-1061 2629,4 -4,4"/>
<!-- 1966 -->
<g id="node1" class="node">
<title>1966</title>
<ellipse fill="none" stroke="#b8bf62" cx="910.53" cy="-29.47" rx="156.62" ry="28.99"/>
<text text-anchor="middle" x="910.53" y="-32.67" font-family="Times,serif" font-size="14.00" fill="gray">SPDXLicense</text>
<text text-anchor="middle" x="910.53" y="-16.17" font-family="Times,serif" font-size="14.00" fill="gray">76949d3ed0ac06aa402f1058a90fadeb</text>
</g>
<!-- 1967 -->
<g id="node2" class="node">
<title>1967</title>
<polygon fill="none" stroke="black" points="1272.05,-448.07 1272.05,-462.98 1171.67,-473.53 1029.71,-473.53 929.32,-462.98 929.32,-448.07 1029.71,-437.53 1171.67,-437.53 1272.05,-448.07"/>
<polygon fill="none" stroke="black" points="1276.05,-444.47 1276.05,-466.58 1171.88,-477.53 1029.5,-477.53 925.32,-466.58 925.32,-444.47 1029.5,-433.53 1171.88,-433.53 1276.05,-444.47"/>
<polygon fill="none" stroke="black" points="1280.05,-440.87 1280.05,-470.19 1172.09,-481.53 1029.29,-481.53 921.32,-470.19 921.32,-440.87 1029.29,-429.53 1172.09,-429.53 1280.05,-440.87"/>
<text text-anchor="middle" x="1100.69" y="-450.48" font-family="Times,serif" font-size="14.00">spdx:GPL&#45;2.0&#45;with&#45;classpath&#45;exception</text>
</g>
<!-- 1966&#45;&gt;1967 -->
<g id="edge1" class="edge">
<title>1966&#45;&gt;1967</title>
<path fill="none" stroke="#b8bf62" d="M915.85,-58.92C937.06,-174.33 947.76,-196.32 1079.44,-419.53"/>
<polygon fill="#b8bf62" stroke="#b8bf62" points="1076.32,-421.14 1084.42,-427.97 1082.35,-417.58 1076.32,-421.14"/>
</g>
<!-- 5720 -->
<g id="node6" class="node">
<title>5720</title>
<polygon fill="none" stroke="#e06f45" points="721.38,-489.67 721.38,-504.59 625.54,-515.13 490,-515.13 394.16,-504.59 394.16,-489.67 490,-479.13 625.54,-479.13 721.38,-489.67"/>
<polygon fill="none" stroke="#e06f45" points="725.38,-486.09 725.38,-508.17 625.76,-519.13 489.78,-519.13 390.16,-508.17 390.16,-486.09 489.78,-475.13 625.76,-475.13 725.38,-486.09"/>
<text text-anchor="middle" x="557.77" y="-492.08" font-family="Times,serif" font-size="14.00">google:GPL20withclasspathexception</text>
</g>
<!-- 1967&#45;&gt;5720 -->
<g id="edge2" class="edge">
<title>1967&#45;&gt;5720</title>
<path fill="none" stroke="#e06f45" stroke-width="2" d="M920.94,-460.04C786.62,-463.81 729.19,-467.26 668.85,-476.5"/>
<polygon fill="#e06f45" stroke="#e06f45" stroke-width="2" points="660.34,-477.84 669.52,-471.83 662.8,-476.95 670.14,-475.78 670.22,-476.28 670.3,-476.77 662.95,-477.93 670.92,-480.72 660.34,-477.84"/>
</g>
<!-- 1968 -->
<g id="node3" class="node">
<title>1968</title>
<polygon fill="none" stroke="black" points="1787.25,-580.62 1787.25,-595.53 1699.53,-606.07 1575.46,-606.07 1487.74,-595.53 1487.74,-580.62 1575.46,-570.07 1699.53,-570.07 1787.25,-580.62"/>
<polygon fill="none" stroke="black" points="1791.25,-577.07 1791.25,-599.08 1699.77,-610.07 1575.22,-610.07 1483.74,-599.08 1483.74,-577.07 1575.22,-566.07 1699.77,-566.07 1791.25,-577.07"/>
<text text-anchor="middle" x="1637.49" y="-583.02" font-family="Times,serif" font-size="14.00">GPL&#45;2.0&#45;with&#45;classpath&#45;exception</text>
</g>
<!-- 1968&#45;&gt;1967 -->
<g id="edge3" class="edge">
<title>1968&#45;&gt;1967</title>
<path fill="none" stroke="black" stroke-width="2" d="M1592.36,-565.67C1494.79,-517.99 1453.81,-506.45 1249.16,-476.64"/>
<polygon fill="black" stroke="black" stroke-width="2" points="1240.75,-475.42 1251.29,-472.4 1243.36,-475.29 1250.72,-476.36 1250.64,-476.86 1250.57,-477.35 1243.21,-476.28 1250,-481.31 1240.75,-475.42"/>
</g>
<!-- 25921 -->
<g id="node9" class="node">
<title>25921</title>
<polygon fill="none" stroke="#e18745" points="2240.64,-345.61 2240.64,-360.52 2128.57,-371.07 1970.09,-371.07 1858.02,-360.52 1858.02,-345.61 1970.09,-335.07 2128.57,-335.07 2240.64,-345.61"/>
<polygon fill="none" stroke="#e18745" points="2244.64,-341.97 2244.64,-364.17 2128.76,-375.07 1969.9,-375.07 1854.02,-364.17 1854.02,-341.97 1969.9,-331.07 2128.76,-331.07 2244.64,-341.97"/>
<text text-anchor="middle" x="2049.33" y="-348.02" font-family="Times,serif" font-size="14.00">fossology:GPL&#45;2.0&#45;with&#45;classpath&#45;exception</text>
</g>
<!-- 1968&#45;&gt;25921 -->
<g id="edge4" class="edge">
<title>1968&#45;&gt;25921</title>
<path fill="none" stroke="#e18745" stroke-width="2" d="M1689.98,-565.72C1911.11,-471.39 1940.34,-456.17 2018.19,-382.8"/>
<polygon fill="#e18745" stroke="#e18745" stroke-width="2" points="2024.12,-377.19 2019.95,-387.33 2022.6,-379.31 2017.2,-384.43 2016.86,-384.06 2016.51,-383.7 2021.91,-378.59 2013.76,-380.8 2024.12,-377.19"/>
</g>
<!-- 50979 -->
<g id="node11" class="node">
<title>50979</title>
<polygon fill="none" stroke="#dac767" points="1959.96,-634.93 1959.96,-649.84 1795.65,-660.38 1563.27,-660.38 1398.96,-649.84 1398.96,-634.93 1563.27,-624.38 1795.65,-624.38 1959.96,-634.93"/>
<polygon fill="none" stroke="#dac767" points="1963.96,-631.17 1963.96,-653.59 1795.77,-664.38 1563.15,-664.38 1394.96,-653.59 1394.96,-631.17 1563.15,-620.38 1795.77,-620.38 1963.96,-631.17"/>
<text text-anchor="middle" x="1679.46" y="-637.33" font-family="Times,serif" font-size="14.00">fosslight:GNU General Public License v2.0 w/Classpath exception</text>
</g>
<!-- 1968&#45;&gt;50979 -->
<g id="edge5" class="edge">
<title>1968&#45;&gt;50979</title>
<path fill="none" stroke="#dac767" stroke-width="2" d="M1662.04,-610.54C1662.37,-610.87 1662.68,-611.19 1662.99,-611.51"/>
<polygon fill="#dac767" stroke="#dac767" stroke-width="2" points="1668.48,-618.04 1658.6,-613.28 1666.45,-616.4 1661.66,-610.7 1662.04,-610.38 1662.43,-610.06 1667.21,-615.75 1665.49,-607.49 1668.48,-618.04"/>
</g>
<!-- 1969 -->
<g id="node4" class="node">
<title>1969</title>
<polygon fill="none" stroke="black" points="1803.96,-686.95 1803.96,-701.86 1661.39,-712.41 1459.77,-712.41 1317.2,-701.86 1317.2,-686.95 1459.77,-676.41 1661.39,-676.41 1803.96,-686.95"/>
<polygon fill="none" stroke="black" points="1807.96,-683.24 1807.96,-705.58 1661.54,-716.41 1459.62,-716.41 1313.2,-705.58 1313.2,-683.24 1459.62,-672.41 1661.54,-672.41 1807.96,-683.24"/>
<text text-anchor="middle" x="1560.58" y="-689.36" font-family="Times,serif" font-size="14.00">GNU General Public License v2.0 w/Classpath exception</text>
</g>
<!-- 1969&#45;&gt;1967 -->
<g id="edge6" class="edge">
<title>1969&#45;&gt;1967</title>
<path fill="none" stroke="#b8bf62" stroke-width="2" d="M1429.54,-674.18C1351.79,-654.61 1298.57,-614.96 1141.88,-488.75"/>
<polygon fill="#b8bf62" stroke="#b8bf62" stroke-width="2" points="1135.27,-483.42 1145.88,-486.19 1137.57,-484.64 1143.37,-489.31 1143.05,-489.7 1142.74,-490.09 1136.95,-485.42 1140.23,-493.2 1135.27,-483.42"/>
</g>
<!-- 1969&#45;&gt;25921 -->
<g id="edge7" class="edge">
<title>1969&#45;&gt;25921</title>
<path fill="none" stroke="#e18745" stroke-width="2" d="M1607.91,-672.03C1902.82,-532.47 1927.67,-516.56 2026.31,-384.16"/>
<polygon fill="#e18745" stroke="#e18745" stroke-width="2" points="2031.46,-377.23 2029.11,-387.94 2030.34,-379.58 2025.9,-385.55 2025.5,-385.25 2025.1,-384.95 2029.53,-378.98 2021.89,-382.57 2031.46,-377.23"/>
</g>
<!-- 1969&#45;&gt;50979 -->
<g id="edge8" class="edge">
<title>1969&#45;&gt;50979</title>
<path fill="none" stroke="#dac767" stroke-width="2" d="M1646.49,-671.92C1646.81,-671.73 1647.12,-671.53 1647.44,-671.34"/>
<polygon fill="#dac767" stroke="#dac767" stroke-width="2" points="1654.35,-666.27 1648.94,-675.81 1652.58,-668.19 1646.58,-672.59 1646.28,-672.18 1645.98,-671.78 1651.98,-667.38 1643.62,-668.55 1654.35,-666.27"/>
</g>
<!-- 55124 -->
<g id="node13" class="node">
<title>55124</title>
<polygon fill="none" stroke="#e18745" points="1826.87,-740.62 1826.87,-755.54 1666.45,-766.08 1439.59,-766.08 1279.17,-755.54 1279.17,-740.62 1439.59,-730.08 1666.45,-730.08 1826.87,-740.62"/>
<polygon fill="none" stroke="#e18745" points="1830.87,-736.88 1830.87,-759.28 1666.58,-770.08 1439.46,-770.08 1275.17,-759.28 1275.17,-736.88 1439.46,-726.08 1666.58,-726.08 1830.87,-736.88"/>
<text text-anchor="middle" x="1553.02" y="-743.03" font-family="Times,serif" font-size="14.00">ifrOSS:GNU General Public License v2.0 w/Classpath exception</text>
</g>
<!-- 1969&#45;&gt;55124 -->
<g id="edge9" class="edge">
<title>1969&#45;&gt;55124</title>
<path fill="none" stroke="#e18745" stroke-width="2" d="M1563.35,-716.82C1563.35,-716.93 1563.36,-717.04 1563.37,-717.14"/>
<polygon fill="#e18745" stroke="#e18745" stroke-width="2" points="1563.3,-723.18 1558.91,-713.13 1562.83,-720.61 1562.91,-713.17 1563.41,-713.18 1563.91,-713.19 1563.83,-720.62 1567.91,-713.23 1563.3,-723.18"/>
</g>
<!-- 5719 -->
<g id="node5" class="node">
<title>5719</title>
<ellipse fill="none" stroke="#e06f45" cx="161.8" cy="-730.31" rx="161.4" ry="28.99"/>
<text text-anchor="middle" x="161.8" y="-733.51" font-family="Times,serif" font-size="14.00" fill="gray">GoogleLicense</text>
<text text-anchor="middle" x="161.8" y="-717.01" font-family="Times,serif" font-size="14.00" fill="gray">cd3510d2c1ebe64849088469394bd61a</text>
</g>
<!-- 5719&#45;&gt;5720 -->
<g id="edge10" class="edge">
<title>5719&#45;&gt;5720</title>
<path fill="none" stroke="#e06f45" d="M190.31,-701.43C264.05,-627.68 291.71,-612.14 495.26,-524.1"/>
<polygon fill="#e06f45" stroke="#e06f45" points="496.54,-527.36 504.33,-520.18 493.77,-520.93 496.54,-527.36"/>
</g>
<!-- 5721 -->
<g id="node7" class="node">
<title>5721</title>
<polygon fill="none" stroke="#e06f45" points="293.33,-322.95 293.33,-337.86 215.02,-348.4 104.26,-348.4 25.95,-337.86 25.95,-322.95 104.26,-312.4 215.02,-312.4 293.33,-322.95"/>
<polygon fill="none" stroke="#e06f45" points="297.33,-319.45 297.33,-341.36 215.28,-352.4 103.99,-352.4 21.95,-341.36 21.95,-319.45 103.99,-308.4 215.28,-308.4 297.33,-319.45"/>
<text text-anchor="middle" x="159.64" y="-325.35" font-family="Times,serif" font-size="14.00">GPL20withclasspathexception</text>
</g>
<!-- 5721&#45;&gt;5720 -->
<g id="edge11" class="edge">
<title>5721&#45;&gt;5720</title>
<path fill="none" stroke="#e06f45" stroke-width="2" d="M194.65,-352.83C267.29,-398.72 298.21,-411.42 479.27,-471.27"/>
<polygon fill="#e06f45" stroke="#e06f45" stroke-width="2" points="487.38,-473.95 476.48,-475.09 484.79,-473.62 477.73,-471.29 477.89,-470.81 478.05,-470.34 485.11,-472.67 479.3,-466.54 487.38,-473.95"/>
</g>
<!-- 25920 -->
<g id="node8" class="node">
<title>25920</title>
<ellipse fill="none" stroke="#e18745" cx="2465.91" cy="-93.5" rx="159.28" ry="28.99"/>
<text text-anchor="middle" x="2465.91" y="-96.7" font-family="Times,serif" font-size="14.00" fill="gray">Fossology</text>
<text text-anchor="middle" x="2465.91" y="-80.2" font-family="Times,serif" font-size="14.00" fill="gray">22c6d8474f031349b99bac4f37dd4d8d</text>
</g>
<!-- 25920&#45;&gt;25921 -->
<g id="edge12" class="edge">
<title>25920&#45;&gt;25921</title>
<path fill="none" stroke="#e18745" d="M2432.63,-122.24C2353.44,-189.95 2323.12,-207.79 2101.46,-325.42"/>
<polygon fill="#e18745" stroke="#e18745" points="2099.98,-322.25 2092.79,-330.03 2103.26,-328.43 2099.98,-322.25"/>
</g>
<!-- 50978 -->
<g id="node10" class="node">
<title>50978</title>
<ellipse fill="none" stroke="#dac767" cx="2142.48" cy="-1028.05" rx="160.87" ry="28.99"/>
<text text-anchor="middle" x="2142.48" y="-1031.25" font-family="Times,serif" font-size="14.00" fill="gray">FOSSLight</text>
<text text-anchor="middle" x="2142.48" y="-1014.75" font-family="Times,serif" font-size="14.00" fill="gray">eeaab66dda26722ba6877d33355db391</text>
</g>
<!-- 50978&#45;&gt;50979 -->
<g id="edge13" class="edge">
<title>50978&#45;&gt;50979</title>
<path fill="none" stroke="#dac767" d="M2116.36,-999.13C2020.72,-893.65 1994.98,-873.25 1719.22,-671.47"/>
<polygon fill="#dac767" stroke="#dac767" points="1721.51,-668.81 1711.37,-665.73 1717.38,-674.46 1721.51,-668.81"/>
</g>
<!-- 55123 -->
<g id="node12" class="node">
<title>55123</title>
<ellipse fill="none" stroke="#e18745" cx="1552.68" cy="-807.3" rx="159.28" ry="28.99"/>
<text text-anchor="middle" x="1552.68" y="-810.5" font-family="Times,serif" font-size="14.00" fill="gray">ifrOSS License</text>
<text text-anchor="middle" x="1552.68" y="-794" font-family="Times,serif" font-size="14.00" fill="gray">20fc5ea3038b93dc0189b81b27c708c7</text>
</g>
<!-- 55123&#45;&gt;55124 -->
<g id="edge14" class="edge">
<title>55123&#45;&gt;55124</title>
<path fill="none" stroke="#e18745" d="M1558.66,-778.02C1558.65,-777.87 1558.63,-777.73 1558.61,-777.58"/>
<polygon fill="#e18745" stroke="#e18745" points="1562.68,-781.05 1557.72,-771.68 1555.76,-782.1 1562.68,-781.05"/>
</g>
</g>
</svg>
