<?xml version="1.0" encoding="UTF-8" standalone="no"?>
<!DOCTYPE svg PUBLIC "-//W3C//DTD SVG 1.1//EN"
 "http://www.w3.org/Graphics/SVG/1.1/DTD/svg11.dtd">
<!-- Generated by graphviz version 10.0.1 (0)
 -->
<!-- Pages: 1 -->
<svg width="1328pt" height="550pt"
 viewBox="0.00 0.00 1328.00 550.22" xmlns="http://www.w3.org/2000/svg" xmlns:xlink="http://www.w3.org/1999/xlink">
<g id="graph0" class="graph" transform="scale(1 1) rotate(0) translate(4 546.22)">
<polygon fill="white" stroke="none" points="-4,4 -4,-546.22 1324,-546.22 1324,4 -4,4"/>
<!-- 6704 -->
<g id="node1" class="node">
<title>6704</title>
<ellipse fill="none" stroke="#e09d4b" cx="668.72" cy="-501.69" rx="156.09" ry="28.99"/>
<text text-anchor="middle" x="668.72" y="-504.89" font-family="Times,serif" font-size="14.00" fill="gray">FedoraEntry</text>
<text text-anchor="middle" x="668.72" y="-488.39" font-family="Times,serif" font-size="14.00" fill="gray">19f6a9f73cbbc4afad541bb8806b7c25</text>
</g>
<!-- 6705 -->
<g id="node2" class="node">
<title>6705</title>
<polygon fill="none" stroke="#e09d4b" points="822.61,-433.15 822.61,-448.07 690.75,-458.61 504.27,-458.61 372.41,-448.07 372.41,-433.15 504.27,-422.61 690.75,-422.61 822.61,-433.15"/>
<polygon fill="none" stroke="#e09d4b" points="826.61,-429.46 826.61,-451.76 690.91,-462.61 504.11,-462.61 368.41,-451.76 368.41,-429.46 504.11,-418.61 690.91,-418.61 826.61,-429.46"/>
<text text-anchor="middle" x="597.51" y="-435.56" font-family="Times,serif" font-size="14.00">Fedora:GPL&#45;3.0&#45;or&#45;later_WITH_GCC&#45;exception&#45;3.1</text>
</g>
<!-- 6704&#45;&gt;6705 -->
<g id="edge1" class="edge">
<title>6704&#45;&gt;6705</title>
<path fill="none" stroke="#e09d4b" d="M620.8,-473.86C620.34,-473.28 619.87,-472.68 619.4,-472.07"/>
<polygon fill="#e09d4b" stroke="#e09d4b" points="622.43,-470.28 613.71,-464.27 616.78,-474.41 622.43,-470.28"/>
</g>
<!-- 6706 -->
<g id="node3" class="node">
<title>6706</title>
<polygon fill="none" stroke="#e09d4b" points="1316.35,-512.07 1316.35,-526.98 1202.34,-537.53 1041.1,-537.53 927.09,-526.98 927.09,-512.07 1041.1,-501.53 1202.34,-501.53 1316.35,-512.07"/>
<polygon fill="none" stroke="#e09d4b" points="1320.35,-508.43 1320.35,-530.63 1202.52,-541.53 1040.92,-541.53 923.09,-530.63 923.09,-508.43 1040.92,-497.53 1202.52,-497.53 1320.35,-508.43"/>
<text text-anchor="middle" x="1121.72" y="-514.48" font-family="Times,serif" font-size="14.00">GPL&#45;3.0&#45;or&#45;later_WITH_GCC&#45;exception&#45;3.1</text>
</g>
<!-- 6706&#45;&gt;6705 -->
<g id="edge2" class="edge">
<title>6706&#45;&gt;6705</title>
<path fill="none" stroke="#e09d4b" stroke-width="2" d="M1009.15,-539.03C923.08,-548.62 864.41,-532.54 672.97,-466.69"/>
<polygon fill="#e09d4b" stroke="#e09d4b" stroke-width="2" points="664.87,-463.9 675.79,-462.9 667.46,-464.26 674.49,-466.68 674.32,-467.16 674.16,-467.63 667.13,-465.21 672.86,-471.41 664.87,-463.9"/>
</g>
<!-- 6707 -->
<g id="node4" class="node">
<title>6707</title>
<polygon fill="none" stroke="black" points="712.8,-363.38 712.8,-378.29 589.38,-388.84 414.83,-388.84 291.41,-378.29 291.41,-363.38 414.83,-352.84 589.38,-352.84 712.8,-363.38"/>
<polygon fill="none" stroke="black" points="716.8,-359.71 716.8,-381.97 589.55,-392.84 414.66,-392.84 287.41,-381.97 287.41,-359.71 414.66,-348.84 589.55,-348.84 716.8,-359.71"/>
<polygon fill="none" stroke="black" points="720.8,-356.04 720.8,-385.64 589.72,-396.84 414.49,-396.84 283.41,-385.64 283.41,-356.04 414.49,-344.84 589.72,-344.84 720.8,-356.04"/>
<text text-anchor="middle" x="502.11" y="-365.79" font-family="Times,serif" font-size="14.00">spdx:GPL&#45;3.0&#45;or&#45;later WITH GCC&#45;exception&#45;3.1</text>
</g>
<!-- 6707&#45;&gt;6705 -->
<g id="edge3" class="edge">
<title>6707&#45;&gt;6705</title>
<path fill="none" stroke="#e09d4b" stroke-width="2" d="M518.8,-397.25C522.4,-402.55 525.68,-406.94 529,-410.65"/>
<polygon fill="#e09d4b" stroke="#e09d4b" stroke-width="2" points="535.19,-416.53 524.84,-412.91 532.99,-415.13 527.6,-410.01 527.94,-409.65 528.29,-409.28 533.68,-414.41 531.04,-406.38 535.19,-416.53"/>
</g>
<!-- 6708 -->
<g id="node5" class="node">
<title>6708</title>
<polygon fill="none" stroke="black" points="627.42,-306.49 627.42,-321.41 516.65,-331.95 360,-331.95 249.24,-321.41 249.24,-306.49 360,-295.95 516.65,-295.95 627.42,-306.49"/>
<polygon fill="none" stroke="black" points="631.42,-302.86 631.42,-325.04 516.84,-335.95 359.81,-335.95 245.24,-325.04 245.24,-302.86 359.81,-291.95 516.84,-291.95 631.42,-302.86"/>
<text text-anchor="middle" x="438.33" y="-308.9" font-family="Times,serif" font-size="14.00">GPL&#45;3.0&#45;or&#45;later WITH GCC&#45;exception&#45;3.1</text>
</g>
<!-- 6708&#45;&gt;6707 -->
<g id="edge4" class="edge">
<title>6708&#45;&gt;6707</title>
<path fill="none" stroke="black" stroke-width="2" d="M449.38,-336.11C449.44,-336.21 449.5,-336.31 449.56,-336.41"/>
<polygon fill="black" stroke="black" stroke-width="2" points="454.2,-342.51 444.57,-337.27 452.26,-340.77 447.75,-334.85 448.15,-334.55 448.55,-334.25 453.05,-340.17 451.73,-331.83 454.2,-342.51"/>
</g>
<!-- 28729 -->
<g id="node6" class="node">
<title>28729</title>
<ellipse fill="none" stroke="#e06f45" cx="201.13" cy="-447.28" rx="158.22" ry="28.99"/>
<text text-anchor="middle" x="201.13" y="-450.48" font-family="Times,serif" font-size="14.00" fill="gray">OrtLicenseCategorization</text>
<text text-anchor="middle" x="201.13" y="-433.98" font-family="Times,serif" font-size="14.00" fill="gray">d1419fb0c72773184d52e8ff99470809</text>
</g>
<!-- 28729&#45;&gt;6707 -->
<g id="edge5" class="edge">
<title>28729&#45;&gt;6707</title>
<path fill="none" stroke="#e06f45" d="M314.49,-426.69C336.95,-420.84 364.68,-412.74 404.86,-400.57"/>
<polygon fill="#e06f45" stroke="#e06f45" points="405.64,-404 414.19,-397.74 403.61,-397.3 405.64,-404"/>
</g>
<!-- 35502 -->
<g id="node7" class="node">
<title>35502</title>
<ellipse fill="none" stroke="#e09d4b" cx="159.04" cy="-28.52" rx="158.75" ry="28.99"/>
<text text-anchor="middle" x="159.04" y="-31.72" font-family="Times,serif" font-size="14.00" fill="gray">OrtLicenseCategorization</text>
<text text-anchor="middle" x="159.04" y="-15.22" font-family="Times,serif" font-size="14.00" fill="gray">6f75c4cf1b072b0114626e319d670a6d</text>
</g>
<!-- 35502&#45;&gt;6707 -->
<g id="edge6" class="edge">
<title>35502&#45;&gt;6707</title>
<path fill="none" stroke="#e09d4b" d="M174.03,-57.79C232.98,-172.03 251.85,-190.33 456.21,-337.77"/>
<polygon fill="#e09d4b" stroke="#e09d4b" points="454.06,-340.54 464.22,-343.55 458.15,-334.86 454.06,-340.54"/>
</g>
</g>
</svg>
