<?xml version="1.0" encoding="UTF-8" standalone="no"?>
<!DOCTYPE svg PUBLIC "-//W3C//DTD SVG 1.1//EN"
 "http://www.w3.org/Graphics/SVG/1.1/DTD/svg11.dtd">
<!-- Generated by graphviz version 10.0.1 (0)
 -->
<!-- Pages: 1 -->
<svg width="1343pt" height="1058pt"
 viewBox="0.00 0.00 1343.00 1058.00" xmlns="http://www.w3.org/2000/svg" xmlns:xlink="http://www.w3.org/1999/xlink">
<g id="graph0" class="graph" transform="scale(1 1) rotate(0) translate(4 1054)">
<polygon fill="white" stroke="none" points="-4,4 -4,-1054 1339,-1054 1339,4 -4,4"/>
<!-- 6645 -->
<g id="node1" class="node">
<title>6645</title>
<ellipse fill="none" stroke="#e09d4b" cx="1001.25" cy="-29.12" rx="158.22" ry="28.99"/>
<text text-anchor="middle" x="1001.25" y="-32.32" font-family="Times,serif" font-size="14.00" fill="gray">FedoraEntry</text>
<text text-anchor="middle" x="1001.25" y="-15.82" font-family="Times,serif" font-size="14.00" fill="gray">a08b15299a81caeb3c120afbbb0b9e4d</text>
</g>
<!-- 6646 -->
<g id="node2" class="node">
<title>6646</title>
<polygon fill="none" stroke="#e09d4b" points="1136.36,-535.2 1136.36,-550.11 1000.61,-560.66 808.62,-560.66 672.87,-550.11 672.87,-535.2 808.62,-524.66 1000.61,-524.66 1136.36,-535.2"/>
<polygon fill="none" stroke="#e09d4b" points="1140.36,-531.5 1140.36,-553.81 1000.76,-564.66 808.47,-564.66 668.87,-553.81 668.87,-531.5 808.47,-520.66 1000.76,-520.66 1140.36,-531.5"/>
<text text-anchor="middle" x="904.61" y="-537.61" font-family="Times,serif" font-size="14.00">Fedora:GPL&#45;3.0&#45;only_WITH_Classpath&#45;exception&#45;2.0</text>
</g>
<!-- 6645&#45;&gt;6646 -->
<g id="edge1" class="edge">
<title>6645&#45;&gt;6646</title>
<path fill="none" stroke="#e09d4b" d="M1006.12,-58.36C1031.69,-213.78 1026.52,-234.91 917.56,-509.99"/>
<polygon fill="#e09d4b" stroke="#e09d4b" points="914.46,-508.31 914.03,-518.9 920.97,-510.89 914.46,-508.31"/>
</g>
<!-- 6647 -->
<g id="node3" class="node">
<title>6647</title>
<polygon fill="none" stroke="#e09d4b" points="1245.46,-480.56 1245.46,-495.47 1127.55,-506.02 960.81,-506.02 842.9,-495.47 842.9,-480.56 960.81,-470.02 1127.55,-470.02 1245.46,-480.56"/>
<polygon fill="none" stroke="#e09d4b" points="1249.46,-476.9 1249.46,-499.13 1127.73,-510.02 960.63,-510.02 838.9,-499.13 838.9,-476.9 960.63,-466.02 1127.73,-466.02 1249.46,-476.9"/>
<text text-anchor="middle" x="1044.18" y="-482.97" font-family="Times,serif" font-size="14.00">GPL&#45;3.0&#45;only_WITH_Classpath&#45;exception&#45;2.0</text>
</g>
<!-- 6647&#45;&gt;6646 -->
<g id="edge2" class="edge">
<title>6647&#45;&gt;6646</title>
<path fill="none" stroke="#e09d4b" stroke-width="2" d="M1006.72,-510.44C1002.21,-512.53 997.35,-514.52 991.68,-516.59"/>
<polygon fill="#e09d4b" stroke="#e09d4b" stroke-width="2" points="983.59,-519.38 991.58,-511.86 985.85,-518.07 992.88,-515.64 993.05,-516.12 993.21,-516.59 986.18,-519.01 994.51,-520.37 983.59,-519.38"/>
</g>
<!-- 6648 -->
<g id="node4" class="node">
<title>6648</title>
<polygon fill="none" stroke="black" points="1113.53,-592.2 1113.53,-607.12 986.21,-617.66 806.16,-617.66 678.84,-607.12 678.84,-592.2 806.16,-581.66 986.21,-581.66 1113.53,-592.2"/>
<polygon fill="none" stroke="black" points="1117.53,-588.52 1117.53,-610.8 986.38,-621.66 805.99,-621.66 674.84,-610.8 674.84,-588.52 805.99,-577.66 986.38,-577.66 1117.53,-588.52"/>
<polygon fill="none" stroke="black" points="1121.53,-584.84 1121.53,-614.48 986.54,-625.66 805.83,-625.66 670.84,-614.48 670.84,-584.84 805.83,-573.66 986.54,-573.66 1121.53,-584.84"/>
<text text-anchor="middle" x="896.18" y="-594.61" font-family="Times,serif" font-size="14.00">spdx:GPL&#45;3.0&#45;only WITH Classpath&#45;exception&#45;2.0</text>
</g>
<!-- 6648&#45;&gt;6646 -->
<g id="edge3" class="edge">
<title>6648&#45;&gt;6646</title>
<path fill="none" stroke="#e09d4b" stroke-width="2" d="M908.83,-573.17C908.85,-573.01 908.88,-572.85 908.9,-572.68"/>
<polygon fill="#e09d4b" stroke="#e09d4b" stroke-width="2" points="908.96,-567.3 913.35,-577.35 909.43,-569.87 909.35,-577.3 908.85,-577.3 908.35,-577.29 908.43,-569.85 904.35,-577.24 908.96,-567.3"/>
</g>
<!-- 6649 -->
<g id="node5" class="node">
<title>6649</title>
<polygon fill="none" stroke="black" points="1070.53,-648.21 1070.53,-663.12 955.87,-673.67 793.71,-673.67 679.05,-663.12 679.05,-648.21 793.71,-637.67 955.87,-637.67 1070.53,-648.21"/>
<polygon fill="none" stroke="black" points="1074.53,-644.56 1074.53,-666.77 956.05,-677.67 793.53,-677.67 675.05,-666.77 675.05,-644.56 793.53,-633.67 956.05,-633.67 1074.53,-644.56"/>
<text text-anchor="middle" x="874.79" y="-650.62" font-family="Times,serif" font-size="14.00">GPL&#45;3.0&#45;only WITH Classpath&#45;exception&#45;2.0</text>
</g>
<!-- 6649&#45;&gt;6648 -->
<g id="edge4" class="edge">
<title>6649&#45;&gt;6648</title>
<path fill="none" stroke="black" stroke-width="2" d="M892.8,-633.44C892.87,-633.29 892.93,-633.15 893,-633"/>
<polygon fill="black" stroke="black" stroke-width="2" points="894.44,-628.27 895.83,-639.15 894.17,-630.87 892,-637.98 891.52,-637.84 891.04,-637.69 893.22,-630.58 887.22,-636.52 894.44,-628.27"/>
</g>
<!-- 6650 -->
<g id="node6" class="node">
<title>6650</title>
<polygon fill="none" stroke="#e09d4b" points="552.96,-652.97 552.96,-667.88 390.92,-678.42 161.76,-678.42 -0.28,-667.88 -0.28,-652.97 161.76,-642.42 390.92,-642.42 552.96,-652.97"/>
<text text-anchor="middle" x="276.34" y="-655.37" font-family="Times,serif" font-size="14.00">GNU General Public License v3.0 only, with Classpath exception</text>
</g>
<!-- 6650&#45;&gt;6646 -->
<g id="edge5" class="edge">
<title>6650&#45;&gt;6646</title>
<path fill="none" stroke="#e09d4b" stroke-dasharray="5,2" d="M553.38,-662.46C617.45,-647 699.81,-617.84 833.52,-568.8"/>
<polygon fill="#e09d4b" stroke="#e09d4b" points="842.51,-565.5 834.67,-573.17 838.96,-566.8 833.12,-568.94 833.12,-568.94 833.12,-568.94 838.96,-566.8 831.57,-564.72 842.51,-565.5"/>
</g>
<!-- 6651 -->
<g id="node7" class="node">
<title>6651</title>
<polygon fill="none" stroke="#e09d4b" points="820.27,-478.54 820.27,-493.46 757.86,-504 669.59,-504 607.18,-493.46 607.18,-478.54 669.59,-468 757.86,-468 820.27,-478.54"/>
<text text-anchor="middle" x="713.73" y="-480.95" font-family="Times,serif" font-size="14.00">GPLv3 with exceptions</text>
</g>
<!-- 6651&#45;&gt;6646 -->
<g id="edge6" class="edge">
<title>6651&#45;&gt;6646</title>
<path fill="none" stroke="#e09d4b" stroke-dasharray="5,2" d="M785.52,-499.68C816.97,-505.96 835.63,-510.47 851.23,-516.1"/>
<polygon fill="#e09d4b" stroke="#e09d4b" points="860.52,-519.77 849.57,-520.28 857.01,-518.38 851.22,-516.1 851.22,-516.1 851.22,-516.1 857.01,-518.38 852.88,-511.91 860.52,-519.77"/>
</g>
<!-- 28723 -->
<g id="node8" class="node">
<title>28723</title>
<ellipse fill="none" stroke="#e06f45" cx="1179.23" cy="-1021.49" rx="155.56" ry="28.99"/>
<text text-anchor="middle" x="1179.23" y="-1024.69" font-family="Times,serif" font-size="14.00" fill="gray">OrtLicenseCategorization</text>
<text text-anchor="middle" x="1179.23" y="-1008.19" font-family="Times,serif" font-size="14.00" fill="gray">c00ed7c479fba62a5282cf0d2b904cf4</text>
</g>
<!-- 28723&#45;&gt;6648 -->
<g id="edge7" class="edge">
<title>28723&#45;&gt;6648</title>
<path fill="none" stroke="#e06f45" d="M1167.15,-992.15C1119.45,-877.07 1104.02,-855.38 924.54,-634.53"/>
<polygon fill="#e06f45" stroke="#e06f45" points="927.51,-632.64 918.48,-627.09 922.08,-637.06 927.51,-632.64"/>
</g>
</g>
</svg>
