<?xml version="1.0" encoding="UTF-8" standalone="no"?>
<!DOCTYPE svg PUBLIC "-//W3C//DTD SVG 1.1//EN"
 "http://www.w3.org/Graphics/SVG/1.1/DTD/svg11.dtd">
<!-- Generated by graphviz version 10.0.1 (0)
 -->
<!-- Pages: 1 -->
<svg width="1768pt" height="1167pt"
 viewBox="0.00 0.00 1768.00 1167.00" xmlns="http://www.w3.org/2000/svg" xmlns:xlink="http://www.w3.org/1999/xlink">
<g id="graph0" class="graph" transform="scale(1 1) rotate(0) translate(4 1163)">
<polygon fill="white" stroke="none" points="-4,4 -4,-1163 1764,-1163 1764,4 -4,4"/>
<!-- 6536 -->
<g id="node1" class="node">
<title>6536</title>
<ellipse fill="none" stroke="#e09d4b" cx="526.56" cy="-29.4" rx="153.97" ry="28.99"/>
<text text-anchor="middle" x="526.56" y="-32.6" font-family="Times,serif" font-size="14.00" fill="gray">FedoraEntry</text>
<text text-anchor="middle" x="526.56" y="-16.1" font-family="Times,serif" font-size="14.00" fill="gray">fe85011f31baf43718ebfb96a107f720</text>
</g>
<!-- 6537 -->
<g id="node2" class="node">
<title>6537</title>
<polygon fill="none" stroke="#e09d4b" points="893.61,-591.98 893.61,-606.89 751.04,-617.43 549.41,-617.43 406.85,-606.89 406.85,-591.98 549.41,-581.43 751.04,-581.43 893.61,-591.98"/>
<polygon fill="none" stroke="#e09d4b" points="897.61,-588.26 897.61,-610.6 751.19,-621.43 549.27,-621.43 402.85,-610.6 402.85,-588.26 549.27,-577.43 751.19,-577.43 897.61,-588.26"/>
<text text-anchor="middle" x="650.23" y="-594.38" font-family="Times,serif" font-size="14.00">Fedora:GPL&#45;2.0&#45;or&#45;later_WITH_Classpath&#45;exception&#45;2.0</text>
</g>
<!-- 6536&#45;&gt;6537 -->
<g id="edge1" class="edge">
<title>6536&#45;&gt;6537</title>
<path fill="none" stroke="#e09d4b" d="M523.09,-58.8C503.11,-231.07 509.02,-252.76 636.93,-566.8"/>
<polygon fill="#e09d4b" stroke="#e09d4b" points="633.55,-567.79 640.57,-575.73 640.04,-565.15 633.55,-567.79"/>
</g>
<!-- 6538 -->
<g id="node3" class="node">
<title>6538</title>
<polygon fill="none" stroke="#e09d4b" points="922.78,-535 922.78,-549.91 798.06,-560.46 621.68,-560.46 496.96,-549.91 496.96,-535 621.68,-524.46 798.06,-524.46 922.78,-535"/>
<polygon fill="none" stroke="#e09d4b" points="926.78,-531.32 926.78,-553.59 798.23,-564.46 621.51,-564.46 492.96,-553.59 492.96,-531.32 621.51,-520.46 798.23,-520.46 926.78,-531.32"/>
<text text-anchor="middle" x="709.87" y="-537.41" font-family="Times,serif" font-size="14.00">GPL&#45;2.0&#45;or&#45;later_WITH_Classpath&#45;exception&#45;2.0</text>
</g>
<!-- 6538&#45;&gt;6537 -->
<g id="edge2" class="edge">
<title>6538&#45;&gt;6537</title>
<path fill="none" stroke="#e09d4b" stroke-width="2" d="M674.64,-564.64C672.63,-566.13 670.87,-567.55 669.28,-568.95"/>
<polygon fill="#e09d4b" stroke="#e09d4b" stroke-width="2" points="663.39,-575.45 666.77,-565.01 664.74,-573.21 669.74,-567.7 670.11,-568.04 670.48,-568.37 665.48,-573.88 673.44,-571.06 663.39,-575.45"/>
</g>
<!-- 6539 -->
<g id="node4" class="node">
<title>6539</title>
<polygon fill="none" stroke="black" points="1294.83,-660.27 1294.83,-675.18 1160.69,-685.72 971,-685.72 836.87,-675.18 836.87,-660.27 971,-649.72 1160.69,-649.72 1294.83,-660.27"/>
<polygon fill="none" stroke="black" points="1298.83,-656.57 1298.83,-678.88 1160.85,-689.72 970.85,-689.72 832.87,-678.88 832.87,-656.57 970.85,-645.72 1160.85,-645.72 1298.83,-656.57"/>
<polygon fill="none" stroke="black" points="1302.83,-652.87 1302.83,-682.57 1161.01,-693.72 970.69,-693.72 828.87,-682.57 828.87,-652.87 970.69,-641.72 1161.01,-641.72 1302.83,-652.87"/>
<text text-anchor="middle" x="1065.85" y="-662.67" font-family="Times,serif" font-size="14.00">spdx:GPL&#45;2.0&#45;or&#45;later WITH Classpath&#45;exception&#45;2.0</text>
</g>
<!-- 6539&#45;&gt;6537 -->
<g id="edge3" class="edge">
<title>6539&#45;&gt;6537</title>
<path fill="none" stroke="#e09d4b" stroke-width="2" d="M928.5,-690.87C829.82,-703.36 792.93,-689.06 694.98,-627.79"/>
<polygon fill="#e09d4b" stroke="#e09d4b" stroke-width="2" points="687.69,-623.21 698.55,-624.72 690.13,-624.15 696.42,-628.1 696.16,-628.53 695.89,-628.95 689.59,-624.99 693.76,-632.34 687.69,-623.21"/>
</g>
<!-- 6540 -->
<g id="node5" class="node">
<title>6540</title>
<polygon fill="none" stroke="black" points="1198.39,-717.34 1198.39,-732.25 1076.91,-742.79 905.12,-742.79 783.65,-732.25 783.65,-717.34 905.12,-706.79 1076.91,-706.79 1198.39,-717.34"/>
<polygon fill="none" stroke="black" points="1202.39,-713.67 1202.39,-735.92 1077.09,-746.79 904.95,-746.79 779.65,-735.92 779.65,-713.67 904.95,-702.79 1077.09,-702.79 1202.39,-713.67"/>
<text text-anchor="middle" x="991.02" y="-719.74" font-family="Times,serif" font-size="14.00">GPL&#45;2.0&#45;or&#45;later WITH Classpath&#45;exception&#45;2.0</text>
</g>
<!-- 6540&#45;&gt;6539 -->
<g id="edge4" class="edge">
<title>6540&#45;&gt;6539</title>
<path fill="none" stroke="black" stroke-width="2" d="M1042.48,-702.53C1042.64,-702.38 1042.81,-702.23 1042.97,-702.07"/>
<polygon fill="black" stroke="black" stroke-width="2" points="1048.34,-695.91 1045.17,-706.41 1047.04,-698.17 1042.15,-703.78 1041.77,-703.45 1041.4,-703.12 1046.28,-697.51 1038.38,-700.49 1048.34,-695.91"/>
</g>
<!-- 6541 -->
<g id="node6" class="node">
<title>6541</title>
<polygon fill="none" stroke="#e09d4b" points="801.4,-641.55 801.4,-656.46 632.87,-667 394.53,-667 226,-656.46 226,-641.55 394.53,-631 632.87,-631 801.4,-641.55"/>
<text text-anchor="middle" x="513.7" y="-643.95" font-family="Times,serif" font-size="14.00">GNU General Public License v2.0 or later, with Classpath exception</text>
</g>
<!-- 6541&#45;&gt;6537 -->
<g id="edge5" class="edge">
<title>6541&#45;&gt;6537</title>
<path fill="none" stroke="#e09d4b" stroke-dasharray="5,2" d="M552.17,-630.58C556.4,-628.9 560.97,-627.21 566.25,-625.39"/>
<polygon fill="#e09d4b" stroke="#e09d4b" points="575.44,-622.31 567.38,-629.75 571.85,-623.51 565.96,-625.49 565.96,-625.49 565.96,-625.49 571.85,-623.51 564.53,-621.22 575.44,-622.31"/>
</g>
<!-- 6542 -->
<g id="node7" class="node">
<title>6542</title>
<polygon fill="none" stroke="#e09d4b" points="225.23,-593.08 225.23,-607.99 159.25,-618.53 65.93,-618.53 -0.05,-607.99 -0.05,-593.08 65.93,-582.53 159.25,-582.53 225.23,-593.08"/>
<text text-anchor="middle" x="112.59" y="-595.48" font-family="Times,serif" font-size="14.00">GPLv2+ with exceptions</text>
</g>
<!-- 6542&#45;&gt;6537 -->
<g id="edge6" class="edge">
<title>6542&#45;&gt;6537</title>
<path fill="none" stroke="#e09d4b" stroke-dasharray="5,2" d="M225.73,-602.9C270.56,-603.5 314.61,-603.45 391.47,-602.66"/>
<polygon fill="#e09d4b" stroke="#e09d4b" points="401.32,-602.56 391.37,-607.17 397.54,-602.6 391.32,-602.67 391.32,-602.67 391.32,-602.67 397.54,-602.6 391.27,-598.17 401.32,-602.56"/>
</g>
<!-- 28718 -->
<g id="node8" class="node">
<title>28718</title>
<ellipse fill="none" stroke="#e06f45" cx="1602.67" cy="-498.22" rx="157.68" ry="28.99"/>
<text text-anchor="middle" x="1602.67" y="-501.42" font-family="Times,serif" font-size="14.00" fill="gray">OrtLicenseCategorization</text>
<text text-anchor="middle" x="1602.67" y="-484.92" font-family="Times,serif" font-size="14.00" fill="gray">e1650ea9d3d0d3ab72ee0f457ec54c20</text>
</g>
<!-- 28718&#45;&gt;6539 -->
<g id="edge7" class="edge">
<title>28718&#45;&gt;6539</title>
<path fill="none" stroke="#e06f45" d="M1551.6,-526.05C1456.64,-576.81 1413.14,-590.57 1190.11,-640.27"/>
<polygon fill="#e06f45" stroke="#e06f45" points="1189.49,-636.82 1180.48,-642.41 1191.01,-643.65 1189.49,-636.82"/>
</g>
<!-- 35483 -->
<g id="node9" class="node">
<title>35483</title>
<ellipse fill="none" stroke="#e09d4b" cx="1390.36" cy="-1130.45" rx="155.56" ry="28.99"/>
<text text-anchor="middle" x="1390.36" y="-1133.65" font-family="Times,serif" font-size="14.00" fill="gray">OrtLicenseCategorization</text>
<text text-anchor="middle" x="1390.36" y="-1117.15" font-family="Times,serif" font-size="14.00" fill="gray">835e574f8ab68c6dc0f86e1eda25f791</text>
</g>
<!-- 35483&#45;&gt;6539 -->
<g id="edge8" class="edge">
<title>35483&#45;&gt;6539</title>
<path fill="none" stroke="#e09d4b" d="M1375.37,-1101.1C1313,-979.48 1296.21,-956.61 1093.67,-702.61"/>
<polygon fill="#e09d4b" stroke="#e09d4b" points="1096.61,-700.68 1087.64,-695.04 1091.14,-705.05 1096.61,-700.68"/>
</g>
</g>
</svg>
