<?xml version="1.0" encoding="UTF-8" standalone="no"?>
<!DOCTYPE svg PUBLIC "-//W3C//DTD SVG 1.1//EN"
 "http://www.w3.org/Graphics/SVG/1.1/DTD/svg11.dtd">
<!-- Generated by graphviz version 10.0.1 (0)
 -->
<!-- Pages: 1 -->
<svg width="3615pt" height="4650pt"
 viewBox="0.00 0.00 3615.00 4650.00" xmlns="http://www.w3.org/2000/svg" xmlns:xlink="http://www.w3.org/1999/xlink">
<g id="graph0" class="graph" transform="scale(1 1) rotate(0) translate(4 4646)">
<polygon fill="white" stroke="none" points="-4,4 -4,-4646 3611,-4646 3611,4 -4,4"/>
<!-- 5 -->
<g id="node1" class="node">
<title>5</title>
<text text-anchor="start" x="3019.62" y="-2600.39" font-family="Times,serif" font-size="14.00">OSI: </text>
<text text-anchor="start" x="3048.87" y="-2600.39" font-family="Times,serif" font-weight="bold" font-size="14.00" fill="#8b0000">Rejected</text>
</g>
<!-- 2230 -->
<g id="node2" class="node">
<title>2230</title>
<ellipse fill="none" stroke="#dac767" cx="2846.55" cy="-2877.57" rx="154.5" ry="28.99"/>
<text text-anchor="middle" x="2846.55" y="-2880.77" font-family="Times,serif" font-size="14.00" fill="gray">SPDXLicense</text>
<text text-anchor="middle" x="2846.55" y="-2864.27" font-family="Times,serif" font-size="14.00" fill="gray">cac8c6c411e190f1f2ea6d49d29bbfc6</text>
</g>
<!-- 5&#45;&gt;2230 -->
<g id="edge1" class="edge">
<title>5&#45;&gt;2230</title>
<path fill="none" stroke="#dac767" d="M3054.81,-2622.08C3022.15,-2748 3013.4,-2766.14 2898.85,-2842.97"/>
<polygon fill="#dac767" stroke="#dac767" points="2896.94,-2840.04 2890.57,-2848.5 2900.83,-2845.86 2896.94,-2840.04"/>
</g>
<!-- 2231 -->
<g id="node3" class="node">
<title>2231</title>
<polygon fill="none" stroke="black" points="2363.88,-3061.98 2363.88,-3076.89 2264.48,-3087.43 2123.89,-3087.43 2024.48,-3076.89 2024.48,-3061.98 2123.89,-3051.43 2264.48,-3051.43 2363.88,-3061.98"/>
<polygon fill="none" stroke="black" points="2367.88,-3058.38 2367.88,-3080.49 2264.69,-3091.43 2123.68,-3091.43 2020.48,-3080.49 2020.48,-3058.38 2123.68,-3047.43 2264.69,-3047.43 2367.88,-3058.38"/>
<polygon fill="none" stroke="black" points="2371.88,-3054.78 2371.88,-3084.09 2264.9,-3095.43 2123.47,-3095.43 2016.48,-3084.09 2016.48,-3054.78 2123.47,-3043.43 2264.9,-3043.43 2371.88,-3054.78"/>
<text text-anchor="middle" x="2194.18" y="-3064.38" font-family="Times,serif" font-size="14.00">spdx:GPL&#45;3.0&#45;with&#45;autoconf&#45;exception</text>
</g>
<!-- 2230&#45;&gt;2231 -->
<g id="edge2" class="edge">
<title>2230&#45;&gt;2231</title>
<path fill="none" stroke="#dac767" d="M2812.05,-2906.19C2655.52,-3035.48 2612.01,-3059.7 2383.57,-3066.48"/>
<polygon fill="#dac767" stroke="#dac767" points="2383.61,-3062.97 2373.71,-3066.75 2383.8,-3069.97 2383.61,-3062.97"/>
</g>
<!-- 6541 -->
<g id="node14" class="node">
<title>6541</title>
<polygon fill="none" stroke="#e06f45" points="2614.85,-3613.93 2614.85,-3628.84 2519.99,-3639.39 2385.82,-3639.39 2290.96,-3628.84 2290.96,-3613.93 2385.82,-3603.39 2519.99,-3603.39 2614.85,-3613.93"/>
<polygon fill="none" stroke="#e06f45" points="2618.85,-3610.35 2618.85,-3632.42 2520.21,-3643.39 2385.6,-3643.39 2286.96,-3632.42 2286.96,-3610.35 2385.6,-3599.39 2520.21,-3599.39 2618.85,-3610.35"/>
<text text-anchor="middle" x="2452.91" y="-3616.34" font-family="Times,serif" font-size="14.00">google:GPL30withautoconfexception</text>
</g>
<!-- 2231&#45;&gt;6541 -->
<g id="edge3" class="edge">
<title>2231&#45;&gt;6541</title>
<path fill="none" stroke="#e06f45" stroke-width="2" d="M2206.86,-3095.86C2366.55,-3428.74 2379.37,-3455.71 2438.44,-3588.78"/>
<polygon fill="#e06f45" stroke="#e06f45" stroke-width="2" points="2441.98,-3596.75 2433.81,-3589.44 2440.48,-3594.61 2437.46,-3587.81 2437.92,-3587.61 2438.38,-3587.41 2441.4,-3594.21 2442.03,-3585.79 2441.98,-3596.75"/>
</g>
<!-- 30258 -->
<g id="node21" class="node">
<title>30258</title>
<polygon fill="none" stroke="black" points="1723.24,-3209.45 1723.24,-3224.36 1654.01,-3234.9 1556.1,-3234.9 1486.87,-3224.36 1486.87,-3209.45 1556.1,-3198.9 1654.01,-3198.9 1723.24,-3209.45"/>
<polygon fill="none" stroke="black" points="1727.24,-3206.01 1727.24,-3227.79 1654.31,-3238.9 1555.8,-3238.9 1482.87,-3227.79 1482.87,-3206.01 1555.8,-3194.9 1654.31,-3194.9 1727.24,-3206.01"/>
<text text-anchor="middle" x="1605.05" y="-3211.85" font-family="Times,serif" font-size="14.00">scancode:gpl&#45;3.0&#45;autoconf</text>
</g>
<!-- 2231&#45;&gt;30258 -->
<g id="edge4" class="edge">
<title>2231&#45;&gt;30258</title>
<path fill="none" stroke="#deb256" stroke-width="2" d="M2083.44,-3091.6C1965.12,-3119.13 1780.89,-3165.49 1679.03,-3193.55"/>
<polygon fill="#deb256" stroke="#deb256" stroke-width="2" points="1670.58,-3195.9 1679.01,-3188.89 1672.91,-3194.73 1680.08,-3192.74 1680.21,-3193.23 1680.35,-3193.71 1673.18,-3195.69 1681.42,-3197.56 1670.58,-3195.9"/>
</g>
<!-- 2232 -->
<g id="node4" class="node">
<title>2232</title>
<polygon fill="none" stroke="black" points="2680.64,-3003.66 2680.64,-3018.57 2593.89,-3029.12 2471.2,-3029.12 2384.45,-3018.57 2384.45,-3003.66 2471.2,-2993.12 2593.89,-2993.12 2680.64,-3003.66"/>
<polygon fill="none" stroke="black" points="2684.64,-3000.12 2684.64,-3022.12 2594.13,-3033.12 2470.96,-3033.12 2380.45,-3022.12 2380.45,-3000.12 2470.96,-2989.12 2594.13,-2989.12 2684.64,-3000.12"/>
<text text-anchor="middle" x="2532.54" y="-3006.07" font-family="Times,serif" font-size="14.00">GPL&#45;3.0&#45;with&#45;autoconf&#45;exception</text>
</g>
<!-- 2232&#45;&gt;2231 -->
<g id="edge5" class="edge">
<title>2232&#45;&gt;2231</title>
<path fill="none" stroke="black" stroke-width="2" d="M2498.04,-3033.6C2451.23,-3063.6 2422.94,-3078.2 2383.25,-3082.57"/>
<polygon fill="black" stroke="black" stroke-width="2" points="2374.74,-3083.29 2384.32,-3077.96 2377.25,-3082.57 2384.66,-3081.94 2384.7,-3082.44 2384.75,-3082.94 2377.34,-3083.57 2385.09,-3086.93 2374.74,-3083.29"/>
</g>
<!-- 33895 -->
<g id="node27" class="node">
<title>33895</title>
<polygon fill="none" stroke="#e18745" points="2370.6,-2674.1 2370.6,-2689.01 2259.51,-2699.56 2102.4,-2699.56 1991.31,-2689.01 1991.31,-2674.1 2102.4,-2663.56 2259.51,-2663.56 2370.6,-2674.1"/>
<polygon fill="none" stroke="#e18745" points="2374.6,-2670.46 2374.6,-2692.65 2259.7,-2703.56 2102.21,-2703.56 1987.31,-2692.65 1987.31,-2670.46 2102.21,-2659.56 2259.7,-2659.56 2374.6,-2670.46"/>
<text text-anchor="middle" x="2180.95" y="-2676.51" font-family="Times,serif" font-size="14.00">fossology:GPL&#45;3.0&#45;with&#45;autoconf&#45;exception</text>
</g>
<!-- 2232&#45;&gt;33895 -->
<g id="edge6" class="edge">
<title>2232&#45;&gt;33895</title>
<path fill="none" stroke="#e18745" stroke-width="2" d="M2508.42,-2988.7C2429.06,-2914.93 2408.45,-2895.59 2212.55,-2711.28"/>
<polygon fill="#e18745" stroke="#e18745" stroke-width="2" points="2206.38,-2705.48 2216.74,-2709.05 2208.59,-2706.87 2214,-2711.97 2213.66,-2712.33 2213.32,-2712.69 2207.9,-2707.6 2210.58,-2715.61 2206.38,-2705.48"/>
</g>
<!-- 2233 -->
<g id="node5" class="node">
<title>2233</title>
<polygon fill="none" stroke="black" points="1980.47,-2600.53 1980.47,-2615.45 1838.55,-2625.99 1637.84,-2625.99 1495.92,-2615.45 1495.92,-2600.53 1637.84,-2589.99 1838.55,-2589.99 1980.47,-2600.53"/>
<polygon fill="none" stroke="black" points="1984.47,-2596.82 1984.47,-2619.16 1838.7,-2629.99 1637.7,-2629.99 1491.92,-2619.16 1491.92,-2596.82 1637.7,-2585.99 1838.7,-2585.99 1984.47,-2596.82"/>
<text text-anchor="middle" x="1738.2" y="-2602.94" font-family="Times,serif" font-size="14.00">GNU General Public License v3.0 w/Autoconf exception</text>
</g>
<!-- 2233&#45;&gt;2231 -->
<g id="edge7" class="edge">
<title>2233&#45;&gt;2231</title>
<path fill="none" stroke="#dac767" stroke-width="2" d="M1755.03,-2630.35C1977.35,-2925.59 2005.22,-2960.21 2138.57,-3037.72"/>
<polygon fill="#dac767" stroke="#dac767" stroke-width="2" points="2145.82,-3041.91 2134.91,-3040.8 2143.35,-3041.06 2136.91,-3037.34 2137.16,-3036.91 2137.41,-3036.47 2143.85,-3040.2 2139.42,-3033.01 2145.82,-3041.91"/>
</g>
<!-- 2233&#45;&gt;33895 -->
<g id="edge8" class="edge">
<title>2233&#45;&gt;33895</title>
<path fill="none" stroke="#e18745" stroke-width="2" d="M1787.75,-2630.34C1945.72,-2701.32 1992.21,-2717.76 2076.33,-2704.46"/>
<polygon fill="#e18745" stroke="#e18745" stroke-width="2" points="2084.94,-2702.99 2075.83,-2709.1 2082.5,-2703.92 2075.16,-2705.16 2075.08,-2704.67 2075,-2704.17 2082.33,-2702.93 2074.33,-2700.23 2084.94,-2702.99"/>
</g>
<!-- 65289 -->
<g id="node33" class="node">
<title>65289</title>
<polygon fill="none" stroke="#dc574a" points="1535.93,-2142.48 1535.93,-2157.39 1376.16,-2167.93 1150.21,-2167.93 990.45,-2157.39 990.45,-2142.48 1150.21,-2131.93 1376.16,-2131.93 1535.93,-2142.48"/>
<polygon fill="none" stroke="#dc574a" points="1539.93,-2138.73 1539.93,-2161.13 1376.29,-2171.93 1150.08,-2171.93 986.45,-2161.13 986.45,-2138.73 1150.08,-2127.93 1376.29,-2127.93 1539.93,-2138.73"/>
<text text-anchor="middle" x="1263.19" y="-2144.88" font-family="Times,serif" font-size="14.00">ifrOSS:GNU General Public License v3.0 w/Autoconf exception</text>
</g>
<!-- 2233&#45;&gt;65289 -->
<g id="edge9" class="edge">
<title>2233&#45;&gt;65289</title>
<path fill="none" stroke="#dc574a" stroke-width="2" d="M1697.82,-2585.52C1386.08,-2411.85 1368.02,-2395.34 1277.03,-2182.44"/>
<polygon fill="#dc574a" stroke="#dc574a" stroke-width="2" points="1273.59,-2174.39 1281.66,-2181.82 1275.06,-2176.55 1277.98,-2183.39 1277.52,-2183.59 1277.06,-2183.78 1274.14,-2176.94 1273.38,-2185.35 1273.59,-2174.39"/>
</g>
<!-- 67353 -->
<g id="node36" class="node">
<title>67353</title>
<polygon fill="none" stroke="#00876c" points="1956.33,-2655.82 1956.33,-2670.73 1801.76,-2681.28 1583.15,-2681.28 1428.58,-2670.73 1428.58,-2655.82 1583.15,-2645.28 1801.76,-2645.28 1956.33,-2655.82"/>
<polygon fill="none" stroke="#00876c" points="1960.33,-2652.09 1960.33,-2674.47 1801.89,-2685.28 1583.02,-2685.28 1424.58,-2674.47 1424.58,-2652.09 1583.02,-2641.28 1801.89,-2641.28 1960.33,-2652.09"/>
<text text-anchor="middle" x="1692.46" y="-2658.23" font-family="Times,serif" font-size="14.00">spdx:GNU General Public License v3.0 w/Autoconf exception</text>
</g>
<!-- 2233&#45;&gt;67353 -->
<g id="edge10" class="edge">
<title>2233&#45;&gt;67353</title>
<path fill="none" stroke="#00876c" stroke-width="2" d="M1723.61,-2630.43C1723.26,-2630.95 1722.92,-2631.46 1722.59,-2631.95"/>
<polygon fill="#00876c" stroke="#00876c" stroke-width="2" points="1717.8,-2638.85 1719.81,-2628.07 1718.85,-2636.46 1723.1,-2630.35 1723.51,-2630.63 1723.92,-2630.92 1719.67,-2637.03 1727.2,-2633.2 1717.8,-2638.85"/>
</g>
<!-- 2234 -->
<g id="node6" class="node">
<title>2234</title>
<text text-anchor="middle" x="3359.55" y="-2915.1" font-family="Times,serif" font-size="14.00">spdx:GPL&#45;3.0&#45;with&#45;autoconf&#45;exception is a deprecated LicenseId</text>
</g>
<!-- 2234&#45;&gt;2230 -->
<g id="edge11" class="edge">
<title>2234&#45;&gt;2230</title>
<path fill="none" stroke="#dac767" d="M3173.98,-2930.26C3127.06,-2926.39 3067.57,-2916.92 2970.29,-2899.73"/>
<polygon fill="#dac767" stroke="#dac767" points="2971.14,-2896.33 2960.68,-2898.03 2969.92,-2903.22 2971.14,-2896.33"/>
</g>
<!-- 2235 -->
<g id="node7" class="node">
<title>2235</title>
<text text-anchor="middle" x="3361.48" y="-3159.87" font-family="Times,serif" font-size="14.00">SPDXLicense:</text>
<text text-anchor="middle" x="3361.48" y="-3143.37" font-family="Times,serif" font-size="14.00">DEPRECATED: Use license expression including main license, &quot;WITH&quot; operator, and</text>
<text text-anchor="middle" x="3361.48" y="-3126.87" font-family="Times,serif" font-size="14.00">identifier: Autoconf&#45;exception&#45;3.0</text>
</g>
<!-- 2235&#45;&gt;2230 -->
<g id="edge12" class="edge">
<title>2235&#45;&gt;2230</title>
<path fill="none" stroke="#dac767" d="M3306.45,-3119.69C3207.83,-3068.19 3164.81,-3045.52 2909.06,-2910.56"/>
<polygon fill="#dac767" stroke="#dac767" points="2910.91,-2907.58 2900.43,-2906.01 2907.64,-2913.77 2910.91,-2907.58"/>
</g>
<!-- 2236 -->
<g id="node8" class="node">
<title>2236</title>
<text text-anchor="middle" x="3212.69" y="-2713.95" font-family="Times,serif" font-size="14.00">$TEXT</text>
</g>
<!-- 2236&#45;&gt;2230 -->
<g id="edge13" class="edge">
<title>2236&#45;&gt;2230</title>
<path fill="none" stroke="#dac767" d="M3194.63,-2736.94C3120.96,-2809.75 3097.39,-2825.76 2964.63,-2853.94"/>
<polygon fill="#dac767" stroke="#dac767" points="2964.15,-2850.47 2955.09,-2855.95 2965.59,-2857.32 2964.15,-2850.47"/>
</g>
<!-- 2237 -->
<g id="node9" class="node">
<title>2237</title>
<text text-anchor="middle" x="3380.27" y="-2625.42" font-family="Times,serif" font-size="14.00">$TEXT</text>
</g>
<!-- 2237&#45;&gt;2236 -->
<g id="edge14" class="edge">
<title>2237&#45;&gt;2236</title>
<path fill="none" stroke="#dac767" d="M3364.55,-2648.03C3336.11,-2678.99 3322.37,-2686.2 3251.91,-2707.38"/>
<polygon fill="#dac767" stroke="#dac767" points="3251.12,-2703.96 3242.54,-2710.18 3253.12,-2710.67 3251.12,-2703.96"/>
</g>
<!-- 2238 -->
<g id="node10" class="node">
<title>2238</title>
<text text-anchor="middle" x="2644.25" y="-2470.52" font-family="Times,serif" font-size="14.00">https://www.gnu.org/licenses/autoconf&#45;exception&#45;3.0.html</text>
</g>
<!-- 2238&#45;&gt;2230 -->
<g id="edge15" class="edge">
<title>2238&#45;&gt;2230</title>
<path fill="none" stroke="#dac767" d="M2658.53,-2493.5C2814.38,-2689.33 2828.62,-2710.38 2842.39,-2837.11"/>
<polygon fill="#dac767" stroke="#dac767" points="2838.9,-2837.39 2843.44,-2846.97 2845.86,-2836.65 2838.9,-2837.39"/>
</g>
<!-- 33894 -->
<g id="node26" class="node">
<title>33894</title>
<ellipse fill="none" stroke="#e18745" cx="2198.24" cy="-2619.94" rx="159.28" ry="28.99"/>
<text text-anchor="middle" x="2198.24" y="-2623.14" font-family="Times,serif" font-size="14.00" fill="gray">Fossology</text>
<text text-anchor="middle" x="2198.24" y="-2606.64" font-family="Times,serif" font-size="14.00" fill="gray">82c5af1475d45718eb23070c12c72de8</text>
</g>
<!-- 2238&#45;&gt;33894 -->
<g id="edge16" class="edge">
<title>2238&#45;&gt;33894</title>
<path fill="none" stroke="#e18745" d="M2621.11,-2493.43C2529.96,-2563.43 2500.83,-2578.44 2339.6,-2601.29"/>
<polygon fill="#e18745" stroke="#e18745" points="2339.19,-2597.81 2329.78,-2602.67 2340.17,-2604.74 2339.19,-2597.81"/>
</g>
<!-- 5758 -->
<g id="node11" class="node">
<title>5758</title>
<text text-anchor="middle" x="666.35" y="-13.43" font-family="Times,serif" font-size="14.00">LicenseType Copyleft</text>
</g>
<!-- 10710 -->
<g id="node16" class="node">
<title>10710</title>
<text text-anchor="middle" x="676.77" y="-288.9" font-family="Times,serif" font-size="14.00">LicenseType Weakly Protective</text>
</g>
<!-- 5758&#45;&gt;10710 -->
<g id="edge17" class="edge">
<title>5758&#45;&gt;10710</title>
<path fill="none" stroke="#00876c" d="M662.26,-36.46C647.12,-104.11 648.06,-119.17 672.02,-265.07"/>
<polygon fill="#00876c" stroke="#00876c" points="668.54,-265.48 673.62,-274.78 675.45,-264.35 668.54,-265.48"/>
</g>
<!-- 6485 -->
<g id="node12" class="node">
<title>6485</title>
<text text-anchor="start" x="2734.65" y="-4625.9" font-family="Times,serif" font-size="14.00">Google Policy Classification: </text>
<text text-anchor="start" x="2898.15" y="-4625.9" font-family="Times,serif" font-weight="bold" font-size="14.00" fill="#8b0000">restricted</text>
<text text-anchor="start" x="2634.9" y="-4611.9" font-family="Times,serif" font-size="14.00">restricted &#45; Licenses in this category require mandatory source distribution if</text>
<text text-anchor="start" x="2634.15" y="-4597.9" font-family="Times,serif" font-size="14.00">we ships a product that includes third&#45;party code protected by such a license.</text>
</g>
<!-- 6540 -->
<g id="node13" class="node">
<title>6540</title>
<ellipse fill="none" stroke="#e06f45" cx="2623.47" cy="-4134.88" rx="162.46" ry="28.99"/>
<text text-anchor="middle" x="2623.47" y="-4138.08" font-family="Times,serif" font-size="14.00" fill="gray">GoogleLicense</text>
<text text-anchor="middle" x="2623.47" y="-4121.58" font-family="Times,serif" font-size="14.00" fill="gray">03439695bbba33c456a2b395753b2b68</text>
</g>
<!-- 6485&#45;&gt;6540 -->
<g id="edge18" class="edge">
<title>6485&#45;&gt;6540</title>
<path fill="none" stroke="#e06f45" d="M2832.74,-4592.43C2779.4,-4476.65 2769.07,-4454.07 2641.44,-4174.27"/>
<polygon fill="#e06f45" stroke="#e06f45" points="2644.81,-4173.23 2637.48,-4165.58 2638.44,-4176.13 2644.81,-4173.23"/>
</g>
<!-- 6540&#45;&gt;6541 -->
<g id="edge19" class="edge">
<title>6540&#45;&gt;6541</title>
<path fill="none" stroke="#e06f45" d="M2616.25,-4105.59C2584.92,-3978.99 2576.34,-3954.42 2465.18,-3654.51"/>
<polygon fill="#e06f45" stroke="#e06f45" points="2468.47,-3653.3 2461.71,-3645.14 2461.9,-3655.73 2468.47,-3653.3"/>
</g>
<!-- 6542 -->
<g id="node15" class="node">
<title>6542</title>
<polygon fill="none" stroke="#e06f45" points="2906.44,-3927.83 2906.44,-3942.74 2829.1,-3953.29 2719.72,-3953.29 2642.38,-3942.74 2642.38,-3927.83 2719.72,-3917.29 2829.1,-3917.29 2906.44,-3927.83"/>
<polygon fill="none" stroke="#e06f45" points="2910.44,-3924.34 2910.44,-3946.23 2829.37,-3957.29 2719.45,-3957.29 2638.38,-3946.23 2638.38,-3924.34 2719.45,-3913.29 2829.37,-3913.29 2910.44,-3924.34"/>
<text text-anchor="middle" x="2774.41" y="-3930.24" font-family="Times,serif" font-size="14.00">GPL30withautoconfexception</text>
</g>
<!-- 6542&#45;&gt;6541 -->
<g id="edge20" class="edge">
<title>6542&#45;&gt;6541</title>
<path fill="none" stroke="#e06f45" stroke-width="2" d="M2741.17,-3912.92C2659.46,-3857.28 2638.07,-3834.6 2479.53,-3652.06"/>
<polygon fill="#e06f45" stroke="#e06f45" stroke-width="2" points="2473.97,-3645.65 2483.92,-3650.25 2476.02,-3647.26 2480.9,-3652.87 2480.52,-3653.2 2480.15,-3653.53 2475.27,-3647.91 2477.12,-3656.15 2473.97,-3645.65"/>
</g>
<!-- 65098 -->
<g id="node30" class="node">
<title>65098</title>
<text text-anchor="start" x="508.52" y="-822.83" font-family="Times,serif" font-size="14.00">ifrOSS Classification: </text>
<text text-anchor="start" x="631.52" y="-822.83" font-family="Times,serif" font-weight="bold" font-size="14.00" fill="#000000">Lizenzen mit beschränktem Copyleft&#45;Effekt</text>
<text text-anchor="start" x="470.27" y="-808.83" font-family="Times,serif" font-size="14.00">Lizenzen mit beschränktem Copyleft&#45;Effekt haben ebenfalls einen Copyleft&#45;Effekt,</text>
<text text-anchor="start" x="496.15" y="-794.83" font-family="Times,serif" font-size="14.00">der aber nicht alle Berbeitungen und abgeleiteten Werke umfasst, sondern</text>
<text text-anchor="start" x="615.77" y="-780.83" font-family="Times,serif" font-size="14.00">definierte Ausnahmen enthält.</text>
</g>
<!-- 10710&#45;&gt;65098 -->
<g id="edge21" class="edge">
<title>10710&#45;&gt;65098</title>
<path fill="none" stroke="#dc574a" d="M672.16,-311.7C634.44,-457.16 634.8,-474.68 689.68,-763.9"/>
<polygon fill="#dc574a" stroke="#dc574a" points="686.24,-764.53 691.54,-773.7 693.12,-763.23 686.24,-764.53"/>
</g>
<!-- 12439 -->
<g id="node17" class="node">
<title>12439</title>
<text text-anchor="middle" x="829.45" y="-3486.44" font-family="Times,serif" font-size="14.00">LicenseType Copyleft Limited</text>
</g>
<!-- 30257 -->
<g id="node20" class="node">
<title>30257</title>
<ellipse fill="none" stroke="#deb256" cx="1064.34" cy="-3149.94" rx="157.68" ry="28.99"/>
<text text-anchor="middle" x="1064.34" y="-3153.14" font-family="Times,serif" font-size="14.00" fill="gray">ScancodeData</text>
<text text-anchor="middle" x="1064.34" y="-3136.64" font-family="Times,serif" font-size="14.00" fill="gray">42ff2162aee399bdb4ed78de4068c583</text>
</g>
<!-- 12439&#45;&gt;30257 -->
<g id="edge22" class="edge">
<title>12439&#45;&gt;30257</title>
<path fill="none" stroke="#deb256" d="M840.01,-3473.58C890.26,-3388.43 901.67,-3371.85 1036.34,-3188.12"/>
<polygon fill="#deb256" stroke="#deb256" points="1039.08,-3190.31 1042.17,-3180.18 1033.43,-3186.17 1039.08,-3190.31"/>
</g>
<!-- 28859 -->
<g id="node18" class="node">
<title>28859</title>
<text text-anchor="middle" x="564.69" y="-3205.2" font-family="Times,serif" font-size="14.00">http://www.gnu.org/licenses/autoconf&#45;exception&#45;3.0.html</text>
</g>
<!-- 28859&#45;&gt;30257 -->
<g id="edge23" class="edge">
<title>28859&#45;&gt;30257</title>
<path fill="none" stroke="#deb256" d="M660.82,-3228.25C741.65,-3239.47 794.8,-3228.69 968.93,-3177.99"/>
<polygon fill="#deb256" stroke="#deb256" points="969.68,-3181.41 978.3,-3175.25 967.72,-3174.69 969.68,-3181.41"/>
</g>
<!-- 28860 -->
<g id="node19" class="node">
<title>28860</title>
<text text-anchor="middle" x="1007.96" y="-2607.16" font-family="Times,serif" font-size="14.00">http://www.gnu.org/licenses/autoconf&#45;exception&#45;3.0.html</text>
</g>
<!-- 28860&#45;&gt;30257 -->
<g id="edge24" class="edge">
<title>28860&#45;&gt;30257</title>
<path fill="none" stroke="#deb256" d="M1004.81,-2629.92C952.72,-2923.06 950.89,-2946.53 1042.33,-3110.74"/>
<polygon fill="#deb256" stroke="#deb256" points="1039.24,-3112.37 1047.17,-3119.4 1045.35,-3108.96 1039.24,-3112.37"/>
</g>
<!-- 65288 -->
<g id="node32" class="node">
<title>65288</title>
<ellipse fill="none" stroke="#dc574a" cx="1149.51" cy="-2087.59" rx="158.22" ry="28.99"/>
<text text-anchor="middle" x="1149.51" y="-2090.79" font-family="Times,serif" font-size="14.00" fill="gray">ifrOSS License</text>
<text text-anchor="middle" x="1149.51" y="-2074.29" font-family="Times,serif" font-size="14.00" fill="gray">c900216d62743c7f95e54c65beceb82e</text>
</g>
<!-- 28860&#45;&gt;65288 -->
<g id="edge25" class="edge">
<title>28860&#45;&gt;65288</title>
<path fill="none" stroke="#dc574a" d="M1005.36,-2594.49C972.06,-2366.52 974.03,-2349.24 1123.68,-2126.02"/>
<polygon fill="#dc574a" stroke="#dc574a" points="1126.48,-2128.13 1129.15,-2117.87 1120.67,-2124.23 1126.48,-2128.13"/>
</g>
<!-- 30257&#45;&gt;30258 -->
<g id="edge26" class="edge">
<title>30257&#45;&gt;30258</title>
<path fill="none" stroke="#deb256" d="M1112.04,-3178.05C1263.31,-3266.33 1299.94,-3273.77 1506.66,-3235.65"/>
<polygon fill="#deb256" stroke="#deb256" points="1507.24,-3239.1 1516.43,-3233.84 1505.96,-3232.22 1507.24,-3239.1"/>
</g>
<!-- 30258&#45;&gt;2231 -->
<g id="edge27" class="edge">
<title>30258&#45;&gt;2231</title>
<path fill="none" stroke="#00876c" stroke-width="2" d="M1691.91,-3200.24C1801.78,-3175.19 1990.12,-3128.1 2102.31,-3097.67"/>
<polygon fill="#00876c" stroke="#00876c" stroke-width="2" points="2110.57,-3095.42 2102.1,-3102.39 2108.23,-3096.58 2101.05,-3098.53 2100.92,-3098.05 2100.79,-3097.57 2107.97,-3095.61 2099.74,-3093.71 2110.57,-3095.42"/>
</g>
<!-- 30259 -->
<g id="node22" class="node">
<title>30259</title>
<polygon fill="none" stroke="black" points="1583.94,-3534.89 1583.94,-3549.81 1537.75,-3560.35 1472.43,-3560.35 1426.24,-3549.81 1426.24,-3534.89 1472.43,-3524.35 1537.75,-3524.35 1583.94,-3534.89"/>
<polygon fill="none" stroke="black" points="1587.94,-3531.7 1587.94,-3553 1538.2,-3564.35 1471.98,-3564.35 1422.24,-3553 1422.24,-3531.7 1471.98,-3520.35 1538.2,-3520.35 1587.94,-3531.7"/>
<text text-anchor="middle" x="1505.09" y="-3537.3" font-family="Times,serif" font-size="14.00">gpl&#45;3.0&#45;autoconf</text>
</g>
<!-- 30259&#45;&gt;30258 -->
<g id="edge28" class="edge">
<title>30259&#45;&gt;30258</title>
<path fill="none" stroke="black" stroke-width="2" d="M1513.1,-3519.9C1538.5,-3448.46 1544.4,-3428.79 1595.64,-3249.79"/>
<polygon fill="black" stroke="black" stroke-width="2" points="1598.01,-3241.53 1599.58,-3252.38 1597.78,-3244.13 1595.73,-3251.28 1595.25,-3251.14 1594.77,-3251.01 1596.82,-3243.86 1590.93,-3249.91 1598.01,-3241.53"/>
</g>
<!-- 30260 -->
<g id="node23" class="node">
<title>30260</title>
<polygon fill="none" stroke="black" points="1994.84,-3057.18 1994.84,-3072.09 1908.41,-3082.63 1786.18,-3082.63 1699.75,-3072.09 1699.75,-3057.18 1786.18,-3046.63 1908.41,-3046.63 1994.84,-3057.18"/>
<polygon fill="none" stroke="black" points="1998.84,-3053.64 1998.84,-3075.63 1908.65,-3086.63 1785.94,-3086.63 1695.75,-3075.63 1695.75,-3053.64 1785.94,-3042.63 1908.65,-3042.63 1998.84,-3053.64"/>
<text text-anchor="middle" x="1847.29" y="-3059.58" font-family="Times,serif" font-size="14.00">GPL 3.0 with Autoconf exception</text>
</g>
<!-- 30260&#45;&gt;30258 -->
<g id="edge29" class="edge">
<title>30260&#45;&gt;30258</title>
<path fill="none" stroke="#deb256" stroke-width="2" d="M1825.98,-3087.04C1762.08,-3154.08 1734.47,-3180.94 1698.51,-3195.69"/>
<polygon fill="#deb256" stroke="#deb256" stroke-width="2" points="1690.39,-3198.7 1698.2,-3191 1692.62,-3197.34 1699.59,-3194.75 1699.76,-3195.22 1699.94,-3195.69 1692.96,-3198.28 1701.33,-3199.44 1690.39,-3198.7"/>
</g>
<!-- 67352 -->
<g id="node35" class="node">
<title>67352</title>
<polygon fill="none" stroke="#00876c" points="2201.42,-2998.8 2201.42,-3013.71 2091.95,-3024.25 1937.14,-3024.25 1827.67,-3013.71 1827.67,-2998.8 1937.14,-2988.25 2091.95,-2988.25 2201.42,-2998.8"/>
<polygon fill="none" stroke="#00876c" points="2205.42,-2995.16 2205.42,-3017.34 2092.14,-3028.25 1936.95,-3028.25 1823.67,-3017.34 1823.67,-2995.16 1936.95,-2984.25 2092.14,-2984.25 2205.42,-2995.16"/>
<text text-anchor="middle" x="2014.54" y="-3001.2" font-family="Times,serif" font-size="14.00">scancode:GPL 3.0 with Autoconf exception</text>
</g>
<!-- 30260&#45;&gt;67352 -->
<g id="edge30" class="edge">
<title>30260&#45;&gt;67352</title>
<path fill="none" stroke="#00876c" stroke-width="2" d="M1960.62,-3048.62C1966.13,-3044.95 1972.03,-3040.61 1978.61,-3035.5"/>
<polygon fill="#00876c" stroke="#00876c" stroke-width="2" points="1985.41,-3030.11 1980.36,-3039.85 1983.71,-3032.09 1977.88,-3036.71 1977.57,-3036.32 1977.26,-3035.93 1983.09,-3031.31 1974.78,-3032.79 1985.41,-3030.11"/>
</g>
<!-- 30261 -->
<g id="node24" class="node">
<title>30261</title>
<text text-anchor="middle" x="958.81" y="-3218.33" font-family="Times,serif" font-size="14.00">ScancodeData:</text>
<text text-anchor="middle" x="958.81" y="-3201.83" font-family="Times,serif" font-size="14.00">replaced by autoconf&#45;exception&#45;3.0</text>
</g>
<!-- 30261&#45;&gt;30257 -->
<g id="edge31" class="edge">
<title>30261&#45;&gt;30257</title>
<path fill="none" stroke="#deb256" d="M1001.51,-3194.65C1005.68,-3192 1010.31,-3188.89 1015.76,-3185.08"/>
<polygon fill="#deb256" stroke="#deb256" points="1017.69,-3188 1023.83,-3179.37 1013.65,-3182.29 1017.69,-3188"/>
</g>
<!-- 30262 -->
<g id="node25" class="node">
<title>30262</title>
<text text-anchor="middle" x="752.18" y="-3261.1" font-family="Times,serif" font-size="14.00">$TEXT</text>
</g>
<!-- 30262&#45;&gt;30257 -->
<g id="edge32" class="edge">
<title>30262&#45;&gt;30257</title>
<path fill="none" stroke="#deb256" d="M780.69,-3263.14C852.12,-3255.16 874.73,-3247.25 1000.49,-3182.82"/>
<polygon fill="#deb256" stroke="#deb256" points="1001.89,-3186.04 1009.19,-3178.36 998.69,-3179.81 1001.89,-3186.04"/>
</g>
<!-- 33894&#45;&gt;33895 -->
<g id="edge33" class="edge">
<title>33894&#45;&gt;33895</title>
<path fill="none" stroke="#e18745" d="M2198.23,-2649.37C2198.22,-2649.49 2198.21,-2649.61 2198.2,-2649.73"/>
<polygon fill="#e18745" stroke="#e18745" points="2195.11,-2647.43 2196.42,-2657.94 2201.96,-2648.91 2195.11,-2647.43"/>
</g>
<!-- 33896 -->
<g id="node28" class="node">
<title>33896</title>
<text text-anchor="middle" x="2226.21" y="-2289.64" font-family="Times,serif" font-size="14.00">$TEXT</text>
</g>
<!-- 33896&#45;&gt;33894 -->
<g id="edge34" class="edge">
<title>33896&#45;&gt;33894</title>
<path fill="none" stroke="#e18745" d="M2230.89,-2312.6C2269.54,-2460.74 2271.62,-2480.01 2219.04,-2580.75"/>
<polygon fill="#e18745" stroke="#e18745" points="2216.04,-2578.94 2214.48,-2589.42 2222.23,-2582.2 2216.04,-2578.94"/>
</g>
<!-- 64517 -->
<g id="node29" class="node">
<title>64517</title>
<text text-anchor="start" x="109.16" y="-455.93" font-family="Times,serif" font-size="14.00">ifrOSS Classification: </text>
<text text-anchor="start" x="232.16" y="-455.93" font-family="Times,serif" font-weight="bold" font-size="14.00" fill="#228b22">Open Source Lizenzen</text>
<text text-anchor="start" x="7.53" y="-441.93" font-family="Times,serif" font-size="14.00">Die hier aufgeführten Lizenzen entsprechen den Voraussetzungen der Free Software</text>
<text text-anchor="start" x="117.41" y="-427.93" font-family="Times,serif" font-size="14.00">Definition und Open Source Definition. Sie</text>
<text text-anchor="start" x="30.41" y="-413.93" font-family="Times,serif" font-size="14.00">werden nach ihren lizenzrechtlichen Charakteristika in folgende Kategorien</text>
<text text-anchor="start" x="210.03" y="-399.93" font-family="Times,serif" font-size="14.00">unterteilt:</text>
<text text-anchor="start" x="189.03" y="-371.93" font-family="Times,serif" font-size="14.00">* [Lizenzen ohne</text>
<text text-anchor="start" x="47.66" y="-357.93" font-family="Times,serif" font-size="14.00">Copyleft&#45;Effekt](#lizenzen&#45;ohne&#45;copyleft&#45;effekt&#45;permissive&#45;licenses)</text>
<text text-anchor="start" x="165.78" y="-343.93" font-family="Times,serif" font-size="14.00">* [Lizenzen mit strengem</text>
<text text-anchor="start" x="79.53" y="-329.93" font-family="Times,serif" font-size="14.00">Copyleft&#45;Effekt](#lizenzen&#45;mit&#45;strengem&#45;copyleft&#45;effekt)</text>
<text text-anchor="start" x="153.03" y="-315.93" font-family="Times,serif" font-size="14.00">* [Lizenzen mit beschränktem</text>
<text text-anchor="start" x="66.78" y="-301.93" font-family="Times,serif" font-size="14.00">Copyleft&#45;Effekt](#lizenzen&#45;mit&#45;beschränktem&#45;copyleft&#45;effekt)</text>
<text text-anchor="start" x="39.03" y="-287.93" font-family="Times,serif" font-size="14.00">* [Lizenzen mit Wahlmöglichkeiten](#lizenzen&#45;mit&#45;wahlmöglichkeiten)</text>
<text text-anchor="start" x="67.53" y="-273.93" font-family="Times,serif" font-size="14.00">* [Lizenzen mit Sonderrechten](#lizenzen&#45;mit&#45;sonderrechten)</text>
<text text-anchor="start" x="29.66" y="-245.93" font-family="Times,serif" font-size="14.00">Software unter solchen Lizenzen kann als Freie oder Open Source Software</text>
<text text-anchor="start" x="25.53" y="-231.93" font-family="Times,serif" font-size="14.00">bezeichnet werden. Bei einigen der aufgeführten Lizenzen ist umstritten oder</text>
<text text-anchor="start" x="20.66" y="-217.93" font-family="Times,serif" font-size="14.00">unklar, ob diese Anforderungen erfüllt sind, da die relevanten Definitionen, die</text>
<text text-anchor="start" x="12.78" y="-203.93" font-family="Times,serif" font-size="14.00">Free Software Definition und die Open Source Definition nicht identisch sind und</text>
<text text-anchor="start" x="9.03" y="-189.93" font-family="Times,serif" font-size="14.00">zudem Lizenztexte nicht immer eindeutig formuliert sind. Diese Lizenzen sind mit</text>
<text text-anchor="start" x="133.53" y="-175.93" font-family="Times,serif" font-size="14.00">&quot;Einordnung unklar&quot; gekennzeichnet.</text>
</g>
<!-- 64517&#45;&gt;65098 -->
<g id="edge35" class="edge">
<title>64517&#45;&gt;65098</title>
<path fill="none" stroke="#dc574a" d="M394.66,-472.06C449.25,-528.81 519.83,-607.59 662.24,-767.16"/>
<polygon fill="#dc574a" stroke="#dc574a" points="659.23,-769.05 668.5,-774.18 664.46,-764.39 659.23,-769.05"/>
</g>
<!-- 65248 -->
<g id="node31" class="node">
<title>65248</title>
<text text-anchor="start" x="700.9" y="-1477.91" font-family="Times,serif" font-size="14.00">ifrOSS Classification: </text>
<text text-anchor="start" x="823.9" y="-1477.91" font-family="Times,serif" font-weight="bold" font-size="14.00" fill="#000000">Sonstige Lizenzen mit beschränktem Copyleft&#45;Effekt</text>
</g>
<!-- 65098&#45;&gt;65248 -->
<g id="edge36" class="edge">
<title>65098&#45;&gt;65248</title>
<path fill="none" stroke="#dc574a" d="M700.33,-838.83C715.46,-1032.86 724.63,-1056.83 903.48,-1453.84"/>
<polygon fill="#dc574a" stroke="#dc574a" points="900.22,-1455.13 907.52,-1462.8 906.6,-1452.25 900.22,-1455.13"/>
</g>
<!-- 65248&#45;&gt;65288 -->
<g id="edge37" class="edge">
<title>65248&#45;&gt;65288</title>
<path fill="none" stroke="#dc574a" d="M916.95,-1499.9C926.09,-1703.13 931.84,-1719.76 1126.35,-2048.47"/>
<polygon fill="#dc574a" stroke="#dc574a" points="1123.28,-2050.16 1131.38,-2056.98 1129.3,-2046.6 1123.28,-2050.16"/>
</g>
<!-- 65288&#45;&gt;65289 -->
<g id="edge38" class="edge">
<title>65288&#45;&gt;65289</title>
<path fill="none" stroke="#dc574a" d="M1193.95,-2115.75C1197.9,-2117.84 1202.33,-2120.11 1207.47,-2122.68"/>
<polygon fill="#dc574a" stroke="#dc574a" points="1205.63,-2125.68 1216.14,-2127 1208.74,-2119.41 1205.63,-2125.68"/>
</g>
<!-- 67351 -->
<g id="node34" class="node">
<title>67351</title>
<ellipse fill="none" stroke="#00876c" cx="2563.05" cy="-2809.81" rx="159.81" ry="28.99"/>
<text text-anchor="middle" x="2563.05" y="-2813.01" font-family="Times,serif" font-size="14.00" fill="gray">LicenseLynx</text>
<text text-anchor="middle" x="2563.05" y="-2796.51" font-family="Times,serif" font-size="14.00" fill="gray">8675f9949953b3206cdd91f25ebd88d0</text>
</g>
<!-- 67351&#45;&gt;2231 -->
<g id="edge39" class="edge">
<title>67351&#45;&gt;2231</title>
<path fill="none" stroke="#00876c" d="M2544.73,-2838.95C2457.59,-2977.01 2434.2,-3003.04 2296.87,-3042.09"/>
<polygon fill="#00876c" stroke="#00876c" points="2296.04,-3038.69 2287.36,-3044.76 2297.94,-3045.43 2296.04,-3038.69"/>
</g>
<!-- 67352&#45;&gt;2231 -->
<g id="edge40" class="edge">
<title>67352&#45;&gt;2231</title>
<path fill="none" stroke="#00876c" stroke-width="2" d="M2049.68,-3028.56C2057.74,-3033.63 2064.99,-3038.1 2071.61,-3042.06"/>
<polygon fill="#00876c" stroke="#00876c" stroke-width="2" points="2078.77,-3046.26 2067.87,-3045.09 2076.31,-3045.4 2069.89,-3041.64 2070.15,-3041.2 2070.4,-3040.77 2076.81,-3044.54 2072.43,-3037.32 2078.77,-3046.26"/>
</g>
<!-- 67353&#45;&gt;2231 -->
<g id="edge41" class="edge">
<title>67353&#45;&gt;2231</title>
<path fill="none" stroke="#00876c" stroke-width="2" d="M1711.49,-2685.36C1936.58,-2946.33 1973.33,-2986.08 2111.76,-3039.36"/>
<polygon fill="#00876c" stroke="#00876c" stroke-width="2" points="2119.63,-3042.36 2108.68,-3043.01 2117.05,-3041.92 2110.1,-3039.27 2110.28,-3038.8 2110.46,-3038.34 2117.41,-3040.98 2111.88,-3034.6 2119.63,-3042.36"/>
</g>
</g>
</svg>
