<?xml version="1.0" encoding="UTF-8" standalone="no"?>
<!DOCTYPE svg PUBLIC "-//W3C//DTD SVG 1.1//EN"
 "http://www.w3.org/Graphics/SVG/1.1/DTD/svg11.dtd">
<!-- Generated by graphviz version 10.0.1 (0)
 -->
<!-- Pages: 1 -->
<svg width="3015pt" height="2509pt"
 viewBox="0.00 0.00 3015.00 2509.00" xmlns="http://www.w3.org/2000/svg" xmlns:xlink="http://www.w3.org/1999/xlink">
<g id="graph0" class="graph" transform="scale(1 1) rotate(0) translate(4 2505)">
<polygon fill="white" stroke="none" points="-4,4 -4,-2505 3011,-2505 3011,4 -4,4"/>
<!-- 5 -->
<g id="node1" class="node">
<title>5</title>
<text text-anchor="start" x="1062.74" y="-474.57" font-family="Times,serif" font-size="14.00">OSI: </text>
<text text-anchor="start" x="1091.99" y="-474.57" font-family="Times,serif" font-weight="bold" font-size="14.00" fill="#8b0000">Rejected</text>
</g>
<!-- 5173 -->
<g id="node2" class="node">
<title>5173</title>
<ellipse fill="none" stroke="#dac767" cx="1390.94" cy="-709.92" rx="156.09" ry="28.99"/>
<text text-anchor="middle" x="1390.94" y="-713.12" font-family="Times,serif" font-size="14.00" fill="gray">SPDXLicense</text>
<text text-anchor="middle" x="1390.94" y="-696.62" font-family="Times,serif" font-size="14.00" fill="gray">130e8f66629bdfbf821a2ed0b92f0355</text>
</g>
<!-- 5&#45;&gt;5173 -->
<g id="edge1" class="edge">
<title>5&#45;&gt;5173</title>
<path fill="none" stroke="#dac767" d="M1146.6,-496.56C1216.81,-526.45 1240.38,-547.99 1356.34,-672.65"/>
<polygon fill="#dac767" stroke="#dac767" points="1353.71,-674.96 1363.08,-679.9 1358.83,-670.2 1353.71,-674.96"/>
</g>
<!-- 5174 -->
<g id="node3" class="node">
<title>5174</title>
<polygon fill="none" stroke="black" points="1623.99,-1240.9 1623.99,-1255.81 1574.23,-1266.35 1503.86,-1266.35 1454.1,-1255.81 1454.1,-1240.9 1503.86,-1230.35 1574.23,-1230.35 1623.99,-1240.9"/>
<polygon fill="none" stroke="black" points="1627.99,-1237.65 1627.99,-1259.05 1574.65,-1270.35 1503.44,-1270.35 1450.1,-1259.05 1450.1,-1237.65 1503.44,-1226.35 1574.65,-1226.35 1627.99,-1237.65"/>
<polygon fill="none" stroke="black" points="1631.99,-1234.41 1631.99,-1262.29 1575.07,-1274.35 1503.02,-1274.35 1446.1,-1262.29 1446.1,-1234.41 1503.02,-1222.35 1575.07,-1222.35 1631.99,-1234.41"/>
<text text-anchor="middle" x="1539.05" y="-1243.3" font-family="Times,serif" font-size="14.00">spdx:gSOAP&#45;1.3b</text>
</g>
<!-- 5173&#45;&gt;5174 -->
<g id="edge2" class="edge">
<title>5173&#45;&gt;5174</title>
<path fill="none" stroke="#dac767" d="M1401.69,-739.17C1447.94,-865.42 1454.72,-891.58 1530.21,-1210.95"/>
<polygon fill="#dac767" stroke="#dac767" points="1526.75,-1211.55 1532.46,-1220.48 1533.56,-1209.94 1526.75,-1211.55"/>
</g>
<!-- 9410 -->
<g id="node13" class="node">
<title>9410</title>
<polygon fill="none" stroke="#e09d4b" points="1981.02,-1045.74 1981.02,-1060.65 1926.07,-1071.2 1848.36,-1071.2 1793.41,-1060.65 1793.41,-1045.74 1848.36,-1035.2 1926.07,-1035.2 1981.02,-1045.74"/>
<polygon fill="none" stroke="#e09d4b" points="1985.02,-1042.43 1985.02,-1063.96 1926.45,-1075.2 1847.98,-1075.2 1789.41,-1063.96 1789.41,-1042.43 1847.98,-1031.2 1926.45,-1031.2 1985.02,-1042.43"/>
<text text-anchor="middle" x="1887.21" y="-1048.15" font-family="Times,serif" font-size="14.00">Fedora:gSOAP&#45;1.3b</text>
</g>
<!-- 5174&#45;&gt;9410 -->
<g id="edge3" class="edge">
<title>5174&#45;&gt;9410</title>
<path fill="none" stroke="#e09d4b" stroke-width="2" d="M1584.62,-1223.94C1748.58,-1136.08 1783,-1117.28 1841.8,-1081.27"/>
<polygon fill="#e09d4b" stroke="#e09d4b" stroke-width="2" points="1848.99,-1076.85 1842.82,-1085.92 1847.07,-1078.62 1840.73,-1082.51 1840.47,-1082.08 1840.21,-1081.66 1846.54,-1077.77 1838.11,-1078.25 1848.99,-1076.85"/>
</g>
<!-- 18339 -->
<g id="node19" class="node">
<title>18339</title>
<polygon fill="none" stroke="black" points="1919.89,-1184.15 1919.89,-1199.07 1863.96,-1209.61 1784.88,-1209.61 1728.95,-1199.07 1728.95,-1184.15 1784.88,-1173.61 1863.96,-1173.61 1919.89,-1184.15"/>
<polygon fill="none" stroke="black" points="1923.89,-1180.84 1923.89,-1202.38 1864.34,-1213.61 1784.5,-1213.61 1724.95,-1202.38 1724.95,-1180.84 1784.5,-1169.61 1864.34,-1169.61 1923.89,-1180.84"/>
<text text-anchor="middle" x="1824.42" y="-1186.56" font-family="Times,serif" font-size="14.00">scancode:gsoap&#45;1.3b</text>
</g>
<!-- 5174&#45;&gt;18339 -->
<g id="edge4" class="edge">
<title>5174&#45;&gt;18339</title>
<path fill="none" stroke="#deb256" stroke-width="2" d="M1632.15,-1236.32C1670.98,-1229.24 1715.4,-1220.28 1751.76,-1212.17"/>
<polygon fill="#deb256" stroke="#deb256" stroke-width="2" points="1759.9,-1210.33 1751.14,-1216.92 1757.51,-1211.38 1750.25,-1213.02 1750.14,-1212.54 1750.03,-1212.05 1757.29,-1210.41 1749.15,-1208.15 1759.9,-1210.33"/>
</g>
<!-- 48575 -->
<g id="node33" class="node">
<title>48575</title>
<polygon fill="none" stroke="#379469" points="2073.52,-1644.02 2073.52,-1658.93 1973.78,-1669.48 1832.74,-1669.48 1733.01,-1658.93 1733.01,-1644.02 1832.74,-1633.48 1973.78,-1633.48 2073.52,-1644.02"/>
<polygon fill="none" stroke="#379469" points="2077.52,-1640.42 2077.52,-1662.53 1973.99,-1673.48 1832.53,-1673.48 1729.01,-1662.53 1729.01,-1640.42 1832.53,-1629.48 1973.99,-1629.48 2077.52,-1640.42"/>
<text text-anchor="middle" x="1903.26" y="-1646.43" font-family="Times,serif" font-size="14.00">metaeffekt:gSOAP Public License 1.3b</text>
</g>
<!-- 5174&#45;&gt;48575 -->
<g id="edge5" class="edge">
<title>5174&#45;&gt;48575</title>
<path fill="none" stroke="#379469" stroke-width="2" d="M1564.31,-1274.85C1780.05,-1501.08 1802.17,-1524.85 1878.71,-1620.67"/>
<polygon fill="#379469" stroke="#379469" stroke-width="2" points="1884.03,-1627.33 1874.28,-1622.32 1882.04,-1625.64 1877.4,-1619.83 1877.79,-1619.51 1878.19,-1619.2 1882.82,-1625.02 1881.31,-1616.71 1884.03,-1627.33"/>
</g>
<!-- 5175 -->
<g id="node4" class="node">
<title>5175</title>
<polygon fill="none" stroke="black" points="1726.31,-1360.49 1726.31,-1375.4 1689.21,-1385.95 1636.74,-1385.95 1599.64,-1375.4 1599.64,-1360.49 1636.74,-1349.95 1689.21,-1349.95 1726.31,-1360.49"/>
<polygon fill="none" stroke="black" points="1730.31,-1357.47 1730.31,-1378.42 1689.77,-1389.95 1636.18,-1389.95 1595.64,-1378.42 1595.64,-1357.47 1636.18,-1345.95 1689.77,-1345.95 1730.31,-1357.47"/>
<text text-anchor="middle" x="1662.98" y="-1362.9" font-family="Times,serif" font-size="14.00">gSOAP&#45;1.3b</text>
</g>
<!-- 5175&#45;&gt;5174 -->
<g id="edge6" class="edge">
<title>5175&#45;&gt;5174</title>
<path fill="none" stroke="black" stroke-width="2" d="M1645.68,-1345.72C1630.72,-1327.32 1618.11,-1315.43 1578.57,-1281.78"/>
<polygon fill="black" stroke="black" stroke-width="2" points="1572.15,-1276.33 1582.68,-1279.37 1574.42,-1277.61 1580.09,-1282.42 1579.77,-1282.8 1579.45,-1283.19 1573.78,-1278.37 1576.86,-1286.23 1572.15,-1276.33"/>
</g>
<!-- 5175&#45;&gt;9410 -->
<g id="edge7" class="edge">
<title>5175&#45;&gt;9410</title>
<path fill="none" stroke="#e09d4b" stroke-width="2" d="M1688.03,-1345.54C1837.55,-1211.63 1851.74,-1194.7 1879.03,-1086.42"/>
<polygon fill="#e09d4b" stroke="#e09d4b" stroke-width="2" points="1881.12,-1078.01 1883.07,-1088.8 1880.99,-1080.62 1879.19,-1087.83 1878.7,-1087.71 1878.22,-1087.59 1880.02,-1080.38 1874.34,-1086.62 1881.12,-1078.01"/>
</g>
<!-- 5175&#45;&gt;18339 -->
<g id="edge8" class="edge">
<title>5175&#45;&gt;18339</title>
<path fill="none" stroke="black" stroke-width="2" d="M1695.16,-1347.2C1777.47,-1293.83 1791.44,-1280.36 1812.63,-1224.27"/>
<polygon fill="black" stroke="black" stroke-width="2" points="1815.55,-1216.38 1816.3,-1227.32 1815.13,-1218.96 1812.55,-1225.93 1812.08,-1225.76 1811.61,-1225.59 1814.19,-1218.61 1807.86,-1224.2 1815.55,-1216.38"/>
</g>
<!-- 33034 -->
<g id="node23" class="node">
<title>33034</title>
<polygon fill="none" stroke="#e18745" points="1486.61,-1110.66 1486.61,-1125.57 1425.17,-1136.12 1338.28,-1136.12 1276.84,-1125.57 1276.84,-1110.66 1338.28,-1100.12 1425.17,-1100.12 1486.61,-1110.66"/>
<polygon fill="none" stroke="#e18745" points="1490.61,-1107.29 1490.61,-1128.95 1425.51,-1140.12 1337.94,-1140.12 1272.84,-1128.95 1272.84,-1107.29 1337.94,-1096.12 1425.51,-1096.12 1490.61,-1107.29"/>
<text text-anchor="middle" x="1381.73" y="-1113.07" font-family="Times,serif" font-size="14.00">fossology:gSOAP&#45;1.3b</text>
</g>
<!-- 5175&#45;&gt;33034 -->
<g id="edge9" class="edge">
<title>5175&#45;&gt;33034</title>
<path fill="none" stroke="#e18745" stroke-width="2" d="M1652.72,-1345.84C1598.14,-1228.75 1584.29,-1212.75 1438.51,-1144.45"/>
<polygon fill="#e18745" stroke="#e18745" stroke-width="2" points="1430.92,-1140.9 1441.89,-1141.06 1433.45,-1141.53 1440.19,-1144.68 1439.98,-1145.14 1439.77,-1145.59 1433.03,-1142.44 1438.08,-1149.21 1430.92,-1140.9"/>
</g>
<!-- 41658 -->
<g id="node30" class="node">
<title>41658</title>
<polygon fill="none" stroke="#379469" points="2105.78,-1448.57 2105.78,-1463.48 2055.69,-1474.03 1984.87,-1474.03 1934.78,-1463.48 1934.78,-1448.57 1984.87,-1438.03 2055.69,-1438.03 2105.78,-1448.57"/>
<polygon fill="none" stroke="#379469" points="2109.78,-1445.33 2109.78,-1466.73 2056.11,-1478.03 1984.45,-1478.03 1930.78,-1466.73 1930.78,-1445.33 1984.45,-1434.03 2056.11,-1434.03 2109.78,-1445.33"/>
<text text-anchor="middle" x="2020.28" y="-1450.98" font-family="Times,serif" font-size="14.00">cavil:gSOAP&#45;1.3b</text>
</g>
<!-- 5175&#45;&gt;41658 -->
<g id="edge10" class="edge">
<title>5175&#45;&gt;41658</title>
<path fill="none" stroke="#379469" stroke-width="2" d="M1713.64,-1383.6C1828.81,-1419.14 1878.66,-1433.98 1921.57,-1442.53"/>
<polygon fill="#379469" stroke="#379469" stroke-width="2" points="1929.97,-1444.12 1919.31,-1446.68 1927.36,-1444.14 1920.06,-1442.75 1920.15,-1442.26 1920.24,-1441.77 1927.55,-1443.15 1920.99,-1437.84 1929.97,-1444.12"/>
</g>
<!-- 5175&#45;&gt;48575 -->
<g id="edge11" class="edge">
<title>5175&#45;&gt;48575</title>
<path fill="none" stroke="#379469" stroke-dasharray="5,2" d="M1683.37,-1390.4C1817.27,-1537.85 1836.94,-1560.07 1880.9,-1620.5"/>
<polygon fill="#379469" stroke="#379469" points="1886.57,-1628.31 1877.05,-1622.86 1884.35,-1625.25 1880.7,-1620.22 1880.7,-1620.22 1880.7,-1620.22 1884.35,-1625.25 1884.34,-1617.58 1886.57,-1628.31"/>
</g>
<!-- 61151 -->
<g id="node38" class="node">
<title>61151</title>
<polygon fill="none" stroke="#dac767" points="1389.25,-1627.08 1389.25,-1641.99 1291.78,-1652.53 1153.95,-1652.53 1056.49,-1641.99 1056.49,-1627.08 1153.95,-1616.53 1291.78,-1616.53 1389.25,-1627.08"/>
<polygon fill="none" stroke="#dac767" points="1393.25,-1623.48 1393.25,-1645.58 1292,-1656.53 1153.74,-1656.53 1052.49,-1645.58 1052.49,-1623.48 1153.74,-1612.53 1292,-1612.53 1393.25,-1623.48"/>
<text text-anchor="middle" x="1222.87" y="-1629.48" font-family="Times,serif" font-size="14.00">fosslight:gSOAP Public License v1.3b</text>
</g>
<!-- 5175&#45;&gt;61151 -->
<g id="edge12" class="edge">
<title>5175&#45;&gt;61151</title>
<path fill="none" stroke="#dac767" stroke-width="2" d="M1639.44,-1390.43C1472.68,-1549.62 1428.23,-1589.25 1334.98,-1612.94"/>
<polygon fill="#dac767" stroke="#dac767" stroke-width="2" points="1326.64,-1614.97 1335.3,-1608.23 1329.02,-1613.88 1336.24,-1612.12 1336.36,-1612.61 1336.48,-1613.09 1329.25,-1614.85 1337.42,-1616.98 1326.64,-1614.97"/>
</g>
<!-- 5176 -->
<g id="node5" class="node">
<title>5176</title>
<polygon fill="none" stroke="black" points="1677.13,-1419.62 1677.13,-1434.53 1601.41,-1445.08 1494.32,-1445.08 1418.6,-1434.53 1418.6,-1419.62 1494.32,-1409.08 1601.41,-1409.08 1677.13,-1419.62"/>
<polygon fill="none" stroke="black" points="1681.13,-1416.14 1681.13,-1438.02 1601.68,-1449.08 1494.04,-1449.08 1414.6,-1438.02 1414.6,-1416.14 1494.04,-1405.08 1601.68,-1405.08 1681.13,-1416.14"/>
<text text-anchor="middle" x="1547.86" y="-1422.03" font-family="Times,serif" font-size="14.00">gSOAP Public License v1.3b</text>
</g>
<!-- 5176&#45;&gt;5174 -->
<g id="edge13" class="edge">
<title>5176&#45;&gt;5174</title>
<path fill="none" stroke="#dac767" stroke-width="2" d="M1551.86,-1404.69C1557.11,-1372.49 1555.96,-1356.5 1544.92,-1285.6"/>
<polygon fill="#dac767" stroke="#dac767" stroke-width="2" points="1543.59,-1277.14 1549.59,-1286.32 1544.48,-1279.6 1545.63,-1286.94 1545.14,-1287.02 1544.65,-1287.1 1543.5,-1279.75 1540.69,-1287.72 1543.59,-1277.14"/>
</g>
<!-- 5176&#45;&gt;18339 -->
<g id="edge14" class="edge">
<title>5176&#45;&gt;18339</title>
<path fill="none" stroke="#deb256" stroke-width="2" d="M1596.41,-1404.67C1741.31,-1337.34 1758.91,-1322.22 1808.45,-1223.76"/>
<polygon fill="#deb256" stroke="#deb256" stroke-width="2" points="1812.26,-1216.15 1811.81,-1227.1 1811.56,-1218.66 1808.24,-1225.31 1807.79,-1225.09 1807.34,-1224.87 1810.67,-1218.21 1803.76,-1223.08 1812.26,-1216.15"/>
</g>
<!-- 5176&#45;&gt;33034 -->
<g id="edge15" class="edge">
<title>5176&#45;&gt;33034</title>
<path fill="none" stroke="#e18745" stroke-width="2" d="M1521.03,-1404.73C1411.55,-1313.06 1403.09,-1296.75 1385.63,-1151.19"/>
<polygon fill="#e18745" stroke="#e18745" stroke-width="2" points="1384.64,-1142.9 1390.29,-1152.3 1385.44,-1145.39 1386.32,-1152.77 1385.82,-1152.83 1385.33,-1152.89 1384.45,-1145.5 1381.35,-1153.36 1384.64,-1142.9"/>
</g>
<!-- 5176&#45;&gt;48575 -->
<g id="edge16" class="edge">
<title>5176&#45;&gt;48575</title>
<path fill="none" stroke="#379469" stroke-dasharray="5,2" d="M1576.44,-1449.4C1729.61,-1568.97 1768.89,-1598.35 1832.75,-1624.96"/>
<polygon fill="#379469" stroke="#379469" points="1841.67,-1628.58 1830.71,-1628.98 1838.17,-1627.16 1832.41,-1624.82 1832.41,-1624.82 1832.41,-1624.82 1838.17,-1627.16 1834.1,-1620.65 1841.67,-1628.58"/>
</g>
<!-- 5176&#45;&gt;61151 -->
<g id="edge17" class="edge">
<title>5176&#45;&gt;61151</title>
<path fill="none" stroke="#dac767" stroke-width="2" d="M1523.32,-1449.36C1405.58,-1556.18 1367.52,-1588.89 1311.8,-1609.62"/>
<polygon fill="#dac767" stroke="#dac767" stroke-width="2" points="1303.85,-1612.42 1311.79,-1604.85 1306.11,-1611.1 1313.12,-1608.62 1313.28,-1609.09 1313.45,-1609.57 1306.44,-1612.04 1314.78,-1613.34 1303.85,-1612.42"/>
</g>
<!-- 70520 -->
<g id="node40" class="node">
<title>70520</title>
<polygon fill="none" stroke="#00876c" points="1325.52,-1376.47 1325.52,-1391.39 1237.15,-1401.93 1112.17,-1401.93 1023.79,-1391.39 1023.79,-1376.47 1112.17,-1365.93 1237.15,-1365.93 1325.52,-1376.47"/>
<polygon fill="none" stroke="#00876c" points="1329.52,-1372.92 1329.52,-1394.94 1237.39,-1405.93 1111.93,-1405.93 1019.79,-1394.94 1019.79,-1372.92 1111.93,-1361.93 1237.39,-1361.93 1329.52,-1372.92"/>
<text text-anchor="middle" x="1174.66" y="-1378.88" font-family="Times,serif" font-size="14.00">spdx:gSOAP Public License v1.3b</text>
</g>
<!-- 5176&#45;&gt;70520 -->
<g id="edge18" class="edge">
<title>5176&#45;&gt;70520</title>
<path fill="none" stroke="#00876c" stroke-width="2" d="M1439.28,-1441.95C1328.38,-1455.55 1295.69,-1449.89 1223.99,-1411.44"/>
<polygon fill="#00876c" stroke="#00876c" stroke-width="2" points="1216.7,-1407.48 1227.64,-1408.3 1219.19,-1408.27 1225.73,-1411.82 1225.49,-1412.25 1225.25,-1412.69 1218.72,-1409.15 1223.35,-1416.21 1216.7,-1407.48"/>
</g>
<!-- 5177 -->
<g id="node6" class="node">
<title>5177</title>
<text text-anchor="middle" x="1213.24" y="-320.82" font-family="Times,serif" font-size="14.00">$TEXT</text>
</g>
<!-- 5177&#45;&gt;5173 -->
<g id="edge19" class="edge">
<title>5177&#45;&gt;5173</title>
<path fill="none" stroke="#dac767" d="M1223.92,-343.64C1276.98,-432.11 1285.17,-449.98 1374.75,-670.13"/>
<polygon fill="#dac767" stroke="#dac767" points="1371.5,-671.42 1378.51,-679.36 1377.98,-668.78 1371.5,-671.42"/>
</g>
<!-- 5178 -->
<g id="node7" class="node">
<title>5178</title>
<text text-anchor="middle" x="1123.14" y="-144.34" font-family="Times,serif" font-size="14.00">$TEXT</text>
</g>
<!-- 5178&#45;&gt;5177 -->
<g id="edge20" class="edge">
<title>5178&#45;&gt;5177</title>
<path fill="none" stroke="#dac767" d="M1134.62,-167.29C1154.68,-198.96 1162,-213.84 1200.34,-297.64"/>
<polygon fill="#dac767" stroke="#dac767" points="1197.07,-298.91 1204.41,-306.55 1203.44,-296 1197.07,-298.91"/>
</g>
<!-- 5179 -->
<g id="node8" class="node">
<title>5179</title>
<text text-anchor="middle" x="1588.28" y="-606.82" font-family="Times,serif" font-size="14.00">http://www.cs.fsu.edu/~engelen/license.html</text>
</g>
<!-- 5179&#45;&gt;5173 -->
<g id="edge21" class="edge">
<title>5179&#45;&gt;5173</title>
<path fill="none" stroke="#dac767" d="M1485.07,-629.8C1469.11,-638.47 1452.73,-651.99 1429.27,-673.69"/>
<polygon fill="#dac767" stroke="#dac767" points="1427.07,-670.95 1422.14,-680.33 1431.85,-676.07 1427.07,-670.95"/>
</g>
<!-- 9409 -->
<g id="node12" class="node">
<title>9409</title>
<ellipse fill="none" stroke="#e09d4b" cx="2145.17" cy="-602.09" rx="157.15" ry="28.99"/>
<text text-anchor="middle" x="2145.17" y="-605.29" font-family="Times,serif" font-size="14.00" fill="gray">FedoraEntry</text>
<text text-anchor="middle" x="2145.17" y="-588.79" font-family="Times,serif" font-size="14.00" fill="gray">8500e9fca04aad8d6d5b4c8d86fed019</text>
</g>
<!-- 5179&#45;&gt;9409 -->
<g id="edge22" class="edge">
<title>5179&#45;&gt;9409</title>
<path fill="none" stroke="#e09d4b" d="M1646.99,-593.95C1884.91,-521.7 1927.05,-515.91 2069.38,-571.37"/>
<polygon fill="#e09d4b" stroke="#e09d4b" points="2067.8,-574.52 2078.39,-574.92 2070.37,-568 2067.8,-574.52"/>
</g>
<!-- 18338 -->
<g id="node18" class="node">
<title>18338</title>
<ellipse fill="none" stroke="#deb256" cx="1882.28" cy="-700.41" rx="157.68" ry="28.99"/>
<text text-anchor="middle" x="1882.28" y="-703.61" font-family="Times,serif" font-size="14.00" fill="gray">ScancodeData</text>
<text text-anchor="middle" x="1882.28" y="-687.11" font-family="Times,serif" font-size="14.00" fill="gray">9acf741dd8ddae6fd5be41d83b17d3e9</text>
</g>
<!-- 5179&#45;&gt;18338 -->
<g id="edge23" class="edge">
<title>5179&#45;&gt;18338</title>
<path fill="none" stroke="#deb256" d="M1717.61,-606.93C1761.69,-610.69 1788.76,-626.04 1838.1,-664.82"/>
<polygon fill="#deb256" stroke="#deb256" points="1835.7,-667.38 1845.71,-670.85 1840.04,-661.89 1835.7,-667.38"/>
</g>
<!-- 33033 -->
<g id="node22" class="node">
<title>33033</title>
<ellipse fill="none" stroke="#e18745" cx="1061.45" cy="-772.68" rx="157.15" ry="28.99"/>
<text text-anchor="middle" x="1061.45" y="-775.88" font-family="Times,serif" font-size="14.00" fill="gray">Fossology</text>
<text text-anchor="middle" x="1061.45" y="-759.38" font-family="Times,serif" font-size="14.00" fill="gray">514b04b62a6bab25b5daacc96af0784f</text>
</g>
<!-- 5179&#45;&gt;33033 -->
<g id="edge24" class="edge">
<title>5179&#45;&gt;33033</title>
<path fill="none" stroke="#e18745" d="M1458.79,-602.21C1299.01,-593.6 1258.21,-615.06 1105.88,-736.94"/>
<polygon fill="#e18745" stroke="#e18745" points="1103.92,-734.03 1098.3,-743.01 1108.29,-739.49 1103.92,-734.03"/>
</g>
<!-- 5758 -->
<g id="node9" class="node">
<title>5758</title>
<text text-anchor="middle" x="68.3" y="-2360.63" font-family="Times,serif" font-size="14.00">LicenseType Copyleft</text>
</g>
<!-- 10710 -->
<g id="node16" class="node">
<title>10710</title>
<text text-anchor="middle" x="328.74" y="-2189.68" font-family="Times,serif" font-size="14.00">LicenseType Weakly Protective</text>
</g>
<!-- 5758&#45;&gt;10710 -->
<g id="edge25" class="edge">
<title>5758&#45;&gt;10710</title>
<path fill="none" stroke="#00876c" d="M99.24,-2347.77C148.93,-2318.78 171.67,-2303.48 293.77,-2218.95"/>
<polygon fill="#00876c" stroke="#00876c" points="295.65,-2221.91 301.88,-2213.34 291.66,-2216.15 295.65,-2221.91"/>
</g>
<!-- 6640 -->
<g id="node10" class="node">
<title>6640</title>
<text text-anchor="middle" x="2453.16" y="-293.09" font-family="Times,serif" font-size="14.00">[&quot;not&#45;allowed&quot;]</text>
</g>
<!-- 6640&#45;&gt;9409 -->
<g id="edge26" class="edge">
<title>6640&#45;&gt;9409</title>
<path fill="none" stroke="#e09d4b" d="M2434.82,-316.02C2364.08,-384.95 2347.17,-401.65 2182.18,-565.36"/>
<polygon fill="#e09d4b" stroke="#e09d4b" points="2179.92,-562.67 2175.29,-572.2 2184.85,-567.64 2179.92,-562.67"/>
</g>
<!-- 6641 -->
<g id="node11" class="node">
<title>6641</title>
<text text-anchor="start" x="2700.75" y="-33.59" font-family="Times,serif" font-size="14.00">Fedora: </text>
<text text-anchor="start" x="2745.75" y="-33.59" font-family="Times,serif" font-weight="bold" font-size="14.00" fill="#8b0000">not&#45;allowed</text>
<text text-anchor="start" x="2567.25" y="-19.59" font-family="Times,serif" font-size="14.00">Any license that does not meet the criteria above for allowed licenses</text>
<text text-anchor="start" x="2598.75" y="-5.59" font-family="Times,serif" font-size="14.00">(including allowed for a specific category) is not&#45;allowed.</text>
</g>
<!-- 6641&#45;&gt;6640 -->
<g id="edge27" class="edge">
<title>6641&#45;&gt;6640</title>
<path fill="none" stroke="#e09d4b" d="M2727.85,-49.52C2663.9,-103.69 2641.33,-124.28 2480.67,-272.72"/>
<polygon fill="#e09d4b" stroke="#e09d4b" points="2478.5,-269.97 2473.53,-279.32 2483.25,-275.11 2478.5,-269.97"/>
</g>
<!-- 9409&#45;&gt;9410 -->
<g id="edge28" class="edge">
<title>9409&#45;&gt;9410</title>
<path fill="none" stroke="#e09d4b" d="M2136.14,-631.46C2097.09,-757.55 2083.74,-779 1909.64,-1021.91"/>
<polygon fill="#e09d4b" stroke="#e09d4b" points="1906.98,-1019.62 1904,-1029.79 1912.67,-1023.7 1906.98,-1019.62"/>
</g>
<!-- 9411 -->
<g id="node14" class="node">
<title>9411</title>
<polygon fill="none" stroke="black" points="2342.77,-1020.63 2342.77,-1035.54 2281.98,-1046.08 2196.01,-1046.08 2135.21,-1035.54 2135.21,-1020.63 2196.01,-1010.08 2281.98,-1010.08 2342.77,-1020.63"/>
<text text-anchor="middle" x="2238.99" y="-1023.03" font-family="Times,serif" font-size="14.00">gSOAP Public License</text>
</g>
<!-- 9411&#45;&gt;9410 -->
<g id="edge29" class="edge">
<title>9411&#45;&gt;9410</title>
<path fill="none" stroke="#e09d4b" stroke-dasharray="5,2" d="M2135,-1020.95C2100.87,-1021.83 2060.31,-1026.92 1984.86,-1038.25"/>
<polygon fill="#e09d4b" stroke="#e09d4b" points="1975.18,-1039.7 1984.4,-1033.76 1978.92,-1039.14 1985.07,-1038.21 1985.07,-1038.21 1985.07,-1038.21 1978.92,-1039.14 1985.74,-1042.66 1975.18,-1039.7"/>
</g>
<!-- 9412 -->
<g id="node15" class="node">
<title>9412</title>
<text text-anchor="middle" x="2466.44" y="-493.15" font-family="Times,serif" font-size="14.00">$TEXT</text>
</g>
<!-- 9412&#45;&gt;9409 -->
<g id="edge30" class="edge">
<title>9412&#45;&gt;9409</title>
<path fill="none" stroke="#e09d4b" d="M2437.93,-500.23C2366.23,-505.73 2342.87,-512.63 2215.03,-570.35"/>
<polygon fill="#e09d4b" stroke="#e09d4b" points="2213.87,-567.03 2206.2,-574.34 2216.75,-573.41 2213.87,-567.03"/>
</g>
<!-- 61150 -->
<g id="node37" class="node">
<title>61150</title>
<ellipse fill="none" stroke="#dac767" cx="708.16" cy="-1950.65" rx="160.87" ry="28.99"/>
<text text-anchor="middle" x="708.16" y="-1953.85" font-family="Times,serif" font-size="14.00" fill="gray">FOSSLight</text>
<text text-anchor="middle" x="708.16" y="-1937.35" font-family="Times,serif" font-size="14.00" fill="gray">bd28266789510efb04d3b4a15e713688</text>
</g>
<!-- 10710&#45;&gt;61150 -->
<g id="edge31" class="edge">
<title>10710&#45;&gt;61150</title>
<path fill="none" stroke="#dac767" d="M362.4,-2176.74C445,-2132.33 471.67,-2114.81 657.98,-1985.5"/>
<polygon fill="#dac767" stroke="#dac767" points="659.8,-1988.49 666.02,-1979.91 655.8,-1982.74 659.8,-1988.49"/>
</g>
<!-- 12439 -->
<g id="node17" class="node">
<title>12439</title>
<text text-anchor="middle" x="1880.3" y="-632.61" font-family="Times,serif" font-size="14.00">LicenseType Copyleft Limited</text>
</g>
<!-- 12439&#45;&gt;18338 -->
<g id="edge32" class="edge">
<title>12439&#45;&gt;18338</title>
<path fill="none" stroke="#deb256" d="M1885.91,-655.63C1886.12,-656.98 1886.27,-658.35 1886.36,-659.81"/>
<polygon fill="#deb256" stroke="#deb256" points="1882.86,-659.56 1886.06,-669.66 1889.86,-659.77 1882.86,-659.56"/>
</g>
<!-- 18338&#45;&gt;18339 -->
<g id="edge33" class="edge">
<title>18338&#45;&gt;18339</title>
<path fill="none" stroke="#deb256" d="M1889.59,-729.46C1926.16,-876.16 1922.46,-897.17 1835.36,-1158.8"/>
<polygon fill="#deb256" stroke="#deb256" points="1832.14,-1157.38 1832.3,-1167.98 1838.78,-1159.6 1832.14,-1157.38"/>
</g>
<!-- 18339&#45;&gt;5174 -->
<g id="edge34" class="edge">
<title>18339&#45;&gt;5174</title>
<path fill="none" stroke="#00876c" stroke-width="2" d="M1730.13,-1203.86C1693.76,-1210.51 1652.62,-1218.77 1617.86,-1226.43"/>
<polygon fill="#00876c" stroke="#00876c" stroke-width="2" points="1609.67,-1228.25 1618.45,-1221.68 1612.06,-1227.2 1619.32,-1225.59 1619.43,-1226.08 1619.54,-1226.56 1612.28,-1228.18 1620.41,-1230.47 1609.67,-1228.25"/>
</g>
<!-- 18339&#45;&gt;48575 -->
<g id="edge35" class="edge">
<title>18339&#45;&gt;48575</title>
<path fill="none" stroke="#379469" stroke-dasharray="5,2" d="M1834.64,-1213.91C1940.9,-1445.97 1946.56,-1465.29 1911.04,-1618.38"/>
<polygon fill="#379469" stroke="#379469" points="1908.8,-1627.96 1906.69,-1617.2 1909.66,-1624.28 1911.08,-1618.22 1911.08,-1618.22 1911.08,-1618.22 1909.66,-1624.28 1915.46,-1619.24 1908.8,-1627.96"/>
</g>
<!-- 18340 -->
<g id="node20" class="node">
<title>18340</title>
<text text-anchor="middle" x="1905.74" y="-210.96" font-family="Times,serif" font-size="14.00">http://www.cs.fsu.edu/~engelen/license.html</text>
</g>
<!-- 18340&#45;&gt;18338 -->
<g id="edge36" class="edge">
<title>18340&#45;&gt;18338</title>
<path fill="none" stroke="#deb256" d="M1909.33,-233.94C1935.58,-365.61 1934.83,-383.02 1888.98,-659.99"/>
<polygon fill="#deb256" stroke="#deb256" points="1885.55,-659.29 1887.37,-669.73 1892.45,-660.44 1885.55,-659.29"/>
</g>
<!-- 18341 -->
<g id="node21" class="node">
<title>18341</title>
<text text-anchor="middle" x="2026.14" y="-369.81" font-family="Times,serif" font-size="14.00">$TEXT</text>
</g>
<!-- 18341&#45;&gt;18338 -->
<g id="edge37" class="edge">
<title>18341&#45;&gt;18338</title>
<path fill="none" stroke="#deb256" d="M2020.24,-392.71C1993.74,-472.59 1986.43,-489.14 1901.74,-660.95"/>
<polygon fill="#deb256" stroke="#deb256" points="1898.67,-659.26 1897.39,-669.78 1904.95,-662.36 1898.67,-659.26"/>
</g>
<!-- 33033&#45;&gt;33034 -->
<g id="edge38" class="edge">
<title>33033&#45;&gt;33034</title>
<path fill="none" stroke="#e18745" d="M1088.35,-801.63C1156.47,-874.94 1178.47,-898.68 1353.27,-1087.4"/>
<polygon fill="#e18745" stroke="#e18745" points="1350.51,-1089.57 1359.87,-1094.52 1355.65,-1084.81 1350.51,-1089.57"/>
</g>
<!-- 33035 -->
<g id="node24" class="node">
<title>33035</title>
<text text-anchor="middle" x="738.15" y="-639.63" font-family="Times,serif" font-size="14.00">$TEXT</text>
</g>
<!-- 33035&#45;&gt;33033 -->
<g id="edge39" class="edge">
<title>33035&#45;&gt;33033</title>
<path fill="none" stroke="#e18745" d="M766.7,-649.31C839.83,-661.53 862.85,-670.32 998.27,-740.03"/>
<polygon fill="#e18745" stroke="#e18745" points="996.38,-743 1006.87,-744.47 999.59,-736.77 996.38,-743"/>
</g>
<!-- 35433 -->
<g id="node25" class="node">
<title>35433</title>
<text text-anchor="middle" x="1405.26" y="-1757.65" font-family="Times,serif" font-size="14.00">LicenseTag (ScopedLicenseTag &quot;OrtLicenseCategorization&quot; &quot;include&#45;in&#45;notice&#45;file&quot; NoLicenseTagText)</text>
</g>
<!-- 39956 -->
<g id="node28" class="node">
<title>39956</title>
<ellipse fill="none" stroke="#d43d51" cx="1411.61" cy="-1703.3" rx="156.09" ry="28.99"/>
<text text-anchor="middle" x="1411.61" y="-1706.5" font-family="Times,serif" font-size="14.00" fill="gray">OrtLicenseCategorization</text>
<text text-anchor="middle" x="1411.61" y="-1690" font-family="Times,serif" font-size="14.00" fill="gray">2d88bf78f0c44340e3eb6cde4e2e1a1c</text>
</g>
<!-- 35433&#45;&gt;39956 -->
<g id="edge40" class="edge">
<title>35433&#45;&gt;39956</title>
<path fill="none" stroke="#d43d51" d="M1406.4,-1744.77C1406.43,-1744.46 1406.46,-1744.15 1406.49,-1743.83"/>
<polygon fill="#d43d51" stroke="#d43d51" points="1409.94,-1744.45 1407.61,-1734.12 1402.99,-1743.65 1409.94,-1744.45"/>
</g>
<!-- 35444 -->
<g id="node26" class="node">
<title>35444</title>
<text text-anchor="middle" x="1013.29" y="-2284.74" font-family="Times,serif" font-size="14.00">LicenseTag (ScopedLicenseTag &quot;OrtLicenseCategorization&quot; &quot;include&#45;source&#45;code&#45;offer&#45;in&#45;notice&#45;file&quot; NoLicenseTagText)</text>
</g>
<!-- 35444&#45;&gt;39956 -->
<g id="edge41" class="edge">
<title>35444&#45;&gt;39956</title>
<path fill="none" stroke="#d43d51" d="M1029.54,-2272.05C1156.97,-2132.74 1169.74,-2113.6 1388.66,-1742.26"/>
<polygon fill="#d43d51" stroke="#d43d51" points="1391.53,-1744.27 1393.59,-1733.88 1385.5,-1740.72 1391.53,-1744.27"/>
</g>
<!-- 35459 -->
<g id="node27" class="node">
<title>35459</title>
<text text-anchor="middle" x="1374.31" y="-2330.62" font-family="Times,serif" font-size="14.00">LicenseTag (ScopedLicenseTag &quot;OrtLicenseCategorization&quot; &quot;copyleft&#45;limited&quot; NoLicenseTagText)</text>
</g>
<!-- 35459&#45;&gt;39956 -->
<g id="edge42" class="edge">
<title>35459&#45;&gt;39956</title>
<path fill="none" stroke="#d43d51" d="M1374.37,-2317.8C1374.95,-2150.11 1376.04,-2131.73 1408.24,-1743.96"/>
<polygon fill="#d43d51" stroke="#d43d51" points="1411.71,-1744.44 1409.05,-1734.19 1404.73,-1743.86 1411.71,-1744.44"/>
</g>
<!-- 39956&#45;&gt;5174 -->
<g id="edge43" class="edge">
<title>39956&#45;&gt;5174</title>
<path fill="none" stroke="#d43d51" d="M1422.91,-1674.2C1462.28,-1572.27 1468.96,-1546.67 1530.32,-1285.5"/>
<polygon fill="#d43d51" stroke="#d43d51" points="1533.68,-1286.52 1532.56,-1275.98 1526.86,-1284.91 1533.68,-1286.52"/>
</g>
<!-- 41657 -->
<g id="node29" class="node">
<title>41657</title>
<ellipse fill="none" stroke="#379469" cx="2426.87" cy="-1539.02" rx="160.87" ry="28.99"/>
<text text-anchor="middle" x="2426.87" y="-1542.22" font-family="Times,serif" font-size="14.00" fill="gray">CavilLicenseChange</text>
<text text-anchor="middle" x="2426.87" y="-1525.72" font-family="Times,serif" font-size="14.00" fill="gray">1c226b0a3e88911e18e62614d1a4b09b</text>
</g>
<!-- 41657&#45;&gt;41658 -->
<g id="edge44" class="edge">
<title>41657&#45;&gt;41658</title>
<path fill="none" stroke="#379469" d="M2299.32,-1521.06C2256.38,-1512.87 2201.95,-1500.05 2097.22,-1474.69"/>
<polygon fill="#379469" stroke="#379469" points="2098.26,-1471.34 2087.72,-1472.39 2096.61,-1478.15 2098.26,-1471.34"/>
</g>
<!-- 43136 -->
<g id="node31" class="node">
<title>43136</title>
<text text-anchor="start" x="2701.48" y="-2484.27" font-family="Times,serif" font-size="14.00">CoDEStatus: </text>
<text text-anchor="start" x="2775.73" y="-2484.27" font-family="Times,serif" font-weight="bold" font-size="14.00" fill="#228b22">Approved</text>
<text text-anchor="start" x="2554.1" y="-2470.27" font-family="Times,serif" font-size="14.00">Eine Lizenz ist freigegeben, wenn sie nach fachlicher und juristischer Prüfung</text>
<text text-anchor="start" x="2536.1" y="-2456.27" font-family="Times,serif" font-size="14.00">seitens Open CoDE sowohl der Open Source Definition (gemäß Definition der Open</text>
<text text-anchor="start" x="2578.1" y="-2442.27" font-family="Times,serif" font-size="14.00">Source Initiative [extern]) entspricht und darüber hinaus keine für die</text>
<text text-anchor="start" x="2581.1" y="-2428.27" font-family="Times,serif" font-size="14.00">Öffentliche Verwaltung erkennbaren Schwierigkeiten birgt. Außer in</text>
<text text-anchor="start" x="2566.1" y="-2414.27" font-family="Times,serif" font-size="14.00">Ausnahmefällen ist nicht zu erwarten, dass einmal freigegebene Lizenzen</text>
<text text-anchor="start" x="2705.98" y="-2400.27" font-family="Times,serif" font-size="14.00">deklassifiziert werden.</text>
</g>
<!-- 48574 -->
<g id="node32" class="node">
<title>48574</title>
<ellipse fill="none" stroke="#379469" cx="2358.5" cy="-2035.91" rx="157.68" ry="28.99"/>
<text text-anchor="middle" x="2358.5" y="-2039.11" font-family="Times,serif" font-size="14.00" fill="gray">MetaeffektLicense</text>
<text text-anchor="middle" x="2358.5" y="-2022.61" font-family="Times,serif" font-size="14.00" fill="gray">97c76f6a947ad3a41d58f28b8d03da5a</text>
</g>
<!-- 43136&#45;&gt;48574 -->
<g id="edge45" class="edge">
<title>43136&#45;&gt;48574</title>
<path fill="none" stroke="#379469" d="M2717.48,-2394.82C2644.46,-2318.07 2605.7,-2279.6 2395.89,-2072.76"/>
<polygon fill="#379469" stroke="#379469" points="2398.36,-2070.29 2388.79,-2065.76 2393.45,-2075.28 2398.36,-2070.29"/>
</g>
<!-- 48574&#45;&gt;48575 -->
<g id="edge46" class="edge">
<title>48574&#45;&gt;48575</title>
<path fill="none" stroke="#379469" d="M2322.18,-2007.47C2219.13,-1926.63 2190.35,-1901.89 1937.14,-1681.03"/>
<polygon fill="#379469" stroke="#379469" points="1939.79,-1678.7 1929.96,-1674.76 1935.19,-1683.97 1939.79,-1678.7"/>
</g>
<!-- 48576 -->
<g id="node34" class="node">
<title>48576</title>
<polygon fill="none" stroke="#379469" points="2206.18,-2088.72 2206.18,-2103.63 2133.38,-2114.17 2030.43,-2114.17 1957.63,-2103.63 1957.63,-2088.72 2030.43,-2078.17 2133.38,-2078.17 2206.18,-2088.72"/>
<polygon fill="none" stroke="#379469" points="2210.18,-2085.25 2210.18,-2107.09 2133.67,-2118.17 2030.14,-2118.17 1953.63,-2107.09 1953.63,-2085.25 2030.14,-2074.17 2133.67,-2074.17 2210.18,-2085.25"/>
<text text-anchor="middle" x="2081.9" y="-2091.12" font-family="Times,serif" font-size="14.00">gSOAP Public License 1.3b</text>
</g>
<!-- 48576&#45;&gt;48575 -->
<g id="edge47" class="edge">
<title>48576&#45;&gt;48575</title>
<path fill="none" stroke="#379469" stroke-width="2" d="M2077.28,-2073.7C2052.34,-1953.29 2044.39,-1934.59 1919.19,-1683.41"/>
<polygon fill="#379469" stroke="#379469" stroke-width="2" points="1915.38,-1675.79 1923.87,-1682.73 1916.98,-1677.86 1920.29,-1684.51 1919.85,-1684.74 1919.4,-1684.96 1916.08,-1678.3 1915.82,-1686.74 1915.38,-1675.79"/>
</g>
<!-- 48577 -->
<g id="node35" class="node">
<title>48577</title>
<polygon fill="none" stroke="#379469" points="2244.61,-1861.53 2244.61,-1876.45 2219.84,-1886.99 2184.81,-1886.99 2160.04,-1876.45 2160.04,-1861.53 2184.81,-1850.99 2219.84,-1850.99 2244.61,-1861.53"/>
<text text-anchor="middle" x="2202.33" y="-1863.94" font-family="Times,serif" font-size="14.00">gSOAP</text>
</g>
<!-- 48577&#45;&gt;48575 -->
<g id="edge48" class="edge">
<title>48577&#45;&gt;48575</title>
<path fill="none" stroke="#379469" stroke-dasharray="5,2" d="M2177.78,-1853.91C2110.39,-1812.33 2090.65,-1797.71 1940.27,-1680.36"/>
<polygon fill="#379469" stroke="#379469" points="1932.56,-1674.35 1943.21,-1676.95 1935.54,-1676.67 1940.44,-1680.5 1940.44,-1680.5 1940.44,-1680.5 1935.54,-1676.67 1937.67,-1684.05 1932.56,-1674.35"/>
</g>
<!-- 48578 -->
<g id="node36" class="node">
<title>48578</title>
<polygon fill="none" stroke="black" points="2076.07,-2163.4 2076.07,-2178.32 1984.13,-2188.86 1854.1,-2188.86 1762.15,-2178.32 1762.15,-2163.4 1854.1,-2152.86 1984.13,-2152.86 2076.07,-2163.4"/>
<text text-anchor="middle" x="1919.11" y="-2165.81" font-family="Times,serif" font-size="14.00">gSOAP Public License Version 1.3b</text>
</g>
<!-- 48578&#45;&gt;48575 -->
<g id="edge49" class="edge">
<title>48578&#45;&gt;48575</title>
<path fill="none" stroke="#379469" stroke-dasharray="5,2" d="M1924.11,-2152.48C1964.27,-2004.33 1963.54,-1987.7 1909.18,-1684.49"/>
<polygon fill="#379469" stroke="#379469" points="1907.44,-1674.78 1913.64,-1683.83 1908.11,-1678.5 1909.21,-1684.62 1909.21,-1684.62 1909.21,-1684.62 1908.11,-1678.5 1904.78,-1685.42 1907.44,-1674.78"/>
</g>
<!-- 61150&#45;&gt;61151 -->
<g id="edge50" class="edge">
<title>61150&#45;&gt;61151</title>
<path fill="none" stroke="#dac767" d="M771.65,-1923.73C881.56,-1875.99 924.12,-1847.15 1182.23,-1663.46"/>
<polygon fill="#dac767" stroke="#dac767" points="1184.15,-1666.39 1190.27,-1657.74 1180.09,-1660.68 1184.15,-1666.39"/>
</g>
<!-- 70519 -->
<g id="node39" class="node">
<title>70519</title>
<ellipse fill="none" stroke="#00876c" cx="1124.77" cy="-1186.68" rx="156.62" ry="28.99"/>
<text text-anchor="middle" x="1124.77" y="-1189.88" font-family="Times,serif" font-size="14.00" fill="gray">LicenseLynx</text>
<text text-anchor="middle" x="1124.77" y="-1173.38" font-family="Times,serif" font-size="14.00" fill="gray">abf064830fe7ce3535160f2dda133594</text>
</g>
<!-- 70519&#45;&gt;5174 -->
<g id="edge51" class="edge">
<title>70519&#45;&gt;5174</title>
<path fill="none" stroke="#00876c" d="M1254.17,-1203.3C1294.3,-1209.11 1344.92,-1217.11 1436.36,-1231.81"/>
<polygon fill="#00876c" stroke="#00876c" points="1435.8,-1235.27 1446.23,-1233.4 1436.91,-1228.36 1435.8,-1235.27"/>
</g>
<!-- 70520&#45;&gt;5174 -->
<g id="edge52" class="edge">
<title>70520&#45;&gt;5174</title>
<path fill="none" stroke="#00876c" stroke-width="2" d="M1241.53,-1362.02C1293.4,-1344.53 1335.58,-1328.31 1472.63,-1274.46"/>
<polygon fill="#00876c" stroke="#00876c" stroke-width="2" points="1480.4,-1271.41 1472.74,-1279.26 1478.19,-1272.81 1471.27,-1275.53 1471.09,-1275.07 1470.91,-1274.6 1477.83,-1271.88 1469.44,-1270.88 1480.4,-1271.41"/>
</g>
</g>
</svg>
