<?xml version="1.0" encoding="UTF-8" standalone="no"?>
<!DOCTYPE svg PUBLIC "-//W3C//DTD SVG 1.1//EN"
 "http://www.w3.org/Graphics/SVG/1.1/DTD/svg11.dtd">
<!-- Generated by graphviz version 10.0.1 (0)
 -->
<!-- Pages: 1 -->
<svg width="3301pt" height="2648pt"
 viewBox="0.00 0.00 3301.00 2648.00" xmlns="http://www.w3.org/2000/svg" xmlns:xlink="http://www.w3.org/1999/xlink">
<g id="graph0" class="graph" transform="scale(1 1) rotate(0) translate(4 2644)">
<polygon fill="white" stroke="none" points="-4,4 -4,-2644 3297,-2644 3297,4 -4,4"/>
<!-- 5 -->
<g id="node1" class="node">
<title>5</title>
<text text-anchor="start" x="2437.68" y="-2481.17" font-family="Times,serif" font-size="14.00">OSI: </text>
<text text-anchor="start" x="2466.93" y="-2481.17" font-family="Times,serif" font-weight="bold" font-size="14.00" fill="#8b0000">Rejected</text>
</g>
<!-- 2280 -->
<g id="node2" class="node">
<title>2280</title>
<ellipse fill="none" stroke="#dac767" cx="2392.63" cy="-2119.29" rx="155.56" ry="28.99"/>
<text text-anchor="middle" x="2392.63" y="-2122.49" font-family="Times,serif" font-size="14.00" fill="gray">SPDXLicense</text>
<text text-anchor="middle" x="2392.63" y="-2105.99" font-family="Times,serif" font-size="14.00" fill="gray">601840104f42bcaea86bdfcb2f0cb4a7</text>
</g>
<!-- 5&#45;&gt;2280 -->
<g id="edge1" class="edge">
<title>5&#45;&gt;2280</title>
<path fill="none" stroke="#dac767" d="M2478.07,-2467.52C2481.6,-2366.86 2478.1,-2350.58 2407.45,-2159.35"/>
<polygon fill="#dac767" stroke="#dac767" points="2410.76,-2158.2 2404.01,-2150.04 2404.2,-2160.63 2410.76,-2158.2"/>
</g>
<!-- 2281 -->
<g id="node3" class="node">
<title>2281</title>
<polygon fill="none" stroke="black" points="2054.53,-1722.99 2054.53,-1737.9 2012.88,-1748.45 1953.98,-1748.45 1912.34,-1737.9 1912.34,-1722.99 1953.98,-1712.45 2012.88,-1712.45 2054.53,-1722.99"/>
<polygon fill="none" stroke="black" points="2058.53,-1719.88 2058.53,-1741.02 2013.38,-1752.45 1953.48,-1752.45 1908.34,-1741.02 1908.34,-1719.88 1953.48,-1708.45 2013.38,-1708.45 2058.53,-1719.88"/>
<polygon fill="none" stroke="black" points="2062.53,-1716.76 2062.53,-1744.13 2013.88,-1756.45 1952.99,-1756.45 1904.34,-1744.13 1904.34,-1716.76 1952.99,-1704.45 2013.88,-1704.45 2062.53,-1716.76"/>
<text text-anchor="middle" x="1983.43" y="-1725.4" font-family="Times,serif" font-size="14.00">spdx:Gutmann</text>
</g>
<!-- 2280&#45;&gt;2281 -->
<g id="edge2" class="edge">
<title>2280&#45;&gt;2281</title>
<path fill="none" stroke="#dac767" d="M2359.02,-2090.58C2265.48,-2010.47 2239.27,-1985 2017.97,-1764.81"/>
<polygon fill="#dac767" stroke="#dac767" points="2020.64,-1762.54 2011.09,-1757.97 2015.71,-1767.5 2020.64,-1762.54"/>
</g>
<!-- 9609 -->
<g id="node13" class="node">
<title>9609</title>
<polygon fill="none" stroke="#e09d4b" points="2320.38,-1364.69 2320.38,-1379.61 2273.54,-1390.15 2207.3,-1390.15 2160.47,-1379.61 2160.47,-1364.69 2207.3,-1354.15 2273.54,-1354.15 2320.38,-1364.69"/>
<polygon fill="none" stroke="#e09d4b" points="2324.38,-1361.49 2324.38,-1382.81 2273.99,-1394.15 2206.86,-1394.15 2156.47,-1382.81 2156.47,-1361.49 2206.86,-1350.15 2273.99,-1350.15 2324.38,-1361.49"/>
<text text-anchor="middle" x="2240.42" y="-1367.1" font-family="Times,serif" font-size="14.00">Fedora:Gutmann</text>
</g>
<!-- 2281&#45;&gt;9609 -->
<g id="edge3" class="edge">
<title>2281&#45;&gt;9609</title>
<path fill="none" stroke="#e09d4b" stroke-width="2" d="M2020.23,-1705.59C2181.38,-1596.27 2193.14,-1578.59 2232.89,-1405.25"/>
<polygon fill="#e09d4b" stroke="#e09d4b" stroke-width="2" points="2234.82,-1396.81 2236.98,-1407.56 2234.74,-1399.42 2233.08,-1406.67 2232.59,-1406.56 2232.11,-1406.45 2233.76,-1399.2 2228.21,-1405.56 2234.82,-1396.81"/>
</g>
<!-- 30362 -->
<g id="node22" class="node">
<title>30362</title>
<polygon fill="none" stroke="black" points="2209.44,-1520.94 2209.44,-1535.85 2158.71,-1546.4 2086.96,-1546.4 2036.23,-1535.85 2036.23,-1520.94 2086.96,-1510.4 2158.71,-1510.4 2209.44,-1520.94"/>
<polygon fill="none" stroke="black" points="2213.44,-1517.69 2213.44,-1539.11 2159.12,-1550.4 2086.55,-1550.4 2032.23,-1539.11 2032.23,-1517.69 2086.55,-1506.4 2159.12,-1506.4 2213.44,-1517.69"/>
<text text-anchor="middle" x="2122.83" y="-1523.35" font-family="Times,serif" font-size="14.00">scancode:gutmann</text>
</g>
<!-- 2281&#45;&gt;30362 -->
<g id="edge4" class="edge">
<title>2281&#45;&gt;30362</title>
<path fill="none" stroke="#deb256" stroke-width="2" d="M2007.44,-1704.28C2035.91,-1667.35 2082.28,-1600.15 2106.77,-1560.33"/>
<polygon fill="#deb256" stroke="#deb256" stroke-width="2" points="2111.24,-1552.92 2109.93,-1563.81 2110.35,-1555.38 2106.5,-1561.74 2106.08,-1561.48 2105.65,-1561.23 2109.49,-1554.86 2102.22,-1559.16 2111.24,-1552.92"/>
</g>
<!-- 43221 -->
<g id="node32" class="node">
<title>43221</title>
<polygon fill="none" stroke="#379469" points="1596.97,-1382.02 1596.97,-1396.93 1496.26,-1407.48 1353.84,-1407.48 1253.13,-1396.93 1253.13,-1382.02 1353.84,-1371.48 1496.26,-1371.48 1596.97,-1382.02"/>
<polygon fill="none" stroke="#379469" points="1600.97,-1378.42 1600.97,-1400.54 1496.47,-1411.48 1353.63,-1411.48 1249.13,-1400.54 1249.13,-1378.42 1353.63,-1367.48 1496.47,-1367.48 1600.97,-1378.42"/>
<text text-anchor="middle" x="1425.05" y="-1384.43" font-family="Times,serif" font-size="14.00">metaeffekt:ASN1&#45;object&#45;dumping&#45;code</text>
</g>
<!-- 2281&#45;&gt;43221 -->
<g id="edge5" class="edge">
<title>2281&#45;&gt;43221</title>
<path fill="none" stroke="#379469" stroke-width="2" d="M1904.51,-1716.3C1737.4,-1684.31 1700.89,-1654.34 1456.47,-1419.67"/>
<polygon fill="#379469" stroke="#379469" stroke-width="2" points="1450.2,-1413.64 1460.53,-1417.32 1452.39,-1415.05 1457.76,-1420.2 1457.41,-1420.56 1457.06,-1420.92 1451.7,-1415.77 1454.29,-1423.81 1450.2,-1413.64"/>
</g>
<!-- 2282 -->
<g id="node4" class="node">
<title>2282</title>
<polygon fill="none" stroke="black" points="2386.83,-1603.99 2386.83,-1618.91 2357.85,-1629.45 2316.85,-1629.45 2287.86,-1618.91 2287.86,-1603.99 2316.85,-1593.45 2357.85,-1593.45 2386.83,-1603.99"/>
<polygon fill="none" stroke="black" points="2390.83,-1601.19 2390.83,-1621.71 2358.55,-1633.45 2316.14,-1633.45 2283.86,-1621.71 2283.86,-1601.19 2316.14,-1589.45 2358.55,-1589.45 2390.83,-1601.19"/>
<text text-anchor="middle" x="2337.35" y="-1606.4" font-family="Times,serif" font-size="14.00">Gutmann</text>
</g>
<!-- 2282&#45;&gt;2281 -->
<g id="edge6" class="edge">
<title>2282&#45;&gt;2281</title>
<path fill="none" stroke="black" stroke-width="2" d="M2313.14,-1632.7C2235.28,-1700.47 2211.23,-1712.02 2073.7,-1723.58"/>
<polygon fill="black" stroke="black" stroke-width="2" points="2065.15,-1724.29 2074.74,-1718.98 2067.66,-1723.58 2075.07,-1722.97 2075.11,-1723.47 2075.15,-1723.96 2067.74,-1724.57 2075.48,-1727.95 2065.15,-1724.29"/>
</g>
<!-- 2282&#45;&gt;9609 -->
<g id="edge7" class="edge">
<title>2282&#45;&gt;9609</title>
<path fill="none" stroke="#e09d4b" stroke-width="2" d="M2337.6,-1589.17C2338.16,-1512.25 2332.58,-1497.51 2263.63,-1403.6"/>
<polygon fill="#e09d4b" stroke="#e09d4b" stroke-width="2" points="2258.43,-1396.53 2267.98,-1401.92 2260.35,-1398.3 2264.76,-1404.29 2264.35,-1404.58 2263.95,-1404.88 2259.54,-1398.89 2260.73,-1407.25 2258.43,-1396.53"/>
</g>
<!-- 2282&#45;&gt;30362 -->
<g id="edge8" class="edge">
<title>2282&#45;&gt;30362</title>
<path fill="none" stroke="black" stroke-width="2" d="M2295.84,-1596.39C2269.17,-1586.54 2245.51,-1577.27 2182.07,-1552.01"/>
<polygon fill="black" stroke="black" stroke-width="2" points="2174.24,-1548.89 2185.2,-1548.41 2176.81,-1549.38 2183.72,-1552.13 2183.53,-1552.59 2183.35,-1553.06 2176.44,-1550.31 2181.87,-1556.77 2174.24,-1548.89"/>
</g>
<!-- 41662 -->
<g id="node30" class="node">
<title>41662</title>
<polygon fill="none" stroke="#379469" points="2791.49,-1564.01 2791.49,-1578.92 2749.52,-1589.46 2690.17,-1589.46 2648.2,-1578.92 2648.2,-1564.01 2690.17,-1553.46 2749.52,-1553.46 2791.49,-1564.01"/>
<polygon fill="none" stroke="#379469" points="2795.49,-1560.89 2795.49,-1582.04 2750.02,-1593.46 2689.67,-1593.46 2644.2,-1582.04 2644.2,-1560.89 2689.67,-1549.46 2750.02,-1549.46 2795.49,-1560.89"/>
<text text-anchor="middle" x="2719.85" y="-1566.41" font-family="Times,serif" font-size="14.00">cavil:Gutmann</text>
</g>
<!-- 2282&#45;&gt;41662 -->
<g id="edge9" class="edge">
<title>2282&#45;&gt;41662</title>
<path fill="none" stroke="#379469" stroke-width="2" d="M2391.08,-1611.97C2556.72,-1613.44 2597.59,-1612 2659.87,-1592.37"/>
<polygon fill="#379469" stroke="#379469" stroke-width="2" points="2668.17,-1589.67 2660.05,-1597.04 2665.89,-1590.94 2658.82,-1593.23 2658.66,-1592.76 2658.51,-1592.28 2665.58,-1589.99 2657.27,-1588.48 2668.17,-1589.67"/>
</g>
<!-- 2283 -->
<g id="node5" class="node">
<title>2283</title>
<polygon fill="none" stroke="black" points="1874.18,-1561.44 1874.18,-1576.35 1825.4,-1586.89 1756.4,-1586.89 1707.62,-1576.35 1707.62,-1561.44 1756.4,-1550.89 1825.4,-1550.89 1874.18,-1561.44"/>
<polygon fill="none" stroke="black" points="1878.18,-1558.21 1878.18,-1579.58 1825.82,-1590.89 1755.98,-1590.89 1703.62,-1579.58 1703.62,-1558.21 1755.98,-1546.89 1825.82,-1546.89 1878.18,-1558.21"/>
<text text-anchor="middle" x="1790.9" y="-1563.84" font-family="Times,serif" font-size="14.00">Gutmann License</text>
</g>
<!-- 2283&#45;&gt;2281 -->
<g id="edge10" class="edge">
<title>2283&#45;&gt;2281</title>
<path fill="none" stroke="#dac767" stroke-width="2" d="M1814.05,-1591.21C1883.24,-1657.84 1907.81,-1680.84 1935.33,-1700.13"/>
<polygon fill="#dac767" stroke="#dac767" stroke-width="2" points="1942.42,-1704.94 1931.62,-1703.04 1940.02,-1703.91 1933.86,-1699.73 1934.14,-1699.32 1934.43,-1698.91 1940.58,-1703.09 1936.67,-1695.6 1942.42,-1704.94"/>
</g>
<!-- 2283&#45;&gt;30362 -->
<g id="edge11" class="edge">
<title>2283&#45;&gt;30362</title>
<path fill="none" stroke="#deb256" stroke-width="2" d="M1878.64,-1576.38C1985.39,-1584.69 2016.82,-1581.49 2072.33,-1554.64"/>
<polygon fill="#deb256" stroke="#deb256" stroke-width="2" points="2080.04,-1550.83 2073.08,-1559.3 2077.97,-1552.41 2071.3,-1555.71 2071.08,-1555.26 2070.86,-1554.81 2077.53,-1551.52 2069.09,-1551.23 2080.04,-1550.83"/>
</g>
<!-- 2283&#45;&gt;43221 -->
<g id="edge12" class="edge">
<title>2283&#45;&gt;43221</title>
<path fill="none" stroke="#379469" stroke-dasharray="5,2" d="M1703.17,-1563.54C1593.18,-1554.24 1564.96,-1533.13 1454.46,-1419.76"/>
<polygon fill="#379469" stroke="#379469" points="1447.56,-1412.68 1457.76,-1416.7 1450.2,-1415.39 1454.54,-1419.84 1454.54,-1419.84 1454.54,-1419.84 1450.2,-1415.39 1451.31,-1422.98 1447.56,-1412.68"/>
</g>
<!-- 67380 -->
<g id="node37" class="node">
<title>67380</title>
<polygon fill="none" stroke="#00876c" points="2064.12,-1433.36 2064.12,-1448.27 2002.68,-1458.81 1915.79,-1458.81 1854.34,-1448.27 1854.34,-1433.36 1915.79,-1422.81 2002.68,-1422.81 2064.12,-1433.36"/>
<polygon fill="none" stroke="#00876c" points="2068.12,-1429.99 2068.12,-1451.64 2003.02,-1462.81 1915.45,-1462.81 1850.34,-1451.64 1850.34,-1429.99 1915.45,-1418.81 2003.02,-1418.81 2068.12,-1429.99"/>
<text text-anchor="middle" x="1959.23" y="-1435.76" font-family="Times,serif" font-size="14.00">spdx:Gutmann License</text>
</g>
<!-- 2283&#45;&gt;67380 -->
<g id="edge13" class="edge">
<title>2283&#45;&gt;67380</title>
<path fill="none" stroke="#00876c" stroke-width="2" d="M1845.97,-1550.78C1899.26,-1531.93 1913.55,-1519.12 1940.99,-1472.65"/>
<polygon fill="#00876c" stroke="#00876c" stroke-width="2" points="1945.25,-1465.34 1944.11,-1476.24 1944.4,-1467.8 1940.65,-1474.23 1940.22,-1473.98 1939.79,-1473.73 1943.53,-1467.3 1936.33,-1471.71 1945.25,-1465.34"/>
</g>
<!-- 2284 -->
<g id="node6" class="node">
<title>2284</title>
<text text-anchor="middle" x="2689.84" y="-2406.8" font-family="Times,serif" font-size="14.00">$TEXT</text>
</g>
<!-- 2284&#45;&gt;2280 -->
<g id="edge14" class="edge">
<title>2284&#45;&gt;2280</title>
<path fill="none" stroke="#dac767" d="M2670.9,-2394.07C2602.46,-2329.74 2585.49,-2313.01 2429.38,-2156.2"/>
<polygon fill="#dac767" stroke="#dac767" points="2431.96,-2153.83 2422.42,-2149.21 2427,-2158.77 2431.96,-2153.83"/>
</g>
<!-- 2285 -->
<g id="node7" class="node">
<title>2285</title>
<text text-anchor="middle" x="2844.22" y="-2575.59" font-family="Times,serif" font-size="14.00">$TEXT</text>
</g>
<!-- 2285&#45;&gt;2284 -->
<g id="edge15" class="edge">
<title>2285&#45;&gt;2284</title>
<path fill="none" stroke="#dac767" d="M2828.52,-2563.01C2799.72,-2530.72 2787,-2516.86 2714.13,-2438.11"/>
<polygon fill="#dac767" stroke="#dac767" points="2716.8,-2435.84 2707.44,-2430.87 2711.66,-2440.59 2716.8,-2435.84"/>
</g>
<!-- 2286 -->
<g id="node8" class="node">
<title>2286</title>
<text text-anchor="middle" x="2556.02" y="-1643.65" font-family="Times,serif" font-size="14.00">https://www.cs.auckland.ac.nz/~pgut001/dumpasn1.c</text>
</g>
<!-- 2286&#45;&gt;2280 -->
<g id="edge16" class="edge">
<title>2286&#45;&gt;2280</title>
<path fill="none" stroke="#dac767" d="M2556.05,-1666.67C2556.55,-1919.63 2553.7,-1941.77 2426.22,-2082.48"/>
<polygon fill="#dac767" stroke="#dac767" points="2424,-2079.71 2419.87,-2089.47 2429.18,-2084.42 2424,-2079.71"/>
</g>
<!-- 30361 -->
<g id="node21" class="node">
<title>30361</title>
<ellipse fill="none" stroke="#deb256" cx="2272.94" cy="-1165.64" rx="158.22" ry="28.99"/>
<text text-anchor="middle" x="2272.94" y="-1168.84" font-family="Times,serif" font-size="14.00" fill="gray">ScancodeData</text>
<text text-anchor="middle" x="2272.94" y="-1152.34" font-family="Times,serif" font-size="14.00" fill="gray">446da26056d2859c963e05c8dacbca3f</text>
</g>
<!-- 2286&#45;&gt;30361 -->
<g id="edge17" class="edge">
<title>2286&#45;&gt;30361</title>
<path fill="none" stroke="#deb256" d="M2553.64,-1630.74C2527.03,-1430.64 2519.7,-1414.22 2309.57,-1202.49"/>
<polygon fill="#deb256" stroke="#deb256" points="2312.29,-1200.26 2302.76,-1195.63 2307.32,-1205.19 2312.29,-1200.26"/>
</g>
<!-- 5550 -->
<g id="node9" class="node">
<title>5550</title>
<text text-anchor="middle" x="1745.75" y="-1034.63" font-family="Times,serif" font-size="14.00">LicenseType Permissive</text>
</g>
<!-- 13499 -->
<g id="node14" class="node">
<title>13499</title>
<ellipse fill="none" stroke="#deb256" cx="1204.49" cy="-1048.11" rx="159.81" ry="28.99"/>
<text text-anchor="middle" x="1204.49" y="-1051.31" font-family="Times,serif" font-size="14.00" fill="gray">ScancodeData</text>
<text text-anchor="middle" x="1204.49" y="-1034.81" font-family="Times,serif" font-size="14.00" fill="gray">18735612a33c5451c41fd70b17ce1d47</text>
</g>
<!-- 5550&#45;&gt;13499 -->
<g id="edge18" class="edge">
<title>5550&#45;&gt;13499</title>
<path fill="none" stroke="#deb256" d="M1678.39,-1021.7C1452.15,-961.78 1410.71,-958.61 1275.6,-1016.53"/>
<polygon fill="#deb256" stroke="#deb256" points="1274.46,-1013.21 1266.67,-1020.39 1277.24,-1019.64 1274.46,-1013.21"/>
</g>
<!-- 5550&#45;&gt;30361 -->
<g id="edge19" class="edge">
<title>5550&#45;&gt;30361</title>
<path fill="none" stroke="#deb256" d="M1820.37,-1041.25C2070.02,-1046.87 2108.63,-1053.96 2222.64,-1130.95"/>
<polygon fill="#deb256" stroke="#deb256" points="2220.58,-1133.79 2230.82,-1136.51 2224.52,-1128 2220.58,-1133.79"/>
</g>
<!-- 6592 -->
<g id="node10" class="node">
<title>6592</title>
<text text-anchor="middle" x="2637.29" y="-464.03" font-family="Times,serif" font-size="14.00">[&quot;allowed&quot;]</text>
</g>
<!-- 9608 -->
<g id="node12" class="node">
<title>9608</title>
<ellipse fill="none" stroke="#e09d4b" cx="2447.15" cy="-856.33" rx="160.87" ry="28.99"/>
<text text-anchor="middle" x="2447.15" y="-859.53" font-family="Times,serif" font-size="14.00" fill="gray">FedoraEntry</text>
<text text-anchor="middle" x="2447.15" y="-843.03" font-family="Times,serif" font-size="14.00" fill="gray">689a10149033f77acb1bddb320407923</text>
</g>
<!-- 6592&#45;&gt;9608 -->
<g id="edge20" class="edge">
<title>6592&#45;&gt;9608</title>
<path fill="none" stroke="#e09d4b" d="M2634.13,-486.7C2612.79,-604.85 2605.55,-620.62 2473.05,-817.83"/>
<polygon fill="#e09d4b" stroke="#e09d4b" points="2470.16,-815.85 2467.48,-826.1 2475.97,-819.75 2470.16,-815.85"/>
</g>
<!-- 6593 -->
<g id="node11" class="node">
<title>6593</title>
<text text-anchor="start" x="2801.58" y="-103.76" font-family="Times,serif" font-size="14.00">Fedora: </text>
<text text-anchor="start" x="2846.58" y="-103.76" font-family="Times,serif" font-weight="bold" font-size="14.00" fill="#228b22">allowed</text>
<text text-anchor="start" x="2637.71" y="-89.76" font-family="Times,serif" font-size="14.00">A license is allowed if Fedora determines that the license is a free software /</text>
<text text-anchor="start" x="2632.46" y="-75.76" font-family="Times,serif" font-size="14.00">open source license. At a high level, the inquiry involves determining whether</text>
<text text-anchor="start" x="2631.33" y="-61.76" font-family="Times,serif" font-size="14.00">the license provides software freedom, and (equivalently) making sure that the</text>
<text text-anchor="start" x="2641.46" y="-47.76" font-family="Times,serif" font-size="14.00">license does not place burdens on users&#39; exercise of its permissions that are</text>
<text text-anchor="start" x="2641.08" y="-33.76" font-family="Times,serif" font-size="14.00">inconsistent with evolving community norms and traditions around what is</text>
<text text-anchor="start" x="2632.83" y="-19.76" font-family="Times,serif" font-size="14.00">acceptable in a free software / open source license. See below for more on the</text>
<text text-anchor="start" x="2752.83" y="-5.76" font-family="Times,serif" font-size="14.00">history of Fedora licensing policy.</text>
</g>
<!-- 6593&#45;&gt;6592 -->
<g id="edge21" class="edge">
<title>6593&#45;&gt;6592</title>
<path fill="none" stroke="#e09d4b" d="M2829.52,-119.79C2804.42,-204.3 2781.9,-241.62 2654.86,-441.46"/>
<polygon fill="#e09d4b" stroke="#e09d4b" points="2651.95,-439.51 2649.54,-449.83 2657.86,-443.27 2651.95,-439.51"/>
</g>
<!-- 9608&#45;&gt;9609 -->
<g id="edge22" class="edge">
<title>9608&#45;&gt;9609</title>
<path fill="none" stroke="#e09d4b" d="M2447.55,-885.52C2449.87,-1075.51 2441.65,-1094.5 2263.41,-1340.46"/>
<polygon fill="#e09d4b" stroke="#e09d4b" points="2260.65,-1338.3 2257.61,-1348.45 2266.32,-1342.41 2260.65,-1338.3"/>
</g>
<!-- 13500 -->
<g id="node15" class="node">
<title>13500</title>
<polygon fill="none" stroke="black" points="853.73,-1345.79 853.73,-1360.7 813.05,-1371.25 755.53,-1371.25 714.86,-1360.7 714.86,-1345.79 755.53,-1335.25 813.05,-1335.25 853.73,-1345.79"/>
<polygon fill="none" stroke="black" points="857.73,-1342.7 857.73,-1363.8 813.56,-1375.25 755.02,-1375.25 710.86,-1363.8 710.86,-1342.7 755.02,-1331.25 813.56,-1331.25 857.73,-1342.7"/>
<text text-anchor="middle" x="784.29" y="-1348.2" font-family="Times,serif" font-size="14.00">scancode:asn1</text>
</g>
<!-- 13499&#45;&gt;13500 -->
<g id="edge23" class="edge">
<title>13499&#45;&gt;13500</title>
<path fill="none" stroke="#deb256" d="M1141.53,-1075.15C909.43,-1175.22 886.68,-1192.24 804.37,-1321.5"/>
<polygon fill="#deb256" stroke="#deb256" points="801.55,-1319.4 799.15,-1329.72 807.46,-1323.15 801.55,-1319.4"/>
</g>
<!-- 13500&#45;&gt;43221 -->
<g id="edge24" class="edge">
<title>13500&#45;&gt;43221</title>
<path fill="none" stroke="#379469" stroke-dasharray="5,2" d="M856.79,-1364.44C961.26,-1379.93 1017.08,-1383.37 1237.73,-1386.85"/>
<polygon fill="#379469" stroke="#379469" points="1247.49,-1387 1237.42,-1391.34 1243.71,-1386.94 1237.49,-1386.84 1237.49,-1386.84 1237.49,-1386.84 1243.71,-1386.94 1237.56,-1382.34 1247.49,-1387"/>
</g>
<!-- 13501 -->
<g id="node16" class="node">
<title>13501</title>
<polygon fill="none" stroke="black" points="547.15,-1314.21 547.15,-1329.12 529.52,-1339.67 504.58,-1339.67 486.95,-1329.12 486.95,-1314.21 504.58,-1303.67 529.52,-1303.67 547.15,-1314.21"/>
<polygon fill="none" stroke="black" points="551.15,-1311.94 551.15,-1331.39 530.62,-1343.67 503.48,-1343.67 482.95,-1331.39 482.95,-1311.94 503.48,-1299.67 530.62,-1299.67 551.15,-1311.94"/>
<text text-anchor="middle" x="517.05" y="-1316.62" font-family="Times,serif" font-size="14.00">asn1</text>
</g>
<!-- 13501&#45;&gt;13500 -->
<g id="edge25" class="edge">
<title>13501&#45;&gt;13500</title>
<path fill="none" stroke="black" stroke-width="2" d="M551.42,-1328.76C591.04,-1336.63 615.55,-1339.6 699.34,-1346.46"/>
<polygon fill="black" stroke="black" stroke-width="2" points="707.99,-1347.16 697.66,-1350.83 705.4,-1347.45 697.98,-1346.85 698.03,-1346.35 698.07,-1345.85 705.48,-1346.45 698.39,-1341.86 707.99,-1347.16"/>
</g>
<!-- 13502 -->
<g id="node17" class="node">
<title>13502</title>
<polygon fill="none" stroke="black" points="1212.91,-1342.83 1212.91,-1357.74 1114.8,-1368.29 976.05,-1368.29 877.94,-1357.74 877.94,-1342.83 976.05,-1332.29 1114.8,-1332.29 1212.91,-1342.83"/>
<polygon fill="none" stroke="black" points="1216.91,-1339.24 1216.91,-1361.34 1115.01,-1372.29 975.84,-1372.29 873.94,-1361.34 873.94,-1339.24 975.84,-1328.29 1115.01,-1328.29 1216.91,-1339.24"/>
<text text-anchor="middle" x="1045.43" y="-1345.24" font-family="Times,serif" font-size="14.00">ASN.1 Object Dumping Code License</text>
</g>
<!-- 13502&#45;&gt;13500 -->
<g id="edge26" class="edge">
<title>13502&#45;&gt;13500</title>
<path fill="none" stroke="#deb256" stroke-width="2" d="M873.45,-1353.49C871.94,-1353.51 870.45,-1353.52 868.99,-1353.54"/>
<polygon fill="#deb256" stroke="#deb256" stroke-width="2" points="860.63,-1353.6 870.6,-1349.02 863.19,-1353.08 870.63,-1353.02 870.63,-1353.52 870.64,-1354.02 863.2,-1354.08 870.67,-1358.02 860.63,-1353.6"/>
</g>
<!-- 13502&#45;&gt;43221 -->
<g id="edge27" class="edge">
<title>13502&#45;&gt;43221</title>
<path fill="none" stroke="#379469" stroke-dasharray="5,2" d="M1134.26,-1370.71C1162.09,-1375.62 1191.19,-1378.6 1237.51,-1381.3"/>
<polygon fill="#379469" stroke="#379469" points="1247.44,-1381.86 1237.2,-1385.79 1243.66,-1381.65 1237.45,-1381.3 1237.45,-1381.3 1237.45,-1381.3 1243.66,-1381.65 1237.71,-1376.81 1247.44,-1381.86"/>
</g>
<!-- 43223 -->
<g id="node34" class="node">
<title>43223</title>
<polygon fill="none" stroke="#379469" points="1212.24,-1406.87 1212.24,-1421.78 1087.19,-1432.32 910.35,-1432.32 785.31,-1421.78 785.31,-1406.87 910.35,-1396.32 1087.19,-1396.32 1212.24,-1406.87"/>
<polygon fill="none" stroke="#379469" points="1216.24,-1403.19 1216.24,-1425.46 1087.36,-1436.32 910.18,-1436.32 781.31,-1425.46 781.31,-1403.19 910.18,-1392.32 1087.36,-1392.32 1216.24,-1403.19"/>
<text text-anchor="middle" x="998.77" y="-1409.27" font-family="Times,serif" font-size="14.00">metaeffekt:ASN.1 Object Dumping Code License</text>
</g>
<!-- 13502&#45;&gt;43223 -->
<g id="edge28" class="edge">
<title>13502&#45;&gt;43223</title>
<path fill="none" stroke="#379469" stroke-width="2" d="M1020.2,-1372.54C1016.29,-1376.28 1013.32,-1379.47 1010.97,-1382.56"/>
<polygon fill="#379469" stroke="#379469" stroke-width="2" points="1006.65,-1389.85 1007.87,-1378.95 1007.53,-1387.39 1011.31,-1380.99 1011.74,-1381.24 1012.17,-1381.5 1008.39,-1387.9 1015.62,-1383.54 1006.65,-1389.85"/>
</g>
<!-- 69153 -->
<g id="node39" class="node">
<title>69153</title>
<polygon fill="none" stroke="#00876c" points="792.93,-996.66 792.93,-1011.57 671.78,-1022.12 500.44,-1022.12 379.29,-1011.57 379.29,-996.66 500.44,-986.12 671.78,-986.12 792.93,-996.66"/>
<polygon fill="none" stroke="#00876c" points="796.93,-992.99 796.93,-1015.24 671.95,-1026.12 500.27,-1026.12 375.29,-1015.24 375.29,-992.99 500.27,-982.12 671.95,-982.12 796.93,-992.99"/>
<text text-anchor="middle" x="586.11" y="-999.07" font-family="Times,serif" font-size="14.00">scancode:ASN.1 Object Dumping Code License</text>
</g>
<!-- 13502&#45;&gt;69153 -->
<g id="edge29" class="edge">
<title>13502&#45;&gt;69153</title>
<path fill="none" stroke="#00876c" stroke-width="2" d="M1005.38,-1327.8C724.93,-1170.23 700.04,-1153.31 609.56,-1034.99"/>
<polygon fill="#00876c" stroke="#00876c" stroke-width="2" points="604.4,-1028.23 614.05,-1033.46 606.36,-1029.97 610.87,-1035.88 610.47,-1036.19 610.07,-1036.49 605.56,-1030.57 606.89,-1038.91 604.4,-1028.23"/>
</g>
<!-- 13503 -->
<g id="node18" class="node">
<title>13503</title>
<polygon fill="none" stroke="black" points="705.19,-1758.13 705.19,-1773.04 622.98,-1783.59 506.72,-1783.59 424.51,-1773.04 424.51,-1758.13 506.72,-1747.59 622.98,-1747.59 705.19,-1758.13"/>
<polygon fill="none" stroke="black" points="709.19,-1754.61 709.19,-1776.56 623.24,-1787.59 506.47,-1787.59 420.51,-1776.56 420.51,-1754.61 506.47,-1743.59 623.24,-1743.59 709.19,-1754.61"/>
<text text-anchor="middle" x="564.85" y="-1760.54" font-family="Times,serif" font-size="14.00">spdx:LicenseRef&#45;scancode&#45;asn1</text>
</g>
<!-- 13503&#45;&gt;13500 -->
<g id="edge30" class="edge">
<title>13503&#45;&gt;13500</title>
<path fill="none" stroke="#deb256" stroke-width="2" d="M567.16,-1743.37C583.39,-1589.27 591.47,-1573.43 757.47,-1383.85"/>
<polygon fill="#deb256" stroke="#deb256" stroke-width="2" points="763.11,-1377.41 759.91,-1387.89 761.8,-1379.66 756.9,-1385.26 756.52,-1384.93 756.15,-1384.6 761.05,-1379.01 753.14,-1381.96 763.11,-1377.41"/>
</g>
<!-- 13504 -->
<g id="node19" class="node">
<title>13504</title>
<polygon fill="none" stroke="black" points="241,-1830.26 241,-1845.17 171.45,-1855.71 73.08,-1855.71 3.53,-1845.17 3.53,-1830.26 73.08,-1819.71 171.45,-1819.71 241,-1830.26"/>
<polygon fill="none" stroke="black" points="245,-1826.82 245,-1848.61 171.75,-1859.71 72.78,-1859.71 -0.47,-1848.61 -0.47,-1826.82 72.78,-1815.71 171.75,-1815.71 245,-1826.82"/>
<text text-anchor="middle" x="122.26" y="-1832.66" font-family="Times,serif" font-size="14.00">LicenseRef&#45;scancode&#45;asn1</text>
</g>
<!-- 13504&#45;&gt;13503 -->
<g id="edge31" class="edge">
<title>13504&#45;&gt;13503</title>
<path fill="none" stroke="black" stroke-width="2" d="M245.46,-1830.01C293.52,-1824.12 349.89,-1812.64 467.96,-1786.85"/>
<polygon fill="black" stroke="black" stroke-width="2" points="476.44,-1785 467.63,-1791.53 474.04,-1786.03 466.78,-1787.62 466.67,-1787.13 466.56,-1786.64 473.83,-1785.06 465.71,-1782.74 476.44,-1785"/>
</g>
<!-- 69154 -->
<g id="node40" class="node">
<title>69154</title>
<polygon fill="none" stroke="#00876c" points="512.31,-1502.25 512.31,-1517.17 419.72,-1527.71 288.77,-1527.71 196.18,-1517.17 196.18,-1502.25 288.77,-1491.71 419.72,-1491.71 512.31,-1502.25"/>
<polygon fill="none" stroke="#00876c" points="516.31,-1498.68 516.31,-1520.74 419.95,-1531.71 288.55,-1531.71 192.18,-1520.74 192.18,-1498.68 288.55,-1487.71 419.95,-1487.71 516.31,-1498.68"/>
<text text-anchor="middle" x="354.25" y="-1504.66" font-family="Times,serif" font-size="14.00">scancode:LicenseRef&#45;scancode&#45;asn1</text>
</g>
<!-- 13504&#45;&gt;69154 -->
<g id="edge32" class="edge">
<title>13504&#45;&gt;69154</title>
<path fill="none" stroke="#00876c" stroke-width="2" d="M128.2,-1815.26C158.92,-1700.18 169.63,-1684.82 322.7,-1539.6"/>
<polygon fill="#00876c" stroke="#00876c" stroke-width="2" points="328.8,-1533.81 324.64,-1543.95 327.29,-1535.93 321.89,-1541.05 321.55,-1540.69 321.2,-1540.32 326.6,-1535.21 318.45,-1537.42 328.8,-1533.81"/>
</g>
<!-- 13505 -->
<g id="node20" class="node">
<title>13505</title>
<text text-anchor="middle" x="1037.61" y="-690.08" font-family="Times,serif" font-size="14.00">$TEXT</text>
</g>
<!-- 13505&#45;&gt;13499 -->
<g id="edge33" class="edge">
<title>13505&#45;&gt;13499</title>
<path fill="none" stroke="#deb256" d="M1041.05,-713.04C1060.68,-814.65 1067.86,-830.5 1180.28,-1009.58"/>
<polygon fill="#deb256" stroke="#deb256" points="1177.15,-1011.19 1185.43,-1017.79 1183.08,-1007.46 1177.15,-1011.19"/>
</g>
<!-- 30361&#45;&gt;30362 -->
<g id="edge34" class="edge">
<title>30361&#45;&gt;30362</title>
<path fill="none" stroke="#deb256" d="M2273.45,-1194.91C2275.68,-1341.31 2268.77,-1358.93 2149.22,-1497.84"/>
<polygon fill="#deb256" stroke="#deb256" points="2146.8,-1495.28 2142.93,-1505.14 2152.11,-1499.85 2146.8,-1495.28"/>
</g>
<!-- 30362&#45;&gt;2281 -->
<g id="edge35" class="edge">
<title>30362&#45;&gt;2281</title>
<path fill="none" stroke="#00876c" stroke-width="2" d="M2101.94,-1550.55C2074.71,-1585.33 2027.88,-1652.91 2001.89,-1694.64"/>
<polygon fill="#00876c" stroke="#00876c" stroke-width="2" points="1997.34,-1702.07 1998.73,-1691.19 1998.25,-1699.62 2002.14,-1693.28 2002.56,-1693.54 2002.99,-1693.81 1999.1,-1700.15 2006.4,-1695.9 1997.34,-1702.07"/>
</g>
<!-- 30363 -->
<g id="node23" class="node">
<title>30363</title>
<text text-anchor="middle" x="2834.71" y="-1205.08" font-family="Times,serif" font-size="14.00">ScancodeData:</text>
<text text-anchor="middle" x="2834.71" y="-1188.58" font-family="Times,serif" font-size="14.00">Added in SPDX license list 3.24</text>
<text text-anchor="middle" x="2834.71" y="-1172.08" font-family="Times,serif" font-size="14.00">This was previously the license rule: other&#45;permissive_bsdish_1.RULE</text>
</g>
<!-- 30363&#45;&gt;30361 -->
<g id="edge36" class="edge">
<title>30363&#45;&gt;30361</title>
<path fill="none" stroke="#deb256" d="M2632.64,-1166.52C2587.2,-1164.41 2529.91,-1164.01 2442.71,-1164.41"/>
<polygon fill="#deb256" stroke="#deb256" points="2442.85,-1160.91 2432.87,-1164.46 2442.88,-1167.91 2442.85,-1160.91"/>
</g>
<!-- 30364 -->
<g id="node24" class="node">
<title>30364</title>
<text text-anchor="middle" x="2574.2" y="-958.97" font-family="Times,serif" font-size="14.00">$TEXT</text>
</g>
<!-- 30364&#45;&gt;30361 -->
<g id="edge37" class="edge">
<title>30364&#45;&gt;30361</title>
<path fill="none" stroke="#deb256" d="M2555.57,-981.8C2497.98,-1036.4 2478.6,-1049.71 2332.27,-1132.25"/>
<polygon fill="#deb256" stroke="#deb256" points="2330.76,-1129.08 2323.76,-1137.04 2334.19,-1135.18 2330.76,-1129.08"/>
</g>
<!-- 35432 -->
<g id="node25" class="node">
<title>35432</title>
<text text-anchor="middle" x="1196.14" y="-2617.13" font-family="Times,serif" font-size="14.00">LicenseTag (ScopedLicenseTag &quot;OrtLicenseCategorization&quot; &quot;permissive&quot; NoLicenseTagText)</text>
</g>
<!-- 35726 -->
<g id="node27" class="node">
<title>35726</title>
<ellipse fill="none" stroke="#d43d51" cx="1597.6" cy="-2147.6" rx="156.62" ry="28.99"/>
<text text-anchor="middle" x="1597.6" y="-2150.8" font-family="Times,serif" font-size="14.00" fill="gray">OrtLicenseCategorization</text>
<text text-anchor="middle" x="1597.6" y="-2134.3" font-family="Times,serif" font-size="14.00" fill="gray">a6fbcbfbbe96420d9fc2d64d37b1648c</text>
</g>
<!-- 35432&#45;&gt;35726 -->
<g id="edge38" class="edge">
<title>35432&#45;&gt;35726</title>
<path fill="none" stroke="#d43d51" d="M1222.48,-2604.38C1363.4,-2508.8 1379.68,-2488.24 1572.99,-2186.07"/>
<polygon fill="#d43d51" stroke="#d43d51" points="1575.8,-2188.17 1578.24,-2177.86 1569.91,-2184.4 1575.8,-2188.17"/>
</g>
<!-- 36062 -->
<g id="node28" class="node">
<title>36062</title>
<ellipse fill="none" stroke="#d43d51" cx="830.66" cy="-2197.23" rx="156.09" ry="28.99"/>
<text text-anchor="middle" x="830.66" y="-2200.43" font-family="Times,serif" font-size="14.00" fill="gray">OrtLicenseCategorization</text>
<text text-anchor="middle" x="830.66" y="-2183.93" font-family="Times,serif" font-size="14.00" fill="gray">ee4fdf2985904c77a893b5f9c7866a12</text>
</g>
<!-- 35432&#45;&gt;36062 -->
<g id="edge39" class="edge">
<title>35432&#45;&gt;36062</title>
<path fill="none" stroke="#d43d51" d="M1159.01,-2604.19C966.2,-2510.33 951.22,-2491.4 846.77,-2236.61"/>
<polygon fill="#d43d51" stroke="#d43d51" points="850.14,-2235.6 843.11,-2227.67 843.66,-2238.25 850.14,-2235.6"/>
</g>
<!-- 35433 -->
<g id="node26" class="node">
<title>35433</title>
<text text-anchor="middle" x="1509.38" y="-2197.7" font-family="Times,serif" font-size="14.00">LicenseTag (ScopedLicenseTag &quot;OrtLicenseCategorization&quot; &quot;include&#45;in&#45;notice&#45;file&quot; NoLicenseTagText)</text>
</g>
<!-- 35433&#45;&gt;35726 -->
<g id="edge40" class="edge">
<title>35433&#45;&gt;35726</title>
<path fill="none" stroke="#d43d51" d="M1559.79,-2184.9C1560.15,-2184.6 1560.52,-2184.3 1560.89,-2183.99"/>
<polygon fill="#d43d51" stroke="#d43d51" points="1563.06,-2186.75 1568.15,-2177.45 1558.38,-2181.54 1563.06,-2186.75"/>
</g>
<!-- 35433&#45;&gt;36062 -->
<g id="edge41" class="edge">
<title>35433&#45;&gt;36062</title>
<path fill="none" stroke="#d43d51" d="M1447.15,-2220.68C1139.04,-2309.11 1096.66,-2312.95 902.2,-2228.78"/>
<polygon fill="#d43d51" stroke="#d43d51" points="903.87,-2225.69 893.31,-2224.91 901.08,-2232.11 903.87,-2225.69"/>
</g>
<!-- 35726&#45;&gt;2281 -->
<g id="edge42" class="edge">
<title>35726&#45;&gt;2281</title>
<path fill="none" stroke="#d43d51" d="M1657.86,-2120.36C1811.02,-2049.64 1831.64,-2019.91 1964.55,-1766.48"/>
<polygon fill="#d43d51" stroke="#d43d51" points="1967.49,-1768.41 1969.04,-1757.93 1961.29,-1765.16 1967.49,-1768.41"/>
</g>
<!-- 36062&#45;&gt;13503 -->
<g id="edge43" class="edge">
<title>36062&#45;&gt;13503</title>
<path fill="none" stroke="#d43d51" d="M791.78,-2168.77C622.44,-2044.2 612.04,-2023.6 570.95,-1799.06"/>
<polygon fill="#d43d51" stroke="#d43d51" points="574.41,-1798.56 569.17,-1789.35 567.53,-1799.81 574.41,-1798.56"/>
</g>
<!-- 41661 -->
<g id="node29" class="node">
<title>41661</title>
<ellipse fill="none" stroke="#379469" cx="3136.26" cy="-1472.6" rx="156.62" ry="28.99"/>
<text text-anchor="middle" x="3136.26" y="-1475.8" font-family="Times,serif" font-size="14.00" fill="gray">CavilLicenseChange</text>
<text text-anchor="middle" x="3136.26" y="-1459.3" font-family="Times,serif" font-size="14.00" fill="gray">f48692456ca0e8cc9eba99d1f4016c92</text>
</g>
<!-- 41661&#45;&gt;41662 -->
<g id="edge44" class="edge">
<title>41661&#45;&gt;41662</title>
<path fill="none" stroke="#379469" d="M3080.8,-1500.16C3014.1,-1531.58 2973.64,-1539.68 2807.02,-1560.65"/>
<polygon fill="#379469" stroke="#379469" points="2806.85,-1557.14 2797.36,-1561.86 2807.72,-1564.09 2806.85,-1557.14"/>
</g>
<!-- 43220 -->
<g id="node31" class="node">
<title>43220</title>
<ellipse fill="none" stroke="#379469" cx="1190.62" cy="-890.87" rx="159.81" ry="28.99"/>
<text text-anchor="middle" x="1190.62" y="-894.07" font-family="Times,serif" font-size="14.00" fill="gray">MetaeffektLicense</text>
<text text-anchor="middle" x="1190.62" y="-877.57" font-family="Times,serif" font-size="14.00" fill="gray">02076f6e711c42e78b5a7271295312da</text>
</g>
<!-- 43220&#45;&gt;43221 -->
<g id="edge45" class="edge">
<title>43220&#45;&gt;43221</title>
<path fill="none" stroke="#379469" d="M1193.61,-920.3C1210.43,-1082.85 1220.9,-1102.86 1402.55,-1357.9"/>
<polygon fill="#379469" stroke="#379469" points="1399.55,-1359.73 1408.2,-1365.84 1405.25,-1355.66 1399.55,-1359.73"/>
</g>
<!-- 43222 -->
<g id="node33" class="node">
<title>43222</title>
<polygon fill="none" stroke="#379469" points="1628.6,-889.89 1628.6,-904.8 1554.83,-915.34 1450.5,-915.34 1376.72,-904.8 1376.72,-889.89 1450.5,-879.34 1554.83,-879.34 1628.6,-889.89"/>
<polygon fill="none" stroke="#379469" points="1632.6,-886.42 1632.6,-908.27 1555.11,-919.34 1450.21,-919.34 1372.72,-908.27 1372.72,-886.42 1450.21,-875.34 1555.11,-875.34 1632.6,-886.42"/>
<text text-anchor="middle" x="1502.66" y="-892.29" font-family="Times,serif" font-size="14.00">ASN1&#45;object&#45;dumping&#45;code</text>
</g>
<!-- 43222&#45;&gt;43221 -->
<g id="edge46" class="edge">
<title>43222&#45;&gt;43221</title>
<path fill="none" stroke="#379469" stroke-width="2" d="M1488.73,-919.67C1395.97,-1068.83 1393.7,-1086.79 1421.59,-1356.13"/>
<polygon fill="#379469" stroke="#379469" stroke-width="2" points="1422.47,-1364.64 1416.96,-1355.16 1421.71,-1362.14 1420.94,-1354.75 1421.44,-1354.69 1421.93,-1354.64 1422.7,-1362.04 1425.91,-1354.23 1422.47,-1364.64"/>
</g>
<!-- 43223&#45;&gt;43221 -->
<g id="edge47" class="edge">
<title>43223&#45;&gt;43221</title>
<path fill="none" stroke="#379469" stroke-width="2" d="M1216.58,-1408.78C1230.7,-1407.58 1246.25,-1406.21 1263.56,-1404.65"/>
<polygon fill="#379469" stroke="#379469" stroke-width="2" points="1272.15,-1403.86 1262.6,-1409.25 1269.64,-1404.59 1262.23,-1405.27 1262.19,-1404.77 1262.14,-1404.27 1269.55,-1403.6 1261.78,-1400.29 1272.15,-1403.86"/>
</g>
<!-- 43224 -->
<g id="node35" class="node">
<title>43224</title>
<polygon fill="none" stroke="#379469" points="1501.2,-1434.9 1501.2,-1449.81 1426.77,-1460.35 1321.53,-1460.35 1247.11,-1449.81 1247.11,-1434.9 1321.53,-1424.35 1426.77,-1424.35 1501.2,-1434.9"/>
<text text-anchor="middle" x="1374.15" y="-1437.3" font-family="Times,serif" font-size="14.00">ASN.1 object dumping code</text>
</g>
<!-- 43224&#45;&gt;43221 -->
<g id="edge48" class="edge">
<title>43224&#45;&gt;43221</title>
<path fill="none" stroke="#379469" stroke-dasharray="5,2" d="M1385.59,-1424.12C1386.9,-1422.51 1388.35,-1420.9 1390.03,-1419.2"/>
<polygon fill="#379469" stroke="#379469" points="1397,-1412.72 1392.74,-1422.82 1394.23,-1415.29 1389.68,-1419.52 1389.68,-1419.52 1389.68,-1419.52 1394.23,-1415.29 1386.61,-1416.22 1397,-1412.72"/>
</g>
<!-- 67379 -->
<g id="node36" class="node">
<title>67379</title>
<ellipse fill="none" stroke="#00876c" cx="2036.1" cy="-2143.91" rx="155.03" ry="28.99"/>
<text text-anchor="middle" x="2036.1" y="-2147.11" font-family="Times,serif" font-size="14.00" fill="gray">LicenseLynx</text>
<text text-anchor="middle" x="2036.1" y="-2130.61" font-family="Times,serif" font-size="14.00" fill="gray">f5a90b5942db264f974250595f6b1ffa</text>
</g>
<!-- 67379&#45;&gt;2281 -->
<g id="edge49" class="edge">
<title>67379&#45;&gt;2281</title>
<path fill="none" stroke="#00876c" d="M2039.52,-2114.57C2051.02,-2012.76 2047.15,-1989.52 1992.61,-1767.73"/>
<polygon fill="#00876c" stroke="#00876c" points="1996.04,-1767.01 1990.25,-1758.14 1989.24,-1768.68 1996.04,-1767.01"/>
</g>
<!-- 67380&#45;&gt;2281 -->
<g id="edge50" class="edge">
<title>67380&#45;&gt;2281</title>
<path fill="none" stroke="#00876c" stroke-width="2" d="M1966.28,-1463.24C2009.51,-1601.06 2014.34,-1623.03 1994.5,-1693.29"/>
<polygon fill="#00876c" stroke="#00876c" stroke-width="2" points="1992.08,-1701.69 1990.53,-1690.83 1992.31,-1699.08 1994.37,-1691.94 1994.85,-1692.08 1995.33,-1692.22 1993.27,-1699.36 1999.18,-1693.33 1992.08,-1701.69"/>
</g>
<!-- 69152 -->
<g id="node38" class="node">
<title>69152</title>
<ellipse fill="none" stroke="#00876c" cx="362" cy="-1190.91" rx="159.81" ry="28.99"/>
<text text-anchor="middle" x="362" y="-1194.11" font-family="Times,serif" font-size="14.00" fill="gray">LicenseLynx</text>
<text text-anchor="middle" x="362" y="-1177.61" font-family="Times,serif" font-size="14.00" fill="gray">53360e43038cddc17fe811bb620c9186</text>
</g>
<!-- 69152&#45;&gt;13500 -->
<g id="edge51" class="edge">
<title>69152&#45;&gt;13500</title>
<path fill="none" stroke="#00876c" d="M406.67,-1219.16C481.06,-1265.03 517.78,-1277.71 717.88,-1334.46"/>
<polygon fill="#00876c" stroke="#00876c" points="716.74,-1337.78 727.32,-1337.14 718.65,-1331.04 716.74,-1337.78"/>
</g>
<!-- 69153&#45;&gt;13500 -->
<g id="edge52" class="edge">
<title>69153&#45;&gt;13500</title>
<path fill="none" stroke="#00876c" stroke-width="2" d="M588.82,-1026.42C605.12,-1158.86 613.28,-1174.4 755.07,-1322.73"/>
<polygon fill="#00876c" stroke="#00876c" stroke-width="2" points="761.12,-1329.06 750.96,-1324.94 758.99,-1327.55 753.85,-1322.18 754.21,-1321.83 754.57,-1321.49 759.71,-1326.86 757.46,-1318.72 761.12,-1329.06"/>
</g>
<!-- 69154&#45;&gt;13500 -->
<g id="edge53" class="edge">
<title>69154&#45;&gt;13500</title>
<path fill="none" stroke="#00876c" stroke-width="2" d="M394.89,-1487.3C475.04,-1443.8 509.38,-1432.15 718.54,-1372.09"/>
<polygon fill="#00876c" stroke="#00876c" stroke-width="2" points="726.94,-1369.68 718.57,-1376.77 724.61,-1370.87 717.46,-1372.92 717.33,-1372.44 717.19,-1371.96 724.34,-1369.91 716.08,-1368.12 726.94,-1369.68"/>
</g>
</g>
</svg>
