<?xml version="1.0" encoding="UTF-8" standalone="no"?>
<!DOCTYPE svg PUBLIC "-//W3C//DTD SVG 1.1//EN"
 "http://www.w3.org/Graphics/SVG/1.1/DTD/svg11.dtd">
<!-- Generated by graphviz version 10.0.1 (0)
 -->
<!-- Pages: 1 -->
<svg width="1630pt" height="725pt"
 viewBox="0.00 0.00 1630.00 725.00" xmlns="http://www.w3.org/2000/svg" xmlns:xlink="http://www.w3.org/1999/xlink">
<g id="graph0" class="graph" transform="scale(1 1) rotate(0) translate(4 721)">
<polygon fill="white" stroke="none" points="-4,4 -4,-721 1626,-721 1626,4 -4,4"/>
<!-- 5 -->
<g id="node1" class="node">
<title>5</title>
<text text-anchor="start" x="106.32" y="-623.6" font-family="Times,serif" font-size="14.00">OSI: </text>
<text text-anchor="start" x="135.57" y="-623.6" font-family="Times,serif" font-weight="bold" font-size="14.00" fill="#8b0000">Rejected</text>
</g>
<!-- 2494 -->
<g id="node2" class="node">
<title>2494</title>
<ellipse fill="none" stroke="#dac767" cx="389.52" cy="-406.99" rx="160.34" ry="28.99"/>
<text text-anchor="middle" x="389.52" y="-410.19" font-family="Times,serif" font-size="14.00" fill="gray">SPDXLicense</text>
<text text-anchor="middle" x="389.52" y="-393.69" font-family="Times,serif" font-size="14.00" fill="gray">4ab9d173ed996f784511825c00b719ba</text>
</g>
<!-- 5&#45;&gt;2494 -->
<g id="edge1" class="edge">
<title>5&#45;&gt;2494</title>
<path fill="none" stroke="#dac767" d="M157.36,-610.03C200.45,-543.13 214.44,-529.46 339.77,-441.7"/>
<polygon fill="#dac767" stroke="#dac767" points="341.56,-444.72 347.75,-436.12 337.55,-438.99 341.56,-444.72"/>
</g>
<!-- 2495 -->
<g id="node3" class="node">
<title>2495</title>
<polygon fill="none" stroke="#dac767" points="1036.07,-558.16 1036.07,-573.07 933.41,-583.61 788.24,-583.61 685.58,-573.07 685.58,-558.16 788.24,-547.61 933.41,-547.61 1036.07,-558.16"/>
<polygon fill="none" stroke="#dac767" points="1040.07,-554.54 1040.07,-576.68 933.62,-587.61 788.03,-587.61 681.58,-576.68 681.58,-554.54 788.03,-543.61 933.62,-543.61 1040.07,-554.54"/>
<polygon fill="none" stroke="#dac767" points="1044.07,-550.93 1044.07,-580.29 933.82,-591.61 787.83,-591.61 677.58,-580.29 677.58,-550.93 787.83,-539.61 933.82,-539.61 1044.07,-550.93"/>
<text text-anchor="middle" x="860.82" y="-560.56" font-family="Times,serif" font-size="14.00">spdx:HPND&#45;sell&#45;variant&#45;critical&#45;systems</text>
</g>
<!-- 2494&#45;&gt;2495 -->
<g id="edge2" class="edge">
<title>2494&#45;&gt;2495</title>
<path fill="none" stroke="#dac767" d="M422.18,-435.7C509.72,-511.99 546.24,-534.75 666.09,-549.2"/>
<polygon fill="#dac767" stroke="#dac767" points="665.33,-552.64 675.67,-550.31 666.14,-545.68 665.33,-552.64"/>
</g>
<!-- 2496 -->
<g id="node4" class="node">
<title>2496</title>
<polygon fill="none" stroke="#dac767" points="1087.33,-616.27 1087.33,-631.18 997.33,-641.72 870.06,-641.72 780.06,-631.18 780.06,-616.27 870.06,-605.72 997.33,-605.72 1087.33,-616.27"/>
<polygon fill="none" stroke="#dac767" points="1091.33,-612.71 1091.33,-634.74 997.57,-645.72 869.82,-645.72 776.06,-634.74 776.06,-612.71 869.82,-601.72 997.57,-601.72 1091.33,-612.71"/>
<text text-anchor="middle" x="933.7" y="-618.67" font-family="Times,serif" font-size="14.00">HPND&#45;sell&#45;variant&#45;critical&#45;systems</text>
</g>
<!-- 2496&#45;&gt;2495 -->
<g id="edge3" class="edge">
<title>2496&#45;&gt;2495</title>
<path fill="none" stroke="#dac767" stroke-width="2" d="M894.78,-601.42C894.25,-600.92 893.71,-600.4 893.16,-599.87"/>
<polygon fill="#dac767" stroke="#dac767" stroke-width="2" points="887,-593.65 897.24,-597.58 889.16,-595.11 894.39,-600.4 894.04,-600.75 893.68,-601.1 888.45,-595.82 890.84,-603.92 887,-593.65"/>
</g>
<!-- 2497 -->
<g id="node5" class="node">
<title>2497</title>
<polygon fill="none" stroke="#dac767" points="1618.47,-687.11 1618.47,-702.02 1482.39,-712.57 1289.94,-712.57 1153.87,-702.02 1153.87,-687.11 1289.94,-676.57 1482.39,-676.57 1618.47,-687.11"/>
<polygon fill="none" stroke="#dac767" points="1622.47,-683.41 1622.47,-705.73 1482.54,-716.57 1289.79,-716.57 1149.87,-705.73 1149.87,-683.41 1289.79,-672.57 1482.54,-672.57 1622.47,-683.41"/>
<text text-anchor="middle" x="1386.17" y="-689.52" font-family="Times,serif" font-size="14.00">HPND &#45; sell variant with safety critical systems clause</text>
</g>
<!-- 2497&#45;&gt;2495 -->
<g id="edge4" class="edge">
<title>2497&#45;&gt;2495</title>
<path fill="none" stroke="#dac767" stroke-width="2" d="M1175.76,-681.03C1122.19,-666.98 1053.96,-641.34 938.43,-596.1"/>
<polygon fill="#dac767" stroke="#dac767" stroke-width="2" points="930.48,-592.98 941.43,-592.44 933.05,-593.45 939.97,-596.16 939.79,-596.63 939.61,-597.09 932.68,-594.38 938.15,-600.82 930.48,-592.98"/>
</g>
<!-- 2498 -->
<g id="node6" class="node">
<title>2498</title>
<text text-anchor="middle" x="416.11" y="-501.08" font-family="Times,serif" font-size="14.00">SPDXLicense:</text>
<text text-anchor="middle" x="416.11" y="-484.58" font-family="Times,serif" font-size="14.00">This license is a variant of HPND&#45;sell&#45;variant</text>
<text text-anchor="middle" x="416.11" y="-468.08" font-family="Times,serif" font-size="14.00">(https://spdx.org/licenses/HPND&#45;sell&#45;variant.html). It includes an informational</text>
<text text-anchor="middle" x="416.11" y="-451.58" font-family="Times,serif" font-size="14.00">tail about the use of the software in safety critical systems.</text>
</g>
<!-- 2498&#45;&gt;2494 -->
<g id="edge5" class="edge">
<title>2498&#45;&gt;2494</title>
<path fill="none" stroke="#dac767" d="M390.51,-444.42C390.46,-444.25 390.41,-444.09 390.37,-443.93"/>
<polygon fill="#dac767" stroke="#dac767" points="394.43,-446.83 389.26,-437.59 387.54,-448.04 394.43,-446.83"/>
</g>
<!-- 2499 -->
<g id="node7" class="node">
<title>2499</title>
<text text-anchor="middle" x="180.64" y="-140.03" font-family="Times,serif" font-size="14.00">$TEXT</text>
</g>
<!-- 2499&#45;&gt;2494 -->
<g id="edge6" class="edge">
<title>2499&#45;&gt;2494</title>
<path fill="none" stroke="#dac767" d="M186.3,-162.87C216.14,-256.04 225.87,-270.72 346.64,-371.4"/>
<polygon fill="#dac767" stroke="#dac767" points="344.05,-373.8 353.97,-377.51 348.53,-368.42 344.05,-373.8"/>
</g>
<!-- 2500 -->
<g id="node8" class="node">
<title>2500</title>
<text text-anchor="middle" x="79.43" y="-13.41" font-family="Times,serif" font-size="14.00">$TEXT</text>
</g>
<!-- 2500&#45;&gt;2499 -->
<g id="edge7" class="edge">
<title>2500&#45;&gt;2499</title>
<path fill="none" stroke="#dac767" d="M86.78,-36.41C99.24,-65.76 107.83,-76.43 153.23,-119.34"/>
<polygon fill="#dac767" stroke="#dac767" points="150.7,-121.77 160.38,-126.08 155.5,-116.68 150.7,-121.77"/>
</g>
<!-- 2501 -->
<g id="node9" class="node">
<title>2501</title>
<text text-anchor="middle" x="395.79" y="-346.92" font-family="Times,serif" font-size="14.00">https://gitlab.freedesktop.org/xorg/driver/xf86&#45;video&#45;voodoo/&#45;/blob/68a5b6d98ae34749cca889f4373b4043d00bfe6a/src/voodoo_dga.c#L12&#45;33</text>
</g>
<!-- 2501&#45;&gt;2494 -->
<g id="edge8" class="edge">
<title>2501&#45;&gt;2494</title>
<path fill="none" stroke="#dac767" d="M387.2,-369.82C387.17,-369.91 387.13,-370 387.09,-370.09"/>
<polygon fill="#dac767" stroke="#dac767" points="384.87,-365.53 385.19,-376.12 391.54,-367.64 384.87,-365.53"/>
</g>
</g>
</svg>
