<?xml version="1.0" encoding="UTF-8" standalone="no"?>
<!DOCTYPE svg PUBLIC "-//W3C//DTD SVG 1.1//EN"
 "http://www.w3.org/Graphics/SVG/1.1/DTD/svg11.dtd">
<!-- Generated by graphviz version 10.0.1 (0)
 -->
<!-- Pages: 1 -->
<svg width="2759pt" height="2167pt"
 viewBox="0.00 0.00 2759.00 2167.00" xmlns="http://www.w3.org/2000/svg" xmlns:xlink="http://www.w3.org/1999/xlink">
<g id="graph0" class="graph" transform="scale(1 1) rotate(0) translate(4 2163)">
<polygon fill="white" stroke="none" points="-4,4 -4,-2163 2755,-2163 2755,4 -4,4"/>
<!-- 5 -->
<g id="node1" class="node">
<title>5</title>
<text text-anchor="start" x="1050.68" y="-250.77" font-family="Times,serif" font-size="14.00">OSI: </text>
<text text-anchor="start" x="1079.93" y="-250.77" font-family="Times,serif" font-weight="bold" font-size="14.00" fill="#8b0000">Rejected</text>
</g>
<!-- 2387 -->
<g id="node2" class="node">
<title>2387</title>
<ellipse fill="none" stroke="#dac767" cx="1243.85" cy="-560.95" rx="158.75" ry="28.99"/>
<text text-anchor="middle" x="1243.85" y="-564.15" font-family="Times,serif" font-size="14.00" fill="gray">SPDXLicense</text>
<text text-anchor="middle" x="1243.85" y="-547.65" font-family="Times,serif" font-size="14.00" fill="gray">3616d4cc5f10e36cfd8d983298973478</text>
</g>
<!-- 5&#45;&gt;2387 -->
<g id="edge1" class="edge">
<title>5&#45;&gt;2387</title>
<path fill="none" stroke="#dac767" d="M1101.83,-272.57C1144.22,-338.73 1152.78,-355.98 1226.41,-521.68"/>
<polygon fill="#dac767" stroke="#dac767" points="1223.02,-522.66 1230.27,-530.38 1229.41,-519.82 1223.02,-522.66"/>
</g>
<!-- 2388 -->
<g id="node3" class="node">
<title>2388</title>
<polygon fill="none" stroke="black" points="1411.25,-1084.44 1411.25,-1099.35 1339.42,-1109.9 1237.85,-1109.9 1166.02,-1099.35 1166.02,-1084.44 1237.85,-1073.9 1339.42,-1073.9 1411.25,-1084.44"/>
<polygon fill="none" stroke="black" points="1415.25,-1080.98 1415.25,-1102.81 1339.71,-1113.9 1237.55,-1113.9 1162.02,-1102.81 1162.02,-1080.98 1237.55,-1069.9 1339.71,-1069.9 1415.25,-1080.98"/>
<polygon fill="none" stroke="black" points="1419.25,-1077.53 1419.25,-1106.26 1340.01,-1117.9 1237.26,-1117.9 1158.02,-1106.26 1158.02,-1077.53 1237.26,-1065.9 1340.01,-1065.9 1419.25,-1077.53"/>
<text text-anchor="middle" x="1288.63" y="-1086.85" font-family="Times,serif" font-size="14.00">spdx:HPND&#45;UC&#45;export&#45;US</text>
</g>
<!-- 2387&#45;&gt;2388 -->
<g id="edge2" class="edge">
<title>2387&#45;&gt;2388</title>
<path fill="none" stroke="#dac767" d="M1240.42,-590.11C1224.86,-724.68 1227.72,-749.18 1282,-1054.6"/>
<polygon fill="#dac767" stroke="#dac767" points="1278.49,-1054.86 1283.69,-1064.09 1285.38,-1053.64 1278.49,-1054.86"/>
</g>
<!-- 9619 -->
<g id="node13" class="node">
<title>9619</title>
<polygon fill="none" stroke="#e09d4b" points="1866.81,-1015.42 1866.81,-1030.33 1789.79,-1040.87 1680.88,-1040.87 1603.86,-1030.33 1603.86,-1015.42 1680.88,-1004.87 1789.79,-1004.87 1866.81,-1015.42"/>
<polygon fill="none" stroke="#e09d4b" points="1870.81,-1011.93 1870.81,-1033.82 1790.07,-1044.87 1680.6,-1044.87 1599.86,-1033.82 1599.86,-1011.93 1680.6,-1000.87 1790.07,-1000.87 1870.81,-1011.93"/>
<text text-anchor="middle" x="1735.34" y="-1017.82" font-family="Times,serif" font-size="14.00">Fedora:HPND&#45;UC&#45;export&#45;US</text>
</g>
<!-- 2388&#45;&gt;9619 -->
<g id="edge3" class="edge">
<title>2388&#45;&gt;9619</title>
<path fill="none" stroke="#e09d4b" stroke-width="2" d="M1400.8,-1074.33C1517.74,-1056.01 1572.57,-1047.47 1620.18,-1040.2"/>
<polygon fill="#e09d4b" stroke="#e09d4b" stroke-width="2" points="1628.79,-1038.89 1619.58,-1044.84 1626.33,-1039.77 1618.98,-1040.89 1618.9,-1040.39 1618.82,-1039.9 1626.18,-1038.78 1618.22,-1035.95 1628.79,-1038.89"/>
</g>
<!-- 30412 -->
<g id="node17" class="node">
<title>30412</title>
<polygon fill="none" stroke="black" points="1210.88,-1195.98 1210.88,-1210.9 1137.75,-1221.44 1034.34,-1221.44 961.22,-1210.9 961.22,-1195.98 1034.34,-1185.44 1137.75,-1185.44 1210.88,-1195.98"/>
<polygon fill="none" stroke="black" points="1214.88,-1192.52 1214.88,-1214.36 1138.04,-1225.44 1034.05,-1225.44 957.22,-1214.36 957.22,-1192.52 1034.05,-1181.44 1138.04,-1181.44 1214.88,-1192.52"/>
<text text-anchor="middle" x="1086.05" y="-1198.39" font-family="Times,serif" font-size="14.00">scancode:hpnd&#45;uc&#45;export&#45;us</text>
</g>
<!-- 2388&#45;&gt;30412 -->
<g id="edge4" class="edge">
<title>2388&#45;&gt;30412</title>
<path fill="none" stroke="#deb256" stroke-width="2" d="M1230.07,-1117.18C1196.39,-1134.57 1155.01,-1157.54 1125.25,-1175.48"/>
<polygon fill="#deb256" stroke="#deb256" stroke-width="2" points="1118.1,-1179.84 1124.29,-1170.79 1120.02,-1178.08 1126.37,-1174.2 1126.63,-1174.63 1126.89,-1175.06 1120.54,-1178.93 1128.98,-1178.47 1118.1,-1179.84"/>
</g>
<!-- 2389 -->
<g id="node4" class="node">
<title>2389</title>
<polygon fill="none" stroke="black" points="1556.03,-1344.59 1556.03,-1359.5 1496.86,-1370.04 1413.18,-1370.04 1354.01,-1359.5 1354.01,-1344.59 1413.18,-1334.04 1496.86,-1334.04 1556.03,-1344.59"/>
<polygon fill="none" stroke="black" points="1560.03,-1341.24 1560.03,-1362.85 1497.22,-1374.04 1412.83,-1374.04 1350.01,-1362.85 1350.01,-1341.24 1412.83,-1330.04 1497.22,-1330.04 1560.03,-1341.24"/>
<text text-anchor="middle" x="1455.02" y="-1346.99" font-family="Times,serif" font-size="14.00">HPND&#45;UC&#45;export&#45;US</text>
</g>
<!-- 2389&#45;&gt;2388 -->
<g id="edge5" class="edge">
<title>2389&#45;&gt;2388</title>
<path fill="none" stroke="black" stroke-width="2" d="M1427.66,-1329.76C1373.54,-1284.65 1361.99,-1263.79 1304.1,-1128.22"/>
<polygon fill="black" stroke="black" stroke-width="2" points="1300.81,-1120.5 1308.87,-1127.93 1302.27,-1122.66 1305.19,-1129.5 1304.73,-1129.69 1304.27,-1129.89 1301.35,-1123.05 1300.59,-1131.46 1300.81,-1120.5"/>
</g>
<!-- 2389&#45;&gt;9619 -->
<g id="edge6" class="edge">
<title>2389&#45;&gt;9619</title>
<path fill="none" stroke="#e09d4b" stroke-width="2" d="M1493.65,-1329.57C1661.98,-1231.25 1675.6,-1214.65 1725.07,-1056.02"/>
<polygon fill="#e09d4b" stroke="#e09d4b" stroke-width="2" points="1727.66,-1047.69 1728.99,-1058.58 1727.38,-1050.29 1725.17,-1057.39 1724.69,-1057.24 1724.22,-1057.09 1726.42,-1049.99 1720.4,-1055.91 1727.66,-1047.69"/>
</g>
<!-- 2389&#45;&gt;30412 -->
<g id="edge7" class="edge">
<title>2389&#45;&gt;30412</title>
<path fill="none" stroke="black" stroke-width="2" d="M1349.93,-1349.17C1239.18,-1343.39 1210.28,-1324.48 1116.64,-1233.4"/>
<polygon fill="black" stroke="black" stroke-width="2" points="1110.64,-1227.54 1120.94,-1231.3 1112.82,-1228.97 1118.14,-1234.16 1117.8,-1234.52 1117.45,-1234.88 1112.12,-1229.69 1114.65,-1237.74 1110.64,-1227.54"/>
</g>
<!-- 41722 -->
<g id="node24" class="node">
<title>41722</title>
<polygon fill="none" stroke="#379469" points="1765.25,-1739.32 1765.25,-1754.23 1693.1,-1764.77 1591.07,-1764.77 1518.92,-1754.23 1518.92,-1739.32 1591.07,-1728.77 1693.1,-1728.77 1765.25,-1739.32"/>
<polygon fill="none" stroke="#379469" points="1769.25,-1735.86 1769.25,-1757.69 1693.4,-1768.77 1590.78,-1768.77 1514.92,-1757.69 1514.92,-1735.86 1590.78,-1724.77 1693.4,-1724.77 1769.25,-1735.86"/>
<text text-anchor="middle" x="1642.09" y="-1741.72" font-family="Times,serif" font-size="14.00">cavil:HPND&#45;UC&#45;export&#45;US</text>
</g>
<!-- 2389&#45;&gt;41722 -->
<g id="edge8" class="edge">
<title>2389&#45;&gt;41722</title>
<path fill="none" stroke="#379469" stroke-width="2" d="M1464.9,-1374.34C1566.85,-1604.52 1578.89,-1631.11 1624.49,-1714.65"/>
<polygon fill="#379469" stroke="#379469" stroke-width="2" points="1628.59,-1722.17 1619.85,-1715.55 1626.92,-1720.16 1623.36,-1713.63 1623.8,-1713.39 1624.23,-1713.15 1627.8,-1719.68 1627.74,-1711.23 1628.59,-1722.17"/>
</g>
<!-- 2390 -->
<g id="node5" class="node">
<title>2390</title>
<polygon fill="none" stroke="black" points="2104.49,-1447.53 2104.49,-1462.44 1882.09,-1472.98 1567.57,-1472.98 1345.17,-1462.44 1345.17,-1447.53 1567.57,-1436.98 1882.09,-1436.98 2104.49,-1447.53"/>
<polygon fill="none" stroke="black" points="2108.49,-1443.71 2108.49,-1466.26 1882.19,-1476.98 1567.48,-1476.98 1341.17,-1466.26 1341.17,-1443.71 1567.48,-1432.98 1882.19,-1432.98 2108.49,-1443.71"/>
<text text-anchor="middle" x="1724.83" y="-1449.93" font-family="Times,serif" font-size="14.00">Historical Permission Notice and Disclaimer &#45; University of California, US export warning</text>
</g>
<!-- 2390&#45;&gt;2388 -->
<g id="edge9" class="edge">
<title>2390&#45;&gt;2388</title>
<path fill="none" stroke="#dac767" stroke-width="2" d="M1685.48,-1432.59C1573.44,-1368.25 1546.64,-1344.16 1323.14,-1125.64"/>
<polygon fill="#dac767" stroke="#dac767" stroke-width="2" points="1317.19,-1119.82 1327.48,-1123.6 1319.37,-1121.26 1324.69,-1126.46 1324.34,-1126.81 1323.99,-1127.17 1318.67,-1121.97 1321.19,-1130.03 1317.19,-1119.82"/>
</g>
<!-- 2390&#45;&gt;30412 -->
<g id="edge10" class="edge">
<title>2390&#45;&gt;30412</title>
<path fill="none" stroke="#deb256" stroke-width="2" d="M1437.78,-1438.68C1357.48,-1412.55 1279.83,-1354.53 1123.26,-1232.48"/>
<polygon fill="#deb256" stroke="#deb256" stroke-width="2" points="1116.7,-1227.36 1127.36,-1229.97 1119.03,-1228.55 1124.9,-1233.12 1124.59,-1233.51 1124.28,-1233.91 1118.42,-1229.34 1121.82,-1237.06 1116.7,-1227.36"/>
</g>
<!-- 67433 -->
<g id="node27" class="node">
<title>67433</title>
<polygon fill="none" stroke="#00876c" points="2387.23,-1392.75 2387.23,-1407.66 2152.18,-1418.21 1819.76,-1418.21 1584.7,-1407.66 1584.7,-1392.75 1819.76,-1382.21 2152.18,-1382.21 2387.23,-1392.75"/>
<polygon fill="none" stroke="#00876c" points="2391.23,-1388.93 2391.23,-1411.49 2152.27,-1422.21 1819.67,-1422.21 1580.7,-1411.49 1580.7,-1388.93 1819.67,-1378.21 2152.27,-1378.21 2391.23,-1388.93"/>
<text text-anchor="middle" x="1985.97" y="-1395.16" font-family="Times,serif" font-size="14.00">spdx:Historical Permission Notice and Disclaimer &#45; University of California, US export warning</text>
</g>
<!-- 2390&#45;&gt;67433 -->
<g id="edge11" class="edge">
<title>2390&#45;&gt;67433</title>
<path fill="none" stroke="#00876c" stroke-width="2" d="M1931.34,-1434.85C1935.06,-1432.86 1938.85,-1430.68 1942.79,-1428.32"/>
<polygon fill="#00876c" stroke="#00876c" stroke-width="2" points="1950.19,-1423.76 1944.05,-1432.84 1948.27,-1425.53 1941.94,-1429.43 1941.68,-1429.01 1941.42,-1428.58 1947.75,-1424.68 1939.32,-1425.18 1950.19,-1423.76"/>
</g>
<!-- 2391 -->
<g id="node6" class="node">
<title>2391</title>
<text text-anchor="middle" x="1656.68" y="-212.36" font-family="Times,serif" font-size="14.00">SPDXLicense:</text>
<text text-anchor="middle" x="1656.68" y="-195.86" font-family="Times,serif" font-size="14.00">This license is similar to HPND&#45;UC, but adds the sentence related to export law</text>
<text text-anchor="middle" x="1656.68" y="-179.36" font-family="Times,serif" font-size="14.00">at the end.</text>
</g>
<!-- 2391&#45;&gt;2387 -->
<g id="edge12" class="edge">
<title>2391&#45;&gt;2387</title>
<path fill="none" stroke="#dac767" d="M1580.19,-229.56C1463.6,-275.96 1432.22,-311.68 1272.56,-522.92"/>
<polygon fill="#dac767" stroke="#dac767" points="1269.99,-520.51 1266.76,-530.6 1275.58,-524.73 1269.99,-520.51"/>
</g>
<!-- 2392 -->
<g id="node7" class="node">
<title>2392</title>
<text text-anchor="middle" x="1315.29" y="-189.49" font-family="Times,serif" font-size="14.00">$TEXT</text>
</g>
<!-- 2392&#45;&gt;2387 -->
<g id="edge13" class="edge">
<title>2392&#45;&gt;2387</title>
<path fill="none" stroke="#dac767" d="M1307.81,-212.4C1271.65,-299.15 1268.27,-316.65 1247.91,-520.18"/>
<polygon fill="#dac767" stroke="#dac767" points="1244.43,-519.8 1246.92,-530.09 1251.4,-520.49 1244.43,-519.8"/>
</g>
<!-- 2393 -->
<g id="node8" class="node">
<title>2393</title>
<text text-anchor="middle" x="1336.71" y="-12.97" font-family="Times,serif" font-size="14.00">$TEXT</text>
</g>
<!-- 2393&#45;&gt;2392 -->
<g id="edge14" class="edge">
<title>2393&#45;&gt;2392</title>
<path fill="none" stroke="#dac767" d="M1332.56,-35.67C1324.89,-69.06 1323.34,-83.35 1317.4,-165.28"/>
<polygon fill="#dac767" stroke="#dac767" points="1313.91,-165 1316.68,-175.23 1320.89,-165.51 1313.91,-165"/>
</g>
<!-- 2394 -->
<g id="node9" class="node">
<title>2394</title>
<text text-anchor="middle" x="772.46" y="-752.45" font-family="Times,serif" font-size="14.00">https://github.com/RTimothyEdwards/magic/blob/master/LICENSE</text>
</g>
<!-- 2394&#45;&gt;2387 -->
<g id="edge15" class="edge">
<title>2394&#45;&gt;2387</title>
<path fill="none" stroke="#dac767" d="M789.62,-739.66C907.62,-617.24 940.04,-589.61 1086.2,-573.67"/>
<polygon fill="#dac767" stroke="#dac767" points="1086.31,-577.18 1095.89,-572.66 1085.57,-570.22 1086.31,-577.18"/>
</g>
<!-- 30411 -->
<g id="node16" class="node">
<title>30411</title>
<ellipse fill="none" stroke="#deb256" cx="708" cy="-815.24" rx="155.56" ry="28.99"/>
<text text-anchor="middle" x="708" y="-818.44" font-family="Times,serif" font-size="14.00" fill="gray">ScancodeData</text>
<text text-anchor="middle" x="708" y="-801.94" font-family="Times,serif" font-size="14.00" fill="gray">f2652ec13c5133036f64a962bee51ef9</text>
</g>
<!-- 2394&#45;&gt;30411 -->
<g id="edge16" class="edge">
<title>2394&#45;&gt;30411</title>
<path fill="none" stroke="#deb256" d="M735.85,-775.43C734.39,-776.35 733.04,-777.27 731.79,-778.2"/>
<polygon fill="#deb256" stroke="#deb256" points="729.53,-775.52 724.73,-784.96 734.37,-780.57 729.53,-775.52"/>
</g>
<!-- 6592 -->
<g id="node10" class="node">
<title>6592</title>
<text text-anchor="middle" x="2454.46" y="-461.33" font-family="Times,serif" font-size="14.00">[&quot;allowed&quot;]</text>
</g>
<!-- 9618 -->
<g id="node12" class="node">
<title>9618</title>
<ellipse fill="none" stroke="#e09d4b" cx="2161.27" cy="-724.28" rx="159.28" ry="28.99"/>
<text text-anchor="middle" x="2161.27" y="-727.48" font-family="Times,serif" font-size="14.00" fill="gray">FedoraEntry</text>
<text text-anchor="middle" x="2161.27" y="-710.98" font-family="Times,serif" font-size="14.00" fill="gray">e8c524b5adec68c146263e374ac2806d</text>
</g>
<!-- 6592&#45;&gt;9618 -->
<g id="edge17" class="edge">
<title>6592&#45;&gt;9618</title>
<path fill="none" stroke="#e09d4b" d="M2439.6,-484.22C2381.45,-553.79 2365.05,-568.41 2207.75,-688.76"/>
<polygon fill="#e09d4b" stroke="#e09d4b" points="2205.69,-685.93 2199.88,-694.78 2209.95,-691.49 2205.69,-685.93"/>
</g>
<!-- 6593 -->
<g id="node11" class="node">
<title>6593</title>
<text text-anchor="start" x="2483.75" y="-421.41" font-family="Times,serif" font-size="14.00">Fedora: </text>
<text text-anchor="start" x="2528.75" y="-421.41" font-family="Times,serif" font-weight="bold" font-size="14.00" fill="#228b22">allowed</text>
<text text-anchor="start" x="2319.88" y="-407.41" font-family="Times,serif" font-size="14.00">A license is allowed if Fedora determines that the license is a free software /</text>
<text text-anchor="start" x="2314.63" y="-393.41" font-family="Times,serif" font-size="14.00">open source license. At a high level, the inquiry involves determining whether</text>
<text text-anchor="start" x="2313.5" y="-379.41" font-family="Times,serif" font-size="14.00">the license provides software freedom, and (equivalently) making sure that the</text>
<text text-anchor="start" x="2323.63" y="-365.41" font-family="Times,serif" font-size="14.00">license does not place burdens on users&#39; exercise of its permissions that are</text>
<text text-anchor="start" x="2323.25" y="-351.41" font-family="Times,serif" font-size="14.00">inconsistent with evolving community norms and traditions around what is</text>
<text text-anchor="start" x="2315" y="-337.41" font-family="Times,serif" font-size="14.00">acceptable in a free software / open source license. See below for more on the</text>
<text text-anchor="start" x="2435" y="-323.41" font-family="Times,serif" font-size="14.00">history of Fedora licensing policy.</text>
</g>
<!-- 6593&#45;&gt;6592 -->
<g id="edge18" class="edge">
<title>6593&#45;&gt;6592</title>
<path fill="none" stroke="#e09d4b" d="M2483.54,-437.56C2482.5,-438.61 2481.42,-439.69 2480.31,-440.8"/>
<polygon fill="#e09d4b" stroke="#e09d4b" points="2478.11,-438.05 2473.49,-447.58 2483.05,-443.01 2478.11,-438.05"/>
</g>
<!-- 9618&#45;&gt;9619 -->
<g id="edge19" class="edge">
<title>9618&#45;&gt;9619</title>
<path fill="none" stroke="#e09d4b" d="M2132.16,-753.05C2048.81,-834.81 2020.94,-853.26 1782.66,-994.78"/>
<polygon fill="#e09d4b" stroke="#e09d4b" points="1781.11,-991.63 1774.3,-999.74 1784.69,-997.65 1781.11,-991.63"/>
</g>
<!-- 12469 -->
<g id="node14" class="node">
<title>12469</title>
<text text-anchor="middle" x="466.98" y="-493.63" font-family="Times,serif" font-size="14.00">LicenseType Free Restricted</text>
</g>
<!-- 12469&#45;&gt;30411 -->
<g id="edge20" class="edge">
<title>12469&#45;&gt;30411</title>
<path fill="none" stroke="#deb256" d="M474.43,-516.5C514.78,-612.51 525.72,-627.65 671.87,-778.1"/>
<polygon fill="#deb256" stroke="#deb256" points="669.32,-780.49 678.8,-785.22 674.34,-775.61 669.32,-780.49"/>
</g>
<!-- 30409 -->
<g id="node15" class="node">
<title>30409</title>
<text text-anchor="middle" x="303.29" y="-852.9" font-family="Times,serif" font-size="14.00">ScancodeData:</text>
<text text-anchor="middle" x="303.29" y="-836.4" font-family="Times,serif" font-size="14.00">Added in SPDX license list 3.24</text>
</g>
<!-- 30409&#45;&gt;30411 -->
<g id="edge21" class="edge">
<title>30409&#45;&gt;30411</title>
<path fill="none" stroke="#deb256" d="M370.68,-829.27C417.88,-816.62 454.91,-812.89 541.38,-812.98"/>
<polygon fill="#deb256" stroke="#deb256" points="541.22,-816.48 551.23,-813.01 541.24,-809.48 541.22,-816.48"/>
</g>
<!-- 30411&#45;&gt;30412 -->
<g id="edge22" class="edge">
<title>30411&#45;&gt;30412</title>
<path fill="none" stroke="#deb256" d="M721.4,-844.37C787.23,-986.63 805.08,-1004.18 1045.14,-1174.46"/>
<polygon fill="#deb256" stroke="#deb256" points="1043.1,-1177.3 1053.28,-1180.23 1047.15,-1171.59 1043.1,-1177.3"/>
</g>
<!-- 30412&#45;&gt;2388 -->
<g id="edge23" class="edge">
<title>30412&#45;&gt;2388</title>
<path fill="none" stroke="#00876c" stroke-width="2" d="M1138.71,-1181.18C1171.01,-1164.7 1211.93,-1142.15 1242.87,-1123.78"/>
<polygon fill="#00876c" stroke="#00876c" stroke-width="2" points="1250.05,-1119.48 1243.78,-1128.48 1248.1,-1121.23 1241.73,-1125.05 1241.47,-1124.62 1241.21,-1124.2 1247.59,-1120.37 1239.15,-1120.77 1250.05,-1119.48"/>
</g>
<!-- 30413 -->
<g id="node18" class="node">
<title>30413</title>
<polygon fill="none" stroke="black" points="1088.71,-1592.09 1088.71,-1607 1009.74,-1617.55 898.07,-1617.55 819.11,-1607 819.11,-1592.09 898.07,-1581.55 1009.74,-1581.55 1088.71,-1592.09"/>
<polygon fill="none" stroke="black" points="1092.71,-1588.59 1092.71,-1610.5 1010.01,-1621.55 897.8,-1621.55 815.11,-1610.5 815.11,-1588.59 897.8,-1577.55 1010.01,-1577.55 1092.71,-1588.59"/>
<text text-anchor="middle" x="953.91" y="-1594.5" font-family="Times,serif" font-size="14.00">HPND UC US export warning</text>
</g>
<!-- 30413&#45;&gt;30412 -->
<g id="edge24" class="edge">
<title>30413&#45;&gt;30412</title>
<path fill="none" stroke="#deb256" stroke-width="2" d="M954.59,-1577.09C958.29,-1462.35 964.58,-1444.88 1069.95,-1235.41"/>
<polygon fill="#deb256" stroke="#deb256" stroke-width="2" points="1073.79,-1227.79 1073.31,-1238.75 1073.08,-1230.31 1069.74,-1236.95 1069.29,-1236.72 1068.84,-1236.5 1072.19,-1229.86 1065.27,-1234.7 1073.79,-1227.79"/>
</g>
<!-- 67432 -->
<g id="node26" class="node">
<title>67432</title>
<polygon fill="none" stroke="#00876c" points="1470.55,-1537.93 1470.55,-1552.84 1368.55,-1563.39 1224.29,-1563.39 1122.29,-1552.84 1122.29,-1537.93 1224.29,-1527.39 1368.55,-1527.39 1470.55,-1537.93"/>
<polygon fill="none" stroke="#00876c" points="1474.55,-1534.32 1474.55,-1556.45 1368.76,-1567.39 1224.09,-1567.39 1118.29,-1556.45 1118.29,-1534.32 1224.09,-1523.39 1368.76,-1523.39 1474.55,-1534.32"/>
<text text-anchor="middle" x="1296.42" y="-1540.34" font-family="Times,serif" font-size="14.00">scancode:HPND UC US export warning</text>
</g>
<!-- 30413&#45;&gt;67432 -->
<g id="edge25" class="edge">
<title>30413&#45;&gt;67432</title>
<path fill="none" stroke="#00876c" stroke-width="2" d="M1037.93,-1618.25C1096.12,-1627.17 1132.3,-1616.48 1235.07,-1572.17"/>
<polygon fill="#00876c" stroke="#00876c" stroke-width="2" points="1242.99,-1568.74 1235.59,-1576.84 1240.83,-1570.22 1234.01,-1573.17 1233.81,-1572.71 1233.61,-1572.25 1240.44,-1569.3 1232.02,-1568.58 1242.99,-1568.74"/>
</g>
<!-- 30414 -->
<g id="node19" class="node">
<title>30414</title>
<text text-anchor="middle" x="412.67" y="-684.2" font-family="Times,serif" font-size="14.00">$TEXT</text>
</g>
<!-- 30414&#45;&gt;30411 -->
<g id="edge26" class="edge">
<title>30414&#45;&gt;30411</title>
<path fill="none" stroke="#deb256" d="M440.9,-701.76C493.93,-725.23 517.68,-735.39 633.75,-784.1"/>
<polygon fill="#deb256" stroke="#deb256" points="632.17,-787.23 642.75,-787.87 634.88,-780.77 632.17,-787.23"/>
</g>
<!-- 35433 -->
<g id="node20" class="node">
<title>35433</title>
<text text-anchor="middle" x="441.79" y="-1860.73" font-family="Times,serif" font-size="14.00">LicenseTag (ScopedLicenseTag &quot;OrtLicenseCategorization&quot; &quot;include&#45;in&#45;notice&#45;file&quot; NoLicenseTagText)</text>
</g>
<!-- 35742 -->
<g id="node22" class="node">
<title>35742</title>
<ellipse fill="none" stroke="#d43d51" cx="853.7" cy="-1388.21" rx="159.28" ry="28.99"/>
<text text-anchor="middle" x="853.7" y="-1391.41" font-family="Times,serif" font-size="14.00" fill="gray">OrtLicenseCategorization</text>
<text text-anchor="middle" x="853.7" y="-1374.91" font-family="Times,serif" font-size="14.00" fill="gray">656bd36e2e9c8b4c32d18b6ba7d71fc7</text>
</g>
<!-- 35433&#45;&gt;35742 -->
<g id="edge27" class="edge">
<title>35433&#45;&gt;35742</title>
<path fill="none" stroke="#d43d51" d="M453.37,-1847.85C543.43,-1708.5 557.53,-1692.05 817.86,-1424.97"/>
<polygon fill="#d43d51" stroke="#d43d51" points="820.1,-1427.68 824.58,-1418.08 815.09,-1422.79 820.1,-1427.68"/>
</g>
<!-- 35464 -->
<g id="node21" class="node">
<title>35464</title>
<text text-anchor="middle" x="275.12" y="-1568.89" font-family="Times,serif" font-size="14.00">LicenseTag (ScopedLicenseTag &quot;OrtLicenseCategorization&quot; &quot;free&#45;restricted&quot; NoLicenseTagText)</text>
</g>
<!-- 35464&#45;&gt;35742 -->
<g id="edge28" class="edge">
<title>35464&#45;&gt;35742</title>
<path fill="none" stroke="#d43d51" d="M356.66,-1556.01C457.82,-1532.76 514.7,-1513.05 771.62,-1418.46"/>
<polygon fill="#d43d51" stroke="#d43d51" points="772.82,-1421.74 781,-1415 770.4,-1415.17 772.82,-1421.74"/>
</g>
<!-- 35742&#45;&gt;2388 -->
<g id="edge29" class="edge">
<title>35742&#45;&gt;2388</title>
<path fill="none" stroke="#d43d51" d="M889.71,-1359.59C975.6,-1291.67 1007.01,-1270.84 1237.43,-1124.43"/>
<polygon fill="#d43d51" stroke="#d43d51" points="1239.28,-1127.39 1245.85,-1119.08 1235.53,-1121.49 1239.28,-1127.39"/>
</g>
<!-- 41721 -->
<g id="node23" class="node">
<title>41721</title>
<ellipse fill="none" stroke="#379469" cx="1832.76" cy="-2129.69" rx="155.56" ry="28.99"/>
<text text-anchor="middle" x="1832.76" y="-2132.89" font-family="Times,serif" font-size="14.00" fill="gray">CavilLicenseChange</text>
<text text-anchor="middle" x="1832.76" y="-2116.39" font-family="Times,serif" font-size="14.00" fill="gray">eb47ee4a2e2080e89234cbfe0cc8bf89</text>
</g>
<!-- 41721&#45;&gt;41722 -->
<g id="edge30" class="edge">
<title>41721&#45;&gt;41722</title>
<path fill="none" stroke="#379469" d="M1816.62,-2100.39C1771.68,-2018.62 1759.57,-1993.75 1657.62,-1779.42"/>
<polygon fill="#379469" stroke="#379469" points="1660.8,-1777.97 1653.34,-1770.44 1654.48,-1780.97 1660.8,-1777.97"/>
</g>
<!-- 67431 -->
<g id="node25" class="node">
<title>67431</title>
<ellipse fill="none" stroke="#00876c" cx="891.09" cy="-1105.53" rx="157.68" ry="28.99"/>
<text text-anchor="middle" x="891.09" y="-1108.73" font-family="Times,serif" font-size="14.00" fill="gray">LicenseLynx</text>
<text text-anchor="middle" x="891.09" y="-1092.23" font-family="Times,serif" font-size="14.00" fill="gray">63d9d134b486c41b497cdfa8ac804a1f</text>
</g>
<!-- 67431&#45;&gt;2388 -->
<g id="edge31" class="edge">
<title>67431&#45;&gt;2388</title>
<path fill="none" stroke="#00876c" d="M1048.06,-1102.09C1073.6,-1101.14 1104.66,-1099.86 1146.28,-1098.08"/>
<polygon fill="#00876c" stroke="#00876c" points="1146.34,-1101.58 1156.18,-1097.66 1146.04,-1094.59 1146.34,-1101.58"/>
</g>
<!-- 67432&#45;&gt;2388 -->
<g id="edge32" class="edge">
<title>67432&#45;&gt;2388</title>
<path fill="none" stroke="#00876c" stroke-width="2" d="M1291.12,-1523.07C1264.12,-1408.64 1264.17,-1388.59 1285.55,-1129.27"/>
<polygon fill="#00876c" stroke="#00876c" stroke-width="2" points="1286.25,-1120.77 1289.91,-1131.11 1286.53,-1123.37 1285.92,-1130.78 1285.42,-1130.74 1284.93,-1130.7 1285.54,-1123.29 1280.94,-1130.37 1286.25,-1120.77"/>
</g>
<!-- 67433&#45;&gt;2388 -->
<g id="edge33" class="edge">
<title>67433&#45;&gt;2388</title>
<path fill="none" stroke="#00876c" stroke-width="2" d="M1917.87,-1377.71C1767.92,-1327.55 1716.54,-1303.4 1351.7,-1123.07"/>
<polygon fill="#00876c" stroke="#00876c" stroke-width="2" points="1343.83,-1119.18 1354.79,-1119.58 1346.35,-1119.87 1353.01,-1123.17 1352.79,-1123.61 1352.57,-1124.06 1345.9,-1120.77 1350.8,-1127.65 1343.83,-1119.18"/>
</g>
</g>
</svg>
