<?xml version="1.0" encoding="UTF-8" standalone="no"?>
<!DOCTYPE svg PUBLIC "-//W3C//DTD SVG 1.1//EN"
 "http://www.w3.org/Graphics/SVG/1.1/DTD/svg11.dtd">
<!-- Generated by graphviz version 10.0.1 (0)
 -->
<!-- Pages: 1 -->
<svg width="4000pt" height="3077pt"
 viewBox="0.00 0.00 4000.00 3077.00" xmlns="http://www.w3.org/2000/svg" xmlns:xlink="http://www.w3.org/1999/xlink">
<g id="graph0" class="graph" transform="scale(1 1) rotate(0) translate(4 3073)">
<polygon fill="white" stroke="none" points="-4,4 -4,-3073 3996,-3073 3996,4 -4,4"/>
<!-- 5 -->
<g id="node1" class="node">
<title>5</title>
<text text-anchor="start" x="1566.15" y="-666.02" font-family="Times,serif" font-size="14.00">OSI: </text>
<text text-anchor="start" x="1595.4" y="-666.02" font-family="Times,serif" font-weight="bold" font-size="14.00" fill="#8b0000">Rejected</text>
</g>
<!-- 2363 -->
<g id="node2" class="node">
<title>2363</title>
<ellipse fill="none" stroke="#dac767" cx="1588.65" cy="-1052.74" rx="159.81" ry="28.99"/>
<text text-anchor="middle" x="1588.65" y="-1055.94" font-family="Times,serif" font-size="14.00" fill="gray">SPDXLicense</text>
<text text-anchor="middle" x="1588.65" y="-1039.44" font-family="Times,serif" font-size="14.00" fill="gray">2ac6629d79d8445d4f8ca848ad465229</text>
</g>
<!-- 5&#45;&gt;2363 -->
<g id="edge1" class="edge">
<title>5&#45;&gt;2363</title>
<path fill="none" stroke="#dac767" d="M1599.13,-687.92C1560.68,-789.81 1559.72,-806.55 1583.87,-1012.26"/>
<polygon fill="#dac767" stroke="#dac767" points="1580.37,-1012.46 1585.01,-1021.98 1587.32,-1011.64 1580.37,-1012.46"/>
</g>
<!-- 2364 -->
<g id="node3" class="node">
<title>2364</title>
<polygon fill="none" stroke="black" points="2235.99,-1455.5 2235.99,-1470.41 2165.47,-1480.95 2065.73,-1480.95 1995.2,-1470.41 1995.2,-1455.5 2065.73,-1444.95 2165.47,-1444.95 2235.99,-1455.5"/>
<polygon fill="none" stroke="black" points="2239.99,-1452.05 2239.99,-1473.86 2165.76,-1484.95 2065.43,-1484.95 1991.2,-1473.86 1991.2,-1452.05 2065.43,-1440.95 2165.76,-1440.95 2239.99,-1452.05"/>
<polygon fill="none" stroke="black" points="2243.99,-1448.61 2243.99,-1477.3 2166.06,-1488.95 2065.13,-1488.95 1987.2,-1477.3 1987.2,-1448.61 2065.13,-1436.95 2166.06,-1436.95 2243.99,-1448.61"/>
<text text-anchor="middle" x="2115.6" y="-1457.9" font-family="Times,serif" font-size="14.00">spdx:HPND&#45;Markus&#45;Kuhn</text>
</g>
<!-- 2363&#45;&gt;2364 -->
<g id="edge2" class="edge">
<title>2363&#45;&gt;2364</title>
<path fill="none" stroke="#dac767" d="M1651.19,-1079.86C1788.9,-1141.03 1825.04,-1173.88 2081.33,-1428.85"/>
<polygon fill="#dac767" stroke="#dac767" points="2078.74,-1431.21 2088.29,-1435.78 2083.67,-1426.24 2078.74,-1431.21"/>
</g>
<!-- 7562 -->
<g id="node14" class="node">
<title>7562</title>
<polygon fill="none" stroke="#e09d4b" points="2703.34,-1061.16 2703.34,-1076.07 2627.62,-1086.61 2520.54,-1086.61 2444.82,-1076.07 2444.82,-1061.16 2520.54,-1050.61 2627.62,-1050.61 2703.34,-1061.16"/>
<polygon fill="none" stroke="#e09d4b" points="2707.34,-1057.68 2707.34,-1079.55 2627.9,-1090.61 2520.26,-1090.61 2440.82,-1079.55 2440.82,-1057.68 2520.26,-1046.61 2627.9,-1046.61 2707.34,-1057.68"/>
<text text-anchor="middle" x="2574.08" y="-1063.56" font-family="Times,serif" font-size="14.00">Fedora:HPND&#45;Markus&#45;Kuhn</text>
</g>
<!-- 2364&#45;&gt;7562 -->
<g id="edge3" class="edge">
<title>2364&#45;&gt;7562</title>
<path fill="none" stroke="#e09d4b" stroke-width="2" d="M2147.36,-1436.47C2414.36,-1213.88 2442.02,-1190.5 2541.96,-1098.29"/>
<polygon fill="#e09d4b" stroke="#e09d4b" stroke-width="2" points="2548.13,-1092.6 2543.83,-1102.68 2546.58,-1094.7 2541.12,-1099.75 2540.78,-1099.38 2540.44,-1099.01 2545.91,-1093.97 2537.73,-1096.07 2548.13,-1092.6"/>
</g>
<!-- 20707 -->
<g id="node16" class="node">
<title>20707</title>
<polygon fill="none" stroke="black" points="1624.9,-1647.53 1624.9,-1662.44 1545.61,-1672.99 1433.48,-1672.99 1354.19,-1662.44 1354.19,-1647.53 1433.48,-1636.99 1545.61,-1636.99 1624.9,-1647.53"/>
<polygon fill="none" stroke="black" points="1628.9,-1644.03 1628.9,-1665.94 1545.88,-1676.99 1433.22,-1676.99 1350.19,-1665.94 1350.19,-1644.03 1433.22,-1632.99 1545.88,-1632.99 1628.9,-1644.03"/>
<text text-anchor="middle" x="1489.55" y="-1649.94" font-family="Times,serif" font-size="14.00">scancode:markus&#45;kuhn&#45;license</text>
</g>
<!-- 2364&#45;&gt;20707 -->
<g id="edge4" class="edge">
<title>2364&#45;&gt;20707</title>
<path fill="none" stroke="#deb256" stroke-width="2" d="M2030.09,-1484.18C1904.62,-1519.81 1673.13,-1590.93 1558.11,-1629.31"/>
<polygon fill="#deb256" stroke="#deb256" stroke-width="2" points="1550,-1632.03 1558.05,-1624.58 1552.27,-1630.74 1559.32,-1628.37 1559.48,-1628.85 1559.64,-1629.32 1552.58,-1631.69 1560.91,-1633.11 1550,-1632.03"/>
</g>
<!-- 53040 -->
<g id="node33" class="node">
<title>53040</title>
<polygon fill="none" stroke="#379469" points="2003.54,-1966.63 2003.54,-1981.54 1917.11,-1992.09 1794.88,-1992.09 1708.45,-1981.54 1708.45,-1966.63 1794.88,-1956.09 1917.11,-1956.09 2003.54,-1966.63"/>
<polygon fill="none" stroke="#379469" points="2007.54,-1963.09 2007.54,-1985.09 1917.35,-1996.09 1794.64,-1996.09 1704.45,-1985.09 1704.45,-1963.09 1794.64,-1952.09 1917.35,-1952.09 2007.54,-1963.09"/>
<text text-anchor="middle" x="1855.99" y="-1969.04" font-family="Times,serif" font-size="14.00">metaeffekt:Markus Kuhn License</text>
</g>
<!-- 2364&#45;&gt;53040 -->
<g id="edge5" class="edge">
<title>2364&#45;&gt;53040</title>
<path fill="none" stroke="#379469" stroke-width="2" d="M2105.87,-1489.4C1989.45,-1805.7 1977.69,-1833.75 1882.67,-1943.51"/>
<polygon fill="#379469" stroke="#379469" stroke-width="2" points="1876.97,-1950.07 1880.13,-1939.56 1878.27,-1947.8 1883.15,-1942.19 1883.53,-1942.52 1883.9,-1942.84 1879.03,-1948.46 1886.93,-1945.47 1876.97,-1950.07"/>
</g>
<!-- 2365 -->
<g id="node4" class="node">
<title>2365</title>
<polygon fill="none" stroke="black" points="2369.65,-953.67 2369.65,-968.59 2311.78,-979.13 2229.94,-979.13 2172.07,-968.59 2172.07,-953.67 2229.94,-943.13 2311.78,-943.13 2369.65,-953.67"/>
<polygon fill="none" stroke="black" points="2373.65,-950.34 2373.65,-971.92 2312.14,-983.13 2229.58,-983.13 2168.07,-971.92 2168.07,-950.34 2229.58,-939.13 2312.14,-939.13 2373.65,-950.34"/>
<text text-anchor="middle" x="2270.86" y="-956.08" font-family="Times,serif" font-size="14.00">HPND&#45;Markus&#45;Kuhn</text>
</g>
<!-- 2365&#45;&gt;2364 -->
<g id="edge6" class="edge">
<title>2365&#45;&gt;2364</title>
<path fill="none" stroke="black" stroke-width="2" d="M2267.72,-983.23C2248.53,-1117.71 2242.2,-1137.31 2129.89,-1426.2"/>
<polygon fill="black" stroke="black" stroke-width="2" points="2126.73,-1434.32 2126.16,-1423.37 2127.2,-1431.75 2129.89,-1424.82 2130.36,-1425 2130.82,-1425.18 2128.13,-1432.11 2134.55,-1426.63 2126.73,-1434.32"/>
</g>
<!-- 2365&#45;&gt;7562 -->
<g id="edge7" class="edge">
<title>2365&#45;&gt;7562</title>
<path fill="none" stroke="#e09d4b" stroke-width="2" d="M2374.12,-964.4C2455.85,-969.47 2481.31,-983.51 2542.18,-1039.03"/>
<polygon fill="#e09d4b" stroke="#e09d4b" stroke-width="2" points="2548.4,-1044.74 2537.99,-1041.29 2546.17,-1043.38 2540.69,-1038.35 2541.03,-1037.98 2541.37,-1037.61 2546.85,-1042.64 2544.07,-1034.66 2548.4,-1044.74"/>
</g>
<!-- 41700 -->
<g id="node30" class="node">
<title>41700</title>
<polygon fill="none" stroke="#379469" points="2508.28,-489.42 2508.28,-504.33 2437.42,-514.87 2337.22,-514.87 2266.37,-504.33 2266.37,-489.42 2337.22,-478.87 2437.42,-478.87 2508.28,-489.42"/>
<polygon fill="none" stroke="#379469" points="2512.28,-485.97 2512.28,-507.78 2437.72,-518.87 2336.93,-518.87 2262.37,-507.78 2262.37,-485.97 2336.93,-474.87 2437.72,-474.87 2512.28,-485.97"/>
<text text-anchor="middle" x="2387.32" y="-491.82" font-family="Times,serif" font-size="14.00">cavil:HPND&#45;Markus&#45;Kuhn</text>
</g>
<!-- 2365&#45;&gt;41700 -->
<g id="edge8" class="edge">
<title>2365&#45;&gt;41700</title>
<path fill="none" stroke="#379469" stroke-width="2" d="M2277.5,-938.66C2358.17,-665.86 2365.47,-639.81 2382.31,-529.99"/>
<polygon fill="#379469" stroke="#379469" stroke-width="2" points="2383.6,-521.5 2386.54,-532.07 2383.71,-524.11 2382.59,-531.46 2382.09,-531.39 2381.6,-531.31 2382.72,-523.96 2377.64,-530.71 2383.6,-521.5"/>
</g>
<!-- 2366 -->
<g id="node5" class="node">
<title>2366</title>
<polygon fill="none" stroke="black" points="3052.44,-1577.64 3052.44,-1592.55 2883.91,-1603.09 2645.58,-1603.09 2477.05,-1592.55 2477.05,-1577.64 2645.58,-1567.09 2883.91,-1567.09 3052.44,-1577.64"/>
<polygon fill="none" stroke="black" points="3056.44,-1573.88 3056.44,-1596.31 2884.04,-1607.09 2645.45,-1607.09 2473.05,-1596.31 2473.05,-1573.88 2645.45,-1563.09 2884.04,-1563.09 3056.44,-1573.88"/>
<text text-anchor="middle" x="2764.74" y="-1580.04" font-family="Times,serif" font-size="14.00">Historical Permission Notice and Disclaimer &#45; Markus Kuhn variant</text>
</g>
<!-- 2366&#45;&gt;2364 -->
<g id="edge9" class="edge">
<title>2366&#45;&gt;2364</title>
<path fill="none" stroke="#dac767" stroke-width="2" d="M2696.71,-1562.63C2580.82,-1525.25 2526.05,-1515.46 2249.3,-1479.97"/>
<polygon fill="#dac767" stroke="#dac767" stroke-width="2" points="2240.93,-1478.9 2251.42,-1475.71 2243.54,-1478.73 2250.92,-1479.68 2250.85,-1480.17 2250.79,-1480.67 2243.41,-1479.72 2250.28,-1484.64 2240.93,-1478.9"/>
</g>
<!-- 67420 -->
<g id="node37" class="node">
<title>67420</title>
<polygon fill="none" stroke="#00876c" points="3100.38,-1629.67 3100.38,-1644.58 2919.2,-1655.12 2662.96,-1655.12 2481.78,-1644.58 2481.78,-1629.67 2662.96,-1619.12 2919.2,-1619.12 3100.38,-1629.67"/>
<polygon fill="none" stroke="#00876c" points="3104.38,-1625.89 3104.38,-1648.35 2919.32,-1659.12 2662.85,-1659.12 2477.78,-1648.35 2477.78,-1625.89 2662.85,-1615.12 2919.32,-1615.12 3104.38,-1625.89"/>
<text text-anchor="middle" x="2791.08" y="-1632.07" font-family="Times,serif" font-size="14.00">spdx:Historical Permission Notice and Disclaimer &#45; Markus Kuhn variant</text>
</g>
<!-- 2366&#45;&gt;67420 -->
<g id="edge10" class="edge">
<title>2366&#45;&gt;67420</title>
<path fill="none" stroke="#00876c" stroke-width="2" d="M2784.01,-1607.58C2784.11,-1607.74 2784.22,-1607.9 2784.32,-1608.05"/>
<polygon fill="#00876c" stroke="#00876c" stroke-width="2" points="2786.72,-1612.6 2778.07,-1605.86 2785.08,-1610.57 2781.61,-1603.99 2782.05,-1603.76 2782.49,-1603.52 2785.97,-1610.1 2786.03,-1601.65 2786.72,-1612.6"/>
</g>
<!-- 2367 -->
<g id="node6" class="node">
<title>2367</title>
<text text-anchor="middle" x="1357.6" y="-660.16" font-family="Times,serif" font-size="14.00">$TEXT</text>
</g>
<!-- 2367&#45;&gt;2363 -->
<g id="edge11" class="edge">
<title>2367&#45;&gt;2363</title>
<path fill="none" stroke="#dac767" d="M1366.35,-682.96C1415.54,-782.65 1425.55,-799.44 1563.86,-1014.26"/>
<polygon fill="#dac767" stroke="#dac767" points="1560.73,-1015.86 1569.08,-1022.37 1566.61,-1012.07 1560.73,-1015.86"/>
</g>
<!-- 2368 -->
<g id="node7" class="node">
<title>2368</title>
<text text-anchor="middle" x="1247.98" y="-454.41" font-family="Times,serif" font-size="14.00">$TEXT</text>
</g>
<!-- 2368&#45;&gt;2367 -->
<g id="edge12" class="edge">
<title>2368&#45;&gt;2367</title>
<path fill="none" stroke="#dac767" d="M1255.68,-477.45C1274.94,-522.07 1282.79,-536.47 1341.62,-637.73"/>
<polygon fill="#dac767" stroke="#dac767" points="1338.47,-639.27 1346.52,-646.16 1344.53,-635.75 1338.47,-639.27"/>
</g>
<!-- 2369 -->
<g id="node8" class="node">
<title>2369</title>
<text text-anchor="middle" x="1080.65" y="-1135.14" font-family="Times,serif" font-size="14.00">https://www.cl.cam.ac.uk/~mgk25/ucs/wcwidth.c</text>
</g>
<!-- 2369&#45;&gt;2363 -->
<g id="edge13" class="edge">
<title>2369&#45;&gt;2363</title>
<path fill="none" stroke="#dac767" d="M1110.75,-1122.22C1219.94,-1057.46 1255.96,-1043.94 1419.71,-1047.07"/>
<polygon fill="#dac767" stroke="#dac767" points="1419.62,-1050.57 1429.69,-1047.28 1419.77,-1043.57 1419.62,-1050.57"/>
</g>
<!-- 20706 -->
<g id="node15" class="node">
<title>20706</title>
<ellipse fill="none" stroke="#deb256" cx="785.81" cy="-1540.55" rx="158.75" ry="28.99"/>
<text text-anchor="middle" x="785.81" y="-1543.75" font-family="Times,serif" font-size="14.00" fill="gray">ScancodeData</text>
<text text-anchor="middle" x="785.81" y="-1527.25" font-family="Times,serif" font-size="14.00" fill="gray">6354d13e5641657b5812868f34cf1ae6</text>
</g>
<!-- 2369&#45;&gt;20706 -->
<g id="edge14" class="edge">
<title>2369&#45;&gt;20706</title>
<path fill="none" stroke="#deb256" d="M1056.68,-1158.01C850.47,-1311.49 834.98,-1328.14 795.07,-1500.09"/>
<polygon fill="#deb256" stroke="#deb256" points="791.71,-1499.09 792.87,-1509.62 798.53,-1500.67 791.71,-1499.09"/>
</g>
<!-- 2370 -->
<g id="node9" class="node">
<title>2370</title>
<text text-anchor="middle" x="869.32" y="-1478.23" font-family="Times,serif" font-size="14.00">https://sourceware.org/git/?p=binutils&#45;gdb.git;a=blob;f=readline/readline/support/wcwidth.c;h=0f5ec995796f4813abbcf4972aec0378ab74722a;hb=HEAD#l55</text>
</g>
<!-- 2370&#45;&gt;2363 -->
<g id="edge15" class="edge">
<title>2370&#45;&gt;2363</title>
<path fill="none" stroke="#dac767" d="M882.59,-1465.47C1058.64,-1229.3 1080.02,-1210.89 1496.06,-1081.43"/>
<polygon fill="#dac767" stroke="#dac767" points="1496.95,-1084.82 1505.46,-1078.51 1494.87,-1078.14 1496.95,-1084.82"/>
</g>
<!-- 2370&#45;&gt;20706 -->
<g id="edge16" class="edge">
<title>2370&#45;&gt;20706</title>
<path fill="none" stroke="#deb256" d="M831.06,-1501.08C827.73,-1502.73 824.75,-1504.27 822.08,-1505.74"/>
<polygon fill="#deb256" stroke="#deb256" points="820.55,-1502.57 813.81,-1510.74 824.18,-1508.56 820.55,-1502.57"/>
</g>
<!-- 5550 -->
<g id="node10" class="node">
<title>5550</title>
<text text-anchor="middle" x="341.15" y="-1485.77" font-family="Times,serif" font-size="14.00">LicenseType Permissive</text>
</g>
<!-- 5550&#45;&gt;20706 -->
<g id="edge17" class="edge">
<title>5550&#45;&gt;20706</title>
<path fill="none" stroke="#deb256" d="M415.88,-1503.8C470.27,-1512.65 514.11,-1517.45 629.43,-1527.38"/>
<polygon fill="#deb256" stroke="#deb256" points="629.04,-1530.86 639.31,-1528.23 629.64,-1523.88 629.04,-1530.86"/>
</g>
<!-- 6592 -->
<g id="node11" class="node">
<title>6592</title>
<text text-anchor="middle" x="3405.89" y="-428.02" font-family="Times,serif" font-size="14.00">[&quot;allowed&quot;]</text>
</g>
<!-- 7561 -->
<g id="node13" class="node">
<title>7561</title>
<ellipse fill="none" stroke="#e09d4b" cx="3054.61" cy="-701.59" rx="158.75" ry="28.99"/>
<text text-anchor="middle" x="3054.61" y="-704.79" font-family="Times,serif" font-size="14.00" fill="gray">FedoraEntry</text>
<text text-anchor="middle" x="3054.61" y="-688.29" font-family="Times,serif" font-size="14.00" fill="gray">940e2ac77a4769bcc20751d0d621b1fc</text>
</g>
<!-- 6592&#45;&gt;7561 -->
<g id="edge18" class="edge">
<title>6592&#45;&gt;7561</title>
<path fill="none" stroke="#e09d4b" d="M3382.01,-451.03C3304.38,-509.41 3283,-525.77 3100.93,-665.94"/>
<polygon fill="#e09d4b" stroke="#e09d4b" points="3098.84,-663.13 3093.05,-672 3103.11,-668.67 3098.84,-663.13"/>
</g>
<!-- 6593 -->
<g id="node12" class="node">
<title>6593</title>
<text text-anchor="start" x="3724.89" y="-196.2" font-family="Times,serif" font-size="14.00">Fedora: </text>
<text text-anchor="start" x="3769.89" y="-196.2" font-family="Times,serif" font-weight="bold" font-size="14.00" fill="#228b22">allowed</text>
<text text-anchor="start" x="3561.01" y="-182.2" font-family="Times,serif" font-size="14.00">A license is allowed if Fedora determines that the license is a free software /</text>
<text text-anchor="start" x="3555.76" y="-168.2" font-family="Times,serif" font-size="14.00">open source license. At a high level, the inquiry involves determining whether</text>
<text text-anchor="start" x="3554.64" y="-154.2" font-family="Times,serif" font-size="14.00">the license provides software freedom, and (equivalently) making sure that the</text>
<text text-anchor="start" x="3564.76" y="-140.2" font-family="Times,serif" font-size="14.00">license does not place burdens on users&#39; exercise of its permissions that are</text>
<text text-anchor="start" x="3564.39" y="-126.2" font-family="Times,serif" font-size="14.00">inconsistent with evolving community norms and traditions around what is</text>
<text text-anchor="start" x="3556.14" y="-112.2" font-family="Times,serif" font-size="14.00">acceptable in a free software / open source license. See below for more on the</text>
<text text-anchor="start" x="3676.14" y="-98.2" font-family="Times,serif" font-size="14.00">history of Fedora licensing policy.</text>
</g>
<!-- 6593&#45;&gt;6592 -->
<g id="edge19" class="edge">
<title>6593&#45;&gt;6592</title>
<path fill="none" stroke="#e09d4b" d="M3691.5,-212.31C3641.04,-251.08 3591.2,-289.64 3437.56,-408.55"/>
<polygon fill="#e09d4b" stroke="#e09d4b" points="3435.7,-405.57 3429.93,-414.46 3439.98,-411.11 3435.7,-405.57"/>
</g>
<!-- 7561&#45;&gt;7562 -->
<g id="edge20" class="edge">
<title>7561&#45;&gt;7562</title>
<path fill="none" stroke="#e09d4b" d="M3016.4,-730.04C2910.76,-808.75 2879.66,-832.65 2611.75,-1039.52"/>
<polygon fill="#e09d4b" stroke="#e09d4b" points="2609.92,-1036.52 2604.14,-1045.4 2614.19,-1042.06 2609.92,-1036.52"/>
</g>
<!-- 20706&#45;&gt;20707 -->
<g id="edge21" class="edge">
<title>20706&#45;&gt;20707</title>
<path fill="none" stroke="#deb256" d="M865.7,-1566C988.27,-1603.82 1050.36,-1612.97 1347.06,-1641.45"/>
<polygon fill="#deb256" stroke="#deb256" points="1346.38,-1644.9 1356.66,-1642.37 1347.04,-1637.93 1346.38,-1644.9"/>
</g>
<!-- 20707&#45;&gt;2364 -->
<g id="edge22" class="edge">
<title>20707&#45;&gt;2364</title>
<path fill="none" stroke="#00876c" stroke-width="2" d="M1568.62,-1635.58C1690.24,-1601.24 1921.59,-1530.26 2040.67,-1490.75"/>
<polygon fill="#00876c" stroke="#00876c" stroke-width="2" points="2048.82,-1488.03 2040.76,-1495.47 2046.55,-1489.32 2039.49,-1491.67 2039.34,-1491.2 2039.18,-1490.72 2046.23,-1488.37 2037.91,-1486.93 2048.82,-1488.03"/>
</g>
<!-- 20707&#45;&gt;53040 -->
<g id="edge23" class="edge">
<title>20707&#45;&gt;53040</title>
<path fill="none" stroke="#379469" stroke-dasharray="5,2" d="M1500.58,-1677.41C1589.3,-1857.33 1605.44,-1878.68 1785.88,-1947.7"/>
<polygon fill="#379469" stroke="#379469" points="1795.15,-1951.23 1784.2,-1951.88 1791.62,-1949.89 1785.8,-1947.67 1785.8,-1947.67 1785.8,-1947.67 1791.62,-1949.89 1787.41,-1943.47 1795.15,-1951.23"/>
</g>
<!-- 20708 -->
<g id="node17" class="node">
<title>20708</title>
<polygon fill="none" stroke="black" points="1520.04,-2048.43 1520.04,-2063.34 1463.79,-2073.88 1384.25,-2073.88 1328,-2063.34 1328,-2048.43 1384.25,-2037.88 1463.79,-2037.88 1520.04,-2048.43"/>
<polygon fill="none" stroke="black" points="1524.04,-2045.11 1524.04,-2066.66 1464.17,-2077.88 1383.87,-2077.88 1324,-2066.66 1324,-2045.11 1383.87,-2033.88 1464.17,-2033.88 1524.04,-2045.11"/>
<text text-anchor="middle" x="1424.02" y="-2050.83" font-family="Times,serif" font-size="14.00">markus&#45;kuhn&#45;license</text>
</g>
<!-- 20708&#45;&gt;20707 -->
<g id="edge24" class="edge">
<title>20708&#45;&gt;20707</title>
<path fill="none" stroke="black" stroke-width="2" d="M1418.87,-2033.7C1388.77,-1903.17 1391.6,-1886.58 1475.8,-1687.45"/>
<polygon fill="black" stroke="black" stroke-width="2" points="1479.18,-1679.45 1479.43,-1690.41 1478.65,-1682 1475.75,-1688.85 1475.29,-1688.66 1474.83,-1688.46 1477.72,-1681.61 1471.14,-1686.9 1479.18,-1679.45"/>
</g>
<!-- 20708&#45;&gt;53040 -->
<g id="edge25" class="edge">
<title>20708&#45;&gt;53040</title>
<path fill="none" stroke="#379469" stroke-dasharray="5,2" d="M1509.12,-2069.89C1589.46,-2079.57 1633.43,-2066.03 1791.79,-2000.71"/>
<polygon fill="#379469" stroke="#379469" points="1800.76,-1997.01 1793.24,-2004.99 1797.27,-1998.45 1791.52,-2000.83 1791.52,-2000.83 1791.52,-2000.83 1797.27,-1998.45 1789.8,-1996.67 1800.76,-1997.01"/>
</g>
<!-- 20709 -->
<g id="node18" class="node">
<title>20709</title>
<polygon fill="none" stroke="black" points="1743.34,-2021.55 1743.34,-2036.46 1683.85,-2047 1599.71,-2047 1540.22,-2036.46 1540.22,-2021.55 1599.71,-2011 1683.85,-2011 1743.34,-2021.55"/>
<polygon fill="none" stroke="black" points="1747.34,-2018.19 1747.34,-2039.81 1684.2,-2051 1599.36,-2051 1536.22,-2039.81 1536.22,-2018.19 1599.36,-2007 1684.2,-2007 1747.34,-2018.19"/>
<text text-anchor="middle" x="1641.78" y="-2023.95" font-family="Times,serif" font-size="14.00">Markus Kuhn License</text>
</g>
<!-- 20709&#45;&gt;20707 -->
<g id="edge26" class="edge">
<title>20709&#45;&gt;20707</title>
<path fill="none" stroke="#deb256" stroke-width="2" d="M1619.39,-2006.85C1506.2,-1894.46 1499.76,-1877.51 1491.04,-1688.15"/>
<polygon fill="#deb256" stroke="#deb256" stroke-width="2" points="1490.65,-1679.66 1495.6,-1689.44 1491.27,-1682.2 1491.61,-1689.63 1491.11,-1689.65 1490.61,-1689.67 1490.27,-1682.24 1486.61,-1689.85 1490.65,-1679.66"/>
</g>
<!-- 20709&#45;&gt;53040 -->
<g id="edge27" class="edge">
<title>20709&#45;&gt;53040</title>
<path fill="none" stroke="#379469" stroke-width="2" d="M1747.78,-2026.43C1762.54,-2021.18 1779.79,-2013.16 1802.92,-2001.49"/>
<polygon fill="#379469" stroke="#379469" stroke-width="2" points="1810.65,-1997.56 1803.77,-2006.1 1808.59,-1999.17 1801.96,-2002.53 1801.73,-2002.09 1801.51,-2001.64 1808.14,-1998.27 1799.7,-1998.08 1810.65,-1997.56"/>
</g>
<!-- 67419 -->
<g id="node36" class="node">
<title>67419</title>
<polygon fill="none" stroke="#00876c" points="1950.53,-1702.64 1950.53,-1717.56 1867.99,-1728.1 1751.27,-1728.1 1668.74,-1717.56 1668.74,-1702.64 1751.27,-1692.1 1867.99,-1692.1 1950.53,-1702.64"/>
<polygon fill="none" stroke="#00876c" points="1954.53,-1699.12 1954.53,-1721.08 1868.25,-1732.1 1751.02,-1732.1 1664.74,-1721.08 1664.74,-1699.12 1751.02,-1688.1 1868.25,-1688.1 1954.53,-1699.12"/>
<text text-anchor="middle" x="1809.63" y="-1705.05" font-family="Times,serif" font-size="14.00">scancode:Markus Kuhn License</text>
</g>
<!-- 20709&#45;&gt;67419 -->
<g id="edge28" class="edge">
<title>20709&#45;&gt;67419</title>
<path fill="none" stroke="#00876c" stroke-width="2" d="M1650.22,-2006.52C1679.49,-1928.97 1689.43,-1910.77 1790.5,-1742.03"/>
<polygon fill="#00876c" stroke="#00876c" stroke-width="2" points="1794.92,-1734.65 1793.64,-1745.54 1794.03,-1737.11 1790.21,-1743.49 1789.78,-1743.23 1789.35,-1742.97 1793.17,-1736.6 1785.92,-1740.92 1794.92,-1734.65"/>
</g>
<!-- 20710 -->
<g id="node19" class="node">
<title>20710</title>
<text text-anchor="middle" x="355.94" y="-1857.1" font-family="Times,serif" font-size="14.00">https://www.cl.cam.ac.uk/~mgk25/ucs/wcwidth.c</text>
</g>
<!-- 20710&#45;&gt;20706 -->
<g id="edge29" class="edge">
<title>20710&#45;&gt;20706</title>
<path fill="none" stroke="#deb256" d="M369.04,-1844.22C457.95,-1722.87 475.46,-1708.19 724.12,-1573.81"/>
<polygon fill="#deb256" stroke="#deb256" points="725.75,-1576.92 732.88,-1569.08 722.42,-1570.76 725.75,-1576.92"/>
</g>
<!-- 20711 -->
<g id="node20" class="node">
<title>20711</title>
<text text-anchor="middle" x="331.85" y="-1261.73" font-family="Times,serif" font-size="14.00">https://www.cl.cam.ac.uk/~mgk25/ucs/langinfo.c</text>
</g>
<!-- 20711&#45;&gt;20706 -->
<g id="edge30" class="edge">
<title>20711&#45;&gt;20706</title>
<path fill="none" stroke="#deb256" d="M348.82,-1284.54C445.4,-1385.38 466.34,-1399.39 713.8,-1508.79"/>
<polygon fill="#deb256" stroke="#deb256" points="712.27,-1511.94 722.83,-1512.78 715.1,-1505.54 712.27,-1511.94"/>
</g>
<!-- 20712 -->
<g id="node21" class="node">
<title>20712</title>
<text text-anchor="middle" x="752.23" y="-1590.83" font-family="Times,serif" font-size="14.00">https://github.com/search?q=%22Permission+to+use%2C+copy%2C+modify%2C+and+distribute+this+software+for+any+purpose+and+without+fee+is+hereby+granted.%22+%22The+author+disclaims+all+warranties+with+regard+to+this+software.%22&amp;type=code</text>
</g>
<!-- 20712&#45;&gt;20706 -->
<g id="edge31" class="edge">
<title>20712&#45;&gt;20706</title>
<path fill="none" stroke="#deb256" d="M755.31,-1578.08C755.34,-1577.98 755.37,-1577.88 755.4,-1577.78"/>
<polygon fill="#deb256" stroke="#deb256" points="757.8,-1581.15 758.34,-1570.57 751.32,-1578.51 757.8,-1581.15"/>
</g>
<!-- 20713 -->
<g id="node22" class="node">
<title>20713</title>
<text text-anchor="middle" x="435.36" y="-1668.67" font-family="Times,serif" font-size="14.00">$TEXT</text>
</g>
<!-- 20713&#45;&gt;20706 -->
<g id="edge32" class="edge">
<title>20713&#45;&gt;20706</title>
<path fill="none" stroke="#deb256" d="M463.68,-1656.13C525.75,-1618.05 552.27,-1607.1 688.08,-1568.22"/>
<polygon fill="#deb256" stroke="#deb256" points="688.81,-1571.65 697.47,-1565.54 686.89,-1564.92 688.81,-1571.65"/>
</g>
<!-- 35432 -->
<g id="node23" class="node">
<title>35432</title>
<text text-anchor="middle" x="3278.02" y="-1869.9" font-family="Times,serif" font-size="14.00">LicenseTag (ScopedLicenseTag &quot;OrtLicenseCategorization&quot; &quot;permissive&quot; NoLicenseTagText)</text>
</g>
<!-- 35738 -->
<g id="node25" class="node">
<title>35738</title>
<ellipse fill="none" stroke="#d43d51" cx="2637.42" cy="-1728.42" rx="160.34" ry="28.99"/>
<text text-anchor="middle" x="2637.42" y="-1731.62" font-family="Times,serif" font-size="14.00" fill="gray">OrtLicenseCategorization</text>
<text text-anchor="middle" x="2637.42" y="-1715.12" font-family="Times,serif" font-size="14.00" fill="gray">a2baa16903c8b07c56d02902b76c687a</text>
</g>
<!-- 35432&#45;&gt;35738 -->
<g id="edge33" class="edge">
<title>35432&#45;&gt;35738</title>
<path fill="none" stroke="#d43d51" d="M3187.4,-1857C3082.09,-1835.79 3017.62,-1820.62 2744.99,-1754.51"/>
<polygon fill="#d43d51" stroke="#d43d51" points="2745.97,-1751.15 2735.42,-1752.19 2744.32,-1757.95 2745.97,-1751.15"/>
</g>
<!-- 37872 -->
<g id="node26" class="node">
<title>37872</title>
<ellipse fill="none" stroke="#d43d51" cx="3008.64" cy="-2319.59" rx="156.62" ry="28.99"/>
<text text-anchor="middle" x="3008.64" y="-2322.79" font-family="Times,serif" font-size="14.00" fill="gray">OrtLicenseCategorization</text>
<text text-anchor="middle" x="3008.64" y="-2306.29" font-family="Times,serif" font-size="14.00" fill="gray">ed80fff92868c286547a5687c5a8290b</text>
</g>
<!-- 35432&#45;&gt;37872 -->
<g id="edge34" class="edge">
<title>35432&#45;&gt;37872</title>
<path fill="none" stroke="#d43d51" d="M3275.3,-1892.62C3239.4,-2124.79 3232.47,-2145.13 3054.23,-2284.21"/>
<polygon fill="#d43d51" stroke="#d43d51" points="3052.27,-2281.3 3046.53,-2290.21 3056.57,-2286.83 3052.27,-2281.3"/>
</g>
<!-- 35433 -->
<g id="node24" class="node">
<title>35433</title>
<text text-anchor="middle" x="2964.5" y="-2256.08" font-family="Times,serif" font-size="14.00">LicenseTag (ScopedLicenseTag &quot;OrtLicenseCategorization&quot; &quot;include&#45;in&#45;notice&#45;file&quot; NoLicenseTagText)</text>
</g>
<!-- 35433&#45;&gt;35738 -->
<g id="edge35" class="edge">
<title>35433&#45;&gt;35738</title>
<path fill="none" stroke="#d43d51" d="M2959.73,-2243.4C2911.33,-2064.24 2902.11,-2048.13 2668.75,-1766.25"/>
<polygon fill="#d43d51" stroke="#d43d51" points="2671.47,-1764.04 2662.39,-1758.57 2666.08,-1768.5 2671.47,-1764.04"/>
</g>
<!-- 35433&#45;&gt;37872 -->
<g id="edge36" class="edge">
<title>35433&#45;&gt;37872</title>
<path fill="none" stroke="#d43d51" d="M2980.2,-2278.94C2981.08,-2279.94 2981.92,-2280.91 2982.73,-2281.83"/>
<polygon fill="#d43d51" stroke="#d43d51" points="2979.97,-2284 2989.12,-2289.34 2985.3,-2279.46 2979.97,-2284"/>
</g>
<!-- 35738&#45;&gt;2364 -->
<g id="edge37" class="edge">
<title>35738&#45;&gt;2364</title>
<path fill="none" stroke="#d43d51" d="M2601.04,-1699.95C2497.4,-1619.54 2463.03,-1602.82 2187.45,-1491.85"/>
<polygon fill="#d43d51" stroke="#d43d51" points="2189.11,-1488.75 2178.53,-1488.26 2186.5,-1495.24 2189.11,-1488.75"/>
</g>
<!-- 37873 -->
<g id="node27" class="node">
<title>37873</title>
<polygon fill="none" stroke="#d43d51" points="3383.81,-2845.7 3383.81,-2860.61 3259.09,-2871.15 3082.71,-2871.15 2957.98,-2860.61 2957.98,-2845.7 3082.71,-2835.15 3259.09,-2835.15 3383.81,-2845.7"/>
<polygon fill="none" stroke="#d43d51" points="3387.81,-2842.02 3387.81,-2864.28 3259.26,-2875.15 3082.54,-2875.15 2953.98,-2864.28 2953.98,-2842.02 3082.54,-2831.15 3259.26,-2831.15 3387.81,-2842.02"/>
<text text-anchor="middle" x="3170.9" y="-2848.1" font-family="Times,serif" font-size="14.00">SPDX:LicenseRef&#45;scancode&#45;markus&#45;kuhn&#45;license</text>
</g>
<!-- 37872&#45;&gt;37873 -->
<g id="edge38" class="edge">
<title>37872&#45;&gt;37873</title>
<path fill="none" stroke="#d43d51" d="M3022.42,-2348.96C3160.64,-2643.56 3169.57,-2667.26 3170.73,-2819.69"/>
<polygon fill="#d43d51" stroke="#d43d51" points="3167.22,-2819.4 3170.79,-2829.38 3174.22,-2819.36 3167.22,-2819.4"/>
</g>
<!-- 37874 -->
<g id="node28" class="node">
<title>37874</title>
<polygon fill="none" stroke="black" points="2819.03,-2667.61 2819.03,-2682.52 2710.86,-2693.07 2557.89,-2693.07 2449.71,-2682.52 2449.71,-2667.61 2557.89,-2657.07 2710.86,-2657.07 2819.03,-2667.61"/>
<polygon fill="none" stroke="black" points="2823.03,-2663.98 2823.03,-2686.15 2711.06,-2697.07 2557.69,-2697.07 2445.71,-2686.15 2445.71,-2663.98 2557.69,-2653.07 2711.06,-2653.07 2823.03,-2663.98"/>
<text text-anchor="middle" x="2634.37" y="-2670.02" font-family="Times,serif" font-size="14.00">LicenseRef&#45;scancode&#45;markus&#45;kuhn&#45;license</text>
</g>
<!-- 37874&#45;&gt;37873 -->
<g id="edge39" class="edge">
<title>37874&#45;&gt;37873</title>
<path fill="none" stroke="#d43d51" stroke-width="2" d="M2676.24,-2697.53C2827.12,-2778.43 2902.74,-2817.78 2966.64,-2836.66"/>
<polygon fill="#d43d51" stroke="#d43d51" stroke-width="2" points="2974.87,-2838.96 2964.03,-2840.6 2972.27,-2838.75 2965.11,-2836.74 2965.25,-2836.26 2965.38,-2835.78 2972.54,-2837.79 2966.46,-2831.93 2974.87,-2838.96"/>
</g>
<!-- 67418 -->
<g id="node35" class="node">
<title>67418</title>
<polygon fill="none" stroke="#00876c" points="2582.26,-2065 2582.26,-2079.91 2451.05,-2090.46 2265.49,-2090.46 2134.28,-2079.91 2134.28,-2065 2265.49,-2054.46 2451.05,-2054.46 2582.26,-2065"/>
<polygon fill="none" stroke="#00876c" points="2586.26,-2061.31 2586.26,-2083.61 2451.21,-2094.46 2265.33,-2094.46 2130.28,-2083.61 2130.28,-2061.31 2265.33,-2050.46 2451.21,-2050.46 2586.26,-2061.31"/>
<text text-anchor="middle" x="2358.27" y="-2067.41" font-family="Times,serif" font-size="14.00">scancode:LicenseRef&#45;scancode&#45;markus&#45;kuhn&#45;license</text>
</g>
<!-- 37874&#45;&gt;67418 -->
<g id="edge40" class="edge">
<title>37874&#45;&gt;67418</title>
<path fill="none" stroke="#00876c" stroke-width="2" d="M2625.98,-2652.65C2565.57,-2491.5 2556.15,-2471.43 2374.23,-2104.62"/>
<polygon fill="#00876c" stroke="#00876c" stroke-width="2" points="2370.43,-2096.96 2378.9,-2103.92 2372.02,-2099.04 2375.32,-2105.7 2374.87,-2105.92 2374.42,-2106.15 2371.12,-2099.48 2370.84,-2107.92 2370.43,-2096.96"/>
</g>
<!-- 41699 -->
<g id="node29" class="node">
<title>41699</title>
<ellipse fill="none" stroke="#379469" cx="2496.7" cy="-28.79" rx="155.56" ry="28.99"/>
<text text-anchor="middle" x="2496.7" y="-31.99" font-family="Times,serif" font-size="14.00" fill="gray">CavilLicenseChange</text>
<text text-anchor="middle" x="2496.7" y="-15.49" font-family="Times,serif" font-size="14.00" fill="gray">52d7e816f475c56ce6a0e80a0a8f6ac3</text>
</g>
<!-- 41699&#45;&gt;41700 -->
<g id="edge41" class="edge">
<title>41699&#45;&gt;41700</title>
<path fill="none" stroke="#379469" d="M2492,-58.16C2474.08,-169.43 2467.96,-194.08 2396.2,-463.55"/>
<polygon fill="#379469" stroke="#379469" points="2392.87,-462.46 2393.68,-473.02 2399.63,-464.26 2392.87,-462.46"/>
</g>
<!-- 43136 -->
<g id="node31" class="node">
<title>43136</title>
<text text-anchor="start" x="2385.67" y="-3052.42" font-family="Times,serif" font-size="14.00">CoDEStatus: </text>
<text text-anchor="start" x="2459.92" y="-3052.42" font-family="Times,serif" font-weight="bold" font-size="14.00" fill="#228b22">Approved</text>
<text text-anchor="start" x="2238.29" y="-3038.42" font-family="Times,serif" font-size="14.00">Eine Lizenz ist freigegeben, wenn sie nach fachlicher und juristischer Prüfung</text>
<text text-anchor="start" x="2220.29" y="-3024.42" font-family="Times,serif" font-size="14.00">seitens Open CoDE sowohl der Open Source Definition (gemäß Definition der Open</text>
<text text-anchor="start" x="2262.29" y="-3010.42" font-family="Times,serif" font-size="14.00">Source Initiative [extern]) entspricht und darüber hinaus keine für die</text>
<text text-anchor="start" x="2265.29" y="-2996.42" font-family="Times,serif" font-size="14.00">Öffentliche Verwaltung erkennbaren Schwierigkeiten birgt. Außer in</text>
<text text-anchor="start" x="2250.29" y="-2982.42" font-family="Times,serif" font-size="14.00">Ausnahmefällen ist nicht zu erwarten, dass einmal freigegebene Lizenzen</text>
<text text-anchor="start" x="2390.17" y="-2968.42" font-family="Times,serif" font-size="14.00">deklassifiziert werden.</text>
</g>
<!-- 53039 -->
<g id="node32" class="node">
<title>53039</title>
<ellipse fill="none" stroke="#379469" cx="2036" cy="-2537.83" rx="159.81" ry="28.99"/>
<text text-anchor="middle" x="2036" y="-2541.03" font-family="Times,serif" font-size="14.00" fill="gray">MetaeffektLicense</text>
<text text-anchor="middle" x="2036" y="-2524.53" font-family="Times,serif" font-size="14.00" fill="gray">d72eb1774ac8c87ca2525a6b4713e176</text>
</g>
<!-- 43136&#45;&gt;53039 -->
<g id="edge42" class="edge">
<title>43136&#45;&gt;53039</title>
<path fill="none" stroke="#379469" d="M2369.08,-2962.74C2266.07,-2892.79 2230.44,-2841.22 2060.63,-2576.29"/>
<polygon fill="#379469" stroke="#379469" points="2063.7,-2574.58 2055.35,-2568.05 2057.8,-2578.36 2063.7,-2574.58"/>
</g>
<!-- 53039&#45;&gt;53040 -->
<g id="edge43" class="edge">
<title>53039&#45;&gt;53040</title>
<path fill="none" stroke="#379469" d="M2018.69,-2508.9C1939.97,-2376.64 1933.06,-2350.57 1862.83,-2007.48"/>
<polygon fill="#379469" stroke="#379469" points="1866.31,-2007.03 1860.87,-1997.94 1859.45,-2008.43 1866.31,-2007.03"/>
</g>
<!-- 67417 -->
<g id="node34" class="node">
<title>67417</title>
<ellipse fill="none" stroke="#00876c" cx="2314.99" cy="-1795.23" rx="156.62" ry="28.99"/>
<text text-anchor="middle" x="2314.99" y="-1798.43" font-family="Times,serif" font-size="14.00" fill="gray">LicenseLynx</text>
<text text-anchor="middle" x="2314.99" y="-1781.93" font-family="Times,serif" font-size="14.00" fill="gray">ac7bef8b3174c167c7c45f09a2ed33b0</text>
</g>
<!-- 67417&#45;&gt;2364 -->
<g id="edge44" class="edge">
<title>67417&#45;&gt;2364</title>
<path fill="none" stroke="#00876c" d="M2308.73,-1765.8C2287.01,-1665.92 2274.84,-1646.78 2145.93,-1497.92"/>
<polygon fill="#00876c" stroke="#00876c" points="2148.68,-1495.75 2139.48,-1490.48 2143.39,-1500.33 2148.68,-1495.75"/>
</g>
<!-- 67418&#45;&gt;2364 -->
<g id="edge45" class="edge">
<title>67418&#45;&gt;2364</title>
<path fill="none" stroke="#00876c" stroke-width="2" d="M2355.43,-2050.12C2331.73,-1864.67 2323.93,-1845.74 2135.23,-1499.02"/>
<polygon fill="#00876c" stroke="#00876c" stroke-width="2" points="2131.05,-1491.33 2139.78,-1497.97 2132.71,-1493.35 2136.27,-1499.88 2135.83,-1500.12 2135.39,-1500.36 2131.83,-1493.82 2131.88,-1502.27 2131.05,-1491.33"/>
</g>
<!-- 67419&#45;&gt;2364 -->
<g id="edge46" class="edge">
<title>67419&#45;&gt;2364</title>
<path fill="none" stroke="#00876c" stroke-width="2" d="M1852.04,-1687.81C1918.97,-1651.56 1944.88,-1628.54 2080.76,-1496.77"/>
<polygon fill="#00876c" stroke="#00876c" stroke-width="2" points="2086.84,-1490.87 2082.79,-1501.06 2085.34,-1493.02 2080.01,-1498.19 2079.66,-1497.83 2079.31,-1497.48 2084.65,-1492.3 2076.52,-1494.6 2086.84,-1490.87"/>
</g>
<!-- 67420&#45;&gt;2364 -->
<g id="edge47" class="edge">
<title>67420&#45;&gt;2364</title>
<path fill="none" stroke="#00876c" stroke-width="2" d="M2737.06,-1614.79C2601.88,-1559.52 2554.11,-1547.61 2225.67,-1484.16"/>
<polygon fill="#00876c" stroke="#00876c" stroke-width="2" points="2217.27,-1482.54 2227.94,-1480.02 2219.88,-1482.53 2227.18,-1483.94 2227.09,-1484.43 2226.99,-1484.93 2219.69,-1483.52 2226.23,-1488.85 2217.27,-1482.54"/>
</g>
</g>
</svg>
