<?xml version="1.0" encoding="UTF-8" standalone="no"?>
<!DOCTYPE svg PUBLIC "-//W3C//DTD SVG 1.1//EN"
 "http://www.w3.org/Graphics/SVG/1.1/DTD/svg11.dtd">
<!-- Generated by graphviz version 10.0.1 (0)
 -->
<!-- Pages: 1 -->
<svg width="2332pt" height="1139pt"
 viewBox="0.00 0.00 2332.00 1139.00" xmlns="http://www.w3.org/2000/svg" xmlns:xlink="http://www.w3.org/1999/xlink">
<g id="graph0" class="graph" transform="scale(1 1) rotate(0) translate(4 1135)">
<polygon fill="white" stroke="none" points="-4,4 -4,-1135 2328,-1135 2328,4 -4,4"/>
<!-- 2207 -->
<g id="node1" class="node">
<title>2207</title>
<ellipse fill="none" stroke="#b8bf62" cx="1047.59" cy="-416.06" rx="156.09" ry="28.99"/>
<text text-anchor="middle" x="1047.59" y="-419.26" font-family="Times,serif" font-size="14.00" fill="gray">SPDXLicense</text>
<text text-anchor="middle" x="1047.59" y="-402.76" font-family="Times,serif" font-size="14.00" fill="gray">3b5269806fab0fcb5acc5b234c9cee76</text>
</g>
<!-- 2208 -->
<g id="node2" class="node">
<title>2208</title>
<polygon fill="none" stroke="black" points="1188.65,-488.36 1188.65,-503.28 1124.94,-513.82 1034.83,-513.82 971.12,-503.28 971.12,-488.36 1034.83,-477.82 1124.94,-477.82 1188.65,-488.36"/>
<polygon fill="none" stroke="black" points="1192.65,-484.97 1192.65,-506.67 1125.27,-517.82 1034.51,-517.82 967.12,-506.67 967.12,-484.97 1034.51,-473.82 1125.27,-473.82 1192.65,-484.97"/>
<polygon fill="none" stroke="black" points="1196.65,-481.58 1196.65,-510.06 1125.59,-521.82 1034.18,-521.82 963.12,-510.06 963.12,-481.58 1034.18,-469.82 1125.59,-469.82 1196.65,-481.58"/>
<text text-anchor="middle" x="1079.89" y="-490.77" font-family="Times,serif" font-size="14.00">spdx:HPND&#45;sell&#45;variant</text>
</g>
<!-- 2207&#45;&gt;2208 -->
<g id="edge1" class="edge">
<title>2207&#45;&gt;2208</title>
<path fill="none" stroke="#b8bf62" d="M1054.75,-445.41C1056.29,-449.29 1058.25,-453.64 1060.91,-459.06"/>
<polygon fill="#b8bf62" stroke="#b8bf62" points="1057.77,-460.61 1065.39,-467.97 1064.02,-457.47 1057.77,-460.61"/>
</g>
<!-- 6774 -->
<g id="node7" class="node">
<title>6774</title>
<polygon fill="none" stroke="#e09d4b" points="776.73,-309.4 776.73,-324.32 707.82,-334.86 610.38,-334.86 541.47,-324.32 541.47,-309.4 610.38,-298.86 707.82,-298.86 776.73,-309.4"/>
<polygon fill="none" stroke="#e09d4b" points="780.73,-305.97 780.73,-327.75 708.13,-338.86 610.07,-338.86 537.47,-327.75 537.47,-305.97 610.07,-294.86 708.13,-294.86 780.73,-305.97"/>
<text text-anchor="middle" x="659.1" y="-311.81" font-family="Times,serif" font-size="14.00">Fedora:HPND&#45;sell&#45;variant</text>
</g>
<!-- 2208&#45;&gt;6774 -->
<g id="edge2" class="edge">
<title>2208&#45;&gt;6774</title>
<path fill="none" stroke="#e09d4b" stroke-width="2" d="M1025.32,-470.83C842.21,-386.98 795.87,-366.28 728.11,-341.44"/>
<polygon fill="#e09d4b" stroke="#e09d4b" stroke-width="2" points="720.23,-338.57 731.17,-337.76 722.81,-338.98 729.8,-341.52 729.63,-341.99 729.46,-342.46 722.47,-339.92 728.09,-346.22 720.23,-338.57"/>
</g>
<!-- 47458 -->
<g id="node22" class="node">
<title>47458</title>
<polygon fill="none" stroke="#00876c" points="1581.8,-733.61 1581.8,-748.52 1522.63,-759.07 1438.95,-759.07 1379.78,-748.52 1379.78,-733.61 1438.95,-723.07 1522.63,-723.07 1581.8,-733.61"/>
<polygon fill="none" stroke="#00876c" points="1585.8,-730.26 1585.8,-751.87 1522.98,-763.07 1438.6,-763.07 1375.78,-751.87 1375.78,-730.26 1438.6,-719.07 1522.98,-719.07 1585.8,-730.26"/>
<text text-anchor="middle" x="1480.79" y="-736.02" font-family="Times,serif" font-size="14.00">metaeffekt:PT&#45;Var035</text>
</g>
<!-- 2208&#45;&gt;47458 -->
<g id="edge3" class="edge">
<title>2208&#45;&gt;47458</title>
<path fill="none" stroke="#00876c" stroke-width="2" d="M1126.59,-522.09C1333.7,-638.64 1366.67,-657.99 1441.31,-712.17"/>
<polygon fill="#00876c" stroke="#00876c" stroke-width="2" points="1448.17,-717.16 1437.43,-714.91 1445.8,-716.05 1439.79,-711.68 1440.08,-711.27 1440.38,-710.87 1446.39,-715.24 1442.73,-707.63 1448.17,-717.16"/>
</g>
<!-- 2209 -->
<g id="node3" class="node">
<title>2209</title>
<polygon fill="none" stroke="black" points="828.33,-618.48 828.33,-633.39 777.27,-643.93 705.06,-643.93 654.01,-633.39 654.01,-618.48 705.06,-607.93 777.27,-607.93 828.33,-618.48"/>
<polygon fill="none" stroke="black" points="832.33,-615.22 832.33,-636.65 777.68,-647.93 704.66,-647.93 650.01,-636.65 650.01,-615.22 704.66,-603.93 777.68,-603.93 832.33,-615.22"/>
<text text-anchor="middle" x="741.17" y="-620.88" font-family="Times,serif" font-size="14.00">HPND&#45;sell&#45;variant</text>
</g>
<!-- 2209&#45;&gt;2208 -->
<g id="edge4" class="edge">
<title>2209&#45;&gt;2208</title>
<path fill="none" stroke="black" stroke-width="2" d="M774.05,-603.59C830.85,-565.84 858.89,-554.75 990.59,-519.46"/>
<polygon fill="black" stroke="black" stroke-width="2" points="998.74,-517.28 990.24,-524.21 996.39,-518.42 989.21,-520.34 989.08,-519.86 988.95,-519.38 996.14,-517.46 987.92,-515.51 998.74,-517.28"/>
</g>
<!-- 2209&#45;&gt;6774 -->
<g id="edge5" class="edge">
<title>2209&#45;&gt;6774</title>
<path fill="none" stroke="#e09d4b" stroke-width="2" d="M727.26,-603.48C645.58,-471.36 639.04,-454.24 654.07,-350.36"/>
<polygon fill="#e09d4b" stroke="#e09d4b" stroke-width="2" points="655.34,-341.75 658.33,-352.3 655.46,-344.36 654.38,-351.72 653.88,-351.64 653.39,-351.57 654.47,-344.21 649.43,-350.99 655.34,-341.75"/>
</g>
<!-- 27822 -->
<g id="node14" class="node">
<title>27822</title>
<polygon fill="none" stroke="#e18745" points="1210.62,-581.21 1210.62,-596.12 1135.22,-606.66 1028.6,-606.66 953.2,-596.12 953.2,-581.21 1028.6,-570.66 1135.22,-570.66 1210.62,-581.21"/>
<polygon fill="none" stroke="#e18745" points="1214.62,-577.73 1214.62,-599.6 1135.5,-610.66 1028.32,-610.66 949.2,-599.6 949.2,-577.73 1028.32,-566.66 1135.5,-566.66 1214.62,-577.73"/>
<text text-anchor="middle" x="1081.91" y="-583.61" font-family="Times,serif" font-size="14.00">fossology:HPND&#45;sell&#45;variant</text>
</g>
<!-- 2209&#45;&gt;27822 -->
<g id="edge6" class="edge">
<title>2209&#45;&gt;27822</title>
<path fill="none" stroke="#e18745" stroke-width="2" d="M832.68,-618.67C862.55,-615.78 896.83,-611.77 958,-604.19"/>
<polygon fill="#e18745" stroke="#e18745" stroke-width="2" points="966.48,-603.13 957.11,-608.83 963.99,-603.95 956.61,-604.86 956.55,-604.37 956.49,-603.87 963.87,-602.95 956,-599.9 966.48,-603.13"/>
</g>
<!-- 36969 -->
<g id="node19" class="node">
<title>36969</title>
<polygon fill="none" stroke="#379469" points="579.74,-839.94 579.74,-854.85 515.7,-865.4 425.14,-865.4 361.1,-854.85 361.1,-839.94 425.14,-829.4 515.7,-829.4 579.74,-839.94"/>
<polygon fill="none" stroke="#379469" points="583.74,-836.55 583.74,-858.25 516.03,-869.4 424.81,-869.4 357.1,-858.25 357.1,-836.55 424.81,-825.4 516.03,-825.4 583.74,-836.55"/>
<text text-anchor="middle" x="470.42" y="-842.35" font-family="Times,serif" font-size="14.00">cavil:HPND&#45;sell&#45;variant</text>
</g>
<!-- 2209&#45;&gt;36969 -->
<g id="edge7" class="edge">
<title>2209&#45;&gt;36969</title>
<path fill="none" stroke="#379469" stroke-width="2" d="M706.6,-648.39C561.87,-742.49 538.99,-759.3 494.22,-816.38"/>
<polygon fill="#379469" stroke="#379469" stroke-width="2" points="488.93,-823.18 491.51,-812.52 490.11,-820.85 494.67,-814.98 495.07,-815.29 495.46,-815.59 490.9,-821.46 498.62,-818.05 488.93,-823.18"/>
</g>
<!-- 2210 -->
<g id="node4" class="node">
<title>2210</title>
<polygon fill="none" stroke="black" points="1725.72,-279.51 1725.72,-294.42 1581.86,-304.96 1378.4,-304.96 1234.53,-294.42 1234.53,-279.51 1378.4,-268.96 1581.86,-268.96 1725.72,-279.51"/>
<polygon fill="none" stroke="black" points="1729.72,-275.79 1729.72,-298.14 1582,-308.96 1378.25,-308.96 1230.53,-298.14 1230.53,-275.79 1378.25,-264.96 1582,-264.96 1729.72,-275.79"/>
<text text-anchor="middle" x="1480.13" y="-281.91" font-family="Times,serif" font-size="14.00">Historical Permission Notice and Disclaimer &#45; sell variant</text>
</g>
<!-- 2210&#45;&gt;2208 -->
<g id="edge8" class="edge">
<title>2210&#45;&gt;2208</title>
<path fill="none" stroke="#b8bf62" stroke-width="2" d="M1381.15,-309.44C1317.37,-328.73 1269.81,-360.36 1125.36,-463.35"/>
<polygon fill="#b8bf62" stroke="#b8bf62" stroke-width="2" points="1118.59,-468.18 1124.12,-458.71 1120.39,-466.28 1126.44,-461.97 1126.73,-462.37 1127.02,-462.78 1120.97,-467.1 1129.35,-466.04 1118.59,-468.18"/>
</g>
<!-- 17001 -->
<g id="node10" class="node">
<title>17001</title>
<polygon fill="none" stroke="black" points="1991.07,-562.57 1991.07,-577.48 1911.14,-588.03 1798.09,-588.03 1718.15,-577.48 1718.15,-562.57 1798.09,-552.03 1911.14,-552.03 1991.07,-562.57"/>
<polygon fill="none" stroke="black" points="1995.07,-559.07 1995.07,-580.99 1911.4,-592.03 1797.82,-592.03 1714.15,-580.99 1714.15,-559.07 1797.82,-548.03 1911.4,-548.03 1995.07,-559.07"/>
<text text-anchor="middle" x="1854.61" y="-564.98" font-family="Times,serif" font-size="14.00">scancode:historical&#45;sell&#45;variant</text>
</g>
<!-- 2210&#45;&gt;17001 -->
<g id="edge9" class="edge">
<title>2210&#45;&gt;17001</title>
<path fill="none" stroke="#dac767" stroke-width="2" d="M1533.33,-309.4C1741.79,-397.66 1762.48,-413.26 1835.89,-537.97"/>
<polygon fill="#dac767" stroke="#dac767" stroke-width="2" points="1840.27,-545.44 1831.33,-539.09 1838.54,-543.48 1834.78,-537.06 1835.21,-536.81 1835.64,-536.56 1839.41,-542.97 1839.09,-534.53 1840.27,-545.44"/>
</g>
<!-- 2210&#45;&gt;27822 -->
<g id="edge10" class="edge">
<title>2210&#45;&gt;27822</title>
<path fill="none" stroke="#e18745" stroke-width="2" d="M1442.59,-309.33C1351.12,-364.25 1323.74,-386.08 1117.02,-559.25"/>
<polygon fill="#e18745" stroke="#e18745" stroke-width="2" points="1110.5,-564.71 1115.28,-554.83 1112.15,-562.68 1117.85,-557.9 1118.17,-558.28 1118.49,-558.67 1112.79,-563.44 1121.06,-561.73 1110.5,-564.71"/>
</g>
<!-- 2816 -->
<g id="node5" class="node">
<title>2816</title>
<polygon fill="none" stroke="black" points="383.64,-277.46 383.64,-292.37 365.68,-302.92 340.29,-302.92 322.33,-292.37 322.33,-277.46 340.29,-266.92 365.68,-266.92 383.64,-277.46"/>
<text text-anchor="middle" x="352.98" y="-279.87" font-family="Times,serif" font-size="14.00">MIT</text>
</g>
<!-- 2816&#45;&gt;6774 -->
<g id="edge11" class="edge">
<title>2816&#45;&gt;6774</title>
<path fill="none" stroke="#e09d4b" stroke-dasharray="5,2" d="M383.72,-282.75C437.13,-279.35 462.25,-281.13 559.49,-298.55"/>
<polygon fill="#e09d4b" stroke="#e09d4b" points="569.21,-300.3 558.57,-302.95 565.49,-299.63 559.37,-298.53 559.37,-298.53 559.37,-298.53 565.49,-299.63 560.17,-294.1 569.21,-300.3"/>
</g>
<!-- 6773 -->
<g id="node6" class="node">
<title>6773</title>
<ellipse fill="none" stroke="#e09d4b" cx="331.9" cy="-41.67" rx="157.15" ry="28.99"/>
<text text-anchor="middle" x="331.9" y="-44.87" font-family="Times,serif" font-size="14.00" fill="gray">FedoraEntry</text>
<text text-anchor="middle" x="331.9" y="-28.37" font-family="Times,serif" font-size="14.00" fill="gray">87e524979361d112a4ec7dcf14c4ef73</text>
</g>
<!-- 6773&#45;&gt;6774 -->
<g id="edge12" class="edge">
<title>6773&#45;&gt;6774</title>
<path fill="none" stroke="#e09d4b" d="M359.38,-70.61C420.35,-134.31 445.17,-154.28 620.54,-287.56"/>
<polygon fill="#e09d4b" stroke="#e09d4b" points="618.27,-290.23 628.35,-293.5 622.5,-284.66 618.27,-290.23"/>
</g>
<!-- 6775 -->
<g id="node8" class="node">
<title>6775</title>
<polygon fill="none" stroke="black" points="651.47,-10.7 651.47,-25.61 609.82,-36.16 550.93,-36.16 509.28,-25.61 509.28,-10.7 550.93,-0.16 609.82,-0.16 651.47,-10.7"/>
<text text-anchor="middle" x="580.38" y="-13.11" font-family="Times,serif" font-size="14.00">MIT Old Style</text>
</g>
<!-- 6775&#45;&gt;6774 -->
<g id="edge13" class="edge">
<title>6775&#45;&gt;6774</title>
<path fill="none" stroke="#e09d4b" stroke-dasharray="5,2" d="M578.69,-36.59C570.77,-125.45 574.5,-140.01 643.82,-284.96"/>
<polygon fill="#e09d4b" stroke="#e09d4b" points="647.95,-293.6 639.57,-286.52 646.32,-290.19 643.63,-284.58 643.63,-284.58 643.63,-284.58 646.32,-290.19 647.69,-282.64 647.95,-293.6"/>
</g>
<!-- 17000 -->
<g id="node9" class="node">
<title>17000</title>
<ellipse fill="none" stroke="#dac767" cx="1911.54" cy="-496.91" rx="158.75" ry="28.99"/>
<text text-anchor="middle" x="1911.54" y="-500.11" font-family="Times,serif" font-size="14.00" fill="gray">ScancodeData</text>
<text text-anchor="middle" x="1911.54" y="-483.61" font-family="Times,serif" font-size="14.00" fill="gray">f9ab997e1b831d27ba6be9433f740970</text>
</g>
<!-- 17000&#45;&gt;17001 -->
<g id="edge14" class="edge">
<title>17000&#45;&gt;17001</title>
<path fill="none" stroke="#dac767" d="M1901.54,-525.9C1898.93,-530.69 1895.6,-534.96 1890.68,-539.85"/>
<polygon fill="#dac767" stroke="#dac767" points="1888.36,-537.23 1883.36,-546.57 1893.09,-542.39 1888.36,-537.23"/>
</g>
<!-- 17001&#45;&gt;47458 -->
<g id="edge15" class="edge">
<title>17001&#45;&gt;47458</title>
<path fill="none" stroke="#00876c" stroke-dasharray="5,2" d="M1830.73,-592.45C1756.79,-661.22 1732.54,-673.46 1559.02,-720.21"/>
<polygon fill="#00876c" stroke="#00876c" points="1549.37,-722.8 1557.86,-715.86 1553.03,-721.82 1559.03,-720.2 1559.03,-720.2 1559.03,-720.2 1553.03,-721.82 1560.2,-724.55 1549.37,-722.8"/>
</g>
<!-- 17002 -->
<g id="node11" class="node">
<title>17002</title>
<polygon fill="none" stroke="black" points="2320.27,-477.66 2320.27,-492.57 2263.37,-503.12 2182.91,-503.12 2126.01,-492.57 2126.01,-477.66 2182.91,-467.12 2263.37,-467.12 2320.27,-477.66"/>
<polygon fill="none" stroke="black" points="2324.27,-474.34 2324.27,-495.9 2263.74,-507.12 2182.54,-507.12 2122.01,-495.9 2122.01,-474.34 2182.54,-463.12 2263.74,-463.12 2324.27,-474.34"/>
<text text-anchor="middle" x="2223.14" y="-480.07" font-family="Times,serif" font-size="14.00">historical&#45;sell&#45;variant</text>
</g>
<!-- 17002&#45;&gt;17001 -->
<g id="edge16" class="edge">
<title>17002&#45;&gt;17001</title>
<path fill="none" stroke="black" stroke-width="2" d="M2167.74,-504.7C2116.93,-521.79 2080.1,-529.92 1962.41,-550.97"/>
<polygon fill="black" stroke="black" stroke-width="2" points="1953.93,-552.49 1962.98,-546.3 1956.36,-551.54 1963.68,-550.24 1963.77,-550.73 1963.86,-551.22 1956.54,-552.53 1964.56,-555.16 1953.93,-552.49"/>
</g>
<!-- 25484 -->
<g id="node12" class="node">
<title>25484</title>
<polygon fill="none" stroke="black" points="1754.4,-1083.85 1754.4,-1098.76 1681.61,-1109.3 1578.65,-1109.3 1505.85,-1098.76 1505.85,-1083.85 1578.65,-1073.3 1681.61,-1073.3 1754.4,-1083.85"/>
<text text-anchor="middle" x="1630.13" y="-1086.25" font-family="Times,serif" font-size="14.00">scancode:x11&#45;keith&#45;packard</text>
</g>
<!-- 25484&#45;&gt;47458 -->
<g id="edge17" class="edge">
<title>25484&#45;&gt;47458</title>
<path fill="none" stroke="#00876c" stroke-dasharray="5,2" d="M1627.48,-1072.93C1612.76,-971.81 1606.2,-956.58 1499.35,-772.94"/>
<polygon fill="#00876c" stroke="#00876c" points="1494.46,-764.55 1503.38,-770.93 1496.37,-767.81 1499.49,-773.19 1499.49,-773.19 1499.49,-773.19 1496.37,-767.81 1495.61,-775.45 1494.46,-764.55"/>
</g>
<!-- 27821 -->
<g id="node13" class="node">
<title>27821</title>
<ellipse fill="none" stroke="#e18745" cx="1452.54" cy="-499.62" rx="155.03" ry="28.99"/>
<text text-anchor="middle" x="1452.54" y="-502.82" font-family="Times,serif" font-size="14.00" fill="gray">Fossology</text>
<text text-anchor="middle" x="1452.54" y="-486.32" font-family="Times,serif" font-size="14.00" fill="gray">4f85af10b476f82ce5f2a00a7856dd84</text>
</g>
<!-- 27821&#45;&gt;27822 -->
<g id="edge18" class="edge">
<title>27821&#45;&gt;27822</title>
<path fill="none" stroke="#e18745" d="M1361.26,-523.46C1320.77,-533.61 1275.25,-544.24 1173.98,-567.52"/>
<polygon fill="#e18745" stroke="#e18745" points="1173.45,-564.05 1164.49,-569.7 1175.02,-570.87 1173.45,-564.05"/>
</g>
<!-- 28327 -->
<g id="node15" class="node">
<title>28327</title>
<polygon fill="none" stroke="black" points="221.25,-254.28 221.25,-269.19 188.04,-279.74 141.08,-279.74 107.87,-269.19 107.87,-254.28 141.08,-243.74 188.04,-243.74 221.25,-254.28"/>
<text text-anchor="middle" x="164.56" y="-256.69" font-family="Times,serif" font-size="14.00">mit&#45;license</text>
</g>
<!-- 28327&#45;&gt;2816 -->
<g id="edge19" class="edge">
<title>28327&#45;&gt;2816</title>
<path fill="none" stroke="#379469" stroke-dasharray="5,2" d="M221.71,-263.46C241.11,-265.35 265.07,-269.3 311.17,-277.47"/>
<polygon fill="#379469" stroke="#379469" points="320.81,-279.18 310.18,-281.86 317.09,-278.52 310.97,-277.43 310.97,-277.43 310.97,-277.43 317.09,-278.52 311.75,-273 320.81,-279.18"/>
</g>
<!-- 28751 -->
<g id="node16" class="node">
<title>28751</title>
<ellipse fill="none" stroke="#e06f45" cx="941.76" cy="-105.48" rx="159.28" ry="28.99"/>
<text text-anchor="middle" x="941.76" y="-108.68" font-family="Times,serif" font-size="14.00" fill="gray">OrtLicenseCategorization</text>
<text text-anchor="middle" x="941.76" y="-92.18" font-family="Times,serif" font-size="14.00" fill="gray">694bf134b31bd1667fc224e3b94a7035</text>
</g>
<!-- 28751&#45;&gt;2208 -->
<g id="edge20" class="edge">
<title>28751&#45;&gt;2208</title>
<path fill="none" stroke="#e06f45" d="M948.45,-134.77C969.42,-225.66 978.29,-249.27 1064.74,-459.09"/>
<polygon fill="#e06f45" stroke="#e06f45" points="1061.43,-460.24 1068.48,-468.15 1067.9,-457.57 1061.43,-460.24"/>
</g>
<!-- 35516 -->
<g id="node17" class="node">
<title>35516</title>
<ellipse fill="none" stroke="#e09d4b" cx="1282.51" cy="-128.57" rx="159.28" ry="28.99"/>
<text text-anchor="middle" x="1282.51" y="-131.77" font-family="Times,serif" font-size="14.00" fill="gray">OrtLicenseCategorization</text>
<text text-anchor="middle" x="1282.51" y="-115.27" font-family="Times,serif" font-size="14.00" fill="gray">c6c446a2ec2188a22ec821114d8d2b2a</text>
</g>
<!-- 35516&#45;&gt;2208 -->
<g id="edge21" class="edge">
<title>35516&#45;&gt;2208</title>
<path fill="none" stroke="#e09d4b" d="M1255.39,-157.3C1190.07,-227.51 1177.45,-253.87 1094.77,-458.88"/>
<polygon fill="#e09d4b" stroke="#e09d4b" points="1091.58,-457.43 1091.09,-468.02 1098.07,-460.05 1091.58,-457.43"/>
</g>
<!-- 36968 -->
<g id="node18" class="node">
<title>36968</title>
<ellipse fill="none" stroke="#379469" cx="158.42" cy="-1102" rx="158.22" ry="28.99"/>
<text text-anchor="middle" x="158.42" y="-1105.2" font-family="Times,serif" font-size="14.00" fill="gray">CavilLicenseChange</text>
<text text-anchor="middle" x="158.42" y="-1088.7" font-family="Times,serif" font-size="14.00" fill="gray">bc0365daef195e7e0b12db6ce439de63</text>
</g>
<!-- 36968&#45;&gt;36969 -->
<g id="edge22" class="edge">
<title>36968&#45;&gt;36969</title>
<path fill="none" stroke="#379469" d="M184.83,-1072.95C240.74,-1012.16 265.11,-993.34 429.9,-876.19"/>
<polygon fill="#379469" stroke="#379469" points="431.53,-879.32 437.65,-870.68 427.47,-873.62 431.53,-879.32"/>
</g>
<!-- 43464 -->
<g id="node20" class="node">
<title>43464</title>
<polygon fill="none" stroke="#00876c" points="1708.91,-938.09 1708.91,-953 1675.7,-963.55 1628.74,-963.55 1595.53,-953 1595.53,-938.09 1628.74,-927.55 1675.7,-927.55 1708.91,-938.09"/>
<text text-anchor="middle" x="1652.22" y="-940.5" font-family="Times,serif" font-size="14.00">Permission</text>
</g>
<!-- 43464&#45;&gt;47458 -->
<g id="edge23" class="edge">
<title>43464&#45;&gt;47458</title>
<path fill="none" stroke="#00876c" stroke-dasharray="5,2" d="M1641.65,-927.37C1612.34,-877.4 1600.73,-863.73 1510.38,-771.3"/>
<polygon fill="#00876c" stroke="#00876c" points="1503.43,-764.19 1513.64,-768.19 1506.07,-766.89 1510.42,-771.34 1510.42,-771.34 1510.42,-771.34 1506.07,-766.89 1507.2,-774.49 1503.43,-764.19"/>
</g>
<!-- 47457 -->
<g id="node21" class="node">
<title>47457</title>
<ellipse fill="none" stroke="#00876c" cx="1868.57" cy="-886.8" rx="158.75" ry="28.99"/>
<text text-anchor="middle" x="1868.57" y="-890" font-family="Times,serif" font-size="14.00" fill="gray">MetaeffektLicense</text>
<text text-anchor="middle" x="1868.57" y="-873.5" font-family="Times,serif" font-size="14.00" fill="gray">4910a41bb9a1e91aa5e2b1c736c11ac8</text>
</g>
<!-- 47457&#45;&gt;47458 -->
<g id="edge24" class="edge">
<title>47457&#45;&gt;47458</title>
<path fill="none" stroke="#00876c" d="M1788.06,-861.44C1735.23,-843.87 1686.87,-824.68 1542.69,-766.19"/>
<polygon fill="#00876c" stroke="#00876c" points="1544.13,-763 1533.54,-762.48 1541.49,-769.48 1544.13,-763"/>
</g>
<!-- 47459 -->
<g id="node23" class="node">
<title>47459</title>
<polygon fill="none" stroke="#00876c" points="1510.93,-1019.4 1510.93,-1034.31 1478.7,-1044.85 1433.11,-1044.85 1400.88,-1034.31 1400.88,-1019.4 1433.11,-1008.85 1478.7,-1008.85 1510.93,-1019.4"/>
<polygon fill="none" stroke="#00876c" points="1514.93,-1016.5 1514.93,-1037.21 1479.34,-1048.85 1432.47,-1048.85 1396.88,-1037.21 1396.88,-1016.5 1432.47,-1004.85 1479.34,-1004.85 1514.93,-1016.5"/>
<text text-anchor="middle" x="1455.9" y="-1021.8" font-family="Times,serif" font-size="14.00">PT&#45;Var035</text>
</g>
<!-- 47459&#45;&gt;47458 -->
<g id="edge25" class="edge">
<title>47459&#45;&gt;47458</title>
<path fill="none" stroke="#00876c" stroke-width="2" d="M1467.33,-1004.52C1505.1,-929.79 1506.03,-912.95 1485.74,-774.53"/>
<polygon fill="#00876c" stroke="#00876c" stroke-width="2" points="1484.46,-765.87 1490.37,-775.11 1485.33,-768.34 1486.41,-775.69 1485.92,-775.77 1485.42,-775.84 1484.34,-768.48 1481.47,-776.42 1484.46,-765.87"/>
</g>
<!-- 47460 -->
<g id="node24" class="node">
<title>47460</title>
<polygon fill="none" stroke="#00876c" points="1317.47,-729.84 1317.47,-744.75 1208,-755.3 1053.19,-755.3 943.72,-744.75 943.72,-729.84 1053.19,-719.3 1208,-719.3 1317.47,-729.84"/>
<polygon fill="none" stroke="#00876c" points="1321.47,-726.21 1321.47,-748.38 1208.19,-759.3 1053,-759.3 939.72,-748.38 939.72,-726.21 1053,-715.3 1208.19,-715.3 1321.47,-726.21"/>
<text text-anchor="middle" x="1130.6" y="-732.25" font-family="Times,serif" font-size="14.00">metaeffekt:Permission Terms (HPND; sell)</text>
</g>
<!-- 47460&#45;&gt;47458 -->
<g id="edge26" class="edge">
<title>47460&#45;&gt;47458</title>
<path fill="none" stroke="#00876c" stroke-width="2" d="M1216.97,-758.95C1322.45,-784.46 1356.44,-786.22 1417.57,-765.29"/>
<polygon fill="#00876c" stroke="#00876c" stroke-width="2" points="1425.75,-762.4 1417.82,-769.97 1423.5,-763.72 1416.49,-766.2 1416.32,-765.73 1416.15,-765.26 1423.16,-762.78 1414.82,-761.49 1425.75,-762.4"/>
</g>
<!-- 47461 -->
<g id="node25" class="node">
<title>47461</title>
<polygon fill="none" stroke="#00876c" points="1243.82,-797.64 1243.82,-812.56 1161.29,-823.1 1044.57,-823.1 962.03,-812.56 962.03,-797.64 1044.57,-787.1 1161.29,-787.1 1243.82,-797.64"/>
<polygon fill="none" stroke="#00876c" points="1247.82,-794.12 1247.82,-816.08 1161.54,-827.1 1044.31,-827.1 958.03,-816.08 958.03,-794.12 1044.31,-783.1 1161.54,-783.1 1247.82,-794.12"/>
<text text-anchor="middle" x="1102.93" y="-800.05" font-family="Times,serif" font-size="14.00">Permission Terms (HPND; sell)</text>
</g>
<!-- 47461&#45;&gt;47460 -->
<g id="edge27" class="edge">
<title>47461&#45;&gt;47460</title>
<path fill="none" stroke="#00876c" stroke-width="2" d="M1114.08,-782.71C1115.52,-779.21 1117.09,-775.13 1119.04,-769.8"/>
<polygon fill="#00876c" stroke="#00876c" stroke-width="2" points="1121.9,-761.85 1122.75,-772.79 1121.51,-764.43 1118.98,-771.43 1118.51,-771.26 1118.04,-771.09 1120.56,-764.09 1114.28,-769.73 1121.9,-761.85"/>
</g>
</g>
</svg>
