<?xml version="1.0" encoding="UTF-8" standalone="no"?>
<!DOCTYPE svg PUBLIC "-//W3C//DTD SVG 1.1//EN"
 "http://www.w3.org/Graphics/SVG/1.1/DTD/svg11.dtd">
<!-- Generated by graphviz version 10.0.1 (0)
 -->
<!-- Pages: 1 -->
<svg width="3242pt" height="2220pt"
 viewBox="0.00 0.00 3242.00 2220.00" xmlns="http://www.w3.org/2000/svg" xmlns:xlink="http://www.w3.org/1999/xlink">
<g id="graph0" class="graph" transform="scale(1 1) rotate(0) translate(4 2216)">
<polygon fill="white" stroke="none" points="-4,4 -4,-2216 3238,-2216 3238,4 -4,4"/>
<!-- 5 -->
<g id="node1" class="node">
<title>5</title>
<text text-anchor="start" x="572.59" y="-1180.77" font-family="Times,serif" font-size="14.00">OSI: </text>
<text text-anchor="start" x="601.84" y="-1180.77" font-family="Times,serif" font-weight="bold" font-size="14.00" fill="#8b0000">Rejected</text>
</g>
<!-- 2315 -->
<g id="node2" class="node">
<title>2315</title>
<ellipse fill="none" stroke="#dac767" cx="856.82" cy="-940.84" rx="157.15" ry="28.99"/>
<text text-anchor="middle" x="856.82" y="-944.04" font-family="Times,serif" font-size="14.00" fill="gray">SPDXLicense</text>
<text text-anchor="middle" x="856.82" y="-927.54" font-family="Times,serif" font-size="14.00" fill="gray">a0b20f5194681cee3ad2dcac4d592ce7</text>
</g>
<!-- 5&#45;&gt;2315 -->
<g id="edge1" class="edge">
<title>5&#45;&gt;2315</title>
<path fill="none" stroke="#dac767" d="M619.93,-1166.99C660.89,-1071.25 672.62,-1056.09 801.92,-975.01"/>
<polygon fill="#dac767" stroke="#dac767" points="803.53,-978.13 810.15,-969.85 799.81,-972.19 803.53,-978.13"/>
</g>
<!-- 2316 -->
<g id="node3" class="node">
<title>2316</title>
<polygon fill="none" stroke="black" points="1449.95,-1068.54 1449.95,-1083.45 1400.84,-1093.99 1331.39,-1093.99 1282.28,-1083.45 1282.28,-1068.54 1331.39,-1057.99 1400.84,-1057.99 1449.95,-1068.54"/>
<polygon fill="none" stroke="black" points="1453.95,-1065.31 1453.95,-1086.68 1401.26,-1097.99 1330.96,-1097.99 1278.28,-1086.68 1278.28,-1065.31 1330.96,-1053.99 1401.26,-1053.99 1453.95,-1065.31"/>
<polygon fill="none" stroke="black" points="1457.95,-1062.07 1457.95,-1089.91 1401.69,-1101.99 1330.54,-1101.99 1274.28,-1089.91 1274.28,-1062.07 1330.54,-1049.99 1401.69,-1049.99 1457.95,-1062.07"/>
<text text-anchor="middle" x="1366.11" y="-1070.94" font-family="Times,serif" font-size="14.00">spdx:HPND&#45;DEC</text>
</g>
<!-- 2315&#45;&gt;2316 -->
<g id="edge2" class="edge">
<title>2315&#45;&gt;2316</title>
<path fill="none" stroke="#dac767" d="M937.73,-966.07C1014.69,-989.51 1070.69,-1003.71 1280.68,-1055.1"/>
<polygon fill="#dac767" stroke="#dac767" points="1279.75,-1058.48 1290.3,-1057.45 1281.42,-1051.68 1279.75,-1058.48"/>
</g>
<!-- 7552 -->
<g id="node14" class="node">
<title>7552</title>
<polygon fill="none" stroke="#e09d4b" points="1855.67,-821.86 1855.67,-836.77 1801.37,-847.31 1724.57,-847.31 1670.27,-836.77 1670.27,-821.86 1724.57,-811.31 1801.37,-811.31 1855.67,-821.86"/>
<polygon fill="none" stroke="#e09d4b" points="1859.67,-818.56 1859.67,-840.07 1801.75,-851.31 1724.19,-851.31 1666.27,-840.07 1666.27,-818.56 1724.19,-807.31 1801.75,-807.31 1859.67,-818.56"/>
<text text-anchor="middle" x="1762.97" y="-824.26" font-family="Times,serif" font-size="14.00">Fedora:HPND&#45;DEC</text>
</g>
<!-- 2316&#45;&gt;7552 -->
<g id="edge3" class="edge">
<title>2316&#45;&gt;7552</title>
<path fill="none" stroke="#e09d4b" stroke-width="2" d="M1387.12,-1049.57C1509.5,-895.85 1536.95,-868.58 1667.43,-844.71"/>
<polygon fill="#e09d4b" stroke="#e09d4b" stroke-width="2" points="1675.86,-843.21 1666.81,-849.4 1673.42,-844.15 1666.1,-845.46 1666.01,-844.97 1665.93,-844.47 1673.25,-843.17 1665.22,-840.54 1675.86,-843.21"/>
</g>
<!-- 28083 -->
<g id="node18" class="node">
<title>28083</title>
<polygon fill="none" stroke="black" points="1045.9,-1140.65 1045.9,-1155.56 994.19,-1166.1 921.07,-1166.1 869.36,-1155.56 869.36,-1140.65 921.07,-1130.1 994.19,-1130.1 1045.9,-1140.65"/>
<polygon fill="none" stroke="black" points="1049.9,-1137.38 1049.9,-1158.82 994.6,-1170.1 920.67,-1170.1 865.36,-1158.82 865.36,-1137.38 920.67,-1126.1 994.6,-1126.1 1049.9,-1137.38"/>
<text text-anchor="middle" x="957.63" y="-1143.05" font-family="Times,serif" font-size="14.00">scancode:x11&#45;dec2</text>
</g>
<!-- 2316&#45;&gt;28083 -->
<g id="edge4" class="edge">
<title>2316&#45;&gt;28083</title>
<path fill="none" stroke="#deb256" stroke-width="2" d="M1273.95,-1086.44C1201.38,-1097.77 1101.47,-1115.52 1033.48,-1129.22"/>
<polygon fill="#deb256" stroke="#deb256" stroke-width="2" points="1025.24,-1130.89 1034.14,-1124.49 1027.65,-1129.89 1034.94,-1128.41 1035.04,-1128.9 1035.14,-1129.39 1027.85,-1130.87 1035.94,-1133.31 1025.24,-1130.89"/>
</g>
<!-- 2317 -->
<g id="node4" class="node">
<title>2317</title>
<polygon fill="none" stroke="black" points="1604.49,-708.88 1604.49,-723.79 1568.04,-734.33 1516.49,-734.33 1480.03,-723.79 1480.03,-708.88 1516.49,-698.33 1568.04,-698.33 1604.49,-708.88"/>
<polygon fill="none" stroke="black" points="1608.49,-705.87 1608.49,-726.79 1568.61,-738.33 1515.92,-738.33 1476.03,-726.79 1476.03,-705.87 1515.92,-694.33 1568.61,-694.33 1608.49,-705.87"/>
<text text-anchor="middle" x="1542.26" y="-711.28" font-family="Times,serif" font-size="14.00">HPND&#45;DEC</text>
</g>
<!-- 2317&#45;&gt;2316 -->
<g id="edge5" class="edge">
<title>2317&#45;&gt;2316</title>
<path fill="none" stroke="black" stroke-width="2" d="M1516,-738.71C1411.33,-828.5 1403.07,-847.44 1372.1,-1038.75"/>
<polygon fill="black" stroke="black" stroke-width="2" points="1370.71,-1047.38 1367.86,-1036.79 1370.62,-1044.77 1371.81,-1037.43 1372.3,-1037.51 1372.8,-1037.59 1371.61,-1044.93 1376.74,-1038.22 1370.71,-1047.38"/>
</g>
<!-- 2317&#45;&gt;7552 -->
<g id="edge6" class="edge">
<title>2317&#45;&gt;7552</title>
<path fill="none" stroke="#e09d4b" stroke-width="2" d="M1608.64,-721.83C1656.3,-728.54 1677.14,-743.81 1733.07,-799.34"/>
<polygon fill="#e09d4b" stroke="#e09d4b" stroke-width="2" points="1739.1,-805.34 1728.84,-801.47 1736.93,-803.89 1731.66,-798.64 1732.01,-798.28 1732.37,-797.93 1737.63,-803.18 1735.19,-795.1 1739.1,-805.34"/>
</g>
<!-- 41678 -->
<g id="node29" class="node">
<title>41678</title>
<polygon fill="none" stroke="#379469" points="1762.51,-397.11 1762.51,-412.02 1713.07,-422.56 1643.16,-422.56 1593.73,-412.02 1593.73,-397.11 1643.16,-386.56 1713.07,-386.56 1762.51,-397.11"/>
<polygon fill="none" stroke="#379469" points="1766.51,-393.87 1766.51,-415.26 1713.49,-426.56 1642.74,-426.56 1589.73,-415.26 1589.73,-393.87 1642.74,-382.56 1713.49,-382.56 1766.51,-393.87"/>
<text text-anchor="middle" x="1678.12" y="-399.51" font-family="Times,serif" font-size="14.00">cavil:HPND&#45;DEC</text>
</g>
<!-- 2317&#45;&gt;41678 -->
<g id="edge7" class="edge">
<title>2317&#45;&gt;41678</title>
<path fill="none" stroke="#379469" stroke-width="2" d="M1549,-693.84C1601.08,-520.16 1609.98,-493.99 1653.96,-435.76"/>
<polygon fill="#379469" stroke="#379469" stroke-width="2" points="1659.23,-428.85 1656.74,-439.53 1658.07,-431.19 1653.56,-437.1 1653.16,-436.8 1652.76,-436.5 1657.28,-430.58 1649.59,-434.07 1659.23,-428.85"/>
</g>
<!-- 2318 -->
<g id="node5" class="node">
<title>2318</title>
<polygon fill="none" stroke="black" points="1630.68,-994.58 1630.68,-1009.49 1483.25,-1020.04 1274.74,-1020.04 1127.3,-1009.49 1127.3,-994.58 1274.74,-984.04 1483.25,-984.04 1630.68,-994.58"/>
<polygon fill="none" stroke="black" points="1634.68,-990.86 1634.68,-1013.22 1483.39,-1024.04 1274.6,-1024.04 1123.3,-1013.22 1123.3,-990.86 1274.6,-980.04 1483.39,-980.04 1634.68,-990.86"/>
<text text-anchor="middle" x="1378.99" y="-996.99" font-family="Times,serif" font-size="14.00">Historical Permission Notice and Disclaimer &#45; DEC variant</text>
</g>
<!-- 2318&#45;&gt;2316 -->
<g id="edge8" class="edge">
<title>2318&#45;&gt;2316</title>
<path fill="none" stroke="#dac767" stroke-width="2" d="M1365.78,-1024.17C1363.24,-1029.35 1361.83,-1033.75 1361.34,-1038.64"/>
<polygon fill="#dac767" stroke="#dac767" stroke-width="2" points="1361.5,-1047.33 1356.81,-1037.42 1360.95,-1044.78 1360.81,-1037.34 1361.31,-1037.33 1361.81,-1037.33 1361.95,-1044.76 1365.81,-1037.25 1361.5,-1047.33"/>
</g>
<!-- 67397 -->
<g id="node33" class="node">
<title>67397</title>
<polygon fill="none" stroke="#00876c" points="2193.94,-921.6 2193.94,-936.51 2033.85,-947.05 1807.44,-947.05 1647.35,-936.51 1647.35,-921.6 1807.44,-911.05 2033.85,-911.05 2193.94,-921.6"/>
<polygon fill="none" stroke="#00876c" points="2197.94,-917.85 2197.94,-940.26 2033.98,-951.05 1807.31,-951.05 1643.35,-940.26 1643.35,-917.85 1807.31,-907.05 2033.98,-907.05 2197.94,-917.85"/>
<text text-anchor="middle" x="1920.64" y="-924" font-family="Times,serif" font-size="14.00">spdx:Historical Permission Notice and Disclaimer &#45; DEC variant</text>
</g>
<!-- 2318&#45;&gt;67397 -->
<g id="edge9" class="edge">
<title>2318&#45;&gt;67397</title>
<path fill="none" stroke="#00876c" stroke-width="2" d="M1425.33,-979.67C1638.06,-877.3 1679.13,-864.64 1829.65,-903.81"/>
<polygon fill="#00876c" stroke="#00876c" stroke-width="2" points="1837.85,-905.98 1827.03,-907.78 1835.24,-905.81 1828.05,-903.91 1828.18,-903.43 1828.31,-902.94 1835.5,-904.84 1829.33,-899.07 1837.85,-905.98"/>
</g>
<!-- 2319 -->
<g id="node6" class="node">
<title>2319</title>
<text text-anchor="middle" x="309.74" y="-1220.4" font-family="Times,serif" font-size="14.00">SPDXLicense:</text>
<text text-anchor="middle" x="309.74" y="-1203.9" font-family="Times,serif" font-size="14.00">The permission grant is the same as HPND, but the disclaimer is quite different</text>
<text text-anchor="middle" x="309.74" y="-1187.4" font-family="Times,serif" font-size="14.00">and there is a obligation related to modified versions.</text>
</g>
<!-- 2319&#45;&gt;2315 -->
<g id="edge10" class="edge">
<title>2319&#45;&gt;2315</title>
<path fill="none" stroke="#dac767" d="M341.24,-1180.45C453.02,-1080.07 485.38,-1063.87 768.74,-969.94"/>
<polygon fill="#dac767" stroke="#dac767" points="769.53,-973.36 777.92,-966.89 767.33,-966.72 769.53,-973.36"/>
</g>
<!-- 2320 -->
<g id="node7" class="node">
<title>2320</title>
<text text-anchor="middle" x="446.79" y="-942.91" font-family="Times,serif" font-size="14.00">$TEXT</text>
</g>
<!-- 2320&#45;&gt;2315 -->
<g id="edge11" class="edge">
<title>2320&#45;&gt;2315</title>
<path fill="none" stroke="#dac767" d="M475.37,-944.05C546.5,-934.48 577.32,-932.29 690.54,-935.36"/>
<polygon fill="#dac767" stroke="#dac767" points="690.15,-938.85 700.24,-935.63 690.34,-931.85 690.15,-938.85"/>
</g>
<!-- 2321 -->
<g id="node8" class="node">
<title>2321</title>
<text text-anchor="middle" x="223.57" y="-947.74" font-family="Times,serif" font-size="14.00">$TEXT</text>
</g>
<!-- 2321&#45;&gt;2320 -->
<g id="edge12" class="edge">
<title>2321&#45;&gt;2320</title>
<path fill="none" stroke="#dac767" d="M251.94,-949.59C290.16,-945.57 311.14,-945.45 407.02,-947.21"/>
<polygon fill="#dac767" stroke="#dac767" points="406.87,-950.71 416.93,-947.4 407,-943.71 406.87,-950.71"/>
</g>
<!-- 2322 -->
<g id="node9" class="node">
<title>2322</title>
<text text-anchor="middle" x="895.55" y="-872.02" font-family="Times,serif" font-size="14.00">https://gitlab.freedesktop.org/xorg/app/xkbcomp/&#45;/blob/master/COPYING?ref_type=heads#L69</text>
</g>
<!-- 2322&#45;&gt;2315 -->
<g id="edge13" class="edge">
<title>2322&#45;&gt;2315</title>
<path fill="none" stroke="#dac767" d="M875.05,-894.68C872.36,-897.24 870.16,-899.57 868.33,-901.86"/>
<polygon fill="#dac767" stroke="#dac767" points="865.45,-899.85 863.42,-910.25 871.49,-903.39 865.45,-899.85"/>
</g>
<!-- 28082 -->
<g id="node17" class="node">
<title>28082</title>
<ellipse fill="none" stroke="#deb256" cx="594.35" cy="-793.21" rx="159.81" ry="28.99"/>
<text text-anchor="middle" x="594.35" y="-796.41" font-family="Times,serif" font-size="14.00" fill="gray">ScancodeData</text>
<text text-anchor="middle" x="594.35" y="-779.91" font-family="Times,serif" font-size="14.00" fill="gray">18b35667956e64fa06912030c5bc32c9</text>
</g>
<!-- 2322&#45;&gt;28082 -->
<g id="edge14" class="edge">
<title>2322&#45;&gt;28082</title>
<path fill="none" stroke="#deb256" d="M833.2,-859.15C765.56,-839.71 726.77,-828.62 697.02,-820.36"/>
<polygon fill="#deb256" stroke="#deb256" points="698.06,-817.01 687.48,-817.72 696.19,-823.76 698.06,-817.01"/>
</g>
<!-- 5550 -->
<g id="node10" class="node">
<title>5550</title>
<text text-anchor="middle" x="470.08" y="-387.57" font-family="Times,serif" font-size="14.00">LicenseType Permissive</text>
</g>
<!-- 5550&#45;&gt;28082 -->
<g id="edge15" class="edge">
<title>5550&#45;&gt;28082</title>
<path fill="none" stroke="#deb256" d="M468.62,-410.27C457.3,-548.5 460.97,-564.29 571.69,-754.38"/>
<polygon fill="#deb256" stroke="#deb256" points="568.56,-755.98 576.62,-762.85 574.61,-752.45 568.56,-755.98"/>
</g>
<!-- 6592 -->
<g id="node11" class="node">
<title>6592</title>
<text text-anchor="middle" x="2615.01" y="-507.01" font-family="Times,serif" font-size="14.00">[&quot;allowed&quot;]</text>
</g>
<!-- 7551 -->
<g id="node13" class="node">
<title>7551</title>
<ellipse fill="none" stroke="#e09d4b" cx="2231.78" cy="-647.96" rx="158.22" ry="28.99"/>
<text text-anchor="middle" x="2231.78" y="-651.16" font-family="Times,serif" font-size="14.00" fill="gray">FedoraEntry</text>
<text text-anchor="middle" x="2231.78" y="-634.66" font-family="Times,serif" font-size="14.00" fill="gray">6a682e335ba04e7a375943f903bc0a1e</text>
</g>
<!-- 6592&#45;&gt;7551 -->
<g id="edge16" class="edge">
<title>6592&#45;&gt;7551</title>
<path fill="none" stroke="#e09d4b" d="M2575.19,-519.75C2498.09,-535.14 2467.63,-546.19 2304.75,-616.42"/>
<polygon fill="#e09d4b" stroke="#e09d4b" points="2303.53,-613.13 2295.73,-620.31 2306.3,-619.56 2303.53,-613.13"/>
</g>
<!-- 6593 -->
<g id="node12" class="node">
<title>6593</title>
<text text-anchor="start" x="2966.09" y="-420.15" font-family="Times,serif" font-size="14.00">Fedora: </text>
<text text-anchor="start" x="3011.09" y="-420.15" font-family="Times,serif" font-weight="bold" font-size="14.00" fill="#228b22">allowed</text>
<text text-anchor="start" x="2802.21" y="-406.15" font-family="Times,serif" font-size="14.00">A license is allowed if Fedora determines that the license is a free software /</text>
<text text-anchor="start" x="2796.96" y="-392.15" font-family="Times,serif" font-size="14.00">open source license. At a high level, the inquiry involves determining whether</text>
<text text-anchor="start" x="2795.84" y="-378.15" font-family="Times,serif" font-size="14.00">the license provides software freedom, and (equivalently) making sure that the</text>
<text text-anchor="start" x="2805.96" y="-364.15" font-family="Times,serif" font-size="14.00">license does not place burdens on users&#39; exercise of its permissions that are</text>
<text text-anchor="start" x="2805.59" y="-350.15" font-family="Times,serif" font-size="14.00">inconsistent with evolving community norms and traditions around what is</text>
<text text-anchor="start" x="2797.34" y="-336.15" font-family="Times,serif" font-size="14.00">acceptable in a free software / open source license. See below for more on the</text>
<text text-anchor="start" x="2917.34" y="-322.15" font-family="Times,serif" font-size="14.00">history of Fedora licensing policy.</text>
</g>
<!-- 6593&#45;&gt;6592 -->
<g id="edge17" class="edge">
<title>6593&#45;&gt;6592</title>
<path fill="none" stroke="#e09d4b" d="M2806.26,-436.4C2770.9,-449.92 2726.04,-467.72 2664.89,-492.13"/>
<polygon fill="#e09d4b" stroke="#e09d4b" points="2663.92,-488.75 2655.93,-495.71 2666.51,-495.25 2663.92,-488.75"/>
</g>
<!-- 7551&#45;&gt;7552 -->
<g id="edge18" class="edge">
<title>7551&#45;&gt;7552</title>
<path fill="none" stroke="#e09d4b" d="M2111.75,-667.22C2045.35,-683.32 1984.3,-713.64 1814.84,-802.18"/>
<polygon fill="#e09d4b" stroke="#e09d4b" points="1813.43,-798.97 1806.19,-806.7 1816.67,-805.17 1813.43,-798.97"/>
</g>
<!-- 28066 -->
<g id="node15" class="node">
<title>28066</title>
<text text-anchor="middle" x="140.79" y="-580.38" font-family="Times,serif" font-size="14.00">http://www.xfree86.org/current/LICENSE5.html</text>
</g>
<!-- 28066&#45;&gt;28082 -->
<g id="edge19" class="edge">
<title>28066&#45;&gt;28082</title>
<path fill="none" stroke="#deb256" d="M173.53,-603.32C266.12,-653.74 296.31,-667.51 520.04,-761.88"/>
<polygon fill="#deb256" stroke="#deb256" points="518.52,-765.04 529.1,-765.71 521.24,-758.59 518.52,-765.04"/>
</g>
<!-- 28067 -->
<g id="node16" class="node">
<title>28067</title>
<text text-anchor="middle" x="633.7" y="-722" font-family="Times,serif" font-size="14.00">http://www.xfree86.org/current/LICENSE5.html</text>
</g>
<!-- 28067&#45;&gt;28082 -->
<g id="edge20" class="edge">
<title>28067&#45;&gt;28082</title>
<path fill="none" stroke="#deb256" d="M612.93,-744.71C609.48,-747.98 606.83,-750.89 604.73,-753.86"/>
<polygon fill="#deb256" stroke="#deb256" points="601.66,-752.17 600.32,-762.68 607.92,-755.31 601.66,-752.17"/>
</g>
<!-- 28082&#45;&gt;28083 -->
<g id="edge21" class="edge">
<title>28082&#45;&gt;28083</title>
<path fill="none" stroke="#deb256" d="M609.16,-822.48C673.08,-947.87 691.81,-965.3 915.55,-1119.19"/>
<polygon fill="#deb256" stroke="#deb256" points="913.5,-1122.03 923.73,-1124.81 917.47,-1116.26 913.5,-1122.03"/>
</g>
<!-- 28083&#45;&gt;2316 -->
<g id="edge22" class="edge">
<title>28083&#45;&gt;2316</title>
<path fill="none" stroke="#00876c" stroke-width="2" d="M1050.3,-1137.57C1119.98,-1126.68 1214.66,-1109.92 1282.13,-1096.5"/>
<polygon fill="#00876c" stroke="#00876c" stroke-width="2" points="1290.33,-1094.86 1281.41,-1101.24 1287.92,-1095.85 1280.63,-1097.32 1280.53,-1096.83 1280.43,-1096.34 1287.72,-1094.87 1279.64,-1092.41 1290.33,-1094.86"/>
</g>
<!-- 28084 -->
<g id="node19" class="node">
<title>28084</title>
<polygon fill="none" stroke="black" points="1031.02,-1445.92 1031.02,-1460.83 1002.36,-1471.38 961.82,-1471.38 933.15,-1460.83 933.15,-1445.92 961.82,-1435.38 1002.36,-1435.38 1031.02,-1445.92"/>
<polygon fill="none" stroke="black" points="1035.02,-1443.13 1035.02,-1463.63 1003.07,-1475.38 961.11,-1475.38 929.15,-1463.63 929.15,-1443.13 961.11,-1431.38 1003.07,-1431.38 1035.02,-1443.13"/>
<text text-anchor="middle" x="982.09" y="-1448.33" font-family="Times,serif" font-size="14.00">x11&#45;dec2</text>
</g>
<!-- 28084&#45;&gt;28083 -->
<g id="edge23" class="edge">
<title>28084&#45;&gt;28083</title>
<path fill="none" stroke="black" stroke-width="2" d="M970.35,-1430.98C915.72,-1326.17 913.88,-1310.37 948.62,-1181.28"/>
<polygon fill="black" stroke="black" stroke-width="2" points="950.89,-1172.89 952.63,-1183.71 950.7,-1175.49 948.76,-1182.67 948.28,-1182.54 947.8,-1182.41 949.74,-1175.23 943.94,-1181.37 950.89,-1172.89"/>
</g>
<!-- 28085 -->
<g id="node20" class="node">
<title>28085</title>
<polygon fill="none" stroke="black" points="896.13,-1446.03 896.13,-1460.95 843.45,-1471.49 768.95,-1471.49 716.27,-1460.95 716.27,-1446.03 768.95,-1435.49 843.45,-1435.49 896.13,-1446.03"/>
<polygon fill="none" stroke="black" points="900.13,-1442.76 900.13,-1464.22 843.85,-1475.49 768.56,-1475.49 712.27,-1464.22 712.27,-1442.76 768.56,-1431.49 843.85,-1431.49 900.13,-1442.76"/>
<text text-anchor="middle" x="806.2" y="-1448.44" font-family="Times,serif" font-size="14.00">X11&#45;Style (DEC 2)</text>
</g>
<!-- 28085&#45;&gt;28083 -->
<g id="edge24" class="edge">
<title>28085&#45;&gt;28083</title>
<path fill="none" stroke="#deb256" stroke-width="2" d="M807.86,-1431.05C815.91,-1325.42 823.24,-1310.06 932.02,-1178.91"/>
<polygon fill="#deb256" stroke="#deb256" stroke-width="2" points="937.43,-1172.39 934.5,-1182.96 936.18,-1174.68 931.43,-1180.41 931.04,-1180.09 930.66,-1179.77 935.41,-1174.04 927.58,-1177.21 937.43,-1172.39"/>
</g>
<!-- 67396 -->
<g id="node32" class="node">
<title>67396</title>
<polygon fill="none" stroke="#00876c" points="1285.37,-1373.76 1285.37,-1388.67 1209.65,-1399.21 1102.56,-1399.21 1026.84,-1388.67 1026.84,-1373.76 1102.56,-1363.21 1209.65,-1363.21 1285.37,-1373.76"/>
<polygon fill="none" stroke="#00876c" points="1289.37,-1370.28 1289.37,-1392.15 1209.93,-1403.21 1102.29,-1403.21 1022.84,-1392.15 1022.84,-1370.28 1102.29,-1359.21 1209.93,-1359.21 1289.37,-1370.28"/>
<text text-anchor="middle" x="1156.11" y="-1376.16" font-family="Times,serif" font-size="14.00">scancode:X11&#45;Style (DEC 2)</text>
</g>
<!-- 28085&#45;&gt;67396 -->
<g id="edge25" class="edge">
<title>28085&#45;&gt;67396</title>
<path fill="none" stroke="#00876c" stroke-width="2" d="M900.29,-1446.69C938.98,-1441.18 982.02,-1430.12 1074.59,-1404.19"/>
<polygon fill="#00876c" stroke="#00876c" stroke-width="2" points="1082.87,-1401.87 1074.45,-1408.9 1080.53,-1403.04 1073.37,-1405.05 1073.24,-1404.57 1073.1,-1404.09 1080.26,-1402.08 1072.02,-1400.23 1082.87,-1401.87"/>
</g>
<!-- 28086 -->
<g id="node21" class="node">
<title>28086</title>
<text text-anchor="middle" x="337.13" y="-543.1" font-family="Times,serif" font-size="14.00">$TEXT</text>
</g>
<!-- 28086&#45;&gt;28082 -->
<g id="edge26" class="edge">
<title>28086&#45;&gt;28082</title>
<path fill="none" stroke="#deb256" d="M348.6,-566.09C395.36,-638.8 409.5,-652.94 548.08,-758.15"/>
<polygon fill="#deb256" stroke="#deb256" points="545.66,-760.71 555.74,-763.97 549.89,-755.14 545.66,-760.71"/>
</g>
<!-- 35432 -->
<g id="node22" class="node">
<title>35432</title>
<text text-anchor="middle" x="1401.6" y="-1609.5" font-family="Times,serif" font-size="14.00">LicenseTag (ScopedLicenseTag &quot;OrtLicenseCategorization&quot; &quot;permissive&quot; NoLicenseTagText)</text>
</g>
<!-- 35732 -->
<g id="node24" class="node">
<title>35732</title>
<ellipse fill="none" stroke="#d43d51" cx="1415.96" cy="-1556.66" rx="158.22" ry="28.99"/>
<text text-anchor="middle" x="1415.96" y="-1559.86" font-family="Times,serif" font-size="14.00" fill="gray">OrtLicenseCategorization</text>
<text text-anchor="middle" x="1415.96" y="-1543.36" font-family="Times,serif" font-size="14.00" fill="gray">4d8f337009ead64dfee601489067279c</text>
</g>
<!-- 35432&#45;&gt;35732 -->
<g id="edge27" class="edge">
<title>35432&#45;&gt;35732</title>
<path fill="none" stroke="#d43d51" d="M1404.53,-1596.73C1404.55,-1596.63 1404.57,-1596.54 1404.59,-1596.44"/>
<polygon fill="#d43d51" stroke="#d43d51" points="1407.8,-1597.99 1406.93,-1587.43 1401.03,-1596.23 1407.8,-1597.99"/>
</g>
<!-- 39545 -->
<g id="node25" class="node">
<title>39545</title>
<ellipse fill="none" stroke="#d43d51" cx="1810.81" cy="-1747.43" rx="159.28" ry="28.99"/>
<text text-anchor="middle" x="1810.81" y="-1750.63" font-family="Times,serif" font-size="14.00" fill="gray">OrtLicenseCategorization</text>
<text text-anchor="middle" x="1810.81" y="-1734.13" font-family="Times,serif" font-size="14.00" fill="gray">c1b6238a021c6e71ec0c9179501ee30b</text>
</g>
<!-- 35432&#45;&gt;39545 -->
<g id="edge28" class="edge">
<title>35432&#45;&gt;39545</title>
<path fill="none" stroke="#d43d51" d="M1425.31,-1632.35C1535.58,-1715.01 1581.17,-1746.63 1645.72,-1754.38"/>
<polygon fill="#d43d51" stroke="#d43d51" points="1645.34,-1757.86 1655.63,-1755.35 1646.01,-1750.9 1645.34,-1757.86"/>
</g>
<!-- 35433 -->
<g id="node23" class="node">
<title>35433</title>
<text text-anchor="middle" x="1578.57" y="-2188.47" font-family="Times,serif" font-size="14.00">LicenseTag (ScopedLicenseTag &quot;OrtLicenseCategorization&quot; &quot;include&#45;in&#45;notice&#45;file&quot; NoLicenseTagText)</text>
</g>
<!-- 35433&#45;&gt;35732 -->
<g id="edge29" class="edge">
<title>35433&#45;&gt;35732</title>
<path fill="none" stroke="#d43d51" d="M1568.93,-2175.6C1479.93,-2009.98 1475.26,-1991.39 1421.47,-1597.04"/>
<polygon fill="#d43d51" stroke="#d43d51" points="1424.97,-1596.8 1420.15,-1587.36 1418.03,-1597.74 1424.97,-1596.8"/>
</g>
<!-- 35433&#45;&gt;39545 -->
<g id="edge30" class="edge">
<title>35433&#45;&gt;39545</title>
<path fill="none" stroke="#d43d51" d="M1596.7,-2175.69C1699.09,-2074.63 1708.45,-2055.84 1797.52,-1787.51"/>
<polygon fill="#d43d51" stroke="#d43d51" points="1800.83,-1788.65 1800.66,-1778.06 1794.19,-1786.44 1800.83,-1788.65"/>
</g>
<!-- 35732&#45;&gt;2316 -->
<g id="edge31" class="edge">
<title>35732&#45;&gt;2316</title>
<path fill="none" stroke="#d43d51" d="M1400.12,-1527.69C1324.03,-1387.72 1322.92,-1366.02 1360.54,-1113.27"/>
<polygon fill="#d43d51" stroke="#d43d51" points="1363.95,-1114.14 1361.96,-1103.73 1357.03,-1113.11 1363.95,-1114.14"/>
</g>
<!-- 39546 -->
<g id="node26" class="node">
<title>39546</title>
<polygon fill="none" stroke="#d43d51" points="2115.01,-1284.73 2115.01,-1299.64 2017.87,-1310.19 1880.5,-1310.19 1783.36,-1299.64 1783.36,-1284.73 1880.5,-1274.19 2017.87,-1274.19 2115.01,-1284.73"/>
<polygon fill="none" stroke="#d43d51" points="2119.01,-1281.14 2119.01,-1303.23 2018.09,-1314.19 1880.28,-1314.19 1779.36,-1303.23 1779.36,-1281.14 1880.28,-1270.19 2018.09,-1270.19 2119.01,-1281.14"/>
<text text-anchor="middle" x="1949.18" y="-1287.14" font-family="Times,serif" font-size="14.00">SPDX:LicenseRef&#45;scancode&#45;x11&#45;dec2</text>
</g>
<!-- 39545&#45;&gt;39546 -->
<g id="edge32" class="edge">
<title>39545&#45;&gt;39546</title>
<path fill="none" stroke="#d43d51" d="M1834.44,-1718.38C1927.16,-1603.52 1932.06,-1580.29 1947.18,-1326.17"/>
<polygon fill="#d43d51" stroke="#d43d51" points="1950.67,-1326.38 1947.77,-1316.19 1943.68,-1325.97 1950.67,-1326.38"/>
</g>
<!-- 39547 -->
<g id="node27" class="node">
<title>39547</title>
<polygon fill="none" stroke="black" points="2041.66,-1217.57 2041.66,-1232.48 1961.07,-1243.03 1847.11,-1243.03 1766.52,-1232.48 1766.52,-1217.57 1847.11,-1207.03 1961.07,-1207.03 2041.66,-1217.57"/>
<polygon fill="none" stroke="black" points="2045.66,-1214.06 2045.66,-1235.99 1961.33,-1247.03 1846.85,-1247.03 1762.52,-1235.99 1762.52,-1214.06 1846.85,-1203.03 1961.33,-1203.03 2045.66,-1214.06"/>
<text text-anchor="middle" x="1904.09" y="-1219.98" font-family="Times,serif" font-size="14.00">LicenseRef&#45;scancode&#45;x11&#45;dec2</text>
</g>
<!-- 39547&#45;&gt;39546 -->
<g id="edge33" class="edge">
<title>39547&#45;&gt;39546</title>
<path fill="none" stroke="#d43d51" stroke-width="2" d="M1924.36,-1247.52C1929,-1252.82 1932.5,-1257.03 1935.25,-1260.75"/>
<polygon fill="#d43d51" stroke="#d43d51" stroke-width="2" points="1939.75,-1267.83 1930.59,-1261.81 1937.95,-1265.93 1933.96,-1259.66 1934.38,-1259.39 1934.8,-1259.12 1938.8,-1265.4 1938.18,-1256.97 1939.75,-1267.83"/>
</g>
<!-- 67395 -->
<g id="node31" class="node">
<title>67395</title>
<polygon fill="none" stroke="#00876c" points="1611.06,-1126.52 1611.06,-1141.44 1507.43,-1151.98 1360.88,-1151.98 1257.25,-1141.44 1257.25,-1126.52 1360.88,-1115.98 1507.43,-1115.98 1611.06,-1126.52"/>
<polygon fill="none" stroke="#00876c" points="1615.06,-1122.91 1615.06,-1145.05 1507.64,-1155.98 1360.68,-1155.98 1253.25,-1145.05 1253.25,-1122.91 1360.68,-1111.98 1507.64,-1111.98 1615.06,-1122.91"/>
<text text-anchor="middle" x="1434.16" y="-1128.93" font-family="Times,serif" font-size="14.00">scancode:LicenseRef&#45;scancode&#45;x11&#45;dec2</text>
</g>
<!-- 39547&#45;&gt;67395 -->
<g id="edge34" class="edge">
<title>39547&#45;&gt;67395</title>
<path fill="none" stroke="#00876c" stroke-width="2" d="M1800.65,-1241.46C1717.74,-1249.75 1667.03,-1232.62 1497.14,-1160.74"/>
<polygon fill="#00876c" stroke="#00876c" stroke-width="2" points="1489.09,-1157.33 1500.06,-1157.09 1491.65,-1157.87 1498.5,-1160.77 1498.3,-1161.23 1498.11,-1161.69 1491.26,-1158.79 1496.55,-1165.38 1489.09,-1157.33"/>
</g>
<!-- 41677 -->
<g id="node28" class="node">
<title>41677</title>
<ellipse fill="none" stroke="#379469" cx="1867.07" cy="-28.69" rx="159.28" ry="28.99"/>
<text text-anchor="middle" x="1867.07" y="-31.89" font-family="Times,serif" font-size="14.00" fill="gray">CavilLicenseChange</text>
<text text-anchor="middle" x="1867.07" y="-15.39" font-family="Times,serif" font-size="14.00" fill="gray">791579f0e90b95d9a18345e61a52a1da</text>
</g>
<!-- 41677&#45;&gt;41678 -->
<g id="edge35" class="edge">
<title>41677&#45;&gt;41678</title>
<path fill="none" stroke="#379469" d="M1844.98,-57.84C1788.73,-132.85 1777.06,-158.82 1691.31,-371.77"/>
<polygon fill="#379469" stroke="#379469" points="1688.09,-370.4 1687.61,-380.98 1694.59,-373.01 1688.09,-370.4"/>
</g>
<!-- 67394 -->
<g id="node30" class="node">
<title>67394</title>
<ellipse fill="none" stroke="#00876c" cx="1785.81" cy="-1078.14" rx="152.91" ry="28.99"/>
<text text-anchor="middle" x="1785.81" y="-1081.34" font-family="Times,serif" font-size="14.00" fill="gray">LicenseLynx</text>
<text text-anchor="middle" x="1785.81" y="-1064.84" font-family="Times,serif" font-size="14.00" fill="gray">4aca696fad874da4af985b0cca8bf3f4</text>
</g>
<!-- 67394&#45;&gt;2316 -->
<g id="edge36" class="edge">
<title>67394&#45;&gt;2316</title>
<path fill="none" stroke="#00876c" d="M1672.6,-1058.33C1545.96,-1036.99 1503.71,-1035.22 1440.34,-1052.46"/>
<polygon fill="#00876c" stroke="#00876c" points="1439.66,-1049.02 1430.99,-1055.11 1441.57,-1055.75 1439.66,-1049.02"/>
</g>
<!-- 67395&#45;&gt;2316 -->
<g id="edge37" class="edge">
<title>67395&#45;&gt;2316</title>
<path fill="none" stroke="#00876c" stroke-width="2" d="M1395.7,-1111.57C1394.44,-1110.73 1393.25,-1109.92 1392.13,-1109.12"/>
<polygon fill="#00876c" stroke="#00876c" stroke-width="2" points="1385.52,-1103.66 1396.1,-1106.56 1387.82,-1104.91 1393.55,-1109.65 1393.24,-1110.03 1392.92,-1110.42 1387.18,-1105.68 1390.37,-1113.5 1385.52,-1103.66"/>
</g>
<!-- 67396&#45;&gt;2316 -->
<g id="edge38" class="edge">
<title>67396&#45;&gt;2316</title>
<path fill="none" stroke="#00876c" stroke-width="2" d="M1162.21,-1358.89C1189.56,-1259.89 1200.24,-1243.88 1332.45,-1110.01"/>
<polygon fill="#00876c" stroke="#00876c" stroke-width="2" points="1338.37,-1104.02 1334.54,-1114.3 1336.92,-1106.2 1331.69,-1111.49 1331.34,-1111.14 1330.98,-1110.78 1336.21,-1105.49 1328.14,-1107.97 1338.37,-1104.02"/>
</g>
<!-- 67397&#45;&gt;2316 -->
<g id="edge39" class="edge">
<title>67397&#45;&gt;2316</title>
<path fill="none" stroke="#00876c" stroke-width="2" d="M1643.22,-925.62C1587.41,-944.52 1522.98,-981.5 1416.93,-1045.33"/>
<polygon fill="#00876c" stroke="#00876c" stroke-width="2" points="1409.64,-1049.72 1415.88,-1040.71 1411.58,-1047.97 1417.95,-1044.13 1418.2,-1044.56 1418.46,-1044.99 1412.09,-1048.83 1420.53,-1048.41 1409.64,-1049.72"/>
</g>
</g>
</svg>
