<?xml version="1.0" encoding="UTF-8" standalone="no"?>
<!DOCTYPE svg PUBLIC "-//W3C//DTD SVG 1.1//EN"
 "http://www.w3.org/Graphics/SVG/1.1/DTD/svg11.dtd">
<!-- Generated by graphviz version 10.0.1 (0)
 -->
<!-- Pages: 1 -->
<svg width="3948pt" height="2765pt"
 viewBox="0.00 0.00 3948.00 2765.00" xmlns="http://www.w3.org/2000/svg" xmlns:xlink="http://www.w3.org/1999/xlink">
<g id="graph0" class="graph" transform="scale(1 1) rotate(0) translate(4 2761)">
<polygon fill="white" stroke="none" points="-4,4 -4,-2761 3944,-2761 3944,4 -4,4"/>
<!-- 5 -->
<g id="node1" class="node">
<title>5</title>
<text text-anchor="start" x="1744.77" y="-251.41" font-family="Times,serif" font-size="14.00">OSI: </text>
<text text-anchor="start" x="1774.02" y="-251.41" font-family="Times,serif" font-weight="bold" font-size="14.00" fill="#8b0000">Rejected</text>
</g>
<!-- 2454 -->
<g id="node2" class="node">
<title>2454</title>
<ellipse fill="none" stroke="#dac767" cx="1768.78" cy="-642.75" rx="159.28" ry="28.99"/>
<text text-anchor="middle" x="1768.78" y="-645.95" font-family="Times,serif" font-size="14.00" fill="gray">SPDXLicense</text>
<text text-anchor="middle" x="1768.78" y="-629.45" font-family="Times,serif" font-size="14.00" fill="gray">17fc9597ed492730c7e3a058459e8717</text>
</g>
<!-- 5&#45;&gt;2454 -->
<g id="edge1" class="edge">
<title>5&#45;&gt;2454</title>
<path fill="none" stroke="#dac767" d="M1780.97,-273.17C1762,-368.32 1761.3,-385.64 1767.59,-602.09"/>
<polygon fill="#dac767" stroke="#dac767" points="1764.09,-602.16 1767.88,-612.05 1771.08,-601.96 1764.09,-602.16"/>
</g>
<!-- 2455 -->
<g id="node3" class="node">
<title>2455</title>
<polygon fill="none" stroke="black" points="1739.18,-1368.4 1739.18,-1383.31 1646.59,-1393.85 1515.64,-1393.85 1423.05,-1383.31 1423.05,-1368.4 1515.64,-1357.85 1646.59,-1357.85 1739.18,-1368.4"/>
<polygon fill="none" stroke="black" points="1743.18,-1364.83 1743.18,-1386.88 1646.82,-1397.85 1515.41,-1397.85 1419.05,-1386.88 1419.05,-1364.83 1515.41,-1353.85 1646.82,-1353.85 1743.18,-1364.83"/>
<polygon fill="none" stroke="black" points="1747.18,-1361.26 1747.18,-1390.45 1647.04,-1401.85 1515.19,-1401.85 1415.05,-1390.45 1415.05,-1361.26 1515.19,-1349.85 1647.04,-1349.85 1747.18,-1361.26"/>
<text text-anchor="middle" x="1581.11" y="-1370.8" font-family="Times,serif" font-size="14.00">spdx:HPND&#45;merchantability&#45;variant</text>
</g>
<!-- 2454&#45;&gt;2455 -->
<g id="edge2" class="edge">
<title>2454&#45;&gt;2455</title>
<path fill="none" stroke="#dac767" d="M1746.8,-671.76C1585.1,-885.72 1580.61,-909.51 1581.07,-1337.94"/>
<polygon fill="#dac767" stroke="#dac767" points="1577.57,-1337.92 1581.08,-1347.92 1584.57,-1337.92 1577.57,-1337.92"/>
</g>
<!-- 9625 -->
<g id="node14" class="node">
<title>9625</title>
<polygon fill="none" stroke="#e09d4b" points="2341.79,-1629.43 2341.79,-1644.34 2244.01,-1654.88 2105.72,-1654.88 2007.93,-1644.34 2007.93,-1629.43 2105.72,-1618.88 2244.01,-1618.88 2341.79,-1629.43"/>
<polygon fill="none" stroke="#e09d4b" points="2345.79,-1625.84 2345.79,-1647.93 2244.22,-1658.88 2105.5,-1658.88 2003.93,-1647.93 2003.93,-1625.84 2105.5,-1614.88 2244.22,-1614.88 2345.79,-1625.84"/>
<text text-anchor="middle" x="2174.86" y="-1631.83" font-family="Times,serif" font-size="14.00">Fedora:HPND&#45;merchantability&#45;variant</text>
</g>
<!-- 2455&#45;&gt;9625 -->
<g id="edge3" class="edge">
<title>2455&#45;&gt;9625</title>
<path fill="none" stroke="#e09d4b" stroke-width="2" d="M1605.75,-1402.11C1764.17,-1570.63 1804.15,-1604.26 1999.97,-1623.57"/>
<polygon fill="#e09d4b" stroke="#e09d4b" stroke-width="2" points="2008.51,-1624.39 1998.12,-1627.91 2005.91,-1624.64 1998.51,-1623.93 1998.55,-1623.43 1998.6,-1622.94 2006,-1623.65 1998.98,-1618.96 2008.51,-1624.39"/>
</g>
<!-- 29270 -->
<g id="node16" class="node">
<title>29270</title>
<polygon fill="none" stroke="black" points="1152.05,-992.67 1152.05,-1007.58 1077.31,-1018.12 971.6,-1018.12 896.85,-1007.58 896.85,-992.67 971.6,-982.12 1077.31,-982.12 1152.05,-992.67"/>
<polygon fill="none" stroke="black" points="1156.05,-989.19 1156.05,-1011.05 1077.59,-1022.12 971.32,-1022.12 892.85,-1011.05 892.85,-989.19 971.32,-978.12 1077.59,-978.12 1156.05,-989.19"/>
<text text-anchor="middle" x="1024.45" y="-995.07" font-family="Times,serif" font-size="14.00">scancode:codesourcery&#45;2004</text>
</g>
<!-- 2455&#45;&gt;29270 -->
<g id="edge4" class="edge">
<title>2455&#45;&gt;29270</title>
<path fill="none" stroke="#deb256" stroke-width="2" d="M1548.24,-1349.46C1454.37,-1281.05 1184.91,-1098.98 1073.52,-1028.46"/>
<polygon fill="#deb256" stroke="#deb256" stroke-width="2" points="1066.25,-1023.89 1077.11,-1025.41 1068.68,-1024.83 1074.98,-1028.79 1074.71,-1029.22 1074.44,-1029.64 1068.15,-1025.68 1072.31,-1033.02 1066.25,-1023.89"/>
</g>
<!-- 46400 -->
<g id="node30" class="node">
<title>46400</title>
<polygon fill="none" stroke="#379469" points="1297.92,-1443.99 1297.92,-1458.9 1217.01,-1469.45 1102.58,-1469.45 1021.67,-1458.9 1021.67,-1443.99 1102.58,-1433.45 1217.01,-1433.45 1297.92,-1443.99"/>
<polygon fill="none" stroke="#379469" points="1301.92,-1440.48 1301.92,-1462.42 1217.27,-1473.45 1102.32,-1473.45 1017.67,-1462.42 1017.67,-1440.48 1102.32,-1429.45 1217.27,-1429.45 1301.92,-1440.48"/>
<text text-anchor="middle" x="1159.8" y="-1446.4" font-family="Times,serif" font-size="14.00">metaeffekt:CodeSourcery&#45;2004</text>
</g>
<!-- 2455&#45;&gt;46400 -->
<g id="edge5" class="edge">
<title>2455&#45;&gt;46400</title>
<path fill="none" stroke="#379469" stroke-width="2" d="M1450.12,-1394.87C1341.18,-1410.86 1294.93,-1418.52 1248.18,-1429.18"/>
<polygon fill="#379469" stroke="#379469" stroke-width="2" points="1239.91,-1431.1 1248.63,-1424.45 1242.29,-1430.03 1249.53,-1428.35 1249.65,-1428.84 1249.76,-1429.32 1242.52,-1431.01 1250.67,-1433.22 1239.91,-1431.1"/>
</g>
<!-- 2456 -->
<g id="node4" class="node">
<title>2456</title>
<polygon fill="none" stroke="black" points="1844.33,-1790.25 1844.33,-1805.17 1764.39,-1815.71 1651.34,-1815.71 1571.4,-1805.17 1571.4,-1790.25 1651.34,-1779.71 1764.39,-1779.71 1844.33,-1790.25"/>
<polygon fill="none" stroke="black" points="1848.33,-1786.75 1848.33,-1808.67 1764.65,-1819.71 1651.08,-1819.71 1567.4,-1808.67 1567.4,-1786.75 1651.08,-1775.71 1764.65,-1775.71 1848.33,-1786.75"/>
<text text-anchor="middle" x="1707.86" y="-1792.66" font-family="Times,serif" font-size="14.00">HPND&#45;merchantability&#45;variant</text>
</g>
<!-- 2456&#45;&gt;2455 -->
<g id="edge6" class="edge">
<title>2456&#45;&gt;2455</title>
<path fill="none" stroke="black" stroke-width="2" d="M1689.04,-1775.32C1576.67,-1641.26 1571.09,-1623.53 1579.56,-1413.43"/>
<polygon fill="black" stroke="black" stroke-width="2" points="1579.91,-1404.73 1584,-1414.91 1580.31,-1407.31 1580.01,-1414.74 1579.51,-1414.72 1579.01,-1414.7 1579.31,-1407.27 1575.01,-1414.54 1579.91,-1404.73"/>
</g>
<!-- 2456&#45;&gt;9625 -->
<g id="edge7" class="edge">
<title>2456&#45;&gt;9625</title>
<path fill="none" stroke="#e09d4b" stroke-width="2" d="M1848.8,-1805.23C1942.32,-1803.19 1989.81,-1773.3 2135.68,-1665.83"/>
<polygon fill="#e09d4b" stroke="#e09d4b" stroke-width="2" points="2142.55,-1660.76 2137.17,-1670.32 2140.79,-1662.68 2134.8,-1667.1 2134.5,-1666.7 2134.21,-1666.29 2140.19,-1661.88 2131.83,-1663.07 2142.55,-1660.76"/>
</g>
<!-- 41702 -->
<g id="node28" class="node">
<title>41702</title>
<polygon fill="none" stroke="#379469" points="2212.99,-2269.7 2212.99,-2284.61 2120.07,-2295.16 1988.66,-2295.16 1895.74,-2284.61 1895.74,-2269.7 1988.66,-2259.16 2120.07,-2259.16 2212.99,-2269.7"/>
<polygon fill="none" stroke="#379469" points="2216.99,-2266.13 2216.99,-2288.18 2120.29,-2299.16 1988.43,-2299.16 1891.74,-2288.18 1891.74,-2266.13 1988.43,-2255.16 2120.29,-2255.16 2216.99,-2266.13"/>
<text text-anchor="middle" x="2054.36" y="-2272.11" font-family="Times,serif" font-size="14.00">cavil:HPND&#45;merchantability&#45;variant</text>
</g>
<!-- 2456&#45;&gt;41702 -->
<g id="edge8" class="edge">
<title>2456&#45;&gt;41702</title>
<path fill="none" stroke="#379469" stroke-width="2" d="M1717.69,-1819.98C1852.75,-2126.1 1867.59,-2154.42 2010.64,-2248.69"/>
<polygon fill="#379469" stroke="#379469" stroke-width="2" points="2017.76,-2253.36 2006.93,-2251.63 2015.34,-2252.37 2009.13,-2248.29 2009.4,-2247.87 2009.68,-2247.45 2015.89,-2251.53 2011.87,-2244.11 2017.76,-2253.36"/>
</g>
<!-- 2456&#45;&gt;46400 -->
<g id="edge9" class="edge">
<title>2456&#45;&gt;46400</title>
<path fill="none" stroke="#379469" stroke-dasharray="5,2" d="M1639.35,-1776.85C1332.13,-1682.91 1308.08,-1666.17 1181.47,-1482.92"/>
<polygon fill="#379469" stroke="#379469" points="1175.85,-1474.78 1185.23,-1480.46 1178,-1477.9 1181.53,-1483.02 1181.53,-1483.02 1181.53,-1483.02 1178,-1477.9 1177.83,-1485.57 1175.85,-1474.78"/>
</g>
<!-- 2457 -->
<g id="node5" class="node">
<title>2457</title>
<polygon fill="none" stroke="black" points="1951.26,-1424.44 1951.26,-1439.35 1778.51,-1449.89 1534.2,-1449.89 1361.46,-1439.35 1361.46,-1424.44 1534.2,-1413.89 1778.51,-1413.89 1951.26,-1424.44"/>
<polygon fill="none" stroke="black" points="1955.26,-1420.67 1955.26,-1443.11 1778.63,-1453.89 1534.08,-1453.89 1357.46,-1443.11 1357.46,-1420.67 1534.08,-1409.89 1778.63,-1409.89 1955.26,-1420.67"/>
<text text-anchor="middle" x="1656.36" y="-1426.84" font-family="Times,serif" font-size="14.00">Historical Permission Notice and Disclaimer &#45; merchantability variant</text>
</g>
<!-- 2457&#45;&gt;2455 -->
<g id="edge10" class="edge">
<title>2457&#45;&gt;2455</title>
<path fill="none" stroke="#dac767" stroke-width="2" d="M1611.64,-1409.51C1611.13,-1409.2 1610.63,-1408.9 1610.15,-1408.59"/>
<polygon fill="#dac767" stroke="#dac767" stroke-width="2" points="1603.37,-1403.68 1614.11,-1405.9 1605.74,-1404.78 1611.76,-1409.14 1611.47,-1409.55 1611.18,-1409.95 1605.15,-1405.59 1608.83,-1413.19 1603.37,-1403.68"/>
</g>
<!-- 2457&#45;&gt;46400 -->
<g id="edge11" class="edge">
<title>2457&#45;&gt;46400</title>
<path fill="none" stroke="#379469" stroke-dasharray="5,2" d="M1406.27,-1446.56C1367.99,-1448.6 1338.83,-1449.92 1313.18,-1450.74"/>
<polygon fill="#379469" stroke="#379469" points="1303.23,-1451.04 1313.09,-1446.24 1307.01,-1450.93 1313.22,-1450.74 1313.22,-1450.74 1313.22,-1450.74 1307.01,-1450.93 1313.36,-1455.24 1303.23,-1451.04"/>
</g>
<!-- 67462 -->
<g id="node36" class="node">
<title>67462</title>
<polygon fill="none" stroke="#00876c" points="2608.11,-1249.62 2608.11,-1264.53 2422.7,-1275.08 2160.5,-1275.08 1975.1,-1264.53 1975.1,-1249.62 2160.5,-1239.08 2422.7,-1239.08 2608.11,-1249.62"/>
<polygon fill="none" stroke="#00876c" points="2612.11,-1245.84 2612.11,-1268.31 2422.82,-1279.08 2160.39,-1279.08 1971.1,-1268.31 1971.1,-1245.84 2160.39,-1235.08 2422.82,-1235.08 2612.11,-1245.84"/>
<text text-anchor="middle" x="2291.6" y="-1252.03" font-family="Times,serif" font-size="14.00">spdx:Historical Permission Notice and Disclaimer &#45; merchantability variant</text>
</g>
<!-- 2457&#45;&gt;67462 -->
<g id="edge12" class="edge">
<title>2457&#45;&gt;67462</title>
<path fill="none" stroke="#00876c" stroke-width="2" d="M1690.26,-1409.67C1818.47,-1325.74 1893.66,-1278.01 1960.63,-1254.17"/>
<polygon fill="#00876c" stroke="#00876c" stroke-width="2" points="1968.58,-1251.47 1960.56,-1258.95 1966.31,-1252.77 1959.27,-1255.16 1959.11,-1254.69 1958.95,-1254.22 1965.99,-1251.83 1957.66,-1250.43 1968.58,-1251.47"/>
</g>
<!-- 2458 -->
<g id="node6" class="node">
<title>2458</title>
<text text-anchor="middle" x="1892.96" y="-39.86" font-family="Times,serif" font-size="14.00">SPDXLicense:</text>
<text text-anchor="middle" x="1892.96" y="-23.36" font-family="Times,serif" font-size="14.00">This is similar to the HPND grant and short disclaimer, but adds a specific</text>
<text text-anchor="middle" x="1892.96" y="-6.86" font-family="Times,serif" font-size="14.00">disclaimer as to merchantability and fitness for a particular purpose.</text>
</g>
<!-- 2458&#45;&gt;2454 -->
<g id="edge13" class="edge">
<title>2458&#45;&gt;2454</title>
<path fill="none" stroke="#dac767" d="M1880.74,-56.87C1816.45,-207.25 1812.04,-233.22 1773.08,-601.98"/>
<polygon fill="#dac767" stroke="#dac767" points="1769.62,-601.46 1772.05,-611.77 1776.58,-602.19 1769.62,-601.46"/>
</g>
<!-- 2459 -->
<g id="node7" class="node">
<title>2459</title>
<text text-anchor="middle" x="2097.24" y="-335.06" font-family="Times,serif" font-size="14.00">$TEXT</text>
</g>
<!-- 2459&#45;&gt;2454 -->
<g id="edge14" class="edge">
<title>2459&#45;&gt;2454</title>
<path fill="none" stroke="#dac767" d="M2068.94,-350.6C1937.17,-399.87 1921.29,-414.74 1794.6,-604.08"/>
<polygon fill="#dac767" stroke="#dac767" points="1791.78,-602.01 1789.13,-612.26 1797.59,-605.9 1791.78,-602.01"/>
</g>
<!-- 2460 -->
<g id="node8" class="node">
<title>2460</title>
<text text-anchor="middle" x="2275.22" y="-164.87" font-family="Times,serif" font-size="14.00">$TEXT</text>
</g>
<!-- 2460&#45;&gt;2459 -->
<g id="edge15" class="edge">
<title>2460&#45;&gt;2459</title>
<path fill="none" stroke="#dac767" d="M2246.91,-183.18C2198.18,-206.92 2184.49,-221.97 2117.02,-313.27"/>
<polygon fill="#dac767" stroke="#dac767" points="2114.34,-311.01 2111.22,-321.13 2119.98,-315.16 2114.34,-311.01"/>
</g>
<!-- 2461 -->
<g id="node9" class="node">
<title>2461</title>
<text text-anchor="middle" x="1210.02" y="-257.88" font-family="Times,serif" font-size="14.00">https://sourceware.org/git/?p=newlib&#45;cygwin.git;a=blob;f=newlib/libc/misc/fini.c;hb=HEAD</text>
</g>
<!-- 2461&#45;&gt;2454 -->
<g id="edge16" class="edge">
<title>2461&#45;&gt;2454</title>
<path fill="none" stroke="#dac767" d="M1265.28,-280.9C1422.73,-333.14 1455.99,-359.28 1728.97,-606.65"/>
<polygon fill="#dac767" stroke="#dac767" points="1726.23,-608.89 1735.99,-613.02 1730.93,-603.71 1726.23,-608.89"/>
</g>
<!-- 29269 -->
<g id="node15" class="node">
<title>29269</title>
<ellipse fill="none" stroke="#deb256" cx="631.43" cy="-479.64" rx="160.34" ry="28.99"/>
<text text-anchor="middle" x="631.43" y="-482.84" font-family="Times,serif" font-size="14.00" fill="gray">ScancodeData</text>
<text text-anchor="middle" x="631.43" y="-466.34" font-family="Times,serif" font-size="14.00" fill="gray">9d332b772bad5319224769d71d4ff793</text>
</g>
<!-- 2461&#45;&gt;29269 -->
<g id="edge17" class="edge">
<title>2461&#45;&gt;29269</title>
<path fill="none" stroke="#deb256" d="M972.95,-280.9C831.07,-298.39 785.26,-331.72 669.14,-443.21"/>
<polygon fill="#deb256" stroke="#deb256" points="666.89,-440.51 662.11,-449.97 671.75,-445.56 666.89,-440.51"/>
</g>
<!-- 5550 -->
<g id="node10" class="node">
<title>5550</title>
<text text-anchor="middle" x="207.25" y="-350.22" font-family="Times,serif" font-size="14.00">LicenseType Permissive</text>
</g>
<!-- 5550&#45;&gt;29269 -->
<g id="edge18" class="edge">
<title>5550&#45;&gt;29269</title>
<path fill="none" stroke="#deb256" d="M281.9,-364.58C347.84,-374.56 393.51,-389.86 550.83,-449.16"/>
<polygon fill="#deb256" stroke="#deb256" points="549.34,-452.34 559.93,-452.6 551.81,-445.79 549.34,-452.34"/>
</g>
<!-- 6592 -->
<g id="node11" class="node">
<title>6592</title>
<text text-anchor="middle" x="3248.52" y="-1798.96" font-family="Times,serif" font-size="14.00">[&quot;allowed&quot;]</text>
</g>
<!-- 9624 -->
<g id="node13" class="node">
<title>9624</title>
<ellipse fill="none" stroke="#e09d4b" cx="2825.34" cy="-1743.66" rx="156.09" ry="28.99"/>
<text text-anchor="middle" x="2825.34" y="-1746.86" font-family="Times,serif" font-size="14.00" fill="gray">FedoraEntry</text>
<text text-anchor="middle" x="2825.34" y="-1730.36" font-family="Times,serif" font-size="14.00" fill="gray">1788defa8b6697d381c46af782c9b9af</text>
</g>
<!-- 6592&#45;&gt;9624 -->
<g id="edge19" class="edge">
<title>6592&#45;&gt;9624</title>
<path fill="none" stroke="#e09d4b" d="M3208.93,-1803.79C3130.2,-1802.97 3096.77,-1798.8 2942,-1767.5"/>
<polygon fill="#e09d4b" stroke="#e09d4b" points="2943.11,-1764.16 2932.62,-1765.6 2941.72,-1771.02 2943.11,-1764.16"/>
</g>
<!-- 6593 -->
<g id="node12" class="node">
<title>6593</title>
<text text-anchor="start" x="3672.56" y="-1911.24" font-family="Times,serif" font-size="14.00">Fedora: </text>
<text text-anchor="start" x="3717.56" y="-1911.24" font-family="Times,serif" font-weight="bold" font-size="14.00" fill="#228b22">allowed</text>
<text text-anchor="start" x="3508.68" y="-1897.24" font-family="Times,serif" font-size="14.00">A license is allowed if Fedora determines that the license is a free software /</text>
<text text-anchor="start" x="3503.43" y="-1883.24" font-family="Times,serif" font-size="14.00">open source license. At a high level, the inquiry involves determining whether</text>
<text text-anchor="start" x="3502.31" y="-1869.24" font-family="Times,serif" font-size="14.00">the license provides software freedom, and (equivalently) making sure that the</text>
<text text-anchor="start" x="3512.43" y="-1855.24" font-family="Times,serif" font-size="14.00">license does not place burdens on users&#39; exercise of its permissions that are</text>
<text text-anchor="start" x="3512.06" y="-1841.24" font-family="Times,serif" font-size="14.00">inconsistent with evolving community norms and traditions around what is</text>
<text text-anchor="start" x="3503.81" y="-1827.24" font-family="Times,serif" font-size="14.00">acceptable in a free software / open source license. See below for more on the</text>
<text text-anchor="start" x="3623.81" y="-1813.24" font-family="Times,serif" font-size="14.00">history of Fedora licensing policy.</text>
</g>
<!-- 6593&#45;&gt;6592 -->
<g id="edge20" class="edge">
<title>6593&#45;&gt;6592</title>
<path fill="none" stroke="#e09d4b" d="M3494.66,-1847.8C3448.44,-1840.24 3387.75,-1829.33 3299.39,-1813.26"/>
<polygon fill="#e09d4b" stroke="#e09d4b" points="3300.14,-1809.84 3289.67,-1811.5 3298.89,-1816.73 3300.14,-1809.84"/>
</g>
<!-- 9624&#45;&gt;9625 -->
<g id="edge21" class="edge">
<title>9624&#45;&gt;9625</title>
<path fill="none" stroke="#e09d4b" d="M2671.62,-1749.16C2582.89,-1746.16 2498.83,-1725.37 2264.04,-1661.29"/>
<polygon fill="#e09d4b" stroke="#e09d4b" points="2265.13,-1657.96 2254.57,-1658.7 2263.29,-1664.71 2265.13,-1657.96"/>
</g>
<!-- 29269&#45;&gt;29270 -->
<g id="edge22" class="edge">
<title>29269&#45;&gt;29270</title>
<path fill="none" stroke="#deb256" d="M643.77,-508.91C712.49,-671.31 729.18,-691.86 995.05,-969.44"/>
<polygon fill="#deb256" stroke="#deb256" points="992.5,-971.83 1001.94,-976.63 997.55,-966.99 992.5,-971.83"/>
</g>
<!-- 29270&#45;&gt;2455 -->
<g id="edge23" class="edge">
<title>29270&#45;&gt;2455</title>
<path fill="none" stroke="#00876c" stroke-width="2" d="M1051.79,-1022.47C1138.54,-1086.29 1408.54,-1268.9 1525.83,-1343.56"/>
<polygon fill="#00876c" stroke="#00876c" stroke-width="2" points="1532.95,-1348.08 1522.1,-1346.53 1530.52,-1347.13 1524.24,-1343.15 1524.51,-1342.73 1524.78,-1342.3 1531.06,-1346.29 1526.92,-1338.93 1532.95,-1348.08"/>
</g>
<!-- 29270&#45;&gt;46400 -->
<g id="edge24" class="edge">
<title>29270&#45;&gt;46400</title>
<path fill="none" stroke="#379469" stroke-dasharray="5,2" d="M1021.76,-1022.6C1000.56,-1201.09 1004.76,-1217.39 1138.82,-1419.83"/>
<polygon fill="#379469" stroke="#379469" points="1144.21,-1427.97 1134.94,-1422.12 1142.13,-1424.81 1138.69,-1419.63 1138.69,-1419.63 1138.69,-1419.63 1142.13,-1424.81 1142.44,-1417.15 1144.21,-1427.97"/>
</g>
<!-- 29271 -->
<g id="node17" class="node">
<title>29271</title>
<polygon fill="none" stroke="black" points="902.37,-1174.35 902.37,-1189.26 850.67,-1199.8 777.55,-1199.8 725.84,-1189.26 725.84,-1174.35 777.55,-1163.8 850.67,-1163.8 902.37,-1174.35"/>
<polygon fill="none" stroke="black" points="906.37,-1171.08 906.37,-1192.53 851.07,-1203.8 777.14,-1203.8 721.84,-1192.53 721.84,-1171.08 777.14,-1159.8 851.07,-1159.8 906.37,-1171.08"/>
<text text-anchor="middle" x="814.11" y="-1176.75" font-family="Times,serif" font-size="14.00">codesourcery&#45;2004</text>
</g>
<!-- 29271&#45;&gt;29270 -->
<g id="edge25" class="edge">
<title>29271&#45;&gt;29270</title>
<path fill="none" stroke="black" stroke-width="2" d="M825.08,-1159.45C860.46,-1088.18 873.8,-1073.77 967.87,-1027.47"/>
<polygon fill="black" stroke="black" stroke-width="2" points="975.66,-1023.65 968.66,-1032.09 973.58,-1025.23 966.9,-1028.5 966.68,-1028.05 966.46,-1027.6 973.14,-1024.33 964.7,-1024.01 975.66,-1023.65"/>
</g>
<!-- 29271&#45;&gt;46400 -->
<g id="edge26" class="edge">
<title>29271&#45;&gt;46400</title>
<path fill="none" stroke="#379469" stroke-width="2" d="M828.97,-1204.27C895.05,-1303.57 912.88,-1317.97 1108.44,-1423.74"/>
<polygon fill="#379469" stroke="#379469" stroke-width="2" points="1116.05,-1427.85 1105.11,-1427.05 1113.56,-1427.07 1107.01,-1423.54 1107.25,-1423.1 1107.49,-1422.66 1114.03,-1426.19 1109.39,-1419.14 1116.05,-1427.85"/>
</g>
<!-- 29272 -->
<g id="node18" class="node">
<title>29272</title>
<polygon fill="none" stroke="black" points="940.28,-1316.74 940.28,-1331.66 886.63,-1342.2 810.75,-1342.2 757.1,-1331.66 757.1,-1316.74 810.75,-1306.2 886.63,-1306.2 940.28,-1316.74"/>
<polygon fill="none" stroke="black" points="944.28,-1313.45 944.28,-1334.95 887.02,-1346.2 810.36,-1346.2 753.1,-1334.95 753.1,-1313.45 810.36,-1302.2 887.02,-1302.2 944.28,-1313.45"/>
<text text-anchor="middle" x="848.69" y="-1319.15" font-family="Times,serif" font-size="14.00">CodeSourcery 2004</text>
</g>
<!-- 29272&#45;&gt;29270 -->
<g id="edge27" class="edge">
<title>29272&#45;&gt;29270</title>
<path fill="none" stroke="#deb256" stroke-width="2" d="M850.69,-1301.84C863.65,-1158.55 870.37,-1142.39 992.05,-1029.93"/>
<polygon fill="#deb256" stroke="#deb256" stroke-width="2" points="998.44,-1024.03 994.14,-1034.12 996.9,-1026.14 991.43,-1031.18 991.09,-1030.81 990.75,-1030.45 996.22,-1025.4 988.04,-1027.51 998.44,-1024.03"/>
</g>
<!-- 29272&#45;&gt;46400 -->
<g id="edge28" class="edge">
<title>29272&#45;&gt;46400</title>
<path fill="none" stroke="#379469" stroke-dasharray="5,2" d="M879.53,-1346.42C930.72,-1382.44 956.84,-1393.37 1076.8,-1427.87"/>
<polygon fill="#379469" stroke="#379469" points="1086.36,-1430.61 1075.5,-1432.18 1082.72,-1429.57 1076.74,-1427.85 1076.74,-1427.85 1076.74,-1427.85 1082.72,-1429.57 1077.98,-1423.53 1086.36,-1430.61"/>
</g>
<!-- 46401 -->
<g id="node31" class="node">
<title>46401</title>
<polygon fill="none" stroke="#379469" points="798.4,-1526.12 798.4,-1541.03 717.81,-1551.58 603.84,-1551.58 523.26,-1541.03 523.26,-1526.12 603.84,-1515.58 717.81,-1515.58 798.4,-1526.12"/>
<polygon fill="none" stroke="#379469" points="802.4,-1522.61 802.4,-1544.54 718.07,-1555.58 603.58,-1555.58 519.26,-1544.54 519.26,-1522.61 603.58,-1511.58 718.07,-1511.58 802.4,-1522.61"/>
<text text-anchor="middle" x="660.83" y="-1528.53" font-family="Times,serif" font-size="14.00">metaeffekt:CodeSourcery 2004</text>
</g>
<!-- 29272&#45;&gt;46401 -->
<g id="edge29" class="edge">
<title>29272&#45;&gt;46401</title>
<path fill="none" stroke="#379469" stroke-width="2" d="M817.29,-1346.62C713.64,-1420.83 698.31,-1435.79 673.01,-1501.02"/>
<polygon fill="#379469" stroke="#379469" stroke-width="2" points="669.89,-1509.21 669.25,-1498.26 670.34,-1506.63 672.99,-1499.68 673.45,-1499.86 673.92,-1500.04 671.27,-1506.99 677.66,-1501.47 669.89,-1509.21"/>
</g>
<!-- 67460 -->
<g id="node34" class="node">
<title>67460</title>
<polygon fill="none" stroke="#00876c" points="1250.33,-1553.17 1250.33,-1568.08 1173.63,-1578.62 1065.17,-1578.62 988.48,-1568.08 988.48,-1553.17 1065.17,-1542.62 1173.63,-1542.62 1250.33,-1553.17"/>
<polygon fill="none" stroke="#00876c" points="1254.33,-1549.68 1254.33,-1571.56 1173.91,-1582.62 1064.9,-1582.62 984.48,-1571.56 984.48,-1549.68 1064.9,-1538.62 1173.91,-1538.62 1254.33,-1549.68"/>
<text text-anchor="middle" x="1119.4" y="-1555.57" font-family="Times,serif" font-size="14.00">scancode:CodeSourcery 2004</text>
</g>
<!-- 29272&#45;&gt;67460 -->
<g id="edge30" class="edge">
<title>29272&#45;&gt;67460</title>
<path fill="none" stroke="#00876c" stroke-width="2" d="M860.27,-1346.49C908.15,-1437.93 922.92,-1452.23 1068.87,-1532.85"/>
<polygon fill="#00876c" stroke="#00876c" stroke-width="2" points="1076.55,-1537.08 1065.62,-1536.19 1074.06,-1536.28 1067.55,-1532.69 1067.79,-1532.25 1068.03,-1531.81 1074.54,-1535.41 1069.96,-1528.31 1076.55,-1537.08"/>
</g>
<!-- 29273 -->
<g id="node19" class="node">
<title>29273</title>
<text text-anchor="middle" x="193.36" y="-57.47" font-family="Times,serif" font-size="14.00">https://git.linaro.org/toolchain/newlib.git/tree/newlib/libc/misc/init.c</text>
</g>
<!-- 29273&#45;&gt;29269 -->
<g id="edge31" class="edge">
<title>29273&#45;&gt;29269</title>
<path fill="none" stroke="#deb256" d="M208.9,-80.38C309.48,-195.85 326.58,-212.13 590.55,-443.77"/>
<polygon fill="#deb256" stroke="#deb256" points="587.87,-446.08 597.7,-450.04 592.49,-440.82 587.87,-446.08"/>
</g>
<!-- 29274 -->
<g id="node20" class="node">
<title>29274</title>
<text text-anchor="middle" x="467.7" y="-127.34" font-family="Times,serif" font-size="14.00">$TEXT</text>
</g>
<!-- 29274&#45;&gt;29269 -->
<g id="edge32" class="edge">
<title>29274&#45;&gt;29269</title>
<path fill="none" stroke="#deb256" d="M470.59,-150.17C487.45,-253.05 494.36,-268.71 606.29,-440.99"/>
<polygon fill="#deb256" stroke="#deb256" points="603.19,-442.64 611.57,-449.12 609.06,-438.83 603.19,-442.64"/>
</g>
<!-- 35432 -->
<g id="node21" class="node">
<title>35432</title>
<text text-anchor="middle" x="856.43" y="-2524.07" font-family="Times,serif" font-size="14.00">LicenseTag (ScopedLicenseTag &quot;OrtLicenseCategorization&quot; &quot;permissive&quot; NoLicenseTagText)</text>
</g>
<!-- 35749 -->
<g id="node23" class="node">
<title>35749</title>
<ellipse fill="none" stroke="#d43d51" cx="1118.36" cy="-1948.61" rx="162.46" ry="28.99"/>
<text text-anchor="middle" x="1118.36" y="-1951.81" font-family="Times,serif" font-size="14.00" fill="gray">OrtLicenseCategorization</text>
<text text-anchor="middle" x="1118.36" y="-1935.31" font-family="Times,serif" font-size="14.00" fill="gray">4013577a402b25d94044c00b850e7929</text>
</g>
<!-- 35432&#45;&gt;35749 -->
<g id="edge33" class="edge">
<title>35432&#45;&gt;35749</title>
<path fill="none" stroke="#d43d51" d="M859.49,-2511.21C890.57,-2329.44 897.8,-2312.67 1094.75,-1987.57"/>
<polygon fill="#d43d51" stroke="#d43d51" points="1097.66,-1989.52 1099.85,-1979.15 1091.67,-1985.89 1097.66,-1989.52"/>
</g>
<!-- 36693 -->
<g id="node24" class="node">
<title>36693</title>
<ellipse fill="none" stroke="#d43d51" cx="410.92" cy="-2489.13" rx="156.62" ry="28.99"/>
<text text-anchor="middle" x="410.92" y="-2492.33" font-family="Times,serif" font-size="14.00" fill="gray">OrtLicenseCategorization</text>
<text text-anchor="middle" x="410.92" y="-2475.83" font-family="Times,serif" font-size="14.00" fill="gray">3781e8f9c3727735a2ea14ae4354ab5f</text>
</g>
<!-- 35432&#45;&gt;36693 -->
<g id="edge34" class="edge">
<title>35432&#45;&gt;36693</title>
<path fill="none" stroke="#d43d51" d="M711.65,-2547.1C590.56,-2560.28 549.84,-2555.1 476.65,-2521.41"/>
<polygon fill="#d43d51" stroke="#d43d51" points="478.5,-2518.41 467.96,-2517.34 475.53,-2524.75 478.5,-2518.41"/>
</g>
<!-- 35433 -->
<g id="node22" class="node">
<title>35433</title>
<text text-anchor="middle" x="519.55" y="-2416.71" font-family="Times,serif" font-size="14.00">LicenseTag (ScopedLicenseTag &quot;OrtLicenseCategorization&quot; &quot;include&#45;in&#45;notice&#45;file&quot; NoLicenseTagText)</text>
</g>
<!-- 35433&#45;&gt;35749 -->
<g id="edge35" class="edge">
<title>35433&#45;&gt;35749</title>
<path fill="none" stroke="#d43d51" d="M540.17,-2404.15C688.6,-2277.42 709.84,-2260.67 1072.16,-1983.9"/>
<polygon fill="#d43d51" stroke="#d43d51" points="1074.03,-1986.87 1079.85,-1978.02 1069.78,-1981.31 1074.03,-1986.87"/>
</g>
<!-- 35433&#45;&gt;36693 -->
<g id="edge36" class="edge">
<title>35433&#45;&gt;36693</title>
<path fill="none" stroke="#d43d51" d="M492.02,-2439.55C482.38,-2445.78 474.5,-2450.85 467.83,-2455.11"/>
<polygon fill="#d43d51" stroke="#d43d51" points="466.12,-2452.06 459.56,-2460.38 469.88,-2457.96 466.12,-2452.06"/>
</g>
<!-- 35749&#45;&gt;2455 -->
<g id="edge37" class="edge">
<title>35749&#45;&gt;2455</title>
<path fill="none" stroke="#d43d51" d="M1131.08,-1919.28C1213.58,-1729.64 1231.21,-1708.98 1545.77,-1409.49"/>
<polygon fill="#d43d51" stroke="#d43d51" points="1547.81,-1412.39 1552.64,-1402.96 1542.98,-1407.32 1547.81,-1412.39"/>
</g>
<!-- 36694 -->
<g id="node25" class="node">
<title>36694</title>
<polygon fill="none" stroke="#d43d51" points="1146.09,-2727.78 1146.09,-2742.7 1025.92,-2753.24 855.96,-2753.24 735.78,-2742.7 735.78,-2727.78 855.96,-2717.24 1025.92,-2717.24 1146.09,-2727.78"/>
<polygon fill="none" stroke="#d43d51" points="1150.09,-2724.12 1150.09,-2746.36 1026.09,-2757.24 855.78,-2757.24 731.78,-2746.36 731.78,-2724.12 855.78,-2713.24 1026.09,-2713.24 1150.09,-2724.12"/>
<text text-anchor="middle" x="940.94" y="-2730.19" font-family="Times,serif" font-size="14.00">SPDX:LicenseRef&#45;scancode&#45;codesourcery&#45;2004</text>
</g>
<!-- 36693&#45;&gt;36694 -->
<g id="edge38" class="edge">
<title>36693&#45;&gt;36694</title>
<path fill="none" stroke="#d43d51" d="M436.6,-2518.08C564.2,-2661.47 598.29,-2688.62 789.6,-2715.97"/>
<polygon fill="#d43d51" stroke="#d43d51" points="789.03,-2719.43 799.42,-2717.36 790.01,-2712.5 789.03,-2719.43"/>
</g>
<!-- 36695 -->
<g id="node26" class="node">
<title>36695</title>
<polygon fill="none" stroke="black" points="1603.27,-2327.19 1603.27,-2342.1 1499.64,-2352.65 1353.09,-2352.65 1249.46,-2342.1 1249.46,-2327.19 1353.09,-2316.65 1499.64,-2316.65 1603.27,-2327.19"/>
<polygon fill="none" stroke="black" points="1607.27,-2323.58 1607.27,-2345.72 1499.84,-2356.65 1352.88,-2356.65 1245.46,-2345.72 1245.46,-2323.58 1352.88,-2312.65 1499.84,-2312.65 1607.27,-2323.58"/>
<text text-anchor="middle" x="1426.36" y="-2329.6" font-family="Times,serif" font-size="14.00">LicenseRef&#45;scancode&#45;codesourcery&#45;2004</text>
</g>
<!-- 36695&#45;&gt;36694 -->
<g id="edge39" class="edge">
<title>36695&#45;&gt;36694</title>
<path fill="none" stroke="#d43d51" stroke-width="2" d="M1403.52,-2356.83C1144.5,-2608.29 1112.92,-2637.59 990.58,-2707.31"/>
<polygon fill="#d43d51" stroke="#d43d51" stroke-width="2" points="982.94,-2711.64 989.42,-2702.79 984.93,-2709.94 991.39,-2706.27 991.64,-2706.71 991.89,-2707.14 985.42,-2710.81 993.86,-2710.62 982.94,-2711.64"/>
</g>
<!-- 67461 -->
<g id="node35" class="node">
<title>67461</title>
<polygon fill="none" stroke="#00876c" points="1766.86,-2002.74 1766.86,-2017.65 1640.19,-2028.19 1461.05,-2028.19 1334.38,-2017.65 1334.38,-2002.74 1461.05,-1992.19 1640.19,-1992.19 1766.86,-2002.74"/>
<polygon fill="none" stroke="#00876c" points="1770.86,-1999.05 1770.86,-2021.33 1640.35,-2032.19 1460.89,-2032.19 1330.38,-2021.33 1330.38,-1999.05 1460.89,-1988.19 1640.35,-1988.19 1770.86,-1999.05"/>
<text text-anchor="middle" x="1550.62" y="-2005.14" font-family="Times,serif" font-size="14.00">scancode:LicenseRef&#45;scancode&#45;codesourcery&#45;2004</text>
</g>
<!-- 36695&#45;&gt;67461 -->
<g id="edge40" class="edge">
<title>36695&#45;&gt;67461</title>
<path fill="none" stroke="#00876c" stroke-width="2" d="M1432.06,-2312.28C1451.89,-2235.02 1459.3,-2216.49 1536.32,-2042.49"/>
<polygon fill="#00876c" stroke="#00876c" stroke-width="2" points="1539.77,-2034.68 1539.84,-2045.65 1539.19,-2037.23 1536.18,-2044.03 1535.73,-2043.83 1535.27,-2043.62 1538.28,-2036.82 1531.61,-2042 1539.77,-2034.68"/>
</g>
<!-- 41701 -->
<g id="node27" class="node">
<title>41701</title>
<ellipse fill="none" stroke="#379469" cx="2362.76" cy="-2726.27" rx="158.22" ry="28.99"/>
<text text-anchor="middle" x="2362.76" y="-2729.47" font-family="Times,serif" font-size="14.00" fill="gray">CavilLicenseChange</text>
<text text-anchor="middle" x="2362.76" y="-2712.97" font-family="Times,serif" font-size="14.00" fill="gray">db3c4b18ebdc5eba3245246aa454d0fa</text>
</g>
<!-- 41701&#45;&gt;41702 -->
<g id="edge41" class="edge">
<title>41701&#45;&gt;41702</title>
<path fill="none" stroke="#379469" d="M2330.91,-2697.59C2233.55,-2609.12 2216.82,-2581.24 2071.59,-2309.41"/>
<polygon fill="#379469" stroke="#379469" points="2074.88,-2308.14 2067.08,-2300.97 2068.71,-2311.44 2074.88,-2308.14"/>
</g>
<!-- 46399 -->
<g id="node29" class="node">
<title>46399</title>
<ellipse fill="none" stroke="#379469" cx="1333.16" cy="-1017.04" rx="156.09" ry="28.99"/>
<text text-anchor="middle" x="1333.16" y="-1020.24" font-family="Times,serif" font-size="14.00" fill="gray">MetaeffektLicense</text>
<text text-anchor="middle" x="1333.16" y="-1003.74" font-family="Times,serif" font-size="14.00" fill="gray">04df2f7862b8b82337f1e3495541c7fe</text>
</g>
<!-- 46399&#45;&gt;46400 -->
<g id="edge42" class="edge">
<title>46399&#45;&gt;46400</title>
<path fill="none" stroke="#379469" d="M1307.34,-1045.86C1162.85,-1207.51 1155.4,-1226.26 1159.09,-1417.61"/>
<polygon fill="#379469" stroke="#379469" points="1155.59,-1417.51 1159.29,-1427.44 1162.59,-1417.37 1155.59,-1417.51"/>
</g>
<!-- 46401&#45;&gt;46400 -->
<g id="edge43" class="edge">
<title>46401&#45;&gt;46400</title>
<path fill="none" stroke="#379469" stroke-width="2" d="M751.47,-1515.46C817.57,-1502.77 873.66,-1493.96 1041.45,-1469.01"/>
<polygon fill="#379469" stroke="#379469" stroke-width="2" points="1050,-1467.74 1040.77,-1473.66 1047.53,-1468.61 1040.18,-1469.7 1040.1,-1469.21 1040.03,-1468.71 1047.39,-1467.62 1039.44,-1464.76 1050,-1467.74"/>
</g>
<!-- 46402 -->
<g id="node32" class="node">
<title>46402</title>
<polygon fill="none" stroke="#379469" points="916.99,-1690.94 916.99,-1705.85 876.64,-1716.39 819.58,-1716.39 779.23,-1705.85 779.23,-1690.94 819.58,-1680.39 876.64,-1680.39 916.99,-1690.94"/>
<text text-anchor="middle" x="848.11" y="-1693.34" font-family="Times,serif" font-size="14.00">CodeSourcery</text>
</g>
<!-- 46402&#45;&gt;46400 -->
<g id="edge44" class="edge">
<title>46402&#45;&gt;46400</title>
<path fill="none" stroke="#379469" stroke-dasharray="5,2" d="M861.47,-1679.97C921.83,-1597.17 937.81,-1584.04 1112.58,-1479.61"/>
<polygon fill="#379469" stroke="#379469" points="1121.07,-1474.54 1114.79,-1483.53 1117.82,-1476.48 1112.48,-1479.67 1112.48,-1479.67 1112.48,-1479.67 1117.82,-1476.48 1110.18,-1475.8 1121.07,-1474.54"/>
</g>
<!-- 67459 -->
<g id="node33" class="node">
<title>67459</title>
<ellipse fill="none" stroke="#00876c" cx="2011.98" cy="-1129.84" rx="150.79" ry="28.99"/>
<text text-anchor="middle" x="2011.98" y="-1133.04" font-family="Times,serif" font-size="14.00" fill="gray">LicenseLynx</text>
<text text-anchor="middle" x="2011.98" y="-1116.54" font-family="Times,serif" font-size="14.00" fill="gray">87abfc976ec64dae0ffbee2f6962a8fc</text>
</g>
<!-- 67459&#45;&gt;2455 -->
<g id="edge45" class="edge">
<title>67459&#45;&gt;2455</title>
<path fill="none" stroke="#00876c" d="M1912.41,-1151.97C1729.81,-1193.94 1702.53,-1214.35 1607.49,-1340.58"/>
<polygon fill="#00876c" stroke="#00876c" points="1604.95,-1338.14 1601.74,-1348.24 1610.54,-1342.34 1604.95,-1338.14"/>
</g>
<!-- 67460&#45;&gt;2455 -->
<g id="edge46" class="edge">
<title>67460&#45;&gt;2455</title>
<path fill="none" stroke="#00876c" stroke-width="2" d="M1157.43,-1538.29C1244.67,-1487.59 1278.89,-1474.03 1492.84,-1404.48"/>
<polygon fill="#00876c" stroke="#00876c" stroke-width="2" points="1501.18,-1401.77 1493.06,-1409.14 1498.89,-1403.03 1491.82,-1405.33 1491.67,-1404.86 1491.51,-1404.38 1498.58,-1402.08 1490.27,-1400.58 1501.18,-1401.77"/>
</g>
<!-- 67461&#45;&gt;2455 -->
<g id="edge47" class="edge">
<title>67461&#45;&gt;2455</title>
<path fill="none" stroke="#00876c" stroke-width="2" d="M1542.67,-1987.79C1468.31,-1777.83 1469.2,-1759.34 1570.34,-1412.76"/>
<polygon fill="#00876c" stroke="#00876c" stroke-width="2" points="1572.75,-1404.48 1574.27,-1415.34 1572.51,-1407.08 1570.43,-1414.22 1569.95,-1414.08 1569.47,-1413.94 1571.55,-1406.8 1565.63,-1412.82 1572.75,-1404.48"/>
</g>
<!-- 67462&#45;&gt;2455 -->
<g id="edge48" class="edge">
<title>67462&#45;&gt;2455</title>
<path fill="none" stroke="#00876c" stroke-width="2" d="M2150.63,-1235.17C1883.42,-1195.74 1837.42,-1210.6 1630.99,-1343.56"/>
<polygon fill="#00876c" stroke="#00876c" stroke-width="2" points="1623.72,-1348.24 1629.69,-1339.04 1625.61,-1346.43 1631.85,-1342.4 1632.13,-1342.82 1632.4,-1343.24 1626.15,-1347.27 1634.56,-1346.6 1623.72,-1348.24"/>
</g>
</g>
</svg>
