<?xml version="1.0" encoding="UTF-8" standalone="no"?>
<!DOCTYPE svg PUBLIC "-//W3C//DTD SVG 1.1//EN"
 "http://www.w3.org/Graphics/SVG/1.1/DTD/svg11.dtd">
<!-- Generated by graphviz version 10.0.1 (0)
 -->
<!-- Pages: 1 -->
<svg width="1506pt" height="1270pt"
 viewBox="0.00 0.00 1506.00 1270.00" xmlns="http://www.w3.org/2000/svg" xmlns:xlink="http://www.w3.org/1999/xlink">
<g id="graph0" class="graph" transform="scale(1 1) rotate(0) translate(4 1266)">
<polygon fill="white" stroke="none" points="-4,4 -4,-1266 1502,-1266 1502,4 -4,4"/>
<!-- 2341 -->
<g id="node1" class="node">
<title>2341</title>
<ellipse fill="none" stroke="#b8bf62" cx="1318.53" cy="-564.33" rx="158.22" ry="28.99"/>
<text text-anchor="middle" x="1318.53" y="-567.53" font-family="Times,serif" font-size="14.00" fill="gray">SPDXLicense</text>
<text text-anchor="middle" x="1318.53" y="-551.03" font-family="Times,serif" font-size="14.00" fill="gray">917cf2410eed1714c1d70417977fd9a8</text>
</g>
<!-- 2342 -->
<g id="node2" class="node">
<title>2342</title>
<polygon fill="none" stroke="black" points="1055.98,-408.45 1055.98,-423.36 1004.27,-433.91 931.15,-433.91 879.45,-423.36 879.45,-408.45 931.15,-397.91 1004.27,-397.91 1055.98,-408.45"/>
<polygon fill="none" stroke="black" points="1059.98,-405.19 1059.98,-426.63 1004.68,-437.91 930.75,-437.91 875.45,-426.63 875.45,-405.19 930.75,-393.91 1004.68,-393.91 1059.98,-405.19"/>
<polygon fill="none" stroke="black" points="1063.98,-401.92 1063.98,-429.9 1005.08,-441.91 930.34,-441.91 871.45,-429.9 871.45,-401.92 930.34,-389.91 1005.08,-389.91 1063.98,-401.92"/>
<text text-anchor="middle" x="967.71" y="-410.86" font-family="Times,serif" font-size="14.00">spdx:Inner&#45;Net&#45;2.0</text>
</g>
<!-- 2341&#45;&gt;2342 -->
<g id="edge1" class="edge">
<title>2341&#45;&gt;2342</title>
<path fill="none" stroke="#b8bf62" d="M1288.28,-535.43C1224.83,-475.93 1197.76,-462.71 1063.43,-434.99"/>
<polygon fill="#b8bf62" stroke="#b8bf62" points="1064.25,-431.58 1053.75,-433 1062.85,-438.44 1064.25,-431.58"/>
</g>
<!-- 6815 -->
<g id="node6" class="node">
<title>6815</title>
<polygon fill="none" stroke="#e09d4b" points="729.67,-544.09 729.67,-559 672.77,-569.54 592.3,-569.54 535.41,-559 535.41,-544.09 592.3,-533.54 672.77,-533.54 729.67,-544.09"/>
<polygon fill="none" stroke="#e09d4b" points="733.67,-540.76 733.67,-562.33 673.14,-573.54 591.94,-573.54 531.41,-562.33 531.41,-540.76 591.94,-529.54 673.14,-529.54 733.67,-540.76"/>
<text text-anchor="middle" x="632.54" y="-546.49" font-family="Times,serif" font-size="14.00">Fedora:Inner&#45;Net&#45;2.0</text>
</g>
<!-- 2342&#45;&gt;6815 -->
<g id="edge2" class="edge">
<title>2342&#45;&gt;6815</title>
<path fill="none" stroke="#e09d4b" stroke-width="2" d="M871.18,-418.84C814.74,-425.87 777.41,-448.88 673.12,-522.71"/>
<polygon fill="#e09d4b" stroke="#e09d4b" stroke-width="2" points="666.15,-527.65 671.71,-518.2 667.95,-525.76 674.02,-521.46 674.31,-521.87 674.6,-522.28 668.53,-526.58 676.91,-525.54 666.15,-527.65"/>
</g>
<!-- 43644 -->
<g id="node19" class="node">
<title>43644</title>
<polygon fill="none" stroke="#00876c" points="725.67,-372.3 725.67,-387.21 640.54,-397.76 520.15,-397.76 435.02,-387.21 435.02,-372.3 520.15,-361.76 640.54,-361.76 725.67,-372.3"/>
<polygon fill="none" stroke="#00876c" points="729.67,-368.77 729.67,-390.75 640.79,-401.76 519.9,-401.76 431.02,-390.75 431.02,-368.77 519.9,-357.76 640.79,-357.76 729.67,-368.77"/>
<text text-anchor="middle" x="580.35" y="-374.71" font-family="Times,serif" font-size="14.00">metaeffekt:Inner Net License 2.0</text>
</g>
<!-- 2342&#45;&gt;43644 -->
<g id="edge3" class="edge">
<title>2342&#45;&gt;43644</title>
<path fill="none" stroke="#00876c" stroke-width="2" d="M920.14,-391.55C805.27,-333.48 773.31,-326.61 663.58,-355.95"/>
<polygon fill="#00876c" stroke="#00876c" stroke-width="2" points="655.42,-358.16 663.89,-351.2 657.76,-357.01 664.94,-355.06 665.07,-355.54 665.2,-356.02 658.02,-357.97 666.25,-359.88 655.42,-358.16"/>
</g>
<!-- 2343 -->
<g id="node3" class="node">
<title>2343</title>
<polygon fill="none" stroke="black" points="884.16,-595.85 884.16,-610.77 845.11,-621.31 789.88,-621.31 750.83,-610.77 750.83,-595.85 789.88,-585.31 845.11,-585.31 884.16,-595.85"/>
<polygon fill="none" stroke="black" points="888.16,-592.79 888.16,-613.83 845.64,-625.31 789.35,-625.31 746.83,-613.83 746.83,-592.79 789.35,-581.31 845.64,-581.31 888.16,-592.79"/>
<text text-anchor="middle" x="817.5" y="-598.26" font-family="Times,serif" font-size="14.00">Inner&#45;Net&#45;2.0</text>
</g>
<!-- 2343&#45;&gt;2342 -->
<g id="edge4" class="edge">
<title>2343&#45;&gt;2342</title>
<path fill="none" stroke="black" stroke-width="2" d="M837.47,-581.02C906.93,-503.48 925.23,-482.38 945.53,-451.4"/>
<polygon fill="black" stroke="black" stroke-width="2" points="950.04,-444.4 948.41,-455.24 949.07,-446.83 945.05,-453.08 944.63,-452.81 944.21,-452.54 948.23,-446.28 940.84,-450.38 950.04,-444.4"/>
</g>
<!-- 2343&#45;&gt;6815 -->
<g id="edge5" class="edge">
<title>2343&#45;&gt;6815</title>
<path fill="none" stroke="#e09d4b" stroke-width="2" d="M781.64,-583.21C766.78,-574.98 754.58,-568.46 744.02,-563.35"/>
<polygon fill="#e09d4b" stroke="#e09d4b" stroke-width="2" points="736.17,-559.73 747.14,-559.84 738.71,-560.35 745.46,-563.47 745.25,-563.93 745.04,-564.38 738.29,-561.26 743.36,-568.01 736.17,-559.73"/>
</g>
<!-- 17504 -->
<g id="node10" class="node">
<title>17504</title>
<polygon fill="none" stroke="black" points="760.41,-309.22 760.41,-324.13 699.94,-334.68 614.43,-334.68 553.96,-324.13 553.96,-309.22 614.43,-298.68 699.94,-298.68 760.41,-309.22"/>
<polygon fill="none" stroke="black" points="764.41,-305.86 764.41,-327.49 700.29,-338.68 614.08,-338.68 549.96,-327.49 549.96,-305.86 614.08,-294.68 700.29,-294.68 764.41,-305.86"/>
<text text-anchor="middle" x="657.18" y="-311.63" font-family="Times,serif" font-size="14.00">scancode:inner&#45;net&#45;2.0</text>
</g>
<!-- 2343&#45;&gt;17504 -->
<g id="edge6" class="edge">
<title>2343&#45;&gt;17504</title>
<path fill="none" stroke="black" stroke-width="2" d="M808.42,-580.91C744.33,-422.87 732.59,-396.72 686.2,-346.88"/>
<polygon fill="black" stroke="black" stroke-width="2" points="680.44,-340.77 690.57,-344.96 682.56,-342.29 687.66,-347.71 687.3,-348.05 686.93,-348.39 681.83,-342.98 684.02,-351.13 680.44,-340.77"/>
</g>
<!-- 36996 -->
<g id="node16" class="node">
<title>36996</title>
<polygon fill="none" stroke="#379469" points="1018.06,-875.94 1018.06,-890.85 966.03,-901.39 892.44,-901.39 840.41,-890.85 840.41,-875.94 892.44,-865.39 966.03,-865.39 1018.06,-875.94"/>
<polygon fill="none" stroke="#379469" points="1022.06,-872.67 1022.06,-894.12 966.43,-905.39 892.04,-905.39 836.41,-894.12 836.41,-872.67 892.04,-861.39 966.43,-861.39 1022.06,-872.67"/>
<text text-anchor="middle" x="929.23" y="-878.34" font-family="Times,serif" font-size="14.00">cavil:Inner&#45;Net&#45;2.0</text>
</g>
<!-- 2343&#45;&gt;36996 -->
<g id="edge7" class="edge">
<title>2343&#45;&gt;36996</title>
<path fill="none" stroke="#379469" stroke-width="2" d="M829.92,-625.6C906.63,-763.3 916.98,-784.37 925.37,-850.19"/>
<polygon fill="#379469" stroke="#379469" stroke-width="2" points="926.42,-858.74 920.74,-849.36 925.61,-856.26 924.71,-848.88 925.2,-848.81 925.7,-848.75 926.6,-856.14 929.67,-848.27 926.42,-858.74"/>
</g>
<!-- 2343&#45;&gt;43644 -->
<g id="edge8" class="edge">
<title>2343&#45;&gt;43644</title>
<path fill="none" stroke="#00876c" stroke-dasharray="5,2" d="M799.38,-581.01C704.61,-464.42 680.58,-436.61 632.04,-407.78"/>
<polygon fill="#00876c" stroke="#00876c" points="623.38,-402.78 634.29,-403.89 626.66,-404.67 632.04,-407.78 632.04,-407.78 632.04,-407.78 626.66,-404.67 629.79,-411.68 623.38,-402.78"/>
</g>
<!-- 2344 -->
<g id="node4" class="node">
<title>2344</title>
<polygon fill="none" stroke="black" points="1079.6,-343.68 1079.6,-358.59 1018.48,-369.13 932.05,-369.13 870.94,-358.59 870.94,-343.68 932.05,-333.13 1018.48,-333.13 1079.6,-343.68"/>
<polygon fill="none" stroke="black" points="1083.6,-340.31 1083.6,-361.96 1018.83,-373.13 931.71,-373.13 866.94,-361.96 866.94,-340.31 931.71,-329.13 1018.83,-329.13 1083.6,-340.31"/>
<text text-anchor="middle" x="975.27" y="-346.08" font-family="Times,serif" font-size="14.00">Inner Net License v2.0</text>
</g>
<!-- 2344&#45;&gt;2342 -->
<g id="edge9" class="edge">
<title>2344&#45;&gt;2342</title>
<path fill="none" stroke="#b8bf62" stroke-width="2" d="M978.28,-373.31C978.19,-375.1 977.97,-376.98 977.64,-379.03"/>
<polygon fill="#b8bf62" stroke="#b8bf62" stroke-width="2" points="975.83,-387.19 973.6,-376.45 975.89,-384.58 977.5,-377.32 977.99,-377.43 978.48,-377.54 976.87,-384.8 982.38,-378.4 975.83,-387.19"/>
</g>
<!-- 2344&#45;&gt;43644 -->
<g id="edge10" class="edge">
<title>2344&#45;&gt;43644</title>
<path fill="none" stroke="#00876c" stroke-dasharray="5,2" d="M916.44,-331.33C799.72,-293.24 769.21,-295.99 640.11,-352.95"/>
<polygon fill="#00876c" stroke="#00876c" points="631.35,-356.84 638.66,-348.67 634.8,-355.3 640.49,-352.78 640.49,-352.78 640.49,-352.78 634.8,-355.3 642.31,-356.9 631.35,-356.84"/>
</g>
<!-- 6814 -->
<g id="node5" class="node">
<title>6814</title>
<ellipse fill="none" stroke="#e09d4b" cx="577.16" cy="-612.3" rx="153.44" ry="28.99"/>
<text text-anchor="middle" x="577.16" y="-615.5" font-family="Times,serif" font-size="14.00" fill="gray">FedoraEntry</text>
<text text-anchor="middle" x="577.16" y="-599" font-family="Times,serif" font-size="14.00" fill="gray">cc4ea6f9e787b9ace11deefd430f12a9</text>
</g>
<!-- 6814&#45;&gt;6815 -->
<g id="edge11" class="edge">
<title>6814&#45;&gt;6815</title>
<path fill="none" stroke="#e09d4b" d="M589.12,-583.2C589.33,-582.88 589.54,-582.57 589.75,-582.25"/>
<polygon fill="#e09d4b" stroke="#e09d4b" points="592.19,-584.77 596.34,-575.02 587.02,-580.06 592.19,-584.77"/>
</g>
<!-- 6816 -->
<g id="node7" class="node">
<title>6816</title>
<polygon fill="none" stroke="#e09d4b" points="424.91,-705.26 424.91,-720.17 332.32,-730.71 201.37,-730.71 108.78,-720.17 108.78,-705.26 201.37,-694.71 332.32,-694.71 424.91,-705.26"/>
<text text-anchor="middle" x="266.84" y="-707.66" font-family="Times,serif" font-size="14.00">The Inner Net License, Version 2.00</text>
</g>
<!-- 6816&#45;&gt;6815 -->
<g id="edge12" class="edge">
<title>6816&#45;&gt;6815</title>
<path fill="none" stroke="#e09d4b" stroke-dasharray="5,2" d="M290.56,-694.29C362.74,-638.68 386.49,-627.73 561.22,-573.54"/>
<polygon fill="#e09d4b" stroke="#e09d4b" points="570.68,-570.61 562.46,-577.87 567.07,-571.73 561.13,-573.57 561.13,-573.57 561.13,-573.57 567.07,-571.73 559.8,-569.27 570.68,-570.61"/>
</g>
<!-- 6817 -->
<g id="node8" class="node">
<title>6817</title>
<polygon fill="none" stroke="black" points="853.37,-389.51 853.37,-404.42 823.73,-414.96 781.82,-414.96 752.18,-404.42 752.18,-389.51 781.82,-378.96 823.73,-378.96 853.37,-389.51"/>
<text text-anchor="middle" x="802.78" y="-391.91" font-family="Times,serif" font-size="14.00">Inner&#45;Net</text>
</g>
<!-- 6817&#45;&gt;6815 -->
<g id="edge13" class="edge">
<title>6817&#45;&gt;6815</title>
<path fill="none" stroke="#e09d4b" stroke-dasharray="5,2" d="M766.11,-409.83C713.46,-429.48 699.95,-444.03 652.09,-520.19"/>
<polygon fill="#e09d4b" stroke="#e09d4b" points="647.05,-528.25 648.54,-517.38 649.06,-525.04 652.36,-519.77 652.36,-519.77 652.36,-519.77 649.06,-525.04 656.17,-522.16 647.05,-528.25"/>
</g>
<!-- 6817&#45;&gt;43644 -->
<g id="edge14" class="edge">
<title>6817&#45;&gt;43644</title>
<path fill="none" stroke="#00876c" stroke-dasharray="5,2" d="M769.58,-382.82C715.82,-360.23 691.11,-352.38 660.16,-356.54"/>
<polygon fill="#00876c" stroke="#00876c" points="650.58,-358.2 659.66,-352.06 654.3,-357.55 660.43,-356.49 660.43,-356.49 660.43,-356.49 654.3,-357.55 661.2,-360.93 650.58,-358.2"/>
</g>
<!-- 17503 -->
<g id="node9" class="node">
<title>17503</title>
<ellipse fill="none" stroke="#dac767" cx="586.69" cy="-256.16" rx="157.68" ry="28.99"/>
<text text-anchor="middle" x="586.69" y="-259.36" font-family="Times,serif" font-size="14.00" fill="gray">ScancodeData</text>
<text text-anchor="middle" x="586.69" y="-242.86" font-family="Times,serif" font-size="14.00" fill="gray">299ade9e86344370f1e88c03987da16f</text>
</g>
<!-- 17503&#45;&gt;17504 -->
<g id="edge15" class="edge">
<title>17503&#45;&gt;17504</title>
<path fill="none" stroke="#dac767" d="M628.44,-284.37C628.95,-284.91 629.47,-285.47 630,-286.04"/>
<polygon fill="#dac767" stroke="#dac767" points="627.29,-288.26 636.61,-293.31 632.47,-283.55 627.29,-288.26"/>
</g>
<!-- 17504&#45;&gt;43644 -->
<g id="edge16" class="edge">
<title>17504&#45;&gt;43644</title>
<path fill="none" stroke="#00876c" stroke-dasharray="5,2" d="M609,-337.86C606.12,-340.71 603.32,-344.1 600.31,-348.27"/>
<polygon fill="#00876c" stroke="#00876c" points="594.88,-356.3 596.76,-345.5 597,-353.17 600.48,-348.02 600.48,-348.02 600.48,-348.02 597,-353.17 604.21,-350.54 594.88,-356.3"/>
</g>
<!-- 17505 -->
<g id="node11" class="node">
<title>17505</title>
<polygon fill="none" stroke="#dac767" points="738.41,-14.95 738.41,-29.86 700.01,-40.41 645.71,-40.41 607.31,-29.86 607.31,-14.95 645.71,-4.41 700.01,-4.41 738.41,-14.95"/>
<polygon fill="none" stroke="#dac767" points="742.41,-11.9 742.41,-32.91 700.55,-44.41 645.17,-44.41 603.31,-32.91 603.31,-11.9 645.17,-0.41 700.55,-0.41 742.41,-11.9"/>
<text text-anchor="middle" x="672.86" y="-17.36" font-family="Times,serif" font-size="14.00">Inner Net 2.0</text>
</g>
<!-- 17505&#45;&gt;17504 -->
<g id="edge17" class="edge">
<title>17505&#45;&gt;17504</title>
<path fill="none" stroke="#dac767" stroke-width="2" d="M668.34,-44.49C655.36,-108.88 654.74,-127.66 656.75,-283.34"/>
<polygon fill="#dac767" stroke="#dac767" stroke-width="2" points="656.86,-291.86 652.23,-281.92 656.32,-289.3 656.23,-281.86 656.73,-281.86 657.23,-281.85 657.32,-289.29 661.23,-281.8 656.86,-291.86"/>
</g>
<!-- 17506 -->
<g id="node12" class="node">
<title>17506</title>
<polygon fill="none" stroke="black" points="562.03,-58.89 562.03,-73.8 503.83,-84.35 421.53,-84.35 363.34,-73.8 363.34,-58.89 421.53,-48.35 503.83,-48.35 562.03,-58.89"/>
<polygon fill="none" stroke="black" points="566.03,-55.55 566.03,-77.14 504.19,-88.35 421.17,-88.35 359.34,-77.14 359.34,-55.55 421.17,-44.35 504.19,-44.35 566.03,-55.55"/>
<text text-anchor="middle" x="462.68" y="-61.3" font-family="Times,serif" font-size="14.00">Inner Net License 2.0</text>
</g>
<!-- 17506&#45;&gt;17504 -->
<g id="edge18" class="edge">
<title>17506&#45;&gt;17504</title>
<path fill="none" stroke="#dac767" stroke-width="2" d="M486.75,-88.8C533.32,-132.86 548.14,-153.29 636.26,-285.31"/>
<polygon fill="#dac767" stroke="#dac767" stroke-width="2" points="641.1,-292.56 631.8,-286.74 639.26,-290.7 635.13,-284.52 635.55,-284.24 635.96,-283.96 640.09,-290.15 639.29,-281.74 641.1,-292.56"/>
</g>
<!-- 17506&#45;&gt;43644 -->
<g id="edge19" class="edge">
<title>17506&#45;&gt;43644</title>
<path fill="none" stroke="#00876c" stroke-width="2" d="M468.67,-88.71C488.32,-161.55 495.56,-180.15 566.54,-347.26"/>
<polygon fill="#00876c" stroke="#00876c" stroke-width="2" points="569.9,-355.18 561.85,-347.74 568.44,-353.02 565.53,-346.17 565.99,-345.98 566.45,-345.78 569.36,-352.63 570.14,-344.22 569.9,-355.18"/>
</g>
<!-- 28768 -->
<g id="node13" class="node">
<title>28768</title>
<ellipse fill="none" stroke="#e06f45" cx="1245.26" cy="-143.45" rx="157.68" ry="28.99"/>
<text text-anchor="middle" x="1245.26" y="-146.65" font-family="Times,serif" font-size="14.00" fill="gray">OrtLicenseCategorization</text>
<text text-anchor="middle" x="1245.26" y="-130.15" font-family="Times,serif" font-size="14.00" fill="gray">c1a70d91e3761bc6b962a1163fd1ef5d</text>
</g>
<!-- 28768&#45;&gt;2342 -->
<g id="edge20" class="edge">
<title>28768&#45;&gt;2342</title>
<path fill="none" stroke="#e06f45" d="M1215.83,-172.32C1162.73,-224.41 1139.63,-247.09 1002.42,-381.82"/>
<polygon fill="#e06f45" stroke="#e06f45" points="1000.28,-379.02 995.6,-388.53 1005.18,-384.02 1000.28,-379.02"/>
</g>
<!-- 35524 -->
<g id="node14" class="node">
<title>35524</title>
<ellipse fill="none" stroke="#e09d4b" cx="1343.03" cy="-344.75" rx="154.5" ry="28.99"/>
<text text-anchor="middle" x="1343.03" y="-347.95" font-family="Times,serif" font-size="14.00" fill="gray">OrtLicenseCategorization</text>
<text text-anchor="middle" x="1343.03" y="-331.45" font-family="Times,serif" font-size="14.00" fill="gray">1e0208209353fca60093fbe5a43f2af9</text>
</g>
<!-- 35524&#45;&gt;2342 -->
<g id="edge21" class="edge">
<title>35524&#45;&gt;2342</title>
<path fill="none" stroke="#e09d4b" d="M1193.41,-352.39C1159.04,-359.63 1115.19,-371.99 1046.23,-392.45"/>
<polygon fill="#e09d4b" stroke="#e09d4b" points="1045.45,-389.03 1036.86,-395.24 1047.45,-395.74 1045.45,-389.03"/>
</g>
<!-- 36995 -->
<g id="node15" class="node">
<title>36995</title>
<ellipse fill="none" stroke="#379469" cx="1066.95" cy="-1232.93" rx="159.28" ry="28.99"/>
<text text-anchor="middle" x="1066.95" y="-1236.13" font-family="Times,serif" font-size="14.00" fill="gray">CavilLicenseChange</text>
<text text-anchor="middle" x="1066.95" y="-1219.63" font-family="Times,serif" font-size="14.00" fill="gray">60d59e27666d8b5ab51c3b65cc0f6e10</text>
</g>
<!-- 36995&#45;&gt;36996 -->
<g id="edge22" class="edge">
<title>36995&#45;&gt;36996</title>
<path fill="none" stroke="#379469" d="M1058.62,-1203.56C1036.18,-1125.18 1026.56,-1102.08 943.84,-916.21"/>
<polygon fill="#379469" stroke="#379469" points="947.08,-914.88 939.82,-907.17 940.69,-917.73 947.08,-914.88"/>
</g>
<!-- 37789 -->
<g id="node17" class="node">
<title>37789</title>
<polygon fill="none" stroke="black" points="356.04,-176.16 356.04,-191.08 294.92,-201.62 208.49,-201.62 147.38,-191.08 147.38,-176.16 208.49,-165.62 294.92,-165.62 356.04,-176.16"/>
<text text-anchor="middle" x="251.71" y="-178.57" font-family="Times,serif" font-size="14.00">Inner Net License 2.00</text>
</g>
<!-- 37789&#45;&gt;43644 -->
<g id="edge23" class="edge">
<title>37789&#45;&gt;43644</title>
<path fill="none" stroke="#00876c" stroke-dasharray="5,2" d="M297.56,-201.44C363.04,-227.86 392.74,-247.29 539.86,-351.15"/>
<polygon fill="#00876c" stroke="#00876c" points="547.8,-356.76 537.04,-354.67 544.71,-354.58 539.63,-350.99 539.63,-350.99 539.63,-350.99 544.71,-354.58 542.23,-347.31 547.8,-356.76"/>
</g>
<!-- 43643 -->
<g id="node18" class="node">
<title>43643</title>
<ellipse fill="none" stroke="#00876c" cx="148.47" cy="-379.38" rx="148.67" ry="28.99"/>
<text text-anchor="middle" x="148.47" y="-382.58" font-family="Times,serif" font-size="14.00" fill="gray">MetaeffektLicense</text>
<text text-anchor="middle" x="148.47" y="-366.08" font-family="Times,serif" font-size="14.00" fill="gray">8f9ff66f00faae0a21df80fa8d01036f</text>
</g>
<!-- 43643&#45;&gt;43644 -->
<g id="edge24" class="edge">
<title>43643&#45;&gt;43644</title>
<path fill="none" stroke="#00876c" d="M229.01,-354.64C291.24,-338.74 335.99,-340.85 465.11,-361.05"/>
<polygon fill="#00876c" stroke="#00876c" points="464.29,-364.47 474.71,-362.56 465.38,-357.55 464.29,-364.47"/>
</g>
<!-- 43645 -->
<g id="node20" class="node">
<title>43645</title>
<polygon fill="none" stroke="#00876c" points="574.43,-754.74 574.43,-769.65 500.01,-780.19 394.76,-780.19 320.34,-769.65 320.34,-754.74 394.76,-744.19 500.01,-744.19 574.43,-754.74"/>
<text text-anchor="middle" x="447.38" y="-757.14" font-family="Times,serif" font-size="14.00">Inner Net License, Version 2</text>
</g>
<!-- 43645&#45;&gt;43644 -->
<g id="edge25" class="edge">
<title>43645&#45;&gt;43644</title>
<path fill="none" stroke="#00876c" stroke-dasharray="5,2" d="M446.35,-743.87C436.24,-563.44 439.24,-547.3 554.44,-410.41"/>
<polygon fill="#00876c" stroke="#00876c" points="560.67,-403.02 557.67,-413.57 558.24,-405.91 554.23,-410.67 554.23,-410.67 554.23,-410.67 558.24,-405.91 550.79,-407.76 560.67,-403.02"/>
</g>
</g>
</svg>
