<?xml version="1.0" encoding="UTF-8" standalone="no"?>
<!DOCTYPE svg PUBLIC "-//W3C//DTD SVG 1.1//EN"
 "http://www.w3.org/Graphics/SVG/1.1/DTD/svg11.dtd">
<!-- Generated by graphviz version 10.0.1 (0)
 -->
<!-- Pages: 1 -->
<svg width="2163pt" height="1203pt"
 viewBox="0.00 0.00 2163.00 1203.00" xmlns="http://www.w3.org/2000/svg" xmlns:xlink="http://www.w3.org/1999/xlink">
<g id="graph0" class="graph" transform="scale(1 1) rotate(0) translate(4 1199)">
<polygon fill="white" stroke="none" points="-4,4 -4,-1199 2159,-1199 2159,4 -4,4"/>
<!-- 5 -->
<g id="node1" class="node">
<title>5</title>
<text text-anchor="start" x="1139.98" y="-126.89" font-family="Times,serif" font-size="14.00">OSI: </text>
<text text-anchor="start" x="1169.23" y="-126.89" font-family="Times,serif" font-weight="bold" font-size="14.00" fill="#8b0000">Rejected</text>
</g>
<!-- 5224 -->
<g id="node2" class="node">
<title>5224</title>
<ellipse fill="none" stroke="#dac767" cx="1202.07" cy="-438.46" rx="159.28" ry="28.99"/>
<text text-anchor="middle" x="1202.07" y="-441.66" font-family="Times,serif" font-size="14.00" fill="gray">SPDXLicense</text>
<text text-anchor="middle" x="1202.07" y="-425.16" font-family="Times,serif" font-size="14.00" fill="gray">9b600c38acb5af844b6052e84a66798b</text>
</g>
<!-- 5&#45;&gt;5224 -->
<g id="edge1" class="edge">
<title>5&#45;&gt;5224</title>
<path fill="none" stroke="#dac767" d="M1185.72,-148.84C1209.96,-221.9 1211.21,-238.52 1203.94,-397.99"/>
<polygon fill="#dac767" stroke="#dac767" points="1200.46,-397.55 1203.49,-407.7 1207.45,-397.87 1200.46,-397.55"/>
</g>
<!-- 5225 -->
<g id="node3" class="node">
<title>5225</title>
<polygon fill="none" stroke="black" points="1281.49,-691.64 1281.49,-706.55 1251.85,-717.09 1209.94,-717.09 1180.3,-706.55 1180.3,-691.64 1209.94,-681.09 1251.85,-681.09 1281.49,-691.64"/>
<polygon fill="none" stroke="black" points="1285.49,-688.81 1285.49,-709.37 1252.54,-721.09 1209.25,-721.09 1176.3,-709.37 1176.3,-688.81 1209.25,-677.09 1252.54,-677.09 1285.49,-688.81"/>
<polygon fill="none" stroke="black" points="1289.49,-685.99 1289.49,-712.19 1253.23,-725.09 1208.56,-725.09 1172.3,-712.19 1172.3,-685.99 1208.56,-673.09 1253.23,-673.09 1289.49,-685.99"/>
<text text-anchor="middle" x="1230.89" y="-694.04" font-family="Times,serif" font-size="14.00">spdx:jove</text>
</g>
<!-- 5224&#45;&gt;5225 -->
<g id="edge2" class="edge">
<title>5224&#45;&gt;5225</title>
<path fill="none" stroke="#dac767" d="M1218.06,-467.72C1262.27,-549.5 1264.6,-567.34 1240.6,-661.74"/>
<polygon fill="#dac767" stroke="#dac767" points="1237.26,-660.66 1238.16,-671.22 1244.04,-662.4 1237.26,-660.66"/>
</g>
<!-- 9894 -->
<g id="node13" class="node">
<title>9894</title>
<polygon fill="none" stroke="#e09d4b" points="1486.42,-507.9 1486.42,-522.81 1451.59,-533.35 1402.33,-533.35 1367.5,-522.81 1367.5,-507.9 1402.33,-497.35 1451.59,-497.35 1486.42,-507.9"/>
<polygon fill="none" stroke="#e09d4b" points="1490.42,-504.93 1490.42,-525.78 1452.18,-537.35 1401.74,-537.35 1363.5,-525.78 1363.5,-504.93 1401.74,-493.35 1452.18,-493.35 1490.42,-504.93"/>
<text text-anchor="middle" x="1426.96" y="-510.3" font-family="Times,serif" font-size="14.00">Fedora:jove</text>
</g>
<!-- 5225&#45;&gt;9894 -->
<g id="edge3" class="edge">
<title>5225&#45;&gt;9894</title>
<path fill="none" stroke="#e09d4b" stroke-width="2" d="M1267.15,-677.59C1366.57,-618.36 1383.24,-604.48 1411.57,-547.47"/>
<polygon fill="#e09d4b" stroke="#e09d4b" stroke-width="2" points="1415.36,-539.72 1415.01,-550.68 1414.68,-542.24 1411.42,-548.92 1410.97,-548.7 1410.52,-548.48 1413.78,-541.8 1406.92,-546.73 1415.36,-539.72"/>
</g>
<!-- 30536 -->
<g id="node15" class="node">
<title>30536</title>
<polygon fill="none" stroke="black" points="1510.4,-783 1510.4,-797.91 1470.37,-808.45 1413.77,-808.45 1373.75,-797.91 1373.75,-783 1413.77,-772.45 1470.37,-772.45 1510.4,-783"/>
<polygon fill="none" stroke="black" points="1514.4,-779.92 1514.4,-800.99 1470.89,-812.45 1413.25,-812.45 1369.75,-800.99 1369.75,-779.92 1413.25,-768.45 1470.89,-768.45 1514.4,-779.92"/>
<text text-anchor="middle" x="1442.07" y="-785.4" font-family="Times,serif" font-size="14.00">scancode:jove</text>
</g>
<!-- 5225&#45;&gt;30536 -->
<g id="edge4" class="edge">
<title>5225&#45;&gt;30536</title>
<path fill="none" stroke="#deb256" stroke-width="2" d="M1272.35,-718.57C1332.3,-746.7 1360,-759.45 1383.69,-769.05"/>
<polygon fill="#deb256" stroke="#deb256" stroke-width="2" points="1391.77,-772.25 1380.81,-772.76 1389.2,-771.77 1382.29,-769.04 1382.47,-768.57 1382.65,-768.11 1389.57,-770.84 1384.13,-764.39 1391.77,-772.25"/>
</g>
<!-- 50631 -->
<g id="node21" class="node">
<title>50631</title>
<polygon fill="none" stroke="#379469" points="1269.81,-853.85 1269.81,-868.76 1221.67,-879.31 1153.6,-879.31 1105.46,-868.76 1105.46,-853.85 1153.6,-843.31 1221.67,-843.31 1269.81,-853.85"/>
<polygon fill="none" stroke="#379469" points="1273.81,-850.63 1273.81,-871.98 1222.11,-883.31 1153.17,-883.31 1101.46,-871.98 1101.46,-850.63 1153.17,-839.31 1222.11,-839.31 1273.81,-850.63"/>
<text text-anchor="middle" x="1187.64" y="-856.26" font-family="Times,serif" font-size="14.00">metaeffekt:JOVE</text>
</g>
<!-- 5225&#45;&gt;50631 -->
<g id="edge5" class="edge">
<title>5225&#45;&gt;50631</title>
<path fill="none" stroke="#379469" stroke-width="2" d="M1230.38,-725.52C1229.05,-786.23 1226.89,-804.55 1210.77,-829.66"/>
<polygon fill="#379469" stroke="#379469" stroke-width="2" points="1205.84,-836.89 1207.76,-826.09 1206.87,-834.49 1211.06,-828.35 1211.47,-828.63 1211.89,-828.91 1207.7,-835.05 1215.19,-831.16 1205.84,-836.89"/>
</g>
<!-- 5226 -->
<g id="node4" class="node">
<title>5226</title>
<polygon fill="none" stroke="black" points="1365.56,-669.64 1365.56,-684.55 1348.58,-695.1 1324.56,-695.1 1307.58,-684.55 1307.58,-669.64 1324.56,-659.1 1348.58,-659.1 1365.56,-669.64"/>
<polygon fill="none" stroke="black" points="1369.56,-667.42 1369.56,-686.78 1349.72,-699.1 1323.42,-699.1 1303.58,-686.78 1303.58,-667.42 1323.42,-655.1 1349.72,-655.1 1369.56,-667.42"/>
<text text-anchor="middle" x="1336.57" y="-672.05" font-family="Times,serif" font-size="14.00">jove</text>
</g>
<!-- 5226&#45;&gt;5225 -->
<g id="edge6" class="edge">
<title>5226&#45;&gt;5225</title>
<path fill="none" stroke="black" stroke-width="2" d="M1310.16,-691.21C1307.07,-692.41 1303.93,-693.38 1300.47,-694.19"/>
<polygon fill="black" stroke="black" stroke-width="2" points="1292.06,-695.64 1301.15,-689.5 1294.5,-694.71 1301.83,-693.44 1301.92,-693.94 1302,-694.43 1294.67,-695.69 1302.68,-698.37 1292.06,-695.64"/>
</g>
<!-- 5226&#45;&gt;9894 -->
<g id="edge7" class="edge">
<title>5226&#45;&gt;9894</title>
<path fill="none" stroke="#e09d4b" stroke-width="2" d="M1355.61,-658.3C1407.77,-606.52 1417.36,-593.21 1423.29,-548.7"/>
<polygon fill="#e09d4b" stroke="#e09d4b" stroke-width="2" points="1424.33,-540.12 1427.59,-550.59 1424.52,-542.72 1423.62,-550.11 1423.13,-550.04 1422.63,-549.98 1423.53,-542.6 1418.66,-549.5 1424.33,-540.12"/>
</g>
<!-- 5226&#45;&gt;30536 -->
<g id="edge8" class="edge">
<title>5226&#45;&gt;30536</title>
<path fill="none" stroke="black" stroke-width="2" d="M1357.34,-694.8C1397.44,-729.07 1411.9,-742.3 1423.5,-758.97"/>
<polygon fill="black" stroke="black" stroke-width="2" points="1428.11,-766.08 1418.89,-760.13 1426.29,-764.2 1422.25,-757.96 1422.67,-757.69 1423.09,-757.42 1427.13,-763.66 1426.45,-755.24 1428.11,-766.08"/>
</g>
<!-- 5226&#45;&gt;50631 -->
<g id="edge9" class="edge">
<title>5226&#45;&gt;50631</title>
<path fill="none" stroke="#379469" stroke-width="2" d="M1329.44,-699.33C1302.57,-782.47 1293.24,-800.44 1235.95,-834.26"/>
<polygon fill="#379469" stroke="#379469" stroke-width="2" points="1228.44,-838.62 1234.83,-829.71 1230.41,-836.9 1236.84,-833.17 1237.09,-833.6 1237.34,-834.04 1230.91,-837.77 1239.35,-837.5 1228.44,-838.62"/>
</g>
<!-- 5227 -->
<g id="node5" class="node">
<title>5227</title>
<polygon fill="none" stroke="black" points="1325.93,-906.87 1325.93,-921.78 1288.5,-932.33 1235.57,-932.33 1198.14,-921.78 1198.14,-906.87 1235.57,-896.33 1288.5,-896.33 1325.93,-906.87"/>
<polygon fill="none" stroke="black" points="1329.93,-903.84 1329.93,-924.81 1289.05,-936.33 1235.02,-936.33 1194.14,-924.81 1194.14,-903.84 1235.02,-892.33 1289.05,-892.33 1329.93,-903.84"/>
<text text-anchor="middle" x="1262.04" y="-909.28" font-family="Times,serif" font-size="14.00">Jove License</text>
</g>
<!-- 5227&#45;&gt;5225 -->
<g id="edge10" class="edge">
<title>5227&#45;&gt;5225</title>
<path fill="none" stroke="#dac767" stroke-width="2" d="M1265.48,-892.13C1272.42,-844.54 1269.79,-828.27 1242.06,-736"/>
<polygon fill="#dac767" stroke="#dac767" stroke-width="2" points="1239.54,-727.63 1246.73,-735.91 1240.75,-729.94 1242.9,-737.06 1242.42,-737.21 1241.94,-737.35 1239.8,-730.23 1238.11,-738.5 1239.54,-727.63"/>
</g>
<!-- 5227&#45;&gt;30536 -->
<g id="edge11" class="edge">
<title>5227&#45;&gt;30536</title>
<path fill="none" stroke="#deb256" stroke-width="2" d="M1316.06,-899.66C1374.85,-882.51 1390.09,-870.39 1421.97,-821.88"/>
<polygon fill="#deb256" stroke="#deb256" stroke-width="2" points="1426.58,-814.78 1424.91,-825.62 1425.61,-817.2 1421.56,-823.44 1421.14,-823.17 1420.72,-822.89 1424.77,-816.66 1417.36,-820.71 1426.58,-814.78"/>
</g>
<!-- 5227&#45;&gt;50631 -->
<g id="edge12" class="edge">
<title>5227&#45;&gt;50631</title>
<path fill="none" stroke="#379469" stroke-dasharray="5,2" d="M1224.54,-895.04C1223.04,-893.8 1221.45,-892.46 1219.75,-890.99"/>
<polygon fill="#379469" stroke="#379469" points="1212.45,-884.46 1222.91,-887.77 1215.27,-886.98 1219.91,-891.12 1219.91,-891.12 1219.91,-891.12 1215.27,-886.98 1216.91,-894.48 1212.45,-884.46"/>
</g>
<!-- 50632 -->
<g id="node22" class="node">
<title>50632</title>
<polygon fill="none" stroke="#379469" points="1369.28,-1165.31 1369.28,-1180.22 1301.35,-1190.77 1205.28,-1190.77 1137.35,-1180.22 1137.35,-1165.31 1205.28,-1154.77 1301.35,-1154.77 1369.28,-1165.31"/>
<polygon fill="none" stroke="#379469" points="1373.28,-1161.88 1373.28,-1183.65 1301.66,-1194.77 1204.97,-1194.77 1133.35,-1183.65 1133.35,-1161.88 1204.97,-1150.77 1301.66,-1150.77 1373.28,-1161.88"/>
<text text-anchor="middle" x="1253.32" y="-1167.72" font-family="Times,serif" font-size="14.00">metaeffekt:JOVE License</text>
</g>
<!-- 5227&#45;&gt;50632 -->
<g id="edge13" class="edge">
<title>5227&#45;&gt;50632</title>
<path fill="none" stroke="#379469" stroke-width="2" d="M1263.93,-936.68C1274.87,-1066.38 1275.96,-1089.93 1262.72,-1139.7"/>
<polygon fill="#379469" stroke="#379469" stroke-width="2" points="1260.43,-1148.05 1258.74,-1137.21 1260.62,-1145.44 1262.59,-1138.27 1263.08,-1138.41 1263.56,-1138.54 1261.59,-1145.71 1267.42,-1139.6 1260.43,-1148.05"/>
</g>
<!-- 71396 -->
<g id="node24" class="node">
<title>71396</title>
<polygon fill="none" stroke="#00876c" points="1518.51,-869.77 1518.51,-884.68 1468.43,-895.23 1397.6,-895.23 1347.52,-884.68 1347.52,-869.77 1397.6,-859.23 1468.43,-859.23 1518.51,-869.77"/>
<polygon fill="none" stroke="#00876c" points="1522.51,-866.53 1522.51,-887.93 1468.84,-899.23 1397.18,-899.23 1343.52,-887.93 1343.52,-866.53 1397.18,-855.23 1468.84,-855.23 1522.51,-866.53"/>
<text text-anchor="middle" x="1433.01" y="-872.18" font-family="Times,serif" font-size="14.00">spdx:Jove License</text>
</g>
<!-- 5227&#45;&gt;71396 -->
<g id="edge14" class="edge">
<title>5227&#45;&gt;71396</title>
<path fill="none" stroke="#00876c" stroke-width="2" d="M1330.11,-917.97C1358.04,-918.26 1373.44,-915.05 1391.64,-905.02"/>
<polygon fill="#00876c" stroke="#00876c" stroke-width="2" points="1398.77,-900.77 1392.48,-909.75 1396.82,-902.51 1390.43,-906.32 1390.18,-905.89 1389.92,-905.46 1396.31,-901.65 1387.88,-902.02 1398.77,-900.77"/>
</g>
<!-- 5228 -->
<g id="node6" class="node">
<title>5228</title>
<text text-anchor="middle" x="960.45" y="-212.37" font-family="Times,serif" font-size="14.00">$TEXT</text>
</g>
<!-- 5228&#45;&gt;5224 -->
<g id="edge15" class="edge">
<title>5228&#45;&gt;5224</title>
<path fill="none" stroke="#dac767" d="M988.98,-228.06C1075,-260.68 1090.15,-274.91 1176.03,-400.31"/>
<polygon fill="#dac767" stroke="#dac767" points="1172.95,-402 1181.49,-408.28 1178.73,-398.05 1172.95,-402"/>
</g>
<!-- 5229 -->
<g id="node7" class="node">
<title>5229</title>
<text text-anchor="middle" x="852.49" y="-100.64" font-family="Times,serif" font-size="14.00">$TEXT</text>
</g>
<!-- 5229&#45;&gt;5228 -->
<g id="edge16" class="edge">
<title>5229&#45;&gt;5228</title>
<path fill="none" stroke="#dac767" d="M879.46,-123.55C896.42,-136.16 908.12,-149.8 939.6,-190.42"/>
<polygon fill="#dac767" stroke="#dac767" points="936.82,-192.54 945.71,-198.31 942.36,-188.26 936.82,-192.54"/>
</g>
<!-- 5230 -->
<g id="node8" class="node">
<title>5230</title>
<text text-anchor="middle" x="1685.32" y="-661.51" font-family="Times,serif" font-size="14.00">https://github.com/jonmacs/jove/blob/4_17/LICENSE</text>
</g>
<!-- 5230&#45;&gt;5224 -->
<g id="edge17" class="edge">
<title>5230&#45;&gt;5224</title>
<path fill="none" stroke="#dac767" d="M1666.37,-648.83C1561.57,-551.02 1537.44,-536.76 1298.34,-466.52"/>
<polygon fill="#dac767" stroke="#dac767" points="1299.57,-463.24 1288.99,-463.78 1297.6,-469.95 1299.57,-463.24"/>
</g>
<!-- 30535 -->
<g id="node14" class="node">
<title>30535</title>
<ellipse fill="none" stroke="#deb256" cx="1790.84" cy="-728.12" rx="155.03" ry="28.99"/>
<text text-anchor="middle" x="1790.84" y="-731.32" font-family="Times,serif" font-size="14.00" fill="gray">ScancodeData</text>
<text text-anchor="middle" x="1790.84" y="-714.82" font-family="Times,serif" font-size="14.00" fill="gray">5ccc62fc0fce525f9474201d99c2bcdb</text>
</g>
<!-- 5230&#45;&gt;30535 -->
<g id="edge18" class="edge">
<title>5230&#45;&gt;30535</title>
<path fill="none" stroke="#deb256" d="M1725,-684.46C1733.26,-688.27 1739.96,-691.47 1745.63,-694.35"/>
<polygon fill="#deb256" stroke="#deb256" points="1743.57,-697.22 1754.04,-698.88 1746.89,-691.06 1743.57,-697.22"/>
</g>
<!-- 5550 -->
<g id="node9" class="node">
<title>5550</title>
<text text-anchor="middle" x="2079.97" y="-907.65" font-family="Times,serif" font-size="14.00">LicenseType Permissive</text>
</g>
<!-- 5550&#45;&gt;30535 -->
<g id="edge19" class="edge">
<title>5550&#45;&gt;30535</title>
<path fill="none" stroke="#deb256" d="M2061.37,-894.9C2007.69,-843.92 1988.37,-831.08 1853.8,-760.86"/>
<polygon fill="#deb256" stroke="#deb256" points="1855.73,-757.92 1845.25,-756.4 1852.5,-764.13 1855.73,-757.92"/>
</g>
<!-- 6592 -->
<g id="node10" class="node">
<title>6592</title>
<text text-anchor="middle" x="1694.14" y="-150.75" font-family="Times,serif" font-size="14.00">[&quot;allowed&quot;]</text>
</g>
<!-- 9893 -->
<g id="node12" class="node">
<title>9893</title>
<ellipse fill="none" stroke="#e09d4b" cx="1506.74" cy="-357.21" rx="158.75" ry="28.99"/>
<text text-anchor="middle" x="1506.74" y="-360.41" font-family="Times,serif" font-size="14.00" fill="gray">FedoraEntry</text>
<text text-anchor="middle" x="1506.74" y="-343.91" font-family="Times,serif" font-size="14.00" fill="gray">e52019f6d395362d603e6b2d0dcf9da9</text>
</g>
<!-- 6592&#45;&gt;9893 -->
<g id="edge20" class="edge">
<title>6592&#45;&gt;9893</title>
<path fill="none" stroke="#e09d4b" d="M1682.08,-173.63C1649.52,-221.42 1636.67,-235.42 1545.78,-320.66"/>
<polygon fill="#e09d4b" stroke="#e09d4b" points="1543.64,-317.87 1538.74,-327.26 1548.43,-322.98 1543.64,-317.87"/>
</g>
<!-- 6593 -->
<g id="node11" class="node">
<title>6593</title>
<text text-anchor="start" x="1744.38" y="-103.48" font-family="Times,serif" font-size="14.00">Fedora: </text>
<text text-anchor="start" x="1789.38" y="-103.48" font-family="Times,serif" font-weight="bold" font-size="14.00" fill="#228b22">allowed</text>
<text text-anchor="start" x="1580.51" y="-89.48" font-family="Times,serif" font-size="14.00">A license is allowed if Fedora determines that the license is a free software /</text>
<text text-anchor="start" x="1575.26" y="-75.48" font-family="Times,serif" font-size="14.00">open source license. At a high level, the inquiry involves determining whether</text>
<text text-anchor="start" x="1574.13" y="-61.48" font-family="Times,serif" font-size="14.00">the license provides software freedom, and (equivalently) making sure that the</text>
<text text-anchor="start" x="1584.26" y="-47.48" font-family="Times,serif" font-size="14.00">license does not place burdens on users&#39; exercise of its permissions that are</text>
<text text-anchor="start" x="1583.88" y="-33.48" font-family="Times,serif" font-size="14.00">inconsistent with evolving community norms and traditions around what is</text>
<text text-anchor="start" x="1575.63" y="-19.48" font-family="Times,serif" font-size="14.00">acceptable in a free software / open source license. See below for more on the</text>
<text text-anchor="start" x="1695.63" y="-5.48" font-family="Times,serif" font-size="14.00">history of Fedora licensing policy.</text>
</g>
<!-- 6593&#45;&gt;6592 -->
<g id="edge21" class="edge">
<title>6593&#45;&gt;6592</title>
<path fill="none" stroke="#e09d4b" d="M1733.08,-119.64C1729.64,-122.86 1725.87,-126.37 1721.74,-130.22"/>
<polygon fill="#e09d4b" stroke="#e09d4b" points="1719.36,-127.65 1714.42,-137.01 1724.13,-132.78 1719.36,-127.65"/>
</g>
<!-- 9893&#45;&gt;9894 -->
<g id="edge22" class="edge">
<title>9893&#45;&gt;9894</title>
<path fill="none" stroke="#e09d4b" d="M1503.19,-386.55C1498.24,-419.57 1489.95,-434.26 1451.32,-484.17"/>
<polygon fill="#e09d4b" stroke="#e09d4b" points="1448.61,-481.95 1445.23,-492 1454.13,-486.25 1448.61,-481.95"/>
</g>
<!-- 30535&#45;&gt;30536 -->
<g id="edge23" class="edge">
<title>30535&#45;&gt;30536</title>
<path fill="none" stroke="#deb256" d="M1732.13,-755.39C1682.63,-775.98 1645.5,-780.76 1526.19,-786.6"/>
<polygon fill="#deb256" stroke="#deb256" points="1526.1,-783.1 1516.28,-787.08 1526.44,-790.09 1526.1,-783.1"/>
</g>
<!-- 30536&#45;&gt;50631 -->
<g id="edge24" class="edge">
<title>30536&#45;&gt;50631</title>
<path fill="none" stroke="#379469" stroke-dasharray="5,2" d="M1413.99,-812.93C1368.79,-848.3 1347.14,-858.36 1285.42,-860.84"/>
<polygon fill="#379469" stroke="#379469" points="1275.51,-861.16 1285.36,-856.34 1279.29,-861.04 1285.51,-860.84 1285.51,-860.84 1285.51,-860.84 1279.29,-861.04 1285.65,-865.34 1275.51,-861.16"/>
</g>
<!-- 30537 -->
<g id="node16" class="node">
<title>30537</title>
<text text-anchor="middle" x="2083.54" y="-706.66" font-family="Times,serif" font-size="14.00">$TEXT</text>
</g>
<!-- 30537&#45;&gt;30535 -->
<g id="edge25" class="edge">
<title>30537&#45;&gt;30535</title>
<path fill="none" stroke="#deb256" d="M2055.24,-716.93C2021.11,-723.03 1999.18,-725.83 1957.5,-727.09"/>
<polygon fill="#deb256" stroke="#deb256" points="1957.56,-723.59 1947.66,-727.35 1957.74,-730.59 1957.56,-723.59"/>
</g>
<!-- 35432 -->
<g id="node17" class="node">
<title>35432</title>
<text text-anchor="middle" x="668.99" y="-564.59" font-family="Times,serif" font-size="14.00">LicenseTag (ScopedLicenseTag &quot;OrtLicenseCategorization&quot; &quot;permissive&quot; NoLicenseTagText)</text>
</g>
<!-- 39962 -->
<g id="node19" class="node">
<title>39962</title>
<ellipse fill="none" stroke="#d43d51" cx="889.94" cy="-629.15" rx="157.68" ry="28.99"/>
<text text-anchor="middle" x="889.94" y="-632.35" font-family="Times,serif" font-size="14.00" fill="gray">OrtLicenseCategorization</text>
<text text-anchor="middle" x="889.94" y="-615.85" font-family="Times,serif" font-size="14.00" fill="gray">ff53d4d4e2dd6b68e6bfdb953b1bb99e</text>
</g>
<!-- 35432&#45;&gt;39962 -->
<g id="edge26" class="edge">
<title>35432&#45;&gt;39962</title>
<path fill="none" stroke="#d43d51" d="M709.11,-587.58C726.49,-594.62 742.58,-599.52 769.19,-605.46"/>
<polygon fill="#d43d51" stroke="#d43d51" points="768.38,-608.87 778.89,-607.57 769.86,-602.03 768.38,-608.87"/>
</g>
<!-- 35433 -->
<g id="node18" class="node">
<title>35433</title>
<text text-anchor="middle" x="293.68" y="-623.64" font-family="Times,serif" font-size="14.00">LicenseTag (ScopedLicenseTag &quot;OrtLicenseCategorization&quot; &quot;include&#45;in&#45;notice&#45;file&quot; NoLicenseTagText)</text>
</g>
<!-- 35433&#45;&gt;39962 -->
<g id="edge27" class="edge">
<title>35433&#45;&gt;39962</title>
<path fill="none" stroke="#d43d51" d="M587.57,-634.14C624.07,-633.71 667.51,-633.04 721.32,-632.13"/>
<polygon fill="#d43d51" stroke="#d43d51" points="721.14,-635.63 731.07,-631.96 721.02,-628.63 721.14,-635.63"/>
</g>
<!-- 39962&#45;&gt;5225 -->
<g id="edge28" class="edge">
<title>39962&#45;&gt;5225</title>
<path fill="none" stroke="#d43d51" d="M932.6,-657.5C1027.14,-719.44 1054.44,-727.22 1160.72,-710.84"/>
<polygon fill="#d43d51" stroke="#d43d51" points="1161.13,-714.32 1170.46,-709.31 1160.04,-707.41 1161.13,-714.32"/>
</g>
<!-- 50630 -->
<g id="node20" class="node">
<title>50630</title>
<ellipse fill="none" stroke="#379469" cx="950.23" cy="-1155.31" rx="158.22" ry="28.99"/>
<text text-anchor="middle" x="950.23" y="-1158.51" font-family="Times,serif" font-size="14.00" fill="gray">MetaeffektLicense</text>
<text text-anchor="middle" x="950.23" y="-1142.01" font-family="Times,serif" font-size="14.00" fill="gray">9a985673b3dccdbcd96aad2e0e760f5d</text>
</g>
<!-- 50630&#45;&gt;50631 -->
<g id="edge29" class="edge">
<title>50630&#45;&gt;50631</title>
<path fill="none" stroke="#379469" d="M995.68,-1127.09C1065.6,-1081.78 1083.29,-1054.07 1170.2,-893.55"/>
<polygon fill="#379469" stroke="#379469" points="1173.08,-895.59 1174.76,-885.13 1166.92,-892.26 1173.08,-895.59"/>
</g>
<!-- 50632&#45;&gt;50631 -->
<g id="edge30" class="edge">
<title>50632&#45;&gt;50631</title>
<path fill="none" stroke="#379469" stroke-width="2" d="M1250.44,-1150.55C1241.21,-1080.17 1237.03,-1061.31 1195.8,-894.36"/>
<polygon fill="#379469" stroke="#379469" stroke-width="2" points="1193.75,-886.04 1200.52,-894.67 1194.85,-888.41 1196.63,-895.63 1196.15,-895.75 1195.66,-895.87 1193.88,-888.65 1191.78,-896.83 1193.75,-886.04"/>
</g>
<!-- 71395 -->
<g id="node23" class="node">
<title>71395</title>
<ellipse fill="none" stroke="#00876c" cx="928.76" cy="-835.18" rx="159.81" ry="28.99"/>
<text text-anchor="middle" x="928.76" y="-838.38" font-family="Times,serif" font-size="14.00" fill="gray">LicenseLynx</text>
<text text-anchor="middle" x="928.76" y="-821.88" font-family="Times,serif" font-size="14.00" fill="gray">457231032d6b6c946ea387fac18b0823</text>
</g>
<!-- 71395&#45;&gt;5225 -->
<g id="edge31" class="edge">
<title>71395&#45;&gt;5225</title>
<path fill="none" stroke="#00876c" d="M1069.85,-821.2C1104.94,-808.26 1136.85,-782.66 1194.99,-731.12"/>
<polygon fill="#00876c" stroke="#00876c" points="1197.09,-733.94 1202.24,-724.68 1192.44,-728.7 1197.09,-733.94"/>
</g>
<!-- 71396&#45;&gt;5225 -->
<g id="edge32" class="edge">
<title>71396&#45;&gt;5225</title>
<path fill="none" stroke="#00876c" stroke-width="2" d="M1410.12,-854.87C1376.06,-821.84 1357.72,-805.92 1267.95,-730.3"/>
<polygon fill="#00876c" stroke="#00876c" stroke-width="2" points="1261.49,-724.85 1272.04,-727.86 1263.78,-726.12 1269.46,-730.91 1269.14,-731.3 1268.82,-731.68 1263.13,-726.89 1266.24,-734.74 1261.49,-724.85"/>
</g>
</g>
</svg>
