<?xml version="1.0" encoding="UTF-8" standalone="no"?>
<!DOCTYPE svg PUBLIC "-//W3C//DTD SVG 1.1//EN"
 "http://www.w3.org/Graphics/SVG/1.1/DTD/svg11.dtd">
<!-- Generated by graphviz version 10.0.1 (0)
 -->
<!-- Pages: 1 -->
<svg width="1787pt" height="967pt"
 viewBox="0.00 0.00 1787.00 967.00" xmlns="http://www.w3.org/2000/svg" xmlns:xlink="http://www.w3.org/1999/xlink">
<g id="graph0" class="graph" transform="scale(1 1) rotate(0) translate(4 963)">
<polygon fill="white" stroke="none" points="-4,4 -4,-963 1783,-963 1783,4 -4,4"/>
<!-- 2422 -->
<g id="node1" class="node">
<title>2422</title>
<ellipse fill="none" stroke="#b8bf62" cx="345.76" cy="-822.62" rx="160.87" ry="28.99"/>
<text text-anchor="middle" x="345.76" y="-825.82" font-family="Times,serif" font-size="14.00" fill="gray">SPDXLicense</text>
<text text-anchor="middle" x="345.76" y="-809.32" font-family="Times,serif" font-size="14.00" fill="gray">d5551c3575125963a5f1dd77661e9148</text>
</g>
<!-- 2423 -->
<g id="node2" class="node">
<title>2423</title>
<polygon fill="none" stroke="black" points="799.55,-600.17 799.55,-615.08 747.52,-625.63 673.94,-625.63 621.91,-615.08 621.91,-600.17 673.94,-589.63 747.52,-589.63 799.55,-600.17"/>
<polygon fill="none" stroke="black" points="803.55,-596.9 803.55,-618.36 747.92,-629.63 673.54,-629.63 617.91,-618.36 617.91,-596.9 673.54,-585.63 747.92,-585.63 803.55,-596.9"/>
<polygon fill="none" stroke="black" points="807.55,-593.63 807.55,-621.63 748.32,-633.63 673.14,-633.63 613.91,-621.63 613.91,-593.63 673.14,-581.63 748.32,-581.63 807.55,-593.63"/>
<text text-anchor="middle" x="710.73" y="-602.58" font-family="Times,serif" font-size="14.00">spdx:Knuth&#45;CTAN</text>
</g>
<!-- 2422&#45;&gt;2423 -->
<g id="edge1" class="edge">
<title>2422&#45;&gt;2423</title>
<path fill="none" stroke="#b8bf62" d="M396.22,-794.85C459.02,-760.04 495.09,-738.45 659.16,-638.92"/>
<polygon fill="#b8bf62" stroke="#b8bf62" points="660.58,-642.15 667.31,-633.97 656.95,-636.17 660.58,-642.15"/>
</g>
<!-- 6839 -->
<g id="node6" class="node">
<title>6839</title>
<polygon fill="none" stroke="#e09d4b" points="648.68,-283.92 648.68,-298.83 591.46,-309.38 510.54,-309.38 453.32,-298.83 453.32,-283.92 510.54,-273.38 591.46,-273.38 648.68,-283.92"/>
<polygon fill="none" stroke="#e09d4b" points="652.68,-280.59 652.68,-302.16 591.83,-313.38 510.17,-313.38 449.32,-302.16 449.32,-280.59 510.17,-269.38 591.83,-269.38 652.68,-280.59"/>
<text text-anchor="middle" x="551" y="-286.33" font-family="Times,serif" font-size="14.00">Fedora:Knuth&#45;CTAN</text>
</g>
<!-- 2423&#45;&gt;6839 -->
<g id="edge2" class="edge">
<title>2423&#45;&gt;6839</title>
<path fill="none" stroke="#e09d4b" stroke-width="2" d="M687.01,-581.35C571.23,-452.84 560.95,-435.3 553.19,-324.82"/>
<polygon fill="#e09d4b" stroke="#e09d4b" stroke-width="2" points="552.6,-316.26 557.77,-325.93 553.28,-318.78 553.78,-326.2 553.28,-326.24 552.78,-326.27 552.28,-318.85 548.79,-326.54 552.6,-316.26"/>
</g>
<!-- 44136 -->
<g id="node15" class="node">
<title>44136</title>
<polygon fill="none" stroke="#00876c" points="1303.93,-672.07 1303.93,-686.98 1218.15,-697.53 1096.84,-697.53 1011.06,-686.98 1011.06,-672.07 1096.84,-661.53 1218.15,-661.53 1303.93,-672.07"/>
<polygon fill="none" stroke="#00876c" points="1307.93,-668.53 1307.93,-690.52 1218.39,-701.53 1096.59,-701.53 1007.06,-690.52 1007.06,-668.53 1096.59,-657.53 1218.39,-657.53 1307.93,-668.53"/>
<text text-anchor="middle" x="1157.49" y="-674.48" font-family="Times,serif" font-size="14.00">metaeffekt:Knuth CTAN License</text>
</g>
<!-- 2423&#45;&gt;44136 -->
<g id="edge3" class="edge">
<title>2423&#45;&gt;44136</title>
<path fill="none" stroke="#00876c" stroke-width="2" d="M759.35,-631.83C919.98,-711.41 959.73,-724.73 1066.02,-701.96"/>
<polygon fill="#00876c" stroke="#00876c" stroke-width="2" points="1074.49,-700.09 1065.69,-706.64 1072.09,-701.13 1064.83,-702.74 1064.72,-702.25 1064.62,-701.76 1071.88,-700.16 1063.75,-697.85 1074.49,-700.09"/>
</g>
<!-- 2424 -->
<g id="node3" class="node">
<title>2424</title>
<polygon fill="none" stroke="black" points="841.1,-543.3 841.1,-558.21 801.73,-568.76 746.04,-568.76 706.67,-558.21 706.67,-543.3 746.04,-532.76 801.73,-532.76 841.1,-543.3"/>
<polygon fill="none" stroke="black" points="845.1,-540.23 845.1,-561.28 802.25,-572.76 745.52,-572.76 702.67,-561.28 702.67,-540.23 745.52,-528.76 802.25,-528.76 845.1,-540.23"/>
<text text-anchor="middle" x="773.88" y="-545.71" font-family="Times,serif" font-size="14.00">Knuth&#45;CTAN</text>
</g>
<!-- 2424&#45;&gt;2423 -->
<g id="edge4" class="edge">
<title>2424&#45;&gt;2423</title>
<path fill="none" stroke="black" stroke-width="2" d="M747.22,-573C746.75,-573.4 746.29,-573.79 745.83,-574.17"/>
<polygon fill="black" stroke="black" stroke-width="2" points="739.37,-579.68 744.06,-569.77 741,-577.63 746.66,-572.81 746.98,-573.19 747.31,-573.57 741.65,-578.4 749.9,-576.61 739.37,-579.68"/>
</g>
<!-- 2424&#45;&gt;6839 -->
<g id="edge5" class="edge">
<title>2424&#45;&gt;6839</title>
<path fill="none" stroke="#e09d4b" stroke-width="2" d="M746.76,-528.34C613.12,-417.8 596.19,-400.79 564.24,-324"/>
<polygon fill="#e09d4b" stroke="#e09d4b" stroke-width="2" points="560.97,-316.06 568.94,-323.6 562.41,-318.24 565.24,-325.12 564.77,-325.31 564.31,-325.5 561.48,-318.62 560.61,-327.02 560.97,-316.06"/>
</g>
<!-- 18160 -->
<g id="node10" class="node">
<title>18160</title>
<polygon fill="none" stroke="black" points="1079.11,-618.81 1079.11,-633.72 1024.16,-644.27 946.44,-644.27 891.49,-633.72 891.49,-618.81 946.44,-608.27 1024.16,-608.27 1079.11,-618.81"/>
<polygon fill="none" stroke="black" points="1083.11,-615.5 1083.11,-637.03 1024.54,-648.27 946.06,-648.27 887.49,-637.03 887.49,-615.5 946.06,-604.27 1024.54,-604.27 1083.11,-615.5"/>
<text text-anchor="middle" x="985.3" y="-621.22" font-family="Times,serif" font-size="14.00">scancode:knuth&#45;ctan</text>
</g>
<!-- 2424&#45;&gt;18160 -->
<g id="edge6" class="edge">
<title>2424&#45;&gt;18160</title>
<path fill="none" stroke="black" stroke-width="2" d="M801.44,-573.02C834.88,-599.77 855.39,-614.5 876.56,-622.05"/>
<polygon fill="black" stroke="black" stroke-width="2" points="884.73,-624.51 873.86,-625.94 882.13,-624.25 875.01,-622.11 875.15,-621.63 875.3,-621.15 882.42,-623.29 876.45,-617.32 884.73,-624.51"/>
</g>
<!-- 37028 -->
<g id="node13" class="node">
<title>37028</title>
<polygon fill="none" stroke="#379469" points="749.46,-826.76 749.46,-841.67 697.11,-852.21 623.07,-852.21 570.71,-841.67 570.71,-826.76 623.07,-816.21 697.11,-816.21 749.46,-826.76"/>
<polygon fill="none" stroke="#379469" points="753.46,-823.48 753.46,-844.94 697.51,-856.21 622.67,-856.21 566.71,-844.94 566.71,-823.48 622.67,-812.21 697.51,-812.21 753.46,-823.48"/>
<text text-anchor="middle" x="660.09" y="-829.16" font-family="Times,serif" font-size="14.00">cavil:Knuth&#45;CTAN</text>
</g>
<!-- 2424&#45;&gt;37028 -->
<g id="edge7" class="edge">
<title>2424&#45;&gt;37028</title>
<path fill="none" stroke="#379469" stroke-width="2" d="M762.63,-573.1C690.1,-717.09 679.56,-739.7 666.7,-801.12"/>
<polygon fill="#379469" stroke="#379469" stroke-width="2" points="665.01,-809.38 662.61,-798.68 665.03,-806.77 666.53,-799.48 667.02,-799.58 667.51,-799.68 666.01,-806.97 671.42,-800.49 665.01,-809.38"/>
</g>
<!-- 2424&#45;&gt;44136 -->
<g id="edge8" class="edge">
<title>2424&#45;&gt;44136</title>
<path fill="none" stroke="#00876c" stroke-dasharray="5,2" d="M809.23,-571.35C902.49,-625.61 953.24,-654.05 996.21,-668.33"/>
<polygon fill="#00876c" stroke="#00876c" points="1005.53,-671.22 994.65,-672.56 1001.92,-670.1 995.98,-668.26 995.98,-668.26 995.98,-668.26 1001.92,-670.1 997.31,-663.96 1005.53,-671.22"/>
</g>
<!-- 2425 -->
<g id="node4" class="node">
<title>2425</title>
<polygon fill="none" stroke="black" points="1013.88,-877.2 1013.88,-892.12 955.03,-902.66 871.81,-902.66 812.97,-892.12 812.97,-877.2 871.81,-866.66 955.03,-866.66 1013.88,-877.2"/>
<polygon fill="none" stroke="black" points="1017.88,-873.86 1017.88,-895.46 955.39,-906.66 871.46,-906.66 808.97,-895.46 808.97,-873.86 871.46,-862.66 955.39,-862.66 1017.88,-873.86"/>
<text text-anchor="middle" x="913.42" y="-879.61" font-family="Times,serif" font-size="14.00">Knuth CTAN License</text>
</g>
<!-- 2425&#45;&gt;2423 -->
<g id="edge9" class="edge">
<title>2425&#45;&gt;2423</title>
<path fill="none" stroke="#b8bf62" stroke-width="2" d="M876.54,-862.21C797.97,-813.21 785.14,-791.87 725.53,-644.37"/>
<polygon fill="#b8bf62" stroke="#b8bf62" stroke-width="2" points="722.25,-636.26 730.17,-643.85 723.68,-638.45 726.46,-645.35 726,-645.53 725.53,-645.72 722.75,-638.82 721.82,-647.22 722.25,-636.26"/>
</g>
<!-- 2425&#45;&gt;18160 -->
<g id="edge10" class="edge">
<title>2425&#45;&gt;18160</title>
<path fill="none" stroke="#dac767" stroke-width="2" d="M927.12,-862.25C958.54,-809.91 962.86,-791.12 980.79,-659.51"/>
<polygon fill="#dac767" stroke="#dac767" stroke-width="2" points="981.95,-650.98 985.07,-661.49 982.1,-653.58 981.1,-660.95 980.61,-660.89 980.11,-660.82 981.11,-653.45 976.15,-660.28 981.95,-650.98"/>
</g>
<!-- 2425&#45;&gt;44136 -->
<g id="edge11" class="edge">
<title>2425&#45;&gt;44136</title>
<path fill="none" stroke="#00876c" stroke-width="2" d="M974.53,-865.71C1057.88,-838.02 1075.49,-817.73 1138.77,-711.21"/>
<polygon fill="#00876c" stroke="#00876c" stroke-width="2" points="1143.17,-703.78 1141.95,-714.67 1142.3,-706.24 1138.51,-712.63 1138.08,-712.38 1137.65,-712.12 1141.44,-705.73 1134.2,-710.08 1143.17,-703.78"/>
</g>
<!-- 6838 -->
<g id="node5" class="node">
<title>6838</title>
<ellipse fill="none" stroke="#e09d4b" cx="154.73" cy="-153.3" rx="155.03" ry="28.99"/>
<text text-anchor="middle" x="154.73" y="-156.5" font-family="Times,serif" font-size="14.00" fill="gray">FedoraEntry</text>
<text text-anchor="middle" x="154.73" y="-140" font-family="Times,serif" font-size="14.00" fill="gray">1c207fbe56ab9d18af5336fe9b726f20</text>
</g>
<!-- 6838&#45;&gt;6839 -->
<g id="edge12" class="edge">
<title>6838&#45;&gt;6839</title>
<path fill="none" stroke="#e09d4b" d="M242.27,-177.59C294.58,-193.35 345.34,-212.36 488.04,-267.17"/>
<polygon fill="#e09d4b" stroke="#e09d4b" points="486.47,-270.32 497.06,-270.64 488.98,-263.79 486.47,-270.32"/>
</g>
<!-- 6840 -->
<g id="node7" class="node">
<title>6840</title>
<polygon fill="none" stroke="#e09d4b" points="433.52,-29.8 433.52,-44.71 392.2,-55.26 333.76,-55.26 292.44,-44.71 292.44,-29.8 333.76,-19.26 392.2,-19.26 433.52,-29.8"/>
<text text-anchor="middle" x="362.98" y="-32.21" font-family="Times,serif" font-size="14.00">Knuth License</text>
</g>
<!-- 6840&#45;&gt;6839 -->
<g id="edge13" class="edge">
<title>6840&#45;&gt;6839</title>
<path fill="none" stroke="#e09d4b" stroke-dasharray="5,2" d="M371.68,-55.42C404.16,-122.78 414.87,-137.08 524.1,-260.91"/>
<polygon fill="#e09d4b" stroke="#e09d4b" points="530.63,-268.31 520.64,-263.79 528.13,-265.48 524.02,-260.81 524.02,-260.81 524.02,-260.81 528.13,-265.48 527.39,-257.84 530.63,-268.31"/>
</g>
<!-- 6841 -->
<g id="node8" class="node">
<title>6841</title>
<polygon fill="none" stroke="#e09d4b" points="604.92,-10.3 604.92,-25.21 583.39,-35.75 552.95,-35.75 531.42,-25.21 531.42,-10.3 552.95,0.25 583.39,0.25 604.92,-10.3"/>
<text text-anchor="middle" x="568.17" y="-12.7" font-family="Times,serif" font-size="14.00">Knuth</text>
</g>
<!-- 6841&#45;&gt;6839 -->
<g id="edge14" class="edge">
<title>6841&#45;&gt;6839</title>
<path fill="none" stroke="#e09d4b" stroke-dasharray="5,2" d="M559.3,-36.12C523.47,-110.97 522.48,-125.77 545.2,-257.91"/>
<polygon fill="#e09d4b" stroke="#e09d4b" points="546.89,-267.71 540.76,-258.62 546.25,-263.98 545.19,-257.86 545.19,-257.86 545.19,-257.86 546.25,-263.98 549.63,-257.09 546.89,-267.71"/>
</g>
<!-- 18159 -->
<g id="node9" class="node">
<title>18159</title>
<ellipse fill="none" stroke="#dac767" cx="1060.82" cy="-562.82" rx="153.44" ry="28.99"/>
<text text-anchor="middle" x="1060.82" y="-566.02" font-family="Times,serif" font-size="14.00" fill="gray">ScancodeData</text>
<text text-anchor="middle" x="1060.82" y="-549.52" font-family="Times,serif" font-size="14.00" fill="gray">d2afb4a92e0e50cecff829cf0768d93d</text>
</g>
<!-- 18159&#45;&gt;18160 -->
<g id="edge15" class="edge">
<title>18159&#45;&gt;18160</title>
<path fill="none" stroke="#dac767" d="M1044.74,-592.13C1043.47,-594.03 1042.21,-595.77 1040.91,-597.38"/>
<polygon fill="#dac767" stroke="#dac767" points="1038.56,-594.78 1033.9,-604.3 1043.48,-599.76 1038.56,-594.78"/>
</g>
<!-- 18160&#45;&gt;44136 -->
<g id="edge16" class="edge">
<title>18160&#45;&gt;44136</title>
<path fill="none" stroke="#00876c" stroke-dasharray="5,2" d="M1031.28,-647.27C1039.25,-650.86 1046.39,-654.03 1052.87,-656.84"/>
<polygon fill="#00876c" stroke="#00876c" points="1062.07,-660.75 1051.1,-660.98 1058.59,-659.27 1052.86,-656.84 1052.86,-656.84 1052.86,-656.84 1058.59,-659.27 1054.62,-652.69 1062.07,-660.75"/>
</g>
<!-- 28779 -->
<g id="node11" class="node">
<title>28779</title>
<ellipse fill="none" stroke="#e06f45" cx="316.93" cy="-552.25" rx="158.22" ry="28.99"/>
<text text-anchor="middle" x="316.93" y="-555.45" font-family="Times,serif" font-size="14.00" fill="gray">OrtLicenseCategorization</text>
<text text-anchor="middle" x="316.93" y="-538.95" font-family="Times,serif" font-size="14.00" fill="gray">31d950bf9ff6616315d4b9b7e682e006</text>
</g>
<!-- 28779&#45;&gt;2423 -->
<g id="edge17" class="edge">
<title>28779&#45;&gt;2423</title>
<path fill="none" stroke="#e06f45" d="M386.13,-578.76C438.59,-596.43 480.32,-600.79 602.19,-604.63"/>
<polygon fill="#e06f45" stroke="#e06f45" points="601.83,-608.12 611.93,-604.93 602.04,-601.12 601.83,-608.12"/>
</g>
<!-- 37027 -->
<g id="node12" class="node">
<title>37027</title>
<ellipse fill="none" stroke="#379469" cx="636.45" cy="-893.78" rx="157.68" ry="28.99"/>
<text text-anchor="middle" x="636.45" y="-896.98" font-family="Times,serif" font-size="14.00" fill="gray">CavilLicenseChange</text>
<text text-anchor="middle" x="636.45" y="-880.48" font-family="Times,serif" font-size="14.00" fill="gray">21b7963b7170d592631ff496ecc14f53</text>
</g>
<!-- 37027&#45;&gt;37028 -->
<g id="edge18" class="edge">
<title>37027&#45;&gt;37028</title>
<path fill="none" stroke="#379469" d="M646.32,-864.6C646.38,-864.45 646.45,-864.3 646.51,-864.15"/>
<polygon fill="#379469" stroke="#379469" points="648.4,-868.53 649.26,-857.97 642,-865.68 648.4,-868.53"/>
</g>
<!-- 44135 -->
<g id="node14" class="node">
<title>44135</title>
<ellipse fill="none" stroke="#00876c" cx="1622.07" cy="-778.82" rx="156.62" ry="28.99"/>
<text text-anchor="middle" x="1622.07" y="-782.02" font-family="Times,serif" font-size="14.00" fill="gray">MetaeffektLicense</text>
<text text-anchor="middle" x="1622.07" y="-765.52" font-family="Times,serif" font-size="14.00" fill="gray">d5093a9c80ccd35f3de522c1ece8a90e</text>
</g>
<!-- 44135&#45;&gt;44136 -->
<g id="edge19" class="edge">
<title>44135&#45;&gt;44136</title>
<path fill="none" stroke="#00876c" d="M1480.35,-766.25C1429.27,-757.24 1367.07,-740.15 1240.88,-703.69"/>
<polygon fill="#00876c" stroke="#00876c" points="1242.12,-700.41 1231.54,-700.99 1240.17,-707.13 1242.12,-700.41"/>
</g>
<!-- 44137 -->
<g id="node16" class="node">
<title>44137</title>
<polygon fill="none" stroke="#00876c" points="1476.28,-933.86 1476.28,-948.77 1437.23,-959.31 1382,-959.31 1342.95,-948.77 1342.95,-933.86 1382,-923.31 1437.23,-923.31 1476.28,-933.86"/>
<text text-anchor="middle" x="1409.61" y="-936.26" font-family="Times,serif" font-size="14.00">Knuth CTAN</text>
</g>
<!-- 44137&#45;&gt;44136 -->
<g id="edge20" class="edge">
<title>44137&#45;&gt;44136</title>
<path fill="none" stroke="#00876c" stroke-dasharray="5,2" d="M1394.28,-923.01C1341.79,-860.47 1326.92,-845.2 1188.49,-709.83"/>
<polygon fill="#00876c" stroke="#00876c" points="1181.37,-702.87 1191.67,-706.65 1184.08,-705.52 1188.52,-709.87 1188.52,-709.87 1188.52,-709.87 1184.08,-705.52 1185.38,-713.08 1181.37,-702.87"/>
</g>
<!-- 44138 -->
<g id="node17" class="node">
<title>44138</title>
<polygon fill="none" stroke="#00876c" points="1674.62,-479.95 1674.62,-494.87 1599.55,-505.41 1493.39,-505.41 1418.32,-494.87 1418.32,-479.95 1493.39,-469.41 1599.55,-469.41 1674.62,-479.95"/>
<text text-anchor="middle" x="1546.47" y="-482.36" font-family="Times,serif" font-size="14.00">https://ctan.org/license/knuth</text>
</g>
<!-- 44138&#45;&gt;44136 -->
<g id="edge21" class="edge">
<title>44138&#45;&gt;44136</title>
<path fill="none" stroke="#00876c" stroke-dasharray="5,2" d="M1528.79,-505.89C1447.01,-591.02 1425.58,-604.51 1242.81,-655.86"/>
<polygon fill="#00876c" stroke="#00876c" points="1233.45,-658.48 1241.86,-651.45 1237.09,-657.46 1243.08,-655.78 1243.08,-655.78 1243.08,-655.78 1237.09,-657.46 1244.29,-660.12 1233.45,-658.48"/>
</g>
</g>
</svg>
