<?xml version="1.0" encoding="UTF-8" standalone="no"?>
<!DOCTYPE svg PUBLIC "-//W3C//DTD SVG 1.1//EN"
 "http://www.w3.org/Graphics/SVG/1.1/DTD/svg11.dtd">
<!-- Generated by graphviz version 10.0.1 (0)
 -->
<!-- Pages: 1 -->
<svg width="5783pt" height="3483pt"
 viewBox="0.00 0.00 5783.00 3483.00" xmlns="http://www.w3.org/2000/svg" xmlns:xlink="http://www.w3.org/1999/xlink">
<g id="graph0" class="graph" transform="scale(1 1) rotate(0) translate(4 3479)">
<polygon fill="white" stroke="none" points="-4,4 -4,-3479 5779,-3479 5779,4 -4,4"/>
<!-- 5 -->
<g id="node1" class="node">
<title>5</title>
<text text-anchor="start" x="640.66" y="-651.32" font-family="Times,serif" font-size="14.00">OSI: </text>
<text text-anchor="start" x="669.91" y="-651.32" font-family="Times,serif" font-weight="bold" font-size="14.00" fill="#8b0000">Rejected</text>
</g>
<!-- 2945 -->
<g id="node2" class="node">
<title>2945</title>
<ellipse fill="none" stroke="#dac767" cx="1160.17" cy="-1144.31" rx="153.97" ry="28.99"/>
<text text-anchor="middle" x="1160.17" y="-1147.51" font-family="Times,serif" font-size="14.00" fill="gray">SPDXLicense</text>
<text text-anchor="middle" x="1160.17" y="-1131.01" font-family="Times,serif" font-size="14.00" fill="gray">e1471b47435ff3bf724666ffeaba8840</text>
</g>
<!-- 5&#45;&gt;2945 -->
<g id="edge1" class="edge">
<title>5&#45;&gt;2945</title>
<path fill="none" stroke="#dac767" d="M691.08,-673.23C790.15,-839 804.88,-854.66 1116.22,-1108.49"/>
<polygon fill="#dac767" stroke="#dac767" points="1113.9,-1111.12 1123.87,-1114.73 1118.33,-1105.69 1113.9,-1111.12"/>
</g>
<!-- 2946 -->
<g id="node3" class="node">
<title>2946</title>
<polygon fill="none" stroke="black" points="2412.55,-1609.94 2412.55,-1624.85 2374.15,-1635.39 2319.84,-1635.39 2281.44,-1624.85 2281.44,-1609.94 2319.84,-1599.39 2374.15,-1599.39 2412.55,-1609.94"/>
<polygon fill="none" stroke="black" points="2416.55,-1606.89 2416.55,-1627.9 2374.69,-1639.39 2319.3,-1639.39 2277.44,-1627.9 2277.44,-1606.89 2319.3,-1595.39 2374.69,-1595.39 2416.55,-1606.89"/>
<polygon fill="none" stroke="black" points="2420.55,-1603.84 2420.55,-1630.95 2375.23,-1643.39 2318.76,-1643.39 2273.44,-1630.95 2273.44,-1603.84 2318.76,-1591.39 2375.23,-1591.39 2420.55,-1603.84"/>
<text text-anchor="middle" x="2347" y="-1612.34" font-family="Times,serif" font-size="14.00">spdx:Latex2e</text>
</g>
<!-- 2945&#45;&gt;2946 -->
<g id="edge2" class="edge">
<title>2945&#45;&gt;2946</title>
<path fill="none" stroke="#dac767" d="M1219.64,-1171.48C1504.75,-1301.62 1557.31,-1321.93 2283.51,-1593.64"/>
<polygon fill="#dac767" stroke="#dac767" points="2282.24,-1596.9 2292.83,-1597.13 2284.7,-1590.35 2282.24,-1596.9"/>
</g>
<!-- 7829 -->
<g id="node13" class="node">
<title>7829</title>
<polygon fill="none" stroke="#e09d4b" points="2943.44,-1580.26 2943.44,-1595.17 2899.85,-1605.72 2838.2,-1605.72 2794.61,-1595.17 2794.61,-1580.26 2838.2,-1569.72 2899.85,-1569.72 2943.44,-1580.26"/>
<polygon fill="none" stroke="#e09d4b" points="2947.44,-1577.11 2947.44,-1598.32 2900.33,-1609.72 2837.72,-1609.72 2790.61,-1598.32 2790.61,-1577.11 2837.72,-1565.72 2900.33,-1565.72 2947.44,-1577.11"/>
<text text-anchor="middle" x="2869.03" y="-1582.67" font-family="Times,serif" font-size="14.00">Fedora:Latex2e</text>
</g>
<!-- 2946&#45;&gt;7829 -->
<g id="edge3" class="edge">
<title>2946&#45;&gt;7829</title>
<path fill="none" stroke="#e09d4b" stroke-width="2" d="M2401.19,-1598.09C2506.67,-1561.79 2548.03,-1560.59 2779.33,-1580.04"/>
<polygon fill="#e09d4b" stroke="#e09d4b" stroke-width="2" points="2788.07,-1580.78 2777.72,-1584.42 2785.47,-1581.06 2778.06,-1580.43 2778.1,-1579.94 2778.14,-1579.44 2785.55,-1580.06 2778.48,-1575.45 2788.07,-1580.78"/>
</g>
<!-- 20007 -->
<g id="node16" class="node">
<title>20007</title>
<polygon fill="none" stroke="black" points="2943.87,-2157.16 2943.87,-2172.07 2897.03,-2182.62 2830.79,-2182.62 2783.95,-2172.07 2783.95,-2157.16 2830.79,-2146.62 2897.03,-2146.62 2943.87,-2157.16"/>
<polygon fill="none" stroke="black" points="2947.87,-2153.96 2947.87,-2175.27 2897.47,-2186.62 2830.34,-2186.62 2779.95,-2175.27 2779.95,-2153.96 2830.34,-2142.62 2897.47,-2142.62 2947.87,-2153.96"/>
<text text-anchor="middle" x="2863.91" y="-2159.57" font-family="Times,serif" font-size="14.00">scancode:latex2e</text>
</g>
<!-- 2946&#45;&gt;20007 -->
<g id="edge4" class="edge">
<title>2946&#45;&gt;20007</title>
<path fill="none" stroke="#deb256" stroke-width="2" d="M2367.7,-1643.67C2447.21,-1734.93 2732.75,-2037.42 2830.71,-2134.44"/>
<polygon fill="#deb256" stroke="#deb256" stroke-width="2" points="2836.78,-2140.42 2826.5,-2136.61 2834.6,-2138.97 2829.3,-2133.76 2829.66,-2133.4 2830.01,-2133.04 2835.31,-2138.26 2832.81,-2130.19 2836.78,-2140.42"/>
</g>
<!-- 51571 -->
<g id="node34" class="node">
<title>51571</title>
<polygon fill="none" stroke="#379469" points="3106.54,-1989.88 3106.54,-2004.79 3034.06,-2015.34 2931.57,-2015.34 2859.09,-2004.79 2859.09,-1989.88 2931.57,-1979.34 3034.06,-1979.34 3106.54,-1989.88"/>
<polygon fill="none" stroke="#379469" points="3110.54,-1986.42 3110.54,-2008.25 3034.35,-2019.34 2931.28,-2019.34 2855.09,-2008.25 2855.09,-1986.42 2931.28,-1975.34 3034.35,-1975.34 3110.54,-1986.42"/>
<text text-anchor="middle" x="2982.82" y="-1992.29" font-family="Times,serif" font-size="14.00">metaeffekt:Latex2e License</text>
</g>
<!-- 2946&#45;&gt;51571 -->
<g id="edge5" class="edge">
<title>2946&#45;&gt;51571</title>
<path fill="none" stroke="#379469" stroke-width="2" d="M2366.92,-1643.8C2514.81,-1839.45 2538.93,-1856.03 2907.75,-1973.5"/>
<polygon fill="#379469" stroke="#379469" stroke-width="2" points="2915.88,-1976.09 2904.99,-1977.35 2913.29,-1975.79 2906.2,-1973.53 2906.36,-1973.06 2906.51,-1972.58 2913.59,-1974.84 2907.72,-1968.77 2915.88,-1976.09"/>
</g>
<!-- 2947 -->
<g id="node4" class="node">
<title>2947</title>
<polygon fill="none" stroke="black" points="2554.13,-2052.78 2554.13,-2067.69 2528.38,-2078.23 2491.97,-2078.23 2466.23,-2067.69 2466.23,-2052.78 2491.97,-2042.23 2528.38,-2042.23 2554.13,-2052.78"/>
<polygon fill="none" stroke="black" points="2558.13,-2050.09 2558.13,-2070.37 2529.17,-2082.23 2491.19,-2082.23 2462.23,-2070.37 2462.23,-2050.09 2491.19,-2038.23 2529.17,-2038.23 2558.13,-2050.09"/>
<text text-anchor="middle" x="2510.18" y="-2055.18" font-family="Times,serif" font-size="14.00">Latex2e</text>
</g>
<!-- 2947&#45;&gt;2946 -->
<g id="edge6" class="edge">
<title>2947&#45;&gt;2946</title>
<path fill="none" stroke="black" stroke-width="2" d="M2490.84,-2037.84C2345.14,-1868.9 2337.27,-1851.39 2345.39,-1654.68"/>
<polygon fill="black" stroke="black" stroke-width="2" points="2345.75,-1646.07 2349.83,-1656.25 2346.15,-1648.65 2345.83,-1656.08 2345.33,-1656.06 2344.84,-1656.04 2345.15,-1648.61 2340.84,-1655.87 2345.75,-1646.07"/>
</g>
<!-- 2947&#45;&gt;7829 -->
<g id="edge7" class="edge">
<title>2947&#45;&gt;7829</title>
<path fill="none" stroke="#e09d4b" stroke-width="2" d="M2518.54,-2037.93C2578.97,-1877.32 2591.75,-1860.92 2838.81,-1617.48"/>
<polygon fill="#e09d4b" stroke="#e09d4b" stroke-width="2" points="2844.82,-1611.55 2840.86,-1621.77 2843.35,-1613.71 2838.05,-1618.92 2837.7,-1618.57 2837.35,-1618.21 2842.65,-1612.99 2834.54,-1615.36 2844.82,-1611.55"/>
</g>
<!-- 2947&#45;&gt;20007 -->
<g id="edge8" class="edge">
<title>2947&#45;&gt;20007</title>
<path fill="none" stroke="black" stroke-width="2" d="M2534.5,-2080.26C2630.5,-2158.95 2656.65,-2173.43 2768.72,-2169.68"/>
<polygon fill="black" stroke="black" stroke-width="2" points="2777.4,-2169.36 2767.58,-2174.23 2774.86,-2169.95 2767.43,-2170.23 2767.41,-2169.73 2767.39,-2169.23 2774.82,-2168.95 2767.24,-2165.24 2777.4,-2169.36"/>
</g>
<!-- 34822 -->
<g id="node20" class="node">
<title>34822</title>
<polygon fill="none" stroke="#e18745" points="2145.4,-1639.55 2145.4,-1654.46 2095.32,-1665 2024.49,-1665 1974.41,-1654.46 1974.41,-1639.55 2024.49,-1629 2095.32,-1629 2145.4,-1639.55"/>
<polygon fill="none" stroke="#e18745" points="2149.4,-1636.3 2149.4,-1657.7 2095.73,-1669 2024.07,-1669 1970.41,-1657.7 1970.41,-1636.3 2024.07,-1625 2095.73,-1625 2149.4,-1636.3"/>
<text text-anchor="middle" x="2059.9" y="-1641.95" font-family="Times,serif" font-size="14.00">fossology:Latex2e</text>
</g>
<!-- 2947&#45;&gt;34822 -->
<g id="edge9" class="edge">
<title>2947&#45;&gt;34822</title>
<path fill="none" stroke="#e18745" stroke-width="2" d="M2478.34,-2043.31C2180.95,-1885.05 2162.83,-1870.6 2074.81,-1679.51"/>
<polygon fill="#e18745" stroke="#e18745" stroke-width="2" points="2071.17,-1671.59 2079.43,-1678.8 2072.69,-1673.71 2075.8,-1680.47 2075.35,-1680.68 2074.89,-1680.89 2071.78,-1674.13 2071.26,-1682.56 2071.17,-1671.59"/>
</g>
<!-- 41788 -->
<g id="node31" class="node">
<title>41788</title>
<polygon fill="none" stroke="#379469" points="2751.06,-2549.63 2751.06,-2564.54 2712.33,-2575.08 2657.57,-2575.08 2618.84,-2564.54 2618.84,-2549.63 2657.57,-2539.08 2712.33,-2539.08 2751.06,-2549.63"/>
<polygon fill="none" stroke="#379469" points="2755.06,-2546.57 2755.06,-2567.6 2712.87,-2579.08 2657.03,-2579.08 2614.84,-2567.6 2614.84,-2546.57 2657.03,-2535.08 2712.87,-2535.08 2755.06,-2546.57"/>
<text text-anchor="middle" x="2684.95" y="-2552.03" font-family="Times,serif" font-size="14.00">cavil:Latex2e</text>
</g>
<!-- 2947&#45;&gt;41788 -->
<g id="edge10" class="edge">
<title>2947&#45;&gt;41788</title>
<path fill="none" stroke="#379469" stroke-width="2" d="M2512.74,-2082.31C2547.26,-2379.56 2552.25,-2403.86 2658.32,-2526.52"/>
<polygon fill="#379469" stroke="#379469" stroke-width="2" points="2663.86,-2532.9 2653.91,-2528.3 2661.8,-2531.3 2656.93,-2525.68 2657.31,-2525.35 2657.68,-2525.02 2662.56,-2530.64 2660.71,-2522.4 2663.86,-2532.9"/>
</g>
<!-- 2947&#45;&gt;51571 -->
<g id="edge11" class="edge">
<title>2947&#45;&gt;51571</title>
<path fill="none" stroke="#379469" stroke-dasharray="5,2" d="M2553.95,-2072.35C2693.16,-2110.15 2722.73,-2106.27 2919.89,-2023.82"/>
<polygon fill="#379469" stroke="#379469" points="2928.89,-2020.05 2921.41,-2028.07 2925.4,-2021.51 2919.67,-2023.91 2919.67,-2023.91 2919.67,-2023.91 2925.4,-2021.51 2917.93,-2019.76 2928.89,-2020.05"/>
</g>
<!-- 60015 -->
<g id="node37" class="node">
<title>60015</title>
<polygon fill="none" stroke="#b8bf62" points="2439.03,-2677.9 2439.03,-2692.81 2364.28,-2703.36 2258.57,-2703.36 2183.83,-2692.81 2183.83,-2677.9 2258.57,-2667.36 2364.28,-2667.36 2439.03,-2677.9"/>
<polygon fill="none" stroke="#b8bf62" points="2443.03,-2674.43 2443.03,-2696.29 2364.56,-2707.36 2258.29,-2707.36 2179.83,-2696.29 2179.83,-2674.43 2258.29,-2663.36 2364.56,-2663.36 2443.03,-2674.43"/>
<text text-anchor="middle" x="2311.43" y="-2680.31" font-family="Times,serif" font-size="14.00">foss&#45;license:Latex2e License</text>
</g>
<!-- 2947&#45;&gt;60015 -->
<g id="edge12" class="edge">
<title>2947&#45;&gt;60015</title>
<path fill="none" stroke="#b8bf62" stroke-width="2" d="M2500.7,-2082.46C2341.81,-2454.94 2332.29,-2479.75 2314.78,-2651.89"/>
<polygon fill="#b8bf62" stroke="#b8bf62" stroke-width="2" points="2313.91,-2660.48 2310.44,-2650.08 2313.67,-2657.88 2314.42,-2650.48 2314.91,-2650.53 2315.41,-2650.58 2314.66,-2657.98 2319.39,-2650.98 2313.91,-2660.48"/>
</g>
<!-- 2948 -->
<g id="node5" class="node">
<title>2948</title>
<polygon fill="none" stroke="black" points="2445.99,-1976.13 2445.99,-1991.04 2400.45,-2001.59 2336.05,-2001.59 2290.51,-1991.04 2290.51,-1976.13 2336.05,-1965.59 2400.45,-1965.59 2445.99,-1976.13"/>
<polygon fill="none" stroke="black" points="2449.99,-1972.95 2449.99,-1994.22 2400.91,-2005.59 2335.59,-2005.59 2286.51,-1994.22 2286.51,-1972.95 2335.59,-1961.59 2400.91,-1961.59 2449.99,-1972.95"/>
<text text-anchor="middle" x="2368.25" y="-1978.54" font-family="Times,serif" font-size="14.00">Latex2e License</text>
</g>
<!-- 2948&#45;&gt;2946 -->
<g id="edge13" class="edge">
<title>2948&#45;&gt;2946</title>
<path fill="none" stroke="#dac767" stroke-width="2" d="M2357.5,-1961.1C2290.06,-1819.6 2287.57,-1802.44 2335.18,-1653.94"/>
<polygon fill="#dac767" stroke="#dac767" stroke-width="2" points="2337.79,-1645.82 2339.02,-1656.71 2337.49,-1648.41 2335.21,-1655.49 2334.73,-1655.33 2334.26,-1655.18 2336.53,-1648.1 2330.45,-1653.96 2337.79,-1645.82"/>
</g>
<!-- 2948&#45;&gt;7829 -->
<g id="edge14" class="edge">
<title>2948&#45;&gt;7829</title>
<path fill="none" stroke="#e09d4b" stroke-dasharray="5,2" d="M2384.01,-1961.44C2488.86,-1814.51 2507.92,-1799.57 2823.43,-1614.45"/>
<polygon fill="#e09d4b" stroke="#e09d4b" points="2831.8,-1609.54 2825.45,-1618.48 2828.54,-1611.45 2823.18,-1614.6 2823.18,-1614.6 2823.18,-1614.6 2828.54,-1611.45 2820.9,-1610.72 2831.8,-1609.54"/>
</g>
<!-- 2948&#45;&gt;20007 -->
<g id="edge15" class="edge">
<title>2948&#45;&gt;20007</title>
<path fill="none" stroke="#deb256" stroke-width="2" d="M2391.67,-2005.83C2531.6,-2138.4 2558.69,-2154.43 2768.38,-2161.83"/>
<polygon fill="#deb256" stroke="#deb256" stroke-width="2" points="2777.05,-2162.13 2766.9,-2166.28 2774.47,-2162.54 2767.04,-2162.28 2767.06,-2161.78 2767.07,-2161.29 2774.51,-2161.54 2767.21,-2157.29 2777.05,-2162.13"/>
</g>
<!-- 2948&#45;&gt;34822 -->
<g id="edge16" class="edge">
<title>2948&#45;&gt;34822</title>
<path fill="none" stroke="#e18745" stroke-width="2" d="M2334.1,-1961.56C2137.63,-1834.64 2121.66,-1818.77 2071.55,-1679.65"/>
<polygon fill="#e18745" stroke="#e18745" stroke-width="2" points="2068.7,-1671.72 2076.31,-1679.61 2070.04,-1673.96 2072.55,-1680.96 2072.08,-1681.13 2071.61,-1681.3 2069.1,-1674.3 2067.84,-1682.65 2068.7,-1671.72"/>
</g>
<!-- 2948&#45;&gt;51571 -->
<g id="edge17" class="edge">
<title>2948&#45;&gt;51571</title>
<path fill="none" stroke="#379469" stroke-width="2" d="M2412.95,-2003.29C2581.34,-2076.8 2617.55,-2078.91 2891.54,-2017.88"/>
<polygon fill="#379469" stroke="#379469" stroke-width="2" points="2899.85,-2016.03 2891.07,-2022.6 2897.46,-2017.08 2890.2,-2018.7 2890.09,-2018.21 2889.98,-2017.72 2897.24,-2016.1 2889.11,-2013.82 2899.85,-2016.03"/>
</g>
<!-- 2948&#45;&gt;60015 -->
<g id="edge18" class="edge">
<title>2948&#45;&gt;60015</title>
<path fill="none" stroke="#b8bf62" stroke-width="2" d="M2362.2,-2005.86C2250.23,-2417.83 2245.92,-2441 2302.54,-2652.38"/>
<polygon fill="#b8bf62" stroke="#b8bf62" stroke-width="2" points="2304.74,-2660.57 2297.8,-2652.08 2303.59,-2658.22 2301.66,-2651.04 2302.14,-2650.91 2302.63,-2650.78 2304.56,-2657.96 2306.49,-2649.74 2304.74,-2660.57"/>
</g>
<!-- 67683 -->
<g id="node42" class="node">
<title>67683</title>
<polygon fill="none" stroke="#00876c" points="2037.71,-1997.98 2037.71,-2012.89 1979.51,-2023.43 1897.21,-2023.43 1839.01,-2012.89 1839.01,-1997.98 1897.21,-1987.43 1979.51,-1987.43 2037.71,-1997.98"/>
<polygon fill="none" stroke="#00876c" points="2041.71,-1994.63 2041.71,-2016.23 1979.87,-2027.43 1896.85,-2027.43 1835.01,-2016.23 1835.01,-1994.63 1896.85,-1983.43 1979.87,-1983.43 2041.71,-1994.63"/>
<text text-anchor="middle" x="1938.36" y="-2000.38" font-family="Times,serif" font-size="14.00">spdx:Latex2e License</text>
</g>
<!-- 2948&#45;&gt;67683 -->
<g id="edge19" class="edge">
<title>2948&#45;&gt;67683</title>
<path fill="none" stroke="#00876c" stroke-width="2" d="M2286.01,-1994.48C2158.92,-2011.17 2102.54,-2017.45 2053.02,-2016.57"/>
<polygon fill="#00876c" stroke="#00876c" stroke-width="2" points="2044.31,-2016.31 2054.44,-2012.11 2046.89,-2015.89 2054.32,-2016.1 2054.3,-2016.6 2054.29,-2017.1 2046.86,-2016.89 2054.17,-2021.1 2044.31,-2016.31"/>
</g>
<!-- 2949 -->
<g id="node6" class="node">
<title>2949</title>
<text text-anchor="middle" x="400.13" y="-982.12" font-family="Times,serif" font-size="14.00">$TEXT</text>
</g>
<!-- 2949&#45;&gt;2945 -->
<g id="edge20" class="edge">
<title>2949&#45;&gt;2945</title>
<path fill="none" stroke="#dac767" d="M428.52,-991.02C617.6,-1016.7 650.34,-1023.02 1052.63,-1118.71"/>
<polygon fill="#dac767" stroke="#dac767" points="1051.72,-1122.09 1062.25,-1121 1053.34,-1115.28 1051.72,-1122.09"/>
</g>
<!-- 2950 -->
<g id="node7" class="node">
<title>2950</title>
<text text-anchor="middle" x="28.25" y="-877.39" font-family="Times,serif" font-size="14.00">$TEXT</text>
</g>
<!-- 2950&#45;&gt;2949 -->
<g id="edge21" class="edge">
<title>2950&#45;&gt;2949</title>
<path fill="none" stroke="#dac767" d="M56.81,-890.14C137.39,-911.87 161.51,-918.71 360.67,-975.85"/>
<polygon fill="#dac767" stroke="#dac767" points="359.5,-979.15 370.08,-978.55 361.43,-972.43 359.5,-979.15"/>
</g>
<!-- 2951 -->
<g id="node8" class="node">
<title>2951</title>
<text text-anchor="middle" x="2417.8" y="-936.24" font-family="Times,serif" font-size="14.00">https://fedoraproject.org/wiki/Licensing/Latex2e</text>
</g>
<!-- 2951&#45;&gt;2945 -->
<g id="edge22" class="edge">
<title>2951&#45;&gt;2945</title>
<path fill="none" stroke="#dac767" d="M2278.41,-935.62C1609.03,-908.9 1553.75,-919.24 1218.18,-1111.02"/>
<polygon fill="#dac767" stroke="#dac767" points="1216.93,-1107.7 1209.99,-1115.71 1220.41,-1113.78 1216.93,-1107.7"/>
</g>
<!-- 7828 -->
<g id="node12" class="node">
<title>7828</title>
<ellipse fill="none" stroke="#e09d4b" cx="4508.87" cy="-925.04" rx="159.81" ry="28.99"/>
<text text-anchor="middle" x="4508.87" y="-928.24" font-family="Times,serif" font-size="14.00" fill="gray">FedoraEntry</text>
<text text-anchor="middle" x="4508.87" y="-911.74" font-family="Times,serif" font-size="14.00" fill="gray">2ba1b750e184deed5175875abd6908f8</text>
</g>
<!-- 2951&#45;&gt;7828 -->
<g id="edge23" class="edge">
<title>2951&#45;&gt;7828</title>
<path fill="none" stroke="#e09d4b" d="M2484.14,-923.38C3666.6,-604.13 3718.56,-598.89 4433.16,-893.74"/>
<polygon fill="#e09d4b" stroke="#e09d4b" points="4431.75,-896.95 4442.33,-897.53 4434.42,-890.48 4431.75,-896.95"/>
</g>
<!-- 34821 -->
<g id="node19" class="node">
<title>34821</title>
<ellipse fill="none" stroke="#e18745" cx="1095.57" cy="-987.53" rx="159.28" ry="28.99"/>
<text text-anchor="middle" x="1095.57" y="-990.73" font-family="Times,serif" font-size="14.00" fill="gray">Fossology</text>
<text text-anchor="middle" x="1095.57" y="-974.23" font-family="Times,serif" font-size="14.00" fill="gray">2c0293a142b7b5cca52628b996a9ac2a</text>
</g>
<!-- 2951&#45;&gt;34821 -->
<g id="edge24" class="edge">
<title>2951&#45;&gt;34821</title>
<path fill="none" stroke="#e18745" d="M2292.19,-923.3C1587.4,-822.68 1522.14,-823.13 1174.57,-956.87"/>
<polygon fill="#e18745" stroke="#e18745" points="1173.42,-953.56 1165.35,-960.43 1175.94,-960.09 1173.42,-953.56"/>
</g>
<!-- 5550 -->
<g id="node9" class="node">
<title>5550</title>
<text text-anchor="middle" x="4373.1" y="-2769.87" font-family="Times,serif" font-size="14.00">LicenseType Permissive</text>
</g>
<!-- 20006 -->
<g id="node15" class="node">
<title>20006</title>
<ellipse fill="none" stroke="#deb256" cx="3822.55" cy="-2476.37" rx="157.15" ry="28.99"/>
<text text-anchor="middle" x="3822.55" y="-2479.57" font-family="Times,serif" font-size="14.00" fill="gray">ScancodeData</text>
<text text-anchor="middle" x="3822.55" y="-2463.07" font-family="Times,serif" font-size="14.00" fill="gray">c709c82e6c59f29a3b0ded40a923127f</text>
</g>
<!-- 5550&#45;&gt;20006 -->
<g id="edge25" class="edge">
<title>5550&#45;&gt;20006</title>
<path fill="none" stroke="#deb256" d="M4331.68,-2757.02C4203.91,-2701.52 4170.27,-2682.73 3879.38,-2510.11"/>
<polygon fill="#deb256" stroke="#deb256" points="3881.5,-2507.29 3871.11,-2505.2 3877.92,-2513.31 3881.5,-2507.29"/>
</g>
<!-- 6592 -->
<g id="node10" class="node">
<title>6592</title>
<text text-anchor="middle" x="5187.4" y="-538.04" font-family="Times,serif" font-size="14.00">[&quot;allowed&quot;]</text>
</g>
<!-- 6592&#45;&gt;7828 -->
<g id="edge26" class="edge">
<title>6592&#45;&gt;7828</title>
<path fill="none" stroke="#e09d4b" d="M5157.5,-560.97C4993.51,-659.02 4964.34,-675.39 4569.69,-891.7"/>
<polygon fill="#e09d4b" stroke="#e09d4b" points="4568.12,-888.58 4561.03,-896.45 4571.49,-894.71 4568.12,-888.58"/>
</g>
<!-- 6593 -->
<g id="node11" class="node">
<title>6593</title>
<text text-anchor="start" x="5507.3" y="-103.34" font-family="Times,serif" font-size="14.00">Fedora: </text>
<text text-anchor="start" x="5552.3" y="-103.34" font-family="Times,serif" font-weight="bold" font-size="14.00" fill="#228b22">allowed</text>
<text text-anchor="start" x="5343.43" y="-89.34" font-family="Times,serif" font-size="14.00">A license is allowed if Fedora determines that the license is a free software /</text>
<text text-anchor="start" x="5338.18" y="-75.34" font-family="Times,serif" font-size="14.00">open source license. At a high level, the inquiry involves determining whether</text>
<text text-anchor="start" x="5337.05" y="-61.34" font-family="Times,serif" font-size="14.00">the license provides software freedom, and (equivalently) making sure that the</text>
<text text-anchor="start" x="5347.18" y="-47.34" font-family="Times,serif" font-size="14.00">license does not place burdens on users&#39; exercise of its permissions that are</text>
<text text-anchor="start" x="5346.8" y="-33.34" font-family="Times,serif" font-size="14.00">inconsistent with evolving community norms and traditions around what is</text>
<text text-anchor="start" x="5338.55" y="-19.34" font-family="Times,serif" font-size="14.00">acceptable in a free software / open source license. See below for more on the</text>
<text text-anchor="start" x="5458.55" y="-5.34" font-family="Times,serif" font-size="14.00">history of Fedora licensing policy.</text>
</g>
<!-- 6593&#45;&gt;6592 -->
<g id="edge27" class="edge">
<title>6593&#45;&gt;6592</title>
<path fill="none" stroke="#e09d4b" d="M5525.99,-119.58C5471.96,-241.1 5441.02,-275.89 5212.25,-516.92"/>
<polygon fill="#e09d4b" stroke="#e09d4b" points="5209.76,-514.45 5205.41,-524.12 5214.84,-519.27 5209.76,-514.45"/>
</g>
<!-- 7828&#45;&gt;7829 -->
<g id="edge28" class="edge">
<title>7828&#45;&gt;7829</title>
<path fill="none" stroke="#e09d4b" d="M4423.04,-949.88C3995.78,-1073.93 3928.64,-1103.4 2922.23,-1563.4"/>
<polygon fill="#e09d4b" stroke="#e09d4b" points="2920.86,-1560.18 2913.22,-1567.52 2923.77,-1566.54 2920.86,-1560.18"/>
</g>
<!-- 12496 -->
<g id="node14" class="node">
<title>12496</title>
<text text-anchor="middle" x="4723.77" y="-2552.58" font-family="Times,serif" font-size="14.00">ScancodeData:</text>
<text text-anchor="middle" x="4723.77" y="-2536.08" font-family="Times,serif" font-size="14.00">the latext2e, verbatim&#45;manual and abstyles are similar licenses</text>
</g>
<!-- 12496&#45;&gt;20006 -->
<g id="edge29" class="edge">
<title>12496&#45;&gt;20006</title>
<path fill="none" stroke="#deb256" d="M4602.9,-2569.83C4430.98,-2595.73 4348.43,-2583.8 3939.89,-2500.41"/>
<polygon fill="#deb256" stroke="#deb256" points="3940.61,-2496.98 3930.12,-2498.41 3939.21,-2503.84 3940.61,-2496.98"/>
</g>
<!-- 20006&#45;&gt;20007 -->
<g id="edge30" class="edge">
<title>20006&#45;&gt;20007</title>
<path fill="none" stroke="#deb256" d="M3665.27,-2476.04C3456.81,-2470.14 3369.18,-2427.99 2914.08,-2190.78"/>
<polygon fill="#deb256" stroke="#deb256" points="2915.77,-2187.71 2905.28,-2186.19 2912.53,-2193.92 2915.77,-2187.71"/>
</g>
<!-- 20007&#45;&gt;2946 -->
<g id="edge31" class="edge">
<title>20007&#45;&gt;2946</title>
<path fill="none" stroke="#00876c" stroke-width="2" d="M2846.6,-2142.26C2773.16,-2057.21 2487.12,-1754 2384.14,-1651.49"/>
<polygon fill="#00876c" stroke="#00876c" stroke-width="2" points="2377.91,-1645.33 2388.18,-1649.16 2380.09,-1646.77 2385.37,-1652.01 2385.02,-1652.36 2384.67,-1652.72 2379.38,-1647.48 2381.85,-1655.56 2377.91,-1645.33"/>
</g>
<!-- 20007&#45;&gt;51571 -->
<g id="edge32" class="edge">
<title>20007&#45;&gt;51571</title>
<path fill="none" stroke="#379469" stroke-dasharray="5,2" d="M2895.85,-2142.43C2925.83,-2119.75 2936.34,-2101.42 2968.44,-2029.68"/>
<polygon fill="#379469" stroke="#379469" points="2972.4,-2020.8 2972.43,-2031.77 2970.86,-2024.25 2968.32,-2029.93 2968.32,-2029.93 2968.32,-2029.93 2970.86,-2024.25 2964.21,-2028.1 2972.4,-2020.8"/>
</g>
<!-- 20007&#45;&gt;60015 -->
<g id="edge33" class="edge">
<title>20007&#45;&gt;60015</title>
<path fill="none" stroke="#b8bf62" stroke-width="2" d="M2845.02,-2187.01C2553.68,-2532.45 2525.77,-2563.44 2360.74,-2657.51"/>
<polygon fill="#b8bf62" stroke="#b8bf62" stroke-width="2" points="2353.35,-2661.71 2359.82,-2652.86 2355.33,-2660.01 2361.79,-2656.34 2362.04,-2656.77 2362.29,-2657.21 2355.82,-2660.88 2364.26,-2660.68 2353.35,-2661.71"/>
</g>
<!-- 20008 -->
<g id="node17" class="node">
<title>20008</title>
<text text-anchor="middle" x="3955.3" y="-3209.03" font-family="Times,serif" font-size="14.00">https://fedoraproject.org/wiki/Licensing/Latex2e</text>
</g>
<!-- 20008&#45;&gt;20006 -->
<g id="edge34" class="edge">
<title>20008&#45;&gt;20006</title>
<path fill="none" stroke="#deb256" d="M3957.64,-3196.38C3988.43,-2963.22 3985.74,-2946.02 3836.5,-2516.51"/>
<polygon fill="#deb256" stroke="#deb256" points="3839.81,-2515.36 3833.22,-2507.06 3833.2,-2517.66 3839.81,-2515.36"/>
</g>
<!-- 20009 -->
<g id="node18" class="node">
<title>20009</title>
<text text-anchor="middle" x="4411.26" y="-2378.31" font-family="Times,serif" font-size="14.00">$TEXT</text>
</g>
<!-- 20009&#45;&gt;20006 -->
<g id="edge35" class="edge">
<title>20009&#45;&gt;20006</title>
<path fill="none" stroke="#deb256" d="M4382.88,-2398.97C4248.1,-2472.77 4211.18,-2485.21 3989.79,-2480.91"/>
<polygon fill="#deb256" stroke="#deb256" points="3990,-2477.41 3979.93,-2480.71 3989.86,-2484.41 3990,-2477.41"/>
</g>
<!-- 34821&#45;&gt;34822 -->
<g id="edge36" class="edge">
<title>34821&#45;&gt;34822</title>
<path fill="none" stroke="#e18745" d="M1124.51,-1016.31C1350.67,-1240.88 1381.04,-1260.51 2011.63,-1619.52"/>
<polygon fill="#e18745" stroke="#e18745" points="2009.69,-1622.44 2020.11,-1624.35 2013.15,-1616.36 2009.69,-1622.44"/>
</g>
<!-- 34823 -->
<g id="node21" class="node">
<title>34823</title>
<text text-anchor="middle" x="506.5" y="-650.24" font-family="Times,serif" font-size="14.00">$TEXT</text>
</g>
<!-- 34823&#45;&gt;34821 -->
<g id="edge37" class="edge">
<title>34823&#45;&gt;34821</title>
<path fill="none" stroke="#e18745" d="M533.97,-673.27C670.48,-762.48 698.02,-777.96 1033,-954.55"/>
<polygon fill="#e18745" stroke="#e18745" points="1031.18,-957.55 1041.66,-959.12 1034.44,-951.36 1031.18,-957.55"/>
</g>
<!-- 35432 -->
<g id="node22" class="node">
<title>35432</title>
<text text-anchor="middle" x="407.35" y="-2271.42" font-family="Times,serif" font-size="14.00">LicenseTag (ScopedLicenseTag &quot;OrtLicenseCategorization&quot; &quot;permissive&quot; NoLicenseTagText)</text>
</g>
<!-- 35803 -->
<g id="node24" class="node">
<title>35803</title>
<ellipse fill="none" stroke="#d43d51" cx="1481.86" cy="-1919.25" rx="156.62" ry="28.99"/>
<text text-anchor="middle" x="1481.86" y="-1922.45" font-family="Times,serif" font-size="14.00" fill="gray">OrtLicenseCategorization</text>
<text text-anchor="middle" x="1481.86" y="-1905.95" font-family="Times,serif" font-size="14.00" fill="gray">497df09721013f7bc8ebf01593c68e1a</text>
</g>
<!-- 35432&#45;&gt;35803 -->
<g id="edge38" class="edge">
<title>35432&#45;&gt;35803</title>
<path fill="none" stroke="#d43d51" d="M448.36,-2258.58C710.8,-2144.24 752.89,-2130.29 1385.74,-1947.07"/>
<polygon fill="#d43d51" stroke="#d43d51" points="1386.43,-1950.52 1395.07,-1944.37 1384.49,-1943.79 1386.43,-1950.52"/>
</g>
<!-- 35433 -->
<g id="node23" class="node">
<title>35433</title>
<text text-anchor="middle" x="1268.38" y="-1995.28" font-family="Times,serif" font-size="14.00">LicenseTag (ScopedLicenseTag &quot;OrtLicenseCategorization&quot; &quot;include&#45;in&#45;notice&#45;file&quot; NoLicenseTagText)</text>
</g>
<!-- 35433&#45;&gt;35803 -->
<g id="edge39" class="edge">
<title>35433&#45;&gt;35803</title>
<path fill="none" stroke="#d43d51" d="M1301.64,-1982.37C1325.23,-1970.27 1344.5,-1962.7 1390.28,-1947.95"/>
<polygon fill="#d43d51" stroke="#d43d51" points="1391.24,-1951.32 1399.7,-1944.94 1389.1,-1944.66 1391.24,-1951.32"/>
</g>
<!-- 35803&#45;&gt;2946 -->
<g id="edge40" class="edge">
<title>35803&#45;&gt;2946</title>
<path fill="none" stroke="#d43d51" d="M1530.11,-1891.24C1724.87,-1778.76 1769.71,-1764.48 2271.79,-1636.54"/>
<polygon fill="#d43d51" stroke="#d43d51" points="2272.31,-1640.02 2281.13,-1634.16 2270.58,-1633.24 2272.31,-1640.02"/>
</g>
<!-- 40001 -->
<g id="node25" class="node">
<title>40001</title>
<text text-anchor="middle" x="952.83" y="-506.7" font-family="Times,serif" font-size="14.00">LicenseTag (ScopedLicenseTag &quot;OrtLicenseCategorization&quot; &quot;property:include&#45;in&#45;notice&#45;file&quot; (LicenseTagDescription &quot;Whether the license includes a notice obligation or similar which can be fulfilled by adding the relevant copyright notices and the license text into the project/product notice file.&quot;))</text>
</g>
<!-- 40230 -->
<g id="node29" class="node">
<title>40230</title>
<ellipse fill="none" stroke="#e06f45" cx="2398.26" cy="-671.26" rx="156.09" ry="28.99"/>
<text text-anchor="middle" x="2398.26" y="-674.46" font-family="Times,serif" font-size="14.00" fill="gray">OrtLicenseCategorization</text>
<text text-anchor="middle" x="2398.26" y="-657.96" font-family="Times,serif" font-size="14.00" fill="gray">fbc14df9058e5d9185410f712b5f0e4b</text>
</g>
<!-- 40001&#45;&gt;40230 -->
<g id="edge41" class="edge">
<title>40001&#45;&gt;40230</title>
<path fill="none" stroke="#e06f45" d="M1029.68,-493.78C1450.76,-396.18 1509.52,-405.55 2304.12,-643.09"/>
<polygon fill="#e06f45" stroke="#e06f45" points="2302.95,-646.39 2313.53,-645.91 2304.96,-639.69 2302.95,-646.39"/>
</g>
<!-- 40002 -->
<g id="node26" class="node">
<title>40002</title>
<text text-anchor="middle" x="2682.91" y="-584.99" font-family="Times,serif" font-size="14.00">LicenseTag (ScopedLicenseTag &quot;OrtLicenseCategorization&quot; &quot;include&#45;in&#45;notice&#45;file&quot; (LicenseTagDescription &quot;Same as above, as a temporary work&#45;around for the category name not being configurable in ORT reports, see https://github.com/oss&#45;review&#45;toolkit/ort/issues/8220.&quot;))</text>
</g>
<!-- 40002&#45;&gt;40230 -->
<g id="edge42" class="edge">
<title>40002&#45;&gt;40230</title>
<path fill="none" stroke="#e06f45" d="M2484.63,-607.78C2472.45,-615.22 2459.24,-624.56 2443.82,-636.14"/>
<polygon fill="#e06f45" stroke="#e06f45" points="2442.09,-633.06 2436.22,-641.89 2446.31,-638.64 2442.09,-633.06"/>
</g>
<!-- 40020 -->
<g id="node27" class="node">
<title>40020</title>
<text text-anchor="middle" x="4523.52" y="-585" font-family="Times,serif" font-size="14.00">LicenseTag (ScopedLicenseTag &quot;OrtLicenseCategorization&quot; &quot;copyleft&#45;module&#45;level&quot; (LicenseTagDescription &quot;Open source license that requires you to license modifications made into the same software module with the same license as the original open source software module. This also applies, if you add code from this module to your own module. Examples: EPL&#45;1.1, CPL&#45;1.0.&quot;))</text>
</g>
<!-- 40020&#45;&gt;40230 -->
<g id="edge43" class="edge">
<title>40020&#45;&gt;40230</title>
<path fill="none" stroke="#e06f45" d="M4477.37,-572.11C3676.03,-260.83 3635.36,-260.35 2485.95,-642.11"/>
<polygon fill="#e06f45" stroke="#e06f45" points="2485.19,-638.68 2476.8,-645.15 2487.4,-645.32 2485.19,-638.68"/>
</g>
<!-- 40132 -->
<g id="node28" class="node">
<title>40132</title>
<text text-anchor="middle" x="1024.23" y="-585.42" font-family="Times,serif" font-size="14.00">LicenseTag (ScopedLicenseTag &quot;OrtLicenseCategorization&quot; &quot;property:unchecked&quot; (LicenseTagDescription &quot;This property marking means that the properties of the license have not been checked. Ask for license categorization/checking. This typically is an uncommon license, which has not yet been fully categorized.&quot;))</text>
</g>
<!-- 40132&#45;&gt;40230 -->
<g id="edge44" class="edge">
<title>40132&#45;&gt;40230</title>
<path fill="none" stroke="#e06f45" d="M1083.38,-572.49C1494.24,-448.12 1544.51,-451.37 2294.96,-644.62"/>
<polygon fill="#e06f45" stroke="#e06f45" points="2294.04,-648 2304.59,-647.1 2295.78,-641.22 2294.04,-648"/>
</g>
<!-- 40230&#45;&gt;2946 -->
<g id="edge45" class="edge">
<title>40230&#45;&gt;2946</title>
<path fill="none" stroke="#e06f45" d="M2385.06,-700.34C2251.42,-995.33 2251.33,-1018.96 2340.99,-1579.84"/>
<polygon fill="#e06f45" stroke="#e06f45" points="2337.51,-1580.26 2342.55,-1589.59 2344.42,-1579.16 2337.51,-1580.26"/>
</g>
<!-- 41787 -->
<g id="node30" class="node">
<title>41787</title>
<ellipse fill="none" stroke="#379469" cx="2905.99" cy="-3158.9" rx="159.28" ry="28.99"/>
<text text-anchor="middle" x="2905.99" y="-3162.1" font-family="Times,serif" font-size="14.00" fill="gray">CavilLicenseChange</text>
<text text-anchor="middle" x="2905.99" y="-3145.6" font-family="Times,serif" font-size="14.00" fill="gray">4d9e83711d9d0351168f2e6a9035f785</text>
</g>
<!-- 41787&#45;&gt;41788 -->
<g id="edge46" class="edge">
<title>41787&#45;&gt;41788</title>
<path fill="none" stroke="#379469" d="M2885.6,-3129.68C2787.48,-2988.39 2779.41,-2961.71 2692.75,-2590.51"/>
<polygon fill="#379469" stroke="#379469" points="2696.19,-2589.84 2690.51,-2580.9 2689.37,-2591.43 2696.19,-2589.84"/>
</g>
<!-- 43136 -->
<g id="node32" class="node">
<title>43136</title>
<text text-anchor="start" x="4387.49" y="-3134.28" font-family="Times,serif" font-size="14.00">CoDEStatus: </text>
<text text-anchor="start" x="4461.74" y="-3134.28" font-family="Times,serif" font-weight="bold" font-size="14.00" fill="#228b22">Approved</text>
<text text-anchor="start" x="4240.12" y="-3120.28" font-family="Times,serif" font-size="14.00">Eine Lizenz ist freigegeben, wenn sie nach fachlicher und juristischer Prüfung</text>
<text text-anchor="start" x="4222.12" y="-3106.28" font-family="Times,serif" font-size="14.00">seitens Open CoDE sowohl der Open Source Definition (gemäß Definition der Open</text>
<text text-anchor="start" x="4264.12" y="-3092.28" font-family="Times,serif" font-size="14.00">Source Initiative [extern]) entspricht und darüber hinaus keine für die</text>
<text text-anchor="start" x="4267.12" y="-3078.28" font-family="Times,serif" font-size="14.00">Öffentliche Verwaltung erkennbaren Schwierigkeiten birgt. Außer in</text>
<text text-anchor="start" x="4252.12" y="-3064.28" font-family="Times,serif" font-size="14.00">Ausnahmefällen ist nicht zu erwarten, dass einmal freigegebene Lizenzen</text>
<text text-anchor="start" x="4391.99" y="-3050.28" font-family="Times,serif" font-size="14.00">deklassifiziert werden.</text>
</g>
<!-- 51570 -->
<g id="node33" class="node">
<title>51570</title>
<ellipse fill="none" stroke="#379469" cx="3624.14" cy="-2573.7" rx="153.44" ry="28.99"/>
<text text-anchor="middle" x="3624.14" y="-2576.9" font-family="Times,serif" font-size="14.00" fill="gray">MetaeffektLicense</text>
<text text-anchor="middle" x="3624.14" y="-2560.4" font-family="Times,serif" font-size="14.00" fill="gray">afb0bb56b56a6ab8766d7f7efce1cf4a</text>
</g>
<!-- 43136&#45;&gt;51570 -->
<g id="edge47" class="edge">
<title>43136&#45;&gt;51570</title>
<path fill="none" stroke="#379469" d="M4340.65,-3044.66C4172.93,-2963.99 4097.66,-2911.66 3673.09,-2608.63"/>
<polygon fill="#379469" stroke="#379469" points="3675.35,-2605.95 3665.18,-2602.99 3671.29,-2611.65 3675.35,-2605.95"/>
</g>
<!-- 51570&#45;&gt;51571 -->
<g id="edge48" class="edge">
<title>51570&#45;&gt;51571</title>
<path fill="none" stroke="#379469" d="M3583.43,-2545.28C3410.46,-2424.2 3380.8,-2395.86 3012.99,-2027.55"/>
<polygon fill="#379469" stroke="#379469" points="3015.68,-2025.3 3006.14,-2020.69 3010.73,-2030.24 3015.68,-2025.3"/>
</g>
<!-- 51572 -->
<g id="node35" class="node">
<title>51572</title>
<polygon fill="none" stroke="#379469" points="3963.83,-1783.46 3963.83,-1798.37 3881.62,-1808.92 3765.36,-1808.92 3683.15,-1798.37 3683.15,-1783.46 3765.36,-1772.92 3881.62,-1772.92 3963.83,-1783.46"/>
<text text-anchor="middle" x="3823.49" y="-1785.87" font-family="Times,serif" font-size="14.00">https://spdx.org/licenses/latex2e</text>
</g>
<!-- 51572&#45;&gt;51571 -->
<g id="edge49" class="edge">
<title>51572&#45;&gt;51571</title>
<path fill="none" stroke="#379469" stroke-dasharray="5,2" d="M3793.03,-1809.25C3587.83,-1932.51 3550.23,-1945.21 3120.4,-1984.84"/>
<polygon fill="#379469" stroke="#379469" points="3110.74,-1985.73 3120.29,-1980.33 3114.51,-1985.38 3120.7,-1984.81 3120.7,-1984.81 3120.7,-1984.81 3114.51,-1985.38 3121.11,-1989.29 3110.74,-1985.73"/>
</g>
<!-- 60014 -->
<g id="node36" class="node">
<title>60014</title>
<ellipse fill="none" stroke="#b8bf62" cx="1679.44" cy="-3179.84" rx="158.22" ry="28.99"/>
<text text-anchor="middle" x="1679.44" y="-3183.04" font-family="Times,serif" font-size="14.00" fill="gray">FossLicense</text>
<text text-anchor="middle" x="1679.44" y="-3166.54" font-family="Times,serif" font-size="14.00" fill="gray">49a4339ba4a0936cff31d6b38e604747</text>
</g>
<!-- 60014&#45;&gt;60015 -->
<g id="edge50" class="edge">
<title>60014&#45;&gt;60015</title>
<path fill="none" stroke="#b8bf62" d="M1730.86,-3152.02C1897.21,-3061.34 1932.19,-3031.27 2278.3,-2715.58"/>
<polygon fill="#b8bf62" stroke="#b8bf62" points="2280.64,-2718.17 2285.67,-2708.85 2275.93,-2713 2280.64,-2718.17"/>
</g>
<!-- 60016 -->
<g id="node38" class="node">
<title>60016</title>
<polygon fill="none" stroke="#b8bf62" points="2146.28,-3238.27 2146.28,-3253.18 2096.19,-3263.73 2025.37,-3263.73 1975.28,-3253.18 1975.28,-3238.27 2025.37,-3227.73 2096.19,-3227.73 2146.28,-3238.27"/>
<polygon fill="none" stroke="#b8bf62" points="2150.28,-3235.03 2150.28,-3256.43 2096.61,-3267.73 2024.95,-3267.73 1971.28,-3256.43 1971.28,-3235.03 2024.95,-3223.73 2096.61,-3223.73 2150.28,-3235.03"/>
<text text-anchor="middle" x="2060.78" y="-3240.68" font-family="Times,serif" font-size="14.00">scancode://latex2e</text>
</g>
<!-- 60016&#45;&gt;60015 -->
<g id="edge51" class="edge">
<title>60016&#45;&gt;60015</title>
<path fill="none" stroke="#b8bf62" stroke-width="2" d="M2069.1,-3223.33C2123.89,-3075.94 2133.05,-3055.9 2295.84,-2717.74"/>
<polygon fill="#b8bf62" stroke="#b8bf62" stroke-width="2" points="2299.64,-2709.84 2299.36,-2720.8 2298.98,-2712.37 2295.75,-2719.07 2295.3,-2718.85 2294.85,-2718.63 2298.08,-2711.93 2291.25,-2716.9 2299.64,-2709.84"/>
</g>
<!-- 60017 -->
<g id="node39" class="node">
<title>60017</title>
<polygon fill="none" stroke="#b8bf62" points="2288.03,-3445.57 2288.03,-3460.48 2205.82,-3471.02 2089.56,-3471.02 2007.35,-3460.48 2007.35,-3445.57 2089.56,-3435.02 2205.82,-3435.02 2288.03,-3445.57"/>
<polygon fill="none" stroke="#b8bf62" points="2292.03,-3442.05 2292.03,-3464 2206.07,-3475.02 2089.3,-3475.02 2003.35,-3464 2003.35,-3442.05 2089.3,-3431.02 2206.07,-3431.02 2292.03,-3442.05"/>
<text text-anchor="middle" x="2147.69" y="-3447.97" font-family="Times,serif" font-size="14.00">https://spdx.org/licenses/latex2e</text>
</g>
<!-- 60017&#45;&gt;60015 -->
<g id="edge52" class="edge">
<title>60017&#45;&gt;60015</title>
<path fill="none" stroke="#b8bf62" stroke-width="2" d="M2148.83,-3430.59C2159.92,-3214.3 2164.62,-3194.1 2301.91,-2718.33"/>
<polygon fill="#b8bf62" stroke="#b8bf62" stroke-width="2" points="2304.29,-2710.07 2305.84,-2720.92 2304.06,-2712.67 2302,-2719.81 2301.52,-2719.68 2301.04,-2719.54 2303.1,-2712.39 2297.2,-2718.43 2304.29,-2710.07"/>
</g>
<!-- 60018 -->
<g id="node40" class="node">
<title>60018</title>
<polygon fill="none" stroke="#b8bf62" points="2486.43,-3289.52 2486.43,-3304.44 2439.59,-3314.98 2373.36,-3314.98 2326.52,-3304.44 2326.52,-3289.52 2373.36,-3278.98 2439.59,-3278.98 2486.43,-3289.52"/>
<polygon fill="none" stroke="#b8bf62" points="2490.43,-3286.32 2490.43,-3307.63 2440.04,-3318.98 2372.91,-3318.98 2322.52,-3307.63 2322.52,-3286.32 2372.91,-3274.98 2440.04,-3274.98 2490.43,-3286.32"/>
<text text-anchor="middle" x="2406.48" y="-3291.93" font-family="Times,serif" font-size="14.00">scancode:latex2e</text>
</g>
<!-- 60018&#45;&gt;60015 -->
<g id="edge53" class="edge">
<title>60018&#45;&gt;60015</title>
<path fill="none" stroke="#b8bf62" stroke-width="2" d="M2395.31,-3274.57C2313.26,-3109.37 2310.95,-3089.27 2311.38,-2718.74"/>
<polygon fill="#b8bf62" stroke="#b8bf62" stroke-width="2" points="2311.39,-2710.11 2315.88,-2720.11 2311.89,-2712.67 2311.88,-2720.11 2311.38,-2720.11 2310.88,-2720.11 2310.89,-2712.67 2306.88,-2720.1 2311.39,-2710.11"/>
</g>
<!-- 67682 -->
<g id="node41" class="node">
<title>67682</title>
<ellipse fill="none" stroke="#00876c" cx="1579.28" cy="-1532.19" rx="161.4" ry="28.99"/>
<text text-anchor="middle" x="1579.28" y="-1535.39" font-family="Times,serif" font-size="14.00" fill="gray">LicenseLynx</text>
<text text-anchor="middle" x="1579.28" y="-1518.89" font-family="Times,serif" font-size="14.00" fill="gray">797db8e75b334d52a4992d38e2da62ad</text>
</g>
<!-- 67682&#45;&gt;2946 -->
<g id="edge54" class="edge">
<title>67682&#45;&gt;2946</title>
<path fill="none" stroke="#00876c" d="M1729.27,-1543.05C1839.7,-1552.16 1937.35,-1564.4 2261.95,-1606.39"/>
<polygon fill="#00876c" stroke="#00876c" points="2261.23,-1609.82 2271.6,-1607.64 2262.13,-1602.88 2261.23,-1609.82"/>
</g>
<!-- 67683&#45;&gt;2946 -->
<g id="edge55" class="edge">
<title>67683&#45;&gt;2946</title>
<path fill="none" stroke="#00876c" stroke-width="2" d="M1949.51,-1983.33C2026.7,-1830.83 2042.25,-1815.25 2300.61,-1647.48"/>
<polygon fill="#00876c" stroke="#00876c" stroke-width="2" points="2307.86,-1642.77 2301.92,-1651.99 2305.98,-1644.59 2299.74,-1648.64 2299.47,-1648.22 2299.2,-1647.8 2305.44,-1643.75 2297.02,-1644.44 2307.86,-1642.77"/>
</g>
</g>
</svg>
