<?xml version="1.0" encoding="UTF-8" standalone="no"?>
<!DOCTYPE svg PUBLIC "-//W3C//DTD SVG 1.1//EN"
 "http://www.w3.org/Graphics/SVG/1.1/DTD/svg11.dtd">
<!-- Generated by graphviz version 10.0.1 (0)
 -->
<!-- Pages: 1 -->
<svg width="1677pt" height="246pt"
 viewBox="0.00 0.00 1677.00 246.00" xmlns="http://www.w3.org/2000/svg" xmlns:xlink="http://www.w3.org/1999/xlink">
<g id="graph0" class="graph" transform="scale(1 1) rotate(0) translate(4 242)">
<polygon fill="white" stroke="none" points="-4,4 -4,-242 1673,-242 1673,4 -4,4"/>
<!-- 6884 -->
<g id="node1" class="node">
<title>6884</title>
<ellipse fill="none" stroke="#e09d4b" cx="824.81" cy="-28.56" rx="155.56" ry="28.99"/>
<text text-anchor="middle" x="824.81" y="-31.76" font-family="Times,serif" font-size="14.00" fill="gray">FedoraEntry</text>
<text text-anchor="middle" x="824.81" y="-15.26" font-family="Times,serif" font-size="14.00" fill="gray">f273794a3658f7df38fa17c03b3b2a1d</text>
</g>
<!-- 6885 -->
<g id="node2" class="node">
<title>6885</title>
<polygon fill="none" stroke="#e09d4b" points="1109.58,-80.39 1109.58,-95.3 943.32,-105.85 708.19,-105.85 541.94,-95.3 541.94,-80.39 708.19,-69.85 943.32,-69.85 1109.58,-80.39"/>
<polygon fill="none" stroke="#e09d4b" points="1113.58,-76.64 1113.58,-99.06 943.45,-109.85 708.07,-109.85 537.94,-99.06 537.94,-76.64 708.07,-65.85 943.45,-65.85 1113.58,-76.64"/>
<text text-anchor="middle" x="825.76" y="-82.8" font-family="Times,serif" font-size="14.00">Fedora:LGPL&#45;2.0&#45;or&#45;later_WITH_OCaml&#45;LGPL&#45;linking&#45;exception</text>
</g>
<!-- 6884&#45;&gt;6885 -->
<g id="edge1" class="edge">
<title>6884&#45;&gt;6885</title>
<path fill="none" stroke="#e09d4b" d="M824.22,-57.91C824.22,-58.05 824.23,-58.19 824.23,-58.34"/>
<polygon fill="#e09d4b" stroke="#e09d4b" points="820.53,-54.14 824.5,-63.97 827.53,-53.81 820.53,-54.14"/>
</g>
<!-- 6886 -->
<g id="node3" class="node">
<title>6886</title>
<polygon fill="none" stroke="#e09d4b" points="1665.44,-58.59 1665.44,-73.5 1517.03,-84.04 1307.14,-84.04 1158.73,-73.5 1158.73,-58.59 1307.14,-48.04 1517.03,-48.04 1665.44,-58.59"/>
<polygon fill="none" stroke="#e09d4b" points="1669.44,-54.86 1669.44,-77.23 1517.17,-88.04 1307,-88.04 1154.73,-77.23 1154.73,-54.86 1307,-44.04 1517.17,-44.04 1669.44,-54.86"/>
<text text-anchor="middle" x="1412.09" y="-60.99" font-family="Times,serif" font-size="14.00">LGPL&#45;2.0&#45;or&#45;later_WITH_OCaml&#45;LGPL&#45;linking&#45;exception</text>
</g>
<!-- 6886&#45;&gt;6885 -->
<g id="edge2" class="edge">
<title>6886&#45;&gt;6885</title>
<path fill="none" stroke="#e09d4b" stroke-width="2" d="M1154.26,-66.44C1128.8,-67.78 1099.68,-69.51 1065.19,-71.72"/>
<polygon fill="#e09d4b" stroke="#e09d4b" stroke-width="2" points="1056.74,-72.26 1066.43,-67.13 1059.27,-71.59 1066.69,-71.12 1066.72,-71.62 1066.75,-72.12 1059.33,-72.59 1067.01,-76.11 1056.74,-72.26"/>
</g>
<!-- 6887 -->
<g id="node4" class="node">
<title>6887</title>
<polygon fill="none" stroke="black" points="1091.44,-137.98 1091.44,-152.89 933.61,-163.44 710.42,-163.44 552.6,-152.89 552.6,-137.98 710.42,-127.44 933.61,-127.44 1091.44,-137.98"/>
<polygon fill="none" stroke="black" points="1095.44,-134.24 1095.44,-156.63 933.75,-167.44 710.29,-167.44 548.6,-156.63 548.6,-134.24 710.29,-123.44 933.75,-123.44 1095.44,-134.24"/>
<polygon fill="none" stroke="black" points="1099.44,-130.5 1099.44,-160.38 933.88,-171.44 710.16,-171.44 544.6,-160.38 544.6,-130.5 710.16,-119.44 933.88,-119.44 1099.44,-130.5"/>
<text text-anchor="middle" x="822.02" y="-140.39" font-family="Times,serif" font-size="14.00">spdx:LGPL&#45;2.0&#45;or&#45;later WITH OCaml&#45;LGPL&#45;linking&#45;exception</text>
</g>
<!-- 6887&#45;&gt;6885 -->
<g id="edge3" class="edge">
<title>6887&#45;&gt;6885</title>
<path fill="none" stroke="#e09d4b" stroke-width="2" d="M815.5,-119.29C815.49,-119.19 815.48,-119.09 815.47,-118.99"/>
<polygon fill="#e09d4b" stroke="#e09d4b" stroke-width="2" points="815.93,-112.67 819.69,-122.97 816.25,-115.26 815.71,-122.68 815.21,-122.64 814.71,-122.6 815.25,-115.19 810.72,-122.31 815.93,-112.67"/>
</g>
<!-- 6888 -->
<g id="node5" class="node">
<title>6888</title>
<polygon fill="none" stroke="black" points="499.34,-107.25 499.34,-122.16 354.18,-132.7 148.88,-132.7 3.72,-122.16 3.72,-107.25 148.88,-96.7 354.18,-96.7 499.34,-107.25"/>
<polygon fill="none" stroke="black" points="503.34,-103.53 503.34,-125.88 354.32,-136.7 148.74,-136.7 -0.28,-125.88 -0.28,-103.53 148.74,-92.7 354.32,-92.7 503.34,-103.53"/>
<text text-anchor="middle" x="251.53" y="-109.65" font-family="Times,serif" font-size="14.00">LGPL&#45;2.0&#45;or&#45;later WITH OCaml&#45;LGPL&#45;linking&#45;exception</text>
</g>
<!-- 6888&#45;&gt;6887 -->
<g id="edge4" class="edge">
<title>6888&#45;&gt;6887</title>
<path fill="none" stroke="black" stroke-width="2" d="M427.51,-131.88C456.65,-133.71 489.8,-135.25 533.17,-136.83"/>
<polygon fill="black" stroke="black" stroke-width="2" points="541.68,-137.14 531.53,-141.28 539.1,-137.54 531.67,-137.28 531.69,-136.78 531.7,-136.28 539.14,-136.55 531.85,-132.28 541.68,-137.14"/>
</g>
<!-- 35532 -->
<g id="node6" class="node">
<title>35532</title>
<ellipse fill="none" stroke="#e09d4b" cx="822.93" cy="-208.66" rx="159.81" ry="28.99"/>
<text text-anchor="middle" x="822.93" y="-211.86" font-family="Times,serif" font-size="14.00" fill="gray">OrtLicenseCategorization</text>
<text text-anchor="middle" x="822.93" y="-195.36" font-family="Times,serif" font-size="14.00" fill="gray">3aa8941877e5f5293b1ed10686848ded</text>
</g>
<!-- 35532&#45;&gt;6887 -->
<g id="edge5" class="edge">
<title>35532&#45;&gt;6887</title>
<path fill="none" stroke="#e09d4b" d="M820.6,-179.23C820.6,-179.1 820.6,-178.96 820.6,-178.82"/>
<polygon fill="#e09d4b" stroke="#e09d4b" points="823.96,-183.42 820.78,-173.31 816.97,-183.2 823.96,-183.42"/>
</g>
</g>
</svg>
