<?xml version="1.0" encoding="UTF-8" standalone="no"?>
<!DOCTYPE svg PUBLIC "-//W3C//DTD SVG 1.1//EN"
 "http://www.w3.org/Graphics/SVG/1.1/DTD/svg11.dtd">
<!-- Generated by graphviz version 10.0.1 (0)
 -->
<!-- Pages: 1 -->
<svg width="2701pt" height="2349pt"
 viewBox="0.00 0.00 2701.00 2349.00" xmlns="http://www.w3.org/2000/svg" xmlns:xlink="http://www.w3.org/1999/xlink">
<g id="graph0" class="graph" transform="scale(1 1) rotate(0) translate(4 2345)">
<polygon fill="white" stroke="none" points="-4,4 -4,-2345 2697,-2345 2697,4 -4,4"/>
<!-- 2454 -->
<g id="node1" class="node">
<title>2454</title>
<ellipse fill="none" stroke="#b8bf62" cx="1169.81" cy="-2227.25" rx="160.87" ry="28.99"/>
<text text-anchor="middle" x="1169.81" y="-2230.45" font-family="Times,serif" font-size="14.00" fill="gray">SPDXLicense</text>
<text text-anchor="middle" x="1169.81" y="-2213.95" font-family="Times,serif" font-size="14.00" fill="gray">76d84ed38d53eb76df532262a02933d8</text>
</g>
<!-- 2455 -->
<g id="node2" class="node">
<title>2455</title>
<polygon fill="none" stroke="black" points="1289.43,-1812.6 1289.43,-1827.51 1233.51,-1838.06 1154.42,-1838.06 1098.5,-1827.51 1098.5,-1812.6 1154.42,-1802.06 1233.51,-1802.06 1289.43,-1812.6"/>
<polygon fill="none" stroke="black" points="1293.43,-1809.29 1293.43,-1830.83 1233.88,-1842.06 1154.05,-1842.06 1094.5,-1830.83 1094.5,-1809.29 1154.05,-1798.06 1233.88,-1798.06 1293.43,-1809.29"/>
<text text-anchor="middle" x="1193.97" y="-1815.01" font-family="Times,serif" font-size="14.00">spdx:LGPL&#45;2.0&#45;only</text>
</g>
<!-- 2454&#45;&gt;2455 -->
<g id="edge1" class="edge">
<title>2454&#45;&gt;2455</title>
<path fill="none" stroke="#b8bf62" d="M1169.03,-2197.89C1166.74,-2105.98 1168.61,-2081.53 1190.71,-1853.61"/>
<polygon fill="#b8bf62" stroke="#b8bf62" points="1194.19,-1854.05 1191.67,-1843.75 1187.22,-1853.37 1194.19,-1854.05"/>
</g>
<!-- 6847 -->
<g id="node12" class="node">
<title>6847</title>
<polygon fill="none" stroke="#e09d4b" points="966.29,-1718.28 966.29,-1733.19 905.17,-1743.73 818.74,-1743.73 757.63,-1733.19 757.63,-1718.28 818.74,-1707.73 905.17,-1707.73 966.29,-1718.28"/>
<polygon fill="none" stroke="#e09d4b" points="970.29,-1714.91 970.29,-1736.56 905.52,-1747.73 818.4,-1747.73 753.63,-1736.56 753.63,-1714.91 818.4,-1703.73 905.52,-1703.73 970.29,-1714.91"/>
<text text-anchor="middle" x="861.96" y="-1720.68" font-family="Times,serif" font-size="14.00">Fedora:LGPL&#45;2.0&#45;only</text>
</g>
<!-- 2455&#45;&gt;6847 -->
<g id="edge2" class="edge">
<title>2455&#45;&gt;6847</title>
<path fill="none" stroke="#e09d4b" stroke-width="2" d="M1094.14,-1826.02C1003.14,-1828.95 975.04,-1815.83 898.35,-1755"/>
<polygon fill="#e09d4b" stroke="#e09d4b" stroke-width="2" points="891.67,-1749.68 902.3,-1752.39 893.99,-1750.88 899.8,-1755.52 899.49,-1755.91 899.18,-1756.3 893.37,-1751.67 896.69,-1759.43 891.67,-1749.68"/>
</g>
<!-- 9617 -->
<g id="node19" class="node">
<title>9617</title>
<polygon fill="none" stroke="#58a066" points="982.42,-1965.14 982.42,-1980.05 925.19,-1990.6 844.27,-1990.6 787.05,-1980.05 787.05,-1965.14 844.27,-1954.6 925.19,-1954.6 982.42,-1965.14"/>
<polygon fill="none" stroke="#58a066" points="986.42,-1961.81 986.42,-1983.38 925.56,-1994.6 843.9,-1994.6 783.05,-1983.38 783.05,-1961.81 843.9,-1950.6 925.56,-1950.6 986.42,-1961.81"/>
<text text-anchor="middle" x="884.73" y="-1967.55" font-family="Times,serif" font-size="14.00">osadl:LGPL&#45;2.0&#45;only</text>
</g>
<!-- 2455&#45;&gt;9617 -->
<g id="edge3" class="edge">
<title>2455&#45;&gt;9617</title>
<path fill="none" stroke="#58a066" stroke-width="2" d="M1164.82,-1842.49C1070.36,-1915.08 1031.7,-1943.04 987.45,-1956.66"/>
<polygon fill="#58a066" stroke="#58a066" stroke-width="2" points="979.02,-1959.02 987.44,-1951.99 981.35,-1957.85 988.52,-1955.84 988.65,-1956.33 988.78,-1956.81 981.62,-1958.81 989.86,-1960.66 979.02,-1959.02"/>
</g>
<!-- 42375 -->
<g id="node36" class="node">
<title>42375</title>
<polygon fill="none" stroke="#00876c" points="1920.93,-1624.3 1920.93,-1639.21 1863.05,-1649.75 1781.21,-1649.75 1723.34,-1639.21 1723.34,-1624.3 1781.21,-1613.75 1863.05,-1613.75 1920.93,-1624.3"/>
<polygon fill="none" stroke="#00876c" points="1924.93,-1620.96 1924.93,-1642.54 1863.42,-1653.75 1780.85,-1653.75 1719.34,-1642.54 1719.34,-1620.96 1780.85,-1609.75 1863.42,-1609.75 1924.93,-1620.96"/>
<text text-anchor="middle" x="1822.13" y="-1626.7" font-family="Times,serif" font-size="14.00">metaeffekt:LGPL&#45;2.0</text>
</g>
<!-- 2455&#45;&gt;42375 -->
<g id="edge4" class="edge">
<title>2455&#45;&gt;42375</title>
<path fill="none" stroke="#00876c" stroke-width="2" d="M1293.55,-1828.8C1534.59,-1848.35 1570.5,-1830.77 1785.32,-1660.93"/>
<polygon fill="#00876c" stroke="#00876c" stroke-width="2" points="1792.11,-1655.55 1787.06,-1665.28 1790.41,-1657.53 1784.58,-1662.15 1784.27,-1661.75 1783.96,-1661.36 1789.79,-1656.75 1781.48,-1658.23 1792.11,-1655.55"/>
</g>
<!-- 2456 -->
<g id="node3" class="node">
<title>2456</title>
<polygon fill="none" stroke="black" points="1095.96,-1665.21 1095.96,-1680.13 1052.69,-1690.67 991.5,-1690.67 948.23,-1680.13 948.23,-1665.21 991.5,-1654.67 1052.69,-1654.67 1095.96,-1665.21"/>
<polygon fill="none" stroke="black" points="1099.96,-1662.07 1099.96,-1683.27 1053.17,-1694.67 991.02,-1694.67 944.23,-1683.27 944.23,-1662.07 991.02,-1650.67 1053.17,-1650.67 1099.96,-1662.07"/>
<text text-anchor="middle" x="1022.09" y="-1667.62" font-family="Times,serif" font-size="14.00">LGPL&#45;2.0&#45;only</text>
</g>
<!-- 2456&#45;&gt;2455 -->
<g id="edge5" class="edge">
<title>2456&#45;&gt;2455</title>
<path fill="none" stroke="black" stroke-width="2" d="M1035.43,-1695.08C1073.89,-1759.4 1089,-1780.35 1126.19,-1796.87"/>
<polygon fill="black" stroke="black" stroke-width="2" points="1133.89,-1800.07 1122.93,-1800.4 1131.33,-1799.55 1124.46,-1796.7 1124.66,-1796.24 1124.85,-1795.78 1131.72,-1798.63 1126.38,-1792.08 1133.89,-1800.07"/>
</g>
<!-- 2456&#45;&gt;6847 -->
<g id="edge6" class="edge">
<title>2456&#45;&gt;6847</title>
<path fill="none" stroke="#e09d4b" stroke-width="2" d="M983.43,-1693.07C973.89,-1698.04 965.62,-1702.25 958.28,-1705.83"/>
<polygon fill="#e09d4b" stroke="#e09d4b" stroke-width="2" points="950.34,-1709.59 957.45,-1701.25 952.45,-1708.04 959.17,-1704.86 959.38,-1705.31 959.6,-1705.76 952.87,-1708.95 961.31,-1709.38 950.34,-1709.59"/>
</g>
<!-- 9400 -->
<g id="node16" class="node">
<title>9400</title>
<polygon fill="none" stroke="#00876c" points="1104.22,-1348.07 1104.22,-1362.99 1038.56,-1373.53 945.7,-1373.53 880.04,-1362.99 880.04,-1348.07 945.7,-1337.53 1038.56,-1337.53 1104.22,-1348.07"/>
<polygon fill="none" stroke="#00876c" points="1108.22,-1344.67 1108.22,-1366.39 1038.88,-1377.53 945.38,-1377.53 876.04,-1366.39 876.04,-1344.67 945.38,-1333.53 1038.88,-1333.53 1108.22,-1344.67"/>
<text text-anchor="middle" x="992.13" y="-1350.48" font-family="Times,serif" font-size="14.00">BlueOak:LGPL&#45;2.0&#45;only</text>
</g>
<!-- 2456&#45;&gt;9400 -->
<g id="edge7" class="edge">
<title>2456&#45;&gt;9400</title>
<path fill="none" stroke="#00876c" stroke-width="2" d="M1010.37,-1650.35C965.44,-1564.08 964.38,-1547.03 987.31,-1388.62"/>
<polygon fill="#00876c" stroke="#00876c" stroke-width="2" points="988.5,-1380.39 991.52,-1390.94 988.63,-1383 987.56,-1390.36 987.07,-1390.29 986.57,-1390.22 987.64,-1382.86 982.61,-1389.64 988.5,-1380.39"/>
</g>
<!-- 2456&#45;&gt;9617 -->
<g id="edge8" class="edge">
<title>2456&#45;&gt;9617</title>
<path fill="none" stroke="#58a066" stroke-width="2" d="M1010.93,-1695.1C931.77,-1854.21 920.07,-1878.38 896.86,-1940.02"/>
<polygon fill="#58a066" stroke="#58a066" stroke-width="2" points="893.88,-1947.97 893.17,-1937.03 894.31,-1945.4 896.92,-1938.43 897.39,-1938.61 897.86,-1938.78 895.25,-1945.75 901.6,-1940.19 893.88,-1947.97"/>
</g>
<!-- 37041 -->
<g id="node31" class="node">
<title>37041</title>
<polygon fill="none" stroke="#379469" points="1313.7,-1307.39 1313.7,-1322.3 1257.45,-1332.84 1177.9,-1332.84 1121.65,-1322.3 1121.65,-1307.39 1177.9,-1296.84 1257.45,-1296.84 1313.7,-1307.39"/>
<polygon fill="none" stroke="#379469" points="1317.7,-1304.07 1317.7,-1325.62 1257.82,-1336.84 1177.53,-1336.84 1117.65,-1325.62 1117.65,-1304.07 1177.53,-1292.84 1257.82,-1292.84 1317.7,-1304.07"/>
<text text-anchor="middle" x="1217.67" y="-1309.79" font-family="Times,serif" font-size="14.00">cavil:LGPL&#45;2.0&#45;only</text>
</g>
<!-- 2456&#45;&gt;37041 -->
<g id="edge9" class="edge">
<title>2456&#45;&gt;37041</title>
<path fill="none" stroke="#379469" stroke-width="2" d="M1032.29,-1650.27C1071.78,-1563.73 1082.37,-1544.79 1198.89,-1346.76"/>
<polygon fill="#379469" stroke="#379469" stroke-width="2" points="1203.28,-1339.29 1202.09,-1350.19 1202.41,-1341.76 1198.64,-1348.17 1198.21,-1347.91 1197.78,-1347.66 1201.55,-1341.25 1194.33,-1345.63 1203.28,-1339.29"/>
</g>
<!-- 50609 -->
<g id="node52" class="node">
<title>50609</title>
<polygon fill="none" stroke="#b8bf62" points="1761.28,-1780.36 1761.28,-1795.27 1627.8,-1805.81 1439.02,-1805.81 1305.54,-1795.27 1305.54,-1780.36 1439.02,-1769.81 1627.8,-1769.81 1761.28,-1780.36"/>
<polygon fill="none" stroke="#b8bf62" points="1765.28,-1776.66 1765.28,-1798.96 1627.95,-1809.81 1438.87,-1809.81 1301.54,-1798.96 1301.54,-1776.66 1438.87,-1765.81 1627.95,-1765.81 1765.28,-1776.66"/>
<text text-anchor="middle" x="1533.41" y="-1782.76" font-family="Times,serif" font-size="14.00">foss&#45;license:GNU Library General Public License 2.0</text>
</g>
<!-- 2456&#45;&gt;50609 -->
<g id="edge10" class="edge">
<title>2456&#45;&gt;50609</title>
<path fill="none" stroke="#b8bf62" stroke-width="2" d="M1055.02,-1694.56C1220.75,-1804.45 1263.54,-1826.55 1398.95,-1809.39"/>
<polygon fill="#b8bf62" stroke="#b8bf62" stroke-width="2" points="1407.31,-1808.29 1397.98,-1814.06 1404.83,-1809.12 1397.46,-1810.09 1397.39,-1809.6 1397.33,-1809.1 1404.7,-1808.13 1396.8,-1805.13 1407.31,-1808.29"/>
</g>
<!-- 54285 -->
<g id="node58" class="node">
<title>54285</title>
<polygon fill="none" stroke="#98b561" points="878.58,-1400.13 878.58,-1415.04 817.46,-1425.58 731.03,-1425.58 669.91,-1415.04 669.91,-1400.13 731.03,-1389.58 817.46,-1389.58 878.58,-1400.13"/>
<polygon fill="none" stroke="#98b561" points="882.58,-1396.76 882.58,-1418.41 817.8,-1429.58 730.69,-1429.58 665.91,-1418.41 665.91,-1396.76 730.69,-1385.58 817.8,-1385.58 882.58,-1396.76"/>
<text text-anchor="middle" x="774.24" y="-1402.53" font-family="Times,serif" font-size="14.00">eclipse:LGPL&#45;2.0&#45;only</text>
</g>
<!-- 2456&#45;&gt;54285 -->
<g id="edge11" class="edge">
<title>2456&#45;&gt;54285</title>
<path fill="none" stroke="#98b561" stroke-width="2" d="M980.87,-1652.8C851.46,-1589.82 837.91,-1573.64 786.57,-1439.92"/>
<polygon fill="#98b561" stroke="#98b561" stroke-width="2" points="783.52,-1431.93 791.3,-1439.66 784.9,-1434.15 787.56,-1441.09 787.09,-1441.27 786.63,-1441.45 783.97,-1434.51 782.89,-1442.88 783.52,-1431.93"/>
</g>
<!-- 2457 -->
<g id="node4" class="node">
<title>2457</title>
<polygon fill="none" stroke="black" points="1468.62,-1251.05 1468.62,-1265.96 1353.96,-1276.5 1191.81,-1276.5 1077.14,-1265.96 1077.14,-1251.05 1191.81,-1240.5 1353.96,-1240.5 1468.62,-1251.05"/>
<polygon fill="none" stroke="black" points="1472.62,-1247.4 1472.62,-1269.61 1354.14,-1280.5 1191.62,-1280.5 1073.14,-1269.61 1073.14,-1247.4 1191.62,-1236.5 1354.14,-1236.5 1472.62,-1247.4"/>
<text text-anchor="middle" x="1272.88" y="-1253.45" font-family="Times,serif" font-size="14.00">GNU Library General Public License v2 only</text>
</g>
<!-- 2457&#45;&gt;2455 -->
<g id="edge12" class="edge">
<title>2457&#45;&gt;2455</title>
<path fill="none" stroke="black" stroke-width="2" d="M1268.71,-1280.87C1204.98,-1622.05 1200.41,-1648.83 1195.18,-1786.77"/>
<polygon fill="black" stroke="black" stroke-width="2" points="1194.86,-1795.35 1190.74,-1785.19 1194.46,-1792.77 1194.74,-1785.34 1195.24,-1785.36 1195.74,-1785.38 1195.46,-1792.81 1199.73,-1785.53 1194.86,-1795.35"/>
</g>
<!-- 2467 -->
<g id="node6" class="node">
<title>2467</title>
<polygon fill="none" stroke="black" points="1583.84,-825.21 1583.84,-840.12 1540.25,-850.66 1478.6,-850.66 1435,-840.12 1435,-825.21 1478.6,-814.66 1540.25,-814.66 1583.84,-825.21"/>
<polygon fill="none" stroke="black" points="1587.84,-822.06 1587.84,-843.27 1540.72,-854.66 1478.12,-854.66 1431,-843.27 1431,-822.06 1478.12,-810.66 1540.72,-810.66 1587.84,-822.06"/>
<polygon fill="none" stroke="black" points="1591.84,-818.91 1591.84,-846.41 1541.2,-858.66 1477.64,-858.66 1427,-846.41 1427,-818.91 1477.64,-806.66 1541.2,-806.66 1591.84,-818.91"/>
<text text-anchor="middle" x="1509.42" y="-827.61" font-family="Times,serif" font-size="14.00">spdx:LGPL&#45;2.0</text>
</g>
<!-- 2457&#45;&gt;2467 -->
<g id="edge13" class="edge">
<title>2457&#45;&gt;2467</title>
<path fill="none" stroke="#b8bf62" stroke-width="2" d="M1283.89,-1236.3C1408.5,-985.02 1423.92,-954.9 1484.45,-868.18"/>
<polygon fill="#b8bf62" stroke="#b8bf62" stroke-width="2" points="1489.45,-861.03 1487.4,-871.8 1488.39,-863.42 1484.13,-869.51 1483.72,-869.22 1483.31,-868.94 1487.57,-862.85 1480.03,-866.64 1489.45,-861.03"/>
</g>
<!-- 2457&#45;&gt;9400 -->
<g id="edge14" class="edge">
<title>2457&#45;&gt;9400</title>
<path fill="none" stroke="#00876c" stroke-width="2" d="M1220,-1280.82C1148.84,-1310.78 1112.04,-1325.75 1082.1,-1335.24"/>
<polygon fill="#00876c" stroke="#00876c" stroke-width="2" points="1074.08,-1337.68 1082.34,-1330.46 1076.39,-1336.45 1083.5,-1334.29 1083.65,-1334.77 1083.79,-1335.25 1076.68,-1337.41 1084.96,-1339.08 1074.08,-1337.68"/>
</g>
<!-- 25918 -->
<g id="node26" class="node">
<title>25918</title>
<polygon fill="none" stroke="#e18745" points="1690.26,-927.9 1690.26,-942.82 1634.98,-953.36 1556.81,-953.36 1501.54,-942.82 1501.54,-927.9 1556.81,-917.36 1634.98,-917.36 1690.26,-927.9"/>
<polygon fill="none" stroke="#e18745" points="1694.26,-924.6 1694.26,-946.13 1635.36,-957.36 1556.43,-957.36 1497.54,-946.13 1497.54,-924.6 1556.43,-913.36 1635.36,-913.36 1694.26,-924.6"/>
<text text-anchor="middle" x="1595.9" y="-930.31" font-family="Times,serif" font-size="14.00">fossology:LGPL&#45;2.0</text>
</g>
<!-- 2457&#45;&gt;25918 -->
<g id="edge15" class="edge">
<title>2457&#45;&gt;25918</title>
<path fill="none" stroke="#e18745" stroke-width="2" d="M1296.46,-1236.08C1480.98,-1060.59 1504.34,-1037.95 1568.75,-965.86"/>
<polygon fill="#e18745" stroke="#e18745" stroke-width="2" points="1574.35,-959.59 1571.05,-970.05 1573.01,-961.84 1568.06,-967.39 1567.69,-967.05 1567.32,-966.72 1572.27,-961.17 1564.33,-964.06 1574.35,-959.59"/>
</g>
<!-- 2457&#45;&gt;54285 -->
<g id="edge16" class="edge">
<title>2457&#45;&gt;54285</title>
<path fill="none" stroke="#98b561" stroke-width="2" d="M1209.51,-1280.96C1003.75,-1353.81 944.2,-1373.98 868.89,-1389.88"/>
<polygon fill="#98b561" stroke="#98b561" stroke-width="2" points="860.53,-1391.6 869.42,-1385.17 862.94,-1390.6 870.23,-1389.09 870.33,-1389.58 870.43,-1390.07 863.14,-1391.57 871.24,-1393.99 860.53,-1391.6"/>
</g>
<!-- 2466 -->
<g id="node5" class="node">
<title>2466</title>
<ellipse fill="none" stroke="#b8bf62" cx="1355.37" cy="-476.57" rx="158.75" ry="28.99"/>
<text text-anchor="middle" x="1355.37" y="-479.77" font-family="Times,serif" font-size="14.00" fill="gray">SPDXLicense</text>
<text text-anchor="middle" x="1355.37" y="-463.27" font-family="Times,serif" font-size="14.00" fill="gray">e194151a2f075754a7834c8c999a82cb</text>
</g>
<!-- 2466&#45;&gt;2467 -->
<g id="edge17" class="edge">
<title>2466&#45;&gt;2467</title>
<path fill="none" stroke="#b8bf62" d="M1380.53,-505.22C1442.05,-576.43 1450.91,-601.52 1499.92,-795.06"/>
<polygon fill="#b8bf62" stroke="#b8bf62" points="1496.52,-795.91 1502.37,-804.75 1503.31,-794.19 1496.52,-795.91"/>
</g>
<!-- 5738 -->
<g id="node9" class="node">
<title>5738</title>
<polygon fill="none" stroke="#e06f45" points="1642.33,-410.11 1642.33,-425.02 1597.44,-435.57 1533.96,-435.57 1489.07,-425.02 1489.07,-410.11 1533.96,-399.57 1597.44,-399.57 1642.33,-410.11"/>
<polygon fill="none" stroke="#e06f45" points="1646.33,-406.94 1646.33,-428.19 1597.91,-439.57 1533.49,-439.57 1485.07,-428.19 1485.07,-406.94 1533.49,-395.57 1597.91,-395.57 1646.33,-406.94"/>
<text text-anchor="middle" x="1565.7" y="-412.52" font-family="Times,serif" font-size="14.00">google:LGPL20</text>
</g>
<!-- 2467&#45;&gt;5738 -->
<g id="edge18" class="edge">
<title>2467&#45;&gt;5738</title>
<path fill="none" stroke="#e06f45" stroke-width="2" d="M1514.57,-806.23C1560.28,-571.49 1564.78,-545.22 1565.54,-451.1"/>
<polygon fill="#e06f45" stroke="#e06f45" stroke-width="2" points="1565.59,-442.33 1570.03,-452.36 1566.08,-444.9 1566.03,-452.34 1565.53,-452.33 1565.03,-452.33 1565.08,-444.89 1561.03,-452.3 1565.59,-442.33"/>
</g>
<!-- 2468 -->
<g id="node7" class="node">
<title>2468</title>
<polygon fill="none" stroke="black" points="1654.81,-1218.81 1654.81,-1233.72 1623.87,-1244.27 1580.12,-1244.27 1549.19,-1233.72 1549.19,-1218.81 1580.12,-1208.27 1623.87,-1208.27 1654.81,-1218.81"/>
<polygon fill="none" stroke="black" points="1658.81,-1215.95 1658.81,-1236.59 1624.54,-1248.27 1579.46,-1248.27 1545.19,-1236.59 1545.19,-1215.95 1579.46,-1204.27 1624.54,-1204.27 1658.81,-1215.95"/>
<text text-anchor="middle" x="1602" y="-1221.22" font-family="Times,serif" font-size="14.00">LGPL&#45;2.0</text>
</g>
<!-- 2468&#45;&gt;2467 -->
<g id="edge19" class="edge">
<title>2468&#45;&gt;2467</title>
<path fill="none" stroke="black" stroke-width="2" d="M1603.91,-1203.94C1621.03,-1003.09 1619.6,-981.86 1535.53,-867.74"/>
<polygon fill="black" stroke="black" stroke-width="2" points="1530.51,-860.95 1540.07,-866.31 1532.43,-862.71 1536.85,-868.69 1536.45,-868.99 1536.05,-869.29 1531.63,-863.31 1532.83,-871.66 1530.51,-860.95"/>
</g>
<!-- 18319 -->
<g id="node22" class="node">
<title>18319</title>
<polygon fill="none" stroke="black" points="1920.92,-1360.44 1920.92,-1375.35 1872.45,-1385.9 1803.92,-1385.9 1755.46,-1375.35 1755.46,-1360.44 1803.92,-1349.9 1872.45,-1349.9 1920.92,-1360.44"/>
<polygon fill="none" stroke="black" points="1924.92,-1357.22 1924.92,-1378.58 1872.88,-1389.9 1803.49,-1389.9 1751.46,-1378.58 1751.46,-1357.22 1803.49,-1345.9 1872.88,-1345.9 1924.92,-1357.22"/>
<text text-anchor="middle" x="1838.19" y="-1362.85" font-family="Times,serif" font-size="14.00">scancode:lgpl&#45;2.0</text>
</g>
<!-- 2468&#45;&gt;18319 -->
<g id="edge20" class="edge">
<title>2468&#45;&gt;18319</title>
<path fill="none" stroke="black" stroke-width="2" d="M1636.76,-1244.34C1739.99,-1298.06 1767.36,-1313.05 1801.36,-1338.75"/>
<polygon fill="black" stroke="black" stroke-width="2" points="1808.26,-1344.06 1797.59,-1341.53 1805.93,-1342.89 1800.03,-1338.36 1800.34,-1337.96 1800.64,-1337.57 1806.54,-1342.1 1803.08,-1334.4 1808.26,-1344.06"/>
</g>
<!-- 2468&#45;&gt;25918 -->
<g id="edge21" class="edge">
<title>2468&#45;&gt;25918</title>
<path fill="none" stroke="#e18745" stroke-width="2" d="M1608.94,-1204.13C1649.22,-1075.25 1651.12,-1057.9 1610.77,-967.97"/>
<polygon fill="#e18745" stroke="#e18745" stroke-width="2" points="1607.2,-960.06 1615.42,-967.32 1608.71,-962.19 1611.77,-968.97 1611.32,-969.17 1610.86,-969.38 1607.8,-962.6 1607.22,-971.03 1607.2,-960.06"/>
</g>
<!-- 2468&#45;&gt;37041 -->
<g id="edge22" class="edge">
<title>2468&#45;&gt;37041</title>
<path fill="none" stroke="#379469" stroke-dasharray="5,2" d="M1573.99,-1246.93C1476.17,-1318.65 1446.95,-1332.45 1329.02,-1324.59"/>
<polygon fill="#379469" stroke="#379469" points="1319.31,-1323.91 1329.61,-1320.12 1323.09,-1324.17 1329.29,-1324.61 1329.29,-1324.61 1329.29,-1324.61 1323.09,-1324.17 1328.97,-1329.1 1319.31,-1323.91"/>
</g>
<!-- 2468&#45;&gt;42375 -->
<g id="edge23" class="edge">
<title>2468&#45;&gt;42375</title>
<path fill="none" stroke="#00876c" stroke-width="2" d="M1618.08,-1248.47C1773.65,-1463.37 1787.16,-1484.51 1814.44,-1598.92"/>
<polygon fill="#00876c" stroke="#00876c" stroke-width="2" points="1816.4,-1607.17 1809.71,-1598.48 1815.32,-1604.8 1813.61,-1597.56 1814.09,-1597.44 1814.58,-1597.33 1816.29,-1604.56 1818.47,-1596.41 1816.4,-1607.17"/>
</g>
<!-- 42388 -->
<g id="node49" class="node">
<title>42388</title>
<polygon fill="none" stroke="#00876c" points="1881.06,-1287.44 1881.06,-1302.35 1841.69,-1312.9 1786,-1312.9 1746.63,-1302.35 1746.63,-1287.44 1786,-1276.9 1841.69,-1276.9 1881.06,-1287.44"/>
<polygon fill="none" stroke="#00876c" points="1885.06,-1284.37 1885.06,-1305.42 1842.21,-1316.9 1785.48,-1316.9 1742.63,-1305.42 1742.63,-1284.37 1785.48,-1272.9 1842.21,-1272.9 1885.06,-1284.37"/>
<text text-anchor="middle" x="1813.85" y="-1289.85" font-family="Times,serif" font-size="14.00">osi:LGPL&#45;2.0</text>
</g>
<!-- 2468&#45;&gt;42388 -->
<g id="edge24" class="edge">
<title>2468&#45;&gt;42388</title>
<path fill="none" stroke="#00876c" stroke-width="2" d="M1648.63,-1240.37C1706.14,-1257.79 1733.67,-1266.27 1756.3,-1273.95"/>
<polygon fill="#00876c" stroke="#00876c" stroke-width="2" points="1764.49,-1276.77 1753.56,-1277.76 1761.9,-1276.41 1754.87,-1273.98 1755.03,-1273.51 1755.2,-1273.04 1762.23,-1275.46 1756.5,-1269.26 1764.49,-1276.77"/>
</g>
<!-- 5737 -->
<g id="node8" class="node">
<title>5737</title>
<ellipse fill="none" stroke="#e06f45" cx="1538.27" cy="-28.69" rx="159.28" ry="28.99"/>
<text text-anchor="middle" x="1538.27" y="-31.89" font-family="Times,serif" font-size="14.00" fill="gray">GoogleLicense</text>
<text text-anchor="middle" x="1538.27" y="-15.39" font-family="Times,serif" font-size="14.00" fill="gray">c7808f2b6760189c3223e9b21ce7727c</text>
</g>
<!-- 5737&#45;&gt;5738 -->
<g id="edge25" class="edge">
<title>5737&#45;&gt;5738</title>
<path fill="none" stroke="#e06f45" d="M1545.71,-57.97C1567.4,-144.76 1568.23,-168.97 1566.05,-383.74"/>
<polygon fill="#e06f45" stroke="#e06f45" points="1562.55,-383.57 1565.95,-393.61 1569.55,-383.64 1562.55,-383.57"/>
</g>
<!-- 5739 -->
<g id="node10" class="node">
<title>5739</title>
<polygon fill="none" stroke="#e06f45" points="1663.32,-152.43 1663.32,-167.34 1635.95,-177.88 1597.25,-177.88 1569.88,-167.34 1569.88,-152.43 1597.25,-141.88 1635.95,-141.88 1663.32,-152.43"/>
<polygon fill="none" stroke="#e06f45" points="1667.32,-149.68 1667.32,-170.08 1636.7,-181.88 1596.51,-181.88 1565.88,-170.08 1565.88,-149.68 1596.51,-137.88 1636.7,-137.88 1667.32,-149.68"/>
<text text-anchor="middle" x="1616.6" y="-154.83" font-family="Times,serif" font-size="14.00">LGPL20</text>
</g>
<!-- 5739&#45;&gt;5738 -->
<g id="edge26" class="edge">
<title>5739&#45;&gt;5738</title>
<path fill="none" stroke="#e06f45" stroke-width="2" d="M1613.31,-182.32C1605.38,-235.88 1601.6,-254.34 1572.94,-384.65"/>
<polygon fill="#e06f45" stroke="#e06f45" stroke-width="2" points="1571.08,-393.11 1568.83,-382.37 1571.14,-390.5 1572.74,-383.23 1573.23,-383.34 1573.72,-383.45 1572.12,-390.71 1577.62,-384.31 1571.08,-393.11"/>
</g>
<!-- 6846 -->
<g id="node11" class="node">
<title>6846</title>
<ellipse fill="none" stroke="#e09d4b" cx="379.73" cy="-1718.64" rx="159.81" ry="28.99"/>
<text text-anchor="middle" x="379.73" y="-1721.84" font-family="Times,serif" font-size="14.00" fill="gray">FedoraEntry</text>
<text text-anchor="middle" x="379.73" y="-1705.34" font-family="Times,serif" font-size="14.00" fill="gray">d952d9773975aa99af81ec3bb1d1b5b7</text>
</g>
<!-- 6846&#45;&gt;6847 -->
<g id="edge27" class="edge">
<title>6846&#45;&gt;6847</title>
<path fill="none" stroke="#e09d4b" d="M451.63,-1744.88C539.1,-1774.23 584.5,-1772.59 763.77,-1742.53"/>
<polygon fill="#e09d4b" stroke="#e09d4b" points="764.15,-1746.02 773.43,-1740.9 762.99,-1739.11 764.15,-1746.02"/>
</g>
<!-- 6848 -->
<g id="node13" class="node">
<title>6848</title>
<polygon fill="none" stroke="#e09d4b" points="449.79,-1820.46 449.79,-1835.38 317.93,-1845.92 131.45,-1845.92 -0.41,-1835.38 -0.41,-1820.46 131.45,-1809.92 317.93,-1809.92 449.79,-1820.46"/>
<text text-anchor="middle" x="224.69" y="-1822.87" font-family="Times,serif" font-size="14.00">GNU Lesser General Public License v2 (or 2.1) only</text>
</g>
<!-- 6848&#45;&gt;6847 -->
<g id="edge28" class="edge">
<title>6848&#45;&gt;6847</title>
<path fill="none" stroke="#e09d4b" stroke-dasharray="5,2" d="M373.85,-1841.92C467.14,-1843.53 547.78,-1821.5 788.72,-1748.1"/>
<polygon fill="#e09d4b" stroke="#e09d4b" points="798.03,-1745.26 789.78,-1752.48 794.42,-1746.36 788.47,-1748.17 788.47,-1748.17 788.47,-1748.17 794.42,-1746.36 787.16,-1743.87 798.03,-1745.26"/>
</g>
<!-- 6849 -->
<g id="node14" class="node">
<title>6849</title>
<polygon fill="none" stroke="black" points="1014.6,-1472.22 1014.6,-1487.14 987.23,-1497.68 948.53,-1497.68 921.16,-1487.14 921.16,-1472.22 948.53,-1461.68 987.23,-1461.68 1014.6,-1472.22"/>
<text text-anchor="middle" x="967.88" y="-1474.63" font-family="Times,serif" font-size="14.00">LGPLv2</text>
</g>
<!-- 6849&#45;&gt;6847 -->
<g id="edge29" class="edge">
<title>6849&#45;&gt;6847</title>
<path fill="none" stroke="#e09d4b" stroke-dasharray="5,2" d="M957.65,-1497.82C889.46,-1618.72 878.55,-1639.64 868.02,-1692.72"/>
<polygon fill="#e09d4b" stroke="#e09d4b" points="866.2,-1702.22 863.66,-1691.55 866.91,-1698.51 868.08,-1692.4 868.08,-1692.4 868.08,-1692.4 866.91,-1698.51 872.5,-1693.24 866.2,-1702.22"/>
</g>
<!-- 6849&#45;&gt;37041 -->
<g id="edge30" class="edge">
<title>6849&#45;&gt;37041</title>
<path fill="none" stroke="#379469" stroke-dasharray="5,2" d="M995.83,-1464.8C1045.6,-1437.99 1066.18,-1424.04 1177.64,-1343.71"/>
<polygon fill="#379469" stroke="#379469" points="1185.55,-1338.01 1180.07,-1347.51 1182.48,-1340.22 1177.44,-1343.86 1177.44,-1343.86 1177.44,-1343.86 1182.48,-1340.22 1174.81,-1340.21 1185.55,-1338.01"/>
</g>
<!-- 9399 -->
<g id="node15" class="node">
<title>9399</title>
<ellipse fill="none" stroke="#00876c" cx="607.14" cy="-1113.81" rx="159.28" ry="28.99"/>
<text text-anchor="middle" x="607.14" y="-1117.01" font-family="Times,serif" font-size="14.00" fill="gray">BlueOakCouncil</text>
<text text-anchor="middle" x="607.14" y="-1100.51" font-family="Times,serif" font-size="14.00" fill="gray">b696b1ec0a96755a15747304d3cf74ad</text>
</g>
<!-- 9399&#45;&gt;9400 -->
<g id="edge31" class="edge">
<title>9399&#45;&gt;9400</title>
<path fill="none" stroke="#00876c" d="M629.93,-1142.98C703.8,-1236.65 727.72,-1251.85 927.14,-1330.14"/>
<polygon fill="#00876c" stroke="#00876c" points="925.71,-1333.34 936.3,-1333.73 928.27,-1326.82 925.71,-1333.34"/>
</g>
<!-- 9401 -->
<g id="node17" class="node">
<title>9401</title>
<polygon fill="none" stroke="black" points="1543.82,-1502.87 1543.82,-1517.79 1448.63,-1528.33 1314.01,-1528.33 1218.82,-1517.79 1218.82,-1502.87 1314.01,-1492.33 1448.63,-1492.33 1543.82,-1502.87"/>
<text text-anchor="middle" x="1381.32" y="-1505.28" font-family="Times,serif" font-size="14.00">GNU Library General Public License</text>
</g>
<!-- 9401&#45;&gt;9400 -->
<g id="edge32" class="edge">
<title>9401&#45;&gt;9400</title>
<path fill="none" stroke="#00876c" stroke-dasharray="5,2" d="M1219.71,-1502.33C1138.65,-1492.02 1104.65,-1465.67 1022.54,-1385.44"/>
<polygon fill="#00876c" stroke="#00876c" points="1015.84,-1378.88 1026.14,-1382.66 1018.55,-1381.52 1022.99,-1385.88 1022.99,-1385.88 1022.99,-1385.88 1018.55,-1381.52 1019.84,-1389.09 1015.84,-1378.88"/>
</g>
<!-- 9401&#45;&gt;42375 -->
<g id="edge33" class="edge">
<title>9401&#45;&gt;42375</title>
<path fill="none" stroke="#00876c" stroke-dasharray="5,2" d="M1417.5,-1528.82C1581.98,-1612.77 1634.51,-1637.29 1708.07,-1638.99"/>
<polygon fill="#00876c" stroke="#00876c" points="1717.88,-1639.07 1707.84,-1643.49 1714.1,-1639.04 1707.88,-1638.99 1707.88,-1638.99 1707.88,-1638.99 1714.1,-1639.04 1707.91,-1634.49 1717.88,-1639.07"/>
</g>
<!-- 9616 -->
<g id="node18" class="node">
<title>9616</title>
<ellipse fill="none" stroke="#58a066" cx="457.98" cy="-2176.21" rx="159.81" ry="28.99"/>
<text text-anchor="middle" x="457.98" y="-2179.41" font-family="Times,serif" font-size="14.00" fill="gray">OSADLRule</text>
<text text-anchor="middle" x="457.98" y="-2162.91" font-family="Times,serif" font-size="14.00" fill="gray">ed63f47e67c4a29173e467077dd64133</text>
</g>
<!-- 9616&#45;&gt;9617 -->
<g id="edge34" class="edge">
<title>9616&#45;&gt;9617</title>
<path fill="none" stroke="#58a066" d="M567.03,-2154.66C632.63,-2136.24 685.46,-2103.5 841.19,-2001.22"/>
<polygon fill="#58a066" stroke="#58a066" points="842.92,-2004.27 849.36,-1995.86 839.08,-1998.42 842.92,-2004.27"/>
</g>
<!-- 9898 -->
<g id="node20" class="node">
<title>9898</title>
<ellipse fill="none" stroke="#58a066" cx="570.22" cy="-2311.93" rx="158.75" ry="28.99"/>
<text text-anchor="middle" x="570.22" y="-2315.13" font-family="Times,serif" font-size="14.00" fill="gray">OSADLMatrix</text>
<text text-anchor="middle" x="570.22" y="-2298.63" font-family="Times,serif" font-size="14.00" fill="gray">642b71f14e6c63a8c433269d0e2a376a</text>
</g>
<!-- 9898&#45;&gt;9617 -->
<g id="edge35" class="edge">
<title>9898&#45;&gt;9617</title>
<path fill="none" stroke="#58a066" d="M603.85,-2283.16C676.78,-2220.22 699.58,-2194.13 858.84,-2003.59"/>
<polygon fill="#58a066" stroke="#58a066" points="861.33,-2006.06 865.06,-1996.14 855.96,-2001.57 861.33,-2006.06"/>
</g>
<!-- 18318 -->
<g id="node21" class="node">
<title>18318</title>
<ellipse fill="none" stroke="#dac767" cx="2135.81" cy="-1071.14" rx="155.03" ry="28.99"/>
<text text-anchor="middle" x="2135.81" y="-1074.34" font-family="Times,serif" font-size="14.00" fill="gray">ScancodeData</text>
<text text-anchor="middle" x="2135.81" y="-1057.84" font-family="Times,serif" font-size="14.00" fill="gray">5cfacae2bb19ae27aee6bd9a6abcc941</text>
</g>
<!-- 18318&#45;&gt;18319 -->
<g id="edge36" class="edge">
<title>18318&#45;&gt;18319</title>
<path fill="none" stroke="#dac767" d="M2123.47,-1100.41C2073.82,-1217.04 2057.57,-1233.48 1884.03,-1339.88"/>
<polygon fill="#dac767" stroke="#dac767" points="1882.28,-1336.85 1875.58,-1345.06 1885.94,-1342.82 1882.28,-1336.85"/>
</g>
<!-- 18319&#45;&gt;42375 -->
<g id="edge37" class="edge">
<title>18319&#45;&gt;42375</title>
<path fill="none" stroke="#00876c" stroke-dasharray="5,2" d="M1843.06,-1390.03C1869.96,-1512.58 1871.46,-1531.27 1838.23,-1599.57"/>
<polygon fill="#00876c" stroke="#00876c" points="1833.85,-1608.46 1834.24,-1597.5 1835.53,-1605.07 1838.27,-1599.49 1838.27,-1599.49 1838.27,-1599.49 1835.53,-1605.07 1842.31,-1601.48 1833.85,-1608.46"/>
</g>
<!-- 18319&#45;&gt;50609 -->
<g id="edge38" class="edge">
<title>18319&#45;&gt;50609</title>
<path fill="none" stroke="#b8bf62" stroke-width="2" d="M1831.56,-1390.22C1758.34,-1636.56 1747.79,-1658.85 1580.14,-1759.89"/>
<polygon fill="#b8bf62" stroke="#b8bf62" stroke-width="2" points="1573.08,-1764.13 1579.33,-1755.13 1575.02,-1762.39 1581.39,-1758.55 1581.65,-1758.98 1581.91,-1759.41 1575.53,-1763.24 1583.97,-1762.84 1573.08,-1764.13"/>
</g>
<!-- 18320 -->
<g id="node23" class="node">
<title>18320</title>
<polygon fill="none" stroke="black" points="1728.98,-1428.89 1728.98,-1443.8 1698.69,-1454.34 1655.86,-1454.34 1625.57,-1443.8 1625.57,-1428.89 1655.86,-1418.34 1698.69,-1418.34 1728.98,-1428.89"/>
<polygon fill="none" stroke="black" points="1732.98,-1426.04 1732.98,-1446.64 1699.37,-1458.34 1655.18,-1458.34 1621.57,-1446.64 1621.57,-1426.04 1655.18,-1414.34 1699.37,-1414.34 1732.98,-1426.04"/>
<text text-anchor="middle" x="1677.28" y="-1431.29" font-family="Times,serif" font-size="14.00">LGPL 2.0</text>
</g>
<!-- 18320&#45;&gt;18319 -->
<g id="edge39" class="edge">
<title>18320&#45;&gt;18319</title>
<path fill="none" stroke="#dac767" stroke-width="2" d="M1733.34,-1427.33C1772.48,-1420.29 1788.62,-1414.11 1807.72,-1397.73"/>
<polygon fill="#dac767" stroke="#dac767" stroke-width="2" points="1814.04,-1391.99 1809.66,-1402.05 1812.48,-1394.09 1806.97,-1399.08 1806.64,-1398.71 1806.3,-1398.34 1811.81,-1393.35 1803.61,-1395.38 1814.04,-1391.99"/>
</g>
<!-- 18320&#45;&gt;50609 -->
<g id="edge40" class="edge">
<title>18320&#45;&gt;50609</title>
<path fill="none" stroke="#b8bf62" stroke-width="2" d="M1674.18,-1458.6C1646.82,-1654.9 1641.25,-1678.06 1563.56,-1757.49"/>
<polygon fill="#b8bf62" stroke="#b8bf62" stroke-width="2" points="1557.52,-1763.62 1561.33,-1753.34 1558.96,-1761.44 1564.18,-1756.14 1564.54,-1756.49 1564.89,-1756.84 1559.68,-1762.14 1567.74,-1759.65 1557.52,-1763.62"/>
</g>
<!-- 18321 -->
<g id="node24" class="node">
<title>18321</title>
<polygon fill="none" stroke="black" points="2218.64,-1676.3 2218.64,-1691.21 2114.36,-1701.76 1966.89,-1701.76 1862.62,-1691.21 1862.62,-1676.3 1966.89,-1665.76 2114.36,-1665.76 2218.64,-1676.3"/>
<polygon fill="none" stroke="black" points="2222.64,-1672.69 2222.64,-1694.83 2114.56,-1705.76 1966.69,-1705.76 1858.62,-1694.83 1858.62,-1672.69 1966.69,-1661.76 2114.56,-1661.76 2222.64,-1672.69"/>
<text text-anchor="middle" x="2040.63" y="-1678.71" font-family="Times,serif" font-size="14.00">GNU Library General Public License 2.0</text>
</g>
<!-- 18321&#45;&gt;18319 -->
<g id="edge41" class="edge">
<title>18321&#45;&gt;18319</title>
<path fill="none" stroke="#dac767" stroke-width="2" d="M2033.71,-1661.47C2004.84,-1569.29 1994.05,-1553.08 1864.01,-1398.55"/>
<polygon fill="#dac767" stroke="#dac767" stroke-width="2" points="1858.48,-1391.99 1868.36,-1396.74 1860.51,-1393.62 1865.3,-1399.31 1864.92,-1399.64 1864.54,-1399.96 1859.75,-1394.27 1861.48,-1402.53 1858.48,-1391.99"/>
</g>
<!-- 42376 -->
<g id="node37" class="node">
<title>42376</title>
<polygon fill="none" stroke="#00876c" points="1948.76,-1728.33 1948.76,-1743.24 1817.55,-1753.79 1631.99,-1753.79 1500.78,-1743.24 1500.78,-1728.33 1631.99,-1717.79 1817.55,-1717.79 1948.76,-1728.33"/>
<polygon fill="none" stroke="#00876c" points="1952.76,-1724.64 1952.76,-1746.94 1817.71,-1757.79 1631.83,-1757.79 1496.78,-1746.94 1496.78,-1724.64 1631.83,-1713.79 1817.71,-1713.79 1952.76,-1724.64"/>
<text text-anchor="middle" x="1724.77" y="-1730.74" font-family="Times,serif" font-size="14.00">metaeffekt:GNU Library General Public License 2.0</text>
</g>
<!-- 18321&#45;&gt;42376 -->
<g id="edge42" class="edge">
<title>18321&#45;&gt;42376</title>
<path fill="none" stroke="#00876c" stroke-width="2" d="M2004.85,-1706.17C1989.22,-1715.71 1975.84,-1723.3 1963.09,-1729.22"/>
<polygon fill="#00876c" stroke="#00876c" stroke-width="2" points="1955.2,-1732.64 1962.58,-1724.53 1957.35,-1731.16 1964.17,-1728.2 1964.37,-1728.66 1964.57,-1729.12 1957.75,-1732.08 1966.16,-1732.79 1955.2,-1732.64"/>
</g>
<!-- 18321&#45;&gt;50609 -->
<g id="edge43" class="edge">
<title>18321&#45;&gt;50609</title>
<path fill="none" stroke="#b8bf62" stroke-width="2" d="M2008.6,-1706.25C1895.56,-1785.22 1853.88,-1807.23 1732.11,-1803.33"/>
<polygon fill="#b8bf62" stroke="#b8bf62" stroke-width="2" points="1723.69,-1803.02 1733.85,-1798.9 1726.27,-1802.62 1733.7,-1802.89 1733.68,-1803.39 1733.66,-1803.89 1726.23,-1803.62 1733.51,-1807.89 1723.69,-1803.02"/>
</g>
<!-- 25917 -->
<g id="node25" class="node">
<title>25917</title>
<ellipse fill="none" stroke="#e18745" cx="1786.42" cy="-575.61" rx="159.81" ry="28.99"/>
<text text-anchor="middle" x="1786.42" y="-578.81" font-family="Times,serif" font-size="14.00" fill="gray">Fossology</text>
<text text-anchor="middle" x="1786.42" y="-562.31" font-family="Times,serif" font-size="14.00" fill="gray">61f53b9d86d96302210016a5a76e6cc5</text>
</g>
<!-- 25917&#45;&gt;25918 -->
<g id="edge44" class="edge">
<title>25917&#45;&gt;25918</title>
<path fill="none" stroke="#e18745" d="M1775.57,-604.92C1743.67,-690.29 1731.09,-712.67 1615.34,-903.34"/>
<polygon fill="#e18745" stroke="#e18745" points="1612.37,-901.48 1610.18,-911.85 1618.36,-905.12 1612.37,-901.48"/>
</g>
<!-- 27201 -->
<g id="node27" class="node">
<title>27201</title>
<polygon fill="none" stroke="black" points="2170.13,-1514.36 2170.13,-1529.28 2148.6,-1539.82 2118.16,-1539.82 2096.63,-1529.28 2096.63,-1514.36 2118.16,-1503.82 2148.6,-1503.82 2170.13,-1514.36"/>
<text text-anchor="middle" x="2133.38" y="-1516.77" font-family="Times,serif" font-size="14.00">LGPL</text>
</g>
<!-- 27201&#45;&gt;42375 -->
<g id="edge45" class="edge">
<title>27201&#45;&gt;42375</title>
<path fill="none" stroke="#00876c" stroke-dasharray="5,2" d="M2114.93,-1538.49C2052.28,-1594.73 2029.73,-1608.97 1936.28,-1620.42"/>
<polygon fill="#00876c" stroke="#00876c" points="1926.36,-1621.59 1935.77,-1615.95 1930.12,-1621.15 1936.29,-1620.42 1936.29,-1620.42 1936.29,-1620.42 1930.12,-1621.15 1936.82,-1624.89 1926.36,-1621.59"/>
</g>
<!-- 28782 -->
<g id="node28" class="node">
<title>28782</title>
<ellipse fill="none" stroke="#e06f45" cx="1598.44" cy="-2159.46" rx="160.87" ry="28.99"/>
<text text-anchor="middle" x="1598.44" y="-2162.66" font-family="Times,serif" font-size="14.00" fill="gray">OrtLicenseCategorization</text>
<text text-anchor="middle" x="1598.44" y="-2146.16" font-family="Times,serif" font-size="14.00" fill="gray">33690b02bc671d95e4652f6d63282cb8</text>
</g>
<!-- 28782&#45;&gt;2455 -->
<g id="edge46" class="edge">
<title>28782&#45;&gt;2455</title>
<path fill="none" stroke="#e06f45" d="M1522,-2133.66C1403.64,-2091.02 1373.91,-2057.08 1217.7,-1851.34"/>
<polygon fill="#e06f45" stroke="#e06f45" points="1220.64,-1849.42 1211.8,-1843.57 1215.06,-1853.66 1220.64,-1849.42"/>
</g>
<!-- 35528 -->
<g id="node29" class="node">
<title>35528</title>
<ellipse fill="none" stroke="#e09d4b" cx="1268.68" cy="-2160.92" rx="160.87" ry="28.99"/>
<text text-anchor="middle" x="1268.68" y="-2164.12" font-family="Times,serif" font-size="14.00" fill="gray">OrtLicenseCategorization</text>
<text text-anchor="middle" x="1268.68" y="-2147.62" font-family="Times,serif" font-size="14.00" fill="gray">1b055961bb0df669a9a128b717591ed3</text>
</g>
<!-- 35528&#45;&gt;2455 -->
<g id="edge47" class="edge">
<title>35528&#45;&gt;2455</title>
<path fill="none" stroke="#e09d4b" d="M1255.27,-2131.84C1223.19,-2061.09 1219.08,-2037 1197.88,-1853.97"/>
<polygon fill="#e09d4b" stroke="#e09d4b" points="1201.36,-1853.58 1196.74,-1844.05 1194.41,-1854.39 1201.36,-1853.58"/>
</g>
<!-- 37040 -->
<g id="node30" class="node">
<title>37040</title>
<ellipse fill="none" stroke="#379469" cx="921.66" cy="-982.15" rx="159.81" ry="28.99"/>
<text text-anchor="middle" x="921.66" y="-985.35" font-family="Times,serif" font-size="14.00" fill="gray">CavilLicenseChange</text>
<text text-anchor="middle" x="921.66" y="-968.85" font-family="Times,serif" font-size="14.00" fill="gray">2e906a56c1c5803eea2dd1e5d711833d</text>
</g>
<!-- 37040&#45;&gt;37041 -->
<g id="edge48" class="edge">
<title>37040&#45;&gt;37041</title>
<path fill="none" stroke="#379469" d="M932.61,-1011.46C978.76,-1133.85 994.39,-1150.94 1177.85,-1285.66"/>
<polygon fill="#379469" stroke="#379469" points="1175.65,-1288.38 1185.78,-1291.47 1179.79,-1282.74 1175.65,-1288.38"/>
</g>
<!-- 37042 -->
<g id="node32" class="node">
<title>37042</title>
<polygon fill="none" stroke="#379469" points="1067.08,-1101.15 1067.08,-1116.06 1038.42,-1126.6 997.88,-1126.6 969.21,-1116.06 969.21,-1101.15 997.88,-1090.6 1038.42,-1090.6 1067.08,-1101.15"/>
<text text-anchor="middle" x="1018.15" y="-1103.55" font-family="Times,serif" font-size="14.00">LGPL v2</text>
</g>
<!-- 37042&#45;&gt;37041 -->
<g id="edge49" class="edge">
<title>37042&#45;&gt;37041</title>
<path fill="none" stroke="#379469" stroke-dasharray="5,2" d="M1025.23,-1127.1C1057.57,-1210.86 1068,-1224.77 1170.6,-1286.72"/>
<polygon fill="#379469" stroke="#379469" points="1179.1,-1291.83 1168.21,-1290.53 1175.86,-1289.88 1170.53,-1286.68 1170.53,-1286.68 1170.53,-1286.68 1175.86,-1289.88 1172.85,-1282.82 1179.1,-1291.83"/>
</g>
<!-- 37043 -->
<g id="node33" class="node">
<title>37043</title>
<polygon fill="none" stroke="#379469" points="1243.87,-997.43 1243.87,-1012.34 1198.65,-1022.88 1134.71,-1022.88 1089.49,-1012.34 1089.49,-997.43 1134.71,-986.88 1198.65,-986.88 1243.87,-997.43"/>
<text text-anchor="middle" x="1166.68" y="-999.83" font-family="Times,serif" font-size="14.00">LGPL v2.0 only</text>
</g>
<!-- 37043&#45;&gt;37041 -->
<g id="edge50" class="edge">
<title>37043&#45;&gt;37041</title>
<path fill="none" stroke="#379469" stroke-dasharray="5,2" d="M1162.2,-1023.09C1132.09,-1145.88 1132.87,-1160.56 1200.04,-1282.9"/>
<polygon fill="#379469" stroke="#379469" points="1204.84,-1291.62 1196.07,-1285.03 1203.01,-1288.31 1200.02,-1282.86 1200.02,-1282.86 1200.02,-1282.86 1203.01,-1288.31 1203.96,-1280.69 1204.84,-1291.62"/>
</g>
<!-- 37044 -->
<g id="node34" class="node">
<title>37044</title>
<polygon fill="none" stroke="black" points="1584.39,-1454.82 1584.39,-1469.73 1552.48,-1480.28 1507.36,-1480.28 1475.45,-1469.73 1475.45,-1454.82 1507.36,-1444.28 1552.48,-1444.28 1584.39,-1454.82"/>
<polygon fill="none" stroke="black" points="1588.39,-1451.93 1588.39,-1472.62 1553.13,-1484.28 1506.71,-1484.28 1471.45,-1472.62 1471.45,-1451.93 1506.71,-1440.28 1553.13,-1440.28 1588.39,-1451.93"/>
<text text-anchor="middle" x="1529.92" y="-1457.23" font-family="Times,serif" font-size="14.00">LGPLv2.0</text>
</g>
<!-- 37044&#45;&gt;37041 -->
<g id="edge51" class="edge">
<title>37044&#45;&gt;37041</title>
<path fill="none" stroke="#379469" stroke-dasharray="5,2" d="M1471.01,-1459.7C1386.62,-1454.23 1361.31,-1438.32 1251.93,-1344.37"/>
<polygon fill="#379469" stroke="#379469" points="1244.48,-1337.97 1254.99,-1341.08 1247.34,-1340.43 1252.06,-1344.49 1252.06,-1344.49 1252.06,-1344.49 1247.34,-1340.43 1249.13,-1347.9 1244.48,-1337.97"/>
</g>
<!-- 37044&#45;&gt;42375 -->
<g id="edge52" class="edge">
<title>37044&#45;&gt;42375</title>
<path fill="none" stroke="#00876c" stroke-dasharray="5,2" d="M1558.78,-1482.8C1673.76,-1564.51 1709.73,-1589.1 1755.3,-1607.96"/>
<polygon fill="#00876c" stroke="#00876c" points="1764.39,-1611.59 1753.43,-1612.06 1760.88,-1610.19 1755.1,-1607.88 1755.1,-1607.88 1755.1,-1607.88 1760.88,-1610.19 1756.77,-1603.7 1764.39,-1611.59"/>
</g>
<!-- 37044&#45;&gt;50609 -->
<g id="edge53" class="edge">
<title>37044&#45;&gt;50609</title>
<path fill="none" stroke="#b8bf62" stroke-width="2" d="M1532.56,-1484.69C1553.27,-1660.54 1555.25,-1685 1540.62,-1754.83"/>
<polygon fill="#b8bf62" stroke="#b8bf62" stroke-width="2" points="1538.86,-1763.1 1536.55,-1752.38 1538.9,-1760.49 1540.46,-1753.22 1540.95,-1753.32 1541.44,-1753.43 1539.88,-1760.7 1545.35,-1754.26 1538.86,-1763.1"/>
</g>
<!-- 42374 -->
<g id="node35" class="node">
<title>42374</title>
<ellipse fill="none" stroke="#00876c" cx="2294.42" cy="-1436.85" rx="155.03" ry="28.99"/>
<text text-anchor="middle" x="2294.42" y="-1440.05" font-family="Times,serif" font-size="14.00" fill="gray">MetaeffektLicense</text>
<text text-anchor="middle" x="2294.42" y="-1423.55" font-family="Times,serif" font-size="14.00" fill="gray">5b9ff0991d608746e89378522ffc3f84</text>
</g>
<!-- 42374&#45;&gt;42375 -->
<g id="edge54" class="edge">
<title>42374&#45;&gt;42375</title>
<path fill="none" stroke="#00876c" d="M2265.42,-1465.51C2162,-1566.94 2132.67,-1581.94 1921.56,-1616.09"/>
<polygon fill="#00876c" stroke="#00876c" points="1921.19,-1612.6 1911.87,-1617.65 1922.3,-1619.52 1921.19,-1612.6"/>
</g>
<!-- 42376&#45;&gt;42375 -->
<g id="edge55" class="edge">
<title>42376&#45;&gt;42375</title>
<path fill="none" stroke="#00876c" stroke-width="2" d="M1770.46,-1713.46C1788.49,-1702.38 1796.67,-1690.76 1808.46,-1664.24"/>
<polygon fill="#00876c" stroke="#00876c" stroke-width="2" points="1811.83,-1656.44 1811.99,-1667.41 1811.27,-1658.99 1808.32,-1665.82 1807.86,-1665.62 1807.4,-1665.42 1810.36,-1658.6 1803.73,-1663.83 1811.83,-1656.44"/>
</g>
<!-- 42377 -->
<g id="node38" class="node">
<title>42377</title>
<polygon fill="none" stroke="#00876c" points="2258.05,-1870.51 2258.05,-1885.42 2200.18,-1895.96 2118.34,-1895.96 2060.47,-1885.42 2060.47,-1870.51 2118.34,-1859.96 2200.18,-1859.96 2258.05,-1870.51"/>
<text text-anchor="middle" x="2159.26" y="-1872.91" font-family="Times,serif" font-size="14.00">GNU Lesser GPL 2.0</text>
</g>
<!-- 42377&#45;&gt;42375 -->
<g id="edge56" class="edge">
<title>42377&#45;&gt;42375</title>
<path fill="none" stroke="#00876c" stroke-dasharray="5,2" d="M2129.95,-1859.52C2055.28,-1812.35 2032.26,-1795.13 1859.51,-1660.82"/>
<polygon fill="#00876c" stroke="#00876c" points="1851.87,-1654.88 1862.52,-1657.46 1854.85,-1657.2 1859.76,-1661.02 1859.76,-1661.02 1859.76,-1661.02 1854.85,-1657.2 1857,-1664.57 1851.87,-1654.88"/>
</g>
<!-- 42378 -->
<g id="node39" class="node">
<title>42378</title>
<polygon fill="none" stroke="#00876c" points="2174.23,-1576.28 2174.23,-1591.19 2053.08,-1601.74 1881.74,-1601.74 1760.59,-1591.19 1760.59,-1576.28 1881.74,-1565.74 2053.08,-1565.74 2174.23,-1576.28"/>
<text text-anchor="middle" x="1967.41" y="-1578.69" font-family="Times,serif" font-size="14.00">GNU Lesser General Public License Version 2.0</text>
</g>
<!-- 42378&#45;&gt;42375 -->
<g id="edge57" class="edge">
<title>42378&#45;&gt;42375</title>
<path fill="none" stroke="#00876c" stroke-dasharray="5,2" d="M1946.3,-1602.03C1940,-1607.21 1934.43,-1611.34 1928.83,-1614.68"/>
<polygon fill="#00876c" stroke="#00876c" points="1920.34,-1619.02 1927.19,-1610.46 1923.71,-1617.3 1929.24,-1614.46 1929.24,-1614.46 1929.24,-1614.46 1923.71,-1617.3 1931.29,-1618.47 1920.34,-1619.02"/>
</g>
<!-- 42379 -->
<g id="node40" class="node">
<title>42379</title>
<polygon fill="none" stroke="#00876c" points="2645.48,-1826.19 2645.48,-1841.1 2514.59,-1851.65 2329.49,-1851.65 2198.6,-1841.1 2198.6,-1826.19 2329.49,-1815.65 2514.59,-1815.65 2645.48,-1826.19"/>
<text text-anchor="middle" x="2422.04" y="-1828.6" font-family="Times,serif" font-size="14.00">^GNU Lesser General Public License version 2 [^\.]</text>
</g>
<!-- 42379&#45;&gt;42375 -->
<g id="edge58" class="edge">
<title>42379&#45;&gt;42375</title>
<path fill="none" stroke="#00876c" stroke-dasharray="5,2" d="M2308.83,-1816.85C2209.91,-1798.82 2140.78,-1770.38 1880.85,-1657.31"/>
<polygon fill="#00876c" stroke="#00876c" points="1871.85,-1653.4 1882.81,-1653.26 1875.32,-1654.9 1881.02,-1657.38 1881.02,-1657.38 1881.02,-1657.38 1875.32,-1654.9 1879.22,-1661.51 1871.85,-1653.4"/>
</g>
<!-- 42380 -->
<g id="node41" class="node">
<title>42380</title>
<polygon fill="none" stroke="#00876c" points="2619.2,-1526.67 2619.2,-1541.58 2490.59,-1552.13 2308.7,-1552.13 2180.08,-1541.58 2180.08,-1526.67 2308.7,-1516.13 2490.59,-1516.13 2619.2,-1526.67"/>
<text text-anchor="middle" x="2399.64" y="-1529.08" font-family="Times,serif" font-size="14.00">Lesser General Public License (LGPL), Version 2.0</text>
</g>
<!-- 42380&#45;&gt;42375 -->
<g id="edge59" class="edge">
<title>42380&#45;&gt;42375</title>
<path fill="none" stroke="#00876c" stroke-dasharray="5,2" d="M2366.87,-1552.51C2230.25,-1628.62 2196.53,-1637.08 1936.19,-1633.6"/>
<polygon fill="#00876c" stroke="#00876c" points="1926.45,-1633.46 1936.51,-1629.1 1930.23,-1633.52 1936.45,-1633.6 1936.45,-1633.6 1936.45,-1633.6 1930.23,-1633.52 1936.38,-1638.1 1926.45,-1633.46"/>
</g>
<!-- 42381 -->
<g id="node42" class="node">
<title>42381</title>
<polygon fill="none" stroke="#00876c" points="2329.01,-1628.27 2329.01,-1643.18 2280.87,-1653.73 2212.8,-1653.73 2164.66,-1643.18 2164.66,-1628.27 2212.8,-1617.73 2280.87,-1617.73 2329.01,-1628.27"/>
<text text-anchor="middle" x="2246.83" y="-1630.68" font-family="Times,serif" font-size="14.00">LGPL 2.0 license</text>
</g>
<!-- 42381&#45;&gt;42375 -->
<g id="edge60" class="edge">
<title>42381&#45;&gt;42375</title>
<path fill="none" stroke="#00876c" stroke-dasharray="5,2" d="M2198.46,-1650.93C2114.62,-1676.08 2079.37,-1675.72 1917.11,-1648.21"/>
<polygon fill="#00876c" stroke="#00876c" points="1907.44,-1646.56 1918.06,-1643.8 1911.17,-1647.2 1917.3,-1648.24 1917.3,-1648.24 1917.3,-1648.24 1911.17,-1647.2 1916.55,-1652.68 1907.44,-1646.56"/>
</g>
<!-- 42382 -->
<g id="node43" class="node">
<title>42382</title>
<polygon fill="none" stroke="#00876c" points="2045.83,-1890.31 2045.83,-1905.22 2010.67,-1915.77 1960.96,-1915.77 1925.8,-1905.22 1925.8,-1890.31 1960.96,-1879.77 2010.67,-1879.77 2045.83,-1890.31"/>
<text text-anchor="middle" x="1985.82" y="-1892.72" font-family="Times,serif" font-size="14.00">LGPL V.2.0</text>
</g>
<!-- 42382&#45;&gt;42375 -->
<g id="edge61" class="edge">
<title>42382&#45;&gt;42375</title>
<path fill="none" stroke="#00876c" stroke-dasharray="5,2" d="M1977.69,-1879.63C1948.16,-1814.07 1938.73,-1798.98 1844.02,-1663.14"/>
<polygon fill="#00876c" stroke="#00876c" points="1838.36,-1655.01 1847.77,-1660.64 1840.52,-1658.11 1844.08,-1663.21 1844.08,-1663.21 1844.08,-1663.21 1840.52,-1658.11 1840.39,-1665.79 1838.36,-1655.01"/>
</g>
<!-- 42383 -->
<g id="node44" class="node">
<title>42383</title>
<polygon fill="none" stroke="#00876c" points="2119.78,-1392.59 2119.78,-1407.5 2086.57,-1418.05 2039.61,-1418.05 2006.4,-1407.5 2006.4,-1392.59 2039.61,-1382.05 2086.57,-1382.05 2119.78,-1392.59"/>
<text text-anchor="middle" x="2063.09" y="-1395" font-family="Times,serif" font-size="14.00">LGPL v2.0</text>
</g>
<!-- 42383&#45;&gt;42375 -->
<g id="edge62" class="edge">
<title>42383&#45;&gt;42375</title>
<path fill="none" stroke="#00876c" stroke-dasharray="5,2" d="M2055.34,-1418.49C2006.99,-1533.29 1995.36,-1550.14 1878.58,-1605.49"/>
<polygon fill="#00876c" stroke="#00876c" points="1869.58,-1609.73 1876.71,-1601.39 1873,-1608.12 1878.63,-1605.47 1878.63,-1605.47 1878.63,-1605.47 1873,-1608.12 1880.55,-1609.54 1869.58,-1609.73"/>
</g>
<!-- 42384 -->
<g id="node45" class="node">
<title>42384</title>
<polygon fill="none" stroke="#00876c" points="1956,-1943.31 1956,-1958.22 1917.92,-1968.76 1864.07,-1968.76 1826,-1958.22 1826,-1943.31 1864.07,-1932.76 1917.92,-1932.76 1956,-1943.31"/>
<text text-anchor="middle" x="1891" y="-1945.71" font-family="Times,serif" font-size="14.00">LGPL&#45;2 [^\.]</text>
</g>
<!-- 42384&#45;&gt;42375 -->
<g id="edge63" class="edge">
<title>42384&#45;&gt;42375</title>
<path fill="none" stroke="#00876c" stroke-dasharray="5,2" d="M1892.16,-1932.36C1897.41,-1846.23 1893.94,-1830.81 1833.85,-1664.19"/>
<polygon fill="#00876c" stroke="#00876c" points="1830.6,-1655.2 1838.23,-1663.08 1831.89,-1658.76 1834,-1664.61 1834,-1664.61 1834,-1664.61 1831.89,-1658.76 1829.77,-1666.13 1830.6,-1655.2"/>
</g>
<!-- 42385 -->
<g id="node46" class="node">
<title>42385</title>
<polygon fill="none" stroke="#00876c" points="2249.96,-1758.31 2249.96,-1773.22 2207.99,-1783.77 2148.63,-1783.77 2106.66,-1773.22 2106.66,-1758.31 2148.63,-1747.77 2207.99,-1747.77 2249.96,-1758.31"/>
<text text-anchor="middle" x="2178.31" y="-1760.72" font-family="Times,serif" font-size="14.00">^LGPLv2 [^\.]</text>
</g>
<!-- 42385&#45;&gt;42375 -->
<g id="edge64" class="edge">
<title>42385&#45;&gt;42375</title>
<path fill="none" stroke="#00876c" stroke-dasharray="5,2" d="M2117.09,-1755.24C2056.58,-1743.19 2019.24,-1726.94 1877.04,-1658.3"/>
<polygon fill="#00876c" stroke="#00876c" points="1868.17,-1654.02 1879.13,-1654.32 1871.58,-1655.66 1877.18,-1658.37 1877.18,-1658.37 1877.18,-1658.37 1871.58,-1655.66 1875.22,-1662.42 1868.17,-1654.02"/>
</g>
<!-- 42386 -->
<g id="node47" class="node">
<title>42386</title>
<polygon fill="none" stroke="#00876c" points="2212.29,-1989.93 2212.29,-2004.84 2134.3,-2015.38 2024,-2015.38 1946.01,-2004.84 1946.01,-1989.93 2024,-1979.38 2134.3,-1979.38 2212.29,-1989.93"/>
<text text-anchor="middle" x="2079.15" y="-1992.33" font-family="Times,serif" font-size="14.00">GNU library license version 2</text>
</g>
<!-- 42386&#45;&gt;42375 -->
<g id="edge65" class="edge">
<title>42386&#45;&gt;42375</title>
<path fill="none" stroke="#00876c" stroke-dasharray="5,2" d="M2068.66,-1979.08C2013.87,-1883.62 2002.42,-1867.56 1845.79,-1662.69"/>
<polygon fill="#00876c" stroke="#00876c" points="1839.93,-1655.03 1849.58,-1660.24 1842.23,-1658.03 1846.01,-1662.97 1846.01,-1662.97 1846.01,-1662.97 1842.23,-1658.03 1842.43,-1665.71 1839.93,-1655.03"/>
</g>
<!-- 42387 -->
<g id="node48" class="node">
<title>42387</title>
<polygon fill="none" stroke="#00876c" points="2693.13,-1692.67 2693.13,-1707.58 2557.7,-1718.12 2366.17,-1718.12 2230.74,-1707.58 2230.74,-1692.67 2366.17,-1682.12 2557.7,-1682.12 2693.13,-1692.67"/>
<text text-anchor="middle" x="2461.94" y="-1695.07" font-family="Times,serif" font-size="14.00">GNU Lesser/Library General Public License version 2</text>
</g>
<!-- 42387&#45;&gt;42375 -->
<g id="edge66" class="edge">
<title>42387&#45;&gt;42375</title>
<path fill="none" stroke="#00876c" stroke-dasharray="5,2" d="M2345.49,-1716.94C2240.15,-1727.85 2169.09,-1714.09 1904.27,-1651.29"/>
<polygon fill="#00876c" stroke="#00876c" points="1894.73,-1649.03 1905.5,-1646.96 1898.41,-1649.9 1904.46,-1651.33 1904.46,-1651.33 1904.46,-1651.33 1898.41,-1649.9 1903.43,-1655.71 1894.73,-1649.03"/>
</g>
<!-- 42388&#45;&gt;42375 -->
<g id="edge67" class="edge">
<title>42388&#45;&gt;42375</title>
<path fill="none" stroke="#00876c" stroke-dasharray="5,2" d="M1820.59,-1317.33C1870.1,-1482.23 1873.09,-1501.52 1835.06,-1599.14"/>
<polygon fill="#00876c" stroke="#00876c" points="1831.45,-1608.35 1830.91,-1597.4 1832.83,-1604.83 1835.1,-1599.05 1835.1,-1599.05 1835.1,-1599.05 1832.83,-1604.83 1839.29,-1600.69 1831.45,-1608.35"/>
</g>
<!-- 49995 -->
<g id="node50" class="node">
<title>49995</title>
<ellipse fill="none" stroke="#dc574a" cx="1501.63" cy="-2227.23" rx="155.56" ry="28.99"/>
<text text-anchor="middle" x="1501.63" y="-2230.43" font-family="Times,serif" font-size="14.00" fill="gray">HermineLicense</text>
<text text-anchor="middle" x="1501.63" y="-2213.93" font-family="Times,serif" font-size="14.00" fill="gray">7b994fa98fe550eaecbb0829a152df65</text>
</g>
<!-- 49995&#45;&gt;2455 -->
<g id="edge68" class="edge">
<title>49995&#45;&gt;2455</title>
<path fill="none" stroke="#dc574a" d="M1459.24,-2199.01C1350.95,-2125.67 1333.62,-2097.02 1210.24,-1852.34"/>
<polygon fill="#dc574a" stroke="#dc574a" points="1213.54,-1851.13 1205.92,-1843.77 1207.29,-1854.28 1213.54,-1851.13"/>
</g>
<!-- 50608 -->
<g id="node51" class="node">
<title>50608</title>
<ellipse fill="none" stroke="#b8bf62" cx="1528.84" cy="-1846.85" rx="156.62" ry="28.99"/>
<text text-anchor="middle" x="1528.84" y="-1850.05" font-family="Times,serif" font-size="14.00" fill="gray">FossLicense</text>
<text text-anchor="middle" x="1528.84" y="-1833.55" font-family="Times,serif" font-size="14.00" fill="gray">0e0c9fcdb7173d6a9c62d5675f9b19f1</text>
</g>
<!-- 50608&#45;&gt;50609 -->
<g id="edge69" class="edge">
<title>50608&#45;&gt;50609</title>
<path fill="none" stroke="#b8bf62" d="M1533.88,-1817.43C1533.89,-1817.29 1533.89,-1817.15 1533.89,-1817.01"/>
<polygon fill="#b8bf62" stroke="#b8bf62" points="1537.4,-1821.44 1533.87,-1811.45 1530.4,-1821.46 1537.4,-1821.44"/>
</g>
<!-- 50610 -->
<g id="node53" class="node">
<title>50610</title>
<polygon fill="none" stroke="#b8bf62" points="1870.9,-2251.34 1870.9,-2266.26 1819.19,-2276.8 1746.07,-2276.8 1694.36,-2266.26 1694.36,-2251.34 1746.07,-2240.8 1819.19,-2240.8 1870.9,-2251.34"/>
<polygon fill="none" stroke="#b8bf62" points="1874.9,-2248.08 1874.9,-2269.52 1819.6,-2280.8 1745.67,-2280.8 1690.36,-2269.52 1690.36,-2248.08 1745.67,-2236.8 1819.6,-2236.8 1874.9,-2248.08"/>
<text text-anchor="middle" x="1782.63" y="-2253.75" font-family="Times,serif" font-size="14.00">scancode://lgpl&#45;2.0</text>
</g>
<!-- 50610&#45;&gt;50609 -->
<g id="edge70" class="edge">
<title>50610&#45;&gt;50609</title>
<path fill="none" stroke="#b8bf62" stroke-width="2" d="M1768.01,-2236.3C1696.61,-2126.23 1685.84,-2105.15 1548.78,-1819.81"/>
<polygon fill="#b8bf62" stroke="#b8bf62" stroke-width="2" points="1545.11,-1812.18 1553.5,-1819.24 1546.67,-1814.27 1549.89,-1820.98 1549.44,-1821.19 1548.99,-1821.41 1545.77,-1814.71 1545.39,-1823.14 1545.11,-1812.18"/>
</g>
<!-- 51228 -->
<g id="node54" class="node">
<title>51228</title>
<ellipse fill="none" stroke="#d43d51" cx="829.23" cy="-2227.22" rx="156.09" ry="28.99"/>
<text text-anchor="middle" x="829.23" y="-2230.42" font-family="Times,serif" font-size="14.00" fill="gray">HitachiOpenLicense</text>
<text text-anchor="middle" x="829.23" y="-2213.92" font-family="Times,serif" font-size="14.00" fill="gray">48fa6cbf42871d7fa73be13bd21c3c33</text>
</g>
<!-- 51229 -->
<g id="node55" class="node">
<title>51229</title>
<polygon fill="none" stroke="#d43d51" points="1095.54,-2160.72 1095.54,-2175.63 959.14,-2186.17 766.24,-2186.17 629.83,-2175.63 629.83,-2160.72 766.24,-2150.17 959.14,-2150.17 1095.54,-2160.72"/>
<polygon fill="none" stroke="#d43d51" points="1099.54,-2157.02 1099.54,-2179.33 959.29,-2190.17 766.08,-2190.17 625.83,-2179.33 625.83,-2157.02 766.08,-2146.17 959.29,-2146.17 1099.54,-2157.02"/>
<text text-anchor="middle" x="862.69" y="-2163.12" font-family="Times,serif" font-size="14.00">hitachi:GNU Library General Public License Version 2</text>
</g>
<!-- 51228&#45;&gt;51229 -->
<g id="edge71" class="edge">
<title>51228&#45;&gt;51229</title>
<path fill="none" stroke="#d43d51" d="M846.25,-2198.34C846.33,-2198.19 846.41,-2198.04 846.49,-2197.89"/>
<polygon fill="#d43d51" stroke="#d43d51" points="848.18,-2202.1 849.91,-2191.65 842.04,-2198.73 848.18,-2202.1"/>
</g>
<!-- 51230 -->
<g id="node56" class="node">
<title>51230</title>
<polygon fill="none" stroke="black" points="1060.55,-2108.69 1060.55,-2123.6 941.67,-2134.14 773.55,-2134.14 654.67,-2123.6 654.67,-2108.69 773.55,-2098.14 941.67,-2098.14 1060.55,-2108.69"/>
<polygon fill="none" stroke="black" points="1064.55,-2105.03 1064.55,-2127.26 941.85,-2138.14 773.38,-2138.14 650.67,-2127.26 650.67,-2105.03 773.38,-2094.14 941.85,-2094.14 1064.55,-2105.03"/>
<text text-anchor="middle" x="857.61" y="-2111.09" font-family="Times,serif" font-size="14.00">GNU Library General Public License Version 2</text>
</g>
<!-- 51230&#45;&gt;2456 -->
<g id="edge72" class="edge">
<title>51230&#45;&gt;2456</title>
<path fill="none" stroke="#78ab63" stroke-width="2" d="M863.4,-2093.74C892.75,-1980.47 900.24,-1961.06 1008.51,-1704.82"/>
<polygon fill="#78ab63" stroke="#78ab63" stroke-width="2" points="1011.79,-1697.06 1012.04,-1708.02 1011.25,-1699.61 1008.36,-1706.46 1007.9,-1706.27 1007.43,-1706.07 1010.33,-1699.22 1003.75,-1704.52 1011.79,-1697.06"/>
</g>
<!-- 51230&#45;&gt;51229 -->
<g id="edge73" class="edge">
<title>51230&#45;&gt;51229</title>
<path fill="none" stroke="#d43d51" stroke-width="2" d="M856.44,-2138.29C856.44,-2138.38 856.43,-2138.47 856.43,-2138.56"/>
<polygon fill="#d43d51" stroke="#d43d51" stroke-width="2" points="856.43,-2143.45 851.94,-2133.45 855.93,-2140.89 855.94,-2133.45 856.44,-2133.45 856.94,-2133.45 856.93,-2140.89 860.94,-2133.46 856.43,-2143.45"/>
</g>
<!-- 54284 -->
<g id="node57" class="node">
<title>54284</title>
<ellipse fill="none" stroke="#98b561" cx="365.22" cy="-1266" rx="160.34" ry="28.99"/>
<text text-anchor="middle" x="365.22" y="-1269.2" font-family="Times,serif" font-size="14.00" fill="gray">EclipseLicense</text>
<text text-anchor="middle" x="365.22" y="-1252.7" font-family="Times,serif" font-size="14.00" fill="gray">d813b26bee09c0a59723d4db8aa3e928</text>
</g>
<!-- 54284&#45;&gt;54285 -->
<g id="edge74" class="edge">
<title>54284&#45;&gt;54285</title>
<path fill="none" stroke="#98b561" d="M403.93,-1294.44C477.15,-1346.98 510.04,-1358.54 678.67,-1390.04"/>
<polygon fill="#98b561" stroke="#98b561" points="678.01,-1393.48 688.49,-1391.87 679.3,-1386.6 678.01,-1393.48"/>
</g>
<!-- 55994 -->
<g id="node59" class="node">
<title>55994</title>
<ellipse fill="none" stroke="#78ab63" cx="617.33" cy="-1784.77" rx="159.28" ry="28.99"/>
<text text-anchor="middle" x="617.33" y="-1787.97" font-family="Times,serif" font-size="14.00" fill="gray">Curation</text>
<text text-anchor="middle" x="617.33" y="-1771.47" font-family="Times,serif" font-size="14.00" fill="gray">38244ed3ccc54dd8593bcc35b5668f77</text>
</g>
<!-- 55994&#45;&gt;2456 -->
<g id="edge75" class="edge">
<title>55994&#45;&gt;2456</title>
<path fill="none" stroke="#78ab63" d="M770.03,-1776.26C814.29,-1764.87 868.36,-1741.73 968.52,-1696.78"/>
<polygon fill="#78ab63" stroke="#78ab63" points="969.93,-1699.98 977.62,-1692.69 967.07,-1693.59 969.93,-1699.98"/>
</g>
</g>
</svg>
