<?xml version="1.0" encoding="UTF-8" standalone="no"?>
<!DOCTYPE svg PUBLIC "-//W3C//DTD SVG 1.1//EN"
 "http://www.w3.org/Graphics/SVG/1.1/DTD/svg11.dtd">
<!-- Generated by graphviz version 10.0.1 (0)
 -->
<!-- Pages: 1 -->
<svg width="878pt" height="245pt"
 viewBox="0.00 0.00 878.00 245.00" xmlns="http://www.w3.org/2000/svg" xmlns:xlink="http://www.w3.org/1999/xlink">
<g id="graph0" class="graph" transform="scale(1 1) rotate(0) translate(4 241)">
<polygon fill="white" stroke="none" points="-4,4 -4,-241 874,-241 874,4 -4,4"/>
<!-- 6972 -->
<g id="node1" class="node">
<title>6972</title>
<ellipse fill="none" stroke="#e09d4b" cx="225.46" cy="-40.8" rx="154.5" ry="28.99"/>
<text text-anchor="middle" x="225.46" y="-44" font-family="Times,serif" font-size="14.00" fill="gray">FedoraEntry</text>
<text text-anchor="middle" x="225.46" y="-27.5" font-family="Times,serif" font-size="14.00" fill="gray">b3ad210f3b9bcf81d5fda3cafc2b0900</text>
</g>
<!-- 6973 -->
<g id="node2" class="node">
<title>6973</title>
<polygon fill="none" stroke="#e09d4b" points="526.2,-93.89 526.2,-108.8 373.25,-119.34 156.94,-119.34 3.99,-108.8 3.99,-93.89 156.94,-83.34 373.25,-83.34 526.2,-93.89"/>
<polygon fill="none" stroke="#e09d4b" points="530.2,-90.15 530.2,-112.53 373.39,-123.34 156.8,-123.34 -0.01,-112.53 -0.01,-90.15 156.8,-79.34 373.39,-79.34 530.2,-90.15"/>
<text text-anchor="middle" x="265.1" y="-96.29" font-family="Times,serif" font-size="14.00">Fedora:LGPL&#45;3.0&#45;or&#45;later_WITH_Autoconf&#45;exception&#45;macro</text>
</g>
<!-- 6972&#45;&gt;6973 -->
<g id="edge1" class="edge">
<title>6972&#45;&gt;6973</title>
<path fill="none" stroke="#e09d4b" d="M235.72,-69.87C235.84,-70.05 235.97,-70.22 236.1,-70.4"/>
<polygon fill="#e09d4b" stroke="#e09d4b" points="233.4,-72.63 242.48,-78.09 238.78,-68.16 233.4,-72.63"/>
</g>
<!-- 6974 -->
<g id="node3" class="node">
<title>6974</title>
<polygon fill="none" stroke="#e09d4b" points="866.42,-14.72 866.42,-29.63 731.31,-40.17 540.24,-40.17 405.14,-29.63 405.14,-14.72 540.24,-4.17 731.31,-4.17 866.42,-14.72"/>
<polygon fill="none" stroke="#e09d4b" points="870.42,-11.02 870.42,-33.33 731.47,-44.17 540.09,-44.17 401.14,-33.33 401.14,-11.02 540.09,-0.17 731.47,-0.17 870.42,-11.02"/>
<text text-anchor="middle" x="635.78" y="-17.12" font-family="Times,serif" font-size="14.00">LGPL&#45;3.0&#45;or&#45;later_WITH_Autoconf&#45;exception&#45;macro</text>
</g>
<!-- 6974&#45;&gt;6973 -->
<g id="edge2" class="edge">
<title>6974&#45;&gt;6973</title>
<path fill="none" stroke="#e09d4b" stroke-width="2" d="M400.93,-29.77C377.47,-40.56 350.11,-54.94 315.88,-73.54"/>
<polygon fill="#e09d4b" stroke="#e09d4b" stroke-width="2" points="308.18,-77.73 314.81,-69 310.19,-76.07 316.72,-72.51 316.96,-72.95 317.2,-73.39 310.67,-76.95 319.12,-76.9 308.18,-77.73"/>
</g>
<!-- 6975 -->
<g id="node4" class="node">
<title>6975</title>
<polygon fill="none" stroke="#e09d4b" points="509.68,-150.2 509.68,-165.11 365.49,-175.66 161.57,-175.66 17.38,-165.11 17.38,-150.2 161.57,-139.66 365.49,-139.66 509.68,-150.2"/>
<polygon fill="none" stroke="#e09d4b" points="513.68,-146.49 513.68,-168.83 365.63,-179.66 161.42,-179.66 13.38,-168.83 13.38,-146.49 161.42,-135.66 365.63,-135.66 513.68,-146.49"/>
<polygon fill="none" stroke="#e09d4b" points="517.68,-142.77 517.68,-172.55 365.78,-183.66 161.28,-183.66 9.38,-172.55 9.38,-142.77 161.28,-131.66 365.78,-131.66 517.68,-142.77"/>
<text text-anchor="middle" x="263.53" y="-152.61" font-family="Times,serif" font-size="14.00">spdx:LGPL&#45;3.0&#45;or&#45;later WITH Autoconf&#45;exception&#45;macro</text>
</g>
<!-- 6975&#45;&gt;6973 -->
<g id="edge3" class="edge">
<title>6975&#45;&gt;6973</title>
<path fill="none" stroke="#e09d4b" stroke-width="2" d="M255.87,-131.36C255.87,-131.21 255.87,-131.06 255.87,-130.9"/>
<polygon fill="#e09d4b" stroke="#e09d4b" stroke-width="2" points="256.44,-126.21 259.69,-136.69 256.63,-128.82 255.72,-136.2 255.23,-136.14 254.73,-136.08 255.64,-128.69 250.76,-135.59 256.44,-126.21"/>
</g>
<!-- 6976 -->
<g id="node5" class="node">
<title>6976</title>
<polygon fill="none" stroke="#e09d4b" points="473.3,-207.78 473.3,-222.69 341.76,-233.23 155.74,-233.23 24.21,-222.69 24.21,-207.78 155.74,-197.23 341.76,-197.23 473.3,-207.78"/>
<polygon fill="none" stroke="#e09d4b" points="477.3,-204.09 477.3,-226.38 341.92,-237.23 155.58,-237.23 20.21,-226.38 20.21,-204.09 155.58,-193.23 341.92,-193.23 477.3,-204.09"/>
<text text-anchor="middle" x="248.75" y="-210.18" font-family="Times,serif" font-size="14.00">LGPL&#45;3.0&#45;or&#45;later WITH Autoconf&#45;exception&#45;macro</text>
</g>
<!-- 6976&#45;&gt;6975 -->
<g id="edge4" class="edge">
<title>6976&#45;&gt;6975</title>
<path fill="none" stroke="#e09d4b" stroke-width="2" d="M247.14,-192.94C247.15,-192.85 247.16,-192.76 247.18,-192.67"/>
<polygon fill="#e09d4b" stroke="#e09d4b" stroke-width="2" points="248.98,-186.46 250.52,-197.32 248.74,-189.06 246.67,-196.2 246.19,-196.07 245.71,-195.93 247.78,-188.78 241.87,-194.81 248.98,-186.46"/>
</g>
</g>
</svg>
