<?xml version="1.0" encoding="UTF-8" standalone="no"?>
<!DOCTYPE svg PUBLIC "-//W3C//DTD SVG 1.1//EN"
 "http://www.w3.org/Graphics/SVG/1.1/DTD/svg11.dtd">
<!-- Generated by graphviz version 10.0.1 (0)
 -->
<!-- Pages: 1 -->
<svg width="3785pt" height="2932pt"
 viewBox="0.00 0.00 3785.00 2932.00" xmlns="http://www.w3.org/2000/svg" xmlns:xlink="http://www.w3.org/1999/xlink">
<g id="graph0" class="graph" transform="scale(1 1) rotate(0) translate(4 2928)">
<polygon fill="white" stroke="none" points="-4,4 -4,-2928 3781,-2928 3781,4 -4,4"/>
<!-- 5 -->
<g id="node1" class="node">
<title>5</title>
<text text-anchor="start" x="618.08" y="-1349.88" font-family="Times,serif" font-size="14.00">OSI: </text>
<text text-anchor="start" x="647.33" y="-1349.88" font-family="Times,serif" font-weight="bold" font-size="14.00" fill="#8b0000">Rejected</text>
</g>
<!-- 5231 -->
<g id="node3" class="node">
<title>5231</title>
<ellipse fill="none" stroke="#dac767" cx="1023.23" cy="-1421.36" rx="160.34" ry="28.99"/>
<text text-anchor="middle" x="1023.23" y="-1424.56" font-family="Times,serif" font-size="14.00" fill="gray">SPDXLicense</text>
<text text-anchor="middle" x="1023.23" y="-1408.06" font-family="Times,serif" font-size="14.00" fill="gray">1059751eeb0ac787d06e6548c3362c44</text>
</g>
<!-- 5&#45;&gt;5231 -->
<g id="edge1" class="edge">
<title>5&#45;&gt;5231</title>
<path fill="none" stroke="#dac767" d="M705.57,-1366.31C755.99,-1379.02 788.93,-1385.34 888.64,-1400.82"/>
<polygon fill="#dac767" stroke="#dac767" points="887.89,-1404.24 898.31,-1402.31 888.96,-1397.32 887.89,-1404.24"/>
</g>
<!-- 2996 -->
<g id="node2" class="node">
<title>2996</title>
<text text-anchor="middle" x="1230.2" y="-1920.34" font-family="Times,serif" font-size="14.00">http://www.libpng.org/pub/png/src/libpng&#45;LICENSE.txt</text>
</g>
<!-- 2996&#45;&gt;5231 -->
<g id="edge2" class="edge">
<title>2996&#45;&gt;5231</title>
<path fill="none" stroke="#dac767" d="M1213.56,-1907.6C1031.72,-1713.01 1022.27,-1696.14 1023.04,-1462.05"/>
<polygon fill="#dac767" stroke="#dac767" points="1026.54,-1462.26 1023.08,-1452.25 1019.54,-1462.23 1026.54,-1462.26"/>
</g>
<!-- 30732 -->
<g id="node15" class="node">
<title>30732</title>
<ellipse fill="none" stroke="#deb256" cx="1607.18" cy="-2332.04" rx="156.62" ry="28.99"/>
<text text-anchor="middle" x="1607.18" y="-2335.24" font-family="Times,serif" font-size="14.00" fill="gray">ScancodeData</text>
<text text-anchor="middle" x="1607.18" y="-2318.74" font-family="Times,serif" font-size="14.00" fill="gray">031d870931a3afc80ae18f483a181c9a</text>
</g>
<!-- 2996&#45;&gt;30732 -->
<g id="edge3" class="edge">
<title>2996&#45;&gt;30732</title>
<path fill="none" stroke="#deb256" d="M1237.72,-1943.11C1342.52,-2190.19 1357.66,-2218.14 1536.45,-2300.2"/>
<polygon fill="#deb256" stroke="#deb256" points="1534.84,-2303.31 1545.39,-2304.29 1537.75,-2296.95 1534.84,-2303.31"/>
</g>
<!-- 5232 -->
<g id="node4" class="node">
<title>5232</title>
<polygon fill="none" stroke="black" points="1573.11,-1705.14 1573.11,-1720.06 1521.73,-1730.6 1449.07,-1730.6 1397.69,-1720.06 1397.69,-1705.14 1449.07,-1694.6 1521.73,-1694.6 1573.11,-1705.14"/>
<polygon fill="none" stroke="black" points="1577.11,-1701.88 1577.11,-1723.32 1522.14,-1734.6 1448.66,-1734.6 1393.69,-1723.32 1393.69,-1701.88 1448.66,-1690.6 1522.14,-1690.6 1577.11,-1701.88"/>
<polygon fill="none" stroke="black" points="1581.11,-1698.62 1581.11,-1726.58 1522.54,-1738.6 1448.26,-1738.6 1389.69,-1726.58 1389.69,-1698.62 1448.26,-1686.6 1522.54,-1686.6 1581.11,-1698.62"/>
<text text-anchor="middle" x="1485.4" y="-1707.55" font-family="Times,serif" font-size="14.00">spdx:libpng&#45;1.6.35</text>
</g>
<!-- 5231&#45;&gt;5232 -->
<g id="edge4" class="edge">
<title>5231&#45;&gt;5232</title>
<path fill="none" stroke="#dac767" d="M1045.02,-1450.17C1139.86,-1574.82 1164.12,-1590.87 1416.54,-1686.59"/>
<polygon fill="#dac767" stroke="#dac767" points="1415.16,-1689.81 1425.75,-1690.08 1417.64,-1683.26 1415.16,-1689.81"/>
</g>
<!-- 9896 -->
<g id="node14" class="node">
<title>9896</title>
<polygon fill="none" stroke="#e09d4b" points="1772.02,-1294.83 1772.02,-1309.74 1715.44,-1320.28 1635.44,-1320.28 1578.86,-1309.74 1578.86,-1294.83 1635.44,-1284.28 1715.44,-1284.28 1772.02,-1294.83"/>
<polygon fill="none" stroke="#e09d4b" points="1776.02,-1291.5 1776.02,-1313.06 1715.81,-1324.28 1635.07,-1324.28 1574.86,-1313.06 1574.86,-1291.5 1635.07,-1280.28 1715.81,-1280.28 1776.02,-1291.5"/>
<text text-anchor="middle" x="1675.44" y="-1297.23" font-family="Times,serif" font-size="14.00">Fedora:libpng&#45;1.6.35</text>
</g>
<!-- 5232&#45;&gt;9896 -->
<g id="edge5" class="edge">
<title>5232&#45;&gt;9896</title>
<path fill="none" stroke="#e09d4b" stroke-width="2" d="M1486.18,-1686.32C1491.1,-1528.73 1498.92,-1511.64 1649.52,-1332.98"/>
<polygon fill="#e09d4b" stroke="#e09d4b" stroke-width="2" points="1655,-1326.49 1651.99,-1337.04 1653.72,-1328.77 1648.93,-1334.46 1648.55,-1334.14 1648.17,-1333.81 1652.96,-1328.13 1645.11,-1331.24 1655,-1326.49"/>
</g>
<!-- 30733 -->
<g id="node16" class="node">
<title>30733</title>
<polygon fill="none" stroke="black" points="1948.33,-1902.56 1948.33,-1917.47 1886.57,-1928.01 1799.22,-1928.01 1737.45,-1917.47 1737.45,-1902.56 1799.22,-1892.01 1886.57,-1892.01 1948.33,-1902.56"/>
<polygon fill="none" stroke="black" points="1952.33,-1899.18 1952.33,-1920.84 1886.91,-1932.01 1798.88,-1932.01 1733.45,-1920.84 1733.45,-1899.18 1798.88,-1888.01 1886.91,-1888.01 1952.33,-1899.18"/>
<text text-anchor="middle" x="1842.89" y="-1904.96" font-family="Times,serif" font-size="14.00">scancode:libpng&#45;1.6.35</text>
</g>
<!-- 5232&#45;&gt;30733 -->
<g id="edge6" class="edge">
<title>5232&#45;&gt;30733</title>
<path fill="none" stroke="#deb256" stroke-width="2" d="M1506.69,-1739.04C1597.38,-1851.27 1623.34,-1875.22 1736.12,-1894.57"/>
<polygon fill="#deb256" stroke="#deb256" stroke-width="2" points="1744.53,-1895.97 1733.93,-1898.77 1741.92,-1896.05 1734.59,-1894.82 1734.67,-1894.33 1734.75,-1893.84 1742.09,-1895.06 1735.41,-1889.89 1744.53,-1895.97"/>
</g>
<!-- 55111 -->
<g id="node26" class="node">
<title>55111</title>
<polygon fill="none" stroke="#379469" points="2312.48,-2195.15 2312.48,-2210.06 2156.28,-2220.6 1935.38,-2220.6 1779.18,-2210.06 1779.18,-2195.15 1935.38,-2184.6 2156.28,-2184.6 2312.48,-2195.15"/>
<polygon fill="none" stroke="#379469" points="2316.48,-2191.41 2316.48,-2213.8 2156.41,-2224.6 1935.25,-2224.6 1775.18,-2213.8 1775.18,-2191.41 1935.25,-2180.6 2156.41,-2180.6 2316.48,-2191.41"/>
<text text-anchor="middle" x="2045.83" y="-2197.55" font-family="Times,serif" font-size="14.00">metaeffekt:PNG&#45;Reference–Library&#45;1.0&#45;for&#45;0.5&#45;through&#45;1.6.35</text>
</g>
<!-- 5232&#45;&gt;55111 -->
<g id="edge7" class="edge">
<title>5232&#45;&gt;55111</title>
<path fill="none" stroke="#379469" stroke-width="2" d="M1502.02,-1739.08C1708.19,-2067.5 1733.73,-2100.72 1965.2,-2176.71"/>
<polygon fill="#379469" stroke="#379469" stroke-width="2" points="1973.34,-2179.37 1962.44,-2180.54 1970.75,-2179.05 1963.68,-2176.74 1963.83,-2176.27 1963.99,-2175.79 1971.06,-2178.1 1965.23,-2171.99 1973.34,-2179.37"/>
</g>
<!-- 5233 -->
<g id="node5" class="node">
<title>5233</title>
<polygon fill="none" stroke="black" points="1806.99,-1587.37 1806.99,-1602.28 1768.26,-1612.83 1713.5,-1612.83 1674.77,-1602.28 1674.77,-1587.37 1713.5,-1576.83 1768.26,-1576.83 1806.99,-1587.37"/>
<polygon fill="none" stroke="black" points="1810.99,-1584.32 1810.99,-1605.34 1768.8,-1616.83 1712.96,-1616.83 1670.77,-1605.34 1670.77,-1584.32 1712.96,-1572.83 1768.8,-1572.83 1810.99,-1584.32"/>
<text text-anchor="middle" x="1740.88" y="-1589.78" font-family="Times,serif" font-size="14.00">libpng&#45;1.6.35</text>
</g>
<!-- 5233&#45;&gt;5232 -->
<g id="edge8" class="edge">
<title>5233&#45;&gt;5232</title>
<path fill="none" stroke="black" stroke-width="2" d="M1703.18,-1614.55C1623.05,-1656.44 1587.87,-1674.44 1557.33,-1687.13"/>
<polygon fill="black" stroke="black" stroke-width="2" points="1549.36,-1690.34 1556.95,-1682.43 1551.55,-1688.92 1558.45,-1686.14 1558.63,-1686.6 1558.82,-1687.07 1551.92,-1689.85 1560.32,-1690.78 1549.36,-1690.34"/>
</g>
<!-- 5233&#45;&gt;9896 -->
<g id="edge9" class="edge">
<title>5233&#45;&gt;9896</title>
<path fill="none" stroke="#e09d4b" stroke-width="2" d="M1727.25,-1572.59C1655.52,-1455.3 1650.18,-1438.99 1669.15,-1335.62"/>
<polygon fill="#e09d4b" stroke="#e09d4b" stroke-width="2" points="1670.74,-1327.05 1673.34,-1337.71 1670.77,-1329.67 1669.41,-1336.98 1668.92,-1336.89 1668.42,-1336.79 1669.78,-1329.48 1664.49,-1336.06 1670.74,-1327.05"/>
</g>
<!-- 5233&#45;&gt;30733 -->
<g id="edge10" class="edge">
<title>5233&#45;&gt;30733</title>
<path fill="none" stroke="black" stroke-width="2" d="M1743.95,-1617.28C1767.61,-1790.23 1772.48,-1814.65 1819.49,-1878.86"/>
<polygon fill="black" stroke="black" stroke-width="2" points="1824.64,-1885.81 1815.07,-1880.45 1822.71,-1884.04 1818.28,-1878.07 1818.69,-1877.77 1819.09,-1877.47 1823.51,-1883.45 1822.3,-1875.09 1824.64,-1885.81"/>
</g>
<!-- 5234 -->
<g id="node6" class="node">
<title>5234</title>
<polygon fill="none" stroke="black" points="1762.46,-2072.92 1762.46,-2087.84 1597.82,-2098.38 1364.99,-2098.38 1200.36,-2087.84 1200.36,-2072.92 1364.99,-2062.38 1597.82,-2062.38 1762.46,-2072.92"/>
<polygon fill="none" stroke="black" points="1766.46,-2069.17 1766.46,-2091.59 1597.95,-2102.38 1364.86,-2102.38 1196.36,-2091.59 1196.36,-2069.17 1364.86,-2058.38 1597.95,-2058.38 1766.46,-2069.17"/>
<text text-anchor="middle" x="1481.41" y="-2075.33" font-family="Times,serif" font-size="14.00">PNG Reference Library License v1 (for libpng 0.5 through 1.6.35)</text>
</g>
<!-- 5234&#45;&gt;5232 -->
<g id="edge11" class="edge">
<title>5234&#45;&gt;5232</title>
<path fill="none" stroke="#dac767" stroke-width="2" d="M1473.19,-2058.1C1435.77,-1955.81 1436.2,-1937.82 1477.23,-1749.88"/>
<polygon fill="#dac767" stroke="#dac767" stroke-width="2" points="1479.08,-1741.42 1481.34,-1752.15 1479.02,-1744.03 1477.43,-1751.29 1476.95,-1751.19 1476.46,-1751.08 1478.05,-1743.82 1472.55,-1750.23 1479.08,-1741.42"/>
</g>
<!-- 5234&#45;&gt;30733 -->
<g id="edge12" class="edge">
<title>5234&#45;&gt;30733</title>
<path fill="none" stroke="#deb256" stroke-width="2" d="M1617.69,-2059.18C1662.8,-2042.71 1708.6,-2010.34 1804.3,-1938.89"/>
<polygon fill="#deb256" stroke="#deb256" stroke-width="2" points="1811.15,-1933.77 1805.83,-1943.36 1809.4,-1935.7 1803.44,-1940.16 1803.14,-1939.76 1802.84,-1939.36 1808.8,-1934.9 1800.45,-1936.15 1811.15,-1933.77"/>
</g>
<!-- 5234&#45;&gt;55111 -->
<g id="edge13" class="edge">
<title>5234&#45;&gt;55111</title>
<path fill="none" stroke="#379469" stroke-dasharray="5,2" d="M1515.09,-2102.88C1699.62,-2225.84 1743.47,-2247.93 1906.44,-2225.39"/>
<polygon fill="#379469" stroke="#379469" points="1916.15,-2224.02 1906.88,-2229.88 1912.4,-2224.55 1906.25,-2225.42 1906.25,-2225.42 1906.25,-2225.42 1912.4,-2224.55 1905.61,-2220.97 1916.15,-2224.02"/>
</g>
<!-- 71617 -->
<g id="node35" class="node">
<title>71617</title>
<polygon fill="none" stroke="#00876c" points="1700.55,-2125.1 1700.55,-2140.01 1523.26,-2150.56 1272.53,-2150.56 1095.24,-2140.01 1095.24,-2125.1 1272.53,-2114.56 1523.26,-2114.56 1700.55,-2125.1"/>
<polygon fill="none" stroke="#00876c" points="1704.55,-2121.33 1704.55,-2143.78 1523.38,-2154.56 1272.42,-2154.56 1091.24,-2143.78 1091.24,-2121.33 1272.42,-2110.56 1523.38,-2110.56 1704.55,-2121.33"/>
<text text-anchor="middle" x="1397.9" y="-2127.51" font-family="Times,serif" font-size="14.00">spdx:PNG Reference Library License v1 (for libpng 0.5 through 1.6.35)</text>
</g>
<!-- 5234&#45;&gt;71617 -->
<g id="edge14" class="edge">
<title>5234&#45;&gt;71617</title>
<path fill="none" stroke="#00876c" stroke-width="2" d="M1453.36,-2102.59C1452.89,-2102.95 1452.43,-2103.3 1451.98,-2103.65"/>
<polygon fill="#00876c" stroke="#00876c" stroke-width="2" points="1445.3,-2108.72 1450.55,-2099.09 1447.04,-2106.77 1452.96,-2102.28 1453.27,-2102.68 1453.57,-2103.08 1447.64,-2107.57 1455.99,-2106.26 1445.3,-2108.72"/>
</g>
<!-- 5235 -->
<g id="node7" class="node">
<title>5235</title>
<text text-anchor="middle" x="901.08" y="-929.96" font-family="Times,serif" font-size="14.00">SPDXLicense:</text>
<text text-anchor="middle" x="901.08" y="-913.46" font-family="Times,serif" font-size="14.00">This is similar but has some different text than libpng.</text>
</g>
<!-- 5235&#45;&gt;5231 -->
<g id="edge15" class="edge">
<title>5235&#45;&gt;5231</title>
<path fill="none" stroke="#dac767" d="M897.69,-947.08C866.68,-1134.1 869.55,-1151.4 1001.03,-1382.41"/>
<polygon fill="#dac767" stroke="#dac767" points="997.83,-1383.87 1005.82,-1390.83 1003.91,-1380.41 997.83,-1383.87"/>
</g>
<!-- 5236 -->
<g id="node8" class="node">
<title>5236</title>
<text text-anchor="middle" x="716.63" y="-1127.53" font-family="Times,serif" font-size="14.00">$TEXT</text>
</g>
<!-- 5236&#45;&gt;5231 -->
<g id="edge16" class="edge">
<title>5236&#45;&gt;5231</title>
<path fill="none" stroke="#dac767" d="M726.29,-1150.29C782.54,-1253.06 796.23,-1267.64 971.88,-1386.65"/>
<polygon fill="#dac767" stroke="#dac767" points="969.69,-1389.4 979.93,-1392.11 973.62,-1383.6 969.69,-1389.4"/>
</g>
<!-- 5237 -->
<g id="node9" class="node">
<title>5237</title>
<text text-anchor="middle" x="562.38" y="-992.56" font-family="Times,serif" font-size="14.00">$TEXT</text>
</g>
<!-- 5237&#45;&gt;5236 -->
<g id="edge17" class="edge">
<title>5237&#45;&gt;5236</title>
<path fill="none" stroke="#dac767" d="M574.81,-1015.44C598.61,-1048.9 611.07,-1059.67 681.35,-1108.28"/>
<polygon fill="#dac767" stroke="#dac767" points="679.23,-1111.07 689.45,-1113.88 683.21,-1105.31 679.23,-1111.07"/>
</g>
<!-- 5550 -->
<g id="node10" class="node">
<title>5550</title>
<text text-anchor="middle" x="1478.11" y="-2746.18" font-family="Times,serif" font-size="14.00">LicenseType Permissive</text>
</g>
<!-- 5550&#45;&gt;30732 -->
<g id="edge18" class="edge">
<title>5550&#45;&gt;30732</title>
<path fill="none" stroke="#deb256" d="M1483.49,-2733.28C1514.47,-2629.92 1519.92,-2612.21 1594.71,-2372.08"/>
<polygon fill="#deb256" stroke="#deb256" points="1598.01,-2373.25 1597.64,-2362.66 1591.33,-2371.17 1598.01,-2373.25"/>
</g>
<!-- 6592 -->
<g id="node11" class="node">
<title>6592</title>
<text text-anchor="middle" x="2032.95" y="-446.48" font-family="Times,serif" font-size="14.00">[&quot;allowed&quot;]</text>
</g>
<!-- 9895 -->
<g id="node13" class="node">
<title>9895</title>
<ellipse fill="none" stroke="#e09d4b" cx="1877.97" cy="-816.33" rx="157.68" ry="28.99"/>
<text text-anchor="middle" x="1877.97" y="-819.53" font-family="Times,serif" font-size="14.00" fill="gray">FedoraEntry</text>
<text text-anchor="middle" x="1877.97" y="-803.03" font-family="Times,serif" font-size="14.00" fill="gray">56cc1a27fee06ce097cd77e081830055</text>
</g>
<!-- 6592&#45;&gt;9895 -->
<g id="edge19" class="edge">
<title>6592&#45;&gt;9895</title>
<path fill="none" stroke="#e09d4b" d="M2020.6,-469.52C1964.92,-550.95 1957.42,-569.03 1890.82,-776.29"/>
<polygon fill="#e09d4b" stroke="#e09d4b" points="1887.59,-774.92 1887.86,-785.51 1894.25,-777.06 1887.59,-774.92"/>
</g>
<!-- 6593 -->
<g id="node12" class="node">
<title>6593</title>
<text text-anchor="start" x="2155.36" y="-103.45" font-family="Times,serif" font-size="14.00">Fedora: </text>
<text text-anchor="start" x="2200.36" y="-103.45" font-family="Times,serif" font-weight="bold" font-size="14.00" fill="#228b22">allowed</text>
<text text-anchor="start" x="1991.48" y="-89.45" font-family="Times,serif" font-size="14.00">A license is allowed if Fedora determines that the license is a free software /</text>
<text text-anchor="start" x="1986.23" y="-75.45" font-family="Times,serif" font-size="14.00">open source license. At a high level, the inquiry involves determining whether</text>
<text text-anchor="start" x="1985.11" y="-61.45" font-family="Times,serif" font-size="14.00">the license provides software freedom, and (equivalently) making sure that the</text>
<text text-anchor="start" x="1995.23" y="-47.45" font-family="Times,serif" font-size="14.00">license does not place burdens on users&#39; exercise of its permissions that are</text>
<text text-anchor="start" x="1994.86" y="-33.45" font-family="Times,serif" font-size="14.00">inconsistent with evolving community norms and traditions around what is</text>
<text text-anchor="start" x="1986.61" y="-19.45" font-family="Times,serif" font-size="14.00">acceptable in a free software / open source license. See below for more on the</text>
<text text-anchor="start" x="2106.61" y="-5.45" font-family="Times,serif" font-size="14.00">history of Fedora licensing policy.</text>
</g>
<!-- 6593&#45;&gt;6592 -->
<g id="edge20" class="edge">
<title>6593&#45;&gt;6592</title>
<path fill="none" stroke="#e09d4b" d="M2164.61,-119.45C2129.49,-181.49 2112.84,-226.74 2043.04,-423.13"/>
<polygon fill="#e09d4b" stroke="#e09d4b" points="2039.8,-421.8 2039.75,-432.39 2046.39,-424.14 2039.8,-421.8"/>
</g>
<!-- 9895&#45;&gt;9896 -->
<g id="edge21" class="edge">
<title>9895&#45;&gt;9896</title>
<path fill="none" stroke="#e09d4b" d="M1851.54,-845.34C1751.9,-955.54 1743.68,-981.26 1682.58,-1268.66"/>
<polygon fill="#e09d4b" stroke="#e09d4b" points="1679.17,-1267.89 1680.51,-1278.39 1686.01,-1269.34 1679.17,-1267.89"/>
</g>
<!-- 30732&#45;&gt;30733 -->
<g id="edge22" class="edge">
<title>30732&#45;&gt;30733</title>
<path fill="none" stroke="#deb256" d="M1630.55,-2302.99C1699.96,-2216.09 1713.4,-2189.61 1827.8,-1942.61"/>
<polygon fill="#deb256" stroke="#deb256" points="1830.95,-1944.13 1831.98,-1933.59 1824.6,-1941.19 1830.95,-1944.13"/>
</g>
<!-- 55106 -->
<g id="node24" class="node">
<title>55106</title>
<polygon fill="none" stroke="#379469" points="2464.75,-2089.04 2464.75,-2103.95 2364.7,-2114.49 2223.19,-2114.49 2123.13,-2103.95 2123.13,-2089.04 2223.19,-2078.49 2364.7,-2078.49 2464.75,-2089.04"/>
<text text-anchor="middle" x="2293.94" y="-2091.44" font-family="Times,serif" font-size="14.00">metaeffekt:PNG&#45;Reference&#45;Library&#45;1.0</text>
</g>
<!-- 30733&#45;&gt;55106 -->
<g id="edge23" class="edge">
<title>30733&#45;&gt;55106</title>
<path fill="none" stroke="#379469" stroke-dasharray="5,2" d="M1873.86,-1932.46C2006.44,-2028.46 2063.84,-2068.07 2126.45,-2084.54"/>
<polygon fill="#379469" stroke="#379469" points="2135.79,-2086.79 2125.01,-2088.82 2132.11,-2085.91 2126.06,-2084.45 2126.06,-2084.45 2126.06,-2084.45 2132.11,-2085.91 2127.12,-2080.07 2135.79,-2086.79"/>
</g>
<!-- 30733&#45;&gt;55111 -->
<g id="edge24" class="edge">
<title>30733&#45;&gt;55111</title>
<path fill="none" stroke="#379469" stroke-dasharray="5,2" d="M1854.05,-1932.42C1936.28,-2097.47 1951.21,-2124.6 2009.38,-2173.19"/>
<polygon fill="#379469" stroke="#379469" points="2016.95,-2179.44 2006.37,-2176.54 2014.03,-2177.03 2009.24,-2173.07 2009.24,-2173.07 2009.24,-2173.07 2014.03,-2177.03 2012.1,-2169.6 2016.95,-2179.44"/>
</g>
<!-- 30734 -->
<g id="node17" class="node">
<title>30734</title>
<polygon fill="none" stroke="black" points="2376.08,-1652.03 2376.08,-1666.94 2285.75,-1677.49 2158.02,-1677.49 2067.7,-1666.94 2067.7,-1652.03 2158.02,-1641.49 2285.75,-1641.49 2376.08,-1652.03"/>
<polygon fill="none" stroke="black" points="2380.08,-1648.47 2380.08,-1670.5 2285.99,-1681.49 2157.79,-1681.49 2063.7,-1670.5 2063.7,-1648.47 2157.79,-1637.49 2285.99,-1637.49 2380.08,-1648.47"/>
<text text-anchor="middle" x="2221.89" y="-1654.44" font-family="Times,serif" font-size="14.00">PNG Reference Library License v1</text>
</g>
<!-- 30734&#45;&gt;30733 -->
<g id="edge25" class="edge">
<title>30734&#45;&gt;30733</title>
<path fill="none" stroke="#deb256" stroke-width="2" d="M2205.52,-1681.82C2091.87,-1836.72 2067.27,-1863.65 1936.2,-1891.85"/>
<polygon fill="#deb256" stroke="#deb256" stroke-width="2" points="1927.7,-1893.64 1936.56,-1887.17 1930.11,-1892.62 1937.38,-1891.09 1937.49,-1891.58 1937.59,-1892.07 1930.31,-1893.6 1938.42,-1895.98 1927.7,-1893.64"/>
</g>
<!-- 71614 -->
<g id="node32" class="node">
<title>71614</title>
<polygon fill="none" stroke="#00876c" points="2054.85,-1406.44 2054.85,-1421.35 1941.48,-1431.89 1781.16,-1431.89 1667.8,-1421.35 1667.8,-1406.44 1781.16,-1395.89 1941.48,-1395.89 2054.85,-1406.44"/>
<polygon fill="none" stroke="#00876c" points="2058.85,-1402.79 2058.85,-1424.99 1941.67,-1435.89 1780.98,-1435.89 1663.8,-1424.99 1663.8,-1402.79 1780.98,-1391.89 1941.67,-1391.89 2058.85,-1402.79"/>
<text text-anchor="middle" x="1861.32" y="-1408.84" font-family="Times,serif" font-size="14.00">scancode:PNG Reference Library License v1</text>
</g>
<!-- 30734&#45;&gt;71614 -->
<g id="edge26" class="edge">
<title>30734&#45;&gt;71614</title>
<path fill="none" stroke="#00876c" stroke-width="2" d="M2194.87,-1637.12C2122.9,-1577.8 2098.36,-1561.53 1906.46,-1442"/>
<polygon fill="#00876c" stroke="#00876c" stroke-width="2" points="1899.26,-1437.51 1910.13,-1438.98 1901.7,-1438.44 1908.01,-1442.38 1907.75,-1442.8 1907.48,-1443.22 1901.17,-1439.29 1905.37,-1446.62 1899.26,-1437.51"/>
</g>
<!-- 30735 -->
<g id="node18" class="node">
<title>30735</title>
<text text-anchor="middle" x="1624.02" y="-2410.11" font-family="Times,serif" font-size="14.00">ScancodeData:</text>
<text text-anchor="middle" x="1624.02" y="-2393.61" font-family="Times,serif" font-size="14.00">Added in SPDX license list 3.27</text>
<text text-anchor="middle" x="1624.02" y="-2377.11" font-family="Times,serif" font-size="14.00">This was previously the license rule: libpng_31.RULE</text>
</g>
<!-- 30735&#45;&gt;30732 -->
<g id="edge27" class="edge">
<title>30735&#45;&gt;30732</title>
<path fill="none" stroke="#deb256" d="M1611.52,-2370.13C1611.51,-2370.05 1611.49,-2369.97 1611.48,-2369.88"/>
<polygon fill="#deb256" stroke="#deb256" points="1615.32,-2371.93 1610.39,-2362.56 1608.4,-2372.96 1615.32,-2371.93"/>
</g>
<!-- 30736 -->
<g id="node19" class="node">
<title>30736</title>
<text text-anchor="middle" x="1688.14" y="-2700.61" font-family="Times,serif" font-size="14.00">$TEXT</text>
</g>
<!-- 30736&#45;&gt;30732 -->
<g id="edge28" class="edge">
<title>30736&#45;&gt;30732</title>
<path fill="none" stroke="#deb256" d="M1679.06,-2687.89C1633.4,-2598.1 1629.66,-2580.71 1610.83,-2372.61"/>
<polygon fill="#deb256" stroke="#deb256" points="1614.33,-2372.41 1609.94,-2362.77 1607.36,-2373.04 1614.33,-2372.41"/>
</g>
<!-- 35432 -->
<g id="node20" class="node">
<title>35432</title>
<text text-anchor="middle" x="376.82" y="-2029.21" font-family="Times,serif" font-size="14.00">LicenseTag (ScopedLicenseTag &quot;OrtLicenseCategorization&quot; &quot;permissive&quot; NoLicenseTagText)</text>
</g>
<!-- 39963 -->
<g id="node22" class="node">
<title>39963</title>
<ellipse fill="none" stroke="#d43d51" cx="946.75" cy="-1787.98" rx="156.62" ry="28.99"/>
<text text-anchor="middle" x="946.75" y="-1791.18" font-family="Times,serif" font-size="14.00" fill="gray">OrtLicenseCategorization</text>
<text text-anchor="middle" x="946.75" y="-1774.68" font-family="Times,serif" font-size="14.00" fill="gray">46a7ae829078f920bf80fc1d44d85de7</text>
</g>
<!-- 35432&#45;&gt;39963 -->
<g id="edge29" class="edge">
<title>35432&#45;&gt;39963</title>
<path fill="none" stroke="#d43d51" d="M414.32,-2016.35C538.08,-1957.36 572.5,-1942.57 871.55,-1819.04"/>
<polygon fill="#d43d51" stroke="#d43d51" points="872.54,-1822.42 880.45,-1815.37 869.87,-1815.95 872.54,-1822.42"/>
</g>
<!-- 35433 -->
<g id="node21" class="node">
<title>35433</title>
<text text-anchor="middle" x="293.78" y="-1746.83" font-family="Times,serif" font-size="14.00">LicenseTag (ScopedLicenseTag &quot;OrtLicenseCategorization&quot; &quot;include&#45;in&#45;notice&#45;file&quot; NoLicenseTagText)</text>
</g>
<!-- 35433&#45;&gt;39963 -->
<g id="edge30" class="edge">
<title>35433&#45;&gt;39963</title>
<path fill="none" stroke="#d43d51" d="M368.34,-1769.82C480.27,-1795.49 537.16,-1798.62 780.15,-1792.54"/>
<polygon fill="#d43d51" stroke="#d43d51" points="780.07,-1796.04 789.97,-1792.29 779.89,-1789.04 780.07,-1796.04"/>
</g>
<!-- 39963&#45;&gt;5232 -->
<g id="edge31" class="edge">
<title>39963&#45;&gt;5232</title>
<path fill="none" stroke="#d43d51" d="M1103.65,-1786.84C1164.74,-1781.18 1237.93,-1766.37 1393.99,-1732.51"/>
<polygon fill="#d43d51" stroke="#d43d51" points="1394.37,-1736.01 1403.4,-1730.47 1392.88,-1729.17 1394.37,-1736.01"/>
</g>
<!-- 55103 -->
<g id="node23" class="node">
<title>55103</title>
<polygon fill="none" stroke="#379469" points="2535.58,-2477.54 2535.58,-2492.45 2472.52,-2503 2383.33,-2503 2320.27,-2492.45 2320.27,-2477.54 2383.33,-2467 2472.52,-2467 2535.58,-2477.54"/>
<text text-anchor="middle" x="2427.92" y="-2479.95" font-family="Times,serif" font-size="14.00">PNG Reference Library</text>
</g>
<!-- 55103&#45;&gt;55106 -->
<g id="edge32" class="edge">
<title>55103&#45;&gt;55106</title>
<path fill="none" stroke="#379469" stroke-dasharray="5,2" d="M2423.96,-2466.53C2402.23,-2365.53 2396.41,-2349.32 2305.5,-2125"/>
<polygon fill="#379469" stroke="#379469" points="2301.85,-2115.98 2309.77,-2123.56 2303.27,-2119.49 2305.6,-2125.25 2305.6,-2125.25 2305.6,-2125.25 2303.27,-2119.49 2301.43,-2126.94 2301.85,-2115.98"/>
</g>
<!-- 55103&#45;&gt;55111 -->
<g id="edge33" class="edge">
<title>55103&#45;&gt;55111</title>
<path fill="none" stroke="#379469" stroke-dasharray="5,2" d="M2377.39,-2467.63C2274.16,-2430.84 2247.17,-2406.96 2075.53,-2232.76"/>
<polygon fill="#379469" stroke="#379469" points="2068.63,-2225.76 2078.86,-2229.73 2071.29,-2228.46 2075.65,-2232.89 2075.65,-2232.89 2075.65,-2232.89 2071.29,-2228.46 2072.44,-2236.04 2068.63,-2225.76"/>
</g>
<!-- 55110 -->
<g id="node25" class="node">
<title>55110</title>
<ellipse fill="none" stroke="#379469" cx="2030.96" cy="-2262.86" rx="159.81" ry="28.99"/>
<text text-anchor="middle" x="2030.96" y="-2266.06" font-family="Times,serif" font-size="14.00" fill="gray">MetaeffektLicense</text>
<text text-anchor="middle" x="2030.96" y="-2249.56" font-family="Times,serif" font-size="14.00" fill="gray">41b7b69fada2d9877e9ae87d78b39298</text>
</g>
<!-- 55110&#45;&gt;55111 -->
<g id="edge34" class="edge">
<title>55110&#45;&gt;55111</title>
<path fill="none" stroke="#379469" d="M2041.8,-2233.68C2041.82,-2233.53 2041.85,-2233.37 2041.88,-2233.21"/>
<polygon fill="#379469" stroke="#379469" points="2044.87,-2236.94 2042.84,-2226.54 2037.94,-2235.93 2044.87,-2236.94"/>
</g>
<!-- 55112 -->
<g id="node27" class="node">
<title>55112</title>
<polygon fill="none" stroke="#379469" points="2975.44,-2146.21 2975.44,-2161.12 2846.18,-2171.67 2663.37,-2171.67 2534.11,-2161.12 2534.11,-2146.21 2663.37,-2135.67 2846.18,-2135.67 2975.44,-2146.21"/>
<polygon fill="none" stroke="#379469" points="2979.44,-2142.52 2979.44,-2164.81 2846.34,-2175.67 2663.21,-2175.67 2530.11,-2164.81 2530.11,-2142.52 2663.21,-2131.67 2846.34,-2131.67 2979.44,-2142.52"/>
<text text-anchor="middle" x="2754.77" y="-2148.62" font-family="Times,serif" font-size="14.00">PNG&#45;Reference–Library&#45;1.0&#45;for&#45;0.5&#45;through&#45;1.6.35</text>
</g>
<!-- 55112&#45;&gt;55111 -->
<g id="edge35" class="edge">
<title>55112&#45;&gt;55111</title>
<path fill="none" stroke="#379469" stroke-width="2" d="M2711.07,-2176.13C2505.99,-2280.97 2465.5,-2288.25 2165.1,-2227.28"/>
<polygon fill="#379469" stroke="#379469" stroke-width="2" points="2156.69,-2225.57 2167.39,-2223.15 2159.3,-2225.59 2166.59,-2227.07 2166.49,-2227.56 2166.39,-2228.05 2159.1,-2226.57 2165.59,-2231.97 2156.69,-2225.57"/>
</g>
<!-- 55113 -->
<g id="node28" class="node">
<title>55113</title>
<polygon fill="none" stroke="#379469" points="3146.48,-2426.69 3146.48,-2441.61 2969.83,-2452.15 2720.02,-2452.15 2543.38,-2441.61 2543.38,-2426.69 2720.02,-2416.15 2969.83,-2416.15 3146.48,-2426.69"/>
<polygon fill="none" stroke="#379469" points="3150.48,-2422.93 3150.48,-2445.37 2969.95,-2456.15 2719.9,-2456.15 2539.38,-2445.37 2539.38,-2422.93 2719.9,-2412.15 2969.95,-2412.15 3150.48,-2422.93"/>
<text text-anchor="middle" x="2844.93" y="-2429.1" font-family="Times,serif" font-size="14.00">metaeffekt:PNG Reference Library License 1.0 (for 0.5 through 1.6.35)</text>
</g>
<!-- 55113&#45;&gt;55111 -->
<g id="edge36" class="edge">
<title>55113&#45;&gt;55111</title>
<path fill="none" stroke="#379469" stroke-width="2" d="M2539.01,-2429.77C2441.11,-2406.39 2328.87,-2349.84 2098.64,-2230.09"/>
<polygon fill="#379469" stroke="#379469" stroke-width="2" points="2091.16,-2226.2 2102.11,-2226.82 2093.67,-2226.94 2100.26,-2230.37 2100.03,-2230.81 2099.8,-2231.26 2093.2,-2227.82 2097.96,-2234.81 2091.16,-2226.2"/>
</g>
<!-- 55114 -->
<g id="node29" class="node">
<title>55114</title>
<polygon fill="none" stroke="#379469" points="3773.04,-2369.53 3773.04,-2384.44 3623.33,-2394.99 3411.61,-2394.99 3261.9,-2384.44 3261.9,-2369.53 3411.61,-2358.99 3623.33,-2358.99 3773.04,-2369.53"/>
<polygon fill="none" stroke="#379469" points="3777.04,-2365.8 3777.04,-2388.17 3623.47,-2398.99 3411.47,-2398.99 3257.9,-2388.17 3257.9,-2365.8 3411.47,-2354.99 3623.47,-2354.99 3777.04,-2365.8"/>
<text text-anchor="middle" x="3517.47" y="-2371.94" font-family="Times,serif" font-size="14.00">PNG Reference Library License 1.0 (for 0.5 through 1.6.35)</text>
</g>
<!-- 55114&#45;&gt;55113 -->
<g id="edge37" class="edge">
<title>55114&#45;&gt;55113</title>
<path fill="none" stroke="#379469" stroke-width="2" d="M3470.07,-2399.44C3319.89,-2469.81 3272.53,-2479.82 3030.23,-2454.79"/>
<polygon fill="#379469" stroke="#379469" stroke-width="2" points="3021.72,-2453.91 3032.13,-2450.47 3024.32,-2453.67 3031.72,-2454.44 3031.67,-2454.94 3031.61,-2455.44 3024.22,-2454.67 3031.2,-2459.42 3021.72,-2453.91"/>
</g>
<!-- 55115 -->
<g id="node30" class="node">
<title>55115</title>
<polygon fill="none" stroke="#379469" points="2755.73,-2898.76 2755.73,-2913.67 2575.2,-2924.22 2319.88,-2924.22 2139.34,-2913.67 2139.34,-2898.76 2319.88,-2888.22 2575.2,-2888.22 2755.73,-2898.76"/>
<text text-anchor="middle" x="2447.54" y="-2901.17" font-family="Times,serif" font-size="14.00">PNG Reference Library License version 1 (for libpng 0.5 through 1.6.35)</text>
</g>
<!-- 55115&#45;&gt;55111 -->
<g id="edge38" class="edge">
<title>55115&#45;&gt;55111</title>
<path fill="none" stroke="#379469" stroke-dasharray="5,2" d="M2433.66,-2887.96C2299.97,-2711.9 2289.6,-2693.11 2061.8,-2234.74"/>
<polygon fill="#379469" stroke="#379469" points="2057.44,-2225.96 2065.92,-2232.91 2059.12,-2229.34 2061.89,-2234.91 2061.89,-2234.91 2061.89,-2234.91 2059.12,-2229.34 2057.86,-2236.91 2057.44,-2225.96"/>
</g>
<!-- 71613 -->
<g id="node31" class="node">
<title>71613</title>
<ellipse fill="none" stroke="#00876c" cx="1368.89" cy="-1316.02" rx="158.22" ry="28.99"/>
<text text-anchor="middle" x="1368.89" y="-1319.22" font-family="Times,serif" font-size="14.00" fill="gray">LicenseLynx</text>
<text text-anchor="middle" x="1368.89" y="-1302.72" font-family="Times,serif" font-size="14.00" fill="gray">6fe8f767e5cdd2b2ca7911b7457d1017</text>
</g>
<!-- 71613&#45;&gt;5232 -->
<g id="edge39" class="edge">
<title>71613&#45;&gt;5232</title>
<path fill="none" stroke="#00876c" d="M1365.54,-1345.26C1346.74,-1511.68 1351.14,-1530.9 1459.44,-1677.59"/>
<polygon fill="#00876c" stroke="#00876c" points="1456.37,-1679.33 1465.13,-1685.29 1462,-1675.17 1456.37,-1679.33"/>
</g>
<!-- 71614&#45;&gt;5232 -->
<g id="edge40" class="edge">
<title>71614&#45;&gt;5232</title>
<path fill="none" stroke="#00876c" stroke-width="2" d="M1828.86,-1436.36C1615.88,-1583.84 1586.84,-1605.11 1517.31,-1678.52"/>
<polygon fill="#00876c" stroke="#00876c" stroke-width="2" points="1511.67,-1684.5 1515.26,-1674.14 1513.07,-1682.29 1518.17,-1676.88 1518.53,-1677.23 1518.9,-1677.57 1513.79,-1682.98 1521.81,-1680.31 1511.67,-1684.5"/>
</g>
<!-- 71615 -->
<g id="node33" class="node">
<title>71615</title>
<polygon fill="none" stroke="#00876c" points="1437.16,-2335.45 1437.16,-2350.36 1261.81,-2360.9 1013.84,-2360.9 838.49,-2350.36 838.49,-2335.45 1013.84,-2324.9 1261.81,-2324.9 1437.16,-2335.45"/>
<polygon fill="none" stroke="#00876c" points="1441.16,-2331.68 1441.16,-2354.13 1261.93,-2364.9 1013.72,-2364.9 834.49,-2354.13 834.49,-2331.68 1013.72,-2320.9 1261.93,-2320.9 1441.16,-2331.68"/>
<text text-anchor="middle" x="1137.82" y="-2337.85" font-family="Times,serif" font-size="14.00">spdx:PNG Reference Library License v1 (for libpng 0.5 through 1.6.35</text>
</g>
<!-- 71615&#45;&gt;5232 -->
<g id="edge41" class="edge">
<title>71615&#45;&gt;5232</title>
<path fill="none" stroke="#00876c" stroke-width="2" d="M1145.26,-2320.48C1207.24,-2133.89 1218.18,-2114.57 1461.66,-1748.31"/>
<polygon fill="#00876c" stroke="#00876c" stroke-width="2" points="1466.47,-1741.07 1464.68,-1751.88 1465.47,-1743.48 1461.35,-1749.67 1460.94,-1749.39 1460.52,-1749.12 1464.64,-1742.92 1457.19,-1746.9 1466.47,-1741.07"/>
</g>
<!-- 71616 -->
<g id="node34" class="node">
<title>71616</title>
<polygon fill="none" stroke="#00876c" points="1396.77,-2389.32 1396.77,-2404.24 1234.08,-2414.78 1004.01,-2414.78 841.32,-2404.24 841.32,-2389.32 1004.01,-2378.78 1234.08,-2378.78 1396.77,-2389.32"/>
<polygon fill="none" stroke="#00876c" points="1400.77,-2385.57 1400.77,-2407.98 1234.21,-2418.78 1003.88,-2418.78 837.32,-2407.98 837.32,-2385.57 1003.88,-2374.78 1234.21,-2374.78 1400.77,-2385.57"/>
<text text-anchor="middle" x="1119.05" y="-2391.73" font-family="Times,serif" font-size="14.00">PNG Reference Library License v1 (for libpng 0.5 through 1.6.35</text>
</g>
<!-- 71616&#45;&gt;71615 -->
<g id="edge42" class="edge">
<title>71616&#45;&gt;71615</title>
<path fill="none" stroke="#00876c" stroke-width="2" d="M1123.65,-2374.45C1123.68,-2374.36 1123.71,-2374.28 1123.75,-2374.2"/>
<polygon fill="#00876c" stroke="#00876c" stroke-width="2" points="1126.66,-2367.25 1126.94,-2378.22 1126.13,-2369.81 1123.25,-2376.67 1122.79,-2376.48 1122.33,-2376.28 1125.2,-2369.43 1118.64,-2374.74 1126.66,-2367.25"/>
</g>
<!-- 71617&#45;&gt;5232 -->
<g id="edge43" class="edge">
<title>71617&#45;&gt;5232</title>
<path fill="none" stroke="#00876c" stroke-width="2" d="M1395.51,-2110.25C1382.86,-1989.71 1386.9,-1971.46 1471.45,-1749.23"/>
<polygon fill="#00876c" stroke="#00876c" stroke-width="2" points="1474.53,-1741.12 1475.18,-1752.07 1474.09,-1743.69 1471.44,-1750.64 1470.98,-1750.46 1470.51,-1750.29 1473.15,-1743.34 1466.77,-1748.86 1474.53,-1741.12"/>
</g>
</g>
</svg>
