<?xml version="1.0" encoding="UTF-8" standalone="no"?>
<!DOCTYPE svg PUBLIC "-//W3C//DTD SVG 1.1//EN"
 "http://www.w3.org/Graphics/SVG/1.1/DTD/svg11.dtd">
<!-- Generated by graphviz version 10.0.1 (0)
 -->
<!-- Pages: 1 -->
<svg width="2325pt" height="2786pt"
 viewBox="0.00 0.00 2325.00 2786.00" xmlns="http://www.w3.org/2000/svg" xmlns:xlink="http://www.w3.org/1999/xlink">
<g id="graph0" class="graph" transform="scale(1 1) rotate(0) translate(4 2782)">
<polygon fill="white" stroke="none" points="-4,4 -4,-2782 2321,-2782 2321,4 -4,4"/>
<!-- 5 -->
<g id="node1" class="node">
<title>5</title>
<text text-anchor="start" x="387.27" y="-1418.23" font-family="Times,serif" font-size="14.00">OSI: </text>
<text text-anchor="start" x="416.52" y="-1418.23" font-family="Times,serif" font-weight="bold" font-size="14.00" fill="#8b0000">Rejected</text>
</g>
<!-- 5258 -->
<g id="node2" class="node">
<title>5258</title>
<ellipse fill="none" stroke="#dac767" cx="751.19" cy="-1394.76" rx="156.09" ry="28.99"/>
<text text-anchor="middle" x="751.19" y="-1397.96" font-family="Times,serif" font-size="14.00" fill="gray">SPDXLicense</text>
<text text-anchor="middle" x="751.19" y="-1381.46" font-family="Times,serif" font-size="14.00" fill="gray">d5318f7ff66385462a252849c9ef2578</text>
</g>
<!-- 5&#45;&gt;5258 -->
<g id="edge1" class="edge">
<title>5&#45;&gt;5258</title>
<path fill="none" stroke="#dac767" d="M474.36,-1416.73C509.66,-1412.74 536.49,-1410.26 593.43,-1406.01"/>
<polygon fill="#dac767" stroke="#dac767" points="593.6,-1409.51 603.31,-1405.28 593.08,-1402.53 593.6,-1409.51"/>
</g>
<!-- 5259 -->
<g id="node3" class="node">
<title>5259</title>
<polygon fill="none" stroke="black" points="1305.1,-1769.97 1305.1,-1784.88 1236.19,-1795.42 1138.75,-1795.42 1069.84,-1784.88 1069.84,-1769.97 1138.75,-1759.42 1236.19,-1759.42 1305.1,-1769.97"/>
<polygon fill="none" stroke="black" points="1309.1,-1766.53 1309.1,-1788.31 1236.5,-1799.42 1138.44,-1799.42 1065.84,-1788.31 1065.84,-1766.53 1138.44,-1755.42 1236.5,-1755.42 1309.1,-1766.53"/>
<polygon fill="none" stroke="black" points="1313.1,-1763.1 1313.1,-1791.75 1236.8,-1803.42 1138.14,-1803.42 1061.84,-1791.75 1061.84,-1763.1 1138.14,-1751.42 1236.8,-1751.42 1313.1,-1763.1"/>
<text text-anchor="middle" x="1187.47" y="-1772.37" font-family="Times,serif" font-size="14.00">spdx:libutil&#45;David&#45;Nugent</text>
</g>
<!-- 5258&#45;&gt;5259 -->
<g id="edge2" class="edge">
<title>5258&#45;&gt;5259</title>
<path fill="none" stroke="#dac767" d="M765.79,-1423.89C877.33,-1646.02 896.77,-1670.73 1111.03,-1749.68"/>
<polygon fill="#dac767" stroke="#dac767" points="1109.7,-1752.92 1120.3,-1753.09 1112.12,-1746.35 1109.7,-1752.92"/>
</g>
<!-- 9425 -->
<g id="node15" class="node">
<title>9425</title>
<polygon fill="none" stroke="#e09d4b" points="1174.07,-1356.83 1174.07,-1371.74 1099.97,-1382.28 995.18,-1382.28 921.09,-1371.74 921.09,-1356.83 995.18,-1346.28 1099.97,-1346.28 1174.07,-1356.83"/>
<polygon fill="none" stroke="#e09d4b" points="1178.07,-1353.36 1178.07,-1375.21 1100.26,-1386.28 994.9,-1386.28 917.09,-1375.21 917.09,-1353.36 994.9,-1342.28 1100.26,-1342.28 1178.07,-1353.36"/>
<text text-anchor="middle" x="1047.58" y="-1359.23" font-family="Times,serif" font-size="14.00">Fedora:libutil&#45;David&#45;Nugent</text>
</g>
<!-- 5259&#45;&gt;9425 -->
<g id="edge3" class="edge">
<title>5259&#45;&gt;9425</title>
<path fill="none" stroke="#e09d4b" stroke-width="2" d="M1168.15,-1750.98C1101.02,-1658.29 1094.81,-1635.09 1053.33,-1397.29"/>
<polygon fill="#e09d4b" stroke="#e09d4b" stroke-width="2" points="1051.87,-1388.94 1058.02,-1398.02 1052.8,-1391.38 1054.08,-1398.71 1053.59,-1398.79 1053.1,-1398.88 1051.82,-1391.55 1049.16,-1399.56 1051.87,-1388.94"/>
</g>
<!-- 20276 -->
<g id="node17" class="node">
<title>20276</title>
<polygon fill="none" stroke="black" points="1523.69,-1683.98 1523.69,-1698.89 1447,-1709.44 1338.54,-1709.44 1261.84,-1698.89 1261.84,-1683.98 1338.54,-1673.44 1447,-1673.44 1523.69,-1683.98"/>
<polygon fill="none" stroke="black" points="1527.69,-1680.5 1527.69,-1702.38 1447.27,-1713.44 1338.26,-1713.44 1257.84,-1702.38 1257.84,-1680.5 1338.26,-1669.44 1447.27,-1669.44 1527.69,-1680.5"/>
<text text-anchor="middle" x="1392.77" y="-1686.39" font-family="Times,serif" font-size="14.00">scancode:libutil&#45;david&#45;nugent</text>
</g>
<!-- 5259&#45;&gt;20276 -->
<g id="edge4" class="edge">
<title>5259&#45;&gt;20276</title>
<path fill="none" stroke="#deb256" stroke-width="2" d="M1259.17,-1754.35C1287.01,-1743.3 1318.2,-1730.07 1343.44,-1718.54"/>
<polygon fill="#deb256" stroke="#deb256" stroke-width="2" points="1351.3,-1714.91 1344.11,-1723.19 1349.18,-1716.44 1342.43,-1719.56 1342.22,-1719.11 1342.01,-1718.65 1348.76,-1715.53 1340.33,-1715.02 1351.3,-1714.91"/>
</g>
<!-- 51254 -->
<g id="node26" class="node">
<title>51254</title>
<polygon fill="none" stroke="#379469" points="1842.61,-2104.76 1842.61,-2119.67 1740.28,-2130.22 1595.57,-2130.22 1493.24,-2119.67 1493.24,-2104.76 1595.57,-2094.22 1740.28,-2094.22 1842.61,-2104.76"/>
<polygon fill="none" stroke="#379469" points="1846.61,-2101.15 1846.61,-2123.28 1740.49,-2134.22 1595.36,-2134.22 1489.24,-2123.28 1489.24,-2101.15 1595.36,-2090.22 1740.49,-2090.22 1846.61,-2101.15"/>
<text text-anchor="middle" x="1667.92" y="-2107.17" font-family="Times,serif" font-size="14.00">metaeffekt:libutil David Nugent License</text>
</g>
<!-- 5259&#45;&gt;51254 -->
<g id="edge5" class="edge">
<title>5259&#45;&gt;51254</title>
<path fill="none" stroke="#379469" stroke-width="2" d="M1215.54,-1803.71C1435.78,-2009.88 1476.13,-2045.06 1590.33,-2086.09"/>
<polygon fill="#379469" stroke="#379469" stroke-width="2" points="1598.58,-2089.01 1587.66,-2089.91 1596,-2088.62 1588.99,-2086.14 1589.16,-2085.67 1589.32,-2085.2 1596.33,-2087.68 1590.66,-2081.43 1598.58,-2089.01"/>
</g>
<!-- 5260 -->
<g id="node4" class="node">
<title>5260</title>
<polygon fill="none" stroke="black" points="1038.7,-1754.76 1038.7,-1769.67 982.45,-1780.21 902.9,-1780.21 846.65,-1769.67 846.65,-1754.76 902.9,-1744.21 982.45,-1744.21 1038.7,-1754.76"/>
<polygon fill="none" stroke="black" points="1042.7,-1751.44 1042.7,-1772.99 982.82,-1784.21 902.53,-1784.21 842.65,-1772.99 842.65,-1751.44 902.53,-1740.21 982.82,-1740.21 1042.7,-1751.44"/>
<text text-anchor="middle" x="942.67" y="-1757.16" font-family="Times,serif" font-size="14.00">libutil&#45;David&#45;Nugent</text>
</g>
<!-- 5260&#45;&gt;5259 -->
<g id="edge6" class="edge">
<title>5260&#45;&gt;5259</title>
<path fill="none" stroke="black" stroke-width="2" d="M986.91,-1783.9C1032.54,-1805.25 1055.79,-1810.38 1098.26,-1801.86"/>
<polygon fill="black" stroke="black" stroke-width="2" points="1106.81,-1800 1098,-1806.53 1104.41,-1801.04 1097.14,-1802.62 1097.04,-1802.13 1096.93,-1801.64 1104.19,-1800.06 1096.08,-1797.74 1106.81,-1800"/>
</g>
<!-- 5260&#45;&gt;9425 -->
<g id="edge7" class="edge">
<title>5260&#45;&gt;9425</title>
<path fill="none" stroke="#e09d4b" stroke-width="2" d="M942.08,-1739.87C939.31,-1627.91 944.47,-1610.13 1033.92,-1396.83"/>
<polygon fill="#e09d4b" stroke="#e09d4b" stroke-width="2" points="1037.3,-1388.77 1037.58,-1399.73 1036.77,-1391.33 1033.89,-1398.19 1033.43,-1397.99 1032.97,-1397.8 1035.85,-1390.94 1029.28,-1396.25 1037.3,-1388.77"/>
</g>
<!-- 5260&#45;&gt;20276 -->
<g id="edge8" class="edge">
<title>5260&#45;&gt;20276</title>
<path fill="none" stroke="black" stroke-width="2" d="M1012.69,-1779.08C1158.64,-1812.89 1190.53,-1805.32 1343.41,-1719.39"/>
<polygon fill="black" stroke="black" stroke-width="2" points="1351.05,-1715.09 1344.55,-1723.92 1349.06,-1716.78 1342.58,-1720.43 1342.34,-1720 1342.09,-1719.56 1348.57,-1715.91 1340.13,-1716.07 1351.05,-1715.09"/>
</g>
<!-- 41850 -->
<g id="node23" class="node">
<title>41850</title>
<polygon fill="none" stroke="#379469" points="739.41,-2047.2 739.41,-2062.11 670.18,-2072.66 572.27,-2072.66 503.04,-2062.11 503.04,-2047.2 572.27,-2036.66 670.18,-2036.66 739.41,-2047.2"/>
<polygon fill="none" stroke="#379469" points="743.41,-2043.77 743.41,-2065.55 670.48,-2076.66 571.97,-2076.66 499.04,-2065.55 499.04,-2043.77 571.97,-2032.66 670.48,-2032.66 743.41,-2043.77"/>
<text text-anchor="middle" x="621.23" y="-2049.61" font-family="Times,serif" font-size="14.00">cavil:libutil&#45;David&#45;Nugent</text>
</g>
<!-- 5260&#45;&gt;41850 -->
<g id="edge9" class="edge">
<title>5260&#45;&gt;41850</title>
<path fill="none" stroke="#379469" stroke-width="2" d="M920.83,-1784.56C758.73,-1950.34 732.16,-1976.6 662.18,-2026.14"/>
<polygon fill="#379469" stroke="#379469" stroke-width="2" points="655.41,-2030.91 661,-2021.47 657.22,-2029.02 663.3,-2024.74 663.59,-2025.15 663.88,-2025.56 657.8,-2029.84 666.18,-2028.83 655.41,-2030.91"/>
</g>
<!-- 5261 -->
<g id="node5" class="node">
<title>5261</title>
<polygon fill="none" stroke="black" points="1619.05,-1952.19 1619.05,-1967.1 1543.66,-1977.65 1437.03,-1977.65 1361.64,-1967.1 1361.64,-1952.19 1437.03,-1941.65 1543.66,-1941.65 1619.05,-1952.19"/>
<polygon fill="none" stroke="black" points="1623.05,-1948.71 1623.05,-1970.58 1543.94,-1981.65 1436.75,-1981.65 1357.64,-1970.58 1357.64,-1948.71 1436.75,-1937.65 1543.94,-1937.65 1623.05,-1948.71"/>
<text text-anchor="middle" x="1490.35" y="-1954.6" font-family="Times,serif" font-size="14.00">libutil David Nugent License</text>
</g>
<!-- 5261&#45;&gt;5259 -->
<g id="edge10" class="edge">
<title>5261&#45;&gt;5259</title>
<path fill="none" stroke="#dac767" stroke-width="2" d="M1409.2,-1941.2C1356.95,-1925.01 1323.53,-1898.41 1225.07,-1810.92"/>
<polygon fill="#dac767" stroke="#dac767" stroke-width="2" points="1218.75,-1805.29 1229.21,-1808.58 1220.99,-1806.62 1226.55,-1811.57 1226.22,-1811.94 1225.89,-1812.31 1220.33,-1807.37 1223.23,-1815.3 1218.75,-1805.29"/>
</g>
<!-- 5261&#45;&gt;20276 -->
<g id="edge11" class="edge">
<title>5261&#45;&gt;20276</title>
<path fill="none" stroke="#deb256" stroke-width="2" d="M1485.74,-1937.45C1472.87,-1876.38 1466.1,-1858.75 1406.87,-1723.6"/>
<polygon fill="#deb256" stroke="#deb256" stroke-width="2" points="1403.49,-1715.9 1411.63,-1723.25 1404.98,-1718.05 1407.97,-1724.86 1407.51,-1725.06 1407.05,-1725.26 1404.07,-1718.45 1403.39,-1726.87 1403.49,-1715.9"/>
</g>
<!-- 5261&#45;&gt;51254 -->
<g id="edge12" class="edge">
<title>5261&#45;&gt;51254</title>
<path fill="none" stroke="#379469" stroke-width="2" d="M1512.53,-1982.06C1573.9,-2044.01 1596.32,-2065.88 1621.69,-2083.67"/>
<polygon fill="#379469" stroke="#379469" stroke-width="2" points="1628.84,-2088.49 1618.03,-2086.63 1626.43,-2087.47 1620.27,-2083.31 1620.55,-2082.9 1620.83,-2082.48 1626.99,-2086.64 1623.06,-2079.17 1628.84,-2088.49"/>
</g>
<!-- 71644 -->
<g id="node31" class="node">
<title>71644</title>
<polygon fill="none" stroke="#00876c" points="1697.65,-1889.3 1697.65,-1904.21 1609.6,-1914.76 1485.08,-1914.76 1397.02,-1904.21 1397.02,-1889.3 1485.08,-1878.76 1609.6,-1878.76 1697.65,-1889.3"/>
<polygon fill="none" stroke="#00876c" points="1701.65,-1885.75 1701.65,-1907.76 1609.84,-1918.76 1484.84,-1918.76 1393.02,-1907.76 1393.02,-1885.75 1484.84,-1874.76 1609.84,-1874.76 1701.65,-1885.75"/>
<text text-anchor="middle" x="1547.34" y="-1891.71" font-family="Times,serif" font-size="14.00">spdx:libutil David Nugent License</text>
</g>
<!-- 5261&#45;&gt;71644 -->
<g id="edge13" class="edge">
<title>5261&#45;&gt;71644</title>
<path fill="none" stroke="#00876c" stroke-width="2" d="M1527.22,-1937.27C1529.17,-1934.9 1530.97,-1932.21 1532.77,-1929.02"/>
<polygon fill="#00876c" stroke="#00876c" stroke-width="2" points="1536.58,-1921.43 1536.11,-1932.39 1535.87,-1923.95 1532.54,-1930.59 1532.09,-1930.37 1531.64,-1930.14 1534.98,-1923.5 1528.07,-1928.35 1536.58,-1921.43"/>
</g>
<!-- 5262 -->
<g id="node6" class="node">
<title>5262</title>
<text text-anchor="middle" x="215.47" y="-1319.65" font-family="Times,serif" font-size="14.00">SPDXLicense:</text>
<text text-anchor="middle" x="215.47" y="-1303.15" font-family="Times,serif" font-size="14.00">This is a legacy BSD&#45;like license, but includes a specific requirement in the</text>
<text text-anchor="middle" x="215.47" y="-1286.65" font-family="Times,serif" font-size="14.00">first clause requiring retention of the copyright notice &quot;immediately at the</text>
<text text-anchor="middle" x="215.47" y="-1270.15" font-family="Times,serif" font-size="14.00">beginning of the file&quot;.</text>
</g>
<!-- 5262&#45;&gt;5258 -->
<g id="edge14" class="edge">
<title>5262&#45;&gt;5258</title>
<path fill="none" stroke="#dac767" d="M372.57,-1336.92C425.5,-1347.13 491.44,-1357.23 615.96,-1375.28"/>
<polygon fill="#dac767" stroke="#dac767" points="615.1,-1378.69 625.5,-1376.66 616.1,-1371.76 615.1,-1378.69"/>
</g>
<!-- 5263 -->
<g id="node7" class="node">
<title>5263</title>
<text text-anchor="middle" x="500.34" y="-1127.73" font-family="Times,serif" font-size="14.00">$TEXT</text>
</g>
<!-- 5263&#45;&gt;5258 -->
<g id="edge15" class="edge">
<title>5263&#45;&gt;5258</title>
<path fill="none" stroke="#dac767" d="M508.88,-1150.56C551.45,-1238.75 563.71,-1253.1 704.65,-1359.67"/>
<polygon fill="#dac767" stroke="#dac767" points="702.38,-1362.34 712.47,-1365.58 706.6,-1356.76 702.38,-1362.34"/>
</g>
<!-- 5264 -->
<g id="node8" class="node">
<title>5264</title>
<text text-anchor="middle" x="362.33" y="-990.53" font-family="Times,serif" font-size="14.00">$TEXT</text>
</g>
<!-- 5264&#45;&gt;5263 -->
<g id="edge16" class="edge">
<title>5264&#45;&gt;5263</title>
<path fill="none" stroke="#dac767" d="M373.59,-1013.15C394.45,-1045.06 405.81,-1056.13 469.56,-1107.87"/>
<polygon fill="#dac767" stroke="#dac767" points="467.32,-1110.57 477.29,-1114.14 471.73,-1105.13 467.32,-1110.57"/>
</g>
<!-- 5265 -->
<g id="node9" class="node">
<title>5265</title>
<text text-anchor="middle" x="1205" y="-1142.92" font-family="Times,serif" font-size="14.00">https://cgit.freedesktop.org/libbsd/tree/man/setproctitle.3bsd</text>
</g>
<!-- 5265&#45;&gt;5258 -->
<g id="edge17" class="edge">
<title>5265&#45;&gt;5258</title>
<path fill="none" stroke="#dac767" d="M1121.71,-1165.9C909.78,-1212.36 881.5,-1229.57 781.05,-1356.64"/>
<polygon fill="#dac767" stroke="#dac767" points="778.39,-1354.37 774.95,-1364.39 783.88,-1358.7 778.39,-1354.37"/>
</g>
<!-- 20275 -->
<g id="node16" class="node">
<title>20275</title>
<ellipse fill="none" stroke="#deb256" cx="1674.23" cy="-1274.75" rx="157.68" ry="28.99"/>
<text text-anchor="middle" x="1674.23" y="-1277.95" font-family="Times,serif" font-size="14.00" fill="gray">ScancodeData</text>
<text text-anchor="middle" x="1674.23" y="-1261.45" font-family="Times,serif" font-size="14.00" fill="gray">c42462fec49929f56332963f4068363d</text>
</g>
<!-- 5265&#45;&gt;20275 -->
<g id="edge18" class="edge">
<title>5265&#45;&gt;20275</title>
<path fill="none" stroke="#deb256" d="M1376.71,-1155.45C1507.07,-1163.87 1545.66,-1179.78 1627.35,-1239.62"/>
<polygon fill="#deb256" stroke="#deb256" points="1625.12,-1242.32 1635.24,-1245.44 1629.27,-1236.69 1625.12,-1242.32"/>
</g>
<!-- 5266 -->
<g id="node10" class="node">
<title>5266</title>
<text text-anchor="middle" x="1257.73" y="-1303.07" font-family="Times,serif" font-size="14.00">http://web.mit.edu/freebsd/head/lib/libutil/login_ok.3</text>
</g>
<!-- 5266&#45;&gt;5258 -->
<g id="edge19" class="edge">
<title>5266&#45;&gt;5258</title>
<path fill="none" stroke="#dac767" d="M1105.1,-1316.62C946.04,-1326.28 897.32,-1334.21 824.03,-1363.5"/>
<polygon fill="#dac767" stroke="#dac767" points="822.86,-1360.2 814.92,-1367.21 825.5,-1366.68 822.86,-1360.2"/>
</g>
<!-- 5266&#45;&gt;20275 -->
<g id="edge20" class="edge">
<title>5266&#45;&gt;20275</title>
<path fill="none" stroke="#deb256" d="M1381.9,-1290.16C1435.94,-1282.5 1474.43,-1277.43 1505.37,-1274.33"/>
<polygon fill="#deb256" stroke="#deb256" points="1505.31,-1277.85 1514.94,-1273.41 1504.65,-1270.88 1505.31,-1277.85"/>
</g>
<!-- 5550 -->
<g id="node11" class="node">
<title>5550</title>
<text text-anchor="middle" x="1951.46" y="-995.66" font-family="Times,serif" font-size="14.00">LicenseType Permissive</text>
</g>
<!-- 5550&#45;&gt;20275 -->
<g id="edge21" class="edge">
<title>5550&#45;&gt;20275</title>
<path fill="none" stroke="#deb256" d="M1940.69,-1018.53C1889.51,-1102.78 1875.64,-1117.25 1719.73,-1239.22"/>
<polygon fill="#deb256" stroke="#deb256" points="1717.65,-1236.4 1711.92,-1245.32 1721.96,-1241.92 1717.65,-1236.4"/>
</g>
<!-- 6592 -->
<g id="node12" class="node">
<title>6592</title>
<text text-anchor="middle" x="1002.94" y="-459.94" font-family="Times,serif" font-size="14.00">[&quot;allowed&quot;]</text>
</g>
<!-- 9424 -->
<g id="node14" class="node">
<title>9424</title>
<ellipse fill="none" stroke="#e09d4b" cx="1004.43" cy="-848.21" rx="156.62" ry="28.99"/>
<text text-anchor="middle" x="1004.43" y="-851.41" font-family="Times,serif" font-size="14.00" fill="gray">FedoraEntry</text>
<text text-anchor="middle" x="1004.43" y="-834.91" font-family="Times,serif" font-size="14.00" fill="gray">4e28aa6d66bf38942f98a6a7b4f1d787</text>
</g>
<!-- 6592&#45;&gt;9424 -->
<g id="edge22" class="edge">
<title>6592&#45;&gt;9424</title>
<path fill="none" stroke="#e09d4b" d="M1000.63,-482.84C988.6,-576.77 988.67,-594.13 1001.91,-807.72"/>
<polygon fill="#e09d4b" stroke="#e09d4b" points="998.41,-807.76 1002.52,-817.53 1005.4,-807.33 998.41,-807.76"/>
</g>
<!-- 6593 -->
<g id="node13" class="node">
<title>6593</title>
<text text-anchor="start" x="969.15" y="-104.19" font-family="Times,serif" font-size="14.00">Fedora: </text>
<text text-anchor="start" x="1014.15" y="-104.19" font-family="Times,serif" font-weight="bold" font-size="14.00" fill="#228b22">allowed</text>
<text text-anchor="start" x="805.28" y="-90.19" font-family="Times,serif" font-size="14.00">A license is allowed if Fedora determines that the license is a free software /</text>
<text text-anchor="start" x="800.03" y="-76.19" font-family="Times,serif" font-size="14.00">open source license. At a high level, the inquiry involves determining whether</text>
<text text-anchor="start" x="798.9" y="-62.19" font-family="Times,serif" font-size="14.00">the license provides software freedom, and (equivalently) making sure that the</text>
<text text-anchor="start" x="809.03" y="-48.19" font-family="Times,serif" font-size="14.00">license does not place burdens on users&#39; exercise of its permissions that are</text>
<text text-anchor="start" x="808.65" y="-34.19" font-family="Times,serif" font-size="14.00">inconsistent with evolving community norms and traditions around what is</text>
<text text-anchor="start" x="800.4" y="-20.19" font-family="Times,serif" font-size="14.00">acceptable in a free software / open source license. See below for more on the</text>
<text text-anchor="start" x="920.4" y="-6.19" font-family="Times,serif" font-size="14.00">history of Fedora licensing policy.</text>
</g>
<!-- 6593&#45;&gt;6592 -->
<g id="edge23" class="edge">
<title>6593&#45;&gt;6592</title>
<path fill="none" stroke="#e09d4b" d="M1006.19,-120.25C998.23,-189.75 998.62,-232.91 1002.39,-435.65"/>
<polygon fill="#e09d4b" stroke="#e09d4b" points="998.89,-435.56 1002.57,-445.5 1005.89,-435.43 998.89,-435.56"/>
</g>
<!-- 9424&#45;&gt;9425 -->
<g id="edge24" class="edge">
<title>9424&#45;&gt;9425</title>
<path fill="none" stroke="#e09d4b" d="M1000.45,-877.64C982.95,-1009.13 985.97,-1033.19 1041.37,-1330.92"/>
<polygon fill="#e09d4b" stroke="#e09d4b" points="1037.9,-1331.4 1043.17,-1340.59 1044.78,-1330.12 1037.9,-1331.4"/>
</g>
<!-- 20275&#45;&gt;20276 -->
<g id="edge25" class="edge">
<title>20275&#45;&gt;20276</title>
<path fill="none" stroke="#deb256" d="M1668.76,-1304.13C1632.83,-1495.92 1621.85,-1514.06 1430.8,-1662.05"/>
<polygon fill="#deb256" stroke="#deb256" points="1428.83,-1659.15 1423.06,-1668.04 1433.11,-1664.69 1428.83,-1659.15"/>
</g>
<!-- 20276&#45;&gt;5259 -->
<g id="edge26" class="edge">
<title>20276&#45;&gt;5259</title>
<path fill="none" stroke="#00876c" stroke-width="2" d="M1326.78,-1712.25C1300.66,-1722.5 1270.9,-1735 1245.61,-1746.33"/>
<polygon fill="#00876c" stroke="#00876c" stroke-width="2" points="1237.65,-1749.94 1244.9,-1741.71 1239.78,-1748.42 1246.55,-1745.35 1246.76,-1745.81 1246.96,-1746.27 1240.19,-1749.33 1248.61,-1749.91 1237.65,-1749.94"/>
</g>
<!-- 20276&#45;&gt;51254 -->
<g id="edge27" class="edge">
<title>20276&#45;&gt;51254</title>
<path fill="none" stroke="#379469" stroke-dasharray="5,2" d="M1407.91,-1713.92C1572.93,-1958.84 1589.59,-1983.83 1648.73,-2080.72"/>
<polygon fill="#379469" stroke="#379469" points="1653.76,-2088.97 1644.71,-2082.78 1651.79,-2085.74 1648.55,-2080.43 1648.55,-2080.43 1648.55,-2080.43 1651.79,-2085.74 1652.39,-2078.09 1653.76,-2088.97"/>
</g>
<!-- 20277 -->
<g id="node18" class="node">
<title>20277</title>
<text text-anchor="middle" x="2001.11" y="-1194.12" font-family="Times,serif" font-size="14.00">$TEXT</text>
</g>
<!-- 20277&#45;&gt;20275 -->
<g id="edge28" class="edge">
<title>20277&#45;&gt;20275</title>
<path fill="none" stroke="#deb256" d="M1972.53,-1205.92C1916.36,-1219.17 1890.65,-1225.14 1785.14,-1249.33"/>
<polygon fill="#deb256" stroke="#deb256" points="1784.42,-1245.91 1775.46,-1251.55 1785.99,-1252.73 1784.42,-1245.91"/>
</g>
<!-- 35432 -->
<g id="node19" class="node">
<title>35432</title>
<text text-anchor="middle" x="406.81" y="-2525.22" font-family="Times,serif" font-size="14.00">LicenseTag (ScopedLicenseTag &quot;OrtLicenseCategorization&quot; &quot;permissive&quot; NoLicenseTagText)</text>
</g>
<!-- 39967 -->
<g id="node21" class="node">
<title>39967</title>
<ellipse fill="none" stroke="#d43d51" cx="892.72" cy="-2205.1" rx="157.15" ry="28.99"/>
<text text-anchor="middle" x="892.72" y="-2208.3" font-family="Times,serif" font-size="14.00" fill="gray">OrtLicenseCategorization</text>
<text text-anchor="middle" x="892.72" y="-2191.8" font-family="Times,serif" font-size="14.00" fill="gray">b4715c823e3ccd1c8ed75aa08f1ecd09</text>
</g>
<!-- 35432&#45;&gt;39967 -->
<g id="edge29" class="edge">
<title>35432&#45;&gt;39967</title>
<path fill="none" stroke="#d43d51" d="M463.59,-2512.36C592.22,-2470.51 625.42,-2444.67 852.2,-2241.43"/>
<polygon fill="#d43d51" stroke="#d43d51" points="854.46,-2244.11 859.57,-2234.83 849.79,-2238.9 854.46,-2244.11"/>
</g>
<!-- 35433 -->
<g id="node20" class="node">
<title>35433</title>
<text text-anchor="middle" x="630.88" y="-2754.63" font-family="Times,serif" font-size="14.00">LicenseTag (ScopedLicenseTag &quot;OrtLicenseCategorization&quot; &quot;include&#45;in&#45;notice&#45;file&quot; NoLicenseTagText)</text>
</g>
<!-- 35433&#45;&gt;39967 -->
<g id="edge30" class="edge">
<title>35433&#45;&gt;39967</title>
<path fill="none" stroke="#d43d51" d="M640.69,-2741.84C717.33,-2602.38 725.99,-2583.95 875.22,-2244.87"/>
<polygon fill="#d43d51" stroke="#d43d51" points="878.35,-2246.43 879.18,-2235.87 871.95,-2243.61 878.35,-2246.43"/>
</g>
<!-- 39967&#45;&gt;5259 -->
<g id="edge31" class="edge">
<title>39967&#45;&gt;5259</title>
<path fill="none" stroke="#d43d51" d="M925.11,-2176.5C1017.3,-2094.22 1034.2,-2066.32 1168.39,-1813.4"/>
<polygon fill="#d43d51" stroke="#d43d51" points="1171.33,-1815.34 1172.92,-1804.86 1165.14,-1812.06 1171.33,-1815.34"/>
</g>
<!-- 41849 -->
<g id="node22" class="node">
<title>41849</title>
<ellipse fill="none" stroke="#379469" cx="564.36" cy="-2116.94" rx="157.15" ry="28.99"/>
<text text-anchor="middle" x="564.36" y="-2120.14" font-family="Times,serif" font-size="14.00" fill="gray">CavilLicenseChange</text>
<text text-anchor="middle" x="564.36" y="-2103.64" font-family="Times,serif" font-size="14.00" fill="gray">ffbfc2ddb7a84750154ee4d67500080b</text>
</g>
<!-- 41849&#45;&gt;41850 -->
<g id="edge32" class="edge">
<title>41849&#45;&gt;41850</title>
<path fill="none" stroke="#379469" d="M591.6,-2088.1C592.39,-2087.23 593.2,-2086.31 594.06,-2085.36"/>
<polygon fill="#379469" stroke="#379469" points="596.4,-2087.99 600.42,-2078.19 591.16,-2083.34 596.4,-2087.99"/>
</g>
<!-- 43136 -->
<g id="node24" class="node">
<title>43136</title>
<text text-anchor="start" x="1725.87" y="-2327.72" font-family="Times,serif" font-size="14.00">CoDEStatus: </text>
<text text-anchor="start" x="1800.12" y="-2327.72" font-family="Times,serif" font-weight="bold" font-size="14.00" fill="#228b22">Approved</text>
<text text-anchor="start" x="1578.49" y="-2313.72" font-family="Times,serif" font-size="14.00">Eine Lizenz ist freigegeben, wenn sie nach fachlicher und juristischer Prüfung</text>
<text text-anchor="start" x="1560.49" y="-2299.72" font-family="Times,serif" font-size="14.00">seitens Open CoDE sowohl der Open Source Definition (gemäß Definition der Open</text>
<text text-anchor="start" x="1602.49" y="-2285.72" font-family="Times,serif" font-size="14.00">Source Initiative [extern]) entspricht und darüber hinaus keine für die</text>
<text text-anchor="start" x="1605.49" y="-2271.72" font-family="Times,serif" font-size="14.00">Öffentliche Verwaltung erkennbaren Schwierigkeiten birgt. Außer in</text>
<text text-anchor="start" x="1590.49" y="-2257.72" font-family="Times,serif" font-size="14.00">Ausnahmefällen ist nicht zu erwarten, dass einmal freigegebene Lizenzen</text>
<text text-anchor="start" x="1730.37" y="-2243.72" font-family="Times,serif" font-size="14.00">deklassifiziert werden.</text>
</g>
<!-- 51253 -->
<g id="node25" class="node">
<title>51253</title>
<ellipse fill="none" stroke="#379469" cx="1784.38" cy="-2193.89" rx="157.68" ry="28.99"/>
<text text-anchor="middle" x="1784.38" y="-2197.09" font-family="Times,serif" font-size="14.00" fill="gray">MetaeffektLicense</text>
<text text-anchor="middle" x="1784.38" y="-2180.59" font-family="Times,serif" font-size="14.00" fill="gray">d7efbc69b3ad68c68c107a4944366ace</text>
</g>
<!-- 43136&#45;&gt;51253 -->
<g id="edge33" class="edge">
<title>43136&#45;&gt;51253</title>
<path fill="none" stroke="#379469" d="M1794.48,-2238.26C1794.24,-2237.04 1793.99,-2235.77 1793.72,-2234.46"/>
<polygon fill="#379469" stroke="#379469" points="1797.16,-2233.82 1791.62,-2224.79 1790.32,-2235.31 1797.16,-2233.82"/>
</g>
<!-- 51253&#45;&gt;51254 -->
<g id="edge34" class="edge">
<title>51253&#45;&gt;51254</title>
<path fill="none" stroke="#379469" d="M1733.19,-2166.07C1725.21,-2160.12 1715.69,-2152.41 1702.76,-2141.61"/>
<polygon fill="#379469" stroke="#379469" points="1705.33,-2139.2 1695.42,-2135.45 1700.83,-2144.56 1705.33,-2139.2"/>
</g>
<!-- 51255 -->
<g id="node27" class="node">
<title>51255</title>
<polygon fill="none" stroke="#379469" points="2196.61,-2192.91 2196.61,-2207.83 2141.01,-2218.37 2062.38,-2218.37 2006.78,-2207.83 2006.78,-2192.91 2062.38,-2182.37 2141.01,-2182.37 2196.61,-2192.91"/>
<text text-anchor="middle" x="2101.7" y="-2195.32" font-family="Times,serif" font-size="14.00">libutil David Nugent</text>
</g>
<!-- 51255&#45;&gt;51254 -->
<g id="edge35" class="edge">
<title>51255&#45;&gt;51254</title>
<path fill="none" stroke="#379469" stroke-dasharray="5,2" d="M2015.26,-2209.93C1941.25,-2214.52 1894.85,-2200.26 1735.76,-2138.63"/>
<polygon fill="#379469" stroke="#379469" points="1726.75,-2135.14 1737.7,-2134.56 1730.28,-2136.5 1736.08,-2138.75 1736.08,-2138.75 1736.08,-2138.75 1730.28,-2136.5 1734.45,-2142.95 1726.75,-2135.14"/>
</g>
<!-- 51256 -->
<g id="node28" class="node">
<title>51256</title>
<polygon fill="none" stroke="#379469" points="2317.06,-2515.25 2317.06,-2530.16 2184.88,-2540.71 1997.94,-2540.71 1865.76,-2530.16 1865.76,-2515.25 1997.94,-2504.71 2184.88,-2504.71 2317.06,-2515.25"/>
<text text-anchor="middle" x="2091.41" y="-2517.66" font-family="Times,serif" font-size="14.00">http://web.mit.edu/freebsd/head/lib/libutil/login_ok.3</text>
</g>
<!-- 51256&#45;&gt;51254 -->
<g id="edge36" class="edge">
<title>51256&#45;&gt;51254</title>
<path fill="none" stroke="#379469" stroke-dasharray="5,2" d="M2068.62,-2504.37C1955.47,-2413.16 1936.95,-2394.74 1696.86,-2142.61"/>
<polygon fill="#379469" stroke="#379469" points="1690.17,-2135.58 1700.32,-2139.72 1692.78,-2138.32 1697.06,-2142.82 1697.06,-2142.82 1697.06,-2142.82 1692.78,-2138.32 1693.81,-2145.93 1690.17,-2135.58"/>
</g>
<!-- 51258 -->
<g id="node29" class="node">
<title>51258</title>
<polygon fill="none" stroke="#379469" points="2072.44,-2699.08 2072.44,-2713.99 1923.7,-2724.54 1713.36,-2724.54 1564.63,-2713.99 1564.63,-2699.08 1713.36,-2688.54 1923.7,-2688.54 2072.44,-2699.08"/>
<text text-anchor="middle" x="1818.53" y="-2701.49" font-family="Times,serif" font-size="14.00">https://cgit.freedesktop.org/libbsd/tree/man/setproctitle.3bsd</text>
</g>
<!-- 51258&#45;&gt;51254 -->
<g id="edge37" class="edge">
<title>51258&#45;&gt;51254</title>
<path fill="none" stroke="#379469" stroke-dasharray="5,2" d="M1817.15,-2688.14C1804.42,-2520.31 1799.93,-2503.25 1679.02,-2145.08"/>
<polygon fill="#379469" stroke="#379469" points="1675.89,-2135.81 1683.35,-2143.84 1677.1,-2139.39 1679.09,-2145.28 1679.09,-2145.28 1679.09,-2145.28 1677.1,-2139.39 1674.82,-2146.72 1675.89,-2135.81"/>
</g>
<!-- 71643 -->
<g id="node30" class="node">
<title>71643</title>
<ellipse fill="none" stroke="#00876c" cx="1524.61" cy="-1539.54" rx="158.22" ry="28.99"/>
<text text-anchor="middle" x="1524.61" y="-1542.74" font-family="Times,serif" font-size="14.00" fill="gray">LicenseLynx</text>
<text text-anchor="middle" x="1524.61" y="-1526.24" font-family="Times,serif" font-size="14.00" fill="gray">b8bc35a136ac3b7b4120c41517811f0f</text>
</g>
<!-- 71643&#45;&gt;5259 -->
<g id="edge38" class="edge">
<title>71643&#45;&gt;5259</title>
<path fill="none" stroke="#00876c" d="M1505.97,-1568.35C1422.98,-1696.22 1400.18,-1721.64 1283.26,-1753.5"/>
<polygon fill="#00876c" stroke="#00876c" points="1282.63,-1750.05 1273.88,-1756.01 1284.44,-1756.81 1282.63,-1750.05"/>
</g>
<!-- 71644&#45;&gt;5259 -->
<g id="edge39" class="edge">
<title>71644&#45;&gt;5259</title>
<path fill="none" stroke="#00876c" stroke-width="2" d="M1392.75,-1889.07C1355.7,-1877.01 1313.47,-1853.32 1240.68,-1809.57"/>
<polygon fill="#00876c" stroke="#00876c" stroke-width="2" points="1233.26,-1805.11 1244.15,-1806.41 1235.71,-1806 1242.08,-1809.84 1241.83,-1810.26 1241.57,-1810.69 1235.2,-1806.86 1239.5,-1814.12 1233.26,-1805.11"/>
</g>
</g>
</svg>
