<?xml version="1.0" encoding="UTF-8" standalone="no"?>
<!DOCTYPE svg PUBLIC "-//W3C//DTD SVG 1.1//EN"
 "http://www.w3.org/Graphics/SVG/1.1/DTD/svg11.dtd">
<!-- Generated by graphviz version 10.0.1 (0)
 -->
<!-- Pages: 1 -->
<svg width="3357pt" height="3224pt"
 viewBox="0.00 0.00 3357.00 3224.00" xmlns="http://www.w3.org/2000/svg" xmlns:xlink="http://www.w3.org/1999/xlink">
<g id="graph0" class="graph" transform="scale(1 1) rotate(0) translate(4 3220)">
<polygon fill="white" stroke="none" points="-4,4 -4,-3220 3353,-3220 3353,4 -4,4"/>
<!-- 5 -->
<g id="node1" class="node">
<title>5</title>
<text text-anchor="start" x="1287.63" y="-2963.12" font-family="Times,serif" font-size="14.00">OSI: </text>
<text text-anchor="start" x="1316.88" y="-2963.12" font-family="Times,serif" font-weight="bold" font-size="14.00" fill="#8b0000">Rejected</text>
</g>
<!-- 3020 -->
<g id="node2" class="node">
<title>3020</title>
<ellipse fill="none" stroke="#dac767" cx="1374.43" cy="-2604.22" rx="153.97" ry="28.99"/>
<text text-anchor="middle" x="1374.43" y="-2607.42" font-family="Times,serif" font-size="14.00" fill="gray">SPDXLicense</text>
<text text-anchor="middle" x="1374.43" y="-2590.92" font-family="Times,serif" font-size="14.00" fill="gray">dfeead484c274eb2768afc10fdcad60a</text>
</g>
<!-- 5&#45;&gt;3020 -->
<g id="edge1" class="edge">
<title>5&#45;&gt;3020</title>
<path fill="none" stroke="#dac767" d="M1328.05,-2949.33C1331.43,-2861.12 1333.66,-2843.91 1367.51,-2644.83"/>
<polygon fill="#dac767" stroke="#dac767" points="1370.93,-2645.59 1369.16,-2635.14 1364.03,-2644.42 1370.93,-2645.59"/>
</g>
<!-- 3021 -->
<g id="node3" class="node">
<title>3021</title>
<polygon fill="none" stroke="black" points="1811.71,-1958.71 1811.71,-1973.62 1720.09,-1984.16 1590.52,-1984.16 1498.9,-1973.62 1498.9,-1958.71 1590.52,-1948.16 1720.09,-1948.16 1811.71,-1958.71"/>
<polygon fill="none" stroke="black" points="1815.71,-1955.14 1815.71,-1977.18 1720.32,-1988.16 1590.29,-1988.16 1494.9,-1977.18 1494.9,-1955.14 1590.29,-1944.16 1720.32,-1944.16 1815.71,-1955.14"/>
<polygon fill="none" stroke="black" points="1819.71,-1951.57 1819.71,-1980.75 1720.55,-1992.16 1590.06,-1992.16 1490.9,-1980.75 1490.9,-1951.57 1590.06,-1940.16 1720.55,-1940.16 1819.71,-1951.57"/>
<text text-anchor="middle" x="1655.3" y="-1961.11" font-family="Times,serif" font-size="14.00">spdx:Linux&#45;man&#45;pages&#45;copyleft&#45;var</text>
</g>
<!-- 3020&#45;&gt;3021 -->
<g id="edge2" class="edge">
<title>3020&#45;&gt;3021</title>
<path fill="none" stroke="#dac767" d="M1391.58,-2575.2C1480.71,-2424.06 1491.87,-2397.1 1641.35,-2002.95"/>
<polygon fill="#dac767" stroke="#dac767" points="1644.55,-2004.38 1644.83,-1993.79 1638.01,-2001.9 1644.55,-2004.38"/>
</g>
<!-- 8914 -->
<g id="node13" class="node">
<title>8914</title>
<polygon fill="none" stroke="#e09d4b" points="1673.21,-1326.9 1673.21,-1341.82 1576.4,-1352.36 1439.48,-1352.36 1342.67,-1341.82 1342.67,-1326.9 1439.48,-1316.36 1576.4,-1316.36 1673.21,-1326.9"/>
<polygon fill="none" stroke="#e09d4b" points="1677.21,-1323.32 1677.21,-1345.4 1576.61,-1356.36 1439.26,-1356.36 1338.67,-1345.4 1338.67,-1323.32 1439.26,-1312.36 1576.61,-1312.36 1677.21,-1323.32"/>
<text text-anchor="middle" x="1507.94" y="-1329.31" font-family="Times,serif" font-size="14.00">Fedora:Linux&#45;man&#45;pages&#45;copyleft&#45;var</text>
</g>
<!-- 3021&#45;&gt;8914 -->
<g id="edge3" class="edge">
<title>3021&#45;&gt;8914</title>
<path fill="none" stroke="#e09d4b" stroke-width="2" d="M1636.04,-1939.81C1469.05,-1711.05 1465.14,-1692.19 1503.98,-1367.33"/>
<polygon fill="#e09d4b" stroke="#e09d4b" stroke-width="2" points="1504.97,-1359.06 1508.25,-1369.52 1505.17,-1361.66 1504.28,-1369.04 1503.78,-1368.98 1503.29,-1368.93 1504.17,-1361.54 1499.32,-1368.45 1504.97,-1359.06"/>
</g>
<!-- 20396 -->
<g id="node16" class="node">
<title>20396</title>
<polygon fill="none" stroke="black" points="2462.3,-1902.18 2462.3,-1917.09 2362.24,-1927.63 2220.74,-1927.63 2120.68,-1917.09 2120.68,-1902.18 2220.74,-1891.63 2362.24,-1891.63 2462.3,-1902.18"/>
<polygon fill="none" stroke="black" points="2466.3,-1898.58 2466.3,-1920.69 2362.45,-1931.63 2220.53,-1931.63 2116.68,-1920.69 2116.68,-1898.58 2220.53,-1887.63 2362.45,-1887.63 2466.3,-1898.58"/>
<text text-anchor="middle" x="2291.49" y="-1904.58" font-family="Times,serif" font-size="14.00">scancode:linux&#45;man&#45;pages&#45;copyleft&#45;var</text>
</g>
<!-- 3021&#45;&gt;20396 -->
<g id="edge4" class="edge">
<title>3021&#45;&gt;20396</title>
<path fill="none" stroke="#deb256" stroke-width="2" d="M1820.08,-1957.54C1924.06,-1949.41 2056.78,-1937.51 2154.88,-1927.46"/>
<polygon fill="#deb256" stroke="#deb256" stroke-width="2" points="2163.34,-1926.59 2153.85,-1932.09 2160.84,-1927.35 2153.44,-1928.11 2153.39,-1927.61 2153.34,-1927.12 2160.74,-1926.35 2152.93,-1923.14 2163.34,-1926.59"/>
</g>
<!-- 51297 -->
<g id="node26" class="node">
<title>51297</title>
<polygon fill="none" stroke="#379469" points="2367.81,-1955.17 2367.81,-1970.08 2292.74,-1980.63 2186.57,-1980.63 2111.5,-1970.08 2111.5,-1955.17 2186.57,-1944.63 2292.74,-1944.63 2367.81,-1955.17"/>
<polygon fill="none" stroke="#379469" points="2371.81,-1951.69 2371.81,-1973.56 2293.02,-1984.63 2186.29,-1984.63 2107.5,-1973.56 2107.5,-1951.69 2186.29,-1940.63 2293.02,-1940.63 2371.81,-1951.69"/>
<text text-anchor="middle" x="2239.65" y="-1957.58" font-family="Times,serif" font-size="14.00">metaeffekt:Linux man&#45;pages</text>
</g>
<!-- 3021&#45;&gt;51297 -->
<g id="edge5" class="edge">
<title>3021&#45;&gt;51297</title>
<path fill="none" stroke="#379469" stroke-width="2" d="M1748.37,-1989.36C1988.92,-2048.57 2031.51,-2049.17 2176.57,-1989.32"/>
<polygon fill="#379469" stroke="#379469" stroke-width="2" points="2184.48,-1986.03 2176.97,-1994.02 2182.31,-1987.48 2175.44,-1990.33 2175.25,-1989.87 2175.05,-1989.41 2181.92,-1986.55 2173.52,-1985.71 2184.48,-1986.03"/>
</g>
<!-- 3022 -->
<g id="node4" class="node">
<title>3022</title>
<polygon fill="none" stroke="black" points="2036.93,-1640.89 2036.93,-1655.8 1957.96,-1666.34 1846.29,-1666.34 1767.32,-1655.8 1767.32,-1640.89 1846.29,-1630.34 1957.96,-1630.34 2036.93,-1640.89"/>
<polygon fill="none" stroke="black" points="2040.93,-1637.39 2040.93,-1659.3 1958.23,-1670.34 1846.02,-1670.34 1763.32,-1659.3 1763.32,-1637.39 1846.02,-1626.34 1958.23,-1626.34 2040.93,-1637.39"/>
<text text-anchor="middle" x="1902.12" y="-1643.29" font-family="Times,serif" font-size="14.00">Linux&#45;man&#45;pages&#45;copyleft&#45;var</text>
</g>
<!-- 3022&#45;&gt;3021 -->
<g id="edge6" class="edge">
<title>3022&#45;&gt;3021</title>
<path fill="none" stroke="black" stroke-width="2" d="M1893.7,-1670.84C1826.89,-1849.15 1813.55,-1876.57 1713.03,-1934.23"/>
<polygon fill="black" stroke="black" stroke-width="2" points="1705.47,-1938.52 1711.94,-1929.66 1707.45,-1936.82 1713.92,-1933.14 1714.17,-1933.58 1714.41,-1934.01 1707.95,-1937.69 1716.39,-1937.49 1705.47,-1938.52"/>
</g>
<!-- 3022&#45;&gt;8914 -->
<g id="edge7" class="edge">
<title>3022&#45;&gt;8914</title>
<path fill="none" stroke="#e09d4b" stroke-width="2" d="M1887,-1625.92C1755.35,-1430.84 1729.72,-1398.47 1596.76,-1358.87"/>
<polygon fill="#e09d4b" stroke="#e09d4b" stroke-width="2" points="1588.48,-1356.44 1599.34,-1354.94 1591.08,-1356.68 1598.22,-1358.77 1598.08,-1359.25 1597.94,-1359.73 1590.8,-1357.64 1596.81,-1363.57 1588.48,-1356.44"/>
</g>
<!-- 3022&#45;&gt;20396 -->
<g id="edge8" class="edge">
<title>3022&#45;&gt;20396</title>
<path fill="none" stroke="black" stroke-width="2" d="M1940.28,-1670.82C2154.51,-1797.04 2184.17,-1815.63 2257.95,-1880.05"/>
<polygon fill="black" stroke="black" stroke-width="2" points="2264.37,-1885.68 2253.89,-1882.47 2262.11,-1884.37 2256.52,-1879.46 2256.85,-1879.09 2257.18,-1878.71 2262.77,-1883.61 2259.82,-1875.7 2264.37,-1885.68"/>
</g>
<!-- 41864 -->
<g id="node24" class="node">
<title>41864</title>
<polygon fill="none" stroke="#379469" points="1693.14,-1448.72 1693.14,-1463.64 1601.2,-1474.18 1471.17,-1474.18 1379.22,-1463.64 1379.22,-1448.72 1471.17,-1438.18 1601.2,-1438.18 1693.14,-1448.72"/>
<polygon fill="none" stroke="#379469" points="1697.14,-1445.16 1697.14,-1467.2 1601.42,-1478.18 1470.94,-1478.18 1375.22,-1467.2 1375.22,-1445.16 1470.94,-1434.18 1601.42,-1434.18 1697.14,-1445.16"/>
<text text-anchor="middle" x="1536.18" y="-1451.13" font-family="Times,serif" font-size="14.00">cavil:Linux&#45;man&#45;pages&#45;copyleft&#45;var</text>
</g>
<!-- 3022&#45;&gt;41864 -->
<g id="edge9" class="edge">
<title>3022&#45;&gt;41864</title>
<path fill="none" stroke="#379469" stroke-width="2" d="M1883.79,-1625.94C1797,-1520.22 1770.2,-1494.48 1662.63,-1474.79"/>
<polygon fill="#379469" stroke="#379469" stroke-width="2" points="1654.01,-1473.27 1664.64,-1470.58 1656.62,-1473.22 1663.94,-1474.52 1663.85,-1475.01 1663.77,-1475.5 1656.44,-1474.21 1663.07,-1479.44 1654.01,-1473.27"/>
</g>
<!-- 3022&#45;&gt;51297 -->
<g id="edge10" class="edge">
<title>3022&#45;&gt;51297</title>
<path fill="none" stroke="#379469" stroke-dasharray="5,2" d="M1930.45,-1670.69C2130.79,-1828.81 2153.86,-1848.47 2216.45,-1931.53"/>
<polygon fill="#379469" stroke="#379469" points="2222.31,-1939.34 2212.71,-1934.05 2220.04,-1936.32 2216.31,-1931.35 2216.31,-1931.35 2216.31,-1931.35 2220.04,-1936.32 2219.91,-1928.64 2222.31,-1939.34"/>
</g>
<!-- 3023 -->
<g id="node5" class="node">
<title>3023</title>
<polygon fill="none" stroke="black" points="2082.5,-1857.45 2082.5,-1872.36 1994.13,-1882.9 1869.14,-1882.9 1780.77,-1872.36 1780.77,-1857.45 1869.14,-1846.9 1994.13,-1846.9 2082.5,-1857.45"/>
<polygon fill="none" stroke="black" points="2086.5,-1853.9 2086.5,-1875.91 1994.36,-1886.9 1868.91,-1886.9 1776.77,-1875.91 1776.77,-1853.9 1868.91,-1842.9 1994.36,-1842.9 2086.5,-1853.9"/>
<text text-anchor="middle" x="1931.63" y="-1859.85" font-family="Times,serif" font-size="14.00">Linux man&#45;pages Copyleft Variant</text>
</g>
<!-- 3023&#45;&gt;3021 -->
<g id="edge11" class="edge">
<title>3023&#45;&gt;3021</title>
<path fill="none" stroke="#dac767" stroke-width="2" d="M1906.83,-1887.22C1874.22,-1916.38 1851.66,-1935.27 1829.77,-1947.36"/>
<polygon fill="#dac767" stroke="#dac767" stroke-width="2" points="1822.24,-1951.18 1829.12,-1942.64 1824.3,-1949.57 1830.93,-1946.21 1831.16,-1946.65 1831.38,-1947.1 1824.75,-1950.46 1833.19,-1950.66 1822.24,-1951.18"/>
</g>
<!-- 3023&#45;&gt;20396 -->
<g id="edge12" class="edge">
<title>3023&#45;&gt;20396</title>
<path fill="none" stroke="#deb256" stroke-width="2" d="M2011.98,-1885.28C2050.56,-1894.96 2080.73,-1902.23 2105.69,-1907.51"/>
<polygon fill="#deb256" stroke="#deb256" stroke-width="2" points="2114.05,-1909.23 2103.35,-1911.62 2111.44,-1909.2 2104.15,-1907.7 2104.25,-1907.21 2104.36,-1906.72 2111.64,-1908.22 2105.16,-1902.81 2114.05,-1909.23"/>
</g>
<!-- 3023&#45;&gt;51297 -->
<g id="edge13" class="edge">
<title>3023&#45;&gt;51297</title>
<path fill="none" stroke="#379469" stroke-dasharray="5,2" d="M1984.36,-1887.27C2055.99,-1917.57 2096.19,-1933.96 2128.01,-1943.78"/>
<polygon fill="#379469" stroke="#379469" points="2137.34,-1946.52 2126.48,-1948.02 2133.71,-1945.45 2127.75,-1943.7 2127.75,-1943.7 2127.75,-1943.7 2133.71,-1945.45 2129.02,-1939.38 2137.34,-1946.52"/>
</g>
<!-- 67719 -->
<g id="node33" class="node">
<title>67719</title>
<polygon fill="none" stroke="#00876c" points="2197.95,-1801.56 2197.95,-1816.47 2096.91,-1827.02 1954.03,-1827.02 1853,-1816.47 1853,-1801.56 1954.03,-1791.02 2096.91,-1791.02 2197.95,-1801.56"/>
<polygon fill="none" stroke="#00876c" points="2201.95,-1797.96 2201.95,-1820.08 2097.12,-1831.02 1953.83,-1831.02 1849,-1820.08 1849,-1797.96 1953.83,-1787.02 2097.12,-1787.02 2201.95,-1797.96"/>
<text text-anchor="middle" x="2025.47" y="-1803.97" font-family="Times,serif" font-size="14.00">spdx:Linux man&#45;pages Copyleft Variant</text>
</g>
<!-- 3023&#45;&gt;67719 -->
<g id="edge14" class="edge">
<title>3023&#45;&gt;67719</title>
<path fill="none" stroke="#00876c" stroke-width="2" d="M1997.36,-1842.89C1998.73,-1841.81 2000.05,-1840.66 2001.36,-1839.43"/>
<polygon fill="#00876c" stroke="#00876c" stroke-width="2" points="2007.25,-1833.05 2003.78,-1843.45 2005.88,-1835.27 2000.84,-1840.74 2000.47,-1840.4 2000.1,-1840.06 2005.14,-1834.59 1997.16,-1837.35 2007.25,-1833.05"/>
</g>
<!-- 3024 -->
<g id="node6" class="node">
<title>3024</title>
<text text-anchor="middle" x="1184.5" y="-3198.31" font-family="Times,serif" font-size="14.00">SPDXLicense:</text>
<text text-anchor="middle" x="1184.5" y="-3181.81" font-family="Times,serif" font-size="14.00">This is the same as Linux&#45;man&#45;pages&#45;copyleft but omits the last sentence of the</text>
<text text-anchor="middle" x="1184.5" y="-3165.31" font-family="Times,serif" font-size="14.00">third paragraph.</text>
</g>
<!-- 3024&#45;&gt;3020 -->
<g id="edge15" class="edge">
<title>3024&#45;&gt;3020</title>
<path fill="none" stroke="#dac767" d="M1194.15,-3158.38C1242.15,-3016.66 1250.48,-2990.94 1361.51,-2644.52"/>
<polygon fill="#dac767" stroke="#dac767" points="1364.81,-2645.69 1364.53,-2635.1 1358.15,-2643.55 1364.81,-2645.69"/>
</g>
<!-- 3025 -->
<g id="node7" class="node">
<title>3025</title>
<text text-anchor="middle" x="1015.5" y="-2847.58" font-family="Times,serif" font-size="14.00">$TEXT</text>
</g>
<!-- 3025&#45;&gt;3020 -->
<g id="edge16" class="edge">
<title>3025&#45;&gt;3020</title>
<path fill="none" stroke="#dac767" d="M1044.08,-2843.92C1153.67,-2810.14 1173.27,-2796.23 1336.34,-2640.62"/>
<polygon fill="#dac767" stroke="#dac767" points="1338.3,-2643.58 1343.12,-2634.14 1333.47,-2638.52 1338.3,-2643.58"/>
</g>
<!-- 3026 -->
<g id="node8" class="node">
<title>3026</title>
<text text-anchor="middle" x="844.28" y="-2972.95" font-family="Times,serif" font-size="14.00">$TEXT</text>
</g>
<!-- 3026&#45;&gt;3025 -->
<g id="edge17" class="edge">
<title>3026&#45;&gt;3025</title>
<path fill="none" stroke="#dac767" d="M872.73,-2966.35C907.62,-2951.17 923.5,-2938.3 988.39,-2877.91"/>
<polygon fill="#dac767" stroke="#dac767" points="990.52,-2880.72 995.45,-2871.34 985.74,-2875.6 990.52,-2880.72"/>
</g>
<!-- 3027 -->
<g id="node9" class="node">
<title>3027</title>
<text text-anchor="middle" x="1913.8" y="-2890.22" font-family="Times,serif" font-size="14.00">https://git.kernel.org/pub/scm/docs/man&#45;pages/man&#45;pages.git/tree/man2/set_mempolicy.2#n5</text>
</g>
<!-- 3027&#45;&gt;3020 -->
<g id="edge18" class="edge">
<title>3027&#45;&gt;3020</title>
<path fill="none" stroke="#dac767" d="M1749.36,-2877.35C1631.68,-2856.32 1579.8,-2810.42 1411.14,-2641.13"/>
<polygon fill="#dac767" stroke="#dac767" points="1413.62,-2638.66 1404.08,-2634.04 1408.66,-2643.6 1413.62,-2638.66"/>
</g>
<!-- 20395 -->
<g id="node15" class="node">
<title>20395</title>
<ellipse fill="none" stroke="#deb256" cx="2425.4" cy="-2557.02" rx="157.15" ry="28.99"/>
<text text-anchor="middle" x="2425.4" y="-2560.22" font-family="Times,serif" font-size="14.00" fill="gray">ScancodeData</text>
<text text-anchor="middle" x="2425.4" y="-2543.72" font-family="Times,serif" font-size="14.00" fill="gray">ceda2ce0db8318d2cbef08ddce65185c</text>
</g>
<!-- 3027&#45;&gt;20395 -->
<g id="edge19" class="edge">
<title>3027&#45;&gt;20395</title>
<path fill="none" stroke="#deb256" d="M2008.02,-2877.33C2210.52,-2836.86 2240.21,-2809.01 2397.38,-2595.21"/>
<polygon fill="#deb256" stroke="#deb256" points="2400,-2597.56 2403.1,-2587.43 2394.36,-2593.42 2400,-2597.56"/>
</g>
<!-- 6668 -->
<g id="node10" class="node">
<title>6668</title>
<text text-anchor="middle" x="1107.85" y="-323.85" font-family="Times,serif" font-size="14.00">[&quot;allowed&#45;documentation&quot;]</text>
</g>
<!-- 8913 -->
<g id="node12" class="node">
<title>8913</title>
<ellipse fill="none" stroke="#e09d4b" cx="1282.29" cy="-771.39" rx="159.81" ry="28.99"/>
<text text-anchor="middle" x="1282.29" y="-774.59" font-family="Times,serif" font-size="14.00" fill="gray">FedoraEntry</text>
<text text-anchor="middle" x="1282.29" y="-758.09" font-family="Times,serif" font-size="14.00" fill="gray">ec151664b48b4bda39883f6301972ebc</text>
</g>
<!-- 6668&#45;&gt;8913 -->
<g id="edge20" class="edge">
<title>6668&#45;&gt;8913</title>
<path fill="none" stroke="#e09d4b" d="M1114.16,-346.63C1154.1,-458.64 1161.01,-476.14 1266.05,-731.86"/>
<polygon fill="#e09d4b" stroke="#e09d4b" points="1262.7,-732.91 1269.73,-740.83 1269.17,-730.25 1262.7,-732.91"/>
</g>
<!-- 6669 -->
<g id="node11" class="node">
<title>6669</title>
<text text-anchor="start" x="897.32" y="-13.78" font-family="Times,serif" font-size="14.00">Fedora: </text>
<text text-anchor="start" x="942.32" y="-13.78" font-family="Times,serif" font-weight="bold" font-size="14.00" fill="#000000">allowed&#45;documentation</text>
</g>
<!-- 6669&#45;&gt;6668 -->
<g id="edge21" class="edge">
<title>6669&#45;&gt;6668</title>
<path fill="none" stroke="#e09d4b" d="M993.93,-35.48C1020.1,-109.38 1026.25,-125.16 1096.42,-300.38"/>
<polygon fill="#e09d4b" stroke="#e09d4b" points="1093.17,-301.66 1100.13,-309.64 1099.66,-299.05 1093.17,-301.66"/>
</g>
<!-- 8913&#45;&gt;8914 -->
<g id="edge22" class="edge">
<title>8913&#45;&gt;8914</title>
<path fill="none" stroke="#e09d4b" d="M1292.13,-800.6C1339.66,-941.43 1349.93,-966.28 1493.81,-1301.46"/>
<polygon fill="#e09d4b" stroke="#e09d4b" points="1490.57,-1302.78 1497.73,-1310.59 1497,-1300.02 1490.57,-1302.78"/>
</g>
<!-- 12439 -->
<g id="node14" class="node">
<title>12439</title>
<text text-anchor="middle" x="2515.57" y="-2974.73" font-family="Times,serif" font-size="14.00">LicenseType Copyleft Limited</text>
</g>
<!-- 12439&#45;&gt;20395 -->
<g id="edge23" class="edge">
<title>12439&#45;&gt;20395</title>
<path fill="none" stroke="#deb256" d="M2516.04,-2962.09C2519.04,-2845.56 2515.65,-2828.81 2438.77,-2597.26"/>
<polygon fill="#deb256" stroke="#deb256" points="2442.12,-2596.25 2435.65,-2587.86 2435.48,-2598.46 2442.12,-2596.25"/>
</g>
<!-- 20395&#45;&gt;20396 -->
<g id="edge24" class="edge">
<title>20395&#45;&gt;20396</title>
<path fill="none" stroke="#deb256" d="M2429.21,-2527.73C2454.95,-2327.66 2449.24,-2305.74 2304.64,-1942.64"/>
<polygon fill="#deb256" stroke="#deb256" points="2307.94,-1941.47 2300.99,-1933.47 2301.44,-1944.06 2307.94,-1941.47"/>
</g>
<!-- 20396&#45;&gt;3021 -->
<g id="edge25" class="edge">
<title>20396&#45;&gt;3021</title>
<path fill="none" stroke="#00876c" stroke-width="2" d="M2116.27,-1919.08C2018.53,-1926.81 1898.07,-1937.6 1804.8,-1947.02"/>
<polygon fill="#00876c" stroke="#00876c" stroke-width="2" points="1796.28,-1947.89 1805.77,-1942.4 1798.78,-1947.13 1806.18,-1946.38 1806.23,-1946.88 1806.28,-1947.38 1798.88,-1948.13 1806.68,-1951.36 1796.28,-1947.89"/>
</g>
<!-- 20396&#45;&gt;51297 -->
<g id="edge26" class="edge">
<title>20396&#45;&gt;51297</title>
<path fill="none" stroke="#379469" stroke-dasharray="5,2" d="M2282.02,-1932.12C2281.97,-1932.22 2281.91,-1932.32 2281.86,-1932.42"/>
<polygon fill="#379469" stroke="#379469" points="2277.02,-1939.42 2279,-1928.64 2279.17,-1936.31 2282.71,-1931.19 2282.71,-1931.19 2282.71,-1931.19 2279.17,-1936.31 2286.41,-1933.75 2277.02,-1939.42"/>
</g>
<!-- 51300 -->
<g id="node28" class="node">
<title>51300</title>
<polygon fill="none" stroke="#379469" points="3057.63,-1939.99 3057.63,-1954.9 2920.25,-1965.44 2725.97,-1965.44 2588.6,-1954.9 2588.6,-1939.99 2725.97,-1929.44 2920.25,-1929.44 3057.63,-1939.99"/>
<text text-anchor="middle" x="2823.11" y="-1942.39" font-family="Times,serif" font-size="14.00">metaeffekt:Linux man&#45;pages (with authors care clause)</text>
</g>
<!-- 20396&#45;&gt;51300 -->
<g id="edge27" class="edge">
<title>20396&#45;&gt;51300</title>
<path fill="none" stroke="#379469" stroke-dasharray="5,2" d="M2408.46,-1927.23C2481.49,-1938.1 2534.78,-1945.66 2577.21,-1950.54"/>
<polygon fill="#379469" stroke="#379469" points="2587.12,-1951.64 2576.68,-1955.01 2583.36,-1951.22 2577.18,-1950.53 2577.18,-1950.53 2577.18,-1950.53 2583.36,-1951.22 2577.68,-1946.06 2587.12,-1951.64"/>
</g>
<!-- 20397 -->
<g id="node17" class="node">
<title>20397</title>
<polygon fill="none" stroke="black" points="2413.74,-1426.8 2413.74,-1441.71 2347.43,-1452.26 2253.66,-1452.26 2187.35,-1441.71 2187.35,-1426.8 2253.66,-1416.26 2347.43,-1416.26 2413.74,-1426.8"/>
<polygon fill="none" stroke="black" points="2417.74,-1423.39 2417.74,-1445.13 2347.75,-1456.26 2253.34,-1456.26 2183.35,-1445.13 2183.35,-1423.39 2253.34,-1412.26 2347.75,-1412.26 2417.74,-1423.39"/>
<text text-anchor="middle" x="2300.55" y="-1429.21" font-family="Times,serif" font-size="14.00">Linux man&#45;pages Variant</text>
</g>
<!-- 20397&#45;&gt;20396 -->
<g id="edge28" class="edge">
<title>20397&#45;&gt;20396</title>
<path fill="none" stroke="#deb256" stroke-width="2" d="M2308.73,-1456.74C2386.33,-1670.38 2387.6,-1687.52 2305.5,-1877.36"/>
<polygon fill="#deb256" stroke="#deb256" stroke-width="2" points="2302.11,-1885.18 2301.96,-1874.22 2302.67,-1882.63 2305.63,-1875.81 2306.09,-1876.01 2306.54,-1876.21 2303.59,-1883.03 2310.22,-1877.8 2302.11,-1885.18"/>
</g>
<!-- 67718 -->
<g id="node32" class="node">
<title>67718</title>
<polygon fill="none" stroke="#00876c" points="2016.35,-1456.53 2016.35,-1471.44 1927,-1481.98 1800.64,-1481.98 1711.29,-1471.44 1711.29,-1456.53 1800.64,-1445.98 1927,-1445.98 2016.35,-1456.53"/>
<polygon fill="none" stroke="#00876c" points="2020.35,-1452.97 2020.35,-1474.99 1927.23,-1485.98 1800.41,-1485.98 1707.29,-1474.99 1707.29,-1452.97 1800.41,-1441.98 1927.23,-1441.98 2020.35,-1452.97"/>
<text text-anchor="middle" x="1863.82" y="-1458.93" font-family="Times,serif" font-size="14.00">scancode:Linux man&#45;pages Variant</text>
</g>
<!-- 20397&#45;&gt;67718 -->
<g id="edge29" class="edge">
<title>20397&#45;&gt;67718</title>
<path fill="none" stroke="#00876c" stroke-width="2" d="M2183.01,-1423.93C2137.87,-1423.75 2087.25,-1429.83 1984.75,-1445.32"/>
<polygon fill="#00876c" stroke="#00876c" stroke-width="2" points="1976.08,-1446.64 1985.29,-1440.69 1978.54,-1445.76 1985.89,-1444.64 1985.96,-1445.14 1986.04,-1445.63 1978.69,-1446.75 1986.64,-1449.59 1976.08,-1446.64"/>
</g>
<!-- 20398 -->
<g id="node18" class="node">
<title>20398</title>
<text text-anchor="middle" x="2690.75" y="-2796.06" font-family="Times,serif" font-size="14.00">$TEXT</text>
</g>
<!-- 20398&#45;&gt;20395 -->
<g id="edge30" class="edge">
<title>20398&#45;&gt;20395</title>
<path fill="none" stroke="#deb256" d="M2667.56,-2783.33C2607.65,-2737.16 2589.46,-2720.17 2462.49,-2593.92"/>
<polygon fill="#deb256" stroke="#deb256" points="2465,-2591.48 2455.45,-2586.92 2460.07,-2596.45 2465,-2591.48"/>
</g>
<!-- 35433 -->
<g id="node19" class="node">
<title>35433</title>
<text text-anchor="middle" x="468.17" y="-1546.97" font-family="Times,serif" font-size="14.00">LicenseTag (ScopedLicenseTag &quot;OrtLicenseCategorization&quot; &quot;include&#45;in&#45;notice&#45;file&quot; NoLicenseTagText)</text>
</g>
<!-- 39693 -->
<g id="node22" class="node">
<title>39693</title>
<ellipse fill="none" stroke="#d43d51" cx="1082.72" cy="-1843.85" rx="161.4" ry="28.99"/>
<text text-anchor="middle" x="1082.72" y="-1847.05" font-family="Times,serif" font-size="14.00" fill="gray">OrtLicenseCategorization</text>
<text text-anchor="middle" x="1082.72" y="-1830.55" font-family="Times,serif" font-size="14.00" fill="gray">36778b00c7396a9d2ddc98b3e980e523</text>
</g>
<!-- 35433&#45;&gt;39693 -->
<g id="edge31" class="edge">
<title>35433&#45;&gt;39693</title>
<path fill="none" stroke="#d43d51" d="M487.57,-1569.99C628.4,-1700.27 653.79,-1714.96 987.61,-1815.36"/>
<polygon fill="#d43d51" stroke="#d43d51" points="986.56,-1818.7 997.15,-1818.22 988.58,-1811.99 986.56,-1818.7"/>
</g>
<!-- 35444 -->
<g id="node20" class="node">
<title>35444</title>
<text text-anchor="middle" x="344.07" y="-1884.62" font-family="Times,serif" font-size="14.00">LicenseTag (ScopedLicenseTag &quot;OrtLicenseCategorization&quot; &quot;include&#45;source&#45;code&#45;offer&#45;in&#45;notice&#45;file&quot; NoLicenseTagText)</text>
</g>
<!-- 35444&#45;&gt;39693 -->
<g id="edge32" class="edge">
<title>35444&#45;&gt;39693</title>
<path fill="none" stroke="#d43d51" d="M688.38,-1888.98C750.1,-1883.1 828.38,-1874.15 936.55,-1861.32"/>
<polygon fill="#d43d51" stroke="#d43d51" points="936.78,-1864.81 946.3,-1860.16 935.95,-1857.86 936.78,-1864.81"/>
</g>
<!-- 35459 -->
<g id="node21" class="node">
<title>35459</title>
<text text-anchor="middle" x="854.14" y="-1780.6" font-family="Times,serif" font-size="14.00">LicenseTag (ScopedLicenseTag &quot;OrtLicenseCategorization&quot; &quot;copyleft&#45;limited&quot; NoLicenseTagText)</text>
</g>
<!-- 35459&#45;&gt;39693 -->
<g id="edge33" class="edge">
<title>35459&#45;&gt;39693</title>
<path fill="none" stroke="#d43d51" d="M883.85,-1803.51C901.95,-1813.84 916.34,-1820.26 936.45,-1825.18"/>
<polygon fill="#d43d51" stroke="#d43d51" points="935.53,-1828.57 946.05,-1827.31 937.05,-1821.73 935.53,-1828.57"/>
</g>
<!-- 39693&#45;&gt;3021 -->
<g id="edge34" class="edge">
<title>39693&#45;&gt;3021</title>
<path fill="none" stroke="#d43d51" d="M1123.12,-1872.25C1253.08,-1962.91 1295.37,-1980.8 1479,-1974.82"/>
<polygon fill="#d43d51" stroke="#d43d51" points="1479.05,-1978.32 1488.92,-1974.48 1478.81,-1971.33 1479.05,-1978.32"/>
</g>
<!-- 41863 -->
<g id="node23" class="node">
<title>41863</title>
<ellipse fill="none" stroke="#379469" cx="2016.08" cy="-1325.28" rx="157.68" ry="28.99"/>
<text text-anchor="middle" x="2016.08" y="-1328.48" font-family="Times,serif" font-size="14.00" fill="gray">CavilLicenseChange</text>
<text text-anchor="middle" x="2016.08" y="-1311.98" font-family="Times,serif" font-size="14.00" fill="gray">44f88e6839fc689784b98c458eee2203</text>
</g>
<!-- 41863&#45;&gt;41864 -->
<g id="edge35" class="edge">
<title>41863&#45;&gt;41864</title>
<path fill="none" stroke="#379469" d="M1871.48,-1313.46C1797.16,-1316.2 1739.81,-1344.26 1586.59,-1428.42"/>
<polygon fill="#379469" stroke="#379469" points="1585.24,-1425.16 1578.16,-1433.05 1588.61,-1431.3 1585.24,-1425.16"/>
</g>
<!-- 51296 -->
<g id="node25" class="node">
<title>51296</title>
<ellipse fill="none" stroke="#379469" cx="2609.71" cy="-2249.08" rx="158.22" ry="28.99"/>
<text text-anchor="middle" x="2609.71" y="-2252.28" font-family="Times,serif" font-size="14.00" fill="gray">MetaeffektLicense</text>
<text text-anchor="middle" x="2609.71" y="-2235.78" font-family="Times,serif" font-size="14.00" fill="gray">1a4aa88021b5f7ddd13995ec9920661f</text>
</g>
<!-- 51296&#45;&gt;51297 -->
<g id="edge36" class="edge">
<title>51296&#45;&gt;51297</title>
<path fill="none" stroke="#379469" d="M2576.14,-2220.44C2503.68,-2158.86 2475.48,-2137.48 2278.94,-1991.75"/>
<polygon fill="#379469" stroke="#379469" points="2281.09,-1988.99 2270.98,-1985.85 2276.92,-1994.61 2281.09,-1988.99"/>
</g>
<!-- 51298 -->
<g id="node27" class="node">
<title>51298</title>
<polygon fill="none" stroke="#379469" points="2762.35,-1992.46 2762.35,-2007.37 2714.21,-2017.92 2646.13,-2017.92 2598,-2007.37 2598,-1992.46 2646.13,-1981.92 2714.21,-1981.92 2762.35,-1992.46"/>
<polygon fill="none" stroke="#379469" points="2766.35,-1989.24 2766.35,-2010.59 2714.64,-2021.92 2645.7,-2021.92 2594,-2010.59 2594,-1989.24 2645.7,-1977.92 2714.64,-1977.92 2766.35,-1989.24"/>
<text text-anchor="middle" x="2680.17" y="-1994.87" font-family="Times,serif" font-size="14.00">Linux man&#45;pages</text>
</g>
<!-- 51298&#45;&gt;51297 -->
<g id="edge37" class="edge">
<title>51298&#45;&gt;51297</title>
<path fill="none" stroke="#379469" stroke-width="2" d="M2593.74,-2010.24C2533.32,-2014.7 2484.17,-2008.17 2341.82,-1981.8"/>
<polygon fill="#379469" stroke="#379469" stroke-width="2" points="2333.35,-1980.22 2344.01,-1977.63 2335.96,-1980.2 2343.28,-1981.56 2343.19,-1982.05 2343.09,-1982.54 2335.78,-1981.18 2342.36,-1986.47 2333.35,-1980.22"/>
</g>
<!-- 51298&#45;&gt;51300 -->
<g id="edge38" class="edge">
<title>51298&#45;&gt;51300</title>
<path fill="none" stroke="#379469" stroke-dasharray="5,2" d="M2755.26,-1986.32C2771.32,-1982.46 2781.63,-1978.35 2791.8,-1971.93"/>
<polygon fill="#379469" stroke="#379469" points="2799.84,-1966.35 2794.19,-1975.75 2796.74,-1968.51 2791.63,-1972.05 2791.63,-1972.05 2791.63,-1972.05 2796.74,-1968.51 2789.06,-1968.36 2799.84,-1966.35"/>
</g>
<!-- 51305 -->
<g id="node29" class="node">
<title>51305</title>
<polygon fill="none" stroke="#379469" points="3349.32,-2092.28 3349.32,-2107.19 3238.56,-2117.74 3081.91,-2117.74 2971.14,-2107.19 2971.14,-2092.28 3081.91,-2081.74 3238.56,-2081.74 3349.32,-2092.28"/>
<text text-anchor="middle" x="3160.23" y="-2094.69" font-family="Times,serif" font-size="14.00">metaeffekt:Linux man&#45;pages (2 paragraphs)</text>
</g>
<!-- 51298&#45;&gt;51305 -->
<g id="edge39" class="edge">
<title>51298&#45;&gt;51305</title>
<path fill="none" stroke="#379469" stroke-dasharray="5,2" d="M2744.27,-2015.85C2907.77,-2056.47 2975.41,-2072.81 3034.16,-2082.96"/>
<polygon fill="#379469" stroke="#379469" points="3043.85,-2084.58 3033.24,-2087.37 3040.12,-2083.96 3033.98,-2082.93 3033.98,-2082.93 3033.98,-2082.93 3040.12,-2083.96 3034.73,-2078.49 3043.85,-2084.58"/>
</g>
<!-- 51308 -->
<g id="node30" class="node">
<title>51308</title>
<polygon fill="none" stroke="#379469" points="3319.77,-1815.8 3319.77,-1830.71 3211.28,-1841.25 3057.84,-1841.25 2949.35,-1830.71 2949.35,-1815.8 3057.84,-1805.25 3211.28,-1805.25 3319.77,-1815.8"/>
<text text-anchor="middle" x="3134.56" y="-1818.2" font-family="Times,serif" font-size="14.00">metaeffekt:Linux man&#45;pages (1 paragraph)</text>
</g>
<!-- 51298&#45;&gt;51308 -->
<g id="edge40" class="edge">
<title>51298&#45;&gt;51308</title>
<path fill="none" stroke="#379469" stroke-dasharray="5,2" d="M2751.14,-1985.54C2980.22,-1938.81 3008.88,-1927.84 3104.1,-1848.8"/>
<polygon fill="#379469" stroke="#379469" points="3111.66,-1842.5 3106.86,-1852.35 3108.76,-1844.92 3103.98,-1848.9 3103.98,-1848.9 3103.98,-1848.9 3108.76,-1844.92 3101.1,-1845.44 3111.66,-1842.5"/>
</g>
<!-- 67717 -->
<g id="node31" class="node">
<title>67717</title>
<ellipse fill="none" stroke="#00876c" cx="1230.06" cy="-2177.41" rx="153.97" ry="28.99"/>
<text text-anchor="middle" x="1230.06" y="-2180.61" font-family="Times,serif" font-size="14.00" fill="gray">LicenseLynx</text>
<text text-anchor="middle" x="1230.06" y="-2164.11" font-family="Times,serif" font-size="14.00" fill="gray">0a19cfefd4c01411dabffe6bcb6b48d5</text>
</g>
<!-- 67717&#45;&gt;3021 -->
<g id="edge41" class="edge">
<title>67717&#45;&gt;3021</title>
<path fill="none" stroke="#00876c" d="M1348.99,-2158.61C1416.73,-2141.18 1467.3,-2106.33 1610.82,-1999.37"/>
<polygon fill="#00876c" stroke="#00876c" points="1612.82,-2002.25 1618.74,-1993.46 1608.63,-1996.63 1612.82,-2002.25"/>
</g>
<!-- 67718&#45;&gt;3021 -->
<g id="edge42" class="edge">
<title>67718&#45;&gt;3021</title>
<path fill="none" stroke="#00876c" stroke-width="2" d="M1861.41,-1486.14C1829.66,-1777.01 1824.07,-1801.7 1690.05,-1932.5"/>
<polygon fill="#00876c" stroke="#00876c" stroke-width="2" points="1684.06,-1938.34 1688.08,-1928.14 1685.55,-1936.19 1690.87,-1931 1691.22,-1931.36 1691.57,-1931.72 1686.24,-1936.91 1694.36,-1934.59 1684.06,-1938.34"/>
</g>
<!-- 67719&#45;&gt;3021 -->
<g id="edge43" class="edge">
<title>67719&#45;&gt;3021</title>
<path fill="none" stroke="#00876c" stroke-width="2" d="M2003.83,-1831.18C1928.38,-1908.22 1894.95,-1938.18 1830.96,-1951.89"/>
<polygon fill="#00876c" stroke="#00876c" stroke-width="2" points="1822.37,-1953.57 1831.32,-1947.24 1824.79,-1952.59 1832.09,-1951.16 1832.19,-1951.65 1832.28,-1952.14 1824.98,-1953.57 1833.05,-1956.07 1822.37,-1953.57"/>
</g>
</g>
</svg>
