<?xml version="1.0" encoding="UTF-8" standalone="no"?>
<!DOCTYPE svg PUBLIC "-//W3C//DTD SVG 1.1//EN"
 "http://www.w3.org/Graphics/SVG/1.1/DTD/svg11.dtd">
<!-- Generated by graphviz version 10.0.1 (0)
 -->
<!-- Pages: 1 -->
<svg width="4556pt" height="3116pt"
 viewBox="0.00 0.00 4556.00 3116.00" xmlns="http://www.w3.org/2000/svg" xmlns:xlink="http://www.w3.org/1999/xlink">
<g id="graph0" class="graph" transform="scale(1 1) rotate(0) translate(4 3112)">
<polygon fill="white" stroke="none" points="-4,4 -4,-3112 4552,-3112 4552,4 -4,4"/>
<!-- 5 -->
<g id="node1" class="node">
<title>5</title>
<text text-anchor="start" x="2729.25" y="-277.77" font-family="Times,serif" font-size="14.00">OSI: </text>
<text text-anchor="start" x="2758.5" y="-277.77" font-family="Times,serif" font-weight="bold" font-size="14.00" fill="#8b0000">Rejected</text>
</g>
<!-- 2896 -->
<g id="node3" class="node">
<title>2896</title>
<ellipse fill="none" stroke="#dac767" cx="2839.88" cy="-650.49" rx="157.15" ry="28.99"/>
<text text-anchor="middle" x="2839.88" y="-653.69" font-family="Times,serif" font-size="14.00" fill="gray">SPDXLicense</text>
<text text-anchor="middle" x="2839.88" y="-637.19" font-family="Times,serif" font-size="14.00" fill="gray">bb4d8452c5ccf1d273e1288e3a1abbf2</text>
</g>
<!-- 5&#45;&gt;2896 -->
<g id="edge1" class="edge">
<title>5&#45;&gt;2896</title>
<path fill="none" stroke="#dac767" d="M2779.44,-299.7C2833.86,-393.39 2837.26,-410.33 2839.45,-609.8"/>
<polygon fill="#dac767" stroke="#dac767" points="2835.95,-609.84 2839.56,-619.8 2842.95,-609.76 2835.95,-609.84"/>
</g>
<!-- 57 -->
<g id="node2" class="node">
<title>57</title>
<text text-anchor="start" x="2804.03" y="-1126.88" font-family="Times,serif" font-size="14.00">FSF: </text>
<text text-anchor="start" x="2834.03" y="-1126.88" font-family="Times,serif" font-weight="bold" font-size="14.00" fill="#228b22">Libre</text>
</g>
<!-- 57&#45;&gt;2896 -->
<g id="edge2" class="edge">
<title>57&#45;&gt;2896</title>
<path fill="none" stroke="#dac767" d="M2838.78,-1113.36C2894.34,-843.51 2898.31,-817.12 2854.06,-690.38"/>
<polygon fill="#dac767" stroke="#dac767" points="2857.48,-689.55 2850.86,-681.28 2850.88,-691.88 2857.48,-689.55"/>
</g>
<!-- 11694 -->
<g id="node17" class="node">
<title>11694</title>
<ellipse fill="none" stroke="#deb256" cx="2867.78" cy="-1636" rx="161.4" ry="28.99"/>
<text text-anchor="middle" x="2867.78" y="-1639.2" font-family="Times,serif" font-size="14.00" fill="gray">FSF</text>
<text text-anchor="middle" x="2867.78" y="-1622.7" font-family="Times,serif" font-size="14.00" fill="gray">85466b953204905e8b192a83e60296ec</text>
</g>
<!-- 57&#45;&gt;11694 -->
<g id="edge3" class="edge">
<title>57&#45;&gt;11694</title>
<path fill="none" stroke="#deb256" d="M2844.21,-1148.8C2943.1,-1344.35 2946.28,-1361.18 2879.35,-1595.66"/>
<polygon fill="#deb256" stroke="#deb256" points="2876.01,-1594.59 2876.63,-1605.17 2882.74,-1596.52 2876.01,-1594.59"/>
</g>
<!-- 2897 -->
<g id="node4" class="node">
<title>2897</title>
<polygon fill="none" stroke="black" points="2865.92,-1270.88 2865.92,-1285.79 2823.3,-1296.33 2763.03,-1296.33 2720.41,-1285.79 2720.41,-1270.88 2763.03,-1260.33 2823.3,-1260.33 2865.92,-1270.88"/>
<polygon fill="none" stroke="black" points="2869.92,-1267.75 2869.92,-1288.92 2823.79,-1300.33 2762.54,-1300.33 2716.41,-1288.92 2716.41,-1267.75 2762.54,-1256.33 2823.79,-1256.33 2869.92,-1267.75"/>
<polygon fill="none" stroke="black" points="2873.92,-1264.62 2873.92,-1292.05 2824.28,-1304.33 2762.06,-1304.33 2712.41,-1292.05 2712.41,-1264.62 2762.06,-1252.33 2824.28,-1252.33 2873.92,-1264.62"/>
<text text-anchor="middle" x="2793.17" y="-1273.28" font-family="Times,serif" font-size="14.00">spdx:LPPL&#45;1.2</text>
</g>
<!-- 2896&#45;&gt;2897 -->
<g id="edge4" class="edge">
<title>2896&#45;&gt;2897</title>
<path fill="none" stroke="#dac767" d="M2848.09,-679.91C2899.77,-866.23 2897,-889.22 2803.16,-1240.91"/>
<polygon fill="#dac767" stroke="#dac767" points="2799.8,-1239.92 2800.61,-1250.48 2806.57,-1241.72 2799.8,-1239.92"/>
</g>
<!-- 7815 -->
<g id="node15" class="node">
<title>7815</title>
<polygon fill="none" stroke="#e09d4b" points="3284.33,-1567.61 3284.33,-1582.52 3236.51,-1593.06 3168.9,-1593.06 3121.09,-1582.52 3121.09,-1567.61 3168.9,-1557.06 3236.51,-1557.06 3284.33,-1567.61"/>
<polygon fill="none" stroke="#e09d4b" points="3288.33,-1564.39 3288.33,-1585.73 3236.95,-1597.06 3168.46,-1597.06 3117.09,-1585.73 3117.09,-1564.39 3168.46,-1553.06 3236.95,-1553.06 3288.33,-1564.39"/>
<text text-anchor="middle" x="3202.71" y="-1570.01" font-family="Times,serif" font-size="14.00">Fedora:LPPL&#45;1.2</text>
</g>
<!-- 2897&#45;&gt;7815 -->
<g id="edge5" class="edge">
<title>2897&#45;&gt;7815</title>
<path fill="none" stroke="#e09d4b" stroke-width="2" d="M2843.62,-1300.05C3079.59,-1401.84 3101.59,-1417.06 3182.63,-1543.49"/>
<polygon fill="#e09d4b" stroke="#e09d4b" stroke-width="2" points="3187.26,-1550.74 3178.08,-1544.74 3185.45,-1548.85 3181.45,-1542.58 3181.87,-1542.31 3182.29,-1542.04 3186.3,-1548.31 3185.66,-1539.89 3187.26,-1550.74"/>
</g>
<!-- 11695 -->
<g id="node18" class="node">
<title>11695</title>
<polygon fill="none" stroke="#deb256" points="2776.39,-1534.57 2776.39,-1549.48 2738.64,-1560.02 2685.25,-1560.02 2647.5,-1549.48 2647.5,-1534.57 2685.25,-1524.02 2738.64,-1524.02 2776.39,-1534.57"/>
<polygon fill="none" stroke="#deb256" points="2780.39,-1531.53 2780.39,-1552.51 2739.19,-1564.02 2684.7,-1564.02 2643.5,-1552.51 2643.5,-1531.53 2684.7,-1520.02 2739.19,-1520.02 2780.39,-1531.53"/>
<text text-anchor="middle" x="2711.95" y="-1536.97" font-family="Times,serif" font-size="14.00">fsf:LPPL&#45;1.2</text>
</g>
<!-- 2897&#45;&gt;11695 -->
<g id="edge6" class="edge">
<title>2897&#45;&gt;11695</title>
<path fill="none" stroke="#deb256" stroke-dasharray="5,2" d="M2795.89,-1304.68C2804.03,-1387.73 2798.8,-1404 2731.8,-1510.58"/>
<polygon fill="#deb256" stroke="#deb256" points="2726.65,-1518.75 2728.17,-1507.89 2728.67,-1515.55 2731.98,-1510.29 2731.98,-1510.29 2731.98,-1510.29 2728.67,-1515.55 2735.79,-1512.69 2726.65,-1518.75"/>
</g>
<!-- 20521 -->
<g id="node23" class="node">
<title>20521</title>
<polygon fill="none" stroke="black" points="3067.73,-990.16 3067.73,-1005.07 3019.27,-1015.62 2950.73,-1015.62 2902.27,-1005.07 2902.27,-990.16 2950.73,-979.62 3019.27,-979.62 3067.73,-990.16"/>
<polygon fill="none" stroke="black" points="3071.73,-986.94 3071.73,-1008.29 3019.7,-1019.62 2950.3,-1019.62 2898.27,-1008.29 2898.27,-986.94 2950.3,-975.62 3019.7,-975.62 3071.73,-986.94"/>
<text text-anchor="middle" x="2985" y="-992.57" font-family="Times,serif" font-size="14.00">scancode:lppl&#45;1.2</text>
</g>
<!-- 2897&#45;&gt;20521 -->
<g id="edge7" class="edge">
<title>2897&#45;&gt;20521</title>
<path fill="none" stroke="#deb256" stroke-width="2" d="M2816.34,-1252.03C2855.7,-1200.22 2934.22,-1085.34 2968.53,-1029.39"/>
<polygon fill="#deb256" stroke="#deb256" stroke-width="2" points="2972.95,-1022.07 2971.63,-1032.95 2972.05,-1024.52 2968.21,-1030.89 2967.78,-1030.63 2967.35,-1030.37 2971.2,-1024 2963.93,-1028.3 2972.95,-1022.07"/>
</g>
<!-- 51598 -->
<g id="node45" class="node">
<title>51598</title>
<polygon fill="none" stroke="#379469" points="2674.11,-1291.06 2674.11,-1305.98 2560.09,-1316.52 2398.86,-1316.52 2284.84,-1305.98 2284.84,-1291.06 2398.86,-1280.52 2560.09,-1280.52 2674.11,-1291.06"/>
<polygon fill="none" stroke="#379469" points="2678.11,-1287.42 2678.11,-1309.62 2560.28,-1320.52 2398.67,-1320.52 2280.84,-1309.62 2280.84,-1287.42 2398.67,-1276.52 2560.28,-1276.52 2678.11,-1287.42"/>
<text text-anchor="middle" x="2479.47" y="-1293.47" font-family="Times,serif" font-size="14.00">metaeffekt:LaTeX Project Public License 1.2</text>
</g>
<!-- 2897&#45;&gt;51598 -->
<g id="edge8" class="edge">
<title>2897&#45;&gt;51598</title>
<path fill="none" stroke="#379469" stroke-width="2" d="M2720.57,-1262.19C2684.67,-1257.2 2652.88,-1260.61 2584.73,-1275.01"/>
<polygon fill="#379469" stroke="#379469" stroke-width="2" points="2576.32,-1276.81 2585.16,-1270.32 2578.72,-1275.78 2586,-1274.23 2586.1,-1274.72 2586.2,-1275.21 2578.93,-1276.76 2587.04,-1279.12 2576.32,-1276.81"/>
</g>
<!-- 2898 -->
<g id="node5" class="node">
<title>2898</title>
<polygon fill="none" stroke="black" points="3041.79,-1373.88 3041.79,-1388.79 3011.83,-1399.33 2969.45,-1399.33 2939.49,-1388.79 2939.49,-1373.88 2969.45,-1363.33 3011.83,-1363.33 3041.79,-1373.88"/>
<polygon fill="none" stroke="black" points="3045.79,-1371.04 3045.79,-1391.62 3012.51,-1403.33 2968.77,-1403.33 2935.49,-1391.62 2935.49,-1371.04 2968.77,-1359.33 3012.51,-1359.33 3045.79,-1371.04"/>
<text text-anchor="middle" x="2990.64" y="-1376.28" font-family="Times,serif" font-size="14.00">LPPL&#45;1.2</text>
</g>
<!-- 2898&#45;&gt;2897 -->
<g id="edge9" class="edge">
<title>2898&#45;&gt;2897</title>
<path fill="none" stroke="black" stroke-width="2" d="M2971.33,-1358.95C2941.98,-1325.86 2925.8,-1314.98 2870.18,-1298.85"/>
<polygon fill="black" stroke="black" stroke-width="2" points="2862.06,-1296.55 2872.91,-1294.95 2864.67,-1296.76 2871.82,-1298.79 2871.68,-1299.28 2871.55,-1299.76 2864.39,-1297.73 2870.45,-1303.6 2862.06,-1296.55"/>
</g>
<!-- 2898&#45;&gt;7815 -->
<g id="edge10" class="edge">
<title>2898&#45;&gt;7815</title>
<path fill="none" stroke="#e09d4b" stroke-width="2" d="M3023.55,-1399.83C3137.56,-1464.11 3154.52,-1477.49 3187.14,-1542.91"/>
<polygon fill="#e09d4b" stroke="#e09d4b" stroke-width="2" points="3191.01,-1550.77 3182.55,-1543.78 3189.43,-1548.69 3186.14,-1542.02 3186.59,-1541.8 3187.04,-1541.58 3190.32,-1548.25 3190.63,-1539.81 3191.01,-1550.77"/>
</g>
<!-- 2898&#45;&gt;11695 -->
<g id="edge11" class="edge">
<title>2898&#45;&gt;11695</title>
<path fill="none" stroke="#deb256" stroke-width="2" d="M2967.03,-1403.04C2917.87,-1447.53 2896.14,-1459.58 2763.21,-1519.12"/>
<polygon fill="#deb256" stroke="#deb256" stroke-width="2" points="2755.24,-1522.69 2762.53,-1514.5 2757.38,-1521.18 2764.17,-1518.15 2764.37,-1518.6 2764.58,-1519.06 2757.79,-1522.1 2766.21,-1522.71 2755.24,-1522.69"/>
</g>
<!-- 2898&#45;&gt;20521 -->
<g id="edge12" class="edge">
<title>2898&#45;&gt;20521</title>
<path fill="none" stroke="black" stroke-width="2" d="M2997.13,-1358.86C3051.57,-1170.08 3053.74,-1151.17 2999.66,-1030.09"/>
<polygon fill="black" stroke="black" stroke-width="2" points="2996.14,-1022.25 3004.34,-1029.53 2997.64,-1024.38 3000.69,-1031.17 3000.23,-1031.37 2999.78,-1031.58 2996.73,-1024.79 2996.13,-1033.21 2996.14,-1022.25"/>
</g>
<!-- 33638 -->
<g id="node29" class="node">
<title>33638</title>
<polygon fill="none" stroke="#e18745" points="3488.99,-1156.77 3488.99,-1171.69 3434.69,-1182.23 3357.9,-1182.23 3303.6,-1171.69 3303.6,-1156.77 3357.9,-1146.23 3434.69,-1146.23 3488.99,-1156.77"/>
<polygon fill="none" stroke="#e18745" points="3492.99,-1153.48 3492.99,-1174.98 3435.08,-1186.23 3357.51,-1186.23 3299.6,-1174.98 3299.6,-1153.48 3357.51,-1142.23 3435.08,-1142.23 3492.99,-1153.48"/>
<text text-anchor="middle" x="3396.29" y="-1159.18" font-family="Times,serif" font-size="14.00">fossology:LPPL&#45;1.2</text>
</g>
<!-- 2898&#45;&gt;33638 -->
<g id="edge13" class="edge">
<title>2898&#45;&gt;33638</title>
<path fill="none" stroke="#e18745" stroke-width="2" d="M3027.33,-1364.24C3246.42,-1262.15 3280.37,-1245.44 3355.73,-1192.9"/>
<polygon fill="#e18745" stroke="#e18745" stroke-width="2" points="3362.65,-1188.06 3357.04,-1197.48 3360.84,-1189.94 3354.75,-1194.2 3354.46,-1193.79 3354.17,-1193.38 3360.26,-1189.12 3351.88,-1190.11 3362.65,-1188.06"/>
</g>
<!-- 41880 -->
<g id="node42" class="node">
<title>41880</title>
<polygon fill="none" stroke="#379469" points="3272.5,-1735.54 3272.5,-1750.46 3229.55,-1761 3168.82,-1761 3125.88,-1750.46 3125.88,-1735.54 3168.82,-1725 3229.55,-1725 3272.5,-1735.54"/>
<polygon fill="none" stroke="#379469" points="3276.5,-1732.41 3276.5,-1753.59 3230.04,-1765 3168.34,-1765 3121.88,-1753.59 3121.88,-1732.41 3168.34,-1721 3230.04,-1721 3276.5,-1732.41"/>
<text text-anchor="middle" x="3199.19" y="-1737.95" font-family="Times,serif" font-size="14.00">cavil:LPPL&#45;1.2</text>
</g>
<!-- 2898&#45;&gt;41880 -->
<g id="edge14" class="edge">
<title>2898&#45;&gt;41880</title>
<path fill="none" stroke="#379469" stroke-width="2" d="M3013.32,-1403.28C3167.18,-1552.39 3178.4,-1568.86 3195.32,-1709.9"/>
<polygon fill="#379469" stroke="#379469" stroke-width="2" points="3196.32,-1718.31 3190.67,-1708.91 3195.52,-1715.83 3194.64,-1708.44 3195.14,-1708.38 3195.64,-1708.32 3196.51,-1715.71 3199.61,-1707.85 3196.32,-1718.31"/>
</g>
<!-- 2898&#45;&gt;51598 -->
<g id="edge15" class="edge">
<title>2898&#45;&gt;51598</title>
<path fill="none" stroke="#379469" stroke-dasharray="5,2" d="M2956.29,-1363.35C2863.21,-1315.11 2824.38,-1301.67 2689.53,-1298.69"/>
<polygon fill="#379469" stroke="#379469" points="2679.57,-1298.49 2689.66,-1294.19 2683.35,-1298.56 2689.57,-1298.69 2689.57,-1298.69 2689.57,-1298.69 2683.35,-1298.56 2689.48,-1303.19 2679.57,-1298.49"/>
</g>
<!-- 2899 -->
<g id="node6" class="node">
<title>2899</title>
<polygon fill="none" stroke="black" points="3129.33,-1047.45 3129.33,-1062.36 3039.33,-1072.9 2912.06,-1072.9 2822.06,-1062.36 2822.06,-1047.45 2912.06,-1036.9 3039.33,-1036.9 3129.33,-1047.45"/>
<polygon fill="none" stroke="black" points="3133.33,-1043.89 3133.33,-1065.92 3039.57,-1076.9 2911.82,-1076.9 2818.06,-1065.92 2818.06,-1043.89 2911.82,-1032.9 3039.57,-1032.9 3133.33,-1043.89"/>
<text text-anchor="middle" x="2975.69" y="-1049.85" font-family="Times,serif" font-size="14.00">LaTeX Project Public License v1.2</text>
</g>
<!-- 2899&#45;&gt;2897 -->
<g id="edge16" class="edge">
<title>2899&#45;&gt;2897</title>
<path fill="none" stroke="#dac767" stroke-width="2" d="M2963.86,-1077.26C2934.82,-1131.37 2921.59,-1147.23 2826.63,-1244.22"/>
<polygon fill="#dac767" stroke="#dac767" stroke-width="2" points="2820.74,-1250.22 2824.52,-1239.93 2822.18,-1248.04 2827.38,-1242.73 2827.74,-1243.08 2828.1,-1243.43 2822.89,-1248.74 2830.95,-1246.23 2820.74,-1250.22"/>
</g>
<!-- 2899&#45;&gt;20521 -->
<g id="edge17" class="edge">
<title>2899&#45;&gt;20521</title>
<path fill="none" stroke="#deb256" stroke-width="2" d="M2984.2,-1032.52C2984.42,-1031.88 2984.63,-1031.26 2984.82,-1030.66"/>
<polygon fill="#deb256" stroke="#deb256" stroke-width="2" points="2986.88,-1022.43 2988.82,-1033.22 2986.74,-1025.04 2984.94,-1032.25 2984.46,-1032.13 2983.97,-1032.01 2985.77,-1024.79 2980.09,-1031.04 2986.88,-1022.43"/>
</g>
<!-- 2899&#45;&gt;33638 -->
<g id="edge18" class="edge">
<title>2899&#45;&gt;33638</title>
<path fill="none" stroke="#e18745" stroke-width="2" d="M3133.78,-1065.03C3250.41,-1074.67 3284.84,-1087.95 3354.97,-1135.52"/>
<polygon fill="#e18745" stroke="#e18745" stroke-width="2" points="3362.16,-1140.44 3351.37,-1138.51 3359.76,-1139.41 3353.63,-1135.21 3353.91,-1134.8 3354.19,-1134.39 3360.33,-1138.58 3356.45,-1131.08 3362.16,-1140.44"/>
</g>
<!-- 2899&#45;&gt;51598 -->
<g id="edge19" class="edge">
<title>2899&#45;&gt;51598</title>
<path fill="none" stroke="#379469" stroke-dasharray="5,2" d="M2907.11,-1076.77C2810.12,-1108.98 2764.31,-1134 2527.92,-1270.53"/>
<polygon fill="#379469" stroke="#379469" points="2519.4,-1275.45 2525.81,-1266.55 2522.67,-1273.56 2528.06,-1270.45 2528.06,-1270.45 2528.06,-1270.45 2522.67,-1273.56 2530.31,-1274.35 2519.4,-1275.45"/>
</g>
<!-- 67665 -->
<g id="node49" class="node">
<title>67665</title>
<polygon fill="none" stroke="#00876c" points="3401.51,-1100.7 3401.51,-1115.61 3298.86,-1126.16 3153.68,-1126.16 3051.03,-1115.61 3051.03,-1100.7 3153.68,-1090.16 3298.86,-1090.16 3401.51,-1100.7"/>
<polygon fill="none" stroke="#00876c" points="3405.51,-1097.09 3405.51,-1119.22 3299.06,-1130.16 3153.48,-1130.16 3047.03,-1119.22 3047.03,-1097.09 3153.48,-1086.16 3299.06,-1086.16 3405.51,-1097.09"/>
<text text-anchor="middle" x="3226.27" y="-1103.11" font-family="Times,serif" font-size="14.00">spdx:LaTeX Project Public License v1.2</text>
</g>
<!-- 2899&#45;&gt;67665 -->
<g id="edge20" class="edge">
<title>2899&#45;&gt;67665</title>
<path fill="none" stroke="#00876c" stroke-width="2" d="M3133.61,-1062.31C3151.13,-1065.96 3165.13,-1071.56 3181,-1080.25"/>
<polygon fill="#00876c" stroke="#00876c" stroke-width="2" points="3188.49,-1084.52 3177.58,-1083.47 3186.02,-1083.69 3179.56,-1080 3179.81,-1079.56 3180.06,-1079.13 3186.51,-1082.82 3182.04,-1075.66 3188.49,-1084.52"/>
</g>
<!-- 2900 -->
<g id="node7" class="node">
<title>2900</title>
<text text-anchor="middle" x="2895.64" y="-168.22" font-family="Times,serif" font-size="14.00">SPDXLicense:</text>
<text text-anchor="middle" x="2895.64" y="-151.72" font-family="Times,serif" font-size="14.00">This license was released 3 Sept 1999.</text>
</g>
<!-- 2900&#45;&gt;2896 -->
<g id="edge21" class="edge">
<title>2900&#45;&gt;2896</title>
<path fill="none" stroke="#dac767" d="M2897.83,-185.14C2911.91,-315.56 2909.68,-334.28 2848.77,-610.22"/>
<polygon fill="#dac767" stroke="#dac767" points="2845.36,-609.42 2846.63,-619.94 2852.2,-610.93 2845.36,-609.42"/>
</g>
<!-- 2901 -->
<g id="node8" class="node">
<title>2901</title>
<text text-anchor="middle" x="2604.05" y="-243.74" font-family="Times,serif" font-size="14.00">$TEXT</text>
</g>
<!-- 2901&#45;&gt;2896 -->
<g id="edge22" class="edge">
<title>2901&#45;&gt;2896</title>
<path fill="none" stroke="#dac767" d="M2627.81,-266.62C2750.54,-359.13 2760.74,-377.26 2828.29,-610.4"/>
<polygon fill="#dac767" stroke="#dac767" points="2824.88,-611.22 2831.03,-619.85 2831.61,-609.27 2824.88,-611.22"/>
</g>
<!-- 2902 -->
<g id="node9" class="node">
<title>2902</title>
<text text-anchor="middle" x="2490.65" y="-12.62" font-family="Times,serif" font-size="14.00">$TEXT</text>
</g>
<!-- 2902&#45;&gt;2901 -->
<g id="edge23" class="edge">
<title>2902&#45;&gt;2901</title>
<path fill="none" stroke="#dac767" d="M2508.63,-35.38C2554.21,-80.98 2560.98,-97.02 2595.91,-220.03"/>
<polygon fill="#dac767" stroke="#dac767" points="2592.53,-220.93 2598.62,-229.6 2599.26,-219.02 2592.53,-220.93"/>
</g>
<!-- 2903 -->
<g id="node10" class="node">
<title>2903</title>
<text text-anchor="middle" x="3394.66" y="-557.97" font-family="Times,serif" font-size="14.00">http://www.latex&#45;project.org/lppl/lppl&#45;1&#45;2.txt</text>
</g>
<!-- 2903&#45;&gt;2896 -->
<g id="edge24" class="edge">
<title>2903&#45;&gt;2896</title>
<path fill="none" stroke="#dac767" d="M3297.08,-545.04C3191.62,-529.33 3137.07,-543.42 2922.71,-620.53"/>
<polygon fill="#dac767" stroke="#dac767" points="2921.69,-617.17 2913.47,-623.86 2924.06,-623.76 2921.69,-617.17"/>
</g>
<!-- 20520 -->
<g id="node22" class="node">
<title>20520</title>
<ellipse fill="none" stroke="#deb256" cx="3381.99" cy="-490.57" rx="155.56" ry="28.99"/>
<text text-anchor="middle" x="3381.99" y="-493.77" font-family="Times,serif" font-size="14.00" fill="gray">ScancodeData</text>
<text text-anchor="middle" x="3381.99" y="-477.27" font-family="Times,serif" font-size="14.00" fill="gray">46349af0dbffd426c1d86a7ece184e51</text>
</g>
<!-- 2903&#45;&gt;20520 -->
<g id="edge25" class="edge">
<title>2903&#45;&gt;20520</title>
<path fill="none" stroke="#deb256" d="M3396.32,-545.26C3396.8,-539.55 3397.1,-534.84 3397.17,-530.78"/>
<polygon fill="#deb256" stroke="#deb256" points="3400.68,-530.9 3396.58,-521.13 3393.69,-531.33 3400.68,-530.9"/>
</g>
<!-- 33637 -->
<g id="node28" class="node">
<title>33637</title>
<ellipse fill="none" stroke="#e18745" cx="3840.8" cy="-847.56" rx="155.56" ry="28.99"/>
<text text-anchor="middle" x="3840.8" y="-850.76" font-family="Times,serif" font-size="14.00" fill="gray">Fossology</text>
<text text-anchor="middle" x="3840.8" y="-834.26" font-family="Times,serif" font-size="14.00" fill="gray">0d2bd48893fe83181ef84fe256640cfd</text>
</g>
<!-- 2903&#45;&gt;33637 -->
<g id="edge26" class="edge">
<title>2903&#45;&gt;33637</title>
<path fill="none" stroke="#e18745" d="M3459.66,-580.92C3689.32,-644.71 3714.45,-661.25 3814.75,-808.94"/>
<polygon fill="#e18745" stroke="#e18745" points="3811.8,-810.82 3820.31,-817.14 3817.6,-806.9 3811.8,-810.82"/>
</g>
<!-- 5758 -->
<g id="node11" class="node">
<title>5758</title>
<text text-anchor="middle" x="3616.96" y="-103.82" font-family="Times,serif" font-size="14.00">LicenseType Copyleft</text>
</g>
<!-- 5758&#45;&gt;20520 -->
<g id="edge27" class="edge">
<title>5758&#45;&gt;20520</title>
<path fill="none" stroke="#deb256" d="M3609.29,-126.57C3564.34,-230.12 3554.38,-246.43 3409.07,-452.24"/>
<polygon fill="#deb256" stroke="#deb256" points="3406.28,-450.12 3403.37,-460.31 3412,-454.16 3406.28,-450.12"/>
</g>
<!-- 6640 -->
<g id="node12" class="node">
<title>6640</title>
<text text-anchor="middle" x="4014.87" y="-2210.77" font-family="Times,serif" font-size="14.00">[&quot;not&#45;allowed&quot;]</text>
</g>
<!-- 7814 -->
<g id="node14" class="node">
<title>7814</title>
<ellipse fill="none" stroke="#e09d4b" cx="3646.38" cy="-1917.32" rx="158.22" ry="28.99"/>
<text text-anchor="middle" x="3646.38" y="-1920.52" font-family="Times,serif" font-size="14.00" fill="gray">FedoraEntry</text>
<text text-anchor="middle" x="3646.38" y="-1904.02" font-family="Times,serif" font-size="14.00" fill="gray">19c5b9224881bcdf8427a9a828a3f531</text>
</g>
<!-- 6640&#45;&gt;7814 -->
<g id="edge28" class="edge">
<title>6640&#45;&gt;7814</title>
<path fill="none" stroke="#e09d4b" d="M4000.71,-2197.86C3925.8,-2103.13 3908.58,-2088.58 3699.06,-1951.69"/>
<polygon fill="#e09d4b" stroke="#e09d4b" points="3701.14,-1948.87 3690.86,-1946.33 3697.32,-1954.73 3701.14,-1948.87"/>
</g>
<!-- 6641 -->
<g id="node13" class="node">
<title>6641</title>
<text text-anchor="start" x="4294.33" y="-2498.94" font-family="Times,serif" font-size="14.00">Fedora: </text>
<text text-anchor="start" x="4339.33" y="-2498.94" font-family="Times,serif" font-weight="bold" font-size="14.00" fill="#8b0000">not&#45;allowed</text>
<text text-anchor="start" x="4160.83" y="-2484.94" font-family="Times,serif" font-size="14.00">Any license that does not meet the criteria above for allowed licenses</text>
<text text-anchor="start" x="4192.33" y="-2470.94" font-family="Times,serif" font-size="14.00">(including allowed for a specific category) is not&#45;allowed.</text>
</g>
<!-- 6641&#45;&gt;6640 -->
<g id="edge29" class="edge">
<title>6641&#45;&gt;6640</title>
<path fill="none" stroke="#e09d4b" d="M4329.44,-2465.37C4264.59,-2389.6 4243.47,-2373.36 4050.11,-2240.1"/>
<polygon fill="#e09d4b" stroke="#e09d4b" points="4052.23,-2237.31 4042.01,-2234.52 4048.26,-2243.08 4052.23,-2237.31"/>
</g>
<!-- 7814&#45;&gt;7815 -->
<g id="edge30" class="edge">
<title>7814&#45;&gt;7815</title>
<path fill="none" stroke="#e09d4b" d="M3625.26,-1888.43C3538.54,-1770.54 3515.16,-1753.5 3250.59,-1602.39"/>
<polygon fill="#e09d4b" stroke="#e09d4b" points="3252.41,-1599.39 3241.99,-1597.48 3248.94,-1605.47 3252.41,-1599.39"/>
</g>
<!-- 7823 -->
<g id="node16" class="node">
<title>7823</title>
<polygon fill="none" stroke="black" points="2071.78,-1311.96 2071.78,-1326.88 2051.23,-1337.42 2022.16,-1337.42 2001.61,-1326.88 2001.61,-1311.96 2022.16,-1301.42 2051.23,-1301.42 2071.78,-1311.96"/>
<text text-anchor="middle" x="2036.69" y="-1314.37" font-family="Times,serif" font-size="14.00">LPPL</text>
</g>
<!-- 7823&#45;&gt;51598 -->
<g id="edge31" class="edge">
<title>7823&#45;&gt;51598</title>
<path fill="none" stroke="#379469" stroke-dasharray="5,2" d="M2063.33,-1307.22C2227.71,-1232.09 2256.48,-1224.58 2403.25,-1272.69"/>
<polygon fill="#379469" stroke="#379469" points="2412.4,-1275.71 2401.5,-1276.85 2408.81,-1274.53 2402.91,-1272.58 2402.91,-1272.58 2402.91,-1272.58 2408.81,-1274.53 2404.32,-1268.3 2412.4,-1275.71"/>
</g>
<!-- 11694&#45;&gt;11695 -->
<g id="edge32" class="edge">
<title>11694&#45;&gt;11695</title>
<path fill="none" stroke="#deb256" d="M2839.44,-1607.22C2823.02,-1592.66 2806.12,-1583.44 2764.44,-1564.91"/>
<polygon fill="#deb256" stroke="#deb256" points="2765.87,-1561.72 2755.31,-1560.88 2763.04,-1568.12 2765.87,-1561.72"/>
</g>
<!-- 11696 -->
<g id="node19" class="node">
<title>11696</title>
<polygon fill="none" stroke="black" points="2511.31,-1765.32 2511.31,-1780.23 2424.23,-1790.77 2301.09,-1790.77 2214.01,-1780.23 2214.01,-1765.32 2301.09,-1754.77 2424.23,-1754.77 2511.31,-1765.32"/>
<polygon fill="none" stroke="black" points="2515.31,-1761.77 2515.31,-1783.77 2424.48,-1794.77 2300.85,-1794.77 2210.01,-1783.77 2210.01,-1761.77 2300.85,-1750.77 2424.48,-1750.77 2515.31,-1761.77"/>
<text text-anchor="middle" x="2362.66" y="-1767.72" font-family="Times,serif" font-size="14.00">LaTeX Project Public License 1.2</text>
</g>
<!-- 11696&#45;&gt;11695 -->
<g id="edge33" class="edge">
<title>11696&#45;&gt;11695</title>
<path fill="none" stroke="#deb256" stroke-width="2" d="M2427.94,-1750.77C2599.88,-1692.21 2621.63,-1676.71 2690.9,-1573.64"/>
<polygon fill="#deb256" stroke="#deb256" stroke-width="2" points="2695.73,-1566.43 2693.91,-1577.24 2694.72,-1568.83 2690.59,-1575.01 2690.17,-1574.74 2689.76,-1574.46 2693.89,-1568.28 2686.43,-1572.23 2695.73,-1566.43"/>
</g>
<!-- 11696&#45;&gt;51598 -->
<g id="edge34" class="edge">
<title>11696&#45;&gt;51598</title>
<path fill="none" stroke="#379469" stroke-width="2" d="M2376.56,-1750.47C2510.4,-1535.5 2516.53,-1517.98 2485.14,-1331.8"/>
<polygon fill="#379469" stroke="#379469" stroke-width="2" points="2483.68,-1323.16 2489.79,-1332.27 2484.6,-1325.6 2485.84,-1332.94 2485.35,-1333.02 2484.86,-1333.1 2483.62,-1325.77 2480.91,-1333.77 2483.68,-1323.16"/>
</g>
<!-- 11697 -->
<g id="node20" class="node">
<title>11697</title>
<text text-anchor="middle" x="2894.61" y="-2174.09" font-family="Times,serif" font-size="14.00">https://www.gnu.org/licenses/license&#45;list.html#LPPL&#45;1.2</text>
</g>
<!-- 11697&#45;&gt;11694 -->
<g id="edge35" class="edge">
<title>11697&#45;&gt;11694</title>
<path fill="none" stroke="#deb256" d="M2901.26,-2161.22C2971.85,-1970.8 2972.25,-1954.21 2880.98,-1676.13"/>
<polygon fill="#deb256" stroke="#deb256" points="2884.33,-1675.12 2877.89,-1666.71 2877.68,-1677.3 2884.33,-1675.12"/>
</g>
<!-- 11698 -->
<g id="node21" class="node">
<title>11698</title>
<text text-anchor="middle" x="2876.67" y="-1687.94" font-family="Times,serif" font-size="14.00">http://directory.fsf.org/wiki/License:LPPLv1.2</text>
</g>
<!-- 11698&#45;&gt;11694 -->
<g id="edge36" class="edge">
<title>11698&#45;&gt;11694</title>
<path fill="none" stroke="#deb256" d="M2880.71,-1675.34C2880.73,-1675.22 2880.74,-1675.11 2880.76,-1674.99"/>
<polygon fill="#deb256" stroke="#deb256" points="2884.29,-1676.55 2880.6,-1666.62 2877.29,-1676.69 2884.29,-1676.55"/>
</g>
<!-- 20520&#45;&gt;20521 -->
<g id="edge37" class="edge">
<title>20520&#45;&gt;20521</title>
<path fill="none" stroke="#deb256" d="M3364.18,-519.77C3281.43,-655.04 3262.77,-677.86 3011.9,-966.65"/>
<polygon fill="#deb256" stroke="#deb256" points="3009.32,-964.29 3005.4,-974.13 3014.6,-968.88 3009.32,-964.29"/>
</g>
<!-- 20521&#45;&gt;2897 -->
<g id="edge38" class="edge">
<title>20521&#45;&gt;2897</title>
<path fill="none" stroke="#00876c" stroke-width="2" d="M2965,-1019.77C2927.69,-1068.24 2848.51,-1183.78 2812.06,-1242.63"/>
<polygon fill="#00876c" stroke="#00876c" stroke-width="2" points="2807.65,-1249.84 2809.03,-1238.96 2808.56,-1247.39 2812.44,-1241.04 2812.87,-1241.3 2813.3,-1241.57 2809.42,-1247.91 2816.71,-1243.65 2807.65,-1249.84"/>
</g>
<!-- 20521&#45;&gt;51598 -->
<g id="edge39" class="edge">
<title>20521&#45;&gt;51598</title>
<path fill="none" stroke="#379469" stroke-dasharray="5,2" d="M2939.79,-1017.58C2822.81,-1069.71 2789.23,-1090.95 2522.1,-1269.95"/>
<polygon fill="#379469" stroke="#379469" points="2513.91,-1275.44 2519.72,-1266.13 2517.06,-1273.33 2522.22,-1269.87 2522.22,-1269.87 2522.22,-1269.87 2517.06,-1273.33 2524.73,-1273.61 2513.91,-1275.44"/>
</g>
<!-- 20522 -->
<g id="node24" class="node">
<title>20522</title>
<polygon fill="none" stroke="black" points="2714.96,-935.23 2714.96,-950.14 2685.65,-960.69 2644.19,-960.69 2614.88,-950.14 2614.88,-935.23 2644.19,-924.69 2685.65,-924.69 2714.96,-935.23"/>
<polygon fill="none" stroke="black" points="2718.96,-932.42 2718.96,-952.95 2686.35,-964.69 2643.49,-964.69 2610.88,-952.95 2610.88,-932.42 2643.49,-920.69 2686.35,-920.69 2718.96,-932.42"/>
<text text-anchor="middle" x="2664.92" y="-937.64" font-family="Times,serif" font-size="14.00">LPPL 1.2</text>
</g>
<!-- 20522&#45;&gt;20521 -->
<g id="edge40" class="edge">
<title>20522&#45;&gt;20521</title>
<path fill="none" stroke="#deb256" stroke-width="2" d="M2719.31,-937.51C2846.32,-925.86 2873.9,-928.62 2941.07,-969.66"/>
<polygon fill="#deb256" stroke="#deb256" stroke-width="2" points="2948.3,-974.14 2937.43,-972.7 2945.86,-973.21 2939.54,-969.3 2939.8,-968.87 2940.06,-968.45 2946.39,-972.36 2942.17,-965.05 2948.3,-974.14"/>
</g>
<!-- 20522&#45;&gt;51598 -->
<g id="edge41" class="edge">
<title>20522&#45;&gt;51598</title>
<path fill="none" stroke="#379469" stroke-dasharray="5,2" d="M2655.47,-965.02C2618.86,-1051.3 2608.8,-1070.13 2497.43,-1266.82"/>
<polygon fill="#379469" stroke="#379469" points="2492.65,-1275.26 2493.66,-1264.34 2494.51,-1271.97 2497.58,-1266.56 2497.58,-1266.56 2497.58,-1266.56 2494.51,-1271.97 2501.49,-1268.77 2492.65,-1275.26"/>
</g>
<!-- 67664 -->
<g id="node48" class="node">
<title>67664</title>
<polygon fill="none" stroke="#00876c" points="2599.54,-1084.48 2599.54,-1099.39 2547.19,-1109.94 2473.15,-1109.94 2420.79,-1099.39 2420.79,-1084.48 2473.15,-1073.94 2547.19,-1073.94 2599.54,-1084.48"/>
<polygon fill="none" stroke="#00876c" points="2603.54,-1081.21 2603.54,-1102.67 2547.59,-1113.94 2472.75,-1113.94 2416.79,-1102.67 2416.79,-1081.21 2472.75,-1069.94 2547.59,-1069.94 2603.54,-1081.21"/>
<text text-anchor="middle" x="2510.17" y="-1086.89" font-family="Times,serif" font-size="14.00">scancode:LPPL 1.2</text>
</g>
<!-- 20522&#45;&gt;67664 -->
<g id="edge42" class="edge">
<title>20522&#45;&gt;67664</title>
<path fill="none" stroke="#00876c" stroke-width="2" d="M2636.12,-962.48C2608.95,-982.11 2593.1,-998.59 2537.28,-1061.38"/>
<polygon fill="#00876c" stroke="#00876c" stroke-width="2" points="2531.51,-1067.88 2534.78,-1057.41 2532.84,-1065.63 2537.77,-1060.07 2538.15,-1060.4 2538.52,-1060.73 2533.58,-1066.29 2541.51,-1063.39 2531.51,-1067.88"/>
</g>
<!-- 20523 -->
<g id="node25" class="node">
<title>20523</title>
<text text-anchor="middle" x="3815.2" y="-195.61" font-family="Times,serif" font-size="14.00">http://www.latex&#45;project.org/lppl/lppl&#45;1&#45;2.txt</text>
</g>
<!-- 20523&#45;&gt;20520 -->
<g id="edge43" class="edge">
<title>20523&#45;&gt;20520</title>
<path fill="none" stroke="#deb256" d="M3781.68,-218.63C3680.2,-273.31 3653.36,-291.75 3429.7,-455.61"/>
<polygon fill="#deb256" stroke="#deb256" points="3427.85,-452.63 3421.85,-461.36 3431.99,-458.27 3427.85,-452.63"/>
</g>
<!-- 20524 -->
<g id="node26" class="node">
<title>20524</title>
<text text-anchor="middle" x="3619.52" y="-253.43" font-family="Times,serif" font-size="14.00">ScancodeData:</text>
<text text-anchor="middle" x="3619.52" y="-236.93" font-family="Times,serif" font-size="14.00">Per SPDX.org, this license was released 3 Sept 1999.</text>
</g>
<!-- 20524&#45;&gt;20520 -->
<g id="edge44" class="edge">
<title>20524&#45;&gt;20520</title>
<path fill="none" stroke="#deb256" d="M3600.07,-270.53C3552.3,-320.37 3535.38,-337.44 3418.82,-453.81"/>
<polygon fill="#deb256" stroke="#deb256" points="3416.67,-451.01 3412.07,-460.55 3421.62,-455.96 3416.67,-451.01"/>
</g>
<!-- 20525 -->
<g id="node27" class="node">
<title>20525</title>
<text text-anchor="middle" x="3432.71" y="-108.26" font-family="Times,serif" font-size="14.00">$TEXT</text>
</g>
<!-- 20525&#45;&gt;20520 -->
<g id="edge45" class="edge">
<title>20525&#45;&gt;20520</title>
<path fill="none" stroke="#deb256" d="M3436.16,-131.07C3456.93,-239.05 3455.18,-255.27 3394.51,-450.4"/>
<polygon fill="#deb256" stroke="#deb256" points="3391.18,-449.32 3391.55,-459.91 3397.87,-451.4 3391.18,-449.32"/>
</g>
<!-- 33637&#45;&gt;33638 -->
<g id="edge46" class="edge">
<title>33637&#45;&gt;33638</title>
<path fill="none" stroke="#e18745" d="M3811.05,-876.24C3722.16,-961.39 3693.92,-980.46 3441.86,-1136.11"/>
<polygon fill="#e18745" stroke="#e18745" points="3440.37,-1132.91 3433.7,-1141.14 3444.05,-1138.87 3440.37,-1132.91"/>
</g>
<!-- 33639 -->
<g id="node30" class="node">
<title>33639</title>
<text text-anchor="middle" x="4340.88" y="-860.82" font-family="Times,serif" font-size="14.00">Fossology:</text>
<text text-anchor="middle" x="4340.88" y="-844.32" font-family="Times,serif" font-size="14.00">This license was released 3 Sept 1999.</text>
</g>
<!-- 33639&#45;&gt;33637 -->
<g id="edge47" class="edge">
<title>33639&#45;&gt;33637</title>
<path fill="none" stroke="#e18745" d="M4258.6,-837.17C4189.12,-822.21 4139.35,-821.97 3993.23,-834.11"/>
<polygon fill="#e18745" stroke="#e18745" points="3993.26,-830.59 3983.58,-834.91 3993.84,-837.57 3993.26,-830.59"/>
</g>
<!-- 33640 -->
<g id="node31" class="node">
<title>33640</title>
<text text-anchor="middle" x="4205.07" y="-707.81" font-family="Times,serif" font-size="14.00">$TEXT</text>
</g>
<!-- 33640&#45;&gt;33637 -->
<g id="edge48" class="edge">
<title>33640&#45;&gt;33637</title>
<path fill="none" stroke="#e18745" d="M4176.45,-722.13C4102.59,-746.13 4076.78,-755.58 3919.27,-816.96"/>
<polygon fill="#e18745" stroke="#e18745" points="3918.15,-813.64 3910.11,-820.53 3920.7,-820.16 3918.15,-813.64"/>
</g>
<!-- 35433 -->
<g id="node32" class="node">
<title>35433</title>
<text text-anchor="middle" x="2156.5" y="-931.24" font-family="Times,serif" font-size="14.00">LicenseTag (ScopedLicenseTag &quot;OrtLicenseCategorization&quot; &quot;include&#45;in&#45;notice&#45;file&quot; NoLicenseTagText)</text>
</g>
<!-- 35798 -->
<g id="node35" class="node">
<title>35798</title>
<ellipse fill="none" stroke="#d43d51" cx="2258.29" cy="-991.4" rx="159.28" ry="28.99"/>
<text text-anchor="middle" x="2258.29" y="-994.6" font-family="Times,serif" font-size="14.00" fill="gray">OrtLicenseCategorization</text>
<text text-anchor="middle" x="2258.29" y="-978.1" font-family="Times,serif" font-size="14.00" fill="gray">59453f40d65546e4902de6b015f940e5</text>
</g>
<!-- 35433&#45;&gt;35798 -->
<g id="edge49" class="edge">
<title>35433&#45;&gt;35798</title>
<path fill="none" stroke="#d43d51" d="M2216.95,-954.17C2217.44,-954.55 2217.94,-954.93 2218.44,-955.32"/>
<polygon fill="#d43d51" stroke="#d43d51" points="2216.08,-957.91 2226.01,-961.62 2220.56,-952.53 2216.08,-957.91"/>
</g>
<!-- 35443 -->
<g id="node33" class="node">
<title>35443</title>
<text text-anchor="middle" x="1745.24" y="-588.73" font-family="Times,serif" font-size="14.00">LicenseTag (ScopedLicenseTag &quot;OrtLicenseCategorization&quot; &quot;copyleft&quot; NoLicenseTagText)</text>
</g>
<!-- 35443&#45;&gt;35798 -->
<g id="edge50" class="edge">
<title>35443&#45;&gt;35798</title>
<path fill="none" stroke="#d43d51" d="M1794.66,-611.69C1952.96,-669.96 1980.99,-695.09 2223.72,-954.44"/>
<polygon fill="#d43d51" stroke="#d43d51" points="2220.92,-956.56 2230.3,-961.48 2226.03,-951.78 2220.92,-956.56"/>
</g>
<!-- 35444 -->
<g id="node34" class="node">
<title>35444</title>
<text text-anchor="middle" x="1533.86" y="-773.36" font-family="Times,serif" font-size="14.00">LicenseTag (ScopedLicenseTag &quot;OrtLicenseCategorization&quot; &quot;include&#45;source&#45;code&#45;offer&#45;in&#45;notice&#45;file&quot; NoLicenseTagText)</text>
</g>
<!-- 35444&#45;&gt;35798 -->
<g id="edge51" class="edge">
<title>35444&#45;&gt;35798</title>
<path fill="none" stroke="#d43d51" d="M1871.15,-796.34C1946.97,-823.42 2040.7,-872.96 2197.3,-958.17"/>
<polygon fill="#d43d51" stroke="#d43d51" points="2195.43,-961.13 2205.89,-962.84 2198.78,-954.99 2195.43,-961.13"/>
</g>
<!-- 35798&#45;&gt;2897 -->
<g id="edge52" class="edge">
<title>35798&#45;&gt;2897</title>
<path fill="none" stroke="#d43d51" d="M2390.12,-1007.98C2581.22,-1035.07 2616.28,-1065.42 2764.05,-1243.21"/>
<polygon fill="#d43d51" stroke="#d43d51" points="2761.35,-1245.44 2770.43,-1250.89 2766.74,-1240.97 2761.35,-1245.44"/>
</g>
<!-- 40001 -->
<g id="node36" class="node">
<title>40001</title>
<text text-anchor="middle" x="1936.73" y="-2963.35" font-family="Times,serif" font-size="14.00">LicenseTag (ScopedLicenseTag &quot;OrtLicenseCategorization&quot; &quot;property:include&#45;in&#45;notice&#45;file&quot; (LicenseTagDescription &quot;Whether the license includes a notice obligation or similar which can be fulfilled by adding the relevant copyright notices and the license text into the project/product notice file.&quot;))</text>
</g>
<!-- 40224 -->
<g id="node40" class="node">
<title>40224</title>
<ellipse fill="none" stroke="#e06f45" cx="2568.41" cy="-1860.55" rx="159.81" ry="28.99"/>
<text text-anchor="middle" x="2568.41" y="-1863.75" font-family="Times,serif" font-size="14.00" fill="gray">OrtLicenseCategorization</text>
<text text-anchor="middle" x="2568.41" y="-1847.25" font-family="Times,serif" font-size="14.00" fill="gray">f466080b23b06658660ed0fdc01d1b72</text>
</g>
<!-- 40001&#45;&gt;40224 -->
<g id="edge53" class="edge">
<title>40001&#45;&gt;40224</title>
<path fill="none" stroke="#e06f45" d="M1954.95,-2950.8C2241.38,-2673.93 2252.37,-2653.88 2552.54,-1900.38"/>
<polygon fill="#e06f45" stroke="#e06f45" points="2555.75,-1901.79 2556.2,-1891.2 2549.24,-1899.2 2555.75,-1901.79"/>
</g>
<!-- 40002 -->
<g id="node37" class="node">
<title>40002</title>
<text text-anchor="middle" x="2261.39" y="-3030.58" font-family="Times,serif" font-size="14.00">LicenseTag (ScopedLicenseTag &quot;OrtLicenseCategorization&quot; &quot;include&#45;in&#45;notice&#45;file&quot; (LicenseTagDescription &quot;Same as above, as a temporary work&#45;around for the category name not being configurable in ORT reports, see https://github.com/oss&#45;review&#45;toolkit/ort/issues/8220.&quot;))</text>
</g>
<!-- 40002&#45;&gt;40224 -->
<g id="edge54" class="edge">
<title>40002&#45;&gt;40224</title>
<path fill="none" stroke="#e06f45" d="M2271.04,-3018.11C2449.67,-2693.38 2454.57,-2674.45 2562.73,-1901.13"/>
<polygon fill="#e06f45" stroke="#e06f45" points="2566.16,-1901.86 2564.08,-1891.48 2559.23,-1900.9 2566.16,-1901.86"/>
</g>
<!-- 40006 -->
<g id="node38" class="node">
<title>40006</title>
<text text-anchor="middle" x="2808.81" y="-3085.37" font-family="Times,serif" font-size="14.00">LicenseTag (ScopedLicenseTag &quot;OrtLicenseCategorization&quot; &quot;property:distribute&#45;source&#45;code&quot; (LicenseTagDescription &quot;This property indicates that the license requires that the source code of the OSS is either distributed, or offered to distribute, in connection with the software delivery.&quot;))</text>
</g>
<!-- 40006&#45;&gt;40224 -->
<g id="edge55" class="edge">
<title>40006&#45;&gt;40224</title>
<path fill="none" stroke="#e06f45" d="M2808.01,-3072.59C2791.67,-2709.94 2788.08,-2691.39 2579.13,-1901.1"/>
<polygon fill="#e06f45" stroke="#e06f45" points="2582.52,-1900.23 2576.58,-1891.46 2575.75,-1902.02 2582.52,-1900.23"/>
</g>
<!-- 40011 -->
<g id="node39" class="node">
<title>40011</title>
<text text-anchor="middle" x="1217.82" y="-2907.59" font-family="Times,serif" font-size="14.00">LicenseTag (ScopedLicenseTag &quot;OrtLicenseCategorization&quot; &quot;copyleft&#45;strong&quot; (LicenseTagDescription &quot;Open source license that requires you to license modifications, as well as any code that ends up in the same binary (including static linking and module modifications), as well as other code that is part of the same work, with the same strong copyleft license. Examples: GPL&#45;2.0, GPL&#45;3.0, AGPL&#45;3.0, EUPL&#45;1.0, EUPL&#45;1.1, EUPL&#45;1.2.&quot;))</text>
</g>
<!-- 40011&#45;&gt;40224 -->
<g id="edge56" class="edge">
<title>40011&#45;&gt;40224</title>
<path fill="none" stroke="#e06f45" d="M1262.21,-2894.75C1743.84,-2700.31 1773.22,-2674.8 2532.39,-1897.43"/>
<polygon fill="#e06f45" stroke="#e06f45" points="2534.69,-1900.09 2539.17,-1890.49 2529.68,-1895.2 2534.69,-1900.09"/>
</g>
<!-- 40224&#45;&gt;2897 -->
<g id="edge57" class="edge">
<title>40224&#45;&gt;2897</title>
<path fill="none" stroke="#e06f45" d="M2592.22,-1831.77C2795.71,-1585.66 2804.68,-1565.35 2794.72,-1315.98"/>
<polygon fill="#e06f45" stroke="#e06f45" points="2798.22,-1316.07 2794.32,-1306.22 2791.23,-1316.35 2798.22,-1316.07"/>
</g>
<!-- 41879 -->
<g id="node41" class="node">
<title>41879</title>
<ellipse fill="none" stroke="#379469" cx="3389.2" cy="-2141.9" rx="161.4" ry="28.99"/>
<text text-anchor="middle" x="3389.2" y="-2145.1" font-family="Times,serif" font-size="14.00" fill="gray">CavilLicenseChange</text>
<text text-anchor="middle" x="3389.2" y="-2128.6" font-family="Times,serif" font-size="14.00" fill="gray">78672c000198d1779f2a873008db4d04</text>
</g>
<!-- 41879&#45;&gt;41880 -->
<g id="edge58" class="edge">
<title>41879&#45;&gt;41880</title>
<path fill="none" stroke="#379469" d="M3387.01,-2112.71C3376.66,-1980.11 3366.9,-1961.37 3223.36,-1774.44"/>
<polygon fill="#379469" stroke="#379469" points="3226.21,-1772.41 3217.34,-1766.61 3220.66,-1776.67 3226.21,-1772.41"/>
</g>
<!-- 43136 -->
<g id="node43" class="node">
<title>43136</title>
<text text-anchor="start" x="1141.29" y="-1619.07" font-family="Times,serif" font-size="14.00">CoDEStatus: </text>
<text text-anchor="start" x="1215.54" y="-1619.07" font-family="Times,serif" font-weight="bold" font-size="14.00" fill="#228b22">Approved</text>
<text text-anchor="start" x="993.92" y="-1605.07" font-family="Times,serif" font-size="14.00">Eine Lizenz ist freigegeben, wenn sie nach fachlicher und juristischer Prüfung</text>
<text text-anchor="start" x="975.92" y="-1591.07" font-family="Times,serif" font-size="14.00">seitens Open CoDE sowohl der Open Source Definition (gemäß Definition der Open</text>
<text text-anchor="start" x="1017.92" y="-1577.07" font-family="Times,serif" font-size="14.00">Source Initiative [extern]) entspricht und darüber hinaus keine für die</text>
<text text-anchor="start" x="1020.92" y="-1563.07" font-family="Times,serif" font-size="14.00">Öffentliche Verwaltung erkennbaren Schwierigkeiten birgt. Außer in</text>
<text text-anchor="start" x="1005.92" y="-1549.07" font-family="Times,serif" font-size="14.00">Ausnahmefällen ist nicht zu erwarten, dass einmal freigegebene Lizenzen</text>
<text text-anchor="start" x="1145.79" y="-1535.07" font-family="Times,serif" font-size="14.00">deklassifiziert werden.</text>
</g>
<!-- 51597 -->
<g id="node44" class="node">
<title>51597</title>
<ellipse fill="none" stroke="#379469" cx="1811.69" cy="-1448.36" rx="156.62" ry="28.99"/>
<text text-anchor="middle" x="1811.69" y="-1451.56" font-family="Times,serif" font-size="14.00" fill="gray">MetaeffektLicense</text>
<text text-anchor="middle" x="1811.69" y="-1435.06" font-family="Times,serif" font-size="14.00" fill="gray">418c6f27c8f313fed466139bda396dbe</text>
</g>
<!-- 43136&#45;&gt;51597 -->
<g id="edge59" class="edge">
<title>43136&#45;&gt;51597</title>
<path fill="none" stroke="#379469" d="M1345.99,-1529.42C1415.98,-1507.42 1491.68,-1494.48 1675.8,-1467.83"/>
<polygon fill="#379469" stroke="#379469" points="1676.03,-1471.34 1685.43,-1466.44 1675.03,-1464.41 1676.03,-1471.34"/>
</g>
<!-- 51597&#45;&gt;51598 -->
<g id="edge60" class="edge">
<title>51597&#45;&gt;51598</title>
<path fill="none" stroke="#379469" d="M1850.61,-1419.91C2027.7,-1290.95 2074.17,-1268.55 2298.26,-1283.55"/>
<polygon fill="#379469" stroke="#379469" points="2297.69,-1287.02 2307.91,-1284.21 2298.17,-1280.04 2297.69,-1287.02"/>
</g>
<!-- 51599 -->
<g id="node46" class="node">
<title>51599</title>
<polygon fill="none" stroke="#379469" points="2140.86,-1575.35 2140.86,-1590.26 2090.45,-1600.81 2019.16,-1600.81 1968.75,-1590.26 1968.75,-1575.35 2019.16,-1564.81 2090.45,-1564.81 2140.86,-1575.35"/>
<text text-anchor="middle" x="2054.81" y="-1577.76" font-family="Times,serif" font-size="14.00">LPPL, Version 1.2</text>
</g>
<!-- 51599&#45;&gt;51598 -->
<g id="edge61" class="edge">
<title>51599&#45;&gt;51598</title>
<path fill="none" stroke="#379469" stroke-dasharray="5,2" d="M2070.4,-1564.34C2219.25,-1388.16 2255.28,-1348.88 2365.12,-1321.53"/>
<polygon fill="#379469" stroke="#379469" points="2374.81,-1319.21 2366.13,-1325.92 2371.13,-1320.09 2365.08,-1321.54 2365.08,-1321.54 2365.08,-1321.54 2371.13,-1320.09 2364.03,-1317.17 2374.81,-1319.21"/>
</g>
<!-- 67663 -->
<g id="node47" class="node">
<title>67663</title>
<ellipse fill="none" stroke="#00876c" cx="3227.67" cy="-1382.48" rx="152.38" ry="28.99"/>
<text text-anchor="middle" x="3227.67" y="-1385.68" font-family="Times,serif" font-size="14.00" fill="gray">LicenseLynx</text>
<text text-anchor="middle" x="3227.67" y="-1369.18" font-family="Times,serif" font-size="14.00" fill="gray">fcaf7fbd5eebbfa35b3f7146179b4aa2</text>
</g>
<!-- 67663&#45;&gt;2897 -->
<g id="edge62" class="edge">
<title>67663&#45;&gt;2897</title>
<path fill="none" stroke="#00876c" d="M3179.91,-1354.58C3102.14,-1310.66 3064.94,-1302.52 2885.78,-1286.42"/>
<polygon fill="#00876c" stroke="#00876c" points="2886.12,-1282.94 2875.85,-1285.53 2885.49,-1289.91 2886.12,-1282.94"/>
</g>
<!-- 67664&#45;&gt;2897 -->
<g id="edge63" class="edge">
<title>67664&#45;&gt;2897</title>
<path fill="none" stroke="#00876c" stroke-width="2" d="M2577.32,-1108.43C2688.53,-1136.92 2709.07,-1153.04 2769.52,-1242.8"/>
<polygon fill="#00876c" stroke="#00876c" stroke-width="2" points="2774.34,-1249.99 2765.04,-1244.19 2772.5,-1248.14 2768.36,-1241.96 2768.78,-1241.68 2769.19,-1241.4 2773.33,-1247.58 2772.51,-1239.17 2774.34,-1249.99"/>
</g>
<!-- 67665&#45;&gt;2897 -->
<g id="edge64" class="edge">
<title>67665&#45;&gt;2897</title>
<path fill="none" stroke="#00876c" stroke-width="2" d="M3159.2,-1130.61C3088.49,-1154.84 3042.5,-1173.65 2854.44,-1252.6"/>
<polygon fill="#00876c" stroke="#00876c" stroke-width="2" points="2846.46,-1255.95 2853.94,-1247.93 2848.63,-1254.5 2855.49,-1251.62 2855.68,-1252.08 2855.87,-1252.54 2849.02,-1255.42 2857.42,-1256.23 2846.46,-1255.95"/>
</g>
</g>
</svg>
