<?xml version="1.0" encoding="UTF-8" standalone="no"?>
<!DOCTYPE svg PUBLIC "-//W3C//DTD SVG 1.1//EN"
 "http://www.w3.org/Graphics/SVG/1.1/DTD/svg11.dtd">
<!-- Generated by graphviz version 10.0.1 (0)
 -->
<!-- Pages: 1 -->
<svg width="2580pt" height="2826pt"
 viewBox="0.00 0.00 2580.00 2826.00" xmlns="http://www.w3.org/2000/svg" xmlns:xlink="http://www.w3.org/1999/xlink">
<g id="graph0" class="graph" transform="scale(1 1) rotate(0) translate(4 2822)">
<polygon fill="white" stroke="none" points="-4,4 -4,-2822 2576,-2822 2576,4 -4,4"/>
<!-- 5 -->
<g id="node1" class="node">
<title>5</title>
<text text-anchor="start" x="495.99" y="-2431.42" font-family="Times,serif" font-size="14.00">OSI: </text>
<text text-anchor="start" x="525.24" y="-2431.42" font-family="Times,serif" font-weight="bold" font-size="14.00" fill="#8b0000">Rejected</text>
</g>
<!-- 2930 -->
<g id="node4" class="node">
<title>2930</title>
<ellipse fill="none" stroke="#dac767" cx="572.09" cy="-2078.96" rx="158.22" ry="28.99"/>
<text text-anchor="middle" x="572.09" y="-2082.16" font-family="Times,serif" font-size="14.00" fill="gray">SPDXLicense</text>
<text text-anchor="middle" x="572.09" y="-2065.66" font-family="Times,serif" font-size="14.00" fill="gray">403ce4b29320d5ec1cc1ba35041ccca2</text>
</g>
<!-- 5&#45;&gt;2930 -->
<g id="edge1" class="edge">
<title>5&#45;&gt;2930</title>
<path fill="none" stroke="#dac767" d="M531.6,-2417.5C508.83,-2317.81 510.09,-2301.53 560.79,-2119.44"/>
<polygon fill="#dac767" stroke="#dac767" points="564.15,-2120.38 563.47,-2109.81 557.41,-2118.51 564.15,-2120.38"/>
</g>
<!-- 2928 -->
<g id="node2" class="node">
<title>2928</title>
<text text-anchor="middle" x="217.72" y="-1923.65" font-family="Times,serif" font-size="14.00">https://www.7&#45;zip.org/sdk.html</text>
</g>
<!-- 2928&#45;&gt;2930 -->
<g id="edge2" class="edge">
<title>2928&#45;&gt;2930</title>
<path fill="none" stroke="#dac767" d="M235.03,-1946.7C307.06,-2021.28 332.17,-2041.14 435.07,-2059.14"/>
<polygon fill="#dac767" stroke="#dac767" points="434.35,-2062.57 444.8,-2060.79 435.52,-2055.67 434.35,-2062.57"/>
</g>
<!-- 20632 -->
<g id="node18" class="node">
<title>20632</title>
<ellipse fill="none" stroke="#deb256" cx="436.77" cy="-1600.2" rx="156.09" ry="28.99"/>
<text text-anchor="middle" x="436.77" y="-1603.4" font-family="Times,serif" font-size="14.00" fill="gray">ScancodeData</text>
<text text-anchor="middle" x="436.77" y="-1586.9" font-family="Times,serif" font-size="14.00" fill="gray">8547decbff8696c2a2eb74dac2cc6334</text>
</g>
<!-- 2928&#45;&gt;20632 -->
<g id="edge3" class="edge">
<title>2928&#45;&gt;20632</title>
<path fill="none" stroke="#deb256" d="M222.31,-1911.07C251.31,-1800.15 260.19,-1785.06 401.31,-1637.26"/>
<polygon fill="#deb256" stroke="#deb256" points="403.59,-1639.94 407.97,-1630.29 398.53,-1635.1 403.59,-1639.94"/>
</g>
<!-- 2929 -->
<g id="node3" class="node">
<title>2929</title>
<text text-anchor="middle" x="381.56" y="-1660.73" font-family="Times,serif" font-size="14.00">https://sourceforge.net/projects/sevenzip/files/LZMA%20SDK/</text>
</g>
<!-- 2929&#45;&gt;2930 -->
<g id="edge4" class="edge">
<title>2929&#45;&gt;2930</title>
<path fill="none" stroke="#dac767" d="M382.73,-1683.78C396.7,-1898.34 401.35,-1919.32 533.21,-2042.83"/>
<polygon fill="#dac767" stroke="#dac767" points="530.44,-2045.03 540.13,-2049.3 535.22,-2039.92 530.44,-2045.03"/>
</g>
<!-- 2929&#45;&gt;20632 -->
<g id="edge5" class="edge">
<title>2929&#45;&gt;20632</title>
<path fill="none" stroke="#deb256" d="M389.03,-1647.85C390.93,-1644.07 392.99,-1640.78 395.72,-1637.38"/>
<polygon fill="#deb256" stroke="#deb256" points="398.28,-1639.76 402.52,-1630.05 393.15,-1635 398.28,-1639.76"/>
</g>
<!-- 2931 -->
<g id="node5" class="node">
<title>2931</title>
<polygon fill="none" stroke="black" points="1106.74,-1679.55 1106.74,-1694.46 1044.33,-1705 956.06,-1705 893.65,-1694.46 893.65,-1679.55 956.06,-1669 1044.33,-1669 1106.74,-1679.55"/>
<polygon fill="none" stroke="black" points="1110.74,-1676.17 1110.74,-1697.84 1044.66,-1709 955.73,-1709 889.65,-1697.84 889.65,-1676.17 955.73,-1665 1044.66,-1665 1110.74,-1676.17"/>
<polygon fill="none" stroke="black" points="1114.74,-1672.79 1114.74,-1701.22 1045,-1713 955.39,-1713 885.65,-1701.22 885.65,-1672.79 955.39,-1661 1045,-1661 1114.74,-1672.79"/>
<text text-anchor="middle" x="1000.19" y="-1681.95" font-family="Times,serif" font-size="14.00">spdx:LZMA&#45;SDK&#45;9.22</text>
</g>
<!-- 2930&#45;&gt;2931 -->
<g id="edge6" class="edge">
<title>2930&#45;&gt;2931</title>
<path fill="none" stroke="#dac767" d="M604.24,-2050.2C699.61,-1964.84 726.24,-1940.34 963.55,-1720.89"/>
<polygon fill="#dac767" stroke="#dac767" points="965.64,-1723.73 970.61,-1714.37 960.89,-1718.59 965.64,-1723.73"/>
</g>
<!-- 20633 -->
<g id="node19" class="node">
<title>20633</title>
<polygon fill="none" stroke="black" points="1101.56,-1613.63 1101.56,-1628.54 1037.52,-1639.08 946.96,-1639.08 882.92,-1628.54 882.92,-1613.63 946.96,-1603.08 1037.52,-1603.08 1101.56,-1613.63"/>
<polygon fill="none" stroke="black" points="1105.56,-1610.23 1105.56,-1631.93 1037.85,-1643.08 946.63,-1643.08 878.92,-1631.93 878.92,-1610.23 946.63,-1599.08 1037.85,-1599.08 1105.56,-1610.23"/>
<text text-anchor="middle" x="992.24" y="-1616.03" font-family="Times,serif" font-size="14.00">scancode:lzma&#45;sdk&#45;9.22</text>
</g>
<!-- 2931&#45;&gt;20633 -->
<g id="edge7" class="edge">
<title>2931&#45;&gt;20633</title>
<path fill="none" stroke="#deb256" stroke-width="2" d="M1003.65,-1660.54C1003.49,-1658.5 1003.29,-1656.43 1003.05,-1654.36"/>
<polygon fill="#deb256" stroke="#deb256" stroke-width="2" points="1001.81,-1645.85 1007.71,-1655.1 1002.68,-1648.32 1003.75,-1655.67 1003.25,-1655.75 1002.76,-1655.82 1001.69,-1648.46 998.8,-1656.4 1001.81,-1645.85"/>
</g>
<!-- 51069 -->
<g id="node27" class="node">
<title>51069</title>
<polygon fill="none" stroke="#379469" points="1491.61,-1991.8 1491.61,-2006.71 1411.35,-2017.26 1297.84,-2017.26 1217.58,-2006.71 1217.58,-1991.8 1297.84,-1981.26 1411.35,-1981.26 1491.61,-1991.8"/>
<polygon fill="none" stroke="#379469" points="1495.61,-1988.29 1495.61,-2010.22 1411.61,-2021.26 1297.58,-2021.26 1213.58,-2010.22 1213.58,-1988.29 1297.58,-1977.26 1411.61,-1977.26 1495.61,-1988.29"/>
<text text-anchor="middle" x="1354.6" y="-1994.21" font-family="Times,serif" font-size="14.00">metaeffekt:LZMA&#45;SDK&#45;9.22+</text>
</g>
<!-- 2931&#45;&gt;51069 -->
<g id="edge8" class="edge">
<title>2931&#45;&gt;51069</title>
<path fill="none" stroke="#379469" stroke-width="2" d="M1016.54,-1713.24C1133.89,-1901.43 1156.68,-1931.46 1278.95,-1974.27"/>
<polygon fill="#379469" stroke="#379469" stroke-width="2" points="1287.2,-1977.12 1276.27,-1978.11 1284.61,-1976.76 1277.58,-1974.33 1277.74,-1973.86 1277.91,-1973.38 1284.94,-1975.81 1279.21,-1969.6 1287.2,-1977.12"/>
</g>
<!-- 2932 -->
<g id="node6" class="node">
<title>2932</title>
<polygon fill="none" stroke="black" points="1414.78,-1418.03 1414.78,-1432.94 1365.02,-1443.48 1294.65,-1443.48 1244.89,-1432.94 1244.89,-1418.03 1294.65,-1407.48 1365.02,-1407.48 1414.78,-1418.03"/>
<polygon fill="none" stroke="black" points="1418.78,-1414.79 1418.78,-1436.18 1365.44,-1447.48 1294.23,-1447.48 1240.89,-1436.18 1240.89,-1414.79 1294.23,-1403.48 1365.44,-1403.48 1418.78,-1414.79"/>
<text text-anchor="middle" x="1329.83" y="-1420.43" font-family="Times,serif" font-size="14.00">LZMA&#45;SDK&#45;9.22</text>
</g>
<!-- 2932&#45;&gt;2931 -->
<g id="edge9" class="edge">
<title>2932&#45;&gt;2931</title>
<path fill="none" stroke="black" stroke-width="2" d="M1304.94,-1447.81C1149.67,-1587.06 1116.25,-1616.19 1053.85,-1654.88"/>
<polygon fill="black" stroke="black" stroke-width="2" points="1046.49,-1659.4 1052.66,-1650.33 1048.41,-1657.63 1054.75,-1653.74 1055.01,-1654.17 1055.27,-1654.59 1048.94,-1658.48 1057.37,-1658 1046.49,-1659.4"/>
</g>
<!-- 10176 -->
<g id="node15" class="node">
<title>10176</title>
<polygon fill="none" stroke="#00876c" points="1725.95,-1017.62 1725.95,-1032.53 1653.8,-1043.08 1551.77,-1043.08 1479.62,-1032.53 1479.62,-1017.62 1551.77,-1007.08 1653.8,-1007.08 1725.95,-1017.62"/>
<polygon fill="none" stroke="#00876c" points="1729.95,-1014.16 1729.95,-1035.99 1654.09,-1047.08 1551.47,-1047.08 1475.62,-1035.99 1475.62,-1014.16 1551.47,-1003.08 1654.09,-1003.08 1729.95,-1014.16"/>
<text text-anchor="middle" x="1602.78" y="-1020.03" font-family="Times,serif" font-size="14.00">BlueOak:LZMA&#45;SDK&#45;9.22</text>
</g>
<!-- 2932&#45;&gt;10176 -->
<g id="edge10" class="edge">
<title>2932&#45;&gt;10176</title>
<path fill="none" stroke="#00876c" stroke-width="2" d="M1346.71,-1403.24C1517.21,-1178.47 1534.26,-1155.07 1586.03,-1056.99"/>
<polygon fill="#00876c" stroke="#00876c" stroke-width="2" points="1590.02,-1049.41 1589.35,-1060.36 1589.27,-1051.91 1585.81,-1058.5 1585.36,-1058.26 1584.92,-1058.03 1588.39,-1051.45 1581.38,-1056.17 1590.02,-1049.41"/>
</g>
<!-- 2932&#45;&gt;20633 -->
<g id="edge11" class="edge">
<title>2932&#45;&gt;20633</title>
<path fill="none" stroke="black" stroke-width="2" d="M1296.16,-1447.86C1148.63,-1545.86 1110.65,-1570.26 1053.87,-1595.42"/>
<polygon fill="black" stroke="black" stroke-width="2" points="1046.03,-1598.83 1053.4,-1590.71 1048.18,-1597.35 1055,-1594.38 1055.2,-1594.84 1055.4,-1595.29 1048.58,-1598.27 1057,-1598.96 1046.03,-1598.83"/>
</g>
<!-- 41894 -->
<g id="node25" class="node">
<title>41894</title>
<polygon fill="none" stroke="#379469" points="1760,-1591.31 1760,-1606.22 1697.27,-1616.77 1608.54,-1616.77 1545.8,-1606.22 1545.8,-1591.31 1608.54,-1580.77 1697.27,-1580.77 1760,-1591.31"/>
<polygon fill="none" stroke="#379469" points="1764,-1587.93 1764,-1609.61 1697.6,-1620.77 1608.21,-1620.77 1541.8,-1609.61 1541.8,-1587.93 1608.21,-1576.77 1697.6,-1576.77 1764,-1587.93"/>
<text text-anchor="middle" x="1652.9" y="-1593.72" font-family="Times,serif" font-size="14.00">cavil:LZMA&#45;SDK&#45;9.22</text>
</g>
<!-- 2932&#45;&gt;41894 -->
<g id="edge12" class="edge">
<title>2932&#45;&gt;41894</title>
<path fill="none" stroke="#379469" stroke-width="2" d="M1370.41,-1446.85C1516.09,-1523.56 1551.67,-1542.41 1602.88,-1570.84"/>
<polygon fill="#379469" stroke="#379469" stroke-width="2" points="1610.53,-1575.09 1599.6,-1574.16 1608.04,-1574.28 1601.54,-1570.66 1601.79,-1570.23 1602.03,-1569.79 1608.53,-1573.4 1603.97,-1566.29 1610.53,-1575.09"/>
</g>
<!-- 2933 -->
<g id="node7" class="node">
<title>2933</title>
<polygon fill="none" stroke="black" points="1421.35,-1254.83 1421.35,-1269.74 1298.9,-1280.29 1125.73,-1280.29 1003.28,-1269.74 1003.28,-1254.83 1125.73,-1244.29 1298.9,-1244.29 1421.35,-1254.83"/>
<polygon fill="none" stroke="black" points="1425.35,-1251.16 1425.35,-1273.41 1299.08,-1284.29 1125.56,-1284.29 999.28,-1273.41 999.28,-1251.16 1125.56,-1240.29 1299.08,-1240.29 1425.35,-1251.16"/>
<text text-anchor="middle" x="1212.32" y="-1257.24" font-family="Times,serif" font-size="14.00">LZMA SDK License (versions 9.22 and beyond)</text>
</g>
<!-- 2933&#45;&gt;2931 -->
<g id="edge13" class="edge">
<title>2933&#45;&gt;2931</title>
<path fill="none" stroke="#dac767" stroke-width="2" d="M1194.58,-1284.55C1030.69,-1490.28 1017.66,-1510.72 1003.77,-1649.69"/>
<polygon fill="#dac767" stroke="#dac767" stroke-width="2" points="1002.91,-1658.38 999.41,-1647.98 1002.67,-1655.78 1003.39,-1648.37 1003.89,-1648.42 1004.39,-1648.47 1003.66,-1655.87 1008.37,-1648.86 1002.91,-1658.38"/>
</g>
<!-- 2933&#45;&gt;10176 -->
<g id="edge14" class="edge">
<title>2933&#45;&gt;10176</title>
<path fill="none" stroke="#00876c" stroke-width="2" d="M1238.3,-1239.84C1396.38,-1103.28 1437.44,-1069.97 1514.81,-1046.76"/>
<polygon fill="#00876c" stroke="#00876c" stroke-width="2" points="1523.12,-1044.36 1514.76,-1051.46 1520.8,-1045.55 1513.65,-1047.61 1513.51,-1047.13 1513.37,-1046.65 1520.52,-1044.59 1512.27,-1042.81 1523.12,-1044.36"/>
</g>
<!-- 2933&#45;&gt;20633 -->
<g id="edge15" class="edge">
<title>2933&#45;&gt;20633</title>
<path fill="none" stroke="#deb256" stroke-width="2" d="M1190.06,-1284.7C1032.13,-1443.82 1019.42,-1461.15 997.75,-1588.01"/>
<polygon fill="#deb256" stroke="#deb256" stroke-width="2" points="996.31,-1596.57 993.54,-1585.96 996.24,-1593.96 997.48,-1586.63 997.97,-1586.71 998.47,-1586.8 997.23,-1594.13 1002.41,-1587.46 996.31,-1596.57"/>
</g>
<!-- 67676 -->
<g id="node32" class="node">
<title>67676</title>
<polygon fill="none" stroke="#00876c" points="906.55,-1303.42 906.55,-1318.33 771.45,-1328.88 580.38,-1328.88 445.27,-1318.33 445.27,-1303.42 580.38,-1292.88 771.45,-1292.88 906.55,-1303.42"/>
<polygon fill="none" stroke="#00876c" points="910.55,-1299.72 910.55,-1322.03 771.6,-1332.88 580.22,-1332.88 441.27,-1322.03 441.27,-1299.72 580.22,-1288.88 771.6,-1288.88 910.55,-1299.72"/>
<text text-anchor="middle" x="675.91" y="-1305.83" font-family="Times,serif" font-size="14.00">spdx:LZMA SDK License (versions 9.22 and beyond)</text>
</g>
<!-- 2933&#45;&gt;67676 -->
<g id="edge16" class="edge">
<title>2933&#45;&gt;67676</title>
<path fill="none" stroke="#00876c" stroke-width="2" d="M998.92,-1256.33C870.2,-1254.47 822.6,-1260.78 749.3,-1284.94"/>
<polygon fill="#00876c" stroke="#00876c" stroke-width="2" points="741.08,-1287.69 749.13,-1280.25 743.35,-1286.4 750.41,-1284.04 750.56,-1284.51 750.72,-1284.99 743.67,-1287.35 751.99,-1288.78 741.08,-1287.69"/>
</g>
<!-- 2934 -->
<g id="node8" class="node">
<title>2934</title>
<text text-anchor="middle" x="363.45" y="-2689.77" font-family="Times,serif" font-size="14.00">SPDXLicense:</text>
<text text-anchor="middle" x="363.45" y="-2673.27" font-family="Times,serif" font-size="14.00">The license text currently displayed on the 7&#45;zip SDK website is not the same as</text>
<text text-anchor="middle" x="363.45" y="-2656.77" font-family="Times,serif" font-size="14.00">any of the lzma.txt file in the root folders of the .tar.bz SDK distributions</text>
<text text-anchor="middle" x="363.45" y="-2640.27" font-family="Times,serif" font-size="14.00">(versions 922 and below) that are hosted on SourceForge, nor is it the same as</text>
<text text-anchor="middle" x="363.45" y="-2623.77" font-family="Times,serif" font-size="14.00">the .7z distributions (versions 935 and above) which shifted the license text to</text>
<text text-anchor="start" x="143.32" y="-2607.27" font-family="Times,serif" font-size="14.00">DOC</text>
<text text-anchor="middle" x="363.45" y="-2590.77" font-family="Times,serif" font-size="14.00">zma&#45;sdk.txt. This license applies to versions 9.22 and above.</text>
</g>
<!-- 2934&#45;&gt;2930 -->
<g id="edge17" class="edge">
<title>2934&#45;&gt;2930</title>
<path fill="none" stroke="#dac767" d="M371.96,-2583.59C390.96,-2453.9 409.52,-2412.14 552.92,-2118.24"/>
<polygon fill="#dac767" stroke="#dac767" points="555.95,-2120.01 557.19,-2109.48 549.66,-2116.94 555.95,-2120.01"/>
</g>
<!-- 2935 -->
<g id="node9" class="node">
<title>2935</title>
<text text-anchor="middle" x="245.29" y="-2310.32" font-family="Times,serif" font-size="14.00">$TEXT</text>
</g>
<!-- 2935&#45;&gt;2930 -->
<g id="edge18" class="edge">
<title>2935&#45;&gt;2930</title>
<path fill="none" stroke="#dac767" d="M273.68,-2297.68C344.61,-2253.29 367.46,-2236.53 526.24,-2114.27"/>
<polygon fill="#dac767" stroke="#dac767" points="527.91,-2117.41 533.7,-2108.53 523.64,-2111.86 527.91,-2117.41"/>
</g>
<!-- 2936 -->
<g id="node10" class="node">
<title>2936</title>
<text text-anchor="middle" x="88.36" y="-2419.49" font-family="Times,serif" font-size="14.00">$TEXT</text>
</g>
<!-- 2936&#45;&gt;2935 -->
<g id="edge19" class="edge">
<title>2936&#45;&gt;2935</title>
<path fill="none" stroke="#dac767" d="M116.59,-2407.42C139.46,-2393.17 156.65,-2380.86 211.95,-2340.02"/>
<polygon fill="#dac767" stroke="#dac767" points="213.98,-2342.87 219.94,-2334.11 209.82,-2337.24 213.98,-2342.87"/>
</g>
<!-- 5550 -->
<g id="node11" class="node">
<title>5550</title>
<text text-anchor="middle" x="2274.69" y="-433.02" font-family="Times,serif" font-size="14.00">LicenseType Permissive</text>
</g>
<!-- 10175 -->
<g id="node14" class="node">
<title>10175</title>
<ellipse fill="none" stroke="#00876c" cx="1916.29" cy="-584.21" rx="160.34" ry="28.99"/>
<text text-anchor="middle" x="1916.29" y="-587.41" font-family="Times,serif" font-size="14.00" fill="gray">BlueOakCouncil</text>
<text text-anchor="middle" x="1916.29" y="-570.91" font-family="Times,serif" font-size="14.00" fill="gray">789d6a9a356e57e3cd482a751690357c</text>
</g>
<!-- 5550&#45;&gt;10175 -->
<g id="edge20" class="edge">
<title>5550&#45;&gt;10175</title>
<path fill="none" stroke="#00876c" d="M2199.98,-448.62C2142.14,-459.63 2102.6,-479.3 1975.52,-550.79"/>
<polygon fill="#00876c" stroke="#00876c" points="1974.12,-547.55 1967.13,-555.51 1977.56,-553.65 1974.12,-547.55"/>
</g>
<!-- 8023 -->
<g id="node12" class="node">
<title>8023</title>
<polygon fill="none" stroke="black" points="1394.71,-2353.11 1394.71,-2368.02 1352.09,-2378.56 1291.82,-2378.56 1249.2,-2368.02 1249.2,-2353.11 1291.82,-2342.56 1352.09,-2342.56 1394.71,-2353.11"/>
<text text-anchor="middle" x="1321.95" y="-2355.51" font-family="Times,serif" font-size="14.00">Public Domain</text>
</g>
<!-- 8023&#45;&gt;51069 -->
<g id="edge21" class="edge">
<title>8023&#45;&gt;51069</title>
<path fill="none" stroke="#379469" stroke-dasharray="5,2" d="M1325.53,-2342.29C1342.36,-2255.83 1343.76,-2238.79 1353.09,-2032.51"/>
<polygon fill="#379469" stroke="#379469" points="1353.53,-2022.79 1357.58,-2032.99 1353.36,-2026.57 1353.08,-2032.78 1353.08,-2032.78 1353.08,-2032.78 1353.36,-2026.57 1348.59,-2032.58 1353.53,-2022.79"/>
</g>
<!-- 10004 -->
<g id="node13" class="node">
<title>10004</title>
<text text-anchor="start" x="1923.19" y="-48.04" font-family="Times,serif" font-size="14.00">BlueOakCouncil: </text>
<text text-anchor="start" x="2021.44" y="-48.04" font-family="Times,serif" font-weight="bold" font-size="14.00" fill="#000000">Bronze</text>
<text text-anchor="start" x="1785.94" y="-34.04" font-family="Times,serif" font-size="14.00">These licenses lack important but nonessential elements of permissive open</text>
<text text-anchor="start" x="1787.82" y="-20.04" font-family="Times,serif" font-size="14.00">software licenses or impose additional requirements or restrictions, such as</text>
<text text-anchor="start" x="1828.69" y="-6.04" font-family="Times,serif" font-size="14.00">BSD&#45;style prohibitions against endorsement and promotion.</text>
</g>
<!-- 10004&#45;&gt;10175 -->
<g id="edge22" class="edge">
<title>10004&#45;&gt;10175</title>
<path fill="none" stroke="#00876c" d="M1996.36,-64.24C2011.46,-208.45 2006.87,-234.28 1926.75,-543.81"/>
<polygon fill="#00876c" stroke="#00876c" points="1923.37,-542.92 1924.25,-553.47 1930.15,-544.67 1923.37,-542.92"/>
</g>
<!-- 10175&#45;&gt;10176 -->
<g id="edge23" class="edge">
<title>10175&#45;&gt;10176</title>
<path fill="none" stroke="#00876c" d="M1896.92,-613.31C1827.69,-717.17 1810.32,-741.27 1625.63,-993.83"/>
<polygon fill="#00876c" stroke="#00876c" points="1622.96,-991.55 1619.89,-1001.69 1628.61,-995.68 1622.96,-991.55"/>
</g>
<!-- 10177 -->
<g id="node16" class="node">
<title>10177</title>
<text text-anchor="middle" x="2180.45" y="-213.9" font-family="Times,serif" font-size="14.00">https://spdx.org/licenses/LZMA&#45;SDK&#45;9.22</text>
</g>
<!-- 10177&#45;&gt;10175 -->
<g id="edge24" class="edge">
<title>10177&#45;&gt;10175</title>
<path fill="none" stroke="#00876c" d="M2167.95,-236.77C2105.86,-325.26 2093.5,-342.33 1944.33,-545.94"/>
<polygon fill="#00876c" stroke="#00876c" points="1941.57,-543.78 1938.48,-553.92 1947.22,-547.92 1941.57,-543.78"/>
</g>
<!-- 12813 -->
<g id="node17" class="node">
<title>12813</title>
<text text-anchor="middle" x="86.32" y="-1359.77" font-family="Times,serif" font-size="14.00">LicenseType Public Domain</text>
</g>
<!-- 12813&#45;&gt;20632 -->
<g id="edge25" class="edge">
<title>12813&#45;&gt;20632</title>
<path fill="none" stroke="#deb256" d="M99.52,-1382.75C169.4,-1477.22 186.97,-1491.83 363.84,-1568.72"/>
<polygon fill="#deb256" stroke="#deb256" points="362.37,-1571.9 372.94,-1572.67 365.16,-1565.48 362.37,-1571.9"/>
</g>
<!-- 20632&#45;&gt;20633 -->
<g id="edge26" class="edge">
<title>20632&#45;&gt;20633</title>
<path fill="none" stroke="#deb256" d="M528.31,-1624.08C611.33,-1642.96 669.64,-1642.76 867.25,-1629.64"/>
<polygon fill="#deb256" stroke="#deb256" points="867.36,-1633.14 877.1,-1628.99 866.89,-1626.16 867.36,-1633.14"/>
</g>
<!-- 20633&#45;&gt;2931 -->
<g id="edge27" class="edge">
<title>20633&#45;&gt;2931</title>
<path fill="none" stroke="#00876c" stroke-width="2" d="M988.51,-1643.43C988.62,-1645.53 988.78,-1647.7 988.98,-1649.89"/>
<polygon fill="#00876c" stroke="#00876c" stroke-width="2" points="990.04,-1658.44 984.35,-1649.07 989.23,-1655.96 988.32,-1648.58 988.82,-1648.52 989.31,-1648.46 990.22,-1655.84 993.28,-1647.97 990.04,-1658.44"/>
</g>
<!-- 20633&#45;&gt;51069 -->
<g id="edge28" class="edge">
<title>20633&#45;&gt;51069</title>
<path fill="none" stroke="#379469" stroke-dasharray="5,2" d="M1004.02,-1643.42C1129.01,-1880.29 1147.6,-1909.31 1291.57,-1972.39"/>
<polygon fill="#379469" stroke="#379469" points="1300.58,-1976.31 1289.61,-1976.45 1297.11,-1974.8 1291.41,-1972.32 1291.41,-1972.32 1291.41,-1972.32 1297.11,-1974.8 1293.2,-1968.2 1300.58,-1976.31"/>
</g>
<!-- 20634 -->
<g id="node20" class="node">
<title>20634</title>
<text text-anchor="middle" x="79.23" y="-1568.8" font-family="Times,serif" font-size="14.00">$TEXT</text>
</g>
<!-- 20634&#45;&gt;20632 -->
<g id="edge29" class="edge">
<title>20634&#45;&gt;20632</title>
<path fill="none" stroke="#deb256" d="M107.62,-1580.47C162.16,-1592.97 189.98,-1597.19 268.83,-1598.87"/>
<polygon fill="#deb256" stroke="#deb256" points="268.72,-1602.37 278.79,-1599.06 268.85,-1595.37 268.72,-1602.37"/>
</g>
<!-- 35433 -->
<g id="node21" class="node">
<title>35433</title>
<text text-anchor="middle" x="1041.85" y="-1108.15" font-family="Times,serif" font-size="14.00">LicenseTag (ScopedLicenseTag &quot;OrtLicenseCategorization&quot; &quot;include&#45;in&#45;notice&#45;file&quot; NoLicenseTagText)</text>
</g>
<!-- 35802 -->
<g id="node23" class="node">
<title>35802</title>
<ellipse fill="none" stroke="#d43d51" cx="923.39" cy="-1176.88" rx="160.87" ry="28.99"/>
<text text-anchor="middle" x="923.39" y="-1180.08" font-family="Times,serif" font-size="14.00" fill="gray">OrtLicenseCategorization</text>
<text text-anchor="middle" x="923.39" y="-1163.58" font-family="Times,serif" font-size="14.00" fill="gray">7ee5c3e66469b56e878895a356720d1b</text>
</g>
<!-- 35433&#45;&gt;35802 -->
<g id="edge30" class="edge">
<title>35433&#45;&gt;35802</title>
<path fill="none" stroke="#d43d51" d="M968.8,-1131.07C963.97,-1133.52 959.71,-1136.4 955.52,-1139.96"/>
<polygon fill="#d43d51" stroke="#d43d51" points="953.32,-1137.22 948.54,-1146.67 958.17,-1142.27 953.32,-1137.22"/>
</g>
<!-- 35455 -->
<g id="node22" class="node">
<title>35455</title>
<text text-anchor="middle" x="673.25" y="-1054.29" font-family="Times,serif" font-size="14.00">LicenseTag (ScopedLicenseTag &quot;OrtLicenseCategorization&quot; &quot;public&#45;domain&quot; NoLicenseTagText)</text>
</g>
<!-- 35455&#45;&gt;35802 -->
<g id="edge31" class="edge">
<title>35455&#45;&gt;35802</title>
<path fill="none" stroke="#d43d51" d="M718.25,-1077.24C752.36,-1091.3 779.17,-1104.23 858.51,-1144.16"/>
<polygon fill="#d43d51" stroke="#d43d51" points="856.59,-1147.11 867.1,-1148.48 859.74,-1140.86 856.59,-1147.11"/>
</g>
<!-- 35802&#45;&gt;2931 -->
<g id="edge32" class="edge">
<title>35802&#45;&gt;2931</title>
<path fill="none" stroke="#d43d51" d="M916.22,-1206.1C862.12,-1427.19 863.95,-1447.17 979.64,-1650.91"/>
<polygon fill="#d43d51" stroke="#d43d51" points="976.5,-1652.48 984.49,-1659.44 982.59,-1649.02 976.5,-1652.48"/>
</g>
<!-- 41893 -->
<g id="node24" class="node">
<title>41893</title>
<ellipse fill="none" stroke="#379469" cx="1673.25" cy="-2011.41" rx="160.34" ry="28.99"/>
<text text-anchor="middle" x="1673.25" y="-2014.61" font-family="Times,serif" font-size="14.00" fill="gray">CavilLicenseChange</text>
<text text-anchor="middle" x="1673.25" y="-1998.11" font-family="Times,serif" font-size="14.00" fill="gray">0ad991188678c84e81b3f2e581045589</text>
</g>
<!-- 41893&#45;&gt;41894 -->
<g id="edge33" class="edge">
<title>41893&#45;&gt;41894</title>
<path fill="none" stroke="#379469" d="M1682.54,-1982.16C1717.97,-1869.14 1715.59,-1847.83 1661.29,-1632.03"/>
<polygon fill="#379469" stroke="#379469" points="1664.7,-1631.25 1658.86,-1622.41 1657.91,-1632.96 1664.7,-1631.25"/>
</g>
<!-- 51068 -->
<g id="node26" class="node">
<title>51068</title>
<ellipse fill="none" stroke="#379469" cx="1880.54" cy="-1942.62" rx="158.75" ry="28.99"/>
<text text-anchor="middle" x="1880.54" y="-1945.82" font-family="Times,serif" font-size="14.00" fill="gray">MetaeffektLicense</text>
<text text-anchor="middle" x="1880.54" y="-1929.32" font-family="Times,serif" font-size="14.00" fill="gray">614cf47110757b67454caf645b7dc708</text>
</g>
<!-- 51068&#45;&gt;51069 -->
<g id="edge34" class="edge">
<title>51068&#45;&gt;51069</title>
<path fill="none" stroke="#379469" d="M1831.16,-1970.66C1690.68,-2049.45 1653.33,-2056.29 1457.45,-2019.36"/>
<polygon fill="#379469" stroke="#379469" points="1458.13,-2015.92 1447.65,-2017.5 1456.82,-2022.8 1458.13,-2015.92"/>
</g>
<!-- 51070 -->
<g id="node28" class="node">
<title>51070</title>
<polygon fill="none" stroke="#379469" points="1590.33,-2350.46 1590.33,-2365.38 1537,-2375.92 1461.58,-2375.92 1408.26,-2365.38 1408.26,-2350.46 1461.58,-2339.92 1537,-2339.92 1590.33,-2350.46"/>
<polygon fill="none" stroke="#379469" points="1594.33,-2347.18 1594.33,-2368.66 1537.39,-2379.92 1461.19,-2379.92 1404.26,-2368.66 1404.26,-2347.18 1461.19,-2335.92 1537.39,-2335.92 1594.33,-2347.18"/>
<text text-anchor="middle" x="1499.29" y="-2352.87" font-family="Times,serif" font-size="14.00">LZMA&#45;SDK&#45;9.22+</text>
</g>
<!-- 51070&#45;&gt;51069 -->
<g id="edge35" class="edge">
<title>51070&#45;&gt;51069</title>
<path fill="none" stroke="#379469" stroke-width="2" d="M1486.6,-2335.44C1442.61,-2257.13 1434.84,-2236.67 1365.72,-2032.19"/>
<polygon fill="#379469" stroke="#379469" stroke-width="2" points="1362.95,-2023.99 1370.42,-2032.02 1364.24,-2026.25 1366.63,-2033.3 1366.15,-2033.46 1365.68,-2033.62 1363.3,-2026.57 1361.89,-2034.9 1362.95,-2023.99"/>
</g>
<!-- 51071 -->
<g id="node29" class="node">
<title>51071</title>
<polygon fill="none" stroke="#379469" points="2126.21,-2382.76 2126.21,-2397.67 1979.43,-2408.21 1771.84,-2408.21 1625.05,-2397.67 1625.05,-2382.76 1771.84,-2372.21 1979.43,-2372.21 2126.21,-2382.76"/>
<polygon fill="none" stroke="#379469" points="2130.21,-2379.04 2130.21,-2401.39 1979.57,-2412.21 1771.69,-2412.21 1621.05,-2401.39 1621.05,-2379.04 1771.69,-2368.21 1979.57,-2368.21 2130.21,-2379.04"/>
<text text-anchor="middle" x="1875.63" y="-2385.16" font-family="Times,serif" font-size="14.00">metaeffekt:LZMA SDK License 9.22 (or any later version)</text>
</g>
<!-- 51071&#45;&gt;51069 -->
<g id="edge36" class="edge">
<title>51071&#45;&gt;51069</title>
<path fill="none" stroke="#379469" stroke-width="2" d="M1813.78,-2367.79C1667.36,-2313.24 1633.99,-2282.82 1384.22,-2029.33"/>
<polygon fill="#379469" stroke="#379469" stroke-width="2" points="1378.1,-2023.12 1388.32,-2027.08 1380.25,-2024.59 1385.47,-2029.89 1385.11,-2030.24 1384.76,-2030.59 1379.54,-2025.29 1381.91,-2033.4 1378.1,-2023.12"/>
</g>
<!-- 51072 -->
<g id="node30" class="node">
<title>51072</title>
<polygon fill="none" stroke="#379469" points="2568.23,-2788.59 2568.23,-2803.5 2448.38,-2814.05 2278.88,-2814.05 2159.03,-2803.5 2159.03,-2788.59 2278.88,-2778.05 2448.38,-2778.05 2568.23,-2788.59"/>
<polygon fill="none" stroke="#379469" points="2572.23,-2784.93 2572.23,-2807.17 2448.56,-2818.05 2278.71,-2818.05 2155.03,-2807.17 2155.03,-2784.93 2278.71,-2774.05 2448.56,-2774.05 2572.23,-2784.93"/>
<text text-anchor="middle" x="2363.63" y="-2791" font-family="Times,serif" font-size="14.00">LZMA SDK License 9.22 (or any later version)</text>
</g>
<!-- 51072&#45;&gt;51071 -->
<g id="edge37" class="edge">
<title>51072&#45;&gt;51071</title>
<path fill="none" stroke="#379469" stroke-width="2" d="M2325.18,-2773.68C2195.51,-2697.78 2168.87,-2673.8 1906.37,-2419.95"/>
<polygon fill="#379469" stroke="#379469" stroke-width="2" points="1900.29,-2414.06 1910.6,-2417.78 1902.48,-2415.48 1907.82,-2420.65 1907.47,-2421.01 1907.13,-2421.37 1901.78,-2416.2 1904.35,-2424.25 1900.29,-2414.06"/>
</g>
<!-- 67675 -->
<g id="node31" class="node">
<title>67675</title>
<ellipse fill="none" stroke="#00876c" cx="1361.37" cy="-1772.31" rx="149.73" ry="28.99"/>
<text text-anchor="middle" x="1361.37" y="-1775.51" font-family="Times,serif" font-size="14.00" fill="gray">LicenseLynx</text>
<text text-anchor="middle" x="1361.37" y="-1759.01" font-family="Times,serif" font-size="14.00" fill="gray">549f092b8dfcfa13ce2eef7ef52f90ec</text>
</g>
<!-- 67675&#45;&gt;2931 -->
<g id="edge38" class="edge">
<title>67675&#45;&gt;2931</title>
<path fill="none" stroke="#00876c" d="M1231.87,-1787.21C1158.62,-1790.94 1124.94,-1775.18 1046.4,-1720"/>
<polygon fill="#00876c" stroke="#00876c" points="1048.54,-1717.22 1038.36,-1714.31 1044.5,-1722.94 1048.54,-1717.22"/>
</g>
<!-- 67676&#45;&gt;2931 -->
<g id="edge39" class="edge">
<title>67676&#45;&gt;2931</title>
<path fill="none" stroke="#00876c" stroke-width="2" d="M682.87,-1333.15C736.91,-1505.56 748.74,-1522.99 950.54,-1654.71"/>
<polygon fill="#00876c" stroke="#00876c" stroke-width="2" points="957.63,-1659.33 946.79,-1657.64 955.21,-1658.35 948.98,-1654.29 949.25,-1653.87 949.52,-1653.45 955.75,-1657.51 951.71,-1650.1 957.63,-1659.33"/>
</g>
</g>
</svg>
