<?xml version="1.0" encoding="UTF-8" standalone="no"?>
<!DOCTYPE svg PUBLIC "-//W3C//DTD SVG 1.1//EN"
 "http://www.w3.org/Graphics/SVG/1.1/DTD/svg11.dtd">
<!-- Generated by graphviz version 10.0.1 (0)
 -->
<!-- Pages: 1 -->
<svg width="1058pt" height="1041pt"
 viewBox="0.00 0.00 1058.00 1041.00" xmlns="http://www.w3.org/2000/svg" xmlns:xlink="http://www.w3.org/1999/xlink">
<g id="graph0" class="graph" transform="scale(1 1) rotate(0) translate(4 1037)">
<polygon fill="white" stroke="none" points="-4,4 -4,-1037 1054,-1037 1054,4 -4,4"/>
<!-- 18892 -->
<g id="node1" class="node">
<title>18892</title>
<polygon fill="none" stroke="black" points="392.2,-1000.44 392.2,-1015.35 316.8,-1025.89 210.18,-1025.89 134.78,-1015.35 134.78,-1000.44 210.18,-989.89 316.8,-989.89 392.2,-1000.44"/>
<text text-anchor="middle" x="263.49" y="-1002.84" font-family="Times,serif" font-size="14.00">scancode:lzma&#45;cpl&#45;exception</text>
</g>
<!-- 44219 -->
<g id="node7" class="node">
<title>44219</title>
<polygon fill="none" stroke="#00876c" points="655.62,-928.69 655.62,-943.6 579.25,-954.15 471.25,-954.15 394.88,-943.6 394.88,-928.69 471.25,-918.15 579.25,-918.15 655.62,-928.69"/>
<polygon fill="none" stroke="#00876c" points="659.62,-925.21 659.62,-947.09 579.53,-958.15 470.98,-958.15 390.88,-947.09 390.88,-925.21 470.98,-914.15 579.53,-914.15 659.62,-925.21"/>
<text text-anchor="middle" x="525.25" y="-931.1" font-family="Times,serif" font-size="14.00">metaeffekt:LZMA&#45;Exception</text>
</g>
<!-- 18892&#45;&gt;44219 -->
<g id="edge1" class="edge">
<title>18892&#45;&gt;44219</title>
<path fill="none" stroke="#00876c" stroke-dasharray="5,2" d="M392.48,-1008.28C414.96,-1000.62 440.47,-986.78 478.71,-964.1"/>
<polygon fill="#00876c" stroke="#00876c" points="487.11,-959.09 480.82,-968.08 483.87,-961.03 478.52,-964.21 478.52,-964.21 478.52,-964.21 483.87,-961.03 476.22,-960.34 487.11,-959.09"/>
</g>
<!-- 27567 -->
<g id="node2" class="node">
<title>27567</title>
<ellipse fill="none" stroke="#e18745" cx="441.96" cy="-28.56" rx="155.56" ry="28.99"/>
<text text-anchor="middle" x="441.96" y="-31.76" font-family="Times,serif" font-size="14.00" fill="gray">Fossology</text>
<text text-anchor="middle" x="441.96" y="-15.26" font-family="Times,serif" font-size="14.00" fill="gray">5d8aae2c9a41f5f39d82899057f4ae70</text>
</g>
<!-- 27568 -->
<g id="node3" class="node">
<title>27568</title>
<polygon fill="none" stroke="#e18745" points="615.76,-416.11 615.76,-431.02 542.96,-441.57 440.01,-441.57 367.21,-431.02 367.21,-416.11 440.01,-405.57 542.96,-405.57 615.76,-416.11"/>
<polygon fill="none" stroke="#e18745" points="619.76,-412.65 619.76,-434.48 543.25,-445.57 439.72,-445.57 363.21,-434.48 363.21,-412.65 439.72,-401.57 543.25,-401.57 619.76,-412.65"/>
<text text-anchor="middle" x="491.48" y="-418.52" font-family="Times,serif" font-size="14.00">fossology:LZMA&#45;exception</text>
</g>
<!-- 27567&#45;&gt;27568 -->
<g id="edge2" class="edge">
<title>27567&#45;&gt;27568</title>
<path fill="none" stroke="#e18745" d="M444.21,-57.85C451.04,-145.89 454.34,-170.27 486.57,-390.08"/>
<polygon fill="#e18745" stroke="#e18745" points="483.09,-390.5 488.01,-399.89 490.02,-389.48 483.09,-390.5"/>
</g>
<!-- 27569 -->
<g id="node4" class="node">
<title>27569</title>
<polygon fill="none" stroke="black" points="379.21,-685.55 379.21,-700.46 330.75,-711 262.21,-711 213.75,-700.46 213.75,-685.55 262.21,-675 330.75,-675 379.21,-685.55"/>
<polygon fill="none" stroke="black" points="383.21,-682.32 383.21,-703.68 331.18,-715 261.78,-715 209.75,-703.68 209.75,-682.32 261.78,-671 331.18,-671 383.21,-682.32"/>
<text text-anchor="middle" x="296.48" y="-687.95" font-family="Times,serif" font-size="14.00">LZMA&#45;exception</text>
</g>
<!-- 27569&#45;&gt;27568 -->
<g id="edge3" class="edge">
<title>27569&#45;&gt;27568</title>
<path fill="none" stroke="#e18745" stroke-width="2" d="M303.15,-670.75C329.26,-584.72 340.1,-569.72 460.08,-453.83"/>
<polygon fill="#e18745" stroke="#e18745" stroke-width="2" points="466.39,-447.74 462.32,-457.93 464.89,-449.88 459.54,-455.05 459.19,-454.69 458.85,-454.33 464.2,-449.16 456.07,-451.45 466.39,-447.74"/>
</g>
<!-- 27569&#45;&gt;44219 -->
<g id="edge4" class="edge">
<title>27569&#45;&gt;44219</title>
<path fill="none" stroke="#00876c" stroke-width="2" d="M307.42,-715.22C372.6,-847.36 388.26,-873.18 463.95,-909.1"/>
<polygon fill="#00876c" stroke="#00876c" stroke-width="2" points="471.79,-912.75 460.82,-912.61 469.25,-912.12 462.51,-908.99 462.72,-908.53 462.93,-908.08 469.67,-911.22 464.62,-904.45 471.79,-912.75"/>
</g>
<!-- 44221 -->
<g id="node9" class="node">
<title>44221</title>
<polygon fill="none" stroke="#00876c" points="216.91,-927.65 216.91,-942.57 155.79,-953.11 69.36,-953.11 8.24,-942.57 8.24,-927.65 69.36,-917.11 155.79,-917.11 216.91,-927.65"/>
<polygon fill="none" stroke="#00876c" points="220.91,-924.29 220.91,-945.93 156.13,-957.11 69.02,-957.11 4.24,-945.93 4.24,-924.29 69.02,-913.11 156.13,-913.11 220.91,-924.29"/>
<polygon fill="none" stroke="#00876c" points="224.91,-920.92 224.91,-949.3 156.48,-961.11 68.67,-961.11 0.24,-949.3 0.24,-920.92 68.67,-909.11 156.48,-909.11 224.91,-920.92"/>
<text text-anchor="middle" x="112.57" y="-930.06" font-family="Times,serif" font-size="14.00">spdx:LZMA&#45;exception</text>
</g>
<!-- 27569&#45;&gt;44221 -->
<g id="edge5" class="edge">
<title>27569&#45;&gt;44221</title>
<path fill="none" stroke="#00876c" stroke-width="2" d="M277.8,-715.23C181.48,-829.87 162.38,-853.31 134.04,-899.38"/>
<polygon fill="#00876c" stroke="#00876c" stroke-width="2" points="129.49,-906.84 130.85,-895.96 130.4,-904.39 134.27,-898.04 134.69,-898.3 135.12,-898.56 131.25,-904.91 138.54,-900.65 129.49,-906.84"/>
</g>
<!-- 27570 -->
<g id="node5" class="node">
<title>27570</title>
<polygon fill="none" stroke="black" points="802.79,-656.1 802.79,-671.01 754.98,-681.56 687.36,-681.56 639.55,-671.01 639.55,-656.1 687.36,-645.56 754.98,-645.56 802.79,-656.1"/>
<polygon fill="none" stroke="black" points="806.79,-652.89 806.79,-674.23 755.41,-685.56 686.92,-685.56 635.55,-674.23 635.55,-652.89 686.92,-641.56 755.41,-641.56 806.79,-652.89"/>
<text text-anchor="middle" x="721.17" y="-658.51" font-family="Times,serif" font-size="14.00">LZMA exception</text>
</g>
<!-- 27570&#45;&gt;27568 -->
<g id="edge6" class="edge">
<title>27570&#45;&gt;27568</title>
<path fill="none" stroke="#e18745" stroke-width="2" d="M709.6,-641.55C671.56,-569.93 657.42,-555.37 528.26,-452.74"/>
<polygon fill="#e18745" stroke="#e18745" stroke-width="2" points="521.5,-447.37 532.13,-450.06 523.82,-448.57 529.64,-453.19 529.33,-453.58 529.02,-453.98 523.19,-449.35 526.53,-457.11 521.5,-447.37"/>
</g>
<!-- 27570&#45;&gt;44219 -->
<g id="edge7" class="edge">
<title>27570&#45;&gt;44219</title>
<path fill="none" stroke="#00876c" stroke-dasharray="5,2" d="M712.7,-685.8C655.35,-836.29 643.4,-861.2 570.92,-907.92"/>
<polygon fill="#00876c" stroke="#00876c" points="562.8,-913.08 568.83,-903.92 565.99,-911.06 571.24,-907.72 571.24,-907.72 571.24,-907.72 565.99,-911.06 573.66,-911.52 562.8,-913.08"/>
</g>
<!-- 44220 -->
<g id="node8" class="node">
<title>44220</title>
<polygon fill="none" stroke="#00876c" points="1045.81,-904.66 1045.81,-919.57 970.09,-930.11 863.01,-930.11 787.29,-919.57 787.29,-904.66 863.01,-894.11 970.09,-894.11 1045.81,-904.66"/>
<polygon fill="none" stroke="#00876c" points="1049.81,-901.18 1049.81,-923.05 970.37,-934.11 862.73,-934.11 783.29,-923.05 783.29,-901.18 862.73,-890.11 970.37,-890.11 1049.81,-901.18"/>
<text text-anchor="middle" x="916.55" y="-907.06" font-family="Times,serif" font-size="14.00">metaeffekt:LZMA Exception</text>
</g>
<!-- 27570&#45;&gt;44220 -->
<g id="edge8" class="edge">
<title>27570&#45;&gt;44220</title>
<path fill="none" stroke="#00876c" stroke-width="2" d="M740.51,-685.99C845.92,-808.28 864.01,-829.97 896.44,-880.37"/>
<polygon fill="#00876c" stroke="#00876c" stroke-width="2" points="901.14,-887.73 891.97,-881.73 899.34,-885.84 895.34,-879.58 895.76,-879.31 896.18,-879.04 900.18,-885.3 899.55,-876.88 901.14,-887.73"/>
</g>
<!-- 44218 -->
<g id="node6" class="node">
<title>44218</title>
<ellipse fill="none" stroke="#00876c" cx="567.48" cy="-1003.9" rx="155.03" ry="28.99"/>
<text text-anchor="middle" x="567.48" y="-1007.1" font-family="Times,serif" font-size="14.00" fill="gray">MetaeffektLicense</text>
<text text-anchor="middle" x="567.48" y="-990.6" font-family="Times,serif" font-size="14.00" fill="gray">ddaf229d9b138f45d4a7ceabaf492c0e</text>
</g>
<!-- 44218&#45;&gt;44219 -->
<g id="edge9" class="edge">
<title>44218&#45;&gt;44219</title>
<path fill="none" stroke="#00876c" d="M542.99,-975.01C541.99,-973.09 540.94,-970.98 539.82,-968.64"/>
<polygon fill="#00876c" stroke="#00876c" points="543.08,-967.34 535.7,-959.73 536.72,-970.28 543.08,-967.34"/>
</g>
<!-- 44220&#45;&gt;44219 -->
<g id="edge10" class="edge">
<title>44220&#45;&gt;44219</title>
<path fill="none" stroke="#00876c" stroke-width="2" d="M872.27,-934.58C771.98,-984.53 741.12,-988.91 612.36,-958.01"/>
<polygon fill="#00876c" stroke="#00876c" stroke-width="2" points="604.05,-956 614.83,-953.98 606.66,-956.12 613.88,-957.87 613.77,-958.35 613.65,-958.84 606.42,-957.09 612.71,-962.73 604.05,-956"/>
</g>
<!-- 44221&#45;&gt;44219 -->
<g id="edge11" class="edge">
<title>44221&#45;&gt;44219</title>
<path fill="none" stroke="#00876c" stroke-width="2" d="M168.74,-959.42C269.86,-1001.72 303.49,-1001.69 446.47,-959.79"/>
<polygon fill="#00876c" stroke="#00876c" stroke-width="2" points="454.62,-957.38 446.3,-964.53 452.31,-958.59 445.17,-960.69 445.03,-960.21 444.89,-959.73 452.02,-957.63 443.76,-955.89 454.62,-957.38"/>
</g>
</g>
</svg>
