<?xml version="1.0" encoding="UTF-8" standalone="no"?>
<!DOCTYPE svg PUBLIC "-//W3C//DTD SVG 1.1//EN"
 "http://www.w3.org/Graphics/SVG/1.1/DTD/svg11.dtd">
<!-- Generated by graphviz version 10.0.1 (0)
 -->
<!-- Pages: 1 -->
<svg width="2423pt" height="1567pt"
 viewBox="0.00 0.00 2423.00 1567.00" xmlns="http://www.w3.org/2000/svg" xmlns:xlink="http://www.w3.org/1999/xlink">
<g id="graph0" class="graph" transform="scale(1 1) rotate(0) translate(4 1563)">
<polygon fill="white" stroke="none" points="-4,4 -4,-1563 2419,-1563 2419,4 -4,4"/>
<!-- 5 -->
<g id="node1" class="node">
<title>5</title>
<text text-anchor="start" x="1838.29" y="-300.49" font-family="Times,serif" font-size="14.00">OSI: </text>
<text text-anchor="start" x="1867.54" y="-300.49" font-family="Times,serif" font-weight="bold" font-size="14.00" fill="#8b0000">Rejected</text>
</g>
<!-- 2921 -->
<g id="node2" class="node">
<title>2921</title>
<ellipse fill="none" stroke="#dac767" cx="1684.86" cy="-580.1" rx="157.68" ry="28.99"/>
<text text-anchor="middle" x="1684.86" y="-583.3" font-family="Times,serif" font-size="14.00" fill="gray">SPDXLicense</text>
<text text-anchor="middle" x="1684.86" y="-566.8" font-family="Times,serif" font-size="14.00" fill="gray">ecdbe6560aff952822da02513527e82d</text>
</g>
<!-- 5&#45;&gt;2921 -->
<g id="edge1" class="edge">
<title>5&#45;&gt;2921</title>
<path fill="none" stroke="#dac767" d="M1871.42,-322.29C1841.64,-401.62 1831.76,-416.46 1718.52,-542.65"/>
<polygon fill="#dac767" stroke="#dac767" points="1716,-540.22 1711.93,-550 1721.21,-544.9 1716,-540.22"/>
</g>
<!-- 2922 -->
<g id="node3" class="node">
<title>2922</title>
<polygon fill="none" stroke="black" points="1345.22,-982.76 1345.22,-997.68 1263.99,-1008.22 1149.1,-1008.22 1067.87,-997.68 1067.87,-982.76 1149.1,-972.22 1263.99,-972.22 1345.22,-982.76"/>
<polygon fill="none" stroke="black" points="1349.22,-979.25 1349.22,-1001.19 1264.25,-1012.22 1148.84,-1012.22 1063.87,-1001.19 1063.87,-979.25 1148.84,-968.22 1264.25,-968.22 1349.22,-979.25"/>
<polygon fill="none" stroke="black" points="1353.22,-975.74 1353.22,-1004.7 1264.5,-1016.22 1148.59,-1016.22 1059.87,-1004.7 1059.87,-975.74 1148.59,-964.22 1264.5,-964.22 1353.22,-975.74"/>
<text text-anchor="middle" x="1206.54" y="-985.17" font-family="Times,serif" font-size="14.00">spdx:LZMA&#45;SDK&#45;9.11&#45;to&#45;9.20</text>
</g>
<!-- 2921&#45;&gt;2922 -->
<g id="edge2" class="edge">
<title>2921&#45;&gt;2922</title>
<path fill="none" stroke="#dac767" d="M1668.88,-609.41C1576.54,-778.15 1555.96,-796.43 1264.2,-958.29"/>
<polygon fill="#dac767" stroke="#dac767" points="1262.53,-955.21 1255.48,-963.12 1265.92,-961.34 1262.53,-955.21"/>
</g>
<!-- 20630 -->
<g id="node14" class="node">
<title>20630</title>
<polygon fill="none" stroke="black" points="1300.54,-1040.33 1300.54,-1055.24 1217.68,-1065.79 1100.5,-1065.79 1017.64,-1055.24 1017.64,-1040.33 1100.5,-1029.79 1217.68,-1029.79 1300.54,-1040.33"/>
<polygon fill="none" stroke="black" points="1304.54,-1036.81 1304.54,-1058.77 1217.93,-1069.79 1100.24,-1069.79 1013.64,-1058.77 1013.64,-1036.81 1100.24,-1025.79 1217.93,-1025.79 1304.54,-1036.81"/>
<text text-anchor="middle" x="1159.09" y="-1042.74" font-family="Times,serif" font-size="14.00">scancode:lzma&#45;sdk&#45;9.11&#45;to&#45;9.20</text>
</g>
<!-- 2922&#45;&gt;20630 -->
<g id="edge3" class="edge">
<title>2922&#45;&gt;20630</title>
<path fill="none" stroke="#deb256" stroke-width="2" d="M1176.23,-1016.4C1176.15,-1016.5 1176.07,-1016.59 1176,-1016.69"/>
<polygon fill="#deb256" stroke="#deb256" stroke-width="2" points="1170.72,-1023.58 1173.22,-1012.9 1171.88,-1021.24 1176.4,-1015.33 1176.8,-1015.64 1177.2,-1015.94 1172.68,-1021.85 1180.37,-1018.37 1170.72,-1023.58"/>
</g>
<!-- 51074 -->
<g id="node22" class="node">
<title>51074</title>
<polygon fill="none" stroke="#379469" points="852.09,-847.34 852.09,-862.25 738.41,-872.8 577.63,-872.8 463.94,-862.25 463.94,-847.34 577.63,-836.8 738.41,-836.8 852.09,-847.34"/>
<polygon fill="none" stroke="#379469" points="856.09,-843.7 856.09,-865.9 738.59,-876.8 577.44,-876.8 459.94,-865.9 459.94,-843.7 577.44,-832.8 738.59,-832.8 856.09,-843.7"/>
<text text-anchor="middle" x="658.02" y="-849.75" font-family="Times,serif" font-size="14.00">metaeffekt:LZMA SDK License 9.11 to 9.20</text>
</g>
<!-- 2922&#45;&gt;51074 -->
<g id="edge4" class="edge">
<title>2922&#45;&gt;51074</title>
<path fill="none" stroke="#379469" stroke-width="2" d="M1059.51,-983.69C851.48,-973.04 812.22,-959.46 699.42,-883.16"/>
<polygon fill="#379469" stroke="#379469" stroke-width="2" points="692.47,-878.43 703.27,-880.33 694.87,-879.46 701.02,-883.64 700.74,-884.05 700.46,-884.47 694.31,-880.29 698.21,-887.77 692.47,-878.43"/>
</g>
<!-- 2923 -->
<g id="node4" class="node">
<title>2923</title>
<polygon fill="none" stroke="black" points="956.94,-1113.3 956.94,-1128.21 888.36,-1138.76 791.37,-1138.76 722.79,-1128.21 722.79,-1113.3 791.37,-1102.76 888.36,-1102.76 956.94,-1113.3"/>
<polygon fill="none" stroke="black" points="960.94,-1109.87 960.94,-1131.65 888.66,-1142.76 791.07,-1142.76 718.79,-1131.65 718.79,-1109.87 791.07,-1098.76 888.66,-1098.76 960.94,-1109.87"/>
<text text-anchor="middle" x="839.87" y="-1115.71" font-family="Times,serif" font-size="14.00">LZMA&#45;SDK&#45;9.11&#45;to&#45;9.20</text>
</g>
<!-- 2923&#45;&gt;2922 -->
<g id="edge5" class="edge">
<title>2923&#45;&gt;2922</title>
<path fill="none" stroke="black" stroke-width="2" d="M961.27,-1112.71C1006.44,-1102.37 1052.26,-1078.35 1150.8,-1022.15"/>
<polygon fill="black" stroke="black" stroke-width="2" points="1158.39,-1017.82 1151.93,-1026.68 1156.41,-1019.52 1149.95,-1023.21 1149.7,-1022.78 1149.45,-1022.34 1155.91,-1018.65 1147.47,-1018.87 1158.39,-1017.82"/>
</g>
<!-- 2923&#45;&gt;20630 -->
<g id="edge6" class="edge">
<title>2923&#45;&gt;20630</title>
<path fill="none" stroke="black" stroke-width="2" d="M961.23,-1126.98C994.7,-1121.11 1032.44,-1105.66 1100.53,-1074.68"/>
<polygon fill="black" stroke="black" stroke-width="2" points="1108.12,-1071.21 1100.89,-1079.46 1106,-1072.73 1099.23,-1075.82 1099.02,-1075.36 1098.82,-1074.91 1105.58,-1071.82 1097.16,-1071.27 1108.12,-1071.21"/>
</g>
<!-- 41892 -->
<g id="node20" class="node">
<title>41892</title>
<polygon fill="none" stroke="#379469" points="1086.45,-1458.97 1086.45,-1473.88 1004.89,-1484.42 889.55,-1484.42 807.99,-1473.88 807.99,-1458.97 889.55,-1448.42 1004.89,-1448.42 1086.45,-1458.97"/>
<polygon fill="none" stroke="#379469" points="1090.45,-1455.45 1090.45,-1477.39 1005.15,-1488.42 889.29,-1488.42 803.99,-1477.39 803.99,-1455.45 889.29,-1444.42 1005.15,-1444.42 1090.45,-1455.45"/>
<text text-anchor="middle" x="947.22" y="-1461.37" font-family="Times,serif" font-size="14.00">cavil:LZMA&#45;SDK&#45;9.11&#45;to&#45;9.20</text>
</g>
<!-- 2923&#45;&gt;41892 -->
<g id="edge7" class="edge">
<title>2923&#45;&gt;41892</title>
<path fill="none" stroke="#379469" stroke-width="2" d="M841.38,-1143.04C854.39,-1333.19 858.07,-1355.96 922.09,-1435.67"/>
<polygon fill="#379469" stroke="#379469" stroke-width="2" points="927.38,-1442.2 917.59,-1437.26 925.37,-1440.52 920.7,-1434.74 921.09,-1434.43 921.48,-1434.11 926.15,-1439.89 924.59,-1431.6 927.38,-1442.2"/>
</g>
<!-- 2924 -->
<g id="node5" class="node">
<title>2924</title>
<polygon fill="none" stroke="black" points="1040.89,-1273.96 1040.89,-1288.87 929.15,-1299.41 771.13,-1299.41 659.38,-1288.87 659.38,-1273.96 771.13,-1263.41 929.15,-1263.41 1040.89,-1273.96"/>
<polygon fill="none" stroke="black" points="1044.89,-1270.32 1044.89,-1292.51 929.34,-1303.41 770.94,-1303.41 655.38,-1292.51 655.38,-1270.32 770.94,-1259.41 929.34,-1259.41 1044.89,-1270.32"/>
<text text-anchor="middle" x="850.14" y="-1276.36" font-family="Times,serif" font-size="14.00">LZMA SDK License (versions 9.11 to 9.20)</text>
</g>
<!-- 2924&#45;&gt;2922 -->
<g id="edge8" class="edge">
<title>2924&#45;&gt;2922</title>
<path fill="none" stroke="#dac767" stroke-width="2" d="M897.95,-1258.99C985.12,-1216.85 1012.6,-1191.28 1173.31,-1024.7"/>
<polygon fill="#dac767" stroke="#dac767" stroke-width="2" points="1179.37,-1018.41 1175.67,-1028.73 1177.95,-1020.6 1172.79,-1025.96 1172.43,-1025.61 1172.07,-1025.26 1177.23,-1019.91 1169.19,-1022.48 1179.37,-1018.41"/>
</g>
<!-- 2924&#45;&gt;20630 -->
<g id="edge9" class="edge">
<title>2924&#45;&gt;20630</title>
<path fill="none" stroke="#deb256" stroke-width="2" d="M903.77,-1258.94C969.62,-1229.48 998.31,-1203.97 1128.3,-1077.72"/>
<polygon fill="#deb256" stroke="#deb256" stroke-width="2" points="1134.44,-1071.75 1130.4,-1081.95 1132.95,-1073.9 1127.62,-1079.08 1127.27,-1078.72 1126.92,-1078.36 1132.25,-1073.18 1124.13,-1075.49 1134.44,-1071.75"/>
</g>
<!-- 67674 -->
<g id="node25" class="node">
<title>67674</title>
<polygon fill="none" stroke="#00876c" points="1565.57,-1092.7 1565.57,-1107.62 1441.17,-1118.16 1265.25,-1118.16 1140.85,-1107.62 1140.85,-1092.7 1265.25,-1082.16 1441.17,-1082.16 1565.57,-1092.7"/>
<polygon fill="none" stroke="#00876c" points="1569.57,-1089.03 1569.57,-1111.29 1441.34,-1122.16 1265.08,-1122.16 1136.85,-1111.29 1136.85,-1089.03 1265.08,-1078.16 1441.34,-1078.16 1569.57,-1089.03"/>
<text text-anchor="middle" x="1353.21" y="-1095.11" font-family="Times,serif" font-size="14.00">spdx:LZMA SDK License (versions 9.11 to 9.20)</text>
</g>
<!-- 2924&#45;&gt;67674 -->
<g id="edge10" class="edge">
<title>2924&#45;&gt;67674</title>
<path fill="none" stroke="#00876c" stroke-width="2" d="M1045.13,-1278.95C1113.58,-1264.31 1175.32,-1224.07 1312.24,-1128.74"/>
<polygon fill="#00876c" stroke="#00876c" stroke-width="2" points="1319.37,-1123.77 1313.74,-1133.18 1317.55,-1125.64 1311.45,-1129.9 1311.17,-1129.49 1310.88,-1129.08 1316.98,-1124.82 1308.59,-1125.79 1319.37,-1123.77"/>
</g>
<!-- 2925 -->
<g id="node6" class="node">
<title>2925</title>
<text text-anchor="middle" x="2092.66" y="-219.36" font-family="Times,serif" font-size="14.00">SPDXLicense:</text>
<text text-anchor="middle" x="2092.66" y="-202.86" font-family="Times,serif" font-size="14.00">The license text currently displayed on the 7&#45;zip SDK website is not the same as</text>
<text text-anchor="middle" x="2092.66" y="-186.36" font-family="Times,serif" font-size="14.00">any of the lzma.txt file in the root folders of the .tar.bz SDK distributions</text>
<text text-anchor="middle" x="2092.66" y="-169.86" font-family="Times,serif" font-size="14.00">(versions 922 and below) that are hosted on SourceForge, nor is it the same as</text>
<text text-anchor="middle" x="2092.66" y="-153.36" font-family="Times,serif" font-size="14.00">the .7z distributions (versions 935 and above) which shifted the license text to</text>
<text text-anchor="start" x="1872.53" y="-136.86" font-family="Times,serif" font-size="14.00">DOC</text>
<text text-anchor="middle" x="2092.66" y="-120.36" font-family="Times,serif" font-size="14.00">zma&#45;sdk.txt. This license applies to versions between 9.11 and 9.20</text>
<text text-anchor="middle" x="2092.66" y="-103.86" font-family="Times,serif" font-size="14.00">(inclusive).</text>
</g>
<!-- 2925&#45;&gt;2921 -->
<g id="edge11" class="edge">
<title>2925&#45;&gt;2921</title>
<path fill="none" stroke="#dac767" d="M2042.61,-236.37C1981.74,-318.09 1937.33,-358.67 1726.18,-543.87"/>
<polygon fill="#dac767" stroke="#dac767" points="1723.97,-541.15 1718.76,-550.37 1728.59,-546.41 1723.97,-541.15"/>
</g>
<!-- 2926 -->
<g id="node7" class="node">
<title>2926</title>
<text text-anchor="middle" x="1637.69" y="-208.88" font-family="Times,serif" font-size="14.00">$TEXT</text>
</g>
<!-- 2926&#45;&gt;2921 -->
<g id="edge12" class="edge">
<title>2926&#45;&gt;2921</title>
<path fill="none" stroke="#dac767" d="M1648.21,-231.77C1713.12,-342.18 1716.11,-358.23 1690.63,-539.48"/>
<polygon fill="#dac767" stroke="#dac767" points="1687.17,-538.9 1689.24,-549.3 1694.1,-539.88 1687.17,-538.9"/>
</g>
<!-- 2927 -->
<g id="node8" class="node">
<title>2927</title>
<text text-anchor="middle" x="1624.7" y="-12.64" font-family="Times,serif" font-size="14.00">$TEXT</text>
</g>
<!-- 2927&#45;&gt;2926 -->
<g id="edge13" class="edge">
<title>2927&#45;&gt;2926</title>
<path fill="none" stroke="#dac767" d="M1632.29,-35.68C1650.44,-79.72 1650.94,-93.58 1640.92,-184.91"/>
<polygon fill="#dac767" stroke="#dac767" points="1637.46,-184.31 1639.84,-194.63 1644.42,-185.07 1637.46,-184.31"/>
</g>
<!-- 2928 -->
<g id="node9" class="node">
<title>2928</title>
<text text-anchor="middle" x="2014.94" y="-810.56" font-family="Times,serif" font-size="14.00">https://www.7&#45;zip.org/sdk.html</text>
</g>
<!-- 2928&#45;&gt;2921 -->
<g id="edge14" class="edge">
<title>2928&#45;&gt;2921</title>
<path fill="none" stroke="#dac767" d="M2003.11,-797.75C1938.15,-699.99 1921.78,-684.9 1756.66,-611.67"/>
<polygon fill="#dac767" stroke="#dac767" points="1758.56,-608.68 1748,-607.83 1755.73,-615.08 1758.56,-608.68"/>
</g>
<!-- 20629 -->
<g id="node13" class="node">
<title>20629</title>
<ellipse fill="none" stroke="#deb256" cx="1785.09" cy="-1106.28" rx="161.4" ry="28.99"/>
<text text-anchor="middle" x="1785.09" y="-1109.48" font-family="Times,serif" font-size="14.00" fill="gray">ScancodeData</text>
<text text-anchor="middle" x="1785.09" y="-1092.98" font-family="Times,serif" font-size="14.00" fill="gray">5e07ae99789063be7b0d507de3d6d722</text>
</g>
<!-- 2928&#45;&gt;20629 -->
<g id="edge15" class="edge">
<title>2928&#45;&gt;20629</title>
<path fill="none" stroke="#deb256" d="M2010.29,-833.22C1975.51,-964.57 1966.53,-981.93 1836.01,-1071.61"/>
<polygon fill="#deb256" stroke="#deb256" points="1834.34,-1068.51 1828.07,-1077.05 1838.3,-1074.28 1834.34,-1068.51"/>
</g>
<!-- 2929 -->
<g id="node10" class="node">
<title>2929</title>
<text text-anchor="middle" x="2194.29" y="-761.4" font-family="Times,serif" font-size="14.00">https://sourceforge.net/projects/sevenzip/files/LZMA%20SDK/</text>
</g>
<!-- 2929&#45;&gt;2921 -->
<g id="edge16" class="edge">
<title>2929&#45;&gt;2921</title>
<path fill="none" stroke="#dac767" d="M2170.19,-748.7C2061.39,-668.91 2032.68,-655.66 1799.17,-604.72"/>
<polygon fill="#dac767" stroke="#dac767" points="1800.25,-601.38 1789.74,-602.67 1798.76,-608.22 1800.25,-601.38"/>
</g>
<!-- 2929&#45;&gt;20629 -->
<g id="edge17" class="edge">
<title>2929&#45;&gt;20629</title>
<path fill="none" stroke="#deb256" d="M2184.89,-784.32C2101.07,-943.4 2086.14,-960.22 1852.29,-1073.79"/>
<polygon fill="#deb256" stroke="#deb256" points="1850.91,-1070.57 1843.44,-1078.09 1853.96,-1076.87 1850.91,-1070.57"/>
</g>
<!-- 8023 -->
<g id="node11" class="node">
<title>8023</title>
<polygon fill="none" stroke="black" points="325.44,-738.64 325.44,-753.55 282.82,-764.09 222.54,-764.09 179.92,-753.55 179.92,-738.64 222.54,-728.09 282.82,-728.09 325.44,-738.64"/>
<text text-anchor="middle" x="252.68" y="-741.04" font-family="Times,serif" font-size="14.00">Public Domain</text>
</g>
<!-- 8023&#45;&gt;51074 -->
<g id="edge18" class="edge">
<title>8023&#45;&gt;51074</title>
<path fill="none" stroke="#379469" stroke-dasharray="5,2" d="M288.49,-763.07C359.03,-795.98 390.9,-805.47 538.33,-832.92"/>
<polygon fill="#379469" stroke="#379469" points="547.94,-834.7 537.29,-837.3 544.23,-834.01 538.11,-832.88 538.11,-832.88 538.11,-832.88 544.23,-834.01 538.93,-828.45 547.94,-834.7"/>
</g>
<!-- 12813 -->
<g id="node12" class="node">
<title>12813</title>
<text text-anchor="middle" x="1912.91" y="-759.65" font-family="Times,serif" font-size="14.00">LicenseType Public Domain</text>
</g>
<!-- 12813&#45;&gt;20629 -->
<g id="edge19" class="edge">
<title>12813&#45;&gt;20629</title>
<path fill="none" stroke="#deb256" d="M1913.57,-782.56C1919.16,-937.21 1916.16,-955.45 1817.98,-1068.67"/>
<polygon fill="#deb256" stroke="#deb256" points="1815.34,-1066.37 1811.42,-1076.21 1820.62,-1070.96 1815.34,-1066.37"/>
</g>
<!-- 20629&#45;&gt;20630 -->
<g id="edge20" class="edge">
<title>20629&#45;&gt;20630</title>
<path fill="none" stroke="#deb256" d="M1695.52,-1130.76C1559.29,-1165.1 1505.56,-1154.84 1238.26,-1072.34"/>
<polygon fill="#deb256" stroke="#deb256" points="1239.46,-1069.05 1228.88,-1069.44 1237.4,-1075.73 1239.46,-1069.05"/>
</g>
<!-- 20630&#45;&gt;2922 -->
<g id="edge21" class="edge">
<title>20630&#45;&gt;2922</title>
<path fill="none" stroke="#00876c" stroke-width="2" d="M1186.35,-1025.31C1186.42,-1025.22 1186.5,-1025.13 1186.58,-1025.04"/>
<polygon fill="#00876c" stroke="#00876c" stroke-width="2" points="1191.93,-1018.35 1189.2,-1028.96 1190.72,-1020.66 1186.07,-1026.46 1185.68,-1026.15 1185.29,-1025.84 1189.94,-1020.03 1182.17,-1023.34 1191.93,-1018.35"/>
</g>
<!-- 20630&#45;&gt;51074 -->
<g id="edge22" class="edge">
<title>20630&#45;&gt;51074</title>
<path fill="none" stroke="#379469" stroke-dasharray="5,2" d="M1041.48,-1032.79C831.67,-1004.79 799.37,-988.21 689.69,-884.88"/>
<polygon fill="#379469" stroke="#379469" points="682.54,-878.12 692.9,-881.72 685.29,-880.72 689.81,-884.99 689.81,-884.99 689.81,-884.99 685.29,-880.72 686.72,-888.26 682.54,-878.12"/>
</g>
<!-- 20631 -->
<g id="node15" class="node">
<title>20631</title>
<text text-anchor="middle" x="1941.89" y="-1401.11" font-family="Times,serif" font-size="14.00">$TEXT</text>
</g>
<!-- 20631&#45;&gt;20629 -->
<g id="edge23" class="edge">
<title>20631&#45;&gt;20629</title>
<path fill="none" stroke="#deb256" d="M1938.07,-1388.45C1919.35,-1302.47 1911.86,-1287.28 1811.73,-1144.26"/>
<polygon fill="#deb256" stroke="#deb256" points="1814.79,-1142.53 1806.18,-1136.35 1809.05,-1146.55 1814.79,-1142.53"/>
</g>
<!-- 35433 -->
<g id="node16" class="node">
<title>35433</title>
<text text-anchor="middle" x="2121.36" y="-1356.99" font-family="Times,serif" font-size="14.00">LicenseTag (ScopedLicenseTag &quot;OrtLicenseCategorization&quot; &quot;include&#45;in&#45;notice&#45;file&quot; NoLicenseTagText)</text>
</g>
<!-- 35801 -->
<g id="node18" class="node">
<title>35801</title>
<ellipse fill="none" stroke="#d43d51" cx="1552.53" cy="-1039.75" rx="153.44" ry="28.99"/>
<text text-anchor="middle" x="1552.53" y="-1042.95" font-family="Times,serif" font-size="14.00" fill="gray">OrtLicenseCategorization</text>
<text text-anchor="middle" x="1552.53" y="-1026.45" font-family="Times,serif" font-size="14.00" fill="gray">f2dd194a2ef834423f05c2f1e6d9c89f</text>
</g>
<!-- 35433&#45;&gt;35801 -->
<g id="edge24" class="edge">
<title>35433&#45;&gt;35801</title>
<path fill="none" stroke="#d43d51" d="M2085.8,-1344.14C1951.33,-1276.34 1920.43,-1258.62 1609.43,-1073.6"/>
<polygon fill="#d43d51" stroke="#d43d51" points="1611.35,-1070.68 1600.97,-1068.57 1607.78,-1076.69 1611.35,-1070.68"/>
</g>
<!-- 35455 -->
<g id="node17" class="node">
<title>35455</title>
<text text-anchor="middle" x="1646.96" y="-976.7" font-family="Times,serif" font-size="14.00">LicenseTag (ScopedLicenseTag &quot;OrtLicenseCategorization&quot; &quot;public&#45;domain&quot; NoLicenseTagText)</text>
</g>
<!-- 35455&#45;&gt;35801 -->
<g id="edge25" class="edge">
<title>35455&#45;&gt;35801</title>
<path fill="none" stroke="#d43d51" d="M1634.22,-999.56C1632.59,-1001.72 1631.02,-1003.69 1629.48,-1005.52"/>
<polygon fill="#d43d51" stroke="#d43d51" points="1627.27,-1002.77 1622.84,-1012.4 1632.31,-1007.63 1627.27,-1002.77"/>
</g>
<!-- 35801&#45;&gt;2922 -->
<g id="edge26" class="edge">
<title>35801&#45;&gt;2922</title>
<path fill="none" stroke="#d43d51" d="M1438.3,-1059.43C1399.69,-1059.22 1360.48,-1047.62 1284.03,-1019.38"/>
<polygon fill="#d43d51" stroke="#d43d51" points="1285.51,-1016.2 1274.92,-1016 1283.08,-1022.76 1285.51,-1016.2"/>
</g>
<!-- 41891 -->
<g id="node19" class="node">
<title>41891</title>
<ellipse fill="none" stroke="#379469" cx="924.55" cy="-1530.33" rx="160.34" ry="28.99"/>
<text text-anchor="middle" x="924.55" y="-1533.53" font-family="Times,serif" font-size="14.00" fill="gray">CavilLicenseChange</text>
<text text-anchor="middle" x="924.55" y="-1517.03" font-family="Times,serif" font-size="14.00" fill="gray">4bd5aab3d1d17bc056158e6809f56577</text>
</g>
<!-- 41891&#45;&gt;41892 -->
<g id="edge27" class="edge">
<title>41891&#45;&gt;41892</title>
<path fill="none" stroke="#379469" d="M934.69,-1501.18C934.88,-1500.64 935.08,-1500.1 935.28,-1499.53"/>
<polygon fill="#379469" stroke="#379469" points="938.53,-1500.82 938.63,-1490.23 931.95,-1498.45 938.53,-1500.82"/>
</g>
<!-- 51073 -->
<g id="node21" class="node">
<title>51073</title>
<ellipse fill="none" stroke="#379469" cx="274.91" cy="-492.69" rx="158.22" ry="28.99"/>
<text text-anchor="middle" x="274.91" y="-495.89" font-family="Times,serif" font-size="14.00" fill="gray">MetaeffektLicense</text>
<text text-anchor="middle" x="274.91" y="-479.39" font-family="Times,serif" font-size="14.00" fill="gray">7a17c26e76d64fd34dcf73b785e2948b</text>
</g>
<!-- 51073&#45;&gt;51074 -->
<g id="edge28" class="edge">
<title>51073&#45;&gt;51074</title>
<path fill="none" stroke="#379469" d="M290.32,-521.99C359.26,-652.1 378.52,-669.47 614.83,-826.19"/>
<polygon fill="#379469" stroke="#379469" points="612.89,-829.1 623.16,-831.71 616.76,-823.27 612.89,-829.1"/>
</g>
<!-- 51075 -->
<g id="node23" class="node">
<title>51075</title>
<polygon fill="none" stroke="#379469" points="300,-976.46 300,-991.38 213.25,-1001.92 90.56,-1001.92 3.81,-991.38 3.81,-976.46 90.56,-965.92 213.25,-965.92 300,-976.46"/>
<polygon fill="none" stroke="#379469" points="304,-972.92 304,-994.92 213.49,-1005.92 90.32,-1005.92 -0.19,-994.92 -0.19,-972.92 90.32,-961.92 213.49,-961.92 304,-972.92"/>
<text text-anchor="middle" x="151.9" y="-978.87" font-family="Times,serif" font-size="14.00">LZMA SDK License 9.11 to 9.20</text>
</g>
<!-- 51075&#45;&gt;51074 -->
<g id="edge29" class="edge">
<title>51075&#45;&gt;51074</title>
<path fill="none" stroke="#379469" stroke-width="2" d="M221.56,-962.45C301.61,-938.25 351.89,-925.85 555.19,-878.64"/>
<polygon fill="#379469" stroke="#379469" stroke-width="2" points="563.56,-876.7 554.83,-883.34 561.17,-877.77 553.93,-879.45 553.82,-878.96 553.7,-878.47 560.95,-876.79 552.8,-874.58 563.56,-876.7"/>
</g>
<!-- 67673 -->
<g id="node24" class="node">
<title>67673</title>
<ellipse fill="none" stroke="#00876c" cx="1271.46" cy="-1456.18" rx="159.28" ry="28.99"/>
<text text-anchor="middle" x="1271.46" y="-1459.38" font-family="Times,serif" font-size="14.00" fill="gray">LicenseLynx</text>
<text text-anchor="middle" x="1271.46" y="-1442.88" font-family="Times,serif" font-size="14.00" fill="gray">84e77ef02b6b29e38e6655c4a7b41d41</text>
</g>
<!-- 67673&#45;&gt;2922 -->
<g id="edge30" class="edge">
<title>67673&#45;&gt;2922</title>
<path fill="none" stroke="#00876c" d="M1266.05,-1426.95C1246.33,-1320.02 1242.99,-1294.6 1211.04,-1027.73"/>
<polygon fill="#00876c" stroke="#00876c" points="1214.53,-1027.51 1209.87,-1018 1207.58,-1028.34 1214.53,-1027.51"/>
</g>
<!-- 67674&#45;&gt;2922 -->
<g id="edge31" class="edge">
<title>67674&#45;&gt;2922</title>
<path fill="none" stroke="#00876c" stroke-width="2" d="M1296.01,-1077.83C1280.35,-1068.09 1265.15,-1053.4 1238.39,-1024.74"/>
<polygon fill="#00876c" stroke="#00876c" stroke-width="2" points="1232.59,-1018.5 1242.7,-1022.76 1234.7,-1020.03 1239.77,-1025.48 1239.4,-1025.82 1239.03,-1026.16 1233.97,-1020.72 1236.1,-1028.89 1232.59,-1018.5"/>
</g>
</g>
</svg>
