<?xml version="1.0" encoding="UTF-8" standalone="no"?>
<!DOCTYPE svg PUBLIC "-//W3C//DTD SVG 1.1//EN"
 "http://www.w3.org/Graphics/SVG/1.1/DTD/svg11.dtd">
<!-- Generated by graphviz version 10.0.1 (0)
 -->
<!-- Pages: 1 -->
<svg width="2776pt" height="2107pt"
 viewBox="0.00 0.00 2776.00 2107.00" xmlns="http://www.w3.org/2000/svg" xmlns:xlink="http://www.w3.org/1999/xlink">
<g id="graph0" class="graph" transform="scale(1 1) rotate(0) translate(4 2103)">
<polygon fill="white" stroke="none" points="-4,4 -4,-2103 2772,-2103 2772,4 -4,4"/>
<!-- 5 -->
<g id="node1" class="node">
<title>5</title>
<text text-anchor="start" x="1397.3" y="-271.48" font-family="Times,serif" font-size="14.00">OSI: </text>
<text text-anchor="start" x="1426.55" y="-271.48" font-family="Times,serif" font-weight="bold" font-size="14.00" fill="#8b0000">Rejected</text>
</g>
<!-- 3262 -->
<g id="node2" class="node">
<title>3262</title>
<ellipse fill="none" stroke="#dac767" cx="1433.17" cy="-627.23" rx="155.56" ry="28.99"/>
<text text-anchor="middle" x="1433.17" y="-630.43" font-family="Times,serif" font-size="14.00" fill="gray">SPDXLicense</text>
<text text-anchor="middle" x="1433.17" y="-613.93" font-family="Times,serif" font-size="14.00" fill="gray">54e9532f27373c35aaab55bfb5f3e8a0</text>
</g>
<!-- 5&#45;&gt;3262 -->
<g id="edge1" class="edge">
<title>5&#45;&gt;3262</title>
<path fill="none" stroke="#dac767" d="M1437.73,-293.38C1440.87,-376.65 1440.67,-393.94 1434.48,-586.55"/>
<polygon fill="#dac767" stroke="#dac767" points="1430.99,-586.35 1434.16,-596.46 1437.98,-586.58 1430.99,-586.35"/>
</g>
<!-- 3263 -->
<g id="node3" class="node">
<title>3263</title>
<polygon fill="none" stroke="black" points="1441.57,-1204.87 1441.57,-1219.78 1374.29,-1230.32 1279.14,-1230.32 1211.85,-1219.78 1211.85,-1204.87 1279.14,-1194.32 1374.29,-1194.32 1441.57,-1204.87"/>
<polygon fill="none" stroke="black" points="1445.57,-1201.45 1445.57,-1223.2 1374.6,-1234.32 1278.82,-1234.32 1207.85,-1223.2 1207.85,-1201.45 1278.82,-1190.32 1374.6,-1190.32 1445.57,-1201.45"/>
<polygon fill="none" stroke="black" points="1449.57,-1198.02 1449.57,-1226.62 1374.91,-1238.32 1278.51,-1238.32 1203.85,-1226.62 1203.85,-1198.02 1278.51,-1186.32 1374.91,-1186.32 1449.57,-1198.02"/>
<text text-anchor="middle" x="1326.71" y="-1207.27" font-family="Times,serif" font-size="14.00">spdx:Mackerras&#45;3&#45;Clause</text>
</g>
<!-- 3262&#45;&gt;3263 -->
<g id="edge2" class="edge">
<title>3262&#45;&gt;3263</title>
<path fill="none" stroke="#dac767" d="M1423.58,-656.54C1377.64,-797.48 1373.51,-823.72 1331.24,-1174.7"/>
<polygon fill="#dac767" stroke="#dac767" points="1327.78,-1174.13 1330.06,-1184.48 1334.73,-1174.97 1327.78,-1174.13"/>
</g>
<!-- 8991 -->
<g id="node14" class="node">
<title>8991</title>
<polygon fill="none" stroke="#e09d4b" points="1185.25,-1408.96 1185.25,-1423.87 1112.78,-1434.41 1010.28,-1434.41 937.81,-1423.87 937.81,-1408.96 1010.28,-1398.41 1112.78,-1398.41 1185.25,-1408.96"/>
<polygon fill="none" stroke="#e09d4b" points="1189.25,-1405.5 1189.25,-1427.33 1113.07,-1438.41 1009.99,-1438.41 933.81,-1427.33 933.81,-1405.5 1009.99,-1394.41 1113.07,-1394.41 1189.25,-1405.5"/>
<text text-anchor="middle" x="1061.53" y="-1411.36" font-family="Times,serif" font-size="14.00">Fedora:Mackerras&#45;3&#45;Clause</text>
</g>
<!-- 3263&#45;&gt;8991 -->
<g id="edge3" class="edge">
<title>3263&#45;&gt;8991</title>
<path fill="none" stroke="#e09d4b" stroke-width="2" d="M1297.82,-1238.66C1189.89,-1336.97 1160.42,-1362.61 1114.63,-1388.53"/>
<polygon fill="#e09d4b" stroke="#e09d4b" stroke-width="2" points="1107.03,-1392.74 1113.6,-1383.96 1109.03,-1391.06 1115.54,-1387.46 1115.78,-1387.89 1116.02,-1388.33 1109.52,-1391.93 1117.96,-1391.83 1107.03,-1392.74"/>
</g>
<!-- 24302 -->
<g id="node16" class="node">
<title>24302</title>
<polygon fill="none" stroke="black" points="986.49,-878.2 986.49,-893.11 908.5,-903.65 798.2,-903.65 720.21,-893.11 720.21,-878.2 798.2,-867.65 908.5,-867.65 986.49,-878.2"/>
<polygon fill="none" stroke="black" points="990.49,-874.7 990.49,-896.6 908.77,-907.65 797.93,-907.65 716.21,-896.6 716.21,-874.7 797.93,-863.65 908.77,-863.65 990.49,-874.7"/>
<text text-anchor="middle" x="853.35" y="-880.6" font-family="Times,serif" font-size="14.00">scancode:paul&#45;mackerras&#45;new</text>
</g>
<!-- 3263&#45;&gt;24302 -->
<g id="edge4" class="edge">
<title>3263&#45;&gt;24302</title>
<path fill="none" stroke="#deb256" stroke-width="2" d="M1295.14,-1186.06C1214.16,-1125.43 998.85,-976.63 901.86,-914.02"/>
<polygon fill="#deb256" stroke="#deb256" stroke-width="2" points="894.63,-909.38 905.47,-910.99 897.06,-910.34 903.31,-914.36 903.04,-914.78 902.77,-915.2 896.51,-911.18 900.61,-918.56 894.63,-909.38"/>
</g>
<!-- 3264 -->
<g id="node4" class="node">
<title>3264</title>
<polygon fill="none" stroke="black" points="1093.87,-1549.2 1093.87,-1564.12 1039.25,-1574.66 961.99,-1574.66 907.37,-1564.12 907.37,-1549.2 961.99,-1538.66 1039.25,-1538.66 1093.87,-1549.2"/>
<polygon fill="none" stroke="black" points="1097.87,-1545.9 1097.87,-1567.42 1039.63,-1578.66 961.61,-1578.66 903.37,-1567.42 903.37,-1545.9 961.61,-1534.66 1039.63,-1534.66 1097.87,-1545.9"/>
<text text-anchor="middle" x="1000.62" y="-1551.61" font-family="Times,serif" font-size="14.00">Mackerras&#45;3&#45;Clause</text>
</g>
<!-- 3264&#45;&gt;3263 -->
<g id="edge5" class="edge">
<title>3264&#45;&gt;3263</title>
<path fill="none" stroke="black" stroke-width="2" d="M1027.24,-1534.31C1108.64,-1465.65 1128.26,-1444.13 1297.12,-1246.9"/>
<polygon fill="black" stroke="black" stroke-width="2" points="1302.64,-1240.44 1299.56,-1250.97 1301.36,-1242.72 1296.52,-1248.37 1296.14,-1248.04 1295.76,-1247.72 1300.6,-1242.07 1292.72,-1245.11 1302.64,-1240.44"/>
</g>
<!-- 3264&#45;&gt;8991 -->
<g id="edge6" class="edge">
<title>3264&#45;&gt;8991</title>
<path fill="none" stroke="#e09d4b" stroke-width="2" d="M1006.27,-1534.16C1012.49,-1511.29 1018.89,-1497.38 1044.48,-1448.71"/>
<polygon fill="#e09d4b" stroke="#e09d4b" stroke-width="2" points="1048.54,-1441.01 1047.86,-1451.95 1047.78,-1443.51 1044.32,-1450.09 1043.88,-1449.86 1043.43,-1449.62 1046.9,-1443.04 1039.89,-1447.76 1048.54,-1441.01"/>
</g>
<!-- 41896 -->
<g id="node28" class="node">
<title>41896</title>
<polygon fill="none" stroke="#379469" points="843.08,-1853.36 843.08,-1868.27 775.48,-1878.81 679.87,-1878.81 612.26,-1868.27 612.26,-1853.36 679.87,-1842.81 775.48,-1842.81 843.08,-1853.36"/>
<polygon fill="none" stroke="#379469" points="847.08,-1849.93 847.08,-1871.69 775.79,-1882.81 679.56,-1882.81 608.26,-1871.69 608.26,-1849.93 679.56,-1838.81 775.79,-1838.81 847.08,-1849.93"/>
<text text-anchor="middle" x="727.67" y="-1855.76" font-family="Times,serif" font-size="14.00">cavil:Mackerras&#45;3&#45;Clause</text>
</g>
<!-- 3264&#45;&gt;41896 -->
<g id="edge7" class="edge">
<title>3264&#45;&gt;41896</title>
<path fill="none" stroke="#379469" stroke-width="2" d="M981.32,-1578.97C835.72,-1747.26 814.17,-1771.88 757.01,-1830.73"/>
<polygon fill="#379469" stroke="#379469" stroke-width="2" points="751.16,-1836.74 754.91,-1826.43 752.59,-1834.55 757.78,-1829.22 758.14,-1829.57 758.5,-1829.92 753.31,-1835.25 761.36,-1832.71 751.16,-1836.74"/>
</g>
<!-- 3265 -->
<g id="node5" class="node">
<title>3265</title>
<polygon fill="none" stroke="black" points="1804.9,-1354.24 1804.9,-1369.15 1730.81,-1379.69 1626.02,-1379.69 1551.92,-1369.15 1551.92,-1354.24 1626.02,-1343.69 1730.81,-1343.69 1804.9,-1354.24"/>
<polygon fill="none" stroke="black" points="1808.9,-1350.77 1808.9,-1372.62 1731.09,-1383.69 1625.73,-1383.69 1547.92,-1372.62 1547.92,-1350.77 1625.73,-1339.69 1731.09,-1339.69 1808.9,-1350.77"/>
<text text-anchor="middle" x="1678.41" y="-1356.64" font-family="Times,serif" font-size="14.00">Mackerras 3&#45;Clause License</text>
</g>
<!-- 3265&#45;&gt;3263 -->
<g id="edge8" class="edge">
<title>3265&#45;&gt;3263</title>
<path fill="none" stroke="#dac767" stroke-width="2" d="M1558.23,-1348.84C1512.91,-1336.34 1469.6,-1309.3 1374.53,-1244.85"/>
<polygon fill="#dac767" stroke="#dac767" stroke-width="2" points="1367.49,-1240.08 1378.3,-1241.97 1369.9,-1241.1 1376.05,-1245.28 1375.77,-1245.69 1375.49,-1246.11 1369.33,-1241.93 1373.24,-1249.42 1367.49,-1240.08"/>
</g>
<!-- 67843 -->
<g id="node32" class="node">
<title>67843</title>
<polygon fill="none" stroke="#00876c" points="1823.92,-1406.57 1823.92,-1421.48 1737.16,-1432.02 1614.48,-1432.02 1527.72,-1421.48 1527.72,-1406.57 1614.48,-1396.02 1737.16,-1396.02 1823.92,-1406.57"/>
<polygon fill="none" stroke="#00876c" points="1827.92,-1403.02 1827.92,-1425.02 1737.41,-1436.02 1614.24,-1436.02 1523.72,-1425.02 1523.72,-1403.02 1614.24,-1392.02 1737.41,-1392.02 1827.92,-1403.02"/>
<text text-anchor="middle" x="1675.82" y="-1408.97" font-family="Times,serif" font-size="14.00">spdx:Mackerras 3&#45;Clause License</text>
</g>
<!-- 3265&#45;&gt;67843 -->
<g id="edge9" class="edge">
<title>3265&#45;&gt;67843</title>
<path fill="none" stroke="#00876c" stroke-width="2" d="M1681.78,-1383.97C1681.79,-1384.06 1681.8,-1384.15 1681.81,-1384.24"/>
<polygon fill="#00876c" stroke="#00876c" stroke-width="2" points="1682.14,-1389.11 1676.97,-1379.44 1681.47,-1386.59 1680.96,-1379.17 1681.46,-1379.13 1681.96,-1379.1 1682.47,-1386.52 1685.95,-1378.83 1682.14,-1389.11"/>
</g>
<!-- 3266 -->
<g id="node6" class="node">
<title>3266</title>
<text text-anchor="middle" x="1553.24" y="-56.94" font-family="Times,serif" font-size="14.00">SPDXLicense:</text>
<text text-anchor="middle" x="1553.24" y="-40.44" font-family="Times,serif" font-size="14.00">This is similar to Mackerras&#45;3&#45;Clause&#45;acknowledgment but has the binary clause</text>
<text text-anchor="middle" x="1553.24" y="-23.94" font-family="Times,serif" font-size="14.00">and removes the acknowledgement clause. The grants are similar to BSD&#45;3&#45;Clause,</text>
<text text-anchor="middle" x="1553.24" y="-7.44" font-family="Times,serif" font-size="14.00">but with a different disclaimer.</text>
</g>
<!-- 3266&#45;&gt;3262 -->
<g id="edge10" class="edge">
<title>3266&#45;&gt;3262</title>
<path fill="none" stroke="#dac767" d="M1544.45,-74.2C1512.11,-210.39 1505.89,-242.08 1440.79,-586.86"/>
<polygon fill="#dac767" stroke="#dac767" points="1437.4,-585.97 1438.98,-596.45 1444.28,-587.27 1437.4,-585.97"/>
</g>
<!-- 3267 -->
<g id="node7" class="node">
<title>3267</title>
<text text-anchor="middle" x="1719.19" y="-350.45" font-family="Times,serif" font-size="14.00">$TEXT</text>
</g>
<!-- 3267&#45;&gt;3262 -->
<g id="edge11" class="edge">
<title>3267&#45;&gt;3262</title>
<path fill="none" stroke="#dac767" d="M1690.78,-370.42C1606.83,-415.06 1589.29,-432.77 1463.25,-589.73"/>
<polygon fill="#dac767" stroke="#dac767" points="1460.85,-587.12 1457.32,-597.11 1466.31,-591.5 1460.85,-587.12"/>
</g>
<!-- 3268 -->
<g id="node8" class="node">
<title>3268</title>
<text text-anchor="middle" x="1856.6" y="-218.8" font-family="Times,serif" font-size="14.00">$TEXT</text>
</g>
<!-- 3268&#45;&gt;3267 -->
<g id="edge12" class="edge">
<title>3268&#45;&gt;3267</title>
<path fill="none" stroke="#dac767" d="M1829.1,-241.74C1805.06,-258.44 1790.72,-273.54 1742.22,-329.08"/>
<polygon fill="#dac767" stroke="#dac767" points="1739.74,-326.6 1735.8,-336.43 1745.01,-331.2 1739.74,-326.6"/>
</g>
<!-- 3269 -->
<g id="node9" class="node">
<title>3269</title>
<text text-anchor="middle" x="984.27" y="-300.66" font-family="Times,serif" font-size="14.00">https://github.com/ppp&#45;project/ppp/blob/master/pppd/chap_ms.c#L6&#45;L28</text>
</g>
<!-- 3269&#45;&gt;3262 -->
<g id="edge13" class="edge">
<title>3269&#45;&gt;3262</title>
<path fill="none" stroke="#dac767" d="M1046.13,-323.71C1173.21,-362.31 1204.4,-389.58 1397.66,-590.3"/>
<polygon fill="#dac767" stroke="#dac767" points="1394.98,-592.57 1404.44,-597.35 1400.03,-587.72 1394.98,-592.57"/>
</g>
<!-- 24301 -->
<g id="node15" class="node">
<title>24301</title>
<ellipse fill="none" stroke="#deb256" cx="475.76" cy="-433.69" rx="160.87" ry="28.99"/>
<text text-anchor="middle" x="475.76" y="-436.89" font-family="Times,serif" font-size="14.00" fill="gray">ScancodeData</text>
<text text-anchor="middle" x="475.76" y="-420.39" font-family="Times,serif" font-size="14.00" fill="gray">e1806758202fbbe252655262bd91c796</text>
</g>
<!-- 3269&#45;&gt;24301 -->
<g id="edge14" class="edge">
<title>3269&#45;&gt;24301</title>
<path fill="none" stroke="#deb256" d="M776.83,-301.47C660.53,-304.42 617.94,-326.04 522.14,-398.26"/>
<polygon fill="#deb256" stroke="#deb256" points="520.07,-395.43 514.21,-404.25 524.3,-401.01 520.07,-395.43"/>
</g>
<!-- 5550 -->
<g id="node10" class="node">
<title>5550</title>
<text text-anchor="middle" x="323.79" y="-71.66" font-family="Times,serif" font-size="14.00">LicenseType Permissive</text>
</g>
<!-- 5550&#45;&gt;24301 -->
<g id="edge15" class="edge">
<title>5550&#45;&gt;24301</title>
<path fill="none" stroke="#deb256" d="M325.94,-94.49C338.83,-199.83 345.1,-215.61 452.45,-394.82"/>
<polygon fill="#deb256" stroke="#deb256" points="449.39,-396.52 457.53,-403.3 455.39,-392.92 449.39,-396.52"/>
</g>
<!-- 6592 -->
<g id="node11" class="node">
<title>6592</title>
<text text-anchor="middle" x="1394.21" y="-1086.25" font-family="Times,serif" font-size="14.00">[&quot;allowed&quot;]</text>
</g>
<!-- 8990 -->
<g id="node13" class="node">
<title>8990</title>
<ellipse fill="none" stroke="#e09d4b" cx="1117.2" cy="-1351.22" rx="159.28" ry="28.99"/>
<text text-anchor="middle" x="1117.2" y="-1354.42" font-family="Times,serif" font-size="14.00" fill="gray">FedoraEntry</text>
<text text-anchor="middle" x="1117.2" y="-1337.92" font-family="Times,serif" font-size="14.00" fill="gray">b49e67d1ac4ca03c18791a35b8a746dc</text>
</g>
<!-- 6592&#45;&gt;8990 -->
<g id="edge16" class="edge">
<title>6592&#45;&gt;8990</title>
<path fill="none" stroke="#e09d4b" d="M1376.99,-1109.16C1244.57,-1246.5 1215.42,-1276.2 1164.01,-1316.03"/>
<polygon fill="#e09d4b" stroke="#e09d4b" points="1162.19,-1313.02 1156.39,-1321.88 1166.46,-1318.57 1162.19,-1313.02"/>
</g>
<!-- 6593 -->
<g id="node12" class="node">
<title>6593</title>
<text text-anchor="start" x="1734.33" y="-924.95" font-family="Times,serif" font-size="14.00">Fedora: </text>
<text text-anchor="start" x="1779.33" y="-924.95" font-family="Times,serif" font-weight="bold" font-size="14.00" fill="#228b22">allowed</text>
<text text-anchor="start" x="1570.45" y="-910.95" font-family="Times,serif" font-size="14.00">A license is allowed if Fedora determines that the license is a free software /</text>
<text text-anchor="start" x="1565.2" y="-896.95" font-family="Times,serif" font-size="14.00">open source license. At a high level, the inquiry involves determining whether</text>
<text text-anchor="start" x="1564.08" y="-882.95" font-family="Times,serif" font-size="14.00">the license provides software freedom, and (equivalently) making sure that the</text>
<text text-anchor="start" x="1574.2" y="-868.95" font-family="Times,serif" font-size="14.00">license does not place burdens on users&#39; exercise of its permissions that are</text>
<text text-anchor="start" x="1573.83" y="-854.95" font-family="Times,serif" font-size="14.00">inconsistent with evolving community norms and traditions around what is</text>
<text text-anchor="start" x="1565.58" y="-840.95" font-family="Times,serif" font-size="14.00">acceptable in a free software / open source license. See below for more on the</text>
<text text-anchor="start" x="1685.58" y="-826.95" font-family="Times,serif" font-size="14.00">history of Fedora licensing policy.</text>
</g>
<!-- 6593&#45;&gt;6592 -->
<g id="edge17" class="edge">
<title>6593&#45;&gt;6592</title>
<path fill="none" stroke="#e09d4b" d="M1693.02,-941.15C1645.06,-971.38 1590.33,-998.06 1442.27,-1068.46"/>
<polygon fill="#e09d4b" stroke="#e09d4b" points="1440.81,-1065.28 1433.28,-1072.74 1443.82,-1071.6 1440.81,-1065.28"/>
</g>
<!-- 8990&#45;&gt;8991 -->
<g id="edge18" class="edge">
<title>8990&#45;&gt;8991</title>
<path fill="none" stroke="#e09d4b" d="M1092.21,-1380.24C1090.5,-1382.22 1088.95,-1384.04 1087.51,-1385.71"/>
<polygon fill="#e09d4b" stroke="#e09d4b" points="1085.22,-1383 1081.37,-1392.87 1090.54,-1387.56 1085.22,-1383"/>
</g>
<!-- 24301&#45;&gt;24302 -->
<g id="edge19" class="edge">
<title>24301&#45;&gt;24302</title>
<path fill="none" stroke="#deb256" d="M490.39,-462.78C559.26,-599.03 577.31,-619.19 822.19,-855.58"/>
<polygon fill="#deb256" stroke="#deb256" points="819.53,-857.88 829.16,-862.31 824.4,-852.85 819.53,-857.88"/>
</g>
<!-- 24302&#45;&gt;3263 -->
<g id="edge20" class="edge">
<title>24302&#45;&gt;3263</title>
<path fill="none" stroke="#00876c" stroke-width="2" d="M879.61,-907.92C954.49,-964.56 1170.03,-1113.71 1272.02,-1179.95"/>
<polygon fill="#00876c" stroke="#00876c" stroke-width="2" points="1279.18,-1184.58 1268.34,-1182.93 1276.76,-1183.61 1270.51,-1179.58 1270.79,-1179.16 1271.06,-1178.74 1277.3,-1182.77 1273.23,-1175.38 1279.18,-1184.58"/>
</g>
<!-- 24303 -->
<g id="node17" class="node">
<title>24303</title>
<polygon fill="none" stroke="black" points="573.85,-766.86 573.85,-781.78 518.9,-792.32 441.19,-792.32 386.24,-781.78 386.24,-766.86 441.19,-756.32 518.9,-756.32 573.85,-766.86"/>
<polygon fill="none" stroke="black" points="577.85,-763.56 577.85,-785.08 519.28,-796.32 440.81,-796.32 382.24,-785.08 382.24,-763.56 440.81,-752.32 519.28,-752.32 577.85,-763.56"/>
<text text-anchor="middle" x="480.05" y="-769.27" font-family="Times,serif" font-size="14.00">paul&#45;mackerras&#45;new</text>
</g>
<!-- 24303&#45;&gt;24302 -->
<g id="edge21" class="edge">
<title>24303&#45;&gt;24302</title>
<path fill="none" stroke="black" stroke-width="2" d="M541.93,-792.48C595.76,-808.31 636.39,-820.47 774.09,-861.84"/>
<polygon fill="black" stroke="black" stroke-width="2" points="782.28,-864.3 771.4,-865.73 779.68,-864.04 772.56,-861.9 772.7,-861.42 772.84,-860.94 779.97,-863.08 773.99,-857.11 782.28,-864.3"/>
</g>
<!-- 24304 -->
<g id="node18" class="node">
<title>24304</title>
<polygon fill="none" stroke="black" points="594.11,-1038.09 594.11,-1053 517.75,-1063.55 409.74,-1063.55 333.38,-1053 333.38,-1038.09 409.74,-1027.55 517.75,-1027.55 594.11,-1038.09"/>
<polygon fill="none" stroke="black" points="598.11,-1034.61 598.11,-1056.49 518.02,-1067.55 409.47,-1067.55 329.38,-1056.49 329.38,-1034.61 409.47,-1023.55 518.02,-1023.55 598.11,-1034.61"/>
<text text-anchor="middle" x="463.74" y="-1040.5" font-family="Times,serif" font-size="14.00">Paul Mackerras New License</text>
</g>
<!-- 24304&#45;&gt;24302 -->
<g id="edge22" class="edge">
<title>24304&#45;&gt;24302</title>
<path fill="none" stroke="#deb256" stroke-width="2" d="M491.57,-1023.23C566.04,-964.17 593.13,-952.1 765.59,-907.9"/>
<polygon fill="#deb256" stroke="#deb256" stroke-width="2" points="773.98,-905.75 765.41,-912.59 771.63,-906.87 764.42,-908.72 764.3,-908.23 764.17,-907.75 771.38,-905.9 763.18,-903.87 773.98,-905.75"/>
</g>
<!-- 67842 -->
<g id="node31" class="node">
<title>67842</title>
<polygon fill="none" stroke="#00876c" points="1034.38,-1155.57 1034.38,-1170.48 934.97,-1181.02 794.39,-1181.02 694.98,-1170.48 694.98,-1155.57 794.39,-1145.02 934.97,-1145.02 1034.38,-1155.57"/>
<polygon fill="none" stroke="#00876c" points="1038.38,-1151.97 1038.38,-1174.08 935.19,-1185.02 794.18,-1185.02 690.98,-1174.08 690.98,-1151.97 794.18,-1141.02 935.19,-1141.02 1038.38,-1151.97"/>
<text text-anchor="middle" x="864.68" y="-1157.97" font-family="Times,serif" font-size="14.00">scancode:Paul Mackerras New License</text>
</g>
<!-- 24304&#45;&gt;67842 -->
<g id="edge23" class="edge">
<title>24304&#45;&gt;67842</title>
<path fill="none" stroke="#00876c" stroke-width="2" d="M504.62,-1068.02C571.24,-1103.74 604.92,-1114.15 751.39,-1141.94"/>
<polygon fill="#00876c" stroke="#00876c" stroke-width="2" points="759.74,-1143.52 749.07,-1146.08 757.12,-1143.53 749.82,-1142.15 749.91,-1141.66 750,-1141.17 757.31,-1142.55 750.75,-1137.24 759.74,-1143.52"/>
</g>
<!-- 24305 -->
<g id="node19" class="node">
<title>24305</title>
<text text-anchor="middle" x="114.13" y="-175.46" font-family="Times,serif" font-size="14.00">ScancodeData:</text>
<text text-anchor="middle" x="114.13" y="-158.96" font-family="Times,serif" font-size="14.00">this is a paul&#45;mackerras without advert</text>
</g>
<!-- 24305&#45;&gt;24301 -->
<g id="edge24" class="edge">
<title>24305&#45;&gt;24301</title>
<path fill="none" stroke="#deb256" d="M141.49,-192.74C217.27,-249.41 241.32,-266.74 426.55,-398.65"/>
<polygon fill="#deb256" stroke="#deb256" points="424.37,-401.39 434.55,-404.34 428.43,-395.69 424.37,-401.39"/>
</g>
<!-- 24306 -->
<g id="node20" class="node">
<title>24306</title>
<text text-anchor="middle" x="147.37" y="-372.1" font-family="Times,serif" font-size="14.00">$TEXT</text>
</g>
<!-- 24306&#45;&gt;24301 -->
<g id="edge25" class="edge">
<title>24306&#45;&gt;24301</title>
<path fill="none" stroke="#deb256" d="M175.98,-375.61C240.69,-372.47 266.01,-375.41 376.95,-405.96"/>
<polygon fill="#deb256" stroke="#deb256" points="375.93,-409.3 386.5,-408.6 377.79,-402.56 375.93,-409.3"/>
</g>
<!-- 35432 -->
<g id="node21" class="node">
<title>35432</title>
<text text-anchor="middle" x="2501.76" y="-1703.92" font-family="Times,serif" font-size="14.00">LicenseTag (ScopedLicenseTag &quot;OrtLicenseCategorization&quot; &quot;permissive&quot; NoLicenseTagText)</text>
</g>
<!-- 38685 -->
<g id="node23" class="node">
<title>38685</title>
<ellipse fill="none" stroke="#d43d51" cx="2056.26" cy="-1596.31" rx="156.09" ry="28.99"/>
<text text-anchor="middle" x="2056.26" y="-1599.51" font-family="Times,serif" font-size="14.00" fill="gray">OrtLicenseCategorization</text>
<text text-anchor="middle" x="2056.26" y="-1583.01" font-family="Times,serif" font-size="14.00" fill="gray">bdacaf8da279bdd5805f1ed1ee500cbe</text>
</g>
<!-- 35432&#45;&gt;38685 -->
<g id="edge26" class="edge">
<title>35432&#45;&gt;38685</title>
<path fill="none" stroke="#d43d51" d="M2335.52,-1690.99C2291.34,-1679.77 2235.1,-1660.48 2139.21,-1626.13"/>
<polygon fill="#d43d51" stroke="#d43d51" points="2140.59,-1622.91 2129.99,-1622.83 2138.23,-1629.5 2140.59,-1622.91"/>
</g>
<!-- 39720 -->
<g id="node26" class="node">
<title>39720</title>
<ellipse fill="none" stroke="#d43d51" cx="1907.88" cy="-1483.31" rx="160.87" ry="28.99"/>
<text text-anchor="middle" x="1907.88" y="-1486.51" font-family="Times,serif" font-size="14.00" fill="gray">OrtLicenseCategorization</text>
<text text-anchor="middle" x="1907.88" y="-1470.01" font-family="Times,serif" font-size="14.00" fill="gray">423bd5642010942cba4933822ad6bfdd</text>
</g>
<!-- 35432&#45;&gt;39720 -->
<g id="edge27" class="edge">
<title>35432&#45;&gt;39720</title>
<path fill="none" stroke="#d43d51" d="M2422.6,-1691.03C2309.35,-1664.06 2254.77,-1641.03 1978.03,-1515.23"/>
<polygon fill="#d43d51" stroke="#d43d51" points="1979.6,-1512.09 1969.05,-1511.14 1976.7,-1518.47 1979.6,-1512.09"/>
</g>
<!-- 35433 -->
<g id="node22" class="node">
<title>35433</title>
<text text-anchor="middle" x="2023.69" y="-1535.95" font-family="Times,serif" font-size="14.00">LicenseTag (ScopedLicenseTag &quot;OrtLicenseCategorization&quot; &quot;include&#45;in&#45;notice&#45;file&quot; NoLicenseTagText)</text>
</g>
<!-- 35433&#45;&gt;38685 -->
<g id="edge28" class="edge">
<title>35433&#45;&gt;38685</title>
<path fill="none" stroke="#d43d51" d="M2036.76,-1558.76C2036.83,-1558.86 2036.91,-1558.96 2036.98,-1559.06"/>
<polygon fill="#d43d51" stroke="#d43d51" points="2033.2,-1559.79 2041.84,-1565.92 2038.91,-1555.74 2033.2,-1559.79"/>
</g>
<!-- 35433&#45;&gt;39720 -->
<g id="edge29" class="edge">
<title>35433&#45;&gt;39720</title>
<path fill="none" stroke="#d43d51" d="M1978.55,-1523.02C1974.99,-1521.2 1971.09,-1519.13 1966.67,-1516.73"/>
<polygon fill="#d43d51" stroke="#d43d51" points="1968.58,-1513.78 1958.13,-1512 1965.19,-1519.91 1968.58,-1513.78"/>
</g>
<!-- 38686 -->
<g id="node24" class="node">
<title>38686</title>
<polygon fill="none" stroke="#d43d51" points="2030.62,-2069.07 2030.62,-2083.98 1907.19,-2094.53 1732.65,-2094.53 1609.22,-2083.98 1609.22,-2069.07 1732.65,-2058.53 1907.19,-2058.53 2030.62,-2069.07"/>
<polygon fill="none" stroke="#d43d51" points="2034.62,-2065.4 2034.62,-2087.65 1907.36,-2098.53 1732.48,-2098.53 1605.22,-2087.65 1605.22,-2065.4 1732.48,-2054.53 1907.36,-2054.53 2034.62,-2065.4"/>
<text text-anchor="middle" x="1819.92" y="-2071.48" font-family="Times,serif" font-size="14.00">SPDX:LicenseRef&#45;scancode&#45;paul&#45;mackerras&#45;new</text>
</g>
<!-- 38685&#45;&gt;38686 -->
<g id="edge30" class="edge">
<title>38685&#45;&gt;38686</title>
<path fill="none" stroke="#d43d51" d="M2051.19,-1625.63C2003.23,-1902.82 1995.19,-1926.5 1854.67,-2046.94"/>
<polygon fill="#d43d51" stroke="#d43d51" points="1852.59,-2044.12 1847.26,-2053.28 1857.14,-2049.44 1852.59,-2044.12"/>
</g>
<!-- 38687 -->
<g id="node25" class="node">
<title>38687</title>
<polygon fill="none" stroke="black" points="1475.81,-1816.99 1475.81,-1831.9 1368.94,-1842.44 1217.8,-1842.44 1110.93,-1831.9 1110.93,-1816.99 1217.8,-1806.44 1368.94,-1806.44 1475.81,-1816.99"/>
<polygon fill="none" stroke="black" points="1479.81,-1813.36 1479.81,-1835.52 1369.14,-1846.44 1217.6,-1846.44 1106.93,-1835.52 1106.93,-1813.36 1217.6,-1802.44 1369.14,-1802.44 1479.81,-1813.36"/>
<text text-anchor="middle" x="1293.37" y="-1819.39" font-family="Times,serif" font-size="14.00">LicenseRef&#45;scancode&#45;paul&#45;mackerras&#45;new</text>
</g>
<!-- 38687&#45;&gt;38686 -->
<g id="edge31" class="edge">
<title>38687&#45;&gt;38686</title>
<path fill="none" stroke="#d43d51" stroke-width="2" d="M1319.68,-1846.64C1487.99,-1988.55 1550.13,-2038.45 1636.99,-2059.01"/>
<polygon fill="#d43d51" stroke="#d43d51" stroke-width="2" points="1645.34,-2060.85 1634.6,-2063.09 1642.73,-2060.79 1635.46,-2059.19 1635.57,-2058.7 1635.68,-2058.21 1642.94,-2059.81 1636.54,-2054.31 1645.34,-2060.85"/>
</g>
<!-- 67841 -->
<g id="node30" class="node">
<title>67841</title>
<polygon fill="none" stroke="#00876c" points="1493.32,-1764.98 1493.32,-1779.89 1363.41,-1790.43 1179.68,-1790.43 1049.77,-1779.89 1049.77,-1764.98 1179.68,-1754.43 1363.41,-1754.43 1493.32,-1764.98"/>
<polygon fill="none" stroke="#00876c" points="1497.32,-1761.29 1497.32,-1783.58 1363.57,-1794.43 1179.52,-1794.43 1045.77,-1783.58 1045.77,-1761.29 1179.52,-1750.43 1363.57,-1750.43 1497.32,-1761.29"/>
<text text-anchor="middle" x="1271.55" y="-1767.38" font-family="Times,serif" font-size="14.00">scancode:LicenseRef&#45;scancode&#45;paul&#45;mackerras&#45;new</text>
</g>
<!-- 38687&#45;&gt;67841 -->
<g id="edge32" class="edge">
<title>38687&#45;&gt;67841</title>
<path fill="none" stroke="#00876c" stroke-width="2" d="M1279.56,-1802.09C1279.51,-1801.95 1279.47,-1801.82 1279.42,-1801.68"/>
<polygon fill="#00876c" stroke="#00876c" stroke-width="2" points="1277.99,-1796.91 1285.17,-1805.19 1279.2,-1799.22 1281.34,-1806.34 1280.87,-1806.49 1280.39,-1806.63 1278.25,-1799.51 1276.56,-1807.78 1277.99,-1796.91"/>
</g>
<!-- 39720&#45;&gt;3263 -->
<g id="edge33" class="edge">
<title>39720&#45;&gt;3263</title>
<path fill="none" stroke="#d43d51" d="M1792.89,-1462.71C1685.48,-1438.97 1623.07,-1401.79 1377.34,-1244.71"/>
<polygon fill="#d43d51" stroke="#d43d51" points="1379.35,-1241.85 1369.04,-1239.41 1375.58,-1247.74 1379.35,-1241.85"/>
</g>
<!-- 41895 -->
<g id="node27" class="node">
<title>41895</title>
<ellipse fill="none" stroke="#379469" cx="665.73" cy="-1932.02" rx="158.75" ry="28.99"/>
<text text-anchor="middle" x="665.73" y="-1935.22" font-family="Times,serif" font-size="14.00" fill="gray">CavilLicenseChange</text>
<text text-anchor="middle" x="665.73" y="-1918.72" font-family="Times,serif" font-size="14.00" fill="gray">1855cd74e747266cef38738bea90a318</text>
</g>
<!-- 41895&#45;&gt;41896 -->
<g id="edge34" class="edge">
<title>41895&#45;&gt;41896</title>
<path fill="none" stroke="#379469" d="M691.66,-1902.93C694.36,-1899.81 697.45,-1896.21 701.15,-1891.89"/>
<polygon fill="#379469" stroke="#379469" points="703.69,-1894.3 707.53,-1884.42 698.37,-1889.75 703.69,-1894.3"/>
</g>
<!-- 67840 -->
<g id="node29" class="node">
<title>67840</title>
<ellipse fill="none" stroke="#00876c" cx="1499.05" cy="-1621.9" rx="159.81" ry="28.99"/>
<text text-anchor="middle" x="1499.05" y="-1625.1" font-family="Times,serif" font-size="14.00" fill="gray">LicenseLynx</text>
<text text-anchor="middle" x="1499.05" y="-1608.6" font-family="Times,serif" font-size="14.00" fill="gray">79e473338c67eb7c30c630a0838a74e0</text>
</g>
<!-- 67840&#45;&gt;3263 -->
<g id="edge35" class="edge">
<title>67840&#45;&gt;3263</title>
<path fill="none" stroke="#00876c" d="M1479.3,-1592.81C1421.98,-1507.62 1412.25,-1481.56 1338.46,-1249.32"/>
<polygon fill="#00876c" stroke="#00876c" points="1341.83,-1248.38 1335.47,-1239.91 1335.16,-1250.5 1341.83,-1248.38"/>
</g>
<!-- 67841&#45;&gt;3263 -->
<g id="edge36" class="edge">
<title>67841&#45;&gt;3263</title>
<path fill="none" stroke="#00876c" stroke-width="2" d="M1272.39,-1750.11C1277.85,-1607.24 1280.03,-1586.34 1322.03,-1249.81"/>
<polygon fill="#00876c" stroke="#00876c" stroke-width="2" points="1323.11,-1241.15 1326.34,-1251.63 1323.29,-1243.75 1322.37,-1251.13 1321.87,-1251.07 1321.38,-1251.01 1322.3,-1243.63 1317.41,-1250.51 1323.11,-1241.15"/>
</g>
<!-- 67842&#45;&gt;3263 -->
<g id="edge37" class="edge">
<title>67842&#45;&gt;3263</title>
<path fill="none" stroke="#00876c" stroke-width="2" d="M916.29,-1185.39C997.82,-1219.41 1037.03,-1224.83 1192.61,-1218.59"/>
<polygon fill="#00876c" stroke="#00876c" stroke-width="2" points="1201.08,-1218.24 1191.28,-1223.15 1198.54,-1218.85 1191.11,-1219.15 1191.09,-1218.65 1191.07,-1218.15 1198.5,-1217.85 1190.91,-1214.16 1201.08,-1218.24"/>
</g>
<!-- 67843&#45;&gt;3263 -->
<g id="edge38" class="edge">
<title>67843&#45;&gt;3263</title>
<path fill="none" stroke="#00876c" stroke-width="2" d="M1587.91,-1394.81C1526.3,-1376.89 1487.76,-1347.58 1366.35,-1245.67"/>
<polygon fill="#00876c" stroke="#00876c" stroke-width="2" points="1359.72,-1240.09 1370.27,-1243.08 1362,-1241.36 1367.7,-1246.14 1367.38,-1246.52 1367.05,-1246.91 1361.36,-1242.12 1364.48,-1249.97 1359.72,-1240.09"/>
</g>
</g>
</svg>
