<?xml version="1.0" encoding="UTF-8" standalone="no"?>
<!DOCTYPE svg PUBLIC "-//W3C//DTD SVG 1.1//EN"
 "http://www.w3.org/Graphics/SVG/1.1/DTD/svg11.dtd">
<!-- Generated by graphviz version 10.0.1 (0)
 -->
<!-- Pages: 1 -->
<svg width="3019pt" height="2822pt"
 viewBox="0.00 0.00 3019.00 2822.00" xmlns="http://www.w3.org/2000/svg" xmlns:xlink="http://www.w3.org/1999/xlink">
<g id="graph0" class="graph" transform="scale(1 1) rotate(0) translate(4 2818)">
<polygon fill="white" stroke="none" points="-4,4 -4,-2818 3015,-2818 3015,4 -4,4"/>
<!-- 5 -->
<g id="node1" class="node">
<title>5</title>
<text text-anchor="start" x="946.32" y="-548.56" font-family="Times,serif" font-size="14.00">OSI: </text>
<text text-anchor="start" x="975.57" y="-548.56" font-family="Times,serif" font-weight="bold" font-size="14.00" fill="#8b0000">Rejected</text>
</g>
<!-- 3124 -->
<g id="node2" class="node">
<title>3124</title>
<ellipse fill="none" stroke="#dac767" cx="1143.16" cy="-632.86" rx="158.75" ry="28.99"/>
<text text-anchor="middle" x="1143.16" y="-636.06" font-family="Times,serif" font-size="14.00" fill="gray">SPDXLicense</text>
<text text-anchor="middle" x="1143.16" y="-619.56" font-family="Times,serif" font-size="14.00" fill="gray">b16cc096493b70e6d508cee66af81978</text>
</g>
<!-- 5&#45;&gt;3124 -->
<g id="edge1" class="edge">
<title>5&#45;&gt;3124</title>
<path fill="none" stroke="#dac767" d="M1033.79,-561.88C1051.15,-567.46 1066.75,-576.84 1095.67,-597.73"/>
<polygon fill="#dac767" stroke="#dac767" points="1093.26,-600.31 1103.41,-603.36 1097.38,-594.65 1093.26,-600.31"/>
</g>
<!-- 59404 -->
<g id="node38" class="node">
<title>59404</title>
<ellipse fill="none" stroke="#dc574a" cx="1149.51" cy="-868.66" rx="156.09" ry="28.99"/>
<text text-anchor="middle" x="1149.51" y="-871.86" font-family="Times,serif" font-size="14.00" fill="gray">HermineLicense</text>
<text text-anchor="middle" x="1149.51" y="-855.36" font-family="Times,serif" font-size="14.00" fill="gray">db4a42ffaa54a1553fdd37e90d50242a</text>
</g>
<!-- 5&#45;&gt;59404 -->
<g id="edge2" class="edge">
<title>5&#45;&gt;59404</title>
<path fill="none" stroke="#dc574a" d="M994.05,-570.38C1027.95,-645.8 1036.51,-662.35 1128.12,-829.62"/>
<polygon fill="#dc574a" stroke="#dc574a" points="1124.95,-831.12 1132.82,-838.21 1131.09,-827.75 1124.95,-831.12"/>
</g>
<!-- 3125 -->
<g id="node3" class="node">
<title>3125</title>
<polygon fill="none" stroke="black" points="1460.02,-1114.01 1460.02,-1128.92 1416.75,-1139.47 1355.56,-1139.47 1312.29,-1128.92 1312.29,-1114.01 1355.56,-1103.47 1416.75,-1103.47 1460.02,-1114.01"/>
<polygon fill="none" stroke="black" points="1464.02,-1110.87 1464.02,-1132.06 1417.23,-1143.47 1355.08,-1143.47 1308.29,-1132.06 1308.29,-1110.87 1355.08,-1099.47 1417.23,-1099.47 1464.02,-1110.87"/>
<polygon fill="none" stroke="black" points="1468.02,-1107.73 1468.02,-1135.21 1417.71,-1147.47 1354.6,-1147.47 1304.29,-1135.21 1304.29,-1107.73 1354.6,-1095.47 1417.71,-1095.47 1468.02,-1107.73"/>
<text text-anchor="middle" x="1386.15" y="-1116.42" font-family="Times,serif" font-size="14.00">spdx:MIT&#45;enna</text>
</g>
<!-- 3124&#45;&gt;3125 -->
<g id="edge3" class="edge">
<title>3124&#45;&gt;3125</title>
<path fill="none" stroke="#dac767" d="M1158.6,-662.2C1217.91,-774.94 1230.57,-800.66 1368.4,-1084.86"/>
<polygon fill="#dac767" stroke="#dac767" points="1365.18,-1086.25 1372.7,-1093.72 1371.48,-1083.19 1365.18,-1086.25"/>
</g>
<!-- 8942 -->
<g id="node14" class="node">
<title>8942</title>
<polygon fill="none" stroke="#e09d4b" points="1792.71,-1162.31 1792.71,-1177.22 1744.25,-1187.76 1675.72,-1187.76 1627.26,-1177.22 1627.26,-1162.31 1675.72,-1151.76 1744.25,-1151.76 1792.71,-1162.31"/>
<polygon fill="none" stroke="#e09d4b" points="1796.71,-1159.08 1796.71,-1180.44 1744.68,-1191.76 1675.29,-1191.76 1623.26,-1180.44 1623.26,-1159.08 1675.29,-1147.76 1744.68,-1147.76 1796.71,-1159.08"/>
<text text-anchor="middle" x="1709.99" y="-1164.71" font-family="Times,serif" font-size="14.00">Fedora:MIT&#45;enna</text>
</g>
<!-- 3125&#45;&gt;8942 -->
<g id="edge4" class="edge">
<title>3125&#45;&gt;8942</title>
<path fill="none" stroke="#e09d4b" stroke-width="2" d="M1458.53,-1105.02C1548.31,-1086.36 1576.12,-1092.83 1663.16,-1142.52"/>
<polygon fill="#e09d4b" stroke="#e09d4b" stroke-width="2" points="1670.52,-1146.75 1659.6,-1145.67 1668.04,-1145.9 1661.6,-1142.2 1661.84,-1141.77 1662.09,-1141.33 1668.54,-1145.04 1664.09,-1137.86 1670.52,-1146.75"/>
</g>
<!-- 16929 -->
<g id="node20" class="node">
<title>16929</title>
<polygon fill="none" stroke="black" points="1226.21,-1371.16 1226.21,-1386.07 1185.21,-1396.62 1127.23,-1396.62 1086.24,-1386.07 1086.24,-1371.16 1127.23,-1360.62 1185.21,-1360.62 1226.21,-1371.16"/>
<polygon fill="none" stroke="black" points="1230.21,-1368.06 1230.21,-1389.17 1185.72,-1400.62 1126.73,-1400.62 1082.24,-1389.17 1082.24,-1368.06 1126.73,-1356.62 1185.72,-1356.62 1230.21,-1368.06"/>
<text text-anchor="middle" x="1156.22" y="-1373.57" font-family="Times,serif" font-size="14.00">scancode:enna</text>
</g>
<!-- 3125&#45;&gt;16929 -->
<g id="edge5" class="edge">
<title>3125&#45;&gt;16929</title>
<path fill="none" stroke="#deb256" stroke-width="2" d="M1356.9,-1147.49C1310.07,-1195.26 1219.61,-1296.46 1178,-1347.66"/>
<polygon fill="#deb256" stroke="#deb256" stroke-width="2" points="1172.57,-1354.42 1175.32,-1343.81 1173.79,-1352.11 1178.44,-1346.31 1178.83,-1346.62 1179.22,-1346.93 1174.57,-1352.73 1182.34,-1349.44 1172.57,-1354.42"/>
</g>
<!-- 52677 -->
<g id="node34" class="node">
<title>52677</title>
<polygon fill="none" stroke="#379469" points="1346.7,-1445.85 1346.7,-1460.76 1226.2,-1471.31 1055.78,-1471.31 935.28,-1460.76 935.28,-1445.85 1055.78,-1435.31 1226.2,-1435.31 1346.7,-1445.85"/>
<polygon fill="none" stroke="#379469" points="1350.7,-1442.18 1350.7,-1464.43 1226.37,-1475.31 1055.61,-1475.31 931.28,-1464.43 931.28,-1442.18 1055.61,-1431.31 1226.37,-1431.31 1350.7,-1442.18"/>
<text text-anchor="middle" x="1140.99" y="-1448.26" font-family="Times,serif" font-size="14.00">metaeffekt:MIT License (with enna advertising)</text>
</g>
<!-- 3125&#45;&gt;52677 -->
<g id="edge6" class="edge">
<title>3125&#45;&gt;52677</title>
<path fill="none" stroke="#379469" stroke-width="2" d="M1348.52,-1146.28C1199.18,-1245.26 1187.25,-1262.72 1148.93,-1420.37"/>
<polygon fill="#379469" stroke="#379469" stroke-width="2" points="1146.94,-1428.59 1144.92,-1417.81 1147.06,-1425.98 1148.81,-1418.76 1149.29,-1418.87 1149.78,-1418.99 1148.03,-1426.22 1153.67,-1419.93 1146.94,-1428.59"/>
</g>
<!-- 3126 -->
<g id="node4" class="node">
<title>3126</title>
<polygon fill="none" stroke="black" points="1634.23,-1387.63 1634.23,-1402.54 1603.62,-1413.08 1560.33,-1413.08 1529.72,-1402.54 1529.72,-1387.63 1560.33,-1377.08 1603.62,-1377.08 1634.23,-1387.63"/>
<polygon fill="none" stroke="black" points="1638.23,-1384.77 1638.23,-1405.39 1604.29,-1417.08 1559.66,-1417.08 1525.72,-1405.39 1525.72,-1384.77 1559.66,-1373.08 1604.29,-1373.08 1638.23,-1384.77"/>
<text text-anchor="middle" x="1581.98" y="-1390.03" font-family="Times,serif" font-size="14.00">MIT&#45;enna</text>
</g>
<!-- 3126&#45;&gt;3125 -->
<g id="edge7" class="edge">
<title>3126&#45;&gt;3125</title>
<path fill="none" stroke="black" stroke-width="2" d="M1570.15,-1372.71C1492.51,-1225.92 1475.66,-1196.39 1426.85,-1154.54"/>
<polygon fill="black" stroke="black" stroke-width="2" points="1420.25,-1148.98 1430.8,-1151.98 1422.54,-1150.25 1428.23,-1155.04 1427.9,-1155.42 1427.58,-1155.8 1421.89,-1151.01 1425.01,-1158.86 1420.25,-1148.98"/>
</g>
<!-- 3126&#45;&gt;8942 -->
<g id="edge8" class="edge">
<title>3126&#45;&gt;8942</title>
<path fill="none" stroke="#e09d4b" stroke-width="2" d="M1597.67,-1372.62C1669.83,-1269.29 1683.13,-1248.78 1699.12,-1202.75"/>
<polygon fill="#e09d4b" stroke="#e09d4b" stroke-width="2" points="1701.92,-1194.47 1702.97,-1205.38 1701.57,-1197.05 1699.19,-1204.1 1698.71,-1203.94 1698.24,-1203.78 1700.62,-1196.73 1694.45,-1202.49 1701.92,-1194.47"/>
</g>
<!-- 10188 -->
<g id="node17" class="node">
<title>10188</title>
<polygon fill="none" stroke="#00876c" points="1429.69,-1640.68 1429.69,-1655.59 1376.68,-1666.13 1301.73,-1666.13 1248.72,-1655.59 1248.72,-1640.68 1301.73,-1630.13 1376.68,-1630.13 1429.69,-1640.68"/>
<polygon fill="none" stroke="#00876c" points="1433.69,-1637.39 1433.69,-1658.87 1377.08,-1670.13 1301.33,-1670.13 1244.72,-1658.87 1244.72,-1637.39 1301.33,-1626.13 1377.08,-1626.13 1433.69,-1637.39"/>
<text text-anchor="middle" x="1339.2" y="-1643.08" font-family="Times,serif" font-size="14.00">BlueOak:MIT&#45;enna</text>
</g>
<!-- 3126&#45;&gt;10188 -->
<g id="edge9" class="edge">
<title>3126&#45;&gt;10188</title>
<path fill="none" stroke="#00876c" stroke-width="2" d="M1564.81,-1417.48C1459.03,-1555.45 1436.88,-1582.71 1382.74,-1619.75"/>
<polygon fill="#00876c" stroke="#00876c" stroke-width="2" points="1375.78,-1624.43 1381.57,-1615.12 1377.63,-1622.59 1383.8,-1618.43 1384.08,-1618.85 1384.36,-1619.26 1378.19,-1623.42 1386.59,-1622.58 1375.78,-1624.43"/>
</g>
<!-- 34490 -->
<g id="node25" class="node">
<title>34490</title>
<polygon fill="none" stroke="#e18745" points="1948.74,-1306.82 1948.74,-1321.73 1893.79,-1332.28 1816.08,-1332.28 1761.13,-1321.73 1761.13,-1306.82 1816.08,-1296.28 1893.79,-1296.28 1948.74,-1306.82"/>
<polygon fill="none" stroke="#e18745" points="1952.74,-1303.52 1952.74,-1325.04 1894.17,-1336.28 1815.7,-1336.28 1757.13,-1325.04 1757.13,-1303.52 1815.7,-1292.28 1894.17,-1292.28 1952.74,-1303.52"/>
<text text-anchor="middle" x="1854.94" y="-1309.23" font-family="Times,serif" font-size="14.00">fossology:MIT&#45;enna</text>
</g>
<!-- 3126&#45;&gt;34490 -->
<g id="edge10" class="edge">
<title>3126&#45;&gt;34490</title>
<path fill="none" stroke="#e18745" stroke-width="2" d="M1630.15,-1381.52C1717.5,-1356.91 1754.44,-1346.38 1786.36,-1336.5"/>
<polygon fill="#e18745" stroke="#e18745" stroke-width="2" points="1794.74,-1333.88 1786.53,-1341.16 1792.44,-1335.12 1785.34,-1337.34 1785.19,-1336.86 1785.04,-1336.39 1792.14,-1334.17 1783.85,-1332.57 1794.74,-1333.88"/>
</g>
<!-- 41932 -->
<g id="node32" class="node">
<title>41932</title>
<polygon fill="none" stroke="#379469" points="1962.39,-1554.03 1962.39,-1568.94 1918.8,-1579.49 1857.15,-1579.49 1813.56,-1568.94 1813.56,-1554.03 1857.15,-1543.49 1918.8,-1543.49 1962.39,-1554.03"/>
<polygon fill="none" stroke="#379469" points="1966.39,-1550.89 1966.39,-1572.09 1919.27,-1583.49 1856.67,-1583.49 1809.56,-1572.09 1809.56,-1550.89 1856.67,-1539.49 1919.27,-1539.49 1966.39,-1550.89"/>
<text text-anchor="middle" x="1887.97" y="-1556.44" font-family="Times,serif" font-size="14.00">cavil:MIT&#45;enna</text>
</g>
<!-- 3126&#45;&gt;41932 -->
<g id="edge11" class="edge">
<title>3126&#45;&gt;41932</title>
<path fill="none" stroke="#379469" stroke-width="2" d="M1618.65,-1412.44C1766.46,-1482.43 1798.11,-1498.2 1847.59,-1532.61"/>
<polygon fill="#379469" stroke="#379469" stroke-width="2" points="1854.73,-1537.63 1843.96,-1535.56 1852.34,-1536.56 1846.26,-1532.29 1846.55,-1531.88 1846.83,-1531.47 1852.92,-1535.74 1849.13,-1528.2 1854.73,-1537.63"/>
</g>
<!-- 3126&#45;&gt;52677 -->
<g id="edge12" class="edge">
<title>3126&#45;&gt;52677</title>
<path fill="none" stroke="#379469" stroke-dasharray="5,2" d="M1525.6,-1402.32C1398.8,-1418.61 1333.53,-1427.01 1284.42,-1433.53"/>
<polygon fill="#379469" stroke="#379469" points="1274.74,-1434.82 1284.06,-1429.04 1278.49,-1434.32 1284.65,-1433.5 1284.65,-1433.5 1284.65,-1433.5 1278.49,-1434.32 1285.24,-1437.96 1274.74,-1434.82"/>
</g>
<!-- 3127 -->
<g id="node5" class="node">
<title>3127</title>
<polygon fill="none" stroke="black" points="1600.88,-1455.02 1600.88,-1469.93 1563.13,-1480.47 1509.74,-1480.47 1471.99,-1469.93 1471.99,-1455.02 1509.74,-1444.47 1563.13,-1444.47 1600.88,-1455.02"/>
<polygon fill="none" stroke="black" points="1604.88,-1451.98 1604.88,-1472.97 1563.68,-1484.47 1509.19,-1484.47 1467.99,-1472.97 1467.99,-1451.98 1509.19,-1440.47 1563.68,-1440.47 1604.88,-1451.98"/>
<text text-anchor="middle" x="1536.44" y="-1457.42" font-family="Times,serif" font-size="14.00">enna License</text>
</g>
<!-- 3127&#45;&gt;3125 -->
<g id="edge13" class="edge">
<title>3127&#45;&gt;3125</title>
<path fill="none" stroke="black" stroke-width="2" d="M1526.9,-1440C1447.44,-1252.76 1435.2,-1224.23 1403.53,-1157.77"/>
<polygon fill="black" stroke="black" stroke-width="2" points="1399.76,-1149.87 1408.13,-1156.95 1401.31,-1151.96 1404.52,-1158.67 1404.07,-1158.89 1403.61,-1159.11 1400.41,-1152.39 1400,-1160.83 1399.76,-1149.87"/>
</g>
<!-- 3127&#45;&gt;8942 -->
<g id="edge14" class="edge">
<title>3127&#45;&gt;8942</title>
<path fill="none" stroke="#e09d4b" stroke-dasharray="5,2" d="M1553.23,-1440.02C1662.1,-1294.46 1676.32,-1273.57 1699.56,-1202.54"/>
<polygon fill="#e09d4b" stroke="#e09d4b" points="1702.54,-1193.33 1703.75,-1204.23 1701.38,-1196.93 1699.46,-1202.84 1699.46,-1202.84 1699.46,-1202.84 1701.38,-1196.93 1695.18,-1201.46 1702.54,-1193.33"/>
</g>
<!-- 3127&#45;&gt;10188 -->
<g id="edge15" class="edge">
<title>3127&#45;&gt;10188</title>
<path fill="none" stroke="#00876c" stroke-width="2" d="M1517.3,-1484.92C1442.95,-1572.07 1420.57,-1597.03 1386.22,-1619.99"/>
<polygon fill="#00876c" stroke="#00876c" stroke-width="2" points="1379.24,-1624.5 1385.2,-1615.3 1381.12,-1622.69 1387.37,-1618.66 1387.64,-1619.08 1387.91,-1619.5 1381.66,-1623.53 1390.08,-1622.86 1379.24,-1624.5"/>
</g>
<!-- 3127&#45;&gt;16929 -->
<g id="edge16" class="edge">
<title>3127&#45;&gt;16929</title>
<path fill="none" stroke="#deb256" stroke-width="2" d="M1467.57,-1453.36C1309.33,-1432.26 1270.38,-1425.27 1210.41,-1401.45"/>
<polygon fill="#deb256" stroke="#deb256" stroke-width="2" points="1202.44,-1398.23 1213.39,-1397.81 1205,-1398.72 1211.89,-1401.51 1211.71,-1401.98 1211.52,-1402.44 1204.62,-1399.65 1210.02,-1406.15 1202.44,-1398.23"/>
</g>
<!-- 3127&#45;&gt;34490 -->
<g id="edge17" class="edge">
<title>3127&#45;&gt;34490</title>
<path fill="none" stroke="#e18745" stroke-width="2" d="M1583.81,-1445.73C1733.22,-1392.81 1764.29,-1380.16 1816.17,-1343.04"/>
<polygon fill="#e18745" stroke="#e18745" stroke-width="2" points="1823.08,-1338.03 1817.63,-1347.54 1821.3,-1339.94 1815.28,-1344.3 1814.98,-1343.9 1814.69,-1343.49 1820.71,-1339.13 1812.34,-1340.25 1823.08,-1338.03"/>
</g>
<!-- 67782 -->
<g id="node40" class="node">
<title>67782</title>
<polygon fill="none" stroke="#00876c" points="1460.24,-1372.02 1460.24,-1386.93 1409.83,-1397.48 1338.54,-1397.48 1288.14,-1386.93 1288.14,-1372.02 1338.54,-1361.48 1409.83,-1361.48 1460.24,-1372.02"/>
<polygon fill="none" stroke="#00876c" points="1464.24,-1368.77 1464.24,-1390.18 1410.24,-1401.48 1338.13,-1401.48 1284.14,-1390.18 1284.14,-1368.77 1338.13,-1357.48 1410.24,-1357.48 1464.24,-1368.77"/>
<text text-anchor="middle" x="1374.19" y="-1374.43" font-family="Times,serif" font-size="14.00">spdx:enna License</text>
</g>
<!-- 3127&#45;&gt;67782 -->
<g id="edge18" class="edge">
<title>3127&#45;&gt;67782</title>
<path fill="none" stroke="#00876c" stroke-width="2" d="M1482.7,-1447.56C1438.26,-1434.68 1421.29,-1427.01 1402.57,-1409.58"/>
<polygon fill="#00876c" stroke="#00876c" stroke-width="2" points="1396.39,-1403.49 1406.67,-1407.31 1398.56,-1404.94 1403.86,-1410.15 1403.51,-1410.51 1403.16,-1410.87 1397.86,-1405.65 1400.35,-1413.72 1396.39,-1403.49"/>
</g>
<!-- 77157 -->
<g id="node42" class="node">
<title>77157</title>
<polygon fill="none" stroke="#e09d4b" points="1856.41,-1872.68 1856.41,-1887.59 1797.89,-1898.13 1715.13,-1898.13 1656.61,-1887.59 1656.61,-1872.68 1715.13,-1862.13 1797.89,-1862.13 1856.41,-1872.68"/>
<polygon fill="none" stroke="#e09d4b" points="1860.41,-1869.33 1860.41,-1890.93 1798.24,-1902.13 1714.77,-1902.13 1652.61,-1890.93 1652.61,-1869.33 1714.77,-1858.13 1798.24,-1858.13 1860.41,-1869.33"/>
<text text-anchor="middle" x="1756.51" y="-1875.08" font-family="Times,serif" font-size="14.00">tldr&#45;title:enna License</text>
</g>
<!-- 3127&#45;&gt;77157 -->
<g id="edge19" class="edge">
<title>3127&#45;&gt;77157</title>
<path fill="none" stroke="#e09d4b" stroke-width="2" d="M1548.12,-1484.58C1677.31,-1728.9 1691,-1754.82 1739.72,-1848.02"/>
<polygon fill="#e09d4b" stroke="#e09d4b" stroke-width="2" points="1743.74,-1855.71 1735.12,-1848.93 1742.11,-1853.67 1738.67,-1847.08 1739.11,-1846.85 1739.55,-1846.62 1743,-1853.21 1743.1,-1844.77 1743.74,-1855.71"/>
</g>
<!-- 3128 -->
<g id="node6" class="node">
<title>3128</title>
<text text-anchor="middle" x="1039.08" y="-225.31" font-family="Times,serif" font-size="14.00">$TEXT</text>
</g>
<!-- 3128&#45;&gt;3124 -->
<g id="edge20" class="edge">
<title>3128&#45;&gt;3124</title>
<path fill="none" stroke="#dac767" d="M1041.87,-248.11C1057.92,-350.05 1062.36,-367.25 1130.99,-592.87"/>
<polygon fill="#dac767" stroke="#dac767" points="1127.6,-593.78 1133.86,-602.33 1134.3,-591.74 1127.6,-593.78"/>
</g>
<!-- 3129 -->
<g id="node7" class="node">
<title>3129</title>
<text text-anchor="middle" x="979.18" y="-12.96" font-family="Times,serif" font-size="14.00">$TEXT</text>
</g>
<!-- 3129&#45;&gt;3128 -->
<g id="edge21" class="edge">
<title>3129&#45;&gt;3128</title>
<path fill="none" stroke="#dac767" d="M983.02,-35.72C992.84,-80.71 997.1,-95.44 1030.12,-201.56"/>
<polygon fill="#dac767" stroke="#dac767" points="1026.75,-202.52 1033.07,-211.03 1033.44,-200.44 1026.75,-202.52"/>
</g>
<!-- 3130 -->
<g id="node8" class="node">
<title>3130</title>
<text text-anchor="middle" x="1653.95" y="-742.97" font-family="Times,serif" font-size="14.00">https://fedoraproject.org/wiki/Licensing/MIT#enna</text>
</g>
<!-- 3130&#45;&gt;3124 -->
<g id="edge22" class="edge">
<title>3130&#45;&gt;3124</title>
<path fill="none" stroke="#dac767" d="M1623.78,-730.09C1435.96,-618.54 1389.08,-594.95 1268.4,-610.89"/>
<polygon fill="#dac767" stroke="#dac767" points="1268.19,-607.39 1258.77,-612.23 1269.15,-614.32 1268.19,-607.39"/>
</g>
<!-- 8941 -->
<g id="node13" class="node">
<title>8941</title>
<ellipse fill="none" stroke="#e09d4b" cx="2074.78" cy="-816.78" rx="157.15" ry="28.99"/>
<text text-anchor="middle" x="2074.78" y="-819.98" font-family="Times,serif" font-size="14.00" fill="gray">FedoraEntry</text>
<text text-anchor="middle" x="2074.78" y="-803.48" font-family="Times,serif" font-size="14.00" fill="gray">4f9c3b0b6769866fcdaeee3d10de0182</text>
</g>
<!-- 3130&#45;&gt;8941 -->
<g id="edge23" class="edge">
<title>3130&#45;&gt;8941</title>
<path fill="none" stroke="#e09d4b" d="M1775.08,-730.04C1892.61,-715.09 1929.01,-725.1 2020.94,-782.4"/>
<polygon fill="#e09d4b" stroke="#e09d4b" points="2019,-785.32 2029.33,-787.67 2022.73,-779.39 2019,-785.32"/>
</g>
<!-- 34489 -->
<g id="node24" class="node">
<title>34489</title>
<ellipse fill="none" stroke="#e18745" cx="2118.85" cy="-970.82" rx="157.68" ry="28.99"/>
<text text-anchor="middle" x="2118.85" y="-974.02" font-family="Times,serif" font-size="14.00" fill="gray">Fossology</text>
<text text-anchor="middle" x="2118.85" y="-957.52" font-family="Times,serif" font-size="14.00" fill="gray">0216da8b2acd6defb928014afb8c437b</text>
</g>
<!-- 3130&#45;&gt;34489 -->
<g id="edge24" class="edge">
<title>3130&#45;&gt;34489</title>
<path fill="none" stroke="#e18745" d="M1800.44,-763.03C1939.57,-781.31 1975.13,-809.6 2085.71,-933.49"/>
<polygon fill="#e18745" stroke="#e18745" points="2082.84,-935.52 2092.1,-940.66 2088.06,-930.86 2082.84,-935.52"/>
</g>
<!-- 3130&#45;&gt;59404 -->
<g id="edge25" class="edge">
<title>3130&#45;&gt;59404</title>
<path fill="none" stroke="#dc574a" d="M1530.27,-730.03C1390.6,-713.25 1348.85,-731.59 1199.3,-834.25"/>
<polygon fill="#dc574a" stroke="#dc574a" points="1197.73,-831.08 1191.48,-839.63 1201.7,-836.85 1197.73,-831.08"/>
</g>
<!-- 3156 -->
<g id="node9" class="node">
<title>3156</title>
<polygon fill="none" stroke="black" points="1539.77,-1173.51 1539.77,-1188.42 1521.81,-1198.96 1496.42,-1198.96 1478.46,-1188.42 1478.46,-1173.51 1496.42,-1162.96 1521.81,-1162.96 1539.77,-1173.51"/>
<text text-anchor="middle" x="1509.11" y="-1175.91" font-family="Times,serif" font-size="14.00">MIT</text>
</g>
<!-- 3156&#45;&gt;8942 -->
<g id="edge26" class="edge">
<title>3156&#45;&gt;8942</title>
<path fill="none" stroke="#e09d4b" stroke-dasharray="5,2" d="M1536.51,-1171.09C1592.95,-1150.92 1616.61,-1144.33 1645.27,-1149.21"/>
<polygon fill="#e09d4b" stroke="#e09d4b" points="1654.94,-1151.27 1644.22,-1153.59 1651.24,-1150.48 1645.16,-1149.19 1645.16,-1149.19 1645.16,-1149.19 1651.24,-1150.48 1646.09,-1144.79 1654.94,-1151.27"/>
</g>
<!-- 3156&#45;&gt;52677 -->
<g id="edge27" class="edge">
<title>3156&#45;&gt;52677</title>
<path fill="none" stroke="#379469" stroke-dasharray="5,2" d="M1481.66,-1190.81C1258.79,-1270.84 1240.94,-1281.46 1159.44,-1421.41"/>
<polygon fill="#379469" stroke="#379469" points="1154.59,-1429.77 1155.72,-1418.86 1156.49,-1426.5 1159.61,-1421.12 1159.61,-1421.12 1159.61,-1421.12 1156.49,-1426.5 1163.5,-1423.38 1154.59,-1429.77"/>
</g>
<!-- 5550 -->
<g id="node10" class="node">
<title>5550</title>
<text text-anchor="middle" x="935.69" y="-1292.94" font-family="Times,serif" font-size="14.00">LicenseType Permissive</text>
</g>
<!-- 10187 -->
<g id="node16" class="node">
<title>10187</title>
<ellipse fill="none" stroke="#00876c" cx="908.29" cy="-1776.37" rx="159.28" ry="28.99"/>
<text text-anchor="middle" x="908.29" y="-1779.57" font-family="Times,serif" font-size="14.00" fill="gray">BlueOakCouncil</text>
<text text-anchor="middle" x="908.29" y="-1763.07" font-family="Times,serif" font-size="14.00" fill="gray">9a0290a8ab0f7d99f031318b9685d31b</text>
</g>
<!-- 5550&#45;&gt;10187 -->
<g id="edge28" class="edge">
<title>5550&#45;&gt;10187</title>
<path fill="none" stroke="#00876c" d="M928.32,-1315.85C835.13,-1542.07 830.53,-1561.45 893.76,-1736.5"/>
<polygon fill="#00876c" stroke="#00876c" points="890.41,-1737.51 897.11,-1745.72 896.99,-1735.13 890.41,-1737.51"/>
</g>
<!-- 16928 -->
<g id="node19" class="node">
<title>16928</title>
<ellipse fill="none" stroke="#deb256" cx="650.25" cy="-1369.46" rx="157.15" ry="28.99"/>
<text text-anchor="middle" x="650.25" y="-1372.66" font-family="Times,serif" font-size="14.00" fill="gray">ScancodeData</text>
<text text-anchor="middle" x="650.25" y="-1356.16" font-family="Times,serif" font-size="14.00" fill="gray">b61372a6984ffe5b8527462c3ef59583</text>
</g>
<!-- 5550&#45;&gt;16928 -->
<g id="edge29" class="edge">
<title>5550&#45;&gt;16928</title>
<path fill="none" stroke="#deb256" d="M861.05,-1309.1C784.59,-1320.69 750.03,-1327.19 719.33,-1338.12"/>
<polygon fill="#deb256" stroke="#deb256" points="718.1,-1334.84 709.98,-1341.65 720.57,-1341.39 718.1,-1334.84"/>
</g>
<!-- 5550&#45;&gt;59404 -->
<g id="edge30" class="edge">
<title>5550&#45;&gt;59404</title>
<path fill="none" stroke="#dc574a" d="M937.55,-1280.22C961.86,-1049.36 967.31,-1027.09 1107.58,-904.88"/>
<polygon fill="#dc574a" stroke="#dc574a" points="1109.73,-907.64 1114.99,-898.44 1105.14,-902.36 1109.73,-907.64"/>
</g>
<!-- 6592 -->
<g id="node11" class="node">
<title>6592</title>
<text text-anchor="middle" x="2406.79" y="-592.32" font-family="Times,serif" font-size="14.00">[&quot;allowed&quot;]</text>
</g>
<!-- 6592&#45;&gt;8941 -->
<g id="edge31" class="edge">
<title>6592&#45;&gt;8941</title>
<path fill="none" stroke="#e09d4b" d="M2371.6,-615.27C2301.81,-651.19 2275.89,-668.91 2122.35,-781.78"/>
<polygon fill="#e09d4b" stroke="#e09d4b" points="2120.71,-778.65 2114.72,-787.39 2124.85,-784.29 2120.71,-778.65"/>
</g>
<!-- 6593 -->
<g id="node12" class="node">
<title>6593</title>
<text text-anchor="start" x="2743.1" y="-406.08" font-family="Times,serif" font-size="14.00">Fedora: </text>
<text text-anchor="start" x="2788.1" y="-406.08" font-family="Times,serif" font-weight="bold" font-size="14.00" fill="#228b22">allowed</text>
<text text-anchor="start" x="2579.23" y="-392.08" font-family="Times,serif" font-size="14.00">A license is allowed if Fedora determines that the license is a free software /</text>
<text text-anchor="start" x="2573.98" y="-378.08" font-family="Times,serif" font-size="14.00">open source license. At a high level, the inquiry involves determining whether</text>
<text text-anchor="start" x="2572.85" y="-364.08" font-family="Times,serif" font-size="14.00">the license provides software freedom, and (equivalently) making sure that the</text>
<text text-anchor="start" x="2582.98" y="-350.08" font-family="Times,serif" font-size="14.00">license does not place burdens on users&#39; exercise of its permissions that are</text>
<text text-anchor="start" x="2582.6" y="-336.08" font-family="Times,serif" font-size="14.00">inconsistent with evolving community norms and traditions around what is</text>
<text text-anchor="start" x="2574.35" y="-322.08" font-family="Times,serif" font-size="14.00">acceptable in a free software / open source license. See below for more on the</text>
<text text-anchor="start" x="2694.35" y="-308.08" font-family="Times,serif" font-size="14.00">history of Fedora licensing policy.</text>
</g>
<!-- 6593&#45;&gt;6592 -->
<g id="edge32" class="edge">
<title>6593&#45;&gt;6592</title>
<path fill="none" stroke="#e09d4b" d="M2671.97,-422.26C2625.48,-449.45 2568.78,-487.55 2442.23,-573.34"/>
<polygon fill="#e09d4b" stroke="#e09d4b" points="2440.56,-570.25 2434.25,-578.75 2444.49,-576.04 2440.56,-570.25"/>
</g>
<!-- 8941&#45;&gt;8942 -->
<g id="edge33" class="edge">
<title>8941&#45;&gt;8942</title>
<path fill="none" stroke="#e09d4b" d="M2043.17,-845.41C1963.02,-918.17 1938.22,-942.54 1740.47,-1139.41"/>
<polygon fill="#e09d4b" stroke="#e09d4b" points="1738.14,-1136.79 1733.52,-1146.33 1743.08,-1141.75 1738.14,-1136.79"/>
</g>
<!-- 10004 -->
<g id="node15" class="node">
<title>10004</title>
<text text-anchor="start" x="594.41" y="-2317.48" font-family="Times,serif" font-size="14.00">BlueOakCouncil: </text>
<text text-anchor="start" x="692.66" y="-2317.48" font-family="Times,serif" font-weight="bold" font-size="14.00" fill="#000000">Bronze</text>
<text text-anchor="start" x="457.16" y="-2303.48" font-family="Times,serif" font-size="14.00">These licenses lack important but nonessential elements of permissive open</text>
<text text-anchor="start" x="459.04" y="-2289.48" font-family="Times,serif" font-size="14.00">software licenses or impose additional requirements or restrictions, such as</text>
<text text-anchor="start" x="499.91" y="-2275.48" font-family="Times,serif" font-size="14.00">BSD&#45;style prohibitions against endorsement and promotion.</text>
</g>
<!-- 10004&#45;&gt;10187 -->
<g id="edge34" class="edge">
<title>10004&#45;&gt;10187</title>
<path fill="none" stroke="#00876c" d="M670.19,-2269.89C698.7,-2120.88 710.81,-2096.9 884.43,-1815.08"/>
<polygon fill="#00876c" stroke="#00876c" points="887.35,-1817.02 889.61,-1806.67 881.39,-1813.35 887.35,-1817.02"/>
</g>
<!-- 10187&#45;&gt;10188 -->
<g id="edge35" class="edge">
<title>10187&#45;&gt;10188</title>
<path fill="none" stroke="#00876c" d="M1045.45,-1761.26C1095.91,-1749.23 1155.3,-1725.39 1280.61,-1672.78"/>
<polygon fill="#00876c" stroke="#00876c" points="1281.68,-1676.13 1289.54,-1669.03 1278.97,-1669.67 1281.68,-1676.13"/>
</g>
<!-- 10189 -->
<g id="node18" class="node">
<title>10189</title>
<text text-anchor="middle" x="584.63" y="-2099.41" font-family="Times,serif" font-size="14.00">https://spdx.org/licenses/MIT&#45;enna.html</text>
</g>
<!-- 10189&#45;&gt;10187 -->
<g id="edge36" class="edge">
<title>10189&#45;&gt;10187</title>
<path fill="none" stroke="#00876c" d="M598.54,-2086.6C667.21,-1998.61 682.65,-1982.9 868.58,-1812.71"/>
<polygon fill="#00876c" stroke="#00876c" points="870.85,-1815.37 875.87,-1806.04 866.13,-1810.21 870.85,-1815.37"/>
</g>
<!-- 16928&#45;&gt;16929 -->
<g id="edge37" class="edge">
<title>16928&#45;&gt;16929</title>
<path fill="none" stroke="#deb256" d="M807.86,-1369.57C862.42,-1370.37 933.01,-1372.27 1070.83,-1376.18"/>
<polygon fill="#deb256" stroke="#deb256" points="1070.57,-1379.68 1080.66,-1376.46 1070.77,-1372.68 1070.57,-1379.68"/>
</g>
<!-- 16929&#45;&gt;3125 -->
<g id="edge38" class="edge">
<title>16929&#45;&gt;3125</title>
<path fill="none" stroke="#00876c" stroke-width="2" d="M1181.83,-1356.3C1226.31,-1311.41 1316.99,-1210.21 1361.09,-1156.45"/>
<polygon fill="#00876c" stroke="#00876c" stroke-width="2" points="1366.47,-1149.83 1363.66,-1160.43 1365.24,-1152.13 1360.55,-1157.9 1360.16,-1157.59 1359.78,-1157.27 1364.46,-1151.5 1356.67,-1154.75 1366.47,-1149.83"/>
</g>
<!-- 16929&#45;&gt;52677 -->
<g id="edge39" class="edge">
<title>16929&#45;&gt;52677</title>
<path fill="none" stroke="#379469" stroke-dasharray="5,2" d="M1143.13,-1401.01C1139.22,-1408.43 1137.21,-1413.95 1136.62,-1419.92"/>
<polygon fill="#379469" stroke="#379469" points="1136.85,-1429.59 1132.11,-1419.7 1136.76,-1425.81 1136.61,-1419.59 1136.61,-1419.59 1136.61,-1419.59 1136.76,-1425.81 1141.11,-1419.49 1136.85,-1429.59"/>
</g>
<!-- 16930 -->
<g id="node21" class="node">
<title>16930</title>
<polygon fill="none" stroke="black" points="993.6,-1224.46 993.6,-1239.38 975.65,-1249.92 950.25,-1249.92 932.3,-1239.38 932.3,-1224.46 950.25,-1213.92 975.65,-1213.92 993.6,-1224.46"/>
<polygon fill="none" stroke="black" points="997.6,-1222.17 997.6,-1241.67 976.73,-1253.92 949.16,-1253.92 928.3,-1241.67 928.3,-1222.17 949.16,-1209.92 976.73,-1209.92 997.6,-1222.17"/>
<text text-anchor="middle" x="962.95" y="-1226.87" font-family="Times,serif" font-size="14.00">enna</text>
</g>
<!-- 16930&#45;&gt;16929 -->
<g id="edge40" class="edge">
<title>16930&#45;&gt;16929</title>
<path fill="none" stroke="black" stroke-width="2" d="M979.51,-1252.73C1009.8,-1289.97 1025.66,-1301.89 1110.91,-1352.07"/>
<polygon fill="black" stroke="black" stroke-width="2" points="1118.41,-1356.48 1107.5,-1355.29 1115.94,-1355.61 1109.53,-1351.84 1109.78,-1351.41 1110.04,-1350.98 1116.45,-1354.75 1112.06,-1347.53 1118.41,-1356.48"/>
</g>
<!-- 16931 -->
<g id="node22" class="node">
<title>16931</title>
<text text-anchor="middle" x="146.35" y="-1429.64" font-family="Times,serif" font-size="14.00">https://fedoraproject.org/wiki/Licensing/MIT#enna</text>
</g>
<!-- 16931&#45;&gt;16928 -->
<g id="edge41" class="edge">
<title>16931&#45;&gt;16928</title>
<path fill="none" stroke="#deb256" d="M230.29,-1416.74C295.85,-1403.7 347.61,-1397.43 497.4,-1383.46"/>
<polygon fill="#deb256" stroke="#deb256" points="497.69,-1386.95 507.32,-1382.54 497.04,-1379.98 497.69,-1386.95"/>
</g>
<!-- 16932 -->
<g id="node23" class="node">
<title>16932</title>
<text text-anchor="middle" x="296" y="-1295.07" font-family="Times,serif" font-size="14.00">$TEXT</text>
</g>
<!-- 16932&#45;&gt;16928 -->
<g id="edge42" class="edge">
<title>16932&#45;&gt;16928</title>
<path fill="none" stroke="#deb256" d="M324.37,-1308.09C384.45,-1324.83 411.69,-1330.89 519.49,-1348.49"/>
<polygon fill="#deb256" stroke="#deb256" points="518.6,-1351.89 529.03,-1350.04 519.73,-1344.98 518.6,-1351.89"/>
</g>
<!-- 34489&#45;&gt;34490 -->
<g id="edge43" class="edge">
<title>34489&#45;&gt;34490</title>
<path fill="none" stroke="#e18745" d="M2106.19,-1000.06C2063.89,-1096.67 2047.75,-1116.15 1884.67,-1283.74"/>
<polygon fill="#e18745" stroke="#e18745" points="1882.31,-1281.14 1877.85,-1290.75 1887.33,-1286.03 1882.31,-1281.14"/>
</g>
<!-- 34491 -->
<g id="node26" class="node">
<title>34491</title>
<text text-anchor="middle" x="2479.43" y="-922.61" font-family="Times,serif" font-size="14.00">$TEXT</text>
</g>
<!-- 34491&#45;&gt;34489 -->
<g id="edge44" class="edge">
<title>34491&#45;&gt;34489</title>
<path fill="none" stroke="#e18745" d="M2450.95,-924.16C2377.91,-915.5 2351.01,-916.81 2227.72,-945.16"/>
<polygon fill="#e18745" stroke="#e18745" points="2227.12,-941.7 2218.16,-947.36 2228.69,-948.52 2227.12,-941.7"/>
</g>
<!-- 35300 -->
<g id="node27" class="node">
<title>35300</title>
<polygon fill="none" stroke="black" points="1697.99,-1014.54 1697.99,-1029.45 1664.78,-1040 1617.82,-1040 1584.61,-1029.45 1584.61,-1014.54 1617.82,-1004 1664.78,-1004 1697.99,-1014.54"/>
<text text-anchor="middle" x="1641.3" y="-1016.95" font-family="Times,serif" font-size="14.00">mit&#45;license</text>
</g>
<!-- 35300&#45;&gt;3156 -->
<g id="edge45" class="edge">
<title>35300&#45;&gt;3156</title>
<path fill="none" stroke="#58a066" stroke-dasharray="5,2" d="M1615.85,-1039.88C1585.52,-1062.32 1573.63,-1078.61 1526.58,-1153.21"/>
<polygon fill="#58a066" stroke="#58a066" points="1521.31,-1161.57 1522.83,-1150.71 1523.32,-1158.37 1526.64,-1153.11 1526.64,-1153.11 1526.64,-1153.11 1523.32,-1158.37 1530.45,-1155.51 1521.31,-1161.57"/>
</g>
<!-- 35432 -->
<g id="node28" class="node">
<title>35432</title>
<text text-anchor="middle" x="1666.31" y="-18.46" font-family="Times,serif" font-size="14.00">LicenseTag (ScopedLicenseTag &quot;OrtLicenseCategorization&quot; &quot;permissive&quot; NoLicenseTagText)</text>
</g>
<!-- 39705 -->
<g id="node30" class="node">
<title>39705</title>
<ellipse fill="none" stroke="#d43d51" cx="1477.11" cy="-608.45" rx="157.68" ry="28.99"/>
<text text-anchor="middle" x="1477.11" y="-611.65" font-family="Times,serif" font-size="14.00" fill="gray">OrtLicenseCategorization</text>
<text text-anchor="middle" x="1477.11" y="-595.15" font-family="Times,serif" font-size="14.00" fill="gray">6ab038bf7e84408fc7028be91537e0a4</text>
</g>
<!-- 35432&#45;&gt;39705 -->
<g id="edge46" class="edge">
<title>35432&#45;&gt;39705</title>
<path fill="none" stroke="#d43d51" d="M1657.2,-41.27C1581.74,-188.5 1575.81,-207.08 1487,-568.21"/>
<polygon fill="#d43d51" stroke="#d43d51" points="1483.63,-567.25 1484.65,-577.8 1490.43,-568.92 1483.63,-567.25"/>
</g>
<!-- 35433 -->
<g id="node29" class="node">
<title>35433</title>
<text text-anchor="middle" x="814.21" y="-350.9" font-family="Times,serif" font-size="14.00">LicenseTag (ScopedLicenseTag &quot;OrtLicenseCategorization&quot; &quot;include&#45;in&#45;notice&#45;file&quot; NoLicenseTagText)</text>
</g>
<!-- 35433&#45;&gt;39705 -->
<g id="edge47" class="edge">
<title>35433&#45;&gt;39705</title>
<path fill="none" stroke="#d43d51" d="M1080.24,-373.83C1162.57,-398.93 1248.81,-454.58 1425.85,-573.87"/>
<polygon fill="#d43d51" stroke="#d43d51" points="1423.67,-576.62 1433.91,-579.31 1427.58,-570.82 1423.67,-576.62"/>
</g>
<!-- 39705&#45;&gt;3125 -->
<g id="edge48" class="edge">
<title>39705&#45;&gt;3125</title>
<path fill="none" stroke="#d43d51" d="M1465.85,-637.5C1419.29,-758.47 1415.67,-784.05 1389.44,-1083.86"/>
<polygon fill="#d43d51" stroke="#d43d51" points="1385.97,-1083.33 1388.59,-1093.6 1392.94,-1083.94 1385.97,-1083.33"/>
</g>
<!-- 41931 -->
<g id="node31" class="node">
<title>41931</title>
<ellipse fill="none" stroke="#379469" cx="2258.36" cy="-1717.96" rx="161.4" ry="28.99"/>
<text text-anchor="middle" x="2258.36" y="-1721.16" font-family="Times,serif" font-size="14.00" fill="gray">CavilLicenseChange</text>
<text text-anchor="middle" x="2258.36" y="-1704.66" font-family="Times,serif" font-size="14.00" fill="gray">574f8b606132d4eb5e830b5d878b0252</text>
</g>
<!-- 41931&#45;&gt;41932 -->
<g id="edge49" class="edge">
<title>41931&#45;&gt;41932</title>
<path fill="none" stroke="#379469" d="M2195.35,-1690.85C2140.17,-1667.19 2097.59,-1649.3 1943.76,-1584.86"/>
<polygon fill="#379469" stroke="#379469" points="1945.43,-1581.76 1934.86,-1581.13 1942.73,-1588.22 1945.43,-1581.76"/>
</g>
<!-- 52676 -->
<g id="node33" class="node">
<title>52676</title>
<ellipse fill="none" stroke="#379469" cx="658.6" cy="-1657.03" rx="158.22" ry="28.99"/>
<text text-anchor="middle" x="658.6" y="-1660.23" font-family="Times,serif" font-size="14.00" fill="gray">MetaeffektLicense</text>
<text text-anchor="middle" x="658.6" y="-1643.73" font-family="Times,serif" font-size="14.00" fill="gray">22aa56d3134accef939b51628e0bd8e2</text>
</g>
<!-- 52676&#45;&gt;52677 -->
<g id="edge50" class="edge">
<title>52676&#45;&gt;52677</title>
<path fill="none" stroke="#379469" d="M709.22,-1629.26C796.25,-1582.14 837.55,-1565.58 1069.83,-1479.62"/>
<polygon fill="#379469" stroke="#379469" points="1070.73,-1483.02 1078.9,-1476.26 1068.3,-1476.45 1070.73,-1483.02"/>
</g>
<!-- 52678 -->
<g id="node35" class="node">
<title>52678</title>
<polygon fill="none" stroke="#379469" points="732.65,-1709.19 732.65,-1724.1 639.08,-1734.64 506.76,-1734.64 413.19,-1724.1 413.19,-1709.19 506.76,-1698.64 639.08,-1698.64 732.65,-1709.19"/>
<polygon fill="none" stroke="#379469" points="736.65,-1705.61 736.65,-1727.67 639.31,-1738.64 506.53,-1738.64 409.19,-1727.67 409.19,-1705.61 506.53,-1694.64 639.31,-1694.64 736.65,-1705.61"/>
<text text-anchor="middle" x="572.92" y="-1711.59" font-family="Times,serif" font-size="14.00">MIT License (with enna advertising)</text>
</g>
<!-- 52678&#45;&gt;52677 -->
<g id="edge51" class="edge">
<title>52678&#45;&gt;52677</title>
<path fill="none" stroke="#379469" stroke-width="2" d="M610.12,-1694.24C730.94,-1621.79 765.24,-1606.38 1075.76,-1479.87"/>
<polygon fill="#379469" stroke="#379469" stroke-width="2" points="1083.72,-1476.63 1076.15,-1484.57 1081.53,-1478.06 1074.64,-1480.86 1074.46,-1480.4 1074.27,-1479.94 1081.15,-1477.13 1072.76,-1476.23 1083.72,-1476.63"/>
</g>
<!-- 52679 -->
<g id="node36" class="node">
<title>52679</title>
<polygon fill="none" stroke="#379469" points="1132.41,-1869.13 1132.41,-1884.04 1102.13,-1894.59 1059.29,-1894.59 1029.01,-1884.04 1029.01,-1869.13 1059.29,-1858.59 1102.13,-1858.59 1132.41,-1869.13"/>
<text text-anchor="middle" x="1080.71" y="-1871.54" font-family="Times,serif" font-size="14.00">MIT enna</text>
</g>
<!-- 52679&#45;&gt;52677 -->
<g id="edge52" class="edge">
<title>52679&#45;&gt;52677</title>
<path fill="none" stroke="#379469" stroke-dasharray="5,2" d="M1076.16,-1858.45C1041.09,-1718.04 1042.89,-1703.03 1128.23,-1485.74"/>
<polygon fill="#379469" stroke="#379469" points="1131.78,-1476.71 1132.31,-1487.67 1130.4,-1480.23 1128.12,-1486.02 1128.12,-1486.02 1128.12,-1486.02 1130.4,-1480.23 1123.94,-1484.37 1131.78,-1476.71"/>
</g>
<!-- 59265 -->
<g id="node37" class="node">
<title>59265</title>
<text text-anchor="start" x="1090.41" y="-403.05" font-family="Times,serif" font-size="14.00">HermineLicense: </text>
<text text-anchor="start" x="1187.91" y="-403.05" font-family="Times,serif" font-weight="bold" font-size="14.00" fill="#228b22">We consider it is FOSS</text>
</g>
<!-- 59265&#45;&gt;59404 -->
<g id="edge53" class="edge">
<title>59265&#45;&gt;59404</title>
<path fill="none" stroke="#dc574a" d="M1198.28,-425.05C1144.13,-546.9 1141.89,-564.43 1148.47,-827.93"/>
<polygon fill="#dc574a" stroke="#dc574a" points="1144.98,-828.02 1148.73,-837.93 1151.97,-827.84 1144.98,-828.02"/>
</g>
<!-- 59404&#45;&gt;3125 -->
<g id="edge54" class="edge">
<title>59404&#45;&gt;3125</title>
<path fill="none" stroke="#dc574a" d="M1184.99,-897.1C1233.11,-936.62 1254.72,-961.41 1357.22,-1086.21"/>
<polygon fill="#dc574a" stroke="#dc574a" points="1354.4,-1088.3 1363.45,-1093.81 1359.81,-1083.86 1354.4,-1088.3"/>
</g>
<!-- 67781 -->
<g id="node39" class="node">
<title>67781</title>
<ellipse fill="none" stroke="#00876c" cx="1016.82" cy="-937.92" rx="158.75" ry="28.99"/>
<text text-anchor="middle" x="1016.82" y="-941.12" font-family="Times,serif" font-size="14.00" fill="gray">LicenseLynx</text>
<text text-anchor="middle" x="1016.82" y="-924.62" font-family="Times,serif" font-size="14.00" fill="gray">6439bbbbabec9f72d2f28539353807e5</text>
</g>
<!-- 67781&#45;&gt;3125 -->
<g id="edge55" class="edge">
<title>67781&#45;&gt;3125</title>
<path fill="none" stroke="#00876c" d="M1113.76,-961.27C1166.65,-978.67 1212.91,-1007.36 1338.74,-1090.21"/>
<polygon fill="#00876c" stroke="#00876c" points="1336.8,-1093.12 1347.08,-1095.69 1340.65,-1087.27 1336.8,-1093.12"/>
</g>
<!-- 67782&#45;&gt;3125 -->
<g id="edge56" class="edge">
<title>67782&#45;&gt;3125</title>
<path fill="none" stroke="#00876c" stroke-width="2" d="M1370.73,-1357.21C1351.77,-1234.56 1349.76,-1211.38 1370.72,-1158.16"/>
<polygon fill="#00876c" stroke="#00876c" stroke-width="2" points="1373.99,-1150.1 1374.4,-1161.06 1373.49,-1152.66 1370.69,-1159.56 1370.23,-1159.37 1369.77,-1159.18 1372.56,-1152.29 1366.06,-1157.68 1373.99,-1150.1"/>
</g>
<!-- 77156 -->
<g id="node41" class="node">
<title>77156</title>
<ellipse fill="none" stroke="#e09d4b" cx="1866.68" cy="-2337.55" rx="156.62" ry="28.99"/>
<text text-anchor="middle" x="1866.68" y="-2340.75" font-family="Times,serif" font-size="14.00" fill="gray">TLDRNaming</text>
<text text-anchor="middle" x="1866.68" y="-2324.25" font-family="Times,serif" font-size="14.00" fill="gray">477cb8478f0ecd743fe9d5e11ead783e</text>
</g>
<!-- 77156&#45;&gt;77157 -->
<g id="edge57" class="edge">
<title>77156&#45;&gt;77157</title>
<path fill="none" stroke="#e09d4b" d="M1863.08,-2308.37C1849.28,-2197.91 1842.93,-2173.85 1766.25,-1913.23"/>
<polygon fill="#e09d4b" stroke="#e09d4b" points="1769.63,-1912.32 1763.45,-1903.71 1762.91,-1914.29 1769.63,-1912.32"/>
</g>
<!-- 77158 -->
<g id="node43" class="node">
<title>77158</title>
<polygon fill="none" stroke="#e09d4b" points="2129.81,-2163.45 2129.81,-2178.36 2072.27,-2188.9 1990.88,-2188.9 1933.34,-2178.36 1933.34,-2163.45 1990.88,-2152.9 2072.27,-2152.9 2129.81,-2163.45"/>
<polygon fill="none" stroke="#e09d4b" points="2133.81,-2160.11 2133.81,-2181.69 2072.63,-2192.9 1990.52,-2192.9 1929.34,-2181.69 1929.34,-2160.11 1990.52,-2148.9 2072.63,-2148.9 2133.81,-2160.11"/>
<text text-anchor="middle" x="2031.58" y="-2165.85" font-family="Times,serif" font-size="14.00">tldr&#45;slug:enna&#45;license</text>
</g>
<!-- 77158&#45;&gt;77157 -->
<g id="edge58" class="edge">
<title>77158&#45;&gt;77157</title>
<path fill="none" stroke="#e09d4b" stroke-width="2" d="M2004.38,-2148.6C1938.56,-2094.19 1919.71,-2073.21 1782.45,-1910.84"/>
<polygon fill="#e09d4b" stroke="#e09d4b" stroke-width="2" points="1776.97,-1904.35 1786.86,-1909.08 1779.01,-1905.99 1783.81,-1911.67 1783.43,-1911.99 1783.05,-1912.31 1778.24,-1906.63 1779.99,-1914.89 1776.97,-1904.35"/>
</g>
<!-- 77159 -->
<g id="node44" class="node">
<title>77159</title>
<polygon fill="none" stroke="#e09d4b" points="2322.79,-2406.85 2322.79,-2421.76 2286.66,-2432.3 2235.57,-2432.3 2199.44,-2421.76 2199.44,-2406.85 2235.57,-2396.3 2286.66,-2396.3 2322.79,-2406.85"/>
<polygon fill="none" stroke="#e09d4b" points="2326.79,-2403.85 2326.79,-2424.76 2287.23,-2436.3 2234.99,-2436.3 2195.44,-2424.76 2195.44,-2403.85 2234.99,-2392.3 2287.23,-2392.3 2326.79,-2403.85"/>
<text text-anchor="middle" x="2261.11" y="-2409.25" font-family="Times,serif" font-size="14.00">enna&#45;license</text>
</g>
<!-- 77159&#45;&gt;77158 -->
<g id="edge59" class="edge">
<title>77159&#45;&gt;77158</title>
<path fill="none" stroke="#e09d4b" stroke-width="2" d="M2236.23,-2392C2186.96,-2347.51 2169.14,-2327.98 2058.34,-2201.47"/>
<polygon fill="#e09d4b" stroke="#e09d4b" stroke-width="2" points="2052.86,-2195.21 2062.83,-2199.77 2054.92,-2196.81 2059.82,-2202.41 2059.45,-2202.73 2059.07,-2203.06 2054.17,-2197.47 2056.06,-2205.7 2052.86,-2195.21"/>
</g>
<!-- 77160 -->
<g id="node45" class="node">
<title>77160</title>
<text text-anchor="middle" x="2003.02" y="-2790.52" font-family="Times,serif" font-size="14.00">TLDR: https://tldrlegal.com/license/enna&#45;license</text>
</g>
<!-- 77160&#45;&gt;77156 -->
<g id="edge60" class="edge">
<title>77160&#45;&gt;77156</title>
<path fill="none" stroke="#e09d4b" d="M1998.51,-2777.59C1969.24,-2661.15 1963.94,-2643.36 1879.45,-2377.7"/>
<polygon fill="#e09d4b" stroke="#e09d4b" points="1882.85,-2376.83 1876.48,-2368.36 1876.18,-2378.95 1882.85,-2376.83"/>
</g>
</g>
</svg>
