<?xml version="1.0" encoding="UTF-8" standalone="no"?>
<!DOCTYPE svg PUBLIC "-//W3C//DTD SVG 1.1//EN"
 "http://www.w3.org/Graphics/SVG/1.1/DTD/svg11.dtd">
<!-- Generated by graphviz version 10.0.1 (0)
 -->
<!-- Pages: 1 -->
<svg width="2668pt" height="1732pt"
 viewBox="0.00 0.00 2668.00 1732.00" xmlns="http://www.w3.org/2000/svg" xmlns:xlink="http://www.w3.org/1999/xlink">
<g id="graph0" class="graph" transform="scale(1 1) rotate(0) translate(4 1728)">
<polygon fill="white" stroke="none" points="-4,4 -4,-1728 2664,-1728 2664,4 -4,4"/>
<!-- 2775 -->
<g id="node1" class="node">
<title>2775</title>
<ellipse fill="none" stroke="#b8bf62" cx="951.82" cy="-1487.98" rx="157.15" ry="28.99"/>
<text text-anchor="middle" x="951.82" y="-1491.18" font-family="Times,serif" font-size="14.00" fill="gray">SPDXLicense</text>
<text text-anchor="middle" x="951.82" y="-1474.68" font-family="Times,serif" font-size="14.00" fill="gray">b8473c8a0ec5a1c9bb20c8904ec6f77c</text>
</g>
<!-- 2776 -->
<g id="node2" class="node">
<title>2776</title>
<polygon fill="none" stroke="black" points="1221.52,-1077.93 1221.52,-1092.84 1163.32,-1103.39 1081.02,-1103.39 1022.82,-1092.84 1022.82,-1077.93 1081.02,-1067.39 1163.32,-1067.39 1221.52,-1077.93"/>
<polygon fill="none" stroke="black" points="1225.52,-1074.59 1225.52,-1096.18 1163.68,-1107.39 1080.66,-1107.39 1018.82,-1096.18 1018.82,-1074.59 1080.66,-1063.39 1163.68,-1063.39 1225.52,-1074.59"/>
<polygon fill="none" stroke="black" points="1229.52,-1071.25 1229.52,-1099.52 1164.04,-1111.39 1080.3,-1111.39 1014.82,-1099.52 1014.82,-1071.25 1080.3,-1059.39 1164.04,-1059.39 1229.52,-1071.25"/>
<text text-anchor="middle" x="1122.17" y="-1080.34" font-family="Times,serif" font-size="14.00">spdx:MIT&#45;advertising</text>
</g>
<!-- 2775&#45;&gt;2776 -->
<g id="edge1" class="edge">
<title>2775&#45;&gt;2776</title>
<path fill="none" stroke="#b8bf62" d="M959.94,-1458.54C986.81,-1361.97 997.33,-1338.53 1104.2,-1121.82"/>
<polygon fill="#b8bf62" stroke="#b8bf62" points="1107.24,-1123.57 1108.52,-1113.05 1100.96,-1120.47 1107.24,-1123.57"/>
</g>
<!-- 8092 -->
<g id="node7" class="node">
<title>8092</title>
<polygon fill="none" stroke="#e09d4b" points="1059.73,-749.1 1059.73,-764.01 996.34,-774.56 906.69,-774.56 843.31,-764.01 843.31,-749.1 906.69,-738.56 996.34,-738.56 1059.73,-749.1"/>
<polygon fill="none" stroke="#e09d4b" points="1063.73,-745.71 1063.73,-767.4 996.67,-778.56 906.36,-778.56 839.31,-767.4 839.31,-745.71 906.36,-734.56 996.67,-734.56 1063.73,-745.71"/>
<text text-anchor="middle" x="951.52" y="-751.51" font-family="Times,serif" font-size="14.00">Fedora:MIT&#45;advertising</text>
</g>
<!-- 2776&#45;&gt;8092 -->
<g id="edge2" class="edge">
<title>2776&#45;&gt;8092</title>
<path fill="none" stroke="#e09d4b" stroke-width="2" d="M1094.36,-1058.97C973.28,-943.59 964.15,-926.42 953.9,-789.64"/>
<polygon fill="#e09d4b" stroke="#e09d4b" stroke-width="2" points="953.28,-781.13 958.5,-790.77 953.96,-783.65 954.51,-791.07 954.01,-791.1 953.51,-791.14 952.97,-783.72 949.52,-791.43 953.28,-781.13"/>
</g>
<!-- 45466 -->
<g id="node24" class="node">
<title>45466</title>
<polygon fill="none" stroke="#00876c" points="1860.96,-1153.55 1860.96,-1168.46 1753.11,-1179.01 1600.6,-1179.01 1492.75,-1168.46 1492.75,-1153.55 1600.6,-1143.01 1753.11,-1143.01 1860.96,-1153.55"/>
<polygon fill="none" stroke="#00876c" points="1864.96,-1149.92 1864.96,-1172.09 1753.31,-1183.01 1600.4,-1183.01 1488.75,-1172.09 1488.75,-1149.92 1600.4,-1139.01 1753.31,-1139.01 1864.96,-1149.92"/>
<text text-anchor="middle" x="1676.86" y="-1155.96" font-family="Times,serif" font-size="14.00">metaeffekt:MIT License (with advertising)</text>
</g>
<!-- 2776&#45;&gt;45466 -->
<g id="edge3" class="edge">
<title>2776&#45;&gt;45466</title>
<path fill="none" stroke="#00876c" stroke-width="2" d="M1173.74,-1109.94C1391.63,-1213.32 1433.8,-1225.66 1586.54,-1185.97"/>
<polygon fill="#00876c" stroke="#00876c" stroke-width="2" points="1594.89,-1183.77 1586.36,-1190.67 1592.54,-1184.91 1585.35,-1186.8 1585.22,-1186.32 1585.09,-1185.83 1592.28,-1183.94 1584.07,-1181.96 1594.89,-1183.77"/>
</g>
<!-- 2777 -->
<g id="node3" class="node">
<title>2777</title>
<polygon fill="none" stroke="black" points="1020.63,-804.86 1020.63,-819.77 975.09,-830.32 910.69,-830.32 865.15,-819.77 865.15,-804.86 910.69,-794.32 975.09,-794.32 1020.63,-804.86"/>
<polygon fill="none" stroke="black" points="1024.63,-801.68 1024.63,-822.95 975.55,-834.32 910.23,-834.32 861.15,-822.95 861.15,-801.68 910.23,-790.32 975.55,-790.32 1024.63,-801.68"/>
<text text-anchor="middle" x="942.89" y="-807.27" font-family="Times,serif" font-size="14.00">MIT&#45;advertising</text>
</g>
<!-- 2777&#45;&gt;2776 -->
<g id="edge4" class="edge">
<title>2777&#45;&gt;2776</title>
<path fill="none" stroke="black" stroke-width="2" d="M946.81,-834.74C967.66,-952.99 975.76,-970.41 1079.54,-1052.16"/>
<polygon fill="black" stroke="black" stroke-width="2" points="1086.27,-1057.44 1075.63,-1054.81 1083.95,-1056.25 1078.1,-1051.66 1078.4,-1051.27 1078.71,-1050.87 1084.56,-1055.47 1081.18,-1047.73 1086.27,-1057.44"/>
</g>
<!-- 2777&#45;&gt;8092 -->
<g id="edge5" class="edge">
<title>2777&#45;&gt;8092</title>
<path fill="none" stroke="#e09d4b" stroke-width="2" d="M938.7,-790.04C938.69,-789.91 938.68,-789.78 938.67,-789.65"/>
<polygon fill="#e09d4b" stroke="#e09d4b" stroke-width="2" points="939.58,-781.2 942.99,-791.63 939.8,-783.81 939.01,-791.2 938.51,-791.15 938.02,-791.1 938.81,-783.7 934.04,-790.67 939.58,-781.2"/>
</g>
<!-- 8877 -->
<g id="node11" class="node">
<title>8877</title>
<polygon fill="none" stroke="#00876c" points="961.96,-434.94 961.96,-449.86 894.03,-460.4 797.96,-460.4 730.02,-449.86 730.02,-434.94 797.96,-424.4 894.03,-424.4 961.96,-434.94"/>
<polygon fill="none" stroke="#00876c" points="965.96,-431.52 965.96,-453.28 894.33,-464.4 797.65,-464.4 726.02,-453.28 726.02,-431.52 797.65,-420.4 894.33,-420.4 965.96,-431.52"/>
<text text-anchor="middle" x="845.99" y="-437.35" font-family="Times,serif" font-size="14.00">BlueOak:MIT&#45;advertising</text>
</g>
<!-- 2777&#45;&gt;8877 -->
<g id="edge6" class="edge">
<title>2777&#45;&gt;8877</title>
<path fill="none" stroke="#00876c" stroke-width="2" d="M931.26,-790.09C835.81,-607.5 828.39,-588.11 841.85,-475.58"/>
<polygon fill="#00876c" stroke="#00876c" stroke-width="2" points="842.88,-467.18 846.13,-477.65 843.06,-469.78 842.16,-477.17 841.67,-477.1 841.17,-477.04 842.07,-469.66 837.2,-476.56 842.88,-467.18"/>
</g>
<!-- 27506 -->
<g id="node18" class="node">
<title>27506</title>
<polygon fill="none" stroke="#e18745" points="800.46,-550.27 800.46,-565.18 730.58,-575.73 631.76,-575.73 561.88,-565.18 561.88,-550.27 631.76,-539.73 730.58,-539.73 800.46,-550.27"/>
<polygon fill="none" stroke="#e18745" points="804.46,-546.83 804.46,-568.63 730.88,-579.73 631.46,-579.73 557.88,-568.63 557.88,-546.83 631.46,-535.73 730.88,-535.73 804.46,-546.83"/>
<text text-anchor="middle" x="681.17" y="-552.68" font-family="Times,serif" font-size="14.00">fossology:MIT&#45;advertising</text>
</g>
<!-- 2777&#45;&gt;27506 -->
<g id="edge7" class="edge">
<title>2777&#45;&gt;27506</title>
<path fill="none" stroke="#e18745" stroke-width="2" d="M913.15,-789.86C763.15,-676.54 742.83,-658.99 700.18,-589.38"/>
<polygon fill="#e18745" stroke="#e18745" stroke-width="2" points="695.84,-582.23 704.88,-588.44 697.6,-584.16 701.46,-590.52 701.03,-590.78 700.61,-591.04 696.74,-584.68 697.19,-593.12 695.84,-582.23"/>
</g>
<!-- 37163 -->
<g id="node22" class="node">
<title>37163</title>
<polygon fill="none" stroke="#379469" points="662.62,-905.62 662.62,-920.53 604.1,-931.07 521.34,-931.07 462.82,-920.53 462.82,-905.62 521.34,-895.07 604.1,-895.07 662.62,-905.62"/>
<polygon fill="none" stroke="#379469" points="666.62,-902.28 666.62,-923.87 604.45,-935.07 520.98,-935.07 458.82,-923.87 458.82,-902.28 520.98,-891.07 604.45,-891.07 666.62,-902.28"/>
<text text-anchor="middle" x="562.72" y="-908.02" font-family="Times,serif" font-size="14.00">cavil:MIT&#45;advertising</text>
</g>
<!-- 2777&#45;&gt;37163 -->
<g id="edge8" class="edge">
<title>2777&#45;&gt;37163</title>
<path fill="none" stroke="#379469" stroke-width="2" d="M871.49,-825.75C718.37,-854.71 677.57,-863.95 620.7,-887.52"/>
<polygon fill="#379469" stroke="#379469" stroke-width="2" points="612.9,-890.82 620.36,-882.79 615.06,-889.36 621.91,-886.47 622.11,-886.93 622.3,-887.39 615.45,-890.28 623.86,-891.08 612.9,-890.82"/>
</g>
<!-- 50685 -->
<g id="node29" class="node">
<title>50685</title>
<polygon fill="none" stroke="#b8bf62" points="1641.15,-912.53 1641.15,-927.44 1536.55,-937.98 1388.62,-937.98 1284.02,-927.44 1284.02,-912.53 1388.62,-901.98 1536.55,-901.98 1641.15,-912.53"/>
<polygon fill="none" stroke="#b8bf62" points="1645.15,-908.91 1645.15,-931.05 1536.75,-941.98 1388.42,-941.98 1280.02,-931.05 1280.02,-908.91 1388.42,-897.98 1536.75,-897.98 1645.15,-908.91"/>
<text text-anchor="middle" x="1462.59" y="-914.93" font-family="Times,serif" font-size="14.00">foss&#45;license:Enlightenment License (e16)</text>
</g>
<!-- 2777&#45;&gt;50685 -->
<g id="edge9" class="edge">
<title>2777&#45;&gt;50685</title>
<path fill="none" stroke="#b8bf62" stroke-width="2" d="M992.91,-830.8C1084.24,-863.9 1126.41,-873.05 1326.37,-901.12"/>
<polygon fill="#b8bf62" stroke="#b8bf62" stroke-width="2" points="1334.84,-902.31 1324.31,-905.38 1332.23,-902.45 1324.87,-901.42 1324.94,-900.92 1325.01,-900.43 1332.37,-901.46 1325.56,-896.47 1334.84,-902.31"/>
</g>
<!-- 2778 -->
<g id="node4" class="node">
<title>2778</title>
<polygon fill="none" stroke="black" points="1203.48,-696.14 1203.48,-711.05 1128.08,-721.59 1021.46,-721.59 946.06,-711.05 946.06,-696.14 1021.46,-685.59 1128.08,-685.59 1203.48,-696.14"/>
<polygon fill="none" stroke="black" points="1207.48,-692.66 1207.48,-714.53 1128.36,-725.59 1021.18,-725.59 942.06,-714.53 942.06,-692.66 1021.18,-681.59 1128.36,-681.59 1207.48,-692.66"/>
<text text-anchor="middle" x="1074.77" y="-698.54" font-family="Times,serif" font-size="14.00">Enlightenment License (e16)</text>
</g>
<!-- 2778&#45;&gt;2776 -->
<g id="edge10" class="edge">
<title>2778&#45;&gt;2776</title>
<path fill="none" stroke="#b8bf62" stroke-width="2" d="M1068.93,-726.04C1025.86,-892.17 1025.85,-910.2 1102.34,-1049.52"/>
<polygon fill="#b8bf62" stroke="#b8bf62" stroke-width="2" points="1106.56,-1057.18 1097.8,-1050.59 1104.89,-1055.18 1101.3,-1048.66 1101.74,-1048.42 1102.18,-1048.18 1105.77,-1054.7 1105.68,-1046.25 1106.56,-1057.18"/>
</g>
<!-- 2778&#45;&gt;8092 -->
<g id="edge11" class="edge">
<title>2778&#45;&gt;8092</title>
<path fill="none" stroke="#e09d4b" stroke-dasharray="5,2" d="M994.57,-722.34C990.78,-723.97 987.37,-725.75 984.1,-727.79"/>
<polygon fill="#e09d4b" stroke="#e09d4b" points="976.08,-733.57 981.56,-724.07 979.15,-731.36 984.19,-727.72 984.19,-727.72 984.19,-727.72 979.15,-731.36 986.82,-731.37 976.08,-733.57"/>
</g>
<!-- 2778&#45;&gt;8877 -->
<g id="edge12" class="edge">
<title>2778&#45;&gt;8877</title>
<path fill="none" stroke="#00876c" stroke-width="2" d="M1052.98,-681.26C926.45,-551.47 906.63,-530.31 867.51,-473.88"/>
<polygon fill="#00876c" stroke="#00876c" stroke-width="2" points="862.7,-466.9 872.08,-472.58 864.57,-468.73 868.79,-474.85 868.38,-475.13 867.96,-475.42 863.74,-469.29 864.67,-477.69 862.7,-466.9"/>
</g>
<!-- 2778&#45;&gt;27506 -->
<g id="edge13" class="edge">
<title>2778&#45;&gt;27506</title>
<path fill="none" stroke="#e18745" stroke-width="2" d="M1020.35,-681.32C864.61,-617.6 816.1,-598.28 759.64,-580.66"/>
<polygon fill="#e18745" stroke="#e18745" stroke-width="2" points="751.31,-578.09 762.19,-576.73 753.91,-578.37 761.02,-580.55 760.87,-581.03 760.72,-581.51 753.61,-579.32 759.55,-585.33 751.31,-578.09"/>
</g>
<!-- 2778&#45;&gt;50685 -->
<g id="edge14" class="edge">
<title>2778&#45;&gt;50685</title>
<path fill="none" stroke="#b8bf62" stroke-width="2" d="M1128.27,-726.03C1201.34,-757.51 1237.77,-779.28 1417.26,-891.6"/>
<polygon fill="#b8bf62" stroke="#b8bf62" stroke-width="2" points="1424.69,-896.25 1413.83,-894.76 1422.25,-895.32 1415.95,-891.37 1416.21,-890.95 1416.48,-890.52 1422.78,-894.47 1418.6,-887.13 1424.69,-896.25"/>
</g>
<!-- 2816 -->
<g id="node5" class="node">
<title>2816</title>
<polygon fill="none" stroke="black" points="1940.61,-1501.84 1940.61,-1516.75 1922.66,-1527.3 1897.26,-1527.3 1879.31,-1516.75 1879.31,-1501.84 1897.26,-1491.3 1922.66,-1491.3 1940.61,-1501.84"/>
<text text-anchor="middle" x="1909.96" y="-1504.25" font-family="Times,serif" font-size="14.00">MIT</text>
</g>
<!-- 2816&#45;&gt;45466 -->
<g id="edge15" class="edge">
<title>2816&#45;&gt;45466</title>
<path fill="none" stroke="#00876c" stroke-dasharray="5,2" d="M1900.63,-1490.92C1853.92,-1399.05 1843.15,-1383.22 1700.18,-1192.16"/>
<polygon fill="#00876c" stroke="#00876c" points="1694.22,-1184.2 1703.82,-1189.51 1696.49,-1187.23 1700.21,-1192.21 1700.21,-1192.21 1700.21,-1192.21 1696.49,-1187.23 1696.61,-1194.91 1694.22,-1184.2"/>
</g>
<!-- 8091 -->
<g id="node6" class="node">
<title>8091</title>
<ellipse fill="none" stroke="#e09d4b" cx="695.26" cy="-695.86" rx="160.34" ry="28.99"/>
<text text-anchor="middle" x="695.26" y="-699.06" font-family="Times,serif" font-size="14.00" fill="gray">FedoraEntry</text>
<text text-anchor="middle" x="695.26" y="-682.56" font-family="Times,serif" font-size="14.00" fill="gray">95050cc07984b832df86c85582bd35c1</text>
</g>
<!-- 8091&#45;&gt;8092 -->
<g id="edge16" class="edge">
<title>8091&#45;&gt;8092</title>
<path fill="none" stroke="#e09d4b" d="M796.65,-718.7C814.74,-723.03 837.1,-728.48 868.05,-736.06"/>
<polygon fill="#e09d4b" stroke="#e09d4b" points="866.87,-739.38 877.41,-738.36 868.53,-732.58 866.87,-739.38"/>
</g>
<!-- 8093 -->
<g id="node8" class="node">
<title>8093</title>
<polygon fill="none" stroke="black" points="1348.3,-513.99 1348.3,-528.9 1291.08,-539.45 1210.15,-539.45 1152.93,-528.9 1152.93,-513.99 1210.15,-503.45 1291.08,-503.45 1348.3,-513.99"/>
<polygon fill="none" stroke="black" points="1352.3,-510.66 1352.3,-532.23 1291.44,-543.45 1209.79,-543.45 1148.93,-532.23 1148.93,-510.66 1209.79,-499.45 1291.44,-499.45 1352.3,-510.66"/>
<text text-anchor="middle" x="1250.61" y="-516.4" font-family="Times,serif" font-size="14.00">MIT with advertising</text>
</g>
<!-- 8093&#45;&gt;8092 -->
<g id="edge17" class="edge">
<title>8093&#45;&gt;8092</title>
<path fill="none" stroke="#e09d4b" stroke-dasharray="5,2" d="M1191.07,-540.44C1056.21,-584.4 1038.36,-601.8 969.16,-724.96"/>
<polygon fill="#e09d4b" stroke="#e09d4b" points="964.46,-733.34 965.43,-722.42 966.31,-730.04 969.35,-724.62 969.35,-724.62 969.35,-724.62 966.31,-730.04 973.28,-726.82 964.46,-733.34"/>
</g>
<!-- 8628 -->
<g id="node9" class="node">
<title>8628</title>
<polygon fill="none" stroke="#e09d4b" points="1465.69,-138.86 1465.69,-153.78 1387.37,-164.32 1276.61,-164.32 1198.3,-153.78 1198.3,-138.86 1276.61,-128.32 1387.37,-128.32 1465.69,-138.86"/>
<text text-anchor="middle" x="1331.99" y="-141.27" font-family="Times,serif" font-size="14.00">Fedora:zlib&#45;acknowledgement</text>
</g>
<!-- 8093&#45;&gt;8628 -->
<g id="edge18" class="edge">
<title>8093&#45;&gt;8628</title>
<path fill="none" stroke="#e09d4b" stroke-dasharray="5,2" d="M1253.56,-499.27C1282.63,-280.54 1286.49,-256.93 1320.15,-174.86"/>
<polygon fill="#e09d4b" stroke="#e09d4b" points="1323.94,-165.67 1324.29,-176.63 1322.5,-169.17 1320.13,-174.91 1320.13,-174.91 1320.13,-174.91 1322.5,-169.17 1315.97,-173.2 1323.94,-165.67"/>
</g>
<!-- 8093&#45;&gt;50685 -->
<g id="edge19" class="edge">
<title>8093&#45;&gt;50685</title>
<path fill="none" stroke="#b8bf62" stroke-width="2" d="M1275.37,-543.83C1369.54,-629.64 1379.07,-651.01 1452.31,-886.84"/>
<polygon fill="#b8bf62" stroke="#b8bf62" stroke-width="2" points="1454.89,-895.17 1447.63,-886.96 1453.66,-892.87 1451.45,-885.77 1451.93,-885.62 1452.41,-885.47 1454.61,-892.58 1456.23,-884.29 1454.89,-895.17"/>
</g>
<!-- 8876 -->
<g id="node10" class="node">
<title>8876</title>
<ellipse fill="none" stroke="#00876c" cx="667.72" cy="-28.74" rx="159.28" ry="28.99"/>
<text text-anchor="middle" x="667.72" y="-31.94" font-family="Times,serif" font-size="14.00" fill="gray">BlueOakCouncil</text>
<text text-anchor="middle" x="667.72" y="-15.44" font-family="Times,serif" font-size="14.00" fill="gray">fbae1c34829d07bedd38622837e051a2</text>
</g>
<!-- 8876&#45;&gt;8877 -->
<g id="edge20" class="edge">
<title>8876&#45;&gt;8877</title>
<path fill="none" stroke="#00876c" d="M673.71,-58.2C695.86,-165.65 706.37,-187.78 828.24,-410.03"/>
<polygon fill="#00876c" stroke="#00876c" points="825.14,-411.67 833.02,-418.75 831.28,-408.3 825.14,-411.67"/>
</g>
<!-- 15156 -->
<g id="node12" class="node">
<title>15156</title>
<ellipse fill="none" stroke="#dac767" cx="2498.77" cy="-986.46" rx="160.87" ry="28.99"/>
<text text-anchor="middle" x="2498.77" y="-989.66" font-family="Times,serif" font-size="14.00" fill="gray">ScancodeData</text>
<text text-anchor="middle" x="2498.77" y="-973.16" font-family="Times,serif" font-size="14.00" fill="gray">45056c36e869093074a9a880a24c4174</text>
</g>
<!-- 15157 -->
<g id="node13" class="node">
<title>15157</title>
<polygon fill="none" stroke="black" points="2167.16,-914.33 2167.16,-929.24 2103.45,-939.78 2013.35,-939.78 1949.63,-929.24 1949.63,-914.33 2013.35,-903.78 2103.45,-903.78 2167.16,-914.33"/>
<polygon fill="none" stroke="black" points="2171.16,-910.93 2171.16,-932.63 2103.78,-943.78 2013.02,-943.78 1945.63,-932.63 1945.63,-910.93 2013.02,-899.78 2103.78,-899.78 2171.16,-910.93"/>
<text text-anchor="middle" x="2058.4" y="-916.73" font-family="Times,serif" font-size="14.00">scancode:enlightenment</text>
</g>
<!-- 15156&#45;&gt;15157 -->
<g id="edge21" class="edge">
<title>15156&#45;&gt;15157</title>
<path fill="none" stroke="#dac767" d="M2381.92,-966.19C2336.04,-958.93 2281.94,-951.5 2170.16,-936.62"/>
<polygon fill="#dac767" stroke="#dac767" points="2170.68,-933.16 2160.3,-935.31 2169.75,-940.09 2170.68,-933.16"/>
</g>
<!-- 15157&#45;&gt;45466 -->
<g id="edge22" class="edge">
<title>15157&#45;&gt;45466</title>
<path fill="none" stroke="#00876c" stroke-dasharray="5,2" d="M2042.56,-944.01C1962.32,-1056.14 1942.51,-1072.2 1755.32,-1135"/>
<polygon fill="#00876c" stroke="#00876c" points="1745.97,-1138.12 1754.02,-1130.68 1749.55,-1136.92 1755.45,-1134.95 1755.45,-1134.95 1755.45,-1134.95 1749.55,-1136.92 1756.88,-1139.22 1745.97,-1138.12"/>
</g>
<!-- 15157&#45;&gt;50685 -->
<g id="edge23" class="edge">
<title>15157&#45;&gt;50685</title>
<path fill="none" stroke="#b8bf62" stroke-width="2" d="M1945.32,-930.48C1874.86,-934.54 1812.69,-933.74 1656.47,-927.78"/>
<polygon fill="#b8bf62" stroke="#b8bf62" stroke-width="2" points="1647.99,-927.45 1658.15,-923.34 1650.57,-927.05 1658,-927.34 1657.98,-927.84 1657.96,-928.34 1650.53,-928.05 1657.81,-932.33 1647.99,-927.45"/>
</g>
<!-- 15158 -->
<g id="node14" class="node">
<title>15158</title>
<polygon fill="none" stroke="black" points="2401.84,-1079.22 2401.84,-1094.13 2361.16,-1104.67 2303.65,-1104.67 2262.97,-1094.13 2262.97,-1079.22 2303.65,-1068.67 2361.16,-1068.67 2401.84,-1079.22"/>
<polygon fill="none" stroke="black" points="2405.84,-1076.12 2405.84,-1097.23 2361.67,-1108.67 2303.14,-1108.67 2258.97,-1097.23 2258.97,-1076.12 2303.14,-1064.67 2361.67,-1064.67 2405.84,-1076.12"/>
<text text-anchor="middle" x="2332.4" y="-1081.62" font-family="Times,serif" font-size="14.00">enlightenment</text>
</g>
<!-- 15158&#45;&gt;15157 -->
<g id="edge24" class="edge">
<title>15158&#45;&gt;15157</title>
<path fill="none" stroke="black" stroke-width="2" d="M2309.39,-1064.38C2262.31,-1019.52 2240.86,-1006.79 2115.94,-948.52"/>
<polygon fill="black" stroke="black" stroke-width="2" points="2108.17,-944.9 2119.14,-945.04 2110.71,-945.53 2117.45,-948.67 2117.24,-949.12 2117.03,-949.57 2110.29,-946.43 2115.34,-953.2 2108.17,-944.9"/>
</g>
<!-- 15159 -->
<g id="node15" class="node">
<title>15159</title>
<polygon fill="none" stroke="#dac767" points="2511.94,-797.42 2511.94,-812.33 2448.88,-822.88 2359.69,-822.88 2296.63,-812.33 2296.63,-797.42 2359.69,-786.88 2448.88,-786.88 2511.94,-797.42"/>
<polygon fill="none" stroke="#dac767" points="2515.94,-794.03 2515.94,-815.72 2449.21,-826.88 2359.36,-826.88 2292.63,-815.72 2292.63,-794.03 2359.36,-782.88 2449.21,-782.88 2515.94,-794.03"/>
<text text-anchor="middle" x="2404.28" y="-799.83" font-family="Times,serif" font-size="14.00">EFL MIT&#45;Style License</text>
</g>
<!-- 15159&#45;&gt;15157 -->
<g id="edge25" class="edge">
<title>15159&#45;&gt;15157</title>
<path fill="none" stroke="#dac767" stroke-width="2" d="M2365.72,-827.21C2309.34,-858.92 2278.65,-869.02 2143.37,-901.55"/>
<polygon fill="#dac767" stroke="#dac767" stroke-width="2" points="2134.95,-903.57 2143.62,-896.86 2137.32,-902.48 2144.56,-900.75 2144.67,-901.23 2144.79,-901.72 2137.56,-903.46 2145.72,-905.61 2134.95,-903.57"/>
</g>
<!-- 15160 -->
<g id="node16" class="node">
<title>15160</title>
<polygon fill="none" stroke="#dac767" points="2567.91,-599.93 2567.91,-614.84 2464.29,-625.39 2317.73,-625.39 2214.11,-614.84 2214.11,-599.93 2317.73,-589.39 2464.29,-589.39 2567.91,-599.93"/>
<polygon fill="none" stroke="#dac767" points="2571.91,-596.32 2571.91,-618.46 2464.49,-629.39 2317.53,-629.39 2210.11,-618.46 2210.11,-596.32 2317.53,-585.39 2464.49,-585.39 2571.91,-596.32"/>
<text text-anchor="middle" x="2391.01" y="-602.34" font-family="Times,serif" font-size="14.00">Enlightenment (EFL) MIT&#45;Style License</text>
</g>
<!-- 15160&#45;&gt;15157 -->
<g id="edge26" class="edge">
<title>15160&#45;&gt;15157</title>
<path fill="none" stroke="#dac767" stroke-width="2" d="M2379.68,-629.51C2319.08,-747.2 2303.97,-761.96 2101.94,-893.48"/>
<polygon fill="#dac767" stroke="#dac767" stroke-width="2" points="2094.85,-898.1 2100.78,-888.87 2096.73,-896.28 2102.96,-892.22 2103.23,-892.64 2103.51,-893.06 2097.27,-897.12 2105.69,-896.41 2094.85,-898.1"/>
</g>
<!-- 27505 -->
<g id="node17" class="node">
<title>27505</title>
<ellipse fill="none" stroke="#e18745" cx="284.1" cy="-358.71" rx="159.28" ry="28.99"/>
<text text-anchor="middle" x="284.1" y="-361.91" font-family="Times,serif" font-size="14.00" fill="gray">Fossology</text>
<text text-anchor="middle" x="284.1" y="-345.41" font-family="Times,serif" font-size="14.00" fill="gray">f6dc84d0d80b63a666a5f470d288844d</text>
</g>
<!-- 27505&#45;&gt;27506 -->
<g id="edge27" class="edge">
<title>27505&#45;&gt;27506</title>
<path fill="none" stroke="#e18745" d="M337.7,-386.44C404.7,-420.99 444.2,-440.63 625.58,-530.26"/>
<polygon fill="#e18745" stroke="#e18745" points="623.87,-533.32 634.38,-534.61 626.97,-527.04 623.87,-533.32"/>
</g>
<!-- 28327 -->
<g id="node19" class="node">
<title>28327</title>
<polygon fill="none" stroke="black" points="2090.15,-1698.34 2090.15,-1713.25 2056.94,-1723.79 2009.97,-1723.79 1976.77,-1713.25 1976.77,-1698.34 2009.97,-1687.79 2056.94,-1687.79 2090.15,-1698.34"/>
<text text-anchor="middle" x="2033.46" y="-1700.74" font-family="Times,serif" font-size="14.00">mit&#45;license</text>
</g>
<!-- 28327&#45;&gt;2816 -->
<g id="edge28" class="edge">
<title>28327&#45;&gt;2816</title>
<path fill="none" stroke="#379469" stroke-dasharray="5,2" d="M2024.25,-1687.41C2002.85,-1644.99 1993.65,-1630.73 1928.81,-1536.64"/>
<polygon fill="#379469" stroke="#379469" points="1923.27,-1528.59 1932.65,-1534.27 1925.41,-1531.71 1928.94,-1536.83 1928.94,-1536.83 1928.94,-1536.83 1925.41,-1531.71 1925.24,-1539.38 1923.27,-1528.59"/>
</g>
<!-- 35060 -->
<g id="node20" class="node">
<title>35060</title>
<ellipse fill="none" stroke="#e06f45" cx="788.21" cy="-1357.93" rx="155.56" ry="28.99"/>
<text text-anchor="middle" x="788.21" y="-1361.13" font-family="Times,serif" font-size="14.00" fill="gray">OrtLicenseCategorization</text>
<text text-anchor="middle" x="788.21" y="-1344.63" font-family="Times,serif" font-size="14.00" fill="gray">88d72f4aa4a8e6f1457be4721081c2cf</text>
</g>
<!-- 35060&#45;&gt;2776 -->
<g id="edge29" class="edge">
<title>35060&#45;&gt;2776</title>
<path fill="none" stroke="#e06f45" d="M827.12,-1329.41C892.56,-1281.13 921.1,-1257.27 1083.02,-1118.85"/>
<polygon fill="#e06f45" stroke="#e06f45" points="1084.86,-1121.89 1090.19,-1112.73 1080.31,-1116.57 1084.86,-1121.89"/>
</g>
<!-- 37162 -->
<g id="node21" class="node">
<title>37162</title>
<ellipse fill="none" stroke="#379469" cx="155.35" cy="-993.38" rx="155.56" ry="28.99"/>
<text text-anchor="middle" x="155.35" y="-996.58" font-family="Times,serif" font-size="14.00" fill="gray">CavilLicenseChange</text>
<text text-anchor="middle" x="155.35" y="-980.08" font-family="Times,serif" font-size="14.00" fill="gray">1dfc40481c96dcbca86f0580fad81ba5</text>
</g>
<!-- 37162&#45;&gt;37163 -->
<g id="edge30" class="edge">
<title>37162&#45;&gt;37163</title>
<path fill="none" stroke="#379469" d="M247.27,-969.71C294.37,-958.71 344.11,-949.79 465.2,-929.42"/>
<polygon fill="#379469" stroke="#379469" points="465.59,-932.9 474.87,-927.79 464.43,-926 465.59,-932.9"/>
</g>
<!-- 45465 -->
<g id="node23" class="node">
<title>45465</title>
<ellipse fill="none" stroke="#00876c" cx="1635.2" cy="-1222" rx="159.28" ry="28.99"/>
<text text-anchor="middle" x="1635.2" y="-1225.2" font-family="Times,serif" font-size="14.00" fill="gray">MetaeffektLicense</text>
<text text-anchor="middle" x="1635.2" y="-1208.7" font-family="Times,serif" font-size="14.00" fill="gray">5cd51dfc91db0926f7d1c2382d61d33b</text>
</g>
<!-- 45465&#45;&gt;45466 -->
<g id="edge31" class="edge">
<title>45465&#45;&gt;45466</title>
<path fill="none" stroke="#00876c" d="M1667.12,-1193.49C1667.16,-1193.4 1667.2,-1193.31 1667.24,-1193.22"/>
<polygon fill="#00876c" stroke="#00876c" points="1670.19,-1195.34 1670.35,-1184.75 1663.62,-1192.93 1670.19,-1195.34"/>
</g>
<!-- 45467 -->
<g id="node25" class="node">
<title>45467</title>
<polygon fill="none" stroke="black" points="1763.66,-1097.14 1763.66,-1112.06 1682.75,-1122.6 1568.32,-1122.6 1487.41,-1112.06 1487.41,-1097.14 1568.32,-1086.6 1682.75,-1086.6 1763.66,-1097.14"/>
<polygon fill="none" stroke="black" points="1767.66,-1093.63 1767.66,-1115.57 1683.01,-1126.6 1568.06,-1126.6 1483.41,-1115.57 1483.41,-1093.63 1568.06,-1082.6 1683.01,-1082.6 1767.66,-1093.63"/>
<text text-anchor="middle" x="1625.53" y="-1099.55" font-family="Times,serif" font-size="14.00">MIT License (with advertising)</text>
</g>
<!-- 45467&#45;&gt;45466 -->
<g id="edge32" class="edge">
<title>45467&#45;&gt;45466</title>
<path fill="none" stroke="#00876c" stroke-width="2" d="M1647.33,-1126.88C1648.66,-1128.25 1649.9,-1129.54 1651.07,-1130.75"/>
<polygon fill="#00876c" stroke="#00876c" stroke-width="2" points="1656.95,-1136.97 1646.81,-1132.79 1654.82,-1135.45 1649.72,-1130.04 1650.08,-1129.7 1650.44,-1129.36 1655.55,-1134.76 1653.35,-1126.61 1656.95,-1136.97"/>
</g>
<!-- 45467&#45;&gt;50685 -->
<g id="edge33" class="edge">
<title>45467&#45;&gt;50685</title>
<path fill="none" stroke="#b8bf62" stroke-width="2" d="M1611.12,-1082.35C1585.31,-1043.13 1571.51,-1028.02 1493.02,-950.14"/>
<polygon fill="#b8bf62" stroke="#b8bf62" stroke-width="2" points="1486.95,-944.12 1497.22,-947.97 1489.12,-945.57 1494.4,-950.81 1494.05,-951.16 1493.7,-951.52 1488.42,-946.28 1490.88,-954.36 1486.95,-944.12"/>
</g>
<!-- 45468 -->
<g id="node26" class="node">
<title>45468</title>
<polygon fill="none" stroke="black" points="1940.44,-751.08 1940.44,-765.99 1875.43,-776.54 1783.49,-776.54 1718.48,-765.99 1718.48,-751.08 1783.49,-740.54 1875.43,-740.54 1940.44,-751.08"/>
<polygon fill="none" stroke="black" points="1944.44,-747.68 1944.44,-769.39 1875.75,-780.54 1783.17,-780.54 1714.48,-769.39 1714.48,-747.68 1783.17,-736.54 1875.75,-736.54 1944.44,-747.68"/>
<text text-anchor="middle" x="1829.46" y="-753.49" font-family="Times,serif" font-size="14.00">MIT advertising License</text>
</g>
<!-- 45468&#45;&gt;45466 -->
<g id="edge34" class="edge">
<title>45468&#45;&gt;45466</title>
<path fill="none" stroke="#00876c" stroke-dasharray="5,2" d="M1830.22,-781C1836.43,-967.32 1832.02,-984.09 1703.4,-1130.82"/>
<polygon fill="#00876c" stroke="#00876c" points="1697.18,-1137.91 1700.4,-1127.42 1699.68,-1135.07 1703.78,-1130.39 1703.78,-1130.39 1703.78,-1130.39 1699.68,-1135.07 1707.16,-1133.36 1697.18,-1137.91"/>
</g>
<!-- 45468&#45;&gt;50685 -->
<g id="edge35" class="edge">
<title>45468&#45;&gt;50685</title>
<path fill="none" stroke="#b8bf62" stroke-width="2" d="M1798.24,-781.01C1732.17,-827.87 1703.96,-840.28 1541.25,-894.1"/>
<polygon fill="#b8bf62" stroke="#b8bf62" stroke-width="2" points="1533.17,-896.77 1541.25,-889.36 1535.45,-895.49 1542.51,-893.16 1542.66,-893.63 1542.82,-894.11 1535.76,-896.44 1544.08,-897.9 1533.17,-896.77"/>
</g>
<!-- 45469 -->
<g id="node27" class="node">
<title>45469</title>
<polygon fill="none" stroke="black" points="1464.78,-1342.36 1464.78,-1357.27 1399.45,-1367.82 1307.05,-1367.82 1241.71,-1357.27 1241.71,-1342.36 1307.05,-1331.82 1399.45,-1331.82 1464.78,-1342.36"/>
<polygon fill="none" stroke="black" points="1468.78,-1338.96 1468.78,-1360.68 1399.77,-1371.82 1306.73,-1371.82 1237.71,-1360.68 1237.71,-1338.96 1306.73,-1327.82 1399.77,-1327.82 1468.78,-1338.96"/>
<text text-anchor="middle" x="1353.25" y="-1344.77" font-family="Times,serif" font-size="14.00">MIT&#45;advertising License</text>
</g>
<!-- 45469&#45;&gt;45466 -->
<g id="edge36" class="edge">
<title>45469&#45;&gt;45466</title>
<path fill="none" stroke="#00876c" stroke-dasharray="5,2" d="M1449.64,-1335.39C1543.5,-1318.19 1569.04,-1294.84 1652.03,-1191.94"/>
<polygon fill="#00876c" stroke="#00876c" points="1658.14,-1184.35 1655.37,-1194.96 1655.77,-1187.3 1651.87,-1192.14 1651.87,-1192.14 1651.87,-1192.14 1655.77,-1187.3 1648.36,-1189.32 1658.14,-1184.35"/>
</g>
<!-- 45469&#45;&gt;50685 -->
<g id="edge37" class="edge">
<title>45469&#45;&gt;50685</title>
<path fill="none" stroke="#b8bf62" stroke-width="2" d="M1366.76,-1327.6C1429.72,-1223.51 1433.86,-1203.56 1459.24,-953.07"/>
<polygon fill="#b8bf62" stroke="#b8bf62" stroke-width="2" points="1460.1,-944.56 1463.57,-954.96 1460.34,-947.16 1459.59,-954.56 1459.1,-954.51 1458.6,-954.46 1459.35,-947.06 1454.62,-954.06 1460.1,-944.56"/>
</g>
<!-- 50684 -->
<g id="node28" class="node">
<title>50684</title>
<ellipse fill="none" stroke="#b8bf62" cx="1533.67" cy="-1444.65" rx="159.28" ry="28.99"/>
<text text-anchor="middle" x="1533.67" y="-1447.85" font-family="Times,serif" font-size="14.00" fill="gray">FossLicense</text>
<text text-anchor="middle" x="1533.67" y="-1431.35" font-family="Times,serif" font-size="14.00" fill="gray">5bcf18bbabc8a084677894b0787936ee</text>
</g>
<!-- 50684&#45;&gt;50685 -->
<g id="edge38" class="edge">
<title>50684&#45;&gt;50685</title>
<path fill="none" stroke="#b8bf62" d="M1536.02,-1415.32C1546.65,-1279.49 1542.44,-1255.7 1470.42,-952.92"/>
<polygon fill="#b8bf62" stroke="#b8bf62" points="1473.9,-952.42 1468.18,-943.5 1467.09,-954.04 1473.9,-952.42"/>
</g>
</g>
</svg>
