<?xml version="1.0" encoding="UTF-8" standalone="no"?>
<!DOCTYPE svg PUBLIC "-//W3C//DTD SVG 1.1//EN"
 "http://www.w3.org/Graphics/SVG/1.1/DTD/svg11.dtd">
<!-- Generated by graphviz version 10.0.1 (0)
 -->
<!-- Pages: 1 -->
<svg width="3192pt" height="2211pt"
 viewBox="0.00 0.00 3192.00 2211.00" xmlns="http://www.w3.org/2000/svg" xmlns:xlink="http://www.w3.org/1999/xlink">
<g id="graph0" class="graph" transform="scale(1 1) rotate(0) translate(4 2207)">
<polygon fill="white" stroke="none" points="-4,4 -4,-2207 3188,-2207 3188,4 -4,4"/>
<!-- 5 -->
<g id="node1" class="node">
<title>5</title>
<text text-anchor="start" x="794.38" y="-1843.59" font-family="Times,serif" font-size="14.00">OSI: </text>
<text text-anchor="start" x="823.63" y="-1843.59" font-family="Times,serif" font-weight="bold" font-size="14.00" fill="#8b0000">Rejected</text>
</g>
<!-- 3083 -->
<g id="node2" class="node">
<title>3083</title>
<ellipse fill="none" stroke="#dac767" cx="1100.81" cy="-1669.42" rx="157.15" ry="28.99"/>
<text text-anchor="middle" x="1100.81" y="-1672.62" font-family="Times,serif" font-size="14.00" fill="gray">SPDXLicense</text>
<text text-anchor="middle" x="1100.81" y="-1656.12" font-family="Times,serif" font-size="14.00" fill="gray">bbb47fc8aefc7880a47e9a7926752958</text>
</g>
<!-- 5&#45;&gt;3083 -->
<g id="edge1" class="edge">
<title>5&#45;&gt;3083</title>
<path fill="none" stroke="#dac767" d="M871.2,-1829.72C921.38,-1804.76 945.85,-1787.59 1054.52,-1704.76"/>
<polygon fill="#dac767" stroke="#dac767" points="1056.51,-1707.64 1062.34,-1698.8 1052.26,-1702.08 1056.51,-1707.64"/>
</g>
<!-- 3084 -->
<g id="node3" class="node">
<title>3084</title>
<polygon fill="none" stroke="black" points="1462.16,-1263.38 1462.16,-1278.29 1400.39,-1288.84 1313.04,-1288.84 1251.28,-1278.29 1251.28,-1263.38 1313.04,-1252.84 1400.39,-1252.84 1462.16,-1263.38"/>
<polygon fill="none" stroke="black" points="1466.16,-1260 1466.16,-1281.67 1400.73,-1292.84 1312.71,-1292.84 1247.28,-1281.67 1247.28,-1260 1312.71,-1248.84 1400.73,-1248.84 1466.16,-1260"/>
<polygon fill="none" stroke="black" points="1470.16,-1256.63 1470.16,-1285.04 1401.07,-1296.84 1312.37,-1296.84 1243.28,-1285.04 1243.28,-1256.63 1312.37,-1244.84 1401.07,-1244.84 1470.16,-1256.63"/>
<text text-anchor="middle" x="1356.72" y="-1265.79" font-family="Times,serif" font-size="14.00">spdx:MIT&#45;Khronos&#45;old</text>
</g>
<!-- 3083&#45;&gt;3084 -->
<g id="edge2" class="edge">
<title>3083&#45;&gt;3084</title>
<path fill="none" stroke="#dac767" d="M1114.52,-1640.09C1161.03,-1541.18 1176.3,-1518.46 1330.73,-1306.49"/>
<polygon fill="#dac767" stroke="#dac767" points="1333.52,-1308.61 1336.58,-1298.46 1327.87,-1304.48 1333.52,-1308.61"/>
</g>
<!-- 8931 -->
<g id="node14" class="node">
<title>8931</title>
<polygon fill="none" stroke="#e09d4b" points="1901.83,-1359.31 1901.83,-1374.22 1834.87,-1384.77 1740.18,-1384.77 1673.22,-1374.22 1673.22,-1359.31 1740.18,-1348.77 1834.87,-1348.77 1901.83,-1359.31"/>
<polygon fill="none" stroke="#e09d4b" points="1905.83,-1355.89 1905.83,-1377.64 1835.19,-1388.77 1739.87,-1388.77 1669.22,-1377.64 1669.22,-1355.89 1739.87,-1344.77 1835.19,-1344.77 1905.83,-1355.89"/>
<text text-anchor="middle" x="1787.53" y="-1361.72" font-family="Times,serif" font-size="14.00">Fedora:MIT&#45;Khronos&#45;old</text>
</g>
<!-- 3084&#45;&gt;8931 -->
<g id="edge3" class="edge">
<title>3084&#45;&gt;8931</title>
<path fill="none" stroke="#e09d4b" stroke-width="2" d="M1397.01,-1297.17C1532.49,-1385.27 1568.17,-1400.71 1685.71,-1383.94"/>
<polygon fill="#e09d4b" stroke="#e09d4b" stroke-width="2" points="1694.17,-1382.69 1684.93,-1388.61 1691.71,-1383.56 1684.35,-1384.65 1684.28,-1384.16 1684.2,-1383.66 1691.56,-1382.57 1683.62,-1379.7 1694.17,-1382.69"/>
</g>
<!-- 31038 -->
<g id="node16" class="node">
<title>31038</title>
<polygon fill="none" stroke="black" points="1532.52,-884.56 1532.52,-899.47 1464.27,-910.01 1367.74,-910.01 1299.48,-899.47 1299.48,-884.56 1367.74,-874.01 1464.27,-874.01 1532.52,-884.56"/>
<polygon fill="none" stroke="black" points="1536.52,-881.13 1536.52,-902.9 1464.57,-914.01 1367.43,-914.01 1295.48,-902.9 1295.48,-881.13 1367.43,-870.01 1464.57,-870.01 1536.52,-881.13"/>
<text text-anchor="middle" x="1416" y="-886.96" font-family="Times,serif" font-size="14.00">scancode:mit&#45;khronos&#45;old</text>
</g>
<!-- 3084&#45;&gt;31038 -->
<g id="edge4" class="edge">
<title>3084&#45;&gt;31038</title>
<path fill="none" stroke="#deb256" stroke-width="2" d="M1364.58,-1244.46C1379.13,-1177.21 1407.06,-999.4 1414.85,-925.23"/>
<polygon fill="#deb256" stroke="#deb256" stroke-width="2" points="1415.68,-916.68 1419.19,-927.07 1415.93,-919.28 1415.21,-926.68 1414.71,-926.63 1414.21,-926.58 1414.94,-919.18 1410.23,-926.19 1415.68,-916.68"/>
</g>
<!-- 3085 -->
<g id="node4" class="node">
<title>3085</title>
<polygon fill="none" stroke="black" points="1653.43,-1215.69 1653.43,-1230.6 1604.32,-1241.14 1534.87,-1241.14 1485.76,-1230.6 1485.76,-1215.69 1534.87,-1205.14 1604.32,-1205.14 1653.43,-1215.69"/>
<polygon fill="none" stroke="black" points="1657.43,-1212.46 1657.43,-1233.83 1604.74,-1245.14 1534.44,-1245.14 1481.76,-1233.83 1481.76,-1212.46 1534.44,-1201.14 1604.74,-1201.14 1657.43,-1212.46"/>
<text text-anchor="middle" x="1569.59" y="-1218.09" font-family="Times,serif" font-size="14.00">MIT&#45;Khronos&#45;old</text>
</g>
<!-- 3085&#45;&gt;3084 -->
<g id="edge5" class="edge">
<title>3085&#45;&gt;3084</title>
<path fill="none" stroke="black" stroke-width="2" d="M1522.02,-1242.91C1505.89,-1249.53 1492.38,-1254.92 1480.67,-1259.26"/>
<polygon fill="black" stroke="black" stroke-width="2" points="1472.7,-1262.13 1480.58,-1254.51 1474.94,-1260.79 1481.94,-1258.27 1482.11,-1258.74 1482.28,-1259.21 1475.28,-1261.73 1483.63,-1262.97 1472.7,-1262.13"/>
</g>
<!-- 3085&#45;&gt;8931 -->
<g id="edge6" class="edge">
<title>3085&#45;&gt;8931</title>
<path fill="none" stroke="#e09d4b" stroke-width="2" d="M1593.89,-1245.41C1657.36,-1303.46 1684.89,-1327.41 1714.16,-1342.08"/>
<polygon fill="#e09d4b" stroke="#e09d4b" stroke-width="2" points="1721.99,-1345.71 1711.03,-1345.59 1719.45,-1345.08 1712.71,-1341.96 1712.92,-1341.5 1713.13,-1341.05 1719.88,-1344.18 1714.81,-1337.42 1721.99,-1345.71"/>
</g>
<!-- 3085&#45;&gt;31038 -->
<g id="edge7" class="edge">
<title>3085&#45;&gt;31038</title>
<path fill="none" stroke="black" stroke-width="2" d="M1553.22,-1200.89C1437.81,-1043.85 1426.81,-1025.04 1418.55,-925.33"/>
<polygon fill="black" stroke="black" stroke-width="2" points="1417.88,-916.86 1423.16,-926.47 1418.58,-919.37 1419.17,-926.78 1418.67,-926.82 1418.17,-926.86 1417.58,-919.45 1414.19,-927.18 1417.88,-916.86"/>
</g>
<!-- 41938 -->
<g id="node24" class="node">
<title>41938</title>
<polygon fill="none" stroke="#379469" points="1630.2,-1556.92 1630.2,-1571.83 1568.11,-1582.38 1480.3,-1582.38 1418.21,-1571.83 1418.21,-1556.92 1480.3,-1546.38 1568.11,-1546.38 1630.2,-1556.92"/>
<polygon fill="none" stroke="#379469" points="1634.2,-1553.54 1634.2,-1575.21 1568.44,-1586.38 1479.96,-1586.38 1414.21,-1575.21 1414.21,-1553.54 1479.96,-1542.38 1568.44,-1542.38 1634.2,-1553.54"/>
<text text-anchor="middle" x="1524.2" y="-1559.33" font-family="Times,serif" font-size="14.00">cavil:MIT&#45;Khronos&#45;old</text>
</g>
<!-- 3085&#45;&gt;41938 -->
<g id="edge8" class="edge">
<title>3085&#45;&gt;41938</title>
<path fill="none" stroke="#379469" stroke-width="2" d="M1566.49,-1245.49C1540.17,-1434.66 1536.57,-1460.92 1528.2,-1530.83"/>
<polygon fill="#379469" stroke="#379469" stroke-width="2" points="1527.16,-1539.55 1523.88,-1529.08 1526.96,-1536.94 1527.85,-1529.56 1528.34,-1529.62 1528.84,-1529.68 1527.96,-1537.06 1532.81,-1530.15 1527.16,-1539.55"/>
</g>
<!-- 3086 -->
<g id="node5" class="node">
<title>3086</title>
<polygon fill="none" stroke="black" points="1766.56,-1039.13 1766.56,-1054.05 1696.68,-1064.59 1597.86,-1064.59 1527.98,-1054.05 1527.98,-1039.13 1597.86,-1028.59 1696.68,-1028.59 1766.56,-1039.13"/>
<polygon fill="none" stroke="black" points="1770.56,-1035.69 1770.56,-1057.49 1696.98,-1068.59 1597.56,-1068.59 1523.98,-1057.49 1523.98,-1035.69 1597.56,-1024.59 1696.98,-1024.59 1770.56,-1035.69"/>
<text text-anchor="middle" x="1647.27" y="-1041.54" font-family="Times,serif" font-size="14.00">MIT Khronos &#45; old variant</text>
</g>
<!-- 3086&#45;&gt;3084 -->
<g id="edge9" class="edge">
<title>3086&#45;&gt;3084</title>
<path fill="none" stroke="#dac767" stroke-width="2" d="M1616.72,-1068.93C1473.37,-1173.75 1443.5,-1195.98 1395.28,-1237.34"/>
<polygon fill="#dac767" stroke="#dac767" stroke-width="2" points="1388.88,-1242.86 1393.52,-1232.92 1390.49,-1240.81 1396.13,-1235.95 1396.45,-1236.33 1396.78,-1236.71 1391.15,-1241.56 1399.39,-1239.74 1388.88,-1242.86"/>
</g>
<!-- 3086&#45;&gt;31038 -->
<g id="edge10" class="edge">
<title>3086&#45;&gt;31038</title>
<path fill="none" stroke="#deb256" stroke-width="2" d="M1623.18,-1024.4C1550.81,-957.82 1521.87,-932.52 1488.71,-916.68"/>
<polygon fill="#deb256" stroke="#deb256" stroke-width="2" points="1480.95,-913.23 1491.92,-913.18 1483.5,-913.81 1490.29,-916.84 1490.09,-917.29 1489.88,-917.75 1483.09,-914.73 1488.26,-921.4 1480.95,-913.23"/>
</g>
<!-- 67768 -->
<g id="node26" class="node">
<title>67768</title>
<polygon fill="none" stroke="#00876c" points="1848.59,-1091.87 1848.59,-1106.78 1766.05,-1117.33 1649.33,-1117.33 1566.8,-1106.78 1566.8,-1091.87 1649.33,-1081.33 1766.05,-1081.33 1848.59,-1091.87"/>
<polygon fill="none" stroke="#00876c" points="1852.59,-1088.35 1852.59,-1110.31 1766.31,-1121.33 1649.08,-1121.33 1562.8,-1110.31 1562.8,-1088.35 1649.08,-1077.33 1766.31,-1077.33 1852.59,-1088.35"/>
<text text-anchor="middle" x="1707.69" y="-1094.28" font-family="Times,serif" font-size="14.00">spdx:MIT Khronos &#45; old variant</text>
</g>
<!-- 3086&#45;&gt;67768 -->
<g id="edge11" class="edge">
<title>3086&#45;&gt;67768</title>
<path fill="none" stroke="#00876c" stroke-width="2" d="M1688.53,-1068.84C1688.63,-1068.92 1688.72,-1069 1688.81,-1069.08"/>
<polygon fill="#00876c" stroke="#00876c" stroke-width="2" points="1694.4,-1075.38 1684.39,-1070.88 1692.32,-1073.79 1687.39,-1068.23 1687.76,-1067.9 1688.14,-1067.56 1693.07,-1073.13 1691.13,-1064.91 1694.4,-1075.38"/>
</g>
<!-- 3087 -->
<g id="node6" class="node">
<title>3087</title>
<text text-anchor="middle" x="781.85" y="-2104.67" font-family="Times,serif" font-size="14.00">SPDXLicense:</text>
<text text-anchor="middle" x="781.85" y="-2088.17" font-family="Times,serif" font-size="14.00">This license is considered obsolete by the Khronos Group, but may still be in</text>
<text text-anchor="middle" x="781.85" y="-2071.67" font-family="Times,serif" font-size="14.00">use in older projects or versions.</text>
</g>
<!-- 3087&#45;&gt;3083 -->
<g id="edge12" class="edge">
<title>3087&#45;&gt;3083</title>
<path fill="none" stroke="#dac767" d="M802.01,-2064.5C871.23,-1966 889.6,-1941.85 1071.46,-1707.28"/>
<polygon fill="#dac767" stroke="#dac767" points="1073.99,-1709.73 1077.35,-1699.68 1068.46,-1705.44 1073.99,-1709.73"/>
</g>
<!-- 3088 -->
<g id="node7" class="node">
<title>3088</title>
<text text-anchor="middle" x="1115.42" y="-2017.07" font-family="Times,serif" font-size="14.00">$TEXT</text>
</g>
<!-- 3088&#45;&gt;3083 -->
<g id="edge13" class="edge">
<title>3088&#45;&gt;3083</title>
<path fill="none" stroke="#dac767" d="M1108.44,-2004.2C1072.22,-1910.73 1071.27,-1894.22 1095.45,-1710.02"/>
<polygon fill="#dac767" stroke="#dac767" points="1098.89,-1710.68 1096.73,-1700.31 1091.95,-1709.77 1098.89,-1710.68"/>
</g>
<!-- 3089 -->
<g id="node8" class="node">
<title>3089</title>
<text text-anchor="middle" x="1123.35" y="-2180.25" font-family="Times,serif" font-size="14.00">$TEXT</text>
</g>
<!-- 3089&#45;&gt;3088 -->
<g id="edge14" class="edge">
<title>3089&#45;&gt;3088</title>
<path fill="none" stroke="#dac767" d="M1117.3,-2167.42C1106.91,-2135.42 1106.64,-2122 1112.81,-2051.4"/>
<polygon fill="#dac767" stroke="#dac767" points="1116.29,-2051.85 1113.68,-2041.58 1109.31,-2051.23 1116.29,-2051.85"/>
</g>
<!-- 3090 -->
<g id="node9" class="node">
<title>3090</title>
<text text-anchor="middle" x="1117.51" y="-1025.2" font-family="Times,serif" font-size="14.00">https://github.com/KhronosGroup/SPIRV&#45;Cross/blob/main/LICENSES/LicenseRef&#45;KhronosFreeUse.txt</text>
</g>
<!-- 3090&#45;&gt;3083 -->
<g id="edge15" class="edge">
<title>3090&#45;&gt;3083</title>
<path fill="none" stroke="#dac767" d="M1111.7,-1048.24C1001.81,-1388.74 997.31,-1411.02 1084.76,-1629.53"/>
<polygon fill="#dac767" stroke="#dac767" points="1081.45,-1630.71 1088.43,-1638.69 1087.95,-1628.1 1081.45,-1630.71"/>
</g>
<!-- 31037 -->
<g id="node15" class="node">
<title>31037</title>
<ellipse fill="none" stroke="#deb256" cx="1300.28" cy="-441.85" rx="157.68" ry="28.99"/>
<text text-anchor="middle" x="1300.28" y="-445.05" font-family="Times,serif" font-size="14.00" fill="gray">ScancodeData</text>
<text text-anchor="middle" x="1300.28" y="-428.55" font-family="Times,serif" font-size="14.00" fill="gray">e6e10058bf5d70d23e6fce3450251bcb</text>
</g>
<!-- 3090&#45;&gt;31037 -->
<g id="edge16" class="edge">
<title>3090&#45;&gt;31037</title>
<path fill="none" stroke="#deb256" d="M1117.61,-1012.48C1119.63,-674.48 1122.23,-649.62 1267.76,-479.63"/>
<polygon fill="#deb256" stroke="#deb256" points="1270.41,-481.91 1274.26,-472.04 1265.1,-477.35 1270.41,-481.91"/>
</g>
<!-- 5550 -->
<g id="node10" class="node">
<title>5550</title>
<text text-anchor="middle" x="1375.63" y="-98.84" font-family="Times,serif" font-size="14.00">LicenseType Permissive</text>
</g>
<!-- 5550&#45;&gt;31037 -->
<g id="edge17" class="edge">
<title>5550&#45;&gt;31037</title>
<path fill="none" stroke="#deb256" d="M1365.57,-121.77C1320.74,-201.94 1316.92,-219.04 1303.31,-401.08"/>
<polygon fill="#deb256" stroke="#deb256" points="1299.83,-400.7 1302.57,-410.94 1306.81,-401.22 1299.83,-400.7"/>
</g>
<!-- 6592 -->
<g id="node11" class="node">
<title>6592</title>
<text text-anchor="middle" x="2582.53" y="-1507.04" font-family="Times,serif" font-size="14.00">[&quot;allowed&quot;]</text>
</g>
<!-- 8930 -->
<g id="node13" class="node">
<title>8930</title>
<ellipse fill="none" stroke="#e09d4b" cx="2241.17" cy="-1452.62" rx="157.15" ry="28.99"/>
<text text-anchor="middle" x="2241.17" y="-1455.82" font-family="Times,serif" font-size="14.00" fill="gray">FedoraEntry</text>
<text text-anchor="middle" x="2241.17" y="-1439.32" font-family="Times,serif" font-size="14.00" fill="gray">d2b1fcedd2516287844fdb30ba984abf</text>
</g>
<!-- 6592&#45;&gt;8930 -->
<g id="edge18" class="edge">
<title>6592&#45;&gt;8930</title>
<path fill="none" stroke="#e09d4b" d="M2542.98,-1511.74C2485.29,-1510.69 2455.8,-1506.05 2345.83,-1478.88"/>
<polygon fill="#e09d4b" stroke="#e09d4b" points="2346.95,-1475.55 2336.4,-1476.54 2345.27,-1482.35 2346.95,-1475.55"/>
</g>
<!-- 6593 -->
<g id="node12" class="node">
<title>6593</title>
<text text-anchor="start" x="2916.42" y="-1615.35" font-family="Times,serif" font-size="14.00">Fedora: </text>
<text text-anchor="start" x="2961.42" y="-1615.35" font-family="Times,serif" font-weight="bold" font-size="14.00" fill="#228b22">allowed</text>
<text text-anchor="start" x="2752.55" y="-1601.35" font-family="Times,serif" font-size="14.00">A license is allowed if Fedora determines that the license is a free software /</text>
<text text-anchor="start" x="2747.3" y="-1587.35" font-family="Times,serif" font-size="14.00">open source license. At a high level, the inquiry involves determining whether</text>
<text text-anchor="start" x="2746.17" y="-1573.35" font-family="Times,serif" font-size="14.00">the license provides software freedom, and (equivalently) making sure that the</text>
<text text-anchor="start" x="2756.3" y="-1559.35" font-family="Times,serif" font-size="14.00">license does not place burdens on users&#39; exercise of its permissions that are</text>
<text text-anchor="start" x="2755.92" y="-1545.35" font-family="Times,serif" font-size="14.00">inconsistent with evolving community norms and traditions around what is</text>
<text text-anchor="start" x="2747.67" y="-1531.35" font-family="Times,serif" font-size="14.00">acceptable in a free software / open source license. See below for more on the</text>
<text text-anchor="start" x="2867.67" y="-1517.35" font-family="Times,serif" font-size="14.00">history of Fedora licensing policy.</text>
</g>
<!-- 6593&#45;&gt;6592 -->
<g id="edge19" class="edge">
<title>6593&#45;&gt;6592</title>
<path fill="none" stroke="#e09d4b" d="M2738.43,-1545.5C2710.03,-1539.62 2675.92,-1532.3 2633.61,-1523.15"/>
<polygon fill="#e09d4b" stroke="#e09d4b" points="2634.36,-1519.74 2623.85,-1521.04 2632.88,-1526.58 2634.36,-1519.74"/>
</g>
<!-- 8930&#45;&gt;8931 -->
<g id="edge20" class="edge">
<title>8930&#45;&gt;8931</title>
<path fill="none" stroke="#e09d4b" d="M2083.58,-1452.84C2034.74,-1445.05 1974.39,-1426.86 1860.75,-1390.38"/>
<polygon fill="#e09d4b" stroke="#e09d4b" points="1861.99,-1387.1 1851.39,-1387.37 1859.84,-1393.76 1861.99,-1387.1"/>
</g>
<!-- 31037&#45;&gt;31038 -->
<g id="edge21" class="edge">
<title>31037&#45;&gt;31038</title>
<path fill="none" stroke="#deb256" d="M1303.14,-471.19C1314.18,-582.08 1320.99,-605.73 1405.04,-858.99"/>
<polygon fill="#deb256" stroke="#deb256" points="1401.63,-859.83 1408.1,-868.22 1408.28,-857.63 1401.63,-859.83"/>
</g>
<!-- 31038&#45;&gt;3084 -->
<g id="edge22" class="edge">
<title>31038&#45;&gt;3084</title>
<path fill="none" stroke="#00876c" stroke-width="2" d="M1409.04,-914.33C1395,-977.11 1366.79,-1155.75 1358.29,-1233.7"/>
<polygon fill="#00876c" stroke="#00876c" stroke-width="2" points="1357.44,-1242.02 1353.98,-1231.61 1357.2,-1239.42 1357.96,-1232.02 1358.46,-1232.07 1358.96,-1232.12 1358.2,-1239.52 1362.94,-1232.53 1357.44,-1242.02"/>
</g>
<!-- 31039 -->
<g id="node17" class="node">
<title>31039</title>
<text text-anchor="middle" x="1561.02" y="-40.66" font-family="Times,serif" font-size="14.00">ScancodeData:</text>
<text text-anchor="middle" x="1561.02" y="-24.16" font-family="Times,serif" font-size="14.00">Added in SPDX license list 3.24</text>
<text text-anchor="middle" x="1561.02" y="-7.66" font-family="Times,serif" font-size="14.00">This is the same as khronos.LICENSE except the third paragraph</text>
</g>
<!-- 31039&#45;&gt;31037 -->
<g id="edge23" class="edge">
<title>31039&#45;&gt;31037</title>
<path fill="none" stroke="#deb256" d="M1522.66,-57.95C1417.39,-137.99 1403.35,-165.41 1315.1,-402.07"/>
<polygon fill="#deb256" stroke="#deb256" points="1311.85,-400.76 1311.64,-411.35 1318.41,-403.2 1311.85,-400.76"/>
</g>
<!-- 31040 -->
<g id="node18" class="node">
<title>31040</title>
<text text-anchor="middle" x="1170.25" y="-67.48" font-family="Times,serif" font-size="14.00">https://www.khronos.org/registry/</text>
</g>
<!-- 31040&#45;&gt;31037 -->
<g id="edge24" class="edge">
<title>31040&#45;&gt;31037</title>
<path fill="none" stroke="#deb256" d="M1175.72,-90.33C1203.38,-180.32 1209.44,-197.51 1285.46,-401.97"/>
<polygon fill="#deb256" stroke="#deb256" points="1282.07,-402.92 1288.84,-411.07 1288.63,-400.48 1282.07,-402.92"/>
</g>
<!-- 31041 -->
<g id="node19" class="node">
<title>31041</title>
<text text-anchor="middle" x="1075.33" y="-240.68" font-family="Times,serif" font-size="14.00">$TEXT</text>
</g>
<!-- 31041&#45;&gt;31037 -->
<g id="edge25" class="edge">
<title>31041&#45;&gt;31037</title>
<path fill="none" stroke="#deb256" d="M1103.85,-261.23C1156.02,-290.25 1173.92,-306.68 1265.78,-404.89"/>
<polygon fill="#deb256" stroke="#deb256" points="1262.99,-407.03 1272.38,-411.95 1268.11,-402.25 1262.99,-407.03"/>
</g>
<!-- 35432 -->
<g id="node20" class="node">
<title>35432</title>
<text text-anchor="middle" x="266.05" y="-1142.72" font-family="Times,serif" font-size="14.00">LicenseTag (ScopedLicenseTag &quot;OrtLicenseCategorization&quot; &quot;permissive&quot; NoLicenseTagText)</text>
</g>
<!-- 39701 -->
<g id="node22" class="node">
<title>39701</title>
<ellipse fill="none" stroke="#d43d51" cx="886.87" cy="-1159.67" rx="160.34" ry="28.99"/>
<text text-anchor="middle" x="886.87" y="-1162.87" font-family="Times,serif" font-size="14.00" fill="gray">OrtLicenseCategorization</text>
<text text-anchor="middle" x="886.87" y="-1146.37" font-family="Times,serif" font-size="14.00" fill="gray">c0b701d76767e61c85020c5e1a3eb025</text>
</g>
<!-- 35432&#45;&gt;39701 -->
<g id="edge26" class="edge">
<title>35432&#45;&gt;39701</title>
<path fill="none" stroke="#d43d51" d="M532.23,-1159.19C578.44,-1159.66 636.15,-1159.79 715.06,-1159.79"/>
<polygon fill="#d43d51" stroke="#d43d51" points="714.83,-1163.29 724.83,-1159.79 714.82,-1156.29 714.83,-1163.29"/>
</g>
<!-- 35433 -->
<g id="node21" class="node">
<title>35433</title>
<text text-anchor="middle" x="806.83" y="-1097.45" font-family="Times,serif" font-size="14.00">LicenseTag (ScopedLicenseTag &quot;OrtLicenseCategorization&quot; &quot;include&#45;in&#45;notice&#45;file&quot; NoLicenseTagText)</text>
</g>
<!-- 35433&#45;&gt;39701 -->
<g id="edge27" class="edge">
<title>35433&#45;&gt;39701</title>
<path fill="none" stroke="#d43d51" d="M819.89,-1120.33C821.19,-1121.88 822.49,-1123.32 823.85,-1124.68"/>
<polygon fill="#d43d51" stroke="#d43d51" points="821.47,-1127.25 831.38,-1131 825.97,-1121.89 821.47,-1127.25"/>
</g>
<!-- 39701&#45;&gt;3084 -->
<g id="edge28" class="edge">
<title>39701&#45;&gt;3084</title>
<path fill="none" stroke="#d43d51" d="M937.69,-1187.5C1017.61,-1229.87 1057.77,-1239.74 1231.51,-1258.11"/>
<polygon fill="#d43d51" stroke="#d43d51" points="1231.06,-1261.58 1241.37,-1259.15 1231.79,-1254.62 1231.06,-1261.58"/>
</g>
<!-- 41937 -->
<g id="node23" class="node">
<title>41937</title>
<ellipse fill="none" stroke="#379469" cx="1513.11" cy="-1623.41" rx="158.75" ry="28.99"/>
<text text-anchor="middle" x="1513.11" y="-1626.61" font-family="Times,serif" font-size="14.00" fill="gray">CavilLicenseChange</text>
<text text-anchor="middle" x="1513.11" y="-1610.11" font-family="Times,serif" font-size="14.00" fill="gray">28c1dc606533439f4c18f4251b663a94</text>
</g>
<!-- 41937&#45;&gt;41938 -->
<g id="edge29" class="edge">
<title>41937&#45;&gt;41938</title>
<path fill="none" stroke="#379469" d="M1518.89,-1594.32C1518.91,-1594.18 1518.94,-1594.04 1518.96,-1593.9"/>
<polygon fill="#379469" stroke="#379469" points="1521.66,-1598.71 1519.97,-1588.25 1514.77,-1597.48 1521.66,-1598.71"/>
</g>
<!-- 67767 -->
<g id="node25" class="node">
<title>67767</title>
<ellipse fill="none" stroke="#00876c" cx="1012.18" cy="-1419.06" rx="158.22" ry="28.99"/>
<text text-anchor="middle" x="1012.18" y="-1422.26" font-family="Times,serif" font-size="14.00" fill="gray">LicenseLynx</text>
<text text-anchor="middle" x="1012.18" y="-1405.76" font-family="Times,serif" font-size="14.00" fill="gray">2c3dda7fb0b91b7a5fa224e9911408b8</text>
</g>
<!-- 67767&#45;&gt;3084 -->
<g id="edge30" class="edge">
<title>67767&#45;&gt;3084</title>
<path fill="none" stroke="#00876c" d="M1087.88,-1393.18C1133.15,-1376.43 1175.84,-1356.77 1294.08,-1300.62"/>
<polygon fill="#00876c" stroke="#00876c" points="1295.33,-1303.9 1302.86,-1296.45 1292.33,-1297.58 1295.33,-1303.9"/>
</g>
<!-- 67768&#45;&gt;3084 -->
<g id="edge31" class="edge">
<title>67768&#45;&gt;3084</title>
<path fill="none" stroke="#00876c" stroke-width="2" d="M1674.53,-1121.73C1554.11,-1202.98 1508.11,-1232.69 1458.29,-1249.06"/>
<polygon fill="#00876c" stroke="#00876c" stroke-width="2" points="1449.91,-1251.65 1458.14,-1244.4 1452.21,-1250.41 1459.32,-1248.22 1459.46,-1248.7 1459.61,-1249.18 1452.5,-1251.37 1460.79,-1253 1449.91,-1251.65"/>
</g>
</g>
</svg>
