<?xml version="1.0" encoding="UTF-8" standalone="no"?>
<!DOCTYPE svg PUBLIC "-//W3C//DTD SVG 1.1//EN"
 "http://www.w3.org/Graphics/SVG/1.1/DTD/svg11.dtd">
<!-- Generated by graphviz version 10.0.1 (0)
 -->
<!-- Pages: 1 -->
<svg width="2045pt" height="1767pt"
 viewBox="0.00 0.00 2045.00 1767.00" xmlns="http://www.w3.org/2000/svg" xmlns:xlink="http://www.w3.org/1999/xlink">
<g id="graph0" class="graph" transform="scale(1 1) rotate(0) translate(4 1763)">
<polygon fill="white" stroke="none" points="-4,4 -4,-1763 2041,-1763 2041,4 -4,4"/>
<!-- 2874 -->
<g id="node1" class="node">
<title>2874</title>
<ellipse fill="none" stroke="#b8bf62" cx="690.11" cy="-106.17" rx="153.44" ry="28.99"/>
<text text-anchor="middle" x="690.11" y="-109.37" font-family="Times,serif" font-size="14.00" fill="gray">SPDXLicense</text>
<text text-anchor="middle" x="690.11" y="-92.87" font-family="Times,serif" font-size="14.00" fill="gray">76cf39afcfc1bd71333f478de03aa91a</text>
</g>
<!-- 2875 -->
<g id="node2" class="node">
<title>2875</title>
<polygon fill="none" stroke="black" points="989.46,-398.53 989.46,-413.44 948.78,-423.98 891.26,-423.98 850.59,-413.44 850.59,-398.53 891.26,-387.98 948.78,-387.98 989.46,-398.53"/>
<polygon fill="none" stroke="black" points="993.46,-395.43 993.46,-416.53 949.29,-427.98 890.75,-427.98 846.59,-416.53 846.59,-395.43 890.75,-383.98 949.29,-383.98 993.46,-395.43"/>
<polygon fill="none" stroke="black" points="997.46,-392.33 997.46,-419.63 949.8,-431.98 890.24,-431.98 842.59,-419.63 842.59,-392.33 890.24,-379.98 949.8,-379.98 997.46,-392.33"/>
<text text-anchor="middle" x="920.02" y="-400.93" font-family="Times,serif" font-size="14.00">spdx:MS&#45;LPL</text>
</g>
<!-- 2874&#45;&gt;2875 -->
<g id="edge1" class="edge">
<title>2874&#45;&gt;2875</title>
<path fill="none" stroke="#b8bf62" d="M722.74,-134.7C779.18,-185.13 797.28,-211.26 897.36,-370.01"/>
<polygon fill="#b8bf62" stroke="#b8bf62" points="894.34,-371.78 902.63,-378.38 900.26,-368.05 894.34,-371.78"/>
</g>
<!-- 8132 -->
<g id="node6" class="node">
<title>8132</title>
<polygon fill="none" stroke="#e09d4b" points="1218.99,-524.42 1218.99,-539.33 1173.12,-549.88 1108.26,-549.88 1062.4,-539.33 1062.4,-524.42 1108.26,-513.88 1173.12,-513.88 1218.99,-524.42"/>
<polygon fill="none" stroke="#e09d4b" points="1222.99,-521.24 1222.99,-542.52 1173.58,-553.88 1107.81,-553.88 1058.4,-542.52 1058.4,-521.24 1107.81,-509.88 1173.58,-509.88 1222.99,-521.24"/>
<text text-anchor="middle" x="1140.69" y="-526.83" font-family="Times,serif" font-size="14.00">Fedora:MS&#45;LPL</text>
</g>
<!-- 2875&#45;&gt;8132 -->
<g id="edge2" class="edge">
<title>2875&#45;&gt;8132</title>
<path fill="none" stroke="#e09d4b" stroke-width="2" d="M997.7,-417.37C1035.77,-427.21 1058.21,-446.41 1111.51,-501.49"/>
<polygon fill="#e09d4b" stroke="#e09d4b" stroke-width="2" points="1117.54,-507.74 1107.36,-503.67 1115.4,-506.25 1110.24,-500.89 1110.6,-500.55 1110.96,-500.2 1116.12,-505.55 1113.84,-497.42 1117.54,-507.74"/>
</g>
<!-- 45265 -->
<g id="node21" class="node">
<title>45265</title>
<polygon fill="none" stroke="#00876c" points="863.37,-703.39 863.37,-718.31 749.35,-728.85 588.12,-728.85 474.1,-718.31 474.1,-703.39 588.12,-692.85 749.35,-692.85 863.37,-703.39"/>
<polygon fill="none" stroke="#00876c" points="867.37,-699.75 867.37,-721.95 749.54,-732.85 587.93,-732.85 470.1,-721.95 470.1,-699.75 587.93,-688.85 749.54,-688.85 867.37,-699.75"/>
<text text-anchor="middle" x="668.74" y="-705.8" font-family="Times,serif" font-size="14.00">metaeffekt:Microsoft Limited Public License</text>
</g>
<!-- 2875&#45;&gt;45265 -->
<g id="edge3" class="edge">
<title>2875&#45;&gt;45265</title>
<path fill="none" stroke="#00876c" stroke-width="2" d="M876.26,-428.57C755.84,-491.66 742.81,-511.69 680.75,-678.44"/>
<polygon fill="#00876c" stroke="#00876c" stroke-width="2" points="677.83,-686.3 677.1,-675.36 678.26,-683.72 680.85,-676.75 681.32,-676.93 681.78,-677.1 679.19,-684.07 685.53,-678.49 677.83,-686.3"/>
</g>
<!-- 2876 -->
<g id="node3" class="node">
<title>2876</title>
<polygon fill="none" stroke="black" points="994.86,-670.78 994.86,-685.69 966.84,-696.23 927.22,-696.23 899.21,-685.69 899.21,-670.78 927.22,-660.23 966.84,-660.23 994.86,-670.78"/>
<polygon fill="none" stroke="black" points="998.86,-668.01 998.86,-688.46 967.57,-700.23 926.5,-700.23 895.21,-688.46 895.21,-668.01 926.5,-656.23 967.57,-656.23 998.86,-668.01"/>
<text text-anchor="middle" x="947.03" y="-673.18" font-family="Times,serif" font-size="14.00">MS&#45;LPL</text>
</g>
<!-- 2876&#45;&gt;2875 -->
<g id="edge4" class="edge">
<title>2876&#45;&gt;2875</title>
<path fill="none" stroke="black" stroke-width="2" d="M943.86,-655.89C924.5,-519.46 920.95,-492.32 920.23,-443.51"/>
<polygon fill="black" stroke="black" stroke-width="2" points="920.14,-434.8 924.74,-444.75 920.67,-437.36 920.74,-444.79 920.24,-444.8 919.74,-444.81 919.67,-437.37 915.75,-444.85 920.14,-434.8"/>
</g>
<!-- 2876&#45;&gt;8132 -->
<g id="edge5" class="edge">
<title>2876&#45;&gt;8132</title>
<path fill="none" stroke="#e09d4b" stroke-width="2" d="M965.67,-655.9C1020.15,-590.77 1041.32,-567.71 1073.81,-553"/>
<polygon fill="#e09d4b" stroke="#e09d4b" stroke-width="2" points="1081.55,-549.79 1074.04,-557.77 1079.37,-551.23 1072.51,-554.08 1072.31,-553.62 1072.12,-553.15 1078.99,-550.31 1070.59,-549.46 1081.55,-549.79"/>
</g>
<!-- 19831 -->
<g id="node12" class="node">
<title>19831</title>
<polygon fill="none" stroke="black" points="956.07,-961.94 956.07,-976.85 910.86,-987.39 846.91,-987.39 801.7,-976.85 801.7,-961.94 846.91,-951.39 910.86,-951.39 956.07,-961.94"/>
<polygon fill="none" stroke="black" points="960.07,-958.76 960.07,-980.02 911.32,-991.39 846.45,-991.39 797.7,-980.02 797.7,-958.76 846.45,-947.39 911.32,-947.39 960.07,-958.76"/>
<text text-anchor="middle" x="878.89" y="-964.34" font-family="Times,serif" font-size="14.00">scancode:ms&#45;lpl</text>
</g>
<!-- 2876&#45;&gt;19831 -->
<g id="edge6" class="edge">
<title>2876&#45;&gt;19831</title>
<path fill="none" stroke="black" stroke-width="2" d="M930.62,-700.51C865.29,-789.67 861.54,-805.55 875.33,-936.3"/>
<polygon fill="black" stroke="black" stroke-width="2" points="876.23,-944.75 870.69,-935.29 875.46,-942.26 874.67,-934.86 875.17,-934.81 875.67,-934.76 876.45,-942.15 879.64,-934.33 876.23,-944.75"/>
</g>
<!-- 27087 -->
<g id="node15" class="node">
<title>27087</title>
<polygon fill="none" stroke="#e18745" points="1336.98,-771.13 1336.98,-786.04 1284.62,-796.59 1210.58,-796.59 1158.23,-786.04 1158.23,-771.13 1210.58,-760.59 1284.62,-760.59 1336.98,-771.13"/>
<polygon fill="none" stroke="#e18745" points="1340.98,-767.86 1340.98,-789.32 1285.02,-800.59 1210.18,-800.59 1154.23,-789.32 1154.23,-767.86 1210.18,-756.59 1285.02,-756.59 1340.98,-767.86"/>
<text text-anchor="middle" x="1247.6" y="-773.54" font-family="Times,serif" font-size="14.00">fossology:MS&#45;LPL</text>
</g>
<!-- 2876&#45;&gt;27087 -->
<g id="edge7" class="edge">
<title>2876&#45;&gt;27087</title>
<path fill="none" stroke="#e18745" stroke-width="2" d="M999.07,-676.63C1113.15,-673.82 1135.39,-681.47 1213.76,-749.01"/>
<polygon fill="#e18745" stroke="#e18745" stroke-width="2" points="1220.19,-754.59 1209.69,-751.44 1217.93,-753.28 1212.31,-748.42 1212.64,-748.04 1212.96,-747.66 1218.58,-752.53 1215.58,-744.64 1220.19,-754.59"/>
</g>
<!-- 37212 -->
<g id="node19" class="node">
<title>37212</title>
<polygon fill="none" stroke="#379469" points="775.03,-555.99 775.03,-570.9 734.04,-581.45 676.06,-581.45 635.06,-570.9 635.06,-555.99 676.06,-545.45 734.04,-545.45 775.03,-555.99"/>
<polygon fill="none" stroke="#379469" points="779.03,-552.89 779.03,-574.01 734.54,-585.45 675.55,-585.45 631.06,-574.01 631.06,-552.89 675.55,-541.45 734.54,-541.45 779.03,-552.89"/>
<text text-anchor="middle" x="705.05" y="-558.4" font-family="Times,serif" font-size="14.00">cavil:MS&#45;LPL</text>
</g>
<!-- 2876&#45;&gt;37212 -->
<g id="edge8" class="edge">
<title>2876&#45;&gt;37212</title>
<path fill="none" stroke="#379469" stroke-width="2" d="M917.73,-659.02C844.35,-610.99 812.39,-591.04 781.36,-579.98"/>
<polygon fill="#379469" stroke="#379469" stroke-width="2" points="773.14,-577.3 784.04,-576.12 775.73,-577.62 782.8,-579.92 782.64,-580.4 782.49,-580.87 775.42,-578.57 781.25,-584.68 773.14,-577.3"/>
</g>
<!-- 2876&#45;&gt;45265 -->
<g id="edge9" class="edge">
<title>2876&#45;&gt;45265</title>
<path fill="none" stroke="#00876c" stroke-dasharray="5,2" d="M894.98,-672.37C795.93,-661.57 766.84,-661.91 720.5,-683.61"/>
<polygon fill="#00876c" stroke="#00876c" points="711.74,-687.87 718.77,-679.45 715.14,-686.21 720.74,-683.49 720.74,-683.49 720.74,-683.49 715.14,-686.21 722.7,-687.54 711.74,-687.87"/>
</g>
<!-- 2877 -->
<g id="node4" class="node">
<title>2877</title>
<polygon fill="none" stroke="black" points="1332.96,-709.17 1332.96,-724.09 1245.89,-734.63 1122.74,-734.63 1035.66,-724.09 1035.66,-709.17 1122.74,-698.63 1245.89,-698.63 1332.96,-709.17"/>
<polygon fill="none" stroke="black" points="1336.96,-705.63 1336.96,-727.63 1246.13,-738.63 1122.5,-738.63 1031.66,-727.63 1031.66,-705.63 1122.5,-694.63 1246.13,-694.63 1336.96,-705.63"/>
<text text-anchor="middle" x="1184.31" y="-711.58" font-family="Times,serif" font-size="14.00">Microsoft Limited Public License</text>
</g>
<!-- 2877&#45;&gt;2875 -->
<g id="edge10" class="edge">
<title>2877&#45;&gt;2875</title>
<path fill="none" stroke="#b8bf62" stroke-width="2" d="M1172.57,-694.17C1077.3,-512.04 1059.87,-483.17 972.94,-434.4"/>
<polygon fill="#b8bf62" stroke="#b8bf62" stroke-width="2" points="965.29,-430.16 976.22,-431.07 967.77,-430.97 974.28,-434.57 974.04,-435.01 973.8,-435.44 967.29,-431.84 971.86,-438.94 965.29,-430.16"/>
</g>
<!-- 19822 -->
<g id="node8" class="node">
<title>19822</title>
<polygon fill="none" stroke="#dac767" points="1664.25,-373.19 1664.25,-388.11 1591.78,-398.65 1489.28,-398.65 1416.81,-388.11 1416.81,-373.19 1489.28,-362.65 1591.78,-362.65 1664.25,-373.19"/>
<polygon fill="none" stroke="#dac767" points="1668.25,-369.73 1668.25,-391.57 1592.06,-402.65 1488.99,-402.65 1412.81,-391.57 1412.81,-369.73 1488.99,-358.65 1592.06,-358.65 1668.25,-369.73"/>
<text text-anchor="middle" x="1540.53" y="-375.6" font-family="Times,serif" font-size="14.00">scancode:ms&#45;limited&#45;public</text>
</g>
<!-- 2877&#45;&gt;19822 -->
<g id="edge11" class="edge">
<title>2877&#45;&gt;19822</title>
<path fill="none" stroke="#dac767" stroke-width="2" d="M1207.93,-694.22C1407.56,-504.87 1432.89,-480.9 1508.54,-410.43"/>
<polygon fill="#dac767" stroke="#dac767" stroke-width="2" points="1514.74,-404.66 1510.49,-414.77 1513.2,-406.77 1507.76,-411.84 1507.42,-411.47 1507.08,-411.11 1512.52,-406.04 1504.35,-408.18 1514.74,-404.66"/>
</g>
<!-- 2877&#45;&gt;27087 -->
<g id="edge12" class="edge">
<title>2877&#45;&gt;27087</title>
<path fill="none" stroke="#e18745" stroke-width="2" d="M1225.48,-738.81C1228.1,-741.14 1230.32,-743.66 1232.37,-746.62"/>
<polygon fill="#e18745" stroke="#e18745" stroke-width="2" points="1236.7,-754.17 1227.82,-747.73 1234.99,-752.19 1231.29,-745.74 1231.72,-745.49 1232.16,-745.24 1235.86,-751.69 1235.63,-743.25 1236.7,-754.17"/>
</g>
<!-- 2877&#45;&gt;45265 -->
<g id="edge13" class="edge">
<title>2877&#45;&gt;45265</title>
<path fill="none" stroke="#00876c" stroke-width="2" d="M1113.35,-695.26C904.93,-633.09 866.63,-630.4 732.92,-684.22"/>
<polygon fill="#00876c" stroke="#00876c" stroke-width="2" points="724.95,-687.45 732.53,-679.52 727.14,-686.03 734.03,-683.23 734.22,-683.69 734.41,-684.16 727.52,-686.95 735.91,-687.86 724.95,-687.45"/>
</g>
<!-- 51809 -->
<g id="node23" class="node">
<title>51809</title>
<polygon fill="none" stroke="#d43d51" points="1302.08,-1241.67 1302.08,-1256.58 1197.47,-1267.13 1049.55,-1267.13 944.94,-1256.58 944.94,-1241.67 1049.55,-1231.13 1197.47,-1231.13 1302.08,-1241.67"/>
<polygon fill="none" stroke="#d43d51" points="1306.08,-1238.05 1306.08,-1260.2 1197.68,-1271.13 1049.34,-1271.13 940.94,-1260.2 940.94,-1238.05 1049.34,-1227.13 1197.68,-1227.13 1306.08,-1238.05"/>
<text text-anchor="middle" x="1123.51" y="-1244.08" font-family="Times,serif" font-size="14.00">hitachi:Microsoft Limited Public License</text>
</g>
<!-- 2877&#45;&gt;51809 -->
<g id="edge14" class="edge">
<title>2877&#45;&gt;51809</title>
<path fill="none" stroke="#d43d51" stroke-width="2" d="M1188,-738.92C1236.12,-1030.3 1236.58,-1051.02 1141.87,-1217.09"/>
<polygon fill="#d43d51" stroke="#d43d51" stroke-width="2" points="1137.61,-1224.56 1138.66,-1213.64 1138.44,-1222.08 1142.13,-1215.63 1142.57,-1215.87 1143,-1216.12 1139.31,-1222.58 1146.48,-1218.11 1137.61,-1224.56"/>
</g>
<!-- 8131 -->
<g id="node5" class="node">
<title>8131</title>
<ellipse fill="none" stroke="#e09d4b" cx="1517.5" cy="-525.62" rx="158.75" ry="28.99"/>
<text text-anchor="middle" x="1517.5" y="-528.82" font-family="Times,serif" font-size="14.00" fill="gray">FedoraEntry</text>
<text text-anchor="middle" x="1517.5" y="-512.32" font-family="Times,serif" font-size="14.00" fill="gray">6fba2bb237cd0c72a64a9c1b46b3c829</text>
</g>
<!-- 8131&#45;&gt;8132 -->
<g id="edge15" class="edge">
<title>8131&#45;&gt;8132</title>
<path fill="none" stroke="#e09d4b" d="M1445.69,-499.33C1379.99,-478.47 1341.76,-482.57 1214.44,-513.59"/>
<polygon fill="#e09d4b" stroke="#e09d4b" points="1213.84,-510.13 1204.96,-515.91 1215.5,-516.93 1213.84,-510.13"/>
</g>
<!-- 19821 -->
<g id="node7" class="node">
<title>19821</title>
<ellipse fill="none" stroke="#dac767" cx="1177.12" cy="-417.66" rx="160.87" ry="28.99"/>
<text text-anchor="middle" x="1177.12" y="-420.86" font-family="Times,serif" font-size="14.00" fill="gray">ScancodeData</text>
<text text-anchor="middle" x="1177.12" y="-404.36" font-family="Times,serif" font-size="14.00" fill="gray">7a8cc4a11b876404b611d49310de3e15</text>
</g>
<!-- 19821&#45;&gt;19822 -->
<g id="edge16" class="edge">
<title>19821&#45;&gt;19822</title>
<path fill="none" stroke="#dac767" d="M1252.33,-391.61C1361.43,-354.46 1399.76,-346.54 1458.58,-358.54"/>
<polygon fill="#dac767" stroke="#dac767" points="1457.82,-361.96 1468.34,-360.69 1459.33,-355.12 1457.82,-361.96"/>
</g>
<!-- 19823 -->
<g id="node9" class="node">
<title>19823</title>
<polygon fill="none" stroke="#dac767" points="1816.28,-84.28 1816.28,-99.19 1766.85,-109.73 1696.94,-109.73 1647.5,-99.19 1647.5,-84.28 1696.94,-73.73 1766.85,-73.73 1816.28,-84.28"/>
<polygon fill="none" stroke="#dac767" points="1820.28,-81.04 1820.28,-102.43 1767.27,-113.73 1696.51,-113.73 1643.5,-102.43 1643.5,-81.04 1696.51,-69.73 1767.27,-69.73 1820.28,-81.04"/>
<text text-anchor="middle" x="1731.89" y="-86.68" font-family="Times,serif" font-size="14.00">ms&#45;limited&#45;public</text>
</g>
<!-- 19823&#45;&gt;19822 -->
<g id="edge17" class="edge">
<title>19823&#45;&gt;19822</title>
<path fill="none" stroke="#dac767" stroke-width="2" d="M1720.53,-114.18C1685.42,-183.17 1673.33,-200.84 1563.16,-350.02"/>
<polygon fill="#dac767" stroke="#dac767" stroke-width="2" points="1558.25,-356.66 1560.57,-345.94 1559.37,-354.3 1563.79,-348.32 1564.19,-348.62 1564.6,-348.91 1560.18,-354.9 1567.81,-351.29 1558.25,-356.66"/>
</g>
<!-- 19824 -->
<g id="node10" class="node">
<title>19824</title>
<polygon fill="none" stroke="#dac767" points="2032.5,-250.67 2032.5,-265.58 1960.03,-276.13 1857.53,-276.13 1785.06,-265.58 1785.06,-250.67 1857.53,-240.13 1960.03,-240.13 2032.5,-250.67"/>
<polygon fill="none" stroke="#dac767" points="2036.5,-247.21 2036.5,-269.04 1960.32,-280.13 1857.24,-280.13 1781.06,-269.04 1781.06,-247.21 1857.24,-236.13 1960.32,-236.13 2036.5,-247.21"/>
<text text-anchor="middle" x="1908.78" y="-253.08" font-family="Times,serif" font-size="14.00">MS Limited Public License</text>
</g>
<!-- 19824&#45;&gt;19822 -->
<g id="edge18" class="edge">
<title>19824&#45;&gt;19822</title>
<path fill="none" stroke="#dac767" stroke-width="2" d="M1805.55,-273.04C1760.49,-283.84 1712.3,-304.07 1600.57,-353.84"/>
<polygon fill="#dac767" stroke="#dac767" stroke-width="2" points="1592.86,-357.28 1600.16,-349.09 1595,-355.77 1601.79,-352.75 1601.99,-353.2 1602.2,-353.66 1595.4,-356.69 1603.82,-357.31 1592.86,-357.28"/>
</g>
<!-- 19830 -->
<g id="node11" class="node">
<title>19830</title>
<ellipse fill="none" stroke="#dac767" cx="638.13" cy="-1268.66" rx="159.81" ry="28.99"/>
<text text-anchor="middle" x="638.13" y="-1271.86" font-family="Times,serif" font-size="14.00" fill="gray">ScancodeData</text>
<text text-anchor="middle" x="638.13" y="-1255.36" font-family="Times,serif" font-size="14.00" fill="gray">184bfeb2a3a16c2b916d0e0661143450</text>
</g>
<!-- 19830&#45;&gt;19831 -->
<g id="edge19" class="edge">
<title>19830&#45;&gt;19831</title>
<path fill="none" stroke="#dac767" d="M657.11,-1239.75C701.32,-1172.92 719.19,-1151.55 852.1,-999.94"/>
<polygon fill="#dac767" stroke="#dac767" points="854.38,-1002.64 858.35,-992.82 849.12,-998.03 854.38,-1002.64"/>
</g>
<!-- 19831&#45;&gt;45265 -->
<g id="edge20" class="edge">
<title>19831&#45;&gt;45265</title>
<path fill="none" stroke="#00876c" stroke-dasharray="5,2" d="M851.46,-946.93C723.34,-841.82 707.88,-825.47 679.7,-743.58"/>
<polygon fill="#00876c" stroke="#00876c" points="676.58,-734.42 684.06,-742.44 677.8,-738 679.8,-743.88 679.8,-743.88 679.8,-743.88 677.8,-738 675.54,-745.33 676.58,-734.42"/>
</g>
<!-- 19832 -->
<g id="node13" class="node">
<title>19832</title>
<polygon fill="none" stroke="black" points="1118.48,-1029.98 1118.48,-1044.89 993.76,-1055.44 817.38,-1055.44 692.66,-1044.89 692.66,-1029.98 817.38,-1019.44 993.76,-1019.44 1118.48,-1029.98"/>
<polygon fill="none" stroke="black" points="1122.48,-1026.31 1122.48,-1048.57 993.93,-1059.44 817.21,-1059.44 688.66,-1048.57 688.66,-1026.31 817.21,-1015.44 993.93,-1015.44 1122.48,-1026.31"/>
<text text-anchor="middle" x="905.57" y="-1032.39" font-family="Times,serif" font-size="14.00">Microsoft Limited Permissive License (MS&#45;LPL)</text>
</g>
<!-- 19832&#45;&gt;19831 -->
<g id="edge21" class="edge">
<title>19832&#45;&gt;19831</title>
<path fill="none" stroke="#dac767" stroke-width="2" d="M886.37,-1015.3C884.37,-1011.65 883.04,-1007.77 882.07,-1002.8"/>
<polygon fill="#dac767" stroke="#dac767" stroke-width="2" points="880.88,-994.12 886.7,-1003.41 881.72,-996.59 882.73,-1003.96 882.24,-1004.03 881.74,-1004.1 880.73,-996.73 877.78,-1004.64 880.88,-994.12"/>
</g>
<!-- 55454 -->
<g id="node25" class="node">
<title>55454</title>
<polygon fill="none" stroke="#e18745" points="1714.12,-1148.22 1714.12,-1163.14 1572.53,-1173.68 1372.28,-1173.68 1230.68,-1163.14 1230.68,-1148.22 1372.28,-1137.68 1572.53,-1137.68 1714.12,-1148.22"/>
<polygon fill="none" stroke="#e18745" points="1718.12,-1144.51 1718.12,-1166.85 1572.67,-1177.68 1372.13,-1177.68 1226.68,-1166.85 1226.68,-1144.51 1372.13,-1133.68 1572.67,-1133.68 1718.12,-1144.51"/>
<text text-anchor="middle" x="1472.4" y="-1150.63" font-family="Times,serif" font-size="14.00">ifrOSS:Microsoft Limited Permissive License (Ms&#45;LPL)</text>
</g>
<!-- 19832&#45;&gt;55454 -->
<g id="edge22" class="edge">
<title>19832&#45;&gt;55454</title>
<path fill="none" stroke="#e18745" stroke-width="2" d="M958.38,-1059.77C1081.67,-1111.81 1156.48,-1142.39 1215.43,-1158.32"/>
<polygon fill="#e18745" stroke="#e18745" stroke-width="2" points="1223.9,-1160.51 1213.09,-1162.36 1221.29,-1160.35 1214.09,-1158.49 1214.22,-1158 1214.34,-1157.52 1221.54,-1159.38 1215.34,-1153.65 1223.9,-1160.51"/>
</g>
<!-- 27086 -->
<g id="node14" class="node">
<title>27086</title>
<ellipse fill="none" stroke="#e18745" cx="1616.99" cy="-889.73" rx="160.34" ry="28.99"/>
<text text-anchor="middle" x="1616.99" y="-892.93" font-family="Times,serif" font-size="14.00" fill="gray">Fossology</text>
<text text-anchor="middle" x="1616.99" y="-876.43" font-family="Times,serif" font-size="14.00" fill="gray">6473897e3d36847f9618d306936f0034</text>
</g>
<!-- 27086&#45;&gt;27087 -->
<g id="edge23" class="edge">
<title>27086&#45;&gt;27087</title>
<path fill="none" stroke="#e18745" d="M1569,-861.85C1511.91,-830.25 1476.51,-820.52 1337.21,-794.86"/>
<polygon fill="#e18745" stroke="#e18745" points="1338.07,-791.46 1327.6,-793.09 1336.81,-798.34 1338.07,-791.46"/>
</g>
<!-- 35071 -->
<g id="node16" class="node">
<title>35071</title>
<ellipse fill="none" stroke="#e06f45" cx="860.66" cy="-28.72" rx="156.09" ry="28.99"/>
<text text-anchor="middle" x="860.66" y="-31.92" font-family="Times,serif" font-size="14.00" fill="gray">OrtLicenseCategorization</text>
<text text-anchor="middle" x="860.66" y="-15.42" font-family="Times,serif" font-size="14.00" fill="gray">45e4e8ef311640803ea10cfb9398eca1</text>
</g>
<!-- 35071&#45;&gt;2875 -->
<g id="edge24" class="edge">
<title>35071&#45;&gt;2875</title>
<path fill="none" stroke="#e06f45" d="M864.57,-58C875.58,-139.91 879.53,-164.42 913.74,-368.48"/>
<polygon fill="#e06f45" stroke="#e06f45" points="910.25,-368.83 915.35,-378.12 917.15,-367.68 910.25,-368.83"/>
</g>
<!-- 36211 -->
<g id="node17" class="node">
<title>36211</title>
<ellipse fill="none" stroke="#e09d4b" cx="1162.55" cy="-98.61" rx="160.34" ry="28.99"/>
<text text-anchor="middle" x="1162.55" y="-101.81" font-family="Times,serif" font-size="14.00" fill="gray">OrtLicenseCategorization</text>
<text text-anchor="middle" x="1162.55" y="-85.31" font-family="Times,serif" font-size="14.00" fill="gray">397d90a23df981de247bd4083697e27a</text>
</g>
<!-- 36211&#45;&gt;2875 -->
<g id="edge25" class="edge">
<title>36211&#45;&gt;2875</title>
<path fill="none" stroke="#e09d4b" d="M1118.94,-126.81C1046.66,-175.28 1028.87,-202.94 939.57,-369.48"/>
<polygon fill="#e09d4b" stroke="#e09d4b" points="936.5,-367.8 934.86,-378.26 942.67,-371.1 936.5,-367.8"/>
</g>
<!-- 37211 -->
<g id="node18" class="node">
<title>37211</title>
<ellipse fill="none" stroke="#379469" cx="368.54" cy="-411.79" rx="157.15" ry="28.99"/>
<text text-anchor="middle" x="368.54" y="-414.99" font-family="Times,serif" font-size="14.00" fill="gray">CavilLicenseChange</text>
<text text-anchor="middle" x="368.54" y="-398.49" font-family="Times,serif" font-size="14.00" fill="gray">78e8d64af7b29228d0aeecc655f28254</text>
</g>
<!-- 37211&#45;&gt;37212 -->
<g id="edge26" class="edge">
<title>37211&#45;&gt;37212</title>
<path fill="none" stroke="#379469" d="M453.83,-436.49C498.22,-452.23 542.4,-475.28 657.87,-537.85"/>
<polygon fill="#379469" stroke="#379469" points="655.99,-540.82 666.45,-542.5 659.33,-534.66 655.99,-540.82"/>
</g>
<!-- 45264 -->
<g id="node20" class="node">
<title>45264</title>
<ellipse fill="none" stroke="#00876c" cx="160.61" cy="-753.84" rx="160.87" ry="28.99"/>
<text text-anchor="middle" x="160.61" y="-757.04" font-family="Times,serif" font-size="14.00" fill="gray">MetaeffektLicense</text>
<text text-anchor="middle" x="160.61" y="-740.54" font-family="Times,serif" font-size="14.00" fill="gray">68ecd810c61d0600ee0b48add9119b78</text>
</g>
<!-- 45264&#45;&gt;45265 -->
<g id="edge27" class="edge">
<title>45264&#45;&gt;45265</title>
<path fill="none" stroke="#00876c" d="M248.63,-729.19C305.65,-715.26 352.36,-710.85 458.23,-710.06"/>
<polygon fill="#00876c" stroke="#00876c" points="458.21,-713.56 468.18,-710 458.16,-706.56 458.21,-713.56"/>
</g>
<!-- 51808 -->
<g id="node22" class="node">
<title>51808</title>
<ellipse fill="none" stroke="#d43d51" cx="1077.55" cy="-1729.72" rx="155.03" ry="28.99"/>
<text text-anchor="middle" x="1077.55" y="-1732.92" font-family="Times,serif" font-size="14.00" fill="gray">HitachiOpenLicense</text>
<text text-anchor="middle" x="1077.55" y="-1716.42" font-family="Times,serif" font-size="14.00" fill="gray">4f3af307da19fca3cfb49b583bbd7263</text>
</g>
<!-- 51808&#45;&gt;51809 -->
<g id="edge28" class="edge">
<title>51808&#45;&gt;51809</title>
<path fill="none" stroke="#d43d51" d="M1084.78,-1700.46C1112.39,-1587.73 1114.04,-1562.65 1122.5,-1282.8"/>
<polygon fill="#d43d51" stroke="#d43d51" points="1125.99,-1283.06 1122.79,-1272.96 1118.99,-1282.85 1125.99,-1283.06"/>
</g>
<!-- 55453 -->
<g id="node24" class="node">
<title>55453</title>
<ellipse fill="none" stroke="#e18745" cx="1476.89" cy="-1222.44" rx="158.75" ry="28.99"/>
<text text-anchor="middle" x="1476.89" y="-1225.64" font-family="Times,serif" font-size="14.00" fill="gray">ifrOSS License</text>
<text text-anchor="middle" x="1476.89" y="-1209.14" font-family="Times,serif" font-size="14.00" fill="gray">04dce98da39674193c7fcacd12585528</text>
</g>
<!-- 55453&#45;&gt;55454 -->
<g id="edge29" class="edge">
<title>55453&#45;&gt;55454</title>
<path fill="none" stroke="#e18745" d="M1482.81,-1193.11C1482.68,-1191.81 1482.48,-1190.45 1482.21,-1189.01"/>
<polygon fill="#e18745" stroke="#e18745" points="1485.64,-1188.32 1479.83,-1179.46 1478.85,-1190.01 1485.64,-1188.32"/>
</g>
</g>
</svg>
