<?xml version="1.0" encoding="UTF-8" standalone="no"?>
<!DOCTYPE svg PUBLIC "-//W3C//DTD SVG 1.1//EN"
 "http://www.w3.org/Graphics/SVG/1.1/DTD/svg11.dtd">
<!-- Generated by graphviz version 10.0.1 (0)
 -->
<!-- Pages: 1 -->
<svg width="4644pt" height="3074pt"
 viewBox="0.00 0.00 4644.00 3074.00" xmlns="http://www.w3.org/2000/svg" xmlns:xlink="http://www.w3.org/1999/xlink">
<g id="graph0" class="graph" transform="scale(1 1) rotate(0) translate(4 3070)">
<polygon fill="white" stroke="none" points="-4,4 -4,-3070 4640,-3070 4640,4 -4,4"/>
<!-- 19 -->
<g id="node1" class="node">
<title>19</title>
<text text-anchor="start" x="1183.28" y="-760.55" font-family="Times,serif" font-size="14.00">OSI: </text>
<text text-anchor="start" x="1212.53" y="-760.55" font-family="Times,serif" font-weight="bold" font-size="14.00" fill="#228b22">Approved</text>
</g>
<!-- 3322 -->
<g id="node3" class="node">
<title>3322</title>
<ellipse fill="none" stroke="#dac767" cx="1418.83" cy="-1107.68" rx="159.81" ry="28.99"/>
<text text-anchor="middle" x="1418.83" y="-1110.88" font-family="Times,serif" font-size="14.00" fill="gray">SPDXLicense</text>
<text text-anchor="middle" x="1418.83" y="-1094.38" font-family="Times,serif" font-size="14.00" fill="gray">4fcdd57114923bd2ea96b37ac3d0679d</text>
</g>
<!-- 19&#45;&gt;3322 -->
<g id="edge1" class="edge">
<title>19&#45;&gt;3322</title>
<path fill="none" stroke="#dac767" d="M1230.71,-782.56C1254.07,-888.57 1262.11,-904.08 1389.5,-1069.61"/>
<polygon fill="#dac767" stroke="#dac767" points="1386.65,-1071.66 1395.52,-1077.44 1392.2,-1067.39 1386.65,-1071.66"/>
</g>
<!-- 3317 -->
<g id="node2" class="node">
<title>3317</title>
<text text-anchor="middle" x="988.47" y="-641.03" font-family="Times,serif" font-size="14.00">SPDXLicense:</text>
<text text-anchor="middle" x="988.47" y="-624.53" font-family="Times,serif" font-size="14.00">Both the Chinese and English translations of this license have been included in</text>
<text text-anchor="middle" x="988.47" y="-608.03" font-family="Times,serif" font-size="14.00">the markup, because current examples of use appear to include both translations</text>
<text text-anchor="middle" x="988.47" y="-591.53" font-family="Times,serif" font-size="14.00">in license documents.</text>
</g>
<!-- 3317&#45;&gt;3322 -->
<g id="edge2" class="edge">
<title>3317&#45;&gt;3322</title>
<path fill="none" stroke="#dac767" d="M1010.31,-658.33C1090.38,-793.15 1114.68,-818.84 1380.08,-1070.89"/>
<polygon fill="#dac767" stroke="#dac767" points="1377.65,-1073.41 1387.31,-1077.76 1382.47,-1068.33 1377.65,-1073.41"/>
</g>
<!-- 3323 -->
<g id="node4" class="node">
<title>3323</title>
<polygon fill="none" stroke="black" points="2156.37,-1543.4 2156.37,-1558.31 2101.74,-1568.85 2024.49,-1568.85 1969.87,-1558.31 1969.87,-1543.4 2024.49,-1532.85 2101.74,-1532.85 2156.37,-1543.4"/>
<polygon fill="none" stroke="black" points="2160.37,-1540.09 2160.37,-1561.61 2102.13,-1572.85 2024.11,-1572.85 1965.87,-1561.61 1965.87,-1540.09 2024.11,-1528.85 2102.13,-1528.85 2160.37,-1540.09"/>
<polygon fill="none" stroke="black" points="2164.37,-1536.79 2164.37,-1564.91 2102.51,-1576.85 2023.73,-1576.85 1961.87,-1564.91 1961.87,-1536.79 2023.73,-1524.85 2102.51,-1524.85 2164.37,-1536.79"/>
<text text-anchor="middle" x="2063.12" y="-1545.8" font-family="Times,serif" font-size="14.00">spdx:MulanPSL&#45;2.0</text>
</g>
<!-- 3322&#45;&gt;3323 -->
<g id="edge3" class="edge">
<title>3322&#45;&gt;3323</title>
<path fill="none" stroke="#dac767" d="M1448.32,-1136.26C1588.97,-1272.18 1619.04,-1291.98 2009.39,-1519.54"/>
<polygon fill="#dac767" stroke="#dac767" points="2007.56,-1522.52 2017.96,-1524.53 2011.08,-1516.47 2007.56,-1522.52"/>
</g>
<!-- 9014 -->
<g id="node14" class="node">
<title>9014</title>
<polygon fill="none" stroke="#e09d4b" points="2415.79,-1430.82 2415.79,-1445.74 2355.97,-1456.28 2271.37,-1456.28 2211.55,-1445.74 2211.55,-1430.82 2271.37,-1420.28 2355.97,-1420.28 2415.79,-1430.82"/>
<polygon fill="none" stroke="#e09d4b" points="2419.79,-1427.47 2419.79,-1449.09 2356.32,-1460.28 2271.02,-1460.28 2207.55,-1449.09 2207.55,-1427.47 2271.02,-1416.28 2356.32,-1416.28 2419.79,-1427.47"/>
<text text-anchor="middle" x="2313.67" y="-1433.23" font-family="Times,serif" font-size="14.00">Fedora:MulanPSL&#45;2.0</text>
</g>
<!-- 3323&#45;&gt;9014 -->
<g id="edge4" class="edge">
<title>3323&#45;&gt;9014</title>
<path fill="none" stroke="#e09d4b" stroke-width="2" d="M2090.14,-1524.47C2128.35,-1488.42 2149.85,-1477.44 2229.59,-1457.88"/>
<polygon fill="#e09d4b" stroke="#e09d4b" stroke-width="2" points="2237.78,-1455.89 2229.12,-1462.62 2235.4,-1456.98 2228.17,-1458.74 2228.06,-1458.25 2227.94,-1457.76 2235.17,-1456.01 2227,-1453.88 2237.78,-1455.89"/>
</g>
<!-- 12341 -->
<g id="node21" class="node">
<title>12341</title>
<polygon fill="none" stroke="#58a066" points="2422.63,-1193.78 2422.63,-1208.69 2380.66,-1219.24 2321.3,-1219.24 2279.33,-1208.69 2279.33,-1193.78 2321.3,-1183.24 2380.66,-1183.24 2422.63,-1193.78"/>
<polygon fill="none" stroke="#58a066" points="2426.63,-1190.66 2426.63,-1211.81 2381.15,-1223.24 2320.81,-1223.24 2275.33,-1211.81 2275.33,-1190.66 2320.81,-1179.24 2381.15,-1179.24 2426.63,-1190.66"/>
<text text-anchor="middle" x="2350.98" y="-1196.19" font-family="Times,serif" font-size="14.00">cal:mulanpsl&#45;2</text>
</g>
<!-- 3323&#45;&gt;12341 -->
<g id="edge5" class="edge">
<title>3323&#45;&gt;12341</title>
<path fill="none" stroke="#58a066" stroke-width="2" d="M2072.83,-1524.5C2147.29,-1322.89 2159.98,-1301 2302.24,-1226.44"/>
<polygon fill="#58a066" stroke="#58a066" stroke-width="2" points="2309.64,-1222.58 2302.85,-1231.2 2307.59,-1224.21 2301,-1227.65 2300.77,-1227.21 2300.54,-1226.76 2307.13,-1223.32 2298.69,-1223.22 2309.64,-1222.58"/>
</g>
<!-- 22252 -->
<g id="node27" class="node">
<title>22252</title>
<polygon fill="none" stroke="black" points="2667.52,-1868 2667.52,-1882.91 2606.41,-1893.46 2519.98,-1893.46 2458.86,-1882.91 2458.86,-1868 2519.98,-1857.46 2606.41,-1857.46 2667.52,-1868"/>
<polygon fill="none" stroke="black" points="2671.52,-1864.63 2671.52,-1886.28 2606.75,-1897.46 2519.63,-1897.46 2454.86,-1886.28 2454.86,-1864.63 2519.63,-1853.46 2606.75,-1853.46 2671.52,-1864.63"/>
<text text-anchor="middle" x="2563.19" y="-1870.41" font-family="Times,serif" font-size="14.00">scancode:mulanpsl&#45;2.0</text>
</g>
<!-- 3323&#45;&gt;22252 -->
<g id="edge6" class="edge">
<title>3323&#45;&gt;22252</title>
<path fill="none" stroke="#deb256" stroke-width="2" d="M2097.07,-1577.3C2183.14,-1637.81 2410.13,-1785.35 2512.22,-1847.38"/>
<polygon fill="#deb256" stroke="#deb256" stroke-width="2" points="2519.61,-1851.85 2508.73,-1850.53 2517.16,-1850.95 2510.79,-1847.11 2511.05,-1846.68 2511.31,-1846.25 2517.68,-1850.1 2513.38,-1842.83 2519.61,-1851.85"/>
</g>
<!-- 51763 -->
<g id="node41" class="node">
<title>51763</title>
<polygon fill="none" stroke="#379469" points="2801.41,-1922.29 2801.41,-1937.2 2672.8,-1947.74 2490.91,-1947.74 2362.3,-1937.2 2362.3,-1922.29 2490.91,-1911.74 2672.8,-1911.74 2801.41,-1922.29"/>
<polygon fill="none" stroke="#379469" points="2805.41,-1918.6 2805.41,-1940.88 2672.96,-1951.74 2490.75,-1951.74 2358.3,-1940.88 2358.3,-1918.6 2490.75,-1907.74 2672.96,-1907.74 2805.41,-1918.6"/>
<text text-anchor="middle" x="2581.86" y="-1924.69" font-family="Times,serif" font-size="14.00">metaeffekt:Mulan Permissive Software License 2.0</text>
</g>
<!-- 3323&#45;&gt;51763 -->
<g id="edge7" class="edge">
<title>3323&#45;&gt;51763</title>
<path fill="none" stroke="#379469" stroke-width="2" d="M2084.77,-1577.1C2287.41,-1822.66 2324.46,-1862.69 2479.87,-1904.57"/>
<polygon fill="#379469" stroke="#379469" stroke-width="2" points="2487.93,-1906.71 2477.11,-1908.49 2485.32,-1906.53 2478.13,-1904.62 2478.26,-1904.14 2478.39,-1903.66 2485.58,-1905.57 2479.41,-1899.79 2487.93,-1906.71"/>
</g>
<!-- 3324 -->
<g id="node5" class="node">
<title>3324</title>
<polygon fill="none" stroke="black" points="2793.68,-1680.92 2793.68,-1695.84 2751.71,-1706.38 2692.36,-1706.38 2650.39,-1695.84 2650.39,-1680.92 2692.36,-1670.38 2751.71,-1670.38 2793.68,-1680.92"/>
<polygon fill="none" stroke="black" points="2797.68,-1677.8 2797.68,-1698.95 2752.21,-1710.38 2691.86,-1710.38 2646.39,-1698.95 2646.39,-1677.8 2691.86,-1666.38 2752.21,-1666.38 2797.68,-1677.8"/>
<text text-anchor="middle" x="2722.04" y="-1683.33" font-family="Times,serif" font-size="14.00">MulanPSL&#45;2.0</text>
</g>
<!-- 3324&#45;&gt;3323 -->
<g id="edge8" class="edge">
<title>3324&#45;&gt;3323</title>
<path fill="none" stroke="black" stroke-width="2" d="M2645.99,-1698.48C2485.63,-1717.96 2437.55,-1703.72 2129.85,-1578.14"/>
<polygon fill="black" stroke="black" stroke-width="2" points="2121.99,-1574.93 2132.95,-1574.54 2124.55,-1575.43 2131.44,-1578.25 2131.25,-1578.71 2131.06,-1579.17 2124.17,-1576.36 2129.55,-1582.87 2121.99,-1574.93"/>
</g>
<!-- 3324&#45;&gt;9014 -->
<g id="edge9" class="edge">
<title>3324&#45;&gt;9014</title>
<path fill="none" stroke="#e09d4b" stroke-width="2" d="M2699.86,-1666.02C2617.46,-1583.46 2594.23,-1569.41 2370.31,-1464.72"/>
<polygon fill="#e09d4b" stroke="#e09d4b" stroke-width="2" points="2362.4,-1461.02 2373.36,-1461.18 2364.93,-1461.65 2371.67,-1464.8 2371.46,-1465.26 2371.24,-1465.71 2364.51,-1462.56 2369.55,-1469.33 2362.4,-1461.02"/>
</g>
<!-- 10202 -->
<g id="node17" class="node">
<title>10202</title>
<polygon fill="none" stroke="#00876c" points="3150.44,-2113.59 3150.44,-2128.5 3086.07,-2139.05 2995.05,-2139.05 2930.69,-2128.5 2930.69,-2113.59 2995.05,-2103.05 3086.07,-2103.05 3150.44,-2113.59"/>
<polygon fill="none" stroke="#00876c" points="3154.44,-2110.19 3154.44,-2131.9 3086.4,-2143.05 2994.73,-2143.05 2926.69,-2131.9 2926.69,-2110.19 2994.73,-2099.05 3086.4,-2099.05 3154.44,-2110.19"/>
<text text-anchor="middle" x="3040.56" y="-2116" font-family="Times,serif" font-size="14.00">BlueOak:MulanPSL&#45;2.0</text>
</g>
<!-- 3324&#45;&gt;10202 -->
<g id="edge10" class="edge">
<title>3324&#45;&gt;10202</title>
<path fill="none" stroke="#00876c" stroke-width="2" d="M2742.25,-1710.75C2953.7,-1944.82 2971.33,-1966.19 3026.19,-2088.69"/>
<polygon fill="#00876c" stroke="#00876c" stroke-width="2" points="3029.74,-2096.64 3021.55,-2089.34 3028.23,-2094.51 3025.2,-2087.71 3025.66,-2087.51 3026.12,-2087.31 3029.15,-2094.1 3029.77,-2085.68 3029.74,-2096.64"/>
</g>
<!-- 3324&#45;&gt;22252 -->
<g id="edge11" class="edge">
<title>3324&#45;&gt;22252</title>
<path fill="none" stroke="black" stroke-width="2" d="M2714.67,-1710.75C2687.15,-1793.73 2677.38,-1811.31 2613.89,-1847.69"/>
<polygon fill="black" stroke="black" stroke-width="2" points="2606.25,-1852.01 2612.74,-1843.18 2608.24,-1850.32 2614.71,-1846.66 2614.96,-1847.09 2615.2,-1847.53 2608.73,-1851.19 2617.17,-1851.01 2606.25,-1852.01"/>
</g>
<!-- 35102 -->
<g id="node32" class="node">
<title>35102</title>
<polygon fill="none" stroke="#e18745" points="3488.25,-1680.56 3488.25,-1695.47 3421.94,-1706.02 3328.17,-1706.02 3261.86,-1695.47 3261.86,-1680.56 3328.17,-1670.02 3421.94,-1670.02 3488.25,-1680.56"/>
<polygon fill="none" stroke="#e18745" points="3492.25,-1677.15 3492.25,-1698.89 3422.26,-1710.02 3327.85,-1710.02 3257.86,-1698.89 3257.86,-1677.15 3327.85,-1666.02 3422.26,-1666.02 3492.25,-1677.15"/>
<text text-anchor="middle" x="3375.05" y="-1682.97" font-family="Times,serif" font-size="14.00">fossology:MulanPSL&#45;2.0</text>
</g>
<!-- 3324&#45;&gt;35102 -->
<g id="edge12" class="edge">
<title>3324&#45;&gt;35102</title>
<path fill="none" stroke="#e18745" stroke-width="2" d="M2797.93,-1692.88C3083.3,-1709.72 3160.1,-1713.02 3260.42,-1702.65"/>
<polygon fill="#e18745" stroke="#e18745" stroke-width="2" points="3269.07,-1701.72 3259.61,-1707.26 3266.58,-1702.49 3259.18,-1703.29 3259.13,-1702.79 3259.07,-1702.29 3266.47,-1701.5 3258.65,-1698.32 3269.07,-1701.72"/>
</g>
<!-- 41989 -->
<g id="node39" class="node">
<title>41989</title>
<polygon fill="none" stroke="#379469" points="3299.59,-1811.18 3299.59,-1826.09 3244.64,-1836.63 3166.92,-1836.63 3111.97,-1826.09 3111.97,-1811.18 3166.92,-1800.63 3244.64,-1800.63 3299.59,-1811.18"/>
<polygon fill="none" stroke="#379469" points="3303.59,-1807.87 3303.59,-1829.4 3245.02,-1840.63 3166.54,-1840.63 3107.97,-1829.4 3107.97,-1807.87 3166.54,-1796.63 3245.02,-1796.63 3303.59,-1807.87"/>
<text text-anchor="middle" x="3205.78" y="-1813.58" font-family="Times,serif" font-size="14.00">cavil:MulanPSL&#45;2.0</text>
</g>
<!-- 3324&#45;&gt;41989 -->
<g id="edge13" class="edge">
<title>3324&#45;&gt;41989</title>
<path fill="none" stroke="#379469" stroke-width="2" d="M2777.41,-1704.41C2991.63,-1766.42 3047.66,-1782.33 3123.05,-1799.95"/>
<polygon fill="#379469" stroke="#379469" stroke-width="2" points="3131.46,-1801.9 3120.71,-1804.02 3128.85,-1801.81 3121.61,-1800.13 3121.72,-1799.64 3121.84,-1799.15 3129.08,-1800.83 3122.74,-1795.26 3131.46,-1801.9"/>
</g>
<!-- 51770 -->
<g id="node46" class="node">
<title>51770</title>
<polygon fill="none" stroke="#379469" points="3197.26,-1722.59 3197.26,-1737.5 3103.04,-1748.05 2969.8,-1748.05 2875.58,-1737.5 2875.58,-1722.59 2969.8,-1712.05 3103.04,-1712.05 3197.26,-1722.59"/>
<text text-anchor="middle" x="3036.42" y="-1725" font-family="Times,serif" font-size="14.00">metaeffekt:Mulan&#45;Permissive&#45;2.0&#45;en</text>
</g>
<!-- 3324&#45;&gt;51770 -->
<g id="edge14" class="edge">
<title>3324&#45;&gt;51770</title>
<path fill="none" stroke="#379469" stroke-dasharray="5,2" d="M2791.11,-1700.99C2832.27,-1708.47 2862.9,-1713.91 2887.44,-1717.9"/>
<polygon fill="#379469" stroke="#379469" points="2897.1,-1719.44 2886.51,-1722.31 2893.36,-1718.84 2887.22,-1717.86 2887.22,-1717.86 2887.22,-1717.86 2893.36,-1718.84 2887.93,-1713.42 2897.1,-1719.44"/>
</g>
<!-- 60131 -->
<g id="node48" class="node">
<title>60131</title>
<polygon fill="none" stroke="#b8bf62" points="3427.33,-1343.62 3427.33,-1358.53 3280.21,-1369.08 3072.17,-1369.08 2925.05,-1358.53 2925.05,-1343.62 3072.17,-1333.08 3280.21,-1333.08 3427.33,-1343.62"/>
<polygon fill="none" stroke="#b8bf62" points="3431.33,-1339.9 3431.33,-1362.26 3280.36,-1373.08 3072.02,-1373.08 2921.05,-1362.26 2921.05,-1339.9 3072.02,-1329.08 3280.36,-1329.08 3431.33,-1339.9"/>
<text text-anchor="middle" x="3176.19" y="-1346.03" font-family="Times,serif" font-size="14.00">foss&#45;license:Mulan Permissive Software License, Version 2</text>
</g>
<!-- 3324&#45;&gt;60131 -->
<g id="edge15" class="edge">
<title>3324&#45;&gt;60131</title>
<path fill="none" stroke="#b8bf62" stroke-width="2" d="M2761.75,-1668.41C3041.31,-1527.7 3064.77,-1512.23 3154.58,-1382.51"/>
<polygon fill="#b8bf62" stroke="#b8bf62" stroke-width="2" points="3159.49,-1375.39 3157.51,-1386.18 3158.45,-1377.78 3154.22,-1383.91 3153.81,-1383.62 3153.4,-1383.34 3157.62,-1377.22 3150.11,-1381.06 3159.49,-1375.39"/>
</g>
<!-- 3325 -->
<g id="node6" class="node">
<title>3325</title>
<polygon fill="none" stroke="black" points="2783.39,-1735.19 2783.39,-1750.1 2665.49,-1760.64 2498.74,-1760.64 2380.84,-1750.1 2380.84,-1735.19 2498.74,-1724.64 2665.49,-1724.64 2783.39,-1735.19"/>
<polygon fill="none" stroke="black" points="2787.39,-1731.53 2787.39,-1753.76 2665.67,-1764.64 2498.56,-1764.64 2376.84,-1753.76 2376.84,-1731.53 2498.56,-1720.64 2665.67,-1720.64 2787.39,-1731.53"/>
<text text-anchor="middle" x="2582.12" y="-1737.59" font-family="Times,serif" font-size="14.00">Mulan Permissive Software License, Version 2</text>
</g>
<!-- 3325&#45;&gt;3323 -->
<g id="edge16" class="edge">
<title>3325&#45;&gt;3323</title>
<path fill="none" stroke="#dac767" stroke-width="2" d="M2376.65,-1743.05C2298.25,-1730.01 2240.1,-1688.85 2105.16,-1583.7"/>
<polygon fill="#dac767" stroke="#dac767" stroke-width="2" points="2098.51,-1578.51 2109.16,-1581.11 2100.84,-1579.69 2106.7,-1584.26 2106.39,-1584.66 2106.08,-1585.05 2100.22,-1580.48 2103.62,-1588.2 2098.51,-1578.51"/>
</g>
<!-- 3325&#45;&gt;10202 -->
<g id="edge17" class="edge">
<title>3325&#45;&gt;10202</title>
<path fill="none" stroke="#00876c" stroke-width="2" d="M2609.13,-1764.8C2875.67,-1983.52 2904.33,-2007.08 3005.58,-2091.77"/>
<polygon fill="#00876c" stroke="#00876c" stroke-width="2" points="3012.1,-2097.23 3001.54,-2094.26 3009.81,-2095.97 3004.11,-2091.2 3004.43,-2090.81 3004.75,-2090.43 3010.46,-2095.2 3007.32,-2087.36 3012.1,-2097.23"/>
</g>
<!-- 3325&#45;&gt;12341 -->
<g id="edge18" class="edge">
<title>3325&#45;&gt;12341</title>
<path fill="none" stroke="#58a066" stroke-width="2" d="M2581.64,-1720.53C2575.62,-1441.1 2570.58,-1422.94 2381,-1231.49"/>
<polygon fill="#58a066" stroke="#58a066" stroke-width="2" points="2375.02,-1225.45 2385.25,-1229.39 2377.18,-1226.92 2382.41,-1232.2 2382.06,-1232.56 2381.7,-1232.91 2376.47,-1227.63 2378.86,-1235.72 2375.02,-1225.45"/>
</g>
<!-- 3325&#45;&gt;22252 -->
<g id="edge19" class="edge">
<title>3325&#45;&gt;22252</title>
<path fill="none" stroke="#deb256" stroke-width="2" d="M2584.37,-1765.12C2588.59,-1808.59 2588.85,-1824.43 2580.77,-1843.3"/>
<polygon fill="#deb256" stroke="#deb256" stroke-width="2" points="2577,-1851.08 2577.31,-1840.12 2577.67,-1848.56 2580.91,-1841.86 2581.36,-1842.08 2581.81,-1842.3 2578.57,-1848.99 2585.41,-1844.04 2577,-1851.08"/>
</g>
<!-- 3325&#45;&gt;35102 -->
<g id="edge20" class="edge">
<title>3325&#45;&gt;35102</title>
<path fill="none" stroke="#e18745" stroke-width="2" d="M2787.81,-1748.02C3088.07,-1755.04 3152.24,-1749.67 3296.83,-1710.11"/>
<polygon fill="#e18745" stroke="#e18745" stroke-width="2" points="3305.04,-1707.85 3296.59,-1714.84 3302.7,-1709.01 3295.53,-1710.99 3295.4,-1710.5 3295.26,-1710.02 3302.43,-1708.05 3294.2,-1706.17 3305.04,-1707.85"/>
</g>
<!-- 3325&#45;&gt;51770 -->
<g id="edge21" class="edge">
<title>3325&#45;&gt;51770</title>
<path fill="none" stroke="#379469" stroke-dasharray="5,2" d="M2751.25,-1757.48C2858.65,-1765.76 2901.82,-1764.36 2958.72,-1751.12"/>
<polygon fill="#379469" stroke="#379469" points="2968.34,-1748.8 2959.68,-1755.52 2964.67,-1749.69 2958.62,-1751.15 2958.62,-1751.15 2958.62,-1751.15 2964.67,-1749.69 2957.57,-1746.77 2968.34,-1748.8"/>
</g>
<!-- 3325&#45;&gt;60131 -->
<g id="edge22" class="edge">
<title>3325&#45;&gt;60131</title>
<path fill="none" stroke="#b8bf62" stroke-width="2" d="M2633.4,-1720.19C2999.38,-1559.81 3025.73,-1543.72 3151.93,-1382.25"/>
<polygon fill="#b8bf62" stroke="#b8bf62" stroke-width="2" points="3157.3,-1375.37 3154.7,-1386.02 3156.12,-1377.69 3151.55,-1383.56 3151.15,-1383.25 3150.76,-1382.94 3155.33,-1377.08 3147.6,-1380.48 3157.3,-1375.37"/>
</g>
<!-- 67912 -->
<g id="node74" class="node">
<title>67912</title>
<polygon fill="none" stroke="#00876c" points="2402.21,-2004.73 2402.21,-2019.64 2271.65,-2030.18 2087,-2030.18 1956.44,-2019.64 1956.44,-2004.73 2087,-1994.18 2271.65,-1994.18 2402.21,-2004.73"/>
<polygon fill="none" stroke="#00876c" points="2406.21,-2001.04 2406.21,-2023.33 2271.81,-2034.18 2086.84,-2034.18 1952.44,-2023.33 1952.44,-2001.04 2086.84,-1990.18 2271.81,-1990.18 2406.21,-2001.04"/>
<text text-anchor="middle" x="2179.33" y="-2007.13" font-family="Times,serif" font-size="14.00">spdx:Mulan Permissive Software License, Version 2</text>
</g>
<!-- 3325&#45;&gt;67912 -->
<g id="edge23" class="edge">
<title>3325&#45;&gt;67912</title>
<path fill="none" stroke="#00876c" stroke-width="2" d="M2564.13,-1765.13C2436.67,-1924.32 2402.72,-1962.25 2298.63,-1988.43"/>
<polygon fill="#00876c" stroke="#00876c" stroke-width="2" points="2290.36,-1990.43 2299.02,-1983.7 2292.74,-1989.34 2299.96,-1987.59 2300.08,-1988.07 2300.2,-1988.56 2292.97,-1990.31 2301.14,-1992.45 2290.36,-1990.43"/>
</g>
<!-- 3326 -->
<g id="node7" class="node">
<title>3326</title>
<text text-anchor="middle" x="986.88" y="-950.36" font-family="Times,serif" font-size="14.00">$TEXT</text>
</g>
<!-- 3326&#45;&gt;3322 -->
<g id="edge24" class="edge">
<title>3326&#45;&gt;3322</title>
<path fill="none" stroke="#dac767" d="M1015.37,-963.72C1109.8,-991.35 1136.9,-1000.76 1338.56,-1077.22"/>
<polygon fill="#dac767" stroke="#dac767" points="1337.23,-1080.46 1347.82,-1080.73 1339.71,-1073.91 1337.23,-1080.46"/>
</g>
<!-- 3327 -->
<g id="node8" class="node">
<title>3327</title>
<text text-anchor="middle" x="760.7" y="-858.17" font-family="Times,serif" font-size="14.00">$TEXT</text>
</g>
<!-- 3327&#45;&gt;3326 -->
<g id="edge25" class="edge">
<title>3327&#45;&gt;3326</title>
<path fill="none" stroke="#dac767" d="M789.16,-874.38C828.31,-889.78 849.44,-898.45 948.02,-939.3"/>
<polygon fill="#dac767" stroke="#dac767" points="946.47,-942.45 957.05,-943.05 949.15,-935.99 946.47,-942.45"/>
</g>
<!-- 3328 -->
<g id="node9" class="node">
<title>3328</title>
<text text-anchor="middle" x="1049.59" y="-800.18" font-family="Times,serif" font-size="14.00">https://license.coscl.org.cn/MulanPSL2</text>
</g>
<!-- 3328&#45;&gt;3322 -->
<g id="edge26" class="edge">
<title>3328&#45;&gt;3322</title>
<path fill="none" stroke="#dac767" d="M1066.53,-823.17C1145.18,-906.29 1163.6,-921.46 1370.71,-1072.59"/>
<polygon fill="#dac767" stroke="#dac767" points="1368.39,-1075.23 1378.53,-1078.29 1372.52,-1069.57 1368.39,-1075.23"/>
</g>
<!-- 5550 -->
<g id="node10" class="node">
<title>5550</title>
<text text-anchor="middle" x="3129.19" y="-2831.61" font-family="Times,serif" font-size="14.00">LicenseType Permissive</text>
</g>
<!-- 10201 -->
<g id="node16" class="node">
<title>10201</title>
<ellipse fill="none" stroke="#00876c" cx="3424.9" cy="-2615.23" rx="156.62" ry="28.99"/>
<text text-anchor="middle" x="3424.9" y="-2618.43" font-family="Times,serif" font-size="14.00" fill="gray">BlueOakCouncil</text>
<text text-anchor="middle" x="3424.9" y="-2601.93" font-family="Times,serif" font-size="14.00" fill="gray">52595a19faa702668f6db5cfc6b0dd44</text>
</g>
<!-- 5550&#45;&gt;10201 -->
<g id="edge27" class="edge">
<title>5550&#45;&gt;10201</title>
<path fill="none" stroke="#00876c" d="M3193.91,-2818.67C3312.4,-2784.48 3332.89,-2766.05 3401.37,-2654.07"/>
<polygon fill="#00876c" stroke="#00876c" points="3404.25,-2656.06 3406.47,-2645.69 3398.28,-2652.41 3404.25,-2656.06"/>
</g>
<!-- 22251 -->
<g id="node26" class="node">
<title>22251</title>
<ellipse fill="none" stroke="#deb256" cx="2799.75" cy="-2526.58" rx="155.56" ry="28.99"/>
<text text-anchor="middle" x="2799.75" y="-2529.78" font-family="Times,serif" font-size="14.00" fill="gray">ScancodeData</text>
<text text-anchor="middle" x="2799.75" y="-2513.28" font-family="Times,serif" font-size="14.00" fill="gray">d5fcbd6c37cae8ce1fbd5cc1bb88887c</text>
</g>
<!-- 5550&#45;&gt;22251 -->
<g id="edge28" class="edge">
<title>5550&#45;&gt;22251</title>
<path fill="none" stroke="#deb256" d="M3100.92,-2818.7C3013.08,-2762.46 2993.37,-2742.99 2833.02,-2563.78"/>
<polygon fill="#deb256" stroke="#deb256" points="2835.82,-2561.66 2826.54,-2556.54 2830.6,-2566.32 2835.82,-2561.66"/>
</g>
<!-- 6592 -->
<g id="node11" class="node">
<title>6592</title>
<text text-anchor="middle" x="1279.49" y="-1238.39" font-family="Times,serif" font-size="14.00">[&quot;allowed&quot;]</text>
</g>
<!-- 9013 -->
<g id="node13" class="node">
<title>9013</title>
<ellipse fill="none" stroke="#e09d4b" cx="1756.08" cy="-1305.6" rx="161.93" ry="28.99"/>
<text text-anchor="middle" x="1756.08" y="-1308.8" font-family="Times,serif" font-size="14.00" fill="gray">FedoraEntry</text>
<text text-anchor="middle" x="1756.08" y="-1292.3" font-family="Times,serif" font-size="14.00" fill="gray">a839eadb8b8291ddd866274e358d2868</text>
</g>
<!-- 6592&#45;&gt;9013 -->
<g id="edge29" class="edge">
<title>6592&#45;&gt;9013</title>
<path fill="none" stroke="#e09d4b" d="M1319.1,-1243.91C1411.56,-1245.3 1447.15,-1249.3 1630.79,-1282.65"/>
<polygon fill="#e09d4b" stroke="#e09d4b" points="1629.98,-1286.06 1640.45,-1284.4 1631.24,-1279.17 1629.98,-1286.06"/>
</g>
<!-- 6593 -->
<g id="node12" class="node">
<title>6593</title>
<text text-anchor="start" x="759.32" y="-1260.96" font-family="Times,serif" font-size="14.00">Fedora: </text>
<text text-anchor="start" x="804.32" y="-1260.96" font-family="Times,serif" font-weight="bold" font-size="14.00" fill="#228b22">allowed</text>
<text text-anchor="start" x="595.45" y="-1246.96" font-family="Times,serif" font-size="14.00">A license is allowed if Fedora determines that the license is a free software /</text>
<text text-anchor="start" x="590.2" y="-1232.96" font-family="Times,serif" font-size="14.00">open source license. At a high level, the inquiry involves determining whether</text>
<text text-anchor="start" x="589.07" y="-1218.96" font-family="Times,serif" font-size="14.00">the license provides software freedom, and (equivalently) making sure that the</text>
<text text-anchor="start" x="599.2" y="-1204.96" font-family="Times,serif" font-size="14.00">license does not place burdens on users&#39; exercise of its permissions that are</text>
<text text-anchor="start" x="598.82" y="-1190.96" font-family="Times,serif" font-size="14.00">inconsistent with evolving community norms and traditions around what is</text>
<text text-anchor="start" x="590.57" y="-1176.96" font-family="Times,serif" font-size="14.00">acceptable in a free software / open source license. See below for more on the</text>
<text text-anchor="start" x="710.57" y="-1162.96" font-family="Times,serif" font-size="14.00">history of Fedora licensing policy.</text>
</g>
<!-- 6593&#45;&gt;6592 -->
<g id="edge30" class="edge">
<title>6593&#45;&gt;6592</title>
<path fill="none" stroke="#e09d4b" d="M1026.48,-1217.78C1073.89,-1221.8 1136.45,-1228.29 1228.44,-1238.03"/>
<polygon fill="#e09d4b" stroke="#e09d4b" points="1227.99,-1241.5 1238.3,-1239.08 1228.73,-1234.54 1227.99,-1241.5"/>
</g>
<!-- 9013&#45;&gt;9014 -->
<g id="edge31" class="edge">
<title>9013&#45;&gt;9014</title>
<path fill="none" stroke="#e09d4b" d="M1903.19,-1318.03C1974.17,-1329.26 2051.03,-1353.04 2243.19,-1415.38"/>
<polygon fill="#e09d4b" stroke="#e09d4b" points="2241.89,-1418.64 2252.48,-1418.4 2244.05,-1411.98 2241.89,-1418.64"/>
</g>
<!-- 10004 -->
<g id="node15" class="node">
<title>10004</title>
<text text-anchor="start" x="3852.66" y="-3002.95" font-family="Times,serif" font-size="14.00">BlueOakCouncil: </text>
<text text-anchor="start" x="3950.91" y="-3002.95" font-family="Times,serif" font-weight="bold" font-size="14.00" fill="#000000">Bronze</text>
<text text-anchor="start" x="3715.41" y="-2988.95" font-family="Times,serif" font-size="14.00">These licenses lack important but nonessential elements of permissive open</text>
<text text-anchor="start" x="3717.29" y="-2974.95" font-family="Times,serif" font-size="14.00">software licenses or impose additional requirements or restrictions, such as</text>
<text text-anchor="start" x="3758.16" y="-2960.95" font-family="Times,serif" font-size="14.00">BSD&#45;style prohibitions against endorsement and promotion.</text>
</g>
<!-- 10004&#45;&gt;10201 -->
<g id="edge32" class="edge">
<title>10004&#45;&gt;10201</title>
<path fill="none" stroke="#00876c" d="M3872.57,-2955.27C3765.62,-2886.21 3728.49,-2857.43 3469.77,-2651.03"/>
<polygon fill="#00876c" stroke="#00876c" points="3472.06,-2648.38 3462.06,-2644.88 3467.69,-2653.85 3472.06,-2648.38"/>
</g>
<!-- 10201&#45;&gt;10202 -->
<g id="edge33" class="edge">
<title>10201&#45;&gt;10202</title>
<path fill="none" stroke="#00876c" d="M3407.02,-2586.09C3326.87,-2455.8 3308.36,-2432.99 3066.86,-2151.67"/>
<polygon fill="#00876c" stroke="#00876c" points="3069.8,-2149.73 3060.63,-2144.42 3064.49,-2154.29 3069.8,-2149.73"/>
</g>
<!-- 10203 -->
<g id="node18" class="node">
<title>10203</title>
<text text-anchor="middle" x="3686.87" y="-3042.71" font-family="Times,serif" font-size="14.00">https://spdx.org/licenses/MulanPSL&#45;2.0.html</text>
</g>
<!-- 10203&#45;&gt;10201 -->
<g id="edge34" class="edge">
<title>10203&#45;&gt;10201</title>
<path fill="none" stroke="#00876c" d="M3679.3,-3030.08C3627.91,-2910.25 3617.95,-2893.68 3451.52,-2653.61"/>
<polygon fill="#00876c" stroke="#00876c" points="3454.45,-2651.71 3445.88,-2645.48 3448.7,-2655.69 3454.45,-2651.71"/>
</g>
<!-- 12238 -->
<g id="node19" class="node">
<title>12238</title>
<text text-anchor="middle" x="2895.92" y="-56.9" font-family="Times,serif" font-size="14.00">ChooseALicense:</text>
<text text-anchor="middle" x="2895.92" y="-40.4" font-family="Times,serif" font-size="14.00">How to apply this license:</text>
<text text-anchor="middle" x="2895.92" y="-23.9" font-family="Times,serif" font-size="14.00">Create a text file (typically named LICENSE or LICENSE.txt) in the root of your</text>
<text text-anchor="middle" x="2895.92" y="-7.4" font-family="Times,serif" font-size="14.00">source code and copy the text of the license into the file.</text>
</g>
<!-- 12340 -->
<g id="node20" class="node">
<title>12340</title>
<ellipse fill="none" stroke="#58a066" cx="2723.57" cy="-660.62" rx="153.44" ry="28.99"/>
<text text-anchor="middle" x="2723.57" y="-663.82" font-family="Times,serif" font-size="14.00" fill="gray">ChooseALicense</text>
<text text-anchor="middle" x="2723.57" y="-647.32" font-family="Times,serif" font-size="14.00" fill="gray">c5c1f6a28e1714f30f64ef94d3aa6e68</text>
</g>
<!-- 12238&#45;&gt;12340 -->
<g id="edge35" class="edge">
<title>12238&#45;&gt;12340</title>
<path fill="none" stroke="#58a066" d="M2888.88,-74.12C2859.76,-226.04 2850.7,-256.87 2736.22,-620.44"/>
<polygon fill="#58a066" stroke="#58a066" points="2732.92,-619.26 2733.25,-629.85 2739.6,-621.36 2732.92,-619.26"/>
</g>
<!-- 12340&#45;&gt;12341 -->
<g id="edge36" class="edge">
<title>12340&#45;&gt;12341</title>
<path fill="none" stroke="#58a066" d="M2695.72,-689.62C2584.49,-805.91 2566.94,-833.6 2369.7,-1169.37"/>
<polygon fill="#58a066" stroke="#58a066" points="2366.92,-1167.19 2364.87,-1177.58 2372.96,-1170.73 2366.92,-1167.19"/>
</g>
<!-- 12342 -->
<g id="node22" class="node">
<title>12342</title>
<polygon fill="none" stroke="#58a066" points="2536.74,-886.32 2536.74,-901.23 2503.21,-911.78 2455.79,-911.78 2422.26,-901.23 2422.26,-886.32 2455.79,-875.78 2503.21,-875.78 2536.74,-886.32"/>
<polygon fill="none" stroke="#58a066" points="2540.74,-883.39 2540.74,-904.17 2503.83,-915.78 2455.17,-915.78 2418.26,-904.17 2418.26,-883.39 2455.17,-871.78 2503.83,-871.78 2540.74,-883.39"/>
<text text-anchor="middle" x="2479.5" y="-888.73" font-family="Times,serif" font-size="14.00">mulanpsl&#45;2</text>
</g>
<!-- 12342&#45;&gt;12341 -->
<g id="edge37" class="edge">
<title>12342&#45;&gt;12341</title>
<path fill="none" stroke="#58a066" stroke-width="2" d="M2466.6,-916.12C2429.93,-980.08 2422.08,-999.99 2362.54,-1168.49"/>
<polygon fill="#58a066" stroke="#58a066" stroke-width="2" points="2359.64,-1176.71 2358.73,-1165.78 2360.02,-1174.13 2362.5,-1167.11 2362.97,-1167.28 2363.44,-1167.45 2360.97,-1174.46 2367.22,-1168.78 2359.64,-1176.71"/>
</g>
<!-- 12343 -->
<g id="node23" class="node">
<title>12343</title>
<polygon fill="none" stroke="black" points="2685.15,-1496.86 2685.15,-1511.77 2643.83,-1522.31 2585.39,-1522.31 2544.07,-1511.77 2544.07,-1496.86 2585.39,-1486.31 2643.83,-1486.31 2685.15,-1496.86"/>
<polygon fill="none" stroke="black" points="2689.15,-1493.75 2689.15,-1514.88 2644.33,-1526.31 2584.89,-1526.31 2540.07,-1514.88 2540.07,-1493.75 2584.89,-1482.31 2644.33,-1482.31 2689.15,-1493.75"/>
<text text-anchor="middle" x="2614.61" y="-1499.26" font-family="Times,serif" font-size="14.00">Mulan PSL v2</text>
</g>
<!-- 12343&#45;&gt;12341 -->
<g id="edge38" class="edge">
<title>12343&#45;&gt;12341</title>
<path fill="none" stroke="#58a066" stroke-dasharray="5,2" d="M2606.38,-1481.99C2543.83,-1312.54 2532.18,-1292.69 2400.52,-1225.97"/>
<polygon fill="#58a066" stroke="#58a066" points="2391.92,-1221.63 2402.88,-1222.12 2395.3,-1223.33 2400.85,-1226.13 2400.85,-1226.13 2400.85,-1226.13 2395.3,-1223.33 2398.82,-1230.15 2391.92,-1221.63"/>
</g>
<!-- 12343&#45;&gt;22252 -->
<g id="edge39" class="edge">
<title>12343&#45;&gt;22252</title>
<path fill="none" stroke="#deb256" stroke-width="2" d="M2618.54,-1526.73C2650.84,-1711.63 2650.85,-1730.54 2582.49,-1843.79"/>
<polygon fill="#deb256" stroke="#deb256" stroke-width="2" points="2578.05,-1851.12 2579.38,-1840.23 2578.95,-1848.66 2582.8,-1842.3 2583.23,-1842.56 2583.66,-1842.82 2579.8,-1849.18 2587.08,-1844.9 2578.05,-1851.12"/>
</g>
<!-- 12343&#45;&gt;51770 -->
<g id="edge40" class="edge">
<title>12343&#45;&gt;51770</title>
<path fill="none" stroke="#379469" stroke-dasharray="5,2" d="M2658.81,-1522.93C2893.75,-1621.94 2922.07,-1635.74 3005.69,-1704.52"/>
<polygon fill="#379469" stroke="#379469" points="3013.3,-1710.8 3002.72,-1707.9 3010.38,-1708.39 3005.59,-1704.43 3005.59,-1704.43 3005.59,-1704.43 3010.38,-1708.39 3008.45,-1700.97 3013.3,-1710.8"/>
</g>
<!-- 12343&#45;&gt;60131 -->
<g id="edge41" class="edge">
<title>12343&#45;&gt;60131</title>
<path fill="none" stroke="#b8bf62" stroke-width="2" d="M2674.45,-1489.55C2945.73,-1422.61 3003.42,-1407.89 3098.45,-1376.92"/>
<polygon fill="#b8bf62" stroke="#b8bf62" stroke-width="2" points="3106.68,-1374.23 3098.58,-1381.62 3104.4,-1375.5 3097.34,-1377.81 3097.18,-1377.34 3097.02,-1376.86 3104.09,-1374.55 3095.78,-1373.06 3106.68,-1374.23"/>
</g>
<!-- 67911 -->
<g id="node73" class="node">
<title>67911</title>
<polygon fill="none" stroke="#00876c" points="2431.96,-1606.74 2431.96,-1621.66 2367.6,-1632.2 2276.58,-1632.2 2212.22,-1621.66 2212.22,-1606.74 2276.58,-1596.2 2367.6,-1596.2 2431.96,-1606.74"/>
<polygon fill="none" stroke="#00876c" points="2435.96,-1603.35 2435.96,-1625.05 2367.93,-1636.2 2276.25,-1636.2 2208.22,-1625.05 2208.22,-1603.35 2276.25,-1592.2 2367.93,-1592.2 2435.96,-1603.35"/>
<text text-anchor="middle" x="2322.09" y="-1609.15" font-family="Times,serif" font-size="14.00">scancode:Mulan PSL v2</text>
</g>
<!-- 12343&#45;&gt;67911 -->
<g id="edge42" class="edge">
<title>12343&#45;&gt;67911</title>
<path fill="none" stroke="#00876c" stroke-width="2" d="M2585.45,-1526.68C2538.05,-1562.08 2513.67,-1572.24 2412.02,-1594.84"/>
<polygon fill="#00876c" stroke="#00876c" stroke-width="2" points="2403.65,-1596.68 2412.45,-1590.13 2406.05,-1595.64 2413.31,-1594.04 2413.42,-1594.53 2413.53,-1595.02 2406.26,-1596.62 2414.39,-1598.92 2403.65,-1596.68"/>
</g>
<!-- 12344 -->
<g id="node24" class="node">
<title>12344</title>
<text text-anchor="middle" x="2770.79" y="-602.72" font-family="Times,serif" font-size="14.00">ChooseALicense:</text>
<text text-anchor="middle" x="2770.79" y="-586.22" font-family="Times,serif" font-size="14.00">A permissive license similar to the &lt;a href=&quot;/licenses/apache&#45;2.0/&quot;&gt;Apache</text>
<text text-anchor="middle" x="2770.79" y="-569.72" font-family="Times,serif" font-size="14.00">License&lt;/a&gt;, but explicitly states that it does not grant trademark rights.</text>
<text text-anchor="middle" x="2770.79" y="-553.22" font-family="Times,serif" font-size="14.00">Mulan Permissive Software License is the first open source license in both</text>
<text text-anchor="middle" x="2770.79" y="-536.72" font-family="Times,serif" font-size="14.00">Chinese and English approved by OSI.</text>
</g>
<!-- 12344&#45;&gt;12340 -->
<g id="edge43" class="edge">
<title>12344&#45;&gt;12340</title>
<path fill="none" stroke="#58a066" d="M2745,-620C2744.77,-620.43 2744.54,-620.85 2744.31,-621.29"/>
<polygon fill="#58a066" stroke="#58a066" points="2741.25,-619.59 2739.66,-630.07 2747.44,-622.87 2741.25,-619.59"/>
</g>
<!-- 12345 -->
<g id="node25" class="node">
<title>12345</title>
<polygon fill="none" stroke="black" points="2902.68,-195.12 2902.68,-217.12 2995.68,-217.12 2995.68,-195.12 2902.68,-195.12"/>
<text text-anchor="start" x="2916.18" y="-200.82" font-family="Times,serif" font-size="14.00">Permissions</text>
<polygon fill="none" stroke="black" points="2997.68,-195.12 2997.68,-217.12 3099.68,-217.12 3099.68,-195.12 2997.68,-195.12"/>
<text text-anchor="start" x="3019.06" y="-200.82" font-family="Times,serif" font-size="14.00">Conditions</text>
<polygon fill="none" stroke="black" points="3101.68,-195.12 3101.68,-217.12 3185.68,-217.12 3185.68,-195.12 3101.68,-195.12"/>
<text text-anchor="start" x="3112.18" y="-200.82" font-family="Times,serif" font-size="14.00">Limitations</text>
<polygon fill="none" stroke="black" points="3187.68,-195.12 3187.68,-217.12 3257.68,-217.12 3257.68,-195.12 3187.68,-195.12"/>
<text text-anchor="start" x="3190.43" y="-200.82" font-family="Times,serif" font-size="14.00">Restrictions</text>
<polygon fill="none" stroke="black" points="2902.68,-105.12 2902.68,-193.12 2995.68,-193.12 2995.68,-105.12 2902.68,-105.12"/>
<text text-anchor="start" x="2905.31" y="-176.82" font-family="Times,serif" font-size="14.00">commercial&#45;use</text>
<text text-anchor="start" x="2911.68" y="-160.32" font-family="Times,serif" font-size="14.00">modifications</text>
<text text-anchor="start" x="2918.06" y="-143.82" font-family="Times,serif" font-size="14.00">distribution</text>
<text text-anchor="start" x="2921.43" y="-127.32" font-family="Times,serif" font-size="14.00">patent&#45;use</text>
<text text-anchor="start" x="2919.18" y="-110.82" font-family="Times,serif" font-size="14.00">private&#45;use</text>
<polygon fill="none" stroke="black" points="2997.68,-105.12 2997.68,-193.12 3099.68,-193.12 3099.68,-105.12 2997.68,-105.12"/>
<text text-anchor="start" x="3000.68" y="-144.07" font-family="Times,serif" font-size="14.00">include&#45;copyright</text>
<polygon fill="none" stroke="black" points="3101.68,-105.12 3101.68,-193.12 3185.68,-193.12 3185.68,-105.12 3101.68,-105.12"/>
<text text-anchor="start" x="3122.68" y="-160.57" font-family="Times,serif" font-size="14.00">liability</text>
<text text-anchor="start" x="3104.68" y="-144.07" font-family="Times,serif" font-size="14.00">trademark&#45;use</text>
<text text-anchor="start" x="3119.68" y="-127.57" font-family="Times,serif" font-size="14.00">warranty</text>
<polygon fill="none" stroke="black" points="3187.68,-105.12 3187.68,-193.12 3257.68,-193.12 3257.68,-105.12 3187.68,-105.12"/>
<polygon fill="none" stroke="black" points="2899.68,-102.12 2899.68,-220.12 3260.68,-220.12 3260.68,-102.12 2899.68,-102.12"/>
</g>
<!-- 12345&#45;&gt;12340 -->
<g id="edge44" class="edge">
<title>12345&#45;&gt;12340</title>
<path fill="none" stroke="#58a066" d="M3026.16,-224.12C2954.87,-308.71 2921.03,-359.28 2748.85,-622.02"/>
<polygon fill="#58a066" stroke="#58a066" points="2746.05,-619.91 2743.5,-630.19 2751.91,-623.75 2746.05,-619.91"/>
</g>
<!-- 22251&#45;&gt;22252 -->
<g id="edge45" class="edge">
<title>22251&#45;&gt;22252</title>
<path fill="none" stroke="#deb256" d="M2792.26,-2497.28C2748.42,-2326.24 2738.9,-2301.47 2576.75,-1908.33"/>
<polygon fill="#deb256" stroke="#deb256" points="2580.03,-1907.1 2572.98,-1899.19 2573.56,-1909.77 2580.03,-1907.1"/>
</g>
<!-- 22252&#45;&gt;3323 -->
<g id="edge46" class="edge">
<title>22252&#45;&gt;3323</title>
<path fill="none" stroke="#00876c" stroke-width="2" d="M2534.9,-1853.01C2454.73,-1796.09 2225.14,-1646.68 2118.61,-1581.68"/>
<polygon fill="#00876c" stroke="#00876c" stroke-width="2" points="2111.39,-1577.29 2122.28,-1578.64 2113.84,-1578.2 2120.2,-1582.06 2119.94,-1582.48 2119.68,-1582.91 2113.32,-1579.05 2117.6,-1586.33 2111.39,-1577.29"/>
</g>
<!-- 22252&#45;&gt;51763 -->
<g id="edge47" class="edge">
<title>22252&#45;&gt;51763</title>
<path fill="none" stroke="#379469" stroke-dasharray="5,2" d="M2572.81,-1897.89C2572.86,-1898.01 2572.91,-1898.13 2572.96,-1898.24"/>
<polygon fill="#379469" stroke="#379469" points="2576.1,-1906.16 2568.23,-1898.52 2574.71,-1902.64 2572.41,-1896.86 2572.41,-1896.86 2572.41,-1896.86 2574.71,-1902.64 2576.59,-1895.2 2576.1,-1906.16"/>
</g>
<!-- 22252&#45;&gt;60131 -->
<g id="edge48" class="edge">
<title>22252&#45;&gt;60131</title>
<path fill="none" stroke="#b8bf62" stroke-width="2" d="M2606.83,-1853.08C3012.32,-1645.02 3033.02,-1628.37 3159.5,-1383.47"/>
<polygon fill="#b8bf62" stroke="#b8bf62" stroke-width="2" points="3163.51,-1375.7 3162.93,-1386.65 3162.78,-1378.2 3159.37,-1384.81 3158.93,-1384.58 3158.49,-1384.35 3161.89,-1377.74 3154.93,-1382.52 3163.51,-1375.7"/>
</g>
<!-- 22253 -->
<g id="node28" class="node">
<title>22253</title>
<text text-anchor="middle" x="2808.01" y="-3037.8" font-family="Times,serif" font-size="14.00">https://license.coscl.org.cn/MulanPSL2/</text>
</g>
<!-- 22253&#45;&gt;22251 -->
<g id="edge49" class="edge">
<title>22253&#45;&gt;22251</title>
<path fill="none" stroke="#deb256" d="M2811.66,-3025.03C2839.97,-2886.41 2839.74,-2868.77 2804.48,-2567.03"/>
<polygon fill="#deb256" stroke="#deb256" points="2807.97,-2566.74 2803.34,-2557.21 2801.02,-2567.55 2807.97,-2566.74"/>
</g>
<!-- 22254 -->
<g id="node29" class="node">
<title>22254</title>
<text text-anchor="middle" x="2887.79" y="-2899.6" font-family="Times,serif" font-size="14.00">$TEXT</text>
</g>
<!-- 22254&#45;&gt;22251 -->
<g id="edge50" class="edge">
<title>22254&#45;&gt;22251</title>
<path fill="none" stroke="#deb256" d="M2885.91,-2886.9C2875.72,-2791.64 2871.78,-2774.63 2811.42,-2566.74"/>
<polygon fill="#deb256" stroke="#deb256" points="2814.79,-2565.81 2808.64,-2557.18 2808.07,-2567.76 2814.79,-2565.81"/>
</g>
<!-- 35099 -->
<g id="node30" class="node">
<title>35099</title>
<text text-anchor="middle" x="4138.52" y="-1811.26" font-family="Times,serif" font-size="14.00">Fossology:</text>
<text text-anchor="middle" x="4138.52" y="-1794.76" font-family="Times,serif" font-size="14.00">Both the Chinese and English translations of this license have been included in</text>
<text text-anchor="middle" x="4138.52" y="-1778.26" font-family="Times,serif" font-size="14.00">the markup, because current examples of use appear to include both translations</text>
<text text-anchor="middle" x="4138.52" y="-1761.76" font-family="Times,serif" font-size="14.00">in license documents.</text>
</g>
<!-- 35101 -->
<g id="node31" class="node">
<title>35101</title>
<ellipse fill="none" stroke="#e18745" cx="4022.73" cy="-1714.43" rx="161.4" ry="28.99"/>
<text text-anchor="middle" x="4022.73" y="-1717.63" font-family="Times,serif" font-size="14.00" fill="gray">Fossology</text>
<text text-anchor="middle" x="4022.73" y="-1701.13" font-family="Times,serif" font-size="14.00" fill="gray">5920b05062fcebd0b0d6067763848228</text>
</g>
<!-- 35099&#45;&gt;35101 -->
<g id="edge51" class="edge">
<title>35099&#45;&gt;35101</title>
<path fill="none" stroke="#e18745" d="M4099.96,-1754.67C4096.47,-1752.41 4092.59,-1750.07 4088.11,-1747.56"/>
<polygon fill="#e18745" stroke="#e18745" points="4089.83,-1744.51 4079.37,-1742.81 4086.49,-1750.66 4089.83,-1744.51"/>
</g>
<!-- 35101&#45;&gt;35102 -->
<g id="edge52" class="edge">
<title>35101&#45;&gt;35102</title>
<path fill="none" stroke="#e18745" d="M3861.13,-1714.97C3786.22,-1713.6 3701.72,-1708.76 3504,-1696.23"/>
<polygon fill="#e18745" stroke="#e18745" points="3504.38,-1692.75 3494.18,-1695.61 3503.93,-1699.73 3504.38,-1692.75"/>
</g>
<!-- 35103 -->
<g id="node33" class="node">
<title>35103</title>
<text text-anchor="middle" x="4519.27" y="-1624.26" font-family="Times,serif" font-size="14.00">https://license.coscl.org.cn/MulanPSL2/</text>
</g>
<!-- 35103&#45;&gt;35101 -->
<g id="edge53" class="edge">
<title>35103&#45;&gt;35101</title>
<path fill="none" stroke="#e18745" d="M4465.34,-1647.24C4385.05,-1673.18 4342.48,-1681.07 4175.02,-1698.79"/>
<polygon fill="#e18745" stroke="#e18745" points="4174.89,-1695.28 4165.31,-1699.81 4175.62,-1702.24 4174.89,-1695.28"/>
</g>
<!-- 35104 -->
<g id="node34" class="node">
<title>35104</title>
<text text-anchor="middle" x="4409.93" y="-1769.77" font-family="Times,serif" font-size="14.00">$TEXT</text>
</g>
<!-- 35104&#45;&gt;35101 -->
<g id="edge54" class="edge">
<title>35104&#45;&gt;35101</title>
<path fill="none" stroke="#e18745" d="M4381.55,-1769.55C4312.6,-1756.8 4283.73,-1752 4160.88,-1734.26"/>
<polygon fill="#e18745" stroke="#e18745" points="4161.39,-1730.8 4151,-1732.83 4160.39,-1737.73 4161.39,-1730.8"/>
</g>
<!-- 35432 -->
<g id="node35" class="node">
<title>35432</title>
<text text-anchor="middle" x="1599.95" y="-340.11" font-family="Times,serif" font-size="14.00">LicenseTag (ScopedLicenseTag &quot;OrtLicenseCategorization&quot; &quot;permissive&quot; NoLicenseTagText)</text>
</g>
<!-- 39729 -->
<g id="node37" class="node">
<title>39729</title>
<ellipse fill="none" stroke="#d43d51" cx="1750.84" cy="-1006.29" rx="160.34" ry="28.99"/>
<text text-anchor="middle" x="1750.84" y="-1009.49" font-family="Times,serif" font-size="14.00" fill="gray">OrtLicenseCategorization</text>
<text text-anchor="middle" x="1750.84" y="-992.99" font-family="Times,serif" font-size="14.00" fill="gray">ed17e9b53b1cc847cb08e539e7016727</text>
</g>
<!-- 35432&#45;&gt;39729 -->
<g id="edge55" class="edge">
<title>35432&#45;&gt;39729</title>
<path fill="none" stroke="#d43d51" d="M1599.48,-362.89C1594.33,-560.93 1598.07,-578.26 1736.54,-966.24"/>
<polygon fill="#d43d51" stroke="#d43d51" points="1733.19,-967.27 1739.85,-975.52 1739.78,-964.92 1733.19,-967.27"/>
</g>
<!-- 35433 -->
<g id="node36" class="node">
<title>35433</title>
<text text-anchor="middle" x="1372.91" y="-386.06" font-family="Times,serif" font-size="14.00">LicenseTag (ScopedLicenseTag &quot;OrtLicenseCategorization&quot; &quot;include&#45;in&#45;notice&#45;file&quot; NoLicenseTagText)</text>
</g>
<!-- 35433&#45;&gt;39729 -->
<g id="edge56" class="edge">
<title>35433&#45;&gt;39729</title>
<path fill="none" stroke="#d43d51" d="M1381.15,-409.07C1462.42,-586.1 1473.06,-603.46 1724.46,-968.04"/>
<polygon fill="#d43d51" stroke="#d43d51" points="1721.4,-969.78 1729.96,-976.02 1727.16,-965.8 1721.4,-969.78"/>
</g>
<!-- 39729&#45;&gt;3323 -->
<g id="edge57" class="edge">
<title>39729&#45;&gt;3323</title>
<path fill="none" stroke="#d43d51" d="M1757.89,-1035.63C1799.25,-1206.61 1812.33,-1227.9 2035.79,-1515.68"/>
<polygon fill="#d43d51" stroke="#d43d51" points="2032.98,-1517.76 2041.88,-1523.51 2038.51,-1513.47 2032.98,-1517.76"/>
</g>
<!-- 41988 -->
<g id="node38" class="node">
<title>41988</title>
<ellipse fill="none" stroke="#379469" cx="3661.7" cy="-1964.12" rx="158.75" ry="28.99"/>
<text text-anchor="middle" x="3661.7" y="-1967.32" font-family="Times,serif" font-size="14.00" fill="gray">CavilLicenseChange</text>
<text text-anchor="middle" x="3661.7" y="-1950.82" font-family="Times,serif" font-size="14.00" fill="gray">b3f32577621ae5955481d4ccbd9cdea8</text>
</g>
<!-- 41988&#45;&gt;41989 -->
<g id="edge58" class="edge">
<title>41988&#45;&gt;41989</title>
<path fill="none" stroke="#379469" d="M3581.59,-1938.66C3514.68,-1917.38 3461.43,-1900.37 3275.01,-1840.77"/>
<polygon fill="#379469" stroke="#379469" points="3276.33,-1837.51 3265.74,-1837.8 3274.2,-1844.18 3276.33,-1837.51"/>
</g>
<!-- 51762 -->
<g id="node40" class="node">
<title>51762</title>
<ellipse fill="none" stroke="#379469" cx="2982.27" cy="-2442.91" rx="161.4" ry="28.99"/>
<text text-anchor="middle" x="2982.27" y="-2446.11" font-family="Times,serif" font-size="14.00" fill="gray">MetaeffektLicense</text>
<text text-anchor="middle" x="2982.27" y="-2429.61" font-family="Times,serif" font-size="14.00" fill="gray">512c86013d7a6cbcd86053045a79b535</text>
</g>
<!-- 51762&#45;&gt;51763 -->
<g id="edge59" class="edge">
<title>51762&#45;&gt;51763</title>
<path fill="none" stroke="#379469" d="M2958.3,-2414C2859.38,-2294.65 2839.8,-2269.22 2605.44,-1960.78"/>
<polygon fill="#379469" stroke="#379469" points="2608.55,-1959.09 2599.71,-1953.24 2602.98,-1963.32 2608.55,-1959.09"/>
</g>
<!-- 51764 -->
<g id="node42" class="node">
<title>51764</title>
<polygon fill="none" stroke="black" points="3331.38,-1397.74 3331.38,-1412.65 3229.7,-1423.2 3085.9,-1423.2 2984.22,-1412.65 2984.22,-1397.74 3085.9,-1387.2 3229.7,-1387.2 3331.38,-1397.74"/>
<polygon fill="none" stroke="black" points="3335.38,-1394.13 3335.38,-1416.26 3229.91,-1427.2 3085.7,-1427.2 2980.22,-1416.26 2980.22,-1394.13 3085.7,-1383.2 3229.91,-1383.2 3335.38,-1394.13"/>
<text text-anchor="middle" x="3157.8" y="-1400.15" font-family="Times,serif" font-size="14.00">Mulan Permissive Software License 2.0</text>
</g>
<!-- 51764&#45;&gt;51763 -->
<g id="edge60" class="edge">
<title>51764&#45;&gt;51763</title>
<path fill="none" stroke="#379469" stroke-width="2" d="M3147.65,-1427.41C3026.42,-1692.47 3011.21,-1709.08 2635.29,-1902.31"/>
<polygon fill="#379469" stroke="#379469" stroke-width="2" points="2627.66,-1906.23 2634.5,-1897.66 2629.71,-1904.62 2636.33,-1901.22 2636.55,-1901.66 2636.78,-1902.11 2630.17,-1905.51 2638.61,-1905.66 2627.66,-1906.23"/>
</g>
<!-- 51764&#45;&gt;60131 -->
<g id="edge61" class="edge">
<title>51764&#45;&gt;60131</title>
<path fill="none" stroke="#b8bf62" stroke-width="2" d="M3172.58,-1382.94C3172.64,-1382.82 3172.7,-1382.71 3172.76,-1382.6"/>
<polygon fill="#b8bf62" stroke="#b8bf62" stroke-width="2" points="3175.5,-1375.45 3176.12,-1386.4 3175.05,-1378.02 3172.39,-1384.97 3171.92,-1384.79 3171.46,-1384.61 3174.11,-1377.67 3167.72,-1383.18 3175.5,-1375.45"/>
</g>
<!-- 51765 -->
<g id="node43" class="node">
<title>51765</title>
<polygon fill="none" stroke="#379469" points="3244.27,-2063.42 3244.27,-2078.33 3194.18,-2088.88 3123.36,-2088.88 3073.27,-2078.33 3073.27,-2063.42 3123.36,-2052.88 3194.18,-2052.88 3244.27,-2063.42"/>
<text text-anchor="middle" x="3158.77" y="-2065.83" font-family="Times,serif" font-size="14.00">Mulan Permissive</text>
</g>
<!-- 51765&#45;&gt;51763 -->
<g id="edge62" class="edge">
<title>51765&#45;&gt;51763</title>
<path fill="none" stroke="#379469" stroke-dasharray="5,2" d="M3073.12,-2072.79C2959.73,-2072.87 2905.86,-2055.33 2650.03,-1956.21"/>
<polygon fill="#379469" stroke="#379469" points="2640.81,-1952.63 2651.76,-1952.05 2644.33,-1954 2650.13,-1956.24 2650.13,-1956.24 2650.13,-1956.24 2644.33,-1954 2648.5,-1960.44 2640.81,-1952.63"/>
</g>
<!-- 51765&#45;&gt;51770 -->
<g id="edge63" class="edge">
<title>51765&#45;&gt;51770</title>
<path fill="none" stroke="#379469" stroke-dasharray="5,2" d="M3159.33,-2052.51C3162.67,-1936.96 3157.82,-1923.26 3053.61,-1757.37"/>
<polygon fill="#379469" stroke="#379469" points="3048.57,-1749.35 3057.7,-1755.42 3050.58,-1752.55 3053.89,-1757.82 3053.89,-1757.82 3053.89,-1757.82 3050.58,-1752.55 3050.08,-1760.21 3048.57,-1749.35"/>
</g>
<!-- 51766 -->
<g id="node44" class="node">
<title>51766</title>
<polygon fill="none" stroke="#379469" points="2703.68,-2651.54 2703.68,-2668.03 2559.65,-2679.69 2355.96,-2679.69 2211.93,-2668.03 2211.93,-2651.54 2355.96,-2639.89 2559.65,-2639.89 2703.68,-2651.54"/>
<text text-anchor="middle" x="2457.81" y="-2655.49" font-family="Times,serif" font-size="14.00">木兰宽松许可证, 第2版 木兰宽松许可证， 第2版</text>
</g>
<!-- 51766&#45;&gt;51763 -->
<g id="edge64" class="edge">
<title>51766&#45;&gt;51763</title>
<path fill="none" stroke="#379469" stroke-dasharray="5,2" d="M2466.89,-2639.61C2555.69,-2442.09 2558.43,-2422.85 2580.27,-1963.06"/>
<polygon fill="#379469" stroke="#379469" points="2580.74,-1953.34 2584.76,-1963.54 2580.56,-1957.12 2580.26,-1963.33 2580.26,-1963.33 2580.26,-1963.33 2580.56,-1957.12 2575.77,-1963.11 2580.74,-1953.34"/>
</g>
<!-- 51767 -->
<g id="node45" class="node">
<title>51767</title>
<polygon fill="none" stroke="#379469" points="2613.52,-2426.2 2613.52,-2441.12 2569.61,-2451.66 2507.5,-2451.66 2463.58,-2441.12 2463.58,-2426.2 2507.5,-2415.66 2569.61,-2415.66 2613.52,-2426.2"/>
<text text-anchor="middle" x="2538.55" y="-2428.61" font-family="Times,serif" font-size="14.00">osi:MulanPSL2</text>
</g>
<!-- 51767&#45;&gt;51763 -->
<g id="edge65" class="edge">
<title>51767&#45;&gt;51763</title>
<path fill="none" stroke="#379469" stroke-dasharray="5,2" d="M2545.13,-2415.5C2593.83,-2280.71 2595.01,-2263.65 2583.17,-1962.97"/>
<polygon fill="#379469" stroke="#379469" points="2582.79,-1953.37 2587.68,-1963.19 2582.94,-1957.15 2583.18,-1963.37 2583.18,-1963.37 2583.18,-1963.37 2582.94,-1957.15 2578.69,-1963.54 2582.79,-1953.37"/>
</g>
<!-- 60130 -->
<g id="node47" class="node">
<title>60130</title>
<ellipse fill="none" stroke="#b8bf62" cx="3822.92" cy="-1067.86" rx="160.87" ry="28.99"/>
<text text-anchor="middle" x="3822.92" y="-1071.06" font-family="Times,serif" font-size="14.00" fill="gray">FossLicense</text>
<text text-anchor="middle" x="3822.92" y="-1054.56" font-family="Times,serif" font-size="14.00" fill="gray">65b8697deb01e9a95511527b7243a8ac</text>
</g>
<!-- 60130&#45;&gt;60131 -->
<g id="edge66" class="edge">
<title>60130&#45;&gt;60131</title>
<path fill="none" stroke="#b8bf62" d="M3772.84,-1095.7C3639.52,-1169.38 3595.87,-1187.62 3244.25,-1324.58"/>
<polygon fill="#b8bf62" stroke="#b8bf62" points="3243.22,-1321.22 3235.17,-1328.11 3245.76,-1327.75 3243.22,-1321.22"/>
</g>
<!-- 60132 -->
<g id="node49" class="node">
<title>60132</title>
<polygon fill="none" stroke="#b8bf62" points="3764.08,-923.16 3764.08,-938.07 3699.72,-948.61 3608.7,-948.61 3544.33,-938.07 3544.33,-923.16 3608.7,-912.61 3699.72,-912.61 3764.08,-923.16"/>
<polygon fill="none" stroke="#b8bf62" points="3768.08,-919.76 3768.08,-941.47 3700.04,-952.61 3608.37,-952.61 3540.33,-941.47 3540.33,-919.76 3608.37,-908.61 3700.04,-908.61 3768.08,-919.76"/>
<text text-anchor="middle" x="3654.21" y="-925.56" font-family="Times,serif" font-size="14.00">scancode://mulanpsl&#45;2.0</text>
</g>
<!-- 60132&#45;&gt;60131 -->
<g id="edge67" class="edge">
<title>60132&#45;&gt;60131</title>
<path fill="none" stroke="#b8bf62" stroke-width="2" d="M3638.19,-953.09C3538.59,-1092.56 3519.74,-1108.7 3216.83,-1322.41"/>
<polygon fill="#b8bf62" stroke="#b8bf62" stroke-width="2" points="3209.78,-1327.39 3215.36,-1317.95 3211.59,-1325.5 3217.66,-1321.21 3217.95,-1321.62 3218.24,-1322.03 3212.16,-1326.32 3220.55,-1325.3 3209.78,-1327.39"/>
</g>
<!-- 60133 -->
<g id="node50" class="node">
<title>60133</title>
<polygon fill="none" stroke="black" points="3273.91,-1289.4 3273.91,-1304.31 3068.06,-1314.86 2776.94,-1314.86 2571.1,-1304.31 2571.1,-1289.4 2776.94,-1278.86 3068.06,-1278.86 3273.91,-1289.4"/>
<polygon fill="none" stroke="black" points="3277.91,-1285.6 3277.91,-1308.11 3068.16,-1318.86 2776.84,-1318.86 2567.1,-1308.11 2567.1,-1285.6 2776.84,-1274.86 3068.16,-1274.86 3277.91,-1285.6"/>
<text text-anchor="middle" x="2922.5" y="-1291.81" font-family="Times,serif" font-size="14.00">License :: OSI Approved :: Mulan Permissive Software License v2 (MulanPSL&#45;2.0)</text>
</g>
<!-- 60133&#45;&gt;60131 -->
<g id="edge68" class="edge">
<title>60133&#45;&gt;60131</title>
<path fill="none" stroke="#b8bf62" stroke-width="2" d="M3103.49,-1317.51C3110.12,-1319.47 3116.38,-1321.71 3122.7,-1324.3"/>
<polygon fill="#b8bf62" stroke="#b8bf62" stroke-width="2" points="3130.49,-1327.7 3119.52,-1327.82 3127.94,-1327.13 3121.12,-1324.16 3121.32,-1323.7 3121.52,-1323.24 3128.34,-1326.21 3123.12,-1319.57 3130.49,-1327.7"/>
</g>
<!-- 67899 -->
<g id="node61" class="node">
<title>67899</title>
<polygon fill="none" stroke="#00876c" points="2388.27,-1484.93 2388.27,-1499.84 2170.41,-1510.38 1862.32,-1510.38 1644.46,-1499.84 1644.46,-1484.93 1862.32,-1474.38 2170.41,-1474.38 2388.27,-1484.93"/>
<polygon fill="none" stroke="#00876c" points="2392.27,-1481.12 2392.27,-1503.65 2170.51,-1514.38 1862.22,-1514.38 1640.46,-1503.65 1640.46,-1481.12 1862.22,-1470.38 2170.51,-1470.38 2392.27,-1481.12"/>
<text text-anchor="middle" x="2016.36" y="-1487.33" font-family="Times,serif" font-size="14.00">pypi:License :: OSI Approved :: Mulan Permissive Software License v2 (MulanPSL&#45;2.0)</text>
</g>
<!-- 60133&#45;&gt;67899 -->
<g id="edge69" class="edge">
<title>60133&#45;&gt;67899</title>
<path fill="none" stroke="#00876c" stroke-width="2" d="M2566.74,-1301.99C2463.57,-1324.93 2331.1,-1373.62 2086.17,-1466.02"/>
<polygon fill="#00876c" stroke="#00876c" stroke-width="2" points="2078.2,-1469.03 2085.97,-1461.29 2080.43,-1467.66 2087.38,-1465.03 2087.56,-1465.5 2087.74,-1465.97 2080.78,-1468.59 2089.15,-1469.71 2078.2,-1469.03"/>
</g>
<!-- 60134 -->
<g id="node51" class="node">
<title>60134</title>
<polygon fill="none" stroke="black" points="3003.63,-2059.23 3003.63,-2074.14 2838.34,-2084.68 2604.59,-2084.68 2439.31,-2074.14 2439.31,-2059.23 2604.59,-2048.68 2838.34,-2048.68 3003.63,-2059.23"/>
<polygon fill="none" stroke="black" points="3007.63,-2055.47 3007.63,-2077.89 2838.47,-2088.68 2604.47,-2088.68 2435.31,-2077.89 2435.31,-2055.47 2604.47,-2044.68 2838.47,-2044.68 3007.63,-2055.47"/>
<text text-anchor="middle" x="2721.47" y="-2061.63" font-family="Times,serif" font-size="14.00">License :: OSI Approved :: Mulan Permissive Software License v2</text>
</g>
<!-- 60134&#45;&gt;60131 -->
<g id="edge70" class="edge">
<title>60134&#45;&gt;60131</title>
<path fill="none" stroke="#b8bf62" stroke-width="2" d="M2749.39,-2044.36C3101.65,-1762.63 3113.34,-1745.37 3170.88,-1384.47"/>
<polygon fill="#b8bf62" stroke="#b8bf62" stroke-width="2" points="3172.26,-1375.83 3175.13,-1386.41 3172.35,-1378.44 3171.18,-1385.78 3170.69,-1385.7 3170.19,-1385.63 3171.36,-1378.28 3166.24,-1385 3172.26,-1375.83"/>
</g>
<!-- 67898 -->
<g id="node60" class="node">
<title>67898</title>
<polygon fill="none" stroke="#00876c" points="2286.28,-2190.27 2286.28,-2205.18 2108.99,-2215.72 1858.26,-2215.72 1680.97,-2205.18 1680.97,-2190.27 1858.26,-2179.72 2108.99,-2179.72 2286.28,-2190.27"/>
<polygon fill="none" stroke="#00876c" points="2290.28,-2186.5 2290.28,-2208.95 2109.11,-2219.72 1858.14,-2219.72 1676.97,-2208.95 1676.97,-2186.5 1858.14,-2175.72 2109.11,-2175.72 2290.28,-2186.5"/>
<text text-anchor="middle" x="1983.62" y="-2192.67" font-family="Times,serif" font-size="14.00">pypi:License :: OSI Approved :: Mulan Permissive Software License v2</text>
</g>
<!-- 60134&#45;&gt;67898 -->
<g id="edge71" class="edge">
<title>60134&#45;&gt;67898</title>
<path fill="none" stroke="#00876c" stroke-width="2" d="M2683.79,-2089.17C2397.93,-2259.52 2354.68,-2276.87 2096.51,-2222.47"/>
<polygon fill="#00876c" stroke="#00876c" stroke-width="2" points="2088.04,-2220.67 2098.75,-2218.34 2090.65,-2220.71 2097.92,-2222.26 2097.82,-2222.74 2097.72,-2223.23 2090.44,-2221.69 2096.89,-2227.15 2088.04,-2220.67"/>
</g>
<!-- 60135 -->
<g id="node52" class="node">
<title>60135</title>
<polygon fill="none" stroke="black" points="3631.76,-1289.39 3631.76,-1304.3 3531.7,-1314.84 3390.2,-1314.84 3290.14,-1304.3 3290.14,-1289.39 3390.2,-1278.84 3531.7,-1278.84 3631.76,-1289.39"/>
<polygon fill="none" stroke="black" points="3635.76,-1285.79 3635.76,-1307.9 3531.91,-1318.84 3389.99,-1318.84 3286.14,-1307.9 3286.14,-1285.79 3389.99,-1274.84 3531.91,-1274.84 3635.76,-1285.79"/>
<text text-anchor="middle" x="3460.95" y="-1291.79" font-family="Times,serif" font-size="14.00">Mulan Permissive Software License v2</text>
</g>
<!-- 60135&#45;&gt;60131 -->
<g id="edge72" class="edge">
<title>60135&#45;&gt;60131</title>
<path fill="none" stroke="#b8bf62" stroke-width="2" d="M3357.32,-1315.79C3341.62,-1318.79 3323.07,-1322.38 3298.89,-1327.09"/>
<polygon fill="#b8bf62" stroke="#b8bf62" stroke-width="2" points="3290.56,-1328.72 3299.51,-1322.39 3292.98,-1327.73 3300.28,-1326.31 3300.37,-1326.8 3300.47,-1327.29 3293.17,-1328.72 3301.23,-1331.22 3290.56,-1328.72"/>
</g>
<!-- 67902 -->
<g id="node64" class="node">
<title>67902</title>
<polygon fill="none" stroke="#00876c" points="2555.04,-1283.96 2555.04,-1298.87 2442.97,-1309.42 2284.49,-1309.42 2172.43,-1298.87 2172.43,-1283.96 2284.49,-1273.42 2442.97,-1273.42 2555.04,-1283.96"/>
<polygon fill="none" stroke="#00876c" points="2559.04,-1280.32 2559.04,-1302.52 2443.16,-1313.42 2284.3,-1313.42 2168.43,-1302.52 2168.43,-1280.32 2284.3,-1269.42 2443.16,-1269.42 2559.04,-1280.32"/>
<text text-anchor="middle" x="2363.73" y="-1286.37" font-family="Times,serif" font-size="14.00">pypi:Mulan Permissive Software License v2</text>
</g>
<!-- 60135&#45;&gt;67902 -->
<g id="edge73" class="edge">
<title>60135&#45;&gt;67902</title>
<path fill="none" stroke="#00876c" stroke-width="2" d="M3375.09,-1276C3132.34,-1218.3 3059.97,-1218.84 2525.08,-1274.5"/>
<polygon fill="#00876c" stroke="#00876c" stroke-width="2" points="2516.4,-1275.41 2525.88,-1269.9 2518.89,-1274.64 2526.29,-1273.87 2526.34,-1274.37 2526.39,-1274.87 2519,-1275.64 2526.81,-1278.85 2516.4,-1275.41"/>
</g>
<!-- 67891 -->
<g id="node53" class="node">
<title>67891</title>
<ellipse fill="none" stroke="#00876c" cx="1471.8" cy="-1504.32" rx="160.34" ry="28.99"/>
<text text-anchor="middle" x="1471.8" y="-1507.52" font-family="Times,serif" font-size="14.00" fill="gray">LicenseLynx</text>
<text text-anchor="middle" x="1471.8" y="-1491.02" font-family="Times,serif" font-size="14.00" fill="gray">a97ed98a999079526acebb7cd4469209</text>
</g>
<!-- 67891&#45;&gt;3323 -->
<g id="edge74" class="edge">
<title>67891&#45;&gt;3323</title>
<path fill="none" stroke="#00876c" d="M1606.86,-1520.28C1678.88,-1527.65 1755.06,-1532.6 1950.44,-1544.19"/>
<polygon fill="#00876c" stroke="#00876c" points="1949.95,-1547.67 1960.14,-1544.77 1950.36,-1540.68 1949.95,-1547.67"/>
</g>
<!-- 67892 -->
<g id="node54" class="node">
<title>67892</title>
<polygon fill="none" stroke="#00876c" points="1756.55,-1950.71 1756.55,-1965.62 1619.82,-1976.17 1426.46,-1976.17 1289.73,-1965.62 1289.73,-1950.71 1426.46,-1940.17 1619.82,-1940.17 1756.55,-1950.71"/>
<polygon fill="none" stroke="#00876c" points="1760.55,-1947.01 1760.55,-1969.33 1619.98,-1980.17 1426.31,-1980.17 1285.73,-1969.33 1285.73,-1947.01 1426.31,-1936.17 1619.98,-1936.17 1760.55,-1947.01"/>
<text text-anchor="middle" x="1523.14" y="-1953.12" font-family="Times,serif" font-size="14.00">pypi:License :: Mulan Permissive Software License v2</text>
</g>
<!-- 67892&#45;&gt;3323 -->
<g id="edge75" class="edge">
<title>67892&#45;&gt;3323</title>
<path fill="none" stroke="#00876c" stroke-width="2" d="M1544.62,-1935.87C1663.77,-1812.41 1686.9,-1795.26 2013.39,-1583.14"/>
<polygon fill="#00876c" stroke="#00876c" stroke-width="2" points="2020.6,-1578.46 2014.67,-1587.68 2018.73,-1580.28 2012.49,-1584.33 2012.22,-1583.91 2011.95,-1583.49 2018.18,-1579.44 2009.77,-1580.14 2020.6,-1578.46"/>
</g>
<!-- 67893 -->
<g id="node55" class="node">
<title>67893</title>
<polygon fill="none" stroke="#00876c" points="1191.75,-2417.11 1191.75,-2432.03 1067.03,-2442.57 890.64,-2442.57 765.92,-2432.03 765.92,-2417.11 890.64,-2406.57 1067.03,-2406.57 1191.75,-2417.11"/>
<polygon fill="none" stroke="#00876c" points="1195.75,-2413.44 1195.75,-2435.7 1067.19,-2446.57 890.47,-2446.57 761.92,-2435.7 761.92,-2413.44 890.47,-2402.57 1067.19,-2402.57 1195.75,-2413.44"/>
<text text-anchor="middle" x="978.83" y="-2419.52" font-family="Times,serif" font-size="14.00">License :: Mulan Permissive Software License v2</text>
</g>
<!-- 67893&#45;&gt;67892 -->
<g id="edge76" class="edge">
<title>67893&#45;&gt;67892</title>
<path fill="none" stroke="#00876c" stroke-width="2" d="M1000.22,-2402.09C1125.49,-2270.57 1147.2,-2252.43 1485.69,-1987.48"/>
<polygon fill="#00876c" stroke="#00876c" stroke-width="2" points="1492.59,-1982.08 1487.49,-1991.78 1490.88,-1984.05 1485.02,-1988.63 1484.72,-1988.24 1484.41,-1987.85 1490.26,-1983.26 1481.94,-1984.7 1492.59,-1982.08"/>
</g>
<!-- 67894 -->
<g id="node56" class="node">
<title>67894</title>
<polygon fill="none" stroke="#00876c" points="1605.85,-1742.02 1605.85,-1756.93 1428.56,-1767.48 1177.83,-1767.48 1000.54,-1756.93 1000.54,-1742.02 1177.83,-1731.48 1428.56,-1731.48 1605.85,-1742.02"/>
<polygon fill="none" stroke="#00876c" points="1609.85,-1738.25 1609.85,-1760.7 1428.68,-1771.48 1177.71,-1771.48 996.54,-1760.7 996.54,-1738.25 1177.71,-1727.48 1428.68,-1727.48 1609.85,-1738.25"/>
<text text-anchor="middle" x="1303.19" y="-1744.43" font-family="Times,serif" font-size="14.00">pypi:License :: Mulan Permissive Software License v2 (MulanPSL&#45;2.0)</text>
</g>
<!-- 67894&#45;&gt;3323 -->
<g id="edge77" class="edge">
<title>67894&#45;&gt;3323</title>
<path fill="none" stroke="#00876c" stroke-width="2" d="M1374.93,-1727.02C1525.32,-1680.25 1583.88,-1665.52 1973.71,-1572.24"/>
<polygon fill="#00876c" stroke="#00876c" stroke-width="2" points="1982.08,-1570.24 1973.4,-1576.94 1979.7,-1571.32 1972.47,-1573.05 1972.35,-1572.56 1972.24,-1572.08 1979.47,-1570.35 1971.31,-1568.19 1982.08,-1570.24"/>
</g>
<!-- 67895 -->
<g id="node57" class="node">
<title>67895</title>
<polygon fill="none" stroke="#00876c" points="751.75,-1988.67 751.75,-2003.58 586.46,-2014.13 352.72,-2014.13 187.43,-2003.58 187.43,-1988.67 352.72,-1978.13 586.46,-1978.13 751.75,-1988.67"/>
<polygon fill="none" stroke="#00876c" points="755.75,-1984.92 755.75,-2007.34 586.59,-2018.13 352.59,-2018.13 183.43,-2007.34 183.43,-1984.92 352.59,-1974.13 586.59,-1974.13 755.75,-1984.92"/>
<text text-anchor="middle" x="469.59" y="-1991.08" font-family="Times,serif" font-size="14.00">License :: Mulan Permissive Software License v2 (MulanPSL&#45;2.0)</text>
</g>
<!-- 67895&#45;&gt;67894 -->
<g id="edge78" class="edge">
<title>67895&#45;&gt;67894</title>
<path fill="none" stroke="#00876c" stroke-width="2" d="M536.44,-1973.71C711.62,-1915.14 768.21,-1898.77 1212.25,-1774.85"/>
<polygon fill="#00876c" stroke="#00876c" stroke-width="2" points="1220.47,-1772.56 1212.04,-1779.58 1218.13,-1773.73 1210.97,-1775.73 1210.84,-1775.25 1210.7,-1774.77 1217.86,-1772.77 1209.63,-1770.91 1220.47,-1772.56"/>
</g>
<!-- 67896 -->
<g id="node58" class="node">
<title>67896</title>
<polygon fill="none" stroke="#00876c" points="2030.05,-2059.07 2030.05,-2073.98 1951.41,-2084.53 1840.2,-2084.53 1761.56,-2073.98 1761.56,-2059.07 1840.2,-2048.53 1951.41,-2048.53 2030.05,-2059.07"/>
<polygon fill="none" stroke="#00876c" points="2034.05,-2055.57 2034.05,-2077.48 1951.68,-2088.53 1839.93,-2088.53 1757.56,-2077.48 1757.56,-2055.57 1839.93,-2044.53 1951.68,-2044.53 2034.05,-2055.57"/>
<text text-anchor="middle" x="1895.8" y="-2061.48" font-family="Times,serif" font-size="14.00">pypi:License :: MulanPSL&#45;2.0</text>
</g>
<!-- 67896&#45;&gt;3323 -->
<g id="edge79" class="edge">
<title>67896&#45;&gt;3323</title>
<path fill="none" stroke="#00876c" stroke-width="2" d="M1895.76,-2044.15C1895.67,-1883.26 1901.75,-1865.04 2044.67,-1586.74"/>
<polygon fill="#00876c" stroke="#00876c" stroke-width="2" points="2048.48,-1579.33 2047.92,-1590.28 2047.76,-1581.84 2044.36,-1588.45 2043.91,-1588.22 2043.47,-1587.99 2046.87,-1581.38 2039.91,-1586.17 2048.48,-1579.33"/>
</g>
<!-- 67897 -->
<g id="node59" class="node">
<title>67897</title>
<polygon fill="none" stroke="#00876c" points="1797.54,-2491.66 1797.54,-2506.58 1730.9,-2517.12 1636.67,-2517.12 1570.04,-2506.58 1570.04,-2491.66 1636.67,-2481.12 1730.9,-2481.12 1797.54,-2491.66"/>
<polygon fill="none" stroke="#00876c" points="1801.54,-2488.25 1801.54,-2509.99 1731.22,-2521.12 1636.36,-2521.12 1566.04,-2509.99 1566.04,-2488.25 1636.36,-2477.12 1731.22,-2477.12 1801.54,-2488.25"/>
<text text-anchor="middle" x="1683.79" y="-2494.07" font-family="Times,serif" font-size="14.00">License :: MulanPSL&#45;2.0</text>
</g>
<!-- 67897&#45;&gt;67896 -->
<g id="edge80" class="edge">
<title>67897&#45;&gt;67896</title>
<path fill="none" stroke="#00876c" stroke-width="2" d="M1692.06,-2476.64C1733.15,-2365.22 1742.86,-2346.02 1878.35,-2098.42"/>
<polygon fill="#00876c" stroke="#00876c" stroke-width="2" points="1882.47,-2090.9 1881.61,-2101.83 1881.67,-2093.38 1878.1,-2099.91 1877.67,-2099.67 1877.23,-2099.43 1880.8,-2092.9 1873.72,-2097.51 1882.47,-2090.9"/>
</g>
<!-- 67898&#45;&gt;3323 -->
<g id="edge81" class="edge">
<title>67898&#45;&gt;3323</title>
<path fill="none" stroke="#00876c" stroke-width="2" d="M1979.13,-2175.44C1939.6,-1978.76 1942.25,-1959.57 2052.22,-1587.7"/>
<polygon fill="#00876c" stroke="#00876c" stroke-width="2" points="2054.64,-1579.5 2056.12,-1590.36 2054.39,-1582.1 2052.28,-1589.23 2051.81,-1589.09 2051.33,-1588.94 2053.44,-1581.81 2047.49,-1587.81 2054.64,-1579.5"/>
</g>
<!-- 67899&#45;&gt;3323 -->
<g id="edge82" class="edge">
<title>67899&#45;&gt;3323</title>
<path fill="none" stroke="#00876c" stroke-width="2" d="M2024.35,-1514.86C2024.52,-1515.19 2024.7,-1515.51 2024.88,-1515.82"/>
<polygon fill="#00876c" stroke="#00876c" stroke-width="2" points="2030.14,-1522.75 2020.51,-1517.51 2028.2,-1521.01 2023.69,-1515.09 2024.09,-1514.79 2024.49,-1514.49 2028.99,-1520.41 2027.67,-1512.06 2030.14,-1522.75"/>
</g>
<!-- 67900 -->
<g id="node62" class="node">
<title>67900</title>
<polygon fill="none" stroke="#00876c" points="1820.49,-2005.12 1820.49,-2020.03 1701.29,-2030.57 1532.7,-2030.57 1413.5,-2020.03 1413.5,-2005.12 1532.7,-1994.57 1701.29,-1994.57 1820.49,-2005.12"/>
<polygon fill="none" stroke="#00876c" points="1824.49,-2001.46 1824.49,-2023.69 1701.46,-2034.57 1532.53,-2034.57 1409.5,-2023.69 1409.5,-2001.46 1532.53,-1990.57 1701.46,-1990.57 1824.49,-2001.46"/>
<text text-anchor="middle" x="1616.99" y="-2007.52" font-family="Times,serif" font-size="14.00">pypi:License :: OSI Approved :: MulanPSL&#45;2.0</text>
</g>
<!-- 67900&#45;&gt;3323 -->
<g id="edge83" class="edge">
<title>67900&#45;&gt;3323</title>
<path fill="none" stroke="#00876c" stroke-width="2" d="M1631.08,-1990.45C1722.79,-1846.73 1739.92,-1829.25 2024.02,-1584.52"/>
<polygon fill="#00876c" stroke="#00876c" stroke-width="2" points="2030.66,-1578.8 2026.02,-1588.74 2029.04,-1580.85 2023.41,-1585.71 2023.08,-1585.33 2022.76,-1584.95 2028.39,-1580.1 2020.15,-1581.92 2030.66,-1578.8"/>
</g>
<!-- 67901 -->
<g id="node63" class="node">
<title>67901</title>
<polygon fill="none" stroke="#00876c" points="1423.51,-2528.5 1423.51,-2543.41 1316.31,-2553.95 1164.71,-2553.95 1057.52,-2543.41 1057.52,-2528.5 1164.71,-2517.95 1316.31,-2517.95 1423.51,-2528.5"/>
<polygon fill="none" stroke="#00876c" points="1427.51,-2524.87 1427.51,-2547.04 1316.51,-2557.95 1164.52,-2557.95 1053.52,-2547.04 1053.52,-2524.87 1164.52,-2513.95 1316.51,-2513.95 1427.51,-2524.87"/>
<text text-anchor="middle" x="1240.51" y="-2530.9" font-family="Times,serif" font-size="14.00">License :: OSI Approved :: MulanPSL&#45;2.0</text>
</g>
<!-- 67901&#45;&gt;67900 -->
<g id="edge84" class="edge">
<title>67901&#45;&gt;67900</title>
<path fill="none" stroke="#00876c" stroke-width="2" d="M1251.55,-2513.81C1327.72,-2361.24 1341.23,-2343.09 1591.39,-2043.26"/>
<polygon fill="#00876c" stroke="#00876c" stroke-width="2" points="1596.92,-2036.64 1593.96,-2047.2 1595.66,-2038.92 1590.89,-2044.63 1590.51,-2044.31 1590.13,-2043.99 1594.89,-2038.28 1587.05,-2041.43 1596.92,-2036.64"/>
</g>
<!-- 67902&#45;&gt;3323 -->
<g id="edge85" class="edge">
<title>67902&#45;&gt;3323</title>
<path fill="none" stroke="#00876c" stroke-width="2" d="M2300.24,-1313.92C2168.97,-1361.63 2150.36,-1381.74 2081.67,-1514.71"/>
<polygon fill="#00876c" stroke="#00876c" stroke-width="2" points="2077.75,-1522.31 2078.33,-1511.36 2078.48,-1519.8 2081.89,-1513.19 2082.33,-1513.42 2082.78,-1513.65 2079.37,-1520.26 2086.33,-1515.48 2077.75,-1522.31"/>
</g>
<!-- 67903 -->
<g id="node65" class="node">
<title>67903</title>
<polygon fill="none" stroke="#00876c" points="1678.57,-1850.18 1678.57,-1865.09 1525.95,-1875.63 1310.1,-1875.63 1157.47,-1865.09 1157.47,-1850.18 1310.1,-1839.63 1525.95,-1839.63 1678.57,-1850.18"/>
<polygon fill="none" stroke="#00876c" points="1682.57,-1846.44 1682.57,-1868.82 1526.08,-1879.63 1309.96,-1879.63 1153.47,-1868.82 1153.47,-1846.44 1309.96,-1835.63 1526.08,-1835.63 1682.57,-1846.44"/>
<text text-anchor="middle" x="1418.02" y="-1852.58" font-family="Times,serif" font-size="14.00">pypi:Mulan Permissive Software License v2 (MulanPSL&#45;2.0)</text>
</g>
<!-- 67903&#45;&gt;3323 -->
<g id="edge86" class="edge">
<title>67903&#45;&gt;3323</title>
<path fill="none" stroke="#00876c" stroke-width="2" d="M1454.64,-1835.41C1597.77,-1748.8 1632.34,-1732.8 1997.82,-1578.42"/>
<polygon fill="#00876c" stroke="#00876c" stroke-width="2" points="2005.66,-1575.11 1998.2,-1583.15 2003.49,-1576.57 1996.64,-1579.47 1996.45,-1579 1996.25,-1578.54 2003.1,-1575.65 1994.69,-1574.86 2005.66,-1575.11"/>
</g>
<!-- 67904 -->
<g id="node66" class="node">
<title>67904</title>
<polygon fill="none" stroke="#00876c" points="973.57,-2213.77 973.57,-2228.68 832.94,-2239.23 634.07,-2239.23 493.45,-2228.68 493.45,-2213.77 634.07,-2203.23 832.94,-2203.23 973.57,-2213.77"/>
<polygon fill="none" stroke="#00876c" points="977.57,-2210.06 977.57,-2232.39 833.09,-2243.23 633.92,-2243.23 489.45,-2232.39 489.45,-2210.06 633.92,-2199.23 833.09,-2199.23 977.57,-2210.06"/>
<text text-anchor="middle" x="733.51" y="-2216.18" font-family="Times,serif" font-size="14.00">Mulan Permissive Software License v2 (MulanPSL&#45;2.0)</text>
</g>
<!-- 67904&#45;&gt;67903 -->
<g id="edge87" class="edge">
<title>67904&#45;&gt;67903</title>
<path fill="none" stroke="#00876c" stroke-width="2" d="M769.64,-2198.83C927.29,-2101.25 960.82,-2083.84 1362.71,-1885"/>
<polygon fill="#00876c" stroke="#00876c" stroke-width="2" points="1370.39,-1881.19 1363.42,-1889.66 1368.31,-1882.78 1361.65,-1886.08 1361.43,-1885.63 1361.2,-1885.18 1367.87,-1881.88 1359.43,-1881.6 1370.39,-1881.19"/>
</g>
<!-- 67905 -->
<g id="node67" class="node">
<title>67905</title>
<polygon fill="none" stroke="#00876c" points="2152.59,-859.59 2152.59,-874.5 1999.97,-885.05 1784.12,-885.05 1631.49,-874.5 1631.49,-859.59 1784.12,-849.05 1999.97,-849.05 2152.59,-859.59"/>
<polygon fill="none" stroke="#00876c" points="2156.59,-855.86 2156.59,-878.24 2000.1,-889.05 1783.98,-889.05 1627.49,-878.24 1627.49,-855.86 1783.98,-845.05 2000.1,-845.05 2156.59,-855.86"/>
<text text-anchor="middle" x="1892.04" y="-862" font-family="Times,serif" font-size="14.00">pypi:OSI Approved :: Mulan Permissive Software License v2</text>
</g>
<!-- 67905&#45;&gt;3323 -->
<g id="edge88" class="edge">
<title>67905&#45;&gt;3323</title>
<path fill="none" stroke="#00876c" stroke-width="2" d="M1890.54,-889.29C1876.09,-1105.63 1881.02,-1124.51 2047.56,-1514.43"/>
<polygon fill="#00876c" stroke="#00876c" stroke-width="2" points="2050.94,-1522.36 2042.88,-1514.93 2049.48,-1520.19 2046.55,-1513.36 2047.01,-1513.16 2047.47,-1512.96 2050.39,-1519.8 2051.15,-1511.39 2050.94,-1522.36"/>
</g>
<!-- 67906 -->
<g id="node68" class="node">
<title>67906</title>
<polygon fill="none" stroke="#00876c" points="2044.1,-77.9 2044.1,-92.81 1903.48,-103.36 1704.61,-103.36 1563.99,-92.81 1563.99,-77.9 1704.61,-67.36 1903.48,-67.36 2044.1,-77.9"/>
<polygon fill="none" stroke="#00876c" points="2048.1,-74.19 2048.1,-96.52 1903.63,-107.36 1704.46,-107.36 1559.99,-96.52 1559.99,-74.19 1704.46,-63.36 1903.63,-63.36 2048.1,-74.19"/>
<text text-anchor="middle" x="1804.04" y="-80.31" font-family="Times,serif" font-size="14.00">OSI Approved :: Mulan Permissive Software License v2</text>
</g>
<!-- 67906&#45;&gt;67905 -->
<g id="edge89" class="edge">
<title>67906&#45;&gt;67905</title>
<path fill="none" stroke="#00876c" stroke-width="2" d="M1802.24,-107.82C1784.62,-328.05 1787.36,-348.35 1885.33,-833.79"/>
<polygon fill="#00876c" stroke="#00876c" stroke-width="2" points="1887.03,-842.22 1880.64,-833.31 1886.03,-839.81 1884.56,-832.52 1885.05,-832.42 1885.54,-832.32 1887.01,-839.61 1889.46,-831.53 1887.03,-842.22"/>
</g>
<!-- 67907 -->
<g id="node69" class="node">
<title>67907</title>
<polygon fill="none" stroke="#00876c" points="1567.7,-1558.17 1567.7,-1573.08 1374.5,-1583.62 1101.29,-1583.62 908.1,-1573.08 908.1,-1558.17 1101.29,-1547.62 1374.5,-1547.62 1567.7,-1558.17"/>
<polygon fill="none" stroke="#00876c" points="1571.7,-1554.38 1571.7,-1576.87 1374.61,-1587.62 1101.18,-1587.62 904.1,-1576.87 904.1,-1554.38 1101.18,-1543.62 1374.61,-1543.62 1571.7,-1554.38"/>
<text text-anchor="middle" x="1237.9" y="-1560.57" font-family="Times,serif" font-size="14.00">pypi:OSI Approved :: Mulan Permissive Software License v2 (MulanPSL&#45;2.0)</text>
</g>
<!-- 67907&#45;&gt;3323 -->
<g id="edge90" class="edge">
<title>67907&#45;&gt;3323</title>
<path fill="none" stroke="#00876c" stroke-width="2" d="M1572.02,-1562.06C1656.21,-1560.39 1769.38,-1557.77 1950.49,-1553.51"/>
<polygon fill="#00876c" stroke="#00876c" stroke-width="2" points="1959.24,-1553.3 1949.35,-1558.03 1956.69,-1553.86 1949.25,-1554.04 1949.24,-1553.54 1949.23,-1553.04 1956.66,-1552.86 1949.13,-1549.04 1959.24,-1553.3"/>
</g>
<!-- 67908 -->
<g id="node70" class="node">
<title>67908</title>
<polygon fill="none" stroke="#00876c" points="622.97,-1578.25 622.97,-1593.16 441.78,-1603.71 185.55,-1603.71 4.36,-1593.16 4.36,-1578.25 185.55,-1567.71 441.78,-1567.71 622.97,-1578.25"/>
<polygon fill="none" stroke="#00876c" points="626.97,-1574.48 626.97,-1596.94 441.9,-1607.71 185.43,-1607.71 0.36,-1596.94 0.36,-1574.48 185.43,-1563.71 441.9,-1563.71 626.97,-1574.48"/>
<text text-anchor="middle" x="313.66" y="-1580.66" font-family="Times,serif" font-size="14.00">OSI Approved :: Mulan Permissive Software License v2 (MulanPSL&#45;2.0)</text>
</g>
<!-- 67908&#45;&gt;67907 -->
<g id="edge91" class="edge">
<title>67908&#45;&gt;67907</title>
<path fill="none" stroke="#00876c" stroke-width="2" d="M627.46,-1579.71C693.49,-1578.29 774.17,-1576.45 892.56,-1573.7"/>
<polygon fill="#00876c" stroke="#00876c" stroke-width="2" points="901.32,-1573.49 891.43,-1578.22 898.77,-1574.05 891.33,-1574.23 891.32,-1573.73 891.31,-1573.23 898.75,-1573.05 891.22,-1569.23 901.32,-1573.49"/>
</g>
<!-- 67909 -->
<g id="node71" class="node">
<title>67909</title>
<polygon fill="none" stroke="#00876c" points="2246.24,-1001.75 2246.24,-1016.66 2151.7,-1027.2 2018,-1027.2 1923.46,-1016.66 1923.46,-1001.75 2018,-991.2 2151.7,-991.2 2246.24,-1001.75"/>
<polygon fill="none" stroke="#00876c" points="2250.24,-998.17 2250.24,-1020.24 2151.92,-1031.2 2017.78,-1031.2 1919.46,-1020.24 1919.46,-998.17 2017.78,-987.2 2151.92,-987.2 2250.24,-998.17"/>
<text text-anchor="middle" x="2084.85" y="-1004.15" font-family="Times,serif" font-size="14.00">pypi:OSI Approved :: MulanPSL&#45;2.0</text>
</g>
<!-- 67909&#45;&gt;3323 -->
<g id="edge92" class="edge">
<title>67909&#45;&gt;3323</title>
<path fill="none" stroke="#00876c" stroke-width="2" d="M2074.92,-1031.47C2001.73,-1196.01 2001.22,-1214.71 2056.28,-1513.8"/>
<polygon fill="#00876c" stroke="#00876c" stroke-width="2" points="2057.82,-1522.16 2051.59,-1513.14 2056.87,-1519.73 2055.52,-1512.42 2056.01,-1512.33 2056.5,-1512.23 2057.85,-1519.55 2060.44,-1511.51 2057.82,-1522.16"/>
</g>
<!-- 67910 -->
<g id="node72" class="node">
<title>67910</title>
<polygon fill="none" stroke="#00876c" points="2229.73,-463.5 2229.73,-478.41 2147.2,-488.96 2030.48,-488.96 1947.94,-478.41 1947.94,-463.5 2030.48,-452.96 2147.2,-452.96 2229.73,-463.5"/>
<polygon fill="none" stroke="#00876c" points="2233.73,-459.98 2233.73,-481.93 2147.45,-492.96 2030.22,-492.96 1943.94,-481.93 1943.94,-459.98 2030.22,-448.96 2147.45,-448.96 2233.73,-459.98"/>
<text text-anchor="middle" x="2088.84" y="-465.91" font-family="Times,serif" font-size="14.00">OSI Approved :: MulanPSL&#45;2.0</text>
</g>
<!-- 67910&#45;&gt;67909 -->
<g id="edge93" class="edge">
<title>67910&#45;&gt;67909</title>
<path fill="none" stroke="#00876c" stroke-width="2" d="M2084.53,-493.23C2057.68,-632.86 2057.98,-652.97 2082.32,-975.67"/>
<polygon fill="#00876c" stroke="#00876c" stroke-width="2" points="2082.97,-984.35 2077.73,-974.72 2082.28,-981.84 2081.72,-974.42 2082.22,-974.38 2082.72,-974.34 2083.28,-981.76 2086.71,-974.04 2082.97,-984.35"/>
</g>
<!-- 67911&#45;&gt;3323 -->
<g id="edge94" class="edge">
<title>67911&#45;&gt;3323</title>
<path fill="none" stroke="#00876c" stroke-width="2" d="M2207.73,-1605.46C2162.95,-1600.79 2139.98,-1594.95 2114.73,-1582.04"/>
<polygon fill="#00876c" stroke="#00876c" stroke-width="2" points="2107.04,-1577.89 2117.97,-1578.68 2109.53,-1578.67 2116.07,-1582.2 2115.84,-1582.64 2115.6,-1583.08 2109.05,-1579.55 2113.7,-1586.6 2107.04,-1577.89"/>
</g>
<!-- 67912&#45;&gt;3323 -->
<g id="edge95" class="edge">
<title>67912&#45;&gt;3323</title>
<path fill="none" stroke="#00876c" stroke-width="2" d="M2162.68,-1989.97C2066.68,-1861.41 2062.4,-1842.45 2063.01,-1588.34"/>
<polygon fill="#00876c" stroke="#00876c" stroke-width="2" points="2063.03,-1579.69 2067.51,-1589.7 2063.52,-1582.25 2063.51,-1589.69 2063.01,-1589.69 2062.51,-1589.68 2062.52,-1582.25 2058.51,-1589.67 2063.03,-1579.69"/>
</g>
</g>
</svg>
