<?xml version="1.0" encoding="UTF-8" standalone="no"?>
<!DOCTYPE svg PUBLIC "-//W3C//DTD SVG 1.1//EN"
 "http://www.w3.org/Graphics/SVG/1.1/DTD/svg11.dtd">
<!-- Generated by graphviz version 10.0.1 (0)
 -->
<!-- Pages: 1 -->
<svg width="2871pt" height="2396pt"
 viewBox="0.00 0.00 2871.00 2396.00" xmlns="http://www.w3.org/2000/svg" xmlns:xlink="http://www.w3.org/1999/xlink">
<g id="graph0" class="graph" transform="scale(1 1) rotate(0) translate(4 2392)">
<polygon fill="white" stroke="none" points="-4,4 -4,-2392 2867,-2392 2867,4 -4,4"/>
<!-- 5 -->
<g id="node1" class="node">
<title>5</title>
<text text-anchor="start" x="514.43" y="-1167.44" font-family="Times,serif" font-size="14.00">OSI: </text>
<text text-anchor="start" x="543.68" y="-1167.44" font-family="Times,serif" font-weight="bold" font-size="14.00" fill="#8b0000">Rejected</text>
</g>
<!-- 3336 -->
<g id="node2" class="node">
<title>3336</title>
<ellipse fill="none" stroke="#dac767" cx="855.83" cy="-1018.85" rx="156.09" ry="28.99"/>
<text text-anchor="middle" x="855.83" y="-1022.05" font-family="Times,serif" font-size="14.00" fill="gray">SPDXLicense</text>
<text text-anchor="middle" x="855.83" y="-1005.55" font-family="Times,serif" font-size="14.00" fill="gray">cfd5c8737a7ce0fc87131b83ca184d3e</text>
</g>
<!-- 5&#45;&gt;3336 -->
<g id="edge1" class="edge">
<title>5&#45;&gt;3336</title>
<path fill="none" stroke="#dac767" d="M571.58,-1153.82C627.1,-1097.89 647.12,-1084.76 764.08,-1047.43"/>
<polygon fill="#dac767" stroke="#dac767" points="765.02,-1050.8 773.5,-1044.44 762.91,-1044.13 765.02,-1050.8"/>
</g>
<!-- 3337 -->
<g id="node3" class="node">
<title>3337</title>
<polygon fill="none" stroke="black" points="1345.88,-1090.78 1345.88,-1105.69 1314.94,-1116.23 1271.19,-1116.23 1240.25,-1105.69 1240.25,-1090.78 1271.19,-1080.23 1314.94,-1080.23 1345.88,-1090.78"/>
<polygon fill="none" stroke="black" points="1349.88,-1087.92 1349.88,-1108.55 1315.61,-1120.23 1270.53,-1120.23 1236.25,-1108.55 1236.25,-1087.92 1270.53,-1076.23 1315.61,-1076.23 1349.88,-1087.92"/>
<polygon fill="none" stroke="black" points="1353.88,-1085.05 1353.88,-1111.42 1316.27,-1124.23 1269.87,-1124.23 1232.25,-1111.42 1232.25,-1085.05 1269.87,-1072.23 1316.27,-1072.23 1353.88,-1085.05"/>
<text text-anchor="middle" x="1293.07" y="-1093.18" font-family="Times,serif" font-size="14.00">spdx:Mup</text>
</g>
<!-- 3336&#45;&gt;3337 -->
<g id="edge2" class="edge">
<title>3336&#45;&gt;3337</title>
<path fill="none" stroke="#dac767" d="M995.76,-1032.06C1043.34,-1039.9 1104.12,-1053.73 1222.64,-1081.63"/>
<polygon fill="#dac767" stroke="#dac767" points="1221.52,-1084.96 1232.06,-1083.84 1223.13,-1078.14 1221.52,-1084.96"/>
</g>
<!-- 9016 -->
<g id="node13" class="node">
<title>9016</title>
<polygon fill="none" stroke="#e09d4b" points="1305.96,-952.05 1305.96,-966.96 1269.83,-977.51 1218.74,-977.51 1182.61,-966.96 1182.61,-952.05 1218.74,-941.51 1269.83,-941.51 1305.96,-952.05"/>
<polygon fill="none" stroke="#e09d4b" points="1309.96,-949.05 1309.96,-969.96 1270.41,-981.51 1218.17,-981.51 1178.61,-969.96 1178.61,-949.05 1218.17,-937.51 1270.41,-937.51 1309.96,-949.05"/>
<text text-anchor="middle" x="1244.29" y="-954.46" font-family="Times,serif" font-size="14.00">Fedora:Mup</text>
</g>
<!-- 3337&#45;&gt;9016 -->
<g id="edge3" class="edge">
<title>3337&#45;&gt;9016</title>
<path fill="none" stroke="#e09d4b" stroke-width="2" d="M1280.05,-1072.09C1258.39,-1028.37 1251.2,-1012.07 1247.78,-992.77"/>
<polygon fill="#e09d4b" stroke="#e09d4b" stroke-width="2" points="1246.58,-984.31 1252.44,-993.58 1247.44,-986.78 1248.48,-994.14 1247.98,-994.21 1247.49,-994.28 1246.45,-986.92 1243.53,-994.84 1246.58,-984.31"/>
</g>
<!-- 22309 -->
<g id="node19" class="node">
<title>22309</title>
<polygon fill="none" stroke="black" points="1464.01,-894.39 1464.01,-909.3 1423.33,-919.84 1365.82,-919.84 1325.14,-909.3 1325.14,-894.39 1365.82,-883.84 1423.33,-883.84 1464.01,-894.39"/>
<polygon fill="none" stroke="black" points="1468.01,-891.29 1468.01,-912.4 1423.84,-923.84 1365.31,-923.84 1321.14,-912.4 1321.14,-891.29 1365.31,-879.84 1423.84,-879.84 1468.01,-891.29"/>
<text text-anchor="middle" x="1394.57" y="-896.79" font-family="Times,serif" font-size="14.00">scancode:mup</text>
</g>
<!-- 3337&#45;&gt;22309 -->
<g id="edge4" class="edge">
<title>3337&#45;&gt;22309</title>
<path fill="none" stroke="#deb256" stroke-width="2" d="M1312.2,-1071.94C1333.28,-1036.38 1366.05,-973.06 1383.37,-934.49"/>
<polygon fill="#deb256" stroke="#deb256" stroke-width="2" points="1386.85,-926.55 1386.96,-937.51 1386.28,-929.1 1383.3,-935.91 1382.84,-935.71 1382.38,-935.51 1385.37,-928.7 1378.72,-933.91 1386.85,-926.55"/>
</g>
<!-- 51712 -->
<g id="node33" class="node">
<title>51712</title>
<polygon fill="none" stroke="#379469" points="1751.56,-993.79 1751.56,-1008.7 1686.55,-1019.24 1594.61,-1019.24 1529.6,-1008.7 1529.6,-993.79 1594.61,-983.24 1686.55,-983.24 1751.56,-993.79"/>
<polygon fill="none" stroke="#379469" points="1755.56,-990.38 1755.56,-1012.1 1686.87,-1023.24 1594.29,-1023.24 1525.6,-1012.1 1525.6,-990.38 1594.29,-979.24 1686.87,-979.24 1755.56,-990.38"/>
<text text-anchor="middle" x="1640.58" y="-996.19" font-family="Times,serif" font-size="14.00">metaeffekt:Mup License</text>
</g>
<!-- 3337&#45;&gt;51712 -->
<g id="edge5" class="edge">
<title>3337&#45;&gt;51712</title>
<path fill="none" stroke="#379469" stroke-width="2" d="M1328.68,-1076.15C1423.2,-1017.74 1464.02,-995.21 1514.03,-991.01"/>
<polygon fill="#379469" stroke="#379469" stroke-width="2" points="1522.78,-990.51 1513.05,-995.57 1520.25,-991.16 1512.82,-991.58 1512.79,-991.08 1512.76,-990.58 1520.19,-990.16 1512.54,-986.59 1522.78,-990.51"/>
</g>
<!-- 3338 -->
<g id="node4" class="node">
<title>3338</title>
<polygon fill="none" stroke="black" points="1498.24,-1022.58 1498.24,-1037.49 1479.96,-1048.04 1454.11,-1048.04 1435.83,-1037.49 1435.83,-1022.58 1454.11,-1012.04 1479.96,-1012.04 1498.24,-1022.58"/>
<polygon fill="none" stroke="black" points="1502.24,-1020.27 1502.24,-1039.8 1481.03,-1052.04 1453.04,-1052.04 1431.83,-1039.8 1431.83,-1020.27 1453.04,-1008.04 1481.03,-1008.04 1502.24,-1020.27"/>
<text text-anchor="middle" x="1467.04" y="-1024.99" font-family="Times,serif" font-size="14.00">Mup</text>
</g>
<!-- 3338&#45;&gt;3337 -->
<g id="edge6" class="edge">
<title>3338&#45;&gt;3337</title>
<path fill="none" stroke="black" stroke-width="2" d="M1431.37,-1029.98C1379.63,-1030.49 1363.02,-1035.48 1328.26,-1065.81"/>
<polygon fill="black" stroke="black" stroke-width="2" points="1321.85,-1071.52 1326.33,-1061.51 1323.44,-1069.44 1328.99,-1064.49 1329.32,-1064.87 1329.65,-1065.24 1324.1,-1070.19 1332.31,-1068.23 1321.85,-1071.52"/>
</g>
<!-- 3338&#45;&gt;9016 -->
<g id="edge7" class="edge">
<title>3338&#45;&gt;9016</title>
<path fill="none" stroke="#e09d4b" stroke-width="2" d="M1441.53,-1014.33C1379.01,-975.97 1352.14,-961.1 1320.97,-957.09"/>
<polygon fill="#e09d4b" stroke="#e09d4b" stroke-width="2" points="1312.61,-956.34 1322.97,-952.75 1315.21,-956.07 1322.62,-956.73 1322.57,-957.23 1322.53,-957.73 1315.12,-957.07 1322.17,-961.71 1312.61,-956.34"/>
</g>
<!-- 9982 -->
<g id="node16" class="node">
<title>9982</title>
<polygon fill="none" stroke="#00876c" points="1693.3,-856.43 1693.3,-871.34 1652.63,-881.88 1595.11,-881.88 1554.44,-871.34 1554.44,-856.43 1595.11,-845.88 1652.63,-845.88 1693.3,-856.43"/>
<polygon fill="none" stroke="#00876c" points="1697.3,-853.33 1697.3,-874.43 1653.14,-885.88 1594.6,-885.88 1550.44,-874.43 1550.44,-853.33 1594.6,-841.88 1653.14,-841.88 1697.3,-853.33"/>
<text text-anchor="middle" x="1623.87" y="-858.83" font-family="Times,serif" font-size="14.00">BlueOak:Mup</text>
</g>
<!-- 3338&#45;&gt;9982 -->
<g id="edge8" class="edge">
<title>3338&#45;&gt;9982</title>
<path fill="none" stroke="#00876c" stroke-width="2" d="M1483.46,-1009.06C1540.8,-935.93 1559.37,-913.19 1584.87,-892.44"/>
<polygon fill="#00876c" stroke="#00876c" stroke-width="2" points="1591.53,-887.22 1586.44,-896.93 1589.82,-889.19 1583.97,-893.78 1583.66,-893.39 1583.35,-892.99 1589.2,-888.4 1580.88,-889.85 1591.53,-887.22"/>
</g>
<!-- 3338&#45;&gt;22309 -->
<g id="edge9" class="edge">
<title>3338&#45;&gt;22309</title>
<path fill="none" stroke="black" stroke-width="2" d="M1458.43,-1007.91C1441.87,-965.48 1434.11,-947.21 1423.69,-932.8"/>
<polygon fill="black" stroke="black" stroke-width="2" points="1418.28,-926.05 1428.04,-931.03 1420.27,-927.73 1424.92,-933.54 1424.53,-933.85 1424.14,-934.16 1419.49,-928.36 1421.02,-936.66 1418.28,-926.05"/>
</g>
<!-- 34505 -->
<g id="node24" class="node">
<title>34505</title>
<polygon fill="none" stroke="#e18745" points="1387.92,-1181.68 1387.92,-1196.59 1345.3,-1207.13 1285.03,-1207.13 1242.41,-1196.59 1242.41,-1181.68 1285.03,-1171.13 1345.3,-1171.13 1387.92,-1181.68"/>
<polygon fill="none" stroke="#e18745" points="1391.92,-1178.55 1391.92,-1199.72 1345.79,-1211.13 1284.54,-1211.13 1238.41,-1199.72 1238.41,-1178.55 1284.54,-1167.13 1345.79,-1167.13 1391.92,-1178.55"/>
<text text-anchor="middle" x="1315.16" y="-1184.08" font-family="Times,serif" font-size="14.00">fossology:Mup</text>
</g>
<!-- 3338&#45;&gt;34505 -->
<g id="edge10" class="edge">
<title>3338&#45;&gt;34505</title>
<path fill="none" stroke="#e18745" stroke-width="2" d="M1436.46,-1043.05C1378.71,-1068.39 1367.37,-1081.24 1330.73,-1156.71"/>
<polygon fill="#e18745" stroke="#e18745" stroke-width="2" points="1326.94,-1164.55 1327.24,-1153.58 1327.6,-1162.02 1330.84,-1155.32 1331.29,-1155.54 1331.74,-1155.76 1328.5,-1162.46 1335.34,-1157.5 1326.94,-1164.55"/>
</g>
<!-- 41993 -->
<g id="node30" class="node">
<title>41993</title>
<polygon fill="none" stroke="#379469" points="1771.02,-1069.97 1771.02,-1084.88 1739.75,-1095.42 1695.54,-1095.42 1664.28,-1084.88 1664.28,-1069.97 1695.54,-1059.42 1739.75,-1059.42 1771.02,-1069.97"/>
<polygon fill="none" stroke="#379469" points="1775.02,-1067.09 1775.02,-1087.75 1740.41,-1099.42 1694.89,-1099.42 1660.28,-1087.75 1660.28,-1067.09 1694.89,-1055.42 1740.41,-1055.42 1775.02,-1067.09"/>
<text text-anchor="middle" x="1717.65" y="-1072.37" font-family="Times,serif" font-size="14.00">cavil:Mup</text>
</g>
<!-- 3338&#45;&gt;41993 -->
<g id="edge11" class="edge">
<title>3338&#45;&gt;41993</title>
<path fill="none" stroke="#379469" stroke-width="2" d="M1502.54,-1027.93C1606.27,-1021.99 1630.5,-1023.5 1677.86,-1051.89"/>
<polygon fill="#379469" stroke="#379469" stroke-width="2" points="1685.26,-1056.44 1674.38,-1055.03 1682.81,-1055.52 1676.48,-1051.63 1676.74,-1051.2 1677,-1050.77 1683.33,-1054.67 1679.1,-1047.37 1685.26,-1056.44"/>
</g>
<!-- 3338&#45;&gt;51712 -->
<g id="edge12" class="edge">
<title>3338&#45;&gt;51712</title>
<path fill="none" stroke="#379469" stroke-dasharray="5,2" d="M1498.19,-1017.41C1504.2,-1015 1509.79,-1012.78 1514.99,-1010.76"/>
<polygon fill="#379469" stroke="#379469" points="1524.04,-1007.29 1516.31,-1015.07 1520.51,-1008.65 1514.7,-1010.87 1514.7,-1010.87 1514.7,-1010.87 1520.51,-1008.65 1513.1,-1006.66 1524.04,-1007.29"/>
</g>
<!-- 3339 -->
<g id="node5" class="node">
<title>3339</title>
<polygon fill="none" stroke="black" points="1534.4,-1149.17 1534.4,-1164.08 1496.33,-1174.63 1442.48,-1174.63 1404.4,-1164.08 1404.4,-1149.17 1442.48,-1138.63 1496.33,-1138.63 1534.4,-1149.17"/>
<polygon fill="none" stroke="black" points="1538.4,-1146.13 1538.4,-1167.13 1496.87,-1178.63 1441.93,-1178.63 1400.4,-1167.13 1400.4,-1146.13 1441.93,-1134.63 1496.87,-1134.63 1538.4,-1146.13"/>
<text text-anchor="middle" x="1469.4" y="-1151.58" font-family="Times,serif" font-size="14.00">Mup License</text>
</g>
<!-- 3339&#45;&gt;3337 -->
<g id="edge13" class="edge">
<title>3339&#45;&gt;3337</title>
<path fill="none" stroke="#dac767" stroke-width="2" d="M1432.28,-1136.94C1400.53,-1120.26 1380.99,-1110.69 1364.57,-1105.24"/>
<polygon fill="#dac767" stroke="#dac767" stroke-width="2" points="1356.48,-1102.89 1367.34,-1101.35 1359.08,-1103.13 1366.22,-1105.2 1366.08,-1105.68 1365.94,-1106.16 1358.8,-1104.09 1364.83,-1110 1356.48,-1102.89"/>
</g>
<!-- 3339&#45;&gt;9016 -->
<g id="edge14" class="edge">
<title>3339&#45;&gt;9016</title>
<path fill="none" stroke="#e09d4b" stroke-dasharray="5,2" d="M1448.56,-1134.37C1355.2,-1034.73 1331.57,-1010.77 1288.95,-984.82"/>
<polygon fill="#e09d4b" stroke="#e09d4b" points="1280.58,-979.85 1291.48,-981.09 1283.83,-981.78 1289.18,-984.96 1289.18,-984.96 1289.18,-984.96 1283.83,-981.78 1286.88,-988.83 1280.58,-979.85"/>
</g>
<!-- 3339&#45;&gt;9982 -->
<g id="edge15" class="edge">
<title>3339&#45;&gt;9982</title>
<path fill="none" stroke="#00876c" stroke-width="2" d="M1481.76,-1134.36C1567.86,-979.23 1581.03,-955.1 1608.8,-896.11"/>
<polygon fill="#00876c" stroke="#00876c" stroke-width="2" points="1612.36,-888.52 1612.19,-899.49 1611.72,-891.06 1608.57,-897.79 1608.11,-897.58 1607.66,-897.36 1610.82,-890.63 1604.04,-895.66 1612.36,-888.52"/>
</g>
<!-- 3339&#45;&gt;22309 -->
<g id="edge16" class="edge">
<title>3339&#45;&gt;22309</title>
<path fill="none" stroke="#deb256" stroke-width="2" d="M1464.8,-1134.34C1437.77,-1003.54 1432.01,-978.7 1410.56,-933.95"/>
<polygon fill="#deb256" stroke="#deb256" stroke-width="2" points="1406.8,-926.24 1415.23,-933.26 1408.38,-928.33 1411.64,-935.01 1411.19,-935.23 1410.74,-935.45 1407.48,-928.76 1407.14,-937.2 1406.8,-926.24"/>
</g>
<!-- 3339&#45;&gt;34505 -->
<g id="edge17" class="edge">
<title>3339&#45;&gt;34505</title>
<path fill="none" stroke="#e18745" stroke-width="2" d="M1400.02,-1158.27C1383.53,-1159.26 1372.1,-1160.95 1361.91,-1164.16"/>
<polygon fill="#e18745" stroke="#e18745" stroke-width="2" points="1353.84,-1167.22 1361.59,-1159.47 1356.05,-1165.85 1363.01,-1163.2 1363.18,-1163.67 1363.36,-1164.14 1356.41,-1166.78 1364.78,-1167.88 1353.84,-1167.22"/>
</g>
<!-- 3339&#45;&gt;51712 -->
<g id="edge18" class="edge">
<title>3339&#45;&gt;51712</title>
<path fill="none" stroke="#379469" stroke-width="2" d="M1493.79,-1134.33C1562.32,-1071.65 1583.39,-1052.43 1607.66,-1030.66"/>
<polygon fill="#379469" stroke="#379469" stroke-width="2" points="1613.89,-1025.07 1609.45,-1035.1 1612.32,-1027.15 1606.78,-1032.12 1606.45,-1031.74 1606.11,-1031.37 1611.65,-1026.41 1603.44,-1028.39 1613.89,-1025.07"/>
</g>
<!-- 67916 -->
<g id="node35" class="node">
<title>67916</title>
<polygon fill="none" stroke="#00876c" points="1365.36,-1332.83 1365.36,-1347.74 1314.62,-1358.28 1242.88,-1358.28 1192.15,-1347.74 1192.15,-1332.83 1242.88,-1322.28 1314.62,-1322.28 1365.36,-1332.83"/>
<polygon fill="none" stroke="#00876c" points="1369.36,-1329.57 1369.36,-1350.99 1315.04,-1362.28 1242.47,-1362.28 1188.15,-1350.99 1188.15,-1329.57 1242.47,-1318.28 1315.04,-1318.28 1369.36,-1329.57"/>
<text text-anchor="middle" x="1278.75" y="-1335.23" font-family="Times,serif" font-size="14.00">spdx:Mup License</text>
</g>
<!-- 3339&#45;&gt;67916 -->
<g id="edge19" class="edge">
<title>3339&#45;&gt;67916</title>
<path fill="none" stroke="#00876c" stroke-width="2" d="M1446.19,-1178.89C1360.85,-1260.73 1339.32,-1281.41 1309.49,-1310.38"/>
<polygon fill="#00876c" stroke="#00876c" stroke-width="2" points="1303.43,-1316.27 1307.47,-1306.07 1304.92,-1314.12 1310.26,-1308.94 1310.6,-1309.3 1310.95,-1309.66 1305.62,-1314.84 1313.74,-1312.52 1303.43,-1316.27"/>
</g>
<!-- 77192 -->
<g id="node37" class="node">
<title>77192</title>
<polygon fill="none" stroke="#e09d4b" points="1598.43,-1546.67 1598.43,-1561.58 1539.58,-1572.13 1456.36,-1572.13 1397.52,-1561.58 1397.52,-1546.67 1456.36,-1536.13 1539.58,-1536.13 1598.43,-1546.67"/>
<polygon fill="none" stroke="#e09d4b" points="1602.43,-1543.32 1602.43,-1564.93 1539.94,-1576.13 1456.01,-1576.13 1393.52,-1564.93 1393.52,-1543.32 1456.01,-1532.13 1539.94,-1532.13 1602.43,-1543.32"/>
<text text-anchor="middle" x="1497.97" y="-1549.08" font-family="Times,serif" font-size="14.00">tldr&#45;title:Mup License</text>
</g>
<!-- 3339&#45;&gt;77192 -->
<g id="edge20" class="edge">
<title>3339&#45;&gt;77192</title>
<path fill="none" stroke="#e09d4b" stroke-width="2" d="M1472.55,-1178.92C1504.57,-1405.58 1507.61,-1431.37 1500.69,-1520.81"/>
<polygon fill="#e09d4b" stroke="#e09d4b" stroke-width="2" points="1500.01,-1529.32 1496.32,-1519 1499.72,-1526.73 1500.31,-1519.32 1500.81,-1519.35 1501.3,-1519.39 1500.72,-1526.81 1505.29,-1519.71 1500.01,-1529.32"/>
</g>
<!-- 3340 -->
<g id="node6" class="node">
<title>3340</title>
<text text-anchor="middle" x="475.04" y="-1008.66" font-family="Times,serif" font-size="14.00">$TEXT</text>
</g>
<!-- 3340&#45;&gt;3336 -->
<g id="edge21" class="edge">
<title>3340&#45;&gt;3336</title>
<path fill="none" stroke="#dac767" d="M503.54,-1010.16C568.18,-1002.29 597.39,-1000.92 698.61,-1007.49"/>
<polygon fill="#dac767" stroke="#dac767" points="698.25,-1010.97 708.46,-1008.14 698.71,-1003.98 698.25,-1010.97"/>
</g>
<!-- 3341 -->
<g id="node7" class="node">
<title>3341</title>
<text text-anchor="middle" x="315.1" y="-1014.02" font-family="Times,serif" font-size="14.00">$TEXT</text>
</g>
<!-- 3341&#45;&gt;3340 -->
<g id="edge22" class="edge">
<title>3341&#45;&gt;3340</title>
<path fill="none" stroke="#dac767" d="M343.63,-1014.6C365.15,-1011.76 382.64,-1011.59 435.13,-1012.76"/>
<polygon fill="#dac767" stroke="#dac767" points="434.9,-1016.26 444.98,-1012.99 435.06,-1009.26 434.9,-1016.26"/>
</g>
<!-- 3342 -->
<g id="node8" class="node">
<title>3342</title>
<text text-anchor="middle" x="1159.58" y="-694.85" font-family="Times,serif" font-size="14.00">https://fedoraproject.org/wiki/Licensing/Mup</text>
</g>
<!-- 3342&#45;&gt;3336 -->
<g id="edge23" class="edge">
<title>3342&#45;&gt;3336</title>
<path fill="none" stroke="#dac767" d="M1121.8,-717.87C951.16,-799.41 935.1,-815.67 871.22,-979.18"/>
<polygon fill="#dac767" stroke="#dac767" points="868.06,-977.64 867.69,-988.23 874.58,-980.18 868.06,-977.64"/>
</g>
<!-- 9015 -->
<g id="node12" class="node">
<title>9015</title>
<ellipse fill="none" stroke="#e09d4b" cx="853.06" cy="-738.96" rx="157.68" ry="28.99"/>
<text text-anchor="middle" x="853.06" y="-742.16" font-family="Times,serif" font-size="14.00" fill="gray">FedoraEntry</text>
<text text-anchor="middle" x="853.06" y="-725.66" font-family="Times,serif" font-size="14.00" fill="gray">731b2f06953d26ad93ef4b7f24778e98</text>
</g>
<!-- 3342&#45;&gt;9015 -->
<g id="edge24" class="edge">
<title>3342&#45;&gt;9015</title>
<path fill="none" stroke="#e09d4b" d="M1028.83,-684.27C977.26,-680.79 950.24,-686.46 911.9,-705.85"/>
<polygon fill="#e09d4b" stroke="#e09d4b" points="910.47,-702.64 903.23,-710.37 913.71,-708.85 910.47,-702.64"/>
</g>
<!-- 22308 -->
<g id="node18" class="node">
<title>22308</title>
<ellipse fill="none" stroke="#deb256" cx="1243.22" cy="-592.67" rx="158.75" ry="28.99"/>
<text text-anchor="middle" x="1243.22" y="-595.87" font-family="Times,serif" font-size="14.00" fill="gray">ScancodeData</text>
<text text-anchor="middle" x="1243.22" y="-579.37" font-family="Times,serif" font-size="14.00" fill="gray">dd1280f2c0d9d06fab00047e9eb24323</text>
</g>
<!-- 3342&#45;&gt;22308 -->
<g id="edge25" class="edge">
<title>3342&#45;&gt;22308</title>
<path fill="none" stroke="#deb256" d="M1166.69,-682.06C1177.14,-656.06 1183.85,-640.74 1191.83,-629.7"/>
<polygon fill="#deb256" stroke="#deb256" points="1194.5,-631.97 1198.31,-622.09 1189.17,-627.43 1194.5,-631.97"/>
</g>
<!-- 34504 -->
<g id="node23" class="node">
<title>34504</title>
<ellipse fill="none" stroke="#e18745" cx="993.94" cy="-1111.84" rx="156.62" ry="28.99"/>
<text text-anchor="middle" x="993.94" y="-1115.04" font-family="Times,serif" font-size="14.00" fill="gray">Fossology</text>
<text text-anchor="middle" x="993.94" y="-1098.54" font-family="Times,serif" font-size="14.00" fill="gray">1015fdf8b8dc0724a074ab8ea272b6f1</text>
</g>
<!-- 3342&#45;&gt;34504 -->
<g id="edge26" class="edge">
<title>3342&#45;&gt;34504</title>
<path fill="none" stroke="#e18745" d="M1141.66,-717.63C1015.43,-842.77 1007.76,-859.06 996.12,-1071.22"/>
<polygon fill="#e18745" stroke="#e18745" points="992.64,-1070.78 995.59,-1080.95 999.63,-1071.16 992.64,-1070.78"/>
</g>
<!-- 5550 -->
<g id="node9" class="node">
<title>5550</title>
<text text-anchor="middle" x="1518.75" y="-341.97" font-family="Times,serif" font-size="14.00">LicenseType Permissive</text>
</g>
<!-- 9981 -->
<g id="node15" class="node">
<title>9981</title>
<ellipse fill="none" stroke="#00876c" cx="1813.57" cy="-494.46" rx="155.56" ry="28.99"/>
<text text-anchor="middle" x="1813.57" y="-497.66" font-family="Times,serif" font-size="14.00" fill="gray">BlueOakCouncil</text>
<text text-anchor="middle" x="1813.57" y="-481.16" font-family="Times,serif" font-size="14.00" fill="gray">8ef15b0110e288f41d7ab622c0fcec7b</text>
</g>
<!-- 5550&#45;&gt;9981 -->
<g id="edge27" class="edge">
<title>5550&#45;&gt;9981</title>
<path fill="none" stroke="#00876c" d="M1593.43,-352.51C1677.74,-360.83 1702.43,-377.28 1778.77,-457.51"/>
<polygon fill="#00876c" stroke="#00876c" points="1775.87,-459.53 1785.29,-464.38 1780.95,-454.71 1775.87,-459.53"/>
</g>
<!-- 5550&#45;&gt;22308 -->
<g id="edge28" class="edge">
<title>5550&#45;&gt;22308</title>
<path fill="none" stroke="#deb256" d="M1467.77,-364.94C1381.02,-397 1360.87,-419.07 1269.13,-554.34"/>
<polygon fill="#deb256" stroke="#deb256" points="1266.25,-552.35 1263.54,-562.6 1272.05,-556.28 1266.25,-552.35"/>
</g>
<!-- 6592 -->
<g id="node10" class="node">
<title>6592</title>
<text text-anchor="middle" x="561.74" y="-528.62" font-family="Times,serif" font-size="14.00">[&quot;allowed&quot;]</text>
</g>
<!-- 6592&#45;&gt;9015 -->
<g id="edge29" class="edge">
<title>6592&#45;&gt;9015</title>
<path fill="none" stroke="#e09d4b" d="M588.61,-551.51C647.09,-590.41 669.09,-605.98 804.69,-703.99"/>
<polygon fill="#e09d4b" stroke="#e09d4b" points="802.41,-706.66 812.56,-709.68 806.51,-700.99 802.41,-706.66"/>
</g>
<!-- 6593 -->
<g id="node11" class="node">
<title>6593</title>
<text text-anchor="start" x="178.19" y="-350.37" font-family="Times,serif" font-size="14.00">Fedora: </text>
<text text-anchor="start" x="223.19" y="-350.37" font-family="Times,serif" font-weight="bold" font-size="14.00" fill="#228b22">allowed</text>
<text text-anchor="start" x="14.31" y="-336.37" font-family="Times,serif" font-size="14.00">A license is allowed if Fedora determines that the license is a free software /</text>
<text text-anchor="start" x="9.06" y="-322.37" font-family="Times,serif" font-size="14.00">open source license. At a high level, the inquiry involves determining whether</text>
<text text-anchor="start" x="7.94" y="-308.37" font-family="Times,serif" font-size="14.00">the license provides software freedom, and (equivalently) making sure that the</text>
<text text-anchor="start" x="18.06" y="-294.37" font-family="Times,serif" font-size="14.00">license does not place burdens on users&#39; exercise of its permissions that are</text>
<text text-anchor="start" x="17.69" y="-280.37" font-family="Times,serif" font-size="14.00">inconsistent with evolving community norms and traditions around what is</text>
<text text-anchor="start" x="9.44" y="-266.37" font-family="Times,serif" font-size="14.00">acceptable in a free software / open source license. See below for more on the</text>
<text text-anchor="start" x="129.44" y="-252.37" font-family="Times,serif" font-size="14.00">history of Fedora licensing policy.</text>
</g>
<!-- 6593&#45;&gt;6592 -->
<g id="edge30" class="edge">
<title>6593&#45;&gt;6592</title>
<path fill="none" stroke="#e09d4b" d="M317.3,-366.46C358.77,-393.63 409.02,-428.21 526.58,-509.39"/>
<polygon fill="#e09d4b" stroke="#e09d4b" points="524.44,-512.16 534.66,-514.97 528.42,-506.4 524.44,-512.16"/>
</g>
<!-- 9015&#45;&gt;9016 -->
<g id="edge31" class="edge">
<title>9015&#45;&gt;9016</title>
<path fill="none" stroke="#e09d4b" d="M920,-765.62C988.06,-794.28 1030.08,-820.48 1203.03,-932.72"/>
<polygon fill="#e09d4b" stroke="#e09d4b" points="1200.88,-935.49 1211.17,-938 1204.69,-929.62 1200.88,-935.49"/>
</g>
<!-- 9914 -->
<g id="node14" class="node">
<title>9914</title>
<text text-anchor="start" x="1993.82" y="-34.03" font-family="Times,serif" font-size="14.00">BlueOakCouncil: </text>
<text text-anchor="start" x="2092.07" y="-34.03" font-family="Times,serif" font-weight="bold" font-size="14.00" fill="#228b22">Silver</text>
<text text-anchor="start" x="1848.32" y="-20.03" font-family="Times,serif" font-size="14.00">These licenses use robust language but either fail to address patents explicitly</text>
<text text-anchor="start" x="1857.32" y="-6.03" font-family="Times,serif" font-size="14.00">or require more than simple notice of license terms and copyright notices.</text>
</g>
<!-- 9914&#45;&gt;9981 -->
<g id="edge32" class="edge">
<title>9914&#45;&gt;9981</title>
<path fill="none" stroke="#00876c" d="M2046.97,-50.29C1989.12,-162.73 1977.26,-185.27 1834.41,-455.1"/>
<polygon fill="#00876c" stroke="#00876c" points="1831.35,-453.4 1829.77,-463.88 1837.54,-456.68 1831.35,-453.4"/>
</g>
<!-- 9981&#45;&gt;9982 -->
<g id="edge33" class="edge">
<title>9981&#45;&gt;9982</title>
<path fill="none" stroke="#00876c" d="M1799.42,-523.64C1759.97,-604.83 1747.56,-628.73 1640.86,-831.58"/>
<polygon fill="#00876c" stroke="#00876c" points="1637.8,-829.87 1636.24,-840.35 1644,-833.13 1637.8,-829.87"/>
</g>
<!-- 9983 -->
<g id="node17" class="node">
<title>9983</title>
<text text-anchor="middle" x="2110.21" y="-234.85" font-family="Times,serif" font-size="14.00">https://spdx.org/licenses/Mup.html</text>
</g>
<!-- 9983&#45;&gt;9981 -->
<g id="edge34" class="edge">
<title>9983&#45;&gt;9981</title>
<path fill="none" stroke="#00876c" d="M2079.32,-257.9C2007.79,-300.13 1986.76,-319.15 1849.84,-457.73"/>
<polygon fill="#00876c" stroke="#00876c" points="1847.55,-455.06 1843.01,-464.64 1852.53,-459.98 1847.55,-455.06"/>
</g>
<!-- 22308&#45;&gt;22309 -->
<g id="edge35" class="edge">
<title>22308&#45;&gt;22309</title>
<path fill="none" stroke="#deb256" d="M1262.56,-621.67C1301.05,-680.16 1312.16,-704.77 1380.88,-869.09"/>
<polygon fill="#deb256" stroke="#deb256" points="1377.61,-870.33 1384.69,-878.2 1384.06,-867.63 1377.61,-870.33"/>
</g>
<!-- 22309&#45;&gt;3337 -->
<g id="edge36" class="edge">
<title>22309&#45;&gt;3337</title>
<path fill="none" stroke="#00876c" stroke-width="2" d="M1377.8,-924.19C1357.55,-957.74 1324.42,-1021.38 1306.02,-1061.73"/>
<polygon fill="#00876c" stroke="#00876c" stroke-width="2" points="1302.45,-1069.72 1302.41,-1058.75 1303.03,-1067.18 1306.07,-1060.38 1306.52,-1060.59 1306.98,-1060.79 1303.95,-1067.58 1310.63,-1062.42 1302.45,-1069.72"/>
</g>
<!-- 22309&#45;&gt;51712 -->
<g id="edge37" class="edge">
<title>22309&#45;&gt;51712</title>
<path fill="none" stroke="#379469" stroke-dasharray="5,2" d="M1468.25,-902.67C1529.97,-905.65 1551.81,-918.45 1608.95,-971.47"/>
<polygon fill="#379469" stroke="#379469" points="1615.98,-978.02 1605.6,-974.49 1613.22,-975.44 1608.67,-971.2 1608.67,-971.2 1608.67,-971.2 1613.22,-975.44 1611.74,-967.91 1615.98,-978.02"/>
</g>
<!-- 22310 -->
<g id="node20" class="node">
<title>22310</title>
<text text-anchor="middle" x="1204.01" y="-159.15" font-family="Times,serif" font-size="14.00">http://www.arkkra.com/doc/license.html</text>
</g>
<!-- 22310&#45;&gt;22308 -->
<g id="edge38" class="edge">
<title>22310&#45;&gt;22308</title>
<path fill="none" stroke="#deb256" d="M1203.79,-182.13C1202.52,-290.07 1204.14,-307.69 1237.69,-552.31"/>
<polygon fill="#deb256" stroke="#deb256" points="1234.17,-552.44 1239,-561.87 1241.11,-551.49 1234.17,-552.44"/>
</g>
<!-- 22311 -->
<g id="node21" class="node">
<title>22311</title>
<text text-anchor="middle" x="1194.57" y="-537.84" font-family="Times,serif" font-size="14.00">ScancodeData:</text>
<text text-anchor="middle" x="1194.57" y="-521.34" font-family="Times,serif" font-size="14.00">Per Fedora, this is a BSD derived Free license, but clause 3 makes it GPL&#45;</text>
<text text-anchor="middle" x="1194.57" y="-504.84" font-family="Times,serif" font-size="14.00">incompatible, due to the need to include the reasons for the changes. A</text>
<text text-anchor="middle" x="1194.57" y="-488.34" font-family="Times,serif" font-size="14.00">copy of this license was taken from http://www.arkkra.com/doc/license.html</text>
<text text-anchor="middle" x="1194.57" y="-471.84" font-family="Times,serif" font-size="14.00">on 2013&#45;02&#45;15.</text>
</g>
<!-- 22311&#45;&gt;22308 -->
<g id="edge39" class="edge">
<title>22311&#45;&gt;22308</title>
<path fill="none" stroke="#deb256" d="M1223.93,-555.05C1224.02,-555.21 1224.1,-555.38 1224.19,-555.54"/>
<polygon fill="#deb256" stroke="#deb256" points="1219.89,-554.86 1227.61,-562.12 1226.1,-551.63 1219.89,-554.86"/>
</g>
<!-- 22312 -->
<g id="node22" class="node">
<title>22312</title>
<text text-anchor="middle" x="1096.48" y="-296.77" font-family="Times,serif" font-size="14.00">$TEXT</text>
</g>
<!-- 22312&#45;&gt;22308 -->
<g id="edge40" class="edge">
<title>22312&#45;&gt;22308</title>
<path fill="none" stroke="#deb256" d="M1107.49,-319.67C1145.8,-381.97 1154.36,-399.07 1225.03,-553.02"/>
<polygon fill="#deb256" stroke="#deb256" points="1221.79,-554.35 1229.15,-561.98 1228.16,-551.43 1221.79,-554.35"/>
</g>
<!-- 34504&#45;&gt;34505 -->
<g id="edge41" class="edge">
<title>34504&#45;&gt;34505</title>
<path fill="none" stroke="#e18745" d="M1079.94,-1136.41C1113.87,-1145.18 1154.53,-1154.28 1239.26,-1172.68"/>
<polygon fill="#e18745" stroke="#e18745" points="1238.38,-1176.07 1248.9,-1174.78 1239.87,-1169.23 1238.38,-1176.07"/>
</g>
<!-- 34506 -->
<g id="node25" class="node">
<title>34506</title>
<text text-anchor="middle" x="913.87" y="-1402.95" font-family="Times,serif" font-size="14.00">$TEXT</text>
</g>
<!-- 34506&#45;&gt;34504 -->
<g id="edge42" class="edge">
<title>34506&#45;&gt;34504</title>
<path fill="none" stroke="#e18745" d="M911.26,-1390.36C895,-1279.49 896.96,-1263.69 969.18,-1150.4"/>
<polygon fill="#e18745" stroke="#e18745" points="971.95,-1152.57 974.38,-1142.26 966.05,-1148.8 971.95,-1152.57"/>
</g>
<!-- 35432 -->
<g id="node26" class="node">
<title>35432</title>
<text text-anchor="middle" x="1660.04" y="-1346.28" font-family="Times,serif" font-size="14.00">LicenseTag (ScopedLicenseTag &quot;OrtLicenseCategorization&quot; &quot;permissive&quot; NoLicenseTagText)</text>
</g>
<!-- 39731 -->
<g id="node28" class="node">
<title>39731</title>
<ellipse fill="none" stroke="#d43d51" cx="1600.99" cy="-1294.55" rx="158.22" ry="28.99"/>
<text text-anchor="middle" x="1600.99" y="-1297.75" font-family="Times,serif" font-size="14.00" fill="gray">OrtLicenseCategorization</text>
<text text-anchor="middle" x="1600.99" y="-1281.25" font-family="Times,serif" font-size="14.00" fill="gray">dc9e6403c2b06a51f574c2d75111b37f</text>
</g>
<!-- 35432&#45;&gt;39731 -->
<g id="edge43" class="edge">
<title>35432&#45;&gt;39731</title>
<path fill="none" stroke="#d43d51" d="M1644.66,-1333.43C1643.94,-1332.69 1643.19,-1331.93 1642.41,-1331.16"/>
<polygon fill="#d43d51" stroke="#d43d51" points="1644.83,-1328.64 1635.14,-1324.36 1640.05,-1333.75 1644.83,-1328.64"/>
</g>
<!-- 35433 -->
<g id="node27" class="node">
<title>35433</title>
<text text-anchor="middle" x="2102.21" y="-1648.86" font-family="Times,serif" font-size="14.00">LicenseTag (ScopedLicenseTag &quot;OrtLicenseCategorization&quot; &quot;include&#45;in&#45;notice&#45;file&quot; NoLicenseTagText)</text>
</g>
<!-- 35433&#45;&gt;39731 -->
<g id="edge44" class="edge">
<title>35433&#45;&gt;39731</title>
<path fill="none" stroke="#d43d51" d="M2078.4,-1636.01C1959.63,-1546.8 1936.47,-1530.23 1650.73,-1329.5"/>
<polygon fill="#d43d51" stroke="#d43d51" points="1652.76,-1326.65 1642.57,-1323.76 1648.74,-1332.38 1652.76,-1326.65"/>
</g>
<!-- 39731&#45;&gt;3337 -->
<g id="edge45" class="edge">
<title>39731&#45;&gt;3337</title>
<path fill="none" stroke="#d43d51" d="M1573.55,-1265.61C1521.15,-1211.47 1495.92,-1196.55 1344.74,-1123.23"/>
<polygon fill="#d43d51" stroke="#d43d51" points="1346.49,-1120.19 1335.96,-1118.98 1343.44,-1126.49 1346.49,-1120.19"/>
</g>
<!-- 41992 -->
<g id="node29" class="node">
<title>41992</title>
<ellipse fill="none" stroke="#379469" cx="2049.97" cy="-1154.38" rx="158.22" ry="28.99"/>
<text text-anchor="middle" x="2049.97" y="-1157.58" font-family="Times,serif" font-size="14.00" fill="gray">CavilLicenseChange</text>
<text text-anchor="middle" x="2049.97" y="-1141.08" font-family="Times,serif" font-size="14.00" fill="gray">4811c5019360fb520c2b4ada55a9eec9</text>
</g>
<!-- 41992&#45;&gt;41993 -->
<g id="edge46" class="edge">
<title>41992&#45;&gt;41993</title>
<path fill="none" stroke="#379469" d="M1993.68,-1126.97C1946.69,-1106.33 1909.76,-1099.9 1786.84,-1085.44"/>
<polygon fill="#379469" stroke="#379469" points="1787.32,-1081.97 1776.98,-1084.28 1786.5,-1088.92 1787.32,-1081.97"/>
</g>
<!-- 43136 -->
<g id="node31" class="node">
<title>43136</title>
<text text-anchor="start" x="2557.87" y="-887.29" font-family="Times,serif" font-size="14.00">CoDEStatus: </text>
<text text-anchor="start" x="2632.12" y="-887.29" font-family="Times,serif" font-weight="bold" font-size="14.00" fill="#228b22">Approved</text>
<text text-anchor="start" x="2410.49" y="-873.29" font-family="Times,serif" font-size="14.00">Eine Lizenz ist freigegeben, wenn sie nach fachlicher und juristischer Prüfung</text>
<text text-anchor="start" x="2392.49" y="-859.29" font-family="Times,serif" font-size="14.00">seitens Open CoDE sowohl der Open Source Definition (gemäß Definition der Open</text>
<text text-anchor="start" x="2434.49" y="-845.29" font-family="Times,serif" font-size="14.00">Source Initiative [extern]) entspricht und darüber hinaus keine für die</text>
<text text-anchor="start" x="2437.49" y="-831.29" font-family="Times,serif" font-size="14.00">Öffentliche Verwaltung erkennbaren Schwierigkeiten birgt. Außer in</text>
<text text-anchor="start" x="2422.49" y="-817.29" font-family="Times,serif" font-size="14.00">Ausnahmefällen ist nicht zu erwarten, dass einmal freigegebene Lizenzen</text>
<text text-anchor="start" x="2562.37" y="-803.29" font-family="Times,serif" font-size="14.00">deklassifiziert werden.</text>
</g>
<!-- 51711 -->
<g id="node32" class="node">
<title>51711</title>
<ellipse fill="none" stroke="#379469" cx="2075.87" cy="-920.25" rx="157.68" ry="28.99"/>
<text text-anchor="middle" x="2075.87" y="-923.45" font-family="Times,serif" font-size="14.00" fill="gray">MetaeffektLicense</text>
<text text-anchor="middle" x="2075.87" y="-906.95" font-family="Times,serif" font-size="14.00" fill="gray">de943d3419ba9a49692dffab03ec6615</text>
</g>
<!-- 43136&#45;&gt;51711 -->
<g id="edge47" class="edge">
<title>43136&#45;&gt;51711</title>
<path fill="none" stroke="#379469" d="M2384.77,-865.2C2339.32,-872.17 2281.51,-882.42 2199.41,-897.47"/>
<polygon fill="#379469" stroke="#379469" points="2198.89,-894 2189.69,-899.25 2200.15,-900.89 2198.89,-894"/>
</g>
<!-- 51711&#45;&gt;51712 -->
<g id="edge48" class="edge">
<title>51711&#45;&gt;51712</title>
<path fill="none" stroke="#379469" d="M1923.1,-927.7C1878.37,-935.53 1821.35,-950.66 1719.18,-979.2"/>
<polygon fill="#379469" stroke="#379469" points="1718.3,-975.81 1709.61,-981.87 1720.19,-982.55 1718.3,-975.81"/>
</g>
<!-- 67915 -->
<g id="node34" class="node">
<title>67915</title>
<ellipse fill="none" stroke="#00876c" cx="1006.7" cy="-1297.02" rx="157.15" ry="28.99"/>
<text text-anchor="middle" x="1006.7" y="-1300.22" font-family="Times,serif" font-size="14.00" fill="gray">LicenseLynx</text>
<text text-anchor="middle" x="1006.7" y="-1283.72" font-family="Times,serif" font-size="14.00" fill="gray">4d3a1a759ab99a1fbb5efa45ddd8a090</text>
</g>
<!-- 67915&#45;&gt;3337 -->
<g id="edge49" class="edge">
<title>67915&#45;&gt;3337</title>
<path fill="none" stroke="#00876c" d="M1028.55,-1267.97C1077.31,-1204.37 1098.98,-1190.11 1241.15,-1122.74"/>
<polygon fill="#00876c" stroke="#00876c" points="1242.23,-1126.1 1249.77,-1118.65 1239.24,-1119.77 1242.23,-1126.1"/>
</g>
<!-- 67916&#45;&gt;3337 -->
<g id="edge50" class="edge">
<title>67916&#45;&gt;3337</title>
<path fill="none" stroke="#00876c" stroke-width="2" d="M1270.69,-1317.8C1242.03,-1237.1 1241.68,-1221.29 1277.65,-1134.76"/>
<polygon fill="#00876c" stroke="#00876c" stroke-width="2" points="1281.03,-1126.68 1281.32,-1137.64 1280.5,-1129.24 1277.63,-1136.1 1277.17,-1135.91 1276.71,-1135.71 1279.58,-1128.85 1273.02,-1134.17 1281.03,-1126.68"/>
</g>
<!-- 77191 -->
<g id="node36" class="node">
<title>77191</title>
<ellipse fill="none" stroke="#e09d4b" cx="1662.71" cy="-1962.12" rx="157.68" ry="28.99"/>
<text text-anchor="middle" x="1662.71" y="-1965.32" font-family="Times,serif" font-size="14.00" fill="gray">TLDRNaming</text>
<text text-anchor="middle" x="1662.71" y="-1948.82" font-family="Times,serif" font-size="14.00" fill="gray">8d2171fcf10bf5d480d65b254db2bc9a</text>
</g>
<!-- 77191&#45;&gt;77192 -->
<g id="edge51" class="edge">
<title>77191&#45;&gt;77192</title>
<path fill="none" stroke="#e09d4b" d="M1648.04,-1932.95C1603.95,-1844.89 1594.28,-1819.67 1509.83,-1586.82"/>
<polygon fill="#e09d4b" stroke="#e09d4b" points="1513.23,-1585.93 1506.53,-1577.72 1506.65,-1588.32 1513.23,-1585.93"/>
</g>
<!-- 77193 -->
<g id="node38" class="node">
<title>77193</title>
<polygon fill="none" stroke="#e09d4b" points="1482.94,-1902.89 1482.94,-1917.8 1425.72,-1928.35 1344.8,-1928.35 1287.57,-1917.8 1287.57,-1902.89 1344.8,-1892.35 1425.72,-1892.35 1482.94,-1902.89"/>
<polygon fill="none" stroke="#e09d4b" points="1486.94,-1899.56 1486.94,-1921.13 1426.09,-1932.35 1344.43,-1932.35 1283.57,-1921.13 1283.57,-1899.56 1344.43,-1888.35 1426.09,-1888.35 1486.94,-1899.56"/>
<text text-anchor="middle" x="1385.26" y="-1905.3" font-family="Times,serif" font-size="14.00">tldr&#45;slug:mup&#45;license</text>
</g>
<!-- 77193&#45;&gt;77192 -->
<g id="edge52" class="edge">
<title>77193&#45;&gt;77192</title>
<path fill="none" stroke="#e09d4b" stroke-width="2" d="M1397.65,-1888.1C1441.1,-1809.52 1446.77,-1789.37 1490.81,-1587.06"/>
<polygon fill="#e09d4b" stroke="#e09d4b" stroke-width="2" points="1492.63,-1578.73 1494.9,-1589.45 1492.57,-1581.34 1490.99,-1588.6 1490.5,-1588.5 1490.01,-1588.39 1491.59,-1581.12 1486.1,-1587.54 1492.63,-1578.73"/>
</g>
<!-- 77194 -->
<g id="node39" class="node">
<title>77194</title>
<polygon fill="none" stroke="#e09d4b" points="1387.13,-2181 1387.13,-2195.91 1351.32,-2206.45 1300.69,-2206.45 1264.88,-2195.91 1264.88,-2181 1300.69,-2170.45 1351.32,-2170.45 1387.13,-2181"/>
<polygon fill="none" stroke="#e09d4b" points="1391.13,-2178 1391.13,-2198.9 1351.9,-2210.45 1300.11,-2210.45 1260.88,-2198.9 1260.88,-2178 1300.11,-2166.45 1351.9,-2166.45 1391.13,-2178"/>
<text text-anchor="middle" x="1326.01" y="-2183.4" font-family="Times,serif" font-size="14.00">mup&#45;license</text>
</g>
<!-- 77194&#45;&gt;77193 -->
<g id="edge53" class="edge">
<title>77194&#45;&gt;77193</title>
<path fill="none" stroke="#e09d4b" stroke-width="2" d="M1332.68,-2166.01C1349.74,-2108.21 1353.58,-2089.08 1379.41,-1943.39"/>
<polygon fill="#e09d4b" stroke="#e09d4b" stroke-width="2" points="1380.88,-1935.08 1383.57,-1945.71 1380.92,-1937.69 1379.63,-1945.01 1379.13,-1944.92 1378.64,-1944.83 1379.94,-1937.51 1374.7,-1944.14 1380.88,-1935.08"/>
</g>
<!-- 77195 -->
<g id="node40" class="node">
<title>77195</title>
<text text-anchor="middle" x="1782.78" y="-2364.75" font-family="Times,serif" font-size="14.00">TLDR: https://tldrlegal.com/license/mup&#45;license</text>
</g>
<!-- 77195&#45;&gt;77191 -->
<g id="edge54" class="edge">
<title>77195&#45;&gt;77191</title>
<path fill="none" stroke="#e09d4b" d="M1777.61,-2352.04C1748.51,-2252.09 1743.35,-2234.56 1674.54,-2002.1"/>
<polygon fill="#e09d4b" stroke="#e09d4b" points="1677.95,-2001.27 1671.75,-1992.68 1671.24,-2003.26 1677.95,-2001.27"/>
</g>
</g>
</svg>
