<?xml version="1.0" encoding="UTF-8" standalone="no"?>
<!DOCTYPE svg PUBLIC "-//W3C//DTD SVG 1.1//EN"
 "http://www.w3.org/Graphics/SVG/1.1/DTD/svg11.dtd">
<!-- Generated by graphviz version 10.0.1 (0)
 -->
<!-- Pages: 1 -->
<svg width="2696pt" height="1841pt"
 viewBox="0.00 0.00 2696.00 1841.00" xmlns="http://www.w3.org/2000/svg" xmlns:xlink="http://www.w3.org/1999/xlink">
<g id="graph0" class="graph" transform="scale(1 1) rotate(0) translate(4 1837)">
<polygon fill="white" stroke="none" points="-4,4 -4,-1837 2692,-1837 2692,4 -4,4"/>
<!-- 5 -->
<g id="node1" class="node">
<title>5</title>
<text text-anchor="start" x="1128.04" y="-326.18" font-family="Times,serif" font-size="14.00">OSI: </text>
<text text-anchor="start" x="1157.29" y="-326.18" font-family="Times,serif" font-weight="bold" font-size="14.00" fill="#8b0000">Rejected</text>
</g>
<!-- 3367 -->
<g id="node2" class="node">
<title>3367</title>
<ellipse fill="none" stroke="#dac767" cx="1385.73" cy="-492.81" rx="161.4" ry="28.99"/>
<text text-anchor="middle" x="1385.73" y="-496.01" font-family="Times,serif" font-size="14.00" fill="gray">SPDXLicense</text>
<text text-anchor="middle" x="1385.73" y="-479.51" font-family="Times,serif" font-size="14.00" fill="gray">91b1633d8f7079a148686b0746b07d8a</text>
</g>
<!-- 5&#45;&gt;3367 -->
<g id="edge1" class="edge">
<title>5&#45;&gt;3367</title>
<path fill="none" stroke="#dac767" d="M1215.33,-343.68C1266.31,-359.95 1286.12,-377.63 1353.69,-455.61"/>
<polygon fill="#dac767" stroke="#dac767" points="1350.64,-457.44 1359.83,-462.71 1355.94,-452.86 1350.64,-457.44"/>
</g>
<!-- 3368 -->
<g id="node3" class="node">
<title>3368</title>
<polygon fill="none" stroke="black" points="1416.24,-914.47 1416.24,-929.38 1373.29,-939.93 1312.56,-939.93 1269.62,-929.38 1269.62,-914.47 1312.56,-903.93 1373.29,-903.93 1416.24,-914.47"/>
<polygon fill="none" stroke="black" points="1420.24,-911.33 1420.24,-932.52 1373.78,-943.93 1312.08,-943.93 1265.62,-932.52 1265.62,-911.33 1312.08,-899.93 1373.78,-899.93 1420.24,-911.33"/>
<polygon fill="none" stroke="black" points="1424.24,-908.2 1424.24,-935.66 1374.26,-947.93 1311.59,-947.93 1261.62,-935.66 1261.62,-908.2 1311.59,-895.93 1374.26,-895.93 1424.24,-908.2"/>
<text text-anchor="middle" x="1342.93" y="-916.88" font-family="Times,serif" font-size="14.00">spdx:NCBI&#45;PD</text>
</g>
<!-- 3367&#45;&gt;3368 -->
<g id="edge2" class="edge">
<title>3367&#45;&gt;3368</title>
<path fill="none" stroke="#dac767" d="M1382.75,-522.12C1372.96,-618.74 1370.46,-643.84 1346.64,-884.42"/>
<polygon fill="#dac767" stroke="#dac767" points="1343.18,-883.86 1345.68,-894.16 1350.14,-884.55 1343.18,-883.86"/>
</g>
<!-- 31275 -->
<g id="node15" class="node">
<title>31275</title>
<polygon fill="none" stroke="black" points="1705.41,-803.36 1705.41,-818.27 1665.38,-828.81 1608.78,-828.81 1568.76,-818.27 1568.76,-803.36 1608.78,-792.81 1665.38,-792.81 1705.41,-803.36"/>
<polygon fill="none" stroke="black" points="1709.41,-800.28 1709.41,-821.35 1665.9,-832.81 1608.27,-832.81 1564.76,-821.35 1564.76,-800.28 1608.27,-788.81 1665.9,-788.81 1709.41,-800.28"/>
<text text-anchor="middle" x="1637.08" y="-805.76" font-family="Times,serif" font-size="14.00">scancode:ncbi</text>
</g>
<!-- 3368&#45;&gt;31275 -->
<g id="edge3" class="edge">
<title>3368&#45;&gt;31275</title>
<path fill="none" stroke="#deb256" stroke-width="2" d="M1407.3,-903.63C1461.87,-884.74 1538.94,-855.49 1588.47,-834.78"/>
<polygon fill="#deb256" stroke="#deb256" stroke-width="2" points="1596.36,-831.44 1588.9,-839.48 1594.19,-832.9 1587.34,-835.8 1587.15,-835.33 1586.96,-834.87 1593.81,-831.98 1585.4,-831.19 1596.36,-831.44"/>
</g>
<!-- 53546 -->
<g id="node30" class="node">
<title>53546</title>
<polygon fill="none" stroke="#379469" points="1800.28,-1142.53 1800.28,-1157.44 1697.95,-1167.99 1553.24,-1167.99 1450.91,-1157.44 1450.91,-1142.53 1553.24,-1131.99 1697.95,-1131.99 1800.28,-1142.53"/>
<polygon fill="none" stroke="#379469" points="1804.28,-1138.92 1804.28,-1161.05 1698.16,-1171.99 1553.03,-1171.99 1446.91,-1161.05 1446.91,-1138.92 1553.03,-1127.99 1698.16,-1127.99 1804.28,-1138.92"/>
<text text-anchor="middle" x="1625.59" y="-1144.94" font-family="Times,serif" font-size="14.00">metaeffekt:NCBI Public Domain Notice</text>
</g>
<!-- 3368&#45;&gt;53546 -->
<g id="edge4" class="edge">
<title>3368&#45;&gt;53546</title>
<path fill="none" stroke="#379469" stroke-width="2" d="M1375.01,-948.22C1510.42,-1059.16 1537.74,-1081.43 1588.13,-1120.8"/>
<polygon fill="#379469" stroke="#379469" stroke-width="2" points="1594.86,-1126.06 1584.21,-1123.45 1592.53,-1124.87 1586.67,-1120.3 1586.98,-1119.9 1587.28,-1119.51 1593.15,-1124.08 1589.74,-1116.36 1594.86,-1126.06"/>
</g>
<!-- 3369 -->
<g id="node4" class="node">
<title>3369</title>
<polygon fill="none" stroke="black" points="1431.53,-1220.12 1431.53,-1235.03 1401.24,-1245.57 1358.41,-1245.57 1328.12,-1235.03 1328.12,-1220.12 1358.41,-1209.57 1401.24,-1209.57 1431.53,-1220.12"/>
<polygon fill="none" stroke="black" points="1435.53,-1217.27 1435.53,-1237.87 1401.92,-1249.57 1357.73,-1249.57 1324.12,-1237.87 1324.12,-1217.27 1357.73,-1205.57 1401.92,-1205.57 1435.53,-1217.27"/>
<text text-anchor="middle" x="1379.83" y="-1222.52" font-family="Times,serif" font-size="14.00">NCBI&#45;PD</text>
</g>
<!-- 3369&#45;&gt;3368 -->
<g id="edge5" class="edge">
<title>3369&#45;&gt;3368</title>
<path fill="none" stroke="black" stroke-width="2" d="M1376.98,-1205.33C1368.51,-1139.08 1366.19,-1119.7 1347.29,-959.02"/>
<polygon fill="black" stroke="black" stroke-width="2" points="1346.3,-950.65 1351.94,-960.05 1347.1,-953.14 1347.97,-960.52 1347.47,-960.58 1346.98,-960.64 1346.11,-953.25 1343,-961.11 1346.3,-950.65"/>
</g>
<!-- 42003 -->
<g id="node28" class="node">
<title>42003</title>
<polygon fill="none" stroke="#379469" points="1421.4,-1489.6 1421.4,-1504.51 1378.13,-1515.05 1316.94,-1515.05 1273.67,-1504.51 1273.67,-1489.6 1316.94,-1479.05 1378.13,-1479.05 1421.4,-1489.6"/>
<polygon fill="none" stroke="#379469" points="1425.4,-1486.46 1425.4,-1507.65 1378.61,-1519.05 1316.46,-1519.05 1269.67,-1507.65 1269.67,-1486.46 1316.46,-1475.05 1378.61,-1475.05 1425.4,-1486.46"/>
<text text-anchor="middle" x="1347.53" y="-1492" font-family="Times,serif" font-size="14.00">cavil:NCBI&#45;PD</text>
</g>
<!-- 3369&#45;&gt;42003 -->
<g id="edge6" class="edge">
<title>3369&#45;&gt;42003</title>
<path fill="none" stroke="#379469" stroke-width="2" d="M1378.2,-1249.89C1368.03,-1389.47 1365.86,-1414.46 1355,-1464.15"/>
<polygon fill="#379469" stroke="#379469" stroke-width="2" points="1353.15,-1472.44 1350.93,-1461.7 1353.22,-1469.83 1354.84,-1462.57 1355.33,-1462.68 1355.81,-1462.78 1354.2,-1470.04 1359.72,-1463.65 1353.15,-1472.44"/>
</g>
<!-- 3369&#45;&gt;53546 -->
<g id="edge7" class="edge">
<title>3369&#45;&gt;53546</title>
<path fill="none" stroke="#379469" stroke-dasharray="5,2" d="M1435.78,-1229.47C1515.65,-1231.24 1536.8,-1224.22 1590.91,-1179.47"/>
<polygon fill="#379469" stroke="#379469" points="1598.58,-1173.06 1593.8,-1182.92 1595.68,-1175.48 1590.91,-1179.47 1590.91,-1179.47 1590.91,-1179.47 1595.68,-1175.48 1588.03,-1176.02 1598.58,-1173.06"/>
</g>
<!-- 3370 -->
<g id="node5" class="node">
<title>3370</title>
<polygon fill="none" stroke="black" points="1658.72,-1021.16 1658.72,-1036.07 1583.33,-1046.61 1476.71,-1046.61 1401.31,-1036.07 1401.31,-1021.16 1476.71,-1010.61 1583.33,-1010.61 1658.72,-1021.16"/>
<polygon fill="none" stroke="black" points="1662.72,-1017.68 1662.72,-1039.55 1583.61,-1050.61 1476.43,-1050.61 1397.31,-1039.55 1397.31,-1017.68 1476.43,-1006.61 1583.61,-1006.61 1662.72,-1017.68"/>
<text text-anchor="middle" x="1530.02" y="-1023.56" font-family="Times,serif" font-size="14.00">NCBI Public Domain Notice</text>
</g>
<!-- 3370&#45;&gt;3368 -->
<g id="edge8" class="edge">
<title>3370&#45;&gt;3368</title>
<path fill="none" stroke="#dac767" stroke-width="2" d="M1487.91,-1006.12C1466.41,-994.35 1444.75,-981.8 1393.24,-951.53"/>
<polygon fill="#dac767" stroke="#dac767" stroke-width="2" points="1385.74,-947.11 1396.64,-948.3 1388.2,-947.98 1394.61,-951.75 1394.36,-952.18 1394.1,-952.61 1387.69,-948.84 1392.08,-956.06 1385.74,-947.11"/>
</g>
<!-- 3370&#45;&gt;31275 -->
<g id="edge9" class="edge">
<title>3370&#45;&gt;31275</title>
<path fill="none" stroke="#deb256" stroke-width="2" d="M1551.1,-1006.21C1622.21,-930.33 1631.17,-915.25 1635.42,-844.12"/>
<polygon fill="#deb256" stroke="#deb256" stroke-width="2" points="1635.89,-835.64 1639.83,-845.87 1636.25,-838.22 1635.84,-845.65 1635.34,-845.62 1634.84,-845.59 1635.25,-838.17 1630.85,-845.38 1635.89,-835.64"/>
</g>
<!-- 3370&#45;&gt;53546 -->
<g id="edge10" class="edge">
<title>3370&#45;&gt;53546</title>
<path fill="none" stroke="#379469" stroke-width="2" d="M1550.35,-1050.75C1584.3,-1087.81 1597.2,-1102.57 1607.63,-1118.6"/>
<polygon fill="#379469" stroke="#379469" stroke-width="2" points="1612.01,-1125.71 1602.93,-1119.56 1610.24,-1123.79 1606.34,-1117.46 1606.77,-1117.2 1607.19,-1116.94 1611.09,-1123.27 1610.6,-1114.84 1612.01,-1125.71"/>
</g>
<!-- 67951 -->
<g id="node34" class="node">
<title>67951</title>
<polygon fill="none" stroke="#00876c" points="1434.34,-1153.71 1434.34,-1168.62 1346.29,-1179.17 1221.76,-1179.17 1133.71,-1168.62 1133.71,-1153.71 1221.76,-1143.17 1346.29,-1143.17 1434.34,-1153.71"/>
<polygon fill="none" stroke="#00876c" points="1438.34,-1150.16 1438.34,-1172.17 1346.53,-1183.17 1221.52,-1183.17 1129.71,-1172.17 1129.71,-1150.16 1221.52,-1139.17 1346.53,-1139.17 1438.34,-1150.16"/>
<text text-anchor="middle" x="1284.02" y="-1156.12" font-family="Times,serif" font-size="14.00">spdx:NCBI Public Domain Notice</text>
</g>
<!-- 3370&#45;&gt;67951 -->
<g id="edge11" class="edge">
<title>3370&#45;&gt;67951</title>
<path fill="none" stroke="#00876c" stroke-width="2" d="M1510.26,-1051.08C1463.73,-1103.78 1439.94,-1127.97 1406.46,-1141.14"/>
<polygon fill="#00876c" stroke="#00876c" stroke-width="2" points="1398.53,-1143.92 1406.48,-1136.36 1400.79,-1142.6 1407.8,-1140.14 1407.97,-1140.61 1408.13,-1141.08 1401.12,-1143.55 1409.46,-1144.86 1398.53,-1143.92"/>
</g>
<!-- 3371 -->
<g id="node6" class="node">
<title>3371</title>
<text text-anchor="middle" x="1268.42" y="-169.76" font-family="Times,serif" font-size="14.00">$TEXT</text>
</g>
<!-- 3371&#45;&gt;3367 -->
<g id="edge12" class="edge">
<title>3371&#45;&gt;3367</title>
<path fill="none" stroke="#dac767" d="M1279.29,-192.35C1322.26,-262.04 1328.53,-279.31 1374.93,-452.44"/>
<polygon fill="#dac767" stroke="#dac767" points="1371.54,-453.3 1377.5,-462.06 1378.3,-451.49 1371.54,-453.3"/>
</g>
<!-- 3372 -->
<g id="node7" class="node">
<title>3372</title>
<text text-anchor="middle" x="1194.9" y="-12.65" font-family="Times,serif" font-size="14.00">$TEXT</text>
</g>
<!-- 3372&#45;&gt;3371 -->
<g id="edge13" class="edge">
<title>3372&#45;&gt;3371</title>
<path fill="none" stroke="#dac767" d="M1207.58,-35.37C1225.73,-61.37 1231.95,-75.79 1258.07,-146.66"/>
<polygon fill="#dac767" stroke="#dac767" points="1254.63,-147.44 1261.37,-155.62 1261.2,-145.02 1254.63,-147.44"/>
</g>
<!-- 3373 -->
<g id="node8" class="node">
<title>3373</title>
<text text-anchor="middle" x="1607.63" y="-156.51" font-family="Times,serif" font-size="14.00">https://github.com/ncbi/datasets/blob/master/LICENSE.md</text>
</g>
<!-- 3373&#45;&gt;3367 -->
<g id="edge14" class="edge">
<title>3373&#45;&gt;3367</title>
<path fill="none" stroke="#dac767" d="M1589.25,-179.47C1520.48,-246.86 1508.53,-265.34 1406.82,-453.71"/>
<polygon fill="#dac767" stroke="#dac767" points="1403.82,-451.89 1402.15,-462.36 1409.98,-455.22 1403.82,-451.89"/>
</g>
<!-- 31274 -->
<g id="node14" class="node">
<title>31274</title>
<ellipse fill="none" stroke="#deb256" cx="1850.44" cy="-439.27" rx="155.56" ry="28.99"/>
<text text-anchor="middle" x="1850.44" y="-442.47" font-family="Times,serif" font-size="14.00" fill="gray">ScancodeData</text>
<text text-anchor="middle" x="1850.44" y="-425.97" font-family="Times,serif" font-size="14.00" fill="gray">a910c60369cf2e9b72a35db9a456fa1f</text>
</g>
<!-- 3373&#45;&gt;31274 -->
<g id="edge15" class="edge">
<title>3373&#45;&gt;31274</title>
<path fill="none" stroke="#deb256" d="M1645.21,-179.52C1759.23,-234.71 1773.45,-252.29 1834.21,-399.65"/>
<polygon fill="#deb256" stroke="#deb256" points="1830.86,-400.7 1837.9,-408.62 1837.33,-398.04 1830.86,-400.7"/>
</g>
<!-- 3374 -->
<g id="node9" class="node">
<title>3374</title>
<text text-anchor="middle" x="1686.87" y="-335.18" font-family="Times,serif" font-size="14.00">https://github.com/ncbi/egapx/blob/08930b9dec0c69b2d1a05e5153c7b95ef0a3eb0f/LICENSE</text>
</g>
<!-- 3374&#45;&gt;3367 -->
<g id="edge16" class="edge">
<title>3374&#45;&gt;3367</title>
<path fill="none" stroke="#dac767" d="M1580.43,-358.2C1541.87,-371.52 1506.33,-397.17 1430.76,-456.99"/>
<polygon fill="#dac767" stroke="#dac767" points="1428.7,-454.16 1423.03,-463.12 1433.04,-459.65 1428.7,-454.16"/>
</g>
<!-- 3374&#45;&gt;31274 -->
<g id="edge17" class="edge">
<title>3374&#45;&gt;31274</title>
<path fill="none" stroke="#deb256" d="M1766.63,-358.15C1789.87,-366.35 1803.31,-377.67 1822.06,-401.24"/>
<polygon fill="#deb256" stroke="#deb256" points="1819.11,-403.15 1828,-408.91 1824.64,-398.86 1819.11,-403.15"/>
</g>
<!-- 3375 -->
<g id="node10" class="node">
<title>3375</title>
<text text-anchor="middle" x="1407.15" y="-432.76" font-family="Times,serif" font-size="14.00">https://github.com/ncbi/datasets/blob/0ea4cd16b61e5b799d9cc55aecfa016d6c9bd2bf/LICENSE.md</text>
</g>
<!-- 3375&#45;&gt;3367 -->
<g id="edge18" class="edge">
<title>3375&#45;&gt;3367</title>
<path fill="none" stroke="#dac767" d="M1397.84,-455.56C1397.78,-455.71 1397.72,-455.85 1397.67,-455.99"/>
<polygon fill="#dac767" stroke="#dac767" points="1395.55,-451.57 1395.43,-462.16 1402.13,-453.95 1395.55,-451.57"/>
</g>
<!-- 3375&#45;&gt;31274 -->
<g id="edge19" class="edge">
<title>3375&#45;&gt;31274</title>
<path fill="none" stroke="#deb256" d="M1471.02,-419.85C1639.57,-372.95 1678.7,-368.86 1777.36,-408.18"/>
<polygon fill="#deb256" stroke="#deb256" points="1775.76,-411.31 1786.35,-411.82 1778.39,-404.82 1775.76,-411.31"/>
</g>
<!-- 3376 -->
<g id="node11" class="node">
<title>3376</title>
<text text-anchor="middle" x="2099.94" y="-379.2" font-family="Times,serif" font-size="14.00">https://github.com/ncbi/sra&#45;tools/blob/e8e5b6af4edc460156ad9ce5902d0779cffbf685/LICENSE</text>
</g>
<!-- 3376&#45;&gt;3367 -->
<g id="edge20" class="edge">
<title>3376&#45;&gt;3367</title>
<path fill="none" stroke="#dac767" d="M2013.9,-366.29C1842.5,-332.73 1788.62,-345.36 1468.19,-462.55"/>
<polygon fill="#dac767" stroke="#dac767" points="1467.26,-459.16 1459.07,-465.89 1469.67,-465.74 1467.26,-459.16"/>
</g>
<!-- 3376&#45;&gt;31274 -->
<g id="edge21" class="edge">
<title>3376&#45;&gt;31274</title>
<path fill="none" stroke="#deb256" d="M1955.31,-402.19C1948.6,-404.41 1941.39,-406.87 1933.57,-409.58"/>
<polygon fill="#deb256" stroke="#deb256" points="1932.66,-406.19 1924.37,-412.79 1934.97,-412.8 1932.66,-406.19"/>
</g>
<!-- 3377 -->
<g id="node12" class="node">
<title>3377</title>
<text text-anchor="middle" x="1873.71" y="-489.23" font-family="Times,serif" font-size="14.00">https://github.com/ncbi/gprobe/blob/de64d30fee8b4c4013094d7d3139ea89b5dd1ace/LICENSE</text>
</g>
<!-- 3377&#45;&gt;3367 -->
<g id="edge22" class="edge">
<title>3377&#45;&gt;3367</title>
<path fill="none" stroke="#dac767" d="M1832.09,-476.45C1703.6,-422.1 1669.42,-418.74 1488.1,-465.62"/>
<polygon fill="#dac767" stroke="#dac767" points="1487.35,-462.2 1478.55,-468.11 1489.11,-468.98 1487.35,-462.2"/>
</g>
<!-- 3377&#45;&gt;31274 -->
<g id="edge23" class="edge">
<title>3377&#45;&gt;31274</title>
<path fill="none" stroke="#deb256" d="M1872.22,-476.39C1872.21,-476.3 1872.2,-476.2 1872.18,-476.11"/>
<polygon fill="#deb256" stroke="#deb256" points="1876.2,-479.37 1871.29,-469.98 1869.27,-480.38 1876.2,-479.37"/>
</g>
<!-- 12813 -->
<g id="node13" class="node">
<title>12813</title>
<text text-anchor="middle" x="2278.18" y="-539.72" font-family="Times,serif" font-size="14.00">LicenseType Public Domain</text>
</g>
<!-- 12813&#45;&gt;31274 -->
<g id="edge24" class="edge">
<title>12813&#45;&gt;31274</title>
<path fill="none" stroke="#deb256" d="M2252.75,-526.86C2168.25,-467.73 2136.74,-452.25 2015.16,-445.13"/>
<polygon fill="#deb256" stroke="#deb256" points="2015.59,-441.64 2005.41,-444.59 2015.2,-448.63 2015.59,-441.64"/>
</g>
<!-- 31274&#45;&gt;31275 -->
<g id="edge25" class="edge">
<title>31274&#45;&gt;31275</title>
<path fill="none" stroke="#deb256" d="M1842.25,-468.68C1813.45,-570.61 1800.58,-591.08 1660.41,-779.48"/>
<polygon fill="#deb256" stroke="#deb256" points="1657.71,-777.25 1654.54,-787.36 1663.32,-781.43 1657.71,-777.25"/>
</g>
<!-- 31275&#45;&gt;3368 -->
<g id="edge26" class="edge">
<title>31275&#45;&gt;3368</title>
<path fill="none" stroke="#00876c" stroke-width="2" d="M1581.24,-826.18C1528.97,-843.99 1451.33,-873.27 1399,-894.87"/>
<polygon fill="#00876c" stroke="#00876c" stroke-width="2" points="1391.13,-898.14 1398.64,-890.14 1393.31,-896.69 1400.17,-893.84 1400.37,-894.3 1400.56,-894.76 1393.69,-897.62 1402.1,-898.45 1391.13,-898.14"/>
</g>
<!-- 31275&#45;&gt;53546 -->
<g id="edge27" class="edge">
<title>31275&#45;&gt;53546</title>
<path fill="none" stroke="#379469" stroke-dasharray="5,2" d="M1644.39,-833.08C1693.29,-982.64 1694.68,-999.69 1640.65,-1117.48"/>
<polygon fill="#379469" stroke="#379469" points="1636.47,-1126.55 1636.56,-1115.59 1638.05,-1123.12 1640.65,-1117.47 1640.65,-1117.47 1640.65,-1117.47 1638.05,-1123.12 1644.74,-1119.35 1636.47,-1126.55"/>
</g>
<!-- 31276 -->
<g id="node16" class="node">
<title>31276</title>
<polygon fill="none" stroke="black" points="1849.56,-892.79 1849.56,-907.7 1832.57,-918.24 1808.56,-918.24 1791.57,-907.7 1791.57,-892.79 1808.56,-882.24 1832.57,-882.24 1849.56,-892.79"/>
<polygon fill="none" stroke="black" points="1853.56,-890.56 1853.56,-909.92 1833.71,-922.24 1807.41,-922.24 1787.57,-909.92 1787.57,-890.56 1807.41,-878.24 1833.71,-878.24 1853.56,-890.56"/>
<text text-anchor="middle" x="1820.56" y="-895.19" font-family="Times,serif" font-size="14.00">ncbi</text>
</g>
<!-- 31276&#45;&gt;31275 -->
<g id="edge28" class="edge">
<title>31276&#45;&gt;31275</title>
<path fill="none" stroke="black" stroke-width="2" d="M1801.41,-881.47C1774.56,-855.99 1758.92,-847.39 1701.35,-829.74"/>
<polygon fill="black" stroke="black" stroke-width="2" points="1693.26,-827.29 1704.13,-825.89 1695.86,-827.56 1702.97,-829.71 1702.83,-830.19 1702.68,-830.67 1695.57,-828.52 1701.52,-834.5 1693.26,-827.29"/>
</g>
<!-- 31277 -->
<g id="node17" class="node">
<title>31277</title>
<text text-anchor="middle" x="2023.69" y="-57.97" font-family="Times,serif" font-size="14.00">https://github.com/ncbi/ngs/blob/master/LICENSE#L8</text>
</g>
<!-- 31277&#45;&gt;31274 -->
<g id="edge29" class="edge">
<title>31277&#45;&gt;31274</title>
<path fill="none" stroke="#deb256" d="M2019.2,-80.99C1993.42,-183.61 1985.98,-200.05 1872.58,-400.21"/>
<polygon fill="#deb256" stroke="#deb256" points="1869.56,-398.45 1867.67,-408.88 1875.65,-401.9 1869.56,-398.45"/>
</g>
<!-- 31278 -->
<g id="node18" class="node">
<title>31278</title>
<text text-anchor="middle" x="2532.32" y="-405.66" font-family="Times,serif" font-size="14.00">ScancodeData:</text>
<text text-anchor="middle" x="2532.32" y="-389.16" font-family="Times,serif" font-size="14.00">Added in SPDX license list 3.24</text>
<text text-anchor="middle" x="2532.32" y="-372.66" font-family="Times,serif" font-size="14.00">This was before the us&#45;govt&#45;public&#45;domain_25.RULE</text>
<text text-anchor="middle" x="2532.32" y="-356.16" font-family="Times,serif" font-size="14.00">Earlier text is now a rule</text>
</g>
<!-- 31278&#45;&gt;31274 -->
<g id="edge30" class="edge">
<title>31278&#45;&gt;31274</title>
<path fill="none" stroke="#deb256" d="M2377.26,-360.49C2283.96,-352.12 2200.16,-366.15 1965.35,-415.13"/>
<polygon fill="#deb256" stroke="#deb256" points="1964.97,-411.64 1955.9,-417.11 1966.4,-418.49 1964.97,-411.64"/>
</g>
<!-- 31279 -->
<g id="node19" class="node">
<title>31279</title>
<text text-anchor="middle" x="2184.59" y="-167.32" font-family="Times,serif" font-size="14.00">https://blast.ncbi.nlm.nih.gov/Blast.cgi</text>
</g>
<!-- 31279&#45;&gt;31274 -->
<g id="edge31" class="edge">
<title>31279&#45;&gt;31274</title>
<path fill="none" stroke="#deb256" d="M2160.19,-190.26C2085.15,-245.39 2064.26,-262.17 1893.78,-403.37"/>
<polygon fill="#deb256" stroke="#deb256" points="1891.65,-400.59 1886.18,-409.66 1896.12,-405.98 1891.65,-400.59"/>
</g>
<!-- 31280 -->
<g id="node20" class="node">
<title>31280</title>
<text text-anchor="middle" x="2190.93" y="-317.01" font-family="Times,serif" font-size="14.00">$TEXT</text>
</g>
<!-- 31280&#45;&gt;31274 -->
<g id="edge32" class="edge">
<title>31280&#45;&gt;31274</title>
<path fill="none" stroke="#deb256" d="M2162.49,-325.59C2086.39,-335.38 2062.44,-343.12 1920.62,-407.35"/>
<polygon fill="#deb256" stroke="#deb256" points="1919.24,-404.13 1911.58,-411.44 1922.13,-410.5 1919.24,-404.13"/>
</g>
<!-- 35433 -->
<g id="node21" class="node">
<title>35433</title>
<text text-anchor="middle" x="294.46" y="-996.28" font-family="Times,serif" font-size="14.00">LicenseTag (ScopedLicenseTag &quot;OrtLicenseCategorization&quot; &quot;include&#45;in&#45;notice&#45;file&quot; NoLicenseTagText)</text>
</g>
<!-- 38236 -->
<g id="node23" class="node">
<title>38236</title>
<ellipse fill="none" stroke="#d43d51" cx="383.64" cy="-1056.34" rx="156.62" ry="28.99"/>
<text text-anchor="middle" x="383.64" y="-1059.54" font-family="Times,serif" font-size="14.00" fill="gray">OrtLicenseCategorization</text>
<text text-anchor="middle" x="383.64" y="-1043.04" font-family="Times,serif" font-size="14.00" fill="gray">46886b6a7c07f798f09f601cc37c9964</text>
</g>
<!-- 35433&#45;&gt;38236 -->
<g id="edge33" class="edge">
<title>35433&#45;&gt;38236</title>
<path fill="none" stroke="#d43d51" d="M309.22,-1018.97C310.43,-1020.25 311.64,-1021.45 312.87,-1022.59"/>
<polygon fill="#d43d51" stroke="#d43d51" points="310.42,-1025.11 320.45,-1028.52 314.73,-1019.6 310.42,-1025.11"/>
</g>
<!-- 39735 -->
<g id="node26" class="node">
<title>39735</title>
<ellipse fill="none" stroke="#d43d51" cx="1013.31" cy="-923.05" rx="161.93" ry="28.99"/>
<text text-anchor="middle" x="1013.31" y="-926.25" font-family="Times,serif" font-size="14.00" fill="gray">OrtLicenseCategorization</text>
<text text-anchor="middle" x="1013.31" y="-909.75" font-family="Times,serif" font-size="14.00" fill="gray">dd7d691e46150dc39a245c4b910db5b0</text>
</g>
<!-- 35433&#45;&gt;39735 -->
<g id="edge34" class="edge">
<title>35433&#45;&gt;39735</title>
<path fill="none" stroke="#d43d51" d="M427.59,-983.35C524.09,-970.91 606.96,-962.42 858.88,-938"/>
<polygon fill="#d43d51" stroke="#d43d51" points="859.1,-941.49 868.72,-937.04 858.43,-934.52 859.1,-941.49"/>
</g>
<!-- 35455 -->
<g id="node22" class="node">
<title>35455</title>
<text text-anchor="middle" x="566.84" y="-952.27" font-family="Times,serif" font-size="14.00">LicenseTag (ScopedLicenseTag &quot;OrtLicenseCategorization&quot; &quot;public&#45;domain&quot; NoLicenseTagText)</text>
</g>
<!-- 35455&#45;&gt;38236 -->
<g id="edge35" class="edge">
<title>35455&#45;&gt;38236</title>
<path fill="none" stroke="#d43d51" d="M522.53,-975.29C469.1,-997.12 445.59,-1007.69 426,-1021.06"/>
<polygon fill="#d43d51" stroke="#d43d51" points="424.14,-1018.09 418.11,-1026.8 428.25,-1023.75 424.14,-1018.09"/>
</g>
<!-- 35455&#45;&gt;39735 -->
<g id="edge36" class="edge">
<title>35455&#45;&gt;39735</title>
<path fill="none" stroke="#d43d51" d="M773.64,-939.33C795.22,-937.8 820.18,-936.07 850.02,-934.04"/>
<polygon fill="#d43d51" stroke="#d43d51" points="849.99,-937.55 859.73,-933.38 849.51,-930.57 849.99,-937.55"/>
</g>
<!-- 38237 -->
<g id="node24" class="node">
<title>38237</title>
<polygon fill="none" stroke="#d43d51" points="502.53,-1358.13 502.53,-1373.04 417.08,-1383.59 296.22,-1383.59 210.77,-1373.04 210.77,-1358.13 296.22,-1347.59 417.08,-1347.59 502.53,-1358.13"/>
<polygon fill="none" stroke="#d43d51" points="506.53,-1354.59 506.53,-1376.58 417.32,-1387.59 295.98,-1387.59 206.77,-1376.58 206.77,-1354.59 295.98,-1343.59 417.32,-1343.59 506.53,-1354.59"/>
<text text-anchor="middle" x="356.65" y="-1360.54" font-family="Times,serif" font-size="14.00">SPDX:LicenseRef&#45;scancode&#45;ncbi</text>
</g>
<!-- 38236&#45;&gt;38237 -->
<g id="edge37" class="edge">
<title>38236&#45;&gt;38237</title>
<path fill="none" stroke="#d43d51" d="M371.38,-1085.41C316.54,-1215.94 313.52,-1234.45 345.61,-1332.47"/>
<polygon fill="#d43d51" stroke="#d43d51" points="342.21,-1333.34 348.67,-1341.74 348.86,-1331.15 342.21,-1333.34"/>
</g>
<!-- 38238 -->
<g id="node25" class="node">
<title>38238</title>
<polygon fill="none" stroke="black" points="810.14,-1304.18 810.14,-1319.09 741.24,-1329.63 643.79,-1329.63 574.89,-1319.09 574.89,-1304.18 643.79,-1293.63 741.24,-1293.63 810.14,-1304.18"/>
<polygon fill="none" stroke="black" points="814.14,-1300.74 814.14,-1322.52 741.54,-1333.63 643.49,-1333.63 570.89,-1322.52 570.89,-1300.74 643.49,-1289.63 741.54,-1289.63 814.14,-1300.74"/>
<text text-anchor="middle" x="692.52" y="-1306.58" font-family="Times,serif" font-size="14.00">LicenseRef&#45;scancode&#45;ncbi</text>
</g>
<!-- 38238&#45;&gt;38237 -->
<g id="edge38" class="edge">
<title>38238&#45;&gt;38237</title>
<path fill="none" stroke="#d43d51" stroke-width="2" d="M618.99,-1330.29C575.67,-1341.2 543.47,-1349.06 517.55,-1354.64"/>
<polygon fill="#d43d51" stroke="#d43d51" stroke-width="2" points="509.19,-1356.39 518.05,-1349.93 511.6,-1355.38 518.87,-1353.85 518.98,-1354.34 519.08,-1354.83 511.8,-1356.36 519.9,-1358.74 509.19,-1356.39"/>
</g>
<!-- 67950 -->
<g id="node33" class="node">
<title>67950</title>
<polygon fill="none" stroke="#00876c" points="1115.57,-1116.19 1115.57,-1131.11 1023.63,-1141.65 893.6,-1141.65 801.65,-1131.11 801.65,-1116.19 893.6,-1105.65 1023.63,-1105.65 1115.57,-1116.19"/>
<polygon fill="none" stroke="#00876c" points="1119.57,-1112.63 1119.57,-1134.67 1023.86,-1145.65 893.37,-1145.65 797.65,-1134.67 797.65,-1112.63 893.37,-1101.65 1023.86,-1101.65 1119.57,-1112.63"/>
<text text-anchor="middle" x="958.61" y="-1118.6" font-family="Times,serif" font-size="14.00">scancode:LicenseRef&#45;scancode&#45;ncbi</text>
</g>
<!-- 38238&#45;&gt;67950 -->
<g id="edge39" class="edge">
<title>38238&#45;&gt;67950</title>
<path fill="none" stroke="#00876c" stroke-width="2" d="M720.71,-1289.18C767.96,-1251.81 790.97,-1235.87 916.19,-1152.04"/>
<polygon fill="#00876c" stroke="#00876c" stroke-width="2" points="923.36,-1147.24 917.55,-1156.54 921.51,-1149.08 915.33,-1153.22 915.05,-1152.8 914.77,-1152.39 920.95,-1148.25 912.55,-1149.06 923.36,-1147.24"/>
</g>
<!-- 39735&#45;&gt;3368 -->
<g id="edge40" class="edge">
<title>39735&#45;&gt;3368</title>
<path fill="none" stroke="#d43d51" d="M1175.38,-923.94C1195.67,-923.75 1219.84,-923.47 1249.83,-923.1"/>
<polygon fill="#d43d51" stroke="#d43d51" points="1249.68,-926.6 1259.63,-922.98 1249.59,-919.6 1249.68,-926.6"/>
</g>
<!-- 42002 -->
<g id="node27" class="node">
<title>42002</title>
<ellipse fill="none" stroke="#379469" cx="1329.96" cy="-1804.04" rx="157.68" ry="28.99"/>
<text text-anchor="middle" x="1329.96" y="-1807.24" font-family="Times,serif" font-size="14.00" fill="gray">CavilLicenseChange</text>
<text text-anchor="middle" x="1329.96" y="-1790.74" font-family="Times,serif" font-size="14.00" fill="gray">d2af692d9179cd528b17ce6e2f942d1c</text>
</g>
<!-- 42002&#45;&gt;42003 -->
<g id="edge41" class="edge">
<title>42002&#45;&gt;42003</title>
<path fill="none" stroke="#379469" d="M1332.62,-1774.55C1338.07,-1713.09 1339.27,-1689.42 1346.09,-1530.69"/>
<polygon fill="#379469" stroke="#379469" points="1349.57,-1531.18 1346.5,-1521.04 1342.58,-1530.88 1349.57,-1531.18"/>
</g>
<!-- 53545 -->
<g id="node29" class="node">
<title>53545</title>
<ellipse fill="none" stroke="#379469" cx="1803.42" cy="-1511.41" rx="157.68" ry="28.99"/>
<text text-anchor="middle" x="1803.42" y="-1514.61" font-family="Times,serif" font-size="14.00" fill="gray">MetaeffektLicense</text>
<text text-anchor="middle" x="1803.42" y="-1498.11" font-family="Times,serif" font-size="14.00" fill="gray">11e2330afea97120d07fabe054950455</text>
</g>
<!-- 53545&#45;&gt;53546 -->
<g id="edge42" class="edge">
<title>53545&#45;&gt;53546</title>
<path fill="none" stroke="#379469" d="M1794.83,-1482.15C1768.53,-1393.66 1756.89,-1371.75 1644.65,-1182.16"/>
<polygon fill="#379469" stroke="#379469" points="1647.76,-1180.54 1639.65,-1173.72 1641.73,-1184.11 1647.76,-1180.54"/>
</g>
<!-- 53547 -->
<g id="node31" class="node">
<title>53547</title>
<polygon fill="none" stroke="#379469" points="1912.89,-1338.5 1912.89,-1353.41 1882.93,-1363.95 1840.55,-1363.95 1810.59,-1353.41 1810.59,-1338.5 1840.55,-1327.95 1882.93,-1327.95 1912.89,-1338.5"/>
<text text-anchor="middle" x="1861.74" y="-1340.9" font-family="Times,serif" font-size="14.00">NCBI PD</text>
</g>
<!-- 53547&#45;&gt;53546 -->
<g id="edge43" class="edge">
<title>53547&#45;&gt;53546</title>
<path fill="none" stroke="#379469" stroke-dasharray="5,2" d="M1840.05,-1327.95C1793.22,-1289.07 1775.31,-1274.21 1660.78,-1179.18"/>
<polygon fill="#379469" stroke="#379469" points="1653.3,-1172.98 1663.87,-1175.9 1656.21,-1175.39 1661,-1179.36 1661,-1179.36 1661,-1179.36 1656.21,-1175.39 1658.12,-1182.82 1653.3,-1172.98"/>
</g>
<!-- 67949 -->
<g id="node32" class="node">
<title>67949</title>
<ellipse fill="none" stroke="#00876c" cx="1108.49" cy="-778.96" rx="159.28" ry="28.99"/>
<text text-anchor="middle" x="1108.49" y="-782.16" font-family="Times,serif" font-size="14.00" fill="gray">LicenseLynx</text>
<text text-anchor="middle" x="1108.49" y="-765.66" font-family="Times,serif" font-size="14.00" fill="gray">0c0d2377237b8ee93edd8be1fb3061c7</text>
</g>
<!-- 67949&#45;&gt;3368 -->
<g id="edge44" class="edge">
<title>67949&#45;&gt;3368</title>
<path fill="none" stroke="#00876c" d="M1152.56,-807.25C1183.32,-826.75 1210.79,-843.28 1292.62,-891.99"/>
<polygon fill="#00876c" stroke="#00876c" points="1290.64,-894.89 1301.02,-896.99 1294.22,-888.87 1290.64,-894.89"/>
</g>
<!-- 67950&#45;&gt;3368 -->
<g id="edge45" class="edge">
<title>67950&#45;&gt;3368</title>
<path fill="none" stroke="#00876c" stroke-width="2" d="M1002.57,-1101.28C1073.73,-1065 1107.37,-1047.23 1289.19,-950.51"/>
<polygon fill="#00876c" stroke="#00876c" stroke-width="2" points="1296.94,-946.39 1290.23,-955.06 1294.92,-948.03 1288.35,-951.53 1288.12,-951.09 1287.88,-950.64 1294.45,-947.15 1286,-947.11 1296.94,-946.39"/>
</g>
<!-- 67951&#45;&gt;3368 -->
<g id="edge46" class="edge">
<title>67951&#45;&gt;3368</title>
<path fill="none" stroke="#00876c" stroke-width="2" d="M1289.55,-1138.86C1301.19,-1091.84 1305.71,-1073.47 1333.86,-958.86"/>
<polygon fill="#00876c" stroke="#00876c" stroke-width="2" points="1335.89,-950.58 1337.87,-961.37 1335.76,-953.19 1333.99,-960.41 1333.5,-960.29 1333.02,-960.17 1334.79,-952.95 1329.13,-959.22 1335.89,-950.58"/>
</g>
</g>
</svg>
