<?xml version="1.0" encoding="UTF-8" standalone="no"?>
<!DOCTYPE svg PUBLIC "-//W3C//DTD SVG 1.1//EN"
 "http://www.w3.org/Graphics/SVG/1.1/DTD/svg11.dtd">
<!-- Generated by graphviz version 10.0.1 (0)
 -->
<!-- Pages: 1 -->
<svg width="2195pt" height="1399pt"
 viewBox="0.00 0.00 2195.00 1399.00" xmlns="http://www.w3.org/2000/svg" xmlns:xlink="http://www.w3.org/1999/xlink">
<g id="graph0" class="graph" transform="scale(1 1) rotate(0) translate(4 1395)">
<polygon fill="white" stroke="none" points="-4,4 -4,-1395 2191,-1395 2191,4 -4,4"/>
<!-- 5 -->
<g id="node1" class="node">
<title>5</title>
<text text-anchor="start" x="1635.91" y="-1315.53" font-family="Times,serif" font-size="14.00">OSI: </text>
<text text-anchor="start" x="1665.16" y="-1315.53" font-family="Times,serif" font-weight="bold" font-size="14.00" fill="#8b0000">Rejected</text>
</g>
<!-- 5329 -->
<g id="node2" class="node">
<title>5329</title>
<ellipse fill="none" stroke="#dac767" cx="1660.5" cy="-979.93" rx="152.38" ry="28.99"/>
<text text-anchor="middle" x="1660.5" y="-983.13" font-family="Times,serif" font-size="14.00" fill="gray">SPDXLicense</text>
<text text-anchor="middle" x="1660.5" y="-966.63" font-family="Times,serif" font-size="14.00" fill="gray">ff2cc4fe9adeea3356af2ac48b88d199</text>
</g>
<!-- 5&#45;&gt;5329 -->
<g id="edge1" class="edge">
<title>5&#45;&gt;5329</title>
<path fill="none" stroke="#dac767" d="M1682.04,-1301.75C1718.49,-1199.27 1718.64,-1183.48 1672.04,-1020.17"/>
<polygon fill="#dac767" stroke="#dac767" points="1675.44,-1019.31 1669.32,-1010.65 1668.71,-1021.23 1675.44,-1019.31"/>
</g>
<!-- 5330 -->
<g id="node3" class="node">
<title>5330</title>
<polygon fill="none" stroke="black" points="1334.43,-814.61 1334.43,-829.52 1301.55,-840.07 1255.04,-840.07 1222.16,-829.52 1222.16,-814.61 1255.04,-804.07 1301.55,-804.07 1334.43,-814.61"/>
<polygon fill="none" stroke="black" points="1338.43,-811.69 1338.43,-832.44 1302.17,-844.07 1254.42,-844.07 1218.16,-832.44 1218.16,-811.69 1254.42,-800.07 1302.17,-800.07 1338.43,-811.69"/>
<polygon fill="none" stroke="black" points="1342.43,-808.77 1342.43,-835.36 1302.8,-848.07 1253.79,-848.07 1214.16,-835.36 1214.16,-808.77 1253.79,-796.07 1302.8,-796.07 1342.43,-808.77"/>
<text text-anchor="middle" x="1278.3" y="-817.02" font-family="Times,serif" font-size="14.00">spdx:ngrep</text>
</g>
<!-- 5329&#45;&gt;5330 -->
<g id="edge2" class="edge">
<title>5329&#45;&gt;5330</title>
<path fill="none" stroke="#dac767" d="M1584.94,-954.34C1530.06,-934.74 1483.33,-914.24 1332.94,-846.64"/>
<polygon fill="#dac767" stroke="#dac767" points="1334.82,-843.65 1324.26,-842.74 1331.95,-850.03 1334.82,-843.65"/>
</g>
<!-- 9902 -->
<g id="node13" class="node">
<title>9902</title>
<polygon fill="none" stroke="#e09d4b" points="1391.51,-572.39 1391.51,-587.3 1353.44,-597.84 1299.59,-597.84 1261.51,-587.3 1261.51,-572.39 1299.59,-561.84 1353.44,-561.84 1391.51,-572.39"/>
<polygon fill="none" stroke="#e09d4b" points="1395.51,-569.35 1395.51,-590.34 1353.98,-601.84 1299.05,-601.84 1257.51,-590.34 1257.51,-569.35 1299.05,-557.84 1353.98,-557.84 1395.51,-569.35"/>
<text text-anchor="middle" x="1326.51" y="-574.79" font-family="Times,serif" font-size="14.00">Fedora:ngrep</text>
</g>
<!-- 5330&#45;&gt;9902 -->
<g id="edge3" class="edge">
<title>5330&#45;&gt;9902</title>
<path fill="none" stroke="#e09d4b" stroke-width="2" d="M1294.38,-795.76C1345.42,-711.7 1349.49,-695.5 1333.28,-613.09"/>
<polygon fill="#e09d4b" stroke="#e09d4b" stroke-width="2" points="1331.57,-604.54 1337.94,-613.46 1332.56,-606.95 1334.02,-614.24 1333.53,-614.34 1333.04,-614.44 1331.58,-607.15 1329.12,-615.23 1331.57,-604.54"/>
</g>
<!-- 31313 -->
<g id="node15" class="node">
<title>31313</title>
<polygon fill="none" stroke="black" points="1476.12,-987.46 1476.12,-1002.37 1432.86,-1012.92 1371.67,-1012.92 1328.4,-1002.37 1328.4,-987.46 1371.67,-976.92 1432.86,-976.92 1476.12,-987.46"/>
<polygon fill="none" stroke="black" points="1480.12,-984.32 1480.12,-1005.52 1433.34,-1016.92 1371.19,-1016.92 1324.4,-1005.52 1324.4,-984.32 1371.19,-972.92 1433.34,-972.92 1480.12,-984.32"/>
<text text-anchor="middle" x="1402.26" y="-989.87" font-family="Times,serif" font-size="14.00">scancode:ngrep</text>
</g>
<!-- 5330&#45;&gt;31313 -->
<g id="edge4" class="edge">
<title>5330&#45;&gt;31313</title>
<path fill="none" stroke="#deb256" stroke-width="2" d="M1300.11,-848.53C1355.37,-915.66 1369.89,-934.3 1385.71,-963.07"/>
<polygon fill="#deb256" stroke="#deb256" stroke-width="2" points="1389.79,-970.69 1381.1,-964 1388.14,-968.67 1384.63,-962.11 1385.07,-961.88 1385.51,-961.64 1389.02,-968.2 1389.04,-959.75 1389.79,-970.69"/>
</g>
<!-- 53074 -->
<g id="node21" class="node">
<title>53074</title>
<polygon fill="none" stroke="#379469" points="1274.94,-1077.53 1274.94,-1092.44 1206.68,-1102.99 1110.15,-1102.99 1041.9,-1092.44 1041.9,-1077.53 1110.15,-1066.99 1206.68,-1066.99 1274.94,-1077.53"/>
<polygon fill="none" stroke="#379469" points="1278.94,-1074.1 1278.94,-1095.87 1206.99,-1106.99 1109.84,-1106.99 1037.9,-1095.87 1037.9,-1074.1 1109.84,-1062.99 1206.99,-1062.99 1278.94,-1074.1"/>
<text text-anchor="middle" x="1158.42" y="-1079.94" font-family="Times,serif" font-size="14.00">metaeffekt:Ngrep License</text>
</g>
<!-- 5330&#45;&gt;53074 -->
<g id="edge5" class="edge">
<title>5330&#45;&gt;53074</title>
<path fill="none" stroke="#379469" stroke-width="2" d="M1273.34,-848.15C1247.85,-981.93 1241.1,-1004.85 1190.17,-1054.9"/>
<polygon fill="#379469" stroke="#379469" stroke-width="2" points="1184.08,-1060.8 1188.13,-1050.61 1185.57,-1058.66 1190.91,-1053.48 1191.26,-1053.84 1191.61,-1054.2 1186.27,-1059.38 1194.39,-1057.08 1184.08,-1060.8"/>
</g>
<!-- 5331 -->
<g id="node4" class="node">
<title>5331</title>
<polygon fill="none" stroke="black" points="1441.02,-761.95 1441.02,-776.86 1420.79,-787.4 1392.19,-787.4 1371.96,-776.86 1371.96,-761.95 1392.19,-751.4 1420.79,-751.4 1441.02,-761.95"/>
<polygon fill="none" stroke="black" points="1445.02,-759.52 1445.02,-779.28 1421.77,-791.4 1391.21,-791.4 1367.96,-779.28 1367.96,-759.52 1391.21,-747.4 1421.77,-747.4 1445.02,-759.52"/>
<text text-anchor="middle" x="1406.49" y="-764.35" font-family="Times,serif" font-size="14.00">ngrep</text>
</g>
<!-- 5331&#45;&gt;5330 -->
<g id="edge6" class="edge">
<title>5331&#45;&gt;5330</title>
<path fill="none" stroke="black" stroke-width="2" d="M1385.47,-788.76C1375.46,-797.12 1366.8,-802.2 1353.45,-806.48"/>
<polygon fill="black" stroke="black" stroke-width="2" points="1345.17,-808.82 1353.57,-801.77 1347.5,-807.65 1354.65,-805.62 1354.79,-806.1 1354.93,-806.58 1347.77,-808.61 1356.02,-810.43 1345.17,-808.82"/>
</g>
<!-- 5331&#45;&gt;9902 -->
<g id="edge7" class="edge">
<title>5331&#45;&gt;9902</title>
<path fill="none" stroke="#e09d4b" stroke-width="2" d="M1406.68,-747.18C1406.94,-681.27 1402.43,-667.14 1353.28,-610.32"/>
<polygon fill="#e09d4b" stroke="#e09d4b" stroke-width="2" points="1347.65,-603.84 1357.61,-608.43 1349.71,-605.45 1354.59,-611.06 1354.21,-611.38 1353.83,-611.71 1348.95,-606.1 1350.82,-614.34 1347.65,-603.84"/>
</g>
<!-- 5331&#45;&gt;31313 -->
<g id="edge8" class="edge">
<title>5331&#45;&gt;31313</title>
<path fill="none" stroke="black" stroke-width="2" d="M1412.44,-791.6C1438.49,-889.12 1440.65,-906.83 1416.72,-962.62"/>
<polygon fill="black" stroke="black" stroke-width="2" points="1413.28,-970.48 1413.17,-959.51 1413.85,-967.93 1416.83,-961.12 1417.29,-961.32 1417.75,-961.52 1414.77,-968.33 1421.41,-963.12 1413.28,-970.48"/>
</g>
<!-- 5332 -->
<g id="node5" class="node">
<title>5332</title>
<polygon fill="none" stroke="black" points="1243.76,-1022.72 1243.76,-1037.63 1203.74,-1048.18 1147.14,-1048.18 1107.11,-1037.63 1107.11,-1022.72 1147.14,-1012.18 1203.74,-1012.18 1243.76,-1022.72"/>
<polygon fill="none" stroke="black" points="1247.76,-1019.64 1247.76,-1040.71 1204.26,-1052.18 1146.62,-1052.18 1103.11,-1040.71 1103.11,-1019.64 1146.62,-1008.18 1204.26,-1008.18 1247.76,-1019.64"/>
<text text-anchor="middle" x="1175.44" y="-1025.13" font-family="Times,serif" font-size="14.00">ngrep License</text>
</g>
<!-- 5332&#45;&gt;5330 -->
<g id="edge9" class="edge">
<title>5332&#45;&gt;5330</title>
<path fill="none" stroke="#dac767" stroke-width="2" d="M1201.15,-1007.92C1245.18,-968.67 1252.54,-951.36 1270.92,-859.51"/>
<polygon fill="#dac767" stroke="#dac767" stroke-width="2" points="1272.63,-850.95 1275.09,-861.63 1272.62,-853.56 1271.17,-860.85 1270.68,-860.76 1270.19,-860.66 1271.64,-853.36 1266.26,-859.88 1272.63,-850.95"/>
</g>
<!-- 5332&#45;&gt;31313 -->
<g id="edge10" class="edge">
<title>5332&#45;&gt;31313</title>
<path fill="none" stroke="#deb256" stroke-width="2" d="M1248.05,-1040.78C1299.91,-1046.9 1321.43,-1042.99 1358.46,-1021.92"/>
<polygon fill="#deb256" stroke="#deb256" stroke-width="2" points="1365.59,-1017.74 1359.24,-1026.68 1363.63,-1019.47 1357.21,-1023.23 1356.96,-1022.8 1356.71,-1022.36 1363.13,-1018.61 1354.69,-1018.91 1365.59,-1017.74"/>
</g>
<!-- 5332&#45;&gt;53074 -->
<g id="edge11" class="edge">
<title>5332&#45;&gt;53074</title>
<path fill="none" stroke="#379469" stroke-width="2" d="M1171.72,-1052.51C1171.69,-1052.63 1171.67,-1052.76 1171.65,-1052.89"/>
<polygon fill="#379469" stroke="#379469" stroke-width="2" points="1170.09,-1060.23 1167.76,-1049.52 1170.13,-1057.62 1171.67,-1050.35 1172.16,-1050.45 1172.65,-1050.55 1171.11,-1057.83 1176.56,-1051.38 1170.09,-1060.23"/>
</g>
<!-- 72604 -->
<g id="node23" class="node">
<title>72604</title>
<polygon fill="none" stroke="#00876c" points="1094.7,-854.51 1094.7,-869.42 1042.02,-879.97 967.52,-879.97 914.84,-869.42 914.84,-854.51 967.52,-843.97 1042.02,-843.97 1094.7,-854.51"/>
<polygon fill="none" stroke="#00876c" points="1098.7,-851.23 1098.7,-872.7 1042.41,-883.97 967.12,-883.97 910.84,-872.7 910.84,-851.23 967.12,-839.97 1042.41,-839.97 1098.7,-851.23"/>
<text text-anchor="middle" x="1004.77" y="-856.92" font-family="Times,serif" font-size="14.00">spdx:ngrep License</text>
</g>
<!-- 5332&#45;&gt;72604 -->
<g id="edge12" class="edge">
<title>5332&#45;&gt;72604</title>
<path fill="none" stroke="#00876c" stroke-width="2" d="M1132.59,-1011.36C1091.13,-991.14 1075.79,-972.1 1025.16,-893.7"/>
<polygon fill="#00876c" stroke="#00876c" stroke-width="2" points="1020.47,-886.42 1029.67,-892.38 1022.28,-888.3 1026.31,-894.55 1025.89,-894.82 1025.47,-895.09 1021.44,-888.84 1022.1,-897.26 1020.47,-886.42"/>
</g>
<!-- 5333 -->
<g id="node6" class="node">
<title>5333</title>
<text text-anchor="middle" x="1992.02" y="-897.09" font-family="Times,serif" font-size="14.00">$TEXT</text>
</g>
<!-- 5333&#45;&gt;5329 -->
<g id="edge13" class="edge">
<title>5333&#45;&gt;5329</title>
<path fill="none" stroke="#dac767" d="M1963.48,-919.08C1913,-948.5 1886.79,-958.87 1812.36,-967.2"/>
<polygon fill="#dac767" stroke="#dac767" points="1812.09,-963.71 1802.53,-968.26 1812.84,-970.67 1812.09,-963.71"/>
</g>
<!-- 5334 -->
<g id="node7" class="node">
<title>5334</title>
<text text-anchor="middle" x="2158.61" y="-863.84" font-family="Times,serif" font-size="14.00">$TEXT</text>
</g>
<!-- 5334&#45;&gt;5333 -->
<g id="edge14" class="edge">
<title>5334&#45;&gt;5333</title>
<path fill="none" stroke="#dac767" d="M2130,-881.58C2107.07,-890.68 2088.89,-893.46 2031.58,-898.65"/>
<polygon fill="#dac767" stroke="#dac767" points="2031.57,-895.14 2021.92,-899.52 2032.19,-902.11 2031.57,-895.14"/>
</g>
<!-- 5335 -->
<g id="node8" class="node">
<title>5335</title>
<text text-anchor="middle" x="1732.29" y="-1031.85" font-family="Times,serif" font-size="14.00">https://github.com/jpr5/ngrep/blob/master/LICENSE</text>
</g>
<!-- 5335&#45;&gt;5329 -->
<g id="edge15" class="edge">
<title>5335&#45;&gt;5329</title>
<path fill="none" stroke="#dac767" d="M1714,-1019.19C1712.47,-1017.87 1710.85,-1016.54 1709.07,-1015.12"/>
<polygon fill="#dac767" stroke="#dac767" points="1711.31,-1012.42 1701.24,-1009.12 1707.05,-1017.98 1711.31,-1012.42"/>
</g>
<!-- 31312 -->
<g id="node14" class="node">
<title>31312</title>
<ellipse fill="none" stroke="#deb256" cx="1757.99" cy="-1092.56" rx="156.09" ry="28.99"/>
<text text-anchor="middle" x="1757.99" y="-1095.76" font-family="Times,serif" font-size="14.00" fill="gray">ScancodeData</text>
<text text-anchor="middle" x="1757.99" y="-1079.26" font-family="Times,serif" font-size="14.00" fill="gray">9f407ef64e0891dfb05b9ec39e2427e7</text>
</g>
<!-- 5335&#45;&gt;31312 -->
<g id="edge16" class="edge">
<title>5335&#45;&gt;31312</title>
<path fill="none" stroke="#deb256" d="M1744.62,-1054.85C1744.69,-1054.95 1744.75,-1055.05 1744.82,-1055.14"/>
<polygon fill="#deb256" stroke="#deb256" points="1740.78,-1055.32 1749.09,-1061.89 1746.7,-1051.57 1740.78,-1055.32"/>
</g>
<!-- 5550 -->
<g id="node9" class="node">
<title>5550</title>
<text text-anchor="middle" x="2088.4" y="-1261.31" font-family="Times,serif" font-size="14.00">LicenseType Permissive</text>
</g>
<!-- 5550&#45;&gt;31312 -->
<g id="edge17" class="edge">
<title>5550&#45;&gt;31312</title>
<path fill="none" stroke="#deb256" d="M2051.89,-1248.47C1991.15,-1218.57 1962.95,-1203.63 1819.03,-1125.65"/>
<polygon fill="#deb256" stroke="#deb256" points="1820.72,-1122.58 1810.26,-1120.9 1817.38,-1128.74 1820.72,-1122.58"/>
</g>
<!-- 6592 -->
<g id="node10" class="node">
<title>6592</title>
<text text-anchor="middle" x="1269.12" y="-147.41" font-family="Times,serif" font-size="14.00">[&quot;allowed&quot;]</text>
</g>
<!-- 9901 -->
<g id="node12" class="node">
<title>9901</title>
<ellipse fill="none" stroke="#e09d4b" cx="1468.24" cy="-268.29" rx="155.03" ry="28.99"/>
<text text-anchor="middle" x="1468.24" y="-271.49" font-family="Times,serif" font-size="14.00" fill="gray">FedoraEntry</text>
<text text-anchor="middle" x="1468.24" y="-254.99" font-family="Times,serif" font-size="14.00" fill="gray">4f88cc4e5bf0ac70715e4f3e18bc08b0</text>
</g>
<!-- 6592&#45;&gt;9901 -->
<g id="edge18" class="edge">
<title>6592&#45;&gt;9901</title>
<path fill="none" stroke="#e09d4b" d="M1308.8,-158.4C1378.37,-169.5 1395.83,-178.62 1438.4,-230.68"/>
<polygon fill="#e09d4b" stroke="#e09d4b" points="1435.5,-232.66 1444.51,-238.24 1440.94,-228.26 1435.5,-232.66"/>
</g>
<!-- 6593 -->
<g id="node11" class="node">
<title>6593</title>
<text text-anchor="start" x="1268.85" y="-103.78" font-family="Times,serif" font-size="14.00">Fedora: </text>
<text text-anchor="start" x="1313.85" y="-103.78" font-family="Times,serif" font-weight="bold" font-size="14.00" fill="#228b22">allowed</text>
<text text-anchor="start" x="1104.97" y="-89.78" font-family="Times,serif" font-size="14.00">A license is allowed if Fedora determines that the license is a free software /</text>
<text text-anchor="start" x="1099.72" y="-75.78" font-family="Times,serif" font-size="14.00">open source license. At a high level, the inquiry involves determining whether</text>
<text text-anchor="start" x="1098.6" y="-61.78" font-family="Times,serif" font-size="14.00">the license provides software freedom, and (equivalently) making sure that the</text>
<text text-anchor="start" x="1108.72" y="-47.78" font-family="Times,serif" font-size="14.00">license does not place burdens on users&#39; exercise of its permissions that are</text>
<text text-anchor="start" x="1108.35" y="-33.78" font-family="Times,serif" font-size="14.00">inconsistent with evolving community norms and traditions around what is</text>
<text text-anchor="start" x="1100.1" y="-19.78" font-family="Times,serif" font-size="14.00">acceptable in a free software / open source license. See below for more on the</text>
<text text-anchor="start" x="1220.1" y="-5.78" font-family="Times,serif" font-size="14.00">history of Fedora licensing policy.</text>
</g>
<!-- 6593&#45;&gt;6592 -->
<g id="edge19" class="edge">
<title>6593&#45;&gt;6592</title>
<path fill="none" stroke="#e09d4b" d="M1283.32,-120.07C1282.72,-121.42 1282.11,-122.82 1281.47,-124.26"/>
<polygon fill="#e09d4b" stroke="#e09d4b" points="1278.38,-122.61 1277.56,-133.17 1284.79,-125.42 1278.38,-122.61"/>
</g>
<!-- 9901&#45;&gt;9902 -->
<g id="edge20" class="edge">
<title>9901&#45;&gt;9902</title>
<path fill="none" stroke="#e09d4b" d="M1462.87,-297.7C1448.23,-375.29 1437.87,-395.7 1345.75,-548.06"/>
<polygon fill="#e09d4b" stroke="#e09d4b" points="1342.82,-546.14 1340.64,-556.51 1348.81,-549.76 1342.82,-546.14"/>
</g>
<!-- 31312&#45;&gt;31313 -->
<g id="edge21" class="edge">
<title>31312&#45;&gt;31313</title>
<path fill="none" stroke="#deb256" d="M1626.94,-1076.44C1590.13,-1066.49 1543.28,-1049.16 1460.48,-1017.35"/>
<polygon fill="#deb256" stroke="#deb256" points="1461.93,-1014.16 1451.34,-1013.84 1459.42,-1020.69 1461.93,-1014.16"/>
</g>
<!-- 31313&#45;&gt;53074 -->
<g id="edge22" class="edge">
<title>31313&#45;&gt;53074</title>
<path fill="none" stroke="#379469" stroke-dasharray="5,2" d="M1378.26,-1017.24C1340.86,-1051.66 1319.25,-1068.75 1289.99,-1077.15"/>
<polygon fill="#379469" stroke="#379469" points="1280.47,-1079.49 1289.11,-1072.74 1284.14,-1078.59 1290.18,-1077.11 1290.18,-1077.11 1290.18,-1077.11 1284.14,-1078.59 1291.25,-1081.48 1280.47,-1079.49"/>
</g>
<!-- 31314 -->
<g id="node16" class="node">
<title>31314</title>
<text text-anchor="middle" x="1915" y="-1367.89" font-family="Times,serif" font-size="14.00">$TEXT</text>
</g>
<!-- 31314&#45;&gt;31312 -->
<g id="edge23" class="edge">
<title>31314&#45;&gt;31312</title>
<path fill="none" stroke="#deb256" d="M1910.39,-1355.12C1889.93,-1276.79 1881.89,-1261.68 1786.08,-1130.85"/>
<polygon fill="#deb256" stroke="#deb256" points="1788.96,-1128.86 1780.23,-1122.87 1783.32,-1133 1788.96,-1128.86"/>
</g>
<!-- 35432 -->
<g id="node17" class="node">
<title>35432</title>
<text text-anchor="middle" x="410.32" y="-400.7" font-family="Times,serif" font-size="14.00">LicenseTag (ScopedLicenseTag &quot;OrtLicenseCategorization&quot; &quot;permissive&quot; NoLicenseTagText)</text>
</g>
<!-- 39976 -->
<g id="node19" class="node">
<title>39976</title>
<ellipse fill="none" stroke="#d43d51" cx="877.2" cy="-700.05" rx="160.87" ry="28.99"/>
<text text-anchor="middle" x="877.2" y="-703.25" font-family="Times,serif" font-size="14.00" fill="gray">OrtLicenseCategorization</text>
<text text-anchor="middle" x="877.2" y="-686.75" font-family="Times,serif" font-size="14.00" fill="gray">17a351554167b9533c85e89a053e7c30</text>
</g>
<!-- 35432&#45;&gt;39976 -->
<g id="edge24" class="edge">
<title>35432&#45;&gt;39976</title>
<path fill="none" stroke="#d43d51" d="M430.62,-423.75C532.11,-513.49 554.52,-527.88 815.49,-667.15"/>
<polygon fill="#d43d51" stroke="#d43d51" points="813.47,-670.04 823.94,-671.65 816.76,-663.86 813.47,-670.04"/>
</g>
<!-- 35433 -->
<g id="node18" class="node">
<title>35433</title>
<text text-anchor="middle" x="294.03" y="-732.94" font-family="Times,serif" font-size="14.00">LicenseTag (ScopedLicenseTag &quot;OrtLicenseCategorization&quot; &quot;include&#45;in&#45;notice&#45;file&quot; NoLicenseTagText)</text>
</g>
<!-- 35433&#45;&gt;39976 -->
<g id="edge25" class="edge">
<title>35433&#45;&gt;39976</title>
<path fill="none" stroke="#d43d51" d="M546.44,-719.99C588.87,-717.34 641.59,-714.15 712.85,-709.87"/>
<polygon fill="#d43d51" stroke="#d43d51" points="712.69,-713.39 722.46,-709.3 712.27,-706.4 712.69,-713.39"/>
</g>
<!-- 39976&#45;&gt;5330 -->
<g id="edge26" class="edge">
<title>39976&#45;&gt;5330</title>
<path fill="none" stroke="#d43d51" d="M913.75,-728.77C1038.86,-826.51 1067.34,-839.22 1202.56,-828.77"/>
<polygon fill="#d43d51" stroke="#d43d51" points="1202.59,-832.28 1212.28,-828 1202.03,-825.31 1202.59,-832.28"/>
</g>
<!-- 53073 -->
<g id="node20" class="node">
<title>53073</title>
<ellipse fill="none" stroke="#379469" cx="1086.28" cy="-1147.38" rx="157.15" ry="28.99"/>
<text text-anchor="middle" x="1086.28" y="-1150.58" font-family="Times,serif" font-size="14.00" fill="gray">MetaeffektLicense</text>
<text text-anchor="middle" x="1086.28" y="-1134.08" font-family="Times,serif" font-size="14.00" fill="gray">af1b09299870cc8e192b4ee0f79dd52c</text>
</g>
<!-- 53073&#45;&gt;53074 -->
<g id="edge27" class="edge">
<title>53073&#45;&gt;53074</title>
<path fill="none" stroke="#379469" d="M1133.81,-1119.26C1134.58,-1118.3 1135.37,-1117.3 1136.18,-1116.25"/>
<polygon fill="#379469" stroke="#379469" points="1138.88,-1118.49 1142.01,-1108.37 1133.25,-1114.33 1138.88,-1118.49"/>
</g>
<!-- 72603 -->
<g id="node22" class="node">
<title>72603</title>
<ellipse fill="none" stroke="#00876c" cx="1576.94" cy="-633.05" rx="159.28" ry="28.99"/>
<text text-anchor="middle" x="1576.94" y="-636.25" font-family="Times,serif" font-size="14.00" fill="gray">LicenseLynx</text>
<text text-anchor="middle" x="1576.94" y="-619.75" font-family="Times,serif" font-size="14.00" fill="gray">964a7dcd6b46a7554be7ebe34f7db57d</text>
</g>
<!-- 72603&#45;&gt;5330 -->
<g id="edge28" class="edge">
<title>72603&#45;&gt;5330</title>
<path fill="none" stroke="#00876c" d="M1554.25,-661.93C1501.9,-727.34 1479.75,-741.01 1336.24,-798.86"/>
<polygon fill="#00876c" stroke="#00876c" points="1335.07,-795.56 1327.1,-802.54 1337.68,-802.05 1335.07,-795.56"/>
</g>
<!-- 72604&#45;&gt;5330 -->
<g id="edge29" class="edge">
<title>72604&#45;&gt;5330</title>
<path fill="none" stroke="#00876c" stroke-width="2" d="M1079.41,-877.03C1147.68,-889.04 1172.84,-883.73 1231.67,-849.91"/>
<polygon fill="#00876c" stroke="#00876c" stroke-width="2" points="1238.9,-845.7 1232.52,-854.62 1236.94,-847.43 1230.51,-851.17 1230.26,-850.74 1230.01,-850.3 1236.43,-846.56 1227.99,-846.85 1238.9,-845.7"/>
</g>
</g>
</svg>
