<?xml version="1.0" encoding="UTF-8" standalone="no"?>
<!DOCTYPE svg PUBLIC "-//W3C//DTD SVG 1.1//EN"
 "http://www.w3.org/Graphics/SVG/1.1/DTD/svg11.dtd">
<!-- Generated by graphviz version 10.0.1 (0)
 -->
<!-- Pages: 1 -->
<svg width="2520pt" height="2110pt"
 viewBox="0.00 0.00 2520.00 2110.00" xmlns="http://www.w3.org/2000/svg" xmlns:xlink="http://www.w3.org/1999/xlink">
<g id="graph0" class="graph" transform="scale(1 1) rotate(0) translate(4 2106)">
<polygon fill="white" stroke="none" points="-4,4 -4,-2106 2516,-2106 2516,4 -4,4"/>
<!-- 5 -->
<g id="node1" class="node">
<title>5</title>
<text text-anchor="start" x="1212.18" y="-267.94" font-family="Times,serif" font-size="14.00">OSI: </text>
<text text-anchor="start" x="1241.43" y="-267.94" font-family="Times,serif" font-weight="bold" font-size="14.00" fill="#8b0000">Rejected</text>
</g>
<!-- 3453 -->
<g id="node2" class="node">
<title>3453</title>
<ellipse fill="none" stroke="#dac767" cx="1414.65" cy="-578.04" rx="158.22" ry="28.99"/>
<text text-anchor="middle" x="1414.65" y="-581.24" font-family="Times,serif" font-size="14.00" fill="gray">SPDXLicense</text>
<text text-anchor="middle" x="1414.65" y="-564.74" font-family="Times,serif" font-size="14.00" fill="gray">027960958f99422bca35311fea678e6d</text>
</g>
<!-- 5&#45;&gt;3453 -->
<g id="edge1" class="edge">
<title>5&#45;&gt;3453</title>
<path fill="none" stroke="#dac767" d="M1270.97,-289.9C1337.27,-352.82 1346.31,-370.7 1401.51,-538.09"/>
<polygon fill="#dac767" stroke="#dac767" points="1398.11,-538.96 1404.56,-547.36 1404.76,-536.77 1398.11,-538.96"/>
</g>
<!-- 3454 -->
<g id="node3" class="node">
<title>3454</title>
<polygon fill="none" stroke="black" points="1398.57,-1137.34 1398.57,-1152.25 1353.35,-1162.79 1289.41,-1162.79 1244.19,-1152.25 1244.19,-1137.34 1289.41,-1126.79 1353.35,-1126.79 1398.57,-1137.34"/>
<polygon fill="none" stroke="black" points="1402.57,-1134.16 1402.57,-1155.42 1353.81,-1166.79 1288.95,-1166.79 1240.19,-1155.42 1240.19,-1134.16 1288.95,-1122.79 1353.81,-1122.79 1402.57,-1134.16"/>
<polygon fill="none" stroke="black" points="1406.57,-1130.99 1406.57,-1158.6 1354.27,-1170.79 1288.49,-1170.79 1236.19,-1158.6 1236.19,-1130.99 1288.49,-1118.79 1354.27,-1118.79 1406.57,-1130.99"/>
<text text-anchor="middle" x="1321.38" y="-1139.74" font-family="Times,serif" font-size="14.00">spdx:NLOD&#45;2.0</text>
</g>
<!-- 3453&#45;&gt;3454 -->
<g id="edge2" class="edge">
<title>3453&#45;&gt;3454</title>
<path fill="none" stroke="#dac767" d="M1416.49,-607.23C1425.78,-758.16 1420.97,-782.2 1331.56,-1107.74"/>
<polygon fill="#dac767" stroke="#dac767" points="1328.29,-1106.42 1329.02,-1116.99 1335.04,-1108.28 1328.29,-1106.42"/>
</g>
<!-- 22610 -->
<g id="node12" class="node">
<title>22610</title>
<polygon fill="none" stroke="black" points="1385.82,-1067.5 1385.82,-1082.41 1336.06,-1092.95 1265.69,-1092.95 1215.94,-1082.41 1215.94,-1067.5 1265.69,-1056.95 1336.06,-1056.95 1385.82,-1067.5"/>
<polygon fill="none" stroke="black" points="1389.82,-1064.25 1389.82,-1085.65 1336.48,-1096.95 1265.27,-1096.95 1211.94,-1085.65 1211.94,-1064.25 1265.27,-1052.95 1336.48,-1052.95 1389.82,-1064.25"/>
<text text-anchor="middle" x="1300.88" y="-1069.9" font-family="Times,serif" font-size="14.00">scancode:nlod&#45;2.0</text>
</g>
<!-- 3454&#45;&gt;22610 -->
<g id="edge3" class="edge">
<title>3454&#45;&gt;22610</title>
<path fill="none" stroke="#deb256" stroke-width="2" d="M1320.42,-1118.54C1319.58,-1115.03 1318.61,-1111.39 1317.55,-1107.78"/>
<polygon fill="#deb256" stroke="#deb256" stroke-width="2" points="1314.88,-1099.51 1322.23,-1107.65 1316.14,-1101.8 1318.43,-1108.88 1317.95,-1109.03 1317.48,-1109.18 1315.19,-1102.11 1313.67,-1110.41 1314.88,-1099.51"/>
</g>
<!-- 53309 -->
<g id="node21" class="node">
<title>53309</title>
<polygon fill="none" stroke="#379469" points="1009.75,-1327.12 1009.75,-1342.03 854.2,-1352.58 634.22,-1352.58 478.67,-1342.03 478.67,-1327.12 634.22,-1316.58 854.2,-1316.58 1009.75,-1327.12"/>
<polygon fill="none" stroke="#379469" points="1013.75,-1323.38 1013.75,-1345.77 854.34,-1356.58 634.08,-1356.58 474.67,-1345.77 474.67,-1323.38 634.08,-1312.58 854.34,-1312.58 1013.75,-1323.38"/>
<text text-anchor="middle" x="744.21" y="-1329.53" font-family="Times,serif" font-size="14.00">metaeffekt:Norwegian Licence for Open Government Data 2.0</text>
</g>
<!-- 3454&#45;&gt;53309 -->
<g id="edge4" class="edge">
<title>3454&#45;&gt;53309</title>
<path fill="none" stroke="#379469" stroke-width="2" d="M1271.73,-1167.35C1070.37,-1258.78 987.97,-1295.05 912.65,-1312.93"/>
<polygon fill="#379469" stroke="#379469" stroke-width="2" points="904.43,-1314.79 913.19,-1308.19 906.82,-1313.74 914.07,-1312.09 914.18,-1312.58 914.29,-1313.07 907.04,-1314.71 915.18,-1316.97 904.43,-1314.79"/>
</g>
<!-- 3455 -->
<g id="node4" class="node">
<title>3455</title>
<polygon fill="none" stroke="black" points="1122.9,-902.83 1122.9,-917.74 1090.35,-928.29 1044.3,-928.29 1011.74,-917.74 1011.74,-902.83 1044.3,-892.29 1090.35,-892.29 1122.9,-902.83"/>
<polygon fill="none" stroke="black" points="1126.9,-899.92 1126.9,-920.65 1090.98,-932.29 1043.67,-932.29 1007.74,-920.65 1007.74,-899.92 1043.67,-888.29 1090.98,-888.29 1126.9,-899.92"/>
<text text-anchor="middle" x="1067.32" y="-905.24" font-family="Times,serif" font-size="14.00">NLOD&#45;2.0</text>
</g>
<!-- 3455&#45;&gt;3454 -->
<g id="edge5" class="edge">
<title>3455&#45;&gt;3454</title>
<path fill="none" stroke="black" stroke-width="2" d="M1082.5,-932.73C1126.76,-997.53 1143.49,-1012.84 1277.36,-1112.19"/>
<polygon fill="black" stroke="black" stroke-width="2" points="1284.4,-1117.41 1273.68,-1115.06 1282.04,-1116.28 1276.07,-1111.85 1276.36,-1111.45 1276.66,-1111.05 1282.63,-1115.48 1279.04,-1107.83 1284.4,-1117.41"/>
</g>
<!-- 3455&#45;&gt;22610 -->
<g id="edge6" class="edge">
<title>3455&#45;&gt;22610</title>
<path fill="none" stroke="black" stroke-width="2" d="M1098.47,-930.27C1139.28,-956.69 1161.44,-972.58 1261.4,-1045.96"/>
<polygon fill="black" stroke="black" stroke-width="2" points="1268.37,-1051.08 1257.65,-1048.79 1266.01,-1049.96 1260.01,-1045.56 1260.31,-1045.16 1260.61,-1044.76 1266.6,-1049.16 1262.97,-1041.53 1268.37,-1051.08"/>
</g>
<!-- 42028 -->
<g id="node19" class="node">
<title>42028</title>
<polygon fill="none" stroke="#379469" points="886.37,-704.63 886.37,-719.54 840.83,-730.09 776.43,-730.09 730.89,-719.54 730.89,-704.63 776.43,-694.09 840.83,-694.09 886.37,-704.63"/>
<polygon fill="none" stroke="#379469" points="890.37,-701.45 890.37,-722.72 841.29,-734.09 775.97,-734.09 726.89,-722.72 726.89,-701.45 775.97,-690.09 841.29,-690.09 890.37,-701.45"/>
<text text-anchor="middle" x="808.63" y="-707.04" font-family="Times,serif" font-size="14.00">cavil:NLOD&#45;2.0</text>
</g>
<!-- 3455&#45;&gt;42028 -->
<g id="edge7" class="edge">
<title>3455&#45;&gt;42028</title>
<path fill="none" stroke="#379469" stroke-width="2" d="M1039.62,-889.16C917.03,-795.66 889.59,-774.7 846.54,-741.42"/>
<polygon fill="#379469" stroke="#379469" stroke-width="2" points="839.61,-736.07 850.28,-738.62 841.95,-737.24 847.83,-741.79 847.52,-742.18 847.22,-742.58 841.33,-738.03 844.77,-745.74 839.61,-736.07"/>
</g>
<!-- 3456 -->
<g id="node5" class="node">
<title>3456</title>
<polygon fill="none" stroke="black" points="1464.04,-1201.66 1464.04,-1216.57 1313.69,-1227.12 1101.05,-1227.12 950.69,-1216.57 950.69,-1201.66 1101.05,-1191.12 1313.69,-1191.12 1464.04,-1201.66"/>
<polygon fill="none" stroke="black" points="1468.04,-1197.93 1468.04,-1220.3 1313.83,-1231.12 1100.91,-1231.12 946.69,-1220.3 946.69,-1197.93 1100.91,-1187.12 1313.83,-1187.12 1468.04,-1197.93"/>
<text text-anchor="middle" x="1207.37" y="-1204.07" font-family="Times,serif" font-size="14.00">Norwegian Licence for Open Government Data (NLOD) 2.0</text>
</g>
<!-- 3456&#45;&gt;3454 -->
<g id="edge8" class="edge">
<title>3456&#45;&gt;3454</title>
<path fill="none" stroke="#dac767" stroke-width="2" d="M1279.34,-1186.85C1282.13,-1184.51 1285.05,-1181.87 1288.18,-1178.89"/>
<polygon fill="#dac767" stroke="#dac767" stroke-width="2" points="1294.2,-1172.99 1290.21,-1183.21 1292.72,-1175.14 1287.41,-1180.35 1287.06,-1180 1286.71,-1179.64 1292.02,-1174.43 1283.91,-1176.79 1294.2,-1172.99"/>
</g>
<!-- 3456&#45;&gt;22610 -->
<g id="edge9" class="edge">
<title>3456&#45;&gt;22610</title>
<path fill="none" stroke="#deb256" stroke-width="2" d="M1235.76,-1186.78C1253.24,-1171.02 1262.52,-1154.97 1285.48,-1107.22"/>
<polygon fill="#deb256" stroke="#deb256" stroke-width="2" points="1289.21,-1099.44 1288.95,-1110.4 1288.56,-1101.97 1285.34,-1108.67 1284.89,-1108.46 1284.44,-1108.24 1287.66,-1101.54 1280.84,-1106.51 1289.21,-1099.44"/>
</g>
<!-- 3456&#45;&gt;53309 -->
<g id="edge10" class="edge">
<title>3456&#45;&gt;53309</title>
<path fill="none" stroke="#379469" stroke-dasharray="5,2" d="M1150.93,-1231.56C1041.92,-1274.83 978.42,-1299.36 929.53,-1313.52"/>
<polygon fill="#379469" stroke="#379469" points="920.16,-1316.15 928.58,-1309.11 923.81,-1315.12 929.79,-1313.45 929.79,-1313.45 929.79,-1313.45 923.81,-1315.12 931.01,-1317.78 920.16,-1316.15"/>
</g>
<!-- 65997 -->
<g id="node27" class="node">
<title>65997</title>
<polygon fill="none" stroke="#dc574a" points="1425.12,-1268.37 1425.12,-1283.29 1256.92,-1293.83 1019.04,-1293.83 850.83,-1283.29 850.83,-1268.37 1019.04,-1257.83 1256.92,-1257.83 1425.12,-1268.37"/>
<polygon fill="none" stroke="#dc574a" points="1429.12,-1264.62 1429.12,-1287.04 1257.04,-1297.83 1018.91,-1297.83 846.83,-1287.04 846.83,-1264.62 1018.91,-1253.83 1257.04,-1253.83 1429.12,-1264.62"/>
<text text-anchor="middle" x="1137.98" y="-1270.78" font-family="Times,serif" font-size="14.00">ifrOSS:Norwegian Licence for Open Government Data (NLOD) 2.0</text>
</g>
<!-- 3456&#45;&gt;65997 -->
<g id="edge11" class="edge">
<title>3456&#45;&gt;65997</title>
<path fill="none" stroke="#dc574a" stroke-width="2" d="M1188.92,-1231.24C1184.14,-1236.91 1180.14,-1241.57 1176.63,-1245.5"/>
<polygon fill="#dc574a" stroke="#dc574a" stroke-width="2" points="1170.88,-1251.65 1174.42,-1241.27 1172.27,-1249.44 1177.34,-1244 1177.71,-1244.34 1178.08,-1244.68 1173,-1250.12 1181,-1247.42 1170.88,-1251.65"/>
</g>
<!-- 67989 -->
<g id="node30" class="node">
<title>67989</title>
<polygon fill="none" stroke="#00876c" points="1737.54,-1678.91 1737.54,-1693.82 1574.53,-1704.37 1343.99,-1704.37 1180.98,-1693.82 1180.98,-1678.91 1343.99,-1668.37 1574.53,-1668.37 1737.54,-1678.91"/>
<polygon fill="none" stroke="#00876c" points="1741.54,-1675.16 1741.54,-1697.57 1574.66,-1708.37 1343.86,-1708.37 1176.98,-1697.57 1176.98,-1675.16 1343.86,-1664.37 1574.66,-1664.37 1741.54,-1675.16"/>
<text text-anchor="middle" x="1459.26" y="-1681.32" font-family="Times,serif" font-size="14.00">spdx:Norwegian Licence for Open Government Data (NLOD) 2.0</text>
</g>
<!-- 3456&#45;&gt;67989 -->
<g id="edge12" class="edge">
<title>3456&#45;&gt;67989</title>
<path fill="none" stroke="#00876c" stroke-width="2" d="M1216.82,-1231.34C1342.18,-1525.94 1354.88,-1553.73 1434.71,-1655.34"/>
<polygon fill="#00876c" stroke="#00876c" stroke-width="2" points="1440.1,-1662.18 1430.38,-1657.11 1438.12,-1660.47 1433.52,-1654.63 1433.91,-1654.32 1434.31,-1654.01 1438.91,-1659.86 1437.45,-1651.54 1440.1,-1662.18"/>
</g>
<!-- 3457 -->
<g id="node6" class="node">
<title>3457</title>
<text text-anchor="middle" x="1290.12" y="-45.57" font-family="Times,serif" font-size="14.00">SPDXLicense:</text>
<text text-anchor="middle" x="1290.12" y="-29.07" font-family="Times,serif" font-size="14.00">Norwegian translation available here: http://data.norge.no/nlod/no/2.0</text>
</g>
<!-- 3457&#45;&gt;3453 -->
<g id="edge13" class="edge">
<title>3457&#45;&gt;3453</title>
<path fill="none" stroke="#dac767" d="M1299.97,-62.85C1364.09,-196.51 1368.48,-216.63 1409.5,-537.71"/>
<polygon fill="#dac767" stroke="#dac767" points="1405.98,-537.8 1410.72,-547.27 1412.93,-536.91 1405.98,-537.8"/>
</g>
<!-- 3458 -->
<g id="node7" class="node">
<title>3458</title>
<text text-anchor="middle" x="1563.65" y="-214.29" font-family="Times,serif" font-size="14.00">$TEXT</text>
</g>
<!-- 3458&#45;&gt;3453 -->
<g id="edge14" class="edge">
<title>3458&#45;&gt;3453</title>
<path fill="none" stroke="#dac767" d="M1555.49,-237.26C1517.34,-321.14 1510.09,-338.64 1430.58,-538.07"/>
<polygon fill="#dac767" stroke="#dac767" points="1427.38,-536.65 1426.93,-547.24 1433.88,-539.24 1427.38,-536.65"/>
</g>
<!-- 3459 -->
<g id="node8" class="node">
<title>3459</title>
<text text-anchor="middle" x="1645.43" y="-12.8" font-family="Times,serif" font-size="14.00">$TEXT</text>
</g>
<!-- 3459&#45;&gt;3458 -->
<g id="edge15" class="edge">
<title>3459&#45;&gt;3458</title>
<path fill="none" stroke="#dac767" d="M1637.83,-35.65C1620.61,-76.02 1614.6,-90.92 1574.88,-191.04"/>
<polygon fill="#dac767" stroke="#dac767" points="1571.65,-189.67 1571.22,-200.26 1578.16,-192.25 1571.65,-189.67"/>
</g>
<!-- 3460 -->
<g id="node9" class="node">
<title>3460</title>
<text text-anchor="middle" x="1795.14" y="-509.58" font-family="Times,serif" font-size="14.00">http://data.norge.no/nlod/en/2.0</text>
</g>
<!-- 3460&#45;&gt;3453 -->
<g id="edge16" class="edge">
<title>3460&#45;&gt;3453</title>
<path fill="none" stroke="#dac767" d="M1701.51,-497.15C1643.61,-490.99 1602.06,-502.87 1491.27,-547.07"/>
<polygon fill="#dac767" stroke="#dac767" points="1490.08,-543.77 1482.09,-550.74 1492.68,-550.27 1490.08,-543.77"/>
</g>
<!-- 22609 -->
<g id="node11" class="node">
<title>22609</title>
<ellipse fill="none" stroke="#deb256" cx="1825.51" cy="-891.12" rx="160.34" ry="28.99"/>
<text text-anchor="middle" x="1825.51" y="-894.32" font-family="Times,serif" font-size="14.00" fill="gray">ScancodeData</text>
<text text-anchor="middle" x="1825.51" y="-877.82" font-family="Times,serif" font-size="14.00" fill="gray">9244e39325265c453626c6d79fe13442</text>
</g>
<!-- 3460&#45;&gt;22609 -->
<g id="edge17" class="edge">
<title>3460&#45;&gt;22609</title>
<path fill="none" stroke="#deb256" d="M1804.69,-532.53C1869.62,-654.49 1872.19,-670.55 1834.16,-850.46"/>
<polygon fill="#deb256" stroke="#deb256" points="1830.74,-849.71 1832.09,-860.22 1837.59,-851.16 1830.74,-849.71"/>
</g>
<!-- 5550 -->
<g id="node10" class="node">
<title>5550</title>
<text text-anchor="middle" x="2223.72" y="-820.98" font-family="Times,serif" font-size="14.00">LicenseType Permissive</text>
</g>
<!-- 5550&#45;&gt;22609 -->
<g id="edge18" class="edge">
<title>5550&#45;&gt;22609</title>
<path fill="none" stroke="#deb256" d="M2149.04,-834.39C2100.36,-840.42 2058.36,-847.58 1948.83,-867.99"/>
<polygon fill="#deb256" stroke="#deb256" points="1948.34,-864.52 1939.15,-869.8 1949.62,-871.41 1948.34,-864.52"/>
</g>
<!-- 22609&#45;&gt;22610 -->
<g id="edge19" class="edge">
<title>22609&#45;&gt;22610</title>
<path fill="none" stroke="#deb256" d="M1763.74,-918.23C1670.76,-958.4 1622.59,-974.32 1368.63,-1053.77"/>
<polygon fill="#deb256" stroke="#deb256" points="1367.9,-1050.33 1359.4,-1056.65 1369.99,-1057.01 1367.9,-1050.33"/>
</g>
<!-- 22610&#45;&gt;3454 -->
<g id="edge20" class="edge">
<title>22610&#45;&gt;3454</title>
<path fill="none" stroke="#00876c" stroke-width="2" d="M1300.95,-1097.28C1301.67,-1100.65 1302.54,-1104.2 1303.52,-1107.79"/>
<polygon fill="#00876c" stroke="#00876c" stroke-width="2" points="1306.03,-1116.14 1298.84,-1107.85 1304.82,-1113.82 1302.67,-1106.7 1303.15,-1106.56 1303.63,-1106.41 1305.77,-1113.54 1307.46,-1105.26 1306.03,-1116.14"/>
</g>
<!-- 22610&#45;&gt;53309 -->
<g id="edge21" class="edge">
<title>22610&#45;&gt;53309</title>
<path fill="none" stroke="#379469" stroke-dasharray="5,2" d="M1259.76,-1096.26C976.66,-1242.92 924.86,-1269.03 817.84,-1308.24"/>
<polygon fill="#379469" stroke="#379469" points="808.45,-1311.66 816.3,-1304.01 812,-1310.37 817.84,-1308.24 817.84,-1308.24 817.84,-1308.24 812,-1310.37 819.38,-1312.47 808.45,-1311.66"/>
</g>
<!-- 22611 -->
<g id="node13" class="node">
<title>22611</title>
<text text-anchor="middle" x="2168.37" y="-627.38" font-family="Times,serif" font-size="14.00">https://data.norge.no/nlod/en/2.0/</text>
</g>
<!-- 22611&#45;&gt;22609 -->
<g id="edge22" class="edge">
<title>22611&#45;&gt;22609</title>
<path fill="none" stroke="#deb256" d="M2151.74,-650.24C2082.16,-724.53 2063.66,-738.81 1879.32,-856.73"/>
<polygon fill="#deb256" stroke="#deb256" points="1877.66,-853.64 1871.12,-861.98 1881.43,-859.54 1877.66,-853.64"/>
</g>
<!-- 22612 -->
<g id="node14" class="node">
<title>22612</title>
<text text-anchor="middle" x="2149.57" y="-993.54" font-family="Times,serif" font-size="14.00">$TEXT</text>
</g>
<!-- 22612&#45;&gt;22609 -->
<g id="edge23" class="edge">
<title>22612&#45;&gt;22609</title>
<path fill="none" stroke="#deb256" d="M2122.91,-980.78C2069.82,-945.87 2044.68,-935.01 1946.74,-914.8"/>
<polygon fill="#deb256" stroke="#deb256" points="1947.72,-911.42 1937.22,-912.85 1946.32,-918.28 1947.72,-911.42"/>
</g>
<!-- 35432 -->
<g id="node15" class="node">
<title>35432</title>
<text text-anchor="middle" x="1951.45" y="-2078.8" font-family="Times,serif" font-size="14.00">LicenseTag (ScopedLicenseTag &quot;OrtLicenseCategorization&quot; &quot;permissive&quot; NoLicenseTagText)</text>
</g>
<!-- 39745 -->
<g id="node17" class="node">
<title>39745</title>
<ellipse fill="none" stroke="#d43d51" cx="1672.35" cy="-1525.4" rx="156.62" ry="28.99"/>
<text text-anchor="middle" x="1672.35" y="-1528.6" font-family="Times,serif" font-size="14.00" fill="gray">OrtLicenseCategorization</text>
<text text-anchor="middle" x="1672.35" y="-1512.1" font-family="Times,serif" font-size="14.00" fill="gray">9c4b6d645ccfa44281e6c3377e4c65f0</text>
</g>
<!-- 35432&#45;&gt;39745 -->
<g id="edge24" class="edge">
<title>35432&#45;&gt;39745</title>
<path fill="none" stroke="#d43d51" d="M1944.96,-2066.13C1887.95,-1910.61 1879.31,-1893.26 1694.36,-1564.52"/>
<polygon fill="#d43d51" stroke="#d43d51" points="1697.53,-1563.02 1689.58,-1556.02 1691.43,-1566.45 1697.53,-1563.02"/>
</g>
<!-- 35433 -->
<g id="node16" class="node">
<title>35433</title>
<text text-anchor="middle" x="2217.52" y="-1885.32" font-family="Times,serif" font-size="14.00">LicenseTag (ScopedLicenseTag &quot;OrtLicenseCategorization&quot; &quot;include&#45;in&#45;notice&#45;file&quot; NoLicenseTagText)</text>
</g>
<!-- 35433&#45;&gt;39745 -->
<g id="edge25" class="edge">
<title>35433&#45;&gt;39745</title>
<path fill="none" stroke="#d43d51" d="M2182.96,-1872.45C2045.08,-1800.73 2016.97,-1781.32 1719.42,-1560.36"/>
<polygon fill="#d43d51" stroke="#d43d51" points="1721.87,-1557.82 1711.76,-1554.67 1717.7,-1563.44 1721.87,-1557.82"/>
</g>
<!-- 39745&#45;&gt;3454 -->
<g id="edge26" class="edge">
<title>39745&#45;&gt;3454</title>
<path fill="none" stroke="#d43d51" d="M1644.13,-1496.44C1565.72,-1415.84 1543.06,-1391 1352.44,-1179.29"/>
<polygon fill="#d43d51" stroke="#d43d51" points="1355.31,-1177.25 1346.02,-1172.16 1350.11,-1181.93 1355.31,-1177.25"/>
</g>
<!-- 42027 -->
<g id="node18" class="node">
<title>42027</title>
<ellipse fill="none" stroke="#379469" cx="480.38" cy="-459.07" rx="155.03" ry="28.99"/>
<text text-anchor="middle" x="480.38" y="-462.27" font-family="Times,serif" font-size="14.00" fill="gray">CavilLicenseChange</text>
<text text-anchor="middle" x="480.38" y="-445.77" font-family="Times,serif" font-size="14.00" fill="gray">63d8797f2fc91e75bedeaeb785fbedbc</text>
</g>
<!-- 42027&#45;&gt;42028 -->
<g id="edge27" class="edge">
<title>42027&#45;&gt;42028</title>
<path fill="none" stroke="#379469" d="M516.89,-487.43C578.6,-535.37 606.95,-557.18 770.62,-682.89"/>
<polygon fill="#379469" stroke="#379469" points="768.27,-685.5 778.33,-688.81 772.53,-679.95 768.27,-685.5"/>
</g>
<!-- 53308 -->
<g id="node20" class="node">
<title>53308</title>
<ellipse fill="none" stroke="#379469" cx="160.46" cy="-1582.69" rx="156.62" ry="28.99"/>
<text text-anchor="middle" x="160.46" y="-1585.89" font-family="Times,serif" font-size="14.00" fill="gray">MetaeffektLicense</text>
<text text-anchor="middle" x="160.46" y="-1569.39" font-family="Times,serif" font-size="14.00" fill="gray">c60792d086c27c0240ca71eff94eb7a6</text>
</g>
<!-- 53308&#45;&gt;53309 -->
<g id="edge28" class="edge">
<title>53308&#45;&gt;53309</title>
<path fill="none" stroke="#379469" d="M230.56,-1556.44C341.01,-1514.7 393.14,-1491.82 683.96,-1361.57"/>
<polygon fill="#379469" stroke="#379469" points="685.33,-1364.79 693.03,-1357.51 682.47,-1358.4 685.33,-1364.79"/>
</g>
<!-- 53310 -->
<g id="node22" class="node">
<title>53310</title>
<polygon fill="none" stroke="#379469" points="508.9,-1868.19 508.9,-1883.1 380.28,-1893.64 198.39,-1893.64 69.78,-1883.1 69.78,-1868.19 198.39,-1857.64 380.28,-1857.64 508.9,-1868.19"/>
<polygon fill="none" stroke="#379469" points="512.9,-1864.5 512.9,-1886.78 380.45,-1897.64 198.23,-1897.64 65.78,-1886.78 65.78,-1864.5 198.23,-1853.64 380.45,-1853.64 512.9,-1864.5"/>
<text text-anchor="middle" x="289.34" y="-1870.59" font-family="Times,serif" font-size="14.00">Norwegian Licence for Open Government Data 2.0</text>
</g>
<!-- 53310&#45;&gt;53309 -->
<g id="edge29" class="edge">
<title>53310&#45;&gt;53309</title>
<path fill="none" stroke="#379469" stroke-width="2" d="M303.17,-1853.19C401.16,-1694.29 417.03,-1676 715.15,-1364.9"/>
<polygon fill="#379469" stroke="#379469" stroke-width="2" points="721.01,-1358.79 717.34,-1369.12 719.6,-1360.98 714.45,-1366.35 714.09,-1366.01 713.73,-1365.66 718.87,-1360.29 710.84,-1362.89 721.01,-1358.79"/>
</g>
<!-- 53311 -->
<g id="node23" class="node">
<title>53311</title>
<polygon fill="none" stroke="#379469" points="518.53,-1424.17 518.53,-1439.08 495.39,-1449.63 462.65,-1449.63 439.5,-1439.08 439.5,-1424.17 462.65,-1413.63 495.39,-1413.63 518.53,-1424.17"/>
<text text-anchor="middle" x="479.02" y="-1426.58" font-family="Times,serif" font-size="14.00">NLOD</text>
</g>
<!-- 53311&#45;&gt;53309 -->
<g id="edge30" class="edge">
<title>53311&#45;&gt;53309</title>
<path fill="none" stroke="#379469" stroke-dasharray="5,2" d="M514.45,-1421.77C557.95,-1409.35 582.77,-1400.11 678.96,-1361.11"/>
<polygon fill="#379469" stroke="#379469" points="688,-1357.44 680.42,-1365.37 684.49,-1358.86 678.73,-1361.2 678.73,-1361.2 678.73,-1361.2 684.49,-1358.86 677.04,-1357.03 688,-1357.44"/>
</g>
<!-- 53312 -->
<g id="node24" class="node">
<title>53312</title>
<polygon fill="none" stroke="#379469" points="276.96,-1270.03 276.96,-1284.94 195.72,-1295.49 80.83,-1295.49 -0.4,-1284.94 -0.4,-1270.03 80.83,-1259.49 195.72,-1259.49 276.96,-1270.03"/>
<text text-anchor="middle" x="138.28" y="-1272.44" font-family="Times,serif" font-size="14.00">http://data.norge.no/nlod/en/2.0</text>
</g>
<!-- 53312&#45;&gt;53309 -->
<g id="edge31" class="edge">
<title>53312&#45;&gt;53309</title>
<path fill="none" stroke="#379469" stroke-dasharray="5,2" d="M191.86,-1295.93C283.43,-1326.73 331.63,-1336.75 463.51,-1337.96"/>
<polygon fill="#379469" stroke="#379469" points="473.19,-1338.03 463.16,-1342.46 469.41,-1338 463.19,-1337.96 463.19,-1337.96 463.19,-1337.96 469.41,-1338 463.22,-1333.46 473.19,-1338.03"/>
</g>
<!-- 65933 -->
<g id="node25" class="node">
<title>65933</title>
<text text-anchor="start" x="1053.3" y="-1440.65" font-family="Times,serif" font-size="14.00">ifrOSS Classification: </text>
<text text-anchor="start" x="1176.3" y="-1440.65" font-family="Times,serif" font-weight="bold" font-size="14.00" fill="#000000">Open Data Lizenzen</text>
<text text-anchor="start" x="959.92" y="-1426.65" font-family="Times,serif" font-size="14.00">Dies ist eine Übersicht freier Lizenzen für Datenbanken. Einen Überblick zum</text>
<text text-anchor="start" x="966.67" y="-1412.65" font-family="Times,serif" font-size="14.00">Thema findet sich unter http://opendefinition.org/guide/data/. Zur speziellen</text>
<text text-anchor="start" x="1118.55" y="-1398.65" font-family="Times,serif" font-size="14.00">Situation in Kanada:</text>
<text text-anchor="start" x="970.05" y="-1384.65" font-family="Times,serif" font-size="14.00">http://www.opennorth.ca/2012/09/19/lessons&#45;from&#45;represent&#45;licenses.html.</text>
</g>
<!-- 65996 -->
<g id="node26" class="node">
<title>65996</title>
<ellipse fill="none" stroke="#dc574a" cx="1210.63" cy="-1340.38" rx="159.28" ry="28.99"/>
<text text-anchor="middle" x="1210.63" y="-1343.58" font-family="Times,serif" font-size="14.00" fill="gray">ifrOSS License</text>
<text text-anchor="middle" x="1210.63" y="-1327.08" font-family="Times,serif" font-size="14.00" fill="gray">ba1194f0d3c3e428a3bb4a886dd30c69</text>
</g>
<!-- 65933&#45;&gt;65996 -->
<g id="edge32" class="edge">
<title>65933&#45;&gt;65996</title>
<path fill="none" stroke="#dc574a" d="M1195.49,-1379.24C1195.53,-1379.15 1195.57,-1379.06 1195.6,-1378.97"/>
<polygon fill="#dc574a" stroke="#dc574a" points="1198.33,-1381.57 1198.79,-1370.99 1191.83,-1378.98 1198.33,-1381.57"/>
</g>
<!-- 65996&#45;&gt;65997 -->
<g id="edge33" class="edge">
<title>65996&#45;&gt;65997</title>
<path fill="none" stroke="#dc574a" d="M1161.32,-1312.55C1160.2,-1311.09 1159.06,-1309.51 1157.87,-1307.81"/>
<polygon fill="#dc574a" stroke="#dc574a" points="1160.81,-1305.91 1152.4,-1299.47 1154.96,-1309.75 1160.81,-1305.91"/>
</g>
<!-- 65998 -->
<g id="node28" class="node">
<title>65998</title>
<text text-anchor="middle" x="1085.77" y="-1749.8" font-family="Times,serif" font-size="14.00">https://data.norge.no/nlod/en/2.0</text>
</g>
<!-- 65998&#45;&gt;65996 -->
<g id="edge34" class="edge">
<title>65998&#45;&gt;65996</title>
<path fill="none" stroke="#dc574a" d="M1092.15,-1737.06C1128.12,-1636.82 1133.45,-1619.06 1199.51,-1380.55"/>
<polygon fill="#dc574a" stroke="#dc574a" points="1202.79,-1381.8 1202.09,-1371.23 1196.05,-1379.93 1202.79,-1381.8"/>
</g>
<!-- 67988 -->
<g id="node29" class="node">
<title>67988</title>
<ellipse fill="none" stroke="#00876c" cx="1695.62" cy="-1257.34" rx="158.75" ry="28.99"/>
<text text-anchor="middle" x="1695.62" y="-1260.54" font-family="Times,serif" font-size="14.00" fill="gray">LicenseLynx</text>
<text text-anchor="middle" x="1695.62" y="-1244.04" font-family="Times,serif" font-size="14.00" fill="gray">52d7db0cd0fcd73b7813d30c57af898b</text>
</g>
<!-- 67988&#45;&gt;3454 -->
<g id="edge35" class="edge">
<title>67988&#45;&gt;3454</title>
<path fill="none" stroke="#00876c" d="M1580.27,-1237.06C1539.02,-1226.19 1489.05,-1208.06 1387.88,-1169.92"/>
<polygon fill="#00876c" stroke="#00876c" points="1389.28,-1166.71 1378.69,-1166.46 1386.81,-1173.26 1389.28,-1166.71"/>
</g>
<!-- 67989&#45;&gt;3454 -->
<g id="edge36" class="edge">
<title>67989&#45;&gt;3454</title>
<path fill="none" stroke="#00876c" stroke-width="2" d="M1455.19,-1664.07C1429.67,-1524.78 1424.29,-1504.21 1331.97,-1181.78"/>
<polygon fill="#00876c" stroke="#00876c" stroke-width="2" points="1329.6,-1173.51 1336.68,-1181.88 1330.79,-1175.83 1332.83,-1182.98 1332.35,-1183.12 1331.87,-1183.26 1329.83,-1176.11 1328.03,-1184.36 1329.6,-1173.51"/>
</g>
</g>
</svg>
