<?xml version="1.0" encoding="UTF-8" standalone="no"?>
<!DOCTYPE svg PUBLIC "-//W3C//DTD SVG 1.1//EN"
 "http://www.w3.org/Graphics/SVG/1.1/DTD/svg11.dtd">
<!-- Generated by graphviz version 10.0.1 (0)
 -->
<!-- Pages: 1 -->
<svg width="1208pt" height="615pt"
 viewBox="0.00 0.00 1208.00 615.00" xmlns="http://www.w3.org/2000/svg" xmlns:xlink="http://www.w3.org/1999/xlink">
<g id="graph0" class="graph" transform="scale(1 1) rotate(0) translate(4 611)">
<polygon fill="white" stroke="none" points="-4,4 -4,-611 1204,-611 1204,4 -4,4"/>
<!-- 3136 -->
<g id="node1" class="node">
<title>3136</title>
<ellipse fill="none" stroke="#b8bf62" cx="598.01" cy="-268.13" rx="160.87" ry="28.99"/>
<text text-anchor="middle" x="598.01" y="-271.33" font-family="Times,serif" font-size="14.00" fill="gray">SPDXLicense</text>
<text text-anchor="middle" x="598.01" y="-254.83" font-family="Times,serif" font-size="14.00" fill="gray">0335199f8b8ad46b2a28971ddd7c81b5</text>
</g>
<!-- 3137 -->
<g id="node2" class="node">
<title>3137</title>
<polygon fill="none" stroke="black" points="678.84,-323.69 678.84,-338.6 643.36,-349.15 593.18,-349.15 557.7,-338.6 557.7,-323.69 593.18,-313.15 643.36,-313.15 678.84,-323.69"/>
<polygon fill="none" stroke="black" points="682.84,-320.71 682.84,-341.59 643.94,-353.15 592.6,-353.15 553.7,-341.59 553.7,-320.71 592.6,-309.15 643.94,-309.15 682.84,-320.71"/>
<polygon fill="none" stroke="black" points="686.84,-317.72 686.84,-344.57 644.52,-357.15 592.02,-357.15 549.7,-344.57 549.7,-317.72 592.02,-305.15 644.52,-305.15 686.84,-317.72"/>
<text text-anchor="middle" x="618.27" y="-326.1" font-family="Times,serif" font-size="14.00">spdx:NTP&#45;0</text>
</g>
<!-- 3136&#45;&gt;3137 -->
<g id="edge1" class="edge">
<title>3136&#45;&gt;3137</title>
<path fill="none" stroke="#b8bf62" d="M617.65,-297.26C617.69,-297.4 617.73,-297.55 617.76,-297.7"/>
<polygon fill="#b8bf62" stroke="#b8bf62" points="613.71,-294.1 618.6,-303.5 620.63,-293.1 613.71,-294.1"/>
</g>
<!-- 3138 -->
<g id="node3" class="node">
<title>3138</title>
<polygon fill="none" stroke="black" points="670.56,-381.5 670.56,-396.42 647.73,-406.96 615.46,-406.96 592.63,-396.42 592.63,-381.5 615.46,-370.96 647.73,-370.96 670.56,-381.5"/>
<polygon fill="none" stroke="black" points="674.56,-378.95 674.56,-398.97 648.61,-410.96 614.58,-410.96 588.63,-398.97 588.63,-378.95 614.58,-366.96 648.61,-366.96 674.56,-378.95"/>
<text text-anchor="middle" x="631.59" y="-383.91" font-family="Times,serif" font-size="14.00">NTP&#45;0</text>
</g>
<!-- 3138&#45;&gt;3137 -->
<g id="edge2" class="edge">
<title>3138&#45;&gt;3137</title>
<path fill="none" stroke="black" stroke-width="2" d="M628.2,-366.81C628.18,-366.72 628.16,-366.64 628.14,-366.56"/>
<polygon fill="black" stroke="black" stroke-width="2" points="626.34,-359.67 633.22,-368.21 627.47,-362.02 629.35,-369.22 628.86,-369.34 628.38,-369.47 626.5,-362.27 624.51,-370.48 626.34,-359.67"/>
</g>
<!-- 20806 -->
<g id="node6" class="node">
<title>20806</title>
<polygon fill="none" stroke="#dac767" points="866.83,-511.83 866.83,-526.74 824.54,-537.28 764.72,-537.28 722.43,-526.74 722.43,-511.83 764.72,-501.28 824.54,-501.28 866.83,-511.83"/>
<polygon fill="none" stroke="#dac767" points="870.83,-508.7 870.83,-529.87 825.03,-541.28 764.23,-541.28 718.43,-529.87 718.43,-508.7 764.23,-497.28 825.03,-497.28 870.83,-508.7"/>
<text text-anchor="middle" x="794.63" y="-514.23" font-family="Times,serif" font-size="14.00">scancode:ntp&#45;0</text>
</g>
<!-- 3138&#45;&gt;20806 -->
<g id="edge3" class="edge">
<title>3138&#45;&gt;20806</title>
<path fill="none" stroke="#dac767" stroke-width="2" d="M653.36,-409.08C706.6,-458.24 728.04,-477.49 749.43,-492.23"/>
<polygon fill="#dac767" stroke="#dac767" stroke-width="2" points="756.66,-497 745.83,-495.24 754.24,-496 748.04,-491.91 748.31,-491.49 748.59,-491.07 754.8,-495.17 750.79,-487.73 756.66,-497"/>
</g>
<!-- 28141 -->
<g id="node8" class="node">
<title>28141</title>
<polygon fill="none" stroke="#e18745" points="899.24,-405.67 899.24,-420.58 852.08,-431.12 785.38,-431.12 738.22,-420.58 738.22,-405.67 785.38,-395.12 852.08,-395.12 899.24,-405.67"/>
<polygon fill="none" stroke="#e18745" points="903.24,-402.46 903.24,-423.78 852.52,-435.12 784.94,-435.12 734.22,-423.78 734.22,-402.46 784.94,-391.12 852.52,-391.12 903.24,-402.46"/>
<text text-anchor="middle" x="818.73" y="-408.07" font-family="Times,serif" font-size="14.00">fossology:NTP&#45;0</text>
</g>
<!-- 3138&#45;&gt;28141 -->
<g id="edge4" class="edge">
<title>3138&#45;&gt;28141</title>
<path fill="none" stroke="#e18745" stroke-width="2" d="M672.15,-400.5C693.49,-406.51 709.85,-410.9 723.3,-413.96"/>
<polygon fill="#e18745" stroke="#e18745" stroke-width="2" points="731.57,-415.71 720.85,-418.04 728.96,-415.67 721.68,-414.13 721.79,-413.64 721.89,-413.15 729.17,-414.69 722.72,-409.24 731.57,-415.71"/>
</g>
<!-- 37284 -->
<g id="node12" class="node">
<title>37284</title>
<polygon fill="none" stroke="#379469" points="502.86,-350.46 502.86,-365.37 467.05,-375.91 416.42,-375.91 380.61,-365.37 380.61,-350.46 416.42,-339.91 467.05,-339.91 502.86,-350.46"/>
<polygon fill="none" stroke="#379469" points="506.86,-347.46 506.86,-368.36 467.63,-379.91 415.84,-379.91 376.61,-368.36 376.61,-347.46 415.84,-335.91 467.63,-335.91 506.86,-347.46"/>
<text text-anchor="middle" x="441.74" y="-352.86" font-family="Times,serif" font-size="14.00">cavil:NTP&#45;0</text>
</g>
<!-- 3138&#45;&gt;37284 -->
<g id="edge5" class="edge">
<title>3138&#45;&gt;37284</title>
<path fill="none" stroke="#379469" stroke-width="2" d="M588.35,-393.48C532.66,-398.89 512.25,-397.88 484.02,-383.4"/>
<polygon fill="#379469" stroke="#379469" stroke-width="2" points="476.66,-379.38 487.59,-380.22 479.15,-380.17 485.67,-383.73 485.44,-384.17 485.2,-384.61 478.67,-381.05 483.28,-388.12 476.66,-379.38"/>
</g>
<!-- 3139 -->
<g id="node4" class="node">
<title>3139</title>
<polygon fill="none" stroke="black" points="897.67,-457.7 897.67,-472.61 844.02,-483.15 768.14,-483.15 714.49,-472.61 714.49,-457.7 768.14,-447.15 844.02,-447.15 897.67,-457.7"/>
<polygon fill="none" stroke="black" points="901.67,-454.41 901.67,-475.9 844.4,-487.15 767.75,-487.15 710.49,-475.9 710.49,-454.41 767.75,-443.15 844.4,-443.15 901.67,-454.41"/>
<text text-anchor="middle" x="806.08" y="-460.1" font-family="Times,serif" font-size="14.00">NTP No Attribution</text>
</g>
<!-- 3139&#45;&gt;3137 -->
<g id="edge6" class="edge">
<title>3139&#45;&gt;3137</title>
<path fill="none" stroke="#b8bf62" stroke-width="2" d="M771.12,-442.74C744.83,-425.49 723.88,-410.18 659.63,-362.12"/>
<polygon fill="#b8bf62" stroke="#b8bf62" stroke-width="2" points="652.66,-356.9 663.37,-359.29 655.02,-358.04 660.97,-362.49 660.67,-362.89 660.37,-363.29 654.42,-358.84 657.98,-366.5 652.66,-356.9"/>
</g>
<!-- 3139&#45;&gt;20806 -->
<g id="edge7" class="edge">
<title>3139&#45;&gt;20806</title>
<path fill="none" stroke="#dac767" stroke-width="2" d="M807.24,-487.37C807.24,-487.49 807.24,-487.62 807.24,-487.74"/>
<polygon fill="#dac767" stroke="#dac767" stroke-width="2" points="806.71,-494.8 802.97,-484.49 806.4,-492.2 806.96,-484.79 807.45,-484.83 807.95,-484.86 807.4,-492.28 811.94,-485.16 806.71,-494.8"/>
</g>
<!-- 3139&#45;&gt;28141 -->
<g id="edge8" class="edge">
<title>3139&#45;&gt;28141</title>
<path fill="none" stroke="#e18745" stroke-width="2" d="M819.31,-442.85C819.34,-442.71 819.37,-442.57 819.4,-442.43"/>
<polygon fill="#e18745" stroke="#e18745" stroke-width="2" points="819.84,-437.89 823.35,-448.28 820.09,-440.49 819.37,-447.89 818.87,-447.84 818.38,-447.79 819.1,-440.39 814.4,-447.41 819.84,-437.89"/>
</g>
<!-- 20805 -->
<g id="node5" class="node">
<title>20805</title>
<ellipse fill="none" stroke="#dac767" cx="800.83" cy="-578.33" rx="160.87" ry="28.99"/>
<text text-anchor="middle" x="800.83" y="-581.53" font-family="Times,serif" font-size="14.00" fill="gray">ScancodeData</text>
<text text-anchor="middle" x="800.83" y="-565.03" font-family="Times,serif" font-size="14.00" fill="gray">d8b910065c01333f640d673e8c438b29</text>
</g>
<!-- 20805&#45;&gt;20806 -->
<g id="edge9" class="edge">
<title>20805&#45;&gt;20806</title>
<path fill="none" stroke="#dac767" d="M802.29,-549.23C802.26,-549.09 802.24,-548.95 802.21,-548.82"/>
<polygon fill="#dac767" stroke="#dac767" points="806.58,-552.23 800.94,-543.26 799.75,-553.79 806.58,-552.23"/>
</g>
<!-- 28140 -->
<g id="node7" class="node">
<title>28140</title>
<ellipse fill="none" stroke="#e18745" cx="1043.72" cy="-345.9" rx="156.62" ry="28.99"/>
<text text-anchor="middle" x="1043.72" y="-349.1" font-family="Times,serif" font-size="14.00" fill="gray">Fossology</text>
<text text-anchor="middle" x="1043.72" y="-332.6" font-family="Times,serif" font-size="14.00" fill="gray">6a6a4afc4fc8e7033de3418d5e5d9021</text>
</g>
<!-- 28140&#45;&gt;28141 -->
<g id="edge10" class="edge">
<title>28140&#45;&gt;28141</title>
<path fill="none" stroke="#e18745" d="M998.53,-374.01C976.23,-385.73 954.81,-391.75 910.25,-399.25"/>
<polygon fill="#e18745" stroke="#e18745" points="909.87,-395.76 900.57,-400.84 911,-402.67 909.87,-395.76"/>
</g>
<!-- 35106 -->
<g id="node9" class="node">
<title>35106</title>
<ellipse fill="none" stroke="#e06f45" cx="397.88" cy="-539.75" rx="155.03" ry="28.99"/>
<text text-anchor="middle" x="397.88" y="-542.95" font-family="Times,serif" font-size="14.00" fill="gray">OrtLicenseCategorization</text>
<text text-anchor="middle" x="397.88" y="-526.45" font-family="Times,serif" font-size="14.00" fill="gray">328da6fe1f65d9df5303119831ffd0b1</text>
</g>
<!-- 35106&#45;&gt;3137 -->
<g id="edge11" class="edge">
<title>35106&#45;&gt;3137</title>
<path fill="none" stroke="#e06f45" d="M436.71,-511.29C475.1,-482.09 498.06,-458.86 585.67,-365.81"/>
<polygon fill="#e06f45" stroke="#e06f45" points="588.15,-368.27 592.46,-358.59 583.06,-363.48 588.15,-368.27"/>
</g>
<!-- 36222 -->
<g id="node10" class="node">
<title>36222</title>
<ellipse fill="none" stroke="#e09d4b" cx="616.18" cy="-28.81" rx="156.09" ry="28.99"/>
<text text-anchor="middle" x="616.18" y="-32.01" font-family="Times,serif" font-size="14.00" fill="gray">OrtLicenseCategorization</text>
<text text-anchor="middle" x="616.18" y="-15.51" font-family="Times,serif" font-size="14.00" fill="gray">7364e286a4fdfd450b78d88fe9466f38</text>
</g>
<!-- 36222&#45;&gt;3137 -->
<g id="edge12" class="edge">
<title>36222&#45;&gt;3137</title>
<path fill="none" stroke="#e09d4b" d="M619.15,-58.06C625.03,-118.46 624.78,-141.87 619.56,-293.89"/>
<polygon fill="#e09d4b" stroke="#e09d4b" points="616.07,-293.43 619.23,-303.55 623.07,-293.67 616.07,-293.43"/>
</g>
<!-- 37283 -->
<g id="node11" class="node">
<title>37283</title>
<ellipse fill="none" stroke="#379469" cx="154.74" cy="-301.37" rx="155.03" ry="28.99"/>
<text text-anchor="middle" x="154.74" y="-304.57" font-family="Times,serif" font-size="14.00" fill="gray">CavilLicenseChange</text>
<text text-anchor="middle" x="154.74" y="-288.07" font-family="Times,serif" font-size="14.00" fill="gray">f9d4be3ba10cc5eabf861f1227d7e1a7</text>
</g>
<!-- 37283&#45;&gt;37284 -->
<g id="edge13" class="edge">
<title>37283&#45;&gt;37284</title>
<path fill="none" stroke="#379469" d="M227.99,-327.3C257.92,-335.37 292.53,-340.42 365.3,-349.04"/>
<polygon fill="#379469" stroke="#379469" points="364.47,-352.47 374.82,-350.16 365.29,-345.52 364.47,-352.47"/>
</g>
</g>
</svg>
