<?xml version="1.0" encoding="UTF-8" standalone="no"?>
<!DOCTYPE svg PUBLIC "-//W3C//DTD SVG 1.1//EN"
 "http://www.w3.org/Graphics/SVG/1.1/DTD/svg11.dtd">
<!-- Generated by graphviz version 10.0.1 (0)
 -->
<!-- Pages: 1 -->
<svg width="1557pt" height="1619pt"
 viewBox="0.00 0.00 1557.00 1619.00" xmlns="http://www.w3.org/2000/svg" xmlns:xlink="http://www.w3.org/1999/xlink">
<g id="graph0" class="graph" transform="scale(1 1) rotate(0) translate(4 1615)">
<polygon fill="white" stroke="none" points="-4,4 -4,-1615 1553,-1615 1553,4 -4,4"/>
<!-- 3202 -->
<g id="node1" class="node">
<title>3202</title>
<ellipse fill="none" stroke="#b8bf62" cx="161.15" cy="-852.79" rx="160.87" ry="28.99"/>
<text text-anchor="middle" x="161.15" y="-855.99" font-family="Times,serif" font-size="14.00" fill="gray">SPDXLicense</text>
<text text-anchor="middle" x="161.15" y="-839.49" font-family="Times,serif" font-size="14.00" fill="gray">827da11ddb50cf73524217530163be64</text>
</g>
<!-- 3203 -->
<g id="node2" class="node">
<title>3203</title>
<polygon fill="none" stroke="black" points="611.48,-796.56 611.48,-811.47 563.67,-822.02 496.05,-822.02 448.24,-811.47 448.24,-796.56 496.05,-786.02 563.67,-786.02 611.48,-796.56"/>
<polygon fill="none" stroke="black" points="615.48,-793.35 615.48,-814.69 564.1,-826.02 495.62,-826.02 444.24,-814.69 444.24,-793.35 495.62,-782.02 564.1,-782.02 615.48,-793.35"/>
<polygon fill="none" stroke="black" points="619.48,-790.14 619.48,-817.9 564.54,-830.02 495.18,-830.02 440.24,-817.9 440.24,-790.14 495.18,-778.02 564.54,-778.02 619.48,-790.14"/>
<text text-anchor="middle" x="529.86" y="-798.97" font-family="Times,serif" font-size="14.00">spdx:O&#45;UDA&#45;1.0</text>
</g>
<!-- 3202&#45;&gt;3203 -->
<g id="edge1" class="edge">
<title>3202&#45;&gt;3203</title>
<path fill="none" stroke="#b8bf62" d="M279.56,-832.76C313.15,-828.14 355.71,-823.21 428.42,-815.17"/>
<polygon fill="#b8bf62" stroke="#b8bf62" points="428.8,-818.65 438.36,-814.07 428.03,-811.69 428.8,-818.65"/>
</g>
<!-- 46571 -->
<g id="node13" class="node">
<title>46571</title>
<polygon fill="none" stroke="#00876c" points="979.89,-1111.63 979.89,-1126.55 866.85,-1137.09 706.99,-1137.09 593.95,-1126.55 593.95,-1111.63 706.99,-1101.09 866.85,-1101.09 979.89,-1111.63"/>
<polygon fill="none" stroke="#00876c" points="983.89,-1107.99 983.89,-1130.19 867.04,-1141.09 706.81,-1141.09 589.95,-1130.19 589.95,-1107.99 706.81,-1097.09 867.04,-1097.09 983.89,-1107.99"/>
<text text-anchor="middle" x="786.92" y="-1114.04" font-family="Times,serif" font-size="14.00">metaeffekt:Open Use of Data Agreement 1.0</text>
</g>
<!-- 3203&#45;&gt;46571 -->
<g id="edge2" class="edge">
<title>3203&#45;&gt;46571</title>
<path fill="none" stroke="#00876c" stroke-width="2" d="M539.31,-830.33C602.01,-1004.37 614.66,-1027.21 734.51,-1091.53"/>
<polygon fill="#00876c" stroke="#00876c" stroke-width="2" points="741.95,-1095.5 731.01,-1094.76 739.45,-1094.74 732.89,-1091.23 733.13,-1090.79 733.36,-1090.35 739.92,-1093.85 735.24,-1086.82 741.95,-1095.5"/>
</g>
<!-- 3204 -->
<g id="node3" class="node">
<title>3204</title>
<polygon fill="none" stroke="black" points="843.88,-668.17 843.88,-683.09 808.72,-693.63 759.01,-693.63 723.85,-683.09 723.85,-668.17 759.01,-657.63 808.72,-657.63 843.88,-668.17"/>
<polygon fill="none" stroke="black" points="847.88,-665.2 847.88,-686.06 809.31,-697.63 758.42,-697.63 719.85,-686.06 719.85,-665.2 758.42,-653.63 809.31,-653.63 847.88,-665.2"/>
<text text-anchor="middle" x="783.87" y="-670.58" font-family="Times,serif" font-size="14.00">O&#45;UDA&#45;1.0</text>
</g>
<!-- 3204&#45;&gt;3203 -->
<g id="edge3" class="edge">
<title>3204&#45;&gt;3203</title>
<path fill="none" stroke="black" stroke-width="2" d="M724.99,-687.93C625.66,-709.29 603.28,-719.88 559.36,-769.46"/>
<polygon fill="black" stroke="black" stroke-width="2" points="553.71,-775.93 556.9,-765.44 555.02,-773.67 559.91,-768.07 560.29,-768.4 560.66,-768.73 555.77,-774.33 563.68,-771.36 553.71,-775.93"/>
</g>
<!-- 20953 -->
<g id="node6" class="node">
<title>20953</title>
<polygon fill="none" stroke="black" points="1116.66,-792.11 1116.66,-807.03 1063.98,-817.57 989.48,-817.57 936.8,-807.03 936.8,-792.11 989.48,-781.57 1063.98,-781.57 1116.66,-792.11"/>
<polygon fill="none" stroke="black" points="1120.66,-788.84 1120.66,-810.31 1064.38,-821.57 989.08,-821.57 932.8,-810.31 932.8,-788.84 989.08,-777.57 1064.38,-777.57 1120.66,-788.84"/>
<text text-anchor="middle" x="1026.73" y="-794.52" font-family="Times,serif" font-size="14.00">scancode:o&#45;uda&#45;1.0</text>
</g>
<!-- 3204&#45;&gt;20953 -->
<g id="edge4" class="edge">
<title>3204&#45;&gt;20953</title>
<path fill="none" stroke="black" stroke-width="2" d="M841.6,-688.31C937.4,-709.96 958.07,-720.3 1000.62,-768.84"/>
<polygon fill="black" stroke="black" stroke-width="2" points="1006.35,-775.46 996.41,-770.85 1004.3,-773.85 999.43,-768.23 999.81,-767.9 1000.19,-767.57 1005.05,-773.2 1003.21,-764.96 1006.35,-775.46"/>
</g>
<!-- 28145 -->
<g id="node8" class="node">
<title>28145</title>
<polygon fill="none" stroke="#e18745" points="899.82,-971.75 899.82,-986.66 840.33,-997.21 756.19,-997.21 696.7,-986.66 696.7,-971.75 756.19,-961.21 840.33,-961.21 899.82,-971.75"/>
<polygon fill="none" stroke="#e18745" points="903.82,-968.4 903.82,-990.02 840.68,-1001.21 755.84,-1001.21 692.7,-990.02 692.7,-968.4 755.84,-957.21 840.68,-957.21 903.82,-968.4"/>
<text text-anchor="middle" x="798.26" y="-974.16" font-family="Times,serif" font-size="14.00">fossology:O&#45;UDA&#45;1.0</text>
</g>
<!-- 3204&#45;&gt;28145 -->
<g id="edge5" class="edge">
<title>3204&#45;&gt;28145</title>
<path fill="none" stroke="#e18745" stroke-width="2" d="M788.74,-697.93C822.83,-853.96 826.23,-876.26 807.52,-946.12"/>
<polygon fill="#e18745" stroke="#e18745" stroke-width="2" points="805.25,-954.45 803.54,-943.62 805.44,-951.84 807.4,-944.67 807.88,-944.8 808.37,-944.93 806.4,-952.11 812.22,-945.99 805.25,-954.45"/>
</g>
<!-- 37286 -->
<g id="node11" class="node">
<title>37286</title>
<polygon fill="none" stroke="#379469" points="891.79,-384.3 891.79,-399.21 843.66,-409.75 775.58,-409.75 727.45,-399.21 727.45,-384.3 775.58,-373.75 843.66,-373.75 891.79,-384.3"/>
<polygon fill="none" stroke="#379469" points="895.79,-381.08 895.79,-402.43 844.09,-413.75 775.15,-413.75 723.45,-402.43 723.45,-381.08 775.15,-369.75 844.09,-369.75 895.79,-381.08"/>
<text text-anchor="middle" x="809.62" y="-386.7" font-family="Times,serif" font-size="14.00">cavil:O&#45;UDA&#45;1.0</text>
</g>
<!-- 3204&#45;&gt;37286 -->
<g id="edge6" class="edge">
<title>3204&#45;&gt;37286</title>
<path fill="none" stroke="#379469" stroke-width="2" d="M785.84,-653.23C798.98,-504.25 801.25,-478.75 806.39,-425.23"/>
<polygon fill="#379469" stroke="#379469" stroke-width="2" points="807.23,-416.53 810.75,-426.91 807.48,-419.13 806.77,-426.53 806.27,-426.48 805.77,-426.44 806.48,-419.03 801.79,-426.05 807.23,-416.53"/>
</g>
<!-- 3205 -->
<g id="node4" class="node">
<title>3205</title>
<polygon fill="none" stroke="black" points="940.93,-1059.63 940.93,-1074.54 851.9,-1085.09 726,-1085.09 636.98,-1074.54 636.98,-1059.63 726,-1049.09 851.9,-1049.09 940.93,-1059.63"/>
<polygon fill="none" stroke="black" points="944.93,-1056.08 944.93,-1078.1 852.14,-1089.09 725.77,-1089.09 632.98,-1078.1 632.98,-1056.08 725.77,-1045.09 852.14,-1045.09 944.93,-1056.08"/>
<text text-anchor="middle" x="788.95" y="-1062.04" font-family="Times,serif" font-size="14.00">Open Use of Data Agreement v1.0</text>
</g>
<!-- 3205&#45;&gt;3203 -->
<g id="edge7" class="edge">
<title>3205&#45;&gt;3203</title>
<path fill="none" stroke="#b8bf62" stroke-width="2" d="M736.87,-1044.65C619.54,-993.07 603.69,-973.68 545.73,-840.69"/>
<polygon fill="#b8bf62" stroke="#b8bf62" stroke-width="2" points="542.27,-832.72 550.38,-840.1 543.75,-834.88 546.71,-841.7 546.25,-841.89 545.8,-842.09 542.83,-835.27 542.13,-843.69 542.27,-832.72"/>
</g>
<!-- 3205&#45;&gt;20953 -->
<g id="edge8" class="edge">
<title>3205&#45;&gt;20953</title>
<path fill="none" stroke="#dac767" stroke-width="2" d="M833.85,-1044.78C951.28,-985.62 964.6,-967.63 1014.7,-832.27"/>
<polygon fill="#dac767" stroke="#dac767" stroke-width="2" points="1017.69,-824.18 1018.45,-835.11 1017.27,-826.75 1014.7,-833.73 1014.23,-833.56 1013.76,-833.38 1016.34,-826.41 1010.01,-832 1017.69,-824.18"/>
</g>
<!-- 3205&#45;&gt;28145 -->
<g id="edge9" class="edge">
<title>3205&#45;&gt;28145</title>
<path fill="none" stroke="#e18745" stroke-width="2" d="M793.67,-1044.82C794.89,-1037.05 795.62,-1028.37 796.52,-1012.54"/>
<polygon fill="#e18745" stroke="#e18745" stroke-width="2" points="796.98,-1004.13 800.93,-1014.36 797.34,-1006.72 796.93,-1014.15 796.44,-1014.12 795.94,-1014.09 796.34,-1006.66 791.94,-1013.87 796.98,-1004.13"/>
</g>
<!-- 3205&#45;&gt;46571 -->
<g id="edge10" class="edge">
<title>3205&#45;&gt;46571</title>
<path fill="none" stroke="#00876c" stroke-dasharray="5,2" d="M788.6,-1089.36C788.6,-1089.45 788.6,-1089.54 788.6,-1089.63"/>
<polygon fill="#00876c" stroke="#00876c" points="788.46,-1095.56 784.19,-1085.46 788.55,-1091.78 788.69,-1085.56 788.69,-1085.56 788.69,-1085.56 788.55,-1091.78 793.19,-1085.66 788.46,-1095.56"/>
</g>
<!-- 20952 -->
<g id="node5" class="node">
<title>20952</title>
<ellipse fill="none" stroke="#dac767" cx="1390.7" cy="-701.26" rx="158.75" ry="28.99"/>
<text text-anchor="middle" x="1390.7" y="-704.46" font-family="Times,serif" font-size="14.00" fill="gray">ScancodeData</text>
<text text-anchor="middle" x="1390.7" y="-687.96" font-family="Times,serif" font-size="14.00" fill="gray">1112b1de2981803fae46a549bc11a7e9</text>
</g>
<!-- 20952&#45;&gt;20953 -->
<g id="edge11" class="edge">
<title>20952&#45;&gt;20953</title>
<path fill="none" stroke="#dac767" d="M1318.05,-727.36C1272.43,-742.53 1228.82,-753.27 1107.58,-781.08"/>
<polygon fill="#dac767" stroke="#dac767" points="1106.83,-777.66 1097.87,-783.31 1108.39,-784.49 1106.83,-777.66"/>
</g>
<!-- 20953&#45;&gt;46571 -->
<g id="edge12" class="edge">
<title>20953&#45;&gt;46571</title>
<path fill="none" stroke="#00876c" stroke-dasharray="5,2" d="M1019.82,-822.01C965.27,-998.79 954.77,-1020.43 835.06,-1091.13"/>
<polygon fill="#00876c" stroke="#00876c" points="826.53,-1096.14 832.87,-1087.2 829.79,-1094.23 835.15,-1091.08 835.15,-1091.08 835.15,-1091.08 829.79,-1094.23 837.43,-1094.96 826.53,-1096.14"/>
</g>
<!-- 28144 -->
<g id="node7" class="node">
<title>28144</title>
<ellipse fill="none" stroke="#e18745" cx="823.57" cy="-915.23" rx="159.81" ry="28.99"/>
<text text-anchor="middle" x="823.57" y="-918.43" font-family="Times,serif" font-size="14.00" fill="gray">Fossology</text>
<text text-anchor="middle" x="823.57" y="-901.93" font-family="Times,serif" font-size="14.00" fill="gray">fcbbed7b4ab10c8dc898066460568635</text>
</g>
<!-- 28144&#45;&gt;28145 -->
<g id="edge13" class="edge">
<title>28144&#45;&gt;28145</title>
<path fill="none" stroke="#e18745" d="M817.34,-944.43C817.22,-944.9 817.11,-945.37 816.99,-945.83"/>
<polygon fill="#e18745" stroke="#e18745" points="813.65,-944.78 814.08,-955.37 820.35,-946.83 813.65,-944.78"/>
</g>
<!-- 35113 -->
<g id="node9" class="node">
<title>35113</title>
<ellipse fill="none" stroke="#e06f45" cx="234.12" cy="-583.8" rx="158.22" ry="28.99"/>
<text text-anchor="middle" x="234.12" y="-587" font-family="Times,serif" font-size="14.00" fill="gray">OrtLicenseCategorization</text>
<text text-anchor="middle" x="234.12" y="-570.5" font-family="Times,serif" font-size="14.00" fill="gray">51b713d5e4a5ba6c116a9aa549d853cf</text>
</g>
<!-- 35113&#45;&gt;3203 -->
<g id="edge14" class="edge">
<title>35113&#45;&gt;3203</title>
<path fill="none" stroke="#e06f45" d="M259.21,-612.91C308.92,-669.57 332.73,-686.37 478.5,-773.41"/>
<polygon fill="#e06f45" stroke="#e06f45" points="476.6,-776.35 486.98,-778.47 480.18,-770.34 476.6,-776.35"/>
</g>
<!-- 37285 -->
<g id="node10" class="node">
<title>37285</title>
<ellipse fill="none" stroke="#379469" cx="844.82" cy="-28.56" rx="160.34" ry="28.99"/>
<text text-anchor="middle" x="844.82" y="-31.76" font-family="Times,serif" font-size="14.00" fill="gray">CavilLicenseChange</text>
<text text-anchor="middle" x="844.82" y="-15.26" font-family="Times,serif" font-size="14.00" fill="gray">b4b480e4209d4f2b2c428d584c13309a</text>
</g>
<!-- 37285&#45;&gt;37286 -->
<g id="edge15" class="edge">
<title>37285&#45;&gt;37286</title>
<path fill="none" stroke="#379469" d="M841.81,-57.95C833.85,-135.7 831.52,-160.05 812.82,-357.87"/>
<polygon fill="#379469" stroke="#379469" points="809.34,-357.49 811.89,-367.77 816.31,-358.15 809.34,-357.49"/>
</g>
<!-- 46570 -->
<g id="node12" class="node">
<title>46570</title>
<ellipse fill="none" stroke="#00876c" cx="624.78" cy="-1581.97" rx="156.09" ry="28.99"/>
<text text-anchor="middle" x="624.78" y="-1585.17" font-family="Times,serif" font-size="14.00" fill="gray">MetaeffektLicense</text>
<text text-anchor="middle" x="624.78" y="-1568.67" font-family="Times,serif" font-size="14.00" fill="gray">1f4afa46f223d5e2511173217505278f</text>
</g>
<!-- 46570&#45;&gt;46571 -->
<g id="edge16" class="edge">
<title>46570&#45;&gt;46571</title>
<path fill="none" stroke="#00876c" d="M639.72,-1552.77C692.11,-1449.88 700.31,-1424.07 777.51,-1152.25"/>
<polygon fill="#00876c" stroke="#00876c" points="780.86,-1153.25 780.23,-1142.67 774.13,-1151.34 780.86,-1153.25"/>
</g>
<!-- 46572 -->
<g id="node14" class="node">
<title>46572</title>
<polygon fill="none" stroke="#00876c" points="1174.37,-1531.81 1174.37,-1546.73 1088.26,-1557.27 966.5,-1557.27 880.39,-1546.73 880.39,-1531.81 966.5,-1521.27 1088.26,-1521.27 1174.37,-1531.81"/>
<polygon fill="none" stroke="#00876c" points="1178.37,-1528.27 1178.37,-1550.27 1088.51,-1561.27 966.25,-1561.27 876.39,-1550.27 876.39,-1528.27 966.25,-1517.27 1088.51,-1517.27 1178.37,-1528.27"/>
<text text-anchor="middle" x="1027.38" y="-1534.22" font-family="Times,serif" font-size="14.00">Open Use of Data Agreement 1.0</text>
</g>
<!-- 46572&#45;&gt;46571 -->
<g id="edge17" class="edge">
<title>46572&#45;&gt;46571</title>
<path fill="none" stroke="#00876c" stroke-width="2" d="M1008.88,-1516.93C933.34,-1425.36 921.91,-1403.9 802.14,-1151.2"/>
<polygon fill="#00876c" stroke="#00876c" stroke-width="2" points="798.51,-1143.54 806.86,-1150.65 800.06,-1145.64 803.24,-1152.36 802.79,-1152.58 802.34,-1152.79 799.15,-1146.07 798.72,-1154.51 798.51,-1143.54"/>
</g>
<!-- 46573 -->
<g id="node15" class="node">
<title>46573</title>
<polygon fill="none" stroke="#00876c" points="925.67,-1165.92 925.67,-1180.83 848.65,-1191.37 739.73,-1191.37 662.71,-1180.83 662.71,-1165.92 739.73,-1155.37 848.65,-1155.37 925.67,-1165.92"/>
<text text-anchor="middle" x="794.19" y="-1168.32" font-family="Times,serif" font-size="14.00">Open Use of Data Agreement</text>
</g>
<!-- 46573&#45;&gt;46571 -->
<g id="edge18" class="edge">
<title>46573&#45;&gt;46571</title>
<path fill="none" stroke="#00876c" stroke-dasharray="5,2" d="M791.03,-1155.07C790.91,-1154.19 790.79,-1153.26 790.66,-1152.28"/>
<polygon fill="#00876c" stroke="#00876c" points="789.51,-1142.55 795.15,-1151.96 789.95,-1146.31 790.68,-1152.48 790.68,-1152.48 790.68,-1152.48 789.95,-1146.31 786.22,-1153.01 789.51,-1142.55"/>
</g>
</g>
</svg>
