<?xml version="1.0" encoding="UTF-8" standalone="no"?>
<!DOCTYPE svg PUBLIC "-//W3C//DTD SVG 1.1//EN"
 "http://www.w3.org/Graphics/SVG/1.1/DTD/svg11.dtd">
<!-- Generated by graphviz version 10.0.1 (0)
 -->
<!-- Pages: 1 -->
<svg width="2573pt" height="3050pt"
 viewBox="0.00 0.00 2573.00 3050.00" xmlns="http://www.w3.org/2000/svg" xmlns:xlink="http://www.w3.org/1999/xlink">
<g id="graph0" class="graph" transform="scale(1 1) rotate(0) translate(4 3046)">
<polygon fill="white" stroke="none" points="-4,4 -4,-3046 2569,-3046 2569,4 -4,4"/>
<!-- 5 -->
<g id="node1" class="node">
<title>5</title>
<text text-anchor="start" x="703.44" y="-2517.78" font-family="Times,serif" font-size="14.00">OSI: </text>
<text text-anchor="start" x="732.69" y="-2517.78" font-family="Times,serif" font-weight="bold" font-size="14.00" fill="#8b0000">Rejected</text>
</g>
<!-- 3588 -->
<g id="node2" class="node">
<title>3588</title>
<ellipse fill="none" stroke="#dac767" cx="1091.51" cy="-2280.38" rx="156.62" ry="28.99"/>
<text text-anchor="middle" x="1091.51" y="-2283.58" font-family="Times,serif" font-size="14.00" fill="gray">SPDXLicense</text>
<text text-anchor="middle" x="1091.51" y="-2267.08" font-family="Times,serif" font-size="14.00" fill="gray">f0fb74c9243bf468c3c9873d38bc52e2</text>
</g>
<!-- 5&#45;&gt;3588 -->
<g id="edge1" class="edge">
<title>5&#45;&gt;3588</title>
<path fill="none" stroke="#dac767" d="M790.68,-2507.33C880.92,-2478.54 907.11,-2457.62 1053.83,-2316.64"/>
<polygon fill="#dac767" stroke="#dac767" points="1055.95,-2319.46 1060.73,-2310.01 1051.09,-2314.42 1055.95,-2319.46"/>
</g>
<!-- 3589 -->
<g id="node3" class="node">
<title>3589</title>
<polygon fill="none" stroke="black" points="1501.34,-1752.44 1501.34,-1767.35 1469.43,-1777.9 1424.3,-1777.9 1392.39,-1767.35 1392.39,-1752.44 1424.3,-1741.9 1469.43,-1741.9 1501.34,-1752.44"/>
<polygon fill="none" stroke="black" points="1505.34,-1749.55 1505.34,-1770.24 1470.07,-1781.9 1423.66,-1781.9 1388.39,-1770.24 1388.39,-1749.55 1423.66,-1737.9 1470.07,-1737.9 1505.34,-1749.55"/>
<polygon fill="none" stroke="black" points="1509.34,-1746.66 1509.34,-1773.14 1470.72,-1785.9 1423.01,-1785.9 1384.39,-1773.14 1384.39,-1746.66 1423.01,-1733.9 1470.72,-1733.9 1509.34,-1746.66"/>
<text text-anchor="middle" x="1446.87" y="-1754.85" font-family="Times,serif" font-size="14.00">spdx:OAR</text>
</g>
<!-- 3588&#45;&gt;3589 -->
<g id="edge2" class="edge">
<title>3588&#45;&gt;3589</title>
<path fill="none" stroke="#dac767" d="M1128.47,-2251.81C1262.05,-2147.66 1278.58,-2118.71 1429.91,-1796.07"/>
<polygon fill="#dac767" stroke="#dac767" points="1432.93,-1797.86 1434.01,-1787.32 1426.6,-1794.89 1432.93,-1797.86"/>
</g>
<!-- 9067 -->
<g id="node13" class="node">
<title>9067</title>
<polygon fill="none" stroke="#e09d4b" points="1403.92,-1352.23 1403.92,-1367.14 1366.81,-1377.69 1314.34,-1377.69 1277.24,-1367.14 1277.24,-1352.23 1314.34,-1341.69 1366.81,-1341.69 1403.92,-1352.23"/>
<polygon fill="none" stroke="#e09d4b" points="1407.92,-1349.21 1407.92,-1370.16 1367.37,-1381.69 1313.78,-1381.69 1273.24,-1370.16 1273.24,-1349.21 1313.78,-1337.69 1367.37,-1337.69 1407.92,-1349.21"/>
<text text-anchor="middle" x="1340.58" y="-1354.64" font-family="Times,serif" font-size="14.00">Fedora:OAR</text>
</g>
<!-- 3589&#45;&gt;9067 -->
<g id="edge3" class="edge">
<title>3589&#45;&gt;9067</title>
<path fill="none" stroke="#e09d4b" stroke-width="2" d="M1450.67,-1733.48C1470.46,-1594.01 1465.48,-1576.41 1358.91,-1391.45"/>
<polygon fill="#e09d4b" stroke="#e09d4b" stroke-width="2" points="1354.64,-1384.04 1363.53,-1390.46 1356.35,-1386.02 1360.07,-1392.46 1359.64,-1392.71 1359.2,-1392.96 1355.49,-1386.51 1355.74,-1394.96 1354.64,-1384.04"/>
</g>
<!-- 32769 -->
<g id="node15" class="node">
<title>32769</title>
<polygon fill="none" stroke="black" points="1895.15,-2002.24 1895.15,-2017.15 1847.02,-2027.69 1778.94,-2027.69 1730.8,-2017.15 1730.8,-2002.24 1778.94,-1991.69 1847.02,-1991.69 1895.15,-2002.24"/>
<polygon fill="none" stroke="black" points="1899.15,-1999.02 1899.15,-2020.37 1847.45,-2031.69 1778.51,-2031.69 1726.8,-2020.37 1726.8,-1999.02 1778.51,-1987.69 1847.45,-1987.69 1899.15,-1999.02"/>
<text text-anchor="middle" x="1812.98" y="-2004.64" font-family="Times,serif" font-size="14.00">scancode:x11&#45;oar</text>
</g>
<!-- 3589&#45;&gt;32769 -->
<g id="edge4" class="edge">
<title>3589&#45;&gt;32769</title>
<path fill="none" stroke="#deb256" stroke-width="2" d="M1475.84,-1784.48C1538.69,-1831.56 1687.93,-1933.65 1765.05,-1982.6"/>
<polygon fill="#deb256" stroke="#deb256" stroke-width="2" points="1772.03,-1987 1761.17,-1985.47 1769.59,-1986.05 1763.3,-1982.09 1763.57,-1981.66 1763.84,-1981.24 1770.13,-1985.21 1765.97,-1977.86 1772.03,-1987"/>
</g>
<!-- 55493 -->
<g id="node31" class="node">
<title>55493</title>
<polygon fill="none" stroke="#379469" points="1967.17,-1559.63 1967.17,-1574.54 1912.55,-1585.08 1835.29,-1585.08 1780.67,-1574.54 1780.67,-1559.63 1835.29,-1549.08 1912.55,-1549.08 1967.17,-1559.63"/>
<polygon fill="none" stroke="#379469" points="1971.17,-1556.33 1971.17,-1577.84 1912.93,-1589.08 1834.91,-1589.08 1776.67,-1577.84 1776.67,-1556.33 1834.91,-1545.08 1912.93,-1545.08 1971.17,-1556.33"/>
<text text-anchor="middle" x="1873.92" y="-1562.03" font-family="Times,serif" font-size="14.00">metaeffekt:PT&#45;OAR</text>
</g>
<!-- 3589&#45;&gt;55493 -->
<g id="edge5" class="edge">
<title>3589&#45;&gt;55493</title>
<path fill="none" stroke="#379469" stroke-width="2" d="M1509.51,-1746.68C1726.78,-1700.51 1753.93,-1688.88 1844.27,-1597.43"/>
<polygon fill="#379469" stroke="#379469" stroke-width="2" points="1850.34,-1591.27 1846.54,-1601.55 1848.9,-1593.44 1843.68,-1598.75 1843.33,-1598.4 1842.97,-1598.04 1848.19,-1592.74 1840.12,-1595.24 1850.34,-1591.27"/>
</g>
<!-- 3590 -->
<g id="node4" class="node">
<title>3590</title>
<polygon fill="none" stroke="black" points="1623.77,-1434.32 1623.77,-1449.24 1604.51,-1459.78 1577.28,-1459.78 1558.03,-1449.24 1558.03,-1434.32 1577.28,-1423.78 1604.51,-1423.78 1623.77,-1434.32"/>
<polygon fill="none" stroke="black" points="1627.77,-1431.95 1627.77,-1451.61 1605.54,-1463.78 1576.26,-1463.78 1554.03,-1451.61 1554.03,-1431.95 1576.26,-1419.78 1605.54,-1419.78 1627.77,-1431.95"/>
<text text-anchor="middle" x="1590.9" y="-1436.73" font-family="Times,serif" font-size="14.00">OAR</text>
</g>
<!-- 3590&#45;&gt;3589 -->
<g id="edge6" class="edge">
<title>3590&#45;&gt;3589</title>
<path fill="none" stroke="black" stroke-width="2" d="M1590.17,-1464.18C1585.29,-1608.78 1580.16,-1626.72 1480.27,-1726.73"/>
<polygon fill="black" stroke="black" stroke-width="2" points="1474.32,-1732.67 1478.21,-1722.42 1475.78,-1730.51 1481.04,-1725.26 1481.39,-1725.61 1481.75,-1725.96 1476.48,-1731.22 1484.57,-1728.79 1474.32,-1732.67"/>
</g>
<!-- 3590&#45;&gt;9067 -->
<g id="edge7" class="edge">
<title>3590&#45;&gt;9067</title>
<path fill="none" stroke="#e09d4b" stroke-width="2" d="M1569.22,-1423.21C1520.85,-1382.4 1501.44,-1373.25 1419.5,-1365.77"/>
<polygon fill="#e09d4b" stroke="#e09d4b" stroke-width="2" points="1410.78,-1365 1421.14,-1361.39 1413.38,-1364.73 1420.79,-1365.38 1420.74,-1365.88 1420.7,-1366.37 1413.29,-1365.72 1420.35,-1370.36 1410.78,-1365"/>
</g>
<!-- 42057 -->
<g id="node27" class="node">
<title>42057</title>
<polygon fill="none" stroke="#379469" points="1953.76,-1256.96 1953.76,-1271.87 1921.52,-1282.42 1875.94,-1282.42 1843.7,-1271.87 1843.7,-1256.96 1875.94,-1246.42 1921.52,-1246.42 1953.76,-1256.96"/>
<polygon fill="none" stroke="#379469" points="1957.76,-1254.06 1957.76,-1274.77 1922.16,-1286.42 1875.3,-1286.42 1839.7,-1274.77 1839.7,-1254.06 1875.3,-1242.42 1922.16,-1242.42 1957.76,-1254.06"/>
<text text-anchor="middle" x="1898.73" y="-1259.37" font-family="Times,serif" font-size="14.00">cavil:OAR</text>
</g>
<!-- 3590&#45;&gt;42057 -->
<g id="edge8" class="edge">
<title>3590&#45;&gt;42057</title>
<path fill="none" stroke="#379469" stroke-width="2" d="M1619.63,-1427.08C1778.54,-1345.73 1808.61,-1329.74 1861.31,-1291.86"/>
<polygon fill="#379469" stroke="#379469" stroke-width="2" points="1868.37,-1286.75 1862.91,-1296.26 1866.59,-1288.66 1860.57,-1293.02 1860.27,-1292.61 1859.98,-1292.21 1866,-1287.85 1857.63,-1288.97 1868.37,-1286.75"/>
</g>
<!-- 3591 -->
<g id="node5" class="node">
<title>3591</title>
<polygon fill="none" stroke="black" points="1634.55,-1568.45 1634.55,-1583.36 1595.5,-1593.9 1540.27,-1593.9 1501.23,-1583.36 1501.23,-1568.45 1540.27,-1557.9 1595.5,-1557.9 1634.55,-1568.45"/>
<polygon fill="none" stroke="black" points="1638.55,-1565.38 1638.55,-1586.42 1596.03,-1597.9 1539.74,-1597.9 1497.23,-1586.42 1497.23,-1565.38 1539.74,-1553.9 1596.03,-1553.9 1638.55,-1565.38"/>
<text text-anchor="middle" x="1567.89" y="-1570.85" font-family="Times,serif" font-size="14.00">OAR License</text>
</g>
<!-- 3591&#45;&gt;3589 -->
<g id="edge9" class="edge">
<title>3591&#45;&gt;3589</title>
<path fill="none" stroke="#dac767" stroke-width="2" d="M1563.33,-1598.14C1547.39,-1674.97 1540.33,-1691.99 1488.99,-1730.02"/>
<polygon fill="#dac767" stroke="#dac767" stroke-width="2" points="1481.96,-1735.15 1487.39,-1725.62 1483.74,-1733.23 1489.75,-1728.85 1490.04,-1729.25 1490.34,-1729.66 1484.33,-1734.04 1492.69,-1732.89 1481.96,-1735.15"/>
</g>
<!-- 3591&#45;&gt;55493 -->
<g id="edge10" class="edge">
<title>3591&#45;&gt;55493</title>
<path fill="none" stroke="#379469" stroke-dasharray="5,2" d="M1638.65,-1576.74C1699.7,-1577.41 1736.76,-1577.57 1765.29,-1576.78"/>
<polygon fill="#379469" stroke="#379469" points="1775.02,-1576.46 1765.17,-1581.29 1771.24,-1576.58 1765.02,-1576.79 1765.02,-1576.79 1765.02,-1576.79 1771.24,-1576.58 1764.87,-1572.29 1775.02,-1576.46"/>
</g>
<!-- 68059 -->
<g id="node38" class="node">
<title>68059</title>
<polygon fill="none" stroke="#00876c" points="1359.56,-1530.36 1359.56,-1545.27 1307.85,-1555.81 1234.73,-1555.81 1183.02,-1545.27 1183.02,-1530.36 1234.73,-1519.81 1307.85,-1519.81 1359.56,-1530.36"/>
<polygon fill="none" stroke="#00876c" points="1363.56,-1527.09 1363.56,-1548.54 1308.26,-1559.81 1234.33,-1559.81 1179.02,-1548.54 1179.02,-1527.09 1234.33,-1515.81 1308.26,-1515.81 1363.56,-1527.09"/>
<text text-anchor="middle" x="1271.29" y="-1532.76" font-family="Times,serif" font-size="14.00">spdx:OAR License</text>
</g>
<!-- 3591&#45;&gt;68059 -->
<g id="edge11" class="edge">
<title>3591&#45;&gt;68059</title>
<path fill="none" stroke="#00876c" stroke-width="2" d="M1496.86,-1571.91C1465.98,-1569.21 1433.17,-1564.42 1363.64,-1553.06"/>
<polygon fill="#00876c" stroke="#00876c" stroke-width="2" points="1355.04,-1551.65 1365.63,-1548.83 1357.65,-1551.57 1364.99,-1552.78 1364.91,-1553.27 1364.83,-1553.76 1357.49,-1552.56 1364.18,-1557.71 1355.04,-1551.65"/>
</g>
<!-- 3592 -->
<g id="node6" class="node">
<title>3592</title>
<text text-anchor="middle" x="885.58" y="-2703.07" font-family="Times,serif" font-size="14.00">$TEXT</text>
</g>
<!-- 3592&#45;&gt;3588 -->
<g id="edge12" class="edge">
<title>3592&#45;&gt;3588</title>
<path fill="none" stroke="#dac767" d="M896.53,-2690.28C958.32,-2589.42 966.98,-2571.28 1074.52,-2320.07"/>
<polygon fill="#dac767" stroke="#dac767" points="1077.74,-2321.45 1078.46,-2310.88 1071.3,-2318.7 1077.74,-2321.45"/>
</g>
<!-- 3593 -->
<g id="node7" class="node">
<title>3593</title>
<text text-anchor="middle" x="776.54" y="-2913.74" font-family="Times,serif" font-size="14.00">$TEXT</text>
</g>
<!-- 3593&#45;&gt;3592 -->
<g id="edge13" class="edge">
<title>3593&#45;&gt;3592</title>
<path fill="none" stroke="#dac767" d="M788.04,-2900.82C814.14,-2859.77 821.95,-2844.18 872.46,-2736.18"/>
<polygon fill="#dac767" stroke="#dac767" points="875.61,-2737.7 876.68,-2727.16 869.27,-2734.74 875.61,-2737.7"/>
</g>
<!-- 3594 -->
<g id="node8" class="node">
<title>3594</title>
<text text-anchor="middle" x="1157.75" y="-2342.63" font-family="Times,serif" font-size="14.00">https://sourceware.org/git/?p=newlib&#45;cygwin.git;a=blob;f=newlib/libc/string/strsignal.c;hb=HEAD#l35</text>
</g>
<!-- 3594&#45;&gt;3588 -->
<g id="edge14" class="edge">
<title>3594&#45;&gt;3588</title>
<path fill="none" stroke="#dac767" d="M1123.82,-2329.81C1120.61,-2326.88 1117.63,-2323.37 1114.41,-2318.84"/>
<polygon fill="#dac767" stroke="#dac767" points="1117.52,-2317.19 1109.12,-2310.73 1111.66,-2321.02 1117.52,-2317.19"/>
</g>
<!-- 32768 -->
<g id="node14" class="node">
<title>32768</title>
<ellipse fill="none" stroke="#deb256" cx="1873.69" cy="-2584.94" rx="158.22" ry="28.99"/>
<text text-anchor="middle" x="1873.69" y="-2588.14" font-family="Times,serif" font-size="14.00" fill="gray">ScancodeData</text>
<text text-anchor="middle" x="1873.69" y="-2571.64" font-family="Times,serif" font-size="14.00" fill="gray">3a8f59d69b245d96cfbad76e10eb7d26</text>
</g>
<!-- 3594&#45;&gt;32768 -->
<g id="edge15" class="edge">
<title>3594&#45;&gt;32768</title>
<path fill="none" stroke="#deb256" d="M1184.26,-2365.51C1477.67,-2562.76 1541.58,-2602.25 1715.13,-2596.34"/>
<polygon fill="#deb256" stroke="#deb256" points="1715.08,-2599.84 1724.94,-2595.96 1714.81,-2592.85 1715.08,-2599.84"/>
</g>
<!-- 5550 -->
<g id="node9" class="node">
<title>5550</title>
<text text-anchor="middle" x="1895.8" y="-3019.33" font-family="Times,serif" font-size="14.00">LicenseType Permissive</text>
</g>
<!-- 5550&#45;&gt;32768 -->
<g id="edge16" class="edge">
<title>5550&#45;&gt;32768</title>
<path fill="none" stroke="#deb256" d="M1899.12,-3006.69C1920.9,-2889.81 1920.14,-2872.68 1880.22,-2625.31"/>
<polygon fill="#deb256" stroke="#deb256" points="1883.7,-2624.93 1878.65,-2615.62 1876.79,-2626.05 1883.7,-2624.93"/>
</g>
<!-- 6592 -->
<g id="node10" class="node">
<title>6592</title>
<text text-anchor="middle" x="910.59" y="-480.53" font-family="Times,serif" font-size="14.00">[&quot;allowed&quot;]</text>
</g>
<!-- 9066 -->
<g id="node12" class="node">
<title>9066</title>
<ellipse fill="none" stroke="#e09d4b" cx="1097.05" cy="-877.2" rx="159.81" ry="28.99"/>
<text text-anchor="middle" x="1097.05" y="-880.4" font-family="Times,serif" font-size="14.00" fill="gray">FedoraEntry</text>
<text text-anchor="middle" x="1097.05" y="-863.9" font-family="Times,serif" font-size="14.00" fill="gray">071111f636ab2d8699b2ae4da2da44b1</text>
</g>
<!-- 6592&#45;&gt;9066 -->
<g id="edge17" class="edge">
<title>6592&#45;&gt;9066</title>
<path fill="none" stroke="#e09d4b" d="M921.01,-503.55C973.9,-594.8 982.39,-612.76 1079.79,-837.39"/>
<polygon fill="#e09d4b" stroke="#e09d4b" points="1076.55,-838.72 1083.74,-846.5 1082.98,-835.93 1076.55,-838.72"/>
</g>
<!-- 6593 -->
<g id="node11" class="node">
<title>6593</title>
<text text-anchor="start" x="665.11" y="-103.63" font-family="Times,serif" font-size="14.00">Fedora: </text>
<text text-anchor="start" x="710.11" y="-103.63" font-family="Times,serif" font-weight="bold" font-size="14.00" fill="#228b22">allowed</text>
<text text-anchor="start" x="501.24" y="-89.63" font-family="Times,serif" font-size="14.00">A license is allowed if Fedora determines that the license is a free software /</text>
<text text-anchor="start" x="495.99" y="-75.63" font-family="Times,serif" font-size="14.00">open source license. At a high level, the inquiry involves determining whether</text>
<text text-anchor="start" x="494.86" y="-61.63" font-family="Times,serif" font-size="14.00">the license provides software freedom, and (equivalently) making sure that the</text>
<text text-anchor="start" x="504.99" y="-47.63" font-family="Times,serif" font-size="14.00">license does not place burdens on users&#39; exercise of its permissions that are</text>
<text text-anchor="start" x="504.61" y="-33.63" font-family="Times,serif" font-size="14.00">inconsistent with evolving community norms and traditions around what is</text>
<text text-anchor="start" x="496.36" y="-19.63" font-family="Times,serif" font-size="14.00">acceptable in a free software / open source license. See below for more on the</text>
<text text-anchor="start" x="616.36" y="-5.63" font-family="Times,serif" font-size="14.00">history of Fedora licensing policy.</text>
</g>
<!-- 6593&#45;&gt;6592 -->
<g id="edge18" class="edge">
<title>6593&#45;&gt;6592</title>
<path fill="none" stroke="#e09d4b" d="M741.73,-119.77C779.97,-192.3 800.28,-237.45 898.07,-457.42"/>
<polygon fill="#e09d4b" stroke="#e09d4b" points="894.76,-458.59 902.02,-466.3 901.15,-455.74 894.76,-458.59"/>
</g>
<!-- 9066&#45;&gt;9067 -->
<g id="edge19" class="edge">
<title>9066&#45;&gt;9067</title>
<path fill="none" stroke="#e09d4b" d="M1119.56,-906.14C1199.85,-1009.99 1211.84,-1036.7 1327.61,-1327.14"/>
<polygon fill="#e09d4b" stroke="#e09d4b" points="1324.26,-1328.19 1331.21,-1336.18 1330.76,-1325.6 1324.26,-1328.19"/>
</g>
<!-- 32768&#45;&gt;32769 -->
<g id="edge20" class="edge">
<title>32768&#45;&gt;32769</title>
<path fill="none" stroke="#deb256" d="M1879.34,-2555.54C1909.81,-2395.23 1906.14,-2372.15 1821.5,-2042.83"/>
<polygon fill="#deb256" stroke="#deb256" points="1824.97,-2042.27 1819.09,-2033.45 1818.19,-2044.01 1824.97,-2042.27"/>
</g>
<!-- 32769&#45;&gt;3589 -->
<g id="edge21" class="edge">
<title>32769&#45;&gt;3589</title>
<path fill="none" stroke="#00876c" stroke-width="2" d="M1787,-1987.36C1726.05,-1941.39 1573.31,-1836.84 1494.9,-1787.06"/>
<polygon fill="#00876c" stroke="#00876c" stroke-width="2" points="1487.78,-1782.57 1498.64,-1784.1 1490.21,-1783.51 1496.5,-1787.48 1496.24,-1787.9 1495.97,-1788.33 1489.68,-1784.36 1493.84,-1791.71 1487.78,-1782.57"/>
</g>
<!-- 32769&#45;&gt;55493 -->
<g id="edge22" class="edge">
<title>32769&#45;&gt;55493</title>
<path fill="none" stroke="#379469" stroke-dasharray="5,2" d="M1826.39,-1987.59C1919.49,-1833.86 1921.98,-1817.22 1880.31,-1600.21"/>
<polygon fill="#379469" stroke="#379469" points="1878.45,-1590.58 1884.76,-1599.55 1879.17,-1594.29 1880.34,-1600.4 1880.34,-1600.4 1880.34,-1600.4 1879.17,-1594.29 1875.92,-1601.25 1878.45,-1590.58"/>
</g>
<!-- 32770 -->
<g id="node16" class="node">
<title>32770</title>
<polygon fill="none" stroke="black" points="2134.25,-2190.12 2134.25,-2205.03 2109.16,-2215.57 2073.67,-2215.57 2048.57,-2205.03 2048.57,-2190.12 2073.67,-2179.57 2109.16,-2179.57 2134.25,-2190.12"/>
<polygon fill="none" stroke="black" points="2138.25,-2187.46 2138.25,-2207.69 2109.96,-2219.57 2072.86,-2219.57 2044.57,-2207.69 2044.57,-2187.46 2072.86,-2175.57 2109.96,-2175.57 2138.25,-2187.46"/>
<text text-anchor="middle" x="2091.41" y="-2192.52" font-family="Times,serif" font-size="14.00">x11&#45;oar</text>
</g>
<!-- 32770&#45;&gt;32769 -->
<g id="edge23" class="edge">
<title>32770&#45;&gt;32769</title>
<path fill="none" stroke="black" stroke-width="2" d="M2060.99,-2180.38C2004.96,-2148.42 1982.34,-2132.73 1852.37,-2038.32"/>
<polygon fill="black" stroke="black" stroke-width="2" points="1845.62,-2033.42 1856.36,-2035.65 1847.99,-2034.52 1854,-2038.89 1853.71,-2039.29 1853.42,-2039.7 1847.4,-2035.33 1851.07,-2042.93 1845.62,-2033.42"/>
</g>
<!-- 32771 -->
<g id="node17" class="node">
<title>32771</title>
<polygon fill="none" stroke="black" points="2171.22,-1839.88 2171.22,-1854.8 2122.44,-1865.34 2053.44,-1865.34 2004.66,-1854.8 2004.66,-1839.88 2053.44,-1829.34 2122.44,-1829.34 2171.22,-1839.88"/>
<polygon fill="none" stroke="black" points="2175.22,-1836.66 2175.22,-1858.02 2122.86,-1869.34 2053.02,-1869.34 2000.66,-1858.02 2000.66,-1836.66 2053.02,-1825.34 2122.86,-1825.34 2175.22,-1836.66"/>
<text text-anchor="middle" x="2087.94" y="-1842.29" font-family="Times,serif" font-size="14.00">X11&#45;Style (OAR)</text>
</g>
<!-- 32771&#45;&gt;32769 -->
<g id="edge24" class="edge">
<title>32771&#45;&gt;32769</title>
<path fill="none" stroke="#deb256" stroke-width="2" d="M2071.57,-1869.84C2014.9,-1947.18 1996.94,-1961.83 1887.19,-1990.86"/>
<polygon fill="#deb256" stroke="#deb256" stroke-width="2" points="1879,-1993 1887.53,-1986.11 1881.35,-1991.87 1888.55,-1989.98 1888.67,-1990.47 1888.8,-1990.95 1881.61,-1992.84 1889.81,-1994.82 1879,-1993"/>
</g>
<!-- 32771&#45;&gt;55493 -->
<g id="edge25" class="edge">
<title>32771&#45;&gt;55493</title>
<path fill="none" stroke="#379469" stroke-dasharray="5,2" d="M2080.75,-1824.89C2050.64,-1731.84 2039.25,-1716.86 1906.64,-1596.68"/>
<polygon fill="#379469" stroke="#379469" points="1899.47,-1590.19 1909.9,-1593.56 1902.27,-1592.73 1906.88,-1596.9 1906.88,-1596.9 1906.88,-1596.9 1902.27,-1592.73 1903.86,-1600.23 1899.47,-1590.19"/>
</g>
<!-- 68058 -->
<g id="node37" class="node">
<title>68058</title>
<polygon fill="none" stroke="#00876c" points="1889.29,-1848.74 1889.29,-1863.65 1817.46,-1874.19 1715.89,-1874.19 1644.06,-1863.65 1644.06,-1848.74 1715.89,-1838.19 1817.46,-1838.19 1889.29,-1848.74"/>
<polygon fill="none" stroke="#00876c" points="1893.29,-1845.28 1893.29,-1867.11 1817.76,-1878.19 1715.6,-1878.19 1640.06,-1867.11 1640.06,-1845.28 1715.6,-1834.19 1817.76,-1834.19 1893.29,-1845.28"/>
<text text-anchor="middle" x="1766.68" y="-1851.14" font-family="Times,serif" font-size="14.00">scancode:X11&#45;Style (OAR)</text>
</g>
<!-- 32771&#45;&gt;68058 -->
<g id="edge26" class="edge">
<title>32771&#45;&gt;68058</title>
<path fill="none" stroke="#00876c" stroke-width="2" d="M2030.68,-1864.97C1991.99,-1875.09 1962.19,-1876.35 1894.04,-1870.05"/>
<polygon fill="#00876c" stroke="#00876c" stroke-width="2" points="1885.66,-1869.25 1896.04,-1865.72 1888.25,-1869 1895.66,-1869.7 1895.61,-1870.2 1895.56,-1870.7 1888.16,-1869.99 1895.18,-1874.68 1885.66,-1869.25"/>
</g>
<!-- 32772 -->
<g id="node18" class="node">
<title>32772</title>
<text text-anchor="middle" x="2255.93" y="-2866.18" font-family="Times,serif" font-size="14.00">http://www.oarcorp.com/index.htm</text>
</g>
<!-- 32772&#45;&gt;32768 -->
<g id="edge27" class="edge">
<title>32772&#45;&gt;32768</title>
<path fill="none" stroke="#deb256" d="M2216.76,-2853.37C2120.79,-2808.92 2094.85,-2787.91 1913.59,-2621.58"/>
<polygon fill="#deb256" stroke="#deb256" points="1915.97,-2619.01 1906.24,-2614.83 1911.24,-2624.17 1915.97,-2619.01"/>
</g>
<!-- 32773 -->
<g id="node19" class="node">
<title>32773</title>
<text text-anchor="middle" x="2058.3" y="-2900.22" font-family="Times,serif" font-size="14.00">$TEXT</text>
</g>
<!-- 32773&#45;&gt;32768 -->
<g id="edge28" class="edge">
<title>32773&#45;&gt;32768</title>
<path fill="none" stroke="#deb256" d="M2047.78,-2887.4C2004.53,-2813.87 1994.74,-2796.86 1896,-2623.99"/>
<polygon fill="#deb256" stroke="#deb256" points="1899.05,-2622.28 1891.05,-2615.33 1892.97,-2625.75 1899.05,-2622.28"/>
</g>
<!-- 35432 -->
<g id="node20" class="node">
<title>35432</title>
<text text-anchor="middle" x="371.58" y="-1849.57" font-family="Times,serif" font-size="14.00">LicenseTag (ScopedLicenseTag &quot;OrtLicenseCategorization&quot; &quot;permissive&quot; NoLicenseTagText)</text>
</g>
<!-- 39562 -->
<g id="node22" class="node">
<title>39562</title>
<ellipse fill="none" stroke="#d43d51" cx="388.7" cy="-1910.94" rx="153.44" ry="28.99"/>
<text text-anchor="middle" x="388.7" y="-1914.14" font-family="Times,serif" font-size="14.00" fill="gray">OrtLicenseCategorization</text>
<text text-anchor="middle" x="388.7" y="-1897.64" font-family="Times,serif" font-size="14.00" fill="gray">1f5a017e0df959f2ec37cbe79ab031ef</text>
</g>
<!-- 35432&#45;&gt;39562 -->
<g id="edge29" class="edge">
<title>35432&#45;&gt;39562</title>
<path fill="none" stroke="#d43d51" d="M370.54,-1872.38C370.53,-1872.49 370.53,-1872.61 370.53,-1872.72"/>
<polygon fill="#d43d51" stroke="#d43d51" points="366.91,-1870.41 370.91,-1880.23 373.9,-1870.06 366.91,-1870.41"/>
</g>
<!-- 39761 -->
<g id="node25" class="node">
<title>39761</title>
<ellipse fill="none" stroke="#d43d51" cx="928.88" cy="-1639.13" rx="158.75" ry="28.99"/>
<text text-anchor="middle" x="928.88" y="-1642.33" font-family="Times,serif" font-size="14.00" fill="gray">OrtLicenseCategorization</text>
<text text-anchor="middle" x="928.88" y="-1625.83" font-family="Times,serif" font-size="14.00" fill="gray">14608da05f60916b0b53752bc2c1a3df</text>
</g>
<!-- 35432&#45;&gt;39761 -->
<g id="edge30" class="edge">
<title>35432&#45;&gt;39761</title>
<path fill="none" stroke="#d43d51" d="M415.61,-1836.73C531.08,-1789.86 569.33,-1775.14 848.48,-1669.54"/>
<polygon fill="#d43d51" stroke="#d43d51" points="849.41,-1672.93 857.52,-1666.12 846.93,-1666.39 849.41,-1672.93"/>
</g>
<!-- 35433 -->
<g id="node21" class="node">
<title>35433</title>
<text text-anchor="middle" x="293.7" y="-1378.13" font-family="Times,serif" font-size="14.00">LicenseTag (ScopedLicenseTag &quot;OrtLicenseCategorization&quot; &quot;include&#45;in&#45;notice&#45;file&quot; NoLicenseTagText)</text>
</g>
<!-- 35433&#45;&gt;39562 -->
<g id="edge31" class="edge">
<title>35433&#45;&gt;39562</title>
<path fill="none" stroke="#d43d51" d="M289.91,-1401.12C238.05,-1646.84 238.09,-1665.38 364.79,-1872.08"/>
<polygon fill="#d43d51" stroke="#d43d51" points="361.72,-1873.76 369.93,-1880.45 367.68,-1870.1 361.72,-1873.76"/>
</g>
<!-- 35433&#45;&gt;39761 -->
<g id="edge32" class="edge">
<title>35433&#45;&gt;39761</title>
<path fill="none" stroke="#d43d51" d="M319.43,-1401.1C462.83,-1500.69 492.61,-1513.95 831.68,-1611.3"/>
<polygon fill="#d43d51" stroke="#d43d51" points="830.54,-1614.61 841.12,-1614.01 832.47,-1607.89 830.54,-1614.61"/>
</g>
<!-- 39563 -->
<g id="node23" class="node">
<title>39563</title>
<polygon fill="none" stroke="#d43d51" points="988.66,-2183.5 988.66,-2198.41 895.1,-2208.95 762.77,-2208.95 669.2,-2198.41 669.2,-2183.5 762.77,-2172.95 895.1,-2172.95 988.66,-2183.5"/>
<polygon fill="none" stroke="#d43d51" points="992.66,-2179.92 992.66,-2201.98 895.32,-2212.95 762.55,-2212.95 665.2,-2201.98 665.2,-2179.92 762.55,-2168.95 895.32,-2168.95 992.66,-2179.92"/>
<text text-anchor="middle" x="828.93" y="-2185.9" font-family="Times,serif" font-size="14.00">SPDX:LicenseRef&#45;scancode&#45;x11&#45;oar</text>
</g>
<!-- 39562&#45;&gt;39563 -->
<g id="edge33" class="edge">
<title>39562&#45;&gt;39563</title>
<path fill="none" stroke="#d43d51" d="M408.36,-1940.01C513.11,-2094.36 536.84,-2115.83 735.9,-2167.45"/>
<polygon fill="#d43d51" stroke="#d43d51" points="734.74,-2170.76 745.29,-2169.87 736.49,-2163.98 734.74,-2170.76"/>
</g>
<!-- 39564 -->
<g id="node24" class="node">
<title>39564</title>
<polygon fill="none" stroke="black" points="1528.15,-2279.79 1528.15,-2294.7 1451.13,-2305.24 1342.21,-2305.24 1265.19,-2294.7 1265.19,-2279.79 1342.21,-2269.24 1451.13,-2269.24 1528.15,-2279.79"/>
<polygon fill="none" stroke="black" points="1532.15,-2276.3 1532.15,-2298.19 1451.4,-2309.24 1341.94,-2309.24 1261.19,-2298.19 1261.19,-2276.3 1341.94,-2265.24 1451.4,-2265.24 1532.15,-2276.3"/>
<text text-anchor="middle" x="1396.67" y="-2282.19" font-family="Times,serif" font-size="14.00">LicenseRef&#45;scancode&#45;x11&#45;oar</text>
</g>
<!-- 39564&#45;&gt;39563 -->
<g id="edge34" class="edge">
<title>39564&#45;&gt;39563</title>
<path fill="none" stroke="#d43d51" stroke-width="2" d="M1308.53,-2305.15C1099.21,-2346.32 1063.66,-2336.17 874.37,-2219.18"/>
<polygon fill="#d43d51" stroke="#d43d51" stroke-width="2" points="867.02,-2214.62 877.89,-2216.06 869.46,-2215.55 875.78,-2219.46 875.52,-2219.89 875.26,-2220.31 868.93,-2216.4 873.15,-2223.71 867.02,-2214.62"/>
</g>
<!-- 68057 -->
<g id="node36" class="node">
<title>68057</title>
<polygon fill="none" stroke="#00876c" points="1598.14,-2211.43 1598.14,-2226.34 1498.08,-2236.89 1356.58,-2236.89 1256.52,-2226.34 1256.52,-2211.43 1356.58,-2200.89 1498.08,-2200.89 1598.14,-2211.43"/>
<polygon fill="none" stroke="#00876c" points="1602.14,-2207.83 1602.14,-2229.94 1498.29,-2240.89 1356.37,-2240.89 1252.52,-2229.94 1252.52,-2207.83 1356.37,-2196.89 1498.29,-2196.89 1602.14,-2207.83"/>
<text text-anchor="middle" x="1427.33" y="-2213.84" font-family="Times,serif" font-size="14.00">scancode:LicenseRef&#45;scancode&#45;x11&#45;oar</text>
</g>
<!-- 39564&#45;&gt;68057 -->
<g id="edge35" class="edge">
<title>39564&#45;&gt;68057</title>
<path fill="none" stroke="#00876c" stroke-width="2" d="M1413.59,-2264.92C1415.25,-2261.36 1416.77,-2257.16 1418.45,-2251.67"/>
<polygon fill="#00876c" stroke="#00876c" stroke-width="2" points="1420.81,-2243.42 1422.39,-2254.27 1420.59,-2246.02 1418.54,-2253.17 1418.06,-2253.04 1417.58,-2252.9 1419.63,-2245.75 1413.73,-2251.8 1420.81,-2243.42"/>
</g>
<!-- 39761&#45;&gt;3589 -->
<g id="edge36" class="edge">
<title>39761&#45;&gt;3589</title>
<path fill="none" stroke="#d43d51" d="M967.67,-1667.68C1123.35,-1781.61 1153.52,-1790.56 1372.73,-1767.85"/>
<polygon fill="#d43d51" stroke="#d43d51" points="1372.9,-1771.35 1382.49,-1766.83 1372.18,-1764.39 1372.9,-1771.35"/>
</g>
<!-- 42056 -->
<g id="node26" class="node">
<title>42056</title>
<ellipse fill="none" stroke="#379469" cx="2345.67" cy="-1121.03" rx="156.09" ry="28.99"/>
<text text-anchor="middle" x="2345.67" y="-1124.23" font-family="Times,serif" font-size="14.00" fill="gray">CavilLicenseChange</text>
<text text-anchor="middle" x="2345.67" y="-1107.73" font-family="Times,serif" font-size="14.00" fill="gray">2a2140aae8e830dc4ffee1611d47c963</text>
</g>
<!-- 42056&#45;&gt;42057 -->
<g id="edge37" class="edge">
<title>42056&#45;&gt;42057</title>
<path fill="none" stroke="#379469" d="M2258.52,-1145.43C2194.27,-1164.08 2138.46,-1182.81 1954.59,-1245.4"/>
<polygon fill="#379469" stroke="#379469" points="1953.5,-1242.07 1945.16,-1248.61 1955.76,-1248.7 1953.5,-1242.07"/>
</g>
<!-- 43136 -->
<g id="node28" class="node">
<title>43136</title>
<text text-anchor="start" x="1716.19" y="-1007.25" font-family="Times,serif" font-size="14.00">CoDEStatus: </text>
<text text-anchor="start" x="1790.44" y="-1007.25" font-family="Times,serif" font-weight="bold" font-size="14.00" fill="#228b22">Approved</text>
<text text-anchor="start" x="1568.81" y="-993.25" font-family="Times,serif" font-size="14.00">Eine Lizenz ist freigegeben, wenn sie nach fachlicher und juristischer Prüfung</text>
<text text-anchor="start" x="1550.81" y="-979.25" font-family="Times,serif" font-size="14.00">seitens Open CoDE sowohl der Open Source Definition (gemäß Definition der Open</text>
<text text-anchor="start" x="1592.81" y="-965.25" font-family="Times,serif" font-size="14.00">Source Initiative [extern]) entspricht und darüber hinaus keine für die</text>
<text text-anchor="start" x="1595.81" y="-951.25" font-family="Times,serif" font-size="14.00">Öffentliche Verwaltung erkennbaren Schwierigkeiten birgt. Außer in</text>
<text text-anchor="start" x="1580.81" y="-937.25" font-family="Times,serif" font-size="14.00">Ausnahmefällen ist nicht zu erwarten, dass einmal freigegebene Lizenzen</text>
<text text-anchor="start" x="1720.69" y="-923.25" font-family="Times,serif" font-size="14.00">deklassifiziert werden.</text>
</g>
<!-- 55492 -->
<g id="node30" class="node">
<title>55492</title>
<ellipse fill="none" stroke="#379469" cx="1772.12" cy="-1068.01" rx="158.75" ry="28.99"/>
<text text-anchor="middle" x="1772.12" y="-1071.21" font-family="Times,serif" font-size="14.00" fill="gray">MetaeffektLicense</text>
<text text-anchor="middle" x="1772.12" y="-1054.71" font-family="Times,serif" font-size="14.00" fill="gray">f258be102a807ec205129e2e9c799154</text>
</g>
<!-- 43136&#45;&gt;55492 -->
<g id="edge38" class="edge">
<title>43136&#45;&gt;55492</title>
<path fill="none" stroke="#379469" d="M1784.82,-1023.48C1784.49,-1024.86 1784.13,-1026.3 1783.75,-1027.8"/>
<polygon fill="#379469" stroke="#379469" points="1780.42,-1026.7 1781.17,-1037.26 1787.18,-1028.53 1780.42,-1026.7"/>
</g>
<!-- 50154 -->
<g id="node29" class="node">
<title>50154</title>
<polygon fill="none" stroke="#379469" points="2304.81,-1591.21 2304.81,-1606.12 2271.6,-1616.66 2224.64,-1616.66 2191.43,-1606.12 2191.43,-1591.21 2224.64,-1580.66 2271.6,-1580.66 2304.81,-1591.21"/>
<text text-anchor="middle" x="2248.12" y="-1593.61" font-family="Times,serif" font-size="14.00">Permission</text>
</g>
<!-- 50154&#45;&gt;55493 -->
<g id="edge39" class="edge">
<title>50154&#45;&gt;55493</title>
<path fill="none" stroke="#379469" stroke-dasharray="5,2" d="M2190.97,-1593.66C2138.67,-1589.11 2101.32,-1585.97 1982.62,-1576.11"/>
<polygon fill="#379469" stroke="#379469" points="1972.86,-1575.3 1983.2,-1571.64 1976.63,-1575.61 1982.82,-1576.12 1982.82,-1576.12 1982.82,-1576.12 1976.63,-1575.61 1982.45,-1580.61 1972.86,-1575.3"/>
</g>
<!-- 55492&#45;&gt;55493 -->
<g id="edge40" class="edge">
<title>55492&#45;&gt;55493</title>
<path fill="none" stroke="#379469" d="M1792.12,-1097.26C1912.83,-1274.35 1916.17,-1293.88 1879.15,-1533.41"/>
<polygon fill="#379469" stroke="#379469" points="1875.72,-1532.69 1877.65,-1543.11 1882.64,-1533.77 1875.72,-1532.69"/>
</g>
<!-- 55494 -->
<g id="node32" class="node">
<title>55494</title>
<polygon fill="none" stroke="#379469" points="2257.73,-1421.8 2257.73,-1436.71 2230.04,-1447.26 2190.88,-1447.26 2163.18,-1436.71 2163.18,-1421.8 2190.88,-1411.26 2230.04,-1411.26 2257.73,-1421.8"/>
<polygon fill="none" stroke="#379469" points="2261.73,-1419.04 2261.73,-1439.47 2230.77,-1451.26 2190.14,-1451.26 2159.18,-1439.47 2159.18,-1419.04 2190.14,-1407.26 2230.77,-1407.26 2261.73,-1419.04"/>
<text text-anchor="middle" x="2210.46" y="-1424.21" font-family="Times,serif" font-size="14.00">PT&#45;OAR</text>
</g>
<!-- 55494&#45;&gt;55493 -->
<g id="edge41" class="edge">
<title>55494&#45;&gt;55493</title>
<path fill="none" stroke="#379469" stroke-width="2" d="M2182.55,-1448.62C2120.89,-1490.8 2095.5,-1501.28 1945.84,-1545.81"/>
<polygon fill="#379469" stroke="#379469" stroke-width="2" points="1937.66,-1548.24 1945.97,-1541.08 1939.98,-1547.03 1947.11,-1544.91 1947.25,-1545.39 1947.39,-1545.87 1940.26,-1547.99 1948.53,-1549.71 1937.66,-1548.24"/>
</g>
<!-- 55495 -->
<g id="node33" class="node">
<title>55495</title>
<polygon fill="none" stroke="#379469" points="2275.88,-1050.15 2275.88,-1065.07 2181.34,-1075.61 2047.64,-1075.61 1953.1,-1065.07 1953.1,-1050.15 2047.64,-1039.61 2181.34,-1039.61 2275.88,-1050.15"/>
<polygon fill="none" stroke="#379469" points="2279.88,-1046.58 2279.88,-1068.64 2181.56,-1079.61 2047.41,-1079.61 1949.1,-1068.64 1949.1,-1046.58 2047.41,-1035.61 2181.56,-1035.61 2279.88,-1046.58"/>
<text text-anchor="middle" x="2114.49" y="-1052.56" font-family="Times,serif" font-size="14.00">metaeffekt:Permission Terms (OAR)</text>
</g>
<!-- 55495&#45;&gt;55493 -->
<g id="edge42" class="edge">
<title>55495&#45;&gt;55493</title>
<path fill="none" stroke="#379469" stroke-width="2" d="M2113.26,-1080.02C2102.49,-1273.2 2095.01,-1289.55 1898.61,-1536.12"/>
<polygon fill="#379469" stroke="#379469" stroke-width="2" points="1893.36,-1542.7 1896.07,-1532.08 1894.56,-1540.39 1899.2,-1534.57 1899.59,-1534.88 1899.98,-1535.19 1895.35,-1541.01 1903.11,-1537.68 1893.36,-1542.7"/>
</g>
<!-- 55496 -->
<g id="node34" class="node">
<title>55496</title>
<polygon fill="none" stroke="#379469" points="2561.38,-670.65 2561.38,-685.56 2493.78,-696.1 2398.17,-696.1 2330.56,-685.56 2330.56,-670.65 2398.17,-660.1 2493.78,-660.1 2561.38,-670.65"/>
<polygon fill="none" stroke="#379469" points="2565.38,-667.22 2565.38,-688.98 2494.09,-700.1 2397.86,-700.1 2326.56,-688.98 2326.56,-667.22 2397.86,-656.1 2494.09,-656.1 2565.38,-667.22"/>
<text text-anchor="middle" x="2445.97" y="-673.05" font-family="Times,serif" font-size="14.00">Permission Terms (OAR)</text>
</g>
<!-- 55496&#45;&gt;55495 -->
<g id="edge43" class="edge">
<title>55496&#45;&gt;55495</title>
<path fill="none" stroke="#379469" stroke-width="2" d="M2432.43,-700.44C2366.78,-808.41 2351.25,-825.59 2144.95,-1027.77"/>
<polygon fill="#379469" stroke="#379469" stroke-width="2" points="2138.95,-1033.64 2142.95,-1023.43 2140.43,-1031.49 2145.75,-1026.28 2146.1,-1026.64 2146.45,-1027 2141.13,-1032.2 2149.25,-1029.86 2138.95,-1033.64"/>
</g>
<!-- 68056 -->
<g id="node35" class="node">
<title>68056</title>
<ellipse fill="none" stroke="#00876c" cx="1048.21" cy="-1804.19" rx="157.15" ry="28.99"/>
<text text-anchor="middle" x="1048.21" y="-1807.39" font-family="Times,serif" font-size="14.00" fill="gray">LicenseLynx</text>
<text text-anchor="middle" x="1048.21" y="-1790.89" font-family="Times,serif" font-size="14.00" fill="gray">f751013f24a91b4dc2418df40e783e49</text>
</g>
<!-- 68056&#45;&gt;3589 -->
<g id="edge44" class="edge">
<title>68056&#45;&gt;3589</title>
<path fill="none" stroke="#00876c" d="M1132.78,-1828.99C1231.26,-1855.14 1266.3,-1846.31 1394.65,-1785.07"/>
<polygon fill="#00876c" stroke="#00876c" points="1396,-1788.3 1403.51,-1780.83 1392.98,-1781.99 1396,-1788.3"/>
</g>
<!-- 68057&#45;&gt;3589 -->
<g id="edge45" class="edge">
<title>68057&#45;&gt;3589</title>
<path fill="none" stroke="#00876c" stroke-width="2" d="M1433.31,-2196.75C1464.42,-2080.96 1464.88,-2060.94 1449.12,-1797.42"/>
<polygon fill="#00876c" stroke="#00876c" stroke-width="2" points="1448.6,-1788.76 1453.69,-1798.47 1449.25,-1791.29 1449.69,-1798.71 1449.2,-1798.74 1448.7,-1798.77 1448.25,-1791.35 1444.7,-1799.01 1448.6,-1788.76"/>
</g>
<!-- 68058&#45;&gt;3589 -->
<g id="edge46" class="edge">
<title>68058&#45;&gt;3589</title>
<path fill="none" stroke="#00876c" stroke-width="2" d="M1651.19,-1843.26C1617.63,-1833.89 1576.4,-1816.71 1501.32,-1783.84"/>
<polygon fill="#00876c" stroke="#00876c" stroke-width="2" points="1493.73,-1780.51 1504.7,-1780.4 1496.28,-1781.08 1503.09,-1784.07 1502.89,-1784.52 1502.69,-1784.98 1495.88,-1782 1501.08,-1788.64 1493.73,-1780.51"/>
</g>
<!-- 68059&#45;&gt;3589 -->
<g id="edge47" class="edge">
<title>68059&#45;&gt;3589</title>
<path fill="none" stroke="#00876c" stroke-width="2" d="M1287.6,-1560.08C1365.18,-1665.99 1384.61,-1692.04 1414.97,-1725.58"/>
<polygon fill="#00876c" stroke="#00876c" stroke-width="2" points="1420.87,-1732.04 1410.8,-1727.69 1418.77,-1730.48 1413.75,-1724.99 1414.12,-1724.66 1414.49,-1724.32 1419.51,-1729.81 1417.44,-1721.62 1420.87,-1732.04"/>
</g>
</g>
</svg>
