<?xml version="1.0" encoding="UTF-8" standalone="no"?>
<!DOCTYPE svg PUBLIC "-//W3C//DTD SVG 1.1//EN"
 "http://www.w3.org/Graphics/SVG/1.1/DTD/svg11.dtd">
<!-- Generated by graphviz version 10.0.1 (0)
 -->
<!-- Pages: 1 -->
<svg width="1779pt" height="2909pt"
 viewBox="0.00 0.00 1779.00 2909.00" xmlns="http://www.w3.org/2000/svg" xmlns:xlink="http://www.w3.org/1999/xlink">
<g id="graph0" class="graph" transform="scale(1 1) rotate(0) translate(4 2905)">
<polygon fill="white" stroke="none" points="-4,4 -4,-2905 1775,-2905 1775,4 -4,4"/>
<!-- 3268 -->
<g id="node1" class="node">
<title>3268</title>
<ellipse fill="none" stroke="#b8bf62" cx="1127.33" cy="-28.59" rx="156.09" ry="28.99"/>
<text text-anchor="middle" x="1127.33" y="-31.79" font-family="Times,serif" font-size="14.00" fill="gray">SPDXLicense</text>
<text text-anchor="middle" x="1127.33" y="-15.29" font-family="Times,serif" font-size="14.00" fill="gray">8330e7bb6e65f4f0d06cfe82b37eb35a</text>
</g>
<!-- 3269 -->
<g id="node2" class="node">
<title>3269</title>
<polygon fill="none" stroke="black" points="1217.32,-419.3 1217.32,-434.21 1177.29,-444.75 1120.69,-444.75 1080.67,-434.21 1080.67,-419.3 1120.69,-408.75 1177.29,-408.75 1217.32,-419.3"/>
<polygon fill="none" stroke="black" points="1221.32,-416.21 1221.32,-437.29 1177.81,-448.75 1120.18,-448.75 1076.67,-437.29 1076.67,-416.21 1120.18,-404.75 1177.81,-404.75 1221.32,-416.21"/>
<polygon fill="none" stroke="black" points="1225.32,-413.13 1225.32,-440.37 1178.33,-452.75 1119.66,-452.75 1072.67,-440.37 1072.67,-413.13 1119.66,-400.75 1178.33,-400.75 1225.32,-413.13"/>
<text text-anchor="middle" x="1148.99" y="-421.7" font-family="Times,serif" font-size="14.00">spdx:OFL&#45;1.0</text>
</g>
<!-- 3268&#45;&gt;3269 -->
<g id="edge1" class="edge">
<title>3268&#45;&gt;3269</title>
<path fill="none" stroke="#b8bf62" d="M1133.83,-57.95C1153.2,-146.87 1153.82,-171.44 1149.71,-389.38"/>
<polygon fill="#b8bf62" stroke="#b8bf62" points="1146.21,-389 1149.52,-399.07 1153.21,-389.14 1146.21,-389"/>
</g>
<!-- 10501 -->
<g id="node6" class="node">
<title>10501</title>
<polygon fill="none" stroke="#deb256" points="1434.36,-241.31 1434.36,-256.22 1390.44,-266.76 1328.33,-266.76 1284.41,-256.22 1284.41,-241.31 1328.33,-230.76 1390.44,-230.76 1434.36,-241.31"/>
<text text-anchor="middle" x="1359.39" y="-243.71" font-family="Times,serif" font-size="14.00">fsf:SILOFL&#45;1.0</text>
</g>
<!-- 3269&#45;&gt;10501 -->
<g id="edge2" class="edge">
<title>3269&#45;&gt;10501</title>
<path fill="none" stroke="#deb256" stroke-dasharray="5,2" d="M1171.85,-400.42C1247.64,-313.21 1269.15,-290.75 1310.76,-270.11"/>
<polygon fill="#deb256" stroke="#deb256" points="1319.79,-265.81 1312.7,-274.17 1316.38,-267.44 1310.76,-270.11 1310.76,-270.11 1310.76,-270.11 1316.38,-267.44 1308.83,-266.05 1319.79,-265.81"/>
</g>
<!-- 48493 -->
<g id="node17" class="node">
<title>48493</title>
<polygon fill="none" stroke="#00876c" points="1360.92,-811.73 1360.92,-826.64 1263.13,-837.18 1124.84,-837.18 1027.05,-826.64 1027.05,-811.73 1124.84,-801.18 1263.13,-801.18 1360.92,-811.73"/>
<polygon fill="none" stroke="#00876c" points="1364.92,-808.13 1364.92,-830.23 1263.35,-841.18 1124.63,-841.18 1023.05,-830.23 1023.05,-808.13 1124.63,-797.18 1263.35,-797.18 1364.92,-808.13"/>
<text text-anchor="middle" x="1193.99" y="-814.13" font-family="Times,serif" font-size="14.00">metaeffekt:SIL Open Font License 1.0</text>
</g>
<!-- 3269&#45;&gt;48493 -->
<g id="edge3" class="edge">
<title>3269&#45;&gt;48493</title>
<path fill="none" stroke="#00876c" stroke-width="2" d="M1159.45,-453.2C1195.5,-545.42 1196.97,-567.47 1194.39,-785.57"/>
<polygon fill="#00876c" stroke="#00876c" stroke-width="2" points="1194.29,-794.34 1189.91,-784.29 1193.82,-791.78 1193.91,-784.34 1194.41,-784.34 1194.91,-784.35 1194.82,-791.79 1198.91,-784.4 1194.29,-794.34"/>
</g>
<!-- 3270 -->
<g id="node3" class="node">
<title>3270</title>
<polygon fill="none" stroke="black" points="1042.75,-666.36 1042.75,-681.27 1015.38,-691.82 976.68,-691.82 949.31,-681.27 949.31,-666.36 976.68,-655.82 1015.38,-655.82 1042.75,-666.36"/>
<polygon fill="none" stroke="black" points="1046.75,-663.62 1046.75,-684.02 1016.13,-695.82 975.94,-695.82 945.31,-684.02 945.31,-663.62 975.94,-651.82 1016.13,-651.82 1046.75,-663.62"/>
<text text-anchor="middle" x="996.03" y="-668.77" font-family="Times,serif" font-size="14.00">OFL&#45;1.0</text>
</g>
<!-- 3270&#45;&gt;3269 -->
<g id="edge4" class="edge">
<title>3270&#45;&gt;3269</title>
<path fill="none" stroke="black" stroke-width="2" d="M1006.94,-651.54C1068,-526.86 1082.61,-498.69 1116.31,-461.18"/>
<polygon fill="black" stroke="black" stroke-width="2" points="1122.17,-454.8 1118.72,-465.21 1120.8,-457.02 1115.78,-462.5 1115.41,-462.17 1115.04,-461.83 1120.07,-456.35 1112.09,-459.13 1122.17,-454.8"/>
</g>
<!-- 21143 -->
<g id="node8" class="node">
<title>21143</title>
<polygon fill="none" stroke="black" points="883.78,-657.94 883.78,-672.85 837.92,-683.4 773.06,-683.4 727.19,-672.85 727.19,-657.94 773.06,-647.4 837.92,-647.4 883.78,-657.94"/>
<polygon fill="none" stroke="black" points="887.78,-654.76 887.78,-676.04 838.37,-687.4 772.6,-687.4 723.19,-676.04 723.19,-654.76 772.6,-643.4 838.37,-643.4 887.78,-654.76"/>
<text text-anchor="middle" x="805.49" y="-660.35" font-family="Times,serif" font-size="14.00">scancode:ofl&#45;1.0</text>
</g>
<!-- 3270&#45;&gt;21143 -->
<g id="edge5" class="edge">
<title>3270&#45;&gt;21143</title>
<path fill="none" stroke="black" stroke-width="2" d="M959.56,-657.73C919.79,-640.87 901.01,-637.02 869.23,-644.7"/>
<polygon fill="black" stroke="black" stroke-width="2" points="860.77,-646.96 869.27,-640.03 863.12,-645.81 870.31,-643.89 870.43,-644.38 870.56,-644.86 863.38,-646.78 871.6,-648.72 860.77,-646.96"/>
</g>
<!-- 26947 -->
<g id="node11" class="node">
<title>26947</title>
<polygon fill="none" stroke="#e18745" points="1060.11,-363.89 1060.11,-378.8 1008.4,-389.35 935.28,-389.35 883.57,-378.8 883.57,-363.89 935.28,-353.35 1008.4,-353.35 1060.11,-363.89"/>
<polygon fill="none" stroke="#e18745" points="1064.11,-360.62 1064.11,-382.07 1008.8,-393.35 934.87,-393.35 879.57,-382.07 879.57,-360.62 934.87,-349.35 1008.8,-349.35 1064.11,-360.62"/>
<text text-anchor="middle" x="971.84" y="-366.3" font-family="Times,serif" font-size="14.00">fossology:OFL&#45;1.0</text>
</g>
<!-- 3270&#45;&gt;26947 -->
<g id="edge6" class="edge">
<title>3270&#45;&gt;26947</title>
<path fill="none" stroke="#e18745" stroke-width="2" d="M995.43,-651.41C991.03,-488.89 989.93,-463.54 978.43,-404.21"/>
<polygon fill="#e18745" stroke="#e18745" stroke-width="2" points="976.8,-395.93 983.15,-404.87 977.79,-398.34 979.22,-405.64 978.73,-405.74 978.24,-405.83 976.8,-398.54 974.32,-406.61 976.8,-395.93"/>
</g>
<!-- 37298 -->
<g id="node15" class="node">
<title>37298</title>
<polygon fill="none" stroke="#379469" points="1189,-917.31 1189,-932.23 1148.65,-942.77 1091.59,-942.77 1051.25,-932.23 1051.25,-917.31 1091.59,-906.77 1148.65,-906.77 1189,-917.31"/>
<polygon fill="none" stroke="#379469" points="1193,-914.22 1193,-935.31 1149.17,-946.77 1091.08,-946.77 1047.25,-935.31 1047.25,-914.22 1091.08,-902.77 1149.17,-902.77 1193,-914.22"/>
<text text-anchor="middle" x="1120.12" y="-919.72" font-family="Times,serif" font-size="14.00">cavil:OFL&#45;1.0</text>
</g>
<!-- 3270&#45;&gt;37298 -->
<g id="edge7" class="edge">
<title>3270&#45;&gt;37298</title>
<path fill="none" stroke="#379469" stroke-width="2" d="M1018.52,-695C1068.96,-743.45 1076.68,-762.04 1111.29,-891.57"/>
<polygon fill="#379469" stroke="#379469" stroke-width="2" points="1113.53,-899.98 1106.61,-891.48 1112.39,-897.63 1110.47,-890.45 1110.96,-890.32 1111.44,-890.19 1113.36,-897.38 1115.3,-889.16 1113.53,-899.98"/>
</g>
<!-- 3270&#45;&gt;48493 -->
<g id="edge8" class="edge">
<title>3270&#45;&gt;48493</title>
<path fill="none" stroke="#00876c" stroke-dasharray="5,2" d="M1044.34,-685.24C1103.63,-700.76 1119.79,-715.64 1171.58,-787.72"/>
<polygon fill="#00876c" stroke="#00876c" points="1177.37,-795.8 1167.89,-790.29 1175.17,-792.73 1171.55,-787.67 1171.55,-787.67 1171.55,-787.67 1175.17,-792.73 1175.2,-785.05 1177.37,-795.8"/>
</g>
<!-- 50752 -->
<g id="node22" class="node">
<title>50752</title>
<polygon fill="none" stroke="#b8bf62" points="820.91,-941.75 820.91,-956.67 720.85,-967.21 579.35,-967.21 479.29,-956.67 479.29,-941.75 579.35,-931.21 720.85,-931.21 820.91,-941.75"/>
<polygon fill="none" stroke="#b8bf62" points="824.91,-938.15 824.91,-960.27 721.06,-971.21 579.14,-971.21 475.29,-960.27 475.29,-938.15 579.14,-927.21 721.06,-927.21 824.91,-938.15"/>
<text text-anchor="middle" x="650.1" y="-944.16" font-family="Times,serif" font-size="14.00">foss&#45;license:SIL Open Font License 1.0</text>
</g>
<!-- 3270&#45;&gt;50752 -->
<g id="edge9" class="edge">
<title>3270&#45;&gt;50752</title>
<path fill="none" stroke="#b8bf62" stroke-width="2" d="M950.35,-686.46C820.44,-723.32 801.2,-742.15 672.97,-917.83"/>
<polygon fill="#b8bf62" stroke="#b8bf62" stroke-width="2" points="667.81,-924.9 670.07,-914.17 668.92,-922.53 673.3,-916.52 673.71,-916.82 674.11,-917.11 669.73,-923.12 677.34,-919.47 667.81,-924.9"/>
</g>
<!-- 3271 -->
<g id="node4" class="node">
<title>3271</title>
<polygon fill="none" stroke="black" points="977.45,-603.19 977.45,-618.1 906.6,-628.65 806.4,-628.65 735.55,-618.1 735.55,-603.19 806.4,-592.65 906.6,-592.65 977.45,-603.19"/>
<polygon fill="none" stroke="black" points="981.45,-599.74 981.45,-621.55 906.9,-632.65 806.1,-632.65 731.55,-621.55 731.55,-599.74 806.1,-588.65 906.9,-588.65 981.45,-599.74"/>
<text text-anchor="middle" x="856.5" y="-605.6" font-family="Times,serif" font-size="14.00">SIL Open Font License 1.0</text>
</g>
<!-- 3271&#45;&gt;3269 -->
<g id="edge10" class="edge">
<title>3271&#45;&gt;3269</title>
<path fill="none" stroke="#b8bf62" stroke-width="2" d="M878.11,-588.26C974.35,-488.72 1004.58,-460.32 1062.9,-443.91"/>
<polygon fill="#b8bf62" stroke="#b8bf62" stroke-width="2" points="1071.37,-441.69 1062.84,-448.58 1069.02,-442.82 1061.82,-444.71 1061.7,-444.22 1061.57,-443.74 1068.76,-441.85 1060.56,-439.87 1071.37,-441.69"/>
</g>
<!-- 3271&#45;&gt;21143 -->
<g id="edge11" class="edge">
<title>3271&#45;&gt;21143</title>
<path fill="none" stroke="#dac767" stroke-width="2" d="M825.41,-632.76C825.08,-633.21 824.75,-633.68 824.41,-634.16"/>
<polygon fill="#dac767" stroke="#dac767" stroke-width="2" points="819.81,-641.24 821.48,-630.41 820.79,-638.82 824.84,-632.58 825.26,-632.85 825.67,-633.13 821.63,-639.37 829.03,-635.3 819.81,-641.24"/>
</g>
<!-- 3271&#45;&gt;26947 -->
<g id="edge12" class="edge">
<title>3271&#45;&gt;26947</title>
<path fill="none" stroke="#e18745" stroke-width="2" d="M864.14,-588.39C906.11,-466.16 915.61,-441.23 946.32,-402.22"/>
<polygon fill="#e18745" stroke="#e18745" stroke-width="2" points="951.69,-395.54 948.93,-406.16 950.47,-397.86 945.81,-403.65 945.42,-403.34 945.03,-403.03 949.69,-397.23 941.91,-400.52 951.69,-395.54"/>
</g>
<!-- 3271&#45;&gt;48493 -->
<g id="edge13" class="edge">
<title>3271&#45;&gt;48493</title>
<path fill="none" stroke="#00876c" stroke-width="2" d="M953.44,-626.18C1040.07,-644.04 1069.01,-671.78 1167.79,-788.22"/>
<polygon fill="#00876c" stroke="#00876c" stroke-width="2" points="1173.45,-794.9 1163.55,-790.18 1171.41,-793.26 1166.6,-787.59 1166.99,-787.27 1167.37,-786.94 1172.18,-792.62 1170.42,-784.36 1173.45,-794.9"/>
</g>
<!-- 3271&#45;&gt;50752 -->
<g id="edge14" class="edge">
<title>3271&#45;&gt;50752</title>
<path fill="none" stroke="#b8bf62" stroke-width="2" d="M827.56,-633.1C741.84,-700.48 731.09,-721.92 661.73,-916.52"/>
<polygon fill="#b8bf62" stroke="#b8bf62" stroke-width="2" points="658.88,-924.54 657.99,-913.61 659.27,-921.96 661.76,-914.95 662.23,-915.12 662.71,-915.29 660.21,-922.29 666.47,-916.63 658.88,-924.54"/>
</g>
<!-- 8235 -->
<g id="node5" class="node">
<title>8235</title>
<polygon fill="none" stroke="black" points="1526.07,-920.8 1526.07,-935.71 1508.12,-946.25 1482.72,-946.25 1464.77,-935.71 1464.77,-920.8 1482.72,-910.25 1508.12,-910.25 1526.07,-920.8"/>
<text text-anchor="middle" x="1495.42" y="-923.2" font-family="Times,serif" font-size="14.00">OFL</text>
</g>
<!-- 8235&#45;&gt;48493 -->
<g id="edge15" class="edge">
<title>8235&#45;&gt;48493</title>
<path fill="none" stroke="#00876c" stroke-dasharray="5,2" d="M1478.48,-912.27C1431.8,-868.39 1405.84,-846.16 1369.69,-834.39"/>
<polygon fill="#00876c" stroke="#00876c" points="1360.37,-831.68 1371.23,-830.16 1364.01,-832.74 1369.98,-834.48 1369.98,-834.48 1369.98,-834.48 1364.01,-832.74 1368.72,-838.8 1360.37,-831.68"/>
</g>
<!-- 21142 -->
<g id="node7" class="node">
<title>21142</title>
<ellipse fill="none" stroke="#dac767" cx="485.09" cy="-449.29" rx="156.62" ry="28.99"/>
<text text-anchor="middle" x="485.09" y="-452.49" font-family="Times,serif" font-size="14.00" fill="gray">ScancodeData</text>
<text text-anchor="middle" x="485.09" y="-435.99" font-family="Times,serif" font-size="14.00" fill="gray">d74ceed05873484f52e07a0ec3f5d7c3</text>
</g>
<!-- 21142&#45;&gt;21143 -->
<g id="edge16" class="edge">
<title>21142&#45;&gt;21143</title>
<path fill="none" stroke="#dac767" d="M574.64,-473.44C633.35,-494.33 668.22,-526.56 775.51,-635.04"/>
<polygon fill="#dac767" stroke="#dac767" points="772.78,-637.26 782.3,-641.91 777.76,-632.34 772.78,-637.26"/>
</g>
<!-- 21143&#45;&gt;48493 -->
<g id="edge17" class="edge">
<title>21143&#45;&gt;48493</title>
<path fill="none" stroke="#00876c" stroke-dasharray="5,2" d="M888.17,-663.77C1007.29,-663.6 1036.65,-681.27 1160.48,-789.72"/>
<polygon fill="#00876c" stroke="#00876c" points="1167.86,-796.2 1157.38,-792.99 1165.02,-793.7 1160.35,-789.6 1160.35,-789.6 1160.35,-789.6 1165.02,-793.7 1163.31,-786.22 1167.86,-796.2"/>
</g>
<!-- 21143&#45;&gt;50752 -->
<g id="edge18" class="edge">
<title>21143&#45;&gt;50752</title>
<path fill="none" stroke="#b8bf62" stroke-width="2" d="M779.39,-687.72C715.95,-742.96 706.9,-763.11 660.02,-916.63"/>
<polygon fill="#b8bf62" stroke="#b8bf62" stroke-width="2" points="657.59,-924.61 656.2,-913.73 657.86,-922.01 660.03,-914.9 660.51,-915.04 660.99,-915.19 658.82,-922.3 664.81,-916.36 657.59,-924.61"/>
</g>
<!-- 21144 -->
<g id="node9" class="node">
<title>21144</title>
<polygon fill="none" stroke="black" points="948.82,-857.83 948.82,-872.74 922.1,-883.29 884.32,-883.29 857.6,-872.74 857.6,-857.83 884.32,-847.29 922.1,-847.29 948.82,-857.83"/>
<polygon fill="none" stroke="black" points="952.82,-855.11 952.82,-875.47 922.86,-887.29 883.56,-887.29 853.6,-875.47 853.6,-855.11 883.56,-843.29 922.86,-843.29 952.82,-855.11"/>
<text text-anchor="middle" x="903.21" y="-860.24" font-family="Times,serif" font-size="14.00">OFL 1.0</text>
</g>
<!-- 21144&#45;&gt;21143 -->
<g id="edge19" class="edge">
<title>21144&#45;&gt;21143</title>
<path fill="none" stroke="#dac767" stroke-width="2" d="M895.3,-842.86C862.2,-749.1 853.09,-725.63 830.61,-696.05"/>
<polygon fill="#dac767" stroke="#dac767" stroke-width="2" points="825.38,-689.4 835.1,-694.48 827.36,-691.1 831.95,-696.95 831.56,-697.26 831.17,-697.57 826.57,-691.72 828.02,-700.04 825.38,-689.4"/>
</g>
<!-- 21144&#45;&gt;48493 -->
<g id="edge20" class="edge">
<title>21144&#45;&gt;48493</title>
<path fill="none" stroke="#00876c" stroke-dasharray="5,2" d="M936.85,-848.59C1015.96,-809.55 1049.55,-795.59 1092.25,-798.05"/>
<polygon fill="#00876c" stroke="#00876c" points="1102.13,-798.92 1091.77,-802.52 1098.36,-798.59 1092.16,-798.04 1092.16,-798.04 1092.16,-798.04 1098.36,-798.59 1092.56,-793.56 1102.13,-798.92"/>
</g>
<!-- 21144&#45;&gt;50752 -->
<g id="edge21" class="edge">
<title>21144&#45;&gt;50752</title>
<path fill="none" stroke="#b8bf62" stroke-width="2" d="M853.13,-861.79C775.94,-857.47 755.1,-865.36 686.19,-920.09"/>
<polygon fill="#b8bf62" stroke="#b8bf62" stroke-width="2" points="679.45,-925.48 684.45,-915.72 681.14,-923.49 686.95,-918.85 687.26,-919.24 687.58,-919.63 681.77,-924.27 690.07,-922.75 679.45,-925.48"/>
</g>
<!-- 26946 -->
<g id="node10" class="node">
<title>26946</title>
<ellipse fill="none" stroke="#e18745" cx="1276.77" cy="-98.13" rx="157.15" ry="28.99"/>
<text text-anchor="middle" x="1276.77" y="-101.33" font-family="Times,serif" font-size="14.00" fill="gray">Fossology</text>
<text text-anchor="middle" x="1276.77" y="-84.83" font-family="Times,serif" font-size="14.00" fill="gray">2f04f40ef0932bd2a4d1e7e2bd41651d</text>
</g>
<!-- 26946&#45;&gt;26947 -->
<g id="edge22" class="edge">
<title>26946&#45;&gt;26947</title>
<path fill="none" stroke="#e18745" d="M1213.42,-125.11C1139.21,-159.48 1112.46,-190.25 995.66,-340.64"/>
<polygon fill="#e18745" stroke="#e18745" points="993.23,-338.06 989.86,-348.11 998.76,-342.35 993.23,-338.06"/>
</g>
<!-- 35119 -->
<g id="node12" class="node">
<title>35119</title>
<ellipse fill="none" stroke="#e06f45" cx="937.94" cy="-102.2" rx="157.68" ry="28.99"/>
<text text-anchor="middle" x="937.94" y="-105.4" font-family="Times,serif" font-size="14.00" fill="gray">OrtLicenseCategorization</text>
<text text-anchor="middle" x="937.94" y="-88.9" font-family="Times,serif" font-size="14.00" fill="gray">3613e93eaa20ed3eea1e2ad7ec90b8d2</text>
</g>
<!-- 35119&#45;&gt;3269 -->
<g id="edge23" class="edge">
<title>35119&#45;&gt;3269</title>
<path fill="none" stroke="#e06f45" d="M976.07,-130.69C1050.24,-187.63 1063.96,-214.01 1134.24,-389.79"/>
<polygon fill="#e06f45" stroke="#e06f45" points="1130.99,-391.08 1137.95,-399.07 1137.49,-388.49 1130.99,-391.08"/>
</g>
<!-- 36227 -->
<g id="node13" class="node">
<title>36227</title>
<ellipse fill="none" stroke="#e09d4b" cx="1521.78" cy="-407.76" rx="159.28" ry="28.99"/>
<text text-anchor="middle" x="1521.78" y="-410.96" font-family="Times,serif" font-size="14.00" fill="gray">OrtLicenseCategorization</text>
<text text-anchor="middle" x="1521.78" y="-394.46" font-family="Times,serif" font-size="14.00" fill="gray">0818a430721182776c0e3ea11ade68ca</text>
</g>
<!-- 36227&#45;&gt;3269 -->
<g id="edge24" class="edge">
<title>36227&#45;&gt;3269</title>
<path fill="none" stroke="#e09d4b" d="M1449.39,-381.48C1370.63,-355.57 1335.77,-360.62 1214.6,-403.27"/>
<polygon fill="#e09d4b" stroke="#e09d4b" points="1213.47,-399.95 1205.21,-406.59 1215.81,-406.55 1213.47,-399.95"/>
</g>
<!-- 37297 -->
<g id="node14" class="node">
<title>37297</title>
<ellipse fill="none" stroke="#379469" cx="1292.5" cy="-1265.09" rx="159.81" ry="28.99"/>
<text text-anchor="middle" x="1292.5" y="-1268.29" font-family="Times,serif" font-size="14.00" fill="gray">CavilLicenseChange</text>
<text text-anchor="middle" x="1292.5" y="-1251.79" font-family="Times,serif" font-size="14.00" fill="gray">f6dc33d471ed0103ab0318c1c6206b01</text>
</g>
<!-- 37297&#45;&gt;37298 -->
<g id="edge25" class="edge">
<title>37297&#45;&gt;37298</title>
<path fill="none" stroke="#379469" d="M1287.97,-1235.87C1260.21,-1057.73 1252.68,-1036.06 1155.69,-954.34"/>
<polygon fill="#379469" stroke="#379469" points="1158.05,-951.76 1148.14,-948.01 1153.55,-957.12 1158.05,-951.76"/>
</g>
<!-- 48492 -->
<g id="node16" class="node">
<title>48492</title>
<ellipse fill="none" stroke="#00876c" cx="1604.22" cy="-1091.76" rx="158.75" ry="28.99"/>
<text text-anchor="middle" x="1604.22" y="-1094.96" font-family="Times,serif" font-size="14.00" fill="gray">MetaeffektLicense</text>
<text text-anchor="middle" x="1604.22" y="-1078.46" font-family="Times,serif" font-size="14.00" fill="gray">5eb321296b14acefbe91ec9d542bb222</text>
</g>
<!-- 48492&#45;&gt;48493 -->
<g id="edge26" class="edge">
<title>48492&#45;&gt;48493</title>
<path fill="none" stroke="#00876c" d="M1585.12,-1062.67C1485.23,-911.05 1461.8,-887.86 1288.78,-842.89"/>
<polygon fill="#00876c" stroke="#00876c" points="1289.74,-839.52 1279.18,-840.41 1287.99,-846.3 1289.74,-839.52"/>
</g>
<!-- 48494 -->
<g id="node18" class="node">
<title>48494</title>
<polygon fill="none" stroke="black" points="1046.9,-1130.55 1046.9,-1145.46 999.08,-1156.01 931.47,-1156.01 883.66,-1145.46 883.66,-1130.55 931.47,-1120.01 999.08,-1120.01 1046.9,-1130.55"/>
<polygon fill="none" stroke="black" points="1050.9,-1127.34 1050.9,-1148.68 999.52,-1160.01 931.03,-1160.01 879.66,-1148.68 879.66,-1127.34 931.03,-1116.01 999.52,-1116.01 1050.9,-1127.34"/>
<text text-anchor="middle" x="965.28" y="-1132.96" font-family="Times,serif" font-size="14.00">OFL, Version 1.0</text>
</g>
<!-- 48494&#45;&gt;48493 -->
<g id="edge27" class="edge">
<title>48494&#45;&gt;48493</title>
<path fill="none" stroke="#00876c" stroke-dasharray="5,2" d="M979.17,-1115.66C1092.03,-934.15 1109.25,-907.63 1164.79,-849.37"/>
<polygon fill="#00876c" stroke="#00876c" points="1171.68,-842.19 1168,-852.52 1169.06,-844.92 1164.76,-849.41 1164.76,-849.41 1164.76,-849.41 1169.06,-844.92 1161.51,-846.29 1171.68,-842.19"/>
</g>
<!-- 48494&#45;&gt;50752 -->
<g id="edge28" class="edge">
<title>48494&#45;&gt;50752</title>
<path fill="none" stroke="#b8bf62" stroke-width="2" d="M942.27,-1115.66C847.45,-1023.66 810.48,-989.92 760.6,-972.06"/>
<polygon fill="#b8bf62" stroke="#b8bf62" stroke-width="2" points="752.39,-969.34 763.3,-968.21 754.98,-969.67 762.04,-972.01 761.89,-972.49 761.73,-972.96 754.67,-970.62 760.47,-976.76 752.39,-969.34"/>
</g>
<!-- 48495 -->
<g id="node19" class="node">
<title>48495</title>
<polygon fill="none" stroke="black" points="840.95,-887.48 840.95,-902.4 738.3,-912.94 593.12,-912.94 490.47,-902.4 490.47,-887.48 593.12,-876.94 738.3,-876.94 840.95,-887.48"/>
<polygon fill="none" stroke="black" points="844.95,-883.87 844.95,-906.01 738.5,-916.94 592.92,-916.94 486.47,-906.01 486.47,-883.87 592.92,-872.94 738.5,-872.94 844.95,-883.87"/>
<text text-anchor="middle" x="665.71" y="-889.89" font-family="Times,serif" font-size="14.00">SIL OPEN FONT LICENSE Version 1.0</text>
</g>
<!-- 48495&#45;&gt;48493 -->
<g id="edge29" class="edge">
<title>48495&#45;&gt;48493</title>
<path fill="none" stroke="#00876c" stroke-dasharray="5,2" d="M708,-872.55C905.52,-768.27 943.55,-755.93 1102.65,-795.28"/>
<polygon fill="#00876c" stroke="#00876c" points="1112.13,-797.65 1101.34,-799.59 1108.46,-796.73 1102.43,-795.22 1102.43,-795.22 1102.43,-795.22 1108.46,-796.73 1103.52,-790.86 1112.13,-797.65"/>
</g>
<!-- 48495&#45;&gt;50752 -->
<g id="edge30" class="edge">
<title>48495&#45;&gt;50752</title>
<path fill="none" stroke="#b8bf62" stroke-width="2" d="M653.79,-917.33C653.78,-917.41 653.76,-917.5 653.74,-917.58"/>
<polygon fill="#b8bf62" stroke="#b8bf62" stroke-width="2" points="652.64,-924.52 649.76,-913.94 652.55,-921.91 653.71,-914.56 654.2,-914.64 654.7,-914.72 653.54,-922.06 658.65,-915.34 652.64,-924.52"/>
</g>
<!-- 48496 -->
<g id="node20" class="node">
<title>48496</title>
<polygon fill="none" stroke="#00876c" points="1771.21,-770.29 1771.21,-785.21 1695.82,-795.75 1589.19,-795.75 1513.8,-785.21 1513.8,-770.29 1589.19,-759.75 1695.82,-759.75 1771.21,-770.29"/>
<text text-anchor="middle" x="1642.51" y="-772.7" font-family="Times,serif" font-size="14.00">SIL Open Font License, v1.0</text>
</g>
<!-- 48496&#45;&gt;48493 -->
<g id="edge31" class="edge">
<title>48496&#45;&gt;48493</title>
<path fill="none" stroke="#00876c" stroke-dasharray="5,2" d="M1581.75,-760.39C1483.66,-734.1 1445.91,-739.14 1274.46,-793.42"/>
<polygon fill="#00876c" stroke="#00876c" points="1264.95,-796.44 1273.12,-789.12 1268.55,-795.29 1274.48,-793.41 1274.48,-793.41 1274.48,-793.41 1268.55,-795.29 1275.84,-797.7 1264.95,-796.44"/>
</g>
<!-- 50751 -->
<g id="node21" class="node">
<title>50751</title>
<ellipse fill="none" stroke="#b8bf62" cx="159.72" cy="-891.28" rx="159.81" ry="28.99"/>
<text text-anchor="middle" x="159.72" y="-894.48" font-family="Times,serif" font-size="14.00" fill="gray">FossLicense</text>
<text text-anchor="middle" x="159.72" y="-877.98" font-family="Times,serif" font-size="14.00" fill="gray">5fc6e69d5856d7b9e71c65446a9b2d40</text>
</g>
<!-- 50751&#45;&gt;50752 -->
<g id="edge32" class="edge">
<title>50751&#45;&gt;50752</title>
<path fill="none" stroke="#b8bf62" d="M260.89,-868.47C343.69,-854.44 396.38,-866.71 570.51,-923.2"/>
<polygon fill="#b8bf62" stroke="#b8bf62" points="569.31,-926.49 579.9,-926.25 571.47,-919.83 569.31,-926.49"/>
</g>
<!-- 50753 -->
<g id="node23" class="node">
<title>50753</title>
<polygon fill="none" stroke="black" points="948.62,-1604.49 948.62,-1619.4 795.02,-1629.94 577.79,-1629.94 424.19,-1619.4 424.19,-1604.49 577.79,-1593.94 795.02,-1593.94 948.62,-1604.49"/>
<polygon fill="none" stroke="black" points="952.62,-1600.75 952.62,-1623.14 795.15,-1633.94 577.65,-1633.94 420.19,-1623.14 420.19,-1600.75 577.65,-1589.94 795.15,-1589.94 952.62,-1600.75"/>
<text text-anchor="middle" x="686.4" y="-1606.89" font-family="Times,serif" font-size="14.00">SIL OPEN FONT LICENSE Version 1.0 &#45; 22 November 2005</text>
</g>
<!-- 50753&#45;&gt;50752 -->
<g id="edge33" class="edge">
<title>50753&#45;&gt;50752</title>
<path fill="none" stroke="#b8bf62" stroke-width="2" d="M679.79,-1589.66C569.11,-1216.84 565.38,-1195.47 638.84,-981.82"/>
<polygon fill="#b8bf62" stroke="#b8bf62" stroke-width="2" points="641.6,-973.8 642.6,-984.72 641.24,-976.38 638.82,-983.42 638.34,-983.25 637.87,-983.09 640.29,-976.06 634.09,-981.79 641.6,-973.8"/>
</g>
<!-- 52577 -->
<g id="node27" class="node">
<title>52577</title>
<polygon fill="none" stroke="#d43d51" points="1175.51,-2338.11 1175.51,-2353.02 1004.38,-2363.56 762.37,-2363.56 591.25,-2353.02 591.25,-2338.11 762.37,-2327.56 1004.38,-2327.56 1175.51,-2338.11"/>
<polygon fill="none" stroke="#d43d51" points="1179.51,-2334.35 1179.51,-2356.78 1004.5,-2367.56 762.25,-2367.56 587.25,-2356.78 587.25,-2334.35 762.25,-2323.56 1004.5,-2323.56 1179.51,-2334.35"/>
<text text-anchor="middle" x="883.38" y="-2340.51" font-family="Times,serif" font-size="14.00">hitachi:SIL OPEN FONT LICENSE Version 1.0 &#45; 22 November 2005</text>
</g>
<!-- 50753&#45;&gt;52577 -->
<g id="edge34" class="edge">
<title>50753&#45;&gt;52577</title>
<path fill="none" stroke="#d43d51" stroke-width="2" d="M689.44,-1634.29C753,-2102.3 757.96,-2129.52 864.8,-2313.66"/>
<polygon fill="#d43d51" stroke="#d43d51" stroke-width="2" points="869.07,-2321.01 860.15,-2314.63 867.35,-2319.05 863.61,-2312.62 864.05,-2312.37 864.48,-2312.12 868.21,-2318.55 867.94,-2310.11 869.07,-2321.01"/>
</g>
<!-- 50754 -->
<g id="node24" class="node">
<title>50754</title>
<polygon fill="none" stroke="#b8bf62" points="355.33,-1073.8 355.33,-1088.71 306.22,-1099.26 236.77,-1099.26 187.66,-1088.71 187.66,-1073.8 236.77,-1063.26 306.22,-1063.26 355.33,-1073.8"/>
<polygon fill="none" stroke="#b8bf62" points="359.33,-1070.57 359.33,-1091.94 306.64,-1103.26 236.34,-1103.26 183.66,-1091.94 183.66,-1070.57 236.34,-1059.26 306.64,-1059.26 359.33,-1070.57"/>
<text text-anchor="middle" x="271.49" y="-1076.21" font-family="Times,serif" font-size="14.00">scancode://ofl&#45;1.0</text>
</g>
<!-- 50754&#45;&gt;50752 -->
<g id="edge35" class="edge">
<title>50754&#45;&gt;50752</title>
<path fill="none" stroke="#b8bf62" stroke-width="2" d="M295.71,-1058.89C363.82,-996.35 395.46,-972.3 464.02,-961.14"/>
<polygon fill="#b8bf62" stroke="#b8bf62" stroke-width="2" points="472.47,-959.88 463.24,-965.81 470.01,-960.76 462.65,-961.85 462.58,-961.36 462.5,-960.86 469.86,-959.77 461.91,-956.91 472.47,-959.88"/>
</g>
<!-- 50755 -->
<g id="node25" class="node">
<title>50755</title>
<polygon fill="none" stroke="#b8bf62" points="474.49,-1262.11 474.49,-1277.03 412.07,-1287.57 323.81,-1287.57 261.39,-1277.03 261.39,-1262.11 323.81,-1251.57 412.07,-1251.57 474.49,-1262.11"/>
<polygon fill="none" stroke="#b8bf62" points="478.49,-1258.73 478.49,-1280.41 412.41,-1291.57 323.47,-1291.57 257.39,-1280.41 257.39,-1258.73 323.47,-1247.57 412.41,-1247.57 478.49,-1258.73"/>
<text text-anchor="middle" x="367.94" y="-1264.52" font-family="Times,serif" font-size="14.00">scancode:ofl&#45;1.0&#45;no&#45;rfn</text>
</g>
<!-- 50755&#45;&gt;50752 -->
<g id="edge36" class="edge">
<title>50755&#45;&gt;50752</title>
<path fill="none" stroke="#b8bf62" stroke-width="2" d="M375.98,-1247.13C438.95,-1071.61 450.98,-1051.06 596.04,-976.58"/>
<polygon fill="#b8bf62" stroke="#b8bf62" stroke-width="2" points="603.62,-972.71 596.77,-981.26 601.57,-974.32 594.95,-977.7 594.72,-977.26 594.49,-976.81 601.11,-973.43 592.67,-973.25 603.62,-972.71"/>
</g>
<!-- 52576 -->
<g id="node26" class="node">
<title>52576</title>
<ellipse fill="none" stroke="#d43d51" cx="1140.58" cy="-2871.79" rx="160.34" ry="28.99"/>
<text text-anchor="middle" x="1140.58" y="-2874.99" font-family="Times,serif" font-size="14.00" fill="gray">HitachiOpenLicense</text>
<text text-anchor="middle" x="1140.58" y="-2858.49" font-family="Times,serif" font-size="14.00" fill="gray">2e09a4c7a572e764a4b70e9950d18401</text>
</g>
<!-- 52576&#45;&gt;52577 -->
<g id="edge37" class="edge">
<title>52576&#45;&gt;52577</title>
<path fill="none" stroke="#d43d51" d="M1117.76,-2842.85C1026.99,-2727.08 1015.43,-2700.13 895.62,-2378.44"/>
<polygon fill="#d43d51" stroke="#d43d51" points="898.97,-2377.43 892.2,-2369.28 892.41,-2379.87 898.97,-2377.43"/>
</g>
</g>
</svg>
