<?xml version="1.0" encoding="UTF-8" standalone="no"?>
<!DOCTYPE svg PUBLIC "-//W3C//DTD SVG 1.1//EN"
 "http://www.w3.org/Graphics/SVG/1.1/DTD/svg11.dtd">
<!-- Generated by graphviz version 10.0.1 (0)
 -->
<!-- Pages: 1 -->
<svg width="2641pt" height="3038pt"
 viewBox="0.00 0.00 2641.00 3038.00" xmlns="http://www.w3.org/2000/svg" xmlns:xlink="http://www.w3.org/1999/xlink">
<g id="graph0" class="graph" transform="scale(1 1) rotate(0) translate(4 3034)">
<polygon fill="white" stroke="none" points="-4,4 -4,-3034 2637,-3034 2637,4 -4,4"/>
<!-- 5 -->
<g id="node1" class="node">
<title>5</title>
<text text-anchor="start" x="692.21" y="-713.18" font-family="Times,serif" font-size="14.00">OSI: </text>
<text text-anchor="start" x="721.46" y="-713.18" font-family="Times,serif" font-weight="bold" font-size="14.00" fill="#8b0000">Rejected</text>
</g>
<!-- 3633 -->
<g id="node2" class="node">
<title>3633</title>
<ellipse fill="none" stroke="#dac767" cx="809.47" cy="-1033.5" rx="156.62" ry="28.99"/>
<text text-anchor="middle" x="809.47" y="-1036.7" font-family="Times,serif" font-size="14.00" fill="gray">SPDXLicense</text>
<text text-anchor="middle" x="809.47" y="-1020.2" font-family="Times,serif" font-size="14.00" fill="gray">69200f12c46daf67a57ce28aa8d9da22</text>
</g>
<!-- 5&#45;&gt;3633 -->
<g id="edge1" class="edge">
<title>5&#45;&gt;3633</title>
<path fill="none" stroke="#dac767" d="M731.4,-734.98C728.91,-819.86 732.51,-835.73 793.95,-993.68"/>
<polygon fill="#dac767" stroke="#dac767" points="790.64,-994.84 797.53,-1002.89 797.17,-992.3 790.64,-994.84"/>
</g>
<!-- 59418 -->
<g id="node32" class="node">
<title>59418</title>
<ellipse fill="none" stroke="#dc574a" cx="1055.44" cy="-750.81" rx="156.09" ry="28.99"/>
<text text-anchor="middle" x="1055.44" y="-754.01" font-family="Times,serif" font-size="14.00" fill="gray">HermineLicense</text>
<text text-anchor="middle" x="1055.44" y="-737.51" font-family="Times,serif" font-size="14.00" fill="gray">141e98ddf7796908ed1a8af30b39ebfe</text>
</g>
<!-- 5&#45;&gt;59418 -->
<g id="edge2" class="edge">
<title>5&#45;&gt;59418</title>
<path fill="none" stroke="#dc574a" d="M779.68,-702.84C850.14,-682.86 878.56,-684.94 975.64,-720.56"/>
<polygon fill="#dc574a" stroke="#dc574a" points="974.2,-723.75 984.79,-723.94 976.63,-717.19 974.2,-723.75"/>
</g>
<!-- 3634 -->
<g id="node3" class="node">
<title>3634</title>
<polygon fill="none" stroke="black" points="1369.28,-1334.92 1369.28,-1349.83 1315.95,-1360.38 1240.54,-1360.38 1187.21,-1349.83 1187.21,-1334.92 1240.54,-1324.38 1315.95,-1324.38 1369.28,-1334.92"/>
<polygon fill="none" stroke="black" points="1373.28,-1331.63 1373.28,-1353.12 1316.35,-1364.38 1240.15,-1364.38 1183.21,-1353.12 1183.21,-1331.63 1240.15,-1320.38 1316.35,-1320.38 1373.28,-1331.63"/>
<polygon fill="none" stroke="black" points="1377.28,-1328.35 1377.28,-1356.4 1316.74,-1368.38 1239.75,-1368.38 1179.21,-1356.4 1179.21,-1328.35 1239.75,-1316.38 1316.74,-1316.38 1377.28,-1328.35"/>
<text text-anchor="middle" x="1278.25" y="-1337.33" font-family="Times,serif" font-size="14.00">spdx:OFL&#45;1.0&#45;RFN</text>
</g>
<!-- 3633&#45;&gt;3634 -->
<g id="edge3" class="edge">
<title>3633&#45;&gt;3634</title>
<path fill="none" stroke="#dac767" d="M872.62,-1060.37C972.66,-1104.34 1012.79,-1133.9 1235.74,-1308.98"/>
<polygon fill="#dac767" stroke="#dac767" points="1233.55,-1311.71 1243.58,-1315.14 1237.88,-1306.21 1233.55,-1311.71"/>
</g>
<!-- 23140 -->
<g id="node18" class="node">
<title>23140</title>
<polygon fill="none" stroke="black" points="1709.41,-1308.76 1709.41,-1323.67 1654.78,-1334.22 1577.53,-1334.22 1522.91,-1323.67 1522.91,-1308.76 1577.53,-1298.22 1654.78,-1298.22 1709.41,-1308.76"/>
<polygon fill="none" stroke="black" points="1713.41,-1305.46 1713.41,-1326.97 1655.17,-1338.22 1577.15,-1338.22 1518.91,-1326.97 1518.91,-1305.46 1577.15,-1294.22 1655.17,-1294.22 1713.41,-1305.46"/>
<text text-anchor="middle" x="1616.16" y="-1311.17" font-family="Times,serif" font-size="14.00">scancode:ofl&#45;1.0&#45;rfn</text>
</g>
<!-- 3634&#45;&gt;23140 -->
<g id="edge4" class="edge">
<title>3634&#45;&gt;23140</title>
<path fill="none" stroke="#deb256" stroke-width="2" d="M1377.37,-1340.92C1421.25,-1338.25 1472.74,-1334.27 1516.66,-1330.16"/>
<polygon fill="#deb256" stroke="#deb256" stroke-width="2" points="1525.23,-1329.34 1515.7,-1334.77 1522.72,-1330.09 1515.32,-1330.79 1515.27,-1330.29 1515.23,-1329.8 1522.63,-1329.09 1514.85,-1325.81 1525.23,-1329.34"/>
</g>
<!-- 57301 -->
<g id="node28" class="node">
<title>57301</title>
<polygon fill="none" stroke="#379469" points="1824.47,-1907.53 1824.47,-1922.44 1675.74,-1932.99 1465.39,-1932.99 1316.66,-1922.44 1316.66,-1907.53 1465.39,-1896.99 1675.74,-1896.99 1824.47,-1907.53"/>
<polygon fill="none" stroke="#379469" points="1828.47,-1903.8 1828.47,-1926.17 1675.88,-1936.99 1465.25,-1936.99 1312.66,-1926.17 1312.66,-1903.8 1465.25,-1892.99 1675.88,-1892.99 1828.47,-1903.8"/>
<text text-anchor="middle" x="1570.57" y="-1909.94" font-family="Times,serif" font-size="14.00">metaeffekt:SIL Open Font License 1.0 (reserved font name)</text>
</g>
<!-- 3634&#45;&gt;57301 -->
<g id="edge5" class="edge">
<title>3634&#45;&gt;57301</title>
<path fill="none" stroke="#379469" stroke-width="2" d="M1294.53,-1368.71C1499.5,-1700.28 1513.3,-1724.64 1560.73,-1882.12"/>
<polygon fill="#379469" stroke="#379469" stroke-width="2" points="1563.2,-1890.35 1556.01,-1882.07 1561.98,-1888.04 1559.84,-1880.92 1560.32,-1880.78 1560.8,-1880.63 1562.94,-1887.75 1564.63,-1879.48 1563.2,-1890.35"/>
</g>
<!-- 3635 -->
<g id="node4" class="node">
<title>3635</title>
<polygon fill="none" stroke="black" points="1339.9,-1532.4 1339.9,-1547.31 1299.23,-1557.86 1241.71,-1557.86 1201.04,-1547.31 1201.04,-1532.4 1241.71,-1521.86 1299.23,-1521.86 1339.9,-1532.4"/>
<polygon fill="none" stroke="black" points="1343.9,-1529.31 1343.9,-1550.41 1299.74,-1561.86 1241.2,-1561.86 1197.04,-1550.41 1197.04,-1529.31 1241.2,-1517.86 1299.74,-1517.86 1343.9,-1529.31"/>
<text text-anchor="middle" x="1270.47" y="-1534.81" font-family="Times,serif" font-size="14.00">OFL&#45;1.0&#45;RFN</text>
</g>
<!-- 3635&#45;&gt;3634 -->
<g id="edge6" class="edge">
<title>3635&#45;&gt;3634</title>
<path fill="none" stroke="black" stroke-width="2" d="M1267.83,-1517.45C1258.05,-1433.83 1256.39,-1411.21 1265.63,-1379.18"/>
<polygon fill="black" stroke="black" stroke-width="2" points="1268.12,-1371.18 1269.44,-1382.07 1267.84,-1373.78 1265.62,-1380.88 1265.14,-1380.73 1264.67,-1380.58 1266.88,-1373.48 1260.85,-1379.39 1268.12,-1371.18"/>
</g>
<!-- 3635&#45;&gt;23140 -->
<g id="edge7" class="edge">
<title>3635&#45;&gt;23140</title>
<path fill="none" stroke="black" stroke-width="2" d="M1303.09,-1518.39C1474.93,-1405.35 1508.27,-1383.53 1570.75,-1344.49"/>
<polygon fill="black" stroke="black" stroke-width="2" points="1578.13,-1339.89 1572.03,-1349 1576.22,-1341.67 1569.91,-1345.6 1569.65,-1345.18 1569.39,-1344.76 1575.69,-1340.82 1567.27,-1341.36 1578.13,-1339.89"/>
</g>
<!-- 42073 -->
<g id="node25" class="node">
<title>42073</title>
<polygon fill="none" stroke="#379469" points="965.59,-1648.68 965.59,-1663.59 911.94,-1674.13 836.07,-1674.13 782.41,-1663.59 782.41,-1648.68 836.07,-1638.13 911.94,-1638.13 965.59,-1648.68"/>
<polygon fill="none" stroke="#379469" points="969.59,-1645.39 969.59,-1666.88 912.33,-1678.13 835.68,-1678.13 778.41,-1666.88 778.41,-1645.39 835.68,-1634.13 912.33,-1634.13 969.59,-1645.39"/>
<text text-anchor="middle" x="874" y="-1651.08" font-family="Times,serif" font-size="14.00">cavil:OFL&#45;1.0&#45;RFN</text>
</g>
<!-- 3635&#45;&gt;42073 -->
<g id="edge8" class="edge">
<title>3635&#45;&gt;42073</title>
<path fill="none" stroke="#379469" stroke-width="2" d="M1217.52,-1556.08C1055.6,-1605.69 1006.69,-1620.5 949.84,-1635.99"/>
<polygon fill="#379469" stroke="#379469" stroke-width="2" points="941.45,-1638.26 949.93,-1631.3 943.79,-1637.11 950.97,-1635.16 951.1,-1635.64 951.23,-1636.13 944.05,-1638.07 952.28,-1639.99 941.45,-1638.26"/>
</g>
<!-- 3635&#45;&gt;57301 -->
<g id="edge9" class="edge">
<title>3635&#45;&gt;57301</title>
<path fill="none" stroke="#379469" stroke-dasharray="5,2" d="M1286.08,-1562.1C1442.97,-1785.47 1462.91,-1812.76 1538.67,-1884.9"/>
<polygon fill="#379469" stroke="#379469" points="1545.8,-1891.66 1535.45,-1888.04 1543.05,-1889.06 1538.54,-1884.78 1538.54,-1884.78 1538.54,-1884.78 1543.05,-1889.06 1541.64,-1881.51 1545.8,-1891.66"/>
</g>
<!-- 3636 -->
<g id="node5" class="node">
<title>3636</title>
<polygon fill="none" stroke="black" points="2126.7,-1366.82 2126.7,-1381.73 1992.24,-1392.28 1802.09,-1392.28 1667.64,-1381.73 1667.64,-1366.82 1802.09,-1356.28 1992.24,-1356.28 2126.7,-1366.82"/>
<polygon fill="none" stroke="black" points="2130.7,-1363.12 2130.7,-1385.43 1992.4,-1396.28 1801.94,-1396.28 1663.64,-1385.43 1663.64,-1363.12 1801.94,-1352.28 1992.4,-1352.28 2130.7,-1363.12"/>
<text text-anchor="middle" x="1897.17" y="-1369.23" font-family="Times,serif" font-size="14.00">SIL Open Font License 1.0 with Reserved Font Name</text>
</g>
<!-- 3636&#45;&gt;3634 -->
<g id="edge10" class="edge">
<title>3636&#45;&gt;3634</title>
<path fill="none" stroke="black" stroke-width="2" d="M1838.26,-1351.81C1706.37,-1302.85 1660.27,-1301.01 1388.69,-1330.26"/>
<polygon fill="black" stroke="black" stroke-width="2" points="1380.11,-1331.19 1389.57,-1325.64 1382.61,-1330.42 1390,-1329.62 1390.05,-1330.12 1390.11,-1330.61 1382.71,-1331.41 1390.54,-1334.59 1380.11,-1331.19"/>
</g>
<!-- 3636&#45;&gt;23140 -->
<g id="edge11" class="edge">
<title>3636&#45;&gt;23140</title>
<path fill="none" stroke="#deb256" stroke-width="2" d="M1857.08,-1351.97C1819.22,-1332.27 1793.82,-1325.98 1724.77,-1321.51"/>
<polygon fill="#deb256" stroke="#deb256" stroke-width="2" points="1716.22,-1320.98 1726.48,-1317.11 1718.81,-1320.64 1726.23,-1321.1 1726.2,-1321.6 1726.17,-1322.1 1718.75,-1321.64 1725.92,-1326.09 1716.22,-1320.98"/>
</g>
<!-- 3636&#45;&gt;57301 -->
<g id="edge12" class="edge">
<title>3636&#45;&gt;57301</title>
<path fill="none" stroke="#379469" stroke-dasharray="5,2" d="M1894.06,-1396.71C1856.11,-1669.53 1848.13,-1686.84 1605.99,-1885.91"/>
<polygon fill="#379469" stroke="#379469" points="1598.59,-1891.99 1603.46,-1882.17 1601.51,-1889.59 1606.31,-1885.65 1606.31,-1885.65 1606.31,-1885.65 1601.51,-1889.59 1609.17,-1889.12 1598.59,-1891.99"/>
</g>
<!-- 68080 -->
<g id="node36" class="node">
<title>68080</title>
<polygon fill="none" stroke="#00876c" points="2024.47,-1423.69 2024.47,-1438.61 1877.36,-1449.15 1669.31,-1449.15 1522.2,-1438.61 1522.2,-1423.69 1669.31,-1413.15 1877.36,-1413.15 2024.47,-1423.69"/>
<polygon fill="none" stroke="#00876c" points="2028.47,-1419.97 2028.47,-1442.33 1877.5,-1453.15 1669.17,-1453.15 1518.2,-1442.33 1518.2,-1419.97 1669.17,-1409.15 1877.5,-1409.15 2028.47,-1419.97"/>
<text text-anchor="middle" x="1773.34" y="-1426.1" font-family="Times,serif" font-size="14.00">spdx:SIL Open Font License 1.0 with Reserved Font Name</text>
</g>
<!-- 3636&#45;&gt;68080 -->
<g id="edge13" class="edge">
<title>3636&#45;&gt;68080</title>
<path fill="none" stroke="#00876c" stroke-width="2" d="M1858.74,-1396.75C1853.74,-1399.13 1848.08,-1401.62 1841.15,-1404.51"/>
<polygon fill="#00876c" stroke="#00876c" stroke-width="2" points="1833.09,-1407.8 1840.65,-1399.85 1835.28,-1406.37 1842.16,-1403.56 1842.35,-1404.02 1842.54,-1404.48 1835.66,-1407.29 1844.05,-1408.19 1833.09,-1407.8"/>
</g>
<!-- 3637 -->
<g id="node6" class="node">
<title>3637</title>
<text text-anchor="middle" x="225" y="-1150.2" font-family="Times,serif" font-size="14.00">SPDXLicense:</text>
<text text-anchor="middle" x="225" y="-1133.7" font-family="Times,serif" font-size="14.00">This license has been superseded. This license was released in November 2005.</text>
<text text-anchor="middle" x="225" y="-1117.2" font-family="Times,serif" font-size="14.00">The identifier OFL&#45;1.0&#45;RFN should only be used when a Reserved Font Name</text>
<text text-anchor="middle" x="225" y="-1100.7" font-family="Times,serif" font-size="14.00">applies. See OFL&#45;1.0 and OFL&#45;1.0&#45;no&#45;RFN for alternatives.</text>
</g>
<!-- 3637&#45;&gt;3633 -->
<g id="edge14" class="edge">
<title>3637&#45;&gt;3633</title>
<path fill="none" stroke="#dac767" d="M292.21,-1093.55C395.66,-1038.73 445.7,-1028.81 642.02,-1030.64"/>
<polygon fill="#dac767" stroke="#dac767" points="641.77,-1034.14 651.8,-1030.74 641.84,-1027.14 641.77,-1034.14"/>
</g>
<!-- 3638 -->
<g id="node7" class="node">
<title>3638</title>
<text text-anchor="middle" x="423.44" y="-891.51" font-family="Times,serif" font-size="14.00">$TEXT</text>
</g>
<!-- 3638&#45;&gt;3633 -->
<g id="edge15" class="edge">
<title>3638&#45;&gt;3633</title>
<path fill="none" stroke="#dac767" d="M452.06,-900.58C542.75,-913.61 567.61,-922 740.19,-1001.49"/>
<polygon fill="#dac767" stroke="#dac767" points="738.48,-1004.56 749.03,-1005.57 741.41,-998.2 738.48,-1004.56"/>
</g>
<!-- 3639 -->
<g id="node8" class="node">
<title>3639</title>
<text text-anchor="middle" x="202.5" y="-805.47" font-family="Times,serif" font-size="14.00">$TEXT</text>
</g>
<!-- 3639&#45;&gt;3638 -->
<g id="edge16" class="edge">
<title>3639&#45;&gt;3638</title>
<path fill="none" stroke="#dac767" d="M231.06,-817.46C271.79,-827.78 291.79,-836.05 384.52,-878.65"/>
<polygon fill="#dac767" stroke="#dac767" points="383.03,-881.81 393.57,-882.81 385.95,-875.45 383.03,-881.81"/>
</g>
<!-- 3640 -->
<g id="node9" class="node">
<title>3640</title>
<text text-anchor="middle" x="1338.73" y="-804.53" font-family="Times,serif" font-size="14.00">http://scripts.sil.org/cms/scripts/page.php?item_id=OFL10_web</text>
</g>
<!-- 3640&#45;&gt;3633 -->
<g id="edge17" class="edge">
<title>3640&#45;&gt;3633</title>
<path fill="none" stroke="#dac767" d="M1156.61,-816.26C1027.88,-827.89 982.4,-863.57 846.9,-996.61"/>
<polygon fill="#dac767" stroke="#dac767" points="844.45,-994.11 839.77,-1003.62 849.35,-999.11 844.45,-994.11"/>
</g>
<!-- 23139 -->
<g id="node17" class="node">
<title>23139</title>
<ellipse fill="none" stroke="#deb256" cx="1896.88" cy="-797.54" rx="161.93" ry="28.99"/>
<text text-anchor="middle" x="1896.88" y="-800.74" font-family="Times,serif" font-size="14.00" fill="gray">ScancodeData</text>
<text text-anchor="middle" x="1896.88" y="-784.24" font-family="Times,serif" font-size="14.00" fill="gray">3cadd55b252d9968d3d715a2638a8bd2</text>
</g>
<!-- 3640&#45;&gt;23139 -->
<g id="edge18" class="edge">
<title>3640&#45;&gt;23139</title>
<path fill="none" stroke="#deb256" d="M1391.81,-791.71C1627.04,-712.84 1667.34,-706.61 1820.01,-766.39"/>
<polygon fill="#deb256" stroke="#deb256" points="1818.72,-769.64 1829.3,-770.06 1821.29,-763.13 1818.72,-769.64"/>
</g>
<!-- 3640&#45;&gt;59418 -->
<g id="edge19" class="edge">
<title>3640&#45;&gt;59418</title>
<path fill="none" stroke="#dc574a" d="M1307.5,-791.73C1265.09,-767.61 1236.49,-752.22 1211.87,-743.52"/>
<polygon fill="#dc574a" stroke="#dc574a" points="1213.21,-740.27 1202.62,-740.56 1211.07,-746.94 1213.21,-740.27"/>
</g>
<!-- 5550 -->
<g id="node10" class="node">
<title>5550</title>
<text text-anchor="middle" x="2265.91" y="-607.9" font-family="Times,serif" font-size="14.00">LicenseType Permissive</text>
</g>
<!-- 5550&#45;&gt;23139 -->
<g id="edge20" class="edge">
<title>5550&#45;&gt;23139</title>
<path fill="none" stroke="#deb256" d="M2198.35,-630.89C2134.61,-649.9 2095.64,-672.3 1951.36,-763.16"/>
<polygon fill="#deb256" stroke="#deb256" points="1949.58,-760.15 1942.99,-768.44 1953.31,-766.07 1949.58,-760.15"/>
</g>
<!-- 5758 -->
<g id="node11" class="node">
<title>5758</title>
<text text-anchor="middle" x="605.24" y="-13.31" font-family="Times,serif" font-size="14.00">LicenseType Copyleft</text>
</g>
<!-- 10673 -->
<g id="node13" class="node">
<title>10673</title>
<text text-anchor="middle" x="783.06" y="-321.65" font-family="Times,serif" font-size="14.00">LicenseType Strongly Protective</text>
</g>
<!-- 5758&#45;&gt;10673 -->
<g id="edge21" class="edge">
<title>5758&#45;&gt;10673</title>
<path fill="none" stroke="#00876c" d="M616.87,-36.03C662.51,-105.53 671.73,-121.82 767.91,-298.81"/>
<polygon fill="#00876c" stroke="#00876c" points="764.73,-300.29 772.58,-307.41 770.88,-296.95 764.73,-300.29"/>
</g>
<!-- 9082 -->
<g id="node12" class="node">
<title>9082</title>
<polygon fill="none" stroke="black" points="1821.63,-2326.72 1821.63,-2341.63 1803.67,-2352.18 1778.27,-2352.18 1760.32,-2341.63 1760.32,-2326.72 1778.27,-2316.18 1803.67,-2316.18 1821.63,-2326.72"/>
<text text-anchor="middle" x="1790.97" y="-2329.13" font-family="Times,serif" font-size="14.00">OFL</text>
</g>
<!-- 9082&#45;&gt;57301 -->
<g id="edge22" class="edge">
<title>9082&#45;&gt;57301</title>
<path fill="none" stroke="#379469" stroke-dasharray="5,2" d="M1782.2,-2315.91C1731.1,-2209.62 1722.13,-2192.66 1588.07,-1947.05"/>
<polygon fill="#379469" stroke="#379469" points="1583.42,-1938.53 1592.16,-1945.15 1585.23,-1941.85 1588.21,-1947.31 1588.21,-1947.31 1588.21,-1947.31 1585.23,-1941.85 1584.26,-1949.47 1583.42,-1938.53"/>
</g>
<!-- 10673&#45;&gt;59418 -->
<g id="edge23" class="edge">
<title>10673&#45;&gt;59418</title>
<path fill="none" stroke="#dc574a" d="M797.81,-344.55C877.8,-441.46 889.46,-459.86 1033.22,-711.86"/>
<polygon fill="#dc574a" stroke="#dc574a" points="1030.09,-713.43 1038.09,-720.38 1036.17,-709.96 1030.09,-713.43"/>
</g>
<!-- 23135 -->
<g id="node14" class="node">
<title>23135</title>
<text text-anchor="middle" x="2450.15" y="-722.46" font-family="Times,serif" font-size="14.00">http://scripts.sil.org/cms/scripts/page.php?item_id=OFL10_web</text>
</g>
<!-- 23135&#45;&gt;23139 -->
<g id="edge24" class="edge">
<title>23135&#45;&gt;23139</title>
<path fill="none" stroke="#deb256" d="M2353.09,-709.54C2256.19,-695.25 2199.88,-706.97 1991.73,-769.05"/>
<polygon fill="#deb256" stroke="#deb256" points="1990.77,-765.68 1982.19,-771.9 1992.77,-772.39 1990.77,-765.68"/>
</g>
<!-- 23136 -->
<g id="node15" class="node">
<title>23136</title>
<text text-anchor="middle" x="2280.87" y="-340.26" font-family="Times,serif" font-size="14.00">ScancodeData:</text>
<text text-anchor="middle" x="2280.87" y="-323.76" font-family="Times,serif" font-size="14.00">Per SPDX.org, this license has been superseded. This license was released</text>
<text text-anchor="middle" x="2280.87" y="-307.26" font-family="Times,serif" font-size="14.00">in November 2005.</text>
</g>
<!-- 23136&#45;&gt;23139 -->
<g id="edge25" class="edge">
<title>23136&#45;&gt;23139</title>
<path fill="none" stroke="#deb256" d="M2257.18,-357.56C2167.82,-465.95 2147.29,-491.04 1927.78,-759.72"/>
<polygon fill="#deb256" stroke="#deb256" points="1925.13,-757.42 1921.52,-767.38 1930.56,-761.85 1925.13,-757.42"/>
</g>
<!-- 23137 -->
<g id="node16" class="node">
<title>23137</title>
<text text-anchor="middle" x="1853.16" y="-737.16" font-family="Times,serif" font-size="14.00">https://scripts.sil.org/cms/scripts/render_download.php?format=file&amp;media_id=OFL10_plaintext&amp;filename=OFL10.txt</text>
</g>
<!-- 23137&#45;&gt;23139 -->
<g id="edge26" class="edge">
<title>23137&#45;&gt;23139</title>
<path fill="none" stroke="#deb256" d="M1880.31,-760.15C1880.44,-760.29 1880.56,-760.43 1880.69,-760.58"/>
<polygon fill="#deb256" stroke="#deb256" points="1876.44,-760.48 1884.84,-766.94 1882.3,-756.65 1876.44,-760.48"/>
</g>
<!-- 23139&#45;&gt;23140 -->
<g id="edge27" class="edge">
<title>23139&#45;&gt;23140</title>
<path fill="none" stroke="#deb256" d="M1886.96,-826.94C1839.12,-968.07 1825.89,-990.87 1636.75,-1284.29"/>
<polygon fill="#deb256" stroke="#deb256" points="1633.82,-1282.37 1631.34,-1292.67 1639.7,-1286.16 1633.82,-1282.37"/>
</g>
<!-- 23140&#45;&gt;3634 -->
<g id="edge28" class="edge">
<title>23140&#45;&gt;3634</title>
<path fill="none" stroke="#00876c" stroke-width="2" d="M1518.85,-1317.56C1478.16,-1320.02 1430.66,-1323.62 1388.67,-1327.43"/>
<polygon fill="#00876c" stroke="#00876c" stroke-width="2" points="1379.98,-1328.23 1389.52,-1322.83 1382.48,-1327.49 1389.89,-1326.81 1389.93,-1327.31 1389.98,-1327.81 1382.57,-1328.49 1390.35,-1331.79 1379.98,-1328.23"/>
</g>
<!-- 23140&#45;&gt;57301 -->
<g id="edge29" class="edge">
<title>23140&#45;&gt;57301</title>
<path fill="none" stroke="#379469" stroke-dasharray="5,2" d="M1622.09,-1338.65C1702.47,-1642.75 1703.29,-1661.32 1587.33,-1883.03"/>
<polygon fill="#379469" stroke="#379469" points="1582.82,-1891.63 1583.47,-1880.69 1584.58,-1888.28 1587.46,-1882.77 1587.46,-1882.77 1587.46,-1882.77 1584.58,-1888.28 1591.45,-1884.86 1582.82,-1891.63"/>
</g>
<!-- 23141 -->
<g id="node19" class="node">
<title>23141</title>
<polygon fill="none" stroke="black" points="2136.98,-1488.56 2136.98,-1503.48 2058.67,-1514.02 1947.91,-1514.02 1869.59,-1503.48 1869.59,-1488.56 1947.91,-1478.02 2058.67,-1478.02 2136.98,-1488.56"/>
<polygon fill="none" stroke="black" points="2140.98,-1485.07 2140.98,-1506.97 2058.93,-1518.02 1947.64,-1518.02 1865.59,-1506.97 1865.59,-1485.07 1947.64,-1474.02 2058.93,-1474.02 2140.98,-1485.07"/>
<text text-anchor="middle" x="2003.29" y="-1490.97" font-family="Times,serif" font-size="14.00">OFL 1.0 Reserved Font Name</text>
</g>
<!-- 23141&#45;&gt;23140 -->
<g id="edge30" class="edge">
<title>23141&#45;&gt;23140</title>
<path fill="none" stroke="#deb256" stroke-width="2" d="M1980.41,-1473.62C1901.43,-1396.9 1877.62,-1384.5 1693.21,-1336.2"/>
<polygon fill="#deb256" stroke="#deb256" stroke-width="2" points="1684.93,-1334.03 1695.74,-1332.21 1687.54,-1334.2 1694.73,-1336.08 1694.61,-1336.56 1694.48,-1337.05 1687.28,-1335.17 1693.47,-1340.92 1684.93,-1334.03"/>
</g>
<!-- 68079 -->
<g id="node35" class="node">
<title>68079</title>
<polygon fill="none" stroke="#00876c" points="1794.91,-1605.97 1794.91,-1620.88 1693.56,-1631.43 1550.22,-1631.43 1448.86,-1620.88 1448.86,-1605.97 1550.22,-1595.43 1693.56,-1595.43 1794.91,-1605.97"/>
<polygon fill="none" stroke="#00876c" points="1798.91,-1602.37 1798.91,-1624.49 1693.77,-1635.43 1550.01,-1635.43 1444.86,-1624.49 1444.86,-1602.37 1550.01,-1591.43 1693.77,-1591.43 1798.91,-1602.37"/>
<text text-anchor="middle" x="1621.89" y="-1608.38" font-family="Times,serif" font-size="14.00">scancode:OFL 1.0 Reserved Font Name</text>
</g>
<!-- 23141&#45;&gt;68079 -->
<g id="edge31" class="edge">
<title>23141&#45;&gt;68079</title>
<path fill="none" stroke="#00876c" stroke-width="2" d="M1964.51,-1518.49C1901.78,-1553.93 1869.76,-1564.45 1733.02,-1591.73"/>
<polygon fill="#00876c" stroke="#00876c" stroke-width="2" points="1724.51,-1593.42 1733.44,-1587.05 1726.93,-1592.43 1734.22,-1590.98 1734.32,-1591.47 1734.42,-1591.96 1727.12,-1593.41 1735.2,-1595.88 1724.51,-1593.42"/>
</g>
<!-- 23142 -->
<g id="node20" class="node">
<title>23142</title>
<text text-anchor="middle" x="2042.23" y="-452.32" font-family="Times,serif" font-size="14.00">$TEXT</text>
</g>
<!-- 23142&#45;&gt;23139 -->
<g id="edge32" class="edge">
<title>23142&#45;&gt;23139</title>
<path fill="none" stroke="#deb256" d="M2037.58,-475.15C2014.6,-562.61 2007.68,-578.97 1916.77,-758.32"/>
<polygon fill="#deb256" stroke="#deb256" points="1913.75,-756.54 1912.35,-767.04 1920,-759.7 1913.75,-756.54"/>
</g>
<!-- 35432 -->
<g id="node21" class="node">
<title>35432</title>
<text text-anchor="middle" x="718.08" y="-2395.3" font-family="Times,serif" font-size="14.00">LicenseTag (ScopedLicenseTag &quot;OrtLicenseCategorization&quot; &quot;permissive&quot; NoLicenseTagText)</text>
</g>
<!-- 39768 -->
<g id="node23" class="node">
<title>39768</title>
<ellipse fill="none" stroke="#d43d51" cx="1059.25" cy="-1833.64" rx="155.56" ry="28.99"/>
<text text-anchor="middle" x="1059.25" y="-1836.84" font-family="Times,serif" font-size="14.00" fill="gray">OrtLicenseCategorization</text>
<text text-anchor="middle" x="1059.25" y="-1820.34" font-family="Times,serif" font-size="14.00" fill="gray">dfc148ce3485e8cdfe0e0c1c870c8363</text>
</g>
<!-- 35432&#45;&gt;39768 -->
<g id="edge33" class="edge">
<title>35432&#45;&gt;39768</title>
<path fill="none" stroke="#d43d51" d="M727.65,-2382.47C809.33,-2229.95 820.03,-2212.2 1034.77,-1872.37"/>
<polygon fill="#d43d51" stroke="#d43d51" points="1037.67,-1874.34 1040.05,-1864.02 1031.75,-1870.6 1037.67,-1874.34"/>
</g>
<!-- 35433 -->
<g id="node22" class="node">
<title>35433</title>
<text text-anchor="middle" x="1006.5" y="-1888.71" font-family="Times,serif" font-size="14.00">LicenseTag (ScopedLicenseTag &quot;OrtLicenseCategorization&quot; &quot;include&#45;in&#45;notice&#45;file&quot; NoLicenseTagText)</text>
</g>
<!-- 35433&#45;&gt;39768 -->
<g id="edge34" class="edge">
<title>35433&#45;&gt;39768</title>
<path fill="none" stroke="#d43d51" d="M1022.66,-1876.01C1024.04,-1874.45 1025.51,-1872.78 1027.14,-1870.91"/>
<polygon fill="#d43d51" stroke="#d43d51" points="1029.52,-1873.5 1033.43,-1863.66 1024.24,-1868.92 1029.52,-1873.5"/>
</g>
<!-- 39768&#45;&gt;3634 -->
<g id="edge35" class="edge">
<title>39768&#45;&gt;3634</title>
<path fill="none" stroke="#d43d51" d="M1061.23,-1804.16C1072.35,-1642.4 1082.16,-1621.94 1253.26,-1377.97"/>
<polygon fill="#d43d51" stroke="#d43d51" points="1255.93,-1380.26 1258.81,-1370.06 1250.2,-1376.24 1255.93,-1380.26"/>
</g>
<!-- 42072 -->
<g id="node24" class="node">
<title>42072</title>
<ellipse fill="none" stroke="#379469" cx="476.29" cy="-1833.79" rx="155.56" ry="28.99"/>
<text text-anchor="middle" x="476.29" y="-1836.99" font-family="Times,serif" font-size="14.00" fill="gray">CavilLicenseChange</text>
<text text-anchor="middle" x="476.29" y="-1820.49" font-family="Times,serif" font-size="14.00" fill="gray">1eb3e9454de9bf790bdcfc450f14cabd</text>
</g>
<!-- 42072&#45;&gt;42073 -->
<g id="edge36" class="edge">
<title>42072&#45;&gt;42073</title>
<path fill="none" stroke="#379469" d="M530.79,-1806.22C595.8,-1773.76 636.2,-1756.29 814.98,-1680.99"/>
<polygon fill="#379469" stroke="#379469" points="816.3,-1684.23 824.15,-1677.12 813.58,-1677.78 816.3,-1684.23"/>
</g>
<!-- 43136 -->
<g id="node26" class="node">
<title>43136</title>
<text text-anchor="start" x="2279.01" y="-3014.15" font-family="Times,serif" font-size="14.00">CoDEStatus: </text>
<text text-anchor="start" x="2353.26" y="-3014.15" font-family="Times,serif" font-weight="bold" font-size="14.00" fill="#228b22">Approved</text>
<text text-anchor="start" x="2131.63" y="-3000.15" font-family="Times,serif" font-size="14.00">Eine Lizenz ist freigegeben, wenn sie nach fachlicher und juristischer Prüfung</text>
<text text-anchor="start" x="2113.63" y="-2986.15" font-family="Times,serif" font-size="14.00">seitens Open CoDE sowohl der Open Source Definition (gemäß Definition der Open</text>
<text text-anchor="start" x="2155.63" y="-2972.15" font-family="Times,serif" font-size="14.00">Source Initiative [extern]) entspricht und darüber hinaus keine für die</text>
<text text-anchor="start" x="2158.63" y="-2958.15" font-family="Times,serif" font-size="14.00">Öffentliche Verwaltung erkennbaren Schwierigkeiten birgt. Außer in</text>
<text text-anchor="start" x="2143.63" y="-2944.15" font-family="Times,serif" font-size="14.00">Ausnahmefällen ist nicht zu erwarten, dass einmal freigegebene Lizenzen</text>
<text text-anchor="start" x="2283.51" y="-2930.15" font-family="Times,serif" font-size="14.00">deklassifiziert werden.</text>
</g>
<!-- 57300 -->
<g id="node27" class="node">
<title>57300</title>
<ellipse fill="none" stroke="#379469" cx="2011.57" cy="-2486.11" rx="159.28" ry="28.99"/>
<text text-anchor="middle" x="2011.57" y="-2489.31" font-family="Times,serif" font-size="14.00" fill="gray">MetaeffektLicense</text>
<text text-anchor="middle" x="2011.57" y="-2472.81" font-family="Times,serif" font-size="14.00" fill="gray">2174bd6a3ddaf8cd40b726e9795c155e</text>
</g>
<!-- 43136&#45;&gt;57300 -->
<g id="edge37" class="edge">
<title>43136&#45;&gt;57300</title>
<path fill="none" stroke="#379469" d="M2310.11,-2924.56C2245.75,-2827.15 2217.98,-2786.56 2038.05,-2524.65"/>
<polygon fill="#379469" stroke="#379469" points="2040.99,-2522.75 2032.44,-2516.49 2035.22,-2526.71 2040.99,-2522.75"/>
</g>
<!-- 57300&#45;&gt;57301 -->
<g id="edge38" class="edge">
<title>57300&#45;&gt;57301</title>
<path fill="none" stroke="#379469" d="M1987.51,-2457.07C1875.34,-2321.63 1855.66,-2295.76 1594.12,-1946.45"/>
<polygon fill="#379469" stroke="#379469" points="1597.01,-1944.46 1588.21,-1938.56 1591.41,-1948.66 1597.01,-1944.46"/>
</g>
<!-- 57302 -->
<g id="node29" class="node">
<title>57302</title>
<polygon fill="none" stroke="#379469" points="1808.32,-2610.98 1808.32,-2625.89 1686.52,-2636.43 1514.27,-2636.43 1392.47,-2625.89 1392.47,-2610.98 1514.27,-2600.43 1686.52,-2600.43 1808.32,-2610.98"/>
<polygon fill="none" stroke="#379469" points="1812.32,-2607.31 1812.32,-2629.56 1686.69,-2640.43 1514.1,-2640.43 1388.47,-2629.56 1388.47,-2607.31 1514.1,-2596.43 1686.69,-2596.43 1812.32,-2607.31"/>
<text text-anchor="middle" x="1600.4" y="-2613.38" font-family="Times,serif" font-size="14.00">SIL Open Font License 1.0 (reserved font name)</text>
</g>
<!-- 57302&#45;&gt;57301 -->
<g id="edge39" class="edge">
<title>57302&#45;&gt;57301</title>
<path fill="none" stroke="#379469" stroke-width="2" d="M1603.7,-2596.1C1632.14,-2403.49 1630.81,-2383.17 1574.85,-1948.23"/>
<polygon fill="#379469" stroke="#379469" stroke-width="2" points="1573.74,-1939.64 1579.48,-1948.99 1574.56,-1942.12 1575.51,-1949.5 1575.02,-1949.56 1574.52,-1949.62 1573.57,-1942.25 1570.55,-1950.14 1573.74,-1939.64"/>
</g>
<!-- 57303 -->
<g id="node30" class="node">
<title>57303</title>
<polygon fill="none" stroke="#379469" points="1199.85,-2243.44 1199.85,-2258.35 1079.67,-2268.9 909.71,-2268.9 789.53,-2258.35 789.53,-2243.44 909.71,-2232.9 1079.67,-2232.9 1199.85,-2243.44"/>
<text text-anchor="middle" x="994.69" y="-2245.85" font-family="Times,serif" font-size="14.00">is a Reserved Font Name for this Font Software</text>
</g>
<!-- 57303&#45;&gt;57301 -->
<g id="edge40" class="edge">
<title>57303&#45;&gt;57301</title>
<path fill="none" stroke="#379469" stroke-dasharray="5,2" d="M1111.54,-2235.22C1275.48,-2209.2 1319.26,-2170.44 1541,-1945.06"/>
<polygon fill="#379469" stroke="#379469" points="1547.77,-1938.18 1543.97,-1948.46 1545.12,-1940.87 1540.76,-1945.31 1540.76,-1945.31 1540.76,-1945.31 1545.12,-1940.87 1537.55,-1942.15 1547.77,-1938.18"/>
</g>
<!-- 59374 -->
<g id="node31" class="node">
<title>59374</title>
<text text-anchor="start" x="899.53" y="-304.6" font-family="Times,serif" font-size="14.00">HermineLicense: </text>
<text text-anchor="start" x="997.03" y="-304.6" font-family="Times,serif" font-weight="bold" font-size="14.00" fill="#8b0000">NOT FOSS &#45; deduced</text>
</g>
<!-- 59374&#45;&gt;59418 -->
<g id="edge41" class="edge">
<title>59374&#45;&gt;59418</title>
<path fill="none" stroke="#dc574a" d="M1011.67,-326.52C1009.44,-439.24 1011.16,-456.85 1049.34,-710.32"/>
<polygon fill="#dc574a" stroke="#dc574a" points="1045.83,-710.53 1050.78,-719.89 1052.75,-709.48 1045.83,-710.53"/>
</g>
<!-- 59418&#45;&gt;3634 -->
<g id="edge42" class="edge">
<title>59418&#45;&gt;3634</title>
<path fill="none" stroke="#dc574a" d="M1067.55,-779.95C1126.89,-922.8 1136.56,-948.93 1264.91,-1305.34"/>
<polygon fill="#dc574a" stroke="#dc574a" points="1261.55,-1306.33 1268.23,-1314.55 1268.13,-1303.96 1261.55,-1306.33"/>
</g>
<!-- 59419 -->
<g id="node33" class="node">
<title>59419</title>
<text text-anchor="middle" x="1165.11" y="-172.81" font-family="Times,serif" font-size="14.00">HermineLicense:</text>
<text text-anchor="middle" x="1165.11" y="-156.31" font-family="Times,serif" font-size="14.00">The identifier OFL&#45;1.0&#45;RFN should only be used when a Reserved Font Name</text>
<text text-anchor="middle" x="1165.11" y="-139.81" font-family="Times,serif" font-size="14.00">applies. See OFL&#45;1.0 and OFL&#45;1.0&#45;no&#45;RFN for alternatives.</text>
</g>
<!-- 59419&#45;&gt;59418 -->
<g id="edge43" class="edge">
<title>59419&#45;&gt;59418</title>
<path fill="none" stroke="#dc574a" d="M1152.63,-189.84C1089.61,-334.3 1085.75,-359.99 1058.6,-710.08"/>
<polygon fill="#dc574a" stroke="#dc574a" points="1055.12,-709.59 1057.84,-719.83 1062.1,-710.13 1055.12,-709.59"/>
</g>
<!-- 68078 -->
<g id="node34" class="node">
<title>68078</title>
<ellipse fill="none" stroke="#00876c" cx="1317.46" cy="-1746.46" rx="160.34" ry="28.99"/>
<text text-anchor="middle" x="1317.46" y="-1749.66" font-family="Times,serif" font-size="14.00" fill="gray">LicenseLynx</text>
<text text-anchor="middle" x="1317.46" y="-1733.16" font-family="Times,serif" font-size="14.00" fill="gray">131b6fb673d63d97016d4999fa62b450</text>
</g>
<!-- 68078&#45;&gt;3634 -->
<g id="edge44" class="edge">
<title>68078&#45;&gt;3634</title>
<path fill="none" stroke="#00876c" d="M1303.66,-1717.09C1257.14,-1616.92 1256.23,-1593.92 1274.92,-1380.17"/>
<polygon fill="#00876c" stroke="#00876c" points="1278.4,-1380.62 1275.78,-1370.36 1271.42,-1380.01 1278.4,-1380.62"/>
</g>
<!-- 68079&#45;&gt;3634 -->
<g id="edge45" class="edge">
<title>68079&#45;&gt;3634</title>
<path fill="none" stroke="#00876c" stroke-width="2" d="M1609.66,-1591.25C1541.06,-1467.33 1524.77,-1451.21 1342.11,-1370.42"/>
<polygon fill="#00876c" stroke="#00876c" stroke-width="2" points="1334.09,-1366.87 1345.06,-1366.8 1336.64,-1367.45 1343.44,-1370.46 1343.24,-1370.91 1343.04,-1371.37 1336.23,-1368.37 1341.42,-1375.03 1334.09,-1366.87"/>
</g>
<!-- 68080&#45;&gt;3634 -->
<g id="edge46" class="edge">
<title>68080&#45;&gt;3634</title>
<path fill="none" stroke="#00876c" stroke-width="2" d="M1735.71,-1408.72C1626.49,-1344.43 1592.46,-1336.12 1388.64,-1339.87"/>
<polygon fill="#00876c" stroke="#00876c" stroke-width="2" points="1379.97,-1340.03 1389.89,-1335.34 1382.53,-1339.48 1389.96,-1339.34 1389.97,-1339.84 1389.98,-1340.34 1382.55,-1340.48 1390.06,-1344.34 1379.97,-1340.03"/>
</g>
</g>
</svg>
