<?xml version="1.0" encoding="UTF-8" standalone="no"?>
<!DOCTYPE svg PUBLIC "-//W3C//DTD SVG 1.1//EN"
 "http://www.w3.org/Graphics/SVG/1.1/DTD/svg11.dtd">
<!-- Generated by graphviz version 10.0.1 (0)
 -->
<!-- Pages: 1 -->
<svg width="1748pt" height="1246pt"
 viewBox="0.00 0.00 1748.00 1246.00" xmlns="http://www.w3.org/2000/svg" xmlns:xlink="http://www.w3.org/1999/xlink">
<g id="graph0" class="graph" transform="scale(1 1) rotate(0) translate(4 1242)">
<polygon fill="white" stroke="none" points="-4,4 -4,-1242 1744,-1242 1744,4 -4,4"/>
<!-- 3329 -->
<g id="node1" class="node">
<title>3329</title>
<ellipse fill="none" stroke="#b8bf62" cx="1134.13" cy="-159.26" rx="158.75" ry="28.99"/>
<text text-anchor="middle" x="1134.13" y="-162.46" font-family="Times,serif" font-size="14.00" fill="gray">SPDXLicense</text>
<text text-anchor="middle" x="1134.13" y="-145.96" font-family="Times,serif" font-size="14.00" fill="gray">239909f93ddbe8b2fe632666ad8abd49</text>
</g>
<!-- 3330 -->
<g id="node2" class="node">
<title>3330</title>
<polygon fill="none" stroke="black" points="1171.65,-547.52 1171.65,-562.43 1120.27,-572.97 1047.61,-572.97 996.23,-562.43 996.23,-547.52 1047.61,-536.97 1120.27,-536.97 1171.65,-547.52"/>
<polygon fill="none" stroke="black" points="1175.65,-544.25 1175.65,-565.69 1120.68,-576.97 1047.2,-576.97 992.23,-565.69 992.23,-544.25 1047.2,-532.97 1120.68,-532.97 1175.65,-544.25"/>
<polygon fill="none" stroke="black" points="1179.65,-540.99 1179.65,-568.95 1121.09,-580.97 1046.8,-580.97 988.23,-568.95 988.23,-540.99 1046.8,-528.97 1121.09,-528.97 1179.65,-540.99"/>
<text text-anchor="middle" x="1083.94" y="-549.92" font-family="Times,serif" font-size="14.00">spdx:OGL&#45;UK&#45;3.0</text>
</g>
<!-- 3329&#45;&gt;3330 -->
<g id="edge1" class="edge">
<title>3329&#45;&gt;3330</title>
<path fill="none" stroke="#b8bf62" d="M1140.09,-188.41C1161.15,-293.58 1157.4,-315.28 1095.28,-518.04"/>
<polygon fill="#b8bf62" stroke="#b8bf62" points="1092.01,-516.74 1092.43,-527.33 1098.71,-518.8 1092.01,-516.74"/>
</g>
<!-- 8239 -->
<g id="node6" class="node">
<title>8239</title>
<polygon fill="none" stroke="#e09d4b" points="1363.06,-846.93 1363.06,-861.84 1306.49,-872.39 1226.48,-872.39 1169.91,-861.84 1169.91,-846.93 1226.48,-836.39 1306.49,-836.39 1363.06,-846.93"/>
<polygon fill="none" stroke="#e09d4b" points="1367.06,-843.61 1367.06,-865.17 1306.86,-876.39 1226.11,-876.39 1165.91,-865.17 1165.91,-843.61 1226.11,-832.39 1306.86,-832.39 1367.06,-843.61"/>
<text text-anchor="middle" x="1266.48" y="-849.34" font-family="Times,serif" font-size="14.00">Fedora:OGL&#45;UK&#45;3.0</text>
</g>
<!-- 3330&#45;&gt;8239 -->
<g id="edge2" class="edge">
<title>3330&#45;&gt;8239</title>
<path fill="none" stroke="#e09d4b" stroke-width="2" d="M1108.6,-581.18C1229.75,-710.13 1242.54,-728.18 1260.39,-821.39"/>
<polygon fill="#e09d4b" stroke="#e09d4b" stroke-width="2" points="1261.97,-829.8 1255.7,-820.81 1261.01,-827.38 1259.63,-820.07 1260.12,-819.98 1260.61,-819.88 1261.99,-827.19 1264.55,-819.14 1261.97,-829.8"/>
</g>
<!-- 46702 -->
<g id="node21" class="node">
<title>46702</title>
<polygon fill="none" stroke="#00876c" points="1258.97,-608.12 1258.97,-623.03 1138.14,-633.57 967.26,-633.57 846.44,-623.03 846.44,-608.12 967.26,-597.57 1138.14,-597.57 1258.97,-608.12"/>
<polygon fill="none" stroke="#00876c" points="1262.97,-604.45 1262.97,-626.7 1138.31,-637.57 967.09,-637.57 842.44,-626.7 842.44,-604.45 967.09,-593.57 1138.31,-593.57 1262.97,-604.45"/>
<text text-anchor="middle" x="1052.7" y="-610.52" font-family="Times,serif" font-size="14.00">metaeffekt:Open Government Licence 3.0 (UK)</text>
</g>
<!-- 3330&#45;&gt;46702 -->
<g id="edge3" class="edge">
<title>3330&#45;&gt;46702</title>
<path fill="none" stroke="#00876c" stroke-width="2" d="M1079.42,-581.44C1079.01,-582.37 1078.55,-583.3 1078.04,-584.25"/>
<polygon fill="#00876c" stroke="#00876c" stroke-width="2" points="1073.18,-591.44 1075.05,-580.64 1074.2,-589.04 1078.36,-582.88 1078.78,-583.16 1079.19,-583.44 1075.03,-589.6 1082.51,-585.67 1073.18,-591.44"/>
</g>
<!-- 3331 -->
<g id="node3" class="node">
<title>3331</title>
<polygon fill="none" stroke="black" points="994.3,-712.25 994.3,-727.16 955.58,-737.7 900.81,-737.7 862.09,-727.16 862.09,-712.25 900.81,-701.7 955.58,-701.7 994.3,-712.25"/>
<polygon fill="none" stroke="black" points="998.3,-709.19 998.3,-730.22 956.11,-741.7 900.28,-741.7 858.09,-730.22 858.09,-709.19 900.28,-697.7 956.11,-697.7 998.3,-709.19"/>
<text text-anchor="middle" x="928.19" y="-714.65" font-family="Times,serif" font-size="14.00">OGL&#45;UK&#45;3.0</text>
</g>
<!-- 3331&#45;&gt;3330 -->
<g id="edge4" class="edge">
<title>3331&#45;&gt;3330</title>
<path fill="none" stroke="black" stroke-width="2" d="M961.68,-698.83C1035.24,-652.61 1050.45,-638.93 1069.9,-591.59"/>
<polygon fill="black" stroke="black" stroke-width="2" points="1073.1,-583.57 1073.58,-594.52 1072.62,-586.13 1069.86,-593.04 1069.4,-592.86 1068.93,-592.67 1071.69,-585.76 1065.22,-591.19 1073.1,-583.57"/>
</g>
<!-- 3331&#45;&gt;8239 -->
<g id="edge5" class="edge">
<title>3331&#45;&gt;8239</title>
<path fill="none" stroke="#e09d4b" stroke-width="2" d="M967.71,-738.9C1093.4,-799.89 1138.16,-820.85 1184.75,-834.73"/>
<polygon fill="#e09d4b" stroke="#e09d4b" stroke-width="2" points="1193.05,-837.11 1182.2,-838.68 1190.45,-836.88 1183.3,-834.84 1183.44,-834.36 1183.57,-833.88 1190.72,-835.92 1184.67,-830.03 1193.05,-837.11"/>
</g>
<!-- 21228 -->
<g id="node10" class="node">
<title>21228</title>
<polygon fill="none" stroke="black" points="915.81,-406.93 915.81,-421.84 861.18,-432.39 783.93,-432.39 729.3,-421.84 729.3,-406.93 783.93,-396.39 861.18,-396.39 915.81,-406.93"/>
<polygon fill="none" stroke="black" points="919.81,-403.63 919.81,-425.15 861.56,-436.39 783.55,-436.39 725.3,-425.15 725.3,-403.63 783.55,-392.39 861.56,-392.39 919.81,-403.63"/>
<text text-anchor="middle" x="822.55" y="-409.34" font-family="Times,serif" font-size="14.00">scancode:ogl&#45;uk&#45;3.0</text>
</g>
<!-- 3331&#45;&gt;21228 -->
<g id="edge6" class="edge">
<title>3331&#45;&gt;21228</title>
<path fill="none" stroke="black" stroke-width="2" d="M923.43,-697.32C887.75,-529.89 881.25,-504.22 843.63,-446.08"/>
<polygon fill="black" stroke="black" stroke-width="2" points="838.92,-438.88 848.16,-444.78 840.74,-440.75 844.81,-446.97 844.4,-447.25 843.98,-447.52 839.9,-441.3 840.63,-449.71 838.92,-438.88"/>
</g>
<!-- 27914 -->
<g id="node13" class="node">
<title>27914</title>
<polygon fill="none" stroke="#e18745" points="688.01,-673.65 688.01,-688.56 624.95,-699.1 535.76,-699.1 472.7,-688.56 472.7,-673.65 535.76,-663.1 624.95,-663.1 688.01,-673.65"/>
<polygon fill="none" stroke="#e18745" points="692.01,-670.26 692.01,-691.95 625.28,-703.1 535.43,-703.1 468.7,-691.95 468.7,-670.26 535.43,-659.1 625.28,-659.1 692.01,-670.26"/>
<text text-anchor="middle" x="580.36" y="-676.05" font-family="Times,serif" font-size="14.00">fossology:OGL&#45;UK&#45;3.0</text>
</g>
<!-- 3331&#45;&gt;27914 -->
<g id="edge7" class="edge">
<title>3331&#45;&gt;27914</title>
<path fill="none" stroke="#e18745" stroke-width="2" d="M857.76,-725.99C729.02,-737.03 695.03,-735.53 634.82,-708.06"/>
<polygon fill="#e18745" stroke="#e18745" stroke-width="2" points="627.12,-704.46 638.09,-704.62 629.66,-705.09 636.39,-708.24 636.18,-708.7 635.97,-709.15 629.23,-706 634.28,-712.77 627.12,-704.46"/>
</g>
<!-- 37322 -->
<g id="node19" class="node">
<title>37322</title>
<polygon fill="none" stroke="#379469" points="819.87,-878.86 819.87,-893.78 768.17,-904.32 695.04,-904.32 643.34,-893.78 643.34,-878.86 695.04,-868.32 768.17,-868.32 819.87,-878.86"/>
<polygon fill="none" stroke="#379469" points="823.87,-875.6 823.87,-897.04 768.57,-908.32 694.64,-908.32 639.34,-897.04 639.34,-875.6 694.64,-864.32 768.57,-864.32 823.87,-875.6"/>
<text text-anchor="middle" x="731.6" y="-881.27" font-family="Times,serif" font-size="14.00">cavil:OGL&#45;UK&#45;3.0</text>
</g>
<!-- 3331&#45;&gt;37322 -->
<g id="edge8" class="edge">
<title>3331&#45;&gt;37322</title>
<path fill="none" stroke="#379469" stroke-width="2" d="M909.79,-742.2C847.12,-818.69 825.22,-843.48 790.98,-861.56"/>
<polygon fill="#379469" stroke="#379469" stroke-width="2" points="783.14,-865.45 790.11,-856.98 785.21,-863.86 791.88,-860.56 792.1,-861.01 792.32,-861.46 785.66,-864.76 794.1,-865.04 783.14,-865.45"/>
</g>
<!-- 3331&#45;&gt;46702 -->
<g id="edge9" class="edge">
<title>3331&#45;&gt;46702</title>
<path fill="none" stroke="#00876c" stroke-dasharray="5,2" d="M970.49,-701.11C1009.08,-683.39 1021.29,-673.56 1036.24,-647.28"/>
<polygon fill="#00876c" stroke="#00876c" points="1040.88,-638.77 1040.05,-649.71 1039.07,-642.09 1036.09,-647.56 1036.09,-647.56 1036.09,-647.56 1039.07,-642.09 1032.14,-645.4 1040.88,-638.77"/>
</g>
<!-- 3332 -->
<g id="node4" class="node">
<title>3332</title>
<polygon fill="none" stroke="black" points="801.66,-621.47 801.66,-636.38 718.8,-646.92 601.62,-646.92 518.77,-636.38 518.77,-621.47 601.62,-610.92 718.8,-610.92 801.66,-621.47"/>
<polygon fill="none" stroke="black" points="805.66,-617.94 805.66,-639.9 719.06,-650.92 601.37,-650.92 514.77,-639.9 514.77,-617.94 601.37,-606.92 719.06,-606.92 805.66,-617.94"/>
<text text-anchor="middle" x="660.21" y="-623.87" font-family="Times,serif" font-size="14.00">Open Government Licence v3.0</text>
</g>
<!-- 3332&#45;&gt;3330 -->
<g id="edge10" class="edge">
<title>3332&#45;&gt;3330</title>
<path fill="none" stroke="#b8bf62" stroke-width="2" d="M700.13,-606.54C846.92,-524.59 881.95,-511.67 994.97,-534.68"/>
<polygon fill="#b8bf62" stroke="#b8bf62" stroke-width="2" points="1003.41,-536.44 992.7,-538.8 1000.79,-536.41 993.52,-534.89 993.62,-534.4 993.72,-533.91 1001,-535.43 994.54,-529.99 1003.41,-536.44"/>
</g>
<!-- 3332&#45;&gt;27914 -->
<g id="edge11" class="edge">
<title>3332&#45;&gt;27914</title>
<path fill="none" stroke="#e18745" stroke-width="2" d="M615.57,-651.42C614.68,-651.91 613.82,-652.4 612.99,-652.88"/>
<polygon fill="#e18745" stroke="#e18745" stroke-width="2" points="605.75,-657.41 611.84,-648.29 607.65,-655.63 613.96,-651.68 614.22,-652.1 614.49,-652.53 608.19,-656.47 616.61,-655.92 605.75,-657.41"/>
</g>
<!-- 3332&#45;&gt;46702 -->
<g id="edge12" class="edge">
<title>3332&#45;&gt;46702</title>
<path fill="none" stroke="#00876c" stroke-dasharray="5,2" d="M805.91,-635.74C824.26,-634.99 845.38,-633.63 871.57,-631.59"/>
<polygon fill="#00876c" stroke="#00876c" points="881.48,-630.8 871.87,-636.08 877.71,-631.1 871.51,-631.59 871.51,-631.59 871.51,-631.59 877.71,-631.1 871.16,-627.11 881.48,-630.8"/>
</g>
<!-- 8238 -->
<g id="node5" class="node">
<title>8238</title>
<ellipse fill="none" stroke="#e09d4b" cx="1470.95" cy="-1208.71" rx="158.22" ry="28.99"/>
<text text-anchor="middle" x="1470.95" y="-1211.91" font-family="Times,serif" font-size="14.00" fill="gray">FedoraEntry</text>
<text text-anchor="middle" x="1470.95" y="-1195.41" font-family="Times,serif" font-size="14.00" fill="gray">3a7e5106ad353e28d7cfdc284b2580ac</text>
</g>
<!-- 8238&#45;&gt;8239 -->
<g id="edge13" class="edge">
<title>8238&#45;&gt;8239</title>
<path fill="none" stroke="#e09d4b" d="M1461.68,-1179.33C1432.2,-1087.16 1419.12,-1066.31 1289.23,-885.95"/>
<polygon fill="#e09d4b" stroke="#e09d4b" points="1292.12,-883.98 1283.43,-877.91 1286.44,-888.07 1292.12,-883.98"/>
</g>
<!-- 8240 -->
<g id="node7" class="node">
<title>8240</title>
<polygon fill="none" stroke="#e09d4b" points="1740.31,-919.1 1740.31,-934.01 1669.78,-944.55 1570.04,-944.55 1499.51,-934.01 1499.51,-919.1 1570.04,-908.55 1669.78,-908.55 1740.31,-919.1"/>
<text text-anchor="middle" x="1619.91" y="-921.5" font-family="Times,serif" font-size="14.00">Open Government License</text>
</g>
<!-- 8240&#45;&gt;8239 -->
<g id="edge14" class="edge">
<title>8240&#45;&gt;8239</title>
<path fill="none" stroke="#e09d4b" stroke-dasharray="5,2" d="M1510.36,-917.09C1473.58,-910.73 1428.57,-899.05 1341.95,-875.24"/>
<polygon fill="#e09d4b" stroke="#e09d4b" points="1332.36,-872.59 1343.19,-870.91 1336,-873.6 1342,-875.25 1342,-875.25 1342,-875.25 1336,-873.6 1340.8,-879.59 1332.36,-872.59"/>
</g>
<!-- 8241 -->
<g id="node8" class="node">
<title>8241</title>
<polygon fill="none" stroke="black" points="1486.84,-1002.54 1486.84,-1017.45 1467.91,-1028 1441.14,-1028 1422.21,-1017.45 1422.21,-1002.54 1441.14,-992 1467.91,-992 1486.84,-1002.54"/>
<text text-anchor="middle" x="1454.53" y="-1004.95" font-family="Times,serif" font-size="14.00">OGL</text>
</g>
<!-- 8241&#45;&gt;8239 -->
<g id="edge15" class="edge">
<title>8241&#45;&gt;8239</title>
<path fill="none" stroke="#e09d4b" stroke-dasharray="5,2" d="M1437.56,-993.51C1404.17,-961.27 1389.2,-948.98 1304.25,-883.48"/>
<polygon fill="#e09d4b" stroke="#e09d4b" points="1296.5,-877.5 1307.17,-880.04 1299.49,-879.81 1304.42,-883.61 1304.42,-883.61 1304.42,-883.61 1299.49,-879.81 1301.67,-887.17 1296.5,-877.5"/>
</g>
<!-- 21227 -->
<g id="node9" class="node">
<title>21227</title>
<ellipse fill="none" stroke="#dac767" cx="646.57" cy="-29.07" rx="157.68" ry="28.99"/>
<text text-anchor="middle" x="646.57" y="-32.27" font-family="Times,serif" font-size="14.00" fill="gray">ScancodeData</text>
<text text-anchor="middle" x="646.57" y="-15.77" font-family="Times,serif" font-size="14.00" fill="gray">e08cdb8fa70c428d21f53787c78b4a52</text>
</g>
<!-- 21227&#45;&gt;21228 -->
<g id="edge16" class="edge">
<title>21227&#45;&gt;21228</title>
<path fill="none" stroke="#dac767" d="M662.32,-58.34C706.15,-140.06 717.17,-165.11 808.76,-381.76"/>
<polygon fill="#dac767" stroke="#dac767" points="805.48,-382.98 812.59,-390.83 811.92,-380.25 805.48,-382.98"/>
</g>
<!-- 21228&#45;&gt;46702 -->
<g id="edge17" class="edge">
<title>21228&#45;&gt;46702</title>
<path fill="none" stroke="#00876c" stroke-dasharray="5,2" d="M878.94,-433.53C964.36,-464.01 980.45,-482.47 1035.39,-583.51"/>
<polygon fill="#00876c" stroke="#00876c" points="1040.07,-592.15 1031.35,-585.5 1038.27,-588.83 1035.3,-583.36 1035.3,-583.36 1035.3,-583.36 1038.27,-588.83 1039.26,-581.21 1040.07,-592.15"/>
</g>
<!-- 21229 -->
<g id="node11" class="node">
<title>21229</title>
<polygon fill="none" stroke="#dac767" points="1083.91,-352.01 1083.91,-366.93 916.68,-377.47 680.18,-377.47 512.94,-366.93 512.94,-352.01 680.18,-341.47 916.68,-341.47 1083.91,-352.01"/>
<polygon fill="none" stroke="#dac767" points="1087.91,-348.26 1087.91,-370.68 916.8,-381.47 680.05,-381.47 508.94,-370.68 508.94,-348.26 680.05,-337.47 916.8,-337.47 1087.91,-348.26"/>
<text text-anchor="middle" x="798.43" y="-354.42" font-family="Times,serif" font-size="14.00">U.K. Open Government License for Public Sector Information v3.0</text>
</g>
<!-- 21229&#45;&gt;21228 -->
<g id="edge18" class="edge">
<title>21229&#45;&gt;21228</title>
<path fill="none" stroke="#dac767" stroke-width="2" d="M809.74,-381.67C809.77,-381.76 809.81,-381.85 809.85,-381.94"/>
<polygon fill="#dac767" stroke="#dac767" stroke-width="2" points="812.97,-389.71 805.07,-382.11 811.55,-387.52 808.78,-380.62 809.24,-380.43 809.71,-380.25 812.48,-387.15 813.42,-378.75 812.97,-389.71"/>
</g>
<!-- 27913 -->
<g id="node12" class="node">
<title>27913</title>
<ellipse fill="none" stroke="#e18745" cx="157.76" cy="-718.16" rx="158.22" ry="28.99"/>
<text text-anchor="middle" x="157.76" y="-721.36" font-family="Times,serif" font-size="14.00" fill="gray">Fossology</text>
<text text-anchor="middle" x="157.76" y="-704.86" font-family="Times,serif" font-size="14.00" fill="gray">9c392f4b20a76b8702d803ad0e4a0dfb</text>
</g>
<!-- 27913&#45;&gt;27914 -->
<g id="edge19" class="edge">
<title>27913&#45;&gt;27914</title>
<path fill="none" stroke="#e18745" d="M309.35,-709.47C344.93,-706.31 390.17,-701.63 460.47,-694.08"/>
<polygon fill="#e18745" stroke="#e18745" points="460.42,-697.6 469.99,-693.05 459.67,-690.64 460.42,-697.6"/>
</g>
<!-- 28370 -->
<g id="node14" class="node">
<title>28370</title>
<ellipse fill="none" stroke="#379469" cx="863.5" cy="-1105.26" rx="158.75" ry="28.99"/>
<text text-anchor="middle" x="863.5" y="-1108.46" font-family="Times,serif" font-size="14.00" fill="gray">OKFN</text>
<text text-anchor="middle" x="863.5" y="-1091.96" font-family="Times,serif" font-size="14.00" fill="gray">7c179aba3e18699c6f996985c3068e83</text>
</g>
<!-- 28370&#45;&gt;3331 -->
<g id="edge20" class="edge">
<title>28370&#45;&gt;3331</title>
<path fill="none" stroke="#379469" d="M873.45,-1075.94C901.52,-992.24 904.8,-967.59 925.02,-753.42"/>
<polygon fill="#379469" stroke="#379469" points="928.49,-753.87 925.94,-743.59 921.52,-753.21 928.49,-753.87"/>
</g>
<!-- 28371 -->
<g id="node15" class="node">
<title>28371</title>
<polygon fill="none" stroke="#379469" points="1115.07,-764.46 1115.07,-779.37 989.7,-789.91 812.4,-789.91 687.03,-779.37 687.03,-764.46 812.4,-753.91 989.7,-753.91 1115.07,-764.46"/>
<polygon fill="none" stroke="#379469" points="1119.07,-760.78 1119.07,-783.05 989.87,-793.91 812.23,-793.91 683.03,-783.05 683.03,-760.78 812.23,-749.91 989.87,-749.91 1119.07,-760.78"/>
<text text-anchor="middle" x="901.05" y="-766.86" font-family="Times,serif" font-size="14.00">Open Government Licence 3.0 (United Kingdom)</text>
</g>
<!-- 28371&#45;&gt;3331 -->
<g id="edge21" class="edge">
<title>28371&#45;&gt;3331</title>
<path fill="none" stroke="#379469" stroke-width="2" d="M919.53,-749.76C919.58,-749.62 919.63,-749.49 919.69,-749.35"/>
<polygon fill="#379469" stroke="#379469" stroke-width="2" points="921.33,-744.5 922.39,-755.41 920.98,-747.09 918.6,-754.13 918.12,-753.97 917.65,-753.81 920.03,-746.77 913.86,-752.53 921.33,-744.5"/>
</g>
<!-- 35130 -->
<g id="node16" class="node">
<title>35130</title>
<ellipse fill="none" stroke="#e06f45" cx="1423.47" cy="-360.1" rx="156.62" ry="28.99"/>
<text text-anchor="middle" x="1423.47" y="-363.3" font-family="Times,serif" font-size="14.00" fill="gray">OrtLicenseCategorization</text>
<text text-anchor="middle" x="1423.47" y="-346.8" font-family="Times,serif" font-size="14.00" fill="gray">f4ab853182ef2187515067381c5c1bfa</text>
</g>
<!-- 35130&#45;&gt;3330 -->
<g id="edge22" class="edge">
<title>35130&#45;&gt;3330</title>
<path fill="none" stroke="#e06f45" d="M1382.25,-388.26C1325.81,-426.28 1293.55,-444.15 1140.05,-525.32"/>
<polygon fill="#e06f45" stroke="#e06f45" points="1138.79,-522.03 1131.59,-529.8 1142.06,-528.22 1138.79,-522.03"/>
</g>
<!-- 36231 -->
<g id="node17" class="node">
<title>36231</title>
<ellipse fill="none" stroke="#e09d4b" cx="1309.15" cy="-226.06" rx="158.22" ry="28.99"/>
<text text-anchor="middle" x="1309.15" y="-229.26" font-family="Times,serif" font-size="14.00" fill="gray">OrtLicenseCategorization</text>
<text text-anchor="middle" x="1309.15" y="-212.76" font-family="Times,serif" font-size="14.00" fill="gray">5dd57f8cdeb56a5c430657a0b4cc4ed2</text>
</g>
<!-- 36231&#45;&gt;3330 -->
<g id="edge23" class="edge">
<title>36231&#45;&gt;3330</title>
<path fill="none" stroke="#e09d4b" d="M1297.39,-255.43C1262.82,-340.62 1247.86,-361.16 1113.52,-520.02"/>
<polygon fill="#e09d4b" stroke="#e09d4b" points="1110.96,-517.63 1107.17,-527.53 1116.3,-522.15 1110.96,-517.63"/>
</g>
<!-- 37321 -->
<g id="node18" class="node">
<title>37321</title>
<ellipse fill="none" stroke="#379469" cx="668.56" cy="-949.01" rx="158.75" ry="28.99"/>
<text text-anchor="middle" x="668.56" y="-952.21" font-family="Times,serif" font-size="14.00" fill="gray">CavilLicenseChange</text>
<text text-anchor="middle" x="668.56" y="-935.71" font-family="Times,serif" font-size="14.00" fill="gray">90dd3cc4087213a965fe53749caa8961</text>
</g>
<!-- 37321&#45;&gt;37322 -->
<g id="edge24" class="edge">
<title>37321&#45;&gt;37322</title>
<path fill="none" stroke="#379469" d="M702,-920.28C702.94,-919.24 703.92,-918.16 704.94,-917.01"/>
<polygon fill="#379469" stroke="#379469" points="707.48,-919.42 711.46,-909.6 702.23,-914.79 707.48,-919.42"/>
</g>
<!-- 46701 -->
<g id="node20" class="node">
<title>46701</title>
<ellipse fill="none" stroke="#00876c" cx="1579.73" cy="-515.16" rx="156.62" ry="28.99"/>
<text text-anchor="middle" x="1579.73" y="-518.36" font-family="Times,serif" font-size="14.00" fill="gray">MetaeffektLicense</text>
<text text-anchor="middle" x="1579.73" y="-501.86" font-family="Times,serif" font-size="14.00" fill="gray">fbb94aa623686f1062df2b7d9fb317d1</text>
</g>
<!-- 46701&#45;&gt;46702 -->
<g id="edge25" class="edge">
<title>46701&#45;&gt;46702</title>
<path fill="none" stroke="#00876c" d="M1481.57,-538.13C1413.29,-553.4 1353.54,-564.21 1180.31,-593.82"/>
<polygon fill="#00876c" stroke="#00876c" points="1179.76,-590.36 1170.5,-595.5 1180.94,-597.26 1179.76,-590.36"/>
</g>
<!-- 46703 -->
<g id="node22" class="node">
<title>46703</title>
<polygon fill="none" stroke="#00876c" points="873.33,-183.19 873.33,-198.11 779.44,-208.65 646.65,-208.65 552.76,-198.11 552.76,-183.19 646.65,-172.65 779.44,-172.65 873.33,-183.19"/>
<polygon fill="none" stroke="#00876c" points="877.33,-179.62 877.33,-201.68 779.66,-212.65 646.43,-212.65 548.76,-201.68 548.76,-179.62 646.43,-168.65 779.66,-168.65 877.33,-179.62"/>
<text text-anchor="middle" x="713.05" y="-185.6" font-family="Times,serif" font-size="14.00">Open Government Licence 3.0 (UK)</text>
</g>
<!-- 46703&#45;&gt;46702 -->
<g id="edge26" class="edge">
<title>46703&#45;&gt;46702</title>
<path fill="none" stroke="#00876c" stroke-width="2" d="M750.86,-213.03C885.05,-293.27 900.89,-317.46 1036.2,-583.15"/>
<polygon fill="#00876c" stroke="#00876c" stroke-width="2" points="1040.17,-590.94 1031.62,-584.07 1038.56,-588.89 1035.18,-582.26 1035.63,-582.03 1036.08,-581.8 1039.45,-588.43 1039.64,-579.99 1040.17,-590.94"/>
</g>
<!-- 46704 -->
<g id="node23" class="node">
<title>46704</title>
<polygon fill="none" stroke="#00876c" points="1197.42,-993.23 1197.42,-1008.14 1168.76,-1018.68 1128.22,-1018.68 1099.55,-1008.14 1099.55,-993.23 1128.22,-982.68 1168.76,-982.68 1197.42,-993.23"/>
<text text-anchor="middle" x="1148.49" y="-995.63" font-family="Times,serif" font-size="14.00">OGL UK</text>
</g>
<!-- 46704&#45;&gt;46702 -->
<g id="edge27" class="edge">
<title>46704&#45;&gt;46702</title>
<path fill="none" stroke="#00876c" stroke-dasharray="5,2" d="M1150.21,-982.34C1161.18,-864.04 1157.47,-848.84 1067.27,-647.98"/>
<polygon fill="#00876c" stroke="#00876c" points="1063.27,-639.07 1071.47,-646.35 1064.82,-642.52 1067.37,-648.19 1067.37,-648.19 1067.37,-648.19 1064.82,-642.52 1063.26,-650.04 1063.27,-639.07"/>
</g>
</g>
</svg>
