<?xml version="1.0" encoding="UTF-8" standalone="no"?>
<!DOCTYPE svg PUBLIC "-//W3C//DTD SVG 1.1//EN"
 "http://www.w3.org/Graphics/SVG/1.1/DTD/svg11.dtd">
<!-- Generated by graphviz version 10.0.1 (0)
 -->
<!-- Pages: 1 -->
<svg width="2721pt" height="1436pt"
 viewBox="0.00 0.00 2721.00 1436.00" xmlns="http://www.w3.org/2000/svg" xmlns:xlink="http://www.w3.org/1999/xlink">
<g id="graph0" class="graph" transform="scale(1 1) rotate(0) translate(4 1432)">
<polygon fill="white" stroke="none" points="-4,4 -4,-1432 2717,-1432 2717,4 -4,4"/>
<!-- 3345 -->
<g id="node1" class="node">
<title>3345</title>
<ellipse fill="none" stroke="#b8bf62" cx="896.73" cy="-1249.72" rx="157.68" ry="28.99"/>
<text text-anchor="middle" x="896.73" y="-1252.92" font-family="Times,serif" font-size="14.00" fill="gray">SPDXLicense</text>
<text text-anchor="middle" x="896.73" y="-1236.42" font-family="Times,serif" font-size="14.00" fill="gray">3dfed1072d86b4907f22f4c828ba381d</text>
</g>
<!-- 3346 -->
<g id="node2" class="node">
<title>3346</title>
<polygon fill="none" stroke="black" points="1202.62,-964.88 1202.62,-979.79 1154.16,-990.34 1085.63,-990.34 1037.17,-979.79 1037.17,-964.88 1085.63,-954.34 1154.16,-954.34 1202.62,-964.88"/>
<polygon fill="none" stroke="black" points="1206.62,-961.66 1206.62,-983.02 1154.59,-994.34 1085.2,-994.34 1033.17,-983.02 1033.17,-961.66 1085.2,-950.34 1154.59,-950.34 1206.62,-961.66"/>
<polygon fill="none" stroke="black" points="1210.62,-958.44 1210.62,-986.24 1155.02,-998.34 1084.77,-998.34 1029.17,-986.24 1029.17,-958.44 1084.77,-946.34 1155.02,-946.34 1210.62,-958.44"/>
<text text-anchor="middle" x="1119.89" y="-967.29" font-family="Times,serif" font-size="14.00">spdx:OLDAP&#45;1.1</text>
</g>
<!-- 3345&#45;&gt;3346 -->
<g id="edge1" class="edge">
<title>3345&#45;&gt;3346</title>
<path fill="none" stroke="#b8bf62" d="M918.68,-1220.84C960.57,-1165.86 978.73,-1143.52 1091.07,-1007.29"/>
<polygon fill="#b8bf62" stroke="#b8bf62" points="1093.62,-1009.7 1097.28,-999.75 1088.22,-1005.24 1093.62,-1009.7"/>
</g>
<!-- 46489 -->
<g id="node18" class="node">
<title>46489</title>
<polygon fill="none" stroke="#00876c" points="1825.95,-1019.13 1825.95,-1034.04 1719.08,-1044.58 1567.94,-1044.58 1461.07,-1034.04 1461.07,-1019.13 1567.94,-1008.58 1719.08,-1008.58 1825.95,-1019.13"/>
<polygon fill="none" stroke="#00876c" points="1829.95,-1015.5 1829.95,-1037.66 1719.28,-1048.58 1567.74,-1048.58 1457.07,-1037.66 1457.07,-1015.5 1567.74,-1004.58 1719.28,-1004.58 1829.95,-1015.5"/>
<text text-anchor="middle" x="1643.51" y="-1021.53" font-family="Times,serif" font-size="14.00">metaeffekt:OpenLDAP Public License 1.1</text>
</g>
<!-- 3346&#45;&gt;46489 -->
<g id="edge2" class="edge">
<title>3346&#45;&gt;46489</title>
<path fill="none" stroke="#00876c" stroke-width="2" d="M1168.37,-995.89C1361.85,-1089.46 1399.16,-1098.6 1558.93,-1052.19"/>
<polygon fill="#00876c" stroke="#00876c" stroke-width="2" points="1567.29,-1049.74 1558.96,-1056.87 1564.97,-1050.94 1557.84,-1053.03 1557.7,-1052.55 1557.56,-1052.07 1564.69,-1049.98 1556.43,-1048.23 1567.29,-1049.74"/>
</g>
<!-- 3347 -->
<g id="node3" class="node">
<title>3347</title>
<polygon fill="none" stroke="black" points="863.64,-810.84 863.64,-825.75 827.83,-836.3 777.2,-836.3 741.4,-825.75 741.4,-810.84 777.2,-800.3 827.83,-800.3 863.64,-810.84"/>
<polygon fill="none" stroke="black" points="867.64,-807.85 867.64,-828.74 828.41,-840.3 776.62,-840.3 737.4,-828.74 737.4,-807.85 776.62,-796.3 828.41,-796.3 867.64,-807.85"/>
<text text-anchor="middle" x="802.52" y="-813.25" font-family="Times,serif" font-size="14.00">OLDAP&#45;1.1</text>
</g>
<!-- 3347&#45;&gt;3346 -->
<g id="edge3" class="edge">
<title>3347&#45;&gt;3346</title>
<path fill="none" stroke="black" stroke-width="2" d="M822.38,-840.57C885.51,-910.74 906.87,-924.88 1030.59,-952.93"/>
<polygon fill="black" stroke="black" stroke-width="2" points="1038.9,-954.8 1028.15,-956.99 1036.29,-954.72 1029.03,-953.09 1029.14,-952.6 1029.25,-952.12 1036.5,-953.75 1030.13,-948.21 1038.9,-954.8"/>
</g>
<!-- 9164 -->
<g id="node6" class="node">
<title>9164</title>
<polygon fill="none" stroke="#00876c" points="623.67,-779.74 623.67,-794.65 565.48,-805.19 483.18,-805.19 424.98,-794.65 424.98,-779.74 483.18,-769.19 565.48,-769.19 623.67,-779.74"/>
<polygon fill="none" stroke="#00876c" points="627.67,-776.4 627.67,-797.99 565.84,-809.19 482.82,-809.19 420.98,-797.99 420.98,-776.4 482.82,-765.19 565.84,-765.19 627.67,-776.4"/>
<text text-anchor="middle" x="524.33" y="-782.14" font-family="Times,serif" font-size="14.00">BlueOak:OLDAP&#45;1.1</text>
</g>
<!-- 3347&#45;&gt;9164 -->
<g id="edge4" class="edge">
<title>3347&#45;&gt;9164</title>
<path fill="none" stroke="#00876c" stroke-width="2" d="M737.23,-815.43C669.63,-812.35 634.52,-810.2 606.28,-806.1"/>
<polygon fill="#00876c" stroke="#00876c" stroke-width="2" points="597.74,-804.74 608.32,-801.87 600.35,-804.65 607.69,-805.82 607.61,-806.31 607.54,-806.8 600.19,-805.63 606.91,-810.75 597.74,-804.74"/>
</g>
<!-- 27020 -->
<g id="node12" class="node">
<title>27020</title>
<polygon fill="none" stroke="#e18745" points="655,-960.51 655,-975.42 594.85,-985.97 509.8,-985.97 449.66,-975.42 449.66,-960.51 509.8,-949.97 594.85,-949.97 655,-960.51"/>
<polygon fill="none" stroke="#e18745" points="659,-957.15 659,-978.78 595.2,-989.97 509.45,-989.97 445.66,-978.78 445.66,-957.15 509.45,-945.97 595.2,-945.97 659,-957.15"/>
<text text-anchor="middle" x="552.33" y="-962.92" font-family="Times,serif" font-size="14.00">fossology:OLDAP&#45;1.1</text>
</g>
<!-- 3347&#45;&gt;27020 -->
<g id="edge5" class="edge">
<title>3347&#45;&gt;27020</title>
<path fill="none" stroke="#e18745" stroke-width="2" d="M764.55,-837.07C650.94,-893.34 624.05,-907.79 586.48,-938.67"/>
<polygon fill="#e18745" stroke="#e18745" stroke-width="2" points="580.14,-943.96 584.93,-934.1 581.79,-941.94 587.5,-937.17 587.82,-937.55 588.14,-937.94 582.43,-942.71 590.7,-941.01 580.14,-943.96"/>
</g>
<!-- 37326 -->
<g id="node16" class="node">
<title>37326</title>
<polygon fill="none" stroke="#379469" points="699.21,-620.67 699.21,-635.58 650.43,-646.13 581.43,-646.13 532.65,-635.58 532.65,-620.67 581.43,-610.13 650.43,-610.13 699.21,-620.67"/>
<polygon fill="none" stroke="#379469" points="703.21,-617.44 703.21,-638.81 650.85,-650.13 581.01,-650.13 528.65,-638.81 528.65,-617.44 581.01,-606.13 650.85,-606.13 703.21,-617.44"/>
<text text-anchor="middle" x="615.93" y="-623.08" font-family="Times,serif" font-size="14.00">cavil:OLDAP&#45;1.1</text>
</g>
<!-- 3347&#45;&gt;37326 -->
<g id="edge6" class="edge">
<title>3347&#45;&gt;37326</title>
<path fill="none" stroke="#379469" stroke-width="2" d="M770.76,-797.82C671.77,-733.78 655.81,-719.73 629.8,-660.79"/>
<polygon fill="#379469" stroke="#379469" stroke-width="2" points="626.31,-652.75 634.42,-660.14 627.79,-654.9 630.75,-661.73 630.29,-661.92 629.83,-662.12 626.87,-655.3 626.16,-663.71 626.31,-652.75"/>
</g>
<!-- 51043 -->
<g id="node27" class="node">
<title>51043</title>
<polygon fill="none" stroke="#dac767" points="919.48,-459.98 919.48,-474.89 813.26,-485.43 663.03,-485.43 556.81,-474.89 556.81,-459.98 663.03,-449.43 813.26,-449.43 919.48,-459.98"/>
<polygon fill="none" stroke="#dac767" points="923.48,-456.35 923.48,-478.51 813.45,-489.43 662.84,-489.43 552.81,-478.51 552.81,-456.35 662.84,-445.43 813.45,-445.43 923.48,-456.35"/>
<text text-anchor="middle" x="738.15" y="-462.38" font-family="Times,serif" font-size="14.00">fosslight:Open LDAP Public License v1.1</text>
</g>
<!-- 3347&#45;&gt;51043 -->
<g id="edge7" class="edge">
<title>3347&#45;&gt;51043</title>
<path fill="none" stroke="#dac767" stroke-width="2" d="M790.08,-796.06C706.26,-645.95 701.4,-629.1 730.54,-500.49"/>
<polygon fill="#dac767" stroke="#dac767" stroke-width="2" points="732.44,-492.16 734.6,-502.91 732.36,-494.77 730.7,-502.02 730.22,-501.91 729.73,-501.8 731.38,-494.55 725.83,-500.91 732.44,-492.16"/>
</g>
<!-- 3348 -->
<g id="node4" class="node">
<title>3348</title>
<polygon fill="none" stroke="black" points="954.38,-876.02 954.38,-890.93 869.9,-901.48 750.42,-901.48 665.94,-890.93 665.94,-876.02 750.42,-865.48 869.9,-865.48 954.38,-876.02"/>
<polygon fill="none" stroke="black" points="958.38,-872.49 958.38,-894.46 870.14,-905.48 750.17,-905.48 661.94,-894.46 661.94,-872.49 750.17,-861.48 870.14,-861.48 958.38,-872.49"/>
<text text-anchor="middle" x="810.16" y="-878.43" font-family="Times,serif" font-size="14.00">Open LDAP Public License v1.1</text>
</g>
<!-- 3348&#45;&gt;3346 -->
<g id="edge8" class="edge">
<title>3348&#45;&gt;3346</title>
<path fill="none" stroke="black" stroke-width="2" d="M839.77,-905.96C895.41,-947.32 920.38,-957.23 1017.88,-965.29"/>
<polygon fill="black" stroke="black" stroke-width="2" points="1026.41,-965.98 1016.08,-969.66 1023.81,-966.27 1016.4,-965.68 1016.44,-965.18 1016.48,-964.68 1023.89,-965.27 1016.8,-960.69 1026.41,-965.98"/>
</g>
<!-- 3348&#45;&gt;9164 -->
<g id="edge9" class="edge">
<title>3348&#45;&gt;9164</title>
<path fill="none" stroke="#00876c" stroke-width="2" d="M715.01,-865.46C631.54,-848.97 603.95,-839.8 566.04,-815.67"/>
<polygon fill="#00876c" stroke="#00876c" stroke-width="2" points="558.73,-810.9 569.57,-812.6 561.15,-811.89 567.38,-815.95 567.11,-816.37 566.83,-816.79 560.61,-812.72 564.65,-820.14 558.73,-810.9"/>
</g>
<!-- 3348&#45;&gt;27020 -->
<g id="edge10" class="edge">
<title>3348&#45;&gt;27020</title>
<path fill="none" stroke="#e18745" stroke-width="2" d="M743.54,-905.04C679.34,-925.83 647.9,-936.05 621.3,-944.85"/>
<polygon fill="#e18745" stroke="#e18745" stroke-width="2" points="613.21,-947.53 621.28,-940.11 615.48,-946.25 622.54,-943.91 622.7,-944.38 622.86,-944.86 615.8,-947.2 624.12,-948.65 613.21,-947.53"/>
</g>
<!-- 3348&#45;&gt;51043 -->
<g id="edge11" class="edge">
<title>3348&#45;&gt;51043</title>
<path fill="none" stroke="#dac767" stroke-width="2" d="M797.59,-861.14C696.33,-680.96 691.82,-664.04 730.36,-500.21"/>
<polygon fill="#dac767" stroke="#dac767" stroke-width="2" points="732.28,-492.1 734.36,-502.86 732.18,-494.71 730.47,-501.94 729.98,-501.83 729.5,-501.71 731.2,-494.48 725.6,-500.79 732.28,-492.1"/>
</g>
<!-- 9163 -->
<g id="node5" class="node">
<title>9163</title>
<ellipse fill="none" stroke="#00876c" cx="156.88" cy="-739.06" rx="156.62" ry="28.99"/>
<text text-anchor="middle" x="156.88" y="-742.26" font-family="Times,serif" font-size="14.00" fill="gray">BlueOakCouncil</text>
<text text-anchor="middle" x="156.88" y="-725.76" font-family="Times,serif" font-size="14.00" fill="gray">dba52aff593ee859147478fb7dcb2b60</text>
</g>
<!-- 9163&#45;&gt;9164 -->
<g id="edge12" class="edge">
<title>9163&#45;&gt;9164</title>
<path fill="none" stroke="#00876c" d="M257.12,-761.67C291.7,-767.46 332.6,-771.59 409.42,-777.95"/>
<polygon fill="#00876c" stroke="#00876c" points="408.74,-781.41 419,-778.74 409.32,-774.43 408.74,-781.41"/>
</g>
<!-- 21359 -->
<g id="node7" class="node">
<title>21359</title>
<ellipse fill="none" stroke="#dac767" cx="1647.22" cy="-913.04" rx="155.03" ry="28.99"/>
<text text-anchor="middle" x="1647.22" y="-916.24" font-family="Times,serif" font-size="14.00" fill="gray">ScancodeData</text>
<text text-anchor="middle" x="1647.22" y="-899.74" font-family="Times,serif" font-size="14.00" fill="gray">00e26c9487ffb1010befe18932f7c5b1</text>
</g>
<!-- 21360 -->
<g id="node8" class="node">
<title>21360</title>
<polygon fill="none" stroke="black" points="1798.57,-966.08 1798.57,-980.99 1737.78,-991.54 1651.8,-991.54 1591.01,-980.99 1591.01,-966.08 1651.8,-955.54 1737.78,-955.54 1798.57,-966.08"/>
<polygon fill="none" stroke="black" points="1802.57,-962.71 1802.57,-984.36 1738.12,-995.54 1651.46,-995.54 1587.01,-984.36 1587.01,-962.71 1651.46,-951.54 1738.12,-951.54 1802.57,-962.71"/>
<text text-anchor="middle" x="1694.79" y="-968.49" font-family="Times,serif" font-size="14.00">scancode:openldap&#45;1.1</text>
</g>
<!-- 21359&#45;&gt;21360 -->
<g id="edge13" class="edge">
<title>21359&#45;&gt;21360</title>
<path fill="none" stroke="#dac767" d="M1673.26,-941.65C1673.46,-941.88 1673.66,-942.11 1673.86,-942.33"/>
<polygon fill="#dac767" stroke="#dac767" points="1671.08,-944.47 1680.16,-949.94 1676.48,-940.01 1671.08,-944.47"/>
</g>
<!-- 21360&#45;&gt;46489 -->
<g id="edge14" class="edge">
<title>21360&#45;&gt;46489</title>
<path fill="none" stroke="#00876c" stroke-dasharray="5,2" d="M1685.19,-995.88C1685.14,-995.98 1685.09,-996.08 1685.04,-996.18"/>
<polygon fill="#00876c" stroke="#00876c" points="1680.82,-1003.11 1682.18,-992.23 1682.79,-999.88 1686.02,-994.57 1686.02,-994.57 1686.02,-994.57 1682.79,-999.88 1689.87,-996.91 1680.82,-1003.11"/>
</g>
<!-- 21361 -->
<g id="node9" class="node">
<title>21361</title>
<polygon fill="none" stroke="black" points="1764.25,-693.1 1764.25,-708.01 1726.49,-718.55 1673.11,-718.55 1635.35,-708.01 1635.35,-693.1 1673.11,-682.55 1726.49,-682.55 1764.25,-693.1"/>
<polygon fill="none" stroke="black" points="1768.25,-690.06 1768.25,-711.05 1727.04,-722.55 1672.56,-722.55 1631.35,-711.05 1631.35,-690.06 1672.56,-678.55 1727.04,-678.55 1768.25,-690.06"/>
<text text-anchor="middle" x="1699.8" y="-695.5" font-family="Times,serif" font-size="14.00">openldap&#45;1.1</text>
</g>
<!-- 21361&#45;&gt;21360 -->
<g id="edge15" class="edge">
<title>21361&#45;&gt;21360</title>
<path fill="none" stroke="black" stroke-width="2" d="M1706.86,-723.01C1744.07,-841.72 1745.97,-858.92 1709.5,-941.06"/>
<polygon fill="black" stroke="black" stroke-width="2" points="1705.98,-948.9 1705.96,-937.94 1706.57,-946.36 1709.61,-939.57 1710.07,-939.78 1710.53,-939.98 1707.49,-946.77 1714.18,-941.62 1705.98,-948.9"/>
</g>
<!-- 21362 -->
<g id="node10" class="node">
<title>21362</title>
<polygon fill="none" stroke="black" points="2134.68,-818.83 2134.68,-833.74 2054.74,-844.28 1941.69,-844.28 1861.75,-833.74 1861.75,-818.83 1941.69,-808.28 2054.74,-808.28 2134.68,-818.83"/>
<polygon fill="none" stroke="black" points="2138.68,-815.32 2138.68,-837.25 2055,-848.28 1941.43,-848.28 1857.75,-837.25 1857.75,-815.32 1941.43,-804.28 2055,-804.28 2138.68,-815.32"/>
<text text-anchor="middle" x="1998.22" y="-821.23" font-family="Times,serif" font-size="14.00">OpenLDAP Public License 1.1</text>
</g>
<!-- 21362&#45;&gt;21360 -->
<g id="edge16" class="edge">
<title>21362&#45;&gt;21360</title>
<path fill="none" stroke="#dac767" stroke-width="2" d="M1978.02,-848.4C1919.72,-911.6 1898.8,-924.69 1779.05,-953.77"/>
<polygon fill="#dac767" stroke="#dac767" stroke-width="2" points="1770.69,-955.78 1779.36,-949.06 1773.07,-954.69 1780.3,-952.95 1780.41,-953.44 1780.53,-953.92 1773.3,-955.67 1781.47,-957.81 1770.69,-955.78"/>
</g>
<!-- 21362&#45;&gt;46489 -->
<g id="edge17" class="edge">
<title>21362&#45;&gt;46489</title>
<path fill="none" stroke="#00876c" stroke-width="2" d="M1981.05,-848.51C1907.16,-943.7 1886.04,-960.66 1736.19,-1001.86"/>
<polygon fill="#00876c" stroke="#00876c" stroke-width="2" points="1728,-1004.1 1736.46,-997.12 1730.34,-1002.94 1737.52,-1000.98 1737.65,-1001.46 1737.78,-1001.94 1730.61,-1003.9 1738.83,-1005.8 1728,-1004.1"/>
</g>
<!-- 27019 -->
<g id="node11" class="node">
<title>27019</title>
<ellipse fill="none" stroke="#e18745" cx="221.46" cy="-1144.47" rx="158.75" ry="28.99"/>
<text text-anchor="middle" x="221.46" y="-1147.67" font-family="Times,serif" font-size="14.00" fill="gray">Fossology</text>
<text text-anchor="middle" x="221.46" y="-1131.17" font-family="Times,serif" font-size="14.00" fill="gray">cd93a7a6779c9de346047c4bf7569a62</text>
</g>
<!-- 27019&#45;&gt;27020 -->
<g id="edge18" class="edge">
<title>27019&#45;&gt;27020</title>
<path fill="none" stroke="#e18745" d="M264.01,-1116.28C317.16,-1081.75 349.92,-1065.11 496.67,-994.66"/>
<polygon fill="#e18745" stroke="#e18745" points="498.1,-997.86 505.6,-990.38 495.07,-991.55 498.1,-997.86"/>
</g>
<!-- 27265 -->
<g id="node13" class="node">
<title>27265</title>
<polygon fill="none" stroke="black" points="2018.38,-1002.1 2018.38,-1017.01 1991.99,-1027.55 1954.66,-1027.55 1928.27,-1017.01 1928.27,-1002.1 1954.66,-991.55 1991.99,-991.55 2018.38,-1002.1"/>
<text text-anchor="middle" x="1973.33" y="-1004.5" font-family="Times,serif" font-size="14.00">OLDAP</text>
</g>
<!-- 27265&#45;&gt;46489 -->
<g id="edge19" class="edge">
<title>27265&#45;&gt;46489</title>
<path fill="none" stroke="#00876c" stroke-dasharray="5,2" d="M1941.25,-1022.63C1887.89,-1043.81 1860.63,-1049.77 1791.34,-1044.03"/>
<polygon fill="#00876c" stroke="#00876c" points="1781.54,-1043.16 1791.9,-1039.56 1785.3,-1043.5 1791.5,-1044.05 1791.5,-1044.05 1791.5,-1044.05 1785.3,-1043.5 1791.1,-1048.53 1781.54,-1043.16"/>
</g>
<!-- 35132 -->
<g id="node14" class="node">
<title>35132</title>
<ellipse fill="none" stroke="#e06f45" cx="1084.94" cy="-1044" rx="158.22" ry="28.99"/>
<text text-anchor="middle" x="1084.94" y="-1047.2" font-family="Times,serif" font-size="14.00" fill="gray">OrtLicenseCategorization</text>
<text text-anchor="middle" x="1084.94" y="-1030.7" font-family="Times,serif" font-size="14.00" fill="gray">1867bcaa886fc7331a67a3eb9bc37b51</text>
</g>
<!-- 35132&#45;&gt;3346 -->
<g id="edge20" class="edge">
<title>35132&#45;&gt;3346</title>
<path fill="none" stroke="#e06f45" d="M1095.9,-1014.61C1096.86,-1012.74 1097.93,-1010.72 1099.14,-1008.48"/>
<polygon fill="#e06f45" stroke="#e06f45" points="1102.07,-1010.42 1103.9,-999.99 1095.96,-1007 1102.07,-1010.42"/>
</g>
<!-- 37325 -->
<g id="node15" class="node">
<title>37325</title>
<ellipse fill="none" stroke="#379469" cx="352.78" cy="-392.38" rx="157.68" ry="28.99"/>
<text text-anchor="middle" x="352.78" y="-395.58" font-family="Times,serif" font-size="14.00" fill="gray">CavilLicenseChange</text>
<text text-anchor="middle" x="352.78" y="-379.08" font-family="Times,serif" font-size="14.00" fill="gray">cc5b71ecfcd5679b03a980a6ad36163a</text>
</g>
<!-- 37325&#45;&gt;37326 -->
<g id="edge21" class="edge">
<title>37325&#45;&gt;37326</title>
<path fill="none" stroke="#379469" d="M370.86,-421.47C413.77,-489.32 433.25,-505.7 573.35,-599.63"/>
<polygon fill="#379469" stroke="#379469" points="571.24,-602.43 581.5,-605.09 575.14,-596.62 571.24,-602.43"/>
</g>
<!-- 46488 -->
<g id="node17" class="node">
<title>46488</title>
<ellipse fill="none" stroke="#00876c" cx="1937.18" cy="-660.68" rx="158.22" ry="28.99"/>
<text text-anchor="middle" x="1937.18" y="-663.88" font-family="Times,serif" font-size="14.00" fill="gray">MetaeffektLicense</text>
<text text-anchor="middle" x="1937.18" y="-647.38" font-family="Times,serif" font-size="14.00" fill="gray">db9e6156e3385f8ecd588ac7218edded</text>
</g>
<!-- 46488&#45;&gt;46489 -->
<g id="edge22" class="edge">
<title>46488&#45;&gt;46489</title>
<path fill="none" stroke="#00876c" d="M1929.22,-689.96C1883.08,-858.48 1870.38,-876.31 1686.83,-997.98"/>
<polygon fill="#00876c" stroke="#00876c" points="1685.05,-994.95 1678.65,-1003.39 1688.92,-1000.79 1685.05,-994.95"/>
</g>
<!-- 46490 -->
<g id="node19" class="node">
<title>46490</title>
<polygon fill="none" stroke="#00876c" points="1668.48,-1402.63 1668.48,-1417.54 1612.88,-1428.08 1534.25,-1428.08 1478.65,-1417.54 1478.65,-1402.63 1534.25,-1392.08 1612.88,-1392.08 1668.48,-1402.63"/>
<text text-anchor="middle" x="1573.56" y="-1405.03" font-family="Times,serif" font-size="14.00">OLDAP, Version 1.1</text>
</g>
<!-- 46490&#45;&gt;46489 -->
<g id="edge23" class="edge">
<title>46490&#45;&gt;46489</title>
<path fill="none" stroke="#00876c" stroke-dasharray="5,2" d="M1584.04,-1391.74C1640.61,-1292.24 1643.26,-1275.71 1643.49,-1059.89"/>
<polygon fill="#00876c" stroke="#00876c" points="1643.5,-1050 1647.99,-1060.01 1643.49,-1053.79 1643.49,-1060 1643.49,-1060 1643.49,-1060 1643.49,-1053.79 1638.99,-1060 1643.5,-1050"/>
</g>
<!-- 46491 -->
<g id="node20" class="node">
<title>46491</title>
<polygon fill="none" stroke="#00876c" points="2022.07,-1170.98 2022.07,-1185.9 1985.61,-1196.44 1934.06,-1196.44 1897.61,-1185.9 1897.61,-1170.98 1934.06,-1160.44 1985.61,-1160.44 2022.07,-1170.98"/>
<text text-anchor="middle" x="1959.84" y="-1173.39" font-family="Times,serif" font-size="14.00">OLDAP, 1.1</text>
</g>
<!-- 46491&#45;&gt;46489 -->
<g id="edge24" class="edge">
<title>46491&#45;&gt;46489</title>
<path fill="none" stroke="#00876c" stroke-dasharray="5,2" d="M1915.12,-1165.52C1855.41,-1147.36 1826.01,-1131.97 1691.67,-1054.43"/>
<polygon fill="#00876c" stroke="#00876c" points="1683.3,-1049.59 1694.21,-1050.69 1686.57,-1051.48 1691.96,-1054.59 1691.96,-1054.59 1691.96,-1054.59 1686.57,-1051.48 1689.71,-1058.49 1683.3,-1049.59"/>
</g>
<!-- 46492 -->
<g id="node21" class="node">
<title>46492</title>
<polygon fill="none" stroke="#00876c" points="2074.1,-1337.28 2074.1,-1352.19 1998.38,-1362.74 1891.3,-1362.74 1815.58,-1352.19 1815.58,-1337.28 1891.3,-1326.74 1998.38,-1326.74 2074.1,-1337.28"/>
<text text-anchor="middle" x="1944.84" y="-1339.69" font-family="Times,serif" font-size="14.00">OLDAP License, Version 1.1</text>
</g>
<!-- 46492&#45;&gt;46489 -->
<g id="edge25" class="edge">
<title>46492&#45;&gt;46489</title>
<path fill="none" stroke="#00876c" stroke-dasharray="5,2" d="M1927.35,-1326.52C1856.62,-1252.84 1840.95,-1236.26 1672.21,-1057.06"/>
<polygon fill="#00876c" stroke="#00876c" points="1665.41,-1049.85 1675.55,-1054.04 1668.01,-1052.6 1672.27,-1057.13 1672.27,-1057.13 1672.27,-1057.13 1668.01,-1052.6 1668.99,-1060.21 1665.41,-1049.85"/>
</g>
<!-- 46493 -->
<g id="node22" class="node">
<title>46493</title>
<polygon fill="none" stroke="#00876c" points="1879.15,-1388.48 1879.15,-1403.39 1822.58,-1413.93 1742.57,-1413.93 1686,-1403.39 1686,-1388.48 1742.57,-1377.93 1822.58,-1377.93 1879.15,-1388.48"/>
<text text-anchor="middle" x="1782.58" y="-1390.88" font-family="Times,serif" font-size="14.00">OLDAP License, 1.1</text>
</g>
<!-- 46493&#45;&gt;46489 -->
<g id="edge26" class="edge">
<title>46493&#45;&gt;46489</title>
<path fill="none" stroke="#00876c" stroke-dasharray="5,2" d="M1778.97,-1377.5C1759.67,-1279.6 1753.43,-1263.46 1658.5,-1058.87"/>
<polygon fill="#00876c" stroke="#00876c" points="1654.42,-1050.09 1662.72,-1057.27 1656.02,-1053.52 1658.63,-1059.16 1658.63,-1059.16 1658.63,-1059.16 1656.02,-1053.52 1654.55,-1061.06 1654.42,-1050.09"/>
</g>
<!-- 46494 -->
<g id="node23" class="node">
<title>46494</title>
<polygon fill="none" stroke="#00876c" points="1861.51,-1074.61 1861.51,-1089.52 1711.16,-1100.06 1498.52,-1100.06 1348.16,-1089.52 1348.16,-1074.61 1498.52,-1064.06 1711.16,-1064.06 1861.51,-1074.61"/>
<text text-anchor="middle" x="1604.84" y="-1077.01" font-family="Times,serif" font-size="14.00">The OpenLDAP Public License Version 1.1, 25 August 1998</text>
</g>
<!-- 46494&#45;&gt;46489 -->
<g id="edge27" class="edge">
<title>46494&#45;&gt;46489</title>
<path fill="none" stroke="#00876c" stroke-dasharray="5,2" d="M1629.51,-1063.57C1630.6,-1062.16 1631.57,-1060.66 1632.49,-1058.99"/>
<polygon fill="#00876c" stroke="#00876c" points="1636.28,-1050.09 1636.5,-1061.05 1634.8,-1053.57 1632.36,-1059.29 1632.36,-1059.29 1632.36,-1059.29 1634.8,-1053.57 1628.22,-1057.52 1636.28,-1050.09"/>
</g>
<!-- 46495 -->
<g id="node24" class="node">
<title>46495</title>
<polygon fill="none" stroke="#00876c" points="2713.25,-1064.38 2713.25,-1079.29 2494.75,-1089.84 2185.73,-1089.84 1967.23,-1079.29 1967.23,-1064.38 2185.73,-1053.84 2494.75,-1053.84 2713.25,-1064.38"/>
<text text-anchor="middle" x="2340.24" y="-1066.79" font-family="Times,serif" font-size="14.00">THIS WORK IS SUBJECT TO VERSION 1.1 OF THE OPENLDAP PUBLIC LICENSE</text>
</g>
<!-- 46495&#45;&gt;46489 -->
<g id="edge28" class="edge">
<title>46495&#45;&gt;46489</title>
<path fill="none" stroke="#00876c" stroke-dasharray="5,2" d="M2237.25,-1090.31C2115.26,-1109.25 2046.98,-1101.09 1759.54,-1048.11"/>
<polygon fill="#00876c" stroke="#00876c" points="1749.98,-1046.35 1760.63,-1043.73 1753.7,-1047.03 1759.82,-1048.16 1759.82,-1048.16 1759.82,-1048.16 1753.7,-1047.03 1759,-1052.59 1749.98,-1046.35"/>
</g>
<!-- 50034 -->
<g id="node25" class="node">
<title>50034</title>
<ellipse fill="none" stroke="#dc574a" cx="1071.48" cy="-1324.21" rx="157.68" ry="28.99"/>
<text text-anchor="middle" x="1071.48" y="-1327.41" font-family="Times,serif" font-size="14.00" fill="gray">HermineLicense</text>
<text text-anchor="middle" x="1071.48" y="-1310.91" font-family="Times,serif" font-size="14.00" fill="gray">bce2a8deab38903db2b4a203f166aa6a</text>
</g>
<!-- 50034&#45;&gt;3346 -->
<g id="edge29" class="edge">
<title>50034&#45;&gt;3346</title>
<path fill="none" stroke="#dc574a" d="M1068.4,-1294.89C1060.17,-1212.51 1064.18,-1189.9 1110.33,-1009.65"/>
<polygon fill="#dc574a" stroke="#dc574a" points="1113.67,-1010.71 1112.76,-1000.15 1106.89,-1008.97 1113.67,-1010.71"/>
</g>
<!-- 51042 -->
<g id="node26" class="node">
<title>51042</title>
<ellipse fill="none" stroke="#dac767" cx="614.62" cy="-29.11" rx="158.75" ry="28.99"/>
<text text-anchor="middle" x="614.62" y="-32.31" font-family="Times,serif" font-size="14.00" fill="gray">FOSSLight</text>
<text text-anchor="middle" x="614.62" y="-15.81" font-family="Times,serif" font-size="14.00" fill="gray">da2b1d2d6a38769e00eefc26a9463044</text>
</g>
<!-- 51042&#45;&gt;51043 -->
<g id="edge30" class="edge">
<title>51042&#45;&gt;51043</title>
<path fill="none" stroke="#dac767" d="M612.33,-58.26C602.22,-191.63 608.99,-211.83 721.71,-434.93"/>
<polygon fill="#dac767" stroke="#dac767" points="718.49,-436.32 726.12,-443.66 724.73,-433.16 718.49,-436.32"/>
</g>
</g>
</svg>
