<?xml version="1.0" encoding="UTF-8" standalone="no"?>
<!DOCTYPE svg PUBLIC "-//W3C//DTD SVG 1.1//EN"
 "http://www.w3.org/Graphics/SVG/1.1/DTD/svg11.dtd">
<!-- Generated by graphviz version 10.0.1 (0)
 -->
<!-- Pages: 1 -->
<svg width="3757pt" height="2568pt"
 viewBox="0.00 0.00 3757.00 2568.00" xmlns="http://www.w3.org/2000/svg" xmlns:xlink="http://www.w3.org/1999/xlink">
<g id="graph0" class="graph" transform="scale(1 1) rotate(0) translate(4 2564)">
<polygon fill="white" stroke="none" points="-4,4 -4,-2564 3753,-2564 3753,4 -4,4"/>
<!-- 5 -->
<g id="node1" class="node">
<title>5</title>
<text text-anchor="start" x="1325.83" y="-1561.71" font-family="Times,serif" font-size="14.00">OSI: </text>
<text text-anchor="start" x="1355.08" y="-1561.71" font-family="Times,serif" font-weight="bold" font-size="14.00" fill="#8b0000">Rejected</text>
</g>
<!-- 3802 -->
<g id="node4" class="node">
<title>3802</title>
<ellipse fill="none" stroke="#dac767" cx="1266.46" cy="-1269.19" rx="158.22" ry="28.99"/>
<text text-anchor="middle" x="1266.46" y="-1272.39" font-family="Times,serif" font-size="14.00" fill="gray">SPDXLicense</text>
<text text-anchor="middle" x="1266.46" y="-1255.89" font-family="Times,serif" font-size="14.00" fill="gray">eb3eb9a3f67eb85b55230606f989da84</text>
</g>
<!-- 5&#45;&gt;3802 -->
<g id="edge1" class="edge">
<title>5&#45;&gt;3802</title>
<path fill="none" stroke="#dac767" d="M1350.79,-1547.86C1264.36,-1443.02 1256.59,-1427.12 1263.79,-1309.61"/>
<polygon fill="#dac767" stroke="#dac767" points="1267.27,-1310.01 1264.41,-1299.81 1260.28,-1309.57 1267.27,-1310.01"/>
</g>
<!-- 59440 -->
<g id="node43" class="node">
<title>59440</title>
<ellipse fill="none" stroke="#dc574a" cx="1587.88" cy="-1314.66" rx="155.03" ry="28.99"/>
<text text-anchor="middle" x="1587.88" y="-1317.86" font-family="Times,serif" font-size="14.00" fill="gray">HermineLicense</text>
<text text-anchor="middle" x="1587.88" y="-1301.36" font-family="Times,serif" font-size="14.00" fill="gray">abf82b991a86cf1961ccc3c957f5c851</text>
</g>
<!-- 5&#45;&gt;59440 -->
<g id="edge2" class="edge">
<title>5&#45;&gt;59440</title>
<path fill="none" stroke="#dc574a" d="M1374.36,-1547.77C1411.41,-1472.4 1423.34,-1458.02 1546.34,-1350.79"/>
<polygon fill="#dc574a" stroke="#dc574a" points="1548.61,-1353.45 1553.85,-1344.24 1544.01,-1348.17 1548.61,-1353.45"/>
</g>
<!-- 57 -->
<g id="node2" class="node">
<title>57</title>
<text text-anchor="start" x="963.27" y="-1529.45" font-family="Times,serif" font-size="14.00">FSF: </text>
<text text-anchor="start" x="993.27" y="-1529.45" font-family="Times,serif" font-weight="bold" font-size="14.00" fill="#228b22">Libre</text>
</g>
<!-- 57&#45;&gt;3802 -->
<g id="edge3" class="edge">
<title>57&#45;&gt;3802</title>
<path fill="none" stroke="#dac767" d="M1003.44,-1515.8C1051.26,-1422.64 1064.2,-1408.2 1215.75,-1303.95"/>
<polygon fill="#dac767" stroke="#dac767" points="1217.47,-1307.02 1223.73,-1298.47 1213.5,-1301.25 1217.47,-1307.02"/>
</g>
<!-- 3791 -->
<g id="node3" class="node">
<title>3791</title>
<text text-anchor="middle" x="861.61" y="-1024.37" font-family="Times,serif" font-size="14.00">SPDXLicense:</text>
<text text-anchor="middle" x="861.61" y="-1007.87" font-family="Times,serif" font-size="14.00">This license was released 28 July 2000.</text>
</g>
<!-- 3791&#45;&gt;3802 -->
<g id="edge4" class="edge">
<title>3791&#45;&gt;3802</title>
<path fill="none" stroke="#dac767" d="M881.95,-1041.41C963.63,-1122.25 986.16,-1136.67 1198.1,-1236.93"/>
<polygon fill="#dac767" stroke="#dac767" points="1196.44,-1240.01 1206.97,-1241.12 1199.43,-1233.68 1196.44,-1240.01"/>
</g>
<!-- 3803 -->
<g id="node5" class="node">
<title>3803</title>
<polygon fill="none" stroke="black" points="2012.8,-1207.68 2012.8,-1222.6 1964.34,-1233.14 1895.81,-1233.14 1847.34,-1222.6 1847.34,-1207.68 1895.81,-1197.14 1964.34,-1197.14 2012.8,-1207.68"/>
<polygon fill="none" stroke="black" points="2016.8,-1204.46 2016.8,-1225.82 1964.77,-1237.14 1895.38,-1237.14 1843.34,-1225.82 1843.34,-1204.46 1895.38,-1193.14 1964.77,-1193.14 2016.8,-1204.46"/>
<polygon fill="none" stroke="black" points="2020.8,-1201.24 2020.8,-1229.04 1965.2,-1241.14 1894.94,-1241.14 1839.34,-1229.04 1839.34,-1201.24 1894.94,-1189.14 1965.2,-1189.14 2020.8,-1201.24"/>
<text text-anchor="middle" x="1930.07" y="-1210.09" font-family="Times,serif" font-size="14.00">spdx:OLDAP&#45;2.3</text>
</g>
<!-- 3802&#45;&gt;3803 -->
<g id="edge5" class="edge">
<title>3802&#45;&gt;3803</title>
<path fill="none" stroke="#dac767" d="M1369.08,-1246.84C1473.84,-1226.03 1545.12,-1222.78 1827.79,-1217.14"/>
<polygon fill="#dac767" stroke="#dac767" points="1827.79,-1220.64 1837.72,-1216.94 1827.65,-1213.64 1827.79,-1220.64"/>
</g>
<!-- 12212 -->
<g id="node16" class="node">
<title>12212</title>
<polygon fill="none" stroke="#deb256" points="2299.43,-1068.83 2299.43,-1083.74 2249.34,-1094.29 2178.52,-1094.29 2128.43,-1083.74 2128.43,-1068.83 2178.52,-1058.29 2249.34,-1058.29 2299.43,-1068.83"/>
<text text-anchor="middle" x="2213.93" y="-1071.24" font-family="Times,serif" font-size="14.00">fsf:oldOpenLDAP</text>
</g>
<!-- 3803&#45;&gt;12212 -->
<g id="edge6" class="edge">
<title>3803&#45;&gt;12212</title>
<path fill="none" stroke="#deb256" stroke-dasharray="5,2" d="M1975.06,-1190.83C2084.79,-1131.59 2117.86,-1114.34 2159.96,-1097.15"/>
<polygon fill="#deb256" stroke="#deb256" points="2169.17,-1093.45 2161.57,-1101.35 2165.66,-1094.86 2159.89,-1097.18 2159.89,-1097.18 2159.89,-1097.18 2165.66,-1094.86 2158.21,-1093 2169.17,-1093.45"/>
</g>
<!-- 23469 -->
<g id="node19" class="node">
<title>23469</title>
<polygon fill="none" stroke="black" points="2051.41,-1668.64 2051.41,-1683.55 1990.62,-1694.09 1904.64,-1694.09 1843.85,-1683.55 1843.85,-1668.64 1904.64,-1658.09 1990.62,-1658.09 2051.41,-1668.64"/>
<polygon fill="none" stroke="black" points="2055.41,-1665.27 2055.41,-1686.92 1990.96,-1698.09 1904.3,-1698.09 1839.85,-1686.92 1839.85,-1665.27 1904.3,-1654.09 1990.96,-1654.09 2055.41,-1665.27"/>
<text text-anchor="middle" x="1947.63" y="-1671.04" font-family="Times,serif" font-size="14.00">scancode:openldap&#45;2.3</text>
</g>
<!-- 3803&#45;&gt;23469 -->
<g id="edge7" class="edge">
<title>3803&#45;&gt;23469</title>
<path fill="none" stroke="#deb256" stroke-width="2" d="M1927.73,-1241.37C1926.31,-1320.2 1935.12,-1554.92 1942.62,-1642.58"/>
<polygon fill="#deb256" stroke="#deb256" stroke-width="2" points="1943.42,-1651.28 1938.03,-1641.74 1942.69,-1648.77 1942.01,-1641.37 1942.51,-1641.32 1943,-1641.28 1943.69,-1648.68 1946.99,-1640.91 1943.42,-1651.28"/>
</g>
<!-- 54141 -->
<g id="node35" class="node">
<title>54141</title>
<polygon fill="none" stroke="#379469" points="2736.95,-1597.49 2736.95,-1612.4 2630.08,-1622.94 2478.93,-1622.94 2372.06,-1612.4 2372.06,-1597.49 2478.93,-1586.94 2630.08,-1586.94 2736.95,-1597.49"/>
<polygon fill="none" stroke="#379469" points="2740.95,-1593.86 2740.95,-1616.02 2630.27,-1626.94 2478.74,-1626.94 2368.06,-1616.02 2368.06,-1593.86 2478.74,-1582.94 2630.27,-1582.94 2740.95,-1593.86"/>
<text text-anchor="middle" x="2554.51" y="-1599.89" font-family="Times,serif" font-size="14.00">metaeffekt:OpenLDAP Public License 2.3</text>
</g>
<!-- 3803&#45;&gt;54141 -->
<g id="edge8" class="edge">
<title>3803&#45;&gt;54141</title>
<path fill="none" stroke="#379469" stroke-width="2" d="M1975.07,-1239.48C2351.19,-1443 2384.01,-1462.24 2519.71,-1575.74"/>
<polygon fill="#379469" stroke="#379469" stroke-width="2" points="2526.08,-1581.07 2515.53,-1578.1 2523.79,-1579.81 2518.09,-1575.03 2518.41,-1574.65 2518.74,-1574.27 2524.44,-1579.04 2521.3,-1571.2 2526.08,-1581.07"/>
</g>
<!-- 3804 -->
<g id="node6" class="node">
<title>3804</title>
<polygon fill="none" stroke="black" points="1696.81,-810.24 1696.81,-825.15 1661,-835.69 1610.37,-835.69 1574.56,-825.15 1574.56,-810.24 1610.37,-799.69 1661,-799.69 1696.81,-810.24"/>
<polygon fill="none" stroke="black" points="1700.81,-807.25 1700.81,-828.14 1661.58,-839.69 1609.79,-839.69 1570.56,-828.14 1570.56,-807.25 1609.79,-795.69 1661.58,-795.69 1700.81,-807.25"/>
<text text-anchor="middle" x="1635.69" y="-812.64" font-family="Times,serif" font-size="14.00">OLDAP&#45;2.3</text>
</g>
<!-- 3804&#45;&gt;3803 -->
<g id="edge9" class="edge">
<title>3804&#45;&gt;3803</title>
<path fill="none" stroke="black" stroke-width="2" d="M1660.03,-840.1C1747.24,-920.79 1762.76,-943.21 1908.14,-1179.48"/>
<polygon fill="black" stroke="black" stroke-width="2" points="1912.53,-1186.62 1903.46,-1180.46 1910.76,-1184.7 1906.87,-1178.37 1907.29,-1178.1 1907.72,-1177.84 1911.61,-1184.18 1911.12,-1175.75 1912.53,-1186.62"/>
</g>
<!-- 10250 -->
<g id="node14" class="node">
<title>10250</title>
<polygon fill="none" stroke="#00876c" points="1358.23,-915.55 1358.23,-930.46 1300.04,-941.01 1217.73,-941.01 1159.54,-930.46 1159.54,-915.55 1217.73,-905.01 1300.04,-905.01 1358.23,-915.55"/>
<polygon fill="none" stroke="#00876c" points="1362.23,-912.21 1362.23,-933.8 1300.4,-945.01 1217.38,-945.01 1155.54,-933.8 1155.54,-912.21 1217.38,-901.01 1300.4,-901.01 1362.23,-912.21"/>
<text text-anchor="middle" x="1258.89" y="-917.96" font-family="Times,serif" font-size="14.00">BlueOak:OLDAP&#45;2.3</text>
</g>
<!-- 3804&#45;&gt;10250 -->
<g id="edge10" class="edge">
<title>3804&#45;&gt;10250</title>
<path fill="none" stroke="#00876c" stroke-width="2" d="M1570.31,-817.4C1409.89,-817.24 1382.63,-824.67 1295.39,-893.66"/>
<polygon fill="#00876c" stroke="#00876c" stroke-width="2" points="1288.66,-899.01 1293.69,-889.26 1290.36,-897.02 1296.18,-892.39 1296.49,-892.79 1296.8,-893.18 1290.98,-897.81 1299.29,-896.31 1288.66,-899.01"/>
</g>
<!-- 34035 -->
<g id="node26" class="node">
<title>34035</title>
<polygon fill="none" stroke="#e18745" points="1522.89,-558.96 1522.89,-573.87 1462.75,-584.41 1377.69,-584.41 1317.55,-573.87 1317.55,-558.96 1377.69,-548.41 1462.75,-548.41 1522.89,-558.96"/>
<polygon fill="none" stroke="#e18745" points="1526.89,-555.6 1526.89,-577.23 1463.1,-588.41 1377.35,-588.41 1313.55,-577.23 1313.55,-555.6 1377.35,-544.41 1463.1,-544.41 1526.89,-555.6"/>
<text text-anchor="middle" x="1420.22" y="-561.36" font-family="Times,serif" font-size="14.00">fossology:OLDAP&#45;2.3</text>
</g>
<!-- 3804&#45;&gt;34035 -->
<g id="edge11" class="edge">
<title>3804&#45;&gt;34035</title>
<path fill="none" stroke="#e18745" stroke-width="2" d="M1618.61,-795.63C1516.15,-663.25 1496.06,-638.03 1452.49,-596.53"/>
<polygon fill="#e18745" stroke="#e18745" stroke-width="2" points="1446.13,-590.53 1456.49,-594.12 1448.34,-591.92 1453.74,-597.03 1453.4,-597.4 1453.06,-597.76 1447.65,-592.65 1450.31,-600.67 1446.13,-590.53"/>
</g>
<!-- 42117 -->
<g id="node33" class="node">
<title>42117</title>
<polygon fill="none" stroke="#379469" points="1796.53,-436.88 1796.53,-451.79 1747.75,-462.34 1678.76,-462.34 1629.97,-451.79 1629.97,-436.88 1678.76,-426.34 1747.75,-426.34 1796.53,-436.88"/>
<polygon fill="none" stroke="#379469" points="1800.53,-433.65 1800.53,-455.02 1748.18,-466.34 1678.33,-466.34 1625.97,-455.02 1625.97,-433.65 1678.33,-422.34 1748.18,-422.34 1800.53,-433.65"/>
<text text-anchor="middle" x="1713.25" y="-439.29" font-family="Times,serif" font-size="14.00">cavil:OLDAP&#45;2.3</text>
</g>
<!-- 3804&#45;&gt;42117 -->
<g id="edge12" class="edge">
<title>3804&#45;&gt;42117</title>
<path fill="none" stroke="#379469" stroke-width="2" d="M1637.08,-795.54C1650.46,-583.37 1653.28,-558.16 1696.11,-476.45"/>
<polygon fill="#379469" stroke="#379469" stroke-width="2" points="1700.1,-468.89 1699.41,-479.83 1699.35,-471.39 1695.87,-477.96 1695.43,-477.73 1694.99,-477.49 1698.46,-470.92 1691.45,-475.63 1700.1,-468.89"/>
</g>
<!-- 61201 -->
<g id="node45" class="node">
<title>61201</title>
<polygon fill="none" stroke="#dac767" points="1454.88,-698.56 1454.88,-713.47 1348.65,-724.01 1198.43,-724.01 1092.21,-713.47 1092.21,-698.56 1198.43,-688.01 1348.65,-688.01 1454.88,-698.56"/>
<polygon fill="none" stroke="#dac767" points="1458.88,-694.93 1458.88,-717.09 1348.85,-728.01 1198.23,-728.01 1088.21,-717.09 1088.21,-694.93 1198.23,-684.01 1348.85,-684.01 1458.88,-694.93"/>
<text text-anchor="middle" x="1273.54" y="-700.96" font-family="Times,serif" font-size="14.00">fosslight:Open LDAP Public License v2.3</text>
</g>
<!-- 3804&#45;&gt;61201 -->
<g id="edge13" class="edge">
<title>3804&#45;&gt;61201</title>
<path fill="none" stroke="#dac767" stroke-width="2" d="M1598.05,-798.84C1521.94,-760.76 1474.91,-737.83 1438,-724.21"/>
<polygon fill="#dac767" stroke="#dac767" stroke-width="2" points="1430.13,-721.42 1441.06,-720.52 1432.72,-721.81 1439.73,-724.29 1439.56,-724.76 1439.39,-725.23 1432.38,-722.75 1438.06,-729 1430.13,-721.42"/>
</g>
<!-- 3805 -->
<g id="node7" class="node">
<title>3805</title>
<polygon fill="none" stroke="black" points="1782.6,-890.39 1782.6,-905.3 1698.11,-915.84 1578.64,-915.84 1494.16,-905.3 1494.16,-890.39 1578.64,-879.84 1698.11,-879.84 1782.6,-890.39"/>
<polygon fill="none" stroke="black" points="1786.6,-886.85 1786.6,-908.83 1698.36,-919.84 1578.39,-919.84 1490.16,-908.83 1490.16,-886.85 1578.39,-875.84 1698.36,-875.84 1786.6,-886.85"/>
<text text-anchor="middle" x="1638.38" y="-892.79" font-family="Times,serif" font-size="14.00">Open LDAP Public License v2.3</text>
</g>
<!-- 3805&#45;&gt;3803 -->
<g id="edge14" class="edge">
<title>3805&#45;&gt;3803</title>
<path fill="none" stroke="black" stroke-width="2" d="M1670.59,-920.3C1749.06,-975.76 1768.4,-998.78 1903.75,-1179.9"/>
<polygon fill="black" stroke="black" stroke-width="2" points="1908.83,-1186.69 1899.23,-1181.37 1906.89,-1184.93 1902.44,-1178.98 1902.84,-1178.68 1903.24,-1178.38 1907.69,-1184.34 1906.44,-1175.98 1908.83,-1186.69"/>
</g>
<!-- 3805&#45;&gt;10250 -->
<g id="edge15" class="edge">
<title>3805&#45;&gt;10250</title>
<path fill="none" stroke="#00876c" stroke-width="2" d="M1528.12,-881.68C1415.54,-866.4 1380.51,-869.11 1315.65,-896.92"/>
<polygon fill="#00876c" stroke="#00876c" stroke-width="2" points="1307.64,-900.43 1315,-892.3 1309.79,-898.94 1316.6,-895.96 1316.8,-896.42 1317,-896.88 1310.19,-899.86 1318.61,-900.54 1307.64,-900.43"/>
</g>
<!-- 3805&#45;&gt;34035 -->
<g id="edge16" class="edge">
<title>3805&#45;&gt;34035</title>
<path fill="none" stroke="#e18745" stroke-width="2" d="M1623.79,-875.41C1503.56,-690.47 1487.29,-665.55 1441.35,-597.62"/>
<polygon fill="#e18745" stroke="#e18745" stroke-width="2" points="1436.65,-590.67 1445.98,-596.43 1438.5,-592.51 1442.67,-598.67 1442.25,-598.95 1441.84,-599.23 1437.67,-593.07 1438.53,-601.47 1436.65,-590.67"/>
</g>
<!-- 3805&#45;&gt;61201 -->
<g id="edge17" class="edge">
<title>3805&#45;&gt;61201</title>
<path fill="none" stroke="#dac767" stroke-width="2" d="M1604.72,-875.39C1463.74,-781.41 1417.57,-751.81 1361.97,-731.76"/>
<polygon fill="#dac767" stroke="#dac767" stroke-width="2" points="1353.75,-728.92 1364.67,-727.94 1356.34,-729.28 1363.36,-731.72 1363.2,-732.19 1363.04,-732.66 1356.01,-730.23 1361.73,-736.44 1353.75,-728.92"/>
</g>
<!-- 68183 -->
<g id="node48" class="node">
<title>68183</title>
<polygon fill="none" stroke="#00876c" points="2194.35,-818.05 2194.35,-832.96 2097.22,-843.51 1959.84,-843.51 1862.71,-832.96 1862.71,-818.05 1959.84,-807.51 2097.22,-807.51 2194.35,-818.05"/>
<polygon fill="none" stroke="#00876c" points="2198.35,-814.46 2198.35,-836.55 2097.43,-847.51 1959.63,-847.51 1858.71,-836.55 1858.71,-814.46 1959.63,-803.51 2097.43,-803.51 2198.35,-814.46"/>
<text text-anchor="middle" x="2028.53" y="-820.46" font-family="Times,serif" font-size="14.00">spdx:Open LDAP Public License v2.3</text>
</g>
<!-- 3805&#45;&gt;68183 -->
<g id="edge18" class="edge">
<title>3805&#45;&gt;68183</title>
<path fill="none" stroke="#00876c" stroke-width="2" d="M1674.77,-875.53C1791.02,-804.64 1825.97,-789.62 1920.57,-804.33"/>
<polygon fill="#00876c" stroke="#00876c" stroke-width="2" points="1929.06,-805.72 1918.47,-808.55 1926.45,-805.8 1919.11,-804.6 1919.19,-804.11 1919.27,-803.61 1926.61,-804.81 1919.92,-799.66 1929.06,-805.72"/>
</g>
<!-- 3806 -->
<g id="node8" class="node">
<title>3806</title>
<text text-anchor="middle" x="846.13" y="-1443.21" font-family="Times,serif" font-size="14.00">$TEXT</text>
</g>
<!-- 3806&#45;&gt;3802 -->
<g id="edge19" class="edge">
<title>3806&#45;&gt;3802</title>
<path fill="none" stroke="#dac767" d="M872.69,-1430.31C955.95,-1374.44 983.1,-1362.14 1177.37,-1298.32"/>
<polygon fill="#dac767" stroke="#dac767" points="1178.42,-1301.66 1186.83,-1295.22 1176.24,-1295.01 1178.42,-1301.66"/>
</g>
<!-- 3807 -->
<g id="node9" class="node">
<title>3807</title>
<text text-anchor="middle" x="637.09" y="-1544.72" font-family="Times,serif" font-size="14.00">$TEXT</text>
</g>
<!-- 3807&#45;&gt;3806 -->
<g id="edge20" class="edge">
<title>3807&#45;&gt;3806</title>
<path fill="none" stroke="#dac767" d="M662.5,-1531.88C695.82,-1509.13 715.93,-1500.06 807.11,-1463.75"/>
<polygon fill="#dac767" stroke="#dac767" points="808.27,-1467.06 816.27,-1460.11 805.68,-1460.56 808.27,-1467.06"/>
</g>
<!-- 3808 -->
<g id="node10" class="node">
<title>3808</title>
<text text-anchor="middle" x="1289.47" y="-1209.14" font-family="Times,serif" font-size="14.00">http://www.openldap.org/devel/gitweb.cgi?p=openldap.git;a=blob;f=LICENSE;hb=d32cf54a32d581ab475d23c810b0a7fbaf8d63c3</text>
</g>
<!-- 3808&#45;&gt;3802 -->
<g id="edge21" class="edge">
<title>3808&#45;&gt;3802</title>
<path fill="none" stroke="#dac767" d="M1274.49,-1232C1274.42,-1232.09 1274.36,-1232.18 1274.29,-1232.27"/>
<polygon fill="#dac767" stroke="#dac767" points="1272.75,-1228.12 1270.45,-1238.46 1278.7,-1231.8 1272.75,-1228.12"/>
</g>
<!-- 23468 -->
<g id="node18" class="node">
<title>23468</title>
<ellipse fill="none" stroke="#deb256" cx="1435.52" cy="-1884.63" rx="158.75" ry="28.99"/>
<text text-anchor="middle" x="1435.52" y="-1887.83" font-family="Times,serif" font-size="14.00" fill="gray">ScancodeData</text>
<text text-anchor="middle" x="1435.52" y="-1871.33" font-family="Times,serif" font-size="14.00" fill="gray">6e8c77d802132323bd3650c6f29e204f</text>
</g>
<!-- 3808&#45;&gt;23468 -->
<g id="edge22" class="edge">
<title>3808&#45;&gt;23468</title>
<path fill="none" stroke="#deb256" d="M1287.31,-1232.04C1243.42,-1594.2 1243.83,-1616.06 1408.04,-1846.23"/>
<polygon fill="#deb256" stroke="#deb256" points="1405.17,-1848.23 1413.83,-1854.34 1410.87,-1844.17 1405.17,-1848.23"/>
</g>
<!-- 34034 -->
<g id="node25" class="node">
<title>34034</title>
<ellipse fill="none" stroke="#e18745" cx="1008.84" cy="-430.61" rx="159.28" ry="28.99"/>
<text text-anchor="middle" x="1008.84" y="-433.81" font-family="Times,serif" font-size="14.00" fill="gray">Fossology</text>
<text text-anchor="middle" x="1008.84" y="-417.31" font-family="Times,serif" font-size="14.00" fill="gray">930d3ebd95ed20cad91bafb7417572be</text>
</g>
<!-- 3808&#45;&gt;34034 -->
<g id="edge23" class="edge">
<title>3808&#45;&gt;34034</title>
<path fill="none" stroke="#e18745" d="M1279.1,-1196.46C1021.19,-755.47 1008.98,-731.19 1008.8,-471.22"/>
<polygon fill="#e18745" stroke="#e18745" points="1012.3,-471.39 1008.8,-461.39 1005.3,-471.39 1012.3,-471.39"/>
</g>
<!-- 3808&#45;&gt;59440 -->
<g id="edge24" class="edge">
<title>3808&#45;&gt;59440</title>
<path fill="none" stroke="#dc574a" d="M1321.98,-1232.08C1366.33,-1255.88 1391.94,-1265.25 1482.58,-1288.39"/>
<polygon fill="#dc574a" stroke="#dc574a" points="1481.64,-1291.76 1492.19,-1290.83 1483.36,-1284.98 1481.64,-1291.76"/>
</g>
<!-- 5550 -->
<g id="node11" class="node">
<title>5550</title>
<text text-anchor="middle" x="1167.22" y="-1465.14" font-family="Times,serif" font-size="14.00">LicenseType Permissive</text>
</g>
<!-- 10249 -->
<g id="node13" class="node">
<title>10249</title>
<ellipse fill="none" stroke="#00876c" cx="756.43" cy="-1175.32" rx="158.75" ry="28.99"/>
<text text-anchor="middle" x="756.43" y="-1178.52" font-family="Times,serif" font-size="14.00" fill="gray">BlueOakCouncil</text>
<text text-anchor="middle" x="756.43" y="-1162.02" font-family="Times,serif" font-size="14.00" fill="gray">db9f3b061b28195cae84bdcc2ac14835</text>
</g>
<!-- 5550&#45;&gt;10249 -->
<g id="edge25" class="edge">
<title>5550&#45;&gt;10249</title>
<path fill="none" stroke="#00876c" d="M1128.97,-1452.37C886.55,-1339.3 859.58,-1323.21 783.04,-1213.87"/>
<polygon fill="#00876c" stroke="#00876c" points="785.91,-1211.87 777.32,-1205.66 780.17,-1215.87 785.91,-1211.87"/>
</g>
<!-- 5550&#45;&gt;23468 -->
<g id="edge26" class="edge">
<title>5550&#45;&gt;23468</title>
<path fill="none" stroke="#deb256" d="M1170.79,-1487.92C1216.1,-1712.7 1224.01,-1734.78 1385.84,-1849.66"/>
<polygon fill="#deb256" stroke="#deb256" points="1383.77,-1852.48 1393.95,-1855.4 1387.81,-1846.77 1383.77,-1852.48"/>
</g>
<!-- 5550&#45;&gt;59440 -->
<g id="edge27" class="edge">
<title>5550&#45;&gt;59440</title>
<path fill="none" stroke="#dc574a" d="M1205.44,-1452.22C1282.91,-1416.1 1315.85,-1403.96 1499.19,-1343.74"/>
<polygon fill="#dc574a" stroke="#dc574a" points="1500.19,-1347.09 1508.6,-1340.65 1498.01,-1340.44 1500.19,-1347.09"/>
</g>
<!-- 61200 -->
<g id="node44" class="node">
<title>61200</title>
<ellipse fill="none" stroke="#dac767" cx="1026.03" cy="-1109.29" rx="156.62" ry="28.99"/>
<text text-anchor="middle" x="1026.03" y="-1112.49" font-family="Times,serif" font-size="14.00" fill="gray">FOSSLight</text>
<text text-anchor="middle" x="1026.03" y="-1095.99" font-family="Times,serif" font-size="14.00" fill="gray">f198ec952f46d7613dc556fb58a9e51d</text>
</g>
<!-- 5550&#45;&gt;61200 -->
<g id="edge28" class="edge">
<title>5550&#45;&gt;61200</title>
<path fill="none" stroke="#dac767" d="M1152.55,-1452.4C1030.26,-1304 1020.25,-1286.59 1024.57,-1149.8"/>
<polygon fill="#dac767" stroke="#dac767" points="1028.06,-1150.04 1024.9,-1139.93 1021.06,-1149.8 1028.06,-1150.04"/>
</g>
<!-- 10004 -->
<g id="node12" class="node">
<title>10004</title>
<text text-anchor="start" x="144.86" y="-1043.61" font-family="Times,serif" font-size="14.00">BlueOakCouncil: </text>
<text text-anchor="start" x="243.11" y="-1043.61" font-family="Times,serif" font-weight="bold" font-size="14.00" fill="#000000">Bronze</text>
<text text-anchor="start" x="7.61" y="-1029.61" font-family="Times,serif" font-size="14.00">These licenses lack important but nonessential elements of permissive open</text>
<text text-anchor="start" x="9.49" y="-1015.61" font-family="Times,serif" font-size="14.00">software licenses or impose additional requirements or restrictions, such as</text>
<text text-anchor="start" x="50.36" y="-1001.61" font-family="Times,serif" font-size="14.00">BSD&#45;style prohibitions against endorsement and promotion.</text>
</g>
<!-- 10004&#45;&gt;10249 -->
<g id="edge29" class="edge">
<title>10004&#45;&gt;10249</title>
<path fill="none" stroke="#00876c" d="M302.07,-1059.91C380.04,-1087.19 439.38,-1102.13 646.1,-1149.89"/>
<polygon fill="#00876c" stroke="#00876c" points="645.01,-1153.23 655.54,-1152.07 646.59,-1146.41 645.01,-1153.23"/>
</g>
<!-- 10249&#45;&gt;10250 -->
<g id="edge30" class="edge">
<title>10249&#45;&gt;10250</title>
<path fill="none" stroke="#00876c" d="M783.1,-1146.4C890.83,-1030.31 918.54,-1015.6 1181.45,-943.98"/>
<polygon fill="#00876c" stroke="#00876c" points="1182.33,-947.37 1191.06,-941.36 1180.49,-940.61 1182.33,-947.37"/>
</g>
<!-- 10251 -->
<g id="node15" class="node">
<title>10251</title>
<text text-anchor="middle" x="304.88" y="-1222.22" font-family="Times,serif" font-size="14.00">https://spdx.org/licenses/OLDAP&#45;2.3.html</text>
</g>
<!-- 10251&#45;&gt;10249 -->
<g id="edge31" class="edge">
<title>10251&#45;&gt;10249</title>
<path fill="none" stroke="#00876c" d="M385.64,-1209.31C438.37,-1198.78 483.37,-1193.89 595.2,-1186.05"/>
<polygon fill="#00876c" stroke="#00876c" points="595.36,-1189.55 605.09,-1185.36 594.87,-1182.57 595.36,-1189.55"/>
</g>
<!-- 23460 -->
<g id="node17" class="node">
<title>23460</title>
<text text-anchor="middle" x="1395.91" y="-2380.81" font-family="Times,serif" font-size="14.00">ScancodeData:</text>
<text text-anchor="middle" x="1395.91" y="-2364.31" font-family="Times,serif" font-size="14.00">Per SPDX.org, this license was released 28 July 2000.</text>
</g>
<!-- 23460&#45;&gt;23468 -->
<g id="edge32" class="edge">
<title>23460&#45;&gt;23468</title>
<path fill="none" stroke="#deb256" d="M1392.49,-2357.47C1369.95,-2223.7 1371.52,-2205.01 1427.45,-1925.01"/>
<polygon fill="#deb256" stroke="#deb256" points="1430.81,-1926.06 1429.33,-1915.57 1423.94,-1924.69 1430.81,-1926.06"/>
</g>
<!-- 23468&#45;&gt;23469 -->
<g id="edge33" class="edge">
<title>23468&#45;&gt;23469</title>
<path fill="none" stroke="#deb256" d="M1590.55,-1878.18C1675.36,-1865.26 1735.64,-1825.9 1906.81,-1704.97"/>
<polygon fill="#deb256" stroke="#deb256" points="1908.72,-1707.9 1914.87,-1699.27 1904.68,-1702.19 1908.72,-1707.9"/>
</g>
<!-- 23469&#45;&gt;3803 -->
<g id="edge34" class="edge">
<title>23469&#45;&gt;3803</title>
<path fill="none" stroke="#00876c" stroke-width="2" d="M1949.89,-1653.74C1951.66,-1580.1 1942.95,-1344.55 1935.4,-1252.5"/>
<polygon fill="#00876c" stroke="#00876c" stroke-width="2" points="1934.65,-1243.93 1940,-1253.5 1935.37,-1246.44 1936.02,-1253.85 1935.52,-1253.89 1935.02,-1253.94 1934.38,-1246.53 1931.04,-1254.28 1934.65,-1243.93"/>
</g>
<!-- 23469&#45;&gt;54141 -->
<g id="edge35" class="edge">
<title>23469&#45;&gt;54141</title>
<path fill="none" stroke="#379469" stroke-dasharray="5,2" d="M2048.44,-1688.57C2314.1,-1720.68 2353.85,-1715.22 2504.49,-1632.7"/>
<polygon fill="#379469" stroke="#379469" points="2513.03,-1628 2506.43,-1636.77 2509.71,-1629.83 2504.27,-1632.82 2504.27,-1632.82 2504.27,-1632.82 2509.71,-1629.83 2502.1,-1628.88 2513.03,-1628"/>
</g>
<!-- 23470 -->
<g id="node20" class="node">
<title>23470</title>
<polygon fill="none" stroke="black" points="2092.68,-2001.2 2092.68,-2016.11 2054.93,-2026.65 2001.54,-2026.65 1963.79,-2016.11 1963.79,-2001.2 2001.54,-1990.65 2054.93,-1990.65 2092.68,-2001.2"/>
<polygon fill="none" stroke="black" points="2096.68,-1998.16 2096.68,-2019.15 2055.48,-2030.65 2000.99,-2030.65 1959.79,-2019.15 1959.79,-1998.16 2000.99,-1986.65 2055.48,-1986.65 2096.68,-1998.16"/>
<text text-anchor="middle" x="2028.24" y="-2003.6" font-family="Times,serif" font-size="14.00">openldap&#45;2.3</text>
</g>
<!-- 23470&#45;&gt;23469 -->
<g id="edge36" class="edge">
<title>23470&#45;&gt;23469</title>
<path fill="none" stroke="black" stroke-width="2" d="M2022.28,-1986.56C2002.26,-1912.21 1997.63,-1892.81 1955.26,-1709.19"/>
<polygon fill="black" stroke="black" stroke-width="2" points="1953.3,-1700.68 1959.93,-1709.42 1954.37,-1703.07 1956.04,-1710.32 1955.55,-1710.43 1955.06,-1710.54 1953.39,-1703.29 1951.17,-1711.44 1953.3,-1700.68"/>
</g>
<!-- 23471 -->
<g id="node21" class="node">
<title>23471</title>
<polygon fill="none" stroke="black" points="2355.97,-1550.64 2355.97,-1565.55 2276.03,-1576.1 2162.98,-1576.1 2083.04,-1565.55 2083.04,-1550.64 2162.98,-1540.1 2276.03,-1540.1 2355.97,-1550.64"/>
<polygon fill="none" stroke="black" points="2359.97,-1547.13 2359.97,-1569.06 2276.29,-1580.1 2162.72,-1580.1 2079.04,-1569.06 2079.04,-1547.13 2162.72,-1536.1 2276.29,-1536.1 2359.97,-1547.13"/>
<text text-anchor="middle" x="2219.5" y="-1553.05" font-family="Times,serif" font-size="14.00">OpenLDAP Public License 2.3</text>
</g>
<!-- 23471&#45;&gt;23469 -->
<g id="edge37" class="edge">
<title>23471&#45;&gt;23469</title>
<path fill="none" stroke="#deb256" stroke-width="2" d="M2198.08,-1580.41C2143.37,-1637.03 2119.43,-1657.09 2066.81,-1666.4"/>
<polygon fill="#deb256" stroke="#deb256" stroke-width="2" points="2058.3,-1667.74 2067.48,-1661.74 2060.75,-1666.85 2068.1,-1665.69 2068.18,-1666.18 2068.26,-1666.68 2060.91,-1667.84 2068.88,-1670.63 2058.3,-1667.74"/>
</g>
<!-- 23471&#45;&gt;54141 -->
<g id="edge38" class="edge">
<title>23471&#45;&gt;54141</title>
<path fill="none" stroke="#379469" stroke-width="2" d="M2297.05,-1577.84C2320.12,-1583.64 2339.93,-1588.53 2357.29,-1592.61"/>
<polygon fill="#379469" stroke="#379469" stroke-width="2" points="2365.42,-1594.49 2354.66,-1596.62 2362.81,-1594.4 2355.57,-1592.72 2355.68,-1592.23 2355.79,-1591.75 2363.04,-1593.43 2356.69,-1587.85 2365.42,-1594.49"/>
</g>
<!-- 68182 -->
<g id="node47" class="node">
<title>68182</title>
<polygon fill="none" stroke="#00876c" points="2434.79,-1498.54 2434.79,-1513.45 2331.81,-1524 2186.18,-1524 2083.2,-1513.45 2083.2,-1498.54 2186.18,-1488 2331.81,-1488 2434.79,-1498.54"/>
<polygon fill="none" stroke="#00876c" points="2438.79,-1494.93 2438.79,-1517.06 2332.02,-1528 2185.97,-1528 2079.2,-1517.06 2079.2,-1494.93 2185.97,-1484 2332.02,-1484 2438.79,-1494.93"/>
<text text-anchor="middle" x="2258.99" y="-1500.95" font-family="Times,serif" font-size="14.00">scancode:OpenLDAP Public License 2.3</text>
</g>
<!-- 23471&#45;&gt;68182 -->
<g id="edge39" class="edge">
<title>23471&#45;&gt;68182</title>
<path fill="none" stroke="#00876c" stroke-width="2" d="M2248.64,-1535.73C2248.73,-1535.6 2248.81,-1535.46 2248.9,-1535.33"/>
<polygon fill="#00876c" stroke="#00876c" stroke-width="2" points="2251.25,-1530.54 2250.88,-1541.5 2250.57,-1533.06 2247.29,-1539.74 2246.84,-1539.52 2246.39,-1539.3 2249.67,-1532.62 2242.8,-1537.53 2251.25,-1530.54"/>
</g>
<!-- 23472 -->
<g id="node22" class="node">
<title>23472</title>
<text text-anchor="middle" x="1122.58" y="-2537.17" font-family="Times,serif" font-size="14.00">http://www.openldap.org/devel/gitweb.cgi?p=openldap.git;a=blob;f=LICENSE;hb=d32cf54a32d581ab475d23c810b0a7fbaf8d63c3</text>
</g>
<!-- 23472&#45;&gt;23468 -->
<g id="edge40" class="edge">
<title>23472&#45;&gt;23468</title>
<path fill="none" stroke="#deb256" d="M1129.37,-2524.35C1198.72,-2341.63 1207.23,-2323.74 1415.08,-1923.94"/>
<polygon fill="#deb256" stroke="#deb256" points="1418.14,-1925.65 1419.65,-1915.16 1411.93,-1922.42 1418.14,-1925.65"/>
</g>
<!-- 23473 -->
<g id="node23" class="node">
<title>23473</title>
<text text-anchor="middle" x="1269.06" y="-2188.14" font-family="Times,serif" font-size="14.00">$TEXT</text>
</g>
<!-- 23473&#45;&gt;23468 -->
<g id="edge41" class="edge">
<title>23473&#45;&gt;23468</title>
<path fill="none" stroke="#deb256" d="M1276.97,-2175.64C1310.54,-2101.36 1319.3,-2085.12 1412.96,-1923.54"/>
<polygon fill="#deb256" stroke="#deb256" points="1415.91,-1925.42 1417.9,-1915.02 1409.85,-1921.91 1415.91,-1925.42"/>
</g>
<!-- 33997 -->
<g id="node24" class="node">
<title>33997</title>
<text text-anchor="middle" x="691.32" y="-110.69" font-family="Times,serif" font-size="14.00">Fossology:</text>
<text text-anchor="middle" x="691.32" y="-94.19" font-family="Times,serif" font-size="14.00">This license was released 28 July 2000.</text>
</g>
<!-- 33997&#45;&gt;34034 -->
<g id="edge42" class="edge">
<title>33997&#45;&gt;34034</title>
<path fill="none" stroke="#e18745" d="M710.88,-127.8C782.06,-201.7 800,-219.93 972.13,-393.58"/>
<polygon fill="#e18745" stroke="#e18745" points="969.59,-395.99 979.11,-400.62 974.56,-391.06 969.59,-395.99"/>
</g>
<!-- 34034&#45;&gt;34035 -->
<g id="edge43" class="edge">
<title>34034&#45;&gt;34035</title>
<path fill="none" stroke="#e18745" d="M1153.3,-443.09C1201.07,-455.84 1255.91,-482.41 1366.42,-538.86"/>
<polygon fill="#e18745" stroke="#e18745" points="1364.73,-541.93 1375.23,-543.37 1367.92,-535.7 1364.73,-541.93"/>
</g>
<!-- 34036 -->
<g id="node27" class="node">
<title>34036</title>
<text text-anchor="middle" x="885.07" y="-98.1" font-family="Times,serif" font-size="14.00">$TEXT</text>
</g>
<!-- 34036&#45;&gt;34034 -->
<g id="edge44" class="edge">
<title>34036&#45;&gt;34034</title>
<path fill="none" stroke="#e18745" d="M887.4,-120.88C899.15,-209.37 904.93,-225.27 988.9,-391.25"/>
<polygon fill="#e18745" stroke="#e18745" points="985.69,-392.65 993.33,-400 991.93,-389.49 985.69,-392.65"/>
</g>
<!-- 34245 -->
<g id="node28" class="node">
<title>34245</title>
<polygon fill="none" stroke="black" points="2958.13,-1700.52 2958.13,-1715.43 2931.73,-1725.98 2894.41,-1725.98 2868.01,-1715.43 2868.01,-1700.52 2894.41,-1689.98 2931.73,-1689.98 2958.13,-1700.52"/>
<text text-anchor="middle" x="2913.07" y="-1702.93" font-family="Times,serif" font-size="14.00">OLDAP</text>
</g>
<!-- 34245&#45;&gt;54141 -->
<g id="edge45" class="edge">
<title>34245&#45;&gt;54141</title>
<path fill="none" stroke="#379469" stroke-dasharray="5,2" d="M2869.58,-1699.41C2806.84,-1686.66 2774.78,-1677.22 2633.17,-1630.8"/>
<polygon fill="#379469" stroke="#379469" points="2623.94,-1627.77 2634.84,-1626.61 2627.53,-1628.95 2633.44,-1630.89 2633.44,-1630.89 2633.44,-1630.89 2627.53,-1628.95 2632.04,-1635.16 2623.94,-1627.77"/>
</g>
<!-- 35432 -->
<g id="node29" class="node">
<title>35432</title>
<text text-anchor="middle" x="2710.56" y="-374.41" font-family="Times,serif" font-size="14.00">LicenseTag (ScopedLicenseTag &quot;OrtLicenseCategorization&quot; &quot;permissive&quot; NoLicenseTagText)</text>
</g>
<!-- 39790 -->
<g id="node31" class="node">
<title>39790</title>
<ellipse fill="none" stroke="#d43d51" cx="2361.01" cy="-871.43" rx="154.5" ry="28.99"/>
<text text-anchor="middle" x="2361.01" y="-874.63" font-family="Times,serif" font-size="14.00" fill="gray">OrtLicenseCategorization</text>
<text text-anchor="middle" x="2361.01" y="-858.13" font-family="Times,serif" font-size="14.00" fill="gray">6a87fc0b0a5ca6f3e973fdb0c3b56ea9</text>
</g>
<!-- 35432&#45;&gt;39790 -->
<g id="edge46" class="edge">
<title>35432&#45;&gt;39790</title>
<path fill="none" stroke="#d43d51" d="M2700.76,-397.19C2624.46,-535.09 2612.55,-551.91 2390.77,-833.63"/>
<polygon fill="#d43d51" stroke="#d43d51" points="2388.18,-831.26 2384.74,-841.28 2393.68,-835.59 2388.18,-831.26"/>
</g>
<!-- 35433 -->
<g id="node30" class="node">
<title>35433</title>
<text text-anchor="middle" x="2904.07" y="-531.75" font-family="Times,serif" font-size="14.00">LicenseTag (ScopedLicenseTag &quot;OrtLicenseCategorization&quot; &quot;include&#45;in&#45;notice&#45;file&quot; NoLicenseTagText)</text>
</g>
<!-- 35433&#45;&gt;39790 -->
<g id="edge47" class="edge">
<title>35433&#45;&gt;39790</title>
<path fill="none" stroke="#d43d51" d="M2870.55,-554.6C2739.58,-624.27 2710.78,-642.28 2413.3,-837.16"/>
<polygon fill="#d43d51" stroke="#d43d51" points="2411.68,-834.04 2405.24,-842.45 2415.52,-839.89 2411.68,-834.04"/>
</g>
<!-- 39790&#45;&gt;3803 -->
<g id="edge48" class="edge">
<title>39790&#45;&gt;3803</title>
<path fill="none" stroke="#d43d51" d="M2323.02,-899.94C2230.45,-969.57 2200.28,-993.94 1970.71,-1181.87"/>
<polygon fill="#d43d51" stroke="#d43d51" points="1968.8,-1178.91 1963.28,-1187.96 1973.23,-1184.33 1968.8,-1178.91"/>
</g>
<!-- 42116 -->
<g id="node32" class="node">
<title>42116</title>
<ellipse fill="none" stroke="#379469" cx="1781.26" cy="-29.46" rx="160.87" ry="28.99"/>
<text text-anchor="middle" x="1781.26" y="-32.66" font-family="Times,serif" font-size="14.00" fill="gray">CavilLicenseChange</text>
<text text-anchor="middle" x="1781.26" y="-16.16" font-family="Times,serif" font-size="14.00" fill="gray">c6368eaab03a9c231b63698d80b2b360</text>
</g>
<!-- 42116&#45;&gt;42117 -->
<g id="edge49" class="edge">
<title>42116&#45;&gt;42117</title>
<path fill="none" stroke="#379469" d="M1770.91,-58.63C1738.4,-151.27 1735.27,-176.02 1716.02,-410.6"/>
<polygon fill="#379469" stroke="#379469" points="1712.54,-410.17 1715.21,-420.42 1719.52,-410.74 1712.54,-410.17"/>
</g>
<!-- 54140 -->
<g id="node34" class="node">
<title>54140</title>
<ellipse fill="none" stroke="#379469" cx="3079.68" cy="-1652.92" rx="158.22" ry="28.99"/>
<text text-anchor="middle" x="3079.68" y="-1656.12" font-family="Times,serif" font-size="14.00" fill="gray">MetaeffektLicense</text>
<text text-anchor="middle" x="3079.68" y="-1639.62" font-family="Times,serif" font-size="14.00" fill="gray">27214304ce4db4cc1095754f6ef76467</text>
</g>
<!-- 54140&#45;&gt;54141 -->
<g id="edge50" class="edge">
<title>54140&#45;&gt;54141</title>
<path fill="none" stroke="#379469" d="M2924.3,-1658.75C2870.23,-1656.06 2805.17,-1646.57 2678.41,-1625.63"/>
<polygon fill="#379469" stroke="#379469" points="2679.09,-1622.19 2668.66,-1624.01 2677.95,-1629.1 2679.09,-1622.19"/>
</g>
<!-- 54142 -->
<g id="node36" class="node">
<title>54142</title>
<polygon fill="none" stroke="#379469" points="2997.88,-1872.82 2997.88,-1887.73 2942.28,-1898.28 2863.65,-1898.28 2808.05,-1887.73 2808.05,-1872.82 2863.65,-1862.28 2942.28,-1862.28 2997.88,-1872.82"/>
<text text-anchor="middle" x="2902.97" y="-1875.23" font-family="Times,serif" font-size="14.00">OLDAP, Version 2.3</text>
</g>
<!-- 54142&#45;&gt;54141 -->
<g id="edge51" class="edge">
<title>54142&#45;&gt;54141</title>
<path fill="none" stroke="#379469" stroke-dasharray="5,2" d="M2884.49,-1861.97C2810.42,-1788.77 2791.76,-1774.23 2594.74,-1633.64"/>
<polygon fill="#379469" stroke="#379469" points="2586.83,-1628 2597.58,-1630.14 2589.9,-1630.19 2594.97,-1633.81 2594.97,-1633.81 2594.97,-1633.81 2589.9,-1630.19 2592.35,-1637.47 2586.83,-1628"/>
</g>
<!-- 54143 -->
<g id="node37" class="node">
<title>54143</title>
<polygon fill="none" stroke="#379469" points="2694.96,-1985.09 2694.96,-2000 2658.51,-2010.55 2606.95,-2010.55 2570.5,-2000 2570.5,-1985.09 2606.95,-1974.55 2658.51,-1974.55 2694.96,-1985.09"/>
<text text-anchor="middle" x="2632.73" y="-1987.5" font-family="Times,serif" font-size="14.00">OLDAP, 2.3</text>
</g>
<!-- 54143&#45;&gt;54141 -->
<g id="edge52" class="edge">
<title>54143&#45;&gt;54141</title>
<path fill="none" stroke="#379469" stroke-dasharray="5,2" d="M2635.81,-1974.32C2656.48,-1851.02 2653.68,-1835.98 2568.56,-1637.63"/>
<polygon fill="#379469" stroke="#379469" points="2564.65,-1628.55 2572.74,-1635.96 2566.15,-1632.02 2568.6,-1637.74 2568.6,-1637.74 2568.6,-1637.74 2566.15,-1632.02 2564.47,-1639.51 2564.65,-1628.55"/>
</g>
<!-- 54144 -->
<g id="node38" class="node">
<title>54144</title>
<polygon fill="none" stroke="#379469" points="2961.73,-2017.18 2961.73,-2032.09 2886.01,-2042.64 2778.93,-2042.64 2703.21,-2032.09 2703.21,-2017.18 2778.93,-2006.64 2886.01,-2006.64 2961.73,-2017.18"/>
<text text-anchor="middle" x="2832.47" y="-2019.59" font-family="Times,serif" font-size="14.00">OLDAP License, Version 2.3</text>
</g>
<!-- 54144&#45;&gt;54141 -->
<g id="edge53" class="edge">
<title>54144&#45;&gt;54141</title>
<path fill="none" stroke="#379469" stroke-dasharray="5,2" d="M2826,-2006.34C2779.46,-1875.16 2769.44,-1860.07 2580.48,-1635.77"/>
<polygon fill="#379469" stroke="#379469" points="2574.18,-1628.29 2584.06,-1633.04 2576.62,-1631.18 2580.62,-1635.93 2580.62,-1635.93 2580.62,-1635.93 2576.62,-1631.18 2577.18,-1638.83 2574.18,-1628.29"/>
</g>
<!-- 54145 -->
<g id="node39" class="node">
<title>54145</title>
<polygon fill="none" stroke="#379469" points="3042.93,-1406.58 3042.93,-1421.49 2986.36,-1432.03 2906.35,-1432.03 2849.78,-1421.49 2849.78,-1406.58 2906.35,-1396.03 2986.36,-1396.03 3042.93,-1406.58"/>
<text text-anchor="middle" x="2946.36" y="-1408.98" font-family="Times,serif" font-size="14.00">OLDAP License, 2.3</text>
</g>
<!-- 54145&#45;&gt;54141 -->
<g id="edge54" class="edge">
<title>54145&#45;&gt;54141</title>
<path fill="none" stroke="#379469" stroke-dasharray="5,2" d="M2928.99,-1432.3C2846.61,-1518.52 2824.74,-1532.88 2647.99,-1580.3"/>
<polygon fill="#379469" stroke="#379469" points="2638.42,-1582.85 2646.92,-1575.92 2642.07,-1581.88 2648.08,-1580.27 2648.08,-1580.27 2648.08,-1580.27 2642.07,-1581.88 2649.24,-1584.62 2638.42,-1582.85"/>
</g>
<!-- 54146 -->
<g id="node40" class="node">
<title>54146</title>
<polygon fill="none" stroke="#379469" points="2913.3,-1656.51 2913.3,-1671.42 2814.21,-1681.96 2674.09,-1681.96 2575,-1671.42 2575,-1656.51 2674.09,-1645.96 2814.21,-1645.96 2913.3,-1656.51"/>
<text text-anchor="middle" x="2744.15" y="-1658.91" font-family="Times,serif" font-size="14.00">OpenLDAP Public License Version 2.3</text>
</g>
<!-- 54146&#45;&gt;54141 -->
<g id="edge55" class="edge">
<title>54146&#45;&gt;54141</title>
<path fill="none" stroke="#379469" stroke-dasharray="5,2" d="M2672.74,-1645.69C2661.18,-1642.03 2647.37,-1637.38 2628.89,-1630.99"/>
<polygon fill="#379469" stroke="#379469" points="2619.61,-1627.77 2630.53,-1626.79 2623.18,-1629.01 2629.05,-1631.04 2629.05,-1631.04 2629.05,-1631.04 2623.18,-1629.01 2627.58,-1635.3 2619.61,-1627.77"/>
</g>
<!-- 54147 -->
<g id="node41" class="node">
<title>54147</title>
<polygon fill="none" stroke="#379469" points="3748.74,-1590.43 3748.74,-1605.34 3530.23,-1615.89 3221.22,-1615.89 3002.71,-1605.34 3002.71,-1590.43 3221.22,-1579.89 3530.23,-1579.89 3748.74,-1590.43"/>
<text text-anchor="middle" x="3375.72" y="-1592.84" font-family="Times,serif" font-size="14.00">THIS WORK IS SUBJECT TO VERSION 2.3 OF THE OPENLDAP PUBLIC LICENSE</text>
</g>
<!-- 54147&#45;&gt;54141 -->
<g id="edge56" class="edge">
<title>54147&#45;&gt;54141</title>
<path fill="none" stroke="#379469" stroke-dasharray="5,2" d="M3279.96,-1616.34C3134.97,-1642.61 3062.95,-1642.46 2738.14,-1618.69"/>
<polygon fill="#379469" stroke="#379469" points="2728.19,-1617.96 2738.49,-1614.2 2731.96,-1618.23 2738.16,-1618.69 2738.16,-1618.69 2738.16,-1618.69 2731.96,-1618.23 2737.83,-1623.18 2728.19,-1617.96"/>
</g>
<!-- 59268 -->
<g id="node42" class="node">
<title>59268</title>
<text text-anchor="start" x="1519.73" y="-1365.66" font-family="Times,serif" font-size="14.00">HermineLicense: </text>
<text text-anchor="start" x="1617.23" y="-1365.66" font-family="Times,serif" font-weight="bold" font-size="14.00" fill="#228b22">FOSS &#45; deduced</text>
</g>
<!-- 59268&#45;&gt;59440 -->
<g id="edge57" class="edge">
<title>59268&#45;&gt;59440</title>
<path fill="none" stroke="#dc574a" d="M1597.86,-1351.71C1597.79,-1351.63 1597.72,-1351.54 1597.65,-1351.45"/>
<polygon fill="#dc574a" stroke="#dc574a" points="1601.83,-1351.43 1593.38,-1345.03 1595.99,-1355.3 1601.83,-1351.43"/>
</g>
<!-- 59440&#45;&gt;3803 -->
<g id="edge58" class="edge">
<title>59440&#45;&gt;3803</title>
<path fill="none" stroke="#dc574a" d="M1636.47,-1286.81C1684.96,-1260.69 1718.43,-1251.5 1830.64,-1231.98"/>
<polygon fill="#dc574a" stroke="#dc574a" points="1831,-1235.47 1840.26,-1230.32 1829.81,-1228.57 1831,-1235.47"/>
</g>
<!-- 61200&#45;&gt;61201 -->
<g id="edge59" class="edge">
<title>61200&#45;&gt;61201</title>
<path fill="none" stroke="#dac767" d="M1030.77,-1080.04C1063.56,-878.9 1072.98,-859.67 1235.24,-735.25"/>
<polygon fill="#dac767" stroke="#dac767" points="1237.09,-738.24 1242.9,-729.38 1232.83,-732.69 1237.09,-738.24"/>
</g>
<!-- 68181 -->
<g id="node46" class="node">
<title>68181</title>
<ellipse fill="none" stroke="#00876c" cx="1913.1" cy="-1547.86" rx="157.68" ry="28.99"/>
<text text-anchor="middle" x="1913.1" y="-1551.06" font-family="Times,serif" font-size="14.00" fill="gray">LicenseLynx</text>
<text text-anchor="middle" x="1913.1" y="-1534.56" font-family="Times,serif" font-size="14.00" fill="gray">90a33bfd49d9143614cf2809db5836fc</text>
</g>
<!-- 68181&#45;&gt;3803 -->
<g id="edge60" class="edge">
<title>68181&#45;&gt;3803</title>
<path fill="none" stroke="#00876c" d="M1923.12,-1518.52C1947.7,-1444.77 1947.75,-1421.87 1933.31,-1252.86"/>
<polygon fill="#00876c" stroke="#00876c" points="1936.81,-1252.69 1932.47,-1243.02 1929.84,-1253.28 1936.81,-1252.69"/>
</g>
<!-- 68182&#45;&gt;3803 -->
<g id="edge61" class="edge">
<title>68182&#45;&gt;3803</title>
<path fill="none" stroke="#00876c" stroke-width="2" d="M2243.01,-1483.59C2180.57,-1396.56 2162.39,-1380.61 1975.82,-1247.69"/>
<polygon fill="#00876c" stroke="#00876c" stroke-width="2" points="1968.79,-1242.69 1979.55,-1244.82 1971.17,-1243.77 1977.23,-1248.08 1976.94,-1248.49 1976.65,-1248.9 1970.59,-1244.58 1974.33,-1252.16 1968.79,-1242.69"/>
</g>
<!-- 68183&#45;&gt;3803 -->
<g id="edge62" class="edge">
<title>68183&#45;&gt;3803</title>
<path fill="none" stroke="#00876c" stroke-width="2" d="M2024.94,-847.99C2009.85,-941.91 2004.65,-961.75 1940.91,-1178.32"/>
<polygon fill="#00876c" stroke="#00876c" stroke-width="2" points="1938.52,-1186.45 1937.03,-1175.58 1938.76,-1183.85 1940.86,-1176.71 1941.34,-1176.85 1941.82,-1177 1939.72,-1184.13 1945.66,-1178.13 1938.52,-1186.45"/>
</g>
</g>
</svg>
