<?xml version="1.0" encoding="UTF-8" standalone="no"?>
<!DOCTYPE svg PUBLIC "-//W3C//DTD SVG 1.1//EN"
 "http://www.w3.org/Graphics/SVG/1.1/DTD/svg11.dtd">
<!-- Generated by graphviz version 10.0.1 (0)
 -->
<!-- Pages: 1 -->
<svg width="1941pt" height="2400pt"
 viewBox="0.00 0.00 1941.00 2400.00" xmlns="http://www.w3.org/2000/svg" xmlns:xlink="http://www.w3.org/1999/xlink">
<g id="graph0" class="graph" transform="scale(1 1) rotate(0) translate(4 2396)">
<polygon fill="white" stroke="none" points="-4,4 -4,-2396 1937,-2396 1937,4 -4,4"/>
<!-- 3431 -->
<g id="node1" class="node">
<title>3431</title>
<ellipse fill="none" stroke="#b8bf62" cx="1626.74" cy="-1271.26" rx="160.87" ry="28.99"/>
<text text-anchor="middle" x="1626.74" y="-1274.46" font-family="Times,serif" font-size="14.00" fill="gray">SPDXLicense</text>
<text text-anchor="middle" x="1626.74" y="-1257.96" font-family="Times,serif" font-size="14.00" fill="gray">a8856673e89d51c49396754cc479dcd9</text>
</g>
<!-- 3432 -->
<g id="node2" class="node">
<title>3432</title>
<polygon fill="none" stroke="black" points="1321.76,-1299.39 1321.76,-1314.3 1273.3,-1324.84 1204.77,-1324.84 1156.31,-1314.3 1156.31,-1299.39 1204.77,-1288.84 1273.3,-1288.84 1321.76,-1299.39"/>
<polygon fill="none" stroke="black" points="1325.76,-1296.17 1325.76,-1317.52 1273.73,-1328.84 1204.34,-1328.84 1152.31,-1317.52 1152.31,-1296.17 1204.34,-1284.84 1273.73,-1284.84 1325.76,-1296.17"/>
<polygon fill="none" stroke="black" points="1329.76,-1292.94 1329.76,-1320.75 1274.16,-1332.84 1203.91,-1332.84 1148.31,-1320.75 1148.31,-1292.94 1203.91,-1280.84 1274.16,-1280.84 1329.76,-1292.94"/>
<text text-anchor="middle" x="1239.03" y="-1301.79" font-family="Times,serif" font-size="14.00">spdx:OLDAP&#45;2.4</text>
</g>
<!-- 3431&#45;&gt;3432 -->
<g id="edge1" class="edge">
<title>3431&#45;&gt;3432</title>
<path fill="none" stroke="#b8bf62" d="M1531.48,-1295.06C1489.38,-1302.47 1443.17,-1304.46 1341.39,-1305.78"/>
<polygon fill="#b8bf62" stroke="#b8bf62" points="1341.51,-1302.27 1331.55,-1305.9 1341.59,-1309.27 1341.51,-1302.27"/>
</g>
<!-- 46402 -->
<g id="node18" class="node">
<title>46402</title>
<polygon fill="none" stroke="#00876c" points="1383.62,-708.02 1383.62,-722.93 1276.74,-733.47 1125.6,-733.47 1018.73,-722.93 1018.73,-708.02 1125.6,-697.47 1276.74,-697.47 1383.62,-708.02"/>
<polygon fill="none" stroke="#00876c" points="1387.62,-704.39 1387.62,-726.55 1276.94,-737.47 1125.41,-737.47 1014.73,-726.55 1014.73,-704.39 1125.41,-693.47 1276.94,-693.47 1387.62,-704.39"/>
<text text-anchor="middle" x="1201.17" y="-710.42" font-family="Times,serif" font-size="14.00">metaeffekt:OpenLDAP Public License 2.4</text>
</g>
<!-- 3432&#45;&gt;46402 -->
<g id="edge2" class="edge">
<title>3432&#45;&gt;46402</title>
<path fill="none" stroke="#00876c" stroke-width="2" d="M1244.58,-1280.47C1312.17,-958.58 1313.14,-937.21 1217.5,-747.68"/>
<polygon fill="#00876c" stroke="#00876c" stroke-width="2" points="1213.67,-740.11 1222.2,-747.01 1215.27,-742.17 1218.63,-748.81 1218.18,-749.04 1217.74,-749.26 1214.38,-742.62 1214.17,-751.07 1213.67,-740.11"/>
</g>
<!-- 3433 -->
<g id="node3" class="node">
<title>3433</title>
<polygon fill="none" stroke="black" points="1085.48,-1620.96 1085.48,-1635.87 1049.67,-1646.41 999.04,-1646.41 963.23,-1635.87 963.23,-1620.96 999.04,-1610.41 1049.67,-1610.41 1085.48,-1620.96"/>
<polygon fill="none" stroke="black" points="1089.48,-1617.96 1089.48,-1638.86 1050.25,-1650.41 998.46,-1650.41 959.23,-1638.86 959.23,-1617.96 998.46,-1606.41 1050.25,-1606.41 1089.48,-1617.96"/>
<text text-anchor="middle" x="1024.35" y="-1623.36" font-family="Times,serif" font-size="14.00">OLDAP&#45;2.4</text>
</g>
<!-- 3433&#45;&gt;3432 -->
<g id="edge3" class="edge">
<title>3433&#45;&gt;3432</title>
<path fill="none" stroke="black" stroke-width="2" d="M1056.33,-1607.79C1165.02,-1537.04 1176.08,-1518.25 1228.03,-1343.92"/>
<polygon fill="black" stroke="black" stroke-width="2" points="1230.49,-1335.66 1231.96,-1346.52 1230.24,-1338.25 1228.12,-1345.38 1227.64,-1345.24 1227.16,-1345.1 1229.28,-1337.97 1223.33,-1343.96 1230.49,-1335.66"/>
</g>
<!-- 8945 -->
<g id="node6" class="node">
<title>8945</title>
<polygon fill="none" stroke="#00876c" points="1247.63,-1961.04 1247.63,-1975.95 1189.43,-1986.49 1107.13,-1986.49 1048.93,-1975.95 1048.93,-1961.04 1107.13,-1950.49 1189.43,-1950.49 1247.63,-1961.04"/>
<polygon fill="none" stroke="#00876c" points="1251.63,-1957.7 1251.63,-1979.29 1189.79,-1990.49 1106.77,-1990.49 1044.93,-1979.29 1044.93,-1957.7 1106.77,-1946.49 1189.79,-1946.49 1251.63,-1957.7"/>
<text text-anchor="middle" x="1148.28" y="-1963.44" font-family="Times,serif" font-size="14.00">BlueOak:OLDAP&#45;2.4</text>
</g>
<!-- 3433&#45;&gt;8945 -->
<g id="edge4" class="edge">
<title>3433&#45;&gt;8945</title>
<path fill="none" stroke="#00876c" stroke-width="2" d="M1031.37,-1650.64C1091.84,-1842.16 1100.53,-1868.45 1132.78,-1936.25"/>
<polygon fill="#00876c" stroke="#00876c" stroke-width="2" points="1136.44,-1943.91 1128.07,-1936.83 1134.88,-1941.82 1131.68,-1935.11 1132.13,-1934.89 1132.58,-1934.68 1135.79,-1941.39 1136.19,-1932.95 1136.44,-1943.91"/>
</g>
<!-- 27058 -->
<g id="node12" class="node">
<title>27058</title>
<polygon fill="none" stroke="#e18745" points="846.88,-1797.48 846.88,-1812.39 786.74,-1822.93 701.69,-1822.93 641.54,-1812.39 641.54,-1797.48 701.69,-1786.93 786.74,-1786.93 846.88,-1797.48"/>
<polygon fill="none" stroke="#e18745" points="850.88,-1794.12 850.88,-1815.75 787.09,-1826.93 701.34,-1826.93 637.54,-1815.75 637.54,-1794.12 701.34,-1782.93 787.09,-1782.93 850.88,-1794.12"/>
<text text-anchor="middle" x="744.21" y="-1799.88" font-family="Times,serif" font-size="14.00">fossology:OLDAP&#45;2.4</text>
</g>
<!-- 3433&#45;&gt;27058 -->
<g id="edge5" class="edge">
<title>3433&#45;&gt;27058</title>
<path fill="none" stroke="#e18745" stroke-width="2" d="M1002.57,-1650.66C914.45,-1740.51 883.63,-1769.48 833.64,-1785.73"/>
<polygon fill="#e18745" stroke="#e18745" stroke-width="2" points="825.34,-1788.23 833.62,-1781.04 827.65,-1787.01 834.77,-1784.87 834.92,-1785.35 835.06,-1785.83 827.94,-1787.97 836.21,-1789.66 825.34,-1788.23"/>
</g>
<!-- 37348 -->
<g id="node16" class="node">
<title>37348</title>
<polygon fill="none" stroke="#379469" points="1033.73,-1796.06 1033.73,-1810.97 984.94,-1821.51 915.95,-1821.51 867.16,-1810.97 867.16,-1796.06 915.95,-1785.51 984.94,-1785.51 1033.73,-1796.06"/>
<polygon fill="none" stroke="#379469" points="1037.73,-1792.83 1037.73,-1814.19 985.37,-1825.51 915.52,-1825.51 863.16,-1814.19 863.16,-1792.83 915.52,-1781.51 985.37,-1781.51 1037.73,-1792.83"/>
<text text-anchor="middle" x="950.44" y="-1798.46" font-family="Times,serif" font-size="14.00">cavil:OLDAP&#45;2.4</text>
</g>
<!-- 3433&#45;&gt;37348 -->
<g id="edge6" class="edge">
<title>3433&#45;&gt;37348</title>
<path fill="none" stroke="#379469" stroke-width="2" d="M1018.02,-1650.84C996.85,-1725.59 989.81,-1747.8 973.87,-1771.95"/>
<polygon fill="#379469" stroke="#379469" stroke-width="2" points="968.95,-1779.03 970.96,-1768.25 970,-1776.64 974.24,-1770.54 974.65,-1770.82 975.06,-1771.11 970.82,-1777.22 978.35,-1773.39 968.95,-1779.03"/>
</g>
<!-- 51037 -->
<g id="node28" class="node">
<title>51037</title>
<polygon fill="none" stroke="#dac767" points="817.01,-1702.34 817.01,-1717.25 710.79,-1727.8 560.56,-1727.8 454.34,-1717.25 454.34,-1702.34 560.56,-1691.8 710.79,-1691.8 817.01,-1702.34"/>
<polygon fill="none" stroke="#dac767" points="821.01,-1698.72 821.01,-1720.88 710.98,-1731.8 560.37,-1731.8 450.34,-1720.88 450.34,-1698.72 560.37,-1687.8 710.98,-1687.8 821.01,-1698.72"/>
<text text-anchor="middle" x="635.68" y="-1704.75" font-family="Times,serif" font-size="14.00">fosslight:Open LDAP Public License v2.4</text>
</g>
<!-- 3433&#45;&gt;51037 -->
<g id="edge7" class="edge">
<title>3433&#45;&gt;51037</title>
<path fill="none" stroke="#dac767" stroke-width="2" d="M988.47,-1647.79C864.77,-1714.4 821.15,-1734.59 754.19,-1730"/>
<polygon fill="#dac767" stroke="#dac767" stroke-width="2" points="745.66,-1729.27 756.01,-1725.64 748.25,-1728.99 755.66,-1729.63 755.62,-1730.13 755.58,-1730.62 748.17,-1729.98 755.23,-1734.61 745.66,-1729.27"/>
</g>
<!-- 3434 -->
<g id="node4" class="node">
<title>3434</title>
<polygon fill="none" stroke="black" points="1270.8,-1675.63 1270.8,-1690.54 1186.32,-1701.08 1066.84,-1701.08 982.36,-1690.54 982.36,-1675.63 1066.84,-1665.08 1186.32,-1665.08 1270.8,-1675.63"/>
<polygon fill="none" stroke="black" points="1274.8,-1672.1 1274.8,-1694.07 1186.57,-1705.08 1066.6,-1705.08 978.36,-1694.07 978.36,-1672.1 1066.6,-1661.08 1186.57,-1661.08 1274.8,-1672.1"/>
<text text-anchor="middle" x="1126.58" y="-1678.03" font-family="Times,serif" font-size="14.00">Open LDAP Public License v2.4</text>
</g>
<!-- 3434&#45;&gt;3432 -->
<g id="edge8" class="edge">
<title>3434&#45;&gt;3432</title>
<path fill="none" stroke="black" stroke-width="2" d="M1144.85,-1660.79C1224.22,-1563.3 1229.17,-1544.54 1237.51,-1344.1"/>
<polygon fill="black" stroke="black" stroke-width="2" points="1237.86,-1335.6 1241.95,-1345.77 1238.26,-1338.18 1237.95,-1345.61 1237.45,-1345.59 1236.95,-1345.57 1237.26,-1338.14 1232.95,-1345.4 1237.86,-1335.6"/>
</g>
<!-- 3434&#45;&gt;8945 -->
<g id="edge9" class="edge">
<title>3434&#45;&gt;8945</title>
<path fill="none" stroke="#00876c" stroke-width="2" d="M1129.49,-1705.39C1148.97,-1854.72 1151.79,-1879.56 1149.75,-1935.18"/>
<polygon fill="#00876c" stroke="#00876c" stroke-width="2" points="1149.4,-1943.93 1145.31,-1933.75 1149,-1941.35 1149.3,-1933.91 1149.8,-1933.93 1150.3,-1933.95 1150,-1941.39 1154.3,-1934.12 1149.4,-1943.93"/>
</g>
<!-- 3434&#45;&gt;27058 -->
<g id="edge10" class="edge">
<title>3434&#45;&gt;27058</title>
<path fill="none" stroke="#e18745" stroke-width="2" d="M1095.39,-1705.53C977.57,-1790.12 938.78,-1813.83 862.23,-1813.89"/>
<polygon fill="#e18745" stroke="#e18745" stroke-width="2" points="853.61,-1813.78 863.67,-1809.41 856.18,-1813.31 863.61,-1813.41 863.61,-1813.91 863.6,-1814.41 856.16,-1814.31 863.55,-1818.41 853.61,-1813.78"/>
</g>
<!-- 3434&#45;&gt;51037 -->
<g id="edge11" class="edge">
<title>3434&#45;&gt;51037</title>
<path fill="none" stroke="#dac767" stroke-width="2" d="M1073.04,-1705.55C890.09,-1781.78 854.94,-1787.18 708.03,-1735.87"/>
<polygon fill="#dac767" stroke="#dac767" stroke-width="2" points="700.02,-1733.05 710.95,-1732.13 702.6,-1733.43 709.62,-1735.9 709.45,-1736.37 709.29,-1736.85 702.27,-1734.38 707.96,-1740.62 700.02,-1733.05"/>
</g>
<!-- 8944 -->
<g id="node5" class="node">
<title>8944</title>
<ellipse fill="none" stroke="#00876c" cx="1251.99" cy="-2363.14" rx="156.62" ry="28.99"/>
<text text-anchor="middle" x="1251.99" y="-2366.34" font-family="Times,serif" font-size="14.00" fill="gray">BlueOakCouncil</text>
<text text-anchor="middle" x="1251.99" y="-2349.84" font-family="Times,serif" font-size="14.00" fill="gray">e0ce3be54df8e5c40babf42dd0d48e1d</text>
</g>
<!-- 8944&#45;&gt;8945 -->
<g id="edge12" class="edge">
<title>8944&#45;&gt;8945</title>
<path fill="none" stroke="#00876c" d="M1243.88,-2333.91C1219.83,-2247.1 1213.45,-2222.52 1156.81,-2001.75"/>
<polygon fill="#00876c" stroke="#00876c" points="1160.24,-2001.02 1154.36,-1992.21 1153.46,-2002.76 1160.24,-2001.02"/>
</g>
<!-- 21434 -->
<g id="node7" class="node">
<title>21434</title>
<ellipse fill="none" stroke="#dac767" cx="1151.01" cy="-29.06" rx="159.28" ry="28.99"/>
<text text-anchor="middle" x="1151.01" y="-32.26" font-family="Times,serif" font-size="14.00" fill="gray">ScancodeData</text>
<text text-anchor="middle" x="1151.01" y="-15.76" font-family="Times,serif" font-size="14.00" fill="gray">667221d9a82d053e529e4d8d9d26df8f</text>
</g>
<!-- 21435 -->
<g id="node8" class="node">
<title>21435</title>
<polygon fill="none" stroke="black" points="971.54,-317.85 971.54,-332.77 910.75,-343.31 824.77,-343.31 763.98,-332.77 763.98,-317.85 824.77,-307.31 910.75,-307.31 971.54,-317.85"/>
<polygon fill="none" stroke="black" points="975.54,-314.49 975.54,-336.13 911.09,-347.31 824.43,-347.31 759.98,-336.13 759.98,-314.49 824.43,-303.31 911.09,-303.31 975.54,-314.49"/>
<text text-anchor="middle" x="867.76" y="-320.26" font-family="Times,serif" font-size="14.00">scancode:openldap&#45;2.4</text>
</g>
<!-- 21434&#45;&gt;21435 -->
<g id="edge13" class="edge">
<title>21434&#45;&gt;21435</title>
<path fill="none" stroke="#dac767" d="M1094.98,-56.54C1014.16,-98.42 992.45,-127.91 887.82,-293.52"/>
<polygon fill="#dac767" stroke="#dac767" points="884.98,-291.46 882.6,-301.78 890.9,-295.2 884.98,-291.46"/>
</g>
<!-- 21435&#45;&gt;46402 -->
<g id="edge14" class="edge">
<title>21435&#45;&gt;46402</title>
<path fill="none" stroke="#00876c" stroke-dasharray="5,2" d="M910.11,-347.7C1040.34,-417.51 1057.11,-442.07 1184.19,-683.23"/>
<polygon fill="#00876c" stroke="#00876c" points="1188.78,-691.93 1180.14,-685.18 1187.02,-688.58 1184.12,-683.08 1184.12,-683.08 1184.12,-683.08 1187.02,-688.58 1188.1,-680.98 1188.78,-691.93"/>
</g>
<!-- 21436 -->
<g id="node9" class="node">
<title>21436</title>
<polygon fill="none" stroke="black" points="727.92,-69.43 727.92,-84.34 690.17,-94.89 636.78,-94.89 599.03,-84.34 599.03,-69.43 636.78,-58.89 690.17,-58.89 727.92,-69.43"/>
<polygon fill="none" stroke="black" points="731.92,-66.39 731.92,-87.38 690.71,-98.89 636.23,-98.89 595.03,-87.38 595.03,-66.39 636.23,-54.89 690.71,-54.89 731.92,-66.39"/>
<text text-anchor="middle" x="663.47" y="-71.84" font-family="Times,serif" font-size="14.00">openldap&#45;2.4</text>
</g>
<!-- 21436&#45;&gt;21435 -->
<g id="edge15" class="edge">
<title>21436&#45;&gt;21435</title>
<path fill="none" stroke="black" stroke-width="2" d="M694.44,-98.31C750.67,-138.28 765.88,-159.5 848.22,-293.48"/>
<polygon fill="black" stroke="black" stroke-width="2" points="852.73,-300.82 843.66,-294.66 850.96,-298.9 847.07,-292.56 847.5,-292.3 847.92,-292.04 851.82,-298.38 851.33,-289.95 852.73,-300.82"/>
</g>
<!-- 21437 -->
<g id="node10" class="node">
<title>21437</title>
<polygon fill="none" stroke="black" points="1088.36,-265.35 1088.36,-280.26 1008.42,-290.8 895.37,-290.8 815.44,-280.26 815.44,-265.35 895.37,-254.8 1008.42,-254.8 1088.36,-265.35"/>
<polygon fill="none" stroke="black" points="1092.36,-261.84 1092.36,-283.77 1008.69,-294.8 895.11,-294.8 811.44,-283.77 811.44,-261.84 895.11,-250.8 1008.69,-250.8 1092.36,-261.84"/>
<text text-anchor="middle" x="951.9" y="-267.75" font-family="Times,serif" font-size="14.00">OpenLDAP Public License 2.4</text>
</g>
<!-- 21437&#45;&gt;21435 -->
<g id="edge16" class="edge">
<title>21437&#45;&gt;21435</title>
<path fill="none" stroke="#dac767" stroke-width="2" d="M895.52,-295.1C895.38,-295.24 895.23,-295.38 895.08,-295.53"/>
<polygon fill="#dac767" stroke="#dac767" stroke-width="2" points="889.68,-301.09 893.42,-290.78 891.11,-298.9 896.29,-293.57 896.65,-293.92 897.01,-294.26 891.82,-299.6 899.88,-297.05 889.68,-301.09"/>
</g>
<!-- 21437&#45;&gt;46402 -->
<g id="edge17" class="edge">
<title>21437&#45;&gt;46402</title>
<path fill="none" stroke="#00876c" stroke-width="2" d="M977.72,-295.12C1088.4,-391.36 1098.74,-413.21 1190.04,-682.59"/>
<polygon fill="#00876c" stroke="#00876c" stroke-width="2" points="1192.82,-690.8 1185.35,-682.77 1191.52,-688.53 1189.14,-681.49 1189.61,-681.33 1190.08,-681.17 1192.47,-688.21 1193.87,-679.89 1192.82,-690.8"/>
</g>
<!-- 27057 -->
<g id="node11" class="node">
<title>27057</title>
<ellipse fill="none" stroke="#e18745" cx="490.16" cy="-2131.35" rx="156.62" ry="28.99"/>
<text text-anchor="middle" x="490.16" y="-2134.55" font-family="Times,serif" font-size="14.00" fill="gray">Fossology</text>
<text text-anchor="middle" x="490.16" y="-2118.05" font-family="Times,serif" font-size="14.00" fill="gray">0a3bdd36748bafd7a8417f23254f3dcc</text>
</g>
<!-- 27057&#45;&gt;27058 -->
<g id="edge18" class="edge">
<title>27057&#45;&gt;27058</title>
<path fill="none" stroke="#e18745" d="M520.28,-2102.73C582.02,-2043.31 600.66,-2017.4 722.87,-1836.53"/>
<polygon fill="#e18745" stroke="#e18745" points="725.6,-1838.74 728.3,-1828.49 719.8,-1834.82 725.6,-1838.74"/>
</g>
<!-- 27265 -->
<g id="node13" class="node">
<title>27265</title>
<polygon fill="none" stroke="black" points="1518.65,-558.16 1518.65,-573.07 1492.25,-583.61 1454.93,-583.61 1428.53,-573.07 1428.53,-558.16 1454.93,-547.61 1492.25,-547.61 1518.65,-558.16"/>
<text text-anchor="middle" x="1473.59" y="-560.56" font-family="Times,serif" font-size="14.00">OLDAP</text>
</g>
<!-- 27265&#45;&gt;46402 -->
<g id="edge19" class="edge">
<title>27265&#45;&gt;46402</title>
<path fill="none" stroke="#00876c" stroke-dasharray="5,2" d="M1432.78,-575.25C1374.19,-590.22 1350.33,-605.14 1240.16,-686.58"/>
<polygon fill="#00876c" stroke="#00876c" points="1232.35,-692.36 1237.72,-682.8 1235.39,-690.11 1240.39,-686.41 1240.39,-686.41 1240.39,-686.41 1235.39,-690.11 1243.07,-690.03 1232.35,-692.36"/>
</g>
<!-- 35143 -->
<g id="node14" class="node">
<title>35143</title>
<ellipse fill="none" stroke="#e06f45" cx="1503.26" cy="-1593.29" rx="154.5" ry="28.99"/>
<text text-anchor="middle" x="1503.26" y="-1596.49" font-family="Times,serif" font-size="14.00" fill="gray">OrtLicenseCategorization</text>
<text text-anchor="middle" x="1503.26" y="-1579.99" font-family="Times,serif" font-size="14.00" fill="gray">c79f0bef2faa14ef0687d81d346688dc</text>
</g>
<!-- 35143&#45;&gt;3432 -->
<g id="edge20" class="edge">
<title>35143&#45;&gt;3432</title>
<path fill="none" stroke="#e06f45" d="M1484.24,-1564.15C1438.56,-1494.92 1419.16,-1474.89 1275.47,-1340.82"/>
<polygon fill="#e06f45" stroke="#e06f45" points="1277.99,-1338.39 1268.3,-1334.12 1273.22,-1343.51 1277.99,-1338.39"/>
</g>
<!-- 37347 -->
<g id="node15" class="node">
<title>37347</title>
<ellipse fill="none" stroke="#379469" cx="978.47" cy="-1864.54" rx="156.62" ry="28.99"/>
<text text-anchor="middle" x="978.47" y="-1867.74" font-family="Times,serif" font-size="14.00" fill="gray">CavilLicenseChange</text>
<text text-anchor="middle" x="978.47" y="-1851.24" font-family="Times,serif" font-size="14.00" fill="gray">82991ef4ba144b8a99eb1e040143fbdf</text>
</g>
<!-- 37347&#45;&gt;37348 -->
<g id="edge21" class="edge">
<title>37347&#45;&gt;37348</title>
<path fill="none" stroke="#379469" d="M960.85,-1835.23C960.82,-1835.15 960.79,-1835.07 960.76,-1834.98"/>
<polygon fill="#379469" stroke="#379469" points="964.71,-1835.69 958.15,-1827.37 958.09,-1837.97 964.71,-1835.69"/>
</g>
<!-- 46401 -->
<g id="node17" class="node">
<title>46401</title>
<ellipse fill="none" stroke="#00876c" cx="1691.85" cy="-524.61" rx="159.28" ry="28.99"/>
<text text-anchor="middle" x="1691.85" y="-527.81" font-family="Times,serif" font-size="14.00" fill="gray">MetaeffektLicense</text>
<text text-anchor="middle" x="1691.85" y="-511.31" font-family="Times,serif" font-size="14.00" fill="gray">08ef64709d5bede6eb9be17944636bc4</text>
</g>
<!-- 46401&#45;&gt;46402 -->
<g id="edge22" class="edge">
<title>46401&#45;&gt;46402</title>
<path fill="none" stroke="#00876c" d="M1558.18,-540.67C1487.43,-556.28 1423.93,-590.07 1250.81,-687.51"/>
<polygon fill="#00876c" stroke="#00876c" points="1249.18,-684.4 1242.19,-692.36 1252.62,-690.5 1249.18,-684.4"/>
</g>
<!-- 46403 -->
<g id="node19" class="node">
<title>46403</title>
<polygon fill="none" stroke="#00876c" points="826.41,-769.17 826.41,-784.08 770.81,-794.63 692.18,-794.63 636.59,-784.08 636.59,-769.17 692.18,-758.63 770.81,-758.63 826.41,-769.17"/>
<text text-anchor="middle" x="731.5" y="-771.58" font-family="Times,serif" font-size="14.00">OLDAP, Version 2.4</text>
</g>
<!-- 46403&#45;&gt;46402 -->
<g id="edge23" class="edge">
<title>46403&#45;&gt;46402</title>
<path fill="none" stroke="#00876c" stroke-dasharray="5,2" d="M766.14,-758.17C934.77,-668.58 969.91,-656.45 1108.76,-690.9"/>
<polygon fill="#00876c" stroke="#00876c" points="1118.2,-693.27 1107.41,-695.2 1114.54,-692.35 1108.51,-690.83 1108.51,-690.83 1108.51,-690.83 1114.54,-692.35 1109.6,-686.47 1118.2,-693.27"/>
</g>
<!-- 46404 -->
<g id="node20" class="node">
<title>46404</title>
<polygon fill="none" stroke="#00876c" points="1202.1,-357.63 1202.1,-372.54 1165.65,-383.08 1114.1,-383.08 1077.64,-372.54 1077.64,-357.63 1114.1,-347.08 1165.65,-347.08 1202.1,-357.63"/>
<text text-anchor="middle" x="1139.87" y="-360.03" font-family="Times,serif" font-size="14.00">OLDAP, 2.4</text>
</g>
<!-- 46404&#45;&gt;46402 -->
<g id="edge24" class="edge">
<title>46404&#45;&gt;46402</title>
<path fill="none" stroke="#00876c" stroke-dasharray="5,2" d="M1148.72,-383.46C1189.5,-468.65 1192.07,-485.46 1199.86,-682.07"/>
<polygon fill="#00876c" stroke="#00876c" points="1200.25,-691.89 1195.36,-682.08 1200.1,-688.11 1199.85,-681.9 1199.85,-681.9 1199.85,-681.9 1200.1,-688.11 1204.35,-681.72 1200.25,-691.89"/>
</g>
<!-- 46405 -->
<g id="node21" class="node">
<title>46405</title>
<polygon fill="none" stroke="#00876c" points="1654.7,-350.98 1654.7,-365.89 1578.98,-376.44 1471.89,-376.44 1396.17,-365.89 1396.17,-350.98 1471.89,-340.44 1578.98,-340.44 1654.7,-350.98"/>
<text text-anchor="middle" x="1525.44" y="-353.39" font-family="Times,serif" font-size="14.00">OLDAP License, Version 2.4</text>
</g>
<!-- 46405&#45;&gt;46402 -->
<g id="edge25" class="edge">
<title>46405&#45;&gt;46402</title>
<path fill="none" stroke="#00876c" stroke-dasharray="5,2" d="M1503.86,-376.87C1416.16,-452.04 1399.93,-470.57 1226.46,-684.31"/>
<polygon fill="#00876c" stroke="#00876c" points="1220.19,-692.04 1223,-681.44 1222.57,-689.1 1226.49,-684.27 1226.49,-684.27 1226.49,-684.27 1222.57,-689.1 1229.99,-687.11 1220.19,-692.04"/>
</g>
<!-- 46406 -->
<g id="node22" class="node">
<title>46406</title>
<polygon fill="none" stroke="#00876c" points="1439.52,-304.05 1439.52,-318.96 1382.95,-329.5 1302.94,-329.5 1246.37,-318.96 1246.37,-304.05 1302.94,-293.5 1382.95,-293.5 1439.52,-304.05"/>
<text text-anchor="middle" x="1342.95" y="-306.45" font-family="Times,serif" font-size="14.00">OLDAP License, 2.4</text>
</g>
<!-- 46406&#45;&gt;46402 -->
<g id="edge26" class="edge">
<title>46406&#45;&gt;46402</title>
<path fill="none" stroke="#00876c" stroke-dasharray="5,2" d="M1337.64,-329.79C1308.08,-431.56 1302.06,-448.5 1213.48,-682.9"/>
<polygon fill="#00876c" stroke="#00876c" points="1210.05,-692 1209.37,-681.05 1211.38,-688.46 1213.58,-682.64 1213.58,-682.64 1213.58,-682.64 1211.38,-688.46 1217.79,-684.23 1210.05,-692"/>
</g>
<!-- 46407 -->
<g id="node23" class="node">
<title>46407</title>
<polygon fill="none" stroke="#00876c" points="1932.6,-716.46 1932.6,-731.37 1833.52,-741.91 1693.39,-741.91 1594.3,-731.37 1594.3,-716.46 1693.39,-705.91 1833.52,-705.91 1932.6,-716.46"/>
<text text-anchor="middle" x="1763.45" y="-718.86" font-family="Times,serif" font-size="14.00">OpenLDAP Public License Version 2.4</text>
</g>
<!-- 46407&#45;&gt;46402 -->
<g id="edge27" class="edge">
<title>46407&#45;&gt;46402</title>
<path fill="none" stroke="#00876c" stroke-dasharray="5,2" d="M1717.8,-705.52C1581.97,-651.64 1543.73,-649.06 1313.36,-693.43"/>
<polygon fill="#00876c" stroke="#00876c" points="1303.8,-695.28 1312.76,-688.96 1307.51,-694.56 1313.61,-693.38 1313.61,-693.38 1313.61,-693.38 1307.51,-694.56 1314.47,-697.8 1303.8,-695.28"/>
</g>
<!-- 46408 -->
<g id="node24" class="node">
<title>46408</title>
<polygon fill="none" stroke="#00876c" points="905.13,-600.59 905.13,-615.5 861.54,-626.05 799.89,-626.05 756.3,-615.5 756.3,-600.59 799.89,-590.05 861.54,-590.05 905.13,-600.59"/>
<text text-anchor="middle" x="830.71" y="-603" font-family="Times,serif" font-size="14.00">OpenLDAP 2.4</text>
</g>
<!-- 46408&#45;&gt;46402 -->
<g id="edge28" class="edge">
<title>46408&#45;&gt;46402</title>
<path fill="none" stroke="#00876c" stroke-dasharray="5,2" d="M903.6,-599.76C1015.25,-588.84 1043.92,-601.14 1161.52,-686.5"/>
<polygon fill="#00876c" stroke="#00876c" points="1169.54,-692.33 1158.8,-690.09 1166.48,-690.11 1161.45,-686.45 1161.45,-686.45 1161.45,-686.45 1166.48,-690.11 1164.1,-682.81 1169.54,-692.33"/>
</g>
<!-- 46409 -->
<g id="node25" class="node">
<title>46409</title>
<polygon fill="none" stroke="#00876c" points="1584.61,-763.03 1584.61,-777.94 1366.1,-788.48 1057.09,-788.48 838.59,-777.94 838.59,-763.03 1057.09,-752.48 1366.1,-752.48 1584.61,-763.03"/>
<text text-anchor="middle" x="1211.6" y="-765.43" font-family="Times,serif" font-size="14.00">THIS WORK IS SUBJECT TO VERSION 2.4 OF THE OPENLDAP PUBLIC LICENSE</text>
</g>
<!-- 46409&#45;&gt;46402 -->
<g id="edge29" class="edge">
<title>46409&#45;&gt;46402</title>
<path fill="none" stroke="#00876c" stroke-dasharray="5,2" d="M1211.53,-752.15C1211.51,-750.99 1211.49,-749.89 1211.46,-748.84"/>
<polygon fill="#00876c" stroke="#00876c" points="1210.76,-738.94 1215.95,-748.6 1211.02,-742.71 1211.46,-748.91 1211.46,-748.91 1211.46,-748.91 1211.02,-742.71 1206.97,-749.23 1210.76,-738.94"/>
</g>
<!-- 50056 -->
<g id="node26" class="node">
<title>50056</title>
<ellipse fill="none" stroke="#dc574a" cx="1606.92" cy="-1451.07" rx="156.62" ry="28.99"/>
<text text-anchor="middle" x="1606.92" y="-1454.27" font-family="Times,serif" font-size="14.00" fill="gray">HermineLicense</text>
<text text-anchor="middle" x="1606.92" y="-1437.77" font-family="Times,serif" font-size="14.00" fill="gray">f612abe0ed8ed9709e6b2363f897f952</text>
</g>
<!-- 50056&#45;&gt;3432 -->
<g id="edge30" class="edge">
<title>50056&#45;&gt;3432</title>
<path fill="none" stroke="#dc574a" d="M1538.51,-1424.62C1487.4,-1404.79 1443.92,-1387.68 1305.41,-1333.03"/>
<polygon fill="#dc574a" stroke="#dc574a" points="1306.82,-1329.83 1296.24,-1329.41 1304.26,-1336.34 1306.82,-1329.83"/>
</g>
<!-- 51036 -->
<g id="node27" class="node">
<title>51036</title>
<ellipse fill="none" stroke="#dac767" cx="158.31" cy="-1845.46" rx="158.75" ry="28.99"/>
<text text-anchor="middle" x="158.31" y="-1848.66" font-family="Times,serif" font-size="14.00" fill="gray">FOSSLight</text>
<text text-anchor="middle" x="158.31" y="-1832.16" font-family="Times,serif" font-size="14.00" fill="gray">0664a421ba5431015a609cabf80e729a</text>
</g>
<!-- 51036&#45;&gt;51037 -->
<g id="edge31" class="edge">
<title>51036&#45;&gt;51037</title>
<path fill="none" stroke="#dac767" d="M312.78,-1838.6C370.73,-1827.16 435.47,-1799.73 575.81,-1736.73"/>
<polygon fill="#dac767" stroke="#dac767" points="576.98,-1740.04 584.67,-1732.75 574.11,-1733.66 576.98,-1740.04"/>
</g>
</g>
</svg>
