<?xml version="1.0" encoding="UTF-8" standalone="no"?>
<!DOCTYPE svg PUBLIC "-//W3C//DTD SVG 1.1//EN"
 "http://www.w3.org/Graphics/SVG/1.1/DTD/svg11.dtd">
<!-- Generated by graphviz version 10.0.1 (0)
 -->
<!-- Pages: 1 -->
<svg width="2051pt" height="1494pt"
 viewBox="0.00 0.00 2051.00 1494.00" xmlns="http://www.w3.org/2000/svg" xmlns:xlink="http://www.w3.org/1999/xlink">
<g id="graph0" class="graph" transform="scale(1 1) rotate(0) translate(4 1490)">
<polygon fill="white" stroke="none" points="-4,4 -4,-1490 2047,-1490 2047,4 -4,4"/>
<!-- 3369 -->
<g id="node1" class="node">
<title>3369</title>
<ellipse fill="none" stroke="#b8bf62" cx="690.77" cy="-1062.9" rx="155.56" ry="28.99"/>
<text text-anchor="middle" x="690.77" y="-1066.1" font-family="Times,serif" font-size="14.00" fill="gray">SPDXLicense</text>
<text text-anchor="middle" x="690.77" y="-1049.6" font-family="Times,serif" font-size="14.00" fill="gray">ffc3c5249d2bb8a5ce7581ca837641f2</text>
</g>
<!-- 3370 -->
<g id="node2" class="node">
<title>3370</title>
<polygon fill="none" stroke="black" points="1112.72,-953.4 1112.72,-968.31 1064.26,-978.86 995.73,-978.86 947.27,-968.31 947.27,-953.4 995.73,-942.86 1064.26,-942.86 1112.72,-953.4"/>
<polygon fill="none" stroke="black" points="1116.72,-950.18 1116.72,-971.54 1064.69,-982.86 995.3,-982.86 943.27,-971.54 943.27,-950.18 995.3,-938.86 1064.69,-938.86 1116.72,-950.18"/>
<polygon fill="none" stroke="black" points="1120.72,-946.95 1120.72,-974.76 1065.12,-986.86 994.87,-986.86 939.27,-974.76 939.27,-946.95 994.87,-934.86 1065.12,-934.86 1120.72,-946.95"/>
<text text-anchor="middle" x="1029.99" y="-955.81" font-family="Times,serif" font-size="14.00">spdx:OLDAP&#45;1.4</text>
</g>
<!-- 3369&#45;&gt;3370 -->
<g id="edge1" class="edge">
<title>3369&#45;&gt;3370</title>
<path fill="none" stroke="#b8bf62" d="M840.88,-1054.97C873.42,-1044.06 912.44,-1024.28 975.49,-990.36"/>
<polygon fill="#b8bf62" stroke="#b8bf62" points="976.92,-993.56 984.06,-985.74 973.6,-987.4 976.92,-993.56"/>
</g>
<!-- 46466 -->
<g id="node18" class="node">
<title>46466</title>
<polygon fill="none" stroke="#00876c" points="1070.36,-464.84 1070.36,-479.75 963.48,-490.3 812.34,-490.3 705.47,-479.75 705.47,-464.84 812.34,-454.3 963.48,-454.3 1070.36,-464.84"/>
<polygon fill="none" stroke="#00876c" points="1074.36,-461.22 1074.36,-483.38 963.68,-494.3 812.14,-494.3 701.47,-483.38 701.47,-461.22 812.14,-450.3 963.68,-450.3 1074.36,-461.22"/>
<text text-anchor="middle" x="887.91" y="-467.25" font-family="Times,serif" font-size="14.00">metaeffekt:OpenLDAP Public License 1.4</text>
</g>
<!-- 3370&#45;&gt;46466 -->
<g id="edge2" class="edge">
<title>3370&#45;&gt;46466</title>
<path fill="none" stroke="#00876c" stroke-width="2" d="M1014.8,-934.67C874.03,-691.93 866.37,-672.09 884.28,-505.34"/>
<polygon fill="#00876c" stroke="#00876c" stroke-width="2" points="885.18,-497.09 888.57,-507.52 885.4,-499.69 884.6,-507.09 884.1,-507.03 883.6,-506.98 884.41,-499.59 879.63,-506.55 885.18,-497.09"/>
</g>
<!-- 3371 -->
<g id="node3" class="node">
<title>3371</title>
<polygon fill="none" stroke="black" points="1366.1,-1056.2 1366.1,-1071.11 1330.3,-1081.65 1279.66,-1081.65 1243.86,-1071.11 1243.86,-1056.2 1279.66,-1045.65 1330.3,-1045.65 1366.1,-1056.2"/>
<polygon fill="none" stroke="black" points="1370.1,-1053.21 1370.1,-1074.1 1330.88,-1085.65 1279.09,-1085.65 1239.86,-1074.1 1239.86,-1053.21 1279.09,-1041.65 1330.88,-1041.65 1370.1,-1053.21"/>
<text text-anchor="middle" x="1304.98" y="-1058.6" font-family="Times,serif" font-size="14.00">OLDAP&#45;1.4</text>
</g>
<!-- 3371&#45;&gt;3370 -->
<g id="edge3" class="edge">
<title>3371&#45;&gt;3370</title>
<path fill="none" stroke="black" stroke-width="2" d="M1239.51,-1062.21C1193.43,-1058.23 1164.22,-1043.76 1080.1,-991.95"/>
<polygon fill="black" stroke="black" stroke-width="2" points="1072.76,-987.42 1083.63,-988.84 1075.2,-988.34 1081.53,-992.24 1081.27,-992.67 1081,-993.1 1074.68,-989.19 1078.9,-996.5 1072.76,-987.42"/>
</g>
<!-- 9173 -->
<g id="node6" class="node">
<title>9173</title>
<polygon fill="none" stroke="#00876c" points="1546.46,-889.89 1546.46,-904.8 1488.26,-915.35 1405.96,-915.35 1347.77,-904.8 1347.77,-889.89 1405.96,-879.35 1488.26,-879.35 1546.46,-889.89"/>
<polygon fill="none" stroke="#00876c" points="1550.46,-886.55 1550.46,-908.14 1488.62,-919.35 1405.6,-919.35 1343.77,-908.14 1343.77,-886.55 1405.6,-875.35 1488.62,-875.35 1550.46,-886.55"/>
<text text-anchor="middle" x="1447.11" y="-892.3" font-family="Times,serif" font-size="14.00">BlueOak:OLDAP&#45;1.4</text>
</g>
<!-- 3371&#45;&gt;9173 -->
<g id="edge4" class="edge">
<title>3371&#45;&gt;9173</title>
<path fill="none" stroke="#00876c" stroke-width="2" d="M1340.51,-1044.03C1403.48,-1008.51 1414.58,-994.98 1436.36,-930.23"/>
<polygon fill="#00876c" stroke="#00876c" stroke-width="2" points="1439.04,-922.16 1440.16,-933.07 1438.71,-924.75 1436.37,-931.81 1435.89,-931.65 1435.42,-931.49 1437.76,-924.43 1431.62,-930.23 1439.04,-922.16"/>
</g>
<!-- 27032 -->
<g id="node12" class="node">
<title>27032</title>
<polygon fill="none" stroke="#e18745" points="1171.68,-1068.97 1171.68,-1083.89 1111.54,-1094.43 1026.49,-1094.43 966.34,-1083.89 966.34,-1068.97 1026.49,-1058.43 1111.54,-1058.43 1171.68,-1068.97"/>
<polygon fill="none" stroke="#e18745" points="1175.68,-1065.61 1175.68,-1087.25 1111.89,-1098.43 1026.14,-1098.43 962.34,-1087.25 962.34,-1065.61 1026.14,-1054.43 1111.89,-1054.43 1175.68,-1065.61"/>
<text text-anchor="middle" x="1069.01" y="-1071.38" font-family="Times,serif" font-size="14.00">fossology:OLDAP&#45;1.4</text>
</g>
<!-- 3371&#45;&gt;27032 -->
<g id="edge5" class="edge">
<title>3371&#45;&gt;27032</title>
<path fill="none" stroke="#e18745" stroke-width="2" d="M1266.71,-1082.51C1223.15,-1102.93 1201.39,-1106.6 1150.63,-1096.27"/>
<polygon fill="#e18745" stroke="#e18745" stroke-width="2" points="1142.09,-1094.44 1152.81,-1092.13 1144.7,-1094.49 1151.97,-1096.04 1151.87,-1096.53 1151.76,-1097.02 1144.49,-1095.47 1150.93,-1100.93 1142.09,-1094.44"/>
</g>
<!-- 37332 -->
<g id="node16" class="node">
<title>37332</title>
<polygon fill="none" stroke="#379469" points="1668.7,-1166.51 1668.7,-1181.42 1619.91,-1191.97 1550.92,-1191.97 1502.14,-1181.42 1502.14,-1166.51 1550.92,-1155.97 1619.91,-1155.97 1668.7,-1166.51"/>
<polygon fill="none" stroke="#379469" points="1672.7,-1163.28 1672.7,-1184.65 1620.34,-1195.97 1550.49,-1195.97 1498.14,-1184.65 1498.14,-1163.28 1550.49,-1151.97 1620.34,-1151.97 1672.7,-1163.28"/>
<text text-anchor="middle" x="1585.42" y="-1168.92" font-family="Times,serif" font-size="14.00">cavil:OLDAP&#45;1.4</text>
</g>
<!-- 3371&#45;&gt;37332 -->
<g id="edge6" class="edge">
<title>3371&#45;&gt;37332</title>
<path fill="none" stroke="#379469" stroke-width="2" d="M1341.89,-1082.59C1428.59,-1127.02 1466.94,-1145.91 1501.29,-1156.73"/>
<polygon fill="#379469" stroke="#379469" stroke-width="2" points="1509.54,-1159.16 1498.67,-1160.65 1506.94,-1158.91 1499.8,-1156.81 1499.94,-1156.33 1500.09,-1155.85 1507.22,-1157.95 1501.22,-1152.02 1509.54,-1159.16"/>
</g>
<!-- 51045 -->
<g id="node26" class="node">
<title>51045</title>
<polygon fill="none" stroke="#dac767" points="1563.32,-1109.35 1563.32,-1124.26 1457.1,-1134.8 1306.88,-1134.8 1200.65,-1124.26 1200.65,-1109.35 1306.88,-1098.8 1457.1,-1098.8 1563.32,-1109.35"/>
<polygon fill="none" stroke="#dac767" points="1567.32,-1105.72 1567.32,-1127.88 1457.3,-1138.8 1306.68,-1138.8 1196.65,-1127.88 1196.65,-1105.72 1306.68,-1094.8 1457.3,-1094.8 1567.32,-1105.72"/>
<text text-anchor="middle" x="1381.99" y="-1111.75" font-family="Times,serif" font-size="14.00">fosslight:Open LDAP Public License v1.4</text>
</g>
<!-- 3371&#45;&gt;51045 -->
<g id="edge7" class="edge">
<title>3371&#45;&gt;51045</title>
<path fill="none" stroke="#dac767" stroke-width="2" d="M1332.81,-1085.45C1333.97,-1086.35 1335.08,-1087.21 1336.15,-1088.04"/>
<polygon fill="#dac767" stroke="#dac767" stroke-width="2" points="1342.88,-1093.14 1332.19,-1090.68 1340.53,-1091.99 1334.61,-1087.49 1334.91,-1087.09 1335.21,-1086.7 1341.14,-1091.19 1337.63,-1083.51 1342.88,-1093.14"/>
</g>
<!-- 3372 -->
<g id="node4" class="node">
<title>3372</title>
<polygon fill="none" stroke="black" points="1225.85,-1009.69 1225.85,-1024.6 1141.37,-1035.14 1021.89,-1035.14 937.41,-1024.6 937.41,-1009.69 1021.89,-999.14 1141.37,-999.14 1225.85,-1009.69"/>
<polygon fill="none" stroke="black" points="1229.85,-1006.15 1229.85,-1028.13 1141.61,-1039.14 1021.64,-1039.14 933.41,-1028.13 933.41,-1006.15 1021.64,-995.14 1141.61,-995.14 1229.85,-1006.15"/>
<text text-anchor="middle" x="1081.63" y="-1012.09" font-family="Times,serif" font-size="14.00">Open LDAP Public License v1.4</text>
</g>
<!-- 3372&#45;&gt;3370 -->
<g id="edge8" class="edge">
<title>3372&#45;&gt;3370</title>
<path fill="none" stroke="black" stroke-width="2" d="M1052.69,-994.69C1052.58,-994.55 1052.47,-994.41 1052.37,-994.27"/>
<polygon fill="black" stroke="black" stroke-width="2" points="1048.61,-989.04 1058.1,-994.53 1050.51,-990.82 1054.85,-996.86 1054.44,-997.15 1054.04,-997.45 1049.7,-991.41 1050.79,-999.78 1048.61,-989.04"/>
</g>
<!-- 3372&#45;&gt;9173 -->
<g id="edge9" class="edge">
<title>3372&#45;&gt;9173</title>
<path fill="none" stroke="#00876c" stroke-width="2" d="M1229.99,-1009.55C1317.58,-1001.44 1347.65,-984.04 1413.81,-926.66"/>
<polygon fill="#00876c" stroke="#00876c" stroke-width="2" points="1420.23,-921.06 1415.65,-931.03 1418.62,-923.13 1413.02,-928.01 1412.69,-927.64 1412.36,-927.26 1417.97,-922.37 1409.73,-924.25 1420.23,-921.06"/>
</g>
<!-- 3372&#45;&gt;27032 -->
<g id="edge10" class="edge">
<title>3372&#45;&gt;27032</title>
<path fill="none" stroke="#e18745" stroke-width="2" d="M1079.31,-1039.39C1079.16,-1040.77 1079,-1042.07 1078.85,-1043.3"/>
<polygon fill="#e18745" stroke="#e18745" stroke-width="2" points="1077.59,-1051.75 1074.62,-1041.2 1077.47,-1049.14 1078.57,-1041.79 1079.07,-1041.86 1079.56,-1041.94 1078.46,-1049.29 1083.52,-1042.53 1077.59,-1051.75"/>
</g>
<!-- 3372&#45;&gt;51045 -->
<g id="edge11" class="edge">
<title>3372&#45;&gt;51045</title>
<path fill="none" stroke="#dac767" stroke-width="2" d="M1121.67,-1039.43C1170.99,-1066.79 1204.53,-1084.84 1231.5,-1096.62"/>
<polygon fill="#dac767" stroke="#dac767" stroke-width="2" points="1239.28,-1099.9 1228.32,-1100.17 1236.72,-1099.36 1229.87,-1096.48 1230.06,-1096.02 1230.26,-1095.56 1237.11,-1098.44 1231.81,-1091.87 1239.28,-1099.9"/>
</g>
<!-- 9172 -->
<g id="node5" class="node">
<title>9172</title>
<ellipse fill="none" stroke="#00876c" cx="1804.67" cy="-810.48" rx="157.68" ry="28.99"/>
<text text-anchor="middle" x="1804.67" y="-813.68" font-family="Times,serif" font-size="14.00" fill="gray">BlueOakCouncil</text>
<text text-anchor="middle" x="1804.67" y="-797.18" font-family="Times,serif" font-size="14.00" fill="gray">d651b11d27497e5530fff0646e1cb854</text>
</g>
<!-- 9172&#45;&gt;9173 -->
<g id="edge12" class="edge">
<title>9172&#45;&gt;9173</title>
<path fill="none" stroke="#00876c" d="M1751.38,-838.09C1702.11,-861.81 1667.03,-869.88 1557.19,-883.9"/>
<polygon fill="#00876c" stroke="#00876c" points="1556.95,-880.4 1547.46,-885.13 1557.83,-887.35 1556.95,-880.4"/>
</g>
<!-- 21380 -->
<g id="node7" class="node">
<title>21380</title>
<ellipse fill="none" stroke="#dac767" cx="161.05" cy="-473.55" rx="161.4" ry="28.99"/>
<text text-anchor="middle" x="161.05" y="-476.75" font-family="Times,serif" font-size="14.00" fill="gray">ScancodeData</text>
<text text-anchor="middle" x="161.05" y="-460.25" font-family="Times,serif" font-size="14.00" fill="gray">dab3e86e1515d4d2bb4e7765b37b3d6c</text>
</g>
<!-- 21381 -->
<g id="node8" class="node">
<title>21381</title>
<polygon fill="none" stroke="black" points="643.93,-400.1 643.93,-415.02 583.14,-425.56 497.17,-425.56 436.38,-415.02 436.38,-400.1 497.17,-389.56 583.14,-389.56 643.93,-400.1"/>
<polygon fill="none" stroke="black" points="647.93,-396.74 647.93,-418.38 583.49,-429.56 496.82,-429.56 432.38,-418.38 432.38,-396.74 496.82,-385.56 583.49,-385.56 647.93,-396.74"/>
<text text-anchor="middle" x="540.15" y="-402.51" font-family="Times,serif" font-size="14.00">scancode:openldap&#45;1.4</text>
</g>
<!-- 21380&#45;&gt;21381 -->
<g id="edge13" class="edge">
<title>21380&#45;&gt;21381</title>
<path fill="none" stroke="#dac767" d="M213.69,-445.75C271.5,-417.08 306.6,-410.59 420.62,-408.59"/>
<polygon fill="#dac767" stroke="#dac767" points="420.45,-412.09 430.39,-408.43 420.34,-405.09 420.45,-412.09"/>
</g>
<!-- 21381&#45;&gt;46466 -->
<g id="edge14" class="edge">
<title>21381&#45;&gt;46466</title>
<path fill="none" stroke="#00876c" stroke-dasharray="5,2" d="M648.13,-399C687.53,-401.84 729.6,-414.95 815.89,-446.06"/>
<polygon fill="#00876c" stroke="#00876c" points="825.2,-449.43 814.27,-450.26 821.65,-448.14 815.8,-446.03 815.8,-446.03 815.8,-446.03 821.65,-448.14 817.33,-441.8 825.2,-449.43"/>
</g>
<!-- 21382 -->
<g id="node9" class="node">
<title>21382</title>
<polygon fill="none" stroke="black" points="343.03,-312.03 343.03,-326.94 305.28,-337.48 251.89,-337.48 214.14,-326.94 214.14,-312.03 251.89,-301.48 305.28,-301.48 343.03,-312.03"/>
<polygon fill="none" stroke="black" points="347.03,-308.99 347.03,-329.97 305.83,-341.48 251.34,-341.48 210.14,-329.97 210.14,-308.99 251.34,-297.48 305.83,-297.48 347.03,-308.99"/>
<text text-anchor="middle" x="278.59" y="-314.43" font-family="Times,serif" font-size="14.00">openldap&#45;1.4</text>
</g>
<!-- 21382&#45;&gt;21381 -->
<g id="edge15" class="edge">
<title>21382&#45;&gt;21381</title>
<path fill="none" stroke="black" stroke-width="2" d="M341.29,-331.98C372.75,-339.87 403.86,-351.71 478.64,-382.29"/>
<polygon fill="black" stroke="black" stroke-width="2" points="486.72,-385.6 475.76,-385.98 484.16,-385.09 477.28,-382.27 477.47,-381.81 477.66,-381.35 484.54,-384.17 479.17,-377.65 486.72,-385.6"/>
</g>
<!-- 21383 -->
<g id="node10" class="node">
<title>21383</title>
<polygon fill="none" stroke="black" points="1077.4,-411.66 1077.4,-426.58 997.46,-437.12 884.41,-437.12 804.47,-426.58 804.47,-411.66 884.41,-401.12 997.46,-401.12 1077.4,-411.66"/>
<polygon fill="none" stroke="black" points="1081.4,-408.16 1081.4,-430.08 997.73,-441.12 884.15,-441.12 800.47,-430.08 800.47,-408.16 884.15,-397.12 997.73,-397.12 1081.4,-408.16"/>
<text text-anchor="middle" x="940.94" y="-414.07" font-family="Times,serif" font-size="14.00">OpenLDAP Public License 1.4</text>
</g>
<!-- 21383&#45;&gt;21381 -->
<g id="edge16" class="edge">
<title>21383&#45;&gt;21381</title>
<path fill="none" stroke="#dac767" stroke-width="2" d="M865.18,-399.2C721.58,-362.03 683.97,-358.32 606.14,-383.83"/>
<polygon fill="#dac767" stroke="#dac767" stroke-width="2" points="598.23,-386.49 606.27,-379.04 600.5,-385.2 607.55,-382.83 607.71,-383.31 607.87,-383.78 600.82,-386.15 609.14,-387.57 598.23,-386.49"/>
</g>
<!-- 21383&#45;&gt;46466 -->
<g id="edge17" class="edge">
<title>21383&#45;&gt;46466</title>
<path fill="none" stroke="#00876c" stroke-width="2" d="M905.47,-441.28C905.36,-441.43 905.25,-441.59 905.14,-441.75"/>
<polygon fill="#00876c" stroke="#00876c" stroke-width="2" points="901.21,-447.99 902.73,-437.13 902.16,-445.55 906.11,-439.26 906.54,-439.52 906.96,-439.79 903,-446.09 910.35,-441.92 901.21,-447.99"/>
</g>
<!-- 27031 -->
<g id="node11" class="node">
<title>27031</title>
<ellipse fill="none" stroke="#e18745" cx="1076.61" cy="-1457.2" rx="158.22" ry="28.99"/>
<text text-anchor="middle" x="1076.61" y="-1460.4" font-family="Times,serif" font-size="14.00" fill="gray">Fossology</text>
<text text-anchor="middle" x="1076.61" y="-1443.9" font-family="Times,serif" font-size="14.00" fill="gray">e68b2024dc0e6bf2a7368597b311f21e</text>
</g>
<!-- 27031&#45;&gt;27032 -->
<g id="edge18" class="edge">
<title>27031&#45;&gt;27032</title>
<path fill="none" stroke="#e18745" d="M1077.52,-1427.96C1080.02,-1344.6 1079.28,-1320.27 1070.44,-1110.23"/>
<polygon fill="#e18745" stroke="#e18745" points="1073.94,-1110.13 1070.02,-1100.28 1066.94,-1110.42 1073.94,-1110.13"/>
</g>
<!-- 27265 -->
<g id="node13" class="node">
<title>27265</title>
<polygon fill="none" stroke="black" points="1010.51,-160.5 1010.51,-175.41 984.11,-185.95 946.79,-185.95 920.39,-175.41 920.39,-160.5 946.79,-149.95 984.11,-149.95 1010.51,-160.5"/>
<text text-anchor="middle" x="965.45" y="-162.9" font-family="Times,serif" font-size="14.00">OLDAP</text>
</g>
<!-- 27265&#45;&gt;46466 -->
<g id="edge19" class="edge">
<title>27265&#45;&gt;46466</title>
<path fill="none" stroke="#00876c" stroke-dasharray="5,2" d="M954.86,-186.35C915.28,-255.62 911.47,-272.37 891.79,-439.24"/>
<polygon fill="#00876c" stroke="#00876c" points="890.68,-448.71 887.38,-438.25 891.12,-444.95 891.85,-438.77 891.85,-438.77 891.85,-438.77 891.12,-444.95 896.32,-439.3 890.68,-448.71"/>
</g>
<!-- 35135 -->
<g id="node14" class="node">
<title>35135</title>
<ellipse fill="none" stroke="#e06f45" cx="768.16" cy="-1212.6" rx="157.68" ry="28.99"/>
<text text-anchor="middle" x="768.16" y="-1215.8" font-family="Times,serif" font-size="14.00" fill="gray">OrtLicenseCategorization</text>
<text text-anchor="middle" x="768.16" y="-1199.3" font-family="Times,serif" font-size="14.00" fill="gray">b5a50169186bbf136ea02658e3ee6df4</text>
</g>
<!-- 35135&#45;&gt;3370 -->
<g id="edge20" class="edge">
<title>35135&#45;&gt;3370</title>
<path fill="none" stroke="#e06f45" d="M818.58,-1184.69C875.25,-1151.23 899.81,-1123.49 1001.7,-996.24"/>
<polygon fill="#e06f45" stroke="#e06f45" points="1004.38,-998.49 1007.9,-988.5 998.92,-994.12 1004.38,-998.49"/>
</g>
<!-- 37331 -->
<g id="node15" class="node">
<title>37331</title>
<ellipse fill="none" stroke="#379469" cx="1883.44" cy="-1359.65" rx="159.28" ry="28.99"/>
<text text-anchor="middle" x="1883.44" y="-1362.85" font-family="Times,serif" font-size="14.00" fill="gray">CavilLicenseChange</text>
<text text-anchor="middle" x="1883.44" y="-1346.35" font-family="Times,serif" font-size="14.00" fill="gray">c1bc65867e0714cea8d0c6a5e5032b56</text>
</g>
<!-- 37331&#45;&gt;37332 -->
<g id="edge21" class="edge">
<title>37331&#45;&gt;37332</title>
<path fill="none" stroke="#379469" d="M1833.71,-1331.87C1786.63,-1305.09 1753.8,-1284.01 1629.27,-1202.63"/>
<polygon fill="#379469" stroke="#379469" points="1631.3,-1199.78 1621.01,-1197.24 1627.47,-1205.64 1631.3,-1199.78"/>
</g>
<!-- 46465 -->
<g id="node17" class="node">
<title>46465</title>
<ellipse fill="none" stroke="#00876c" cx="700.5" cy="-29.38" rx="158.22" ry="28.99"/>
<text text-anchor="middle" x="700.5" y="-32.58" font-family="Times,serif" font-size="14.00" fill="gray">MetaeffektLicense</text>
<text text-anchor="middle" x="700.5" y="-16.08" font-family="Times,serif" font-size="14.00" fill="gray">fbac703571465c3c99df0611461724a4</text>
</g>
<!-- 46465&#45;&gt;46466 -->
<g id="edge22" class="edge">
<title>46465&#45;&gt;46466</title>
<path fill="none" stroke="#00876c" d="M712.12,-58.57C753,-161.16 763.53,-185.74 873.73,-439.62"/>
<polygon fill="#00876c" stroke="#00876c" points="870.41,-440.76 877.6,-448.54 876.83,-437.97 870.41,-440.76"/>
</g>
<!-- 46467 -->
<g id="node19" class="node">
<title>46467</title>
<polygon fill="none" stroke="#00876c" points="639.98,-626.15 639.98,-641.06 584.38,-651.61 505.75,-651.61 450.15,-641.06 450.15,-626.15 505.75,-615.61 584.38,-615.61 639.98,-626.15"/>
<text text-anchor="middle" x="545.07" y="-628.56" font-family="Times,serif" font-size="14.00">OLDAP, Version 1.4</text>
</g>
<!-- 46467&#45;&gt;46466 -->
<g id="edge23" class="edge">
<title>46467&#45;&gt;46466</title>
<path fill="none" stroke="#00876c" stroke-dasharray="5,2" d="M561.45,-615.18C632.86,-535.16 655.79,-516.4 768.79,-493.71"/>
<polygon fill="#00876c" stroke="#00876c" points="778.45,-491.81 769.5,-498.16 774.74,-492.54 768.63,-493.74 768.63,-493.74 768.63,-493.74 774.74,-492.54 767.76,-489.33 778.45,-491.81"/>
</g>
<!-- 46468 -->
<g id="node20" class="node">
<title>46468</title>
<polygon fill="none" stroke="#00876c" points="798.69,-164.26 798.69,-179.17 762.24,-189.72 710.68,-189.72 674.23,-179.17 674.23,-164.26 710.68,-153.72 762.24,-153.72 798.69,-164.26"/>
<text text-anchor="middle" x="736.46" y="-166.67" font-family="Times,serif" font-size="14.00">OLDAP, 1.4</text>
</g>
<!-- 46468&#45;&gt;46466 -->
<g id="edge24" class="edge">
<title>46468&#45;&gt;46466</title>
<path fill="none" stroke="#00876c" stroke-dasharray="5,2" d="M745.72,-189.94C780.64,-258.65 788.94,-275.13 871.91,-440.42"/>
<polygon fill="#00876c" stroke="#00876c" points="876.15,-448.86 867.64,-441.95 874.45,-445.48 871.66,-439.93 871.66,-439.93 871.66,-439.93 874.45,-445.48 875.69,-437.91 876.15,-448.86"/>
</g>
<!-- 46469 -->
<g id="node21" class="node">
<title>46469</title>
<polygon fill="none" stroke="#00876c" points="1133.23,-41.9 1133.23,-56.81 1057.51,-67.36 950.43,-67.36 874.71,-56.81 874.71,-41.9 950.43,-31.36 1057.51,-31.36 1133.23,-41.9"/>
<text text-anchor="middle" x="1003.97" y="-44.31" font-family="Times,serif" font-size="14.00">OLDAP License, Version 1.4</text>
</g>
<!-- 46469&#45;&gt;46466 -->
<g id="edge25" class="edge">
<title>46469&#45;&gt;46466</title>
<path fill="none" stroke="#00876c" stroke-dasharray="5,2" d="M993.41,-67.79C934.73,-170.61 930.34,-188.26 892.86,-439.14"/>
<polygon fill="#00876c" stroke="#00876c" points="891.4,-448.89 888.43,-438.33 891.96,-445.15 892.88,-439 892.88,-439 892.88,-439 891.96,-445.15 897.33,-439.66 891.4,-448.89"/>
</g>
<!-- 46470 -->
<g id="node22" class="node">
<title>46470</title>
<polygon fill="none" stroke="#00876c" points="670.51,-232.15 670.51,-247.06 613.93,-257.6 533.93,-257.6 477.35,-247.06 477.35,-232.15 533.93,-221.6 613.93,-221.6 670.51,-232.15"/>
<text text-anchor="middle" x="573.93" y="-234.55" font-family="Times,serif" font-size="14.00">OLDAP License, 1.4</text>
</g>
<!-- 46470&#45;&gt;46466 -->
<g id="edge26" class="edge">
<title>46470&#45;&gt;46466</title>
<path fill="none" stroke="#00876c" stroke-dasharray="5,2" d="M611.17,-257.98C682.22,-293.78 706.64,-313.43 854.39,-442.91"/>
<polygon fill="#00876c" stroke="#00876c" points="861.53,-449.16 851.04,-445.95 858.68,-446.67 854.01,-442.57 854.01,-442.57 854.01,-442.57 858.68,-446.67 856.97,-439.18 861.53,-449.16"/>
</g>
<!-- 46471 -->
<g id="node23" class="node">
<title>46471</title>
<polygon fill="none" stroke="#00876c" points="1574.31,-86.7 1574.31,-101.61 1422.33,-112.15 1207.4,-112.15 1055.42,-101.61 1055.42,-86.7 1207.4,-76.15 1422.33,-76.15 1574.31,-86.7"/>
<text text-anchor="middle" x="1314.87" y="-89.1" font-family="Times,serif" font-size="14.00">The OpenLDAP Public License Version 1.4, 18 January 1999</text>
</g>
<!-- 46471&#45;&gt;46466 -->
<g id="edge27" class="edge">
<title>46471&#45;&gt;46466</title>
<path fill="none" stroke="#00876c" stroke-dasharray="5,2" d="M1268.89,-112.46C1125.07,-170.69 1102.53,-194.83 912.1,-441.02"/>
<polygon fill="#00876c" stroke="#00876c" points="906,-448.9 908.55,-438.24 908.31,-445.91 912.11,-440.99 912.11,-440.99 912.11,-440.99 908.31,-445.91 915.67,-443.75 906,-448.9"/>
</g>
<!-- 50040 -->
<g id="node24" class="node">
<title>50040</title>
<ellipse fill="none" stroke="#dc574a" cx="907.47" cy="-1301.62" rx="158.22" ry="28.99"/>
<text text-anchor="middle" x="907.47" y="-1304.82" font-family="Times,serif" font-size="14.00" fill="gray">HermineLicense</text>
<text text-anchor="middle" x="907.47" y="-1288.32" font-family="Times,serif" font-size="14.00" fill="gray">71f81d3f6b3f9087b18344695b75ca37</text>
</g>
<!-- 50040&#45;&gt;3370 -->
<g id="edge28" class="edge">
<title>50040&#45;&gt;3370</title>
<path fill="none" stroke="#dc574a" d="M922.69,-1272.36C957.56,-1204.53 965.79,-1179.59 1019,-998.34"/>
<polygon fill="#dc574a" stroke="#dc574a" points="1022.35,-999.35 1021.81,-988.77 1015.63,-997.38 1022.35,-999.35"/>
</g>
<!-- 51044 -->
<g id="node25" class="node">
<title>51044</title>
<ellipse fill="none" stroke="#dac767" cx="1331.17" cy="-1178.08" rx="158.22" ry="28.99"/>
<text text-anchor="middle" x="1331.17" y="-1181.28" font-family="Times,serif" font-size="14.00" fill="gray">FOSSLight</text>
<text text-anchor="middle" x="1331.17" y="-1164.78" font-family="Times,serif" font-size="14.00" fill="gray">a9cc90409016cfbe27528c2c41a30b35</text>
</g>
<!-- 51044&#45;&gt;51045 -->
<g id="edge29" class="edge">
<title>51044&#45;&gt;51045</title>
<path fill="none" stroke="#dac767" d="M1368.84,-1149.74C1368.95,-1149.55 1369.05,-1149.36 1369.16,-1149.16"/>
<polygon fill="#dac767" stroke="#dac767" points="1372.24,-1150.83 1373.22,-1140.28 1365.88,-1147.92 1372.24,-1150.83"/>
</g>
</g>
</svg>
