<?xml version="1.0" encoding="UTF-8" standalone="no"?>
<!DOCTYPE svg PUBLIC "-//W3C//DTD SVG 1.1//EN"
 "http://www.w3.org/Graphics/SVG/1.1/DTD/svg11.dtd">
<!-- Generated by graphviz version 10.0.1 (0)
 -->
<!-- Pages: 1 -->
<svg width="1801pt" height="1060pt"
 viewBox="0.00 0.00 1801.00 1060.00" xmlns="http://www.w3.org/2000/svg" xmlns:xlink="http://www.w3.org/1999/xlink">
<g id="graph0" class="graph" transform="scale(1 1) rotate(0) translate(4 1056)">
<polygon fill="white" stroke="none" points="-4,4 -4,-1056 1797,-1056 1797,4 -4,4"/>
<!-- 3470 -->
<g id="node1" class="node">
<title>3470</title>
<ellipse fill="none" stroke="#b8bf62" cx="157.49" cy="-711.71" rx="157.68" ry="28.99"/>
<text text-anchor="middle" x="157.49" y="-714.91" font-family="Times,serif" font-size="14.00" fill="gray">SPDXLicense</text>
<text text-anchor="middle" x="157.49" y="-698.41" font-family="Times,serif" font-size="14.00" fill="gray">e09bdedcd44ad1d1acaaf11735bab733</text>
</g>
<!-- 3471 -->
<g id="node2" class="node">
<title>3471</title>
<polygon fill="none" stroke="black" points="605.6,-588.78 605.6,-603.7 562.01,-614.24 500.36,-614.24 456.76,-603.7 456.76,-588.78 500.36,-578.24 562.01,-578.24 605.6,-588.78"/>
<polygon fill="none" stroke="black" points="609.6,-585.64 609.6,-606.84 562.48,-618.24 499.88,-618.24 452.76,-606.84 452.76,-585.64 499.88,-574.24 562.48,-574.24 609.6,-585.64"/>
<polygon fill="none" stroke="black" points="613.6,-582.49 613.6,-609.99 562.96,-622.24 499.4,-622.24 448.76,-609.99 448.76,-582.49 499.4,-570.24 562.96,-570.24 613.6,-582.49"/>
<text text-anchor="middle" x="531.18" y="-591.19" font-family="Times,serif" font-size="14.00">spdx:OLFL&#45;1.3</text>
</g>
<!-- 3470&#45;&gt;3471 -->
<g id="edge1" class="edge">
<title>3470&#45;&gt;3471</title>
<path fill="none" stroke="#b8bf62" d="M230.61,-685.63C279.2,-668.94 324.23,-655.63 455.64,-617.9"/>
<polygon fill="#b8bf62" stroke="#b8bf62" points="456.41,-621.32 465.06,-615.2 454.48,-614.59 456.41,-621.32"/>
</g>
<!-- 46643 -->
<g id="node11" class="node">
<title>46643</title>
<polygon fill="none" stroke="#00876c" points="1242.96,-654.65 1242.96,-669.57 1116.3,-680.11 937.16,-680.11 810.49,-669.57 810.49,-654.65 937.16,-644.11 1116.3,-644.11 1242.96,-654.65"/>
<polygon fill="none" stroke="#00876c" points="1246.96,-650.97 1246.96,-673.25 1116.46,-684.11 936.99,-684.11 806.49,-673.25 806.49,-650.97 936.99,-640.11 1116.46,-640.11 1246.96,-650.97"/>
<text text-anchor="middle" x="1026.73" y="-657.06" font-family="Times,serif" font-size="14.00">metaeffekt:Open Logistics Foundation License 1.3</text>
</g>
<!-- 3471&#45;&gt;46643 -->
<g id="edge2" class="edge">
<title>3471&#45;&gt;46643</title>
<path fill="none" stroke="#00876c" stroke-width="2" d="M573.04,-620.07C672.48,-675.89 712.14,-688.58 848.23,-678.92"/>
<polygon fill="#00876c" stroke="#00876c" stroke-width="2" points="856.63,-678.3 846.99,-683.52 854.11,-678.98 846.7,-679.53 846.66,-679.03 846.62,-678.53 854.04,-677.99 846.33,-674.54 856.63,-678.3"/>
</g>
<!-- 3472 -->
<g id="node3" class="node">
<title>3472</title>
<polygon fill="none" stroke="black" points="829.44,-388.44 829.44,-403.35 798.51,-413.89 754.75,-413.89 723.82,-403.35 723.82,-388.44 754.75,-377.89 798.51,-377.89 829.44,-388.44"/>
<polygon fill="none" stroke="black" points="833.44,-385.57 833.44,-406.21 799.17,-417.89 754.09,-417.89 719.82,-406.21 719.82,-385.57 754.09,-373.89 799.17,-373.89 833.44,-385.57"/>
<text text-anchor="middle" x="776.63" y="-390.84" font-family="Times,serif" font-size="14.00">OLFL&#45;1.3</text>
</g>
<!-- 3472&#45;&gt;3471 -->
<g id="edge3" class="edge">
<title>3472&#45;&gt;3471</title>
<path fill="none" stroke="black" stroke-width="2" d="M741.09,-413.61C610.97,-478.69 590.6,-492.6 551.35,-560.34"/>
<polygon fill="black" stroke="black" stroke-width="2" points="547.14,-567.69 548.2,-556.77 547.98,-565.21 551.68,-558.76 552.11,-559.01 552.54,-559.26 548.85,-565.71 556.02,-561.24 547.14,-567.69"/>
</g>
<!-- 21258 -->
<g id="node6" class="node">
<title>21258</title>
<polygon fill="none" stroke="black" points="618.1,-474.42 618.1,-489.33 570.61,-499.87 503.46,-499.87 455.97,-489.33 455.97,-474.42 503.46,-463.87 570.61,-463.87 618.1,-474.42"/>
<polygon fill="none" stroke="black" points="622.1,-471.21 622.1,-492.54 571.05,-503.87 503.02,-503.87 451.97,-492.54 451.97,-471.21 503.02,-459.87 571.05,-459.87 622.1,-471.21"/>
<text text-anchor="middle" x="537.04" y="-476.82" font-family="Times,serif" font-size="14.00">scancode:olfl&#45;1.3</text>
</g>
<!-- 3472&#45;&gt;21258 -->
<g id="edge4" class="edge">
<title>3472&#45;&gt;21258</title>
<path fill="none" stroke="black" stroke-width="2" d="M719.64,-404.7C633.08,-418.47 608.67,-425.65 573.01,-452.57"/>
<polygon fill="black" stroke="black" stroke-width="2" points="566.1,-457.94 571.23,-448.25 567.81,-455.97 573.68,-451.4 573.99,-451.8 574.3,-452.19 568.43,-456.76 576.75,-455.35 566.1,-457.94"/>
</g>
<!-- 37359 -->
<g id="node9" class="node">
<title>37359</title>
<polygon fill="none" stroke="#379469" points="938.14,-86.16 938.14,-101.07 894.22,-111.62 832.11,-111.62 788.2,-101.07 788.2,-86.16 832.11,-75.62 894.22,-75.62 938.14,-86.16"/>
<polygon fill="none" stroke="#379469" points="942.14,-83.01 942.14,-104.22 894.7,-115.62 831.64,-115.62 784.2,-104.22 784.2,-83.01 831.64,-71.62 894.7,-71.62 942.14,-83.01"/>
<text text-anchor="middle" x="863.17" y="-88.57" font-family="Times,serif" font-size="14.00">cavil:OLFL&#45;1.3</text>
</g>
<!-- 3472&#45;&gt;37359 -->
<g id="edge5" class="edge">
<title>3472&#45;&gt;37359</title>
<path fill="none" stroke="#379469" stroke-width="2" d="M779.46,-373.46C800.23,-209.42 804.6,-184.99 842.77,-124.85"/>
<polygon fill="#379469" stroke="#379469" stroke-width="2" points="847.33,-117.75 845.71,-128.6 846.37,-120.18 842.34,-126.44 841.92,-126.16 841.5,-125.89 845.52,-119.64 838.14,-123.73 847.33,-117.75"/>
</g>
<!-- 46647 -->
<g id="node15" class="node">
<title>46647</title>
<polygon fill="none" stroke="#00876c" points="1059.08,-602.61 1059.08,-617.52 1019.7,-628.07 964.02,-628.07 924.65,-617.52 924.65,-602.61 964.02,-592.07 1019.7,-592.07 1059.08,-602.61"/>
<polygon fill="none" stroke="#00876c" points="1063.08,-599.54 1063.08,-620.59 1020.23,-632.07 963.49,-632.07 920.65,-620.59 920.65,-599.54 963.49,-588.07 1020.23,-588.07 1063.08,-599.54"/>
<text text-anchor="middle" x="991.86" y="-605.02" font-family="Times,serif" font-size="14.00">osi:OLFL&#45;1.3</text>
</g>
<!-- 3472&#45;&gt;46647 -->
<g id="edge6" class="edge">
<title>3472&#45;&gt;46647</title>
<path fill="none" stroke="#00876c" stroke-width="2" d="M805.9,-415.88C854.22,-449.63 872.01,-468.77 965.74,-579.25"/>
<polygon fill="#00876c" stroke="#00876c" stroke-width="2" points="971.35,-585.86 961.45,-581.14 969.31,-584.23 964.5,-578.56 964.88,-578.23 965.26,-577.91 970.07,-583.58 968.31,-575.32 971.35,-585.86"/>
</g>
<!-- 3473 -->
<g id="node4" class="node">
<title>3473</title>
<polygon fill="none" stroke="black" points="669.55,-527.3 669.55,-542.21 550.67,-552.76 382.55,-552.76 263.67,-542.21 263.67,-527.3 382.55,-516.76 550.67,-516.76 669.55,-527.3"/>
<polygon fill="none" stroke="black" points="673.55,-523.64 673.55,-545.87 550.85,-556.76 382.37,-556.76 259.67,-545.87 259.67,-523.64 382.37,-512.76 550.85,-512.76 673.55,-523.64"/>
<text text-anchor="middle" x="466.61" y="-529.71" font-family="Times,serif" font-size="14.00">Open Logistics Foundation License Version 1.3</text>
</g>
<!-- 3473&#45;&gt;3471 -->
<g id="edge7" class="edge">
<title>3473&#45;&gt;3471</title>
<path fill="none" stroke="#b8bf62" stroke-width="2" d="M477.68,-557.15C479.45,-559.95 481.35,-562.43 483.59,-564.81"/>
<polygon fill="#b8bf62" stroke="#b8bf62" stroke-width="2" points="489.75,-570.25 479.27,-567.01 487.49,-568.93 481.92,-564.01 482.25,-563.63 482.58,-563.26 488.16,-568.18 485.22,-560.26 489.75,-570.25"/>
</g>
<!-- 3473&#45;&gt;21258 -->
<g id="edge8" class="edge">
<title>3473&#45;&gt;21258</title>
<path fill="none" stroke="#dac767" stroke-width="2" d="M483.05,-512.49C484.24,-511.32 485.51,-510.19 486.87,-509.09"/>
<polygon fill="#dac767" stroke="#dac767" stroke-width="2" points="494.1,-504.12 488.41,-513.49 492.27,-505.99 486.14,-510.2 485.86,-509.78 485.58,-509.37 491.71,-505.16 483.31,-506.07 494.1,-504.12"/>
</g>
<!-- 3473&#45;&gt;46643 -->
<g id="edge9" class="edge">
<title>3473&#45;&gt;46643</title>
<path fill="none" stroke="#00876c" stroke-dasharray="5,2" d="M501.44,-557.09C604.9,-622.91 646.87,-641.8 795.34,-651.96"/>
<polygon fill="#00876c" stroke="#00876c" points="805,-652.6 794.73,-656.43 801.23,-652.35 795.02,-651.94 795.02,-651.94 795.02,-651.94 801.23,-652.35 795.32,-647.45 805,-652.6"/>
</g>
<!-- 21257 -->
<g id="node5" class="node">
<title>21257</title>
<ellipse fill="none" stroke="#dac767" cx="220.23" cy="-239.86" rx="154.5" ry="28.99"/>
<text text-anchor="middle" x="220.23" y="-243.06" font-family="Times,serif" font-size="14.00" fill="gray">ScancodeData</text>
<text text-anchor="middle" x="220.23" y="-226.56" font-family="Times,serif" font-size="14.00" fill="gray">c5e538f546c1b55fe42f7a4ddfeb2d02</text>
</g>
<!-- 21257&#45;&gt;21258 -->
<g id="edge10" class="edge">
<title>21257&#45;&gt;21258</title>
<path fill="none" stroke="#dac767" d="M245.13,-268.92C300.89,-333.06 324.94,-350.25 491.84,-453.86"/>
<polygon fill="#dac767" stroke="#dac767" points="489.84,-456.73 500.18,-459.03 493.53,-450.78 489.84,-456.73"/>
</g>
<!-- 21258&#45;&gt;46643 -->
<g id="edge11" class="edge">
<title>21258&#45;&gt;46643</title>
<path fill="none" stroke="#00876c" stroke-dasharray="5,2" d="M562.78,-504.26C665.56,-593.1 696.48,-610.08 888.62,-640.97"/>
<polygon fill="#00876c" stroke="#00876c" points="898.49,-642.55 887.9,-645.42 894.75,-641.95 888.61,-640.97 888.61,-640.97 888.61,-640.97 894.75,-641.95 889.32,-636.53 898.49,-642.55"/>
</g>
<!-- 35148 -->
<g id="node7" class="node">
<title>35148</title>
<ellipse fill="none" stroke="#e06f45" cx="377.69" cy="-956" rx="160.87" ry="28.99"/>
<text text-anchor="middle" x="377.69" y="-959.2" font-family="Times,serif" font-size="14.00" fill="gray">OrtLicenseCategorization</text>
<text text-anchor="middle" x="377.69" y="-942.7" font-family="Times,serif" font-size="14.00" fill="gray">73b65b446df10c6c41e22736716761b4</text>
</g>
<!-- 35148&#45;&gt;3471 -->
<g id="edge12" class="edge">
<title>35148&#45;&gt;3471</title>
<path fill="none" stroke="#e06f45" d="M379.54,-926.72C386.67,-820.54 395.86,-800.7 507.41,-632.11"/>
<polygon fill="#e06f45" stroke="#e06f45" points="510.23,-634.19 512.84,-623.92 504.4,-630.32 510.23,-634.19"/>
</g>
<!-- 37358 -->
<g id="node8" class="node">
<title>37358</title>
<ellipse fill="none" stroke="#379469" cx="881.77" cy="-29.08" rx="159.28" ry="28.99"/>
<text text-anchor="middle" x="881.77" y="-32.28" font-family="Times,serif" font-size="14.00" fill="gray">CavilLicenseChange</text>
<text text-anchor="middle" x="881.77" y="-15.78" font-family="Times,serif" font-size="14.00" fill="gray">8ecc9b0346fd3b5de0a9c770079252d9</text>
</g>
<!-- 37358&#45;&gt;37359 -->
<g id="edge13" class="edge">
<title>37358&#45;&gt;37359</title>
<path fill="none" stroke="#379469" d="M870.2,-58.09C870.04,-58.77 869.89,-59.47 869.72,-60.19"/>
<polygon fill="#379469" stroke="#379469" points="866.34,-59.26 867.74,-69.76 873.2,-60.68 866.34,-59.26"/>
</g>
<!-- 46642 -->
<g id="node10" class="node">
<title>46642</title>
<ellipse fill="none" stroke="#00876c" cx="1544.12" cy="-509.6" rx="156.09" ry="28.99"/>
<text text-anchor="middle" x="1544.12" y="-512.8" font-family="Times,serif" font-size="14.00" fill="gray">MetaeffektLicense</text>
<text text-anchor="middle" x="1544.12" y="-496.3" font-family="Times,serif" font-size="14.00" fill="gray">da4579a5600fa7ef06549c5ad3f655d9</text>
</g>
<!-- 46642&#45;&gt;46643 -->
<g id="edge14" class="edge">
<title>46642&#45;&gt;46643</title>
<path fill="none" stroke="#00876c" d="M1497.54,-537.75C1404.52,-592.87 1363.87,-605.74 1158.53,-640.34"/>
<polygon fill="#00876c" stroke="#00876c" points="1158.12,-636.86 1148.84,-641.97 1159.28,-643.76 1158.12,-636.86"/>
</g>
<!-- 46644 -->
<g id="node12" class="node">
<title>46644</title>
<polygon fill="none" stroke="#00876c" points="1211.65,-708.83 1211.65,-723.74 1111.91,-734.29 970.87,-734.29 871.14,-723.74 871.14,-708.83 970.87,-698.29 1111.91,-698.29 1211.65,-708.83"/>
<polygon fill="none" stroke="#00876c" points="1215.65,-705.23 1215.65,-727.34 1112.13,-738.29 970.66,-738.29 867.14,-727.34 867.14,-705.23 970.66,-694.29 1112.13,-694.29 1215.65,-705.23"/>
<text text-anchor="middle" x="1041.39" y="-711.24" font-family="Times,serif" font-size="14.00">Open Logistics Foundation License 1.3</text>
</g>
<!-- 46644&#45;&gt;46643 -->
<g id="edge15" class="edge">
<title>46644&#45;&gt;46643</title>
<path fill="none" stroke="#00876c" stroke-width="2" d="M1039.02,-694C1039,-693.92 1038.97,-693.84 1038.95,-693.75"/>
<polygon fill="#00876c" stroke="#00876c" stroke-width="2" points="1036.52,-686.79 1044.06,-694.75 1037.83,-689.05 1040.28,-696.07 1039.81,-696.23 1039.34,-696.4 1036.89,-689.38 1035.56,-697.72 1036.52,-686.79"/>
</g>
<!-- 46645 -->
<g id="node13" class="node">
<title>46645</title>
<polygon fill="none" stroke="#00876c" points="1243.41,-1026.07 1243.41,-1040.98 1221.89,-1051.52 1191.44,-1051.52 1169.92,-1040.98 1169.92,-1026.07 1191.44,-1015.52 1221.89,-1015.52 1243.41,-1026.07"/>
<text text-anchor="middle" x="1206.67" y="-1028.47" font-family="Times,serif" font-size="14.00">OLFL</text>
</g>
<!-- 46645&#45;&gt;46643 -->
<g id="edge16" class="edge">
<title>46645&#45;&gt;46643</title>
<path fill="none" stroke="#00876c" stroke-dasharray="5,2" d="M1199.91,-1015.22C1164.62,-919.82 1156.56,-903.46 1043.92,-694.07"/>
<polygon fill="#00876c" stroke="#00876c" points="1039.23,-685.35 1047.93,-692.03 1041.03,-688.68 1043.97,-694.16 1043.97,-694.16 1043.97,-694.16 1041.03,-688.68 1040.01,-696.29 1039.23,-685.35"/>
</g>
<!-- 46646 -->
<g id="node14" class="node">
<title>46646</title>
<polygon fill="none" stroke="#00876c" points="1793.03,-898.7 1793.03,-913.61 1668.96,-924.16 1493.5,-924.16 1369.43,-913.61 1369.43,-898.7 1493.5,-888.16 1668.96,-888.16 1793.03,-898.7"/>
<text text-anchor="middle" x="1581.23" y="-901.11" font-family="Times,serif" font-size="14.00">Open Logistics Foundation License (version; 1.3)</text>
</g>
<!-- 46646&#45;&gt;46643 -->
<g id="edge17" class="edge">
<title>46646&#45;&gt;46643</title>
<path fill="none" stroke="#00876c" stroke-dasharray="5,2" d="M1525.23,-887.74C1408.16,-848.73 1366.02,-829.06 1082.07,-689.35"/>
<polygon fill="#00876c" stroke="#00876c" points="1073.39,-685.08 1084.35,-685.46 1076.78,-686.75 1082.36,-689.49 1082.36,-689.49 1082.36,-689.49 1076.78,-686.75 1080.38,-693.53 1073.39,-685.08"/>
</g>
<!-- 46647&#45;&gt;46643 -->
<g id="edge18" class="edge">
<title>46647&#45;&gt;46643</title>
<path fill="none" stroke="#00876c" stroke-dasharray="5,2" d="M1008.65,-632.31C1008.71,-632.4 1008.78,-632.49 1008.84,-632.58"/>
<polygon fill="#00876c" stroke="#00876c" points="1013.25,-638.67 1003.74,-633.2 1011.03,-635.6 1007.39,-630.56 1007.39,-630.56 1007.39,-630.56 1011.03,-635.6 1011.03,-627.93 1013.25,-638.67"/>
</g>
</g>
</svg>
