<?xml version="1.0" encoding="UTF-8" standalone="no"?>
<!DOCTYPE svg PUBLIC "-//W3C//DTD SVG 1.1//EN"
 "http://www.w3.org/Graphics/SVG/1.1/DTD/svg11.dtd">
<!-- Generated by graphviz version 10.0.1 (0)
 -->
<!-- Pages: 1 -->
<svg width="3873pt" height="2332pt"
 viewBox="0.00 0.00 3873.00 2332.00" xmlns="http://www.w3.org/2000/svg" xmlns:xlink="http://www.w3.org/1999/xlink">
<g id="graph0" class="graph" transform="scale(1 1) rotate(0) translate(4 2328)">
<polygon fill="white" stroke="none" points="-4,4 -4,-2328 3869,-2328 3869,4 -4,4"/>
<!-- 19 -->
<g id="node1" class="node">
<title>19</title>
<text text-anchor="start" x="2262.05" y="-959.41" font-family="Times,serif" font-size="14.00">OSI: </text>
<text text-anchor="start" x="2291.3" y="-959.41" font-family="Times,serif" font-weight="bold" font-size="14.00" fill="#228b22">Approved</text>
</g>
<!-- 3896 -->
<g id="node2" class="node">
<title>3896</title>
<ellipse fill="none" stroke="#dac767" cx="1847.07" cy="-771.24" rx="158.75" ry="28.99"/>
<text text-anchor="middle" x="1847.07" y="-774.44" font-family="Times,serif" font-size="14.00" fill="gray">SPDXLicense</text>
<text text-anchor="middle" x="1847.07" y="-757.94" font-family="Times,serif" font-size="14.00" fill="gray">9f1c96ee0198d944dd76d617a431aa4a</text>
</g>
<!-- 19&#45;&gt;3896 -->
<g id="edge1" class="edge">
<title>19&#45;&gt;3896</title>
<path fill="none" stroke="#dac767" d="M2287.66,-945.59C2165.09,-823.34 2127.27,-790.14 2013.4,-778.59"/>
<polygon fill="#dac767" stroke="#dac767" points="2013.93,-775.13 2003.65,-777.68 2013.28,-782.1 2013.93,-775.13"/>
</g>
<!-- 6000 -->
<g id="node11" class="node">
<title>6000</title>
<ellipse fill="none" stroke="#b8bf62" cx="2627.23" cy="-1297.62" rx="162.46" ry="28.99"/>
<text text-anchor="middle" x="2627.23" y="-1300.82" font-family="Times,serif" font-size="14.00" fill="gray">OpenSourceOrgLicense</text>
<text text-anchor="middle" x="2627.23" y="-1284.32" font-family="Times,serif" font-size="14.00" fill="gray">64998840420d08c484e0788572691ba9</text>
</g>
<!-- 19&#45;&gt;6000 -->
<g id="edge2" class="edge">
<title>19&#45;&gt;6000</title>
<path fill="none" stroke="#b8bf62" d="M2333.42,-981.24C2539.41,-1112.76 2559.46,-1129.5 2611.3,-1257.64"/>
<polygon fill="#b8bf62" stroke="#b8bf62" points="2608.05,-1258.92 2615.02,-1266.9 2614.54,-1256.31 2608.05,-1258.92"/>
</g>
<!-- 3897 -->
<g id="node3" class="node">
<title>3897</title>
<polygon fill="none" stroke="black" points="1785.4,-1268.45 1785.4,-1283.36 1733.37,-1293.9 1659.79,-1293.9 1607.76,-1283.36 1607.76,-1268.45 1659.79,-1257.9 1733.37,-1257.9 1785.4,-1268.45"/>
<polygon fill="none" stroke="black" points="1789.4,-1265.18 1789.4,-1286.63 1733.77,-1297.9 1659.38,-1297.9 1603.76,-1286.63 1603.76,-1265.18 1659.38,-1253.9 1733.77,-1253.9 1789.4,-1265.18"/>
<polygon fill="none" stroke="black" points="1793.4,-1261.91 1793.4,-1289.9 1734.17,-1301.9 1658.98,-1301.9 1599.76,-1289.9 1599.76,-1261.91 1658.98,-1249.9 1734.17,-1249.9 1793.4,-1261.91"/>
<text text-anchor="middle" x="1696.58" y="-1270.85" font-family="Times,serif" font-size="14.00">spdx:OSET&#45;PL&#45;2.1</text>
</g>
<!-- 3896&#45;&gt;3897 -->
<g id="edge3" class="edge">
<title>3896&#45;&gt;3897</title>
<path fill="none" stroke="#dac767" d="M1822.6,-800.28C1697.66,-949.12 1692.5,-970.99 1696.05,-1238.3"/>
<polygon fill="#dac767" stroke="#dac767" points="1692.55,-1238.1 1696.19,-1248.05 1699.55,-1238 1692.55,-1238.1"/>
</g>
<!-- 6001 -->
<g id="node12" class="node">
<title>6001</title>
<polygon fill="none" stroke="black" points="2124.85,-1519.44 2124.85,-1534.35 2089.04,-1544.9 2038.41,-1544.9 2002.6,-1534.35 2002.6,-1519.44 2038.41,-1508.9 2089.04,-1508.9 2124.85,-1519.44"/>
<polygon fill="none" stroke="black" points="2128.85,-1516.45 2128.85,-1537.35 2089.62,-1548.9 2037.83,-1548.9 1998.6,-1537.35 1998.6,-1516.45 2037.83,-1504.9 2089.62,-1504.9 2128.85,-1516.45"/>
<text text-anchor="middle" x="2063.72" y="-1521.85" font-family="Times,serif" font-size="14.00">osi:OPL&#45;2.1</text>
</g>
<!-- 3897&#45;&gt;6001 -->
<g id="edge4" class="edge">
<title>3897&#45;&gt;6001</title>
<path fill="none" stroke="#b8bf62" stroke-width="2" d="M1716.91,-1302.13C1840.95,-1461.87 1864.72,-1485.77 1991.31,-1512.64"/>
<polygon fill="#b8bf62" stroke="#b8bf62" stroke-width="2" points="1999.85,-1514.42 1989.15,-1516.79 1997.24,-1514.39 1989.96,-1512.87 1990.06,-1512.38 1990.17,-1511.89 1997.45,-1513.41 1990.98,-1507.98 1999.85,-1514.42"/>
</g>
<!-- 23993 -->
<g id="node21" class="node">
<title>23993</title>
<polygon fill="none" stroke="black" points="1357.1,-1362.42 1357.1,-1377.34 1301.82,-1387.88 1223.65,-1387.88 1168.37,-1377.34 1168.37,-1362.42 1223.65,-1351.88 1301.82,-1351.88 1357.1,-1362.42"/>
<polygon fill="none" stroke="black" points="1361.1,-1359.12 1361.1,-1380.64 1302.2,-1391.88 1223.27,-1391.88 1164.37,-1380.64 1164.37,-1359.12 1223.27,-1347.88 1302.2,-1347.88 1361.1,-1359.12"/>
<text text-anchor="middle" x="1262.73" y="-1364.83" font-family="Times,serif" font-size="14.00">scancode:oset&#45;pl&#45;2.1</text>
</g>
<!-- 3897&#45;&gt;23993 -->
<g id="edge5" class="edge">
<title>3897&#45;&gt;23993</title>
<path fill="none" stroke="#deb256" stroke-width="2" d="M1601.51,-1290.69C1521.02,-1306.51 1407.42,-1331.28 1334.41,-1349.04"/>
<polygon fill="#deb256" stroke="#deb256" stroke-width="2" points="1326.31,-1351.02 1334.95,-1344.27 1328.68,-1349.93 1335.91,-1348.16 1336.03,-1348.64 1336.14,-1349.13 1328.92,-1350.9 1337.1,-1353.01 1326.31,-1351.02"/>
</g>
<!-- 53680 -->
<g id="node38" class="node">
<title>53680</title>
<polygon fill="none" stroke="#379469" points="1733.12,-1821.48 1733.12,-1836.39 1639.56,-1846.94 1507.23,-1846.94 1413.66,-1836.39 1413.66,-1821.48 1507.23,-1810.94 1639.56,-1810.94 1733.12,-1821.48"/>
<polygon fill="none" stroke="#379469" points="1737.12,-1817.91 1737.12,-1839.97 1639.78,-1850.94 1507.01,-1850.94 1409.66,-1839.97 1409.66,-1817.91 1507.01,-1806.94 1639.78,-1806.94 1737.12,-1817.91"/>
<text text-anchor="middle" x="1573.39" y="-1823.89" font-family="Times,serif" font-size="14.00">metaeffekt:OSET Public License 2.1</text>
</g>
<!-- 3897&#45;&gt;53680 -->
<g id="edge6" class="edge">
<title>3897&#45;&gt;53680</title>
<path fill="none" stroke="#379469" stroke-width="2" d="M1687.18,-1302.37C1574.21,-1620.41 1566.97,-1645.12 1572.16,-1795.4"/>
<polygon fill="#379469" stroke="#379469" stroke-width="2" points="1572.46,-1804.01 1567.61,-1794.18 1571.87,-1801.47 1571.61,-1794.03 1572.11,-1794.02 1572.61,-1794 1572.87,-1801.43 1576.6,-1793.86 1572.46,-1804.01"/>
</g>
<!-- 3898 -->
<g id="node4" class="node">
<title>3898</title>
<polygon fill="none" stroke="black" points="1654.08,-1567.75 1654.08,-1582.66 1614.7,-1593.21 1559.02,-1593.21 1519.64,-1582.66 1519.64,-1567.75 1559.02,-1557.21 1614.7,-1557.21 1654.08,-1567.75"/>
<polygon fill="none" stroke="black" points="1658.08,-1564.68 1658.08,-1585.73 1615.23,-1597.21 1558.49,-1597.21 1515.64,-1585.73 1515.64,-1564.68 1558.49,-1553.21 1615.23,-1553.21 1658.08,-1564.68"/>
<text text-anchor="middle" x="1586.86" y="-1570.16" font-family="Times,serif" font-size="14.00">OSET&#45;PL&#45;2.1</text>
</g>
<!-- 3898&#45;&gt;3897 -->
<g id="edge7" class="edge">
<title>3898&#45;&gt;3897</title>
<path fill="none" stroke="black" stroke-width="2" d="M1588.5,-1552.79C1594.58,-1473.45 1601.13,-1456.21 1677.48,-1311.94"/>
<polygon fill="black" stroke="black" stroke-width="2" points="1681.46,-1304.41 1680.76,-1315.35 1680.71,-1306.91 1677.23,-1313.48 1676.79,-1313.24 1676.34,-1313.01 1679.82,-1306.44 1672.81,-1311.14 1681.46,-1304.41"/>
</g>
<!-- 3898&#45;&gt;23993 -->
<g id="edge8" class="edge">
<title>3898&#45;&gt;23993</title>
<path fill="none" stroke="black" stroke-width="2" d="M1531.64,-1559.93C1373.66,-1515.69 1353.41,-1502.26 1284.09,-1401.29"/>
<polygon fill="black" stroke="black" stroke-width="2" points="1279.28,-1394.25 1288.64,-1399.97 1281.14,-1396.09 1285.33,-1402.22 1284.92,-1402.51 1284.51,-1402.79 1280.31,-1396.65 1281.21,-1405.05 1279.28,-1394.25"/>
</g>
<!-- 34894 -->
<g id="node29" class="node">
<title>34894</title>
<polygon fill="none" stroke="#e18745" points="1606.21,-1357.21 1606.21,-1372.12 1542.5,-1382.67 1452.4,-1382.67 1388.68,-1372.12 1388.68,-1357.21 1452.4,-1346.67 1542.5,-1346.67 1606.21,-1357.21"/>
<polygon fill="none" stroke="#e18745" points="1610.21,-1353.82 1610.21,-1375.52 1542.83,-1386.67 1452.07,-1386.67 1384.68,-1375.52 1384.68,-1353.82 1452.07,-1342.67 1542.83,-1342.67 1610.21,-1353.82"/>
<text text-anchor="middle" x="1497.45" y="-1359.62" font-family="Times,serif" font-size="14.00">fossology:OSET&#45;PL&#45;2.1</text>
</g>
<!-- 3898&#45;&gt;34894 -->
<g id="edge9" class="edge">
<title>3898&#45;&gt;34894</title>
<path fill="none" stroke="#e18745" stroke-width="2" d="M1563.56,-1552.82C1511.99,-1502.45 1506.05,-1486.98 1499.7,-1397.98"/>
<polygon fill="#e18745" stroke="#e18745" stroke-width="2" points="1499.11,-1389.49 1504.29,-1399.16 1499.78,-1392.01 1500.3,-1399.43 1499.8,-1399.47 1499.3,-1399.5 1498.79,-1392.08 1495.31,-1399.78 1499.11,-1389.49"/>
</g>
<!-- 42149 -->
<g id="node36" class="node">
<title>42149</title>
<polygon fill="none" stroke="#379469" points="1951.42,-1893.41 1951.42,-1908.32 1899.06,-1918.87 1825.02,-1918.87 1772.67,-1908.32 1772.67,-1893.41 1825.02,-1882.87 1899.06,-1882.87 1951.42,-1893.41"/>
<polygon fill="none" stroke="#379469" points="1955.42,-1890.14 1955.42,-1911.6 1899.46,-1922.87 1824.62,-1922.87 1768.67,-1911.6 1768.67,-1890.14 1824.62,-1878.87 1899.46,-1878.87 1955.42,-1890.14"/>
<text text-anchor="middle" x="1862.04" y="-1895.82" font-family="Times,serif" font-size="14.00">cavil:OSET&#45;PL&#45;2.1</text>
</g>
<!-- 3898&#45;&gt;42149 -->
<g id="edge10" class="edge">
<title>3898&#45;&gt;42149</title>
<path fill="none" stroke="#379469" stroke-width="2" d="M1596.88,-1597.62C1683.58,-1791.34 1698.12,-1816.98 1809.44,-1874.45"/>
<polygon fill="#379469" stroke="#379469" stroke-width="2" points="1817.25,-1878.46 1806.3,-1877.9 1814.74,-1877.73 1808.12,-1874.34 1808.35,-1873.9 1808.58,-1873.45 1815.2,-1876.84 1810.4,-1869.89 1817.25,-1878.46"/>
</g>
<!-- 3899 -->
<g id="node5" class="node">
<title>3899</title>
<polygon fill="none" stroke="black" points="1505.18,-1303.33 1505.18,-1318.25 1419.73,-1328.79 1298.87,-1328.79 1213.42,-1318.25 1213.42,-1303.33 1298.87,-1292.79 1419.73,-1292.79 1505.18,-1303.33"/>
<polygon fill="none" stroke="black" points="1509.18,-1299.8 1509.18,-1321.78 1419.97,-1332.79 1298.63,-1332.79 1209.42,-1321.78 1209.42,-1299.8 1298.63,-1288.79 1419.97,-1288.79 1509.18,-1299.8"/>
<text text-anchor="middle" x="1359.3" y="-1305.74" font-family="Times,serif" font-size="14.00">OSET Public License version 2.1</text>
</g>
<!-- 3899&#45;&gt;3897 -->
<g id="edge11" class="edge">
<title>3899&#45;&gt;3897</title>
<path fill="none" stroke="#dac767" stroke-width="2" d="M1509.39,-1305.47C1531.37,-1302.54 1558.03,-1298.46 1592.74,-1292.89"/>
<polygon fill="#dac767" stroke="#dac767" stroke-width="2" points="1601.37,-1291.5 1592.21,-1297.53 1598.92,-1292.4 1591.57,-1293.58 1591.49,-1293.09 1591.41,-1292.59 1598.76,-1291.41 1590.78,-1288.64 1601.37,-1291.5"/>
</g>
<!-- 3899&#45;&gt;23993 -->
<g id="edge12" class="edge">
<title>3899&#45;&gt;23993</title>
<path fill="none" stroke="#deb256" stroke-width="2" d="M1316.04,-1333.09C1309.9,-1336.33 1304.84,-1339.09 1300.49,-1341.59"/>
<polygon fill="#deb256" stroke="#deb256" stroke-width="2" points="1292.98,-1346.14 1299.2,-1337.11 1294.92,-1344.38 1301.28,-1340.53 1301.54,-1340.96 1301.8,-1341.38 1295.44,-1345.24 1303.87,-1344.8 1292.98,-1346.14"/>
</g>
<!-- 3899&#45;&gt;34894 -->
<g id="edge13" class="edge">
<title>3899&#45;&gt;34894</title>
<path fill="none" stroke="#e18745" stroke-width="2" d="M1385.92,-1333.28C1392.29,-1337.89 1398.44,-1341.42 1405.84,-1344.44"/>
<polygon fill="#e18745" stroke="#e18745" stroke-width="2" points="1414.11,-1347.36 1403.18,-1348.27 1411.53,-1346.97 1404.51,-1344.5 1404.68,-1344.03 1404.85,-1343.56 1411.86,-1346.03 1406.18,-1339.79 1414.11,-1347.36"/>
</g>
<!-- 68215 -->
<g id="node47" class="node">
<title>68215</title>
<polygon fill="none" stroke="#00876c" points="1924.39,-1210.69 1924.39,-1225.61 1826.28,-1236.15 1687.53,-1236.15 1589.42,-1225.61 1589.42,-1210.69 1687.53,-1200.15 1826.28,-1200.15 1924.39,-1210.69"/>
<polygon fill="none" stroke="#00876c" points="1928.39,-1207.1 1928.39,-1229.2 1826.5,-1240.15 1687.32,-1240.15 1585.42,-1229.2 1585.42,-1207.1 1687.32,-1196.15 1826.5,-1196.15 1928.39,-1207.1"/>
<text text-anchor="middle" x="1756.91" y="-1213.1" font-family="Times,serif" font-size="14.00">spdx:OSET Public License version 2.1</text>
</g>
<!-- 3899&#45;&gt;68215 -->
<g id="edge14" class="edge">
<title>3899&#45;&gt;68215</title>
<path fill="none" stroke="#00876c" stroke-width="2" d="M1448.81,-1292C1495.48,-1281.8 1543.44,-1270.3 1661.26,-1241.53"/>
<polygon fill="#00876c" stroke="#00876c" stroke-width="2" points="1669.76,-1239.45 1661.11,-1246.2 1667.39,-1240.55 1660.16,-1242.31 1660.04,-1241.83 1659.92,-1241.34 1667.15,-1239.58 1658.98,-1237.46 1669.76,-1239.45"/>
</g>
<!-- 3900 -->
<g id="node6" class="node">
<title>3900</title>
<text text-anchor="middle" x="2119.97" y="-413.09" font-family="Times,serif" font-size="14.00">$TEXT</text>
</g>
<!-- 3900&#45;&gt;3896 -->
<g id="edge15" class="edge">
<title>3900&#45;&gt;3896</title>
<path fill="none" stroke="#dac767" d="M2093.71,-436.13C1996.51,-503.24 1982.33,-523.05 1868.43,-732.01"/>
<polygon fill="#dac767" stroke="#dac767" points="1865.37,-730.31 1863.66,-740.77 1871.52,-733.66 1865.37,-730.31"/>
</g>
<!-- 3901 -->
<g id="node7" class="node">
<title>3901</title>
<text text-anchor="middle" x="2244.14" y="-229.85" font-family="Times,serif" font-size="14.00">$TEXT</text>
</g>
<!-- 3901&#45;&gt;3900 -->
<g id="edge16" class="edge">
<title>3901&#45;&gt;3900</title>
<path fill="none" stroke="#dac767" d="M2226.33,-252.79C2196.17,-283.7 2186.2,-299.57 2135.45,-390.41"/>
<polygon fill="#dac767" stroke="#dac767" points="2132.46,-388.58 2130.64,-399.02 2138.57,-392 2132.46,-388.58"/>
</g>
<!-- 3902 -->
<g id="node8" class="node">
<title>3902</title>
<text text-anchor="middle" x="1921.23" y="-299.09" font-family="Times,serif" font-size="14.00">https://opensource.org/licenses/OPL&#45;2.1</text>
</g>
<!-- 3902&#45;&gt;3896 -->
<g id="edge17" class="edge">
<title>3902&#45;&gt;3896</title>
<path fill="none" stroke="#dac767" d="M1915.51,-322.1C1878.53,-438.56 1875.7,-456.62 1850.75,-730.76"/>
<polygon fill="#dac767" stroke="#dac767" points="1847.3,-730.1 1849.88,-740.38 1854.27,-730.73 1847.3,-730.1"/>
</g>
<!-- 3903 -->
<g id="node9" class="node">
<title>3903</title>
<text text-anchor="middle" x="1247.2" y="-883.91" font-family="Times,serif" font-size="14.00">http://www.osetfoundation.org/public&#45;license</text>
</g>
<!-- 3903&#45;&gt;3896 -->
<g id="edge18" class="edge">
<title>3903&#45;&gt;3896</title>
<path fill="none" stroke="#dac767" d="M1273.93,-871.1C1423.97,-771.2 1461.41,-754.57 1682.2,-763.12"/>
<polygon fill="#dac767" stroke="#dac767" points="1681.89,-766.61 1692.03,-763.51 1682.17,-759.62 1681.89,-766.61"/>
</g>
<!-- 23992 -->
<g id="node20" class="node">
<title>23992</title>
<ellipse fill="none" stroke="#deb256" cx="676.35" cy="-1025.09" rx="158.22" ry="28.99"/>
<text text-anchor="middle" x="676.35" y="-1028.29" font-family="Times,serif" font-size="14.00" fill="gray">ScancodeData</text>
<text text-anchor="middle" x="676.35" y="-1011.79" font-family="Times,serif" font-size="14.00" fill="gray">aeb60b860113c23cad35e6ae789bf633</text>
</g>
<!-- 3903&#45;&gt;23992 -->
<g id="edge19" class="edge">
<title>3903&#45;&gt;23992</title>
<path fill="none" stroke="#deb256" d="M1116.56,-903.39C886.83,-929.37 837.87,-940.52 738.26,-992.03"/>
<polygon fill="#deb256" stroke="#deb256" points="736.72,-988.88 729.47,-996.61 739.96,-995.09 736.72,-988.88"/>
</g>
<!-- 34893 -->
<g id="node28" class="node">
<title>34893</title>
<ellipse fill="none" stroke="#e18745" cx="1026.64" cy="-1285.24" rx="155.03" ry="28.99"/>
<text text-anchor="middle" x="1026.64" y="-1288.44" font-family="Times,serif" font-size="14.00" fill="gray">Fossology</text>
<text text-anchor="middle" x="1026.64" y="-1271.94" font-family="Times,serif" font-size="14.00" fill="gray">c5c99df585cc0f3623023cfdaeb2e4b7</text>
</g>
<!-- 3903&#45;&gt;34893 -->
<g id="edge20" class="edge">
<title>3903&#45;&gt;34893</title>
<path fill="none" stroke="#e18745" d="M1228.42,-906.71C1059.79,-1066.32 1047.01,-1083.45 1030.63,-1244.62"/>
<polygon fill="#e18745" stroke="#e18745" points="1027.16,-1244.15 1029.64,-1254.45 1034.12,-1244.85 1027.16,-1244.15"/>
</g>
<!-- 5687 -->
<g id="node10" class="node">
<title>5687</title>
<text text-anchor="start" x="2881.72" y="-1024.64" font-family="Times,serif" font-size="14.00">OSI&#45;keyword: </text>
<text text-anchor="start" x="2962.72" y="-1024.64" font-family="Times,serif" font-weight="bold" font-size="14.00" fill="#000000">special&#45;purpose</text>
</g>
<!-- 5687&#45;&gt;6000 -->
<g id="edge21" class="edge">
<title>5687&#45;&gt;6000</title>
<path fill="none" stroke="#b8bf62" d="M2956.24,-1046.39C2890.22,-1152.56 2874.79,-1167.35 2690.25,-1264.57"/>
<polygon fill="#b8bf62" stroke="#b8bf62" points="2688.74,-1261.41 2681.52,-1269.16 2692,-1267.6 2688.74,-1261.41"/>
</g>
<!-- 6000&#45;&gt;6001 -->
<g id="edge22" class="edge">
<title>6000&#45;&gt;6001</title>
<path fill="none" stroke="#b8bf62" d="M2598.17,-1326.61C2459.55,-1464.27 2431.19,-1477.04 2140.29,-1516.61"/>
<polygon fill="#b8bf62" stroke="#b8bf62" points="2139.88,-1513.13 2130.44,-1517.94 2140.82,-1520.07 2139.88,-1513.13"/>
</g>
<!-- 6001&#45;&gt;53680 -->
<g id="edge23" class="edge">
<title>6001&#45;&gt;53680</title>
<path fill="none" stroke="#379469" stroke-dasharray="5,2" d="M2040.68,-1549.39C1844.82,-1740.4 1800.24,-1780.73 1683.73,-1807.87"/>
<polygon fill="#379469" stroke="#379469" points="1674.16,-1810.02 1682.93,-1803.43 1677.85,-1809.19 1683.92,-1807.82 1683.92,-1807.82 1683.92,-1807.82 1677.85,-1809.19 1684.91,-1812.21 1674.16,-1810.02"/>
</g>
<!-- 6002 -->
<g id="node13" class="node">
<title>6002</title>
<polygon fill="none" stroke="black" points="2311.61,-1707.65 2311.61,-1722.56 2284.24,-1733.11 2245.54,-1733.11 2218.17,-1722.56 2218.17,-1707.65 2245.54,-1697.11 2284.24,-1697.11 2311.61,-1707.65"/>
<polygon fill="none" stroke="black" points="2315.61,-1704.91 2315.61,-1725.31 2284.99,-1737.11 2244.79,-1737.11 2214.17,-1725.31 2214.17,-1704.91 2244.79,-1693.11 2284.99,-1693.11 2315.61,-1704.91"/>
<text text-anchor="middle" x="2264.89" y="-1710.06" font-family="Times,serif" font-size="14.00">OPL&#45;2.1</text>
</g>
<!-- 6002&#45;&gt;6001 -->
<g id="edge24" class="edge">
<title>6002&#45;&gt;6001</title>
<path fill="none" stroke="black" stroke-width="2" d="M2234.5,-1696.83C2190.55,-1669.51 2173.03,-1651.57 2090.53,-1557.5"/>
<polygon fill="black" stroke="black" stroke-width="2" points="2084.75,-1550.92 2094.73,-1555.47 2086.82,-1552.51 2091.72,-1558.11 2091.35,-1558.44 2090.97,-1558.76 2086.07,-1553.17 2087.96,-1561.4 2084.75,-1550.92"/>
</g>
<!-- 6003 -->
<g id="node14" class="node">
<title>6003</title>
<polygon fill="none" stroke="#b8bf62" points="2610.93,-1650.3 2610.93,-1665.21 2525.15,-1675.76 2403.84,-1675.76 2318.06,-1665.21 2318.06,-1650.3 2403.84,-1639.76 2525.15,-1639.76 2610.93,-1650.3"/>
<polygon fill="none" stroke="#b8bf62" points="2614.93,-1646.76 2614.93,-1668.75 2525.39,-1679.76 2403.59,-1679.76 2314.06,-1668.75 2314.06,-1646.76 2403.59,-1635.76 2525.39,-1635.76 2614.93,-1646.76"/>
<text text-anchor="middle" x="2464.49" y="-1652.71" font-family="Times,serif" font-size="14.00">OSET Foundation Public License</text>
</g>
<!-- 6003&#45;&gt;6001 -->
<g id="edge25" class="edge">
<title>6003&#45;&gt;6001</title>
<path fill="none" stroke="#b8bf62" stroke-width="2" d="M2315.09,-1646.2C2269.04,-1633.16 2215.12,-1606.2 2109.89,-1551.11"/>
<polygon fill="#b8bf62" stroke="#b8bf62" stroke-width="2" points="2102.38,-1547.18 2113.32,-1547.83 2104.88,-1547.92 2111.47,-1551.37 2111.23,-1551.82 2111,-1552.26 2104.41,-1548.81 2109.15,-1555.8 2102.38,-1547.18"/>
</g>
<!-- 6004 -->
<g id="node15" class="node">
<title>6004</title>
<text text-anchor="middle" x="3113.82" y="-1605.23" font-family="Times,serif" font-size="14.00">OSET Foundation Page: https://www.osetfoundation.org/public&#45;license</text>
</g>
<!-- 6004&#45;&gt;6000 -->
<g id="edge26" class="edge">
<title>6004&#45;&gt;6000</title>
<path fill="none" stroke="#b8bf62" d="M3094.19,-1592.28C2987.48,-1494.64 2965.34,-1480.09 2688.97,-1330.92"/>
<polygon fill="#b8bf62" stroke="#b8bf62" points="2690.82,-1327.94 2680.36,-1326.27 2687.5,-1334.1 2690.82,-1327.94"/>
</g>
<!-- 6005 -->
<g id="node16" class="node">
<title>6005</title>
<text text-anchor="middle" x="3115.41" y="-1162.53" font-family="Times,serif" font-size="14.00">OSI Page: https://opensource.org/licenses/OPL&#45;2.1</text>
</g>
<!-- 6005&#45;&gt;6000 -->
<g id="edge27" class="edge">
<title>6005&#45;&gt;6000</title>
<path fill="none" stroke="#b8bf62" d="M3079.89,-1185.49C2987.03,-1231.79 2952.26,-1242.53 2757.73,-1275.73"/>
<polygon fill="#b8bf62" stroke="#b8bf62" points="2757.29,-1272.26 2748.02,-1277.38 2758.46,-1279.16 2757.29,-1272.26"/>
</g>
<!-- 6006 -->
<g id="node17" class="node">
<title>6006</title>
<text text-anchor="middle" x="3452.85" y="-1219.52" font-family="Times,serif" font-size="14.00">PDF: https://static1.squarespace.com/static/528d46a2e4b059766439fa8b/t/53236a37e4b0db70c9afdf14/1394829879761/OSETPublicLicense_v2.pdf</text>
</g>
<!-- 6006&#45;&gt;6000 -->
<g id="edge28" class="edge">
<title>6006&#45;&gt;6000</title>
<path fill="none" stroke="#b8bf62" d="M3365.04,-1242.52C3216.48,-1271.97 3146.72,-1277.63 2798.05,-1291.13"/>
<polygon fill="#b8bf62" stroke="#b8bf62" points="2797.97,-1287.64 2788.11,-1291.52 2798.24,-1294.63 2797.97,-1287.64"/>
</g>
<!-- 6007 -->
<g id="node18" class="node">
<title>6007</title>
<text text-anchor="middle" x="3107.42" y="-1388.25" font-family="Times,serif" font-size="14.00">HTML: https://opensource.org/licenses/OPL&#45;2.1</text>
</g>
<!-- 6007&#45;&gt;6000 -->
<g id="edge29" class="edge">
<title>6007&#45;&gt;6000</title>
<path fill="none" stroke="#b8bf62" d="M3018.02,-1375.32C2955.93,-1362.86 2902.21,-1352.18 2748.13,-1321.61"/>
<polygon fill="#b8bf62" stroke="#b8bf62" points="2748.84,-1318.18 2738.35,-1319.67 2747.47,-1325.05 2748.84,-1318.18"/>
</g>
<!-- 12439 -->
<g id="node19" class="node">
<title>12439</title>
<text text-anchor="middle" x="261.96" y="-1023.93" font-family="Times,serif" font-size="14.00">LicenseType Copyleft Limited</text>
</g>
<!-- 12439&#45;&gt;23992 -->
<g id="edge30" class="edge">
<title>12439&#45;&gt;23992</title>
<path fill="none" stroke="#deb256" d="M353.94,-1022.74C392.48,-1020.96 431.66,-1020.82 507.27,-1021.96"/>
<polygon fill="#deb256" stroke="#deb256" points="507.13,-1025.46 517.18,-1022.12 507.24,-1018.46 507.13,-1025.46"/>
</g>
<!-- 23992&#45;&gt;23993 -->
<g id="edge31" class="edge">
<title>23992&#45;&gt;23993</title>
<path fill="none" stroke="#deb256" d="M702.08,-1054.05C827.83,-1195 855.48,-1210.75 1200.48,-1345.58"/>
<polygon fill="#deb256" stroke="#deb256" points="1199.04,-1348.78 1209.63,-1349.16 1201.59,-1342.26 1199.04,-1348.78"/>
</g>
<!-- 23993&#45;&gt;3897 -->
<g id="edge32" class="edge">
<title>23993&#45;&gt;3897</title>
<path fill="none" stroke="#00876c" stroke-width="2" d="M1350.13,-1356.59C1428.1,-1341.43 1541.28,-1316.87 1616.82,-1298.7"/>
<polygon fill="#00876c" stroke="#00876c" stroke-width="2" points="1625.32,-1296.64 1616.66,-1303.37 1622.94,-1297.73 1615.72,-1299.48 1615.6,-1299 1615.48,-1298.51 1622.71,-1296.76 1614.54,-1294.62 1625.32,-1296.64"/>
</g>
<!-- 23993&#45;&gt;53680 -->
<g id="edge33" class="edge">
<title>23993&#45;&gt;53680</title>
<path fill="none" stroke="#379469" stroke-dasharray="5,2" d="M1268,-1392.26C1329.45,-1653.01 1338.66,-1673.53 1530.25,-1800.5"/>
<polygon fill="#379469" stroke="#379469" points="1538.5,-1805.95 1527.68,-1804.19 1535.35,-1803.86 1530.16,-1800.43 1530.16,-1800.43 1530.16,-1800.43 1535.35,-1803.86 1532.64,-1796.68 1538.5,-1805.95"/>
</g>
<!-- 23994 -->
<g id="node22" class="node">
<title>23994</title>
<text text-anchor="middle" x="454.88" y="-567.38" font-family="Times,serif" font-size="14.00">http://www.osetfoundation.org/public&#45;license/</text>
</g>
<!-- 23994&#45;&gt;23992 -->
<g id="edge34" class="edge">
<title>23994&#45;&gt;23992</title>
<path fill="none" stroke="#deb256" d="M456.08,-590.37C467.74,-763.22 473.92,-779.3 645.28,-987.41"/>
<polygon fill="#deb256" stroke="#deb256" points="642.48,-989.51 651.54,-995.01 647.88,-985.06 642.48,-989.51"/>
</g>
<!-- 23995 -->
<g id="node23" class="node">
<title>23995</title>
<text text-anchor="middle" x="212.68" y="-866.36" font-family="Times,serif" font-size="14.00">https://opensource.org/licenses/OPL&#45;2.1</text>
</g>
<!-- 23995&#45;&gt;23992 -->
<g id="edge35" class="edge">
<title>23995&#45;&gt;23992</title>
<path fill="none" stroke="#deb256" d="M251.47,-889.41C338.82,-929.56 373.52,-941.16 576.79,-997.55"/>
<polygon fill="#deb256" stroke="#deb256" points="575.84,-1000.92 586.41,-1000.22 577.71,-994.18 575.84,-1000.92"/>
</g>
<!-- 23996 -->
<g id="node24" class="node">
<title>23996</title>
<text text-anchor="middle" x="262.35" y="-1283.47" font-family="Times,serif" font-size="14.00">OSI: https://opensource.org/licenses/OPL&#45;2.1</text>
</g>
<!-- 23996&#45;&gt;23992 -->
<g id="edge36" class="edge">
<title>23996&#45;&gt;23992</title>
<path fill="none" stroke="#deb256" d="M276.99,-1270.79C363.24,-1166.61 382.36,-1152.27 603.48,-1056.51"/>
<polygon fill="#deb256" stroke="#deb256" points="604.65,-1059.82 612.43,-1052.64 601.87,-1053.4 604.65,-1059.82"/>
</g>
<!-- 23997 -->
<g id="node25" class="node">
<title>23997</title>
<text text-anchor="middle" x="148.87" y="-1115.26" font-family="Times,serif" font-size="14.00">http://www.osetfoundation.org/s/OPL_v21&#45;plain.txt</text>
</g>
<!-- 23997&#45;&gt;23992 -->
<g id="edge37" class="edge">
<title>23997&#45;&gt;23992</title>
<path fill="none" stroke="#deb256" d="M201.7,-1102.32C292.09,-1072.21 335.73,-1063.81 529.21,-1041.62"/>
<polygon fill="#deb256" stroke="#deb256" points="529.61,-1045.1 539.15,-1040.48 528.81,-1038.14 529.61,-1045.1"/>
</g>
<!-- 23998 -->
<g id="node26" class="node">
<title>23998</title>
<text text-anchor="middle" x="294.92" y="-719.62" font-family="Times,serif" font-size="14.00">http://opensource.org/licenses/OPL&#45;2.1</text>
</g>
<!-- 23998&#45;&gt;23992 -->
<g id="edge38" class="edge">
<title>23998&#45;&gt;23992</title>
<path fill="none" stroke="#deb256" d="M308.02,-742.65C384.8,-847.81 401.72,-862.31 619.13,-991.22"/>
<polygon fill="#deb256" stroke="#deb256" points="617.28,-994.19 627.66,-996.28 620.84,-988.17 617.28,-994.19"/>
</g>
<!-- 23999 -->
<g id="node27" class="node">
<title>23999</title>
<text text-anchor="middle" x="472.81" y="-761.43" font-family="Times,serif" font-size="14.00">$TEXT</text>
</g>
<!-- 23999&#45;&gt;23992 -->
<g id="edge39" class="edge">
<title>23999&#45;&gt;23992</title>
<path fill="none" stroke="#deb256" d="M478.51,-784.31C507.34,-873.82 517.04,-888.45 634.27,-989.1"/>
<polygon fill="#deb256" stroke="#deb256" points="631.88,-991.67 641.74,-995.52 636.43,-986.35 631.88,-991.67"/>
</g>
<!-- 34893&#45;&gt;34894 -->
<g id="edge40" class="edge">
<title>34893&#45;&gt;34894</title>
<path fill="none" stroke="#e18745" d="M1089.61,-1312.11C1163.15,-1341.7 1207.67,-1348.55 1373.39,-1358.01"/>
<polygon fill="#e18745" stroke="#e18745" points="1372.79,-1361.48 1382.97,-1358.55 1373.19,-1354.49 1372.79,-1361.48"/>
</g>
<!-- 34895 -->
<g id="node30" class="node">
<title>34895</title>
<text text-anchor="middle" x="686.46" y="-1435.23" font-family="Times,serif" font-size="14.00">$TEXT</text>
</g>
<!-- 34895&#45;&gt;34893 -->
<g id="edge41" class="edge">
<title>34895&#45;&gt;34893</title>
<path fill="none" stroke="#e18745" d="M713.73,-1422.35C775.61,-1382.05 800.98,-1370.15 945.87,-1315.55"/>
<polygon fill="#e18745" stroke="#e18745" points="946.97,-1318.87 955.1,-1312.08 944.5,-1312.32 946.97,-1318.87"/>
</g>
<!-- 35433 -->
<g id="node31" class="node">
<title>35433</title>
<text text-anchor="middle" x="1509.15" y="-13.39" font-family="Times,serif" font-size="14.00">LicenseTag (ScopedLicenseTag &quot;OrtLicenseCategorization&quot; &quot;include&#45;in&#45;notice&#45;file&quot; NoLicenseTagText)</text>
</g>
<!-- 39801 -->
<g id="node34" class="node">
<title>39801</title>
<ellipse fill="none" stroke="#d43d51" cx="1504.48" cy="-720.51" rx="159.28" ry="28.99"/>
<text text-anchor="middle" x="1504.48" y="-723.71" font-family="Times,serif" font-size="14.00" fill="gray">OrtLicenseCategorization</text>
<text text-anchor="middle" x="1504.48" y="-707.21" font-family="Times,serif" font-size="14.00" fill="gray">b9d01806f4bc82ead98a79c80c707b4d</text>
</g>
<!-- 35433&#45;&gt;39801 -->
<g id="edge42" class="edge">
<title>35433&#45;&gt;39801</title>
<path fill="none" stroke="#d43d51" d="M1503.76,-36.28C1442.32,-239.8 1442.05,-257.6 1499.01,-680.01"/>
<polygon fill="#d43d51" stroke="#d43d51" points="1495.53,-680.41 1500.34,-689.85 1502.47,-679.47 1495.53,-680.41"/>
</g>
<!-- 35444 -->
<g id="node32" class="node">
<title>35444</title>
<text text-anchor="middle" x="1469.65" y="-660.27" font-family="Times,serif" font-size="14.00">LicenseTag (ScopedLicenseTag &quot;OrtLicenseCategorization&quot; &quot;include&#45;source&#45;code&#45;offer&#45;in&#45;notice&#45;file&quot; NoLicenseTagText)</text>
</g>
<!-- 35444&#45;&gt;39801 -->
<g id="edge43" class="edge">
<title>35444&#45;&gt;39801</title>
<path fill="none" stroke="#d43d51" d="M1478.61,-683.03C1478.7,-683.18 1478.79,-683.34 1478.89,-683.5"/>
<polygon fill="#d43d51" stroke="#d43d51" points="1474.92,-683.8 1483.28,-690.31 1480.8,-680.01 1474.92,-683.8"/>
</g>
<!-- 35459 -->
<g id="node33" class="node">
<title>35459</title>
<text text-anchor="middle" x="1251.55" y="-80.4" font-family="Times,serif" font-size="14.00">LicenseTag (ScopedLicenseTag &quot;OrtLicenseCategorization&quot; &quot;copyleft&#45;limited&quot; NoLicenseTagText)</text>
</g>
<!-- 35459&#45;&gt;39801 -->
<g id="edge44" class="edge">
<title>35459&#45;&gt;39801</title>
<path fill="none" stroke="#d43d51" d="M1255.53,-103.42C1296.18,-286.8 1303.11,-304.34 1485.49,-681.28"/>
<polygon fill="#d43d51" stroke="#d43d51" points="1482.22,-682.55 1489.73,-690.03 1488.52,-679.5 1482.22,-682.55"/>
</g>
<!-- 39801&#45;&gt;3897 -->
<g id="edge45" class="edge">
<title>39801&#45;&gt;3897</title>
<path fill="none" stroke="#d43d51" d="M1503.28,-749.91C1495.85,-939.06 1503.6,-959.75 1674.52,-1239.8"/>
<polygon fill="#d43d51" stroke="#d43d51" points="1671.42,-1241.44 1679.62,-1248.15 1677.4,-1237.79 1671.42,-1241.44"/>
</g>
<!-- 42148 -->
<g id="node35" class="node">
<title>42148</title>
<ellipse fill="none" stroke="#379469" cx="2142.84" cy="-2260.59" rx="157.68" ry="28.99"/>
<text text-anchor="middle" x="2142.84" y="-2263.79" font-family="Times,serif" font-size="14.00" fill="gray">CavilLicenseChange</text>
<text text-anchor="middle" x="2142.84" y="-2247.29" font-family="Times,serif" font-size="14.00" fill="gray">35d21a39f302b53f072430ab553a2bf5</text>
</g>
<!-- 42148&#45;&gt;42149 -->
<g id="edge46" class="edge">
<title>42148&#45;&gt;42149</title>
<path fill="none" stroke="#379469" d="M2100.65,-2232.22C2011.73,-2170.99 1993.59,-2142.48 1879.75,-1933.4"/>
<polygon fill="#379469" stroke="#379469" points="1882.83,-1931.75 1874.98,-1924.64 1876.68,-1935.1 1882.83,-1931.75"/>
</g>
<!-- 53679 -->
<g id="node37" class="node">
<title>53679</title>
<ellipse fill="none" stroke="#379469" cx="1167.69" cy="-2172.19" rx="157.15" ry="28.99"/>
<text text-anchor="middle" x="1167.69" y="-2175.39" font-family="Times,serif" font-size="14.00" fill="gray">MetaeffektLicense</text>
<text text-anchor="middle" x="1167.69" y="-2158.89" font-family="Times,serif" font-size="14.00" fill="gray">63b63d3fb07cb2de7e03ed28f3bac42e</text>
</g>
<!-- 53679&#45;&gt;53680 -->
<g id="edge47" class="edge">
<title>53679&#45;&gt;53680</title>
<path fill="none" stroke="#379469" d="M1215.63,-2144.18C1310.83,-2087.55 1341.31,-2059.07 1542.73,-1859.35"/>
<polygon fill="#379469" stroke="#379469" points="1545.18,-1861.85 1549.82,-1852.32 1540.25,-1856.88 1545.18,-1861.85"/>
</g>
<!-- 53681 -->
<g id="node39" class="node">
<title>53681</title>
<polygon fill="none" stroke="#379469" points="1357.57,-2233.03 1357.57,-2247.94 1290.93,-2258.49 1196.7,-2258.49 1130.07,-2247.94 1130.07,-2233.03 1196.7,-2222.49 1290.93,-2222.49 1357.57,-2233.03"/>
<polygon fill="none" stroke="#379469" points="1361.57,-2229.61 1361.57,-2251.36 1291.25,-2262.49 1196.39,-2262.49 1126.07,-2251.36 1126.07,-2229.61 1196.39,-2218.49 1291.25,-2218.49 1361.57,-2229.61"/>
<text text-anchor="middle" x="1243.82" y="-2235.44" font-family="Times,serif" font-size="14.00">OSET Public License 2.1</text>
</g>
<!-- 53681&#45;&gt;53680 -->
<g id="edge48" class="edge">
<title>53681&#45;&gt;53680</title>
<path fill="none" stroke="#379469" stroke-width="2" d="M1265.32,-2218.02C1351.85,-2127.4 1368.3,-2106.2 1550.26,-1860.21"/>
<polygon fill="#379469" stroke="#379469" stroke-width="2" points="1555.36,-1853.32 1553.03,-1864.04 1554.24,-1855.68 1549.81,-1861.66 1549.41,-1861.36 1549.01,-1861.07 1553.43,-1855.09 1545.79,-1858.69 1555.36,-1853.32"/>
</g>
<!-- 53682 -->
<g id="node40" class="node">
<title>53682</title>
<polygon fill="none" stroke="#379469" points="1720.17,-2220.2 1720.17,-2235.11 1690.54,-2245.66 1648.62,-2245.66 1618.98,-2235.11 1618.98,-2220.2 1648.62,-2209.66 1690.54,-2209.66 1720.17,-2220.2"/>
<text text-anchor="middle" x="1669.58" y="-2222.61" font-family="Times,serif" font-size="14.00">OSET PL</text>
</g>
<!-- 53682&#45;&gt;53680 -->
<g id="edge49" class="edge">
<title>53682&#45;&gt;53680</title>
<path fill="none" stroke="#379469" stroke-dasharray="5,2" d="M1658.2,-2209.29C1596.58,-2109.38 1592.91,-2092.33 1575.87,-1862.44"/>
<polygon fill="#379469" stroke="#379469" points="1575.14,-1852.55 1580.36,-1862.19 1575.42,-1856.32 1575.87,-1862.52 1575.87,-1862.52 1575.87,-1862.52 1575.42,-1856.32 1571.39,-1862.85 1575.14,-1852.55"/>
</g>
<!-- 53683 -->
<g id="node41" class="node">
<title>53683</title>
<polygon fill="none" stroke="#379469" points="1652.52,-1877.29 1652.52,-1892.2 1593.02,-1902.75 1508.89,-1902.75 1449.39,-1892.2 1449.39,-1877.29 1508.89,-1866.75 1593.02,-1866.75 1652.52,-1877.29"/>
<text text-anchor="middle" x="1550.95" y="-1879.7" font-family="Times,serif" font-size="14.00">OSET PL, Version 2.1</text>
</g>
<!-- 53683&#45;&gt;53680 -->
<g id="edge50" class="edge">
<title>53683&#45;&gt;53680</title>
<path fill="none" stroke="#379469" stroke-dasharray="5,2" d="M1557.3,-1866.4C1557.91,-1864.84 1558.59,-1863.16 1559.38,-1861.27"/>
<polygon fill="#379469" stroke="#379469" points="1563.12,-1852.5 1563.34,-1863.46 1561.64,-1855.97 1559.2,-1861.69 1559.2,-1861.69 1559.2,-1861.69 1561.64,-1855.97 1555.06,-1859.93 1563.12,-1852.5"/>
</g>
<!-- 53684 -->
<g id="node42" class="node">
<title>53684</title>
<polygon fill="none" stroke="#379469" points="1629.5,-2298.66 1629.5,-2313.57 1589.16,-2324.11 1532.09,-2324.11 1491.75,-2313.57 1491.75,-2298.66 1532.09,-2288.11 1589.16,-2288.11 1629.5,-2298.66"/>
<text text-anchor="middle" x="1560.62" y="-2301.06" font-family="Times,serif" font-size="14.00">OSET PL, 2.1</text>
</g>
<!-- 53684&#45;&gt;53680 -->
<g id="edge51" class="edge">
<title>53684&#45;&gt;53680</title>
<path fill="none" stroke="#379469" stroke-dasharray="5,2" d="M1557.08,-2287.97C1532.3,-2160.35 1532.96,-2143.45 1569.1,-1862.34"/>
<polygon fill="#379469" stroke="#379469" points="1570.35,-1852.57 1573.54,-1863.06 1569.87,-1856.32 1569.08,-1862.49 1569.08,-1862.49 1569.08,-1862.49 1569.87,-1856.32 1564.61,-1861.91 1570.35,-1852.57"/>
</g>
<!-- 53685 -->
<g id="node43" class="node">
<title>53685</title>
<polygon fill="none" stroke="#379469" points="1935.34,-2245.06 1935.34,-2259.97 1875.52,-2270.52 1790.92,-2270.52 1731.11,-2259.97 1731.11,-2245.06 1790.92,-2234.52 1875.52,-2234.52 1935.34,-2245.06"/>
<text text-anchor="middle" x="1833.22" y="-2247.47" font-family="Times,serif" font-size="14.00">OSET&#45;PL, Version 2.1</text>
</g>
<!-- 53685&#45;&gt;53680 -->
<g id="edge52" class="edge">
<title>53685&#45;&gt;53680</title>
<path fill="none" stroke="#379469" stroke-dasharray="5,2" d="M1808.74,-2234.21C1683.03,-2139.79 1673.02,-2121.15 1584.62,-1861.9"/>
<polygon fill="#379469" stroke="#379469" points="1581.43,-1852.53 1588.91,-1860.54 1582.65,-1856.11 1584.65,-1861.99 1584.65,-1861.99 1584.65,-1861.99 1582.65,-1856.11 1580.39,-1863.45 1581.43,-1852.53"/>
</g>
<!-- 53686 -->
<g id="node44" class="node">
<title>53686</title>
<polygon fill="none" stroke="#379469" points="1524.85,-2231.41 1524.85,-2246.33 1484.18,-2256.87 1426.66,-2256.87 1385.98,-2246.33 1385.98,-2231.41 1426.66,-2220.87 1484.18,-2220.87 1524.85,-2231.41"/>
<text text-anchor="middle" x="1455.42" y="-2233.82" font-family="Times,serif" font-size="14.00">OSET&#45;PL, 2.1</text>
</g>
<!-- 53686&#45;&gt;53680 -->
<g id="edge53" class="edge">
<title>53686&#45;&gt;53680</title>
<path fill="none" stroke="#379469" stroke-dasharray="5,2" d="M1458.57,-2220.64C1476.95,-2114.78 1481.88,-2098.09 1562.35,-1861.43"/>
<polygon fill="#379469" stroke="#379469" points="1565.47,-1852.24 1566.51,-1863.16 1564.25,-1855.82 1562.25,-1861.71 1562.25,-1861.71 1562.25,-1861.71 1564.25,-1855.82 1557.99,-1860.26 1565.47,-1852.24"/>
</g>
<!-- 53687 -->
<g id="node45" class="node">
<title>53687</title>
<polygon fill="none" stroke="#379469" points="1185.36,-2108.48 1185.36,-2123.39 1003.85,-2133.93 747.16,-2133.93 565.65,-2123.39 565.65,-2108.48 747.16,-2097.93 1003.85,-2097.93 1185.36,-2108.48"/>
<text text-anchor="middle" x="875.51" y="-2110.88" font-family="Times,serif" font-size="14.00">OSET Public License (c) 2015 ALL RIGHTS RESERVED VERSION 2.1</text>
</g>
<!-- 53687&#45;&gt;53680 -->
<g id="edge54" class="edge">
<title>53687&#45;&gt;53680</title>
<path fill="none" stroke="#379469" stroke-dasharray="5,2" d="M1009.79,-2097.81C1139.68,-2075.14 1214.89,-2034.48 1524.75,-1856.84"/>
<polygon fill="#379469" stroke="#379469" points="1533.4,-1851.88 1526.97,-1860.75 1530.12,-1853.76 1524.73,-1856.85 1524.73,-1856.85 1524.73,-1856.85 1530.12,-1853.76 1522.49,-1852.95 1533.4,-1851.88"/>
</g>
<!-- 68214 -->
<g id="node46" class="node">
<title>68214</title>
<ellipse fill="none" stroke="#00876c" cx="2054.11" cy="-1045.7" rx="156.62" ry="28.99"/>
<text text-anchor="middle" x="2054.11" y="-1048.9" font-family="Times,serif" font-size="14.00" fill="gray">LicenseLynx</text>
<text text-anchor="middle" x="2054.11" y="-1032.4" font-family="Times,serif" font-size="14.00" fill="gray">bdb25874f5ec7f5cd94e7ee8c3a36654</text>
</g>
<!-- 68214&#45;&gt;3897 -->
<g id="edge55" class="edge">
<title>68214&#45;&gt;3897</title>
<path fill="none" stroke="#00876c" d="M1991.4,-1072.69C1814.01,-1149.36 1786.85,-1165.76 1724.69,-1241.14"/>
<polygon fill="#00876c" stroke="#00876c" points="1722.33,-1238.5 1718.7,-1248.45 1727.75,-1242.93 1722.33,-1238.5"/>
</g>
<!-- 68215&#45;&gt;3897 -->
<g id="edge56" class="edge">
<title>68215&#45;&gt;3897</title>
<path fill="none" stroke="#00876c" stroke-width="2" d="M1728.2,-1240.58C1727.41,-1241.22 1726.64,-1241.84 1725.91,-1242.44"/>
<polygon fill="#00876c" stroke="#00876c" stroke-width="2" points="1719.57,-1247.86 1724.25,-1237.94 1721.19,-1245.81 1726.85,-1240.98 1727.17,-1241.36 1727.5,-1241.74 1721.84,-1246.57 1730.1,-1244.79 1719.57,-1247.86"/>
</g>
</g>
</svg>
