<?xml version="1.0" encoding="UTF-8" standalone="no"?>
<!DOCTYPE svg PUBLIC "-//W3C//DTD SVG 1.1//EN"
 "http://www.w3.org/Graphics/SVG/1.1/DTD/svg11.dtd">
<!-- Generated by graphviz version 10.0.1 (0)
 -->
<!-- Pages: 1 -->
<svg width="2046pt" height="1625pt"
 viewBox="0.00 0.00 2046.00 1625.00" xmlns="http://www.w3.org/2000/svg" xmlns:xlink="http://www.w3.org/1999/xlink">
<g id="graph0" class="graph" transform="scale(1 1) rotate(0) translate(4 1621)">
<polygon fill="white" stroke="none" points="-4,4 -4,-1621 2042,-1621 2042,4 -4,4"/>
<!-- 5 -->
<g id="node1" class="node">
<title>5</title>
<text text-anchor="start" x="1677.38" y="-675.4" font-family="Times,serif" font-size="14.00">OSI: </text>
<text text-anchor="start" x="1706.63" y="-675.4" font-family="Times,serif" font-weight="bold" font-size="14.00" fill="#8b0000">Rejected</text>
</g>
<!-- 3991 -->
<g id="node2" class="node">
<title>3991</title>
<ellipse fill="none" stroke="#dac767" cx="1457.98" cy="-463.06" rx="158.22" ry="28.99"/>
<text text-anchor="middle" x="1457.98" y="-466.26" font-family="Times,serif" font-size="14.00" fill="gray">SPDXLicense</text>
<text text-anchor="middle" x="1457.98" y="-449.76" font-family="Times,serif" font-size="14.00" fill="gray">f51800e3f304b4e7ce611e49dd5562b7</text>
</g>
<!-- 5&#45;&gt;3991 -->
<g id="edge1" class="edge">
<title>5&#45;&gt;3991</title>
<path fill="none" stroke="#dac767" d="M1708.27,-661.79C1658.5,-563 1644.84,-545.25 1530.79,-494.57"/>
<polygon fill="#dac767" stroke="#dac767" points="1532.51,-491.51 1521.94,-490.67 1529.68,-497.91 1532.51,-491.51"/>
</g>
<!-- 3992 -->
<g id="node3" class="node">
<title>3992</title>
<polygon fill="none" stroke="black" points="1040.6,-627.8 1040.6,-642.71 1005.77,-653.26 956.51,-653.26 921.68,-642.71 921.68,-627.8 956.51,-617.26 1005.77,-617.26 1040.6,-627.8"/>
<polygon fill="none" stroke="black" points="1044.6,-624.83 1044.6,-645.68 1006.36,-657.26 955.92,-657.26 917.68,-645.68 917.68,-624.83 955.92,-613.26 1006.36,-613.26 1044.6,-624.83"/>
<polygon fill="none" stroke="black" points="1048.6,-621.86 1048.6,-648.65 1006.95,-661.26 955.33,-661.26 913.68,-648.65 913.68,-621.86 955.33,-609.26 1006.95,-609.26 1048.6,-621.86"/>
<text text-anchor="middle" x="981.14" y="-630.21" font-family="Times,serif" font-size="14.00">spdx:PADL</text>
</g>
<!-- 3991&#45;&gt;3992 -->
<g id="edge2" class="edge">
<title>3991&#45;&gt;3992</title>
<path fill="none" stroke="#dac767" d="M1313.7,-475.19C1249.1,-489.13 1186.05,-522.04 1031.04,-607.65"/>
<polygon fill="#dac767" stroke="#dac767" points="1029.57,-604.47 1022.51,-612.37 1032.95,-610.6 1029.57,-604.47"/>
</g>
<!-- 24233 -->
<g id="node12" class="node">
<title>24233</title>
<polygon fill="none" stroke="black" points="946.48,-530.9 946.48,-545.81 906.46,-556.36 849.85,-556.36 809.83,-545.81 809.83,-530.9 849.85,-520.36 906.46,-520.36 946.48,-530.9"/>
<polygon fill="none" stroke="black" points="950.48,-527.82 950.48,-548.89 906.97,-560.36 849.34,-560.36 805.83,-548.89 805.83,-527.82 849.34,-516.36 906.97,-516.36 950.48,-527.82"/>
<text text-anchor="middle" x="878.15" y="-533.31" font-family="Times,serif" font-size="14.00">scancode:padl</text>
</g>
<!-- 3992&#45;&gt;24233 -->
<g id="edge3" class="edge">
<title>3992&#45;&gt;24233</title>
<path fill="none" stroke="#deb256" stroke-width="2" d="M961.47,-608.82C949.14,-595.82 932.86,-580.2 917.94,-566.94"/>
<polygon fill="#deb256" stroke="#deb256" stroke-width="2" points="911.67,-561.45 922.16,-564.65 913.92,-562.76 919.52,-567.66 919.19,-568.04 918.86,-568.41 913.27,-563.52 916.23,-571.42 911.67,-561.45"/>
</g>
<!-- 55831 -->
<g id="node20" class="node">
<title>55831</title>
<polygon fill="none" stroke="#379469" points="747.82,-508.47 747.82,-523.38 679.24,-533.92 582.26,-533.92 513.68,-523.38 513.68,-508.47 582.26,-497.92 679.24,-497.92 747.82,-508.47"/>
<polygon fill="none" stroke="#379469" points="751.82,-505.03 751.82,-526.81 679.55,-537.92 581.95,-537.92 509.68,-526.81 509.68,-505.03 581.95,-493.92 679.55,-493.92 751.82,-505.03"/>
<text text-anchor="middle" x="630.75" y="-510.87" font-family="Times,serif" font-size="14.00">metaeffekt:PADL License</text>
</g>
<!-- 3992&#45;&gt;55831 -->
<g id="edge4" class="edge">
<title>3992&#45;&gt;55831</title>
<path fill="none" stroke="#379469" stroke-width="2" d="M938.87,-613.82C845.13,-566.36 797.25,-543.07 757.24,-531.01"/>
<polygon fill="#379469" stroke="#379469" stroke-width="2" points="749.03,-528.7 759.87,-527.08 751.63,-528.92 758.79,-530.93 758.65,-531.41 758.52,-531.89 751.36,-529.88 757.43,-535.74 749.03,-528.7"/>
</g>
<!-- 3993 -->
<g id="node4" class="node">
<title>3993</title>
<polygon fill="none" stroke="black" points="762.21,-713.63 762.21,-728.54 740.04,-739.09 708.68,-739.09 686.5,-728.54 686.5,-713.63 708.68,-703.09 740.04,-703.09 762.21,-713.63"/>
<polygon fill="none" stroke="black" points="766.21,-711.1 766.21,-731.07 740.94,-743.09 707.78,-743.09 682.5,-731.07 682.5,-711.1 707.78,-699.09 740.94,-699.09 766.21,-711.1"/>
<text text-anchor="middle" x="724.36" y="-716.04" font-family="Times,serif" font-size="14.00">PADL</text>
</g>
<!-- 3993&#45;&gt;3992 -->
<g id="edge5" class="edge">
<title>3993&#45;&gt;3992</title>
<path fill="none" stroke="black" stroke-width="2" d="M746.43,-701.56C798.34,-656.28 818.13,-646.54 902.22,-640.1"/>
<polygon fill="black" stroke="black" stroke-width="2" points="910.94,-639.46 901.29,-644.68 908.42,-640.15 901,-640.69 900.96,-640.19 900.93,-639.69 908.34,-639.15 900.64,-635.7 910.94,-639.46"/>
</g>
<!-- 3993&#45;&gt;24233 -->
<g id="edge6" class="edge">
<title>3993&#45;&gt;24233</title>
<path fill="none" stroke="black" stroke-width="2" d="M731.74,-698.71C759.15,-616.23 768.63,-599.52 831.54,-563.77"/>
<polygon fill="black" stroke="black" stroke-width="2" points="839.1,-559.54 832.57,-568.35 837.1,-561.23 830.62,-564.87 830.37,-564.43 830.13,-563.99 836.62,-560.36 828.17,-560.5 839.1,-559.54"/>
</g>
<!-- 42162 -->
<g id="node18" class="node">
<title>42162</title>
<polygon fill="none" stroke="#379469" points="549.93,-832.74 549.93,-847.65 514.78,-858.2 465.06,-858.2 429.91,-847.65 429.91,-832.74 465.06,-822.2 514.78,-822.2 549.93,-832.74"/>
<polygon fill="none" stroke="#379469" points="553.93,-829.76 553.93,-850.63 515.37,-862.2 464.47,-862.2 425.91,-850.63 425.91,-829.76 464.47,-818.2 515.37,-818.2 553.93,-829.76"/>
<text text-anchor="middle" x="489.92" y="-835.15" font-family="Times,serif" font-size="14.00">cavil:PADL</text>
</g>
<!-- 3993&#45;&gt;42162 -->
<g id="edge7" class="edge">
<title>3993&#45;&gt;42162</title>
<path fill="none" stroke="#379469" stroke-width="2" d="M686.74,-733.52C581.17,-768.56 556.69,-778.63 520.97,-810.65"/>
<polygon fill="#379469" stroke="#379469" stroke-width="2" points="514.94,-816.18 519.26,-806.11 516.49,-814.08 521.97,-809.06 522.31,-809.42 522.64,-809.79 517.16,-814.82 525.35,-812.74 514.94,-816.18"/>
</g>
<!-- 3993&#45;&gt;55831 -->
<g id="edge8" class="edge">
<title>3993&#45;&gt;55831</title>
<path fill="none" stroke="#379469" stroke-dasharray="5,2" d="M708.96,-698.83C650.3,-613.89 639.91,-596 634.14,-549.48"/>
<polygon fill="#379469" stroke="#379469" points="633.03,-539.6 638.62,-549.03 633.45,-543.36 634.15,-549.54 634.15,-549.54 634.15,-549.54 633.45,-543.36 629.67,-550.04 633.03,-539.6"/>
</g>
<!-- 3994 -->
<g id="node5" class="node">
<title>3994</title>
<polygon fill="none" stroke="black" points="849.27,-455.13 849.27,-470.04 807.63,-480.58 748.73,-480.58 707.08,-470.04 707.08,-455.13 748.73,-444.58 807.63,-444.58 849.27,-455.13"/>
<polygon fill="none" stroke="black" points="853.27,-452.01 853.27,-473.15 808.12,-484.58 748.23,-484.58 703.08,-473.15 703.08,-452.01 748.23,-440.58 808.12,-440.58 853.27,-452.01"/>
<text text-anchor="middle" x="778.18" y="-457.53" font-family="Times,serif" font-size="14.00">PADL License</text>
</g>
<!-- 3994&#45;&gt;3992 -->
<g id="edge9" class="edge">
<title>3994&#45;&gt;3992</title>
<path fill="none" stroke="#dac767" stroke-width="2" d="M816.29,-482.79C854.41,-504.38 874.63,-523.48 948.61,-601.07"/>
<polygon fill="#dac767" stroke="#dac767" stroke-width="2" points="954.26,-607 944.11,-602.86 952.13,-605.49 947,-600.1 947.36,-599.76 947.73,-599.41 952.86,-604.8 950.62,-596.65 954.26,-607"/>
</g>
<!-- 3994&#45;&gt;24233 -->
<g id="edge10" class="edge">
<title>3994&#45;&gt;24233</title>
<path fill="none" stroke="#deb256" stroke-width="2" d="M816.23,-482.96C824.06,-488.7 832.97,-496.42 846.29,-508.66"/>
<polygon fill="#deb256" stroke="#deb256" stroke-width="2" points="852.38,-514.28 841.98,-510.8 850.16,-512.91 844.69,-507.86 845.03,-507.5 845.37,-507.13 850.83,-512.18 848.09,-504.19 852.38,-514.28"/>
</g>
<!-- 3994&#45;&gt;55831 -->
<g id="edge11" class="edge">
<title>3994&#45;&gt;55831</title>
<path fill="none" stroke="#379469" stroke-width="2" d="M702.84,-468.49C686.76,-471.62 675.92,-476.8 663.36,-486.56"/>
<polygon fill="#379469" stroke="#379469" stroke-width="2" points="656.67,-492.11 661.5,-482.26 658.33,-490.09 664.05,-485.34 664.37,-485.73 664.69,-486.11 658.96,-490.86 667.24,-489.19 656.67,-492.11"/>
</g>
<!-- 68266 -->
<g id="node22" class="node">
<title>68266</title>
<polygon fill="none" stroke="#00876c" points="1007.8,-339.34 1007.8,-354.25 953.5,-364.79 876.71,-364.79 822.4,-354.25 822.4,-339.34 876.71,-328.79 953.5,-328.79 1007.8,-339.34"/>
<polygon fill="none" stroke="#00876c" points="1011.8,-336.04 1011.8,-357.55 953.88,-368.79 876.32,-368.79 818.4,-357.55 818.4,-336.04 876.32,-324.79 953.88,-324.79 1011.8,-336.04"/>
<text text-anchor="middle" x="915.1" y="-341.74" font-family="Times,serif" font-size="14.00">spdx:PADL License</text>
</g>
<!-- 3994&#45;&gt;68266 -->
<g id="edge12" class="edge">
<title>3994&#45;&gt;68266</title>
<path fill="none" stroke="#00876c" stroke-width="2" d="M791.62,-440.2C815.83,-400.23 828.24,-382.82 849.18,-370.79"/>
<polygon fill="#00876c" stroke="#00876c" stroke-width="2" points="856.93,-366.85 850.06,-375.39 854.88,-368.46 848.25,-371.83 848.02,-371.38 847.79,-370.94 854.42,-367.57 845.98,-367.37 856.93,-366.85"/>
</g>
<!-- 3995 -->
<g id="node6" class="node">
<title>3995</title>
<text text-anchor="middle" x="1901.71" y="-539.94" font-family="Times,serif" font-size="14.00">SPDXLicense:</text>
<text text-anchor="middle" x="1901.71" y="-523.44" font-family="Times,serif" font-size="14.00">This is similar to BSD&#45;4.3RENO and Furuseth</text>
</g>
<!-- 3995&#45;&gt;3991 -->
<g id="edge13" class="edge">
<title>3995&#45;&gt;3991</title>
<path fill="none" stroke="#dac767" d="M1863.17,-516.33C1785.82,-476.15 1750.59,-465.66 1627.97,-463.36"/>
<polygon fill="#dac767" stroke="#dac767" points="1628.19,-459.87 1618.13,-463.2 1628.08,-466.87 1628.19,-459.87"/>
</g>
<!-- 3996 -->
<g id="node7" class="node">
<title>3996</title>
<text text-anchor="middle" x="1772.36" y="-259" font-family="Times,serif" font-size="14.00">$TEXT</text>
</g>
<!-- 3996&#45;&gt;3991 -->
<g id="edge14" class="edge">
<title>3996&#45;&gt;3991</title>
<path fill="none" stroke="#dac767" d="M1743.91,-280.11C1679.26,-316.77 1656.03,-331.58 1509.65,-428.75"/>
<polygon fill="#dac767" stroke="#dac767" points="1507.94,-425.68 1501.55,-434.13 1511.82,-431.51 1507.94,-425.68"/>
</g>
<!-- 3997 -->
<g id="node8" class="node">
<title>3997</title>
<text text-anchor="middle" x="1921.66" y="-165.55" font-family="Times,serif" font-size="14.00">$TEXT</text>
</g>
<!-- 3997&#45;&gt;3996 -->
<g id="edge15" class="edge">
<title>3997&#45;&gt;3996</title>
<path fill="none" stroke="#dac767" d="M1893.08,-187.05C1873.43,-198.59 1856.78,-209.2 1809.37,-239.99"/>
<polygon fill="#dac767" stroke="#dac767" points="1807.56,-236.99 1801.08,-245.38 1811.37,-242.86 1807.56,-236.99"/>
</g>
<!-- 3998 -->
<g id="node9" class="node">
<title>3998</title>
<text text-anchor="middle" x="1465.73" y="-398.81" font-family="Times,serif" font-size="14.00">https://git.openldap.org/openldap/openldap/&#45;/blob/master/libraries/libldap/os&#45;local.c?ref_type=heads#L19&#45;23</text>
</g>
<!-- 3998&#45;&gt;3991 -->
<g id="edge16" class="edge">
<title>3998&#45;&gt;3991</title>
<path fill="none" stroke="#dac767" d="M1468.99,-421.72C1469,-421.95 1469.01,-422.18 1469.01,-422.41"/>
<polygon fill="#dac767" stroke="#dac767" points="1465.56,-421.81 1467.73,-432.18 1472.5,-422.72 1465.56,-421.81"/>
</g>
<!-- 24232 -->
<g id="node11" class="node">
<title>24232</title>
<ellipse fill="none" stroke="#deb256" cx="1209.96" cy="-346.87" rx="157.68" ry="28.99"/>
<text text-anchor="middle" x="1209.96" y="-350.07" font-family="Times,serif" font-size="14.00" fill="gray">ScancodeData</text>
<text text-anchor="middle" x="1209.96" y="-333.57" font-family="Times,serif" font-size="14.00" fill="gray">01ddf26161370ed1cbb6b48a01cfe5c9</text>
</g>
<!-- 3998&#45;&gt;24232 -->
<g id="edge17" class="edge">
<title>3998&#45;&gt;24232</title>
<path fill="none" stroke="#deb256" d="M1441.32,-386.13C1415.92,-367.92 1397.7,-356.12 1378.82,-348.99"/>
<polygon fill="#deb256" stroke="#deb256" points="1379.92,-345.67 1369.33,-345.87 1377.74,-352.32 1379.92,-345.67"/>
</g>
<!-- 5550 -->
<g id="node10" class="node">
<title>5550</title>
<text text-anchor="middle" x="1242.62" y="-286.33" font-family="Times,serif" font-size="14.00">LicenseType Permissive</text>
</g>
<!-- 5550&#45;&gt;24232 -->
<g id="edge18" class="edge">
<title>5550&#45;&gt;24232</title>
<path fill="none" stroke="#deb256" d="M1230.63,-309.27C1230.54,-309.42 1230.45,-309.58 1230.36,-309.73"/>
<polygon fill="#deb256" stroke="#deb256" points="1228.4,-306.09 1226.48,-316.51 1234.48,-309.56 1228.4,-306.09"/>
</g>
<!-- 24232&#45;&gt;24233 -->
<g id="edge19" class="edge">
<title>24232&#45;&gt;24233</title>
<path fill="none" stroke="#deb256" d="M1091.98,-366.4C1036.55,-383.01 1000.35,-415.79 908.28,-508.09"/>
<polygon fill="#deb256" stroke="#deb256" points="906.03,-505.39 901.45,-514.94 910.98,-510.33 906.03,-505.39"/>
</g>
<!-- 24233&#45;&gt;3992 -->
<g id="edge20" class="edge">
<title>24233&#45;&gt;3992</title>
<path fill="none" stroke="#00876c" stroke-width="2" d="M893.82,-560.52C905.86,-573.57 922.98,-590.2 938.9,-604.48"/>
<polygon fill="#00876c" stroke="#00876c" stroke-width="2" points="945.25,-610.09 934.78,-606.85 943,-608.77 937.43,-603.85 937.76,-603.47 938.09,-603.1 943.66,-608.02 940.74,-600.1 945.25,-610.09"/>
</g>
<!-- 24233&#45;&gt;55831 -->
<g id="edge21" class="edge">
<title>24233&#45;&gt;55831</title>
<path fill="none" stroke="#379469" stroke-dasharray="5,2" d="M824.84,-522.44C779.7,-509.19 751.98,-502.09 728.98,-500"/>
<polygon fill="#379469" stroke="#379469" points="719.23,-499.44 729.47,-495.52 723,-499.65 729.21,-500.01 729.21,-500.01 729.21,-500.01 723,-499.65 728.95,-504.5 719.23,-499.44"/>
</g>
<!-- 24234 -->
<g id="node13" class="node">
<title>24234</title>
<text text-anchor="middle" x="1244.08" y="-12.51" font-family="Times,serif" font-size="14.00">$TEXT</text>
</g>
<!-- 24234&#45;&gt;24232 -->
<g id="edge22" class="edge">
<title>24234&#45;&gt;24232</title>
<path fill="none" stroke="#deb256" d="M1244.74,-35.53C1247.54,-114.55 1245.8,-131.47 1216.71,-306.4"/>
<polygon fill="#deb256" stroke="#deb256" points="1213.28,-305.67 1215.09,-316.11 1220.19,-306.82 1213.28,-305.67"/>
</g>
<!-- 35432 -->
<g id="node14" class="node">
<title>35432</title>
<text text-anchor="middle" x="1226.22" y="-1589.86" font-family="Times,serif" font-size="14.00">LicenseTag (ScopedLicenseTag &quot;OrtLicenseCategorization&quot; &quot;permissive&quot; NoLicenseTagText)</text>
</g>
<!-- 39811 -->
<g id="node16" class="node">
<title>39811</title>
<ellipse fill="none" stroke="#d43d51" cx="973.05" cy="-1075" rx="158.22" ry="28.99"/>
<text text-anchor="middle" x="973.05" y="-1078.2" font-family="Times,serif" font-size="14.00" fill="gray">OrtLicenseCategorization</text>
<text text-anchor="middle" x="973.05" y="-1061.7" font-family="Times,serif" font-size="14.00" fill="gray">fb4f02b84c0d792ac08adb6a22151060</text>
</g>
<!-- 35432&#45;&gt;39811 -->
<g id="edge23" class="edge">
<title>35432&#45;&gt;39811</title>
<path fill="none" stroke="#d43d51" d="M1213.04,-1577.29C1120.57,-1453.54 1111.67,-1434.88 988.33,-1114.69"/>
<polygon fill="#d43d51" stroke="#d43d51" points="991.68,-1113.64 984.82,-1105.56 985.15,-1116.15 991.68,-1113.64"/>
</g>
<!-- 35433 -->
<g id="node15" class="node">
<title>35433</title>
<text text-anchor="middle" x="654.57" y="-1593.76" font-family="Times,serif" font-size="14.00">LicenseTag (ScopedLicenseTag &quot;OrtLicenseCategorization&quot; &quot;include&#45;in&#45;notice&#45;file&quot; NoLicenseTagText)</text>
</g>
<!-- 35433&#45;&gt;39811 -->
<g id="edge24" class="edge">
<title>35433&#45;&gt;39811</title>
<path fill="none" stroke="#d43d51" d="M668.46,-1580.96C765.96,-1455.47 777.23,-1436.71 951.71,-1114.42"/>
<polygon fill="#d43d51" stroke="#d43d51" points="954.79,-1116.09 956.47,-1105.63 948.63,-1112.76 954.79,-1116.09"/>
</g>
<!-- 39811&#45;&gt;3992 -->
<g id="edge25" class="edge">
<title>39811&#45;&gt;3992</title>
<path fill="none" stroke="#d43d51" d="M962.73,-1045.75C920.76,-925.49 922.26,-903.36 972.87,-672.82"/>
<polygon fill="#d43d51" stroke="#d43d51" points="976.27,-673.68 975,-663.16 969.43,-672.18 976.27,-673.68"/>
</g>
<!-- 42161 -->
<g id="node17" class="node">
<title>42161</title>
<ellipse fill="none" stroke="#379469" cx="158.57" cy="-984.47" rx="158.22" ry="28.99"/>
<text text-anchor="middle" x="158.57" y="-987.67" font-family="Times,serif" font-size="14.00" fill="gray">CavilLicenseChange</text>
<text text-anchor="middle" x="158.57" y="-971.17" font-family="Times,serif" font-size="14.00" fill="gray">6152f86a51956c036420ea45e419f915</text>
</g>
<!-- 42161&#45;&gt;42162 -->
<g id="edge26" class="edge">
<title>42161&#45;&gt;42162</title>
<path fill="none" stroke="#379469" d="M202.56,-956.2C254.41,-924.11 288.08,-910.86 433.14,-860.04"/>
<polygon fill="#379469" stroke="#379469" points="434.07,-863.43 442.35,-856.82 431.76,-856.82 434.07,-863.43"/>
</g>
<!-- 55830 -->
<g id="node19" class="node">
<title>55830</title>
<ellipse fill="none" stroke="#379469" cx="246.61" cy="-328.72" rx="159.28" ry="28.99"/>
<text text-anchor="middle" x="246.61" y="-331.92" font-family="Times,serif" font-size="14.00" fill="gray">MetaeffektLicense</text>
<text text-anchor="middle" x="246.61" y="-315.42" font-family="Times,serif" font-size="14.00" fill="gray">e9e1cac131810b891fa0000bb1b15b12</text>
</g>
<!-- 55830&#45;&gt;55831 -->
<g id="edge27" class="edge">
<title>55830&#45;&gt;55831</title>
<path fill="none" stroke="#379469" d="M314.89,-355.32C375.13,-379.82 418.85,-402.53 579.08,-488.26"/>
<polygon fill="#379469" stroke="#379469" points="576.99,-491.11 587.46,-492.75 580.3,-484.94 576.99,-491.11"/>
</g>
<!-- 68265 -->
<g id="node21" class="node">
<title>68265</title>
<ellipse fill="none" stroke="#00876c" cx="1007.19" cy="-703.5" rx="159.28" ry="28.99"/>
<text text-anchor="middle" x="1007.19" y="-706.7" font-family="Times,serif" font-size="14.00" fill="gray">LicenseLynx</text>
<text text-anchor="middle" x="1007.19" y="-690.2" font-family="Times,serif" font-size="14.00" fill="gray">11fc788e23466c5bdd184644682f947b</text>
</g>
<!-- 68265&#45;&gt;3992 -->
<g id="edge28" class="edge">
<title>68265&#45;&gt;3992</title>
<path fill="none" stroke="#00876c" d="M997.69,-674.16C997.47,-673.52 997.26,-672.89 997.06,-672.28"/>
<polygon fill="#00876c" stroke="#00876c" points="1000.39,-671.21 993.81,-662.9 993.78,-673.5 1000.39,-671.21"/>
</g>
<!-- 68266&#45;&gt;3992 -->
<g id="edge29" class="edge">
<title>68266&#45;&gt;3992</title>
<path fill="none" stroke="#00876c" stroke-width="2" d="M920.29,-369.07C934.52,-430.28 938.91,-449.47 972.71,-598.18"/>
<polygon fill="#00876c" stroke="#00876c" stroke-width="2" points="974.66,-606.74 968.05,-597.98 973.6,-604.35 971.95,-597.1 972.44,-596.99 972.93,-596.88 974.58,-604.13 976.83,-595.99 974.66,-606.74"/>
</g>
</g>
</svg>
