<?xml version="1.0" encoding="UTF-8" standalone="no"?>
<!DOCTYPE svg PUBLIC "-//W3C//DTD SVG 1.1//EN"
 "http://www.w3.org/Graphics/SVG/1.1/DTD/svg11.dtd">
<!-- Generated by graphviz version 10.0.1 (0)
 -->
<!-- Pages: 1 -->
<svg width="2597pt" height="1820pt"
 viewBox="0.00 0.00 2597.00 1820.00" xmlns="http://www.w3.org/2000/svg" xmlns:xlink="http://www.w3.org/1999/xlink">
<g id="graph0" class="graph" transform="scale(1 1) rotate(0) translate(4 1816)">
<polygon fill="white" stroke="none" points="-4,4 -4,-1816 2593,-1816 2593,4 -4,4"/>
<!-- 3610 -->
<g id="node1" class="node">
<title>3610</title>
<polygon fill="none" stroke="black" points="2411.8,-657.28 2411.8,-672.2 2362.69,-682.74 2293.24,-682.74 2244.13,-672.2 2244.13,-657.28 2293.24,-646.74 2362.69,-646.74 2411.8,-657.28"/>
<text text-anchor="middle" x="2327.97" y="-659.69" font-family="Times,serif" font-size="14.00">PHP License v3.0</text>
</g>
<!-- 8303 -->
<g id="node10" class="node">
<title>8303</title>
<polygon fill="none" stroke="#e09d4b" points="2090.96,-771.84 2090.96,-786.75 2043.15,-797.29 1975.53,-797.29 1927.72,-786.75 1927.72,-771.84 1975.53,-761.29 2043.15,-761.29 2090.96,-771.84"/>
<polygon fill="none" stroke="#e09d4b" points="2094.96,-768.62 2094.96,-789.96 2043.58,-801.29 1975.09,-801.29 1923.72,-789.96 1923.72,-768.62 1975.09,-757.29 2043.58,-757.29 2094.96,-768.62"/>
<text text-anchor="middle" x="2009.34" y="-774.24" font-family="Times,serif" font-size="14.00">Fedora:PHP&#45;3.01</text>
</g>
<!-- 3610&#45;&gt;8303 -->
<g id="edge1" class="edge">
<title>3610&#45;&gt;8303</title>
<path fill="none" stroke="#e09d4b" stroke-dasharray="5,2" d="M2289.95,-682.31C2237.29,-706.23 2207.93,-716.45 2075.89,-758.26"/>
<polygon fill="#e09d4b" stroke="#e09d4b" points="2066.52,-761.23 2074.69,-753.92 2070.12,-760.09 2076.05,-758.21 2076.05,-758.21 2076.05,-758.21 2070.12,-760.09 2077.41,-762.5 2066.52,-761.23"/>
</g>
<!-- 3615 -->
<g id="node2" class="node">
<title>3615</title>
<ellipse fill="none" stroke="#b8bf62" cx="2266.14" cy="-791.03" rx="156.09" ry="28.99"/>
<text text-anchor="middle" x="2266.14" y="-794.23" font-family="Times,serif" font-size="14.00" fill="gray">SPDXLicense</text>
<text text-anchor="middle" x="2266.14" y="-777.73" font-family="Times,serif" font-size="14.00" fill="gray">1f3161e1f13309c9e544dccd7ea9ae9b</text>
</g>
<!-- 3616 -->
<g id="node3" class="node">
<title>3616</title>
<polygon fill="none" stroke="black" points="1851.35,-782.36 1851.35,-797.27 1808.73,-807.82 1748.46,-807.82 1705.84,-797.27 1705.84,-782.36 1748.46,-771.82 1808.73,-771.82 1851.35,-782.36"/>
<polygon fill="none" stroke="black" points="1855.35,-779.23 1855.35,-800.4 1809.22,-811.82 1747.97,-811.82 1701.84,-800.4 1701.84,-779.23 1747.97,-767.82 1809.22,-767.82 1855.35,-779.23"/>
<polygon fill="none" stroke="black" points="1859.35,-776.1 1859.35,-803.54 1809.7,-815.82 1747.48,-815.82 1697.84,-803.54 1697.84,-776.1 1747.48,-763.82 1809.7,-763.82 1859.35,-776.1"/>
<text text-anchor="middle" x="1778.59" y="-784.77" font-family="Times,serif" font-size="14.00">spdx:PHP&#45;3.01</text>
</g>
<!-- 3615&#45;&gt;3616 -->
<g id="edge2" class="edge">
<title>3615&#45;&gt;3616</title>
<path fill="none" stroke="#b8bf62" d="M2122.59,-779.33C2069.96,-777.99 2004.21,-780.21 1871.18,-785.84"/>
<polygon fill="#b8bf62" stroke="#b8bf62" points="1871.15,-782.34 1861.31,-786.26 1871.45,-789.33 1871.15,-782.34"/>
</g>
<!-- 5559 -->
<g id="node7" class="node">
<title>5559</title>
<polygon fill="none" stroke="#e06f45" points="1945.45,-389.93 1945.45,-404.84 1901.53,-415.38 1839.42,-415.38 1795.5,-404.84 1795.5,-389.93 1839.42,-379.38 1901.53,-379.38 1945.45,-389.93"/>
<polygon fill="none" stroke="#e06f45" points="1949.45,-386.78 1949.45,-407.99 1902,-419.38 1838.95,-419.38 1791.5,-407.99 1791.5,-386.78 1838.95,-375.38 1902,-375.38 1949.45,-386.78"/>
<text text-anchor="middle" x="1870.47" y="-392.33" font-family="Times,serif" font-size="14.00">google:PHP301</text>
</g>
<!-- 3616&#45;&gt;5559 -->
<g id="edge3" class="edge">
<title>3616&#45;&gt;5559</title>
<path fill="none" stroke="#e06f45" stroke-width="2" d="M1791.43,-763.41C1885.69,-569.42 1892.54,-548.94 1875.47,-430.83"/>
<polygon fill="#e06f45" stroke="#e06f45" stroke-width="2" points="1874.21,-422.27 1880.11,-431.51 1875.08,-424.73 1876.16,-432.09 1875.66,-432.16 1875.17,-432.24 1874.09,-424.88 1871.21,-432.82 1874.21,-422.27"/>
</g>
<!-- 3616&#45;&gt;8303 -->
<g id="edge4" class="edge">
<title>3616&#45;&gt;8303</title>
<path fill="none" stroke="#e09d4b" stroke-width="2" d="M1859.76,-782.61C1881.41,-780.76 1898.17,-779.44 1912.12,-778.55"/>
<polygon fill="#e09d4b" stroke="#e09d4b" stroke-width="2" points="1920.79,-778.05 1911.07,-783.12 1918.26,-778.69 1910.84,-779.13 1910.81,-778.63 1910.78,-778.13 1918.2,-777.7 1910.55,-774.13 1920.79,-778.05"/>
</g>
<!-- 9694 -->
<g id="node15" class="node">
<title>9694</title>
<polygon fill="none" stroke="#58a066" points="2116.6,-997.93 2116.6,-1012.84 2072.68,-1023.39 2010.57,-1023.39 1966.65,-1012.84 1966.65,-997.93 2010.57,-987.39 2072.68,-987.39 2116.6,-997.93"/>
<polygon fill="none" stroke="#58a066" points="2120.6,-994.78 2120.6,-1016 2073.15,-1027.39 2010.1,-1027.39 1962.65,-1016 1962.65,-994.78 2010.1,-983.39 2073.15,-983.39 2120.6,-994.78"/>
<text text-anchor="middle" x="2041.63" y="-1000.34" font-family="Times,serif" font-size="14.00">osadl:PHP&#45;3.01</text>
</g>
<!-- 3616&#45;&gt;9694 -->
<g id="edge5" class="edge">
<title>3616&#45;&gt;9694</title>
<path fill="none" stroke="#58a066" stroke-width="2" d="M1821.83,-813.01C1960.05,-887.4 1979.89,-902.26 2022.84,-973.54"/>
<polygon fill="#58a066" stroke="#58a066" stroke-width="2" points="2027.24,-980.91 2018.26,-974.63 2025.5,-978.97 2021.69,-972.58 2022.12,-972.32 2022.55,-972.07 2026.36,-978.45 2025.98,-970.02 2027.24,-980.91"/>
</g>
<!-- 10415 -->
<g id="node18" class="node">
<title>10415</title>
<polygon fill="none" stroke="#deb256" points="1528.74,-771.38 1528.74,-786.29 1490.98,-796.84 1437.59,-796.84 1399.84,-786.29 1399.84,-771.38 1437.59,-760.84 1490.98,-760.84 1528.74,-771.38"/>
<polygon fill="none" stroke="#deb256" points="1532.74,-768.34 1532.74,-789.33 1491.53,-800.84 1437.05,-800.84 1395.84,-789.33 1395.84,-768.34 1437.05,-756.84 1491.53,-756.84 1532.74,-768.34"/>
<text text-anchor="middle" x="1464.29" y="-773.79" font-family="Times,serif" font-size="14.00">fsf:PHP&#45;3.01</text>
</g>
<!-- 3616&#45;&gt;10415 -->
<g id="edge6" class="edge">
<title>3616&#45;&gt;10415</title>
<path fill="none" stroke="#deb256" stroke-dasharray="5,2" d="M1710.06,-772.57C1671.71,-765.54 1635.53,-766.3 1544.28,-772.85"/>
<polygon fill="#deb256" stroke="#deb256" points="1534.4,-773.56 1544.05,-768.35 1538.17,-773.29 1544.37,-772.84 1544.37,-772.84 1544.37,-772.84 1538.17,-773.29 1544.7,-777.33 1534.4,-773.56"/>
</g>
<!-- 47216 -->
<g id="node32" class="node">
<title>47216</title>
<polygon fill="none" stroke="#00876c" points="1512.57,-1057.51 1512.57,-1072.42 1436.53,-1082.97 1328.99,-1082.97 1252.94,-1072.42 1252.94,-1057.51 1328.99,-1046.97 1436.53,-1046.97 1512.57,-1057.51"/>
<polygon fill="none" stroke="#00876c" points="1516.57,-1054.03 1516.57,-1075.9 1436.8,-1086.97 1328.71,-1086.97 1248.94,-1075.9 1248.94,-1054.03 1328.71,-1042.97 1436.8,-1042.97 1516.57,-1054.03"/>
<text text-anchor="middle" x="1382.76" y="-1059.92" font-family="Times,serif" font-size="14.00">metaeffekt:PHP License 3.01</text>
</g>
<!-- 3616&#45;&gt;47216 -->
<g id="edge7" class="edge">
<title>3616&#45;&gt;47216</title>
<path fill="none" stroke="#00876c" stroke-width="2" d="M1760.08,-816.08C1682.28,-925.7 1661.09,-941.04 1443.37,-1038.05"/>
<polygon fill="#00876c" stroke="#00876c" stroke-width="2" points="1435.41,-1041.59 1442.72,-1033.41 1437.55,-1040.09 1444.35,-1037.07 1444.55,-1037.52 1444.75,-1037.98 1437.96,-1041.01 1446.38,-1041.64 1435.41,-1041.59"/>
</g>
<!-- 3617 -->
<g id="node4" class="node">
<title>3617</title>
<polygon fill="none" stroke="black" points="1735.14,-1010.99 1735.14,-1025.9 1705.18,-1036.44 1662.8,-1036.44 1632.84,-1025.9 1632.84,-1010.99 1662.8,-1000.44 1705.18,-1000.44 1735.14,-1010.99"/>
<polygon fill="none" stroke="black" points="1739.14,-1008.15 1739.14,-1028.73 1705.86,-1040.44 1662.12,-1040.44 1628.84,-1028.73 1628.84,-1008.15 1662.12,-996.44 1705.86,-996.44 1739.14,-1008.15"/>
<text text-anchor="middle" x="1683.99" y="-1013.39" font-family="Times,serif" font-size="14.00">PHP&#45;3.01</text>
</g>
<!-- 3617&#45;&gt;3616 -->
<g id="edge8" class="edge">
<title>3617&#45;&gt;3616</title>
<path fill="none" stroke="black" stroke-width="2" d="M1702.76,-996.2C1770.43,-915.67 1779.29,-899.46 1779.12,-827.25"/>
<polygon fill="black" stroke="black" stroke-width="2" points="1779.06,-818.62 1783.63,-828.58 1779.58,-821.18 1779.63,-828.61 1779.13,-828.62 1778.63,-828.62 1778.58,-821.18 1774.63,-828.65 1779.06,-818.62"/>
</g>
<!-- 3617&#45;&gt;8303 -->
<g id="edge9" class="edge">
<title>3617&#45;&gt;8303</title>
<path fill="none" stroke="#e09d4b" stroke-width="2" d="M1719.55,-1000.81C1906.19,-908.16 1928.63,-893.97 1987.36,-810.88"/>
<polygon fill="#e09d4b" stroke="#e09d4b" stroke-width="2" points="1992.34,-803.79 1990.28,-814.56 1991.28,-806.17 1987,-812.26 1986.59,-811.97 1986.18,-811.68 1990.46,-805.6 1982.91,-809.38 1992.34,-803.79"/>
</g>
<!-- 8969 -->
<g id="node13" class="node">
<title>8969</title>
<polygon fill="none" stroke="#00876c" points="1596.92,-700.76 1596.92,-715.67 1544.57,-726.22 1470.53,-726.22 1418.17,-715.67 1418.17,-700.76 1470.53,-690.22 1544.57,-690.22 1596.92,-700.76"/>
<polygon fill="none" stroke="#00876c" points="1600.92,-697.49 1600.92,-718.95 1544.97,-730.22 1470.13,-730.22 1414.17,-718.95 1414.17,-697.49 1470.13,-686.22 1544.97,-686.22 1600.92,-697.49"/>
<text text-anchor="middle" x="1507.55" y="-703.17" font-family="Times,serif" font-size="14.00">BlueOak:PHP&#45;3.01</text>
</g>
<!-- 3617&#45;&gt;8969 -->
<g id="edge10" class="edge">
<title>3617&#45;&gt;8969</title>
<path fill="none" stroke="#00876c" stroke-width="2" d="M1681.62,-996.28C1667.29,-864.02 1660.13,-848.33 1540,-737.91"/>
<polygon fill="#00876c" stroke="#00876c" stroke-width="2" points="1533.72,-732.15 1544.13,-735.59 1535.94,-733.51 1541.42,-738.54 1541.08,-738.91 1540.75,-739.28 1535.27,-734.25 1538.04,-742.22 1533.72,-732.15"/>
</g>
<!-- 3617&#45;&gt;9694 -->
<g id="edge11" class="edge">
<title>3617&#45;&gt;9694</title>
<path fill="none" stroke="#58a066" stroke-width="2" d="M1739.55,-1019.9C1864.02,-1023.1 1912.06,-1023.66 1956.72,-1018.9"/>
<polygon fill="#58a066" stroke="#58a066" stroke-width="2" points="1965.32,-1017.89 1955.91,-1023.52 1962.83,-1018.69 1955.45,-1019.55 1955.39,-1019.05 1955.33,-1018.56 1962.72,-1017.69 1954.87,-1014.58 1965.32,-1017.89"/>
</g>
<!-- 3617&#45;&gt;10415 -->
<g id="edge12" class="edge">
<title>3617&#45;&gt;10415</title>
<path fill="none" stroke="#deb256" stroke-width="2" d="M1675.7,-996.08C1641.75,-905.41 1629.84,-891.26 1504.91,-806.33"/>
<polygon fill="#deb256" stroke="#deb256" stroke-width="2" points="1497.73,-801.46 1508.53,-803.35 1500.13,-802.48 1506.29,-806.66 1506.01,-807.07 1505.73,-807.49 1499.57,-803.31 1503.48,-810.79 1497.73,-801.46"/>
</g>
<!-- 22280 -->
<g id="node21" class="node">
<title>22280</title>
<polygon fill="none" stroke="black" points="1435.44,-1121.89 1435.44,-1136.8 1384.39,-1147.34 1312.18,-1147.34 1261.12,-1136.8 1261.12,-1121.89 1312.18,-1111.34 1384.39,-1111.34 1435.44,-1121.89"/>
<polygon fill="none" stroke="black" points="1439.44,-1118.63 1439.44,-1140.06 1384.8,-1151.34 1311.77,-1151.34 1257.12,-1140.06 1257.12,-1118.63 1311.77,-1107.34 1384.8,-1107.34 1439.44,-1118.63"/>
<text text-anchor="middle" x="1348.28" y="-1124.29" font-family="Times,serif" font-size="14.00">scancode:php&#45;3.01</text>
</g>
<!-- 3617&#45;&gt;22280 -->
<g id="edge13" class="edge">
<title>3617&#45;&gt;22280</title>
<path fill="none" stroke="black" stroke-width="2" d="M1659.46,-1039.95C1588.58,-1101.49 1564.05,-1114.26 1450.56,-1122.97"/>
<polygon fill="black" stroke="black" stroke-width="2" points="1442.1,-1123.6 1451.74,-1118.37 1444.62,-1122.91 1452.03,-1122.36 1452.07,-1122.86 1452.11,-1123.36 1444.69,-1123.91 1452.4,-1127.35 1442.1,-1123.6"/>
</g>
<!-- 26470 -->
<g id="node24" class="node">
<title>26470</title>
<polygon fill="none" stroke="#e18745" points="1578.7,-1230.84 1578.7,-1245.75 1524.4,-1256.3 1447.6,-1256.3 1393.3,-1245.75 1393.3,-1230.84 1447.6,-1220.3 1524.4,-1220.3 1578.7,-1230.84"/>
<polygon fill="none" stroke="#e18745" points="1582.7,-1227.54 1582.7,-1249.05 1524.78,-1260.3 1447.22,-1260.3 1389.3,-1249.05 1389.3,-1227.54 1447.22,-1216.3 1524.78,-1216.3 1582.7,-1227.54"/>
<text text-anchor="middle" x="1486" y="-1233.25" font-family="Times,serif" font-size="14.00">fossology:PHP&#45;3.01</text>
</g>
<!-- 3617&#45;&gt;26470 -->
<g id="edge14" class="edge">
<title>3617&#45;&gt;26470</title>
<path fill="none" stroke="#e18745" stroke-width="2" d="M1676.03,-1040.72C1637.99,-1146.65 1627.06,-1164.72 1538.21,-1211.54"/>
<polygon fill="#e18745" stroke="#e18745" stroke-width="2" points="1530.64,-1215.5 1537.42,-1206.88 1532.68,-1213.87 1539.27,-1210.42 1539.5,-1210.86 1539.74,-1211.31 1533.14,-1214.75 1541.59,-1214.85 1530.64,-1215.5"/>
</g>
<!-- 37397 -->
<g id="node28" class="node">
<title>37397</title>
<polygon fill="none" stroke="#379469" points="1776.35,-1404.7 1776.35,-1419.61 1733.4,-1430.15 1672.67,-1430.15 1629.73,-1419.61 1629.73,-1404.7 1672.67,-1394.15 1733.4,-1394.15 1776.35,-1404.7"/>
<polygon fill="none" stroke="#379469" points="1780.35,-1401.56 1780.35,-1422.75 1733.89,-1434.15 1672.19,-1434.15 1625.73,-1422.75 1625.73,-1401.56 1672.19,-1390.15 1733.89,-1390.15 1780.35,-1401.56"/>
<text text-anchor="middle" x="1703.04" y="-1407.1" font-family="Times,serif" font-size="14.00">cavil:PHP&#45;3.01</text>
</g>
<!-- 3617&#45;&gt;37397 -->
<g id="edge15" class="edge">
<title>3617&#45;&gt;37397</title>
<path fill="none" stroke="#379469" stroke-width="2" d="M1690.51,-1040.72C1750.39,-1245.37 1753.98,-1266.01 1714.66,-1379.22"/>
<polygon fill="#379469" stroke="#379469" stroke-width="2" points="1711.78,-1387.43 1710.84,-1376.51 1712.16,-1384.85 1714.61,-1377.83 1715.09,-1378 1715.56,-1378.16 1713.1,-1385.18 1719.33,-1379.48 1711.78,-1387.43"/>
</g>
<!-- 47219 -->
<g id="node35" class="node">
<title>47219</title>
<polygon fill="none" stroke="#00876c" points="1725.92,-1199.96 1725.92,-1214.87 1687.52,-1225.41 1633.21,-1225.41 1594.81,-1214.87 1594.81,-1199.96 1633.21,-1189.41 1687.52,-1189.41 1725.92,-1199.96"/>
<polygon fill="none" stroke="#00876c" points="1729.92,-1196.91 1729.92,-1217.92 1688.05,-1229.41 1632.67,-1229.41 1590.81,-1217.92 1590.81,-1196.91 1632.67,-1185.41 1688.05,-1185.41 1729.92,-1196.91"/>
<text text-anchor="middle" x="1660.36" y="-1202.36" font-family="Times,serif" font-size="14.00">osi:PHP&#45;3.01</text>
</g>
<!-- 3617&#45;&gt;47219 -->
<g id="edge16" class="edge">
<title>3617&#45;&gt;47219</title>
<path fill="none" stroke="#00876c" stroke-width="2" d="M1688.27,-1040.91C1702.35,-1115.67 1702.79,-1132.24 1679,-1175.37"/>
<polygon fill="#00876c" stroke="#00876c" stroke-width="2" points="1674.75,-1182.88 1675.75,-1171.96 1675.57,-1180.4 1679.23,-1173.93 1679.67,-1174.18 1680.11,-1174.42 1676.45,-1180.89 1683.59,-1176.39 1674.75,-1182.88"/>
</g>
<!-- 51056 -->
<g id="node37" class="node">
<title>51056</title>
<polygon fill="none" stroke="#dac767" points="2003.47,-1237.75 2003.47,-1252.66 1929.7,-1263.2 1825.37,-1263.2 1751.6,-1252.66 1751.6,-1237.75 1825.37,-1227.2 1929.7,-1227.2 2003.47,-1237.75"/>
<polygon fill="none" stroke="#dac767" points="2007.47,-1234.28 2007.47,-1256.13 1929.98,-1267.2 1825.08,-1267.2 1747.6,-1256.13 1747.6,-1234.28 1825.08,-1223.2 1929.98,-1223.2 2007.47,-1234.28"/>
<text text-anchor="middle" x="1877.53" y="-1240.15" font-family="Times,serif" font-size="14.00">fosslight:PHP License v3.01</text>
</g>
<!-- 3617&#45;&gt;51056 -->
<g id="edge17" class="edge">
<title>3617&#45;&gt;51056</title>
<path fill="none" stroke="#dac767" stroke-width="2" d="M1707.42,-1039.96C1816.22,-1139.97 1833.82,-1157.99 1861.69,-1212.91"/>
<polygon fill="#dac767" stroke="#dac767" stroke-width="2" points="1865.56,-1220.66 1857.06,-1213.72 1863.97,-1218.59 1860.64,-1211.94 1861.09,-1211.71 1861.54,-1211.49 1864.86,-1218.14 1865.11,-1209.7 1865.56,-1220.66"/>
</g>
<!-- 54311 -->
<g id="node41" class="node">
<title>54311</title>
<polygon fill="none" stroke="#98b561" points="1476.4,-834.45 1476.4,-849.36 1428.59,-859.9 1360.97,-859.9 1313.16,-849.36 1313.16,-834.45 1360.97,-823.9 1428.59,-823.9 1476.4,-834.45"/>
<polygon fill="none" stroke="#98b561" points="1480.4,-831.23 1480.4,-852.57 1429.02,-863.9 1360.54,-863.9 1309.16,-852.57 1309.16,-831.23 1360.54,-819.9 1429.02,-819.9 1480.4,-831.23"/>
<text text-anchor="middle" x="1394.78" y="-836.85" font-family="Times,serif" font-size="14.00">eclipse:PHP&#45;3.01</text>
</g>
<!-- 3617&#45;&gt;54311 -->
<g id="edge18" class="edge">
<title>3617&#45;&gt;54311</title>
<path fill="none" stroke="#98b561" stroke-width="2" d="M1662.94,-996.31C1610.81,-942.21 1590.11,-929.72 1449.27,-866.34"/>
<polygon fill="#98b561" stroke="#98b561" stroke-width="2" points="1441.59,-862.89 1452.56,-862.88 1444.14,-863.48 1450.92,-866.53 1450.71,-866.99 1450.51,-867.44 1443.73,-864.39 1448.87,-871.09 1441.59,-862.89"/>
</g>
<!-- 3618 -->
<g id="node5" class="node">
<title>3618</title>
<polygon fill="none" stroke="black" points="1611.77,-988.57 1611.77,-1003.48 1559.74,-1014.02 1486.16,-1014.02 1434.13,-1003.48 1434.13,-988.57 1486.16,-978.02 1559.74,-978.02 1611.77,-988.57"/>
<polygon fill="none" stroke="black" points="1615.77,-985.3 1615.77,-1006.75 1560.14,-1018.02 1485.76,-1018.02 1430.13,-1006.75 1430.13,-985.3 1485.76,-974.02 1560.14,-974.02 1615.77,-985.3"/>
<text text-anchor="middle" x="1522.95" y="-990.97" font-family="Times,serif" font-size="14.00">PHP License v3.01</text>
</g>
<!-- 3618&#45;&gt;3616 -->
<g id="edge19" class="edge">
<title>3618&#45;&gt;3616</title>
<path fill="none" stroke="#b8bf62" stroke-width="2" d="M1562.93,-974.19C1694.37,-902.21 1716.62,-886.69 1756.22,-825.54"/>
<polygon fill="#b8bf62" stroke="#b8bf62" stroke-width="2" points="1760.89,-818.23 1759.3,-829.08 1759.93,-820.66 1755.93,-826.92 1755.51,-826.65 1755.09,-826.38 1759.09,-820.12 1751.72,-824.23 1760.89,-818.23"/>
</g>
<!-- 3618&#45;&gt;8969 -->
<g id="edge20" class="edge">
<title>3618&#45;&gt;8969</title>
<path fill="none" stroke="#00876c" stroke-width="2" d="M1529.81,-973.62C1567.19,-850.94 1568.25,-834.29 1523.19,-740.38"/>
<polygon fill="#00876c" stroke="#00876c" stroke-width="2" points="1519.44,-732.62 1527.84,-739.67 1521.01,-734.71 1524.24,-741.41 1523.79,-741.63 1523.34,-741.84 1520.11,-735.15 1519.74,-743.58 1519.44,-732.62"/>
</g>
<!-- 3618&#45;&gt;26470 -->
<g id="edge21" class="edge">
<title>3618&#45;&gt;26470</title>
<path fill="none" stroke="#e18745" stroke-width="2" d="M1525.23,-1018.18C1536.89,-1132.43 1536.78,-1152.21 1505.23,-1206.48"/>
<polygon fill="#e18745" stroke="#e18745" stroke-width="2" points="1500.91,-1213.79 1502.13,-1202.89 1501.78,-1211.33 1505.57,-1204.93 1506,-1205.18 1506.43,-1205.44 1502.64,-1211.84 1509.87,-1207.47 1500.91,-1213.79"/>
</g>
<!-- 3618&#45;&gt;51056 -->
<g id="edge22" class="edge">
<title>3618&#45;&gt;51056</title>
<path fill="none" stroke="#dac767" stroke-width="2" d="M1557.36,-1018.4C1747.06,-1141.8 1776.37,-1161.49 1842.55,-1216.1"/>
<polygon fill="#dac767" stroke="#dac767" stroke-width="2" points="1848.94,-1221.39 1838.37,-1218.48 1846.65,-1220.14 1840.92,-1215.4 1841.24,-1215.01 1841.56,-1214.62 1847.29,-1219.37 1844.11,-1211.54 1848.94,-1221.39"/>
</g>
<!-- 3618&#45;&gt;54311 -->
<g id="edge23" class="edge">
<title>3618&#45;&gt;54311</title>
<path fill="none" stroke="#98b561" stroke-width="2" d="M1515.5,-973.53C1500.29,-929.21 1490.47,-916.59 1432.12,-870.83"/>
<polygon fill="#98b561" stroke="#98b561" stroke-width="2" points="1425.48,-865.64 1436.13,-868.25 1427.8,-866.83 1433.67,-871.4 1433.36,-871.8 1433.05,-872.19 1427.19,-867.61 1430.59,-875.34 1425.48,-865.64"/>
</g>
<!-- 5558 -->
<g id="node6" class="node">
<title>5558</title>
<ellipse fill="none" stroke="#e06f45" cx="2014.51" cy="-28.94" rx="156.62" ry="28.99"/>
<text text-anchor="middle" x="2014.51" y="-32.14" font-family="Times,serif" font-size="14.00" fill="gray">GoogleLicense</text>
<text text-anchor="middle" x="2014.51" y="-15.64" font-family="Times,serif" font-size="14.00" fill="gray">c2c0f57c130181af69d53b578f493dbc</text>
</g>
<!-- 5558&#45;&gt;5559 -->
<g id="edge24" class="edge">
<title>5558&#45;&gt;5559</title>
<path fill="none" stroke="#e06f45" d="M2010.28,-58.34C1996.4,-152.03 1986.96,-173.59 1887.38,-364.91"/>
<polygon fill="#e06f45" stroke="#e06f45" points="1884.32,-363.22 1882.81,-373.71 1890.53,-366.45 1884.32,-363.22"/>
</g>
<!-- 5560 -->
<g id="node8" class="node">
<title>5560</title>
<polygon fill="none" stroke="#e06f45" points="1944.95,-136.39 1944.95,-151.31 1918.55,-161.85 1881.23,-161.85 1854.83,-151.31 1854.83,-136.39 1881.23,-125.85 1918.55,-125.85 1944.95,-136.39"/>
<polygon fill="none" stroke="#e06f45" points="1948.95,-133.68 1948.95,-154.01 1919.32,-165.85 1880.46,-165.85 1850.83,-154.01 1850.83,-133.68 1880.46,-121.85 1919.32,-121.85 1948.95,-133.68"/>
<text text-anchor="middle" x="1899.89" y="-138.8" font-family="Times,serif" font-size="14.00">PHP301</text>
</g>
<!-- 5560&#45;&gt;5559 -->
<g id="edge25" class="edge">
<title>5560&#45;&gt;5559</title>
<path fill="none" stroke="#e06f45" stroke-width="2" d="M1904.79,-165.96C1918.38,-229.16 1916.01,-245.53 1880.34,-364.58"/>
<polygon fill="#e06f45" stroke="#e06f45" stroke-width="2" points="1877.84,-372.92 1876.4,-362.05 1878.1,-370.32 1880.24,-363.2 1880.71,-363.34 1881.19,-363.48 1879.05,-370.61 1885.02,-364.63 1877.84,-372.92"/>
</g>
<!-- 8302 -->
<g id="node9" class="node">
<title>8302</title>
<ellipse fill="none" stroke="#e09d4b" cx="2338.35" cy="-500.07" rx="153.97" ry="28.99"/>
<text text-anchor="middle" x="2338.35" y="-503.27" font-family="Times,serif" font-size="14.00" fill="gray">FedoraEntry</text>
<text text-anchor="middle" x="2338.35" y="-486.77" font-family="Times,serif" font-size="14.00" fill="gray">0ab3af918893fff9839a13f90347d00a</text>
</g>
<!-- 8302&#45;&gt;8303 -->
<g id="edge26" class="edge">
<title>8302&#45;&gt;8303</title>
<path fill="none" stroke="#e09d4b" d="M2317.41,-529.23C2258.61,-610.18 2236.54,-627.72 2052.32,-750.65"/>
<polygon fill="#e09d4b" stroke="#e09d4b" points="2050.48,-747.66 2044.11,-756.12 2054.37,-753.49 2050.48,-747.66"/>
</g>
<!-- 8304 -->
<g id="node11" class="node">
<title>8304</title>
<polygon fill="none" stroke="black" points="2197.53,-565.07 2197.53,-579.98 2179.9,-590.53 2154.96,-590.53 2137.33,-579.98 2137.33,-565.07 2154.96,-554.53 2179.9,-554.53 2197.53,-565.07"/>
<text text-anchor="middle" x="2167.43" y="-567.48" font-family="Times,serif" font-size="14.00">PHP</text>
</g>
<!-- 8304&#45;&gt;8303 -->
<g id="edge27" class="edge">
<title>8304&#45;&gt;8303</title>
<path fill="none" stroke="#e09d4b" stroke-dasharray="5,2" d="M2161.38,-590.94C2140.05,-654.93 2130.73,-667.91 2042.1,-749.32"/>
<polygon fill="#e09d4b" stroke="#e09d4b" points="2034.76,-756.05 2039.08,-745.98 2037.54,-753.5 2042.13,-749.29 2042.13,-749.29 2042.13,-749.29 2037.54,-753.5 2045.17,-752.61 2034.76,-756.05"/>
</g>
<!-- 8968 -->
<g id="node12" class="node">
<title>8968</title>
<ellipse fill="none" stroke="#00876c" cx="1424.21" cy="-296.33" rx="160.87" ry="28.99"/>
<text text-anchor="middle" x="1424.21" y="-299.53" font-family="Times,serif" font-size="14.00" fill="gray">BlueOakCouncil</text>
<text text-anchor="middle" x="1424.21" y="-283.03" font-family="Times,serif" font-size="14.00" fill="gray">601597a305435b261bc9ce2589a2a57b</text>
</g>
<!-- 8968&#45;&gt;8969 -->
<g id="edge28" class="edge">
<title>8968&#45;&gt;8969</title>
<path fill="none" stroke="#00876c" d="M1441.09,-325.61C1496.19,-422.27 1499.27,-446.07 1506.49,-674.58"/>
<polygon fill="#00876c" stroke="#00876c" points="1502.99,-674.57 1506.8,-684.46 1509.99,-674.35 1502.99,-674.57"/>
</g>
<!-- 9693 -->
<g id="node14" class="node">
<title>9693</title>
<ellipse fill="none" stroke="#58a066" cx="2387.47" cy="-1191.35" rx="157.15" ry="28.99"/>
<text text-anchor="middle" x="2387.47" y="-1194.55" font-family="Times,serif" font-size="14.00" fill="gray">OSADLRule</text>
<text text-anchor="middle" x="2387.47" y="-1178.05" font-family="Times,serif" font-size="14.00" fill="gray">711643edd1332eb508a4ac3c9977fc2f</text>
</g>
<!-- 9693&#45;&gt;9694 -->
<g id="edge29" class="edge">
<title>9693&#45;&gt;9694</title>
<path fill="none" stroke="#58a066" d="M2351.69,-1162.95C2292.44,-1116.91 2262.1,-1101.83 2096,-1029.14"/>
<polygon fill="#58a066" stroke="#58a066" points="2097.86,-1026.14 2087.3,-1025.34 2095.06,-1032.55 2097.86,-1026.14"/>
</g>
<!-- 9950 -->
<g id="node16" class="node">
<title>9950</title>
<ellipse fill="none" stroke="#58a066" cx="2433.93" cy="-1035" rx="155.56" ry="28.99"/>
<text text-anchor="middle" x="2433.93" y="-1038.2" font-family="Times,serif" font-size="14.00" fill="gray">OSADLMatrix</text>
<text text-anchor="middle" x="2433.93" y="-1021.7" font-family="Times,serif" font-size="14.00" fill="gray">ae368defb21faa7919a6c43e42a893c6</text>
</g>
<!-- 9950&#45;&gt;9694 -->
<g id="edge30" class="edge">
<title>9950&#45;&gt;9694</title>
<path fill="none" stroke="#58a066" d="M2284.79,-1026.4C2249.52,-1023.64 2203.66,-1019.68 2132.18,-1013.39"/>
<polygon fill="#58a066" stroke="#58a066" points="2132.74,-1009.92 2122.47,-1012.53 2132.12,-1016.9 2132.74,-1009.92"/>
</g>
<!-- 10414 -->
<g id="node17" class="node">
<title>10414</title>
<ellipse fill="none" stroke="#deb256" cx="1265.83" cy="-456.42" rx="156.09" ry="28.99"/>
<text text-anchor="middle" x="1265.83" y="-459.62" font-family="Times,serif" font-size="14.00" fill="gray">FSF</text>
<text text-anchor="middle" x="1265.83" y="-443.12" font-family="Times,serif" font-size="14.00" fill="gray">b0ffc1a0d4cde06c7b238ea13da2cb6b</text>
</g>
<!-- 10414&#45;&gt;10415 -->
<g id="edge31" class="edge">
<title>10414&#45;&gt;10415</title>
<path fill="none" stroke="#deb256" d="M1303.61,-484.98C1379.74,-544.02 1391.7,-569.59 1452.88,-745.89"/>
<polygon fill="#deb256" stroke="#deb256" points="1449.52,-746.87 1456.1,-755.17 1456.13,-744.58 1449.52,-746.87"/>
</g>
<!-- 10416 -->
<g id="node19" class="node">
<title>10416</title>
<polygon fill="none" stroke="black" points="1209.91,-775.24 1209.91,-790.16 1140.03,-800.7 1041.21,-800.7 971.33,-790.16 971.33,-775.24 1041.21,-764.7 1140.03,-764.7 1209.91,-775.24"/>
<polygon fill="none" stroke="black" points="1213.91,-771.8 1213.91,-793.6 1140.33,-804.7 1040.91,-804.7 967.33,-793.6 967.33,-771.8 1040.91,-760.7 1140.33,-760.7 1213.91,-771.8"/>
<text text-anchor="middle" x="1090.62" y="-777.65" font-family="Times,serif" font-size="14.00">PHP License, Version 3.01</text>
</g>
<!-- 10416&#45;&gt;10415 -->
<g id="edge32" class="edge">
<title>10416&#45;&gt;10415</title>
<path fill="none" stroke="#deb256" stroke-width="2" d="M1142.35,-760.66C1254.35,-713.96 1282.56,-713.72 1407.18,-758.09"/>
<polygon fill="#deb256" stroke="#deb256" stroke-width="2" points="1415.22,-760.97 1404.29,-761.84 1412.64,-760.58 1405.64,-758.07 1405.81,-757.6 1405.98,-757.13 1412.98,-759.64 1407.33,-753.37 1415.22,-760.97"/>
</g>
<!-- 10416&#45;&gt;47216 -->
<g id="edge33" class="edge">
<title>10416&#45;&gt;47216</title>
<path fill="none" stroke="#00876c" stroke-dasharray="5,2" d="M1099.82,-804.85C1154.18,-935.16 1167.34,-951.22 1329.99,-1037.24"/>
<polygon fill="#00876c" stroke="#00876c" points="1338.81,-1041.9 1327.87,-1041.21 1335.47,-1040.14 1329.97,-1037.23 1329.97,-1037.23 1329.97,-1037.23 1335.47,-1040.14 1332.07,-1033.25 1338.81,-1041.9"/>
</g>
<!-- 52558 -->
<g id="node39" class="node">
<title>52558</title>
<polygon fill="none" stroke="#d43d51" points="756.19,-662.29 756.19,-677.2 669.11,-687.75 545.97,-687.75 458.89,-677.2 458.89,-662.29 545.97,-651.75 669.11,-651.75 756.19,-662.29"/>
<polygon fill="none" stroke="#d43d51" points="760.19,-658.74 760.19,-680.75 669.35,-691.75 545.73,-691.75 454.89,-680.75 454.89,-658.74 545.73,-647.75 669.35,-647.75 760.19,-658.74"/>
<text text-anchor="middle" x="607.54" y="-664.7" font-family="Times,serif" font-size="14.00">hitachi:PHP License, version 3.01</text>
</g>
<!-- 10416&#45;&gt;52558 -->
<g id="edge34" class="edge">
<title>10416&#45;&gt;52558</title>
<path fill="none" stroke="#d43d51" stroke-width="2" d="M1021.25,-763.24C857.43,-717.33 790.93,-699.29 731.34,-687.98"/>
<polygon fill="#d43d51" stroke="#d43d51" stroke-width="2" points="723.06,-686.46 733.71,-683.85 725.67,-686.43 732.99,-687.78 732.9,-688.27 732.8,-688.76 725.49,-687.41 732.08,-692.7 723.06,-686.46"/>
</g>
<!-- 22279 -->
<g id="node20" class="node">
<title>22279</title>
<ellipse fill="none" stroke="#dac767" cx="949.94" cy="-1323" rx="157.15" ry="28.99"/>
<text text-anchor="middle" x="949.94" y="-1326.2" font-family="Times,serif" font-size="14.00" fill="gray">ScancodeData</text>
<text text-anchor="middle" x="949.94" y="-1309.7" font-family="Times,serif" font-size="14.00" fill="gray">bcf1cdb03c5678eb4f138a385c6c6975</text>
</g>
<!-- 22279&#45;&gt;22280 -->
<g id="edge35" class="edge">
<title>22279&#45;&gt;22280</title>
<path fill="none" stroke="#dac767" d="M1073.83,-1304.83C1133.39,-1288.37 1182.41,-1253.96 1309.54,-1158.48"/>
<polygon fill="#dac767" stroke="#dac767" points="1311.33,-1161.52 1317.22,-1152.71 1307.12,-1155.92 1311.33,-1161.52"/>
</g>
<!-- 22280&#45;&gt;47216 -->
<g id="edge36" class="edge">
<title>22280&#45;&gt;47216</title>
<path fill="none" stroke="#00876c" stroke-dasharray="5,2" d="M1369.54,-1107.04C1370.92,-1104.4 1372.18,-1101.39 1373.45,-1097.73"/>
<polygon fill="#00876c" stroke="#00876c" points="1376.39,-1088.31 1377.71,-1099.2 1375.26,-1091.92 1373.41,-1097.86 1373.41,-1097.86 1373.41,-1097.86 1375.26,-1091.92 1369.12,-1096.52 1376.39,-1088.31"/>
</g>
<!-- 22281 -->
<g id="node22" class="node">
<title>22281</title>
<polygon fill="none" stroke="black" points="1298.84,-1367.72 1298.84,-1382.63 1249.73,-1393.18 1180.28,-1393.18 1131.17,-1382.63 1131.17,-1367.72 1180.28,-1357.18 1249.73,-1357.18 1298.84,-1367.72"/>
<polygon fill="none" stroke="black" points="1302.84,-1364.49 1302.84,-1385.87 1250.16,-1397.18 1179.86,-1397.18 1127.17,-1385.87 1127.17,-1364.49 1179.86,-1353.18 1250.16,-1353.18 1302.84,-1364.49"/>
<text text-anchor="middle" x="1215.01" y="-1370.13" font-family="Times,serif" font-size="14.00">PHP License 3.01</text>
</g>
<!-- 22281&#45;&gt;22280 -->
<g id="edge37" class="edge">
<title>22281&#45;&gt;22280</title>
<path fill="none" stroke="#dac767" stroke-width="2" d="M1236.45,-1352.7C1277.38,-1308.86 1286.85,-1288.84 1335.78,-1161.87"/>
<polygon fill="#dac767" stroke="#dac767" stroke-width="2" points="1338.81,-1154 1339.41,-1164.95 1338.35,-1156.57 1335.68,-1163.51 1335.21,-1163.33 1334.75,-1163.15 1337.42,-1156.21 1331.01,-1161.71 1338.81,-1154"/>
</g>
<!-- 22281&#45;&gt;47216 -->
<g id="edge38" class="edge">
<title>22281&#45;&gt;47216</title>
<path fill="none" stroke="#00876c" stroke-width="2" d="M1237.19,-1352.95C1297.08,-1292.13 1306.82,-1271.33 1370.8,-1097.51"/>
<polygon fill="#00876c" stroke="#00876c" stroke-width="2" points="1373.74,-1089.5 1374.51,-1100.44 1373.33,-1092.07 1370.76,-1099.05 1370.29,-1098.88 1369.82,-1098.71 1372.39,-1091.73 1366.07,-1097.33 1373.74,-1089.5"/>
</g>
<!-- 26469 -->
<g id="node23" class="node">
<title>26469</title>
<ellipse fill="none" stroke="#e18745" cx="1466.36" cy="-1305.83" rx="155.56" ry="28.99"/>
<text text-anchor="middle" x="1466.36" y="-1309.03" font-family="Times,serif" font-size="14.00" fill="gray">Fossology</text>
<text text-anchor="middle" x="1466.36" y="-1292.53" font-family="Times,serif" font-size="14.00" fill="gray">d24167b4e78caf964cef92899fc9a4b4</text>
</g>
<!-- 26469&#45;&gt;26470 -->
<g id="edge39" class="edge">
<title>26469&#45;&gt;26470</title>
<path fill="none" stroke="#e18745" d="M1482.01,-1276.84C1482.34,-1275.23 1482.63,-1273.49 1482.91,-1271.59"/>
<polygon fill="#e18745" stroke="#e18745" points="1486.34,-1272.39 1484.01,-1262.05 1479.39,-1271.59 1486.34,-1272.39"/>
</g>
<!-- 27261 -->
<g id="node25" class="node">
<title>27261</title>
<polygon fill="none" stroke="black" points="1512.32,-1422.38 1512.32,-1437.29 1477.16,-1447.83 1427.44,-1447.83 1392.29,-1437.29 1392.29,-1422.38 1427.44,-1411.83 1477.16,-1411.83 1512.32,-1422.38"/>
<text text-anchor="middle" x="1452.3" y="-1424.78" font-family="Times,serif" font-size="14.00">PHP license</text>
</g>
<!-- 27261&#45;&gt;37397 -->
<g id="edge40" class="edge">
<title>27261&#45;&gt;37397</title>
<path fill="none" stroke="#379469" stroke-dasharray="5,2" d="M1500.85,-1441.12C1580.65,-1459.13 1604.92,-1459.69 1653.6,-1437.17"/>
<polygon fill="#379469" stroke="#379469" points="1662.59,-1432.88 1655.5,-1441.25 1659.18,-1434.51 1653.57,-1437.18 1653.57,-1437.18 1653.57,-1437.18 1659.18,-1434.51 1651.63,-1433.12 1662.59,-1432.88"/>
</g>
<!-- 27261&#45;&gt;47216 -->
<g id="edge41" class="edge">
<title>27261&#45;&gt;47216</title>
<path fill="none" stroke="#00876c" stroke-dasharray="5,2" d="M1450.73,-1411.43C1442.91,-1321.04 1439.59,-1304.26 1390.58,-1097.88"/>
<polygon fill="#00876c" stroke="#00876c" points="1388.34,-1088.45 1395.03,-1097.14 1389.21,-1092.13 1390.65,-1098.18 1390.65,-1098.18 1390.65,-1098.18 1389.21,-1092.13 1386.27,-1099.22 1388.34,-1088.45"/>
</g>
<!-- 35166 -->
<g id="node26" class="node">
<title>35166</title>
<ellipse fill="none" stroke="#e06f45" cx="1781.6" cy="-710.67" rx="161.93" ry="28.99"/>
<text text-anchor="middle" x="1781.6" y="-713.87" font-family="Times,serif" font-size="14.00" fill="gray">OrtLicenseCategorization</text>
<text text-anchor="middle" x="1781.6" y="-697.37" font-family="Times,serif" font-size="14.00" fill="gray">2b3686200cc7402d3e009b747c473063</text>
</g>
<!-- 35166&#45;&gt;3616 -->
<g id="edge42" class="edge">
<title>35166&#45;&gt;3616</title>
<path fill="none" stroke="#e06f45" d="M1791.06,-739.73C1791.64,-743.91 1791.56,-747.9 1790.79,-752.43"/>
<polygon fill="#e06f45" stroke="#e06f45" points="1787.41,-751.52 1788.36,-762.07 1794.2,-753.23 1787.41,-751.52"/>
</g>
<!-- 37396 -->
<g id="node27" class="node">
<title>37396</title>
<ellipse fill="none" stroke="#379469" cx="1936.81" cy="-1736.87" rx="156.62" ry="28.99"/>
<text text-anchor="middle" x="1936.81" y="-1740.07" font-family="Times,serif" font-size="14.00" fill="gray">CavilLicenseChange</text>
<text text-anchor="middle" x="1936.81" y="-1723.57" font-family="Times,serif" font-size="14.00" fill="gray">97ee0a9018bc1920baf7f80a11a2bc88</text>
</g>
<!-- 37396&#45;&gt;37397 -->
<g id="edge43" class="edge">
<title>37396&#45;&gt;37397</title>
<path fill="none" stroke="#379469" d="M1917.12,-1707.86C1870.18,-1638.85 1853.36,-1615.76 1726.36,-1443.74"/>
<polygon fill="#379469" stroke="#379469" points="1729.29,-1441.82 1720.53,-1435.85 1723.66,-1445.98 1729.29,-1441.82"/>
</g>
<!-- 37398 -->
<g id="node29" class="node">
<title>37398</title>
<polygon fill="none" stroke="#379469" points="1724.33,-1668.21 1724.33,-1683.12 1692.75,-1693.66 1648.08,-1693.66 1616.49,-1683.12 1616.49,-1668.21 1648.08,-1657.66 1692.75,-1657.66 1724.33,-1668.21"/>
<text text-anchor="middle" x="1670.41" y="-1670.61" font-family="Times,serif" font-size="14.00">PHP&#45;3.0.1</text>
</g>
<!-- 37398&#45;&gt;37397 -->
<g id="edge44" class="edge">
<title>37398&#45;&gt;37397</title>
<path fill="none" stroke="#379469" stroke-dasharray="5,2" d="M1679.74,-1657.28C1711.94,-1593.16 1713.59,-1577.78 1705.2,-1445.61"/>
<polygon fill="#379469" stroke="#379469" points="1704.57,-1435.83 1709.7,-1445.52 1704.81,-1439.6 1705.21,-1445.81 1705.21,-1445.81 1705.21,-1445.81 1704.81,-1439.6 1700.72,-1446.09 1704.57,-1435.83"/>
</g>
<!-- 37399 -->
<g id="node30" class="node">
<title>37399</title>
<polygon fill="none" stroke="#379469" points="1870.78,-1786.78 1870.78,-1801.7 1790.52,-1812.24 1677.01,-1812.24 1596.75,-1801.7 1596.75,-1786.78 1677.01,-1776.24 1790.52,-1776.24 1870.78,-1786.78"/>
<text text-anchor="middle" x="1733.76" y="-1789.19" font-family="Times,serif" font-size="14.00">The PHP License, version 3.01</text>
</g>
<!-- 37399&#45;&gt;37397 -->
<g id="edge45" class="edge">
<title>37399&#45;&gt;37397</title>
<path fill="none" stroke="#379469" stroke-dasharray="5,2" d="M1737.3,-1776.04C1757.09,-1673.21 1755.63,-1657.08 1710.21,-1445.53"/>
<polygon fill="#379469" stroke="#379469" points="1708.13,-1435.84 1714.63,-1444.68 1708.93,-1439.54 1710.23,-1445.62 1710.23,-1445.62 1710.23,-1445.62 1708.93,-1439.54 1705.83,-1446.57 1708.13,-1435.84"/>
</g>
<!-- 47215 -->
<g id="node31" class="node">
<title>47215</title>
<ellipse fill="none" stroke="#00876c" cx="1804.31" cy="-945.73" rx="158.22" ry="28.99"/>
<text text-anchor="middle" x="1804.31" y="-948.93" font-family="Times,serif" font-size="14.00" fill="gray">MetaeffektLicense</text>
<text text-anchor="middle" x="1804.31" y="-932.43" font-family="Times,serif" font-size="14.00" fill="gray">d29f636a5b783d47e2baa0020c0e8c7c</text>
</g>
<!-- 47215&#45;&gt;47216 -->
<g id="edge46" class="edge">
<title>47215&#45;&gt;47216</title>
<path fill="none" stroke="#00876c" d="M1762.51,-973.99C1690.57,-1021.41 1655.96,-1033.19 1513.98,-1050.27"/>
<polygon fill="#00876c" stroke="#00876c" points="1513.68,-1046.78 1504.16,-1051.44 1514.51,-1053.73 1513.68,-1046.78"/>
</g>
<!-- 47217 -->
<g id="node33" class="node">
<title>47217</title>
<polygon fill="none" stroke="#00876c" points="1100.32,-1184.68 1100.32,-1199.59 1050.56,-1210.13 980.19,-1210.13 930.43,-1199.59 930.43,-1184.68 980.19,-1174.13 1050.56,-1174.13 1100.32,-1184.68"/>
<text text-anchor="middle" x="1015.37" y="-1187.08" font-family="Times,serif" font-size="14.00">PHP, Version 3.01</text>
</g>
<!-- 47217&#45;&gt;47216 -->
<g id="edge47" class="edge">
<title>47217&#45;&gt;47216</title>
<path fill="none" stroke="#00876c" stroke-dasharray="5,2" d="M1100.7,-1194.78C1171.89,-1193.14 1209.61,-1173.6 1337.73,-1093.29"/>
<polygon fill="#00876c" stroke="#00876c" points="1346.08,-1088.05 1340.01,-1097.17 1342.88,-1090.06 1337.61,-1093.36 1337.61,-1093.36 1337.61,-1093.36 1342.88,-1090.06 1335.22,-1089.55 1346.08,-1088.05"/>
</g>
<!-- 47218 -->
<g id="node34" class="node">
<title>47218</title>
<polygon fill="none" stroke="#00876c" points="1090.54,-1038.55 1090.54,-1053.47 1059.93,-1064.01 1016.64,-1064.01 986.02,-1053.47 986.02,-1038.55 1016.64,-1028.01 1059.93,-1028.01 1090.54,-1038.55"/>
<text text-anchor="middle" x="1038.28" y="-1040.96" font-family="Times,serif" font-size="14.00">PHP, 3.01</text>
</g>
<!-- 47218&#45;&gt;47216 -->
<g id="edge48" class="edge">
<title>47218&#45;&gt;47216</title>
<path fill="none" stroke="#00876c" stroke-dasharray="5,2" d="M1068.71,-1061.24C1157.64,-1105.24 1184.15,-1111 1293.13,-1086.49"/>
<polygon fill="#00876c" stroke="#00876c" points="1302.75,-1084.29 1294,-1090.9 1299.06,-1085.13 1293,-1086.52 1293,-1086.52 1293,-1086.52 1299.06,-1085.13 1292,-1082.13 1302.75,-1084.29"/>
</g>
<!-- 47219&#45;&gt;47216 -->
<g id="edge49" class="edge">
<title>47219&#45;&gt;47216</title>
<path fill="none" stroke="#00876c" stroke-dasharray="5,2" d="M1607.59,-1191.8C1562.07,-1176.73 1531.92,-1159.22 1427.34,-1093.17"/>
<polygon fill="#00876c" stroke="#00876c" points="1419.03,-1087.92 1429.89,-1089.46 1422.23,-1089.94 1427.48,-1093.26 1427.48,-1093.26 1427.48,-1093.26 1422.23,-1089.94 1425.08,-1097.07 1419.03,-1087.92"/>
</g>
<!-- 51055 -->
<g id="node36" class="node">
<title>51055</title>
<ellipse fill="none" stroke="#dac767" cx="2210.87" cy="-1551.85" rx="157.68" ry="28.99"/>
<text text-anchor="middle" x="2210.87" y="-1555.05" font-family="Times,serif" font-size="14.00" fill="gray">FOSSLight</text>
<text text-anchor="middle" x="2210.87" y="-1538.55" font-family="Times,serif" font-size="14.00" fill="gray">f27b28fa4b80ee9978a6142314171ee3</text>
</g>
<!-- 51055&#45;&gt;51056 -->
<g id="edge50" class="edge">
<title>51055&#45;&gt;51056</title>
<path fill="none" stroke="#dac767" d="M2185.62,-1523.18C2121.3,-1450.56 2097.96,-1429.95 1912.89,-1274.83"/>
<polygon fill="#dac767" stroke="#dac767" points="1915.32,-1272.3 1905.4,-1268.56 1910.82,-1277.66 1915.32,-1272.3"/>
</g>
<!-- 52557 -->
<g id="node38" class="node">
<title>52557</title>
<ellipse fill="none" stroke="#d43d51" cx="159.38" cy="-585.37" rx="159.28" ry="28.99"/>
<text text-anchor="middle" x="159.38" y="-588.57" font-family="Times,serif" font-size="14.00" fill="gray">HitachiOpenLicense</text>
<text text-anchor="middle" x="159.38" y="-572.07" font-family="Times,serif" font-size="14.00" fill="gray">0192a90b961e61692fd11905aab89cc9</text>
</g>
<!-- 52557&#45;&gt;52558 -->
<g id="edge51" class="edge">
<title>52557&#45;&gt;52558</title>
<path fill="none" stroke="#d43d51" d="M289.34,-602.41C336.51,-610.42 394.06,-622.66 509.17,-648.02"/>
<polygon fill="#d43d51" stroke="#d43d51" points="508.12,-651.37 518.64,-650.1 509.63,-644.53 508.12,-651.37"/>
</g>
<!-- 54310 -->
<g id="node40" class="node">
<title>54310</title>
<ellipse fill="none" stroke="#98b561" cx="1077.34" cy="-586.55" rx="160.34" ry="28.99"/>
<text text-anchor="middle" x="1077.34" y="-589.75" font-family="Times,serif" font-size="14.00" fill="gray">EclipseLicense</text>
<text text-anchor="middle" x="1077.34" y="-573.25" font-family="Times,serif" font-size="14.00" fill="gray">809288162dd5ac1a5f58db613ad97b03</text>
</g>
<!-- 54310&#45;&gt;54311 -->
<g id="edge52" class="edge">
<title>54310&#45;&gt;54311</title>
<path fill="none" stroke="#98b561" d="M1146.08,-613.08C1215.14,-642.85 1245.64,-674.07 1367.72,-811.43"/>
<polygon fill="#98b561" stroke="#98b561" points="1364.86,-813.48 1374.12,-818.63 1370.1,-808.83 1364.86,-813.48"/>
</g>
</g>
</svg>
