<?xml version="1.0" encoding="UTF-8" standalone="no"?>
<!DOCTYPE svg PUBLIC "-//W3C//DTD SVG 1.1//EN"
 "http://www.w3.org/Graphics/SVG/1.1/DTD/svg11.dtd">
<!-- Generated by graphviz version 10.0.1 (0)
 -->
<!-- Pages: 1 -->
<svg width="453pt" height="173pt"
 viewBox="0.00 0.00 453.00 173.00" xmlns="http://www.w3.org/2000/svg" xmlns:xlink="http://www.w3.org/1999/xlink">
<g id="graph0" class="graph" transform="scale(1 1) rotate(0) translate(4 169)">
<polygon fill="white" stroke="none" points="-4,4 -4,-169 449,-169 449,4 -4,4"/>
<!-- 5564 -->
<g id="node1" class="node">
<title>5564</title>
<ellipse fill="none" stroke="#e06f45" cx="156.29" cy="-29.02" rx="156.62" ry="28.99"/>
<text text-anchor="middle" x="156.29" y="-32.22" font-family="Times,serif" font-size="14.00" fill="gray">GoogleLicense</text>
<text text-anchor="middle" x="156.29" y="-15.72" font-family="Times,serif" font-size="14.00" fill="gray">4f22bde32a9d53b3a8e442c579b78f9f</text>
</g>
<!-- 5565 -->
<g id="node2" class="node">
<title>5565</title>
<polygon fill="none" stroke="#e06f45" points="441.21,-75.61 441.21,-90.53 408,-101.07 361.04,-101.07 327.83,-90.53 327.83,-75.61 361.04,-65.07 408,-65.07 441.21,-75.61"/>
<polygon fill="none" stroke="#e06f45" points="445.21,-72.69 445.21,-93.45 408.62,-105.07 360.42,-105.07 323.83,-93.45 323.83,-72.69 360.42,-61.07 408.62,-61.07 445.21,-72.69"/>
<text text-anchor="middle" x="384.52" y="-78.02" font-family="Times,serif" font-size="14.00">google:PIL</text>
</g>
<!-- 5564&#45;&gt;5565 -->
<g id="edge1" class="edge">
<title>5564&#45;&gt;5565</title>
<path fill="none" stroke="#e06f45" d="M302.86,-39.44C318.07,-43.21 330.44,-48.68 344.48,-56.91"/>
<polygon fill="#e06f45" stroke="#e06f45" points="342.34,-59.7 352.7,-61.93 345.99,-53.73 342.34,-59.7"/>
</g>
<!-- 5566 -->
<g id="node3" class="node">
<title>5566</title>
<polygon fill="none" stroke="#e06f45" points="422.46,-18.65 422.46,-33.57 406.64,-44.11 384.27,-44.11 368.46,-33.57 368.46,-18.65 384.27,-8.11 406.64,-8.11 422.46,-18.65"/>
<polygon fill="none" stroke="#e06f45" points="426.46,-16.51 426.46,-35.71 407.85,-48.11 383.06,-48.11 364.46,-35.71 364.46,-16.51 383.06,-4.11 407.85,-4.11 426.46,-16.51"/>
<text text-anchor="middle" x="395.46" y="-21.06" font-family="Times,serif" font-size="14.00">PIL</text>
</g>
<!-- 5566&#45;&gt;5565 -->
<g id="edge2" class="edge">
<title>5566&#45;&gt;5565</title>
<path fill="none" stroke="#e06f45" stroke-width="2" d="M399.07,-48.48C399.06,-48.98 399.03,-49.48 399,-49.97"/>
<polygon fill="#e06f45" stroke="#e06f45" stroke-width="2" points="396.81,-58.35 394.98,-47.54 396.98,-55.74 398.85,-48.55 399.34,-48.67 399.82,-48.8 397.94,-55.99 403.69,-49.81 396.81,-58.35"/>
</g>
<!-- 5567 -->
<g id="node4" class="node">
<title>5567</title>
<polygon fill="none" stroke="#e06f45" points="402.73,-131.74 402.73,-146.65 374.39,-157.19 334.31,-157.19 305.97,-146.65 305.97,-131.74 334.31,-121.19 374.39,-121.19 402.73,-131.74"/>
<polygon fill="none" stroke="#e06f45" points="406.73,-128.96 406.73,-149.43 375.11,-161.19 333.59,-161.19 301.97,-149.43 301.97,-128.96 333.59,-117.19 375.11,-117.19 406.73,-128.96"/>
<polygon fill="none" stroke="#e06f45" points="410.73,-126.18 410.73,-152.21 375.83,-165.19 332.87,-165.19 297.97,-152.21 297.97,-126.18 332.87,-113.19 375.83,-113.19 410.73,-126.18"/>
<text text-anchor="middle" x="354.35" y="-134.14" font-family="Times,serif" font-size="14.00">spdx:PIL</text>
</g>
<!-- 5566&#45;&gt;5567 -->
<g id="edge3" class="edge">
<title>5566&#45;&gt;5567</title>
<path fill="none" stroke="#e06f45" stroke-width="2" d="M396.67,-48.42C397.54,-72.84 395.09,-83.94 381.23,-104"/>
<polygon fill="#e06f45" stroke="#e06f45" stroke-width="2" points="376.26,-110.89 378.46,-100.15 377.35,-108.52 381.71,-102.49 382.11,-102.78 382.52,-103.07 378.16,-109.1 385.76,-105.42 376.26,-110.89"/>
</g>
<!-- 5567&#45;&gt;5565 -->
<g id="edge4" class="edge">
<title>5567&#45;&gt;5565</title>
<path fill="none" stroke="#e06f45" stroke-width="2" d="M378.27,-113.94C378.32,-113.86 378.37,-113.77 378.41,-113.69"/>
<polygon fill="#e06f45" stroke="#e06f45" stroke-width="2" points="380.87,-107.44 381.4,-118.4 380.4,-110.01 377.67,-116.93 377.21,-116.75 376.74,-116.57 379.47,-109.65 373.02,-115.1 380.87,-107.44"/>
</g>
</g>
</svg>
