<?xml version="1.0" encoding="UTF-8" standalone="no"?>
<!DOCTYPE svg PUBLIC "-//W3C//DTD SVG 1.1//EN"
 "http://www.w3.org/Graphics/SVG/1.1/DTD/svg11.dtd">
<!-- Generated by graphviz version 10.0.1 (0)
 -->
<!-- Pages: 1 -->
<svg width="3572pt" height="2104pt"
 viewBox="0.00 0.00 3572.00 2104.00" xmlns="http://www.w3.org/2000/svg" xmlns:xlink="http://www.w3.org/1999/xlink">
<g id="graph0" class="graph" transform="scale(1 1) rotate(0) translate(4 2100)">
<polygon fill="white" stroke="none" points="-4,4 -4,-2100 3568,-2100 3568,4 -4,4"/>
<!-- 5 -->
<g id="node1" class="node">
<title>5</title>
<text text-anchor="start" x="1995.27" y="-322.54" font-family="Times,serif" font-size="14.00">OSI: </text>
<text text-anchor="start" x="2024.52" y="-322.54" font-family="Times,serif" font-weight="bold" font-size="14.00" fill="#8b0000">Rejected</text>
</g>
<!-- 4090 -->
<g id="node3" class="node">
<title>4090</title>
<ellipse fill="none" stroke="#dac767" cx="1899.66" cy="-678.51" rx="158.22" ry="28.99"/>
<text text-anchor="middle" x="1899.66" y="-681.71" font-family="Times,serif" font-size="14.00" fill="gray">SPDXLicense</text>
<text text-anchor="middle" x="1899.66" y="-665.21" font-family="Times,serif" font-size="14.00" fill="gray">4e7d0547b071f0b22f48f1d74121159c</text>
</g>
<!-- 5&#45;&gt;4090 -->
<g id="edge1" class="edge">
<title>5&#45;&gt;4090</title>
<path fill="none" stroke="#dac767" d="M2027.58,-344.51C1993.47,-426.74 1986.78,-444.14 1914.53,-638.51"/>
<polygon fill="#dac767" stroke="#dac767" points="1911.32,-637.1 1911.11,-647.69 1917.88,-639.54 1911.32,-637.1"/>
</g>
<!-- 4086 -->
<g id="node2" class="node">
<title>4086</title>
<text text-anchor="middle" x="2243.17" y="-337.84" font-family="Times,serif" font-size="14.00">SPDXLicense:</text>
<text text-anchor="middle" x="2243.17" y="-321.34" font-family="Times,serif" font-size="14.00">This license was released on July 9, 2019.</text>
</g>
<!-- 4086&#45;&gt;4090 -->
<g id="edge2" class="edge">
<title>4086&#45;&gt;4090</title>
<path fill="none" stroke="#dac767" d="M2213.59,-354.96C2121.16,-418.91 2100.91,-440.34 1931.46,-640.86"/>
<polygon fill="#dac767" stroke="#dac767" points="1928.82,-638.56 1925.04,-648.45 1934.17,-643.07 1928.82,-638.56"/>
</g>
<!-- 4091 -->
<g id="node4" class="node">
<title>4091</title>
<polygon fill="none" stroke="black" points="1780.67,-1358.73 1780.67,-1373.64 1684.83,-1384.19 1549.29,-1384.19 1453.45,-1373.64 1453.45,-1358.73 1549.29,-1348.19 1684.83,-1348.19 1780.67,-1358.73"/>
<polygon fill="none" stroke="black" points="1784.67,-1355.15 1784.67,-1377.23 1685.05,-1388.19 1549.07,-1388.19 1449.45,-1377.23 1449.45,-1355.15 1549.07,-1344.19 1685.05,-1344.19 1784.67,-1355.15"/>
<polygon fill="none" stroke="black" points="1788.67,-1351.56 1788.67,-1380.81 1685.27,-1392.19 1548.85,-1392.19 1445.45,-1380.81 1445.45,-1351.56 1548.85,-1340.19 1685.27,-1340.19 1788.67,-1351.56"/>
<text text-anchor="middle" x="1617.06" y="-1361.14" font-family="Times,serif" font-size="14.00">spdx:PolyForm&#45;Small&#45;Business&#45;1.0.0</text>
</g>
<!-- 4090&#45;&gt;4091 -->
<g id="edge3" class="edge">
<title>4090&#45;&gt;4091</title>
<path fill="none" stroke="#dac767" d="M1870.1,-707.18C1663.86,-907.65 1656.16,-930.99 1620.44,-1328.44"/>
<polygon fill="#dac767" stroke="#dac767" points="1616.98,-1327.92 1619.57,-1338.19 1623.95,-1328.55 1616.98,-1327.92"/>
</g>
<!-- 24611 -->
<g id="node12" class="node">
<title>24611</title>
<polygon fill="none" stroke="black" points="2329.33,-1371.93 2329.33,-1386.84 2226.68,-1397.38 2081.5,-1397.38 1978.85,-1386.84 1978.85,-1371.93 2081.5,-1361.38 2226.68,-1361.38 2329.33,-1371.93"/>
<polygon fill="none" stroke="black" points="2333.33,-1368.32 2333.33,-1390.45 2226.88,-1401.38 2081.3,-1401.38 1974.85,-1390.45 1974.85,-1368.32 2081.3,-1357.38 2226.88,-1357.38 2333.33,-1368.32"/>
<text text-anchor="middle" x="2154.09" y="-1374.33" font-family="Times,serif" font-size="14.00">scancode:polyform&#45;small&#45;business&#45;1.0.0</text>
</g>
<!-- 4091&#45;&gt;24611 -->
<g id="edge4" class="edge">
<title>4091&#45;&gt;24611</title>
<path fill="none" stroke="#deb256" stroke-width="2" d="M1789.04,-1376.76C1844.65,-1378.61 1906.64,-1380.18 1963.52,-1381.19"/>
<polygon fill="#deb256" stroke="#deb256" stroke-width="2" points="1972.01,-1381.34 1961.94,-1385.66 1969.44,-1381.79 1962.01,-1381.66 1962.02,-1381.16 1962.02,-1380.66 1969.46,-1380.79 1962.09,-1376.67 1972.01,-1381.34"/>
</g>
<!-- 55051 -->
<g id="node26" class="node">
<title>55051</title>
<polygon fill="none" stroke="#379469" points="1796.41,-1498.57 1796.41,-1513.48 1668.77,-1524.02 1488.25,-1524.02 1360.61,-1513.48 1360.61,-1498.57 1488.25,-1488.02 1668.77,-1488.02 1796.41,-1498.57"/>
<polygon fill="none" stroke="#379469" points="1800.41,-1494.89 1800.41,-1517.16 1668.93,-1528.02 1488.09,-1528.02 1356.61,-1517.16 1356.61,-1494.89 1488.09,-1484.02 1668.93,-1484.02 1800.41,-1494.89"/>
<text text-anchor="middle" x="1578.51" y="-1500.97" font-family="Times,serif" font-size="14.00">metaeffekt:Polyform Small Business License 1.0.0</text>
</g>
<!-- 4091&#45;&gt;55051 -->
<g id="edge5" class="edge">
<title>4091&#45;&gt;55051</title>
<path fill="none" stroke="#379469" stroke-width="2" d="M1608.34,-1392.65C1593.57,-1437.56 1588,-1455.34 1584.29,-1472.64"/>
<polygon fill="#379469" stroke="#379469" stroke-width="2" points="1582.63,-1481.19 1580.12,-1470.52 1582.63,-1478.58 1584.05,-1471.28 1584.54,-1471.38 1585.03,-1471.47 1583.61,-1478.77 1588.96,-1472.24 1582.63,-1481.19"/>
</g>
<!-- 4092 -->
<g id="node5" class="node">
<title>4092</title>
<polygon fill="none" stroke="black" points="1746.48,-1436.78 1746.48,-1451.69 1663.3,-1462.24 1545.66,-1462.24 1462.48,-1451.69 1462.48,-1436.78 1545.66,-1426.24 1663.3,-1426.24 1746.48,-1436.78"/>
<polygon fill="none" stroke="black" points="1750.48,-1433.26 1750.48,-1455.22 1663.55,-1466.24 1545.41,-1466.24 1458.48,-1455.22 1458.48,-1433.26 1545.41,-1422.24 1663.55,-1422.24 1750.48,-1433.26"/>
<text text-anchor="middle" x="1604.48" y="-1439.19" font-family="Times,serif" font-size="14.00">PolyForm&#45;Small&#45;Business&#45;1.0.0</text>
</g>
<!-- 4092&#45;&gt;4091 -->
<g id="edge6" class="edge">
<title>4092&#45;&gt;4091</title>
<path fill="none" stroke="black" stroke-width="2" d="M1604.84,-1421.9C1605.37,-1416.8 1606.37,-1411.21 1608.17,-1403.13"/>
<polygon fill="black" stroke="black" stroke-width="2" points="1610.11,-1394.76 1612.24,-1405.51 1610.02,-1397.37 1608.34,-1404.61 1607.85,-1404.5 1607.37,-1404.38 1609.05,-1397.14 1603.47,-1403.48 1610.11,-1394.76"/>
</g>
<!-- 4092&#45;&gt;24611 -->
<g id="edge7" class="edge">
<title>4092&#45;&gt;24611</title>
<path fill="none" stroke="black" stroke-width="2" d="M1685.2,-1463.87C1892.35,-1513.15 1927.19,-1506.66 2104.72,-1407.23"/>
<polygon fill="black" stroke="black" stroke-width="2" points="2112.27,-1403 2105.75,-1411.82 2110.28,-1404.69 2103.79,-1408.33 2103.55,-1407.89 2103.3,-1407.46 2109.79,-1403.82 2101.34,-1403.97 2112.27,-1403"/>
</g>
<!-- 35144 -->
<g id="node18" class="node">
<title>35144</title>
<polygon fill="none" stroke="#e18745" points="1930.85,-911.81 1930.85,-926.72 1823.33,-937.26 1671.27,-937.26 1563.75,-926.72 1563.75,-911.81 1671.27,-901.26 1823.33,-901.26 1930.85,-911.81"/>
<polygon fill="none" stroke="#e18745" points="1934.85,-908.18 1934.85,-930.35 1823.53,-941.26 1671.08,-941.26 1559.75,-930.35 1559.75,-908.18 1671.08,-897.26 1823.53,-897.26 1934.85,-908.18"/>
<text text-anchor="middle" x="1747.3" y="-914.21" font-family="Times,serif" font-size="14.00">fossology:PolyForm&#45;Small&#45;Business&#45;1.0.0</text>
</g>
<!-- 4092&#45;&gt;35144 -->
<g id="edge8" class="edge">
<title>4092&#45;&gt;35144</title>
<path fill="none" stroke="#e18745" stroke-width="2" d="M1604.97,-1421.85C1608.41,-1271.6 1613.98,-1252.87 1734.21,-952.02"/>
<polygon fill="#e18745" stroke="#e18745" stroke-width="2" points="1737.44,-943.92 1737.91,-954.87 1736.96,-946.48 1734.2,-953.39 1733.73,-953.2 1733.27,-953.02 1736.03,-946.11 1729.55,-951.53 1737.44,-943.92"/>
</g>
<!-- 42186 -->
<g id="node24" class="node">
<title>42186</title>
<polygon fill="none" stroke="#379469" points="1318.11,-1664.13 1318.11,-1679.04 1221.95,-1689.58 1085.95,-1689.58 989.79,-1679.04 989.79,-1664.13 1085.95,-1653.58 1221.95,-1653.58 1318.11,-1664.13"/>
<polygon fill="none" stroke="#379469" points="1322.11,-1660.54 1322.11,-1682.62 1222.17,-1693.58 1085.73,-1693.58 985.79,-1682.62 985.79,-1660.54 1085.73,-1649.58 1222.17,-1649.58 1322.11,-1660.54"/>
<text text-anchor="middle" x="1153.95" y="-1666.53" font-family="Times,serif" font-size="14.00">cavil:PolyForm&#45;Small&#45;Business&#45;1.0.0</text>
</g>
<!-- 4092&#45;&gt;42186 -->
<g id="edge9" class="edge">
<title>4092&#45;&gt;42186</title>
<path fill="none" stroke="#379469" stroke-width="2" d="M1571.26,-1466.49C1383.32,-1592.35 1330.57,-1626.12 1253.2,-1648.44"/>
<polygon fill="#379469" stroke="#379469" stroke-width="2" points="1244.96,-1650.73 1253.39,-1643.72 1247.29,-1649.57 1254.46,-1647.57 1254.59,-1648.05 1254.73,-1648.54 1247.56,-1650.53 1255.8,-1652.39 1244.96,-1650.73"/>
</g>
<!-- 4092&#45;&gt;55051 -->
<g id="edge10" class="edge">
<title>4092&#45;&gt;55051</title>
<path fill="none" stroke="#379469" stroke-dasharray="5,2" d="M1594.89,-1466.68C1593.85,-1469.11 1592.91,-1471.31 1592.06,-1473.31"/>
<polygon fill="#379469" stroke="#379469" points="1588.18,-1482.48 1587.94,-1471.51 1589.65,-1478.99 1592.08,-1473.27 1592.08,-1473.27 1592.08,-1473.27 1589.65,-1478.99 1596.22,-1475.02 1588.18,-1482.48"/>
</g>
<!-- 4093 -->
<g id="node6" class="node">
<title>4093</title>
<polygon fill="none" stroke="black" points="2128.7,-1426.41 2128.7,-1441.32 2026.7,-1451.87 1882.44,-1451.87 1780.44,-1441.32 1780.44,-1426.41 1882.44,-1415.87 2026.7,-1415.87 2128.7,-1426.41"/>
<polygon fill="none" stroke="black" points="2132.7,-1422.8 2132.7,-1444.93 2026.9,-1455.87 1882.23,-1455.87 1776.44,-1444.93 1776.44,-1422.8 1882.23,-1411.87 2026.9,-1411.87 2132.7,-1422.8"/>
<text text-anchor="middle" x="1954.57" y="-1428.82" font-family="Times,serif" font-size="14.00">PolyForm Small Business License 1.0.0</text>
</g>
<!-- 4093&#45;&gt;4091 -->
<g id="edge11" class="edge">
<title>4093&#45;&gt;4091</title>
<path fill="none" stroke="#dac767" stroke-width="2" d="M1850.23,-1453.05C1786.8,-1460.29 1753.38,-1447.37 1670.51,-1398.34"/>
<polygon fill="#dac767" stroke="#dac767" stroke-width="2" points="1663.08,-1393.92 1673.97,-1395.16 1665.54,-1394.8 1671.93,-1398.6 1671.67,-1399.03 1671.42,-1399.46 1665.02,-1395.66 1669.37,-1402.9 1663.08,-1393.92"/>
</g>
<!-- 4093&#45;&gt;24611 -->
<g id="edge12" class="edge">
<title>4093&#45;&gt;24611</title>
<path fill="none" stroke="#deb256" stroke-width="2" d="M2100.94,-1419.17C2106.13,-1416.07 2111.49,-1412.44 2117.26,-1408.24"/>
<polygon fill="#deb256" stroke="#deb256" stroke-width="2" points="2124.11,-1403.11 2118.8,-1412.71 2122.36,-1405.04 2116.4,-1409.5 2116.1,-1409.1 2115.8,-1408.7 2121.76,-1404.24 2113.41,-1405.5 2124.11,-1403.11"/>
</g>
<!-- 4093&#45;&gt;35144 -->
<g id="edge13" class="edge">
<title>4093&#45;&gt;35144</title>
<path fill="none" stroke="#e18745" stroke-width="2" d="M1947.41,-1411.58C1904.46,-1278.06 1896.26,-1258.23 1761.53,-951.63"/>
<polygon fill="#e18745" stroke="#e18745" stroke-width="2" points="1758.07,-943.77 1766.21,-951.12 1759.56,-945.92 1762.55,-952.73 1762.1,-952.93 1761.64,-953.13 1758.65,-946.32 1757.98,-954.74 1758.07,-943.77"/>
</g>
<!-- 4093&#45;&gt;55051 -->
<g id="edge14" class="edge">
<title>4093&#45;&gt;55051</title>
<path fill="none" stroke="#379469" stroke-width="2" d="M1916.53,-1456.26C1807.7,-1519.98 1769.76,-1537.25 1695.86,-1528.57"/>
<polygon fill="#379469" stroke="#379469" stroke-width="2" points="1687.6,-1527.5 1698.1,-1524.33 1690.21,-1527.33 1697.58,-1528.29 1697.52,-1528.79 1697.45,-1529.29 1690.08,-1528.32 1696.93,-1533.25 1687.6,-1527.5"/>
</g>
<!-- 68297 -->
<g id="node30" class="node">
<title>68297</title>
<polygon fill="none" stroke="#00876c" points="2243.72,-1485.38 2243.72,-1500.29 2119.98,-1510.83 1944.97,-1510.83 1821.23,-1500.29 1821.23,-1485.38 1944.97,-1474.83 2119.98,-1474.83 2243.72,-1485.38"/>
<polygon fill="none" stroke="#00876c" points="2247.72,-1481.7 2247.72,-1503.96 2120.15,-1514.83 1944.8,-1514.83 1817.23,-1503.96 1817.23,-1481.7 1944.8,-1470.83 2120.15,-1470.83 2247.72,-1481.7"/>
<text text-anchor="middle" x="2032.48" y="-1487.78" font-family="Times,serif" font-size="14.00">scancode:Polyform Small Business License 1.0.0</text>
</g>
<!-- 4093&#45;&gt;68297 -->
<g id="edge15" class="edge">
<title>4093&#45;&gt;68297</title>
<path fill="none" stroke="#00876c" stroke-width="2" d="M1977.32,-1456.05C1980.09,-1458.72 1982.62,-1461.12 1984.96,-1463.3"/>
<polygon fill="#00876c" stroke="#00876c" stroke-width="2" points="1991.32,-1469.04 1980.89,-1465.68 1989.09,-1467.7 1983.57,-1462.71 1983.9,-1462.34 1984.23,-1461.97 1989.76,-1466.95 1986.91,-1459 1991.32,-1469.04"/>
</g>
<!-- 68298 -->
<g id="node31" class="node">
<title>68298</title>
<polygon fill="none" stroke="#00876c" points="1966.41,-1919.65 1966.41,-1934.56 1851.75,-1945.11 1689.59,-1945.11 1574.93,-1934.56 1574.93,-1919.65 1689.59,-1909.11 1851.75,-1909.11 1966.41,-1919.65"/>
<polygon fill="none" stroke="#00876c" points="1970.41,-1916 1970.41,-1938.21 1851.93,-1949.11 1689.41,-1949.11 1570.93,-1938.21 1570.93,-1916 1689.41,-1905.11 1851.93,-1905.11 1970.41,-1916"/>
<text text-anchor="middle" x="1770.67" y="-1922.06" font-family="Times,serif" font-size="14.00">spdx:PolyForm Small Business License 1.0.0</text>
</g>
<!-- 4093&#45;&gt;68298 -->
<g id="edge16" class="edge">
<title>4093&#45;&gt;68298</title>
<path fill="none" stroke="#00876c" stroke-width="2" d="M1949.61,-1456.01C1881.83,-1758.48 1874.49,-1785.38 1793.7,-1895.88"/>
<polygon fill="#00876c" stroke="#00876c" stroke-width="2" points="1788.68,-1902.73 1790.96,-1892 1789.79,-1900.37 1794.19,-1894.37 1794.59,-1894.67 1795,-1894.96 1790.6,-1900.96 1798.22,-1897.33 1788.68,-1902.73"/>
</g>
<!-- 4094 -->
<g id="node7" class="node">
<title>4094</title>
<text text-anchor="middle" x="1814.02" y="-244.86" font-family="Times,serif" font-size="14.00">$TEXT</text>
</g>
<!-- 4094&#45;&gt;4090 -->
<g id="edge17" class="edge">
<title>4094&#45;&gt;4090</title>
<path fill="none" stroke="#dac767" d="M1821.54,-267.74C1865.74,-372.78 1869.25,-390.59 1895.4,-638.11"/>
<polygon fill="#dac767" stroke="#dac767" points="1891.89,-638.22 1896.42,-647.8 1898.85,-637.49 1891.89,-638.22"/>
</g>
<!-- 4095 -->
<g id="node8" class="node">
<title>4095</title>
<text text-anchor="middle" x="1776.19" y="-12.67" font-family="Times,serif" font-size="14.00">$TEXT</text>
</g>
<!-- 4095&#45;&gt;4094 -->
<g id="edge18" class="edge">
<title>4095&#45;&gt;4094</title>
<path fill="none" stroke="#dac767" d="M1781.22,-35.51C1794.91,-84.52 1797.21,-99.94 1810.75,-220.75"/>
<polygon fill="#dac767" stroke="#dac767" points="1807.25,-220.93 1811.84,-230.48 1814.21,-220.15 1807.25,-220.93"/>
</g>
<!-- 4096 -->
<g id="node9" class="node">
<title>4096</title>
<text text-anchor="middle" x="2312.38" y="-922.9" font-family="Times,serif" font-size="14.00">https://polyformproject.org/licenses/small&#45;business/1.0.0</text>
</g>
<!-- 4096&#45;&gt;4090 -->
<g id="edge19" class="edge">
<title>4096&#45;&gt;4090</title>
<path fill="none" stroke="#dac767" d="M2299.72,-910.08C2200.57,-770.27 2178.78,-747.33 2008.07,-704.48"/>
<polygon fill="#dac767" stroke="#dac767" points="2009.17,-701.15 1998.62,-702.13 2007.47,-707.94 2009.17,-701.15"/>
</g>
<!-- 24610 -->
<g id="node11" class="node">
<title>24610</title>
<ellipse fill="none" stroke="#deb256" cx="2815.13" cy="-1239.86" rx="158.75" ry="28.99"/>
<text text-anchor="middle" x="2815.13" y="-1243.06" font-family="Times,serif" font-size="14.00" fill="gray">ScancodeData</text>
<text text-anchor="middle" x="2815.13" y="-1226.56" font-family="Times,serif" font-size="14.00" fill="gray">33530221a6e9691ddf7e8fcdd8d40b65</text>
</g>
<!-- 4096&#45;&gt;24610 -->
<g id="edge20" class="edge">
<title>4096&#45;&gt;24610</title>
<path fill="none" stroke="#deb256" d="M2353.53,-945.92C2651.28,-1076.06 2683.31,-1092.87 2781.93,-1202.52"/>
<polygon fill="#deb256" stroke="#deb256" points="2779.17,-1204.69 2788.45,-1209.8 2784.39,-1200.02 2779.17,-1204.69"/>
</g>
<!-- 35143 -->
<g id="node17" class="node">
<title>35143</title>
<ellipse fill="none" stroke="#e18745" cx="1740.99" cy="-847.96" rx="157.68" ry="28.99"/>
<text text-anchor="middle" x="1740.99" y="-851.16" font-family="Times,serif" font-size="14.00" fill="gray">Fossology</text>
<text text-anchor="middle" x="1740.99" y="-834.66" font-family="Times,serif" font-size="14.00" fill="gray">f19436345007a022109d7f01f5b0ca07</text>
</g>
<!-- 4096&#45;&gt;35143 -->
<g id="edge21" class="edge">
<title>4096&#45;&gt;35143</title>
<path fill="none" stroke="#e18745" d="M2279.49,-910.06C2149.84,-840.02 2111.87,-828.47 1903.07,-838.67"/>
<polygon fill="#e18745" stroke="#e18745" points="1903.02,-835.17 1893.2,-839.16 1903.37,-842.16 1903.02,-835.17"/>
</g>
<!-- 13449 -->
<g id="node10" class="node">
<title>13449</title>
<text text-anchor="middle" x="3240.15" y="-1167.99" font-family="Times,serif" font-size="14.00">LicenseType Source&#45;available</text>
</g>
<!-- 13449&#45;&gt;24610 -->
<g id="edge22" class="edge">
<title>13449&#45;&gt;24610</title>
<path fill="none" stroke="#deb256" d="M3187.67,-1190.99C3127.01,-1210.84 3089.51,-1217.67 2973,-1227.54"/>
<polygon fill="#deb256" stroke="#deb256" points="2973.03,-1224.02 2963.36,-1228.34 2973.62,-1231 2973.03,-1224.02"/>
</g>
<!-- 24610&#45;&gt;24611 -->
<g id="edge23" class="edge">
<title>24610&#45;&gt;24611</title>
<path fill="none" stroke="#deb256" d="M2766.15,-1267.79C2636.23,-1340.93 2588.47,-1355.27 2345.03,-1369.47"/>
<polygon fill="#deb256" stroke="#deb256" points="2344.95,-1365.96 2335.17,-1370.03 2345.36,-1372.95 2344.95,-1365.96"/>
</g>
<!-- 24611&#45;&gt;4091 -->
<g id="edge24" class="edge">
<title>24611&#45;&gt;4091</title>
<path fill="none" stroke="#00876c" stroke-width="2" d="M1974.68,-1368.56C1918.52,-1366.74 1856.49,-1365.2 1800.09,-1364.25"/>
<polygon fill="#00876c" stroke="#00876c" stroke-width="2" points="1791.32,-1364.1 1801.39,-1359.77 1793.89,-1363.64 1801.33,-1363.77 1801.32,-1364.27 1801.31,-1364.77 1793.87,-1364.64 1801.24,-1368.77 1791.32,-1364.1"/>
</g>
<!-- 24611&#45;&gt;55051 -->
<g id="edge25" class="edge">
<title>24611&#45;&gt;55051</title>
<path fill="none" stroke="#379469" stroke-dasharray="5,2" d="M2121.22,-1401.66C1931.08,-1530.3 1888.71,-1551.54 1712.79,-1527.28"/>
<polygon fill="#379469" stroke="#379469" points="1703.05,-1525.91 1713.58,-1522.85 1706.79,-1526.44 1712.95,-1527.31 1712.95,-1527.31 1712.95,-1527.31 1706.79,-1526.44 1712.32,-1531.76 1703.05,-1525.91"/>
</g>
<!-- 24612 -->
<g id="node13" class="node">
<title>24612</title>
<text text-anchor="middle" x="3320.02" y="-1368.75" font-family="Times,serif" font-size="14.00">https://polyformproject.org/licenses/small&#45;business/1.0.0/</text>
</g>
<!-- 24612&#45;&gt;24610 -->
<g id="edge26" class="edge">
<title>24612&#45;&gt;24610</title>
<path fill="none" stroke="#deb256" d="M3261.82,-1355.89C3175.35,-1329.53 3130.33,-1317.76 2921.68,-1266.17"/>
<polygon fill="#deb256" stroke="#deb256" points="2922.66,-1262.81 2912.11,-1263.81 2920.98,-1269.6 2922.66,-1262.81"/>
</g>
<!-- 24613 -->
<g id="node14" class="node">
<title>24613</title>
<text text-anchor="middle" x="3305.48" y="-1634.22" font-family="Times,serif" font-size="14.00">https://polyformproject.org/wp&#45;content/uploads/2019/07/Polyform&#45;Small&#45;Business&#45;1.0.0.txt</text>
</g>
<!-- 24613&#45;&gt;24610 -->
<g id="edge27" class="edge">
<title>24613&#45;&gt;24610</title>
<path fill="none" stroke="#deb256" d="M3291.8,-1621.37C3186.57,-1483.92 3168.99,-1468.89 2868.13,-1274.14"/>
<polygon fill="#deb256" stroke="#deb256" points="2870.25,-1271.35 2859.95,-1268.85 2866.45,-1277.22 2870.25,-1271.35"/>
</g>
<!-- 24614 -->
<g id="node15" class="node">
<title>24614</title>
<text text-anchor="middle" x="3096.27" y="-1024.94" font-family="Times,serif" font-size="14.00">$TEXT</text>
</g>
<!-- 24614&#45;&gt;24610 -->
<g id="edge28" class="edge">
<title>24614&#45;&gt;24610</title>
<path fill="none" stroke="#deb256" d="M3084.72,-1047.97C3032.69,-1128.49 3017.3,-1143 2883.18,-1207.48"/>
<polygon fill="#deb256" stroke="#deb256" points="2881.76,-1204.28 2874.25,-1211.76 2884.78,-1210.59 2881.76,-1204.28"/>
</g>
<!-- 35141 -->
<g id="node16" class="node">
<title>35141</title>
<text text-anchor="middle" x="1335.06" y="-587.8" font-family="Times,serif" font-size="14.00">Fossology:</text>
<text text-anchor="middle" x="1335.06" y="-571.3" font-family="Times,serif" font-size="14.00">This license was released on July 9, 2019.</text>
</g>
<!-- 35141&#45;&gt;35143 -->
<g id="edge29" class="edge">
<title>35141&#45;&gt;35143</title>
<path fill="none" stroke="#e18745" d="M1389.65,-605.07C1479.2,-639.94 1513,-664.54 1696.6,-812.22"/>
<polygon fill="#e18745" stroke="#e18745" points="1694.29,-814.86 1704.27,-818.4 1698.68,-809.4 1694.29,-814.86"/>
</g>
<!-- 35143&#45;&gt;35144 -->
<g id="edge30" class="edge">
<title>35143&#45;&gt;35144</title>
<path fill="none" stroke="#e18745" d="M1742.12,-877.14C1742.38,-879.67 1742.69,-882.51 1743.08,-885.79"/>
<polygon fill="#e18745" stroke="#e18745" points="1739.59,-886.1 1744.29,-895.59 1746.54,-885.24 1739.59,-886.1"/>
</g>
<!-- 35145 -->
<g id="node19" class="node">
<title>35145</title>
<text text-anchor="middle" x="1558.09" y="-534.29" font-family="Times,serif" font-size="14.00">$TEXT</text>
</g>
<!-- 35145&#45;&gt;35143 -->
<g id="edge31" class="edge">
<title>35145&#45;&gt;35143</title>
<path fill="none" stroke="#e18745" d="M1571.5,-556.98C1621.39,-622.81 1631.57,-640.18 1720.3,-808.66"/>
<polygon fill="#e18745" stroke="#e18745" points="1717.1,-810.08 1724.85,-817.3 1723.29,-806.82 1717.1,-810.08"/>
</g>
<!-- 35433 -->
<g id="node20" class="node">
<title>35433</title>
<text text-anchor="middle" x="294.41" y="-1487.42" font-family="Times,serif" font-size="14.00">LicenseTag (ScopedLicenseTag &quot;OrtLicenseCategorization&quot; &quot;include&#45;in&#45;notice&#45;file&quot; NoLicenseTagText)</text>
</g>
<!-- 39822 -->
<g id="node22" class="node">
<title>39822</title>
<ellipse fill="none" stroke="#d43d51" cx="942.23" cy="-1327.86" rx="157.68" ry="28.99"/>
<text text-anchor="middle" x="942.23" y="-1331.06" font-family="Times,serif" font-size="14.00" fill="gray">OrtLicenseCategorization</text>
<text text-anchor="middle" x="942.23" y="-1314.56" font-family="Times,serif" font-size="14.00" fill="gray">78bb71ca92d26d0df7df52fd6210844e</text>
</g>
<!-- 35433&#45;&gt;39822 -->
<g id="edge32" class="edge">
<title>35433&#45;&gt;39822</title>
<path fill="none" stroke="#d43d51" d="M376.71,-1474.52C490.38,-1449.38 551.17,-1433.49 841.92,-1354.96"/>
<polygon fill="#d43d51" stroke="#d43d51" points="842.6,-1358.4 851.34,-1352.42 840.78,-1351.65 842.6,-1358.4"/>
</g>
<!-- 35522 -->
<g id="node21" class="node">
<title>35522</title>
<text text-anchor="middle" x="319.03" y="-1140.17" font-family="Times,serif" font-size="14.00">LicenseTag (ScopedLicenseTag &quot;OrtLicenseCategorization&quot; &quot;source&#45;available&quot; NoLicenseTagText)</text>
</g>
<!-- 35522&#45;&gt;39822 -->
<g id="edge33" class="edge">
<title>35522&#45;&gt;39822</title>
<path fill="none" stroke="#d43d51" d="M348.06,-1162.96C485.61,-1246.67 519.72,-1259.33 811.85,-1306.9"/>
<polygon fill="#d43d51" stroke="#d43d51" points="810.88,-1310.28 821.31,-1308.43 812,-1303.38 810.88,-1310.28"/>
</g>
<!-- 39822&#45;&gt;4091 -->
<g id="edge34" class="edge">
<title>39822&#45;&gt;4091</title>
<path fill="none" stroke="#d43d51" d="M1009.62,-1354.43C1143.87,-1405.82 1197.32,-1410.45 1450.3,-1384.25"/>
<polygon fill="#d43d51" stroke="#d43d51" points="1450.63,-1387.73 1460.21,-1383.21 1449.9,-1380.77 1450.63,-1387.73"/>
</g>
<!-- 42185 -->
<g id="node23" class="node">
<title>42185</title>
<ellipse fill="none" stroke="#379469" cx="870.54" cy="-1833.77" rx="157.68" ry="28.99"/>
<text text-anchor="middle" x="870.54" y="-1836.97" font-family="Times,serif" font-size="14.00" fill="gray">CavilLicenseChange</text>
<text text-anchor="middle" x="870.54" y="-1820.47" font-family="Times,serif" font-size="14.00" fill="gray">0c3e42820df572508a29bef38b4539ac</text>
</g>
<!-- 42185&#45;&gt;42186 -->
<g id="edge35" class="edge">
<title>42185&#45;&gt;42186</title>
<path fill="none" stroke="#379469" d="M935.05,-1807.05C974.67,-1788.75 1009.72,-1766.56 1110.21,-1700.41"/>
<polygon fill="#379469" stroke="#379469" points="1112.13,-1703.34 1118.55,-1694.91 1108.28,-1697.49 1112.13,-1703.34"/>
</g>
<!-- 55050 -->
<g id="node25" class="node">
<title>55050</title>
<ellipse fill="none" stroke="#379469" cx="1218.51" cy="-2020.46" rx="159.28" ry="28.99"/>
<text text-anchor="middle" x="1218.51" y="-2023.66" font-family="Times,serif" font-size="14.00" fill="gray">MetaeffektLicense</text>
<text text-anchor="middle" x="1218.51" y="-2007.16" font-family="Times,serif" font-size="14.00" fill="gray">dc35af81e061ee67b41265b11348396a</text>
</g>
<!-- 55050&#45;&gt;55051 -->
<g id="edge36" class="edge">
<title>55050&#45;&gt;55051</title>
<path fill="none" stroke="#379469" d="M1242.3,-1991.54C1337.27,-1875.86 1354.93,-1849.66 1558.08,-1537.44"/>
<polygon fill="#379469" stroke="#379469" points="1560.79,-1539.67 1563.31,-1529.38 1554.93,-1535.86 1560.79,-1539.67"/>
</g>
<!-- 55052 -->
<g id="node27" class="node">
<title>55052</title>
<polygon fill="none" stroke="#379469" points="1624.57,-1551.56 1624.57,-1566.47 1537.49,-1577.02 1414.34,-1577.02 1327.27,-1566.47 1327.27,-1551.56 1414.34,-1541.02 1537.49,-1541.02 1624.57,-1551.56"/>
<text text-anchor="middle" x="1475.92" y="-1553.97" font-family="Times,serif" font-size="14.00">Polyform Small Business License</text>
</g>
<!-- 55052&#45;&gt;55051 -->
<g id="edge37" class="edge">
<title>55052&#45;&gt;55051</title>
<path fill="none" stroke="#379469" stroke-dasharray="5,2" d="M1531.26,-1540.67C1533.82,-1538.98 1536.57,-1537.11 1539.54,-1535.01"/>
<polygon fill="#379469" stroke="#379469" points="1547.62,-1529.18 1542.14,-1538.68 1544.55,-1531.39 1539.51,-1535.03 1539.51,-1535.03 1539.51,-1535.03 1544.55,-1531.39 1536.88,-1531.38 1547.62,-1529.18"/>
</g>
<!-- 55053 -->
<g id="node28" class="node">
<title>55053</title>
<polygon fill="none" stroke="#379469" points="1619.42,-2070.42 1619.42,-2085.33 1549.54,-2095.87 1450.72,-2095.87 1380.84,-2085.33 1380.84,-2070.42 1450.72,-2059.87 1549.54,-2059.87 1619.42,-2070.42"/>
<text text-anchor="middle" x="1500.13" y="-2072.82" font-family="Times,serif" font-size="14.00">[Polyform&#45;Small&#45;Business</text>
</g>
<!-- 55053&#45;&gt;55051 -->
<g id="edge38" class="edge">
<title>55053&#45;&gt;55051</title>
<path fill="none" stroke="#379469" stroke-dasharray="5,2" d="M1500.49,-2059.44C1503.52,-1905.94 1506.07,-1888.36 1572.18,-1539.44"/>
<polygon fill="#379469" stroke="#379469" points="1574.03,-1529.69 1576.59,-1540.35 1573.32,-1533.4 1572.16,-1539.51 1572.16,-1539.51 1572.16,-1539.51 1573.32,-1533.4 1567.74,-1538.68 1574.03,-1529.69"/>
</g>
<!-- 68296 -->
<g id="node29" class="node">
<title>68296</title>
<ellipse fill="none" stroke="#00876c" cx="1924.06" cy="-1832.12" rx="155.56" ry="28.99"/>
<text text-anchor="middle" x="1924.06" y="-1835.32" font-family="Times,serif" font-size="14.00" fill="gray">LicenseLynx</text>
<text text-anchor="middle" x="1924.06" y="-1818.82" font-family="Times,serif" font-size="14.00" fill="gray">358743f8fcd5ef0a8a54653c4ba68be8</text>
</g>
<!-- 68296&#45;&gt;4091 -->
<g id="edge39" class="edge">
<title>68296&#45;&gt;4091</title>
<path fill="none" stroke="#00876c" d="M1887.53,-1803.52C1771.99,-1712.06 1756.52,-1683.71 1633.14,-1402.82"/>
<polygon fill="#00876c" stroke="#00876c" points="1636.35,-1401.42 1629.12,-1393.67 1629.94,-1404.23 1636.35,-1401.42"/>
</g>
<!-- 68297&#45;&gt;4091 -->
<g id="edge40" class="edge">
<title>68297&#45;&gt;4091</title>
<path fill="none" stroke="#00876c" stroke-width="2" d="M1817.01,-1489.1C1777.52,-1474.08 1733.91,-1446.17 1664.53,-1398.79"/>
<polygon fill="#00876c" stroke="#00876c" stroke-width="2" points="1657.5,-1393.98 1668.3,-1395.91 1659.9,-1395.01 1666.04,-1399.21 1665.76,-1399.62 1665.47,-1400.03 1659.33,-1395.84 1663.21,-1403.34 1657.5,-1393.98"/>
</g>
<!-- 68298&#45;&gt;4091 -->
<g id="edge41" class="edge">
<title>68298&#45;&gt;4091</title>
<path fill="none" stroke="#00876c" stroke-width="2" d="M1758.09,-1904.88C1679.57,-1765.77 1674.39,-1744.54 1622.73,-1403.59"/>
<polygon fill="#00876c" stroke="#00876c" stroke-width="2" points="1621.43,-1395.04 1627.38,-1404.26 1622.31,-1397.5 1623.42,-1404.86 1622.93,-1404.93 1622.43,-1405.01 1621.32,-1397.65 1618.48,-1405.61 1621.43,-1395.04"/>
</g>
</g>
</svg>
