<?xml version="1.0" encoding="UTF-8" standalone="no"?>
<!DOCTYPE svg PUBLIC "-//W3C//DTD SVG 1.1//EN"
 "http://www.w3.org/Graphics/SVG/1.1/DTD/svg11.dtd">
<!-- Generated by graphviz version 10.0.1 (0)
 -->
<!-- Pages: 1 -->
<svg width="2139pt" height="1789pt"
 viewBox="0.00 0.00 2139.00 1789.00" xmlns="http://www.w3.org/2000/svg" xmlns:xlink="http://www.w3.org/1999/xlink">
<g id="graph0" class="graph" transform="scale(1 1) rotate(0) translate(4 1785)">
<polygon fill="white" stroke="none" points="-4,4 -4,-1785 2135,-1785 2135,4 -4,4"/>
<!-- 3664 -->
<g id="node1" class="node">
<title>3664</title>
<ellipse fill="none" stroke="#b8bf62" cx="583.52" cy="-1752" rx="157.15" ry="28.99"/>
<text text-anchor="middle" x="583.52" y="-1755.2" font-family="Times,serif" font-size="14.00" fill="gray">SPDXLicense</text>
<text text-anchor="middle" x="583.52" y="-1738.7" font-family="Times,serif" font-size="14.00" fill="gray">370defca61dce22da8dceb6b7e99294a</text>
</g>
<!-- 3665 -->
<g id="node2" class="node">
<title>3665</title>
<polygon fill="none" stroke="black" points="898.49,-1255.55 898.49,-1270.46 801.03,-1281.01 663.2,-1281.01 565.73,-1270.46 565.73,-1255.55 663.2,-1245.01 801.03,-1245.01 898.49,-1255.55"/>
<polygon fill="none" stroke="black" points="902.49,-1251.96 902.49,-1274.05 801.24,-1285.01 662.98,-1285.01 561.73,-1274.05 561.73,-1251.96 662.98,-1241.01 801.24,-1241.01 902.49,-1251.96"/>
<polygon fill="none" stroke="black" points="906.49,-1248.37 906.49,-1277.64 801.46,-1289.01 662.76,-1289.01 557.73,-1277.64 557.73,-1248.37 662.76,-1237.01 801.46,-1237.01 906.49,-1248.37"/>
<text text-anchor="middle" x="732.11" y="-1257.96" font-family="Times,serif" font-size="14.00">spdx:PolyForm&#45;Noncommercial&#45;1.0.0</text>
</g>
<!-- 3664&#45;&gt;3665 -->
<g id="edge1" class="edge">
<title>3664&#45;&gt;3665</title>
<path fill="none" stroke="#b8bf62" d="M586.85,-1722.65C601.39,-1596.83 609.34,-1573.07 717.45,-1300.02"/>
<polygon fill="#b8bf62" stroke="#b8bf62" points="720.69,-1301.36 721.11,-1290.77 714.18,-1298.78 720.69,-1301.36"/>
</g>
<!-- 47122 -->
<g id="node13" class="node">
<title>47122</title>
<polygon fill="none" stroke="#00876c" points="1181.18,-822.63 1181.18,-837.54 1051.59,-848.09 868.33,-848.09 738.74,-837.54 738.74,-822.63 868.33,-812.09 1051.59,-812.09 1181.18,-822.63"/>
<polygon fill="none" stroke="#00876c" points="1185.18,-818.94 1185.18,-841.23 1051.75,-852.09 868.16,-852.09 734.74,-841.23 734.74,-818.94 868.16,-808.09 1051.75,-808.09 1185.18,-818.94"/>
<text text-anchor="middle" x="959.96" y="-825.04" font-family="Times,serif" font-size="14.00">metaeffekt:Polyform Noncommercial License 1.0.0</text>
</g>
<!-- 3665&#45;&gt;47122 -->
<g id="edge2" class="edge">
<title>3665&#45;&gt;47122</title>
<path fill="none" stroke="#00876c" stroke-width="2" d="M737.72,-1236.9C765.71,-1108 776.53,-1088.97 937.81,-861.34"/>
<polygon fill="#00876c" stroke="#00876c" stroke-width="2" points="942.69,-854.44 940.58,-865.2 941.62,-856.82 937.32,-862.89 936.91,-862.6 936.5,-862.31 940.8,-856.24 933.24,-860 942.69,-854.44"/>
</g>
<!-- 3666 -->
<g id="node3" class="node">
<title>3666</title>
<polygon fill="none" stroke="black" points="1054.8,-769.56 1054.8,-784.48 969.99,-795.02 850.06,-795.02 765.25,-784.48 765.25,-769.56 850.06,-759.02 969.99,-759.02 1054.8,-769.56"/>
<polygon fill="none" stroke="black" points="1058.8,-766.03 1058.8,-788.01 970.24,-799.02 849.81,-799.02 761.25,-788.01 761.25,-766.03 849.81,-755.02 970.24,-755.02 1058.8,-766.03"/>
<text text-anchor="middle" x="910.03" y="-771.97" font-family="Times,serif" font-size="14.00">PolyForm&#45;Noncommercial&#45;1.0.0</text>
</g>
<!-- 3666&#45;&gt;3665 -->
<g id="edge3" class="edge">
<title>3666&#45;&gt;3665</title>
<path fill="none" stroke="black" stroke-width="2" d="M896.13,-799.48C741.3,-1049.72 730.49,-1071.6 731.69,-1225.69"/>
<polygon fill="black" stroke="black" stroke-width="2" points="731.77,-1234.09 727.18,-1224.13 731.24,-1231.53 731.17,-1224.1 731.67,-1224.09 732.17,-1224.09 732.24,-1231.52 736.17,-1224.05 731.77,-1234.09"/>
</g>
<!-- 22364 -->
<g id="node6" class="node">
<title>22364</title>
<polygon fill="none" stroke="black" points="1645.39,-783.87 1645.39,-798.78 1540.47,-809.33 1392.08,-809.33 1287.15,-798.78 1287.15,-783.87 1392.08,-773.33 1540.47,-773.33 1645.39,-783.87"/>
<polygon fill="none" stroke="black" points="1649.39,-780.25 1649.39,-802.4 1540.67,-813.33 1391.88,-813.33 1283.15,-802.4 1283.15,-780.25 1391.88,-769.33 1540.67,-769.33 1649.39,-780.25"/>
<text text-anchor="middle" x="1466.27" y="-786.28" font-family="Times,serif" font-size="14.00">scancode:polyform&#45;noncommercial&#45;1.0.0</text>
</g>
<!-- 3666&#45;&gt;22364 -->
<g id="edge4" class="edge">
<title>3666&#45;&gt;22364</title>
<path fill="none" stroke="black" stroke-width="2" d="M1008.03,-759.35C1237.06,-718.66 1281.88,-718.31 1401.27,-764.94"/>
<polygon fill="black" stroke="black" stroke-width="2" points="1409.25,-768.09 1398.3,-768.6 1406.69,-767.61 1399.77,-764.88 1399.95,-764.42 1400.13,-763.95 1407.05,-766.68 1401.6,-760.23 1409.25,-768.09"/>
</g>
<!-- 28166 -->
<g id="node8" class="node">
<title>28166</title>
<polygon fill="none" stroke="#e18745" points="1322.15,-594.3 1322.15,-609.21 1213,-619.75 1058.65,-619.75 949.51,-609.21 949.51,-594.3 1058.65,-583.75 1213,-583.75 1322.15,-594.3"/>
<polygon fill="none" stroke="#e18745" points="1326.15,-590.67 1326.15,-612.84 1213.2,-623.75 1058.46,-623.75 945.51,-612.84 945.51,-590.67 1058.46,-579.75 1213.2,-579.75 1326.15,-590.67"/>
<text text-anchor="middle" x="1135.83" y="-596.7" font-family="Times,serif" font-size="14.00">fossology:PolyForm&#45;Noncommercial&#45;1.0.0</text>
</g>
<!-- 3666&#45;&gt;28166 -->
<g id="edge5" class="edge">
<title>3666&#45;&gt;28166</title>
<path fill="none" stroke="#e18745" stroke-width="2" d="M925.74,-754.73C982.43,-674.46 1004.45,-646.56 1046.98,-628.2"/>
<polygon fill="#e18745" stroke="#e18745" stroke-width="2" points="1055.05,-624.97 1047.44,-632.87 1052.86,-626.39 1045.95,-629.15 1045.77,-628.69 1045.58,-628.22 1052.48,-625.46 1044.09,-624.51 1055.05,-624.97"/>
</g>
<!-- 37407 -->
<g id="node11" class="node">
<title>37407</title>
<polygon fill="none" stroke="#379469" points="671.28,-378.77 671.28,-393.68 573.49,-404.22 435.2,-404.22 337.42,-393.68 337.42,-378.77 435.2,-368.22 573.49,-368.22 671.28,-378.77"/>
<polygon fill="none" stroke="#379469" points="675.28,-375.17 675.28,-397.27 573.71,-408.22 434.99,-408.22 333.42,-397.27 333.42,-375.17 434.99,-364.22 573.71,-364.22 675.28,-375.17"/>
<text text-anchor="middle" x="504.35" y="-381.17" font-family="Times,serif" font-size="14.00">cavil:PolyForm&#45;Noncommercial&#45;1.0.0</text>
</g>
<!-- 3666&#45;&gt;37407 -->
<g id="edge6" class="edge">
<title>3666&#45;&gt;37407</title>
<path fill="none" stroke="#379469" stroke-width="2" d="M886.23,-754.81C646.33,-530.89 621.38,-507.34 533.59,-416.52"/>
<polygon fill="#379469" stroke="#379469" stroke-width="2" points="527.73,-410.45 537.91,-414.52 529.87,-411.95 535.03,-417.29 534.67,-417.64 534.31,-417.99 529.15,-412.64 531.44,-420.77 527.73,-410.45"/>
</g>
<!-- 3666&#45;&gt;47122 -->
<g id="edge7" class="edge">
<title>3666&#45;&gt;47122</title>
<path fill="none" stroke="#00876c" stroke-dasharray="5,2" d="M927.74,-799.42C928.03,-799.72 928.33,-800.02 928.63,-800.33"/>
<polygon fill="#00876c" stroke="#00876c" points="935.36,-806.95 925.08,-803.15 932.67,-804.3 928.23,-799.94 928.23,-799.94 928.23,-799.94 932.67,-804.3 931.38,-796.73 935.36,-806.95"/>
</g>
<!-- 3667 -->
<g id="node4" class="node">
<title>3667</title>
<polygon fill="none" stroke="black" points="1379.78,-955.18 1379.78,-970.09 1275.83,-980.63 1128.82,-980.63 1024.87,-970.09 1024.87,-955.18 1128.82,-944.63 1275.83,-944.63 1379.78,-955.18"/>
<polygon fill="none" stroke="black" points="1383.78,-951.56 1383.78,-973.7 1276.03,-984.63 1128.62,-984.63 1020.87,-973.7 1020.87,-951.56 1128.62,-940.63 1276.03,-940.63 1383.78,-951.56"/>
<text text-anchor="middle" x="1202.33" y="-957.58" font-family="Times,serif" font-size="14.00">PolyForm Noncommercial License 1.0.0</text>
</g>
<!-- 3667&#45;&gt;3665 -->
<g id="edge8" class="edge">
<title>3667&#45;&gt;3665</title>
<path fill="none" stroke="#b8bf62" stroke-width="2" d="M1177.63,-984.86C978.66,-1163.88 931.13,-1204.46 833.04,-1235.64"/>
<polygon fill="#b8bf62" stroke="#b8bf62" stroke-width="2" points="824.76,-1238.2 832.98,-1230.94 827.06,-1236.96 834.16,-1234.77 834.31,-1235.24 834.46,-1235.72 827.35,-1237.92 835.64,-1239.54 824.76,-1238.2"/>
</g>
<!-- 3667&#45;&gt;22364 -->
<g id="edge9" class="edge">
<title>3667&#45;&gt;22364</title>
<path fill="none" stroke="#dac767" stroke-width="2" d="M1251.26,-940.29C1374.83,-883.62 1398.26,-869.87 1440.25,-821.97"/>
<polygon fill="#dac767" stroke="#dac767" stroke-width="2" points="1445.87,-815.48 1442.73,-825.99 1444.57,-817.74 1439.7,-823.37 1439.32,-823.04 1438.95,-822.71 1443.81,-817.09 1435.92,-820.1 1445.87,-815.48"/>
</g>
<!-- 3667&#45;&gt;28166 -->
<g id="edge10" class="edge">
<title>3667&#45;&gt;28166</title>
<path fill="none" stroke="#e18745" stroke-width="2" d="M1204.01,-940.13C1218.24,-748.79 1217.36,-727.51 1156.63,-633.51"/>
<polygon fill="#e18745" stroke="#e18745" stroke-width="2" points="1151.89,-626.22 1161.11,-632.15 1153.71,-628.09 1157.76,-634.33 1157.34,-634.6 1156.92,-634.87 1152.87,-628.64 1153.57,-637.05 1151.89,-626.22"/>
</g>
<!-- 3667&#45;&gt;47122 -->
<g id="edge11" class="edge">
<title>3667&#45;&gt;47122</title>
<path fill="none" stroke="#00876c" stroke-width="2" d="M1168.99,-940.33C1133.02,-916.8 1108.57,-903.84 1015.08,-857.41"/>
<polygon fill="#00876c" stroke="#00876c" stroke-width="2" points="1007.38,-853.59 1018.34,-854.01 1009.9,-854.28 1016.56,-857.59 1016.34,-858.04 1016.11,-858.48 1009.45,-855.18 1014.34,-862.07 1007.38,-853.59"/>
</g>
<!-- 22363 -->
<g id="node5" class="node">
<title>22363</title>
<ellipse fill="none" stroke="#dac767" cx="1976.32" cy="-740.47" rx="155.03" ry="28.99"/>
<text text-anchor="middle" x="1976.32" y="-743.67" font-family="Times,serif" font-size="14.00" fill="gray">ScancodeData</text>
<text text-anchor="middle" x="1976.32" y="-727.17" font-family="Times,serif" font-size="14.00" fill="gray">8cbae3744a15f3d68c90e6ff0b6ec162</text>
</g>
<!-- 22363&#45;&gt;22364 -->
<g id="edge12" class="edge">
<title>22363&#45;&gt;22364</title>
<path fill="none" stroke="#dac767" d="M1827.13,-748.72C1778.52,-752.92 1719.43,-759.81 1610.52,-773.31"/>
<polygon fill="#dac767" stroke="#dac767" points="1610.11,-769.83 1600.62,-774.54 1610.98,-776.78 1610.11,-769.83"/>
</g>
<!-- 22364&#45;&gt;47122 -->
<g id="edge13" class="edge">
<title>22364&#45;&gt;47122</title>
<path fill="none" stroke="#00876c" stroke-dasharray="5,2" d="M1343.29,-773.76C1282.33,-770.14 1222.16,-779 1078.53,-806.8"/>
<polygon fill="#00876c" stroke="#00876c" points="1068.78,-808.69 1077.74,-802.37 1072.49,-807.97 1078.6,-806.79 1078.6,-806.79 1078.6,-806.79 1072.49,-807.97 1079.45,-811.2 1068.78,-808.69"/>
</g>
<!-- 28165 -->
<g id="node7" class="node">
<title>28165</title>
<ellipse fill="none" stroke="#e18745" cx="1159.12" cy="-540.53" rx="161.93" ry="28.99"/>
<text text-anchor="middle" x="1159.12" y="-543.73" font-family="Times,serif" font-size="14.00" fill="gray">Fossology</text>
<text text-anchor="middle" x="1159.12" y="-527.23" font-family="Times,serif" font-size="14.00" fill="gray">f7174a69835580250161569803517b98</text>
</g>
<!-- 28165&#45;&gt;28166 -->
<g id="edge14" class="edge">
<title>28165&#45;&gt;28166</title>
<path fill="none" stroke="#e18745" d="M1147.03,-569.48C1147,-569.57 1146.97,-569.66 1146.94,-569.75"/>
<polygon fill="#e18745" stroke="#e18745" points="1144.1,-567.26 1144.09,-577.86 1150.71,-569.58 1144.1,-567.26"/>
</g>
<!-- 35172 -->
<g id="node9" class="node">
<title>35172</title>
<ellipse fill="none" stroke="#e06f45" cx="276.3" cy="-1479.31" rx="154.5" ry="28.99"/>
<text text-anchor="middle" x="276.3" y="-1482.51" font-family="Times,serif" font-size="14.00" fill="gray">OrtLicenseCategorization</text>
<text text-anchor="middle" x="276.3" y="-1466.01" font-family="Times,serif" font-size="14.00" fill="gray">b174f1d1de25143c0fe0cabbdaaf65ae</text>
</g>
<!-- 35172&#45;&gt;3665 -->
<g id="edge15" class="edge">
<title>35172&#45;&gt;3665</title>
<path fill="none" stroke="#e06f45" d="M360.5,-1454.64C435.94,-1430.28 486.76,-1402.86 675.88,-1295.08"/>
<polygon fill="#e06f45" stroke="#e06f45" points="677.6,-1298.13 684.56,-1290.14 674.14,-1292.05 677.6,-1298.13"/>
</g>
<!-- 37406 -->
<g id="node10" class="node">
<title>37406</title>
<ellipse fill="none" stroke="#379469" cx="153.72" cy="-29.06" rx="153.97" ry="28.99"/>
<text text-anchor="middle" x="153.72" y="-32.26" font-family="Times,serif" font-size="14.00" fill="gray">CavilLicenseChange</text>
<text text-anchor="middle" x="153.72" y="-15.76" font-family="Times,serif" font-size="14.00" fill="gray">0fbe8631f549fd5c564a6f2853787f2c</text>
</g>
<!-- 37406&#45;&gt;37407 -->
<g id="edge16" class="edge">
<title>37406&#45;&gt;37407</title>
<path fill="none" stroke="#379469" d="M180.49,-58.07C254.24,-137.87 277.27,-161.02 473.71,-355.84"/>
<polygon fill="#379469" stroke="#379469" points="471.04,-358.12 480.6,-362.68 475.97,-353.15 471.04,-358.12"/>
</g>
<!-- 47121 -->
<g id="node12" class="node">
<title>47121</title>
<ellipse fill="none" stroke="#00876c" cx="863.05" cy="-889.12" rx="162.99" ry="28.99"/>
<text text-anchor="middle" x="863.05" y="-892.32" font-family="Times,serif" font-size="14.00" fill="gray">MetaeffektLicense</text>
<text text-anchor="middle" x="863.05" y="-875.82" font-family="Times,serif" font-size="14.00" fill="gray">e7b332372a1d7d584594689063652b91</text>
</g>
<!-- 47121&#45;&gt;47122 -->
<g id="edge17" class="edge">
<title>47121&#45;&gt;47122</title>
<path fill="none" stroke="#00876c" d="M889,-860.2C889.92,-859.5 890.87,-858.83 891.84,-858.16"/>
<polygon fill="#00876c" stroke="#00876c" points="893.57,-861.21 900.49,-853.18 890.07,-855.14 893.57,-861.21"/>
</g>
<!-- 47123 -->
<g id="node14" class="node">
<title>47123</title>
<polygon fill="none" stroke="#00876c" points="1358.25,-1343.43 1358.25,-1358.34 1269.22,-1368.88 1143.32,-1368.88 1054.3,-1358.34 1054.3,-1343.43 1143.32,-1332.88 1269.22,-1332.88 1358.25,-1343.43"/>
<text text-anchor="middle" x="1206.27" y="-1345.83" font-family="Times,serif" font-size="14.00">Polyform Noncommercial License</text>
</g>
<!-- 47123&#45;&gt;47122 -->
<g id="edge18" class="edge">
<title>47123&#45;&gt;47122</title>
<path fill="none" stroke="#00876c" stroke-dasharray="5,2" d="M1192,-1332.49C1096.06,-1208.54 1087.81,-1189.87 971.56,-862.75"/>
<polygon fill="#00876c" stroke="#00876c" points="968.32,-853.63 975.91,-861.55 969.59,-857.2 971.67,-863.05 971.67,-863.05 971.67,-863.05 969.59,-857.2 967.43,-864.56 968.32,-853.63"/>
</g>
</g>
</svg>
