<?xml version="1.0" encoding="UTF-8" standalone="no"?>
<!DOCTYPE svg PUBLIC "-//W3C//DTD SVG 1.1//EN"
 "http://www.w3.org/Graphics/SVG/1.1/DTD/svg11.dtd">
<!-- Generated by graphviz version 10.0.1 (0)
 -->
<!-- Pages: 1 -->
<svg width="1301pt" height="1030pt"
 viewBox="0.00 0.00 1301.00 1030.00" xmlns="http://www.w3.org/2000/svg" xmlns:xlink="http://www.w3.org/1999/xlink">
<g id="graph0" class="graph" transform="scale(1 1) rotate(0) translate(4 1026)">
<polygon fill="white" stroke="none" points="-4,4 -4,-1026 1297,-1026 1297,4 -4,4"/>
<!-- 22465 -->
<g id="node1" class="node">
<title>22465</title>
<ellipse fill="none" stroke="#dac767" cx="581" cy="-993.18" rx="157.15" ry="28.99"/>
<text text-anchor="middle" x="581" y="-996.38" font-family="Times,serif" font-size="14.00" fill="gray">ScancodeData</text>
<text text-anchor="middle" x="581" y="-979.88" font-family="Times,serif" font-size="14.00" fill="gray">3abe6a86b5e921bdf814001a26af52da</text>
</g>
<!-- 22466 -->
<g id="node2" class="node">
<title>22466</title>
<polygon fill="none" stroke="black" points="822.07,-484.26 822.07,-499.18 709.03,-509.72 549.17,-509.72 436.13,-499.18 436.13,-484.26 549.17,-473.72 709.03,-473.72 822.07,-484.26"/>
<polygon fill="none" stroke="black" points="826.07,-480.62 826.07,-502.82 709.22,-513.72 548.98,-513.72 432.13,-502.82 432.13,-480.62 548.98,-469.72 709.22,-469.72 826.07,-480.62"/>
<text text-anchor="middle" x="629.1" y="-486.67" font-family="Times,serif" font-size="14.00">scancode:ps&#45;or&#45;pdf&#45;font&#45;exception&#45;20170817</text>
</g>
<!-- 22465&#45;&gt;22466 -->
<g id="edge1" class="edge">
<title>22465&#45;&gt;22466</title>
<path fill="none" stroke="#dac767" d="M582.22,-964.06C587.3,-844.37 589.96,-819.41 625.1,-525.18"/>
<polygon fill="#dac767" stroke="#dac767" points="628.53,-525.99 626.24,-515.65 621.58,-525.16 628.53,-525.99"/>
</g>
<!-- 42049 -->
<g id="node8" class="node">
<title>42049</title>
<polygon fill="none" stroke="#00876c" points="736.22,-394.43 736.22,-409.34 645.9,-419.88 518.16,-419.88 427.84,-409.34 427.84,-394.43 518.16,-383.88 645.9,-383.88 736.22,-394.43"/>
<polygon fill="none" stroke="#00876c" points="740.22,-390.87 740.22,-412.9 646.13,-423.88 517.93,-423.88 423.84,-412.9 423.84,-390.87 517.93,-379.88 646.13,-379.88 740.22,-390.87"/>
<text text-anchor="middle" x="582.03" y="-396.83" font-family="Times,serif" font-size="14.00">metaeffekt:Font&#45;Display&#45;Exception</text>
</g>
<!-- 22466&#45;&gt;42049 -->
<g id="edge2" class="edge">
<title>22466&#45;&gt;42049</title>
<path fill="none" stroke="#00876c" stroke-dasharray="5,2" d="M616.64,-469.26C607.34,-452.49 601.67,-442.15 597.43,-434.05"/>
<polygon fill="#00876c" stroke="#00876c" points="593.03,-425.41 601.58,-432.28 594.74,-428.78 597.57,-434.32 597.57,-434.32 597.57,-434.32 594.74,-428.78 593.56,-436.36 593.03,-425.41"/>
</g>
<!-- 22467 -->
<g id="node3" class="node">
<title>22467</title>
<polygon fill="none" stroke="black" points="810.67,-536.44 810.67,-551.35 720.67,-561.9 593.39,-561.9 503.4,-551.35 503.4,-536.44 593.39,-525.9 720.67,-525.9 810.67,-536.44"/>
<polygon fill="none" stroke="black" points="814.67,-532.88 814.67,-554.91 720.9,-565.9 593.16,-565.9 499.4,-554.91 499.4,-532.88 593.16,-521.9 720.9,-521.9 814.67,-532.88"/>
<text text-anchor="middle" x="657.03" y="-538.85" font-family="Times,serif" font-size="14.00">ps&#45;or&#45;pdf&#45;font&#45;exception&#45;20170817</text>
</g>
<!-- 22467&#45;&gt;22466 -->
<g id="edge3" class="edge">
<title>22467&#45;&gt;22466</title>
<path fill="none" stroke="black" stroke-width="2" d="M637.22,-521.75C637.17,-521.61 637.12,-521.47 637.06,-521.34"/>
<polygon fill="black" stroke="black" stroke-width="2" points="635.46,-516.52 642.88,-524.6 636.75,-518.8 639.09,-525.86 638.61,-526.02 638.14,-526.17 635.8,-519.11 634.34,-527.43 635.46,-516.52"/>
</g>
<!-- 27597 -->
<g id="node6" class="node">
<title>27597</title>
<polygon fill="none" stroke="#e18745" points="906.96,-588.47 906.96,-603.38 788.41,-613.93 620.74,-613.93 502.19,-603.38 502.19,-588.47 620.74,-577.93 788.41,-577.93 906.96,-588.47"/>
<polygon fill="none" stroke="#e18745" points="910.96,-584.81 910.96,-607.04 788.58,-617.93 620.57,-617.93 498.19,-607.04 498.19,-584.81 620.57,-573.93 788.58,-573.93 910.96,-584.81"/>
<text text-anchor="middle" x="704.57" y="-590.88" font-family="Times,serif" font-size="14.00">fossology:PS&#45;or&#45;PDF&#45;font&#45;exception&#45;20170817</text>
</g>
<!-- 22467&#45;&gt;27597 -->
<g id="edge4" class="edge">
<title>22467&#45;&gt;27597</title>
<path fill="none" stroke="#e18745" stroke-width="2" d="M675.14,-566.2C675.21,-566.29 675.28,-566.38 675.36,-566.47"/>
<polygon fill="#e18745" stroke="#e18745" stroke-width="2" points="679.84,-571.83 669.98,-567.05 677.82,-570.18 673.04,-564.48 673.43,-564.16 673.81,-563.84 678.58,-569.54 676.88,-561.27 679.84,-571.83"/>
</g>
<!-- 42053 -->
<g id="node12" class="node">
<title>42053</title>
<polygon fill="none" stroke="#00876c" points="406.39,-677.48 406.39,-692.39 299.52,-702.94 148.38,-702.94 41.51,-692.39 41.51,-677.48 148.38,-666.94 299.52,-666.94 406.39,-677.48"/>
<polygon fill="none" stroke="#00876c" points="410.39,-673.86 410.39,-696.02 299.72,-706.94 148.18,-706.94 37.51,-696.02 37.51,-673.86 148.18,-662.94 299.72,-662.94 410.39,-673.86"/>
<polygon fill="none" stroke="#00876c" points="414.39,-670.23 414.39,-699.64 299.91,-710.94 147.99,-710.94 33.51,-699.64 33.51,-670.23 147.99,-658.94 299.91,-658.94 414.39,-670.23"/>
<text text-anchor="middle" x="223.95" y="-679.89" font-family="Times,serif" font-size="14.00">spdx:PS&#45;or&#45;PDF&#45;font&#45;exception&#45;20170817</text>
</g>
<!-- 22467&#45;&gt;42053 -->
<g id="edge5" class="edge">
<title>22467&#45;&gt;42053</title>
<path fill="none" stroke="#00876c" stroke-width="2" d="M596.94,-566.36C450.17,-621.16 390.26,-643.01 336.7,-658.1"/>
<polygon fill="#00876c" stroke="#00876c" stroke-width="2" points="328.4,-660.39 336.84,-653.4 330.74,-659.23 337.91,-657.25 338.04,-657.74 338.17,-658.22 331,-660.19 339.24,-662.07 328.4,-660.39"/>
</g>
<!-- 22468 -->
<g id="node4" class="node">
<title>22468</title>
<polygon fill="none" stroke="black" points="1288.98,-545.62 1288.98,-560.53 1195.09,-571.08 1062.3,-571.08 968.41,-560.53 968.41,-545.62 1062.3,-535.08 1195.09,-535.08 1288.98,-545.62"/>
<polygon fill="none" stroke="black" points="1292.98,-542.04 1292.98,-564.11 1195.31,-575.08 1062.08,-575.08 964.41,-564.11 964.41,-542.04 1062.08,-531.08 1195.31,-531.08 1292.98,-542.04"/>
<text text-anchor="middle" x="1128.69" y="-548.03" font-family="Times,serif" font-size="14.00">PS/PDF font exception (2017&#45;08&#45;17)</text>
</g>
<!-- 22468&#45;&gt;22466 -->
<g id="edge6" class="edge">
<title>22468&#45;&gt;22466</title>
<path fill="none" stroke="#dac767" stroke-width="2" d="M1021.24,-535.21C967.75,-527.12 914.12,-520.95 793.65,-508.52"/>
<polygon fill="#dac767" stroke="#dac767" stroke-width="2" points="784.98,-507.62 795.39,-504.17 787.58,-507.39 794.98,-508.15 794.93,-508.65 794.88,-509.15 787.48,-508.38 794.47,-513.12 784.98,-507.62"/>
</g>
<!-- 22468&#45;&gt;27597 -->
<g id="edge7" class="edge">
<title>22468&#45;&gt;27597</title>
<path fill="none" stroke="#e18745" stroke-width="2" d="M1056.72,-574.88C1016.86,-585.55 983.34,-590.4 922.28,-592.86"/>
<polygon fill="#e18745" stroke="#e18745" stroke-width="2" points="913.83,-593.17 923.66,-588.3 916.38,-592.58 923.81,-592.3 923.83,-592.8 923.85,-593.3 916.41,-593.58 923.99,-597.3 913.83,-593.17"/>
</g>
<!-- 27596 -->
<g id="node5" class="node">
<title>27596</title>
<ellipse fill="none" stroke="#e18745" cx="763.79" cy="-654.93" rx="158.22" ry="28.99"/>
<text text-anchor="middle" x="763.79" y="-658.13" font-family="Times,serif" font-size="14.00" fill="gray">Fossology</text>
<text text-anchor="middle" x="763.79" y="-641.63" font-family="Times,serif" font-size="14.00" fill="gray">d73fd9e23795b58bb30c02ebe2c9ddfd</text>
</g>
<!-- 27596&#45;&gt;27597 -->
<g id="edge8" class="edge">
<title>27596&#45;&gt;27597</title>
<path fill="none" stroke="#e18745" d="M732.97,-626.3C732.83,-626.15 732.69,-626 732.55,-625.85"/>
<polygon fill="#e18745" stroke="#e18745" points="735.77,-624.17 726.37,-619.3 730.68,-628.97 735.77,-624.17"/>
</g>
<!-- 42048 -->
<g id="node7" class="node">
<title>42048</title>
<ellipse fill="none" stroke="#00876c" cx="159.02" cy="-225.76" rx="159.28" ry="28.99"/>
<text text-anchor="middle" x="159.02" y="-228.96" font-family="Times,serif" font-size="14.00" fill="gray">MetaeffektLicense</text>
<text text-anchor="middle" x="159.02" y="-212.46" font-family="Times,serif" font-size="14.00" fill="gray">886d1834cc2cc104e041ac5b94c749c2</text>
</g>
<!-- 42048&#45;&gt;42049 -->
<g id="edge9" class="edge">
<title>42048&#45;&gt;42049</title>
<path fill="none" stroke="#00876c" d="M249.01,-250.01C310.71,-269.03 363.01,-293.78 526.58,-374.5"/>
<polygon fill="#00876c" stroke="#00876c" points="524.62,-377.43 535.13,-378.72 527.72,-371.15 524.62,-377.43"/>
</g>
<!-- 42050 -->
<g id="node9" class="node">
<title>42050</title>
<polygon fill="none" stroke="#00876c" points="548.81,-14.58 548.81,-29.49 485.43,-40.04 395.78,-40.04 332.39,-29.49 332.39,-14.58 395.78,-4.04 485.43,-4.04 548.81,-14.58"/>
<polygon fill="none" stroke="#00876c" points="552.81,-11.19 552.81,-32.88 485.76,-44.04 395.45,-44.04 328.39,-32.88 328.39,-11.19 395.45,-0.04 485.76,-0.04 552.81,-11.19"/>
<text text-anchor="middle" x="440.6" y="-16.99" font-family="Times,serif" font-size="14.00">Font&#45;Display&#45;Exception</text>
</g>
<!-- 42050&#45;&gt;42049 -->
<g id="edge10" class="edge">
<title>42050&#45;&gt;42049</title>
<path fill="none" stroke="#00876c" stroke-width="2" d="M447.78,-44.33C476.99,-134.92 484.38,-154.4 569.11,-369.13"/>
<polygon fill="#00876c" stroke="#00876c" stroke-width="2" points="572.31,-377.24 564.45,-369.59 570.9,-375.04 568.17,-368.12 568.64,-367.94 569.1,-367.75 571.83,-374.67 572.82,-366.28 572.31,-377.24"/>
</g>
<!-- 42051 -->
<g id="node10" class="node">
<title>42051</title>
<polygon fill="none" stroke="#00876c" points="925.13,-22.55 925.13,-37.46 835.46,-48.01 708.64,-48.01 618.97,-37.46 618.97,-22.55 708.64,-12.01 835.46,-12.01 925.13,-22.55"/>
<polygon fill="none" stroke="#00876c" points="929.13,-18.99 929.13,-41.02 835.69,-52.01 708.41,-52.01 614.97,-41.02 614.97,-18.99 708.41,-8.01 835.69,-8.01 929.13,-18.99"/>
<text text-anchor="middle" x="772.05" y="-24.96" font-family="Times,serif" font-size="14.00">metaeffekt:Font Display Exception</text>
</g>
<!-- 42051&#45;&gt;42049 -->
<g id="edge11" class="edge">
<title>42051&#45;&gt;42049</title>
<path fill="none" stroke="#00876c" stroke-width="2" d="M753.29,-52.41C688.11,-130.78 678.35,-151.99 594.52,-369.47"/>
<polygon fill="#00876c" stroke="#00876c" stroke-width="2" points="591.48,-377.36 590.87,-366.41 591.93,-374.79 594.61,-367.85 595.07,-368.03 595.54,-368.21 592.87,-375.15 599.27,-369.65 591.48,-377.36"/>
</g>
<!-- 42052 -->
<g id="node11" class="node">
<title>42052</title>
<polygon fill="none" stroke="#00876c" points="692.79,-342.38 692.79,-357.3 630.05,-367.84 541.33,-367.84 478.59,-357.3 478.59,-342.38 541.33,-331.84 630.05,-331.84 692.79,-342.38"/>
<polygon fill="none" stroke="#00876c" points="696.79,-339 696.79,-360.68 630.39,-371.84 540.99,-371.84 474.59,-360.68 474.59,-339 540.99,-327.84 630.39,-327.84 696.79,-339"/>
<text text-anchor="middle" x="585.69" y="-344.79" font-family="Times,serif" font-size="14.00">Font Display Exception</text>
</g>
<!-- 42052&#45;&gt;42049 -->
<g id="edge12" class="edge">
<title>42052&#45;&gt;42049</title>
<path fill="none" stroke="#00876c" stroke-dasharray="5,2" d="M580.43,-372.01C580.43,-372.14 580.43,-372.28 580.43,-372.41"/>
<polygon fill="#00876c" stroke="#00876c" points="580.55,-378.25 575.84,-368.34 580.47,-374.46 580.34,-368.25 580.34,-368.25 580.34,-368.25 580.47,-374.46 584.84,-368.16 580.55,-378.25"/>
</g>
<!-- 42052&#45;&gt;42051 -->
<g id="edge13" class="edge">
<title>42052&#45;&gt;42051</title>
<path fill="none" stroke="#00876c" stroke-width="2" d="M595.25,-327.65C673.95,-145.02 686.71,-118.07 742.15,-60.38"/>
<polygon fill="#00876c" stroke="#00876c" stroke-width="2" points="748.19,-54.16 744.46,-64.47 746.76,-56.35 741.59,-61.69 741.23,-61.34 740.87,-60.99 746.05,-55.65 738,-58.2 748.19,-54.16"/>
</g>
<!-- 42053&#45;&gt;42049 -->
<g id="edge14" class="edge">
<title>42053&#45;&gt;42049</title>
<path fill="none" stroke="#00876c" stroke-width="2" d="M242.12,-658.46C308.96,-561.84 329.44,-546.11 533.22,-429.71"/>
<polygon fill="#00876c" stroke="#00876c" stroke-width="2" points="540.64,-425.48 534.18,-434.35 538.66,-427.19 532.2,-430.88 531.95,-430.44 531.7,-430.01 538.16,-426.32 529.72,-426.53 540.64,-425.48"/>
</g>
</g>
</svg>
