<?xml version="1.0" encoding="UTF-8" standalone="no"?>
<!DOCTYPE svg PUBLIC "-//W3C//DTD SVG 1.1//EN"
 "http://www.w3.org/Graphics/SVG/1.1/DTD/svg11.dtd">
<!-- Generated by graphviz version 10.0.1 (0)
 -->
<!-- Pages: 1 -->
<svg width="3362pt" height="3328pt"
 viewBox="0.00 0.00 3362.00 3328.00" xmlns="http://www.w3.org/2000/svg" xmlns:xlink="http://www.w3.org/1999/xlink">
<g id="graph0" class="graph" transform="scale(1 1) rotate(0) translate(4 3324)">
<polygon fill="white" stroke="none" points="-4,4 -4,-3324 3358,-3324 3358,4 -4,4"/>
<!-- 19 -->
<g id="node1" class="node">
<title>19</title>
<text text-anchor="start" x="2514.99" y="-2374.5" font-family="Times,serif" font-size="14.00">OSI: </text>
<text text-anchor="start" x="2544.24" y="-2374.5" font-family="Times,serif" font-weight="bold" font-size="14.00" fill="#228b22">Approved</text>
</g>
<!-- 4130 -->
<g id="node3" class="node">
<title>4130</title>
<ellipse fill="none" stroke="#dac767" cx="2298.34" cy="-2068.91" rx="155.03" ry="28.99"/>
<text text-anchor="middle" x="2298.34" y="-2072.11" font-family="Times,serif" font-size="14.00" fill="gray">SPDXLicense</text>
<text text-anchor="middle" x="2298.34" y="-2055.61" font-family="Times,serif" font-size="14.00" fill="gray">ec885d765f8f94f26a2ea0d6932aec6d</text>
</g>
<!-- 19&#45;&gt;4130 -->
<g id="edge1" class="edge">
<title>19&#45;&gt;4130</title>
<path fill="none" stroke="#dac767" d="M2547.45,-2360.63C2496.19,-2277.65 2483.21,-2262.08 2333.61,-2105.74"/>
<polygon fill="#dac767" stroke="#dac767" points="2336.4,-2103.6 2326.96,-2098.79 2331.34,-2108.44 2336.4,-2103.6"/>
</g>
<!-- 6049 -->
<g id="node13" class="node">
<title>6049</title>
<ellipse fill="none" stroke="#b8bf62" cx="2365.72" cy="-2662.42" rx="157.68" ry="28.99"/>
<text text-anchor="middle" x="2365.72" y="-2665.62" font-family="Times,serif" font-size="14.00" fill="gray">OpenSourceOrgLicense</text>
<text text-anchor="middle" x="2365.72" y="-2649.12" font-family="Times,serif" font-size="14.00" fill="gray">8acf6bd2cc7d58ad25ec869eb9bb464e</text>
</g>
<!-- 19&#45;&gt;6049 -->
<g id="edge2" class="edge">
<title>19&#45;&gt;6049</title>
<path fill="none" stroke="#b8bf62" d="M2553.86,-2396.32C2514.99,-2545.33 2506.04,-2569.46 2418.92,-2627.92"/>
<polygon fill="#b8bf62" stroke="#b8bf62" points="2417.02,-2624.97 2410.63,-2633.42 2420.9,-2630.8 2417.02,-2624.97"/>
</g>
<!-- 35355 -->
<g id="node56" class="node">
<title>35355</title>
<ellipse fill="none" stroke="#58a066" cx="2378.78" cy="-2135.27" rx="160.34" ry="28.99"/>
<text text-anchor="middle" x="2378.78" y="-2138.47" font-family="Times,serif" font-size="14.00" fill="gray">OKFN</text>
<text text-anchor="middle" x="2378.78" y="-2121.97" font-family="Times,serif" font-size="14.00" fill="gray">81a6b15ed64929add198b00285d06a1f</text>
</g>
<!-- 19&#45;&gt;35355 -->
<g id="edge3" class="edge">
<title>19&#45;&gt;35355</title>
<path fill="none" stroke="#58a066" d="M2549.85,-2360.89C2519.31,-2298.82 2508.66,-2284.12 2411.51,-2172.74"/>
<polygon fill="#58a066" stroke="#58a066" points="2414.26,-2170.57 2405.05,-2165.33 2408.99,-2175.17 2414.26,-2170.57"/>
</g>
<!-- 57 -->
<g id="node2" class="node">
<title>57</title>
<text text-anchor="start" x="2578.77" y="-2328.05" font-family="Times,serif" font-size="14.00">FSF: </text>
<text text-anchor="start" x="2608.77" y="-2328.05" font-family="Times,serif" font-weight="bold" font-size="14.00" fill="#228b22">Libre</text>
</g>
<!-- 57&#45;&gt;4130 -->
<g id="edge4" class="edge">
<title>57&#45;&gt;4130</title>
<path fill="none" stroke="#dac767" d="M2591.46,-2314.46C2525.41,-2251.4 2507.26,-2236.09 2342.98,-2104.62"/>
<polygon fill="#dac767" stroke="#dac767" points="2345.2,-2101.91 2335.2,-2098.4 2340.82,-2107.38 2345.2,-2101.91"/>
</g>
<!-- 11874 -->
<g id="node36" class="node">
<title>11874</title>
<ellipse fill="none" stroke="#deb256" cx="2548.26" cy="-2596.24" rx="159.81" ry="28.99"/>
<text text-anchor="middle" x="2548.26" y="-2599.44" font-family="Times,serif" font-size="14.00" fill="gray">FSF</text>
<text text-anchor="middle" x="2548.26" y="-2582.94" font-family="Times,serif" font-size="14.00" fill="gray">3738609f907441a3b317c9c8a52914e8</text>
</g>
<!-- 57&#45;&gt;11874 -->
<g id="edge5" class="edge">
<title>57&#45;&gt;11874</title>
<path fill="none" stroke="#deb256" d="M2610.9,-2349.68C2618.13,-2476.77 2617.5,-2499.07 2575.91,-2558.41"/>
<polygon fill="#deb256" stroke="#deb256" points="2573.3,-2556.04 2570.35,-2566.21 2579,-2560.1 2573.3,-2556.04"/>
</g>
<!-- 4131 -->
<g id="node4" class="node">
<title>4131</title>
<polygon fill="none" stroke="black" points="1813.11,-2178.49 1813.11,-2193.4 1773.09,-2203.94 1716.49,-2203.94 1676.47,-2193.4 1676.47,-2178.49 1716.49,-2167.94 1773.09,-2167.94 1813.11,-2178.49"/>
<polygon fill="none" stroke="black" points="1817.11,-2175.4 1817.11,-2196.48 1773.61,-2207.94 1715.97,-2207.94 1672.47,-2196.48 1672.47,-2175.4 1715.97,-2163.94 1773.61,-2163.94 1817.11,-2175.4"/>
<polygon fill="none" stroke="black" points="1821.11,-2172.32 1821.11,-2199.56 1774.13,-2211.94 1715.45,-2211.94 1668.47,-2199.56 1668.47,-2172.32 1715.45,-2159.94 1774.13,-2159.94 1821.11,-2172.32"/>
<text text-anchor="middle" x="1744.79" y="-2180.89" font-family="Times,serif" font-size="14.00">spdx:QPL&#45;1.0</text>
</g>
<!-- 4130&#45;&gt;4131 -->
<g id="edge6" class="edge">
<title>4130&#45;&gt;4131</title>
<path fill="none" stroke="#dac767" d="M2258.38,-2097.34C2104.29,-2206.23 2071.23,-2215.47 1832.65,-2194.12"/>
<polygon fill="#dac767" stroke="#dac767" points="1833.28,-2190.67 1823.01,-2193.25 1832.65,-2197.64 1833.28,-2190.67"/>
</g>
<!-- 6050 -->
<g id="node14" class="node">
<title>6050</title>
<polygon fill="none" stroke="black" points="2040.37,-2279.51 2040.37,-2294.42 2004.57,-2304.97 1953.93,-2304.97 1918.13,-2294.42 1918.13,-2279.51 1953.93,-2268.97 2004.57,-2268.97 2040.37,-2279.51"/>
<polygon fill="none" stroke="black" points="2044.37,-2276.52 2044.37,-2297.41 2005.15,-2308.97 1953.36,-2308.97 1914.13,-2297.41 1914.13,-2276.52 1953.36,-2264.97 2005.15,-2264.97 2044.37,-2276.52"/>
<text text-anchor="middle" x="1979.25" y="-2281.92" font-family="Times,serif" font-size="14.00">osi:QPL&#45;1.0</text>
</g>
<!-- 4131&#45;&gt;6050 -->
<g id="edge7" class="edge">
<title>4131&#45;&gt;6050</title>
<path fill="none" stroke="#b8bf62" stroke-width="2" d="M1778.52,-2211.05C1841.7,-2257.83 1868.37,-2275.12 1902.7,-2281.94"/>
<polygon fill="#b8bf62" stroke="#b8bf62" stroke-width="2" points="1911.25,-2283.34 1900.65,-2286.16 1908.64,-2283.42 1901.3,-2282.21 1901.38,-2281.72 1901.47,-2281.23 1908.8,-2282.43 1902.11,-2277.28 1911.25,-2283.34"/>
</g>
<!-- 6577 -->
<g id="node23" class="node">
<title>6577</title>
<polygon fill="none" stroke="#e06f45" points="1495.21,-2537.48 1495.21,-2552.39 1453.89,-2562.93 1395.46,-2562.93 1354.13,-2552.39 1354.13,-2537.48 1395.46,-2526.93 1453.89,-2526.93 1495.21,-2537.48"/>
<polygon fill="none" stroke="#e06f45" points="1499.21,-2534.37 1499.21,-2555.5 1454.4,-2566.93 1394.95,-2566.93 1350.13,-2555.5 1350.13,-2534.37 1394.95,-2522.93 1454.4,-2522.93 1499.21,-2534.37"/>
<text text-anchor="middle" x="1424.67" y="-2539.88" font-family="Times,serif" font-size="14.00">google:QPL10</text>
</g>
<!-- 4131&#45;&gt;6577 -->
<g id="edge8" class="edge">
<title>4131&#45;&gt;6577</title>
<path fill="none" stroke="#e06f45" stroke-width="2" d="M1728.16,-2212.43C1590.71,-2431.27 1570.64,-2459.47 1470.34,-2518.64"/>
<polygon fill="#e06f45" stroke="#e06f45" stroke-width="2" points="1462.81,-2523.04 1469.16,-2514.11 1464.77,-2521.32 1471.19,-2517.56 1471.44,-2517.99 1471.69,-2518.43 1465.27,-2522.18 1473.71,-2521.88 1462.81,-2523.04"/>
</g>
<!-- 9172 -->
<g id="node28" class="node">
<title>9172</title>
<polygon fill="none" stroke="#e09d4b" points="1660.09,-1922.53 1660.09,-1937.44 1614.87,-1947.98 1550.93,-1947.98 1505.71,-1937.44 1505.71,-1922.53 1550.93,-1911.98 1614.87,-1911.98 1660.09,-1922.53"/>
<polygon fill="none" stroke="#e09d4b" points="1664.09,-1919.35 1664.09,-1940.61 1615.33,-1951.98 1550.47,-1951.98 1501.71,-1940.61 1501.71,-1919.35 1550.47,-1907.98 1615.33,-1907.98 1664.09,-1919.35"/>
<text text-anchor="middle" x="1582.9" y="-1924.93" font-family="Times,serif" font-size="14.00">Fedora:QPL&#45;1.0</text>
</g>
<!-- 4131&#45;&gt;9172 -->
<g id="edge9" class="edge">
<title>4131&#45;&gt;9172</title>
<path fill="none" stroke="#e09d4b" stroke-width="2" d="M1713.53,-2160.15C1663.99,-2117.8 1652.04,-2094.68 1596.47,-1962.35"/>
<polygon fill="#e09d4b" stroke="#e09d4b" stroke-width="2" points="1593.15,-1954.45 1601.17,-1961.93 1594.61,-1956.62 1597.48,-1963.48 1597.02,-1963.67 1596.56,-1963.86 1593.68,-1957.01 1592.87,-1965.41 1593.15,-1954.45"/>
</g>
<!-- 11875 -->
<g id="node37" class="node">
<title>11875</title>
<polygon fill="none" stroke="#deb256" points="2044.61,-2390.53 2044.61,-2405.44 2018.87,-2415.99 1982.46,-2415.99 1956.71,-2405.44 1956.71,-2390.53 1982.46,-2379.99 2018.87,-2379.99 2044.61,-2390.53"/>
<polygon fill="none" stroke="#deb256" points="2048.61,-2387.85 2048.61,-2408.13 2019.65,-2419.99 1981.67,-2419.99 1952.71,-2408.13 1952.71,-2387.85 1981.67,-2375.99 2019.65,-2375.99 2048.61,-2387.85"/>
<text text-anchor="middle" x="2000.66" y="-2392.94" font-family="Times,serif" font-size="14.00">fsf:QPL</text>
</g>
<!-- 4131&#45;&gt;11875 -->
<g id="edge10" class="edge">
<title>4131&#45;&gt;11875</title>
<path fill="none" stroke="#deb256" stroke-dasharray="5,2" d="M1767.72,-2212.27C1870.14,-2329.7 1892.4,-2352.38 1953.41,-2378.87"/>
<polygon fill="#deb256" stroke="#deb256" points="1962.43,-2382.69 1951.47,-2382.93 1958.95,-2381.22 1953.23,-2378.79 1953.23,-2378.79 1953.23,-2378.79 1958.95,-2381.22 1954.98,-2374.65 1962.43,-2382.69"/>
</g>
<!-- 24875 -->
<g id="node45" class="node">
<title>24875</title>
<polygon fill="none" stroke="black" points="2099.81,-1804.61 2099.81,-1819.52 2052.98,-1830.07 1986.74,-1830.07 1939.9,-1819.52 1939.9,-1804.61 1986.74,-1794.07 2052.98,-1794.07 2099.81,-1804.61"/>
<polygon fill="none" stroke="black" points="2103.81,-1801.41 2103.81,-1822.72 2053.42,-1834.07 1986.29,-1834.07 1935.9,-1822.72 1935.9,-1801.41 1986.29,-1790.07 2053.42,-1790.07 2103.81,-1801.41"/>
<text text-anchor="middle" x="2019.86" y="-1807.02" font-family="Times,serif" font-size="14.00">scancode:qpl&#45;1.0</text>
</g>
<!-- 4131&#45;&gt;24875 -->
<g id="edge11" class="edge">
<title>4131&#45;&gt;24875</title>
<path fill="none" stroke="#deb256" stroke-width="2" d="M1768.98,-2159.48C1823.31,-2092.25 1953.44,-1915.38 2001.64,-1843.28"/>
<polygon fill="#deb256" stroke="#deb256" stroke-width="2" points="2006.28,-1836.26 2004.52,-1847.08 2005.28,-1838.67 2001.18,-1844.88 2000.76,-1844.6 2000.35,-1844.32 2004.45,-1838.12 1997.01,-1842.12 2006.28,-1836.26"/>
</g>
<!-- 55968 -->
<g id="node66" class="node">
<title>55968</title>
<polygon fill="none" stroke="#379469" points="2217.31,-1926.46 2217.31,-1941.37 2133.81,-1951.92 2015.71,-1951.92 1932.2,-1941.37 1932.2,-1926.46 2015.71,-1915.92 2133.81,-1915.92 2217.31,-1926.46"/>
<polygon fill="none" stroke="#379469" points="2221.31,-1922.94 2221.31,-1944.9 2134.06,-1955.92 2015.46,-1955.92 1928.2,-1944.9 1928.2,-1922.94 2015.46,-1911.92 2134.06,-1911.92 2221.31,-1922.94"/>
<text text-anchor="middle" x="2074.76" y="-1928.87" font-family="Times,serif" font-size="14.00">metaeffekt:Q Public License 1.0</text>
</g>
<!-- 4131&#45;&gt;55968 -->
<g id="edge12" class="edge">
<title>4131&#45;&gt;55968</title>
<path fill="none" stroke="#379469" stroke-width="2" d="M1809.01,-2168.83C1944.05,-2131.56 1963.72,-2111.38 2055.1,-1965.42"/>
<polygon fill="#379469" stroke="#379469" stroke-width="2" points="2059.65,-1958.15 2058.16,-1969.01 2058.71,-1960.59 2054.77,-1966.89 2054.35,-1966.63 2053.92,-1966.36 2057.87,-1960.06 2050.53,-1964.24 2059.65,-1958.15"/>
</g>
<!-- 4132 -->
<g id="node5" class="node">
<title>4132</title>
<polygon fill="none" stroke="black" points="1890.42,-2011.53 1890.42,-2026.44 1863.05,-2036.99 1824.35,-2036.99 1796.98,-2026.44 1796.98,-2011.53 1824.35,-2000.99 1863.05,-2000.99 1890.42,-2011.53"/>
<polygon fill="none" stroke="black" points="1894.42,-2008.79 1894.42,-2029.19 1863.8,-2040.99 1823.61,-2040.99 1792.98,-2029.19 1792.98,-2008.79 1823.61,-1996.99 1863.8,-1996.99 1894.42,-2008.79"/>
<text text-anchor="middle" x="1843.7" y="-2013.94" font-family="Times,serif" font-size="14.00">QPL&#45;1.0</text>
</g>
<!-- 4132&#45;&gt;4131 -->
<g id="edge13" class="edge">
<title>4132&#45;&gt;4131</title>
<path fill="none" stroke="black" stroke-width="2" d="M1836.43,-2041.23C1814.29,-2108.65 1805.55,-2131.44 1784.66,-2152.7"/>
<polygon fill="black" stroke="black" stroke-width="2" points="1778.49,-2158.55 1782.65,-2148.41 1780.01,-2156.43 1785.4,-2151.31 1785.75,-2151.67 1786.09,-2152.03 1780.7,-2157.15 1788.85,-2154.93 1778.49,-2158.55"/>
</g>
<!-- 4132&#45;&gt;6050 -->
<g id="edge14" class="edge">
<title>4132&#45;&gt;6050</title>
<path fill="none" stroke="black" stroke-width="2" d="M1854.88,-2041.47C1924.03,-2180.57 1936.37,-2205.26 1962.28,-2254.68"/>
<polygon fill="black" stroke="black" stroke-width="2" points="1966.34,-2262.42 1957.71,-2255.65 1964.71,-2260.38 1961.25,-2253.8 1961.69,-2253.56 1962.13,-2253.33 1965.59,-2259.92 1965.68,-2251.47 1966.34,-2262.42"/>
</g>
<!-- 6052 -->
<g id="node16" class="node">
<title>6052</title>
<polygon fill="none" stroke="#b8bf62" points="2148.59,-2120.45 2148.59,-2135.37 2105.64,-2145.91 2044.91,-2145.91 2001.97,-2135.37 2001.97,-2120.45 2044.91,-2109.91 2105.64,-2109.91 2148.59,-2120.45"/>
<polygon fill="none" stroke="#b8bf62" points="2152.59,-2117.32 2152.59,-2138.5 2106.13,-2149.91 2044.43,-2149.91 1997.97,-2138.5 1997.97,-2117.32 2044.43,-2105.91 2106.13,-2105.91 2152.59,-2117.32"/>
<text text-anchor="middle" x="2075.28" y="-2122.86" font-family="Times,serif" font-size="14.00">DEP5:QPL&#45;1.0</text>
</g>
<!-- 4132&#45;&gt;6052 -->
<g id="edge15" class="edge">
<title>4132&#45;&gt;6052</title>
<path fill="none" stroke="#b8bf62" stroke-width="2" d="M1872.15,-2037.99C1936.88,-2081.15 1967.44,-2100.61 1995.62,-2111.31"/>
<polygon fill="#b8bf62" stroke="#b8bf62" stroke-width="2" points="2003.65,-2114.09 1992.73,-2115.08 2001.07,-2113.73 1994.04,-2111.3 1994.2,-2110.82 1994.37,-2110.35 2001.4,-2112.78 1995.68,-2106.57 2003.65,-2114.09"/>
</g>
<!-- 4132&#45;&gt;9172 -->
<g id="edge16" class="edge">
<title>4132&#45;&gt;9172</title>
<path fill="none" stroke="#e09d4b" stroke-width="2" d="M1792.56,-2022.76C1726.01,-2026.18 1703.46,-2016.51 1622.96,-1958.94"/>
<polygon fill="#e09d4b" stroke="#e09d4b" stroke-width="2" points="1615.91,-1953.87 1626.65,-1956.05 1618.28,-1954.96 1624.32,-1959.3 1624.03,-1959.7 1623.74,-1960.11 1617.7,-1955.77 1621.4,-1963.36 1615.91,-1953.87"/>
</g>
<!-- 10702 -->
<g id="node34" class="node">
<title>10702</title>
<polygon fill="none" stroke="#00876c" points="1680.99,-1709.12 1680.99,-1724.03 1631.23,-1734.57 1560.86,-1734.57 1511.1,-1724.03 1511.1,-1709.12 1560.86,-1698.57 1631.23,-1698.57 1680.99,-1709.12"/>
<polygon fill="none" stroke="#00876c" points="1684.99,-1705.87 1684.99,-1727.27 1631.65,-1738.57 1560.44,-1738.57 1507.1,-1727.27 1507.1,-1705.87 1560.44,-1694.57 1631.65,-1694.57 1684.99,-1705.87"/>
<text text-anchor="middle" x="1596.04" y="-1711.52" font-family="Times,serif" font-size="14.00">BlueOak:QPL&#45;1.0</text>
</g>
<!-- 4132&#45;&gt;10702 -->
<g id="edge17" class="edge">
<title>4132&#45;&gt;10702</title>
<path fill="none" stroke="#00876c" stroke-width="2" d="M1815.7,-1999.53C1738.81,-1945.39 1723.94,-1924.99 1615.56,-1748.4"/>
<polygon fill="#00876c" stroke="#00876c" stroke-width="2" points="1611.1,-1741.13 1620.16,-1747.3 1612.87,-1743.05 1616.75,-1749.39 1616.33,-1749.65 1615.9,-1749.91 1612.01,-1743.57 1612.49,-1752 1611.1,-1741.13"/>
</g>
<!-- 4132&#45;&gt;24875 -->
<g id="edge18" class="edge">
<title>4132&#45;&gt;24875</title>
<path fill="none" stroke="black" stroke-width="2" d="M1876.99,-2001.78C1961.94,-1957.24 1973.39,-1942.9 2008.31,-1844.86"/>
<polygon fill="black" stroke="black" stroke-width="2" points="2011.19,-1836.75 2012.09,-1847.68 2010.8,-1839.33 2008.32,-1846.34 2007.85,-1846.18 2007.38,-1846.01 2009.86,-1839 2003.61,-1844.67 2011.19,-1836.75"/>
</g>
<!-- 33615 -->
<g id="node52" class="node">
<title>33615</title>
<polygon fill="none" stroke="#e18745" points="2103.67,-1713.84 2103.67,-1728.75 2051.96,-1739.3 1978.84,-1739.3 1927.13,-1728.75 1927.13,-1713.84 1978.84,-1703.3 2051.96,-1703.3 2103.67,-1713.84"/>
<polygon fill="none" stroke="#e18745" points="2107.67,-1710.57 2107.67,-1732.02 2052.37,-1743.3 1978.44,-1743.3 1923.13,-1732.02 1923.13,-1710.57 1978.44,-1699.3 2052.37,-1699.3 2107.67,-1710.57"/>
<text text-anchor="middle" x="2015.4" y="-1716.25" font-family="Times,serif" font-size="14.00">fossology:QPL&#45;1.0</text>
</g>
<!-- 4132&#45;&gt;33615 -->
<g id="edge19" class="edge">
<title>4132&#45;&gt;33615</title>
<path fill="none" stroke="#e18745" stroke-width="2" d="M1869.9,-1999.12C1975.17,-1918.85 1983.87,-1903.01 2009.69,-1754.49"/>
<polygon fill="#e18745" stroke="#e18745" stroke-width="2" points="2011.16,-1745.97 2013.89,-1756.59 2011.22,-1748.58 2009.95,-1755.91 2009.46,-1755.82 2008.97,-1755.74 2010.23,-1748.41 2005.03,-1755.05 2011.16,-1745.97"/>
</g>
<!-- 42212 -->
<g id="node62" class="node">
<title>42212</title>
<polygon fill="none" stroke="#379469" points="1756.78,-2323.02 1756.78,-2337.93 1716.44,-2348.47 1659.38,-2348.47 1619.03,-2337.93 1619.03,-2323.02 1659.38,-2312.47 1716.44,-2312.47 1756.78,-2323.02"/>
<polygon fill="none" stroke="#379469" points="1760.78,-2319.93 1760.78,-2341.02 1716.95,-2352.47 1658.86,-2352.47 1615.03,-2341.02 1615.03,-2319.93 1658.86,-2308.47 1716.95,-2308.47 1760.78,-2319.93"/>
<text text-anchor="middle" x="1687.91" y="-2325.42" font-family="Times,serif" font-size="14.00">cavil:QPL&#45;1.0</text>
</g>
<!-- 4132&#45;&gt;42212 -->
<g id="edge20" class="edge">
<title>4132&#45;&gt;42212</title>
<path fill="none" stroke="#379469" stroke-width="2" d="M1837.16,-2041.22C1785.46,-2216.62 1776.37,-2242.07 1718.34,-2300.6"/>
<polygon fill="#379469" stroke="#379469" stroke-width="2" points="1712.34,-2306.58 1716.24,-2296.34 1713.8,-2304.42 1719.06,-2299.17 1719.42,-2299.52 1719.77,-2299.87 1714.51,-2305.13 1722.6,-2302.71 1712.34,-2306.58"/>
</g>
<!-- 4133 -->
<g id="node6" class="node">
<title>4133</title>
<polygon fill="none" stroke="black" points="1931.34,-1874.23 1931.34,-1889.14 1874.77,-1899.69 1794.76,-1899.69 1738.19,-1889.14 1738.19,-1874.23 1794.76,-1863.69 1874.77,-1863.69 1931.34,-1874.23"/>
<polygon fill="none" stroke="black" points="1935.34,-1870.91 1935.34,-1892.47 1875.14,-1903.69 1794.39,-1903.69 1734.19,-1892.47 1734.19,-1870.91 1794.39,-1859.69 1875.14,-1859.69 1935.34,-1870.91"/>
<text text-anchor="middle" x="1834.76" y="-1876.64" font-family="Times,serif" font-size="14.00">Q Public License 1.0</text>
</g>
<!-- 4133&#45;&gt;4131 -->
<g id="edge21" class="edge">
<title>4133&#45;&gt;4131</title>
<path fill="none" stroke="#dac767" stroke-width="2" d="M1831.97,-1903.95C1811.68,-2065.53 1807,-2092.51 1768.94,-2150.53"/>
<polygon fill="#dac767" stroke="#dac767" stroke-width="2" points="1764.16,-2157.7 1765.96,-2146.89 1765.16,-2155.29 1769.29,-2149.11 1769.7,-2149.38 1770.12,-2149.66 1766,-2155.85 1773.45,-2151.88 1764.16,-2157.7"/>
</g>
<!-- 4133&#45;&gt;4132 -->
<g id="edge22" class="edge">
<title>4133&#45;&gt;4132</title>
<path fill="none" stroke="#58a066" stroke-width="2" d="M1839.07,-1904.07C1847.86,-1949.98 1850.63,-1967.57 1849.25,-1985.43"/>
<polygon fill="#58a066" stroke="#58a066" stroke-width="2" points="1848.21,-1994.1 1844.93,-1983.63 1848.02,-1991.49 1848.9,-1984.11 1849.4,-1984.17 1849.9,-1984.23 1849.01,-1991.61 1853.87,-1984.7 1848.21,-1994.1"/>
</g>
<!-- 4133&#45;&gt;10702 -->
<g id="edge23" class="edge">
<title>4133&#45;&gt;10702</title>
<path fill="none" stroke="#00876c" stroke-width="2" d="M1771.02,-1863.59C1727.1,-1847.76 1701.82,-1824.9 1625.47,-1746.77"/>
<polygon fill="#00876c" stroke="#00876c" stroke-width="2" points="1619.62,-1740.78 1629.83,-1744.79 1621.77,-1742.26 1626.96,-1747.58 1626.61,-1747.93 1626.25,-1748.28 1621.05,-1742.96 1623.39,-1751.08 1619.62,-1740.78"/>
</g>
<!-- 4133&#45;&gt;33615 -->
<g id="edge24" class="edge">
<title>4133&#45;&gt;33615</title>
<path fill="none" stroke="#e18745" stroke-width="2" d="M1883.23,-1860.85C1956.62,-1828.4 1970.86,-1814.61 2000.32,-1753.43"/>
<polygon fill="#e18745" stroke="#e18745" stroke-width="2" points="2003.94,-1745.83 2003.7,-1756.79 2003.29,-1748.36 2000.09,-1755.07 1999.64,-1754.86 1999.19,-1754.64 2002.38,-1747.93 1995.57,-1752.92 2003.94,-1745.83"/>
</g>
<!-- 4133&#45;&gt;55968 -->
<g id="edge25" class="edge">
<title>4133&#45;&gt;55968</title>
<path fill="none" stroke="#379469" stroke-width="2" d="M1888.05,-1901.61C1904.66,-1907.77 1918.88,-1912.92 1931.33,-1917.22"/>
<polygon fill="#379469" stroke="#379469" stroke-width="2" points="1939.52,-1920 1928.61,-1921.05 1936.93,-1919.65 1929.89,-1917.26 1930.05,-1916.79 1930.21,-1916.32 1937.25,-1918.71 1931.5,-1912.53 1939.52,-1920"/>
</g>
<!-- 68344 -->
<g id="node99" class="node">
<title>68344</title>
<polygon fill="none" stroke="#00876c" points="1912.52,-1926.28 1912.52,-1941.19 1843.29,-1951.73 1745.39,-1951.73 1676.16,-1941.19 1676.16,-1926.28 1745.39,-1915.73 1843.29,-1915.73 1912.52,-1926.28"/>
<polygon fill="none" stroke="#00876c" points="1916.52,-1922.84 1916.52,-1944.63 1843.6,-1955.73 1745.09,-1955.73 1672.16,-1944.63 1672.16,-1922.84 1745.09,-1911.73 1843.6,-1911.73 1916.52,-1922.84"/>
<text text-anchor="middle" x="1794.34" y="-1928.68" font-family="Times,serif" font-size="14.00">spdx:Q Public License 1.0</text>
</g>
<!-- 4133&#45;&gt;68344 -->
<g id="edge26" class="edge">
<title>4133&#45;&gt;68344</title>
<path fill="none" stroke="#00876c" stroke-width="2" d="M1826.14,-1904.13C1826.11,-1904.22 1826.07,-1904.31 1826.03,-1904.39"/>
<polygon fill="#00876c" stroke="#00876c" stroke-width="2" points="1823.7,-1909.16 1824.05,-1898.2 1824.38,-1906.63 1827.64,-1899.95 1828.09,-1900.17 1828.54,-1900.39 1825.28,-1907.07 1832.13,-1902.14 1823.7,-1909.16"/>
</g>
<!-- 4134 -->
<g id="node7" class="node">
<title>4134</title>
<text text-anchor="middle" x="2725.48" y="-2085.7" font-family="Times,serif" font-size="14.00">$TEXT</text>
</g>
<!-- 4134&#45;&gt;4130 -->
<g id="edge27" class="edge">
<title>4134&#45;&gt;4130</title>
<path fill="none" stroke="#dac767" d="M2697.03,-2096.41C2607.46,-2113.93 2577.49,-2114.99 2425.62,-2090.3"/>
<polygon fill="#dac767" stroke="#dac767" points="2426.4,-2086.88 2415.97,-2088.72 2425.27,-2093.79 2426.4,-2086.88"/>
</g>
<!-- 4135 -->
<g id="node8" class="node">
<title>4135</title>
<text text-anchor="middle" x="2926.01" y="-2099.37" font-family="Times,serif" font-size="14.00">$TEXT</text>
</g>
<!-- 4135&#45;&gt;4134 -->
<g id="edge28" class="edge">
<title>4135&#45;&gt;4134</title>
<path fill="none" stroke="#dac767" d="M2897.4,-2107.62C2863.91,-2110.76 2844.31,-2108.82 2764.91,-2096.78"/>
<polygon fill="#dac767" stroke="#dac767" points="2765.76,-2093.36 2755.35,-2095.32 2764.71,-2100.28 2765.76,-2093.36"/>
</g>
<!-- 4136 -->
<g id="node9" class="node">
<title>4136</title>
<text text-anchor="middle" x="2428.87" y="-1789.96" font-family="Times,serif" font-size="14.00">https://opensource.org/licenses/QPL&#45;1.0</text>
</g>
<!-- 4136&#45;&gt;4130 -->
<g id="edge29" class="edge">
<title>4136&#45;&gt;4130</title>
<path fill="none" stroke="#dac767" d="M2427.87,-1812.96C2420.83,-1937.07 2416.45,-1955.65 2336.61,-2032.62"/>
<polygon fill="#dac767" stroke="#dac767" points="2334.53,-2029.76 2329.73,-2039.21 2339.37,-2034.81 2334.53,-2029.76"/>
</g>
<!-- 24874 -->
<g id="node44" class="node">
<title>24874</title>
<ellipse fill="none" stroke="#deb256" cx="2428.32" cy="-1451.3" rx="157.15" ry="28.99"/>
<text text-anchor="middle" x="2428.32" y="-1454.5" font-family="Times,serif" font-size="14.00" fill="gray">ScancodeData</text>
<text text-anchor="middle" x="2428.32" y="-1438" font-family="Times,serif" font-size="14.00" fill="gray">b164b0f7f92d352a0ebad7139d4ab0f1</text>
</g>
<!-- 4136&#45;&gt;24874 -->
<g id="edge30" class="edge">
<title>4136&#45;&gt;24874</title>
<path fill="none" stroke="#deb256" d="M2435.83,-1777.16C2491.76,-1633.47 2494.75,-1616.05 2444.42,-1490.86"/>
<polygon fill="#deb256" stroke="#deb256" points="2447.77,-1489.81 2440.78,-1481.85 2441.28,-1492.43 2447.77,-1489.81"/>
</g>
<!-- 4136&#45;&gt;35355 -->
<g id="edge31" class="edge">
<title>4136&#45;&gt;35355</title>
<path fill="none" stroke="#58a066" d="M2432.35,-1812.89C2463.6,-1973.59 2464.64,-1993.53 2402.52,-2096.5"/>
<polygon fill="#58a066" stroke="#58a066" points="2399.71,-2094.4 2397.51,-2104.77 2405.69,-2098.03 2399.71,-2094.4"/>
</g>
<!-- 4137 -->
<g id="node10" class="node">
<title>4137</title>
<text text-anchor="middle" x="2386.83" y="-1689.61" font-family="Times,serif" font-size="14.00">http://doc.qt.nokia.com/3.3/license.html</text>
</g>
<!-- 4137&#45;&gt;4130 -->
<g id="edge32" class="edge">
<title>4137&#45;&gt;4130</title>
<path fill="none" stroke="#dac767" d="M2389.23,-1712.42C2413.14,-1889.13 2412.52,-1908.51 2325.95,-2030.4"/>
<polygon fill="#dac767" stroke="#dac767" points="2323.12,-2028.34 2320.16,-2038.51 2328.82,-2032.4 2323.12,-2028.34"/>
</g>
<!-- 4137&#45;&gt;24874 -->
<g id="edge33" class="edge">
<title>4137&#45;&gt;24874</title>
<path fill="none" stroke="#deb256" d="M2396.55,-1676.87C2448.3,-1581.97 2454.43,-1564.94 2437.86,-1491.29"/>
<polygon fill="#deb256" stroke="#deb256" points="2441.37,-1490.94 2435.71,-1481.99 2434.55,-1492.52 2441.37,-1490.94"/>
</g>
<!-- 33614 -->
<g id="node51" class="node">
<title>33614</title>
<ellipse fill="none" stroke="#e18745" cx="2212.85" cy="-1385.21" rx="158.75" ry="28.99"/>
<text text-anchor="middle" x="2212.85" y="-1388.41" font-family="Times,serif" font-size="14.00" fill="gray">Fossology</text>
<text text-anchor="middle" x="2212.85" y="-1371.91" font-family="Times,serif" font-size="14.00" fill="gray">f15908483dae0b9b16f3d1866ae8bd51</text>
</g>
<!-- 4137&#45;&gt;33614 -->
<g id="edge34" class="edge">
<title>4137&#45;&gt;33614</title>
<path fill="none" stroke="#e18745" d="M2385.01,-1677.08C2370.87,-1540.91 2365.04,-1523.71 2252.78,-1421.34"/>
<polygon fill="#e18745" stroke="#e18745" points="2255.39,-1418.98 2245.64,-1414.84 2250.68,-1424.15 2255.39,-1418.98"/>
</g>
<!-- 4138 -->
<g id="node11" class="node">
<title>4138</title>
<text text-anchor="middle" x="2675.77" y="-1784.43" font-family="Times,serif" font-size="14.00">https://doc.qt.io/archives/3.3/license.html</text>
</g>
<!-- 4138&#45;&gt;4130 -->
<g id="edge35" class="edge">
<title>4138&#45;&gt;4130</title>
<path fill="none" stroke="#dac767" d="M2665.35,-1807.18C2585.38,-1942.75 2569.12,-1960.28 2375.72,-2038.1"/>
<polygon fill="#dac767" stroke="#dac767" points="2374.55,-2034.8 2366.58,-2041.77 2377.16,-2041.3 2374.55,-2034.8"/>
</g>
<!-- 4138&#45;&gt;24874 -->
<g id="edge36" class="edge">
<title>4138&#45;&gt;24874</title>
<path fill="none" stroke="#deb256" d="M2671.69,-1771.87C2638.4,-1628.82 2629.78,-1612.64 2472.73,-1486.76"/>
<polygon fill="#deb256" stroke="#deb256" points="2475.33,-1484.36 2465.34,-1480.84 2470.96,-1489.82 2475.33,-1484.36"/>
</g>
<!-- 5758 -->
<g id="node12" class="node">
<title>5758</title>
<text text-anchor="middle" x="729.53" y="-905.3" font-family="Times,serif" font-size="14.00">LicenseType Copyleft</text>
</g>
<!-- 10673 -->
<g id="node32" class="node">
<title>10673</title>
<text text-anchor="middle" x="921.04" y="-1095.35" font-family="Times,serif" font-size="14.00">LicenseType Strongly Protective</text>
</g>
<!-- 5758&#45;&gt;10673 -->
<g id="edge37" class="edge">
<title>5758&#45;&gt;10673</title>
<path fill="none" stroke="#00876c" d="M744.75,-928.16C780.91,-970.27 794.86,-983.85 893.48,-1074.95"/>
<polygon fill="#00876c" stroke="#00876c" points="890.85,-1077.29 900.57,-1081.5 895.6,-1072.14 890.85,-1077.29"/>
</g>
<!-- 6049&#45;&gt;6050 -->
<g id="edge38" class="edge">
<title>6049&#45;&gt;6050</title>
<path fill="none" stroke="#b8bf62" d="M2325.11,-2633.97C2229.75,-2566.42 2203.43,-2538.56 2006.56,-2317.62"/>
<polygon fill="#b8bf62" stroke="#b8bf62" points="2009.45,-2315.61 2000.19,-2310.47 2004.23,-2320.26 2009.45,-2315.61"/>
</g>
<!-- 6050&#45;&gt;55968 -->
<g id="edge39" class="edge">
<title>6050&#45;&gt;55968</title>
<path fill="none" stroke="#379469" stroke-dasharray="5,2" d="M1996.74,-2264.47C2067.88,-2172.35 2071.84,-2154.23 2074.34,-1967.3"/>
<polygon fill="#379469" stroke="#379469" points="2074.47,-1957.44 2078.83,-1967.5 2074.42,-1961.22 2074.34,-1967.44 2074.34,-1967.44 2074.34,-1967.44 2074.42,-1961.22 2069.84,-1967.38 2074.47,-1957.44"/>
</g>
<!-- 6051 -->
<g id="node15" class="node">
<title>6051</title>
<polygon fill="none" stroke="black" points="1932.25,-2638.42 1932.25,-2653.33 1828.95,-2663.87 1682.85,-2663.87 1579.55,-2653.33 1579.55,-2638.42 1682.85,-2627.87 1828.95,-2627.87 1932.25,-2638.42"/>
<polygon fill="none" stroke="black" points="1936.25,-2634.81 1936.25,-2656.94 1829.15,-2667.87 1682.65,-2667.87 1575.55,-2656.94 1575.55,-2634.81 1682.65,-2623.87 1829.15,-2623.87 1936.25,-2634.81"/>
<text text-anchor="middle" x="1755.9" y="-2640.82" font-family="Times,serif" font-size="14.00">The Q Public License Version (QPL&#45;1.0)</text>
</g>
<!-- 6051&#45;&gt;6050 -->
<g id="edge40" class="edge">
<title>6051&#45;&gt;6050</title>
<path fill="none" stroke="#b8bf62" stroke-width="2" d="M1785.97,-2623.48C1882.84,-2550.52 1893.8,-2528.99 1967.74,-2319.6"/>
<polygon fill="#b8bf62" stroke="#b8bf62" stroke-width="2" points="1970.62,-2311.46 1971.53,-2322.39 1970.23,-2314.04 1967.76,-2321.06 1967.29,-2320.89 1966.82,-2320.72 1969.29,-2313.71 1963.04,-2319.39 1970.62,-2311.46"/>
</g>
<!-- 68319 -->
<g id="node74" class="node">
<title>68319</title>
<polygon fill="none" stroke="#00876c" points="1528.15,-2429.14 1528.15,-2444.05 1416.41,-2454.59 1258.39,-2454.59 1146.65,-2444.05 1146.65,-2429.14 1258.39,-2418.59 1416.41,-2418.59 1528.15,-2429.14"/>
<polygon fill="none" stroke="#00876c" points="1532.15,-2425.5 1532.15,-2447.69 1416.6,-2458.59 1258.2,-2458.59 1142.65,-2447.69 1142.65,-2425.5 1258.2,-2414.59 1416.6,-2414.59 1532.15,-2425.5"/>
<text text-anchor="middle" x="1337.4" y="-2431.54" font-family="Times,serif" font-size="14.00">osi:The Q Public License Version (QPL&#45;1.0)</text>
</g>
<!-- 6051&#45;&gt;68319 -->
<g id="edge41" class="edge">
<title>6051&#45;&gt;68319</title>
<path fill="none" stroke="#00876c" stroke-width="2" d="M1600.16,-2631.86C1520.8,-2616.12 1479.01,-2578.98 1367.26,-2466.67"/>
<polygon fill="#00876c" stroke="#00876c" stroke-width="2" points="1361.16,-2460.53 1371.4,-2464.45 1363.32,-2462 1368.56,-2467.27 1368.21,-2467.63 1367.85,-2467.98 1362.61,-2462.71 1365.02,-2470.8 1361.16,-2460.53"/>
</g>
<!-- 6052&#45;&gt;6050 -->
<g id="edge42" class="edge">
<title>6052&#45;&gt;6050</title>
<path fill="none" stroke="#b8bf62" stroke-width="2" d="M2069.61,-2150.26C2052.73,-2216.32 2045.89,-2234.99 2017.45,-2258.68"/>
<polygon fill="#b8bf62" stroke="#b8bf62" stroke-width="2" points="2010.74,-2264.02 2015.76,-2254.27 2012.43,-2262.03 2018.25,-2257.4 2018.56,-2257.79 2018.87,-2258.18 2013.05,-2262.81 2021.36,-2261.31 2010.74,-2264.02"/>
</g>
<!-- 6053 -->
<g id="node17" class="node">
<title>6053</title>
<polygon fill="none" stroke="#b8bf62" points="2135.97,-2586.33 2135.97,-2601.24 1989.5,-2611.79 1782.37,-2611.79 1635.91,-2601.24 1635.91,-2586.33 1782.37,-2575.79 1989.5,-2575.79 2135.97,-2586.33"/>
<polygon fill="none" stroke="#b8bf62" points="2139.97,-2582.61 2139.97,-2604.97 1989.65,-2615.79 1782.23,-2615.79 1631.91,-2604.97 1631.91,-2582.61 1782.23,-2571.79 1989.65,-2571.79 2139.97,-2582.61"/>
<text text-anchor="middle" x="1885.94" y="-2588.74" font-family="Times,serif" font-size="14.00">Trove:License :: OSI Approved :: Qt Public License (QPL)</text>
</g>
<!-- 6053&#45;&gt;6050 -->
<g id="edge43" class="edge">
<title>6053&#45;&gt;6050</title>
<path fill="none" stroke="#b8bf62" stroke-width="2" d="M1902.02,-2571.34C1949.71,-2503.99 1954.47,-2484.76 1975.08,-2320.38"/>
<polygon fill="#b8bf62" stroke="#b8bf62" stroke-width="2" points="1976.16,-2311.76 1979.38,-2322.24 1976.34,-2314.37 1975.41,-2321.74 1974.92,-2321.68 1974.42,-2321.62 1975.35,-2314.24 1970.45,-2321.12 1976.16,-2311.76"/>
</g>
<!-- 6054 -->
<g id="node18" class="node">
<title>6054</title>
<polygon fill="none" stroke="black" points="1493.47,-2672.69 1493.47,-2687.6 1362.58,-2698.14 1177.48,-2698.14 1046.59,-2687.6 1046.59,-2672.69 1177.48,-2662.14 1362.58,-2662.14 1493.47,-2672.69"/>
<polygon fill="none" stroke="black" points="1497.47,-2669 1497.47,-2691.29 1362.74,-2702.14 1177.32,-2702.14 1042.59,-2691.29 1042.59,-2669 1177.32,-2658.14 1362.74,-2658.14 1497.47,-2669"/>
<text text-anchor="middle" x="1270.03" y="-2675.09" font-family="Times,serif" font-size="14.00">License :: OSI Approved :: Qt Public License (QPL)</text>
</g>
<!-- 6054&#45;&gt;6053 -->
<g id="edge44" class="edge">
<title>6054&#45;&gt;6053</title>
<path fill="none" stroke="#b8bf62" stroke-width="2" d="M1353.31,-2702.57C1554.95,-2755.27 1594.13,-2745.07 1833.28,-2621.17"/>
<polygon fill="#b8bf62" stroke="#b8bf62" stroke-width="2" points="1840.81,-2617.27 1834,-2625.86 1838.76,-2618.89 1832.16,-2622.31 1831.93,-2621.87 1831.7,-2621.43 1838.3,-2618 1829.86,-2617.87 1840.81,-2617.27"/>
</g>
<!-- 68324 -->
<g id="node79" class="node">
<title>68324</title>
<polygon fill="none" stroke="#00876c" points="1598.24,-2377.12 1598.24,-2392.03 1455.35,-2402.58 1253.27,-2402.58 1110.38,-2392.03 1110.38,-2377.12 1253.27,-2366.58 1455.35,-2366.58 1598.24,-2377.12"/>
<polygon fill="none" stroke="#00876c" points="1602.24,-2373.4 1602.24,-2395.75 1455.5,-2406.58 1253.12,-2406.58 1106.38,-2395.75 1106.38,-2373.4 1253.12,-2362.58 1455.5,-2362.58 1602.24,-2373.4"/>
<text text-anchor="middle" x="1354.31" y="-2379.53" font-family="Times,serif" font-size="14.00">pypi:License :: OSI Approved :: Qt Public License (QPL)</text>
</g>
<!-- 6054&#45;&gt;68324 -->
<g id="edge45" class="edge">
<title>6054&#45;&gt;68324</title>
<path fill="none" stroke="#00876c" stroke-width="2" d="M1274.52,-2658.04C1288.06,-2591.87 1293.55,-2573.34 1343.74,-2417.41"/>
<polygon fill="#00876c" stroke="#00876c" stroke-width="2" points="1346.36,-2409.26 1347.58,-2420.15 1346.05,-2411.85 1343.77,-2418.93 1343.3,-2418.77 1342.82,-2418.62 1345.1,-2411.54 1339.01,-2417.4 1346.36,-2409.26"/>
</g>
<!-- 6055 -->
<g id="node19" class="node">
<title>6055</title>
<text text-anchor="middle" x="2500.03" y="-3050.34" font-family="Times,serif" font-size="14.00">OSI Page: https://opensource.org/licenses/QPL&#45;1.0</text>
</g>
<!-- 6055&#45;&gt;6049 -->
<g id="edge46" class="edge">
<title>6055&#45;&gt;6049</title>
<path fill="none" stroke="#b8bf62" d="M2496.77,-3037.42C2477.99,-2934.49 2472.25,-2917.56 2382.31,-2702.14"/>
<polygon fill="#b8bf62" stroke="#b8bf62" points="2385.63,-2701 2378.55,-2693.12 2379.17,-2703.7 2385.63,-2701"/>
</g>
<!-- 6056 -->
<g id="node20" class="node">
<title>6056</title>
<text text-anchor="middle" x="2607.87" y="-2990.13" font-family="Times,serif" font-size="14.00">HTML: https://opensource.org/licenses/QPL&#45;1.0</text>
</g>
<!-- 6056&#45;&gt;6049 -->
<g id="edge47" class="edge">
<title>6056&#45;&gt;6049</title>
<path fill="none" stroke="#b8bf62" d="M2594.39,-2977.23C2536.77,-2900.53 2524.29,-2883.37 2393.2,-2700.7"/>
<polygon fill="#b8bf62" stroke="#b8bf62" points="2396.22,-2698.91 2387.54,-2692.82 2390.53,-2702.99 2396.22,-2698.91"/>
</g>
<!-- 6485 -->
<g id="node21" class="node">
<title>6485</title>
<text text-anchor="start" x="743.17" y="-3303.83" font-family="Times,serif" font-size="14.00">Google Policy Classification: </text>
<text text-anchor="start" x="906.67" y="-3303.83" font-family="Times,serif" font-weight="bold" font-size="14.00" fill="#8b0000">restricted</text>
<text text-anchor="start" x="643.42" y="-3289.83" font-family="Times,serif" font-size="14.00">restricted &#45; Licenses in this category require mandatory source distribution if</text>
<text text-anchor="start" x="642.67" y="-3275.83" font-family="Times,serif" font-size="14.00">we ships a product that includes third&#45;party code protected by such a license.</text>
</g>
<!-- 6576 -->
<g id="node22" class="node">
<title>6576</title>
<ellipse fill="none" stroke="#e06f45" cx="1136.61" cy="-2895.16" rx="159.28" ry="28.99"/>
<text text-anchor="middle" x="1136.61" y="-2898.36" font-family="Times,serif" font-size="14.00" fill="gray">GoogleLicense</text>
<text text-anchor="middle" x="1136.61" y="-2881.86" font-family="Times,serif" font-size="14.00" fill="gray">44ec52cc41564330399731d81f7b7ecd</text>
</g>
<!-- 6485&#45;&gt;6576 -->
<g id="edge48" class="edge">
<title>6485&#45;&gt;6576</title>
<path fill="none" stroke="#e06f45" d="M874.88,-3270.31C949.65,-3186.42 965.69,-3162.99 1111.77,-2934.08"/>
<polygon fill="#e06f45" stroke="#e06f45" points="1114.68,-2936.03 1117.11,-2925.72 1108.78,-2932.27 1114.68,-2936.03"/>
</g>
<!-- 6576&#45;&gt;6577 -->
<g id="edge49" class="edge">
<title>6576&#45;&gt;6577</title>
<path fill="none" stroke="#e06f45" d="M1171.92,-2866.61C1247.49,-2804.54 1267.6,-2777.18 1403.32,-2576.52"/>
<polygon fill="#e06f45" stroke="#e06f45" points="1406.11,-2578.64 1408.81,-2568.39 1400.31,-2574.72 1406.11,-2578.64"/>
</g>
<!-- 6578 -->
<g id="node24" class="node">
<title>6578</title>
<polygon fill="none" stroke="#e06f45" points="1300.12,-2764.23 1300.12,-2779.14 1276.32,-2789.68 1242.67,-2789.68 1218.87,-2779.14 1218.87,-2764.23 1242.67,-2753.68 1276.32,-2753.68 1300.12,-2764.23"/>
<polygon fill="none" stroke="#e06f45" points="1304.12,-2761.62 1304.12,-2781.74 1277.17,-2793.68 1241.82,-2793.68 1214.87,-2781.74 1214.87,-2761.62 1241.82,-2749.68 1277.17,-2749.68 1304.12,-2761.62"/>
<text text-anchor="middle" x="1259.5" y="-2766.63" font-family="Times,serif" font-size="14.00">QPL10</text>
</g>
<!-- 6578&#45;&gt;6577 -->
<g id="edge50" class="edge">
<title>6578&#45;&gt;6577</title>
<path fill="none" stroke="#e06f45" stroke-width="2" d="M1281.36,-2751.21C1322.4,-2712.11 1335.06,-2693.37 1405.56,-2576.62"/>
<polygon fill="#e06f45" stroke="#e06f45" stroke-width="2" points="1409.93,-2569.38 1408.62,-2580.26 1409.04,-2571.83 1405.19,-2578.2 1404.76,-2577.94 1404.34,-2577.68 1408.18,-2571.31 1400.91,-2575.61 1409.93,-2569.38"/>
</g>
<!-- 6592 -->
<g id="node25" class="node">
<title>6592</title>
<text text-anchor="middle" x="1542.61" y="-1114.91" font-family="Times,serif" font-size="14.00">[&quot;allowed&quot;]</text>
</g>
<!-- 9171 -->
<g id="node27" class="node">
<title>9171</title>
<ellipse fill="none" stroke="#e09d4b" cx="1666.26" cy="-1458.32" rx="153.97" ry="28.99"/>
<text text-anchor="middle" x="1666.26" y="-1461.52" font-family="Times,serif" font-size="14.00" fill="gray">FedoraEntry</text>
<text text-anchor="middle" x="1666.26" y="-1445.02" font-family="Times,serif" font-size="14.00" fill="gray">9ffaac5b36fe882c794e472200f045c1</text>
</g>
<!-- 6592&#45;&gt;9171 -->
<g id="edge51" class="edge">
<title>6592&#45;&gt;9171</title>
<path fill="none" stroke="#e09d4b" d="M1551.33,-1137.87C1588.42,-1214.28 1594.76,-1231.8 1653.63,-1418.26"/>
<polygon fill="#e09d4b" stroke="#e09d4b" points="1650.22,-1419.09 1656.57,-1427.57 1656.89,-1416.98 1650.22,-1419.09"/>
</g>
<!-- 6593 -->
<g id="node26" class="node">
<title>6593</title>
<text text-anchor="start" x="1369.52" y="-812.28" font-family="Times,serif" font-size="14.00">Fedora: </text>
<text text-anchor="start" x="1414.52" y="-812.28" font-family="Times,serif" font-weight="bold" font-size="14.00" fill="#228b22">allowed</text>
<text text-anchor="start" x="1205.65" y="-798.28" font-family="Times,serif" font-size="14.00">A license is allowed if Fedora determines that the license is a free software /</text>
<text text-anchor="start" x="1200.4" y="-784.28" font-family="Times,serif" font-size="14.00">open source license. At a high level, the inquiry involves determining whether</text>
<text text-anchor="start" x="1199.27" y="-770.28" font-family="Times,serif" font-size="14.00">the license provides software freedom, and (equivalently) making sure that the</text>
<text text-anchor="start" x="1209.4" y="-756.28" font-family="Times,serif" font-size="14.00">license does not place burdens on users&#39; exercise of its permissions that are</text>
<text text-anchor="start" x="1209.02" y="-742.28" font-family="Times,serif" font-size="14.00">inconsistent with evolving community norms and traditions around what is</text>
<text text-anchor="start" x="1200.77" y="-728.28" font-family="Times,serif" font-size="14.00">acceptable in a free software / open source license. See below for more on the</text>
<text text-anchor="start" x="1320.77" y="-714.28" font-family="Times,serif" font-size="14.00">history of Fedora licensing policy.</text>
</g>
<!-- 6593&#45;&gt;6592 -->
<g id="edge52" class="edge">
<title>6593&#45;&gt;6592</title>
<path fill="none" stroke="#e09d4b" d="M1439.43,-828.44C1461.7,-882.58 1476.36,-925.12 1532.91,-1091.41"/>
<polygon fill="#e09d4b" stroke="#e09d4b" points="1529.49,-1092.25 1536.03,-1100.59 1536.12,-1090 1529.49,-1092.25"/>
</g>
<!-- 9171&#45;&gt;9172 -->
<g id="edge53" class="edge">
<title>9171&#45;&gt;9172</title>
<path fill="none" stroke="#e09d4b" d="M1653.85,-1487.66C1551.73,-1729.24 1546,-1750.91 1575.9,-1896.43"/>
<polygon fill="#e09d4b" stroke="#e09d4b" points="1572.45,-1897.02 1577.9,-1906.11 1579.3,-1895.61 1572.45,-1897.02"/>
</g>
<!-- 9173 -->
<g id="node29" class="node">
<title>9173</title>
<polygon fill="none" stroke="black" points="1474.7,-1714.95 1474.7,-1729.86 1427.21,-1740.41 1360.05,-1740.41 1312.57,-1729.86 1312.57,-1714.95 1360.05,-1704.41 1427.21,-1704.41 1474.7,-1714.95"/>
<text text-anchor="middle" x="1393.63" y="-1717.36" font-family="Times,serif" font-size="14.00">Q Public License</text>
</g>
<!-- 9173&#45;&gt;9172 -->
<g id="edge54" class="edge">
<title>9173&#45;&gt;9172</title>
<path fill="none" stroke="#e09d4b" stroke-dasharray="5,2" d="M1400.4,-1740.56C1439.44,-1844.91 1449.56,-1862.72 1531.71,-1904.7"/>
<polygon fill="#e09d4b" stroke="#e09d4b" points="1540.45,-1909.11 1529.5,-1908.62 1537.08,-1907.41 1531.53,-1904.6 1531.53,-1904.6 1531.53,-1904.6 1537.08,-1907.41 1533.56,-1900.58 1540.45,-1909.11"/>
</g>
<!-- 9173&#45;&gt;10702 -->
<g id="edge55" class="edge">
<title>9173&#45;&gt;10702</title>
<path fill="none" stroke="#00876c" stroke-dasharray="5,2" d="M1474.97,-1728.55C1481.19,-1728.22 1488.04,-1727.74 1495.8,-1727.08"/>
<polygon fill="#00876c" stroke="#00876c" points="1505.76,-1726.19 1496.2,-1731.56 1502,-1726.53 1495.8,-1727.08 1495.8,-1727.08 1495.8,-1727.08 1502,-1726.53 1495.4,-1722.6 1505.76,-1726.19"/>
</g>
<!-- 9174 -->
<g id="node30" class="node">
<title>9174</title>
<polygon fill="none" stroke="black" points="1901.18,-2167.44 1901.18,-2182.36 1883.22,-2192.9 1857.83,-2192.9 1839.87,-2182.36 1839.87,-2167.44 1857.83,-2156.9 1883.22,-2156.9 1901.18,-2167.44"/>
<polygon fill="none" stroke="black" points="1905.18,-2165.15 1905.18,-2184.65 1884.31,-2196.9 1856.74,-2196.9 1835.87,-2184.65 1835.87,-2165.15 1856.74,-2152.9 1884.31,-2152.9 1905.18,-2165.15"/>
<text text-anchor="middle" x="1870.52" y="-2169.85" font-family="Times,serif" font-size="14.00">QPL</text>
</g>
<!-- 9174&#45;&gt;9172 -->
<g id="edge56" class="edge">
<title>9174&#45;&gt;9172</title>
<path fill="none" stroke="#e09d4b" stroke-dasharray="5,2" d="M1838.02,-2163.31C1741.28,-2128.14 1724.56,-2112.05 1607.01,-1961.01"/>
<polygon fill="#e09d4b" stroke="#e09d4b" points="1600.99,-1953.26 1610.68,-1958.39 1603.31,-1956.25 1607.12,-1961.15 1607.12,-1961.15 1607.12,-1961.15 1603.31,-1956.25 1603.57,-1963.92 1600.99,-1953.26"/>
</g>
<!-- 9174&#45;&gt;11875 -->
<g id="edge57" class="edge">
<title>9174&#45;&gt;11875</title>
<path fill="none" stroke="#deb256" stroke-width="2" d="M1882.35,-2197.12C1940.61,-2306.54 1953.75,-2330.59 1978.56,-2366.61"/>
<polygon fill="#deb256" stroke="#deb256" stroke-width="2" points="1983.39,-2373.56 1973.99,-2367.92 1981.52,-2371.74 1977.27,-2365.63 1977.68,-2365.35 1978.09,-2365.06 1982.34,-2371.17 1981.37,-2362.78 1983.39,-2373.56"/>
</g>
<!-- 9174&#45;&gt;42212 -->
<g id="edge58" class="edge">
<title>9174&#45;&gt;42212</title>
<path fill="none" stroke="#379469" stroke-dasharray="5,2" d="M1855.86,-2196.92C1806.52,-2270.82 1789.53,-2292.7 1749.59,-2309.68"/>
<polygon fill="#379469" stroke="#379469" points="1740.34,-2313.36 1747.97,-2305.48 1743.86,-2311.96 1749.64,-2309.66 1749.64,-2309.66 1749.64,-2309.66 1743.86,-2311.96 1751.3,-2313.84 1740.34,-2313.36"/>
</g>
<!-- 9174&#45;&gt;55968 -->
<g id="edge59" class="edge">
<title>9174&#45;&gt;55968</title>
<path fill="none" stroke="#379469" stroke-dasharray="5,2" d="M1898.41,-2160.92C2002.65,-2108.24 2013.91,-2094.66 2062.52,-1966.41"/>
<polygon fill="#379469" stroke="#379469" points="2065.97,-1957.29 2066.64,-1968.24 2064.63,-1960.83 2062.43,-1966.65 2062.43,-1966.65 2062.43,-1966.65 2064.63,-1960.83 2058.22,-1965.06 2065.97,-1957.29"/>
</g>
<!-- 55971 -->
<g id="node68" class="node">
<title>55971</title>
<polygon fill="none" stroke="#379469" points="2489.17,-2385.09 2489.17,-2400 2370.94,-2410.54 2203.74,-2410.54 2085.51,-2400 2085.51,-2385.09 2203.74,-2374.54 2370.94,-2374.54 2489.17,-2385.09"/>
<text text-anchor="middle" x="2287.34" y="-2387.49" font-family="Times,serif" font-size="14.00">metaeffekt:Q Public License 1.0 (INRIA 2004)</text>
</g>
<!-- 9174&#45;&gt;55971 -->
<g id="edge60" class="edge">
<title>9174&#45;&gt;55971</title>
<path fill="none" stroke="#379469" stroke-dasharray="5,2" d="M1893.73,-2191.71C2066.73,-2316.98 2115.59,-2351 2189.25,-2371.57"/>
<polygon fill="#379469" stroke="#379469" points="2198.65,-2374.08 2187.82,-2375.85 2194.99,-2373.1 2188.98,-2371.5 2188.98,-2371.5 2188.98,-2371.5 2194.99,-2373.1 2190.14,-2367.15 2198.65,-2374.08"/>
</g>
<!-- 68337 -->
<g id="node92" class="node">
<title>68337</title>
<polygon fill="none" stroke="#00876c" points="1755.44,-2261.66 1755.44,-2276.57 1725.48,-2287.11 1683.1,-2287.11 1653.14,-2276.57 1653.14,-2261.66 1683.1,-2251.11 1725.48,-2251.11 1755.44,-2261.66"/>
<polygon fill="none" stroke="#00876c" points="1759.44,-2258.82 1759.44,-2279.4 1726.16,-2291.11 1682.42,-2291.11 1649.14,-2279.4 1649.14,-2258.82 1682.42,-2247.11 1726.16,-2247.11 1759.44,-2258.82"/>
<text text-anchor="middle" x="1704.29" y="-2264.06" font-family="Times,serif" font-size="14.00">pypi:QPL</text>
</g>
<!-- 9174&#45;&gt;68337 -->
<g id="edge61" class="edge">
<title>9174&#45;&gt;68337</title>
<path fill="none" stroke="#00876c" stroke-width="2" d="M1852.57,-2194.9C1815.29,-2236.14 1798.89,-2251.39 1770.45,-2259.31"/>
<polygon fill="#00876c" stroke="#00876c" stroke-width="2" points="1762.21,-2261.27 1770.9,-2254.57 1764.59,-2260.19 1771.82,-2258.47 1771.94,-2258.95 1772.05,-2259.44 1764.82,-2261.16 1772.98,-2263.33 1762.21,-2261.27"/>
</g>
<!-- 9175 -->
<g id="node31" class="node">
<title>9175</title>
<text text-anchor="middle" x="2043.12" y="-1306.7" font-family="Times,serif" font-size="14.00">http://doc.trolltech.com/4.0/qpl.html</text>
</g>
<!-- 9175&#45;&gt;9171 -->
<g id="edge62" class="edge">
<title>9175&#45;&gt;9171</title>
<path fill="none" stroke="#e09d4b" d="M1935.54,-1320.22C1882.27,-1330.35 1836.87,-1355.05 1722.42,-1424.24"/>
<polygon fill="#e09d4b" stroke="#e09d4b" points="1720.64,-1421.23 1713.89,-1429.4 1724.26,-1427.22 1720.64,-1421.23"/>
</g>
<!-- 9175&#45;&gt;24874 -->
<g id="edge63" class="edge">
<title>9175&#45;&gt;24874</title>
<path fill="none" stroke="#deb256" d="M2150.61,-1325.54C2287.54,-1344.27 2319.71,-1357.28 2387.65,-1415.47"/>
<polygon fill="#deb256" stroke="#deb256" points="2385.12,-1417.91 2394.97,-1421.8 2389.7,-1412.62 2385.12,-1417.91"/>
</g>
<!-- 10701 -->
<g id="node33" class="node">
<title>10701</title>
<ellipse fill="none" stroke="#00876c" cx="1254.05" cy="-1362.7" rx="155.56" ry="28.99"/>
<text text-anchor="middle" x="1254.05" y="-1365.9" font-family="Times,serif" font-size="14.00" fill="gray">BlueOakCouncil</text>
<text text-anchor="middle" x="1254.05" y="-1349.4" font-family="Times,serif" font-size="14.00" fill="gray">dc56abf89b23ca02f87d40ac1462f16e</text>
</g>
<!-- 10673&#45;&gt;10701 -->
<g id="edge64" class="edge">
<title>10673&#45;&gt;10701</title>
<path fill="none" stroke="#00876c" d="M942.36,-1118.09C1014.5,-1177.91 1034.42,-1193.57 1208.18,-1327.38"/>
<polygon fill="#00876c" stroke="#00876c" points="1205.85,-1330 1215.91,-1333.33 1210.13,-1324.46 1205.85,-1330"/>
</g>
<!-- 10701&#45;&gt;10702 -->
<g id="edge65" class="edge">
<title>10701&#45;&gt;10702</title>
<path fill="none" stroke="#00876c" d="M1271.97,-1391.93C1334.45,-1493.08 1354.49,-1512.49 1560.93,-1686.92"/>
<polygon fill="#00876c" stroke="#00876c" points="1558.57,-1689.51 1568.47,-1693.29 1563.09,-1684.16 1558.57,-1689.51"/>
</g>
<!-- 10703 -->
<g id="node35" class="node">
<title>10703</title>
<text text-anchor="middle" x="1097.59" y="-1051.32" font-family="Times,serif" font-size="14.00">https://spdx.org/licenses/QPL&#45;1.0</text>
</g>
<!-- 10703&#45;&gt;10701 -->
<g id="edge66" class="edge">
<title>10703&#45;&gt;10701</title>
<path fill="none" stroke="#00876c" d="M1102.1,-1074.17C1123.4,-1157.56 1131.1,-1173.16 1228.82,-1323.84"/>
<polygon fill="#00876c" stroke="#00876c" points="1225.87,-1325.73 1234.25,-1332.21 1231.75,-1321.92 1225.87,-1325.73"/>
</g>
<!-- 11874&#45;&gt;11875 -->
<g id="edge67" class="edge">
<title>11874&#45;&gt;11875</title>
<path fill="none" stroke="#deb256" d="M2396.4,-2587.03C2312.92,-2573.16 2242.48,-2535.19 2041.39,-2421.11"/>
<polygon fill="#deb256" stroke="#deb256" points="2043.15,-2418.08 2032.72,-2416.19 2039.69,-2424.17 2043.15,-2418.08"/>
</g>
<!-- 11876 -->
<g id="node38" class="node">
<title>11876</title>
<polygon fill="none" stroke="#deb256" points="2315.7,-2717.14 2315.7,-2732.05 2221.81,-2742.59 2089.03,-2742.59 1995.14,-2732.05 1995.14,-2717.14 2089.03,-2706.59 2221.81,-2706.59 2315.7,-2717.14"/>
<polygon fill="none" stroke="#deb256" points="2319.7,-2713.56 2319.7,-2735.62 2222.04,-2746.59 2088.8,-2746.59 1991.14,-2735.62 1991.14,-2713.56 2088.8,-2702.59 2222.04,-2702.59 2319.7,-2713.56"/>
<text text-anchor="middle" x="2155.42" y="-2719.54" font-family="Times,serif" font-size="14.00">Q Public License (QPL), Version 1.0</text>
</g>
<!-- 11876&#45;&gt;11875 -->
<g id="edge68" class="edge">
<title>11876&#45;&gt;11875</title>
<path fill="none" stroke="#deb256" stroke-width="2" d="M2144.49,-2702.44C2108.75,-2629.93 2099.62,-2610.56 2015.78,-2430.46"/>
<polygon fill="#deb256" stroke="#deb256" stroke-width="2" points="2012.1,-2422.56 2020.4,-2429.73 2013.64,-2424.67 2016.78,-2431.41 2016.32,-2431.62 2015.87,-2431.84 2012.73,-2425.09 2012.24,-2433.52 2012.1,-2422.56"/>
</g>
<!-- 11877 -->
<g id="node39" class="node">
<title>11877</title>
<text text-anchor="middle" x="2795.47" y="-2913.28" font-family="Times,serif" font-size="14.00">https://www.gnu.org/licenses/license&#45;list.html#QPL</text>
</g>
<!-- 11877&#45;&gt;11874 -->
<g id="edge69" class="edge">
<title>11877&#45;&gt;11874</title>
<path fill="none" stroke="#deb256" d="M2783.27,-2900.52C2729.44,-2822 2716.82,-2805.59 2578.73,-2634.08"/>
<polygon fill="#deb256" stroke="#deb256" points="2581.58,-2632.03 2572.58,-2626.43 2576.13,-2636.42 2581.58,-2632.03"/>
</g>
<!-- 11878 -->
<g id="node40" class="node">
<title>11878</title>
<text text-anchor="middle" x="2853.1" y="-2811.48" font-family="Times,serif" font-size="14.00">http://directory.fsf.org/wiki/License:QPLv1.0</text>
</g>
<!-- 11878&#45;&gt;11874 -->
<g id="edge70" class="edge">
<title>11878&#45;&gt;11874</title>
<path fill="none" stroke="#deb256" d="M2821.63,-2798.68C2756.83,-2761.55 2733.45,-2744.17 2593.11,-2632.08"/>
<polygon fill="#deb256" stroke="#deb256" points="2595.33,-2629.37 2585.33,-2625.86 2590.96,-2634.84 2595.33,-2629.37"/>
</g>
<!-- 12439 -->
<g id="node41" class="node">
<title>12439</title>
<text text-anchor="middle" x="2493.19" y="-1088.66" font-family="Times,serif" font-size="14.00">LicenseType Copyleft Limited</text>
</g>
<!-- 12439&#45;&gt;24874 -->
<g id="edge71" class="edge">
<title>12439&#45;&gt;24874</title>
<path fill="none" stroke="#deb256" d="M2497.13,-1111.42C2523.76,-1231.7 2522.2,-1247.39 2446.49,-1411.95"/>
<polygon fill="#deb256" stroke="#deb256" points="2443.52,-1410.04 2442.51,-1420.59 2449.87,-1412.97 2443.52,-1410.04"/>
</g>
<!-- 12601 -->
<g id="node42" class="node">
<title>12601</title>
<text text-anchor="middle" x="2744.72" y="-1187.52" font-family="Times,serif" font-size="14.00">ScancodeData:</text>
<text text-anchor="middle" x="2744.72" y="-1171.02" font-family="Times,serif" font-size="14.00">Per SPDX.org, this license is OSI certified.</text>
</g>
<!-- 12601&#45;&gt;24874 -->
<g id="edge72" class="edge">
<title>12601&#45;&gt;24874</title>
<path fill="none" stroke="#deb256" d="M2728.99,-1204.6C2668.36,-1282.41 2650.54,-1297.68 2478.76,-1416.47"/>
<polygon fill="#deb256" stroke="#deb256" points="2476.87,-1413.52 2470.64,-1422.09 2480.85,-1419.28 2476.87,-1413.52"/>
</g>
<!-- 19014 -->
<g id="node43" class="node">
<title>19014</title>
<text text-anchor="middle" x="2924.23" y="-1307.6" font-family="Times,serif" font-size="14.00">http://www.gnu.org/licenses/license&#45;list.html#GPLCompatibleLicenses</text>
</g>
<!-- 19014&#45;&gt;24874 -->
<g id="edge73" class="edge">
<title>19014&#45;&gt;24874</title>
<path fill="none" stroke="#deb256" d="M2860.18,-1330.61C2777.76,-1353.72 2730.65,-1366.89 2526.53,-1423.88"/>
<polygon fill="#deb256" stroke="#deb256" points="2525.89,-1420.43 2517.2,-1426.49 2527.77,-1427.17 2525.89,-1420.43"/>
</g>
<!-- 24874&#45;&gt;24875 -->
<g id="edge74" class="edge">
<title>24874&#45;&gt;24875</title>
<path fill="none" stroke="#deb256" d="M2412.45,-1480.29C2336.3,-1618.62 2316.69,-1635.41 2066.12,-1784.56"/>
<polygon fill="#deb256" stroke="#deb256" points="2064.44,-1781.49 2057.64,-1789.61 2068.02,-1787.5 2064.44,-1781.49"/>
</g>
<!-- 24875&#45;&gt;4131 -->
<g id="edge75" class="edge">
<title>24875&#45;&gt;4131</title>
<path fill="none" stroke="#00876c" stroke-width="2" d="M1998.94,-1834.49C1947.8,-1897.11 1817.49,-2073.96 1766.02,-2150.24"/>
<polygon fill="#00876c" stroke="#00876c" stroke-width="2" points="1761.22,-2157.43 1763.03,-2146.62 1762.23,-2155.02 1766.36,-2148.84 1766.77,-2149.12 1767.19,-2149.4 1763.06,-2155.58 1770.51,-2151.62 1761.22,-2157.43"/>
</g>
<!-- 24875&#45;&gt;55968 -->
<g id="edge76" class="edge">
<title>24875&#45;&gt;55968</title>
<path fill="none" stroke="#379469" stroke-dasharray="5,2" d="M2034.96,-1834.27C2058.54,-1869.16 2066.67,-1883 2070.59,-1900.68"/>
<polygon fill="#379469" stroke="#379469" points="2072.28,-1910.52 2066.15,-1901.43 2071.64,-1906.79 2070.58,-1900.66 2070.58,-1900.66 2070.58,-1900.66 2071.64,-1906.79 2075.02,-1899.9 2072.28,-1910.52"/>
</g>
<!-- 24876 -->
<g id="node46" class="node">
<title>24876</title>
<polygon fill="none" stroke="black" points="1883.5,-1713.57 1883.5,-1728.48 1856.78,-1739.03 1819,-1739.03 1792.28,-1728.48 1792.28,-1713.57 1819,-1703.03 1856.78,-1703.03 1883.5,-1713.57"/>
<polygon fill="none" stroke="black" points="1887.5,-1710.85 1887.5,-1731.2 1857.55,-1743.03 1818.24,-1743.03 1788.28,-1731.2 1788.28,-1710.85 1818.24,-1699.03 1857.55,-1699.03 1887.5,-1710.85"/>
<text text-anchor="middle" x="1837.89" y="-1715.98" font-family="Times,serif" font-size="14.00">QPL 1.0</text>
</g>
<!-- 24876&#45;&gt;24875 -->
<g id="edge77" class="edge">
<title>24876&#45;&gt;24875</title>
<path fill="none" stroke="#deb256" stroke-width="2" d="M1872.33,-1737.48C1926.6,-1763.43 1951.29,-1775.36 1971.59,-1785.86"/>
<polygon fill="#deb256" stroke="#deb256" stroke-width="2" points="1979.16,-1789.83 1968.21,-1789.17 1976.66,-1789.08 1970.07,-1785.63 1970.3,-1785.19 1970.53,-1784.74 1977.12,-1788.2 1972.39,-1781.2 1979.16,-1789.83"/>
</g>
<!-- 24876&#45;&gt;55968 -->
<g id="edge78" class="edge">
<title>24876&#45;&gt;55968</title>
<path fill="none" stroke="#379469" stroke-dasharray="5,2" d="M1862.95,-1741.18C1986.07,-1840.26 2009.01,-1859.46 2048,-1903.26"/>
<polygon fill="#379469" stroke="#379469" points="2054.41,-1910.52 2044.42,-1906.01 2051.91,-1907.69 2047.79,-1903.03 2047.79,-1903.03 2047.79,-1903.03 2051.91,-1907.69 2051.16,-1900.05 2054.41,-1910.52"/>
</g>
<!-- 68343 -->
<g id="node98" class="node">
<title>68343</title>
<polygon fill="none" stroke="#00876c" points="1722.02,-1870.52 1722.02,-1885.43 1672.26,-1895.97 1601.9,-1895.97 1552.14,-1885.43 1552.14,-1870.52 1601.9,-1859.97 1672.26,-1859.97 1722.02,-1870.52"/>
<polygon fill="none" stroke="#00876c" points="1726.02,-1867.28 1726.02,-1888.67 1672.68,-1899.97 1601.48,-1899.97 1548.14,-1888.67 1548.14,-1867.28 1601.48,-1855.97 1672.68,-1855.97 1726.02,-1867.28"/>
<text text-anchor="middle" x="1637.08" y="-1872.92" font-family="Times,serif" font-size="14.00">scancode:QPL 1.0</text>
</g>
<!-- 24876&#45;&gt;68343 -->
<g id="edge79" class="edge">
<title>24876&#45;&gt;68343</title>
<path fill="none" stroke="#00876c" stroke-width="2" d="M1823.55,-1743.4C1775.13,-1818.65 1758.26,-1839.92 1708.61,-1857.51"/>
<polygon fill="#00876c" stroke="#00876c" stroke-width="2" points="1700.53,-1860.22 1708.58,-1852.77 1702.8,-1858.93 1709.85,-1856.56 1710.01,-1857.04 1710.17,-1857.51 1703.12,-1859.87 1711.44,-1861.3 1700.53,-1860.22"/>
</g>
<!-- 24877 -->
<g id="node47" class="node">
<title>24877</title>
<polygon fill="none" stroke="black" points="2093.38,-1458.17 2093.38,-1473.08 2017.66,-1483.63 1910.57,-1483.63 1834.85,-1473.08 1834.85,-1458.17 1910.57,-1447.63 2017.66,-1447.63 2093.38,-1458.17"/>
<polygon fill="none" stroke="black" points="2097.38,-1454.69 2097.38,-1476.56 2017.93,-1487.63 1910.3,-1487.63 1830.85,-1476.56 1830.85,-1454.69 1910.3,-1443.63 2017.93,-1443.63 2097.38,-1454.69"/>
<text text-anchor="middle" x="1964.11" y="-1460.58" font-family="Times,serif" font-size="14.00">Q Public License Version 1.0</text>
</g>
<!-- 24877&#45;&gt;24875 -->
<g id="edge80" class="edge">
<title>24877&#45;&gt;24875</title>
<path fill="none" stroke="#deb256" stroke-width="2" d="M1976.98,-1487.8C2056.04,-1624.37 2059.91,-1640.57 2027.64,-1779.06"/>
<polygon fill="#deb256" stroke="#deb256" stroke-width="2" points="2025.7,-1787.31 2023.6,-1776.55 2025.8,-1784.7 2027.5,-1777.46 2027.98,-1777.58 2028.47,-1777.69 2026.77,-1784.93 2032.37,-1778.6 2025.7,-1787.31"/>
</g>
<!-- 24877&#45;&gt;55968 -->
<g id="edge81" class="edge">
<title>24877&#45;&gt;55968</title>
<path fill="none" stroke="#379469" stroke-dasharray="5,2" d="M1977.82,-1487.91C2107.58,-1699.04 2113.5,-1716.48 2080.73,-1900.67"/>
<polygon fill="#379469" stroke="#379469" points="2079,-1910.39 2076.33,-1899.76 2079.66,-1906.67 2080.76,-1900.55 2080.76,-1900.55 2080.76,-1900.55 2079.66,-1906.67 2085.18,-1901.34 2079,-1910.39"/>
</g>
<!-- 62650 -->
<g id="node70" class="node">
<title>62650</title>
<polygon fill="none" stroke="#d43d51" points="2158.37,-907.06 2158.37,-921.97 2053.77,-932.52 1905.84,-932.52 1801.24,-921.97 1801.24,-907.06 1905.84,-896.52 2053.77,-896.52 2158.37,-907.06"/>
<polygon fill="none" stroke="#d43d51" points="2162.37,-903.44 2162.37,-925.59 2053.97,-936.52 1905.64,-936.52 1797.24,-925.59 1797.24,-903.44 1905.64,-892.52 2053.97,-892.52 2162.37,-903.44"/>
<text text-anchor="middle" x="1979.81" y="-909.47" font-family="Times,serif" font-size="14.00">hitachi:Q PUBLIC LICENSE version 1.0</text>
</g>
<!-- 24877&#45;&gt;62650 -->
<g id="edge82" class="edge">
<title>24877&#45;&gt;62650</title>
<path fill="none" stroke="#d43d51" stroke-width="2" d="M1968.17,-1443.13C2026.54,-1118.94 2029.4,-1094.8 1988.81,-946.98"/>
<polygon fill="#d43d51" stroke="#d43d51" stroke-width="2" points="1986.59,-938.93 1993.59,-947.38 1987.76,-941.27 1989.74,-948.44 1989.25,-948.57 1988.77,-948.71 1986.79,-941.54 1984.92,-949.77 1986.59,-938.93"/>
</g>
<!-- 68342 -->
<g id="node97" class="node">
<title>68342</title>
<polygon fill="none" stroke="#00876c" points="1886.8,-1769.79 1886.8,-1784.7 1788.04,-1795.25 1648.38,-1795.25 1549.62,-1784.7 1549.62,-1769.79 1648.38,-1759.25 1788.04,-1759.25 1886.8,-1769.79"/>
<polygon fill="none" stroke="#00876c" points="1890.8,-1766.2 1890.8,-1788.3 1788.26,-1799.25 1648.16,-1799.25 1545.62,-1788.3 1545.62,-1766.2 1648.16,-1755.25 1788.26,-1755.25 1890.8,-1766.2"/>
<text text-anchor="middle" x="1718.21" y="-1772.2" font-family="Times,serif" font-size="14.00">scancode:Q Public License Version 1.0</text>
</g>
<!-- 24877&#45;&gt;68342 -->
<g id="edge83" class="edge">
<title>24877&#45;&gt;68342</title>
<path fill="none" stroke="#00876c" stroke-width="2" d="M1956.63,-1488.11C1920.24,-1596.55 1908.4,-1611.69 1751.9,-1747.96"/>
<polygon fill="#00876c" stroke="#00876c" stroke-width="2" points="1745.69,-1753.36 1750.28,-1743.4 1747.29,-1751.3 1752.9,-1746.42 1753.23,-1746.8 1753.56,-1747.18 1747.95,-1752.06 1756.18,-1750.19 1745.69,-1753.36"/>
</g>
<!-- 24878 -->
<g id="node48" class="node">
<title>24878</title>
<text text-anchor="middle" x="2654.94" y="-1132.72" font-family="Times,serif" font-size="14.00">http://doc.trolltech.com/4.0/qpl.html</text>
</g>
<!-- 24878&#45;&gt;24874 -->
<g id="edge84" class="edge">
<title>24878&#45;&gt;24874</title>
<path fill="none" stroke="#deb256" d="M2649.05,-1155.45C2615.14,-1256.85 2605.29,-1271.73 2464.28,-1414.87"/>
<polygon fill="#deb256" stroke="#deb256" points="2462.17,-1412.02 2457.64,-1421.6 2467.16,-1416.93 2462.17,-1412.02"/>
</g>
<!-- 24879 -->
<g id="node49" class="node">
<title>24879</title>
<text text-anchor="middle" x="2784.17" y="-1263.54" font-family="Times,serif" font-size="14.00">http://www.opensource.org/licenses/QPL&#45;1.0</text>
</g>
<!-- 24879&#45;&gt;24874 -->
<g id="edge85" class="edge">
<title>24879&#45;&gt;24874</title>
<path fill="none" stroke="#deb256" d="M2756.93,-1286.41C2688.57,-1330.86 2663.26,-1343.9 2497.89,-1419.53"/>
<polygon fill="#deb256" stroke="#deb256" points="2496.85,-1416.16 2489.22,-1423.5 2499.77,-1422.53 2496.85,-1416.16"/>
</g>
<!-- 24880 -->
<g id="node50" class="node">
<title>24880</title>
<text text-anchor="middle" x="2616.59" y="-1249.11" font-family="Times,serif" font-size="14.00">$TEXT</text>
</g>
<!-- 24880&#45;&gt;24874 -->
<g id="edge86" class="edge">
<title>24880&#45;&gt;24874</title>
<path fill="none" stroke="#deb256" d="M2607.01,-1271.93C2577.01,-1327.06 2565.07,-1340.52 2472.68,-1415.47"/>
<polygon fill="#deb256" stroke="#deb256" points="2470.53,-1412.71 2464.97,-1421.72 2474.94,-1418.15 2470.53,-1412.71"/>
</g>
<!-- 33614&#45;&gt;33615 -->
<g id="edge87" class="edge">
<title>33614&#45;&gt;33615</title>
<path fill="none" stroke="#e18745" d="M2208.27,-1414.65C2190.2,-1528.1 2179.05,-1545.92 2044.15,-1690.54"/>
<polygon fill="#e18745" stroke="#e18745" points="2041.66,-1688.07 2037.39,-1697.77 2046.78,-1692.85 2041.66,-1688.07"/>
</g>
<!-- 33616 -->
<g id="node53" class="node">
<title>33616</title>
<text text-anchor="middle" x="2276.55" y="-1081.46" font-family="Times,serif" font-size="14.00">$TEXT</text>
</g>
<!-- 33616&#45;&gt;33614 -->
<g id="edge88" class="edge">
<title>33616&#45;&gt;33614</title>
<path fill="none" stroke="#e18745" d="M2279.23,-1104.35C2292.24,-1192.17 2289.7,-1207.51 2229.93,-1345.83"/>
<polygon fill="#e18745" stroke="#e18745" points="2226.89,-1344.05 2226.13,-1354.61 2233.31,-1346.83 2226.89,-1344.05"/>
</g>
<!-- 35189 -->
<g id="node54" class="node">
<title>35189</title>
<text text-anchor="start" x="2694.04" y="-2277.43" font-family="Times,serif" font-size="14.00">OKFN status: </text>
<text text-anchor="start" x="2772.79" y="-2277.43" font-family="Times,serif" font-weight="bold" font-size="14.00" fill="#228b22">active</text>
</g>
<!-- 35189&#45;&gt;35355 -->
<g id="edge89" class="edge">
<title>35189&#45;&gt;35355</title>
<path fill="none" stroke="#58a066" d="M2686.48,-2264.13C2629.13,-2247.44 2589.08,-2230.48 2448.89,-2167.05"/>
<polygon fill="#58a066" stroke="#58a066" points="2450.56,-2163.96 2440,-2163.02 2447.67,-2170.34 2450.56,-2163.96"/>
</g>
<!-- 35190 -->
<g id="node55" class="node">
<title>35190</title>
<text text-anchor="start" x="2718.1" y="-2204.55" font-family="Times,serif" font-size="14.00">Open Definition: </text>
<text text-anchor="start" x="2814.1" y="-2204.55" font-family="Times,serif" font-weight="bold" font-size="14.00" fill="#000000">not reviewed</text>
</g>
<!-- 35190&#45;&gt;35355 -->
<g id="edge90" class="edge">
<title>35190&#45;&gt;35355</title>
<path fill="none" stroke="#58a066" d="M2710.11,-2210.24C2655.51,-2208.18 2606.66,-2197.18 2478.95,-2162.62"/>
<polygon fill="#58a066" stroke="#58a066" points="2480.01,-2159.28 2469.45,-2160.04 2478.18,-2166.04 2480.01,-2159.28"/>
</g>
<!-- 35355&#45;&gt;4132 -->
<g id="edge91" class="edge">
<title>35355&#45;&gt;4132</title>
<path fill="none" stroke="#58a066" d="M2222.28,-2141.99C2150.63,-2135.84 2076.98,-2109.05 1893.39,-2038.19"/>
<polygon fill="#58a066" stroke="#58a066" points="1894.86,-2035.01 1884.27,-2034.67 1892.34,-2041.54 1894.86,-2035.01"/>
</g>
<!-- 35433 -->
<g id="node57" class="node">
<title>35433</title>
<text text-anchor="middle" x="294.41" y="-2404.28" font-family="Times,serif" font-size="14.00">LicenseTag (ScopedLicenseTag &quot;OrtLicenseCategorization&quot; &quot;include&#45;in&#45;notice&#45;file&quot; NoLicenseTagText)</text>
</g>
<!-- 39826 -->
<g id="node60" class="node">
<title>39826</title>
<ellipse fill="none" stroke="#d43d51" cx="1032.4" cy="-2325.56" rx="159.81" ry="28.99"/>
<text text-anchor="middle" x="1032.4" y="-2328.76" font-family="Times,serif" font-size="14.00" fill="gray">OrtLicenseCategorization</text>
<text text-anchor="middle" x="1032.4" y="-2312.26" font-family="Times,serif" font-size="14.00" fill="gray">2c4e7aaa79332562c9eb2554431c57d6</text>
</g>
<!-- 35433&#45;&gt;39826 -->
<g id="edge92" class="edge">
<title>35433&#45;&gt;39826</title>
<path fill="none" stroke="#d43d51" d="M403.71,-2427.33C542.1,-2446.75 612.42,-2433.64 928.59,-2352.36"/>
<polygon fill="#d43d51" stroke="#d43d51" points="929.18,-2355.82 938,-2349.94 927.44,-2349.04 929.18,-2355.82"/>
</g>
<!-- 35444 -->
<g id="node58" class="node">
<title>35444</title>
<text text-anchor="middle" x="407.27" y="-2533.35" font-family="Times,serif" font-size="14.00">LicenseTag (ScopedLicenseTag &quot;OrtLicenseCategorization&quot; &quot;include&#45;source&#45;code&#45;offer&#45;in&#45;notice&#45;file&quot; NoLicenseTagText)</text>
</g>
<!-- 35444&#45;&gt;39826 -->
<g id="edge93" class="edge">
<title>35444&#45;&gt;39826</title>
<path fill="none" stroke="#d43d51" d="M542.99,-2520.43C638.5,-2502.81 715.12,-2470 962.35,-2357.48"/>
<polygon fill="#d43d51" stroke="#d43d51" points="963.7,-2360.71 971.35,-2353.38 960.8,-2354.34 963.7,-2360.71"/>
</g>
<!-- 35459 -->
<g id="node59" class="node">
<title>35459</title>
<text text-anchor="middle" x="538.74" y="-2617.56" font-family="Times,serif" font-size="14.00">LicenseTag (ScopedLicenseTag &quot;OrtLicenseCategorization&quot; &quot;copyleft&#45;limited&quot; NoLicenseTagText)</text>
</g>
<!-- 35459&#45;&gt;39826 -->
<g id="edge94" class="edge">
<title>35459&#45;&gt;39826</title>
<path fill="none" stroke="#d43d51" d="M579.58,-2604.66C695.98,-2553.12 727.36,-2533.37 981.82,-2360.03"/>
<polygon fill="#d43d51" stroke="#d43d51" points="983.43,-2363.18 989.72,-2354.65 979.48,-2357.39 983.43,-2363.18"/>
</g>
<!-- 39826&#45;&gt;4131 -->
<g id="edge95" class="edge">
<title>39826&#45;&gt;4131</title>
<path fill="none" stroke="#d43d51" d="M1140.59,-2347.24C1323.16,-2380.56 1378.41,-2360.69 1688.82,-2212.67"/>
<polygon fill="#d43d51" stroke="#d43d51" points="1690.14,-2215.92 1697.66,-2208.46 1687.12,-2209.6 1690.14,-2215.92"/>
</g>
<!-- 42211 -->
<g id="node61" class="node">
<title>42211</title>
<ellipse fill="none" stroke="#379469" cx="1666.34" cy="-2716.91" rx="159.81" ry="28.99"/>
<text text-anchor="middle" x="1666.34" y="-2720.11" font-family="Times,serif" font-size="14.00" fill="gray">CavilLicenseChange</text>
<text text-anchor="middle" x="1666.34" y="-2703.61" font-family="Times,serif" font-size="14.00" fill="gray">ea5a2b41390b984a64bb9c8ca27a5999</text>
</g>
<!-- 42211&#45;&gt;42212 -->
<g id="edge96" class="edge">
<title>42211&#45;&gt;42212</title>
<path fill="none" stroke="#379469" d="M1669.06,-2687.64C1676.84,-2603.06 1678.02,-2578.56 1686.56,-2364.22"/>
<polygon fill="#379469" stroke="#379469" points="1690.05,-2364.51 1686.95,-2354.38 1683.06,-2364.23 1690.05,-2364.51"/>
</g>
<!-- 42213 -->
<g id="node63" class="node">
<title>42213</title>
<polygon fill="none" stroke="#379469" points="1623.79,-2581.21 1623.79,-2596.12 1601.29,-2606.66 1569.47,-2606.66 1546.97,-2596.12 1546.97,-2581.21 1569.47,-2570.66 1601.29,-2570.66 1623.79,-2581.21"/>
<text text-anchor="middle" x="1585.38" y="-2583.61" font-family="Times,serif" font-size="14.00">QPL ..</text>
</g>
<!-- 42213&#45;&gt;42212 -->
<g id="edge97" class="edge">
<title>42213&#45;&gt;42212</title>
<path fill="none" stroke="#379469" stroke-dasharray="5,2" d="M1597.34,-2570.42C1631.72,-2517.5 1637.93,-2500.76 1678.31,-2363.21"/>
<polygon fill="#379469" stroke="#379469" points="1681.06,-2353.83 1682.57,-2364.69 1680,-2357.46 1678.25,-2363.42 1678.25,-2363.42 1678.25,-2363.42 1680,-2357.46 1673.93,-2362.16 1681.06,-2353.83"/>
</g>
<!-- 43136 -->
<g id="node64" class="node">
<title>43136</title>
<text text-anchor="start" x="3048.51" y="-1916.87" font-family="Times,serif" font-size="14.00">CoDEStatus: </text>
<text text-anchor="start" x="3122.76" y="-1916.87" font-family="Times,serif" font-weight="bold" font-size="14.00" fill="#228b22">Approved</text>
<text text-anchor="start" x="2901.14" y="-1902.87" font-family="Times,serif" font-size="14.00">Eine Lizenz ist freigegeben, wenn sie nach fachlicher und juristischer Prüfung</text>
<text text-anchor="start" x="2883.14" y="-1888.87" font-family="Times,serif" font-size="14.00">seitens Open CoDE sowohl der Open Source Definition (gemäß Definition der Open</text>
<text text-anchor="start" x="2925.14" y="-1874.87" font-family="Times,serif" font-size="14.00">Source Initiative [extern]) entspricht und darüber hinaus keine für die</text>
<text text-anchor="start" x="2928.14" y="-1860.87" font-family="Times,serif" font-size="14.00">Öffentliche Verwaltung erkennbaren Schwierigkeiten birgt. Außer in</text>
<text text-anchor="start" x="2913.14" y="-1846.87" font-family="Times,serif" font-size="14.00">Ausnahmefällen ist nicht zu erwarten, dass einmal freigegebene Lizenzen</text>
<text text-anchor="start" x="3053.01" y="-1832.87" font-family="Times,serif" font-size="14.00">deklassifiziert werden.</text>
</g>
<!-- 55967 -->
<g id="node65" class="node">
<title>55967</title>
<ellipse fill="none" stroke="#379469" cx="2428.74" cy="-1941" rx="162.46" ry="28.99"/>
<text text-anchor="middle" x="2428.74" y="-1944.2" font-family="Times,serif" font-size="14.00" fill="gray">MetaeffektLicense</text>
<text text-anchor="middle" x="2428.74" y="-1927.7" font-family="Times,serif" font-size="14.00" fill="gray">87e030571021d0056d53db88a7939e24</text>
</g>
<!-- 43136&#45;&gt;55967 -->
<g id="edge98" class="edge">
<title>43136&#45;&gt;55967</title>
<path fill="none" stroke="#379469" d="M2877.77,-1933.13C2815.23,-1939.02 2735.23,-1940.59 2602.8,-1940.94"/>
<polygon fill="#379469" stroke="#379469" points="2603.01,-1937.44 2593.02,-1940.97 2603.03,-1944.44 2603.01,-1937.44"/>
</g>
<!-- 55967&#45;&gt;55968 -->
<g id="edge99" class="edge">
<title>55967&#45;&gt;55968</title>
<path fill="none" stroke="#379469" d="M2307.2,-1960.62C2280.12,-1960.63 2247.64,-1957.54 2198.32,-1951.13"/>
<polygon fill="#379469" stroke="#379469" points="2199.06,-1947.69 2188.69,-1949.86 2198.15,-1954.63 2199.06,-1947.69"/>
</g>
<!-- 55969 -->
<g id="node67" class="node">
<title>55969</title>
<polygon fill="none" stroke="#379469" points="2259.56,-1646.81 2259.56,-1661.72 2211.75,-1672.27 2144.13,-1672.27 2096.32,-1661.72 2096.32,-1646.81 2144.13,-1636.27 2211.75,-1636.27 2259.56,-1646.81"/>
<text text-anchor="middle" x="2177.94" y="-1649.22" font-family="Times,serif" font-size="14.00">QPL, Version 1.0</text>
</g>
<!-- 55969&#45;&gt;55968 -->
<g id="edge100" class="edge">
<title>55969&#45;&gt;55968</title>
<path fill="none" stroke="#379469" stroke-dasharray="5,2" d="M2178.57,-1672.37C2182.85,-1798.18 2179.84,-1813.96 2101.79,-1903.27"/>
<polygon fill="#379469" stroke="#379469" points="2095.32,-1910.64 2098.53,-1900.16 2097.82,-1907.8 2101.92,-1903.12 2101.92,-1903.12 2101.92,-1903.12 2097.82,-1907.8 2105.3,-1906.09 2095.32,-1910.64"/>
</g>
<!-- 62649 -->
<g id="node69" class="node">
<title>62649</title>
<ellipse fill="none" stroke="#d43d51" cx="2016.35" cy="-388.89" rx="155.56" ry="28.99"/>
<text text-anchor="middle" x="2016.35" y="-392.09" font-family="Times,serif" font-size="14.00" fill="gray">HitachiOpenLicense</text>
<text text-anchor="middle" x="2016.35" y="-375.59" font-family="Times,serif" font-size="14.00" fill="gray">f274ecc61d53de6a4ddaf82997201af7</text>
</g>
<!-- 62649&#45;&gt;62650 -->
<g id="edge101" class="edge">
<title>62649&#45;&gt;62650</title>
<path fill="none" stroke="#d43d51" d="M2018.79,-417.99C2029.48,-548.19 2027.05,-572.75 1984.44,-880.99"/>
<polygon fill="#d43d51" stroke="#d43d51" points="1981.02,-880.19 1983.12,-890.57 1987.96,-881.15 1981.02,-880.19"/>
</g>
<!-- 62651 -->
<g id="node71" class="node">
<title>62651</title>
<text text-anchor="middle" x="2080.95" y="-112.48" font-family="Times,serif" font-size="14.00">$TEXT</text>
</g>
<!-- 62651&#45;&gt;62649 -->
<g id="edge102" class="edge">
<title>62651&#45;&gt;62649</title>
<path fill="none" stroke="#d43d51" d="M2077.02,-135.32C2063.8,-195.06 2059.89,-211.48 2026.19,-348.8"/>
<polygon fill="#d43d51" stroke="#d43d51" points="2022.84,-347.76 2023.86,-358.31 2029.64,-349.43 2022.84,-347.76"/>
</g>
<!-- 62652 -->
<g id="node72" class="node">
<title>62652</title>
<text text-anchor="middle" x="1999.52" y="-23.86" font-family="Times,serif" font-size="14.00">HitachiOpenLicense:</text>
<text text-anchor="middle" x="1999.52" y="-7.36" font-family="Times,serif" font-size="14.00">https://opensource.org/licenses/QPL&#45;1.0</text>
</g>
<!-- 62652&#45;&gt;62649 -->
<g id="edge103" class="edge">
<title>62652&#45;&gt;62649</title>
<path fill="none" stroke="#d43d51" d="M2004,-41.06C2023.04,-128.4 2023.75,-147.27 2017.6,-348.28"/>
<polygon fill="#d43d51" stroke="#d43d51" points="2014.11,-347.94 2017.3,-358.05 2021.11,-348.16 2014.11,-347.94"/>
</g>
<!-- 68318 -->
<g id="node73" class="node">
<title>68318</title>
<ellipse fill="none" stroke="#00876c" cx="1307.88" cy="-2069.38" rx="158.75" ry="28.99"/>
<text text-anchor="middle" x="1307.88" y="-2072.58" font-family="Times,serif" font-size="14.00" fill="gray">LicenseLynx</text>
<text text-anchor="middle" x="1307.88" y="-2056.08" font-family="Times,serif" font-size="14.00" fill="gray">f836541d24e0e7b7df183e4045da780b</text>
</g>
<!-- 68318&#45;&gt;4131 -->
<g id="edge104" class="edge">
<title>68318&#45;&gt;4131</title>
<path fill="none" stroke="#00876c" d="M1345.44,-2097.73C1477.15,-2196.59 1508.21,-2209.78 1656.62,-2195.48"/>
<polygon fill="#00876c" stroke="#00876c" points="1656.87,-2198.97 1666.48,-2194.5 1656.18,-2192 1656.87,-2198.97"/>
</g>
<!-- 68319&#45;&gt;4131 -->
<g id="edge105" class="edge">
<title>68319&#45;&gt;4131</title>
<path fill="none" stroke="#00876c" stroke-width="2" d="M1441.07,-2416.49C1527.01,-2394.75 1567.49,-2359.51 1710.07,-2219.97"/>
<polygon fill="#00876c" stroke="#00876c" stroke-width="2" points="1716.09,-2214.08 1712.09,-2224.29 1714.6,-2216.23 1709.29,-2221.44 1708.94,-2221.08 1708.59,-2220.72 1713.9,-2215.52 1705.79,-2217.86 1716.09,-2214.08"/>
</g>
<!-- 68320 -->
<g id="node75" class="node">
<title>68320</title>
<polygon fill="none" stroke="#00876c" points="1185.59,-2120.95 1185.59,-2135.86 1090.4,-2146.4 955.78,-2146.4 860.59,-2135.86 860.59,-2120.95 955.78,-2110.4 1090.4,-2110.4 1185.59,-2120.95"/>
<polygon fill="none" stroke="#00876c" points="1189.59,-2117.37 1189.59,-2139.44 1090.62,-2150.4 955.56,-2150.4 856.59,-2139.44 856.59,-2117.37 955.56,-2106.4 1090.62,-2106.4 1189.59,-2117.37"/>
<text text-anchor="middle" x="1023.09" y="-2123.35" font-family="Times,serif" font-size="14.00">pypi:License :: OSI Approved :: QPL</text>
</g>
<!-- 68320&#45;&gt;4131 -->
<g id="edge106" class="edge">
<title>68320&#45;&gt;4131</title>
<path fill="none" stroke="#00876c" stroke-width="2" d="M1065.11,-2150.81C1294.26,-2272.48 1328.6,-2276.98 1663.59,-2203.82"/>
<polygon fill="#00876c" stroke="#00876c" stroke-width="2" points="1671.72,-2202.04 1662.91,-2208.57 1669.32,-2203.08 1662.05,-2204.67 1661.95,-2204.18 1661.84,-2203.69 1669.1,-2202.1 1660.98,-2199.78 1671.72,-2202.04"/>
</g>
<!-- 68321 -->
<g id="node76" class="node">
<title>68321</title>
<polygon fill="none" stroke="#00876c" points="712.59,-2044.87 712.59,-2059.79 629.4,-2070.33 511.76,-2070.33 428.58,-2059.79 428.58,-2044.87 511.76,-2034.33 629.4,-2034.33 712.59,-2044.87"/>
<polygon fill="none" stroke="#00876c" points="716.59,-2041.35 716.59,-2063.31 629.66,-2074.33 511.51,-2074.33 424.58,-2063.31 424.58,-2041.35 511.51,-2030.33 629.66,-2030.33 716.59,-2041.35"/>
<text text-anchor="middle" x="570.58" y="-2047.28" font-family="Times,serif" font-size="14.00">License :: OSI Approved :: QPL</text>
</g>
<!-- 68321&#45;&gt;68320 -->
<g id="edge107" class="edge">
<title>68321&#45;&gt;68320</title>
<path fill="none" stroke="#00876c" stroke-width="2" d="M612.16,-2074.78C688.88,-2115.32 725.39,-2126.33 845.05,-2128.55"/>
<polygon fill="#00876c" stroke="#00876c" stroke-width="2" points="853.68,-2128.68 843.61,-2133.02 851.11,-2129.14 843.67,-2129.02 843.68,-2128.52 843.69,-2128.02 851.13,-2128.14 843.75,-2124.02 853.68,-2128.68"/>
</g>
<!-- 68322 -->
<g id="node77" class="node">
<title>68322</title>
<polygon fill="none" stroke="#00876c" points="1721.98,-2120.99 1721.98,-2135.9 1595.63,-2146.44 1416.96,-2146.44 1290.61,-2135.9 1290.61,-2120.99 1416.96,-2110.44 1595.63,-2110.44 1721.98,-2120.99"/>
<polygon fill="none" stroke="#00876c" points="1725.98,-2117.31 1725.98,-2139.58 1595.8,-2150.44 1416.79,-2150.44 1286.61,-2139.58 1286.61,-2117.31 1416.79,-2106.44 1595.8,-2106.44 1725.98,-2117.31"/>
<text text-anchor="middle" x="1506.29" y="-2123.39" font-family="Times,serif" font-size="14.00">pypi:License :: OSI Approved :: Qt Public License</text>
</g>
<!-- 68322&#45;&gt;4131 -->
<g id="edge108" class="edge">
<title>68322&#45;&gt;4131</title>
<path fill="none" stroke="#00876c" stroke-width="2" d="M1539.44,-2150.82C1592.94,-2186.46 1616.75,-2198.17 1657.16,-2197.12"/>
<polygon fill="#00876c" stroke="#00876c" stroke-width="2" points="1665.68,-2196.68 1655.93,-2201.69 1663.15,-2197.31 1655.72,-2197.69 1655.7,-2197.19 1655.67,-2196.69 1663.1,-2196.32 1655.47,-2192.7 1665.68,-2196.68"/>
</g>
<!-- 68323 -->
<g id="node78" class="node">
<title>68323</title>
<polygon fill="none" stroke="#00876c" points="1893.63,-2068.95 1893.63,-2083.86 1779.3,-2094.41 1617.6,-2094.41 1503.26,-2083.86 1503.26,-2068.95 1617.6,-2058.41 1779.3,-2058.41 1893.63,-2068.95"/>
<polygon fill="none" stroke="#00876c" points="1897.63,-2065.3 1897.63,-2087.51 1779.48,-2098.41 1617.41,-2098.41 1499.26,-2087.51 1499.26,-2065.3 1617.41,-2054.41 1779.48,-2054.41 1897.63,-2065.3"/>
<text text-anchor="middle" x="1698.45" y="-2071.36" font-family="Times,serif" font-size="14.00">License :: OSI Approved :: Qt Public License</text>
</g>
<!-- 68323&#45;&gt;68322 -->
<g id="edge109" class="edge">
<title>68323&#45;&gt;68322</title>
<path fill="none" stroke="#00876c" stroke-width="2" d="M1662.97,-2098.8C1659.83,-2100.75 1656.8,-2102.61 1653.89,-2104.38"/>
<polygon fill="#00876c" stroke="#00876c" stroke-width="2" points="1646.48,-2108.81 1652.75,-2099.82 1648.42,-2107.07 1654.81,-2103.25 1655.06,-2103.68 1655.32,-2104.11 1648.94,-2107.92 1657.37,-2107.54 1646.48,-2108.81"/>
</g>
<!-- 68324&#45;&gt;4131 -->
<g id="edge110" class="edge">
<title>68324&#45;&gt;4131</title>
<path fill="none" stroke="#00876c" stroke-width="2" d="M1497.83,-2365.27C1554.48,-2347.97 1600.18,-2311.44 1706.37,-2219.34"/>
<polygon fill="#00876c" stroke="#00876c" stroke-width="2" points="1712.95,-2213.63 1708.35,-2223.58 1711.35,-2215.69 1705.73,-2220.56 1705.4,-2220.19 1705.07,-2219.81 1710.69,-2214.93 1702.45,-2216.79 1712.95,-2213.63"/>
</g>
<!-- 68325 -->
<g id="node80" class="node">
<title>68325</title>
<polygon fill="none" stroke="#00876c" points="1700.28,-2533.2 1700.28,-2548.11 1645.65,-2558.66 1568.4,-2558.66 1513.77,-2548.11 1513.77,-2533.2 1568.4,-2522.66 1645.65,-2522.66 1700.28,-2533.2"/>
<polygon fill="none" stroke="#00876c" points="1704.28,-2529.9 1704.28,-2551.42 1646.03,-2562.66 1568.02,-2562.66 1509.77,-2551.42 1509.77,-2529.9 1568.02,-2518.66 1646.03,-2518.66 1704.28,-2529.9"/>
<text text-anchor="middle" x="1607.02" y="-2535.61" font-family="Times,serif" font-size="14.00">pypi:License :: QPL</text>
</g>
<!-- 68325&#45;&gt;4131 -->
<g id="edge111" class="edge">
<title>68325&#45;&gt;4131</title>
<path fill="none" stroke="#00876c" stroke-width="2" d="M1622.12,-2518.36C1673.22,-2442.29 1680.54,-2421.6 1734.73,-2222.86"/>
<polygon fill="#00876c" stroke="#00876c" stroke-width="2" points="1736.96,-2214.68 1738.67,-2225.51 1736.77,-2217.28 1734.82,-2224.46 1734.33,-2224.33 1733.85,-2224.19 1735.81,-2217.02 1729.99,-2223.14 1736.96,-2214.68"/>
</g>
<!-- 68326 -->
<g id="node81" class="node">
<title>68326</title>
<polygon fill="none" stroke="#00876c" points="1565.9,-2828.34 1565.9,-2843.26 1523.28,-2853.8 1463,-2853.8 1420.39,-2843.26 1420.39,-2828.34 1463,-2817.8 1523.28,-2817.8 1565.9,-2828.34"/>
<polygon fill="none" stroke="#00876c" points="1569.9,-2825.21 1569.9,-2846.39 1523.76,-2857.8 1462.52,-2857.8 1416.39,-2846.39 1416.39,-2825.21 1462.52,-2813.8 1523.76,-2813.8 1569.9,-2825.21"/>
<text text-anchor="middle" x="1493.14" y="-2830.75" font-family="Times,serif" font-size="14.00">License :: QPL</text>
</g>
<!-- 68326&#45;&gt;68325 -->
<g id="edge112" class="edge">
<title>68326&#45;&gt;68325</title>
<path fill="none" stroke="#00876c" stroke-width="2" d="M1506.01,-2813.53C1540.67,-2753.04 1547.72,-2733.29 1596.87,-2573.67"/>
<polygon fill="#00876c" stroke="#00876c" stroke-width="2" points="1599.45,-2565.28 1600.81,-2576.16 1599.17,-2567.88 1596.99,-2574.99 1596.51,-2574.84 1596.03,-2574.69 1598.22,-2567.59 1592.21,-2573.52 1599.45,-2565.28"/>
</g>
<!-- 68327 -->
<g id="node82" class="node">
<title>68327</title>
<polygon fill="none" stroke="#00876c" points="1355.44,-2172.99 1355.44,-2187.9 1269.66,-2198.45 1148.35,-2198.45 1062.57,-2187.9 1062.57,-2172.99 1148.35,-2162.45 1269.66,-2162.45 1355.44,-2172.99"/>
<polygon fill="none" stroke="#00876c" points="1359.44,-2169.45 1359.44,-2191.44 1269.9,-2202.45 1148.1,-2202.45 1058.57,-2191.44 1058.57,-2169.45 1148.1,-2158.45 1269.9,-2158.45 1359.44,-2169.45"/>
<text text-anchor="middle" x="1209" y="-2175.4" font-family="Times,serif" font-size="14.00">pypi:License :: Qt Public License</text>
</g>
<!-- 68327&#45;&gt;4131 -->
<g id="edge113" class="edge">
<title>68327&#45;&gt;4131</title>
<path fill="none" stroke="#00876c" stroke-width="2" d="M1259.45,-2202.92C1424.47,-2275.6 1457.63,-2276.16 1675.61,-2207.84"/>
<polygon fill="#00876c" stroke="#00876c" stroke-width="2" points="1683.8,-2205.27 1675.61,-2212.56 1681.51,-2206.51 1674.41,-2208.74 1674.26,-2208.26 1674.11,-2207.79 1681.21,-2205.56 1672.92,-2203.97 1683.8,-2205.27"/>
</g>
<!-- 68328 -->
<g id="node83" class="node">
<title>68328</title>
<polygon fill="none" stroke="#00876c" points="844.49,-2130.03 844.49,-2144.94 770.72,-2155.48 666.39,-2155.48 592.62,-2144.94 592.62,-2130.03 666.39,-2119.48 770.72,-2119.48 844.49,-2130.03"/>
<polygon fill="none" stroke="#00876c" points="848.49,-2126.56 848.49,-2148.41 771.01,-2159.48 666.11,-2159.48 588.62,-2148.41 588.62,-2126.56 666.11,-2115.48 771.01,-2115.48 848.49,-2126.56"/>
<text text-anchor="middle" x="718.56" y="-2132.43" font-family="Times,serif" font-size="14.00">License :: Qt Public License</text>
</g>
<!-- 68328&#45;&gt;68327 -->
<g id="edge114" class="edge">
<title>68328&#45;&gt;68327</title>
<path fill="none" stroke="#00876c" stroke-width="2" d="M766.49,-2159.95C863.46,-2204.3 902.59,-2210.75 1066.2,-2195.27"/>
<polygon fill="#00876c" stroke="#00876c" stroke-width="2" points="1074.74,-2194.45 1065.21,-2199.88 1072.23,-2195.19 1064.83,-2195.9 1064.78,-2195.4 1064.73,-2194.91 1072.14,-2194.19 1064.35,-2190.92 1074.74,-2194.45"/>
</g>
<!-- 68329 -->
<g id="node84" class="node">
<title>68329</title>
<polygon fill="none" stroke="#00876c" points="1392.77,-2259.08 1392.77,-2273.99 1290.45,-2284.53 1145.73,-2284.53 1043.4,-2273.99 1043.4,-2259.08 1145.73,-2248.53 1290.45,-2248.53 1392.77,-2259.08"/>
<polygon fill="none" stroke="#00876c" points="1396.77,-2255.47 1396.77,-2277.6 1290.65,-2288.53 1145.52,-2288.53 1039.4,-2277.6 1039.4,-2255.47 1145.52,-2244.53 1290.65,-2244.53 1396.77,-2255.47"/>
<text text-anchor="middle" x="1218.09" y="-2261.48" font-family="Times,serif" font-size="14.00">pypi:License :: Qt Public License (QPL)</text>
</g>
<!-- 68329&#45;&gt;4131 -->
<g id="edge115" class="edge">
<title>68329&#45;&gt;4131</title>
<path fill="none" stroke="#00876c" stroke-width="2" d="M1301.13,-2287.91C1440.53,-2321.43 1481.59,-2309.78 1688.47,-2212.53"/>
<polygon fill="#00876c" stroke="#00876c" stroke-width="2" points="1696.25,-2208.87 1689.11,-2217.2 1694.14,-2210.41 1687.41,-2213.58 1687.2,-2213.13 1686.98,-2212.68 1693.71,-2209.51 1685.28,-2209.06 1696.25,-2208.87"/>
</g>
<!-- 68330 -->
<g id="node85" class="node">
<title>68330</title>
<polygon fill="none" stroke="#00876c" points="909.16,-2379.71 909.16,-2394.62 818.84,-2405.16 691.1,-2405.16 600.78,-2394.62 600.78,-2379.71 691.1,-2369.16 818.84,-2369.16 909.16,-2379.71"/>
<polygon fill="none" stroke="#00876c" points="913.16,-2376.15 913.16,-2398.18 819.07,-2409.16 690.87,-2409.16 596.78,-2398.18 596.78,-2376.15 690.87,-2365.16 819.07,-2365.16 913.16,-2376.15"/>
<text text-anchor="middle" x="754.97" y="-2382.11" font-family="Times,serif" font-size="14.00">License :: Qt Public License (QPL)</text>
</g>
<!-- 68330&#45;&gt;68329 -->
<g id="edge116" class="edge">
<title>68330&#45;&gt;68329</title>
<path fill="none" stroke="#00876c" stroke-width="2" d="M913.56,-2381.69C966.65,-2370.86 1029.13,-2346.05 1154.65,-2293.28"/>
<polygon fill="#00876c" stroke="#00876c" stroke-width="2" points="1162.74,-2289.87 1155.27,-2297.9 1160.57,-2291.33 1153.72,-2294.21 1153.52,-2293.75 1153.33,-2293.29 1160.18,-2290.41 1151.78,-2289.6 1162.74,-2289.87"/>
</g>
<!-- 68331 -->
<g id="node86" class="node">
<title>68331</title>
<polygon fill="none" stroke="#00876c" points="1645.66,-2481.17 1645.66,-2496.08 1575.13,-2506.63 1475.39,-2506.63 1404.87,-2496.08 1404.87,-2481.17 1475.39,-2470.63 1575.13,-2470.63 1645.66,-2481.17"/>
<polygon fill="none" stroke="#00876c" points="1649.66,-2477.73 1649.66,-2499.53 1575.43,-2510.63 1475.1,-2510.63 1400.87,-2499.53 1400.87,-2477.73 1475.1,-2466.63 1575.43,-2466.63 1649.66,-2477.73"/>
<text text-anchor="middle" x="1525.26" y="-2483.58" font-family="Times,serif" font-size="14.00">pypi:OSI Approved :: QPL</text>
</g>
<!-- 68331&#45;&gt;4131 -->
<g id="edge117" class="edge">
<title>68331&#45;&gt;4131</title>
<path fill="none" stroke="#00876c" stroke-width="2" d="M1555.78,-2466.19C1626.89,-2412.93 1641.03,-2390.55 1726.38,-2222.29"/>
<polygon fill="#00876c" stroke="#00876c" stroke-width="2" points="1730.33,-2214.5 1729.82,-2225.45 1729.61,-2217.01 1726.25,-2223.65 1725.81,-2223.42 1725.36,-2223.19 1728.72,-2216.56 1721.79,-2221.38 1730.33,-2214.5"/>
</g>
<!-- 68332 -->
<g id="node87" class="node">
<title>68332</title>
<polygon fill="none" stroke="#00876c" points="1202.6,-2724.73 1202.6,-2739.64 1144.08,-2750.18 1061.32,-2750.18 1002.8,-2739.64 1002.8,-2724.73 1061.32,-2714.18 1144.08,-2714.18 1202.6,-2724.73"/>
<polygon fill="none" stroke="#00876c" points="1206.6,-2721.38 1206.6,-2742.98 1144.43,-2754.18 1060.96,-2754.18 998.8,-2742.98 998.8,-2721.38 1060.96,-2710.18 1144.43,-2710.18 1206.6,-2721.38"/>
<text text-anchor="middle" x="1102.7" y="-2727.13" font-family="Times,serif" font-size="14.00">OSI Approved :: QPL</text>
</g>
<!-- 68332&#45;&gt;68331 -->
<g id="edge118" class="edge">
<title>68332&#45;&gt;68331</title>
<path fill="none" stroke="#00876c" stroke-width="2" d="M1184.3,-2716.97C1281.26,-2695.77 1319.52,-2666.39 1491.13,-2518.14"/>
<polygon fill="#00876c" stroke="#00876c" stroke-width="2" points="1497.56,-2512.59 1492.94,-2522.53 1495.95,-2514.64 1490.32,-2519.5 1489.99,-2519.13 1489.67,-2518.75 1495.29,-2513.89 1487.05,-2515.72 1497.56,-2512.59"/>
</g>
<!-- 68333 -->
<g id="node88" class="node">
<title>68333</title>
<polygon fill="none" stroke="#00876c" points="2088.97,-2531.64 2088.97,-2546.55 1987.29,-2557.09 1843.49,-2557.09 1741.81,-2546.55 1741.81,-2531.64 1843.49,-2521.09 1987.29,-2521.09 2088.97,-2531.64"/>
<polygon fill="none" stroke="#00876c" points="2092.97,-2528.03 2092.97,-2550.16 1987.5,-2561.09 1843.28,-2561.09 1737.81,-2550.16 1737.81,-2528.03 1843.28,-2517.09 1987.5,-2517.09 2092.97,-2528.03"/>
<text text-anchor="middle" x="1915.39" y="-2534.04" font-family="Times,serif" font-size="14.00">pypi:OSI Approved :: Qt Public License</text>
</g>
<!-- 68333&#45;&gt;4131 -->
<g id="edge119" class="edge">
<title>68333&#45;&gt;4131</title>
<path fill="none" stroke="#00876c" stroke-width="2" d="M1900.14,-2516.83C1849.11,-2441.9 1839.59,-2421.12 1759.51,-2222.49"/>
<polygon fill="#00876c" stroke="#00876c" stroke-width="2" points="1756.31,-2214.53 1764.22,-2222.13 1757.73,-2216.72 1760.51,-2223.62 1760.05,-2223.81 1759.58,-2224 1756.8,-2217.1 1755.87,-2225.49 1756.31,-2214.53"/>
</g>
<!-- 68334 -->
<g id="node89" class="node">
<title>68334</title>
<polygon fill="none" stroke="#00876c" points="2142.01,-2999.9 2142.01,-3014.81 2052.34,-3025.35 1925.52,-3025.35 1835.85,-3014.81 1835.85,-2999.9 1925.52,-2989.35 2052.34,-2989.35 2142.01,-2999.9"/>
<polygon fill="none" stroke="#00876c" points="2146.01,-2996.34 2146.01,-3018.36 2052.57,-3029.35 1925.29,-3029.35 1831.85,-3018.36 1831.85,-2996.34 1925.29,-2985.35 2052.57,-2985.35 2146.01,-2996.34"/>
<text text-anchor="middle" x="1988.93" y="-3002.3" font-family="Times,serif" font-size="14.00">OSI Approved :: Qt Public License</text>
</g>
<!-- 68334&#45;&gt;68333 -->
<g id="edge120" class="edge">
<title>68334&#45;&gt;68333</title>
<path fill="none" stroke="#00876c" stroke-width="2" d="M1986.71,-2984.86C1975.17,-2868.74 1971.84,-2848.52 1921.46,-2572.35"/>
<polygon fill="#00876c" stroke="#00876c" stroke-width="2" points="1919.93,-2563.96 1926.15,-2572.99 1920.88,-2566.4 1922.22,-2573.71 1921.72,-2573.8 1921.23,-2573.89 1919.9,-2566.58 1917.3,-2574.61 1919.93,-2563.96"/>
</g>
<!-- 68335 -->
<g id="node90" class="node">
<title>68335</title>
<polygon fill="none" stroke="#00876c" points="2313.89,-2002.18 2313.89,-2017.09 2195.66,-2027.64 2028.45,-2027.64 1910.22,-2017.09 1910.22,-2002.18 2028.45,-1991.64 2195.66,-1991.64 2313.89,-2002.18"/>
<polygon fill="none" stroke="#00876c" points="2317.89,-1998.52 2317.89,-2020.75 2195.84,-2031.64 2028.28,-2031.64 1906.22,-2020.75 1906.22,-1998.52 2028.28,-1987.64 2195.84,-1987.64 2317.89,-1998.52"/>
<text text-anchor="middle" x="2112.06" y="-2004.59" font-family="Times,serif" font-size="14.00">pypi:OSI Approved :: Qt Public License (QPL)</text>
</g>
<!-- 68335&#45;&gt;4131 -->
<g id="edge121" class="edge">
<title>68335&#45;&gt;4131</title>
<path fill="none" stroke="#00876c" stroke-width="2" d="M2092.08,-2031.78C1988.06,-2146.81 1964.2,-2165.63 1832.18,-2178.62"/>
<polygon fill="#00876c" stroke="#00876c" stroke-width="2" points="1823.64,-2179.43 1833.17,-2174 1826.14,-2178.69 1833.55,-2177.98 1833.59,-2178.48 1833.64,-2178.98 1826.24,-2179.68 1834.02,-2182.96 1823.64,-2179.43"/>
</g>
<!-- 68336 -->
<g id="node91" class="node">
<title>68336</title>
<polygon fill="none" stroke="#00876c" points="2855.46,-1874.37 2855.46,-1889.28 2749.24,-1899.82 2599.02,-1899.82 2492.79,-1889.28 2492.79,-1874.37 2599.02,-1863.82 2749.24,-1863.82 2855.46,-1874.37"/>
<polygon fill="none" stroke="#00876c" points="2859.46,-1870.75 2859.46,-1892.9 2749.44,-1903.82 2598.82,-1903.82 2488.79,-1892.9 2488.79,-1870.75 2598.82,-1859.82 2749.44,-1859.82 2859.46,-1870.75"/>
<text text-anchor="middle" x="2674.13" y="-1876.77" font-family="Times,serif" font-size="14.00">OSI Approved :: Qt Public License (QPL)</text>
</g>
<!-- 68336&#45;&gt;68335 -->
<g id="edge122" class="edge">
<title>68336&#45;&gt;68335</title>
<path fill="none" stroke="#00876c" stroke-width="2" d="M2637.6,-1904.12C2532.66,-1967.59 2491.35,-1984.19 2324.92,-1996.84"/>
<polygon fill="#00876c" stroke="#00876c" stroke-width="2" points="2316.21,-1997.49 2325.85,-1992.26 2318.73,-1996.8 2326.14,-1996.25 2326.18,-1996.75 2326.22,-1997.25 2318.8,-1997.8 2326.51,-2001.23 2316.21,-1997.49"/>
</g>
<!-- 68337&#45;&gt;4131 -->
<g id="edge123" class="edge">
<title>68337&#45;&gt;4131</title>
<path fill="none" stroke="#00876c" stroke-width="2" d="M1722.78,-2246.78C1726.31,-2240.86 1729.27,-2233.79 1733.08,-2222.64"/>
<polygon fill="#00876c" stroke="#00876c" stroke-width="2" points="1735.75,-2214.57 1736.88,-2225.47 1735.42,-2217.16 1733.08,-2224.22 1732.61,-2224.06 1732.13,-2223.9 1734.47,-2216.84 1728.34,-2222.65 1735.75,-2214.57"/>
</g>
<!-- 68338 -->
<g id="node93" class="node">
<title>68338</title>
<polygon fill="none" stroke="#00876c" points="1431.12,-1973.26 1431.12,-1988.17 1370.01,-1998.71 1283.58,-1998.71 1222.46,-1988.17 1222.46,-1973.26 1283.58,-1962.71 1370.01,-1962.71 1431.12,-1973.26"/>
<polygon fill="none" stroke="#00876c" points="1435.12,-1969.89 1435.12,-1991.54 1370.35,-2002.71 1283.23,-2002.71 1218.46,-1991.54 1218.46,-1969.89 1283.23,-1958.71 1370.35,-1958.71 1435.12,-1969.89"/>
<text text-anchor="middle" x="1326.79" y="-1975.66" font-family="Times,serif" font-size="14.00">pypi:Qt Public License</text>
</g>
<!-- 68338&#45;&gt;4131 -->
<g id="edge124" class="edge">
<title>68338&#45;&gt;4131</title>
<path fill="none" stroke="#00876c" stroke-width="2" d="M1347.76,-2003C1483.43,-2146.99 1510.06,-2168.48 1657.22,-2180.2"/>
<polygon fill="#00876c" stroke="#00876c" stroke-width="2" points="1665.6,-2180.84 1655.29,-2184.57 1663.01,-2181.15 1655.59,-2180.58 1655.63,-2180.08 1655.67,-2179.58 1663.08,-2180.15 1655.97,-2175.59 1665.6,-2180.84"/>
</g>
<!-- 68339 -->
<g id="node94" class="node">
<title>68339</title>
<polygon fill="none" stroke="#00876c" points="1076.02,-1837.13 1076.02,-1852.04 1026.91,-1862.58 957.46,-1862.58 908.35,-1852.04 908.35,-1837.13 957.46,-1826.58 1026.91,-1826.58 1076.02,-1837.13"/>
<polygon fill="none" stroke="#00876c" points="1080.02,-1833.89 1080.02,-1855.27 1027.34,-1866.58 957.03,-1866.58 904.35,-1855.27 904.35,-1833.89 957.03,-1822.58 1027.34,-1822.58 1080.02,-1833.89"/>
<text text-anchor="middle" x="992.18" y="-1839.53" font-family="Times,serif" font-size="14.00">Qt Public License</text>
</g>
<!-- 68339&#45;&gt;68338 -->
<g id="edge125" class="edge">
<title>68339&#45;&gt;68338</title>
<path fill="none" stroke="#00876c" stroke-width="2" d="M1015.24,-1866.95C1080.99,-1930.08 1104.71,-1943.67 1226.04,-1964.51"/>
<polygon fill="#00876c" stroke="#00876c" stroke-width="2" points="1234.5,-1965.95 1223.89,-1968.71 1231.89,-1966.01 1224.56,-1964.77 1224.64,-1964.27 1224.73,-1963.78 1232.06,-1965.03 1225.39,-1959.84 1234.5,-1965.95"/>
</g>
<!-- 68340 -->
<g id="node95" class="node">
<title>68340</title>
<polygon fill="none" stroke="#00876c" points="2061.04,-2337.98 2061.04,-2352.89 1983.37,-2363.43 1873.53,-2363.43 1795.87,-2352.89 1795.87,-2337.98 1873.53,-2327.43 1983.37,-2327.43 2061.04,-2337.98"/>
<polygon fill="none" stroke="#00876c" points="2065.04,-2334.48 2065.04,-2356.38 1983.64,-2367.43 1873.26,-2367.43 1791.87,-2356.38 1791.87,-2334.48 1873.26,-2323.43 1983.64,-2323.43 2065.04,-2334.48"/>
<text text-anchor="middle" x="1928.45" y="-2340.38" font-family="Times,serif" font-size="14.00">pypi:Qt Public License (QPL)</text>
</g>
<!-- 68340&#45;&gt;4131 -->
<g id="edge126" class="edge">
<title>68340&#45;&gt;4131</title>
<path fill="none" stroke="#00876c" stroke-width="2" d="M1877.94,-2322.99C1846.5,-2306.21 1826.91,-2285.36 1773.4,-2220.68"/>
<polygon fill="#00876c" stroke="#00876c" stroke-width="2" points="1767.89,-2214.01 1777.73,-2218.86 1769.91,-2215.67 1774.65,-2221.4 1774.26,-2221.72 1773.87,-2222.04 1769.14,-2216.31 1770.79,-2224.59 1767.89,-2214.01"/>
</g>
<!-- 68341 -->
<g id="node96" class="node">
<title>68341</title>
<polygon fill="none" stroke="#00876c" points="2376.29,-2595.92 2376.29,-2610.84 2310.63,-2621.38 2217.78,-2621.38 2152.12,-2610.84 2152.12,-2595.92 2217.78,-2585.38 2310.63,-2585.38 2376.29,-2595.92"/>
<polygon fill="none" stroke="#00876c" points="2380.29,-2592.51 2380.29,-2614.24 2310.95,-2625.38 2217.46,-2625.38 2148.12,-2614.24 2148.12,-2592.51 2217.46,-2581.38 2310.95,-2581.38 2380.29,-2592.51"/>
<text text-anchor="middle" x="2264.21" y="-2598.33" font-family="Times,serif" font-size="14.00">Qt Public License (QPL)</text>
</g>
<!-- 68341&#45;&gt;68340 -->
<g id="edge127" class="edge">
<title>68341&#45;&gt;68340</title>
<path fill="none" stroke="#00876c" stroke-width="2" d="M2213,-2581.67C2135.32,-2547.18 2107.06,-2521.82 1958.79,-2375.41"/>
<polygon fill="#00876c" stroke="#00876c" stroke-width="2" points="1952.91,-2369.6 1963.19,-2373.43 1955.09,-2371.05 1960.38,-2376.28 1960.03,-2376.63 1959.67,-2376.99 1954.38,-2371.76 1956.86,-2379.83 1952.91,-2369.6"/>
</g>
<!-- 68342&#45;&gt;4131 -->
<g id="edge128" class="edge">
<title>68342&#45;&gt;4131</title>
<path fill="none" stroke="#00876c" stroke-width="2" d="M1720.33,-1799.61C1742.33,-2032.21 1744.85,-2061.49 1744.87,-2148.51"/>
<polygon fill="#00876c" stroke="#00876c" stroke-width="2" points="1744.86,-2157.28 1740.37,-2147.28 1744.36,-2154.72 1744.37,-2147.28 1744.87,-2147.28 1745.37,-2147.28 1745.36,-2154.72 1749.37,-2147.28 1744.86,-2157.28"/>
</g>
<!-- 68343&#45;&gt;4131 -->
<g id="edge129" class="edge">
<title>68343&#45;&gt;4131</title>
<path fill="none" stroke="#00876c" stroke-width="2" d="M1642.81,-1900.29C1685.34,-2065.75 1693.37,-2094.35 1724.25,-2150.03"/>
<polygon fill="#00876c" stroke="#00876c" stroke-width="2" points="1728.44,-2157.49 1719.62,-2150.97 1726.75,-2155.5 1723.11,-2149.01 1723.54,-2148.77 1723.98,-2148.52 1727.62,-2155.01 1727.47,-2146.56 1728.44,-2157.49"/>
</g>
<!-- 68344&#45;&gt;4131 -->
<g id="edge130" class="edge">
<title>68344&#45;&gt;4131</title>
<path fill="none" stroke="#00876c" stroke-width="2" d="M1792.68,-1955.96C1783.38,-2079.64 1780.56,-2106.12 1761.83,-2149.32"/>
<polygon fill="#00876c" stroke="#00876c" stroke-width="2" points="1758.29,-2157.24 1758.26,-2146.27 1758.88,-2154.69 1761.92,-2147.91 1762.37,-2148.11 1762.83,-2148.31 1759.79,-2155.1 1766.48,-2149.95 1758.29,-2157.24"/>
</g>
</g>
</svg>
