<?xml version="1.0" encoding="UTF-8" standalone="no"?>
<!DOCTYPE svg PUBLIC "-//W3C//DTD SVG 1.1//EN"
 "http://www.w3.org/Graphics/SVG/1.1/DTD/svg11.dtd">
<!-- Generated by graphviz version 10.0.1 (0)
 -->
<!-- Pages: 1 -->
<svg width="1568pt" height="799pt"
 viewBox="0.00 0.00 1568.00 799.00" xmlns="http://www.w3.org/2000/svg" xmlns:xlink="http://www.w3.org/1999/xlink">
<g id="graph0" class="graph" transform="scale(1 1) rotate(0) translate(4 795)">
<polygon fill="white" stroke="none" points="-4,4 -4,-795 1564,-795 1564,4 -4,4"/>
<!-- 22664 -->
<g id="node1" class="node">
<title>22664</title>
<ellipse fill="none" stroke="#dac767" cx="159.22" cy="-221.79" rx="158.75" ry="28.99"/>
<text text-anchor="middle" x="159.22" y="-224.99" font-family="Times,serif" font-size="14.00" fill="gray">ScancodeData</text>
<text text-anchor="middle" x="159.22" y="-208.49" font-family="Times,serif" font-size="14.00" fill="gray">0d10d0b9373cf2f48235c7e2346c2302</text>
</g>
<!-- 22665 -->
<g id="node2" class="node">
<title>22665</title>
<polygon fill="none" stroke="black" points="664.97,-499.9 664.97,-514.82 586.98,-525.36 476.68,-525.36 398.69,-514.82 398.69,-499.9 476.68,-489.36 586.98,-489.36 664.97,-499.9"/>
<polygon fill="none" stroke="black" points="668.97,-496.41 668.97,-518.31 587.25,-529.36 476.41,-529.36 394.69,-518.31 394.69,-496.41 476.41,-485.36 587.25,-485.36 668.97,-496.41"/>
<text text-anchor="middle" x="531.83" y="-502.31" font-family="Times,serif" font-size="14.00">scancode:qt&#45;gpl&#45;exception&#45;1.0</text>
</g>
<!-- 22664&#45;&gt;22665 -->
<g id="edge1" class="edge">
<title>22664&#45;&gt;22665</title>
<path fill="none" stroke="#dac767" d="M179.18,-251C248.2,-351.05 270.33,-367.41 479.72,-479.52"/>
<polygon fill="#dac767" stroke="#dac767" points="478.03,-482.58 488.5,-484.21 481.33,-476.41 478.03,-482.58"/>
</g>
<!-- 47695 -->
<g id="node8" class="node">
<title>47695</title>
<polygon fill="none" stroke="#00876c" points="1173.09,-364.87 1173.09,-379.78 1085.36,-390.33 961.3,-390.33 873.57,-379.78 873.57,-364.87 961.3,-354.33 1085.36,-354.33 1173.09,-364.87"/>
<polygon fill="none" stroke="#00876c" points="1177.09,-361.32 1177.09,-383.33 1085.6,-394.33 961.06,-394.33 869.57,-383.33 869.57,-361.32 961.06,-350.33 1085.6,-350.33 1177.09,-361.32"/>
<text text-anchor="middle" x="1023.33" y="-367.28" font-family="Times,serif" font-size="14.00">metaeffekt:Qt&#45;Exception&#45;1.0&#45;GPL</text>
</g>
<!-- 22665&#45;&gt;47695 -->
<g id="edge2" class="edge">
<title>22665&#45;&gt;47695</title>
<path fill="none" stroke="#00876c" stroke-dasharray="5,2" d="M644.35,-522.09C770.78,-534.74 812.79,-513.61 980.99,-400.81"/>
<polygon fill="#00876c" stroke="#00876c" points="989.13,-395.34 983.34,-404.65 985.99,-397.45 980.83,-400.92 980.83,-400.92 980.83,-400.92 985.99,-397.45 978.32,-397.18 989.13,-395.34"/>
</g>
<!-- 22666 -->
<g id="node3" class="node">
<title>22666</title>
<polygon fill="none" stroke="black" points="360.06,-338.31 360.06,-353.22 305.11,-363.76 227.4,-363.76 172.44,-353.22 172.44,-338.31 227.4,-327.76 305.11,-327.76 360.06,-338.31"/>
<polygon fill="none" stroke="black" points="364.06,-335 364.06,-356.53 305.49,-367.76 227.02,-367.76 168.44,-356.53 168.44,-335 227.02,-323.76 305.49,-323.76 364.06,-335"/>
<text text-anchor="middle" x="266.25" y="-340.71" font-family="Times,serif" font-size="14.00">qt&#45;gpl&#45;exception&#45;1.0</text>
</g>
<!-- 22666&#45;&gt;22665 -->
<g id="edge3" class="edge">
<title>22666&#45;&gt;22665</title>
<path fill="none" stroke="black" stroke-width="2" d="M284.87,-368.2C331.03,-423.01 350.04,-435.75 464.65,-481.1"/>
<polygon fill="black" stroke="black" stroke-width="2" points="472.65,-484.26 461.7,-484.77 470.08,-483.78 463.17,-481.05 463.35,-480.59 463.53,-480.12 470.45,-482.85 465,-476.4 472.65,-484.26"/>
</g>
<!-- 27601 -->
<g id="node6" class="node">
<title>27601</title>
<polygon fill="none" stroke="#e18745" points="476.57,-662.95 476.57,-677.86 392.42,-688.41 273.4,-688.41 189.24,-677.86 189.24,-662.95 273.4,-652.41 392.42,-652.41 476.57,-662.95"/>
<polygon fill="none" stroke="#e18745" points="480.57,-659.42 480.57,-681.39 392.67,-692.41 273.15,-692.41 185.24,-681.39 185.24,-659.42 273.15,-648.41 392.67,-648.41 480.57,-659.42"/>
<text text-anchor="middle" x="332.91" y="-665.36" font-family="Times,serif" font-size="14.00">fossology:Qt&#45;GPL&#45;exception&#45;1.0</text>
</g>
<!-- 22666&#45;&gt;27601 -->
<g id="edge4" class="edge">
<title>22666&#45;&gt;27601</title>
<path fill="none" stroke="#e18745" stroke-width="2" d="M262.32,-368.16C237.42,-510.98 238.89,-527.71 312.01,-638.87"/>
<polygon fill="#e18745" stroke="#e18745" stroke-width="2" points="316.76,-646.07 307.5,-640.21 314.93,-644.21 310.84,-638 311.26,-637.73 311.67,-637.45 315.77,-643.66 315.01,-635.25 316.76,-646.07"/>
</g>
<!-- 47699 -->
<g id="node12" class="node">
<title>47699</title>
<polygon fill="none" stroke="#00876c" points="715.77,-197.85 715.77,-212.76 643.29,-223.3 540.8,-223.3 468.33,-212.76 468.33,-197.85 540.8,-187.3 643.29,-187.3 715.77,-197.85"/>
<polygon fill="none" stroke="#00876c" points="719.77,-194.39 719.77,-216.22 643.58,-227.3 540.51,-227.3 464.33,-216.22 464.33,-194.39 540.51,-183.3 643.58,-183.3 719.77,-194.39"/>
<polygon fill="none" stroke="#00876c" points="723.77,-190.93 723.77,-219.68 643.87,-231.3 540.22,-231.3 460.33,-219.68 460.33,-190.93 540.22,-179.3 643.87,-179.3 723.77,-190.93"/>
<text text-anchor="middle" x="592.05" y="-200.25" font-family="Times,serif" font-size="14.00">spdx:Qt&#45;GPL&#45;exception&#45;1.0</text>
</g>
<!-- 22666&#45;&gt;47699 -->
<g id="edge5" class="edge">
<title>22666&#45;&gt;47699</title>
<path fill="none" stroke="#00876c" stroke-width="2" d="M289.02,-323.72C348.5,-266.78 372.07,-252.84 485.43,-227.69"/>
<polygon fill="#00876c" stroke="#00876c" stroke-width="2" points="493.93,-225.82 485.13,-232.36 491.53,-226.86 484.27,-228.45 484.16,-227.97 484.06,-227.48 491.32,-225.88 483.2,-223.57 493.93,-225.82"/>
</g>
<!-- 22667 -->
<g id="node4" class="node">
<title>22667</title>
<polygon fill="none" stroke="black" points="598.63,-559.04 598.63,-573.96 540.11,-584.5 457.35,-584.5 398.82,-573.96 398.82,-559.04 457.35,-548.5 540.11,-548.5 598.63,-559.04"/>
<polygon fill="none" stroke="black" points="602.63,-555.7 602.63,-577.3 540.46,-588.5 456.99,-588.5 394.82,-577.3 394.82,-555.7 456.99,-544.5 540.46,-544.5 602.63,-555.7"/>
<text text-anchor="middle" x="498.73" y="-561.45" font-family="Times,serif" font-size="14.00">Qt GPL exception 1.0</text>
</g>
<!-- 22667&#45;&gt;22665 -->
<g id="edge6" class="edge">
<title>22667&#45;&gt;22665</title>
<path fill="none" stroke="#dac767" stroke-width="2" d="M505.05,-544.1C505.88,-542.44 506.83,-540.74 507.98,-538.91"/>
<polygon fill="#dac767" stroke="#dac767" stroke-width="2" points="512.99,-531.7 510.98,-542.48 511.94,-534.09 507.69,-540.2 507.28,-539.91 506.87,-539.63 511.12,-533.52 503.59,-537.34 512.99,-531.7"/>
</g>
<!-- 22667&#45;&gt;27601 -->
<g id="edge7" class="edge">
<title>22667&#45;&gt;27601</title>
<path fill="none" stroke="#e18745" stroke-width="2" d="M462.64,-588.97C416.91,-617.44 395.41,-630.84 377.45,-642.16"/>
<polygon fill="#e18745" stroke="#e18745" stroke-width="2" points="370.33,-646.65 376.38,-637.51 372.23,-644.86 378.52,-640.89 378.78,-641.31 379.05,-641.73 372.76,-645.7 381.19,-645.12 370.33,-646.65"/>
</g>
<!-- 27600 -->
<g id="node5" class="node">
<title>27600</title>
<ellipse fill="none" stroke="#e18745" cx="286.76" cy="-729.96" rx="156.62" ry="28.99"/>
<text text-anchor="middle" x="286.76" y="-733.16" font-family="Times,serif" font-size="14.00" fill="gray">Fossology</text>
<text text-anchor="middle" x="286.76" y="-716.66" font-family="Times,serif" font-size="14.00" fill="gray">5e3fa8379d4b561baffbaa979d764b57</text>
</g>
<!-- 27600&#45;&gt;27601 -->
<g id="edge8" class="edge">
<title>27600&#45;&gt;27601</title>
<path fill="none" stroke="#e18745" d="M304.65,-701.07C304.78,-700.92 304.91,-700.77 305.05,-700.61"/>
<polygon fill="#e18745" stroke="#e18745" points="307.04,-703.64 311.07,-693.84 301.81,-698.98 307.04,-703.64"/>
</g>
<!-- 47694 -->
<g id="node7" class="node">
<title>47694</title>
<ellipse fill="none" stroke="#00876c" cx="1399.82" cy="-94.61" rx="160.34" ry="28.99"/>
<text text-anchor="middle" x="1399.82" y="-97.81" font-family="Times,serif" font-size="14.00" fill="gray">MetaeffektLicense</text>
<text text-anchor="middle" x="1399.82" y="-81.31" font-family="Times,serif" font-size="14.00" fill="gray">6a49c454b0e0c213d1ddc1d79588dccb</text>
</g>
<!-- 47694&#45;&gt;47695 -->
<g id="edge9" class="edge">
<title>47694&#45;&gt;47695</title>
<path fill="none" stroke="#00876c" d="M1372.12,-123.65C1301.32,-197.19 1274.89,-215.56 1069.05,-343.85"/>
<polygon fill="#00876c" stroke="#00876c" points="1067.36,-340.78 1060.72,-349.04 1071.06,-346.72 1067.36,-340.78"/>
</g>
<!-- 47696 -->
<g id="node9" class="node">
<title>47696</title>
<polygon fill="none" stroke="#00876c" points="1469.54,-568.6 1469.54,-583.51 1408.75,-594.06 1322.78,-594.06 1261.98,-583.51 1261.98,-568.6 1322.78,-558.06 1408.75,-558.06 1469.54,-568.6"/>
<polygon fill="none" stroke="#00876c" points="1473.54,-565.23 1473.54,-586.88 1409.09,-598.06 1322.43,-598.06 1257.98,-586.88 1257.98,-565.23 1322.43,-554.06 1409.09,-554.06 1473.54,-565.23"/>
<text text-anchor="middle" x="1365.76" y="-571.01" font-family="Times,serif" font-size="14.00">Qt&#45;Exception&#45;1.0&#45;GPL</text>
</g>
<!-- 47696&#45;&gt;47695 -->
<g id="edge10" class="edge">
<title>47696&#45;&gt;47695</title>
<path fill="none" stroke="#00876c" stroke-width="2" d="M1341.8,-553.71C1277.25,-494.13 1253.81,-480.43 1081.21,-399.43"/>
<polygon fill="#00876c" stroke="#00876c" stroke-width="2" points="1073.46,-395.8 1084.43,-395.97 1076,-396.43 1082.73,-399.59 1082.52,-400.04 1082.31,-400.5 1075.57,-397.34 1080.61,-404.12 1073.46,-395.8"/>
</g>
<!-- 47697 -->
<g id="node10" class="node">
<title>47697</title>
<polygon fill="none" stroke="#00876c" points="846.29,-390.97 846.29,-405.88 730.98,-416.43 567.91,-416.43 452.6,-405.88 452.6,-390.97 567.91,-380.43 730.98,-380.43 846.29,-390.97"/>
<polygon fill="none" stroke="#00876c" points="850.29,-387.32 850.29,-409.53 731.16,-420.43 567.72,-420.43 448.6,-409.53 448.6,-387.32 567.72,-376.43 731.16,-376.43 850.29,-387.32"/>
<text text-anchor="middle" x="649.44" y="-393.38" font-family="Times,serif" font-size="14.00">metaeffekt:Qt Company Exception 1.0 (GPL)</text>
</g>
<!-- 47697&#45;&gt;47695 -->
<g id="edge11" class="edge">
<title>47697&#45;&gt;47695</title>
<path fill="none" stroke="#00876c" stroke-width="2" d="M805.96,-382.84C825.96,-380.93 843.09,-379.36 858.2,-378.07"/>
<polygon fill="#00876c" stroke="#00876c" stroke-width="2" points="866.94,-377.34 857.35,-382.65 864.43,-378.05 857.02,-378.67 856.98,-378.17 856.94,-377.67 864.35,-377.05 856.61,-373.68 866.94,-377.34"/>
</g>
<!-- 47698 -->
<g id="node11" class="node">
<title>47698</title>
<polygon fill="none" stroke="#00876c" points="844.05,-338.91 844.05,-353.82 755.67,-364.36 630.69,-364.36 542.31,-353.82 542.31,-338.91 630.69,-328.36 755.67,-328.36 844.05,-338.91"/>
<polygon fill="none" stroke="#00876c" points="848.05,-335.35 848.05,-357.37 755.91,-368.36 630.45,-368.36 538.31,-357.37 538.31,-335.35 630.45,-324.36 755.91,-324.36 848.05,-335.35"/>
<text text-anchor="middle" x="693.18" y="-341.31" font-family="Times,serif" font-size="14.00">Qt Company Exception 1.0 (GPL)</text>
</g>
<!-- 47698&#45;&gt;47697 -->
<g id="edge12" class="edge">
<title>47698&#45;&gt;47697</title>
<path fill="none" stroke="#00876c" stroke-width="2" d="M662.68,-368.76C662.55,-368.9 662.41,-369.04 662.29,-369.18"/>
<polygon fill="#00876c" stroke="#00876c" stroke-width="2" points="658.87,-373.97 661.02,-363.21 659.95,-371.59 664.27,-365.54 664.68,-365.83 665.09,-366.12 660.77,-372.17 668.34,-368.44 658.87,-373.97"/>
</g>
<!-- 47699&#45;&gt;47695 -->
<g id="edge13" class="edge">
<title>47699&#45;&gt;47695</title>
<path fill="none" stroke="#00876c" stroke-width="2" d="M723.98,-204.13C831.83,-208.06 869.2,-234.34 990.31,-342.68"/>
<polygon fill="#00876c" stroke="#00876c" stroke-width="2" points="996.59,-348.31 986.14,-344.99 994.35,-346.97 988.81,-342.01 989.14,-341.63 989.48,-341.26 995.02,-346.22 992.14,-338.28 996.59,-348.31"/>
</g>
<!-- 47700 -->
<g id="node13" class="node">
<title>47700</title>
<polygon fill="none" stroke="#00876c" points="1221.8,-10.22 1221.8,-25.13 1171.39,-35.68 1100.11,-35.68 1049.7,-25.13 1049.7,-10.22 1100.11,0.32 1171.39,0.32 1221.8,-10.22"/>
<text text-anchor="middle" x="1135.75" y="-12.63" font-family="Times,serif" font-size="14.00">GPL Qt Exception</text>
</g>
<!-- 47700&#45;&gt;47695 -->
<g id="edge14" class="edge">
<title>47700&#45;&gt;47695</title>
<path fill="none" stroke="#00876c" stroke-dasharray="5,2" d="M1136.49,-35.93C1140.86,-147.71 1136.38,-162.49 1040.64,-340.23"/>
<polygon fill="#00876c" stroke="#00876c" points="1035.99,-348.85 1036.78,-337.91 1037.79,-345.52 1040.74,-340.05 1040.74,-340.05 1040.74,-340.05 1037.79,-345.52 1044.7,-342.18 1035.99,-348.85"/>
</g>
<!-- 47701 -->
<g id="node14" class="node">
<title>47701</title>
<polygon fill="none" stroke="#00876c" points="1476.01,-339.98 1476.01,-354.89 1425.6,-365.44 1354.31,-365.44 1303.91,-354.89 1303.91,-339.98 1354.31,-329.44 1425.6,-329.44 1476.01,-339.98"/>
<text text-anchor="middle" x="1389.96" y="-342.39" font-family="Times,serif" font-size="14.00">Qt&#45;GPL&#45;exception</text>
</g>
<!-- 47701&#45;&gt;47695 -->
<g id="edge15" class="edge">
<title>47701&#45;&gt;47695</title>
<path fill="none" stroke="#00876c" stroke-dasharray="5,2" d="M1303.75,-352.53C1273.96,-354.41 1242.54,-356.56 1188.55,-360.41"/>
<polygon fill="#00876c" stroke="#00876c" points="1178.66,-361.12 1188.31,-355.92 1182.43,-360.85 1188.63,-360.41 1188.63,-360.41 1188.63,-360.41 1182.43,-360.85 1188.95,-364.9 1178.66,-361.12"/>
</g>
<!-- 47702 -->
<g id="node15" class="node">
<title>47702</title>
<polygon fill="none" stroke="#00876c" points="1346.61,-765.88 1346.61,-780.79 1262.45,-791.34 1143.43,-791.34 1059.28,-780.79 1059.28,-765.88 1143.43,-755.34 1262.45,-755.34 1346.61,-765.88"/>
<text text-anchor="middle" x="1202.94" y="-768.29" font-family="Times,serif" font-size="14.00">Qt Company GPL Exception 1.0</text>
</g>
<!-- 47702&#45;&gt;47695 -->
<g id="edge16" class="edge">
<title>47702&#45;&gt;47695</title>
<path fill="none" stroke="#00876c" stroke-dasharray="5,2" d="M1201.52,-754.95C1190.96,-620.43 1184.63,-605.62 1045.14,-403.85"/>
<polygon fill="#00876c" stroke="#00876c" points="1039.52,-395.73 1048.91,-401.39 1041.67,-398.84 1045.21,-403.95 1045.21,-403.95 1045.21,-403.95 1041.67,-398.84 1041.51,-406.51 1039.52,-395.73"/>
</g>
</g>
</svg>
