<?xml version="1.0" encoding="UTF-8" standalone="no"?>
<!DOCTYPE svg PUBLIC "-//W3C//DTD SVG 1.1//EN"
 "http://www.w3.org/Graphics/SVG/1.1/DTD/svg11.dtd">
<!-- Generated by graphviz version 10.0.1 (0)
 -->
<!-- Pages: 1 -->
<svg width="4916pt" height="3501pt"
 viewBox="0.00 0.00 4916.00 3501.00" xmlns="http://www.w3.org/2000/svg" xmlns:xlink="http://www.w3.org/1999/xlink">
<g id="graph0" class="graph" transform="scale(1 1) rotate(0) translate(4 3497)">
<polygon fill="white" stroke="none" points="-4,4 -4,-3497 4912,-3497 4912,4 -4,4"/>
<!-- 5 -->
<g id="node1" class="node">
<title>5</title>
<text text-anchor="start" x="3954.36" y="-1327.93" font-family="Times,serif" font-size="14.00">OSI: </text>
<text text-anchor="start" x="3983.61" y="-1327.93" font-family="Times,serif" font-weight="bold" font-size="14.00" fill="#8b0000">Rejected</text>
</g>
<!-- 4146 -->
<g id="node3" class="node">
<title>4146</title>
<ellipse fill="none" stroke="#dac767" cx="3640.57" cy="-1604.08" rx="157.15" ry="28.99"/>
<text text-anchor="middle" x="3640.57" y="-1607.28" font-family="Times,serif" font-size="14.00" fill="gray">SPDXLicense</text>
<text text-anchor="middle" x="3640.57" y="-1590.78" font-family="Times,serif" font-size="14.00" fill="gray">3b0afff548c62873c53496db9659e202</text>
</g>
<!-- 5&#45;&gt;4146 -->
<g id="edge1" class="edge">
<title>5&#45;&gt;4146</title>
<path fill="none" stroke="#dac767" d="M3980.67,-1349.74C3910.42,-1442.2 3893.47,-1456.36 3698.39,-1570.37"/>
<polygon fill="#dac767" stroke="#dac767" points="3696.84,-1567.22 3689.97,-1575.28 3700.37,-1573.26 3696.84,-1567.22"/>
</g>
<!-- 202 -->
<g id="node2" class="node">
<title>202</title>
<text text-anchor="start" x="3592.02" y="-1125.76" font-family="Times,serif" font-size="14.00">FSF: </text>
<text text-anchor="start" x="3622.02" y="-1125.76" font-family="Times,serif" font-weight="bold" font-size="14.00" fill="#8b0000">Not&#45;Libre</text>
</g>
<!-- 202&#45;&gt;4146 -->
<g id="edge2" class="edge">
<title>202&#45;&gt;4146</title>
<path fill="none" stroke="#dac767" d="M3643.8,-1147.58C3723.91,-1327.91 3726,-1344.43 3653.7,-1564.31"/>
<polygon fill="#dac767" stroke="#dac767" points="3650.47,-1562.91 3650.67,-1573.5 3657.12,-1565.1 3650.47,-1562.91"/>
</g>
<!-- 4147 -->
<g id="node4" class="node">
<title>4147</title>
<polygon fill="none" stroke="black" points="3023.98,-2140.34 3023.98,-2155.25 2975.19,-2165.79 2906.2,-2165.79 2857.42,-2155.25 2857.42,-2140.34 2906.2,-2129.79 2975.19,-2129.79 3023.98,-2140.34"/>
<polygon fill="none" stroke="black" points="3027.98,-2137.11 3027.98,-2158.48 2975.62,-2169.79 2905.78,-2169.79 2853.42,-2158.48 2853.42,-2137.11 2905.78,-2125.79 2975.62,-2125.79 3027.98,-2137.11"/>
<polygon fill="none" stroke="black" points="3031.98,-2133.88 3031.98,-2161.7 2976.05,-2173.79 2905.35,-2173.79 2849.42,-2161.7 2849.42,-2133.88 2905.35,-2121.79 2976.05,-2121.79 3031.98,-2133.88"/>
<text text-anchor="middle" x="2940.7" y="-2142.74" font-family="Times,serif" font-size="14.00">spdx:RHeCos&#45;1.1</text>
</g>
<!-- 4146&#45;&gt;4147 -->
<g id="edge3" class="edge">
<title>4146&#45;&gt;4147</title>
<path fill="none" stroke="#dac767" d="M3623.47,-1633.3C3471.73,-1892.18 3449.76,-1910.18 3001.03,-2119.66"/>
<polygon fill="#dac767" stroke="#dac767" points="2999.64,-2116.44 2992.06,-2123.85 3002.6,-2122.79 2999.64,-2116.44"/>
</g>
<!-- 12129 -->
<g id="node11" class="node">
<title>12129</title>
<polygon fill="none" stroke="#deb256" points="2587.04,-2134.58 2587.04,-2149.49 2554.8,-2160.04 2509.22,-2160.04 2476.98,-2149.49 2476.98,-2134.58 2509.22,-2124.04 2554.8,-2124.04 2587.04,-2134.58"/>
<text text-anchor="middle" x="2532.01" y="-2136.99" font-family="Times,serif" font-size="14.00">fsf:eCos11</text>
</g>
<!-- 4147&#45;&gt;12129 -->
<g id="edge4" class="edge">
<title>4147&#45;&gt;12129</title>
<path fill="none" stroke="#deb256" stroke-dasharray="5,2" d="M2885.47,-2169.83C2788.58,-2206.8 2755.93,-2203.41 2585.65,-2156.82"/>
<polygon fill="#deb256" stroke="#deb256" points="2576.21,-2154.23 2587.05,-2152.54 2579.86,-2155.23 2585.86,-2156.88 2585.86,-2156.88 2585.86,-2156.88 2579.86,-2155.23 2584.67,-2161.22 2576.21,-2154.23"/>
</g>
<!-- 16738 -->
<g id="node13" class="node">
<title>16738</title>
<polygon fill="none" stroke="black" points="3469.08,-2600.83 3469.08,-2615.74 3414.45,-2626.29 3337.2,-2626.29 3282.57,-2615.74 3282.57,-2600.83 3337.2,-2590.29 3414.45,-2590.29 3469.08,-2600.83"/>
<polygon fill="none" stroke="black" points="3473.08,-2597.53 3473.08,-2619.05 3414.83,-2630.29 3336.81,-2630.29 3278.57,-2619.05 3278.57,-2597.53 3336.81,-2586.29 3414.83,-2586.29 3473.08,-2597.53"/>
<text text-anchor="middle" x="3375.82" y="-2603.24" font-family="Times,serif" font-size="14.00">scancode:ecosrh&#45;1.1</text>
</g>
<!-- 4147&#45;&gt;16738 -->
<g id="edge5" class="edge">
<title>4147&#45;&gt;16738</title>
<path fill="none" stroke="#deb256" stroke-width="2" d="M2961.14,-2174.12C3030.42,-2254.06 3256.24,-2493.27 3342.23,-2578.1"/>
<polygon fill="#deb256" stroke="#deb256" stroke-width="2" points="3348.37,-2584.12 3338.08,-2580.33 3346.19,-2582.68 3340.88,-2577.47 3341.23,-2577.12 3341.58,-2576.76 3346.89,-2581.96 3344.38,-2573.9 3348.37,-2584.12"/>
</g>
<!-- 56121 -->
<g id="node34" class="node">
<title>56121</title>
<polygon fill="none" stroke="#379469" points="2900.45,-2864.79 2900.45,-2879.7 2817.91,-2890.25 2701.19,-2890.25 2618.66,-2879.7 2618.66,-2864.79 2701.19,-2854.25 2817.91,-2854.25 2900.45,-2864.79"/>
<polygon fill="none" stroke="#379469" points="2904.45,-2861.27 2904.45,-2883.22 2818.17,-2894.25 2700.94,-2894.25 2614.66,-2883.22 2614.66,-2861.27 2700.94,-2850.25 2818.17,-2850.25 2904.45,-2861.27"/>
<text text-anchor="middle" x="2759.55" y="-2867.2" font-family="Times,serif" font-size="14.00">metaeffekt:RHeCos License 1.1</text>
</g>
<!-- 4147&#45;&gt;56121 -->
<g id="edge6" class="edge">
<title>4147&#45;&gt;56121</title>
<path fill="none" stroke="#379469" stroke-width="2" d="M2939.54,-2174.13C2919.86,-2619.8 2916.34,-2645.24 2781.38,-2840.73"/>
<polygon fill="#379469" stroke="#379469" stroke-width="2" points="2776.45,-2847.87 2778.44,-2837.08 2777.5,-2845.47 2781.73,-2839.36 2782.14,-2839.64 2782.55,-2839.92 2778.32,-2846.04 2785.84,-2842.2 2776.45,-2847.87"/>
</g>
<!-- 4148 -->
<g id="node5" class="node">
<title>4148</title>
<polygon fill="none" stroke="black" points="3486.79,-2395.63 3486.79,-2410.54 3450.67,-2421.09 3399.57,-2421.09 3363.44,-2410.54 3363.44,-2395.63 3399.57,-2385.09 3450.67,-2385.09 3486.79,-2395.63"/>
<polygon fill="none" stroke="black" points="3490.79,-2392.63 3490.79,-2413.54 3451.24,-2425.09 3399,-2425.09 3359.44,-2413.54 3359.44,-2392.63 3399,-2381.09 3451.24,-2381.09 3490.79,-2392.63"/>
<text text-anchor="middle" x="3425.12" y="-2398.04" font-family="Times,serif" font-size="14.00">RHeCos&#45;1.1</text>
</g>
<!-- 4148&#45;&gt;4147 -->
<g id="edge7" class="edge">
<title>4148&#45;&gt;4147</title>
<path fill="none" stroke="black" stroke-width="2" d="M3382.57,-2385.48C3275.27,-2340.75 3242.04,-2322.56 2993.27,-2178.29"/>
<polygon fill="black" stroke="black" stroke-width="2" points="2985.67,-2173.89 2996.58,-2175.01 2988.14,-2174.74 2994.57,-2178.47 2994.32,-2178.9 2994.07,-2179.34 2987.64,-2175.6 2992.07,-2182.8 2985.67,-2173.89"/>
</g>
<!-- 33964 -->
<g id="node19" class="node">
<title>33964</title>
<polygon fill="none" stroke="#e18745" points="3925.96,-2195.69 3925.96,-2210.6 3865.49,-2221.15 3779.97,-2221.15 3719.51,-2210.6 3719.51,-2195.69 3779.97,-2185.15 3865.49,-2185.15 3925.96,-2195.69"/>
<polygon fill="none" stroke="#e18745" points="3929.96,-2192.33 3929.96,-2213.97 3865.83,-2225.15 3779.63,-2225.15 3715.51,-2213.97 3715.51,-2192.33 3779.63,-2181.15 3865.83,-2181.15 3929.96,-2192.33"/>
<text text-anchor="middle" x="3822.73" y="-2198.1" font-family="Times,serif" font-size="14.00">fossology:RHeCos&#45;1.1</text>
</g>
<!-- 4148&#45;&gt;33964 -->
<g id="edge8" class="edge">
<title>4148&#45;&gt;33964</title>
<path fill="none" stroke="#e18745" stroke-width="2" d="M3483.53,-2390.12C3685.87,-2344.85 3710.2,-2332.92 3796.45,-2233.69"/>
<polygon fill="#e18745" stroke="#e18745" stroke-width="2" points="3802,-2227.28 3798.85,-2237.78 3800.7,-2229.54 3795.83,-2235.16 3795.45,-2234.84 3795.07,-2234.51 3799.94,-2228.89 3792.05,-2231.89 3802,-2227.28"/>
</g>
<!-- 42221 -->
<g id="node32" class="node">
<title>42221</title>
<polygon fill="none" stroke="#379469" points="3697.48,-2833 3697.48,-2847.91 3648.37,-2858.46 3578.92,-2858.46 3529.81,-2847.91 3529.81,-2833 3578.92,-2822.46 3648.37,-2822.46 3697.48,-2833"/>
<polygon fill="none" stroke="#379469" points="3701.48,-2829.77 3701.48,-2851.15 3648.8,-2862.46 3578.5,-2862.46 3525.81,-2851.15 3525.81,-2829.77 3578.5,-2818.46 3648.8,-2818.46 3701.48,-2829.77"/>
<text text-anchor="middle" x="3613.65" y="-2835.41" font-family="Times,serif" font-size="14.00">cavil:RHeCos&#45;1.1</text>
</g>
<!-- 4148&#45;&gt;42221 -->
<g id="edge9" class="edge">
<title>4148&#45;&gt;42221</title>
<path fill="none" stroke="#379469" stroke-width="2" d="M3438.52,-2425.37C3581,-2662.4 3592.54,-2684.39 3609.24,-2807.12"/>
<polygon fill="#379469" stroke="#379469" stroke-width="2" points="3610.39,-2815.7 3604.6,-2806.39 3609.55,-2813.23 3608.56,-2805.86 3609.06,-2805.79 3609.55,-2805.73 3610.54,-2813.1 3613.52,-2805.19 3610.39,-2815.7"/>
</g>
<!-- 4149 -->
<g id="node6" class="node">
<title>4149</title>
<polygon fill="none" stroke="black" points="3333.98,-2332.8 3333.98,-2347.71 3245.93,-2358.26 3121.41,-2358.26 3033.36,-2347.71 3033.36,-2332.8 3121.41,-2322.26 3245.93,-2322.26 3333.98,-2332.8"/>
<polygon fill="none" stroke="black" points="3337.98,-2329.25 3337.98,-2351.26 3246.17,-2362.26 3121.17,-2362.26 3029.36,-2351.26 3029.36,-2329.25 3121.17,-2318.26 3246.17,-2318.26 3337.98,-2329.25"/>
<text text-anchor="middle" x="3183.67" y="-2335.21" font-family="Times,serif" font-size="14.00">Red Hat eCos Public License v1.1</text>
</g>
<!-- 4149&#45;&gt;4147 -->
<g id="edge10" class="edge">
<title>4149&#45;&gt;4147</title>
<path fill="none" stroke="#dac767" stroke-width="2" d="M3154.67,-2317.76C3111.42,-2284.17 3089.54,-2266.77 2982.3,-2181.05"/>
<polygon fill="#dac767" stroke="#dac767" stroke-width="2" points="2975.65,-2175.73 2986.27,-2178.46 2977.96,-2176.94 2983.77,-2181.59 2983.46,-2181.98 2983.15,-2182.37 2977.34,-2177.72 2980.65,-2185.49 2975.65,-2175.73"/>
</g>
<!-- 4149&#45;&gt;33964 -->
<g id="edge11" class="edge">
<title>4149&#45;&gt;33964</title>
<path fill="none" stroke="#e18745" stroke-width="2" d="M3338.38,-2336.39C3597.49,-2328.68 3640.91,-2315.72 3777.8,-2231.19"/>
<polygon fill="#e18745" stroke="#e18745" stroke-width="2" points="3784.89,-2226.8 3778.76,-2235.89 3782.97,-2228.57 3776.65,-2232.49 3776.39,-2232.06 3776.12,-2231.64 3782.45,-2227.72 3774.02,-2228.24 3784.89,-2226.8"/>
</g>
<!-- 4149&#45;&gt;56121 -->
<g id="edge12" class="edge">
<title>4149&#45;&gt;56121</title>
<path fill="none" stroke="#379469" stroke-dasharray="5,2" d="M3175.41,-2362.51C3050.66,-2698.7 3037.52,-2723.78 2811.71,-2844.55"/>
<polygon fill="#379469" stroke="#379469" points="2802.92,-2849.24 2809.62,-2840.56 2806.26,-2847.46 2811.74,-2844.53 2811.74,-2844.53 2811.74,-2844.53 2806.26,-2847.46 2813.86,-2848.5 2802.92,-2849.24"/>
</g>
<!-- 68355 -->
<g id="node43" class="node">
<title>68355</title>
<polygon fill="none" stroke="#00876c" points="3419.24,-1760.09 3419.24,-1775 3318.53,-1785.54 3176.11,-1785.54 3075.4,-1775 3075.4,-1760.09 3176.11,-1749.54 3318.53,-1749.54 3419.24,-1760.09"/>
<polygon fill="none" stroke="#00876c" points="3423.24,-1756.48 3423.24,-1778.6 3318.74,-1789.54 3175.9,-1789.54 3071.4,-1778.6 3071.4,-1756.48 3175.9,-1745.54 3318.74,-1745.54 3423.24,-1756.48"/>
<text text-anchor="middle" x="3247.32" y="-1762.49" font-family="Times,serif" font-size="14.00">spdx:Red Hat eCos Public License v1.1</text>
</g>
<!-- 4149&#45;&gt;68355 -->
<g id="edge13" class="edge">
<title>4149&#45;&gt;68355</title>
<path fill="none" stroke="#00876c" stroke-width="2" d="M3196.46,-2317.81C3317.78,-2104.63 3319.98,-2087.58 3254.86,-1800.68"/>
<polygon fill="#00876c" stroke="#00876c" stroke-width="2" points="3252.96,-1792.3 3259.56,-1801.05 3254.01,-1794.68 3255.66,-1801.94 3255.17,-1802.05 3254.68,-1802.16 3253.04,-1794.91 3250.78,-1803.04 3252.96,-1792.3"/>
</g>
<!-- 4150 -->
<g id="node7" class="node">
<title>4150</title>
<text text-anchor="middle" x="3874.85" y="-1105.78" font-family="Times,serif" font-size="14.00">$TEXT</text>
</g>
<!-- 4150&#45;&gt;4146 -->
<g id="edge14" class="edge">
<title>4150&#45;&gt;4146</title>
<path fill="none" stroke="#dac767" d="M3873.81,-1128.63C3862.75,-1316.79 3856.69,-1332.9 3670.68,-1566.33"/>
<polygon fill="#dac767" stroke="#dac767" points="3668.15,-1563.9 3664.65,-1573.9 3673.62,-1568.27 3668.15,-1563.9"/>
</g>
<!-- 4151 -->
<g id="node8" class="node">
<title>4151</title>
<text text-anchor="middle" x="4002.44" y="-853.38" font-family="Times,serif" font-size="14.00">$TEXT</text>
</g>
<!-- 4151&#45;&gt;4150 -->
<g id="edge15" class="edge">
<title>4151&#45;&gt;4150</title>
<path fill="none" stroke="#dac767" d="M4000.01,-876.4C3989.27,-953.91 3982.65,-966.93 3894.83,-1084.2"/>
<polygon fill="#dac767" stroke="#dac767" points="3892.18,-1081.89 3888.99,-1091.99 3897.78,-1086.09 3892.18,-1081.89"/>
</g>
<!-- 4152 -->
<g id="node9" class="node">
<title>4152</title>
<text text-anchor="middle" x="4039.45" y="-2013.42" font-family="Times,serif" font-size="14.00">http://ecos.sourceware.org/old&#45;license.html</text>
</g>
<!-- 4152&#45;&gt;4146 -->
<g id="edge16" class="edge">
<title>4152&#45;&gt;4146</title>
<path fill="none" stroke="#dac767" d="M4032,-2000.69C3959.2,-1827.33 3946.73,-1811.57 3691.52,-1638.56"/>
<polygon fill="#dac767" stroke="#dac767" points="3693.83,-1635.9 3683.59,-1633.19 3689.91,-1641.7 3693.83,-1635.9"/>
</g>
<!-- 16737 -->
<g id="node12" class="node">
<title>16737</title>
<ellipse fill="none" stroke="#deb256" cx="4116.06" cy="-2632.54" rx="155.56" ry="28.99"/>
<text text-anchor="middle" x="4116.06" y="-2635.74" font-family="Times,serif" font-size="14.00" fill="gray">ScancodeData</text>
<text text-anchor="middle" x="4116.06" y="-2619.24" font-family="Times,serif" font-size="14.00" fill="gray">b28f893884a93e6327a71fafd687946f</text>
</g>
<!-- 4152&#45;&gt;16737 -->
<g id="edge17" class="edge">
<title>4152&#45;&gt;16737</title>
<path fill="none" stroke="#deb256" d="M4047.26,-2036.04C4186.36,-2349.25 4192.7,-2370.17 4127.86,-2592.36"/>
<polygon fill="#deb256" stroke="#deb256" points="4124.6,-2591.07 4125.15,-2601.65 4131.32,-2593.03 4124.6,-2591.07"/>
</g>
<!-- 33963 -->
<g id="node18" class="node">
<title>33963</title>
<ellipse fill="none" stroke="#e18745" cx="4439.63" cy="-1998.07" rx="158.22" ry="28.99"/>
<text text-anchor="middle" x="4439.63" y="-2001.27" font-family="Times,serif" font-size="14.00" fill="gray">Fossology</text>
<text text-anchor="middle" x="4439.63" y="-1984.77" font-family="Times,serif" font-size="14.00" fill="gray">45274b91a7183cd4e42727a3d1ff67e0</text>
</g>
<!-- 4152&#45;&gt;33963 -->
<g id="edge18" class="edge">
<title>4152&#45;&gt;33963</title>
<path fill="none" stroke="#e18745" d="M4165.04,-2018.98C4229.22,-2019.07 4270.23,-2018.59 4302.97,-2016.78"/>
<polygon fill="#e18745" stroke="#e18745" points="4302.96,-2020.29 4312.72,-2016.18 4302.53,-2013.3 4302.96,-2020.29"/>
</g>
<!-- 5758 -->
<g id="node10" class="node">
<title>5758</title>
<text text-anchor="middle" x="4460.31" y="-2987.12" font-family="Times,serif" font-size="14.00">LicenseType Copyleft</text>
</g>
<!-- 5758&#45;&gt;16737 -->
<g id="edge19" class="edge">
<title>5758&#45;&gt;16737</title>
<path fill="none" stroke="#deb256" d="M4448.51,-2974.39C4378.05,-2868.43 4363.51,-2852.95 4156.85,-2668.85"/>
<polygon fill="#deb256" stroke="#deb256" points="4159.39,-2666.43 4149.59,-2662.39 4154.73,-2671.66 4159.39,-2666.43"/>
</g>
<!-- 16737&#45;&gt;16738 -->
<g id="edge20" class="edge">
<title>16737&#45;&gt;16738</title>
<path fill="none" stroke="#deb256" d="M4028.83,-2656.97C3872.44,-2698.42 3812.2,-2692.09 3464.84,-2625.44"/>
<polygon fill="#deb256" stroke="#deb256" points="3465.65,-2622.03 3455.17,-2623.58 3464.33,-2628.91 3465.65,-2622.03"/>
</g>
<!-- 16738&#45;&gt;4147 -->
<g id="edge21" class="edge">
<title>16738&#45;&gt;4147</title>
<path fill="none" stroke="#00876c" stroke-width="2" d="M3358.74,-2585.85C3294.62,-2511.15 3068.15,-2271.06 2978.03,-2181.68"/>
<polygon fill="#00876c" stroke="#00876c" stroke-width="2" points="2971.98,-2175.72 2982.26,-2179.53 2974.16,-2177.16 2979.45,-2182.38 2979.1,-2182.74 2978.75,-2183.09 2973.46,-2177.87 2975.94,-2185.94 2971.98,-2175.72"/>
</g>
<!-- 16738&#45;&gt;56121 -->
<g id="edge22" class="edge">
<title>16738&#45;&gt;56121</title>
<path fill="none" stroke="#379469" stroke-dasharray="5,2" d="M3354.22,-2630.64C3173.8,-2817.12 3135.81,-2848.54 2915.77,-2863.88"/>
<polygon fill="#379469" stroke="#379469" points="2906.03,-2864.53 2915.7,-2859.37 2909.8,-2864.28 2916,-2863.86 2916,-2863.86 2916,-2863.86 2909.8,-2864.28 2916.31,-2868.35 2906.03,-2864.53"/>
</g>
<!-- 16739 -->
<g id="node14" class="node">
<title>16739</title>
<polygon fill="none" stroke="black" points="3788.07,-2747.78 3788.07,-2762.7 3756.48,-2773.24 3711.82,-2773.24 3680.23,-2762.7 3680.23,-2747.78 3711.82,-2737.24 3756.48,-2737.24 3788.07,-2747.78"/>
<polygon fill="none" stroke="black" points="3792.07,-2744.9 3792.07,-2765.58 3757.13,-2777.24 3711.17,-2777.24 3676.23,-2765.58 3676.23,-2744.9 3711.17,-2733.24 3757.13,-2733.24 3792.07,-2744.9"/>
<text text-anchor="middle" x="3734.15" y="-2750.19" font-family="Times,serif" font-size="14.00">ecosrh&#45;1.1</text>
</g>
<!-- 16739&#45;&gt;16738 -->
<g id="edge23" class="edge">
<title>16739&#45;&gt;16738</title>
<path fill="none" stroke="black" stroke-width="2" d="M3677.91,-2743.84C3612.87,-2729.28 3577.45,-2712.74 3427.41,-2635.04"/>
<polygon fill="black" stroke="black" stroke-width="2" points="3420,-2631.2 3430.95,-2631.81 3422.5,-2631.94 3429.11,-2635.36 3428.88,-2635.8 3428.65,-2636.25 3422.04,-2632.83 3426.81,-2639.8 3420,-2631.2"/>
</g>
<!-- 16740 -->
<g id="node15" class="node">
<title>16740</title>
<polygon fill="none" stroke="black" points="3484.06,-3093.76 3484.06,-3108.68 3398.92,-3119.22 3278.53,-3119.22 3193.4,-3108.68 3193.4,-3093.76 3278.53,-3083.22 3398.92,-3083.22 3484.06,-3093.76"/>
<polygon fill="none" stroke="black" points="3488.06,-3090.23 3488.06,-3112.21 3399.17,-3123.22 3278.29,-3123.22 3189.4,-3112.21 3189.4,-3090.23 3278.29,-3079.22 3399.17,-3079.22 3488.06,-3090.23"/>
<text text-anchor="middle" x="3338.73" y="-3096.17" font-family="Times,serif" font-size="14.00">Red Hat eCos Public License 1.1</text>
</g>
<!-- 16740&#45;&gt;16738 -->
<g id="edge24" class="edge">
<title>16740&#45;&gt;16738</title>
<path fill="none" stroke="#deb256" stroke-width="2" d="M3349.37,-3078.86C3417.02,-2936.23 3417.76,-2917.8 3380.34,-2641.56"/>
<polygon fill="#deb256" stroke="#deb256" stroke-width="2" points="3379.21,-2633.19 3385.01,-2642.5 3380.05,-2635.67 3381.05,-2643.03 3380.55,-2643.1 3380.05,-2643.17 3379.05,-2635.8 3376.09,-2643.71 3379.21,-2633.19"/>
</g>
<!-- 68354 -->
<g id="node42" class="node">
<title>68354</title>
<polygon fill="none" stroke="#00876c" points="3143.33,-2667.07 3143.33,-2681.98 3035.16,-2692.53 2882.19,-2692.53 2774.02,-2681.98 2774.02,-2667.07 2882.19,-2656.53 3035.16,-2656.53 3143.33,-2667.07"/>
<polygon fill="none" stroke="#00876c" points="3147.33,-2663.44 3147.33,-2685.61 3035.36,-2696.53 2881.99,-2696.53 2770.02,-2685.61 2770.02,-2663.44 2881.99,-2652.53 3035.36,-2652.53 3147.33,-2663.44"/>
<text text-anchor="middle" x="2958.68" y="-2669.48" font-family="Times,serif" font-size="14.00">scancode:Red Hat eCos Public License 1.1</text>
</g>
<!-- 16740&#45;&gt;68354 -->
<g id="edge25" class="edge">
<title>16740&#45;&gt;68354</title>
<path fill="none" stroke="#00876c" stroke-width="2" d="M3313.65,-3078.97C3210.88,-2987.54 3192.36,-2965.8 2983.48,-2705.45"/>
<polygon fill="#00876c" stroke="#00876c" stroke-width="2" points="2978.14,-2698.79 2987.9,-2703.77 2980.13,-2700.47 2984.78,-2706.27 2984.39,-2706.59 2984,-2706.9 2979.35,-2701.1 2980.88,-2709.4 2978.14,-2698.79"/>
</g>
<!-- 16741 -->
<g id="node16" class="node">
<title>16741</title>
<text text-anchor="middle" x="4673.17" y="-2842.01" font-family="Times,serif" font-size="14.00">http://ecos.sourceware.org/old&#45;license.html</text>
</g>
<!-- 16741&#45;&gt;16737 -->
<g id="edge26" class="edge">
<title>16741&#45;&gt;16737</title>
<path fill="none" stroke="#deb256" d="M4615.15,-2829.17C4504.27,-2794.59 4459.57,-2776.76 4190.23,-2663.69"/>
<polygon fill="#deb256" stroke="#deb256" points="4191.7,-2660.51 4181.12,-2659.86 4188.99,-2666.96 4191.7,-2660.51"/>
</g>
<!-- 16742 -->
<g id="node17" class="node">
<title>16742</title>
<text text-anchor="middle" x="4547.65" y="-2638.3" font-family="Times,serif" font-size="14.00">$TEXT</text>
</g>
<!-- 16742&#45;&gt;16737 -->
<g id="edge27" class="edge">
<title>16742&#45;&gt;16737</title>
<path fill="none" stroke="#deb256" d="M4519.07,-2649.86C4430.42,-2669.76 4399.76,-2671.88 4251.88,-2651.83"/>
<polygon fill="#deb256" stroke="#deb256" points="4252.44,-2648.37 4242.06,-2650.49 4251.49,-2655.31 4252.44,-2648.37"/>
</g>
<!-- 33963&#45;&gt;33964 -->
<g id="edge28" class="edge">
<title>33963&#45;&gt;33964</title>
<path fill="none" stroke="#e18745" d="M4399.72,-2026.45C4268.27,-2119.06 4230.35,-2131.76 3919.86,-2186.22"/>
<polygon fill="#e18745" stroke="#e18745" points="3919.44,-2182.74 3910.19,-2187.92 3920.65,-2189.64 3919.44,-2182.74"/>
</g>
<!-- 33965 -->
<g id="node20" class="node">
<title>33965</title>
<text text-anchor="middle" x="4879.8" y="-1854.56" font-family="Times,serif" font-size="14.00">$TEXT</text>
</g>
<!-- 33965&#45;&gt;33963 -->
<g id="edge29" class="edge">
<title>33965&#45;&gt;33963</title>
<path fill="none" stroke="#e18745" d="M4851.26,-1876.66C4766.01,-1927.16 4736.11,-1938.48 4558.99,-1974.33"/>
<polygon fill="#e18745" stroke="#e18745" points="4558.54,-1970.85 4549.43,-1976.26 4559.93,-1977.71 4558.54,-1970.85"/>
</g>
<!-- 35433 -->
<g id="node21" class="node">
<title>35433</title>
<text text-anchor="middle" x="1104.86" y="-1679.2" font-family="Times,serif" font-size="14.00">LicenseTag (ScopedLicenseTag &quot;OrtLicenseCategorization&quot; &quot;include&#45;in&#45;notice&#45;file&quot; NoLicenseTagText)</text>
</g>
<!-- 39829 -->
<g id="node24" class="node">
<title>39829</title>
<ellipse fill="none" stroke="#d43d51" cx="2007.24" cy="-2064.95" rx="157.68" ry="28.99"/>
<text text-anchor="middle" x="2007.24" y="-2068.15" font-family="Times,serif" font-size="14.00" fill="gray">OrtLicenseCategorization</text>
<text text-anchor="middle" x="2007.24" y="-2051.65" font-family="Times,serif" font-size="14.00" fill="gray">3949e2696400cb0ea7683f62f69d5cc0</text>
</g>
<!-- 35433&#45;&gt;39829 -->
<g id="edge30" class="edge">
<title>35433&#45;&gt;39829</title>
<path fill="none" stroke="#d43d51" d="M1125.76,-1701.95C1348.66,-1890.57 1377.27,-1905.59 1902.48,-2038.51"/>
<polygon fill="#d43d51" stroke="#d43d51" points="1901.38,-2041.84 1911.93,-2040.9 1903.1,-2035.05 1901.38,-2041.84"/>
</g>
<!-- 35443 -->
<g id="node22" class="node">
<title>35443</title>
<text text-anchor="middle" x="1168.45" y="-2242.44" font-family="Times,serif" font-size="14.00">LicenseTag (ScopedLicenseTag &quot;OrtLicenseCategorization&quot; &quot;copyleft&quot; NoLicenseTagText)</text>
</g>
<!-- 35443&#45;&gt;39829 -->
<g id="edge31" class="edge">
<title>35443&#45;&gt;39829</title>
<path fill="none" stroke="#d43d51" d="M1370.96,-2229.49C1482.41,-2213.79 1596.95,-2182.4 1910.22,-2092.75"/>
<polygon fill="#d43d51" stroke="#d43d51" points="1910.87,-2096.2 1919.52,-2090.09 1908.94,-2089.47 1910.87,-2096.2"/>
</g>
<!-- 35444 -->
<g id="node23" class="node">
<title>35444</title>
<text text-anchor="middle" x="986.94" y="-1968.23" font-family="Times,serif" font-size="14.00">LicenseTag (ScopedLicenseTag &quot;OrtLicenseCategorization&quot; &quot;include&#45;source&#45;code&#45;offer&#45;in&#45;notice&#45;file&quot; NoLicenseTagText)</text>
</g>
<!-- 35444&#45;&gt;39829 -->
<g id="edge32" class="edge">
<title>35444&#45;&gt;39829</title>
<path fill="none" stroke="#d43d51" d="M1042.23,-1991.23C1278.67,-2067.43 1334.69,-2074 1838.33,-2067.34"/>
<polygon fill="#d43d51" stroke="#d43d51" points="1838.08,-2070.85 1848.04,-2067.21 1837.99,-2063.85 1838.08,-2070.85"/>
</g>
<!-- 39829&#45;&gt;4147 -->
<g id="edge33" class="edge">
<title>39829&#45;&gt;4147</title>
<path fill="none" stroke="#d43d51" d="M2064.57,-2092.39C2459.79,-2281.15 2499.74,-2287.38 2865.99,-2171.58"/>
<polygon fill="#d43d51" stroke="#d43d51" points="2867,-2174.93 2875.48,-2168.57 2864.89,-2168.25 2867,-2174.93"/>
</g>
<!-- 40001 -->
<g id="node25" class="node">
<title>40001</title>
<text text-anchor="middle" x="3238.46" y="-1371.62" font-family="Times,serif" font-size="14.00">LicenseTag (ScopedLicenseTag &quot;OrtLicenseCategorization&quot; &quot;property:include&#45;in&#45;notice&#45;file&quot; (LicenseTagDescription &quot;Whether the license includes a notice obligation or similar which can be fulfilled by adding the relevant copyright notices and the license text into the project/product notice file.&quot;))</text>
</g>
<!-- 40919 -->
<g id="node30" class="node">
<title>40919</title>
<ellipse fill="none" stroke="#e06f45" cx="2645.37" cy="-1443.15" rx="157.68" ry="28.99"/>
<text text-anchor="middle" x="2645.37" y="-1446.35" font-family="Times,serif" font-size="14.00" fill="gray">OrtLicenseCategorization</text>
<text text-anchor="middle" x="2645.37" y="-1429.85" font-family="Times,serif" font-size="14.00" fill="gray">2aa7a7431326a539efb6b3a72625f170</text>
</g>
<!-- 40001&#45;&gt;40919 -->
<g id="edge34" class="edge">
<title>40001&#45;&gt;40919</title>
<path fill="none" stroke="#e06f45" d="M2837.47,-1394.65C2811.16,-1401.05 2782.05,-1408.34 2749.54,-1416.57"/>
<polygon fill="#e06f45" stroke="#e06f45" points="2748.68,-1413.18 2739.85,-1419.03 2750.4,-1419.97 2748.68,-1413.18"/>
</g>
<!-- 40002 -->
<g id="node26" class="node">
<title>40002</title>
<text text-anchor="middle" x="2096.21" y="-12.46" font-family="Times,serif" font-size="14.00">LicenseTag (ScopedLicenseTag &quot;OrtLicenseCategorization&quot; &quot;include&#45;in&#45;notice&#45;file&quot; (LicenseTagDescription &quot;Same as above, as a temporary work&#45;around for the category name not being configurable in ORT reports, see https://github.com/oss&#45;review&#45;toolkit/ort/issues/8220.&quot;))</text>
</g>
<!-- 40002&#45;&gt;40919 -->
<g id="edge35" class="edge">
<title>40002&#45;&gt;40919</title>
<path fill="none" stroke="#e06f45" d="M2107.2,-35.48C2342.66,-420.7 2350.15,-440.47 2633.46,-1402.7"/>
<polygon fill="#e06f45" stroke="#e06f45" points="2630.09,-1403.65 2636.27,-1412.26 2636.81,-1401.68 2630.09,-1403.65"/>
</g>
<!-- 40006 -->
<g id="node27" class="node">
<title>40006</title>
<text text-anchor="middle" x="1439.41" y="-146.87" font-family="Times,serif" font-size="14.00">LicenseTag (ScopedLicenseTag &quot;OrtLicenseCategorization&quot; &quot;property:distribute&#45;source&#45;code&quot; (LicenseTagDescription &quot;This property indicates that the license requires that the source code of the OSS is either distributed, or offered to distribute, in connection with the software delivery.&quot;))</text>
</g>
<!-- 40006&#45;&gt;40919 -->
<g id="edge36" class="edge">
<title>40006&#45;&gt;40919</title>
<path fill="none" stroke="#e06f45" d="M1465,-169.71C1896.13,-469.59 1915.31,-491.05 2616.17,-1405.07"/>
<polygon fill="#e06f45" stroke="#e06f45" points="2613.36,-1407.16 2622.23,-1412.97 2618.92,-1402.9 2613.36,-1407.16"/>
</g>
<!-- 40022 -->
<g id="node28" class="node">
<title>40022</title>
<text text-anchor="middle" x="1475.53" y="-1371.73" font-family="Times,serif" font-size="14.00">LicenseTag (ScopedLicenseTag &quot;OrtLicenseCategorization&quot; &quot;copyleft&#45;file&#45;level&quot; (LicenseTagDescription &quot;Open source license that requires you to license modifications made into the same file with the same license as the original open source file. This also applies, if you add code from this file to your own file. Example: MPL&#45;2.0.&quot;))</text>
</g>
<!-- 40022&#45;&gt;40919 -->
<g id="edge37" class="edge">
<title>40022&#45;&gt;40919</title>
<path fill="none" stroke="#e06f45" d="M1537.2,-1358.78C1866.45,-1263.42 1918.12,-1266.86 2538.13,-1417.11"/>
<polygon fill="#e06f45" stroke="#e06f45" points="2537.14,-1420.47 2547.68,-1419.42 2538.79,-1413.66 2537.14,-1420.47"/>
</g>
<!-- 40132 -->
<g id="node29" class="node">
<title>40132</title>
<text text-anchor="middle" x="883.53" y="-406.08" font-family="Times,serif" font-size="14.00">LicenseTag (ScopedLicenseTag &quot;OrtLicenseCategorization&quot; &quot;property:unchecked&quot; (LicenseTagDescription &quot;This property marking means that the properties of the license have not been checked. Ask for license categorization/checking. This typically is an uncommon license, which has not yet been fully categorized.&quot;))</text>
</g>
<!-- 40132&#45;&gt;40919 -->
<g id="edge38" class="edge">
<title>40132&#45;&gt;40919</title>
<path fill="none" stroke="#e06f45" d="M938,-429.09C1494.23,-612.71 1535.02,-639.02 2597.02,-1408.14"/>
<polygon fill="#e06f45" stroke="#e06f45" points="2594.64,-1410.73 2604.79,-1413.76 2598.75,-1405.06 2594.64,-1410.73"/>
</g>
<!-- 40919&#45;&gt;4147 -->
<g id="edge39" class="edge">
<title>40919&#45;&gt;4147</title>
<path fill="none" stroke="#e06f45" d="M2668.6,-1472.24C2933.19,-1803.68 2943.74,-1824.88 2941.08,-2110.5"/>
<polygon fill="#e06f45" stroke="#e06f45" points="2937.59,-2110.1 2940.99,-2120.13 2944.59,-2110.17 2937.59,-2110.1"/>
</g>
<!-- 42220 -->
<g id="node31" class="node">
<title>42220</title>
<ellipse fill="none" stroke="#379469" cx="3887.7" cy="-3320.95" rx="159.28" ry="28.99"/>
<text text-anchor="middle" x="3887.7" y="-3324.15" font-family="Times,serif" font-size="14.00" fill="gray">CavilLicenseChange</text>
<text text-anchor="middle" x="3887.7" y="-3307.65" font-family="Times,serif" font-size="14.00" fill="gray">5564726f65960e248bc41e9a50da1c7b</text>
</g>
<!-- 42220&#45;&gt;42221 -->
<g id="edge40" class="edge">
<title>42220&#45;&gt;42221</title>
<path fill="none" stroke="#379469" d="M3876.79,-3291.71C3828.7,-3163.54 3814.97,-3140.99 3634.75,-2871.96"/>
<polygon fill="#379469" stroke="#379469" points="3637.86,-2870.32 3629.39,-2863.96 3632.05,-2874.21 3637.86,-2870.32"/>
</g>
<!-- 56120 -->
<g id="node33" class="node">
<title>56120</title>
<ellipse fill="none" stroke="#379469" cx="2102.53" cy="-3002.28" rx="159.81" ry="28.99"/>
<text text-anchor="middle" x="2102.53" y="-3005.48" font-family="Times,serif" font-size="14.00" fill="gray">MetaeffektLicense</text>
<text text-anchor="middle" x="2102.53" y="-2988.98" font-family="Times,serif" font-size="14.00" fill="gray">2485206c606ab3f314de524e77156c39</text>
</g>
<!-- 56120&#45;&gt;56121 -->
<g id="edge41" class="edge">
<title>56120&#45;&gt;56121</title>
<path fill="none" stroke="#379469" d="M2208.89,-3024.27C2420.73,-3065.72 2464.41,-3049.02 2712.62,-2900.41"/>
<polygon fill="#379469" stroke="#379469" points="2714.22,-2903.54 2721,-2895.39 2710.62,-2897.53 2714.22,-2903.54"/>
</g>
<!-- 56122 -->
<g id="node35" class="node">
<title>56122</title>
<polygon fill="none" stroke="#379469" points="2429.91,-3254.55 2429.91,-3269.46 2374.31,-3280 2295.68,-3280 2240.08,-3269.46 2240.08,-3254.55 2295.68,-3244 2374.31,-3244 2429.91,-3254.55"/>
<polygon fill="none" stroke="#379469" points="2433.91,-3251.23 2433.91,-3272.77 2374.69,-3284 2295.31,-3284 2236.08,-3272.77 2236.08,-3251.23 2295.31,-3240 2374.69,-3240 2433.91,-3251.23"/>
<text text-anchor="middle" x="2335" y="-3256.95" font-family="Times,serif" font-size="14.00">RHeCos License 1.1</text>
</g>
<!-- 56122&#45;&gt;56121 -->
<g id="edge42" class="edge">
<title>56122&#45;&gt;56121</title>
<path fill="none" stroke="#379469" stroke-width="2" d="M2388.83,-3242.32C2550.57,-3182.05 2572.05,-3156.54 2738.93,-2903.54"/>
<polygon fill="#379469" stroke="#379469" stroke-width="2" points="2743.58,-2896.47 2741.84,-2907.3 2742.59,-2898.89 2738.5,-2905.1 2738.08,-2904.82 2737.66,-2904.55 2741.76,-2898.34 2734.32,-2902.35 2743.58,-2896.47"/>
</g>
<!-- 56123 -->
<g id="node36" class="node">
<title>56123</title>
<polygon fill="none" stroke="#379469" points="2794.33,-3298.1 2794.33,-3313.01 2767.61,-3323.55 2729.83,-3323.55 2703.11,-3313.01 2703.11,-3298.1 2729.83,-3287.55 2767.61,-3287.55 2794.33,-3298.1"/>
<text text-anchor="middle" x="2748.72" y="-3300.5" font-family="Times,serif" font-size="14.00">RHeCos</text>
</g>
<!-- 56123&#45;&gt;56121 -->
<g id="edge43" class="edge">
<title>56123&#45;&gt;56121</title>
<path fill="none" stroke="#379469" stroke-dasharray="5,2" d="M2752.11,-3287.1C2772.18,-3177.37 2772.41,-3160.07 2761.04,-2905.47"/>
<polygon fill="#379469" stroke="#379469" points="2760.6,-2895.57 2765.54,-2905.36 2760.76,-2899.34 2761.04,-2905.56 2761.04,-2905.56 2761.04,-2905.56 2760.76,-2899.34 2756.55,-2905.76 2760.6,-2895.57"/>
</g>
<!-- 56124 -->
<g id="node37" class="node">
<title>56124</title>
<polygon fill="none" stroke="#379469" points="3000.38,-3399.89 3000.38,-3414.8 2943.81,-3425.34 2863.8,-3425.34 2807.23,-3414.8 2807.23,-3399.89 2863.8,-3389.34 2943.81,-3389.34 3000.38,-3399.89"/>
<text text-anchor="middle" x="2903.8" y="-3402.29" font-family="Times,serif" font-size="14.00">RHeCos, Version 1.1</text>
</g>
<!-- 56124&#45;&gt;56121 -->
<g id="edge44" class="edge">
<title>56124&#45;&gt;56121</title>
<path fill="none" stroke="#379469" stroke-dasharray="5,2" d="M2898.94,-3389.23C2861.74,-3250.74 2857,-3233.17 2768.53,-2905.5"/>
<polygon fill="#379469" stroke="#379469" points="2765.94,-2895.89 2772.89,-2904.37 2766.92,-2899.54 2768.54,-2905.55 2768.54,-2905.55 2768.54,-2905.55 2766.92,-2899.54 2764.2,-2906.72 2765.94,-2895.89"/>
</g>
<!-- 56125 -->
<g id="node38" class="node">
<title>56125</title>
<polygon fill="none" stroke="#379469" points="2603.96,-3261.13 2603.96,-3276.04 2568.16,-3286.59 2517.52,-3286.59 2481.72,-3276.04 2481.72,-3261.13 2517.52,-3250.59 2568.16,-3250.59 2603.96,-3261.13"/>
<text text-anchor="middle" x="2542.84" y="-3263.54" font-family="Times,serif" font-size="14.00">RHeCos 1.1</text>
</g>
<!-- 56125&#45;&gt;56121 -->
<g id="edge45" class="edge">
<title>56125&#45;&gt;56121</title>
<path fill="none" stroke="#379469" stroke-dasharray="5,2" d="M2563.33,-3250.21C2660.57,-3162.6 2669.55,-3144.13 2748.7,-2905.05"/>
<polygon fill="#379469" stroke="#379469" points="2751.77,-2895.77 2752.9,-2906.68 2750.58,-2899.36 2748.63,-2905.26 2748.63,-2905.26 2748.63,-2905.26 2750.58,-2899.36 2744.36,-2903.85 2751.77,-2895.77"/>
</g>
<!-- 56126 -->
<g id="node39" class="node">
<title>56126</title>
<polygon fill="none" stroke="#379469" points="2696.62,-3467.42 2696.62,-3482.33 2620.25,-3492.87 2512.25,-3492.87 2435.88,-3482.33 2435.88,-3467.42 2512.25,-3456.87 2620.25,-3456.87 2696.62,-3467.42"/>
<text text-anchor="middle" x="2566.25" y="-3469.82" font-family="Times,serif" font-size="14.00">RHeCos License, Version 1.1</text>
</g>
<!-- 56126&#45;&gt;56121 -->
<g id="edge46" class="edge">
<title>56126&#45;&gt;56121</title>
<path fill="none" stroke="#379469" stroke-dasharray="5,2" d="M2578.27,-3456.45C2678.46,-3302.66 2683.83,-3284.33 2753.4,-2905.74"/>
<polygon fill="#379469" stroke="#379469" points="2755.2,-2895.92 2757.82,-2906.57 2754.52,-2899.64 2753.4,-2905.76 2753.4,-2905.76 2753.4,-2905.76 2754.52,-2899.64 2748.97,-2904.95 2755.2,-2895.92"/>
</g>
<!-- 56127 -->
<g id="node40" class="node">
<title>56127</title>
<polygon fill="none" stroke="#379469" points="2375.76,-3061.23 2375.76,-3076.15 2318.54,-3086.69 2237.62,-3086.69 2180.39,-3076.15 2180.39,-3061.23 2237.62,-3050.69 2318.54,-3050.69 2375.76,-3061.23"/>
<text text-anchor="middle" x="2278.08" y="-3063.64" font-family="Times,serif" font-size="14.00">RHeCos License, 1.1</text>
</g>
<!-- 56127&#45;&gt;56121 -->
<g id="edge47" class="edge">
<title>56127&#45;&gt;56121</title>
<path fill="none" stroke="#379469" stroke-dasharray="5,2" d="M2376.24,-3070.17C2520.57,-3069.55 2556.42,-3046.25 2725.07,-2901.84"/>
<polygon fill="#379469" stroke="#379469" points="2732.54,-2895.44 2727.87,-2905.36 2729.67,-2897.9 2724.95,-2901.94 2724.95,-2901.94 2724.95,-2901.94 2729.67,-2897.9 2722.02,-2898.53 2732.54,-2895.44"/>
</g>
<!-- 68353 -->
<g id="node41" class="node">
<title>68353</title>
<ellipse fill="none" stroke="#00876c" cx="2461.65" cy="-1843.4" rx="161.93" ry="28.99"/>
<text text-anchor="middle" x="2461.65" y="-1846.6" font-family="Times,serif" font-size="14.00" fill="gray">LicenseLynx</text>
<text text-anchor="middle" x="2461.65" y="-1830.1" font-family="Times,serif" font-size="14.00" fill="gray">107780946093a6bb080050cbe5d87c7b</text>
</g>
<!-- 68353&#45;&gt;4147 -->
<g id="edge48" class="edge">
<title>68353&#45;&gt;4147</title>
<path fill="none" stroke="#00876c" d="M2500.67,-1871.83C2738.67,-2045.17 2779.57,-2073.66 2879.6,-2120.09"/>
<polygon fill="#00876c" stroke="#00876c" points="2877.88,-2123.15 2888.42,-2124.16 2880.81,-2116.8 2877.88,-2123.15"/>
</g>
<!-- 68354&#45;&gt;4147 -->
<g id="edge49" class="edge">
<title>68354&#45;&gt;4147</title>
<path fill="none" stroke="#00876c" stroke-width="2" d="M2965.34,-2652.42C3010.76,-2501.04 3009.76,-2482.01 2948.32,-2184.63"/>
<polygon fill="#00876c" stroke="#00876c" stroke-width="2" points="2946.6,-2176.32 2953.03,-2185.2 2947.61,-2178.73 2949.12,-2186.01 2948.63,-2186.11 2948.14,-2186.22 2946.63,-2178.93 2944.22,-2187.03 2946.6,-2176.32"/>
</g>
<!-- 68355&#45;&gt;4147 -->
<g id="edge50" class="edge">
<title>68355&#45;&gt;4147</title>
<path fill="none" stroke="#00876c" stroke-width="2" d="M3241.15,-1790.02C3190.49,-1973.93 3179.61,-1992.06 2989.33,-2116.21"/>
<polygon fill="#00876c" stroke="#00876c" stroke-width="2" points="2982.17,-2120.87 2988.09,-2111.64 2984.05,-2119.05 2990.28,-2114.99 2990.55,-2115.41 2990.82,-2115.83 2984.59,-2119.89 2993.01,-2119.18 2982.17,-2120.87"/>
</g>
</g>
</svg>
