<?xml version="1.0" encoding="UTF-8" standalone="no"?>
<!DOCTYPE svg PUBLIC "-//W3C//DTD SVG 1.1//EN"
 "http://www.w3.org/Graphics/SVG/1.1/DTD/svg11.dtd">
<!-- Generated by graphviz version 10.0.1 (0)
 -->
<!-- Pages: 1 -->
<svg width="1809pt" height="2190pt"
 viewBox="0.00 0.00 1809.00 2190.00" xmlns="http://www.w3.org/2000/svg" xmlns:xlink="http://www.w3.org/1999/xlink">
<g id="graph0" class="graph" transform="scale(1 1) rotate(0) translate(4 2186)">
<polygon fill="white" stroke="none" points="-4,4 -4,-2186 1805,-2186 1805,4 -4,4"/>
<!-- 3766 -->
<g id="node1" class="node">
<title>3766</title>
<ellipse fill="none" stroke="#b8bf62" cx="684.95" cy="-1072.28" rx="158.22" ry="28.99"/>
<text text-anchor="middle" x="684.95" y="-1075.48" font-family="Times,serif" font-size="14.00" fill="gray">SPDXLicense</text>
<text text-anchor="middle" x="684.95" y="-1058.98" font-family="Times,serif" font-size="14.00" fill="gray">8bfb292c285061009665cf25155bf365</text>
</g>
<!-- 3767 -->
<g id="node2" class="node">
<title>3767</title>
<polygon fill="none" stroke="black" points="868.08,-1413.56 868.08,-1428.47 830.65,-1439.02 777.72,-1439.02 740.29,-1428.47 740.29,-1413.56 777.72,-1403.02 830.65,-1403.02 868.08,-1413.56"/>
<polygon fill="none" stroke="black" points="872.08,-1410.53 872.08,-1431.5 831.2,-1443.02 777.17,-1443.02 736.29,-1431.5 736.29,-1410.53 777.17,-1399.02 831.2,-1399.02 872.08,-1410.53"/>
<polygon fill="none" stroke="black" points="876.08,-1407.5 876.08,-1434.53 831.76,-1447.02 776.62,-1447.02 732.29,-1434.53 732.29,-1407.5 776.62,-1395.02 831.76,-1395.02 876.08,-1407.5"/>
<text text-anchor="middle" x="804.19" y="-1415.97" font-family="Times,serif" font-size="14.00">spdx:RSCPL</text>
</g>
<!-- 3766&#45;&gt;3767 -->
<g id="edge1" class="edge">
<title>3766&#45;&gt;3767</title>
<path fill="none" stroke="#b8bf62" d="M685.93,-1101.76C691.9,-1277.33 696.39,-1300.8 772.59,-1386.2"/>
<polygon fill="#b8bf62" stroke="#b8bf62" points="769.89,-1388.44 779.18,-1393.54 775.1,-1383.76 769.89,-1388.44"/>
</g>
<!-- 5280 -->
<g id="node6" class="node">
<title>5280</title>
<polygon fill="none" stroke="black" points="728.29,-1229.92 728.29,-1244.83 695.08,-1255.37 648.12,-1255.37 614.91,-1244.83 614.91,-1229.92 648.12,-1219.37 695.08,-1219.37 728.29,-1229.92"/>
<polygon fill="none" stroke="black" points="732.29,-1226.99 732.29,-1247.76 695.7,-1259.37 647.5,-1259.37 610.91,-1247.76 610.91,-1226.99 647.5,-1215.37 695.7,-1215.37 732.29,-1226.99"/>
<text text-anchor="middle" x="671.6" y="-1232.32" font-family="Times,serif" font-size="14.00">osi:RSCPL</text>
</g>
<!-- 3767&#45;&gt;5280 -->
<g id="edge2" class="edge">
<title>3767&#45;&gt;5280</title>
<path fill="none" stroke="#78ab63" stroke-width="2" d="M765.82,-1397.82C717.32,-1366.99 707.52,-1349.56 682.02,-1270.23"/>
<polygon fill="#78ab63" stroke="#78ab63" stroke-width="2" points="679.4,-1262.02 686.73,-1270.18 680.65,-1264.31 682.92,-1271.4 682.44,-1271.55 681.96,-1271.7 679.7,-1264.62 678.15,-1272.92 679.4,-1262.02"/>
</g>
<!-- 8342 -->
<g id="node11" class="node">
<title>8342</title>
<polygon fill="none" stroke="#e09d4b" points="1125.52,-1505.29 1125.52,-1520.21 1082.9,-1530.75 1022.63,-1530.75 980.01,-1520.21 980.01,-1505.29 1022.63,-1494.75 1082.9,-1494.75 1125.52,-1505.29"/>
<polygon fill="none" stroke="#e09d4b" points="1129.52,-1502.16 1129.52,-1523.34 1083.39,-1534.75 1022.14,-1534.75 976.01,-1523.34 976.01,-1502.16 1022.14,-1490.75 1083.39,-1490.75 1129.52,-1502.16"/>
<text text-anchor="middle" x="1052.76" y="-1507.7" font-family="Times,serif" font-size="14.00">Fedora:RSCPL</text>
</g>
<!-- 3767&#45;&gt;8342 -->
<g id="edge3" class="edge">
<title>3767&#45;&gt;8342</title>
<path fill="none" stroke="#e09d4b" stroke-width="2" d="M836.76,-1446.01C898.64,-1493.16 925.07,-1509.89 964.7,-1514.16"/>
<polygon fill="#e09d4b" stroke="#e09d4b" stroke-width="2" points="973.25,-1514.83 962.93,-1518.54 970.66,-1515.13 963.24,-1514.55 963.28,-1514.05 963.32,-1513.55 970.74,-1514.13 963.63,-1509.56 973.25,-1514.83"/>
</g>
<!-- 47844 -->
<g id="node20" class="node">
<title>47844</title>
<polygon fill="none" stroke="#00876c" points="682.18,-1646.13 682.18,-1661.04 566.22,-1671.59 402.23,-1671.59 286.27,-1661.04 286.27,-1646.13 402.23,-1635.59 566.22,-1635.59 682.18,-1646.13"/>
<polygon fill="none" stroke="#00876c" points="686.18,-1642.48 686.18,-1664.69 566.4,-1675.59 402.05,-1675.59 282.27,-1664.69 282.27,-1642.48 402.05,-1631.59 566.4,-1631.59 686.18,-1642.48"/>
<text text-anchor="middle" x="484.23" y="-1648.54" font-family="Times,serif" font-size="14.00">metaeffekt:Ricoh Source Code Public License</text>
</g>
<!-- 3767&#45;&gt;47844 -->
<g id="edge4" class="edge">
<title>3767&#45;&gt;47844</title>
<path fill="none" stroke="#00876c" stroke-width="2" d="M775.84,-1447.29C644.02,-1569.42 610.24,-1598.92 549.49,-1626.66"/>
<polygon fill="#00876c" stroke="#00876c" stroke-width="2" points="541.72,-1630.12 549.02,-1621.95 543.86,-1628.62 550.65,-1625.6 550.85,-1626.06 551.06,-1626.51 544.26,-1629.54 552.68,-1630.17 541.72,-1630.12"/>
</g>
<!-- 3768 -->
<g id="node3" class="node">
<title>3768</title>
<polygon fill="none" stroke="black" points="1024.45,-1247.78 1024.45,-1262.69 999.68,-1273.24 964.65,-1273.24 939.88,-1262.69 939.88,-1247.78 964.65,-1237.24 999.68,-1237.24 1024.45,-1247.78"/>
<polygon fill="none" stroke="black" points="1028.45,-1245.14 1028.45,-1265.34 1000.5,-1277.24 963.84,-1277.24 935.88,-1265.34 935.88,-1245.14 963.84,-1233.24 1000.5,-1233.24 1028.45,-1245.14"/>
<text text-anchor="middle" x="982.17" y="-1250.19" font-family="Times,serif" font-size="14.00">RSCPL</text>
</g>
<!-- 3768&#45;&gt;3767 -->
<g id="edge5" class="edge">
<title>3768&#45;&gt;3767</title>
<path fill="none" stroke="black" stroke-width="2" d="M966.7,-1277.72C914.82,-1352.94 896.33,-1377.25 862.93,-1395.63"/>
<polygon fill="black" stroke="black" stroke-width="2" points="855.24,-1399.58 862.07,-1391.01 857.29,-1397.97 863.9,-1394.57 864.13,-1395.01 864.36,-1395.46 857.75,-1398.86 866.19,-1399.01 855.24,-1399.58"/>
</g>
<!-- 3768&#45;&gt;5280 -->
<g id="edge6" class="edge">
<title>3768&#45;&gt;5280</title>
<path fill="none" stroke="black" stroke-width="2" d="M938.2,-1266.6C820.06,-1296.72 794.9,-1297.45 717.91,-1260.48"/>
<polygon fill="black" stroke="black" stroke-width="2" points="710.45,-1256.85 721.41,-1257.17 712.97,-1257.52 719.66,-1260.77 719.44,-1261.22 719.22,-1261.67 712.54,-1258.42 717.47,-1265.27 710.45,-1256.85"/>
</g>
<!-- 3768&#45;&gt;8342 -->
<g id="edge7" class="edge">
<title>3768&#45;&gt;8342</title>
<path fill="none" stroke="#e09d4b" stroke-width="2" d="M988.97,-1277.26C1029.24,-1407.65 1036.39,-1431.65 1046.24,-1479.86"/>
<polygon fill="#e09d4b" stroke="#e09d4b" stroke-width="2" points="1047.92,-1488.18 1041.53,-1479.26 1046.92,-1485.76 1045.45,-1478.47 1045.94,-1478.37 1046.43,-1478.28 1047.9,-1485.57 1050.35,-1477.49 1047.92,-1488.18"/>
</g>
<!-- 26381 -->
<g id="node14" class="node">
<title>26381</title>
<polygon fill="none" stroke="#e18745" points="1338.4,-1286.73 1338.4,-1301.64 1289.3,-1312.18 1219.84,-1312.18 1170.73,-1301.64 1170.73,-1286.73 1219.84,-1276.18 1289.3,-1276.18 1338.4,-1286.73"/>
<polygon fill="none" stroke="#e18745" points="1342.4,-1283.5 1342.4,-1304.87 1289.72,-1316.18 1219.42,-1316.18 1166.73,-1304.87 1166.73,-1283.5 1219.42,-1272.18 1289.72,-1272.18 1342.4,-1283.5"/>
<text text-anchor="middle" x="1254.57" y="-1289.13" font-family="Times,serif" font-size="14.00">fossology:RSCPL</text>
</g>
<!-- 3768&#45;&gt;26381 -->
<g id="edge8" class="edge">
<title>3768&#45;&gt;26381</title>
<path fill="none" stroke="#e18745" stroke-width="2" d="M1023.47,-1267.94C1090.21,-1288.37 1126.29,-1298.61 1155.59,-1302.06"/>
<polygon fill="#e18745" stroke="#e18745" stroke-width="2" points="1164.1,-1302.83 1153.74,-1306.41 1161.51,-1303.1 1154.1,-1302.42 1154.15,-1301.93 1154.19,-1301.43 1161.6,-1302.1 1154.55,-1297.44 1164.1,-1302.83"/>
</g>
<!-- 37450 -->
<g id="node18" class="node">
<title>37450</title>
<polygon fill="none" stroke="#379469" points="1136.95,-989.03 1136.95,-1003.94 1099.2,-1014.49 1045.81,-1014.49 1008.06,-1003.94 1008.06,-989.03 1045.81,-978.49 1099.2,-978.49 1136.95,-989.03"/>
<polygon fill="none" stroke="#379469" points="1140.95,-986 1140.95,-1006.98 1099.75,-1018.49 1045.26,-1018.49 1004.06,-1006.98 1004.06,-986 1045.26,-974.49 1099.75,-974.49 1140.95,-986"/>
<text text-anchor="middle" x="1072.51" y="-991.44" font-family="Times,serif" font-size="14.00">cavil:RSCPL</text>
</g>
<!-- 3768&#45;&gt;37450 -->
<g id="edge9" class="edge">
<title>3768&#45;&gt;37450</title>
<path fill="none" stroke="#379469" stroke-width="2" d="M1000.92,-1233.21C1073.04,-1148.12 1079.11,-1132.88 1074.22,-1029.75"/>
<polygon fill="#379469" stroke="#379469" stroke-width="2" points="1073.8,-1021.24 1078.79,-1031.01 1074.43,-1023.78 1074.79,-1031.21 1074.3,-1031.23 1073.8,-1031.26 1073.43,-1023.83 1069.8,-1031.45 1073.8,-1021.24"/>
</g>
<!-- 3769 -->
<g id="node4" class="node">
<title>3769</title>
<polygon fill="none" stroke="black" points="1198.42,-1565.48 1198.42,-1580.39 1109.39,-1590.93 983.49,-1590.93 894.47,-1580.39 894.47,-1565.48 983.49,-1554.93 1109.39,-1554.93 1198.42,-1565.48"/>
<polygon fill="none" stroke="black" points="1202.42,-1561.92 1202.42,-1583.94 1109.63,-1594.93 983.26,-1594.93 890.47,-1583.94 890.47,-1561.92 983.26,-1550.93 1109.63,-1550.93 1202.42,-1561.92"/>
<text text-anchor="middle" x="1046.44" y="-1567.88" font-family="Times,serif" font-size="14.00">Ricoh Source Code Public License</text>
</g>
<!-- 3769&#45;&gt;3767 -->
<g id="edge10" class="edge">
<title>3769&#45;&gt;3767</title>
<path fill="none" stroke="#b8bf62" stroke-width="2" d="M956.23,-1553.71C919.86,-1540.24 893.92,-1516.2 836.21,-1455.12"/>
<polygon fill="#b8bf62" stroke="#b8bf62" stroke-width="2" points="830.3,-1448.85 840.44,-1453.04 832.43,-1450.37 837.53,-1455.78 837.16,-1456.13 836.8,-1456.47 831.7,-1451.06 833.89,-1459.21 830.3,-1448.85"/>
</g>
<!-- 3769&#45;&gt;3768 -->
<g id="edge11" class="edge">
<title>3769&#45;&gt;3768</title>
<path fill="none" stroke="#379469" stroke-width="2" d="M1044.01,-1550.69C1035.97,-1478.16 1031.92,-1459.28 990.21,-1288.19"/>
<polygon fill="#379469" stroke="#379469" stroke-width="2" points="988.18,-1279.88 994.92,-1288.53 989.27,-1282.26 991.03,-1289.48 990.55,-1289.6 990.06,-1289.72 988.3,-1282.49 986.18,-1290.67 988.18,-1279.88"/>
</g>
<!-- 3769&#45;&gt;8342 -->
<g id="edge12" class="edge">
<title>3769&#45;&gt;8342</title>
<path fill="none" stroke="#e09d4b" stroke-dasharray="5,2" d="M1052.52,-1550.75C1052.65,-1549.36 1052.75,-1547.88 1052.83,-1546.25"/>
<polygon fill="#e09d4b" stroke="#e09d4b" points="1053,-1536.27 1057.33,-1546.35 1052.93,-1540.05 1052.83,-1546.27 1052.83,-1546.27 1052.83,-1546.27 1052.93,-1540.05 1048.33,-1546.19 1053,-1536.27"/>
</g>
<!-- 3769&#45;&gt;26381 -->
<g id="edge13" class="edge">
<title>3769&#45;&gt;26381</title>
<path fill="none" stroke="#e18745" stroke-width="2" d="M1085.34,-1550.48C1185.15,-1491.95 1196.57,-1472.94 1244.03,-1326.8"/>
<polygon fill="#e18745" stroke="#e18745" stroke-width="2" points="1246.61,-1318.84 1247.81,-1329.74 1246.3,-1321.43 1244,-1328.51 1243.53,-1328.35 1243.05,-1328.2 1245.34,-1321.12 1239.25,-1326.97 1246.61,-1318.84"/>
</g>
<!-- 3769&#45;&gt;47844 -->
<g id="edge14" class="edge">
<title>3769&#45;&gt;47844</title>
<path fill="none" stroke="#00876c" stroke-width="2" d="M1000.38,-1595.27C775.66,-1703.95 733.03,-1717.69 577.96,-1678.76"/>
<polygon fill="#00876c" stroke="#00876c" stroke-width="2" points="569.45,-1676.59 580.25,-1674.7 572.06,-1676.74 579.27,-1678.57 579.14,-1679.06 579.02,-1679.54 571.81,-1677.71 578.03,-1683.42 569.45,-1676.59"/>
</g>
<!-- 55009 -->
<g id="node24" class="node">
<title>55009</title>
<polygon fill="none" stroke="#e18745" points="1264.45,-1620.19 1264.45,-1635.11 1157.57,-1645.65 1006.43,-1645.65 899.56,-1635.11 899.56,-1620.19 1006.43,-1609.65 1157.57,-1609.65 1264.45,-1620.19"/>
<polygon fill="none" stroke="#e18745" points="1268.45,-1616.57 1268.45,-1638.73 1157.77,-1649.65 1006.24,-1649.65 895.56,-1638.73 895.56,-1616.57 1006.24,-1605.65 1157.77,-1605.65 1268.45,-1616.57"/>
<text text-anchor="middle" x="1082" y="-1622.6" font-family="Times,serif" font-size="14.00">ifrOSS:Ricoh Source Code Public License</text>
</g>
<!-- 3769&#45;&gt;55009 -->
<g id="edge15" class="edge">
<title>3769&#45;&gt;55009</title>
<path fill="none" stroke="#e18745" stroke-width="2" d="M1058.78,-1595.34C1058.85,-1595.46 1058.92,-1595.58 1058.99,-1595.71"/>
<polygon fill="#e18745" stroke="#e18745" stroke-width="2" points="1063.32,-1603.21 1054.43,-1596.81 1061.61,-1601.24 1057.89,-1594.8 1058.32,-1594.55 1058.76,-1594.3 1062.48,-1600.74 1062.22,-1592.3 1063.32,-1603.21"/>
</g>
<!-- 5279 -->
<g id="node5" class="node">
<title>5279</title>
<ellipse fill="none" stroke="#78ab63" cx="332.3" cy="-1174.75" rx="154.5" ry="28.99"/>
<text text-anchor="middle" x="332.3" y="-1177.95" font-family="Times,serif" font-size="14.00" fill="gray">OSILicense</text>
<text text-anchor="middle" x="332.3" y="-1161.45" font-family="Times,serif" font-size="14.00" fill="gray">67b455fcfaef324da31749050b0fe5e7</text>
</g>
<!-- 5279&#45;&gt;5280 -->
<g id="edge16" class="edge">
<title>5279&#45;&gt;5280</title>
<path fill="none" stroke="#78ab63" d="M390.58,-1202C439.31,-1222.31 476.54,-1226.86 599.43,-1233.58"/>
<polygon fill="#78ab63" stroke="#78ab63" points="599.11,-1237.07 609.28,-1234.12 599.49,-1230.08 599.11,-1237.07"/>
</g>
<!-- 5280&#45;&gt;47844 -->
<g id="edge17" class="edge">
<title>5280&#45;&gt;47844</title>
<path fill="none" stroke="#00876c" stroke-dasharray="5,2" d="M659,-1259.76C528.99,-1490.81 516.82,-1514.31 491.91,-1620.33"/>
<polygon fill="#00876c" stroke="#00876c" points="489.65,-1630.02 487.54,-1619.26 490.51,-1626.34 491.92,-1620.29 491.92,-1620.29 491.92,-1620.29 490.51,-1626.34 496.3,-1621.31 489.65,-1630.02"/>
</g>
<!-- 5281 -->
<g id="node7" class="node">
<title>5281</title>
<polygon fill="none" stroke="#78ab63" points="577.57,-974.88 577.57,-989.79 477.83,-1000.34 336.79,-1000.34 237.06,-989.79 237.06,-974.88 336.79,-964.34 477.83,-964.34 577.57,-974.88"/>
<polygon fill="none" stroke="#78ab63" points="581.57,-971.28 581.57,-993.39 478.04,-1004.34 336.58,-1004.34 233.06,-993.39 233.06,-971.28 336.58,-960.34 478.04,-960.34 581.57,-971.28"/>
<text text-anchor="middle" x="407.31" y="-977.29" font-family="Times,serif" font-size="14.00">The Ricoh Source Code Public License</text>
</g>
<!-- 5281&#45;&gt;5280 -->
<g id="edge18" class="edge">
<title>5281&#45;&gt;5280</title>
<path fill="none" stroke="#78ab63" stroke-width="2" d="M417.4,-1004.81C463,-1105.62 476.49,-1119.46 629.66,-1212.09"/>
<polygon fill="#78ab63" stroke="#78ab63" stroke-width="2" points="636.9,-1216.47 626.01,-1215.15 634.44,-1215.57 628.08,-1211.72 628.34,-1211.29 628.6,-1210.87 634.96,-1214.71 630.66,-1207.44 636.9,-1216.47"/>
</g>
<!-- 5282 -->
<g id="node8" class="node">
<title>5282</title>
<polygon fill="none" stroke="#78ab63" points="797.78,-708.74 797.78,-723.65 627.95,-734.2 387.78,-734.2 217.95,-723.65 217.95,-708.74 387.78,-698.2 627.95,-698.2 797.78,-708.74"/>
<polygon fill="none" stroke="#78ab63" points="801.78,-704.98 801.78,-727.41 628.08,-738.2 387.66,-738.2 213.95,-727.41 213.95,-704.98 387.66,-694.2 628.08,-694.2 801.78,-704.98"/>
<text text-anchor="middle" x="507.87" y="-711.15" font-family="Times,serif" font-size="14.00">Trove:License :: OSI Approved :: Ricoh Source Code Public License</text>
</g>
<!-- 5282&#45;&gt;5280 -->
<g id="edge19" class="edge">
<title>5282&#45;&gt;5280</title>
<path fill="none" stroke="#78ab63" stroke-width="2" d="M505.8,-738.6C488.1,-931.87 493.14,-948.41 652.15,-1205.91"/>
<polygon fill="#78ab63" stroke="#78ab63" stroke-width="2" points="656.59,-1213.1 647.51,-1206.95 654.82,-1211.18 650.91,-1204.85 651.34,-1204.59 651.76,-1204.33 655.67,-1210.65 655.17,-1202.22 656.59,-1213.1"/>
</g>
<!-- 5283 -->
<g id="node9" class="node">
<title>5283</title>
<polygon fill="none" stroke="#78ab63" points="586.37,-14.97 586.37,-29.88 432.12,-40.43 213.98,-40.43 59.73,-29.88 59.73,-14.97 213.98,-4.43 432.12,-4.43 586.37,-14.97"/>
<polygon fill="none" stroke="#78ab63" points="590.37,-11.23 590.37,-33.62 432.26,-44.43 213.84,-44.43 55.73,-33.62 55.73,-11.23 213.84,-0.43 432.26,-0.43 590.37,-11.23"/>
<text text-anchor="middle" x="323.05" y="-17.38" font-family="Times,serif" font-size="14.00">License :: OSI Approved :: Ricoh Source Code Public License</text>
</g>
<!-- 5283&#45;&gt;5282 -->
<g id="edge20" class="edge">
<title>5283&#45;&gt;5282</title>
<path fill="none" stroke="#78ab63" stroke-width="2" d="M324.26,-44.69C335.28,-245.56 340.89,-264.97 495.78,-683.53"/>
<polygon fill="#78ab63" stroke="#78ab63" stroke-width="2" points="498.73,-691.52 491.04,-683.7 497.38,-689.29 494.79,-682.31 495.26,-682.14 495.73,-681.97 498.31,-688.94 499.48,-680.58 498.73,-691.52"/>
</g>
<!-- 8341 -->
<g id="node10" class="node">
<title>8341</title>
<ellipse fill="none" stroke="#e09d4b" cx="1449.07" cy="-1601.08" rx="160.87" ry="28.99"/>
<text text-anchor="middle" x="1449.07" y="-1604.28" font-family="Times,serif" font-size="14.00" fill="gray">FedoraEntry</text>
<text text-anchor="middle" x="1449.07" y="-1587.78" font-family="Times,serif" font-size="14.00" fill="gray">12b192b515442b06242125cc848d4daf</text>
</g>
<!-- 8341&#45;&gt;8342 -->
<g id="edge21" class="edge">
<title>8341&#45;&gt;8342</title>
<path fill="none" stroke="#e09d4b" d="M1290.13,-1606.16C1247.87,-1597.15 1197.24,-1576.28 1106.69,-1536.52"/>
<polygon fill="#e09d4b" stroke="#e09d4b" points="1108.29,-1533.4 1097.72,-1532.58 1105.47,-1539.81 1108.29,-1533.4"/>
</g>
<!-- 22908 -->
<g id="node12" class="node">
<title>22908</title>
<polygon fill="none" stroke="black" points="519.61,-1705.79 519.61,-1720.7 468.23,-1731.25 395.56,-1731.25 344.18,-1720.7 344.18,-1705.79 395.56,-1695.25 468.23,-1695.25 519.61,-1705.79"/>
<text text-anchor="middle" x="431.9" y="-1708.2" font-family="Times,serif" font-size="14.00">scancode:ricoh&#45;1.0</text>
</g>
<!-- 22908&#45;&gt;47844 -->
<g id="edge22" class="edge">
<title>22908&#45;&gt;47844</title>
<path fill="none" stroke="#00876c" stroke-dasharray="5,2" d="M449.15,-1694.97C451.75,-1692.05 454.66,-1688.69 458.36,-1684.33"/>
<polygon fill="#00876c" stroke="#00876c" points="464.66,-1676.89 461.64,-1687.43 462.22,-1679.77 458.21,-1684.52 458.21,-1684.52 458.21,-1684.52 462.22,-1679.77 454.77,-1681.61 464.66,-1676.89"/>
</g>
<!-- 26380 -->
<g id="node13" class="node">
<title>26380</title>
<ellipse fill="none" stroke="#e18745" cx="1647.38" cy="-1263.93" rx="153.97" ry="28.99"/>
<text text-anchor="middle" x="1647.38" y="-1267.13" font-family="Times,serif" font-size="14.00" fill="gray">Fossology</text>
<text text-anchor="middle" x="1647.38" y="-1250.63" font-family="Times,serif" font-size="14.00" fill="gray">5f1bccd6950ee23f6ef4f68c1703276e</text>
</g>
<!-- 26380&#45;&gt;26381 -->
<g id="edge23" class="edge">
<title>26380&#45;&gt;26381</title>
<path fill="none" stroke="#e18745" d="M1566.23,-1288.87C1516.88,-1300.86 1472.18,-1301.85 1353.92,-1297.85"/>
<polygon fill="#e18745" stroke="#e18745" points="1354.25,-1294.36 1344.14,-1297.52 1354.01,-1301.36 1354.25,-1294.36"/>
</g>
<!-- 28385 -->
<g id="node15" class="node">
<title>28385</title>
<ellipse fill="none" stroke="#379469" cx="1272.13" cy="-1059.42" rx="158.22" ry="28.99"/>
<text text-anchor="middle" x="1272.13" y="-1062.62" font-family="Times,serif" font-size="14.00" fill="gray">OKFN</text>
<text text-anchor="middle" x="1272.13" y="-1046.12" font-family="Times,serif" font-size="14.00" fill="gray">51a7e276ea2bd5a9626e41c0cf282818</text>
</g>
<!-- 28385&#45;&gt;3768 -->
<g id="edge24" class="edge">
<title>28385&#45;&gt;3768</title>
<path fill="none" stroke="#379469" d="M1252.83,-1088.4C1198.03,-1169.56 1178.73,-1182.18 1030.31,-1237.43"/>
<polygon fill="#379469" stroke="#379469" points="1029.44,-1234.02 1021.29,-1240.78 1031.88,-1240.58 1029.44,-1234.02"/>
</g>
<!-- 35185 -->
<g id="node16" class="node">
<title>35185</title>
<ellipse fill="none" stroke="#e06f45" cx="752.13" cy="-1776.3" rx="156.62" ry="28.99"/>
<text text-anchor="middle" x="752.13" y="-1779.5" font-family="Times,serif" font-size="14.00" fill="gray">OrtLicenseCategorization</text>
<text text-anchor="middle" x="752.13" y="-1763" font-family="Times,serif" font-size="14.00" fill="gray">f53a88ed8fec2659b8e0399ee7dc5037</text>
</g>
<!-- 35185&#45;&gt;3767 -->
<g id="edge25" class="edge">
<title>35185&#45;&gt;3767</title>
<path fill="none" stroke="#e06f45" d="M754.66,-1746.93C761.34,-1670.81 765.14,-1646.66 797.68,-1458.58"/>
<polygon fill="#e06f45" stroke="#e06f45" points="801.1,-1459.38 799.35,-1448.93 794.2,-1458.18 801.1,-1459.38"/>
</g>
<!-- 37449 -->
<g id="node17" class="node">
<title>37449</title>
<ellipse fill="none" stroke="#379469" cx="1261.46" cy="-680.81" rx="156.62" ry="28.99"/>
<text text-anchor="middle" x="1261.46" y="-684.01" font-family="Times,serif" font-size="14.00" fill="gray">CavilLicenseChange</text>
<text text-anchor="middle" x="1261.46" y="-667.51" font-family="Times,serif" font-size="14.00" fill="gray">ce94cd303fdd155f2b220d4fca414382</text>
</g>
<!-- 37449&#45;&gt;37450 -->
<g id="edge26" class="edge">
<title>37449&#45;&gt;37450</title>
<path fill="none" stroke="#379469" d="M1250.22,-709.97C1220.78,-785.41 1207.3,-806.4 1094.79,-965.08"/>
<polygon fill="#379469" stroke="#379469" points="1092.1,-962.82 1089.17,-973 1097.81,-966.86 1092.1,-962.82"/>
</g>
<!-- 47843 -->
<g id="node19" class="node">
<title>47843</title>
<ellipse fill="none" stroke="#00876c" cx="310" cy="-2153.13" rx="160.34" ry="28.99"/>
<text text-anchor="middle" x="310" y="-2156.33" font-family="Times,serif" font-size="14.00" fill="gray">MetaeffektLicense</text>
<text text-anchor="middle" x="310" y="-2139.83" font-family="Times,serif" font-size="14.00" fill="gray">483d7939b98525874ea75c739225af70</text>
</g>
<!-- 47843&#45;&gt;47844 -->
<g id="edge27" class="edge">
<title>47843&#45;&gt;47844</title>
<path fill="none" stroke="#00876c" d="M315.81,-2123.67C341.07,-1996.5 350.09,-1972.68 470.52,-1686.17"/>
<polygon fill="#00876c" stroke="#00876c" points="473.62,-1687.84 474.27,-1677.26 467.17,-1685.13 473.62,-1687.84"/>
</g>
<!-- 47845 -->
<g id="node21" class="node">
<title>47845</title>
<polygon fill="none" stroke="#00876c" points="139.17,-1721.36 139.17,-1736.27 98.5,-1746.81 40.98,-1746.81 0.31,-1736.27 0.31,-1721.36 40.98,-1710.81 98.5,-1710.81 139.17,-1721.36"/>
<text text-anchor="middle" x="69.74" y="-1723.76" font-family="Times,serif" font-size="14.00">Ricoh License</text>
</g>
<!-- 47845&#45;&gt;47844 -->
<g id="edge28" class="edge">
<title>47845&#45;&gt;47844</title>
<path fill="none" stroke="#00876c" stroke-dasharray="5,2" d="M136.32,-1737.52C213.89,-1745.48 253.55,-1735.66 410.84,-1679.81"/>
<polygon fill="#00876c" stroke="#00876c" points="420.23,-1676.48 412.31,-1684.07 416.66,-1677.74 410.8,-1679.83 410.8,-1679.83 410.8,-1679.83 416.66,-1677.74 409.3,-1675.59 420.23,-1676.48"/>
</g>
<!-- 47846 -->
<g id="node22" class="node">
<title>47846</title>
<polygon fill="none" stroke="#00876c" points="239.1,-1947.18 239.1,-1962.1 181.87,-1972.64 100.95,-1972.64 43.73,-1962.1 43.73,-1947.18 100.95,-1936.64 181.87,-1936.64 239.1,-1947.18"/>
<text text-anchor="middle" x="141.41" y="-1949.59" font-family="Times,serif" font-size="14.00">Ricoh Public License</text>
</g>
<!-- 47846&#45;&gt;47844 -->
<g id="edge29" class="edge">
<title>47846&#45;&gt;47844</title>
<path fill="none" stroke="#00876c" stroke-dasharray="5,2" d="M167.5,-1936.17C251.77,-1876.27 271.84,-1858.05 453.1,-1683.56"/>
<polygon fill="#00876c" stroke="#00876c" points="460.13,-1676.78 456.05,-1686.96 457.41,-1679.41 452.93,-1683.72 452.93,-1683.72 452.93,-1683.72 457.41,-1679.41 449.81,-1680.48 460.13,-1676.78"/>
</g>
<!-- 55008 -->
<g id="node23" class="node">
<title>55008</title>
<ellipse fill="none" stroke="#e18745" cx="1125.28" cy="-1688.07" rx="157.15" ry="28.99"/>
<text text-anchor="middle" x="1125.28" y="-1691.27" font-family="Times,serif" font-size="14.00" fill="gray">ifrOSS License</text>
<text text-anchor="middle" x="1125.28" y="-1674.77" font-family="Times,serif" font-size="14.00" fill="gray">420f76793a694fd8a20a2331a80f1407</text>
</g>
<!-- 55008&#45;&gt;55009 -->
<g id="edge30" class="edge">
<title>55008&#45;&gt;55009</title>
<path fill="none" stroke="#e18745" d="M1101.16,-1659.02C1101.11,-1658.94 1101.05,-1658.85 1101,-1658.77"/>
<polygon fill="#e18745" stroke="#e18745" points="1104.47,-1657.71 1096.21,-1651.07 1098.52,-1661.41 1104.47,-1657.71"/>
</g>
</g>
</svg>
