<?xml version="1.0" encoding="UTF-8" standalone="no"?>
<!DOCTYPE svg PUBLIC "-//W3C//DTD SVG 1.1//EN"
 "http://www.w3.org/Graphics/SVG/1.1/DTD/svg11.dtd">
<!-- Generated by graphviz version 10.0.1 (0)
 -->
<!-- Pages: 1 -->
<svg width="2545pt" height="2118pt"
 viewBox="0.00 0.00 2545.00 2118.00" xmlns="http://www.w3.org/2000/svg" xmlns:xlink="http://www.w3.org/1999/xlink">
<g id="graph0" class="graph" transform="scale(1 1) rotate(0) translate(4 2114)">
<polygon fill="white" stroke="none" points="-4,4 -4,-2114 2541,-2114 2541,4 -4,4"/>
<!-- 5 -->
<g id="node1" class="node">
<title>5</title>
<text text-anchor="start" x="1954.22" y="-625.92" font-family="Times,serif" font-size="14.00">OSI: </text>
<text text-anchor="start" x="1983.47" y="-625.92" font-family="Times,serif" font-weight="bold" font-size="14.00" fill="#8b0000">Rejected</text>
</g>
<!-- 8 -->
<g id="node2" class="node">
<title>8</title>
<ellipse fill="none" stroke="#dac767" cx="1804.48" cy="-922.61" rx="158.22" ry="28.99"/>
<text text-anchor="middle" x="1804.48" y="-925.81" font-family="Times,serif" font-size="14.00" fill="gray">SPDXLicense</text>
<text text-anchor="middle" x="1804.48" y="-909.31" font-family="Times,serif" font-size="14.00" fill="gray">a2d44656c16f4e916365d5d0faa11796</text>
</g>
<!-- 5&#45;&gt;8 -->
<g id="edge1" class="edge">
<title>5&#45;&gt;8</title>
<path fill="none" stroke="#dac767" d="M1989.3,-647.72C1964.72,-740.45 1956.05,-755.3 1838.17,-885.49"/>
<polygon fill="#dac767" stroke="#dac767" points="1835.76,-882.94 1831.64,-892.7 1840.95,-887.64 1835.76,-882.94"/>
</g>
<!-- 9 -->
<g id="node3" class="node">
<title>9</title>
<polygon fill="none" stroke="black" points="1369.19,-1042.33 1369.19,-1057.24 1314.88,-1067.78 1238.09,-1067.78 1183.79,-1057.24 1183.79,-1042.33 1238.09,-1031.78 1314.88,-1031.78 1369.19,-1042.33"/>
<polygon fill="none" stroke="black" points="1373.19,-1039.03 1373.19,-1060.54 1315.27,-1071.78 1237.71,-1071.78 1179.79,-1060.54 1179.79,-1039.03 1237.71,-1027.78 1315.27,-1027.78 1373.19,-1039.03"/>
<polygon fill="none" stroke="black" points="1377.19,-1035.73 1377.19,-1063.84 1315.65,-1075.78 1237.32,-1075.78 1175.79,-1063.84 1175.79,-1035.73 1237.32,-1023.78 1315.65,-1023.78 1377.19,-1035.73"/>
<text text-anchor="middle" x="1276.49" y="-1044.73" font-family="Times,serif" font-size="14.00">spdx:SchemeReport</text>
</g>
<!-- 8&#45;&gt;9 -->
<g id="edge2" class="edge">
<title>8&#45;&gt;9</title>
<path fill="none" stroke="#dac767" d="M1705.98,-945.62C1631.96,-963.03 1568.88,-978.36 1365.13,-1028.13"/>
<polygon fill="#dac767" stroke="#dac767" points="1364.41,-1024.7 1355.53,-1030.48 1366.07,-1031.5 1364.41,-1024.7"/>
</g>
<!-- 25485 -->
<g id="node11" class="node">
<title>25485</title>
<polygon fill="none" stroke="black" points="1003.26,-848.05 1003.26,-862.96 941.5,-873.51 854.15,-873.51 792.38,-862.96 792.38,-848.05 854.15,-837.51 941.5,-837.51 1003.26,-848.05"/>
<polygon fill="none" stroke="black" points="1007.26,-844.67 1007.26,-866.34 941.84,-877.51 853.81,-877.51 788.38,-866.34 788.38,-844.67 853.81,-833.51 941.84,-833.51 1007.26,-844.67"/>
<text text-anchor="middle" x="897.82" y="-850.46" font-family="Times,serif" font-size="14.00">scancode:schemereport</text>
</g>
<!-- 9&#45;&gt;25485 -->
<g id="edge3" class="edge">
<title>9&#45;&gt;25485</title>
<path fill="none" stroke="#deb256" stroke-width="2" d="M1235.46,-1023.7C1168.81,-986.33 1036.7,-918.34 958.95,-881.19"/>
<polygon fill="#deb256" stroke="#deb256" stroke-width="2" points="951.48,-877.64 962.45,-877.87 954.01,-878.29 960.73,-881.48 960.51,-881.93 960.3,-882.39 953.58,-879.19 958.58,-886 951.48,-877.64"/>
</g>
<!-- 57554 -->
<g id="node19" class="node">
<title>57554</title>
<polygon fill="none" stroke="#379469" points="1016.98,-1189.96 1016.98,-1204.87 902.32,-1215.42 740.17,-1215.42 625.51,-1204.87 625.51,-1189.96 740.17,-1179.42 902.32,-1179.42 1016.98,-1189.96"/>
<polygon fill="none" stroke="#379469" points="1020.98,-1186.31 1020.98,-1208.52 902.51,-1219.42 739.98,-1219.42 621.51,-1208.52 621.51,-1186.31 739.98,-1175.42 902.51,-1175.42 1020.98,-1186.31"/>
<text text-anchor="middle" x="821.24" y="-1192.37" font-family="Times,serif" font-size="14.00">metaeffekt:Scheme Language Report License</text>
</g>
<!-- 9&#45;&gt;57554 -->
<g id="edge4" class="edge">
<title>9&#45;&gt;57554</title>
<path fill="none" stroke="#379469" stroke-width="2" d="M1210.55,-1070.94C1020.07,-1132.07 967.27,-1149.07 899.46,-1171.47"/>
<polygon fill="#379469" stroke="#379469" stroke-width="2" points="891.19,-1174.21 899.27,-1166.79 893.46,-1172.93 900.52,-1170.59 900.68,-1171.07 900.84,-1171.54 893.78,-1173.88 902.09,-1175.34 891.19,-1174.21"/>
</g>
<!-- 10 -->
<g id="node4" class="node">
<title>10</title>
<polygon fill="none" stroke="black" points="1147.48,-781.52 1147.48,-796.43 1105.83,-806.97 1046.94,-806.97 1005.29,-796.43 1005.29,-781.52 1046.94,-770.97 1105.83,-770.97 1147.48,-781.52"/>
<polygon fill="none" stroke="black" points="1151.48,-778.4 1151.48,-799.54 1106.33,-810.97 1046.44,-810.97 1001.29,-799.54 1001.29,-778.4 1046.44,-766.97 1106.33,-766.97 1151.48,-778.4"/>
<text text-anchor="middle" x="1076.39" y="-783.92" font-family="Times,serif" font-size="14.00">SchemeReport</text>
</g>
<!-- 10&#45;&gt;9 -->
<g id="edge5" class="edge">
<title>10&#45;&gt;9</title>
<path fill="none" stroke="black" stroke-width="2" d="M1094.79,-811.16C1137.57,-862.86 1152.04,-881.92 1250.46,-1014.67"/>
<polygon fill="black" stroke="black" stroke-width="2" points="1255.61,-1021.62 1246.04,-1016.26 1253.68,-1019.86 1249.25,-1013.88 1249.65,-1013.58 1250.06,-1013.29 1254.48,-1019.26 1253.27,-1010.9 1255.61,-1021.62"/>
</g>
<!-- 10&#45;&gt;25485 -->
<g id="edge6" class="edge">
<title>10&#45;&gt;25485</title>
<path fill="none" stroke="black" stroke-width="2" d="M1000.85,-795.84C967.27,-800.48 951.33,-807.58 929.83,-825.79"/>
<polygon fill="black" stroke="black" stroke-width="2" points="923.45,-831.4 927.98,-821.42 925.04,-829.33 930.63,-824.42 930.96,-824.8 931.29,-825.17 925.7,-830.08 933.93,-828.18 923.45,-831.4"/>
</g>
<!-- 42248 -->
<g id="node17" class="node">
<title>42248</title>
<polygon fill="none" stroke="#379469" points="1165.03,-420.47 1165.03,-435.38 1110.4,-445.93 1033.15,-445.93 978.52,-435.38 978.52,-420.47 1033.15,-409.93 1110.4,-409.93 1165.03,-420.47"/>
<polygon fill="none" stroke="#379469" points="1169.03,-417.17 1169.03,-438.69 1110.78,-449.93 1032.76,-449.93 974.52,-438.69 974.52,-417.17 1032.76,-405.93 1110.78,-405.93 1169.03,-417.17"/>
<text text-anchor="middle" x="1071.77" y="-422.88" font-family="Times,serif" font-size="14.00">cavil:SchemeReport</text>
</g>
<!-- 10&#45;&gt;42248 -->
<g id="edge7" class="edge">
<title>10&#45;&gt;42248</title>
<path fill="none" stroke="#379469" stroke-width="2" d="M1073.56,-766.55C1048.4,-566.89 1046.26,-542.12 1064.19,-461.1"/>
<polygon fill="#379469" stroke="#379469" stroke-width="2" points="1066.06,-452.76 1068.26,-463.5 1065.99,-455.37 1064.36,-462.62 1063.87,-462.51 1063.38,-462.4 1065.01,-455.15 1059.48,-461.53 1066.06,-452.76"/>
</g>
<!-- 10&#45;&gt;57554 -->
<g id="edge8" class="edge">
<title>10&#45;&gt;57554</title>
<path fill="none" stroke="#379469" stroke-dasharray="5,2" d="M1049.56,-811.44C864.93,-966.3 853.6,-982.8 826.22,-1164.06"/>
<polygon fill="#379469" stroke="#379469" points="824.74,-1173.89 821.78,-1163.33 825.31,-1170.15 826.23,-1164 826.23,-1164 826.23,-1164 825.31,-1170.15 830.68,-1164.67 824.74,-1173.89"/>
</g>
<!-- 11 -->
<g id="node5" class="node">
<title>11</title>
<polygon fill="none" stroke="black" points="1369.17,-1103.99 1369.17,-1118.9 1281.44,-1129.45 1157.38,-1129.45 1069.65,-1118.9 1069.65,-1103.99 1157.38,-1093.45 1281.44,-1093.45 1369.17,-1103.99"/>
<polygon fill="none" stroke="black" points="1373.17,-1100.44 1373.17,-1122.45 1281.68,-1133.45 1157.14,-1133.45 1065.65,-1122.45 1065.65,-1100.44 1157.14,-1089.45 1281.68,-1089.45 1373.17,-1100.44"/>
<text text-anchor="middle" x="1219.41" y="-1106.4" font-family="Times,serif" font-size="14.00">Scheme Language Report License</text>
</g>
<!-- 11&#45;&gt;9 -->
<g id="edge9" class="edge">
<title>11&#45;&gt;9</title>
<path fill="none" stroke="#dac767" stroke-width="2" d="M1241.43,-1088.96C1242.7,-1087.58 1244.06,-1086.09 1245.54,-1084.45"/>
<polygon fill="#dac767" stroke="#dac767" stroke-width="2" points="1251.31,-1078.04 1247.97,-1088.49 1249.97,-1080.28 1245,-1085.81 1244.62,-1085.48 1244.25,-1085.14 1249.23,-1079.61 1241.28,-1082.47 1251.31,-1078.04"/>
</g>
<!-- 11&#45;&gt;25485 -->
<g id="edge10" class="edge">
<title>11&#45;&gt;25485</title>
<path fill="none" stroke="#deb256" stroke-width="2" d="M1184.86,-1089.07C1005.06,-972.55 980.43,-954.81 923.38,-886.55"/>
<polygon fill="#deb256" stroke="#deb256" stroke-width="2" points="917.81,-879.84 927.66,-884.66 919.83,-881.49 924.58,-887.21 924.2,-887.53 923.81,-887.85 919.06,-882.13 920.73,-890.41 917.81,-879.84"/>
</g>
<!-- 11&#45;&gt;57554 -->
<g id="edge11" class="edge">
<title>11&#45;&gt;57554</title>
<path fill="none" stroke="#379469" stroke-width="2" d="M1142.17,-1132.03C1053.79,-1155.52 1002.43,-1168.8 962.92,-1177.3"/>
<polygon fill="#379469" stroke="#379469" stroke-width="2" points="954.46,-1179.08 963.32,-1172.62 956.86,-1178.07 964.14,-1176.54 964.24,-1177.03 964.35,-1177.52 957.07,-1179.04 965.17,-1181.43 954.46,-1179.08"/>
</g>
<!-- 68514 -->
<g id="node23" class="node">
<title>68514</title>
<polygon fill="none" stroke="#00876c" points="1779.14,-1266.21 1779.14,-1281.12 1678.76,-1291.67 1536.8,-1291.67 1436.42,-1281.12 1436.42,-1266.21 1536.8,-1255.67 1678.76,-1255.67 1779.14,-1266.21"/>
<polygon fill="none" stroke="#00876c" points="1783.14,-1262.61 1783.14,-1284.73 1678.97,-1295.67 1536.59,-1295.67 1432.42,-1284.73 1432.42,-1262.61 1536.59,-1251.67 1678.97,-1251.67 1783.14,-1262.61"/>
<text text-anchor="middle" x="1607.78" y="-1268.62" font-family="Times,serif" font-size="14.00">spdx:Scheme Language Report License</text>
</g>
<!-- 11&#45;&gt;68514 -->
<g id="edge12" class="edge">
<title>11&#45;&gt;68514</title>
<path fill="none" stroke="#00876c" stroke-width="2" d="M1260.73,-1133.94C1395.49,-1207.24 1448.37,-1234.95 1500.24,-1250.86"/>
<polygon fill="#00876c" stroke="#00876c" stroke-width="2" points="1508.63,-1253.31 1497.77,-1254.83 1506.03,-1253.08 1498.89,-1250.99 1499.03,-1250.51 1499.17,-1250.03 1506.31,-1252.12 1500.29,-1246.19 1508.63,-1253.31"/>
</g>
<!-- 12 -->
<g id="node6" class="node">
<title>12</title>
<text text-anchor="middle" x="2313.03" y="-1167.24" font-family="Times,serif" font-size="14.00">SPDXLicense:</text>
<text text-anchor="middle" x="2313.03" y="-1150.74" font-family="Times,serif" font-size="14.00">Code derived from the document &quot;Revised Report on Scheme&quot; and subsequent</text>
<text text-anchor="middle" x="2313.03" y="-1134.24" font-family="Times,serif" font-size="14.00">revisions, is distributed under the following license:</text>
</g>
<!-- 12&#45;&gt;8 -->
<g id="edge13" class="edge">
<title>12&#45;&gt;8</title>
<path fill="none" stroke="#dac767" d="M2278.43,-1127.06C2178.9,-1045.21 2145.15,-1029.58 1896.19,-951.31"/>
<polygon fill="#dac767" stroke="#dac767" points="1897.36,-948.01 1886.77,-948.35 1895.26,-954.69 1897.36,-948.01"/>
</g>
<!-- 13 -->
<g id="node7" class="node">
<title>13</title>
<text text-anchor="middle" x="2174.27" y="-821.34" font-family="Times,serif" font-size="14.00">$TEXT</text>
</g>
<!-- 13&#45;&gt;8 -->
<g id="edge14" class="edge">
<title>13&#45;&gt;8</title>
<path fill="none" stroke="#dac767" d="M2145.74,-834C2075.74,-852.66 2048.62,-859.75 1907.93,-895.98"/>
<polygon fill="#dac767" stroke="#dac767" points="1907.43,-892.5 1898.62,-898.38 1909.18,-899.28 1907.43,-892.5"/>
</g>
<!-- 14 -->
<g id="node8" class="node">
<title>14</title>
<text text-anchor="middle" x="2348.97" y="-766.42" font-family="Times,serif" font-size="14.00">$TEXT</text>
</g>
<!-- 14&#45;&gt;13 -->
<g id="edge15" class="edge">
<title>14&#45;&gt;13</title>
<path fill="none" stroke="#dac767" d="M2320.54,-781.43C2295.74,-789.97 2276.91,-795.77 2213.68,-814.64"/>
<polygon fill="#dac767" stroke="#dac767" points="2212.74,-811.27 2204.15,-817.48 2214.74,-817.97 2212.74,-811.27"/>
</g>
<!-- 5550 -->
<g id="node9" class="node">
<title>5550</title>
<text text-anchor="middle" x="74.88" y="-601.55" font-family="Times,serif" font-size="14.00">LicenseType Permissive</text>
</g>
<!-- 25484 -->
<g id="node10" class="node">
<title>25484</title>
<ellipse fill="none" stroke="#deb256" cx="457.41" cy="-641.93" rx="152.38" ry="28.99"/>
<text text-anchor="middle" x="457.41" y="-645.13" font-family="Times,serif" font-size="14.00" fill="gray">ScancodeData</text>
<text text-anchor="middle" x="457.41" y="-628.63" font-family="Times,serif" font-size="14.00" fill="gray">4e1a5376ae8905f4ff6e3bf2dccece21</text>
</g>
<!-- 5550&#45;&gt;25484 -->
<g id="edge16" class="edge">
<title>5550&#45;&gt;25484</title>
<path fill="none" stroke="#deb256" d="M149.23,-600C196.38,-597.74 235.91,-602.24 335.11,-619.74"/>
<polygon fill="#deb256" stroke="#deb256" points="334.24,-623.14 344.7,-621.44 335.46,-616.25 334.24,-623.14"/>
</g>
<!-- 25484&#45;&gt;25485 -->
<g id="edge17" class="edge">
<title>25484&#45;&gt;25485</title>
<path fill="none" stroke="#deb256" d="M515.98,-669.1C593.13,-705.05 635.97,-726.06 842.5,-828.15"/>
<polygon fill="#deb256" stroke="#deb256" points="840.9,-831.27 851.42,-832.57 844.01,-825 840.9,-831.27"/>
</g>
<!-- 25485&#45;&gt;9 -->
<g id="edge18" class="edge">
<title>25485&#45;&gt;9</title>
<path fill="none" stroke="#00876c" stroke-width="2" d="M932.22,-877.85C995.09,-913.53 1129.45,-982.85 1210.48,-1021.76"/>
<polygon fill="#00876c" stroke="#00876c" stroke-width="2" points="1218.38,-1025.53 1207.42,-1025.28 1215.85,-1024.88 1209.14,-1021.68 1209.35,-1021.22 1209.57,-1020.77 1216.28,-1023.98 1211.29,-1017.16 1218.38,-1025.53"/>
</g>
<!-- 25485&#45;&gt;57554 -->
<g id="edge19" class="edge">
<title>25485&#45;&gt;57554</title>
<path fill="none" stroke="#379469" stroke-dasharray="5,2" d="M883.31,-877.8C796.26,-1011.86 791.38,-1028.05 815.35,-1164.42"/>
<polygon fill="#379469" stroke="#379469" points="817.07,-1174.12 810.9,-1165.06 816.41,-1170.4 815.33,-1164.28 815.33,-1164.28 815.33,-1164.28 816.41,-1170.4 819.76,-1163.49 817.07,-1174.12"/>
</g>
<!-- 25486 -->
<g id="node12" class="node">
<title>25486</title>
<text text-anchor="middle" x="225.35" y="-401.37" font-family="Times,serif" font-size="14.00">$TEXT</text>
</g>
<!-- 25486&#45;&gt;25484 -->
<g id="edge20" class="edge">
<title>25486&#45;&gt;25484</title>
<path fill="none" stroke="#deb256" d="M237.54,-424.02C280.49,-485.74 294.31,-500.04 415.9,-605.86"/>
<polygon fill="#deb256" stroke="#deb256" points="413.47,-608.38 423.32,-612.3 418.07,-603.1 413.47,-608.38"/>
</g>
<!-- 35432 -->
<g id="node13" class="node">
<title>35432</title>
<text text-anchor="middle" x="1414.8" y="-2087.4" font-family="Times,serif" font-size="14.00">LicenseTag (ScopedLicenseTag &quot;OrtLicenseCategorization&quot; &quot;permissive&quot; NoLicenseTagText)</text>
</g>
<!-- 39864 -->
<g id="node15" class="node">
<title>39864</title>
<ellipse fill="none" stroke="#d43d51" cx="1287.64" cy="-1498.91" rx="157.68" ry="28.99"/>
<text text-anchor="middle" x="1287.64" y="-1502.11" font-family="Times,serif" font-size="14.00" fill="gray">OrtLicenseCategorization</text>
<text text-anchor="middle" x="1287.64" y="-1485.61" font-family="Times,serif" font-size="14.00" fill="gray">25036d4d2ce1d501fc41e3c802a686fb</text>
</g>
<!-- 35432&#45;&gt;39864 -->
<g id="edge21" class="edge">
<title>35432&#45;&gt;39864</title>
<path fill="none" stroke="#d43d51" d="M1409.7,-2074.5C1366.17,-1921.32 1362.22,-1902.81 1295.12,-1539.41"/>
<polygon fill="#d43d51" stroke="#d43d51" points="1298.6,-1538.97 1293.34,-1529.77 1291.72,-1540.24 1298.6,-1538.97"/>
</g>
<!-- 35433 -->
<g id="node14" class="node">
<title>35433</title>
<text text-anchor="middle" x="1278.86" y="-1563.21" font-family="Times,serif" font-size="14.00">LicenseTag (ScopedLicenseTag &quot;OrtLicenseCategorization&quot; &quot;include&#45;in&#45;notice&#45;file&quot; NoLicenseTagText)</text>
</g>
<!-- 35433&#45;&gt;39864 -->
<g id="edge22" class="edge">
<title>35433&#45;&gt;39864</title>
<path fill="none" stroke="#d43d51" d="M1282.66,-1550.4C1283.18,-1547.22 1283.64,-1543.81 1284.11,-1539.51"/>
<polygon fill="#d43d51" stroke="#d43d51" points="1287.56,-1540.18 1285.04,-1529.89 1280.59,-1539.5 1287.56,-1540.18"/>
</g>
<!-- 39864&#45;&gt;9 -->
<g id="edge23" class="edge">
<title>39864&#45;&gt;9</title>
<path fill="none" stroke="#d43d51" d="M1287.63,-1469.55C1287.55,-1366.99 1286.81,-1341.71 1277.83,-1087.65"/>
<polygon fill="#d43d51" stroke="#d43d51" points="1281.33,-1087.55 1277.48,-1077.68 1274.33,-1087.8 1281.33,-1087.55"/>
</g>
<!-- 42247 -->
<g id="node16" class="node">
<title>42247</title>
<ellipse fill="none" stroke="#379469" cx="1056.12" cy="-29.07" rx="156.09" ry="28.99"/>
<text text-anchor="middle" x="1056.12" y="-32.27" font-family="Times,serif" font-size="14.00" fill="gray">CavilLicenseChange</text>
<text text-anchor="middle" x="1056.12" y="-15.77" font-family="Times,serif" font-size="14.00" fill="gray">f82983b7e194f31ee21124c2c995e2f4</text>
</g>
<!-- 42247&#45;&gt;42248 -->
<g id="edge24" class="edge">
<title>42247&#45;&gt;42248</title>
<path fill="none" stroke="#379469" d="M1053.43,-58.36C1045.36,-148.7 1046.94,-172.88 1068.49,-394.21"/>
<polygon fill="#379469" stroke="#379469" points="1065,-394.47 1069.45,-404.08 1071.96,-393.79 1065,-394.47"/>
</g>
<!-- 57553 -->
<g id="node18" class="node">
<title>57553</title>
<ellipse fill="none" stroke="#379469" cx="338.57" cy="-1393.38" rx="156.09" ry="28.99"/>
<text text-anchor="middle" x="338.57" y="-1396.58" font-family="Times,serif" font-size="14.00" fill="gray">MetaeffektLicense</text>
<text text-anchor="middle" x="338.57" y="-1380.08" font-family="Times,serif" font-size="14.00" fill="gray">4be1e59d4d07ce5a08fe439163af28ea</text>
</g>
<!-- 57553&#45;&gt;57554 -->
<g id="edge25" class="edge">
<title>57553&#45;&gt;57554</title>
<path fill="none" stroke="#379469" d="M399.52,-1366.33C482.86,-1329.62 528.95,-1311.31 753.19,-1223.93"/>
<polygon fill="#379469" stroke="#379469" points="754.2,-1227.29 762.25,-1220.4 751.66,-1220.77 754.2,-1227.29"/>
</g>
<!-- 57555 -->
<g id="node20" class="node">
<title>57555</title>
<polygon fill="none" stroke="#379469" points="921.5,-1238.05 921.5,-1252.96 835.72,-1263.51 714.41,-1263.51 628.63,-1252.96 628.63,-1238.05 714.41,-1227.51 835.72,-1227.51 921.5,-1238.05"/>
<text text-anchor="middle" x="775.07" y="-1240.46" font-family="Times,serif" font-size="14.00">licenses.nuget.org/SchemeReport</text>
</g>
<!-- 57555&#45;&gt;57554 -->
<g id="edge26" class="edge">
<title>57555&#45;&gt;57554</title>
<path fill="none" stroke="#379469" stroke-dasharray="5,2" d="M786.7,-1227.01C786.82,-1226.87 786.95,-1226.73 787.07,-1226.59"/>
<polygon fill="#379469" stroke="#379469" points="793.14,-1220.6 789.19,-1230.83 790.45,-1223.26 786.02,-1227.62 786.02,-1227.62 786.02,-1227.62 790.45,-1223.26 782.86,-1224.42 793.14,-1220.6"/>
</g>
<!-- 57556 -->
<g id="node21" class="node">
<title>57556</title>
<polygon fill="none" stroke="#379469" points="710.47,-1706.95 710.47,-1721.86 562.38,-1732.41 352.96,-1732.41 204.87,-1721.86 204.87,-1706.95 352.96,-1696.41 562.38,-1696.41 710.47,-1706.95"/>
<text text-anchor="middle" x="457.67" y="-1709.36" font-family="Times,serif" font-size="14.00">{{SchemeReport}} https://spdx.org/licenses/SchemeReport</text>
</g>
<!-- 57556&#45;&gt;57554 -->
<g id="edge27" class="edge">
<title>57556&#45;&gt;57554</title>
<path fill="none" stroke="#379469" stroke-dasharray="5,2" d="M464.92,-1696.04C530.93,-1529.18 541.76,-1513.88 794.53,-1227.66"/>
<polygon fill="#379469" stroke="#379469" points="800.88,-1220.47 797.64,-1230.94 798.38,-1223.3 794.26,-1227.96 794.26,-1227.96 794.26,-1227.96 798.38,-1223.3 790.89,-1224.98 800.88,-1220.47"/>
</g>
<!-- 68513 -->
<g id="node22" class="node">
<title>68513</title>
<ellipse fill="none" stroke="#00876c" cx="926.91" cy="-1043.02" rx="157.68" ry="28.99"/>
<text text-anchor="middle" x="926.91" y="-1046.22" font-family="Times,serif" font-size="14.00" fill="gray">LicenseLynx</text>
<text text-anchor="middle" x="926.91" y="-1029.72" font-family="Times,serif" font-size="14.00" fill="gray">fa49c509545239fa23d0a009c465511c</text>
</g>
<!-- 68513&#45;&gt;9 -->
<g id="edge28" class="edge">
<title>68513&#45;&gt;9</title>
<path fill="none" stroke="#00876c" d="M1084.76,-1044.49C1106.08,-1045.01 1131.66,-1045.69 1164.08,-1046.6"/>
<polygon fill="#00876c" stroke="#00876c" points="1163.73,-1050.09 1173.82,-1046.87 1163.93,-1043.09 1163.73,-1050.09"/>
</g>
<!-- 68514&#45;&gt;9 -->
<g id="edge29" class="edge">
<title>68514&#45;&gt;9</title>
<path fill="none" stroke="#00876c" stroke-width="2" d="M1576.52,-1251.23C1512.94,-1205.71 1486.97,-1188.31 1325.8,-1082.23"/>
<polygon fill="#00876c" stroke="#00876c" stroke-width="2" points="1318.55,-1077.46 1329.38,-1079.2 1320.97,-1078.45 1327.18,-1082.54 1326.9,-1082.96 1326.63,-1083.38 1320.42,-1079.29 1324.43,-1086.72 1318.55,-1077.46"/>
</g>
</g>
</svg>
