<?xml version="1.0" encoding="UTF-8" standalone="no"?>
<!DOCTYPE svg PUBLIC "-//W3C//DTD SVG 1.1//EN"
 "http://www.w3.org/Graphics/SVG/1.1/DTD/svg11.dtd">
<!-- Generated by graphviz version 10.0.1 (0)
 -->
<!-- Pages: 1 -->
<svg width="2192pt" height="2282pt"
 viewBox="0.00 0.00 2192.00 2282.00" xmlns="http://www.w3.org/2000/svg" xmlns:xlink="http://www.w3.org/1999/xlink">
<g id="graph0" class="graph" transform="scale(1 1) rotate(0) translate(4 2278)">
<polygon fill="white" stroke="none" points="-4,4 -4,-2278 2188,-2278 2188,4 -4,4"/>
<!-- 3817 -->
<g id="node1" class="node">
<title>3817</title>
<ellipse fill="none" stroke="#b8bf62" cx="713.46" cy="-1127.1" rx="159.28" ry="28.99"/>
<text text-anchor="middle" x="713.46" y="-1130.3" font-family="Times,serif" font-size="14.00" fill="gray">SPDXLicense</text>
<text text-anchor="middle" x="713.46" y="-1113.8" font-family="Times,serif" font-size="14.00" fill="gray">7289cb1509f7e688f21e2033288b6800</text>
</g>
<!-- 3818 -->
<g id="node2" class="node">
<title>3818</title>
<polygon fill="none" stroke="black" points="1162.69,-1086.76 1162.69,-1101.68 1118.44,-1112.22 1055.88,-1112.22 1011.63,-1101.68 1011.63,-1086.76 1055.88,-1076.22 1118.44,-1076.22 1162.69,-1086.76"/>
<polygon fill="none" stroke="black" points="1166.69,-1083.6 1166.69,-1104.83 1118.91,-1116.22 1055.41,-1116.22 1007.63,-1104.83 1007.63,-1083.6 1055.41,-1072.22 1118.91,-1072.22 1166.69,-1083.6"/>
<polygon fill="none" stroke="black" points="1170.69,-1080.45 1170.69,-1107.99 1119.38,-1120.22 1054.94,-1120.22 1003.63,-1107.99 1003.63,-1080.45 1054.94,-1068.22 1119.38,-1068.22 1170.69,-1080.45"/>
<text text-anchor="middle" x="1087.16" y="-1089.17" font-family="Times,serif" font-size="14.00">spdx:SGI&#45;B&#45;1.1</text>
</g>
<!-- 3817&#45;&gt;3818 -->
<g id="edge1" class="edge">
<title>3817&#45;&gt;3818</title>
<path fill="none" stroke="#b8bf62" d="M821.4,-1105.43C858.71,-1100.82 904.35,-1098.85 991.95,-1096.56"/>
<polygon fill="#b8bf62" stroke="#b8bf62" points="992.01,-1100.05 1001.92,-1096.3 991.83,-1093.06 992.01,-1100.05"/>
</g>
<!-- 5582 -->
<g id="node6" class="node">
<title>5582</title>
<polygon fill="none" stroke="#e06f45" points="983.1,-663.56 983.1,-678.47 939.51,-689.02 877.86,-689.02 834.26,-678.47 834.26,-663.56 877.86,-653.02 939.51,-653.02 983.1,-663.56"/>
<polygon fill="none" stroke="#e06f45" points="987.1,-660.42 987.1,-681.62 939.98,-693.02 877.38,-693.02 830.26,-681.62 830.26,-660.42 877.38,-649.02 939.98,-649.02 987.1,-660.42"/>
<text text-anchor="middle" x="908.68" y="-665.97" font-family="Times,serif" font-size="14.00">google:SGIB11</text>
</g>
<!-- 3818&#45;&gt;5582 -->
<g id="edge2" class="edge">
<title>3818&#45;&gt;5582</title>
<path fill="none" stroke="#e06f45" stroke-width="2" d="M1076.49,-1067.98C976.76,-822.8 965.68,-795.92 923.55,-703.56"/>
<polygon fill="#e06f45" stroke="#e06f45" stroke-width="2" points="919.97,-695.71 928.21,-702.94 921.49,-697.83 924.58,-704.6 924.12,-704.8 923.67,-705.01 920.58,-698.25 920.03,-706.67 919.97,-695.71"/>
</g>
<!-- 48561 -->
<g id="node19" class="node">
<title>48561</title>
<polygon fill="none" stroke="#00876c" points="1058.61,-1708.18 1058.61,-1723.1 980.94,-1733.64 871.1,-1733.64 793.44,-1723.1 793.44,-1708.18 871.1,-1697.64 980.94,-1697.64 1058.61,-1708.18"/>
<polygon fill="none" stroke="#00876c" points="1062.61,-1704.69 1062.61,-1726.59 981.21,-1737.64 870.83,-1737.64 789.44,-1726.59 789.44,-1704.69 870.83,-1693.64 981.21,-1693.64 1062.61,-1704.69"/>
<text text-anchor="middle" x="926.02" y="-1710.59" font-family="Times,serif" font-size="14.00">metaeffekt:SGI B License 1.1</text>
</g>
<!-- 3818&#45;&gt;48561 -->
<g id="edge3" class="edge">
<title>3818&#45;&gt;48561</title>
<path fill="none" stroke="#00876c" stroke-width="2" d="M1079.87,-1120.62C974.71,-1501.51 967.29,-1529.06 933.34,-1682.53"/>
<polygon fill="#00876c" stroke="#00876c" stroke-width="2" points="931.48,-1690.93 929.24,-1680.2 931.54,-1688.32 933.15,-1681.06 933.64,-1681.17 934.12,-1681.28 932.52,-1688.54 938.03,-1682.14 931.48,-1690.93"/>
</g>
<!-- 3819 -->
<g id="node3" class="node">
<title>3819</title>
<polygon fill="none" stroke="black" points="1403.01,-737.34 1403.01,-752.25 1371.42,-762.8 1326.76,-762.8 1295.17,-752.25 1295.17,-737.34 1326.76,-726.8 1371.42,-726.8 1403.01,-737.34"/>
<polygon fill="none" stroke="black" points="1407.01,-734.46 1407.01,-755.13 1372.07,-766.8 1326.11,-766.8 1291.17,-755.13 1291.17,-734.46 1326.11,-722.8 1372.07,-722.8 1407.01,-734.46"/>
<text text-anchor="middle" x="1349.09" y="-739.75" font-family="Times,serif" font-size="14.00">SGI&#45;B&#45;1.1</text>
</g>
<!-- 3819&#45;&gt;3818 -->
<g id="edge4" class="edge">
<title>3819&#45;&gt;3818</title>
<path fill="none" stroke="black" stroke-width="2" d="M1329.48,-767.14C1264.51,-841.35 1249.34,-862.05 1111.96,-1058.71"/>
<polygon fill="black" stroke="black" stroke-width="2" points="1106.93,-1065.91 1108.97,-1055.13 1107.99,-1063.52 1112.25,-1057.42 1112.66,-1057.71 1113.07,-1058 1108.81,-1064.09 1116.35,-1060.29 1106.93,-1065.91"/>
</g>
<!-- 26180 -->
<g id="node13" class="node">
<title>26180</title>
<polygon fill="none" stroke="#e18745" points="1739.14,-652.28 1739.14,-667.19 1683.22,-677.73 1604.13,-677.73 1548.2,-667.19 1548.2,-652.28 1604.13,-641.73 1683.22,-641.73 1739.14,-652.28"/>
<polygon fill="none" stroke="#e18745" points="1743.14,-648.96 1743.14,-670.5 1683.59,-681.73 1603.75,-681.73 1544.2,-670.5 1544.2,-648.96 1603.75,-637.73 1683.59,-637.73 1743.14,-648.96"/>
<text text-anchor="middle" x="1643.67" y="-654.68" font-family="Times,serif" font-size="14.00">fossology:SGI&#45;B&#45;1.1</text>
</g>
<!-- 3819&#45;&gt;26180 -->
<g id="edge5" class="edge">
<title>3819&#45;&gt;26180</title>
<path fill="none" stroke="#e18745" stroke-width="2" d="M1386.75,-727.4C1460.87,-693.24 1500.49,-675.78 1533.01,-667.11"/>
<polygon fill="#e18745" stroke="#e18745" stroke-width="2" points="1541.44,-665.07 1532.78,-671.8 1539.07,-666.16 1531.84,-667.91 1531.72,-667.43 1531.6,-666.94 1538.83,-665.19 1530.66,-663.05 1541.44,-665.07"/>
</g>
<!-- 37472 -->
<g id="node16" class="node">
<title>37472</title>
<polygon fill="none" stroke="#379469" points="1571.9,-405.48 1571.9,-420.39 1527.34,-430.94 1464.31,-430.94 1419.75,-420.39 1419.75,-405.48 1464.31,-394.94 1527.34,-394.94 1571.9,-405.48"/>
<polygon fill="none" stroke="#379469" points="1575.9,-402.32 1575.9,-423.56 1527.8,-434.94 1463.84,-434.94 1415.75,-423.56 1415.75,-402.32 1463.84,-390.94 1527.8,-390.94 1575.9,-402.32"/>
<text text-anchor="middle" x="1495.82" y="-407.89" font-family="Times,serif" font-size="14.00">cavil:SGI&#45;B&#45;1.1</text>
</g>
<!-- 3819&#45;&gt;37472 -->
<g id="edge6" class="edge">
<title>3819&#45;&gt;37472</title>
<path fill="none" stroke="#379469" stroke-width="2" d="M1359.87,-722.48C1447.38,-541.33 1458.92,-516.74 1484.28,-445.62"/>
<polygon fill="#379469" stroke="#379469" stroke-width="2" points="1487.15,-437.55 1488.04,-448.48 1486.76,-440.13 1484.27,-447.14 1483.8,-446.98 1483.33,-446.81 1485.82,-439.8 1479.56,-445.47 1487.15,-437.55"/>
</g>
<!-- 3820 -->
<g id="node4" class="node">
<title>3820</title>
<polygon fill="none" stroke="black" points="1414.12,-910.8 1414.12,-925.71 1325.75,-936.26 1200.77,-936.26 1112.39,-925.71 1112.39,-910.8 1200.77,-900.26 1325.75,-900.26 1414.12,-910.8"/>
<polygon fill="none" stroke="black" points="1418.12,-907.25 1418.12,-929.26 1325.99,-940.26 1200.53,-940.26 1108.39,-929.26 1108.39,-907.25 1200.53,-896.26 1325.99,-896.26 1418.12,-907.25"/>
<text text-anchor="middle" x="1263.26" y="-913.21" font-family="Times,serif" font-size="14.00">SGI Free Software License B v1.1</text>
</g>
<!-- 3820&#45;&gt;3818 -->
<g id="edge7" class="edge">
<title>3820&#45;&gt;3818</title>
<path fill="none" stroke="#b8bf62" stroke-width="2" d="M1233.81,-940.63C1202.14,-965.51 1184.69,-983.95 1117.57,-1059.8"/>
<polygon fill="#b8bf62" stroke="#b8bf62" stroke-width="2" points="1112.09,-1066 1115.35,-1055.52 1113.42,-1063.74 1118.34,-1058.17 1118.72,-1058.51 1119.09,-1058.84 1114.16,-1064.41 1122.09,-1061.49 1112.09,-1066"/>
</g>
<!-- 23345 -->
<g id="node9" class="node">
<title>23345</title>
<polygon fill="none" stroke="black" points="943.6,-1191.21 943.6,-1206.12 883.45,-1216.67 798.4,-1216.67 738.26,-1206.12 738.26,-1191.21 798.4,-1180.67 883.45,-1180.67 943.6,-1191.21"/>
<polygon fill="none" stroke="black" points="947.6,-1187.85 947.6,-1209.48 883.8,-1220.67 798.05,-1220.67 734.26,-1209.48 734.26,-1187.85 798.05,-1176.67 883.8,-1176.67 947.6,-1187.85"/>
<text text-anchor="middle" x="840.93" y="-1193.62" font-family="Times,serif" font-size="14.00">scancode:sgi&#45;freeb&#45;1.1</text>
</g>
<!-- 3820&#45;&gt;23345 -->
<g id="edge8" class="edge">
<title>3820&#45;&gt;23345</title>
<path fill="none" stroke="#dac767" stroke-width="2" d="M1169.44,-936.98C1012.18,-970.6 985.74,-997.18 863.51,-1167.19"/>
<polygon fill="#dac767" stroke="#dac767" stroke-width="2" points="858.46,-1174.21 860.64,-1163.46 859.55,-1171.84 863.89,-1165.8 864.3,-1166.09 864.7,-1166.38 860.36,-1172.42 867.95,-1168.71 858.46,-1174.21"/>
</g>
<!-- 3820&#45;&gt;26180 -->
<g id="edge9" class="edge">
<title>3820&#45;&gt;26180</title>
<path fill="none" stroke="#e18745" stroke-width="2" d="M1292.86,-895.98C1482.51,-753.25 1517.09,-727.98 1592.65,-686.91"/>
<polygon fill="#e18745" stroke="#e18745" stroke-width="2" points="1599.93,-682.97 1593.27,-691.69 1597.92,-684.63 1591.37,-688.17 1591.13,-687.73 1590.9,-687.29 1597.44,-683.75 1589,-683.77 1599.93,-682.97"/>
</g>
<!-- 5581 -->
<g id="node5" class="node">
<title>5581</title>
<ellipse fill="none" stroke="#e06f45" cx="631.2" cy="-331.31" rx="156.62" ry="28.99"/>
<text text-anchor="middle" x="631.2" y="-334.51" font-family="Times,serif" font-size="14.00" fill="gray">GoogleLicense</text>
<text text-anchor="middle" x="631.2" y="-318.01" font-family="Times,serif" font-size="14.00" fill="gray">d3971ace66f4f20e21dc0b8ad06e50e1</text>
</g>
<!-- 5581&#45;&gt;5582 -->
<g id="edge10" class="edge">
<title>5581&#45;&gt;5582</title>
<path fill="none" stroke="#e06f45" d="M661.94,-359.84C729.12,-422.86 748.9,-448.85 885.93,-639.38"/>
<polygon fill="#e06f45" stroke="#e06f45" points="882.98,-641.27 891.66,-647.35 888.67,-637.19 882.98,-641.27"/>
</g>
<!-- 5583 -->
<g id="node7" class="node">
<title>5583</title>
<polygon fill="none" stroke="#e06f45" points="891.37,-373.77 891.37,-388.68 865.3,-399.22 828.44,-399.22 802.37,-388.68 802.37,-373.77 828.44,-363.22 865.3,-363.22 891.37,-373.77"/>
<polygon fill="none" stroke="#e06f45" points="895.37,-371.07 895.37,-391.38 866.08,-403.22 827.66,-403.22 798.37,-391.38 798.37,-371.07 827.66,-359.22 866.08,-359.22 895.37,-371.07"/>
<text text-anchor="middle" x="846.87" y="-376.17" font-family="Times,serif" font-size="14.00">SGIB11</text>
</g>
<!-- 5583&#45;&gt;5582 -->
<g id="edge11" class="edge">
<title>5583&#45;&gt;5582</title>
<path fill="none" stroke="#e06f45" stroke-width="2" d="M849.74,-403.7C858.03,-467.56 862.25,-486.3 900.43,-638.22"/>
<polygon fill="#e06f45" stroke="#e06f45" stroke-width="2" points="902.53,-646.54 895.72,-637.94 901.42,-644.18 899.6,-636.96 900.09,-636.84 900.57,-636.72 902.39,-643.93 904.45,-635.74 902.53,-646.54"/>
</g>
<!-- 23344 -->
<g id="node8" class="node">
<title>23344</title>
<ellipse fill="none" stroke="#dac767" cx="895.39" cy="-804.07" rx="157.15" ry="28.99"/>
<text text-anchor="middle" x="895.39" y="-807.27" font-family="Times,serif" font-size="14.00" fill="gray">ScancodeData</text>
<text text-anchor="middle" x="895.39" y="-790.77" font-family="Times,serif" font-size="14.00" fill="gray">bf9a8c09af6741fa02dd02b5d0b38414</text>
</g>
<!-- 23344&#45;&gt;23345 -->
<g id="edge12" class="edge">
<title>23344&#45;&gt;23345</title>
<path fill="none" stroke="#dac767" d="M877.63,-833.21C804.31,-954.35 802.69,-974.04 835.16,-1164.93"/>
<polygon fill="#dac767" stroke="#dac767" points="831.7,-1165.48 836.83,-1174.75 838.6,-1164.3 831.7,-1165.48"/>
</g>
<!-- 23345&#45;&gt;48561 -->
<g id="edge13" class="edge">
<title>23345&#45;&gt;48561</title>
<path fill="none" stroke="#00876c" stroke-dasharray="5,2" d="M839.98,-1221C827.27,-1522.91 828.26,-1546.71 907.35,-1683.57"/>
<polygon fill="#00876c" stroke="#00876c" points="912.31,-1692.14 903.41,-1685.74 910.42,-1688.87 907.3,-1683.49 907.3,-1683.49 907.3,-1683.49 910.42,-1688.87 911.19,-1681.23 912.31,-1692.14"/>
</g>
<!-- 23346 -->
<g id="node10" class="node">
<title>23346</title>
<polygon fill="none" stroke="black" points="645.59,-957.35 645.59,-972.26 608.49,-982.81 556.02,-982.81 518.92,-972.26 518.92,-957.35 556.02,-946.81 608.49,-946.81 645.59,-957.35"/>
<polygon fill="none" stroke="black" points="649.59,-954.33 649.59,-975.29 609.05,-986.81 555.46,-986.81 514.92,-975.29 514.92,-954.33 555.46,-942.81 609.05,-942.81 649.59,-954.33"/>
<text text-anchor="middle" x="582.25" y="-959.76" font-family="Times,serif" font-size="14.00">sgi&#45;freeb&#45;1.1</text>
</g>
<!-- 23346&#45;&gt;23345 -->
<g id="edge14" class="edge">
<title>23346&#45;&gt;23345</title>
<path fill="none" stroke="black" stroke-width="2" d="M594.95,-987.21C639.48,-1065.06 654.84,-1079.16 796.99,-1170.51"/>
<polygon fill="black" stroke="black" stroke-width="2" points="804.04,-1175.04 793.2,-1173.42 801.61,-1174.07 795.36,-1170.06 795.63,-1169.64 795.9,-1169.22 802.15,-1173.23 798.06,-1165.85 804.04,-1175.04"/>
</g>
<!-- 23347 -->
<g id="node11" class="node">
<title>23347</title>
<polygon fill="none" stroke="#dac767" points="541.05,-1078.53 541.05,-1093.44 455.6,-1103.98 334.75,-1103.98 249.29,-1093.44 249.29,-1078.53 334.75,-1067.98 455.6,-1067.98 541.05,-1078.53"/>
<polygon fill="none" stroke="#dac767" points="545.05,-1074.99 545.05,-1096.98 455.85,-1107.98 334.5,-1107.98 245.29,-1096.98 245.29,-1074.99 334.5,-1063.98 455.85,-1063.98 545.05,-1074.99"/>
<text text-anchor="middle" x="395.17" y="-1080.93" font-family="Times,serif" font-size="14.00">SGI Free Software License B 1.1</text>
</g>
<!-- 23347&#45;&gt;23345 -->
<g id="edge15" class="edge">
<title>23347&#45;&gt;23345</title>
<path fill="none" stroke="#dac767" stroke-width="2" d="M446.88,-1108.36C521.61,-1139.73 561.79,-1149.25 744.68,-1181.71"/>
<polygon fill="#dac767" stroke="#dac767" stroke-width="2" points="753.09,-1183.2 742.46,-1185.88 750.48,-1183.24 743.16,-1181.95 743.25,-1181.45 743.34,-1180.96 750.66,-1182.26 744.03,-1177.02 753.09,-1183.2"/>
</g>
<!-- 26179 -->
<g id="node12" class="node">
<title>26179</title>
<ellipse fill="none" stroke="#e18745" cx="2029.95" cy="-450.6" rx="154.5" ry="28.99"/>
<text text-anchor="middle" x="2029.95" y="-453.8" font-family="Times,serif" font-size="14.00" fill="gray">Fossology</text>
<text text-anchor="middle" x="2029.95" y="-437.3" font-family="Times,serif" font-size="14.00" fill="gray">6aa993ff30ebe30b86e8a3fd1cc347c9</text>
</g>
<!-- 26179&#45;&gt;26180 -->
<g id="edge16" class="edge">
<title>26179&#45;&gt;26180</title>
<path fill="none" stroke="#e18745" d="M1965.49,-477.32C1900.44,-505.44 1858.78,-529.74 1690.48,-631.44"/>
<polygon fill="#e18745" stroke="#e18745" points="1688.84,-628.34 1682.09,-636.51 1692.46,-634.33 1688.84,-628.34"/>
</g>
<!-- 35192 -->
<g id="node14" class="node">
<title>35192</title>
<ellipse fill="none" stroke="#e06f45" cx="1508.98" cy="-1101.47" rx="156.62" ry="28.99"/>
<text text-anchor="middle" x="1508.98" y="-1104.67" font-family="Times,serif" font-size="14.00" fill="gray">OrtLicenseCategorization</text>
<text text-anchor="middle" x="1508.98" y="-1088.17" font-family="Times,serif" font-size="14.00" fill="gray">ad30b00e07883b0aa89e3dd3bf4aaf6c</text>
</g>
<!-- 35192&#45;&gt;3818 -->
<g id="edge17" class="edge">
<title>35192&#45;&gt;3818</title>
<path fill="none" stroke="#e06f45" d="M1374.28,-1086.38C1332.41,-1084.99 1279.13,-1086.5 1182.27,-1090.34"/>
<polygon fill="#e06f45" stroke="#e06f45" points="1182.24,-1086.84 1172.38,-1090.73 1182.52,-1093.83 1182.24,-1086.84"/>
</g>
<!-- 37471 -->
<g id="node15" class="node">
<title>37471</title>
<ellipse fill="none" stroke="#379469" cx="1666.7" cy="-29.28" rx="156.09" ry="28.99"/>
<text text-anchor="middle" x="1666.7" y="-32.48" font-family="Times,serif" font-size="14.00" fill="gray">CavilLicenseChange</text>
<text text-anchor="middle" x="1666.7" y="-15.98" font-family="Times,serif" font-size="14.00" fill="gray">9ccceb86508acd3a9af95352fcbd145d</text>
</g>
<!-- 37471&#45;&gt;37472 -->
<g id="edge18" class="edge">
<title>37471&#45;&gt;37472</title>
<path fill="none" stroke="#379469" d="M1655.33,-58.44C1621.5,-144.91 1610.62,-168.72 1511.15,-380.33"/>
<polygon fill="#379469" stroke="#379469" points="1508.08,-378.64 1506.99,-389.18 1514.42,-381.62 1508.08,-378.64"/>
</g>
<!-- 48551 -->
<g id="node17" class="node">
<title>48551</title>
<polygon fill="none" stroke="#00876c" points="1157.52,-1958 1157.52,-1972.91 1135.67,-1983.46 1104.77,-1983.46 1082.92,-1972.91 1082.92,-1958 1104.77,-1947.46 1135.67,-1947.46 1157.52,-1958"/>
<text text-anchor="middle" x="1120.22" y="-1960.41" font-family="Times,serif" font-size="14.00">SGI B</text>
</g>
<!-- 48551&#45;&gt;48561 -->
<g id="edge19" class="edge">
<title>48551&#45;&gt;48561</title>
<path fill="none" stroke="#00876c" stroke-dasharray="5,2" d="M1096.27,-1951.02C1021.62,-1905.44 1010.57,-1889.82 941.64,-1747.88"/>
<polygon fill="#00876c" stroke="#00876c" points="937.33,-1738.99 945.74,-1746.03 938.98,-1742.4 941.7,-1747.99 941.7,-1747.99 941.7,-1747.99 938.98,-1742.4 937.65,-1749.96 937.33,-1738.99"/>
</g>
<!-- 48560 -->
<g id="node18" class="node">
<title>48560</title>
<ellipse fill="none" stroke="#00876c" cx="1423.95" cy="-1870.73" rx="161.4" ry="28.99"/>
<text text-anchor="middle" x="1423.95" y="-1873.93" font-family="Times,serif" font-size="14.00" fill="gray">MetaeffektLicense</text>
<text text-anchor="middle" x="1423.95" y="-1857.43" font-family="Times,serif" font-size="14.00" fill="gray">03d31f987bb50705d044850603953e7c</text>
</g>
<!-- 48560&#45;&gt;48561 -->
<g id="edge20" class="edge">
<title>48560&#45;&gt;48561</title>
<path fill="none" stroke="#00876c" d="M1277.01,-1883C1177.88,-1883.91 1126.8,-1853.91 967.62,-1744.34"/>
<polygon fill="#00876c" stroke="#00876c" points="969.94,-1741.69 959.72,-1738.9 965.97,-1747.46 969.94,-1741.69"/>
</g>
<!-- 48562 -->
<g id="node20" class="node">
<title>48562</title>
<polygon fill="none" stroke="#00876c" points="903.29,-2098.71 903.29,-2113.62 852.56,-2124.16 780.82,-2124.16 730.08,-2113.62 730.08,-2098.71 780.82,-2088.16 852.56,-2088.16 903.29,-2098.71"/>
<polygon fill="none" stroke="#00876c" points="907.29,-2095.45 907.29,-2116.87 852.97,-2128.16 780.4,-2128.16 726.08,-2116.87 726.08,-2095.45 780.4,-2084.16 852.97,-2084.16 907.29,-2095.45"/>
<text text-anchor="middle" x="816.69" y="-2101.11" font-family="Times,serif" font-size="14.00">SGI B License 1.1</text>
</g>
<!-- 48562&#45;&gt;48561 -->
<g id="edge21" class="edge">
<title>48562&#45;&gt;48561</title>
<path fill="none" stroke="#00876c" stroke-width="2" d="M822.84,-2083.94C848.28,-1991.94 853.83,-1972.17 916.84,-1748.26"/>
<polygon fill="#00876c" stroke="#00876c" stroke-width="2" points="919.13,-1740.13 920.75,-1750.98 918.92,-1742.74 916.9,-1749.9 916.42,-1749.76 915.94,-1749.62 917.95,-1742.47 912.09,-1748.54 919.13,-1740.13"/>
</g>
<!-- 48563 -->
<g id="node21" class="node">
<title>48563</title>
<polygon fill="none" stroke="#00876c" points="1400.87,-1659.97 1400.87,-1674.88 1349.16,-1685.42 1276.04,-1685.42 1224.34,-1674.88 1224.34,-1659.97 1276.04,-1649.42 1349.16,-1649.42 1400.87,-1659.97"/>
<text text-anchor="middle" x="1312.6" y="-1662.37" font-family="Times,serif" font-size="14.00">SGI B, Version 1.1</text>
</g>
<!-- 48563&#45;&gt;48561 -->
<g id="edge22" class="edge">
<title>48563&#45;&gt;48561</title>
<path fill="none" stroke="#00876c" stroke-dasharray="5,2" d="M1278.23,-1685.88C1150.65,-1754 1119.51,-1764.21 1011.35,-1738.14"/>
<polygon fill="#00876c" stroke="#00876c" points="1001.82,-1735.79 1012.6,-1733.81 1005.49,-1736.69 1011.53,-1738.18 1011.53,-1738.18 1011.53,-1738.18 1005.49,-1736.69 1010.45,-1742.55 1001.82,-1735.79"/>
</g>
<!-- 48564 -->
<g id="node22" class="node">
<title>48564</title>
<polygon fill="none" stroke="#00876c" points="729.27,-1922.37 729.27,-1937.28 696.71,-1947.82 650.67,-1947.82 618.11,-1937.28 618.11,-1922.37 650.67,-1911.82 696.71,-1911.82 729.27,-1922.37"/>
<text text-anchor="middle" x="673.69" y="-1924.77" font-family="Times,serif" font-size="14.00">SGI B, 1.1</text>
</g>
<!-- 48564&#45;&gt;48561 -->
<g id="edge23" class="edge">
<title>48564&#45;&gt;48561</title>
<path fill="none" stroke="#00876c" stroke-dasharray="5,2" d="M706.14,-1914.69C771.03,-1883.62 789.68,-1865.99 898.53,-1745.99"/>
<polygon fill="#00876c" stroke="#00876c" points="905.01,-1738.84 901.63,-1749.27 902.47,-1741.64 898.29,-1746.25 898.29,-1746.25 898.29,-1746.25 902.47,-1741.64 894.96,-1743.23 905.01,-1738.84"/>
</g>
<!-- 48565 -->
<g id="node23" class="node">
<title>48565</title>
<polygon fill="none" stroke="#00876c" points="625.67,-1634.1 625.67,-1649.01 573.64,-1659.56 500.06,-1659.56 448.03,-1649.01 448.03,-1634.1 500.06,-1623.56 573.64,-1623.56 625.67,-1634.1"/>
<text text-anchor="middle" x="536.85" y="-1636.51" font-family="Times,serif" font-size="14.00">SGI&#45;B, Version 1.1</text>
</g>
<!-- 48565&#45;&gt;48561 -->
<g id="edge24" class="edge">
<title>48565&#45;&gt;48561</title>
<path fill="none" stroke="#00876c" stroke-dasharray="5,2" d="M563.82,-1659.94C657.75,-1723.6 688.96,-1738.32 794.16,-1730.13"/>
<polygon fill="#00876c" stroke="#00876c" points="804.05,-1729.31 794.46,-1734.62 800.28,-1729.62 794.09,-1730.14 794.09,-1730.14 794.09,-1730.14 800.28,-1729.62 793.71,-1725.65 804.05,-1729.31"/>
</g>
<!-- 48566 -->
<g id="node24" class="node">
<title>48566</title>
<polygon fill="none" stroke="#00876c" points="1061.37,-2067.74 1061.37,-2082.65 1028.48,-2093.19 981.98,-2093.19 949.1,-2082.65 949.1,-2067.74 981.98,-2057.19 1028.48,-2057.19 1061.37,-2067.74"/>
<text text-anchor="middle" x="1005.23" y="-2070.14" font-family="Times,serif" font-size="14.00">SGI&#45;B, 1.1</text>
</g>
<!-- 48566&#45;&gt;48561 -->
<g id="edge25" class="edge">
<title>48566&#45;&gt;48561</title>
<path fill="none" stroke="#00876c" stroke-dasharray="5,2" d="M996.39,-2056.83C955.52,-1971.5 952.11,-1954.35 929.64,-1748.78"/>
<polygon fill="#00876c" stroke="#00876c" points="928.58,-1739.09 934.14,-1748.54 928.99,-1742.85 929.67,-1749.03 929.67,-1749.03 929.67,-1749.03 928.99,-1742.85 925.19,-1749.52 928.58,-1739.09"/>
</g>
<!-- 48567 -->
<g id="node25" class="node">
<title>48567</title>
<polygon fill="none" stroke="#00876c" points="628.28,-1874.59 628.28,-1889.5 556.78,-1900.04 455.66,-1900.04 384.16,-1889.5 384.16,-1874.59 455.66,-1864.04 556.78,-1864.04 628.28,-1874.59"/>
<text text-anchor="middle" x="506.22" y="-1876.99" font-family="Times,serif" font-size="14.00">SGI B License, Version 1.1</text>
</g>
<!-- 48567&#45;&gt;48561 -->
<g id="edge26" class="edge">
<title>48567&#45;&gt;48561</title>
<path fill="none" stroke="#00876c" stroke-dasharray="5,2" d="M626.17,-1873.85C690.32,-1862.51 741.51,-1832.63 881.59,-1743.85"/>
<polygon fill="#00876c" stroke="#00876c" points="889.92,-1738.57 883.88,-1747.73 886.72,-1740.6 881.47,-1743.93 881.47,-1743.93 881.47,-1743.93 886.72,-1740.6 879.06,-1740.13 889.92,-1738.57"/>
</g>
<!-- 48568 -->
<g id="node26" class="node">
<title>48568</title>
<polygon fill="none" stroke="#00876c" points="718.01,-2068.67 718.01,-2083.58 646.19,-2094.12 544.61,-2094.12 472.78,-2083.58 472.78,-2068.67 544.61,-2058.12 646.19,-2058.12 718.01,-2068.67"/>
<text text-anchor="middle" x="595.4" y="-2071.07" font-family="Times,serif" font-size="14.00">SGI&#45;B License, Version 1.1</text>
</g>
<!-- 48568&#45;&gt;48561 -->
<g id="edge27" class="edge">
<title>48568&#45;&gt;48561</title>
<path fill="none" stroke="#00876c" stroke-dasharray="5,2" d="M620.9,-2057.77C718.26,-1987.3 735,-1967.7 902.47,-1746.72"/>
<polygon fill="#00876c" stroke="#00876c" points="908.27,-1739.07 905.82,-1749.76 905.99,-1742.08 902.23,-1747.04 902.23,-1747.04 902.23,-1747.04 905.99,-1742.08 898.65,-1744.32 908.27,-1739.07"/>
</g>
<!-- 48569 -->
<g id="node27" class="node">
<title>48569</title>
<polygon fill="none" stroke="#00876c" points="1357.64,-1946.61 1357.64,-1961.52 1304.96,-1972.06 1230.46,-1972.06 1177.78,-1961.52 1177.78,-1946.61 1230.46,-1936.06 1304.96,-1936.06 1357.64,-1946.61"/>
<text text-anchor="middle" x="1267.71" y="-1949.01" font-family="Times,serif" font-size="14.00">SGI&#45;B License, 1.1</text>
</g>
<!-- 48569&#45;&gt;48561 -->
<g id="edge28" class="edge">
<title>48569&#45;&gt;48561</title>
<path fill="none" stroke="#00876c" stroke-dasharray="5,2" d="M1205.79,-1940.57C1101.04,-1915.91 1076.55,-1893.09 951.95,-1746.24"/>
<polygon fill="#00876c" stroke="#00876c" points="945.56,-1738.71 955.46,-1743.43 948,-1741.6 952.03,-1746.34 952.03,-1746.34 952.03,-1746.34 948,-1741.6 948.59,-1749.25 945.56,-1738.71"/>
</g>
<!-- 48570 -->
<g id="node28" class="node">
<title>48570</title>
<polygon fill="none" stroke="#00876c" points="535.89,-1830.19 535.89,-1845.1 379.04,-1855.65 157.23,-1855.65 0.38,-1845.1 0.38,-1830.19 157.23,-1819.65 379.04,-1819.65 535.89,-1830.19"/>
<text text-anchor="middle" x="268.13" y="-1832.6" font-family="Times,serif" font-size="14.00">SGI FREE SOFTWARE LICENSE B (Version 1.1 02/22/2000)</text>
</g>
<!-- 48570&#45;&gt;48561 -->
<g id="edge29" class="edge">
<title>48570&#45;&gt;48561</title>
<path fill="none" stroke="#00876c" stroke-dasharray="5,2" d="M376.7,-1856.14C517.06,-1876.13 577.28,-1856.89 860.65,-1742.16"/>
<polygon fill="#00876c" stroke="#00876c" points="869.69,-1738.5 862.12,-1746.42 866.19,-1739.92 860.43,-1742.25 860.43,-1742.25 860.43,-1742.25 866.19,-1739.92 858.74,-1738.08 869.69,-1738.5"/>
</g>
<!-- 48571 -->
<g id="node29" class="node">
<title>48571</title>
<polygon fill="none" stroke="#00876c" points="1513.31,-2248.67 1513.31,-2263.58 1367.17,-2274.12 1160.5,-2274.12 1014.36,-2263.58 1014.36,-2248.67 1160.5,-2238.12 1367.17,-2238.12 1513.31,-2248.67"/>
<text text-anchor="middle" x="1263.83" y="-2251.07" font-family="Times,serif" font-size="14.00">http://oss.sgi.com/projects/FreeB/SGIFreeSWLicB.1.1.doc</text>
</g>
<!-- 48571&#45;&gt;48561 -->
<g id="edge30" class="edge">
<title>48571&#45;&gt;48561</title>
<path fill="none" stroke="#00876c" stroke-dasharray="5,2" d="M1242.12,-2237.7C1099.34,-2116.23 1088.31,-2096.58 939.87,-1748.16"/>
<polygon fill="#00876c" stroke="#00876c" points="936.03,-1739.14 944.09,-1746.58 937.51,-1742.62 939.95,-1748.34 939.95,-1748.34 939.95,-1748.34 937.51,-1742.62 935.81,-1750.11 936.03,-1739.14"/>
</g>
<!-- 48573 -->
<g id="node30" class="node">
<title>48573</title>
<polygon fill="none" stroke="#00876c" points="1004.04,-2229.8 1004.04,-2244.72 917.61,-2255.26 795.38,-2255.26 708.95,-2244.72 708.95,-2229.8 795.38,-2219.26 917.61,-2219.26 1004.04,-2229.8"/>
<text text-anchor="middle" x="856.5" y="-2232.21" font-family="Times,serif" font-size="14.00">https://spdx.org/licenses/sgi&#45;b&#45;1.1</text>
</g>
<!-- 48573&#45;&gt;48561 -->
<g id="edge31" class="edge">
<title>48573&#45;&gt;48561</title>
<path fill="none" stroke="#00876c" stroke-dasharray="5,2" d="M857.69,-2218.96C866.58,-2082.8 869,-2065.31 920.65,-1748.56"/>
<polygon fill="#00876c" stroke="#00876c" points="922.24,-1738.85 925.07,-1749.45 921.63,-1742.59 920.63,-1748.72 920.63,-1748.72 920.63,-1748.72 921.63,-1742.59 916.18,-1748 922.24,-1738.85"/>
</g>
<!-- 48575 -->
<g id="node31" class="node">
<title>48575</title>
<polygon fill="none" stroke="black" points="1182.53,-1658.05 1182.53,-1672.96 1021.79,-1683.5 794.46,-1683.5 633.72,-1672.96 633.72,-1658.05 794.46,-1647.5 1021.79,-1647.5 1182.53,-1658.05"/>
<text text-anchor="middle" x="908.13" y="-1660.45" font-family="Times,serif" font-size="14.00">SGI FREE SOFTWARE LICENSE B (Version 1.1 [02/22/2000])</text>
</g>
<!-- 48575&#45;&gt;48561 -->
<g id="edge32" class="edge">
<title>48575&#45;&gt;48561</title>
<path fill="none" stroke="#00876c" stroke-dasharray="5,2" d="M911.21,-1683.82C911.23,-1683.94 911.25,-1684.05 911.27,-1684.17"/>
<polygon fill="#00876c" stroke="#00876c" points="912.92,-1691.98 906.45,-1683.12 912.14,-1688.28 910.86,-1682.19 910.86,-1682.19 910.86,-1682.19 912.14,-1688.28 915.26,-1681.26 912.92,-1691.98"/>
</g>
</g>
</svg>
