<?xml version="1.0" encoding="UTF-8" standalone="no"?>
<!DOCTYPE svg PUBLIC "-//W3C//DTD SVG 1.1//EN"
 "http://www.w3.org/Graphics/SVG/1.1/DTD/svg11.dtd">
<!-- Generated by graphviz version 10.0.1 (0)
 -->
<!-- Pages: 1 -->
<svg width="2740pt" height="2603pt"
 viewBox="0.00 0.00 2740.00 2603.00" xmlns="http://www.w3.org/2000/svg" xmlns:xlink="http://www.w3.org/1999/xlink">
<g id="graph0" class="graph" transform="scale(1 1) rotate(0) translate(4 2599)">
<polygon fill="white" stroke="none" points="-4,4 -4,-2599 2736,-2599 2736,4 -4,4"/>
<!-- 5 -->
<g id="node1" class="node">
<title>5</title>
<text text-anchor="start" x="861.59" y="-432.39" font-family="Times,serif" font-size="14.00">OSI: </text>
<text text-anchor="start" x="890.84" y="-432.39" font-family="Times,serif" font-weight="bold" font-size="14.00" fill="#8b0000">Rejected</text>
</g>
<!-- 4245 -->
<g id="node2" class="node">
<title>4245</title>
<ellipse fill="none" stroke="#dac767" cx="1061.98" cy="-744.89" rx="156.62" ry="28.99"/>
<text text-anchor="middle" x="1061.98" y="-748.09" font-family="Times,serif" font-size="14.00" fill="gray">SPDXLicense</text>
<text text-anchor="middle" x="1061.98" y="-731.59" font-family="Times,serif" font-size="14.00" fill="gray">aa5a6c0d1bb9eaad7513fe260aec83d3</text>
</g>
<!-- 5&#45;&gt;4245 -->
<g id="edge1" class="edge">
<title>5&#45;&gt;4245</title>
<path fill="none" stroke="#dac767" d="M910.39,-454.33C946.29,-525.28 955.05,-542.07 1041.36,-705.78"/>
<polygon fill="#dac767" stroke="#dac767" points="1038.15,-707.18 1045.91,-714.4 1044.34,-703.92 1038.15,-707.18"/>
</g>
<!-- 4246 -->
<g id="node3" class="node">
<title>4246</title>
<polygon fill="none" stroke="black" points="1572.91,-1118.48 1572.91,-1133.39 1528.66,-1143.94 1466.1,-1143.94 1421.86,-1133.39 1421.86,-1118.48 1466.1,-1107.94 1528.66,-1107.94 1572.91,-1118.48"/>
<polygon fill="none" stroke="black" points="1576.91,-1115.32 1576.91,-1136.55 1529.13,-1147.94 1465.63,-1147.94 1417.86,-1136.55 1417.86,-1115.32 1465.63,-1103.94 1529.13,-1103.94 1576.91,-1115.32"/>
<polygon fill="none" stroke="black" points="1580.91,-1112.17 1580.91,-1139.71 1529.6,-1151.94 1465.16,-1151.94 1413.86,-1139.71 1413.86,-1112.17 1465.16,-1099.94 1529.6,-1099.94 1580.91,-1112.17"/>
<text text-anchor="middle" x="1497.38" y="-1120.89" font-family="Times,serif" font-size="14.00">spdx:SGI&#45;B&#45;1.1</text>
</g>
<!-- 4245&#45;&gt;4246 -->
<g id="edge2" class="edge">
<title>4245&#45;&gt;4246</title>
<path fill="none" stroke="#dac767" d="M1126.34,-771.59C1250.79,-825.15 1281.18,-858.19 1469.09,-1090.89"/>
<polygon fill="#dac767" stroke="#dac767" points="1466.18,-1092.85 1475.18,-1098.43 1471.62,-1088.45 1466.18,-1092.85"/>
</g>
<!-- 6391 -->
<g id="node13" class="node">
<title>6391</title>
<polygon fill="none" stroke="#e06f45" points="1861.4,-772.92 1861.4,-787.83 1817.81,-798.38 1756.16,-798.38 1712.57,-787.83 1712.57,-772.92 1756.16,-762.38 1817.81,-762.38 1861.4,-772.92"/>
<polygon fill="none" stroke="#e06f45" points="1865.4,-769.77 1865.4,-790.98 1818.29,-802.38 1755.68,-802.38 1708.57,-790.98 1708.57,-769.77 1755.68,-758.38 1818.29,-758.38 1865.4,-769.77"/>
<text text-anchor="middle" x="1786.98" y="-775.33" font-family="Times,serif" font-size="14.00">google:SGIB11</text>
</g>
<!-- 4246&#45;&gt;6391 -->
<g id="edge3" class="edge">
<title>4246&#45;&gt;6391</title>
<path fill="none" stroke="#e06f45" stroke-width="2" d="M1519.24,-1099.53C1678.55,-907.05 1698.98,-882.49 1761.03,-810.47"/>
<polygon fill="#e06f45" stroke="#e06f45" stroke-width="2" points="1766.4,-804.24 1763.28,-814.75 1765.11,-806.51 1760.25,-812.14 1759.87,-811.81 1759.49,-811.49 1764.35,-805.85 1756.46,-808.88 1766.4,-804.24"/>
</g>
<!-- 9863 -->
<g id="node18" class="node">
<title>9863</title>
<polygon fill="none" stroke="#e09d4b" points="1570.67,-1408.27 1570.67,-1423.18 1521.23,-1433.73 1451.32,-1433.73 1401.89,-1423.18 1401.89,-1408.27 1451.32,-1397.73 1521.23,-1397.73 1570.67,-1408.27"/>
<polygon fill="none" stroke="#e09d4b" points="1574.67,-1405.03 1574.67,-1426.42 1521.65,-1437.73 1450.9,-1437.73 1397.89,-1426.42 1397.89,-1405.03 1450.9,-1393.73 1521.65,-1393.73 1574.67,-1405.03"/>
<text text-anchor="middle" x="1486.28" y="-1410.68" font-family="Times,serif" font-size="14.00">Fedora:SGI&#45;B&#45;1.1</text>
</g>
<!-- 4246&#45;&gt;9863 -->
<g id="edge4" class="edge">
<title>4246&#45;&gt;9863</title>
<path fill="none" stroke="#e09d4b" stroke-width="2" d="M1507.54,-1152.43C1544.97,-1250.98 1544.5,-1267.69 1499.21,-1383.04"/>
<polygon fill="#e09d4b" stroke="#e09d4b" stroke-width="2" points="1496.03,-1391.11 1495.51,-1380.16 1496.5,-1388.54 1499.23,-1381.62 1499.69,-1381.81 1500.16,-1381.99 1497.43,-1388.91 1503.88,-1383.46 1496.03,-1391.11"/>
</g>
<!-- 25676 -->
<g id="node20" class="node">
<title>25676</title>
<polygon fill="none" stroke="black" points="1348.38,-1458.37 1348.38,-1473.28 1288.24,-1483.82 1203.18,-1483.82 1143.04,-1473.28 1143.04,-1458.37 1203.18,-1447.82 1288.24,-1447.82 1348.38,-1458.37"/>
<polygon fill="none" stroke="black" points="1352.38,-1455.01 1352.38,-1476.64 1288.59,-1487.82 1202.84,-1487.82 1139.04,-1476.64 1139.04,-1455.01 1202.84,-1443.82 1288.59,-1443.82 1352.38,-1455.01"/>
<text text-anchor="middle" x="1245.71" y="-1460.77" font-family="Times,serif" font-size="14.00">scancode:sgi&#45;freeb&#45;1.1</text>
</g>
<!-- 4246&#45;&gt;25676 -->
<g id="edge5" class="edge">
<title>4246&#45;&gt;25676</title>
<path fill="none" stroke="#deb256" stroke-width="2" d="M1472.96,-1152.27C1422.65,-1213.98 1308.95,-1367.51 1264.18,-1434.17"/>
<polygon fill="#deb256" stroke="#deb256" stroke-width="2" points="1259.44,-1441.32 1261.21,-1430.5 1260.44,-1438.91 1264.55,-1432.71 1264.96,-1432.99 1265.38,-1433.26 1261.27,-1439.46 1268.71,-1435.47 1259.44,-1441.32"/>
</g>
<!-- 57377 -->
<g id="node39" class="node">
<title>57377</title>
<polygon fill="none" stroke="#379469" points="1920.79,-1707.46 1920.79,-1722.37 1843.13,-1732.92 1733.29,-1732.92 1655.62,-1722.37 1655.62,-1707.46 1733.29,-1696.92 1843.13,-1696.92 1920.79,-1707.46"/>
<polygon fill="none" stroke="#379469" points="1924.79,-1703.97 1924.79,-1725.87 1843.4,-1736.92 1733.02,-1736.92 1651.62,-1725.87 1651.62,-1703.97 1733.02,-1692.92 1843.4,-1692.92 1924.79,-1703.97"/>
<text text-anchor="middle" x="1788.21" y="-1709.87" font-family="Times,serif" font-size="14.00">metaeffekt:SGI B License 1.1</text>
</g>
<!-- 4246&#45;&gt;57377 -->
<g id="edge6" class="edge">
<title>4246&#45;&gt;57377</title>
<path fill="none" stroke="#379469" stroke-width="2" d="M1517.46,-1152.25C1750.67,-1457.92 1762.85,-1478.61 1784.67,-1681.51"/>
<polygon fill="#379469" stroke="#379469" stroke-width="2" points="1785.59,-1690.15 1780.06,-1680.69 1784.82,-1687.66 1784.03,-1680.26 1784.53,-1680.21 1785.03,-1680.16 1785.82,-1687.55 1789,-1679.73 1785.59,-1690.15"/>
</g>
<!-- 4247 -->
<g id="node4" class="node">
<title>4247</title>
<polygon fill="none" stroke="black" points="1732.27,-1094.49 1732.27,-1109.4 1700.68,-1119.94 1656.01,-1119.94 1624.43,-1109.4 1624.43,-1094.49 1656.01,-1083.94 1700.68,-1083.94 1732.27,-1094.49"/>
<polygon fill="none" stroke="black" points="1736.27,-1091.61 1736.27,-1112.28 1701.33,-1123.94 1655.36,-1123.94 1620.43,-1112.28 1620.43,-1091.61 1655.36,-1079.94 1701.33,-1079.94 1736.27,-1091.61"/>
<text text-anchor="middle" x="1678.35" y="-1096.89" font-family="Times,serif" font-size="14.00">SGI&#45;B&#45;1.1</text>
</g>
<!-- 4247&#45;&gt;4246 -->
<g id="edge7" class="edge">
<title>4247&#45;&gt;4246</title>
<path fill="none" stroke="black" stroke-width="2" d="M1620.12,-1095.44C1607.23,-1096.11 1593.14,-1098.81 1572.52,-1104.23"/>
<polygon fill="black" stroke="black" stroke-width="2" points="1564.2,-1106.48 1572.68,-1099.52 1566.54,-1105.33 1573.72,-1103.39 1573.85,-1103.87 1573.98,-1104.35 1566.8,-1106.29 1575.03,-1108.21 1564.2,-1106.48"/>
</g>
<!-- 4247&#45;&gt;9863 -->
<g id="edge8" class="edge">
<title>4247&#45;&gt;9863</title>
<path fill="none" stroke="#e09d4b" stroke-width="2" d="M1674.66,-1124.32C1655.6,-1238.28 1646.74,-1253.51 1516.09,-1385.64"/>
<polygon fill="#e09d4b" stroke="#e09d4b" stroke-width="2" points="1510.26,-1391.53 1514.1,-1381.26 1511.71,-1389.36 1516.94,-1384.07 1517.3,-1384.42 1517.65,-1384.77 1512.42,-1390.06 1520.49,-1387.59 1510.26,-1391.53"/>
</g>
<!-- 33161 -->
<g id="node28" class="node">
<title>33161</title>
<polygon fill="none" stroke="#e18745" points="1526.81,-844.81 1526.81,-859.72 1470.88,-870.26 1391.79,-870.26 1335.87,-859.72 1335.87,-844.81 1391.79,-834.26 1470.88,-834.26 1526.81,-844.81"/>
<polygon fill="none" stroke="#e18745" points="1530.81,-841.49 1530.81,-863.03 1471.26,-874.26 1391.42,-874.26 1331.87,-863.03 1331.87,-841.49 1391.42,-830.26 1471.26,-830.26 1530.81,-841.49"/>
<text text-anchor="middle" x="1431.34" y="-847.21" font-family="Times,serif" font-size="14.00">fossology:SGI&#45;B&#45;1.1</text>
</g>
<!-- 4247&#45;&gt;33161 -->
<g id="edge9" class="edge">
<title>4247&#45;&gt;33161</title>
<path fill="none" stroke="#e18745" stroke-width="2" d="M1667.73,-1079.55C1602.02,-941.29 1587.42,-918.39 1491.57,-877.07"/>
<polygon fill="#e18745" stroke="#e18745" stroke-width="2" points="1483.64,-873.69 1494.6,-873.47 1486.19,-874.24 1493.04,-877.15 1492.84,-877.61 1492.64,-878.07 1485.8,-875.16 1491.08,-881.75 1483.64,-873.69"/>
</g>
<!-- 42259 -->
<g id="node35" class="node">
<title>42259</title>
<polygon fill="none" stroke="#379469" points="2101.6,-1002.24 2101.6,-1017.16 2057.04,-1027.7 1994.01,-1027.7 1949.45,-1017.16 1949.45,-1002.24 1994.01,-991.7 2057.04,-991.7 2101.6,-1002.24"/>
<polygon fill="none" stroke="#379469" points="2105.6,-999.08 2105.6,-1020.32 2057.5,-1031.7 1993.54,-1031.7 1945.45,-1020.32 1945.45,-999.08 1993.54,-987.7 2057.5,-987.7 2105.6,-999.08"/>
<text text-anchor="middle" x="2025.52" y="-1004.65" font-family="Times,serif" font-size="14.00">cavil:SGI&#45;B&#45;1.1</text>
</g>
<!-- 4247&#45;&gt;42259 -->
<g id="edge10" class="edge">
<title>4247&#45;&gt;42259</title>
<path fill="none" stroke="#379469" stroke-width="2" d="M1723.91,-1086.99C1844.67,-1047.4 1892.54,-1032.25 1936.45,-1023.22"/>
<polygon fill="#379469" stroke="#379469" stroke-width="2" points="1944.87,-1021.57 1935.92,-1027.91 1942.45,-1022.55 1935.15,-1023.98 1935.06,-1023.49 1934.96,-1023 1942.26,-1021.57 1934.19,-1019.08 1944.87,-1021.57"/>
</g>
<!-- 4248 -->
<g id="node5" class="node">
<title>4248</title>
<polygon fill="none" stroke="black" points="1358.77,-1121.43 1358.77,-1136.34 1270.4,-1146.89 1145.41,-1146.89 1057.04,-1136.34 1057.04,-1121.43 1145.41,-1110.89 1270.4,-1110.89 1358.77,-1121.43"/>
<polygon fill="none" stroke="black" points="1362.77,-1117.88 1362.77,-1139.9 1270.63,-1150.89 1145.18,-1150.89 1053.04,-1139.9 1053.04,-1117.88 1145.18,-1106.89 1270.63,-1106.89 1362.77,-1117.88"/>
<text text-anchor="middle" x="1207.9" y="-1123.84" font-family="Times,serif" font-size="14.00">SGI Free Software License B v1.1</text>
</g>
<!-- 4248&#45;&gt;4246 -->
<g id="edge11" class="edge">
<title>4248&#45;&gt;4246</title>
<path fill="none" stroke="#dac767" stroke-width="2" d="M1262.02,-1106.43C1332.96,-1078.25 1359.48,-1076.92 1430.97,-1101.52"/>
<polygon fill="#dac767" stroke="#dac767" stroke-width="2" points="1439.06,-1104.36 1428.14,-1105.3 1436.48,-1103.98 1429.46,-1101.52 1429.62,-1101.05 1429.79,-1100.58 1436.81,-1103.04 1431.11,-1096.8 1439.06,-1104.36"/>
</g>
<!-- 4248&#45;&gt;25676 -->
<g id="edge12" class="edge">
<title>4248&#45;&gt;25676</title>
<path fill="none" stroke="#deb256" stroke-width="2" d="M1201.48,-1151.04C1162.23,-1287.08 1162.67,-1303.24 1229.05,-1433.35"/>
<polygon fill="#deb256" stroke="#deb256" stroke-width="2" points="1233.04,-1441.16 1224.48,-1434.31 1231.43,-1439.11 1228.04,-1432.49 1228.49,-1432.26 1228.94,-1432.03 1232.32,-1438.65 1232.5,-1430.21 1233.04,-1441.16"/>
</g>
<!-- 4248&#45;&gt;33161 -->
<g id="edge13" class="edge">
<title>4248&#45;&gt;33161</title>
<path fill="none" stroke="#e18745" stroke-width="2" d="M1218.75,-1106.51C1294.45,-950.49 1309.83,-923.4 1381.97,-880.28"/>
<polygon fill="#e18745" stroke="#e18745" stroke-width="2" points="1389.45,-875.89 1383.11,-884.84 1387.49,-877.62 1381.08,-881.39 1380.83,-880.96 1380.57,-880.53 1386.98,-876.76 1378.55,-877.08 1389.45,-875.89"/>
</g>
<!-- 68411 -->
<g id="node54" class="node">
<title>68411</title>
<polygon fill="none" stroke="#00876c" points="1380.09,-1173.48 1380.09,-1188.4 1279.05,-1198.94 1136.17,-1198.94 1035.14,-1188.4 1035.14,-1173.48 1136.17,-1162.94 1279.05,-1162.94 1380.09,-1173.48"/>
<polygon fill="none" stroke="#00876c" points="1384.09,-1169.88 1384.09,-1192 1279.26,-1202.94 1135.97,-1202.94 1031.14,-1192 1031.14,-1169.88 1135.97,-1158.94 1279.26,-1158.94 1384.09,-1169.88"/>
<text text-anchor="middle" x="1207.61" y="-1175.89" font-family="Times,serif" font-size="14.00">spdx:SGI Free Software License B v1.1</text>
</g>
<!-- 4248&#45;&gt;68411 -->
<g id="edge14" class="edge">
<title>4248&#45;&gt;68411</title>
<path fill="none" stroke="#00876c" stroke-width="2" d="M1201.99,-1151.25C1201.99,-1151.38 1202,-1151.52 1202,-1151.65"/>
<polygon fill="#00876c" stroke="#00876c" stroke-width="2" points="1202.54,-1156.19 1196.9,-1146.79 1201.74,-1153.71 1200.88,-1146.32 1201.37,-1146.26 1201.87,-1146.2 1202.73,-1153.59 1205.84,-1145.74 1202.54,-1156.19"/>
</g>
<!-- 4249 -->
<g id="node6" class="node">
<title>4249</title>
<text text-anchor="middle" x="639.73" y="-599.96" font-family="Times,serif" font-size="14.00">SPDXLicense:</text>
<text text-anchor="middle" x="639.73" y="-583.46" font-family="Times,serif" font-size="14.00">This license was released 22 February 2002</text>
</g>
<!-- 4249&#45;&gt;4245 -->
<g id="edge15" class="edge">
<title>4249&#45;&gt;4245</title>
<path fill="none" stroke="#dac767" d="M766.75,-607.22C821.01,-618.74 874.87,-645.24 1000.18,-711.9"/>
<polygon fill="#dac767" stroke="#dac767" points="998.31,-714.87 1008.78,-716.48 1001.6,-708.69 998.31,-714.87"/>
</g>
<!-- 4250 -->
<g id="node7" class="node">
<title>4250</title>
<text text-anchor="middle" x="753.85" y="-456.36" font-family="Times,serif" font-size="14.00">$TEXT</text>
</g>
<!-- 4250&#45;&gt;4245 -->
<g id="edge16" class="edge">
<title>4250&#45;&gt;4245</title>
<path fill="none" stroke="#dac767" d="M780.56,-479.24C857.79,-531.17 877.26,-549.73 1027.05,-707.97"/>
<polygon fill="#dac767" stroke="#dac767" points="1024.29,-710.14 1033.71,-715 1029.38,-705.33 1024.29,-710.14"/>
</g>
<!-- 4251 -->
<g id="node8" class="node">
<title>4251</title>
<text text-anchor="middle" x="602.08" y="-307.51" font-family="Times,serif" font-size="14.00">$TEXT</text>
</g>
<!-- 4251&#45;&gt;4250 -->
<g id="edge17" class="edge">
<title>4251&#45;&gt;4250</title>
<path fill="none" stroke="#dac767" d="M623.87,-330.25C651.91,-353.41 666.22,-367.97 729.51,-435.44"/>
<polygon fill="#dac767" stroke="#dac767" points="726.62,-437.47 736.01,-442.37 731.72,-432.68 726.62,-437.47"/>
</g>
<!-- 4252 -->
<g id="node9" class="node">
<title>4252</title>
<text text-anchor="middle" x="820.52" y="-887.1" font-family="Times,serif" font-size="14.00">http://oss.sgi.com/projects/FreeB/</text>
</g>
<!-- 4252&#45;&gt;4245 -->
<g id="edge18" class="edge">
<title>4252&#45;&gt;4245</title>
<path fill="none" stroke="#dac767" d="M833.25,-874.45C879.78,-809.94 899.25,-787.06 949.41,-770.59"/>
<polygon fill="#dac767" stroke="#dac767" points="950.25,-773.99 958.78,-767.71 948.2,-767.3 950.25,-773.99"/>
</g>
<!-- 25675 -->
<g id="node19" class="node">
<title>25675</title>
<ellipse fill="none" stroke="#deb256" cx="656.03" cy="-1348.06" rx="157.15" ry="28.99"/>
<text text-anchor="middle" x="656.03" y="-1351.26" font-family="Times,serif" font-size="14.00" fill="gray">ScancodeData</text>
<text text-anchor="middle" x="656.03" y="-1334.76" font-family="Times,serif" font-size="14.00" fill="gray">bf9a8c09af6741fa02dd02b5d0b38414</text>
</g>
<!-- 4252&#45;&gt;25675 -->
<g id="edge19" class="edge">
<title>4252&#45;&gt;25675</title>
<path fill="none" stroke="#deb256" d="M805.06,-909.92C654.27,-1083.33 645.83,-1099.99 654.3,-1307.57"/>
<polygon fill="#deb256" stroke="#deb256" points="650.8,-1307.54 654.71,-1317.38 657.79,-1307.25 650.8,-1307.54"/>
</g>
<!-- 33160 -->
<g id="node27" class="node">
<title>33160</title>
<ellipse fill="none" stroke="#e18745" cx="1132.2" cy="-512.88" rx="154.5" ry="28.99"/>
<text text-anchor="middle" x="1132.2" y="-516.08" font-family="Times,serif" font-size="14.00" fill="gray">Fossology</text>
<text text-anchor="middle" x="1132.2" y="-499.58" font-family="Times,serif" font-size="14.00" fill="gray">6aa993ff30ebe30b86e8a3fd1cc347c9</text>
</g>
<!-- 4252&#45;&gt;33160 -->
<g id="edge20" class="edge">
<title>4252&#45;&gt;33160</title>
<path fill="none" stroke="#e18745" d="M827.25,-874.25C911.61,-649.78 924.99,-621.9 1068.51,-545.86"/>
<polygon fill="#e18745" stroke="#e18745" points="1070.06,-549 1077.28,-541.24 1066.8,-542.81 1070.06,-549"/>
</g>
<!-- 5550 -->
<g id="node10" class="node">
<title>5550</title>
<text text-anchor="middle" x="312.91" y="-1229.9" font-family="Times,serif" font-size="14.00">LicenseType Permissive</text>
</g>
<!-- 5550&#45;&gt;25675 -->
<g id="edge21" class="edge">
<title>5550&#45;&gt;25675</title>
<path fill="none" stroke="#deb256" d="M344.75,-1252.79C401.36,-1283.94 429.09,-1294.05 547.18,-1322.41"/>
<polygon fill="#deb256" stroke="#deb256" points="546.11,-1325.75 556.65,-1324.68 547.74,-1318.94 546.11,-1325.75"/>
</g>
<!-- 6254 -->
<g id="node11" class="node">
<title>6254</title>
<text text-anchor="start" x="2368.52" y="-89.99" font-family="Times,serif" font-size="14.00">Google Policy Classification: </text>
<text text-anchor="start" x="2532.02" y="-89.99" font-family="Times,serif" font-weight="bold" font-size="14.00" fill="#228b22">notice</text>
<text text-anchor="start" x="2256.02" y="-75.99" font-family="Times,serif" font-size="14.00">notice &#45; These licenses contain few restrictions, allowing original or modified</text>
<text text-anchor="start" x="2268.77" y="-61.99" font-family="Times,serif" font-size="14.00">third&#45;party software to be shipped in any product without endangering or</text>
<text text-anchor="start" x="2253.02" y="-47.99" font-family="Times,serif" font-size="14.00">encumbering our source code. All of the licenses in this category do, however,</text>
<text text-anchor="start" x="2268.77" y="-33.99" font-family="Times,serif" font-size="14.00">have an &quot;original Copyright notice&quot; or &quot;advertising clause&quot;, wherein any</text>
<text text-anchor="start" x="2274.77" y="-19.99" font-family="Times,serif" font-size="14.00">external distributions must include the notice or clause specified in the</text>
<text text-anchor="start" x="2446.89" y="-5.99" font-family="Times,serif" font-size="14.00">license.</text>
</g>
<!-- 6390 -->
<g id="node12" class="node">
<title>6390</title>
<ellipse fill="none" stroke="#e06f45" cx="2103" cy="-446.23" rx="156.62" ry="28.99"/>
<text text-anchor="middle" x="2103" y="-449.43" font-family="Times,serif" font-size="14.00" fill="gray">GoogleLicense</text>
<text text-anchor="middle" x="2103" y="-432.93" font-family="Times,serif" font-size="14.00" fill="gray">d3971ace66f4f20e21dc0b8ad06e50e1</text>
</g>
<!-- 6254&#45;&gt;6390 -->
<g id="edge22" class="edge">
<title>6254&#45;&gt;6390</title>
<path fill="none" stroke="#e06f45" d="M2416.8,-106.05C2351.97,-173.74 2315.55,-213.45 2136.99,-409.01"/>
<polygon fill="#e06f45" stroke="#e06f45" points="2134.66,-406.37 2130.5,-416.11 2139.83,-411.09 2134.66,-406.37"/>
</g>
<!-- 6390&#45;&gt;6391 -->
<g id="edge23" class="edge">
<title>6390&#45;&gt;6391</title>
<path fill="none" stroke="#e06f45" d="M2073.78,-474.97C2005.46,-542.32 1982.91,-566.57 1815.15,-749.63"/>
<polygon fill="#e06f45" stroke="#e06f45" points="1812.77,-747.05 1808.6,-756.79 1817.93,-751.78 1812.77,-747.05"/>
</g>
<!-- 6392 -->
<g id="node14" class="node">
<title>6392</title>
<polygon fill="none" stroke="#e06f45" points="2010.01,-568.7 2010.01,-583.61 1983.94,-594.16 1947.07,-594.16 1921.01,-583.61 1921.01,-568.7 1947.07,-558.16 1983.94,-558.16 2010.01,-568.7"/>
<polygon fill="none" stroke="#e06f45" points="2014.01,-566 2014.01,-586.31 1984.72,-598.16 1946.3,-598.16 1917.01,-586.31 1917.01,-566 1946.3,-554.16 1984.72,-554.16 2014.01,-566"/>
<text text-anchor="middle" x="1965.51" y="-571.11" font-family="Times,serif" font-size="14.00">SGIB11</text>
</g>
<!-- 6392&#45;&gt;6391 -->
<g id="edge24" class="edge">
<title>6392&#45;&gt;6391</title>
<path fill="none" stroke="#e06f45" stroke-width="2" d="M1945.41,-598.29C1911.67,-635.53 1896.39,-653.11 1813.37,-749.68"/>
<polygon fill="#e06f45" stroke="#e06f45" stroke-width="2" points="1807.79,-756.17 1810.9,-745.65 1809.08,-753.9 1813.93,-748.26 1814.31,-748.59 1814.69,-748.91 1809.84,-754.55 1817.72,-751.52 1807.79,-756.17"/>
</g>
<!-- 6640 -->
<g id="node15" class="node">
<title>6640</title>
<text text-anchor="middle" x="1038.63" y="-2211.26" font-family="Times,serif" font-size="14.00">[&quot;not&#45;allowed&quot;]</text>
</g>
<!-- 9862 -->
<g id="node17" class="node">
<title>9862</title>
<ellipse fill="none" stroke="#e09d4b" cx="1234.23" cy="-1851.09" rx="154.5" ry="28.99"/>
<text text-anchor="middle" x="1234.23" y="-1854.29" font-family="Times,serif" font-size="14.00" fill="gray">FedoraEntry</text>
<text text-anchor="middle" x="1234.23" y="-1837.79" font-family="Times,serif" font-size="14.00" fill="gray">7a79bfe46c9ea8bd7908b70fd28e57ff</text>
</g>
<!-- 6640&#45;&gt;9862 -->
<g id="edge25" class="edge">
<title>6640&#45;&gt;9862</title>
<path fill="none" stroke="#e09d4b" d="M1051.16,-2198.56C1108.77,-2116.74 1118.22,-2098.86 1215.75,-1890.58"/>
<polygon fill="#e09d4b" stroke="#e09d4b" points="1218.9,-1892.11 1219.97,-1881.57 1212.56,-1889.14 1218.9,-1892.11"/>
</g>
<!-- 6641 -->
<g id="node16" class="node">
<title>6641</title>
<text text-anchor="start" x="808.25" y="-2579.19" font-family="Times,serif" font-size="14.00">Fedora: </text>
<text text-anchor="start" x="853.25" y="-2579.19" font-family="Times,serif" font-weight="bold" font-size="14.00" fill="#8b0000">not&#45;allowed</text>
<text text-anchor="start" x="674.75" y="-2565.19" font-family="Times,serif" font-size="14.00">Any license that does not meet the criteria above for allowed licenses</text>
<text text-anchor="start" x="706.25" y="-2551.19" font-family="Times,serif" font-size="14.00">(including allowed for a specific category) is not&#45;allowed.</text>
</g>
<!-- 6641&#45;&gt;6640 -->
<g id="edge26" class="edge">
<title>6641&#45;&gt;6640</title>
<path fill="none" stroke="#e09d4b" d="M878.69,-2545.68C922.56,-2468.75 932.8,-2447.23 1025.75,-2244.43"/>
<polygon fill="#e09d4b" stroke="#e09d4b" points="1028.91,-2245.92 1029.89,-2235.37 1022.55,-2243.01 1028.91,-2245.92"/>
</g>
<!-- 9862&#45;&gt;9863 -->
<g id="edge27" class="edge">
<title>9862&#45;&gt;9863</title>
<path fill="none" stroke="#e09d4b" d="M1264.6,-1822.34C1355.82,-1735.05 1368.95,-1707.84 1473.07,-1448.63"/>
<polygon fill="#e09d4b" stroke="#e09d4b" points="1476.25,-1450.11 1476.72,-1439.52 1469.75,-1447.5 1476.25,-1450.11"/>
</g>
<!-- 25675&#45;&gt;25676 -->
<g id="edge28" class="edge">
<title>25675&#45;&gt;25676</title>
<path fill="none" stroke="#deb256" d="M711.54,-1375.63C824.55,-1430.46 870.59,-1439.3 1127.48,-1457.61"/>
<polygon fill="#deb256" stroke="#deb256" points="1126.95,-1461.09 1137.17,-1458.3 1127.45,-1454.1 1126.95,-1461.09"/>
</g>
<!-- 25676&#45;&gt;4246 -->
<g id="edge29" class="edge">
<title>25676&#45;&gt;4246</title>
<path fill="none" stroke="#00876c" stroke-width="2" d="M1266.79,-1443.58C1314.36,-1385.88 1429,-1231.32 1476.44,-1161.26"/>
<polygon fill="#00876c" stroke="#00876c" stroke-width="2" points="1481.05,-1154.38 1479.22,-1165.19 1480.04,-1156.79 1475.9,-1162.97 1475.49,-1162.69 1475.07,-1162.41 1479.21,-1156.23 1471.75,-1160.18 1481.05,-1154.38"/>
</g>
<!-- 25676&#45;&gt;57377 -->
<g id="edge30" class="edge">
<title>25676&#45;&gt;57377</title>
<path fill="none" stroke="#379469" stroke-dasharray="5,2" d="M1277.12,-1488.05C1492.38,-1640.27 1554.15,-1681.66 1653.34,-1699.84"/>
<polygon fill="#379469" stroke="#379469" points="1663.14,-1701.53 1652.52,-1704.27 1659.41,-1700.89 1653.28,-1699.83 1653.28,-1699.83 1653.28,-1699.83 1659.41,-1700.89 1654.05,-1695.4 1663.14,-1701.53"/>
</g>
<!-- 25677 -->
<g id="node21" class="node">
<title>25677</title>
<polygon fill="none" stroke="black" points="1090.83,-1676.35 1090.83,-1691.27 1053.73,-1701.81 1001.26,-1701.81 964.15,-1691.27 964.15,-1676.35 1001.26,-1665.81 1053.73,-1665.81 1090.83,-1676.35"/>
<polygon fill="none" stroke="black" points="1094.83,-1673.33 1094.83,-1694.29 1054.28,-1705.81 1000.7,-1705.81 960.15,-1694.29 960.15,-1673.33 1000.7,-1661.81 1054.28,-1661.81 1094.83,-1673.33"/>
<text text-anchor="middle" x="1027.49" y="-1678.76" font-family="Times,serif" font-size="14.00">sgi&#45;freeb&#45;1.1</text>
</g>
<!-- 25677&#45;&gt;25676 -->
<g id="edge31" class="edge">
<title>25677&#45;&gt;25676</title>
<path fill="none" stroke="black" stroke-width="2" d="M1052.76,-1661.49C1096.29,-1622.78 1114.59,-1604.05 1217.11,-1495.98"/>
<polygon fill="black" stroke="black" stroke-width="2" points="1222.96,-1489.81 1219.34,-1500.17 1221.56,-1492.02 1216.44,-1497.41 1216.08,-1497.07 1215.72,-1496.73 1220.83,-1491.33 1212.81,-1493.97 1222.96,-1489.81"/>
</g>
<!-- 25678 -->
<g id="node22" class="node">
<title>25678</title>
<polygon fill="none" stroke="black" points="1048.2,-1415.55 1048.2,-1430.46 962.74,-1441.01 841.89,-1441.01 756.43,-1430.46 756.43,-1415.55 841.89,-1405.01 962.74,-1405.01 1048.2,-1415.55"/>
<polygon fill="none" stroke="black" points="1052.2,-1412.02 1052.2,-1434 962.99,-1445.01 841.64,-1445.01 752.43,-1434 752.43,-1412.02 841.64,-1401.01 962.99,-1401.01 1052.2,-1412.02"/>
<text text-anchor="middle" x="902.31" y="-1417.96" font-family="Times,serif" font-size="14.00">SGI Free Software License B 1.1</text>
</g>
<!-- 25678&#45;&gt;25676 -->
<g id="edge32" class="edge">
<title>25678&#45;&gt;25676</title>
<path fill="none" stroke="#deb256" stroke-width="2" d="M950.49,-1445.44C1001.85,-1467.81 1033.21,-1472.62 1127.57,-1470.22"/>
<polygon fill="#deb256" stroke="#deb256" stroke-width="2" points="1136.33,-1469.98 1126.46,-1474.76 1133.78,-1470.55 1126.35,-1470.76 1126.34,-1470.26 1126.32,-1469.76 1133.76,-1469.55 1126.21,-1465.76 1136.33,-1469.98"/>
</g>
<!-- 68410 -->
<g id="node53" class="node">
<title>68410</title>
<polygon fill="none" stroke="#00876c" points="1301.37,-1038.61 1301.37,-1053.52 1192.88,-1064.07 1039.44,-1064.07 930.95,-1053.52 930.95,-1038.61 1039.44,-1028.07 1192.88,-1028.07 1301.37,-1038.61"/>
<polygon fill="none" stroke="#00876c" points="1305.37,-1034.98 1305.37,-1057.15 1193.07,-1068.07 1039.25,-1068.07 926.95,-1057.15 926.95,-1034.98 1039.25,-1024.07 1193.07,-1024.07 1305.37,-1034.98"/>
<text text-anchor="middle" x="1116.16" y="-1041.02" font-family="Times,serif" font-size="14.00">scancode:SGI Free Software License B 1.1</text>
</g>
<!-- 25678&#45;&gt;68410 -->
<g id="edge33" class="edge">
<title>25678&#45;&gt;68410</title>
<path fill="none" stroke="#00876c" stroke-width="2" d="M904.7,-1400.62C922.94,-1230.59 930.27,-1214.35 1083.42,-1075.63"/>
<polygon fill="#00876c" stroke="#00876c" stroke-width="2" points="1089.5,-1070.13 1085.1,-1080.18 1087.93,-1072.22 1082.42,-1077.21 1082.08,-1076.84 1081.74,-1076.47 1087.26,-1071.48 1079.06,-1073.51 1089.5,-1070.13"/>
</g>
<!-- 25679 -->
<g id="node23" class="node">
<title>25679</title>
<text text-anchor="middle" x="184.39" y="-1485.93" font-family="Times,serif" font-size="14.00">http://oss.sgi.com/projects/FreeB/SGIFreeSWLicB.1.1.doc</text>
</g>
<!-- 25679&#45;&gt;25675 -->
<g id="edge34" class="edge">
<title>25679&#45;&gt;25675</title>
<path fill="none" stroke="#deb256" d="M226.68,-1473.04C313.46,-1436.62 350.18,-1425.44 551.36,-1374.48"/>
<polygon fill="#deb256" stroke="#deb256" points="552.01,-1377.93 560.85,-1372.08 550.3,-1371.14 552.01,-1377.93"/>
</g>
<!-- 25680 -->
<g id="node24" class="node">
<title>25680</title>
<text text-anchor="middle" x="293.55" y="-1667.49" font-family="Times,serif" font-size="14.00">ScancodeData:</text>
<text text-anchor="middle" x="293.55" y="-1650.99" font-family="Times,serif" font-size="14.00">Per SPDX.org, this license was released 22 February 2002</text>
</g>
<!-- 25680&#45;&gt;25675 -->
<g id="edge35" class="edge">
<title>25680&#45;&gt;25675</title>
<path fill="none" stroke="#deb256" d="M306.73,-1643.84C376.48,-1535.97 393.32,-1520.46 603.57,-1382.45"/>
<polygon fill="#deb256" stroke="#deb256" points="605.37,-1385.45 611.81,-1377.04 601.53,-1379.6 605.37,-1385.45"/>
</g>
<!-- 25681 -->
<g id="node25" class="node">
<title>25681</title>
<text text-anchor="middle" x="169.27" y="-1301.15" font-family="Times,serif" font-size="14.00">http://oss.sgi.com/projects/FreeB/SGIFreeSWLicB.1.1.doc</text>
</g>
<!-- 25681&#45;&gt;25675 -->
<g id="edge36" class="edge">
<title>25681&#45;&gt;25675</title>
<path fill="none" stroke="#deb256" d="M288.26,-1324.19C335.87,-1329.92 388.29,-1333.62 493.39,-1339.41"/>
<polygon fill="#deb256" stroke="#deb256" points="493.06,-1342.9 503.23,-1339.95 493.44,-1335.91 493.06,-1342.9"/>
</g>
<!-- 25682 -->
<g id="node26" class="node">
<title>25682</title>
<text text-anchor="middle" x="390.09" y="-1477.49" font-family="Times,serif" font-size="14.00">$TEXT</text>
</g>
<!-- 25682&#45;&gt;25675 -->
<g id="edge37" class="edge">
<title>25682&#45;&gt;25675</title>
<path fill="none" stroke="#deb256" d="M412.76,-1464.56C456.85,-1430.12 477.75,-1418.83 577.85,-1378.92"/>
<polygon fill="#deb256" stroke="#deb256" points="579.05,-1382.21 587.05,-1375.26 576.46,-1375.71 579.05,-1382.21"/>
</g>
<!-- 33160&#45;&gt;33161 -->
<g id="edge38" class="edge">
<title>33160&#45;&gt;33161</title>
<path fill="none" stroke="#e18745" d="M1179.4,-540.76C1267.65,-594.52 1288.53,-623.66 1411.39,-820.31"/>
<polygon fill="#e18745" stroke="#e18745" points="1408.25,-821.89 1416.52,-828.52 1414.19,-818.18 1408.25,-821.89"/>
</g>
<!-- 33162 -->
<g id="node29" class="node">
<title>33162</title>
<text text-anchor="middle" x="1382.61" y="-112.64" font-family="Times,serif" font-size="14.00">Fossology:</text>
<text text-anchor="middle" x="1382.61" y="-96.14" font-family="Times,serif" font-size="14.00">This license was released 22 February 2002</text>
</g>
<!-- 33162&#45;&gt;33160 -->
<g id="edge39" class="edge">
<title>33162&#45;&gt;33160</title>
<path fill="none" stroke="#e18745" d="M1356.97,-129.8C1252.05,-213.67 1240.26,-234.67 1147.62,-473.15"/>
<polygon fill="#e18745" stroke="#e18745" points="1144.48,-471.56 1144.12,-482.15 1151,-474.09 1144.48,-471.56"/>
</g>
<!-- 33163 -->
<g id="node30" class="node">
<title>33163</title>
<text text-anchor="middle" x="1108.86" y="-174.42" font-family="Times,serif" font-size="14.00">$TEXT</text>
</g>
<!-- 33163&#45;&gt;33160 -->
<g id="edge40" class="edge">
<title>33163&#45;&gt;33160</title>
<path fill="none" stroke="#e18745" d="M1107.99,-197.22C1104.2,-276.71 1105.38,-293.61 1127.25,-472.48"/>
<polygon fill="#e18745" stroke="#e18745" points="1123.75,-472.65 1128.43,-482.15 1130.69,-471.8 1123.75,-472.65"/>
</g>
<!-- 35432 -->
<g id="node31" class="node">
<title>35432</title>
<text text-anchor="middle" x="1325.72" y="-569.06" font-family="Times,serif" font-size="14.00">LicenseTag (ScopedLicenseTag &quot;OrtLicenseCategorization&quot; &quot;permissive&quot; NoLicenseTagText)</text>
</g>
<!-- 39842 -->
<g id="node33" class="node">
<title>39842</title>
<ellipse fill="none" stroke="#d43d51" cx="1339.08" cy="-629.1" rx="156.62" ry="28.99"/>
<text text-anchor="middle" x="1339.08" y="-632.3" font-family="Times,serif" font-size="14.00" fill="gray">OrtLicenseCategorization</text>
<text text-anchor="middle" x="1339.08" y="-615.8" font-family="Times,serif" font-size="14.00" fill="gray">ad30b00e07883b0aa89e3dd3bf4aaf6c</text>
</g>
<!-- 35432&#45;&gt;39842 -->
<g id="edge41" class="edge">
<title>35432&#45;&gt;39842</title>
<path fill="none" stroke="#d43d51" d="M1331.68,-591.87C1331.72,-592.01 1331.75,-592.16 1331.79,-592.3"/>
<polygon fill="#d43d51" stroke="#d43d51" points="1327.55,-589.42 1333.16,-598.41 1334.38,-587.88 1327.55,-589.42"/>
</g>
<!-- 35433 -->
<g id="node32" class="node">
<title>35433</title>
<text text-anchor="middle" x="952.87" y="-84.35" font-family="Times,serif" font-size="14.00">LicenseTag (ScopedLicenseTag &quot;OrtLicenseCategorization&quot; &quot;include&#45;in&#45;notice&#45;file&quot; NoLicenseTagText)</text>
</g>
<!-- 35433&#45;&gt;39842 -->
<g id="edge42" class="edge">
<title>35433&#45;&gt;39842</title>
<path fill="none" stroke="#d43d51" d="M973.43,-107.17C1111.05,-226.42 1124.66,-246.24 1317.15,-589.94"/>
<polygon fill="#d43d51" stroke="#d43d51" points="1314.08,-591.6 1322.02,-598.62 1320.18,-588.18 1314.08,-591.6"/>
</g>
<!-- 39842&#45;&gt;4246 -->
<g id="edge43" class="edge">
<title>39842&#45;&gt;4246</title>
<path fill="none" stroke="#d43d51" d="M1357.42,-658.07C1428.54,-771.2 1435.38,-797.14 1490.4,-1088.86"/>
<polygon fill="#d43d51" stroke="#d43d51" points="1486.88,-1089.14 1492.18,-1098.31 1493.76,-1087.84 1486.88,-1089.14"/>
</g>
<!-- 42258 -->
<g id="node34" class="node">
<title>42258</title>
<ellipse fill="none" stroke="#379469" cx="2390.15" cy="-871.37" rx="156.09" ry="28.99"/>
<text text-anchor="middle" x="2390.15" y="-874.57" font-family="Times,serif" font-size="14.00" fill="gray">CavilLicenseChange</text>
<text text-anchor="middle" x="2390.15" y="-858.07" font-family="Times,serif" font-size="14.00" fill="gray">9ccceb86508acd3a9af95352fcbd145d</text>
</g>
<!-- 42258&#45;&gt;42259 -->
<g id="edge44" class="edge">
<title>42258&#45;&gt;42259</title>
<path fill="none" stroke="#379469" d="M2316.84,-897.27C2267.05,-915.23 2221.74,-932.81 2083.63,-986.93"/>
<polygon fill="#379469" stroke="#379469" points="2082.53,-983.6 2074.5,-990.51 2085.09,-990.12 2082.53,-983.6"/>
</g>
<!-- 43779 -->
<g id="node36" class="node">
<title>43779</title>
<text text-anchor="start" x="2572.07" y="-2200.26" font-family="Times,serif" font-size="14.00">CoDEStatus: </text>
<text text-anchor="start" x="2646.32" y="-2200.26" font-family="Times,serif" font-weight="bold" font-size="14.00" fill="#000000">not approved</text>
</g>
<!-- 57376 -->
<g id="node38" class="node">
<title>57376</title>
<ellipse fill="none" stroke="#379469" cx="2316.33" cy="-1978.09" rx="161.4" ry="28.99"/>
<text text-anchor="middle" x="2316.33" y="-1981.29" font-family="Times,serif" font-size="14.00" fill="gray">MetaeffektLicense</text>
<text text-anchor="middle" x="2316.33" y="-1964.79" font-family="Times,serif" font-size="14.00" fill="gray">03d31f987bb50705d044850603953e7c</text>
</g>
<!-- 43779&#45;&gt;57376 -->
<g id="edge45" class="edge">
<title>43779&#45;&gt;57376</title>
<path fill="none" stroke="#379469" d="M2620.99,-2186.49C2551.91,-2140.6 2528.9,-2124.87 2366.96,-2013.05"/>
<polygon fill="#379469" stroke="#379469" points="2369.08,-2010.26 2358.87,-2007.46 2365.11,-2016.02 2369.08,-2010.26"/>
</g>
<!-- 57367 -->
<g id="node37" class="node">
<title>57367</title>
<polygon fill="none" stroke="#379469" points="2106.17,-1602.85 2106.17,-1617.76 2084.32,-1628.31 2053.42,-1628.31 2031.57,-1617.76 2031.57,-1602.85 2053.42,-1592.31 2084.32,-1592.31 2106.17,-1602.85"/>
<text text-anchor="middle" x="2068.87" y="-1605.26" font-family="Times,serif" font-size="14.00">SGI B</text>
</g>
<!-- 57367&#45;&gt;57377 -->
<g id="edge46" class="edge">
<title>57367&#45;&gt;57377</title>
<path fill="none" stroke="#379469" stroke-dasharray="5,2" d="M2050.65,-1627.43C2001.85,-1672.9 1980.01,-1688.51 1917.78,-1699.35"/>
<polygon fill="#379469" stroke="#379469" points="1908.21,-1700.93 1917.34,-1694.87 1911.94,-1700.31 1918.07,-1699.31 1918.07,-1699.31 1918.07,-1699.31 1911.94,-1700.31 1918.8,-1703.75 1908.21,-1700.93"/>
</g>
<!-- 57376&#45;&gt;57377 -->
<g id="edge47" class="edge">
<title>57376&#45;&gt;57377</title>
<path fill="none" stroke="#379469" d="M2240.62,-1952.18C2140.15,-1916.41 2089.54,-1888.51 1836.8,-1742.92"/>
<polygon fill="#379469" stroke="#379469" points="1838.68,-1739.96 1828.27,-1738 1835.18,-1746.03 1838.68,-1739.96"/>
</g>
<!-- 57378 -->
<g id="node40" class="node">
<title>57378</title>
<polygon fill="none" stroke="#379469" points="1615.16,-1953.55 1615.16,-1968.46 1564.43,-1979 1492.68,-1979 1441.95,-1968.46 1441.95,-1953.55 1492.68,-1943 1564.43,-1943 1615.16,-1953.55"/>
<polygon fill="none" stroke="#379469" points="1619.16,-1950.29 1619.16,-1971.71 1564.84,-1983 1492.27,-1983 1437.95,-1971.71 1437.95,-1950.29 1492.27,-1939 1564.84,-1939 1619.16,-1950.29"/>
<text text-anchor="middle" x="1528.56" y="-1955.95" font-family="Times,serif" font-size="14.00">SGI B License 1.1</text>
</g>
<!-- 57378&#45;&gt;57377 -->
<g id="edge48" class="edge">
<title>57378&#45;&gt;57377</title>
<path fill="none" stroke="#379469" stroke-width="2" d="M1580.21,-1941.81C1685.9,-1901.3 1701.87,-1881.71 1771.68,-1746.95"/>
<polygon fill="#379469" stroke="#379469" stroke-width="2" points="1775.68,-1739.21 1775.09,-1750.16 1774.95,-1741.71 1771.53,-1748.32 1771.09,-1748.09 1770.64,-1747.86 1774.06,-1741.25 1767.09,-1746.02 1775.68,-1739.21"/>
</g>
<!-- 57379 -->
<g id="node41" class="node">
<title>57379</title>
<polygon fill="none" stroke="#379469" points="1817.68,-2082.96 1817.68,-2097.87 1765.98,-2108.42 1692.85,-2108.42 1641.15,-2097.87 1641.15,-2082.96 1692.85,-2072.42 1765.98,-2072.42 1817.68,-2082.96"/>
<text text-anchor="middle" x="1729.42" y="-2085.37" font-family="Times,serif" font-size="14.00">SGI B, Version 1.1</text>
</g>
<!-- 57379&#45;&gt;57377 -->
<g id="edge49" class="edge">
<title>57379&#45;&gt;57377</title>
<path fill="none" stroke="#379469" stroke-dasharray="5,2" d="M1739.85,-2072.11C1797.22,-1970.94 1799.49,-1954.84 1789.79,-1748.23"/>
<polygon fill="#379469" stroke="#379469" points="1789.33,-1738.5 1794.29,-1748.27 1789.51,-1742.27 1789.8,-1748.49 1789.8,-1748.49 1789.8,-1748.49 1789.51,-1742.27 1785.3,-1748.7 1789.33,-1738.5"/>
</g>
<!-- 57380 -->
<g id="node42" class="node">
<title>57380</title>
<polygon fill="none" stroke="#379469" points="2014.49,-1957.38 2014.49,-1972.29 1981.93,-1982.83 1935.88,-1982.83 1903.32,-1972.29 1903.32,-1957.38 1935.88,-1946.83 1981.93,-1946.83 2014.49,-1957.38"/>
<text text-anchor="middle" x="1958.9" y="-1959.78" font-family="Times,serif" font-size="14.00">SGI B, 1.1</text>
</g>
<!-- 57380&#45;&gt;57377 -->
<g id="edge50" class="edge">
<title>57380&#45;&gt;57377</title>
<path fill="none" stroke="#379469" stroke-dasharray="5,2" d="M1948.87,-1946.45C1916.54,-1887.45 1906,-1872.26 1811.46,-1745.96"/>
<polygon fill="#379469" stroke="#379469" points="1805.54,-1738.06 1815.13,-1743.36 1807.8,-1741.08 1811.53,-1746.06 1811.53,-1746.06 1811.53,-1746.06 1807.8,-1741.08 1807.93,-1748.76 1805.54,-1738.06"/>
</g>
<!-- 57381 -->
<g id="node43" class="node">
<title>57381</title>
<polygon fill="none" stroke="#379469" points="2003.49,-2118.76 2003.49,-2133.67 1951.46,-2144.21 1877.88,-2144.21 1825.85,-2133.67 1825.85,-2118.76 1877.88,-2108.21 1951.46,-2108.21 2003.49,-2118.76"/>
<text text-anchor="middle" x="1914.67" y="-2121.16" font-family="Times,serif" font-size="14.00">SGI&#45;B, Version 1.1</text>
</g>
<!-- 57381&#45;&gt;57377 -->
<g id="edge51" class="edge">
<title>57381&#45;&gt;57377</title>
<path fill="none" stroke="#379469" stroke-dasharray="5,2" d="M1913.3,-2108.08C1904.48,-1993.05 1899.45,-1977.13 1801.93,-1747.26"/>
<polygon fill="#379469" stroke="#379469" points="1798.15,-1738.34 1806.2,-1745.79 1799.63,-1741.83 1802.06,-1747.55 1802.06,-1747.55 1802.06,-1747.55 1799.63,-1741.83 1797.91,-1749.31 1798.15,-1738.34"/>
</g>
<!-- 57382 -->
<g id="node44" class="node">
<title>57382</title>
<polygon fill="none" stroke="#379469" points="2144.75,-1803.93 2144.75,-1818.84 2111.87,-1829.38 2065.36,-1829.38 2032.48,-1818.84 2032.48,-1803.93 2065.36,-1793.38 2111.87,-1793.38 2144.75,-1803.93"/>
<text text-anchor="middle" x="2088.62" y="-1806.33" font-family="Times,serif" font-size="14.00">SGI&#45;B, 1.1</text>
</g>
<!-- 57382&#45;&gt;57377 -->
<g id="edge52" class="edge">
<title>57382&#45;&gt;57377</title>
<path fill="none" stroke="#379469" stroke-dasharray="5,2" d="M2032.31,-1805.9C1985.39,-1799.61 1953.25,-1787.52 1848.9,-1741.7"/>
<polygon fill="#379469" stroke="#379469" points="1840.03,-1737.8 1850.99,-1737.7 1843.49,-1739.32 1849.18,-1741.82 1849.18,-1741.82 1849.18,-1741.82 1843.49,-1739.32 1847.37,-1745.94 1840.03,-1737.8"/>
</g>
<!-- 57383 -->
<g id="node45" class="node">
<title>57383</title>
<polygon fill="none" stroke="#379469" points="2011.87,-1755.49 2011.87,-1770.4 1940.37,-1780.95 1839.25,-1780.95 1767.75,-1770.4 1767.75,-1755.49 1839.25,-1744.95 1940.37,-1744.95 2011.87,-1755.49"/>
<text text-anchor="middle" x="1889.81" y="-1757.9" font-family="Times,serif" font-size="14.00">SGI B License, Version 1.1</text>
</g>
<!-- 57383&#45;&gt;57377 -->
<g id="edge53" class="edge">
<title>57383&#45;&gt;57377</title>
<path fill="none" stroke="#379469" stroke-dasharray="5,2" d="M1839.73,-1744.53C1838.67,-1743.95 1837.57,-1743.36 1836.43,-1742.73"/>
<polygon fill="#379469" stroke="#379469" points="1827.96,-1737.99 1838.89,-1738.95 1831.26,-1739.84 1836.69,-1742.88 1836.69,-1742.88 1836.69,-1742.88 1831.26,-1739.84 1834.49,-1746.8 1827.96,-1737.99"/>
</g>
<!-- 57384 -->
<g id="node46" class="node">
<title>57384</title>
<polygon fill="none" stroke="#379469" points="2159.48,-2074.76 2159.48,-2089.67 2087.66,-2100.21 1986.08,-2100.21 1914.25,-2089.67 1914.25,-2074.76 1986.08,-2064.21 2087.66,-2064.21 2159.48,-2074.76"/>
<text text-anchor="middle" x="2036.87" y="-2077.16" font-family="Times,serif" font-size="14.00">SGI&#45;B License, Version 1.1</text>
</g>
<!-- 57384&#45;&gt;57377 -->
<g id="edge54" class="edge">
<title>57384&#45;&gt;57377</title>
<path fill="none" stroke="#379469" stroke-dasharray="5,2" d="M2026.8,-2063.85C1974.23,-1968.11 1963.13,-1951.95 1811.38,-1746.32"/>
<polygon fill="#379469" stroke="#379469" points="1805.48,-1738.32 1815.04,-1743.69 1807.73,-1741.36 1811.42,-1746.37 1811.42,-1746.37 1811.42,-1746.37 1807.73,-1741.36 1807.8,-1749.04 1805.48,-1738.32"/>
</g>
<!-- 57385 -->
<g id="node47" class="node">
<title>57385</title>
<polygon fill="none" stroke="#379469" points="1683.24,-2038.95 1683.24,-2053.86 1630.56,-2064.41 1556.06,-2064.41 1503.38,-2053.86 1503.38,-2038.95 1556.06,-2028.41 1630.56,-2028.41 1683.24,-2038.95"/>
<text text-anchor="middle" x="1593.31" y="-2041.36" font-family="Times,serif" font-size="14.00">SGI&#45;B License, 1.1</text>
</g>
<!-- 57385&#45;&gt;57377 -->
<g id="edge55" class="edge">
<title>57385&#45;&gt;57377</title>
<path fill="none" stroke="#379469" stroke-dasharray="5,2" d="M1618.45,-2027.98C1722.55,-1951.17 1731.46,-1934.12 1779.63,-1748.14"/>
<polygon fill="#379469" stroke="#379469" points="1782.1,-1738.59 1783.95,-1749.4 1781.15,-1742.25 1779.6,-1748.27 1779.6,-1748.27 1779.6,-1748.27 1781.15,-1742.25 1775.24,-1747.14 1782.1,-1738.59"/>
</g>
<!-- 57386 -->
<g id="node48" class="node">
<title>57386</title>
<polygon fill="none" stroke="#379469" points="2649.77,-1615.77 2649.77,-1630.68 2492.93,-1641.22 2271.11,-1641.22 2114.26,-1630.68 2114.26,-1615.77 2271.11,-1605.22 2492.93,-1605.22 2649.77,-1615.77"/>
<text text-anchor="middle" x="2382.02" y="-1618.17" font-family="Times,serif" font-size="14.00">SGI FREE SOFTWARE LICENSE B (Version 1.1 02/22/2000)</text>
</g>
<!-- 57386&#45;&gt;57377 -->
<g id="edge56" class="edge">
<title>57386&#45;&gt;57377</title>
<path fill="none" stroke="#379469" stroke-dasharray="5,2" d="M2347.46,-1641.52C2213.83,-1711.77 2176.17,-1721.92 1936.17,-1718.04"/>
<polygon fill="#379469" stroke="#379469" points="1926.18,-1717.87 1936.25,-1713.54 1929.96,-1717.93 1936.17,-1718.04 1936.17,-1718.04 1936.17,-1718.04 1929.96,-1717.93 1936.1,-1722.54 1926.18,-1717.87"/>
</g>
<!-- 57387 -->
<g id="node49" class="node">
<title>57387</title>
<polygon fill="none" stroke="#379469" points="2652.1,-1808.87 2652.1,-1823.79 2505.96,-1834.33 2299.29,-1834.33 2153.15,-1823.79 2153.15,-1808.87 2299.29,-1798.33 2505.96,-1798.33 2652.1,-1808.87"/>
<text text-anchor="middle" x="2402.63" y="-1811.28" font-family="Times,serif" font-size="14.00">http://oss.sgi.com/projects/FreeB/SGIFreeSWLicB.1.1.doc</text>
</g>
<!-- 57387&#45;&gt;57377 -->
<g id="edge57" class="edge">
<title>57387&#45;&gt;57377</title>
<path fill="none" stroke="#379469" stroke-dasharray="5,2" d="M2153.12,-1812.34C2089.91,-1800.21 2007.13,-1777.43 1869.59,-1738.19"/>
<polygon fill="#379469" stroke="#379469" points="1860.34,-1735.55 1871.19,-1733.97 1863.97,-1736.59 1869.95,-1738.3 1869.95,-1738.3 1869.95,-1738.3 1863.97,-1736.59 1868.72,-1742.62 1860.34,-1735.55"/>
</g>
<!-- 57389 -->
<g id="node50" class="node">
<title>57389</title>
<polygon fill="none" stroke="#379469" points="2269.35,-2025.67 2269.35,-2040.59 2182.93,-2051.13 2060.7,-2051.13 1974.27,-2040.59 1974.27,-2025.67 2060.7,-2015.13 2182.93,-2015.13 2269.35,-2025.67"/>
<text text-anchor="middle" x="2121.81" y="-2028.08" font-family="Times,serif" font-size="14.00">https://spdx.org/licenses/sgi&#45;b&#45;1.1</text>
</g>
<!-- 57389&#45;&gt;57377 -->
<g id="edge58" class="edge">
<title>57389&#45;&gt;57377</title>
<path fill="none" stroke="#379469" stroke-dasharray="5,2" d="M2102.17,-2014.71C2023.93,-1941.33 2006.45,-1924.63 1819.37,-1744.87"/>
<polygon fill="#379469" stroke="#379469" points="1812.38,-1738.14 1822.7,-1741.83 1815.1,-1740.76 1819.59,-1745.07 1819.59,-1745.07 1819.59,-1745.07 1815.1,-1740.76 1816.47,-1748.31 1812.38,-1738.14"/>
</g>
<!-- 57391 -->
<g id="node51" class="node">
<title>57391</title>
<polygon fill="none" stroke="black" points="2186.01,-2306.12 2186.01,-2321.03 2025.27,-2331.57 1797.95,-2331.57 1637.21,-2321.03 1637.21,-2306.12 1797.95,-2295.57 2025.27,-2295.57 2186.01,-2306.12"/>
<text text-anchor="middle" x="1911.61" y="-2308.52" font-family="Times,serif" font-size="14.00">SGI FREE SOFTWARE LICENSE B (Version 1.1 [02/22/2000])</text>
</g>
<!-- 57391&#45;&gt;57377 -->
<g id="edge59" class="edge">
<title>57391&#45;&gt;57377</title>
<path fill="none" stroke="#379469" stroke-dasharray="5,2" d="M1912.22,-2295.3C1918.01,-2120.4 1914.41,-2103.71 1798.9,-1747.85"/>
<polygon fill="#379469" stroke="#379469" points="1795.83,-1738.38 1803.19,-1746.5 1796.99,-1741.98 1798.91,-1747.89 1798.91,-1747.89 1798.91,-1747.89 1796.99,-1741.98 1794.63,-1749.28 1795.83,-1738.38"/>
</g>
<!-- 68409 -->
<g id="node52" class="node">
<title>68409</title>
<ellipse fill="none" stroke="#00876c" cx="1811.99" cy="-950.65" rx="156.62" ry="28.99"/>
<text text-anchor="middle" x="1811.99" y="-953.85" font-family="Times,serif" font-size="14.00" fill="gray">LicenseLynx</text>
<text text-anchor="middle" x="1811.99" y="-937.35" font-family="Times,serif" font-size="14.00" fill="gray">e1e4fa02203e0c026eccc5c7072300a2</text>
</g>
<!-- 68409&#45;&gt;4246 -->
<g id="edge60" class="edge">
<title>68409&#45;&gt;4246</title>
<path fill="none" stroke="#00876c" d="M1744.98,-977.25C1699.03,-997.34 1661.31,-1020.54 1545.55,-1094.95"/>
<polygon fill="#00876c" stroke="#00876c" points="1543.76,-1091.93 1537.24,-1100.29 1547.55,-1097.82 1543.76,-1091.93"/>
</g>
<!-- 68410&#45;&gt;4246 -->
<g id="edge61" class="edge">
<title>68410&#45;&gt;4246</title>
<path fill="none" stroke="#00876c" stroke-width="2" d="M1225.65,-1026.73C1292.21,-1020.59 1332.85,-1037.33 1444.37,-1097.24"/>
<polygon fill="#00876c" stroke="#00876c" stroke-width="2" points="1451.8,-1101.24 1440.86,-1100.46 1449.31,-1100.47 1442.76,-1096.94 1443,-1096.5 1443.23,-1096.06 1449.78,-1099.59 1445.13,-1092.54 1451.8,-1101.24"/>
</g>
<!-- 68411&#45;&gt;4246 -->
<g id="edge62" class="edge">
<title>68411&#45;&gt;4246</title>
<path fill="none" stroke="#00876c" stroke-width="2" d="M1244.05,-1158.5C1319.17,-1112.77 1346.94,-1101.37 1407.38,-1109.12"/>
<polygon fill="#00876c" stroke="#00876c" stroke-width="2" points="1415.8,-1110.31 1405.27,-1113.36 1413.19,-1110.44 1405.83,-1109.4 1405.9,-1108.91 1405.97,-1108.41 1413.33,-1109.45 1406.53,-1104.45 1415.8,-1110.31"/>
</g>
</g>
</svg>
