<?xml version="1.0" encoding="UTF-8" standalone="no"?>
<!DOCTYPE svg PUBLIC "-//W3C//DTD SVG 1.1//EN"
 "http://www.w3.org/Graphics/SVG/1.1/DTD/svg11.dtd">
<!-- Generated by graphviz version 10.0.1 (0)
 -->
<!-- Pages: 1 -->
<svg width="3472pt" height="3239pt"
 viewBox="0.00 0.00 3472.00 3239.00" xmlns="http://www.w3.org/2000/svg" xmlns:xlink="http://www.w3.org/1999/xlink">
<g id="graph0" class="graph" transform="scale(1 1) rotate(0) translate(4 3235)">
<polygon fill="white" stroke="none" points="-4,4 -4,-3235 3468,-3235 3468,4 -4,4"/>
<!-- 5 -->
<g id="node1" class="node">
<title>5</title>
<text text-anchor="start" x="928.35" y="-995.76" font-family="Times,serif" font-size="14.00">OSI: </text>
<text text-anchor="start" x="957.6" y="-995.76" font-family="Times,serif" font-weight="bold" font-size="14.00" fill="#8b0000">Rejected</text>
</g>
<!-- 4389 -->
<g id="node2" class="node">
<title>4389</title>
<ellipse fill="none" stroke="#dac767" cx="1121.03" cy="-1297.92" rx="158.75" ry="28.99"/>
<text text-anchor="middle" x="1121.03" y="-1301.12" font-family="Times,serif" font-size="14.00" fill="gray">SPDXLicense</text>
<text text-anchor="middle" x="1121.03" y="-1284.62" font-family="Times,serif" font-size="14.00" fill="gray">c101de37c4774132596cac372c5f2b58</text>
</g>
<!-- 5&#45;&gt;4389 -->
<g id="edge1" class="edge">
<title>5&#45;&gt;4389</title>
<path fill="none" stroke="#dac767" d="M971.49,-1017.72C988.14,-1104.5 995.43,-1119.74 1094.04,-1259.68"/>
<polygon fill="#dac767" stroke="#dac767" points="1091.17,-1261.69 1099.8,-1267.84 1096.89,-1257.65 1091.17,-1261.69"/>
</g>
<!-- 59472 -->
<g id="node52" class="node">
<title>59472</title>
<ellipse fill="none" stroke="#dc574a" cx="1261.07" cy="-1081.46" rx="157.68" ry="28.99"/>
<text text-anchor="middle" x="1261.07" y="-1084.66" font-family="Times,serif" font-size="14.00" fill="gray">HermineLicense</text>
<text text-anchor="middle" x="1261.07" y="-1068.16" font-family="Times,serif" font-size="14.00" fill="gray">b50503b74b353dfe931b32f43cd4f8a0</text>
</g>
<!-- 5&#45;&gt;59472 -->
<g id="edge2" class="edge">
<title>5&#45;&gt;59472</title>
<path fill="none" stroke="#dc574a" d="M1015.76,-1000.03C1065.44,-1001.61 1093.64,-1010.14 1187.57,-1049.95"/>
<polygon fill="#dc574a" stroke="#dc574a" points="1186.14,-1053.14 1196.71,-1053.83 1188.88,-1046.7 1186.14,-1053.14"/>
</g>
<!-- 4390 -->
<g id="node3" class="node">
<title>4390</title>
<polygon fill="none" stroke="black" points="1617.29,-1595.76 1617.29,-1610.67 1574.99,-1621.21 1515.18,-1621.21 1472.88,-1610.67 1472.88,-1595.76 1515.18,-1585.21 1574.99,-1585.21 1617.29,-1595.76"/>
<polygon fill="none" stroke="black" points="1621.29,-1592.63 1621.29,-1613.79 1575.48,-1625.21 1514.69,-1625.21 1468.88,-1613.79 1468.88,-1592.63 1514.69,-1581.21 1575.48,-1581.21 1621.29,-1592.63"/>
<polygon fill="none" stroke="black" points="1625.29,-1589.51 1625.29,-1616.92 1575.97,-1629.21 1514.19,-1629.21 1464.88,-1616.92 1464.88,-1589.51 1514.19,-1577.21 1575.97,-1577.21 1625.29,-1589.51"/>
<text text-anchor="middle" x="1545.08" y="-1598.16" font-family="Times,serif" font-size="14.00">spdx:SSPL&#45;1.0</text>
</g>
<!-- 4389&#45;&gt;4390 -->
<g id="edge3" class="edge">
<title>4389&#45;&gt;4390</title>
<path fill="none" stroke="#dac767" d="M1150.52,-1326.62C1233.74,-1407.08 1261.72,-1426.27 1496.7,-1573.01"/>
<polygon fill="#dac767" stroke="#dac767" points="1494.61,-1575.83 1504.94,-1578.16 1498.32,-1569.89 1494.61,-1575.83"/>
</g>
<!-- 9235 -->
<g id="node14" class="node">
<title>9235</title>
<polygon fill="none" stroke="#e09d4b" points="2081.18,-1739.09 2081.18,-1754 2033.7,-1764.54 1966.54,-1764.54 1919.05,-1754 1919.05,-1739.09 1966.54,-1728.54 2033.7,-1728.54 2081.18,-1739.09"/>
<polygon fill="none" stroke="#e09d4b" points="2085.18,-1735.88 2085.18,-1757.21 2034.14,-1768.54 1966.1,-1768.54 1915.05,-1757.21 1915.05,-1735.88 1966.1,-1724.54 2034.14,-1724.54 2085.18,-1735.88"/>
<text text-anchor="middle" x="2000.12" y="-1741.49" font-family="Times,serif" font-size="14.00">Fedora:SSPL&#45;1.0</text>
</g>
<!-- 4390&#45;&gt;9235 -->
<g id="edge4" class="edge">
<title>4390&#45;&gt;9235</title>
<path fill="none" stroke="#e09d4b" stroke-width="2" d="M1588.43,-1626.37C1769.82,-1723.14 1818.43,-1746.11 1903.53,-1748.61"/>
<polygon fill="#e09d4b" stroke="#e09d4b" stroke-width="2" points="1912.23,-1748.77 1902.14,-1753.08 1909.66,-1749.22 1902.22,-1749.08 1902.23,-1748.58 1902.24,-1748.08 1909.67,-1748.23 1902.32,-1744.08 1912.23,-1748.77"/>
</g>
<!-- 21156 -->
<g id="node26" class="node">
<title>21156</title>
<polygon fill="none" stroke="black" points="2152.49,-1950.16 2152.49,-1965.07 2079.69,-1975.61 1976.74,-1975.61 1903.94,-1965.07 1903.94,-1950.16 1976.74,-1939.61 2079.69,-1939.61 2152.49,-1950.16"/>
<polygon fill="none" stroke="black" points="2156.49,-1946.69 2156.49,-1968.53 2079.98,-1979.61 1976.45,-1979.61 1899.94,-1968.53 1899.94,-1946.69 1976.45,-1935.61 2079.98,-1935.61 2156.49,-1946.69"/>
<text text-anchor="middle" x="2028.21" y="-1952.56" font-family="Times,serif" font-size="14.00">scancode:mongodb&#45;sspl&#45;1.0</text>
</g>
<!-- 4390&#45;&gt;21156 -->
<g id="edge5" class="edge">
<title>4390&#45;&gt;21156</title>
<path fill="none" stroke="#deb256" stroke-width="2" d="M1575.04,-1629.62C1656.86,-1694.67 1884.28,-1861.71 1982.32,-1928.99"/>
<polygon fill="#deb256" stroke="#deb256" stroke-width="2" points="1989.38,-1933.81 1978.58,-1931.89 1986.98,-1932.78 1980.84,-1928.59 1981.12,-1928.18 1981.4,-1927.76 1987.54,-1931.96 1983.66,-1924.46 1989.38,-1933.81"/>
</g>
<!-- 57433 -->
<g id="node45" class="node">
<title>57433</title>
<polygon fill="none" stroke="#379469" points="2119.43,-1470.57 2119.43,-1485.48 2012.88,-1496.02 1862.2,-1496.02 1755.65,-1485.48 1755.65,-1470.57 1862.2,-1460.02 2012.88,-1460.02 2119.43,-1470.57"/>
<polygon fill="none" stroke="#379469" points="2123.43,-1466.94 2123.43,-1489.1 2013.08,-1500.02 1862,-1500.02 1751.65,-1489.1 1751.65,-1466.94 1862,-1456.02 2013.08,-1456.02 2123.43,-1466.94"/>
<text text-anchor="middle" x="1937.54" y="-1472.97" font-family="Times,serif" font-size="14.00">metaeffekt:Server Side Public License 1.0</text>
</g>
<!-- 4390&#45;&gt;57433 -->
<g id="edge6" class="edge">
<title>4390&#45;&gt;57433</title>
<path fill="none" stroke="#379469" stroke-width="2" d="M1580.93,-1578.18C1655.85,-1526.01 1700.05,-1496.87 1740.7,-1482.11"/>
<polygon fill="#379469" stroke="#379469" stroke-width="2" points="1748.94,-1479.35 1740.88,-1486.79 1746.67,-1480.64 1739.61,-1483 1739.46,-1482.53 1739.3,-1482.05 1746.35,-1479.69 1738.03,-1478.26 1748.94,-1479.35"/>
</g>
<!-- 4391 -->
<g id="node4" class="node">
<title>4391</title>
<polygon fill="none" stroke="black" points="1748.5,-1361.34 1748.5,-1376.25 1718.86,-1386.79 1676.95,-1386.79 1647.31,-1376.25 1647.31,-1361.34 1676.95,-1350.79 1718.86,-1350.79 1748.5,-1361.34"/>
<polygon fill="none" stroke="black" points="1752.5,-1358.52 1752.5,-1379.07 1719.55,-1390.79 1676.26,-1390.79 1643.31,-1379.07 1643.31,-1358.52 1676.26,-1346.79 1719.55,-1346.79 1752.5,-1358.52"/>
<text text-anchor="middle" x="1697.9" y="-1363.74" font-family="Times,serif" font-size="14.00">SSPL&#45;1.0</text>
</g>
<!-- 4391&#45;&gt;4390 -->
<g id="edge7" class="edge">
<title>4391&#45;&gt;4390</title>
<path fill="none" stroke="black" stroke-width="2" d="M1668.5,-1388.38C1592.56,-1439.65 1582.66,-1455.79 1554.42,-1566.23"/>
<polygon fill="black" stroke="black" stroke-width="2" points="1552.31,-1574.49 1550.42,-1563.69 1552.46,-1571.89 1554.29,-1564.68 1554.78,-1564.8 1555.26,-1564.92 1553.43,-1572.13 1559.14,-1565.91 1552.31,-1574.49"/>
</g>
<!-- 4391&#45;&gt;9235 -->
<g id="edge8" class="edge">
<title>4391&#45;&gt;9235</title>
<path fill="none" stroke="#e09d4b" stroke-width="2" d="M1728.86,-1387.82C1925.09,-1508.64 1937.83,-1523.96 1990.95,-1713.64"/>
<polygon fill="#e09d4b" stroke="#e09d4b" stroke-width="2" points="1993.27,-1721.94 1986.25,-1713.52 1992.1,-1719.6 1990.1,-1712.44 1990.58,-1712.31 1991.06,-1712.17 1993.07,-1719.33 1994.92,-1711.1 1993.27,-1721.94"/>
</g>
<!-- 10667 -->
<g id="node19" class="node">
<title>10667</title>
<polygon fill="none" stroke="#00876c" points="1933.14,-934.8 1933.14,-949.71 1881.11,-960.25 1807.52,-960.25 1755.49,-949.71 1755.49,-934.8 1807.52,-924.25 1881.11,-924.25 1933.14,-934.8"/>
<polygon fill="none" stroke="#00876c" points="1937.14,-931.53 1937.14,-952.98 1881.51,-964.25 1807.12,-964.25 1751.49,-952.98 1751.49,-931.53 1807.12,-920.25 1881.51,-920.25 1937.14,-931.53"/>
<text text-anchor="middle" x="1844.31" y="-937.2" font-family="Times,serif" font-size="14.00">BlueOak:SSPL&#45;1.0</text>
</g>
<!-- 4391&#45;&gt;10667 -->
<g id="edge9" class="edge">
<title>4391&#45;&gt;10667</title>
<path fill="none" stroke="#00876c" stroke-width="2" d="M1703.8,-1346.7C1771.56,-1092.69 1779.39,-1065.75 1827.43,-974.15"/>
<polygon fill="#00876c" stroke="#00876c" stroke-width="2" points="1831.39,-966.63 1830.72,-977.58 1830.64,-969.13 1827.18,-975.71 1826.73,-975.48 1826.29,-975.25 1829.76,-968.67 1822.75,-973.38 1831.39,-966.63"/>
</g>
<!-- 34924 -->
<g id="node35" class="node">
<title>34924</title>
<polygon fill="none" stroke="#e18745" points="1464.11,-1351.16 1464.11,-1366.08 1410.13,-1376.62 1333.79,-1376.62 1279.82,-1366.08 1279.82,-1351.16 1333.79,-1340.62 1410.13,-1340.62 1464.11,-1351.16"/>
<polygon fill="none" stroke="#e18745" points="1468.11,-1347.87 1468.11,-1369.37 1410.52,-1380.62 1333.41,-1380.62 1275.82,-1369.37 1275.82,-1347.87 1333.41,-1336.62 1410.52,-1336.62 1468.11,-1347.87"/>
<text text-anchor="middle" x="1371.96" y="-1353.57" font-family="Times,serif" font-size="14.00">fossology:SSPL&#45;1.0</text>
</g>
<!-- 4391&#45;&gt;34924 -->
<g id="edge10" class="edge">
<title>4391&#45;&gt;34924</title>
<path fill="none" stroke="#e18745" stroke-width="2" d="M1650.32,-1355.62C1529.6,-1322.49 1496.34,-1317.06 1435.85,-1335.76"/>
<polygon fill="#e18745" stroke="#e18745" stroke-width="2" points="1427.79,-1338.35 1435.93,-1331 1430.08,-1337.09 1437.16,-1334.81 1437.31,-1335.28 1437.46,-1335.76 1430.39,-1338.04 1438.69,-1339.57 1427.79,-1338.35"/>
</g>
<!-- 42312 -->
<g id="node42" class="node">
<title>42312</title>
<polygon fill="none" stroke="#379469" points="1549.88,-1290.62 1549.88,-1305.53 1507.26,-1316.08 1446.99,-1316.08 1404.37,-1305.53 1404.37,-1290.62 1446.99,-1280.08 1507.26,-1280.08 1549.88,-1290.62"/>
<polygon fill="none" stroke="#379469" points="1553.88,-1287.49 1553.88,-1308.66 1507.75,-1320.08 1446.5,-1320.08 1400.37,-1308.66 1400.37,-1287.49 1446.5,-1276.08 1507.75,-1276.08 1553.88,-1287.49"/>
<text text-anchor="middle" x="1477.13" y="-1293.03" font-family="Times,serif" font-size="14.00">cavil:SSPL&#45;1.0</text>
</g>
<!-- 4391&#45;&gt;42312 -->
<g id="edge11" class="edge">
<title>4391&#45;&gt;42312</title>
<path fill="none" stroke="#379469" stroke-width="2" d="M1665.8,-1350.13C1616.06,-1321.36 1589.24,-1307 1564.88,-1300.49"/>
<polygon fill="#379469" stroke="#379469" stroke-width="2" points="1556.54,-1298.63 1567.28,-1296.42 1559.15,-1298.7 1566.41,-1300.32 1566.3,-1300.81 1566.19,-1301.3 1558.93,-1299.68 1565.32,-1305.2 1556.54,-1298.63"/>
</g>
<!-- 4391&#45;&gt;57433 -->
<g id="edge12" class="edge">
<title>4391&#45;&gt;57433</title>
<path fill="none" stroke="#379469" stroke-dasharray="5,2" d="M1752.88,-1371.66C1829.99,-1376.86 1849.47,-1387.49 1908.42,-1447.8"/>
<polygon fill="#379469" stroke="#379469" points="1915.36,-1454.94 1905.17,-1450.9 1912.73,-1452.23 1908.39,-1447.77 1908.39,-1447.77 1908.39,-1447.77 1912.73,-1452.23 1911.62,-1444.63 1915.36,-1454.94"/>
</g>
<!-- 60288 -->
<g id="node55" class="node">
<title>60288</title>
<polygon fill="none" stroke="#b8bf62" points="2571.56,-1486.61 2571.56,-1501.52 2443.91,-1512.06 2263.4,-1512.06 2135.76,-1501.52 2135.76,-1486.61 2263.4,-1476.06 2443.91,-1476.06 2571.56,-1486.61"/>
<polygon fill="none" stroke="#b8bf62" points="2575.56,-1482.92 2575.56,-1505.2 2444.08,-1516.06 2263.24,-1516.06 2131.76,-1505.2 2131.76,-1482.92 2263.24,-1472.06 2444.08,-1472.06 2575.56,-1482.92"/>
<text text-anchor="middle" x="2353.66" y="-1489.01" font-family="Times,serif" font-size="14.00">foss&#45;license:Server Side Public License (SSPL) 1.0</text>
</g>
<!-- 4391&#45;&gt;60288 -->
<g id="edge13" class="edge">
<title>4391&#45;&gt;60288</title>
<path fill="none" stroke="#b8bf62" stroke-width="2" d="M1752.96,-1367.77C2108.65,-1361.34 2144.46,-1365.53 2308.15,-1465.89"/>
<polygon fill="#b8bf62" stroke="#b8bf62" stroke-width="2" points="2315.5,-1470.41 2304.62,-1469 2313.05,-1469.49 2306.72,-1465.59 2306.98,-1465.17 2307.24,-1464.74 2313.58,-1468.64 2309.34,-1461.34 2315.5,-1470.41"/>
</g>
<!-- 4392 -->
<g id="node5" class="node">
<title>4392</title>
<polygon fill="none" stroke="black" points="1739.41,-1470.35 1739.41,-1485.27 1658.17,-1495.81 1543.29,-1495.81 1462.05,-1485.27 1462.05,-1470.35 1543.29,-1459.81 1658.17,-1459.81 1739.41,-1470.35"/>
<polygon fill="none" stroke="black" points="1743.41,-1466.84 1743.41,-1488.78 1658.43,-1499.81 1543.03,-1499.81 1458.05,-1488.78 1458.05,-1466.84 1543.03,-1455.81 1658.43,-1455.81 1743.41,-1466.84"/>
<text text-anchor="middle" x="1600.73" y="-1472.76" font-family="Times,serif" font-size="14.00">Server Side Public License, v 1</text>
</g>
<!-- 4392&#45;&gt;4390 -->
<g id="edge14" class="edge">
<title>4392&#45;&gt;4390</title>
<path fill="none" stroke="black" stroke-width="2" d="M1577.97,-1500.23C1555.41,-1523.4 1549.59,-1535.13 1547.03,-1565.8"/>
<polygon fill="black" stroke="black" stroke-width="2" points="1546.43,-1574.54 1542.62,-1564.25 1546.11,-1571.94 1546.61,-1564.52 1547.11,-1564.56 1547.61,-1564.59 1547.1,-1572.01 1551.6,-1564.87 1546.43,-1574.54"/>
</g>
<!-- 4392&#45;&gt;34924 -->
<g id="edge15" class="edge">
<title>4392&#45;&gt;34924</title>
<path fill="none" stroke="#e18745" stroke-width="2" d="M1563.01,-1455.4C1491.9,-1413.21 1461.63,-1395.74 1433.83,-1383.01"/>
<polygon fill="#e18745" stroke="#e18745" stroke-width="2" points="1425.86,-1379.49 1436.82,-1379.42 1428.4,-1380.07 1435.2,-1383.08 1435,-1383.53 1434.8,-1383.99 1428,-1380.98 1433.18,-1387.65 1425.86,-1379.49"/>
</g>
<!-- 4392&#45;&gt;60288 -->
<g id="edge16" class="edge">
<title>4392&#45;&gt;60288</title>
<path fill="none" stroke="#b8bf62" stroke-width="2" d="M1719.74,-1463.34C2058.87,-1422.53 2118.98,-1421.55 2272.83,-1468.42"/>
<polygon fill="#b8bf62" stroke="#b8bf62" stroke-width="2" points="2280.78,-1470.86 2269.9,-1472.22 2278.18,-1470.58 2271.07,-1468.4 2271.22,-1467.92 2271.37,-1467.44 2278.47,-1469.63 2272.54,-1463.62 2280.78,-1470.86"/>
</g>
<!-- 68499 -->
<g id="node61" class="node">
<title>68499</title>
<polygon fill="none" stroke="#00876c" points="1452.69,-1643.06 1452.69,-1657.98 1358.8,-1668.52 1226.01,-1668.52 1132.12,-1657.98 1132.12,-1643.06 1226.01,-1632.52 1358.8,-1632.52 1452.69,-1643.06"/>
<polygon fill="none" stroke="#00876c" points="1456.69,-1639.49 1456.69,-1661.55 1359.02,-1672.52 1225.79,-1672.52 1128.12,-1661.55 1128.12,-1639.49 1225.79,-1628.52 1359.02,-1628.52 1456.69,-1639.49"/>
<text text-anchor="middle" x="1292.4" y="-1645.47" font-family="Times,serif" font-size="14.00">spdx:Server Side Public License, v 1</text>
</g>
<!-- 4392&#45;&gt;68499 -->
<g id="edge17" class="edge">
<title>4392&#45;&gt;68499</title>
<path fill="none" stroke="#00876c" stroke-width="2" d="M1535.73,-1499.35C1396.63,-1545.91 1372.5,-1559.13 1318.73,-1620.04"/>
<polygon fill="#00876c" stroke="#00876c" stroke-width="2" points="1313.26,-1626.29 1316.46,-1615.8 1314.57,-1624.03 1319.47,-1618.44 1319.84,-1618.77 1320.22,-1619.1 1315.32,-1624.69 1323.23,-1621.73 1313.26,-1626.29"/>
</g>
<!-- 4393 -->
<g id="node6" class="node">
<title>4393</title>
<text text-anchor="middle" x="524.54" y="-1225.54" font-family="Times,serif" font-size="14.00">SPDXLicense:</text>
<text text-anchor="middle" x="524.54" y="-1209.04" font-family="Times,serif" font-size="14.00">This license uses much of the text of AGPL&#45;3.0, but with a different clause 13</text>
<text text-anchor="middle" x="524.54" y="-1192.54" font-family="Times,serif" font-size="14.00">and 14.</text>
</g>
<!-- 4393&#45;&gt;4389 -->
<g id="edge18" class="edge">
<title>4393&#45;&gt;4389</title>
<path fill="none" stroke="#dac767" d="M746.28,-1223.86C804.19,-1232.36 879.55,-1247.4 1004.7,-1273.52"/>
<polygon fill="#dac767" stroke="#dac767" points="1003.79,-1276.91 1014.29,-1275.52 1005.22,-1270.05 1003.79,-1276.91"/>
</g>
<!-- 4394 -->
<g id="node7" class="node">
<title>4394</title>
<text text-anchor="middle" x="720.95" y="-1066.73" font-family="Times,serif" font-size="14.00">$TEXT</text>
</g>
<!-- 4394&#45;&gt;4389 -->
<g id="edge19" class="edge">
<title>4394&#45;&gt;4389</title>
<path fill="none" stroke="#dac767" d="M749.51,-1088.58C834.14,-1138.34 859.99,-1152.93 1060.89,-1264.51"/>
<polygon fill="#dac767" stroke="#dac767" points="1059.14,-1267.54 1069.58,-1269.34 1062.54,-1261.42 1059.14,-1267.54"/>
</g>
<!-- 4395 -->
<g id="node8" class="node">
<title>4395</title>
<text text-anchor="middle" x="529.52" y="-949.99" font-family="Times,serif" font-size="14.00">$TEXT</text>
</g>
<!-- 4395&#45;&gt;4394 -->
<g id="edge20" class="edge">
<title>4395&#45;&gt;4394</title>
<path fill="none" stroke="#dac767" d="M557.01,-973.01C586.43,-992.08 606.09,-1003.91 682.82,-1049.26"/>
<polygon fill="#dac767" stroke="#dac767" points="680.78,-1052.11 691.17,-1054.19 684.34,-1046.09 680.78,-1052.11"/>
</g>
<!-- 4396 -->
<g id="node9" class="node">
<title>4396</title>
<text text-anchor="middle" x="773.7" y="-1285.42" font-family="Times,serif" font-size="14.00">https://www.mongodb.com/licensing/server&#45;side&#45;public&#45;license</text>
</g>
<!-- 4396&#45;&gt;4389 -->
<g id="edge21" class="edge">
<title>4396&#45;&gt;4389</title>
<path fill="none" stroke="#dac767" d="M954.19,-1278.04C961.33,-1278.72 968.91,-1279.5 977,-1280.38"/>
<polygon fill="#dac767" stroke="#dac767" points="976.53,-1283.85 986.85,-1281.46 977.3,-1276.89 976.53,-1283.85"/>
</g>
<!-- 34923 -->
<g id="node34" class="node">
<title>34923</title>
<ellipse fill="none" stroke="#e18745" cx="795.91" cy="-1345.51" rx="156.62" ry="28.99"/>
<text text-anchor="middle" x="795.91" y="-1348.71" font-family="Times,serif" font-size="14.00" fill="gray">Fossology</text>
<text text-anchor="middle" x="795.91" y="-1332.21" font-family="Times,serif" font-size="14.00" fill="gray">346f893dec7a32fc2104944812f4785c</text>
</g>
<!-- 4396&#45;&gt;34923 -->
<g id="edge22" class="edge">
<title>4396&#45;&gt;34923</title>
<path fill="none" stroke="#e18745" d="M774.34,-1308.27C774.35,-1308.35 774.37,-1308.44 774.38,-1308.53"/>
<polygon fill="#e18745" stroke="#e18745" points="770.1,-1306.47 776.36,-1315.02 776.8,-1304.44 770.1,-1306.47"/>
</g>
<!-- 4396&#45;&gt;59472 -->
<g id="edge23" class="edge">
<title>4396&#45;&gt;59472</title>
<path fill="none" stroke="#dc574a" d="M790.94,-1272.54C904.98,-1154.12 932.25,-1133.64 1127.41,-1101.89"/>
<polygon fill="#dc574a" stroke="#dc574a" points="1127.85,-1105.37 1137.17,-1100.32 1126.74,-1098.46 1127.85,-1105.37"/>
</g>
<!-- 5758 -->
<g id="node10" class="node">
<title>5758</title>
<text text-anchor="middle" x="1362.16" y="-237.78" font-family="Times,serif" font-size="14.00">LicenseType Copyleft</text>
</g>
<!-- 10604 -->
<g id="node17" class="node">
<title>10604</title>
<text text-anchor="middle" x="1613.18" y="-98.55" font-family="Times,serif" font-size="14.00">LicenseType Network Protective</text>
</g>
<!-- 5758&#45;&gt;10604 -->
<g id="edge24" class="edge">
<title>5758&#45;&gt;10604</title>
<path fill="none" stroke="#00876c" d="M1378.65,-224.89C1438.93,-159.45 1465.12,-133.32 1504.73,-120.16"/>
<polygon fill="#00876c" stroke="#00876c" points="1505.65,-123.54 1514.25,-117.36 1503.67,-116.83 1505.65,-123.54"/>
</g>
<!-- 10673 -->
<g id="node23" class="node">
<title>10673</title>
<text text-anchor="middle" x="1283.46" y="-573.28" font-family="Times,serif" font-size="14.00">LicenseType Strongly Protective</text>
</g>
<!-- 5758&#45;&gt;10673 -->
<g id="edge25" class="edge">
<title>5758&#45;&gt;10673</title>
<path fill="none" stroke="#00876c" d="M1351.49,-260.66C1302.94,-342.23 1299.79,-358.25 1285.61,-549.22"/>
<polygon fill="#00876c" stroke="#00876c" points="1282.14,-548.8 1284.89,-559.03 1289.12,-549.31 1282.14,-548.8"/>
</g>
<!-- 6640 -->
<g id="node11" class="node">
<title>6640</title>
<text text-anchor="middle" x="2899.14" y="-2261.5" font-family="Times,serif" font-size="14.00">[&quot;not&#45;allowed&quot;]</text>
</g>
<!-- 9234 -->
<g id="node13" class="node">
<title>9234</title>
<ellipse fill="none" stroke="#e09d4b" cx="2497.94" cy="-2078.56" rx="159.28" ry="28.99"/>
<text text-anchor="middle" x="2497.94" y="-2081.76" font-family="Times,serif" font-size="14.00" fill="gray">FedoraEntry</text>
<text text-anchor="middle" x="2497.94" y="-2065.26" font-family="Times,serif" font-size="14.00" fill="gray">58bfeb343090723d0aed8202914f97d3</text>
</g>
<!-- 6640&#45;&gt;9234 -->
<g id="edge26" class="edge">
<title>6640&#45;&gt;9234</title>
<path fill="none" stroke="#e09d4b" d="M2854.56,-2248.57C2778.56,-2217.66 2744.62,-2201.43 2563.35,-2111.15"/>
<polygon fill="#e09d4b" stroke="#e09d4b" points="2565.06,-2108.1 2554.55,-2106.77 2561.94,-2114.36 2565.06,-2108.1"/>
</g>
<!-- 6641 -->
<g id="node12" class="node">
<title>6641</title>
<text text-anchor="start" x="3210.25" y="-2468.46" font-family="Times,serif" font-size="14.00">Fedora: </text>
<text text-anchor="start" x="3255.25" y="-2468.46" font-family="Times,serif" font-weight="bold" font-size="14.00" fill="#8b0000">not&#45;allowed</text>
<text text-anchor="start" x="3076.75" y="-2454.46" font-family="Times,serif" font-size="14.00">Any license that does not meet the criteria above for allowed licenses</text>
<text text-anchor="start" x="3108.25" y="-2440.46" font-family="Times,serif" font-size="14.00">(including allowed for a specific category) is not&#45;allowed.</text>
</g>
<!-- 6641&#45;&gt;6640 -->
<g id="edge27" class="edge">
<title>6641&#45;&gt;6640</title>
<path fill="none" stroke="#e09d4b" d="M3217.71,-2434.95C3153.11,-2401.99 3117.33,-2383 2942.83,-2289.87"/>
<polygon fill="#e09d4b" stroke="#e09d4b" points="2944.59,-2286.84 2934.12,-2285.22 2941.29,-2293.02 2944.59,-2286.84"/>
</g>
<!-- 9234&#45;&gt;9235 -->
<g id="edge28" class="edge">
<title>9234&#45;&gt;9235</title>
<path fill="none" stroke="#e09d4b" d="M2459.11,-2050.12C2354.74,-1973.9 2321.55,-1952.2 2044.36,-1774.85"/>
<polygon fill="#e09d4b" stroke="#e09d4b" points="2046.4,-1772 2036.09,-1769.56 2042.63,-1777.9 2046.4,-1772"/>
</g>
<!-- 9236 -->
<g id="node15" class="node">
<title>9236</title>
<polygon fill="none" stroke="#e09d4b" points="2296.48,-2137.74 2296.48,-2152.65 2199.66,-2163.19 2062.75,-2163.19 1965.94,-2152.65 1965.94,-2137.74 2062.75,-2127.19 2199.66,-2127.19 2296.48,-2137.74"/>
<text text-anchor="middle" x="2131.21" y="-2140.14" font-family="Times,serif" font-size="14.00">Server Side Public License v1 (SSPL)</text>
</g>
<!-- 9236&#45;&gt;9235 -->
<g id="edge29" class="edge">
<title>9236&#45;&gt;9235</title>
<path fill="none" stroke="#e09d4b" stroke-dasharray="5,2" d="M2130.42,-2126.73C2125.29,-2009.99 2120.06,-1994.34 2015.86,-1779.05"/>
<polygon fill="#e09d4b" stroke="#e09d4b" points="2011.52,-1770.07 2019.93,-1777.11 2013.17,-1773.48 2015.87,-1779.07 2015.87,-1779.07 2015.87,-1779.07 2013.17,-1773.48 2011.82,-1781.04 2011.52,-1770.07"/>
</g>
<!-- 9237 -->
<g id="node16" class="node">
<title>9237</title>
<text text-anchor="middle" x="2808.61" y="-2413.3" font-family="Times,serif" font-size="14.00">https://fedoraproject.org/wiki/Licensing/SSPL</text>
</g>
<!-- 9237&#45;&gt;9234 -->
<g id="edge30" class="edge">
<title>9237&#45;&gt;9234</title>
<path fill="none" stroke="#e09d4b" d="M2796.66,-2400.65C2732.74,-2306.2 2718.62,-2290.6 2536.23,-2115.34"/>
<polygon fill="#e09d4b" stroke="#e09d4b" points="2538.71,-2112.87 2529.08,-2108.46 2533.86,-2117.92 2538.71,-2112.87"/>
</g>
<!-- 10666 -->
<g id="node18" class="node">
<title>10666</title>
<ellipse fill="none" stroke="#00876c" cx="1863.3" cy="-422.77" rx="157.15" ry="28.99"/>
<text text-anchor="middle" x="1863.3" y="-425.97" font-family="Times,serif" font-size="14.00" fill="gray">BlueOakCouncil</text>
<text text-anchor="middle" x="1863.3" y="-409.47" font-family="Times,serif" font-size="14.00" fill="gray">f24f95776eddc80e34245d32ec32ccb3</text>
</g>
<!-- 10604&#45;&gt;10666 -->
<g id="edge31" class="edge">
<title>10604&#45;&gt;10666</title>
<path fill="none" stroke="#00876c" d="M1641.65,-121.51C1733.32,-179.81 1747.32,-199.38 1842.97,-383.56"/>
<polygon fill="#00876c" stroke="#00876c" points="1839.77,-385 1847.49,-392.26 1845.99,-381.78 1839.77,-385"/>
</g>
<!-- 10666&#45;&gt;10667 -->
<g id="edge32" class="edge">
<title>10666&#45;&gt;10667</title>
<path fill="none" stroke="#00876c" d="M1864.03,-452.06C1867.06,-576.65 1865.83,-601.87 1846.43,-908.86"/>
<polygon fill="#00876c" stroke="#00876c" points="1842.96,-908.19 1845.82,-918.39 1849.95,-908.63 1842.96,-908.19"/>
</g>
<!-- 10668 -->
<g id="node20" class="node">
<title>10668</title>
<polygon fill="none" stroke="black" points="2182.7,-1053.02 2182.7,-1067.93 2088.49,-1078.47 1955.24,-1078.47 1861.03,-1067.93 1861.03,-1053.02 1955.24,-1042.47 2088.49,-1042.47 2182.7,-1053.02"/>
<polygon fill="none" stroke="black" points="2186.7,-1049.44 2186.7,-1071.51 2088.71,-1082.47 1955.02,-1082.47 1857.03,-1071.51 1857.03,-1049.44 1955.02,-1038.47 2088.71,-1038.47 2186.7,-1049.44"/>
<text text-anchor="middle" x="2021.86" y="-1055.42" font-family="Times,serif" font-size="14.00">Server Side Public License Version 1</text>
</g>
<!-- 10668&#45;&gt;10667 -->
<g id="edge33" class="edge">
<title>10668&#45;&gt;10667</title>
<path fill="none" stroke="#00876c" stroke-width="2" d="M2005.09,-1038.39C1970.02,-992.51 1953.04,-973.25 1925.69,-961.65"/>
<polygon fill="#00876c" stroke="#00876c" stroke-width="2" points="1917.81,-958.69 1928.75,-957.99 1920.39,-959.12 1927.35,-961.74 1927.17,-962.21 1927,-962.68 1920.03,-960.06 1925.59,-966.42 1917.81,-958.69"/>
</g>
<!-- 10668&#45;&gt;57433 -->
<g id="edge34" class="edge">
<title>10668&#45;&gt;57433</title>
<path fill="none" stroke="#379469" stroke-dasharray="5,2" d="M2023.04,-1082.91C2028.72,-1195.72 2024.48,-1214.22 1948.38,-1445.16"/>
<polygon fill="#379469" stroke="#379469" points="1945.32,-1454.44 1944.18,-1443.53 1946.5,-1450.85 1948.45,-1444.94 1948.45,-1444.94 1948.45,-1444.94 1946.5,-1450.85 1952.73,-1446.35 1945.32,-1454.44"/>
</g>
<!-- 10668&#45;&gt;60288 -->
<g id="edge35" class="edge">
<title>10668&#45;&gt;60288</title>
<path fill="none" stroke="#b8bf62" stroke-width="2" d="M2059.25,-1082.87C2266.34,-1207.35 2278.77,-1225.38 2344.45,-1460.93"/>
<polygon fill="#b8bf62" stroke="#b8bf62" stroke-width="2" points="2346.76,-1469.24 2339.75,-1460.81 2345.59,-1466.9 2343.6,-1459.74 2344.08,-1459.6 2344.56,-1459.47 2346.56,-1466.63 2348.42,-1458.4 2346.76,-1469.24"/>
</g>
<!-- 10669 -->
<g id="node21" class="node">
<title>10669</title>
<polygon fill="none" stroke="black" points="2338.6,-954.3 2338.6,-969.21 2268.07,-979.75 2168.33,-979.75 2097.81,-969.21 2097.81,-954.3 2168.33,-943.75 2268.07,-943.75 2338.6,-954.3"/>
<polygon fill="none" stroke="black" points="2342.6,-950.85 2342.6,-972.66 2268.37,-983.75 2168.04,-983.75 2093.81,-972.66 2093.81,-950.85 2168.04,-939.75 2268.37,-939.75 2342.6,-950.85"/>
<text text-anchor="middle" x="2218.2" y="-956.7" font-family="Times,serif" font-size="14.00">Server Side Public License</text>
</g>
<!-- 10669&#45;&gt;10667 -->
<g id="edge36" class="edge">
<title>10669&#45;&gt;10667</title>
<path fill="none" stroke="#00876c" stroke-dasharray="5,2" d="M2172.82,-939.29C2075.98,-892.39 2046.67,-889.68 1918.82,-922.49"/>
<polygon fill="#00876c" stroke="#00876c" points="1909.39,-924.93 1917.95,-918.07 1913.05,-923.99 1919.07,-922.43 1919.07,-922.43 1919.07,-922.43 1913.05,-923.99 1920.2,-926.78 1909.39,-924.93"/>
</g>
<!-- 10669&#45;&gt;60288 -->
<g id="edge37" class="edge">
<title>10669&#45;&gt;60288</title>
<path fill="none" stroke="#b8bf62" stroke-width="2" d="M2235.55,-984.11C2370.81,-1158.82 2374.96,-1176.36 2355.91,-1460.75"/>
<polygon fill="#b8bf62" stroke="#b8bf62" stroke-width="2" points="2355.32,-1469.42 2351.5,-1459.14 2355,-1466.83 2355.49,-1459.41 2355.99,-1459.44 2356.49,-1459.48 2355.99,-1466.9 2360.48,-1459.75 2355.32,-1469.42"/>
</g>
<!-- 10670 -->
<g id="node22" class="node">
<title>10670</title>
<text text-anchor="middle" x="1991.55" y="-12.72" font-family="Times,serif" font-size="14.00">https://spdx.org/licenses/SSPL&#45;1.0</text>
</g>
<!-- 10670&#45;&gt;10666 -->
<g id="edge38" class="edge">
<title>10670&#45;&gt;10666</title>
<path fill="none" stroke="#00876c" d="M1983.68,-35.57C1941.31,-131.69 1935.71,-149.53 1873.92,-382.69"/>
<polygon fill="#00876c" stroke="#00876c" points="1870.59,-381.56 1871.42,-392.13 1877.36,-383.36 1870.59,-381.56"/>
</g>
<!-- 10673&#45;&gt;59472 -->
<g id="edge39" class="edge">
<title>10673&#45;&gt;59472</title>
<path fill="none" stroke="#dc574a" d="M1276.81,-596C1223.83,-737.08 1222.85,-754.23 1256.34,-1041.06"/>
<polygon fill="#dc574a" stroke="#dc574a" points="1252.84,-1041.23 1257.48,-1050.76 1259.79,-1040.42 1252.84,-1041.23"/>
</g>
<!-- 13449 -->
<g id="node24" class="node">
<title>13449</title>
<text text-anchor="middle" x="2022.67" y="-3017.38" font-family="Times,serif" font-size="14.00">LicenseType Source&#45;available</text>
</g>
<!-- 21155 -->
<g id="node25" class="node">
<title>21155</title>
<ellipse fill="none" stroke="#deb256" cx="2127.8" cy="-2644.86" rx="161.4" ry="28.99"/>
<text text-anchor="middle" x="2127.8" y="-2648.06" font-family="Times,serif" font-size="14.00" fill="gray">ScancodeData</text>
<text text-anchor="middle" x="2127.8" y="-2631.56" font-family="Times,serif" font-size="14.00" fill="gray">70504405364fe800a55138141648950b</text>
</g>
<!-- 13449&#45;&gt;21155 -->
<g id="edge40" class="edge">
<title>13449&#45;&gt;21155</title>
<path fill="none" stroke="#deb256" d="M2034.33,-3004.5C2093.05,-2913.75 2097.86,-2896.24 2123.01,-2685.24"/>
<polygon fill="#deb256" stroke="#deb256" points="2126.45,-2685.91 2124.16,-2675.56 2119.5,-2685.08 2126.45,-2685.91"/>
</g>
<!-- 21155&#45;&gt;21156 -->
<g id="edge41" class="edge">
<title>21155&#45;&gt;21156</title>
<path fill="none" stroke="#deb256" d="M2129.49,-2615.65C2140.05,-2429.15 2135.61,-2404.72 2036.28,-1991.2"/>
<polygon fill="#deb256" stroke="#deb256" points="2039.71,-1990.48 2033.97,-1981.58 2032.9,-1992.12 2039.71,-1990.48"/>
</g>
<!-- 21156&#45;&gt;4390 -->
<g id="edge42" class="edge">
<title>21156&#45;&gt;4390</title>
<path fill="none" stroke="#00876c" stroke-width="2" d="M2003.17,-1935.12C1926.59,-1873.65 1694.94,-1703.37 1593.5,-1633.56"/>
<polygon fill="#00876c" stroke="#00876c" stroke-width="2" points="1586.4,-1628.7 1597.19,-1630.64 1588.79,-1629.73 1594.93,-1633.94 1594.65,-1634.35 1594.37,-1634.76 1588.23,-1630.56 1592.11,-1638.06 1586.4,-1628.7"/>
</g>
<!-- 21156&#45;&gt;57433 -->
<g id="edge43" class="edge">
<title>21156&#45;&gt;57433</title>
<path fill="none" stroke="#379469" stroke-dasharray="5,2" d="M2033.16,-1935.28C2071.39,-1761.9 2068.44,-1745.3 1953.36,-1510.3"/>
<polygon fill="#379469" stroke="#379469" points="1949.05,-1501.49 1957.49,-1508.49 1950.71,-1504.89 1953.45,-1510.47 1953.45,-1510.47 1953.45,-1510.47 1950.71,-1504.89 1949.41,-1512.45 1949.05,-1501.49"/>
</g>
<!-- 21156&#45;&gt;60288 -->
<g id="edge44" class="edge">
<title>21156&#45;&gt;60288</title>
<path fill="none" stroke="#b8bf62" stroke-width="2" d="M2057.85,-1935.3C2289.86,-1760.46 2302.35,-1743.85 2346.9,-1527.14"/>
<polygon fill="#b8bf62" stroke="#b8bf62" stroke-width="2" points="2348.63,-1518.72 2351.03,-1529.42 2348.6,-1521.33 2347.11,-1528.62 2346.62,-1528.52 2346.13,-1528.41 2347.62,-1521.13 2342.21,-1527.61 2348.63,-1518.72"/>
</g>
<!-- 21157 -->
<g id="node27" class="node">
<title>21157</title>
<polygon fill="none" stroke="black" points="2479.24,-1916.67 2479.24,-1931.58 2429.48,-1942.13 2359.11,-1942.13 2309.35,-1931.58 2309.35,-1916.67 2359.11,-1906.13 2429.48,-1906.13 2479.24,-1916.67"/>
<polygon fill="none" stroke="black" points="2483.24,-1913.43 2483.24,-1934.82 2429.9,-1946.13 2358.69,-1946.13 2305.35,-1934.82 2305.35,-1913.43 2358.69,-1902.13 2429.9,-1902.13 2483.24,-1913.43"/>
<text text-anchor="middle" x="2394.29" y="-1919.08" font-family="Times,serif" font-size="14.00">mongodb&#45;sspl&#45;1.0</text>
</g>
<!-- 21157&#45;&gt;21156 -->
<g id="edge45" class="edge">
<title>21157&#45;&gt;21156</title>
<path fill="none" stroke="black" stroke-width="2" d="M2350.08,-1944.76C2289.92,-1971.69 2258.31,-1977.45 2164.11,-1970.39"/>
<polygon fill="black" stroke="black" stroke-width="2" points="2155.37,-1969.71 2165.69,-1966 2157.96,-1969.41 2165.38,-1969.99 2165.34,-1970.49 2165.3,-1970.99 2157.88,-1970.41 2164.99,-1974.97 2155.37,-1969.71"/>
</g>
<!-- 21157&#45;&gt;60288 -->
<g id="edge46" class="edge">
<title>21157&#45;&gt;60288</title>
<path fill="none" stroke="#b8bf62" stroke-width="2" d="M2401.45,-1901.84C2456.33,-1730.56 2455.67,-1714.21 2368.65,-1526.33"/>
<polygon fill="#b8bf62" stroke="#b8bf62" stroke-width="2" points="2365.06,-1518.59 2373.35,-1525.77 2366.59,-1520.7 2369.72,-1527.45 2369.26,-1527.66 2368.81,-1527.87 2365.68,-1521.12 2365.18,-1529.55 2365.06,-1518.59"/>
</g>
<!-- 21158 -->
<g id="node28" class="node">
<title>21158</title>
<polygon fill="none" stroke="black" points="2186.69,-1833.11 2186.69,-1848.03 2157.7,-1858.57 2116.71,-1858.57 2087.72,-1848.03 2087.72,-1833.11 2116.71,-1822.57 2157.7,-1822.57 2186.69,-1833.11"/>
<polygon fill="none" stroke="black" points="2190.69,-1830.31 2190.69,-1850.83 2158.41,-1862.57 2116,-1862.57 2083.72,-1850.83 2083.72,-1830.31 2116,-1818.57 2158.41,-1818.57 2190.69,-1830.31"/>
<text text-anchor="middle" x="2137.21" y="-1835.52" font-family="Times,serif" font-size="14.00">SSPL 1.0</text>
</g>
<!-- 21158&#45;&gt;21156 -->
<g id="edge47" class="edge">
<title>21158&#45;&gt;21156</title>
<path fill="none" stroke="#deb256" stroke-width="2" d="M2128.69,-1862.96C2114.31,-1900.03 2106.13,-1914.4 2082.32,-1929.52"/>
<polygon fill="#deb256" stroke="#deb256" stroke-width="2" points="2074.9,-1933.93 2081.21,-1924.95 2076.85,-1932.19 2083.25,-1928.39 2083.5,-1928.82 2083.76,-1929.25 2077.36,-1933.05 2085.8,-1932.69 2074.9,-1933.93"/>
</g>
<!-- 21158&#45;&gt;60288 -->
<g id="edge48" class="edge">
<title>21158&#45;&gt;60288</title>
<path fill="none" stroke="#b8bf62" stroke-width="2" d="M2161.62,-1819.29C2315.51,-1684.99 2327.02,-1669.07 2348.68,-1527.32"/>
<polygon fill="#b8bf62" stroke="#b8bf62" stroke-width="2" points="2349.96,-1518.85 2352.91,-1529.41 2350.07,-1521.46 2348.96,-1528.81 2348.46,-1528.74 2347.97,-1528.66 2349.08,-1521.31 2344.01,-1528.07 2349.96,-1518.85"/>
</g>
<!-- 68498 -->
<g id="node60" class="node">
<title>68498</title>
<polygon fill="none" stroke="#00876c" points="1920.98,-1835.48 1920.98,-1850.39 1868.95,-1860.94 1795.37,-1860.94 1743.34,-1850.39 1743.34,-1835.48 1795.37,-1824.94 1868.95,-1824.94 1920.98,-1835.48"/>
<polygon fill="none" stroke="#00876c" points="1924.98,-1832.21 1924.98,-1853.66 1869.36,-1864.94 1794.97,-1864.94 1739.34,-1853.66 1739.34,-1832.21 1794.97,-1820.94 1869.36,-1820.94 1924.98,-1832.21"/>
<text text-anchor="middle" x="1832.16" y="-1837.89" font-family="Times,serif" font-size="14.00">scancode:SSPL 1.0</text>
</g>
<!-- 21158&#45;&gt;68498 -->
<g id="edge49" class="edge">
<title>21158&#45;&gt;68498</title>
<path fill="none" stroke="#00876c" stroke-width="2" d="M2097.05,-1855.94C2040.29,-1876.51 2013.45,-1877.53 1918.05,-1859.76"/>
<polygon fill="#00876c" stroke="#00876c" stroke-width="2" points="1909.43,-1858.14 1920.09,-1855.57 1912.04,-1858.12 1919.34,-1859.5 1919.25,-1859.99 1919.16,-1860.48 1911.85,-1859.1 1918.42,-1864.41 1909.43,-1858.14"/>
</g>
<!-- 21159 -->
<g id="node29" class="node">
<title>21159</title>
<polygon fill="none" stroke="black" points="2502.22,-1538.64 2502.22,-1553.55 2403.78,-1564.09 2264.57,-1564.09 2166.14,-1553.55 2166.14,-1538.64 2264.57,-1528.09 2403.78,-1528.09 2502.22,-1538.64"/>
<polygon fill="none" stroke="black" points="2506.22,-1535.04 2506.22,-1557.14 2403.99,-1568.09 2264.36,-1568.09 2162.14,-1557.14 2162.14,-1535.04 2264.36,-1524.09 2403.99,-1524.09 2506.22,-1535.04"/>
<text text-anchor="middle" x="2334.18" y="-1541.04" font-family="Times,serif" font-size="14.00">Server Side Public License (SSPL) 1.0</text>
</g>
<!-- 21159&#45;&gt;21156 -->
<g id="edge50" class="edge">
<title>21159&#45;&gt;21156</title>
<path fill="none" stroke="#deb256" stroke-width="2" d="M2328.96,-1568.47C2282.05,-1769.06 2272.22,-1785.99 2069.38,-1928.73"/>
<polygon fill="#deb256" stroke="#deb256" stroke-width="2" points="2062.19,-1933.78 2067.79,-1924.35 2064,-1931.89 2070.09,-1927.62 2070.37,-1928.03 2070.66,-1928.44 2064.58,-1932.71 2072.96,-1931.71 2062.19,-1933.78"/>
</g>
<!-- 21159&#45;&gt;60288 -->
<g id="edge51" class="edge">
<title>21159&#45;&gt;60288</title>
<path fill="none" stroke="#b8bf62" stroke-width="2" d="M2349.77,-1523.85C2349.86,-1523.69 2349.95,-1523.52 2350.04,-1523.36"/>
<polygon fill="#b8bf62" stroke="#b8bf62" stroke-width="2" points="2351.98,-1518.69 2352.3,-1529.65 2351.46,-1521.25 2348.61,-1528.11 2348.15,-1527.92 2347.68,-1527.73 2350.54,-1520.86 2343.99,-1526.2 2351.98,-1518.69"/>
</g>
<!-- 68497 -->
<g id="node59" class="node">
<title>68497</title>
<polygon fill="none" stroke="#00876c" points="2056.1,-1686.98 2056.1,-1701.89 1934.62,-1712.44 1762.83,-1712.44 1641.35,-1701.89 1641.35,-1686.98 1762.83,-1676.44 1934.62,-1676.44 2056.1,-1686.98"/>
<polygon fill="none" stroke="#00876c" points="2060.1,-1683.31 2060.1,-1705.56 1934.79,-1716.44 1762.65,-1716.44 1637.35,-1705.56 1637.35,-1683.31 1762.65,-1672.44 1934.79,-1672.44 2060.1,-1683.31"/>
<text text-anchor="middle" x="1848.72" y="-1689.39" font-family="Times,serif" font-size="14.00">scancode:Server Side Public License (SSPL) 1.0</text>
</g>
<!-- 21159&#45;&gt;68497 -->
<g id="edge52" class="edge">
<title>21159&#45;&gt;68497</title>
<path fill="none" stroke="#00876c" stroke-width="2" d="M2291.93,-1568.53C2202.86,-1615.13 2165.5,-1626.82 1959.84,-1670.85"/>
<polygon fill="#00876c" stroke="#00876c" stroke-width="2" points="1951.34,-1672.66 1960.18,-1666.17 1953.75,-1671.64 1961.02,-1670.08 1961.12,-1670.57 1961.23,-1671.06 1953.95,-1672.62 1962.06,-1674.97 1951.34,-1672.66"/>
</g>
<!-- 21160 -->
<g id="node30" class="node">
<title>21160</title>
<text text-anchor="middle" x="2150.22" y="-3163.72" font-family="Times,serif" font-size="14.00">https://www.mongodb.com/licensing/server&#45;side&#45;public&#45;license</text>
</g>
<!-- 21160&#45;&gt;21155 -->
<g id="edge53" class="edge">
<title>21160&#45;&gt;21155</title>
<path fill="none" stroke="#deb256" d="M2152.45,-3150.95C2169.75,-3012.13 2169.01,-2994.34 2132.57,-2685.25"/>
<polygon fill="#deb256" stroke="#deb256" points="2136.08,-2685.16 2131.43,-2675.63 2129.13,-2685.98 2136.08,-2685.16"/>
</g>
<!-- 21161 -->
<g id="node31" class="node">
<title>21161</title>
<text text-anchor="middle" x="2462.56" y="-3119.68" font-family="Times,serif" font-size="14.00">https://techcrunch.com/2018/10/16/mongodb&#45;switches&#45;up&#45;its&#45;open&#45;source&#45;license/</text>
</g>
<!-- 21161&#45;&gt;21155 -->
<g id="edge54" class="edge">
<title>21161&#45;&gt;21155</title>
<path fill="none" stroke="#deb256" d="M2446.45,-3106.86C2346.41,-2995.71 2333.51,-2976.93 2151.85,-2683.68"/>
<polygon fill="#deb256" stroke="#deb256" points="2154.91,-2681.98 2146.67,-2675.32 2148.96,-2685.67 2154.91,-2681.98"/>
</g>
<!-- 21162 -->
<g id="node32" class="node">
<title>21162</title>
<text text-anchor="middle" x="1989.34" y="-3207.75" font-family="Times,serif" font-size="14.00">https://webassets.mongodb.com/_com_assets/legal/SSPL&#45;compared&#45;to&#45;AGPL.pdf</text>
</g>
<!-- 21162&#45;&gt;21155 -->
<g id="edge55" class="edge">
<title>21162&#45;&gt;21155</title>
<path fill="none" stroke="#deb256" d="M1999.53,-3194.96C2083.64,-3047.37 2088.05,-3029.13 2123.61,-2685.45"/>
<polygon fill="#deb256" stroke="#deb256" points="2127.08,-2685.95 2124.62,-2675.64 2120.11,-2685.23 2127.08,-2685.95"/>
</g>
<!-- 21163 -->
<g id="node33" class="node">
<title>21163</title>
<text text-anchor="middle" x="2288.35" y="-2931.81" font-family="Times,serif" font-size="14.00">$TEXT</text>
</g>
<!-- 21163&#45;&gt;21155 -->
<g id="edge56" class="edge">
<title>21163&#45;&gt;21155</title>
<path fill="none" stroke="#deb256" d="M2276.61,-2918.95C2235.69,-2856.33 2226.35,-2839.21 2147.63,-2683.97"/>
<polygon fill="#deb256" stroke="#deb256" points="2150.92,-2682.72 2143.27,-2675.39 2144.67,-2685.89 2150.92,-2682.72"/>
</g>
<!-- 34923&#45;&gt;34924 -->
<g id="edge57" class="edge">
<title>34923&#45;&gt;34924</title>
<path fill="none" stroke="#e18745" d="M907.62,-1324.89C989.95,-1313.54 1056.98,-1319.19 1267.55,-1345.46"/>
<polygon fill="#e18745" stroke="#e18745" points="1266.81,-1348.9 1277.16,-1346.67 1267.67,-1341.95 1266.81,-1348.9"/>
</g>
<!-- 34925 -->
<g id="node36" class="node">
<title>34925</title>
<text text-anchor="middle" x="222.29" y="-1361.57" font-family="Times,serif" font-size="14.00">Fossology:</text>
<text text-anchor="middle" x="222.29" y="-1345.07" font-family="Times,serif" font-size="14.00">This license uses much of the text of AGPL&#45;3.0, but with a different clause 13</text>
<text text-anchor="middle" x="222.29" y="-1328.57" font-family="Times,serif" font-size="14.00">and 14.</text>
</g>
<!-- 34925&#45;&gt;34923 -->
<g id="edge58" class="edge">
<title>34925&#45;&gt;34923</title>
<path fill="none" stroke="#e18745" d="M444.2,-1329.4C490.18,-1329.69 548.35,-1332.14 633.95,-1336.63"/>
<polygon fill="#e18745" stroke="#e18745" points="633.68,-1340.12 643.85,-1337.16 634.05,-1333.13 633.68,-1340.12"/>
</g>
<!-- 34926 -->
<g id="node37" class="node">
<title>34926</title>
<text text-anchor="middle" x="452.88" y="-1439.28" font-family="Times,serif" font-size="14.00">$TEXT</text>
</g>
<!-- 34926&#45;&gt;34923 -->
<g id="edge59" class="edge">
<title>34926&#45;&gt;34923</title>
<path fill="none" stroke="#e18745" d="M481.02,-1426.88C537.2,-1392.61 563.86,-1381.94 662.12,-1365.77"/>
<polygon fill="#e18745" stroke="#e18745" points="662.68,-1369.22 671.99,-1364.17 661.56,-1362.31 662.68,-1369.22"/>
</g>
<!-- 35433 -->
<g id="node38" class="node">
<title>35433</title>
<text text-anchor="middle" x="1419.3" y="-2160.53" font-family="Times,serif" font-size="14.00">LicenseTag (ScopedLicenseTag &quot;OrtLicenseCategorization&quot; &quot;include&#45;in&#45;notice&#45;file&quot; NoLicenseTagText)</text>
</g>
<!-- 39860 -->
<g id="node40" class="node">
<title>39860</title>
<ellipse fill="none" stroke="#d43d51" cx="1445.42" cy="-2110.58" rx="161.4" ry="28.99"/>
<text text-anchor="middle" x="1445.42" y="-2113.78" font-family="Times,serif" font-size="14.00" fill="gray">OrtLicenseCategorization</text>
<text text-anchor="middle" x="1445.42" y="-2097.28" font-family="Times,serif" font-size="14.00" fill="gray">f5d152073815674840b87c04dd2e390b</text>
</g>
<!-- 35433&#45;&gt;39860 -->
<g id="edge60" class="edge">
<title>35433&#45;&gt;39860</title>
<path fill="none" stroke="#d43d51" d="M1426.94,-2147.87C1427,-2147.73 1427.07,-2147.58 1427.14,-2147.44"/>
<polygon fill="#d43d51" stroke="#d43d51" points="1428.95,-2151.74 1430.14,-2141.21 1422.64,-2148.7 1428.95,-2151.74"/>
</g>
<!-- 35522 -->
<g id="node39" class="node">
<title>35522</title>
<text text-anchor="middle" x="1073.78" y="-2616.52" font-family="Times,serif" font-size="14.00">LicenseTag (ScopedLicenseTag &quot;OrtLicenseCategorization&quot; &quot;source&#45;available&quot; NoLicenseTagText)</text>
</g>
<!-- 35522&#45;&gt;39860 -->
<g id="edge61" class="edge">
<title>35522&#45;&gt;39860</title>
<path fill="none" stroke="#d43d51" d="M1088.11,-2603.61C1188.73,-2477.41 1202,-2459.09 1418.56,-2149.03"/>
<polygon fill="#d43d51" stroke="#d43d51" points="1421.3,-2151.22 1424.16,-2141.02 1415.57,-2147.21 1421.3,-2151.22"/>
</g>
<!-- 39860&#45;&gt;4390 -->
<g id="edge62" class="edge">
<title>39860&#45;&gt;4390</title>
<path fill="none" stroke="#d43d51" d="M1441.76,-2081.19C1424.02,-1935.95 1429.37,-1913.57 1531.26,-1640.27"/>
<polygon fill="#d43d51" stroke="#d43d51" points="1534.49,-1641.61 1534.71,-1631.02 1527.93,-1639.17 1534.49,-1641.61"/>
</g>
<!-- 42311 -->
<g id="node41" class="node">
<title>42311</title>
<ellipse fill="none" stroke="#379469" cx="1119.71" cy="-1417.68" rx="157.68" ry="28.99"/>
<text text-anchor="middle" x="1119.71" y="-1420.88" font-family="Times,serif" font-size="14.00" fill="gray">CavilLicenseChange</text>
<text text-anchor="middle" x="1119.71" y="-1404.38" font-family="Times,serif" font-size="14.00" fill="gray">5b9e1291a61f66cd16f2a50c95ed8175</text>
</g>
<!-- 42311&#45;&gt;42312 -->
<g id="edge63" class="edge">
<title>42311&#45;&gt;42312</title>
<path fill="none" stroke="#379469" d="M1153.19,-1389.03C1223.51,-1330.01 1251.23,-1319.35 1388.85,-1306.04"/>
<polygon fill="#379469" stroke="#379469" points="1389.14,-1309.52 1398.76,-1305.09 1388.48,-1302.55 1389.14,-1309.52"/>
</g>
<!-- 43779 -->
<g id="node43" class="node">
<title>43779</title>
<text text-anchor="start" x="1116.32" y="-2112.55" font-family="Times,serif" font-size="14.00">CoDEStatus: </text>
<text text-anchor="start" x="1190.57" y="-2112.55" font-family="Times,serif" font-weight="bold" font-size="14.00" fill="#000000">not approved</text>
</g>
<!-- 57432 -->
<g id="node44" class="node">
<title>57432</title>
<ellipse fill="none" stroke="#379469" cx="1572.41" cy="-1884.74" rx="156.62" ry="28.99"/>
<text text-anchor="middle" x="1572.41" y="-1887.94" font-family="Times,serif" font-size="14.00" fill="gray">MetaeffektLicense</text>
<text text-anchor="middle" x="1572.41" y="-1871.44" font-family="Times,serif" font-size="14.00" fill="gray">74e439cf15fa3d352c451e1c5983a97c</text>
</g>
<!-- 43779&#45;&gt;57432 -->
<g id="edge64" class="edge">
<title>43779&#45;&gt;57432</title>
<path fill="none" stroke="#379469" d="M1238.27,-2098.67C1319.79,-2066.17 1350.82,-2045.73 1524.19,-1919.8"/>
<polygon fill="#379469" stroke="#379469" points="1526.11,-1922.73 1532.14,-1914.02 1521.99,-1917.07 1526.11,-1922.73"/>
</g>
<!-- 57432&#45;&gt;57433 -->
<g id="edge65" class="edge">
<title>57432&#45;&gt;57433</title>
<path fill="none" stroke="#379469" d="M1631.31,-1857.52C1785.78,-1784.71 1804.17,-1756.55 1921.84,-1510.86"/>
<polygon fill="#379469" stroke="#379469" points="1924.97,-1512.41 1926.13,-1501.88 1918.66,-1509.39 1924.97,-1512.41"/>
</g>
<!-- 57434 -->
<g id="node46" class="node">
<title>57434</title>
<polygon fill="none" stroke="black" points="2513.54,-1434.57 2513.54,-1449.49 2433.93,-1460.03 2321.34,-1460.03 2241.72,-1449.49 2241.72,-1434.57 2321.34,-1424.03 2433.93,-1424.03 2513.54,-1434.57"/>
<polygon fill="none" stroke="black" points="2517.54,-1431.07 2517.54,-1452.99 2434.19,-1464.03 2321.07,-1464.03 2237.72,-1452.99 2237.72,-1431.07 2321.07,-1420.03 2434.19,-1420.03 2517.54,-1431.07"/>
<text text-anchor="middle" x="2377.63" y="-1436.98" font-family="Times,serif" font-size="14.00">Server Side Public License 1.0</text>
</g>
<!-- 57434&#45;&gt;57433 -->
<g id="edge66" class="edge">
<title>57434&#45;&gt;57433</title>
<path fill="none" stroke="#379469" stroke-width="2" d="M2237.48,-1436.07C2197.56,-1438.31 2148.71,-1444.88 2064.66,-1457.91"/>
<polygon fill="#379469" stroke="#379469" stroke-width="2" points="2056.09,-1459.25 2065.28,-1453.26 2058.55,-1458.36 2065.89,-1457.22 2065.97,-1457.71 2066.05,-1458.2 2058.7,-1459.35 2066.66,-1462.16 2056.09,-1459.25"/>
</g>
<!-- 57434&#45;&gt;60288 -->
<g id="edge67" class="edge">
<title>57434&#45;&gt;60288</title>
<path fill="none" stroke="#b8bf62" stroke-width="2" d="M2374.79,-1464.28C2374.73,-1464.43 2374.67,-1464.58 2374.61,-1464.73"/>
<polygon fill="#b8bf62" stroke="#b8bf62" stroke-width="2" points="2371.9,-1469.76 2372.68,-1458.82 2372.67,-1467.27 2376.2,-1460.72 2376.64,-1460.96 2377.08,-1461.19 2373.55,-1467.74 2380.6,-1463.09 2371.9,-1469.76"/>
</g>
<!-- 57435 -->
<g id="node47" class="node">
<title>57435</title>
<polygon fill="none" stroke="#379469" points="2176.06,-1148.36 2176.06,-1163.27 2155.83,-1173.82 2127.22,-1173.82 2107,-1163.27 2107,-1148.36 2127.22,-1137.82 2155.83,-1137.82 2176.06,-1148.36"/>
<text text-anchor="middle" x="2141.53" y="-1150.77" font-family="Times,serif" font-size="14.00">SSPL</text>
</g>
<!-- 57435&#45;&gt;57433 -->
<g id="edge68" class="edge">
<title>57435&#45;&gt;57433</title>
<path fill="none" stroke="#379469" stroke-dasharray="5,2" d="M2133.42,-1174.31C2095.85,-1259.65 2085.83,-1275.2 1960.42,-1446.74"/>
<polygon fill="#379469" stroke="#379469" points="1954.69,-1454.58 1956.96,-1443.85 1956.92,-1451.53 1960.59,-1446.51 1960.59,-1446.51 1960.59,-1446.51 1956.92,-1451.53 1964.23,-1449.16 1954.69,-1454.58"/>
</g>
<!-- 57436 -->
<g id="node48" class="node">
<title>57436</title>
<polygon fill="none" stroke="black" points="2309.69,-1218.56 2309.69,-1233.47 2285.24,-1244.02 2250.67,-1244.02 2226.22,-1233.47 2226.22,-1218.56 2250.67,-1208.02 2285.24,-1208.02 2309.69,-1218.56"/>
<polygon fill="none" stroke="black" points="2313.69,-1215.93 2313.69,-1236.1 2286.07,-1248.02 2249.84,-1248.02 2222.22,-1236.1 2222.22,-1215.93 2249.84,-1204.02 2286.07,-1204.02 2313.69,-1215.93"/>
<text text-anchor="middle" x="2267.95" y="-1220.97" font-family="Times,serif" font-size="14.00">SSPL 1</text>
</g>
<!-- 57436&#45;&gt;57433 -->
<g id="edge69" class="edge">
<title>57436&#45;&gt;57433</title>
<path fill="none" stroke="#379469" stroke-dasharray="5,2" d="M2243.32,-1245.69C2173.36,-1301.49 2151.85,-1317.8 1976.22,-1449.11"/>
<polygon fill="#379469" stroke="#379469" points="1968.45,-1454.92 1973.76,-1445.33 1971.48,-1452.66 1976.46,-1448.93 1976.46,-1448.93 1976.46,-1448.93 1971.48,-1452.66 1979.15,-1452.54 1968.45,-1454.92"/>
</g>
<!-- 57436&#45;&gt;60288 -->
<g id="edge70" class="edge">
<title>57436&#45;&gt;60288</title>
<path fill="none" stroke="#b8bf62" stroke-width="2" d="M2286.72,-1248.22C2356.03,-1330.71 2361.26,-1346.24 2355.45,-1460.73"/>
<polygon fill="#b8bf62" stroke="#b8bf62" stroke-width="2" points="2355,-1469.31 2351.03,-1459.09 2354.64,-1466.72 2355.02,-1459.3 2355.52,-1459.32 2356.02,-1459.35 2355.63,-1466.77 2360.02,-1459.56 2355,-1469.31"/>
</g>
<!-- 57437 -->
<g id="node49" class="node">
<title>57437</title>
<polygon fill="none" stroke="black" points="2873.45,-1434.47 2873.45,-1449.38 2773.07,-1459.92 2631.11,-1459.92 2530.73,-1449.38 2530.73,-1434.47 2631.11,-1423.92 2773.07,-1423.92 2873.45,-1434.47"/>
<polygon fill="none" stroke="black" points="2877.45,-1430.86 2877.45,-1452.98 2773.28,-1463.92 2630.9,-1463.92 2526.73,-1452.98 2526.73,-1430.86 2630.9,-1419.92 2773.28,-1419.92 2877.45,-1430.86"/>
<text text-anchor="middle" x="2702.09" y="-1436.87" font-family="Times,serif" font-size="14.00">Server Side Public License, Version 1.0</text>
</g>
<!-- 57437&#45;&gt;57433 -->
<g id="edge71" class="edge">
<title>57437&#45;&gt;57433</title>
<path fill="none" stroke="#379469" stroke-dasharray="5,2" d="M2533.94,-1429.6C2437.91,-1426.53 2343.66,-1434.6 2093.47,-1461.26"/>
<polygon fill="#379469" stroke="#379469" points="2083.8,-1462.29 2093.27,-1456.76 2087.56,-1461.89 2093.74,-1461.23 2093.74,-1461.23 2093.74,-1461.23 2087.56,-1461.89 2094.22,-1465.71 2083.8,-1462.29"/>
</g>
<!-- 57437&#45;&gt;60288 -->
<g id="edge72" class="edge">
<title>57437&#45;&gt;60288</title>
<path fill="none" stroke="#b8bf62" stroke-width="2" d="M2577.26,-1458.75C2554.32,-1462.19 2526.49,-1466.54 2487.69,-1472.69"/>
<polygon fill="#b8bf62" stroke="#b8bf62" stroke-width="2" points="2479.43,-1474 2488.6,-1467.99 2481.89,-1473.1 2489.23,-1471.94 2489.31,-1472.43 2489.39,-1472.92 2482.04,-1474.09 2490.01,-1476.87 2479.43,-1474"/>
</g>
<!-- 57438 -->
<g id="node50" class="node">
<title>57438</title>
<polygon fill="none" stroke="black" points="2619.16,-1177.6 2619.16,-1192.51 2536.63,-1203.06 2419.91,-1203.06 2337.37,-1192.51 2337.37,-1177.6 2419.91,-1167.06 2536.63,-1167.06 2619.16,-1177.6"/>
<polygon fill="none" stroke="black" points="2623.16,-1174.08 2623.16,-1196.03 2536.88,-1207.06 2419.65,-1207.06 2333.37,-1196.03 2333.37,-1174.08 2419.65,-1163.06 2536.88,-1163.06 2623.16,-1174.08"/>
<text text-anchor="middle" x="2478.27" y="-1180.01" font-family="Times,serif" font-size="14.00">Server Side Public License v1.0</text>
</g>
<!-- 57438&#45;&gt;57433 -->
<g id="edge73" class="edge">
<title>57438&#45;&gt;57433</title>
<path fill="none" stroke="#379469" stroke-dasharray="5,2" d="M2434.22,-1207.39C2316.32,-1267.28 2280.45,-1286.96 1987.41,-1450.24"/>
<polygon fill="#379469" stroke="#379469" points="1978.84,-1455.02 1985.38,-1446.22 1982.14,-1453.17 1987.57,-1450.15 1987.57,-1450.15 1987.57,-1450.15 1982.14,-1453.17 1989.76,-1454.08 1978.84,-1455.02"/>
</g>
<!-- 57438&#45;&gt;60288 -->
<g id="edge74" class="edge">
<title>57438&#45;&gt;60288</title>
<path fill="none" stroke="#b8bf62" stroke-width="2" d="M2478.16,-1207.23C2477.36,-1308.21 2471.14,-1323.74 2375.18,-1462.92"/>
<polygon fill="#b8bf62" stroke="#b8bf62" stroke-width="2" points="2370.41,-1469.82 2372.39,-1459.03 2371.46,-1467.43 2375.68,-1461.31 2376.09,-1461.59 2376.5,-1461.87 2372.28,-1468 2379.8,-1464.15 2370.41,-1469.82"/>
</g>
<!-- 59325 -->
<g id="node51" class="node">
<title>59325</title>
<text text-anchor="start" x="934.65" y="-646.19" font-family="Times,serif" font-size="14.00">HermineLicense: </text>
<text text-anchor="start" x="1032.15" y="-646.19" font-family="Times,serif" font-weight="bold" font-size="14.00" fill="#8b0000">We consider it is NOT FOSS</text>
</g>
<!-- 59325&#45;&gt;59472 -->
<g id="edge75" class="edge">
<title>59325&#45;&gt;59472</title>
<path fill="none" stroke="#dc574a" d="M1072.08,-667.95C1105.5,-784.96 1113,-801.78 1240.28,-1042.2"/>
<polygon fill="#dc574a" stroke="#dc574a" points="1237.16,-1043.79 1244.93,-1050.99 1243.35,-1040.51 1237.16,-1043.79"/>
</g>
<!-- 59472&#45;&gt;4390 -->
<g id="edge76" class="edge">
<title>59472&#45;&gt;4390</title>
<path fill="none" stroke="#dc574a" d="M1269.1,-1110.72C1310.72,-1261.4 1323.67,-1283.6 1520.38,-1567.56"/>
<polygon fill="#dc574a" stroke="#dc574a" points="1517.42,-1569.43 1525.99,-1575.66 1523.17,-1565.45 1517.42,-1569.43"/>
</g>
<!-- 59473 -->
<g id="node53" class="node">
<title>59473</title>
<text text-anchor="middle" x="948.27" y="-740.71" font-family="Times,serif" font-size="14.00">&quot;SSPL&#45;1.0&quot; is a license with a patent grant</text>
</g>
<!-- 59473&#45;&gt;59472 -->
<g id="edge77" class="edge">
<title>59473&#45;&gt;59472</title>
<path fill="none" stroke="#dc574a" d="M965.33,-763.58C1039.69,-841.23 1055.55,-858.27 1226.73,-1044.17"/>
<polygon fill="#dc574a" stroke="#dc574a" points="1224.1,-1046.47 1233.45,-1051.46 1229.25,-1041.73 1224.1,-1046.47"/>
</g>
<!-- 60287 -->
<g id="node54" class="node">
<title>60287</title>
<ellipse fill="none" stroke="#b8bf62" cx="2867.99" cy="-1190.41" rx="157.15" ry="28.99"/>
<text text-anchor="middle" x="2867.99" y="-1193.61" font-family="Times,serif" font-size="14.00" fill="gray">FossLicense</text>
<text text-anchor="middle" x="2867.99" y="-1177.11" font-family="Times,serif" font-size="14.00" fill="gray">700fcd90a8faeb65441369d9d712cea5</text>
</g>
<!-- 60287&#45;&gt;60288 -->
<g id="edge78" class="edge">
<title>60287&#45;&gt;60288</title>
<path fill="none" stroke="#b8bf62" d="M2832.87,-1218.89C2728.18,-1303.23 2695.53,-1321.47 2407.77,-1466.75"/>
<polygon fill="#b8bf62" stroke="#b8bf62" points="2406.57,-1463.44 2399.22,-1471.07 2409.72,-1469.69 2406.57,-1463.44"/>
</g>
<!-- 60289 -->
<g id="node56" class="node">
<title>60289</title>
<polygon fill="none" stroke="#b8bf62" points="3049.17,-1568.85 3049.17,-1583.77 2973.13,-1594.31 2865.58,-1594.31 2789.54,-1583.77 2789.54,-1568.85 2865.58,-1558.31 2973.13,-1558.31 3049.17,-1568.85"/>
<polygon fill="none" stroke="#b8bf62" points="3053.17,-1565.37 3053.17,-1587.25 2973.4,-1598.31 2865.31,-1598.31 2785.54,-1587.25 2785.54,-1565.37 2865.31,-1554.31 2973.4,-1554.31 3053.17,-1565.37"/>
<text text-anchor="middle" x="2919.35" y="-1571.26" font-family="Times,serif" font-size="14.00">scancode://mongodb&#45;sspl&#45;1.0</text>
</g>
<!-- 60289&#45;&gt;60288 -->
<g id="edge79" class="edge">
<title>60289&#45;&gt;60288</title>
<path fill="none" stroke="#b8bf62" stroke-width="2" d="M2850.75,-1555.84C2766.99,-1531.83 2716.84,-1523.75 2549.44,-1509.68"/>
<polygon fill="#b8bf62" stroke="#b8bf62" stroke-width="2" points="2540.94,-1508.96 2551.28,-1505.31 2543.53,-1508.68 2550.95,-1509.3 2550.9,-1509.8 2550.86,-1510.3 2543.45,-1509.68 2550.53,-1514.28 2540.94,-1508.96"/>
</g>
<!-- 60290 -->
<g id="node57" class="node">
<title>60290</title>
<polygon fill="none" stroke="#b8bf62" points="3038.29,-1373.74 3038.29,-1388.66 2965.49,-1399.2 2862.54,-1399.2 2789.74,-1388.66 2789.74,-1373.74 2862.54,-1363.2 2965.49,-1363.2 3038.29,-1373.74"/>
<polygon fill="none" stroke="#b8bf62" points="3042.29,-1370.28 3042.29,-1392.12 2965.78,-1403.2 2862.25,-1403.2 2785.74,-1392.12 2785.74,-1370.28 2862.25,-1359.2 2965.78,-1359.2 3042.29,-1370.28"/>
<text text-anchor="middle" x="2914.02" y="-1376.15" font-family="Times,serif" font-size="14.00">scancode:mongodb&#45;sspl&#45;1.0</text>
</g>
<!-- 60290&#45;&gt;60288 -->
<g id="edge80" class="edge">
<title>60290&#45;&gt;60288</title>
<path fill="none" stroke="#b8bf62" stroke-width="2" d="M2828.09,-1398.73C2743.61,-1415.94 2684.96,-1427.72 2470.51,-1470.66"/>
<polygon fill="#b8bf62" stroke="#b8bf62" stroke-width="2" points="2461.91,-1472.39 2470.83,-1466.01 2464.32,-1471.39 2471.62,-1469.93 2471.71,-1470.42 2471.81,-1470.91 2464.52,-1472.37 2472.6,-1474.84 2461.91,-1472.39"/>
</g>
<!-- 68496 -->
<g id="node58" class="node">
<title>68496</title>
<ellipse fill="none" stroke="#00876c" cx="1243.17" cy="-1830.5" rx="159.81" ry="28.99"/>
<text text-anchor="middle" x="1243.17" y="-1833.7" font-family="Times,serif" font-size="14.00" fill="gray">LicenseLynx</text>
<text text-anchor="middle" x="1243.17" y="-1817.2" font-family="Times,serif" font-size="14.00" fill="gray">89e44556d480e5e69c5f09a853728d32</text>
</g>
<!-- 68496&#45;&gt;4390 -->
<g id="edge81" class="edge">
<title>68496&#45;&gt;4390</title>
<path fill="none" stroke="#00876c" d="M1268.04,-1801.6C1319.65,-1742.61 1343.43,-1725.67 1495.52,-1633.27"/>
<polygon fill="#00876c" stroke="#00876c" points="1497.21,-1636.34 1503.95,-1628.16 1493.58,-1630.35 1497.21,-1636.34"/>
</g>
<!-- 68497&#45;&gt;4390 -->
<g id="edge82" class="edge">
<title>68497&#45;&gt;4390</title>
<path fill="none" stroke="#00876c" stroke-width="2" d="M1660.21,-1680.89C1634.18,-1672.68 1613.33,-1659.11 1584.98,-1636.38"/>
<polygon fill="#00876c" stroke="#00876c" stroke-width="2" points="1578.25,-1630.91 1588.84,-1633.72 1580.55,-1632.14 1586.32,-1636.82 1586.01,-1637.21 1585.69,-1637.6 1579.92,-1632.91 1583.17,-1640.71 1578.25,-1630.91"/>
</g>
<!-- 68498&#45;&gt;4390 -->
<g id="edge83" class="edge">
<title>68498&#45;&gt;4390</title>
<path fill="none" stroke="#00876c" stroke-width="2" d="M1772.61,-1825.05C1667.4,-1791.92 1648.04,-1770.91 1566.76,-1638.64"/>
<polygon fill="#00876c" stroke="#00876c" stroke-width="2" points="1562.34,-1631.42 1571.4,-1637.6 1564.1,-1633.35 1567.99,-1639.69 1567.56,-1639.95 1567.14,-1640.21 1563.25,-1633.87 1563.73,-1642.3 1562.34,-1631.42"/>
</g>
<!-- 68499&#45;&gt;4390 -->
<g id="edge84" class="edge">
<title>68499&#45;&gt;4390</title>
<path fill="none" stroke="#00876c" stroke-width="2" d="M1373.03,-1629.64C1392.51,-1625.8 1416.43,-1621.95 1453.66,-1616.44"/>
<polygon fill="#00876c" stroke="#00876c" stroke-width="2" points="1462.11,-1615.2 1452.87,-1621.11 1459.64,-1616.07 1452.29,-1617.15 1452.21,-1616.66 1452.14,-1616.16 1459.5,-1615.08 1451.56,-1612.2 1462.11,-1615.2"/>
</g>
</g>
</svg>
