<?xml version="1.0" encoding="UTF-8" standalone="no"?>
<!DOCTYPE svg PUBLIC "-//W3C//DTD SVG 1.1//EN"
 "http://www.w3.org/Graphics/SVG/1.1/DTD/svg11.dtd">
<!-- Generated by graphviz version 10.0.1 (0)
 -->
<!-- Pages: 1 -->
<svg width="1026pt" height="616pt"
 viewBox="0.00 0.00 1026.00 616.00" xmlns="http://www.w3.org/2000/svg" xmlns:xlink="http://www.w3.org/1999/xlink">
<g id="graph0" class="graph" transform="scale(1 1) rotate(0) translate(4 612)">
<polygon fill="white" stroke="none" points="-4,4 -4,-612 1022,-612 1022,4 -4,4"/>
<!-- 4048 -->
<g id="node1" class="node">
<title>4048</title>
<ellipse fill="none" stroke="#b8bf62" cx="336.66" cy="-578.78" rx="154.5" ry="28.99"/>
<text text-anchor="middle" x="336.66" y="-581.98" font-family="Times,serif" font-size="14.00" fill="gray">SPDXLicense</text>
<text text-anchor="middle" x="336.66" y="-565.48" font-family="Times,serif" font-size="14.00" fill="gray">77d10316376bdec14889fbf2f1087ffe</text>
</g>
<!-- 4049 -->
<g id="node2" class="node">
<title>4049</title>
<polygon fill="none" stroke="black" points="472.33,-270.8 472.33,-285.71 431.99,-296.26 374.93,-296.26 334.58,-285.71 334.58,-270.8 374.93,-260.26 431.99,-260.26 472.33,-270.8"/>
<polygon fill="none" stroke="black" points="476.33,-267.71 476.33,-288.8 432.5,-300.26 374.41,-300.26 330.58,-288.8 330.58,-267.71 374.41,-256.26 432.5,-256.26 476.33,-267.71"/>
<polygon fill="none" stroke="black" points="480.33,-264.62 480.33,-291.89 433.01,-304.26 373.9,-304.26 326.58,-291.89 326.58,-264.62 373.9,-252.26 433.01,-252.26 480.33,-264.62"/>
<text text-anchor="middle" x="403.46" y="-273.21" font-family="Times,serif" font-size="14.00">spdx:Sun&#45;PPP</text>
</g>
<!-- 4048&#45;&gt;4049 -->
<g id="edge1" class="edge">
<title>4048&#45;&gt;4049</title>
<path fill="none" stroke="#b8bf62" d="M333.4,-549.38C325.62,-474.02 331.03,-453.73 388.11,-315.35"/>
<polygon fill="#b8bf62" stroke="#b8bf62" points="391.34,-316.72 391.92,-306.14 384.87,-314.04 391.34,-316.72"/>
</g>
<!-- 8415 -->
<g id="node6" class="node">
<title>8415</title>
<polygon fill="none" stroke="#e09d4b" points="289.03,-193.15 289.03,-208.06 243.49,-218.61 179.09,-218.61 133.55,-208.06 133.55,-193.15 179.09,-182.61 243.49,-182.61 289.03,-193.15"/>
<polygon fill="none" stroke="#e09d4b" points="293.03,-189.97 293.03,-211.24 243.95,-222.61 178.63,-222.61 129.55,-211.24 129.55,-189.97 178.63,-178.61 243.95,-178.61 293.03,-189.97"/>
<text text-anchor="middle" x="211.29" y="-195.56" font-family="Times,serif" font-size="14.00">Fedora:Sun&#45;PPP</text>
</g>
<!-- 4049&#45;&gt;8415 -->
<g id="edge2" class="edge">
<title>4049&#45;&gt;8415</title>
<path fill="none" stroke="#e09d4b" stroke-width="2" d="M350.26,-258.04C306.89,-241.53 284.03,-232.67 265.39,-224.87"/>
<polygon fill="#e09d4b" stroke="#e09d4b" stroke-width="2" points="257.32,-221.43 268.28,-221.21 259.87,-221.98 266.72,-224.89 266.52,-225.35 266.33,-225.81 259.48,-222.9 264.76,-229.49 257.32,-221.43"/>
</g>
<!-- 48094 -->
<g id="node11" class="node">
<title>48094</title>
<polygon fill="none" stroke="#00876c" points="634.47,-209.37 634.47,-224.28 560.69,-234.82 456.36,-234.82 382.59,-224.28 382.59,-209.37 456.36,-198.82 560.69,-198.82 634.47,-209.37"/>
<polygon fill="none" stroke="#00876c" points="638.47,-205.9 638.47,-227.75 560.98,-238.82 456.08,-238.82 378.59,-227.75 378.59,-205.9 456.08,-194.82 560.98,-194.82 638.47,-205.9"/>
<text text-anchor="middle" x="508.53" y="-211.77" font-family="Times,serif" font-size="14.00">metaeffekt:Sun PPP License</text>
</g>
<!-- 4049&#45;&gt;48094 -->
<g id="edge3" class="edge">
<title>4049&#45;&gt;48094</title>
<path fill="none" stroke="#00876c" stroke-width="2" d="M423.54,-252.07C426.16,-248.96 428.65,-246.23 431.12,-243.81"/>
<polygon fill="#00876c" stroke="#00876c" stroke-width="2" points="437.81,-238.23 433.01,-248.09 436.16,-240.26 430.45,-245.02 430.13,-244.64 429.81,-244.25 435.52,-239.49 427.25,-241.18 437.81,-238.23"/>
</g>
<!-- 4050 -->
<g id="node3" class="node">
<title>4050</title>
<polygon fill="none" stroke="black" points="339.39,-140.89 339.39,-155.8 311.7,-166.34 272.54,-166.34 244.85,-155.8 244.85,-140.89 272.54,-130.34 311.7,-130.34 339.39,-140.89"/>
<polygon fill="none" stroke="black" points="343.39,-138.13 343.39,-158.56 312.44,-170.34 271.8,-170.34 240.85,-158.56 240.85,-138.13 271.8,-126.34 312.44,-126.34 343.39,-138.13"/>
<text text-anchor="middle" x="292.12" y="-143.29" font-family="Times,serif" font-size="14.00">Sun&#45;PPP</text>
</g>
<!-- 4050&#45;&gt;4049 -->
<g id="edge4" class="edge">
<title>4050&#45;&gt;4049</title>
<path fill="none" stroke="black" stroke-width="2" d="M304.43,-170.81C317.59,-193.63 328.44,-206.03 368.18,-244.43"/>
<polygon fill="black" stroke="black" stroke-width="2" points="374.19,-250.22 363.87,-246.52 372,-248.8 366.64,-243.64 366.99,-243.28 367.34,-242.92 372.69,-248.08 370.11,-240.04 374.19,-250.22"/>
</g>
<!-- 4050&#45;&gt;8415 -->
<g id="edge5" class="edge">
<title>4050&#45;&gt;8415</title>
<path fill="none" stroke="#e09d4b" stroke-width="2" d="M249.85,-162.29C243.72,-164.88 239.07,-167.49 235.01,-170.7"/>
<polygon fill="#e09d4b" stroke="#e09d4b" stroke-width="2" points="228.95,-176.6 232.97,-166.4 230.44,-174.46 235.76,-169.27 236.11,-169.62 236.46,-169.98 231.13,-175.17 239.25,-172.85 228.95,-176.6"/>
</g>
<!-- 24020 -->
<g id="node8" class="node">
<title>24020</title>
<polygon fill="none" stroke="#dac767" points="566.12,-85.76 566.12,-100.67 517.34,-111.21 448.35,-111.21 399.56,-100.67 399.56,-85.76 448.35,-75.21 517.34,-75.21 566.12,-85.76"/>
<polygon fill="none" stroke="#dac767" points="570.12,-82.53 570.12,-103.9 517.77,-115.21 447.92,-115.21 395.56,-103.9 395.56,-82.53 447.92,-71.21 517.77,-71.21 570.12,-82.53"/>
<text text-anchor="middle" x="482.84" y="-88.16" font-family="Times,serif" font-size="14.00">scancode:sun&#45;ppp</text>
</g>
<!-- 4050&#45;&gt;24020 -->
<g id="edge6" class="edge">
<title>4050&#45;&gt;24020</title>
<path fill="none" stroke="#dac767" stroke-width="2" d="M317.26,-127.79C343.7,-106.73 359.87,-96.93 384.16,-93.07"/>
<polygon fill="#dac767" stroke="#dac767" stroke-width="2" points="392.7,-92.05 383.3,-97.7 390.21,-92.85 382.83,-93.73 382.77,-93.23 382.71,-92.74 390.09,-91.86 382.24,-88.77 392.7,-92.05"/>
</g>
<!-- 4050&#45;&gt;48094 -->
<g id="edge7" class="edge">
<title>4050&#45;&gt;48094</title>
<path fill="none" stroke="#00876c" stroke-dasharray="5,2" d="M343.59,-150.05C372.7,-153.14 396.05,-162.2 453.08,-189.71"/>
<polygon fill="#00876c" stroke="#00876c" points="461.83,-193.95 450.86,-193.64 458.42,-192.3 452.83,-189.59 452.83,-189.59 452.83,-189.59 458.42,-192.3 454.79,-185.54 461.83,-193.95"/>
</g>
<!-- 4051 -->
<g id="node4" class="node">
<title>4051</title>
<polygon fill="none" stroke="black" points="728.17,-263.12 728.17,-278.03 681.33,-288.58 615.09,-288.58 568.25,-278.03 568.25,-263.12 615.09,-252.58 681.33,-252.58 728.17,-263.12"/>
<polygon fill="none" stroke="black" points="732.17,-259.92 732.17,-281.23 681.77,-292.58 614.65,-292.58 564.25,-281.23 564.25,-259.92 614.65,-248.58 681.77,-248.58 732.17,-259.92"/>
<text text-anchor="middle" x="648.21" y="-265.53" font-family="Times,serif" font-size="14.00">Sun PPP License</text>
</g>
<!-- 4051&#45;&gt;4049 -->
<g id="edge8" class="edge">
<title>4051&#45;&gt;4049</title>
<path fill="none" stroke="#b8bf62" stroke-width="2" d="M598.49,-251.84C557.25,-238.16 533.63,-239.14 473.91,-256.46"/>
<polygon fill="#b8bf62" stroke="#b8bf62" stroke-width="2" points="465.51,-258.94 473.82,-251.79 467.82,-257.74 474.96,-255.63 475.1,-256.11 475.24,-256.59 468.11,-258.7 476.37,-260.43 465.51,-258.94"/>
</g>
<!-- 4051&#45;&gt;24020 -->
<g id="edge9" class="edge">
<title>4051&#45;&gt;24020</title>
<path fill="none" stroke="#dac767" stroke-width="2" d="M637.7,-248.24C597.77,-163.65 585.02,-142.34 537.78,-118.16"/>
<polygon fill="#dac767" stroke="#dac767" stroke-width="2" points="530.04,-114.35 541,-114.73 532.56,-115.03 539.23,-118.32 539.01,-118.77 538.79,-119.22 532.12,-115.93 537.02,-122.81 530.04,-114.35"/>
</g>
<!-- 4051&#45;&gt;48094 -->
<g id="edge10" class="edge">
<title>4051&#45;&gt;48094</title>
<path fill="none" stroke="#00876c" stroke-width="2" d="M624.89,-248.24C620.84,-244.64 617.08,-241.54 613.36,-238.86"/>
<polygon fill="#00876c" stroke="#00876c" stroke-width="2" points="606.14,-234.3 617,-235.84 608.58,-235.25 614.87,-239.22 614.6,-239.64 614.33,-240.06 608.04,-236.09 612.2,-243.45 606.14,-234.3"/>
</g>
<!-- 8414 -->
<g id="node5" class="node">
<title>8414</title>
<ellipse fill="none" stroke="#e09d4b" cx="155.06" cy="-263.94" rx="155.56" ry="28.99"/>
<text text-anchor="middle" x="155.06" y="-267.14" font-family="Times,serif" font-size="14.00" fill="gray">FedoraEntry</text>
<text text-anchor="middle" x="155.06" y="-250.64" font-family="Times,serif" font-size="14.00" fill="gray">9224eef966184dd985a30eccf5156f3e</text>
</g>
<!-- 8414&#45;&gt;8415 -->
<g id="edge11" class="edge">
<title>8414&#45;&gt;8415</title>
<path fill="none" stroke="#e09d4b" d="M166.94,-234.54C167.8,-233.23 168.73,-231.97 169.74,-230.75"/>
<polygon fill="#e09d4b" stroke="#e09d4b" points="172.12,-233.31 176.88,-223.85 167.26,-228.28 172.12,-233.31"/>
</g>
<!-- 24019 -->
<g id="node7" class="node">
<title>24019</title>
<ellipse fill="none" stroke="#dac767" cx="489.14" cy="-28.68" rx="160.34" ry="28.99"/>
<text text-anchor="middle" x="489.14" y="-31.88" font-family="Times,serif" font-size="14.00" fill="gray">ScancodeData</text>
<text text-anchor="middle" x="489.14" y="-15.38" font-family="Times,serif" font-size="14.00" fill="gray">b69dde940ba4bd141c32911f5288b7cb</text>
</g>
<!-- 24019&#45;&gt;24020 -->
<g id="edge12" class="edge">
<title>24019&#45;&gt;24020</title>
<path fill="none" stroke="#dac767" d="M484.53,-58.04C484.5,-58.48 484.47,-58.93 484.44,-59.39"/>
<polygon fill="#dac767" stroke="#dac767" points="480.95,-59.14 483.91,-69.31 487.94,-59.51 480.95,-59.14"/>
</g>
<!-- 35221 -->
<g id="node9" class="node">
<title>35221</title>
<ellipse fill="none" stroke="#e06f45" cx="158.78" cy="-56.3" rx="159.28" ry="28.99"/>
<text text-anchor="middle" x="158.78" y="-59.5" font-family="Times,serif" font-size="14.00" fill="gray">OrtLicenseCategorization</text>
<text text-anchor="middle" x="158.78" y="-43" font-family="Times,serif" font-size="14.00" fill="gray">4b554bc45ac9699eb473267f8ee80912</text>
</g>
<!-- 35221&#45;&gt;4049 -->
<g id="edge13" class="edge">
<title>35221&#45;&gt;4049</title>
<path fill="none" stroke="#e06f45" d="M183.58,-85.18C223.87,-131.38 245.62,-150.29 363.16,-245.61"/>
<polygon fill="#e06f45" stroke="#e06f45" points="360.64,-248.07 370.62,-251.65 365.05,-242.64 360.64,-248.07"/>
</g>
<!-- 48093 -->
<g id="node10" class="node">
<title>48093</title>
<ellipse fill="none" stroke="#00876c" cx="863.56" cy="-146.3" rx="154.5" ry="28.99"/>
<text text-anchor="middle" x="863.56" y="-149.5" font-family="Times,serif" font-size="14.00" fill="gray">MetaeffektLicense</text>
<text text-anchor="middle" x="863.56" y="-133" font-family="Times,serif" font-size="14.00" fill="gray">3bb3f204b2a00f501838c7c77f1f8b6f</text>
</g>
<!-- 48093&#45;&gt;48094 -->
<g id="edge14" class="edge">
<title>48093&#45;&gt;48094</title>
<path fill="none" stroke="#00876c" d="M714.41,-154.22C683.12,-161.54 643.46,-173.59 583.5,-192.72"/>
<polygon fill="#00876c" stroke="#00876c" points="582.79,-189.27 574.33,-195.65 584.92,-195.94 582.79,-189.27"/>
</g>
</g>
</svg>
