<?xml version="1.0" encoding="UTF-8" standalone="no"?>
<!DOCTYPE svg PUBLIC "-//W3C//DTD SVG 1.1//EN"
 "http://www.w3.org/Graphics/SVG/1.1/DTD/svg11.dtd">
<!-- Generated by graphviz version 10.0.1 (0)
 -->
<!-- Pages: 1 -->
<svg width="3026pt" height="2260pt"
 viewBox="0.00 0.00 3026.00 2260.00" xmlns="http://www.w3.org/2000/svg" xmlns:xlink="http://www.w3.org/1999/xlink">
<g id="graph0" class="graph" transform="scale(1 1) rotate(0) translate(4 2256)">
<polygon fill="white" stroke="none" points="-4,4 -4,-2256 3022,-2256 3022,4 -4,4"/>
<!-- 5 -->
<g id="node1" class="node">
<title>5</title>
<text text-anchor="start" x="1873.69" y="-278.26" font-family="Times,serif" font-size="14.00">OSI: </text>
<text text-anchor="start" x="1902.94" y="-278.26" font-family="Times,serif" font-weight="bold" font-size="14.00" fill="#8b0000">Rejected</text>
</g>
<!-- 4499 -->
<g id="node2" class="node">
<title>4499</title>
<ellipse fill="none" stroke="#dac767" cx="1731.35" cy="-598.49" rx="159.28" ry="28.99"/>
<text text-anchor="middle" x="1731.35" y="-601.69" font-family="Times,serif" font-size="14.00" fill="gray">SPDXLicense</text>
<text text-anchor="middle" x="1731.35" y="-585.19" font-family="Times,serif" font-size="14.00" fill="gray">7c98b95079a96665c7b5d60cf66ebc27</text>
</g>
<!-- 5&#45;&gt;4499 -->
<g id="edge1" class="edge">
<title>5&#45;&gt;4499</title>
<path fill="none" stroke="#dac767" d="M1901.78,-299.94C1855.46,-370.09 1845.65,-387.21 1752.55,-559.29"/>
<polygon fill="#dac767" stroke="#dac767" points="1749.58,-557.43 1747.9,-567.89 1755.73,-560.76 1749.58,-557.43"/>
</g>
<!-- 4500 -->
<g id="node3" class="node">
<title>4500</title>
<polygon fill="none" stroke="black" points="1757.55,-1143.99 1757.55,-1158.9 1703.57,-1169.45 1627.23,-1169.45 1573.26,-1158.9 1573.26,-1143.99 1627.23,-1133.45 1703.57,-1133.45 1757.55,-1143.99"/>
<polygon fill="none" stroke="black" points="1761.55,-1140.7 1761.55,-1162.2 1703.95,-1173.45 1626.85,-1173.45 1569.26,-1162.2 1569.26,-1140.7 1626.85,-1129.45 1703.95,-1129.45 1761.55,-1140.7"/>
<polygon fill="none" stroke="black" points="1765.55,-1137.4 1765.55,-1165.49 1704.34,-1177.45 1626.46,-1177.45 1565.26,-1165.49 1565.26,-1137.4 1626.46,-1125.45 1704.34,-1125.45 1765.55,-1137.4"/>
<text text-anchor="middle" x="1665.4" y="-1146.4" font-family="Times,serif" font-size="14.00">spdx:Sun&#45;PPP&#45;2000</text>
</g>
<!-- 4499&#45;&gt;4500 -->
<g id="edge2" class="edge">
<title>4499&#45;&gt;4500</title>
<path fill="none" stroke="#dac767" d="M1736.63,-627.67C1764.1,-781.28 1760.31,-804.45 1675.49,-1114.6"/>
<polygon fill="#dac767" stroke="#dac767" points="1672.23,-1113.25 1672.96,-1123.82 1678.98,-1115.1 1672.23,-1113.25"/>
</g>
<!-- 9260 -->
<g id="node13" class="node">
<title>9260</title>
<polygon fill="none" stroke="#e09d4b" points="1395.63,-929.6 1395.63,-944.52 1336.46,-955.06 1252.78,-955.06 1193.61,-944.52 1193.61,-929.6 1252.78,-919.06 1336.46,-919.06 1395.63,-929.6"/>
<polygon fill="none" stroke="#e09d4b" points="1399.63,-926.25 1399.63,-947.87 1336.81,-959.06 1252.42,-959.06 1189.61,-947.87 1189.61,-926.25 1252.42,-915.06 1336.81,-915.06 1399.63,-926.25"/>
<text text-anchor="middle" x="1294.62" y="-932.01" font-family="Times,serif" font-size="14.00">Fedora:Sun&#45;PPP&#45;2000</text>
</g>
<!-- 4500&#45;&gt;9260 -->
<g id="edge3" class="edge">
<title>4500&#45;&gt;9260</title>
<path fill="none" stroke="#e09d4b" stroke-width="2" d="M1635.25,-1124.99C1498.91,-1005.46 1459.43,-973.7 1387.73,-955.07"/>
<polygon fill="#e09d4b" stroke="#e09d4b" stroke-width="2" points="1379.27,-952.99 1390.06,-951.01 1381.88,-953.12 1389.1,-954.89 1388.98,-955.38 1388.86,-955.86 1381.64,-954.09 1387.91,-959.75 1379.27,-952.99"/>
</g>
<!-- 32436 -->
<g id="node15" class="node">
<title>32436</title>
<polygon fill="none" stroke="black" points="1975.07,-1085.42 1975.07,-1100.33 1912.66,-1110.88 1824.39,-1110.88 1761.98,-1100.33 1761.98,-1085.42 1824.39,-1074.88 1912.66,-1074.88 1975.07,-1085.42"/>
<polygon fill="none" stroke="black" points="1979.07,-1082.04 1979.07,-1103.71 1912.99,-1114.88 1824.06,-1114.88 1757.98,-1103.71 1757.98,-1082.04 1824.06,-1070.88 1912.99,-1070.88 1979.07,-1082.04"/>
<text text-anchor="middle" x="1868.53" y="-1087.83" font-family="Times,serif" font-size="14.00">scancode:sun&#45;ppp&#45;2000</text>
</g>
<!-- 4500&#45;&gt;32436 -->
<g id="edge4" class="edge">
<title>4500&#45;&gt;32436</title>
<path fill="none" stroke="#deb256" stroke-width="2" d="M1750.15,-1133.93C1769.01,-1128.71 1788.66,-1122.93 1806.41,-1117.36"/>
<polygon fill="#deb256" stroke="#deb256" stroke-width="2" points="1814.3,-1114.86 1806.13,-1122.17 1812.01,-1116.11 1804.92,-1118.36 1804.77,-1117.88 1804.62,-1117.41 1811.7,-1115.16 1803.41,-1113.6 1814.3,-1114.86"/>
</g>
<!-- 55406 -->
<g id="node25" class="node">
<title>55406</title>
<polygon fill="none" stroke="#379469" points="1622.07,-1272.16 1622.07,-1287.07 1495.73,-1297.62 1317.05,-1297.62 1190.71,-1287.07 1190.71,-1272.16 1317.05,-1261.62 1495.73,-1261.62 1622.07,-1272.16"/>
<polygon fill="none" stroke="#379469" points="1626.07,-1268.48 1626.07,-1290.75 1495.89,-1301.62 1316.88,-1301.62 1186.71,-1290.75 1186.71,-1268.48 1316.88,-1257.62 1495.89,-1257.62 1626.07,-1268.48"/>
<text text-anchor="middle" x="1406.39" y="-1274.57" font-family="Times,serif" font-size="14.00">metaeffekt:Permission Terms (Sun Microsystems)</text>
</g>
<!-- 4500&#45;&gt;55406 -->
<g id="edge5" class="edge">
<title>4500&#45;&gt;55406</title>
<path fill="none" stroke="#379469" stroke-width="2" d="M1640.32,-1177.91C1600.5,-1219.66 1576.38,-1242.8 1549.74,-1256.36"/>
<polygon fill="#379469" stroke="#379469" stroke-width="2" points="1541.99,-1259.92 1549.2,-1251.66 1544.11,-1258.39 1550.87,-1255.29 1551.07,-1255.74 1551.28,-1256.2 1544.52,-1259.3 1552.95,-1259.83 1541.99,-1259.92"/>
</g>
<!-- 4501 -->
<g id="node4" class="node">
<title>4501</title>
<polygon fill="none" stroke="black" points="1491.78,-1211.54 1491.78,-1226.45 1450.46,-1236.99 1392.02,-1236.99 1350.7,-1226.45 1350.7,-1211.54 1392.02,-1200.99 1450.46,-1200.99 1491.78,-1211.54"/>
<polygon fill="none" stroke="black" points="1495.78,-1208.43 1495.78,-1229.55 1450.96,-1240.99 1391.52,-1240.99 1346.7,-1229.55 1346.7,-1208.43 1391.52,-1196.99 1450.96,-1196.99 1495.78,-1208.43"/>
<text text-anchor="middle" x="1421.24" y="-1213.94" font-family="Times,serif" font-size="14.00">Sun&#45;PPP&#45;2000</text>
</g>
<!-- 4501&#45;&gt;4500 -->
<g id="edge6" class="edge">
<title>4501&#45;&gt;4500</title>
<path fill="none" stroke="black" stroke-width="2" d="M1496.05,-1223.35C1556.38,-1225.22 1579.12,-1217.76 1623.23,-1184.67"/>
<polygon fill="black" stroke="black" stroke-width="2" points="1630.1,-1179.42 1624.88,-1189.07 1628.37,-1181.37 1622.46,-1185.89 1622.15,-1185.49 1621.85,-1185.09 1627.76,-1180.58 1619.42,-1181.91 1630.1,-1179.42"/>
</g>
<!-- 4501&#45;&gt;9260 -->
<g id="edge7" class="edge">
<title>4501&#45;&gt;9260</title>
<path fill="none" stroke="#e09d4b" stroke-width="2" d="M1404.2,-1196.71C1310.12,-1073.57 1300.02,-1056.02 1295.94,-970.5"/>
<polygon fill="#e09d4b" stroke="#e09d4b" stroke-width="2" points="1295.56,-961.87 1300.49,-971.66 1296.17,-964.41 1296.5,-971.84 1296,-971.86 1295.5,-971.88 1295.17,-964.45 1291.5,-972.06 1295.56,-961.87"/>
</g>
<!-- 4501&#45;&gt;32436 -->
<g id="edge8" class="edge">
<title>4501&#45;&gt;32436</title>
<path fill="none" stroke="black" stroke-width="2" d="M1496,-1208.71C1702.81,-1180.01 1739.63,-1171.13 1822.95,-1121.04"/>
<polygon fill="black" stroke="black" stroke-width="2" points="1830.44,-1116.49 1824.23,-1125.53 1828.51,-1118.25 1822.15,-1122.11 1821.89,-1121.68 1821.63,-1121.25 1827.99,-1117.4 1819.56,-1117.83 1830.44,-1116.49"/>
</g>
<!-- 42318 -->
<g id="node22" class="node">
<title>42318</title>
<polygon fill="none" stroke="#379469" points="1135.62,-1289.87 1135.62,-1304.79 1081.32,-1315.33 1004.53,-1315.33 950.23,-1304.79 950.23,-1289.87 1004.53,-1279.33 1081.32,-1279.33 1135.62,-1289.87"/>
<polygon fill="none" stroke="#379469" points="1139.62,-1286.58 1139.62,-1308.08 1081.71,-1319.33 1004.14,-1319.33 946.23,-1308.08 946.23,-1286.58 1004.14,-1275.33 1081.71,-1275.33 1139.62,-1286.58"/>
<text text-anchor="middle" x="1042.92" y="-1292.28" font-family="Times,serif" font-size="14.00">cavil:Sun&#45;PPP&#45;2000</text>
</g>
<!-- 4501&#45;&gt;42318 -->
<g id="edge9" class="edge">
<title>4501&#45;&gt;42318</title>
<path fill="none" stroke="#379469" stroke-width="2" d="M1365.12,-1234.68C1247.99,-1267.37 1195.43,-1281.39 1150.91,-1288.43"/>
<polygon fill="#379469" stroke="#379469" stroke-width="2" points="1142.45,-1289.68 1151.68,-1283.77 1144.91,-1288.81 1152.27,-1287.73 1152.34,-1288.22 1152.41,-1288.71 1145.06,-1289.8 1153,-1292.67 1142.45,-1289.68"/>
</g>
<!-- 4501&#45;&gt;55406 -->
<g id="edge10" class="edge">
<title>4501&#45;&gt;55406</title>
<path fill="none" stroke="#379469" stroke-dasharray="5,2" d="M1412.95,-1241.41C1412.3,-1243.21 1411.72,-1244.88 1411.19,-1246.43"/>
<polygon fill="#379469" stroke="#379469" points="1408.34,-1255.98 1406.89,-1245.11 1409.42,-1252.36 1411.2,-1246.4 1411.2,-1246.4 1411.2,-1246.4 1409.42,-1252.36 1415.51,-1247.69 1408.34,-1255.98"/>
</g>
<!-- 4502 -->
<g id="node5" class="node">
<title>4502</title>
<polygon fill="none" stroke="black" points="1960.16,-1424.27 1960.16,-1439.18 1896.12,-1449.73 1805.56,-1449.73 1741.52,-1439.18 1741.52,-1424.27 1805.56,-1413.73 1896.12,-1413.73 1960.16,-1424.27"/>
<polygon fill="none" stroke="black" points="1964.16,-1420.88 1964.16,-1442.58 1896.45,-1453.73 1805.23,-1453.73 1737.52,-1442.58 1737.52,-1420.88 1805.23,-1409.73 1896.45,-1409.73 1964.16,-1420.88"/>
<text text-anchor="middle" x="1850.84" y="-1426.68" font-family="Times,serif" font-size="14.00">Sun PPP License (2000)</text>
</g>
<!-- 4502&#45;&gt;4500 -->
<g id="edge11" class="edge">
<title>4502&#45;&gt;4500</title>
<path fill="none" stroke="#dac767" stroke-width="2" d="M1842.81,-1409.35C1815.44,-1333.92 1804.22,-1317.28 1694.52,-1186.2"/>
<polygon fill="#dac767" stroke="#dac767" stroke-width="2" points="1689.07,-1179.68 1698.94,-1184.46 1691.1,-1181.33 1695.87,-1187.03 1695.49,-1187.35 1695.1,-1187.67 1690.33,-1181.97 1692.04,-1190.24 1689.07,-1179.68"/>
</g>
<!-- 4502&#45;&gt;32436 -->
<g id="edge12" class="edge">
<title>4502&#45;&gt;32436</title>
<path fill="none" stroke="#deb256" stroke-width="2" d="M1861.83,-1409.59C1918.91,-1294.16 1920.11,-1278.18 1877.74,-1125.83"/>
<polygon fill="#deb256" stroke="#deb256" stroke-width="2" points="1875.41,-1117.45 1882.43,-1125.88 1876.58,-1119.79 1878.57,-1126.95 1878.09,-1127.09 1877.61,-1127.22 1875.61,-1120.06 1873.76,-1128.3 1875.41,-1117.45"/>
</g>
<!-- 4502&#45;&gt;55406 -->
<g id="edge13" class="edge">
<title>4502&#45;&gt;55406</title>
<path fill="none" stroke="#379469" stroke-dasharray="5,2" d="M1737.18,-1433.09C1660.2,-1428.06 1610.08,-1401.51 1453.32,-1307.75"/>
<polygon fill="#379469" stroke="#379469" points="1444.87,-1302.7 1455.77,-1303.97 1448.12,-1304.64 1453.45,-1307.83 1453.45,-1307.83 1453.45,-1307.83 1448.12,-1304.64 1451.14,-1311.69 1444.87,-1302.7"/>
</g>
<!-- 68551 -->
<g id="node28" class="node">
<title>68551</title>
<polygon fill="none" stroke="#00876c" points="2193.79,-1179.35 2193.79,-1194.27 2117.09,-1204.81 2008.63,-1204.81 1931.94,-1194.27 1931.94,-1179.35 2008.63,-1168.81 2117.09,-1168.81 2193.79,-1179.35"/>
<polygon fill="none" stroke="#00876c" points="2197.79,-1175.87 2197.79,-1197.75 2117.37,-1208.81 2008.36,-1208.81 1927.94,-1197.75 1927.94,-1175.87 2008.36,-1164.81 2117.37,-1164.81 2197.79,-1175.87"/>
<text text-anchor="middle" x="2062.86" y="-1181.76" font-family="Times,serif" font-size="14.00">spdx:Sun PPP License (2000)</text>
</g>
<!-- 4502&#45;&gt;68551 -->
<g id="edge14" class="edge">
<title>4502&#45;&gt;68551</title>
<path fill="none" stroke="#00876c" stroke-width="2" d="M1888.45,-1409.47C2005.8,-1339.56 2019.01,-1324.2 2052.49,-1219.69"/>
<polygon fill="#00876c" stroke="#00876c" stroke-width="2" points="2055.06,-1211.61 2056.32,-1222.51 2054.76,-1214.21 2052.5,-1221.29 2052.03,-1221.14 2051.55,-1220.99 2053.81,-1213.9 2047.74,-1219.78 2055.06,-1211.61"/>
</g>
<!-- 4503 -->
<g id="node6" class="node">
<title>4503</title>
<text text-anchor="middle" x="1680.97" y="-208.06" font-family="Times,serif" font-size="14.00">$TEXT</text>
</g>
<!-- 4503&#45;&gt;4499 -->
<g id="edge15" class="edge">
<title>4503&#45;&gt;4499</title>
<path fill="none" stroke="#dac767" d="M1687.83,-230.81C1724.5,-325.89 1726.78,-343.16 1730.63,-557.79"/>
<polygon fill="#dac767" stroke="#dac767" points="1727.13,-557.72 1730.81,-567.65 1734.13,-557.59 1727.13,-557.72"/>
</g>
<!-- 4504 -->
<g id="node7" class="node">
<title>4504</title>
<text text-anchor="middle" x="1673.55" y="-13" font-family="Times,serif" font-size="14.00">$TEXT</text>
</g>
<!-- 4504&#45;&gt;4503 -->
<g id="edge16" class="edge">
<title>4504&#45;&gt;4503</title>
<path fill="none" stroke="#dac767" d="M1676.56,-35.84C1683.02,-75.02 1683.36,-89.65 1681.55,-183.93"/>
<polygon fill="#dac767" stroke="#dac767" points="1678.05,-183.61 1681.36,-193.67 1685.05,-183.74 1678.05,-183.61"/>
</g>
<!-- 4505 -->
<g id="node8" class="node">
<title>4505</title>
<text text-anchor="middle" x="2102.08" y="-518.34" font-family="Times,serif" font-size="14.00">https://github.com/ppp&#45;project/ppp/blob/master/modules/ppp_ahdlc.c#L7&#45;L19</text>
</g>
<!-- 4505&#45;&gt;4499 -->
<g id="edge17" class="edge">
<title>4505&#45;&gt;4499</title>
<path fill="none" stroke="#dac767" d="M1881.12,-535.98C1859.66,-544.06 1834.75,-554.3 1804.65,-567.06"/>
<polygon fill="#dac767" stroke="#dac767" points="1803.47,-563.76 1795.64,-570.89 1806.21,-570.2 1803.47,-563.76"/>
</g>
<!-- 32435 -->
<g id="node14" class="node">
<title>32435</title>
<ellipse fill="none" stroke="#deb256" cx="2381.6" cy="-932.24" rx="156.62" ry="28.99"/>
<text text-anchor="middle" x="2381.6" y="-935.44" font-family="Times,serif" font-size="14.00" fill="gray">ScancodeData</text>
<text text-anchor="middle" x="2381.6" y="-918.94" font-family="Times,serif" font-size="14.00" fill="gray">99c36c41d32c382e29049dc018ff3df1</text>
</g>
<!-- 4505&#45;&gt;32435 -->
<g id="edge18" class="edge">
<title>4505&#45;&gt;32435</title>
<path fill="none" stroke="#deb256" d="M2127.94,-541.32C2317.13,-672.7 2330.04,-688.9 2373.12,-891.91"/>
<polygon fill="#deb256" stroke="#deb256" points="2369.65,-892.45 2375.15,-901.51 2376.5,-891 2369.65,-892.45"/>
</g>
<!-- 5550 -->
<g id="node9" class="node">
<title>5550</title>
<text text-anchor="middle" x="2698.87" y="-670.29" font-family="Times,serif" font-size="14.00">LicenseType Permissive</text>
</g>
<!-- 5550&#45;&gt;32435 -->
<g id="edge19" class="edge">
<title>5550&#45;&gt;32435</title>
<path fill="none" stroke="#deb256" d="M2685.03,-693.16C2623.17,-772.48 2606.59,-786.6 2434.83,-897.83"/>
<polygon fill="#deb256" stroke="#deb256" points="2432.95,-894.88 2426.46,-903.25 2436.76,-900.75 2432.95,-894.88"/>
</g>
<!-- 6592 -->
<g id="node10" class="node">
<title>6592</title>
<text text-anchor="middle" x="558.55" y="-428.89" font-family="Times,serif" font-size="14.00">[&quot;allowed&quot;]</text>
</g>
<!-- 9259 -->
<g id="node12" class="node">
<title>9259</title>
<ellipse fill="none" stroke="#e09d4b" cx="867.92" cy="-649.51" rx="158.22" ry="28.99"/>
<text text-anchor="middle" x="867.92" y="-652.71" font-family="Times,serif" font-size="14.00" fill="gray">FedoraEntry</text>
<text text-anchor="middle" x="867.92" y="-636.21" font-family="Times,serif" font-size="14.00" fill="gray">5d670fd9c5616f1602c9d263860dbbf9</text>
</g>
<!-- 6592&#45;&gt;9259 -->
<g id="edge20" class="edge">
<title>6592&#45;&gt;9259</title>
<path fill="none" stroke="#e09d4b" d="M585.04,-451.76C648.32,-494.39 670.64,-509.98 818.68,-614.68"/>
<polygon fill="#e09d4b" stroke="#e09d4b" points="816.26,-617.25 826.45,-620.17 820.3,-611.54 816.26,-617.25"/>
</g>
<!-- 6593 -->
<g id="node11" class="node">
<title>6593</title>
<text text-anchor="start" x="178.03" y="-238.99" font-family="Times,serif" font-size="14.00">Fedora: </text>
<text text-anchor="start" x="223.03" y="-238.99" font-family="Times,serif" font-weight="bold" font-size="14.00" fill="#228b22">allowed</text>
<text text-anchor="start" x="14.16" y="-224.99" font-family="Times,serif" font-size="14.00">A license is allowed if Fedora determines that the license is a free software /</text>
<text text-anchor="start" x="8.91" y="-210.99" font-family="Times,serif" font-size="14.00">open source license. At a high level, the inquiry involves determining whether</text>
<text text-anchor="start" x="7.78" y="-196.99" font-family="Times,serif" font-size="14.00">the license provides software freedom, and (equivalently) making sure that the</text>
<text text-anchor="start" x="17.91" y="-182.99" font-family="Times,serif" font-size="14.00">license does not place burdens on users&#39; exercise of its permissions that are</text>
<text text-anchor="start" x="17.53" y="-168.99" font-family="Times,serif" font-size="14.00">inconsistent with evolving community norms and traditions around what is</text>
<text text-anchor="start" x="9.28" y="-154.99" font-family="Times,serif" font-size="14.00">acceptable in a free software / open source license. See below for more on the</text>
<text text-anchor="start" x="129.28" y="-140.99" font-family="Times,serif" font-size="14.00">history of Fedora licensing policy.</text>
</g>
<!-- 6593&#45;&gt;6592 -->
<g id="edge21" class="edge">
<title>6593&#45;&gt;6592</title>
<path fill="none" stroke="#e09d4b" d="M307.75,-255.06C350.2,-285.05 399.23,-320.07 524.3,-409.46"/>
<polygon fill="#e09d4b" stroke="#e09d4b" points="522.03,-412.14 532.2,-415.11 526.1,-406.45 522.03,-412.14"/>
</g>
<!-- 9259&#45;&gt;9260 -->
<g id="edge22" class="edge">
<title>9259&#45;&gt;9260</title>
<path fill="none" stroke="#e09d4b" d="M913.96,-677.65C999.98,-730.51 1034.65,-754.44 1253.61,-908.25"/>
<polygon fill="#e09d4b" stroke="#e09d4b" points="1251.39,-910.97 1261.58,-913.85 1255.41,-905.24 1251.39,-910.97"/>
</g>
<!-- 32435&#45;&gt;32436 -->
<g id="edge23" class="edge">
<title>32435&#45;&gt;32436</title>
<path fill="none" stroke="#deb256" d="M2314.94,-958.91C2229.13,-992.51 2178.93,-1007.28 1946.87,-1071.29"/>
<polygon fill="#deb256" stroke="#deb256" points="1946.21,-1067.84 1937.5,-1073.87 1948.07,-1074.59 1946.21,-1067.84"/>
</g>
<!-- 32436&#45;&gt;4500 -->
<g id="edge24" class="edge">
<title>32436&#45;&gt;4500</title>
<path fill="none" stroke="#00876c" stroke-width="2" d="M1787.87,-1109.27C1769.53,-1114.29 1750.24,-1119.91 1732.53,-1125.4"/>
<polygon fill="#00876c" stroke="#00876c" stroke-width="2" points="1724.63,-1127.87 1732.83,-1120.59 1726.93,-1126.63 1734.03,-1124.4 1734.18,-1124.88 1734.33,-1125.36 1727.23,-1127.58 1735.52,-1129.17 1724.63,-1127.87"/>
</g>
<!-- 32436&#45;&gt;55406 -->
<g id="edge25" class="edge">
<title>32436&#45;&gt;55406</title>
<path fill="none" stroke="#379469" stroke-dasharray="5,2" d="M1845.13,-1115.37C1747.02,-1209.22 1717.98,-1227.32 1539.33,-1258.02"/>
<polygon fill="#379469" stroke="#379469" points="1529.67,-1259.66 1538.77,-1253.55 1533.4,-1259.03 1539.53,-1257.98 1539.53,-1257.98 1539.53,-1257.98 1533.4,-1259.03 1540.28,-1262.42 1529.67,-1259.66"/>
</g>
<!-- 32437 -->
<g id="node16" class="node">
<title>32437</title>
<text text-anchor="middle" x="2870.78" y="-1064.04" font-family="Times,serif" font-size="14.00">ScancodeData:</text>
<text text-anchor="middle" x="2870.78" y="-1047.54" font-family="Times,serif" font-size="14.00">Added in SPDX license list 3.24</text>
<text text-anchor="middle" x="2870.78" y="-1031.04" font-family="Times,serif" font-size="14.00">This is different from sun&#45;prop&#45;non&#45;commercial as</text>
<text text-anchor="middle" x="2870.78" y="-1014.54" font-family="Times,serif" font-size="14.00">the `NON&#45;COMMERCIAL` part is missing.</text>
</g>
<!-- 32437&#45;&gt;32435 -->
<g id="edge26" class="edge">
<title>32437&#45;&gt;32435</title>
<path fill="none" stroke="#deb256" d="M2789.5,-1007.37C2725.15,-980.72 2674.1,-970.42 2522.23,-950.33"/>
<polygon fill="#deb256" stroke="#deb256" points="2522.99,-946.9 2512.62,-949.06 2522.08,-953.84 2522.99,-946.9"/>
</g>
<!-- 32438 -->
<g id="node17" class="node">
<title>32438</title>
<text text-anchor="middle" x="2721.64" y="-895.75" font-family="Times,serif" font-size="14.00">$TEXT</text>
</g>
<!-- 32438&#45;&gt;32435 -->
<g id="edge27" class="edge">
<title>32438&#45;&gt;32435</title>
<path fill="none" stroke="#deb256" d="M2693.07,-901.45C2638.4,-902.81 2611.66,-904.55 2524.36,-914.85"/>
<polygon fill="#deb256" stroke="#deb256" points="2524.14,-911.35 2514.62,-916 2524.97,-918.3 2524.14,-911.35"/>
</g>
<!-- 35432 -->
<g id="node18" class="node">
<title>35432</title>
<text text-anchor="middle" x="1479.94" y="-2229.21" font-family="Times,serif" font-size="14.00">LicenseTag (ScopedLicenseTag &quot;OrtLicenseCategorization&quot; &quot;permissive&quot; NoLicenseTagText)</text>
</g>
<!-- 39876 -->
<g id="node20" class="node">
<title>39876</title>
<ellipse fill="none" stroke="#d43d51" cx="1716.55" cy="-1671.86" rx="155.03" ry="28.99"/>
<text text-anchor="middle" x="1716.55" y="-1675.06" font-family="Times,serif" font-size="14.00" fill="gray">OrtLicenseCategorization</text>
<text text-anchor="middle" x="1716.55" y="-1658.56" font-family="Times,serif" font-size="14.00" fill="gray">cb5de103dfbf7a27f1322d0fe3b831e9</text>
</g>
<!-- 35432&#45;&gt;39876 -->
<g id="edge28" class="edge">
<title>35432&#45;&gt;39876</title>
<path fill="none" stroke="#d43d51" d="M1494.39,-2216.66C1607.29,-2078.93 1614.92,-2060.28 1706.02,-1712.11"/>
<polygon fill="#d43d51" stroke="#d43d51" points="1709.36,-1713.21 1708.5,-1702.65 1702.58,-1711.44 1709.36,-1713.21"/>
</g>
<!-- 35433 -->
<g id="node19" class="node">
<title>35433</title>
<text text-anchor="middle" x="2061.5" y="-2212.49" font-family="Times,serif" font-size="14.00">LicenseTag (ScopedLicenseTag &quot;OrtLicenseCategorization&quot; &quot;include&#45;in&#45;notice&#45;file&quot; NoLicenseTagText)</text>
</g>
<!-- 35433&#45;&gt;39876 -->
<g id="edge29" class="edge">
<title>35433&#45;&gt;39876</title>
<path fill="none" stroke="#d43d51" d="M2047.86,-2199.55C1946.76,-2066.12 1935.05,-2047.42 1739.05,-1710.54"/>
<polygon fill="#d43d51" stroke="#d43d51" points="1742.31,-1709.19 1734.26,-1702.3 1736.26,-1712.71 1742.31,-1709.19"/>
</g>
<!-- 39876&#45;&gt;4500 -->
<g id="edge30" class="edge">
<title>39876&#45;&gt;4500</title>
<path fill="none" stroke="#d43d51" d="M1721.76,-1642.4C1745.88,-1504.22 1742.53,-1480.51 1674.11,-1188.56"/>
<polygon fill="#d43d51" stroke="#d43d51" points="1677.58,-1188.03 1671.89,-1179.09 1670.76,-1189.62 1677.58,-1188.03"/>
</g>
<!-- 42317 -->
<g id="node21" class="node">
<title>42317</title>
<ellipse fill="none" stroke="#379469" cx="631.62" cy="-1421.92" rx="161.93" ry="28.99"/>
<text text-anchor="middle" x="631.62" y="-1425.12" font-family="Times,serif" font-size="14.00" fill="gray">CavilLicenseChange</text>
<text text-anchor="middle" x="631.62" y="-1408.62" font-family="Times,serif" font-size="14.00" fill="gray">8c48bd6291a1407733700714da24b79e</text>
</g>
<!-- 42317&#45;&gt;42318 -->
<g id="edge31" class="edge">
<title>42317&#45;&gt;42318</title>
<path fill="none" stroke="#379469" d="M720.58,-1397.26C773.86,-1382.02 826.4,-1365.64 973.27,-1319.31"/>
<polygon fill="#379469" stroke="#379469" points="974.08,-1322.73 982.56,-1316.38 971.97,-1316.05 974.08,-1322.73"/>
</g>
<!-- 50154 -->
<g id="node23" class="node">
<title>50154</title>
<polygon fill="none" stroke="#379469" points="1151.85,-1636.39 1151.85,-1651.3 1118.64,-1661.84 1071.68,-1661.84 1038.47,-1651.3 1038.47,-1636.39 1071.68,-1625.84 1118.64,-1625.84 1151.85,-1636.39"/>
<text text-anchor="middle" x="1095.16" y="-1638.79" font-family="Times,serif" font-size="14.00">Permission</text>
</g>
<!-- 50154&#45;&gt;55406 -->
<g id="edge32" class="edge">
<title>50154&#45;&gt;55406</title>
<path fill="none" stroke="#379469" stroke-dasharray="5,2" d="M1112.07,-1625.37C1189.56,-1540.65 1204.29,-1523.28 1380.67,-1310.63"/>
<polygon fill="#379469" stroke="#379469" points="1387.05,-1302.94 1384.13,-1313.51 1384.63,-1305.85 1380.66,-1310.64 1380.66,-1310.64 1380.66,-1310.64 1384.63,-1305.85 1377.2,-1307.76 1387.05,-1302.94"/>
</g>
<!-- 55405 -->
<g id="node24" class="node">
<title>55405</title>
<ellipse fill="none" stroke="#379469" cx="1312.18" cy="-1349.88" rx="156.62" ry="28.99"/>
<text text-anchor="middle" x="1312.18" y="-1353.08" font-family="Times,serif" font-size="14.00" fill="gray">MetaeffektLicense</text>
<text text-anchor="middle" x="1312.18" y="-1336.58" font-family="Times,serif" font-size="14.00" fill="gray">1213ead31ee739e43e7a3e5731d1f95f</text>
</g>
<!-- 55405&#45;&gt;55406 -->
<g id="edge33" class="edge">
<title>55405&#45;&gt;55406</title>
<path fill="none" stroke="#379469" d="M1357.03,-1321.78C1361.34,-1318.3 1366.26,-1314.2 1372.11,-1309.22"/>
<polygon fill="#379469" stroke="#379469" points="1374.23,-1312 1379.55,-1302.84 1369.68,-1306.69 1374.23,-1312"/>
</g>
<!-- 55407 -->
<g id="node26" class="node">
<title>55407</title>
<polygon fill="none" stroke="#379469" points="1888.94,-1370.76 1888.94,-1385.67 1789.53,-1396.22 1648.95,-1396.22 1549.54,-1385.67 1549.54,-1370.76 1648.95,-1360.22 1789.53,-1360.22 1888.94,-1370.76"/>
<polygon fill="none" stroke="#379469" points="1892.94,-1367.16 1892.94,-1389.27 1789.74,-1400.22 1648.74,-1400.22 1545.54,-1389.27 1545.54,-1367.16 1648.74,-1356.22 1789.74,-1356.22 1892.94,-1367.16"/>
<text text-anchor="middle" x="1719.24" y="-1373.17" font-family="Times,serif" font-size="14.00">Permission Terms (Sun Microsystems)</text>
</g>
<!-- 55407&#45;&gt;55406 -->
<g id="edge34" class="edge">
<title>55407&#45;&gt;55406</title>
<path fill="none" stroke="#379469" stroke-width="2" d="M1549.5,-1366.33C1523.79,-1354.5 1493.53,-1335.96 1450.15,-1308.01"/>
<polygon fill="#379469" stroke="#379469" stroke-width="2" points="1443.05,-1303.42 1453.89,-1305.06 1445.47,-1304.39 1451.72,-1308.42 1451.45,-1308.84 1451.18,-1309.26 1444.93,-1305.23 1449.01,-1312.63 1443.05,-1303.42"/>
</g>
<!-- 68550 -->
<g id="node27" class="node">
<title>68550</title>
<ellipse fill="none" stroke="#00876c" cx="2095.28" cy="-1365.56" rx="156.09" ry="28.99"/>
<text text-anchor="middle" x="2095.28" y="-1368.76" font-family="Times,serif" font-size="14.00" fill="gray">LicenseLynx</text>
<text text-anchor="middle" x="2095.28" y="-1352.26" font-family="Times,serif" font-size="14.00" fill="gray">4bb499ef54a09488d95092c5f275f04f</text>
</g>
<!-- 68550&#45;&gt;4500 -->
<g id="edge35" class="edge">
<title>68550&#45;&gt;4500</title>
<path fill="none" stroke="#00876c" d="M2048.38,-1337.52C1971.78,-1292.2 1934.01,-1274.08 1728,-1180.01"/>
<polygon fill="#00876c" stroke="#00876c" points="1729.67,-1176.93 1719.12,-1175.96 1726.76,-1183.29 1729.67,-1176.93"/>
</g>
<!-- 68551&#45;&gt;4500 -->
<g id="edge36" class="edge">
<title>68551&#45;&gt;4500</title>
<path fill="none" stroke="#00876c" stroke-width="2" d="M1927.58,-1176.7C1892.79,-1173.63 1848.57,-1169.39 1776.72,-1162.37"/>
<polygon fill="#00876c" stroke="#00876c" stroke-width="2" points="1768.35,-1161.55 1778.74,-1158.04 1770.95,-1161.3 1778.35,-1162.02 1778.3,-1162.52 1778.25,-1163.02 1770.85,-1162.29 1777.86,-1167 1768.35,-1161.55"/>
</g>
</g>
</svg>
