<?xml version="1.0" encoding="UTF-8" standalone="no"?>
<!DOCTYPE svg PUBLIC "-//W3C//DTD SVG 1.1//EN"
 "http://www.w3.org/Graphics/SVG/1.1/DTD/svg11.dtd">
<!-- Generated by graphviz version 10.0.1 (0)
 -->
<!-- Pages: 1 -->
<svg width="2298pt" height="2210pt"
 viewBox="0.00 0.00 2298.00 2210.00" xmlns="http://www.w3.org/2000/svg" xmlns:xlink="http://www.w3.org/1999/xlink">
<g id="graph0" class="graph" transform="scale(1 1) rotate(0) translate(4 2206)">
<polygon fill="white" stroke="none" points="-4,4 -4,-2206 2294,-2206 2294,4 -4,4"/>
<!-- 5 -->
<g id="node1" class="node">
<title>5</title>
<text text-anchor="start" x="846.86" y="-309.34" font-family="Times,serif" font-size="14.00">OSI: </text>
<text text-anchor="start" x="876.11" y="-309.34" font-family="Times,serif" font-weight="bold" font-size="14.00" fill="#8b0000">Rejected</text>
</g>
<!-- 4506 -->
<g id="node2" class="node">
<title>4506</title>
<ellipse fill="none" stroke="#dac767" cx="1040.84" cy="-611.6" rx="157.68" ry="28.99"/>
<text text-anchor="middle" x="1040.84" y="-614.8" font-family="Times,serif" font-size="14.00" fill="gray">SPDXLicense</text>
<text text-anchor="middle" x="1040.84" y="-598.3" font-family="Times,serif" font-size="14.00" fill="gray">6e8c4058491f30269f683e907ddd3d8f</text>
</g>
<!-- 5&#45;&gt;4506 -->
<g id="edge1" class="edge">
<title>5&#45;&gt;4506</title>
<path fill="none" stroke="#dac767" d="M899.09,-331.37C942.61,-394.32 951.5,-411.77 1023.2,-572.11"/>
<polygon fill="#dac767" stroke="#dac767" points="1019.89,-573.29 1027.17,-580.99 1026.28,-570.44 1019.89,-573.29"/>
</g>
<!-- 4507 -->
<g id="node3" class="node">
<title>4507</title>
<polygon fill="none" stroke="black" points="1002.84,-1095.94 1002.84,-1110.85 962.49,-1121.39 905.43,-1121.39 865.08,-1110.85 865.08,-1095.94 905.43,-1085.39 962.49,-1085.39 1002.84,-1095.94"/>
<polygon fill="none" stroke="black" points="1006.84,-1092.85 1006.84,-1113.94 963.01,-1125.39 904.92,-1125.39 861.08,-1113.94 861.08,-1092.85 904.92,-1081.39 963.01,-1081.39 1006.84,-1092.85"/>
<polygon fill="none" stroke="black" points="1010.84,-1089.76 1010.84,-1117.03 963.52,-1129.39 904.4,-1129.39 857.08,-1117.03 857.08,-1089.76 904.4,-1077.39 963.52,-1077.39 1010.84,-1089.76"/>
<text text-anchor="middle" x="933.96" y="-1098.34" font-family="Times,serif" font-size="14.00">spdx:Sun&#45;PPP</text>
</g>
<!-- 4506&#45;&gt;4507 -->
<g id="edge2" class="edge">
<title>4506&#45;&gt;4507</title>
<path fill="none" stroke="#dac767" d="M1021.53,-640.5C936.5,-768.63 932.94,-792.09 933.82,-1065.42"/>
<polygon fill="#dac767" stroke="#dac767" points="930.32,-1065.43 933.86,-1075.42 937.32,-1065.41 930.32,-1065.43"/>
</g>
<!-- 9262 -->
<g id="node13" class="node">
<title>9262</title>
<polygon fill="none" stroke="#e09d4b" points="727.47,-856.62 727.47,-871.53 681.93,-882.08 617.52,-882.08 571.98,-871.53 571.98,-856.62 617.52,-846.08 681.93,-846.08 727.47,-856.62"/>
<polygon fill="none" stroke="#e09d4b" points="731.47,-853.44 731.47,-874.71 682.38,-886.08 617.07,-886.08 567.98,-874.71 567.98,-853.44 617.07,-842.08 682.38,-842.08 731.47,-853.44"/>
<text text-anchor="middle" x="649.72" y="-859.03" font-family="Times,serif" font-size="14.00">Fedora:Sun&#45;PPP</text>
</g>
<!-- 4507&#45;&gt;9262 -->
<g id="edge3" class="edge">
<title>4507&#45;&gt;9262</title>
<path fill="none" stroke="#e09d4b" stroke-width="2" d="M897.34,-1078.74C743.78,-975.27 720.87,-957.75 673.09,-895.23"/>
<polygon fill="#e09d4b" stroke="#e09d4b" stroke-width="2" points="667.96,-888.46 677.58,-893.71 669.9,-890.2 674.4,-896.13 674,-896.43 673.6,-896.73 669.11,-890.81 670.41,-899.15 667.96,-888.46"/>
</g>
<!-- 26462 -->
<g id="node15" class="node">
<title>26462</title>
<polygon fill="none" stroke="black" points="1223.08,-961.13 1223.08,-976.05 1174.29,-986.59 1105.3,-986.59 1056.51,-976.05 1056.51,-961.13 1105.3,-950.59 1174.29,-950.59 1223.08,-961.13"/>
<polygon fill="none" stroke="black" points="1227.08,-957.91 1227.08,-979.27 1174.72,-990.59 1104.87,-990.59 1052.51,-979.27 1052.51,-957.91 1104.87,-946.59 1174.72,-946.59 1227.08,-957.91"/>
<text text-anchor="middle" x="1139.79" y="-963.54" font-family="Times,serif" font-size="14.00">scancode:sun&#45;ppp</text>
</g>
<!-- 4507&#45;&gt;26462 -->
<g id="edge4" class="edge">
<title>4507&#45;&gt;26462</title>
<path fill="none" stroke="#deb256" stroke-width="2" d="M978.4,-1080.91C1016.5,-1057.96 1070.56,-1022.48 1105.43,-997.48"/>
<polygon fill="#deb256" stroke="#deb256" stroke-width="2" points="1112.32,-992.48 1106.87,-1002 1110.54,-994.39 1104.52,-998.76 1104.23,-998.35 1103.93,-997.95 1109.95,-993.58 1101.58,-994.71 1112.32,-992.48"/>
</g>
<!-- 56548 -->
<g id="node24" class="node">
<title>56548</title>
<polygon fill="none" stroke="#379469" points="1242.09,-1036.62 1242.09,-1051.53 1168.32,-1062.08 1063.99,-1062.08 990.22,-1051.53 990.22,-1036.62 1063.99,-1026.08 1168.32,-1026.08 1242.09,-1036.62"/>
<polygon fill="none" stroke="#379469" points="1246.09,-1033.15 1246.09,-1055 1168.6,-1066.08 1063.71,-1066.08 986.22,-1055 986.22,-1033.15 1063.71,-1022.08 1168.6,-1022.08 1246.09,-1033.15"/>
<text text-anchor="middle" x="1116.15" y="-1039.03" font-family="Times,serif" font-size="14.00">metaeffekt:Sun PPP License</text>
</g>
<!-- 4507&#45;&gt;56548 -->
<g id="edge5" class="edge">
<title>4507&#45;&gt;56548</title>
<path fill="none" stroke="#379469" stroke-width="2" d="M970.6,-1078.94C982.61,-1072.16 994.38,-1067.54 1011.69,-1063.19"/>
<polygon fill="#379469" stroke="#379469" stroke-width="2" points="1020.19,-1061.2 1011.48,-1067.86 1017.81,-1062.27 1010.57,-1063.96 1010.45,-1063.48 1010.34,-1062.99 1017.58,-1061.3 1009.43,-1059.1 1020.19,-1061.2"/>
</g>
<!-- 4508 -->
<g id="node4" class="node">
<title>4508</title>
<polygon fill="none" stroke="black" points="831.37,-1032.63 831.37,-1047.54 803.67,-1058.08 764.51,-1058.08 736.82,-1047.54 736.82,-1032.63 764.51,-1022.08 803.67,-1022.08 831.37,-1032.63"/>
<polygon fill="none" stroke="black" points="835.37,-1029.87 835.37,-1050.29 804.41,-1062.08 763.78,-1062.08 732.82,-1050.29 732.82,-1029.87 763.78,-1018.08 804.41,-1018.08 835.37,-1029.87"/>
<text text-anchor="middle" x="784.09" y="-1035.03" font-family="Times,serif" font-size="14.00">Sun&#45;PPP</text>
</g>
<!-- 4508&#45;&gt;4507 -->
<g id="edge6" class="edge">
<title>4508&#45;&gt;4507</title>
<path fill="none" stroke="black" stroke-width="2" d="M813.6,-1058.88C826.84,-1066.41 840.12,-1072 865.72,-1080.84"/>
<polygon fill="black" stroke="black" stroke-width="2" points="873.86,-1083.61 862.94,-1084.64 871.27,-1083.25 864.23,-1080.86 864.39,-1080.38 864.55,-1079.91 871.59,-1082.31 865.84,-1076.12 873.86,-1083.61"/>
</g>
<!-- 4508&#45;&gt;9262 -->
<g id="edge7" class="edge">
<title>4508&#45;&gt;9262</title>
<path fill="none" stroke="#e09d4b" stroke-width="2" d="M761.29,-1018.61C691.33,-952.58 676.89,-936.7 661.46,-896.92"/>
<polygon fill="#e09d4b" stroke="#e09d4b" stroke-width="2" points="658.45,-888.84 666.16,-896.64 659.81,-891.07 662.41,-898.03 661.94,-898.21 661.47,-898.38 658.87,-891.42 657.73,-899.78 658.45,-888.84"/>
</g>
<!-- 4508&#45;&gt;26462 -->
<g id="edge8" class="edge">
<title>4508&#45;&gt;26462</title>
<path fill="none" stroke="black" stroke-width="2" d="M814.48,-1021.61C884.98,-979.47 911.88,-971.92 1041.15,-969.63"/>
<polygon fill="black" stroke="black" stroke-width="2" points="1049.87,-969.49 1039.94,-974.15 1047.31,-970.03 1039.88,-970.15 1039.87,-969.65 1039.86,-969.15 1047.29,-969.03 1039.79,-965.15 1049.87,-969.49"/>
</g>
<!-- 42316 -->
<g id="node22" class="node">
<title>42316</title>
<polygon fill="none" stroke="#379469" points="583.66,-1166.05 583.66,-1180.96 542.99,-1191.5 485.47,-1191.5 444.8,-1180.96 444.8,-1166.05 485.47,-1155.5 542.99,-1155.5 583.66,-1166.05"/>
<polygon fill="none" stroke="#379469" points="587.66,-1162.95 587.66,-1184.05 543.5,-1195.5 484.96,-1195.5 440.8,-1184.05 440.8,-1162.95 484.96,-1151.5 543.5,-1151.5 587.66,-1162.95"/>
<text text-anchor="middle" x="514.23" y="-1168.45" font-family="Times,serif" font-size="14.00">cavil:Sun&#45;PPP</text>
</g>
<!-- 4508&#45;&gt;42316 -->
<g id="edge9" class="edge">
<title>4508&#45;&gt;42316</title>
<path fill="none" stroke="#379469" stroke-width="2" d="M742.78,-1054.37C617.96,-1097.67 590.7,-1108.97 548.26,-1144.02"/>
<polygon fill="#379469" stroke="#379469" stroke-width="2" points="541.7,-1149.53 546.46,-1139.65 543.34,-1147.5 549.03,-1142.71 549.35,-1143.1 549.68,-1143.48 543.98,-1148.27 552.25,-1146.54 541.7,-1149.53"/>
</g>
<!-- 4508&#45;&gt;56548 -->
<g id="edge10" class="edge">
<title>4508&#45;&gt;56548</title>
<path fill="none" stroke="#379469" stroke-dasharray="5,2" d="M835.75,-1031.87C875.88,-1026.4 905.56,-1026.11 976.02,-1031.62"/>
<polygon fill="#379469" stroke="#379469" points="985.98,-1032.42 975.65,-1036.1 982.21,-1032.11 976.01,-1031.62 976.01,-1031.62 976.01,-1031.62 982.21,-1032.11 976.37,-1027.13 985.98,-1032.42"/>
</g>
<!-- 4509 -->
<g id="node5" class="node">
<title>4509</title>
<polygon fill="none" stroke="black" points="1092.97,-886.02 1092.97,-900.93 1046.13,-911.47 979.89,-911.47 933.05,-900.93 933.05,-886.02 979.89,-875.47 1046.13,-875.47 1092.97,-886.02"/>
<polygon fill="none" stroke="black" points="1096.97,-882.82 1096.97,-904.13 1046.57,-915.47 979.45,-915.47 929.05,-904.13 929.05,-882.82 979.45,-871.47 1046.57,-871.47 1096.97,-882.82"/>
<text text-anchor="middle" x="1013.01" y="-888.42" font-family="Times,serif" font-size="14.00">Sun PPP License</text>
</g>
<!-- 4509&#45;&gt;4507 -->
<g id="edge11" class="edge">
<title>4509&#45;&gt;4507</title>
<path fill="none" stroke="#dac767" stroke-width="2" d="M991.94,-915.72C941.79,-969.38 935.72,-984.7 934.35,-1066.21"/>
<polygon fill="#dac767" stroke="#dac767" stroke-width="2" points="934.24,-1074.61 929.88,-1064.55 933.77,-1072.04 933.88,-1064.6 934.38,-1064.61 934.88,-1064.62 934.77,-1072.05 938.88,-1064.67 934.24,-1074.61"/>
</g>
<!-- 4509&#45;&gt;26462 -->
<g id="edge12" class="edge">
<title>4509&#45;&gt;26462</title>
<path fill="none" stroke="#deb256" stroke-width="2" d="M1068.5,-910.75C1078.45,-916.7 1089.53,-925.36 1105.64,-939.02"/>
<polygon fill="#deb256" stroke="#deb256" stroke-width="2" points="1112.11,-944.56 1101.58,-941.48 1109.84,-943.28 1104.19,-938.44 1104.51,-938.06 1104.84,-937.68 1110.49,-942.52 1107.44,-934.64 1112.11,-944.56"/>
</g>
<!-- 4509&#45;&gt;56548 -->
<g id="edge13" class="edge">
<title>4509&#45;&gt;56548</title>
<path fill="none" stroke="#379469" stroke-width="2" d="M1029.43,-915.77C1045.82,-938.26 1056.46,-954 1095.45,-1012.83"/>
<polygon fill="#379469" stroke="#379469" stroke-width="2" points="1100.07,-1019.8 1090.79,-1013.95 1098.24,-1017.94 1094.13,-1011.74 1094.55,-1011.46 1094.96,-1011.19 1099.07,-1017.38 1098.3,-1008.98 1100.07,-1019.8"/>
</g>
<!-- 68553 -->
<g id="node26" class="node">
<title>68553</title>
<polygon fill="none" stroke="#00876c" points="1064.2,-832.31 1064.2,-847.22 1004.71,-857.77 920.57,-857.77 861.07,-847.22 861.07,-832.31 920.57,-821.77 1004.71,-821.77 1064.2,-832.31"/>
<polygon fill="none" stroke="#00876c" points="1068.2,-828.96 1068.2,-850.58 1005.06,-861.77 920.22,-861.77 857.07,-850.58 857.07,-828.96 920.22,-817.77 1005.06,-817.77 1068.2,-828.96"/>
<text text-anchor="middle" x="962.64" y="-834.72" font-family="Times,serif" font-size="14.00">spdx:Sun PPP License</text>
</g>
<!-- 4509&#45;&gt;68553 -->
<g id="edge14" class="edge">
<title>4509&#45;&gt;68553</title>
<path fill="none" stroke="#00876c" stroke-width="2" d="M993.91,-871.19C993.62,-870.85 993.33,-870.52 993.05,-870.2"/>
<polygon fill="#00876c" stroke="#00876c" stroke-width="2" points="987.53,-863.92 997.51,-868.46 989.6,-865.51 994.51,-871.1 994.13,-871.43 993.76,-871.76 988.84,-866.17 990.75,-874.4 987.53,-863.92"/>
</g>
<!-- 4510 -->
<g id="node6" class="node">
<title>4510</title>
<text text-anchor="middle" x="1093.3" y="-236.93" font-family="Times,serif" font-size="14.00">$TEXT</text>
</g>
<!-- 4510&#45;&gt;4506 -->
<g id="edge15" class="edge">
<title>4510&#45;&gt;4506</title>
<path fill="none" stroke="#dac767" d="M1087.71,-259.78C1060.15,-347.98 1057.7,-365.4 1043.6,-571.12"/>
<polygon fill="#dac767" stroke="#dac767" points="1040.13,-570.62 1042.94,-580.83 1047.11,-571.1 1040.13,-570.62"/>
</g>
<!-- 4511 -->
<g id="node7" class="node">
<title>4511</title>
<text text-anchor="middle" x="1091.43" y="-40.96" font-family="Times,serif" font-size="14.00">$TEXT</text>
</g>
<!-- 4511&#45;&gt;4510 -->
<g id="edge16" class="edge">
<title>4511&#45;&gt;4510</title>
<path fill="none" stroke="#dac767" d="M1091.07,-63.74C1090.32,-102.87 1090.51,-117.57 1092.65,-212.86"/>
<polygon fill="#dac767" stroke="#dac767" points="1089.15,-212.8 1092.87,-222.72 1096.14,-212.65 1089.15,-212.8"/>
</g>
<!-- 4512 -->
<g id="node8" class="node">
<title>4512</title>
<text text-anchor="middle" x="1520.94" y="-653.3" font-family="Times,serif" font-size="14.00">https://github.com/ppp&#45;project/ppp/blob/master/pppd/eap.c#L7&#45;L16</text>
</g>
<!-- 4512&#45;&gt;4506 -->
<g id="edge17" class="edge">
<title>4512&#45;&gt;4506</title>
<path fill="none" stroke="#dac767" d="M1487.82,-640.35C1335.92,-558.15 1301.94,-547.57 1145.04,-585.16"/>
<polygon fill="#dac767" stroke="#dac767" points="1144.4,-581.72 1135.5,-587.47 1146.04,-588.52 1144.4,-581.72"/>
</g>
<!-- 26461 -->
<g id="node14" class="node">
<title>26461</title>
<ellipse fill="none" stroke="#deb256" cx="1578.14" cy="-729.37" rx="160.34" ry="28.99"/>
<text text-anchor="middle" x="1578.14" y="-732.57" font-family="Times,serif" font-size="14.00" fill="gray">ScancodeData</text>
<text text-anchor="middle" x="1578.14" y="-716.07" font-family="Times,serif" font-size="14.00" fill="gray">b69dde940ba4bd141c32911f5288b7cb</text>
</g>
<!-- 4512&#45;&gt;26461 -->
<g id="edge18" class="edge">
<title>4512&#45;&gt;26461</title>
<path fill="none" stroke="#deb256" d="M1550.85,-676.15C1556.18,-680.24 1559.94,-684.43 1563.2,-690.03"/>
<polygon fill="#deb256" stroke="#deb256" points="1559.94,-691.33 1567.42,-698.84 1566.25,-688.31 1559.94,-691.33"/>
</g>
<!-- 5550 -->
<g id="node9" class="node">
<title>5550</title>
<text text-anchor="middle" x="1883.25" y="-470.22" font-family="Times,serif" font-size="14.00">LicenseType Permissive</text>
</g>
<!-- 5550&#45;&gt;26461 -->
<g id="edge19" class="edge">
<title>5550&#45;&gt;26461</title>
<path fill="none" stroke="#deb256" d="M1861.35,-493.24C1795.22,-547.53 1775.82,-563.7 1620.82,-693.6"/>
<polygon fill="#deb256" stroke="#deb256" points="1618.94,-690.61 1613.53,-699.71 1623.44,-695.97 1618.94,-690.61"/>
</g>
<!-- 6592 -->
<g id="node10" class="node">
<title>6592</title>
<text text-anchor="middle" x="445.38" y="-149.83" font-family="Times,serif" font-size="14.00">[&quot;allowed&quot;]</text>
</g>
<!-- 9261 -->
<g id="node12" class="node">
<title>9261</title>
<ellipse fill="none" stroke="#e09d4b" cx="435.88" cy="-506.38" rx="155.56" ry="28.99"/>
<text text-anchor="middle" x="435.88" y="-509.58" font-family="Times,serif" font-size="14.00" fill="gray">FedoraEntry</text>
<text text-anchor="middle" x="435.88" y="-493.08" font-family="Times,serif" font-size="14.00" fill="gray">9224eef966184dd985a30eccf5156f3e</text>
</g>
<!-- 6592&#45;&gt;9261 -->
<g id="edge20" class="edge">
<title>6592&#45;&gt;9261</title>
<path fill="none" stroke="#e09d4b" d="M437.83,-172.84C396.25,-272.24 395.28,-288.41 428.31,-465.94"/>
<polygon fill="#e09d4b" stroke="#e09d4b" points="424.83,-466.35 430.1,-475.53 431.71,-465.06 424.83,-466.35"/>
</g>
<!-- 6593 -->
<g id="node11" class="node">
<title>6593</title>
<text text-anchor="start" x="384.77" y="-103.83" font-family="Times,serif" font-size="14.00">Fedora: </text>
<text text-anchor="start" x="429.77" y="-103.83" font-family="Times,serif" font-weight="bold" font-size="14.00" fill="#228b22">allowed</text>
<text text-anchor="start" x="220.9" y="-89.83" font-family="Times,serif" font-size="14.00">A license is allowed if Fedora determines that the license is a free software /</text>
<text text-anchor="start" x="215.65" y="-75.83" font-family="Times,serif" font-size="14.00">open source license. At a high level, the inquiry involves determining whether</text>
<text text-anchor="start" x="214.52" y="-61.83" font-family="Times,serif" font-size="14.00">the license provides software freedom, and (equivalently) making sure that the</text>
<text text-anchor="start" x="224.65" y="-47.83" font-family="Times,serif" font-size="14.00">license does not place burdens on users&#39; exercise of its permissions that are</text>
<text text-anchor="start" x="224.27" y="-33.83" font-family="Times,serif" font-size="14.00">inconsistent with evolving community norms and traditions around what is</text>
<text text-anchor="start" x="216.02" y="-19.83" font-family="Times,serif" font-size="14.00">acceptable in a free software / open source license. See below for more on the</text>
<text text-anchor="start" x="336.02" y="-5.83" font-family="Times,serif" font-size="14.00">history of Fedora licensing policy.</text>
</g>
<!-- 6593&#45;&gt;6592 -->
<g id="edge21" class="edge">
<title>6593&#45;&gt;6592</title>
<path fill="none" stroke="#e09d4b" d="M434.87,-119.73C435.46,-121.78 436.08,-123.93 436.76,-126.22"/>
<polygon fill="#e09d4b" stroke="#e09d4b" points="433.36,-127.07 439.57,-135.65 440.06,-125.07 433.36,-127.07"/>
</g>
<!-- 9261&#45;&gt;9262 -->
<g id="edge22" class="edge">
<title>9261&#45;&gt;9262</title>
<path fill="none" stroke="#e09d4b" d="M444.46,-535.62C473.71,-633.86 486.85,-653.99 625.44,-832.77"/>
<polygon fill="#e09d4b" stroke="#e09d4b" points="622.53,-834.73 631.43,-840.49 628.07,-830.44 622.53,-834.73"/>
</g>
<!-- 26461&#45;&gt;26462 -->
<g id="edge23" class="edge">
<title>26461&#45;&gt;26462</title>
<path fill="none" stroke="#deb256" d="M1493.69,-754.37C1415.33,-780.53 1367.57,-811.62 1181.44,-939.88"/>
<polygon fill="#deb256" stroke="#deb256" points="1179.68,-936.84 1173.43,-945.4 1183.65,-942.6 1179.68,-936.84"/>
</g>
<!-- 26462&#45;&gt;4507 -->
<g id="edge24" class="edge">
<title>26462&#45;&gt;4507</title>
<path fill="none" stroke="#00876c" stroke-width="2" d="M1098.11,-989.42C1061.63,-1011.25 1009.07,-1045.61 973.3,-1070.96"/>
<polygon fill="#00876c" stroke="#00876c" stroke-width="2" points="966.57,-1075.78 972.08,-1066.3 968.36,-1073.88 974.41,-1069.55 974.7,-1069.96 974.99,-1070.36 968.94,-1074.69 977.32,-1073.62 966.57,-1075.78"/>
</g>
<!-- 26462&#45;&gt;56548 -->
<g id="edge25" class="edge">
<title>26462&#45;&gt;56548</title>
<path fill="none" stroke="#379469" stroke-dasharray="5,2" d="M1127.17,-990.88C1125.26,-995.96 1123.74,-1001.95 1122,-1010.84"/>
<polygon fill="#379469" stroke="#379469" points="1120.21,-1020.52 1117.6,-1009.87 1120.9,-1016.8 1122.03,-1010.69 1122.03,-1010.69 1122.03,-1010.69 1120.9,-1016.8 1126.45,-1011.51 1120.21,-1020.52"/>
</g>
<!-- 26463 -->
<g id="node16" class="node">
<title>26463</title>
<text text-anchor="middle" x="2104.57" y="-802.49" font-family="Times,serif" font-size="14.00">ScancodeData:</text>
<text text-anchor="middle" x="2104.57" y="-785.99" font-family="Times,serif" font-size="14.00">Added in SPDX license list 3.23</text>
<text text-anchor="middle" x="2104.57" y="-769.49" font-family="Times,serif" font-size="14.00">This was previously the license rule: other&#45;permissive_43.RULE</text>
</g>
<!-- 26463&#45;&gt;26461 -->
<g id="edge26" class="edge">
<title>26463&#45;&gt;26461</title>
<path fill="none" stroke="#deb256" d="M2041.05,-762.3C1953.8,-724.58 1907.79,-717.46 1746.13,-722.55"/>
<polygon fill="#deb256" stroke="#deb256" points="1746.2,-719.05 1736.32,-722.87 1746.43,-726.04 1746.2,-719.05"/>
</g>
<!-- 26464 -->
<g id="node17" class="node">
<title>26464</title>
<text text-anchor="middle" x="1884.77" y="-725.74" font-family="Times,serif" font-size="14.00">$TEXT</text>
</g>
<!-- 26464&#45;&gt;26461 -->
<g id="edge27" class="edge">
<title>26464&#45;&gt;26461</title>
<path fill="none" stroke="#deb256" d="M1856.18,-721.47C1805.79,-705.48 1780.64,-701.56 1713.95,-709.4"/>
<polygon fill="#deb256" stroke="#deb256" points="1713.88,-705.88 1704.39,-710.58 1714.74,-712.83 1713.88,-705.88"/>
</g>
<!-- 35432 -->
<g id="node18" class="node">
<title>35432</title>
<text text-anchor="middle" x="490.82" y="-2066.55" font-family="Times,serif" font-size="14.00">LicenseTag (ScopedLicenseTag &quot;OrtLicenseCategorization&quot; &quot;permissive&quot; NoLicenseTagText)</text>
</g>
<!-- 39875 -->
<g id="node20" class="node">
<title>39875</title>
<ellipse fill="none" stroke="#d43d51" cx="797.76" cy="-1553.51" rx="159.28" ry="28.99"/>
<text text-anchor="middle" x="797.76" y="-1556.71" font-family="Times,serif" font-size="14.00" fill="gray">OrtLicenseCategorization</text>
<text text-anchor="middle" x="797.76" y="-1540.21" font-family="Times,serif" font-size="14.00" fill="gray">4b554bc45ac9699eb473267f8ee80912</text>
</g>
<!-- 35432&#45;&gt;39875 -->
<g id="edge28" class="edge">
<title>35432&#45;&gt;39875</title>
<path fill="none" stroke="#d43d51" d="M500.09,-2053.93C572.39,-1916.09 582.73,-1898.65 773.75,-1592.04"/>
<polygon fill="#d43d51" stroke="#d43d51" points="776.63,-1594.04 778.95,-1583.7 770.69,-1590.34 776.63,-1594.04"/>
</g>
<!-- 35433 -->
<g id="node19" class="node">
<title>35433</title>
<text text-anchor="middle" x="839.97" y="-2179.16" font-family="Times,serif" font-size="14.00">LicenseTag (ScopedLicenseTag &quot;OrtLicenseCategorization&quot; &quot;include&#45;in&#45;notice&#45;file&quot; NoLicenseTagText)</text>
</g>
<!-- 35433&#45;&gt;39875 -->
<g id="edge29" class="edge">
<title>35433&#45;&gt;39875</title>
<path fill="none" stroke="#d43d51" d="M833.66,-2166.39C771.62,-1990.89 770.33,-1972.99 795.1,-1594.17"/>
<polygon fill="#d43d51" stroke="#d43d51" points="798.58,-1594.57 795.74,-1584.36 791.59,-1594.11 798.58,-1594.57"/>
</g>
<!-- 39875&#45;&gt;4507 -->
<g id="edge30" class="edge">
<title>39875&#45;&gt;4507</title>
<path fill="none" stroke="#d43d51" d="M796.95,-1524.28C793.66,-1393.33 801,-1371.96 915.82,-1140"/>
<polygon fill="#d43d51" stroke="#d43d51" points="918.86,-1141.75 920.16,-1131.23 912.59,-1138.64 918.86,-1141.75"/>
</g>
<!-- 42315 -->
<g id="node21" class="node">
<title>42315</title>
<ellipse fill="none" stroke="#379469" cx="156.33" cy="-1325.53" rx="156.62" ry="28.99"/>
<text text-anchor="middle" x="156.33" y="-1328.73" font-family="Times,serif" font-size="14.00" fill="gray">CavilLicenseChange</text>
<text text-anchor="middle" x="156.33" y="-1312.23" font-family="Times,serif" font-size="14.00" fill="gray">55f00c55e11ac9eaa58a29108065396f</text>
</g>
<!-- 42315&#45;&gt;42316 -->
<g id="edge31" class="edge">
<title>42315&#45;&gt;42316</title>
<path fill="none" stroke="#379469" d="M203.26,-1297.5C260.3,-1264.5 296.2,-1250.51 454.51,-1194.57"/>
<polygon fill="#379469" stroke="#379469" points="455.42,-1197.96 463.69,-1191.33 453.09,-1191.36 455.42,-1197.96"/>
</g>
<!-- 56547 -->
<g id="node23" class="node">
<title>56547</title>
<ellipse fill="none" stroke="#379469" cx="1207.59" cy="-1134.21" rx="158.75" ry="28.99"/>
<text text-anchor="middle" x="1207.59" y="-1137.41" font-family="Times,serif" font-size="14.00" fill="gray">MetaeffektLicense</text>
<text text-anchor="middle" x="1207.59" y="-1120.91" font-family="Times,serif" font-size="14.00" fill="gray">23bb70ded6d77c3631b91e21f049a20f</text>
</g>
<!-- 56547&#45;&gt;56548 -->
<g id="edge32" class="edge">
<title>56547&#45;&gt;56548</title>
<path fill="none" stroke="#379469" d="M1195.04,-1104.87C1187.97,-1089.73 1181.84,-1080.72 1171.55,-1072.79"/>
<polygon fill="#379469" stroke="#379469" points="1173.81,-1070.09 1163.56,-1067.41 1169.9,-1075.9 1173.81,-1070.09"/>
</g>
<!-- 68552 -->
<g id="node25" class="node">
<title>68552</title>
<ellipse fill="none" stroke="#00876c" cx="1058.07" cy="-1480.43" rx="161.93" ry="28.99"/>
<text text-anchor="middle" x="1058.07" y="-1483.63" font-family="Times,serif" font-size="14.00" fill="gray">LicenseLynx</text>
<text text-anchor="middle" x="1058.07" y="-1467.13" font-family="Times,serif" font-size="14.00" fill="gray">4cbd261876dea7b518dc5dd4598d5427</text>
</g>
<!-- 68552&#45;&gt;4507 -->
<g id="edge33" class="edge">
<title>68552&#45;&gt;4507</title>
<path fill="none" stroke="#00876c" d="M1032.68,-1451.46C951.99,-1358.43 946.47,-1336.11 935.96,-1140.99"/>
<polygon fill="#00876c" stroke="#00876c" points="939.46,-1141.05 935.43,-1131.25 932.47,-1141.43 939.46,-1141.05"/>
</g>
<!-- 68553&#45;&gt;4507 -->
<g id="edge34" class="edge">
<title>68553&#45;&gt;4507</title>
<path fill="none" stroke="#00876c" stroke-width="2" d="M949.95,-862.08C908.34,-936.02 906.34,-952.32 927.08,-1066.17"/>
<polygon fill="#00876c" stroke="#00876c" stroke-width="2" points="928.65,-1074.73 922.42,-1065.7 927.69,-1072.3 926.35,-1064.98 926.84,-1064.89 927.33,-1064.8 928.68,-1072.11 931.27,-1064.08 928.65,-1074.73"/>
</g>
</g>
</svg>
