<?xml version="1.0" encoding="UTF-8" standalone="no"?>
<!DOCTYPE svg PUBLIC "-//W3C//DTD SVG 1.1//EN"
 "http://www.w3.org/Graphics/SVG/1.1/DTD/svg11.dtd">
<!-- Generated by graphviz version 10.0.1 (0)
 -->
<!-- Pages: 1 -->
<svg width="3190pt" height="3132pt"
 viewBox="0.00 0.00 3190.00 3132.00" xmlns="http://www.w3.org/2000/svg" xmlns:xlink="http://www.w3.org/1999/xlink">
<g id="graph0" class="graph" transform="scale(1 1) rotate(0) translate(4 3128)">
<polygon fill="white" stroke="none" points="-4,4 -4,-3128 3186,-3128 3186,4 -4,4"/>
<!-- 5 -->
<g id="node1" class="node">
<title>5</title>
<text text-anchor="start" x="613.64" y="-1232.29" font-family="Times,serif" font-size="14.00">OSI: </text>
<text text-anchor="start" x="642.89" y="-1232.29" font-family="Times,serif" font-weight="bold" font-size="14.00" fill="#8b0000">Rejected</text>
</g>
<!-- 4405 -->
<g id="node2" class="node">
<title>4405</title>
<ellipse fill="none" stroke="#dac767" cx="946.69" cy="-1442.2" rx="154.5" ry="28.99"/>
<text text-anchor="middle" x="946.69" y="-1445.4" font-family="Times,serif" font-size="14.00" fill="gray">SPDXLicense</text>
<text text-anchor="middle" x="946.69" y="-1428.9" font-family="Times,serif" font-size="14.00" fill="gray">5f0a522630f2f7adf9b9035908c4791f</text>
</g>
<!-- 5&#45;&gt;4405 -->
<g id="edge1" class="edge">
<title>5&#45;&gt;4405</title>
<path fill="none" stroke="#dac767" d="M669.91,-1254.06C725.54,-1313.34 743.64,-1326.61 888.08,-1408.9"/>
<polygon fill="#dac767" stroke="#dac767" points="886.04,-1411.77 896.47,-1413.68 889.51,-1405.69 886.04,-1411.77"/>
</g>
<!-- 4406 -->
<g id="node3" class="node">
<title>4406</title>
<polygon fill="none" stroke="black" points="1467.95,-1710.25 1467.95,-1725.17 1435.71,-1735.71 1390.13,-1735.71 1357.89,-1725.17 1357.89,-1710.25 1390.13,-1699.71 1435.71,-1699.71 1467.95,-1710.25"/>
<polygon fill="none" stroke="black" points="1471.95,-1707.35 1471.95,-1728.07 1436.35,-1739.71 1389.49,-1739.71 1353.89,-1728.07 1353.89,-1707.35 1389.49,-1695.71 1436.35,-1695.71 1471.95,-1707.35"/>
<polygon fill="none" stroke="black" points="1475.95,-1704.45 1475.95,-1730.97 1436.99,-1743.71 1388.85,-1743.71 1349.89,-1730.97 1349.89,-1704.45 1388.85,-1691.71 1436.99,-1691.71 1475.95,-1704.45"/>
<text text-anchor="middle" x="1412.92" y="-1712.66" font-family="Times,serif" font-size="14.00">spdx:SWL</text>
</g>
<!-- 4405&#45;&gt;4406 -->
<g id="edge2" class="edge">
<title>4405&#45;&gt;4406</title>
<path fill="none" stroke="#dac767" d="M971.99,-1470.96C1066.77,-1577.91 1092.95,-1592.68 1354.61,-1694.96"/>
<polygon fill="#dac767" stroke="#dac767" points="1353.22,-1698.18 1363.81,-1698.56 1355.77,-1691.66 1353.22,-1698.18"/>
</g>
<!-- 9239 -->
<g id="node13" class="node">
<title>9239</title>
<polygon fill="none" stroke="#e09d4b" points="1700.35,-1455.97 1700.35,-1470.88 1662.93,-1481.42 1610,-1481.42 1572.57,-1470.88 1572.57,-1455.97 1610,-1445.42 1662.93,-1445.42 1700.35,-1455.97"/>
<polygon fill="none" stroke="#e09d4b" points="1704.35,-1452.94 1704.35,-1473.91 1663.48,-1485.42 1609.44,-1485.42 1568.57,-1473.91 1568.57,-1452.94 1609.44,-1441.42 1663.48,-1441.42 1704.35,-1452.94"/>
<text text-anchor="middle" x="1636.46" y="-1458.37" font-family="Times,serif" font-size="14.00">Fedora:SWL</text>
</g>
<!-- 4406&#45;&gt;9239 -->
<g id="edge3" class="edge">
<title>4406&#45;&gt;9239</title>
<path fill="none" stroke="#e09d4b" stroke-width="2" d="M1425.99,-1691.43C1461.2,-1621.68 1476.73,-1605.01 1602.99,-1493.06"/>
<polygon fill="#e09d4b" stroke="#e09d4b" stroke-width="2" points="1609.24,-1487.52 1604.75,-1497.52 1607.66,-1489.59 1602.09,-1494.52 1601.76,-1494.15 1601.43,-1493.77 1606.99,-1488.84 1598.78,-1490.78 1609.24,-1487.52"/>
</g>
<!-- 26583 -->
<g id="node19" class="node">
<title>26583</title>
<polygon fill="none" stroke="black" points="1681.49,-1607.67 1681.49,-1622.58 1643.41,-1633.12 1589.56,-1633.12 1551.49,-1622.58 1551.49,-1607.67 1589.56,-1597.12 1643.41,-1597.12 1681.49,-1607.67"/>
<polygon fill="none" stroke="black" points="1685.49,-1604.62 1685.49,-1625.62 1643.95,-1637.12 1589.02,-1637.12 1547.49,-1625.62 1547.49,-1604.62 1589.02,-1593.12 1643.95,-1593.12 1685.49,-1604.62"/>
<text text-anchor="middle" x="1616.49" y="-1610.07" font-family="Times,serif" font-size="14.00">scancode:swl</text>
</g>
<!-- 4406&#45;&gt;26583 -->
<g id="edge4" class="edge">
<title>4406&#45;&gt;26583</title>
<path fill="none" stroke="#deb256" stroke-width="2" d="M1461.96,-1699.46C1496.81,-1683.4 1543.04,-1660.06 1575.84,-1641.92"/>
<polygon fill="#deb256" stroke="#deb256" stroke-width="2" points="1583.43,-1637.66 1576.91,-1646.48 1581.44,-1639.35 1574.95,-1642.99 1574.71,-1642.55 1574.47,-1642.11 1580.95,-1638.48 1572.51,-1638.62 1583.43,-1637.66"/>
</g>
<!-- 57549 -->
<g id="node34" class="node">
<title>57549</title>
<polygon fill="none" stroke="#379469" points="2186.1,-2019.09 2186.1,-2034 2025.68,-2044.54 1798.82,-2044.54 1638.4,-2034 1638.4,-2019.09 1798.82,-2008.54 2025.68,-2008.54 2186.1,-2019.09"/>
<polygon fill="none" stroke="#379469" points="2190.1,-2015.34 2190.1,-2037.74 2025.82,-2048.54 1798.69,-2048.54 1634.4,-2037.74 1634.4,-2015.34 1798.69,-2004.54 2025.82,-2004.54 2190.1,-2015.34"/>
<text text-anchor="middle" x="1912.25" y="-2021.49" font-family="Times,serif" font-size="14.00">metaeffekt:Scheme Widget Library Software License Agreement</text>
</g>
<!-- 4406&#45;&gt;57549 -->
<g id="edge5" class="edge">
<title>4406&#45;&gt;57549</title>
<path fill="none" stroke="#379469" stroke-width="2" d="M1439.15,-1743.24C1629.6,-1928.56 1679.11,-1973.48 1787.28,-2001.46"/>
<polygon fill="#379469" stroke="#379469" stroke-width="2" points="1795.57,-2003.53 1784.78,-2005.47 1792.97,-2003.39 1785.75,-2001.59 1785.87,-2001.11 1785.99,-2000.62 1793.21,-2002.42 1786.96,-1996.74 1795.57,-2003.53"/>
</g>
<!-- 4407 -->
<g id="node4" class="node">
<title>4407</title>
<polygon fill="none" stroke="black" points="1839.7,-1648.66 1839.7,-1663.58 1820.12,-1674.12 1792.43,-1674.12 1772.85,-1663.58 1772.85,-1648.66 1792.43,-1638.12 1820.12,-1638.12 1839.7,-1648.66"/>
<polygon fill="none" stroke="black" points="1843.7,-1646.28 1843.7,-1665.97 1821.13,-1678.12 1791.42,-1678.12 1768.85,-1665.97 1768.85,-1646.28 1791.42,-1634.12 1821.13,-1634.12 1843.7,-1646.28"/>
<text text-anchor="middle" x="1806.27" y="-1651.07" font-family="Times,serif" font-size="14.00">SWL</text>
</g>
<!-- 4407&#45;&gt;4406 -->
<g id="edge6" class="edge">
<title>4407&#45;&gt;4406</title>
<path fill="none" stroke="black" stroke-width="2" d="M1779.48,-1671.97C1642.92,-1752.5 1616.44,-1762.02 1485.66,-1734.1"/>
<polygon fill="black" stroke="black" stroke-width="2" points="1477.19,-1732.27 1487.91,-1729.98 1479.8,-1732.32 1487.07,-1733.89 1486.96,-1734.38 1486.86,-1734.87 1479.59,-1733.3 1486.01,-1738.78 1477.19,-1732.27"/>
</g>
<!-- 4407&#45;&gt;9239 -->
<g id="edge7" class="edge">
<title>4407&#45;&gt;9239</title>
<path fill="none" stroke="#e09d4b" stroke-width="2" d="M1798.6,-1634.05C1774.95,-1567.14 1764.19,-1553.69 1675.95,-1491.18"/>
<polygon fill="#e09d4b" stroke="#e09d4b" stroke-width="2" points="1668.86,-1486.17 1679.63,-1488.27 1671.24,-1487.24 1677.32,-1491.54 1677.03,-1491.94 1676.74,-1492.35 1670.67,-1488.06 1674.43,-1495.62 1668.86,-1486.17"/>
</g>
<!-- 10304 -->
<g id="node16" class="node">
<title>10304</title>
<polygon fill="none" stroke="#00876c" points="2185.29,-1491.1 2185.29,-1506.01 2143.32,-1516.56 2083.96,-1516.56 2041.99,-1506.01 2041.99,-1491.1 2083.96,-1480.56 2143.32,-1480.56 2185.29,-1491.1"/>
<polygon fill="none" stroke="#00876c" points="2189.29,-1487.98 2189.29,-1509.13 2143.81,-1520.56 2083.47,-1520.56 2037.99,-1509.13 2037.99,-1487.98 2083.47,-1476.56 2143.81,-1476.56 2189.29,-1487.98"/>
<text text-anchor="middle" x="2113.64" y="-1493.51" font-family="Times,serif" font-size="14.00">BlueOak:SWL</text>
</g>
<!-- 4407&#45;&gt;10304 -->
<g id="edge8" class="edge">
<title>4407&#45;&gt;10304</title>
<path fill="none" stroke="#00876c" stroke-width="2" d="M1840.86,-1644.32C2001.46,-1589.45 2028.32,-1578.29 2082.35,-1528.36"/>
<polygon fill="#00876c" stroke="#00876c" stroke-width="2" points="2088.76,-1522.37 2084.53,-1532.48 2087.23,-1524.48 2081.79,-1529.56 2081.45,-1529.2 2081.11,-1528.83 2086.54,-1523.75 2078.38,-1525.91 2088.76,-1522.37"/>
</g>
<!-- 4407&#45;&gt;26583 -->
<g id="edge9" class="edge">
<title>4407&#45;&gt;26583</title>
<path fill="none" stroke="black" stroke-width="2" d="M1768.57,-1655.35C1744.77,-1653.85 1725.42,-1649.26 1677.77,-1634.49"/>
<polygon fill="black" stroke="black" stroke-width="2" points="1669.49,-1631.91 1680.38,-1630.59 1672.09,-1632.2 1679.19,-1634.41 1679.04,-1634.89 1678.89,-1635.37 1671.79,-1633.15 1677.7,-1639.18 1669.49,-1631.91"/>
</g>
<!-- 34928 -->
<g id="node26" class="node">
<title>34928</title>
<polygon fill="none" stroke="#e18745" points="1952.26,-1456.96 1952.26,-1471.87 1908.34,-1482.42 1846.23,-1482.42 1802.31,-1471.87 1802.31,-1456.96 1846.23,-1446.42 1908.34,-1446.42 1952.26,-1456.96"/>
<polygon fill="none" stroke="#e18745" points="1956.26,-1453.81 1956.26,-1475.03 1908.81,-1486.42 1845.76,-1486.42 1798.31,-1475.03 1798.31,-1453.81 1845.76,-1442.42 1908.81,-1442.42 1956.26,-1453.81"/>
<text text-anchor="middle" x="1877.28" y="-1459.37" font-family="Times,serif" font-size="14.00">fossology:SWL</text>
</g>
<!-- 4407&#45;&gt;34928 -->
<g id="edge10" class="edge">
<title>4407&#45;&gt;34928</title>
<path fill="none" stroke="#e18745" stroke-width="2" d="M1823.19,-1634.78C1874.12,-1570.17 1881.12,-1555.75 1878.97,-1497.66"/>
<polygon fill="#e18745" stroke="#e18745" stroke-width="2" points="1878.6,-1489.13 1883.53,-1498.93 1879.21,-1491.67 1879.53,-1499.1 1879.03,-1499.12 1878.53,-1499.15 1878.21,-1491.72 1874.54,-1499.32 1878.6,-1489.13"/>
</g>
<!-- 42837 -->
<g id="node31" class="node">
<title>42837</title>
<polygon fill="none" stroke="#379469" points="2179.37,-1687.62 2179.37,-1702.53 2146.81,-1713.08 2100.76,-1713.08 2068.2,-1702.53 2068.2,-1687.62 2100.76,-1677.08 2146.81,-1677.08 2179.37,-1687.62"/>
<polygon fill="none" stroke="#379469" points="2183.37,-1684.71 2183.37,-1705.44 2147.44,-1717.08 2100.13,-1717.08 2064.2,-1705.44 2064.2,-1684.71 2100.13,-1673.08 2147.44,-1673.08 2183.37,-1684.71"/>
<text text-anchor="middle" x="2123.79" y="-1690.03" font-family="Times,serif" font-size="14.00">cavil:SWL</text>
</g>
<!-- 4407&#45;&gt;42837 -->
<g id="edge11" class="edge">
<title>4407&#45;&gt;42837</title>
<path fill="none" stroke="#379469" stroke-width="2" d="M1844.17,-1662.68C1967.68,-1684.01 2010.14,-1690.93 2053.1,-1693.43"/>
<polygon fill="#379469" stroke="#379469" stroke-width="2" points="2061.65,-1693.85 2051.44,-1697.85 2059.06,-1694.23 2051.63,-1693.86 2051.66,-1693.36 2051.68,-1692.86 2059.11,-1693.23 2051.88,-1688.86 2061.65,-1693.85"/>
</g>
<!-- 4407&#45;&gt;57549 -->
<g id="edge12" class="edge">
<title>4407&#45;&gt;57549</title>
<path fill="none" stroke="#379469" stroke-dasharray="5,2" d="M1816.08,-1678.33C1903.33,-1875.96 1911.73,-1898.26 1912.26,-1993.34"/>
<polygon fill="#379469" stroke="#379469" points="1912.29,-2003.13 1907.76,-1993.14 1912.28,-1999.35 1912.26,-1993.13 1912.26,-1993.13 1912.26,-1993.13 1912.28,-1999.35 1916.76,-1993.12 1912.29,-2003.13"/>
</g>
<!-- 60292 -->
<g id="node39" class="node">
<title>60292</title>
<polygon fill="none" stroke="#b8bf62" points="2184.55,-2152.3 2184.55,-2167.22 2003.69,-2177.76 1747.91,-2177.76 1567.05,-2167.22 1567.05,-2152.3 1747.91,-2141.76 2003.69,-2141.76 2184.55,-2152.3"/>
<polygon fill="none" stroke="#b8bf62" points="2188.55,-2148.53 2188.55,-2170.99 2003.81,-2181.76 1747.8,-2181.76 1563.05,-2170.99 1563.05,-2148.53 1747.8,-2137.76 2003.81,-2137.76 2188.55,-2148.53"/>
<text text-anchor="middle" x="1875.8" y="-2154.71" font-family="Times,serif" font-size="14.00">foss&#45;license:Scheme Widget Library (SWL) Software License Agreement</text>
</g>
<!-- 4407&#45;&gt;60292 -->
<g id="edge13" class="edge">
<title>4407&#45;&gt;60292</title>
<path fill="none" stroke="#b8bf62" stroke-width="2" d="M1812.62,-1678.61C1894.34,-1968.28 1899.67,-1992.14 1880.59,-2126.75"/>
<polygon fill="#b8bf62" stroke="#b8bf62" stroke-width="2" points="1879.39,-2135.09 1876.36,-2124.55 1879.26,-2132.48 1880.32,-2125.12 1880.81,-2125.19 1881.31,-2125.26 1880.25,-2132.62 1885.27,-2125.83 1879.39,-2135.09"/>
</g>
<!-- 4408 -->
<g id="node5" class="node">
<title>4408</title>
<polygon fill="none" stroke="black" points="2137.19,-1967.02 2137.19,-1981.94 1985.54,-1992.48 1771.06,-1992.48 1619.41,-1981.94 1619.41,-1967.02 1771.06,-1956.48 1985.54,-1956.48 2137.19,-1967.02"/>
<polygon fill="none" stroke="black" points="2141.19,-1963.29 2141.19,-1985.67 1985.68,-1996.48 1770.93,-1996.48 1615.41,-1985.67 1615.41,-1963.29 1770.93,-1952.48 1985.68,-1952.48 2141.19,-1963.29"/>
<text text-anchor="middle" x="1878.3" y="-1969.43" font-family="Times,serif" font-size="14.00">Scheme Widget Library (SWL) Software License Agreement</text>
</g>
<!-- 4408&#45;&gt;4406 -->
<g id="edge14" class="edge">
<title>4408&#45;&gt;4406</title>
<path fill="none" stroke="#dac767" stroke-width="2" d="M1739,-1954.22C1651.98,-1933.57 1601.68,-1891.26 1447.98,-1749.98"/>
<polygon fill="#dac767" stroke="#dac767" stroke-width="2" points="1441.9,-1744.39 1452.3,-1747.84 1444.12,-1745.75 1449.59,-1750.79 1449.26,-1751.15 1448.92,-1751.52 1443.44,-1746.49 1446.21,-1754.47 1441.9,-1744.39"/>
</g>
<!-- 4408&#45;&gt;9239 -->
<g id="edge15" class="edge">
<title>4408&#45;&gt;9239</title>
<path fill="none" stroke="#e09d4b" stroke-dasharray="5,2" d="M1873.41,-1952.01C1840.42,-1801.27 1831.32,-1783.04 1655.86,-1495.24"/>
<polygon fill="#e09d4b" stroke="#e09d4b" points="1650.72,-1486.81 1659.77,-1493 1652.69,-1490.03 1655.93,-1495.34 1655.93,-1495.34 1655.93,-1495.34 1652.69,-1490.03 1652.08,-1497.69 1650.72,-1486.81"/>
</g>
<!-- 4408&#45;&gt;10304 -->
<g id="edge16" class="edge">
<title>4408&#45;&gt;10304</title>
<path fill="none" stroke="#00876c" stroke-width="2" d="M1902.84,-1952.12C2085.31,-1785.59 2093.87,-1768.69 2111.23,-1531.87"/>
<polygon fill="#00876c" stroke="#00876c" stroke-width="2" points="2111.86,-1523.22 2115.62,-1533.52 2112.17,-1525.82 2111.63,-1533.23 2111.13,-1533.2 2110.63,-1533.16 2111.17,-1525.74 2106.64,-1532.87 2111.86,-1523.22"/>
</g>
<!-- 4408&#45;&gt;26583 -->
<g id="edge17" class="edge">
<title>4408&#45;&gt;26583</title>
<path fill="none" stroke="#deb256" stroke-width="2" d="M1861.22,-1952.24C1798.99,-1871.13 1784.69,-1851.33 1638.75,-1646.39"/>
<polygon fill="#deb256" stroke="#deb256" stroke-width="2" points="1633.79,-1639.43 1643.26,-1644.96 1635.69,-1641.23 1640,-1647.28 1639.59,-1647.57 1639.19,-1647.86 1634.87,-1641.81 1635.93,-1650.18 1633.79,-1639.43"/>
</g>
<!-- 4408&#45;&gt;34928 -->
<g id="edge18" class="edge">
<title>4408&#45;&gt;34928</title>
<path fill="none" stroke="#e18745" stroke-width="2" d="M1887.95,-1952.1C1964.02,-1775.24 1963.96,-1758.22 1886.96,-1497.18"/>
<polygon fill="#e18745" stroke="#e18745" stroke-width="2" points="1884.53,-1488.92 1891.67,-1497.24 1885.73,-1491.24 1887.84,-1498.37 1887.36,-1498.51 1886.88,-1498.65 1884.77,-1491.52 1883.04,-1499.78 1884.53,-1488.92"/>
</g>
<!-- 4408&#45;&gt;57549 -->
<g id="edge19" class="edge">
<title>4408&#45;&gt;57549</title>
<path fill="none" stroke="#379469" stroke-dasharray="5,2" d="M1893.02,-1996.67C1893.08,-1996.75 1893.14,-1996.84 1893.19,-1996.93"/>
<polygon fill="#379469" stroke="#379469" points="1897.23,-2003.04 1887.97,-1997.18 1895.15,-1999.89 1891.72,-1994.7 1891.72,-1994.7 1891.72,-1994.7 1895.15,-1999.89 1895.48,-1992.22 1897.23,-2003.04"/>
</g>
<!-- 4408&#45;&gt;60292 -->
<g id="edge20" class="edge">
<title>4408&#45;&gt;60292</title>
<path fill="none" stroke="#b8bf62" stroke-width="2" d="M1881.33,-1996.8C1891.99,-2075.62 1893.8,-2096.12 1885.83,-2126.88"/>
<polygon fill="#b8bf62" stroke="#b8bf62" stroke-width="2" points="1883.55,-2134.97 1881.93,-2124.13 1883.76,-2132.37 1885.78,-2125.21 1886.26,-2125.34 1886.74,-2125.48 1884.73,-2132.64 1890.59,-2126.56 1883.55,-2134.97"/>
</g>
<!-- 68510 -->
<g id="node44" class="node">
<title>68510</title>
<polygon fill="none" stroke="#00876c" points="1558.75,-1766.29 1558.75,-1781.21 1394.44,-1791.75 1162.07,-1791.75 997.76,-1781.21 997.76,-1766.29 1162.07,-1755.75 1394.44,-1755.75 1558.75,-1766.29"/>
<polygon fill="none" stroke="#00876c" points="1562.75,-1762.54 1562.75,-1784.96 1394.57,-1795.75 1161.94,-1795.75 993.76,-1784.96 993.76,-1762.54 1161.94,-1751.75 1394.57,-1751.75 1562.75,-1762.54"/>
<text text-anchor="middle" x="1278.25" y="-1768.7" font-family="Times,serif" font-size="14.00">spdx:Scheme Widget Library (SWL) Software License Agreement</text>
</g>
<!-- 4408&#45;&gt;68510 -->
<g id="edge21" class="edge">
<title>4408&#45;&gt;68510</title>
<path fill="none" stroke="#00876c" stroke-width="2" d="M1614.95,-1979.47C1530.25,-1963.53 1462.86,-1915.44 1316.14,-1802.86"/>
<polygon fill="#00876c" stroke="#00876c" stroke-width="2" points="1309.2,-1797.54 1319.88,-1800.06 1311.54,-1798.71 1317.44,-1803.24 1317.14,-1803.63 1316.83,-1804.03 1310.93,-1799.5 1314.4,-1807.2 1309.2,-1797.54"/>
</g>
<!-- 4409 -->
<g id="node6" class="node">
<title>4409</title>
<text text-anchor="middle" x="529.08" y="-1381.76" font-family="Times,serif" font-size="14.00">$TEXT</text>
</g>
<!-- 4409&#45;&gt;4405 -->
<g id="edge22" class="edge">
<title>4409&#45;&gt;4405</title>
<path fill="none" stroke="#dac767" d="M557.41,-1389.82C636.79,-1398.29 666.63,-1402 812.14,-1422.84"/>
<polygon fill="#dac767" stroke="#dac767" points="811.39,-1426.27 821.79,-1424.23 812.39,-1419.34 811.39,-1426.27"/>
</g>
<!-- 4410 -->
<g id="node7" class="node">
<title>4410</title>
<text text-anchor="middle" x="310.9" y="-1340.82" font-family="Times,serif" font-size="14.00">$TEXT</text>
</g>
<!-- 4410&#45;&gt;4409 -->
<g id="edge23" class="edge">
<title>4410&#45;&gt;4409</title>
<path fill="none" stroke="#dac767" d="M339.31,-1351.58C375.77,-1358.86 396.7,-1362.74 489.16,-1379.56"/>
<polygon fill="#dac767" stroke="#dac767" points="488.54,-1383 499,-1381.34 489.79,-1376.11 488.54,-1383"/>
</g>
<!-- 4411 -->
<g id="node8" class="node">
<title>4411</title>
<text text-anchor="middle" x="1273.12" y="-1104.99" font-family="Times,serif" font-size="14.00">https://fedoraproject.org/wiki/Licensing/SWL</text>
</g>
<!-- 4411&#45;&gt;4405 -->
<g id="edge24" class="edge">
<title>4411&#45;&gt;4405</title>
<path fill="none" stroke="#dac767" d="M1236.29,-1128.01C1044.12,-1222.04 1027,-1237.95 962.28,-1402.31"/>
<polygon fill="#dac767" stroke="#dac767" points="959.1,-1400.83 958.7,-1411.42 965.61,-1403.39 959.1,-1400.83"/>
</g>
<!-- 9238 -->
<g id="node12" class="node">
<title>9238</title>
<ellipse fill="none" stroke="#e09d4b" cx="1645.27" cy="-938.61" rx="157.15" ry="28.99"/>
<text text-anchor="middle" x="1645.27" y="-941.81" font-family="Times,serif" font-size="14.00" fill="gray">FedoraEntry</text>
<text text-anchor="middle" x="1645.27" y="-925.31" font-family="Times,serif" font-size="14.00" fill="gray">10f1db11ad7c22ac8fe175a3a0792105</text>
</g>
<!-- 4411&#45;&gt;9238 -->
<g id="edge25" class="edge">
<title>4411&#45;&gt;9238</title>
<path fill="none" stroke="#e09d4b" d="M1290.99,-1092.32C1384.43,-999.75 1422.15,-965.15 1486.13,-950.77"/>
<polygon fill="#e09d4b" stroke="#e09d4b" points="1486.49,-954.27 1495.59,-948.85 1485.09,-947.41 1486.49,-954.27"/>
</g>
<!-- 26582 -->
<g id="node18" class="node">
<title>26582</title>
<ellipse fill="none" stroke="#deb256" cx="1605.11" cy="-1029.58" rx="161.4" ry="28.99"/>
<text text-anchor="middle" x="1605.11" y="-1032.78" font-family="Times,serif" font-size="14.00" fill="gray">ScancodeData</text>
<text text-anchor="middle" x="1605.11" y="-1016.28" font-family="Times,serif" font-size="14.00" fill="gray">61a31245541a680564b7534f250d5055</text>
</g>
<!-- 4411&#45;&gt;26582 -->
<g id="edge26" class="edge">
<title>4411&#45;&gt;26582</title>
<path fill="none" stroke="#deb256" d="M1297.7,-1092.29C1367.88,-1041.83 1401.13,-1020.87 1450.08,-1016.67"/>
<polygon fill="#deb256" stroke="#deb256" points="1450.2,-1020.17 1459.97,-1016.09 1449.78,-1013.18 1450.2,-1020.17"/>
</g>
<!-- 34927 -->
<g id="node25" class="node">
<title>34927</title>
<ellipse fill="none" stroke="#e18745" cx="1720.29" cy="-1101.76" rx="156.62" ry="28.99"/>
<text text-anchor="middle" x="1720.29" y="-1104.96" font-family="Times,serif" font-size="14.00" fill="gray">Fossology</text>
<text text-anchor="middle" x="1720.29" y="-1088.46" font-family="Times,serif" font-size="14.00" fill="gray">d5553ced6cb1a996e1a148fe7daea6bc</text>
</g>
<!-- 4411&#45;&gt;34927 -->
<g id="edge27" class="edge">
<title>4411&#45;&gt;34927</title>
<path fill="none" stroke="#e18745" d="M1313.57,-1092.05C1455.52,-1029.42 1487.77,-1024.26 1634.12,-1072.41"/>
<polygon fill="#e18745" stroke="#e18745" points="1632.83,-1075.67 1643.42,-1075.5 1635.03,-1069.03 1632.83,-1075.67"/>
</g>
<!-- 5550 -->
<g id="node9" class="node">
<title>5550</title>
<text text-anchor="middle" x="2065.96" y="-966.13" font-family="Times,serif" font-size="14.00">LicenseType Permissive</text>
</g>
<!-- 10303 -->
<g id="node15" class="node">
<title>10303</title>
<ellipse fill="none" stroke="#00876c" cx="2439.57" cy="-1131.18" rx="153.44" ry="28.99"/>
<text text-anchor="middle" x="2439.57" y="-1134.38" font-family="Times,serif" font-size="14.00" fill="gray">BlueOakCouncil</text>
<text text-anchor="middle" x="2439.57" y="-1117.88" font-family="Times,serif" font-size="14.00" fill="gray">95bdffcdeb7f32a8026f1184ba03f7be</text>
</g>
<!-- 5550&#45;&gt;10303 -->
<g id="edge28" class="edge">
<title>5550&#45;&gt;10303</title>
<path fill="none" stroke="#00876c" d="M2140.43,-980.33C2297.36,-1000.38 2325.39,-1012.64 2404.28,-1094.1"/>
<polygon fill="#00876c" stroke="#00876c" points="2401.58,-1096.34 2411.03,-1101.12 2406.62,-1091.48 2401.58,-1096.34"/>
</g>
<!-- 5550&#45;&gt;26582 -->
<g id="edge29" class="edge">
<title>5550&#45;&gt;26582</title>
<path fill="none" stroke="#deb256" d="M2002.97,-953.29C1884.25,-921.13 1848.06,-926.97 1679.12,-998.08"/>
<polygon fill="#deb256" stroke="#deb256" points="1677.85,-994.82 1669.99,-1001.93 1680.57,-1001.27 1677.85,-994.82"/>
</g>
<!-- 6592 -->
<g id="node10" class="node">
<title>6592</title>
<text text-anchor="middle" x="1759.26" y="-494.18" font-family="Times,serif" font-size="14.00">[&quot;allowed&quot;]</text>
</g>
<!-- 6592&#45;&gt;9238 -->
<g id="edge30" class="edge">
<title>6592&#45;&gt;9238</title>
<path fill="none" stroke="#e09d4b" d="M1753.08,-517.01C1715.86,-624.24 1711.23,-642.16 1654.26,-898.16"/>
<polygon fill="#e09d4b" stroke="#e09d4b" points="1650.86,-897.35 1652.11,-907.87 1657.69,-898.87 1650.86,-897.35"/>
</g>
<!-- 6593 -->
<g id="node11" class="node">
<title>6593</title>
<text text-anchor="start" x="1777.95" y="-103.28" font-family="Times,serif" font-size="14.00">Fedora: </text>
<text text-anchor="start" x="1822.95" y="-103.28" font-family="Times,serif" font-weight="bold" font-size="14.00" fill="#228b22">allowed</text>
<text text-anchor="start" x="1614.07" y="-89.28" font-family="Times,serif" font-size="14.00">A license is allowed if Fedora determines that the license is a free software /</text>
<text text-anchor="start" x="1608.82" y="-75.28" font-family="Times,serif" font-size="14.00">open source license. At a high level, the inquiry involves determining whether</text>
<text text-anchor="start" x="1607.7" y="-61.28" font-family="Times,serif" font-size="14.00">the license provides software freedom, and (equivalently) making sure that the</text>
<text text-anchor="start" x="1617.82" y="-47.28" font-family="Times,serif" font-size="14.00">license does not place burdens on users&#39; exercise of its permissions that are</text>
<text text-anchor="start" x="1617.45" y="-33.28" font-family="Times,serif" font-size="14.00">inconsistent with evolving community norms and traditions around what is</text>
<text text-anchor="start" x="1609.2" y="-19.28" font-family="Times,serif" font-size="14.00">acceptable in a free software / open source license. See below for more on the</text>
<text text-anchor="start" x="1729.2" y="-5.28" font-family="Times,serif" font-size="14.00">history of Fedora licensing policy.</text>
</g>
<!-- 6593&#45;&gt;6592 -->
<g id="edge31" class="edge">
<title>6593&#45;&gt;6592</title>
<path fill="none" stroke="#e09d4b" d="M1814.42,-119.36C1803.64,-197.89 1797.16,-242.1 1763.57,-470.04"/>
<polygon fill="#e09d4b" stroke="#e09d4b" points="1760.11,-469.49 1762.11,-479.89 1767.03,-470.51 1760.11,-469.49"/>
</g>
<!-- 9238&#45;&gt;9239 -->
<g id="edge32" class="edge">
<title>9238&#45;&gt;9239</title>
<path fill="none" stroke="#e09d4b" d="M1647.09,-967.82C1654.88,-1094.22 1654.07,-1119.38 1638.16,-1430.13"/>
<polygon fill="#e09d4b" stroke="#e09d4b" points="1634.69,-1429.63 1637.67,-1439.8 1641.68,-1429.99 1634.69,-1429.63"/>
</g>
<!-- 10004 -->
<g id="node14" class="node">
<title>10004</title>
<text text-anchor="start" x="2897.06" y="-986.64" font-family="Times,serif" font-size="14.00">BlueOakCouncil: </text>
<text text-anchor="start" x="2995.31" y="-986.64" font-family="Times,serif" font-weight="bold" font-size="14.00" fill="#000000">Bronze</text>
<text text-anchor="start" x="2759.81" y="-972.64" font-family="Times,serif" font-size="14.00">These licenses lack important but nonessential elements of permissive open</text>
<text text-anchor="start" x="2761.68" y="-958.64" font-family="Times,serif" font-size="14.00">software licenses or impose additional requirements or restrictions, such as</text>
<text text-anchor="start" x="2802.56" y="-944.64" font-family="Times,serif" font-size="14.00">BSD&#45;style prohibitions against endorsement and promotion.</text>
</g>
<!-- 10004&#45;&gt;10303 -->
<g id="edge33" class="edge">
<title>10004&#45;&gt;10303</title>
<path fill="none" stroke="#00876c" d="M2825.74,-1002.93C2763.21,-1019.73 2691.25,-1044.02 2524.41,-1101.78"/>
<polygon fill="#00876c" stroke="#00876c" points="2523.54,-1098.38 2515.24,-1104.95 2525.83,-1104.99 2523.54,-1098.38"/>
</g>
<!-- 10303&#45;&gt;10304 -->
<g id="edge34" class="edge">
<title>10303&#45;&gt;10304</title>
<path fill="none" stroke="#00876c" d="M2425.8,-1160.42C2370.75,-1276.35 2353.1,-1294.89 2148.46,-1468.96"/>
<polygon fill="#00876c" stroke="#00876c" points="2146.35,-1466.16 2141,-1475.3 2150.88,-1471.49 2146.35,-1466.16"/>
</g>
<!-- 10305 -->
<g id="node17" class="node">
<title>10305</title>
<text text-anchor="middle" x="2766.17" y="-861.55" font-family="Times,serif" font-size="14.00">https://spdx.org/licenses/SWL.html</text>
</g>
<!-- 10305&#45;&gt;10303 -->
<g id="edge35" class="edge">
<title>10305&#45;&gt;10303</title>
<path fill="none" stroke="#00876c" d="M2748.9,-884.15C2680.97,-953 2662.85,-967.74 2487.58,-1096.06"/>
<polygon fill="#00876c" stroke="#00876c" points="2485.52,-1093.23 2479.51,-1101.96 2489.65,-1098.88 2485.52,-1093.23"/>
</g>
<!-- 26582&#45;&gt;26583 -->
<g id="edge36" class="edge">
<title>26582&#45;&gt;26583</title>
<path fill="none" stroke="#deb256" d="M1607.65,-1058.83C1620.05,-1202.57 1620.21,-1228.14 1616.81,-1581.32"/>
<polygon fill="#deb256" stroke="#deb256" points="1613.31,-1581.13 1616.72,-1591.16 1620.31,-1581.19 1613.31,-1581.13"/>
</g>
<!-- 26583&#45;&gt;4406 -->
<g id="edge37" class="edge">
<title>26583&#45;&gt;4406</title>
<path fill="none" stroke="#00876c" stroke-width="2" d="M1570.01,-1632.19C1535.87,-1647.82 1489.82,-1671 1456.4,-1689.35"/>
<polygon fill="#00876c" stroke="#00876c" stroke-width="2" points="1449.02,-1693.45 1455.57,-1684.66 1451.02,-1691.77 1457.52,-1688.16 1457.76,-1688.59 1458,-1689.03 1451.5,-1692.65 1459.95,-1692.53 1449.02,-1693.45"/>
</g>
<!-- 26583&#45;&gt;57549 -->
<g id="edge38" class="edge">
<title>26583&#45;&gt;57549</title>
<path fill="none" stroke="#379469" stroke-dasharray="5,2" d="M1632.22,-1637.46C1802.62,-1879.28 1820.99,-1905.17 1888.64,-1995.16"/>
<polygon fill="#379469" stroke="#379469" points="1894.61,-2003.1 1885,-1997.82 1892.34,-2000.08 1888.6,-1995.11 1888.6,-1995.11 1888.6,-1995.11 1892.34,-2000.08 1892.2,-1992.41 1894.61,-2003.1"/>
</g>
<!-- 26583&#45;&gt;60292 -->
<g id="edge39" class="edge">
<title>26583&#45;&gt;60292</title>
<path fill="none" stroke="#b8bf62" stroke-width="2" d="M1627.17,-1637.56C1785.78,-1970.55 1798.52,-1997.31 1860.41,-2127.4"/>
<polygon fill="#b8bf62" stroke="#b8bf62" stroke-width="2" points="1864.1,-2135.16 1855.74,-2128.07 1862.55,-2133.06 1859.35,-2126.35 1859.81,-2126.13 1860.26,-2125.92 1863.45,-2132.63 1863.87,-2124.2 1864.1,-2135.16"/>
</g>
<!-- 26584 -->
<g id="node20" class="node">
<title>26584</title>
<polygon fill="none" stroke="black" points="1549.06,-2054.12 1549.06,-2069.04 1424.99,-2079.58 1249.53,-2079.58 1125.46,-2069.04 1125.46,-2054.12 1249.53,-2043.58 1424.99,-2043.58 1549.06,-2054.12"/>
<polygon fill="none" stroke="black" points="1553.06,-2050.45 1553.06,-2072.71 1425.16,-2083.58 1249.36,-2083.58 1121.46,-2072.71 1121.46,-2050.45 1249.36,-2039.58 1425.16,-2039.58 1553.06,-2050.45"/>
<text text-anchor="middle" x="1337.26" y="-2056.53" font-family="Times,serif" font-size="14.00">Scheme Widget Library (SWL) Software License</text>
</g>
<!-- 26584&#45;&gt;26583 -->
<g id="edge40" class="edge">
<title>26584&#45;&gt;26583</title>
<path fill="none" stroke="#deb256" stroke-width="2" d="M1354.8,-2039.34C1434.33,-1938.3 1447.04,-1917.16 1598.5,-1647.18"/>
<polygon fill="#deb256" stroke="#deb256" stroke-width="2" points="1602.75,-1639.6 1601.79,-1650.52 1601.94,-1642.08 1598.3,-1648.57 1597.86,-1648.32 1597.43,-1648.08 1601.06,-1641.59 1593.94,-1646.12 1602.75,-1639.6"/>
</g>
<!-- 26584&#45;&gt;60292 -->
<g id="edge41" class="edge">
<title>26584&#45;&gt;60292</title>
<path fill="none" stroke="#b8bf62" stroke-width="2" d="M1375.63,-2083.89C1569.39,-2196.25 1611.66,-2213.9 1762.99,-2184.34"/>
<polygon fill="#b8bf62" stroke="#b8bf62" stroke-width="2" points="1771.21,-2182.7 1762.28,-2189.07 1768.79,-2183.69 1761.5,-2185.14 1761.4,-2184.65 1761.3,-2184.16 1768.6,-2182.71 1760.52,-2180.24 1771.21,-2182.7"/>
</g>
<!-- 68509 -->
<g id="node43" class="node">
<title>68509</title>
<polygon fill="none" stroke="#00876c" points="1550.93,-2106.16 1550.93,-2121.07 1403.81,-2131.62 1195.77,-2131.62 1048.65,-2121.07 1048.65,-2106.16 1195.77,-2095.62 1403.81,-2095.62 1550.93,-2106.16"/>
<polygon fill="none" stroke="#00876c" points="1554.93,-2102.44 1554.93,-2124.8 1403.96,-2135.62 1195.62,-2135.62 1044.65,-2124.8 1044.65,-2102.44 1195.62,-2091.62 1403.96,-2091.62 1554.93,-2102.44"/>
<text text-anchor="middle" x="1299.79" y="-2108.57" font-family="Times,serif" font-size="14.00">scancode:Scheme Widget Library (SWL) Software License</text>
</g>
<!-- 26584&#45;&gt;68509 -->
<g id="edge42" class="edge">
<title>26584&#45;&gt;68509</title>
<path fill="none" stroke="#00876c" stroke-width="2" d="M1322.48,-2083.94C1322.42,-2084.03 1322.36,-2084.11 1322.3,-2084.2"/>
<polygon fill="#00876c" stroke="#00876c" stroke-width="2" points="1318.97,-2089.12 1320.85,-2078.31 1320,-2086.72 1324.17,-2080.56 1324.58,-2080.84 1324.99,-2081.12 1320.83,-2087.28 1328.31,-2083.36 1318.97,-2089.12"/>
</g>
<!-- 26585 -->
<g id="node21" class="node">
<title>26585</title>
<text text-anchor="middle" x="1381.55" y="-550.13" font-family="Times,serif" font-size="14.00">http://www.scheme.com/download/swl&#45;lic.html</text>
</g>
<!-- 26585&#45;&gt;26582 -->
<g id="edge43" class="edge">
<title>26585&#45;&gt;26582</title>
<path fill="none" stroke="#deb256" d="M1394.79,-573.08C1476.76,-684.14 1485.37,-702.84 1590.49,-989.67"/>
<polygon fill="#deb256" stroke="#deb256" points="1587.19,-990.82 1593.92,-999.01 1593.76,-988.41 1587.19,-990.82"/>
</g>
<!-- 26586 -->
<g id="node22" class="node">
<title>26586</title>
<text text-anchor="middle" x="1152.73" y="-670.89" font-family="Times,serif" font-size="14.00">ScancodeData:</text>
<text text-anchor="middle" x="1152.73" y="-654.39" font-family="Times,serif" font-size="14.00">Per Fedora, this permissive license is derived from MIT, however, it has</text>
<text text-anchor="middle" x="1152.73" y="-637.89" font-family="Times,serif" font-size="14.00">significant rewording and merits being considered as an independent</text>
<text text-anchor="middle" x="1152.73" y="-621.39" font-family="Times,serif" font-size="14.00">license. It is Free and GPL&#45;Compatible. A copy of the license text was</text>
<text text-anchor="middle" x="1152.73" y="-604.89" font-family="Times,serif" font-size="14.00">taken from http://www.scheme.com/download/swl&#45;lic.html on November 27,</text>
<text text-anchor="middle" x="1152.73" y="-588.39" font-family="Times,serif" font-size="14.00">2012.</text>
</g>
<!-- 26586&#45;&gt;26582 -->
<g id="edge44" class="edge">
<title>26586&#45;&gt;26582</title>
<path fill="none" stroke="#deb256" d="M1270,-688.02C1357.07,-734.35 1405.89,-789.85 1573.65,-991.7"/>
<polygon fill="#deb256" stroke="#deb256" points="1570.9,-993.87 1579.99,-999.32 1576.29,-989.39 1570.9,-993.87"/>
</g>
<!-- 26587 -->
<g id="node23" class="node">
<title>26587</title>
<text text-anchor="middle" x="1635.06" y="-587.77" font-family="Times,serif" font-size="14.00">https://puredata.info/about/pdlicense</text>
</g>
<!-- 26587&#45;&gt;26582 -->
<g id="edge45" class="edge">
<title>26587&#45;&gt;26582</title>
<path fill="none" stroke="#deb256" d="M1633.47,-610.76C1623.93,-718.86 1622.7,-736.75 1607.56,-988.87"/>
<polygon fill="#deb256" stroke="#deb256" points="1604.07,-988.57 1606.96,-998.76 1611.06,-988.99 1604.07,-988.57"/>
</g>
<!-- 26588 -->
<g id="node24" class="node">
<title>26588</title>
<text text-anchor="middle" x="1801.84" y="-793.63" font-family="Times,serif" font-size="14.00">$TEXT</text>
</g>
<!-- 26588&#45;&gt;26582 -->
<g id="edge46" class="edge">
<title>26588&#45;&gt;26582</title>
<path fill="none" stroke="#deb256" d="M1773.81,-816.6C1717.85,-853.21 1703.36,-871.74 1629.05,-991.05"/>
<polygon fill="#deb256" stroke="#deb256" points="1626.23,-988.96 1623.92,-999.3 1632.17,-992.65 1626.23,-988.96"/>
</g>
<!-- 26588&#45;&gt;34927 -->
<g id="edge47" class="edge">
<title>26588&#45;&gt;34927</title>
<path fill="none" stroke="#e18745" d="M1797.11,-816.64C1779.01,-885.41 1774.46,-902.32 1731.19,-1061.63"/>
<polygon fill="#e18745" stroke="#e18745" points="1727.92,-1060.3 1728.68,-1070.87 1734.68,-1062.14 1727.92,-1060.3"/>
</g>
<!-- 34927&#45;&gt;34928 -->
<g id="edge48" class="edge">
<title>34927&#45;&gt;34928</title>
<path fill="none" stroke="#e18745" d="M1750.94,-1130.67C1841.2,-1216.81 1848.26,-1239.15 1872.95,-1430.61"/>
<polygon fill="#e18745" stroke="#e18745" points="1869.47,-1430.98 1874.22,-1440.45 1876.41,-1430.08 1869.47,-1430.98"/>
</g>
<!-- 35432 -->
<g id="node27" class="node">
<title>35432</title>
<text text-anchor="middle" x="445.79" y="-2298.72" font-family="Times,serif" font-size="14.00">LicenseTag (ScopedLicenseTag &quot;OrtLicenseCategorization&quot; &quot;permissive&quot; NoLicenseTagText)</text>
</g>
<!-- 39862 -->
<g id="node29" class="node">
<title>39862</title>
<ellipse fill="none" stroke="#d43d51" cx="887.19" cy="-1907" rx="158.75" ry="28.99"/>
<text text-anchor="middle" x="887.19" y="-1910.2" font-family="Times,serif" font-size="14.00" fill="gray">OrtLicenseCategorization</text>
<text text-anchor="middle" x="887.19" y="-1893.7" font-family="Times,serif" font-size="14.00" fill="gray">162fb258262af983d9d9e4bed15132da</text>
</g>
<!-- 35432&#45;&gt;39862 -->
<g id="edge49" class="edge">
<title>35432&#45;&gt;39862</title>
<path fill="none" stroke="#d43d51" d="M461.06,-2285.94C559.58,-2171.1 577.04,-2155.32 842.78,-1942.55"/>
<polygon fill="#d43d51" stroke="#d43d51" points="844.72,-1945.48 850.34,-1936.5 840.35,-1940.02 844.72,-1945.48"/>
</g>
<!-- 35433 -->
<g id="node28" class="node">
<title>35433</title>
<text text-anchor="middle" x="293.78" y="-2082.88" font-family="Times,serif" font-size="14.00">LicenseTag (ScopedLicenseTag &quot;OrtLicenseCategorization&quot; &quot;include&#45;in&#45;notice&#45;file&quot; NoLicenseTagText)</text>
</g>
<!-- 35433&#45;&gt;39862 -->
<g id="edge50" class="edge">
<title>35433&#45;&gt;39862</title>
<path fill="none" stroke="#d43d51" d="M372.89,-2070C477.65,-2045.53 534.36,-2027.22 800.45,-1936.58"/>
<polygon fill="#d43d51" stroke="#d43d51" points="801.46,-1939.93 809.79,-1933.39 799.2,-1933.3 801.46,-1939.93"/>
</g>
<!-- 39862&#45;&gt;4406 -->
<g id="edge51" class="edge">
<title>39862&#45;&gt;4406</title>
<path fill="none" stroke="#d43d51" d="M982.47,-1883.5C1065.86,-1861.17 1127.19,-1836.54 1356.51,-1741.18"/>
<polygon fill="#d43d51" stroke="#d43d51" points="1357.56,-1744.53 1365.45,-1737.46 1354.87,-1738.07 1357.56,-1744.53"/>
</g>
<!-- 42836 -->
<g id="node30" class="node">
<title>42836</title>
<ellipse fill="none" stroke="#379469" cx="2516.5" cy="-1721.39" rx="157.68" ry="28.99"/>
<text text-anchor="middle" x="2516.5" y="-1724.59" font-family="Times,serif" font-size="14.00" fill="gray">CavilLicenseChange</text>
<text text-anchor="middle" x="2516.5" y="-1708.09" font-family="Times,serif" font-size="14.00" fill="gray">48180260b18711836f24a36cff665e49</text>
</g>
<!-- 42836&#45;&gt;42837 -->
<g id="edge52" class="edge">
<title>42836&#45;&gt;42837</title>
<path fill="none" stroke="#379469" d="M2359.26,-1718.47C2321.74,-1715.53 2272.26,-1710.56 2194.78,-1702.5"/>
<polygon fill="#379469" stroke="#379469" points="2195.48,-1699.05 2185.17,-1701.49 2194.75,-1706.01 2195.48,-1699.05"/>
</g>
<!-- 43136 -->
<g id="node32" class="node">
<title>43136</title>
<text text-anchor="start" x="2614.2" y="-3108.04" font-family="Times,serif" font-size="14.00">CoDEStatus: </text>
<text text-anchor="start" x="2688.45" y="-3108.04" font-family="Times,serif" font-weight="bold" font-size="14.00" fill="#228b22">Approved</text>
<text text-anchor="start" x="2466.82" y="-3094.04" font-family="Times,serif" font-size="14.00">Eine Lizenz ist freigegeben, wenn sie nach fachlicher und juristischer Prüfung</text>
<text text-anchor="start" x="2448.82" y="-3080.04" font-family="Times,serif" font-size="14.00">seitens Open CoDE sowohl der Open Source Definition (gemäß Definition der Open</text>
<text text-anchor="start" x="2490.82" y="-3066.04" font-family="Times,serif" font-size="14.00">Source Initiative [extern]) entspricht und darüber hinaus keine für die</text>
<text text-anchor="start" x="2493.82" y="-3052.04" font-family="Times,serif" font-size="14.00">Öffentliche Verwaltung erkennbaren Schwierigkeiten birgt. Außer in</text>
<text text-anchor="start" x="2478.82" y="-3038.04" font-family="Times,serif" font-size="14.00">Ausnahmefällen ist nicht zu erwarten, dass einmal freigegebene Lizenzen</text>
<text text-anchor="start" x="2618.7" y="-3024.04" font-family="Times,serif" font-size="14.00">deklassifiziert werden.</text>
</g>
<!-- 57548 -->
<g id="node33" class="node">
<title>57548</title>
<ellipse fill="none" stroke="#379469" cx="2334.13" cy="-2604" rx="160.87" ry="28.99"/>
<text text-anchor="middle" x="2334.13" y="-2607.2" font-family="Times,serif" font-size="14.00" fill="gray">MetaeffektLicense</text>
<text text-anchor="middle" x="2334.13" y="-2590.7" font-family="Times,serif" font-size="14.00" fill="gray">db15683350da8bc9a73bcb8cb178b0a6</text>
</g>
<!-- 43136&#45;&gt;57548 -->
<g id="edge53" class="edge">
<title>43136&#45;&gt;57548</title>
<path fill="none" stroke="#379469" d="M2640.38,-3018.61C2573.38,-2929.79 2543.33,-2888.97 2362.31,-2642.38"/>
<polygon fill="#379469" stroke="#379469" points="2365.16,-2640.35 2356.42,-2634.36 2359.52,-2644.5 2365.16,-2640.35"/>
</g>
<!-- 57548&#45;&gt;57549 -->
<g id="edge54" class="edge">
<title>57548&#45;&gt;57549</title>
<path fill="none" stroke="#379469" d="M2312.46,-2574.98C2207.74,-2434.74 2189.25,-2409.31 1935.14,-2058.17"/>
<polygon fill="#379469" stroke="#379469" points="1938.1,-2056.3 1929.41,-2050.25 1932.43,-2060.4 1938.1,-2056.3"/>
</g>
<!-- 57550 -->
<g id="node35" class="node">
<title>57550</title>
<polygon fill="none" stroke="black" points="2746.09,-2303.17 2746.09,-2318.08 2612.61,-2328.62 2423.84,-2328.62 2290.35,-2318.08 2290.35,-2303.17 2423.84,-2292.62 2612.61,-2292.62 2746.09,-2303.17"/>
<polygon fill="none" stroke="black" points="2750.09,-2299.47 2750.09,-2321.78 2612.77,-2332.62 2423.68,-2332.62 2286.35,-2321.78 2286.35,-2299.47 2423.68,-2288.62 2612.77,-2288.62 2750.09,-2299.47"/>
<text text-anchor="middle" x="2518.22" y="-2305.57" font-family="Times,serif" font-size="14.00">Scheme Widget Library Software License Agreement</text>
</g>
<!-- 57550&#45;&gt;57549 -->
<g id="edge55" class="edge">
<title>57550&#45;&gt;57549</title>
<path fill="none" stroke="#379469" stroke-width="2" d="M2426.31,-2288.24C2305.65,-2256.5 2248.13,-2224.54 1959.63,-2054.48"/>
<polygon fill="#379469" stroke="#379469" stroke-width="2" points="1952.25,-2050.13 1963.15,-2051.33 1954.71,-2051 1961.12,-2054.78 1960.86,-2055.21 1960.61,-2055.64 1954.2,-2051.86 1958.58,-2059.08 1952.25,-2050.13"/>
</g>
<!-- 57550&#45;&gt;60292 -->
<g id="edge56" class="edge">
<title>57550&#45;&gt;60292</title>
<path fill="none" stroke="#b8bf62" stroke-width="2" d="M2286.21,-2313.6C2210.26,-2299.5 2120.39,-2263.2 1938.8,-2186.43"/>
<polygon fill="#b8bf62" stroke="#b8bf62" stroke-width="2" points="1930.93,-2183.1 1941.89,-2182.85 1933.48,-2183.64 1940.33,-2186.54 1940.14,-2187 1939.94,-2187.46 1933.09,-2184.56 1938.38,-2191.14 1930.93,-2183.1"/>
</g>
<!-- 57551 -->
<g id="node36" class="node">
<title>57551</title>
<polygon fill="none" stroke="black" points="2319.62,-2355.24 2319.62,-2370.16 2280.57,-2380.7 2225.34,-2380.7 2186.29,-2370.16 2186.29,-2355.24 2225.34,-2344.7 2280.57,-2344.7 2319.62,-2355.24"/>
<polygon fill="none" stroke="black" points="2323.62,-2352.18 2323.62,-2373.22 2281.1,-2384.7 2224.81,-2384.7 2182.29,-2373.22 2182.29,-2352.18 2224.81,-2340.7 2281.1,-2340.7 2323.62,-2352.18"/>
<text text-anchor="middle" x="2252.95" y="-2357.65" font-family="Times,serif" font-size="14.00">SWL License</text>
</g>
<!-- 57551&#45;&gt;57549 -->
<g id="edge57" class="edge">
<title>57551&#45;&gt;57549</title>
<path fill="none" stroke="#379469" stroke-dasharray="5,2" d="M2225.88,-2340.23C2143.7,-2271.77 2123.12,-2250.78 1940.98,-2057.09"/>
<polygon fill="#379469" stroke="#379469" points="1934.14,-2049.82 1944.27,-2054.03 1936.73,-2052.58 1940.99,-2057.11 1940.99,-2057.11 1940.99,-2057.11 1936.73,-2052.58 1937.71,-2060.19 1934.14,-2049.82"/>
</g>
<!-- 57551&#45;&gt;60292 -->
<g id="edge58" class="edge">
<title>57551&#45;&gt;60292</title>
<path fill="none" stroke="#b8bf62" stroke-width="2" d="M2192.54,-2349.01C2111.94,-2328.89 2077.82,-2306.76 1915.29,-2188.51"/>
<polygon fill="#b8bf62" stroke="#b8bf62" stroke-width="2" points="1908.41,-2183.51 1919.14,-2185.75 1910.77,-2184.61 1916.79,-2188.99 1916.49,-2189.39 1916.2,-2189.8 1910.19,-2185.42 1913.84,-2193.03 1908.41,-2183.51"/>
</g>
<!-- 57552 -->
<g id="node37" class="node">
<title>57552</title>
<polygon fill="none" stroke="black" points="2108.56,-2502.79 2108.56,-2517.7 2074.05,-2528.25 2025.25,-2528.25 1990.74,-2517.7 1990.74,-2502.79 2025.25,-2492.25 2074.05,-2492.25 2108.56,-2502.79"/>
<polygon fill="none" stroke="black" points="2112.56,-2499.83 2112.56,-2520.66 2074.65,-2532.25 2024.65,-2532.25 1986.74,-2520.66 1986.74,-2499.83 2024.65,-2488.25 2074.65,-2488.25 2112.56,-2499.83"/>
<text text-anchor="middle" x="2049.65" y="-2505.2" font-family="Times,serif" font-size="14.00">under SWL</text>
</g>
<!-- 57552&#45;&gt;57549 -->
<g id="edge59" class="edge">
<title>57552&#45;&gt;57549</title>
<path fill="none" stroke="#379469" stroke-dasharray="5,2" d="M2046.73,-2487.94C2029.89,-2360.39 2024.02,-2340.99 1923.97,-2059.51"/>
<polygon fill="#379469" stroke="#379469" points="1920.63,-2050.1 1928.22,-2058.01 1921.89,-2053.66 1923.98,-2059.52 1923.98,-2059.52 1923.98,-2059.52 1921.89,-2053.66 1919.74,-2061.03 1920.63,-2050.1"/>
</g>
<!-- 57552&#45;&gt;60292 -->
<g id="edge60" class="edge">
<title>57552&#45;&gt;60292</title>
<path fill="none" stroke="#b8bf62" stroke-width="2" d="M2038.38,-2487.98C1998.03,-2408.23 1988.35,-2388.66 1891.57,-2191.82"/>
<polygon fill="#b8bf62" stroke="#b8bf62" stroke-width="2" points="1887.82,-2184.19 1896.27,-2191.18 1889.39,-2186.27 1892.68,-2192.94 1892.23,-2193.16 1891.78,-2193.38 1888.5,-2186.71 1888.19,-2195.15 1887.82,-2184.19"/>
</g>
<!-- 60291 -->
<g id="node38" class="node">
<title>60291</title>
<ellipse fill="none" stroke="#b8bf62" cx="1880.61" cy="-2218.76" rx="157.15" ry="28.99"/>
<text text-anchor="middle" x="1880.61" y="-2221.96" font-family="Times,serif" font-size="14.00" fill="gray">FossLicense</text>
<text text-anchor="middle" x="1880.61" y="-2205.46" font-family="Times,serif" font-size="14.00" fill="gray">9a5f03c2306eb768f285b27a880c22ca</text>
</g>
<!-- 60291&#45;&gt;60292 -->
<g id="edge61" class="edge">
<title>60291&#45;&gt;60292</title>
<path fill="none" stroke="#b8bf62" d="M1880.96,-2189.41C1880.94,-2189.27 1880.92,-2189.13 1880.9,-2188.99"/>
<polygon fill="#b8bf62" stroke="#b8bf62" points="1885.05,-2192.76 1880.01,-2183.44 1878.14,-2193.87 1885.05,-2192.76"/>
</g>
<!-- 60293 -->
<g id="node40" class="node">
<title>60293</title>
<polygon fill="none" stroke="#b8bf62" points="2003.27,-2736.61 2003.27,-2751.52 1961.95,-2762.06 1903.52,-2762.06 1862.19,-2751.52 1862.19,-2736.61 1903.52,-2726.06 1961.95,-2726.06 2003.27,-2736.61"/>
<polygon fill="none" stroke="#b8bf62" points="2007.27,-2733.5 2007.27,-2754.62 1962.46,-2766.06 1903.01,-2766.06 1858.19,-2754.62 1858.19,-2733.5 1903.01,-2722.06 1962.46,-2722.06 2007.27,-2733.5"/>
<text text-anchor="middle" x="1932.73" y="-2739.01" font-family="Times,serif" font-size="14.00">scancode://swl</text>
</g>
<!-- 60293&#45;&gt;60292 -->
<g id="edge62" class="edge">
<title>60293&#45;&gt;60292</title>
<path fill="none" stroke="#b8bf62" stroke-width="2" d="M1934.03,-2721.64C1942.86,-2566.64 1940.51,-2546.46 1881.37,-2193.03"/>
<polygon fill="#b8bf62" stroke="#b8bf62" stroke-width="2" points="1879.96,-2184.61 1886.05,-2193.73 1880.88,-2187.05 1882.11,-2194.39 1881.61,-2194.47 1881.12,-2194.55 1879.89,-2187.22 1877.18,-2195.22 1879.96,-2184.61"/>
</g>
<!-- 60294 -->
<g id="node41" class="node">
<title>60294</title>
<polygon fill="none" stroke="#b8bf62" points="1766.86,-2702.67 1766.86,-2717.58 1728.78,-2728.13 1674.94,-2728.13 1636.86,-2717.58 1636.86,-2702.67 1674.94,-2692.13 1728.78,-2692.13 1766.86,-2702.67"/>
<polygon fill="none" stroke="#b8bf62" points="1770.86,-2699.63 1770.86,-2720.63 1729.33,-2732.13 1674.39,-2732.13 1632.86,-2720.63 1632.86,-2699.63 1674.39,-2688.13 1729.33,-2688.13 1770.86,-2699.63"/>
<text text-anchor="middle" x="1701.86" y="-2705.08" font-family="Times,serif" font-size="14.00">scancode:swl</text>
</g>
<!-- 60294&#45;&gt;60292 -->
<g id="edge63" class="edge">
<title>60294&#45;&gt;60292</title>
<path fill="none" stroke="#b8bf62" stroke-width="2" d="M1717.25,-2687.84C1811.52,-2550.95 1817.03,-2530.17 1870.59,-2192.63"/>
<polygon fill="#b8bf62" stroke="#b8bf62" stroke-width="2" points="1871.89,-2184.44 1874.77,-2195.02 1871.98,-2187.05 1870.82,-2194.4 1870.32,-2194.32 1869.83,-2194.24 1870.99,-2186.9 1865.88,-2193.61 1871.89,-2184.44"/>
</g>
<!-- 68508 -->
<g id="node42" class="node">
<title>68508</title>
<ellipse fill="none" stroke="#00876c" cx="1126.66" cy="-1973.03" rx="156.62" ry="28.99"/>
<text text-anchor="middle" x="1126.66" y="-1976.23" font-family="Times,serif" font-size="14.00" fill="gray">LicenseLynx</text>
<text text-anchor="middle" x="1126.66" y="-1959.73" font-family="Times,serif" font-size="14.00" fill="gray">24c684eb35f67f5bc69daaa4d845aa57</text>
</g>
<!-- 68508&#45;&gt;4406 -->
<g id="edge64" class="edge">
<title>68508&#45;&gt;4406</title>
<path fill="none" stroke="#00876c" d="M1158.49,-1944.44C1211.9,-1896.49 1236.65,-1874.44 1376.51,-1750.08"/>
<polygon fill="#00876c" stroke="#00876c" points="1378.73,-1752.79 1383.88,-1743.53 1374.08,-1747.56 1378.73,-1752.79"/>
</g>
<!-- 68509&#45;&gt;4406 -->
<g id="edge65" class="edge">
<title>68509&#45;&gt;4406</title>
<path fill="none" stroke="#00876c" stroke-width="2" d="M1301.73,-2091.12C1310.73,-1988.8 1316.49,-1969.7 1398.9,-1754.33"/>
<polygon fill="#00876c" stroke="#00876c" stroke-width="2" points="1402.01,-1746.2 1402.64,-1757.15 1401.56,-1748.77 1398.9,-1755.72 1398.44,-1755.54 1397.97,-1755.36 1400.63,-1748.42 1394.23,-1753.93 1402.01,-1746.2"/>
</g>
<!-- 68510&#45;&gt;4406 -->
<g id="edge66" class="edge">
<title>68510&#45;&gt;4406</title>
<path fill="none" stroke="#00876c" stroke-width="2" d="M1345.05,-1751.26C1349.99,-1748.95 1355.49,-1746.29 1361.75,-1743.23"/>
<polygon fill="#00876c" stroke="#00876c" stroke-width="2" points="1369.3,-1739.51 1362.32,-1747.97 1367.22,-1741.09 1360.55,-1744.38 1360.33,-1743.93 1360.11,-1743.48 1366.78,-1740.19 1358.34,-1739.89 1369.3,-1739.51"/>
</g>
</g>
</svg>
