<?xml version="1.0" encoding="UTF-8" standalone="no"?>
<!DOCTYPE svg PUBLIC "-//W3C//DTD SVG 1.1//EN"
 "http://www.w3.org/Graphics/SVG/1.1/DTD/svg11.dtd">
<!-- Generated by graphviz version 10.0.1 (0)
 -->
<!-- Pages: 1 -->
<svg width="1403pt" height="587pt"
 viewBox="0.00 0.00 1403.00 587.00" xmlns="http://www.w3.org/2000/svg" xmlns:xlink="http://www.w3.org/1999/xlink">
<g id="graph0" class="graph" transform="scale(1 1) rotate(0) translate(4 583)">
<polygon fill="white" stroke="none" points="-4,4 -4,-583 1399,-583 1399,4 -4,4"/>
<!-- 4779 -->
<g id="node1" class="node">
<title>4779</title>
<ellipse fill="none" stroke="#b8bf62" cx="161.2" cy="-429.8" rx="160.87" ry="28.99"/>
<text text-anchor="middle" x="161.2" y="-433" font-family="Times,serif" font-size="14.00" fill="gray">SPDXLicense</text>
<text text-anchor="middle" x="161.2" y="-416.5" font-family="Times,serif" font-size="14.00" fill="gray">0a4455eb7144674966bd237f9077c376</text>
</g>
<!-- 4780 -->
<g id="node2" class="node">
<title>4780</title>
<polygon fill="none" stroke="black" points="573.73,-355.62 573.73,-370.53 538.58,-381.08 488.86,-381.08 453.71,-370.53 453.71,-355.62 488.86,-345.08 538.58,-345.08 573.73,-355.62"/>
<polygon fill="none" stroke="black" points="577.73,-352.64 577.73,-373.51 539.17,-385.08 488.27,-385.08 449.71,-373.51 449.71,-352.64 488.27,-341.08 539.17,-341.08 577.73,-352.64"/>
<polygon fill="none" stroke="black" points="581.73,-349.67 581.73,-376.48 539.75,-389.08 487.69,-389.08 445.71,-376.48 445.71,-349.67 487.69,-337.08 539.75,-337.08 581.73,-349.67"/>
<text text-anchor="middle" x="513.72" y="-358.03" font-family="Times,serif" font-size="14.00">spdx:swrule</text>
</g>
<!-- 4779&#45;&gt;4780 -->
<g id="edge1" class="edge">
<title>4779&#45;&gt;4780</title>
<path fill="none" stroke="#b8bf62" d="M287.43,-411.47C320.93,-405.09 364.49,-395.76 436.95,-379.91"/>
<polygon fill="#b8bf62" stroke="#b8bf62" points="437.35,-383.41 446.37,-377.85 435.85,-376.57 437.35,-383.41"/>
</g>
<!-- 8614 -->
<g id="node6" class="node">
<title>8614</title>
<polygon fill="none" stroke="#e09d4b" points="618.97,-429.43 618.97,-444.34 578.62,-454.88 521.56,-454.88 481.21,-444.34 481.21,-429.43 521.56,-418.88 578.62,-418.88 618.97,-429.43"/>
<polygon fill="none" stroke="#e09d4b" points="622.97,-426.34 622.97,-447.43 579.13,-458.88 521.05,-458.88 477.21,-447.43 477.21,-426.34 521.05,-414.88 579.13,-414.88 622.97,-426.34"/>
<text text-anchor="middle" x="550.09" y="-431.83" font-family="Times,serif" font-size="14.00">Fedora:swrule</text>
</g>
<!-- 4780&#45;&gt;8614 -->
<g id="edge2" class="edge">
<title>4780&#45;&gt;8614</title>
<path fill="none" stroke="#e09d4b" stroke-width="2" d="M516.71,-389.47C517.72,-395.83 518.95,-400.74 520.82,-405.06"/>
<polygon fill="#e09d4b" stroke="#e09d4b" stroke-width="2" points="525.29,-412.41 516.25,-406.21 523.53,-410.48 519.67,-404.13 520.09,-403.87 520.52,-403.61 524.39,-409.96 523.94,-401.53 525.29,-412.41"/>
</g>
<!-- 48037 -->
<g id="node13" class="node">
<title>48037</title>
<polygon fill="none" stroke="#00876c" points="897.55,-481.77 897.55,-496.68 828.32,-507.22 730.42,-507.22 661.19,-496.68 661.19,-481.77 730.42,-471.22 828.32,-471.22 897.55,-481.77"/>
<polygon fill="none" stroke="#00876c" points="901.55,-478.33 901.55,-500.11 828.62,-511.22 730.11,-511.22 657.19,-500.11 657.19,-478.33 730.11,-467.22 828.62,-467.22 901.55,-478.33"/>
<text text-anchor="middle" x="779.37" y="-484.17" font-family="Times,serif" font-size="14.00">metaeffekt:swrule License</text>
</g>
<!-- 4780&#45;&gt;48037 -->
<g id="edge3" class="edge">
<title>4780&#45;&gt;48037</title>
<path fill="none" stroke="#00876c" stroke-width="2" d="M538.95,-389.55C587.37,-440.01 612.62,-462.9 648.97,-474.5"/>
<polygon fill="#00876c" stroke="#00876c" stroke-width="2" points="657.2,-476.82 646.35,-478.44 654.6,-476.61 647.44,-474.59 647.57,-474.1 647.71,-473.62 654.87,-475.64 648.8,-469.77 657.2,-476.82"/>
</g>
<!-- 4781 -->
<g id="node3" class="node">
<title>4781</title>
<polygon fill="none" stroke="black" points="760.09,-282.49 760.09,-297.4 737.59,-307.94 705.77,-307.94 683.27,-297.4 683.27,-282.49 705.77,-271.94 737.59,-271.94 760.09,-282.49"/>
<polygon fill="none" stroke="black" points="764.09,-279.95 764.09,-299.94 738.48,-311.94 704.88,-311.94 679.27,-299.94 679.27,-279.95 704.88,-267.94 738.48,-267.94 764.09,-279.95"/>
<text text-anchor="middle" x="721.68" y="-284.89" font-family="Times,serif" font-size="14.00">swrule</text>
</g>
<!-- 4781&#45;&gt;4780 -->
<g id="edge4" class="edge">
<title>4781&#45;&gt;4780</title>
<path fill="none" stroke="black" stroke-width="2" d="M686.21,-303.52C632.04,-324.23 603.5,-335.01 581.34,-342.63"/>
<polygon fill="black" stroke="black" stroke-width="2" points="573.21,-345.37 581.25,-337.92 575.48,-344.08 582.52,-341.71 582.68,-342.18 582.84,-342.66 575.79,-345.03 584.12,-346.45 573.21,-345.37"/>
</g>
<!-- 4781&#45;&gt;8614 -->
<g id="edge5" class="edge">
<title>4781&#45;&gt;8614</title>
<path fill="none" stroke="#e09d4b" stroke-width="2" d="M700.29,-310.11C636.52,-370.19 614.57,-390.45 590.26,-408.71"/>
<polygon fill="#e09d4b" stroke="#e09d4b" stroke-width="2" points="583.45,-413.71 588.85,-404.16 585.22,-411.79 591.22,-407.39 591.51,-407.79 591.81,-408.19 585.81,-412.59 594.18,-411.42 583.45,-413.71"/>
</g>
<!-- 24139 -->
<g id="node8" class="node">
<title>24139</title>
<polygon fill="none" stroke="#dac767" points="827.52,-184.32 827.52,-199.23 781.98,-209.77 717.58,-209.77 672.04,-199.23 672.04,-184.32 717.58,-173.77 781.98,-173.77 827.52,-184.32"/>
<polygon fill="none" stroke="#dac767" points="831.52,-181.14 831.52,-202.41 782.44,-213.77 717.12,-213.77 668.04,-202.41 668.04,-181.14 717.12,-169.77 782.44,-169.77 831.52,-181.14"/>
<text text-anchor="middle" x="749.78" y="-186.72" font-family="Times,serif" font-size="14.00">scancode:swrule</text>
</g>
<!-- 4781&#45;&gt;24139 -->
<g id="edge6" class="edge">
<title>4781&#45;&gt;24139</title>
<path fill="none" stroke="#dac767" stroke-width="2" d="M730.84,-267.5C739.31,-246.61 743.72,-234.93 746.17,-225.2"/>
<polygon fill="#dac767" stroke="#dac767" stroke-width="2" points="747.8,-216.64 750.35,-227.31 747.81,-219.25 746.42,-226.56 745.92,-226.47 745.43,-226.37 746.82,-219.07 741.5,-225.63 747.8,-216.64"/>
</g>
<!-- 38050 -->
<g id="node11" class="node">
<title>38050</title>
<polygon fill="none" stroke="#379469" points="1011,-181 1011,-195.91 975.52,-206.45 925.35,-206.45 889.87,-195.91 889.87,-181 925.35,-170.45 975.52,-170.45 1011,-181"/>
<polygon fill="none" stroke="#379469" points="1015,-178.01 1015,-198.89 976.11,-210.45 924.77,-210.45 885.87,-198.89 885.87,-178.01 924.77,-166.45 976.11,-166.45 1015,-178.01"/>
<text text-anchor="middle" x="950.44" y="-183.4" font-family="Times,serif" font-size="14.00">cavil:swrule</text>
</g>
<!-- 4781&#45;&gt;38050 -->
<g id="edge7" class="edge">
<title>4781&#45;&gt;38050</title>
<path fill="none" stroke="#379469" stroke-width="2" d="M755.86,-275.58C842.91,-238.98 872.8,-226.25 902.73,-211.98"/>
<polygon fill="#379469" stroke="#379469" stroke-width="2" points="910.33,-208.32 903.28,-216.71 908.24,-209.88 901.54,-213.11 901.32,-212.66 901.11,-212.21 907.81,-208.98 899.37,-208.6 910.33,-208.32"/>
</g>
<!-- 4781&#45;&gt;48037 -->
<g id="edge8" class="edge">
<title>4781&#45;&gt;48037</title>
<path fill="none" stroke="#00876c" stroke-dasharray="5,2" d="M729.55,-312.19C760.97,-400.98 768.28,-422.84 774.14,-456.02"/>
<polygon fill="#00876c" stroke="#00876c" points="775.74,-465.56 769.65,-456.44 775.12,-461.83 774.09,-455.7 774.09,-455.7 774.09,-455.7 775.12,-461.83 778.53,-454.96 775.74,-465.56"/>
</g>
<!-- 4782 -->
<g id="node4" class="node">
<title>4782</title>
<polygon fill="none" stroke="black" points="813.59,-429.13 813.59,-444.04 771.3,-454.58 711.48,-454.58 669.19,-444.04 669.19,-429.13 711.48,-418.58 771.3,-418.58 813.59,-429.13"/>
<polygon fill="none" stroke="black" points="817.59,-426 817.59,-447.16 771.79,-458.58 710.99,-458.58 665.19,-447.16 665.19,-426 710.99,-414.58 771.79,-414.58 817.59,-426"/>
<text text-anchor="middle" x="741.39" y="-431.53" font-family="Times,serif" font-size="14.00">swrule License</text>
</g>
<!-- 4782&#45;&gt;4780 -->
<g id="edge9" class="edge">
<title>4782&#45;&gt;4780</title>
<path fill="none" stroke="#b8bf62" stroke-width="2" d="M664.92,-437.64C611.82,-436.52 590.84,-427.88 551.3,-395.37"/>
<polygon fill="#b8bf62" stroke="#b8bf62" stroke-width="2" points="544.99,-390.11 555.55,-393.07 547.28,-391.37 552.99,-396.14 552.67,-396.52 552.35,-396.91 546.64,-392.14 549.78,-399.98 544.99,-390.11"/>
</g>
<!-- 4782&#45;&gt;24139 -->
<g id="edge10" class="edge">
<title>4782&#45;&gt;24139</title>
<path fill="none" stroke="#dac767" stroke-width="2" d="M752.07,-414.1C785.63,-342.58 786.18,-327.27 758.64,-224.5"/>
<polygon fill="#dac767" stroke="#dac767" stroke-width="2" points="756.43,-216.29 763.38,-224.78 757.58,-218.64 759.51,-225.82 759.03,-225.95 758.55,-226.08 756.61,-218.9 754.69,-227.12 756.43,-216.29"/>
</g>
<!-- 4782&#45;&gt;48037 -->
<g id="edge11" class="edge">
<title>4782&#45;&gt;48037</title>
<path fill="none" stroke="#00876c" stroke-width="2" d="M755.15,-459.07C755.21,-459.17 755.27,-459.26 755.33,-459.36"/>
<polygon fill="#00876c" stroke="#00876c" stroke-width="2" points="758.87,-464.89 749.69,-458.89 757.07,-463 753.06,-456.73 753.48,-456.46 753.9,-456.19 757.91,-462.46 757.27,-454.04 758.87,-464.89"/>
</g>
<!-- 8613 -->
<g id="node5" class="node">
<title>8613</title>
<ellipse fill="none" stroke="#e09d4b" cx="481.8" cy="-498.22" rx="160.34" ry="28.99"/>
<text text-anchor="middle" x="481.8" y="-501.42" font-family="Times,serif" font-size="14.00" fill="gray">FedoraEntry</text>
<text text-anchor="middle" x="481.8" y="-484.92" font-family="Times,serif" font-size="14.00" fill="gray">bb86684f316d3b398d0f6ed822321425</text>
</g>
<!-- 8613&#45;&gt;8614 -->
<g id="edge12" class="edge">
<title>8613&#45;&gt;8614</title>
<path fill="none" stroke="#e09d4b" d="M514.54,-469.55C515.45,-468.73 516.39,-467.87 517.38,-466.96"/>
<polygon fill="#e09d4b" stroke="#e09d4b" points="519.72,-469.56 524.73,-460.22 514.99,-464.4 519.72,-469.56"/>
</g>
<!-- 24138 -->
<g id="node7" class="node">
<title>24138</title>
<ellipse fill="none" stroke="#dac767" cx="737.23" cy="-128.44" rx="155.56" ry="28.99"/>
<text text-anchor="middle" x="737.23" y="-131.64" font-family="Times,serif" font-size="14.00" fill="gray">ScancodeData</text>
<text text-anchor="middle" x="737.23" y="-115.14" font-family="Times,serif" font-size="14.00" fill="gray">bbf9caed9ef7f8537ae3b6072440e663</text>
</g>
<!-- 24138&#45;&gt;24139 -->
<g id="edge13" class="edge">
<title>24138&#45;&gt;24139</title>
<path fill="none" stroke="#dac767" d="M747.75,-157.61C747.76,-157.72 747.77,-157.82 747.78,-157.92"/>
<polygon fill="#dac767" stroke="#dac767" points="744.28,-158.09 748.57,-167.78 751.26,-157.54 744.28,-158.09"/>
</g>
<!-- 35316 -->
<g id="node9" class="node">
<title>35316</title>
<ellipse fill="none" stroke="#e06f45" cx="228.84" cy="-181.46" rx="160.34" ry="28.99"/>
<text text-anchor="middle" x="228.84" y="-184.66" font-family="Times,serif" font-size="14.00" fill="gray">OrtLicenseCategorization</text>
<text text-anchor="middle" x="228.84" y="-168.16" font-family="Times,serif" font-size="14.00" fill="gray">5acba06c522becc424d491b79b576355</text>
</g>
<!-- 35316&#45;&gt;4780 -->
<g id="edge14" class="edge">
<title>35316&#45;&gt;4780</title>
<path fill="none" stroke="#e06f45" d="M253.99,-210.44C301.14,-263.48 324.52,-277.57 457.76,-337.86"/>
<polygon fill="#e06f45" stroke="#e06f45" points="456.03,-340.93 466.59,-341.86 458.92,-334.55 456.03,-340.93"/>
</g>
<!-- 38049 -->
<g id="node10" class="node">
<title>38049</title>
<ellipse fill="none" stroke="#379469" cx="1235.89" cy="-29.05" rx="159.28" ry="28.99"/>
<text text-anchor="middle" x="1235.89" y="-32.25" font-family="Times,serif" font-size="14.00" fill="gray">CavilLicenseChange</text>
<text text-anchor="middle" x="1235.89" y="-15.75" font-family="Times,serif" font-size="14.00" fill="gray">f005b39a94a8147c44553a1e6d40a865</text>
</g>
<!-- 38049&#45;&gt;38050 -->
<g id="edge15" class="edge">
<title>38049&#45;&gt;38050</title>
<path fill="none" stroke="#379469" d="M1190.93,-57.22C1148.32,-83.43 1116.53,-100.62 996.6,-164.05"/>
<polygon fill="#379469" stroke="#379469" points="995.2,-160.83 988,-168.6 998.47,-167.02 995.2,-160.83"/>
</g>
<!-- 48036 -->
<g id="node12" class="node">
<title>48036</title>
<ellipse fill="none" stroke="#00876c" cx="829.18" cy="-549.61" rx="152.38" ry="28.99"/>
<text text-anchor="middle" x="829.18" y="-552.81" font-family="Times,serif" font-size="14.00" fill="gray">MetaeffektLicense</text>
<text text-anchor="middle" x="829.18" y="-536.31" font-family="Times,serif" font-size="14.00" fill="gray">2de3e76e04fb6acfe2ef7265cd78efab</text>
</g>
<!-- 48036&#45;&gt;48037 -->
<g id="edge16" class="edge">
<title>48036&#45;&gt;48037</title>
<path fill="none" stroke="#00876c" d="M801.96,-520.72C801.9,-520.63 801.84,-520.55 801.78,-520.47"/>
<polygon fill="#00876c" stroke="#00876c" points="804.82,-518.7 796.1,-512.68 799.16,-522.82 804.82,-518.7"/>
</g>
</g>
</svg>
