<?xml version="1.0" encoding="UTF-8" standalone="no"?>
<!DOCTYPE svg PUBLIC "-//W3C//DTD SVG 1.1//EN"
 "http://www.w3.org/Graphics/SVG/1.1/DTD/svg11.dtd">
<!-- Generated by graphviz version 10.0.1 (0)
 -->
<!-- Pages: 1 -->
<svg width="4027pt" height="2789pt"
 viewBox="0.00 0.00 4027.00 2789.00" xmlns="http://www.w3.org/2000/svg" xmlns:xlink="http://www.w3.org/1999/xlink">
<g id="graph0" class="graph" transform="scale(1 1) rotate(0) translate(4 2785)">
<polygon fill="white" stroke="none" points="-4,4 -4,-2785 4023,-2785 4023,4 -4,4"/>
<!-- 5 -->
<g id="node1" class="node">
<title>5</title>
<text text-anchor="start" x="2188.97" y="-331.23" font-family="Times,serif" font-size="14.00">OSI: </text>
<text text-anchor="start" x="2218.22" y="-331.23" font-family="Times,serif" font-weight="bold" font-size="14.00" fill="#8b0000">Rejected</text>
</g>
<!-- 4565 -->
<g id="node2" class="node">
<title>4565</title>
<ellipse fill="none" stroke="#dac767" cx="2402.44" cy="-666.79" rx="153.97" ry="28.99"/>
<text text-anchor="middle" x="2402.44" y="-669.99" font-family="Times,serif" font-size="14.00" fill="gray">SPDXLicense</text>
<text text-anchor="middle" x="2402.44" y="-653.49" font-family="Times,serif" font-size="14.00" fill="gray">643cab9585df8e2381cfe00ff7b78ae4</text>
</g>
<!-- 5&#45;&gt;4565 -->
<g id="edge1" class="edge">
<title>5&#45;&gt;4565</title>
<path fill="none" stroke="#dac767" d="M2249.46,-353.04C2334.31,-426.21 2343.22,-443.79 2391.71,-626.26"/>
<polygon fill="#dac767" stroke="#dac767" points="2388.32,-627.13 2394.27,-635.9 2395.09,-625.33 2388.32,-627.13"/>
</g>
<!-- 4566 -->
<g id="node3" class="node">
<title>4566</title>
<polygon fill="none" stroke="black" points="2633.29,-1212.04 2633.29,-1226.95 2580.61,-1237.5 2506.11,-1237.5 2453.43,-1226.95 2453.43,-1212.04 2506.11,-1201.5 2580.61,-1201.5 2633.29,-1212.04"/>
<polygon fill="none" stroke="black" points="2637.29,-1208.76 2637.29,-1230.23 2581.01,-1241.5 2505.71,-1241.5 2449.43,-1230.23 2449.43,-1208.76 2505.71,-1197.5 2581.01,-1197.5 2637.29,-1208.76"/>
<polygon fill="none" stroke="black" points="2641.29,-1205.48 2641.29,-1233.51 2581.4,-1245.5 2505.32,-1245.5 2445.43,-1233.51 2445.43,-1205.48 2505.32,-1193.5 2581.4,-1193.5 2641.29,-1205.48"/>
<text text-anchor="middle" x="2543.36" y="-1214.45" font-family="Times,serif" font-size="14.00">spdx:TORQUE&#45;1.1</text>
</g>
<!-- 4565&#45;&gt;4566 -->
<g id="edge2" class="edge">
<title>4565&#45;&gt;4566</title>
<path fill="none" stroke="#dac767" d="M2424.92,-695.89C2549.91,-858.32 2554.22,-880.73 2544.59,-1181.73"/>
<polygon fill="#dac767" stroke="#dac767" points="2541.1,-1181.39 2544.27,-1191.5 2548.09,-1181.62 2541.1,-1181.39"/>
</g>
<!-- 9276 -->
<g id="node12" class="node">
<title>9276</title>
<polygon fill="none" stroke="#e09d4b" points="2599.49,-1028.26 2599.49,-1043.17 2541.62,-1053.72 2459.78,-1053.72 2401.91,-1043.17 2401.91,-1028.26 2459.78,-1017.72 2541.62,-1017.72 2599.49,-1028.26"/>
<polygon fill="none" stroke="#e09d4b" points="2603.49,-1024.93 2603.49,-1046.51 2541.98,-1057.72 2459.42,-1057.72 2397.91,-1046.51 2397.91,-1024.93 2459.42,-1013.72 2541.98,-1013.72 2603.49,-1024.93"/>
<text text-anchor="middle" x="2500.7" y="-1030.67" font-family="Times,serif" font-size="14.00">Fedora:TORQUE&#45;1.1</text>
</g>
<!-- 4566&#45;&gt;9276 -->
<g id="edge3" class="edge">
<title>4566&#45;&gt;9276</title>
<path fill="none" stroke="#e09d4b" stroke-width="2" d="M2546.28,-1193.13C2553.6,-1124.62 2551.92,-1108.39 2523.25,-1066.93"/>
<polygon fill="#e09d4b" stroke="#e09d4b" stroke-width="2" points="2518.34,-1059.97 2527.78,-1065.54 2520.23,-1061.77 2524.52,-1067.85 2524.11,-1068.14 2523.7,-1068.43 2519.41,-1062.35 2520.43,-1070.73 2518.34,-1059.97"/>
</g>
<!-- 27020 -->
<g id="node16" class="node">
<title>27020</title>
<polygon fill="none" stroke="black" points="2415.46,-1658.69 2415.46,-1673.6 2361.16,-1684.15 2284.36,-1684.15 2230.06,-1673.6 2230.06,-1658.69 2284.36,-1648.15 2361.16,-1648.15 2415.46,-1658.69"/>
<polygon fill="none" stroke="black" points="2419.46,-1655.39 2419.46,-1676.9 2361.54,-1688.15 2283.98,-1688.15 2226.06,-1676.9 2226.06,-1655.39 2283.98,-1644.15 2361.54,-1644.15 2419.46,-1655.39"/>
<text text-anchor="middle" x="2322.76" y="-1661.1" font-family="Times,serif" font-size="14.00">scancode:torque&#45;1.1</text>
</g>
<!-- 4566&#45;&gt;27020 -->
<g id="edge4" class="edge">
<title>4566&#45;&gt;27020</title>
<path fill="none" stroke="#deb256" stroke-width="2" d="M2526.44,-1245.89C2483.45,-1323.21 2371.94,-1548.89 2334.79,-1633.57"/>
<polygon fill="#deb256" stroke="#deb256" stroke-width="2" points="2331.31,-1641.63 2331.14,-1630.66 2331.86,-1639.08 2334.81,-1632.25 2335.27,-1632.45 2335.73,-1632.64 2332.78,-1639.47 2339.4,-1634.23 2331.31,-1641.63"/>
</g>
<!-- 57842 -->
<g id="node31" class="node">
<title>57842</title>
<polygon fill="none" stroke="#379469" points="2806.96,-1740.76 2806.96,-1755.67 2720.53,-1766.22 2598.3,-1766.22 2511.87,-1755.67 2511.87,-1740.76 2598.3,-1730.22 2720.53,-1730.22 2806.96,-1740.76"/>
<polygon fill="none" stroke="#379469" points="2810.96,-1737.22 2810.96,-1759.22 2720.77,-1770.22 2598.06,-1770.22 2507.87,-1759.22 2507.87,-1737.22 2598.06,-1726.22 2720.77,-1726.22 2810.96,-1737.22"/>
<text text-anchor="middle" x="2659.41" y="-1743.17" font-family="Times,serif" font-size="14.00">metaeffekt:TORQUE License 1.1</text>
</g>
<!-- 4566&#45;&gt;57842 -->
<g id="edge5" class="edge">
<title>4566&#45;&gt;57842</title>
<path fill="none" stroke="#379469" stroke-width="2" d="M2558.8,-1245.83C2700.99,-1488.54 2706.54,-1507.36 2666,-1714.78"/>
<polygon fill="#379469" stroke="#379469" stroke-width="2" points="2664.31,-1723.38 2661.82,-1712.7 2664.31,-1720.77 2665.75,-1713.47 2666.24,-1713.56 2666.73,-1713.66 2665.3,-1720.96 2670.65,-1714.43 2664.31,-1723.38"/>
</g>
<!-- 4567 -->
<g id="node4" class="node">
<title>4567</title>
<polygon fill="none" stroke="black" points="2391.55,-1292.7 2391.55,-1307.62 2351.53,-1318.16 2294.92,-1318.16 2254.9,-1307.62 2254.9,-1292.7 2294.92,-1282.16 2351.53,-1282.16 2391.55,-1292.7"/>
<polygon fill="none" stroke="black" points="2395.55,-1289.62 2395.55,-1310.7 2352.04,-1322.16 2294.41,-1322.16 2250.9,-1310.7 2250.9,-1289.62 2294.41,-1278.16 2352.04,-1278.16 2395.55,-1289.62"/>
<text text-anchor="middle" x="2323.23" y="-1295.11" font-family="Times,serif" font-size="14.00">TORQUE&#45;1.1</text>
</g>
<!-- 4567&#45;&gt;4566 -->
<g id="edge6" class="edge">
<title>4567&#45;&gt;4566</title>
<path fill="none" stroke="black" stroke-width="2" d="M2372,-1283.1C2425.77,-1264.28 2454.24,-1254.22 2476.56,-1245.9"/>
<polygon fill="black" stroke="black" stroke-width="2" points="2484.49,-1242.91 2476.72,-1250.64 2482.27,-1244.28 2475.31,-1246.9 2475.14,-1246.43 2474.96,-1245.97 2481.92,-1243.34 2473.55,-1242.22 2484.49,-1242.91"/>
</g>
<!-- 4567&#45;&gt;9276 -->
<g id="edge7" class="edge">
<title>4567&#45;&gt;9276</title>
<path fill="none" stroke="#e09d4b" stroke-width="2" d="M2342.99,-1277.85C2452.17,-1154.51 2466.98,-1135.55 2490.01,-1068.07"/>
<polygon fill="#e09d4b" stroke="#e09d4b" stroke-width="2" points="2492.71,-1060.06 2493.79,-1070.97 2492.37,-1062.65 2490,-1069.7 2489.52,-1069.54 2489.05,-1069.38 2491.42,-1062.33 2485.26,-1068.1 2492.71,-1060.06"/>
</g>
<!-- 4567&#45;&gt;27020 -->
<g id="edge8" class="edge">
<title>4567&#45;&gt;27020</title>
<path fill="none" stroke="black" stroke-width="2" d="M2330.91,-1322.57C2388.49,-1490.71 2390.53,-1508.24 2336.72,-1633.86"/>
<polygon fill="black" stroke="black" stroke-width="2" points="2333.36,-1641.67 2333.18,-1630.7 2333.91,-1639.11 2336.85,-1632.28 2337.31,-1632.48 2337.77,-1632.68 2334.83,-1639.51 2341.45,-1634.26 2333.36,-1641.67"/>
</g>
<!-- 34950 -->
<g id="node22" class="node">
<title>34950</title>
<polygon fill="none" stroke="#e18745" points="2172.93,-978.37 2172.93,-993.28 2108.57,-1003.83 2017.55,-1003.83 1953.19,-993.28 1953.19,-978.37 2017.55,-967.83 2108.57,-967.83 2172.93,-978.37"/>
<polygon fill="none" stroke="#e18745" points="2176.93,-974.97 2176.93,-996.68 2108.89,-1007.83 2017.22,-1007.83 1949.19,-996.68 1949.19,-974.97 2017.22,-963.83 2108.89,-963.83 2176.93,-974.97"/>
<text text-anchor="middle" x="2063.06" y="-980.78" font-family="Times,serif" font-size="14.00">fossology:TORQUE&#45;1.1</text>
</g>
<!-- 4567&#45;&gt;34950 -->
<g id="edge9" class="edge">
<title>4567&#45;&gt;34950</title>
<path fill="none" stroke="#e18745" stroke-width="2" d="M2315.04,-1277.79C2249.99,-1100.37 2237.84,-1077.59 2116.27,-1013.36"/>
<polygon fill="#e18745" stroke="#e18745" stroke-width="2" points="2108.7,-1009.38 2119.64,-1010.05 2111.2,-1010.13 2117.78,-1013.59 2117.55,-1014.03 2117.32,-1014.47 2110.73,-1011.01 2115.46,-1018.01 2108.7,-1009.38"/>
</g>
<!-- 42860 -->
<g id="node29" class="node">
<title>42860</title>
<polygon fill="none" stroke="#379469" points="2059.43,-1475.46 2059.43,-1490.37 2006.43,-1500.91 1931.47,-1500.91 1878.47,-1490.37 1878.47,-1475.46 1931.47,-1464.91 2006.43,-1464.91 2059.43,-1475.46"/>
<polygon fill="none" stroke="#379469" points="2063.43,-1472.18 2063.43,-1493.65 2006.82,-1504.91 1931.08,-1504.91 1874.47,-1493.65 1874.47,-1472.18 1931.08,-1460.91 2006.82,-1460.91 2063.43,-1472.18"/>
<text text-anchor="middle" x="1968.95" y="-1477.86" font-family="Times,serif" font-size="14.00">cavil:TORQUE&#45;1.1</text>
</g>
<!-- 4567&#45;&gt;42860 -->
<g id="edge10" class="edge">
<title>4567&#45;&gt;42860</title>
<path fill="none" stroke="#379469" stroke-width="2" d="M2299.56,-1322.41C2231.44,-1385.77 2207.93,-1398.02 2033.37,-1460.11"/>
<polygon fill="#379469" stroke="#379469" stroke-width="2" points="2025.33,-1462.96 2033.24,-1455.38 2027.57,-1461.63 2034.58,-1459.14 2034.75,-1459.62 2034.92,-1460.09 2027.91,-1462.58 2036.26,-1463.86 2025.33,-1462.96"/>
</g>
<!-- 4568 -->
<g id="node5" class="node">
<title>4568</title>
<polygon fill="none" stroke="black" points="2264.21,-1346.99 2264.21,-1361.9 2163.5,-1372.44 2021.08,-1372.44 1920.37,-1361.9 1920.37,-1346.99 2021.08,-1336.44 2163.5,-1336.44 2264.21,-1346.99"/>
<polygon fill="none" stroke="black" points="2268.21,-1343.38 2268.21,-1365.5 2163.71,-1376.44 2020.87,-1376.44 1916.37,-1365.5 1916.37,-1343.38 2020.87,-1332.44 2163.71,-1332.44 2268.21,-1343.38"/>
<text text-anchor="middle" x="2092.29" y="-1349.39" font-family="Times,serif" font-size="14.00">TORQUE v2.5+ Software License v1.1</text>
</g>
<!-- 4568&#45;&gt;4566 -->
<g id="edge11" class="edge">
<title>4568&#45;&gt;4566</title>
<path fill="none" stroke="#dac767" stroke-width="2" d="M2164.43,-1332.11C2343.27,-1276.77 2396.41,-1260.52 2461.46,-1242.19"/>
<polygon fill="#dac767" stroke="#dac767" stroke-width="2" points="2469.68,-1239.88 2461.27,-1246.92 2467.35,-1241.05 2460.19,-1243.07 2460.06,-1242.58 2459.92,-1242.1 2467.08,-1240.09 2458.84,-1238.25 2469.68,-1239.88"/>
</g>
<!-- 4568&#45;&gt;9276 -->
<g id="edge12" class="edge">
<title>4568&#45;&gt;9276</title>
<path fill="none" stroke="#e09d4b" stroke-dasharray="5,2" d="M2122.2,-1331.98C2353.01,-1158.62 2382.2,-1136.38 2465.76,-1065.46"/>
<polygon fill="#e09d4b" stroke="#e09d4b" points="2473.37,-1058.99 2468.66,-1068.9 2470.49,-1061.44 2465.75,-1065.47 2465.75,-1065.47 2465.75,-1065.47 2470.49,-1061.44 2462.83,-1062.04 2473.37,-1058.99"/>
</g>
<!-- 4568&#45;&gt;27020 -->
<g id="edge13" class="edge">
<title>4568&#45;&gt;27020</title>
<path fill="none" stroke="#deb256" stroke-width="2" d="M2112.99,-1376.79C2256.63,-1531.91 2273.56,-1552.1 2308.92,-1633.64"/>
<polygon fill="#deb256" stroke="#deb256" stroke-width="2" points="2312.37,-1641.67 2304.28,-1634.26 2310.9,-1639.51 2307.96,-1632.68 2308.42,-1632.48 2308.88,-1632.28 2311.81,-1639.11 2312.55,-1630.7 2312.37,-1641.67"/>
</g>
<!-- 4568&#45;&gt;34950 -->
<g id="edge14" class="edge">
<title>4568&#45;&gt;34950</title>
<path fill="none" stroke="#e18745" stroke-width="2" d="M2092.93,-1331.98C2098.77,-1125.04 2098.57,-1099.57 2073.55,-1018.85"/>
<polygon fill="#e18745" stroke="#e18745" stroke-width="2" points="2070.93,-1010.5 2078.21,-1018.7 2072.17,-1012.8 2074.4,-1019.89 2073.92,-1020.04 2073.44,-1020.19 2071.22,-1013.1 2069.63,-1021.39 2070.93,-1010.5"/>
</g>
<!-- 4568&#45;&gt;57842 -->
<g id="edge15" class="edge">
<title>4568&#45;&gt;57842</title>
<path fill="none" stroke="#379469" stroke-dasharray="5,2" d="M2128.7,-1376.85C2473.33,-1589.05 2504.12,-1609.13 2626.27,-1718.45"/>
<polygon fill="#379469" stroke="#379469" points="2633.55,-1724.97 2623.1,-1721.65 2630.73,-1722.44 2626.1,-1718.29 2626.1,-1718.29 2626.1,-1718.29 2630.73,-1722.44 2629.1,-1714.94 2633.55,-1724.97"/>
</g>
<!-- 68578 -->
<g id="node39" class="node">
<title>68578</title>
<polygon fill="none" stroke="#00876c" points="2233.1,-1292.29 2233.1,-1307.2 2119.73,-1317.74 1959.41,-1317.74 1846.05,-1307.2 1846.05,-1292.29 1959.41,-1281.74 2119.73,-1281.74 2233.1,-1292.29"/>
<polygon fill="none" stroke="#00876c" points="2237.1,-1288.64 2237.1,-1310.85 2119.92,-1321.74 1959.23,-1321.74 1842.05,-1310.85 1842.05,-1288.64 1959.23,-1277.74 2119.92,-1277.74 2237.1,-1288.64"/>
<text text-anchor="middle" x="2039.57" y="-1294.69" font-family="Times,serif" font-size="14.00">spdx:TORQUE v2.5+ Software License v1.1</text>
</g>
<!-- 4568&#45;&gt;68578 -->
<g id="edge16" class="edge">
<title>4568&#45;&gt;68578</title>
<path fill="none" stroke="#00876c" stroke-width="2" d="M2082.45,-1332.09C2082.33,-1331.83 2082.2,-1331.58 2082.08,-1331.34"/>
<polygon fill="#00876c" stroke="#00876c" stroke-width="2" points="2077.67,-1324.06 2086.7,-1330.28 2079.42,-1325.99 2083.28,-1332.35 2082.85,-1332.61 2082.42,-1332.87 2078.57,-1326.51 2079,-1334.94 2077.67,-1324.06"/>
</g>
<!-- 77265 -->
<g id="node41" class="node">
<title>77265</title>
<polygon fill="none" stroke="#e09d4b" points="1522.64,-1351.66 1522.64,-1366.57 1401.17,-1377.12 1229.38,-1377.12 1107.9,-1366.57 1107.9,-1351.66 1229.38,-1341.12 1401.17,-1341.12 1522.64,-1351.66"/>
<polygon fill="none" stroke="#e09d4b" points="1526.64,-1347.99 1526.64,-1370.24 1401.34,-1381.12 1229.2,-1381.12 1103.9,-1370.24 1103.9,-1347.99 1229.2,-1337.12 1401.34,-1337.12 1526.64,-1347.99"/>
<text text-anchor="middle" x="1315.27" y="-1354.07" font-family="Times,serif" font-size="14.00">tldr&#45;title:TORQUE v2.5+ Software License v1.1</text>
</g>
<!-- 4568&#45;&gt;77265 -->
<g id="edge17" class="edge">
<title>4568&#45;&gt;77265</title>
<path fill="none" stroke="#e09d4b" stroke-width="2" d="M1915.99,-1349.71C1701.27,-1344.1 1602.64,-1342.44 1517.59,-1345.35"/>
<polygon fill="#e09d4b" stroke="#e09d4b" stroke-width="2" points="1508.91,-1345.67 1518.73,-1340.81 1511.45,-1345.08 1518.88,-1344.81 1518.9,-1345.31 1518.92,-1345.8 1511.49,-1346.08 1519.06,-1349.8 1508.91,-1345.67"/>
</g>
<!-- 4569 -->
<g id="node6" class="node">
<title>4569</title>
<text text-anchor="middle" x="2406.85" y="-237.09" font-family="Times,serif" font-size="14.00">$TEXT</text>
</g>
<!-- 4569&#45;&gt;4565 -->
<g id="edge18" class="edge">
<title>4569&#45;&gt;4565</title>
<path fill="none" stroke="#dac767" d="M2410.9,-259.79C2436.23,-370.83 2436.14,-387.97 2407.35,-626.23"/>
<polygon fill="#dac767" stroke="#dac767" points="2403.91,-625.52 2406.19,-635.87 2410.86,-626.36 2403.91,-625.52"/>
</g>
<!-- 4570 -->
<g id="node7" class="node">
<title>4570</title>
<text text-anchor="middle" x="2397.96" y="-12.99" font-family="Times,serif" font-size="14.00">$TEXT</text>
</g>
<!-- 4570&#45;&gt;4569 -->
<g id="edge19" class="edge">
<title>4570&#45;&gt;4569</title>
<path fill="none" stroke="#dac767" d="M2402.5,-35.87C2414.7,-84.73 2414.95,-99.63 2408.51,-213.07"/>
<polygon fill="#dac767" stroke="#dac767" points="2405.03,-212.66 2407.95,-222.84 2412.02,-213.06 2405.03,-212.66"/>
</g>
<!-- 4571 -->
<g id="node8" class="node">
<title>4571</title>
<text text-anchor="middle" x="2375.16" y="-721.08" font-family="Times,serif" font-size="14.00">https://fedoraproject.org/wiki/Licensing/TORQUEv1.1</text>
</g>
<!-- 4571&#45;&gt;4565 -->
<g id="edge20" class="edge">
<title>4571&#45;&gt;4565</title>
<path fill="none" stroke="#dac767" d="M2383.8,-708.26C2384.16,-707.51 2384.52,-706.77 2384.86,-706.06"/>
<polygon fill="#dac767" stroke="#dac767" points="2387.81,-708 2388.98,-697.46 2381.5,-704.97 2387.81,-708"/>
</g>
<!-- 9275 -->
<g id="node11" class="node">
<title>9275</title>
<ellipse fill="none" stroke="#e09d4b" cx="2922.98" cy="-804.94" rx="157.15" ry="28.99"/>
<text text-anchor="middle" x="2922.98" y="-808.14" font-family="Times,serif" font-size="14.00" fill="gray">FedoraEntry</text>
<text text-anchor="middle" x="2922.98" y="-791.64" font-family="Times,serif" font-size="14.00" fill="gray">730e0193d7cfbb17f1de5863e439154f</text>
</g>
<!-- 4571&#45;&gt;9275 -->
<g id="edge21" class="edge">
<title>4571&#45;&gt;9275</title>
<path fill="none" stroke="#e09d4b" d="M2532.32,-709.99C2707.88,-694.2 2752.27,-704.97 2866.13,-771.16"/>
<polygon fill="#e09d4b" stroke="#e09d4b" points="2864.19,-774.09 2874.59,-776.11 2867.73,-768.04 2864.19,-774.09"/>
</g>
<!-- 34949 -->
<g id="node21" class="node">
<title>34949</title>
<ellipse fill="none" stroke="#e18745" cx="1889.03" cy="-553.32" rx="157.15" ry="28.99"/>
<text text-anchor="middle" x="1889.03" y="-556.52" font-family="Times,serif" font-size="14.00" fill="gray">Fossology</text>
<text text-anchor="middle" x="1889.03" y="-540.02" font-family="Times,serif" font-size="14.00" fill="gray">100d3a6f4e39ddded92b9f879bdbdfed</text>
</g>
<!-- 4571&#45;&gt;34949 -->
<g id="edge22" class="edge">
<title>4571&#45;&gt;34949</title>
<path fill="none" stroke="#e18745" d="M2353.65,-708.25C2206.94,-586.47 2160.92,-552 2054.81,-547.7"/>
<polygon fill="#e18745" stroke="#e18745" points="2054.93,-544.2 2044.83,-547.4 2054.72,-551.2 2054.93,-544.2"/>
</g>
<!-- 6592 -->
<g id="node9" class="node">
<title>6592</title>
<text text-anchor="middle" x="3350.76" y="-689.59" font-family="Times,serif" font-size="14.00">[&quot;allowed&quot;]</text>
</g>
<!-- 6592&#45;&gt;9275 -->
<g id="edge23" class="edge">
<title>6592&#45;&gt;9275</title>
<path fill="none" stroke="#e09d4b" d="M3311.13,-698.05C3222.92,-706.1 3190.75,-714.31 3009.74,-775.49"/>
<polygon fill="#e09d4b" stroke="#e09d4b" points="3008.82,-772.11 3000.47,-778.63 3011.06,-778.74 3008.82,-772.11"/>
</g>
<!-- 6593 -->
<g id="node10" class="node">
<title>6593</title>
<text text-anchor="start" x="3751.06" y="-631.62" font-family="Times,serif" font-size="14.00">Fedora: </text>
<text text-anchor="start" x="3796.06" y="-631.62" font-family="Times,serif" font-weight="bold" font-size="14.00" fill="#228b22">allowed</text>
<text text-anchor="start" x="3587.19" y="-617.62" font-family="Times,serif" font-size="14.00">A license is allowed if Fedora determines that the license is a free software /</text>
<text text-anchor="start" x="3581.94" y="-603.62" font-family="Times,serif" font-size="14.00">open source license. At a high level, the inquiry involves determining whether</text>
<text text-anchor="start" x="3580.81" y="-589.62" font-family="Times,serif" font-size="14.00">the license provides software freedom, and (equivalently) making sure that the</text>
<text text-anchor="start" x="3590.94" y="-575.62" font-family="Times,serif" font-size="14.00">license does not place burdens on users&#39; exercise of its permissions that are</text>
<text text-anchor="start" x="3590.56" y="-561.62" font-family="Times,serif" font-size="14.00">inconsistent with evolving community norms and traditions around what is</text>
<text text-anchor="start" x="3582.31" y="-547.62" font-family="Times,serif" font-size="14.00">acceptable in a free software / open source license. See below for more on the</text>
<text text-anchor="start" x="3702.31" y="-533.62" font-family="Times,serif" font-size="14.00">history of Fedora licensing policy.</text>
</g>
<!-- 6593&#45;&gt;6592 -->
<g id="edge24" class="edge">
<title>6593&#45;&gt;6592</title>
<path fill="none" stroke="#e09d4b" d="M3573.06,-628.05C3531.18,-639.87 3477.18,-656.16 3401.26,-679.26"/>
<polygon fill="#e09d4b" stroke="#e09d4b" points="3400.4,-675.86 3391.85,-682.12 3402.44,-682.56 3400.4,-675.86"/>
</g>
<!-- 9275&#45;&gt;9276 -->
<g id="edge25" class="edge">
<title>9275&#45;&gt;9276</title>
<path fill="none" stroke="#e09d4b" d="M2865.4,-832.24C2789.22,-868.87 2748.37,-892.04 2549.15,-1007.61"/>
<polygon fill="#e09d4b" stroke="#e09d4b" points="2547.43,-1004.56 2540.54,-1012.6 2550.94,-1010.61 2547.43,-1004.56"/>
</g>
<!-- 9277 -->
<g id="node13" class="node">
<title>9277</title>
<polygon fill="none" stroke="#e09d4b" points="2719.03,-758.1 2719.03,-773.01 2678.04,-783.56 2620.06,-783.56 2579.06,-773.01 2579.06,-758.1 2620.06,-747.56 2678.04,-747.56 2719.03,-758.1"/>
<text text-anchor="middle" x="2649.05" y="-760.51" font-family="Times,serif" font-size="14.00">TORQUEv1.1</text>
</g>
<!-- 9277&#45;&gt;9276 -->
<g id="edge26" class="edge">
<title>9277&#45;&gt;9276</title>
<path fill="none" stroke="#e09d4b" stroke-dasharray="5,2" d="M2643.73,-783.74C2622.45,-855.81 2614.33,-870.43 2522.32,-1004.29"/>
<polygon fill="#e09d4b" stroke="#e09d4b" points="2516.83,-1012.27 2518.79,-1001.48 2518.98,-1009.16 2522.5,-1004.03 2522.5,-1004.03 2522.5,-1004.03 2518.98,-1009.16 2526.21,-1006.58 2516.83,-1012.27"/>
</g>
<!-- 12439 -->
<g id="node14" class="node">
<title>12439</title>
<text text-anchor="middle" x="1918.91" y="-2643.26" font-family="Times,serif" font-size="14.00">LicenseType Copyleft Limited</text>
</g>
<!-- 27019 -->
<g id="node15" class="node">
<title>27019</title>
<ellipse fill="none" stroke="#deb256" cx="2096.79" cy="-2237.83" rx="157.68" ry="28.99"/>
<text text-anchor="middle" x="2096.79" y="-2241.03" font-family="Times,serif" font-size="14.00" fill="gray">ScancodeData</text>
<text text-anchor="middle" x="2096.79" y="-2224.53" font-family="Times,serif" font-size="14.00" fill="gray">d4b32c62778713ede24c8f37d1fa35e2</text>
</g>
<!-- 12439&#45;&gt;27019 -->
<g id="edge27" class="edge">
<title>12439&#45;&gt;27019</title>
<path fill="none" stroke="#deb256" d="M1932.47,-2630.59C2004.17,-2536.66 2011.86,-2518.43 2084.67,-2277.91"/>
<polygon fill="#deb256" stroke="#deb256" points="2087.97,-2279.07 2087.52,-2268.49 2081.27,-2277.05 2087.97,-2279.07"/>
</g>
<!-- 27019&#45;&gt;27020 -->
<g id="edge28" class="edge">
<title>27019&#45;&gt;27020</title>
<path fill="none" stroke="#deb256" d="M2122.77,-2209.13C2247.44,-2070.69 2254.99,-2045.33 2316.8,-1699.52"/>
<polygon fill="#deb256" stroke="#deb256" points="2320.21,-1700.36 2318.52,-1689.9 2313.32,-1699.13 2320.21,-1700.36"/>
</g>
<!-- 27020&#45;&gt;4566 -->
<g id="edge29" class="edge">
<title>27020&#45;&gt;4566</title>
<path fill="none" stroke="#00876c" stroke-width="2" d="M2337.37,-1643.89C2377.89,-1571.95 2489.98,-1345.45 2529.53,-1256.16"/>
<polygon fill="#00876c" stroke="#00876c" stroke-width="2" points="2533.01,-1248.21 2533.13,-1259.17 2532.44,-1250.76 2529.46,-1257.57 2529,-1257.37 2528.55,-1257.17 2531.53,-1250.36 2524.88,-1255.57 2533.01,-1248.21"/>
</g>
<!-- 27020&#45;&gt;57842 -->
<g id="edge30" class="edge">
<title>27020&#45;&gt;57842</title>
<path fill="none" stroke="#379469" stroke-dasharray="5,2" d="M2377.95,-1685.42C2443.71,-1708.32 2485.63,-1722.5 2517.95,-1731.42"/>
<polygon fill="#379469" stroke="#379469" points="2527.39,-1733.94 2516.56,-1735.71 2523.73,-1732.96 2517.72,-1731.36 2517.72,-1731.36 2517.72,-1731.36 2523.73,-1732.96 2518.88,-1727.01 2527.39,-1733.94"/>
</g>
<!-- 27021 -->
<g id="node17" class="node">
<title>27021</title>
<polygon fill="none" stroke="black" points="2675.98,-1685.28 2675.98,-1700.2 2636.28,-1710.74 2580.14,-1710.74 2540.44,-1700.2 2540.44,-1685.28 2580.14,-1674.74 2636.28,-1674.74 2675.98,-1685.28"/>
<polygon fill="none" stroke="black" points="2679.98,-1682.21 2679.98,-1703.27 2636.81,-1714.74 2579.62,-1714.74 2536.44,-1703.27 2536.44,-1682.21 2579.62,-1670.74 2636.81,-1670.74 2679.98,-1682.21"/>
<text text-anchor="middle" x="2608.21" y="-1687.69" font-family="Times,serif" font-size="14.00">TORQUE 1.1</text>
</g>
<!-- 27021&#45;&gt;27020 -->
<g id="edge31" class="edge">
<title>27021&#45;&gt;27020</title>
<path fill="none" stroke="#deb256" stroke-width="2" d="M2536.14,-1703.29C2504.24,-1704.91 2472.64,-1699.89 2404.57,-1684.78"/>
<polygon fill="#deb256" stroke="#deb256" stroke-width="2" points="2396.17,-1682.91 2406.91,-1680.7 2398.78,-1682.98 2406.03,-1684.6 2405.93,-1685.09 2405.82,-1685.57 2398.56,-1683.95 2404.95,-1689.48 2396.17,-1682.91"/>
</g>
<!-- 27021&#45;&gt;57842 -->
<g id="edge32" class="edge">
<title>27021&#45;&gt;57842</title>
<path fill="none" stroke="#379469" stroke-dasharray="5,2" d="M2632.97,-1715.08C2634.16,-1716.18 2635.26,-1717.22 2636.3,-1718.21"/>
<polygon fill="#379469" stroke="#379469" points="2643.19,-1725.15 2632.95,-1721.22 2640.53,-1722.47 2636.15,-1718.05 2636.15,-1718.05 2636.15,-1718.05 2640.53,-1722.47 2639.34,-1714.88 2643.19,-1725.15"/>
</g>
<!-- 68577 -->
<g id="node38" class="node">
<title>68577</title>
<polygon fill="none" stroke="#00876c" points="2906.16,-1450.91 2906.16,-1465.82 2843.43,-1476.37 2754.7,-1476.37 2691.96,-1465.82 2691.96,-1450.91 2754.7,-1440.37 2843.43,-1440.37 2906.16,-1450.91"/>
<polygon fill="none" stroke="#00876c" points="2910.16,-1447.53 2910.16,-1469.21 2843.76,-1480.37 2754.37,-1480.37 2687.96,-1469.21 2687.96,-1447.53 2754.37,-1436.37 2843.76,-1436.37 2910.16,-1447.53"/>
<text text-anchor="middle" x="2799.06" y="-1453.32" font-family="Times,serif" font-size="14.00">scancode:TORQUE 1.1</text>
</g>
<!-- 27021&#45;&gt;68577 -->
<g id="edge33" class="edge">
<title>27021&#45;&gt;68577</title>
<path fill="none" stroke="#00876c" stroke-width="2" d="M2640.39,-1671.44C2750.28,-1598.34 2763.17,-1583.65 2789.75,-1491.45"/>
<polygon fill="#00876c" stroke="#00876c" stroke-width="2" points="2792.13,-1483.08 2793.71,-1493.94 2791.91,-1485.69 2789.87,-1492.84 2789.39,-1492.7 2788.91,-1492.56 2790.95,-1485.41 2785.06,-1491.47 2792.13,-1483.08"/>
</g>
<!-- 27022 -->
<g id="node18" class="node">
<title>27022</title>
<text text-anchor="middle" x="2106.18" y="-2758.36" font-family="Times,serif" font-size="14.00">https://fedoraproject.org/wiki/Licensing/TORQUEv1.1</text>
</g>
<!-- 27022&#45;&gt;27019 -->
<g id="edge34" class="edge">
<title>27022&#45;&gt;27019</title>
<path fill="none" stroke="#deb256" d="M2106.62,-2745.58C2110.01,-2610.42 2109.68,-2592.33 2098.26,-2278.32"/>
<polygon fill="#deb256" stroke="#deb256" points="2101.77,-2278.41 2097.91,-2268.54 2094.77,-2278.66 2101.77,-2278.41"/>
</g>
<!-- 27023 -->
<g id="node19" class="node">
<title>27023</title>
<text text-anchor="middle" x="2091.96" y="-2503.75" font-family="Times,serif" font-size="14.00">ScancodeData:</text>
<text text-anchor="middle" x="2091.96" y="-2487.25" font-family="Times,serif" font-size="14.00">Per Fedora, when the licensing for TORQUE 2.4 expired, the TORQUE upstream</text>
<text text-anchor="middle" x="2091.96" y="-2470.75" font-family="Times,serif" font-size="14.00">drafted a new license with updated contact information. The intention was</text>
<text text-anchor="middle" x="2091.96" y="-2454.25" font-family="Times,serif" font-size="14.00">to have a lawyer retain the same functionality as the older licensing, but</text>
<text text-anchor="middle" x="2091.96" y="-2437.75" font-family="Times,serif" font-size="14.00">because part of it was misread or accidentally ignored, v1.0 of the TORQUE</text>
<text text-anchor="middle" x="2091.96" y="-2421.25" font-family="Times,serif" font-size="14.00">v2.5+ Software License contained commercial use restrictions which made it</text>
<text text-anchor="middle" x="2091.96" y="-2404.75" font-family="Times,serif" font-size="14.00">non&#45;free. After this issue was raised on the TORQUE mailing lists, the</text>
<text text-anchor="middle" x="2091.96" y="-2388.25" font-family="Times,serif" font-size="14.00">TORQUE upstream revised the license to remove the commercial use</text>
<text text-anchor="middle" x="2091.96" y="-2371.75" font-family="Times,serif" font-size="14.00">restrictions in v1.1. The TORQUE v2.5+ Software License v1.1 is Free, but</text>
<text text-anchor="middle" x="2091.96" y="-2355.25" font-family="Times,serif" font-size="14.00">GPL incompatible because of the advertising clause. Also noteworthy is that</text>
<text text-anchor="middle" x="2091.96" y="-2338.75" font-family="Times,serif" font-size="14.00">this license references the fact that much of the TORQUE v2.5 code is</text>
<text text-anchor="middle" x="2091.96" y="-2322.25" font-family="Times,serif" font-size="14.00">derived from OpenPBS&#39;&#39;s code, so the TORQUE v2.5+ software is properly dual</text>
<text text-anchor="middle" x="2091.96" y="-2305.75" font-family="Times,serif" font-size="14.00">licensed TORQUEv1.1 and OpenPBS. This also means that this license is not</text>
<text text-anchor="middle" x="2091.96" y="-2289.25" font-family="Times,serif" font-size="14.00">useful for other codebases without removing Note 1.</text>
</g>
<!-- 27023&#45;&gt;27019 -->
<g id="edge35" class="edge">
<title>27023&#45;&gt;27019</title>
<path fill="none" stroke="#deb256" d="M2096.99,-2282.27C2096.99,-2281.09 2096.98,-2279.89 2096.98,-2278.67"/>
<polygon fill="#deb256" stroke="#deb256" points="2100.48,-2278.71 2096.94,-2268.72 2093.48,-2278.74 2100.48,-2278.71"/>
</g>
<!-- 27024 -->
<g id="node20" class="node">
<title>27024</title>
<text text-anchor="middle" x="1821.25" y="-2469.37" font-family="Times,serif" font-size="14.00">$TEXT</text>
</g>
<!-- 27024&#45;&gt;27019 -->
<g id="edge36" class="edge">
<title>27024&#45;&gt;27019</title>
<path fill="none" stroke="#deb256" d="M1849.65,-2464.65C1947.86,-2430.41 1963.91,-2416.33 2068.65,-2275.71"/>
<polygon fill="#deb256" stroke="#deb256" points="2071.28,-2278.04 2074.44,-2267.93 2065.67,-2273.86 2071.28,-2278.04"/>
</g>
<!-- 34949&#45;&gt;34950 -->
<g id="edge37" class="edge">
<title>34949&#45;&gt;34950</title>
<path fill="none" stroke="#e18745" d="M1908.26,-582.31C1969.12,-674.78 1978.17,-700.68 2053.17,-952.58"/>
<polygon fill="#e18745" stroke="#e18745" points="2049.8,-953.54 2056.01,-962.12 2056.51,-951.54 2049.8,-953.54"/>
</g>
<!-- 34951 -->
<g id="node23" class="node">
<title>34951</title>
<text text-anchor="middle" x="1640.3" y="-286.69" font-family="Times,serif" font-size="14.00">$TEXT</text>
</g>
<!-- 34951&#45;&gt;34949 -->
<g id="edge38" class="edge">
<title>34951&#45;&gt;34949</title>
<path fill="none" stroke="#e18745" d="M1668.73,-308.05C1742.35,-350.97 1758.58,-369.33 1862.06,-515.22"/>
<polygon fill="#e18745" stroke="#e18745" points="1859.16,-517.18 1867.8,-523.32 1864.87,-513.14 1859.16,-517.18"/>
</g>
<!-- 35433 -->
<g id="node24" class="node">
<title>35433</title>
<text text-anchor="middle" x="3109.03" y="-87.33" font-family="Times,serif" font-size="14.00">LicenseTag (ScopedLicenseTag &quot;OrtLicenseCategorization&quot; &quot;include&#45;in&#45;notice&#45;file&quot; NoLicenseTagText)</text>
</g>
<!-- 39884 -->
<g id="node27" class="node">
<title>39884</title>
<ellipse fill="none" stroke="#d43d51" cx="2897.17" cy="-729.71" rx="155.56" ry="28.99"/>
<text text-anchor="middle" x="2897.17" y="-732.91" font-family="Times,serif" font-size="14.00" fill="gray">OrtLicenseCategorization</text>
<text text-anchor="middle" x="2897.17" y="-716.41" font-family="Times,serif" font-size="14.00" fill="gray">b9f6bc9c89e5fb6967faedb4d8d420ec</text>
</g>
<!-- 35433&#45;&gt;39884 -->
<g id="edge39" class="edge">
<title>35433&#45;&gt;39884</title>
<path fill="none" stroke="#d43d51" d="M3108.2,-110.29C3098.93,-310.03 3093.61,-327.07 2916.48,-690.13"/>
<polygon fill="#d43d51" stroke="#d43d51" points="2913.37,-688.53 2912.13,-699.06 2919.66,-691.6 2913.37,-688.53"/>
</g>
<!-- 35444 -->
<g id="node25" class="node">
<title>35444</title>
<text text-anchor="middle" x="3515.58" y="-330.85" font-family="Times,serif" font-size="14.00">LicenseTag (ScopedLicenseTag &quot;OrtLicenseCategorization&quot; &quot;include&#45;source&#45;code&#45;offer&#45;in&#45;notice&#45;file&quot; NoLicenseTagText)</text>
</g>
<!-- 35444&#45;&gt;39884 -->
<g id="edge40" class="edge">
<title>35444&#45;&gt;39884</title>
<path fill="none" stroke="#d43d51" d="M3485.01,-353.84C3331.44,-444.04 3303.64,-461.86 2949.55,-695.18"/>
<polygon fill="#d43d51" stroke="#d43d51" points="2947.74,-692.18 2941.32,-700.61 2951.6,-698.03 2947.74,-692.18"/>
</g>
<!-- 35459 -->
<g id="node26" class="node">
<title>35459</title>
<text text-anchor="middle" x="3305.02" y="-217.52" font-family="Times,serif" font-size="14.00">LicenseTag (ScopedLicenseTag &quot;OrtLicenseCategorization&quot; &quot;copyleft&#45;limited&quot; NoLicenseTagText)</text>
</g>
<!-- 35459&#45;&gt;39884 -->
<g id="edge41" class="edge">
<title>35459&#45;&gt;39884</title>
<path fill="none" stroke="#d43d51" d="M3294.12,-240.36C3204.15,-387.01 3190.86,-403.6 2930.37,-692.84"/>
<polygon fill="#d43d51" stroke="#d43d51" points="2928.09,-690.14 2924,-699.92 2933.29,-694.83 2928.09,-690.14"/>
</g>
<!-- 39884&#45;&gt;4566 -->
<g id="edge42" class="edge">
<title>39884&#45;&gt;4566</title>
<path fill="none" stroke="#d43d51" d="M2885.66,-758.79C2826.27,-908.03 2810.22,-929.02 2575.26,-1184.78"/>
<polygon fill="#d43d51" stroke="#d43d51" points="2572.74,-1182.35 2568.55,-1192.08 2577.9,-1187.09 2572.74,-1182.35"/>
</g>
<!-- 42859 -->
<g id="node28" class="node">
<title>42859</title>
<ellipse fill="none" stroke="#379469" cx="1584.05" cy="-1657.11" rx="156.62" ry="28.99"/>
<text text-anchor="middle" x="1584.05" y="-1660.31" font-family="Times,serif" font-size="14.00" fill="gray">CavilLicenseChange</text>
<text text-anchor="middle" x="1584.05" y="-1643.81" font-family="Times,serif" font-size="14.00" fill="gray">bcb6c58f017e40a4ea29e88c9e6d71ae</text>
</g>
<!-- 42859&#45;&gt;42860 -->
<g id="edge43" class="edge">
<title>42859&#45;&gt;42860</title>
<path fill="none" stroke="#379469" d="M1667.23,-1632.2C1723.29,-1613.09 1770.97,-1588.65 1918.45,-1509.9"/>
<polygon fill="#379469" stroke="#379469" points="1919.8,-1513.15 1926.97,-1505.35 1916.5,-1506.97 1919.8,-1513.15"/>
</g>
<!-- 57841 -->
<g id="node30" class="node">
<title>57841</title>
<ellipse fill="none" stroke="#379469" cx="3167.98" cy="-1881.7" rx="158.75" ry="28.99"/>
<text text-anchor="middle" x="3167.98" y="-1884.9" font-family="Times,serif" font-size="14.00" fill="gray">MetaeffektLicense</text>
<text text-anchor="middle" x="3167.98" y="-1868.4" font-family="Times,serif" font-size="14.00" fill="gray">680e2f33d7c781580629ccbc29eb25e4</text>
</g>
<!-- 57841&#45;&gt;57842 -->
<g id="edge44" class="edge">
<title>57841&#45;&gt;57842</title>
<path fill="none" stroke="#379469" d="M3046.39,-1862.72C2981.29,-1849.78 2914.31,-1829.36 2738.22,-1773.33"/>
<polygon fill="#379469" stroke="#379469" points="2739.32,-1770.01 2728.73,-1770.31 2737.2,-1776.68 2739.32,-1770.01"/>
</g>
<!-- 57843 -->
<g id="node32" class="node">
<title>57843</title>
<polygon fill="none" stroke="#379469" points="2960.58,-2152.6 2960.58,-2167.51 2901.08,-2178.05 2816.95,-2178.05 2757.45,-2167.51 2757.45,-2152.6 2816.95,-2142.05 2901.08,-2142.05 2960.58,-2152.6"/>
<polygon fill="none" stroke="#379469" points="2964.58,-2149.24 2964.58,-2170.86 2901.44,-2182.05 2816.6,-2182.05 2753.45,-2170.86 2753.45,-2149.24 2816.6,-2138.05 2901.44,-2138.05 2964.58,-2149.24"/>
<text text-anchor="middle" x="2859.02" y="-2155" font-family="Times,serif" font-size="14.00">TORQUE License 1.1</text>
</g>
<!-- 57843&#45;&gt;57842 -->
<g id="edge45" class="edge">
<title>57843&#45;&gt;57842</title>
<path fill="none" stroke="#379469" stroke-width="2" d="M2855.07,-2137.77C2832.93,-2014.13 2824.2,-1996.99 2680.18,-1779.55"/>
<polygon fill="#379469" stroke="#379469" stroke-width="2" points="2675.46,-1772.43 2684.73,-1778.28 2677.29,-1774.29 2681.4,-1780.49 2680.98,-1780.76 2680.56,-1781.04 2676.46,-1774.84 2677.23,-1783.25 2675.46,-1772.43"/>
</g>
<!-- 57844 -->
<g id="node33" class="node">
<title>57844</title>
<polygon fill="none" stroke="#379469" points="3022.94,-1929.52 3022.94,-1944.43 2992.33,-1954.97 2949.04,-1954.97 2918.43,-1944.43 2918.43,-1929.52 2949.04,-1918.97 2992.33,-1918.97 3022.94,-1929.52"/>
<text text-anchor="middle" x="2970.69" y="-1931.92" font-family="Times,serif" font-size="14.00">TORQUE</text>
</g>
<!-- 57844&#45;&gt;57842 -->
<g id="edge46" class="edge">
<title>57844&#45;&gt;57842</title>
<path fill="none" stroke="#379469" stroke-dasharray="5,2" d="M2944.24,-1920.13C2882,-1880.53 2859.36,-1866.87 2706.52,-1776.17"/>
<polygon fill="#379469" stroke="#379469" points="2698.27,-1771.28 2709.17,-1772.51 2701.52,-1773.21 2706.87,-1776.38 2706.87,-1776.38 2706.87,-1776.38 2701.52,-1773.21 2704.58,-1780.25 2698.27,-1771.28"/>
</g>
<!-- 57845 -->
<g id="node34" class="node">
<title>57845</title>
<polygon fill="none" stroke="#379469" points="2792.07,-1789.29 2792.07,-1804.2 2731.6,-1814.75 2646.09,-1814.75 2585.62,-1804.2 2585.62,-1789.29 2646.09,-1778.75 2731.6,-1778.75 2792.07,-1789.29"/>
<text text-anchor="middle" x="2688.85" y="-1791.7" font-family="Times,serif" font-size="14.00">TORQUE, Version 1.1</text>
</g>
<!-- 57845&#45;&gt;57842 -->
<g id="edge47" class="edge">
<title>57845&#45;&gt;57842</title>
<path fill="none" stroke="#379469" stroke-dasharray="5,2" d="M2682.48,-1778.4C2682.4,-1778.25 2682.32,-1778.1 2682.23,-1777.95"/>
<polygon fill="#379469" stroke="#379469" points="2677.84,-1771.36 2687.13,-1777.19 2679.94,-1774.51 2683.39,-1779.68 2683.39,-1779.68 2683.39,-1779.68 2679.94,-1774.51 2679.64,-1782.18 2677.84,-1771.36"/>
</g>
<!-- 57846 -->
<g id="node35" class="node">
<title>57846</title>
<polygon fill="none" stroke="#379469" points="3155.82,-2097.93 3155.82,-2112.85 3075.56,-2123.39 2962.05,-2123.39 2881.79,-2112.85 2881.79,-2097.93 2962.05,-2087.39 3075.56,-2087.39 3155.82,-2097.93"/>
<text text-anchor="middle" x="3018.8" y="-2100.34" font-family="Times,serif" font-size="14.00">TORQUE License, Version 1.1</text>
</g>
<!-- 57846&#45;&gt;57842 -->
<g id="edge48" class="edge">
<title>57846&#45;&gt;57842</title>
<path fill="none" stroke="#379469" stroke-dasharray="5,2" d="M3004.83,-2087.15C2927.28,-1986.12 2911.86,-1971 2692.89,-1777.76"/>
<polygon fill="#379469" stroke="#379469" points="2685.6,-1771.32 2696.07,-1774.56 2688.43,-1773.82 2693.09,-1777.93 2693.09,-1777.93 2693.09,-1777.93 2688.43,-1773.82 2690.12,-1781.31 2685.6,-1771.32"/>
</g>
<!-- 57847 -->
<g id="node36" class="node">
<title>57847</title>
<polygon fill="none" stroke="#379469" points="2739.17,-2182.14 2739.17,-2197.05 2678.05,-2207.59 2591.62,-2207.59 2530.5,-2197.05 2530.5,-2182.14 2591.62,-2171.59 2678.05,-2171.59 2739.17,-2182.14"/>
<text text-anchor="middle" x="2634.84" y="-2184.54" font-family="Times,serif" font-size="14.00">TORQUE License, 1.1</text>
</g>
<!-- 57847&#45;&gt;57842 -->
<g id="edge49" class="edge">
<title>57847&#45;&gt;57842</title>
<path fill="none" stroke="#379469" stroke-dasharray="5,2" d="M2643.6,-2171.4C2709.59,-2033.99 2710.57,-2018.5 2665.67,-1781.2"/>
<polygon fill="#379469" stroke="#379469" points="2663.86,-1771.67 2670.15,-1780.66 2664.57,-1775.38 2665.73,-1781.49 2665.73,-1781.49 2665.73,-1781.49 2664.57,-1775.38 2661.3,-1782.33 2663.86,-1771.67"/>
</g>
<!-- 68576 -->
<g id="node37" class="node">
<title>68576</title>
<ellipse fill="none" stroke="#00876c" cx="2971.94" cy="-1202.9" rx="153.44" ry="28.99"/>
<text text-anchor="middle" x="2971.94" y="-1206.1" font-family="Times,serif" font-size="14.00" fill="gray">LicenseLynx</text>
<text text-anchor="middle" x="2971.94" y="-1189.6" font-family="Times,serif" font-size="14.00" fill="gray">c3c7b5757fef20a72f98dbe71ee8cf32</text>
</g>
<!-- 68576&#45;&gt;4566 -->
<g id="edge50" class="edge">
<title>68576&#45;&gt;4566</title>
<path fill="none" stroke="#00876c" d="M2822.4,-1196.12C2783.63,-1197.54 2734.09,-1201.61 2652.84,-1209.16"/>
<polygon fill="#00876c" stroke="#00876c" points="2652.84,-1205.64 2643.2,-1210.06 2653.49,-1212.61 2652.84,-1205.64"/>
</g>
<!-- 68577&#45;&gt;4566 -->
<g id="edge51" class="edge">
<title>68577&#45;&gt;4566</title>
<path fill="none" stroke="#00876c" stroke-width="2" d="M2788.64,-1436.04C2745.3,-1343.9 2731.33,-1328.76 2596.4,-1250.18"/>
<polygon fill="#00876c" stroke="#00876c" stroke-width="2" points="2589.02,-1245.89 2599.92,-1247.02 2591.48,-1246.74 2597.91,-1250.48 2597.66,-1250.91 2597.41,-1251.35 2590.98,-1247.61 2595.4,-1254.8 2589.02,-1245.89"/>
</g>
<!-- 68578&#45;&gt;4566 -->
<g id="edge52" class="edge">
<title>68578&#45;&gt;4566</title>
<path fill="none" stroke="#00876c" stroke-width="2" d="M2129.03,-1278.2C2304.45,-1236.12 2366.29,-1222.94 2434.02,-1219.64"/>
<polygon fill="#00876c" stroke="#00876c" stroke-width="2" points="2442.52,-1219.29 2432.71,-1224.19 2439.98,-1219.89 2432.55,-1220.2 2432.53,-1219.7 2432.51,-1219.2 2439.94,-1218.89 2432.34,-1215.2 2442.52,-1219.29"/>
</g>
<!-- 77264 -->
<g id="node40" class="node">
<title>77264</title>
<ellipse fill="none" stroke="#e09d4b" cx="722.94" cy="-1535.95" rx="155.03" ry="28.99"/>
<text text-anchor="middle" x="722.94" y="-1539.15" font-family="Times,serif" font-size="14.00" fill="gray">TLDRNaming</text>
<text text-anchor="middle" x="722.94" y="-1522.65" font-family="Times,serif" font-size="14.00" fill="gray">1fc4355ed09fb8715c5a3d2f39151a1f</text>
</g>
<!-- 77264&#45;&gt;77265 -->
<g id="edge53" class="edge">
<title>77264&#45;&gt;77265</title>
<path fill="none" stroke="#e09d4b" d="M781.18,-1508.74C889.53,-1459 937.93,-1445.33 1209.26,-1383.28"/>
<polygon fill="#e09d4b" stroke="#e09d4b" points="1209.81,-1386.75 1218.78,-1381.11 1208.25,-1379.92 1209.81,-1386.75"/>
</g>
<!-- 77266 -->
<g id="node42" class="node">
<title>77266</title>
<polygon fill="none" stroke="#e09d4b" points="862.35,-1187.67 862.35,-1202.58 750.61,-1213.12 592.59,-1213.12 480.84,-1202.58 480.84,-1187.67 592.59,-1177.12 750.61,-1177.12 862.35,-1187.67"/>
<polygon fill="none" stroke="#e09d4b" points="866.35,-1184.03 866.35,-1206.22 750.8,-1217.12 592.4,-1217.12 476.84,-1206.22 476.84,-1184.03 592.4,-1173.12 750.8,-1173.12 866.35,-1184.03"/>
<text text-anchor="middle" x="671.6" y="-1190.07" font-family="Times,serif" font-size="14.00">tldr&#45;slug:torque&#45;v2.5+&#45;software&#45;license&#45;v1.1</text>
</g>
<!-- 77266&#45;&gt;77265 -->
<g id="edge54" class="edge">
<title>77266&#45;&gt;77265</title>
<path fill="none" stroke="#e09d4b" stroke-width="2" d="M735.14,-1217.51C855.03,-1259.21 907.26,-1271.98 1205.14,-1335.63"/>
<polygon fill="#e09d4b" stroke="#e09d4b" stroke-width="2" points="1213.46,-1337.4 1202.74,-1339.71 1210.84,-1337.36 1203.57,-1335.8 1203.68,-1335.31 1203.78,-1334.82 1211.05,-1336.38 1204.62,-1330.91 1213.46,-1337.4"/>
</g>
<!-- 77267 -->
<g id="node43" class="node">
<title>77267</title>
<polygon fill="none" stroke="#e09d4b" points="311.94,-1067.6 311.94,-1082.51 221.61,-1093.05 93.88,-1093.05 3.56,-1082.51 3.56,-1067.6 93.88,-1057.05 221.61,-1057.05 311.94,-1067.6"/>
<polygon fill="none" stroke="#e09d4b" points="315.94,-1064.04 315.94,-1086.07 221.85,-1097.05 93.65,-1097.05 -0.44,-1086.07 -0.44,-1064.04 93.65,-1053.05 221.85,-1053.05 315.94,-1064.04"/>
<text text-anchor="middle" x="157.75" y="-1070" font-family="Times,serif" font-size="14.00">torque&#45;v2.5+&#45;software&#45;license&#45;v1.1</text>
</g>
<!-- 77267&#45;&gt;77266 -->
<g id="edge55" class="edge">
<title>77267&#45;&gt;77266</title>
<path fill="none" stroke="#e09d4b" stroke-width="2" d="M232.92,-1096.2C311.36,-1117.8 364.03,-1129.67 563.39,-1172.12"/>
<polygon fill="#e09d4b" stroke="#e09d4b" stroke-width="2" points="571.85,-1173.92 561.13,-1176.24 569.24,-1173.88 561.97,-1172.33 562.07,-1171.84 562.18,-1171.35 569.45,-1172.9 563.01,-1167.44 571.85,-1173.92"/>
</g>
<!-- 77268 -->
<g id="node44" class="node">
<title>77268</title>
<text text-anchor="middle" x="209.23" y="-1681.44" font-family="Times,serif" font-size="14.00">TLDR: https://tldrlegal.com/license/torque&#45;v2.5+&#45;software&#45;license&#45;v1.1</text>
</g>
<!-- 77268&#45;&gt;77264 -->
<g id="edge56" class="edge">
<title>77268&#45;&gt;77264</title>
<path fill="none" stroke="#e09d4b" d="M254.36,-1668.58C351.26,-1630.49 390.48,-1619.03 618.2,-1562.08"/>
<polygon fill="#e09d4b" stroke="#e09d4b" points="618.87,-1565.52 627.72,-1559.7 617.17,-1558.73 618.87,-1565.52"/>
</g>
</g>
</svg>
