<?xml version="1.0" encoding="UTF-8" standalone="no"?>
<!DOCTYPE svg PUBLIC "-//W3C//DTD SVG 1.1//EN"
 "http://www.w3.org/Graphics/SVG/1.1/DTD/svg11.dtd">
<!-- Generated by graphviz version 10.0.1 (0)
 -->
<!-- Pages: 1 -->
<svg width="2210pt" height="2614pt"
 viewBox="0.00 0.00 2210.00 2614.00" xmlns="http://www.w3.org/2000/svg" xmlns:xlink="http://www.w3.org/1999/xlink">
<g id="graph0" class="graph" transform="scale(1 1) rotate(0) translate(4 2610)">
<polygon fill="white" stroke="none" points="-4,4 -4,-2610 2206,-2610 2206,4 -4,4"/>
<!-- 5 -->
<g id="node1" class="node">
<title>5</title>
<text text-anchor="start" x="249.33" y="-619.64" font-family="Times,serif" font-size="14.00">OSI: </text>
<text text-anchor="start" x="278.58" y="-619.64" font-family="Times,serif" font-weight="bold" font-size="14.00" fill="#8b0000">Rejected</text>
</g>
<!-- 4653 -->
<g id="node2" class="node">
<title>4653</title>
<ellipse fill="none" stroke="#dac767" cx="654.08" cy="-636.75" rx="157.15" ry="28.99"/>
<text text-anchor="middle" x="654.08" y="-639.95" font-family="Times,serif" font-size="14.00" fill="gray">SPDXLicense</text>
<text text-anchor="middle" x="654.08" y="-623.45" font-family="Times,serif" font-size="14.00" fill="gray">9cf0e719f9ba1ea325e9a4407db7dd9b</text>
</g>
<!-- 5&#45;&gt;4653 -->
<g id="edge1" class="edge">
<title>5&#45;&gt;4653</title>
<path fill="none" stroke="#dac767" d="M336.66,-607.25C407.54,-584.02 439.33,-583.65 549.88,-610.37"/>
<polygon fill="#dac767" stroke="#dac767" points="548.81,-613.71 559.36,-612.68 550.47,-606.91 548.81,-613.71"/>
</g>
<!-- 4654 -->
<g id="node3" class="node">
<title>4654</title>
<polygon fill="none" stroke="black" points="1157,-977.46 1157,-992.38 1121.2,-1002.92 1070.56,-1002.92 1034.76,-992.38 1034.76,-977.46 1070.56,-966.92 1121.2,-966.92 1157,-977.46"/>
<polygon fill="none" stroke="black" points="1161,-974.47 1161,-995.37 1121.78,-1006.92 1069.99,-1006.92 1030.76,-995.37 1030.76,-974.47 1069.99,-962.92 1121.78,-962.92 1161,-974.47"/>
<polygon fill="none" stroke="black" points="1165,-971.48 1165,-998.36 1122.35,-1010.92 1069.41,-1010.92 1026.76,-998.36 1026.76,-971.48 1069.41,-958.92 1122.35,-958.92 1165,-971.48"/>
<text text-anchor="middle" x="1095.88" y="-979.87" font-family="Times,serif" font-size="14.00">spdx:UCAR</text>
</g>
<!-- 4653&#45;&gt;4654 -->
<g id="edge2" class="edge">
<title>4653&#45;&gt;4654</title>
<path fill="none" stroke="#dac767" d="M717.98,-663.6C827.46,-711.45 861.99,-743.81 1062.58,-950.57"/>
<polygon fill="#dac767" stroke="#dac767" points="1059.87,-952.81 1069.34,-957.55 1064.89,-947.93 1059.87,-952.81"/>
</g>
<!-- 9295 -->
<g id="node13" class="node">
<title>9295</title>
<polygon fill="none" stroke="#e09d4b" points="1161.52,-1045.14 1161.52,-1060.06 1120.53,-1070.6 1062.55,-1070.6 1021.55,-1060.06 1021.55,-1045.14 1062.55,-1034.6 1120.53,-1034.6 1161.52,-1045.14"/>
<polygon fill="none" stroke="#e09d4b" points="1165.52,-1042.04 1165.52,-1063.16 1121.03,-1074.6 1062.04,-1074.6 1017.55,-1063.16 1017.55,-1042.04 1062.04,-1030.6 1121.03,-1030.6 1165.52,-1042.04"/>
<text text-anchor="middle" x="1091.54" y="-1047.55" font-family="Times,serif" font-size="14.00">Fedora:UCAR</text>
</g>
<!-- 4654&#45;&gt;9295 -->
<g id="edge3" class="edge">
<title>4654&#45;&gt;9295</title>
<path fill="none" stroke="#e09d4b" stroke-width="2" d="M1093.3,-1011.07C1093.16,-1013.39 1093.03,-1015.99 1092.89,-1018.99"/>
<polygon fill="#e09d4b" stroke="#e09d4b" stroke-width="2" points="1092.52,-1027.71 1088.45,-1017.52 1092.13,-1025.12 1092.45,-1017.69 1092.95,-1017.71 1093.45,-1017.74 1093.13,-1025.17 1097.44,-1017.91 1092.52,-1027.71"/>
</g>
<!-- 32578 -->
<g id="node19" class="node">
<title>32578</title>
<polygon fill="none" stroke="black" points="1002.5,-1321.12 1002.5,-1336.03 962.48,-1346.58 905.88,-1346.58 865.85,-1336.03 865.85,-1321.12 905.88,-1310.58 962.48,-1310.58 1002.5,-1321.12"/>
<polygon fill="none" stroke="black" points="1006.5,-1318.04 1006.5,-1339.11 963,-1350.58 905.36,-1350.58 861.85,-1339.11 861.85,-1318.04 905.36,-1306.58 963,-1306.58 1006.5,-1318.04"/>
<text text-anchor="middle" x="934.18" y="-1323.53" font-family="Times,serif" font-size="14.00">scancode:ucar</text>
</g>
<!-- 4654&#45;&gt;32578 -->
<g id="edge4" class="edge">
<title>4654&#45;&gt;32578</title>
<path fill="none" stroke="#deb256" stroke-width="2" d="M1079.11,-1011.38C1045.73,-1073.54 972.7,-1228.63 944.91,-1296.24"/>
<polygon fill="#deb256" stroke="#deb256" stroke-width="2" points="941.77,-1304.05 941.33,-1293.09 942.26,-1301.49 945.04,-1294.59 945.5,-1294.78 945.97,-1294.96 943.19,-1301.86 949.68,-1296.46 941.77,-1304.05"/>
</g>
<!-- 58408 -->
<g id="node28" class="node">
<title>58408</title>
<polygon fill="none" stroke="#379469" points="1260.74,-1321.92 1260.74,-1336.83 1190.86,-1347.37 1092.04,-1347.37 1022.16,-1336.83 1022.16,-1321.92 1092.04,-1311.37 1190.86,-1311.37 1260.74,-1321.92"/>
<polygon fill="none" stroke="#379469" points="1264.74,-1318.47 1264.74,-1340.27 1191.16,-1351.37 1091.74,-1351.37 1018.16,-1340.27 1018.16,-1318.47 1091.74,-1307.37 1191.16,-1307.37 1264.74,-1318.47"/>
<text text-anchor="middle" x="1141.45" y="-1324.32" font-family="Times,serif" font-size="14.00">metaeffekt:UCAR License</text>
</g>
<!-- 4654&#45;&gt;58408 -->
<g id="edge5" class="edge">
<title>4654&#45;&gt;58408</title>
<path fill="none" stroke="#379469" stroke-width="2" d="M1103.78,-1011.26C1125.9,-1086.01 1128.17,-1108.2 1139.45,-1295.9"/>
<polygon fill="#379469" stroke="#379469" stroke-width="2" points="1139.97,-1304.58 1134.88,-1294.87 1139.31,-1302.05 1138.87,-1294.63 1139.37,-1294.6 1139.87,-1294.57 1140.31,-1301.99 1143.86,-1294.33 1139.97,-1304.58"/>
</g>
<!-- 4655 -->
<g id="node4" class="node">
<title>4655</title>
<polygon fill="none" stroke="black" points="1299.68,-1262.81 1299.68,-1277.72 1276.54,-1288.27 1243.8,-1288.27 1220.65,-1277.72 1220.65,-1262.81 1243.8,-1252.27 1276.54,-1252.27 1299.68,-1262.81"/>
<polygon fill="none" stroke="black" points="1303.68,-1260.24 1303.68,-1280.3 1277.4,-1292.27 1242.93,-1292.27 1216.65,-1280.3 1216.65,-1260.24 1242.93,-1248.27 1277.4,-1248.27 1303.68,-1260.24"/>
<text text-anchor="middle" x="1260.17" y="-1265.22" font-family="Times,serif" font-size="14.00">UCAR</text>
</g>
<!-- 4655&#45;&gt;4654 -->
<g id="edge6" class="edge">
<title>4655&#45;&gt;4654</title>
<path fill="none" stroke="black" stroke-width="2" d="M1254.04,-1247.94C1211.87,-1094.57 1202.62,-1069.16 1136.96,-1016.57"/>
<polygon fill="black" stroke="black" stroke-width="2" points="1130.13,-1011.18 1140.77,-1013.85 1132.45,-1012.37 1138.29,-1016.99 1137.98,-1017.38 1137.67,-1017.77 1131.83,-1013.16 1135.19,-1020.91 1130.13,-1011.18"/>
</g>
<!-- 4655&#45;&gt;9295 -->
<g id="edge7" class="edge">
<title>4655&#45;&gt;9295</title>
<path fill="none" stroke="#e09d4b" stroke-width="2" d="M1251.83,-1247.88C1210.08,-1136.07 1199.28,-1114.73 1137.74,-1078.41"/>
<polygon fill="#e09d4b" stroke="#e09d4b" stroke-width="2" points="1130.39,-1074.16 1141.3,-1075.28 1132.86,-1075.01 1139.3,-1078.74 1139.05,-1079.17 1138.8,-1079.6 1132.36,-1075.87 1136.79,-1083.06 1130.39,-1074.16"/>
</g>
<!-- 10316 -->
<g id="node16" class="node">
<title>10316</title>
<polygon fill="none" stroke="#00876c" points="1319.28,-1582.97 1319.28,-1597.89 1273.74,-1608.43 1209.33,-1608.43 1163.79,-1597.89 1163.79,-1582.97 1209.33,-1572.43 1273.74,-1572.43 1319.28,-1582.97"/>
<polygon fill="none" stroke="#00876c" points="1323.28,-1579.79 1323.28,-1601.06 1274.19,-1612.43 1208.88,-1612.43 1159.79,-1601.06 1159.79,-1579.79 1208.88,-1568.43 1274.19,-1568.43 1323.28,-1579.79"/>
<text text-anchor="middle" x="1241.53" y="-1585.38" font-family="Times,serif" font-size="14.00">BlueOak:UCAR</text>
</g>
<!-- 4655&#45;&gt;10316 -->
<g id="edge8" class="edge">
<title>4655&#45;&gt;10316</title>
<path fill="none" stroke="#00876c" stroke-width="2" d="M1264.57,-1292.72C1296,-1453.43 1297.53,-1473.66 1257.25,-1558.14"/>
<polygon fill="#00876c" stroke="#00876c" stroke-width="2" points="1253.46,-1566.01 1253.74,-1555.05 1254.12,-1563.49 1257.34,-1556.78 1257.8,-1557 1258.25,-1557.22 1255.02,-1563.92 1261.85,-1558.95 1253.46,-1566.01"/>
</g>
<!-- 4655&#45;&gt;32578 -->
<g id="edge9" class="edge">
<title>4655&#45;&gt;32578</title>
<path fill="none" stroke="black" stroke-width="2" d="M1216.2,-1266.96C1073.61,-1256.48 1046.3,-1258.59 976.52,-1301.51"/>
<polygon fill="black" stroke="black" stroke-width="2" points="969.39,-1305.96 975.5,-1296.85 971.3,-1304.18 977.62,-1300.24 977.88,-1300.67 978.14,-1301.09 971.83,-1305.03 980.26,-1304.49 969.39,-1305.96"/>
</g>
<!-- 42880 -->
<g id="node26" class="node">
<title>42880</title>
<polygon fill="none" stroke="#379469" points="1630.5,-1356.22 1630.5,-1371.13 1594.37,-1381.68 1543.28,-1381.68 1507.15,-1371.13 1507.15,-1356.22 1543.28,-1345.68 1594.37,-1345.68 1630.5,-1356.22"/>
<polygon fill="none" stroke="#379469" points="1634.5,-1353.22 1634.5,-1374.13 1594.94,-1385.68 1542.71,-1385.68 1503.15,-1374.13 1503.15,-1353.22 1542.71,-1341.68 1594.94,-1341.68 1634.5,-1353.22"/>
<text text-anchor="middle" x="1568.82" y="-1358.63" font-family="Times,serif" font-size="14.00">cavil:UCAR</text>
</g>
<!-- 4655&#45;&gt;42880 -->
<g id="edge10" class="edge">
<title>4655&#45;&gt;42880</title>
<path fill="none" stroke="#379469" stroke-width="2" d="M1304.01,-1280.21C1438.32,-1310.74 1473.29,-1319.6 1519.78,-1340.35"/>
<polygon fill="#379469" stroke="#379469" stroke-width="2" points="1527.7,-1343.96 1516.73,-1343.91 1525.16,-1343.35 1518.39,-1340.27 1518.6,-1339.81 1518.8,-1339.36 1525.57,-1342.44 1520.46,-1335.72 1527.7,-1343.96"/>
</g>
<!-- 4655&#45;&gt;58408 -->
<g id="edge11" class="edge">
<title>4655&#45;&gt;58408</title>
<path fill="none" stroke="#379469" stroke-dasharray="5,2" d="M1236.49,-1289.79C1229.06,-1295.06 1221.4,-1299.23 1209.89,-1304.12"/>
<polygon fill="#379469" stroke="#379469" points="1200.9,-1307.77 1208.48,-1299.84 1204.41,-1306.35 1210.17,-1304.01 1210.17,-1304.01 1210.17,-1304.01 1204.41,-1306.35 1211.86,-1308.18 1200.9,-1307.77"/>
</g>
<!-- 4656 -->
<g id="node5" class="node">
<title>4656</title>
<polygon fill="none" stroke="black" points="1192.58,-1258.95 1192.58,-1273.87 1149.63,-1284.41 1088.9,-1284.41 1045.96,-1273.87 1045.96,-1258.95 1088.9,-1248.41 1149.63,-1248.41 1192.58,-1258.95"/>
<polygon fill="none" stroke="black" points="1196.58,-1255.82 1196.58,-1277 1150.12,-1288.41 1088.42,-1288.41 1041.96,-1277 1041.96,-1255.82 1088.42,-1244.41 1150.12,-1244.41 1196.58,-1255.82"/>
<text text-anchor="middle" x="1119.27" y="-1261.36" font-family="Times,serif" font-size="14.00">UCAR License</text>
</g>
<!-- 4656&#45;&gt;4654 -->
<g id="edge12" class="edge">
<title>4656&#45;&gt;4654</title>
<path fill="none" stroke="#dac767" stroke-width="2" d="M1118.17,-1243.92C1111.17,-1100.46 1109.57,-1072.56 1101.9,-1022.43"/>
<polygon fill="#dac767" stroke="#dac767" stroke-width="2" points="1100.54,-1013.76 1106.53,-1022.95 1101.43,-1016.22 1102.58,-1023.56 1102.09,-1023.64 1101.59,-1023.72 1100.45,-1016.37 1097.64,-1024.34 1100.54,-1013.76"/>
</g>
<!-- 4656&#45;&gt;9295 -->
<g id="edge13" class="edge">
<title>4656&#45;&gt;9295</title>
<path fill="none" stroke="#e09d4b" stroke-dasharray="5,2" d="M1117.42,-1244.29C1109,-1143.9 1106.73,-1120.29 1099.2,-1085.62"/>
<polygon fill="#e09d4b" stroke="#e09d4b" points="1097.07,-1076.13 1103.65,-1084.91 1097.9,-1079.82 1099.26,-1085.89 1099.26,-1085.89 1099.26,-1085.89 1097.9,-1079.82 1094.87,-1086.88 1097.07,-1076.13"/>
</g>
<!-- 4656&#45;&gt;10316 -->
<g id="edge14" class="edge">
<title>4656&#45;&gt;10316</title>
<path fill="none" stroke="#00876c" stroke-width="2" d="M1129.26,-1288.87C1206.61,-1462.65 1216.77,-1486.76 1233.76,-1557.37"/>
<polygon fill="#00876c" stroke="#00876c" stroke-width="2" points="1235.76,-1565.78 1229.07,-1557.09 1234.68,-1563.4 1232.96,-1556.16 1233.45,-1556.05 1233.93,-1555.93 1235.66,-1563.17 1237.82,-1555.01 1235.76,-1565.78"/>
</g>
<!-- 4656&#45;&gt;32578 -->
<g id="edge15" class="edge">
<title>4656&#45;&gt;32578</title>
<path fill="none" stroke="#deb256" stroke-width="2" d="M1054.37,-1280.51C1015.39,-1289.28 995.74,-1294.83 978.23,-1302.94"/>
<polygon fill="#deb256" stroke="#deb256" stroke-width="2" points="970.79,-1306.66 977.73,-1298.16 972.86,-1305.06 979.51,-1301.74 979.74,-1302.19 979.96,-1302.63 973.31,-1305.96 981.75,-1306.21 970.79,-1306.66"/>
</g>
<!-- 4656&#45;&gt;58408 -->
<g id="edge16" class="edge">
<title>4656&#45;&gt;58408</title>
<path fill="none" stroke="#379469" stroke-width="2" d="M1136.58,-1288.72C1138.16,-1291.3 1139.35,-1293.7 1140.21,-1296.15"/>
<polygon fill="#379469" stroke="#379469" stroke-width="2" points="1141.76,-1304.75 1135.56,-1295.7 1140.81,-1302.31 1139.5,-1294.99 1139.99,-1294.91 1140.48,-1294.82 1141.8,-1302.14 1144.42,-1294.11 1141.76,-1304.75"/>
</g>
<!-- 68618 -->
<g id="node30" class="node">
<title>68618</title>
<polygon fill="none" stroke="#00876c" points="1460.79,-1046.69 1460.79,-1061.6 1405.19,-1072.14 1326.56,-1072.14 1270.96,-1061.6 1270.96,-1046.69 1326.56,-1036.14 1405.19,-1036.14 1460.79,-1046.69"/>
<polygon fill="none" stroke="#00876c" points="1464.79,-1043.37 1464.79,-1064.91 1405.57,-1076.14 1326.19,-1076.14 1266.96,-1064.91 1266.96,-1043.37 1326.19,-1032.14 1405.57,-1032.14 1464.79,-1043.37"/>
<text text-anchor="middle" x="1365.88" y="-1049.09" font-family="Times,serif" font-size="14.00">spdx:UCAR License</text>
</g>
<!-- 4656&#45;&gt;68618 -->
<g id="edge17" class="edge">
<title>4656&#45;&gt;68618</title>
<path fill="none" stroke="#00876c" stroke-width="2" d="M1144.2,-1243.95C1259.73,-1139.92 1285.27,-1117.23 1328.48,-1083.22"/>
<polygon fill="#00876c" stroke="#00876c" stroke-width="2" points="1335.16,-1077.98 1330.06,-1087.69 1333.45,-1079.96 1327.6,-1084.54 1327.29,-1084.15 1326.98,-1083.76 1332.83,-1079.17 1324.51,-1080.61 1335.16,-1077.98"/>
</g>
<!-- 4657 -->
<g id="node6" class="node">
<title>4657</title>
<text text-anchor="middle" x="350.01" y="-375.44" font-family="Times,serif" font-size="14.00">$TEXT</text>
</g>
<!-- 4657&#45;&gt;4653 -->
<g id="edge18" class="edge">
<title>4657&#45;&gt;4653</title>
<path fill="none" stroke="#dac767" d="M378.59,-398.3C450.36,-443.4 471.22,-461.61 616.2,-600.45"/>
<polygon fill="#dac767" stroke="#dac767" points="613.36,-602.58 623,-606.97 618.2,-597.52 613.36,-602.58"/>
</g>
<!-- 4658 -->
<g id="node7" class="node">
<title>4658</title>
<text text-anchor="middle" x="183.02" y="-238.44" font-family="Times,serif" font-size="14.00">$TEXT</text>
</g>
<!-- 4658&#45;&gt;4657 -->
<g id="edge19" class="edge">
<title>4658&#45;&gt;4657</title>
<path fill="none" stroke="#dac767" d="M210.51,-261.23C239.24,-280.36 256.25,-295.06 322.03,-354.98"/>
<polygon fill="#dac767" stroke="#dac767" points="319.43,-357.34 329.18,-361.49 324.14,-352.17 319.43,-357.34"/>
</g>
<!-- 4659 -->
<g id="node8" class="node">
<title>4659</title>
<text text-anchor="middle" x="513.29" y="-105.33" font-family="Times,serif" font-size="14.00">https://github.com/Unidata/UDUNITS&#45;2/blob/master/COPYRIGHT</text>
</g>
<!-- 4659&#45;&gt;4653 -->
<g id="edge20" class="edge">
<title>4659&#45;&gt;4653</title>
<path fill="none" stroke="#dac767" d="M515.12,-127.96C530.23,-272.82 534.79,-290.09 640.45,-597.14"/>
<polygon fill="#dac767" stroke="#dac767" points="637.03,-597.97 643.59,-606.28 643.65,-595.69 637.03,-597.97"/>
</g>
<!-- 5550 -->
<g id="node9" class="node">
<title>5550</title>
<text text-anchor="middle" x="863.97" y="-2091.45" font-family="Times,serif" font-size="14.00">LicenseType Permissive</text>
</g>
<!-- 10315 -->
<g id="node15" class="node">
<title>10315</title>
<ellipse fill="none" stroke="#00876c" cx="1250.66" cy="-2085" rx="162.46" ry="28.99"/>
<text text-anchor="middle" x="1250.66" y="-2088.2" font-family="Times,serif" font-size="14.00" fill="gray">BlueOakCouncil</text>
<text text-anchor="middle" x="1250.66" y="-2071.7" font-family="Times,serif" font-size="14.00" fill="gray">2d3863920abc57637037965c30377939</text>
</g>
<!-- 5550&#45;&gt;10315 -->
<g id="edge21" class="edge">
<title>5550&#45;&gt;10315</title>
<path fill="none" stroke="#00876c" d="M911.56,-2114.38C1031.64,-2158.78 1062.58,-2161.06 1175.41,-2116.13"/>
<polygon fill="#00876c" stroke="#00876c" points="1176.48,-2119.47 1184.45,-2112.5 1173.87,-2112.98 1176.48,-2119.47"/>
</g>
<!-- 32577 -->
<g id="node18" class="node">
<title>32577</title>
<ellipse fill="none" stroke="#deb256" cx="662.79" cy="-1757.26" rx="156.09" ry="28.99"/>
<text text-anchor="middle" x="662.79" y="-1760.46" font-family="Times,serif" font-size="14.00" fill="gray">ScancodeData</text>
<text text-anchor="middle" x="662.79" y="-1743.96" font-family="Times,serif" font-size="14.00" fill="gray">59500afeef4c56d26fd8ea609d6921d4</text>
</g>
<!-- 5550&#45;&gt;32577 -->
<g id="edge22" class="edge">
<title>5550&#45;&gt;32577</title>
<path fill="none" stroke="#deb256" d="M839.29,-2078.54C732.82,-2000.58 722.76,-1983.17 673.43,-1797.48"/>
<polygon fill="#deb256" stroke="#deb256" points="676.84,-1796.71 670.9,-1787.94 670.08,-1798.5 676.84,-1796.71"/>
</g>
<!-- 6592 -->
<g id="node10" class="node">
<title>6592</title>
<text text-anchor="middle" x="921.42" y="-461.59" font-family="Times,serif" font-size="14.00">[&quot;allowed&quot;]</text>
</g>
<!-- 9294 -->
<g id="node12" class="node">
<title>9294</title>
<ellipse fill="none" stroke="#e09d4b" cx="859.53" cy="-762.39" rx="160.34" ry="28.99"/>
<text text-anchor="middle" x="859.53" y="-765.59" font-family="Times,serif" font-size="14.00" fill="gray">FedoraEntry</text>
<text text-anchor="middle" x="859.53" y="-749.09" font-family="Times,serif" font-size="14.00" fill="gray">d13a1c5822068cd05407050007753afb</text>
</g>
<!-- 6592&#45;&gt;9294 -->
<g id="edge23" class="edge">
<title>6592&#45;&gt;9294</title>
<path fill="none" stroke="#e09d4b" d="M911.87,-484.41C875.71,-552.18 872.22,-568.8 862.16,-721.83"/>
<polygon fill="#e09d4b" stroke="#e09d4b" points="858.68,-721.36 861.52,-731.57 865.67,-721.82 858.68,-721.36"/>
</g>
<!-- 6593 -->
<g id="node11" class="node">
<title>6593</title>
<text text-anchor="start" x="879.8" y="-400.98" font-family="Times,serif" font-size="14.00">Fedora: </text>
<text text-anchor="start" x="924.8" y="-400.98" font-family="Times,serif" font-weight="bold" font-size="14.00" fill="#228b22">allowed</text>
<text text-anchor="start" x="715.93" y="-386.98" font-family="Times,serif" font-size="14.00">A license is allowed if Fedora determines that the license is a free software /</text>
<text text-anchor="start" x="710.68" y="-372.98" font-family="Times,serif" font-size="14.00">open source license. At a high level, the inquiry involves determining whether</text>
<text text-anchor="start" x="709.55" y="-358.98" font-family="Times,serif" font-size="14.00">the license provides software freedom, and (equivalently) making sure that the</text>
<text text-anchor="start" x="719.68" y="-344.98" font-family="Times,serif" font-size="14.00">license does not place burdens on users&#39; exercise of its permissions that are</text>
<text text-anchor="start" x="719.3" y="-330.98" font-family="Times,serif" font-size="14.00">inconsistent with evolving community norms and traditions around what is</text>
<text text-anchor="start" x="711.05" y="-316.98" font-family="Times,serif" font-size="14.00">acceptable in a free software / open source license. See below for more on the</text>
<text text-anchor="start" x="831.05" y="-302.98" font-family="Times,serif" font-size="14.00">history of Fedora licensing policy.</text>
</g>
<!-- 6593&#45;&gt;6592 -->
<g id="edge24" class="edge">
<title>6593&#45;&gt;6592</title>
<path fill="none" stroke="#e09d4b" d="M919.78,-417.06C919.91,-422.82 920.11,-429.46 920.37,-437.26"/>
<polygon fill="#e09d4b" stroke="#e09d4b" points="916.87,-437.27 920.72,-447.14 923.87,-437.02 916.87,-437.27"/>
</g>
<!-- 9294&#45;&gt;9295 -->
<g id="edge25" class="edge">
<title>9294&#45;&gt;9295</title>
<path fill="none" stroke="#e09d4b" d="M894.92,-790.82C952.25,-838.12 970.84,-864.54 1071.05,-1020.66"/>
<polygon fill="#e09d4b" stroke="#e09d4b" points="1067.98,-1022.35 1076.32,-1028.88 1073.87,-1018.57 1067.98,-1022.35"/>
</g>
<!-- 10004 -->
<g id="node14" class="node">
<title>10004</title>
<text text-anchor="start" x="1469.5" y="-2589.35" font-family="Times,serif" font-size="14.00">BlueOakCouncil: </text>
<text text-anchor="start" x="1567.75" y="-2589.35" font-family="Times,serif" font-weight="bold" font-size="14.00" fill="#000000">Bronze</text>
<text text-anchor="start" x="1332.25" y="-2575.35" font-family="Times,serif" font-size="14.00">These licenses lack important but nonessential elements of permissive open</text>
<text text-anchor="start" x="1334.13" y="-2561.35" font-family="Times,serif" font-size="14.00">software licenses or impose additional requirements or restrictions, such as</text>
<text text-anchor="start" x="1375" y="-2547.35" font-family="Times,serif" font-size="14.00">BSD&#45;style prohibitions against endorsement and promotion.</text>
</g>
<!-- 10004&#45;&gt;10315 -->
<g id="edge26" class="edge">
<title>10004&#45;&gt;10315</title>
<path fill="none" stroke="#00876c" d="M1512.71,-2541.82C1428.64,-2440.35 1412.58,-2410.86 1270.2,-2124.32"/>
<polygon fill="#00876c" stroke="#00876c" points="1273.33,-2122.77 1265.75,-2115.37 1267.07,-2125.88 1273.33,-2122.77"/>
</g>
<!-- 10315&#45;&gt;10316 -->
<g id="edge27" class="edge">
<title>10315&#45;&gt;10316</title>
<path fill="none" stroke="#00876c" d="M1254.74,-2055.84C1271.24,-1936.1 1270.04,-1911.48 1244.52,-1624.06"/>
<polygon fill="#00876c" stroke="#00876c" points="1248.03,-1624 1243.66,-1614.35 1241.06,-1624.62 1248.03,-1624"/>
</g>
<!-- 10317 -->
<g id="node17" class="node">
<title>10317</title>
<text text-anchor="middle" x="1264.61" y="-2498.77" font-family="Times,serif" font-size="14.00">https://spdx.org/licenses/UCAR</text>
</g>
<!-- 10317&#45;&gt;10315 -->
<g id="edge28" class="edge">
<title>10317&#45;&gt;10315</title>
<path fill="none" stroke="#00876c" d="M1265.46,-2486.13C1270.4,-2382.11 1269.82,-2364.57 1253.45,-2125.66"/>
<polygon fill="#00876c" stroke="#00876c" points="1256.97,-2125.73 1252.79,-2116 1249.98,-2126.21 1256.97,-2125.73"/>
</g>
<!-- 32577&#45;&gt;32578 -->
<g id="edge29" class="edge">
<title>32577&#45;&gt;32578</title>
<path fill="none" stroke="#deb256" d="M673.62,-1728.21C718.03,-1609.87 732.48,-1588.68 909.83,-1359.96"/>
<polygon fill="#deb256" stroke="#deb256" points="912.46,-1362.28 915.83,-1352.23 906.93,-1357.99 912.46,-1362.28"/>
</g>
<!-- 32578&#45;&gt;4654 -->
<g id="edge30" class="edge">
<title>32578&#45;&gt;4654</title>
<path fill="none" stroke="#00876c" stroke-width="2" d="M948.72,-1306.24C980.33,-1248.25 1053.77,-1092.68 1083.42,-1021.43"/>
<polygon fill="#00876c" stroke="#00876c" stroke-width="2" points="1086.7,-1013.4 1087.08,-1024.36 1086.2,-1015.96 1083.38,-1022.85 1082.92,-1022.66 1082.45,-1022.47 1085.27,-1015.58 1078.75,-1020.95 1086.7,-1013.4"/>
</g>
<!-- 32578&#45;&gt;58408 -->
<g id="edge31" class="edge">
<title>32578&#45;&gt;58408</title>
<path fill="none" stroke="#379469" stroke-dasharray="5,2" d="M1002.29,-1340.67C1003.81,-1340.72 1005.37,-1340.76 1006.96,-1340.78"/>
<polygon fill="#379469" stroke="#379469" points="1016.79,-1340.69 1006.83,-1345.28 1013.01,-1340.73 1006.79,-1340.78 1006.79,-1340.78 1006.79,-1340.78 1013.01,-1340.73 1006.75,-1336.28 1016.79,-1340.69"/>
</g>
<!-- 32579 -->
<g id="node20" class="node">
<title>32579</title>
<text text-anchor="middle" x="193.37" y="-2013.94" font-family="Times,serif" font-size="14.00">https://github.com/Unidata/UDUNITS&#45;2/blob/master/COPYRIGHT</text>
</g>
<!-- 32579&#45;&gt;32577 -->
<g id="edge32" class="edge">
<title>32579&#45;&gt;32577</title>
<path fill="none" stroke="#deb256" d="M238.87,-2001.02C343.18,-1959.27 376.98,-1939.4 609.06,-1791.51"/>
<polygon fill="#deb256" stroke="#deb256" points="610.64,-1794.66 617.19,-1786.33 606.88,-1788.75 610.64,-1794.66"/>
</g>
<!-- 32580 -->
<g id="node21" class="node">
<title>32580</title>
<text text-anchor="middle" x="434.89" y="-1993.22" font-family="Times,serif" font-size="14.00">$TEXT</text>
</g>
<!-- 32580&#45;&gt;32577 -->
<g id="edge33" class="edge">
<title>32580&#45;&gt;32577</title>
<path fill="none" stroke="#deb256" d="M451.39,-1980.63C499.56,-1929.18 514.42,-1913.46 627.83,-1794.06"/>
<polygon fill="#deb256" stroke="#deb256" points="630.05,-1796.81 634.4,-1787.14 624.98,-1791.98 630.05,-1796.81"/>
</g>
<!-- 35432 -->
<g id="node22" class="node">
<title>35432</title>
<text text-anchor="middle" x="1935.34" y="-268.52" font-family="Times,serif" font-size="14.00">LicenseTag (ScopedLicenseTag &quot;OrtLicenseCategorization&quot; &quot;permissive&quot; NoLicenseTagText)</text>
</g>
<!-- 39895 -->
<g id="node24" class="node">
<title>39895</title>
<ellipse fill="none" stroke="#d43d51" cx="1411.95" cy="-584.03" rx="154.5" ry="28.99"/>
<text text-anchor="middle" x="1411.95" y="-587.23" font-family="Times,serif" font-size="14.00" fill="gray">OrtLicenseCategorization</text>
<text text-anchor="middle" x="1411.95" y="-570.73" font-family="Times,serif" font-size="14.00" fill="gray">05eaa4f8f66402acde4acea51ae1707d</text>
</g>
<!-- 35432&#45;&gt;39895 -->
<g id="edge34" class="edge">
<title>35432&#45;&gt;39895</title>
<path fill="none" stroke="#d43d51" d="M1871.24,-291.45C1742.86,-328.71 1704.14,-355.53 1457.35,-548.51"/>
<polygon fill="#d43d51" stroke="#d43d51" points="1455.4,-545.59 1449.68,-554.51 1459.71,-551.11 1455.4,-545.59"/>
</g>
<!-- 35433 -->
<g id="node23" class="node">
<title>35433</title>
<text text-anchor="middle" x="1710.18" y="-12.47" font-family="Times,serif" font-size="14.00">LicenseTag (ScopedLicenseTag &quot;OrtLicenseCategorization&quot; &quot;include&#45;in&#45;notice&#45;file&quot; NoLicenseTagText)</text>
</g>
<!-- 35433&#45;&gt;39895 -->
<g id="edge35" class="edge">
<title>35433&#45;&gt;39895</title>
<path fill="none" stroke="#d43d51" d="M1699.91,-35.44C1617.22,-179.7 1607.58,-198.07 1431.84,-544.8"/>
<polygon fill="#d43d51" stroke="#d43d51" points="1428.8,-543.04 1427.4,-553.54 1435.05,-546.21 1428.8,-543.04"/>
</g>
<!-- 39895&#45;&gt;4654 -->
<g id="edge36" class="edge">
<title>39895&#45;&gt;4654</title>
<path fill="none" stroke="#d43d51" d="M1376.27,-612.51C1285.3,-686.04 1265.57,-714.21 1118.32,-949.11"/>
<polygon fill="#d43d51" stroke="#d43d51" points="1115.5,-947.02 1113.15,-957.35 1121.43,-950.74 1115.5,-947.02"/>
</g>
<!-- 42879 -->
<g id="node25" class="node">
<title>42879</title>
<ellipse fill="none" stroke="#379469" cx="1944.53" cy="-1475.16" rx="155.56" ry="28.99"/>
<text text-anchor="middle" x="1944.53" y="-1478.36" font-family="Times,serif" font-size="14.00" fill="gray">CavilLicenseChange</text>
<text text-anchor="middle" x="1944.53" y="-1461.86" font-family="Times,serif" font-size="14.00" fill="gray">f8582d6c3279669f8553e4e8acc571fa</text>
</g>
<!-- 42879&#45;&gt;42880 -->
<g id="edge37" class="edge">
<title>42879&#45;&gt;42880</title>
<path fill="none" stroke="#379469" d="M1874.1,-1448.96C1822.98,-1430.91 1777.41,-1418.41 1633.75,-1380.7"/>
<polygon fill="#379469" stroke="#379469" points="1634.81,-1377.36 1624.25,-1378.21 1633.03,-1384.13 1634.81,-1377.36"/>
</g>
<!-- 58407 -->
<g id="node27" class="node">
<title>58407</title>
<ellipse fill="none" stroke="#379469" cx="1167.5" cy="-1393.71" rx="159.28" ry="28.99"/>
<text text-anchor="middle" x="1167.5" y="-1396.91" font-family="Times,serif" font-size="14.00" fill="gray">MetaeffektLicense</text>
<text text-anchor="middle" x="1167.5" y="-1380.41" font-family="Times,serif" font-size="14.00" fill="gray">7ed019b3ce783bed436fa944c52d0bd7</text>
</g>
<!-- 58407&#45;&gt;58408 -->
<g id="edge38" class="edge">
<title>58407&#45;&gt;58408</title>
<path fill="none" stroke="#379469" d="M1159.4,-1364.38C1159.05,-1363.62 1158.68,-1362.83 1158.29,-1362.01"/>
<polygon fill="#379469" stroke="#379469" points="1161.48,-1360.56 1153.89,-1353.17 1155.21,-1363.68 1161.48,-1360.56"/>
</g>
<!-- 68617 -->
<g id="node29" class="node">
<title>68617</title>
<ellipse fill="none" stroke="#00876c" cx="1451.2" cy="-781.19" rx="162.46" ry="28.99"/>
<text text-anchor="middle" x="1451.2" y="-784.39" font-family="Times,serif" font-size="14.00" fill="gray">LicenseLynx</text>
<text text-anchor="middle" x="1451.2" y="-767.89" font-family="Times,serif" font-size="14.00" fill="gray">0739da1b73d5214dc205a7228b90b4b2</text>
</g>
<!-- 68617&#45;&gt;4654 -->
<g id="edge39" class="edge">
<title>68617&#45;&gt;4654</title>
<path fill="none" stroke="#00876c" d="M1347.23,-803.8C1290.83,-822.17 1249.04,-854.91 1134.44,-952.14"/>
<polygon fill="#00876c" stroke="#00876c" points="1132.21,-949.44 1126.85,-958.59 1136.74,-954.78 1132.21,-949.44"/>
</g>
<!-- 68618&#45;&gt;4654 -->
<g id="edge40" class="edge">
<title>68618&#45;&gt;4654</title>
<path fill="none" stroke="#00876c" stroke-width="2" d="M1336.35,-1031.73C1271.9,-983.44 1248.87,-973.16 1176.5,-977.6"/>
<polygon fill="#00876c" stroke="#00876c" stroke-width="2" points="1167.88,-978.19 1177.55,-973.02 1170.4,-977.52 1177.82,-977.01 1177.86,-977.51 1177.89,-978.01 1170.47,-978.52 1178.17,-982 1167.88,-978.19"/>
</g>
</g>
</svg>
