<?xml version="1.0" encoding="UTF-8" standalone="no"?>
<!DOCTYPE svg PUBLIC "-//W3C//DTD SVG 1.1//EN"
 "http://www.w3.org/Graphics/SVG/1.1/DTD/svg11.dtd">
<!-- Generated by graphviz version 10.0.1 (0)
 -->
<!-- Pages: 1 -->
<svg width="1574pt" height="721pt"
 viewBox="0.00 0.00 1574.00 721.00" xmlns="http://www.w3.org/2000/svg" xmlns:xlink="http://www.w3.org/1999/xlink">
<g id="graph0" class="graph" transform="scale(1 1) rotate(0) translate(4 717)">
<polygon fill="white" stroke="none" points="-4,4 -4,-717 1570,-717 1570,4 -4,4"/>
<!-- 4187 -->
<g id="node1" class="node">
<title>4187</title>
<ellipse fill="none" stroke="#b8bf62" cx="659.26" cy="-443.13" rx="158.75" ry="28.99"/>
<text text-anchor="middle" x="659.26" y="-446.33" font-family="Times,serif" font-size="14.00" fill="gray">SPDXLicense</text>
<text text-anchor="middle" x="659.26" y="-429.83" font-family="Times,serif" font-size="14.00" fill="gray">a205a66e51ff10b6b5626da69114738b</text>
</g>
<!-- 4188 -->
<g id="node2" class="node">
<title>4188</title>
<polygon fill="none" stroke="black" points="832.2,-369.35 832.2,-384.26 780.5,-394.8 707.37,-394.8 655.67,-384.26 655.67,-369.35 707.37,-358.8 780.5,-358.8 832.2,-369.35"/>
<polygon fill="none" stroke="black" points="836.2,-366.08 836.2,-387.53 780.9,-398.8 706.97,-398.8 651.67,-387.53 651.67,-366.08 706.97,-354.8 780.9,-354.8 836.2,-366.08"/>
<polygon fill="none" stroke="black" points="840.2,-362.81 840.2,-390.79 781.3,-402.8 706.57,-402.8 647.67,-390.79 647.67,-362.81 706.57,-350.8 781.3,-350.8 840.2,-362.81"/>
<text text-anchor="middle" x="743.93" y="-371.75" font-family="Times,serif" font-size="14.00">spdx:UMich&#45;Merit</text>
</g>
<!-- 4187&#45;&gt;4188 -->
<g id="edge1" class="edge">
<title>4187&#45;&gt;4188</title>
<path fill="none" stroke="#b8bf62" d="M693.73,-414.47C695.53,-413.09 697.46,-411.61 699.56,-410.02"/>
<polygon fill="#b8bf62" stroke="#b8bf62" points="701.45,-412.98 707.32,-404.16 697.23,-407.39 701.45,-412.98"/>
</g>
<!-- 8450 -->
<g id="node6" class="node">
<title>8450</title>
<polygon fill="none" stroke="#e09d4b" points="580.02,-237.81 580.02,-252.72 523.12,-263.26 442.65,-263.26 385.76,-252.72 385.76,-237.81 442.65,-227.26 523.12,-227.26 580.02,-237.81"/>
<polygon fill="none" stroke="#e09d4b" points="584.02,-234.48 584.02,-256.05 523.49,-267.26 442.29,-267.26 381.76,-256.05 381.76,-234.48 442.29,-223.26 523.49,-223.26 584.02,-234.48"/>
<text text-anchor="middle" x="482.89" y="-240.21" font-family="Times,serif" font-size="14.00">Fedora:UMich&#45;Merit</text>
</g>
<!-- 4188&#45;&gt;8450 -->
<g id="edge2" class="edge">
<title>4188&#45;&gt;8450</title>
<path fill="none" stroke="#e09d4b" stroke-width="2" d="M690.7,-353.75C590.62,-310.31 561.1,-296.53 525.3,-273.7"/>
<polygon fill="#e09d4b" stroke="#e09d4b" stroke-width="2" points="518.06,-269 528.9,-270.67 520.48,-269.97 526.72,-274.02 526.45,-274.44 526.18,-274.86 519.94,-270.81 524,-278.22 518.06,-269"/>
</g>
<!-- 45377 -->
<g id="node11" class="node">
<title>45377</title>
<polygon fill="none" stroke="#00876c" points="1199.46,-279.56 1199.46,-294.47 1123.09,-305.02 1015.09,-305.02 938.72,-294.47 938.72,-279.56 1015.09,-269.02 1123.09,-269.02 1199.46,-279.56"/>
<polygon fill="none" stroke="#00876c" points="1203.46,-276.08 1203.46,-297.96 1123.36,-309.02 1014.81,-309.02 934.72,-297.96 934.72,-276.08 1014.81,-265.02 1123.36,-265.02 1203.46,-276.08"/>
<text text-anchor="middle" x="1069.09" y="-281.97" font-family="Times,serif" font-size="14.00">metaeffekt:Michigan License</text>
</g>
<!-- 4188&#45;&gt;45377 -->
<g id="edge3" class="edge">
<title>4188&#45;&gt;45377</title>
<path fill="none" stroke="#00876c" stroke-width="2" d="M818.33,-357.91C915.68,-333.13 956.25,-322.51 993.62,-311.23"/>
<polygon fill="#00876c" stroke="#00876c" stroke-width="2" points="1001.79,-308.74 993.55,-315.96 999.49,-309.96 992.38,-312.14 992.23,-311.66 992.09,-311.18 999.2,-309.01 990.92,-307.36 1001.79,-308.74"/>
</g>
<!-- 4189 -->
<g id="node3" class="node">
<title>4189</title>
<polygon fill="none" stroke="black" points="826.53,-300.69 826.53,-315.6 787.48,-326.15 732.25,-326.15 693.2,-315.6 693.2,-300.69 732.25,-290.15 787.48,-290.15 826.53,-300.69"/>
<polygon fill="none" stroke="black" points="830.53,-297.63 830.53,-318.67 788.01,-330.15 731.72,-330.15 689.2,-318.67 689.2,-297.63 731.72,-286.15 788.01,-286.15 830.53,-297.63"/>
<text text-anchor="middle" x="759.86" y="-303.1" font-family="Times,serif" font-size="14.00">UMich&#45;Merit</text>
</g>
<!-- 4189&#45;&gt;4188 -->
<g id="edge4" class="edge">
<title>4189&#45;&gt;4188</title>
<path fill="none" stroke="black" stroke-width="2" d="M744.94,-330.64C743.52,-333.6 742.56,-336.42 741.98,-339.47"/>
<polygon fill="black" stroke="black" stroke-width="2" points="741.46,-348 737.58,-337.74 741.11,-345.41 741.57,-337.99 742.07,-338.02 742.57,-338.05 742.11,-345.47 746.56,-338.29 741.46,-348"/>
</g>
<!-- 4189&#45;&gt;8450 -->
<g id="edge5" class="edge">
<title>4189&#45;&gt;8450</title>
<path fill="none" stroke="#e09d4b" stroke-width="2" d="M707.27,-292.46C651.95,-276 617.54,-266.07 591.09,-259.7"/>
<polygon fill="#e09d4b" stroke="#e09d4b" stroke-width="2" points="582.57,-257.73 593.33,-255.6 585.18,-257.82 592.43,-259.5 592.32,-259.98 592.2,-260.47 584.96,-258.79 591.3,-264.37 582.57,-257.73"/>
</g>
<!-- 24735 -->
<g id="node8" class="node">
<title>24735</title>
<polygon fill="none" stroke="#dac767" points="1105.38,-172.98 1105.38,-187.89 1045.88,-198.43 961.75,-198.43 902.25,-187.89 902.25,-172.98 961.75,-162.43 1045.88,-162.43 1105.38,-172.98"/>
<polygon fill="none" stroke="#dac767" points="1109.38,-169.63 1109.38,-191.24 1046.24,-202.43 961.4,-202.43 898.25,-191.24 898.25,-169.63 961.4,-158.43 1046.24,-158.43 1109.38,-169.63"/>
<text text-anchor="middle" x="1003.82" y="-175.38" font-family="Times,serif" font-size="14.00">scancode:umich&#45;merit</text>
</g>
<!-- 4189&#45;&gt;24735 -->
<g id="edge6" class="edge">
<title>4189&#45;&gt;24735</title>
<path fill="none" stroke="#dac767" stroke-width="2" d="M791.81,-286.94C866.84,-237.21 899.51,-216.36 930.09,-203.3"/>
<polygon fill="#dac767" stroke="#dac767" stroke-width="2" points="938.18,-200.05 930.58,-207.96 935.99,-201.47 929.09,-204.25 928.91,-203.78 928.72,-203.32 935.62,-200.54 927.23,-199.61 938.18,-200.05"/>
</g>
<!-- 4189&#45;&gt;45377 -->
<g id="edge7" class="edge">
<title>4189&#45;&gt;45377</title>
<path fill="none" stroke="#00876c" stroke-dasharray="5,2" d="M828.32,-296.56C869.16,-289.73 899.28,-284.97 923.43,-281.93"/>
<polygon fill="#00876c" stroke="#00876c" points="933.26,-280.77 923.86,-286.41 929.5,-281.21 923.33,-281.95 923.33,-281.95 923.33,-281.95 929.5,-281.21 922.8,-277.48 933.26,-280.77"/>
</g>
<!-- 4190 -->
<g id="node4" class="node">
<title>4190</title>
<polygon fill="none" stroke="black" points="1189.18,-226 1189.18,-240.91 1100.48,-251.46 975.03,-251.46 886.33,-240.91 886.33,-226 975.03,-215.46 1100.48,-215.46 1189.18,-226"/>
<polygon fill="none" stroke="black" points="1193.18,-222.45 1193.18,-244.47 1100.71,-255.46 974.8,-255.46 882.33,-244.47 882.33,-222.45 974.8,-211.46 1100.71,-211.46 1193.18,-222.45"/>
<text text-anchor="middle" x="1037.75" y="-228.41" font-family="Times,serif" font-size="14.00">Michigan/Merit Networks License</text>
</g>
<!-- 4190&#45;&gt;4188 -->
<g id="edge8" class="edge">
<title>4190&#45;&gt;4188</title>
<path fill="none" stroke="#b8bf62" stroke-width="2" d="M992.62,-255.81C948.23,-277.74 917.28,-292.8 803.11,-348.13"/>
<polygon fill="#b8bf62" stroke="#b8bf62" stroke-width="2" points="795.48,-351.83 802.51,-343.42 797.57,-350.26 804.26,-347.02 804.48,-347.47 804.69,-347.92 798,-351.16 806.44,-351.52 795.48,-351.83"/>
</g>
<!-- 4190&#45;&gt;24735 -->
<g id="edge9" class="edge">
<title>4190&#45;&gt;24735</title>
<path fill="none" stroke="#dac767" stroke-width="2" d="M1032.91,-211.27C1032.88,-211.16 1032.85,-211.06 1032.82,-210.95"/>
<polygon fill="#dac767" stroke="#dac767" stroke-width="2" points="1030.16,-204.81 1038.26,-212.2 1031.63,-206.96 1034.59,-213.79 1034.13,-213.99 1033.67,-214.19 1030.72,-207.36 1030,-215.78 1030.16,-204.81"/>
</g>
<!-- 4190&#45;&gt;45377 -->
<g id="edge10" class="edge">
<title>4190&#45;&gt;45377</title>
<path fill="none" stroke="#00876c" stroke-dasharray="5,2" d="M1061.42,-255.87C1061.48,-255.96 1061.53,-256.04 1061.59,-256.13"/>
<polygon fill="#00876c" stroke="#00876c" points="1064.93,-263.76 1056.8,-256.4 1063.41,-260.3 1060.92,-254.6 1060.92,-254.6 1060.92,-254.6 1063.41,-260.3 1065.04,-252.8 1064.93,-263.76"/>
</g>
<!-- 8449 -->
<g id="node5" class="node">
<title>8449</title>
<ellipse fill="none" stroke="#e09d4b" cx="149.87" cy="-140.94" rx="149.73" ry="28.99"/>
<text text-anchor="middle" x="149.87" y="-144.14" font-family="Times,serif" font-size="14.00" fill="gray">FedoraEntry</text>
<text text-anchor="middle" x="149.87" y="-127.64" font-family="Times,serif" font-size="14.00" fill="gray">209e92432fef8ff4f5cfbc74a38f7c06</text>
</g>
<!-- 8449&#45;&gt;8450 -->
<g id="edge11" class="edge">
<title>8449&#45;&gt;8450</title>
<path fill="none" stroke="#e09d4b" d="M233.16,-165.37C271.31,-176.93 314.19,-190.68 413.38,-222.77"/>
<polygon fill="#e09d4b" stroke="#e09d4b" points="412.1,-226.03 422.69,-225.78 414.25,-219.37 412.1,-226.03"/>
</g>
<!-- 24734 -->
<g id="node7" class="node">
<title>24734</title>
<ellipse fill="none" stroke="#dac767" cx="989.19" cy="-119.06" rx="157.15" ry="28.99"/>
<text text-anchor="middle" x="989.19" y="-122.26" font-family="Times,serif" font-size="14.00" fill="gray">ScancodeData</text>
<text text-anchor="middle" x="989.19" y="-105.76" font-family="Times,serif" font-size="14.00" fill="gray">1001dd96c1a6af3a3e398521db61ca9f</text>
</g>
<!-- 24734&#45;&gt;24735 -->
<g id="edge12" class="edge">
<title>24734&#45;&gt;24735</title>
<path fill="none" stroke="#dac767" d="M1004.15,-148.17C1004.16,-148.26 1004.17,-148.35 1004.18,-148.44"/>
<polygon fill="#dac767" stroke="#dac767" points="1000.62,-146.87 1004.51,-156.72 1007.61,-146.59 1000.62,-146.87"/>
</g>
<!-- 35240 -->
<g id="node9" class="node">
<title>35240</title>
<ellipse fill="none" stroke="#e06f45" cx="519.17" cy="-683.83" rx="158.22" ry="28.99"/>
<text text-anchor="middle" x="519.17" y="-687.03" font-family="Times,serif" font-size="14.00" fill="gray">OrtLicenseCategorization</text>
<text text-anchor="middle" x="519.17" y="-670.53" font-family="Times,serif" font-size="14.00" fill="gray">4732b7d7fab46cb826e03e0a9031f535</text>
</g>
<!-- 35240&#45;&gt;4188 -->
<g id="edge13" class="edge">
<title>35240&#45;&gt;4188</title>
<path fill="none" stroke="#e06f45" d="M537.99,-654.88C580.54,-589.72 597.37,-567.21 716.81,-412.03"/>
<polygon fill="#e06f45" stroke="#e06f45" points="719.45,-414.35 722.77,-404.29 713.9,-410.08 719.45,-414.35"/>
</g>
<!-- 45376 -->
<g id="node10" class="node">
<title>45376</title>
<ellipse fill="none" stroke="#00876c" cx="1407.35" cy="-28.88" rx="158.22" ry="28.99"/>
<text text-anchor="middle" x="1407.35" y="-32.08" font-family="Times,serif" font-size="14.00" fill="gray">MetaeffektLicense</text>
<text text-anchor="middle" x="1407.35" y="-15.58" font-family="Times,serif" font-size="14.00" fill="gray">649a35d872c884adaa264fbc22e558dc</text>
</g>
<!-- 45376&#45;&gt;45377 -->
<g id="edge14" class="edge">
<title>45376&#45;&gt;45377</title>
<path fill="none" stroke="#00876c" d="M1379.4,-57.89C1317.72,-121.22 1291.93,-139.84 1112.54,-258.33"/>
<polygon fill="#00876c" stroke="#00876c" points="1110.72,-255.34 1104.31,-263.77 1114.58,-261.18 1110.72,-255.34"/>
</g>
<!-- 45378 -->
<g id="node12" class="node">
<title>45378</title>
<polygon fill="none" stroke="#00876c" points="1217.54,-341.18 1217.54,-356.09 1168.11,-366.63 1098.2,-366.63 1048.77,-356.09 1048.77,-341.18 1098.2,-330.63 1168.11,-330.63 1217.54,-341.18"/>
<polygon fill="none" stroke="#00876c" points="1221.54,-337.94 1221.54,-359.33 1168.53,-370.63 1097.78,-370.63 1044.77,-359.33 1044.77,-337.94 1097.78,-326.63 1168.53,-326.63 1221.54,-337.94"/>
<text text-anchor="middle" x="1133.16" y="-343.58" font-family="Times,serif" font-size="14.00">Michigan License</text>
</g>
<!-- 45378&#45;&gt;45377 -->
<g id="edge15" class="edge">
<title>45378&#45;&gt;45377</title>
<path fill="none" stroke="#00876c" stroke-width="2" d="M1122.47,-326.38C1120.14,-322.56 1117.61,-319.34 1114.35,-316.21"/>
<polygon fill="#00876c" stroke="#00876c" stroke-width="2" points="1107.74,-310.83 1118.34,-313.65 1110.04,-312.06 1115.81,-316.76 1115.5,-317.14 1115.18,-317.53 1109.41,-312.84 1112.66,-320.63 1107.74,-310.83"/>
</g>
<!-- 45379 -->
<g id="node13" class="node">
<title>45379</title>
<polygon fill="none" stroke="#00876c" points="1337.37,-476.3 1337.37,-491.21 1307.73,-501.75 1265.81,-501.75 1236.17,-491.21 1236.17,-476.3 1265.81,-465.75 1307.73,-465.75 1337.37,-476.3"/>
<text text-anchor="middle" x="1286.77" y="-478.7" font-family="Times,serif" font-size="14.00">Michigan</text>
</g>
<!-- 45379&#45;&gt;45377 -->
<g id="edge16" class="edge">
<title>45379&#45;&gt;45377</title>
<path fill="none" stroke="#00876c" stroke-dasharray="5,2" d="M1277.09,-465.72C1240.15,-397.46 1227.68,-384.88 1114.8,-315.12"/>
<polygon fill="#00876c" stroke="#00876c" points="1106.44,-309.96 1117.32,-311.38 1109.66,-311.95 1114.95,-315.21 1114.95,-315.21 1114.95,-315.21 1109.66,-311.95 1112.59,-319.04 1106.44,-309.96"/>
</g>
<!-- 45380 -->
<g id="node14" class="node">
<title>45380</title>
<polygon fill="none" stroke="#00876c" points="1492.52,-420.15 1492.52,-435.06 1434,-445.61 1351.24,-445.61 1292.72,-435.06 1292.72,-420.15 1351.24,-409.61 1434,-409.61 1492.52,-420.15"/>
<text text-anchor="middle" x="1392.62" y="-422.56" font-family="Times,serif" font-size="14.00">OpenCoDE:Michigan</text>
</g>
<!-- 45379&#45;&gt;45380 -->
<g id="edge17" class="edge">
<title>45379&#45;&gt;45380</title>
<path fill="none" stroke="#00876c" stroke-width="2" d="M1325.11,-471.6C1346.32,-464.56 1357.51,-459.79 1366.95,-452.88"/>
<polygon fill="#00876c" stroke="#00876c" stroke-width="2" points="1373.5,-447.37 1368.74,-457.25 1371.86,-449.4 1366.16,-454.19 1365.84,-453.8 1365.52,-453.42 1371.21,-448.64 1362.95,-450.36 1373.5,-447.37"/>
</g>
<!-- 45380&#45;&gt;45377 -->
<g id="edge18" class="edge">
<title>45380&#45;&gt;45377</title>
<path fill="none" stroke="#00876c" stroke-dasharray="5,2" d="M1368.65,-409.27C1309.04,-364.18 1285.8,-353.33 1147.12,-310.76"/>
<polygon fill="#00876c" stroke="#00876c" points="1137.66,-307.86 1148.54,-306.49 1141.27,-308.97 1147.22,-310.79 1147.22,-310.79 1147.22,-310.79 1141.27,-308.97 1145.9,-315.09 1137.66,-307.86"/>
</g>
</g>
</svg>
