<?xml version="1.0" encoding="UTF-8" standalone="no"?>
<!DOCTYPE svg PUBLIC "-//W3C//DTD SVG 1.1//EN"
 "http://www.w3.org/Graphics/SVG/1.1/DTD/svg11.dtd">
<!-- Generated by graphviz version 10.0.1 (0)
 -->
<!-- Pages: 1 -->
<svg width="4967pt" height="3048pt"
 viewBox="0.00 0.00 4967.00 3048.00" xmlns="http://www.w3.org/2000/svg" xmlns:xlink="http://www.w3.org/1999/xlink">
<g id="graph0" class="graph" transform="scale(1 1) rotate(0) translate(4 3044)">
<polygon fill="white" stroke="none" points="-4,4 -4,-3044 4963,-3044 4963,4 -4,4"/>
<!-- 19 -->
<g id="node1" class="node">
<title>19</title>
<text text-anchor="start" x="2101.23" y="-273.65" font-family="Times,serif" font-size="14.00">OSI: </text>
<text text-anchor="start" x="2130.48" y="-273.65" font-family="Times,serif" font-weight="bold" font-size="14.00" fill="#228b22">Approved</text>
</g>
<!-- 4705 -->
<g id="node2" class="node">
<title>4705</title>
<ellipse fill="none" stroke="#dac767" cx="1964.83" cy="-653.98" rx="161.4" ry="28.99"/>
<text text-anchor="middle" x="1964.83" y="-657.18" font-family="Times,serif" font-size="14.00" fill="gray">SPDXLicense</text>
<text text-anchor="middle" x="1964.83" y="-640.68" font-family="Times,serif" font-size="14.00" fill="gray">b3ebdd10a48fb321dd003758d84d8161</text>
</g>
<!-- 19&#45;&gt;4705 -->
<g id="edge1" class="edge">
<title>19&#45;&gt;4705</title>
<path fill="none" stroke="#dac767" d="M2125.28,-295.53C2029.22,-383.98 2020.95,-401.64 1973.81,-613.45"/>
<polygon fill="#dac767" stroke="#dac767" points="1970.4,-612.68 1971.65,-623.2 1977.23,-614.19 1970.4,-612.68"/>
</g>
<!-- 4706 -->
<g id="node3" class="node">
<title>4706</title>
<polygon fill="none" stroke="black" points="2166.06,-1382.52 2166.06,-1397.44 2117.27,-1407.98 2048.28,-1407.98 1999.5,-1397.44 1999.5,-1382.52 2048.28,-1371.98 2117.27,-1371.98 2166.06,-1382.52"/>
<polygon fill="none" stroke="black" points="2170.06,-1379.3 2170.06,-1400.66 2117.7,-1411.98 2047.85,-1411.98 1995.5,-1400.66 1995.5,-1379.3 2047.85,-1367.98 2117.7,-1367.98 2170.06,-1379.3"/>
<polygon fill="none" stroke="black" points="2174.06,-1376.07 2174.06,-1403.89 2118.13,-1415.98 2047.43,-1415.98 1991.5,-1403.89 1991.5,-1376.07 2047.43,-1363.98 2118.13,-1363.98 2174.06,-1376.07"/>
<text text-anchor="middle" x="2082.78" y="-1384.93" font-family="Times,serif" font-size="14.00">spdx:Unicode&#45;3.0</text>
</g>
<!-- 4705&#45;&gt;4706 -->
<g id="edge2" class="edge">
<title>4705&#45;&gt;4706</title>
<path fill="none" stroke="#dac767" d="M1960.09,-683.43C1924.43,-906.4 1929.17,-929.74 2070.39,-1352.87"/>
<polygon fill="#dac767" stroke="#dac767" points="2067,-1353.77 2073.48,-1362.15 2073.64,-1351.55 2067,-1353.77"/>
</g>
<!-- 9305 -->
<g id="node14" class="node">
<title>9305</title>
<polygon fill="none" stroke="#e09d4b" points="1702.94,-1311 1702.94,-1325.92 1648.96,-1336.46 1572.62,-1336.46 1518.65,-1325.92 1518.65,-1311 1572.62,-1300.46 1648.96,-1300.46 1702.94,-1311"/>
<polygon fill="none" stroke="#e09d4b" points="1706.94,-1307.71 1706.94,-1329.21 1649.35,-1340.46 1572.24,-1340.46 1514.65,-1329.21 1514.65,-1307.71 1572.24,-1296.46 1649.35,-1296.46 1706.94,-1307.71"/>
<text text-anchor="middle" x="1610.79" y="-1313.41" font-family="Times,serif" font-size="14.00">Fedora:Unicode&#45;3.0</text>
</g>
<!-- 4706&#45;&gt;9305 -->
<g id="edge3" class="edge">
<title>4706&#45;&gt;9305</title>
<path fill="none" stroke="#e09d4b" stroke-width="2" d="M1997.11,-1374.35C1837.85,-1345.35 1777.24,-1334.85 1718.23,-1328.15"/>
<polygon fill="#e09d4b" stroke="#e09d4b" stroke-width="2" points="1709.63,-1327.2 1720.06,-1323.82 1712.23,-1326.98 1719.63,-1327.8 1719.57,-1328.29 1719.52,-1328.79 1712.12,-1327.98 1719.08,-1332.77 1709.63,-1327.2"/>
</g>
<!-- 11034 -->
<g id="node18" class="node">
<title>11034</title>
<polygon fill="none" stroke="#78ab63" points="1641.82,-1534.4 1641.82,-1549.32 1591.73,-1559.86 1520.91,-1559.86 1470.82,-1549.32 1470.82,-1534.4 1520.91,-1523.86 1591.73,-1523.86 1641.82,-1534.4"/>
<polygon fill="none" stroke="#78ab63" points="1645.82,-1531.16 1645.82,-1552.56 1592.15,-1563.86 1520.49,-1563.86 1466.82,-1552.56 1466.82,-1531.16 1520.49,-1519.86 1592.15,-1519.86 1645.82,-1531.16"/>
<text text-anchor="middle" x="1556.32" y="-1536.81" font-family="Times,serif" font-size="14.00">osadl:Unicode&#45;3.0</text>
</g>
<!-- 4706&#45;&gt;11034 -->
<g id="edge4" class="edge">
<title>4706&#45;&gt;11034</title>
<path fill="none" stroke="#78ab63" stroke-width="2" d="M1996.97,-1405.45C1746.55,-1450.81 1705.16,-1461.61 1605.58,-1514.94"/>
<polygon fill="#78ab63" stroke="#78ab63" stroke-width="2" points="1597.89,-1519.08 1604.56,-1510.38 1599.91,-1517.43 1606.46,-1513.9 1606.7,-1514.34 1606.93,-1514.78 1600.39,-1518.31 1608.83,-1518.3 1597.89,-1519.08"/>
</g>
<!-- 32606 -->
<g id="node22" class="node">
<title>32606</title>
<polygon fill="none" stroke="black" points="2613.28,-1941.12 2613.28,-1956.03 2557.03,-1966.58 2477.48,-1966.58 2421.23,-1956.03 2421.23,-1941.12 2477.48,-1930.58 2557.03,-1930.58 2613.28,-1941.12"/>
<polygon fill="none" stroke="black" points="2617.28,-1937.8 2617.28,-1959.35 2557.4,-1970.58 2477.11,-1970.58 2417.23,-1959.35 2417.23,-1937.8 2477.11,-1926.58 2557.4,-1926.58 2617.28,-1937.8"/>
<text text-anchor="middle" x="2517.26" y="-1943.53" font-family="Times,serif" font-size="14.00">scancode:unicode&#45;v3</text>
</g>
<!-- 4706&#45;&gt;32606 -->
<g id="edge5" class="edge">
<title>4706&#45;&gt;32606</title>
<path fill="none" stroke="#deb256" stroke-width="2" d="M2099.38,-1416.17C2165.04,-1508.55 2406.05,-1818.64 2489.04,-1917.83"/>
<polygon fill="#deb256" stroke="#deb256" stroke-width="2" points="2494.54,-1924.36 2484.66,-1919.61 2492.51,-1922.72 2487.72,-1917.04 2488.1,-1916.71 2488.48,-1916.39 2493.28,-1922.08 2491.54,-1913.81 2494.54,-1924.36"/>
</g>
<!-- 58310 -->
<g id="node41" class="node">
<title>58310</title>
<polygon fill="none" stroke="#379469" points="2209.1,-1928.56 2209.1,-1943.48 2126.57,-1954.02 2009.85,-1954.02 1927.32,-1943.48 1927.32,-1928.56 2009.85,-1918.02 2126.57,-1918.02 2209.1,-1928.56"/>
<polygon fill="none" stroke="#379469" points="2213.1,-1925.04 2213.1,-1947 2126.83,-1958.02 2009.59,-1958.02 1923.32,-1947 1923.32,-1925.04 2009.59,-1914.02 2126.83,-1914.02 2213.1,-1925.04"/>
<text text-anchor="middle" x="2068.21" y="-1930.97" font-family="Times,serif" font-size="14.00">metaeffekt:Unicode License 3.0</text>
</g>
<!-- 4706&#45;&gt;58310 -->
<g id="edge6" class="edge">
<title>4706&#45;&gt;58310</title>
<path fill="none" stroke="#379469" stroke-width="2" d="M2073.37,-1416.4C1977.6,-1685.57 1975.3,-1705.03 2055.02,-1903.35"/>
<polygon fill="#379469" stroke="#379469" stroke-width="2" points="2058.22,-1911.29 2050.31,-1903.69 2056.8,-1909.1 2054.02,-1902.2 2054.48,-1902.01 2054.95,-1901.83 2057.72,-1908.72 2058.66,-1900.33 2058.22,-1911.29"/>
</g>
<!-- 4707 -->
<g id="node4" class="node">
<title>4707</title>
<polygon fill="none" stroke="black" points="1834.58,-1642.31 1834.58,-1657.22 1798.45,-1667.76 1747.36,-1667.76 1711.23,-1657.22 1711.23,-1642.31 1747.36,-1631.76 1798.45,-1631.76 1834.58,-1642.31"/>
<polygon fill="none" stroke="black" points="1838.58,-1639.31 1838.58,-1660.22 1799.03,-1671.76 1746.79,-1671.76 1707.23,-1660.22 1707.23,-1639.31 1746.79,-1627.76 1799.03,-1627.76 1838.58,-1639.31"/>
<text text-anchor="middle" x="1772.91" y="-1644.71" font-family="Times,serif" font-size="14.00">Unicode&#45;3.0</text>
</g>
<!-- 4707&#45;&gt;4706 -->
<g id="edge7" class="edge">
<title>4707&#45;&gt;4706</title>
<path fill="none" stroke="black" stroke-width="2" d="M1785.61,-1627.54C1842.36,-1528.9 1858.51,-1514.07 2028.92,-1419.7"/>
<polygon fill="black" stroke="black" stroke-width="2" points="2036.35,-1415.58 2029.78,-1424.36 2034.35,-1417.26 2027.84,-1420.86 2027.6,-1420.43 2027.36,-1419.99 2033.86,-1416.39 2025.42,-1416.49 2036.35,-1415.58"/>
</g>
<!-- 4707&#45;&gt;9305 -->
<g id="edge8" class="edge">
<title>4707&#45;&gt;9305</title>
<path fill="none" stroke="#e09d4b" stroke-width="2" d="M1752.56,-1627.53C1628.58,-1491.84 1618.68,-1475.25 1612.37,-1352"/>
<polygon fill="#e09d4b" stroke="#e09d4b" stroke-width="2" points="1611.95,-1343.38 1616.94,-1353.14 1612.57,-1345.91 1612.94,-1353.34 1612.44,-1353.37 1611.94,-1353.39 1611.58,-1345.96 1607.95,-1353.59 1611.95,-1343.38"/>
</g>
<!-- 4707&#45;&gt;11034 -->
<g id="edge9" class="edge">
<title>4707&#45;&gt;11034</title>
<path fill="none" stroke="#78ab63" stroke-width="2" d="M1723.63,-1634.12C1641.11,-1607.66 1617.96,-1597.86 1588.01,-1571.75"/>
<polygon fill="#78ab63" stroke="#78ab63" stroke-width="2" points="1581.59,-1565.96 1592.03,-1569.31 1583.83,-1567.3 1589.35,-1572.28 1589.02,-1572.65 1588.69,-1573.02 1583.16,-1568.05 1586.01,-1575.99 1581.59,-1565.96"/>
</g>
<!-- 42891 -->
<g id="node39" class="node">
<title>42891</title>
<polygon fill="none" stroke="#379469" points="1581.86,-1942.18 1581.86,-1957.09 1532.75,-1967.63 1463.3,-1967.63 1414.19,-1957.09 1414.19,-1942.18 1463.3,-1931.63 1532.75,-1931.63 1581.86,-1942.18"/>
<polygon fill="none" stroke="#379469" points="1585.86,-1938.94 1585.86,-1960.32 1533.17,-1971.63 1462.87,-1971.63 1410.19,-1960.32 1410.19,-1938.94 1462.87,-1927.63 1533.17,-1927.63 1585.86,-1938.94"/>
<text text-anchor="middle" x="1498.02" y="-1944.58" font-family="Times,serif" font-size="14.00">cavil:Unicode&#45;3.0</text>
</g>
<!-- 4707&#45;&gt;42891 -->
<g id="edge10" class="edge">
<title>4707&#45;&gt;42891</title>
<path fill="none" stroke="#379469" stroke-width="2" d="M1745.83,-1671.91C1576.74,-1810.29 1557.91,-1828.25 1513.77,-1917.34"/>
<polygon fill="#379469" stroke="#379469" stroke-width="2" points="1509.91,-1925.19 1510.28,-1914.23 1510.59,-1922.67 1513.87,-1915.99 1514.32,-1916.22 1514.77,-1916.44 1511.49,-1923.11 1518.36,-1918.2 1509.91,-1925.19"/>
</g>
<!-- 4707&#45;&gt;58310 -->
<g id="edge11" class="edge">
<title>4707&#45;&gt;58310</title>
<path fill="none" stroke="#379469" stroke-dasharray="5,2" d="M1782.03,-1671.89C1840.77,-1813.98 1853.88,-1831.3 2012.2,-1908.85"/>
<polygon fill="#379469" stroke="#379469" points="2020.74,-1913.02 2009.78,-1912.67 2017.35,-1911.36 2011.76,-1908.63 2011.76,-1908.63 2011.76,-1908.63 2017.35,-1911.36 2013.73,-1904.59 2020.74,-1913.02"/>
</g>
<!-- 4708 -->
<g id="node5" class="node">
<title>4708</title>
<polygon fill="none" stroke="black" points="2508.47,-1691.16 2508.47,-1706.08 2454.49,-1716.62 2378.16,-1716.62 2324.18,-1706.08 2324.18,-1691.16 2378.16,-1680.62 2454.49,-1680.62 2508.47,-1691.16"/>
<polygon fill="none" stroke="black" points="2512.47,-1687.87 2512.47,-1709.37 2454.88,-1720.62 2377.77,-1720.62 2320.18,-1709.37 2320.18,-1687.87 2377.77,-1676.62 2454.88,-1676.62 2512.47,-1687.87"/>
<text text-anchor="middle" x="2416.33" y="-1693.57" font-family="Times,serif" font-size="14.00">Unicode License v3</text>
</g>
<!-- 4708&#45;&gt;4706 -->
<g id="edge12" class="edge">
<title>4708&#45;&gt;4706</title>
<path fill="none" stroke="#dac767" stroke-width="2" d="M2377.06,-1676.5C2177.35,-1563.77 2157.25,-1547.27 2099.78,-1426.25"/>
<polygon fill="#dac767" stroke="#dac767" stroke-width="2" points="2096.07,-1418.39 2104.41,-1425.51 2097.62,-1420.49 2100.79,-1427.22 2100.34,-1427.43 2099.89,-1427.65 2096.71,-1420.92 2096.27,-1429.35 2096.07,-1418.39"/>
</g>
<!-- 4708&#45;&gt;32606 -->
<g id="edge13" class="edge">
<title>4708&#45;&gt;32606</title>
<path fill="none" stroke="#deb256" stroke-width="2" d="M2422.28,-1720.7C2457.11,-1849.71 2464.76,-1874.62 2494.43,-1917.23"/>
<polygon fill="#deb256" stroke="#deb256" stroke-width="2" points="2499.48,-1924.34 2490.03,-1918.8 2497.59,-1922.54 2493.29,-1916.48 2493.69,-1916.19 2494.1,-1915.9 2498.41,-1921.96 2497.36,-1913.59 2499.48,-1924.34"/>
</g>
<!-- 4708&#45;&gt;58310 -->
<g id="edge14" class="edge">
<title>4708&#45;&gt;58310</title>
<path fill="none" stroke="#379469" stroke-dasharray="5,2" d="M2388.95,-1720.91C2230.78,-1849.68 2194.96,-1877.67 2128.87,-1908.98"/>
<polygon fill="#379469" stroke="#379469" points="2119.98,-1913.12 2127.14,-1904.81 2123.41,-1911.52 2129.04,-1908.89 2129.04,-1908.89 2129.04,-1908.89 2123.41,-1911.52 2130.94,-1912.97 2119.98,-1913.12"/>
</g>
<!-- 60329 -->
<g id="node44" class="node">
<title>60329</title>
<polygon fill="none" stroke="#b8bf62" points="3089.32,-1881.94 3089.32,-1896.85 3006.13,-1907.39 2888.49,-1907.39 2805.31,-1896.85 2805.31,-1881.94 2888.49,-1871.39 3006.13,-1871.39 3089.32,-1881.94"/>
<polygon fill="none" stroke="#b8bf62" points="3093.32,-1878.41 3093.32,-1900.37 3006.39,-1911.39 2888.24,-1911.39 2801.31,-1900.37 2801.31,-1878.41 2888.24,-1867.39 3006.39,-1867.39 3093.32,-1878.41"/>
<text text-anchor="middle" x="2947.31" y="-1884.34" font-family="Times,serif" font-size="14.00">foss&#45;license:Unicode License v3</text>
</g>
<!-- 4708&#45;&gt;60329 -->
<g id="edge15" class="edge">
<title>4708&#45;&gt;60329</title>
<path fill="none" stroke="#b8bf62" stroke-width="2" d="M2456.05,-1720.85C2643.06,-1825.44 2713.98,-1863.38 2790.21,-1878.29"/>
<polygon fill="#b8bf62" stroke="#b8bf62" stroke-width="2" points="2798.62,-1879.81 2787.98,-1882.46 2796.01,-1879.85 2788.69,-1878.52 2788.78,-1878.03 2788.87,-1877.54 2796.19,-1878.86 2789.58,-1873.6 2798.62,-1879.81"/>
</g>
<!-- 68629 -->
<g id="node47" class="node">
<title>68629</title>
<polygon fill="none" stroke="#00876c" points="2489.99,-1637.05 2489.99,-1651.96 2423.35,-1662.51 2329.12,-1662.51 2262.49,-1651.96 2262.49,-1637.05 2329.12,-1626.51 2423.35,-1626.51 2489.99,-1637.05"/>
<polygon fill="none" stroke="#00876c" points="2493.99,-1633.64 2493.99,-1655.38 2423.67,-1666.51 2328.81,-1666.51 2258.49,-1655.38 2258.49,-1633.64 2328.81,-1622.51 2423.67,-1622.51 2493.99,-1633.64"/>
<text text-anchor="middle" x="2376.24" y="-1639.46" font-family="Times,serif" font-size="14.00">spdx:Unicode License v3</text>
</g>
<!-- 4708&#45;&gt;68629 -->
<g id="edge16" class="edge">
<title>4708&#45;&gt;68629</title>
<path fill="none" stroke="#00876c" stroke-width="2" d="M2388.74,-1676.26C2388.69,-1676.17 2388.64,-1676.09 2388.6,-1676.01"/>
<polygon fill="#00876c" stroke="#00876c" stroke-width="2" points="2385.27,-1668.82 2393.55,-1676 2386.8,-1670.93 2389.92,-1677.68 2389.47,-1677.89 2389.02,-1678.1 2385.89,-1671.35 2385.39,-1679.78 2385.27,-1668.82"/>
</g>
<!-- 4709 -->
<g id="node6" class="node">
<title>4709</title>
<text text-anchor="middle" x="2138.11" y="-45.85" font-family="Times,serif" font-size="14.00">SPDXLicense:</text>
<text text-anchor="middle" x="2138.11" y="-29.35" font-family="Times,serif" font-size="14.00">Note, this url has been used for prior versions of this license as well.</text>
</g>
<!-- 4709&#45;&gt;4705 -->
<g id="edge17" class="edge">
<title>4709&#45;&gt;4705</title>
<path fill="none" stroke="#dac767" d="M2123.96,-62.91C2011.77,-223.86 2006.48,-243.7 1968.94,-613.4"/>
<polygon fill="#dac767" stroke="#dac767" points="1965.47,-612.91 1967.94,-623.21 1972.43,-613.62 1965.47,-612.91"/>
</g>
<!-- 4710 -->
<g id="node7" class="node">
<title>4710</title>
<text text-anchor="middle" x="1750.93" y="-234.95" font-family="Times,serif" font-size="14.00">$TEXT</text>
</g>
<!-- 4710&#45;&gt;4705 -->
<g id="edge18" class="edge">
<title>4710&#45;&gt;4705</title>
<path fill="none" stroke="#dac767" d="M1759.51,-257.99C1808.95,-361.63 1817.98,-379.08 1944.02,-615.05"/>
<polygon fill="#dac767" stroke="#dac767" points="1940.82,-616.48 1948.62,-623.65 1947,-613.18 1940.82,-616.48"/>
</g>
<!-- 4711 -->
<g id="node8" class="node">
<title>4711</title>
<text text-anchor="middle" x="1644.25" y="-13.1" font-family="Times,serif" font-size="14.00">$TEXT</text>
</g>
<!-- 4711&#45;&gt;4710 -->
<g id="edge19" class="edge">
<title>4711&#45;&gt;4710</title>
<path fill="none" stroke="#dac767" d="M1651.93,-36C1672.6,-83.9 1679.85,-98.79 1736.94,-212.2"/>
<polygon fill="#dac767" stroke="#dac767" points="1733.75,-213.66 1741.38,-221.02 1740.01,-210.51 1733.75,-213.66"/>
</g>
<!-- 4712 -->
<g id="node9" class="node">
<title>4712</title>
<text text-anchor="middle" x="1935.3" y="-165.18" font-family="Times,serif" font-size="14.00">https://www.unicode.org/license.txt</text>
</g>
<!-- 4712&#45;&gt;4705 -->
<g id="edge20" class="edge">
<title>4712&#45;&gt;4705</title>
<path fill="none" stroke="#dac767" d="M1932.19,-188.07C1909.42,-319.08 1910.39,-336.46 1957.88,-613.54"/>
<polygon fill="#dac767" stroke="#dac767" points="1954.42,-614.03 1959.56,-623.29 1961.32,-612.85 1954.42,-614.03"/>
</g>
<!-- 5550 -->
<g id="node10" class="node">
<title>5550</title>
<text text-anchor="middle" x="2832.98" y="-2973.6" font-family="Times,serif" font-size="14.00">LicenseType Permissive</text>
</g>
<!-- 32605 -->
<g id="node21" class="node">
<title>32605</title>
<ellipse fill="none" stroke="#deb256" cx="2924.55" cy="-2551.92" rx="153.97" ry="28.99"/>
<text text-anchor="middle" x="2924.55" y="-2555.12" font-family="Times,serif" font-size="14.00" fill="gray">ScancodeData</text>
<text text-anchor="middle" x="2924.55" y="-2538.62" font-family="Times,serif" font-size="14.00" fill="gray">5f2385c1e95dd1879eff6053ddf1f4c4</text>
</g>
<!-- 5550&#45;&gt;32605 -->
<g id="edge21" class="edge">
<title>5550&#45;&gt;32605</title>
<path fill="none" stroke="#deb256" d="M2842.89,-2960.8C2902.32,-2853.41 2906.09,-2835.83 2921.93,-2592.48"/>
<polygon fill="#deb256" stroke="#deb256" points="2925.41,-2592.82 2922.57,-2582.61 2918.43,-2592.36 2925.41,-2592.82"/>
</g>
<!-- 6592 -->
<g id="node11" class="node">
<title>6592</title>
<text text-anchor="middle" x="661.27" y="-857.99" font-family="Times,serif" font-size="14.00">[&quot;allowed&quot;]</text>
</g>
<!-- 9304 -->
<g id="node13" class="node">
<title>9304</title>
<ellipse fill="none" stroke="#e09d4b" cx="1078.6" cy="-1061.91" rx="154.5" ry="28.99"/>
<text text-anchor="middle" x="1078.6" y="-1065.11" font-family="Times,serif" font-size="14.00" fill="gray">FedoraEntry</text>
<text text-anchor="middle" x="1078.6" y="-1048.61" font-family="Times,serif" font-size="14.00" fill="gray">4358177fc7ae7bfc04ac4319b66ac8fc</text>
</g>
<!-- 6592&#45;&gt;9304 -->
<g id="edge22" class="edge">
<title>6592&#45;&gt;9304</title>
<path fill="none" stroke="#e09d4b" d="M692.83,-881.01C776.19,-928.26 805.01,-941.93 1006.67,-1030.39"/>
<polygon fill="#e09d4b" stroke="#e09d4b" points="1005.09,-1033.51 1015.65,-1034.32 1007.9,-1027.1 1005.09,-1033.51"/>
</g>
<!-- 6593 -->
<g id="node12" class="node">
<title>6593</title>
<text text-anchor="start" x="177.76" y="-705.86" font-family="Times,serif" font-size="14.00">Fedora: </text>
<text text-anchor="start" x="222.76" y="-705.86" font-family="Times,serif" font-weight="bold" font-size="14.00" fill="#228b22">allowed</text>
<text text-anchor="start" x="13.88" y="-691.86" font-family="Times,serif" font-size="14.00">A license is allowed if Fedora determines that the license is a free software /</text>
<text text-anchor="start" x="8.63" y="-677.86" font-family="Times,serif" font-size="14.00">open source license. At a high level, the inquiry involves determining whether</text>
<text text-anchor="start" x="7.51" y="-663.86" font-family="Times,serif" font-size="14.00">the license provides software freedom, and (equivalently) making sure that the</text>
<text text-anchor="start" x="17.63" y="-649.86" font-family="Times,serif" font-size="14.00">license does not place burdens on users&#39; exercise of its permissions that are</text>
<text text-anchor="start" x="17.26" y="-635.86" font-family="Times,serif" font-size="14.00">inconsistent with evolving community norms and traditions around what is</text>
<text text-anchor="start" x="9.01" y="-621.86" font-family="Times,serif" font-size="14.00">acceptable in a free software / open source license. See below for more on the</text>
<text text-anchor="start" x="129.01" y="-607.86" font-family="Times,serif" font-size="14.00">history of Fedora licensing policy.</text>
</g>
<!-- 6593&#45;&gt;6592 -->
<g id="edge23" class="edge">
<title>6593&#45;&gt;6592</title>
<path fill="none" stroke="#e09d4b" d="M341.19,-722.11C393.68,-747.05 459.31,-775.65 611.31,-841.43"/>
<polygon fill="#e09d4b" stroke="#e09d4b" points="609.5,-844.46 620.06,-845.22 612.28,-838.03 609.5,-844.46"/>
</g>
<!-- 9304&#45;&gt;9305 -->
<g id="edge24" class="edge">
<title>9304&#45;&gt;9305</title>
<path fill="none" stroke="#e09d4b" d="M1123.9,-1090.09C1228.95,-1154.93 1267.96,-1172.73 1552.26,-1293.59"/>
<polygon fill="#e09d4b" stroke="#e09d4b" points="1550.51,-1296.65 1561.08,-1297.34 1553.25,-1290.21 1550.51,-1296.65"/>
</g>
<!-- 9308 -->
<g id="node15" class="node">
<title>9308</title>
<polygon fill="none" stroke="black" points="2208.82,-2342.63 2208.82,-2357.54 2162.31,-2368.09 2096.53,-2368.09 2050.01,-2357.54 2050.01,-2342.63 2096.53,-2332.09 2162.31,-2332.09 2208.82,-2342.63"/>
<text text-anchor="middle" x="2129.42" y="-2345.04" font-family="Times,serif" font-size="14.00">Unicode License</text>
</g>
<!-- 9308&#45;&gt;58310 -->
<g id="edge25" class="edge">
<title>9308&#45;&gt;58310</title>
<path fill="none" stroke="#379469" stroke-dasharray="5,2" d="M2119.46,-2331.87C2057.99,-2219.01 2055.85,-2202.72 2066.66,-1969.26"/>
<polygon fill="#379469" stroke="#379469" points="2067.11,-1959.55 2071.14,-1969.75 2066.93,-1963.33 2066.65,-1969.54 2066.65,-1969.54 2066.65,-1969.54 2066.93,-1963.33 2062.15,-1969.33 2067.11,-1959.55"/>
</g>
<!-- 10886 -->
<g id="node16" class="node">
<title>10886</title>
<text text-anchor="middle" x="622.59" y="-1555.55" font-family="Times,serif" font-size="14.00">$RULE</text>
</g>
<!-- 11033 -->
<g id="node17" class="node">
<title>11033</title>
<ellipse fill="none" stroke="#78ab63" cx="1020.12" cy="-1544.08" rx="158.75" ry="28.99"/>
<text text-anchor="middle" x="1020.12" y="-1547.28" font-family="Times,serif" font-size="14.00" fill="gray">OSADLRule</text>
<text text-anchor="middle" x="1020.12" y="-1530.78" font-family="Times,serif" font-size="14.00" fill="gray">860e6842fbd37dc742c8c51c57a3e974</text>
</g>
<!-- 10886&#45;&gt;11033 -->
<g id="edge26" class="edge">
<title>10886&#45;&gt;11033</title>
<path fill="none" stroke="#78ab63" d="M651.52,-1558.98C717.6,-1555.29 747.84,-1553.83 852.48,-1550.03"/>
<polygon fill="#78ab63" stroke="#78ab63" points="852.49,-1553.54 862.36,-1549.68 852.24,-1546.54 852.49,-1553.54"/>
</g>
<!-- 11033&#45;&gt;11034 -->
<g id="edge27" class="edge">
<title>11033&#45;&gt;11034</title>
<path fill="none" stroke="#78ab63" d="M1179.15,-1544.61C1236.76,-1544.49 1309.53,-1543.94 1455.38,-1542.71"/>
<polygon fill="#78ab63" stroke="#78ab63" points="1454.98,-1546.22 1464.95,-1542.63 1454.93,-1539.22 1454.98,-1546.22"/>
</g>
<!-- 11375 -->
<g id="node19" class="node">
<title>11375</title>
<ellipse fill="none" stroke="#78ab63" cx="1080.8" cy="-1792.39" rx="157.68" ry="28.99"/>
<text text-anchor="middle" x="1080.8" y="-1795.59" font-family="Times,serif" font-size="14.00" fill="gray">OSADLMatrix</text>
<text text-anchor="middle" x="1080.8" y="-1779.09" font-family="Times,serif" font-size="14.00" fill="gray">965b476da1507c04fa887ebad3f464da</text>
</g>
<!-- 11375&#45;&gt;11034 -->
<g id="edge28" class="edge">
<title>11375&#45;&gt;11034</title>
<path fill="none" stroke="#78ab63" d="M1114.61,-1763.7C1208.2,-1685.08 1239.95,-1669.54 1497.16,-1565.71"/>
<polygon fill="#78ab63" stroke="#78ab63" points="1498.23,-1569.06 1506.19,-1562.07 1495.61,-1562.56 1498.23,-1569.06"/>
</g>
<!-- 11376 -->
<g id="node20" class="node">
<title>11376</title>
<text text-anchor="middle" x="685.59" y="-1990.44" font-family="Times,serif" font-size="14.00">$COMPATIBILITIES</text>
</g>
<!-- 11376&#45;&gt;11375 -->
<g id="edge29" class="edge">
<title>11376&#45;&gt;11375</title>
<path fill="none" stroke="#78ab63" d="M710.06,-1977.63C789.34,-1920.05 814.16,-1906.99 1007.3,-1823.93"/>
<polygon fill="#78ab63" stroke="#78ab63" points="1008.63,-1827.16 1016.44,-1820 1005.87,-1820.73 1008.63,-1827.16"/>
</g>
<!-- 32605&#45;&gt;32606 -->
<g id="edge30" class="edge">
<title>32605&#45;&gt;32606</title>
<path fill="none" stroke="#deb256" d="M2896.69,-2523.04C2769.13,-2390.4 2751.88,-2362.44 2535.52,-1980.79"/>
<polygon fill="#deb256" stroke="#deb256" points="2538.6,-1979.14 2530.63,-1972.16 2532.51,-1982.59 2538.6,-1979.14"/>
</g>
<!-- 32606&#45;&gt;4706 -->
<g id="edge31" class="edge">
<title>32606&#45;&gt;4706</title>
<path fill="none" stroke="#00876c" stroke-width="2" d="M2503.45,-1926.35C2442.95,-1840.35 2201.59,-1529.6 2114.36,-1424.76"/>
<polygon fill="#00876c" stroke="#00876c" stroke-width="2" points="2108.94,-1418.28 2118.8,-1423.06 2110.96,-1419.93 2115.74,-1425.63 2115.35,-1425.95 2114.97,-1426.27 2110.2,-1420.57 2111.9,-1428.84 2108.94,-1418.28"/>
</g>
<!-- 32606&#45;&gt;58310 -->
<g id="edge32" class="edge">
<title>32606&#45;&gt;58310</title>
<path fill="none" stroke="#379469" stroke-dasharray="5,2" d="M2454.54,-1966.73C2279.95,-2016.64 2246.6,-2017.5 2126.04,-1962.9"/>
<polygon fill="#379469" stroke="#379469" points="2117.15,-1958.85 2128.12,-1958.91 2120.59,-1960.42 2126.25,-1963 2126.25,-1963 2126.25,-1963 2120.59,-1960.42 2124.38,-1967.09 2117.15,-1958.85"/>
</g>
<!-- 32606&#45;&gt;60329 -->
<g id="edge33" class="edge">
<title>32606&#45;&gt;60329</title>
<path fill="none" stroke="#b8bf62" stroke-width="2" d="M2602.41,-1962.58C2760.6,-1987.52 2793.07,-1981.75 2900.77,-1917.6"/>
<polygon fill="#b8bf62" stroke="#b8bf62" stroke-width="2" points="2908.29,-1913.1 2902.02,-1922.1 2906.35,-1914.84 2899.97,-1918.66 2899.71,-1918.24 2899.45,-1917.81 2905.83,-1913.99 2897.4,-1914.38 2908.29,-1913.1"/>
</g>
<!-- 32607 -->
<g id="node23" class="node">
<title>32607</title>
<polygon fill="none" stroke="black" points="2863.26,-2152.55 2863.26,-2167.47 2830.05,-2178.01 2783.09,-2178.01 2749.88,-2167.47 2749.88,-2152.55 2783.09,-2142.01 2830.05,-2142.01 2863.26,-2152.55"/>
<polygon fill="none" stroke="black" points="2867.26,-2149.63 2867.26,-2170.39 2830.67,-2182.01 2782.47,-2182.01 2745.88,-2170.39 2745.88,-2149.63 2782.47,-2138.01 2830.67,-2138.01 2867.26,-2149.63"/>
<text text-anchor="middle" x="2806.57" y="-2154.96" font-family="Times,serif" font-size="14.00">unicode&#45;v3</text>
</g>
<!-- 32607&#45;&gt;32606 -->
<g id="edge34" class="edge">
<title>32607&#45;&gt;32606</title>
<path fill="none" stroke="black" stroke-width="2" d="M2759.28,-2144.86C2686.95,-2120.16 2663.37,-2099.4 2546.33,-1978.62"/>
<polygon fill="black" stroke="black" stroke-width="2" points="2540.55,-1972.65 2550.74,-1976.71 2542.69,-1974.15 2547.86,-1979.49 2547.5,-1979.84 2547.15,-1980.18 2541.97,-1974.84 2544.27,-1982.97 2540.55,-1972.65"/>
</g>
<!-- 32607&#45;&gt;60329 -->
<g id="edge35" class="edge">
<title>32607&#45;&gt;60329</title>
<path fill="none" stroke="#b8bf62" stroke-width="2" d="M2833.19,-2138.38C2909.14,-2075.93 2916.84,-2058.56 2941.35,-1922.73"/>
<polygon fill="#b8bf62" stroke="#b8bf62" stroke-width="2" points="2942.87,-1914.26 2945.53,-1924.9 2942.91,-1916.87 2941.6,-1924.19 2941.1,-1924.11 2940.61,-1924.02 2941.93,-1916.7 2936.68,-1923.31 2942.87,-1914.26"/>
</g>
<!-- 32608 -->
<g id="node24" class="node">
<title>32608</title>
<text text-anchor="middle" x="3026.98" y="-3017.25" font-family="Times,serif" font-size="14.00">https://www.unicode.org/license.txt</text>
</g>
<!-- 32608&#45;&gt;32605 -->
<g id="edge36" class="edge">
<title>32608&#45;&gt;32605</title>
<path fill="none" stroke="#deb256" d="M3024.98,-3004.31C3011.36,-2881.92 3007.51,-2864.23 2935.23,-2592.11"/>
<polygon fill="#deb256" stroke="#deb256" points="2938.63,-2591.29 2932.68,-2582.53 2931.87,-2593.09 2938.63,-2591.29"/>
</g>
<!-- 32609 -->
<g id="node25" class="node">
<title>32609</title>
<text text-anchor="middle" x="3248.08" y="-2971.55" font-family="Times,serif" font-size="14.00">https://opensource.org/license/unicode&#45;license&#45;v3</text>
</g>
<!-- 32609&#45;&gt;32605 -->
<g id="edge37" class="edge">
<title>32609&#45;&gt;32605</title>
<path fill="none" stroke="#deb256" d="M3230.5,-2958.79C3136.98,-2863.87 3123.06,-2845.27 2950.36,-2590.06"/>
<polygon fill="#deb256" stroke="#deb256" points="2953.5,-2588.46 2944.99,-2582.14 2947.7,-2592.38 2953.5,-2588.46"/>
</g>
<!-- 32610 -->
<g id="node26" class="node">
<title>32610</title>
<text text-anchor="middle" x="3421.87" y="-2769.21" font-family="Times,serif" font-size="14.00">OSI: https://opensource.org/license/unicode&#45;license&#45;v3</text>
</g>
<!-- 32610&#45;&gt;32605 -->
<g id="edge38" class="edge">
<title>32610&#45;&gt;32605</title>
<path fill="none" stroke="#deb256" d="M3284.63,-2756.27C3208.11,-2738.58 3147.26,-2700.74 2976.28,-2586.53"/>
<polygon fill="#deb256" stroke="#deb256" points="2978.25,-2583.63 2967.99,-2580.99 2974.36,-2589.45 2978.25,-2583.63"/>
</g>
<!-- 32611 -->
<g id="node27" class="node">
<title>32611</title>
<text text-anchor="middle" x="3187.05" y="-2768.24" font-family="Times,serif" font-size="14.00">$TEXT</text>
</g>
<!-- 32611&#45;&gt;32605 -->
<g id="edge39" class="edge">
<title>32611&#45;&gt;32605</title>
<path fill="none" stroke="#deb256" d="M3158.83,-2759.3C3091.37,-2725.3 3072.98,-2709.03 2959.46,-2588.92"/>
<polygon fill="#deb256" stroke="#deb256" points="2962.3,-2586.82 2952.89,-2581.96 2957.21,-2591.63 2962.3,-2586.82"/>
</g>
<!-- 35432 -->
<g id="node28" class="node">
<title>35432</title>
<text text-anchor="middle" x="2116.88" y="-1006.14" font-family="Times,serif" font-size="14.00">LicenseTag (ScopedLicenseTag &quot;OrtLicenseCategorization&quot; &quot;permissive&quot; NoLicenseTagText)</text>
</g>
<!-- 39389 -->
<g id="node30" class="node">
<title>39389</title>
<ellipse fill="none" stroke="#d43d51" cx="2062.56" cy="-954.04" rx="158.22" ry="28.99"/>
<text text-anchor="middle" x="2062.56" y="-957.24" font-family="Times,serif" font-size="14.00" fill="gray">OrtLicenseCategorization</text>
<text text-anchor="middle" x="2062.56" y="-940.74" font-family="Times,serif" font-size="14.00" fill="gray">1805aec9b68564321264f44b6f0a6e9b</text>
</g>
<!-- 35432&#45;&gt;39389 -->
<g id="edge40" class="edge">
<title>35432&#45;&gt;39389</title>
<path fill="none" stroke="#d43d51" d="M2101.05,-993.25C2100.37,-992.48 2099.71,-991.73 2099.07,-991.01"/>
<polygon fill="#d43d51" stroke="#d43d51" points="2101.93,-988.96 2092.66,-983.82 2096.7,-993.62 2101.93,-988.96"/>
</g>
<!-- 39901 -->
<g id="node33" class="node">
<title>39901</title>
<ellipse fill="none" stroke="#d43d51" cx="1671.82" cy="-1003.15" rx="151.32" ry="28.99"/>
<text text-anchor="middle" x="1671.82" y="-1006.35" font-family="Times,serif" font-size="14.00" fill="gray">OrtLicenseCategorization</text>
<text text-anchor="middle" x="1671.82" y="-989.85" font-family="Times,serif" font-size="14.00" fill="gray">675e4ff01f8369c4ff354728bf0138fc</text>
</g>
<!-- 35432&#45;&gt;39901 -->
<g id="edge41" class="edge">
<title>35432&#45;&gt;39901</title>
<path fill="none" stroke="#d43d51" d="M2033.4,-993.22C1878.1,-960.26 1830.58,-954.85 1758.46,-974.6"/>
<polygon fill="#d43d51" stroke="#d43d51" points="1757.74,-971.17 1749.09,-977.28 1759.66,-977.9 1757.74,-971.17"/>
</g>
<!-- 35433 -->
<g id="node29" class="node">
<title>35433</title>
<text text-anchor="middle" x="1602.16" y="-940.89" font-family="Times,serif" font-size="14.00">LicenseTag (ScopedLicenseTag &quot;OrtLicenseCategorization&quot; &quot;include&#45;in&#45;notice&#45;file&quot; NoLicenseTagText)</text>
</g>
<!-- 35433&#45;&gt;39389 -->
<g id="edge42" class="edge">
<title>35433&#45;&gt;39389</title>
<path fill="none" stroke="#d43d51" d="M1653.66,-928.07C1748.41,-896.42 1786.06,-895.83 1948.03,-929.5"/>
<polygon fill="#d43d51" stroke="#d43d51" points="1946.9,-932.84 1957.4,-931.45 1948.33,-925.98 1946.9,-932.84"/>
</g>
<!-- 35433&#45;&gt;39901 -->
<g id="edge43" class="edge">
<title>35433&#45;&gt;39901</title>
<path fill="none" stroke="#d43d51" d="M1621.45,-963.69C1622.93,-964.95 1624.5,-966.26 1626.21,-967.66"/>
<polygon fill="#d43d51" stroke="#d43d51" points="1623.71,-970.14 1633.7,-973.66 1628.08,-964.68 1623.71,-970.14"/>
</g>
<!-- 39390 -->
<g id="node31" class="node">
<title>39390</title>
<polygon fill="none" stroke="#d43d51" points="2904.94,-718.05 2904.94,-732.96 2803.26,-743.5 2659.46,-743.5 2557.78,-732.96 2557.78,-718.05 2659.46,-707.5 2803.26,-707.5 2904.94,-718.05"/>
<polygon fill="none" stroke="#d43d51" points="2908.94,-714.44 2908.94,-736.56 2803.46,-747.5 2659.25,-747.5 2553.78,-736.56 2553.78,-714.44 2659.25,-703.5 2803.46,-703.5 2908.94,-714.44"/>
<text text-anchor="middle" x="2731.36" y="-720.45" font-family="Times,serif" font-size="14.00">SPDX:LicenseRef&#45;scancode&#45;unicode&#45;v3</text>
</g>
<!-- 39389&#45;&gt;39390 -->
<g id="edge44" class="edge">
<title>39389&#45;&gt;39390</title>
<path fill="none" stroke="#d43d51" d="M2098.34,-925.36C2315.36,-751.61 2373.25,-712.09 2542.12,-714.5"/>
<polygon fill="#d43d51" stroke="#d43d51" points="2541.83,-718 2551.9,-714.69 2541.97,-711 2541.83,-718"/>
</g>
<!-- 39391 -->
<g id="node32" class="node">
<title>39391</title>
<polygon fill="none" stroke="black" points="4297.15,-940.65 4297.15,-955.56 4212.01,-966.1 4091.62,-966.1 4006.49,-955.56 4006.49,-940.65 4091.62,-930.1 4212.01,-930.1 4297.15,-940.65"/>
<polygon fill="none" stroke="black" points="4301.15,-937.11 4301.15,-959.1 4212.26,-970.1 4091.38,-970.1 4002.49,-959.1 4002.49,-937.11 4091.38,-926.1 4212.26,-926.1 4301.15,-937.11"/>
<text text-anchor="middle" x="4151.82" y="-943.05" font-family="Times,serif" font-size="14.00">LicenseRef&#45;scancode&#45;unicode&#45;v3</text>
</g>
<!-- 39391&#45;&gt;39390 -->
<g id="edge45" class="edge">
<title>39391&#45;&gt;39390</title>
<path fill="none" stroke="#d43d51" stroke-width="2" d="M4113.5,-925.74C3707.64,-689.19 3655.97,-673.01 2920.55,-714.56"/>
<polygon fill="#d43d51" stroke="#d43d51" stroke-width="2" points="2911.84,-715.05 2921.57,-710 2914.37,-714.41 2921.79,-713.99 2921.82,-714.49 2921.85,-714.99 2914.42,-715.41 2922.08,-718.98 2911.84,-715.05"/>
</g>
<!-- 68628 -->
<g id="node46" class="node">
<title>68628</title>
<polygon fill="none" stroke="#00876c" points="2893.12,-1201.71 2893.12,-1216.62 2784.95,-1227.16 2631.97,-1227.16 2523.8,-1216.62 2523.8,-1201.71 2631.97,-1191.16 2784.95,-1191.16 2893.12,-1201.71"/>
<polygon fill="none" stroke="#00876c" points="2897.12,-1198.08 2897.12,-1220.25 2785.14,-1231.16 2631.77,-1231.16 2519.8,-1220.25 2519.8,-1198.08 2631.77,-1187.16 2785.14,-1187.16 2897.12,-1198.08"/>
<text text-anchor="middle" x="2708.46" y="-1204.11" font-family="Times,serif" font-size="14.00">scancode:LicenseRef&#45;scancode&#45;unicode&#45;v3</text>
</g>
<!-- 39391&#45;&gt;68628 -->
<g id="edge46" class="edge">
<title>39391&#45;&gt;68628</title>
<path fill="none" stroke="#00876c" stroke-width="2" d="M4002.18,-950.84C3693.51,-958.61 3583.5,-984.2 2803.57,-1184.71"/>
<polygon fill="#00876c" stroke="#00876c" stroke-width="2" points="2795.27,-1186.84 2803.83,-1179.99 2797.63,-1185.72 2804.83,-1183.86 2804.95,-1184.35 2805.08,-1184.83 2797.87,-1186.68 2806.07,-1188.71 2795.27,-1186.84"/>
</g>
<!-- 39901&#45;&gt;4706 -->
<g id="edge47" class="edge">
<title>39901&#45;&gt;4706</title>
<path fill="none" stroke="#d43d51" d="M1693.85,-1032.17C1775.15,-1138.75 1798.17,-1159.48 2041.36,-1356.45"/>
<polygon fill="#d43d51" stroke="#d43d51" points="2038.96,-1359 2048.93,-1362.58 2043.36,-1353.56 2038.96,-1359"/>
</g>
<!-- 39999 -->
<g id="node34" class="node">
<title>39999</title>
<text text-anchor="middle" x="2382.86" y="-893.01" font-family="Times,serif" font-size="14.00">LicenseTag (ScopedLicenseTag &quot;OrtLicenseCategorization&quot; &quot;permissive&quot; (LicenseTagDescription &quot;Open source license that is made available under \&quot;non&#45;copyleft\&quot; licenses. These generally require attribution of the included works and may include other obligations.&quot;))</text>
</g>
<!-- 40938 -->
<g id="node37" class="node">
<title>40938</title>
<ellipse fill="none" stroke="#e06f45" cx="2479.34" cy="-955.18" rx="155.56" ry="28.99"/>
<text text-anchor="middle" x="2479.34" y="-958.38" font-family="Times,serif" font-size="14.00" fill="gray">OrtLicenseCategorization</text>
<text text-anchor="middle" x="2479.34" y="-941.88" font-family="Times,serif" font-size="14.00" fill="gray">4c65ae154e852fe90cc68aae0963f23d</text>
</g>
<!-- 39999&#45;&gt;40938 -->
<g id="edge48" class="edge">
<title>39999&#45;&gt;40938</title>
<path fill="none" stroke="#e06f45" d="M2438.44,-915.89C2439.57,-916.78 2440.74,-917.73 2441.93,-918.74"/>
<polygon fill="#e06f45" stroke="#e06f45" points="2439.49,-921.25 2449.27,-925.32 2444.16,-916.04 2439.49,-921.25"/>
</g>
<!-- 40001 -->
<g id="node35" class="node">
<title>40001</title>
<text text-anchor="middle" x="3964.67" y="-893.11" font-family="Times,serif" font-size="14.00">LicenseTag (ScopedLicenseTag &quot;OrtLicenseCategorization&quot; &quot;property:include&#45;in&#45;notice&#45;file&quot; (LicenseTagDescription &quot;Whether the license includes a notice obligation or similar which can be fulfilled by adding the relevant copyright notices and the license text into the project/product notice file.&quot;))</text>
</g>
<!-- 40001&#45;&gt;40938 -->
<g id="edge49" class="edge">
<title>40001&#45;&gt;40938</title>
<path fill="none" stroke="#e06f45" d="M3906.41,-880.26C3471.64,-747.21 3419.5,-749.13 2591.89,-930.48"/>
<polygon fill="#e06f45" stroke="#e06f45" points="2591.38,-927.01 2582.37,-932.57 2592.88,-933.84 2591.38,-927.01"/>
</g>
<!-- 40002 -->
<g id="node36" class="node">
<title>40002</title>
<text text-anchor="middle" x="4192.32" y="-126.36" font-family="Times,serif" font-size="14.00">LicenseTag (ScopedLicenseTag &quot;OrtLicenseCategorization&quot; &quot;include&#45;in&#45;notice&#45;file&quot; (LicenseTagDescription &quot;Same as above, as a temporary work&#45;around for the category name not being configurable in ORT reports, see https://github.com/oss&#45;review&#45;toolkit/ort/issues/8220.&quot;))</text>
</g>
<!-- 40002&#45;&gt;40938 -->
<g id="edge50" class="edge">
<title>40002&#45;&gt;40938</title>
<path fill="none" stroke="#e06f45" d="M4106.09,-149.41C3592.8,-257.27 3533.27,-291.03 2533.38,-921.12"/>
<polygon fill="#e06f45" stroke="#e06f45" points="2531.68,-918.06 2525.08,-926.35 2535.41,-923.98 2531.68,-918.06"/>
</g>
<!-- 40938&#45;&gt;4706 -->
<g id="edge51" class="edge">
<title>40938&#45;&gt;4706</title>
<path fill="none" stroke="#e06f45" d="M2419.23,-982.31C2230.27,-1068.75 2212.1,-1095.25 2098.86,-1353.28"/>
<polygon fill="#e06f45" stroke="#e06f45" points="2095.69,-1351.79 2094.88,-1362.36 2102.1,-1354.6 2095.69,-1351.79"/>
</g>
<!-- 42890 -->
<g id="node38" class="node">
<title>42890</title>
<ellipse fill="none" stroke="#379469" cx="1191.2" cy="-2301.98" rx="158.75" ry="28.99"/>
<text text-anchor="middle" x="1191.2" y="-2305.18" font-family="Times,serif" font-size="14.00" fill="gray">CavilLicenseChange</text>
<text text-anchor="middle" x="1191.2" y="-2288.68" font-family="Times,serif" font-size="14.00" fill="gray">d7f0c33cd5eddca407881a26290a2688</text>
</g>
<!-- 42890&#45;&gt;42891 -->
<g id="edge52" class="edge">
<title>42890&#45;&gt;42891</title>
<path fill="none" stroke="#379469" d="M1206.87,-2272.92C1260.72,-2173.83 1278.95,-2154.28 1465.9,-1979.62"/>
<polygon fill="#379469" stroke="#379469" points="1468.04,-1982.42 1472.96,-1973.03 1463.26,-1977.3 1468.04,-1982.42"/>
</g>
<!-- 58309 -->
<g id="node40" class="node">
<title>58309</title>
<ellipse fill="none" stroke="#379469" cx="1945.56" cy="-2475.83" rx="161.93" ry="28.99"/>
<text text-anchor="middle" x="1945.56" y="-2479.03" font-family="Times,serif" font-size="14.00" fill="gray">MetaeffektLicense</text>
<text text-anchor="middle" x="1945.56" y="-2462.53" font-family="Times,serif" font-size="14.00" fill="gray">6f71b982d05d1959620676834c659565</text>
</g>
<!-- 58309&#45;&gt;58310 -->
<g id="edge53" class="edge">
<title>58309&#45;&gt;58310</title>
<path fill="none" stroke="#379469" d="M1945.34,-2446.61C1944.51,-2300.94 1950.78,-2277.75 2056.84,-1969.1"/>
<polygon fill="#379469" stroke="#379469" points="2060.06,-1970.49 2060,-1959.9 2053.44,-1968.22 2060.06,-1970.49"/>
</g>
<!-- 58311 -->
<g id="node42" class="node">
<title>58311</title>
<polygon fill="none" stroke="#379469" points="1911.02,-2297.18 1911.02,-2312.1 1855.42,-2322.64 1776.79,-2322.64 1721.19,-2312.1 1721.19,-2297.18 1776.79,-2286.64 1855.42,-2286.64 1911.02,-2297.18"/>
<polygon fill="none" stroke="#379469" points="1915.02,-2293.87 1915.02,-2315.41 1855.79,-2326.64 1776.41,-2326.64 1717.19,-2315.41 1717.19,-2293.87 1776.41,-2282.64 1855.79,-2282.64 1915.02,-2293.87"/>
<text text-anchor="middle" x="1816.1" y="-2299.59" font-family="Times,serif" font-size="14.00">Unicode License 3.0</text>
</g>
<!-- 58311&#45;&gt;58310 -->
<g id="edge54" class="edge">
<title>58311&#45;&gt;58310</title>
<path fill="none" stroke="#379469" stroke-width="2" d="M1828.71,-2282.33C1880.89,-2190.22 1893.92,-2171.61 2045.13,-1967.21"/>
<polygon fill="#379469" stroke="#379469" stroke-width="2" points="2050.28,-1960.25 2047.95,-1970.97 2049.16,-1962.61 2044.74,-1968.59 2044.33,-1968.29 2043.93,-1967.99 2048.36,-1962.01 2040.72,-1965.61 2050.28,-1960.25"/>
</g>
<!-- 60328 -->
<g id="node43" class="node">
<title>60328</title>
<ellipse fill="none" stroke="#b8bf62" cx="3567.56" cy="-1979.41" rx="158.22" ry="28.99"/>
<text text-anchor="middle" x="3567.56" y="-1982.61" font-family="Times,serif" font-size="14.00" fill="gray">FossLicense</text>
<text text-anchor="middle" x="3567.56" y="-1966.11" font-family="Times,serif" font-size="14.00" fill="gray">e64d90a0782f10e840b8a65fda458771</text>
</g>
<!-- 60328&#45;&gt;60329 -->
<g id="edge55" class="edge">
<title>60328&#45;&gt;60329</title>
<path fill="none" stroke="#b8bf62" d="M3412.52,-1985.39C3332.54,-1982.34 3250.53,-1964.04 3038.61,-1911.92"/>
<polygon fill="#b8bf62" stroke="#b8bf62" points="3039.46,-1908.52 3028.91,-1909.53 3037.78,-1915.32 3039.46,-1908.52"/>
</g>
<!-- 68627 -->
<g id="node45" class="node">
<title>68627</title>
<ellipse fill="none" stroke="#00876c" cx="2515.24" cy="-1386.12" rx="158.22" ry="28.99"/>
<text text-anchor="middle" x="2515.24" y="-1389.32" font-family="Times,serif" font-size="14.00" fill="gray">LicenseLynx</text>
<text text-anchor="middle" x="2515.24" y="-1372.82" font-family="Times,serif" font-size="14.00" fill="gray">3db05f8510597403fea60f39597d32d8</text>
</g>
<!-- 68627&#45;&gt;4706 -->
<g id="edge56" class="edge">
<title>68627&#45;&gt;4706</title>
<path fill="none" stroke="#00876c" d="M2398.03,-1366.32C2264.64,-1344.71 2222.57,-1344.06 2153.59,-1365.42"/>
<polygon fill="#00876c" stroke="#00876c" points="2152.64,-1362.05 2144.18,-1368.42 2154.77,-1368.71 2152.64,-1362.05"/>
</g>
<!-- 68628&#45;&gt;4706 -->
<g id="edge57" class="edge">
<title>68628&#45;&gt;4706</title>
<path fill="none" stroke="#00876c" stroke-width="2" d="M2537.31,-1195.88C2353.07,-1186.31 2304.66,-1214.14 2124.71,-1356.65"/>
<polygon fill="#00876c" stroke="#00876c" stroke-width="2" points="2117.95,-1362.01 2123,-1352.27 2119.65,-1360.03 2125.48,-1355.41 2125.79,-1355.8 2126.1,-1356.19 2120.27,-1360.81 2128.59,-1359.33 2117.95,-1362.01"/>
</g>
<!-- 68629&#45;&gt;4706 -->
<g id="edge58" class="edge">
<title>68629&#45;&gt;4706</title>
<path fill="none" stroke="#00876c" stroke-width="2" d="M2337.01,-1622.09C2172.4,-1527.84 2150.73,-1511.45 2102.66,-1426.05"/>
<polygon fill="#00876c" stroke="#00876c" stroke-width="2" points="2098.48,-1418.56 2107.28,-1425.1 2100.17,-1420.56 2103.79,-1427.05 2103.35,-1427.29 2102.92,-1427.54 2099.29,-1421.04 2099.42,-1429.49 2098.48,-1418.56"/>
</g>
</g>
</svg>
