<?xml version="1.0" encoding="UTF-8" standalone="no"?>
<!DOCTYPE svg PUBLIC "-//W3C//DTD SVG 1.1//EN"
 "http://www.w3.org/Graphics/SVG/1.1/DTD/svg11.dtd">
<!-- Generated by graphviz version 10.0.1 (0)
 -->
<!-- Pages: 1 -->
<svg width="2864pt" height="2200pt"
 viewBox="0.00 0.00 2864.00 2200.00" xmlns="http://www.w3.org/2000/svg" xmlns:xlink="http://www.w3.org/1999/xlink">
<g id="graph0" class="graph" transform="scale(1 1) rotate(0) translate(4 2196)">
<polygon fill="white" stroke="none" points="-4,4 -4,-2196 2860,-2196 2860,4 -4,4"/>
<!-- 5 -->
<g id="node1" class="node">
<title>5</title>
<text text-anchor="start" x="1035.76" y="-474.89" font-family="Times,serif" font-size="14.00">OSI: </text>
<text text-anchor="start" x="1065.01" y="-474.89" font-family="Times,serif" font-weight="bold" font-size="14.00" fill="#8b0000">Rejected</text>
</g>
<!-- 4744 -->
<g id="node2" class="node">
<title>4744</title>
<ellipse fill="none" stroke="#dac767" cx="1309.99" cy="-747.59" rx="158.75" ry="28.99"/>
<text text-anchor="middle" x="1309.99" y="-750.79" font-family="Times,serif" font-size="14.00" fill="gray">SPDXLicense</text>
<text text-anchor="middle" x="1309.99" y="-734.29" font-family="Times,serif" font-size="14.00" fill="gray">8e8637bd818ab2ad6715a78cac3ac18c</text>
</g>
<!-- 5&#45;&gt;4744 -->
<g id="edge1" class="edge">
<title>5&#45;&gt;4744</title>
<path fill="none" stroke="#dac767" d="M1097.2,-496.71C1157.84,-546.77 1172.98,-564.68 1281.62,-709.69"/>
<polygon fill="#dac767" stroke="#dac767" points="1278.52,-711.39 1287.31,-717.29 1284.12,-707.19 1278.52,-711.39"/>
</g>
<!-- 4745 -->
<g id="node3" class="node">
<title>4745</title>
<polygon fill="none" stroke="black" points="1344.67,-1316.36 1344.67,-1331.27 1280.64,-1341.81 1190.07,-1341.81 1126.04,-1331.27 1126.04,-1316.36 1190.07,-1305.81 1280.64,-1305.81 1344.67,-1316.36"/>
<polygon fill="none" stroke="black" points="1348.67,-1312.96 1348.67,-1334.66 1280.96,-1345.81 1189.75,-1345.81 1122.04,-1334.66 1122.04,-1312.96 1189.75,-1301.81 1280.96,-1301.81 1348.67,-1312.96"/>
<polygon fill="none" stroke="black" points="1352.67,-1309.56 1352.67,-1338.06 1281.29,-1349.81 1189.42,-1349.81 1118.04,-1338.06 1118.04,-1309.56 1189.42,-1297.81 1281.29,-1297.81 1352.67,-1309.56"/>
<text text-anchor="middle" x="1235.35" y="-1318.76" font-family="Times,serif" font-size="14.00">spdx:Unlicense&#45;libtelnet</text>
</g>
<!-- 4744&#45;&gt;4745 -->
<g id="edge2" class="edge">
<title>4744&#45;&gt;4745</title>
<path fill="none" stroke="#dac767" d="M1292.8,-776.66C1169.68,-985.36 1167.24,-1005.79 1227.38,-1286.66"/>
<polygon fill="#dac767" stroke="#dac767" points="1223.89,-1287.11 1229.41,-1296.15 1230.74,-1285.64 1223.89,-1287.11"/>
</g>
<!-- 9873 -->
<g id="node14" class="node">
<title>9873</title>
<polygon fill="none" stroke="#e09d4b" points="1723.36,-971.85 1723.36,-986.76 1654.13,-997.31 1556.22,-997.31 1486.99,-986.76 1486.99,-971.85 1556.22,-961.31 1654.13,-961.31 1723.36,-971.85"/>
<polygon fill="none" stroke="#e09d4b" points="1727.36,-968.41 1727.36,-990.2 1654.43,-1001.31 1555.92,-1001.31 1482.99,-990.2 1482.99,-968.41 1555.92,-957.31 1654.43,-957.31 1727.36,-968.41"/>
<text text-anchor="middle" x="1605.18" y="-974.26" font-family="Times,serif" font-size="14.00">Fedora:Unlicense&#45;libtelnet</text>
</g>
<!-- 4745&#45;&gt;9873 -->
<g id="edge3" class="edge">
<title>4745&#45;&gt;9873</title>
<path fill="none" stroke="#e09d4b" stroke-width="2" d="M1292.57,-1299.29C1404.17,-1249.72 1429.19,-1220.14 1582.39,-1010.5"/>
<polygon fill="#e09d4b" stroke="#e09d4b" stroke-width="2" points="1587.4,-1003.65 1585.13,-1014.38 1586.29,-1006.01 1581.9,-1012.02 1581.5,-1011.72 1581.1,-1011.43 1585.48,-1005.42 1577.87,-1009.07 1587.4,-1003.65"/>
</g>
<!-- 32613 -->
<g id="node17" class="node">
<title>32613</title>
<polygon fill="none" stroke="black" points="1516.87,-1544.42 1516.87,-1559.34 1443.75,-1569.88 1340.34,-1569.88 1267.21,-1559.34 1267.21,-1544.42 1340.34,-1533.88 1443.75,-1533.88 1516.87,-1544.42"/>
<polygon fill="none" stroke="black" points="1520.87,-1540.96 1520.87,-1562.8 1444.03,-1573.88 1340.05,-1573.88 1263.21,-1562.8 1263.21,-1540.96 1340.05,-1529.88 1444.03,-1529.88 1520.87,-1540.96"/>
<text text-anchor="middle" x="1392.04" y="-1546.83" font-family="Times,serif" font-size="14.00">scancode:unlicense&#45;libtelnet</text>
</g>
<!-- 4745&#45;&gt;32613 -->
<g id="edge4" class="edge">
<title>4745&#45;&gt;32613</title>
<path fill="none" stroke="#deb256" stroke-width="2" d="M1248.25,-1350.24C1273.79,-1392.7 1330.59,-1475.74 1364.74,-1520.91"/>
<polygon fill="#deb256" stroke="#deb256" stroke-width="2" points="1369.98,-1527.74 1360.33,-1522.54 1368.02,-1526.01 1363.5,-1520.11 1363.9,-1519.81 1364.29,-1519.5 1368.82,-1525.41 1367.47,-1517.07 1369.98,-1527.74"/>
</g>
<!-- 58229 -->
<g id="node25" class="node">
<title>58229</title>
<polygon fill="none" stroke="#379469" points="984.05,-1369.32 984.05,-1384.24 902.17,-1394.78 786.37,-1394.78 704.48,-1384.24 704.48,-1369.32 786.37,-1358.78 902.17,-1358.78 984.05,-1369.32"/>
<polygon fill="none" stroke="#379469" points="988.05,-1365.81 988.05,-1387.75 902.43,-1398.78 786.11,-1398.78 700.48,-1387.75 700.48,-1365.81 786.11,-1354.78 902.43,-1354.78 988.05,-1365.81"/>
<text text-anchor="middle" x="844.27" y="-1371.73" font-family="Times,serif" font-size="14.00">metaeffekt:Unlicense (libtelnet)</text>
</g>
<!-- 4745&#45;&gt;58229 -->
<g id="edge5" class="edge">
<title>4745&#45;&gt;58229</title>
<path fill="none" stroke="#379469" stroke-width="2" d="M1156.27,-1344.82C1082.28,-1364.31 1035.94,-1375.7 999.5,-1381.39"/>
<polygon fill="#379469" stroke="#379469" stroke-width="2" points="990.91,-1382.63 1000.17,-1376.75 993.37,-1381.77 1000.74,-1380.71 1000.81,-1381.2 1000.88,-1381.7 993.52,-1382.76 1001.45,-1385.66 990.91,-1382.63"/>
</g>
<!-- 4746 -->
<g id="node4" class="node">
<title>4746</title>
<polygon fill="none" stroke="black" points="1632.79,-1267.67 1632.79,-1282.58 1581.41,-1293.13 1508.75,-1293.13 1457.36,-1282.58 1457.36,-1267.67 1508.75,-1257.13 1581.41,-1257.13 1632.79,-1267.67"/>
<polygon fill="none" stroke="black" points="1636.79,-1264.41 1636.79,-1285.84 1581.82,-1297.13 1508.34,-1297.13 1453.36,-1285.84 1453.36,-1264.41 1508.34,-1253.13 1581.82,-1253.13 1636.79,-1264.41"/>
<text text-anchor="middle" x="1545.08" y="-1270.08" font-family="Times,serif" font-size="14.00">Unlicense&#45;libtelnet</text>
</g>
<!-- 4746&#45;&gt;4745 -->
<g id="edge6" class="edge">
<title>4746&#45;&gt;4745</title>
<path fill="none" stroke="black" stroke-width="2" d="M1503.65,-1296.46C1417.55,-1340.41 1384.73,-1352.91 1331.03,-1345.61"/>
<polygon fill="black" stroke="black" stroke-width="2" points="1322.4,-1344.26 1332.98,-1341.36 1325.01,-1344.16 1332.36,-1345.31 1332.28,-1345.8 1332.21,-1346.3 1324.86,-1345.15 1331.59,-1350.25 1322.4,-1344.26"/>
</g>
<!-- 4746&#45;&gt;9873 -->
<g id="edge7" class="edge">
<title>4746&#45;&gt;9873</title>
<path fill="none" stroke="#e09d4b" stroke-width="2" d="M1559.83,-1252.66C1628.25,-1148.11 1632.27,-1132.38 1611.11,-1012.41"/>
<polygon fill="#e09d4b" stroke="#e09d4b" stroke-width="2" points="1609.63,-1004.05 1615.81,-1013.11 1610.57,-1006.48 1611.87,-1013.81 1611.38,-1013.89 1610.89,-1013.98 1609.58,-1006.66 1606.95,-1014.68 1609.63,-1004.05"/>
</g>
<!-- 4746&#45;&gt;32613 -->
<g id="edge8" class="edge">
<title>4746&#45;&gt;32613</title>
<path fill="none" stroke="black" stroke-width="2" d="M1537.45,-1297.52C1486,-1448.35 1475.71,-1473.97 1424.99,-1521.92"/>
<polygon fill="black" stroke="black" stroke-width="2" points="1418.63,-1527.84 1422.89,-1517.73 1420.17,-1525.73 1425.61,-1520.66 1425.95,-1521.03 1426.29,-1521.39 1420.85,-1526.46 1429.02,-1524.32 1418.63,-1527.84"/>
</g>
<!-- 4747 -->
<g id="node5" class="node">
<title>4747</title>
<polygon fill="none" stroke="black" points="1226.42,-1257.03 1226.42,-1271.94 1153.95,-1282.48 1051.46,-1282.48 978.98,-1271.94 978.98,-1257.03 1051.46,-1246.48 1153.95,-1246.48 1226.42,-1257.03"/>
<polygon fill="none" stroke="black" points="1230.42,-1253.57 1230.42,-1275.4 1154.24,-1286.48 1051.17,-1286.48 974.98,-1275.4 974.98,-1253.57 1051.17,-1242.48 1154.24,-1242.48 1230.42,-1253.57"/>
<text text-anchor="middle" x="1102.7" y="-1259.43" font-family="Times,serif" font-size="14.00">Unlicense &#45; libtelnet variant</text>
</g>
<!-- 4747&#45;&gt;4745 -->
<g id="edge9" class="edge">
<title>4747&#45;&gt;4745</title>
<path fill="none" stroke="#dac767" stroke-width="2" d="M1123.71,-1286.87C1128.39,-1291.52 1132.67,-1295.38 1136.99,-1298.64"/>
<polygon fill="#dac767" stroke="#dac767" stroke-width="2" points="1144.02,-1303.23 1133.18,-1301.53 1141.6,-1302.25 1135.37,-1298.18 1135.64,-1297.76 1135.92,-1297.35 1142.14,-1301.41 1138.1,-1294 1144.02,-1303.23"/>
</g>
<!-- 4747&#45;&gt;32613 -->
<g id="edge10" class="edge">
<title>4747&#45;&gt;32613</title>
<path fill="none" stroke="#deb256" stroke-width="2" d="M1113.56,-1286.89C1193.86,-1452.29 1209.77,-1477.08 1326.98,-1525.83"/>
<polygon fill="#deb256" stroke="#deb256" stroke-width="2" points="1334.86,-1529.08 1323.9,-1529.43 1332.3,-1528.56 1325.42,-1525.73 1325.61,-1525.27 1325.8,-1524.81 1332.68,-1527.64 1327.33,-1521.11 1334.86,-1529.08"/>
</g>
<!-- 4747&#45;&gt;58229 -->
<g id="edge11" class="edge">
<title>4747&#45;&gt;58229</title>
<path fill="none" stroke="#379469" stroke-dasharray="5,2" d="M1053.23,-1286.81C974.34,-1322.39 940.33,-1337.58 910.33,-1350.15"/>
<polygon fill="#379469" stroke="#379469" points="901.38,-1353.87 908.89,-1345.88 904.87,-1352.42 910.62,-1350.03 910.62,-1350.03 910.62,-1350.03 904.87,-1352.42 912.34,-1354.19 901.38,-1353.87"/>
</g>
<!-- 68645 -->
<g id="node29" class="node">
<title>68645</title>
<polygon fill="none" stroke="#00876c" points="1102.05,-1578.41 1102.05,-1593.32 1016.92,-1603.87 896.53,-1603.87 811.4,-1593.32 811.4,-1578.41 896.53,-1567.87 1016.92,-1567.87 1102.05,-1578.41"/>
<polygon fill="none" stroke="#00876c" points="1106.05,-1574.87 1106.05,-1596.86 1017.17,-1607.87 896.28,-1607.87 807.4,-1596.86 807.4,-1574.87 896.28,-1563.87 1017.17,-1563.87 1106.05,-1574.87"/>
<text text-anchor="middle" x="956.73" y="-1580.82" font-family="Times,serif" font-size="14.00">spdx:Unlicense &#45; libtelnet variant</text>
</g>
<!-- 4747&#45;&gt;68645 -->
<g id="edge12" class="edge">
<title>4747&#45;&gt;68645</title>
<path fill="none" stroke="#00876c" stroke-width="2" d="M1088.87,-1286.82C987.7,-1450.24 976.1,-1471.44 962.14,-1552.79"/>
<polygon fill="#00876c" stroke="#00876c" stroke-width="2" points="960.74,-1561.17 957.95,-1550.57 960.67,-1558.56 961.9,-1551.23 962.39,-1551.31 962.89,-1551.4 961.65,-1558.73 966.83,-1552.06 960.74,-1561.17"/>
</g>
<!-- 4748 -->
<g id="node6" class="node">
<title>4748</title>
<text text-anchor="middle" x="1041.17" y="-239.99" font-family="Times,serif" font-size="14.00">SPDXLicense:</text>
<text text-anchor="middle" x="1041.17" y="-223.49" font-family="Times,serif" font-size="14.00">This is license contains a small part of the Unlicense, but is much shorter.</text>
</g>
<!-- 4748&#45;&gt;4744 -->
<g id="edge13" class="edge">
<title>4748&#45;&gt;4744</title>
<path fill="none" stroke="#dac767" d="M1053.49,-257.2C1128.4,-381.43 1138.87,-401.53 1290.67,-708.51"/>
<polygon fill="#dac767" stroke="#dac767" points="1287.42,-709.84 1294.99,-717.26 1293.7,-706.74 1287.42,-709.84"/>
</g>
<!-- 4749 -->
<g id="node7" class="node">
<title>4749</title>
<text text-anchor="middle" x="1381.41" y="-338.78" font-family="Times,serif" font-size="14.00">$TEXT</text>
</g>
<!-- 4749&#45;&gt;4744 -->
<g id="edge14" class="edge">
<title>4749&#45;&gt;4744</title>
<path fill="none" stroke="#dac767" d="M1374.35,-361.67C1335.67,-459.86 1332.58,-477.53 1313.38,-706.94"/>
<polygon fill="#dac767" stroke="#dac767" points="1309.9,-706.62 1312.55,-716.87 1316.87,-707.2 1309.9,-706.62"/>
</g>
<!-- 4750 -->
<g id="node8" class="node">
<title>4750</title>
<text text-anchor="middle" x="1410.81" y="-140.59" font-family="Times,serif" font-size="14.00">$TEXT</text>
</g>
<!-- 4750&#45;&gt;4749 -->
<g id="edge15" class="edge">
<title>4750&#45;&gt;4749</title>
<path fill="none" stroke="#dac767" d="M1405.96,-163.44C1395.41,-202.8 1393.43,-217.66 1384.16,-314.87"/>
<polygon fill="#dac767" stroke="#dac767" points="1380.69,-314.37 1383.23,-324.65 1387.66,-315.03 1380.69,-314.37"/>
</g>
<!-- 4751 -->
<g id="node9" class="node">
<title>4751</title>
<text text-anchor="middle" x="1779.14" y="-1092.72" font-family="Times,serif" font-size="14.00">https://github.com/seanmiddleditch/libtelnet/blob/develop/COPYING</text>
</g>
<!-- 4751&#45;&gt;4744 -->
<g id="edge16" class="edge">
<title>4751&#45;&gt;4744</title>
<path fill="none" stroke="#dac767" d="M1767.98,-1079.83C1630.67,-859.1 1607.56,-828.64 1412.23,-774.65"/>
<polygon fill="#dac767" stroke="#dac767" points="1413.31,-771.31 1402.74,-772.04 1411.45,-778.06 1413.31,-771.31"/>
</g>
<!-- 32612 -->
<g id="node16" class="node">
<title>32612</title>
<ellipse fill="none" stroke="#deb256" cx="1960.58" cy="-1632.22" rx="154.5" ry="28.99"/>
<text text-anchor="middle" x="1960.58" y="-1635.42" font-family="Times,serif" font-size="14.00" fill="gray">ScancodeData</text>
<text text-anchor="middle" x="1960.58" y="-1618.92" font-family="Times,serif" font-size="14.00" fill="gray">067a4efdc2cd2eeb7146186cf5ef8c79</text>
</g>
<!-- 4751&#45;&gt;32612 -->
<g id="edge17" class="edge">
<title>4751&#45;&gt;32612</title>
<path fill="none" stroke="#deb256" d="M1789.36,-1115.58C1953.77,-1401.97 1965.3,-1425.5 1961.62,-1591.64"/>
<polygon fill="#deb256" stroke="#deb256" points="1958.13,-1591.2 1961.39,-1601.28 1965.13,-1591.37 1958.13,-1591.2"/>
</g>
<!-- 4762 -->
<g id="node10" class="node">
<title>4762</title>
<polygon fill="none" stroke="black" points="559.44,-1265.09 559.44,-1280 529.15,-1290.54 486.32,-1290.54 456.03,-1280 456.03,-1265.09 486.32,-1254.54 529.15,-1254.54 559.44,-1265.09"/>
<text text-anchor="middle" x="507.73" y="-1267.49" font-family="Times,serif" font-size="14.00">Unlicense</text>
</g>
<!-- 4762&#45;&gt;58229 -->
<g id="edge18" class="edge">
<title>4762&#45;&gt;58229</title>
<path fill="none" stroke="#379469" stroke-dasharray="5,2" d="M531.96,-1289.9C591.77,-1332.24 616.84,-1343.74 720.91,-1359.63"/>
<polygon fill="#379469" stroke="#379469" points="730.71,-1361.1 720.15,-1364.07 726.97,-1360.54 720.82,-1359.62 720.82,-1359.62 720.82,-1359.62 726.97,-1360.54 721.49,-1355.17 730.71,-1361.1"/>
</g>
<!-- 6592 -->
<g id="node11" class="node">
<title>6592</title>
<text text-anchor="middle" x="2311.66" y="-350.91" font-family="Times,serif" font-size="14.00">[&quot;allowed&quot;]</text>
</g>
<!-- 9872 -->
<g id="node13" class="node">
<title>9872</title>
<ellipse fill="none" stroke="#e09d4b" cx="2016.7" cy="-619.7" rx="157.15" ry="28.99"/>
<text text-anchor="middle" x="2016.7" y="-622.9" font-family="Times,serif" font-size="14.00" fill="gray">FedoraEntry</text>
<text text-anchor="middle" x="2016.7" y="-606.4" font-family="Times,serif" font-size="14.00" fill="gray">227f13bbf2dea80a4cccd3d39d8e1d67</text>
</g>
<!-- 6592&#45;&gt;9872 -->
<g id="edge19" class="edge">
<title>6592&#45;&gt;9872</title>
<path fill="none" stroke="#e09d4b" d="M2292.84,-373.69C2229.19,-433.57 2211.52,-449.35 2057.84,-583.72"/>
<polygon fill="#e09d4b" stroke="#e09d4b" points="2055.82,-580.84 2050.6,-590.06 2060.43,-586.11 2055.82,-580.84"/>
</g>
<!-- 6593 -->
<g id="node12" class="node">
<title>6593</title>
<text text-anchor="start" x="2588.81" y="-104.16" font-family="Times,serif" font-size="14.00">Fedora: </text>
<text text-anchor="start" x="2633.81" y="-104.16" font-family="Times,serif" font-weight="bold" font-size="14.00" fill="#228b22">allowed</text>
<text text-anchor="start" x="2424.94" y="-90.16" font-family="Times,serif" font-size="14.00">A license is allowed if Fedora determines that the license is a free software /</text>
<text text-anchor="start" x="2419.69" y="-76.16" font-family="Times,serif" font-size="14.00">open source license. At a high level, the inquiry involves determining whether</text>
<text text-anchor="start" x="2418.56" y="-62.16" font-family="Times,serif" font-size="14.00">the license provides software freedom, and (equivalently) making sure that the</text>
<text text-anchor="start" x="2428.69" y="-48.16" font-family="Times,serif" font-size="14.00">license does not place burdens on users&#39; exercise of its permissions that are</text>
<text text-anchor="start" x="2428.31" y="-34.16" font-family="Times,serif" font-size="14.00">inconsistent with evolving community norms and traditions around what is</text>
<text text-anchor="start" x="2420.06" y="-20.16" font-family="Times,serif" font-size="14.00">acceptable in a free software / open source license. See below for more on the</text>
<text text-anchor="start" x="2540.06" y="-6.16" font-family="Times,serif" font-size="14.00">history of Fedora licensing policy.</text>
</g>
<!-- 6593&#45;&gt;6592 -->
<g id="edge20" class="edge">
<title>6593&#45;&gt;6592</title>
<path fill="none" stroke="#e09d4b" d="M2571.43,-120.09C2525.47,-163.74 2483.1,-201.95 2339.74,-330.74"/>
<polygon fill="#e09d4b" stroke="#e09d4b" points="2337.73,-327.84 2332.63,-337.13 2342.41,-333.05 2337.73,-327.84"/>
</g>
<!-- 9872&#45;&gt;9873 -->
<g id="edge21" class="edge">
<title>9872&#45;&gt;9873</title>
<path fill="none" stroke="#e09d4b" d="M1986.24,-648.49C1899.05,-730.74 1872.65,-753.43 1640.24,-949.7"/>
<polygon fill="#e09d4b" stroke="#e09d4b" points="1638.06,-946.95 1632.68,-956.08 1642.58,-952.3 1638.06,-946.95"/>
</g>
<!-- 12813 -->
<g id="node15" class="node">
<title>12813</title>
<text text-anchor="middle" x="2363.32" y="-1630" font-family="Times,serif" font-size="14.00">LicenseType Public Domain</text>
</g>
<!-- 12813&#45;&gt;32612 -->
<g id="edge22" class="edge">
<title>12813&#45;&gt;32612</title>
<path fill="none" stroke="#deb256" d="M2308.76,-1653.03C2239.95,-1674.16 2203.8,-1674.9 2083.79,-1654.44"/>
<polygon fill="#deb256" stroke="#deb256" points="2084.63,-1651.03 2074.18,-1652.78 2083.44,-1657.93 2084.63,-1651.03"/>
</g>
<!-- 32612&#45;&gt;32613 -->
<g id="edge23" class="edge">
<title>32612&#45;&gt;32613</title>
<path fill="none" stroke="#deb256" d="M1869.13,-1655.97C1731.79,-1688.69 1684.49,-1675.73 1454.96,-1578.61"/>
<polygon fill="#deb256" stroke="#deb256" points="1456.57,-1575.49 1446,-1574.81 1453.84,-1581.94 1456.57,-1575.49"/>
</g>
<!-- 32613&#45;&gt;4745 -->
<g id="edge24" class="edge">
<title>32613&#45;&gt;4745</title>
<path fill="none" stroke="#00876c" stroke-width="2" d="M1381.72,-1529.77C1358.34,-1490.08 1301.51,-1406.67 1265.86,-1359.05"/>
<polygon fill="#00876c" stroke="#00876c" stroke-width="2" points="1260.72,-1352.25 1270.34,-1357.51 1262.66,-1353.99 1267.15,-1359.92 1266.75,-1360.22 1266.35,-1360.52 1261.86,-1354.59 1263.16,-1362.94 1260.72,-1352.25"/>
</g>
<!-- 32613&#45;&gt;58229 -->
<g id="edge25" class="edge">
<title>32613&#45;&gt;58229</title>
<path fill="none" stroke="#379469" stroke-dasharray="5,2" d="M1262.85,-1551.54C1055.5,-1548.97 1019.96,-1530.2 877.91,-1406.27"/>
<polygon fill="#379469" stroke="#379469" points="870.66,-1399.93 881.15,-1403.13 873.51,-1402.42 878.19,-1406.51 878.19,-1406.51 878.19,-1406.51 873.51,-1402.42 875.23,-1409.9 870.66,-1399.93"/>
</g>
<!-- 32614 -->
<g id="node18" class="node">
<title>32614</title>
<polygon fill="none" stroke="black" points="1642.71,-1956.18 1642.71,-1971.09 1573.81,-1981.63 1476.36,-1981.63 1407.46,-1971.09 1407.46,-1956.18 1476.36,-1945.63 1573.81,-1945.63 1642.71,-1956.18"/>
<polygon fill="none" stroke="black" points="1646.71,-1952.74 1646.71,-1974.52 1574.11,-1985.63 1476.06,-1985.63 1403.46,-1974.52 1403.46,-1952.74 1476.06,-1941.63 1574.11,-1941.63 1646.71,-1952.74"/>
<text text-anchor="middle" x="1525.09" y="-1958.58" font-family="Times,serif" font-size="14.00">Unlicense libtelnet variant</text>
</g>
<!-- 32614&#45;&gt;32613 -->
<g id="edge26" class="edge">
<title>32614&#45;&gt;32613</title>
<path fill="none" stroke="#deb256" stroke-width="2" d="M1513.42,-1941.3C1464.37,-1847.01 1458.32,-1826.44 1399.95,-1584.64"/>
<polygon fill="#deb256" stroke="#deb256" stroke-width="2" points="1397.97,-1576.45 1404.69,-1585.12 1399.06,-1578.83 1400.8,-1586.06 1400.32,-1586.17 1399.83,-1586.29 1398.08,-1579.06 1395.94,-1587.23 1397.97,-1576.45"/>
</g>
<!-- 68644 -->
<g id="node28" class="node">
<title>68644</title>
<polygon fill="none" stroke="#00876c" points="1578.52,-1724.81 1578.52,-1739.73 1486.57,-1750.27 1356.54,-1750.27 1264.6,-1739.73 1264.6,-1724.81 1356.54,-1714.27 1486.57,-1714.27 1578.52,-1724.81"/>
<polygon fill="none" stroke="#00876c" points="1582.52,-1721.25 1582.52,-1743.29 1486.8,-1754.27 1356.32,-1754.27 1260.6,-1743.29 1260.6,-1721.25 1356.32,-1710.27 1486.8,-1710.27 1582.52,-1721.25"/>
<text text-anchor="middle" x="1421.56" y="-1727.22" font-family="Times,serif" font-size="14.00">scancode:Unlicense libtelnet variant</text>
</g>
<!-- 32614&#45;&gt;68644 -->
<g id="edge27" class="edge">
<title>32614&#45;&gt;68644</title>
<path fill="none" stroke="#00876c" stroke-width="2" d="M1508.45,-1941.22C1478.12,-1899.45 1470.47,-1880.3 1432.32,-1764.88"/>
<polygon fill="#00876c" stroke="#00876c" stroke-width="2" points="1429.67,-1756.86 1437.08,-1764.94 1430.95,-1759.13 1433.28,-1766.19 1432.8,-1766.35 1432.33,-1766.51 1430,-1759.45 1428.53,-1767.76 1429.67,-1756.86"/>
</g>
<!-- 32615 -->
<g id="node19" class="node">
<title>32615</title>
<text text-anchor="middle" x="2414.8" y="-1923.23" font-family="Times,serif" font-size="14.00">ScancodeData:</text>
<text text-anchor="middle" x="2414.8" y="-1906.73" font-family="Times,serif" font-size="14.00">Added in SPDX license list 3.27</text>
<text text-anchor="middle" x="2414.8" y="-1890.23" font-family="Times,serif" font-size="14.00">This was previously the license rule: public&#45;domain_379.RULE</text>
</g>
<!-- 32615&#45;&gt;32612 -->
<g id="edge28" class="edge">
<title>32615&#45;&gt;32612</title>
<path fill="none" stroke="#deb256" d="M2354.1,-1883.15C2266.22,-1840.78 2224.74,-1813.53 2011.05,-1666.87"/>
<polygon fill="#deb256" stroke="#deb256" points="2013.21,-1664.1 2002.98,-1661.33 2009.24,-1669.88 2013.21,-1664.1"/>
</g>
<!-- 32616 -->
<g id="node20" class="node">
<title>32616</title>
<text text-anchor="middle" x="2163.72" y="-1891.75" font-family="Times,serif" font-size="14.00">$TEXT</text>
</g>
<!-- 32616&#45;&gt;32612 -->
<g id="edge29" class="edge">
<title>32616&#45;&gt;32612</title>
<path fill="none" stroke="#deb256" d="M2151.88,-1878.97C2110.86,-1817.34 2098.75,-1801.59 1991.54,-1670.15"/>
<polygon fill="#deb256" stroke="#deb256" points="1994.32,-1668.03 1985.29,-1662.5 1988.9,-1672.46 1994.32,-1668.03"/>
</g>
<!-- 35433 -->
<g id="node21" class="node">
<title>35433</title>
<text text-anchor="middle" x="294.04" y="-2168.59" font-family="Times,serif" font-size="14.00">LicenseTag (ScopedLicenseTag &quot;OrtLicenseCategorization&quot; &quot;include&#45;in&#45;notice&#45;file&quot; NoLicenseTagText)</text>
</g>
<!-- 39907 -->
<g id="node23" class="node">
<title>39907</title>
<ellipse fill="none" stroke="#d43d51" cx="749.3" cy="-1696.91" rx="155.56" ry="28.99"/>
<text text-anchor="middle" x="749.3" y="-1700.11" font-family="Times,serif" font-size="14.00" fill="gray">OrtLicenseCategorization</text>
<text text-anchor="middle" x="749.3" y="-1683.61" font-family="Times,serif" font-size="14.00" fill="gray">3fcb8fbfb2b57e744bc6a4c5deb554ad</text>
</g>
<!-- 35433&#45;&gt;39907 -->
<g id="edge30" class="edge">
<title>35433&#45;&gt;39907</title>
<path fill="none" stroke="#d43d51" d="M309.87,-2155.65C420.86,-2029.56 437.34,-2012.33 713.21,-1733.4"/>
<polygon fill="#d43d51" stroke="#d43d51" points="715.42,-1736.14 719.96,-1726.57 710.44,-1731.22 715.42,-1736.14"/>
</g>
<!-- 35455 -->
<g id="node22" class="node">
<title>35455</title>
<text text-anchor="middle" x="646.9" y="-1752.14" font-family="Times,serif" font-size="14.00">LicenseTag (ScopedLicenseTag &quot;OrtLicenseCategorization&quot; &quot;public&#45;domain&quot; NoLicenseTagText)</text>
</g>
<!-- 35455&#45;&gt;39907 -->
<g id="edge31" class="edge">
<title>35455&#45;&gt;39907</title>
<path fill="none" stroke="#d43d51" d="M683.72,-1739.23C687.5,-1737.03 691.65,-1734.49 696.53,-1731.41"/>
<polygon fill="#d43d51" stroke="#d43d51" points="698.35,-1734.4 704.88,-1726.07 694.57,-1728.5 698.35,-1734.4"/>
</g>
<!-- 39907&#45;&gt;4745 -->
<g id="edge32" class="edge">
<title>39907&#45;&gt;4745</title>
<path fill="none" stroke="#d43d51" d="M792.03,-1668.57C901.5,-1595.65 934.16,-1569.75 1194.68,-1357.02"/>
<polygon fill="#d43d51" stroke="#d43d51" points="1196.55,-1360.02 1202.08,-1350.98 1192.12,-1354.6 1196.55,-1360.02"/>
</g>
<!-- 58228 -->
<g id="node24" class="node">
<title>58228</title>
<ellipse fill="none" stroke="#379469" cx="416.31" cy="-1106.96" rx="156.62" ry="28.99"/>
<text text-anchor="middle" x="416.31" y="-1110.16" font-family="Times,serif" font-size="14.00" fill="gray">MetaeffektLicense</text>
<text text-anchor="middle" x="416.31" y="-1093.66" font-family="Times,serif" font-size="14.00" fill="gray">4159572e2ee7dbaee872c65890cf2f04</text>
</g>
<!-- 58228&#45;&gt;58229 -->
<g id="edge33" class="edge">
<title>58228&#45;&gt;58229</title>
<path fill="none" stroke="#379469" d="M438.02,-1135.91C524.01,-1249.78 547.9,-1265.78 774.07,-1350.59"/>
<polygon fill="#379469" stroke="#379469" points="772.64,-1353.79 783.23,-1354.02 775.09,-1347.23 772.64,-1353.79"/>
</g>
<!-- 58230 -->
<g id="node26" class="node">
<title>58230</title>
<polygon fill="none" stroke="#379469" points="514.53,-1459.14 514.53,-1474.05 459.58,-1484.59 381.87,-1484.59 326.92,-1474.05 326.92,-1459.14 381.87,-1448.59 459.58,-1448.59 514.53,-1459.14"/>
<polygon fill="none" stroke="#379469" points="518.53,-1455.83 518.53,-1477.36 459.96,-1488.59 381.49,-1488.59 322.92,-1477.36 322.92,-1455.83 381.49,-1444.59 459.96,-1444.59 518.53,-1455.83"/>
<text text-anchor="middle" x="420.72" y="-1461.54" font-family="Times,serif" font-size="14.00">Unlicense (libtelnet)</text>
</g>
<!-- 58230&#45;&gt;58229 -->
<g id="edge34" class="edge">
<title>58230&#45;&gt;58229</title>
<path fill="none" stroke="#379469" stroke-width="2" d="M519.02,-1455.98C571.24,-1448.28 623.96,-1435.24 757.93,-1399.74"/>
<polygon fill="#379469" stroke="#379469" stroke-width="2" points="766.21,-1397.54 757.7,-1404.45 763.86,-1398.68 756.67,-1400.59 756.54,-1400.1 756.42,-1399.62 763.6,-1397.71 755.39,-1395.75 766.21,-1397.54"/>
</g>
<!-- 68643 -->
<g id="node27" class="node">
<title>68643</title>
<ellipse fill="none" stroke="#00876c" cx="1087.06" cy="-1756.68" rx="155.56" ry="28.99"/>
<text text-anchor="middle" x="1087.06" y="-1759.88" font-family="Times,serif" font-size="14.00" fill="gray">LicenseLynx</text>
<text text-anchor="middle" x="1087.06" y="-1743.38" font-family="Times,serif" font-size="14.00" fill="gray">0f521c63f612da0b1e5214fdd5b6e8f3</text>
</g>
<!-- 68643&#45;&gt;4745 -->
<g id="edge35" class="edge">
<title>68643&#45;&gt;4745</title>
<path fill="none" stroke="#00876c" d="M1092.83,-1727.36C1113.77,-1622.16 1122.5,-1598.38 1220.27,-1360.51"/>
<polygon fill="#00876c" stroke="#00876c" points="1223.39,-1362.11 1223.96,-1351.53 1216.92,-1359.45 1223.39,-1362.11"/>
</g>
<!-- 68644&#45;&gt;4745 -->
<g id="edge36" class="edge">
<title>68644&#45;&gt;4745</title>
<path fill="none" stroke="#00876c" stroke-width="2" d="M1399.86,-1709.84C1312.31,-1618.7 1303.95,-1597.52 1244.6,-1360.76"/>
<polygon fill="#00876c" stroke="#00876c" stroke-width="2" points="1242.51,-1352.42 1249.31,-1361.03 1243.62,-1354.79 1245.43,-1362 1244.94,-1362.12 1244.46,-1362.24 1242.65,-1355.03 1240.58,-1363.21 1242.51,-1352.42"/>
</g>
<!-- 68645&#45;&gt;4745 -->
<g id="edge37" class="edge">
<title>68645&#45;&gt;4745</title>
<path fill="none" stroke="#00876c" stroke-width="2" d="M982.62,-1563.64C1041.71,-1512.77 1062.04,-1493.39 1200.31,-1358.1"/>
<polygon fill="#00876c" stroke="#00876c" stroke-width="2" points="1206.54,-1352.01 1202.54,-1362.22 1205.06,-1354.16 1199.74,-1359.36 1199.39,-1359 1199.05,-1358.64 1204.36,-1353.44 1196.25,-1355.78 1206.54,-1352.01"/>
</g>
</g>
</svg>
