<?xml version="1.0" encoding="UTF-8" standalone="no"?>
<!DOCTYPE svg PUBLIC "-//W3C//DTD SVG 1.1//EN"
 "http://www.w3.org/Graphics/SVG/1.1/DTD/svg11.dtd">
<!-- Generated by graphviz version 10.0.1 (0)
 -->
<!-- Pages: 1 -->
<svg width="1379pt" height="1148pt"
 viewBox="0.00 0.00 1379.00 1148.00" xmlns="http://www.w3.org/2000/svg" xmlns:xlink="http://www.w3.org/1999/xlink">
<g id="graph0" class="graph" transform="scale(1 1) rotate(0) translate(4 1144)">
<polygon fill="white" stroke="none" points="-4,4 -4,-1144 1375,-1144 1375,4 -4,4"/>
<!-- 4202 -->
<g id="node1" class="node">
<title>4202</title>
<ellipse fill="none" stroke="#b8bf62" cx="201.94" cy="-1110.53" rx="156.62" ry="28.99"/>
<text text-anchor="middle" x="201.94" y="-1113.73" font-family="Times,serif" font-size="14.00" fill="gray">SPDXLicense</text>
<text text-anchor="middle" x="201.94" y="-1097.23" font-family="Times,serif" font-size="14.00" fill="gray">94cfe7997e556b878fc7a58ab2a0c688</text>
</g>
<!-- 4203 -->
<g id="node2" class="node">
<title>4203</title>
<polygon fill="none" stroke="black" points="618.68,-876.23 618.68,-891.14 575.09,-901.68 513.44,-901.68 469.84,-891.14 469.84,-876.23 513.44,-865.68 575.09,-865.68 618.68,-876.23"/>
<polygon fill="none" stroke="black" points="622.68,-873.08 622.68,-894.29 575.56,-905.68 512.96,-905.68 465.84,-894.29 465.84,-873.08 512.96,-861.68 575.56,-861.68 622.68,-873.08"/>
<polygon fill="none" stroke="black" points="626.68,-869.93 626.68,-897.43 576.04,-909.68 512.48,-909.68 461.84,-897.43 461.84,-869.93 512.48,-857.68 576.04,-857.68 626.68,-869.93"/>
<text text-anchor="middle" x="544.26" y="-878.63" font-family="Times,serif" font-size="14.00">spdx:URT&#45;RLE</text>
</g>
<!-- 4202&#45;&gt;4203 -->
<g id="edge1" class="edge">
<title>4202&#45;&gt;4203</title>
<path fill="none" stroke="#b8bf62" d="M268.41,-1083.99C329.48,-1057.27 366.1,-1029.27 503.49,-917.03"/>
<polygon fill="#b8bf62" stroke="#b8bf62" points="505.55,-919.86 511.08,-910.82 501.12,-914.44 505.55,-919.86"/>
</g>
<!-- 8456 -->
<g id="node6" class="node">
<title>8456</title>
<polygon fill="none" stroke="#e09d4b" points="685.08,-982.24 685.08,-997.15 636.3,-1007.69 567.3,-1007.69 518.52,-997.15 518.52,-982.24 567.3,-971.69 636.3,-971.69 685.08,-982.24"/>
<polygon fill="none" stroke="#e09d4b" points="689.08,-979.01 689.08,-1000.38 636.72,-1011.69 566.88,-1011.69 514.52,-1000.38 514.52,-979.01 566.88,-967.69 636.72,-967.69 689.08,-979.01"/>
<text text-anchor="middle" x="601.8" y="-984.64" font-family="Times,serif" font-size="14.00">Fedora:URT&#45;RLE</text>
</g>
<!-- 4203&#45;&gt;8456 -->
<g id="edge2" class="edge">
<title>4203&#45;&gt;8456</title>
<path fill="none" stroke="#e09d4b" stroke-width="2" d="M551.79,-909.87C559.2,-935.15 563.92,-948.6 570.72,-959.02"/>
<polygon fill="#e09d4b" stroke="#e09d4b" stroke-width="2" points="575.85,-965.68 566.18,-960.51 573.89,-963.95 569.35,-958.06 569.75,-957.76 570.14,-957.45 574.68,-963.34 573.31,-955.01 575.85,-965.68"/>
</g>
<!-- 49114 -->
<g id="node13" class="node">
<title>49114</title>
<polygon fill="none" stroke="#00876c" points="1316.87,-1029.85 1316.87,-1044.76 1165.21,-1055.3 950.74,-1055.3 799.09,-1044.76 799.09,-1029.85 950.74,-1019.3 1165.21,-1019.3 1316.87,-1029.85"/>
<polygon fill="none" stroke="#00876c" points="1320.87,-1026.11 1320.87,-1048.49 1165.35,-1059.3 950.6,-1059.3 795.09,-1048.49 795.09,-1026.11 950.6,-1015.3 1165.35,-1015.3 1320.87,-1026.11"/>
<text text-anchor="middle" x="1057.98" y="-1032.25" font-family="Times,serif" font-size="14.00">metaeffekt:Utah Raster Toolkit Run Length Encoded License</text>
</g>
<!-- 4203&#45;&gt;49114 -->
<g id="edge3" class="edge">
<title>4203&#45;&gt;49114</title>
<path fill="none" stroke="#00876c" stroke-width="2" d="M583.59,-908.25C675.99,-965.89 735.46,-1001.93 784.79,-1023.19"/>
<polygon fill="#00876c" stroke="#00876c" stroke-width="2" points="792.6,-1026.45 781.64,-1026.76 790.05,-1025.92 783.18,-1023.06 783.37,-1022.6 783.56,-1022.14 790.43,-1025 785.1,-1018.45 792.6,-1026.45"/>
</g>
<!-- 4204 -->
<g id="node3" class="node">
<title>4204</title>
<polygon fill="none" stroke="black" points="799.85,-716.82 799.85,-731.73 768.91,-742.27 725.16,-742.27 694.22,-731.73 694.22,-716.82 725.16,-706.27 768.91,-706.27 799.85,-716.82"/>
<polygon fill="none" stroke="black" points="803.85,-713.95 803.85,-734.59 769.57,-746.27 724.49,-746.27 690.22,-734.59 690.22,-713.95 724.49,-702.27 769.57,-702.27 803.85,-713.95"/>
<text text-anchor="middle" x="747.03" y="-719.22" font-family="Times,serif" font-size="14.00">URT&#45;RLE</text>
</g>
<!-- 4204&#45;&gt;4203 -->
<g id="edge4" class="edge">
<title>4204&#45;&gt;4203</title>
<path fill="none" stroke="black" stroke-width="2" d="M728.21,-746.59C668.64,-817.08 645.59,-842.4 612.77,-858.96"/>
<polygon fill="black" stroke="black" stroke-width="2" points="604.93,-862.61 612.09,-854.31 607.04,-861.08 613.78,-857.94 613.99,-858.39 614.2,-858.84 607.46,-861.98 615.89,-862.47 604.93,-862.61"/>
</g>
<!-- 4204&#45;&gt;8456 -->
<g id="edge5" class="edge">
<title>4204&#45;&gt;8456</title>
<path fill="none" stroke="#e09d4b" stroke-width="2" d="M738.38,-746.56C683.08,-888.95 671.95,-914.7 630.83,-959.37"/>
<polygon fill="#e09d4b" stroke="#e09d4b" stroke-width="2" points="625.04,-965.56 628.58,-955.19 626.42,-963.35 631.5,-957.92 631.87,-958.26 632.23,-958.6 627.15,-964.03 635.15,-961.33 625.04,-965.56"/>
</g>
<!-- 24904 -->
<g id="node8" class="node">
<title>24904</title>
<polygon fill="none" stroke="#dac767" points="1041.31,-905.89 1041.31,-920.81 996.74,-931.35 933.71,-931.35 889.15,-920.81 889.15,-905.89 933.71,-895.35 996.74,-895.35 1041.31,-905.89"/>
<polygon fill="none" stroke="#dac767" points="1045.31,-902.73 1045.31,-923.97 997.21,-935.35 933.25,-935.35 885.15,-923.97 885.15,-902.73 933.25,-891.35 997.21,-891.35 1045.31,-902.73"/>
<text text-anchor="middle" x="965.23" y="-908.3" font-family="Times,serif" font-size="14.00">scancode:urt&#45;rle</text>
</g>
<!-- 4204&#45;&gt;24904 -->
<g id="edge6" class="edge">
<title>4204&#45;&gt;24904</title>
<path fill="none" stroke="#dac767" stroke-width="2" d="M769.42,-746.72C859.17,-836.66 883.84,-860.5 921.06,-885.52"/>
<polygon fill="#dac767" stroke="#dac767" stroke-width="2" points="928.25,-890.25 917.43,-888.52 925.84,-889.26 919.63,-885.17 919.9,-884.76 920.18,-884.34 926.39,-888.43 922.37,-881 928.25,-890.25"/>
</g>
<!-- 38102 -->
<g id="node11" class="node">
<title>38102</title>
<polygon fill="none" stroke="#379469" points="825.11,-396.01 825.11,-410.92 781.19,-421.46 719.08,-421.46 675.16,-410.92 675.16,-396.01 719.08,-385.46 781.19,-385.46 825.11,-396.01"/>
<polygon fill="none" stroke="#379469" points="829.11,-392.85 829.11,-414.07 781.66,-425.46 718.61,-425.46 671.16,-414.07 671.16,-392.85 718.61,-381.46 781.66,-381.46 829.11,-392.85"/>
<text text-anchor="middle" x="750.14" y="-398.41" font-family="Times,serif" font-size="14.00">cavil:URT&#45;RLE</text>
</g>
<!-- 4204&#45;&gt;38102 -->
<g id="edge7" class="edge">
<title>4204&#45;&gt;38102</title>
<path fill="none" stroke="#379469" stroke-width="2" d="M755.8,-701.91C807.87,-568.69 809.6,-552.37 763.1,-435.67"/>
<polygon fill="#379469" stroke="#379469" stroke-width="2" points="759.96,-427.85 767.86,-435.46 761.38,-430.04 764.14,-436.95 763.68,-437.13 763.22,-437.32 760.45,-430.41 759.5,-438.8 759.96,-427.85"/>
</g>
<!-- 4204&#45;&gt;49114 -->
<g id="edge8" class="edge">
<title>4204&#45;&gt;49114</title>
<path fill="none" stroke="#00876c" stroke-dasharray="5,2" d="M767.16,-746.64C928.08,-925.39 952.32,-951.53 1021.62,-1008.01"/>
<polygon fill="#00876c" stroke="#00876c" points="1029.37,-1014.29 1018.76,-1011.48 1026.43,-1011.91 1021.6,-1007.99 1021.6,-1007.99 1021.6,-1007.99 1026.43,-1011.91 1024.44,-1004.49 1029.37,-1014.29"/>
</g>
<!-- 4205 -->
<g id="node4" class="node">
<title>4205</title>
<polygon fill="none" stroke="black" points="1197.87,-975.47 1197.87,-990.39 1073.15,-1000.93 896.77,-1000.93 772.05,-990.39 772.05,-975.47 896.77,-964.93 1073.15,-964.93 1197.87,-975.47"/>
<polygon fill="none" stroke="black" points="1201.87,-971.8 1201.87,-994.06 1073.32,-1004.93 896.6,-1004.93 768.05,-994.06 768.05,-971.8 896.6,-960.93 1073.32,-960.93 1201.87,-971.8"/>
<text text-anchor="middle" x="984.96" y="-977.88" font-family="Times,serif" font-size="14.00">Utah Raster Toolkit Run Length Encoded License</text>
</g>
<!-- 4205&#45;&gt;4203 -->
<g id="edge9" class="edge">
<title>4205&#45;&gt;4203</title>
<path fill="none" stroke="#b8bf62" stroke-width="2" d="M867.2,-1002.88C779.4,-1012.31 734.8,-992.68 595.04,-912.84"/>
<polygon fill="#b8bf62" stroke="#b8bf62" stroke-width="2" points="587.81,-908.71 598.73,-909.77 590.29,-909.55 596.74,-913.24 596.49,-913.67 596.24,-914.11 589.79,-910.41 594.26,-917.58 587.81,-908.71"/>
</g>
<!-- 4205&#45;&gt;24904 -->
<g id="edge10" class="edge">
<title>4205&#45;&gt;24904</title>
<path fill="none" stroke="#dac767" stroke-width="2" d="M982.69,-960.65C981.74,-956.52 980.31,-951.98 978.06,-945.85"/>
<polygon fill="#dac767" stroke="#dac767" stroke-width="2" points="975,-937.86 982.78,-945.59 976.39,-940.08 979.04,-947.02 978.58,-947.2 978.11,-947.38 975.45,-940.43 974.37,-948.81 975,-937.86"/>
</g>
<!-- 4205&#45;&gt;49114 -->
<g id="edge11" class="edge">
<title>4205&#45;&gt;49114</title>
<path fill="none" stroke="#00876c" stroke-width="2" d="M1010.46,-1005.16C1011.6,-1006.14 1012.69,-1007.08 1013.74,-1007.97"/>
<polygon fill="#00876c" stroke="#00876c" stroke-width="2" points="1020.34,-1013.5 1009.79,-1010.53 1018.06,-1012.24 1012.35,-1007.46 1012.67,-1007.08 1012.99,-1006.7 1018.7,-1011.47 1015.56,-1003.63 1020.34,-1013.5"/>
</g>
<!-- 8455 -->
<g id="node5" class="node">
<title>8455</title>
<ellipse fill="none" stroke="#e09d4b" cx="566.05" cy="-1077.86" rx="157.68" ry="28.99"/>
<text text-anchor="middle" x="566.05" y="-1081.06" font-family="Times,serif" font-size="14.00" fill="gray">FedoraEntry</text>
<text text-anchor="middle" x="566.05" y="-1064.56" font-family="Times,serif" font-size="14.00" fill="gray">a70517c17a406dab85bfb731c6ef698b</text>
</g>
<!-- 8455&#45;&gt;8456 -->
<g id="edge12" class="edge">
<title>8455&#45;&gt;8456</title>
<path fill="none" stroke="#e09d4b" d="M580.45,-1048.74C583.06,-1042.38 585.98,-1034.52 590.13,-1022.87"/>
<polygon fill="#e09d4b" stroke="#e09d4b" points="593.38,-1024.17 593.42,-1013.57 586.78,-1021.83 593.38,-1024.17"/>
</g>
<!-- 24903 -->
<g id="node7" class="node">
<title>24903</title>
<ellipse fill="none" stroke="#dac767" cx="1004.69" cy="-835.71" rx="155.56" ry="28.99"/>
<text text-anchor="middle" x="1004.69" y="-838.91" font-family="Times,serif" font-size="14.00" fill="gray">ScancodeData</text>
<text text-anchor="middle" x="1004.69" y="-822.41" font-family="Times,serif" font-size="14.00" fill="gray">ca54c4e866ea2aad0632bb7e86fdacee</text>
</g>
<!-- 24903&#45;&gt;24904 -->
<g id="edge13" class="edge">
<title>24903&#45;&gt;24904</title>
<path fill="none" stroke="#dac767" d="M999.99,-865.02C998.63,-871.83 997.17,-877.07 995.19,-881.57"/>
<polygon fill="#dac767" stroke="#dac767" points="992.39,-879.44 990.22,-889.81 998.38,-883.06 992.39,-879.44"/>
</g>
<!-- 35242 -->
<g id="node9" class="node">
<title>35242</title>
<ellipse fill="none" stroke="#e06f45" cx="156.94" cy="-761.94" rx="157.15" ry="28.99"/>
<text text-anchor="middle" x="156.94" y="-765.14" font-family="Times,serif" font-size="14.00" fill="gray">OrtLicenseCategorization</text>
<text text-anchor="middle" x="156.94" y="-748.64" font-family="Times,serif" font-size="14.00" fill="gray">c04b4ec6fbc83e9eb409d145fd63ba11</text>
</g>
<!-- 35242&#45;&gt;4203 -->
<g id="edge14" class="edge">
<title>35242&#45;&gt;4203</title>
<path fill="none" stroke="#e06f45" d="M190.74,-790.55C273.11,-859.29 301.83,-870.64 450.03,-879.04"/>
<polygon fill="#e06f45" stroke="#e06f45" points="449.69,-882.53 459.87,-879.59 450.08,-875.54 449.69,-882.53"/>
</g>
<!-- 38101 -->
<g id="node10" class="node">
<title>38101</title>
<ellipse fill="none" stroke="#379469" cx="752.2" cy="-29.2" rx="154.5" ry="28.99"/>
<text text-anchor="middle" x="752.2" y="-32.4" font-family="Times,serif" font-size="14.00" fill="gray">CavilLicenseChange</text>
<text text-anchor="middle" x="752.2" y="-15.9" font-family="Times,serif" font-size="14.00" fill="gray">4c45ea065e1a572fe84701fdf768f43b</text>
</g>
<!-- 38101&#45;&gt;38102 -->
<g id="edge15" class="edge">
<title>38101&#45;&gt;38102</title>
<path fill="none" stroke="#379469" d="M755.42,-58.44C764.25,-140.76 763.55,-164.84 752.02,-370.08"/>
<polygon fill="#379469" stroke="#379469" points="748.54,-369.58 751.47,-379.77 755.53,-369.98 748.54,-369.58"/>
</g>
<!-- 49113 -->
<g id="node12" class="node">
<title>49113</title>
<ellipse fill="none" stroke="#00876c" cx="1212.06" cy="-1102.3" rx="158.75" ry="28.99"/>
<text text-anchor="middle" x="1212.06" y="-1105.5" font-family="Times,serif" font-size="14.00" fill="gray">MetaeffektLicense</text>
<text text-anchor="middle" x="1212.06" y="-1089" font-family="Times,serif" font-size="14.00" fill="gray">3500303a5d77ffc65b0183eb667998ab</text>
</g>
<!-- 49113&#45;&gt;49114 -->
<g id="edge16" class="edge">
<title>49113&#45;&gt;49114</title>
<path fill="none" stroke="#00876c" d="M1128.57,-1077.22C1122.17,-1073.84 1114.99,-1069.9 1106.74,-1065.25"/>
<polygon fill="#00876c" stroke="#00876c" points="1108.7,-1062.34 1098.27,-1060.46 1105.25,-1068.43 1108.7,-1062.34"/>
</g>
</g>
</svg>
