<?xml version="1.0" encoding="UTF-8" standalone="no"?>
<!DOCTYPE svg PUBLIC "-//W3C//DTD SVG 1.1//EN"
 "http://www.w3.org/Graphics/SVG/1.1/DTD/svg11.dtd">
<!-- Generated by graphviz version 10.0.1 (0)
 -->
<!-- Pages: 1 -->
<svg width="2261pt" height="1801pt"
 viewBox="0.00 0.00 2261.00 1801.00" xmlns="http://www.w3.org/2000/svg" xmlns:xlink="http://www.w3.org/1999/xlink">
<g id="graph0" class="graph" transform="scale(1 1) rotate(0) translate(4 1797)">
<polygon fill="white" stroke="none" points="-4,4 -4,-1797 2257,-1797 2257,4 -4,4"/>
<!-- 4278 -->
<g id="node1" class="node">
<title>4278</title>
<ellipse fill="none" stroke="#b8bf62" cx="552.26" cy="-613.41" rx="160.87" ry="28.99"/>
<text text-anchor="middle" x="552.26" y="-616.61" font-family="Times,serif" font-size="14.00" fill="gray">SPDXLicense</text>
<text text-anchor="middle" x="552.26" y="-600.11" font-family="Times,serif" font-size="14.00" fill="gray">1721422ad288a4d13d5909c3974a7c9e</text>
</g>
<!-- 4279 -->
<g id="node2" class="node">
<title>4279</title>
<polygon fill="none" stroke="black" points="1042.17,-671.85 1042.17,-686.76 984.63,-697.3 903.24,-697.3 845.7,-686.76 845.7,-671.85 903.24,-661.3 984.63,-661.3 1042.17,-671.85"/>
<polygon fill="none" stroke="black" points="1046.17,-668.51 1046.17,-690.09 984.99,-701.3 902.88,-701.3 841.7,-690.09 841.7,-668.51 902.88,-657.3 984.99,-657.3 1046.17,-668.51"/>
<polygon fill="none" stroke="black" points="1050.17,-665.18 1050.17,-693.42 985.35,-705.3 902.52,-705.3 837.7,-693.42 837.7,-665.18 902.52,-653.3 985.35,-653.3 1050.17,-665.18"/>
<text text-anchor="middle" x="943.94" y="-674.25" font-family="Times,serif" font-size="14.00">spdx:W3C&#45;19980720</text>
</g>
<!-- 4278&#45;&gt;4279 -->
<g id="edge1" class="edge">
<title>4278&#45;&gt;4279</title>
<path fill="none" stroke="#b8bf62" d="M712.64,-616.11C747.82,-623.06 792.5,-635.26 861.4,-655.21"/>
<polygon fill="#b8bf62" stroke="#b8bf62" points="860.17,-658.5 870.75,-657.93 862.12,-651.78 860.17,-658.5"/>
</g>
<!-- 5600 -->
<g id="node7" class="node">
<title>5600</title>
<polygon fill="none" stroke="#e06f45" points="706.6,-433.77 706.6,-448.69 646.13,-459.23 560.62,-459.23 500.15,-448.69 500.15,-433.77 560.62,-423.23 646.13,-423.23 706.6,-433.77"/>
<polygon fill="none" stroke="#e06f45" points="710.6,-430.41 710.6,-452.05 646.48,-463.23 560.27,-463.23 496.15,-452.05 496.15,-430.41 560.27,-419.23 646.48,-419.23 710.6,-430.41"/>
<text text-anchor="middle" x="603.38" y="-436.18" font-family="Times,serif" font-size="14.00">google:W3C19980720</text>
</g>
<!-- 4279&#45;&gt;5600 -->
<g id="edge2" class="edge">
<title>4279&#45;&gt;5600</title>
<path fill="none" stroke="#e06f45" stroke-width="2" d="M909.35,-652.84C749.41,-530.47 716.22,-505.83 652.87,-469.22"/>
<polygon fill="#e06f45" stroke="#e06f45" stroke-width="2" points="645.4,-464.93 656.31,-466 647.87,-465.77 654.32,-469.47 654.07,-469.91 653.82,-470.34 647.38,-466.64 651.83,-473.81 645.4,-464.93"/>
</g>
<!-- 8485 -->
<g id="node10" class="node">
<title>8485</title>
<polygon fill="none" stroke="#e09d4b" points="1199.89,-472.03 1199.89,-486.94 1137.15,-497.48 1048.43,-497.48 985.69,-486.94 985.69,-472.03 1048.43,-461.48 1137.15,-461.48 1199.89,-472.03"/>
<polygon fill="none" stroke="#e09d4b" points="1203.89,-468.64 1203.89,-490.32 1137.49,-501.48 1048.09,-501.48 981.69,-490.32 981.69,-468.64 1048.09,-457.48 1137.49,-457.48 1203.89,-468.64"/>
<text text-anchor="middle" x="1092.79" y="-474.43" font-family="Times,serif" font-size="14.00">Fedora:W3C&#45;19980720</text>
</g>
<!-- 4279&#45;&gt;8485 -->
<g id="edge3" class="edge">
<title>4279&#45;&gt;8485</title>
<path fill="none" stroke="#e09d4b" stroke-width="2" d="M954.38,-653.02C991.68,-559.49 1003.37,-536.38 1045.89,-507.9"/>
<polygon fill="#e09d4b" stroke="#e09d4b" stroke-width="2" points="1053.09,-503.23 1047.15,-512.45 1051.22,-505.05 1044.97,-509.09 1044.7,-508.67 1044.43,-508.25 1050.67,-504.21 1042.26,-504.89 1053.09,-503.23"/>
</g>
<!-- 9738 -->
<g id="node14" class="node">
<title>9738</title>
<polygon fill="none" stroke="#58a066" points="1346.54,-419.2 1346.54,-434.12 1287.7,-444.66 1204.48,-444.66 1145.63,-434.12 1145.63,-419.2 1204.48,-408.66 1287.7,-408.66 1346.54,-419.2"/>
<polygon fill="none" stroke="#58a066" points="1350.54,-415.86 1350.54,-437.46 1288.05,-448.66 1204.12,-448.66 1141.63,-437.46 1141.63,-415.86 1204.12,-404.66 1288.05,-404.66 1350.54,-415.86"/>
<text text-anchor="middle" x="1246.09" y="-421.61" font-family="Times,serif" font-size="14.00">osadl:W3C&#45;19980720</text>
</g>
<!-- 4279&#45;&gt;9738 -->
<g id="edge4" class="edge">
<title>4279&#45;&gt;9738</title>
<path fill="none" stroke="#58a066" stroke-width="2" d="M962.48,-652.92C1064.59,-507.9 1088.21,-479.36 1174.57,-449.22"/>
<polygon fill="#58a066" stroke="#58a066" stroke-width="2" points="1182.83,-446.41 1174.81,-453.89 1180.56,-447.71 1173.52,-450.11 1173.36,-449.63 1173.2,-449.16 1180.24,-446.76 1171.91,-445.37 1182.83,-446.41"/>
</g>
<!-- 49588 -->
<g id="node26" class="node">
<title>49588</title>
<polygon fill="none" stroke="#00876c" points="1185.35,-894.54 1185.35,-909.45 1036.29,-920 825.49,-920 676.43,-909.45 676.43,-894.54 825.49,-884 1036.29,-884 1185.35,-894.54"/>
<polygon fill="none" stroke="#00876c" points="1189.35,-890.81 1189.35,-913.18 1036.43,-924 825.34,-924 672.43,-913.18 672.43,-890.81 825.34,-880 1036.43,-880 1189.35,-890.81"/>
<text text-anchor="middle" x="930.89" y="-896.95" font-family="Times,serif" font-size="14.00">metaeffekt:W3C Software Notice and License (1998&#45;07&#45;20)</text>
</g>
<!-- 4279&#45;&gt;49588 -->
<g id="edge5" class="edge">
<title>4279&#45;&gt;49588</title>
<path fill="none" stroke="#00876c" stroke-width="2" d="M930.64,-705.76C902.11,-763.85 901.74,-780.24 922.87,-868.85"/>
<polygon fill="#00876c" stroke="#00876c" stroke-width="2" points="924.91,-877.36 918.2,-868.68 923.83,-874.98 922.09,-867.75 922.58,-867.63 923.06,-867.51 924.8,-874.75 926.95,-866.58 924.91,-877.36"/>
</g>
<!-- 4280 -->
<g id="node3" class="node">
<title>4280</title>
<polygon fill="none" stroke="black" points="1417.54,-703.84 1417.54,-718.75 1372.65,-729.29 1309.16,-729.29 1264.27,-718.75 1264.27,-703.84 1309.16,-693.29 1372.65,-693.29 1417.54,-703.84"/>
<polygon fill="none" stroke="black" points="1421.54,-700.67 1421.54,-721.92 1373.11,-733.29 1308.7,-733.29 1260.27,-721.92 1260.27,-700.67 1308.7,-689.29 1373.11,-689.29 1421.54,-700.67"/>
<text text-anchor="middle" x="1340.9" y="-706.24" font-family="Times,serif" font-size="14.00">W3C&#45;19980720</text>
</g>
<!-- 4280&#45;&gt;4279 -->
<g id="edge6" class="edge">
<title>4280&#45;&gt;4279</title>
<path fill="none" stroke="black" stroke-width="2" d="M1299.67,-690.9C1172.44,-628.51 1141.39,-621.43 1024.22,-654.98"/>
<polygon fill="black" stroke="black" stroke-width="2" points="1016.09,-657.34 1024.44,-650.23 1018.41,-656.14 1025.56,-654.07 1025.7,-654.55 1025.83,-655.03 1018.69,-657.1 1026.95,-658.87 1016.09,-657.34"/>
</g>
<!-- 4280&#45;&gt;8485 -->
<g id="edge7" class="edge">
<title>4280&#45;&gt;8485</title>
<path fill="none" stroke="#e09d4b" stroke-width="2" d="M1327.99,-688.95C1253.89,-560.98 1235.71,-534.84 1159.41,-504"/>
<polygon fill="#e09d4b" stroke="#e09d4b" stroke-width="2" points="1151.55,-500.9 1162.51,-500.38 1154.12,-501.38 1161.04,-504.1 1160.86,-504.57 1160.67,-505.03 1153.76,-502.31 1159.21,-508.76 1151.55,-500.9"/>
</g>
<!-- 9213 -->
<g id="node12" class="node">
<title>9213</title>
<polygon fill="none" stroke="#00876c" points="1436.16,-783.85 1436.16,-798.76 1368.88,-809.31 1273.73,-809.31 1206.44,-798.76 1206.44,-783.85 1273.73,-773.31 1368.88,-773.31 1436.16,-783.85"/>
<polygon fill="none" stroke="#00876c" points="1440.16,-780.43 1440.16,-802.18 1369.19,-813.31 1273.41,-813.31 1202.44,-802.18 1202.44,-780.43 1273.41,-769.31 1369.19,-769.31 1440.16,-780.43"/>
<text text-anchor="middle" x="1321.3" y="-786.26" font-family="Times,serif" font-size="14.00">BlueOak:W3C&#45;19980720</text>
</g>
<!-- 4280&#45;&gt;9213 -->
<g id="edge8" class="edge">
<title>4280&#45;&gt;9213</title>
<path fill="none" stroke="#00876c" stroke-width="2" d="M1342.65,-733.37C1342.43,-741 1340.68,-747.77 1336.17,-758.67"/>
<polygon fill="#00876c" stroke="#00876c" stroke-width="2" points="1332.68,-766.68 1332.55,-755.71 1333.24,-764.13 1336.21,-757.31 1336.67,-757.51 1337.13,-757.71 1334.16,-764.53 1340.8,-759.31 1332.68,-766.68"/>
</g>
<!-- 4280&#45;&gt;9738 -->
<g id="edge9" class="edge">
<title>4280&#45;&gt;9738</title>
<path fill="none" stroke="#58a066" stroke-width="2" d="M1338.6,-688.97C1323.08,-539.05 1318.85,-516.09 1271.79,-457.63"/>
<polygon fill="#58a066" stroke="#58a066" stroke-width="2" points="1266.4,-451.02 1276.21,-455.93 1268.41,-452.69 1273.11,-458.46 1272.72,-458.77 1272.33,-459.09 1267.63,-453.32 1269.23,-461.62 1266.4,-451.02"/>
</g>
<!-- 28006 -->
<g id="node20" class="node">
<title>28006</title>
<polygon fill="none" stroke="#e18745" points="1734.41,-956.29 1734.41,-971.2 1665.18,-981.75 1567.28,-981.75 1498.05,-971.2 1498.05,-956.29 1567.28,-945.75 1665.18,-945.75 1734.41,-956.29"/>
<polygon fill="none" stroke="#e18745" points="1738.41,-952.85 1738.41,-974.64 1665.49,-985.75 1566.97,-985.75 1494.05,-974.64 1494.05,-952.85 1566.97,-941.75 1665.49,-941.75 1738.41,-952.85"/>
<text text-anchor="middle" x="1616.23" y="-958.7" font-family="Times,serif" font-size="14.00">fossology:W3C&#45;19980720</text>
</g>
<!-- 4280&#45;&gt;28006 -->
<g id="edge10" class="edge">
<title>4280&#45;&gt;28006</title>
<path fill="none" stroke="#e18745" stroke-width="2" d="M1379.48,-732.11C1536.96,-817.34 1554.34,-831.97 1601.29,-931.59"/>
<polygon fill="#e18745" stroke="#e18745" stroke-width="2" points="1604.89,-939.29 1596.58,-932.14 1603.35,-937.18 1600.2,-930.45 1600.65,-930.24 1601.11,-930.02 1604.26,-936.76 1604.73,-928.33 1604.89,-939.29"/>
</g>
<!-- 38114 -->
<g id="node24" class="node">
<title>38114</title>
<polygon fill="none" stroke="#379469" points="1769.28,-580.28 1769.28,-595.19 1711.41,-605.73 1629.57,-605.73 1571.7,-595.19 1571.7,-580.28 1629.57,-569.73 1711.41,-569.73 1769.28,-580.28"/>
<polygon fill="none" stroke="#379469" points="1773.28,-576.94 1773.28,-598.53 1711.77,-609.73 1629.21,-609.73 1567.7,-598.53 1567.7,-576.94 1629.21,-565.73 1711.77,-565.73 1773.28,-576.94"/>
<text text-anchor="middle" x="1670.49" y="-582.68" font-family="Times,serif" font-size="14.00">cavil:W3C&#45;19980720</text>
</g>
<!-- 4280&#45;&gt;38114 -->
<g id="edge11" class="edge">
<title>4280&#45;&gt;38114</title>
<path fill="none" stroke="#379469" stroke-width="2" d="M1384.9,-691.6C1501.05,-639.67 1545.25,-620.55 1588.29,-607.72"/>
<polygon fill="#379469" stroke="#379469" stroke-width="2" points="1596.61,-605.33 1588.24,-612.42 1594.28,-606.52 1587.13,-608.57 1586.99,-608.09 1586.86,-607.61 1594,-605.56 1585.75,-603.77 1596.61,-605.33"/>
</g>
<!-- 4280&#45;&gt;49588 -->
<g id="edge12" class="edge">
<title>4280&#45;&gt;49588</title>
<path fill="none" stroke="#00876c" stroke-dasharray="5,2" d="M1259.87,-714.28C1147.72,-721.03 1115.01,-743.3 964.84,-872.68"/>
<polygon fill="#00876c" stroke="#00876c" points="957.59,-878.93 962.23,-868.99 960.45,-876.46 965.16,-872.4 965.16,-872.4 965.16,-872.4 960.45,-876.46 968.1,-875.81 957.59,-878.93"/>
</g>
<!-- 54330 -->
<g id="node30" class="node">
<title>54330</title>
<polygon fill="none" stroke="#98b561" points="1799.77,-772.24 1799.77,-787.15 1737.03,-797.7 1648.3,-797.7 1585.56,-787.15 1585.56,-772.24 1648.3,-761.7 1737.03,-761.7 1799.77,-772.24"/>
<polygon fill="none" stroke="#98b561" points="1803.77,-768.86 1803.77,-790.54 1737.36,-801.7 1647.97,-801.7 1581.56,-790.54 1581.56,-768.86 1647.97,-757.7 1737.36,-757.7 1803.77,-768.86"/>
<text text-anchor="middle" x="1692.66" y="-774.65" font-family="Times,serif" font-size="14.00">eclipse:W3C&#45;19980720</text>
</g>
<!-- 4280&#45;&gt;54330 -->
<g id="edge13" class="edge">
<title>4280&#45;&gt;54330</title>
<path fill="none" stroke="#98b561" stroke-width="2" d="M1421.78,-714.19C1551.04,-719.24 1585.65,-724.44 1641.52,-752.3"/>
<polygon fill="#98b561" stroke="#98b561" stroke-width="2" points="1649.28,-756.25 1638.32,-755.72 1646.77,-755.54 1640.14,-752.16 1640.37,-751.71 1640.6,-751.26 1647.22,-754.64 1642.41,-747.7 1649.28,-756.25"/>
</g>
<!-- 4281 -->
<g id="node4" class="node">
<title>4281</title>
<polygon fill="none" stroke="black" points="1527.57,-842.47 1527.57,-857.38 1405.45,-867.92 1232.74,-867.92 1110.61,-857.38 1110.61,-842.47 1232.74,-831.92 1405.45,-831.92 1527.57,-842.47"/>
<polygon fill="none" stroke="black" points="1531.57,-838.8 1531.57,-861.05 1405.62,-871.92 1232.56,-871.92 1106.61,-861.05 1106.61,-838.8 1232.56,-827.92 1405.62,-827.92 1531.57,-838.8"/>
<text text-anchor="middle" x="1319.09" y="-844.87" font-family="Times,serif" font-size="14.00">W3C Software Notice and License (1998&#45;07&#45;20)</text>
</g>
<!-- 4281&#45;&gt;4279 -->
<g id="edge14" class="edge">
<title>4281&#45;&gt;4279</title>
<path fill="none" stroke="#b8bf62" stroke-width="2" d="M1294.33,-827.43C1178.36,-722.27 1141.92,-693.2 1061.57,-684.11"/>
<polygon fill="#b8bf62" stroke="#b8bf62" stroke-width="2" points="1052.9,-683.24 1063.3,-679.76 1055.5,-683 1062.9,-683.74 1062.85,-684.24 1062.8,-684.73 1055.4,-683.99 1062.4,-688.71 1052.9,-683.24"/>
</g>
<!-- 4281&#45;&gt;9213 -->
<g id="edge15" class="edge">
<title>4281&#45;&gt;9213</title>
<path fill="none" stroke="#00876c" stroke-width="2" d="M1326.56,-827.8C1326.86,-826.73 1327.12,-825.71 1327.34,-824.73"/>
<polygon fill="#00876c" stroke="#00876c" stroke-width="2" points="1328.07,-815.98 1331.72,-826.32 1328.36,-818.58 1327.74,-825.99 1327.24,-825.95 1326.74,-825.9 1327.36,-818.49 1322.75,-825.57 1328.07,-815.98"/>
</g>
<!-- 25157 -->
<g id="node17" class="node">
<title>25157</title>
<polygon fill="none" stroke="black" points="1445.76,-1369.61 1445.76,-1384.52 1358.69,-1395.06 1235.54,-1395.06 1148.46,-1384.52 1148.46,-1369.61 1235.54,-1359.06 1358.69,-1359.06 1445.76,-1369.61"/>
<polygon fill="none" stroke="black" points="1449.76,-1366.06 1449.76,-1388.06 1358.93,-1399.06 1235.3,-1399.06 1144.46,-1388.06 1144.46,-1366.06 1235.3,-1355.06 1358.93,-1355.06 1449.76,-1366.06"/>
<text text-anchor="middle" x="1297.11" y="-1372.01" font-family="Times,serif" font-size="14.00">scancode:w3c&#45;software&#45;19980720</text>
</g>
<!-- 4281&#45;&gt;25157 -->
<g id="edge16" class="edge">
<title>4281&#45;&gt;25157</title>
<path fill="none" stroke="#dac767" stroke-width="2" d="M1322.75,-872.14C1372.42,-1174.02 1374.09,-1196.64 1310.88,-1345"/>
<polygon fill="#dac767" stroke="#dac767" stroke-width="2" points="1307.58,-1352.72 1307.37,-1341.76 1308.13,-1350.17 1311.05,-1343.33 1311.51,-1343.53 1311.97,-1343.72 1309.05,-1350.56 1315.65,-1345.3 1307.58,-1352.72"/>
</g>
<!-- 4281&#45;&gt;28006 -->
<g id="edge17" class="edge">
<title>4281&#45;&gt;28006</title>
<path fill="none" stroke="#e18745" stroke-width="2" d="M1399.61,-872.35C1500.68,-900.81 1531.31,-911.67 1571.71,-935.63"/>
<polygon fill="#e18745" stroke="#e18745" stroke-width="2" points="1578.99,-940.05 1568.11,-938.71 1576.54,-939.15 1570.18,-935.29 1570.44,-934.86 1570.7,-934.44 1577.06,-938.29 1572.77,-931.02 1578.99,-940.05"/>
</g>
<!-- 4281&#45;&gt;49588 -->
<g id="edge18" class="edge">
<title>4281&#45;&gt;49588</title>
<path fill="none" stroke="#00876c" stroke-width="2" d="M1230.53,-827.66C1127.36,-804.18 1094.02,-813.07 981.11,-874.37"/>
<polygon fill="#00876c" stroke="#00876c" stroke-width="2" points="973.54,-878.5 980.17,-869.76 975.55,-876.84 982.08,-873.28 982.32,-873.72 982.56,-874.16 976.03,-877.71 984.47,-877.67 973.54,-878.5"/>
</g>
<!-- 4281&#45;&gt;54330 -->
<g id="edge19" class="edge">
<title>4281&#45;&gt;54330</title>
<path fill="none" stroke="#98b561" stroke-width="2" d="M1425.16,-829.17C1512.44,-812.12 1556.05,-803.71 1593.6,-796.89"/>
<polygon fill="#98b561" stroke="#98b561" stroke-width="2" points="1602.18,-795.34 1593.13,-801.55 1599.74,-796.29 1592.42,-797.61 1592.33,-797.12 1592.25,-796.63 1599.56,-795.3 1591.54,-792.69 1602.18,-795.34"/>
</g>
<!-- 4295 -->
<g id="node5" class="node">
<title>4295</title>
<polygon fill="none" stroke="black" points="854.81,-1305.01 854.81,-1319.92 835.23,-1330.47 807.54,-1330.47 787.97,-1319.92 787.97,-1305.01 807.54,-1294.47 835.23,-1294.47 854.81,-1305.01"/>
<text text-anchor="middle" x="821.39" y="-1307.42" font-family="Times,serif" font-size="14.00">W3C</text>
</g>
<!-- 4295&#45;&gt;49588 -->
<g id="edge20" class="edge">
<title>4295&#45;&gt;49588</title>
<path fill="none" stroke="#00876c" stroke-dasharray="5,2" d="M820.16,-1294.27C811.75,-1167.52 815.75,-1152.23 915.92,-934.5"/>
<polygon fill="#00876c" stroke="#00876c" points="920.1,-925.42 920.01,-936.38 918.52,-928.85 915.92,-934.5 915.92,-934.5 915.92,-934.5 918.52,-928.85 911.83,-932.62 920.1,-925.42"/>
</g>
<!-- 5599 -->
<g id="node6" class="node">
<title>5599</title>
<ellipse fill="none" stroke="#e06f45" cx="219.25" cy="-324.92" rx="156.62" ry="28.99"/>
<text text-anchor="middle" x="219.25" y="-328.12" font-family="Times,serif" font-size="14.00" fill="gray">GoogleLicense</text>
<text text-anchor="middle" x="219.25" y="-311.62" font-family="Times,serif" font-size="14.00" fill="gray">c51896cf4778f4780052bc2cbeb434f6</text>
</g>
<!-- 5599&#45;&gt;5600 -->
<g id="edge21" class="edge">
<title>5599&#45;&gt;5600</title>
<path fill="none" stroke="#e06f45" d="M344.03,-342.76C386.7,-353.96 438.48,-374.13 541.62,-416.06"/>
<polygon fill="#e06f45" stroke="#e06f45" points="540.11,-419.23 550.69,-419.75 542.75,-412.74 540.11,-419.23"/>
</g>
<!-- 5601 -->
<g id="node8" class="node">
<title>5601</title>
<polygon fill="none" stroke="#e06f45" points="471.9,-209.33 471.9,-224.24 428.95,-234.78 368.22,-234.78 325.28,-224.24 325.28,-209.33 368.22,-198.78 428.95,-198.78 471.9,-209.33"/>
<polygon fill="none" stroke="#e06f45" points="475.9,-206.19 475.9,-227.38 429.44,-238.78 367.74,-238.78 321.28,-227.38 321.28,-206.19 367.74,-194.78 429.44,-194.78 475.9,-206.19"/>
<text text-anchor="middle" x="398.59" y="-211.73" font-family="Times,serif" font-size="14.00">W3C19980720</text>
</g>
<!-- 5601&#45;&gt;5600 -->
<g id="edge22" class="edge">
<title>5601&#45;&gt;5600</title>
<path fill="none" stroke="#e06f45" stroke-width="2" d="M416.45,-238.96C454.63,-286.12 470.4,-303.1 574.32,-411.06"/>
<polygon fill="#e06f45" stroke="#e06f45" stroke-width="2" points="580.27,-417.23 570.09,-413.15 578.13,-415.73 572.97,-410.37 573.33,-410.03 573.69,-409.68 578.85,-415.04 576.57,-406.91 580.27,-417.23"/>
</g>
<!-- 8484 -->
<g id="node9" class="node">
<title>8484</title>
<ellipse fill="none" stroke="#e09d4b" cx="953.71" cy="-99.98" rx="158.75" ry="28.99"/>
<text text-anchor="middle" x="953.71" y="-103.18" font-family="Times,serif" font-size="14.00" fill="gray">FedoraEntry</text>
<text text-anchor="middle" x="953.71" y="-86.68" font-family="Times,serif" font-size="14.00" fill="gray">04e69f31891a0a4dd7468a7969aba3ba</text>
</g>
<!-- 8484&#45;&gt;8485 -->
<g id="edge23" class="edge">
<title>8484&#45;&gt;8485</title>
<path fill="none" stroke="#e09d4b" d="M968.5,-129.16C1008.48,-208.61 1016.96,-233.73 1082.58,-446.37"/>
<polygon fill="#e09d4b" stroke="#e09d4b" points="1079.21,-447.33 1085.5,-455.85 1085.9,-445.27 1079.21,-447.33"/>
</g>
<!-- 9212 -->
<g id="node11" class="node">
<title>9212</title>
<ellipse fill="none" stroke="#00876c" cx="1569.83" cy="-465.79" rx="159.81" ry="28.99"/>
<text text-anchor="middle" x="1569.83" y="-468.99" font-family="Times,serif" font-size="14.00" fill="gray">BlueOakCouncil</text>
<text text-anchor="middle" x="1569.83" y="-452.49" font-family="Times,serif" font-size="14.00" fill="gray">de6c40b8cd7445461e805873eb7f2057</text>
</g>
<!-- 9212&#45;&gt;9213 -->
<g id="edge24" class="edge">
<title>9212&#45;&gt;9213</title>
<path fill="none" stroke="#00876c" d="M1553.48,-494.93C1509.15,-573.28 1492.12,-594.41 1348.04,-760.49"/>
<polygon fill="#00876c" stroke="#00876c" points="1345.54,-758.03 1341.63,-767.88 1350.83,-762.62 1345.54,-758.03"/>
</g>
<!-- 9737 -->
<g id="node13" class="node">
<title>9737</title>
<ellipse fill="none" stroke="#58a066" cx="1276.03" cy="-28.51" rx="158.22" ry="28.99"/>
<text text-anchor="middle" x="1276.03" y="-31.71" font-family="Times,serif" font-size="14.00" fill="gray">OSADLRule</text>
<text text-anchor="middle" x="1276.03" y="-15.21" font-family="Times,serif" font-size="14.00" fill="gray">0583a597af388836dadf6a915d19e324</text>
</g>
<!-- 9737&#45;&gt;9738 -->
<g id="edge25" class="edge">
<title>9737&#45;&gt;9738</title>
<path fill="none" stroke="#58a066" d="M1276.2,-57.83C1276.55,-147.1 1274.33,-171.46 1249.82,-392.92"/>
<polygon fill="#58a066" stroke="#58a066" points="1246.35,-392.48 1248.73,-402.81 1253.31,-393.25 1246.35,-392.48"/>
</g>
<!-- 9984 -->
<g id="node15" class="node">
<title>9984</title>
<ellipse fill="none" stroke="#58a066" cx="1479.6" cy="-95.71" rx="159.81" ry="28.99"/>
<text text-anchor="middle" x="1479.6" y="-98.91" font-family="Times,serif" font-size="14.00" fill="gray">OSADLMatrix</text>
<text text-anchor="middle" x="1479.6" y="-82.41" font-family="Times,serif" font-size="14.00" fill="gray">552d0a0b1c5c2083b53a8c87670f41b1</text>
</g>
<!-- 9984&#45;&gt;9738 -->
<g id="edge26" class="edge">
<title>9984&#45;&gt;9738</title>
<path fill="none" stroke="#58a066" d="M1451.34,-124.46C1392.31,-185.31 1375.55,-211.25 1265.34,-394.62"/>
<polygon fill="#58a066" stroke="#58a066" points="1262.43,-392.66 1260.28,-403.04 1268.43,-396.27 1262.43,-392.66"/>
</g>
<!-- 25156 -->
<g id="node16" class="node">
<title>25156</title>
<ellipse fill="none" stroke="#dac767" cx="1592.84" cy="-1722.08" rx="161.4" ry="28.99"/>
<text text-anchor="middle" x="1592.84" y="-1725.28" font-family="Times,serif" font-size="14.00" fill="gray">ScancodeData</text>
<text text-anchor="middle" x="1592.84" y="-1708.78" font-family="Times,serif" font-size="14.00" fill="gray">410dba9d92c9e5a5a46d9dd883748186</text>
</g>
<!-- 25156&#45;&gt;25157 -->
<g id="edge27" class="edge">
<title>25156&#45;&gt;25157</title>
<path fill="none" stroke="#dac767" d="M1558.83,-1693.34C1485.97,-1630.97 1464.85,-1604.13 1320.35,-1408.53"/>
<polygon fill="#dac767" stroke="#dac767" points="1323.25,-1406.57 1314.5,-1400.61 1317.62,-1410.73 1323.25,-1406.57"/>
</g>
<!-- 25157&#45;&gt;49588 -->
<g id="edge28" class="edge">
<title>25157&#45;&gt;49588</title>
<path fill="none" stroke="#00876c" stroke-dasharray="5,2" d="M1261.32,-1354.72C1112.19,-1260.96 1096.82,-1236.85 946.94,-934.41"/>
<polygon fill="#00876c" stroke="#00876c" points="942.55,-925.55 951.02,-932.51 944.23,-928.94 946.99,-934.51 946.99,-934.51 946.99,-934.51 944.23,-928.94 942.96,-936.51 942.55,-925.55"/>
</g>
<!-- 25158 -->
<g id="node18" class="node">
<title>25158</title>
<polygon fill="none" stroke="black" points="1417.57,-1763.54 1417.57,-1778.45 1353.54,-1789 1262.97,-1789 1198.94,-1778.45 1198.94,-1763.54 1262.97,-1753 1353.54,-1753 1417.57,-1763.54"/>
<polygon fill="none" stroke="black" points="1421.57,-1760.15 1421.57,-1781.85 1353.86,-1793 1262.65,-1793 1194.94,-1781.85 1194.94,-1760.15 1262.65,-1749 1353.86,-1749 1421.57,-1760.15"/>
<text text-anchor="middle" x="1308.26" y="-1765.95" font-family="Times,serif" font-size="14.00">w3c&#45;software&#45;19980720</text>
</g>
<!-- 25158&#45;&gt;25157 -->
<g id="edge29" class="edge">
<title>25158&#45;&gt;25157</title>
<path fill="none" stroke="black" stroke-width="2" d="M1310.87,-1748.75C1321.89,-1653.67 1320.97,-1634.12 1300.21,-1410.41"/>
<polygon fill="black" stroke="black" stroke-width="2" points="1299.4,-1401.68 1304.81,-1411.22 1300.14,-1404.19 1300.82,-1411.59 1300.33,-1411.64 1299.83,-1411.68 1299.14,-1404.28 1295.85,-1412.05 1299.4,-1401.68"/>
</g>
<!-- 28005 -->
<g id="node19" class="node">
<title>28005</title>
<ellipse fill="none" stroke="#e18745" cx="1935.84" cy="-1217.21" rx="150.79" ry="28.99"/>
<text text-anchor="middle" x="1935.84" y="-1220.41" font-family="Times,serif" font-size="14.00" fill="gray">Fossology</text>
<text text-anchor="middle" x="1935.84" y="-1203.91" font-family="Times,serif" font-size="14.00" fill="gray">4fcbfff00d9f49beaafde23e0315ab46</text>
</g>
<!-- 28005&#45;&gt;28006 -->
<g id="edge30" class="edge">
<title>28005&#45;&gt;28006</title>
<path fill="none" stroke="#e18745" d="M1912.76,-1188.14C1856.28,-1117.95 1833.13,-1100.75 1661.44,-992.27"/>
<polygon fill="#e18745" stroke="#e18745" points="1663.41,-989.38 1653.09,-987 1659.67,-995.3 1663.41,-989.38"/>
</g>
<!-- 35253 -->
<g id="node21" class="node">
<title>35253</title>
<ellipse fill="none" stroke="#e06f45" cx="562.08" cy="-803.17" rx="158.22" ry="28.99"/>
<text text-anchor="middle" x="562.08" y="-806.37" font-family="Times,serif" font-size="14.00" fill="gray">OrtLicenseCategorization</text>
<text text-anchor="middle" x="562.08" y="-789.87" font-family="Times,serif" font-size="14.00" fill="gray">4b4703cc797650f73553fd0a8ec5d10d</text>
</g>
<!-- 35253&#45;&gt;4279 -->
<g id="edge31" class="edge">
<title>35253&#45;&gt;4279</title>
<path fill="none" stroke="#e06f45" d="M598.38,-774.61C665.65,-722.88 696.38,-710.53 826.36,-693.54"/>
<polygon fill="#e06f45" stroke="#e06f45" points="826.59,-697.04 836.06,-692.28 825.7,-690.09 826.59,-697.04"/>
</g>
<!-- 36266 -->
<g id="node22" class="node">
<title>36266</title>
<ellipse fill="none" stroke="#e09d4b" cx="656.81" cy="-1003.38" rx="157.68" ry="28.99"/>
<text text-anchor="middle" x="656.81" y="-1006.58" font-family="Times,serif" font-size="14.00" fill="gray">OrtLicenseCategorization</text>
<text text-anchor="middle" x="656.81" y="-990.08" font-family="Times,serif" font-size="14.00" fill="gray">69961ea2bc108b4beeb46f0831e98f34</text>
</g>
<!-- 36266&#45;&gt;4279 -->
<g id="edge32" class="edge">
<title>36266&#45;&gt;4279</title>
<path fill="none" stroke="#e09d4b" d="M666.49,-974.11C711.6,-838.9 726,-820.63 893.4,-711.95"/>
<polygon fill="#e09d4b" stroke="#e09d4b" points="895.3,-714.89 901.79,-706.51 891.49,-709.02 895.3,-714.89"/>
</g>
<!-- 38113 -->
<g id="node23" class="node">
<title>38113</title>
<ellipse fill="none" stroke="#379469" cx="2031.79" cy="-428" rx="157.15" ry="28.99"/>
<text text-anchor="middle" x="2031.79" y="-431.2" font-family="Times,serif" font-size="14.00" fill="gray">CavilLicenseChange</text>
<text text-anchor="middle" x="2031.79" y="-414.7" font-family="Times,serif" font-size="14.00" fill="gray">b99d2bc9d72f4ce4ba1db3efa758929e</text>
</g>
<!-- 38113&#45;&gt;38114 -->
<g id="edge33" class="edge">
<title>38113&#45;&gt;38114</title>
<path fill="none" stroke="#379469" d="M1963.7,-454.42C1911.47,-475.31 1868.5,-495.05 1726.72,-561.4"/>
<polygon fill="#379469" stroke="#379469" points="1725.29,-558.21 1717.71,-565.62 1728.25,-564.55 1725.29,-558.21"/>
</g>
<!-- 49587 -->
<g id="node25" class="node">
<title>49587</title>
<ellipse fill="none" stroke="#00876c" cx="980.25" cy="-961.27" rx="155.56" ry="28.99"/>
<text text-anchor="middle" x="980.25" y="-964.47" font-family="Times,serif" font-size="14.00" fill="gray">MetaeffektLicense</text>
<text text-anchor="middle" x="980.25" y="-947.97" font-family="Times,serif" font-size="14.00" fill="gray">7f013f49f5ae58b6745c9ef775d66275</text>
</g>
<!-- 49587&#45;&gt;49588 -->
<g id="edge34" class="edge">
<title>49587&#45;&gt;49588</title>
<path fill="none" stroke="#00876c" d="M943.39,-932.92C943.33,-932.83 943.26,-932.75 943.2,-932.67"/>
<polygon fill="#00876c" stroke="#00876c" points="947.03,-932.28 938.96,-925.41 940.98,-935.81 947.03,-932.28"/>
</g>
<!-- 49589 -->
<g id="node27" class="node">
<title>49589</title>
<polygon fill="none" stroke="#00876c" points="776.38,-1405.06 776.38,-1419.97 656.2,-1430.52 486.24,-1430.52 366.06,-1419.97 366.06,-1405.06 486.24,-1394.52 656.2,-1394.52 776.38,-1405.06"/>
<text text-anchor="middle" x="571.22" y="-1407.47" font-family="Times,serif" font-size="14.00">W3C Software Notice and License (1994&#45;2002)</text>
</g>
<!-- 49589&#45;&gt;49588 -->
<g id="edge35" class="edge">
<title>49589&#45;&gt;49588</title>
<path fill="none" stroke="#00876c" stroke-dasharray="5,2" d="M578.99,-1394.02C646.51,-1233.58 657.57,-1218.07 904.76,-932.21"/>
<polygon fill="#00876c" stroke="#00876c" points="910.97,-925.03 907.83,-935.53 908.5,-927.89 904.43,-932.59 904.43,-932.59 904.43,-932.59 908.5,-927.89 901.02,-929.65 910.97,-925.03"/>
</g>
<!-- 49590 -->
<g id="node28" class="node">
<title>49590</title>
<polygon fill="none" stroke="#00876c" points="571.19,-1195.94 571.19,-1210.86 403.96,-1221.4 167.46,-1221.4 0.22,-1210.86 0.22,-1195.94 167.46,-1185.4 403.96,-1185.4 571.19,-1195.94"/>
<text text-anchor="middle" x="285.71" y="-1198.35" font-family="Times,serif" font-size="14.00">http://www.w3.org/Consortium/Legal/copyright&#45;software&#45;19980720</text>
</g>
<!-- 49590&#45;&gt;49588 -->
<g id="edge36" class="edge">
<title>49590&#45;&gt;49588</title>
<path fill="none" stroke="#00876c" stroke-dasharray="5,2" d="M317.14,-1184.92C465.45,-1097.88 496.26,-1083.71 866.94,-928.72"/>
<polygon fill="#00876c" stroke="#00876c" points="876.04,-924.92 868.55,-932.93 872.55,-926.38 866.81,-928.78 866.81,-928.78 866.81,-928.78 872.55,-926.38 865.08,-924.63 876.04,-924.92"/>
</g>
<!-- 54329 -->
<g id="node29" class="node">
<title>54329</title>
<ellipse fill="none" stroke="#98b561" cx="2094.31" cy="-835.21" rx="158.75" ry="28.99"/>
<text text-anchor="middle" x="2094.31" y="-838.41" font-family="Times,serif" font-size="14.00" fill="gray">EclipseLicense</text>
<text text-anchor="middle" x="2094.31" y="-821.91" font-family="Times,serif" font-size="14.00" fill="gray">4887a3a581e8e2c4ce94e15b2e95de94</text>
</g>
<!-- 54329&#45;&gt;54330 -->
<g id="edge37" class="edge">
<title>54329&#45;&gt;54330</title>
<path fill="none" stroke="#98b561" d="M2008.48,-810.52C1963.78,-799.93 1919.37,-795.14 1815.27,-787.87"/>
<polygon fill="#98b561" stroke="#98b561" points="1815.72,-784.39 1805.5,-787.19 1815.23,-791.37 1815.72,-784.39"/>
</g>
</g>
</svg>
