<?xml version="1.0" encoding="UTF-8" standalone="no"?>
<!DOCTYPE svg PUBLIC "-//W3C//DTD SVG 1.1//EN"
 "http://www.w3.org/Graphics/SVG/1.1/DTD/svg11.dtd">
<!-- Generated by graphviz version 10.0.1 (0)
 -->
<!-- Pages: 1 -->
<svg width="922pt" height="785pt"
 viewBox="0.00 0.00 922.00 785.00" xmlns="http://www.w3.org/2000/svg" xmlns:xlink="http://www.w3.org/1999/xlink">
<g id="graph0" class="graph" transform="scale(1 1) rotate(0) translate(4 781)">
<polygon fill="white" stroke="none" points="-4,4 -4,-781 918,-781 918,4 -4,4"/>
<!-- 4341 -->
<g id="node1" class="node">
<title>4341</title>
<polygon fill="none" stroke="black" points="736.11,-10.73 736.11,-25.64 719.13,-36.18 695.11,-36.18 678.13,-25.64 678.13,-10.73 695.11,-0.18 719.13,-0.18 736.11,-10.73"/>
<text text-anchor="middle" x="707.12" y="-13.13" font-family="Times,serif" font-size="14.00">X11</text>
</g>
<!-- 49709 -->
<g id="node3" class="node">
<title>49709</title>
<polygon fill="none" stroke="#00876c" points="830.82,-348.15 830.82,-363.07 730.44,-373.61 588.47,-373.61 488.09,-363.07 488.09,-348.15 588.47,-337.61 730.44,-337.61 830.82,-348.15"/>
<polygon fill="none" stroke="#00876c" points="834.82,-344.55 834.82,-366.67 730.65,-377.61 588.26,-377.61 484.09,-366.67 484.09,-344.55 588.26,-333.61 730.65,-333.61 834.82,-344.55"/>
<text text-anchor="middle" x="659.46" y="-350.56" font-family="Times,serif" font-size="14.00">metaeffekt:x11vnc OpenSSL Exception</text>
</g>
<!-- 4341&#45;&gt;49709 -->
<g id="edge1" class="edge">
<title>4341&#45;&gt;49709</title>
<path fill="none" stroke="#00876c" stroke-dasharray="5,2" d="M711.1,-36.4C732.67,-136.12 730.64,-151.14 670.9,-322.79"/>
<polygon fill="#00876c" stroke="#00876c" points="667.66,-332.09 666.7,-321.17 668.91,-328.52 670.95,-322.65 670.95,-322.65 670.95,-322.65 668.91,-328.52 675.2,-324.13 667.66,-332.09"/>
</g>
<!-- 49708 -->
<g id="node2" class="node">
<title>49708</title>
<ellipse fill="none" stroke="#00876c" cx="761.17" cy="-289.79" rx="152.91" ry="28.99"/>
<text text-anchor="middle" x="761.17" y="-292.99" font-family="Times,serif" font-size="14.00" fill="gray">MetaeffektLicense</text>
<text text-anchor="middle" x="761.17" y="-276.49" font-family="Times,serif" font-size="14.00" fill="gray">e1ea22defd76bf1e709d47f2b6baf9bf</text>
</g>
<!-- 49708&#45;&gt;49709 -->
<g id="edge2" class="edge">
<title>49708&#45;&gt;49709</title>
<path fill="none" stroke="#00876c" d="M727.3,-318.52C722.97,-321.3 717.95,-324.27 711.77,-327.73"/>
<polygon fill="#00876c" stroke="#00876c" points="710.23,-324.58 703.15,-332.47 713.6,-330.72 710.23,-324.58"/>
</g>
<!-- 49710 -->
<g id="node4" class="node">
<title>49710</title>
<polygon fill="none" stroke="#00876c" points="609.73,-747.19 609.73,-762.11 536.29,-772.65 432.42,-772.65 358.97,-762.11 358.97,-747.19 432.42,-736.65 536.29,-736.65 609.73,-747.19"/>
<polygon fill="none" stroke="#00876c" points="613.73,-743.73 613.73,-765.57 536.57,-776.65 432.13,-776.65 354.97,-765.57 354.97,-743.73 432.13,-732.65 536.57,-732.65 613.73,-743.73"/>
<text text-anchor="middle" x="484.35" y="-749.6" font-family="Times,serif" font-size="14.00">x11vnc OpenSSL Exception</text>
</g>
<!-- 49710&#45;&gt;49709 -->
<g id="edge3" class="edge">
<title>49710&#45;&gt;49709</title>
<path fill="none" stroke="#00876c" stroke-width="2" d="M508.13,-732.42C616.32,-630.74 623.29,-611.82 654.73,-389.19"/>
<polygon fill="#00876c" stroke="#00876c" stroke-width="2" points="655.96,-380.5 659.02,-391.03 656.1,-383.1 655.06,-390.47 654.56,-390.4 654.07,-390.33 655.1,-382.96 650.11,-389.77 655.96,-380.5"/>
</g>
<!-- 49711 -->
<g id="node5" class="node">
<title>49711</title>
<polygon fill="none" stroke="#00876c" points="841.2,-404.3 841.2,-419.21 760.29,-429.76 645.86,-429.76 564.95,-419.21 564.95,-404.3 645.86,-393.76 760.29,-393.76 841.2,-404.3"/>
<polygon fill="none" stroke="#00876c" points="845.2,-400.79 845.2,-422.73 760.54,-433.76 645.6,-433.76 560.95,-422.73 560.95,-400.79 645.6,-389.76 760.54,-389.76 845.2,-400.79"/>
<polygon fill="none" stroke="#00876c" points="849.2,-397.28 849.2,-426.24 760.8,-437.76 645.34,-437.76 556.95,-426.24 556.95,-397.28 645.34,-385.76 760.8,-385.76 849.2,-397.28"/>
<text text-anchor="middle" x="703.07" y="-406.71" font-family="Times,serif" font-size="14.00">spdx:x11vnc&#45;openssl&#45;exception</text>
</g>
<!-- 49711&#45;&gt;49709 -->
<g id="edge4" class="edge">
<title>49711&#45;&gt;49709</title>
<path fill="none" stroke="#00876c" stroke-width="2" d="M693.37,-385.44C693.26,-385.28 693.15,-385.12 693.04,-384.96"/>
<polygon fill="#00876c" stroke="#00876c" stroke-width="2" points="688.34,-379.59 698.31,-384.15 690.41,-381.19 695.3,-386.79 694.93,-387.12 694.55,-387.45 689.65,-381.85 691.54,-390.08 688.34,-379.59"/>
</g>
<!-- 49712 -->
<g id="node6" class="node">
<title>49712</title>
<polygon fill="none" stroke="#00876c" points="856.21,-463.06 856.21,-477.97 787.95,-488.52 691.42,-488.52 623.17,-477.97 623.17,-463.06 691.42,-452.52 787.95,-452.52 856.21,-463.06"/>
<polygon fill="none" stroke="#00876c" points="860.21,-459.63 860.21,-481.4 788.26,-492.52 691.12,-492.52 619.17,-481.4 619.17,-459.63 691.12,-448.52 788.26,-448.52 860.21,-459.63"/>
<text text-anchor="middle" x="739.69" y="-465.47" font-family="Times,serif" font-size="14.00">x11vnc&#45;openssl&#45;exception</text>
</g>
<!-- 49712&#45;&gt;49711 -->
<g id="edge5" class="edge">
<title>49712&#45;&gt;49711</title>
<path fill="none" stroke="#00876c" stroke-width="2" d="M734.28,-448.31C734.14,-447.99 734,-447.67 733.85,-447.35"/>
<polygon fill="#00876c" stroke="#00876c" stroke-width="2" points="729.15,-439.99 738.32,-446 730.95,-441.88 734.95,-448.15 734.53,-448.42 734.11,-448.69 730.11,-442.42 730.74,-450.84 729.15,-439.99"/>
</g>
<!-- 49713 -->
<g id="node7" class="node">
<title>49713</title>
<polygon fill="none" stroke="#00876c" points="547.4,-282.32 547.4,-297.23 386.98,-307.78 160.12,-307.78 -0.3,-297.23 -0.3,-282.32 160.12,-271.78 386.98,-271.78 547.4,-282.32"/>
<text text-anchor="middle" x="273.55" y="-284.73" font-family="Times,serif" font-size="14.00">https://github.com/LibVNC/x11vnc/blob/master/src/8to24.c#L22</text>
</g>
<!-- 49713&#45;&gt;49709 -->
<g id="edge6" class="edge">
<title>49713&#45;&gt;49709</title>
<path fill="none" stroke="#00876c" stroke-dasharray="5,2" d="M361.4,-271.32C469.17,-250.94 501.42,-260.84 612.8,-327.41"/>
<polygon fill="#00876c" stroke="#00876c" points="621.34,-332.53 610.45,-331.25 618.1,-330.59 612.76,-327.39 612.76,-327.39 612.76,-327.39 618.1,-330.59 615.08,-323.53 621.34,-332.53"/>
</g>
</g>
</svg>
