<?xml version="1.0" encoding="UTF-8" standalone="no"?>
<!DOCTYPE svg PUBLIC "-//W3C//DTD SVG 1.1//EN"
 "http://www.w3.org/Graphics/SVG/1.1/DTD/svg11.dtd">
<!-- Generated by graphviz version 10.0.1 (0)
 -->
<!-- Pages: 1 -->
<svg width="4122pt" height="3127pt"
 viewBox="0.00 0.00 4122.00 3127.00" xmlns="http://www.w3.org/2000/svg" xmlns:xlink="http://www.w3.org/1999/xlink">
<g id="graph0" class="graph" transform="scale(1 1) rotate(0) translate(4 3123)">
<polygon fill="white" stroke="none" points="-4,4 -4,-3123 4118,-3123 4118,4 -4,4"/>
<!-- 5 -->
<g id="node1" class="node">
<title>5</title>
<text text-anchor="start" x="1431.23" y="-2027.4" font-family="Times,serif" font-size="14.00">OSI: </text>
<text text-anchor="start" x="1460.48" y="-2027.4" font-family="Times,serif" font-weight="bold" font-size="14.00" fill="#8b0000">Rejected</text>
</g>
<!-- 5461 -->
<g id="node2" class="node">
<title>5461</title>
<ellipse fill="none" stroke="#dac767" cx="1843.74" cy="-1891.32" rx="159.28" ry="28.99"/>
<text text-anchor="middle" x="1843.74" y="-1894.52" font-family="Times,serif" font-size="14.00" fill="gray">SPDXLicense</text>
<text text-anchor="middle" x="1843.74" y="-1878.02" font-family="Times,serif" font-size="14.00" fill="gray">188a71557ab627996c6fcc329695a05d</text>
</g>
<!-- 5&#45;&gt;5461 -->
<g id="edge1" class="edge">
<title>5&#45;&gt;5461</title>
<path fill="none" stroke="#dac767" d="M1518.64,-2026.21C1596.23,-2016.62 1627.72,-2003.6 1780.8,-1924.11"/>
<polygon fill="#dac767" stroke="#dac767" points="1781.97,-1927.44 1789.23,-1919.73 1778.74,-1921.23 1781.97,-1927.44"/>
</g>
<!-- 5462 -->
<g id="node3" class="node">
<title>5462</title>
<polygon fill="none" stroke="black" points="2427.68,-1636.08 2427.68,-1650.99 2395.12,-1661.54 2349.07,-1661.54 2316.51,-1650.99 2316.51,-1636.08 2349.07,-1625.54 2395.12,-1625.54 2427.68,-1636.08"/>
<polygon fill="none" stroke="black" points="2431.68,-1633.17 2431.68,-1653.9 2395.75,-1665.54 2348.44,-1665.54 2312.51,-1653.9 2312.51,-1633.17 2348.44,-1621.54 2395.75,-1621.54 2431.68,-1633.17"/>
<polygon fill="none" stroke="black" points="2435.68,-1630.26 2435.68,-1656.81 2396.38,-1669.54 2347.81,-1669.54 2308.51,-1656.81 2308.51,-1630.26 2347.81,-1617.54 2396.38,-1617.54 2435.68,-1630.26"/>
<text text-anchor="middle" x="2372.09" y="-1638.49" font-family="Times,serif" font-size="14.00">spdx:xlock</text>
</g>
<!-- 5461&#45;&gt;5462 -->
<g id="edge2" class="edge">
<title>5461&#45;&gt;5462</title>
<path fill="none" stroke="#dac767" d="M1997.55,-1883.46C2137.17,-1870.57 2181.22,-1834.52 2338.17,-1677.55"/>
<polygon fill="#dac767" stroke="#dac767" points="2340.55,-1680.11 2345.14,-1670.56 2335.6,-1675.17 2340.55,-1680.11"/>
</g>
<!-- 9471 -->
<g id="node13" class="node">
<title>9471</title>
<polygon fill="none" stroke="#e09d4b" points="2731.55,-1419.19 2731.55,-1434.1 2693.8,-1444.64 2640.41,-1444.64 2602.66,-1434.1 2602.66,-1419.19 2640.41,-1408.64 2693.8,-1408.64 2731.55,-1419.19"/>
<polygon fill="none" stroke="#e09d4b" points="2735.55,-1416.15 2735.55,-1437.13 2694.35,-1448.64 2639.87,-1448.64 2598.66,-1437.13 2598.66,-1416.15 2639.87,-1404.64 2694.35,-1404.64 2735.55,-1416.15"/>
<text text-anchor="middle" x="2667.11" y="-1421.59" font-family="Times,serif" font-size="14.00">Fedora:xlock</text>
</g>
<!-- 5462&#45;&gt;9471 -->
<g id="edge3" class="edge">
<title>5462&#45;&gt;9471</title>
<path fill="none" stroke="#e09d4b" stroke-width="2" d="M2413.22,-1622.59C2571.86,-1541.59 2594.15,-1527 2644.86,-1457.66"/>
<polygon fill="#e09d4b" stroke="#e09d4b" stroke-width="2" points="2649.77,-1450.9 2647.54,-1461.64 2648.66,-1453.27 2644.3,-1459.29 2643.89,-1459 2643.49,-1458.7 2647.86,-1452.68 2640.25,-1456.35 2649.77,-1450.9"/>
</g>
<!-- 20213 -->
<g id="node20" class="node">
<title>20213</title>
<polygon fill="none" stroke="black" points="2135.64,-1986.16 2135.64,-2001.07 2088.8,-2011.61 2022.56,-2011.61 1975.73,-2001.07 1975.73,-1986.16 2022.56,-1975.61 2088.8,-1975.61 2135.64,-1986.16"/>
<polygon fill="none" stroke="black" points="2139.64,-1982.96 2139.64,-2004.27 2089.25,-2015.61 2022.12,-2015.61 1971.73,-2004.27 1971.73,-1982.96 2022.12,-1971.61 2089.25,-1971.61 2139.64,-1982.96"/>
<text text-anchor="middle" x="2055.68" y="-1988.56" font-family="Times,serif" font-size="14.00">scancode:libpbm</text>
</g>
<!-- 5462&#45;&gt;20213 -->
<g id="edge4" class="edge">
<title>5462&#45;&gt;20213</title>
<path fill="none" stroke="#deb256" stroke-width="2" d="M2344.14,-1668.71C2282.25,-1731.45 2135.08,-1894.26 2078.39,-1962.69"/>
<polygon fill="#deb256" stroke="#deb256" stroke-width="2" points="2072.86,-1969.43 2075.72,-1958.84 2074.1,-1967.13 2078.82,-1961.38 2079.2,-1961.7 2079.59,-1962.01 2074.87,-1967.76 2082.68,-1964.55 2072.86,-1969.43"/>
</g>
<!-- 58953 -->
<g id="node42" class="node">
<title>58953</title>
<polygon fill="none" stroke="#379469" points="2928.02,-1769.39 2928.02,-1784.3 2861.39,-1794.84 2767.15,-1794.84 2700.52,-1784.3 2700.52,-1769.39 2767.15,-1758.84 2861.39,-1758.84 2928.02,-1769.39"/>
<polygon fill="none" stroke="#379469" points="2932.02,-1765.97 2932.02,-1787.72 2861.7,-1798.84 2766.84,-1798.84 2696.52,-1787.72 2696.52,-1765.97 2766.84,-1754.84 2861.7,-1754.84 2932.02,-1765.97"/>
<text text-anchor="middle" x="2814.27" y="-1771.79" font-family="Times,serif" font-size="14.00">metaeffekt:xlock License</text>
</g>
<!-- 5462&#45;&gt;58953 -->
<g id="edge5" class="edge">
<title>5462&#45;&gt;58953</title>
<path fill="none" stroke="#379469" stroke-width="2" d="M2427.49,-1659.92C2621.59,-1717.3 2672.58,-1732.47 2740.36,-1753.61"/>
<polygon fill="#379469" stroke="#379469" stroke-width="2" points="2748.63,-1756.2 2737.74,-1757.51 2746.03,-1755.91 2738.93,-1753.69 2739.08,-1753.22 2739.23,-1752.74 2746.33,-1754.96 2740.43,-1748.92 2748.63,-1756.2"/>
</g>
<!-- 5463 -->
<g id="node4" class="node">
<title>5463</title>
<polygon fill="none" stroke="black" points="2754.56,-1717.38 2754.56,-1732.29 2734.66,-1742.84 2706.51,-1742.84 2686.61,-1732.29 2686.61,-1717.38 2706.51,-1706.84 2734.66,-1706.84 2754.56,-1717.38"/>
<polygon fill="none" stroke="black" points="2758.56,-1714.98 2758.56,-1734.7 2735.65,-1746.84 2705.52,-1746.84 2682.61,-1734.7 2682.61,-1714.98 2705.52,-1702.84 2735.65,-1702.84 2758.56,-1714.98"/>
<text text-anchor="middle" x="2720.59" y="-1719.79" font-family="Times,serif" font-size="14.00">xlock</text>
</g>
<!-- 5463&#45;&gt;5462 -->
<g id="edge6" class="edge">
<title>5463&#45;&gt;5462</title>
<path fill="none" stroke="black" stroke-width="2" d="M2682.55,-1716.49C2620.2,-1702.77 2590.37,-1695.78 2443.85,-1660.71"/>
<polygon fill="black" stroke="black" stroke-width="2" points="2435.46,-1658.71 2446.23,-1656.66 2438.07,-1658.82 2445.3,-1660.55 2445.19,-1661.04 2445.07,-1661.52 2437.84,-1659.79 2444.14,-1665.41 2435.46,-1658.71"/>
</g>
<!-- 5463&#45;&gt;9471 -->
<g id="edge7" class="edge">
<title>5463&#45;&gt;9471</title>
<path fill="none" stroke="#e09d4b" stroke-width="2" d="M2725.65,-1702.68C2751.9,-1586.88 2750.3,-1571.29 2685.39,-1458.28"/>
<polygon fill="#e09d4b" stroke="#e09d4b" stroke-width="2" points="2681.2,-1450.99 2690.09,-1457.41 2682.91,-1452.97 2686.62,-1459.41 2686.19,-1459.66 2685.75,-1459.91 2682.04,-1453.46 2682.29,-1461.91 2681.2,-1450.99"/>
</g>
<!-- 10342 -->
<g id="node16" class="node">
<title>10342</title>
<polygon fill="none" stroke="#00876c" points="2869.61,-2079.64 2869.61,-2094.55 2827.31,-2105.09 2767.5,-2105.09 2725.2,-2094.55 2725.2,-2079.64 2767.5,-2069.09 2827.31,-2069.09 2869.61,-2079.64"/>
<polygon fill="none" stroke="#00876c" points="2873.61,-2076.51 2873.61,-2097.67 2827.8,-2109.09 2767.01,-2109.09 2721.2,-2097.67 2721.2,-2076.51 2767.01,-2065.09 2827.8,-2065.09 2873.61,-2076.51"/>
<text text-anchor="middle" x="2797.4" y="-2082.04" font-family="Times,serif" font-size="14.00">BlueOak:xlock</text>
</g>
<!-- 5463&#45;&gt;10342 -->
<g id="edge8" class="edge">
<title>5463&#45;&gt;10342</title>
<path fill="none" stroke="#00876c" stroke-width="2" d="M2731.54,-1747.2C2817.56,-1922.96 2823.9,-1941.95 2803.57,-2054.04"/>
<polygon fill="#00876c" stroke="#00876c" stroke-width="2" points="2802.03,-2062.42 2799.41,-2051.77 2802,-2059.81 2803.34,-2052.49 2803.84,-2052.58 2804.33,-2052.67 2802.98,-2059.99 2808.26,-2053.4 2802.03,-2062.42"/>
</g>
<!-- 42960 -->
<g id="node38" class="node">
<title>42960</title>
<polygon fill="none" stroke="#379469" points="3098.76,-1681.93 3098.76,-1696.84 3065.88,-1707.39 3019.37,-1707.39 2986.49,-1696.84 2986.49,-1681.93 3019.37,-1671.39 3065.88,-1671.39 3098.76,-1681.93"/>
<polygon fill="none" stroke="#379469" points="3102.76,-1679.01 3102.76,-1699.76 3066.5,-1711.39 3018.75,-1711.39 2982.49,-1699.76 2982.49,-1679.01 3018.75,-1667.39 3066.5,-1667.39 3102.76,-1679.01"/>
<text text-anchor="middle" x="3042.62" y="-1684.34" font-family="Times,serif" font-size="14.00">cavil:xlock</text>
</g>
<!-- 5463&#45;&gt;42960 -->
<g id="edge9" class="edge">
<title>5463&#45;&gt;42960</title>
<path fill="none" stroke="#379469" stroke-width="2" d="M2759.02,-1723.75C2895.95,-1719.85 2935.44,-1717.91 2982.78,-1706.36"/>
<polygon fill="#379469" stroke="#379469" stroke-width="2" points="2991.01,-1704.26 2982.44,-1711.1 2988.65,-1705.38 2981.45,-1707.22 2981.32,-1706.74 2981.2,-1706.25 2988.41,-1704.41 2980.21,-1702.37 2991.01,-1704.26"/>
</g>
<!-- 5463&#45;&gt;58953 -->
<g id="edge10" class="edge">
<title>5463&#45;&gt;58953</title>
<path fill="none" stroke="#379469" stroke-dasharray="5,2" d="M2750.99,-1739.1C2759.67,-1743.21 2766.57,-1746.54 2772.3,-1749.42"/>
<polygon fill="#379469" stroke="#379469" points="2780.97,-1753.96 2770.02,-1753.31 2777.61,-1752.2 2772.11,-1749.32 2772.11,-1749.32 2772.11,-1749.32 2777.61,-1752.2 2774.19,-1745.33 2780.97,-1753.96"/>
</g>
<!-- 5464 -->
<g id="node5" class="node">
<title>5464</title>
<polygon fill="none" stroke="black" points="2659.77,-1869.26 2659.77,-1884.17 2620.07,-1894.72 2563.93,-1894.72 2524.23,-1884.17 2524.23,-1869.26 2563.93,-1858.72 2620.07,-1858.72 2659.77,-1869.26"/>
<polygon fill="none" stroke="black" points="2663.77,-1866.18 2663.77,-1887.25 2620.59,-1898.72 2563.41,-1898.72 2520.23,-1887.25 2520.23,-1866.18 2563.41,-1854.72 2620.59,-1854.72 2663.77,-1866.18"/>
<text text-anchor="middle" x="2592" y="-1871.67" font-family="Times,serif" font-size="14.00">xlock License</text>
</g>
<!-- 5464&#45;&gt;5462 -->
<g id="edge11" class="edge">
<title>5464&#45;&gt;5462</title>
<path fill="none" stroke="#dac767" stroke-width="2" d="M2578.83,-1854.22C2542.15,-1792.28 2527.28,-1776.83 2409.38,-1675.52"/>
<polygon fill="#dac767" stroke="#dac767" stroke-width="2" points="2402.93,-1669.99 2413.45,-1673.09 2405.2,-1671.28 2410.85,-1676.13 2410.52,-1676.51 2410.2,-1676.88 2404.55,-1672.04 2407.59,-1679.92 2402.93,-1669.99"/>
</g>
<!-- 5464&#45;&gt;10342 -->
<g id="edge12" class="edge">
<title>5464&#45;&gt;10342</title>
<path fill="none" stroke="#00876c" stroke-width="2" d="M2616.75,-1899.18C2721.52,-1994.3 2741.94,-2013.72 2774.19,-2055.95"/>
<polygon fill="#00876c" stroke="#00876c" stroke-width="2" points="2779.35,-2062.78 2769.73,-2057.52 2777.41,-2061.04 2772.92,-2055.11 2773.32,-2054.8 2773.72,-2054.5 2778.2,-2060.44 2776.91,-2052.09 2779.35,-2062.78"/>
</g>
<!-- 5464&#45;&gt;58953 -->
<g id="edge13" class="edge">
<title>5464&#45;&gt;58953</title>
<path fill="none" stroke="#379469" stroke-width="2" d="M2655.93,-1863.67C2730.47,-1847.78 2751.46,-1838.7 2784.68,-1806.85"/>
<polygon fill="#379469" stroke="#379469" stroke-width="2" points="2790.72,-1800.93 2786.73,-1811.14 2789.24,-1803.08 2783.93,-1808.29 2783.58,-1807.93 2783.23,-1807.57 2788.54,-1802.37 2780.43,-1804.72 2790.72,-1800.93"/>
</g>
<!-- 74875 -->
<g id="node46" class="node">
<title>74875</title>
<polygon fill="none" stroke="#00876c" points="2484.94,-1899.2 2484.94,-1914.11 2432.58,-1924.65 2358.54,-1924.65 2306.19,-1914.11 2306.19,-1899.2 2358.54,-1888.65 2432.58,-1888.65 2484.94,-1899.2"/>
<polygon fill="none" stroke="#00876c" points="2488.94,-1895.92 2488.94,-1917.38 2432.98,-1928.65 2358.14,-1928.65 2302.19,-1917.38 2302.19,-1895.92 2358.14,-1884.65 2432.98,-1884.65 2488.94,-1895.92"/>
<text text-anchor="middle" x="2395.56" y="-1901.6" font-family="Times,serif" font-size="14.00">spdx:xlock License</text>
</g>
<!-- 5464&#45;&gt;74875 -->
<g id="edge14" class="edge">
<title>5464&#45;&gt;74875</title>
<path fill="none" stroke="#00876c" stroke-width="2" d="M2555.8,-1897.04C2537.58,-1906.14 2522.92,-1910.32 2500.28,-1911.35"/>
<polygon fill="#00876c" stroke="#00876c" stroke-width="2" points="2491.7,-1911.55 2501.6,-1906.81 2494.26,-1910.99 2501.69,-1910.81 2501.7,-1911.31 2501.71,-1911.81 2494.28,-1911.99 2501.81,-1915.81 2491.7,-1911.55"/>
</g>
<!-- 5465 -->
<g id="node6" class="node">
<title>5465</title>
<text text-anchor="middle" x="1380.26" y="-1866.68" font-family="Times,serif" font-size="14.00">$TEXT</text>
</g>
<!-- 5465&#45;&gt;5461 -->
<g id="edge15" class="edge">
<title>5465&#45;&gt;5461</title>
<path fill="none" stroke="#dac767" d="M1408.71,-1883.34C1513.4,-1925.72 1545.51,-1932.06 1706,-1910.84"/>
<polygon fill="#dac767" stroke="#dac767" points="1706.32,-1914.32 1715.77,-1909.53 1705.39,-1907.39 1706.32,-1914.32"/>
</g>
<!-- 5466 -->
<g id="node7" class="node">
<title>5466</title>
<text text-anchor="middle" x="1151.37" y="-1873.4" font-family="Times,serif" font-size="14.00">$TEXT</text>
</g>
<!-- 5466&#45;&gt;5465 -->
<g id="edge16" class="edge">
<title>5466&#45;&gt;5465</title>
<path fill="none" stroke="#dac767" d="M1179.71,-1883.65C1221.67,-1890.73 1242.17,-1889.44 1340.32,-1876.88"/>
<polygon fill="#dac767" stroke="#dac767" points="1340.72,-1880.36 1350.19,-1875.61 1339.83,-1873.41 1340.72,-1880.36"/>
</g>
<!-- 5467 -->
<g id="node8" class="node">
<title>5467</title>
<text text-anchor="middle" x="1657.02" y="-2332" font-family="Times,serif" font-size="14.00">https://fossies.org/linux/tiff/contrib/ras/ras2tif.c</text>
</g>
<!-- 5467&#45;&gt;5461 -->
<g id="edge17" class="edge">
<title>5467&#45;&gt;5461</title>
<path fill="none" stroke="#dac767" d="M1663.03,-2319.21C1701.99,-2203.83 1709.27,-2186.43 1825.73,-1930.83"/>
<polygon fill="#dac767" stroke="#dac767" points="1828.87,-1932.39 1829.83,-1921.84 1822.5,-1929.49 1828.87,-1932.39"/>
</g>
<!-- 20212 -->
<g id="node19" class="node">
<title>20212</title>
<ellipse fill="none" stroke="#deb256" cx="2039.56" cy="-2499.34" rx="157.68" ry="28.99"/>
<text text-anchor="middle" x="2039.56" y="-2502.54" font-family="Times,serif" font-size="14.00" fill="gray">ScancodeData</text>
<text text-anchor="middle" x="2039.56" y="-2486.04" font-family="Times,serif" font-size="14.00" fill="gray">b00f9042d1512c73f4e4fd23d144a559</text>
</g>
<!-- 5467&#45;&gt;20212 -->
<g id="edge18" class="edge">
<title>5467&#45;&gt;20212</title>
<path fill="none" stroke="#deb256" d="M1675.91,-2354.85C1770.77,-2444.16 1809.81,-2478.13 1874.08,-2491.13"/>
<polygon fill="#deb256" stroke="#deb256" points="1873.11,-2494.51 1883.57,-2492.84 1874.35,-2487.62 1873.11,-2494.51"/>
</g>
<!-- 5550 -->
<g id="node9" class="node">
<title>5550</title>
<text text-anchor="middle" x="2462.49" y="-2667.86" font-family="Times,serif" font-size="14.00">LicenseType Permissive</text>
</g>
<!-- 10341 -->
<g id="node15" class="node">
<title>10341</title>
<ellipse fill="none" stroke="#00876c" cx="2876.5" cy="-2585.9" rx="157.15" ry="28.99"/>
<text text-anchor="middle" x="2876.5" y="-2589.1" font-family="Times,serif" font-size="14.00" fill="gray">BlueOakCouncil</text>
<text text-anchor="middle" x="2876.5" y="-2572.6" font-family="Times,serif" font-size="14.00" fill="gray">9ac0b65f61d3bed1cb63529136fe9a1c</text>
</g>
<!-- 5550&#45;&gt;10341 -->
<g id="edge19" class="edge">
<title>5550&#45;&gt;10341</title>
<path fill="none" stroke="#00876c" d="M2536.97,-2681.67C2691.48,-2698.92 2723.3,-2692.22 2827.03,-2620.69"/>
<polygon fill="#00876c" stroke="#00876c" points="2828.82,-2623.7 2835.04,-2615.13 2824.83,-2617.95 2828.82,-2623.7"/>
</g>
<!-- 5550&#45;&gt;20212 -->
<g id="edge20" class="edge">
<title>5550&#45;&gt;20212</title>
<path fill="none" stroke="#deb256" d="M2387.78,-2673.5C2273.54,-2672.24 2239.83,-2653.51 2085.38,-2534.71"/>
<polygon fill="#deb256" stroke="#deb256" points="2087.75,-2532.12 2077.69,-2528.79 2083.48,-2537.66 2087.75,-2532.12"/>
</g>
<!-- 6592 -->
<g id="node10" class="node">
<title>6592</title>
<text text-anchor="middle" x="2857.62" y="-496.3" font-family="Times,serif" font-size="14.00">[&quot;allowed&quot;]</text>
</g>
<!-- 9470 -->
<g id="node12" class="node">
<title>9470</title>
<ellipse fill="none" stroke="#e09d4b" cx="2799.04" cy="-936.4" rx="157.15" ry="28.99"/>
<text text-anchor="middle" x="2799.04" y="-939.6" font-family="Times,serif" font-size="14.00" fill="gray">FedoraEntry</text>
<text text-anchor="middle" x="2799.04" y="-923.1" font-family="Times,serif" font-size="14.00" fill="gray">58f2623c4eb49f370a4ab845a318c0e7</text>
</g>
<!-- 6592&#45;&gt;9470 -->
<g id="edge21" class="edge">
<title>6592&#45;&gt;9470</title>
<path fill="none" stroke="#e09d4b" d="M2861.08,-519C2886.17,-647.63 2884.41,-664.03 2811.58,-896.43"/>
<polygon fill="#e09d4b" stroke="#e09d4b" points="2808.28,-895.26 2808.63,-905.85 2814.96,-897.36 2808.28,-895.26"/>
</g>
<!-- 6593 -->
<g id="node11" class="node">
<title>6593</title>
<text text-anchor="start" x="2856.98" y="-103.27" font-family="Times,serif" font-size="14.00">Fedora: </text>
<text text-anchor="start" x="2901.98" y="-103.27" font-family="Times,serif" font-weight="bold" font-size="14.00" fill="#228b22">allowed</text>
<text text-anchor="start" x="2693.11" y="-89.27" font-family="Times,serif" font-size="14.00">A license is allowed if Fedora determines that the license is a free software /</text>
<text text-anchor="start" x="2687.86" y="-75.27" font-family="Times,serif" font-size="14.00">open source license. At a high level, the inquiry involves determining whether</text>
<text text-anchor="start" x="2686.73" y="-61.27" font-family="Times,serif" font-size="14.00">the license provides software freedom, and (equivalently) making sure that the</text>
<text text-anchor="start" x="2696.86" y="-47.27" font-family="Times,serif" font-size="14.00">license does not place burdens on users&#39; exercise of its permissions that are</text>
<text text-anchor="start" x="2696.48" y="-33.27" font-family="Times,serif" font-size="14.00">inconsistent with evolving community norms and traditions around what is</text>
<text text-anchor="start" x="2688.23" y="-19.27" font-family="Times,serif" font-size="14.00">acceptable in a free software / open source license. See below for more on the</text>
<text text-anchor="start" x="2808.23" y="-5.27" font-family="Times,serif" font-size="14.00">history of Fedora licensing policy.</text>
</g>
<!-- 6593&#45;&gt;6592 -->
<g id="edge22" class="edge">
<title>6593&#45;&gt;6592</title>
<path fill="none" stroke="#e09d4b" d="M2911.79,-119.41C2925.34,-209.33 2917.34,-249.02 2864.48,-472.35"/>
<polygon fill="#e09d4b" stroke="#e09d4b" points="2861.1,-471.46 2862.2,-482 2867.91,-473.08 2861.1,-471.46"/>
</g>
<!-- 9470&#45;&gt;9471 -->
<g id="edge23" class="edge">
<title>9470&#45;&gt;9471</title>
<path fill="none" stroke="#e09d4b" d="M2802.41,-965.78C2820.51,-1126.08 2814.12,-1146.08 2684.09,-1394.26"/>
<polygon fill="#e09d4b" stroke="#e09d4b" points="2681.06,-1392.51 2679.51,-1402.99 2687.26,-1395.76 2681.06,-1392.51"/>
</g>
<!-- 10004 -->
<g id="node14" class="node">
<title>10004</title>
<text text-anchor="start" x="3058.55" y="-3102.22" font-family="Times,serif" font-size="14.00">BlueOakCouncil: </text>
<text text-anchor="start" x="3156.8" y="-3102.22" font-family="Times,serif" font-weight="bold" font-size="14.00" fill="#000000">Bronze</text>
<text text-anchor="start" x="2921.3" y="-3088.22" font-family="Times,serif" font-size="14.00">These licenses lack important but nonessential elements of permissive open</text>
<text text-anchor="start" x="2923.17" y="-3074.22" font-family="Times,serif" font-size="14.00">software licenses or impose additional requirements or restrictions, such as</text>
<text text-anchor="start" x="2964.05" y="-3060.22" font-family="Times,serif" font-size="14.00">BSD&#45;style prohibitions against endorsement and promotion.</text>
</g>
<!-- 10004&#45;&gt;10341 -->
<g id="edge24" class="edge">
<title>10004&#45;&gt;10341</title>
<path fill="none" stroke="#00876c" d="M3116.6,-3054.92C3070.21,-2930.15 3056.69,-2904.44 2898.5,-2624.78"/>
<polygon fill="#00876c" stroke="#00876c" points="2901.77,-2623.45 2893.8,-2616.47 2895.68,-2626.9 2901.77,-2623.45"/>
</g>
<!-- 10341&#45;&gt;10342 -->
<g id="edge25" class="edge">
<title>10341&#45;&gt;10342</title>
<path fill="none" stroke="#00876c" d="M2881.7,-2556.79C2907.14,-2412.39 2902.52,-2390.81 2808.85,-2120.13"/>
<polygon fill="#00876c" stroke="#00876c" points="2812.26,-2119.3 2805.69,-2111 2805.65,-2121.59 2812.26,-2119.3"/>
</g>
<!-- 10343 -->
<g id="node17" class="node">
<title>10343</title>
<text text-anchor="middle" x="3174.82" y="-2857.9" font-family="Times,serif" font-size="14.00">https://spdx.org/licenses/xlock</text>
</g>
<!-- 10343&#45;&gt;10341 -->
<g id="edge26" class="edge">
<title>10343&#45;&gt;10341</title>
<path fill="none" stroke="#00876c" d="M3152.23,-2845.27C3081.65,-2789.82 3063.3,-2772.54 2912.99,-2622.37"/>
<polygon fill="#00876c" stroke="#00876c" points="2915.88,-2620.31 2906.33,-2615.72 2910.93,-2625.26 2915.88,-2620.31"/>
</g>
<!-- 18726 -->
<g id="node18" class="node">
<title>18726</title>
<text text-anchor="middle" x="2045.3" y="-3021.52" font-family="Times,serif" font-size="14.00">http://web.mit.edu/tex/fontutil/fontutils&#45;0.6/pbm/libpbm1.c</text>
</g>
<!-- 18726&#45;&gt;20212 -->
<g id="edge27" class="edge">
<title>18726&#45;&gt;20212</title>
<path fill="none" stroke="#deb256" d="M2044.83,-3008.73C2041.3,-2873.43 2041.1,-2855.28 2039.73,-2540"/>
<polygon fill="#deb256" stroke="#deb256" points="2043.23,-2540.16 2039.69,-2530.17 2036.23,-2540.19 2043.23,-2540.16"/>
</g>
<!-- 20212&#45;&gt;20213 -->
<g id="edge28" class="edge">
<title>20212&#45;&gt;20213</title>
<path fill="none" stroke="#deb256" d="M2040.84,-2470.2C2046.09,-2350.34 2046.84,-2325.16 2054.79,-2027.02"/>
<polygon fill="#deb256" stroke="#deb256" points="2058.28,-2027.45 2055.05,-2017.36 2051.29,-2027.26 2058.28,-2027.45"/>
</g>
<!-- 20213&#45;&gt;5462 -->
<g id="edge29" class="edge">
<title>20213&#45;&gt;5462</title>
<path fill="none" stroke="#00876c" stroke-width="2" d="M2080.92,-1971.19C2140.16,-1911.55 2287.15,-1749.1 2346.62,-1677.8"/>
<polygon fill="#00876c" stroke="#00876c" stroke-width="2" points="2351.87,-1671.44 2348.97,-1682.02 2350.62,-1673.74 2345.88,-1679.47 2345.5,-1679.15 2345.11,-1678.83 2349.85,-1673.1 2342.03,-1676.28 2351.87,-1671.44"/>
</g>
<!-- 55488 -->
<g id="node40" class="node">
<title>55488</title>
<polygon fill="none" stroke="#379469" points="1846.11,-2123.09 1846.11,-2138 1771.69,-2148.55 1666.44,-2148.55 1592.02,-2138 1592.02,-2123.09 1666.44,-2112.55 1771.69,-2112.55 1846.11,-2123.09"/>
<text text-anchor="middle" x="1719.07" y="-2125.5" font-family="Times,serif" font-size="14.00">metaeffekt:PT&#45;PBM&#45;Library</text>
</g>
<!-- 20213&#45;&gt;55488 -->
<g id="edge30" class="edge">
<title>20213&#45;&gt;55488</title>
<path fill="none" stroke="#379469" stroke-dasharray="5,2" d="M2024.42,-2016.01C1938.45,-2077.47 1896.2,-2106.06 1854.59,-2119.3"/>
<polygon fill="#379469" stroke="#379469" points="1845.17,-2122.01 1853.53,-2114.92 1848.8,-2120.96 1854.78,-2119.25 1854.78,-2119.25 1854.78,-2119.25 1848.8,-2120.96 1856.02,-2123.57 1845.17,-2122.01"/>
</g>
<!-- 20214 -->
<g id="node21" class="node">
<title>20214</title>
<polygon fill="none" stroke="black" points="2020.7,-2230.61 2020.7,-2245.52 1996.9,-2256.06 1963.25,-2256.06 1939.45,-2245.52 1939.45,-2230.61 1963.25,-2220.06 1996.9,-2220.06 2020.7,-2230.61"/>
<polygon fill="none" stroke="black" points="2024.7,-2228 2024.7,-2248.12 1997.75,-2260.06 1962.4,-2260.06 1935.45,-2248.12 1935.45,-2228 1962.4,-2216.06 1997.75,-2216.06 2024.7,-2228"/>
<text text-anchor="middle" x="1980.07" y="-2233.01" font-family="Times,serif" font-size="14.00">libpbm</text>
</g>
<!-- 20214&#45;&gt;20213 -->
<g id="edge31" class="edge">
<title>20214&#45;&gt;20213</title>
<path fill="none" stroke="black" stroke-width="2" d="M1990.81,-2215.58C2013.01,-2168.43 2018.37,-2149.53 2047.82,-2026.52"/>
<polygon fill="black" stroke="black" stroke-width="2" points="2049.79,-2018.27 2051.84,-2029.04 2049.68,-2020.87 2047.95,-2028.11 2047.47,-2027.99 2046.98,-2027.87 2048.71,-2020.64 2043.09,-2026.94 2049.79,-2018.27"/>
</g>
<!-- 20215 -->
<g id="node22" class="node">
<title>20215</title>
<polygon fill="none" stroke="black" points="1773.47,-1824.65 1773.47,-1839.57 1714.95,-1850.11 1632.19,-1850.11 1573.67,-1839.57 1573.67,-1824.65 1632.19,-1814.11 1714.95,-1814.11 1773.47,-1824.65"/>
<polygon fill="none" stroke="black" points="1777.47,-1821.31 1777.47,-1842.91 1715.31,-1854.11 1631.84,-1854.11 1569.67,-1842.91 1569.67,-1821.31 1631.84,-1810.11 1715.31,-1810.11 1777.47,-1821.31"/>
<text text-anchor="middle" x="1673.57" y="-1827.06" font-family="Times,serif" font-size="14.00">PBM Library License</text>
</g>
<!-- 20215&#45;&gt;20213 -->
<g id="edge32" class="edge">
<title>20215&#45;&gt;20213</title>
<path fill="none" stroke="#deb256" stroke-width="2" d="M1695.52,-1854.35C1803.46,-1963.42 1829.46,-1982.22 1960.44,-1989.74"/>
<polygon fill="#deb256" stroke="#deb256" stroke-width="2" points="1968.88,-1990.19 1958.65,-1994.15 1966.29,-1990.55 1958.87,-1990.15 1958.89,-1989.65 1958.92,-1989.15 1966.35,-1989.56 1959.14,-1985.16 1968.88,-1990.19"/>
</g>
<!-- 20215&#45;&gt;55488 -->
<g id="edge33" class="edge">
<title>20215&#45;&gt;55488</title>
<path fill="none" stroke="#379469" stroke-dasharray="5,2" d="M1671.7,-1854.36C1658.66,-2009.74 1659.23,-2028.75 1702.6,-2102.89"/>
<polygon fill="#379469" stroke="#379469" points="1707.49,-2111.17 1698.53,-2104.84 1705.56,-2107.91 1702.4,-2102.55 1702.4,-2102.55 1702.4,-2102.55 1705.56,-2107.91 1706.28,-2100.27 1707.49,-2111.17"/>
</g>
<!-- 74874 -->
<g id="node45" class="node">
<title>74874</title>
<polygon fill="none" stroke="#00876c" points="2140.6,-1639.98 2140.6,-1654.9 2059.04,-1665.44 1943.7,-1665.44 1862.13,-1654.9 1862.13,-1639.98 1943.7,-1629.44 2059.04,-1629.44 2140.6,-1639.98"/>
<polygon fill="none" stroke="#00876c" points="2144.6,-1636.47 2144.6,-1658.41 2059.3,-1669.44 1943.44,-1669.44 1858.13,-1658.41 1858.13,-1636.47 1943.44,-1625.44 2059.3,-1625.44 2144.6,-1636.47"/>
<text text-anchor="middle" x="2001.37" y="-1642.39" font-family="Times,serif" font-size="14.00">scancode:PBM Library License</text>
</g>
<!-- 20215&#45;&gt;74874 -->
<g id="edge34" class="edge">
<title>20215&#45;&gt;74874</title>
<path fill="none" stroke="#00876c" stroke-width="2" d="M1722.69,-1811.12C1781.05,-1785.38 1813.64,-1765.78 1956.98,-1675.44"/>
<polygon fill="#00876c" stroke="#00876c" stroke-width="2" points="1964.07,-1670.97 1958.01,-1680.11 1962.17,-1672.76 1955.87,-1676.72 1955.61,-1676.3 1955.34,-1675.88 1961.63,-1671.91 1953.21,-1672.49 1964.07,-1670.97"/>
</g>
<!-- 20216 -->
<g id="node23" class="node">
<title>20216</title>
<text text-anchor="middle" x="2028.23" y="-2549.31" font-family="Times,serif" font-size="14.00">http://web.mit.edu/tex/fontutil/fontutils&#45;0.6/pbm/libpbm1.c</text>
</g>
<!-- 20216&#45;&gt;20212 -->
<g id="edge35" class="edge">
<title>20216&#45;&gt;20212</title>
<path fill="none" stroke="#deb256" d="M2033.43,-2536.53C2033.46,-2536.39 2033.49,-2536.25 2033.52,-2536.1"/>
<polygon fill="#deb256" stroke="#deb256" points="2036.25,-2540.48 2034.68,-2530.01 2029.37,-2539.18 2036.25,-2540.48"/>
</g>
<!-- 20217 -->
<g id="node24" class="node">
<title>20217</title>
<text text-anchor="middle" x="1668" y="-2977.48" font-family="Times,serif" font-size="14.00">http://sourceforge.net/p/netpbm/code/HEAD/tree/trunk/doc/COPYRIGHT.PATENT</text>
</g>
<!-- 20217&#45;&gt;20212 -->
<g id="edge36" class="edge">
<title>20217&#45;&gt;20212</title>
<path fill="none" stroke="#deb256" d="M1692.36,-2964.58C1828.12,-2864.21 1842.8,-2843.88 2017.35,-2538.25"/>
<polygon fill="#deb256" stroke="#deb256" points="2020.15,-2540.39 2022.07,-2529.97 2014.07,-2536.92 2020.15,-2540.39"/>
</g>
<!-- 20218 -->
<g id="node25" class="node">
<title>20218</title>
<text text-anchor="middle" x="1918.39" y="-2829.87" font-family="Times,serif" font-size="14.00">$TEXT</text>
</g>
<!-- 20218&#45;&gt;20212 -->
<g id="edge37" class="edge">
<title>20218&#45;&gt;20212</title>
<path fill="none" stroke="#deb256" d="M1928.61,-2817.1C1971.34,-2742.36 1977.57,-2724.8 2028.53,-2539.48"/>
<polygon fill="#deb256" stroke="#deb256" points="2031.87,-2540.53 2031.15,-2529.96 2025.12,-2538.67 2031.87,-2540.53"/>
</g>
<!-- 35432 -->
<g id="node26" class="node">
<title>35432</title>
<text text-anchor="middle" x="2903.03" y="-696.13" font-family="Times,serif" font-size="14.00">LicenseTag (ScopedLicenseTag &quot;OrtLicenseCategorization&quot; &quot;permissive&quot; NoLicenseTagText)</text>
</g>
<!-- 37737 -->
<g id="node28" class="node">
<title>37737</title>
<ellipse fill="none" stroke="#d43d51" cx="2469.35" cy="-475.05" rx="162.46" ry="28.99"/>
<text text-anchor="middle" x="2469.35" y="-478.25" font-family="Times,serif" font-size="14.00" fill="gray">OrtLicenseCategorization</text>
<text text-anchor="middle" x="2469.35" y="-461.75" font-family="Times,serif" font-size="14.00" fill="gray">29790094e5cd8a241d8630b076713707</text>
</g>
<!-- 35432&#45;&gt;37737 -->
<g id="edge38" class="edge">
<title>35432&#45;&gt;37737</title>
<path fill="none" stroke="#d43d51" d="M2888.15,-683.45C2773.34,-546.74 2742.12,-514.79 2614.25,-493.61"/>
<polygon fill="#d43d51" stroke="#d43d51" points="2615.16,-490.21 2604.73,-492.08 2614.05,-497.12 2615.16,-490.21"/>
</g>
<!-- 39994 -->
<g id="node31" class="node">
<title>39994</title>
<ellipse fill="none" stroke="#d43d51" cx="2685.38" cy="-1253.39" rx="154.5" ry="28.99"/>
<text text-anchor="middle" x="2685.38" y="-1256.59" font-family="Times,serif" font-size="14.00" fill="gray">OrtLicenseCategorization</text>
<text text-anchor="middle" x="2685.38" y="-1240.09" font-family="Times,serif" font-size="14.00" fill="gray">99c5661f30b0227ec1e5cbe8dfecfe06</text>
</g>
<!-- 35432&#45;&gt;39994 -->
<g id="edge39" class="edge">
<title>35432&#45;&gt;39994</title>
<path fill="none" stroke="#d43d51" d="M2901.65,-719.03C2887.76,-896.68 2881.74,-913.21 2707.83,-1214.5"/>
<polygon fill="#d43d51" stroke="#d43d51" points="2704.84,-1212.7 2702.87,-1223.11 2710.9,-1216.2 2704.84,-1212.7"/>
</g>
<!-- 35433 -->
<g id="node27" class="node">
<title>35433</title>
<text text-anchor="middle" x="3061.15" y="-740.16" font-family="Times,serif" font-size="14.00">LicenseTag (ScopedLicenseTag &quot;OrtLicenseCategorization&quot; &quot;include&#45;in&#45;notice&#45;file&quot; NoLicenseTagText)</text>
</g>
<!-- 35433&#45;&gt;37737 -->
<g id="edge40" class="edge">
<title>35433&#45;&gt;37737</title>
<path fill="none" stroke="#d43d51" d="M3044.94,-727.44C2877.21,-543.54 2842.29,-511.72 2627.16,-489.06"/>
<polygon fill="#d43d51" stroke="#d43d51" points="2627.58,-485.59 2617.28,-488.04 2626.87,-492.55 2627.58,-485.59"/>
</g>
<!-- 35433&#45;&gt;39994 -->
<g id="edge41" class="edge">
<title>35433&#45;&gt;39994</title>
<path fill="none" stroke="#d43d51" d="M3052.96,-763.06C2980.27,-921.34 2968.54,-937.61 2718.9,-1216.02"/>
<polygon fill="#d43d51" stroke="#d43d51" points="2716.52,-1213.43 2712.45,-1223.21 2721.73,-1218.1 2716.52,-1213.43"/>
</g>
<!-- 37738 -->
<g id="node29" class="node">
<title>37738</title>
<polygon fill="none" stroke="black" points="2161.96,-715.59 2161.96,-730.51 2069.69,-741.05 1939.2,-741.05 1846.93,-730.51 1846.93,-715.59 1939.2,-705.05 2069.69,-705.05 2161.96,-715.59"/>
<polygon fill="none" stroke="black" points="2165.96,-712.03 2165.96,-734.08 2069.92,-745.05 1938.97,-745.05 1842.93,-734.08 1842.93,-712.03 1938.97,-701.05 2069.92,-701.05 2165.96,-712.03"/>
<text text-anchor="middle" x="2004.45" y="-718" font-family="Times,serif" font-size="14.00">SPDX:LicenseRef&#45;scancode&#45;libpbm</text>
</g>
<!-- 37737&#45;&gt;37738 -->
<g id="edge42" class="edge">
<title>37737&#45;&gt;37738</title>
<path fill="none" stroke="#d43d51" d="M2335.57,-491.72C2244.44,-510.4 2195.47,-550.7 2037.39,-693.29"/>
<polygon fill="#d43d51" stroke="#d43d51" points="2035.5,-690.29 2030.42,-699.59 2040.19,-695.49 2035.5,-690.29"/>
</g>
<!-- 37739 -->
<g id="node30" class="node">
<title>37739</title>
<polygon fill="none" stroke="black" points="2465.17,-722.94 2465.17,-737.85 2389.45,-748.4 2282.37,-748.4 2206.65,-737.85 2206.65,-722.94 2282.37,-712.4 2389.45,-712.4 2465.17,-722.94"/>
<polygon fill="none" stroke="black" points="2469.17,-719.46 2469.17,-741.34 2389.73,-752.4 2282.09,-752.4 2202.65,-741.34 2202.65,-719.46 2282.09,-708.4 2389.73,-708.4 2469.17,-719.46"/>
<text text-anchor="middle" x="2335.91" y="-725.35" font-family="Times,serif" font-size="14.00">LicenseRef&#45;scancode&#45;libpbm</text>
</g>
<!-- 37739&#45;&gt;37738 -->
<g id="edge43" class="edge">
<title>37739&#45;&gt;37738</title>
<path fill="none" stroke="black" stroke-width="2" d="M2284.53,-707.93C2197.14,-670.75 2168.09,-668.02 2079.17,-697.1"/>
<polygon fill="black" stroke="black" stroke-width="2" points="2070.93,-699.84 2079.01,-692.42 2073.21,-698.55 2080.27,-696.21 2080.42,-696.69 2080.58,-697.16 2073.52,-699.5 2081.84,-700.96 2070.93,-699.84"/>
</g>
<!-- 74873 -->
<g id="node44" class="node">
<title>74873</title>
<polygon fill="none" stroke="#00876c" points="2612.88,-1185.65 2612.88,-1200.57 2514.12,-1211.11 2374.45,-1211.11 2275.69,-1200.57 2275.69,-1185.65 2374.45,-1175.11 2514.12,-1175.11 2612.88,-1185.65"/>
<polygon fill="none" stroke="#00876c" points="2616.88,-1182.06 2616.88,-1204.16 2514.33,-1215.11 2374.24,-1215.11 2271.69,-1204.16 2271.69,-1182.06 2374.24,-1171.11 2514.33,-1171.11 2616.88,-1182.06"/>
<text text-anchor="middle" x="2444.28" y="-1188.06" font-family="Times,serif" font-size="14.00">scancode:LicenseRef&#45;scancode&#45;libpbm</text>
</g>
<!-- 37739&#45;&gt;74873 -->
<g id="edge44" class="edge">
<title>37739&#45;&gt;74873</title>
<path fill="none" stroke="#00876c" stroke-width="2" d="M2350.98,-752.69C2433.08,-874.69 2436.62,-893.92 2443.44,-1159.77"/>
<polygon fill="#00876c" stroke="#00876c" stroke-width="2" points="2443.66,-1168.53 2438.91,-1158.65 2443.1,-1165.98 2442.91,-1158.55 2443.41,-1158.53 2443.91,-1158.52 2444.1,-1165.95 2447.9,-1158.42 2443.66,-1168.53"/>
</g>
<!-- 39994&#45;&gt;5462 -->
<g id="edge45" class="edge">
<title>39994&#45;&gt;5462</title>
<path fill="none" stroke="#d43d51" d="M2675.36,-1282.4C2628.01,-1418.38 2612.69,-1436.78 2409.58,-1611.36"/>
<polygon fill="#d43d51" stroke="#d43d51" points="2407.47,-1608.55 2402.17,-1617.72 2412.04,-1613.86 2407.47,-1608.55"/>
</g>
<!-- 39999 -->
<g id="node32" class="node">
<title>39999</title>
<text text-anchor="middle" x="1160.1" y="-494.97" font-family="Times,serif" font-size="14.00">LicenseTag (ScopedLicenseTag &quot;OrtLicenseCategorization&quot; &quot;permissive&quot; (LicenseTagDescription &quot;Open source license that is made available under \&quot;non&#45;copyleft\&quot; licenses. These generally require attribution of the included works and may include other obligations.&quot;))</text>
</g>
<!-- 40744 -->
<g id="node35" class="node">
<title>40744</title>
<ellipse fill="none" stroke="#e06f45" cx="1751.12" cy="-1226.44" rx="159.81" ry="28.99"/>
<text text-anchor="middle" x="1751.12" y="-1229.64" font-family="Times,serif" font-size="14.00" fill="gray">OrtLicenseCategorization</text>
<text text-anchor="middle" x="1751.12" y="-1213.14" font-family="Times,serif" font-size="14.00" fill="gray">84378c8a0e202214530e2960f95d05a9</text>
</g>
<!-- 39999&#45;&gt;40744 -->
<g id="edge46" class="edge">
<title>39999&#45;&gt;40744</title>
<path fill="none" stroke="#e06f45" d="M1174.16,-518.01C1329.32,-716.53 1344.12,-734.69 1719.94,-1188.77"/>
<polygon fill="#e06f45" stroke="#e06f45" points="1717.15,-1190.89 1726.22,-1196.36 1722.54,-1186.43 1717.15,-1190.89"/>
</g>
<!-- 40968 -->
<g id="node36" class="node">
<title>40968</title>
<ellipse fill="none" stroke="#e06f45" cx="1863.01" cy="-1337.01" rx="157.15" ry="28.99"/>
<text text-anchor="middle" x="1863.01" y="-1340.21" font-family="Times,serif" font-size="14.00" fill="gray">OrtLicenseCategorization</text>
<text text-anchor="middle" x="1863.01" y="-1323.71" font-family="Times,serif" font-size="14.00" fill="gray">bd9dfef3c78952e5602112f9684336a7</text>
</g>
<!-- 39999&#45;&gt;40968 -->
<g id="edge47" class="edge">
<title>39999&#45;&gt;40968</title>
<path fill="none" stroke="#e06f45" d="M1174.81,-517.69C1365.8,-747.12 1381.08,-765.31 1831.4,-1299.52"/>
<polygon fill="#e06f45" stroke="#e06f45" points="1828.64,-1301.67 1837.76,-1307.06 1833.99,-1297.16 1828.64,-1301.67"/>
</g>
<!-- 40001 -->
<g id="node33" class="node">
<title>40001</title>
<text text-anchor="middle" x="826.05" y="-783.25" font-family="Times,serif" font-size="14.00">LicenseTag (ScopedLicenseTag &quot;OrtLicenseCategorization&quot; &quot;property:include&#45;in&#45;notice&#45;file&quot; (LicenseTagDescription &quot;Whether the license includes a notice obligation or similar which can be fulfilled by adding the relevant copyright notices and the license text into the project/product notice file.&quot;))</text>
</g>
<!-- 40001&#45;&gt;40744 -->
<g id="edge48" class="edge">
<title>40001&#45;&gt;40744</title>
<path fill="none" stroke="#e06f45" d="M879.12,-806.18C1116.03,-886.29 1159.29,-907.87 1689.71,-1193.38"/>
<polygon fill="#e06f45" stroke="#e06f45" points="1687.74,-1196.3 1698.21,-1197.96 1691.06,-1190.13 1687.74,-1196.3"/>
</g>
<!-- 40001&#45;&gt;40968 -->
<g id="edge49" class="edge">
<title>40001&#45;&gt;40968</title>
<path fill="none" stroke="#e06f45" d="M867.66,-806.2C1145.06,-925.63 1181.66,-945.48 1804.72,-1303.51"/>
<polygon fill="#e06f45" stroke="#e06f45" points="1802.67,-1306.37 1813.08,-1308.32 1806.16,-1300.3 1802.67,-1306.37"/>
</g>
<!-- 40002 -->
<g id="node34" class="node">
<title>40002</title>
<text text-anchor="middle" x="1731.86" y="-1276.42" font-family="Times,serif" font-size="14.00">LicenseTag (ScopedLicenseTag &quot;OrtLicenseCategorization&quot; &quot;include&#45;in&#45;notice&#45;file&quot; (LicenseTagDescription &quot;Same as above, as a temporary work&#45;around for the category name not being configurable in ORT reports, see https://github.com/oss&#45;review&#45;toolkit/ort/issues/8220.&quot;))</text>
</g>
<!-- 40002&#45;&gt;40744 -->
<g id="edge50" class="edge">
<title>40002&#45;&gt;40744</title>
<path fill="none" stroke="#e06f45" d="M1732.63,-1263.71C1732.64,-1263.61 1732.64,-1263.52 1732.65,-1263.42"/>
<polygon fill="#e06f45" stroke="#e06f45" points="1735.77,-1267.45 1733.27,-1257.16 1728.8,-1266.77 1735.77,-1267.45"/>
</g>
<!-- 40002&#45;&gt;40968 -->
<g id="edge51" class="edge">
<title>40002&#45;&gt;40968</title>
<path fill="none" stroke="#e06f45" d="M1792.82,-1299.31C1795.71,-1300.71 1798.79,-1302.24 1802.12,-1303.95"/>
<polygon fill="#e06f45" stroke="#e06f45" points="1800.39,-1306.99 1810.87,-1308.52 1803.63,-1300.79 1800.39,-1306.99"/>
</g>
<!-- 40744&#45;&gt;37738 -->
<g id="edge52" class="edge">
<title>40744&#45;&gt;37738</title>
<path fill="none" stroke="#e06f45" d="M1758.73,-1197.25C1838.34,-891.97 1848.07,-865.45 1971.58,-752.78"/>
<polygon fill="#e06f45" stroke="#e06f45" points="1973.72,-755.57 1978.76,-746.25 1969.01,-750.39 1973.72,-755.57"/>
</g>
<!-- 40968&#45;&gt;5462 -->
<g id="edge53" class="edge">
<title>40968&#45;&gt;5462</title>
<path fill="none" stroke="#e06f45" d="M1971.68,-1358.24C2185.12,-1401.77 2214.53,-1427.53 2346.13,-1607.85"/>
<polygon fill="#e06f45" stroke="#e06f45" points="2343.28,-1609.87 2352,-1615.89 2348.93,-1605.75 2343.28,-1609.87"/>
</g>
<!-- 42959 -->
<g id="node37" class="node">
<title>42959</title>
<ellipse fill="none" stroke="#379469" cx="3423.54" cy="-1627.56" rx="153.44" ry="28.99"/>
<text text-anchor="middle" x="3423.54" y="-1630.76" font-family="Times,serif" font-size="14.00" fill="gray">CavilLicenseChange</text>
<text text-anchor="middle" x="3423.54" y="-1614.26" font-family="Times,serif" font-size="14.00" fill="gray">0f4fcf8b809b2a3318ba2a8d65adf38f</text>
</g>
<!-- 42959&#45;&gt;42960 -->
<g id="edge54" class="edge">
<title>42959&#45;&gt;42960</title>
<path fill="none" stroke="#379469" d="M3342.46,-1652.59C3294.29,-1665.06 3246.29,-1670.58 3114.35,-1682.8"/>
<polygon fill="#379469" stroke="#379469" points="3114.16,-1679.31 3104.52,-1683.71 3114.8,-1686.28 3114.16,-1679.31"/>
</g>
<!-- 43136 -->
<g id="node39" class="node">
<title>43136</title>
<text text-anchor="start" x="3808.92" y="-2071.67" font-family="Times,serif" font-size="14.00">CoDEStatus: </text>
<text text-anchor="start" x="3883.17" y="-2071.67" font-family="Times,serif" font-weight="bold" font-size="14.00" fill="#228b22">Approved</text>
<text text-anchor="start" x="3661.54" y="-2057.67" font-family="Times,serif" font-size="14.00">Eine Lizenz ist freigegeben, wenn sie nach fachlicher und juristischer Prüfung</text>
<text text-anchor="start" x="3643.54" y="-2043.67" font-family="Times,serif" font-size="14.00">seitens Open CoDE sowohl der Open Source Definition (gemäß Definition der Open</text>
<text text-anchor="start" x="3685.54" y="-2029.67" font-family="Times,serif" font-size="14.00">Source Initiative [extern]) entspricht und darüber hinaus keine für die</text>
<text text-anchor="start" x="3688.54" y="-2015.67" font-family="Times,serif" font-size="14.00">Öffentliche Verwaltung erkennbaren Schwierigkeiten birgt. Außer in</text>
<text text-anchor="start" x="3673.54" y="-2001.67" font-family="Times,serif" font-size="14.00">Ausnahmefällen ist nicht zu erwarten, dass einmal freigegebene Lizenzen</text>
<text text-anchor="start" x="3813.42" y="-1987.67" font-family="Times,serif" font-size="14.00">deklassifiziert werden.</text>
</g>
<!-- 58952 -->
<g id="node41" class="node">
<title>58952</title>
<ellipse fill="none" stroke="#379469" cx="3309.41" cy="-1912.24" rx="156.09" ry="28.99"/>
<text text-anchor="middle" x="3309.41" y="-1915.44" font-family="Times,serif" font-size="14.00" fill="gray">MetaeffektLicense</text>
<text text-anchor="middle" x="3309.41" y="-1898.94" font-family="Times,serif" font-size="14.00" fill="gray">dca89ae9de326b7f0a98a66de634ad2f</text>
</g>
<!-- 43136&#45;&gt;58952 -->
<g id="edge55" class="edge">
<title>43136&#45;&gt;58952</title>
<path fill="none" stroke="#379469" d="M3635.72,-1987.34C3584.53,-1975.92 3517.89,-1960.57 3419.02,-1937.66"/>
<polygon fill="#379469" stroke="#379469" points="3420.09,-1934.32 3409.56,-1935.47 3418.51,-1941.14 3420.09,-1934.32"/>
</g>
<!-- 58952&#45;&gt;58953 -->
<g id="edge56" class="edge">
<title>58952&#45;&gt;58953</title>
<path fill="none" stroke="#379469" d="M3219.21,-1888.14C3148.43,-1869.13 3089.78,-1852.98 2893.97,-1798.87"/>
<polygon fill="#379469" stroke="#379469" points="2895.05,-1795.54 2884.48,-1796.25 2893.19,-1802.28 2895.05,-1795.54"/>
</g>
<!-- 74872 -->
<g id="node43" class="node">
<title>74872</title>
<ellipse fill="none" stroke="#00876c" cx="2472.45" cy="-1336.49" rx="161.4" ry="28.99"/>
<text text-anchor="middle" x="2472.45" y="-1339.69" font-family="Times,serif" font-size="14.00" fill="gray">LicenseLynx</text>
<text text-anchor="middle" x="2472.45" y="-1323.19" font-family="Times,serif" font-size="14.00" fill="gray">51517c9c21281d69121351f474784109</text>
</g>
<!-- 74872&#45;&gt;5462 -->
<g id="edge57" class="edge">
<title>74872&#45;&gt;5462</title>
<path fill="none" stroke="#00876c" d="M2475.15,-1365.77C2484.28,-1469.41 2478.48,-1487.62 2396.45,-1607.97"/>
<polygon fill="#00876c" stroke="#00876c" points="2393.75,-1605.72 2391,-1615.95 2399.53,-1609.66 2393.75,-1605.72"/>
</g>
<!-- 74873&#45;&gt;5462 -->
<g id="edge58" class="edge">
<title>74873&#45;&gt;5462</title>
<path fill="none" stroke="#00876c" stroke-width="2" d="M2449.94,-1215.44C2490.45,-1376.05 2488.3,-1393.35 2389.02,-1607.15"/>
<polygon fill="#00876c" stroke="#00876c" stroke-width="2" points="2385.4,-1614.94 2385.54,-1603.98 2386.03,-1612.41 2389.16,-1605.66 2389.62,-1605.87 2390.07,-1606.08 2386.94,-1612.83 2393.7,-1607.77 2385.4,-1614.94"/>
</g>
<!-- 74874&#45;&gt;5462 -->
<g id="edge59" class="edge">
<title>74874&#45;&gt;5462</title>
<path fill="none" stroke="#00876c" stroke-width="2" d="M2106.75,-1663.78C2217.3,-1680.11 2253.72,-1680.54 2310.11,-1664.08"/>
<polygon fill="#00876c" stroke="#00876c" stroke-width="2" points="2318.18,-1661.64 2309.91,-1668.85 2315.87,-1662.86 2308.75,-1665.02 2308.61,-1664.54 2308.46,-1664.06 2315.58,-1661.91 2307.3,-1660.23 2318.18,-1661.64"/>
</g>
<!-- 74875&#45;&gt;5462 -->
<g id="edge60" class="edge">
<title>74875&#45;&gt;5462</title>
<path fill="none" stroke="#00876c" stroke-width="2" d="M2402.54,-1884.39C2425.33,-1810.51 2424.05,-1794.28 2384.85,-1680.34"/>
<polygon fill="#00876c" stroke="#00876c" stroke-width="2" points="2381.99,-1672.06 2389.5,-1680.04 2383.3,-1674.32 2385.72,-1681.35 2385.25,-1681.51 2384.78,-1681.68 2382.35,-1674.65 2381,-1682.98 2381.99,-1672.06"/>
</g>
</g>
</svg>
