<?xml version="1.0" encoding="UTF-8" standalone="no"?>
<!DOCTYPE svg PUBLIC "-//W3C//DTD SVG 1.1//EN"
 "http://www.w3.org/Graphics/SVG/1.1/DTD/svg11.dtd">
<!-- Generated by graphviz version 10.0.1 (0)
 -->
<!-- Pages: 1 -->
<svg width="2079pt" height="1849pt"
 viewBox="0.00 0.00 2079.00 1849.00" xmlns="http://www.w3.org/2000/svg" xmlns:xlink="http://www.w3.org/1999/xlink">
<g id="graph0" class="graph" transform="scale(1 1) rotate(0) translate(4 1845)">
<polygon fill="white" stroke="none" points="-4,4 -4,-1845 2075,-1845 2075,4 -4,4"/>
<!-- 5 -->
<g id="node1" class="node">
<title>5</title>
<text text-anchor="start" x="1114.46" y="-318.31" font-family="Times,serif" font-size="14.00">OSI: </text>
<text text-anchor="start" x="1143.71" y="-318.31" font-family="Times,serif" font-weight="bold" font-size="14.00" fill="#8b0000">Rejected</text>
</g>
<!-- 4987 -->
<g id="node2" class="node">
<title>4987</title>
<ellipse fill="none" stroke="#dac767" cx="958.85" cy="-614.42" rx="160.34" ry="28.99"/>
<text text-anchor="middle" x="958.85" y="-617.62" font-family="Times,serif" font-size="14.00" fill="gray">SPDXLicense</text>
<text text-anchor="middle" x="958.85" y="-601.12" font-family="Times,serif" font-size="14.00" fill="gray">6bdbd32986cbd2f035a0b798a68b18ed</text>
</g>
<!-- 5&#45;&gt;4987 -->
<g id="edge1" class="edge">
<title>5&#45;&gt;4987</title>
<path fill="none" stroke="#dac767" d="M1132.3,-340.03C1064.3,-395.46 1052.76,-413.76 977.37,-574.79"/>
<polygon fill="#dac767" stroke="#dac767" points="974.26,-573.18 973.19,-583.72 980.6,-576.14 974.26,-573.18"/>
</g>
<!-- 4988 -->
<g id="node3" class="node">
<title>4988</title>
<polygon fill="none" stroke="black" points="906.3,-1014.77 906.3,-1029.68 874.07,-1040.22 828.48,-1040.22 796.24,-1029.68 796.24,-1014.77 828.48,-1004.22 874.07,-1004.22 906.3,-1014.77"/>
<polygon fill="none" stroke="black" points="910.3,-1011.87 910.3,-1032.58 874.7,-1044.22 827.84,-1044.22 792.24,-1032.58 792.24,-1011.87 827.84,-1000.22 874.7,-1000.22 910.3,-1011.87"/>
<polygon fill="none" stroke="black" points="914.3,-1008.97 914.3,-1035.48 875.34,-1048.22 827.2,-1048.22 788.24,-1035.48 788.24,-1008.97 827.2,-996.22 875.34,-996.22 914.3,-1008.97"/>
<text text-anchor="middle" x="851.27" y="-1017.17" font-family="Times,serif" font-size="14.00">spdx:Zeeff</text>
</g>
<!-- 4987&#45;&gt;4988 -->
<g id="edge2" class="edge">
<title>4987&#45;&gt;4988</title>
<path fill="none" stroke="#dac767" d="M935.85,-643.57C844.11,-760.63 839.73,-781.66 849.43,-984.54"/>
<polygon fill="#dac767" stroke="#dac767" points="845.93,-984.6 849.91,-994.42 852.92,-984.26 845.93,-984.6"/>
</g>
<!-- 9374 -->
<g id="node13" class="node">
<title>9374</title>
<polygon fill="none" stroke="#e09d4b" points="710.33,-897.96 710.33,-912.87 672.9,-923.42 619.97,-923.42 582.55,-912.87 582.55,-897.96 619.97,-887.42 672.9,-887.42 710.33,-897.96"/>
<polygon fill="none" stroke="#e09d4b" points="714.33,-894.93 714.33,-915.9 673.46,-927.42 619.42,-927.42 578.55,-915.9 578.55,-894.93 619.42,-883.42 673.46,-883.42 714.33,-894.93"/>
<text text-anchor="middle" x="646.44" y="-900.37" font-family="Times,serif" font-size="14.00">Fedora:Zeeff</text>
</g>
<!-- 4988&#45;&gt;9374 -->
<g id="edge3" class="edge">
<title>4988&#45;&gt;9374</title>
<path fill="none" stroke="#e09d4b" stroke-width="2" d="M800.29,-1004.55C722.57,-977.24 701.97,-966.81 673.23,-936.04"/>
<polygon fill="#e09d4b" stroke="#e09d4b" stroke-width="2" points="667.34,-929.56 677.4,-933.93 669.44,-931.12 674.44,-936.62 674.07,-936.96 673.7,-937.29 668.7,-931.79 670.73,-939.98 667.34,-929.56"/>
</g>
<!-- 28393 -->
<g id="node15" class="node">
<title>28393</title>
<polygon fill="none" stroke="black" points="1075.38,-1226.81 1075.38,-1241.72 1033.73,-1252.27 974.83,-1252.27 933.19,-1241.72 933.19,-1226.81 974.83,-1216.27 1033.73,-1216.27 1075.38,-1226.81"/>
<polygon fill="none" stroke="black" points="1079.38,-1223.7 1079.38,-1244.84 1034.23,-1256.27 974.34,-1256.27 929.19,-1244.84 929.19,-1223.7 974.34,-1212.27 1034.23,-1212.27 1079.38,-1223.7"/>
<text text-anchor="middle" x="1004.28" y="-1229.22" font-family="Times,serif" font-size="14.00">scancode:zeeff</text>
</g>
<!-- 4988&#45;&gt;28393 -->
<g id="edge4" class="edge">
<title>4988&#45;&gt;28393</title>
<path fill="none" stroke="#deb256" stroke-width="2" d="M864.64,-1048.32C889.44,-1087.56 942.48,-1161.44 975.66,-1203.33"/>
<polygon fill="#deb256" stroke="#deb256" stroke-width="2" points="981.1,-1210.1 971.33,-1205.12 979.1,-1208.42 974.45,-1202.62 974.84,-1202.3 975.23,-1201.99 979.88,-1207.79 978.35,-1199.49 981.1,-1210.1"/>
</g>
<!-- 59245 -->
<g id="node23" class="node">
<title>59245</title>
<polygon fill="none" stroke="#379469" points="910.65,-1387.89 910.65,-1402.8 844.34,-1413.34 750.56,-1413.34 684.26,-1402.8 684.26,-1387.89 750.56,-1377.34 844.34,-1377.34 910.65,-1387.89"/>
<polygon fill="none" stroke="#379469" points="914.65,-1384.47 914.65,-1406.21 844.65,-1417.34 750.25,-1417.34 680.26,-1406.21 680.26,-1384.47 750.25,-1373.34 844.65,-1373.34 914.65,-1384.47"/>
<text text-anchor="middle" x="797.45" y="-1390.29" font-family="Times,serif" font-size="14.00">metaeffekt:Zeeff License</text>
</g>
<!-- 4988&#45;&gt;59245 -->
<g id="edge5" class="edge">
<title>4988&#45;&gt;59245</title>
<path fill="none" stroke="#379469" stroke-width="2" d="M843.71,-1048.42C786.29,-1247.42 780.99,-1271.1 792.85,-1361.86"/>
<polygon fill="#379469" stroke="#379469" stroke-width="2" points="794.02,-1370.55 788.23,-1361.24 793.18,-1368.08 792.19,-1360.71 792.69,-1360.64 793.18,-1360.58 794.17,-1367.95 797.15,-1360.05 794.02,-1370.55"/>
</g>
<!-- 4989 -->
<g id="node4" class="node">
<title>4989</title>
<polygon fill="none" stroke="black" points="750.89,-1177.07 750.89,-1191.98 731.31,-1202.52 703.62,-1202.52 684.04,-1191.98 684.04,-1177.07 703.62,-1166.52 731.31,-1166.52 750.89,-1177.07"/>
<polygon fill="none" stroke="black" points="754.89,-1174.68 754.89,-1194.37 732.32,-1206.52 702.61,-1206.52 680.04,-1194.37 680.04,-1174.68 702.61,-1162.52 732.32,-1162.52 754.89,-1174.68"/>
<text text-anchor="middle" x="717.47" y="-1179.47" font-family="Times,serif" font-size="14.00">Zeeff</text>
</g>
<!-- 4989&#45;&gt;4988 -->
<g id="edge6" class="edge">
<title>4989&#45;&gt;4988</title>
<path fill="none" stroke="black" stroke-width="2" d="M730.68,-1162.1C749.57,-1130.86 761.85,-1116.35 818.95,-1056.18"/>
<polygon fill="black" stroke="black" stroke-width="2" points="824.85,-1049.97 821.23,-1060.32 823.45,-1052.17 818.33,-1057.57 817.97,-1057.22 817.6,-1056.88 822.73,-1051.49 814.7,-1054.12 824.85,-1049.97"/>
</g>
<!-- 4989&#45;&gt;9374 -->
<g id="edge7" class="edge">
<title>4989&#45;&gt;9374</title>
<path fill="none" stroke="#e09d4b" stroke-width="2" d="M701.42,-1162.97C633.63,-1071.47 629.12,-1056.13 642.53,-938.71"/>
<polygon fill="#e09d4b" stroke="#e09d4b" stroke-width="2" points="643.52,-930.22 646.84,-940.67 643.72,-932.82 642.87,-940.21 642.37,-940.15 641.87,-940.1 642.73,-932.71 637.9,-939.64 643.52,-930.22"/>
</g>
<!-- 4989&#45;&gt;28393 -->
<g id="edge8" class="edge">
<title>4989&#45;&gt;28393</title>
<path fill="none" stroke="black" stroke-width="2" d="M742.93,-1201.24C812.34,-1246.34 835.46,-1255.13 917.98,-1245.93"/>
<polygon fill="black" stroke="black" stroke-width="2" points="926.48,-1244.93 917.07,-1250.56 923.99,-1245.72 916.61,-1246.59 916.55,-1246.09 916.49,-1245.6 923.88,-1244.73 916.03,-1241.62 926.48,-1244.93"/>
</g>
<!-- 42976 -->
<g id="node21" class="node">
<title>42976</title>
<polygon fill="none" stroke="#379469" points="523.63,-1349.93 523.63,-1364.84 491.07,-1375.38 445.02,-1375.38 412.47,-1364.84 412.47,-1349.93 445.02,-1339.38 491.07,-1339.38 523.63,-1349.93"/>
<polygon fill="none" stroke="#379469" points="527.63,-1347.02 527.63,-1367.75 491.7,-1379.38 444.39,-1379.38 408.47,-1367.75 408.47,-1347.02 444.39,-1335.38 491.7,-1335.38 527.63,-1347.02"/>
<text text-anchor="middle" x="468.05" y="-1352.33" font-family="Times,serif" font-size="14.00">cavil:Zeeff</text>
</g>
<!-- 4989&#45;&gt;42976 -->
<g id="edge9" class="edge">
<title>4989&#45;&gt;42976</title>
<path fill="none" stroke="#379469" stroke-width="2" d="M693.43,-1201.83C577.82,-1285.09 550.08,-1304.88 508.81,-1331.47"/>
<polygon fill="#379469" stroke="#379469" stroke-width="2" points="501.52,-1336.14 507.51,-1326.96 503.41,-1334.34 509.67,-1330.33 509.94,-1330.75 510.21,-1331.17 503.94,-1335.18 512.36,-1334.54 501.52,-1336.14"/>
</g>
<!-- 4989&#45;&gt;59245 -->
<g id="edge10" class="edge">
<title>4989&#45;&gt;59245</title>
<path fill="none" stroke="#379469" stroke-dasharray="5,2" d="M719.51,-1206.86C728.56,-1304.72 732.56,-1324.77 768.68,-1364.97"/>
<polygon fill="#379469" stroke="#379469" points="775.25,-1372.12 765.17,-1367.8 772.69,-1369.33 768.48,-1364.75 768.48,-1364.75 768.48,-1364.75 772.69,-1369.33 771.8,-1361.71 775.25,-1372.12"/>
</g>
<!-- 4990 -->
<g id="node5" class="node">
<title>4990</title>
<polygon fill="none" stroke="black" points="875.2,-1251.89 875.2,-1266.8 835.82,-1277.34 780.14,-1277.34 740.77,-1266.8 740.77,-1251.89 780.14,-1241.34 835.82,-1241.34 875.2,-1251.89"/>
<polygon fill="none" stroke="black" points="879.2,-1248.82 879.2,-1269.87 836.35,-1281.34 779.62,-1281.34 736.77,-1269.87 736.77,-1248.82 779.62,-1237.34 836.35,-1237.34 879.2,-1248.82"/>
<text text-anchor="middle" x="807.98" y="-1254.29" font-family="Times,serif" font-size="14.00">Zeeff License</text>
</g>
<!-- 4990&#45;&gt;4988 -->
<g id="edge11" class="edge">
<title>4990&#45;&gt;4988</title>
<path fill="none" stroke="#dac767" stroke-width="2" d="M805.04,-1237.09C797.99,-1180.58 801.23,-1164.06 838.23,-1059.06"/>
<polygon fill="#dac767" stroke="#dac767" stroke-width="2" points="841.1,-1050.92 842.02,-1061.85 840.72,-1053.5 838.25,-1060.52 837.77,-1060.35 837.3,-1060.18 839.78,-1053.17 833.53,-1058.85 841.1,-1050.92"/>
</g>
<!-- 4990&#45;&gt;28393 -->
<g id="edge12" class="edge">
<title>4990&#45;&gt;28393</title>
<path fill="none" stroke="#deb256" stroke-width="2" d="M865.75,-1273.92C891.77,-1277.75 911.35,-1273.35 950.33,-1257.44"/>
<polygon fill="#deb256" stroke="#deb256" stroke-width="2" points="958.43,-1254.08 950.92,-1262.07 956.25,-1255.52 949.39,-1258.37 949.19,-1257.91 949,-1257.45 955.87,-1254.6 947.47,-1253.76 958.43,-1254.08"/>
</g>
<!-- 4990&#45;&gt;59245 -->
<g id="edge13" class="edge">
<title>4990&#45;&gt;59245</title>
<path fill="none" stroke="#379469" stroke-width="2" d="M803.45,-1281.48C794.17,-1327.12 791.23,-1344.47 792.41,-1362.27"/>
<polygon fill="#379469" stroke="#379469" stroke-width="2" points="793.31,-1370.6 787.76,-1361.14 792.53,-1368.11 791.74,-1360.71 792.24,-1360.66 792.73,-1360.61 793.53,-1368 796.71,-1360.18 793.31,-1370.6"/>
</g>
<!-- 68757 -->
<g id="node26" class="node">
<title>68757</title>
<polygon fill="none" stroke="#00876c" points="653.89,-1128.27 653.89,-1143.18 601.86,-1153.72 528.28,-1153.72 476.25,-1143.18 476.25,-1128.27 528.28,-1117.72 601.86,-1117.72 653.89,-1128.27"/>
<polygon fill="none" stroke="#00876c" points="657.89,-1125 657.89,-1146.45 602.26,-1157.72 527.88,-1157.72 472.25,-1146.45 472.25,-1125 527.88,-1113.72 602.26,-1113.72 657.89,-1125"/>
<text text-anchor="middle" x="565.07" y="-1130.67" font-family="Times,serif" font-size="14.00">spdx:Zeeff License</text>
</g>
<!-- 4990&#45;&gt;68757 -->
<g id="edge14" class="edge">
<title>4990&#45;&gt;68757</title>
<path fill="none" stroke="#00876c" stroke-width="2" d="M740.06,-1247.44C656.06,-1231.61 636.03,-1219.81 590.79,-1166.67"/>
<polygon fill="#00876c" stroke="#00876c" stroke-width="2" points="585.18,-1160.02 595.07,-1164.76 587.22,-1161.66 592.01,-1167.34 591.63,-1167.66 591.25,-1167.99 586.45,-1162.3 588.19,-1170.56 585.18,-1160.02"/>
</g>
<!-- 4991 -->
<g id="node6" class="node">
<title>4991</title>
<text text-anchor="middle" x="900.59" y="-243.51" font-family="Times,serif" font-size="14.00">$TEXT</text>
</g>
<!-- 4991&#45;&gt;4987 -->
<g id="edge15" class="edge">
<title>4991&#45;&gt;4987</title>
<path fill="none" stroke="#dac767" d="M902.76,-266.34C913.53,-354.39 916.28,-371.65 951.8,-574.2"/>
<polygon fill="#dac767" stroke="#dac767" points="948.3,-574.52 953.47,-583.76 955.19,-573.31 948.3,-574.52"/>
</g>
<!-- 4992 -->
<g id="node7" class="node">
<title>4992</title>
<text text-anchor="middle" x="872.12" y="-67.66" font-family="Times,serif" font-size="14.00">$TEXT</text>
</g>
<!-- 4992&#45;&gt;4991 -->
<g id="edge16" class="edge">
<title>4992&#45;&gt;4991</title>
<path fill="none" stroke="#dac767" d="M874.6,-90.43C879.3,-123.91 881.64,-138.14 895.56,-219.27"/>
<polygon fill="#dac767" stroke="#dac767" points="892.11,-219.85 897.25,-229.12 899.01,-218.67 892.11,-219.85"/>
</g>
<!-- 4993 -->
<g id="node8" class="node">
<title>4993</title>
<text text-anchor="middle" x="1299.08" y="-954.15" font-family="Times,serif" font-size="14.00">ftp://ftp.tin.org/pub/news/utils/newsx/newsx&#45;1.6.tar.gz</text>
</g>
<!-- 4993&#45;&gt;4987 -->
<g id="edge17" class="edge">
<title>4993&#45;&gt;4987</title>
<path fill="none" stroke="#dac767" d="M1290.88,-941.21C1198.07,-737.5 1182.03,-709.56 1033.94,-645.78"/>
<polygon fill="#dac767" stroke="#dac767" points="1035.49,-642.63 1024.92,-641.91 1032.73,-649.06 1035.49,-642.63"/>
</g>
<!-- 28392 -->
<g id="node14" class="node">
<title>28392</title>
<ellipse fill="none" stroke="#deb256" cx="1470.02" cy="-1336.88" rx="158.75" ry="28.99"/>
<text text-anchor="middle" x="1470.02" y="-1340.08" font-family="Times,serif" font-size="14.00" fill="gray">ScancodeData</text>
<text text-anchor="middle" x="1470.02" y="-1323.58" font-family="Times,serif" font-size="14.00" fill="gray">4e80f17b0e458e09535756464f55ebdb</text>
</g>
<!-- 4993&#45;&gt;28392 -->
<g id="edge18" class="edge">
<title>4993&#45;&gt;28392</title>
<path fill="none" stroke="#deb256" d="M1310.8,-976.92C1438.72,-1170.3 1452.7,-1193.84 1465.35,-1296.31"/>
<polygon fill="#deb256" stroke="#deb256" points="1461.84,-1296.48 1466.51,-1306 1468.79,-1295.65 1461.84,-1296.48"/>
</g>
<!-- 5550 -->
<g id="node9" class="node">
<title>5550</title>
<text text-anchor="middle" x="1857.29" y="-1342.85" font-family="Times,serif" font-size="14.00">LicenseType Permissive</text>
</g>
<!-- 5550&#45;&gt;28392 -->
<g id="edge19" class="edge">
<title>5550&#45;&gt;28392</title>
<path fill="none" stroke="#deb256" d="M1792.34,-1365.85C1735.71,-1379.37 1698.36,-1378.15 1593.29,-1359.72"/>
<polygon fill="#deb256" stroke="#deb256" points="1594.17,-1356.32 1583.71,-1358.02 1592.95,-1363.21 1594.17,-1356.32"/>
</g>
<!-- 6592 -->
<g id="node10" class="node">
<title>6592</title>
<text text-anchor="middle" x="500.34" y="-145.23" font-family="Times,serif" font-size="14.00">[&quot;allowed&quot;]</text>
</g>
<!-- 9373 -->
<g id="node12" class="node">
<title>9373</title>
<ellipse fill="none" stroke="#e09d4b" cx="477.06" cy="-513.29" rx="159.28" ry="28.99"/>
<text text-anchor="middle" x="477.06" y="-516.49" font-family="Times,serif" font-size="14.00" fill="gray">FedoraEntry</text>
<text text-anchor="middle" x="477.06" y="-499.99" font-family="Times,serif" font-size="14.00" fill="gray">94bba1384cfeb896958626411bf33021</text>
</g>
<!-- 6592&#45;&gt;9373 -->
<g id="edge20" class="edge">
<title>6592&#45;&gt;9373</title>
<path fill="none" stroke="#e09d4b" d="M491.81,-168.18C442.67,-271.89 441.04,-288.12 470.52,-472.62"/>
<polygon fill="#e09d4b" stroke="#e09d4b" points="467.04,-473.04 472.08,-482.36 473.95,-471.93 467.04,-473.04"/>
</g>
<!-- 6593 -->
<g id="node11" class="node">
<title>6593</title>
<text text-anchor="start" x="406.78" y="-104.16" font-family="Times,serif" font-size="14.00">Fedora: </text>
<text text-anchor="start" x="451.78" y="-104.16" font-family="Times,serif" font-weight="bold" font-size="14.00" fill="#228b22">allowed</text>
<text text-anchor="start" x="242.91" y="-90.16" font-family="Times,serif" font-size="14.00">A license is allowed if Fedora determines that the license is a free software /</text>
<text text-anchor="start" x="237.66" y="-76.16" font-family="Times,serif" font-size="14.00">open source license. At a high level, the inquiry involves determining whether</text>
<text text-anchor="start" x="236.53" y="-62.16" font-family="Times,serif" font-size="14.00">the license provides software freedom, and (equivalently) making sure that the</text>
<text text-anchor="start" x="246.66" y="-48.16" font-family="Times,serif" font-size="14.00">license does not place burdens on users&#39; exercise of its permissions that are</text>
<text text-anchor="start" x="246.28" y="-34.16" font-family="Times,serif" font-size="14.00">inconsistent with evolving community norms and traditions around what is</text>
<text text-anchor="start" x="238.03" y="-20.16" font-family="Times,serif" font-size="14.00">acceptable in a free software / open source license. See below for more on the</text>
<text text-anchor="start" x="358.03" y="-6.16" font-family="Times,serif" font-size="14.00">history of Fedora licensing policy.</text>
</g>
<!-- 6593&#45;&gt;6592 -->
<g id="edge21" class="edge">
<title>6593&#45;&gt;6592</title>
<path fill="none" stroke="#e09d4b" d="M482.7,-120.01C483.25,-120.96 483.82,-121.93 484.4,-122.93"/>
<polygon fill="#e09d4b" stroke="#e09d4b" points="481.23,-124.45 489.29,-131.33 487.28,-120.92 481.23,-124.45"/>
</g>
<!-- 9373&#45;&gt;9374 -->
<g id="edge22" class="edge">
<title>9373&#45;&gt;9374</title>
<path fill="none" stroke="#e09d4b" d="M478.31,-542.57C484.08,-668.73 493.21,-687.72 624.16,-873.8"/>
<polygon fill="#e09d4b" stroke="#e09d4b" points="621.21,-875.68 629.83,-881.84 626.93,-871.65 621.21,-875.68"/>
</g>
<!-- 28392&#45;&gt;28393 -->
<g id="edge23" class="edge">
<title>28392&#45;&gt;28393</title>
<path fill="none" stroke="#deb256" d="M1341.91,-1354.31C1266.75,-1357.13 1212.1,-1334.32 1055.12,-1258.8"/>
<polygon fill="#deb256" stroke="#deb256" points="1057.02,-1255.83 1046.49,-1254.64 1053.98,-1262.13 1057.02,-1255.83"/>
</g>
<!-- 28393&#45;&gt;4988 -->
<g id="edge24" class="edge">
<title>28393&#45;&gt;4988</title>
<path fill="none" stroke="#00876c" stroke-width="2" d="M993.25,-1211.89C970.23,-1174.82 917.15,-1100.59 882.74,-1056.77"/>
<polygon fill="#00876c" stroke="#00876c" stroke-width="2" points="877.42,-1050.07 887.16,-1055.1 879.41,-1051.77 884.03,-1057.59 883.64,-1057.9 883.25,-1058.21 878.62,-1052.39 880.12,-1060.7 877.42,-1050.07"/>
</g>
<!-- 28393&#45;&gt;59245 -->
<g id="edge25" class="edge">
<title>28393&#45;&gt;59245</title>
<path fill="none" stroke="#379469" stroke-dasharray="5,2" d="M983.7,-1256.51C918.58,-1326.79 893.74,-1352.09 861.97,-1369.19"/>
<polygon fill="#379469" stroke="#379469" points="853.4,-1373.5 860.31,-1364.99 856.77,-1371.8 862.33,-1369.01 862.33,-1369.01 862.33,-1369.01 856.77,-1371.8 864.35,-1373.03 853.4,-1373.5"/>
</g>
<!-- 28394 -->
<g id="node16" class="node">
<title>28394</title>
<text text-anchor="middle" x="1725.02" y="-1542.73" font-family="Times,serif" font-size="14.00">$TEXT</text>
</g>
<!-- 28394&#45;&gt;28392 -->
<g id="edge26" class="edge">
<title>28394&#45;&gt;28392</title>
<path fill="none" stroke="#deb256" d="M1701.6,-1529.85C1649.56,-1489.89 1630.51,-1474.05 1512.18,-1372.93"/>
<polygon fill="#deb256" stroke="#deb256" points="1514.51,-1370.32 1504.64,-1366.48 1509.97,-1375.64 1514.51,-1370.32"/>
</g>
<!-- 35432 -->
<g id="node17" class="node">
<title>35432</title>
<text text-anchor="middle" x="1312.5" y="-681.76" font-family="Times,serif" font-size="14.00">LicenseTag (ScopedLicenseTag &quot;OrtLicenseCategorization&quot; &quot;permissive&quot; NoLicenseTagText)</text>
</g>
<!-- 39934 -->
<g id="node19" class="node">
<title>39934</title>
<ellipse fill="none" stroke="#d43d51" cx="1234.05" cy="-745.35" rx="157.68" ry="28.99"/>
<text text-anchor="middle" x="1234.05" y="-748.55" font-family="Times,serif" font-size="14.00" fill="gray">OrtLicenseCategorization</text>
<text text-anchor="middle" x="1234.05" y="-732.05" font-family="Times,serif" font-size="14.00" fill="gray">ca1bf7d6d16c45c7a92a887e2992e4ad</text>
</g>
<!-- 35432&#45;&gt;39934 -->
<g id="edge27" class="edge">
<title>35432&#45;&gt;39934</title>
<path fill="none" stroke="#d43d51" d="M1287.08,-704.53C1284.88,-706.15 1282.52,-707.92 1279.86,-709.93"/>
<polygon fill="#d43d51" stroke="#d43d51" points="1277.91,-707.02 1272.09,-715.87 1282.16,-712.58 1277.91,-707.02"/>
</g>
<!-- 35433 -->
<g id="node18" class="node">
<title>35433</title>
<text text-anchor="middle" x="1776.52" y="-387.22" font-family="Times,serif" font-size="14.00">LicenseTag (ScopedLicenseTag &quot;OrtLicenseCategorization&quot; &quot;include&#45;in&#45;notice&#45;file&quot; NoLicenseTagText)</text>
</g>
<!-- 35433&#45;&gt;39934 -->
<g id="edge28" class="edge">
<title>35433&#45;&gt;39934</title>
<path fill="none" stroke="#d43d51" d="M1746.06,-410.27C1614.41,-488.12 1587.36,-505.88 1285.07,-710.77"/>
<polygon fill="#d43d51" stroke="#d43d51" points="1283.15,-707.84 1276.83,-716.35 1287.08,-713.64 1283.15,-707.84"/>
</g>
<!-- 39934&#45;&gt;4988 -->
<g id="edge29" class="edge">
<title>39934&#45;&gt;4988</title>
<path fill="none" stroke="#d43d51" d="M1146.69,-769.86C1058.4,-798.55 1022.98,-833.06 882.87,-987.37"/>
<polygon fill="#d43d51" stroke="#d43d51" points="880.39,-984.9 876.27,-994.65 885.58,-989.6 880.39,-984.9"/>
</g>
<!-- 42975 -->
<g id="node20" class="node">
<title>42975</title>
<ellipse fill="none" stroke="#379469" cx="159.78" cy="-1573.76" rx="159.81" ry="28.99"/>
<text text-anchor="middle" x="159.78" y="-1576.96" font-family="Times,serif" font-size="14.00" fill="gray">CavilLicenseChange</text>
<text text-anchor="middle" x="159.78" y="-1560.46" font-family="Times,serif" font-size="14.00" fill="gray">2eb78d9c8eb78a9e50b256ded296a20a</text>
</g>
<!-- 42975&#45;&gt;42976 -->
<g id="edge30" class="edge">
<title>42975&#45;&gt;42976</title>
<path fill="none" stroke="#379469" d="M201.91,-1545.57C255.85,-1509.31 286.22,-1487.73 430.16,-1384.55"/>
<polygon fill="#379469" stroke="#379469" points="432.03,-1387.51 438.12,-1378.84 427.95,-1381.82 432.03,-1387.51"/>
</g>
<!-- 59244 -->
<g id="node22" class="node">
<title>59244</title>
<ellipse fill="none" stroke="#379469" cx="794.8" cy="-1460.26" rx="156.09" ry="28.99"/>
<text text-anchor="middle" x="794.8" y="-1463.46" font-family="Times,serif" font-size="14.00" fill="gray">MetaeffektLicense</text>
<text text-anchor="middle" x="794.8" y="-1446.96" font-family="Times,serif" font-size="14.00" fill="gray">36e6c38122421e8e9f731faf03dba478</text>
</g>
<!-- 59244&#45;&gt;59245 -->
<g id="edge31" class="edge">
<title>59244&#45;&gt;59245</title>
<path fill="none" stroke="#379469" d="M792.39,-1430.78C792.44,-1430.22 792.5,-1429.64 792.56,-1429.05"/>
<polygon fill="#379469" stroke="#379469" points="796.02,-1429.6 793.84,-1419.23 789.08,-1428.7 796.02,-1429.6"/>
</g>
<!-- 59246 -->
<g id="node24" class="node">
<title>59246</title>
<polygon fill="none" stroke="#379469" points="885.18,-1815.81 885.18,-1830.72 807.52,-1841.26 697.68,-1841.26 620.01,-1830.72 620.01,-1815.81 697.68,-1805.26 807.52,-1805.26 885.18,-1815.81"/>
<text text-anchor="middle" x="752.6" y="-1818.21" font-family="Times,serif" font-size="14.00">zeeff@b&#45;tech.ann&#45;arbor.mi.us</text>
</g>
<!-- 59246&#45;&gt;59245 -->
<g id="edge32" class="edge">
<title>59246&#45;&gt;59245</title>
<path fill="none" stroke="#379469" stroke-dasharray="5,2" d="M751.51,-1804.97C744.99,-1693.88 746.93,-1676.98 791.48,-1428.6"/>
<polygon fill="#379469" stroke="#379469" points="793.21,-1418.95 795.88,-1429.58 792.55,-1422.67 791.45,-1428.79 791.45,-1428.79 791.45,-1428.79 792.55,-1422.67 787.02,-1428 793.21,-1418.95"/>
</g>
<!-- 68756 -->
<g id="node25" class="node">
<title>68756</title>
<ellipse fill="none" stroke="#00876c" cx="434.28" cy="-966.99" rx="162.46" ry="28.99"/>
<text text-anchor="middle" x="434.28" y="-970.19" font-family="Times,serif" font-size="14.00" fill="gray">LicenseLynx</text>
<text text-anchor="middle" x="434.28" y="-953.69" font-family="Times,serif" font-size="14.00" fill="gray">35e74228d48db926a0bb3561832a1362</text>
</g>
<!-- 68756&#45;&gt;4988 -->
<g id="edge33" class="edge">
<title>68756&#45;&gt;4988</title>
<path fill="none" stroke="#00876c" d="M513.66,-992.75C571.11,-1008.69 620.87,-1012.47 776.4,-1019.1"/>
<polygon fill="#00876c" stroke="#00876c" points="776.13,-1022.59 786.27,-1019.52 776.43,-1015.6 776.13,-1022.59"/>
</g>
<!-- 68757&#45;&gt;4988 -->
<g id="edge34" class="edge">
<title>68757&#45;&gt;4988</title>
<path fill="none" stroke="#00876c" stroke-width="2" d="M619.58,-1116.86C659.11,-1102.72 692.46,-1089.03 795.22,-1045.81"/>
<polygon fill="#00876c" stroke="#00876c" stroke-width="2" points="803.14,-1042.48 795.66,-1050.51 800.97,-1043.94 794.11,-1046.82 793.92,-1046.36 793.72,-1045.9 800.58,-1043.02 792.17,-1042.21 803.14,-1042.48"/>
</g>
</g>
</svg>
