<?xml version="1.0" encoding="UTF-8" standalone="no"?>
<!DOCTYPE svg PUBLIC "-//W3C//DTD SVG 1.1//EN"
 "http://www.w3.org/Graphics/SVG/1.1/DTD/svg11.dtd">
<!-- Generated by graphviz version 2.43.0 (0)
 -->
<!-- Title: 0BSD Pages: 1 -->
<svg width="732pt" height="115pt"
 viewBox="0.00 0.00 732.00 115.00" xmlns="http://www.w3.org/2000/svg" xmlns:xlink="http://www.w3.org/1999/xlink">
<g id="graph0" class="graph" transform="scale(1 1) rotate(0) translate(4 111)">
<title>0BSD</title>
<polygon fill="white" stroke="transparent" points="-4,4 -4,-111 728,-111 728,4 -4,4"/>
<g id="clust1" class="cluster">
<title>cluster_0</title>
<polygon fill="none" stroke="black" points="8,-8 8,-99 716,-99 716,-8 8,-8"/>
</g>
<g id="clust2" class="cluster">
<title>cluster_1</title>
<polygon fill="lightgray" stroke="lightgray" points="613,-16 613,-91 708,-91 708,-16 613,-16"/>
<text text-anchor="middle" x="660.5" y="-75.8" font-family="Times-Roman" font-size="14.00">process #1</text>
</g>
<g id="clust3" class="cluster">
<title>cluster_2</title>
<polygon fill="lightgray" stroke="lightgray" points="345,-16 345,-91 605,-91 605,-16 345,-16"/>
<text text-anchor="middle" x="475" y="-75.8" font-family="Times-Roman" font-size="14.00">process #1</text>
</g>
<g id="clust5" class="cluster">
<title>cluster_4</title>
<polygon fill="lightgray" stroke="lightgray" points="119,-16 119,-91 337,-91 337,-16 119,-16"/>
<text text-anchor="middle" x="228" y="-75.8" font-family="Times-Roman" font-size="14.00">process #1</text>
</g>
<g id="clust6" class="cluster">
<title>cluster_5</title>
<polygon fill="lightgray" stroke="lightgray" points="16,-16 16,-91 111,-91 111,-16 16,-16"/>
<text text-anchor="middle" x="63.5" y="-75.8" font-family="Times-Roman" font-size="14.00">process #1</text>
</g>
<!-- 0BSD -->
<g id="node1" class="node">
<title>0BSD</title>
<ellipse fill="white" stroke="white" cx="660" cy="-42" rx="35.19" ry="18"/>
<text text-anchor="middle" x="660" y="-38.3" font-family="Times-Roman" font-size="14.00">0BSD</text>
</g>
<!-- BSD Zero Clause License -->
<g id="node2" class="node">
<title>BSD Zero Clause License</title>
<ellipse fill="white" stroke="white" cx="475" cy="-42" rx="122.38" ry="18"/>
<text text-anchor="middle" x="475" y="-38.3" font-family="Times-Roman" font-size="14.00">BSD Zero Clause License</text>
</g>
<!-- scancode://bsd&#45;zero -->
<g id="node3" class="node">
<title>scancode://bsd&#45;zero</title>
<ellipse fill="white" stroke="white" cx="228" cy="-42" rx="100.98" ry="18"/>
<text text-anchor="middle" x="228" y="-38.3" font-family="Times-Roman" font-size="14.00">scancode://bsd&#45;zero</text>
</g>
<!-- 0bsd -->
<g id="node4" class="node">
<title>0bsd</title>
<ellipse fill="white" stroke="white" cx="63" cy="-42" rx="33.29" ry="18"/>
<text text-anchor="middle" x="63" y="-38.3" font-family="Times-Roman" font-size="14.00">0bsd</text>
</g>
</g>
</svg>
