<?xml version="1.0" encoding="UTF-8" standalone="no"?>
<!DOCTYPE svg PUBLIC "-//W3C//DTD SVG 1.1//EN"
 "http://www.w3.org/Graphics/SVG/1.1/DTD/svg11.dtd">
<!-- Generated by graphviz version 2.43.0 (0)
 -->
<!-- Title: AAL Pages: 1 -->
<svg width="3065pt" height="98pt"
 viewBox="0.00 0.00 3065.00 98.43" xmlns="http://www.w3.org/2000/svg" xmlns:xlink="http://www.w3.org/1999/xlink">
<g id="graph0" class="graph" transform="scale(1 1) rotate(0) translate(4 94.43)">
<title>AAL</title>
<polygon fill="white" stroke="transparent" points="-4,4 -4,-94.43 3061,-94.43 3061,4 -4,4"/>
<g id="clust1" class="cluster">
<title>cluster_0</title>
<polygon fill="none" stroke="black" points="8,-8 8,-82.43 3049,-82.43 3049,-8 8,-8"/>
</g>
<g id="clust2" class="cluster">
<title>cluster_1</title>
<polygon fill="lightgray" stroke="lightgray" points="2907,-16 2907,-74.43 3041,-74.43 3041,-16 2907,-16"/>
</g>
<g id="clust3" class="cluster">
<title>cluster_2</title>
<polygon fill="lightgray" stroke="lightgray" points="2431,-16 2431,-74.43 2899,-74.43 2899,-16 2431,-16"/>
</g>
<g id="clust4" class="cluster">
<title>cluster_3</title>
<polygon fill="lightgray" stroke="lightgray" points="1955,-16 1955,-74.43 2423,-74.43 2423,-16 1955,-16"/>
</g>
<g id="clust5" class="cluster">
<title>cluster_4</title>
<polygon fill="lightgray" stroke="lightgray" points="1551,-16 1551,-74.43 1947,-74.43 1947,-16 1551,-16"/>
</g>
<g id="clust6" class="cluster">
<title>cluster_5</title>
<polygon fill="lightgray" stroke="lightgray" points="502,-16 502,-74.43 1543,-74.43 1543,-16 502,-16"/>
</g>
<g id="clust7" class="cluster">
<title>cluster_6</title>
<polygon fill="lightgray" stroke="lightgray" points="16,-16 16,-74.43 494,-74.43 494,-16 16,-16"/>
</g>
<!-- AAL(1) -->
<g id="node1" class="node">
<title>AAL(1)</title>
<ellipse fill="springgreen" stroke="springgreen" cx="2974" cy="-45.21" rx="58.88" ry="21.43"/>
<text text-anchor="middle" x="2974" y="-40.21" font-family="Times-Roman" font-size="20.00">AAL(1)</text>
</g>
<!-- AAL(2) -->
<g id="node2" class="node">
<title>AAL(2)</title>
<ellipse fill="springgreen" stroke="springgreen" cx="2832" cy="-45.21" rx="58.88" ry="21.43"/>
<text text-anchor="middle" x="2832" y="-40.21" font-family="Times-Roman" font-size="20.00">AAL(2)</text>
</g>
<!-- Attribution Assurance License(2) -->
<g id="node3" class="node">
<title>Attribution Assurance License(2)</title>
<ellipse fill="white" stroke="white" cx="2597" cy="-45.21" rx="157.87" ry="18"/>
<text text-anchor="middle" x="2597" y="-41.51" font-family="Times-Roman" font-size="14.00">Attribution Assurance License(2)</text>
</g>
<!-- AAL(3) -->
<g id="node4" class="node">
<title>AAL(3)</title>
<ellipse fill="springgreen" stroke="springgreen" cx="2356" cy="-45.21" rx="58.88" ry="21.43"/>
<text text-anchor="middle" x="2356" y="-40.21" font-family="Times-Roman" font-size="20.00">AAL(3)</text>
</g>
<!-- Attribution Assurance License(3) -->
<g id="node5" class="node">
<title>Attribution Assurance License(3)</title>
<ellipse fill="white" stroke="white" cx="2121" cy="-45.21" rx="157.87" ry="18"/>
<text text-anchor="middle" x="2121" y="-41.51" font-family="Times-Roman" font-size="14.00">Attribution Assurance License(3)</text>
</g>
<!-- AAL(4) -->
<g id="node6" class="node">
<title>AAL(4)</title>
<ellipse fill="springgreen" stroke="springgreen" cx="1880" cy="-45.21" rx="58.88" ry="21.43"/>
<text text-anchor="middle" x="1880" y="-40.21" font-family="Times-Roman" font-size="20.00">AAL(4)</text>
</g>
<!-- scancode://attribution(4) -->
<g id="node7" class="node">
<title>scancode://attribution(4)</title>
<ellipse fill="white" stroke="white" cx="1681" cy="-45.21" rx="122.38" ry="18"/>
<text text-anchor="middle" x="1681" y="-41.51" font-family="Times-Roman" font-size="14.00">scancode://attribution(4)</text>
</g>
<!-- AAL(5) -->
<g id="node8" class="node">
<title>AAL(5)</title>
<ellipse fill="springgreen" stroke="springgreen" cx="1476" cy="-45.21" rx="58.88" ry="21.43"/>
<text text-anchor="middle" x="1476" y="-40.21" font-family="Times-Roman" font-size="20.00">AAL(5)</text>
</g>
<!-- Attribution Assurance License(5) -->
<g id="node9" class="node">
<title>Attribution Assurance License(5)</title>
<ellipse fill="white" stroke="white" cx="1241" cy="-45.21" rx="157.87" ry="18"/>
<text text-anchor="middle" x="1241" y="-41.51" font-family="Times-Roman" font-size="14.00">Attribution Assurance License(5)</text>
</g>
<!-- License :: OSI Approved :: Attribution Assurance License(5) -->
<g id="node10" class="node">
<title>License :: OSI Approved :: Attribution Assurance License(5)</title>
<ellipse fill="white" stroke="white" cx="788" cy="-45.21" rx="277.55" ry="18"/>
<text text-anchor="middle" x="788" y="-41.51" font-family="Times-Roman" font-size="14.00">License :: OSI Approved :: Attribution Assurance License(5)</text>
</g>
<!-- AAL(6) -->
<g id="node11" class="node">
<title>AAL(6)</title>
<ellipse fill="springgreen" stroke="springgreen" cx="427" cy="-45.21" rx="58.88" ry="21.43"/>
<text text-anchor="middle" x="427" y="-40.21" font-family="Times-Roman" font-size="20.00">AAL(6)</text>
</g>
<!-- Attribution Assurance Licenses(6) -->
<g id="node12" class="node">
<title>Attribution Assurance Licenses(6)</title>
<ellipse fill="white" stroke="white" cx="187" cy="-45.21" rx="163.27" ry="18"/>
<text text-anchor="middle" x="187" y="-41.51" font-family="Times-Roman" font-size="14.00">Attribution Assurance Licenses(6)</text>
</g>
</g>
</svg>
