<?xml version="1.0" encoding="UTF-8" standalone="no"?>
<!DOCTYPE svg PUBLIC "-//W3C//DTD SVG 1.1//EN"
 "http://www.w3.org/Graphics/SVG/1.1/DTD/svg11.dtd">
<!-- Generated by graphviz version 2.43.0 (0)
 -->
<!-- Title: Abstyles Pages: 1 -->
<svg width="255pt" height="374pt"
 viewBox="0.00 0.00 254.88 374.00" xmlns="http://www.w3.org/2000/svg" xmlns:xlink="http://www.w3.org/1999/xlink">
<g id="graph0" class="graph" transform="scale(1 1) rotate(0) translate(4 370)">
<title>Abstyles</title>
<polygon fill="white" stroke="transparent" points="-4,4 -4,-370 250.88,-370 250.88,4 -4,4"/>
<g id="clust1" class="cluster">
<title>cluster_0</title>
<polygon fill="none" stroke="black" points="8,-8 8,-358 238.88,-358 238.88,-8 8,-8"/>
</g>
<g id="clust2" class="cluster">
<title>cluster_1</title>
<polygon fill="lightgray" stroke="lightgray" points="66.05,-298 66.05,-350 180.84,-350 180.84,-298 66.05,-298"/>
</g>
<g id="clust3" class="cluster">
<title>cluster_2</title>
<polygon fill="lightgray" stroke="lightgray" points="29.65,-184 29.65,-290 217.23,-290 217.23,-184 29.65,-184"/>
</g>
<g id="clust4" class="cluster">
<title>cluster_3</title>
<polygon fill="lightgray" stroke="lightgray" points="16,-16 16,-176 230.88,-176 230.88,-16 16,-16"/>
</g>
<!-- Abstyles(1) -->
<g id="node1" class="node">
<title>Abstyles(1)</title>
<ellipse fill="springgreen" stroke="springgreen" cx="123.44" cy="-324" rx="49.29" ry="18"/>
<text text-anchor="middle" x="123.44" y="-320.3" font-family="Times-Roman" font-size="14.00">Abstyles</text>
</g>
<!-- Abstyles(2) -->
<g id="node2" class="node">
<title>Abstyles(2)</title>
<ellipse fill="springgreen" stroke="springgreen" cx="123.44" cy="-264" rx="49.29" ry="18"/>
<text text-anchor="middle" x="123.44" y="-260.3" font-family="Times-Roman" font-size="14.00">Abstyles</text>
</g>
<!-- Abstyles License(2) -->
<g id="node3" class="node">
<title>Abstyles License(2)</title>
<ellipse fill="white" stroke="white" cx="123.44" cy="-210" rx="85.59" ry="18"/>
<text text-anchor="middle" x="123.44" y="-206.3" font-family="Times-Roman" font-size="14.00">Abstyles License</text>
</g>
<!-- Abstyles(3) -->
<g id="node4" class="node">
<title>Abstyles(3)</title>
<ellipse fill="springgreen" stroke="springgreen" cx="123.44" cy="-150" rx="49.29" ry="18"/>
<text text-anchor="middle" x="123.44" y="-146.3" font-family="Times-Roman" font-size="14.00">Abstyles</text>
</g>
<!-- Abstyles License(3) -->
<g id="node5" class="node">
<title>Abstyles License(3)</title>
<ellipse fill="white" stroke="white" cx="123.44" cy="-96" rx="85.59" ry="18"/>
<text text-anchor="middle" x="123.44" y="-92.3" font-family="Times-Roman" font-size="14.00">Abstyles License</text>
</g>
<!-- scancode://abstyles(3) -->
<g id="node6" class="node">
<title>scancode://abstyles(3)</title>
<ellipse fill="white" stroke="white" cx="123.44" cy="-42" rx="99.38" ry="18"/>
<text text-anchor="middle" x="123.44" y="-38.3" font-family="Times-Roman" font-size="14.00">scancode://abstyles</text>
</g>
</g>
</svg>
