<?xml version="1.0" encoding="UTF-8" standalone="no"?>
<!DOCTYPE svg PUBLIC "-//W3C//DTD SVG 1.1//EN"
 "http://www.w3.org/Graphics/SVG/1.1/DTD/svg11.dtd">
<!-- Generated by graphviz version 2.43.0 (0)
 -->
<!-- Title: Adobe&#45;2006 Pages: 1 -->
<svg width="2420pt" height="115pt"
 viewBox="0.00 0.00 2420.00 115.00" xmlns="http://www.w3.org/2000/svg" xmlns:xlink="http://www.w3.org/1999/xlink">
<g id="graph0" class="graph" transform="scale(1 1) rotate(0) translate(4 111)">
<title>Adobe&#45;2006</title>
<polygon fill="white" stroke="transparent" points="-4,4 -4,-111 2416,-111 2416,4 -4,4"/>
<g id="clust1" class="cluster">
<title>cluster_0</title>
<polygon fill="none" stroke="black" points="8,-8 8,-99 2404,-99 2404,-8 8,-8"/>
</g>
<g id="clust2" class="cluster">
<title>cluster_1</title>
<polygon fill="lightgray" stroke="lightgray" points="2248,-16 2248,-91 2396,-91 2396,-16 2248,-16"/>
<text text-anchor="middle" x="2322" y="-75.8" font-family="Times-Roman" font-size="14.00">prev</text>
</g>
<g id="clust3" class="cluster">
<title>cluster_2</title>
<polygon fill="lightgray" stroke="lightgray" points="1494,-16 1494,-68 2240,-68 2240,-16 1494,-16"/>
</g>
<g id="clust4" class="cluster">
<title>cluster_3</title>
<polygon fill="lightgray" stroke="lightgray" points="740,-16 740,-68 1486,-68 1486,-16 740,-16"/>
</g>
<g id="clust5" class="cluster">
<title>cluster_4</title>
<polygon fill="lightgray" stroke="lightgray" points="16,-16 16,-68 732,-68 732,-16 16,-16"/>
</g>
<!-- Adobe&#45;2006(1) -->
<g id="node1" class="node">
<title>Adobe&#45;2006(1)</title>
<ellipse fill="springgreen" stroke="springgreen" cx="2322" cy="-42" rx="65.79" ry="18"/>
<text text-anchor="middle" x="2322" y="-38.3" font-family="Times-Roman" font-size="14.00">Adobe&#45;2006</text>
</g>
<!-- Adobe Systems Incorporated Source Code License Agreement(2) -->
<g id="node2" class="node">
<title>Adobe Systems Incorporated Source Code License Agreement(2)</title>
<ellipse fill="white" stroke="white" cx="1942" cy="-42" rx="289.75" ry="18"/>
<text text-anchor="middle" x="1942" y="-38.3" font-family="Times-Roman" font-size="14.00">Adobe Systems Incorporated Source Code License Agreement</text>
</g>
<!-- Adobe&#45;2006(2) -->
<g id="node3" class="node">
<title>Adobe&#45;2006(2)</title>
<ellipse fill="springgreen" stroke="springgreen" cx="1568" cy="-42" rx="65.79" ry="18"/>
<text text-anchor="middle" x="1568" y="-38.3" font-family="Times-Roman" font-size="14.00">Adobe&#45;2006</text>
</g>
<!-- Adobe Systems Incorporated Source Code License Agreement(3) -->
<g id="node4" class="node">
<title>Adobe Systems Incorporated Source Code License Agreement(3)</title>
<ellipse fill="white" stroke="white" cx="1188" cy="-42" rx="289.75" ry="18"/>
<text text-anchor="middle" x="1188" y="-38.3" font-family="Times-Roman" font-size="14.00">Adobe Systems Incorporated Source Code License Agreement</text>
</g>
<!-- Adobe&#45;2006(3) -->
<g id="node5" class="node">
<title>Adobe&#45;2006(3)</title>
<ellipse fill="springgreen" stroke="springgreen" cx="814" cy="-42" rx="65.79" ry="18"/>
<text text-anchor="middle" x="814" y="-38.3" font-family="Times-Roman" font-size="14.00">Adobe&#45;2006</text>
</g>
<!-- Adobe Source Code License 2006(4) -->
<g id="node6" class="node">
<title>Adobe Source Code License 2006(4)</title>
<ellipse fill="white" stroke="white" cx="563" cy="-42" rx="161.37" ry="18"/>
<text text-anchor="middle" x="563" y="-38.3" font-family="Times-Roman" font-size="14.00">Adobe Source Code License 2006</text>
</g>
<!-- Adobe&#45;2006(4) -->
<g id="node7" class="node">
<title>Adobe&#45;2006(4)</title>
<ellipse fill="springgreen" stroke="springgreen" cx="318" cy="-42" rx="65.79" ry="18"/>
<text text-anchor="middle" x="318" y="-38.3" font-family="Times-Roman" font-size="14.00">Adobe&#45;2006</text>
</g>
<!-- scancode://adobe&#45;scl(4) -->
<g id="node8" class="node">
<title>scancode://adobe&#45;scl(4)</title>
<ellipse fill="white" stroke="white" cx="129" cy="-42" rx="105.08" ry="18"/>
<text text-anchor="middle" x="129" y="-38.3" font-family="Times-Roman" font-size="14.00">scancode://adobe&#45;scl</text>
</g>
</g>
</svg>
