<?xml version="1.0" encoding="UTF-8" standalone="no"?>
<!DOCTYPE svg PUBLIC "-//W3C//DTD SVG 1.1//EN"
 "http://www.w3.org/Graphics/SVG/1.1/DTD/svg11.dtd">
<!-- Generated by graphviz version 2.43.0 (0)
 -->
<!-- Title: ADSL Pages: 1 -->
<svg width="369pt" height="602pt"
 viewBox="0.00 0.00 369.27 602.00" xmlns="http://www.w3.org/2000/svg" xmlns:xlink="http://www.w3.org/1999/xlink">
<g id="graph0" class="graph" transform="scale(1 1) rotate(0) translate(4 598)">
<title>ADSL</title>
<polygon fill="white" stroke="transparent" points="-4,4 -4,-598 365.27,-598 365.27,4 -4,4"/>
<g id="clust1" class="cluster">
<title>cluster_0</title>
<polygon fill="none" stroke="black" points="8,-8 8,-586 353.27,-586 353.27,-8 8,-8"/>
</g>
<g id="clust2" class="cluster">
<title>cluster_1</title>
<polygon fill="lightgray" stroke="lightgray" points="138.19,-526 138.19,-578 223.08,-578 223.08,-526 138.19,-526"/>
</g>
<g id="clust3" class="cluster">
<title>cluster_2</title>
<polygon fill="lightgray" stroke="lightgray" points="16,-412 16,-518 345.27,-518 345.27,-412 16,-412"/>
</g>
<g id="clust4" class="cluster">
<title>cluster_3</title>
<polygon fill="lightgray" stroke="lightgray" points="16,-298 16,-404 345.27,-404 345.27,-298 16,-298"/>
</g>
<g id="clust5" class="cluster">
<title>cluster_4</title>
<polygon fill="lightgray" stroke="lightgray" points="16,-130 16,-290 345.27,-290 345.27,-130 16,-130"/>
</g>
<g id="clust6" class="cluster">
<title>cluster_5</title>
<polygon fill="lightgray" stroke="lightgray" points="16,-16 16,-122 345.27,-122 345.27,-16 16,-16"/>
</g>
<!-- ADSL(1) -->
<g id="node1" class="node">
<title>ADSL(1)</title>
<ellipse fill="springgreen" stroke="springgreen" cx="180.64" cy="-552" rx="34.39" ry="18"/>
<text text-anchor="middle" x="180.64" y="-548.3" font-family="Times-Roman" font-size="14.00">ADSL</text>
</g>
<!-- ADSL(2) -->
<g id="node2" class="node">
<title>ADSL(2)</title>
<ellipse fill="springgreen" stroke="springgreen" cx="180.64" cy="-492" rx="34.39" ry="18"/>
<text text-anchor="middle" x="180.64" y="-488.3" font-family="Times-Roman" font-size="14.00">ADSL</text>
</g>
<!-- Amazon Digital Services License(2) -->
<g id="node3" class="node">
<title>Amazon Digital Services License(2)</title>
<ellipse fill="white" stroke="white" cx="180.64" cy="-438" rx="156.77" ry="18"/>
<text text-anchor="middle" x="180.64" y="-434.3" font-family="Times-Roman" font-size="14.00">Amazon Digital Services License</text>
</g>
<!-- ADSL(3) -->
<g id="node4" class="node">
<title>ADSL(3)</title>
<ellipse fill="springgreen" stroke="springgreen" cx="180.64" cy="-378" rx="34.39" ry="18"/>
<text text-anchor="middle" x="180.64" y="-374.3" font-family="Times-Roman" font-size="14.00">ADSL</text>
</g>
<!-- Amazon Digital Services License(3) -->
<g id="node5" class="node">
<title>Amazon Digital Services License(3)</title>
<ellipse fill="white" stroke="white" cx="180.64" cy="-324" rx="156.77" ry="18"/>
<text text-anchor="middle" x="180.64" y="-320.3" font-family="Times-Roman" font-size="14.00">Amazon Digital Services License</text>
</g>
<!-- ADSL(4) -->
<g id="node6" class="node">
<title>ADSL(4)</title>
<ellipse fill="springgreen" stroke="springgreen" cx="180.64" cy="-264" rx="34.39" ry="18"/>
<text text-anchor="middle" x="180.64" y="-260.3" font-family="Times-Roman" font-size="14.00">ADSL</text>
</g>
<!-- Amazon Digital Services License(4) -->
<g id="node7" class="node">
<title>Amazon Digital Services License(4)</title>
<ellipse fill="white" stroke="white" cx="180.64" cy="-210" rx="156.77" ry="18"/>
<text text-anchor="middle" x="180.64" y="-206.3" font-family="Times-Roman" font-size="14.00">Amazon Digital Services License</text>
</g>
<!-- scancode://adsl(4) -->
<g id="node8" class="node">
<title>scancode://adsl(4)</title>
<ellipse fill="white" stroke="white" cx="180.64" cy="-156" rx="80.69" ry="18"/>
<text text-anchor="middle" x="180.64" y="-152.3" font-family="Times-Roman" font-size="14.00">scancode://adsl</text>
</g>
<!-- ADSL(5) -->
<g id="node9" class="node">
<title>ADSL(5)</title>
<ellipse fill="springgreen" stroke="springgreen" cx="180.64" cy="-96" rx="34.39" ry="18"/>
<text text-anchor="middle" x="180.64" y="-92.3" font-family="Times-Roman" font-size="14.00">ADSL</text>
</g>
<!-- Amazon Digital Services License(5) -->
<g id="node10" class="node">
<title>Amazon Digital Services License(5)</title>
<ellipse fill="white" stroke="white" cx="180.64" cy="-42" rx="156.77" ry="18"/>
<text text-anchor="middle" x="180.64" y="-38.3" font-family="Times-Roman" font-size="14.00">Amazon Digital Services License</text>
</g>
</g>
</svg>
