<?xml version="1.0" encoding="UTF-8" standalone="no"?>
<!DOCTYPE svg PUBLIC "-//W3C//DTD SVG 1.1//EN"
 "http://www.w3.org/Graphics/SVG/1.1/DTD/svg11.dtd">
<!-- Generated by graphviz version 2.49.3 (0)
 -->
<!-- Title: AFL&#45;1.1 Pages: 1 -->
<svg width="281pt" height="602pt"
 viewBox="0.00 0.00 280.88 602.00" xmlns="http://www.w3.org/2000/svg" xmlns:xlink="http://www.w3.org/1999/xlink">
<g id="graph0" class="graph" transform="scale(1 1) rotate(0) translate(4 598)">
<title>AFL&#45;1.1</title>
<polygon fill="white" stroke="transparent" points="-4,4 -4,-598 276.88,-598 276.88,4 -4,4"/>
<g id="clust1" class="cluster">
<title>cluster_0</title>
<polygon fill="none" stroke="black" points="8,-8 8,-586 264.88,-586 264.88,-8 8,-8"/>
</g>
<g id="clust2" class="cluster">
<title>cluster_1</title>
<polygon fill="lightgray" stroke="lightgray" points="86.84,-526 86.84,-578 186.04,-578 186.04,-526 86.84,-526"/>
</g>
<g id="clust3" class="cluster">
<title>cluster_2</title>
<polygon fill="lightgray" stroke="lightgray" points="16,-412 16,-518 256.88,-518 256.88,-412 16,-412"/>
</g>
<g id="clust4" class="cluster">
<title>cluster_3</title>
<polygon fill="lightgray" stroke="lightgray" points="19.9,-298 19.9,-404 252.98,-404 252.98,-298 19.9,-298"/>
</g>
<g id="clust5" class="cluster">
<title>cluster_4</title>
<polygon fill="lightgray" stroke="lightgray" points="16,-184 16,-290 256.88,-290 256.88,-184 16,-184"/>
</g>
<g id="clust6" class="cluster">
<title>cluster_5</title>
<polygon fill="lightgray" stroke="lightgray" points="55,-16 55,-176 217.88,-176 217.88,-16 55,-16"/>
</g>
<!-- AFL&#45;1.1(1) -->
<g id="node1" class="node">
<title>AFL&#45;1.1(1)</title>
<ellipse fill="springgreen" stroke="springgreen" cx="136.44" cy="-552" rx="41.69" ry="18"/>
<text text-anchor="middle" x="136.44" y="-548.3" font-family="Times,serif" font-size="14.00">AFL&#45;1.1</text>
</g>
<!-- AFL&#45;1.1(2) -->
<g id="node2" class="node">
<title>AFL&#45;1.1(2)</title>
<ellipse fill="springgreen" stroke="springgreen" cx="136.44" cy="-492" rx="41.69" ry="18"/>
<text text-anchor="middle" x="136.44" y="-488.3" font-family="Times,serif" font-size="14.00">AFL&#45;1.1</text>
</g>
<!-- Academic Free License v1.1(2) -->
<g id="node3" class="node">
<title>Academic Free License v1.1(2)</title>
<ellipse fill="white" stroke="white" cx="136.44" cy="-438" rx="112.38" ry="18"/>
<text text-anchor="middle" x="136.44" y="-434.3" font-family="Times,serif" font-size="14.00">Academic Free License v1.1</text>
</g>
<!-- AFL&#45;1.1(3) -->
<g id="node4" class="node">
<title>AFL&#45;1.1(3)</title>
<ellipse fill="springgreen" stroke="springgreen" cx="136.44" cy="-378" rx="41.69" ry="18"/>
<text text-anchor="middle" x="136.44" y="-374.3" font-family="Times,serif" font-size="14.00">AFL&#45;1.1</text>
</g>
<!-- Academic Free License 1.1(3) -->
<g id="node5" class="node">
<title>Academic Free License 1.1(3)</title>
<ellipse fill="white" stroke="white" cx="136.44" cy="-324" rx="108.58" ry="18"/>
<text text-anchor="middle" x="136.44" y="-320.3" font-family="Times,serif" font-size="14.00">Academic Free License 1.1</text>
</g>
<!-- AFL&#45;1.1(4) -->
<g id="node6" class="node">
<title>AFL&#45;1.1(4)</title>
<ellipse fill="springgreen" stroke="springgreen" cx="136.44" cy="-264" rx="41.69" ry="18"/>
<text text-anchor="middle" x="136.44" y="-260.3" font-family="Times,serif" font-size="14.00">AFL&#45;1.1</text>
</g>
<!-- Academic Free License v1.1(4) -->
<g id="node7" class="node">
<title>Academic Free License v1.1(4)</title>
<ellipse fill="white" stroke="white" cx="136.44" cy="-210" rx="112.38" ry="18"/>
<text text-anchor="middle" x="136.44" y="-206.3" font-family="Times,serif" font-size="14.00">Academic Free License v1.1</text>
</g>
<!-- AFL 1.1(5) -->
<g id="node8" class="node">
<title>AFL 1.1(5)</title>
<ellipse fill="white" stroke="white" cx="136.44" cy="-150" rx="40.09" ry="18"/>
<text text-anchor="middle" x="136.44" y="-146.3" font-family="Times,serif" font-size="14.00">AFL 1.1</text>
</g>
<!-- AFL&#45;1.1(5) -->
<g id="node9" class="node">
<title>AFL&#45;1.1(5)</title>
<ellipse fill="springgreen" stroke="springgreen" cx="136.44" cy="-96" rx="41.69" ry="18"/>
<text text-anchor="middle" x="136.44" y="-92.3" font-family="Times,serif" font-size="14.00">AFL&#45;1.1</text>
</g>
<!-- scancode://afl&#45;1.1(5) -->
<g id="node10" class="node">
<title>scancode://afl&#45;1.1(5)</title>
<ellipse fill="white" stroke="white" cx="136.44" cy="-42" rx="73.39" ry="18"/>
<text text-anchor="middle" x="136.44" y="-38.3" font-family="Times,serif" font-size="14.00">scancode://afl&#45;1.1</text>
</g>
</g>
</svg>
