<?xml version="1.0" encoding="UTF-8" standalone="no"?>
<!DOCTYPE svg PUBLIC "-//W3C//DTD SVG 1.1//EN"
 "http://www.w3.org/Graphics/SVG/1.1/DTD/svg11.dtd">
<!-- Generated by graphviz version 2.49.3 (0)
 -->
<!-- Title: Afmparse Pages: 1 -->
<svg width="222pt" height="656pt"
 viewBox="0.00 0.00 222.39 656.00" xmlns="http://www.w3.org/2000/svg" xmlns:xlink="http://www.w3.org/1999/xlink">
<g id="graph0" class="graph" transform="scale(1 1) rotate(0) translate(4 652)">
<title>Afmparse</title>
<polygon fill="white" stroke="transparent" points="-4,4 -4,-652 218.39,-652 218.39,4 -4,4"/>
<g id="clust1" class="cluster">
<title>cluster_0</title>
<polygon fill="none" stroke="black" points="8,-8 8,-640 206.39,-640 206.39,-8 8,-8"/>
</g>
<g id="clust2" class="cluster">
<title>cluster_1</title>
<polygon fill="lightgray" stroke="lightgray" points="53.05,-580 53.05,-632 161.34,-632 161.34,-580 53.05,-580"/>
</g>
<g id="clust3" class="cluster">
<title>cluster_2</title>
<polygon fill="lightgray" stroke="lightgray" points="23.8,-466 23.8,-572 190.59,-572 190.59,-466 23.8,-466"/>
</g>
<g id="clust4" class="cluster">
<title>cluster_3</title>
<polygon fill="lightgray" stroke="lightgray" points="21.2,-298 21.2,-458 193.19,-458 193.19,-298 21.2,-298"/>
</g>
<g id="clust5" class="cluster">
<title>cluster_4</title>
<polygon fill="lightgray" stroke="lightgray" points="23.8,-184 23.8,-290 190.59,-290 190.59,-184 23.8,-184"/>
</g>
<g id="clust6" class="cluster">
<title>cluster_5</title>
<polygon fill="lightgray" stroke="lightgray" points="16,-16 16,-176 198.39,-176 198.39,-16 16,-16"/>
</g>
<!-- Afmparse(1) -->
<g id="node1" class="node">
<title>Afmparse(1)</title>
<ellipse fill="springgreen" stroke="springgreen" cx="107.19" cy="-606" rx="46.29" ry="18"/>
<text text-anchor="middle" x="107.19" y="-602.3" font-family="Times,serif" font-size="14.00">Afmparse</text>
</g>
<!-- Afmparse(2) -->
<g id="node2" class="node">
<title>Afmparse(2)</title>
<ellipse fill="springgreen" stroke="springgreen" cx="107.19" cy="-546" rx="46.29" ry="18"/>
<text text-anchor="middle" x="107.19" y="-542.3" font-family="Times,serif" font-size="14.00">Afmparse</text>
</g>
<!-- Afmparse License(2) -->
<g id="node3" class="node">
<title>Afmparse License(2)</title>
<ellipse fill="white" stroke="white" cx="107.19" cy="-492" rx="75.29" ry="18"/>
<text text-anchor="middle" x="107.19" y="-488.3" font-family="Times,serif" font-size="14.00">Afmparse License</text>
</g>
<!-- Afmparse(3) -->
<g id="node4" class="node">
<title>Afmparse(3)</title>
<ellipse fill="springgreen" stroke="springgreen" cx="107.19" cy="-432" rx="46.29" ry="18"/>
<text text-anchor="middle" x="107.19" y="-428.3" font-family="Times,serif" font-size="14.00">Afmparse</text>
</g>
<!-- Afmparse License(3) -->
<g id="node5" class="node">
<title>Afmparse License(3)</title>
<ellipse fill="white" stroke="white" cx="107.19" cy="-378" rx="75.29" ry="18"/>
<text text-anchor="middle" x="107.19" y="-374.3" font-family="Times,serif" font-size="14.00">Afmparse License</text>
</g>
<!-- scancode:afmparse(3) -->
<g id="node6" class="node">
<title>scancode:afmparse(3)</title>
<ellipse fill="white" stroke="white" cx="107.19" cy="-324" rx="77.99" ry="18"/>
<text text-anchor="middle" x="107.19" y="-320.3" font-family="Times,serif" font-size="14.00">scancode:afmparse</text>
</g>
<!-- Afmparse(4) -->
<g id="node7" class="node">
<title>Afmparse(4)</title>
<ellipse fill="springgreen" stroke="springgreen" cx="107.19" cy="-264" rx="46.29" ry="18"/>
<text text-anchor="middle" x="107.19" y="-260.3" font-family="Times,serif" font-size="14.00">Afmparse</text>
</g>
<!-- Afmparse License(4) -->
<g id="node8" class="node">
<title>Afmparse License(4)</title>
<ellipse fill="white" stroke="white" cx="107.19" cy="-210" rx="75.29" ry="18"/>
<text text-anchor="middle" x="107.19" y="-206.3" font-family="Times,serif" font-size="14.00">Afmparse License</text>
</g>
<!-- Afmparse(5) -->
<g id="node9" class="node">
<title>Afmparse(5)</title>
<ellipse fill="springgreen" stroke="springgreen" cx="107.19" cy="-150" rx="46.29" ry="18"/>
<text text-anchor="middle" x="107.19" y="-146.3" font-family="Times,serif" font-size="14.00">Afmparse</text>
</g>
<!-- afmparse License(5) -->
<g id="node10" class="node">
<title>afmparse License(5)</title>
<ellipse fill="white" stroke="white" cx="107.19" cy="-96" rx="73.39" ry="18"/>
<text text-anchor="middle" x="107.19" y="-92.3" font-family="Times,serif" font-size="14.00">afmparse License</text>
</g>
<!-- scancode://afmparse(5) -->
<g id="node11" class="node">
<title>scancode://afmparse(5)</title>
<ellipse fill="white" stroke="white" cx="107.19" cy="-42" rx="83.39" ry="18"/>
<text text-anchor="middle" x="107.19" y="-38.3" font-family="Times,serif" font-size="14.00">scancode://afmparse</text>
</g>
</g>
</svg>
