<?xml version="1.0" encoding="UTF-8" standalone="no"?>
<!DOCTYPE svg PUBLIC "-//W3C//DTD SVG 1.1//EN"
 "http://www.w3.org/Graphics/SVG/1.1/DTD/svg11.dtd">
<!-- Generated by graphviz version 2.43.0 (0)
 -->
<!-- Title: AGPL&#45;1.0&#45;only Pages: 1 -->
<svg width="1501pt" height="98pt"
 viewBox="0.00 0.00 1501.00 98.43" xmlns="http://www.w3.org/2000/svg" xmlns:xlink="http://www.w3.org/1999/xlink">
<g id="graph0" class="graph" transform="scale(1 1) rotate(0) translate(4 94.43)">
<title>AGPL&#45;1.0&#45;only</title>
<polygon fill="white" stroke="transparent" points="-4,4 -4,-94.43 1497,-94.43 1497,4 -4,4"/>
<g id="clust1" class="cluster">
<title>cluster_0</title>
<polygon fill="none" stroke="black" points="8,-8 8,-82.43 1485,-82.43 1485,-8 8,-8"/>
</g>
<g id="clust2" class="cluster">
<title>cluster_1</title>
<polygon fill="lightgray" stroke="lightgray" points="1239,-16 1239,-74.43 1477,-74.43 1477,-16 1239,-16"/>
</g>
<g id="clust3" class="cluster">
<title>cluster_2</title>
<polygon fill="lightgray" stroke="lightgray" points="841,-19.21 841,-71.21 1231,-71.21 1231,-19.21 841,-19.21"/>
</g>
<g id="clust4" class="cluster">
<title>cluster_3</title>
<polygon fill="lightgray" stroke="lightgray" points="498,-19.21 498,-71.21 833,-71.21 833,-19.21 498,-19.21"/>
</g>
<g id="clust5" class="cluster">
<title>cluster_4</title>
<polygon fill="lightgray" stroke="lightgray" points="16,-19.21 16,-71.21 490,-71.21 490,-19.21 16,-19.21"/>
</g>
<!-- AGPL&#45;1.0&#45;only -->
<g id="node1" class="node">
<title>AGPL&#45;1.0&#45;only</title>
<ellipse fill="springgreen" stroke="springgreen" cx="1358" cy="-45.21" rx="111.03" ry="21.43"/>
<text text-anchor="middle" x="1358" y="-40.21" font-family="Times-Roman" font-size="20.00">AGPL&#45;1.0&#45;only</text>
</g>
<!-- Affero General Public License v1.0 only -->
<g id="node2" class="node">
<title>Affero General Public License v1.0 only</title>
<ellipse fill="white" stroke="white" cx="1036" cy="-45.21" rx="186.57" ry="18"/>
<text text-anchor="middle" x="1036" y="-41.51" font-family="Times-Roman" font-size="14.00">Affero General Public License v1.0 only</text>
</g>
<!-- AGPL 1.0 -->
<g id="node3" class="node">
<title>AGPL 1.0</title>
<ellipse fill="white" stroke="white" cx="774" cy="-45.21" rx="51.19" ry="18"/>
<text text-anchor="middle" x="774" y="-41.51" font-family="Times-Roman" font-size="14.00">AGPL 1.0</text>
</g>
<!-- scancode://agpl&#45;1.0 -->
<g id="node4" class="node">
<title>scancode://agpl&#45;1.0</title>
<ellipse fill="white" stroke="white" cx="605" cy="-45.21" rx="99.38" ry="18"/>
<text text-anchor="middle" x="605" y="-41.51" font-family="Times-Roman" font-size="14.00">scancode://agpl&#45;1.0</text>
</g>
<!-- AGPL&#45;1.0 -->
<g id="node5" class="node">
<title>AGPL&#45;1.0</title>
<ellipse fill="white" stroke="white" cx="430" cy="-45.21" rx="51.99" ry="18"/>
<text text-anchor="middle" x="430" y="-41.51" font-family="Times-Roman" font-size="14.00">AGPL&#45;1.0</text>
</g>
<!-- Affero General Public License (v. 1) -->
<g id="node6" class="node">
<title>Affero General Public License (v. 1)</title>
<ellipse fill="white" stroke="white" cx="192" cy="-45.21" rx="168.17" ry="18"/>
<text text-anchor="middle" x="192" y="-41.51" font-family="Times-Roman" font-size="14.00">Affero General Public License (v. 1)</text>
</g>
</g>
</svg>
