<?xml version="1.0" encoding="UTF-8" standalone="no"?>
<!DOCTYPE svg PUBLIC "-//W3C//DTD SVG 1.1//EN"
 "http://www.w3.org/Graphics/SVG/1.1/DTD/svg11.dtd">
<!-- Generated by graphviz version 2.49.3 (0)
 -->
<!-- Title: AGPL&#45;3.0&#45;or&#45;later Pages: 1 -->
<svg width="428pt" height="932pt"
 viewBox="0.00 0.00 427.77 932.00" xmlns="http://www.w3.org/2000/svg" xmlns:xlink="http://www.w3.org/1999/xlink">
<g id="graph0" class="graph" transform="scale(1 1) rotate(0) translate(4 928)">
<title>AGPL&#45;3.0&#45;or&#45;later</title>
<polygon fill="white" stroke="transparent" points="-4,4 -4,-928 423.77,-928 423.77,4 -4,4"/>
<g id="clust1" class="cluster">
<title>cluster_0</title>
<polygon fill="none" stroke="black" points="8,-8 8,-916 411.77,-916 411.77,-8 8,-8"/>
</g>
<g id="clust2" class="cluster">
<title>cluster_1</title>
<polygon fill="lightgray" stroke="lightgray" points="125.19,-856 125.19,-908 294.58,-908 294.58,-856 125.19,-856"/>
</g>
<g id="clust3" class="cluster">
<title>cluster_2</title>
<polygon fill="lightgray" stroke="lightgray" points="41.35,-526 41.35,-848 378.42,-848 378.42,-526 41.35,-526"/>
</g>
<g id="clust4" class="cluster">
<title>cluster_3</title>
<polygon fill="lightgray" stroke="lightgray" points="16,-412 16,-518 403.77,-518 403.77,-412 16,-412"/>
</g>
<g id="clust5" class="cluster">
<title>cluster_4</title>
<polygon fill="lightgray" stroke="lightgray" points="16,-298 16,-404 403.77,-404 403.77,-298 16,-298"/>
</g>
<g id="clust6" class="cluster">
<title>cluster_5</title>
<polygon fill="lightgray" stroke="lightgray" points="105.04,-130 105.04,-290 314.72,-290 314.72,-130 105.04,-130"/>
</g>
<g id="clust7" class="cluster">
<title>cluster_6</title>
<polygon fill="lightgray" stroke="lightgray" points="48.5,-16 48.5,-122 371.27,-122 371.27,-16 48.5,-16"/>
</g>
<!-- AGPL&#45;3.0&#45;or&#45;later(1) -->
<g id="node1" class="node">
<title>AGPL&#45;3.0&#45;or&#45;later(1)</title>
<ellipse fill="springgreen" stroke="springgreen" cx="209.88" cy="-882" rx="76.89" ry="18"/>
<text text-anchor="middle" x="209.88" y="-878.3" font-family="Times,serif" font-size="14.00">AGPL&#45;3.0&#45;or&#45;later</text>
</g>
<!-- AGPL (v3 or later)(2) -->
<g id="node2" class="node">
<title>AGPL (v3 or later)(2)</title>
<ellipse fill="white" stroke="white" cx="209.88" cy="-822" rx="77.99" ry="18"/>
<text text-anchor="middle" x="209.88" y="-818.3" font-family="Times,serif" font-size="14.00">AGPL (v3 or later)</text>
</g>
<!-- AGPL&#45;3.0+(2) -->
<g id="node3" class="node">
<title>AGPL&#45;3.0+(2)</title>
<ellipse fill="white" stroke="white" cx="209.88" cy="-768" rx="53.09" ry="18"/>
<text text-anchor="middle" x="209.88" y="-764.3" font-family="Times,serif" font-size="14.00">AGPL&#45;3.0+</text>
</g>
<!-- AGPL&#45;3.0&#45;or&#45;later(2) -->
<g id="node4" class="node">
<title>AGPL&#45;3.0&#45;or&#45;later(2)</title>
<ellipse fill="springgreen" stroke="springgreen" cx="209.88" cy="-714" rx="76.89" ry="18"/>
<text text-anchor="middle" x="209.88" y="-710.3" font-family="Times,serif" font-size="14.00">AGPL&#45;3.0&#45;or&#45;later</text>
</g>
<!-- AGPL3+(2) -->
<g id="node5" class="node">
<title>AGPL3+(2)</title>
<ellipse fill="white" stroke="white" cx="209.88" cy="-660" rx="43.59" ry="18"/>
<text text-anchor="middle" x="209.88" y="-656.3" font-family="Times,serif" font-size="14.00">AGPL3+</text>
</g>
<!-- AGPL3.0+(2) -->
<g id="node6" class="node">
<title>AGPL3.0+(2)</title>
<ellipse fill="white" stroke="white" cx="209.88" cy="-606" rx="50.09" ry="18"/>
<text text-anchor="middle" x="209.88" y="-602.3" font-family="Times,serif" font-size="14.00">AGPL3.0+</text>
</g>
<!-- Affero General Public License 3.0 or later(2) -->
<g id="node7" class="node">
<title>Affero General Public License 3.0 or later(2)</title>
<ellipse fill="white" stroke="white" cx="209.88" cy="-552" rx="160.57" ry="18"/>
<text text-anchor="middle" x="209.88" y="-548.3" font-family="Times,serif" font-size="14.00">Affero General Public License 3.0 or later</text>
</g>
<!-- AGPL&#45;3.0&#45;or&#45;later(3) -->
<g id="node8" class="node">
<title>AGPL&#45;3.0&#45;or&#45;later(3)</title>
<ellipse fill="springgreen" stroke="springgreen" cx="209.88" cy="-492" rx="76.89" ry="18"/>
<text text-anchor="middle" x="209.88" y="-488.3" font-family="Times,serif" font-size="14.00">AGPL&#45;3.0&#45;or&#45;later</text>
</g>
<!-- GNU Affero General Public License v3.0 or later(3) -->
<g id="node9" class="node">
<title>GNU Affero General Public License v3.0 or later(3)</title>
<ellipse fill="white" stroke="white" cx="209.88" cy="-438" rx="185.77" ry="18"/>
<text text-anchor="middle" x="209.88" y="-434.3" font-family="Times,serif" font-size="14.00">GNU Affero General Public License v3.0 or later</text>
</g>
<!-- AGPL&#45;3.0&#45;or&#45;later(4) -->
<g id="node10" class="node">
<title>AGPL&#45;3.0&#45;or&#45;later(4)</title>
<ellipse fill="springgreen" stroke="springgreen" cx="209.88" cy="-378" rx="76.89" ry="18"/>
<text text-anchor="middle" x="209.88" y="-374.3" font-family="Times,serif" font-size="14.00">AGPL&#45;3.0&#45;or&#45;later</text>
</g>
<!-- GNU Affero General Public License v3.0 or later(4) -->
<g id="node11" class="node">
<title>GNU Affero General Public License v3.0 or later(4)</title>
<ellipse fill="white" stroke="white" cx="209.88" cy="-324" rx="185.77" ry="18"/>
<text text-anchor="middle" x="209.88" y="-320.3" font-family="Times,serif" font-size="14.00">GNU Affero General Public License v3.0 or later</text>
</g>
<!-- AGPL 3.0 or later(5) -->
<g id="node12" class="node">
<title>AGPL 3.0 or later(5)</title>
<ellipse fill="white" stroke="white" cx="209.88" cy="-264" rx="74.99" ry="18"/>
<text text-anchor="middle" x="209.88" y="-260.3" font-family="Times,serif" font-size="14.00">AGPL 3.0 or later</text>
</g>
<!-- AGPL&#45;3.0&#45;or&#45;later(5) -->
<g id="node13" class="node">
<title>AGPL&#45;3.0&#45;or&#45;later(5)</title>
<ellipse fill="springgreen" stroke="springgreen" cx="209.88" cy="-210" rx="76.89" ry="18"/>
<text text-anchor="middle" x="209.88" y="-206.3" font-family="Times,serif" font-size="14.00">AGPL&#45;3.0&#45;or&#45;later</text>
</g>
<!-- scancode://agpl&#45;3.0&#45;plus(5) -->
<g id="node14" class="node">
<title>scancode://agpl&#45;3.0&#45;plus(5)</title>
<ellipse fill="white" stroke="white" cx="209.88" cy="-156" rx="96.68" ry="18"/>
<text text-anchor="middle" x="209.88" y="-152.3" font-family="Times,serif" font-size="14.00">scancode://agpl&#45;3.0&#45;plus</text>
</g>
<!-- AGPL&#45;3.0&#45;or&#45;later(6) -->
<g id="node15" class="node">
<title>AGPL&#45;3.0&#45;or&#45;later(6)</title>
<ellipse fill="springgreen" stroke="springgreen" cx="209.88" cy="-96" rx="76.89" ry="18"/>
<text text-anchor="middle" x="209.88" y="-92.3" font-family="Times,serif" font-size="14.00">AGPL&#45;3.0&#45;or&#45;later</text>
</g>
<!-- GNU Affero General Public License 3.0(6) -->
<g id="node16" class="node">
<title>GNU Affero General Public License 3.0(6)</title>
<ellipse fill="white" stroke="white" cx="209.88" cy="-42" rx="153.27" ry="18"/>
<text text-anchor="middle" x="209.88" y="-38.3" font-family="Times,serif" font-size="14.00">GNU Affero General Public License 3.0</text>
</g>
</g>
</svg>
