<?xml version="1.0" encoding="UTF-8" standalone="no"?>
<!DOCTYPE svg PUBLIC "-//W3C//DTD SVG 1.1//EN"
 "http://www.w3.org/Graphics/SVG/1.1/DTD/svg11.dtd">
<!-- Generated by graphviz version 2.49.3 (0)
 -->
<!-- Title: Apache&#45;1.1 Pages: 1 -->
<svg width="348pt" height="1106pt"
 viewBox="0.00 0.00 348.47 1106.00" xmlns="http://www.w3.org/2000/svg" xmlns:xlink="http://www.w3.org/1999/xlink">
<g id="graph0" class="graph" transform="scale(1 1) rotate(0) translate(4 1102)">
<title>Apache&#45;1.1</title>
<polygon fill="white" stroke="transparent" points="-4,4 -4,-1102 344.47,-1102 344.47,4 -4,4"/>
<g id="clust1" class="cluster">
<title>cluster_0</title>
<polygon fill="none" stroke="black" points="8,-8 8,-1090 332.47,-1090 332.47,-8 8,-8"/>
</g>
<g id="clust2" class="cluster">
<title>cluster_1</title>
<polygon fill="lightgray" stroke="lightgray" points="110.24,-1030 110.24,-1082 230.23,-1082 230.23,-1030 110.24,-1030"/>
</g>
<g id="clust3" class="cluster">
<title>cluster_2</title>
<polygon fill="lightgray" stroke="lightgray" points="16,-754 16,-1022 324.47,-1022 324.47,-754 16,-754"/>
</g>
<g id="clust4" class="cluster">
<title>cluster_3</title>
<polygon fill="lightgray" stroke="lightgray" points="80.99,-640 80.99,-746 259.48,-746 259.48,-640 80.99,-640"/>
</g>
<g id="clust5" class="cluster">
<title>cluster_4</title>
<polygon fill="lightgray" stroke="lightgray" points="47.2,-526 47.2,-632 293.28,-632 293.28,-526 47.2,-526"/>
</g>
<g id="clust6" class="cluster">
<title>cluster_5</title>
<polygon fill="lightgray" stroke="lightgray" points="16,-412 16,-518 324.47,-518 324.47,-412 16,-412"/>
</g>
<g id="clust7" class="cluster">
<title>cluster_6</title>
<polygon fill="lightgray" stroke="lightgray" points="47.2,-298 47.2,-404 293.28,-404 293.28,-298 47.2,-298"/>
</g>
<g id="clust8" class="cluster">
<title>cluster_7</title>
<polygon fill="lightgray" stroke="lightgray" points="80.99,-184 80.99,-290 259.48,-290 259.48,-184 80.99,-184"/>
</g>
<g id="clust9" class="cluster">
<title>cluster_8</title>
<polygon fill="lightgray" stroke="lightgray" points="73.19,-16 73.19,-176 267.28,-176 267.28,-16 73.19,-16"/>
</g>
<!-- Apache&#45;1.1(1) -->
<g id="node1" class="node">
<title>Apache&#45;1.1(1)</title>
<ellipse fill="springgreen" stroke="springgreen" cx="170.24" cy="-1056" rx="51.99" ry="18"/>
<text text-anchor="middle" x="170.24" y="-1052.3" font-family="Times,serif" font-size="14.00">Apache&#45;1.1</text>
</g>
<!-- ASL 1.1(2) -->
<g id="node2" class="node">
<title>ASL 1.1(2)</title>
<ellipse fill="white" stroke="white" cx="170.24" cy="-996" rx="40.09" ry="18"/>
<text text-anchor="middle" x="170.24" y="-992.3" font-family="Times,serif" font-size="14.00">ASL 1.1</text>
</g>
<!-- Apache (v1.1)(2) -->
<g id="node3" class="node">
<title>Apache (v1.1)(2)</title>
<ellipse fill="white" stroke="white" cx="170.24" cy="-942" rx="61.99" ry="18"/>
<text text-anchor="middle" x="170.24" y="-938.3" font-family="Times,serif" font-size="14.00">Apache (v1.1)</text>
</g>
<!-- Apache Software License 1.1(2) -->
<g id="node4" class="node">
<title>Apache Software License 1.1(2)</title>
<ellipse fill="white" stroke="white" cx="170.24" cy="-888" rx="115.08" ry="18"/>
<text text-anchor="middle" x="170.24" y="-884.3" font-family="Times,serif" font-size="14.00">Apache Software License 1.1</text>
</g>
<!-- Apache Software License, Version 1.1(2) -->
<g id="node5" class="node">
<title>Apache Software License, Version 1.1(2)</title>
<ellipse fill="white" stroke="white" cx="170.24" cy="-834" rx="146.47" ry="18"/>
<text text-anchor="middle" x="170.24" y="-830.3" font-family="Times,serif" font-size="14.00">Apache Software License, Version 1.1</text>
</g>
<!-- Apache&#45;1.1(2) -->
<g id="node6" class="node">
<title>Apache&#45;1.1(2)</title>
<ellipse fill="springgreen" stroke="springgreen" cx="170.24" cy="-780" rx="51.99" ry="18"/>
<text text-anchor="middle" x="170.24" y="-776.3" font-family="Times,serif" font-size="14.00">Apache&#45;1.1</text>
</g>
<!-- Apache License 1.1(3) -->
<g id="node7" class="node">
<title>Apache License 1.1(3)</title>
<ellipse fill="white" stroke="white" cx="170.24" cy="-720" rx="81.49" ry="18"/>
<text text-anchor="middle" x="170.24" y="-716.3" font-family="Times,serif" font-size="14.00">Apache License 1.1</text>
</g>
<!-- Apache&#45;1.1(3) -->
<g id="node8" class="node">
<title>Apache&#45;1.1(3)</title>
<ellipse fill="springgreen" stroke="springgreen" cx="170.24" cy="-666" rx="51.99" ry="18"/>
<text text-anchor="middle" x="170.24" y="-662.3" font-family="Times,serif" font-size="14.00">Apache&#45;1.1</text>
</g>
<!-- Apache Software License 1.1(4) -->
<g id="node9" class="node">
<title>Apache Software License 1.1(4)</title>
<ellipse fill="white" stroke="white" cx="170.24" cy="-606" rx="115.08" ry="18"/>
<text text-anchor="middle" x="170.24" y="-602.3" font-family="Times,serif" font-size="14.00">Apache Software License 1.1</text>
</g>
<!-- Apache&#45;1.1(4) -->
<g id="node10" class="node">
<title>Apache&#45;1.1(4)</title>
<ellipse fill="springgreen" stroke="springgreen" cx="170.24" cy="-552" rx="51.99" ry="18"/>
<text text-anchor="middle" x="170.24" y="-548.3" font-family="Times,serif" font-size="14.00">Apache&#45;1.1</text>
</g>
<!-- Apache Software License, Version 1.1(5) -->
<g id="node11" class="node">
<title>Apache Software License, Version 1.1(5)</title>
<ellipse fill="white" stroke="white" cx="170.24" cy="-492" rx="146.47" ry="18"/>
<text text-anchor="middle" x="170.24" y="-488.3" font-family="Times,serif" font-size="14.00">Apache Software License, Version 1.1</text>
</g>
<!-- Apache&#45;1.1(5) -->
<g id="node12" class="node">
<title>Apache&#45;1.1(5)</title>
<ellipse fill="springgreen" stroke="springgreen" cx="170.24" cy="-438" rx="51.99" ry="18"/>
<text text-anchor="middle" x="170.24" y="-434.3" font-family="Times,serif" font-size="14.00">Apache&#45;1.1</text>
</g>
<!-- Apache Software License 1.1(6) -->
<g id="node13" class="node">
<title>Apache Software License 1.1(6)</title>
<ellipse fill="white" stroke="white" cx="170.24" cy="-378" rx="115.08" ry="18"/>
<text text-anchor="middle" x="170.24" y="-374.3" font-family="Times,serif" font-size="14.00">Apache Software License 1.1</text>
</g>
<!-- Apache&#45;1.1(6) -->
<g id="node14" class="node">
<title>Apache&#45;1.1(6)</title>
<ellipse fill="springgreen" stroke="springgreen" cx="170.24" cy="-324" rx="51.99" ry="18"/>
<text text-anchor="middle" x="170.24" y="-320.3" font-family="Times,serif" font-size="14.00">Apache&#45;1.1</text>
</g>
<!-- Apache License 1.1(7) -->
<g id="node15" class="node">
<title>Apache License 1.1(7)</title>
<ellipse fill="white" stroke="white" cx="170.24" cy="-264" rx="81.49" ry="18"/>
<text text-anchor="middle" x="170.24" y="-260.3" font-family="Times,serif" font-size="14.00">Apache License 1.1</text>
</g>
<!-- Apache&#45;1.1(7) -->
<g id="node16" class="node">
<title>Apache&#45;1.1(7)</title>
<ellipse fill="springgreen" stroke="springgreen" cx="170.24" cy="-210" rx="51.99" ry="18"/>
<text text-anchor="middle" x="170.24" y="-206.3" font-family="Times,serif" font-size="14.00">Apache&#45;1.1</text>
</g>
<!-- Apache 1.1(8) -->
<g id="node17" class="node">
<title>Apache 1.1(8)</title>
<ellipse fill="white" stroke="white" cx="170.24" cy="-150" rx="51.19" ry="18"/>
<text text-anchor="middle" x="170.24" y="-146.3" font-family="Times,serif" font-size="14.00">Apache 1.1</text>
</g>
<!-- Apache&#45;1.1(8) -->
<g id="node18" class="node">
<title>Apache&#45;1.1(8)</title>
<ellipse fill="springgreen" stroke="springgreen" cx="170.24" cy="-96" rx="51.99" ry="18"/>
<text text-anchor="middle" x="170.24" y="-92.3" font-family="Times,serif" font-size="14.00">Apache&#45;1.1</text>
</g>
<!-- scancode://apache&#45;1.1(8) -->
<g id="node19" class="node">
<title>scancode://apache&#45;1.1(8)</title>
<ellipse fill="white" stroke="white" cx="170.24" cy="-42" rx="89.08" ry="18"/>
<text text-anchor="middle" x="170.24" y="-38.3" font-family="Times,serif" font-size="14.00">scancode://apache&#45;1.1</text>
</g>
</g>
</svg>
