<?xml version="1.0" encoding="UTF-8" standalone="no"?>
<!DOCTYPE svg PUBLIC "-//W3C//DTD SVG 1.1//EN"
 "http://www.w3.org/Graphics/SVG/1.1/DTD/svg11.dtd">
<!-- Generated by graphviz version 7.0.0 (0)
 -->
<!-- Title: Apache&#45;2.0 Pages: 1 -->
<svg width="454pt" height="1610pt"
 viewBox="0.00 0.00 453.76 1610.00" xmlns="http://www.w3.org/2000/svg" xmlns:xlink="http://www.w3.org/1999/xlink">
<g id="graph0" class="graph" transform="scale(1 1) rotate(0) translate(4 1606)">
<title>Apache&#45;2.0</title>
<polygon fill="white" stroke="none" points="-4,4 -4,-1606 449.76,-1606 449.76,4 -4,4"/>
<g id="clust1" class="cluster">
<title>cluster_0</title>
<polygon fill="none" stroke="black" points="8,-8 8,-1594 437.76,-1594 437.76,-8 8,-8"/>
</g>
<g id="clust2" class="cluster">
<title>cluster_1</title>
<polygon fill="lightgray" stroke="lightgray" points="162.89,-1534 162.89,-1586 282.88,-1586 282.88,-1534 162.89,-1534"/>
</g>
<g id="clust3" class="cluster">
<title>cluster_2</title>
<polygon fill="lightgray" stroke="lightgray" points="99.84,-1204 99.84,-1526 345.92,-1526 345.92,-1204 99.84,-1204"/>
</g>
<g id="clust4" class="cluster">
<title>cluster_3</title>
<polygon fill="lightgray" stroke="lightgray" points="133.64,-1090 133.64,-1196 312.13,-1196 312.13,-1090 133.64,-1090"/>
</g>
<g id="clust5" class="cluster">
<title>cluster_4</title>
<polygon fill="lightgray" stroke="lightgray" points="162.89,-976 162.89,-1082 282.88,-1082 282.88,-976 162.89,-976"/>
</g>
<g id="clust6" class="cluster">
<title>cluster_5</title>
<polygon fill="lightgray" stroke="lightgray" points="133.64,-862 133.64,-968 312.13,-968 312.13,-862 133.64,-862"/>
</g>
<g id="clust7" class="cluster">
<title>cluster_6</title>
<polygon fill="lightgray" stroke="lightgray" points="99.84,-694 99.84,-854 345.92,-854 345.92,-694 99.84,-694"/>
</g>
<g id="clust8" class="cluster">
<title>cluster_7</title>
<polygon fill="lightgray" stroke="lightgray" points="16,-526 16,-686 429.76,-686 429.76,-526 16,-526"/>
</g>
<g id="clust9" class="cluster">
<title>cluster_8</title>
<polygon fill="lightgray" stroke="lightgray" points="99.84,-412 99.84,-518 345.92,-518 345.92,-412 99.84,-412"/>
</g>
<g id="clust10" class="cluster">
<title>cluster_9</title>
<polygon fill="lightgray" stroke="lightgray" points="133.64,-298 133.64,-404 312.13,-404 312.13,-298 133.64,-298"/>
</g>
<g id="clust11" class="cluster">
<title>cluster_10</title>
<polygon fill="lightgray" stroke="lightgray" points="125.84,-130 125.84,-290 319.92,-290 319.92,-130 125.84,-130"/>
</g>
<g id="clust12" class="cluster">
<title>cluster_11</title>
<polygon fill="lightgray" stroke="lightgray" points="133.64,-16 133.64,-122 312.13,-122 312.13,-16 133.64,-16"/>
</g>
<!-- Apache&#45;2.0(1) -->
<g id="node1" class="node">
<title>Apache&#45;2.0(1)</title>
<ellipse fill="springgreen" stroke="springgreen" cx="222.88" cy="-1560" rx="51.99" ry="18"/>
<text text-anchor="middle" x="222.88" y="-1556.3" font-family="Times,serif" font-size="14.00">Apache&#45;2.0</text>
</g>
<!-- ALv2(2) -->
<g id="node2" class="node">
<title>ALv2(2)</title>
<ellipse fill="white" stroke="white" cx="222.88" cy="-1500" rx="31.4" ry="18"/>
<text text-anchor="middle" x="222.88" y="-1496.3" font-family="Times,serif" font-size="14.00">ALv2</text>
</g>
<!-- ASL 2.0(2) -->
<g id="node3" class="node">
<title>ASL 2.0(2)</title>
<ellipse fill="white" stroke="white" cx="222.88" cy="-1446" rx="40.09" ry="18"/>
<text text-anchor="middle" x="222.88" y="-1442.3" font-family="Times,serif" font-size="14.00">ASL 2.0</text>
</g>
<!-- Apache (v2.0)(2) -->
<g id="node4" class="node">
<title>Apache (v2.0)(2)</title>
<ellipse fill="white" stroke="white" cx="222.88" cy="-1392" rx="61.99" ry="18"/>
<text text-anchor="middle" x="222.88" y="-1388.3" font-family="Times,serif" font-size="14.00">Apache (v2.0)</text>
</g>
<!-- Apache License, Version 2.0(2) -->
<g id="node5" class="node">
<title>Apache License, Version 2.0(2)</title>
<ellipse fill="white" stroke="white" cx="222.88" cy="-1338" rx="112.38" ry="18"/>
<text text-anchor="middle" x="222.88" y="-1334.3" font-family="Times,serif" font-size="14.00">Apache License, Version 2.0</text>
</g>
<!-- Apache Software License 2.0(2) -->
<g id="node6" class="node">
<title>Apache Software License 2.0(2)</title>
<ellipse fill="white" stroke="white" cx="222.88" cy="-1284" rx="115.08" ry="18"/>
<text text-anchor="middle" x="222.88" y="-1280.3" font-family="Times,serif" font-size="14.00">Apache Software License 2.0</text>
</g>
<!-- Apache&#45;2.0(2) -->
<g id="node7" class="node">
<title>Apache&#45;2.0(2)</title>
<ellipse fill="springgreen" stroke="springgreen" cx="222.88" cy="-1230" rx="51.99" ry="18"/>
<text text-anchor="middle" x="222.88" y="-1226.3" font-family="Times,serif" font-size="14.00">Apache&#45;2.0</text>
</g>
<!-- Apache License 2.0(3) -->
<g id="node8" class="node">
<title>Apache License 2.0(3)</title>
<ellipse fill="white" stroke="white" cx="222.88" cy="-1170" rx="81.49" ry="18"/>
<text text-anchor="middle" x="222.88" y="-1166.3" font-family="Times,serif" font-size="14.00">Apache License 2.0</text>
</g>
<!-- Apache&#45;2.0(3) -->
<g id="node9" class="node">
<title>Apache&#45;2.0(3)</title>
<ellipse fill="springgreen" stroke="springgreen" cx="222.88" cy="-1116" rx="51.99" ry="18"/>
<text text-anchor="middle" x="222.88" y="-1112.3" font-family="Times,serif" font-size="14.00">Apache&#45;2.0</text>
</g>
<!-- Apache&#45;2.0(4) -->
<g id="node10" class="node">
<title>Apache&#45;2.0(4)</title>
<ellipse fill="springgreen" stroke="springgreen" cx="222.88" cy="-1056" rx="51.99" ry="18"/>
<text text-anchor="middle" x="222.88" y="-1052.3" font-family="Times,serif" font-size="14.00">Apache&#45;2.0</text>
</g>
<!-- apache&#45;2.0(4) -->
<g id="node11" class="node">
<title>apache&#45;2.0(4)</title>
<ellipse fill="white" stroke="white" cx="222.88" cy="-1002" rx="49.29" ry="18"/>
<text text-anchor="middle" x="222.88" y="-998.3" font-family="Times,serif" font-size="14.00">apache&#45;2.0</text>
</g>
<!-- Apache License 2.0(5) -->
<g id="node12" class="node">
<title>Apache License 2.0(5)</title>
<ellipse fill="white" stroke="white" cx="222.88" cy="-942" rx="81.49" ry="18"/>
<text text-anchor="middle" x="222.88" y="-938.3" font-family="Times,serif" font-size="14.00">Apache License 2.0</text>
</g>
<!-- Apache&#45;2.0(5) -->
<g id="node13" class="node">
<title>Apache&#45;2.0(5)</title>
<ellipse fill="springgreen" stroke="springgreen" cx="222.88" cy="-888" rx="51.99" ry="18"/>
<text text-anchor="middle" x="222.88" y="-884.3" font-family="Times,serif" font-size="14.00">Apache&#45;2.0</text>
</g>
<!-- Apache Software License 2.0(6) -->
<g id="node14" class="node">
<title>Apache Software License 2.0(6)</title>
<ellipse fill="white" stroke="white" cx="222.88" cy="-828" rx="115.08" ry="18"/>
<text text-anchor="middle" x="222.88" y="-824.3" font-family="Times,serif" font-size="14.00">Apache Software License 2.0</text>
</g>
<!-- Apache&#45;2.0(6) -->
<g id="node15" class="node">
<title>Apache&#45;2.0(6)</title>
<ellipse fill="springgreen" stroke="springgreen" cx="222.88" cy="-774" rx="51.99" ry="18"/>
<text text-anchor="middle" x="222.88" y="-770.3" font-family="Times,serif" font-size="14.00">Apache&#45;2.0</text>
</g>
<!-- apache2.0(6) -->
<g id="node16" class="node">
<title>apache2.0(6)</title>
<ellipse fill="white" stroke="white" cx="222.88" cy="-720" rx="46.29" ry="18"/>
<text text-anchor="middle" x="222.88" y="-716.3" font-family="Times,serif" font-size="14.00">apache2.0</text>
</g>
<!-- Apache License, Version 2.0(7) -->
<g id="node17" class="node">
<title>Apache License, Version 2.0(7)</title>
<ellipse fill="white" stroke="white" cx="222.88" cy="-660" rx="112.38" ry="18"/>
<text text-anchor="middle" x="222.88" y="-656.3" font-family="Times,serif" font-size="14.00">Apache License, Version 2.0</text>
</g>
<!-- Apache&#45;2.0(7) -->
<g id="node18" class="node">
<title>Apache&#45;2.0(7)</title>
<ellipse fill="springgreen" stroke="springgreen" cx="222.88" cy="-606" rx="51.99" ry="18"/>
<text text-anchor="middle" x="222.88" y="-602.3" font-family="Times,serif" font-size="14.00">Apache&#45;2.0</text>
</g>
<!-- License :: OSI Approved :: Apache Software License(7) -->
<g id="node19" class="node">
<title>License :: OSI Approved :: Apache Software License(7)</title>
<ellipse fill="white" stroke="white" cx="222.88" cy="-552" rx="198.76" ry="18"/>
<text text-anchor="middle" x="222.88" y="-548.3" font-family="Times,serif" font-size="14.00">License :: OSI Approved :: Apache Software License</text>
</g>
<!-- Apache Software License 2.0(8) -->
<g id="node20" class="node">
<title>Apache Software License 2.0(8)</title>
<ellipse fill="white" stroke="white" cx="222.88" cy="-492" rx="115.08" ry="18"/>
<text text-anchor="middle" x="222.88" y="-488.3" font-family="Times,serif" font-size="14.00">Apache Software License 2.0</text>
</g>
<!-- Apache&#45;2.0(8) -->
<g id="node21" class="node">
<title>Apache&#45;2.0(8)</title>
<ellipse fill="springgreen" stroke="springgreen" cx="222.88" cy="-438" rx="51.99" ry="18"/>
<text text-anchor="middle" x="222.88" y="-434.3" font-family="Times,serif" font-size="14.00">Apache&#45;2.0</text>
</g>
<!-- Apache License 2.0(9) -->
<g id="node22" class="node">
<title>Apache License 2.0(9)</title>
<ellipse fill="white" stroke="white" cx="222.88" cy="-378" rx="81.49" ry="18"/>
<text text-anchor="middle" x="222.88" y="-374.3" font-family="Times,serif" font-size="14.00">Apache License 2.0</text>
</g>
<!-- Apache&#45;2.0(9) -->
<g id="node23" class="node">
<title>Apache&#45;2.0(9)</title>
<ellipse fill="springgreen" stroke="springgreen" cx="222.88" cy="-324" rx="51.99" ry="18"/>
<text text-anchor="middle" x="222.88" y="-320.3" font-family="Times,serif" font-size="14.00">Apache&#45;2.0</text>
</g>
<!-- Apache 2.0(10) -->
<g id="node24" class="node">
<title>Apache 2.0(10)</title>
<ellipse fill="white" stroke="white" cx="222.88" cy="-264" rx="51.19" ry="18"/>
<text text-anchor="middle" x="222.88" y="-260.3" font-family="Times,serif" font-size="14.00">Apache 2.0</text>
</g>
<!-- Apache&#45;2.0(10) -->
<g id="node25" class="node">
<title>Apache&#45;2.0(10)</title>
<ellipse fill="springgreen" stroke="springgreen" cx="222.88" cy="-210" rx="51.99" ry="18"/>
<text text-anchor="middle" x="222.88" y="-206.3" font-family="Times,serif" font-size="14.00">Apache&#45;2.0</text>
</g>
<!-- scancode://apache&#45;2.0(10) -->
<g id="node26" class="node">
<title>scancode://apache&#45;2.0(10)</title>
<ellipse fill="white" stroke="white" cx="222.88" cy="-156" rx="89.08" ry="18"/>
<text text-anchor="middle" x="222.88" y="-152.3" font-family="Times,serif" font-size="14.00">scancode://apache&#45;2.0</text>
</g>
<!-- Apache License 2.0(11) -->
<g id="node27" class="node">
<title>Apache License 2.0(11)</title>
<ellipse fill="white" stroke="white" cx="222.88" cy="-96" rx="81.49" ry="18"/>
<text text-anchor="middle" x="222.88" y="-92.3" font-family="Times,serif" font-size="14.00">Apache License 2.0</text>
</g>
<!-- Apache&#45;2.0(11) -->
<g id="node28" class="node">
<title>Apache&#45;2.0(11)</title>
<ellipse fill="springgreen" stroke="springgreen" cx="222.88" cy="-42" rx="51.99" ry="18"/>
<text text-anchor="middle" x="222.88" y="-38.3" font-family="Times,serif" font-size="14.00">Apache&#45;2.0</text>
</g>
</g>
</svg>
