<?xml version="1.0" encoding="UTF-8" standalone="no"?>
<!DOCTYPE svg PUBLIC "-//W3C//DTD SVG 1.1//EN"
 "http://www.w3.org/Graphics/SVG/1.1/DTD/svg11.dtd">
<!-- Generated by graphviz version 2.43.0 (0)
 -->
<!-- Title: Apache&#45;2.0 Pages: 1 -->
<svg width="541pt" height="1334pt"
 viewBox="0.00 0.00 540.86 1334.00" xmlns="http://www.w3.org/2000/svg" xmlns:xlink="http://www.w3.org/1999/xlink">
<g id="graph0" class="graph" transform="scale(1 1) rotate(0) translate(4 1330)">
<title>Apache&#45;2.0</title>
<polygon fill="white" stroke="transparent" points="-4,4 -4,-1330 536.86,-1330 536.86,4 -4,4"/>
<g id="clust1" class="cluster">
<title>cluster_0</title>
<polygon fill="none" stroke="black" points="8,-8 8,-1318 524.86,-1318 524.86,-8 8,-8"/>
</g>
<g id="clust2" class="cluster">
<title>cluster_1</title>
<polygon fill="lightgray" stroke="lightgray" points="196.03,-1258 196.03,-1310 336.82,-1310 336.82,-1258 196.03,-1258"/>
</g>
<g id="clust3" class="cluster">
<title>cluster_2</title>
<polygon fill="lightgray" stroke="lightgray" points="159.64,-1144 159.64,-1250 373.22,-1250 373.22,-1144 159.64,-1144"/>
</g>
<g id="clust4" class="cluster">
<title>cluster_3</title>
<polygon fill="lightgray" stroke="lightgray" points="159.64,-1030 159.64,-1136 373.22,-1136 373.22,-1030 159.64,-1030"/>
</g>
<g id="clust5" class="cluster">
<title>cluster_4</title>
<polygon fill="lightgray" stroke="lightgray" points="145.99,-862 145.99,-1022 386.87,-1022 386.87,-862 145.99,-862"/>
</g>
<g id="clust6" class="cluster">
<title>cluster_5</title>
<polygon fill="lightgray" stroke="lightgray" points="196.03,-748 196.03,-854 336.82,-854 336.82,-748 196.03,-748"/>
</g>
<g id="clust7" class="cluster">
<title>cluster_6</title>
<polygon fill="lightgray" stroke="lightgray" points="16,-580 16,-740 516.86,-740 516.86,-580 16,-580"/>
</g>
<g id="clust8" class="cluster">
<title>cluster_7</title>
<polygon fill="lightgray" stroke="lightgray" points="118.04,-466 118.04,-572 414.82,-572 414.82,-466 118.04,-466"/>
</g>
<g id="clust9" class="cluster">
<title>cluster_8</title>
<polygon fill="lightgray" stroke="lightgray" points="159.64,-352 159.64,-458 373.22,-458 373.22,-352 159.64,-352"/>
</g>
<g id="clust10" class="cluster">
<title>cluster_9</title>
<polygon fill="lightgray" stroke="lightgray" points="118.04,-238 118.04,-344 414.82,-344 414.82,-238 118.04,-238"/>
</g>
<g id="clust11" class="cluster">
<title>cluster_10</title>
<polygon fill="lightgray" stroke="lightgray" points="118.04,-16 118.04,-230 414.82,-230 414.82,-16 118.04,-16"/>
</g>
<!-- Apache&#45;2.0(1) -->
<g id="node1" class="node">
<title>Apache&#45;2.0(1)</title>
<ellipse fill="springgreen" stroke="springgreen" cx="266.43" cy="-1284" rx="62.29" ry="18"/>
<text text-anchor="middle" x="266.43" y="-1280.3" font-family="Times-Roman" font-size="14.00">Apache&#45;2.0</text>
</g>
<!-- Apache License 2.0(2) -->
<g id="node2" class="node">
<title>Apache License 2.0(2)</title>
<ellipse fill="white" stroke="white" cx="266.43" cy="-1224" rx="98.58" ry="18"/>
<text text-anchor="middle" x="266.43" y="-1220.3" font-family="Times-Roman" font-size="14.00">Apache License 2.0</text>
</g>
<!-- Apache&#45;2.0(2) -->
<g id="node3" class="node">
<title>Apache&#45;2.0(2)</title>
<ellipse fill="springgreen" stroke="springgreen" cx="266.43" cy="-1170" rx="62.29" ry="18"/>
<text text-anchor="middle" x="266.43" y="-1166.3" font-family="Times-Roman" font-size="14.00">Apache&#45;2.0</text>
</g>
<!-- Apache License 2.0(3) -->
<g id="node4" class="node">
<title>Apache License 2.0(3)</title>
<ellipse fill="white" stroke="white" cx="266.43" cy="-1110" rx="98.58" ry="18"/>
<text text-anchor="middle" x="266.43" y="-1106.3" font-family="Times-Roman" font-size="14.00">Apache License 2.0</text>
</g>
<!-- Apache&#45;2.0(3) -->
<g id="node5" class="node">
<title>Apache&#45;2.0(3)</title>
<ellipse fill="springgreen" stroke="springgreen" cx="266.43" cy="-1056" rx="62.29" ry="18"/>
<text text-anchor="middle" x="266.43" y="-1052.3" font-family="Times-Roman" font-size="14.00">Apache&#45;2.0</text>
</g>
<!-- Apache 2.0(4) -->
<g id="node6" class="node">
<title>Apache 2.0(4)</title>
<ellipse fill="white" stroke="white" cx="266.43" cy="-996" rx="61.99" ry="18"/>
<text text-anchor="middle" x="266.43" y="-992.3" font-family="Times-Roman" font-size="14.00">Apache 2.0</text>
</g>
<!-- Apache&#45;2.0(4) -->
<g id="node7" class="node">
<title>Apache&#45;2.0(4)</title>
<ellipse fill="springgreen" stroke="springgreen" cx="266.43" cy="-942" rx="62.29" ry="18"/>
<text text-anchor="middle" x="266.43" y="-938.3" font-family="Times-Roman" font-size="14.00">Apache&#45;2.0</text>
</g>
<!-- scancode://apache&#45;2.0(4) -->
<g id="node8" class="node">
<title>scancode://apache&#45;2.0(4)</title>
<ellipse fill="white" stroke="white" cx="266.43" cy="-888" rx="112.38" ry="18"/>
<text text-anchor="middle" x="266.43" y="-884.3" font-family="Times-Roman" font-size="14.00">scancode://apache&#45;2.0</text>
</g>
<!-- Apache&#45;2.0(5) -->
<g id="node9" class="node">
<title>Apache&#45;2.0(5)</title>
<ellipse fill="springgreen" stroke="springgreen" cx="266.43" cy="-828" rx="62.29" ry="18"/>
<text text-anchor="middle" x="266.43" y="-824.3" font-family="Times-Roman" font-size="14.00">Apache&#45;2.0</text>
</g>
<!-- apache&#45;2.0(5) -->
<g id="node10" class="node">
<title>apache&#45;2.0(5)</title>
<ellipse fill="white" stroke="white" cx="266.43" cy="-774" rx="61.99" ry="18"/>
<text text-anchor="middle" x="266.43" y="-770.3" font-family="Times-Roman" font-size="14.00">apache&#45;2.0</text>
</g>
<!-- Apache License, Version 2.0(6) -->
<g id="node11" class="node">
<title>Apache License, Version 2.0(6)</title>
<ellipse fill="white" stroke="white" cx="266.43" cy="-714" rx="137.58" ry="18"/>
<text text-anchor="middle" x="266.43" y="-710.3" font-family="Times-Roman" font-size="14.00">Apache License, Version 2.0</text>
</g>
<!-- Apache&#45;2.0(6) -->
<g id="node12" class="node">
<title>Apache&#45;2.0(6)</title>
<ellipse fill="springgreen" stroke="springgreen" cx="266.43" cy="-660" rx="62.29" ry="18"/>
<text text-anchor="middle" x="266.43" y="-656.3" font-family="Times-Roman" font-size="14.00">Apache&#45;2.0</text>
</g>
<!-- License :: OSI Approved :: Apache Software License(6) -->
<g id="node13" class="node">
<title>License :: OSI Approved :: Apache Software License(6)</title>
<ellipse fill="white" stroke="white" cx="266.43" cy="-606" rx="242.36" ry="18"/>
<text text-anchor="middle" x="266.43" y="-602.3" font-family="Times-Roman" font-size="14.00">License :: OSI Approved :: Apache Software License</text>
</g>
<!-- Apache Software License 2.0(7) -->
<g id="node14" class="node">
<title>Apache Software License 2.0(7)</title>
<ellipse fill="white" stroke="white" cx="266.43" cy="-546" rx="140.28" ry="18"/>
<text text-anchor="middle" x="266.43" y="-542.3" font-family="Times-Roman" font-size="14.00">Apache Software License 2.0</text>
</g>
<!-- Apache&#45;2.0(7) -->
<g id="node15" class="node">
<title>Apache&#45;2.0(7)</title>
<ellipse fill="springgreen" stroke="springgreen" cx="266.43" cy="-492" rx="62.29" ry="18"/>
<text text-anchor="middle" x="266.43" y="-488.3" font-family="Times-Roman" font-size="14.00">Apache&#45;2.0</text>
</g>
<!-- Apache License 2.0(8) -->
<g id="node16" class="node">
<title>Apache License 2.0(8)</title>
<ellipse fill="white" stroke="white" cx="266.43" cy="-432" rx="98.58" ry="18"/>
<text text-anchor="middle" x="266.43" y="-428.3" font-family="Times-Roman" font-size="14.00">Apache License 2.0</text>
</g>
<!-- Apache&#45;2.0(8) -->
<g id="node17" class="node">
<title>Apache&#45;2.0(8)</title>
<ellipse fill="springgreen" stroke="springgreen" cx="266.43" cy="-378" rx="62.29" ry="18"/>
<text text-anchor="middle" x="266.43" y="-374.3" font-family="Times-Roman" font-size="14.00">Apache&#45;2.0</text>
</g>
<!-- Apache Software License 2.0(9) -->
<g id="node18" class="node">
<title>Apache Software License 2.0(9)</title>
<ellipse fill="white" stroke="white" cx="266.43" cy="-318" rx="140.28" ry="18"/>
<text text-anchor="middle" x="266.43" y="-314.3" font-family="Times-Roman" font-size="14.00">Apache Software License 2.0</text>
</g>
<!-- Apache&#45;2.0(9) -->
<g id="node19" class="node">
<title>Apache&#45;2.0(9)</title>
<ellipse fill="springgreen" stroke="springgreen" cx="266.43" cy="-264" rx="62.29" ry="18"/>
<text text-anchor="middle" x="266.43" y="-260.3" font-family="Times-Roman" font-size="14.00">Apache&#45;2.0</text>
</g>
<!-- ASL 2.0(10) -->
<g id="node20" class="node">
<title>ASL 2.0(10)</title>
<ellipse fill="white" stroke="white" cx="266.43" cy="-204" rx="45.49" ry="18"/>
<text text-anchor="middle" x="266.43" y="-200.3" font-family="Times-Roman" font-size="14.00">ASL 2.0</text>
</g>
<!-- Apache (v2.0)(10) -->
<g id="node21" class="node">
<title>Apache (v2.0)(10)</title>
<ellipse fill="white" stroke="white" cx="266.43" cy="-150" rx="74.19" ry="18"/>
<text text-anchor="middle" x="266.43" y="-146.3" font-family="Times-Roman" font-size="14.00">Apache (v2.0)</text>
</g>
<!-- Apache Software License 2.0(10) -->
<g id="node22" class="node">
<title>Apache Software License 2.0(10)</title>
<ellipse fill="white" stroke="white" cx="266.43" cy="-96" rx="140.28" ry="18"/>
<text text-anchor="middle" x="266.43" y="-92.3" font-family="Times-Roman" font-size="14.00">Apache Software License 2.0</text>
</g>
<!-- Apache&#45;2.0(10) -->
<g id="node23" class="node">
<title>Apache&#45;2.0(10)</title>
<ellipse fill="springgreen" stroke="springgreen" cx="266.43" cy="-42" rx="62.29" ry="18"/>
<text text-anchor="middle" x="266.43" y="-38.3" font-family="Times-Roman" font-size="14.00">Apache&#45;2.0</text>
</g>
</g>
</svg>
