<?xml version="1.0" encoding="UTF-8" standalone="no"?>
<!DOCTYPE svg PUBLIC "-//W3C//DTD SVG 1.1//EN"
 "http://www.w3.org/Graphics/SVG/1.1/DTD/svg11.dtd">
<!-- Generated by graphviz version 7.0.0 (0)
 -->
<!-- Title: APSL&#45;2.0 Pages: 1 -->
<svg width="478pt" height="884pt"
 viewBox="0.00 0.00 478.46 884.00" xmlns="http://www.w3.org/2000/svg" xmlns:xlink="http://www.w3.org/1999/xlink">
<g id="graph0" class="graph" transform="scale(1 1) rotate(0) translate(4 880)">
<title>APSL&#45;2.0</title>
<polygon fill="white" stroke="none" points="-4,4 -4,-880 474.46,-880 474.46,4 -4,4"/>
<g id="clust1" class="cluster">
<title>cluster_0</title>
<polygon fill="none" stroke="black" points="8,-8 8,-868 462.46,-868 462.46,-8 8,-8"/>
</g>
<g id="clust2" class="cluster">
<title>cluster_1</title>
<polygon fill="lightgray" stroke="lightgray" points="181.09,-808 181.09,-860 289.38,-860 289.38,-808 181.09,-808"/>
</g>
<g id="clust3" class="cluster">
<title>cluster_2</title>
<polygon fill="lightgray" stroke="lightgray" points="99.84,-694 99.84,-800 370.62,-800 370.62,-694 99.84,-694"/>
</g>
<g id="clust4" class="cluster">
<title>cluster_3</title>
<polygon fill="lightgray" stroke="lightgray" points="99.84,-580 99.84,-686 370.62,-686 370.62,-580 99.84,-580"/>
</g>
<g id="clust5" class="cluster">
<title>cluster_4</title>
<polygon fill="lightgray" stroke="lightgray" points="99.84,-466 99.84,-572 370.62,-572 370.62,-466 99.84,-466"/>
</g>
<g id="clust6" class="cluster">
<title>cluster_5</title>
<polygon fill="lightgray" stroke="lightgray" points="16,-298 16,-458 454.46,-458 454.46,-298 16,-298"/>
</g>
<g id="clust7" class="cluster">
<title>cluster_6</title>
<polygon fill="lightgray" stroke="lightgray" points="99.84,-184 99.84,-290 370.62,-290 370.62,-184 99.84,-184"/>
</g>
<g id="clust8" class="cluster">
<title>cluster_7</title>
<polygon fill="lightgray" stroke="lightgray" points="148.59,-16 148.59,-176 321.87,-176 321.87,-16 148.59,-16"/>
</g>
<!-- APSL&#45;2.0(1) -->
<g id="node1" class="node">
<title>APSL&#45;2.0(1)</title>
<ellipse fill="springgreen" stroke="springgreen" cx="235.23" cy="-834" rx="46.29" ry="18"/>
<text text-anchor="middle" x="235.23" y="-830.3" font-family="Times,serif" font-size="14.00">APSL&#45;2.0</text>
</g>
<!-- APSL&#45;2.0(2) -->
<g id="node2" class="node">
<title>APSL&#45;2.0(2)</title>
<ellipse fill="springgreen" stroke="springgreen" cx="235.23" cy="-774" rx="46.29" ry="18"/>
<text text-anchor="middle" x="235.23" y="-770.3" font-family="Times,serif" font-size="14.00">APSL&#45;2.0</text>
</g>
<!-- Apple Public Source License 2.0(2) -->
<g id="node3" class="node">
<title>Apple Public Source License 2.0(2)</title>
<ellipse fill="white" stroke="white" cx="235.23" cy="-720" rx="127.28" ry="18"/>
<text text-anchor="middle" x="235.23" y="-716.3" font-family="Times,serif" font-size="14.00">Apple Public Source License 2.0</text>
</g>
<!-- APSL&#45;2.0(3) -->
<g id="node4" class="node">
<title>APSL&#45;2.0(3)</title>
<ellipse fill="springgreen" stroke="springgreen" cx="235.23" cy="-660" rx="46.29" ry="18"/>
<text text-anchor="middle" x="235.23" y="-656.3" font-family="Times,serif" font-size="14.00">APSL&#45;2.0</text>
</g>
<!-- Apple Public Source License 2.0(3) -->
<g id="node5" class="node">
<title>Apple Public Source License 2.0(3)</title>
<ellipse fill="white" stroke="white" cx="235.23" cy="-606" rx="127.28" ry="18"/>
<text text-anchor="middle" x="235.23" y="-602.3" font-family="Times,serif" font-size="14.00">Apple Public Source License 2.0</text>
</g>
<!-- APSL&#45;2.0(4) -->
<g id="node6" class="node">
<title>APSL&#45;2.0(4)</title>
<ellipse fill="springgreen" stroke="springgreen" cx="235.23" cy="-546" rx="46.29" ry="18"/>
<text text-anchor="middle" x="235.23" y="-542.3" font-family="Times,serif" font-size="14.00">APSL&#45;2.0</text>
</g>
<!-- Apple Public Source License 2.0(4) -->
<g id="node7" class="node">
<title>Apple Public Source License 2.0(4)</title>
<ellipse fill="white" stroke="white" cx="235.23" cy="-492" rx="127.28" ry="18"/>
<text text-anchor="middle" x="235.23" y="-488.3" font-family="Times,serif" font-size="14.00">Apple Public Source License 2.0</text>
</g>
<!-- APSL&#45;2.0(5) -->
<g id="node8" class="node">
<title>APSL&#45;2.0(5)</title>
<ellipse fill="springgreen" stroke="springgreen" cx="235.23" cy="-432" rx="46.29" ry="18"/>
<text text-anchor="middle" x="235.23" y="-428.3" font-family="Times,serif" font-size="14.00">APSL&#45;2.0</text>
</g>
<!-- Apple Public Source License, Version 2.0(5) -->
<g id="node9" class="node">
<title>Apple Public Source License, Version 2.0(5)</title>
<ellipse fill="white" stroke="white" cx="235.23" cy="-378" rx="158.67" ry="18"/>
<text text-anchor="middle" x="235.23" y="-374.3" font-family="Times,serif" font-size="14.00">Apple Public Source License, Version 2.0</text>
</g>
<!-- License :: OSI Approved :: Apple Public Source License(5) -->
<g id="node10" class="node">
<title>License :: OSI Approved :: Apple Public Source License(5)</title>
<ellipse fill="white" stroke="white" cx="235.23" cy="-324" rx="211.46" ry="18"/>
<text text-anchor="middle" x="235.23" y="-320.3" font-family="Times,serif" font-size="14.00">License :: OSI Approved :: Apple Public Source License</text>
</g>
<!-- APSL&#45;2.0(6) -->
<g id="node11" class="node">
<title>APSL&#45;2.0(6)</title>
<ellipse fill="springgreen" stroke="springgreen" cx="235.23" cy="-264" rx="46.29" ry="18"/>
<text text-anchor="middle" x="235.23" y="-260.3" font-family="Times,serif" font-size="14.00">APSL&#45;2.0</text>
</g>
<!-- Apple Public Source License 2.0(6) -->
<g id="node12" class="node">
<title>Apple Public Source License 2.0(6)</title>
<ellipse fill="white" stroke="white" cx="235.23" cy="-210" rx="127.28" ry="18"/>
<text text-anchor="middle" x="235.23" y="-206.3" font-family="Times,serif" font-size="14.00">Apple Public Source License 2.0</text>
</g>
<!-- APSL 2.0(7) -->
<g id="node13" class="node">
<title>APSL 2.0(7)</title>
<ellipse fill="white" stroke="white" cx="235.23" cy="-150" rx="45.49" ry="18"/>
<text text-anchor="middle" x="235.23" y="-146.3" font-family="Times,serif" font-size="14.00">APSL 2.0</text>
</g>
<!-- APSL&#45;2.0(7) -->
<g id="node14" class="node">
<title>APSL&#45;2.0(7)</title>
<ellipse fill="springgreen" stroke="springgreen" cx="235.23" cy="-96" rx="46.29" ry="18"/>
<text text-anchor="middle" x="235.23" y="-92.3" font-family="Times,serif" font-size="14.00">APSL&#45;2.0</text>
</g>
<!-- scancode://apsl&#45;2.0(7) -->
<g id="node15" class="node">
<title>scancode://apsl&#45;2.0(7)</title>
<ellipse fill="white" stroke="white" cx="235.23" cy="-42" rx="78.79" ry="18"/>
<text text-anchor="middle" x="235.23" y="-38.3" font-family="Times,serif" font-size="14.00">scancode://apsl&#45;2.0</text>
</g>
</g>
</svg>
