<?xml version="1.0" encoding="UTF-8" standalone="no"?>
<!DOCTYPE svg PUBLIC "-//W3C//DTD SVG 1.1//EN"
 "http://www.w3.org/Graphics/SVG/1.1/DTD/svg11.dtd">
<!-- Generated by graphviz version 2.43.0 (0)
 -->
<!-- Title: APSL&#45;1.1 Pages: 1 -->
<svg width="877pt" height="98pt"
 viewBox="0.00 0.00 877.00 98.43" xmlns="http://www.w3.org/2000/svg" xmlns:xlink="http://www.w3.org/1999/xlink">
<g id="graph0" class="graph" transform="scale(1 1) rotate(0) translate(4 94.43)">
<title>APSL&#45;1.1</title>
<polygon fill="white" stroke="transparent" points="-4,4 -4,-94.43 873,-94.43 873,4 -4,4"/>
<g id="clust1" class="cluster">
<title>cluster_0</title>
<polygon fill="none" stroke="black" points="8,-8 8,-82.43 861,-82.43 861,-8 8,-8"/>
</g>
<g id="clust2" class="cluster">
<title>cluster_1</title>
<polygon fill="lightgray" stroke="lightgray" points="689,-16 689,-74.43 853,-74.43 853,-16 689,-16"/>
</g>
<g id="clust3" class="cluster">
<title>cluster_2</title>
<polygon fill="lightgray" stroke="lightgray" points="357,-19.21 357,-71.21 681,-71.21 681,-19.21 357,-19.21"/>
</g>
<g id="clust4" class="cluster">
<title>cluster_3</title>
<polygon fill="lightgray" stroke="lightgray" points="16,-19.21 16,-71.21 349,-71.21 349,-19.21 16,-19.21"/>
</g>
<!-- APSL&#45;1.1 -->
<g id="node1" class="node">
<title>APSL&#45;1.1</title>
<ellipse fill="lightseagreen" stroke="lightseagreen" cx="771" cy="-45.21" rx="73.58" ry="21.43"/>
<text text-anchor="middle" x="771" y="-40.21" font-family="Times-Roman" font-size="20.00">APSL&#45;1.1</text>
</g>
<!-- Apple Public Source License 1.1 -->
<g id="node2" class="node">
<title>Apple Public Source License 1.1</title>
<ellipse fill="white" stroke="white" cx="519" cy="-45.21" rx="154.07" ry="18"/>
<text text-anchor="middle" x="519" y="-41.51" font-family="Times-Roman" font-size="14.00">Apple Public Source License 1.1</text>
</g>
<!-- APSL 1.1 -->
<g id="node3" class="node">
<title>APSL 1.1</title>
<ellipse fill="white" stroke="white" cx="290" cy="-45.21" rx="50.89" ry="18"/>
<text text-anchor="middle" x="290" y="-41.51" font-family="Times-Roman" font-size="14.00">APSL 1.1</text>
</g>
<!-- scancode://apsl&#45;1.1 -->
<g id="node4" class="node">
<title>scancode://apsl&#45;1.1</title>
<ellipse fill="white" stroke="white" cx="123" cy="-45.21" rx="98.58" ry="18"/>
<text text-anchor="middle" x="123" y="-41.51" font-family="Times-Roman" font-size="14.00">scancode://apsl&#45;1.1</text>
</g>
</g>
</svg>
