<?xml version="1.0" encoding="UTF-8" standalone="no"?>
<!DOCTYPE svg PUBLIC "-//W3C//DTD SVG 1.1//EN"
 "http://www.w3.org/Graphics/SVG/1.1/DTD/svg11.dtd">
<!-- Generated by graphviz version 2.43.0 (0)
 -->
<!-- Title: Bahyph Pages: 1 -->
<svg width="550pt" height="115pt"
 viewBox="0.00 0.00 550.00 115.00" xmlns="http://www.w3.org/2000/svg" xmlns:xlink="http://www.w3.org/1999/xlink">
<g id="graph0" class="graph" transform="scale(1 1) rotate(0) translate(4 111)">
<title>Bahyph</title>
<polygon fill="white" stroke="transparent" points="-4,4 -4,-111 546,-111 546,4 -4,4"/>
<g id="clust1" class="cluster">
<title>cluster_0</title>
<polygon fill="none" stroke="black" points="8,-8 8,-99 534,-99 534,-8 8,-8"/>
</g>
<g id="clust2" class="cluster">
<title>cluster_1</title>
<polygon fill="lightgray" stroke="lightgray" points="420,-16 420,-91 526,-91 526,-16 420,-16"/>
<text text-anchor="middle" x="473" y="-75.8" font-family="Times-Roman" font-size="14.00">process #1</text>
</g>
<g id="clust3" class="cluster">
<title>cluster_2</title>
<polygon fill="lightgray" stroke="lightgray" points="232,-16 232,-91 412,-91 412,-16 232,-16"/>
<text text-anchor="middle" x="322" y="-75.8" font-family="Times-Roman" font-size="14.00">process #1</text>
</g>
<g id="clust5" class="cluster">
<title>cluster_4</title>
<polygon fill="lightgray" stroke="lightgray" points="16,-16 16,-91 224,-91 224,-16 16,-16"/>
<text text-anchor="middle" x="120" y="-75.8" font-family="Times-Roman" font-size="14.00">process #1</text>
</g>
<!-- Bahyph -->
<g id="node1" class="node">
<title>Bahyph</title>
<ellipse fill="white" stroke="white" cx="473" cy="-42" rx="45.49" ry="18"/>
<text text-anchor="middle" x="473" y="-38.3" font-family="Times-Roman" font-size="14.00">Bahyph</text>
</g>
<!-- Bahyph License -->
<g id="node2" class="node">
<title>Bahyph License</title>
<ellipse fill="white" stroke="white" cx="322" cy="-42" rx="81.79" ry="18"/>
<text text-anchor="middle" x="322" y="-38.3" font-family="Times-Roman" font-size="14.00">Bahyph License</text>
</g>
<!-- scancode://bahyph -->
<g id="node3" class="node">
<title>scancode://bahyph</title>
<ellipse fill="white" stroke="white" cx="120" cy="-42" rx="96.38" ry="18"/>
<text text-anchor="middle" x="120" y="-38.3" font-family="Times-Roman" font-size="14.00">scancode://bahyph</text>
</g>
</g>
</svg>
