<?xml version="1.0" encoding="UTF-8" standalone="no"?>
<!DOCTYPE svg PUBLIC "-//W3C//DTD SVG 1.1//EN"
 "http://www.w3.org/Graphics/SVG/1.1/DTD/svg11.dtd">
<!-- Generated by graphviz version 2.49.3 (0)
 -->
<!-- Title: Bahyph Pages: 1 -->
<svg width="208pt" height="488pt"
 viewBox="0.00 0.00 208.09 488.00" xmlns="http://www.w3.org/2000/svg" xmlns:xlink="http://www.w3.org/1999/xlink">
<g id="graph0" class="graph" transform="scale(1 1) rotate(0) translate(4 484)">
<title>Bahyph</title>
<polygon fill="white" stroke="transparent" points="-4,4 -4,-484 204.09,-484 204.09,4 -4,4"/>
<g id="clust1" class="cluster">
<title>cluster_0</title>
<polygon fill="none" stroke="black" points="8,-8 8,-472 192.09,-472 192.09,-8 8,-8"/>
</g>
<g id="clust2" class="cluster">
<title>cluster_1</title>
<polygon fill="lightgray" stroke="lightgray" points="53.7,-412 53.7,-464 146.39,-464 146.39,-412 53.7,-412"/>
</g>
<g id="clust3" class="cluster">
<title>cluster_2</title>
<polygon fill="lightgray" stroke="lightgray" points="24.45,-298 24.45,-404 175.64,-404 175.64,-298 24.45,-298"/>
</g>
<g id="clust4" class="cluster">
<title>cluster_3</title>
<polygon fill="lightgray" stroke="lightgray" points="24.45,-184 24.45,-290 175.64,-290 175.64,-184 24.45,-184"/>
</g>
<g id="clust5" class="cluster">
<title>cluster_4</title>
<polygon fill="lightgray" stroke="lightgray" points="16,-16 16,-176 184.09,-176 184.09,-16 16,-16"/>
</g>
<!-- Bahyph(1) -->
<g id="node1" class="node">
<title>Bahyph(1)</title>
<ellipse fill="springgreen" stroke="springgreen" cx="100.04" cy="-438" rx="38.19" ry="18"/>
<text text-anchor="middle" x="100.04" y="-434.3" font-family="Times,serif" font-size="14.00">Bahyph</text>
</g>
<!-- Bahyph(2) -->
<g id="node2" class="node">
<title>Bahyph(2)</title>
<ellipse fill="springgreen" stroke="springgreen" cx="100.04" cy="-378" rx="38.19" ry="18"/>
<text text-anchor="middle" x="100.04" y="-374.3" font-family="Times,serif" font-size="14.00">Bahyph</text>
</g>
<!-- Bahyph License(2) -->
<g id="node3" class="node">
<title>Bahyph License(2)</title>
<ellipse fill="white" stroke="white" cx="100.04" cy="-324" rx="67.69" ry="18"/>
<text text-anchor="middle" x="100.04" y="-320.3" font-family="Times,serif" font-size="14.00">Bahyph License</text>
</g>
<!-- Bahyph(3) -->
<g id="node4" class="node">
<title>Bahyph(3)</title>
<ellipse fill="springgreen" stroke="springgreen" cx="100.04" cy="-264" rx="38.19" ry="18"/>
<text text-anchor="middle" x="100.04" y="-260.3" font-family="Times,serif" font-size="14.00">Bahyph</text>
</g>
<!-- Bahyph License(3) -->
<g id="node5" class="node">
<title>Bahyph License(3)</title>
<ellipse fill="white" stroke="white" cx="100.04" cy="-210" rx="67.69" ry="18"/>
<text text-anchor="middle" x="100.04" y="-206.3" font-family="Times,serif" font-size="14.00">Bahyph License</text>
</g>
<!-- Bahyph(4) -->
<g id="node6" class="node">
<title>Bahyph(4)</title>
<ellipse fill="springgreen" stroke="springgreen" cx="100.04" cy="-150" rx="38.19" ry="18"/>
<text text-anchor="middle" x="100.04" y="-146.3" font-family="Times,serif" font-size="14.00">Bahyph</text>
</g>
<!-- Bahyph License(4) -->
<g id="node7" class="node">
<title>Bahyph License(4)</title>
<ellipse fill="white" stroke="white" cx="100.04" cy="-96" rx="67.69" ry="18"/>
<text text-anchor="middle" x="100.04" y="-92.3" font-family="Times,serif" font-size="14.00">Bahyph License</text>
</g>
<!-- scancode://bahyph(4) -->
<g id="node8" class="node">
<title>scancode://bahyph(4)</title>
<ellipse fill="white" stroke="white" cx="100.04" cy="-42" rx="76.09" ry="18"/>
<text text-anchor="middle" x="100.04" y="-38.3" font-family="Times,serif" font-size="14.00">scancode://bahyph</text>
</g>
</g>
</svg>
