<?xml version="1.0" encoding="UTF-8" standalone="no"?>
<!DOCTYPE svg PUBLIC "-//W3C//DTD SVG 1.1//EN"
 "http://www.w3.org/Graphics/SVG/1.1/DTD/svg11.dtd">
<!-- Generated by graphviz version 2.43.0 (0)
 -->
<!-- Title: BitTorrent&#45;1.0 Pages: 1 -->
<svg width="1321pt" height="115pt"
 viewBox="0.00 0.00 1321.00 115.00" xmlns="http://www.w3.org/2000/svg" xmlns:xlink="http://www.w3.org/1999/xlink">
<g id="graph0" class="graph" transform="scale(1 1) rotate(0) translate(4 111)">
<title>BitTorrent&#45;1.0</title>
<polygon fill="white" stroke="transparent" points="-4,4 -4,-111 1317,-111 1317,4 -4,4"/>
<g id="clust1" class="cluster">
<title>cluster_0</title>
<polygon fill="none" stroke="black" points="8,-8 8,-99 1305,-99 1305,-8 8,-8"/>
</g>
<g id="clust2" class="cluster">
<title>cluster_1</title>
<polygon fill="lightgray" stroke="lightgray" points="1139,-16 1139,-91 1297,-91 1297,-16 1139,-16"/>
<text text-anchor="middle" x="1218" y="-75.8" font-family="Times-Roman" font-size="14.00">prev</text>
</g>
<g id="clust3" class="cluster">
<title>cluster_2</title>
<polygon fill="lightgray" stroke="lightgray" points="606,-16 606,-68 1131,-68 1131,-16 606,-16"/>
</g>
<g id="clust4" class="cluster">
<title>cluster_3</title>
<polygon fill="lightgray" stroke="lightgray" points="16,-16 16,-68 598,-68 598,-16 16,-16"/>
</g>
<!-- BitTorrent&#45;1.0(1) -->
<g id="node1" class="node">
<title>BitTorrent&#45;1.0(1)</title>
<ellipse fill="springgreen" stroke="springgreen" cx="1218" cy="-42" rx="71.49" ry="18"/>
<text text-anchor="middle" x="1218" y="-38.3" font-family="Times-Roman" font-size="14.00">BitTorrent&#45;1.0</text>
</g>
<!-- BitTorrent Open Source License v1.0(2) -->
<g id="node2" class="node">
<title>BitTorrent Open Source License v1.0(2)</title>
<ellipse fill="white" stroke="white" cx="949" cy="-42" rx="174.37" ry="18"/>
<text text-anchor="middle" x="949" y="-38.3" font-family="Times-Roman" font-size="14.00">BitTorrent Open Source License v1.0</text>
</g>
<!-- BitTorrent&#45;1.0(2) -->
<g id="node3" class="node">
<title>BitTorrent&#45;1.0(2)</title>
<ellipse fill="springgreen" stroke="springgreen" cx="685" cy="-42" rx="71.49" ry="18"/>
<text text-anchor="middle" x="685" y="-38.3" font-family="Times-Roman" font-size="14.00">BitTorrent&#45;1.0</text>
</g>
<!-- BitTorrent 1.0(3) -->
<g id="node4" class="node">
<title>BitTorrent 1.0(3)</title>
<ellipse fill="white" stroke="white" cx="519" cy="-42" rx="71.49" ry="18"/>
<text text-anchor="middle" x="519" y="-38.3" font-family="Times-Roman" font-size="14.00">BitTorrent 1.0</text>
</g>
<!-- BitTorrent&#45;1.0(3) -->
<g id="node5" class="node">
<title>BitTorrent&#45;1.0(3)</title>
<ellipse fill="springgreen" stroke="springgreen" cx="358" cy="-42" rx="71.49" ry="18"/>
<text text-anchor="middle" x="358" y="-38.3" font-family="Times-Roman" font-size="14.00">BitTorrent&#45;1.0</text>
</g>
<!-- scancode://bittorrent&#45;1.0(3) -->
<g id="node6" class="node">
<title>scancode://bittorrent&#45;1.0(3)</title>
<ellipse fill="white" stroke="white" cx="146" cy="-42" rx="122.38" ry="18"/>
<text text-anchor="middle" x="146" y="-38.3" font-family="Times-Roman" font-size="14.00">scancode://bittorrent&#45;1.0</text>
</g>
</g>
</svg>
