<?xml version="1.0" encoding="UTF-8" standalone="no"?>
<!DOCTYPE svg PUBLIC "-//W3C//DTD SVG 1.1//EN"
 "http://www.w3.org/Graphics/SVG/1.1/DTD/svg11.dtd">
<!-- Generated by graphviz version 2.49.3 (0)
 -->
<!-- Title: Borceux Pages: 1 -->
<svg width="213pt" height="656pt"
 viewBox="0.00 0.00 213.29 656.00" xmlns="http://www.w3.org/2000/svg" xmlns:xlink="http://www.w3.org/1999/xlink">
<g id="graph0" class="graph" transform="scale(1 1) rotate(0) translate(4 652)">
<title>Borceux</title>
<polygon fill="white" stroke="transparent" points="-4,4 -4,-652 209.29,-652 209.29,4 -4,4"/>
<g id="clust1" class="cluster">
<title>cluster_0</title>
<polygon fill="none" stroke="black" points="8,-8 8,-640 197.29,-640 197.29,-8 8,-8"/>
</g>
<g id="clust2" class="cluster">
<title>cluster_1</title>
<polygon fill="lightgray" stroke="lightgray" points="54.35,-580 54.35,-632 150.94,-632 150.94,-580 54.35,-580"/>
</g>
<g id="clust3" class="cluster">
<title>cluster_2</title>
<polygon fill="lightgray" stroke="lightgray" points="27.05,-466 27.05,-572 178.24,-572 178.24,-466 27.05,-466"/>
</g>
<g id="clust4" class="cluster">
<title>cluster_3</title>
<polygon fill="lightgray" stroke="lightgray" points="21.2,-298 21.2,-458 184.09,-458 184.09,-298 21.2,-298"/>
</g>
<g id="clust5" class="cluster">
<title>cluster_4</title>
<polygon fill="lightgray" stroke="lightgray" points="27.05,-184 27.05,-290 178.24,-290 178.24,-184 27.05,-184"/>
</g>
<g id="clust6" class="cluster">
<title>cluster_5</title>
<polygon fill="lightgray" stroke="lightgray" points="16,-16 16,-176 189.29,-176 189.29,-16 16,-16"/>
</g>
<!-- Borceux(1) -->
<g id="node1" class="node">
<title>Borceux(1)</title>
<ellipse fill="springgreen" stroke="springgreen" cx="102.64" cy="-606" rx="40.09" ry="18"/>
<text text-anchor="middle" x="102.64" y="-602.3" font-family="Times,serif" font-size="14.00">Borceux</text>
</g>
<!-- Borceux(2) -->
<g id="node2" class="node">
<title>Borceux(2)</title>
<ellipse fill="springgreen" stroke="springgreen" cx="102.64" cy="-546" rx="40.09" ry="18"/>
<text text-anchor="middle" x="102.64" y="-542.3" font-family="Times,serif" font-size="14.00">Borceux</text>
</g>
<!-- Borceux license(2) -->
<g id="node3" class="node">
<title>Borceux license(2)</title>
<ellipse fill="white" stroke="white" cx="102.64" cy="-492" rx="67.69" ry="18"/>
<text text-anchor="middle" x="102.64" y="-488.3" font-family="Times,serif" font-size="14.00">Borceux license</text>
</g>
<!-- Borceux(3) -->
<g id="node4" class="node">
<title>Borceux(3)</title>
<ellipse fill="springgreen" stroke="springgreen" cx="102.64" cy="-432" rx="40.09" ry="18"/>
<text text-anchor="middle" x="102.64" y="-428.3" font-family="Times,serif" font-size="14.00">Borceux</text>
</g>
<!-- Borceux License(3) -->
<g id="node5" class="node">
<title>Borceux License(3)</title>
<ellipse fill="white" stroke="white" cx="102.64" cy="-378" rx="70.39" ry="18"/>
<text text-anchor="middle" x="102.64" y="-374.3" font-family="Times,serif" font-size="14.00">Borceux License</text>
</g>
<!-- scancode:borceux(3) -->
<g id="node6" class="node">
<title>scancode:borceux(3)</title>
<ellipse fill="white" stroke="white" cx="102.64" cy="-324" rx="73.39" ry="18"/>
<text text-anchor="middle" x="102.64" y="-320.3" font-family="Times,serif" font-size="14.00">scancode:borceux</text>
</g>
<!-- Borceux(4) -->
<g id="node7" class="node">
<title>Borceux(4)</title>
<ellipse fill="springgreen" stroke="springgreen" cx="102.64" cy="-264" rx="40.09" ry="18"/>
<text text-anchor="middle" x="102.64" y="-260.3" font-family="Times,serif" font-size="14.00">Borceux</text>
</g>
<!-- Borceux license(4) -->
<g id="node8" class="node">
<title>Borceux license(4)</title>
<ellipse fill="white" stroke="white" cx="102.64" cy="-210" rx="67.69" ry="18"/>
<text text-anchor="middle" x="102.64" y="-206.3" font-family="Times,serif" font-size="14.00">Borceux license</text>
</g>
<!-- Borceux(5) -->
<g id="node9" class="node">
<title>Borceux(5)</title>
<ellipse fill="springgreen" stroke="springgreen" cx="102.64" cy="-150" rx="40.09" ry="18"/>
<text text-anchor="middle" x="102.64" y="-146.3" font-family="Times,serif" font-size="14.00">Borceux</text>
</g>
<!-- Borceux License(5) -->
<g id="node10" class="node">
<title>Borceux License(5)</title>
<ellipse fill="white" stroke="white" cx="102.64" cy="-96" rx="70.39" ry="18"/>
<text text-anchor="middle" x="102.64" y="-92.3" font-family="Times,serif" font-size="14.00">Borceux License</text>
</g>
<!-- scancode://borceux(5) -->
<g id="node11" class="node">
<title>scancode://borceux(5)</title>
<ellipse fill="white" stroke="white" cx="102.64" cy="-42" rx="78.79" ry="18"/>
<text text-anchor="middle" x="102.64" y="-38.3" font-family="Times,serif" font-size="14.00">scancode://borceux</text>
</g>
</g>
</svg>
