<?xml version="1.0" encoding="UTF-8" standalone="no"?>
<!DOCTYPE svg PUBLIC "-//W3C//DTD SVG 1.1//EN"
 "http://www.w3.org/Graphics/SVG/1.1/DTD/svg11.dtd">
<!-- Generated by graphviz version 2.43.0 (0)
 -->
<!-- Title: BSD&#45;2&#45;Clause&#45;FreeBSD Pages: 1 -->
<svg width="371pt" height="434pt"
 viewBox="0.00 0.00 370.57 434.00" xmlns="http://www.w3.org/2000/svg" xmlns:xlink="http://www.w3.org/1999/xlink">
<g id="graph0" class="graph" transform="scale(1 1) rotate(0) translate(4 430)">
<title>BSD&#45;2&#45;Clause&#45;FreeBSD</title>
<polygon fill="white" stroke="transparent" points="-4,4 -4,-430 366.57,-430 366.57,4 -4,4"/>
<g id="clust1" class="cluster">
<title>cluster_0</title>
<polygon fill="none" stroke="black" points="8,-8 8,-418 354.57,-418 354.57,-8 8,-8"/>
</g>
<g id="clust2" class="cluster">
<title>cluster_1</title>
<polygon fill="lightgray" stroke="lightgray" points="60.85,-358 60.85,-410 301.73,-410 301.73,-358 60.85,-358"/>
</g>
<g id="clust3" class="cluster">
<title>cluster_2</title>
<polygon fill="lightgray" stroke="lightgray" points="25.1,-244 25.1,-350 337.47,-350 337.47,-244 25.1,-244"/>
</g>
<g id="clust4" class="cluster">
<title>cluster_3</title>
<polygon fill="lightgray" stroke="lightgray" points="25.1,-130 25.1,-236 337.47,-236 337.47,-130 25.1,-130"/>
</g>
<g id="clust5" class="cluster">
<title>cluster_4</title>
<polygon fill="lightgray" stroke="lightgray" points="16,-16 16,-122 346.57,-122 346.57,-16 16,-16"/>
</g>
<!-- BSD&#45;2&#45;Clause&#45;FreeBSD(1) -->
<g id="node1" class="node">
<title>BSD&#45;2&#45;Clause&#45;FreeBSD(1)</title>
<ellipse fill="springgreen" stroke="springgreen" cx="181.29" cy="-384" rx="112.38" ry="18"/>
<text text-anchor="middle" x="181.29" y="-380.3" font-family="Times-Roman" font-size="14.00">BSD&#45;2&#45;Clause&#45;FreeBSD</text>
</g>
<!-- BSD 2&#45;Clause FreeBSD License(2) -->
<g id="node2" class="node">
<title>BSD 2&#45;Clause FreeBSD License(2)</title>
<ellipse fill="white" stroke="white" cx="181.29" cy="-324" rx="148.37" ry="18"/>
<text text-anchor="middle" x="181.29" y="-320.3" font-family="Times-Roman" font-size="14.00">BSD 2&#45;Clause FreeBSD License</text>
</g>
<!-- BSD&#45;2&#45;Clause&#45;FreeBSD(2) -->
<g id="node3" class="node">
<title>BSD&#45;2&#45;Clause&#45;FreeBSD(2)</title>
<ellipse fill="springgreen" stroke="springgreen" cx="181.29" cy="-270" rx="112.38" ry="18"/>
<text text-anchor="middle" x="181.29" y="-266.3" font-family="Times-Roman" font-size="14.00">BSD&#45;2&#45;Clause&#45;FreeBSD</text>
</g>
<!-- BSD 2&#45;Clause FreeBSD License(3) -->
<g id="node4" class="node">
<title>BSD 2&#45;Clause FreeBSD License(3)</title>
<ellipse fill="white" stroke="white" cx="181.29" cy="-210" rx="148.37" ry="18"/>
<text text-anchor="middle" x="181.29" y="-206.3" font-family="Times-Roman" font-size="14.00">BSD 2&#45;Clause FreeBSD License</text>
</g>
<!-- BSD&#45;2&#45;Clause&#45;FreeBSD(3) -->
<g id="node5" class="node">
<title>BSD&#45;2&#45;Clause&#45;FreeBSD(3)</title>
<ellipse fill="springgreen" stroke="springgreen" cx="181.29" cy="-156" rx="112.38" ry="18"/>
<text text-anchor="middle" x="181.29" y="-152.3" font-family="Times-Roman" font-size="14.00">BSD&#45;2&#45;Clause&#45;FreeBSD</text>
</g>
<!-- BSD&#45;2&#45;Clause&#45;FreeBSD(4) -->
<g id="node6" class="node">
<title>BSD&#45;2&#45;Clause&#45;FreeBSD(4)</title>
<ellipse fill="springgreen" stroke="springgreen" cx="181.29" cy="-96" rx="112.38" ry="18"/>
<text text-anchor="middle" x="181.29" y="-92.3" font-family="Times-Roman" font-size="14.00">BSD&#45;2&#45;Clause&#45;FreeBSD</text>
</g>
<!-- scancode://bsd&#45;2&#45;clause&#45;freebsd(4) -->
<g id="node7" class="node">
<title>scancode://bsd&#45;2&#45;clause&#45;freebsd(4)</title>
<ellipse fill="white" stroke="white" cx="181.29" cy="-42" rx="157.07" ry="18"/>
<text text-anchor="middle" x="181.29" y="-38.3" font-family="Times-Roman" font-size="14.00">scancode://bsd&#45;2&#45;clause&#45;freebsd</text>
</g>
</g>
</svg>
