<?xml version="1.0" encoding="UTF-8" standalone="no"?>
<!DOCTYPE svg PUBLIC "-//W3C//DTD SVG 1.1//EN"
 "http://www.w3.org/Graphics/SVG/1.1/DTD/svg11.dtd">
<!-- Generated by graphviz version 2.43.0 (0)
 -->
<!-- Title: BSD&#45;2&#45;Clause&#45;Patent Pages: 1 -->
<svg width="378pt" height="488pt"
 viewBox="0.00 0.00 378.37 488.00" xmlns="http://www.w3.org/2000/svg" xmlns:xlink="http://www.w3.org/1999/xlink">
<g id="graph0" class="graph" transform="scale(1 1) rotate(0) translate(4 484)">
<title>BSD&#45;2&#45;Clause&#45;Patent</title>
<polygon fill="white" stroke="transparent" points="-4,4 -4,-484 374.37,-484 374.37,4 -4,4"/>
<g id="clust1" class="cluster">
<title>cluster_0</title>
<polygon fill="none" stroke="black" points="8,-8 8,-472 362.37,-472 362.37,-8 8,-8"/>
</g>
<g id="clust2" class="cluster">
<title>cluster_1</title>
<polygon fill="lightgray" stroke="lightgray" points="73.19,-412 73.19,-464 297.18,-464 297.18,-412 73.19,-412"/>
</g>
<g id="clust3" class="cluster">
<title>cluster_2</title>
<polygon fill="lightgray" stroke="lightgray" points="16,-298 16,-404 354.37,-404 354.37,-298 16,-298"/>
</g>
<g id="clust4" class="cluster">
<title>cluster_3</title>
<polygon fill="lightgray" stroke="lightgray" points="16,-184 16,-290 354.37,-290 354.37,-184 16,-184"/>
</g>
<g id="clust5" class="cluster">
<title>cluster_4</title>
<polygon fill="lightgray" stroke="lightgray" points="43.3,-16 43.3,-176 327.07,-176 327.07,-16 43.3,-16"/>
</g>
<!-- BSD&#45;2&#45;Clause&#45;Patent(1) -->
<g id="node1" class="node">
<title>BSD&#45;2&#45;Clause&#45;Patent(1)</title>
<ellipse fill="springgreen" stroke="springgreen" cx="185.19" cy="-438" rx="103.98" ry="18"/>
<text text-anchor="middle" x="185.19" y="-434.3" font-family="Times-Roman" font-size="14.00">BSD&#45;2&#45;Clause&#45;Patent</text>
</g>
<!-- BSD&#45;2&#45;Clause Plus Patent License(2) -->
<g id="node2" class="node">
<title>BSD&#45;2&#45;Clause Plus Patent License(2)</title>
<ellipse fill="white" stroke="white" cx="185.19" cy="-378" rx="161.37" ry="18"/>
<text text-anchor="middle" x="185.19" y="-374.3" font-family="Times-Roman" font-size="14.00">BSD&#45;2&#45;Clause Plus Patent License</text>
</g>
<!-- BSD&#45;2&#45;Clause&#45;Patent(2) -->
<g id="node3" class="node">
<title>BSD&#45;2&#45;Clause&#45;Patent(2)</title>
<ellipse fill="springgreen" stroke="springgreen" cx="185.19" cy="-324" rx="103.98" ry="18"/>
<text text-anchor="middle" x="185.19" y="-320.3" font-family="Times-Roman" font-size="14.00">BSD&#45;2&#45;Clause&#45;Patent</text>
</g>
<!-- BSD&#45;2&#45;Clause Plus Patent License(3) -->
<g id="node4" class="node">
<title>BSD&#45;2&#45;Clause Plus Patent License(3)</title>
<ellipse fill="white" stroke="white" cx="185.19" cy="-264" rx="161.37" ry="18"/>
<text text-anchor="middle" x="185.19" y="-260.3" font-family="Times-Roman" font-size="14.00">BSD&#45;2&#45;Clause Plus Patent License</text>
</g>
<!-- BSD&#45;2&#45;Clause&#45;Patent(3) -->
<g id="node5" class="node">
<title>BSD&#45;2&#45;Clause&#45;Patent(3)</title>
<ellipse fill="springgreen" stroke="springgreen" cx="185.19" cy="-210" rx="103.98" ry="18"/>
<text text-anchor="middle" x="185.19" y="-206.3" font-family="Times-Roman" font-size="14.00">BSD&#45;2&#45;Clause&#45;Patent</text>
</g>
<!-- BSD&#45;2&#45;Clause Plus Patent(4) -->
<g id="node6" class="node">
<title>BSD&#45;2&#45;Clause Plus Patent(4)</title>
<ellipse fill="white" stroke="white" cx="185.19" cy="-150" rx="124.58" ry="18"/>
<text text-anchor="middle" x="185.19" y="-146.3" font-family="Times-Roman" font-size="14.00">BSD&#45;2&#45;Clause Plus Patent</text>
</g>
<!-- BSD&#45;2&#45;Clause&#45;Patent(4) -->
<g id="node7" class="node">
<title>BSD&#45;2&#45;Clause&#45;Patent(4)</title>
<ellipse fill="springgreen" stroke="springgreen" cx="185.19" cy="-96" rx="103.98" ry="18"/>
<text text-anchor="middle" x="185.19" y="-92.3" font-family="Times-Roman" font-size="14.00">BSD&#45;2&#45;Clause&#45;Patent</text>
</g>
<!-- scancode://bsd&#45;plus&#45;patent(4) -->
<g id="node8" class="node">
<title>scancode://bsd&#45;plus&#45;patent(4)</title>
<ellipse fill="white" stroke="white" cx="185.19" cy="-42" rx="133.78" ry="18"/>
<text text-anchor="middle" x="185.19" y="-38.3" font-family="Times-Roman" font-size="14.00">scancode://bsd&#45;plus&#45;patent</text>
</g>
</g>
</svg>
