<?xml version="1.0" encoding="UTF-8" standalone="no"?>
<!DOCTYPE svg PUBLIC "-//W3C//DTD SVG 1.1//EN"
 "http://www.w3.org/Graphics/SVG/1.1/DTD/svg11.dtd">
<!-- Generated by graphviz version 2.43.0 (0)
 -->
<!-- Title: BSD&#45;4&#45;Clause&#45;UC Pages: 1 -->
<svg width="2906pt" height="92pt"
 viewBox="0.00 0.00 2906.00 92.00" xmlns="http://www.w3.org/2000/svg" xmlns:xlink="http://www.w3.org/1999/xlink">
<g id="graph0" class="graph" transform="scale(1 1) rotate(0) translate(4 88)">
<title>BSD&#45;4&#45;Clause&#45;UC</title>
<polygon fill="white" stroke="transparent" points="-4,4 -4,-88 2902,-88 2902,4 -4,4"/>
<g id="clust1" class="cluster">
<title>cluster_0</title>
<polygon fill="none" stroke="black" points="8,-8 8,-76 2890,-76 2890,-8 8,-8"/>
</g>
<g id="clust2" class="cluster">
<title>cluster_1</title>
<polygon fill="lightgray" stroke="lightgray" points="2688,-16 2688,-68 2882,-68 2882,-16 2688,-16"/>
</g>
<g id="clust3" class="cluster">
<title>cluster_2</title>
<polygon fill="lightgray" stroke="lightgray" points="2020,-16 2020,-68 2680,-68 2680,-16 2020,-16"/>
</g>
<g id="clust4" class="cluster">
<title>cluster_3</title>
<polygon fill="lightgray" stroke="lightgray" points="1352,-16 1352,-68 2012,-68 2012,-16 1352,-16"/>
</g>
<g id="clust5" class="cluster">
<title>cluster_4</title>
<polygon fill="lightgray" stroke="lightgray" points="684,-16 684,-68 1344,-68 1344,-16 684,-16"/>
</g>
<g id="clust6" class="cluster">
<title>cluster_5</title>
<polygon fill="lightgray" stroke="lightgray" points="16,-16 16,-68 676,-68 676,-16 16,-16"/>
</g>
<!-- BSD&#45;4&#45;Clause&#45;UC(1) -->
<g id="node1" class="node">
<title>BSD&#45;4&#45;Clause&#45;UC(1)</title>
<ellipse fill="springgreen" stroke="springgreen" cx="2785" cy="-42" rx="89.08" ry="18"/>
<text text-anchor="middle" x="2785" y="-38.3" font-family="Times-Roman" font-size="14.00">BSD&#45;4&#45;Clause&#45;UC</text>
</g>
<!-- BSD&#45;4&#45;Clause (University of California&#45;Specific)(2) -->
<g id="node2" class="node">
<title>BSD&#45;4&#45;Clause (University of California&#45;Specific)(2)</title>
<ellipse fill="white" stroke="white" cx="2448" cy="-42" rx="223.66" ry="18"/>
<text text-anchor="middle" x="2448" y="-38.3" font-family="Times-Roman" font-size="14.00">BSD&#45;4&#45;Clause (University of California&#45;Specific)</text>
</g>
<!-- BSD&#45;4&#45;Clause&#45;UC(2) -->
<g id="node3" class="node">
<title>BSD&#45;4&#45;Clause&#45;UC(2)</title>
<ellipse fill="springgreen" stroke="springgreen" cx="2117" cy="-42" rx="89.08" ry="18"/>
<text text-anchor="middle" x="2117" y="-38.3" font-family="Times-Roman" font-size="14.00">BSD&#45;4&#45;Clause&#45;UC</text>
</g>
<!-- BSD&#45;4&#45;Clause (University of California&#45;Specific)(3) -->
<g id="node4" class="node">
<title>BSD&#45;4&#45;Clause (University of California&#45;Specific)(3)</title>
<ellipse fill="white" stroke="white" cx="1780" cy="-42" rx="223.66" ry="18"/>
<text text-anchor="middle" x="1780" y="-38.3" font-family="Times-Roman" font-size="14.00">BSD&#45;4&#45;Clause (University of California&#45;Specific)</text>
</g>
<!-- BSD&#45;4&#45;Clause&#45;UC(3) -->
<g id="node5" class="node">
<title>BSD&#45;4&#45;Clause&#45;UC(3)</title>
<ellipse fill="springgreen" stroke="springgreen" cx="1449" cy="-42" rx="89.08" ry="18"/>
<text text-anchor="middle" x="1449" y="-38.3" font-family="Times-Roman" font-size="14.00">BSD&#45;4&#45;Clause&#45;UC</text>
</g>
<!-- BSD&#45;4&#45;Clause&#45;UC(4) -->
<g id="node6" class="node">
<title>BSD&#45;4&#45;Clause&#45;UC(4)</title>
<ellipse fill="springgreen" stroke="springgreen" cx="1247" cy="-42" rx="89.08" ry="18"/>
<text text-anchor="middle" x="1247" y="-38.3" font-family="Times-Roman" font-size="14.00">BSD&#45;4&#45;Clause&#45;UC</text>
</g>
<!-- BSD&#45;Original&#45;UC(4) -->
<g id="node7" class="node">
<title>BSD&#45;Original&#45;UC(4)</title>
<ellipse fill="white" stroke="white" cx="1055" cy="-42" rx="85.29" ry="18"/>
<text text-anchor="middle" x="1055" y="-38.3" font-family="Times-Roman" font-size="14.00">BSD&#45;Original&#45;UC</text>
</g>
<!-- scancode://bsd&#45;original&#45;uc(4) -->
<g id="node8" class="node">
<title>scancode://bsd&#45;original&#45;uc(4)</title>
<ellipse fill="white" stroke="white" cx="822" cy="-42" rx="129.98" ry="18"/>
<text text-anchor="middle" x="822" y="-38.3" font-family="Times-Roman" font-size="14.00">scancode://bsd&#45;original&#45;uc</text>
</g>
<!-- BSD&#45;4&#45;Clause (University of California&#45;Specific)(5) -->
<g id="node9" class="node">
<title>BSD&#45;4&#45;Clause (University of California&#45;Specific)(5)</title>
<ellipse fill="white" stroke="white" cx="444" cy="-42" rx="223.66" ry="18"/>
<text text-anchor="middle" x="444" y="-38.3" font-family="Times-Roman" font-size="14.00">BSD&#45;4&#45;Clause (University of California&#45;Specific)</text>
</g>
<!-- BSD&#45;4&#45;Clause&#45;UC(5) -->
<g id="node10" class="node">
<title>BSD&#45;4&#45;Clause&#45;UC(5)</title>
<ellipse fill="springgreen" stroke="springgreen" cx="113" cy="-42" rx="89.08" ry="18"/>
<text text-anchor="middle" x="113" y="-38.3" font-family="Times-Roman" font-size="14.00">BSD&#45;4&#45;Clause&#45;UC</text>
</g>
</g>
</svg>
