<?xml version="1.0" encoding="UTF-8" standalone="no"?>
<!DOCTYPE svg PUBLIC "-//W3C//DTD SVG 1.1//EN"
 "http://www.w3.org/Graphics/SVG/1.1/DTD/svg11.dtd">
<!-- Generated by graphviz version 2.43.0 (0)
 -->
<!-- Title: BSD&#45;Source&#45;Code Pages: 1 -->
<svg width="2029pt" height="92pt"
 viewBox="0.00 0.00 2029.00 92.00" xmlns="http://www.w3.org/2000/svg" xmlns:xlink="http://www.w3.org/1999/xlink">
<g id="graph0" class="graph" transform="scale(1 1) rotate(0) translate(4 88)">
<title>BSD&#45;Source&#45;Code</title>
<polygon fill="white" stroke="transparent" points="-4,4 -4,-88 2025,-88 2025,4 -4,4"/>
<g id="clust1" class="cluster">
<title>cluster_0</title>
<polygon fill="none" stroke="black" points="8,-8 8,-76 2013,-76 2013,-8 8,-8"/>
</g>
<g id="clust2" class="cluster">
<title>cluster_1</title>
<polygon fill="lightgray" stroke="lightgray" points="1809,-16 1809,-68 2005,-68 2005,-16 1809,-16"/>
</g>
<g id="clust3" class="cluster">
<title>cluster_2</title>
<polygon fill="lightgray" stroke="lightgray" points="1308,-16 1308,-68 1801,-68 1801,-16 1308,-16"/>
</g>
<g id="clust4" class="cluster">
<title>cluster_3</title>
<polygon fill="lightgray" stroke="lightgray" points="807,-16 807,-68 1300,-68 1300,-16 807,-16"/>
</g>
<g id="clust5" class="cluster">
<title>cluster_4</title>
<polygon fill="lightgray" stroke="lightgray" points="16,-16 16,-68 799,-68 799,-16 16,-16"/>
</g>
<!-- BSD&#45;Source&#45;Code(1) -->
<g id="node1" class="node">
<title>BSD&#45;Source&#45;Code(1)</title>
<ellipse fill="springgreen" stroke="springgreen" cx="1907" cy="-42" rx="89.88" ry="18"/>
<text text-anchor="middle" x="1907" y="-38.3" font-family="Times-Roman" font-size="14.00">BSD&#45;Source&#45;Code</text>
</g>
<!-- BSD Source Code Attribution(2) -->
<g id="node2" class="node">
<title>BSD Source Code Attribution(2)</title>
<ellipse fill="white" stroke="white" cx="1653" cy="-42" rx="139.98" ry="18"/>
<text text-anchor="middle" x="1653" y="-38.3" font-family="Times-Roman" font-size="14.00">BSD Source Code Attribution</text>
</g>
<!-- BSD&#45;Source&#45;Code(2) -->
<g id="node3" class="node">
<title>BSD&#45;Source&#45;Code(2)</title>
<ellipse fill="springgreen" stroke="springgreen" cx="1406" cy="-42" rx="89.88" ry="18"/>
<text text-anchor="middle" x="1406" y="-38.3" font-family="Times-Roman" font-size="14.00">BSD&#45;Source&#45;Code</text>
</g>
<!-- BSD Source Code Attribution(3) -->
<g id="node4" class="node">
<title>BSD Source Code Attribution(3)</title>
<ellipse fill="white" stroke="white" cx="1152" cy="-42" rx="139.98" ry="18"/>
<text text-anchor="middle" x="1152" y="-38.3" font-family="Times-Roman" font-size="14.00">BSD Source Code Attribution</text>
</g>
<!-- BSD&#45;Source&#45;Code(3) -->
<g id="node5" class="node">
<title>BSD&#45;Source&#45;Code(3)</title>
<ellipse fill="springgreen" stroke="springgreen" cx="905" cy="-42" rx="89.88" ry="18"/>
<text text-anchor="middle" x="905" y="-38.3" font-family="Times-Roman" font-size="14.00">BSD&#45;Source&#45;Code</text>
</g>
<!-- BSD Source Code Attribution(4) -->
<g id="node6" class="node">
<title>BSD Source Code Attribution(4)</title>
<ellipse fill="white" stroke="white" cx="651" cy="-42" rx="139.98" ry="18"/>
<text text-anchor="middle" x="651" y="-38.3" font-family="Times-Roman" font-size="14.00">BSD Source Code Attribution</text>
</g>
<!-- BSD&#45;Source&#45;Code(4) -->
<g id="node7" class="node">
<title>BSD&#45;Source&#45;Code(4)</title>
<ellipse fill="springgreen" stroke="springgreen" cx="404" cy="-42" rx="89.88" ry="18"/>
<text text-anchor="middle" x="404" y="-38.3" font-family="Times-Roman" font-size="14.00">BSD&#45;Source&#45;Code</text>
</g>
<!-- scancode://bsd&#45;source&#45;code(4) -->
<g id="node8" class="node">
<title>scancode://bsd&#45;source&#45;code(4)</title>
<ellipse fill="white" stroke="white" cx="160" cy="-42" rx="136.48" ry="18"/>
<text text-anchor="middle" x="160" y="-38.3" font-family="Times-Roman" font-size="14.00">scancode://bsd&#45;source&#45;code</text>
</g>
</g>
</svg>
