<?xml version="1.0" encoding="UTF-8" standalone="no"?>
<!DOCTYPE svg PUBLIC "-//W3C//DTD SVG 1.1//EN"
 "http://www.w3.org/Graphics/SVG/1.1/DTD/svg11.dtd">
<!-- Generated by graphviz version 2.43.0 (0)
 -->
<!-- Title: BSD&#45;Protection Pages: 1 -->
<svg width="1331pt" height="115pt"
 viewBox="0.00 0.00 1331.00 115.00" xmlns="http://www.w3.org/2000/svg" xmlns:xlink="http://www.w3.org/1999/xlink">
<g id="graph0" class="graph" transform="scale(1 1) rotate(0) translate(4 111)">
<title>BSD&#45;Protection</title>
<polygon fill="white" stroke="transparent" points="-4,4 -4,-111 1327,-111 1327,4 -4,4"/>
<g id="clust1" class="cluster">
<title>cluster_0</title>
<polygon fill="none" stroke="black" points="8,-8 8,-99 1315,-99 1315,-8 8,-8"/>
</g>
<g id="clust2" class="cluster">
<title>cluster_1</title>
<polygon fill="lightgray" stroke="lightgray" points="1137,-16 1137,-91 1307,-91 1307,-16 1137,-16"/>
<text text-anchor="middle" x="1222" y="-75.8" font-family="Times-Roman" font-size="14.00">prev</text>
</g>
<g id="clust3" class="cluster">
<title>cluster_2</title>
<polygon fill="lightgray" stroke="lightgray" points="713,-16 713,-68 1129,-68 1129,-16 713,-16"/>
</g>
<g id="clust4" class="cluster">
<title>cluster_3</title>
<polygon fill="lightgray" stroke="lightgray" points="16,-16 16,-68 705,-68 705,-16 16,-16"/>
</g>
<!-- BSD&#45;Protection(1) -->
<g id="node1" class="node">
<title>BSD&#45;Protection(1)</title>
<ellipse fill="springgreen" stroke="springgreen" cx="1222" cy="-42" rx="77.19" ry="18"/>
<text text-anchor="middle" x="1222" y="-38.3" font-family="Times-Roman" font-size="14.00">BSD&#45;Protection</text>
</g>
<!-- BSD Protection License(2) -->
<g id="node2" class="node">
<title>BSD Protection License(2)</title>
<ellipse fill="white" stroke="white" cx="1007" cy="-42" rx="113.98" ry="18"/>
<text text-anchor="middle" x="1007" y="-38.3" font-family="Times-Roman" font-size="14.00">BSD Protection License</text>
</g>
<!-- BSD&#45;Protection(2) -->
<g id="node3" class="node">
<title>BSD&#45;Protection(2)</title>
<ellipse fill="springgreen" stroke="springgreen" cx="798" cy="-42" rx="77.19" ry="18"/>
<text text-anchor="middle" x="798" y="-38.3" font-family="Times-Roman" font-size="14.00">BSD&#45;Protection</text>
</g>
<!-- BSD Protection License(3) -->
<g id="node4" class="node">
<title>BSD Protection License(3)</title>
<ellipse fill="white" stroke="white" cx="583" cy="-42" rx="113.98" ry="18"/>
<text text-anchor="middle" x="583" y="-38.3" font-family="Times-Roman" font-size="14.00">BSD Protection License</text>
</g>
<!-- BSD&#45;Protection(3) -->
<g id="node5" class="node">
<title>BSD&#45;Protection(3)</title>
<ellipse fill="springgreen" stroke="springgreen" cx="374" cy="-42" rx="77.19" ry="18"/>
<text text-anchor="middle" x="374" y="-38.3" font-family="Times-Roman" font-size="14.00">BSD&#45;Protection</text>
</g>
<!-- scancode://bsd&#45;protection(3) -->
<g id="node6" class="node">
<title>scancode://bsd&#45;protection(3)</title>
<ellipse fill="white" stroke="white" cx="151" cy="-42" rx="127.28" ry="18"/>
<text text-anchor="middle" x="151" y="-38.3" font-family="Times-Roman" font-size="14.00">scancode://bsd&#45;protection</text>
</g>
</g>
</svg>
