<?xml version="1.0" encoding="UTF-8" standalone="no"?>
<!DOCTYPE svg PUBLIC "-//W3C//DTD SVG 1.1//EN"
 "http://www.w3.org/Graphics/SVG/1.1/DTD/svg11.dtd">
<!-- Generated by graphviz version 2.49.3 (0)
 -->
<!-- Title: BSD&#45;3&#45;Clause&#45;Attribution Pages: 1 -->
<svg width="328pt" height="656pt"
 viewBox="0.00 0.00 327.68 656.00" xmlns="http://www.w3.org/2000/svg" xmlns:xlink="http://www.w3.org/1999/xlink">
<g id="graph0" class="graph" transform="scale(1 1) rotate(0) translate(4 652)">
<title>BSD&#45;3&#45;Clause&#45;Attribution</title>
<polygon fill="white" stroke="transparent" points="-4,4 -4,-652 323.68,-652 323.68,4 -4,4"/>
<g id="clust1" class="cluster">
<title>cluster_0</title>
<polygon fill="none" stroke="black" points="8,-8 8,-640 311.68,-640 311.68,-8 8,-8"/>
</g>
<g id="clust2" class="cluster">
<title>cluster_1</title>
<polygon fill="lightgray" stroke="lightgray" points="47.85,-580 47.85,-632 271.83,-632 271.83,-580 47.85,-580"/>
</g>
<g id="clust3" class="cluster">
<title>cluster_2</title>
<polygon fill="lightgray" stroke="lightgray" points="47.85,-466 47.85,-572 271.83,-572 271.83,-466 47.85,-466"/>
</g>
<g id="clust4" class="cluster">
<title>cluster_3</title>
<polygon fill="lightgray" stroke="lightgray" points="16,-298 16,-458 303.68,-458 303.68,-298 16,-298"/>
</g>
<g id="clust5" class="cluster">
<title>cluster_4</title>
<polygon fill="lightgray" stroke="lightgray" points="47.85,-184 47.85,-290 271.83,-290 271.83,-184 47.85,-184"/>
</g>
<g id="clust6" class="cluster">
<title>cluster_5</title>
<polygon fill="lightgray" stroke="lightgray" points="29.65,-16 29.65,-176 290.03,-176 290.03,-16 29.65,-16"/>
</g>
<!-- BSD&#45;3&#45;Clause&#45;Attribution(1) -->
<g id="node1" class="node">
<title>BSD&#45;3&#45;Clause&#45;Attribution(1)</title>
<ellipse fill="springgreen" stroke="springgreen" cx="159.84" cy="-606" rx="103.98" ry="18"/>
<text text-anchor="middle" x="159.84" y="-602.3" font-family="Times,serif" font-size="14.00">BSD&#45;3&#45;Clause&#45;Attribution</text>
</g>
<!-- BSD with attribution(2) -->
<g id="node2" class="node">
<title>BSD with attribution(2)</title>
<ellipse fill="white" stroke="white" cx="159.84" cy="-546" rx="85.29" ry="18"/>
<text text-anchor="middle" x="159.84" y="-542.3" font-family="Times,serif" font-size="14.00">BSD with attribution</text>
</g>
<!-- BSD&#45;3&#45;Clause&#45;Attribution(2) -->
<g id="node3" class="node">
<title>BSD&#45;3&#45;Clause&#45;Attribution(2)</title>
<ellipse fill="springgreen" stroke="springgreen" cx="159.84" cy="-492" rx="103.98" ry="18"/>
<text text-anchor="middle" x="159.84" y="-488.3" font-family="Times,serif" font-size="14.00">BSD&#45;3&#45;Clause&#45;Attribution</text>
</g>
<!-- BSD 3&#45;Clause License (attribution)(3) -->
<g id="node4" class="node">
<title>BSD 3&#45;Clause License (attribution)(3)</title>
<ellipse fill="white" stroke="white" cx="159.84" cy="-432" rx="135.68" ry="18"/>
<text text-anchor="middle" x="159.84" y="-428.3" font-family="Times,serif" font-size="14.00">BSD 3&#45;Clause License (attribution)</text>
</g>
<!-- BSD&#45;3&#45;Clause&#45;Attribution(3) -->
<g id="node5" class="node">
<title>BSD&#45;3&#45;Clause&#45;Attribution(3)</title>
<ellipse fill="springgreen" stroke="springgreen" cx="159.84" cy="-378" rx="103.98" ry="18"/>
<text text-anchor="middle" x="159.84" y="-374.3" font-family="Times,serif" font-size="14.00">BSD&#45;3&#45;Clause&#45;Attribution</text>
</g>
<!-- scancode:bsd&#45;ack(3) -->
<g id="node6" class="node">
<title>scancode:bsd&#45;ack(3)</title>
<ellipse fill="white" stroke="white" cx="159.84" cy="-324" rx="72.59" ry="18"/>
<text text-anchor="middle" x="159.84" y="-320.3" font-family="Times,serif" font-size="14.00">scancode:bsd&#45;ack</text>
</g>
<!-- BSD with attribution(4) -->
<g id="node7" class="node">
<title>BSD with attribution(4)</title>
<ellipse fill="white" stroke="white" cx="159.84" cy="-264" rx="85.29" ry="18"/>
<text text-anchor="middle" x="159.84" y="-260.3" font-family="Times,serif" font-size="14.00">BSD with attribution</text>
</g>
<!-- BSD&#45;3&#45;Clause&#45;Attribution(4) -->
<g id="node8" class="node">
<title>BSD&#45;3&#45;Clause&#45;Attribution(4)</title>
<ellipse fill="springgreen" stroke="springgreen" cx="159.84" cy="-210" rx="103.98" ry="18"/>
<text text-anchor="middle" x="159.84" y="-206.3" font-family="Times,serif" font-size="14.00">BSD&#45;3&#45;Clause&#45;Attribution</text>
</g>
<!-- BSD Acknowledgment License(5) -->
<g id="node9" class="node">
<title>BSD Acknowledgment License(5)</title>
<ellipse fill="white" stroke="white" cx="159.84" cy="-150" rx="122.38" ry="18"/>
<text text-anchor="middle" x="159.84" y="-146.3" font-family="Times,serif" font-size="14.00">BSD Acknowledgment License</text>
</g>
<!-- BSD&#45;3&#45;Clause&#45;Attribution(5) -->
<g id="node10" class="node">
<title>BSD&#45;3&#45;Clause&#45;Attribution(5)</title>
<ellipse fill="springgreen" stroke="springgreen" cx="159.84" cy="-96" rx="103.98" ry="18"/>
<text text-anchor="middle" x="159.84" y="-92.3" font-family="Times,serif" font-size="14.00">BSD&#45;3&#45;Clause&#45;Attribution</text>
</g>
<!-- scancode://bsd&#45;ack(5) -->
<g id="node11" class="node">
<title>scancode://bsd&#45;ack(5)</title>
<ellipse fill="white" stroke="white" cx="159.84" cy="-42" rx="77.19" ry="18"/>
<text text-anchor="middle" x="159.84" y="-38.3" font-family="Times,serif" font-size="14.00">scancode://bsd&#45;ack</text>
</g>
</g>
</svg>
