<?xml version="1.0" encoding="UTF-8" standalone="no"?>
<!DOCTYPE svg PUBLIC "-//W3C//DTD SVG 1.1//EN"
 "http://www.w3.org/Graphics/SVG/1.1/DTD/svg11.dtd">
<!-- Generated by graphviz version 2.43.0 (0)
 -->
<!-- Title: BSD&#45;2&#45;Clause Pages: 1 -->
<svg width="650pt" height="1388pt"
 viewBox="0.00 0.00 650.05 1388.00" xmlns="http://www.w3.org/2000/svg" xmlns:xlink="http://www.w3.org/1999/xlink">
<g id="graph0" class="graph" transform="scale(1 1) rotate(0) translate(4 1384)">
<title>BSD&#45;2&#45;Clause</title>
<polygon fill="white" stroke="transparent" points="-4,4 -4,-1384 646.05,-1384 646.05,4 -4,4"/>
<g id="clust1" class="cluster">
<title>cluster_0</title>
<polygon fill="none" stroke="black" points="8,-8 8,-1372 634.05,-1372 634.05,-8 8,-8"/>
</g>
<g id="clust2" class="cluster">
<title>cluster_1</title>
<polygon fill="lightgray" stroke="lightgray" points="240.88,-1312 240.88,-1364 401.17,-1364 401.17,-1312 240.88,-1312"/>
</g>
<g id="clust3" class="cluster">
<title>cluster_2</title>
<polygon fill="lightgray" stroke="lightgray" points="189.53,-1144 189.53,-1304 452.51,-1304 452.51,-1144 189.53,-1144"/>
</g>
<g id="clust4" class="cluster">
<title>cluster_3</title>
<polygon fill="lightgray" stroke="lightgray" points="147.94,-1030 147.94,-1136 494.11,-1136 494.11,-1030 147.94,-1030"/>
</g>
<g id="clust5" class="cluster">
<title>cluster_4</title>
<polygon fill="lightgray" stroke="lightgray" points="147.94,-916 147.94,-1022 494.11,-1022 494.11,-916 147.94,-916"/>
</g>
<g id="clust6" class="cluster">
<title>cluster_5</title>
<polygon fill="lightgray" stroke="lightgray" points="186.93,-802 186.93,-908 455.11,-908 455.11,-802 186.93,-802"/>
</g>
<g id="clust7" class="cluster">
<title>cluster_6</title>
<polygon fill="lightgray" stroke="lightgray" points="240.88,-688 240.88,-794 401.17,-794 401.17,-688 240.88,-688"/>
</g>
<g id="clust8" class="cluster">
<title>cluster_7</title>
<polygon fill="lightgray" stroke="lightgray" points="199.28,-358 199.28,-680 442.76,-680 442.76,-358 199.28,-358"/>
</g>
<g id="clust9" class="cluster">
<title>cluster_8</title>
<polygon fill="lightgray" stroke="lightgray" points="147.94,-244 147.94,-350 494.11,-350 494.11,-244 147.94,-244"/>
</g>
<g id="clust10" class="cluster">
<title>cluster_9</title>
<polygon fill="lightgray" stroke="lightgray" points="16,-130 16,-236 626.05,-236 626.05,-130 16,-130"/>
</g>
<g id="clust11" class="cluster">
<title>cluster_10</title>
<polygon fill="lightgray" stroke="lightgray" points="87.49,-16 87.49,-122 554.55,-122 554.55,-16 87.49,-16"/>
</g>
<!-- BSD&#45;2&#45;Clause(1) -->
<g id="node1" class="node">
<title>BSD&#45;2&#45;Clause(1)</title>
<ellipse fill="springgreen" stroke="springgreen" cx="321.02" cy="-1338" rx="72.29" ry="18"/>
<text text-anchor="middle" x="321.02" y="-1334.3" font-family="Times-Roman" font-size="14.00">BSD&#45;2&#45;Clause</text>
</g>
<!-- BSD (2 clause)(2) -->
<g id="node2" class="node">
<title>BSD (2 clause)(2)</title>
<ellipse fill="white" stroke="white" cx="321.02" cy="-1278" rx="76.89" ry="18"/>
<text text-anchor="middle" x="321.02" y="-1274.3" font-family="Times-Roman" font-size="14.00">BSD (2 clause)</text>
</g>
<!-- BSD License (two clause)(2) -->
<g id="node3" class="node">
<title>BSD License (two clause)(2)</title>
<ellipse fill="white" stroke="white" cx="321.02" cy="-1224" rx="123.48" ry="18"/>
<text text-anchor="middle" x="321.02" y="-1220.3" font-family="Times-Roman" font-size="14.00">BSD License (two clause)</text>
</g>
<!-- BSD&#45;2&#45;Clause(2) -->
<g id="node4" class="node">
<title>BSD&#45;2&#45;Clause(2)</title>
<ellipse fill="springgreen" stroke="springgreen" cx="321.02" cy="-1170" rx="72.29" ry="18"/>
<text text-anchor="middle" x="321.02" y="-1166.3" font-family="Times-Roman" font-size="14.00">BSD&#45;2&#45;Clause</text>
</g>
<!-- BSD 2&#45;Clause &quot;Simplified&quot; License(3) -->
<g id="node5" class="node">
<title>BSD 2&#45;Clause &quot;Simplified&quot; License(3)</title>
<ellipse fill="white" stroke="white" cx="321.02" cy="-1110" rx="165.17" ry="18"/>
<text text-anchor="middle" x="321.02" y="-1106.3" font-family="Times-Roman" font-size="14.00">BSD 2&#45;Clause &quot;Simplified&quot; License</text>
</g>
<!-- BSD&#45;2&#45;Clause(3) -->
<g id="node6" class="node">
<title>BSD&#45;2&#45;Clause(3)</title>
<ellipse fill="springgreen" stroke="springgreen" cx="321.02" cy="-1056" rx="72.29" ry="18"/>
<text text-anchor="middle" x="321.02" y="-1052.3" font-family="Times-Roman" font-size="14.00">BSD&#45;2&#45;Clause</text>
</g>
<!-- BSD 2&#45;Clause &quot;Simplified&quot; License(4) -->
<g id="node7" class="node">
<title>BSD 2&#45;Clause &quot;Simplified&quot; License(4)</title>
<ellipse fill="white" stroke="white" cx="321.02" cy="-996" rx="165.17" ry="18"/>
<text text-anchor="middle" x="321.02" y="-992.3" font-family="Times-Roman" font-size="14.00">BSD 2&#45;Clause &quot;Simplified&quot; License</text>
</g>
<!-- BSD&#45;2&#45;Clause(4) -->
<g id="node8" class="node">
<title>BSD&#45;2&#45;Clause(4)</title>
<ellipse fill="springgreen" stroke="springgreen" cx="321.02" cy="-942" rx="72.29" ry="18"/>
<text text-anchor="middle" x="321.02" y="-938.3" font-family="Times-Roman" font-size="14.00">BSD&#45;2&#45;Clause</text>
</g>
<!-- BSD&#45;2&#45;Clause(5) -->
<g id="node9" class="node">
<title>BSD&#45;2&#45;Clause(5)</title>
<ellipse fill="springgreen" stroke="springgreen" cx="321.02" cy="-882" rx="72.29" ry="18"/>
<text text-anchor="middle" x="321.02" y="-878.3" font-family="Times-Roman" font-size="14.00">BSD&#45;2&#45;Clause</text>
</g>
<!-- scancode://bsd&#45;simplified(5) -->
<g id="node10" class="node">
<title>scancode://bsd&#45;simplified(5)</title>
<ellipse fill="white" stroke="white" cx="321.02" cy="-828" rx="126.18" ry="18"/>
<text text-anchor="middle" x="321.02" y="-824.3" font-family="Times-Roman" font-size="14.00">scancode://bsd&#45;simplified</text>
</g>
<!-- BSD&#45;2&#45;Clause(6) -->
<g id="node11" class="node">
<title>BSD&#45;2&#45;Clause(6)</title>
<ellipse fill="springgreen" stroke="springgreen" cx="321.02" cy="-768" rx="72.29" ry="18"/>
<text text-anchor="middle" x="321.02" y="-764.3" font-family="Times-Roman" font-size="14.00">BSD&#45;2&#45;Clause</text>
</g>
<!-- bsd&#45;2&#45;clause(6) -->
<g id="node12" class="node">
<title>bsd&#45;2&#45;clause(6)</title>
<ellipse fill="white" stroke="white" cx="321.02" cy="-714" rx="68.79" ry="18"/>
<text text-anchor="middle" x="321.02" y="-710.3" font-family="Times-Roman" font-size="14.00">bsd&#45;2&#45;clause</text>
</g>
<!-- BSD 2&#45;Clause License(7) -->
<g id="node13" class="node">
<title>BSD 2&#45;Clause License(7)</title>
<ellipse fill="white" stroke="white" cx="321.02" cy="-654" rx="108.58" ry="18"/>
<text text-anchor="middle" x="321.02" y="-650.3" font-family="Times-Roman" font-size="14.00">BSD 2&#45;Clause License</text>
</g>
<!-- BSD&#45;2(7) -->
<g id="node14" class="node">
<title>BSD&#45;2(7)</title>
<ellipse fill="white" stroke="white" cx="321.02" cy="-600" rx="38.19" ry="18"/>
<text text-anchor="middle" x="321.02" y="-596.3" font-family="Times-Roman" font-size="14.00">BSD&#45;2</text>
</g>
<!-- BSD&#45;2&#45;Clause(7) -->
<g id="node15" class="node">
<title>BSD&#45;2&#45;Clause(7)</title>
<ellipse fill="springgreen" stroke="springgreen" cx="321.02" cy="-546" rx="72.29" ry="18"/>
<text text-anchor="middle" x="321.02" y="-542.3" font-family="Times-Roman" font-size="14.00">BSD&#45;2&#45;Clause</text>
</g>
<!-- BSD&#45;2&#45;clause(7) -->
<g id="node16" class="node">
<title>BSD&#45;2&#45;clause(7)</title>
<ellipse fill="white" stroke="white" cx="321.02" cy="-492" rx="70.69" ry="18"/>
<text text-anchor="middle" x="321.02" y="-488.3" font-family="Times-Roman" font-size="14.00">BSD&#45;2&#45;clause</text>
</g>
<!-- FreeBSD License(7) -->
<g id="node17" class="node">
<title>FreeBSD License(7)</title>
<ellipse fill="white" stroke="white" cx="321.02" cy="-438" rx="84.49" ry="18"/>
<text text-anchor="middle" x="321.02" y="-434.3" font-family="Times-Roman" font-size="14.00">FreeBSD License</text>
</g>
<!-- Simplified BSD License(7) -->
<g id="node18" class="node">
<title>Simplified BSD License(7)</title>
<ellipse fill="white" stroke="white" cx="321.02" cy="-384" rx="113.98" ry="18"/>
<text text-anchor="middle" x="321.02" y="-380.3" font-family="Times-Roman" font-size="14.00">Simplified BSD License</text>
</g>
<!-- BSD 2&#45;Clause &quot;Simplified&quot; License(8) -->
<g id="node19" class="node">
<title>BSD 2&#45;Clause &quot;Simplified&quot; License(8)</title>
<ellipse fill="white" stroke="white" cx="321.02" cy="-324" rx="165.17" ry="18"/>
<text text-anchor="middle" x="321.02" y="-320.3" font-family="Times-Roman" font-size="14.00">BSD 2&#45;Clause &quot;Simplified&quot; License</text>
</g>
<!-- BSD&#45;2&#45;Clause(8) -->
<g id="node20" class="node">
<title>BSD&#45;2&#45;Clause(8)</title>
<ellipse fill="springgreen" stroke="springgreen" cx="321.02" cy="-270" rx="72.29" ry="18"/>
<text text-anchor="middle" x="321.02" y="-266.3" font-family="Times-Roman" font-size="14.00">BSD&#45;2&#45;Clause</text>
</g>
<!-- BSD 2&#45;Clause &quot;Simplified&quot; or &quot;FreeBSD&quot; License (BSD&#45;2&#45;Clause)(9) -->
<g id="node21" class="node">
<title>BSD 2&#45;Clause &quot;Simplified&quot; or &quot;FreeBSD&quot; License (BSD&#45;2&#45;Clause)(9)</title>
<ellipse fill="white" stroke="white" cx="321.02" cy="-210" rx="297.05" ry="18"/>
<text text-anchor="middle" x="321.02" y="-206.3" font-family="Times-Roman" font-size="14.00">BSD 2&#45;Clause &quot;Simplified&quot; or &quot;FreeBSD&quot; License (BSD&#45;2&#45;Clause)</text>
</g>
<!-- BSD&#45;2&#45;Clause(9) -->
<g id="node22" class="node">
<title>BSD&#45;2&#45;Clause(9)</title>
<ellipse fill="springgreen" stroke="springgreen" cx="321.02" cy="-156" rx="72.29" ry="18"/>
<text text-anchor="middle" x="321.02" y="-152.3" font-family="Times-Roman" font-size="14.00">BSD&#45;2&#45;Clause</text>
</g>
<!-- BSD 2&#45;Clause &quot;Simplified&quot; or &quot;FreeBSD&quot; License(10) -->
<g id="node23" class="node">
<title>BSD 2&#45;Clause &quot;Simplified&quot; or &quot;FreeBSD&quot; License(10)</title>
<ellipse fill="white" stroke="white" cx="321.02" cy="-96" rx="225.56" ry="18"/>
<text text-anchor="middle" x="321.02" y="-92.3" font-family="Times-Roman" font-size="14.00">BSD 2&#45;Clause &quot;Simplified&quot; or &quot;FreeBSD&quot; License</text>
</g>
<!-- BSD&#45;2&#45;Clause(10) -->
<g id="node24" class="node">
<title>BSD&#45;2&#45;Clause(10)</title>
<ellipse fill="springgreen" stroke="springgreen" cx="321.02" cy="-42" rx="72.29" ry="18"/>
<text text-anchor="middle" x="321.02" y="-38.3" font-family="Times-Roman" font-size="14.00">BSD&#45;2&#45;Clause</text>
</g>
</g>
</svg>
