<?xml version="1.0" encoding="UTF-8" standalone="no"?>
<!DOCTYPE svg PUBLIC "-//W3C//DTD SVG 1.1//EN"
 "http://www.w3.org/Graphics/SVG/1.1/DTD/svg11.dtd">
<!-- Generated by graphviz version 2.43.0 (0)
 -->
<!-- Title: BSD&#45;4&#45;Clause&#45;UC Pages: 1 -->
<svg width="1178pt" height="92pt"
 viewBox="0.00 0.00 1178.00 92.00" xmlns="http://www.w3.org/2000/svg" xmlns:xlink="http://www.w3.org/1999/xlink">
<g id="graph0" class="graph" transform="scale(1 1) rotate(0) translate(4 88)">
<title>BSD&#45;4&#45;Clause&#45;UC</title>
<polygon fill="white" stroke="transparent" points="-4,4 -4,-88 1174,-88 1174,4 -4,4"/>
<g id="clust1" class="cluster">
<title>cluster_0</title>
<polygon fill="none" stroke="black" points="8,-8 8,-76 1162,-76 1162,-8 8,-8"/>
</g>
<g id="clust2" class="cluster">
<title>cluster_1</title>
<polygon fill="lightgray" stroke="lightgray" points="960,-16 960,-68 1154,-68 1154,-16 960,-16"/>
</g>
<g id="clust3" class="cluster">
<title>cluster_2</title>
<polygon fill="lightgray" stroke="lightgray" points="488,-16 488,-68 952,-68 952,-16 488,-16"/>
</g>
<g id="clust5" class="cluster">
<title>cluster_4</title>
<polygon fill="lightgray" stroke="lightgray" points="16,-16 16,-68 480,-68 480,-16 16,-16"/>
</g>
<!-- BSD&#45;4&#45;Clause&#45;UC -->
<g id="node1" class="node">
<title>BSD&#45;4&#45;Clause&#45;UC</title>
<ellipse fill="white" stroke="white" cx="1057" cy="-42" rx="89.08" ry="18"/>
<text text-anchor="middle" x="1057" y="-38.3" font-family="Times-Roman" font-size="14.00">BSD&#45;4&#45;Clause&#45;UC</text>
</g>
<!-- BSD&#45;4&#45;Clause (University of California&#45;Specific) -->
<g id="node2" class="node">
<title>BSD&#45;4&#45;Clause (University of California&#45;Specific)</title>
<ellipse fill="white" stroke="white" cx="720" cy="-42" rx="223.66" ry="18"/>
<text text-anchor="middle" x="720" y="-38.3" font-family="Times-Roman" font-size="14.00">BSD&#45;4&#45;Clause (University of California&#45;Specific)</text>
</g>
<!-- BSD&#45;Original&#45;UC -->
<g id="node3" class="node">
<title>BSD&#45;Original&#45;UC</title>
<ellipse fill="white" stroke="white" cx="387" cy="-42" rx="85.29" ry="18"/>
<text text-anchor="middle" x="387" y="-38.3" font-family="Times-Roman" font-size="14.00">BSD&#45;Original&#45;UC</text>
</g>
<!-- scancode://bsd&#45;original&#45;uc -->
<g id="node4" class="node">
<title>scancode://bsd&#45;original&#45;uc</title>
<ellipse fill="white" stroke="white" cx="154" cy="-42" rx="129.98" ry="18"/>
<text text-anchor="middle" x="154" y="-38.3" font-family="Times-Roman" font-size="14.00">scancode://bsd&#45;original&#45;uc</text>
</g>
</g>
</svg>
