<?xml version="1.0" encoding="UTF-8" standalone="no"?>
<!DOCTYPE svg PUBLIC "-//W3C//DTD SVG 1.1//EN"
 "http://www.w3.org/Graphics/SVG/1.1/DTD/svg11.dtd">
<!-- Generated by graphviz version 2.43.0 (0)
 -->
<!-- Title: BSL&#45;1.0 Pages: 1 -->
<svg width="3773pt" height="92pt"
 viewBox="0.00 0.00 3773.00 92.00" xmlns="http://www.w3.org/2000/svg" xmlns:xlink="http://www.w3.org/1999/xlink">
<g id="graph0" class="graph" transform="scale(1 1) rotate(0) translate(4 88)">
<title>BSL&#45;1.0</title>
<polygon fill="white" stroke="transparent" points="-4,4 -4,-88 3769,-88 3769,4 -4,4"/>
<g id="clust1" class="cluster">
<title>cluster_0</title>
<polygon fill="none" stroke="black" points="8,-8 8,-76 3757,-76 3757,-8 8,-8"/>
</g>
<g id="clust2" class="cluster">
<title>cluster_1</title>
<polygon fill="lightgray" stroke="lightgray" points="3643,-16 3643,-68 3749,-68 3749,-16 3643,-16"/>
</g>
<g id="clust3" class="cluster">
<title>cluster_2</title>
<polygon fill="lightgray" stroke="lightgray" points="3247,-16 3247,-68 3635,-68 3635,-16 3247,-16"/>
</g>
<g id="clust4" class="cluster">
<title>cluster_3</title>
<polygon fill="lightgray" stroke="lightgray" points="2851,-16 2851,-68 3239,-68 3239,-16 2851,-16"/>
</g>
<g id="clust5" class="cluster">
<title>cluster_4</title>
<polygon fill="lightgray" stroke="lightgray" points="2383,-16 2383,-68 2843,-68 2843,-16 2383,-16"/>
</g>
<g id="clust6" class="cluster">
<title>cluster_5</title>
<polygon fill="lightgray" stroke="lightgray" points="2166,-16 2166,-68 2375,-68 2375,-16 2166,-16"/>
</g>
<g id="clust7" class="cluster">
<title>cluster_6</title>
<polygon fill="lightgray" stroke="lightgray" points="1680,-16 1680,-68 2158,-68 2158,-16 1680,-16"/>
</g>
<g id="clust8" class="cluster">
<title>cluster_7</title>
<polygon fill="lightgray" stroke="lightgray" points="1284,-16 1284,-68 1672,-68 1672,-16 1284,-16"/>
</g>
<g id="clust9" class="cluster">
<title>cluster_8</title>
<polygon fill="lightgray" stroke="lightgray" points="888,-16 888,-68 1276,-68 1276,-16 888,-16"/>
</g>
<g id="clust10" class="cluster">
<title>cluster_9</title>
<polygon fill="lightgray" stroke="lightgray" points="492,-16 492,-68 880,-68 880,-16 492,-16"/>
</g>
<g id="clust11" class="cluster">
<title>cluster_10</title>
<polygon fill="lightgray" stroke="lightgray" points="245,-16 245,-68 484,-68 484,-16 245,-16"/>
</g>
<g id="clust12" class="cluster">
<title>cluster_11</title>
<polygon fill="lightgray" stroke="lightgray" points="16,-16 16,-68 237,-68 237,-16 16,-16"/>
</g>
<!-- BSL&#45;1.0(1) -->
<g id="node1" class="node">
<title>BSL&#45;1.0(1)</title>
<ellipse fill="springgreen" stroke="springgreen" cx="3696" cy="-42" rx="45.49" ry="18"/>
<text text-anchor="middle" x="3696" y="-38.3" font-family="Times-Roman" font-size="14.00">BSL&#45;1.0</text>
</g>
<!-- BSL&#45;1.0(2) -->
<g id="node2" class="node">
<title>BSL&#45;1.0(2)</title>
<ellipse fill="springgreen" stroke="springgreen" cx="3582" cy="-42" rx="45.49" ry="18"/>
<text text-anchor="middle" x="3582" y="-38.3" font-family="Times-Roman" font-size="14.00">BSL&#45;1.0</text>
</g>
<!-- Boost Software License 1.0(2) -->
<g id="node3" class="node">
<title>Boost Software License 1.0(2)</title>
<ellipse fill="white" stroke="white" cx="3387" cy="-42" rx="131.88" ry="18"/>
<text text-anchor="middle" x="3387" y="-38.3" font-family="Times-Roman" font-size="14.00">Boost Software License 1.0</text>
</g>
<!-- BSL&#45;1.0(3) -->
<g id="node4" class="node">
<title>BSL&#45;1.0(3)</title>
<ellipse fill="springgreen" stroke="springgreen" cx="3186" cy="-42" rx="45.49" ry="18"/>
<text text-anchor="middle" x="3186" y="-38.3" font-family="Times-Roman" font-size="14.00">BSL&#45;1.0</text>
</g>
<!-- Boost Software License 1.0(3) -->
<g id="node5" class="node">
<title>Boost Software License 1.0(3)</title>
<ellipse fill="white" stroke="white" cx="2991" cy="-42" rx="131.88" ry="18"/>
<text text-anchor="middle" x="2991" y="-38.3" font-family="Times-Roman" font-size="14.00">Boost Software License 1.0</text>
</g>
<!-- BSL&#45;1.0(4) -->
<g id="node6" class="node">
<title>BSL&#45;1.0(4)</title>
<ellipse fill="springgreen" stroke="springgreen" cx="2790" cy="-42" rx="45.49" ry="18"/>
<text text-anchor="middle" x="2790" y="-38.3" font-family="Times-Roman" font-size="14.00">BSL&#45;1.0</text>
</g>
<!-- Boost 1.0(4) -->
<g id="node7" class="node">
<title>Boost 1.0(4)</title>
<ellipse fill="white" stroke="white" cx="2673" cy="-42" rx="53.89" ry="18"/>
<text text-anchor="middle" x="2673" y="-38.3" font-family="Times-Roman" font-size="14.00">Boost 1.0</text>
</g>
<!-- scancode://boost&#45;1.0(4) -->
<g id="node8" class="node">
<title>scancode://boost&#45;1.0(4)</title>
<ellipse fill="white" stroke="white" cx="2496" cy="-42" rx="104.78" ry="18"/>
<text text-anchor="middle" x="2496" y="-38.3" font-family="Times-Roman" font-size="14.00">scancode://boost&#45;1.0</text>
</g>
<!-- BSL&#45;1.0(5) -->
<g id="node9" class="node">
<title>BSL&#45;1.0(5)</title>
<ellipse fill="springgreen" stroke="springgreen" cx="2322" cy="-42" rx="45.49" ry="18"/>
<text text-anchor="middle" x="2322" y="-38.3" font-family="Times-Roman" font-size="14.00">BSL&#45;1.0</text>
</g>
<!-- bsl&#45;1.0(5) -->
<g id="node10" class="node">
<title>bsl&#45;1.0(5)</title>
<ellipse fill="white" stroke="white" cx="2216" cy="-42" rx="42.49" ry="18"/>
<text text-anchor="middle" x="2216" y="-38.3" font-family="Times-Roman" font-size="14.00">bsl&#45;1.0</text>
</g>
<!-- BSL&#45;1.0(6) -->
<g id="node11" class="node">
<title>BSL&#45;1.0(6)</title>
<ellipse fill="springgreen" stroke="springgreen" cx="2105" cy="-42" rx="45.49" ry="18"/>
<text text-anchor="middle" x="2105" y="-38.3" font-family="Times-Roman" font-size="14.00">BSL&#45;1.0</text>
</g>
<!-- Boost Software License 1.0 (BSL&#45;1.0)(6) -->
<g id="node12" class="node">
<title>Boost Software License 1.0 (BSL&#45;1.0)(6)</title>
<ellipse fill="white" stroke="white" cx="1865" cy="-42" rx="176.57" ry="18"/>
<text text-anchor="middle" x="1865" y="-38.3" font-family="Times-Roman" font-size="14.00">Boost Software License 1.0 (BSL&#45;1.0)</text>
</g>
<!-- BSL&#45;1.0(7) -->
<g id="node13" class="node">
<title>BSL&#45;1.0(7)</title>
<ellipse fill="springgreen" stroke="springgreen" cx="1619" cy="-42" rx="45.49" ry="18"/>
<text text-anchor="middle" x="1619" y="-38.3" font-family="Times-Roman" font-size="14.00">BSL&#45;1.0</text>
</g>
<!-- Boost Software License 1.0(7) -->
<g id="node14" class="node">
<title>Boost Software License 1.0(7)</title>
<ellipse fill="white" stroke="white" cx="1424" cy="-42" rx="131.88" ry="18"/>
<text text-anchor="middle" x="1424" y="-38.3" font-family="Times-Roman" font-size="14.00">Boost Software License 1.0</text>
</g>
<!-- BSL&#45;1.0(8) -->
<g id="node15" class="node">
<title>BSL&#45;1.0(8)</title>
<ellipse fill="springgreen" stroke="springgreen" cx="1223" cy="-42" rx="45.49" ry="18"/>
<text text-anchor="middle" x="1223" y="-38.3" font-family="Times-Roman" font-size="14.00">BSL&#45;1.0</text>
</g>
<!-- Boost Software License 1.0(8) -->
<g id="node16" class="node">
<title>Boost Software License 1.0(8)</title>
<ellipse fill="white" stroke="white" cx="1028" cy="-42" rx="131.88" ry="18"/>
<text text-anchor="middle" x="1028" y="-38.3" font-family="Times-Roman" font-size="14.00">Boost Software License 1.0</text>
</g>
<!-- BSL&#45;1.0(9) -->
<g id="node17" class="node">
<title>BSL&#45;1.0(9)</title>
<ellipse fill="springgreen" stroke="springgreen" cx="827" cy="-42" rx="45.49" ry="18"/>
<text text-anchor="middle" x="827" y="-38.3" font-family="Times-Roman" font-size="14.00">BSL&#45;1.0</text>
</g>
<!-- Boost Software License 1.0(9) -->
<g id="node18" class="node">
<title>Boost Software License 1.0(9)</title>
<ellipse fill="white" stroke="white" cx="632" cy="-42" rx="131.88" ry="18"/>
<text text-anchor="middle" x="632" y="-38.3" font-family="Times-Roman" font-size="14.00">Boost Software License 1.0</text>
</g>
<!-- BSL (v1.0)(10) -->
<g id="node19" class="node">
<title>BSL (v1.0)(10)</title>
<ellipse fill="white" stroke="white" cx="419" cy="-42" rx="57.39" ry="18"/>
<text text-anchor="middle" x="419" y="-38.3" font-family="Times-Roman" font-size="14.00">BSL (v1.0)</text>
</g>
<!-- BSL&#45;1.0(10) -->
<g id="node20" class="node">
<title>BSL&#45;1.0(10)</title>
<ellipse fill="springgreen" stroke="springgreen" cx="298" cy="-42" rx="45.49" ry="18"/>
<text text-anchor="middle" x="298" y="-38.3" font-family="Times-Roman" font-size="14.00">BSL&#45;1.0</text>
</g>
<!-- BSL (v1)(11) -->
<g id="node21" class="node">
<title>BSL (v1)(11)</title>
<ellipse fill="white" stroke="white" cx="181" cy="-42" rx="48.19" ry="18"/>
<text text-anchor="middle" x="181" y="-38.3" font-family="Times-Roman" font-size="14.00">BSL (v1)</text>
</g>
<!-- BSL&#45;1.0(11) -->
<g id="node22" class="node">
<title>BSL&#45;1.0(11)</title>
<ellipse fill="springgreen" stroke="springgreen" cx="69" cy="-42" rx="45.49" ry="18"/>
<text text-anchor="middle" x="69" y="-38.3" font-family="Times-Roman" font-size="14.00">BSL&#45;1.0</text>
</g>
</g>
</svg>
