<?xml version="1.0" encoding="UTF-8" standalone="no"?>
<!DOCTYPE svg PUBLIC "-//W3C//DTD SVG 1.1//EN"
 "http://www.w3.org/Graphics/SVG/1.1/DTD/svg11.dtd">
<!-- Generated by graphviz version 2.43.0 (0)
 -->
<!-- Title: bzip2&#45;1.0.6 Pages: 1 -->
<svg width="381pt" height="434pt"
 viewBox="0.00 0.00 380.97 434.00" xmlns="http://www.w3.org/2000/svg" xmlns:xlink="http://www.w3.org/1999/xlink">
<g id="graph0" class="graph" transform="scale(1 1) rotate(0) translate(4 430)">
<title>bzip2&#45;1.0.6</title>
<polygon fill="white" stroke="transparent" points="-4,4 -4,-430 376.97,-430 376.97,4 -4,4"/>
<g id="clust1" class="cluster">
<title>cluster_0</title>
<polygon fill="none" stroke="black" points="8,-8 8,-418 364.97,-418 364.97,-8 8,-8"/>
</g>
<g id="clust2" class="cluster">
<title>cluster_1</title>
<polygon fill="lightgray" stroke="lightgray" points="116.09,-358 116.09,-410 256.88,-410 256.88,-358 116.09,-358"/>
</g>
<g id="clust3" class="cluster">
<title>cluster_2</title>
<polygon fill="lightgray" stroke="lightgray" points="16,-244 16,-350 356.97,-350 356.97,-244 16,-244"/>
</g>
<g id="clust4" class="cluster">
<title>cluster_3</title>
<polygon fill="lightgray" stroke="lightgray" points="89.44,-130 89.44,-236 283.53,-236 283.53,-130 89.44,-130"/>
</g>
<g id="clust5" class="cluster">
<title>cluster_4</title>
<polygon fill="lightgray" stroke="lightgray" points="16,-16 16,-122 356.97,-122 356.97,-16 16,-16"/>
</g>
<!-- bzip2&#45;1.0.6(1) -->
<g id="node1" class="node">
<title>bzip2&#45;1.0.6(1)</title>
<ellipse fill="springgreen" stroke="springgreen" cx="186.49" cy="-384" rx="62.29" ry="18"/>
<text text-anchor="middle" x="186.49" y="-380.3" font-family="Times-Roman" font-size="14.00">bzip2&#45;1.0.6</text>
</g>
<!-- bzip2 and libbzip2 License v1.0.6(2) -->
<g id="node2" class="node">
<title>bzip2 and libbzip2 License v1.0.6(2)</title>
<ellipse fill="white" stroke="white" cx="186.49" cy="-324" rx="162.47" ry="18"/>
<text text-anchor="middle" x="186.49" y="-320.3" font-family="Times-Roman" font-size="14.00">bzip2 and libbzip2 License v1.0.6</text>
</g>
<!-- bzip2&#45;1.0.6(2) -->
<g id="node3" class="node">
<title>bzip2&#45;1.0.6(2)</title>
<ellipse fill="springgreen" stroke="springgreen" cx="186.49" cy="-270" rx="62.29" ry="18"/>
<text text-anchor="middle" x="186.49" y="-266.3" font-family="Times-Roman" font-size="14.00">bzip2&#45;1.0.6</text>
</g>
<!-- The bzip2 license(3) -->
<g id="node4" class="node">
<title>The bzip2 license(3)</title>
<ellipse fill="white" stroke="white" cx="186.49" cy="-210" rx="89.08" ry="18"/>
<text text-anchor="middle" x="186.49" y="-206.3" font-family="Times-Roman" font-size="14.00">The bzip2 license</text>
</g>
<!-- bzip2&#45;1.0.6(3) -->
<g id="node5" class="node">
<title>bzip2&#45;1.0.6(3)</title>
<ellipse fill="springgreen" stroke="springgreen" cx="186.49" cy="-156" rx="62.29" ry="18"/>
<text text-anchor="middle" x="186.49" y="-152.3" font-family="Times-Roman" font-size="14.00">bzip2&#45;1.0.6</text>
</g>
<!-- bzip2 and libbzip2 License v1.0.6(4) -->
<g id="node6" class="node">
<title>bzip2 and libbzip2 License v1.0.6(4)</title>
<ellipse fill="white" stroke="white" cx="186.49" cy="-96" rx="162.47" ry="18"/>
<text text-anchor="middle" x="186.49" y="-92.3" font-family="Times-Roman" font-size="14.00">bzip2 and libbzip2 License v1.0.6</text>
</g>
<!-- bzip2&#45;1.0.6(4) -->
<g id="node7" class="node">
<title>bzip2&#45;1.0.6(4)</title>
<ellipse fill="springgreen" stroke="springgreen" cx="186.49" cy="-42" rx="62.29" ry="18"/>
<text text-anchor="middle" x="186.49" y="-38.3" font-family="Times-Roman" font-size="14.00">bzip2&#45;1.0.6</text>
</g>
</g>
</svg>
