<?xml version="1.0" encoding="UTF-8" standalone="no"?>
<!DOCTYPE svg PUBLIC "-//W3C//DTD SVG 1.1//EN"
 "http://www.w3.org/Graphics/SVG/1.1/DTD/svg11.dtd">
<!-- Generated by graphviz version 2.43.0 (0)
 -->
<!-- Title: Caldera Pages: 1 -->
<svg width="946pt" height="92pt"
 viewBox="0.00 0.00 946.00 92.00" xmlns="http://www.w3.org/2000/svg" xmlns:xlink="http://www.w3.org/1999/xlink">
<g id="graph0" class="graph" transform="scale(1 1) rotate(0) translate(4 88)">
<title>Caldera</title>
<polygon fill="white" stroke="transparent" points="-4,4 -4,-88 942,-88 942,4 -4,4"/>
<g id="clust1" class="cluster">
<title>cluster_0</title>
<polygon fill="none" stroke="black" points="8,-8 8,-76 930,-76 930,-8 8,-8"/>
</g>
<g id="clust2" class="cluster">
<title>cluster_1</title>
<polygon fill="lightgray" stroke="lightgray" points="816,-16 816,-68 922,-68 922,-16 816,-16"/>
</g>
<g id="clust3" class="cluster">
<title>cluster_2</title>
<polygon fill="lightgray" stroke="lightgray" points="520,-16 520,-68 808,-68 808,-16 520,-16"/>
</g>
<g id="clust4" class="cluster">
<title>cluster_3</title>
<polygon fill="lightgray" stroke="lightgray" points="16,-16 16,-68 512,-68 512,-16 16,-16"/>
</g>
<!-- Caldera(1) -->
<g id="node1" class="node">
<title>Caldera(1)</title>
<ellipse fill="springgreen" stroke="springgreen" cx="869" cy="-42" rx="45.49" ry="18"/>
<text text-anchor="middle" x="869" y="-38.3" font-family="Times-Roman" font-size="14.00">Caldera</text>
</g>
<!-- Caldera(2) -->
<g id="node2" class="node">
<title>Caldera(2)</title>
<ellipse fill="springgreen" stroke="springgreen" cx="755" cy="-42" rx="45.49" ry="18"/>
<text text-anchor="middle" x="755" y="-38.3" font-family="Times-Roman" font-size="14.00">Caldera</text>
</g>
<!-- Caldera License(2) -->
<g id="node3" class="node">
<title>Caldera License(2)</title>
<ellipse fill="white" stroke="white" cx="610" cy="-42" rx="81.79" ry="18"/>
<text text-anchor="middle" x="610" y="-38.3" font-family="Times-Roman" font-size="14.00">Caldera License</text>
</g>
<!-- Caldera(3) -->
<g id="node4" class="node">
<title>Caldera(3)</title>
<ellipse fill="springgreen" stroke="springgreen" cx="459" cy="-42" rx="45.49" ry="18"/>
<text text-anchor="middle" x="459" y="-38.3" font-family="Times-Roman" font-size="14.00">Caldera</text>
</g>
<!-- Caldera License(3) -->
<g id="node5" class="node">
<title>Caldera License(3)</title>
<ellipse fill="white" stroke="white" cx="314" cy="-42" rx="81.79" ry="18"/>
<text text-anchor="middle" x="314" y="-38.3" font-family="Times-Roman" font-size="14.00">Caldera License</text>
</g>
<!-- scancode://caldera(3) -->
<g id="node6" class="node">
<title>scancode://caldera(3)</title>
<ellipse fill="white" stroke="white" cx="119" cy="-42" rx="94.78" ry="18"/>
<text text-anchor="middle" x="119" y="-38.3" font-family="Times-Roman" font-size="14.00">scancode://caldera</text>
</g>
</g>
</svg>
