<?xml version="1.0" encoding="UTF-8" standalone="no"?>
<!DOCTYPE svg PUBLIC "-//W3C//DTD SVG 1.1//EN"
 "http://www.w3.org/Graphics/SVG/1.1/DTD/svg11.dtd">
<!-- Generated by graphviz version 7.0.0 (0)
 -->
<!-- Title: CC&#45;BY&#45;4.0 Pages: 1 -->
<svg width="420pt" height="776pt"
 viewBox="0.00 0.00 419.97 776.00" xmlns="http://www.w3.org/2000/svg" xmlns:xlink="http://www.w3.org/1999/xlink">
<g id="graph0" class="graph" transform="scale(1 1) rotate(0) translate(4 772)">
<title>CC&#45;BY&#45;4.0</title>
<polygon fill="white" stroke="none" points="-4,4 -4,-772 415.97,-772 415.97,4 -4,4"/>
<g id="clust1" class="cluster">
<title>cluster_0</title>
<polygon fill="none" stroke="black" points="8,-8 8,-760 403.97,-760 403.97,-8 8,-8"/>
</g>
<g id="clust2" class="cluster">
<title>cluster_1</title>
<polygon fill="lightgray" stroke="lightgray" points="147.29,-700 147.29,-752 264.68,-752 264.68,-700 147.29,-700"/>
</g>
<g id="clust3" class="cluster">
<title>cluster_2</title>
<polygon fill="lightgray" stroke="lightgray" points="147.29,-586 147.29,-692 264.68,-692 264.68,-586 147.29,-586"/>
</g>
<g id="clust4" class="cluster">
<title>cluster_3</title>
<polygon fill="lightgray" stroke="lightgray" points="90.09,-472 90.09,-578 321.87,-578 321.87,-472 90.09,-472"/>
</g>
<g id="clust5" class="cluster">
<title>cluster_4</title>
<polygon fill="lightgray" stroke="lightgray" points="63.45,-358 63.45,-464 348.52,-464 348.52,-358 63.45,-358"/>
</g>
<g id="clust6" class="cluster">
<title>cluster_5</title>
<polygon fill="lightgray" stroke="lightgray" points="16,-244 16,-350 395.97,-350 395.97,-244 16,-244"/>
</g>
<g id="clust7" class="cluster">
<title>cluster_6</title>
<polygon fill="lightgray" stroke="lightgray" points="114.14,-130 114.14,-236 297.83,-236 297.83,-130 114.14,-130"/>
</g>
<g id="clust8" class="cluster">
<title>cluster_7</title>
<polygon fill="lightgray" stroke="lightgray" points="147.29,-16 147.29,-122 264.68,-122 264.68,-16 147.29,-16"/>
</g>
<!-- CC&#45;BY&#45;4.0(1) -->
<g id="node1" class="node">
<title>CC&#45;BY&#45;4.0(1)</title>
<ellipse fill="springgreen" stroke="springgreen" cx="205.98" cy="-726" rx="50.89" ry="18"/>
<text text-anchor="middle" x="205.98" y="-722.3" font-family="Times,serif" font-size="14.00">CC&#45;BY&#45;4.0</text>
</g>
<!-- CC&#45;BY&#45;4.0(2) -->
<g id="node2" class="node">
<title>CC&#45;BY&#45;4.0(2)</title>
<ellipse fill="springgreen" stroke="springgreen" cx="205.98" cy="-666" rx="50.89" ry="18"/>
<text text-anchor="middle" x="205.98" y="-662.3" font-family="Times,serif" font-size="14.00">CC&#45;BY&#45;4.0</text>
</g>
<!-- cc&#45;by&#45;4.0(2) -->
<g id="node3" class="node">
<title>cc&#45;by&#45;4.0(2)</title>
<ellipse fill="white" stroke="white" cx="205.98" cy="-612" rx="44.39" ry="18"/>
<text text-anchor="middle" x="205.98" y="-608.3" font-family="Times,serif" font-size="14.00">cc&#45;by&#45;4.0</text>
</g>
<!-- CC&#45;BY&#45;4.0(3) -->
<g id="node4" class="node">
<title>CC&#45;BY&#45;4.0(3)</title>
<ellipse fill="springgreen" stroke="springgreen" cx="205.98" cy="-552" rx="50.89" ry="18"/>
<text text-anchor="middle" x="205.98" y="-548.3" font-family="Times,serif" font-size="14.00">CC&#45;BY&#45;4.0</text>
</g>
<!-- Creative Commons BY 4.0(3) -->
<g id="node5" class="node">
<title>Creative Commons BY 4.0(3)</title>
<ellipse fill="white" stroke="white" cx="205.98" cy="-498" rx="107.78" ry="18"/>
<text text-anchor="middle" x="205.98" y="-494.3" font-family="Times,serif" font-size="14.00">Creative Commons BY 4.0</text>
</g>
<!-- CC&#45;BY&#45;4.0(4) -->
<g id="node6" class="node">
<title>CC&#45;BY&#45;4.0(4)</title>
<ellipse fill="springgreen" stroke="springgreen" cx="205.98" cy="-438" rx="50.89" ry="18"/>
<text text-anchor="middle" x="205.98" y="-434.3" font-family="Times,serif" font-size="14.00">CC&#45;BY&#45;4.0</text>
</g>
<!-- Creative Commons Attribution 4.0(4) -->
<g id="node7" class="node">
<title>Creative Commons Attribution 4.0(4)</title>
<ellipse fill="white" stroke="white" cx="205.98" cy="-384" rx="134.58" ry="18"/>
<text text-anchor="middle" x="205.98" y="-380.3" font-family="Times,serif" font-size="14.00">Creative Commons Attribution 4.0</text>
</g>
<!-- CC&#45;BY&#45;4.0(5) -->
<g id="node8" class="node">
<title>CC&#45;BY&#45;4.0(5)</title>
<ellipse fill="springgreen" stroke="springgreen" cx="205.98" cy="-324" rx="50.89" ry="18"/>
<text text-anchor="middle" x="205.98" y="-320.3" font-family="Times,serif" font-size="14.00">CC&#45;BY&#45;4.0</text>
</g>
<!-- Creative Commons Attribution 4.0 International(5) -->
<g id="node9" class="node">
<title>Creative Commons Attribution 4.0 International(5)</title>
<ellipse fill="white" stroke="white" cx="205.98" cy="-270" rx="181.97" ry="18"/>
<text text-anchor="middle" x="205.98" y="-266.3" font-family="Times,serif" font-size="14.00">Creative Commons Attribution 4.0 International</text>
</g>
<!-- CC&#45;BY&#45;4.0(6) -->
<g id="node10" class="node">
<title>CC&#45;BY&#45;4.0(6)</title>
<ellipse fill="springgreen" stroke="springgreen" cx="205.98" cy="-210" rx="50.89" ry="18"/>
<text text-anchor="middle" x="205.98" y="-206.3" font-family="Times,serif" font-size="14.00">CC&#45;BY&#45;4.0</text>
</g>
<!-- scancode://cc&#45;by&#45;4.0(6) -->
<g id="node11" class="node">
<title>scancode://cc&#45;by&#45;4.0(6)</title>
<ellipse fill="white" stroke="white" cx="205.98" cy="-156" rx="83.69" ry="18"/>
<text text-anchor="middle" x="205.98" y="-152.3" font-family="Times,serif" font-size="14.00">scancode://cc&#45;by&#45;4.0</text>
</g>
<!-- CC&#45;BY 4.0(7) -->
<g id="node12" class="node">
<title>CC&#45;BY 4.0(7)</title>
<ellipse fill="white" stroke="white" cx="205.98" cy="-96" rx="50.89" ry="18"/>
<text text-anchor="middle" x="205.98" y="-92.3" font-family="Times,serif" font-size="14.00">CC&#45;BY 4.0</text>
</g>
<!-- CC&#45;BY&#45;4.0(7) -->
<g id="node13" class="node">
<title>CC&#45;BY&#45;4.0(7)</title>
<ellipse fill="springgreen" stroke="springgreen" cx="205.98" cy="-42" rx="50.89" ry="18"/>
<text text-anchor="middle" x="205.98" y="-38.3" font-family="Times,serif" font-size="14.00">CC&#45;BY&#45;4.0</text>
</g>
</g>
</svg>
