<?xml version="1.0" encoding="UTF-8" standalone="no"?>
<!DOCTYPE svg PUBLIC "-//W3C//DTD SVG 1.1//EN"
 "http://www.w3.org/Graphics/SVG/1.1/DTD/svg11.dtd">
<!-- Generated by graphviz version 2.49.3 (0)
 -->
<!-- Title: CC&#45;BY&#45;SA&#45;2.1&#45;JP Pages: 1 -->
<svg width="458pt" height="206pt"
 viewBox="0.00 0.00 457.66 206.00" xmlns="http://www.w3.org/2000/svg" xmlns:xlink="http://www.w3.org/1999/xlink">
<g id="graph0" class="graph" transform="scale(1 1) rotate(0) translate(4 202)">
<title>CC&#45;BY&#45;SA&#45;2.1&#45;JP</title>
<polygon fill="white" stroke="transparent" points="-4,4 -4,-202 453.66,-202 453.66,4 -4,4"/>
<g id="clust1" class="cluster">
<title>cluster_0</title>
<polygon fill="none" stroke="black" points="8,-8 8,-190 441.66,-190 441.66,-8 8,-8"/>
</g>
<g id="clust2" class="cluster">
<title>cluster_1</title>
<polygon fill="lightgray" stroke="lightgray" points="140.79,-130 140.79,-182 308.88,-182 308.88,-130 140.79,-130"/>
</g>
<g id="clust3" class="cluster">
<title>cluster_2</title>
<polygon fill="lightgray" stroke="lightgray" points="16,-16 16,-122 433.66,-122 433.66,-16 16,-16"/>
</g>
<!-- CC&#45;BY&#45;SA&#45;2.1&#45;JP(1) -->
<g id="node1" class="node">
<title>CC&#45;BY&#45;SA&#45;2.1&#45;JP(1)</title>
<ellipse fill="springgreen" stroke="springgreen" cx="224.83" cy="-156" rx="76.09" ry="18"/>
<text text-anchor="middle" x="224.83" y="-152.3" font-family="Times,serif" font-size="14.00">CC&#45;BY&#45;SA&#45;2.1&#45;JP</text>
</g>
<!-- CC&#45;BY&#45;SA&#45;2.1&#45;JP(2) -->
<g id="node2" class="node">
<title>CC&#45;BY&#45;SA&#45;2.1&#45;JP(2)</title>
<ellipse fill="springgreen" stroke="springgreen" cx="224.83" cy="-96" rx="76.09" ry="18"/>
<text text-anchor="middle" x="224.83" y="-92.3" font-family="Times,serif" font-size="14.00">CC&#45;BY&#45;SA&#45;2.1&#45;JP</text>
</g>
<!-- Creative Commons Attribution Share Alike 2.1 Japan(2) -->
<g id="node3" class="node">
<title>Creative Commons Attribution Share Alike 2.1 Japan(2)</title>
<ellipse fill="white" stroke="white" cx="224.83" cy="-42" rx="200.66" ry="18"/>
<text text-anchor="middle" x="224.83" y="-38.3" font-family="Times,serif" font-size="14.00">Creative Commons Attribution Share Alike 2.1 Japan</text>
</g>
</g>
</svg>
