<?xml version="1.0" encoding="UTF-8" standalone="no"?>
<!DOCTYPE svg PUBLIC "-//W3C//DTD SVG 1.1//EN"
 "http://www.w3.org/Graphics/SVG/1.1/DTD/svg11.dtd">
<!-- Generated by graphviz version 2.49.3 (0)
 -->
<!-- Title: CC&#45;BY&#45;SA&#45;2.0&#45;UK Pages: 1 -->
<svg width="554pt" height="320pt"
 viewBox="0.00 0.00 553.86 320.00" xmlns="http://www.w3.org/2000/svg" xmlns:xlink="http://www.w3.org/1999/xlink">
<g id="graph0" class="graph" transform="scale(1 1) rotate(0) translate(4 316)">
<title>CC&#45;BY&#45;SA&#45;2.0&#45;UK</title>
<polygon fill="white" stroke="transparent" points="-4,4 -4,-316 549.86,-316 549.86,4 -4,4"/>
<g id="clust1" class="cluster">
<title>cluster_0</title>
<polygon fill="none" stroke="black" points="8,-8 8,-304 537.86,-304 537.86,-8 8,-8"/>
</g>
<g id="clust2" class="cluster">
<title>cluster_1</title>
<polygon fill="lightgray" stroke="lightgray" points="184.34,-244 184.34,-296 361.52,-296 361.52,-244 184.34,-244"/>
</g>
<g id="clust3" class="cluster">
<title>cluster_2</title>
<polygon fill="lightgray" stroke="lightgray" points="16,-130 16,-236 529.86,-236 529.86,-130 16,-130"/>
</g>
<g id="clust4" class="cluster">
<title>cluster_3</title>
<polygon fill="lightgray" stroke="lightgray" points="158.99,-16 158.99,-122 386.87,-122 386.87,-16 158.99,-16"/>
</g>
<!-- CC&#45;BY&#45;SA&#45;2.0&#45;UK(1) -->
<g id="node1" class="node">
<title>CC&#45;BY&#45;SA&#45;2.0&#45;UK(1)</title>
<ellipse fill="springgreen" stroke="springgreen" cx="272.93" cy="-270" rx="80.69" ry="18"/>
<text text-anchor="middle" x="272.93" y="-266.3" font-family="Times,serif" font-size="14.00">CC&#45;BY&#45;SA&#45;2.0&#45;UK</text>
</g>
<!-- CC&#45;BY&#45;SA&#45;2.0&#45;UK(2) -->
<g id="node2" class="node">
<title>CC&#45;BY&#45;SA&#45;2.0&#45;UK(2)</title>
<ellipse fill="springgreen" stroke="springgreen" cx="272.93" cy="-210" rx="80.69" ry="18"/>
<text text-anchor="middle" x="272.93" y="-206.3" font-family="Times,serif" font-size="14.00">CC&#45;BY&#45;SA&#45;2.0&#45;UK</text>
</g>
<!-- Creative Commons Attribution Share Alike 2.0 England and Wales(2) -->
<g id="node3" class="node">
<title>Creative Commons Attribution Share Alike 2.0 England and Wales(2)</title>
<ellipse fill="white" stroke="white" cx="272.93" cy="-156" rx="248.86" ry="18"/>
<text text-anchor="middle" x="272.93" y="-152.3" font-family="Times,serif" font-size="14.00">Creative Commons Attribution Share Alike 2.0 England and Wales</text>
</g>
<!-- CC&#45;BY&#45;SA&#45;2.0&#45;UK(3) -->
<g id="node4" class="node">
<title>CC&#45;BY&#45;SA&#45;2.0&#45;UK(3)</title>
<ellipse fill="springgreen" stroke="springgreen" cx="272.93" cy="-96" rx="80.69" ry="18"/>
<text text-anchor="middle" x="272.93" y="-92.3" font-family="Times,serif" font-size="14.00">CC&#45;BY&#45;SA&#45;2.0&#45;UK</text>
</g>
<!-- scancode://cc&#45;by&#45;sa&#45;2.0&#45;uk(3) -->
<g id="node5" class="node">
<title>scancode://cc&#45;by&#45;sa&#45;2.0&#45;uk(3)</title>
<ellipse fill="white" stroke="white" cx="272.93" cy="-42" rx="105.88" ry="18"/>
<text text-anchor="middle" x="272.93" y="-38.3" font-family="Times,serif" font-size="14.00">scancode://cc&#45;by&#45;sa&#45;2.0&#45;uk</text>
</g>
</g>
</svg>
