<?xml version="1.0" encoding="UTF-8" standalone="no"?>
<!DOCTYPE svg PUBLIC "-//W3C//DTD SVG 1.1//EN"
 "http://www.w3.org/Graphics/SVG/1.1/DTD/svg11.dtd">
<!-- Generated by graphviz version 2.43.0 (0)
 -->
<!-- Title: CC&#45;BY&#45;SA&#45;4.0 Pages: 1 -->
<svg width="1886pt" height="98pt"
 viewBox="0.00 0.00 1886.00 98.43" xmlns="http://www.w3.org/2000/svg" xmlns:xlink="http://www.w3.org/1999/xlink">
<g id="graph0" class="graph" transform="scale(1 1) rotate(0) translate(4 94.43)">
<title>CC&#45;BY&#45;SA&#45;4.0</title>
<polygon fill="white" stroke="transparent" points="-4,4 -4,-94.43 1882,-94.43 1882,4 -4,4"/>
<g id="clust1" class="cluster">
<title>cluster_0</title>
<polygon fill="none" stroke="black" points="8,-8 8,-82.43 1870,-82.43 1870,-8 8,-8"/>
</g>
<g id="clust2" class="cluster">
<title>cluster_1</title>
<polygon fill="lightgray" stroke="lightgray" points="1638,-16 1638,-74.43 1862,-74.43 1862,-16 1638,-16"/>
</g>
<g id="clust3" class="cluster">
<title>cluster_2</title>
<polygon fill="lightgray" stroke="lightgray" points="1058,-19.21 1058,-71.21 1630,-71.21 1630,-19.21 1058,-19.21"/>
</g>
<g id="clust4" class="cluster">
<title>cluster_3</title>
<polygon fill="lightgray" stroke="lightgray" points="798,-19.21 798,-71.21 1050,-71.21 1050,-19.21 798,-19.21"/>
</g>
<g id="clust5" class="cluster">
<title>cluster_4</title>
<polygon fill="lightgray" stroke="lightgray" points="640,-19.21 640,-71.21 790,-71.21 790,-19.21 640,-19.21"/>
</g>
<g id="clust6" class="cluster">
<title>cluster_5</title>
<polygon fill="lightgray" stroke="lightgray" points="476,-19.21 476,-71.21 632,-71.21 632,-19.21 476,-19.21"/>
</g>
<g id="clust7" class="cluster">
<title>cluster_6</title>
<polygon fill="lightgray" stroke="lightgray" points="16,-19.21 16,-71.21 468,-71.21 468,-19.21 16,-19.21"/>
</g>
<!-- CC&#45;BY&#45;SA&#45;4.0 -->
<g id="node1" class="node">
<title>CC&#45;BY&#45;SA&#45;4.0</title>
<ellipse fill="darkgreen" stroke="darkgreen" cx="1750" cy="-45.21" rx="103.89" ry="21.43"/>
<text text-anchor="middle" x="1750" y="-40.21" font-family="Times-Roman" font-size="20.00">CC&#45;BY&#45;SA&#45;4.0</text>
</g>
<!-- Creative Commons Attribution Share Alike 4.0 International -->
<g id="node2" class="node">
<title>Creative Commons Attribution Share Alike 4.0 International</title>
<ellipse fill="white" stroke="white" cx="1344" cy="-45.21" rx="277.55" ry="18"/>
<text text-anchor="middle" x="1344" y="-41.51" font-family="Times-Roman" font-size="14.00">Creative Commons Attribution Share Alike 4.0 International</text>
</g>
<!-- scancode://cc&#45;by&#45;sa&#45;4.0 -->
<g id="node3" class="node">
<title>scancode://cc&#45;by&#45;sa&#45;4.0</title>
<ellipse fill="white" stroke="white" cx="924" cy="-45.21" rx="118.08" ry="18"/>
<text text-anchor="middle" x="924" y="-41.51" font-family="Times-Roman" font-size="14.00">scancode://cc&#45;by&#45;sa&#45;4.0</text>
</g>
<!-- cc&#45;by&#45;sa&#45;4.0 -->
<g id="node4" class="node">
<title>cc&#45;by&#45;sa&#45;4.0</title>
<ellipse fill="white" stroke="white" cx="715" cy="-45.21" rx="66.89" ry="18"/>
<text text-anchor="middle" x="715" y="-41.51" font-family="Times-Roman" font-size="14.00">cc&#45;by&#45;sa&#45;4.0</text>
</g>
<!-- CC&#45;BY&#45;SA 4.0 -->
<g id="node5" class="node">
<title>CC&#45;BY&#45;SA 4.0</title>
<ellipse fill="white" stroke="white" cx="554" cy="-45.21" rx="69.59" ry="18"/>
<text text-anchor="middle" x="554" y="-41.51" font-family="Times-Roman" font-size="14.00">CC&#45;BY&#45;SA 4.0</text>
</g>
<!-- Creative Commons Attribution Share&#45;Alike 4.0 -->
<g id="node6" class="node">
<title>Creative Commons Attribution Share&#45;Alike 4.0</title>
<ellipse fill="white" stroke="white" cx="242" cy="-45.21" rx="217.96" ry="18"/>
<text text-anchor="middle" x="242" y="-41.51" font-family="Times-Roman" font-size="14.00">Creative Commons Attribution Share&#45;Alike 4.0</text>
</g>
</g>
</svg>
