<?xml version="1.0" encoding="UTF-8" standalone="no"?>
<!DOCTYPE svg PUBLIC "-//W3C//DTD SVG 1.1//EN"
 "http://www.w3.org/Graphics/SVG/1.1/DTD/svg11.dtd">
<!-- Generated by graphviz version 2.43.0 (0)
 -->
<!-- Title: CC&#45;BY&#45;NC&#45;SA&#45;1.0 Pages: 1 -->
<svg width="1204pt" height="115pt"
 viewBox="0.00 0.00 1204.00 115.00" xmlns="http://www.w3.org/2000/svg" xmlns:xlink="http://www.w3.org/1999/xlink">
<g id="graph0" class="graph" transform="scale(1 1) rotate(0) translate(4 111)">
<title>CC&#45;BY&#45;NC&#45;SA&#45;1.0</title>
<polygon fill="white" stroke="transparent" points="-4,4 -4,-111 1200,-111 1200,4 -4,4"/>
<g id="clust1" class="cluster">
<title>cluster_0</title>
<polygon fill="none" stroke="black" points="8,-8 8,-99 1188,-99 1188,-8 8,-8"/>
</g>
<g id="clust2" class="cluster">
<title>cluster_1</title>
<polygon fill="lightgray" stroke="lightgray" points="992,-16 992,-91 1180,-91 1180,-16 992,-16"/>
<text text-anchor="middle" x="1086" y="-75.8" font-family="Times-Roman" font-size="14.00">process #1</text>
</g>
<g id="clust3" class="cluster">
<title>cluster_2</title>
<polygon fill="lightgray" stroke="lightgray" points="304,-16 304,-91 984,-91 984,-16 304,-16"/>
<text text-anchor="middle" x="644" y="-75.8" font-family="Times-Roman" font-size="14.00">process #1</text>
</g>
<g id="clust4" class="cluster">
<title>cluster_3</title>
<polygon fill="lightgray" stroke="lightgray" points="16,-16 16,-91 296,-91 296,-16 16,-16"/>
<text text-anchor="middle" x="156" y="-75.8" font-family="Times-Roman" font-size="14.00">process #1</text>
</g>
<!-- CC&#45;BY&#45;NC&#45;SA&#45;1.0 -->
<g id="node1" class="node">
<title>CC&#45;BY&#45;NC&#45;SA&#45;1.0</title>
<ellipse fill="white" stroke="white" cx="1086" cy="-42" rx="86.38" ry="18"/>
<text text-anchor="middle" x="1086" y="-38.3" font-family="Times-Roman" font-size="14.00">CC&#45;BY&#45;NC&#45;SA&#45;1.0</text>
</g>
<!-- Creative Commons Attribution Non Commercial Share Alike 1.0 Generic -->
<g id="node2" class="node">
<title>Creative Commons Attribution Non Commercial Share Alike 1.0 Generic</title>
<ellipse fill="white" stroke="white" cx="644" cy="-42" rx="332.24" ry="18"/>
<text text-anchor="middle" x="644" y="-38.3" font-family="Times-Roman" font-size="14.00">Creative Commons Attribution Non Commercial Share Alike 1.0 Generic</text>
</g>
<!-- scancode://cc&#45;by&#45;nc&#45;sa&#45;1.0 -->
<g id="node3" class="node">
<title>scancode://cc&#45;by&#45;nc&#45;sa&#45;1.0</title>
<ellipse fill="white" stroke="white" cx="156" cy="-42" rx="131.88" ry="18"/>
<text text-anchor="middle" x="156" y="-38.3" font-family="Times-Roman" font-size="14.00">scancode://cc&#45;by&#45;nc&#45;sa&#45;1.0</text>
</g>
</g>
</svg>
