<?xml version="1.0" encoding="UTF-8" standalone="no"?>
<!DOCTYPE svg PUBLIC "-//W3C//DTD SVG 1.1//EN"
 "http://www.w3.org/Graphics/SVG/1.1/DTD/svg11.dtd">
<!-- Generated by graphviz version 2.43.0 (0)
 -->
<!-- Title: CC&#45;BY&#45;ND&#45;3.0 Pages: 1 -->
<svg width="1114pt" height="98pt"
 viewBox="0.00 0.00 1114.00 98.43" xmlns="http://www.w3.org/2000/svg" xmlns:xlink="http://www.w3.org/1999/xlink">
<g id="graph0" class="graph" transform="scale(1 1) rotate(0) translate(4 94.43)">
<title>CC&#45;BY&#45;ND&#45;3.0</title>
<polygon fill="white" stroke="transparent" points="-4,4 -4,-94.43 1110,-94.43 1110,4 -4,4"/>
<g id="clust1" class="cluster">
<title>cluster_0</title>
<polygon fill="none" stroke="black" points="8,-8 8,-82.43 1098,-82.43 1098,-8 8,-8"/>
</g>
<g id="clust2" class="cluster">
<title>cluster_1</title>
<polygon fill="lightgray" stroke="lightgray" points="860,-16 860,-74.43 1090,-74.43 1090,-16 860,-16"/>
</g>
<g id="clust3" class="cluster">
<title>cluster_2</title>
<polygon fill="lightgray" stroke="lightgray" points="280,-19.21 280,-71.21 852,-71.21 852,-19.21 280,-19.21"/>
</g>
<g id="clust4" class="cluster">
<title>cluster_3</title>
<polygon fill="lightgray" stroke="lightgray" points="16,-19.21 16,-71.21 272,-71.21 272,-19.21 16,-19.21"/>
</g>
<!-- CC&#45;BY&#45;ND&#45;3.0 -->
<g id="node1" class="node">
<title>CC&#45;BY&#45;ND&#45;3.0</title>
<ellipse fill="darkgreen" stroke="darkgreen" cx="975" cy="-45.21" rx="107.46" ry="21.43"/>
<text text-anchor="middle" x="975" y="-40.21" font-family="Times-Roman" font-size="20.00">CC&#45;BY&#45;ND&#45;3.0</text>
</g>
<!-- Creative Commons Attribution No Derivatives 3.0 Unported -->
<g id="node2" class="node">
<title>Creative Commons Attribution No Derivatives 3.0 Unported</title>
<ellipse fill="white" stroke="white" cx="566" cy="-45.21" rx="278.35" ry="18"/>
<text text-anchor="middle" x="566" y="-41.51" font-family="Times-Roman" font-size="14.00">Creative Commons Attribution No Derivatives 3.0 Unported</text>
</g>
<!-- scancode://cc&#45;by&#45;nd&#45;3.0 -->
<g id="node3" class="node">
<title>scancode://cc&#45;by&#45;nd&#45;3.0</title>
<ellipse fill="white" stroke="white" cx="144" cy="-45.21" rx="119.68" ry="18"/>
<text text-anchor="middle" x="144" y="-41.51" font-family="Times-Roman" font-size="14.00">scancode://cc&#45;by&#45;nd&#45;3.0</text>
</g>
</g>
</svg>
