<?xml version="1.0" encoding="UTF-8" standalone="no"?>
<!DOCTYPE svg PUBLIC "-//W3C//DTD SVG 1.1//EN"
 "http://www.w3.org/Graphics/SVG/1.1/DTD/svg11.dtd">
<!-- Generated by graphviz version 2.47.3 (0)
 -->
<!-- Title: CC&#45;BY&#45;NC&#45;ND&#45;4.0 Pages: 1 -->
<svg width="660pt" height="434pt"
 viewBox="0.00 0.00 660.45 434.00" xmlns="http://www.w3.org/2000/svg" xmlns:xlink="http://www.w3.org/1999/xlink">
<g id="graph0" class="graph" transform="scale(1 1) rotate(0) translate(4 430)">
<title>CC&#45;BY&#45;NC&#45;ND&#45;4.0</title>
<polygon fill="white" stroke="transparent" points="-4,4 -4,-430 656.45,-430 656.45,4 -4,4"/>
<g id="clust1" class="cluster">
<title>cluster_0</title>
<polygon fill="none" stroke="black" points="8,-8 8,-418 644.45,-418 644.45,-8 8,-8"/>
</g>
<g id="clust2" class="cluster">
<title>cluster_1</title>
<polygon fill="lightgray" stroke="lightgray" points="236.98,-358 236.98,-410 415.47,-410 415.47,-358 236.98,-358"/>
</g>
<g id="clust3" class="cluster">
<title>cluster_2</title>
<polygon fill="lightgray" stroke="lightgray" points="82.29,-244 82.29,-350 570.15,-350 570.15,-244 82.29,-244"/>
</g>
<g id="clust4" class="cluster">
<title>cluster_3</title>
<polygon fill="lightgray" stroke="lightgray" points="16,-130 16,-236 636.45,-236 636.45,-130 16,-130"/>
</g>
<g id="clust5" class="cluster">
<title>cluster_4</title>
<polygon fill="lightgray" stroke="lightgray" points="211.63,-16 211.63,-122 440.81,-122 440.81,-16 211.63,-16"/>
</g>
<!-- CC&#45;BY&#45;NC&#45;ND&#45;4.0(1) -->
<g id="node1" class="node">
<title>CC&#45;BY&#45;NC&#45;ND&#45;4.0(1)</title>
<ellipse fill="springgreen" stroke="springgreen" cx="326.22" cy="-384" rx="81.49" ry="18"/>
<text text-anchor="middle" x="326.22" y="-380.3" font-family="Times,serif" font-size="14.00">CC&#45;BY&#45;NC&#45;ND&#45;4.0</text>
</g>
<!-- CC&#45;BY&#45;NC&#45;ND&#45;4.0(2) -->
<g id="node2" class="node">
<title>CC&#45;BY&#45;NC&#45;ND&#45;4.0(2)</title>
<ellipse fill="springgreen" stroke="springgreen" cx="326.22" cy="-324" rx="81.49" ry="18"/>
<text text-anchor="middle" x="326.22" y="-320.3" font-family="Times,serif" font-size="14.00">CC&#45;BY&#45;NC&#45;ND&#45;4.0</text>
</g>
<!-- Creative Commons Attribution&#45;NoDerivatives 4.0 International(2) -->
<g id="node3" class="node">
<title>Creative Commons Attribution&#45;NoDerivatives 4.0 International(2)</title>
<ellipse fill="white" stroke="white" cx="326.22" cy="-270" rx="235.86" ry="18"/>
<text text-anchor="middle" x="326.22" y="-266.3" font-family="Times,serif" font-size="14.00">Creative Commons Attribution&#45;NoDerivatives 4.0 International</text>
</g>
<!-- CC&#45;BY&#45;NC&#45;ND&#45;4.0(3) -->
<g id="node4" class="node">
<title>CC&#45;BY&#45;NC&#45;ND&#45;4.0(3)</title>
<ellipse fill="springgreen" stroke="springgreen" cx="326.22" cy="-210" rx="81.49" ry="18"/>
<text text-anchor="middle" x="326.22" y="-206.3" font-family="Times,serif" font-size="14.00">CC&#45;BY&#45;NC&#45;ND&#45;4.0</text>
</g>
<!-- Creative Commons Attribution Non Commercial No Derivatives 4.0 International(3) -->
<g id="node5" class="node">
<title>Creative Commons Attribution Non Commercial No Derivatives 4.0 International(3)</title>
<ellipse fill="white" stroke="white" cx="326.22" cy="-156" rx="302.45" ry="18"/>
<text text-anchor="middle" x="326.22" y="-152.3" font-family="Times,serif" font-size="14.00">Creative Commons Attribution Non Commercial No Derivatives 4.0 International</text>
</g>
<!-- CC&#45;BY&#45;NC&#45;ND&#45;4.0(4) -->
<g id="node6" class="node">
<title>CC&#45;BY&#45;NC&#45;ND&#45;4.0(4)</title>
<ellipse fill="springgreen" stroke="springgreen" cx="326.22" cy="-96" rx="81.49" ry="18"/>
<text text-anchor="middle" x="326.22" y="-92.3" font-family="Times,serif" font-size="14.00">CC&#45;BY&#45;NC&#45;ND&#45;4.0</text>
</g>
<!-- scancode://cc&#45;by&#45;nc&#45;nd&#45;4.0(4) -->
<g id="node7" class="node">
<title>scancode://cc&#45;by&#45;nc&#45;nd&#45;4.0(4)</title>
<ellipse fill="white" stroke="white" cx="326.22" cy="-42" rx="106.68" ry="18"/>
<text text-anchor="middle" x="326.22" y="-38.3" font-family="Times,serif" font-size="14.00">scancode://cc&#45;by&#45;nc&#45;nd&#45;4.0</text>
</g>
</g>
</svg>
