<?xml version="1.0" encoding="UTF-8" standalone="no"?>
<!DOCTYPE svg PUBLIC "-//W3C//DTD SVG 1.1//EN"
 "http://www.w3.org/Graphics/SVG/1.1/DTD/svg11.dtd">
<!-- Generated by graphviz version 2.43.0 (0)
 -->
<!-- Title: CC&#45;BY&#45;NC&#45;SA&#45;3.0 Pages: 1 -->
<svg width="736pt" height="320pt"
 viewBox="0.00 0.00 735.84 320.00" xmlns="http://www.w3.org/2000/svg" xmlns:xlink="http://www.w3.org/1999/xlink">
<g id="graph0" class="graph" transform="scale(1 1) rotate(0) translate(4 316)">
<title>CC&#45;BY&#45;NC&#45;SA&#45;3.0</title>
<polygon fill="white" stroke="transparent" points="-4,4 -4,-316 731.84,-316 731.84,4 -4,4"/>
<g id="clust1" class="cluster">
<title>cluster_0</title>
<polygon fill="none" stroke="black" points="8,-8 8,-304 719.84,-304 719.84,-8 8,-8"/>
</g>
<g id="clust2" class="cluster">
<title>cluster_1</title>
<polygon fill="lightgray" stroke="lightgray" points="269.48,-244 269.48,-296 458.36,-296 458.36,-244 269.48,-244"/>
</g>
<g id="clust3" class="cluster">
<title>cluster_2</title>
<polygon fill="lightgray" stroke="lightgray" points="21.2,-130 21.2,-236 706.64,-236 706.64,-130 21.2,-130"/>
</g>
<g id="clust4" class="cluster">
<title>cluster_3</title>
<polygon fill="lightgray" stroke="lightgray" points="16,-16 16,-122 711.84,-122 711.84,-16 16,-16"/>
</g>
<!-- CC&#45;BY&#45;NC&#45;SA&#45;3.0(1) -->
<g id="node1" class="node">
<title>CC&#45;BY&#45;NC&#45;SA&#45;3.0(1)</title>
<ellipse fill="springgreen" stroke="springgreen" cx="363.92" cy="-270" rx="86.38" ry="18"/>
<text text-anchor="middle" x="363.92" y="-266.3" font-family="Times-Roman" font-size="14.00">CC&#45;BY&#45;NC&#45;SA&#45;3.0</text>
</g>
<!-- CC&#45;BY&#45;NC&#45;SA&#45;3.0(2) -->
<g id="node2" class="node">
<title>CC&#45;BY&#45;NC&#45;SA&#45;3.0(2)</title>
<ellipse fill="springgreen" stroke="springgreen" cx="363.92" cy="-210" rx="86.38" ry="18"/>
<text text-anchor="middle" x="363.92" y="-206.3" font-family="Times-Roman" font-size="14.00">CC&#45;BY&#45;NC&#45;SA&#45;3.0</text>
</g>
<!-- Creative Commons Attribution&#45;NonCommercial&#45;ShareAlike 3.0 Unported(2) -->
<g id="node3" class="node">
<title>Creative Commons Attribution&#45;NonCommercial&#45;ShareAlike 3.0 Unported(2)</title>
<ellipse fill="white" stroke="white" cx="363.92" cy="-156" rx="334.94" ry="18"/>
<text text-anchor="middle" x="363.92" y="-152.3" font-family="Times-Roman" font-size="14.00">Creative Commons Attribution&#45;NonCommercial&#45;ShareAlike 3.0 Unported</text>
</g>
<!-- CC&#45;BY&#45;NC&#45;SA&#45;3.0(3) -->
<g id="node4" class="node">
<title>CC&#45;BY&#45;NC&#45;SA&#45;3.0(3)</title>
<ellipse fill="springgreen" stroke="springgreen" cx="363.92" cy="-96" rx="86.38" ry="18"/>
<text text-anchor="middle" x="363.92" y="-92.3" font-family="Times-Roman" font-size="14.00">CC&#45;BY&#45;NC&#45;SA&#45;3.0</text>
</g>
<!-- Creative Commons Attribution Non Commercial Share Alike 3.0 Unported(3) -->
<g id="node5" class="node">
<title>Creative Commons Attribution Non Commercial Share Alike 3.0 Unported(3)</title>
<ellipse fill="white" stroke="white" cx="363.92" cy="-42" rx="339.84" ry="18"/>
<text text-anchor="middle" x="363.92" y="-38.3" font-family="Times-Roman" font-size="14.00">Creative Commons Attribution Non Commercial Share Alike 3.0 Unported</text>
</g>
</g>
</svg>
