<?xml version="1.0" encoding="UTF-8" standalone="no"?>
<!DOCTYPE svg PUBLIC "-//W3C//DTD SVG 1.1//EN"
 "http://www.w3.org/Graphics/SVG/1.1/DTD/svg11.dtd">
<!-- Generated by graphviz version 2.43.0 (0)
 -->
<!-- Title: CC&#45;BY&#45;NC&#45;ND&#45;4.0 Pages: 1 -->
<svg width="796pt" height="434pt"
 viewBox="0.00 0.00 795.63 434.00" xmlns="http://www.w3.org/2000/svg" xmlns:xlink="http://www.w3.org/1999/xlink">
<g id="graph0" class="graph" transform="scale(1 1) rotate(0) translate(4 430)">
<title>CC&#45;BY&#45;NC&#45;ND&#45;4.0</title>
<polygon fill="white" stroke="transparent" points="-4,4 -4,-430 791.63,-430 791.63,4 -4,4"/>
<g id="clust1" class="cluster">
<title>cluster_0</title>
<polygon fill="none" stroke="black" points="8,-8 8,-418 779.63,-418 779.63,-8 8,-8"/>
</g>
<g id="clust2" class="cluster">
<title>cluster_1</title>
<polygon fill="lightgray" stroke="lightgray" points="297.43,-358 297.43,-410 490.21,-410 490.21,-358 297.43,-358"/>
</g>
<g id="clust3" class="cluster">
<title>cluster_2</title>
<polygon fill="lightgray" stroke="lightgray" points="16,-244 16,-350 771.63,-350 771.63,-244 16,-244"/>
</g>
<g id="clust4" class="cluster">
<title>cluster_3</title>
<polygon fill="lightgray" stroke="lightgray" points="251.93,-130 251.93,-236 535.71,-236 535.71,-130 251.93,-130"/>
</g>
<g id="clust5" class="cluster">
<title>cluster_4</title>
<polygon fill="lightgray" stroke="lightgray" points="77.74,-16 77.74,-122 709.89,-122 709.89,-16 77.74,-16"/>
</g>
<!-- CC&#45;BY&#45;NC&#45;ND&#45;4.0(1) -->
<g id="node1" class="node">
<title>CC&#45;BY&#45;NC&#45;ND&#45;4.0(1)</title>
<ellipse fill="springgreen" stroke="springgreen" cx="393.82" cy="-384" rx="88.28" ry="18"/>
<text text-anchor="middle" x="393.82" y="-380.3" font-family="Times-Roman" font-size="14.00">CC&#45;BY&#45;NC&#45;ND&#45;4.0</text>
</g>
<!-- CC&#45;BY&#45;NC&#45;ND&#45;4.0(2) -->
<g id="node2" class="node">
<title>CC&#45;BY&#45;NC&#45;ND&#45;4.0(2)</title>
<ellipse fill="springgreen" stroke="springgreen" cx="393.82" cy="-324" rx="88.28" ry="18"/>
<text text-anchor="middle" x="393.82" y="-320.3" font-family="Times-Roman" font-size="14.00">CC&#45;BY&#45;NC&#45;ND&#45;4.0</text>
</g>
<!-- Creative Commons Attribution Non Commercial No Derivatives 4.0 International(2) -->
<g id="node3" class="node">
<title>Creative Commons Attribution Non Commercial No Derivatives 4.0 International(2)</title>
<ellipse fill="white" stroke="white" cx="393.82" cy="-270" rx="369.63" ry="18"/>
<text text-anchor="middle" x="393.82" y="-266.3" font-family="Times-Roman" font-size="14.00">Creative Commons Attribution Non Commercial No Derivatives 4.0 International</text>
</g>
<!-- CC&#45;BY&#45;NC&#45;ND&#45;4.0(3) -->
<g id="node4" class="node">
<title>CC&#45;BY&#45;NC&#45;ND&#45;4.0(3)</title>
<ellipse fill="springgreen" stroke="springgreen" cx="393.82" cy="-210" rx="88.28" ry="18"/>
<text text-anchor="middle" x="393.82" y="-206.3" font-family="Times-Roman" font-size="14.00">CC&#45;BY&#45;NC&#45;ND&#45;4.0</text>
</g>
<!-- scancode://cc&#45;by&#45;nc&#45;nd&#45;4.0(3) -->
<g id="node5" class="node">
<title>scancode://cc&#45;by&#45;nc&#45;nd&#45;4.0(3)</title>
<ellipse fill="white" stroke="white" cx="393.82" cy="-156" rx="133.78" ry="18"/>
<text text-anchor="middle" x="393.82" y="-152.3" font-family="Times-Roman" font-size="14.00">scancode://cc&#45;by&#45;nc&#45;nd&#45;4.0</text>
</g>
<!-- CC&#45;BY&#45;NC&#45;ND&#45;4.0(4) -->
<g id="node6" class="node">
<title>CC&#45;BY&#45;NC&#45;ND&#45;4.0(4)</title>
<ellipse fill="springgreen" stroke="springgreen" cx="393.82" cy="-96" rx="88.28" ry="18"/>
<text text-anchor="middle" x="393.82" y="-92.3" font-family="Times-Roman" font-size="14.00">CC&#45;BY&#45;NC&#45;ND&#45;4.0</text>
</g>
<!-- Creative Commons Attribution NonCommercial No&#45;Derivatives 4.0(4) -->
<g id="node7" class="node">
<title>Creative Commons Attribution NonCommercial No&#45;Derivatives 4.0(4)</title>
<ellipse fill="white" stroke="white" cx="393.82" cy="-42" rx="308.15" ry="18"/>
<text text-anchor="middle" x="393.82" y="-38.3" font-family="Times-Roman" font-size="14.00">Creative Commons Attribution NonCommercial No&#45;Derivatives 4.0</text>
</g>
</g>
</svg>
