<?xml version="1.0" encoding="UTF-8" standalone="no"?>
<!DOCTYPE svg PUBLIC "-//W3C//DTD SVG 1.1//EN"
 "http://www.w3.org/Graphics/SVG/1.1/DTD/svg11.dtd">
<!-- Generated by graphviz version 5.0.1 (0)
 -->
<!-- Title: CC&#45;BY&#45;NC&#45;ND&#45;3.0&#45;DE Pages: 1 -->
<svg width="637pt" height="206pt"
 viewBox="0.00 0.00 637.05 206.00" xmlns="http://www.w3.org/2000/svg" xmlns:xlink="http://www.w3.org/1999/xlink">
<g id="graph0" class="graph" transform="scale(1 1) rotate(0) translate(4 202)">
<title>CC&#45;BY&#45;NC&#45;ND&#45;3.0&#45;DE</title>
<polygon fill="white" stroke="none" points="-4,4 -4,-202 633.05,-202 633.05,4 -4,4"/>
<g id="clust1" class="cluster">
<title>cluster_0</title>
<polygon fill="none" stroke="black" points="8,-8 8,-190 621.05,-190 621.05,-8 8,-8"/>
</g>
<g id="clust2" class="cluster">
<title>cluster_1</title>
<polygon fill="lightgray" stroke="lightgray" points="210.33,-130 210.33,-182 418.72,-182 418.72,-130 210.33,-130"/>
</g>
<g id="clust3" class="cluster">
<title>cluster_2</title>
<polygon fill="lightgray" stroke="lightgray" points="16,-16 16,-122 613.05,-122 613.05,-16 16,-16"/>
</g>
<!-- CC&#45;BY&#45;NC&#45;ND&#45;3.0&#45;DE(1) -->
<g id="node1" class="node">
<title>CC&#45;BY&#45;NC&#45;ND&#45;3.0&#45;DE(1)</title>
<ellipse fill="springgreen" stroke="springgreen" cx="314.52" cy="-156" rx="96.38" ry="18"/>
<text text-anchor="middle" x="314.52" y="-152.3" font-family="Times,serif" font-size="14.00">CC&#45;BY&#45;NC&#45;ND&#45;3.0&#45;DE</text>
</g>
<!-- CC&#45;BY&#45;NC&#45;ND&#45;3.0&#45;DE(2) -->
<g id="node2" class="node">
<title>CC&#45;BY&#45;NC&#45;ND&#45;3.0&#45;DE(2)</title>
<ellipse fill="springgreen" stroke="springgreen" cx="314.52" cy="-96" rx="96.38" ry="18"/>
<text text-anchor="middle" x="314.52" y="-92.3" font-family="Times,serif" font-size="14.00">CC&#45;BY&#45;NC&#45;ND&#45;3.0&#45;DE</text>
</g>
<!-- Creative Commons Attribution Non Commercial No Derivatives 3.0 Germany(2) -->
<g id="node3" class="node">
<title>Creative Commons Attribution Non Commercial No Derivatives 3.0 Germany(2)</title>
<ellipse fill="white" stroke="white" cx="314.52" cy="-42" rx="290.55" ry="18"/>
<text text-anchor="middle" x="314.52" y="-38.3" font-family="Times,serif" font-size="14.00">Creative Commons Attribution Non Commercial No Derivatives 3.0 Germany</text>
</g>
</g>
</svg>
