<?xml version="1.0" encoding="UTF-8" standalone="no"?>
<!DOCTYPE svg PUBLIC "-//W3C//DTD SVG 1.1//EN"
 "http://www.w3.org/Graphics/SVG/1.1/DTD/svg11.dtd">
<!-- Generated by graphviz version 2.49.3 (0)
 -->
<!-- Title: CC&#45;BY&#45;ND&#45;3.0&#45;DE Pages: 1 -->
<svg width="508pt" height="206pt"
 viewBox="0.00 0.00 508.36 206.00" xmlns="http://www.w3.org/2000/svg" xmlns:xlink="http://www.w3.org/1999/xlink">
<g id="graph0" class="graph" transform="scale(1 1) rotate(0) translate(4 202)">
<title>CC&#45;BY&#45;ND&#45;3.0&#45;DE</title>
<polygon fill="white" stroke="transparent" points="-4,4 -4,-202 504.36,-202 504.36,4 -4,4"/>
<g id="clust1" class="cluster">
<title>cluster_0</title>
<polygon fill="none" stroke="black" points="8,-8 8,-190 492.36,-190 492.36,-8 8,-8"/>
</g>
<g id="clust2" class="cluster">
<title>cluster_1</title>
<polygon fill="lightgray" stroke="lightgray" points="160.94,-130 160.94,-182 339.42,-182 339.42,-130 160.94,-130"/>
</g>
<g id="clust3" class="cluster">
<title>cluster_2</title>
<polygon fill="lightgray" stroke="lightgray" points="16,-16 16,-122 484.36,-122 484.36,-16 16,-16"/>
</g>
<!-- CC&#45;BY&#45;ND&#45;3.0&#45;DE(1) -->
<g id="node1" class="node">
<title>CC&#45;BY&#45;ND&#45;3.0&#45;DE(1)</title>
<ellipse fill="springgreen" stroke="springgreen" cx="250.18" cy="-156" rx="81.49" ry="18"/>
<text text-anchor="middle" x="250.18" y="-152.3" font-family="Times,serif" font-size="14.00">CC&#45;BY&#45;ND&#45;3.0&#45;DE</text>
</g>
<!-- CC&#45;BY&#45;ND&#45;3.0&#45;DE(2) -->
<g id="node2" class="node">
<title>CC&#45;BY&#45;ND&#45;3.0&#45;DE(2)</title>
<ellipse fill="springgreen" stroke="springgreen" cx="250.18" cy="-96" rx="81.49" ry="18"/>
<text text-anchor="middle" x="250.18" y="-92.3" font-family="Times,serif" font-size="14.00">CC&#45;BY&#45;ND&#45;3.0&#45;DE</text>
</g>
<!-- Creative Commons Attribution No Derivatives 3.0 Germany(2) -->
<g id="node3" class="node">
<title>Creative Commons Attribution No Derivatives 3.0 Germany(2)</title>
<ellipse fill="white" stroke="white" cx="250.18" cy="-42" rx="226.36" ry="18"/>
<text text-anchor="middle" x="250.18" y="-38.3" font-family="Times,serif" font-size="14.00">Creative Commons Attribution No Derivatives 3.0 Germany</text>
</g>
</g>
</svg>
