<?xml version="1.0" encoding="UTF-8" standalone="no"?>
<!DOCTYPE svg PUBLIC "-//W3C//DTD SVG 1.1//EN"
 "http://www.w3.org/Graphics/SVG/1.1/DTD/svg11.dtd">
<!-- Generated by graphviz version 2.43.0 (0)
 -->
<!-- Title: CC&#45;BY&#45;NC&#45;SA&#45;3.0 Pages: 1 -->
<svg width="1308pt" height="98pt"
 viewBox="0.00 0.00 1308.00 98.43" xmlns="http://www.w3.org/2000/svg" xmlns:xlink="http://www.w3.org/1999/xlink">
<g id="graph0" class="graph" transform="scale(1 1) rotate(0) translate(4 94.43)">
<title>CC&#45;BY&#45;NC&#45;SA&#45;3.0</title>
<polygon fill="white" stroke="transparent" points="-4,4 -4,-94.43 1304,-94.43 1304,4 -4,4"/>
<g id="clust1" class="cluster">
<title>cluster_0</title>
<polygon fill="none" stroke="black" points="8,-8 8,-82.43 1292,-82.43 1292,-8 8,-8"/>
</g>
<g id="clust2" class="cluster">
<title>cluster_1</title>
<polygon fill="lightgray" stroke="lightgray" points="1008,-16 1008,-74.43 1284,-74.43 1284,-16 1008,-16"/>
</g>
<g id="clust3" class="cluster">
<title>cluster_2</title>
<polygon fill="lightgray" stroke="lightgray" points="304,-19.21 304,-71.21 1000,-71.21 1000,-19.21 304,-19.21"/>
</g>
<g id="clust4" class="cluster">
<title>cluster_3</title>
<polygon fill="lightgray" stroke="lightgray" points="16,-19.21 16,-71.21 296,-71.21 296,-19.21 16,-19.21"/>
</g>
<!-- CC&#45;BY&#45;NC&#45;SA&#45;3.0 -->
<g id="node1" class="node">
<title>CC&#45;BY&#45;NC&#45;SA&#45;3.0</title>
<ellipse fill="white" stroke="white" cx="1146" cy="-45.21" rx="130.22" ry="21.43"/>
<text text-anchor="middle" x="1146" y="-40.21" font-family="Times-Roman" font-size="20.00" fill="#00ff00">CC&#45;BY&#45;NC&#45;SA&#45;3.0</text>
</g>
<!-- Creative Commons Attribution Non Commercial Share Alike 3.0 Unported -->
<g id="node2" class="node">
<title>Creative Commons Attribution Non Commercial Share Alike 3.0 Unported</title>
<ellipse fill="white" stroke="white" cx="652" cy="-45.21" rx="339.84" ry="18"/>
<text text-anchor="middle" x="652" y="-41.51" font-family="Times-Roman" font-size="14.00">Creative Commons Attribution Non Commercial Share Alike 3.0 Unported</text>
</g>
<!-- scancode://cc&#45;by&#45;nc&#45;sa&#45;3.0 -->
<g id="node3" class="node">
<title>scancode://cc&#45;by&#45;nc&#45;sa&#45;3.0</title>
<ellipse fill="white" stroke="white" cx="156" cy="-45.21" rx="131.88" ry="18"/>
<text text-anchor="middle" x="156" y="-41.51" font-family="Times-Roman" font-size="14.00">scancode://cc&#45;by&#45;nc&#45;sa&#45;3.0</text>
</g>
</g>
</svg>
