<?xml version="1.0" encoding="UTF-8" standalone="no"?>
<!DOCTYPE svg PUBLIC "-//W3C//DTD SVG 1.1//EN"
 "http://www.w3.org/Graphics/SVG/1.1/DTD/svg11.dtd">
<!-- Generated by graphviz version 2.43.0 (0)
 -->
<!-- Title: CC0&#45;1.0 Pages: 1 -->
<svg width="432pt" height="776pt"
 viewBox="0.00 0.00 431.67 776.00" xmlns="http://www.w3.org/2000/svg" xmlns:xlink="http://www.w3.org/1999/xlink">
<g id="graph0" class="graph" transform="scale(1 1) rotate(0) translate(4 772)">
<title>CC0&#45;1.0</title>
<polygon fill="white" stroke="transparent" points="-4,4 -4,-772 427.67,-772 427.67,4 -4,4"/>
<g id="clust1" class="cluster">
<title>cluster_0</title>
<polygon fill="none" stroke="black" points="8,-8 8,-760 415.67,-760 415.67,-8 8,-8"/>
</g>
<g id="clust2" class="cluster">
<title>cluster_1</title>
<polygon fill="lightgray" stroke="lightgray" points="156.39,-700 156.39,-752 267.28,-752 267.28,-700 156.39,-700"/>
</g>
<g id="clust3" class="cluster">
<title>cluster_2</title>
<polygon fill="lightgray" stroke="lightgray" points="16,-586 16,-692 407.67,-692 407.67,-586 16,-586"/>
</g>
<g id="clust4" class="cluster">
<title>cluster_3</title>
<polygon fill="lightgray" stroke="lightgray" points="156.39,-472 156.39,-578 267.28,-578 267.28,-472 156.39,-472"/>
</g>
<g id="clust5" class="cluster">
<title>cluster_4</title>
<polygon fill="lightgray" stroke="lightgray" points="156.39,-358 156.39,-464 267.28,-464 267.28,-358 156.39,-358"/>
</g>
<g id="clust6" class="cluster">
<title>cluster_5</title>
<polygon fill="lightgray" stroke="lightgray" points="23.15,-244 23.15,-350 400.52,-350 400.52,-244 23.15,-244"/>
</g>
<g id="clust7" class="cluster">
<title>cluster_6</title>
<polygon fill="lightgray" stroke="lightgray" points="16,-130 16,-236 407.67,-236 407.67,-130 16,-130"/>
</g>
<g id="clust8" class="cluster">
<title>cluster_7</title>
<polygon fill="lightgray" stroke="lightgray" points="66.7,-16 66.7,-122 356.97,-122 356.97,-16 66.7,-16"/>
</g>
<!-- CC0&#45;1.0(1) -->
<g id="node1" class="node">
<title>CC0&#45;1.0(1)</title>
<ellipse fill="springgreen" stroke="springgreen" cx="211.83" cy="-726" rx="47.39" ry="18"/>
<text text-anchor="middle" x="211.83" y="-722.3" font-family="Times-Roman" font-size="14.00">CC0&#45;1.0</text>
</g>
<!-- CC0&#45;1.0(2) -->
<g id="node2" class="node">
<title>CC0&#45;1.0(2)</title>
<ellipse fill="springgreen" stroke="springgreen" cx="211.83" cy="-666" rx="47.39" ry="18"/>
<text text-anchor="middle" x="211.83" y="-662.3" font-family="Times-Roman" font-size="14.00">CC0&#45;1.0</text>
</g>
<!-- Creative Commons Zero v1.0 Universal(2) -->
<g id="node3" class="node">
<title>Creative Commons Zero v1.0 Universal(2)</title>
<ellipse fill="white" stroke="white" cx="211.83" cy="-612" rx="187.67" ry="18"/>
<text text-anchor="middle" x="211.83" y="-608.3" font-family="Times-Roman" font-size="14.00">Creative Commons Zero v1.0 Universal</text>
</g>
<!-- CC0&#45;1.0(3) -->
<g id="node4" class="node">
<title>CC0&#45;1.0(3)</title>
<ellipse fill="springgreen" stroke="springgreen" cx="211.83" cy="-552" rx="47.39" ry="18"/>
<text text-anchor="middle" x="211.83" y="-548.3" font-family="Times-Roman" font-size="14.00">CC0&#45;1.0</text>
</g>
<!-- cc0&#45;1.0(3) -->
<g id="node5" class="node">
<title>cc0&#45;1.0(3)</title>
<ellipse fill="white" stroke="white" cx="211.83" cy="-498" rx="44.39" ry="18"/>
<text text-anchor="middle" x="211.83" y="-494.3" font-family="Times-Roman" font-size="14.00">cc0&#45;1.0</text>
</g>
<!-- CC0 1.0(4) -->
<g id="node6" class="node">
<title>CC0 1.0(4)</title>
<ellipse fill="white" stroke="white" cx="211.83" cy="-438" rx="46.59" ry="18"/>
<text text-anchor="middle" x="211.83" y="-434.3" font-family="Times-Roman" font-size="14.00">CC0 1.0</text>
</g>
<!-- CC0&#45;1.0(4) -->
<g id="node7" class="node">
<title>CC0&#45;1.0(4)</title>
<ellipse fill="springgreen" stroke="springgreen" cx="211.83" cy="-384" rx="47.39" ry="18"/>
<text text-anchor="middle" x="211.83" y="-380.3" font-family="Times-Roman" font-size="14.00">CC0&#45;1.0</text>
</g>
<!-- CC0&#45;1.0(5) -->
<g id="node8" class="node">
<title>CC0&#45;1.0(5)</title>
<ellipse fill="springgreen" stroke="springgreen" cx="211.83" cy="-324" rx="47.39" ry="18"/>
<text text-anchor="middle" x="211.83" y="-320.3" font-family="Times-Roman" font-size="14.00">CC0&#45;1.0</text>
</g>
<!-- Creative Commons CC0 1.0 Universal(5) -->
<g id="node9" class="node">
<title>Creative Commons CC0 1.0 Universal(5)</title>
<ellipse fill="white" stroke="white" cx="211.83" cy="-270" rx="180.87" ry="18"/>
<text text-anchor="middle" x="211.83" y="-266.3" font-family="Times-Roman" font-size="14.00">Creative Commons CC0 1.0 Universal</text>
</g>
<!-- CC0&#45;1.0(6) -->
<g id="node10" class="node">
<title>CC0&#45;1.0(6)</title>
<ellipse fill="springgreen" stroke="springgreen" cx="211.83" cy="-210" rx="47.39" ry="18"/>
<text text-anchor="middle" x="211.83" y="-206.3" font-family="Times-Roman" font-size="14.00">CC0&#45;1.0</text>
</g>
<!-- Creative Commons Zero v1.0 Universal(6) -->
<g id="node11" class="node">
<title>Creative Commons Zero v1.0 Universal(6)</title>
<ellipse fill="white" stroke="white" cx="211.83" cy="-156" rx="187.67" ry="18"/>
<text text-anchor="middle" x="211.83" y="-152.3" font-family="Times-Roman" font-size="14.00">Creative Commons Zero v1.0 Universal</text>
</g>
<!-- CC0&#45;1.0(7) -->
<g id="node12" class="node">
<title>CC0&#45;1.0(7)</title>
<ellipse fill="springgreen" stroke="springgreen" cx="211.83" cy="-96" rx="47.39" ry="18"/>
<text text-anchor="middle" x="211.83" y="-92.3" font-family="Times-Roman" font-size="14.00">CC0&#45;1.0</text>
</g>
<!-- Creative Commons Zero 1.0(7) -->
<g id="node13" class="node">
<title>Creative Commons Zero 1.0(7)</title>
<ellipse fill="white" stroke="white" cx="211.83" cy="-42" rx="137.28" ry="18"/>
<text text-anchor="middle" x="211.83" y="-38.3" font-family="Times-Roman" font-size="14.00">Creative Commons Zero 1.0</text>
</g>
</g>
</svg>
