<?xml version="1.0" encoding="UTF-8" standalone="no"?>
<!DOCTYPE svg PUBLIC "-//W3C//DTD SVG 1.1//EN"
 "http://www.w3.org/Graphics/SVG/1.1/DTD/svg11.dtd">
<!-- Generated by graphviz version 2.43.0 (0)
 -->
<!-- Title: CC0&#45;1.0 Pages: 1 -->
<svg width="1294pt" height="115pt"
 viewBox="0.00 0.00 1294.00 115.00" xmlns="http://www.w3.org/2000/svg" xmlns:xlink="http://www.w3.org/1999/xlink">
<g id="graph0" class="graph" transform="scale(1 1) rotate(0) translate(4 111)">
<title>CC0&#45;1.0</title>
<polygon fill="white" stroke="transparent" points="-4,4 -4,-111 1290,-111 1290,4 -4,4"/>
<g id="clust1" class="cluster">
<title>cluster_0</title>
<polygon fill="none" stroke="black" points="8,-8 8,-99 1278,-99 1278,-8 8,-8"/>
</g>
<g id="clust2" class="cluster">
<title>cluster_1</title>
<polygon fill="lightgray" stroke="lightgray" points="1160,-16 1160,-91 1270,-91 1270,-16 1160,-16"/>
<text text-anchor="middle" x="1215" y="-75.8" font-family="Times-Roman" font-size="14.00">process #1</text>
</g>
<g id="clust3" class="cluster">
<title>cluster_2</title>
<polygon fill="lightgray" stroke="lightgray" points="760,-16 760,-91 1152,-91 1152,-16 760,-16"/>
<text text-anchor="middle" x="956" y="-75.8" font-family="Times-Roman" font-size="14.00">process #1</text>
</g>
<g id="clust5" class="cluster">
<title>cluster_4</title>
<polygon fill="lightgray" stroke="lightgray" points="544,-16 544,-91 752,-91 752,-16 544,-16"/>
<text text-anchor="middle" x="648" y="-75.8" font-family="Times-Roman" font-size="14.00">process #1</text>
</g>
<g id="clust6" class="cluster">
<title>cluster_5</title>
<polygon fill="lightgray" stroke="lightgray" points="432,-16 432,-91 536,-91 536,-16 432,-16"/>
<text text-anchor="middle" x="484" y="-75.8" font-family="Times-Roman" font-size="14.00">process #1</text>
</g>
<g id="clust7" class="cluster">
<title>cluster_6</title>
<polygon fill="lightgray" stroke="lightgray" points="134,-16 134,-91 424,-91 424,-16 134,-16"/>
<text text-anchor="middle" x="279" y="-75.8" font-family="Times-Roman" font-size="14.00">process #1</text>
</g>
<g id="clust8" class="cluster">
<title>cluster_7</title>
<polygon fill="lightgray" stroke="lightgray" points="16,-16 16,-91 126,-91 126,-16 16,-16"/>
<text text-anchor="middle" x="71" y="-75.8" font-family="Times-Roman" font-size="14.00">process #1</text>
</g>
<!-- CC0&#45;1.0 -->
<g id="node1" class="node">
<title>CC0&#45;1.0</title>
<ellipse fill="white" stroke="white" cx="1215" cy="-42" rx="47.39" ry="18"/>
<text text-anchor="middle" x="1215" y="-38.3" font-family="Times-Roman" font-size="14.00">CC0&#45;1.0</text>
</g>
<!-- Creative Commons Zero v1.0 Universal -->
<g id="node2" class="node">
<title>Creative Commons Zero v1.0 Universal</title>
<ellipse fill="white" stroke="white" cx="956" cy="-42" rx="187.67" ry="18"/>
<text text-anchor="middle" x="956" y="-38.3" font-family="Times-Roman" font-size="14.00">Creative Commons Zero v1.0 Universal</text>
</g>
<!-- scancode://cc0&#45;1.0 -->
<g id="node3" class="node">
<title>scancode://cc0&#45;1.0</title>
<ellipse fill="white" stroke="white" cx="648" cy="-42" rx="95.58" ry="18"/>
<text text-anchor="middle" x="648" y="-38.3" font-family="Times-Roman" font-size="14.00">scancode://cc0&#45;1.0</text>
</g>
<!-- cc0&#45;1.0 -->
<g id="node4" class="node">
<title>cc0&#45;1.0</title>
<ellipse fill="white" stroke="white" cx="484" cy="-42" rx="44.39" ry="18"/>
<text text-anchor="middle" x="484" y="-38.3" font-family="Times-Roman" font-size="14.00">cc0&#45;1.0</text>
</g>
<!-- Creative Commons Zero 1.0 -->
<g id="node5" class="node">
<title>Creative Commons Zero 1.0</title>
<ellipse fill="white" stroke="white" cx="279" cy="-42" rx="137.28" ry="18"/>
<text text-anchor="middle" x="279" y="-38.3" font-family="Times-Roman" font-size="14.00">Creative Commons Zero 1.0</text>
</g>
<!-- CC0 1.0 -->
<g id="node6" class="node">
<title>CC0 1.0</title>
<ellipse fill="white" stroke="white" cx="71" cy="-42" rx="46.59" ry="18"/>
<text text-anchor="middle" x="71" y="-38.3" font-family="Times-Roman" font-size="14.00">CC0 1.0</text>
</g>
</g>
</svg>
