<?xml version="1.0" encoding="UTF-8" standalone="no"?>
<!DOCTYPE svg PUBLIC "-//W3C//DTD SVG 1.1//EN"
 "http://www.w3.org/Graphics/SVG/1.1/DTD/svg11.dtd">
<!-- Generated by graphviz version 2.43.0 (0)
 -->
<!-- Title: CDDL&#45;1.0 Pages: 1 -->
<svg width="1612pt" height="92pt"
 viewBox="0.00 0.00 1612.00 92.00" xmlns="http://www.w3.org/2000/svg" xmlns:xlink="http://www.w3.org/1999/xlink">
<g id="graph0" class="graph" transform="scale(1 1) rotate(0) translate(4 88)">
<title>CDDL&#45;1.0</title>
<polygon fill="white" stroke="transparent" points="-4,4 -4,-88 1608,-88 1608,4 -4,4"/>
<g id="clust1" class="cluster">
<title>cluster_0</title>
<polygon fill="none" stroke="black" points="8,-8 8,-76 1596,-76 1596,-8 8,-8"/>
</g>
<g id="clust2" class="cluster">
<title>cluster_1</title>
<polygon fill="lightgray" stroke="lightgray" points="1464,-16 1464,-68 1588,-68 1588,-16 1464,-16"/>
</g>
<g id="clust3" class="cluster">
<title>cluster_2</title>
<polygon fill="lightgray" stroke="lightgray" points="952,-16 952,-68 1456,-68 1456,-16 952,-16"/>
</g>
<g id="clust4" class="cluster">
<title>cluster_3</title>
<polygon fill="lightgray" stroke="lightgray" points="606,-16 606,-68 944,-68 944,-16 606,-16"/>
</g>
<g id="clust5" class="cluster">
<title>cluster_4</title>
<polygon fill="lightgray" stroke="lightgray" points="16,-16 16,-68 598,-68 598,-16 16,-16"/>
</g>
<!-- CDDL&#45;1.0 -->
<g id="node1" class="node">
<title>CDDL&#45;1.0</title>
<ellipse fill="white" stroke="white" cx="1526" cy="-42" rx="53.89" ry="18"/>
<text text-anchor="middle" x="1526" y="-38.3" font-family="Times-Roman" font-size="14.00">CDDL&#45;1.0</text>
</g>
<!-- Common Development and Distribution License 1.0 -->
<g id="node2" class="node">
<title>Common Development and Distribution License 1.0</title>
<ellipse fill="white" stroke="white" cx="1204" cy="-42" rx="243.96" ry="18"/>
<text text-anchor="middle" x="1204" y="-38.3" font-family="Times-Roman" font-size="14.00">Common Development and Distribution License 1.0</text>
</g>
<!-- CDDL 1.0 -->
<g id="node3" class="node">
<title>CDDL 1.0</title>
<ellipse fill="white" stroke="white" cx="883" cy="-42" rx="53.09" ry="18"/>
<text text-anchor="middle" x="883" y="-38.3" font-family="Times-Roman" font-size="14.00">CDDL 1.0</text>
</g>
<!-- scancode://cddl&#45;1.0 -->
<g id="node4" class="node">
<title>scancode://cddl&#45;1.0</title>
<ellipse fill="white" stroke="white" cx="713" cy="-42" rx="98.58" ry="18"/>
<text text-anchor="middle" x="713" y="-38.3" font-family="Times-Roman" font-size="14.00">scancode://cddl&#45;1.0</text>
</g>
<!-- Common Development and Distribution License, Version 1.0 -->
<g id="node5" class="node">
<title>Common Development and Distribution License, Version 1.0</title>
<ellipse fill="white" stroke="white" cx="307" cy="-42" rx="282.95" ry="18"/>
<text text-anchor="middle" x="307" y="-38.3" font-family="Times-Roman" font-size="14.00">Common Development and Distribution License, Version 1.0</text>
</g>
</g>
</svg>
