<?xml version="1.0" encoding="UTF-8" standalone="no"?>
<!DOCTYPE svg PUBLIC "-//W3C//DTD SVG 1.1//EN"
 "http://www.w3.org/Graphics/SVG/1.1/DTD/svg11.dtd">
<!-- Generated by graphviz version 7.0.0 (0)
 -->
<!-- Title: CDDL&#45;1.1 Pages: 1 -->
<svg width="628pt" height="830pt"
 viewBox="0.00 0.00 627.95 830.00" xmlns="http://www.w3.org/2000/svg" xmlns:xlink="http://www.w3.org/1999/xlink">
<g id="graph0" class="graph" transform="scale(1 1) rotate(0) translate(4 826)">
<title>CDDL&#45;1.1</title>
<polygon fill="white" stroke="none" points="-4,4 -4,-826 623.95,-826 623.95,4 -4,4"/>
<g id="clust1" class="cluster">
<title>cluster_0</title>
<polygon fill="none" stroke="black" points="8,-8 8,-814 611.95,-814 611.95,-8 8,-8"/>
</g>
<g id="clust2" class="cluster">
<title>cluster_1</title>
<polygon fill="lightgray" stroke="lightgray" points="253.23,-754 253.23,-806 366.72,-806 366.72,-754 253.23,-754"/>
</g>
<g id="clust3" class="cluster">
<title>cluster_2</title>
<polygon fill="lightgray" stroke="lightgray" points="103.74,-640 103.74,-746 516.21,-746 516.21,-640 103.74,-640"/>
</g>
<g id="clust4" class="cluster">
<title>cluster_3</title>
<polygon fill="lightgray" stroke="lightgray" points="253.23,-526 253.23,-632 366.72,-632 366.72,-526 253.23,-526"/>
</g>
<g id="clust5" class="cluster">
<title>cluster_4</title>
<polygon fill="lightgray" stroke="lightgray" points="103.74,-412 103.74,-518 516.21,-518 516.21,-412 103.74,-412"/>
</g>
<g id="clust6" class="cluster">
<title>cluster_5</title>
<polygon fill="lightgray" stroke="lightgray" points="16,-298 16,-404 603.95,-404 603.95,-298 16,-298"/>
</g>
<g id="clust7" class="cluster">
<title>cluster_6</title>
<polygon fill="lightgray" stroke="lightgray" points="103.74,-184 103.74,-290 516.21,-290 516.21,-184 103.74,-184"/>
</g>
<g id="clust8" class="cluster">
<title>cluster_7</title>
<polygon fill="lightgray" stroke="lightgray" points="222.68,-16 222.68,-176 397.27,-176 397.27,-16 222.68,-16"/>
</g>
<!-- CDDL&#45;1.1(1) -->
<g id="node1" class="node">
<title>CDDL&#45;1.1(1)</title>
<ellipse fill="springgreen" stroke="springgreen" cx="309.97" cy="-780" rx="48.99" ry="18"/>
<text text-anchor="middle" x="309.97" y="-776.3" font-family="Times,serif" font-size="14.00">CDDL&#45;1.1</text>
</g>
<!-- CDDL&#45;1.1(2) -->
<g id="node2" class="node">
<title>CDDL&#45;1.1(2)</title>
<ellipse fill="springgreen" stroke="springgreen" cx="309.97" cy="-720" rx="48.99" ry="18"/>
<text text-anchor="middle" x="309.97" y="-716.3" font-family="Times,serif" font-size="14.00">CDDL&#45;1.1</text>
</g>
<!-- Common Development and Distribution License 1.1(2) -->
<g id="node3" class="node">
<title>Common Development and Distribution License 1.1(2)</title>
<ellipse fill="white" stroke="white" cx="309.97" cy="-666" rx="198.47" ry="18"/>
<text text-anchor="middle" x="309.97" y="-662.3" font-family="Times,serif" font-size="14.00">Common Development and Distribution License 1.1</text>
</g>
<!-- CDDL 1.1(3) -->
<g id="node4" class="node">
<title>CDDL 1.1(3)</title>
<ellipse fill="white" stroke="white" cx="309.97" cy="-606" rx="48.19" ry="18"/>
<text text-anchor="middle" x="309.97" y="-602.3" font-family="Times,serif" font-size="14.00">CDDL 1.1</text>
</g>
<!-- CDDL&#45;1.1(3) -->
<g id="node5" class="node">
<title>CDDL&#45;1.1(3)</title>
<ellipse fill="springgreen" stroke="springgreen" cx="309.97" cy="-552" rx="48.99" ry="18"/>
<text text-anchor="middle" x="309.97" y="-548.3" font-family="Times,serif" font-size="14.00">CDDL&#45;1.1</text>
</g>
<!-- CDDL&#45;1.1(4) -->
<g id="node6" class="node">
<title>CDDL&#45;1.1(4)</title>
<ellipse fill="springgreen" stroke="springgreen" cx="309.97" cy="-492" rx="48.99" ry="18"/>
<text text-anchor="middle" x="309.97" y="-488.3" font-family="Times,serif" font-size="14.00">CDDL&#45;1.1</text>
</g>
<!-- Common Development and Distribution License 1.1(4) -->
<g id="node7" class="node">
<title>Common Development and Distribution License 1.1(4)</title>
<ellipse fill="white" stroke="white" cx="309.97" cy="-438" rx="198.47" ry="18"/>
<text text-anchor="middle" x="309.97" y="-434.3" font-family="Times,serif" font-size="14.00">Common Development and Distribution License 1.1</text>
</g>
<!-- CDDL&#45;1.1(5) -->
<g id="node8" class="node">
<title>CDDL&#45;1.1(5)</title>
<ellipse fill="springgreen" stroke="springgreen" cx="309.97" cy="-378" rx="48.99" ry="18"/>
<text text-anchor="middle" x="309.97" y="-374.3" font-family="Times,serif" font-size="14.00">CDDL&#45;1.1</text>
</g>
<!-- COMMON DEVELOPMENT AND DISTRIBUTION LICENSE Version 1.1(5) -->
<g id="node9" class="node">
<title>COMMON DEVELOPMENT AND DISTRIBUTION LICENSE Version 1.1(5)</title>
<ellipse fill="white" stroke="white" cx="309.97" cy="-324" rx="285.95" ry="18"/>
<text text-anchor="middle" x="309.97" y="-320.3" font-family="Times,serif" font-size="14.00">COMMON DEVELOPMENT AND DISTRIBUTION LICENSE Version 1.1</text>
</g>
<!-- CDDL&#45;1.1(6) -->
<g id="node10" class="node">
<title>CDDL&#45;1.1(6)</title>
<ellipse fill="springgreen" stroke="springgreen" cx="309.97" cy="-264" rx="48.99" ry="18"/>
<text text-anchor="middle" x="309.97" y="-260.3" font-family="Times,serif" font-size="14.00">CDDL&#45;1.1</text>
</g>
<!-- Common Development and Distribution License 1.1(6) -->
<g id="node11" class="node">
<title>Common Development and Distribution License 1.1(6)</title>
<ellipse fill="white" stroke="white" cx="309.97" cy="-210" rx="198.47" ry="18"/>
<text text-anchor="middle" x="309.97" y="-206.3" font-family="Times,serif" font-size="14.00">Common Development and Distribution License 1.1</text>
</g>
<!-- CDDL 1.1(7) -->
<g id="node12" class="node">
<title>CDDL 1.1(7)</title>
<ellipse fill="white" stroke="white" cx="309.97" cy="-150" rx="48.19" ry="18"/>
<text text-anchor="middle" x="309.97" y="-146.3" font-family="Times,serif" font-size="14.00">CDDL 1.1</text>
</g>
<!-- CDDL&#45;1.1(7) -->
<g id="node13" class="node">
<title>CDDL&#45;1.1(7)</title>
<ellipse fill="springgreen" stroke="springgreen" cx="309.97" cy="-96" rx="48.99" ry="18"/>
<text text-anchor="middle" x="309.97" y="-92.3" font-family="Times,serif" font-size="14.00">CDDL&#45;1.1</text>
</g>
<!-- scancode://cddl&#45;1.1(7) -->
<g id="node14" class="node">
<title>scancode://cddl&#45;1.1(7)</title>
<ellipse fill="white" stroke="white" cx="309.97" cy="-42" rx="79.09" ry="18"/>
<text text-anchor="middle" x="309.97" y="-38.3" font-family="Times,serif" font-size="14.00">scancode://cddl&#45;1.1</text>
</g>
</g>
</svg>
