<?xml version="1.0" encoding="UTF-8" standalone="no"?>
<!DOCTYPE svg PUBLIC "-//W3C//DTD SVG 1.1//EN"
 "http://www.w3.org/Graphics/SVG/1.1/DTD/svg11.dtd">
<!-- Generated by graphviz version 2.43.0 (0)
 -->
<!-- Title: CDLA&#45;Permissive&#45;1.0 Pages: 1 -->
<svg width="1333pt" height="115pt"
 viewBox="0.00 0.00 1333.00 115.00" xmlns="http://www.w3.org/2000/svg" xmlns:xlink="http://www.w3.org/1999/xlink">
<g id="graph0" class="graph" transform="scale(1 1) rotate(0) translate(4 111)">
<title>CDLA&#45;Permissive&#45;1.0</title>
<polygon fill="white" stroke="transparent" points="-4,4 -4,-111 1329,-111 1329,4 -4,4"/>
<g id="clust1" class="cluster">
<title>cluster_0</title>
<polygon fill="none" stroke="black" points="8,-8 8,-99 1317,-99 1317,-8 8,-8"/>
</g>
<g id="clust2" class="cluster">
<title>cluster_1</title>
<polygon fill="lightgray" stroke="lightgray" points="1083,-16 1083,-91 1309,-91 1309,-16 1083,-16"/>
<text text-anchor="middle" x="1196" y="-75.8" font-family="Times-Roman" font-size="14.00">process #1</text>
</g>
<g id="clust3" class="cluster">
<title>cluster_2</title>
<polygon fill="lightgray" stroke="lightgray" points="569,-16 569,-91 1075,-91 1075,-16 569,-16"/>
<text text-anchor="middle" x="822" y="-75.8" font-family="Times-Roman" font-size="14.00">process #1</text>
</g>
<g id="clust4" class="cluster">
<title>cluster_3</title>
<polygon fill="lightgray" stroke="lightgray" points="16,-16 16,-91 561,-91 561,-16 16,-16"/>
<text text-anchor="middle" x="288.5" y="-75.8" font-family="Times-Roman" font-size="14.00">process #1</text>
</g>
<!-- CDLA&#45;Permissive&#45;1.0 -->
<g id="node1" class="node">
<title>CDLA&#45;Permissive&#45;1.0</title>
<ellipse fill="white" stroke="white" cx="1196" cy="-42" rx="104.78" ry="18"/>
<text text-anchor="middle" x="1196" y="-38.3" font-family="Times-Roman" font-size="14.00">CDLA&#45;Permissive&#45;1.0</text>
</g>
<!-- Community Data License Agreement Permissive 1.0 -->
<g id="node2" class="node">
<title>Community Data License Agreement Permissive 1.0</title>
<ellipse fill="white" stroke="white" cx="822" cy="-42" rx="245.06" ry="18"/>
<text text-anchor="middle" x="822" y="-38.3" font-family="Times-Roman" font-size="14.00">Community Data License Agreement Permissive 1.0</text>
</g>
<!-- CDLA Permissive 1.0 -->
<g id="node3" class="node">
<title>CDLA Permissive 1.0</title>
<ellipse fill="white" stroke="white" cx="448" cy="-42" rx="104.78" ry="18"/>
<text text-anchor="middle" x="448" y="-38.3" font-family="Times-Roman" font-size="14.00">CDLA Permissive 1.0</text>
</g>
<!-- scancode://cdla&#45;permissive&#45;1.0 -->
<g id="node4" class="node">
<title>scancode://cdla&#45;permissive&#45;1.0</title>
<ellipse fill="white" stroke="white" cx="175" cy="-42" rx="150.57" ry="18"/>
<text text-anchor="middle" x="175" y="-38.3" font-family="Times-Roman" font-size="14.00">scancode://cdla&#45;permissive&#45;1.0</text>
</g>
</g>
</svg>
