<?xml version="1.0" encoding="UTF-8" standalone="no"?>
<!DOCTYPE svg PUBLIC "-//W3C//DTD SVG 1.1//EN"
 "http://www.w3.org/Graphics/SVG/1.1/DTD/svg11.dtd">
<!-- Generated by graphviz version 2.43.0 (0)
 -->
<!-- Title: CDLA&#45;Permissive&#45;1.0 Pages: 1 -->
<svg width="1439pt" height="98pt"
 viewBox="0.00 0.00 1439.00 98.43" xmlns="http://www.w3.org/2000/svg" xmlns:xlink="http://www.w3.org/1999/xlink">
<g id="graph0" class="graph" transform="scale(1 1) rotate(0) translate(4 94.43)">
<title>CDLA&#45;Permissive&#45;1.0</title>
<polygon fill="white" stroke="transparent" points="-4,4 -4,-94.43 1435,-94.43 1435,4 -4,4"/>
<g id="clust1" class="cluster">
<title>cluster_0</title>
<polygon fill="none" stroke="black" points="8,-8 8,-82.43 1423,-82.43 1423,-8 8,-8"/>
</g>
<g id="clust2" class="cluster">
<title>cluster_1</title>
<polygon fill="lightgray" stroke="lightgray" points="1083,-16 1083,-74.43 1415,-74.43 1415,-16 1083,-16"/>
</g>
<g id="clust3" class="cluster">
<title>cluster_2</title>
<polygon fill="lightgray" stroke="lightgray" points="569,-19.21 569,-71.21 1075,-71.21 1075,-19.21 569,-19.21"/>
</g>
<g id="clust4" class="cluster">
<title>cluster_3</title>
<polygon fill="lightgray" stroke="lightgray" points="16,-19.21 16,-71.21 561,-71.21 561,-19.21 16,-19.21"/>
</g>
<!-- CDLA&#45;Permissive&#45;1.0 -->
<g id="node1" class="node">
<title>CDLA&#45;Permissive&#45;1.0</title>
<ellipse fill="lightseagreen" stroke="lightseagreen" cx="1249" cy="-45.21" rx="158.28" ry="21.43"/>
<text text-anchor="middle" x="1249" y="-40.21" font-family="Times-Roman" font-size="20.00">CDLA&#45;Permissive&#45;1.0</text>
</g>
<!-- Community Data License Agreement Permissive 1.0 -->
<g id="node2" class="node">
<title>Community Data License Agreement Permissive 1.0</title>
<ellipse fill="white" stroke="white" cx="822" cy="-45.21" rx="245.06" ry="18"/>
<text text-anchor="middle" x="822" y="-41.51" font-family="Times-Roman" font-size="14.00">Community Data License Agreement Permissive 1.0</text>
</g>
<!-- CDLA Permissive 1.0 -->
<g id="node3" class="node">
<title>CDLA Permissive 1.0</title>
<ellipse fill="white" stroke="white" cx="448" cy="-45.21" rx="104.78" ry="18"/>
<text text-anchor="middle" x="448" y="-41.51" font-family="Times-Roman" font-size="14.00">CDLA Permissive 1.0</text>
</g>
<!-- scancode://cdla&#45;permissive&#45;1.0 -->
<g id="node4" class="node">
<title>scancode://cdla&#45;permissive&#45;1.0</title>
<ellipse fill="white" stroke="white" cx="175" cy="-45.21" rx="150.57" ry="18"/>
<text text-anchor="middle" x="175" y="-41.51" font-family="Times-Roman" font-size="14.00">scancode://cdla&#45;permissive&#45;1.0</text>
</g>
</g>
</svg>
