<?xml version="1.0" encoding="UTF-8" standalone="no"?>
<!DOCTYPE svg PUBLIC "-//W3C//DTD SVG 1.1//EN"
 "http://www.w3.org/Graphics/SVG/1.1/DTD/svg11.dtd">
<!-- Generated by graphviz version 2.43.0 (0)
 -->
<!-- Title: CDLA&#45;Permissive&#45;1.0 Pages: 1 -->
<svg width="546pt" height="374pt"
 viewBox="0.00 0.00 546.06 374.00" xmlns="http://www.w3.org/2000/svg" xmlns:xlink="http://www.w3.org/1999/xlink">
<g id="graph0" class="graph" transform="scale(1 1) rotate(0) translate(4 370)">
<title>CDLA&#45;Permissive&#45;1.0</title>
<polygon fill="white" stroke="transparent" points="-4,4 -4,-370 542.06,-370 542.06,4 -4,4"/>
<g id="clust1" class="cluster">
<title>cluster_0</title>
<polygon fill="none" stroke="black" points="8,-8 8,-358 530.06,-358 530.06,-8 8,-8"/>
</g>
<g id="clust2" class="cluster">
<title>cluster_1</title>
<polygon fill="lightgray" stroke="lightgray" points="156.39,-298 156.39,-350 381.67,-350 381.67,-298 156.39,-298"/>
</g>
<g id="clust3" class="cluster">
<title>cluster_2</title>
<polygon fill="lightgray" stroke="lightgray" points="16,-184 16,-290 522.06,-290 522.06,-184 16,-184"/>
</g>
<g id="clust4" class="cluster">
<title>cluster_3</title>
<polygon fill="lightgray" stroke="lightgray" points="110.24,-16 110.24,-176 427.81,-176 427.81,-16 110.24,-16"/>
</g>
<!-- CDLA&#45;Permissive&#45;1.0(1) -->
<g id="node1" class="node">
<title>CDLA&#45;Permissive&#45;1.0(1)</title>
<ellipse fill="springgreen" stroke="springgreen" cx="269.03" cy="-324" rx="104.78" ry="18"/>
<text text-anchor="middle" x="269.03" y="-320.3" font-family="Times-Roman" font-size="14.00">CDLA&#45;Permissive&#45;1.0</text>
</g>
<!-- CDLA&#45;Permissive&#45;1.0(2) -->
<g id="node2" class="node">
<title>CDLA&#45;Permissive&#45;1.0(2)</title>
<ellipse fill="springgreen" stroke="springgreen" cx="269.03" cy="-264" rx="104.78" ry="18"/>
<text text-anchor="middle" x="269.03" y="-260.3" font-family="Times-Roman" font-size="14.00">CDLA&#45;Permissive&#45;1.0</text>
</g>
<!-- Community Data License Agreement Permissive 1.0(2) -->
<g id="node3" class="node">
<title>Community Data License Agreement Permissive 1.0(2)</title>
<ellipse fill="white" stroke="white" cx="269.03" cy="-210" rx="245.06" ry="18"/>
<text text-anchor="middle" x="269.03" y="-206.3" font-family="Times-Roman" font-size="14.00">Community Data License Agreement Permissive 1.0</text>
</g>
<!-- CDLA Permissive 1.0(3) -->
<g id="node4" class="node">
<title>CDLA Permissive 1.0(3)</title>
<ellipse fill="white" stroke="white" cx="269.03" cy="-150" rx="104.78" ry="18"/>
<text text-anchor="middle" x="269.03" y="-146.3" font-family="Times-Roman" font-size="14.00">CDLA Permissive 1.0</text>
</g>
<!-- CDLA&#45;Permissive&#45;1.0(3) -->
<g id="node5" class="node">
<title>CDLA&#45;Permissive&#45;1.0(3)</title>
<ellipse fill="springgreen" stroke="springgreen" cx="269.03" cy="-96" rx="104.78" ry="18"/>
<text text-anchor="middle" x="269.03" y="-92.3" font-family="Times-Roman" font-size="14.00">CDLA&#45;Permissive&#45;1.0</text>
</g>
<!-- scancode://cdla&#45;permissive&#45;1.0(3) -->
<g id="node6" class="node">
<title>scancode://cdla&#45;permissive&#45;1.0(3)</title>
<ellipse fill="white" stroke="white" cx="269.03" cy="-42" rx="150.57" ry="18"/>
<text text-anchor="middle" x="269.03" y="-38.3" font-family="Times-Roman" font-size="14.00">scancode://cdla&#45;permissive&#45;1.0</text>
</g>
</g>
</svg>
