<?xml version="1.0" encoding="UTF-8" standalone="no"?>
<!DOCTYPE svg PUBLIC "-//W3C//DTD SVG 1.1//EN"
 "http://www.w3.org/Graphics/SVG/1.1/DTD/svg11.dtd">
<!-- Generated by graphviz version 2.43.0 (0)
 -->
<!-- Title: CECILL&#45;2.1 Pages: 1 -->
<svg width="3374pt" height="115pt"
 viewBox="0.00 0.00 3374.00 115.00" xmlns="http://www.w3.org/2000/svg" xmlns:xlink="http://www.w3.org/1999/xlink">
<g id="graph0" class="graph" transform="scale(1 1) rotate(0) translate(4 111)">
<title>CECILL&#45;2.1</title>
<polygon fill="white" stroke="transparent" points="-4,4 -4,-111 3370,-111 3370,4 -4,4"/>
<g id="clust1" class="cluster">
<title>cluster_0</title>
<polygon fill="none" stroke="black" points="8,-8 8,-99 3358,-99 3358,-8 8,-8"/>
</g>
<g id="clust2" class="cluster">
<title>cluster_1</title>
<polygon fill="lightgray" stroke="lightgray" points="3214,-16 3214,-91 3350,-91 3350,-16 3214,-16"/>
<text text-anchor="middle" x="3282" y="-75.8" font-family="Times-Roman" font-size="14.00">prev</text>
</g>
<g id="clust3" class="cluster">
<title>cluster_2</title>
<polygon fill="lightgray" stroke="lightgray" points="2618,-16 2618,-68 3206,-68 3206,-16 2618,-16"/>
</g>
<g id="clust4" class="cluster">
<title>cluster_3</title>
<polygon fill="lightgray" stroke="lightgray" points="2114,-16 2114,-68 2610,-68 2610,-16 2114,-16"/>
</g>
<g id="clust5" class="cluster">
<title>cluster_4</title>
<polygon fill="lightgray" stroke="lightgray" points="649,-16 649,-68 2106,-68 2106,-16 649,-16"/>
</g>
<g id="clust6" class="cluster">
<title>cluster_5</title>
<polygon fill="lightgray" stroke="lightgray" points="369,-16 369,-68 641,-68 641,-16 369,-16"/>
</g>
<g id="clust7" class="cluster">
<title>cluster_6</title>
<polygon fill="lightgray" stroke="lightgray" points="16,-16 16,-68 361,-68 361,-16 16,-16"/>
</g>
<!-- CECILL&#45;2.1(1) -->
<g id="node1" class="node">
<title>CECILL&#45;2.1(1)</title>
<ellipse fill="springgreen" stroke="springgreen" cx="3282" cy="-42" rx="59.59" ry="18"/>
<text text-anchor="middle" x="3282" y="-38.3" font-family="Times-Roman" font-size="14.00">CECILL&#45;2.1</text>
</g>
<!-- CECILL&#45;2.1(2) -->
<g id="node2" class="node">
<title>CECILL&#45;2.1(2)</title>
<ellipse fill="springgreen" stroke="springgreen" cx="3138" cy="-42" rx="59.59" ry="18"/>
<text text-anchor="middle" x="3138" y="-38.3" font-family="Times-Roman" font-size="14.00">CECILL&#45;2.1</text>
</g>
<!-- CeCILL Free Software License Agreement v2.1(2) -->
<g id="node3" class="node">
<title>CeCILL Free Software License Agreement v2.1(2)</title>
<ellipse fill="white" stroke="white" cx="2843" cy="-42" rx="217.16" ry="18"/>
<text text-anchor="middle" x="2843" y="-38.3" font-family="Times-Roman" font-size="14.00">CeCILL Free Software License Agreement v2.1</text>
</g>
<!-- CECILL&#45;2.1(3) -->
<g id="node4" class="node">
<title>CECILL&#45;2.1(3)</title>
<ellipse fill="springgreen" stroke="springgreen" cx="2542" cy="-42" rx="59.59" ry="18"/>
<text text-anchor="middle" x="2542" y="-38.3" font-family="Times-Roman" font-size="14.00">CECILL&#45;2.1</text>
</g>
<!-- CeCILL 2.1(3) -->
<g id="node5" class="node">
<title>CeCILL 2.1(3)</title>
<ellipse fill="white" stroke="white" cx="2405" cy="-42" rx="59.29" ry="18"/>
<text text-anchor="middle" x="2405" y="-38.3" font-family="Times-Roman" font-size="14.00">CeCILL 2.1</text>
</g>
<!-- scancode://cecill&#45;2.1(3) -->
<g id="node6" class="node">
<title>scancode://cecill&#45;2.1(3)</title>
<ellipse fill="white" stroke="white" cx="2225" cy="-42" rx="102.88" ry="18"/>
<text text-anchor="middle" x="2225" y="-38.3" font-family="Times-Roman" font-size="14.00">scancode://cecill&#45;2.1</text>
</g>
<!-- CECILL&#45;2.1(4) -->
<g id="node7" class="node">
<title>CECILL&#45;2.1(4)</title>
<ellipse fill="springgreen" stroke="springgreen" cx="2038" cy="-42" rx="59.59" ry="18"/>
<text text-anchor="middle" x="2038" y="-38.3" font-family="Times-Roman" font-size="14.00">CECILL&#45;2.1</text>
</g>
<!-- Cea Cnrs Inria Logiciel Libre License, Version 2.1(4) -->
<g id="node8" class="node">
<title>Cea Cnrs Inria Logiciel Libre License, Version 2.1(4)</title>
<ellipse fill="white" stroke="white" cx="1731" cy="-42" rx="229.36" ry="18"/>
<text text-anchor="middle" x="1731" y="-38.3" font-family="Times-Roman" font-size="14.00">Cea Cnrs Inria Logiciel Libre License, Version 2.1</text>
</g>
<!-- License :: OSI Approved :: CEA CNRS Inria Logiciel Libre License, version 2.1 (CeCILL&#45;2.1)(4) -->
<g id="node9" class="node">
<title>License :: OSI Approved :: CEA CNRS Inria Logiciel Libre License, version 2.1 (CeCILL&#45;2.1)(4)</title>
<ellipse fill="white" stroke="white" cx="1070" cy="-42" rx="413.23" ry="18"/>
<text text-anchor="middle" x="1070" y="-38.3" font-family="Times-Roman" font-size="14.00">License :: OSI Approved :: CEA CNRS Inria Logiciel Libre License, version 2.1 (CeCILL&#45;2.1)</text>
</g>
<!-- CeCILL 2.1(5) -->
<g id="node10" class="node">
<title>CeCILL 2.1(5)</title>
<ellipse fill="white" stroke="white" cx="574" cy="-42" rx="59.29" ry="18"/>
<text text-anchor="middle" x="574" y="-38.3" font-family="Times-Roman" font-size="14.00">CeCILL 2.1</text>
</g>
<!-- CeCILL&#45;2.1(5) -->
<g id="node11" class="node">
<title>CeCILL&#45;2.1(5)</title>
<ellipse fill="white" stroke="white" cx="437" cy="-42" rx="59.59" ry="18"/>
<text text-anchor="middle" x="437" y="-38.3" font-family="Times-Roman" font-size="14.00">CeCILL&#45;2.1</text>
</g>
<!-- CECILL&#45;2.1(6) -->
<g id="node12" class="node">
<title>CECILL&#45;2.1(6)</title>
<ellipse fill="springgreen" stroke="springgreen" cx="293" cy="-42" rx="59.59" ry="18"/>
<text text-anchor="middle" x="293" y="-38.3" font-family="Times-Roman" font-size="14.00">CECILL&#45;2.1</text>
</g>
<!-- CeCILL License 2.1(6) -->
<g id="node13" class="node">
<title>CeCILL License 2.1(6)</title>
<ellipse fill="white" stroke="white" cx="120" cy="-42" rx="95.58" ry="18"/>
<text text-anchor="middle" x="120" y="-38.3" font-family="Times-Roman" font-size="14.00">CeCILL License 2.1</text>
</g>
</g>
</svg>
