<?xml version="1.0" encoding="UTF-8" standalone="no"?>
<!DOCTYPE svg PUBLIC "-//W3C//DTD SVG 1.1//EN"
 "http://www.w3.org/Graphics/SVG/1.1/DTD/svg11.dtd">
<!-- Generated by graphviz version 2.43.0 (0)
 -->
<!-- Title: CECILL&#45;2.0 Pages: 1 -->
<svg width="1276pt" height="92pt"
 viewBox="0.00 0.00 1276.00 92.00" xmlns="http://www.w3.org/2000/svg" xmlns:xlink="http://www.w3.org/1999/xlink">
<g id="graph0" class="graph" transform="scale(1 1) rotate(0) translate(4 88)">
<title>CECILL&#45;2.0</title>
<polygon fill="white" stroke="transparent" points="-4,4 -4,-88 1272,-88 1272,4 -4,4"/>
<g id="clust1" class="cluster">
<title>cluster_0</title>
<polygon fill="none" stroke="black" points="8,-8 8,-76 1260,-76 1260,-8 8,-8"/>
</g>
<g id="clust2" class="cluster">
<title>cluster_1</title>
<polygon fill="lightgray" stroke="lightgray" points="1116,-16 1116,-68 1252,-68 1252,-16 1116,-16"/>
</g>
<g id="clust3" class="cluster">
<title>cluster_2</title>
<polygon fill="lightgray" stroke="lightgray" points="520,-16 520,-68 1108,-68 1108,-16 520,-16"/>
</g>
<g id="clust4" class="cluster">
<title>cluster_3</title>
<polygon fill="lightgray" stroke="lightgray" points="16,-16 16,-68 512,-68 512,-16 16,-16"/>
</g>
<!-- CECILL&#45;2.0(1) -->
<g id="node1" class="node">
<title>CECILL&#45;2.0(1)</title>
<ellipse fill="springgreen" stroke="springgreen" cx="1184" cy="-42" rx="59.59" ry="18"/>
<text text-anchor="middle" x="1184" y="-38.3" font-family="Times-Roman" font-size="14.00">CECILL&#45;2.0</text>
</g>
<!-- CECILL&#45;2.0(2) -->
<g id="node2" class="node">
<title>CECILL&#45;2.0(2)</title>
<ellipse fill="springgreen" stroke="springgreen" cx="1040" cy="-42" rx="59.59" ry="18"/>
<text text-anchor="middle" x="1040" y="-38.3" font-family="Times-Roman" font-size="14.00">CECILL&#45;2.0</text>
</g>
<!-- CeCILL Free Software License Agreement v2.0(2) -->
<g id="node3" class="node">
<title>CeCILL Free Software License Agreement v2.0(2)</title>
<ellipse fill="white" stroke="white" cx="745" cy="-42" rx="217.16" ry="18"/>
<text text-anchor="middle" x="745" y="-38.3" font-family="Times-Roman" font-size="14.00">CeCILL Free Software License Agreement v2.0</text>
</g>
<!-- CECILL&#45;2.0(3) -->
<g id="node4" class="node">
<title>CECILL&#45;2.0(3)</title>
<ellipse fill="springgreen" stroke="springgreen" cx="444" cy="-42" rx="59.59" ry="18"/>
<text text-anchor="middle" x="444" y="-38.3" font-family="Times-Roman" font-size="14.00">CECILL&#45;2.0</text>
</g>
<!-- CeCILL 2.0(3) -->
<g id="node5" class="node">
<title>CeCILL 2.0(3)</title>
<ellipse fill="white" stroke="white" cx="307" cy="-42" rx="59.29" ry="18"/>
<text text-anchor="middle" x="307" y="-38.3" font-family="Times-Roman" font-size="14.00">CeCILL 2.0</text>
</g>
<!-- scancode://cecill&#45;2.0(3) -->
<g id="node6" class="node">
<title>scancode://cecill&#45;2.0(3)</title>
<ellipse fill="white" stroke="white" cx="127" cy="-42" rx="102.88" ry="18"/>
<text text-anchor="middle" x="127" y="-38.3" font-family="Times-Roman" font-size="14.00">scancode://cecill&#45;2.0</text>
</g>
</g>
</svg>
