<?xml version="1.0" encoding="UTF-8" standalone="no"?>
<!DOCTYPE svg PUBLIC "-//W3C//DTD SVG 1.1//EN"
 "http://www.w3.org/Graphics/SVG/1.1/DTD/svg11.dtd">
<!-- Generated by graphviz version 2.43.0 (0)
 -->
<!-- Title: CECILL&#45;2.0 Pages: 1 -->
<svg width="1633pt" height="98pt"
 viewBox="0.00 0.00 1633.00 98.43" xmlns="http://www.w3.org/2000/svg" xmlns:xlink="http://www.w3.org/1999/xlink">
<g id="graph0" class="graph" transform="scale(1 1) rotate(0) translate(4 94.43)">
<title>CECILL&#45;2.0</title>
<polygon fill="white" stroke="transparent" points="-4,4 -4,-94.43 1629,-94.43 1629,4 -4,4"/>
<g id="clust1" class="cluster">
<title>cluster_0</title>
<polygon fill="none" stroke="black" points="8,-8 8,-82.43 1617,-82.43 1617,-8 8,-8"/>
</g>
<g id="clust2" class="cluster">
<title>cluster_1</title>
<polygon fill="lightgray" stroke="lightgray" points="1379,-16 1379,-74.43 1609,-74.43 1609,-16 1379,-16"/>
</g>
<g id="clust3" class="cluster">
<title>cluster_2</title>
<polygon fill="lightgray" stroke="lightgray" points="664,-16 664,-74.43 1371,-74.43 1371,-16 664,-16"/>
</g>
<g id="clust4" class="cluster">
<title>cluster_3</title>
<polygon fill="lightgray" stroke="lightgray" points="16,-16 16,-74.43 656,-74.43 656,-16 16,-16"/>
</g>
<!-- CECILL&#45;2.0(1) -->
<g id="node1" class="node">
<title>CECILL&#45;2.0(1)</title>
<ellipse fill="springgreen" stroke="springgreen" cx="1494" cy="-45.21" rx="107.46" ry="21.43"/>
<text text-anchor="middle" x="1494" y="-40.21" font-family="Times-Roman" font-size="20.00">CECILL&#45;2.0(1)</text>
</g>
<!-- CECILL&#45;2.0(2) -->
<g id="node2" class="node">
<title>CECILL&#45;2.0(2)</title>
<ellipse fill="springgreen" stroke="springgreen" cx="1256" cy="-45.21" rx="107.46" ry="21.43"/>
<text text-anchor="middle" x="1256" y="-40.21" font-family="Times-Roman" font-size="20.00">CECILL&#45;2.0(2)</text>
</g>
<!-- CeCILL Free Software License Agreement v2.0(2) -->
<g id="node3" class="node">
<title>CeCILL Free Software License Agreement v2.0(2)</title>
<ellipse fill="white" stroke="white" cx="901" cy="-45.21" rx="229.36" ry="18"/>
<text text-anchor="middle" x="901" y="-41.51" font-family="Times-Roman" font-size="14.00">CeCILL Free Software License Agreement v2.0(2)</text>
</g>
<!-- CECILL&#45;2.0(3) -->
<g id="node4" class="node">
<title>CECILL&#45;2.0(3)</title>
<ellipse fill="springgreen" stroke="springgreen" cx="541" cy="-45.21" rx="107.46" ry="21.43"/>
<text text-anchor="middle" x="541" y="-40.21" font-family="Times-Roman" font-size="20.00">CECILL&#45;2.0(3)</text>
</g>
<!-- CeCILL 2.0(3) -->
<g id="node5" class="node">
<title>CeCILL 2.0(3)</title>
<ellipse fill="white" stroke="white" cx="344" cy="-45.21" rx="71.49" ry="18"/>
<text text-anchor="middle" x="344" y="-41.51" font-family="Times-Roman" font-size="14.00">CeCILL 2.0(3)</text>
</g>
<!-- scancode://cecill&#45;2.0(3) -->
<g id="node6" class="node">
<title>scancode://cecill&#45;2.0(3)</title>
<ellipse fill="white" stroke="white" cx="139" cy="-45.21" rx="115.08" ry="18"/>
<text text-anchor="middle" x="139" y="-41.51" font-family="Times-Roman" font-size="14.00">scancode://cecill&#45;2.0(3)</text>
</g>
</g>
</svg>
