<?xml version="1.0" encoding="UTF-8" standalone="no"?>
<!DOCTYPE svg PUBLIC "-//W3C//DTD SVG 1.1//EN"
 "http://www.w3.org/Graphics/SVG/1.1/DTD/svg11.dtd">
<!-- Generated by graphviz version 2.43.0 (0)
 -->
<!-- Title: CERN&#45;OHL&#45;W&#45;2.0 Pages: 1 -->
<svg width="618pt" height="320pt"
 viewBox="0.00 0.00 617.55 320.00" xmlns="http://www.w3.org/2000/svg" xmlns:xlink="http://www.w3.org/1999/xlink">
<g id="graph0" class="graph" transform="scale(1 1) rotate(0) translate(4 316)">
<title>CERN&#45;OHL&#45;W&#45;2.0</title>
<polygon fill="white" stroke="transparent" points="-4,4 -4,-316 613.55,-316 613.55,4 -4,4"/>
<g id="clust1" class="cluster">
<title>cluster_0</title>
<polygon fill="none" stroke="black" points="8,-8 8,-304 601.55,-304 601.55,-8 8,-8"/>
</g>
<g id="clust2" class="cluster">
<title>cluster_1</title>
<polygon fill="lightgray" stroke="lightgray" points="208.38,-244 208.38,-296 401.17,-296 401.17,-244 208.38,-244"/>
</g>
<g id="clust3" class="cluster">
<title>cluster_2</title>
<polygon fill="lightgray" stroke="lightgray" points="16,-130 16,-236 593.55,-236 593.55,-130 16,-130"/>
</g>
<g id="clust4" class="cluster">
<title>cluster_3</title>
<polygon fill="lightgray" stroke="lightgray" points="169.39,-16 169.39,-122 440.16,-122 440.16,-16 169.39,-16"/>
</g>
<!-- CERN&#45;OHL&#45;W&#45;2.0(1) -->
<g id="node1" class="node">
<title>CERN&#45;OHL&#45;W&#45;2.0(1)</title>
<ellipse fill="springgreen" stroke="springgreen" cx="304.78" cy="-270" rx="88.28" ry="18"/>
<text text-anchor="middle" x="304.78" y="-266.3" font-family="Times-Roman" font-size="14.00">CERN&#45;OHL&#45;W&#45;2.0</text>
</g>
<!-- CERN Open Hardware Licence Version 2 &#45; Weakly Reciprocal(2) -->
<g id="node2" class="node">
<title>CERN Open Hardware Licence Version 2 &#45; Weakly Reciprocal(2)</title>
<ellipse fill="white" stroke="white" cx="304.78" cy="-210" rx="280.55" ry="18"/>
<text text-anchor="middle" x="304.78" y="-206.3" font-family="Times-Roman" font-size="14.00">CERN Open Hardware Licence Version 2 &#45; Weakly Reciprocal</text>
</g>
<!-- CERN&#45;OHL&#45;W&#45;2.0(2) -->
<g id="node3" class="node">
<title>CERN&#45;OHL&#45;W&#45;2.0(2)</title>
<ellipse fill="springgreen" stroke="springgreen" cx="304.78" cy="-156" rx="88.28" ry="18"/>
<text text-anchor="middle" x="304.78" y="-152.3" font-family="Times-Roman" font-size="14.00">CERN&#45;OHL&#45;W&#45;2.0</text>
</g>
<!-- CERN&#45;OHL&#45;W&#45;2.0(3) -->
<g id="node4" class="node">
<title>CERN&#45;OHL&#45;W&#45;2.0(3)</title>
<ellipse fill="springgreen" stroke="springgreen" cx="304.78" cy="-96" rx="88.28" ry="18"/>
<text text-anchor="middle" x="304.78" y="-92.3" font-family="Times-Roman" font-size="14.00">CERN&#45;OHL&#45;W&#45;2.0</text>
</g>
<!-- scancode://cern&#45;ohl&#45;w&#45;2.0(3) -->
<g id="node5" class="node">
<title>scancode://cern&#45;ohl&#45;w&#45;2.0(3)</title>
<ellipse fill="white" stroke="white" cx="304.78" cy="-42" rx="127.28" ry="18"/>
<text text-anchor="middle" x="304.78" y="-38.3" font-family="Times-Roman" font-size="14.00">scancode://cern&#45;ohl&#45;w&#45;2.0</text>
</g>
</g>
</svg>
