<?xml version="1.0" encoding="UTF-8" standalone="no"?>
<!DOCTYPE svg PUBLIC "-//W3C//DTD SVG 1.1//EN"
 "http://www.w3.org/Graphics/SVG/1.1/DTD/svg11.dtd">
<!-- Generated by graphviz version 2.43.0 (0)
 -->
<!-- Title: CNRI&#45;Python Pages: 1 -->
<svg width="1976pt" height="115pt"
 viewBox="0.00 0.00 1976.00 115.00" xmlns="http://www.w3.org/2000/svg" xmlns:xlink="http://www.w3.org/1999/xlink">
<g id="graph0" class="graph" transform="scale(1 1) rotate(0) translate(4 111)">
<title>CNRI&#45;Python</title>
<polygon fill="white" stroke="transparent" points="-4,4 -4,-111 1972,-111 1972,4 -4,4"/>
<g id="clust1" class="cluster">
<title>cluster_0</title>
<polygon fill="none" stroke="black" points="8,-8 8,-99 1960,-99 1960,-8 8,-8"/>
</g>
<g id="clust2" class="cluster">
<title>cluster_1</title>
<polygon fill="lightgray" stroke="lightgray" points="1800,-16 1800,-91 1952,-91 1952,-16 1800,-16"/>
<text text-anchor="middle" x="1876" y="-75.8" font-family="Times-Roman" font-size="14.00">process #1</text>
</g>
<g id="clust3" class="cluster">
<title>cluster_2</title>
<polygon fill="lightgray" stroke="lightgray" points="1568,-16 1568,-91 1792,-91 1792,-16 1568,-16"/>
<text text-anchor="middle" x="1680" y="-75.8" font-family="Times-Roman" font-size="14.00">process #1</text>
</g>
<g id="clust5" class="cluster">
<title>cluster_4</title>
<polygon fill="lightgray" stroke="lightgray" points="1092,-16 1092,-91 1560,-91 1560,-16 1092,-16"/>
<text text-anchor="middle" x="1326" y="-75.8" font-family="Times-Roman" font-size="14.00">process #1</text>
</g>
<g id="clust6" class="cluster">
<title>cluster_5</title>
<polygon fill="lightgray" stroke="lightgray" points="16,-16 16,-91 1084,-91 1084,-16 16,-16"/>
<text text-anchor="middle" x="550" y="-75.8" font-family="Times-Roman" font-size="14.00">process #1</text>
</g>
<!-- CNRI&#45;Python -->
<g id="node1" class="node">
<title>CNRI&#45;Python</title>
<ellipse fill="white" stroke="white" cx="1876" cy="-42" rx="67.69" ry="18"/>
<text text-anchor="middle" x="1876" y="-38.3" font-family="Times-Roman" font-size="14.00">CNRI&#45;Python</text>
</g>
<!-- CNRI Python License -->
<g id="node2" class="node">
<title>CNRI Python License</title>
<ellipse fill="white" stroke="white" cx="1680" cy="-42" rx="103.98" ry="18"/>
<text text-anchor="middle" x="1680" y="-38.3" font-family="Times-Roman" font-size="14.00">CNRI Python License</text>
</g>
<!-- CNRI Python 1.6 -->
<g id="node3" class="node">
<title>CNRI Python 1.6</title>
<ellipse fill="white" stroke="white" cx="1467" cy="-42" rx="85.29" ry="18"/>
<text text-anchor="middle" x="1467" y="-38.3" font-family="Times-Roman" font-size="14.00">CNRI Python 1.6</text>
</g>
<!-- scancode://cnri&#45;python&#45;1.6 -->
<g id="node4" class="node">
<title>scancode://cnri&#45;python&#45;1.6</title>
<ellipse fill="white" stroke="white" cx="1232" cy="-42" rx="131.88" ry="18"/>
<text text-anchor="middle" x="1232" y="-38.3" font-family="Times-Roman" font-size="14.00">scancode://cnri&#45;python&#45;1.6</text>
</g>
<!-- CNRI portion of the multi&#45;part Python License -->
<g id="node5" class="node">
<title>CNRI portion of the multi&#45;part Python License</title>
<ellipse fill="white" stroke="white" cx="860" cy="-42" rx="215.56" ry="18"/>
<text text-anchor="middle" x="860" y="-38.3" font-family="Times-Roman" font-size="14.00">CNRI portion of the multi&#45;part Python License</text>
</g>
<!-- License :: OSI Approved :: Python License (CNRI Python License) -->
<g id="node6" class="node">
<title>License :: OSI Approved :: Python License (CNRI Python License)</title>
<ellipse fill="white" stroke="white" cx="325" cy="-42" rx="300.85" ry="18"/>
<text text-anchor="middle" x="325" y="-38.3" font-family="Times-Roman" font-size="14.00">License :: OSI Approved :: Python License (CNRI Python License)</text>
</g>
</g>
</svg>
