<?xml version="1.0" encoding="UTF-8" standalone="no"?>
<!DOCTYPE svg PUBLIC "-//W3C//DTD SVG 1.1//EN"
 "http://www.w3.org/Graphics/SVG/1.1/DTD/svg11.dtd">
<!-- Generated by graphviz version 2.43.0 (0)
 -->
<!-- Title: CNRI&#45;Python Pages: 1 -->
<svg width="320pt" height="602pt"
 viewBox="0.00 0.00 319.88 602.00" xmlns="http://www.w3.org/2000/svg" xmlns:xlink="http://www.w3.org/1999/xlink">
<g id="graph0" class="graph" transform="scale(1 1) rotate(0) translate(4 598)">
<title>CNRI&#45;Python</title>
<polygon fill="white" stroke="transparent" points="-4,4 -4,-598 315.88,-598 315.88,4 -4,4"/>
<g id="clust1" class="cluster">
<title>cluster_0</title>
<polygon fill="none" stroke="black" points="8,-8 8,-586 303.88,-586 303.88,-8 8,-8"/>
</g>
<g id="clust2" class="cluster">
<title>cluster_1</title>
<polygon fill="lightgray" stroke="lightgray" points="80.34,-526 80.34,-578 231.53,-578 231.53,-526 80.34,-526"/>
</g>
<g id="clust3" class="cluster">
<title>cluster_2</title>
<polygon fill="lightgray" stroke="lightgray" points="43.95,-412 43.95,-518 267.93,-518 267.93,-412 43.95,-412"/>
</g>
<g id="clust4" class="cluster">
<title>cluster_3</title>
<polygon fill="lightgray" stroke="lightgray" points="43.95,-298 43.95,-404 267.93,-404 267.93,-298 43.95,-298"/>
</g>
<g id="clust5" class="cluster">
<title>cluster_4</title>
<polygon fill="lightgray" stroke="lightgray" points="16,-130 16,-290 295.88,-290 295.88,-130 16,-130"/>
</g>
<g id="clust6" class="cluster">
<title>cluster_5</title>
<polygon fill="lightgray" stroke="lightgray" points="43.95,-16 43.95,-122 267.93,-122 267.93,-16 43.95,-16"/>
</g>
<!-- CNRI&#45;Python(1) -->
<g id="node1" class="node">
<title>CNRI&#45;Python(1)</title>
<ellipse fill="springgreen" stroke="springgreen" cx="155.94" cy="-552" rx="67.69" ry="18"/>
<text text-anchor="middle" x="155.94" y="-548.3" font-family="Times-Roman" font-size="14.00">CNRI&#45;Python</text>
</g>
<!-- CNRI Python License(2) -->
<g id="node2" class="node">
<title>CNRI Python License(2)</title>
<ellipse fill="white" stroke="white" cx="155.94" cy="-492" rx="103.98" ry="18"/>
<text text-anchor="middle" x="155.94" y="-488.3" font-family="Times-Roman" font-size="14.00">CNRI Python License</text>
</g>
<!-- CNRI&#45;Python(2) -->
<g id="node3" class="node">
<title>CNRI&#45;Python(2)</title>
<ellipse fill="springgreen" stroke="springgreen" cx="155.94" cy="-438" rx="67.69" ry="18"/>
<text text-anchor="middle" x="155.94" y="-434.3" font-family="Times-Roman" font-size="14.00">CNRI&#45;Python</text>
</g>
<!-- CNRI Python License(3) -->
<g id="node4" class="node">
<title>CNRI Python License(3)</title>
<ellipse fill="white" stroke="white" cx="155.94" cy="-378" rx="103.98" ry="18"/>
<text text-anchor="middle" x="155.94" y="-374.3" font-family="Times-Roman" font-size="14.00">CNRI Python License</text>
</g>
<!-- CNRI&#45;Python(3) -->
<g id="node5" class="node">
<title>CNRI&#45;Python(3)</title>
<ellipse fill="springgreen" stroke="springgreen" cx="155.94" cy="-324" rx="67.69" ry="18"/>
<text text-anchor="middle" x="155.94" y="-320.3" font-family="Times-Roman" font-size="14.00">CNRI&#45;Python</text>
</g>
<!-- CNRI Python 1.6(4) -->
<g id="node6" class="node">
<title>CNRI Python 1.6(4)</title>
<ellipse fill="white" stroke="white" cx="155.94" cy="-264" rx="85.29" ry="18"/>
<text text-anchor="middle" x="155.94" y="-260.3" font-family="Times-Roman" font-size="14.00">CNRI Python 1.6</text>
</g>
<!-- CNRI&#45;Python(4) -->
<g id="node7" class="node">
<title>CNRI&#45;Python(4)</title>
<ellipse fill="springgreen" stroke="springgreen" cx="155.94" cy="-210" rx="67.69" ry="18"/>
<text text-anchor="middle" x="155.94" y="-206.3" font-family="Times-Roman" font-size="14.00">CNRI&#45;Python</text>
</g>
<!-- scancode://cnri&#45;python&#45;1.6(4) -->
<g id="node8" class="node">
<title>scancode://cnri&#45;python&#45;1.6(4)</title>
<ellipse fill="white" stroke="white" cx="155.94" cy="-156" rx="131.88" ry="18"/>
<text text-anchor="middle" x="155.94" y="-152.3" font-family="Times-Roman" font-size="14.00">scancode://cnri&#45;python&#45;1.6</text>
</g>
<!-- CNRI Python License(5) -->
<g id="node9" class="node">
<title>CNRI Python License(5)</title>
<ellipse fill="white" stroke="white" cx="155.94" cy="-96" rx="103.98" ry="18"/>
<text text-anchor="middle" x="155.94" y="-92.3" font-family="Times-Roman" font-size="14.00">CNRI Python License</text>
</g>
<!-- CNRI&#45;Python(5) -->
<g id="node10" class="node">
<title>CNRI&#45;Python(5)</title>
<ellipse fill="springgreen" stroke="springgreen" cx="155.94" cy="-42" rx="67.69" ry="18"/>
<text text-anchor="middle" x="155.94" y="-38.3" font-family="Times-Roman" font-size="14.00">CNRI&#45;Python</text>
</g>
</g>
</svg>
