<?xml version="1.0" encoding="UTF-8" standalone="no"?>
<!DOCTYPE svg PUBLIC "-//W3C//DTD SVG 1.1//EN"
 "http://www.w3.org/Graphics/SVG/1.1/DTD/svg11.dtd">
<!-- Generated by graphviz version 2.43.0 (0)
 -->
<!-- Title: copyleft&#45;next&#45;0.3.0 Pages: 1 -->
<svg width="351pt" height="434pt"
 viewBox="0.00 0.00 351.07 434.00" xmlns="http://www.w3.org/2000/svg" xmlns:xlink="http://www.w3.org/1999/xlink">
<g id="graph0" class="graph" transform="scale(1 1) rotate(0) translate(4 430)">
<title>copyleft&#45;next&#45;0.3.0</title>
<polygon fill="white" stroke="transparent" points="-4,4 -4,-430 347.07,-430 347.07,4 -4,4"/>
<g id="clust1" class="cluster">
<title>cluster_0</title>
<polygon fill="none" stroke="black" points="8,-8 8,-418 335.07,-418 335.07,-8 8,-8"/>
</g>
<g id="clust2" class="cluster">
<title>cluster_1</title>
<polygon fill="lightgray" stroke="lightgray" points="66.7,-358 66.7,-410 276.38,-410 276.38,-358 66.7,-358"/>
</g>
<g id="clust3" class="cluster">
<title>cluster_2</title>
<polygon fill="lightgray" stroke="lightgray" points="66.7,-244 66.7,-350 276.38,-350 276.38,-244 66.7,-244"/>
</g>
<g id="clust4" class="cluster">
<title>cluster_3</title>
<polygon fill="lightgray" stroke="lightgray" points="64.75,-184 64.75,-236 278.33,-236 278.33,-184 64.75,-184"/>
</g>
<g id="clust5" class="cluster">
<title>cluster_4</title>
<polygon fill="lightgray" stroke="lightgray" points="16,-16 16,-176 327.07,-176 327.07,-16 16,-16"/>
</g>
<!-- copyleft&#45;next&#45;0.3.0(1) -->
<g id="node1" class="node">
<title>copyleft&#45;next&#45;0.3.0(1)</title>
<ellipse fill="springgreen" stroke="springgreen" cx="171.54" cy="-384" rx="96.68" ry="18"/>
<text text-anchor="middle" x="171.54" y="-380.3" font-family="Times-Roman" font-size="14.00">copyleft&#45;next&#45;0.3.0</text>
</g>
<!-- copyleft&#45;next 0.3.0(2) -->
<g id="node2" class="node">
<title>copyleft&#45;next 0.3.0(2)</title>
<ellipse fill="white" stroke="white" cx="171.54" cy="-324" rx="96.38" ry="18"/>
<text text-anchor="middle" x="171.54" y="-320.3" font-family="Times-Roman" font-size="14.00">copyleft&#45;next 0.3.0</text>
</g>
<!-- copyleft&#45;next&#45;0.3.0(2) -->
<g id="node3" class="node">
<title>copyleft&#45;next&#45;0.3.0(2)</title>
<ellipse fill="springgreen" stroke="springgreen" cx="171.54" cy="-270" rx="96.68" ry="18"/>
<text text-anchor="middle" x="171.54" y="-266.3" font-family="Times-Roman" font-size="14.00">copyleft&#45;next&#45;0.3.0</text>
</g>
<!-- Copyleft&#45;Next&#45;0.3.0(3) -->
<g id="node4" class="node">
<title>Copyleft&#45;Next&#45;0.3.0(3)</title>
<ellipse fill="white" stroke="white" cx="171.54" cy="-210" rx="98.58" ry="18"/>
<text text-anchor="middle" x="171.54" y="-206.3" font-family="Times-Roman" font-size="14.00">Copyleft&#45;Next&#45;0.3.0</text>
</g>
<!-- copyleft&#45;next 0.3.0(4) -->
<g id="node5" class="node">
<title>copyleft&#45;next 0.3.0(4)</title>
<ellipse fill="white" stroke="white" cx="171.54" cy="-150" rx="96.38" ry="18"/>
<text text-anchor="middle" x="171.54" y="-146.3" font-family="Times-Roman" font-size="14.00">copyleft&#45;next 0.3.0</text>
</g>
<!-- copyleft&#45;next&#45;0.3.0(4) -->
<g id="node6" class="node">
<title>copyleft&#45;next&#45;0.3.0(4)</title>
<ellipse fill="springgreen" stroke="springgreen" cx="171.54" cy="-96" rx="96.68" ry="18"/>
<text text-anchor="middle" x="171.54" y="-92.3" font-family="Times-Roman" font-size="14.00">copyleft&#45;next&#45;0.3.0</text>
</g>
<!-- scancode://copyleft&#45;next&#45;0.3.0(4) -->
<g id="node7" class="node">
<title>scancode://copyleft&#45;next&#45;0.3.0(4)</title>
<ellipse fill="white" stroke="white" cx="171.54" cy="-42" rx="147.57" ry="18"/>
<text text-anchor="middle" x="171.54" y="-38.3" font-family="Times-Roman" font-size="14.00">scancode://copyleft&#45;next&#45;0.3.0</text>
</g>
</g>
</svg>
