<?xml version="1.0" encoding="UTF-8" standalone="no"?>
<!DOCTYPE svg PUBLIC "-//W3C//DTD SVG 1.1//EN"
 "http://www.w3.org/Graphics/SVG/1.1/DTD/svg11.dtd">
<!-- Generated by graphviz version 2.43.0 (0)
 -->
<!-- Title: CPL&#45;1.0 Pages: 1 -->
<svg width="546pt" height="900pt"
 viewBox="0.00 0.00 546.46 900.00" xmlns="http://www.w3.org/2000/svg" xmlns:xlink="http://www.w3.org/1999/xlink">
<g id="graph0" class="graph" transform="scale(1 1) rotate(0) translate(4 896)">
<title>CPL&#45;1.0</title>
<polygon fill="white" stroke="transparent" points="-4,4 -4,-896 542.46,-896 542.46,4 -4,4"/>
<g id="clust1" class="cluster">
<title>cluster_0</title>
<polygon fill="none" stroke="black" points="8,-8 8,-884 530.46,-884 530.46,-8 8,-8"/>
</g>
<g id="clust2" class="cluster">
<title>cluster_1</title>
<polygon fill="none" stroke="black" points="16,-76 16,-876 522.46,-876 522.46,-76 16,-76"/>
</g>
<g id="clust3" class="cluster">
<title>cluster_2</title>
<polygon fill="lightgray" stroke="lightgray" points="215.73,-816 215.73,-868 322.72,-868 322.72,-816 215.73,-816"/>
</g>
<g id="clust4" class="cluster">
<title>cluster_3</title>
<polygon fill="lightgray" stroke="lightgray" points="126.04,-702 126.04,-808 412.42,-808 412.42,-702 126.04,-702"/>
</g>
<g id="clust5" class="cluster">
<title>cluster_4</title>
<polygon fill="lightgray" stroke="lightgray" points="126.04,-588 126.04,-694 412.42,-694 412.42,-588 126.04,-588"/>
</g>
<g id="clust6" class="cluster">
<title>cluster_5</title>
<polygon fill="lightgray" stroke="lightgray" points="168.29,-420 168.29,-580 370.17,-580 370.17,-420 168.29,-420"/>
</g>
<g id="clust7" class="cluster">
<title>cluster_6</title>
<polygon fill="lightgray" stroke="lightgray" points="24,-198 24,-412 514.46,-412 514.46,-198 24,-198"/>
</g>
<g id="clust8" class="cluster">
<title>cluster_7</title>
<polygon fill="lightgray" stroke="lightgray" points="126.04,-84 126.04,-190 412.42,-190 412.42,-84 126.04,-84"/>
</g>
<g id="clust9" class="cluster">
<title>cluster_8</title>
<polygon fill="lightgray" stroke="lightgray" points="90.29,-16 90.29,-68 448.16,-68 448.16,-16 90.29,-16"/>
</g>
<!-- CPL&#45;1.0(2) -->
<g id="node1" class="node">
<title>CPL&#45;1.0(2)</title>
<ellipse fill="springgreen" stroke="springgreen" cx="269.23" cy="-842" rx="45.49" ry="18"/>
<text text-anchor="middle" x="269.23" y="-838.3" font-family="Times-Roman" font-size="14.00">CPL&#45;1.0</text>
</g>
<!-- CPL&#45;1.0(3) -->
<g id="node2" class="node">
<title>CPL&#45;1.0(3)</title>
<ellipse fill="springgreen" stroke="springgreen" cx="269.23" cy="-782" rx="45.49" ry="18"/>
<text text-anchor="middle" x="269.23" y="-778.3" font-family="Times-Roman" font-size="14.00">CPL&#45;1.0</text>
</g>
<!-- Common Public License 1.0(3) -->
<g id="node3" class="node">
<title>Common Public License 1.0(3)</title>
<ellipse fill="white" stroke="white" cx="269.23" cy="-728" rx="135.38" ry="18"/>
<text text-anchor="middle" x="269.23" y="-724.3" font-family="Times-Roman" font-size="14.00">Common Public License 1.0</text>
</g>
<!-- CPL&#45;1.0(4) -->
<g id="node4" class="node">
<title>CPL&#45;1.0(4)</title>
<ellipse fill="springgreen" stroke="springgreen" cx="269.23" cy="-668" rx="45.49" ry="18"/>
<text text-anchor="middle" x="269.23" y="-664.3" font-family="Times-Roman" font-size="14.00">CPL&#45;1.0</text>
</g>
<!-- Common Public License 1.0(4) -->
<g id="node5" class="node">
<title>Common Public License 1.0(4)</title>
<ellipse fill="white" stroke="white" cx="269.23" cy="-614" rx="135.38" ry="18"/>
<text text-anchor="middle" x="269.23" y="-610.3" font-family="Times-Roman" font-size="14.00">Common Public License 1.0</text>
</g>
<!-- CPL 1.0(5) -->
<g id="node6" class="node">
<title>CPL 1.0(5)</title>
<ellipse fill="white" stroke="white" cx="269.23" cy="-554" rx="44.69" ry="18"/>
<text text-anchor="middle" x="269.23" y="-550.3" font-family="Times-Roman" font-size="14.00">CPL 1.0</text>
</g>
<!-- CPL&#45;1.0(5) -->
<g id="node7" class="node">
<title>CPL&#45;1.0(5)</title>
<ellipse fill="springgreen" stroke="springgreen" cx="269.23" cy="-500" rx="45.49" ry="18"/>
<text text-anchor="middle" x="269.23" y="-496.3" font-family="Times-Roman" font-size="14.00">CPL&#45;1.0</text>
</g>
<!-- scancode://cpl&#45;1.0(5) -->
<g id="node8" class="node">
<title>scancode://cpl&#45;1.0(5)</title>
<ellipse fill="white" stroke="white" cx="269.23" cy="-446" rx="92.88" ry="18"/>
<text text-anchor="middle" x="269.23" y="-442.3" font-family="Times-Roman" font-size="14.00">scancode://cpl&#45;1.0</text>
</g>
<!-- CPL(6) -->
<g id="node9" class="node">
<title>CPL(6)</title>
<ellipse fill="white" stroke="white" cx="269.23" cy="-386" rx="27.1" ry="18"/>
<text text-anchor="middle" x="269.23" y="-382.3" font-family="Times-Roman" font-size="14.00">CPL</text>
</g>
<!-- CPL&#45;1.0(6) -->
<g id="node10" class="node">
<title>CPL&#45;1.0(6)</title>
<ellipse fill="springgreen" stroke="springgreen" cx="269.23" cy="-332" rx="45.49" ry="18"/>
<text text-anchor="middle" x="269.23" y="-328.3" font-family="Times-Roman" font-size="14.00">CPL&#45;1.0</text>
</g>
<!-- Common Public License, Version 1.0(6) -->
<g id="node11" class="node">
<title>Common Public License, Version 1.0(6)</title>
<ellipse fill="white" stroke="white" cx="269.23" cy="-278" rx="174.37" ry="18"/>
<text text-anchor="middle" x="269.23" y="-274.3" font-family="Times-Roman" font-size="14.00">Common Public License, Version 1.0</text>
</g>
<!-- License :: OSI Approved :: Common Public License(6) -->
<g id="node12" class="node">
<title>License :: OSI Approved :: Common Public License(6)</title>
<ellipse fill="white" stroke="white" cx="269.23" cy="-224" rx="237.46" ry="18"/>
<text text-anchor="middle" x="269.23" y="-220.3" font-family="Times-Roman" font-size="14.00">License :: OSI Approved :: Common Public License</text>
</g>
<!-- CPL&#45;1.0(7) -->
<g id="node13" class="node">
<title>CPL&#45;1.0(7)</title>
<ellipse fill="springgreen" stroke="springgreen" cx="269.23" cy="-164" rx="45.49" ry="18"/>
<text text-anchor="middle" x="269.23" y="-160.3" font-family="Times-Roman" font-size="14.00">CPL&#45;1.0</text>
</g>
<!-- Common Public License 1.0(7) -->
<g id="node14" class="node">
<title>Common Public License 1.0(7)</title>
<ellipse fill="white" stroke="white" cx="269.23" cy="-110" rx="135.38" ry="18"/>
<text text-anchor="middle" x="269.23" y="-106.3" font-family="Times-Roman" font-size="14.00">Common Public License 1.0</text>
</g>
<!-- Common Public License Version 1.0(8) -->
<g id="node15" class="node">
<title>Common Public License Version 1.0(8)</title>
<ellipse fill="white" stroke="white" cx="269.23" cy="-42" rx="170.87" ry="18"/>
<text text-anchor="middle" x="269.23" y="-38.3" font-family="Times-Roman" font-size="14.00">Common Public License Version 1.0</text>
</g>
</g>
</svg>
