<?xml version="1.0" encoding="UTF-8" standalone="no"?>
<!DOCTYPE svg PUBLIC "-//W3C//DTD SVG 1.1//EN"
 "http://www.w3.org/Graphics/SVG/1.1/DTD/svg11.dtd">
<!-- Generated by graphviz version 2.43.0 (0)
 -->
<!-- Title: CPOL&#45;1.02 Pages: 1 -->
<svg width="927pt" height="98pt"
 viewBox="0.00 0.00 927.00 98.43" xmlns="http://www.w3.org/2000/svg" xmlns:xlink="http://www.w3.org/1999/xlink">
<g id="graph0" class="graph" transform="scale(1 1) rotate(0) translate(4 94.43)">
<title>CPOL&#45;1.02</title>
<polygon fill="white" stroke="transparent" points="-4,4 -4,-94.43 923,-94.43 923,4 -4,4"/>
<g id="clust1" class="cluster">
<title>cluster_0</title>
<polygon fill="none" stroke="black" points="8,-8 8,-82.43 911,-82.43 911,-8 8,-8"/>
</g>
<g id="clust2" class="cluster">
<title>cluster_1</title>
<polygon fill="lightgray" stroke="lightgray" points="715,-16 715,-74.43 903,-74.43 903,-16 715,-16"/>
</g>
<g id="clust3" class="cluster">
<title>cluster_2</title>
<polygon fill="lightgray" stroke="lightgray" points="383,-19.21 383,-71.21 707,-71.21 707,-19.21 383,-19.21"/>
</g>
<g id="clust4" class="cluster">
<title>cluster_3</title>
<polygon fill="lightgray" stroke="lightgray" points="16,-19.21 16,-71.21 375,-71.21 375,-19.21 16,-19.21"/>
</g>
<!-- CPOL&#45;1.02 -->
<g id="node1" class="node">
<title>CPOL&#45;1.02</title>
<ellipse fill="springgreen" stroke="springgreen" cx="809" cy="-45.21" rx="85.62" ry="21.43"/>
<text text-anchor="middle" x="809" y="-40.21" font-family="Times-Roman" font-size="20.00">CPOL&#45;1.02</text>
</g>
<!-- Code Project Open License 1.02 -->
<g id="node2" class="node">
<title>Code Project Open License 1.02</title>
<ellipse fill="white" stroke="white" cx="545" cy="-45.21" rx="154.07" ry="18"/>
<text text-anchor="middle" x="545" y="-41.51" font-family="Times-Roman" font-size="14.00">Code Project Open License 1.02</text>
</g>
<!-- CPOL 1.02 -->
<g id="node3" class="node">
<title>CPOL 1.02</title>
<ellipse fill="white" stroke="white" cx="309" cy="-45.21" rx="57.69" ry="18"/>
<text text-anchor="middle" x="309" y="-41.51" font-family="Times-Roman" font-size="14.00">CPOL 1.02</text>
</g>
<!-- scancode://cpol&#45;1.02 -->
<g id="node4" class="node">
<title>scancode://cpol&#45;1.02</title>
<ellipse fill="white" stroke="white" cx="129" cy="-45.21" rx="104.78" ry="18"/>
<text text-anchor="middle" x="129" y="-41.51" font-family="Times-Roman" font-size="14.00">scancode://cpol&#45;1.02</text>
</g>
</g>
</svg>
