<?xml version="1.0" encoding="UTF-8" standalone="no"?>
<!DOCTYPE svg PUBLIC "-//W3C//DTD SVG 1.1//EN"
 "http://www.w3.org/Graphics/SVG/1.1/DTD/svg11.dtd">
<!-- Generated by graphviz version 2.47.3 (0)
 -->
<!-- Title: Crossword Pages: 1 -->
<svg width="229pt" height="488pt"
 viewBox="0.00 0.00 228.88 488.00" xmlns="http://www.w3.org/2000/svg" xmlns:xlink="http://www.w3.org/1999/xlink">
<g id="graph0" class="graph" transform="scale(1 1) rotate(0) translate(4 484)">
<title>Crossword</title>
<polygon fill="white" stroke="transparent" points="-4,4 -4,-484 224.88,-484 224.88,4 -4,4"/>
<g id="clust1" class="cluster">
<title>cluster_0</title>
<polygon fill="none" stroke="black" points="8,-8 8,-472 212.88,-472 212.88,-8 8,-8"/>
</g>
<g id="clust2" class="cluster">
<title>cluster_1</title>
<polygon fill="lightgray" stroke="lightgray" points="53.7,-412 53.7,-464 167.19,-464 167.19,-412 53.7,-412"/>
</g>
<g id="clust3" class="cluster">
<title>cluster_2</title>
<polygon fill="lightgray" stroke="lightgray" points="23.8,-298 23.8,-404 197.09,-404 197.09,-298 23.8,-298"/>
</g>
<g id="clust4" class="cluster">
<title>cluster_3</title>
<polygon fill="lightgray" stroke="lightgray" points="23.8,-184 23.8,-290 197.09,-290 197.09,-184 23.8,-184"/>
</g>
<g id="clust5" class="cluster">
<title>cluster_4</title>
<polygon fill="lightgray" stroke="lightgray" points="16,-16 16,-176 204.88,-176 204.88,-16 16,-16"/>
</g>
<!-- Crossword(1) -->
<g id="node1" class="node">
<title>Crossword(1)</title>
<ellipse fill="springgreen" stroke="springgreen" cx="110.44" cy="-438" rx="48.99" ry="18"/>
<text text-anchor="middle" x="110.44" y="-434.3" font-family="Times,serif" font-size="14.00">Crossword</text>
</g>
<!-- Crossword(2) -->
<g id="node2" class="node">
<title>Crossword(2)</title>
<ellipse fill="springgreen" stroke="springgreen" cx="110.44" cy="-378" rx="48.99" ry="18"/>
<text text-anchor="middle" x="110.44" y="-374.3" font-family="Times,serif" font-size="14.00">Crossword</text>
</g>
<!-- Crossword License(2) -->
<g id="node3" class="node">
<title>Crossword License(2)</title>
<ellipse fill="white" stroke="white" cx="110.44" cy="-324" rx="78.79" ry="18"/>
<text text-anchor="middle" x="110.44" y="-320.3" font-family="Times,serif" font-size="14.00">Crossword License</text>
</g>
<!-- Crossword(3) -->
<g id="node4" class="node">
<title>Crossword(3)</title>
<ellipse fill="springgreen" stroke="springgreen" cx="110.44" cy="-264" rx="48.99" ry="18"/>
<text text-anchor="middle" x="110.44" y="-260.3" font-family="Times,serif" font-size="14.00">Crossword</text>
</g>
<!-- Crossword License(3) -->
<g id="node5" class="node">
<title>Crossword License(3)</title>
<ellipse fill="white" stroke="white" cx="110.44" cy="-210" rx="78.79" ry="18"/>
<text text-anchor="middle" x="110.44" y="-206.3" font-family="Times,serif" font-size="14.00">Crossword License</text>
</g>
<!-- Crossword(4) -->
<g id="node6" class="node">
<title>Crossword(4)</title>
<ellipse fill="springgreen" stroke="springgreen" cx="110.44" cy="-150" rx="48.99" ry="18"/>
<text text-anchor="middle" x="110.44" y="-146.3" font-family="Times,serif" font-size="14.00">Crossword</text>
</g>
<!-- Crossword License(4) -->
<g id="node7" class="node">
<title>Crossword License(4)</title>
<ellipse fill="white" stroke="white" cx="110.44" cy="-96" rx="78.79" ry="18"/>
<text text-anchor="middle" x="110.44" y="-92.3" font-family="Times,serif" font-size="14.00">Crossword License</text>
</g>
<!-- scancode://crossword(4) -->
<g id="node8" class="node">
<title>scancode://crossword(4)</title>
<ellipse fill="white" stroke="white" cx="110.44" cy="-42" rx="86.38" ry="18"/>
<text text-anchor="middle" x="110.44" y="-38.3" font-family="Times,serif" font-size="14.00">scancode://crossword</text>
</g>
</g>
</svg>
