<?xml version="1.0" encoding="UTF-8" standalone="no"?>
<!DOCTYPE svg PUBLIC "-//W3C//DTD SVG 1.1//EN"
 "http://www.w3.org/Graphics/SVG/1.1/DTD/svg11.dtd">
<!-- Generated by graphviz version 2.43.0 (0)
 -->
<!-- Title: Crossword Pages: 1 -->
<svg width="1919pt" height="98pt"
 viewBox="0.00 0.00 1919.00 98.43" xmlns="http://www.w3.org/2000/svg" xmlns:xlink="http://www.w3.org/1999/xlink">
<g id="graph0" class="graph" transform="scale(1 1) rotate(0) translate(4 94.43)">
<title>Crossword</title>
<polygon fill="white" stroke="transparent" points="-4,4 -4,-94.43 1915,-94.43 1915,4 -4,4"/>
<g id="clust1" class="cluster">
<title>cluster_0</title>
<polygon fill="none" stroke="black" points="8,-8 8,-82.43 1903,-82.43 1903,-8 8,-8"/>
</g>
<g id="clust2" class="cluster">
<title>cluster_1</title>
<polygon fill="lightgray" stroke="lightgray" points="1669,-16 1669,-74.43 1895,-74.43 1895,-16 1669,-16"/>
</g>
<g id="clust3" class="cluster">
<title>cluster_2</title>
<polygon fill="lightgray" stroke="lightgray" points="1204,-16 1204,-74.43 1661,-74.43 1661,-16 1204,-16"/>
</g>
<g id="clust4" class="cluster">
<title>cluster_3</title>
<polygon fill="lightgray" stroke="lightgray" points="739,-16 739,-74.43 1196,-74.43 1196,-16 739,-16"/>
</g>
<g id="clust5" class="cluster">
<title>cluster_4</title>
<polygon fill="lightgray" stroke="lightgray" points="16,-16 16,-74.43 731,-74.43 731,-16 16,-16"/>
</g>
<!-- Crossword(1) -->
<g id="node1" class="node">
<title>Crossword(1)</title>
<ellipse fill="springgreen" stroke="springgreen" cx="1782" cy="-45.21" rx="104.8" ry="21.43"/>
<text text-anchor="middle" x="1782" y="-40.21" font-family="Times-Roman" font-size="20.00">Crossword(1)</text>
</g>
<!-- Crossword(2) -->
<g id="node2" class="node">
<title>Crossword(2)</title>
<ellipse fill="springgreen" stroke="springgreen" cx="1548" cy="-45.21" rx="104.8" ry="21.43"/>
<text text-anchor="middle" x="1548" y="-40.21" font-family="Times-Roman" font-size="20.00">Crossword(2)</text>
</g>
<!-- Crossword License(2) -->
<g id="node3" class="node">
<title>Crossword License(2)</title>
<ellipse fill="white" stroke="white" cx="1319" cy="-45.21" rx="106.68" ry="18"/>
<text text-anchor="middle" x="1319" y="-41.51" font-family="Times-Roman" font-size="14.00">Crossword License(2)</text>
</g>
<!-- Crossword(3) -->
<g id="node4" class="node">
<title>Crossword(3)</title>
<ellipse fill="springgreen" stroke="springgreen" cx="1083" cy="-45.21" rx="104.8" ry="21.43"/>
<text text-anchor="middle" x="1083" y="-40.21" font-family="Times-Roman" font-size="20.00">Crossword(3)</text>
</g>
<!-- Crossword License(3) -->
<g id="node5" class="node">
<title>Crossword License(3)</title>
<ellipse fill="white" stroke="white" cx="854" cy="-45.21" rx="106.68" ry="18"/>
<text text-anchor="middle" x="854" y="-41.51" font-family="Times-Roman" font-size="14.00">Crossword License(3)</text>
</g>
<!-- Crossword(4) -->
<g id="node6" class="node">
<title>Crossword(4)</title>
<ellipse fill="springgreen" stroke="springgreen" cx="618" cy="-45.21" rx="104.8" ry="21.43"/>
<text text-anchor="middle" x="618" y="-40.21" font-family="Times-Roman" font-size="20.00">Crossword(4)</text>
</g>
<!-- Crossword License(4) -->
<g id="node7" class="node">
<title>Crossword License(4)</title>
<ellipse fill="white" stroke="white" cx="389" cy="-45.21" rx="106.68" ry="18"/>
<text text-anchor="middle" x="389" y="-41.51" font-family="Times-Roman" font-size="14.00">Crossword License(4)</text>
</g>
<!-- scancode://crossword(4) -->
<g id="node8" class="node">
<title>scancode://crossword(4)</title>
<ellipse fill="white" stroke="white" cx="144" cy="-45.21" rx="120.48" ry="18"/>
<text text-anchor="middle" x="144" y="-41.51" font-family="Times-Roman" font-size="14.00">scancode://crossword(4)</text>
</g>
</g>
</svg>
