<?xml version="1.0" encoding="UTF-8" standalone="no"?>
<!DOCTYPE svg PUBLIC "-//W3C//DTD SVG 1.1//EN"
 "http://www.w3.org/Graphics/SVG/1.1/DTD/svg11.dtd">
<!-- Generated by graphviz version 2.43.0 (0)
 -->
<!-- Title: Crossword Pages: 1 -->
<svg width="244pt" height="320pt"
 viewBox="0.00 0.00 244.48 320.00" xmlns="http://www.w3.org/2000/svg" xmlns:xlink="http://www.w3.org/1999/xlink">
<g id="graph0" class="graph" transform="scale(1 1) rotate(0) translate(4 316)">
<title>Crossword</title>
<polygon fill="white" stroke="transparent" points="-4,4 -4,-316 240.48,-316 240.48,4 -4,4"/>
<g id="clust1" class="cluster">
<title>cluster_0</title>
<polygon fill="none" stroke="black" points="8,-8 8,-304 228.48,-304 228.48,-8 8,-8"/>
</g>
<g id="clust2" class="cluster">
<title>cluster_1</title>
<polygon fill="lightgray" stroke="lightgray" points="52.4,-244 52.4,-296 184.09,-296 184.09,-244 52.4,-244"/>
</g>
<g id="clust3" class="cluster">
<title>cluster_2</title>
<polygon fill="lightgray" stroke="lightgray" points="16,-130 16,-236 220.48,-236 220.48,-130 16,-130"/>
</g>
<g id="clust4" class="cluster">
<title>cluster_3</title>
<polygon fill="lightgray" stroke="lightgray" points="16,-16 16,-122 220.48,-122 220.48,-16 16,-16"/>
</g>
<!-- Crossword(1) -->
<g id="node1" class="node">
<title>Crossword(1)</title>
<ellipse fill="springgreen" stroke="springgreen" cx="118.24" cy="-270" rx="57.69" ry="18"/>
<text text-anchor="middle" x="118.24" y="-266.3" font-family="Times-Roman" font-size="14.00">Crossword</text>
</g>
<!-- Crossword(2) -->
<g id="node2" class="node">
<title>Crossword(2)</title>
<ellipse fill="springgreen" stroke="springgreen" cx="118.24" cy="-210" rx="57.69" ry="18"/>
<text text-anchor="middle" x="118.24" y="-206.3" font-family="Times-Roman" font-size="14.00">Crossword</text>
</g>
<!-- Crossword License(2) -->
<g id="node3" class="node">
<title>Crossword License(2)</title>
<ellipse fill="white" stroke="white" cx="118.24" cy="-156" rx="94.48" ry="18"/>
<text text-anchor="middle" x="118.24" y="-152.3" font-family="Times-Roman" font-size="14.00">Crossword License</text>
</g>
<!-- Crossword(3) -->
<g id="node4" class="node">
<title>Crossword(3)</title>
<ellipse fill="springgreen" stroke="springgreen" cx="118.24" cy="-96" rx="57.69" ry="18"/>
<text text-anchor="middle" x="118.24" y="-92.3" font-family="Times-Roman" font-size="14.00">Crossword</text>
</g>
<!-- Crossword License(3) -->
<g id="node5" class="node">
<title>Crossword License(3)</title>
<ellipse fill="white" stroke="white" cx="118.24" cy="-42" rx="94.48" ry="18"/>
<text text-anchor="middle" x="118.24" y="-38.3" font-family="Times-Roman" font-size="14.00">Crossword License</text>
</g>
</g>
</svg>
