<?xml version="1.0" encoding="UTF-8" standalone="no"?>
<!DOCTYPE svg PUBLIC "-//W3C//DTD SVG 1.1//EN"
 "http://www.w3.org/Graphics/SVG/1.1/DTD/svg11.dtd">
<!-- Generated by graphviz version 2.49.3 (0)
 -->
<!-- Title: CrystalStacker Pages: 1 -->
<svg width="259pt" height="602pt"
 viewBox="0.00 0.00 258.78 602.00" xmlns="http://www.w3.org/2000/svg" xmlns:xlink="http://www.w3.org/1999/xlink">
<g id="graph0" class="graph" transform="scale(1 1) rotate(0) translate(4 598)">
<title>CrystalStacker</title>
<polygon fill="white" stroke="transparent" points="-4,4 -4,-598 254.78,-598 254.78,4 -4,4"/>
<g id="clust1" class="cluster">
<title>cluster_0</title>
<polygon fill="none" stroke="black" points="8,-8 8,-586 242.78,-586 242.78,-8 8,-8"/>
</g>
<g id="clust2" class="cluster">
<title>cluster_1</title>
<polygon fill="lightgray" stroke="lightgray" points="55,-526 55,-578 195.79,-578 195.79,-526 55,-526"/>
</g>
<g id="clust3" class="cluster">
<title>cluster_2</title>
<polygon fill="lightgray" stroke="lightgray" points="25.1,-412 25.1,-518 225.68,-518 225.68,-412 25.1,-412"/>
</g>
<g id="clust4" class="cluster">
<title>cluster_3</title>
<polygon fill="lightgray" stroke="lightgray" points="25.1,-298 25.1,-404 225.68,-404 225.68,-298 25.1,-298"/>
</g>
<g id="clust5" class="cluster">
<title>cluster_4</title>
<polygon fill="lightgray" stroke="lightgray" points="25.1,-184 25.1,-290 225.68,-290 225.68,-184 25.1,-184"/>
</g>
<g id="clust6" class="cluster">
<title>cluster_5</title>
<polygon fill="lightgray" stroke="lightgray" points="16,-16 16,-176 234.78,-176 234.78,-16 16,-16"/>
</g>
<!-- CrystalStacker(1) -->
<g id="node1" class="node">
<title>CrystalStacker(1)</title>
<ellipse fill="springgreen" stroke="springgreen" cx="125.39" cy="-552" rx="62.29" ry="18"/>
<text text-anchor="middle" x="125.39" y="-548.3" font-family="Times,serif" font-size="14.00">CrystalStacker</text>
</g>
<!-- CrystalStacker(2) -->
<g id="node2" class="node">
<title>CrystalStacker(2)</title>
<ellipse fill="springgreen" stroke="springgreen" cx="125.39" cy="-492" rx="62.29" ry="18"/>
<text text-anchor="middle" x="125.39" y="-488.3" font-family="Times,serif" font-size="14.00">CrystalStacker</text>
</g>
<!-- CrystalStacker License(2) -->
<g id="node3" class="node">
<title>CrystalStacker License(2)</title>
<ellipse fill="white" stroke="white" cx="125.39" cy="-438" rx="92.08" ry="18"/>
<text text-anchor="middle" x="125.39" y="-434.3" font-family="Times,serif" font-size="14.00">CrystalStacker License</text>
</g>
<!-- CrystalStacker(3) -->
<g id="node4" class="node">
<title>CrystalStacker(3)</title>
<ellipse fill="springgreen" stroke="springgreen" cx="125.39" cy="-378" rx="62.29" ry="18"/>
<text text-anchor="middle" x="125.39" y="-374.3" font-family="Times,serif" font-size="14.00">CrystalStacker</text>
</g>
<!-- CrystalStacker License(3) -->
<g id="node5" class="node">
<title>CrystalStacker License(3)</title>
<ellipse fill="white" stroke="white" cx="125.39" cy="-324" rx="92.08" ry="18"/>
<text text-anchor="middle" x="125.39" y="-320.3" font-family="Times,serif" font-size="14.00">CrystalStacker License</text>
</g>
<!-- CrystalStacker(4) -->
<g id="node6" class="node">
<title>CrystalStacker(4)</title>
<ellipse fill="springgreen" stroke="springgreen" cx="125.39" cy="-264" rx="62.29" ry="18"/>
<text text-anchor="middle" x="125.39" y="-260.3" font-family="Times,serif" font-size="14.00">CrystalStacker</text>
</g>
<!-- CrystalStacker License(4) -->
<g id="node7" class="node">
<title>CrystalStacker License(4)</title>
<ellipse fill="white" stroke="white" cx="125.39" cy="-210" rx="92.08" ry="18"/>
<text text-anchor="middle" x="125.39" y="-206.3" font-family="Times,serif" font-size="14.00">CrystalStacker License</text>
</g>
<!-- Crystal Stacker License(5) -->
<g id="node8" class="node">
<title>Crystal Stacker License(5)</title>
<ellipse fill="white" stroke="white" cx="125.39" cy="-150" rx="94.78" ry="18"/>
<text text-anchor="middle" x="125.39" y="-146.3" font-family="Times,serif" font-size="14.00">Crystal Stacker License</text>
</g>
<!-- CrystalStacker(5) -->
<g id="node9" class="node">
<title>CrystalStacker(5)</title>
<ellipse fill="springgreen" stroke="springgreen" cx="125.39" cy="-96" rx="62.29" ry="18"/>
<text text-anchor="middle" x="125.39" y="-92.3" font-family="Times,serif" font-size="14.00">CrystalStacker</text>
</g>
<!-- scancode://crystal&#45;stacker(5) -->
<g id="node10" class="node">
<title>scancode://crystal&#45;stacker(5)</title>
<ellipse fill="white" stroke="white" cx="125.39" cy="-42" rx="101.28" ry="18"/>
<text text-anchor="middle" x="125.39" y="-38.3" font-family="Times,serif" font-size="14.00">scancode://crystal&#45;stacker</text>
</g>
</g>
</svg>
