<?xml version="1.0" encoding="UTF-8" standalone="no"?>
<!DOCTYPE svg PUBLIC "-//W3C//DTD SVG 1.1//EN"
 "http://www.w3.org/Graphics/SVG/1.1/DTD/svg11.dtd">
<!-- Generated by graphviz version 2.43.0 (0)
 -->
<!-- Title: CrystalStacker Pages: 1 -->
<svg width="986pt" height="92pt"
 viewBox="0.00 0.00 986.00 92.00" xmlns="http://www.w3.org/2000/svg" xmlns:xlink="http://www.w3.org/1999/xlink">
<g id="graph0" class="graph" transform="scale(1 1) rotate(0) translate(4 88)">
<title>CrystalStacker</title>
<polygon fill="white" stroke="transparent" points="-4,4 -4,-88 982,-88 982,4 -4,4"/>
<g id="clust1" class="cluster">
<title>cluster_0</title>
<polygon fill="none" stroke="black" points="8,-8 8,-76 970,-76 970,-8 8,-8"/>
</g>
<g id="clust2" class="cluster">
<title>cluster_1</title>
<polygon fill="lightgray" stroke="lightgray" points="794,-16 794,-68 962,-68 962,-16 794,-16"/>
</g>
<g id="clust3" class="cluster">
<title>cluster_2</title>
<polygon fill="lightgray" stroke="lightgray" points="546,-16 546,-68 786,-68 786,-16 546,-16"/>
</g>
<g id="clust5" class="cluster">
<title>cluster_4</title>
<polygon fill="lightgray" stroke="lightgray" points="16,-16 16,-68 538,-68 538,-16 16,-16"/>
</g>
<!-- CrystalStacker -->
<g id="node1" class="node">
<title>CrystalStacker</title>
<ellipse fill="white" stroke="white" cx="878" cy="-42" rx="76.09" ry="18"/>
<text text-anchor="middle" x="878" y="-38.3" font-family="Times-Roman" font-size="14.00">CrystalStacker</text>
</g>
<!-- CrystalStacker License -->
<g id="node2" class="node">
<title>CrystalStacker License</title>
<ellipse fill="white" stroke="white" cx="666" cy="-42" rx="112.38" ry="18"/>
<text text-anchor="middle" x="666" y="-38.3" font-family="Times-Roman" font-size="14.00">CrystalStacker License</text>
</g>
<!-- Crystal Stacker License -->
<g id="node3" class="node">
<title>Crystal Stacker License</title>
<ellipse fill="white" stroke="white" cx="414" cy="-42" rx="115.88" ry="18"/>
<text text-anchor="middle" x="414" y="-38.3" font-family="Times-Roman" font-size="14.00">Crystal Stacker License</text>
</g>
<!-- scancode://crystal&#45;stacker -->
<g id="node4" class="node">
<title>scancode://crystal&#45;stacker</title>
<ellipse fill="white" stroke="white" cx="152" cy="-42" rx="128.08" ry="18"/>
<text text-anchor="middle" x="152" y="-38.3" font-family="Times-Roman" font-size="14.00">scancode://crystal&#45;stacker</text>
</g>
</g>
</svg>
