<?xml version="1.0" encoding="UTF-8" standalone="no"?>
<!DOCTYPE svg PUBLIC "-//W3C//DTD SVG 1.1//EN"
 "http://www.w3.org/Graphics/SVG/1.1/DTD/svg11.dtd">
<!-- Generated by graphviz version 2.43.0 (0)
 -->
<!-- Title: curl Pages: 1 -->
<svg width="776pt" height="108pt"
 viewBox="0.00 0.00 776.00 108.00" xmlns="http://www.w3.org/2000/svg" xmlns:xlink="http://www.w3.org/1999/xlink">
<g id="graph0" class="graph" transform="scale(1 1) rotate(0) translate(4 104)">
<title>curl</title>
<polygon fill="white" stroke="transparent" points="-4,4 -4,-104 772,-104 772,4 -4,4"/>
<g id="clust1" class="cluster">
<title>cluster_0</title>
<polygon fill="none" stroke="black" points="8,-8 8,-92 760,-92 760,-8 8,-8"/>
</g>
<g id="clust2" class="cluster">
<title>cluster_1</title>
<polygon fill="none" stroke="black" points="172,-16 172,-84 752,-84 752,-16 172,-16"/>
</g>
<g id="clust3" class="cluster">
<title>cluster_2</title>
<polygon fill="lightgray" stroke="lightgray" points="672,-24 672,-76 744,-76 744,-24 672,-24"/>
</g>
<g id="clust4" class="cluster">
<title>cluster_3</title>
<polygon fill="lightgray" stroke="lightgray" points="520,-24 520,-76 664,-76 664,-24 520,-24"/>
</g>
<g id="clust6" class="cluster">
<title>cluster_5</title>
<polygon fill="lightgray" stroke="lightgray" points="180,-24 180,-76 512,-76 512,-24 180,-24"/>
</g>
<g id="clust7" class="cluster">
<title>cluster_6</title>
<polygon fill="lightgray" stroke="lightgray" points="16,-24 16,-76 164,-76 164,-24 16,-24"/>
</g>
<!-- curl -->
<g id="node1" class="node">
<title>curl</title>
<ellipse fill="white" stroke="white" cx="708" cy="-50" rx="27.9" ry="18"/>
<text text-anchor="middle" x="708" y="-46.3" font-family="Times-Roman" font-size="14.00">curl</text>
</g>
<!-- curl License -->
<g id="node2" class="node">
<title>curl License</title>
<ellipse fill="white" stroke="white" cx="592" cy="-50" rx="64.19" ry="18"/>
<text text-anchor="middle" x="592" y="-46.3" font-family="Times-Roman" font-size="14.00">curl License</text>
</g>
<!-- cURL License -->
<g id="node3" class="node">
<title>cURL License</title>
<ellipse fill="white" stroke="white" cx="434" cy="-50" rx="70.39" ry="18"/>
<text text-anchor="middle" x="434" y="-46.3" font-family="Times-Roman" font-size="14.00">cURL License</text>
</g>
<!-- scancode://curl -->
<g id="node4" class="node">
<title>scancode://curl</title>
<ellipse fill="white" stroke="white" cx="267" cy="-50" rx="79.09" ry="18"/>
<text text-anchor="middle" x="267" y="-46.3" font-family="Times-Roman" font-size="14.00">scancode://curl</text>
</g>
<!-- Curl License -->
<g id="node5" class="node">
<title>Curl License</title>
<ellipse fill="white" stroke="white" cx="90" cy="-50" rx="65.79" ry="18"/>
<text text-anchor="middle" x="90" y="-46.3" font-family="Times-Roman" font-size="14.00">Curl License</text>
</g>
</g>
</svg>
