<?xml version="1.0" encoding="UTF-8" standalone="no"?>
<!DOCTYPE svg PUBLIC "-//W3C//DTD SVG 1.1//EN"
 "http://www.w3.org/Graphics/SVG/1.1/DTD/svg11.dtd">
<!-- Generated by graphviz version 2.43.0 (0)
 -->
<!-- Title: D&#45;FSL&#45;1.0 Pages: 1 -->
<svg width="1317pt" height="92pt"
 viewBox="0.00 0.00 1317.00 92.00" xmlns="http://www.w3.org/2000/svg" xmlns:xlink="http://www.w3.org/1999/xlink">
<g id="graph0" class="graph" transform="scale(1 1) rotate(0) translate(4 88)">
<title>D&#45;FSL&#45;1.0</title>
<polygon fill="white" stroke="transparent" points="-4,4 -4,-88 1313,-88 1313,4 -4,4"/>
<g id="clust1" class="cluster">
<title>cluster_0</title>
<polygon fill="none" stroke="black" points="8,-8 8,-76 1301,-76 1301,-8 8,-8"/>
</g>
<g id="clust2" class="cluster">
<title>cluster_1</title>
<polygon fill="lightgray" stroke="lightgray" points="1167,-16 1167,-68 1293,-68 1293,-16 1167,-16"/>
</g>
<g id="clust3" class="cluster">
<title>cluster_2</title>
<polygon fill="lightgray" stroke="lightgray" points="715,-16 715,-68 1159,-68 1159,-16 715,-16"/>
</g>
<g id="clust4" class="cluster">
<title>cluster_3</title>
<polygon fill="lightgray" stroke="lightgray" points="16,-16 16,-68 707,-68 707,-16 16,-16"/>
</g>
<!-- D&#45;FSL&#45;1.0(1) -->
<g id="node1" class="node">
<title>D&#45;FSL&#45;1.0(1)</title>
<ellipse fill="springgreen" stroke="springgreen" cx="1230" cy="-42" rx="54.69" ry="18"/>
<text text-anchor="middle" x="1230" y="-38.3" font-family="Times-Roman" font-size="14.00">D&#45;FSL&#45;1.0</text>
</g>
<!-- D&#45;FSL&#45;1.0(2) -->
<g id="node2" class="node">
<title>D&#45;FSL&#45;1.0(2)</title>
<ellipse fill="springgreen" stroke="springgreen" cx="1096" cy="-42" rx="54.69" ry="18"/>
<text text-anchor="middle" x="1096" y="-38.3" font-family="Times-Roman" font-size="14.00">D&#45;FSL&#45;1.0</text>
</g>
<!-- Deutsche Freie Software Lizenz(2) -->
<g id="node3" class="node">
<title>Deutsche Freie Software Lizenz(2)</title>
<ellipse fill="white" stroke="white" cx="873" cy="-42" rx="150.27" ry="18"/>
<text text-anchor="middle" x="873" y="-38.3" font-family="Times-Roman" font-size="14.00">Deutsche Freie Software Lizenz</text>
</g>
<!-- D&#45;FSL&#45;1.0(3) -->
<g id="node4" class="node">
<title>D&#45;FSL&#45;1.0(3)</title>
<ellipse fill="springgreen" stroke="springgreen" cx="644" cy="-42" rx="54.69" ry="18"/>
<text text-anchor="middle" x="644" y="-38.3" font-family="Times-Roman" font-size="14.00">D&#45;FSL&#45;1.0</text>
</g>
<!-- Deutsche Freie Software Lizenz(3) -->
<g id="node5" class="node">
<title>Deutsche Freie Software Lizenz(3)</title>
<ellipse fill="white" stroke="white" cx="421" cy="-42" rx="150.27" ry="18"/>
<text text-anchor="middle" x="421" y="-38.3" font-family="Times-Roman" font-size="14.00">Deutsche Freie Software Lizenz</text>
</g>
<!-- scancode://d&#45;fsl&#45;1.0&#45;de(3) -->
<g id="node6" class="node">
<title>scancode://d&#45;fsl&#45;1.0&#45;de(3)</title>
<ellipse fill="white" stroke="white" cx="138" cy="-42" rx="114.28" ry="18"/>
<text text-anchor="middle" x="138" y="-38.3" font-family="Times-Roman" font-size="14.00">scancode://d&#45;fsl&#45;1.0&#45;de</text>
</g>
</g>
</svg>
