<?xml version="1.0" encoding="UTF-8" standalone="no"?>
<!DOCTYPE svg PUBLIC "-//W3C//DTD SVG 1.1//EN"
 "http://www.w3.org/Graphics/SVG/1.1/DTD/svg11.dtd">
<!-- Generated by graphviz version 2.43.0 (0)
 -->
<!-- Title: diffmark Pages: 1 -->
<svg width="256pt" height="488pt"
 viewBox="0.00 0.00 256.18 488.00" xmlns="http://www.w3.org/2000/svg" xmlns:xlink="http://www.w3.org/1999/xlink">
<g id="graph0" class="graph" transform="scale(1 1) rotate(0) translate(4 484)">
<title>diffmark</title>
<polygon fill="white" stroke="transparent" points="-4,4 -4,-484 252.18,-484 252.18,4 -4,4"/>
<g id="clust1" class="cluster">
<title>cluster_0</title>
<polygon fill="none" stroke="black" points="8,-8 8,-472 240.18,-472 240.18,-8 8,-8"/>
</g>
<g id="clust2" class="cluster">
<title>cluster_1</title>
<polygon fill="lightgray" stroke="lightgray" points="67.35,-412 67.35,-464 180.84,-464 180.84,-412 67.35,-412"/>
</g>
<g id="clust3" class="cluster">
<title>cluster_2</title>
<polygon fill="lightgray" stroke="lightgray" points="32.9,-298 32.9,-404 215.28,-404 215.28,-298 32.9,-298"/>
</g>
<g id="clust4" class="cluster">
<title>cluster_3</title>
<polygon fill="lightgray" stroke="lightgray" points="32.9,-184 32.9,-290 215.28,-290 215.28,-184 32.9,-184"/>
</g>
<g id="clust5" class="cluster">
<title>cluster_4</title>
<polygon fill="lightgray" stroke="lightgray" points="16,-16 16,-176 232.18,-176 232.18,-16 16,-16"/>
</g>
<!-- diffmark(1) -->
<g id="node1" class="node">
<title>diffmark(1)</title>
<ellipse fill="springgreen" stroke="springgreen" cx="124.09" cy="-438" rx="48.99" ry="18"/>
<text text-anchor="middle" x="124.09" y="-434.3" font-family="Times-Roman" font-size="14.00">diffmark</text>
</g>
<!-- diffmark(2) -->
<g id="node2" class="node">
<title>diffmark(2)</title>
<ellipse fill="springgreen" stroke="springgreen" cx="124.09" cy="-378" rx="48.99" ry="18"/>
<text text-anchor="middle" x="124.09" y="-374.3" font-family="Times-Roman" font-size="14.00">diffmark</text>
</g>
<!-- diffmark license(2) -->
<g id="node3" class="node">
<title>diffmark license(2)</title>
<ellipse fill="white" stroke="white" cx="124.09" cy="-324" rx="83.39" ry="18"/>
<text text-anchor="middle" x="124.09" y="-320.3" font-family="Times-Roman" font-size="14.00">diffmark license</text>
</g>
<!-- diffmark(3) -->
<g id="node4" class="node">
<title>diffmark(3)</title>
<ellipse fill="springgreen" stroke="springgreen" cx="124.09" cy="-264" rx="48.99" ry="18"/>
<text text-anchor="middle" x="124.09" y="-260.3" font-family="Times-Roman" font-size="14.00">diffmark</text>
</g>
<!-- diffmark license(3) -->
<g id="node5" class="node">
<title>diffmark license(3)</title>
<ellipse fill="white" stroke="white" cx="124.09" cy="-210" rx="83.39" ry="18"/>
<text text-anchor="middle" x="124.09" y="-206.3" font-family="Times-Roman" font-size="14.00">diffmark license</text>
</g>
<!-- diffmark(4) -->
<g id="node6" class="node">
<title>diffmark(4)</title>
<ellipse fill="springgreen" stroke="springgreen" cx="124.09" cy="-150" rx="48.99" ry="18"/>
<text text-anchor="middle" x="124.09" y="-146.3" font-family="Times-Roman" font-size="14.00">diffmark</text>
</g>
<!-- diffmark License(4) -->
<g id="node7" class="node">
<title>diffmark License(4)</title>
<ellipse fill="white" stroke="white" cx="124.09" cy="-96" rx="85.29" ry="18"/>
<text text-anchor="middle" x="124.09" y="-92.3" font-family="Times-Roman" font-size="14.00">diffmark License</text>
</g>
<!-- scancode://diffmark(4) -->
<g id="node8" class="node">
<title>scancode://diffmark(4)</title>
<ellipse fill="white" stroke="white" cx="124.09" cy="-42" rx="100.18" ry="18"/>
<text text-anchor="middle" x="124.09" y="-38.3" font-family="Times-Roman" font-size="14.00">scancode://diffmark</text>
</g>
</g>
</svg>
