<?xml version="1.0" encoding="UTF-8" standalone="no"?>
<!DOCTYPE svg PUBLIC "-//W3C//DTD SVG 1.1//EN"
 "http://www.w3.org/Graphics/SVG/1.1/DTD/svg11.dtd">
<!-- Generated by graphviz version 2.43.0 (0)
 -->
<!-- Title: diffmark Pages: 1 -->
<svg width="222pt" height="320pt"
 viewBox="0.00 0.00 222.39 320.00" xmlns="http://www.w3.org/2000/svg" xmlns:xlink="http://www.w3.org/1999/xlink">
<g id="graph0" class="graph" transform="scale(1 1) rotate(0) translate(4 316)">
<title>diffmark</title>
<polygon fill="white" stroke="transparent" points="-4,4 -4,-316 218.39,-316 218.39,4 -4,4"/>
<g id="clust1" class="cluster">
<title>cluster_0</title>
<polygon fill="none" stroke="black" points="8,-8 8,-304 206.39,-304 206.39,-8 8,-8"/>
</g>
<g id="clust2" class="cluster">
<title>cluster_1</title>
<polygon fill="lightgray" stroke="lightgray" points="50.45,-244 50.45,-296 163.94,-296 163.94,-244 50.45,-244"/>
</g>
<g id="clust3" class="cluster">
<title>cluster_2</title>
<polygon fill="lightgray" stroke="lightgray" points="16,-130 16,-236 198.39,-236 198.39,-130 16,-130"/>
</g>
<g id="clust4" class="cluster">
<title>cluster_3</title>
<polygon fill="lightgray" stroke="lightgray" points="16,-16 16,-122 198.39,-122 198.39,-16 16,-16"/>
</g>
<!-- diffmark(1) -->
<g id="node1" class="node">
<title>diffmark(1)</title>
<ellipse fill="springgreen" stroke="springgreen" cx="107.19" cy="-270" rx="48.99" ry="18"/>
<text text-anchor="middle" x="107.19" y="-266.3" font-family="Times-Roman" font-size="14.00">diffmark</text>
</g>
<!-- diffmark(2) -->
<g id="node2" class="node">
<title>diffmark(2)</title>
<ellipse fill="springgreen" stroke="springgreen" cx="107.19" cy="-210" rx="48.99" ry="18"/>
<text text-anchor="middle" x="107.19" y="-206.3" font-family="Times-Roman" font-size="14.00">diffmark</text>
</g>
<!-- diffmark license(2) -->
<g id="node3" class="node">
<title>diffmark license(2)</title>
<ellipse fill="white" stroke="white" cx="107.19" cy="-156" rx="83.39" ry="18"/>
<text text-anchor="middle" x="107.19" y="-152.3" font-family="Times-Roman" font-size="14.00">diffmark license</text>
</g>
<!-- diffmark(3) -->
<g id="node4" class="node">
<title>diffmark(3)</title>
<ellipse fill="springgreen" stroke="springgreen" cx="107.19" cy="-96" rx="48.99" ry="18"/>
<text text-anchor="middle" x="107.19" y="-92.3" font-family="Times-Roman" font-size="14.00">diffmark</text>
</g>
<!-- diffmark license(3) -->
<g id="node5" class="node">
<title>diffmark license(3)</title>
<ellipse fill="white" stroke="white" cx="107.19" cy="-42" rx="83.39" ry="18"/>
<text text-anchor="middle" x="107.19" y="-38.3" font-family="Times-Roman" font-size="14.00">diffmark license</text>
</g>
</g>
</svg>
