<?xml version="1.0" encoding="UTF-8" standalone="no"?>
<!DOCTYPE svg PUBLIC "-//W3C//DTD SVG 1.1//EN"
 "http://www.w3.org/Graphics/SVG/1.1/DTD/svg11.dtd">
<!-- Generated by graphviz version 2.43.0 (0)
 -->
<!-- Title: DOC Pages: 1 -->
<svg width="246pt" height="488pt"
 viewBox="0.00 0.00 245.78 488.00" xmlns="http://www.w3.org/2000/svg" xmlns:xlink="http://www.w3.org/1999/xlink">
<g id="graph0" class="graph" transform="scale(1 1) rotate(0) translate(4 484)">
<title>DOC</title>
<polygon fill="white" stroke="transparent" points="-4,4 -4,-484 241.78,-484 241.78,4 -4,4"/>
<g id="clust1" class="cluster">
<title>cluster_0</title>
<polygon fill="none" stroke="black" points="8,-8 8,-472 229.78,-472 229.78,-8 8,-8"/>
</g>
<g id="clust2" class="cluster">
<title>cluster_1</title>
<polygon fill="lightgray" stroke="lightgray" points="79.69,-412 79.69,-464 158.09,-464 158.09,-412 79.69,-412"/>
</g>
<g id="clust3" class="cluster">
<title>cluster_2</title>
<polygon fill="lightgray" stroke="lightgray" points="43.3,-298 43.3,-404 194.49,-404 194.49,-298 43.3,-298"/>
</g>
<g id="clust4" class="cluster">
<title>cluster_3</title>
<polygon fill="lightgray" stroke="lightgray" points="43.3,-184 43.3,-290 194.49,-290 194.49,-184 43.3,-184"/>
</g>
<g id="clust5" class="cluster">
<title>cluster_4</title>
<polygon fill="lightgray" stroke="lightgray" points="16,-16 16,-176 221.78,-176 221.78,-16 16,-16"/>
</g>
<!-- DOC(1) -->
<g id="node1" class="node">
<title>DOC(1)</title>
<ellipse fill="springgreen" stroke="springgreen" cx="118.89" cy="-438" rx="31.4" ry="18"/>
<text text-anchor="middle" x="118.89" y="-434.3" font-family="Times-Roman" font-size="14.00">DOC</text>
</g>
<!-- DOC(2) -->
<g id="node2" class="node">
<title>DOC(2)</title>
<ellipse fill="springgreen" stroke="springgreen" cx="118.89" cy="-378" rx="31.4" ry="18"/>
<text text-anchor="middle" x="118.89" y="-374.3" font-family="Times-Roman" font-size="14.00">DOC</text>
</g>
<!-- DOC License(2) -->
<g id="node3" class="node">
<title>DOC License(2)</title>
<ellipse fill="white" stroke="white" cx="118.89" cy="-324" rx="67.69" ry="18"/>
<text text-anchor="middle" x="118.89" y="-320.3" font-family="Times-Roman" font-size="14.00">DOC License</text>
</g>
<!-- DOC(3) -->
<g id="node4" class="node">
<title>DOC(3)</title>
<ellipse fill="springgreen" stroke="springgreen" cx="118.89" cy="-264" rx="31.4" ry="18"/>
<text text-anchor="middle" x="118.89" y="-260.3" font-family="Times-Roman" font-size="14.00">DOC</text>
</g>
<!-- DOC License(3) -->
<g id="node5" class="node">
<title>DOC License(3)</title>
<ellipse fill="white" stroke="white" cx="118.89" cy="-210" rx="67.69" ry="18"/>
<text text-anchor="middle" x="118.89" y="-206.3" font-family="Times-Roman" font-size="14.00">DOC License</text>
</g>
<!-- ACE TAO License(4) -->
<g id="node6" class="node">
<title>ACE TAO License(4)</title>
<ellipse fill="white" stroke="white" cx="118.89" cy="-150" rx="86.38" ry="18"/>
<text text-anchor="middle" x="118.89" y="-146.3" font-family="Times-Roman" font-size="14.00">ACE TAO License</text>
</g>
<!-- DOC(4) -->
<g id="node7" class="node">
<title>DOC(4)</title>
<ellipse fill="springgreen" stroke="springgreen" cx="118.89" cy="-96" rx="31.4" ry="18"/>
<text text-anchor="middle" x="118.89" y="-92.3" font-family="Times-Roman" font-size="14.00">DOC</text>
</g>
<!-- scancode://ace&#45;tao(4) -->
<g id="node8" class="node">
<title>scancode://ace&#45;tao(4)</title>
<ellipse fill="white" stroke="white" cx="118.89" cy="-42" rx="94.78" ry="18"/>
<text text-anchor="middle" x="118.89" y="-38.3" font-family="Times-Roman" font-size="14.00">scancode://ace&#45;tao</text>
</g>
</g>
</svg>
