<?xml version="1.0" encoding="UTF-8" standalone="no"?>
<!DOCTYPE svg PUBLIC "-//W3C//DTD SVG 1.1//EN"
 "http://www.w3.org/Graphics/SVG/1.1/DTD/svg11.dtd">
<!-- Generated by graphviz version 2.43.0 (0)
 -->
<!-- Title: DSDP Pages: 1 -->
<svg width="1475pt" height="98pt"
 viewBox="0.00 0.00 1475.00 98.43" xmlns="http://www.w3.org/2000/svg" xmlns:xlink="http://www.w3.org/1999/xlink">
<g id="graph0" class="graph" transform="scale(1 1) rotate(0) translate(4 94.43)">
<title>DSDP</title>
<polygon fill="white" stroke="transparent" points="-4,4 -4,-94.43 1471,-94.43 1471,4 -4,4"/>
<g id="clust1" class="cluster">
<title>cluster_0</title>
<polygon fill="none" stroke="black" points="8,-8 8,-82.43 1459,-82.43 1459,-8 8,-8"/>
</g>
<g id="clust2" class="cluster">
<title>cluster_1</title>
<polygon fill="lightgray" stroke="lightgray" points="1293,-16 1293,-74.43 1451,-74.43 1451,-16 1293,-16"/>
</g>
<g id="clust3" class="cluster">
<title>cluster_2</title>
<polygon fill="lightgray" stroke="lightgray" points="938,-16 938,-74.43 1285,-74.43 1285,-16 938,-16"/>
</g>
<g id="clust4" class="cluster">
<title>cluster_3</title>
<polygon fill="lightgray" stroke="lightgray" points="583,-16 583,-74.43 930,-74.43 930,-16 583,-16"/>
</g>
<g id="clust5" class="cluster">
<title>cluster_4</title>
<polygon fill="lightgray" stroke="lightgray" points="16,-16 16,-74.43 575,-74.43 575,-16 16,-16"/>
</g>
<!-- DSDP(1) -->
<g id="node1" class="node">
<title>DSDP(1)</title>
<ellipse fill="springgreen" stroke="springgreen" cx="1372" cy="-45.21" rx="71.34" ry="21.43"/>
<text text-anchor="middle" x="1372" y="-40.21" font-family="Times-Roman" font-size="20.00">DSDP(1)</text>
</g>
<!-- DSDP(2) -->
<g id="node2" class="node">
<title>DSDP(2)</title>
<ellipse fill="springgreen" stroke="springgreen" cx="1206" cy="-45.21" rx="71.34" ry="21.43"/>
<text text-anchor="middle" x="1206" y="-40.21" font-family="Times-Roman" font-size="20.00">DSDP(2)</text>
</g>
<!-- DSDP License(2) -->
<g id="node3" class="node">
<title>DSDP License(2)</title>
<ellipse fill="white" stroke="white" cx="1031" cy="-45.21" rx="85.29" ry="18"/>
<text text-anchor="middle" x="1031" y="-41.51" font-family="Times-Roman" font-size="14.00">DSDP License(2)</text>
</g>
<!-- DSDP(3) -->
<g id="node4" class="node">
<title>DSDP(3)</title>
<ellipse fill="springgreen" stroke="springgreen" cx="851" cy="-45.21" rx="71.34" ry="21.43"/>
<text text-anchor="middle" x="851" y="-40.21" font-family="Times-Roman" font-size="20.00">DSDP(3)</text>
</g>
<!-- DSDP License(3) -->
<g id="node5" class="node">
<title>DSDP License(3)</title>
<ellipse fill="white" stroke="white" cx="676" cy="-45.21" rx="85.29" ry="18"/>
<text text-anchor="middle" x="676" y="-41.51" font-family="Times-Roman" font-size="14.00">DSDP License(3)</text>
</g>
<!-- DSDP(4) -->
<g id="node6" class="node">
<title>DSDP(4)</title>
<ellipse fill="springgreen" stroke="springgreen" cx="496" cy="-45.21" rx="71.34" ry="21.43"/>
<text text-anchor="middle" x="496" y="-40.21" font-family="Times-Roman" font-size="20.00">DSDP(4)</text>
</g>
<!-- DSDP License(4) -->
<g id="node7" class="node">
<title>DSDP License(4)</title>
<ellipse fill="white" stroke="white" cx="321" cy="-45.21" rx="85.29" ry="18"/>
<text text-anchor="middle" x="321" y="-41.51" font-family="Times-Roman" font-size="14.00">DSDP License(4)</text>
</g>
<!-- scancode://dsdp(4) -->
<g id="node8" class="node">
<title>scancode://dsdp(4)</title>
<ellipse fill="white" stroke="white" cx="121" cy="-45.21" rx="96.68" ry="18"/>
<text text-anchor="middle" x="121" y="-41.51" font-family="Times-Roman" font-size="14.00">scancode://dsdp(4)</text>
</g>
</g>
</svg>
