<?xml version="1.0" encoding="UTF-8" standalone="no"?>
<!DOCTYPE svg PUBLIC "-//W3C//DTD SVG 1.1//EN"
 "http://www.w3.org/Graphics/SVG/1.1/DTD/svg11.dtd">
<!-- Generated by graphviz version 2.43.0 (0)
 -->
<!-- Title: ECL&#45;1.0 Pages: 1 -->
<svg width="412pt" height="602pt"
 viewBox="0.00 0.00 412.17 602.00" xmlns="http://www.w3.org/2000/svg" xmlns:xlink="http://www.w3.org/1999/xlink">
<g id="graph0" class="graph" transform="scale(1 1) rotate(0) translate(4 598)">
<title>ECL&#45;1.0</title>
<polygon fill="white" stroke="transparent" points="-4,4 -4,-598 408.17,-598 408.17,4 -4,4"/>
<g id="clust1" class="cluster">
<title>cluster_0</title>
<polygon fill="none" stroke="black" points="8,-8 8,-586 396.17,-586 396.17,-8 8,-8"/>
</g>
<g id="clust2" class="cluster">
<title>cluster_1</title>
<polygon fill="lightgray" stroke="lightgray" points="147.94,-526 147.94,-578 256.23,-578 256.23,-526 147.94,-526"/>
</g>
<g id="clust3" class="cluster">
<title>cluster_2</title>
<polygon fill="lightgray" stroke="lightgray" points="16,-412 16,-518 388.17,-518 388.17,-412 16,-412"/>
</g>
<g id="clust4" class="cluster">
<title>cluster_3</title>
<polygon fill="lightgray" stroke="lightgray" points="16,-298 16,-404 388.17,-404 388.17,-298 16,-298"/>
</g>
<g id="clust5" class="cluster">
<title>cluster_4</title>
<polygon fill="lightgray" stroke="lightgray" points="101.14,-130 101.14,-290 303.03,-290 303.03,-130 101.14,-130"/>
</g>
<g id="clust6" class="cluster">
<title>cluster_5</title>
<polygon fill="lightgray" stroke="lightgray" points="21.2,-16 21.2,-122 382.97,-122 382.97,-16 21.2,-16"/>
</g>
<!-- ECL&#45;1.0(1) -->
<g id="node1" class="node">
<title>ECL&#45;1.0(1)</title>
<ellipse fill="springgreen" stroke="springgreen" cx="202.08" cy="-552" rx="46.29" ry="18"/>
<text text-anchor="middle" x="202.08" y="-548.3" font-family="Times-Roman" font-size="14.00">ECL&#45;1.0</text>
</g>
<!-- ECL&#45;1.0(2) -->
<g id="node2" class="node">
<title>ECL&#45;1.0(2)</title>
<ellipse fill="springgreen" stroke="springgreen" cx="202.08" cy="-492" rx="46.29" ry="18"/>
<text text-anchor="middle" x="202.08" y="-488.3" font-family="Times-Roman" font-size="14.00">ECL&#45;1.0</text>
</g>
<!-- Educational Community License v1.0(2) -->
<g id="node3" class="node">
<title>Educational Community License v1.0(2)</title>
<ellipse fill="white" stroke="white" cx="202.08" cy="-438" rx="178.17" ry="18"/>
<text text-anchor="middle" x="202.08" y="-434.3" font-family="Times-Roman" font-size="14.00">Educational Community License v1.0</text>
</g>
<!-- ECL&#45;1.0(3) -->
<g id="node4" class="node">
<title>ECL&#45;1.0(3)</title>
<ellipse fill="springgreen" stroke="springgreen" cx="202.08" cy="-378" rx="46.29" ry="18"/>
<text text-anchor="middle" x="202.08" y="-374.3" font-family="Times-Roman" font-size="14.00">ECL&#45;1.0</text>
</g>
<!-- Educational Community License v1.0(3) -->
<g id="node5" class="node">
<title>Educational Community License v1.0(3)</title>
<ellipse fill="white" stroke="white" cx="202.08" cy="-324" rx="178.17" ry="18"/>
<text text-anchor="middle" x="202.08" y="-320.3" font-family="Times-Roman" font-size="14.00">Educational Community License v1.0</text>
</g>
<!-- ECL 1.0(4) -->
<g id="node6" class="node">
<title>ECL 1.0(4)</title>
<ellipse fill="white" stroke="white" cx="202.08" cy="-264" rx="45.49" ry="18"/>
<text text-anchor="middle" x="202.08" y="-260.3" font-family="Times-Roman" font-size="14.00">ECL 1.0</text>
</g>
<!-- ECL&#45;1.0(4) -->
<g id="node7" class="node">
<title>ECL&#45;1.0(4)</title>
<ellipse fill="springgreen" stroke="springgreen" cx="202.08" cy="-210" rx="46.29" ry="18"/>
<text text-anchor="middle" x="202.08" y="-206.3" font-family="Times-Roman" font-size="14.00">ECL&#45;1.0</text>
</g>
<!-- scancode://ecl&#45;1.0(4) -->
<g id="node8" class="node">
<title>scancode://ecl&#45;1.0(4)</title>
<ellipse fill="white" stroke="white" cx="202.08" cy="-156" rx="92.88" ry="18"/>
<text text-anchor="middle" x="202.08" y="-152.3" font-family="Times-Roman" font-size="14.00">scancode://ecl&#45;1.0</text>
</g>
<!-- ECL&#45;1.0(5) -->
<g id="node9" class="node">
<title>ECL&#45;1.0(5)</title>
<ellipse fill="springgreen" stroke="springgreen" cx="202.08" cy="-96" rx="46.29" ry="18"/>
<text text-anchor="middle" x="202.08" y="-92.3" font-family="Times-Roman" font-size="14.00">ECL&#45;1.0</text>
</g>
<!-- Educational Community License 1.0(5) -->
<g id="node10" class="node">
<title>Educational Community License 1.0(5)</title>
<ellipse fill="white" stroke="white" cx="202.08" cy="-42" rx="172.77" ry="18"/>
<text text-anchor="middle" x="202.08" y="-38.3" font-family="Times-Roman" font-size="14.00">Educational Community License 1.0</text>
</g>
</g>
</svg>
