<?xml version="1.0" encoding="UTF-8" standalone="no"?>
<!DOCTYPE svg PUBLIC "-//W3C//DTD SVG 1.1//EN"
 "http://www.w3.org/Graphics/SVG/1.1/DTD/svg11.dtd">
<!-- Generated by graphviz version 2.43.0 (0)
 -->
<!-- Title: EFL&#45;1.0 Pages: 1 -->
<svg width="394pt" height="434pt"
 viewBox="0.00 0.00 393.97 434.00" xmlns="http://www.w3.org/2000/svg" xmlns:xlink="http://www.w3.org/1999/xlink">
<g id="graph0" class="graph" transform="scale(1 1) rotate(0) translate(4 430)">
<title>EFL&#45;1.0</title>
<polygon fill="white" stroke="transparent" points="-4,4 -4,-430 389.97,-430 389.97,4 -4,4"/>
<g id="clust1" class="cluster">
<title>cluster_0</title>
<polygon fill="none" stroke="black" points="8,-8 8,-418 377.97,-418 377.97,-8 8,-8"/>
</g>
<g id="clust2" class="cluster">
<title>cluster_1</title>
<polygon fill="lightgray" stroke="lightgray" points="140.14,-358 140.14,-410 245.83,-410 245.83,-358 140.14,-358"/>
</g>
<g id="clust3" class="cluster">
<title>cluster_2</title>
<polygon fill="lightgray" stroke="lightgray" points="60.85,-244 60.85,-350 325.12,-350 325.12,-244 60.85,-244"/>
</g>
<g id="clust4" class="cluster">
<title>cluster_3</title>
<polygon fill="lightgray" stroke="lightgray" points="16,-130 16,-236 369.97,-236 369.97,-130 16,-130"/>
</g>
<g id="clust5" class="cluster">
<title>cluster_4</title>
<polygon fill="lightgray" stroke="lightgray" points="60.85,-16 60.85,-122 325.12,-122 325.12,-16 60.85,-16"/>
</g>
<!-- EFL&#45;1.0(1) -->
<g id="node1" class="node">
<title>EFL&#45;1.0(1)</title>
<ellipse fill="springgreen" stroke="springgreen" cx="192.99" cy="-384" rx="44.69" ry="18"/>
<text text-anchor="middle" x="192.99" y="-380.3" font-family="Times-Roman" font-size="14.00">EFL&#45;1.0</text>
</g>
<!-- EFL&#45;1.0(2) -->
<g id="node2" class="node">
<title>EFL&#45;1.0(2)</title>
<ellipse fill="springgreen" stroke="springgreen" cx="192.99" cy="-324" rx="44.69" ry="18"/>
<text text-anchor="middle" x="192.99" y="-320.3" font-family="Times-Roman" font-size="14.00">EFL&#45;1.0</text>
</g>
<!-- Eiffel Forum License v1.0(2) -->
<g id="node3" class="node">
<title>Eiffel Forum License v1.0(2)</title>
<ellipse fill="white" stroke="white" cx="192.99" cy="-270" rx="124.28" ry="18"/>
<text text-anchor="middle" x="192.99" y="-266.3" font-family="Times-Roman" font-size="14.00">Eiffel Forum License v1.0</text>
</g>
<!-- EFL&#45;1.0(3) -->
<g id="node4" class="node">
<title>EFL&#45;1.0(3)</title>
<ellipse fill="springgreen" stroke="springgreen" cx="192.99" cy="-210" rx="44.69" ry="18"/>
<text text-anchor="middle" x="192.99" y="-206.3" font-family="Times-Roman" font-size="14.00">EFL&#45;1.0</text>
</g>
<!-- The Eiffel Forum License, Version 1(3) -->
<g id="node5" class="node">
<title>The Eiffel Forum License, Version 1(3)</title>
<ellipse fill="white" stroke="white" cx="192.99" cy="-156" rx="168.97" ry="18"/>
<text text-anchor="middle" x="192.99" y="-152.3" font-family="Times-Roman" font-size="14.00">The Eiffel Forum License, Version 1</text>
</g>
<!-- EFL&#45;1.0(4) -->
<g id="node6" class="node">
<title>EFL&#45;1.0(4)</title>
<ellipse fill="springgreen" stroke="springgreen" cx="192.99" cy="-96" rx="44.69" ry="18"/>
<text text-anchor="middle" x="192.99" y="-92.3" font-family="Times-Roman" font-size="14.00">EFL&#45;1.0</text>
</g>
<!-- Eiffel Forum License v1.0(4) -->
<g id="node7" class="node">
<title>Eiffel Forum License v1.0(4)</title>
<ellipse fill="white" stroke="white" cx="192.99" cy="-42" rx="124.28" ry="18"/>
<text text-anchor="middle" x="192.99" y="-38.3" font-family="Times-Roman" font-size="14.00">Eiffel Forum License v1.0</text>
</g>
</g>
</svg>
