<?xml version="1.0" encoding="UTF-8" standalone="no"?>
<!DOCTYPE svg PUBLIC "-//W3C//DTD SVG 1.1//EN"
 "http://www.w3.org/Graphics/SVG/1.1/DTD/svg11.dtd">
<!-- Generated by graphviz version 2.43.0 (0)
 -->
<!-- Title: Entessa Pages: 1 -->
<svg width="328pt" height="716pt"
 viewBox="0.00 0.00 327.68 716.00" xmlns="http://www.w3.org/2000/svg" xmlns:xlink="http://www.w3.org/1999/xlink">
<g id="graph0" class="graph" transform="scale(1 1) rotate(0) translate(4 712)">
<title>Entessa</title>
<polygon fill="white" stroke="transparent" points="-4,4 -4,-712 323.68,-712 323.68,4 -4,4"/>
<g id="clust1" class="cluster">
<title>cluster_0</title>
<polygon fill="none" stroke="black" points="8,-8 8,-700 311.68,-700 311.68,-8 8,-8"/>
</g>
<g id="clust2" class="cluster">
<title>cluster_1</title>
<polygon fill="lightgray" stroke="lightgray" points="105.69,-640 105.69,-692 213.98,-692 213.98,-640 105.69,-640"/>
</g>
<g id="clust3" class="cluster">
<title>cluster_2</title>
<polygon fill="lightgray" stroke="lightgray" points="16,-526 16,-632 303.68,-632 303.68,-526 16,-526"/>
</g>
<g id="clust4" class="cluster">
<title>cluster_3</title>
<polygon fill="lightgray" stroke="lightgray" points="16,-412 16,-518 303.68,-518 303.68,-412 16,-412"/>
</g>
<g id="clust5" class="cluster">
<title>cluster_4</title>
<polygon fill="lightgray" stroke="lightgray" points="36.8,-244 36.8,-404 282.88,-404 282.88,-244 36.8,-244"/>
</g>
<g id="clust6" class="cluster">
<title>cluster_5</title>
<polygon fill="lightgray" stroke="lightgray" points="21.85,-130 21.85,-236 297.83,-236 297.83,-130 21.85,-130"/>
</g>
<g id="clust7" class="cluster">
<title>cluster_6</title>
<polygon fill="lightgray" stroke="lightgray" points="39.4,-16 39.4,-122 280.28,-122 280.28,-16 39.4,-16"/>
</g>
<!-- Entessa(1) -->
<g id="node1" class="node">
<title>Entessa(1)</title>
<ellipse fill="springgreen" stroke="springgreen" cx="159.84" cy="-666" rx="46.29" ry="18"/>
<text text-anchor="middle" x="159.84" y="-662.3" font-family="Times-Roman" font-size="14.00">Entessa</text>
</g>
<!-- Entessa(2) -->
<g id="node2" class="node">
<title>Entessa(2)</title>
<ellipse fill="springgreen" stroke="springgreen" cx="159.84" cy="-606" rx="46.29" ry="18"/>
<text text-anchor="middle" x="159.84" y="-602.3" font-family="Times-Roman" font-size="14.00">Entessa</text>
</g>
<!-- Entessa Public License v1.0(2) -->
<g id="node3" class="node">
<title>Entessa Public License v1.0(2)</title>
<ellipse fill="white" stroke="white" cx="159.84" cy="-552" rx="135.68" ry="18"/>
<text text-anchor="middle" x="159.84" y="-548.3" font-family="Times-Roman" font-size="14.00">Entessa Public License v1.0</text>
</g>
<!-- Entessa(3) -->
<g id="node4" class="node">
<title>Entessa(3)</title>
<ellipse fill="springgreen" stroke="springgreen" cx="159.84" cy="-492" rx="46.29" ry="18"/>
<text text-anchor="middle" x="159.84" y="-488.3" font-family="Times-Roman" font-size="14.00">Entessa</text>
</g>
<!-- Entessa Public License v1.0(3) -->
<g id="node5" class="node">
<title>Entessa Public License v1.0(3)</title>
<ellipse fill="white" stroke="white" cx="159.84" cy="-438" rx="135.68" ry="18"/>
<text text-anchor="middle" x="159.84" y="-434.3" font-family="Times-Roman" font-size="14.00">Entessa Public License v1.0</text>
</g>
<!-- Entessa(4) -->
<g id="node6" class="node">
<title>Entessa(4)</title>
<ellipse fill="springgreen" stroke="springgreen" cx="159.84" cy="-378" rx="46.29" ry="18"/>
<text text-anchor="middle" x="159.84" y="-374.3" font-family="Times-Roman" font-size="14.00">Entessa</text>
</g>
<!-- Entessa 1.0(4) -->
<g id="node7" class="node">
<title>Entessa 1.0(4)</title>
<ellipse fill="white" stroke="white" cx="159.84" cy="-324" rx="63.89" ry="18"/>
<text text-anchor="middle" x="159.84" y="-320.3" font-family="Times-Roman" font-size="14.00">Entessa 1.0</text>
</g>
<!-- scancode://entessa&#45;1.0(4) -->
<g id="node8" class="node">
<title>scancode://entessa&#45;1.0(4)</title>
<ellipse fill="white" stroke="white" cx="159.84" cy="-270" rx="115.08" ry="18"/>
<text text-anchor="middle" x="159.84" y="-266.3" font-family="Times-Roman" font-size="14.00">scancode://entessa&#45;1.0</text>
</g>
<!-- Entessa(5) -->
<g id="node9" class="node">
<title>Entessa(5)</title>
<ellipse fill="springgreen" stroke="springgreen" cx="159.84" cy="-210" rx="46.29" ry="18"/>
<text text-anchor="middle" x="159.84" y="-206.3" font-family="Times-Roman" font-size="14.00">Entessa</text>
</g>
<!-- Entessa Public License 1.0(5) -->
<g id="node10" class="node">
<title>Entessa Public License 1.0(5)</title>
<ellipse fill="white" stroke="white" cx="159.84" cy="-156" rx="129.98" ry="18"/>
<text text-anchor="middle" x="159.84" y="-152.3" font-family="Times-Roman" font-size="14.00">Entessa Public License 1.0</text>
</g>
<!-- Entessa(6) -->
<g id="node11" class="node">
<title>Entessa(6)</title>
<ellipse fill="springgreen" stroke="springgreen" cx="159.84" cy="-96" rx="46.29" ry="18"/>
<text text-anchor="middle" x="159.84" y="-92.3" font-family="Times-Roman" font-size="14.00">Entessa</text>
</g>
<!-- Entessa Public License(6) -->
<g id="node12" class="node">
<title>Entessa Public License(6)</title>
<ellipse fill="white" stroke="white" cx="159.84" cy="-42" rx="112.38" ry="18"/>
<text text-anchor="middle" x="159.84" y="-38.3" font-family="Times-Roman" font-size="14.00">Entessa Public License</text>
</g>
</g>
</svg>
