<?xml version="1.0" encoding="UTF-8" standalone="no"?>
<!DOCTYPE svg PUBLIC "-//W3C//DTD SVG 1.1//EN"
 "http://www.w3.org/Graphics/SVG/1.1/DTD/svg11.dtd">
<!-- Generated by graphviz version 2.43.0 (0)
 -->
<!-- Title: EPICS Pages: 1 -->
<svg width="257pt" height="374pt"
 viewBox="0.00 0.00 257.48 374.00" xmlns="http://www.w3.org/2000/svg" xmlns:xlink="http://www.w3.org/1999/xlink">
<g id="graph0" class="graph" transform="scale(1 1) rotate(0) translate(4 370)">
<title>EPICS</title>
<polygon fill="white" stroke="transparent" points="-4,4 -4,-370 253.48,-370 253.48,4 -4,4"/>
<g id="clust1" class="cluster">
<title>cluster_0</title>
<polygon fill="none" stroke="black" points="8,-8 8,-358 241.48,-358 241.48,-8 8,-8"/>
</g>
<g id="clust2" class="cluster">
<title>cluster_1</title>
<polygon fill="lightgray" stroke="lightgray" points="79.69,-298 79.69,-350 169.79,-350 169.79,-298 79.69,-298"/>
</g>
<g id="clust3" class="cluster">
<title>cluster_2</title>
<polygon fill="lightgray" stroke="lightgray" points="16,-184 16,-290 233.48,-290 233.48,-184 16,-184"/>
</g>
<g id="clust4" class="cluster">
<title>cluster_3</title>
<polygon fill="lightgray" stroke="lightgray" points="16,-16 16,-176 233.48,-176 233.48,-16 16,-16"/>
</g>
<!-- EPICS(1) -->
<g id="node1" class="node">
<title>EPICS(1)</title>
<ellipse fill="springgreen" stroke="springgreen" cx="124.74" cy="-324" rx="37.09" ry="18"/>
<text text-anchor="middle" x="124.74" y="-320.3" font-family="Times-Roman" font-size="14.00">EPICS</text>
</g>
<!-- EPICS(2) -->
<g id="node2" class="node">
<title>EPICS(2)</title>
<ellipse fill="springgreen" stroke="springgreen" cx="124.74" cy="-264" rx="37.09" ry="18"/>
<text text-anchor="middle" x="124.74" y="-260.3" font-family="Times-Roman" font-size="14.00">EPICS</text>
</g>
<!-- EPICS Open License(2) -->
<g id="node3" class="node">
<title>EPICS Open License(2)</title>
<ellipse fill="white" stroke="white" cx="124.74" cy="-210" rx="100.98" ry="18"/>
<text text-anchor="middle" x="124.74" y="-206.3" font-family="Times-Roman" font-size="14.00">EPICS Open License</text>
</g>
<!-- EPICS(3) -->
<g id="node4" class="node">
<title>EPICS(3)</title>
<ellipse fill="springgreen" stroke="springgreen" cx="124.74" cy="-150" rx="37.09" ry="18"/>
<text text-anchor="middle" x="124.74" y="-146.3" font-family="Times-Roman" font-size="14.00">EPICS</text>
</g>
<!-- EPICS Open License(3) -->
<g id="node5" class="node">
<title>EPICS Open License(3)</title>
<ellipse fill="white" stroke="white" cx="124.74" cy="-96" rx="100.98" ry="18"/>
<text text-anchor="middle" x="124.74" y="-92.3" font-family="Times-Roman" font-size="14.00">EPICS Open License</text>
</g>
<!-- scancode://epics(3) -->
<g id="node6" class="node">
<title>scancode://epics(3)</title>
<ellipse fill="white" stroke="white" cx="124.74" cy="-42" rx="85.29" ry="18"/>
<text text-anchor="middle" x="124.74" y="-38.3" font-family="Times-Roman" font-size="14.00">scancode://epics</text>
</g>
</g>
</svg>
