<?xml version="1.0" encoding="UTF-8" standalone="no"?>
<!DOCTYPE svg PUBLIC "-//W3C//DTD SVG 1.1//EN"
 "http://www.w3.org/Graphics/SVG/1.1/DTD/svg11.dtd">
<!-- Generated by graphviz version 2.47.3 (0)
 -->
<!-- Title: EPICS Pages: 1 -->
<svg width="228pt" height="374pt"
 viewBox="0.00 0.00 227.58 374.00" xmlns="http://www.w3.org/2000/svg" xmlns:xlink="http://www.w3.org/1999/xlink">
<g id="graph0" class="graph" transform="scale(1 1) rotate(0) translate(4 370)">
<title>EPICS</title>
<polygon fill="white" stroke="transparent" points="-4,4 -4,-370 223.58,-370 223.58,4 -4,4"/>
<g id="clust1" class="cluster">
<title>cluster_0</title>
<polygon fill="none" stroke="black" points="8,-8 8,-358 211.58,-358 211.58,-8 8,-8"/>
</g>
<g id="clust2" class="cluster">
<title>cluster_1</title>
<polygon fill="lightgray" stroke="lightgray" points="67.35,-298 67.35,-350 152.24,-350 152.24,-298 67.35,-298"/>
</g>
<g id="clust3" class="cluster">
<title>cluster_2</title>
<polygon fill="lightgray" stroke="lightgray" points="16,-184 16,-290 203.58,-290 203.58,-184 16,-184"/>
</g>
<g id="clust4" class="cluster">
<title>cluster_3</title>
<polygon fill="lightgray" stroke="lightgray" points="16,-16 16,-176 203.58,-176 203.58,-16 16,-16"/>
</g>
<!-- EPICS(1) -->
<g id="node1" class="node">
<title>EPICS(1)</title>
<ellipse fill="springgreen" stroke="springgreen" cx="109.79" cy="-324" rx="34.39" ry="18"/>
<text text-anchor="middle" x="109.79" y="-320.3" font-family="Times,serif" font-size="14.00">EPICS</text>
</g>
<!-- EPICS(2) -->
<g id="node2" class="node">
<title>EPICS(2)</title>
<ellipse fill="springgreen" stroke="springgreen" cx="109.79" cy="-264" rx="34.39" ry="18"/>
<text text-anchor="middle" x="109.79" y="-260.3" font-family="Times,serif" font-size="14.00">EPICS</text>
</g>
<!-- EPICS Open License(2) -->
<g id="node3" class="node">
<title>EPICS Open License(2)</title>
<ellipse fill="white" stroke="white" cx="109.79" cy="-210" rx="85.59" ry="18"/>
<text text-anchor="middle" x="109.79" y="-206.3" font-family="Times,serif" font-size="14.00">EPICS Open License</text>
</g>
<!-- EPICS(3) -->
<g id="node4" class="node">
<title>EPICS(3)</title>
<ellipse fill="springgreen" stroke="springgreen" cx="109.79" cy="-150" rx="34.39" ry="18"/>
<text text-anchor="middle" x="109.79" y="-146.3" font-family="Times,serif" font-size="14.00">EPICS</text>
</g>
<!-- EPICS Open License(3) -->
<g id="node5" class="node">
<title>EPICS Open License(3)</title>
<ellipse fill="white" stroke="white" cx="109.79" cy="-96" rx="85.59" ry="18"/>
<text text-anchor="middle" x="109.79" y="-92.3" font-family="Times,serif" font-size="14.00">EPICS Open License</text>
</g>
<!-- scancode://epics(3) -->
<g id="node6" class="node">
<title>scancode://epics(3)</title>
<ellipse fill="white" stroke="white" cx="109.79" cy="-42" rx="68.49" ry="18"/>
<text text-anchor="middle" x="109.79" y="-38.3" font-family="Times,serif" font-size="14.00">scancode://epics</text>
</g>
</g>
</svg>
