<?xml version="1.0" encoding="UTF-8" standalone="no"?>
<!DOCTYPE svg PUBLIC "-//W3C//DTD SVG 1.1//EN"
 "http://www.w3.org/Graphics/SVG/1.1/DTD/svg11.dtd">
<!-- Generated by graphviz version 2.43.0 (0)
 -->
<!-- Title: EPL&#45;2.0 Pages: 1 -->
<svg width="3052pt" height="98pt"
 viewBox="0.00 0.00 3052.00 98.43" xmlns="http://www.w3.org/2000/svg" xmlns:xlink="http://www.w3.org/1999/xlink">
<g id="graph0" class="graph" transform="scale(1 1) rotate(0) translate(4 94.43)">
<title>EPL&#45;2.0</title>
<polygon fill="white" stroke="transparent" points="-4,4 -4,-94.43 3048,-94.43 3048,4 -4,4"/>
<g id="clust1" class="cluster">
<title>cluster_0</title>
<polygon fill="none" stroke="black" points="8,-8 8,-82.43 3036,-82.43 3036,-8 8,-8"/>
</g>
<g id="clust2" class="cluster">
<title>cluster_1</title>
<polygon fill="lightgray" stroke="lightgray" points="2844,-16 2844,-74.43 3028,-74.43 3028,-16 2844,-16"/>
</g>
<g id="clust3" class="cluster">
<title>cluster_2</title>
<polygon fill="lightgray" stroke="lightgray" points="2356,-16 2356,-74.43 2836,-74.43 2836,-16 2356,-16"/>
</g>
<g id="clust4" class="cluster">
<title>cluster_3</title>
<polygon fill="lightgray" stroke="lightgray" points="1800,-16 1800,-74.43 2348,-74.43 2348,-16 1800,-16"/>
</g>
<g id="clust5" class="cluster">
<title>cluster_4</title>
<polygon fill="lightgray" stroke="lightgray" points="1480,-16 1480,-74.43 1792,-74.43 1792,-16 1480,-16"/>
</g>
<g id="clust6" class="cluster">
<title>cluster_5</title>
<polygon fill="lightgray" stroke="lightgray" points="992,-16 992,-74.43 1472,-74.43 1472,-16 992,-16"/>
</g>
<g id="clust7" class="cluster">
<title>cluster_6</title>
<polygon fill="lightgray" stroke="lightgray" points="504,-16 504,-74.43 984,-74.43 984,-16 504,-16"/>
</g>
<g id="clust8" class="cluster">
<title>cluster_7</title>
<polygon fill="lightgray" stroke="lightgray" points="16,-16 16,-74.43 496,-74.43 496,-16 16,-16"/>
</g>
<!-- EPL&#45;2.0(1) -->
<g id="node1" class="node">
<title>EPL&#45;2.0(1)</title>
<ellipse fill="springgreen" stroke="springgreen" cx="2936" cy="-45.21" rx="84.29" ry="21.43"/>
<text text-anchor="middle" x="2936" y="-40.21" font-family="Times-Roman" font-size="20.00">EPL&#45;2.0(1)</text>
</g>
<!-- EPL&#45;2.0(2) -->
<g id="node2" class="node">
<title>EPL&#45;2.0(2)</title>
<ellipse fill="springgreen" stroke="springgreen" cx="2744" cy="-45.21" rx="84.29" ry="21.43"/>
<text text-anchor="middle" x="2744" y="-40.21" font-family="Times-Roman" font-size="20.00">EPL&#45;2.0(2)</text>
</g>
<!-- Eclipse Public License 2.0(2) -->
<g id="node3" class="node">
<title>Eclipse Public License 2.0(2)</title>
<ellipse fill="white" stroke="white" cx="2503" cy="-45.21" rx="139.18" ry="18"/>
<text text-anchor="middle" x="2503" y="-41.51" font-family="Times-Roman" font-size="14.00">Eclipse Public License 2.0(2)</text>
</g>
<!-- EPL 2.0(3) -->
<g id="node4" class="node">
<title>EPL 2.0(3)</title>
<ellipse fill="white" stroke="white" cx="2283" cy="-45.21" rx="57.39" ry="18"/>
<text text-anchor="middle" x="2283" y="-41.51" font-family="Times-Roman" font-size="14.00">EPL 2.0(3)</text>
</g>
<!-- EPL&#45;2.0(3) -->
<g id="node5" class="node">
<title>EPL&#45;2.0(3)</title>
<ellipse fill="springgreen" stroke="springgreen" cx="2124" cy="-45.21" rx="84.29" ry="21.43"/>
<text text-anchor="middle" x="2124" y="-40.21" font-family="Times-Roman" font-size="20.00">EPL&#45;2.0(3)</text>
</g>
<!-- scancode://epl&#45;2.0(3) -->
<g id="node6" class="node">
<title>scancode://epl&#45;2.0(3)</title>
<ellipse fill="white" stroke="white" cx="1915" cy="-45.21" rx="106.68" ry="18"/>
<text text-anchor="middle" x="1915" y="-41.51" font-family="Times-Roman" font-size="14.00">scancode://epl&#45;2.0(3)</text>
</g>
<!-- EPL&#45;2.0(4) -->
<g id="node7" class="node">
<title>EPL&#45;2.0(4)</title>
<ellipse fill="springgreen" stroke="springgreen" cx="1700" cy="-45.21" rx="84.29" ry="21.43"/>
<text text-anchor="middle" x="1700" y="-40.21" font-family="Times-Roman" font-size="20.00">EPL&#45;2.0(4)</text>
</g>
<!-- epl&#45;2.0(4) -->
<g id="node8" class="node">
<title>epl&#45;2.0(4)</title>
<ellipse fill="white" stroke="white" cx="1543" cy="-45.21" rx="55.49" ry="18"/>
<text text-anchor="middle" x="1543" y="-41.51" font-family="Times-Roman" font-size="14.00">epl&#45;2.0(4)</text>
</g>
<!-- EPL&#45;2.0(5) -->
<g id="node9" class="node">
<title>EPL&#45;2.0(5)</title>
<ellipse fill="springgreen" stroke="springgreen" cx="1380" cy="-45.21" rx="84.29" ry="21.43"/>
<text text-anchor="middle" x="1380" y="-40.21" font-family="Times-Roman" font-size="20.00">EPL&#45;2.0(5)</text>
</g>
<!-- Eclipse Public License 2.0(5) -->
<g id="node10" class="node">
<title>Eclipse Public License 2.0(5)</title>
<ellipse fill="white" stroke="white" cx="1139" cy="-45.21" rx="139.18" ry="18"/>
<text text-anchor="middle" x="1139" y="-41.51" font-family="Times-Roman" font-size="14.00">Eclipse Public License 2.0(5)</text>
</g>
<!-- EPL&#45;2.0(6) -->
<g id="node11" class="node">
<title>EPL&#45;2.0(6)</title>
<ellipse fill="springgreen" stroke="springgreen" cx="892" cy="-45.21" rx="84.29" ry="21.43"/>
<text text-anchor="middle" x="892" y="-40.21" font-family="Times-Roman" font-size="20.00">EPL&#45;2.0(6)</text>
</g>
<!-- Eclipse Public License 2.0(6) -->
<g id="node12" class="node">
<title>Eclipse Public License 2.0(6)</title>
<ellipse fill="white" stroke="white" cx="651" cy="-45.21" rx="139.18" ry="18"/>
<text text-anchor="middle" x="651" y="-41.51" font-family="Times-Roman" font-size="14.00">Eclipse Public License 2.0(6)</text>
</g>
<!-- EPL&#45;2.0(7) -->
<g id="node13" class="node">
<title>EPL&#45;2.0(7)</title>
<ellipse fill="springgreen" stroke="springgreen" cx="404" cy="-45.21" rx="84.29" ry="21.43"/>
<text text-anchor="middle" x="404" y="-40.21" font-family="Times-Roman" font-size="20.00">EPL&#45;2.0(7)</text>
</g>
<!-- Eclipse Public License 2.0(7) -->
<g id="node14" class="node">
<title>Eclipse Public License 2.0(7)</title>
<ellipse fill="white" stroke="white" cx="163" cy="-45.21" rx="139.18" ry="18"/>
<text text-anchor="middle" x="163" y="-41.51" font-family="Times-Roman" font-size="14.00">Eclipse Public License 2.0(7)</text>
</g>
</g>
</svg>
