<?xml version="1.0" encoding="UTF-8" standalone="no"?>
<!DOCTYPE svg PUBLIC "-//W3C//DTD SVG 1.1//EN"
 "http://www.w3.org/Graphics/SVG/1.1/DTD/svg11.dtd">
<!-- Generated by graphviz version 2.43.0 (0)
 -->
<!-- Title: EUPL&#45;1.2 Pages: 1 -->
<svg width="390pt" height="548pt"
 viewBox="0.00 0.00 390.07 548.00" xmlns="http://www.w3.org/2000/svg" xmlns:xlink="http://www.w3.org/1999/xlink">
<g id="graph0" class="graph" transform="scale(1 1) rotate(0) translate(4 544)">
<title>EUPL&#45;1.2</title>
<polygon fill="white" stroke="transparent" points="-4,4 -4,-544 386.07,-544 386.07,4 -4,4"/>
<g id="clust1" class="cluster">
<title>cluster_0</title>
<polygon fill="none" stroke="black" points="8,-8 8,-532 374.07,-532 374.07,-8 8,-8"/>
</g>
<g id="clust2" class="cluster">
<title>cluster_1</title>
<polygon fill="lightgray" stroke="lightgray" points="131.04,-472 131.04,-524 251.03,-524 251.03,-472 131.04,-472"/>
</g>
<g id="clust3" class="cluster">
<title>cluster_2</title>
<polygon fill="lightgray" stroke="lightgray" points="16,-358 16,-464 366.07,-464 366.07,-358 16,-358"/>
</g>
<g id="clust4" class="cluster">
<title>cluster_3</title>
<polygon fill="lightgray" stroke="lightgray" points="131.04,-244 131.04,-350 251.03,-350 251.03,-244 131.04,-244"/>
</g>
<g id="clust5" class="cluster">
<title>cluster_4</title>
<polygon fill="lightgray" stroke="lightgray" points="16,-130 16,-236 366.07,-236 366.07,-130 16,-130"/>
</g>
<g id="clust6" class="cluster">
<title>cluster_5</title>
<polygon fill="lightgray" stroke="lightgray" points="16,-16 16,-122 366.07,-122 366.07,-16 16,-16"/>
</g>
<!-- EUPL&#45;1.2(1) -->
<g id="node1" class="node">
<title>EUPL&#45;1.2(1)</title>
<ellipse fill="springgreen" stroke="springgreen" cx="191.04" cy="-498" rx="51.99" ry="18"/>
<text text-anchor="middle" x="191.04" y="-494.3" font-family="Times-Roman" font-size="14.00">EUPL&#45;1.2</text>
</g>
<!-- EUPL&#45;1.2(2) -->
<g id="node2" class="node">
<title>EUPL&#45;1.2(2)</title>
<ellipse fill="springgreen" stroke="springgreen" cx="191.04" cy="-438" rx="51.99" ry="18"/>
<text text-anchor="middle" x="191.04" y="-434.3" font-family="Times-Roman" font-size="14.00">EUPL&#45;1.2</text>
</g>
<!-- European Union Public License 1.2(2) -->
<g id="node3" class="node">
<title>European Union Public License 1.2(2)</title>
<ellipse fill="white" stroke="white" cx="191.04" cy="-384" rx="167.07" ry="18"/>
<text text-anchor="middle" x="191.04" y="-380.3" font-family="Times-Roman" font-size="14.00">European Union Public License 1.2</text>
</g>
<!-- EUPL&#45;1.2(3) -->
<g id="node4" class="node">
<title>EUPL&#45;1.2(3)</title>
<ellipse fill="springgreen" stroke="springgreen" cx="191.04" cy="-324" rx="51.99" ry="18"/>
<text text-anchor="middle" x="191.04" y="-320.3" font-family="Times-Roman" font-size="14.00">EUPL&#45;1.2</text>
</g>
<!-- eupl&#45;1.2(3) -->
<g id="node5" class="node">
<title>eupl&#45;1.2(3)</title>
<ellipse fill="white" stroke="white" cx="191.04" cy="-270" rx="48.19" ry="18"/>
<text text-anchor="middle" x="191.04" y="-266.3" font-family="Times-Roman" font-size="14.00">eupl&#45;1.2</text>
</g>
<!-- EUPL&#45;1.2(4) -->
<g id="node6" class="node">
<title>EUPL&#45;1.2(4)</title>
<ellipse fill="springgreen" stroke="springgreen" cx="191.04" cy="-210" rx="51.99" ry="18"/>
<text text-anchor="middle" x="191.04" y="-206.3" font-family="Times-Roman" font-size="14.00">EUPL&#45;1.2</text>
</g>
<!-- European Union Public License 1.2(4) -->
<g id="node7" class="node">
<title>European Union Public License 1.2(4)</title>
<ellipse fill="white" stroke="white" cx="191.04" cy="-156" rx="167.07" ry="18"/>
<text text-anchor="middle" x="191.04" y="-152.3" font-family="Times-Roman" font-size="14.00">European Union Public License 1.2</text>
</g>
<!-- EUPL&#45;1.2(5) -->
<g id="node8" class="node">
<title>EUPL&#45;1.2(5)</title>
<ellipse fill="springgreen" stroke="springgreen" cx="191.04" cy="-96" rx="51.99" ry="18"/>
<text text-anchor="middle" x="191.04" y="-92.3" font-family="Times-Roman" font-size="14.00">EUPL&#45;1.2</text>
</g>
<!-- European Union Public Licence 1.2(5) -->
<g id="node9" class="node">
<title>European Union Public Licence 1.2(5)</title>
<ellipse fill="white" stroke="white" cx="191.04" cy="-42" rx="167.07" ry="18"/>
<text text-anchor="middle" x="191.04" y="-38.3" font-family="Times-Roman" font-size="14.00">European Union Public Licence 1.2</text>
</g>
</g>
</svg>
