<?xml version="1.0" encoding="UTF-8" standalone="no"?>
<!DOCTYPE svg PUBLIC "-//W3C//DTD SVG 1.1//EN"
 "http://www.w3.org/Graphics/SVG/1.1/DTD/svg11.dtd">
<!-- Generated by graphviz version 2.43.0 (0)
 -->
<!-- Title: EUPL&#45;1.1 Pages: 1 -->
<svg width="729pt" height="830pt"
 viewBox="0.00 0.00 729.34 830.00" xmlns="http://www.w3.org/2000/svg" xmlns:xlink="http://www.w3.org/1999/xlink">
<g id="graph0" class="graph" transform="scale(1 1) rotate(0) translate(4 826)">
<title>EUPL&#45;1.1</title>
<polygon fill="white" stroke="transparent" points="-4,4 -4,-826 725.34,-826 725.34,4 -4,4"/>
<g id="clust1" class="cluster">
<title>cluster_0</title>
<polygon fill="none" stroke="black" points="8,-8 8,-814 713.34,-814 713.34,-8 8,-8"/>
</g>
<g id="clust2" class="cluster">
<title>cluster_1</title>
<polygon fill="lightgray" stroke="lightgray" points="300.67,-754 300.67,-806 420.67,-806 420.67,-754 300.67,-754"/>
</g>
<g id="clust3" class="cluster">
<title>cluster_2</title>
<polygon fill="lightgray" stroke="lightgray" points="185.63,-640 185.63,-746 535.71,-746 535.71,-640 185.63,-640"/>
</g>
<g id="clust4" class="cluster">
<title>cluster_3</title>
<polygon fill="lightgray" stroke="lightgray" points="300.67,-526 300.67,-632 420.67,-632 420.67,-526 300.67,-526"/>
</g>
<g id="clust5" class="cluster">
<title>cluster_4</title>
<polygon fill="lightgray" stroke="lightgray" points="185.63,-412 185.63,-518 535.71,-518 535.71,-412 185.63,-412"/>
</g>
<g id="clust6" class="cluster">
<title>cluster_5</title>
<polygon fill="lightgray" stroke="lightgray" points="16,-244 16,-404 705.34,-404 705.34,-244 16,-244"/>
</g>
<g id="clust7" class="cluster">
<title>cluster_6</title>
<polygon fill="lightgray" stroke="lightgray" points="175.24,-130 175.24,-236 546.1,-236 546.1,-130 175.24,-130"/>
</g>
<g id="clust8" class="cluster">
<title>cluster_7</title>
<polygon fill="lightgray" stroke="lightgray" points="185.63,-16 185.63,-122 535.71,-122 535.71,-16 185.63,-16"/>
</g>
<!-- EUPL&#45;1.1(1) -->
<g id="node1" class="node">
<title>EUPL&#45;1.1(1)</title>
<ellipse fill="springgreen" stroke="springgreen" cx="360.67" cy="-780" rx="51.99" ry="18"/>
<text text-anchor="middle" x="360.67" y="-776.3" font-family="Times-Roman" font-size="14.00">EUPL&#45;1.1</text>
</g>
<!-- EUPL&#45;1.1(2) -->
<g id="node2" class="node">
<title>EUPL&#45;1.1(2)</title>
<ellipse fill="springgreen" stroke="springgreen" cx="360.67" cy="-720" rx="51.99" ry="18"/>
<text text-anchor="middle" x="360.67" y="-716.3" font-family="Times-Roman" font-size="14.00">EUPL&#45;1.1</text>
</g>
<!-- European Union Public License 1.1(2) -->
<g id="node3" class="node">
<title>European Union Public License 1.1(2)</title>
<ellipse fill="white" stroke="white" cx="360.67" cy="-666" rx="167.07" ry="18"/>
<text text-anchor="middle" x="360.67" y="-662.3" font-family="Times-Roman" font-size="14.00">European Union Public License 1.1</text>
</g>
<!-- EUPL&#45;1.1(3) -->
<g id="node4" class="node">
<title>EUPL&#45;1.1(3)</title>
<ellipse fill="springgreen" stroke="springgreen" cx="360.67" cy="-606" rx="51.99" ry="18"/>
<text text-anchor="middle" x="360.67" y="-602.3" font-family="Times-Roman" font-size="14.00">EUPL&#45;1.1</text>
</g>
<!-- eupl&#45;1.1(3) -->
<g id="node5" class="node">
<title>eupl&#45;1.1(3)</title>
<ellipse fill="white" stroke="white" cx="360.67" cy="-552" rx="48.19" ry="18"/>
<text text-anchor="middle" x="360.67" y="-548.3" font-family="Times-Roman" font-size="14.00">eupl&#45;1.1</text>
</g>
<!-- EUPL&#45;1.1(4) -->
<g id="node6" class="node">
<title>EUPL&#45;1.1(4)</title>
<ellipse fill="springgreen" stroke="springgreen" cx="360.67" cy="-492" rx="51.99" ry="18"/>
<text text-anchor="middle" x="360.67" y="-488.3" font-family="Times-Roman" font-size="14.00">EUPL&#45;1.1</text>
</g>
<!-- European Union Public License 1.1(4) -->
<g id="node7" class="node">
<title>European Union Public License 1.1(4)</title>
<ellipse fill="white" stroke="white" cx="360.67" cy="-438" rx="167.07" ry="18"/>
<text text-anchor="middle" x="360.67" y="-434.3" font-family="Times-Roman" font-size="14.00">European Union Public License 1.1</text>
</g>
<!-- EUPL&#45;1.1(5) -->
<g id="node8" class="node">
<title>EUPL&#45;1.1(5)</title>
<ellipse fill="springgreen" stroke="springgreen" cx="360.67" cy="-378" rx="51.99" ry="18"/>
<text text-anchor="middle" x="360.67" y="-374.3" font-family="Times-Roman" font-size="14.00">EUPL&#45;1.1</text>
</g>
<!-- European Union Public License, Version 1.1(5) -->
<g id="node9" class="node">
<title>European Union Public License, Version 1.1(5)</title>
<ellipse fill="white" stroke="white" cx="360.67" cy="-324" rx="206.06" ry="18"/>
<text text-anchor="middle" x="360.67" y="-320.3" font-family="Times-Roman" font-size="14.00">European Union Public License, Version 1.1</text>
</g>
<!-- License :: OSI Approved :: European Union Public Licence 1.1 (EUPL 1.1)(5) -->
<g id="node10" class="node">
<title>License :: OSI Approved :: European Union Public Licence 1.1 (EUPL 1.1)(5)</title>
<ellipse fill="white" stroke="white" cx="360.67" cy="-270" rx="336.84" ry="18"/>
<text text-anchor="middle" x="360.67" y="-266.3" font-family="Times-Roman" font-size="14.00">License :: OSI Approved :: European Union Public Licence 1.1 (EUPL 1.1)</text>
</g>
<!-- EUPL&#45;1.1(6) -->
<g id="node11" class="node">
<title>EUPL&#45;1.1(6)</title>
<ellipse fill="springgreen" stroke="springgreen" cx="360.67" cy="-210" rx="51.99" ry="18"/>
<text text-anchor="middle" x="360.67" y="-206.3" font-family="Times-Roman" font-size="14.00">EUPL&#45;1.1</text>
</g>
<!-- European Union Public Licence, v.1.1(6) -->
<g id="node12" class="node">
<title>European Union Public Licence, v.1.1(6)</title>
<ellipse fill="white" stroke="white" cx="360.67" cy="-156" rx="177.37" ry="18"/>
<text text-anchor="middle" x="360.67" y="-152.3" font-family="Times-Roman" font-size="14.00">European Union Public Licence, v.1.1</text>
</g>
<!-- EUPL&#45;1.1(7) -->
<g id="node13" class="node">
<title>EUPL&#45;1.1(7)</title>
<ellipse fill="springgreen" stroke="springgreen" cx="360.67" cy="-96" rx="51.99" ry="18"/>
<text text-anchor="middle" x="360.67" y="-92.3" font-family="Times-Roman" font-size="14.00">EUPL&#45;1.1</text>
</g>
<!-- European Union Public License 1.1(7) -->
<g id="node14" class="node">
<title>European Union Public License 1.1(7)</title>
<ellipse fill="white" stroke="white" cx="360.67" cy="-42" rx="167.07" ry="18"/>
<text text-anchor="middle" x="360.67" y="-38.3" font-family="Times-Roman" font-size="14.00">European Union Public License 1.1</text>
</g>
</g>
</svg>
