<?xml version="1.0" encoding="UTF-8" standalone="no"?>
<!DOCTYPE svg PUBLIC "-//W3C//DTD SVG 1.1//EN"
 "http://www.w3.org/Graphics/SVG/1.1/DTD/svg11.dtd">
<!-- Generated by graphviz version 2.47.3 (0)
 -->
<!-- Title: EUPL&#45;1.1 Pages: 1 -->
<svg width="614pt" height="998pt"
 viewBox="0.00 0.00 613.65 998.00" xmlns="http://www.w3.org/2000/svg" xmlns:xlink="http://www.w3.org/1999/xlink">
<g id="graph0" class="graph" transform="scale(1 1) rotate(0) translate(4 994)">
<title>EUPL&#45;1.1</title>
<polygon fill="white" stroke="transparent" points="-4,4 -4,-994 609.65,-994 609.65,4 -4,4"/>
<g id="clust1" class="cluster">
<title>cluster_0</title>
<polygon fill="none" stroke="black" points="8,-8 8,-982 597.65,-982 597.65,-8 8,-8"/>
</g>
<g id="clust2" class="cluster">
<title>cluster_1</title>
<polygon fill="lightgray" stroke="lightgray" points="248.03,-922 248.03,-974 357.62,-974 357.62,-922 248.03,-922"/>
</g>
<g id="clust3" class="cluster">
<title>cluster_2</title>
<polygon fill="lightgray" stroke="lightgray" points="157.69,-808 157.69,-914 447.96,-914 447.96,-808 157.69,-808"/>
</g>
<g id="clust4" class="cluster">
<title>cluster_3</title>
<polygon fill="lightgray" stroke="lightgray" points="248.03,-694 248.03,-800 357.62,-800 357.62,-694 248.03,-694"/>
</g>
<g id="clust5" class="cluster">
<title>cluster_4</title>
<polygon fill="lightgray" stroke="lightgray" points="157.69,-580 157.69,-686 447.96,-686 447.96,-580 157.69,-580"/>
</g>
<g id="clust6" class="cluster">
<title>cluster_5</title>
<polygon fill="lightgray" stroke="lightgray" points="16,-412 16,-572 589.65,-572 589.65,-412 16,-412"/>
</g>
<g id="clust7" class="cluster">
<title>cluster_6</title>
<polygon fill="lightgray" stroke="lightgray" points="148.59,-298 148.59,-404 457.06,-404 457.06,-298 148.59,-298"/>
</g>
<g id="clust8" class="cluster">
<title>cluster_7</title>
<polygon fill="lightgray" stroke="lightgray" points="157.69,-184 157.69,-290 447.96,-290 447.96,-184 157.69,-184"/>
</g>
<g id="clust9" class="cluster">
<title>cluster_8</title>
<polygon fill="lightgray" stroke="lightgray" points="215.53,-16 215.53,-176 390.12,-176 390.12,-16 215.53,-16"/>
</g>
<!-- EUPL&#45;1.1(1) -->
<g id="node1" class="node">
<title>EUPL&#45;1.1(1)</title>
<ellipse fill="springgreen" stroke="springgreen" cx="302.83" cy="-948" rx="46.59" ry="18"/>
<text text-anchor="middle" x="302.83" y="-944.3" font-family="Times,serif" font-size="14.00">EUPL&#45;1.1</text>
</g>
<!-- EUPL&#45;1.1(2) -->
<g id="node2" class="node">
<title>EUPL&#45;1.1(2)</title>
<ellipse fill="springgreen" stroke="springgreen" cx="302.83" cy="-888" rx="46.59" ry="18"/>
<text text-anchor="middle" x="302.83" y="-884.3" font-family="Times,serif" font-size="14.00">EUPL&#45;1.1</text>
</g>
<!-- European Union Public License 1.1(2) -->
<g id="node3" class="node">
<title>European Union Public License 1.1(2)</title>
<ellipse fill="white" stroke="white" cx="302.83" cy="-834" rx="137.28" ry="18"/>
<text text-anchor="middle" x="302.83" y="-830.3" font-family="Times,serif" font-size="14.00">European Union Public License 1.1</text>
</g>
<!-- EUPL&#45;1.1(3) -->
<g id="node4" class="node">
<title>EUPL&#45;1.1(3)</title>
<ellipse fill="springgreen" stroke="springgreen" cx="302.83" cy="-774" rx="46.59" ry="18"/>
<text text-anchor="middle" x="302.83" y="-770.3" font-family="Times,serif" font-size="14.00">EUPL&#45;1.1</text>
</g>
<!-- eupl&#45;1.1(3) -->
<g id="node5" class="node">
<title>eupl&#45;1.1(3)</title>
<ellipse fill="white" stroke="white" cx="302.83" cy="-720" rx="40.09" ry="18"/>
<text text-anchor="middle" x="302.83" y="-716.3" font-family="Times,serif" font-size="14.00">eupl&#45;1.1</text>
</g>
<!-- EUPL&#45;1.1(4) -->
<g id="node6" class="node">
<title>EUPL&#45;1.1(4)</title>
<ellipse fill="springgreen" stroke="springgreen" cx="302.83" cy="-660" rx="46.59" ry="18"/>
<text text-anchor="middle" x="302.83" y="-656.3" font-family="Times,serif" font-size="14.00">EUPL&#45;1.1</text>
</g>
<!-- European Union Public License 1.1(4) -->
<g id="node7" class="node">
<title>European Union Public License 1.1(4)</title>
<ellipse fill="white" stroke="white" cx="302.83" cy="-606" rx="137.28" ry="18"/>
<text text-anchor="middle" x="302.83" y="-602.3" font-family="Times,serif" font-size="14.00">European Union Public License 1.1</text>
</g>
<!-- EUPL&#45;1.1(5) -->
<g id="node8" class="node">
<title>EUPL&#45;1.1(5)</title>
<ellipse fill="springgreen" stroke="springgreen" cx="302.83" cy="-546" rx="46.59" ry="18"/>
<text text-anchor="middle" x="302.83" y="-542.3" font-family="Times,serif" font-size="14.00">EUPL&#45;1.1</text>
</g>
<!-- European Union Public License, Version 1.1(5) -->
<g id="node9" class="node">
<title>European Union Public License, Version 1.1(5)</title>
<ellipse fill="white" stroke="white" cx="302.83" cy="-492" rx="168.17" ry="18"/>
<text text-anchor="middle" x="302.83" y="-488.3" font-family="Times,serif" font-size="14.00">European Union Public License, Version 1.1</text>
</g>
<!-- License :: OSI Approved :: European Union Public Licence 1.1 (EUPL 1.1)(5) -->
<g id="node10" class="node">
<title>License :: OSI Approved :: European Union Public Licence 1.1 (EUPL 1.1)(5)</title>
<ellipse fill="white" stroke="white" cx="302.83" cy="-438" rx="278.65" ry="18"/>
<text text-anchor="middle" x="302.83" y="-434.3" font-family="Times,serif" font-size="14.00">License :: OSI Approved :: European Union Public Licence 1.1 (EUPL 1.1)</text>
</g>
<!-- EUPL&#45;1.1(6) -->
<g id="node11" class="node">
<title>EUPL&#45;1.1(6)</title>
<ellipse fill="springgreen" stroke="springgreen" cx="302.83" cy="-378" rx="46.59" ry="18"/>
<text text-anchor="middle" x="302.83" y="-374.3" font-family="Times,serif" font-size="14.00">EUPL&#45;1.1</text>
</g>
<!-- European Union Public Licence, v.1.1(6) -->
<g id="node12" class="node">
<title>European Union Public Licence, v.1.1(6)</title>
<ellipse fill="white" stroke="white" cx="302.83" cy="-324" rx="146.47" ry="18"/>
<text text-anchor="middle" x="302.83" y="-320.3" font-family="Times,serif" font-size="14.00">European Union Public Licence, v.1.1</text>
</g>
<!-- EUPL&#45;1.1(7) -->
<g id="node13" class="node">
<title>EUPL&#45;1.1(7)</title>
<ellipse fill="springgreen" stroke="springgreen" cx="302.83" cy="-264" rx="46.59" ry="18"/>
<text text-anchor="middle" x="302.83" y="-260.3" font-family="Times,serif" font-size="14.00">EUPL&#45;1.1</text>
</g>
<!-- European Union Public License 1.1(7) -->
<g id="node14" class="node">
<title>European Union Public License 1.1(7)</title>
<ellipse fill="white" stroke="white" cx="302.83" cy="-210" rx="137.28" ry="18"/>
<text text-anchor="middle" x="302.83" y="-206.3" font-family="Times,serif" font-size="14.00">European Union Public License 1.1</text>
</g>
<!-- EUPL 1.1(8) -->
<g id="node15" class="node">
<title>EUPL 1.1(8)</title>
<ellipse fill="white" stroke="white" cx="302.83" cy="-150" rx="46.29" ry="18"/>
<text text-anchor="middle" x="302.83" y="-146.3" font-family="Times,serif" font-size="14.00">EUPL 1.1</text>
</g>
<!-- EUPL&#45;1.1(8) -->
<g id="node16" class="node">
<title>EUPL&#45;1.1(8)</title>
<ellipse fill="springgreen" stroke="springgreen" cx="302.83" cy="-96" rx="46.59" ry="18"/>
<text text-anchor="middle" x="302.83" y="-92.3" font-family="Times,serif" font-size="14.00">EUPL&#45;1.1</text>
</g>
<!-- scancode://eupl&#45;1.1(8) -->
<g id="node17" class="node">
<title>scancode://eupl&#45;1.1(8)</title>
<ellipse fill="white" stroke="white" cx="302.83" cy="-42" rx="79.09" ry="18"/>
<text text-anchor="middle" x="302.83" y="-38.3" font-family="Times,serif" font-size="14.00">scancode://eupl&#45;1.1</text>
</g>
</g>
</svg>
