<?xml version="1.0" encoding="UTF-8" standalone="no"?>
<!DOCTYPE svg PUBLIC "-//W3C//DTD SVG 1.1//EN"
 "http://www.w3.org/Graphics/SVG/1.1/DTD/svg11.dtd">
<!-- Generated by graphviz version 2.43.0 (0)
 -->
<!-- Title: Eurosym Pages: 1 -->
<svg width="230pt" height="206pt"
 viewBox="0.00 0.00 230.18 206.00" xmlns="http://www.w3.org/2000/svg" xmlns:xlink="http://www.w3.org/1999/xlink">
<g id="graph0" class="graph" transform="scale(1 1) rotate(0) translate(4 202)">
<title>Eurosym</title>
<polygon fill="white" stroke="transparent" points="-4,4 -4,-202 226.18,-202 226.18,4 -4,4"/>
<g id="clust1" class="cluster">
<title>cluster_0</title>
<polygon fill="none" stroke="black" points="8,-8 8,-190 214.18,-190 214.18,-8 8,-8"/>
</g>
<g id="clust2" class="cluster">
<title>cluster_1</title>
<polygon fill="lightgray" stroke="lightgray" points="53.05,-130 53.05,-182 169.14,-182 169.14,-130 53.05,-130"/>
</g>
<g id="clust3" class="cluster">
<title>cluster_2</title>
<polygon fill="lightgray" stroke="lightgray" points="16,-16 16,-122 206.18,-122 206.18,-16 16,-16"/>
</g>
<!-- Eurosym(1) -->
<g id="node1" class="node">
<title>Eurosym(1)</title>
<ellipse fill="springgreen" stroke="springgreen" cx="111.09" cy="-156" rx="50.09" ry="18"/>
<text text-anchor="middle" x="111.09" y="-152.3" font-family="Times-Roman" font-size="14.00">Eurosym</text>
</g>
<!-- Eurosym(2) -->
<g id="node2" class="node">
<title>Eurosym(2)</title>
<ellipse fill="springgreen" stroke="springgreen" cx="111.09" cy="-96" rx="50.09" ry="18"/>
<text text-anchor="middle" x="111.09" y="-92.3" font-family="Times-Roman" font-size="14.00">Eurosym</text>
</g>
<!-- Eurosym License(2) -->
<g id="node3" class="node">
<title>Eurosym License(2)</title>
<ellipse fill="white" stroke="white" cx="111.09" cy="-42" rx="87.18" ry="18"/>
<text text-anchor="middle" x="111.09" y="-38.3" font-family="Times-Roman" font-size="14.00">Eurosym License</text>
</g>
</g>
</svg>
