<?xml version="1.0" encoding="UTF-8" standalone="no"?>
<!DOCTYPE svg PUBLIC "-//W3C//DTD SVG 1.1//EN"
 "http://www.w3.org/Graphics/SVG/1.1/DTD/svg11.dtd">
<!-- Generated by graphviz version 2.49.3 (0)
 -->
<!-- Title: FDK&#45;AAC Pages: 1 -->
<svg width="343pt" height="206pt"
 viewBox="0.00 0.00 343.27 206.00" xmlns="http://www.w3.org/2000/svg" xmlns:xlink="http://www.w3.org/1999/xlink">
<g id="graph0" class="graph" transform="scale(1 1) rotate(0) translate(4 202)">
<title>FDK&#45;AAC</title>
<polygon fill="white" stroke="transparent" points="-4,4 -4,-202 339.27,-202 339.27,4 -4,4"/>
<g id="clust1" class="cluster">
<title>cluster_0</title>
<polygon fill="none" stroke="black" points="8,-8 8,-190 327.27,-190 327.27,-8 8,-8"/>
</g>
<g id="clust2" class="cluster">
<title>cluster_1</title>
<polygon fill="lightgray" stroke="lightgray" points="109.59,-130 109.59,-182 225.68,-182 225.68,-130 109.59,-130"/>
</g>
<g id="clust3" class="cluster">
<title>cluster_2</title>
<polygon fill="lightgray" stroke="lightgray" points="16,-16 16,-122 319.27,-122 319.27,-16 16,-16"/>
</g>
<!-- FDK&#45;AAC(1) -->
<g id="node1" class="node">
<title>FDK&#45;AAC(1)</title>
<ellipse fill="springgreen" stroke="springgreen" cx="167.64" cy="-156" rx="50.09" ry="18"/>
<text text-anchor="middle" x="167.64" y="-152.3" font-family="Times,serif" font-size="14.00">FDK&#45;AAC</text>
</g>
<!-- FDK&#45;AAC(2) -->
<g id="node2" class="node">
<title>FDK&#45;AAC(2)</title>
<ellipse fill="springgreen" stroke="springgreen" cx="167.64" cy="-96" rx="50.09" ry="18"/>
<text text-anchor="middle" x="167.64" y="-92.3" font-family="Times,serif" font-size="14.00">FDK&#45;AAC</text>
</g>
<!-- Fraunhofer FDK AAC Codec Library(2) -->
<g id="node3" class="node">
<title>Fraunhofer FDK AAC Codec Library(2)</title>
<ellipse fill="white" stroke="white" cx="167.64" cy="-42" rx="143.77" ry="18"/>
<text text-anchor="middle" x="167.64" y="-38.3" font-family="Times,serif" font-size="14.00">Fraunhofer FDK AAC Codec Library</text>
</g>
</g>
</svg>
