<?xml version="1.0" encoding="UTF-8" standalone="no"?>
<!DOCTYPE svg PUBLIC "-//W3C//DTD SVG 1.1//EN"
 "http://www.w3.org/Graphics/SVG/1.1/DTD/svg11.dtd">
<!-- Generated by graphviz version 2.43.0 (0)
 -->
<!-- Title: Frameworx&#45;1.0 Pages: 1 -->
<svg width="363pt" height="602pt"
 viewBox="0.00 0.00 362.77 602.00" xmlns="http://www.w3.org/2000/svg" xmlns:xlink="http://www.w3.org/1999/xlink">
<g id="graph0" class="graph" transform="scale(1 1) rotate(0) translate(4 598)">
<title>Frameworx&#45;1.0</title>
<polygon fill="white" stroke="transparent" points="-4,4 -4,-598 358.77,-598 358.77,4 -4,4"/>
<g id="clust1" class="cluster">
<title>cluster_0</title>
<polygon fill="none" stroke="black" points="8,-8 8,-586 346.77,-586 346.77,-8 8,-8"/>
</g>
<g id="clust2" class="cluster">
<title>cluster_1</title>
<polygon fill="lightgray" stroke="lightgray" points="91.39,-526 91.39,-578 263.38,-578 263.38,-526 91.39,-526"/>
</g>
<g id="clust3" class="cluster">
<title>cluster_2</title>
<polygon fill="lightgray" stroke="lightgray" points="27.7,-412 27.7,-518 327.07,-518 327.07,-412 27.7,-412"/>
</g>
<g id="clust4" class="cluster">
<title>cluster_3</title>
<polygon fill="lightgray" stroke="lightgray" points="41.35,-244 41.35,-404 313.43,-404 313.43,-244 41.35,-244"/>
</g>
<g id="clust5" class="cluster">
<title>cluster_4</title>
<polygon fill="lightgray" stroke="lightgray" points="16,-130 16,-236 338.77,-236 338.77,-130 16,-130"/>
</g>
<g id="clust6" class="cluster">
<title>cluster_5</title>
<polygon fill="lightgray" stroke="lightgray" points="55,-16 55,-122 299.78,-122 299.78,-16 55,-16"/>
</g>
<!-- Frameworx&#45;1.0(1) -->
<g id="node1" class="node">
<title>Frameworx&#45;1.0(1)</title>
<ellipse fill="springgreen" stroke="springgreen" cx="177.39" cy="-552" rx="77.99" ry="18"/>
<text text-anchor="middle" x="177.39" y="-548.3" font-family="Times-Roman" font-size="14.00">Frameworx&#45;1.0</text>
</g>
<!-- Frameworx Open License 1.0(2) -->
<g id="node2" class="node">
<title>Frameworx Open License 1.0(2)</title>
<ellipse fill="white" stroke="white" cx="177.39" cy="-492" rx="141.88" ry="18"/>
<text text-anchor="middle" x="177.39" y="-488.3" font-family="Times-Roman" font-size="14.00">Frameworx Open License 1.0</text>
</g>
<!-- Frameworx&#45;1.0(2) -->
<g id="node3" class="node">
<title>Frameworx&#45;1.0(2)</title>
<ellipse fill="springgreen" stroke="springgreen" cx="177.39" cy="-438" rx="77.99" ry="18"/>
<text text-anchor="middle" x="177.39" y="-434.3" font-family="Times-Roman" font-size="14.00">Frameworx&#45;1.0</text>
</g>
<!-- Frameworx 1.0(3) -->
<g id="node4" class="node">
<title>Frameworx 1.0(3)</title>
<ellipse fill="white" stroke="white" cx="177.39" cy="-378" rx="77.19" ry="18"/>
<text text-anchor="middle" x="177.39" y="-374.3" font-family="Times-Roman" font-size="14.00">Frameworx 1.0</text>
</g>
<!-- Frameworx&#45;1.0(3) -->
<g id="node5" class="node">
<title>Frameworx&#45;1.0(3)</title>
<ellipse fill="springgreen" stroke="springgreen" cx="177.39" cy="-324" rx="77.99" ry="18"/>
<text text-anchor="middle" x="177.39" y="-320.3" font-family="Times-Roman" font-size="14.00">Frameworx&#45;1.0</text>
</g>
<!-- scancode://frameworx&#45;1.0(3) -->
<g id="node6" class="node">
<title>scancode://frameworx&#45;1.0(3)</title>
<ellipse fill="white" stroke="white" cx="177.39" cy="-270" rx="128.08" ry="18"/>
<text text-anchor="middle" x="177.39" y="-266.3" font-family="Times-Roman" font-size="14.00">scancode://frameworx&#45;1.0</text>
</g>
<!-- Frameworx License, Version 1.0(4) -->
<g id="node7" class="node">
<title>Frameworx License, Version 1.0(4)</title>
<ellipse fill="white" stroke="white" cx="177.39" cy="-210" rx="153.27" ry="18"/>
<text text-anchor="middle" x="177.39" y="-206.3" font-family="Times-Roman" font-size="14.00">Frameworx License, Version 1.0</text>
</g>
<!-- Frameworx&#45;1.0(4) -->
<g id="node8" class="node">
<title>Frameworx&#45;1.0(4)</title>
<ellipse fill="springgreen" stroke="springgreen" cx="177.39" cy="-156" rx="77.99" ry="18"/>
<text text-anchor="middle" x="177.39" y="-152.3" font-family="Times-Roman" font-size="14.00">Frameworx&#45;1.0</text>
</g>
<!-- Frameworx License 1.0(5) -->
<g id="node9" class="node">
<title>Frameworx License 1.0(5)</title>
<ellipse fill="white" stroke="white" cx="177.39" cy="-96" rx="114.28" ry="18"/>
<text text-anchor="middle" x="177.39" y="-92.3" font-family="Times-Roman" font-size="14.00">Frameworx License 1.0</text>
</g>
<!-- Frameworx&#45;1.0(5) -->
<g id="node10" class="node">
<title>Frameworx&#45;1.0(5)</title>
<ellipse fill="springgreen" stroke="springgreen" cx="177.39" cy="-42" rx="77.99" ry="18"/>
<text text-anchor="middle" x="177.39" y="-38.3" font-family="Times-Roman" font-size="14.00">Frameworx&#45;1.0</text>
</g>
</g>
</svg>
