<?xml version="1.0" encoding="UTF-8" standalone="no"?>
<!DOCTYPE svg PUBLIC "-//W3C//DTD SVG 1.1//EN"
 "http://www.w3.org/Graphics/SVG/1.1/DTD/svg11.dtd">
<!-- Generated by graphviz version 2.49.3 (0)
 -->
<!-- Title: Frameworx&#45;1.0 Pages: 1 -->
<svg width="308pt" height="716pt"
 viewBox="0.00 0.00 308.18 716.00" xmlns="http://www.w3.org/2000/svg" xmlns:xlink="http://www.w3.org/1999/xlink">
<g id="graph0" class="graph" transform="scale(1 1) rotate(0) translate(4 712)">
<title>Frameworx&#45;1.0</title>
<polygon fill="white" stroke="transparent" points="-4,4 -4,-712 304.18,-712 304.18,4 -4,4"/>
<g id="clust1" class="cluster">
<title>cluster_0</title>
<polygon fill="none" stroke="black" points="8,-8 8,-700 292.18,-700 292.18,-8 8,-8"/>
</g>
<g id="clust2" class="cluster">
<title>cluster_1</title>
<polygon fill="lightgray" stroke="lightgray" points="76.44,-640 76.44,-692 223.73,-692 223.73,-640 76.44,-640"/>
</g>
<g id="clust3" class="cluster">
<title>cluster_2</title>
<polygon fill="lightgray" stroke="lightgray" points="47.2,-526 47.2,-632 252.98,-632 252.98,-526 47.2,-526"/>
</g>
<g id="clust4" class="cluster">
<title>cluster_3</title>
<polygon fill="lightgray" stroke="lightgray" points="47.2,-412 47.2,-518 252.98,-518 252.98,-412 47.2,-412"/>
</g>
<g id="clust5" class="cluster">
<title>cluster_4</title>
<polygon fill="lightgray" stroke="lightgray" points="16,-298 16,-404 284.18,-404 284.18,-298 16,-298"/>
</g>
<g id="clust6" class="cluster">
<title>cluster_5</title>
<polygon fill="lightgray" stroke="lightgray" points="25.75,-184 25.75,-290 274.43,-290 274.43,-184 25.75,-184"/>
</g>
<g id="clust7" class="cluster">
<title>cluster_6</title>
<polygon fill="lightgray" stroke="lightgray" points="38.75,-16 38.75,-176 261.43,-176 261.43,-16 38.75,-16"/>
</g>
<!-- Frameworx&#45;1.0(1) -->
<g id="node1" class="node">
<title>Frameworx&#45;1.0(1)</title>
<ellipse fill="springgreen" stroke="springgreen" cx="150.09" cy="-666" rx="65.79" ry="18"/>
<text text-anchor="middle" x="150.09" y="-662.3" font-family="Times,serif" font-size="14.00">Frameworx&#45;1.0</text>
</g>
<!-- Frameworx License 1.0(2) -->
<g id="node2" class="node">
<title>Frameworx License 1.0(2)</title>
<ellipse fill="white" stroke="white" cx="150.09" cy="-606" rx="94.78" ry="18"/>
<text text-anchor="middle" x="150.09" y="-602.3" font-family="Times,serif" font-size="14.00">Frameworx License 1.0</text>
</g>
<!-- Frameworx&#45;1.0(2) -->
<g id="node3" class="node">
<title>Frameworx&#45;1.0(2)</title>
<ellipse fill="springgreen" stroke="springgreen" cx="150.09" cy="-552" rx="65.79" ry="18"/>
<text text-anchor="middle" x="150.09" y="-548.3" font-family="Times,serif" font-size="14.00">Frameworx&#45;1.0</text>
</g>
<!-- Frameworx License 1.0(3) -->
<g id="node4" class="node">
<title>Frameworx License 1.0(3)</title>
<ellipse fill="white" stroke="white" cx="150.09" cy="-492" rx="94.78" ry="18"/>
<text text-anchor="middle" x="150.09" y="-488.3" font-family="Times,serif" font-size="14.00">Frameworx License 1.0</text>
</g>
<!-- Frameworx&#45;1.0(3) -->
<g id="node5" class="node">
<title>Frameworx&#45;1.0(3)</title>
<ellipse fill="springgreen" stroke="springgreen" cx="150.09" cy="-438" rx="65.79" ry="18"/>
<text text-anchor="middle" x="150.09" y="-434.3" font-family="Times,serif" font-size="14.00">Frameworx&#45;1.0</text>
</g>
<!-- Frameworx License, Version 1.0(4) -->
<g id="node6" class="node">
<title>Frameworx License, Version 1.0(4)</title>
<ellipse fill="white" stroke="white" cx="150.09" cy="-378" rx="126.18" ry="18"/>
<text text-anchor="middle" x="150.09" y="-374.3" font-family="Times,serif" font-size="14.00">Frameworx License, Version 1.0</text>
</g>
<!-- Frameworx&#45;1.0(4) -->
<g id="node7" class="node">
<title>Frameworx&#45;1.0(4)</title>
<ellipse fill="springgreen" stroke="springgreen" cx="150.09" cy="-324" rx="65.79" ry="18"/>
<text text-anchor="middle" x="150.09" y="-320.3" font-family="Times,serif" font-size="14.00">Frameworx&#45;1.0</text>
</g>
<!-- Frameworx Open License 1.0(5) -->
<g id="node8" class="node">
<title>Frameworx Open License 1.0(5)</title>
<ellipse fill="white" stroke="white" cx="150.09" cy="-264" rx="116.18" ry="18"/>
<text text-anchor="middle" x="150.09" y="-260.3" font-family="Times,serif" font-size="14.00">Frameworx Open License 1.0</text>
</g>
<!-- Frameworx&#45;1.0(5) -->
<g id="node9" class="node">
<title>Frameworx&#45;1.0(5)</title>
<ellipse fill="springgreen" stroke="springgreen" cx="150.09" cy="-210" rx="65.79" ry="18"/>
<text text-anchor="middle" x="150.09" y="-206.3" font-family="Times,serif" font-size="14.00">Frameworx&#45;1.0</text>
</g>
<!-- Frameworx 1.0(6) -->
<g id="node10" class="node">
<title>Frameworx 1.0(6)</title>
<ellipse fill="white" stroke="white" cx="150.09" cy="-150" rx="65.79" ry="18"/>
<text text-anchor="middle" x="150.09" y="-146.3" font-family="Times,serif" font-size="14.00">Frameworx 1.0</text>
</g>
<!-- Frameworx&#45;1.0(6) -->
<g id="node11" class="node">
<title>Frameworx&#45;1.0(6)</title>
<ellipse fill="springgreen" stroke="springgreen" cx="150.09" cy="-96" rx="65.79" ry="18"/>
<text text-anchor="middle" x="150.09" y="-92.3" font-family="Times,serif" font-size="14.00">Frameworx&#45;1.0</text>
</g>
<!-- scancode://frameworx&#45;1.0(6) -->
<g id="node12" class="node">
<title>scancode://frameworx&#45;1.0(6)</title>
<ellipse fill="white" stroke="white" cx="150.09" cy="-42" rx="103.18" ry="18"/>
<text text-anchor="middle" x="150.09" y="-38.3" font-family="Times,serif" font-size="14.00">scancode://frameworx&#45;1.0</text>
</g>
</g>
</svg>
