<?xml version="1.0" encoding="UTF-8" standalone="no"?>
<!DOCTYPE svg PUBLIC "-//W3C//DTD SVG 1.1//EN"
 "http://www.w3.org/Graphics/SVG/1.1/DTD/svg11.dtd">
<!-- Generated by graphviz version 7.0.0 (0)
 -->
<!-- Title: FreeBSD&#45;DOC Pages: 1 -->
<svg width="316pt" height="488pt"
 viewBox="0.00 0.00 315.98 488.00" xmlns="http://www.w3.org/2000/svg" xmlns:xlink="http://www.w3.org/1999/xlink">
<g id="graph0" class="graph" transform="scale(1 1) rotate(0) translate(4 484)">
<title>FreeBSD&#45;DOC</title>
<polygon fill="white" stroke="none" points="-4,4 -4,-484 311.98,-484 311.98,4 -4,4"/>
<g id="clust1" class="cluster">
<title>cluster_0</title>
<polygon fill="none" stroke="black" points="8,-8 8,-472 299.98,-472 299.98,-8 8,-8"/>
</g>
<g id="clust2" class="cluster">
<title>cluster_1</title>
<polygon fill="lightgray" stroke="lightgray" points="80.99,-412 80.99,-464 226.98,-464 226.98,-412 80.99,-412"/>
</g>
<g id="clust3" class="cluster">
<title>cluster_2</title>
<polygon fill="lightgray" stroke="lightgray" points="16,-298 16,-404 291.98,-404 291.98,-298 16,-298"/>
</g>
<g id="clust4" class="cluster">
<title>cluster_3</title>
<polygon fill="lightgray" stroke="lightgray" points="16,-184 16,-290 291.98,-290 291.98,-184 16,-184"/>
</g>
<g id="clust5" class="cluster">
<title>cluster_4</title>
<polygon fill="lightgray" stroke="lightgray" points="54.35,-16 54.35,-176 253.63,-176 253.63,-16 54.35,-16"/>
</g>
<!-- FreeBSD&#45;DOC(1) -->
<g id="node1" class="node">
<title>FreeBSD&#45;DOC(1)</title>
<ellipse fill="springgreen" stroke="springgreen" cx="153.99" cy="-438" rx="64.99" ry="18"/>
<text text-anchor="middle" x="153.99" y="-434.3" font-family="Times,serif" font-size="14.00">FreeBSD&#45;DOC</text>
</g>
<!-- FreeBSD Documentation License(2) -->
<g id="node2" class="node">
<title>FreeBSD Documentation License(2)</title>
<ellipse fill="white" stroke="white" cx="153.99" cy="-378" rx="129.98" ry="18"/>
<text text-anchor="middle" x="153.99" y="-374.3" font-family="Times,serif" font-size="14.00">FreeBSD Documentation License</text>
</g>
<!-- FreeBSD&#45;DOC(2) -->
<g id="node3" class="node">
<title>FreeBSD&#45;DOC(2)</title>
<ellipse fill="springgreen" stroke="springgreen" cx="153.99" cy="-324" rx="64.99" ry="18"/>
<text text-anchor="middle" x="153.99" y="-320.3" font-family="Times,serif" font-size="14.00">FreeBSD&#45;DOC</text>
</g>
<!-- FreeBSD Documentation License(3) -->
<g id="node4" class="node">
<title>FreeBSD Documentation License(3)</title>
<ellipse fill="white" stroke="white" cx="153.99" cy="-264" rx="129.98" ry="18"/>
<text text-anchor="middle" x="153.99" y="-260.3" font-family="Times,serif" font-size="14.00">FreeBSD Documentation License</text>
</g>
<!-- FreeBSD&#45;DOC(3) -->
<g id="node5" class="node">
<title>FreeBSD&#45;DOC(3)</title>
<ellipse fill="springgreen" stroke="springgreen" cx="153.99" cy="-210" rx="64.99" ry="18"/>
<text text-anchor="middle" x="153.99" y="-206.3" font-family="Times,serif" font-size="14.00">FreeBSD&#45;DOC</text>
</g>
<!-- FreeBSD Doc License(4) -->
<g id="node6" class="node">
<title>FreeBSD Doc License(4)</title>
<ellipse fill="white" stroke="white" cx="153.99" cy="-150" rx="90.18" ry="18"/>
<text text-anchor="middle" x="153.99" y="-146.3" font-family="Times,serif" font-size="14.00">FreeBSD Doc License</text>
</g>
<!-- FreeBSD&#45;DOC(4) -->
<g id="node7" class="node">
<title>FreeBSD&#45;DOC(4)</title>
<ellipse fill="springgreen" stroke="springgreen" cx="153.99" cy="-96" rx="64.99" ry="18"/>
<text text-anchor="middle" x="153.99" y="-92.3" font-family="Times,serif" font-size="14.00">FreeBSD&#45;DOC</text>
</g>
<!-- scancode://freebsd&#45;doc(4) -->
<g id="node8" class="node">
<title>scancode://freebsd&#45;doc(4)</title>
<ellipse fill="white" stroke="white" cx="153.99" cy="-42" rx="91.78" ry="18"/>
<text text-anchor="middle" x="153.99" y="-38.3" font-family="Times,serif" font-size="14.00">scancode://freebsd&#45;doc</text>
</g>
</g>
</svg>
