<?xml version="1.0" encoding="UTF-8" standalone="no"?>
<!DOCTYPE svg PUBLIC "-//W3C//DTD SVG 1.1//EN"
 "http://www.w3.org/Graphics/SVG/1.1/DTD/svg11.dtd">
<!-- Generated by graphviz version 2.49.3 (0)
 -->
<!-- Title: FreeImage Pages: 1 -->
<svg width="299pt" height="542pt"
 viewBox="0.00 0.00 299.08 542.00" xmlns="http://www.w3.org/2000/svg" xmlns:xlink="http://www.w3.org/1999/xlink">
<g id="graph0" class="graph" transform="scale(1 1) rotate(0) translate(4 538)">
<title>FreeImage</title>
<polygon fill="white" stroke="transparent" points="-4,4 -4,-538 295.08,-538 295.08,4 -4,4"/>
<g id="clust1" class="cluster">
<title>cluster_0</title>
<polygon fill="none" stroke="black" points="8,-8 8,-526 283.08,-526 283.08,-8 8,-8"/>
</g>
<g id="clust2" class="cluster">
<title>cluster_1</title>
<polygon fill="lightgray" stroke="lightgray" points="88.79,-466 88.79,-518 202.28,-518 202.28,-466 88.79,-466"/>
</g>
<g id="clust3" class="cluster">
<title>cluster_2</title>
<polygon fill="lightgray" stroke="lightgray" points="20.55,-298 20.55,-458 270.53,-458 270.53,-298 20.55,-298"/>
</g>
<g id="clust4" class="cluster">
<title>cluster_3</title>
<polygon fill="lightgray" stroke="lightgray" points="16,-184 16,-290 275.08,-290 275.08,-184 16,-184"/>
</g>
<g id="clust5" class="cluster">
<title>cluster_4</title>
<polygon fill="lightgray" stroke="lightgray" points="20.55,-16 20.55,-176 270.53,-176 270.53,-16 20.55,-16"/>
</g>
<!-- FreeImage(1) -->
<g id="node1" class="node">
<title>FreeImage(1)</title>
<ellipse fill="springgreen" stroke="springgreen" cx="145.54" cy="-492" rx="48.99" ry="18"/>
<text text-anchor="middle" x="145.54" y="-488.3" font-family="Times,serif" font-size="14.00">FreeImage</text>
</g>
<!-- FreeImage(2) -->
<g id="node2" class="node">
<title>FreeImage(2)</title>
<ellipse fill="springgreen" stroke="springgreen" cx="145.54" cy="-432" rx="48.99" ry="18"/>
<text text-anchor="middle" x="145.54" y="-428.3" font-family="Times,serif" font-size="14.00">FreeImage</text>
</g>
<!-- FreeImage Public License 1.0(2) -->
<g id="node3" class="node">
<title>FreeImage Public License 1.0(2)</title>
<ellipse fill="white" stroke="white" cx="145.54" cy="-378" rx="116.98" ry="18"/>
<text text-anchor="middle" x="145.54" y="-374.3" font-family="Times,serif" font-size="14.00">FreeImage Public License 1.0</text>
</g>
<!-- scancode:freeimage&#45;1.0(2) -->
<g id="node4" class="node">
<title>scancode:freeimage&#45;1.0(2)</title>
<ellipse fill="white" stroke="white" cx="145.54" cy="-324" rx="94.78" ry="18"/>
<text text-anchor="middle" x="145.54" y="-320.3" font-family="Times,serif" font-size="14.00">scancode:freeimage&#45;1.0</text>
</g>
<!-- FreeImage(3) -->
<g id="node5" class="node">
<title>FreeImage(3)</title>
<ellipse fill="springgreen" stroke="springgreen" cx="145.54" cy="-264" rx="48.99" ry="18"/>
<text text-anchor="middle" x="145.54" y="-260.3" font-family="Times,serif" font-size="14.00">FreeImage</text>
</g>
<!-- FreeImage Public License v1.0(3) -->
<g id="node6" class="node">
<title>FreeImage Public License v1.0(3)</title>
<ellipse fill="white" stroke="white" cx="145.54" cy="-210" rx="121.58" ry="18"/>
<text text-anchor="middle" x="145.54" y="-206.3" font-family="Times,serif" font-size="14.00">FreeImage Public License v1.0</text>
</g>
<!-- FreeImage(4) -->
<g id="node7" class="node">
<title>FreeImage(4)</title>
<ellipse fill="springgreen" stroke="springgreen" cx="145.54" cy="-150" rx="48.99" ry="18"/>
<text text-anchor="middle" x="145.54" y="-146.3" font-family="Times,serif" font-size="14.00">FreeImage</text>
</g>
<!-- FreeImage Public License 1.0(4) -->
<g id="node8" class="node">
<title>FreeImage Public License 1.0(4)</title>
<ellipse fill="white" stroke="white" cx="145.54" cy="-96" rx="116.98" ry="18"/>
<text text-anchor="middle" x="145.54" y="-92.3" font-family="Times,serif" font-size="14.00">FreeImage Public License 1.0</text>
</g>
<!-- scancode://freeimage&#45;1.0(4) -->
<g id="node9" class="node">
<title>scancode://freeimage&#45;1.0(4)</title>
<ellipse fill="white" stroke="white" cx="145.54" cy="-42" rx="100.18" ry="18"/>
<text text-anchor="middle" x="145.54" y="-38.3" font-family="Times,serif" font-size="14.00">scancode://freeimage&#45;1.0</text>
</g>
</g>
</svg>
