<?xml version="1.0" encoding="UTF-8" standalone="no"?>
<!DOCTYPE svg PUBLIC "-//W3C//DTD SVG 1.1//EN"
 "http://www.w3.org/Graphics/SVG/1.1/DTD/svg11.dtd">
<!-- Generated by graphviz version 2.43.0 (0)
 -->
<!-- Title: FreeImage Pages: 1 -->
<svg width="1066pt" height="115pt"
 viewBox="0.00 0.00 1066.00 115.00" xmlns="http://www.w3.org/2000/svg" xmlns:xlink="http://www.w3.org/1999/xlink">
<g id="graph0" class="graph" transform="scale(1 1) rotate(0) translate(4 111)">
<title>FreeImage</title>
<polygon fill="white" stroke="transparent" points="-4,4 -4,-111 1062,-111 1062,4 -4,4"/>
<g id="clust1" class="cluster">
<title>cluster_0</title>
<polygon fill="none" stroke="black" points="8,-8 8,-99 1050,-99 1050,-8 8,-8"/>
</g>
<g id="clust2" class="cluster">
<title>cluster_1</title>
<polygon fill="lightgray" stroke="lightgray" points="910,-16 910,-91 1042,-91 1042,-16 910,-16"/>
<text text-anchor="middle" x="976" y="-75.8" font-family="Times-Roman" font-size="14.00">process #1</text>
</g>
<g id="clust3" class="cluster">
<title>cluster_2</title>
<polygon fill="lightgray" stroke="lightgray" points="592,-16 592,-91 902,-91 902,-16 592,-16"/>
<text text-anchor="middle" x="747" y="-75.8" font-family="Times-Roman" font-size="14.00">process #1</text>
</g>
<g id="clust4" class="cluster">
<title>cluster_3</title>
<polygon fill="lightgray" stroke="lightgray" points="16,-16 16,-91 584,-91 584,-16 16,-16"/>
<text text-anchor="middle" x="300" y="-75.8" font-family="Times-Roman" font-size="14.00">process #1</text>
</g>
<!-- FreeImage -->
<g id="node1" class="node">
<title>FreeImage</title>
<ellipse fill="white" stroke="white" cx="976" cy="-42" rx="57.69" ry="18"/>
<text text-anchor="middle" x="976" y="-38.3" font-family="Times-Roman" font-size="14.00">FreeImage</text>
</g>
<!-- FreeImage Public License v1.0 -->
<g id="node2" class="node">
<title>FreeImage Public License v1.0</title>
<ellipse fill="white" stroke="white" cx="747" cy="-42" rx="146.77" ry="18"/>
<text text-anchor="middle" x="747" y="-38.3" font-family="Times-Roman" font-size="14.00">FreeImage Public License v1.0</text>
</g>
<!-- FreeImage Public License 1.0 -->
<g id="node3" class="node">
<title>FreeImage Public License 1.0</title>
<ellipse fill="white" stroke="white" cx="434" cy="-42" rx="141.88" ry="18"/>
<text text-anchor="middle" x="434" y="-38.3" font-family="Times-Roman" font-size="14.00">FreeImage Public License 1.0</text>
</g>
<!-- scancode://freeimage&#45;1.0 -->
<g id="node4" class="node">
<title>scancode://freeimage&#45;1.0</title>
<ellipse fill="white" stroke="white" cx="149" cy="-42" rx="125.38" ry="18"/>
<text text-anchor="middle" x="149" y="-38.3" font-family="Times-Roman" font-size="14.00">scancode://freeimage&#45;1.0</text>
</g>
</g>
</svg>
