<?xml version="1.0" encoding="UTF-8" standalone="no"?>
<!DOCTYPE svg PUBLIC "-//W3C//DTD SVG 1.1//EN"
 "http://www.w3.org/Graphics/SVG/1.1/DTD/svg11.dtd">
<!-- Generated by graphviz version 2.43.0 (0)
 -->
<!-- Title: FSFAP Pages: 1 -->
<svg width="329pt" height="282pt"
 viewBox="0.00 0.00 329.38 282.00" xmlns="http://www.w3.org/2000/svg" xmlns:xlink="http://www.w3.org/1999/xlink">
<g id="graph0" class="graph" transform="scale(1 1) rotate(0) translate(4 278)">
<title>FSFAP</title>
<polygon fill="white" stroke="transparent" points="-4,4 -4,-278 325.38,-278 325.38,4 -4,4"/>
<g id="clust1" class="cluster">
<title>cluster_0</title>
<polygon fill="none" stroke="black" points="8,-8 8,-266 313.38,-266 313.38,-8 8,-8"/>
</g>
<g id="clust2" class="cluster">
<title>cluster_1</title>
<polygon fill="none" stroke="black" points="16,-76 16,-258 305.38,-258 305.38,-76 16,-76"/>
</g>
<g id="clust3" class="cluster">
<title>cluster_2</title>
<polygon fill="lightgray" stroke="lightgray" points="114.99,-198 114.99,-250 206.39,-250 206.39,-198 114.99,-198"/>
</g>
<g id="clust4" class="cluster">
<title>cluster_3</title>
<polygon fill="lightgray" stroke="lightgray" points="24,-84 24,-190 297.38,-190 297.38,-84 24,-84"/>
</g>
<g id="clust5" class="cluster">
<title>cluster_4</title>
<polygon fill="lightgray" stroke="lightgray" points="26.6,-16 26.6,-68 294.78,-68 294.78,-16 26.6,-16"/>
</g>
<!-- FSFAP(2) -->
<g id="node1" class="node">
<title>FSFAP(2)</title>
<ellipse fill="springgreen" stroke="springgreen" cx="160.69" cy="-224" rx="37.89" ry="18"/>
<text text-anchor="middle" x="160.69" y="-220.3" font-family="Times-Roman" font-size="14.00">FSFAP</text>
</g>
<!-- FSF All Permissive License(3) -->
<g id="node2" class="node">
<title>FSF All Permissive License(3)</title>
<ellipse fill="white" stroke="white" cx="160.69" cy="-164" rx="128.88" ry="18"/>
<text text-anchor="middle" x="160.69" y="-160.3" font-family="Times-Roman" font-size="14.00">FSF All Permissive License</text>
</g>
<!-- FSFAP(3) -->
<g id="node3" class="node">
<title>FSFAP(3)</title>
<ellipse fill="springgreen" stroke="springgreen" cx="160.69" cy="-110" rx="37.89" ry="18"/>
<text text-anchor="middle" x="160.69" y="-106.3" font-family="Times-Roman" font-size="14.00">FSFAP</text>
</g>
<!-- FSF All Permissive license(4) -->
<g id="node4" class="node">
<title>FSF All Permissive license(4)</title>
<ellipse fill="white" stroke="white" cx="160.69" cy="-42" rx="126.18" ry="18"/>
<text text-anchor="middle" x="160.69" y="-38.3" font-family="Times-Roman" font-size="14.00">FSF All Permissive license</text>
</g>
</g>
</svg>
