<?xml version="1.0" encoding="UTF-8" standalone="no"?>
<!DOCTYPE svg PUBLIC "-//W3C//DTD SVG 1.1//EN"
 "http://www.w3.org/Graphics/SVG/1.1/DTD/svg11.dtd">
<!-- Generated by graphviz version 2.49.3 (0)
 -->
<!-- Title: FSFULLR Pages: 1 -->
<svg width="424pt" height="656pt"
 viewBox="0.00 0.00 423.87 656.00" xmlns="http://www.w3.org/2000/svg" xmlns:xlink="http://www.w3.org/1999/xlink">
<g id="graph0" class="graph" transform="scale(1 1) rotate(0) translate(4 652)">
<title>FSFULLR</title>
<polygon fill="white" stroke="transparent" points="-4,4 -4,-652 419.87,-652 419.87,4 -4,4"/>
<g id="clust1" class="cluster">
<title>cluster_0</title>
<polygon fill="none" stroke="black" points="8,-8 8,-640 407.87,-640 407.87,-8 8,-8"/>
</g>
<g id="clust2" class="cluster">
<title>cluster_1</title>
<polygon fill="lightgray" stroke="lightgray" points="151.84,-580 151.84,-632 264.03,-632 264.03,-580 151.84,-580"/>
</g>
<g id="clust3" class="cluster">
<title>cluster_2</title>
<polygon fill="lightgray" stroke="lightgray" points="16,-466 16,-572 399.87,-572 399.87,-466 16,-466"/>
</g>
<g id="clust4" class="cluster">
<title>cluster_3</title>
<polygon fill="lightgray" stroke="lightgray" points="48.5,-298 48.5,-458 367.37,-458 367.37,-298 48.5,-298"/>
</g>
<g id="clust5" class="cluster">
<title>cluster_4</title>
<polygon fill="lightgray" stroke="lightgray" points="16,-184 16,-290 399.87,-290 399.87,-184 16,-184"/>
</g>
<g id="clust6" class="cluster">
<title>cluster_5</title>
<polygon fill="lightgray" stroke="lightgray" points="103.09,-16 103.09,-176 312.78,-176 312.78,-16 103.09,-16"/>
</g>
<!-- FSFULLR(1) -->
<g id="node1" class="node">
<title>FSFULLR(1)</title>
<ellipse fill="springgreen" stroke="springgreen" cx="207.93" cy="-606" rx="48.19" ry="18"/>
<text text-anchor="middle" x="207.93" y="-602.3" font-family="Times,serif" font-size="14.00">FSFULLR</text>
</g>
<!-- FSF Unlimited License (with License Retention)(2) -->
<g id="node2" class="node">
<title>FSF Unlimited License (with License Retention)(2)</title>
<ellipse fill="white" stroke="white" cx="207.93" cy="-546" rx="183.87" ry="18"/>
<text text-anchor="middle" x="207.93" y="-542.3" font-family="Times,serif" font-size="14.00">FSF Unlimited License (with License Retention)</text>
</g>
<!-- FSFULLR(2) -->
<g id="node3" class="node">
<title>FSFULLR(2)</title>
<ellipse fill="springgreen" stroke="springgreen" cx="207.93" cy="-492" rx="48.19" ry="18"/>
<text text-anchor="middle" x="207.93" y="-488.3" font-family="Times,serif" font-size="14.00">FSFULLR</text>
</g>
<!-- FSF Unlimited License (with retention)(3) -->
<g id="node4" class="node">
<title>FSF Unlimited License (with retention)(3)</title>
<ellipse fill="white" stroke="white" cx="207.93" cy="-432" rx="151.37" ry="18"/>
<text text-anchor="middle" x="207.93" y="-428.3" font-family="Times,serif" font-size="14.00">FSF Unlimited License (with retention)</text>
</g>
<!-- FSFULLR(3) -->
<g id="node5" class="node">
<title>FSFULLR(3)</title>
<ellipse fill="springgreen" stroke="springgreen" cx="207.93" cy="-378" rx="48.19" ry="18"/>
<text text-anchor="middle" x="207.93" y="-374.3" font-family="Times,serif" font-size="14.00">FSFULLR</text>
</g>
<!-- scancode:fsf&#45;unlimited(3) -->
<g id="node6" class="node">
<title>scancode:fsf&#45;unlimited(3)</title>
<ellipse fill="white" stroke="white" cx="207.93" cy="-324" rx="91.78" ry="18"/>
<text text-anchor="middle" x="207.93" y="-320.3" font-family="Times,serif" font-size="14.00">scancode:fsf&#45;unlimited</text>
</g>
<!-- FSF Unlimited License (with License Retention)(4) -->
<g id="node7" class="node">
<title>FSF Unlimited License (with License Retention)(4)</title>
<ellipse fill="white" stroke="white" cx="207.93" cy="-264" rx="183.87" ry="18"/>
<text text-anchor="middle" x="207.93" y="-260.3" font-family="Times,serif" font-size="14.00">FSF Unlimited License (with License Retention)</text>
</g>
<!-- FSFULLR(4) -->
<g id="node8" class="node">
<title>FSFULLR(4)</title>
<ellipse fill="springgreen" stroke="springgreen" cx="207.93" cy="-210" rx="48.19" ry="18"/>
<text text-anchor="middle" x="207.93" y="-206.3" font-family="Times,serif" font-size="14.00">FSFULLR</text>
</g>
<!-- FSF&#45;Unlimited(5) -->
<g id="node9" class="node">
<title>FSF&#45;Unlimited(5)</title>
<ellipse fill="white" stroke="white" cx="207.93" cy="-150" rx="64.19" ry="18"/>
<text text-anchor="middle" x="207.93" y="-146.3" font-family="Times,serif" font-size="14.00">FSF&#45;Unlimited</text>
</g>
<!-- FSFULLR(5) -->
<g id="node10" class="node">
<title>FSFULLR(5)</title>
<ellipse fill="springgreen" stroke="springgreen" cx="207.93" cy="-96" rx="48.19" ry="18"/>
<text text-anchor="middle" x="207.93" y="-92.3" font-family="Times,serif" font-size="14.00">FSFULLR</text>
</g>
<!-- scancode://fsf&#45;unlimited(5) -->
<g id="node11" class="node">
<title>scancode://fsf&#45;unlimited(5)</title>
<ellipse fill="white" stroke="white" cx="207.93" cy="-42" rx="96.68" ry="18"/>
<text text-anchor="middle" x="207.93" y="-38.3" font-family="Times,serif" font-size="14.00">scancode://fsf&#45;unlimited</text>
</g>
</g>
</svg>
