<?xml version="1.0" encoding="UTF-8" standalone="no"?>
<!DOCTYPE svg PUBLIC "-//W3C//DTD SVG 1.1//EN"
 "http://www.w3.org/Graphics/SVG/1.1/DTD/svg11.dtd">
<!-- Generated by graphviz version 2.43.0 (0)
 -->
<!-- Title: FTL Pages: 1 -->
<svg width="311pt" height="678pt"
 viewBox="0.00 0.00 311.18 678.00" xmlns="http://www.w3.org/2000/svg" xmlns:xlink="http://www.w3.org/1999/xlink">
<g id="graph0" class="graph" transform="scale(1 1) rotate(0) translate(4 674)">
<title>FTL</title>
<polygon fill="white" stroke="transparent" points="-4,4 -4,-674 307.18,-674 307.18,4 -4,4"/>
<g id="clust1" class="cluster">
<title>cluster_0</title>
<polygon fill="none" stroke="black" points="8,-8 8,-662 295.18,-662 295.18,-8 8,-8"/>
</g>
<g id="clust2" class="cluster">
<title>cluster_1</title>
<polygon fill="none" stroke="black" points="16,-76 16,-654 287.18,-654 287.18,-76 16,-76"/>
</g>
<g id="clust3" class="cluster">
<title>cluster_2</title>
<polygon fill="lightgray" stroke="lightgray" points="116.59,-594 116.59,-646 186.59,-646 186.59,-594 116.59,-594"/>
</g>
<g id="clust4" class="cluster">
<title>cluster_3</title>
<polygon fill="lightgray" stroke="lightgray" points="24.65,-480 24.65,-586 278.53,-586 278.53,-480 24.65,-480"/>
</g>
<g id="clust5" class="cluster">
<title>cluster_4</title>
<polygon fill="lightgray" stroke="lightgray" points="24.65,-366 24.65,-472 278.53,-472 278.53,-366 24.65,-366"/>
</g>
<g id="clust6" class="cluster">
<title>cluster_5</title>
<polygon fill="lightgray" stroke="lightgray" points="24,-198 24,-358 279.18,-358 279.18,-198 24,-198"/>
</g>
<g id="clust7" class="cluster">
<title>cluster_6</title>
<polygon fill="lightgray" stroke="lightgray" points="57.8,-84 57.8,-190 245.38,-190 245.38,-84 57.8,-84"/>
</g>
<g id="clust8" class="cluster">
<title>cluster_7</title>
<polygon fill="lightgray" stroke="lightgray" points="19.45,-16 19.45,-68 283.73,-68 283.73,-16 19.45,-16"/>
</g>
<!-- FTL(2) -->
<g id="node1" class="node">
<title>FTL(2)</title>
<ellipse fill="springgreen" stroke="springgreen" cx="151.59" cy="-620" rx="27" ry="18"/>
<text text-anchor="middle" x="151.59" y="-616.3" font-family="Times-Roman" font-size="14.00">FTL</text>
</g>
<!-- FTL(3) -->
<g id="node2" class="node">
<title>FTL(3)</title>
<ellipse fill="springgreen" stroke="springgreen" cx="151.59" cy="-560" rx="27" ry="18"/>
<text text-anchor="middle" x="151.59" y="-556.3" font-family="Times-Roman" font-size="14.00">FTL</text>
</g>
<!-- Freetype Project License(3) -->
<g id="node3" class="node">
<title>Freetype Project License(3)</title>
<ellipse fill="white" stroke="white" cx="151.59" cy="-506" rx="118.88" ry="18"/>
<text text-anchor="middle" x="151.59" y="-502.3" font-family="Times-Roman" font-size="14.00">Freetype Project License</text>
</g>
<!-- FTL(4) -->
<g id="node4" class="node">
<title>FTL(4)</title>
<ellipse fill="springgreen" stroke="springgreen" cx="151.59" cy="-446" rx="27" ry="18"/>
<text text-anchor="middle" x="151.59" y="-442.3" font-family="Times-Roman" font-size="14.00">FTL</text>
</g>
<!-- Freetype Project License(4) -->
<g id="node5" class="node">
<title>Freetype Project License(4)</title>
<ellipse fill="white" stroke="white" cx="151.59" cy="-392" rx="118.88" ry="18"/>
<text text-anchor="middle" x="151.59" y="-388.3" font-family="Times-Roman" font-size="14.00">Freetype Project License</text>
</g>
<!-- FTL(5) -->
<g id="node6" class="node">
<title>FTL(5)</title>
<ellipse fill="springgreen" stroke="springgreen" cx="151.59" cy="-332" rx="27" ry="18"/>
<text text-anchor="middle" x="151.59" y="-328.3" font-family="Times-Roman" font-size="14.00">FTL</text>
</g>
<!-- FreeType Project License(5) -->
<g id="node7" class="node">
<title>FreeType Project License(5)</title>
<ellipse fill="white" stroke="white" cx="151.59" cy="-278" rx="119.68" ry="18"/>
<text text-anchor="middle" x="151.59" y="-274.3" font-family="Times-Roman" font-size="14.00">FreeType Project License</text>
</g>
<!-- scancode://freetype(5) -->
<g id="node8" class="node">
<title>scancode://freetype(5)</title>
<ellipse fill="white" stroke="white" cx="151.59" cy="-224" rx="99.38" ry="18"/>
<text text-anchor="middle" x="151.59" y="-220.3" font-family="Times-Roman" font-size="14.00">scancode://freetype</text>
</g>
<!-- FTL(6) -->
<g id="node9" class="node">
<title>FTL(6)</title>
<ellipse fill="springgreen" stroke="springgreen" cx="151.59" cy="-164" rx="27" ry="18"/>
<text text-anchor="middle" x="151.59" y="-160.3" font-family="Times-Roman" font-size="14.00">FTL</text>
</g>
<!-- Freetype License(6) -->
<g id="node10" class="node">
<title>Freetype License(6)</title>
<ellipse fill="white" stroke="white" cx="151.59" cy="-110" rx="85.59" ry="18"/>
<text text-anchor="middle" x="151.59" y="-106.3" font-family="Times-Roman" font-size="14.00">Freetype License</text>
</g>
<!-- FreeType Project LICENSE(7) -->
<g id="node11" class="node">
<title>FreeType Project LICENSE(7)</title>
<ellipse fill="white" stroke="white" cx="151.59" cy="-42" rx="124.28" ry="18"/>
<text text-anchor="middle" x="151.59" y="-38.3" font-family="Times-Roman" font-size="14.00">FreeType Project LICENSE</text>
</g>
</g>
</svg>
