<?xml version="1.0" encoding="UTF-8" standalone="no"?>
<!DOCTYPE svg PUBLIC "-//W3C//DTD SVG 1.1//EN"
 "http://www.w3.org/Graphics/SVG/1.1/DTD/svg11.dtd">
<!-- Generated by graphviz version 2.43.0 (0)
 -->
<!-- Title: GFDL&#45;1.3&#45;or&#45;later Pages: 1 -->
<svg width="1543pt" height="115pt"
 viewBox="0.00 0.00 1543.00 115.00" xmlns="http://www.w3.org/2000/svg" xmlns:xlink="http://www.w3.org/1999/xlink">
<g id="graph0" class="graph" transform="scale(1 1) rotate(0) translate(4 111)">
<title>GFDL&#45;1.3&#45;or&#45;later</title>
<polygon fill="white" stroke="transparent" points="-4,4 -4,-111 1539,-111 1539,4 -4,4"/>
<g id="clust1" class="cluster">
<title>cluster_0</title>
<polygon fill="none" stroke="black" points="8,-8 8,-99 1527,-99 1527,-8 8,-8"/>
</g>
<g id="clust2" class="cluster">
<title>cluster_1</title>
<polygon fill="lightgray" stroke="lightgray" points="1327,-16 1327,-91 1519,-91 1519,-16 1327,-16"/>
<text text-anchor="middle" x="1423" y="-75.8" font-family="Times-Roman" font-size="14.00">prev</text>
</g>
<g id="clust3" class="cluster">
<title>cluster_2</title>
<polygon fill="lightgray" stroke="lightgray" points="669,-16 669,-68 1319,-68 1319,-16 669,-16"/>
</g>
<g id="clust4" class="cluster">
<title>cluster_3</title>
<polygon fill="lightgray" stroke="lightgray" points="16,-16 16,-68 661,-68 661,-16 16,-16"/>
</g>
<!-- GFDL&#45;1.3&#45;or&#45;later(1) -->
<g id="node1" class="node">
<title>GFDL&#45;1.3&#45;or&#45;later(1)</title>
<ellipse fill="springgreen" stroke="springgreen" cx="1423" cy="-42" rx="88.28" ry="18"/>
<text text-anchor="middle" x="1423" y="-38.3" font-family="Times-Roman" font-size="14.00">GFDL&#45;1.3&#45;or&#45;later</text>
</g>
<!-- GFDL&#45;1.3&#45;or&#45;later(2) -->
<g id="node2" class="node">
<title>GFDL&#45;1.3&#45;or&#45;later(2)</title>
<ellipse fill="springgreen" stroke="springgreen" cx="1223" cy="-42" rx="88.28" ry="18"/>
<text text-anchor="middle" x="1223" y="-38.3" font-family="Times-Roman" font-size="14.00">GFDL&#45;1.3&#45;or&#45;later</text>
</g>
<!-- GNU Free Documentation License v1.3 or later(2) -->
<g id="node3" class="node">
<title>GNU Free Documentation License v1.3 or later(2)</title>
<ellipse fill="white" stroke="white" cx="897" cy="-42" rx="219.86" ry="18"/>
<text text-anchor="middle" x="897" y="-38.3" font-family="Times-Roman" font-size="14.00">GNU Free Documentation License v1.3 or later</text>
</g>
<!-- GFDL 1.3 or later(3) -->
<g id="node4" class="node">
<title>GFDL 1.3 or later(3)</title>
<ellipse fill="white" stroke="white" cx="565" cy="-42" rx="87.99" ry="18"/>
<text text-anchor="middle" x="565" y="-38.3" font-family="Times-Roman" font-size="14.00">GFDL 1.3 or later</text>
</g>
<!-- GFDL&#45;1.3&#45;or&#45;later(3) -->
<g id="node5" class="node">
<title>GFDL&#45;1.3&#45;or&#45;later(3)</title>
<ellipse fill="springgreen" stroke="springgreen" cx="371" cy="-42" rx="88.28" ry="18"/>
<text text-anchor="middle" x="371" y="-38.3" font-family="Times-Roman" font-size="14.00">GFDL&#45;1.3&#45;or&#45;later</text>
</g>
<!-- scancode://gfdl&#45;1.3&#45;plus(3) -->
<g id="node6" class="node">
<title>scancode://gfdl&#45;1.3&#45;plus(3)</title>
<ellipse fill="white" stroke="white" cx="144" cy="-42" rx="120.48" ry="18"/>
<text text-anchor="middle" x="144" y="-38.3" font-family="Times-Roman" font-size="14.00">scancode://gfdl&#45;1.3&#45;plus</text>
</g>
</g>
</svg>
