<?xml version="1.0" encoding="UTF-8" standalone="no"?>
<!DOCTYPE svg PUBLIC "-//W3C//DTD SVG 1.1//EN"
 "http://www.w3.org/Graphics/SVG/1.1/DTD/svg11.dtd">
<!-- Generated by graphviz version 2.43.0 (0)
 -->
<!-- Title: GFDL&#45;1.2&#45;invariants&#45;or&#45;later Pages: 1 -->
<svg width="603pt" height="206pt"
 viewBox="0.00 0.00 603.25 206.00" xmlns="http://www.w3.org/2000/svg" xmlns:xlink="http://www.w3.org/1999/xlink">
<g id="graph0" class="graph" transform="scale(1 1) rotate(0) translate(4 202)">
<title>GFDL&#45;1.2&#45;invariants&#45;or&#45;later</title>
<polygon fill="white" stroke="transparent" points="-4,4 -4,-202 599.25,-202 599.25,4 -4,4"/>
<g id="clust1" class="cluster">
<title>cluster_0</title>
<polygon fill="none" stroke="black" points="8,-8 8,-190 587.25,-190 587.25,-8 8,-8"/>
</g>
<g id="clust2" class="cluster">
<title>cluster_1</title>
<polygon fill="lightgray" stroke="lightgray" points="153.14,-130 153.14,-182 442.11,-182 442.11,-130 153.14,-130"/>
</g>
<g id="clust3" class="cluster">
<title>cluster_2</title>
<polygon fill="lightgray" stroke="lightgray" points="16,-16 16,-122 579.25,-122 579.25,-16 16,-16"/>
</g>
<!-- GFDL&#45;1.2&#45;invariants&#45;or&#45;later(1) -->
<g id="node1" class="node">
<title>GFDL&#45;1.2&#45;invariants&#45;or&#45;later(1)</title>
<ellipse fill="springgreen" stroke="springgreen" cx="297.63" cy="-156" rx="136.48" ry="18"/>
<text text-anchor="middle" x="297.63" y="-152.3" font-family="Times-Roman" font-size="14.00">GFDL&#45;1.2&#45;invariants&#45;or&#45;later</text>
</g>
<!-- GFDL&#45;1.2&#45;invariants&#45;or&#45;later(2) -->
<g id="node2" class="node">
<title>GFDL&#45;1.2&#45;invariants&#45;or&#45;later(2)</title>
<ellipse fill="springgreen" stroke="springgreen" cx="297.63" cy="-96" rx="136.48" ry="18"/>
<text text-anchor="middle" x="297.63" y="-92.3" font-family="Times-Roman" font-size="14.00">GFDL&#45;1.2&#45;invariants&#45;or&#45;later</text>
</g>
<!-- GNU Free Documentation License v1.2 or later &#45; invariants(2) -->
<g id="node3" class="node">
<title>GNU Free Documentation License v1.2 or later &#45; invariants(2)</title>
<ellipse fill="white" stroke="white" cx="297.63" cy="-42" rx="273.75" ry="18"/>
<text text-anchor="middle" x="297.63" y="-38.3" font-family="Times-Roman" font-size="14.00">GNU Free Documentation License v1.2 or later &#45; invariants</text>
</g>
</g>
</svg>
