<?xml version="1.0" encoding="UTF-8" standalone="no"?>
<!DOCTYPE svg PUBLIC "-//W3C//DTD SVG 1.1//EN"
 "http://www.w3.org/Graphics/SVG/1.1/DTD/svg11.dtd">
<!-- Generated by graphviz version 2.43.0 (0)
 -->
<!-- Title: GFDL&#45;1.1&#45;only Pages: 1 -->
<svg width="1056pt" height="98pt"
 viewBox="0.00 0.00 1056.00 98.43" xmlns="http://www.w3.org/2000/svg" xmlns:xlink="http://www.w3.org/1999/xlink">
<g id="graph0" class="graph" transform="scale(1 1) rotate(0) translate(4 94.43)">
<title>GFDL&#45;1.1&#45;only</title>
<polygon fill="white" stroke="transparent" points="-4,4 -4,-94.43 1052,-94.43 1052,4 -4,4"/>
<g id="clust1" class="cluster">
<title>cluster_0</title>
<polygon fill="none" stroke="black" points="8,-8 8,-82.43 1040,-82.43 1040,-8 8,-8"/>
</g>
<g id="clust2" class="cluster">
<title>cluster_1</title>
<polygon fill="lightgray" stroke="lightgray" points="792,-16 792,-74.43 1032,-74.43 1032,-16 792,-16"/>
</g>
<g id="clust3" class="cluster">
<title>cluster_2</title>
<polygon fill="lightgray" stroke="lightgray" points="356,-19.21 356,-71.21 784,-71.21 784,-19.21 356,-19.21"/>
</g>
<g id="clust4" class="cluster">
<title>cluster_3</title>
<polygon fill="lightgray" stroke="lightgray" points="16,-19.21 16,-71.21 348,-71.21 348,-19.21 16,-19.21"/>
</g>
<!-- GFDL&#45;1.1&#45;only -->
<g id="node1" class="node">
<title>GFDL&#45;1.1&#45;only</title>
<ellipse fill="darkgreen" stroke="darkgreen" cx="912" cy="-45.21" rx="111.95" ry="21.43"/>
<text text-anchor="middle" x="912" y="-40.21" font-family="Times-Roman" font-size="20.00">GFDL&#45;1.1&#45;only</text>
</g>
<!-- GNU Free Documentation License v1.1 only -->
<g id="node2" class="node">
<title>GNU Free Documentation License v1.1 only</title>
<ellipse fill="white" stroke="white" cx="570" cy="-45.21" rx="206.06" ry="18"/>
<text text-anchor="middle" x="570" y="-41.51" font-family="Times-Roman" font-size="14.00">GNU Free Documentation License v1.1 only</text>
</g>
<!-- GFDL 1.1 -->
<g id="node3" class="node">
<title>GFDL 1.1</title>
<ellipse fill="white" stroke="white" cx="288" cy="-45.21" rx="51.99" ry="18"/>
<text text-anchor="middle" x="288" y="-41.51" font-family="Times-Roman" font-size="14.00">GFDL 1.1</text>
</g>
<!-- scancode://gfdl&#45;1.1 -->
<g id="node4" class="node">
<title>scancode://gfdl&#45;1.1</title>
<ellipse fill="white" stroke="white" cx="121" cy="-45.21" rx="97.48" ry="18"/>
<text text-anchor="middle" x="121" y="-41.51" font-family="Times-Roman" font-size="14.00">scancode://gfdl&#45;1.1</text>
</g>
</g>
</svg>
