<?xml version="1.0" encoding="UTF-8" standalone="no"?>
<!DOCTYPE svg PUBLIC "-//W3C//DTD SVG 1.1//EN"
 "http://www.w3.org/Graphics/SVG/1.1/DTD/svg11.dtd">
<!-- Generated by graphviz version 2.43.0 (0)
 -->
<!-- Title: Giftware Pages: 1 -->
<svg width="764pt" height="92pt"
 viewBox="0.00 0.00 764.00 92.00" xmlns="http://www.w3.org/2000/svg" xmlns:xlink="http://www.w3.org/1999/xlink">
<g id="graph0" class="graph" transform="scale(1 1) rotate(0) translate(4 88)">
<title>Giftware</title>
<polygon fill="white" stroke="transparent" points="-4,4 -4,-88 760,-88 760,4 -4,4"/>
<g id="clust1" class="cluster">
<title>cluster_0</title>
<polygon fill="none" stroke="black" points="8,-8 8,-76 748,-76 748,-8 8,-8"/>
</g>
<g id="clust2" class="cluster">
<title>cluster_1</title>
<polygon fill="lightgray" stroke="lightgray" points="628,-16 628,-68 740,-68 740,-16 628,-16"/>
</g>
<g id="clust3" class="cluster">
<title>cluster_2</title>
<polygon fill="lightgray" stroke="lightgray" points="436,-16 436,-68 620,-68 620,-16 436,-16"/>
</g>
<g id="clust5" class="cluster">
<title>cluster_4</title>
<polygon fill="lightgray" stroke="lightgray" points="16,-16 16,-68 428,-68 428,-16 16,-16"/>
</g>
<!-- Giftware -->
<g id="node1" class="node">
<title>Giftware</title>
<ellipse fill="white" stroke="white" cx="684" cy="-42" rx="48.19" ry="18"/>
<text text-anchor="middle" x="684" y="-38.3" font-family="Times-Roman" font-size="14.00">Giftware</text>
</g>
<!-- Giftware License -->
<g id="node2" class="node">
<title>Giftware License</title>
<ellipse fill="white" stroke="white" cx="528" cy="-42" rx="84.49" ry="18"/>
<text text-anchor="middle" x="528" y="-38.3" font-family="Times-Roman" font-size="14.00">Giftware License</text>
</g>
<!-- Allegro 4 License -->
<g id="node3" class="node">
<title>Allegro 4 License</title>
<ellipse fill="white" stroke="white" cx="333" cy="-42" rx="87.18" ry="18"/>
<text text-anchor="middle" x="333" y="-38.3" font-family="Times-Roman" font-size="14.00">Allegro 4 License</text>
</g>
<!-- scancode://allegro&#45;4 -->
<g id="node4" class="node">
<title>scancode://allegro&#45;4</title>
<ellipse fill="white" stroke="white" cx="126" cy="-42" rx="102.08" ry="18"/>
<text text-anchor="middle" x="126" y="-38.3" font-family="Times-Roman" font-size="14.00">scancode://allegro&#45;4</text>
</g>
</g>
</svg>
