<?xml version="1.0" encoding="UTF-8" standalone="no"?>
<!DOCTYPE svg PUBLIC "-//W3C//DTD SVG 1.1//EN"
 "http://www.w3.org/Graphics/SVG/1.1/DTD/svg11.dtd">
<!-- Generated by graphviz version 2.43.0 (0)
 -->
<!-- Title: GL2PS Pages: 1 -->
<svg width="876pt" height="115pt"
 viewBox="0.00 0.00 876.00 115.00" xmlns="http://www.w3.org/2000/svg" xmlns:xlink="http://www.w3.org/1999/xlink">
<g id="graph0" class="graph" transform="scale(1 1) rotate(0) translate(4 111)">
<title>GL2PS</title>
<polygon fill="white" stroke="transparent" points="-4,4 -4,-111 872,-111 872,4 -4,4"/>
<g id="clust1" class="cluster">
<title>cluster_0</title>
<polygon fill="none" stroke="black" points="8,-8 8,-99 860,-99 860,-8 8,-8"/>
</g>
<g id="clust2" class="cluster">
<title>cluster_1</title>
<polygon fill="lightgray" stroke="lightgray" points="756,-16 756,-91 852,-91 852,-16 756,-16"/>
<text text-anchor="middle" x="804" y="-75.8" font-family="Times-Roman" font-size="14.00">prev</text>
</g>
<g id="clust3" class="cluster">
<title>cluster_2</title>
<polygon fill="lightgray" stroke="lightgray" points="482,-16 482,-68 748,-68 748,-16 482,-16"/>
</g>
<g id="clust4" class="cluster">
<title>cluster_3</title>
<polygon fill="lightgray" stroke="lightgray" points="16,-16 16,-68 474,-68 474,-16 16,-16"/>
</g>
<!-- GL2PS(1) -->
<g id="node1" class="node">
<title>GL2PS(1)</title>
<ellipse fill="springgreen" stroke="springgreen" cx="804" cy="-42" rx="39.79" ry="18"/>
<text text-anchor="middle" x="804" y="-38.3" font-family="Times-Roman" font-size="14.00">GL2PS</text>
</g>
<!-- GL2PS(2) -->
<g id="node2" class="node">
<title>GL2PS(2)</title>
<ellipse fill="springgreen" stroke="springgreen" cx="700" cy="-42" rx="39.79" ry="18"/>
<text text-anchor="middle" x="700" y="-38.3" font-family="Times-Roman" font-size="14.00">GL2PS</text>
</g>
<!-- GL2PS License(2) -->
<g id="node3" class="node">
<title>GL2PS License(2)</title>
<ellipse fill="white" stroke="white" cx="566" cy="-42" rx="76.09" ry="18"/>
<text text-anchor="middle" x="566" y="-38.3" font-family="Times-Roman" font-size="14.00">GL2PS License</text>
</g>
<!-- GL2PS(3) -->
<g id="node4" class="node">
<title>GL2PS(3)</title>
<ellipse fill="springgreen" stroke="springgreen" cx="426" cy="-42" rx="39.79" ry="18"/>
<text text-anchor="middle" x="426" y="-38.3" font-family="Times-Roman" font-size="14.00">GL2PS</text>
</g>
<!-- GL2PS License(3) -->
<g id="node5" class="node">
<title>GL2PS License(3)</title>
<ellipse fill="white" stroke="white" cx="292" cy="-42" rx="76.09" ry="18"/>
<text text-anchor="middle" x="292" y="-38.3" font-family="Times-Roman" font-size="14.00">GL2PS License</text>
</g>
<!-- scancode://gl2ps(3) -->
<g id="node6" class="node">
<title>scancode://gl2ps(3)</title>
<ellipse fill="white" stroke="white" cx="111" cy="-42" rx="87.18" ry="18"/>
<text text-anchor="middle" x="111" y="-38.3" font-family="Times-Roman" font-size="14.00">scancode://gl2ps</text>
</g>
</g>
</svg>
