<?xml version="1.0" encoding="UTF-8" standalone="no"?>
<!DOCTYPE svg PUBLIC "-//W3C//DTD SVG 1.1//EN"
 "http://www.w3.org/Graphics/SVG/1.1/DTD/svg11.dtd">
<!-- Generated by graphviz version 2.43.0 (0)
 -->
<!-- Title: GL2PS Pages: 1 -->
<svg width="313pt" height="488pt"
 viewBox="0.00 0.00 313.38 488.00" xmlns="http://www.w3.org/2000/svg" xmlns:xlink="http://www.w3.org/1999/xlink">
<g id="graph0" class="graph" transform="scale(1 1) rotate(0) translate(4 484)">
<title>GL2PS</title>
<polygon fill="white" stroke="transparent" points="-4,4 -4,-484 309.38,-484 309.38,4 -4,4"/>
<g id="clust1" class="cluster">
<title>cluster_0</title>
<polygon fill="none" stroke="black" points="8,-8 8,-472 297.38,-472 297.38,-8 8,-8"/>
</g>
<g id="clust2" class="cluster">
<title>cluster_1</title>
<polygon fill="lightgray" stroke="lightgray" points="105.04,-412 105.04,-464 200.34,-464 200.34,-412 105.04,-412"/>
</g>
<g id="clust3" class="cluster">
<title>cluster_2</title>
<polygon fill="lightgray" stroke="lightgray" points="68.65,-298 68.65,-404 236.73,-404 236.73,-298 68.65,-298"/>
</g>
<g id="clust4" class="cluster">
<title>cluster_3</title>
<polygon fill="lightgray" stroke="lightgray" points="57.6,-130 57.6,-290 247.78,-290 247.78,-130 57.6,-130"/>
</g>
<g id="clust5" class="cluster">
<title>cluster_4</title>
<polygon fill="lightgray" stroke="lightgray" points="16,-16 16,-122 289.38,-122 289.38,-16 16,-16"/>
</g>
<!-- GL2PS(1) -->
<g id="node1" class="node">
<title>GL2PS(1)</title>
<ellipse fill="springgreen" stroke="springgreen" cx="152.69" cy="-438" rx="39.79" ry="18"/>
<text text-anchor="middle" x="152.69" y="-434.3" font-family="Times-Roman" font-size="14.00">GL2PS</text>
</g>
<!-- GL2PS(2) -->
<g id="node2" class="node">
<title>GL2PS(2)</title>
<ellipse fill="springgreen" stroke="springgreen" cx="152.69" cy="-378" rx="39.79" ry="18"/>
<text text-anchor="middle" x="152.69" y="-374.3" font-family="Times-Roman" font-size="14.00">GL2PS</text>
</g>
<!-- GL2PS License(2) -->
<g id="node3" class="node">
<title>GL2PS License(2)</title>
<ellipse fill="white" stroke="white" cx="152.69" cy="-324" rx="76.09" ry="18"/>
<text text-anchor="middle" x="152.69" y="-320.3" font-family="Times-Roman" font-size="14.00">GL2PS License</text>
</g>
<!-- GL2PS(3) -->
<g id="node4" class="node">
<title>GL2PS(3)</title>
<ellipse fill="springgreen" stroke="springgreen" cx="152.69" cy="-264" rx="39.79" ry="18"/>
<text text-anchor="middle" x="152.69" y="-260.3" font-family="Times-Roman" font-size="14.00">GL2PS</text>
</g>
<!-- GL2PS License(3) -->
<g id="node5" class="node">
<title>GL2PS License(3)</title>
<ellipse fill="white" stroke="white" cx="152.69" cy="-210" rx="76.09" ry="18"/>
<text text-anchor="middle" x="152.69" y="-206.3" font-family="Times-Roman" font-size="14.00">GL2PS License</text>
</g>
<!-- scancode://gl2ps(3) -->
<g id="node6" class="node">
<title>scancode://gl2ps(3)</title>
<ellipse fill="white" stroke="white" cx="152.69" cy="-156" rx="87.18" ry="18"/>
<text text-anchor="middle" x="152.69" y="-152.3" font-family="Times-Roman" font-size="14.00">scancode://gl2ps</text>
</g>
<!-- GL2PS(4) -->
<g id="node7" class="node">
<title>GL2PS(4)</title>
<ellipse fill="springgreen" stroke="springgreen" cx="152.69" cy="-96" rx="39.79" ry="18"/>
<text text-anchor="middle" x="152.69" y="-92.3" font-family="Times-Roman" font-size="14.00">GL2PS</text>
</g>
<!-- GL2PS LICENSE, Version 2(4) -->
<g id="node8" class="node">
<title>GL2PS LICENSE, Version 2(4)</title>
<ellipse fill="white" stroke="white" cx="152.69" cy="-42" rx="128.88" ry="18"/>
<text text-anchor="middle" x="152.69" y="-38.3" font-family="Times-Roman" font-size="14.00">GL2PS LICENSE, Version 2</text>
</g>
</g>
</svg>
