<?xml version="1.0" encoding="UTF-8" standalone="no"?>
<!DOCTYPE svg PUBLIC "-//W3C//DTD SVG 1.1//EN"
 "http://www.w3.org/Graphics/SVG/1.1/DTD/svg11.dtd">
<!-- Generated by graphviz version 2.43.0 (0)
 -->
<!-- Title: GL2PS Pages: 1 -->
<svg width="230pt" height="488pt"
 viewBox="0.00 0.00 230.18 488.00" xmlns="http://www.w3.org/2000/svg" xmlns:xlink="http://www.w3.org/1999/xlink">
<g id="graph0" class="graph" transform="scale(1 1) rotate(0) translate(4 484)">
<title>GL2PS</title>
<polygon fill="white" stroke="transparent" points="-4,4 -4,-484 226.18,-484 226.18,4 -4,4"/>
<g id="clust1" class="cluster">
<title>cluster_0</title>
<polygon fill="none" stroke="black" points="8,-8 8,-472 214.18,-472 214.18,-8 8,-8"/>
</g>
<g id="clust2" class="cluster">
<title>cluster_1</title>
<polygon fill="lightgray" stroke="lightgray" points="63.45,-412 63.45,-464 158.74,-464 158.74,-412 63.45,-412"/>
</g>
<g id="clust3" class="cluster">
<title>cluster_2</title>
<polygon fill="lightgray" stroke="lightgray" points="27.05,-298 27.05,-404 195.14,-404 195.14,-298 27.05,-298"/>
</g>
<g id="clust4" class="cluster">
<title>cluster_3</title>
<polygon fill="lightgray" stroke="lightgray" points="16,-130 16,-290 206.18,-290 206.18,-130 16,-130"/>
</g>
<g id="clust5" class="cluster">
<title>cluster_4</title>
<polygon fill="lightgray" stroke="lightgray" points="27.05,-16 27.05,-122 195.14,-122 195.14,-16 27.05,-16"/>
</g>
<!-- GL2PS(1) -->
<g id="node1" class="node">
<title>GL2PS(1)</title>
<ellipse fill="springgreen" stroke="springgreen" cx="111.09" cy="-438" rx="39.79" ry="18"/>
<text text-anchor="middle" x="111.09" y="-434.3" font-family="Times-Roman" font-size="14.00">GL2PS</text>
</g>
<!-- GL2PS(2) -->
<g id="node2" class="node">
<title>GL2PS(2)</title>
<ellipse fill="springgreen" stroke="springgreen" cx="111.09" cy="-378" rx="39.79" ry="18"/>
<text text-anchor="middle" x="111.09" y="-374.3" font-family="Times-Roman" font-size="14.00">GL2PS</text>
</g>
<!-- GL2PS License(2) -->
<g id="node3" class="node">
<title>GL2PS License(2)</title>
<ellipse fill="white" stroke="white" cx="111.09" cy="-324" rx="76.09" ry="18"/>
<text text-anchor="middle" x="111.09" y="-320.3" font-family="Times-Roman" font-size="14.00">GL2PS License</text>
</g>
<!-- GL2PS(3) -->
<g id="node4" class="node">
<title>GL2PS(3)</title>
<ellipse fill="springgreen" stroke="springgreen" cx="111.09" cy="-264" rx="39.79" ry="18"/>
<text text-anchor="middle" x="111.09" y="-260.3" font-family="Times-Roman" font-size="14.00">GL2PS</text>
</g>
<!-- GL2PS License(3) -->
<g id="node5" class="node">
<title>GL2PS License(3)</title>
<ellipse fill="white" stroke="white" cx="111.09" cy="-210" rx="76.09" ry="18"/>
<text text-anchor="middle" x="111.09" y="-206.3" font-family="Times-Roman" font-size="14.00">GL2PS License</text>
</g>
<!-- scancode://gl2ps(3) -->
<g id="node6" class="node">
<title>scancode://gl2ps(3)</title>
<ellipse fill="white" stroke="white" cx="111.09" cy="-156" rx="87.18" ry="18"/>
<text text-anchor="middle" x="111.09" y="-152.3" font-family="Times-Roman" font-size="14.00">scancode://gl2ps</text>
</g>
<!-- GL2PS(4) -->
<g id="node7" class="node">
<title>GL2PS(4)</title>
<ellipse fill="springgreen" stroke="springgreen" cx="111.09" cy="-96" rx="39.79" ry="18"/>
<text text-anchor="middle" x="111.09" y="-92.3" font-family="Times-Roman" font-size="14.00">GL2PS</text>
</g>
<!-- GL2PS License(4) -->
<g id="node8" class="node">
<title>GL2PS License(4)</title>
<ellipse fill="white" stroke="white" cx="111.09" cy="-42" rx="76.09" ry="18"/>
<text text-anchor="middle" x="111.09" y="-38.3" font-family="Times-Roman" font-size="14.00">GL2PS License</text>
</g>
</g>
</svg>
