<?xml version="1.0" encoding="UTF-8" standalone="no"?>
<!DOCTYPE svg PUBLIC "-//W3C//DTD SVG 1.1//EN"
 "http://www.w3.org/Graphics/SVG/1.1/DTD/svg11.dtd">
<!-- Generated by graphviz version 2.43.0 (0)
 -->
<!-- Title: Glide Pages: 1 -->
<svg width="705pt" height="98pt"
 viewBox="0.00 0.00 705.00 98.43" xmlns="http://www.w3.org/2000/svg" xmlns:xlink="http://www.w3.org/1999/xlink">
<g id="graph0" class="graph" transform="scale(1 1) rotate(0) translate(4 94.43)">
<title>Glide</title>
<polygon fill="white" stroke="transparent" points="-4,4 -4,-94.43 701,-94.43 701,4 -4,4"/>
<g id="clust1" class="cluster">
<title>cluster_0</title>
<polygon fill="none" stroke="black" points="8,-8 8,-82.43 689,-82.43 689,-8 8,-8"/>
</g>
<g id="clust2" class="cluster">
<title>cluster_1</title>
<polygon fill="lightgray" stroke="lightgray" points="569,-16 569,-74.43 681,-74.43 681,-16 569,-16"/>
</g>
<g id="clust3" class="cluster">
<title>cluster_2</title>
<polygon fill="lightgray" stroke="lightgray" points="357,-19.21 357,-71.21 561,-71.21 561,-19.21 357,-19.21"/>
</g>
<g id="clust4" class="cluster">
<title>cluster_3</title>
<polygon fill="lightgray" stroke="lightgray" points="16,-19.21 16,-71.21 349,-71.21 349,-19.21 16,-19.21"/>
</g>
<!-- Glide -->
<g id="node1" class="node">
<title>Glide</title>
<ellipse fill="white" stroke="white" cx="625" cy="-45.21" rx="48.17" ry="21.43"/>
<text text-anchor="middle" x="625" y="-40.21" font-family="Times-Roman" font-size="20.00" fill="#00ff00">Glide</text>
</g>
<!-- 3dfx Glide License -->
<g id="node2" class="node">
<title>3dfx Glide License</title>
<ellipse fill="white" stroke="white" cx="459" cy="-45.21" rx="93.68" ry="18"/>
<text text-anchor="middle" x="459" y="-41.51" font-family="Times-Roman" font-size="14.00">3dfx Glide License</text>
</g>
<!-- 3DFX GLIDE -->
<g id="node3" class="node">
<title>3DFX GLIDE</title>
<ellipse fill="white" stroke="white" cx="275" cy="-45.21" rx="65.79" ry="18"/>
<text text-anchor="middle" x="275" y="-41.51" font-family="Times-Roman" font-size="14.00">3DFX GLIDE</text>
</g>
<!-- scancode://glide -->
<g id="node4" class="node">
<title>scancode://glide</title>
<ellipse fill="white" stroke="white" cx="108" cy="-45.21" rx="83.69" ry="18"/>
<text text-anchor="middle" x="108" y="-41.51" font-family="Times-Roman" font-size="14.00">scancode://glide</text>
</g>
</g>
</svg>
