<?xml version="1.0" encoding="UTF-8" standalone="no"?>
<!DOCTYPE svg PUBLIC "-//W3C//DTD SVG 1.1//EN"
 "http://www.w3.org/Graphics/SVG/1.1/DTD/svg11.dtd">
<!-- Generated by graphviz version 2.43.0 (0)
 -->
<!-- Title: Glulxe Pages: 1 -->
<svg width="511pt" height="115pt"
 viewBox="0.00 0.00 511.00 115.00" xmlns="http://www.w3.org/2000/svg" xmlns:xlink="http://www.w3.org/1999/xlink">
<g id="graph0" class="graph" transform="scale(1 1) rotate(0) translate(4 111)">
<title>Glulxe</title>
<polygon fill="white" stroke="transparent" points="-4,4 -4,-111 507,-111 507,4 -4,4"/>
<g id="clust1" class="cluster">
<title>cluster_0</title>
<polygon fill="none" stroke="black" points="8,-8 8,-99 495,-99 495,-8 8,-8"/>
</g>
<g id="clust2" class="cluster">
<title>cluster_1</title>
<polygon fill="lightgray" stroke="lightgray" points="392,-16 392,-91 487,-91 487,-16 392,-16"/>
<text text-anchor="middle" x="439.5" y="-75.8" font-family="Times-Roman" font-size="14.00">process #1</text>
</g>
<g id="clust3" class="cluster">
<title>cluster_2</title>
<polygon fill="lightgray" stroke="lightgray" points="218,-16 218,-91 384,-91 384,-16 218,-16"/>
<text text-anchor="middle" x="301" y="-75.8" font-family="Times-Roman" font-size="14.00">process #1</text>
</g>
<g id="clust4" class="cluster">
<title>cluster_3</title>
<polygon fill="lightgray" stroke="lightgray" points="16,-16 16,-91 210,-91 210,-16 16,-16"/>
<text text-anchor="middle" x="113" y="-75.8" font-family="Times-Roman" font-size="14.00">process #1</text>
</g>
<!-- Glulxe -->
<g id="node1" class="node">
<title>Glulxe</title>
<ellipse fill="white" stroke="white" cx="439" cy="-42" rx="38.19" ry="18"/>
<text text-anchor="middle" x="439" y="-38.3" font-family="Times-Roman" font-size="14.00">Glulxe</text>
</g>
<!-- Glulxe License -->
<g id="node2" class="node">
<title>Glulxe License</title>
<ellipse fill="white" stroke="white" cx="301" cy="-42" rx="75.29" ry="18"/>
<text text-anchor="middle" x="301" y="-38.3" font-family="Times-Roman" font-size="14.00">Glulxe License</text>
</g>
<!-- scancode://glulxe -->
<g id="node3" class="node">
<title>scancode://glulxe</title>
<ellipse fill="white" stroke="white" cx="113" cy="-42" rx="89.08" ry="18"/>
<text text-anchor="middle" x="113" y="-38.3" font-family="Times-Roman" font-size="14.00">scancode://glulxe</text>
</g>
</g>
</svg>
