<?xml version="1.0" encoding="UTF-8" standalone="no"?>
<!DOCTYPE svg PUBLIC "-//W3C//DTD SVG 1.1//EN"
 "http://www.w3.org/Graphics/SVG/1.1/DTD/svg11.dtd">
<!-- Generated by graphviz version 2.43.0 (0)
 -->
<!-- Title: GPL&#45;3.0&#45;only Pages: 1 -->
<svg width="9278pt" height="130pt"
 viewBox="0.00 0.00 9278.00 130.43" xmlns="http://www.w3.org/2000/svg" xmlns:xlink="http://www.w3.org/1999/xlink">
<g id="graph0" class="graph" transform="scale(1 1) rotate(0) translate(4 126.43)">
<title>GPL&#45;3.0&#45;only</title>
<polygon fill="white" stroke="transparent" points="-4,4 -4,-126.43 9274,-126.43 9274,4 -4,4"/>
<g id="clust1" class="cluster">
<title>cluster_0</title>
<polygon fill="none" stroke="black" points="8,-8 8,-114.43 9262,-114.43 9262,-8 8,-8"/>
</g>
<g id="clust2" class="cluster">
<title>cluster_1</title>
<polygon fill="none" stroke="black" points="2620,-16 2620,-106.43 9254,-106.43 9254,-16 2620,-16"/>
</g>
<g id="clust3" class="cluster">
<title>cluster_2</title>
<polygon fill="none" stroke="black" points="6274,-24 6274,-98.43 9246,-98.43 9246,-24 6274,-24"/>
</g>
<g id="clust4" class="cluster">
<title>cluster_3</title>
<polygon fill="lightgray" stroke="lightgray" points="8980,-32 8980,-90.43 9238,-90.43 9238,-32 8980,-32"/>
</g>
<g id="clust5" class="cluster">
<title>cluster_4</title>
<polygon fill="lightgray" stroke="lightgray" points="8310,-32 8310,-90.43 8972,-90.43 8972,-32 8310,-32"/>
</g>
<g id="clust6" class="cluster">
<title>cluster_5</title>
<polygon fill="lightgray" stroke="lightgray" points="7678,-32 7678,-90.43 8302,-90.43 8302,-32 7678,-32"/>
</g>
<g id="clust7" class="cluster">
<title>cluster_6</title>
<polygon fill="lightgray" stroke="lightgray" points="7062,-32 7062,-90.43 7670,-90.43 7670,-32 7062,-32"/>
</g>
<g id="clust8" class="cluster">
<title>cluster_7</title>
<polygon fill="lightgray" stroke="lightgray" points="6282,-32 6282,-90.43 7054,-90.43 7054,-32 6282,-32"/>
</g>
<g id="clust9" class="cluster">
<title>cluster_8</title>
<polygon fill="lightgray" stroke="lightgray" points="5835,-35.21 5835,-87.21 6266,-87.21 6266,-35.21 5835,-35.21"/>
</g>
<g id="clust10" class="cluster">
<title>cluster_9</title>
<polygon fill="lightgray" stroke="lightgray" points="4002,-35.21 4002,-87.21 5827,-87.21 5827,-35.21 4002,-35.21"/>
</g>
<g id="clust11" class="cluster">
<title>cluster_10</title>
<polygon fill="lightgray" stroke="lightgray" points="3315,-32 3315,-90.43 3994,-90.43 3994,-32 3315,-32"/>
</g>
<g id="clust12" class="cluster">
<title>cluster_11</title>
<polygon fill="lightgray" stroke="lightgray" points="2628,-32 2628,-90.43 3307,-90.43 3307,-32 2628,-32"/>
</g>
<g id="clust13" class="cluster">
<title>cluster_12</title>
<polygon fill="lightgray" stroke="lightgray" points="1851,-32 1851,-90.43 2612,-90.43 2612,-32 1851,-32"/>
</g>
<g id="clust14" class="cluster">
<title>cluster_13</title>
<polygon fill="lightgray" stroke="lightgray" points="1021,-32 1021,-90.43 1843,-90.43 1843,-32 1021,-32"/>
</g>
<g id="clust15" class="cluster">
<title>cluster_14</title>
<polygon fill="lightgray" stroke="lightgray" points="16,-32 16,-90.43 1013,-90.43 1013,-32 16,-32"/>
</g>
<!-- GPL&#45;3.0&#45;only(3) -->
<g id="node1" class="node">
<title>GPL&#45;3.0&#45;only(3)</title>
<ellipse fill="springgreen" stroke="springgreen" cx="9109" cy="-61.21" rx="120.83" ry="21.43"/>
<text text-anchor="middle" x="9109" y="-56.21" font-family="Times-Roman" font-size="20.00">GPL&#45;3.0&#45;only(3)</text>
</g>
<!-- GNU General Public License v3.0 only(4) -->
<g id="node2" class="node">
<title>GNU General Public License v3.0 only(4)</title>
<ellipse fill="white" stroke="white" cx="8771" cy="-61.21" rx="193.07" ry="18"/>
<text text-anchor="middle" x="8771" y="-57.51" font-family="Times-Roman" font-size="14.00">GNU General Public License v3.0 only(4)</text>
</g>
<!-- GPL&#45;3.0&#45;only(4) -->
<g id="node3" class="node">
<title>GPL&#45;3.0&#45;only(4)</title>
<ellipse fill="springgreen" stroke="springgreen" cx="8439" cy="-61.21" rx="120.83" ry="21.43"/>
<text text-anchor="middle" x="8439" y="-56.21" font-family="Times-Roman" font-size="20.00">GPL&#45;3.0&#45;only(4)</text>
</g>
<!-- GPL 3.0(5) -->
<g id="node4" class="node">
<title>GPL 3.0(5)</title>
<ellipse fill="white" stroke="white" cx="8236" cy="-61.21" rx="57.69" ry="18"/>
<text text-anchor="middle" x="8236" y="-57.51" font-family="Times-Roman" font-size="14.00">GPL 3.0(5)</text>
</g>
<!-- GPL&#45;3.0&#45;only(5) -->
<g id="node5" class="node">
<title>GPL&#45;3.0&#45;only(5)</title>
<ellipse fill="springgreen" stroke="springgreen" cx="8039" cy="-61.21" rx="120.83" ry="21.43"/>
<text text-anchor="middle" x="8039" y="-56.21" font-family="Times-Roman" font-size="20.00">GPL&#45;3.0&#45;only(5)</text>
</g>
<!-- scancode://gpl&#45;3.0(5) -->
<g id="node6" class="node">
<title>scancode://gpl&#45;3.0(5)</title>
<ellipse fill="white" stroke="white" cx="7793" cy="-61.21" rx="106.68" ry="18"/>
<text text-anchor="middle" x="7793" y="-57.51" font-family="Times-Roman" font-size="14.00">scancode://gpl&#45;3.0(5)</text>
</g>
<!-- GNU General Public License 3.0(6) -->
<g id="node7" class="node">
<title>GNU General Public License 3.0(6)</title>
<ellipse fill="white" stroke="white" cx="7496" cy="-61.21" rx="165.97" ry="18"/>
<text text-anchor="middle" x="7496" y="-57.51" font-family="Times-Roman" font-size="14.00">GNU General Public License 3.0(6)</text>
</g>
<!-- GPL&#45;3.0&#45;only(6) -->
<g id="node8" class="node">
<title>GPL&#45;3.0&#45;only(6)</title>
<ellipse fill="springgreen" stroke="springgreen" cx="7191" cy="-61.21" rx="120.83" ry="21.43"/>
<text text-anchor="middle" x="7191" y="-56.21" font-family="Times-Roman" font-size="20.00">GPL&#45;3.0&#45;only(6)</text>
</g>
<!-- GPL (v3)(7) -->
<g id="node9" class="node">
<title>GPL (v3)(7)</title>
<ellipse fill="white" stroke="white" cx="6984" cy="-61.21" rx="61.99" ry="18"/>
<text text-anchor="middle" x="6984" y="-57.51" font-family="Times-Roman" font-size="14.00">GPL (v3)(7)</text>
</g>
<!-- GPL&#45;3.0(7) -->
<g id="node10" class="node">
<title>GPL&#45;3.0(7)</title>
<ellipse fill="white" stroke="white" cx="6846" cy="-61.21" rx="58.49" ry="18"/>
<text text-anchor="middle" x="6846" y="-57.51" font-family="Times-Roman" font-size="14.00">GPL&#45;3.0(7)</text>
</g>
<!-- GPL&#45;3.0&#45;only(7) -->
<g id="node11" class="node">
<title>GPL&#45;3.0&#45;only(7)</title>
<ellipse fill="springgreen" stroke="springgreen" cx="6649" cy="-61.21" rx="120.83" ry="21.43"/>
<text text-anchor="middle" x="6649" y="-56.21" font-family="Times-Roman" font-size="20.00">GPL&#45;3.0&#45;only(7)</text>
</g>
<!-- GPL3(7) -->
<g id="node12" class="node">
<title>GPL3(7)</title>
<ellipse fill="white" stroke="white" cx="6464" cy="-61.21" rx="46.29" ry="18"/>
<text text-anchor="middle" x="6464" y="-57.51" font-family="Times-Roman" font-size="14.00">GPL3(7)</text>
</g>
<!-- GPL3.0(7) -->
<g id="node13" class="node">
<title>GPL3.0(7)</title>
<ellipse fill="white" stroke="white" cx="6345" cy="-61.21" rx="55.49" ry="18"/>
<text text-anchor="middle" x="6345" y="-57.51" font-family="Times-Roman" font-size="14.00">GPL3.0(7)</text>
</g>
<!-- GNU GPLv3(8) -->
<g id="node14" class="node">
<title>GNU GPLv3(8)</title>
<ellipse fill="white" stroke="white" cx="6183" cy="-61.21" rx="75.29" ry="18"/>
<text text-anchor="middle" x="6183" y="-57.51" font-family="Times-Roman" font-size="14.00">GNU GPLv3(8)</text>
</g>
<!-- GPL&#45;3.0(8) -->
<g id="node15" class="node">
<title>GPL&#45;3.0(8)</title>
<ellipse fill="white" stroke="white" cx="6031" cy="-61.21" rx="58.49" ry="18"/>
<text text-anchor="middle" x="6031" y="-57.51" font-family="Times-Roman" font-size="14.00">GPL&#45;3.0(8)</text>
</g>
<!-- gpl&#45;3.0(8) -->
<g id="node16" class="node">
<title>gpl&#45;3.0(8)</title>
<ellipse fill="white" stroke="white" cx="5899" cy="-61.21" rx="55.79" ry="18"/>
<text text-anchor="middle" x="5899" y="-57.51" font-family="Times-Roman" font-size="14.00">gpl&#45;3.0(8)</text>
</g>
<!-- GNU General Public License, Version 3.0(9) -->
<g id="node17" class="node">
<title>GNU General Public License, Version 3.0(9)</title>
<ellipse fill="white" stroke="white" cx="5614" cy="-61.21" rx="204.96" ry="18"/>
<text text-anchor="middle" x="5614" y="-57.51" font-family="Times-Roman" font-size="14.00">GNU General Public License, Version 3.0(9)</text>
</g>
<!-- GPL&#45;3.0(9) -->
<g id="node18" class="node">
<title>GPL&#45;3.0(9)</title>
<ellipse fill="white" stroke="white" cx="5333" cy="-61.21" rx="58.49" ry="18"/>
<text text-anchor="middle" x="5333" y="-57.51" font-family="Times-Roman" font-size="14.00">GPL&#45;3.0(9)</text>
</g>
<!-- License :: OSI Approved :: GNU General Public License (GPL)(9) -->
<g id="node19" class="node">
<title>License :: OSI Approved :: GNU General Public License (GPL)(9)</title>
<ellipse fill="white" stroke="white" cx="4962" cy="-61.21" rx="294.35" ry="18"/>
<text text-anchor="middle" x="4962" y="-57.51" font-family="Times-Roman" font-size="14.00">License :: OSI Approved :: GNU General Public License (GPL)(9)</text>
</g>
<!-- License :: OSI Approved :: GNU General Public License v3 (GPLv3)(9) -->
<g id="node20" class="node">
<title>License :: OSI Approved :: GNU General Public License v3 (GPLv3)(9)</title>
<ellipse fill="white" stroke="white" cx="4330" cy="-61.21" rx="319.54" ry="18"/>
<text text-anchor="middle" x="4330" y="-57.51" font-family="Times-Roman" font-size="14.00">License :: OSI Approved :: GNU General Public License v3 (GPLv3)(9)</text>
</g>
<!-- GNU General Public License 3.0(10) -->
<g id="node21" class="node">
<title>GNU General Public License 3.0(10)</title>
<ellipse fill="white" stroke="white" cx="3814" cy="-61.21" rx="171.67" ry="18"/>
<text text-anchor="middle" x="3814" y="-57.51" font-family="Times-Roman" font-size="14.00">GNU General Public License 3.0(10)</text>
</g>
<!-- GPL&#45;3.0&#45;or&#45;later(10) -->
<g id="node22" class="node">
<title>GPL&#45;3.0&#45;or&#45;later(10)</title>
<ellipse fill="orange" stroke="orange" cx="3474" cy="-61.21" rx="150.73" ry="21.43"/>
<text text-anchor="middle" x="3474" y="-56.21" font-family="Times-Roman" font-size="20.00">GPL&#45;3.0&#45;or&#45;later(10)</text>
</g>
<!-- GNU General Public License 3.0(11) -->
<g id="node23" class="node">
<title>GNU General Public License 3.0(11)</title>
<ellipse fill="white" stroke="white" cx="3127" cy="-61.21" rx="171.67" ry="18"/>
<text text-anchor="middle" x="3127" y="-57.51" font-family="Times-Roman" font-size="14.00">GNU General Public License 3.0(11)</text>
</g>
<!-- GPL&#45;3.0&#45;or&#45;later(11) -->
<g id="node24" class="node">
<title>GPL&#45;3.0&#45;or&#45;later(11)</title>
<ellipse fill="orange" stroke="orange" cx="2787" cy="-61.21" rx="150.73" ry="21.43"/>
<text text-anchor="middle" x="2787" y="-56.21" font-family="Times-Roman" font-size="20.00">GPL&#45;3.0&#45;or&#45;later(11)</text>
</g>
<!-- GNU General Public License v3.0 or later(12) -->
<g id="node25" class="node">
<title>GNU General Public License v3.0 or later(12)</title>
<ellipse fill="white" stroke="white" cx="2391" cy="-61.21" rx="212.56" ry="18"/>
<text text-anchor="middle" x="2391" y="-57.51" font-family="Times-Roman" font-size="14.00">GNU General Public License v3.0 or later(12)</text>
</g>
<!-- GPL&#45;3.0&#45;or&#45;later(12) -->
<g id="node26" class="node">
<title>GPL&#45;3.0&#45;or&#45;later(12)</title>
<ellipse fill="orange" stroke="orange" cx="2010" cy="-61.21" rx="150.73" ry="21.43"/>
<text text-anchor="middle" x="2010" y="-56.21" font-family="Times-Roman" font-size="20.00">GPL&#45;3.0&#45;or&#45;later(12)</text>
</g>
<!-- GPL 3.0 or later(13) -->
<g id="node27" class="node">
<title>GPL 3.0 or later(13)</title>
<ellipse fill="white" stroke="white" cx="1736" cy="-61.21" rx="99.38" ry="18"/>
<text text-anchor="middle" x="1736" y="-57.51" font-family="Times-Roman" font-size="14.00">GPL 3.0 or later(13)</text>
</g>
<!-- GPL&#45;3.0&#45;or&#45;later(13) -->
<g id="node28" class="node">
<title>GPL&#45;3.0&#45;or&#45;later(13)</title>
<ellipse fill="orange" stroke="orange" cx="1468" cy="-61.21" rx="150.73" ry="21.43"/>
<text text-anchor="middle" x="1468" y="-56.21" font-family="Times-Roman" font-size="20.00">GPL&#45;3.0&#45;or&#45;later(13)</text>
</g>
<!-- scancode://gpl&#45;3.0&#45;plus(13) -->
<g id="node29" class="node">
<title>scancode://gpl&#45;3.0&#45;plus(13)</title>
<ellipse fill="white" stroke="white" cx="1164" cy="-61.21" rx="135.38" ry="18"/>
<text text-anchor="middle" x="1164" y="-57.51" font-family="Times-Roman" font-size="14.00">scancode://gpl&#45;3.0&#45;plus(13)</text>
</g>
<!-- GPL (v3 or later)(14) -->
<g id="node30" class="node">
<title>GPL (v3 or later)(14)</title>
<ellipse fill="white" stroke="white" cx="902" cy="-61.21" rx="102.88" ry="18"/>
<text text-anchor="middle" x="902" y="-57.51" font-family="Times-Roman" font-size="14.00">GPL (v3 or later)(14)</text>
</g>
<!-- GPL&#45;3.0+(14) -->
<g id="node31" class="node">
<title>GPL&#45;3.0+(14)</title>
<ellipse fill="white" stroke="white" cx="709" cy="-61.21" rx="72.29" ry="18"/>
<text text-anchor="middle" x="709" y="-57.51" font-family="Times-Roman" font-size="14.00">GPL&#45;3.0+(14)</text>
</g>
<!-- GPL&#45;3.0&#45;or&#45;later(14) -->
<g id="node32" class="node">
<title>GPL&#45;3.0&#45;or&#45;later(14)</title>
<ellipse fill="orange" stroke="orange" cx="468" cy="-61.21" rx="150.73" ry="21.43"/>
<text text-anchor="middle" x="468" y="-56.21" font-family="Times-Roman" font-size="20.00">GPL&#45;3.0&#45;or&#45;later(14)</text>
</g>
<!-- GPL3+(14) -->
<g id="node33" class="node">
<title>GPL3+(14)</title>
<ellipse fill="white" stroke="white" cx="240" cy="-61.21" rx="59.59" ry="18"/>
<text text-anchor="middle" x="240" y="-57.51" font-family="Times-Roman" font-size="14.00">GPL3+(14)</text>
</g>
<!-- GPL3.0+(14) -->
<g id="node34" class="node">
<title>GPL3.0+(14)</title>
<ellipse fill="white" stroke="white" cx="93" cy="-61.21" rx="68.79" ry="18"/>
<text text-anchor="middle" x="93" y="-57.51" font-family="Times-Roman" font-size="14.00">GPL3.0+(14)</text>
</g>
</g>
</svg>
