<?xml version="1.0" encoding="UTF-8" standalone="no"?>
<!DOCTYPE svg PUBLIC "-//W3C//DTD SVG 1.1//EN"
 "http://www.w3.org/Graphics/SVG/1.1/DTD/svg11.dtd">
<!-- Generated by graphviz version 2.43.0 (0)
 -->
<!-- Title: GPL&#45;2.0&#45;only Pages: 1 -->
<svg width="687pt" height="1804pt"
 viewBox="0.00 0.00 686.85 1804.00" xmlns="http://www.w3.org/2000/svg" xmlns:xlink="http://www.w3.org/1999/xlink">
<g id="graph0" class="graph" transform="scale(1 1) rotate(0) translate(4 1800)">
<title>GPL&#45;2.0&#45;only</title>
<polygon fill="white" stroke="transparent" points="-4,4 -4,-1800 682.85,-1800 682.85,4 -4,4"/>
<g id="clust1" class="cluster">
<title>cluster_0</title>
<polygon fill="none" stroke="black" points="8,-8 8,-1788 670.85,-1788 670.85,-8 8,-8"/>
</g>
<g id="clust2" class="cluster">
<title>cluster_1</title>
<polygon fill="none" stroke="black" points="16,-574 16,-1780 662.85,-1780 662.85,-574 16,-574"/>
</g>
<g id="clust3" class="cluster">
<title>cluster_2</title>
<polygon fill="none" stroke="black" points="142.74,-1032 142.74,-1772 536.11,-1772 536.11,-1032 142.74,-1032"/>
</g>
<g id="clust4" class="cluster">
<title>cluster_3</title>
<polygon fill="lightgray" stroke="lightgray" points="263.18,-1712 263.18,-1764 415.67,-1764 415.67,-1712 263.18,-1712"/>
</g>
<g id="clust5" class="cluster">
<title>cluster_4</title>
<polygon fill="lightgray" stroke="lightgray" points="150.74,-1598 150.74,-1704 528.11,-1704 528.11,-1598 150.74,-1598"/>
</g>
<g id="clust6" class="cluster">
<title>cluster_5</title>
<polygon fill="lightgray" stroke="lightgray" points="237.18,-1430 237.18,-1590 441.66,-1590 441.66,-1430 237.18,-1430"/>
</g>
<g id="clust7" class="cluster">
<title>cluster_6</title>
<polygon fill="lightgray" stroke="lightgray" points="178.04,-1316 178.04,-1422 500.81,-1422 500.81,-1316 178.04,-1316"/>
</g>
<g id="clust8" class="cluster">
<title>cluster_7</title>
<polygon fill="lightgray" stroke="lightgray" points="263.18,-1040 263.18,-1308 415.67,-1308 415.67,-1040 263.18,-1040"/>
</g>
<g id="clust9" class="cluster">
<title>cluster_8</title>
<polygon fill="lightgray" stroke="lightgray" points="269.03,-864 269.03,-1024 409.82,-1024 409.82,-864 269.03,-864"/>
</g>
<g id="clust10" class="cluster">
<title>cluster_9</title>
<polygon fill="lightgray" stroke="lightgray" points="24,-696 24,-856 654.85,-856 654.85,-696 24,-696"/>
</g>
<g id="clust11" class="cluster">
<title>cluster_10</title>
<polygon fill="lightgray" stroke="lightgray" points="178.04,-582 178.04,-688 500.81,-688 500.81,-582 178.04,-582"/>
</g>
<g id="clust12" class="cluster">
<title>cluster_11</title>
<polygon fill="lightgray" stroke="lightgray" points="137.09,-460 137.09,-566 541.76,-566 541.76,-460 137.09,-460"/>
</g>
<g id="clust13" class="cluster">
<title>cluster_12</title>
<polygon fill="lightgray" stroke="lightgray" points="215.08,-292 215.08,-452 463.76,-452 463.76,-292 215.08,-292"/>
</g>
<g id="clust14" class="cluster">
<title>cluster_13</title>
<polygon fill="lightgray" stroke="lightgray" points="246.93,-16 246.93,-284 431.92,-284 431.92,-16 246.93,-16"/>
</g>
<!-- GPL&#45;2.0&#45;only(3) -->
<g id="node1" class="node">
<title>GPL&#45;2.0&#45;only(3)</title>
<ellipse fill="springgreen" stroke="springgreen" cx="339.42" cy="-1738" rx="68.49" ry="18"/>
<text text-anchor="middle" x="339.42" y="-1734.3" font-family="Times-Roman" font-size="14.00">GPL&#45;2.0&#45;only</text>
</g>
<!-- GNU General Public License v2.0 only(4) -->
<g id="node2" class="node">
<title>GNU General Public License v2.0 only(4)</title>
<ellipse fill="white" stroke="white" cx="339.42" cy="-1678" rx="180.87" ry="18"/>
<text text-anchor="middle" x="339.42" y="-1674.3" font-family="Times-Roman" font-size="14.00">GNU General Public License v2.0 only</text>
</g>
<!-- GPL&#45;2.0&#45;only(4) -->
<g id="node3" class="node">
<title>GPL&#45;2.0&#45;only(4)</title>
<ellipse fill="springgreen" stroke="springgreen" cx="339.42" cy="-1624" rx="68.49" ry="18"/>
<text text-anchor="middle" x="339.42" y="-1620.3" font-family="Times-Roman" font-size="14.00">GPL&#45;2.0&#45;only</text>
</g>
<!-- GPL 2.0(5) -->
<g id="node4" class="node">
<title>GPL 2.0(5)</title>
<ellipse fill="white" stroke="white" cx="339.42" cy="-1564" rx="45.49" ry="18"/>
<text text-anchor="middle" x="339.42" y="-1560.3" font-family="Times-Roman" font-size="14.00">GPL 2.0</text>
</g>
<!-- GPL&#45;2.0&#45;only(5) -->
<g id="node5" class="node">
<title>GPL&#45;2.0&#45;only(5)</title>
<ellipse fill="springgreen" stroke="springgreen" cx="339.42" cy="-1510" rx="68.49" ry="18"/>
<text text-anchor="middle" x="339.42" y="-1506.3" font-family="Times-Roman" font-size="14.00">GPL&#45;2.0&#45;only</text>
</g>
<!-- scancode://gpl&#45;2.0(5) -->
<g id="node6" class="node">
<title>scancode://gpl&#45;2.0(5)</title>
<ellipse fill="white" stroke="white" cx="339.42" cy="-1456" rx="94.48" ry="18"/>
<text text-anchor="middle" x="339.42" y="-1452.3" font-family="Times-Roman" font-size="14.00">scancode://gpl&#45;2.0</text>
</g>
<!-- GNU General Public License 2.0(6) -->
<g id="node7" class="node">
<title>GNU General Public License 2.0(6)</title>
<ellipse fill="white" stroke="white" cx="339.42" cy="-1396" rx="153.27" ry="18"/>
<text text-anchor="middle" x="339.42" y="-1392.3" font-family="Times-Roman" font-size="14.00">GNU General Public License 2.0</text>
</g>
<!-- GPL&#45;2.0&#45;only(6) -->
<g id="node8" class="node">
<title>GPL&#45;2.0&#45;only(6)</title>
<ellipse fill="springgreen" stroke="springgreen" cx="339.42" cy="-1342" rx="68.49" ry="18"/>
<text text-anchor="middle" x="339.42" y="-1338.3" font-family="Times-Roman" font-size="14.00">GPL&#45;2.0&#45;only</text>
</g>
<!-- GPL (v2)(7) -->
<g id="node9" class="node">
<title>GPL (v2)(7)</title>
<ellipse fill="white" stroke="white" cx="339.42" cy="-1282" rx="48.99" ry="18"/>
<text text-anchor="middle" x="339.42" y="-1278.3" font-family="Times-Roman" font-size="14.00">GPL (v2)</text>
</g>
<!-- GPL&#45;2.0(7) -->
<g id="node10" class="node">
<title>GPL&#45;2.0(7)</title>
<ellipse fill="white" stroke="white" cx="339.42" cy="-1228" rx="46.29" ry="18"/>
<text text-anchor="middle" x="339.42" y="-1224.3" font-family="Times-Roman" font-size="14.00">GPL&#45;2.0</text>
</g>
<!-- GPL&#45;2.0&#45;only(7) -->
<g id="node11" class="node">
<title>GPL&#45;2.0&#45;only(7)</title>
<ellipse fill="springgreen" stroke="springgreen" cx="339.42" cy="-1174" rx="68.49" ry="18"/>
<text text-anchor="middle" x="339.42" y="-1170.3" font-family="Times-Roman" font-size="14.00">GPL&#45;2.0&#45;only</text>
</g>
<!-- GPL2(7) -->
<g id="node12" class="node">
<title>GPL2(7)</title>
<ellipse fill="white" stroke="white" cx="339.42" cy="-1120" rx="33.6" ry="18"/>
<text text-anchor="middle" x="339.42" y="-1116.3" font-family="Times-Roman" font-size="14.00">GPL2</text>
</g>
<!-- GPL2.0(7) -->
<g id="node13" class="node">
<title>GPL2.0(7)</title>
<ellipse fill="white" stroke="white" cx="339.42" cy="-1066" rx="42.49" ry="18"/>
<text text-anchor="middle" x="339.42" y="-1062.3" font-family="Times-Roman" font-size="14.00">GPL2.0</text>
</g>
<!-- GNU GPLv2(8) -->
<g id="node14" class="node">
<title>GNU GPLv2(8)</title>
<ellipse fill="white" stroke="white" cx="339.42" cy="-998" rx="62.29" ry="18"/>
<text text-anchor="middle" x="339.42" y="-994.3" font-family="Times-Roman" font-size="14.00">GNU GPLv2</text>
</g>
<!-- GPL&#45;2.0(8) -->
<g id="node15" class="node">
<title>GPL&#45;2.0(8)</title>
<ellipse fill="lightgray" stroke="lightgray" cx="339.42" cy="-944" rx="46.29" ry="18"/>
<text text-anchor="middle" x="339.42" y="-940.3" font-family="Times-Roman" font-size="14.00">GPL&#45;2.0</text>
</g>
<!-- gpl&#45;2.0(8) -->
<g id="node16" class="node">
<title>gpl&#45;2.0(8)</title>
<ellipse fill="white" stroke="white" cx="339.42" cy="-890" rx="42.79" ry="18"/>
<text text-anchor="middle" x="339.42" y="-886.3" font-family="Times-Roman" font-size="14.00">gpl&#45;2.0</text>
</g>
<!-- GNU General Public License, Version 2.0(9) -->
<g id="node17" class="node">
<title>GNU General Public License, Version 2.0(9)</title>
<ellipse fill="white" stroke="white" cx="339.42" cy="-830" rx="192.27" ry="18"/>
<text text-anchor="middle" x="339.42" y="-826.3" font-family="Times-Roman" font-size="14.00">GNU General Public License, Version 2.0</text>
</g>
<!-- GPL&#45;2.0(9) -->
<g id="node18" class="node">
<title>GPL&#45;2.0(9)</title>
<ellipse fill="lightgray" stroke="lightgray" cx="339.42" cy="-776" rx="46.29" ry="18"/>
<text text-anchor="middle" x="339.42" y="-772.3" font-family="Times-Roman" font-size="14.00">GPL&#45;2.0</text>
</g>
<!-- License :: OSI Approved :: GNU General Public License v2 (GPLv2)(9) -->
<g id="node19" class="node">
<title>License :: OSI Approved :: GNU General Public License v2 (GPLv2)(9)</title>
<ellipse fill="white" stroke="white" cx="339.42" cy="-722" rx="307.35" ry="18"/>
<text text-anchor="middle" x="339.42" y="-718.3" font-family="Times-Roman" font-size="14.00">License :: OSI Approved :: GNU General Public License v2 (GPLv2)</text>
</g>
<!-- GNU General Public License 2.0(10) -->
<g id="node20" class="node">
<title>GNU General Public License 2.0(10)</title>
<ellipse fill="lightgray" stroke="lightgray" cx="339.42" cy="-662" rx="153.27" ry="18"/>
<text text-anchor="middle" x="339.42" y="-658.3" font-family="Times-Roman" font-size="14.00">GNU General Public License 2.0</text>
</g>
<!-- GPL&#45;2.0&#45;or&#45;later(10) -->
<g id="node21" class="node">
<title>GPL&#45;2.0&#45;or&#45;later(10)</title>
<ellipse fill="orange" stroke="orange" cx="339.42" cy="-608" rx="81.49" ry="18"/>
<text text-anchor="middle" x="339.42" y="-604.3" font-family="Times-Roman" font-size="14.00">GPL&#45;2.0&#45;or&#45;later</text>
</g>
<!-- GNU General Public License v2.0 or later(11) -->
<g id="node22" class="node">
<title>GNU General Public License v2.0 or later(11)</title>
<ellipse fill="white" stroke="white" cx="339.42" cy="-540" rx="194.17" ry="18"/>
<text text-anchor="middle" x="339.42" y="-536.3" font-family="Times-Roman" font-size="14.00">GNU General Public License v2.0 or later</text>
</g>
<!-- GPL&#45;2.0&#45;or&#45;later(11) -->
<g id="node23" class="node">
<title>GPL&#45;2.0&#45;or&#45;later(11)</title>
<ellipse fill="orange" stroke="orange" cx="339.42" cy="-486" rx="81.49" ry="18"/>
<text text-anchor="middle" x="339.42" y="-482.3" font-family="Times-Roman" font-size="14.00">GPL&#45;2.0&#45;or&#45;later</text>
</g>
<!-- GPL 2.0 or later(12) -->
<g id="node24" class="node">
<title>GPL 2.0 or later(12)</title>
<ellipse fill="white" stroke="white" cx="339.42" cy="-426" rx="81.49" ry="18"/>
<text text-anchor="middle" x="339.42" y="-422.3" font-family="Times-Roman" font-size="14.00">GPL 2.0 or later</text>
</g>
<!-- GPL&#45;2.0&#45;or&#45;later(12) -->
<g id="node25" class="node">
<title>GPL&#45;2.0&#45;or&#45;later(12)</title>
<ellipse fill="orange" stroke="orange" cx="339.42" cy="-372" rx="81.49" ry="18"/>
<text text-anchor="middle" x="339.42" y="-368.3" font-family="Times-Roman" font-size="14.00">GPL&#45;2.0&#45;or&#45;later</text>
</g>
<!-- scancode://gpl&#45;2.0&#45;plus(12) -->
<g id="node26" class="node">
<title>scancode://gpl&#45;2.0&#45;plus(12)</title>
<ellipse fill="white" stroke="white" cx="339.42" cy="-318" rx="116.18" ry="18"/>
<text text-anchor="middle" x="339.42" y="-314.3" font-family="Times-Roman" font-size="14.00">scancode://gpl&#45;2.0&#45;plus</text>
</g>
<!-- GPL (v2 or later)(13) -->
<g id="node27" class="node">
<title>GPL (v2 or later)(13)</title>
<ellipse fill="white" stroke="white" cx="339.42" cy="-258" rx="84.49" ry="18"/>
<text text-anchor="middle" x="339.42" y="-254.3" font-family="Times-Roman" font-size="14.00">GPL (v2 or later)</text>
</g>
<!-- GPL&#45;2.0+(13) -->
<g id="node28" class="node">
<title>GPL&#45;2.0+(13)</title>
<ellipse fill="white" stroke="white" cx="339.42" cy="-204" rx="53.89" ry="18"/>
<text text-anchor="middle" x="339.42" y="-200.3" font-family="Times-Roman" font-size="14.00">GPL&#45;2.0+</text>
</g>
<!-- GPL&#45;2.0&#45;or&#45;later(13) -->
<g id="node29" class="node">
<title>GPL&#45;2.0&#45;or&#45;later(13)</title>
<ellipse fill="orange" stroke="orange" cx="339.42" cy="-150" rx="81.49" ry="18"/>
<text text-anchor="middle" x="339.42" y="-146.3" font-family="Times-Roman" font-size="14.00">GPL&#45;2.0&#45;or&#45;later</text>
</g>
<!-- GPL2+(13) -->
<g id="node30" class="node">
<title>GPL2+(13)</title>
<ellipse fill="white" stroke="white" cx="339.42" cy="-96" rx="41.69" ry="18"/>
<text text-anchor="middle" x="339.42" y="-92.3" font-family="Times-Roman" font-size="14.00">GPL2+</text>
</g>
<!-- GPL2.0+(13) -->
<g id="node31" class="node">
<title>GPL2.0+(13)</title>
<ellipse fill="white" stroke="white" cx="339.42" cy="-42" rx="50.09" ry="18"/>
<text text-anchor="middle" x="339.42" y="-38.3" font-family="Times-Roman" font-size="14.00">GPL2.0+</text>
</g>
</g>
</svg>
