<?xml version="1.0" encoding="UTF-8" standalone="no"?>
<!DOCTYPE svg PUBLIC "-//W3C//DTD SVG 1.1//EN"
 "http://www.w3.org/Graphics/SVG/1.1/DTD/svg11.dtd">
<!-- Generated by graphviz version 2.43.0 (0)
 -->
<!-- Title: gSOAP&#45;1.3b Pages: 1 -->
<svg width="792pt" height="98pt"
 viewBox="0.00 0.00 792.00 98.43" xmlns="http://www.w3.org/2000/svg" xmlns:xlink="http://www.w3.org/1999/xlink">
<g id="graph0" class="graph" transform="scale(1 1) rotate(0) translate(4 94.43)">
<title>gSOAP&#45;1.3b</title>
<polygon fill="white" stroke="transparent" points="-4,4 -4,-94.43 788,-94.43 788,4 -4,4"/>
<g id="clust1" class="cluster">
<title>cluster_0</title>
<polygon fill="none" stroke="black" points="8,-8 8,-82.43 776,-82.43 776,-8 8,-8"/>
</g>
<g id="clust2" class="cluster">
<title>cluster_1</title>
<polygon fill="lightgray" stroke="lightgray" points="562,-16 562,-74.43 768,-74.43 768,-16 562,-16"/>
</g>
<g id="clust3" class="cluster">
<title>cluster_2</title>
<polygon fill="lightgray" stroke="lightgray" points="266,-19.21 266,-71.21 554,-71.21 554,-19.21 266,-19.21"/>
</g>
<g id="clust4" class="cluster">
<title>cluster_3</title>
<polygon fill="lightgray" stroke="lightgray" points="16,-19.21 16,-71.21 258,-71.21 258,-19.21 16,-19.21"/>
</g>
<!-- gSOAP&#45;1.3b -->
<g id="node1" class="node">
<title>gSOAP&#45;1.3b</title>
<ellipse fill="white" stroke="white" cx="665" cy="-45.21" rx="94.51" ry="21.43"/>
<text text-anchor="middle" x="665" y="-40.21" font-family="Times-Roman" font-size="20.00" fill="#00ff00">gSOAP&#45;1.3b</text>
</g>
<!-- gSOAP Public License v1.3b -->
<g id="node2" class="node">
<title>gSOAP Public License v1.3b</title>
<ellipse fill="white" stroke="white" cx="410" cy="-45.21" rx="135.68" ry="18"/>
<text text-anchor="middle" x="410" y="-41.51" font-family="Times-Roman" font-size="14.00">gSOAP Public License v1.3b</text>
</g>
<!-- scancode://gsoap&#45;1.3b -->
<g id="node3" class="node">
<title>scancode://gsoap&#45;1.3b</title>
<ellipse fill="white" stroke="white" cx="137" cy="-45.21" rx="113.18" ry="18"/>
<text text-anchor="middle" x="137" y="-41.51" font-family="Times-Roman" font-size="14.00">scancode://gsoap&#45;1.3b</text>
</g>
</g>
</svg>
