<?xml version="1.0" encoding="UTF-8" standalone="no"?>
<!DOCTYPE svg PUBLIC "-//W3C//DTD SVG 1.1//EN"
 "http://www.w3.org/Graphics/SVG/1.1/DTD/svg11.dtd">
<!-- Generated by graphviz version 2.43.0 (0)
 -->
<!-- Title: gSOAP&#45;1.3b Pages: 1 -->
<svg width="1694pt" height="98pt"
 viewBox="0.00 0.00 1694.00 98.43" xmlns="http://www.w3.org/2000/svg" xmlns:xlink="http://www.w3.org/1999/xlink">
<g id="graph0" class="graph" transform="scale(1 1) rotate(0) translate(4 94.43)">
<title>gSOAP&#45;1.3b</title>
<polygon fill="white" stroke="transparent" points="-4,4 -4,-94.43 1690,-94.43 1690,4 -4,4"/>
<g id="clust1" class="cluster">
<title>cluster_0</title>
<polygon fill="none" stroke="black" points="8,-8 8,-82.43 1678,-82.43 1678,-8 8,-8"/>
</g>
<g id="clust2" class="cluster">
<title>cluster_1</title>
<polygon fill="lightgray" stroke="lightgray" points="1424,-16 1424,-74.43 1670,-74.43 1670,-16 1424,-16"/>
</g>
<g id="clust3" class="cluster">
<title>cluster_2</title>
<polygon fill="lightgray" stroke="lightgray" points="855,-16 855,-74.43 1416,-74.43 1416,-16 855,-16"/>
</g>
<g id="clust4" class="cluster">
<title>cluster_3</title>
<polygon fill="lightgray" stroke="lightgray" points="16,-16 16,-74.43 847,-74.43 847,-16 16,-16"/>
</g>
<!-- gSOAP&#45;1.3b(1) -->
<g id="node1" class="node">
<title>gSOAP&#45;1.3b(1)</title>
<ellipse fill="springgreen" stroke="springgreen" cx="1547" cy="-45.21" rx="114.6" ry="21.43"/>
<text text-anchor="middle" x="1547" y="-40.21" font-family="Times-Roman" font-size="20.00">gSOAP&#45;1.3b(1)</text>
</g>
<!-- gSOAP Public License v1.3b(2) -->
<g id="node2" class="node">
<title>gSOAP Public License v1.3b(2)</title>
<ellipse fill="white" stroke="white" cx="1259" cy="-45.21" rx="148.67" ry="18"/>
<text text-anchor="middle" x="1259" y="-41.51" font-family="Times-Roman" font-size="14.00">gSOAP Public License v1.3b(2)</text>
</g>
<!-- gSOAP&#45;1.3b(2) -->
<g id="node3" class="node">
<title>gSOAP&#45;1.3b(2)</title>
<ellipse fill="springgreen" stroke="springgreen" cx="978" cy="-45.21" rx="114.6" ry="21.43"/>
<text text-anchor="middle" x="978" y="-40.21" font-family="Times-Roman" font-size="20.00">gSOAP&#45;1.3b(2)</text>
</g>
<!-- gSOAP Public License v1.3b(3) -->
<g id="node4" class="node">
<title>gSOAP Public License v1.3b(3)</title>
<ellipse fill="white" stroke="white" cx="690" cy="-45.21" rx="148.67" ry="18"/>
<text text-anchor="middle" x="690" y="-41.51" font-family="Times-Roman" font-size="14.00">gSOAP Public License v1.3b(3)</text>
</g>
<!-- gSOAP&#45;1.3b(3) -->
<g id="node5" class="node">
<title>gSOAP&#45;1.3b(3)</title>
<ellipse fill="springgreen" stroke="springgreen" cx="409" cy="-45.21" rx="114.6" ry="21.43"/>
<text text-anchor="middle" x="409" y="-40.21" font-family="Times-Roman" font-size="20.00">gSOAP&#45;1.3b(3)</text>
</g>
<!-- scancode://gsoap&#45;1.3b(3) -->
<g id="node6" class="node">
<title>scancode://gsoap&#45;1.3b(3)</title>
<ellipse fill="white" stroke="white" cx="150" cy="-45.21" rx="126.18" ry="18"/>
<text text-anchor="middle" x="150" y="-41.51" font-family="Times-Roman" font-size="14.00">scancode://gsoap&#45;1.3b(3)</text>
</g>
</g>
</svg>
