<?xml version="1.0" encoding="UTF-8" standalone="no"?>
<!DOCTYPE svg PUBLIC "-//W3C//DTD SVG 1.1//EN"
 "http://www.w3.org/Graphics/SVG/1.1/DTD/svg11.dtd">
<!-- Generated by graphviz version 2.43.0 (0)
 -->
<!-- Title: HaskellReport Pages: 1 -->
<svg width="1059pt" height="115pt"
 viewBox="0.00 0.00 1059.00 115.00" xmlns="http://www.w3.org/2000/svg" xmlns:xlink="http://www.w3.org/1999/xlink">
<g id="graph0" class="graph" transform="scale(1 1) rotate(0) translate(4 111)">
<title>HaskellReport</title>
<polygon fill="white" stroke="transparent" points="-4,4 -4,-111 1055,-111 1055,4 -4,4"/>
<g id="clust1" class="cluster">
<title>cluster_0</title>
<polygon fill="none" stroke="black" points="8,-8 8,-99 1043,-99 1043,-8 8,-8"/>
</g>
<g id="clust2" class="cluster">
<title>cluster_1</title>
<polygon fill="lightgray" stroke="lightgray" points="873,-16 873,-91 1035,-91 1035,-16 873,-16"/>
<text text-anchor="middle" x="954" y="-75.8" font-family="Times-Roman" font-size="14.00">process #1</text>
</g>
<g id="clust3" class="cluster">
<title>cluster_2</title>
<polygon fill="lightgray" stroke="lightgray" points="531,-16 531,-91 865,-91 865,-16 531,-16"/>
<text text-anchor="middle" x="698" y="-75.8" font-family="Times-Roman" font-size="14.00">process #1</text>
</g>
<g id="clust4" class="cluster">
<title>cluster_3</title>
<polygon fill="lightgray" stroke="lightgray" points="16,-16 16,-91 523,-91 523,-16 16,-16"/>
<text text-anchor="middle" x="269.5" y="-75.8" font-family="Times-Roman" font-size="14.00">process #1</text>
</g>
<!-- HaskellReport -->
<g id="node1" class="node">
<title>HaskellReport</title>
<ellipse fill="white" stroke="white" cx="954" cy="-42" rx="72.59" ry="18"/>
<text text-anchor="middle" x="954" y="-38.3" font-family="Times-Roman" font-size="14.00">HaskellReport</text>
</g>
<!-- Haskell Language Report License -->
<g id="node2" class="node">
<title>Haskell Language Report License</title>
<ellipse fill="white" stroke="white" cx="698" cy="-42" rx="159.47" ry="18"/>
<text text-anchor="middle" x="698" y="-38.3" font-family="Times-Roman" font-size="14.00">Haskell Language Report License</text>
</g>
<!-- Haskell Report License -->
<g id="node3" class="node">
<title>Haskell Report License</title>
<ellipse fill="white" stroke="white" cx="403" cy="-42" rx="112.38" ry="18"/>
<text text-anchor="middle" x="403" y="-38.3" font-family="Times-Roman" font-size="14.00">Haskell Report License</text>
</g>
<!-- scancode://haskell&#45;report -->
<g id="node4" class="node">
<title>scancode://haskell&#45;report</title>
<ellipse fill="white" stroke="white" cx="148" cy="-42" rx="124.28" ry="18"/>
<text text-anchor="middle" x="148" y="-38.3" font-family="Times-Roman" font-size="14.00">scancode://haskell&#45;report</text>
</g>
</g>
</svg>
