<?xml version="1.0" encoding="UTF-8" standalone="no"?>
<!DOCTYPE svg PUBLIC "-//W3C//DTD SVG 1.1//EN"
 "http://www.w3.org/Graphics/SVG/1.1/DTD/svg11.dtd">
<!-- Generated by graphviz version 2.43.0 (0)
 -->
<!-- Title: HPND Pages: 1 -->
<svg width="2982pt" height="92pt"
 viewBox="0.00 0.00 2982.00 92.00" xmlns="http://www.w3.org/2000/svg" xmlns:xlink="http://www.w3.org/1999/xlink">
<g id="graph0" class="graph" transform="scale(1 1) rotate(0) translate(4 88)">
<title>HPND</title>
<polygon fill="white" stroke="transparent" points="-4,4 -4,-88 2978,-88 2978,4 -4,4"/>
<g id="clust1" class="cluster">
<title>cluster_0</title>
<polygon fill="none" stroke="black" points="8,-8 8,-76 2966,-76 2966,-8 8,-8"/>
</g>
<g id="clust2" class="cluster">
<title>cluster_1</title>
<polygon fill="lightgray" stroke="lightgray" points="2870,-16 2870,-68 2958,-68 2958,-16 2870,-16"/>
</g>
<g id="clust3" class="cluster">
<title>cluster_2</title>
<polygon fill="lightgray" stroke="lightgray" points="2344,-16 2344,-68 2862,-68 2862,-16 2344,-16"/>
</g>
<g id="clust4" class="cluster">
<title>cluster_3</title>
<polygon fill="lightgray" stroke="lightgray" points="1818,-16 1818,-68 2336,-68 2336,-16 1818,-16"/>
</g>
<g id="clust5" class="cluster">
<title>cluster_4</title>
<polygon fill="lightgray" stroke="lightgray" points="1068,-16 1068,-68 1810,-68 1810,-16 1068,-16"/>
</g>
<g id="clust6" class="cluster">
<title>cluster_5</title>
<polygon fill="lightgray" stroke="lightgray" points="542,-16 542,-68 1060,-68 1060,-16 542,-16"/>
</g>
<g id="clust7" class="cluster">
<title>cluster_6</title>
<polygon fill="lightgray" stroke="lightgray" points="16,-16 16,-68 534,-68 534,-16 16,-16"/>
</g>
<!-- HPND(1) -->
<g id="node1" class="node">
<title>HPND(1)</title>
<ellipse fill="springgreen" stroke="springgreen" cx="2914" cy="-42" rx="36.29" ry="18"/>
<text text-anchor="middle" x="2914" y="-38.3" font-family="Times-Roman" font-size="14.00">HPND</text>
</g>
<!-- HPND(2) -->
<g id="node2" class="node">
<title>HPND(2)</title>
<ellipse fill="springgreen" stroke="springgreen" cx="2818" cy="-42" rx="36.29" ry="18"/>
<text text-anchor="middle" x="2818" y="-38.3" font-family="Times-Roman" font-size="14.00">HPND</text>
</g>
<!-- Historical Permission Notice and Disclaimer(2) -->
<g id="node3" class="node">
<title>Historical Permission Notice and Disclaimer(2)</title>
<ellipse fill="white" stroke="white" cx="2558" cy="-42" rx="206.06" ry="18"/>
<text text-anchor="middle" x="2558" y="-38.3" font-family="Times-Roman" font-size="14.00">Historical Permission Notice and Disclaimer</text>
</g>
<!-- HPND(3) -->
<g id="node4" class="node">
<title>HPND(3)</title>
<ellipse fill="springgreen" stroke="springgreen" cx="2292" cy="-42" rx="36.29" ry="18"/>
<text text-anchor="middle" x="2292" y="-38.3" font-family="Times-Roman" font-size="14.00">HPND</text>
</g>
<!-- Historical Permission Notice and Disclaimer(3) -->
<g id="node5" class="node">
<title>Historical Permission Notice and Disclaimer(3)</title>
<ellipse fill="white" stroke="white" cx="2032" cy="-42" rx="206.06" ry="18"/>
<text text-anchor="middle" x="2032" y="-38.3" font-family="Times-Roman" font-size="14.00">Historical Permission Notice and Disclaimer</text>
</g>
<!-- HPND(4) -->
<g id="node6" class="node">
<title>HPND(4)</title>
<ellipse fill="springgreen" stroke="springgreen" cx="1766" cy="-42" rx="36.29" ry="18"/>
<text text-anchor="middle" x="1766" y="-38.3" font-family="Times-Roman" font-size="14.00">HPND</text>
</g>
<!-- Historical Permission Notice and Disclaimer(4) -->
<g id="node7" class="node">
<title>Historical Permission Notice and Disclaimer(4)</title>
<ellipse fill="white" stroke="white" cx="1506" cy="-42" rx="206.06" ry="18"/>
<text text-anchor="middle" x="1506" y="-38.3" font-family="Times-Roman" font-size="14.00">Historical Permission Notice and Disclaimer</text>
</g>
<!-- scancode://historical(4) -->
<g id="node8" class="node">
<title>scancode://historical(4)</title>
<ellipse fill="white" stroke="white" cx="1179" cy="-42" rx="102.88" ry="18"/>
<text text-anchor="middle" x="1179" y="-38.3" font-family="Times-Roman" font-size="14.00">scancode://historical</text>
</g>
<!-- HPND(5) -->
<g id="node9" class="node">
<title>HPND(5)</title>
<ellipse fill="springgreen" stroke="springgreen" cx="1016" cy="-42" rx="36.29" ry="18"/>
<text text-anchor="middle" x="1016" y="-38.3" font-family="Times-Roman" font-size="14.00">HPND</text>
</g>
<!-- Historical Permission Notice and Disclaimer(5) -->
<g id="node10" class="node">
<title>Historical Permission Notice and Disclaimer(5)</title>
<ellipse fill="white" stroke="white" cx="756" cy="-42" rx="206.06" ry="18"/>
<text text-anchor="middle" x="756" y="-38.3" font-family="Times-Roman" font-size="14.00">Historical Permission Notice and Disclaimer</text>
</g>
<!-- HPND(6) -->
<g id="node11" class="node">
<title>HPND(6)</title>
<ellipse fill="springgreen" stroke="springgreen" cx="490" cy="-42" rx="36.29" ry="18"/>
<text text-anchor="middle" x="490" y="-38.3" font-family="Times-Roman" font-size="14.00">HPND</text>
</g>
<!-- Historical Permission Notice and Disclaimer(6) -->
<g id="node12" class="node">
<title>Historical Permission Notice and Disclaimer(6)</title>
<ellipse fill="white" stroke="white" cx="230" cy="-42" rx="206.06" ry="18"/>
<text text-anchor="middle" x="230" y="-38.3" font-family="Times-Roman" font-size="14.00">Historical Permission Notice and Disclaimer</text>
</g>
</g>
</svg>
