<?xml version="1.0" encoding="UTF-8" standalone="no"?>
<!DOCTYPE svg PUBLIC "-//W3C//DTD SVG 1.1//EN"
 "http://www.w3.org/Graphics/SVG/1.1/DTD/svg11.dtd">
<!-- Generated by graphviz version 2.43.0 (0)
 -->
<!-- Title: HPND Pages: 1 -->
<svg width="794pt" height="92pt"
 viewBox="0.00 0.00 794.00 92.00" xmlns="http://www.w3.org/2000/svg" xmlns:xlink="http://www.w3.org/1999/xlink">
<g id="graph0" class="graph" transform="scale(1 1) rotate(0) translate(4 88)">
<title>HPND</title>
<polygon fill="white" stroke="transparent" points="-4,4 -4,-88 790,-88 790,4 -4,4"/>
<g id="clust1" class="cluster">
<title>cluster_0</title>
<polygon fill="none" stroke="black" points="8,-8 8,-76 778,-76 778,-8 8,-8"/>
</g>
<g id="clust2" class="cluster">
<title>cluster_1</title>
<polygon fill="lightgray" stroke="lightgray" points="682,-16 682,-68 770,-68 770,-16 682,-16"/>
</g>
<g id="clust3" class="cluster">
<title>cluster_2</title>
<polygon fill="lightgray" stroke="lightgray" points="246,-16 246,-68 674,-68 674,-16 246,-16"/>
</g>
<g id="clust5" class="cluster">
<title>cluster_4</title>
<polygon fill="lightgray" stroke="lightgray" points="16,-16 16,-68 238,-68 238,-16 16,-16"/>
</g>
<!-- HPND -->
<g id="node1" class="node">
<title>HPND</title>
<ellipse fill="white" stroke="white" cx="726" cy="-42" rx="36.29" ry="18"/>
<text text-anchor="middle" x="726" y="-38.3" font-family="Times-Roman" font-size="14.00">HPND</text>
</g>
<!-- Historical Permission Notice and Disclaimer -->
<g id="node2" class="node">
<title>Historical Permission Notice and Disclaimer</title>
<ellipse fill="white" stroke="white" cx="460" cy="-42" rx="206.06" ry="18"/>
<text text-anchor="middle" x="460" y="-38.3" font-family="Times-Roman" font-size="14.00">Historical Permission Notice and Disclaimer</text>
</g>
<!-- scancode://historical -->
<g id="node3" class="node">
<title>scancode://historical</title>
<ellipse fill="white" stroke="white" cx="127" cy="-42" rx="102.88" ry="18"/>
<text text-anchor="middle" x="127" y="-38.3" font-family="Times-Roman" font-size="14.00">scancode://historical</text>
</g>
</g>
</svg>
