<?xml version="1.0" encoding="UTF-8" standalone="no"?>
<!DOCTYPE svg PUBLIC "-//W3C//DTD SVG 1.1//EN"
 "http://www.w3.org/Graphics/SVG/1.1/DTD/svg11.dtd">
<!-- Generated by graphviz version 5.0.1 (0)
 -->
<!-- Title: HPND Pages: 1 -->
<svg width="395pt" height="830pt"
 viewBox="0.00 0.00 395.27 830.00" xmlns="http://www.w3.org/2000/svg" xmlns:xlink="http://www.w3.org/1999/xlink">
<g id="graph0" class="graph" transform="scale(1 1) rotate(0) translate(4 826)">
<title>HPND</title>
<polygon fill="white" stroke="none" points="-4,4 -4,-826 391.27,-826 391.27,4 -4,4"/>
<g id="clust1" class="cluster">
<title>cluster_0</title>
<polygon fill="none" stroke="black" points="8,-8 8,-814 379.27,-814 379.27,-8 8,-8"/>
</g>
<g id="clust2" class="cluster">
<title>cluster_1</title>
<polygon fill="lightgray" stroke="lightgray" points="151.19,-754 151.19,-806 236.08,-806 236.08,-754 151.19,-754"/>
</g>
<g id="clust3" class="cluster">
<title>cluster_2</title>
<polygon fill="lightgray" stroke="lightgray" points="16,-640 16,-746 371.27,-746 371.27,-640 16,-640"/>
</g>
<g id="clust4" class="cluster">
<title>cluster_3</title>
<polygon fill="lightgray" stroke="lightgray" points="16,-526 16,-632 371.27,-632 371.27,-526 16,-526"/>
</g>
<g id="clust5" class="cluster">
<title>cluster_4</title>
<polygon fill="lightgray" stroke="lightgray" points="16,-412 16,-518 371.27,-518 371.27,-412 16,-412"/>
</g>
<g id="clust6" class="cluster">
<title>cluster_5</title>
<polygon fill="lightgray" stroke="lightgray" points="16,-298 16,-404 371.27,-404 371.27,-298 16,-298"/>
</g>
<g id="clust7" class="cluster">
<title>cluster_6</title>
<polygon fill="lightgray" stroke="lightgray" points="16,-184 16,-290 371.27,-290 371.27,-184 16,-184"/>
</g>
<g id="clust8" class="cluster">
<title>cluster_7</title>
<polygon fill="lightgray" stroke="lightgray" points="16,-16 16,-176 371.27,-176 371.27,-16 16,-16"/>
</g>
<!-- HPND(1) -->
<g id="node1" class="node">
<title>HPND(1)</title>
<ellipse fill="springgreen" stroke="springgreen" cx="193.63" cy="-780" rx="34.39" ry="18"/>
<text text-anchor="middle" x="193.63" y="-776.3" font-family="Times,serif" font-size="14.00">HPND</text>
</g>
<!-- HPND(2) -->
<g id="node2" class="node">
<title>HPND(2)</title>
<ellipse fill="springgreen" stroke="springgreen" cx="193.63" cy="-720" rx="34.39" ry="18"/>
<text text-anchor="middle" x="193.63" y="-716.3" font-family="Times,serif" font-size="14.00">HPND</text>
</g>
<!-- Historical Permission Notice and Disclaimer(2) -->
<g id="node3" class="node">
<title>Historical Permission Notice and Disclaimer(2)</title>
<ellipse fill="white" stroke="white" cx="193.63" cy="-666" rx="169.77" ry="18"/>
<text text-anchor="middle" x="193.63" y="-662.3" font-family="Times,serif" font-size="14.00">Historical Permission Notice and Disclaimer</text>
</g>
<!-- HPND(3) -->
<g id="node4" class="node">
<title>HPND(3)</title>
<ellipse fill="springgreen" stroke="springgreen" cx="193.63" cy="-606" rx="34.39" ry="18"/>
<text text-anchor="middle" x="193.63" y="-602.3" font-family="Times,serif" font-size="14.00">HPND</text>
</g>
<!-- Historical Permission Notice and Disclaimer(3) -->
<g id="node5" class="node">
<title>Historical Permission Notice and Disclaimer(3)</title>
<ellipse fill="white" stroke="white" cx="193.63" cy="-552" rx="169.77" ry="18"/>
<text text-anchor="middle" x="193.63" y="-548.3" font-family="Times,serif" font-size="14.00">Historical Permission Notice and Disclaimer</text>
</g>
<!-- HPND(4) -->
<g id="node6" class="node">
<title>HPND(4)</title>
<ellipse fill="springgreen" stroke="springgreen" cx="193.63" cy="-492" rx="34.39" ry="18"/>
<text text-anchor="middle" x="193.63" y="-488.3" font-family="Times,serif" font-size="14.00">HPND</text>
</g>
<!-- Historical Permission Notice and Disclaimer(4) -->
<g id="node7" class="node">
<title>Historical Permission Notice and Disclaimer(4)</title>
<ellipse fill="white" stroke="white" cx="193.63" cy="-438" rx="169.77" ry="18"/>
<text text-anchor="middle" x="193.63" y="-434.3" font-family="Times,serif" font-size="14.00">Historical Permission Notice and Disclaimer</text>
</g>
<!-- HPND(5) -->
<g id="node8" class="node">
<title>HPND(5)</title>
<ellipse fill="springgreen" stroke="springgreen" cx="193.63" cy="-378" rx="34.39" ry="18"/>
<text text-anchor="middle" x="193.63" y="-374.3" font-family="Times,serif" font-size="14.00">HPND</text>
</g>
<!-- Historical Permission Notice and Disclaimer(5) -->
<g id="node9" class="node">
<title>Historical Permission Notice and Disclaimer(5)</title>
<ellipse fill="white" stroke="white" cx="193.63" cy="-324" rx="169.77" ry="18"/>
<text text-anchor="middle" x="193.63" y="-320.3" font-family="Times,serif" font-size="14.00">Historical Permission Notice and Disclaimer</text>
</g>
<!-- HPND(6) -->
<g id="node10" class="node">
<title>HPND(6)</title>
<ellipse fill="springgreen" stroke="springgreen" cx="193.63" cy="-264" rx="34.39" ry="18"/>
<text text-anchor="middle" x="193.63" y="-260.3" font-family="Times,serif" font-size="14.00">HPND</text>
</g>
<!-- Historical Permission Notice and Disclaimer(6) -->
<g id="node11" class="node">
<title>Historical Permission Notice and Disclaimer(6)</title>
<ellipse fill="white" stroke="white" cx="193.63" cy="-210" rx="169.77" ry="18"/>
<text text-anchor="middle" x="193.63" y="-206.3" font-family="Times,serif" font-size="14.00">Historical Permission Notice and Disclaimer</text>
</g>
<!-- HPND(7) -->
<g id="node12" class="node">
<title>HPND(7)</title>
<ellipse fill="springgreen" stroke="springgreen" cx="193.63" cy="-150" rx="34.39" ry="18"/>
<text text-anchor="middle" x="193.63" y="-146.3" font-family="Times,serif" font-size="14.00">HPND</text>
</g>
<!-- Historical Permission Notice and Disclaimer(7) -->
<g id="node13" class="node">
<title>Historical Permission Notice and Disclaimer(7)</title>
<ellipse fill="white" stroke="white" cx="193.63" cy="-96" rx="169.77" ry="18"/>
<text text-anchor="middle" x="193.63" y="-92.3" font-family="Times,serif" font-size="14.00">Historical Permission Notice and Disclaimer</text>
</g>
<!-- scancode://historical(7) -->
<g id="node14" class="node">
<title>scancode://historical(7)</title>
<ellipse fill="white" stroke="white" cx="193.63" cy="-42" rx="83.39" ry="18"/>
<text text-anchor="middle" x="193.63" y="-38.3" font-family="Times,serif" font-size="14.00">scancode://historical</text>
</g>
</g>
</svg>
