<?xml version="1.0" encoding="UTF-8" standalone="no"?>
<!DOCTYPE svg PUBLIC "-//W3C//DTD SVG 1.1//EN"
 "http://www.w3.org/Graphics/SVG/1.1/DTD/svg11.dtd">
<!-- Generated by graphviz version 2.43.0 (0)
 -->
<!-- Title: ICU Pages: 1 -->
<svg width="333pt" height="916pt"
 viewBox="0.00 0.00 332.88 916.00" xmlns="http://www.w3.org/2000/svg" xmlns:xlink="http://www.w3.org/1999/xlink">
<g id="graph0" class="graph" transform="scale(1 1) rotate(0) translate(4 912)">
<title>ICU</title>
<polygon fill="white" stroke="transparent" points="-4,4 -4,-912 328.88,-912 328.88,4 -4,4"/>
<g id="clust1" class="cluster">
<title>cluster_0</title>
<polygon fill="none" stroke="black" points="8,-8 8,-900 316.88,-900 316.88,-8 8,-8"/>
</g>
<g id="clust2" class="cluster">
<title>cluster_1</title>
<polygon fill="none" stroke="black" points="59.14,-184 59.14,-892 265.73,-892 265.73,-184 59.14,-184"/>
</g>
<g id="clust3" class="cluster">
<title>cluster_2</title>
<polygon fill="none" stroke="black" points="67.14,-420 67.14,-884 257.73,-884 257.73,-420 67.14,-420"/>
</g>
<g id="clust4" class="cluster">
<title>cluster_3</title>
<polygon fill="lightgray" stroke="lightgray" points="127.44,-824 127.44,-876 197.44,-876 197.44,-824 127.44,-824"/>
</g>
<g id="clust5" class="cluster">
<title>cluster_4</title>
<polygon fill="lightgray" stroke="lightgray" points="90.74,-710 90.74,-816 234.13,-816 234.13,-710 90.74,-710"/>
</g>
<g id="clust6" class="cluster">
<title>cluster_5</title>
<polygon fill="lightgray" stroke="lightgray" points="90.74,-596 90.74,-702 234.13,-702 234.13,-596 90.74,-596"/>
</g>
<g id="clust7" class="cluster">
<title>cluster_6</title>
<polygon fill="lightgray" stroke="lightgray" points="75.14,-428 75.14,-588 249.73,-588 249.73,-428 75.14,-428"/>
</g>
<g id="clust8" class="cluster">
<title>cluster_7</title>
<polygon fill="lightgray" stroke="lightgray" points="88.79,-306 88.79,-412 236.08,-412 236.08,-306 88.79,-306"/>
</g>
<g id="clust9" class="cluster">
<title>cluster_8</title>
<polygon fill="lightgray" stroke="lightgray" points="88.79,-192 88.79,-298 236.08,-298 236.08,-192 88.79,-192"/>
</g>
<g id="clust10" class="cluster">
<title>cluster_9</title>
<polygon fill="lightgray" stroke="lightgray" points="16,-16 16,-176 308.88,-176 308.88,-16 16,-16"/>
</g>
<!-- ICU(3) -->
<g id="node1" class="node">
<title>ICU(3)</title>
<ellipse fill="springgreen" stroke="springgreen" cx="162.44" cy="-850" rx="27" ry="18"/>
<text text-anchor="middle" x="162.44" y="-846.3" font-family="Times-Roman" font-size="14.00">ICU</text>
</g>
<!-- ICU(4) -->
<g id="node2" class="node">
<title>ICU(4)</title>
<ellipse fill="springgreen" stroke="springgreen" cx="162.44" cy="-790" rx="27" ry="18"/>
<text text-anchor="middle" x="162.44" y="-786.3" font-family="Times-Roman" font-size="14.00">ICU</text>
</g>
<!-- ICU License(4) -->
<g id="node3" class="node">
<title>ICU License(4)</title>
<ellipse fill="white" stroke="white" cx="162.44" cy="-736" rx="63.89" ry="18"/>
<text text-anchor="middle" x="162.44" y="-732.3" font-family="Times-Roman" font-size="14.00">ICU License</text>
</g>
<!-- ICU(5) -->
<g id="node4" class="node">
<title>ICU(5)</title>
<ellipse fill="springgreen" stroke="springgreen" cx="162.44" cy="-676" rx="27" ry="18"/>
<text text-anchor="middle" x="162.44" y="-672.3" font-family="Times-Roman" font-size="14.00">ICU</text>
</g>
<!-- ICU License(5) -->
<g id="node5" class="node">
<title>ICU License(5)</title>
<ellipse fill="white" stroke="white" cx="162.44" cy="-622" rx="63.89" ry="18"/>
<text text-anchor="middle" x="162.44" y="-618.3" font-family="Times-Roman" font-size="14.00">ICU License</text>
</g>
<!-- ICU(6) -->
<g id="node6" class="node">
<title>ICU(6)</title>
<ellipse fill="springgreen" stroke="springgreen" cx="162.44" cy="-562" rx="27" ry="18"/>
<text text-anchor="middle" x="162.44" y="-558.3" font-family="Times-Roman" font-size="14.00">ICU</text>
</g>
<!-- X11 License(6) -->
<g id="node7" class="node">
<title>X11 License(6)</title>
<ellipse fill="white" stroke="white" cx="162.44" cy="-508" rx="65.79" ry="18"/>
<text text-anchor="middle" x="162.44" y="-504.3" font-family="Times-Roman" font-size="14.00">X11 License</text>
</g>
<!-- scancode://x11(6) -->
<g id="node8" class="node">
<title>scancode://x11(6)</title>
<ellipse fill="white" stroke="white" cx="162.44" cy="-454" rx="79.09" ry="18"/>
<text text-anchor="middle" x="162.44" y="-450.3" font-family="Times-Roman" font-size="14.00">scancode://x11</text>
</g>
<!-- X11(7) -->
<g id="node9" class="node">
<title>X11(7)</title>
<ellipse fill="orange" stroke="orange" cx="162.44" cy="-386" rx="28.7" ry="18"/>
<text text-anchor="middle" x="162.44" y="-382.3" font-family="Times-Roman" font-size="14.00">X11</text>
</g>
<!-- X11 License(7) -->
<g id="node10" class="node">
<title>X11 License(7)</title>
<ellipse fill="lightgray" stroke="lightgray" cx="162.44" cy="-332" rx="65.79" ry="18"/>
<text text-anchor="middle" x="162.44" y="-328.3" font-family="Times-Roman" font-size="14.00">X11 License</text>
</g>
<!-- X11(8) -->
<g id="node11" class="node">
<title>X11(8)</title>
<ellipse fill="orange" stroke="orange" cx="162.44" cy="-272" rx="28.7" ry="18"/>
<text text-anchor="middle" x="162.44" y="-268.3" font-family="Times-Roman" font-size="14.00">X11</text>
</g>
<!-- X11 License(8) -->
<g id="node12" class="node">
<title>X11 License(8)</title>
<ellipse fill="lightgray" stroke="lightgray" cx="162.44" cy="-218" rx="65.79" ry="18"/>
<text text-anchor="middle" x="162.44" y="-214.3" font-family="Times-Roman" font-size="14.00">X11 License</text>
</g>
<!-- X11(9) -->
<g id="node13" class="node">
<title>X11(9)</title>
<ellipse fill="orange" stroke="orange" cx="162.44" cy="-150" rx="28.7" ry="18"/>
<text text-anchor="middle" x="162.44" y="-146.3" font-family="Times-Roman" font-size="14.00">X11</text>
</g>
<!-- X11&#45;Style (X Consortium)(9) -->
<g id="node14" class="node">
<title>X11&#45;Style (X Consortium)(9)</title>
<ellipse fill="white" stroke="white" cx="162.44" cy="-96" rx="126.18" ry="18"/>
<text text-anchor="middle" x="162.44" y="-92.3" font-family="Times-Roman" font-size="14.00">X11&#45;Style (X Consortium)</text>
</g>
<!-- scancode://x11&#45;xconsortium(9) -->
<g id="node15" class="node">
<title>scancode://x11&#45;xconsortium(9)</title>
<ellipse fill="white" stroke="white" cx="162.44" cy="-42" rx="138.38" ry="18"/>
<text text-anchor="middle" x="162.44" y="-38.3" font-family="Times-Roman" font-size="14.00">scancode://x11&#45;xconsortium</text>
</g>
</g>
</svg>
