<?xml version="1.0" encoding="UTF-8" standalone="no"?>
<!DOCTYPE svg PUBLIC "-//W3C//DTD SVG 1.1//EN"
 "http://www.w3.org/Graphics/SVG/1.1/DTD/svg11.dtd">
<!-- Generated by graphviz version 2.47.3 (0)
 -->
<!-- Title: ICU Pages: 1 -->
<svg width="353pt" height="1030pt"
 viewBox="0.00 0.00 353.18 1030.00" xmlns="http://www.w3.org/2000/svg" xmlns:xlink="http://www.w3.org/1999/xlink">
<g id="graph0" class="graph" transform="scale(1 1) rotate(0) translate(4 1026)">
<title>ICU</title>
<polygon fill="white" stroke="transparent" points="-4,4 -4,-1026 349.18,-1026 349.18,4 -4,4"/>
<g id="clust1" class="cluster">
<title>cluster_0</title>
<polygon fill="none" stroke="black" points="8,-8 8,-1014 337.18,-1014 337.18,-8 8,-8"/>
</g>
<g id="clust2" class="cluster">
<title>cluster_1</title>
<polygon fill="none" stroke="black" points="16,-184 16,-1006 329.18,-1006 329.18,-184 16,-184"/>
</g>
<g id="clust3" class="cluster">
<title>cluster_2</title>
<polygon fill="none" stroke="black" points="24,-420 24,-998 321.18,-998 321.18,-420 24,-420"/>
</g>
<g id="clust4" class="cluster">
<title>cluster_3</title>
<polygon fill="lightgray" stroke="lightgray" points="137.59,-938 137.59,-990 207.59,-990 207.59,-938 137.59,-938"/>
</g>
<g id="clust5" class="cluster">
<title>cluster_4</title>
<polygon fill="lightgray" stroke="lightgray" points="108.69,-824 108.69,-930 236.48,-930 236.48,-824 108.69,-824"/>
</g>
<g id="clust6" class="cluster">
<title>cluster_5</title>
<polygon fill="lightgray" stroke="lightgray" points="32,-710 32,-816 313.18,-816 313.18,-710 32,-710"/>
</g>
<g id="clust7" class="cluster">
<title>cluster_6</title>
<polygon fill="lightgray" stroke="lightgray" points="108.69,-596 108.69,-702 236.48,-702 236.48,-596 108.69,-596"/>
</g>
<g id="clust8" class="cluster">
<title>cluster_7</title>
<polygon fill="lightgray" stroke="lightgray" points="100.89,-428 100.89,-588 244.28,-588 244.28,-428 100.89,-428"/>
</g>
<g id="clust9" class="cluster">
<title>cluster_8</title>
<polygon fill="lightgray" stroke="lightgray" points="108.69,-306 108.69,-412 236.48,-412 236.48,-306 108.69,-306"/>
</g>
<g id="clust10" class="cluster">
<title>cluster_9</title>
<polygon fill="lightgray" stroke="lightgray" points="108.69,-192 108.69,-298 236.48,-298 236.48,-192 108.69,-192"/>
</g>
<g id="clust11" class="cluster">
<title>cluster_10</title>
<polygon fill="lightgray" stroke="lightgray" points="54.1,-16 54.1,-176 291.08,-176 291.08,-16 54.1,-16"/>
</g>
<!-- ICU(3) -->
<g id="node1" class="node">
<title>ICU(3)</title>
<ellipse fill="springgreen" stroke="springgreen" cx="172.59" cy="-964" rx="27" ry="18"/>
<text text-anchor="middle" x="172.59" y="-960.3" font-family="Times,serif" font-size="14.00">ICU</text>
</g>
<!-- ICU(4) -->
<g id="node2" class="node">
<title>ICU(4)</title>
<ellipse fill="springgreen" stroke="springgreen" cx="172.59" cy="-904" rx="27" ry="18"/>
<text text-anchor="middle" x="172.59" y="-900.3" font-family="Times,serif" font-size="14.00">ICU</text>
</g>
<!-- ICU License(4) -->
<g id="node3" class="node">
<title>ICU License(4)</title>
<ellipse fill="white" stroke="white" cx="172.59" cy="-850" rx="55.79" ry="18"/>
<text text-anchor="middle" x="172.59" y="-846.3" font-family="Times,serif" font-size="14.00">ICU License</text>
</g>
<!-- ICU(5) -->
<g id="node4" class="node">
<title>ICU(5)</title>
<ellipse fill="springgreen" stroke="springgreen" cx="172.59" cy="-790" rx="27" ry="18"/>
<text text-anchor="middle" x="172.59" y="-786.3" font-family="Times,serif" font-size="14.00">ICU</text>
</g>
<!-- ICU License (ICU 1.8.1 and later)(5) -->
<g id="node5" class="node">
<title>ICU License (ICU 1.8.1 and later)(5)</title>
<ellipse fill="white" stroke="white" cx="172.59" cy="-736" rx="132.68" ry="18"/>
<text text-anchor="middle" x="172.59" y="-732.3" font-family="Times,serif" font-size="14.00">ICU License (ICU 1.8.1 and later)</text>
</g>
<!-- ICU(6) -->
<g id="node6" class="node">
<title>ICU(6)</title>
<ellipse fill="springgreen" stroke="springgreen" cx="172.59" cy="-676" rx="27" ry="18"/>
<text text-anchor="middle" x="172.59" y="-672.3" font-family="Times,serif" font-size="14.00">ICU</text>
</g>
<!-- ICU License(6) -->
<g id="node7" class="node">
<title>ICU License(6)</title>
<ellipse fill="white" stroke="white" cx="172.59" cy="-622" rx="55.79" ry="18"/>
<text text-anchor="middle" x="172.59" y="-618.3" font-family="Times,serif" font-size="14.00">ICU License</text>
</g>
<!-- ICU(7) -->
<g id="node8" class="node">
<title>ICU(7)</title>
<ellipse fill="springgreen" stroke="springgreen" cx="172.59" cy="-562" rx="27" ry="18"/>
<text text-anchor="middle" x="172.59" y="-558.3" font-family="Times,serif" font-size="14.00">ICU</text>
</g>
<!-- X11 License(7) -->
<g id="node9" class="node">
<title>X11 License(7)</title>
<ellipse fill="white" stroke="white" cx="172.59" cy="-508" rx="55.79" ry="18"/>
<text text-anchor="middle" x="172.59" y="-504.3" font-family="Times,serif" font-size="14.00">X11 License</text>
</g>
<!-- scancode://x11(7) -->
<g id="node10" class="node">
<title>scancode://x11(7)</title>
<ellipse fill="white" stroke="white" cx="172.59" cy="-454" rx="63.89" ry="18"/>
<text text-anchor="middle" x="172.59" y="-450.3" font-family="Times,serif" font-size="14.00">scancode://x11</text>
</g>
<!-- X11(8) -->
<g id="node11" class="node">
<title>X11(8)</title>
<ellipse fill="orange" stroke="orange" cx="172.59" cy="-386" rx="27" ry="18"/>
<text text-anchor="middle" x="172.59" y="-382.3" font-family="Times,serif" font-size="14.00">X11</text>
</g>
<!-- X11 License(8) -->
<g id="node12" class="node">
<title>X11 License(8)</title>
<ellipse fill="lightgray" stroke="lightgray" cx="172.59" cy="-332" rx="55.79" ry="18"/>
<text text-anchor="middle" x="172.59" y="-328.3" font-family="Times,serif" font-size="14.00">X11 License</text>
</g>
<!-- X11(9) -->
<g id="node13" class="node">
<title>X11(9)</title>
<ellipse fill="orange" stroke="orange" cx="172.59" cy="-272" rx="27" ry="18"/>
<text text-anchor="middle" x="172.59" y="-268.3" font-family="Times,serif" font-size="14.00">X11</text>
</g>
<!-- X11 License(9) -->
<g id="node14" class="node">
<title>X11 License(9)</title>
<ellipse fill="lightgray" stroke="lightgray" cx="172.59" cy="-218" rx="55.79" ry="18"/>
<text text-anchor="middle" x="172.59" y="-214.3" font-family="Times,serif" font-size="14.00">X11 License</text>
</g>
<!-- X11(10) -->
<g id="node15" class="node">
<title>X11(10)</title>
<ellipse fill="orange" stroke="orange" cx="172.59" cy="-150" rx="27" ry="18"/>
<text text-anchor="middle" x="172.59" y="-146.3" font-family="Times,serif" font-size="14.00">X11</text>
</g>
<!-- X11&#45;Style (X Consortium)(10) -->
<g id="node16" class="node">
<title>X11&#45;Style (X Consortium)(10)</title>
<ellipse fill="white" stroke="white" cx="172.59" cy="-96" rx="105.88" ry="18"/>
<text text-anchor="middle" x="172.59" y="-92.3" font-family="Times,serif" font-size="14.00">X11&#45;Style (X Consortium)</text>
</g>
<!-- scancode://x11&#45;xconsortium(10) -->
<g id="node17" class="node">
<title>scancode://x11&#45;xconsortium(10)</title>
<ellipse fill="white" stroke="white" cx="172.59" cy="-42" rx="110.48" ry="18"/>
<text text-anchor="middle" x="172.59" y="-38.3" font-family="Times,serif" font-size="14.00">scancode://x11&#45;xconsortium</text>
</g>
</g>
</svg>
