<?xml version="1.0" encoding="UTF-8" standalone="no"?>
<!DOCTYPE svg PUBLIC "-//W3C//DTD SVG 1.1//EN"
 "http://www.w3.org/Graphics/SVG/1.1/DTD/svg11.dtd">
<!-- Generated by graphviz version 2.43.0 (0)
 -->
<!-- Title: ICU Pages: 1 -->
<svg width="2721pt" height="130pt"
 viewBox="0.00 0.00 2721.00 130.43" xmlns="http://www.w3.org/2000/svg" xmlns:xlink="http://www.w3.org/1999/xlink">
<g id="graph0" class="graph" transform="scale(1 1) rotate(0) translate(4 126.43)">
<title>ICU</title>
<polygon fill="white" stroke="transparent" points="-4,4 -4,-126.43 2717,-126.43 2717,4 -4,4"/>
<g id="clust1" class="cluster">
<title>cluster_0</title>
<polygon fill="none" stroke="black" points="8,-8 8,-114.43 2705,-114.43 2705,-8 8,-8"/>
</g>
<g id="clust2" class="cluster">
<title>cluster_1</title>
<polygon fill="none" stroke="black" points="773,-16 773,-106.43 2697,-106.43 2697,-16 773,-16"/>
</g>
<g id="clust3" class="cluster">
<title>cluster_2</title>
<polygon fill="none" stroke="black" points="1413,-24 1413,-98.43 2689,-98.43 2689,-24 1413,-24"/>
</g>
<g id="clust4" class="cluster">
<title>cluster_3</title>
<polygon fill="lightgray" stroke="lightgray" points="2551,-32 2551,-90.43 2681,-90.43 2681,-32 2551,-32"/>
</g>
<g id="clust5" class="cluster">
<title>cluster_4</title>
<polygon fill="lightgray" stroke="lightgray" points="2243,-32 2243,-90.43 2543,-90.43 2543,-32 2243,-32"/>
</g>
<g id="clust6" class="cluster">
<title>cluster_5</title>
<polygon fill="lightgray" stroke="lightgray" points="1935,-32 1935,-90.43 2235,-90.43 2235,-32 1935,-32"/>
</g>
<g id="clust7" class="cluster">
<title>cluster_6</title>
<polygon fill="lightgray" stroke="lightgray" points="1421,-32 1421,-90.43 1927,-90.43 1927,-32 1421,-32"/>
</g>
<g id="clust8" class="cluster">
<title>cluster_7</title>
<polygon fill="lightgray" stroke="lightgray" points="1097,-32 1097,-90.43 1405,-90.43 1405,-32 1097,-32"/>
</g>
<g id="clust9" class="cluster">
<title>cluster_8</title>
<polygon fill="lightgray" stroke="lightgray" points="781,-32 781,-90.43 1089,-90.43 1089,-32 781,-32"/>
</g>
<g id="clust10" class="cluster">
<title>cluster_9</title>
<polygon fill="lightgray" stroke="lightgray" points="16,-32 16,-90.43 765,-90.43 765,-32 16,-32"/>
</g>
<!-- ICU(3) -->
<g id="node1" class="node">
<title>ICU(3)</title>
<ellipse fill="springgreen" stroke="springgreen" cx="2616" cy="-61.21" rx="56.64" ry="21.43"/>
<text text-anchor="middle" x="2616" y="-56.21" font-family="Times-Roman" font-size="20.00">ICU(3)</text>
</g>
<!-- ICU(4) -->
<g id="node2" class="node">
<title>ICU(4)</title>
<ellipse fill="springgreen" stroke="springgreen" cx="2478" cy="-61.21" rx="56.64" ry="21.43"/>
<text text-anchor="middle" x="2478" y="-56.21" font-family="Times-Roman" font-size="20.00">ICU(4)</text>
</g>
<!-- ICU License(4) -->
<g id="node3" class="node">
<title>ICU License(4)</title>
<ellipse fill="white" stroke="white" cx="2327" cy="-61.21" rx="76.09" ry="18"/>
<text text-anchor="middle" x="2327" y="-57.51" font-family="Times-Roman" font-size="14.00">ICU License(4)</text>
</g>
<!-- ICU(5) -->
<g id="node4" class="node">
<title>ICU(5)</title>
<ellipse fill="springgreen" stroke="springgreen" cx="2170" cy="-61.21" rx="56.64" ry="21.43"/>
<text text-anchor="middle" x="2170" y="-56.21" font-family="Times-Roman" font-size="20.00">ICU(5)</text>
</g>
<!-- ICU License(5) -->
<g id="node5" class="node">
<title>ICU License(5)</title>
<ellipse fill="white" stroke="white" cx="2019" cy="-61.21" rx="76.09" ry="18"/>
<text text-anchor="middle" x="2019" y="-57.51" font-family="Times-Roman" font-size="14.00">ICU License(5)</text>
</g>
<!-- ICU(6) -->
<g id="node6" class="node">
<title>ICU(6)</title>
<ellipse fill="springgreen" stroke="springgreen" cx="1862" cy="-61.21" rx="56.64" ry="21.43"/>
<text text-anchor="middle" x="1862" y="-56.21" font-family="Times-Roman" font-size="20.00">ICU(6)</text>
</g>
<!-- X11 License(6) -->
<g id="node7" class="node">
<title>X11 License(6)</title>
<ellipse fill="white" stroke="white" cx="1709" cy="-61.21" rx="77.99" ry="18"/>
<text text-anchor="middle" x="1709" y="-57.51" font-family="Times-Roman" font-size="14.00">X11 License(6)</text>
</g>
<!-- scancode://x11(6) -->
<g id="node8" class="node">
<title>scancode://x11(6)</title>
<ellipse fill="white" stroke="white" cx="1521" cy="-61.21" rx="91.78" ry="18"/>
<text text-anchor="middle" x="1521" y="-57.51" font-family="Times-Roman" font-size="14.00">scancode://x11(6)</text>
</g>
<!-- X11(7) -->
<g id="node9" class="node">
<title>X11(7)</title>
<ellipse fill="orange" stroke="orange" cx="1338" cy="-61.21" rx="58.88" ry="21.43"/>
<text text-anchor="middle" x="1338" y="-56.21" font-family="Times-Roman" font-size="20.00">X11(7)</text>
</g>
<!-- X11 License(7) -->
<g id="node10" class="node">
<title>X11 License(7)</title>
<ellipse fill="white" stroke="white" cx="1183" cy="-61.21" rx="77.99" ry="18"/>
<text text-anchor="middle" x="1183" y="-57.51" font-family="Times-Roman" font-size="14.00">X11 License(7)</text>
</g>
<!-- X11(8) -->
<g id="node11" class="node">
<title>X11(8)</title>
<ellipse fill="orange" stroke="orange" cx="1022" cy="-61.21" rx="58.88" ry="21.43"/>
<text text-anchor="middle" x="1022" y="-56.21" font-family="Times-Roman" font-size="20.00">X11(8)</text>
</g>
<!-- X11 License(8) -->
<g id="node12" class="node">
<title>X11 License(8)</title>
<ellipse fill="white" stroke="white" cx="867" cy="-61.21" rx="77.99" ry="18"/>
<text text-anchor="middle" x="867" y="-57.51" font-family="Times-Roman" font-size="14.00">X11 License(8)</text>
</g>
<!-- X11(9) -->
<g id="node13" class="node">
<title>X11(9)</title>
<ellipse fill="orange" stroke="orange" cx="698" cy="-61.21" rx="58.88" ry="21.43"/>
<text text-anchor="middle" x="698" y="-56.21" font-family="Times-Roman" font-size="20.00">X11(9)</text>
</g>
<!-- X11&#45;Style (X Consortium)(9) -->
<g id="node14" class="node">
<title>X11&#45;Style (X Consortium)(9)</title>
<ellipse fill="white" stroke="white" cx="483" cy="-61.21" rx="138.38" ry="18"/>
<text text-anchor="middle" x="483" y="-57.51" font-family="Times-Roman" font-size="14.00">X11&#45;Style (X Consortium)(9)</text>
</g>
<!-- scancode://x11&#45;xconsortium(9) -->
<g id="node15" class="node">
<title>scancode://x11&#45;xconsortium(9)</title>
<ellipse fill="white" stroke="white" cx="175" cy="-61.21" rx="151.37" ry="18"/>
<text text-anchor="middle" x="175" y="-57.51" font-family="Times-Roman" font-size="14.00">scancode://x11&#45;xconsortium(9)</text>
</g>
</g>
</svg>
