<?xml version="1.0" encoding="UTF-8" standalone="no"?>
<!DOCTYPE svg PUBLIC "-//W3C//DTD SVG 1.1//EN"
 "http://www.w3.org/Graphics/SVG/1.1/DTD/svg11.dtd">
<!-- Generated by graphviz version 2.43.0 (0)
 -->
<!-- Title: IJG Pages: 1 -->
<svg width="374pt" height="488pt"
 viewBox="0.00 0.00 374.47 488.00" xmlns="http://www.w3.org/2000/svg" xmlns:xlink="http://www.w3.org/1999/xlink">
<g id="graph0" class="graph" transform="scale(1 1) rotate(0) translate(4 484)">
<title>IJG</title>
<polygon fill="white" stroke="transparent" points="-4,4 -4,-484 370.47,-484 370.47,4 -4,4"/>
<g id="clust1" class="cluster">
<title>cluster_0</title>
<polygon fill="none" stroke="black" points="8,-8 8,-472 358.47,-472 358.47,-8 8,-8"/>
</g>
<g id="clust2" class="cluster">
<title>cluster_1</title>
<polygon fill="lightgray" stroke="lightgray" points="148.24,-412 148.24,-464 218.24,-464 218.24,-412 148.24,-412"/>
</g>
<g id="clust3" class="cluster">
<title>cluster_2</title>
<polygon fill="lightgray" stroke="lightgray" points="16,-298 16,-404 350.47,-404 350.47,-298 16,-298"/>
</g>
<g id="clust4" class="cluster">
<title>cluster_3</title>
<polygon fill="lightgray" stroke="lightgray" points="16,-184 16,-290 350.47,-290 350.47,-184 16,-184"/>
</g>
<g id="clust5" class="cluster">
<title>cluster_4</title>
<polygon fill="lightgray" stroke="lightgray" points="102.44,-16 102.44,-176 264.03,-176 264.03,-16 102.44,-16"/>
</g>
<!-- IJG(1) -->
<g id="node1" class="node">
<title>IJG(1)</title>
<ellipse fill="springgreen" stroke="springgreen" cx="183.24" cy="-438" rx="27" ry="18"/>
<text text-anchor="middle" x="183.24" y="-434.3" font-family="Times-Roman" font-size="14.00">IJG</text>
</g>
<!-- IJG(2) -->
<g id="node2" class="node">
<title>IJG(2)</title>
<ellipse fill="springgreen" stroke="springgreen" cx="183.24" cy="-378" rx="27" ry="18"/>
<text text-anchor="middle" x="183.24" y="-374.3" font-family="Times-Roman" font-size="14.00">IJG</text>
</g>
<!-- Independent JPEG Group License(2) -->
<g id="node3" class="node">
<title>Independent JPEG Group License(2)</title>
<ellipse fill="white" stroke="white" cx="183.24" cy="-324" rx="159.47" ry="18"/>
<text text-anchor="middle" x="183.24" y="-320.3" font-family="Times-Roman" font-size="14.00">Independent JPEG Group License</text>
</g>
<!-- IJG(3) -->
<g id="node4" class="node">
<title>IJG(3)</title>
<ellipse fill="springgreen" stroke="springgreen" cx="183.24" cy="-264" rx="27" ry="18"/>
<text text-anchor="middle" x="183.24" y="-260.3" font-family="Times-Roman" font-size="14.00">IJG</text>
</g>
<!-- Independent JPEG Group License(3) -->
<g id="node5" class="node">
<title>Independent JPEG Group License(3)</title>
<ellipse fill="white" stroke="white" cx="183.24" cy="-210" rx="159.47" ry="18"/>
<text text-anchor="middle" x="183.24" y="-206.3" font-family="Times-Roman" font-size="14.00">Independent JPEG Group License</text>
</g>
<!-- IJG(4) -->
<g id="node6" class="node">
<title>IJG(4)</title>
<ellipse fill="springgreen" stroke="springgreen" cx="183.24" cy="-150" rx="27" ry="18"/>
<text text-anchor="middle" x="183.24" y="-146.3" font-family="Times-Roman" font-size="14.00">IJG</text>
</g>
<!-- JPEG License(4) -->
<g id="node7" class="node">
<title>JPEG License(4)</title>
<ellipse fill="white" stroke="white" cx="183.24" cy="-96" rx="68.49" ry="18"/>
<text text-anchor="middle" x="183.24" y="-92.3" font-family="Times-Roman" font-size="14.00">JPEG License</text>
</g>
<!-- scancode://ijg(4) -->
<g id="node8" class="node">
<title>scancode://ijg(4)</title>
<ellipse fill="white" stroke="white" cx="183.24" cy="-42" rx="72.59" ry="18"/>
<text text-anchor="middle" x="183.24" y="-38.3" font-family="Times-Roman" font-size="14.00">scancode://ijg</text>
</g>
</g>
</svg>
