<?xml version="1.0" encoding="UTF-8" standalone="no"?>
<!DOCTYPE svg PUBLIC "-//W3C//DTD SVG 1.1//EN"
 "http://www.w3.org/Graphics/SVG/1.1/DTD/svg11.dtd">
<!-- Generated by graphviz version 2.43.0 (0)
 -->
<!-- Title: Info&#45;ZIP Pages: 1 -->
<svg width="558pt" height="830pt"
 viewBox="0.00 0.00 557.76 830.00" xmlns="http://www.w3.org/2000/svg" xmlns:xlink="http://www.w3.org/1999/xlink">
<g id="graph0" class="graph" transform="scale(1 1) rotate(0) translate(4 826)">
<title>Info&#45;ZIP</title>
<polygon fill="white" stroke="transparent" points="-4,4 -4,-826 553.76,-826 553.76,4 -4,4"/>
<g id="clust1" class="cluster">
<title>cluster_0</title>
<polygon fill="none" stroke="black" points="8,-8 8,-814 541.76,-814 541.76,-8 8,-8"/>
</g>
<g id="clust2" class="cluster">
<title>cluster_1</title>
<polygon fill="lightgray" stroke="lightgray" points="220.08,-754 220.08,-806 329.67,-806 329.67,-754 220.08,-754"/>
</g>
<g id="clust3" class="cluster">
<title>cluster_2</title>
<polygon fill="lightgray" stroke="lightgray" points="183.69,-640 183.69,-746 366.07,-746 366.07,-640 183.69,-640"/>
</g>
<g id="clust4" class="cluster">
<title>cluster_3</title>
<polygon fill="lightgray" stroke="lightgray" points="183.69,-526 183.69,-632 366.07,-632 366.07,-526 183.69,-526"/>
</g>
<g id="clust5" class="cluster">
<title>cluster_4</title>
<polygon fill="lightgray" stroke="lightgray" points="170.69,-358 170.69,-518 379.07,-518 379.07,-358 170.69,-358"/>
</g>
<g id="clust6" class="cluster">
<title>cluster_5</title>
<polygon fill="lightgray" stroke="lightgray" points="83.59,-244 83.59,-350 466.16,-350 466.16,-244 83.59,-244"/>
</g>
<g id="clust7" class="cluster">
<title>cluster_6</title>
<polygon fill="lightgray" stroke="lightgray" points="16,-130 16,-236 533.76,-236 533.76,-130 16,-130"/>
</g>
<g id="clust8" class="cluster">
<title>cluster_7</title>
<polygon fill="lightgray" stroke="lightgray" points="82.29,-16 82.29,-122 467.46,-122 467.46,-16 82.29,-16"/>
</g>
<!-- Info&#45;ZIP(1) -->
<g id="node1" class="node">
<title>Info&#45;ZIP(1)</title>
<ellipse fill="springgreen" stroke="springgreen" cx="274.88" cy="-780" rx="46.59" ry="18"/>
<text text-anchor="middle" x="274.88" y="-776.3" font-family="Times-Roman" font-size="14.00">Info&#45;ZIP</text>
</g>
<!-- Info&#45;ZIP(2) -->
<g id="node2" class="node">
<title>Info&#45;ZIP(2)</title>
<ellipse fill="springgreen" stroke="springgreen" cx="274.88" cy="-720" rx="46.59" ry="18"/>
<text text-anchor="middle" x="274.88" y="-716.3" font-family="Times-Roman" font-size="14.00">Info&#45;ZIP</text>
</g>
<!-- Info&#45;ZIP License(2) -->
<g id="node3" class="node">
<title>Info&#45;ZIP License(2)</title>
<ellipse fill="white" stroke="white" cx="274.88" cy="-666" rx="83.39" ry="18"/>
<text text-anchor="middle" x="274.88" y="-662.3" font-family="Times-Roman" font-size="14.00">Info&#45;ZIP License</text>
</g>
<!-- Info&#45;ZIP(3) -->
<g id="node4" class="node">
<title>Info&#45;ZIP(3)</title>
<ellipse fill="springgreen" stroke="springgreen" cx="274.88" cy="-606" rx="46.59" ry="18"/>
<text text-anchor="middle" x="274.88" y="-602.3" font-family="Times-Roman" font-size="14.00">Info&#45;ZIP</text>
</g>
<!-- Info&#45;ZIP License(3) -->
<g id="node5" class="node">
<title>Info&#45;ZIP License(3)</title>
<ellipse fill="white" stroke="white" cx="274.88" cy="-552" rx="83.39" ry="18"/>
<text text-anchor="middle" x="274.88" y="-548.3" font-family="Times-Roman" font-size="14.00">Info&#45;ZIP License</text>
</g>
<!-- Info&#45;ZIP(4) -->
<g id="node6" class="node">
<title>Info&#45;ZIP(4)</title>
<ellipse fill="springgreen" stroke="springgreen" cx="274.88" cy="-492" rx="46.59" ry="18"/>
<text text-anchor="middle" x="274.88" y="-488.3" font-family="Times-Roman" font-size="14.00">Info&#45;ZIP</text>
</g>
<!-- Info&#45;Zip License(4) -->
<g id="node7" class="node">
<title>Info&#45;Zip License(4)</title>
<ellipse fill="white" stroke="white" cx="274.88" cy="-438" rx="83.39" ry="18"/>
<text text-anchor="middle" x="274.88" y="-434.3" font-family="Times-Roman" font-size="14.00">Info&#45;Zip License</text>
</g>
<!-- scancode://info&#45;zip(4) -->
<g id="node8" class="node">
<title>scancode://info&#45;zip(4)</title>
<ellipse fill="white" stroke="white" cx="274.88" cy="-384" rx="96.38" ry="18"/>
<text text-anchor="middle" x="274.88" y="-380.3" font-family="Times-Roman" font-size="14.00">scancode://info&#45;zip</text>
</g>
<!-- Info&#45;ZIP(5) -->
<g id="node9" class="node">
<title>Info&#45;ZIP(5)</title>
<ellipse fill="springgreen" stroke="springgreen" cx="274.88" cy="-324" rx="46.59" ry="18"/>
<text text-anchor="middle" x="274.88" y="-320.3" font-family="Times-Roman" font-size="14.00">Info&#45;ZIP</text>
</g>
<!-- Info&#45;ZIP license (version 2009&#45;Jan&#45;02)(5) -->
<g id="node10" class="node">
<title>Info&#45;ZIP license (version 2009&#45;Jan&#45;02)(5)</title>
<ellipse fill="white" stroke="white" cx="274.88" cy="-270" rx="183.07" ry="18"/>
<text text-anchor="middle" x="274.88" y="-266.3" font-family="Times-Roman" font-size="14.00">Info&#45;ZIP license (version 2009&#45;Jan&#45;02)</text>
</g>
<!-- Info&#45;ZIP(6) -->
<g id="node11" class="node">
<title>Info&#45;ZIP(6)</title>
<ellipse fill="springgreen" stroke="springgreen" cx="274.88" cy="-210" rx="46.59" ry="18"/>
<text text-anchor="middle" x="274.88" y="-206.3" font-family="Times-Roman" font-size="14.00">Info&#45;ZIP</text>
</g>
<!-- Info&#45;ZIP copyright and license (version 2005&#45;Feb&#45;10)(6) -->
<g id="node12" class="node">
<title>Info&#45;ZIP copyright and license (version 2005&#45;Feb&#45;10)(6)</title>
<ellipse fill="white" stroke="white" cx="274.88" cy="-156" rx="250.76" ry="18"/>
<text text-anchor="middle" x="274.88" y="-152.3" font-family="Times-Roman" font-size="14.00">Info&#45;ZIP copyright and license (version 2005&#45;Feb&#45;10)</text>
</g>
<!-- Info&#45;ZIP(7) -->
<g id="node13" class="node">
<title>Info&#45;ZIP(7)</title>
<ellipse fill="springgreen" stroke="springgreen" cx="274.88" cy="-96" rx="46.59" ry="18"/>
<text text-anchor="middle" x="274.88" y="-92.3" font-family="Times-Roman" font-size="14.00">Info&#45;ZIP</text>
</g>
<!-- Info&#45;ZIP license (Version 2007&#45;Mar&#45;04)(7) -->
<g id="node14" class="node">
<title>Info&#45;ZIP license (Version 2007&#45;Mar&#45;04)(7)</title>
<ellipse fill="white" stroke="white" cx="274.88" cy="-42" rx="184.67" ry="18"/>
<text text-anchor="middle" x="274.88" y="-38.3" font-family="Times-Roman" font-size="14.00">Info&#45;ZIP license (Version 2007&#45;Mar&#45;04)</text>
</g>
</g>
</svg>
