<?xml version="1.0" encoding="UTF-8" standalone="no"?>
<!DOCTYPE svg PUBLIC "-//W3C//DTD SVG 1.1//EN"
 "http://www.w3.org/Graphics/SVG/1.1/DTD/svg11.dtd">
<!-- Generated by graphviz version 2.43.0 (0)
 -->
<!-- Title: Intel Pages: 1 -->
<svg width="1861pt" height="92pt"
 viewBox="0.00 0.00 1861.00 92.00" xmlns="http://www.w3.org/2000/svg" xmlns:xlink="http://www.w3.org/1999/xlink">
<g id="graph0" class="graph" transform="scale(1 1) rotate(0) translate(4 88)">
<title>Intel</title>
<polygon fill="white" stroke="transparent" points="-4,4 -4,-88 1857,-88 1857,4 -4,4"/>
<g id="clust1" class="cluster">
<title>cluster_0</title>
<polygon fill="none" stroke="black" points="8,-8 8,-76 1845,-76 1845,-8 8,-8"/>
</g>
<g id="clust2" class="cluster">
<title>cluster_1</title>
<polygon fill="lightgray" stroke="lightgray" points="1759,-16 1759,-68 1837,-68 1837,-16 1759,-16"/>
</g>
<g id="clust3" class="cluster">
<title>cluster_2</title>
<polygon fill="lightgray" stroke="lightgray" points="1479,-16 1479,-68 1751,-68 1751,-16 1479,-16"/>
</g>
<g id="clust5" class="cluster">
<title>cluster_4</title>
<polygon fill="lightgray" stroke="lightgray" points="849,-16 849,-68 1471,-68 1471,-16 849,-16"/>
</g>
<g id="clust6" class="cluster">
<title>cluster_5</title>
<polygon fill="lightgray" stroke="lightgray" points="16,-16 16,-68 841,-68 841,-16 16,-16"/>
</g>
<!-- Intel -->
<g id="node1" class="node">
<title>Intel</title>
<ellipse fill="white" stroke="white" cx="1798" cy="-42" rx="30.59" ry="18"/>
<text text-anchor="middle" x="1798" y="-38.3" font-family="Times-Roman" font-size="14.00">Intel</text>
</g>
<!-- Intel Open Source License -->
<g id="node2" class="node">
<title>Intel Open Source License</title>
<ellipse fill="white" stroke="white" cx="1615" cy="-42" rx="128.08" ry="18"/>
<text text-anchor="middle" x="1615" y="-38.3" font-family="Times-Roman" font-size="14.00">Intel Open Source License</text>
</g>
<!-- Intel BSD &#45; Export Control -->
<g id="node3" class="node">
<title>Intel BSD &#45; Export Control</title>
<ellipse fill="white" stroke="white" cx="1337" cy="-42" rx="126.18" ry="18"/>
<text text-anchor="middle" x="1337" y="-38.3" font-family="Times-Roman" font-size="14.00">Intel BSD &#45; Export Control</text>
</g>
<!-- scancode://intel&#45;bsd&#45;export&#45;control -->
<g id="node4" class="node">
<title>scancode://intel&#45;bsd&#45;export&#45;control</title>
<ellipse fill="white" stroke="white" cx="1025" cy="-42" rx="168.17" ry="18"/>
<text text-anchor="middle" x="1025" y="-38.3" font-family="Times-Roman" font-size="14.00">scancode://intel&#45;bsd&#45;export&#45;control</text>
</g>
<!-- License :: OSI Approved :: Intel Open Source License -->
<g id="node5" class="node">
<title>License :: OSI Approved :: Intel Open Source License</title>
<ellipse fill="white" stroke="white" cx="585" cy="-42" rx="247.76" ry="18"/>
<text text-anchor="middle" x="585" y="-38.3" font-family="Times-Roman" font-size="14.00">License :: OSI Approved :: Intel Open Source License</text>
</g>
<!-- The Intel Open Source License -->
<g id="node6" class="node">
<title>The Intel Open Source License</title>
<ellipse fill="white" stroke="white" cx="172" cy="-42" rx="147.57" ry="18"/>
<text text-anchor="middle" x="172" y="-38.3" font-family="Times-Roman" font-size="14.00">The Intel Open Source License</text>
</g>
</g>
</svg>
