<?xml version="1.0" encoding="UTF-8" standalone="no"?>
<!DOCTYPE svg PUBLIC "-//W3C//DTD SVG 1.1//EN"
 "http://www.w3.org/Graphics/SVG/1.1/DTD/svg11.dtd">
<!-- Generated by graphviz version 2.43.0 (0)
 -->
<!-- Title: IPA Pages: 1 -->
<svg width="740pt" height="92pt"
 viewBox="0.00 0.00 740.00 92.00" xmlns="http://www.w3.org/2000/svg" xmlns:xlink="http://www.w3.org/1999/xlink">
<g id="graph0" class="graph" transform="scale(1 1) rotate(0) translate(4 88)">
<title>IPA</title>
<polygon fill="white" stroke="transparent" points="-4,4 -4,-88 736,-88 736,4 -4,4"/>
<g id="clust1" class="cluster">
<title>cluster_0</title>
<polygon fill="none" stroke="black" points="8,-8 8,-76 724,-76 724,-8 8,-8"/>
</g>
<g id="clust2" class="cluster">
<title>cluster_1</title>
<polygon fill="lightgray" stroke="lightgray" points="646,-16 646,-68 716,-68 716,-16 646,-16"/>
</g>
<g id="clust3" class="cluster">
<title>cluster_2</title>
<polygon fill="lightgray" stroke="lightgray" points="454,-16 454,-68 638,-68 638,-16 454,-16"/>
</g>
<g id="clust4" class="cluster">
<title>cluster_3</title>
<polygon fill="lightgray" stroke="lightgray" points="16,-16 16,-68 446,-68 446,-16 16,-16"/>
</g>
<!-- IPA -->
<g id="node1" class="node">
<title>IPA</title>
<ellipse fill="white" stroke="white" cx="681" cy="-42" rx="27" ry="18"/>
<text text-anchor="middle" x="681" y="-38.3" font-family="Times-Roman" font-size="14.00">IPA</text>
</g>
<!-- IPA Font License -->
<g id="node2" class="node">
<title>IPA Font License</title>
<ellipse fill="white" stroke="white" cx="546" cy="-42" rx="83.69" ry="18"/>
<text text-anchor="middle" x="546" y="-38.3" font-family="Times-Roman" font-size="14.00">IPA Font License</text>
</g>
<!-- IPA Font License 1.0 -->
<g id="node3" class="node">
<title>IPA Font License 1.0</title>
<ellipse fill="white" stroke="white" cx="337" cy="-42" rx="101.28" ry="18"/>
<text text-anchor="middle" x="337" y="-38.3" font-family="Times-Roman" font-size="14.00">IPA Font License 1.0</text>
</g>
<!-- scancode://ipa&#45;font -->
<g id="node4" class="node">
<title>scancode://ipa&#45;font</title>
<ellipse fill="white" stroke="white" cx="121" cy="-42" rx="96.68" ry="18"/>
<text text-anchor="middle" x="121" y="-38.3" font-family="Times-Roman" font-size="14.00">scancode://ipa&#45;font</text>
</g>
</g>
</svg>
