<?xml version="1.0" encoding="UTF-8" standalone="no"?>
<!DOCTYPE svg PUBLIC "-//W3C//DTD SVG 1.1//EN"
 "http://www.w3.org/Graphics/SVG/1.1/DTD/svg11.dtd">
<!-- Generated by graphviz version 2.43.0 (0)
 -->
<!-- Title: IPL&#45;1.0 Pages: 1 -->
<svg width="500pt" height="1014pt"
 viewBox="0.00 0.00 499.66 1014.00" xmlns="http://www.w3.org/2000/svg" xmlns:xlink="http://www.w3.org/1999/xlink">
<g id="graph0" class="graph" transform="scale(1 1) rotate(0) translate(4 1010)">
<title>IPL&#45;1.0</title>
<polygon fill="white" stroke="transparent" points="-4,4 -4,-1010 495.66,-1010 495.66,4 -4,4"/>
<g id="clust1" class="cluster">
<title>cluster_0</title>
<polygon fill="none" stroke="black" points="8,-8 8,-998 483.66,-998 483.66,-8 8,-8"/>
</g>
<g id="clust2" class="cluster">
<title>cluster_1</title>
<polygon fill="none" stroke="black" points="16,-76 16,-990 475.66,-990 475.66,-76 16,-76"/>
</g>
<g id="clust3" class="cluster">
<title>cluster_2</title>
<polygon fill="lightgray" stroke="lightgray" points="195.58,-930 195.58,-982 296.08,-982 296.08,-930 195.58,-930"/>
</g>
<g id="clust4" class="cluster">
<title>cluster_3</title>
<polygon fill="lightgray" stroke="lightgray" points="120.84,-816 120.84,-922 370.82,-922 370.82,-816 120.84,-816"/>
</g>
<g id="clust5" class="cluster">
<title>cluster_4</title>
<polygon fill="lightgray" stroke="lightgray" points="126.04,-648 126.04,-808 365.62,-808 365.62,-648 126.04,-648"/>
</g>
<g id="clust6" class="cluster">
<title>cluster_5</title>
<polygon fill="lightgray" stroke="lightgray" points="24,-480 24,-640 467.66,-640 467.66,-480 24,-480"/>
</g>
<g id="clust7" class="cluster">
<title>cluster_6</title>
<polygon fill="lightgray" stroke="lightgray" points="120.84,-366 120.84,-472 370.82,-472 370.82,-366 120.84,-366"/>
</g>
<g id="clust8" class="cluster">
<title>cluster_7</title>
<polygon fill="lightgray" stroke="lightgray" points="132.54,-198 132.54,-358 359.12,-358 359.12,-198 132.54,-198"/>
</g>
<g id="clust9" class="cluster">
<title>cluster_8</title>
<polygon fill="lightgray" stroke="lightgray" points="126.04,-84 126.04,-190 365.62,-190 365.62,-84 126.04,-84"/>
</g>
<g id="clust10" class="cluster">
<title>cluster_9</title>
<polygon fill="lightgray" stroke="lightgray" points="90.29,-16 90.29,-68 401.37,-68 401.37,-16 90.29,-16"/>
</g>
<!-- IPL&#45;1.0(2) -->
<g id="node1" class="node">
<title>IPL&#45;1.0(2)</title>
<ellipse fill="springgreen" stroke="springgreen" cx="245.83" cy="-956" rx="42.49" ry="18"/>
<text text-anchor="middle" x="245.83" y="-952.3" font-family="Times-Roman" font-size="14.00">IPL&#45;1.0</text>
</g>
<!-- IBM Public License v1.0(3) -->
<g id="node2" class="node">
<title>IBM Public License v1.0(3)</title>
<ellipse fill="white" stroke="white" cx="245.83" cy="-896" rx="116.98" ry="18"/>
<text text-anchor="middle" x="245.83" y="-892.3" font-family="Times-Roman" font-size="14.00">IBM Public License v1.0</text>
</g>
<!-- IPL&#45;1.0(3) -->
<g id="node3" class="node">
<title>IPL&#45;1.0(3)</title>
<ellipse fill="springgreen" stroke="springgreen" cx="245.83" cy="-842" rx="42.49" ry="18"/>
<text text-anchor="middle" x="245.83" y="-838.3" font-family="Times-Roman" font-size="14.00">IPL&#45;1.0</text>
</g>
<!-- IBM Public License 1.0(4) -->
<g id="node4" class="node">
<title>IBM Public License 1.0(4)</title>
<ellipse fill="white" stroke="white" cx="245.83" cy="-782" rx="111.58" ry="18"/>
<text text-anchor="middle" x="245.83" y="-778.3" font-family="Times-Roman" font-size="14.00">IBM Public License 1.0</text>
</g>
<!-- IPL&#45;1.0(4) -->
<g id="node5" class="node">
<title>IPL&#45;1.0(4)</title>
<ellipse fill="springgreen" stroke="springgreen" cx="245.83" cy="-728" rx="42.49" ry="18"/>
<text text-anchor="middle" x="245.83" y="-724.3" font-family="Times-Roman" font-size="14.00">IPL&#45;1.0</text>
</g>
<!-- ibmpl(4) -->
<g id="node6" class="node">
<title>ibmpl(4)</title>
<ellipse fill="white" stroke="white" cx="245.83" cy="-674" rx="36.29" ry="18"/>
<text text-anchor="middle" x="245.83" y="-670.3" font-family="Times-Roman" font-size="14.00">ibmpl</text>
</g>
<!-- IBM Public License, Version 1.0(5) -->
<g id="node7" class="node">
<title>IBM Public License, Version 1.0(5)</title>
<ellipse fill="white" stroke="white" cx="245.83" cy="-614" rx="150.57" ry="18"/>
<text text-anchor="middle" x="245.83" y="-610.3" font-family="Times-Roman" font-size="14.00">IBM Public License, Version 1.0</text>
</g>
<!-- IPL&#45;1.0(5) -->
<g id="node8" class="node">
<title>IPL&#45;1.0(5)</title>
<ellipse fill="springgreen" stroke="springgreen" cx="245.83" cy="-560" rx="42.49" ry="18"/>
<text text-anchor="middle" x="245.83" y="-556.3" font-family="Times-Roman" font-size="14.00">IPL&#45;1.0</text>
</g>
<!-- License :: OSI Approved :: IBM Public License(5) -->
<g id="node9" class="node">
<title>License :: OSI Approved :: IBM Public License(5)</title>
<ellipse fill="white" stroke="white" cx="245.83" cy="-506" rx="213.66" ry="18"/>
<text text-anchor="middle" x="245.83" y="-502.3" font-family="Times-Roman" font-size="14.00">License :: OSI Approved :: IBM Public License</text>
</g>
<!-- IBM Public License v1.0(6) -->
<g id="node10" class="node">
<title>IBM Public License v1.0(6)</title>
<ellipse fill="white" stroke="white" cx="245.83" cy="-446" rx="116.98" ry="18"/>
<text text-anchor="middle" x="245.83" y="-442.3" font-family="Times-Roman" font-size="14.00">IBM Public License v1.0</text>
</g>
<!-- IPL&#45;1.0(6) -->
<g id="node11" class="node">
<title>IPL&#45;1.0(6)</title>
<ellipse fill="springgreen" stroke="springgreen" cx="245.83" cy="-392" rx="42.49" ry="18"/>
<text text-anchor="middle" x="245.83" y="-388.3" font-family="Times-Roman" font-size="14.00">IPL&#45;1.0</text>
</g>
<!-- IPL 1.0(7) -->
<g id="node12" class="node">
<title>IPL 1.0(7)</title>
<ellipse fill="white" stroke="white" cx="245.83" cy="-332" rx="41.69" ry="18"/>
<text text-anchor="middle" x="245.83" y="-328.3" font-family="Times-Roman" font-size="14.00">IPL 1.0</text>
</g>
<!-- IPL&#45;1.0(7) -->
<g id="node13" class="node">
<title>IPL&#45;1.0(7)</title>
<ellipse fill="springgreen" stroke="springgreen" cx="245.83" cy="-278" rx="42.49" ry="18"/>
<text text-anchor="middle" x="245.83" y="-274.3" font-family="Times-Roman" font-size="14.00">IPL&#45;1.0</text>
</g>
<!-- scancode://ibmpl&#45;1.0(7) -->
<g id="node14" class="node">
<title>scancode://ibmpl&#45;1.0(7)</title>
<ellipse fill="white" stroke="white" cx="245.83" cy="-224" rx="105.08" ry="18"/>
<text text-anchor="middle" x="245.83" y="-220.3" font-family="Times-Roman" font-size="14.00">scancode://ibmpl&#45;1.0</text>
</g>
<!-- IBM Public License 1.0(8) -->
<g id="node15" class="node">
<title>IBM Public License 1.0(8)</title>
<ellipse fill="white" stroke="white" cx="245.83" cy="-164" rx="111.58" ry="18"/>
<text text-anchor="middle" x="245.83" y="-160.3" font-family="Times-Roman" font-size="14.00">IBM Public License 1.0</text>
</g>
<!-- IPL&#45;1.0(8) -->
<g id="node16" class="node">
<title>IPL&#45;1.0(8)</title>
<ellipse fill="springgreen" stroke="springgreen" cx="245.83" cy="-110" rx="42.49" ry="18"/>
<text text-anchor="middle" x="245.83" y="-106.3" font-family="Times-Roman" font-size="14.00">IPL&#45;1.0</text>
</g>
<!-- IBM Public License Version 1.0(9) -->
<g id="node17" class="node">
<title>IBM Public License Version 1.0(9)</title>
<ellipse fill="white" stroke="white" cx="245.83" cy="-42" rx="147.57" ry="18"/>
<text text-anchor="middle" x="245.83" y="-38.3" font-family="Times-Roman" font-size="14.00">IBM Public License Version 1.0</text>
</g>
</g>
</svg>
