<?xml version="1.0" encoding="UTF-8" standalone="no"?>
<!DOCTYPE svg PUBLIC "-//W3C//DTD SVG 1.1//EN"
 "http://www.w3.org/Graphics/SVG/1.1/DTD/svg11.dtd">
<!-- Generated by graphviz version 2.43.0 (0)
 -->
<!-- Title: ISC Pages: 1 -->
<svg width="3196pt" height="98pt"
 viewBox="0.00 0.00 3196.00 98.43" xmlns="http://www.w3.org/2000/svg" xmlns:xlink="http://www.w3.org/1999/xlink">
<g id="graph0" class="graph" transform="scale(1 1) rotate(0) translate(4 94.43)">
<title>ISC</title>
<polygon fill="white" stroke="transparent" points="-4,4 -4,-94.43 3192,-94.43 3192,4 -4,4"/>
<g id="clust1" class="cluster">
<title>cluster_0</title>
<polygon fill="none" stroke="black" points="8,-8 8,-82.43 3180,-82.43 3180,-8 8,-8"/>
</g>
<g id="clust2" class="cluster">
<title>cluster_1</title>
<polygon fill="lightgray" stroke="lightgray" points="3048,-16 3048,-74.43 3172,-74.43 3172,-16 3048,-16"/>
</g>
<g id="clust3" class="cluster">
<title>cluster_2</title>
<polygon fill="lightgray" stroke="lightgray" points="2747,-16 2747,-74.43 3040,-74.43 3040,-16 2747,-16"/>
</g>
<g id="clust4" class="cluster">
<title>cluster_3</title>
<polygon fill="lightgray" stroke="lightgray" points="2446,-16 2446,-74.43 2739,-74.43 2739,-16 2446,-16"/>
</g>
<g id="clust5" class="cluster">
<title>cluster_4</title>
<polygon fill="lightgray" stroke="lightgray" points="1953,-16 1953,-74.43 2438,-74.43 2438,-16 1953,-16"/>
</g>
<g id="clust6" class="cluster">
<title>cluster_5</title>
<polygon fill="lightgray" stroke="lightgray" points="1731,-16 1731,-74.43 1945,-74.43 1945,-16 1731,-16"/>
</g>
<g id="clust7" class="cluster">
<title>cluster_6</title>
<polygon fill="lightgray" stroke="lightgray" points="914,-16 914,-74.43 1723,-74.43 1723,-16 914,-16"/>
</g>
<g id="clust8" class="cluster">
<title>cluster_7</title>
<polygon fill="lightgray" stroke="lightgray" points="613,-16 613,-74.43 906,-74.43 906,-16 613,-16"/>
</g>
<g id="clust9" class="cluster">
<title>cluster_8</title>
<polygon fill="lightgray" stroke="lightgray" points="317,-16 317,-74.43 605,-74.43 605,-16 317,-16"/>
</g>
<g id="clust10" class="cluster">
<title>cluster_9</title>
<polygon fill="lightgray" stroke="lightgray" points="16,-16 16,-74.43 309,-74.43 309,-16 16,-16"/>
</g>
<!-- ISC(1) -->
<g id="node1" class="node">
<title>ISC(1)</title>
<ellipse fill="springgreen" stroke="springgreen" cx="3110" cy="-45.21" rx="54.39" ry="21.43"/>
<text text-anchor="middle" x="3110" y="-40.21" font-family="Times-Roman" font-size="20.00">ISC(1)</text>
</g>
<!-- ISC(2) -->
<g id="node2" class="node">
<title>ISC(2)</title>
<ellipse fill="springgreen" stroke="springgreen" cx="2978" cy="-45.21" rx="54.39" ry="21.43"/>
<text text-anchor="middle" x="2978" y="-40.21" font-family="Times-Roman" font-size="20.00">ISC(2)</text>
</g>
<!-- ISC License(2) -->
<g id="node3" class="node">
<title>ISC License(2)</title>
<ellipse fill="white" stroke="white" cx="2830" cy="-45.21" rx="75.29" ry="18"/>
<text text-anchor="middle" x="2830" y="-41.51" font-family="Times-Roman" font-size="14.00">ISC License(2)</text>
</g>
<!-- ISC(3) -->
<g id="node4" class="node">
<title>ISC(3)</title>
<ellipse fill="springgreen" stroke="springgreen" cx="2677" cy="-45.21" rx="54.39" ry="21.43"/>
<text text-anchor="middle" x="2677" y="-40.21" font-family="Times-Roman" font-size="20.00">ISC(3)</text>
</g>
<!-- ISC License(3) -->
<g id="node5" class="node">
<title>ISC License(3)</title>
<ellipse fill="white" stroke="white" cx="2529" cy="-45.21" rx="75.29" ry="18"/>
<text text-anchor="middle" x="2529" y="-41.51" font-family="Times-Roman" font-size="14.00">ISC License(3)</text>
</g>
<!-- ISC(4) -->
<g id="node6" class="node">
<title>ISC(4)</title>
<ellipse fill="springgreen" stroke="springgreen" cx="2376" cy="-45.21" rx="54.39" ry="21.43"/>
<text text-anchor="middle" x="2376" y="-40.21" font-family="Times-Roman" font-size="20.00">ISC(4)</text>
</g>
<!-- ISC License(4) -->
<g id="node7" class="node">
<title>ISC License(4)</title>
<ellipse fill="white" stroke="white" cx="2228" cy="-45.21" rx="75.29" ry="18"/>
<text text-anchor="middle" x="2228" y="-41.51" font-family="Times-Roman" font-size="14.00">ISC License(4)</text>
</g>
<!-- scancode://isc(4) -->
<g id="node8" class="node">
<title>scancode://isc(4)</title>
<ellipse fill="white" stroke="white" cx="2048" cy="-45.21" rx="87.18" ry="18"/>
<text text-anchor="middle" x="2048" y="-41.51" font-family="Times-Roman" font-size="14.00">scancode://isc(4)</text>
</g>
<!-- ISC(5) -->
<g id="node9" class="node">
<title>ISC(5)</title>
<ellipse fill="springgreen" stroke="springgreen" cx="1883" cy="-45.21" rx="54.39" ry="21.43"/>
<text text-anchor="middle" x="1883" y="-40.21" font-family="Times-Roman" font-size="20.00">ISC(5)</text>
</g>
<!-- isc(5) -->
<g id="node10" class="node">
<title>isc(5)</title>
<ellipse fill="white" stroke="white" cx="1775" cy="-45.21" rx="36" ry="18"/>
<text text-anchor="middle" x="1775" y="-41.51" font-family="Times-Roman" font-size="14.00">isc(5)</text>
</g>
<!-- ISC(6) -->
<g id="node11" class="node">
<title>ISC(6)</title>
<ellipse fill="springgreen" stroke="springgreen" cx="1661" cy="-45.21" rx="54.39" ry="21.43"/>
<text text-anchor="middle" x="1661" y="-40.21" font-family="Times-Roman" font-size="20.00">ISC(6)</text>
</g>
<!-- ISC License (ISC)(6) -->
<g id="node12" class="node">
<title>ISC License (ISC)(6)</title>
<ellipse fill="white" stroke="white" cx="1488" cy="-45.21" rx="100.18" ry="18"/>
<text text-anchor="middle" x="1488" y="-41.51" font-family="Times-Roman" font-size="14.00">ISC License (ISC)(6)</text>
</g>
<!-- License :: OSI Approved :: ISC License (ISCL)(6) -->
<g id="node13" class="node">
<title>License :: OSI Approved :: ISC License (ISCL)(6)</title>
<ellipse fill="white" stroke="white" cx="1146" cy="-45.21" rx="224.46" ry="18"/>
<text text-anchor="middle" x="1146" y="-41.51" font-family="Times-Roman" font-size="14.00">License :: OSI Approved :: ISC License (ISCL)(6)</text>
</g>
<!-- ISC(7) -->
<g id="node14" class="node">
<title>ISC(7)</title>
<ellipse fill="springgreen" stroke="springgreen" cx="844" cy="-45.21" rx="54.39" ry="21.43"/>
<text text-anchor="middle" x="844" y="-40.21" font-family="Times-Roman" font-size="20.00">ISC(7)</text>
</g>
<!-- ISC License(7) -->
<g id="node15" class="node">
<title>ISC License(7)</title>
<ellipse fill="white" stroke="white" cx="696" cy="-45.21" rx="75.29" ry="18"/>
<text text-anchor="middle" x="696" y="-41.51" font-family="Times-Roman" font-size="14.00">ISC License(7)</text>
</g>
<!-- ISC(8) -->
<g id="node16" class="node">
<title>ISC(8)</title>
<ellipse fill="springgreen" stroke="springgreen" cx="543" cy="-45.21" rx="54.39" ry="21.43"/>
<text text-anchor="middle" x="543" y="-40.21" font-family="Times-Roman" font-size="20.00">ISC(8)</text>
</g>
<!-- ISC license(8) -->
<g id="node17" class="node">
<title>ISC license(8)</title>
<ellipse fill="white" stroke="white" cx="398" cy="-45.21" rx="72.59" ry="18"/>
<text text-anchor="middle" x="398" y="-41.51" font-family="Times-Roman" font-size="14.00">ISC license(8)</text>
</g>
<!-- ISC(9) -->
<g id="node18" class="node">
<title>ISC(9)</title>
<ellipse fill="springgreen" stroke="springgreen" cx="247" cy="-45.21" rx="54.39" ry="21.43"/>
<text text-anchor="middle" x="247" y="-40.21" font-family="Times-Roman" font-size="20.00">ISC(9)</text>
</g>
<!-- ISC License(9) -->
<g id="node19" class="node">
<title>ISC License(9)</title>
<ellipse fill="white" stroke="white" cx="99" cy="-45.21" rx="75.29" ry="18"/>
<text text-anchor="middle" x="99" y="-41.51" font-family="Times-Roman" font-size="14.00">ISC License(9)</text>
</g>
</g>
</svg>
