<?xml version="1.0" encoding="UTF-8" standalone="no"?>
<!DOCTYPE svg PUBLIC "-//W3C//DTD SVG 1.1//EN"
 "http://www.w3.org/Graphics/SVG/1.1/DTD/svg11.dtd">
<!-- Generated by graphviz version 2.43.0 (0)
 -->
<!-- Title: JasPer&#45;2.0 Pages: 1 -->
<svg width="1273pt" height="115pt"
 viewBox="0.00 0.00 1273.00 115.00" xmlns="http://www.w3.org/2000/svg" xmlns:xlink="http://www.w3.org/1999/xlink">
<g id="graph0" class="graph" transform="scale(1 1) rotate(0) translate(4 111)">
<title>JasPer&#45;2.0</title>
<polygon fill="white" stroke="transparent" points="-4,4 -4,-111 1269,-111 1269,4 -4,4"/>
<g id="clust1" class="cluster">
<title>cluster_0</title>
<polygon fill="none" stroke="black" points="8,-8 8,-99 1257,-99 1257,-8 8,-8"/>
</g>
<g id="clust2" class="cluster">
<title>cluster_1</title>
<polygon fill="lightgray" stroke="lightgray" points="1121,-16 1121,-91 1249,-91 1249,-16 1121,-16"/>
<text text-anchor="middle" x="1185" y="-75.8" font-family="Times-Roman" font-size="14.00">prev</text>
</g>
<g id="clust3" class="cluster">
<title>cluster_2</title>
<polygon fill="lightgray" stroke="lightgray" points="817,-16 817,-68 1113,-68 1113,-16 817,-16"/>
</g>
<g id="clust4" class="cluster">
<title>cluster_3</title>
<polygon fill="lightgray" stroke="lightgray" points="513,-16 513,-68 809,-68 809,-16 513,-16"/>
</g>
<g id="clust5" class="cluster">
<title>cluster_4</title>
<polygon fill="lightgray" stroke="lightgray" points="16,-16 16,-68 505,-68 505,-16 16,-16"/>
</g>
<!-- JasPer&#45;2.0(1) -->
<g id="node1" class="node">
<title>JasPer&#45;2.0(1)</title>
<ellipse fill="springgreen" stroke="springgreen" cx="1185" cy="-42" rx="55.79" ry="18"/>
<text text-anchor="middle" x="1185" y="-38.3" font-family="Times-Roman" font-size="14.00">JasPer&#45;2.0</text>
</g>
<!-- JasPer License(2) -->
<g id="node2" class="node">
<title>JasPer License(2)</title>
<ellipse fill="white" stroke="white" cx="1030" cy="-42" rx="75.29" ry="18"/>
<text text-anchor="middle" x="1030" y="-38.3" font-family="Times-Roman" font-size="14.00">JasPer License</text>
</g>
<!-- JasPer&#45;2.0(2) -->
<g id="node3" class="node">
<title>JasPer&#45;2.0(2)</title>
<ellipse fill="springgreen" stroke="springgreen" cx="881" cy="-42" rx="55.79" ry="18"/>
<text text-anchor="middle" x="881" y="-38.3" font-family="Times-Roman" font-size="14.00">JasPer&#45;2.0</text>
</g>
<!-- JasPer License(3) -->
<g id="node4" class="node">
<title>JasPer License(3)</title>
<ellipse fill="white" stroke="white" cx="726" cy="-42" rx="75.29" ry="18"/>
<text text-anchor="middle" x="726" y="-38.3" font-family="Times-Roman" font-size="14.00">JasPer License</text>
</g>
<!-- JasPer&#45;2.0(3) -->
<g id="node5" class="node">
<title>JasPer&#45;2.0(3)</title>
<ellipse fill="springgreen" stroke="springgreen" cx="577" cy="-42" rx="55.79" ry="18"/>
<text text-anchor="middle" x="577" y="-38.3" font-family="Times-Roman" font-size="14.00">JasPer&#45;2.0</text>
</g>
<!-- JasPer 2.0(4) -->
<g id="node6" class="node">
<title>JasPer 2.0(4)</title>
<ellipse fill="white" stroke="white" cx="441" cy="-42" rx="55.79" ry="18"/>
<text text-anchor="middle" x="441" y="-38.3" font-family="Times-Roman" font-size="14.00">JasPer 2.0</text>
</g>
<!-- JasPer&#45;2.0(4) -->
<g id="node7" class="node">
<title>JasPer&#45;2.0(4)</title>
<ellipse fill="springgreen" stroke="springgreen" cx="311" cy="-42" rx="55.79" ry="18"/>
<text text-anchor="middle" x="311" y="-38.3" font-family="Times-Roman" font-size="14.00">JasPer&#45;2.0</text>
</g>
<!-- scancode://jasper&#45;2.0(4) -->
<g id="node8" class="node">
<title>scancode://jasper&#45;2.0(4)</title>
<ellipse fill="white" stroke="white" cx="131" cy="-42" rx="106.68" ry="18"/>
<text text-anchor="middle" x="131" y="-38.3" font-family="Times-Roman" font-size="14.00">scancode://jasper&#45;2.0</text>
</g>
</g>
</svg>
