<?xml version="1.0" encoding="UTF-8" standalone="no"?>
<!DOCTYPE svg PUBLIC "-//W3C//DTD SVG 1.1//EN"
 "http://www.w3.org/Graphics/SVG/1.1/DTD/svg11.dtd">
<!-- Generated by graphviz version 2.43.0 (0)
 -->
<!-- Title: JSON Pages: 1 -->
<svg width="804pt" height="92pt"
 viewBox="0.00 0.00 804.00 92.00" xmlns="http://www.w3.org/2000/svg" xmlns:xlink="http://www.w3.org/1999/xlink">
<g id="graph0" class="graph" transform="scale(1 1) rotate(0) translate(4 88)">
<title>JSON</title>
<polygon fill="white" stroke="transparent" points="-4,4 -4,-88 800,-88 800,4 -4,4"/>
<g id="clust1" class="cluster">
<title>cluster_0</title>
<polygon fill="none" stroke="black" points="8,-8 8,-76 788,-76 788,-8 8,-8"/>
</g>
<g id="clust2" class="cluster">
<title>cluster_1</title>
<polygon fill="lightgray" stroke="lightgray" points="696,-16 696,-68 780,-68 780,-16 696,-16"/>
</g>
<g id="clust3" class="cluster">
<title>cluster_2</title>
<polygon fill="lightgray" stroke="lightgray" points="446,-16 446,-68 688,-68 688,-16 446,-16"/>
</g>
<g id="clust4" class="cluster">
<title>cluster_3</title>
<polygon fill="lightgray" stroke="lightgray" points="16,-16 16,-68 438,-68 438,-16 16,-16"/>
</g>
<!-- JSON(1) -->
<g id="node1" class="node">
<title>JSON(1)</title>
<ellipse fill="springgreen" stroke="springgreen" cx="738" cy="-42" rx="33.6" ry="18"/>
<text text-anchor="middle" x="738" y="-38.3" font-family="Times-Roman" font-size="14.00">JSON</text>
</g>
<!-- JSON(2) -->
<g id="node2" class="node">
<title>JSON(2)</title>
<ellipse fill="springgreen" stroke="springgreen" cx="646" cy="-42" rx="33.6" ry="18"/>
<text text-anchor="middle" x="646" y="-38.3" font-family="Times-Roman" font-size="14.00">JSON</text>
</g>
<!-- JSON License(2) -->
<g id="node3" class="node">
<title>JSON License(2)</title>
<ellipse fill="white" stroke="white" cx="524" cy="-42" rx="70.39" ry="18"/>
<text text-anchor="middle" x="524" y="-38.3" font-family="Times-Roman" font-size="14.00">JSON License</text>
</g>
<!-- JSON(3) -->
<g id="node4" class="node">
<title>JSON(3)</title>
<ellipse fill="springgreen" stroke="springgreen" cx="396" cy="-42" rx="33.6" ry="18"/>
<text text-anchor="middle" x="396" y="-38.3" font-family="Times-Roman" font-size="14.00">JSON</text>
</g>
<!-- JSON License(3) -->
<g id="node5" class="node">
<title>JSON License(3)</title>
<ellipse fill="white" stroke="white" cx="274" cy="-42" rx="70.39" ry="18"/>
<text text-anchor="middle" x="274" y="-38.3" font-family="Times-Roman" font-size="14.00">JSON License</text>
</g>
<!-- scancode://json(3) -->
<g id="node6" class="node">
<title>scancode://json(3)</title>
<ellipse fill="white" stroke="white" cx="105" cy="-42" rx="80.69" ry="18"/>
<text text-anchor="middle" x="105" y="-38.3" font-family="Times-Roman" font-size="14.00">scancode://json</text>
</g>
</g>
</svg>
