<?xml version="1.0" encoding="UTF-8" standalone="no"?>
<!DOCTYPE svg PUBLIC "-//W3C//DTD SVG 1.1//EN"
 "http://www.w3.org/Graphics/SVG/1.1/DTD/svg11.dtd">
<!-- Generated by graphviz version 2.43.0 (0)
 -->
<!-- Title: Latex2e Pages: 1 -->
<svg width="246pt" height="488pt"
 viewBox="0.00 0.00 245.78 488.00" xmlns="http://www.w3.org/2000/svg" xmlns:xlink="http://www.w3.org/1999/xlink">
<g id="graph0" class="graph" transform="scale(1 1) rotate(0) translate(4 484)">
<title>Latex2e</title>
<polygon fill="white" stroke="transparent" points="-4,4 -4,-484 241.78,-484 241.78,4 -4,4"/>
<g id="clust1" class="cluster">
<title>cluster_0</title>
<polygon fill="none" stroke="black" points="8,-8 8,-472 229.78,-472 229.78,-8 8,-8"/>
</g>
<g id="clust2" class="cluster">
<title>cluster_1</title>
<polygon fill="lightgray" stroke="lightgray" points="64.75,-412 64.75,-464 173.04,-464 173.04,-412 64.75,-412"/>
</g>
<g id="clust3" class="cluster">
<title>cluster_2</title>
<polygon fill="lightgray" stroke="lightgray" points="27.7,-298 27.7,-404 210.08,-404 210.08,-298 27.7,-298"/>
</g>
<g id="clust4" class="cluster">
<title>cluster_3</title>
<polygon fill="lightgray" stroke="lightgray" points="16,-130 16,-290 221.78,-290 221.78,-130 16,-130"/>
</g>
<g id="clust5" class="cluster">
<title>cluster_4</title>
<polygon fill="lightgray" stroke="lightgray" points="27.7,-16 27.7,-122 210.08,-122 210.08,-16 27.7,-16"/>
</g>
<!-- Latex2e(1) -->
<g id="node1" class="node">
<title>Latex2e(1)</title>
<ellipse fill="springgreen" stroke="springgreen" cx="118.89" cy="-438" rx="46.29" ry="18"/>
<text text-anchor="middle" x="118.89" y="-434.3" font-family="Times-Roman" font-size="14.00">Latex2e</text>
</g>
<!-- Latex2e(2) -->
<g id="node2" class="node">
<title>Latex2e(2)</title>
<ellipse fill="springgreen" stroke="springgreen" cx="118.89" cy="-378" rx="46.29" ry="18"/>
<text text-anchor="middle" x="118.89" y="-374.3" font-family="Times-Roman" font-size="14.00">Latex2e</text>
</g>
<!-- Latex2e License(2) -->
<g id="node3" class="node">
<title>Latex2e License(2)</title>
<ellipse fill="white" stroke="white" cx="118.89" cy="-324" rx="83.39" ry="18"/>
<text text-anchor="middle" x="118.89" y="-320.3" font-family="Times-Roman" font-size="14.00">Latex2e License</text>
</g>
<!-- Latex2e(3) -->
<g id="node4" class="node">
<title>Latex2e(3)</title>
<ellipse fill="springgreen" stroke="springgreen" cx="118.89" cy="-264" rx="46.29" ry="18"/>
<text text-anchor="middle" x="118.89" y="-260.3" font-family="Times-Roman" font-size="14.00">Latex2e</text>
</g>
<!-- Latex2e License(3) -->
<g id="node5" class="node">
<title>Latex2e License(3)</title>
<ellipse fill="white" stroke="white" cx="118.89" cy="-210" rx="83.39" ry="18"/>
<text text-anchor="middle" x="118.89" y="-206.3" font-family="Times-Roman" font-size="14.00">Latex2e License</text>
</g>
<!-- scancode://latex2e(3) -->
<g id="node6" class="node">
<title>scancode://latex2e(3)</title>
<ellipse fill="white" stroke="white" cx="118.89" cy="-156" rx="94.78" ry="18"/>
<text text-anchor="middle" x="118.89" y="-152.3" font-family="Times-Roman" font-size="14.00">scancode://latex2e</text>
</g>
<!-- Latex2e(4) -->
<g id="node7" class="node">
<title>Latex2e(4)</title>
<ellipse fill="springgreen" stroke="springgreen" cx="118.89" cy="-96" rx="46.29" ry="18"/>
<text text-anchor="middle" x="118.89" y="-92.3" font-family="Times-Roman" font-size="14.00">Latex2e</text>
</g>
<!-- Latex2e License(4) -->
<g id="node8" class="node">
<title>Latex2e License(4)</title>
<ellipse fill="white" stroke="white" cx="118.89" cy="-42" rx="83.39" ry="18"/>
<text text-anchor="middle" x="118.89" y="-38.3" font-family="Times-Roman" font-size="14.00">Latex2e License</text>
</g>
</g>
</svg>
