<?xml version="1.0" encoding="UTF-8" standalone="no"?>
<!DOCTYPE svg PUBLIC "-//W3C//DTD SVG 1.1//EN"
 "http://www.w3.org/Graphics/SVG/1.1/DTD/svg11.dtd">
<!-- Generated by graphviz version 2.43.0 (0)
 -->
<!-- Title: LGPL&#45;2.1&#45;only Pages: 1 -->
<svg width="8450pt" height="130pt"
 viewBox="0.00 0.00 8450.00 130.43" xmlns="http://www.w3.org/2000/svg" xmlns:xlink="http://www.w3.org/1999/xlink">
<g id="graph0" class="graph" transform="scale(1 1) rotate(0) translate(4 126.43)">
<title>LGPL&#45;2.1&#45;only</title>
<polygon fill="white" stroke="transparent" points="-4,4 -4,-126.43 8446,-126.43 8446,4 -4,4"/>
<g id="clust1" class="cluster">
<title>cluster_0</title>
<polygon fill="none" stroke="black" points="8,-8 8,-114.43 8434,-114.43 8434,-8 8,-8"/>
</g>
<g id="clust2" class="cluster">
<title>cluster_1</title>
<polygon fill="none" stroke="black" points="2655,-16 2655,-106.43 8426,-106.43 8426,-16 2655,-16"/>
</g>
<g id="clust3" class="cluster">
<title>cluster_2</title>
<polygon fill="none" stroke="black" points="5287,-24 5287,-98.43 8418,-98.43 8418,-24 5287,-24"/>
</g>
<g id="clust4" class="cluster">
<title>cluster_3</title>
<polygon fill="lightgray" stroke="lightgray" points="8136,-32 8136,-90.43 8410,-90.43 8410,-32 8136,-32"/>
</g>
<g id="clust5" class="cluster">
<title>cluster_4</title>
<polygon fill="lightgray" stroke="lightgray" points="7385,-32 7385,-90.43 8128,-90.43 8128,-32 7385,-32"/>
</g>
<g id="clust6" class="cluster">
<title>cluster_5</title>
<polygon fill="lightgray" stroke="lightgray" points="6723,-32 6723,-90.43 7377,-90.43 7377,-32 6723,-32"/>
</g>
<g id="clust7" class="cluster">
<title>cluster_6</title>
<polygon fill="lightgray" stroke="lightgray" points="6027,-32 6027,-90.43 6715,-90.43 6715,-32 6027,-32"/>
</g>
<g id="clust8" class="cluster">
<title>cluster_7</title>
<polygon fill="lightgray" stroke="lightgray" points="5295,-32 5295,-90.43 6019,-90.43 6019,-32 5295,-32"/>
</g>
<g id="clust9" class="cluster">
<title>cluster_8</title>
<polygon fill="lightgray" stroke="lightgray" points="4805,-35.21 4805,-87.21 5279,-87.21 5279,-35.21 4805,-35.21"/>
</g>
<g id="clust10" class="cluster">
<title>cluster_9</title>
<polygon fill="lightgray" stroke="lightgray" points="3429,-35.21 3429,-87.21 4797,-87.21 4797,-35.21 3429,-35.21"/>
</g>
<g id="clust11" class="cluster">
<title>cluster_10</title>
<polygon fill="lightgray" stroke="lightgray" points="2663,-32 2663,-90.43 3421,-90.43 3421,-32 2663,-32"/>
</g>
<g id="clust12" class="cluster">
<title>cluster_11</title>
<polygon fill="lightgray" stroke="lightgray" points="1807,-32 1807,-90.43 2647,-90.43 2647,-32 1807,-32"/>
</g>
<g id="clust13" class="cluster">
<title>cluster_12</title>
<polygon fill="lightgray" stroke="lightgray" points="945,-32 945,-90.43 1799,-90.43 1799,-32 945,-32"/>
</g>
<g id="clust14" class="cluster">
<title>cluster_13</title>
<polygon fill="lightgray" stroke="lightgray" points="16,-32 16,-90.43 937,-90.43 937,-32 16,-32"/>
</g>
<!-- LGPL&#45;2.1&#45;only(3) -->
<g id="node1" class="node">
<title>LGPL&#45;2.1&#45;only(3)</title>
<ellipse fill="springgreen" stroke="springgreen" cx="8273" cy="-61.21" rx="128.89" ry="21.43"/>
<text text-anchor="middle" x="8273" y="-56.21" font-family="Times-Roman" font-size="20.00">LGPL&#45;2.1&#45;only(3)</text>
</g>
<!-- GNU Lesser General Public License v2.1 only(4) -->
<g id="node2" class="node">
<title>GNU Lesser General Public License v2.1 only(4)</title>
<ellipse fill="white" stroke="white" cx="7894" cy="-61.21" rx="225.56" ry="18"/>
<text text-anchor="middle" x="7894" y="-57.51" font-family="Times-Roman" font-size="14.00">GNU Lesser General Public License v2.1 only(4)</text>
</g>
<!-- LGPL&#45;2.1&#45;only(4) -->
<g id="node3" class="node">
<title>LGPL&#45;2.1&#45;only(4)</title>
<ellipse fill="springgreen" stroke="springgreen" cx="7522" cy="-61.21" rx="128.89" ry="21.43"/>
<text text-anchor="middle" x="7522" y="-56.21" font-family="Times-Roman" font-size="20.00">LGPL&#45;2.1&#45;only(4)</text>
</g>
<!-- LGPL 2.1(5) -->
<g id="node4" class="node">
<title>LGPL 2.1(5)</title>
<ellipse fill="white" stroke="white" cx="7306" cy="-61.21" rx="63.09" ry="18"/>
<text text-anchor="middle" x="7306" y="-57.51" font-family="Times-Roman" font-size="14.00">LGPL 2.1(5)</text>
</g>
<!-- LGPL&#45;2.1&#45;only(5) -->
<g id="node5" class="node">
<title>LGPL&#45;2.1&#45;only(5)</title>
<ellipse fill="springgreen" stroke="springgreen" cx="7096" cy="-61.21" rx="128.89" ry="21.43"/>
<text text-anchor="middle" x="7096" y="-56.21" font-family="Times-Roman" font-size="20.00">LGPL&#45;2.1&#45;only(5)</text>
</g>
<!-- scancode://lgpl&#45;2.1(5) -->
<g id="node6" class="node">
<title>scancode://lgpl&#45;2.1(5)</title>
<ellipse fill="white" stroke="white" cx="6840" cy="-61.21" rx="109.38" ry="18"/>
<text text-anchor="middle" x="6840" y="-57.51" font-family="Times-Roman" font-size="14.00">scancode://lgpl&#45;2.1(5)</text>
</g>
<!-- GNU Lesser General Public License 2.1(6) -->
<g id="node7" class="node">
<title>GNU Lesser General Public License 2.1(6)</title>
<ellipse fill="white" stroke="white" cx="6509" cy="-61.21" rx="198.47" ry="18"/>
<text text-anchor="middle" x="6509" y="-57.51" font-family="Times-Roman" font-size="14.00">GNU Lesser General Public License 2.1(6)</text>
</g>
<!-- LGPL&#45;2.1&#45;only(6) -->
<g id="node8" class="node">
<title>LGPL&#45;2.1&#45;only(6)</title>
<ellipse fill="springgreen" stroke="springgreen" cx="6164" cy="-61.21" rx="128.89" ry="21.43"/>
<text text-anchor="middle" x="6164" y="-56.21" font-family="Times-Roman" font-size="20.00">LGPL&#45;2.1&#45;only(6)</text>
</g>
<!-- LGPL (v2.1)(7) -->
<g id="node9" class="node">
<title>LGPL (v2.1)(7)</title>
<ellipse fill="white" stroke="white" cx="5936" cy="-61.21" rx="75.29" ry="18"/>
<text text-anchor="middle" x="5936" y="-57.51" font-family="Times-Roman" font-size="14.00">LGPL (v2.1)(7)</text>
</g>
<!-- LGPL&#45;2.1(7) -->
<g id="node10" class="node">
<title>LGPL&#45;2.1(7)</title>
<ellipse fill="white" stroke="white" cx="5779" cy="-61.21" rx="63.89" ry="18"/>
<text text-anchor="middle" x="5779" y="-57.51" font-family="Times-Roman" font-size="14.00">LGPL&#45;2.1(7)</text>
</g>
<!-- LGPL&#45;2.1&#45;only(7) -->
<g id="node11" class="node">
<title>LGPL&#45;2.1&#45;only(7)</title>
<ellipse fill="springgreen" stroke="springgreen" cx="5569" cy="-61.21" rx="128.89" ry="21.43"/>
<text text-anchor="middle" x="5569" y="-56.21" font-family="Times-Roman" font-size="20.00">LGPL&#45;2.1&#45;only(7)</text>
</g>
<!-- LGPL2.1(7) -->
<g id="node12" class="node">
<title>LGPL2.1(7)</title>
<ellipse fill="white" stroke="white" cx="5363" cy="-61.21" rx="59.59" ry="18"/>
<text text-anchor="middle" x="5363" y="-57.51" font-family="Times-Roman" font-size="14.00">LGPL2.1(7)</text>
</g>
<!-- GNU LGPLv2.1(8) -->
<g id="node13" class="node">
<title>GNU LGPLv2.1(8)</title>
<ellipse fill="white" stroke="white" cx="5182" cy="-61.21" rx="89.08" ry="18"/>
<text text-anchor="middle" x="5182" y="-57.51" font-family="Times-Roman" font-size="14.00">GNU LGPLv2.1(8)</text>
</g>
<!-- LGPL&#45;2.1(8) -->
<g id="node14" class="node">
<title>LGPL&#45;2.1(8)</title>
<ellipse fill="white" stroke="white" cx="5011" cy="-61.21" rx="63.89" ry="18"/>
<text text-anchor="middle" x="5011" y="-57.51" font-family="Times-Roman" font-size="14.00">LGPL&#45;2.1(8)</text>
</g>
<!-- lgpl&#45;2.1(8) -->
<g id="node15" class="node">
<title>lgpl&#45;2.1(8)</title>
<ellipse fill="white" stroke="white" cx="4871" cy="-61.21" rx="57.69" ry="18"/>
<text text-anchor="middle" x="4871" y="-57.51" font-family="Times-Roman" font-size="14.00">lgpl&#45;2.1(8)</text>
</g>
<!-- GNU Lesser General Public License, Version 2.1(9) -->
<g id="node16" class="node">
<title>GNU Lesser General Public License, Version 2.1(9)</title>
<ellipse fill="white" stroke="white" cx="4552" cy="-61.21" rx="237.46" ry="18"/>
<text text-anchor="middle" x="4552" y="-57.51" font-family="Times-Roman" font-size="14.00">GNU Lesser General Public License, Version 2.1(9)</text>
</g>
<!-- LGPL&#45;2.1(9) -->
<g id="node17" class="node">
<title>LGPL&#45;2.1(9)</title>
<ellipse fill="white" stroke="white" cx="4233" cy="-61.21" rx="63.89" ry="18"/>
<text text-anchor="middle" x="4233" y="-57.51" font-family="Times-Roman" font-size="14.00">LGPL&#45;2.1(9)</text>
</g>
<!-- License :: OSI Approved :: GNU Lesser General Public License v2 (LGPLv2)(9) -->
<g id="node18" class="node">
<title>License :: OSI Approved :: GNU Lesser General Public License v2 (LGPLv2)(9)</title>
<ellipse fill="white" stroke="white" cx="3794" cy="-61.21" rx="356.64" ry="18"/>
<text text-anchor="middle" x="3794" y="-57.51" font-family="Times-Roman" font-size="14.00">License :: OSI Approved :: GNU Lesser General Public License v2 (LGPLv2)(9)</text>
</g>
<!-- GNU Lesser General Public License 2.1(10) -->
<g id="node19" class="node">
<title>GNU Lesser General Public License 2.1(10)</title>
<ellipse fill="white" stroke="white" cx="3209" cy="-61.21" rx="204.16" ry="18"/>
<text text-anchor="middle" x="3209" y="-57.51" font-family="Times-Roman" font-size="14.00">GNU Lesser General Public License 2.1(10)</text>
</g>
<!-- LGPL&#45;2.1&#45;or&#45;later(10) -->
<g id="node20" class="node">
<title>LGPL&#45;2.1&#45;or&#45;later(10)</title>
<ellipse fill="orange" stroke="orange" cx="2829" cy="-61.21" rx="158.28" ry="21.43"/>
<text text-anchor="middle" x="2829" y="-56.21" font-family="Times-Roman" font-size="20.00">LGPL&#45;2.1&#45;or&#45;later(10)</text>
</g>
<!-- GNU Lesser General Public License v2.1 or later(11) -->
<g id="node21" class="node">
<title>GNU Lesser General Public License v2.1 or later(11)</title>
<ellipse fill="white" stroke="white" cx="2394" cy="-61.21" rx="245.06" ry="18"/>
<text text-anchor="middle" x="2394" y="-57.51" font-family="Times-Roman" font-size="14.00">GNU Lesser General Public License v2.1 or later(11)</text>
</g>
<!-- LGPL&#45;2.1&#45;or&#45;later(11) -->
<g id="node22" class="node">
<title>LGPL&#45;2.1&#45;or&#45;later(11)</title>
<ellipse fill="orange" stroke="orange" cx="1973" cy="-61.21" rx="158.28" ry="21.43"/>
<text text-anchor="middle" x="1973" y="-56.21" font-family="Times-Roman" font-size="20.00">LGPL&#45;2.1&#45;or&#45;later(11)</text>
</g>
<!-- LGPL 2.1 or later(12) -->
<g id="node23" class="node">
<title>LGPL 2.1 or later(12)</title>
<ellipse fill="white" stroke="white" cx="1686" cy="-61.21" rx="104.78" ry="18"/>
<text text-anchor="middle" x="1686" y="-57.51" font-family="Times-Roman" font-size="14.00">LGPL 2.1 or later(12)</text>
</g>
<!-- LGPL&#45;2.1&#45;or&#45;later(12) -->
<g id="node24" class="node">
<title>LGPL&#45;2.1&#45;or&#45;later(12)</title>
<ellipse fill="orange" stroke="orange" cx="1405" cy="-61.21" rx="158.28" ry="21.43"/>
<text text-anchor="middle" x="1405" y="-56.21" font-family="Times-Roman" font-size="20.00">LGPL&#45;2.1&#45;or&#45;later(12)</text>
</g>
<!-- scancode://lgpl&#45;2.1&#45;plus(12) -->
<g id="node25" class="node">
<title>scancode://lgpl&#45;2.1&#45;plus(12)</title>
<ellipse fill="white" stroke="white" cx="1091" cy="-61.21" rx="137.58" ry="18"/>
<text text-anchor="middle" x="1091" y="-57.51" font-family="Times-Roman" font-size="14.00">scancode://lgpl&#45;2.1&#45;plus(12)</text>
</g>
<!-- LGPL (v2.1 or later)(13) -->
<g id="node26" class="node">
<title>LGPL (v2.1 or later)(13)</title>
<ellipse fill="white" stroke="white" cx="813" cy="-61.21" rx="116.18" ry="18"/>
<text text-anchor="middle" x="813" y="-57.51" font-family="Times-Roman" font-size="14.00">LGPL (v2.1 or later)(13)</text>
</g>
<!-- LGPL&#45;2.1+(13) -->
<g id="node27" class="node">
<title>LGPL&#45;2.1+(13)</title>
<ellipse fill="white" stroke="white" cx="601" cy="-61.21" rx="77.19" ry="18"/>
<text text-anchor="middle" x="601" y="-57.51" font-family="Times-Roman" font-size="14.00">LGPL&#45;2.1+(13)</text>
</g>
<!-- LGPL&#45;2.1&#45;or&#45;later(13) -->
<g id="node28" class="node">
<title>LGPL&#45;2.1&#45;or&#45;later(13)</title>
<ellipse fill="orange" stroke="orange" cx="347" cy="-61.21" rx="158.28" ry="21.43"/>
<text text-anchor="middle" x="347" y="-56.21" font-family="Times-Roman" font-size="20.00">LGPL&#45;2.1&#45;or&#45;later(13)</text>
</g>
<!-- LGPL2.1+(13) -->
<g id="node29" class="node">
<title>LGPL2.1+(13)</title>
<ellipse fill="white" stroke="white" cx="97" cy="-61.21" rx="73.39" ry="18"/>
<text text-anchor="middle" x="97" y="-57.51" font-family="Times-Roman" font-size="14.00">LGPL2.1+(13)</text>
</g>
</g>
</svg>
