<?xml version="1.0" encoding="UTF-8" standalone="no"?>
<!DOCTYPE svg PUBLIC "-//W3C//DTD SVG 1.1//EN"
 "http://www.w3.org/Graphics/SVG/1.1/DTD/svg11.dtd">
<!-- Generated by graphviz version 2.43.0 (0)
 -->
<!-- Title: LGPL&#45;3.0&#45;or&#45;later Pages: 1 -->
<svg width="804pt" height="2546pt"
 viewBox="0.00 0.00 803.84 2546.00" xmlns="http://www.w3.org/2000/svg" xmlns:xlink="http://www.w3.org/1999/xlink">
<g id="graph0" class="graph" transform="scale(1 1) rotate(0) translate(4 2542)">
<title>LGPL&#45;3.0&#45;or&#45;later</title>
<polygon fill="white" stroke="transparent" points="-4,4 -4,-2542 799.84,-2542 799.84,4 -4,4"/>
<g id="clust1" class="cluster">
<title>cluster_0</title>
<polygon fill="none" stroke="black" points="8,-8 8,-2530 787.84,-2530 787.84,-8 8,-8"/>
</g>
<g id="clust2" class="cluster">
<title>cluster_1</title>
<polygon fill="none" stroke="black" points="16,-130 16,-2522 779.84,-2522 779.84,-130 16,-130"/>
</g>
<g id="clust3" class="cluster">
<title>cluster_2</title>
<polygon fill="none" stroke="black" points="147.74,-924 147.74,-2514 648.1,-2514 648.1,-924 147.74,-924"/>
</g>
<g id="clust4" class="cluster">
<title>cluster_3</title>
<polygon fill="none" stroke="black" points="155.74,-1544 155.74,-2506 640.1,-2506 640.1,-1544 155.74,-1544"/>
</g>
<g id="clust5" class="cluster">
<title>cluster_4</title>
<polygon fill="lightgray" stroke="lightgray" points="303.48,-2446 303.48,-2498 492.36,-2498 492.36,-2446 303.48,-2446"/>
</g>
<g id="clust6" class="cluster">
<title>cluster_5</title>
<polygon fill="lightgray" stroke="lightgray" points="300.88,-2062 300.88,-2438 494.96,-2438 494.96,-2062 300.88,-2062"/>
</g>
<g id="clust7" class="cluster">
<title>cluster_6</title>
<polygon fill="lightgray" stroke="lightgray" points="163.74,-1948 163.74,-2054 632.1,-2054 632.1,-1948 163.74,-1948"/>
</g>
<g id="clust8" class="cluster">
<title>cluster_7</title>
<polygon fill="lightgray" stroke="lightgray" points="163.74,-1834 163.74,-1940 632.1,-1940 632.1,-1834 163.74,-1834"/>
</g>
<g id="clust9" class="cluster">
<title>cluster_8</title>
<polygon fill="lightgray" stroke="lightgray" points="270.98,-1666 270.98,-1826 524.86,-1826 524.86,-1666 270.98,-1666"/>
</g>
<g id="clust10" class="cluster">
<title>cluster_9</title>
<polygon fill="lightgray" stroke="lightgray" points="204.68,-1552 204.68,-1658 591.15,-1658 591.15,-1552 204.68,-1552"/>
</g>
<g id="clust11" class="cluster">
<title>cluster_10</title>
<polygon fill="lightgray" stroke="lightgray" points="316.47,-1160 316.47,-1536 479.36,-1536 479.36,-1160 316.47,-1160"/>
</g>
<g id="clust12" class="cluster">
<title>cluster_11</title>
<polygon fill="lightgray" stroke="lightgray" points="163.74,-1046 163.74,-1152 632.1,-1152 632.1,-1046 163.74,-1046"/>
</g>
<g id="clust13" class="cluster">
<title>cluster_12</title>
<polygon fill="lightgray" stroke="lightgray" points="204.68,-932 204.68,-1038 591.15,-1038 591.15,-932 204.68,-932"/>
</g>
<g id="clust14" class="cluster">
<title>cluster_13</title>
<polygon fill="lightgray" stroke="lightgray" points="177.39,-810 177.39,-916 618.45,-916 618.45,-810 177.39,-810"/>
</g>
<g id="clust15" class="cluster">
<title>cluster_14</title>
<polygon fill="lightgray" stroke="lightgray" points="177.39,-696 177.39,-802 618.45,-802 618.45,-696 177.39,-696"/>
</g>
<g id="clust16" class="cluster">
<title>cluster_15</title>
<polygon fill="lightgray" stroke="lightgray" points="293.08,-528 293.08,-688 502.76,-688 502.76,-528 293.08,-528"/>
</g>
<g id="clust17" class="cluster">
<title>cluster_16</title>
<polygon fill="lightgray" stroke="lightgray" points="322.32,-360 322.32,-520 473.51,-520 473.51,-360 322.32,-360"/>
</g>
<g id="clust18" class="cluster">
<title>cluster_17</title>
<polygon fill="lightgray" stroke="lightgray" points="24,-138 24,-352 771.84,-352 771.84,-138 24,-138"/>
</g>
<g id="clust19" class="cluster">
<title>cluster_18</title>
<polygon fill="lightgray" stroke="lightgray" points="177.39,-16 177.39,-122 618.45,-122 618.45,-16 177.39,-16"/>
</g>
<!-- LGPL&#45;3.0&#45;or&#45;later(4) -->
<g id="node1" class="node">
<title>LGPL&#45;3.0&#45;or&#45;later(4)</title>
<ellipse fill="springgreen" stroke="springgreen" cx="397.92" cy="-2472" rx="86.38" ry="18"/>
<text text-anchor="middle" x="397.92" y="-2468.3" font-family="Times-Roman" font-size="14.00">LGPL&#45;3.0&#45;or&#45;later</text>
</g>
<!-- LGPL (v3 or later)(5) -->
<g id="node2" class="node">
<title>LGPL (v3 or later)(5)</title>
<ellipse fill="white" stroke="white" cx="397.92" cy="-2412" rx="89.08" ry="18"/>
<text text-anchor="middle" x="397.92" y="-2408.3" font-family="Times-Roman" font-size="14.00">LGPL (v3 or later)</text>
</g>
<!-- LGPL (v3.0)(5) -->
<g id="node3" class="node">
<title>LGPL (v3.0)(5)</title>
<ellipse fill="white" stroke="white" cx="397.92" cy="-2358" rx="62.29" ry="18"/>
<text text-anchor="middle" x="397.92" y="-2354.3" font-family="Times-Roman" font-size="14.00">LGPL (v3.0)</text>
</g>
<!-- LGPL&#45;3+(5) -->
<g id="node4" class="node">
<title>LGPL&#45;3+(5)</title>
<ellipse fill="white" stroke="white" cx="397.92" cy="-2304" rx="50.09" ry="18"/>
<text text-anchor="middle" x="397.92" y="-2300.3" font-family="Times-Roman" font-size="14.00">LGPL&#45;3+</text>
</g>
<!-- LGPL&#45;3.0+(5) -->
<g id="node5" class="node">
<title>LGPL&#45;3.0+(5)</title>
<ellipse fill="white" stroke="white" cx="397.92" cy="-2250" rx="58.49" ry="18"/>
<text text-anchor="middle" x="397.92" y="-2246.3" font-family="Times-Roman" font-size="14.00">LGPL&#45;3.0+</text>
</g>
<!-- LGPL&#45;3.0&#45;or&#45;later(5) -->
<g id="node6" class="node">
<title>LGPL&#45;3.0&#45;or&#45;later(5)</title>
<ellipse fill="springgreen" stroke="springgreen" cx="397.92" cy="-2196" rx="86.38" ry="18"/>
<text text-anchor="middle" x="397.92" y="-2192.3" font-family="Times-Roman" font-size="14.00">LGPL&#45;3.0&#45;or&#45;later</text>
</g>
<!-- LGPL3(5) -->
<g id="node7" class="node">
<title>LGPL3(5)</title>
<ellipse fill="white" stroke="white" cx="397.92" cy="-2142" rx="38.19" ry="18"/>
<text text-anchor="middle" x="397.92" y="-2138.3" font-family="Times-Roman" font-size="14.00">LGPL3</text>
</g>
<!-- LGPL3.0+(5) -->
<g id="node8" class="node">
<title>LGPL3.0+(5)</title>
<ellipse fill="white" stroke="white" cx="397.92" cy="-2088" rx="55.49" ry="18"/>
<text text-anchor="middle" x="397.92" y="-2084.3" font-family="Times-Roman" font-size="14.00">LGPL3.0+</text>
</g>
<!-- GNU Lesser General Public License v3.0 or later(6) -->
<g id="node9" class="node">
<title>GNU Lesser General Public License v3.0 or later(6)</title>
<ellipse fill="white" stroke="white" cx="397.92" cy="-2028" rx="226.36" ry="18"/>
<text text-anchor="middle" x="397.92" y="-2024.3" font-family="Times-Roman" font-size="14.00">GNU Lesser General Public License v3.0 or later</text>
</g>
<!-- LGPL&#45;3.0&#45;or&#45;later(6) -->
<g id="node10" class="node">
<title>LGPL&#45;3.0&#45;or&#45;later(6)</title>
<ellipse fill="springgreen" stroke="springgreen" cx="397.92" cy="-1974" rx="86.38" ry="18"/>
<text text-anchor="middle" x="397.92" y="-1970.3" font-family="Times-Roman" font-size="14.00">LGPL&#45;3.0&#45;or&#45;later</text>
</g>
<!-- GNU Lesser General Public License v3.0 or later(7) -->
<g id="node11" class="node">
<title>GNU Lesser General Public License v3.0 or later(7)</title>
<ellipse fill="white" stroke="white" cx="397.92" cy="-1914" rx="226.36" ry="18"/>
<text text-anchor="middle" x="397.92" y="-1910.3" font-family="Times-Roman" font-size="14.00">GNU Lesser General Public License v3.0 or later</text>
</g>
<!-- LGPL&#45;3.0&#45;or&#45;later(7) -->
<g id="node12" class="node">
<title>LGPL&#45;3.0&#45;or&#45;later(7)</title>
<ellipse fill="springgreen" stroke="springgreen" cx="397.92" cy="-1860" rx="86.38" ry="18"/>
<text text-anchor="middle" x="397.92" y="-1856.3" font-family="Times-Roman" font-size="14.00">LGPL&#45;3.0&#45;or&#45;later</text>
</g>
<!-- LGPL 3.0 or later(8) -->
<g id="node13" class="node">
<title>LGPL 3.0 or later(8)</title>
<ellipse fill="white" stroke="white" cx="397.92" cy="-1800" rx="85.59" ry="18"/>
<text text-anchor="middle" x="397.92" y="-1796.3" font-family="Times-Roman" font-size="14.00">LGPL 3.0 or later</text>
</g>
<!-- LGPL&#45;3.0&#45;or&#45;later(8) -->
<g id="node14" class="node">
<title>LGPL&#45;3.0&#45;or&#45;later(8)</title>
<ellipse fill="springgreen" stroke="springgreen" cx="397.92" cy="-1746" rx="86.38" ry="18"/>
<text text-anchor="middle" x="397.92" y="-1742.3" font-family="Times-Roman" font-size="14.00">LGPL&#45;3.0&#45;or&#45;later</text>
</g>
<!-- scancode://lgpl&#45;3.0&#45;plus(8) -->
<g id="node15" class="node">
<title>scancode://lgpl&#45;3.0&#45;plus(8)</title>
<ellipse fill="white" stroke="white" cx="397.92" cy="-1692" rx="118.88" ry="18"/>
<text text-anchor="middle" x="397.92" y="-1688.3" font-family="Times-Roman" font-size="14.00">scancode://lgpl&#45;3.0&#45;plus</text>
</g>
<!-- GNU Lesser General Public License 3.0(9) -->
<g id="node16" class="node">
<title>GNU Lesser General Public License 3.0(9)</title>
<ellipse fill="white" stroke="white" cx="397.92" cy="-1632" rx="185.47" ry="18"/>
<text text-anchor="middle" x="397.92" y="-1628.3" font-family="Times-Roman" font-size="14.00">GNU Lesser General Public License 3.0</text>
</g>
<!-- LGPL&#45;3.0&#45;or&#45;later(9) -->
<g id="node17" class="node">
<title>LGPL&#45;3.0&#45;or&#45;later(9)</title>
<ellipse fill="springgreen" stroke="springgreen" cx="397.92" cy="-1578" rx="86.38" ry="18"/>
<text text-anchor="middle" x="397.92" y="-1574.3" font-family="Times-Roman" font-size="14.00">LGPL&#45;3.0&#45;or&#45;later</text>
</g>
<!-- LGPL (v3)(10) -->
<g id="node18" class="node">
<title>LGPL (v3)(10)</title>
<ellipse fill="white" stroke="white" cx="397.92" cy="-1510" rx="53.89" ry="18"/>
<text text-anchor="middle" x="397.92" y="-1506.3" font-family="Times-Roman" font-size="14.00">LGPL (v3)</text>
</g>
<!-- LGPL (v3.0)(10) -->
<g id="node19" class="node">
<title>LGPL (v3.0)(10)</title>
<ellipse fill="lightgray" stroke="lightgray" cx="397.92" cy="-1456" rx="62.29" ry="18"/>
<text text-anchor="middle" x="397.92" y="-1452.3" font-family="Times-Roman" font-size="14.00">LGPL (v3.0)</text>
</g>
<!-- LGPL&#45;3(10) -->
<g id="node20" class="node">
<title>LGPL&#45;3(10)</title>
<ellipse fill="white" stroke="white" cx="397.92" cy="-1402" rx="42.49" ry="18"/>
<text text-anchor="middle" x="397.92" y="-1398.3" font-family="Times-Roman" font-size="14.00">LGPL&#45;3</text>
</g>
<!-- LGPL&#45;3.0(10) -->
<g id="node21" class="node">
<title>LGPL&#45;3.0(10)</title>
<ellipse fill="white" stroke="white" cx="397.92" cy="-1348" rx="50.89" ry="18"/>
<text text-anchor="middle" x="397.92" y="-1344.3" font-family="Times-Roman" font-size="14.00">LGPL&#45;3.0</text>
</g>
<!-- LGPL&#45;3.0&#45;only(10) -->
<g id="node22" class="node">
<title>LGPL&#45;3.0&#45;only(10)</title>
<ellipse fill="orange" stroke="orange" cx="397.92" cy="-1294" rx="73.39" ry="18"/>
<text text-anchor="middle" x="397.92" y="-1290.3" font-family="Times-Roman" font-size="14.00">LGPL&#45;3.0&#45;only</text>
</g>
<!-- LGPL3(10) -->
<g id="node23" class="node">
<title>LGPL3(10)</title>
<ellipse fill="lightgray" stroke="lightgray" cx="397.92" cy="-1240" rx="38.19" ry="18"/>
<text text-anchor="middle" x="397.92" y="-1236.3" font-family="Times-Roman" font-size="14.00">LGPL3</text>
</g>
<!-- LGPL3.0(10) -->
<g id="node24" class="node">
<title>LGPL3.0(10)</title>
<ellipse fill="white" stroke="white" cx="397.92" cy="-1186" rx="47.39" ry="18"/>
<text text-anchor="middle" x="397.92" y="-1182.3" font-family="Times-Roman" font-size="14.00">LGPL3.0</text>
</g>
<!-- GNU Lesser General Public License v3.0 or later(11) -->
<g id="node25" class="node">
<title>GNU Lesser General Public License v3.0 or later(11)</title>
<ellipse fill="lightgray" stroke="lightgray" cx="397.92" cy="-1126" rx="226.36" ry="18"/>
<text text-anchor="middle" x="397.92" y="-1122.3" font-family="Times-Roman" font-size="14.00">GNU Lesser General Public License v3.0 or later</text>
</g>
<!-- LGPLv3+(11) -->
<g id="node26" class="node">
<title>LGPLv3+(11)</title>
<ellipse fill="white" stroke="white" cx="397.92" cy="-1072" rx="51.99" ry="18"/>
<text text-anchor="middle" x="397.92" y="-1068.3" font-family="Times-Roman" font-size="14.00">LGPLv3+</text>
</g>
<!-- GNU Lesser General Public License 3.0(12) -->
<g id="node27" class="node">
<title>GNU Lesser General Public License 3.0(12)</title>
<ellipse fill="lightgray" stroke="lightgray" cx="397.92" cy="-1012" rx="185.47" ry="18"/>
<text text-anchor="middle" x="397.92" y="-1008.3" font-family="Times-Roman" font-size="14.00">GNU Lesser General Public License 3.0</text>
</g>
<!-- LGPL&#45;3.0(12) -->
<g id="node28" class="node">
<title>LGPL&#45;3.0(12)</title>
<ellipse fill="white" stroke="white" cx="397.92" cy="-958" rx="50.89" ry="18"/>
<text text-anchor="middle" x="397.92" y="-954.3" font-family="Times-Roman" font-size="14.00">LGPL&#45;3.0</text>
</g>
<!-- GNU Lesser General Public License v3.0 only(13) -->
<g id="node29" class="node">
<title>GNU Lesser General Public License v3.0 only(13)</title>
<ellipse fill="white" stroke="white" cx="397.92" cy="-890" rx="212.56" ry="18"/>
<text text-anchor="middle" x="397.92" y="-886.3" font-family="Times-Roman" font-size="14.00">GNU Lesser General Public License v3.0 only</text>
</g>
<!-- LGPL&#45;3.0&#45;only(13) -->
<g id="node30" class="node">
<title>LGPL&#45;3.0&#45;only(13)</title>
<ellipse fill="orange" stroke="orange" cx="397.92" cy="-836" rx="73.39" ry="18"/>
<text text-anchor="middle" x="397.92" y="-832.3" font-family="Times-Roman" font-size="14.00">LGPL&#45;3.0&#45;only</text>
</g>
<!-- GNU Lesser General Public License v3.0 only(14) -->
<g id="node31" class="node">
<title>GNU Lesser General Public License v3.0 only(14)</title>
<ellipse fill="white" stroke="white" cx="397.92" cy="-776" rx="212.56" ry="18"/>
<text text-anchor="middle" x="397.92" y="-772.3" font-family="Times-Roman" font-size="14.00">GNU Lesser General Public License v3.0 only</text>
</g>
<!-- LGPL&#45;3.0&#45;only(14) -->
<g id="node32" class="node">
<title>LGPL&#45;3.0&#45;only(14)</title>
<ellipse fill="orange" stroke="orange" cx="397.92" cy="-722" rx="73.39" ry="18"/>
<text text-anchor="middle" x="397.92" y="-718.3" font-family="Times-Roman" font-size="14.00">LGPL&#45;3.0&#45;only</text>
</g>
<!-- LGPL 3.0(15) -->
<g id="node33" class="node">
<title>LGPL 3.0(15)</title>
<ellipse fill="white" stroke="white" cx="397.92" cy="-662" rx="50.09" ry="18"/>
<text text-anchor="middle" x="397.92" y="-658.3" font-family="Times-Roman" font-size="14.00">LGPL 3.0</text>
</g>
<!-- LGPL&#45;3.0&#45;only(15) -->
<g id="node34" class="node">
<title>LGPL&#45;3.0&#45;only(15)</title>
<ellipse fill="orange" stroke="orange" cx="397.92" cy="-608" rx="73.39" ry="18"/>
<text text-anchor="middle" x="397.92" y="-604.3" font-family="Times-Roman" font-size="14.00">LGPL&#45;3.0&#45;only</text>
</g>
<!-- scancode://lgpl&#45;3.0(15) -->
<g id="node35" class="node">
<title>scancode://lgpl&#45;3.0(15)</title>
<ellipse fill="white" stroke="white" cx="397.92" cy="-554" rx="96.68" ry="18"/>
<text text-anchor="middle" x="397.92" y="-550.3" font-family="Times-Roman" font-size="14.00">scancode://lgpl&#45;3.0</text>
</g>
<!-- GNU LGPLv3(16) -->
<g id="node36" class="node">
<title>GNU LGPLv3(16)</title>
<ellipse fill="white" stroke="white" cx="397.92" cy="-494" rx="67.69" ry="18"/>
<text text-anchor="middle" x="397.92" y="-490.3" font-family="Times-Roman" font-size="14.00">GNU LGPLv3</text>
</g>
<!-- LGPL&#45;3.0(16) -->
<g id="node37" class="node">
<title>LGPL&#45;3.0(16)</title>
<ellipse fill="lightgray" stroke="lightgray" cx="397.92" cy="-440" rx="50.89" ry="18"/>
<text text-anchor="middle" x="397.92" y="-436.3" font-family="Times-Roman" font-size="14.00">LGPL&#45;3.0</text>
</g>
<!-- lgpl&#45;3.0(16) -->
<g id="node38" class="node">
<title>lgpl&#45;3.0(16)</title>
<ellipse fill="white" stroke="white" cx="397.92" cy="-386" rx="45.49" ry="18"/>
<text text-anchor="middle" x="397.92" y="-382.3" font-family="Times-Roman" font-size="14.00">lgpl&#45;3.0</text>
</g>
<!-- GNU Lesser General Public License, Version 3.0(17) -->
<g id="node39" class="node">
<title>GNU Lesser General Public License, Version 3.0(17)</title>
<ellipse fill="white" stroke="white" cx="397.92" cy="-326" rx="224.46" ry="18"/>
<text text-anchor="middle" x="397.92" y="-322.3" font-family="Times-Roman" font-size="14.00">GNU Lesser General Public License, Version 3.0</text>
</g>
<!-- LGPL&#45;3.0(17) -->
<g id="node40" class="node">
<title>LGPL&#45;3.0(17)</title>
<ellipse fill="lightgray" stroke="lightgray" cx="397.92" cy="-272" rx="50.89" ry="18"/>
<text text-anchor="middle" x="397.92" y="-268.3" font-family="Times-Roman" font-size="14.00">LGPL&#45;3.0</text>
</g>
<!-- License :: OSI Approved :: GNU Lesser General Public License v3 (LGPLv3)(17) -->
<g id="node41" class="node">
<title>License :: OSI Approved :: GNU Lesser General Public License v3 (LGPLv3)(17)</title>
<ellipse fill="white" stroke="white" cx="397.92" cy="-218" rx="344.44" ry="18"/>
<text text-anchor="middle" x="397.92" y="-214.3" font-family="Times-Roman" font-size="14.00">License :: OSI Approved :: GNU Lesser General Public License v3 (LGPLv3)</text>
</g>
<!-- License :: OSI Approved :: GNU Library or Lesser General Public License (LGPL)(17) -->
<g id="node42" class="node">
<title>License :: OSI Approved :: GNU Library or Lesser General Public License (LGPL)(17)</title>
<ellipse fill="white" stroke="white" cx="397.92" cy="-164" rx="365.84" ry="18"/>
<text text-anchor="middle" x="397.92" y="-160.3" font-family="Times-Roman" font-size="14.00">License :: OSI Approved :: GNU Library or Lesser General Public License (LGPL)</text>
</g>
<!-- GNU Lesser General Public License v3.0 only(18) -->
<g id="node43" class="node">
<title>GNU Lesser General Public License v3.0 only(18)</title>
<ellipse fill="lightgray" stroke="lightgray" cx="397.92" cy="-96" rx="212.56" ry="18"/>
<text text-anchor="middle" x="397.92" y="-92.3" font-family="Times-Roman" font-size="14.00">GNU Lesser General Public License v3.0 only</text>
</g>
<!-- LGPLv3(18) -->
<g id="node44" class="node">
<title>LGPLv3(18)</title>
<ellipse fill="white" stroke="white" cx="397.92" cy="-42" rx="44.39" ry="18"/>
<text text-anchor="middle" x="397.92" y="-38.3" font-family="Times-Roman" font-size="14.00">LGPLv3</text>
</g>
</g>
</svg>
