<?xml version="1.0" encoding="UTF-8" standalone="no"?>
<!DOCTYPE svg PUBLIC "-//W3C//DTD SVG 1.1//EN"
 "http://www.w3.org/Graphics/SVG/1.1/DTD/svg11.dtd">
<!-- Generated by graphviz version 2.43.0 (0)
 -->
<!-- Title: LGPL&#45;2.0&#45;or&#45;later Pages: 1 -->
<svg width="495pt" height="764pt"
 viewBox="0.00 0.00 495.36 764.00" xmlns="http://www.w3.org/2000/svg" xmlns:xlink="http://www.w3.org/1999/xlink">
<g id="graph0" class="graph" transform="scale(1 1) rotate(0) translate(4 760)">
<title>LGPL&#45;2.0&#45;or&#45;later</title>
<polygon fill="white" stroke="transparent" points="-4,4 -4,-760 491.36,-760 491.36,4 -4,4"/>
<g id="clust1" class="cluster">
<title>cluster_0</title>
<polygon fill="none" stroke="black" points="8,-8 8,-748 479.36,-748 479.36,-8 8,-8"/>
</g>
<g id="clust2" class="cluster">
<title>cluster_1</title>
<polygon fill="lightgray" stroke="lightgray" points="149.24,-688 149.24,-740 338.12,-740 338.12,-688 149.24,-688"/>
</g>
<g id="clust3" class="cluster">
<title>cluster_2</title>
<polygon fill="lightgray" stroke="lightgray" points="16,-574 16,-680 471.36,-680 471.36,-574 16,-574"/>
</g>
<g id="clust4" class="cluster">
<title>cluster_3</title>
<polygon fill="lightgray" stroke="lightgray" points="16,-460 16,-566 471.36,-566 471.36,-460 16,-460"/>
</g>
<g id="clust5" class="cluster">
<title>cluster_4</title>
<polygon fill="lightgray" stroke="lightgray" points="144.69,-184 144.69,-452 342.67,-452 342.67,-184 144.69,-184"/>
</g>
<g id="clust6" class="cluster">
<title>cluster_5</title>
<polygon fill="lightgray" stroke="lightgray" points="116.74,-16 116.74,-176 370.62,-176 370.62,-16 116.74,-16"/>
</g>
<!-- LGPL&#45;2.0&#45;or&#45;later(1) -->
<g id="node1" class="node">
<title>LGPL&#45;2.0&#45;or&#45;later(1)</title>
<ellipse fill="springgreen" stroke="springgreen" cx="243.68" cy="-714" rx="86.38" ry="18"/>
<text text-anchor="middle" x="243.68" y="-710.3" font-family="Times-Roman" font-size="14.00">LGPL&#45;2.0&#45;or&#45;later</text>
</g>
<!-- GNU Library General Public License v2 or later(2) -->
<g id="node2" class="node">
<title>GNU Library General Public License v2 or later(2)</title>
<ellipse fill="white" stroke="white" cx="243.68" cy="-654" rx="219.86" ry="18"/>
<text text-anchor="middle" x="243.68" y="-650.3" font-family="Times-Roman" font-size="14.00">GNU Library General Public License v2 or later</text>
</g>
<!-- LGPL&#45;2.0&#45;or&#45;later(2) -->
<g id="node3" class="node">
<title>LGPL&#45;2.0&#45;or&#45;later(2)</title>
<ellipse fill="springgreen" stroke="springgreen" cx="243.68" cy="-600" rx="86.38" ry="18"/>
<text text-anchor="middle" x="243.68" y="-596.3" font-family="Times-Roman" font-size="14.00">LGPL&#45;2.0&#45;or&#45;later</text>
</g>
<!-- GNU Library General Public License v2 or later(3) -->
<g id="node4" class="node">
<title>GNU Library General Public License v2 or later(3)</title>
<ellipse fill="white" stroke="white" cx="243.68" cy="-540" rx="219.86" ry="18"/>
<text text-anchor="middle" x="243.68" y="-536.3" font-family="Times-Roman" font-size="14.00">GNU Library General Public License v2 or later</text>
</g>
<!-- LGPL&#45;2.0&#45;or&#45;later(3) -->
<g id="node5" class="node">
<title>LGPL&#45;2.0&#45;or&#45;later(3)</title>
<ellipse fill="springgreen" stroke="springgreen" cx="243.68" cy="-486" rx="86.38" ry="18"/>
<text text-anchor="middle" x="243.68" y="-482.3" font-family="Times-Roman" font-size="14.00">LGPL&#45;2.0&#45;or&#45;later</text>
</g>
<!-- LGPL v2 or later(4) -->
<g id="node6" class="node">
<title>LGPL v2 or later(4)</title>
<ellipse fill="white" stroke="white" cx="243.68" cy="-426" rx="82.59" ry="18"/>
<text text-anchor="middle" x="243.68" y="-422.3" font-family="Times-Roman" font-size="14.00">LGPL v2 or later</text>
</g>
<!-- LGPL v2.0 or later(4) -->
<g id="node7" class="node">
<title>LGPL v2.0 or later(4)</title>
<ellipse fill="white" stroke="white" cx="243.68" cy="-372" rx="90.98" ry="18"/>
<text text-anchor="middle" x="243.68" y="-368.3" font-family="Times-Roman" font-size="14.00">LGPL v2.0 or later</text>
</g>
<!-- LGPL&#45;2.0+(4) -->
<g id="node8" class="node">
<title>LGPL&#45;2.0+(4)</title>
<ellipse fill="white" stroke="white" cx="243.68" cy="-318" rx="58.49" ry="18"/>
<text text-anchor="middle" x="243.68" y="-314.3" font-family="Times-Roman" font-size="14.00">LGPL&#45;2.0+</text>
</g>
<!-- LGPL&#45;2.0&#45;or&#45;later(4) -->
<g id="node9" class="node">
<title>LGPL&#45;2.0&#45;or&#45;later(4)</title>
<ellipse fill="springgreen" stroke="springgreen" cx="243.68" cy="-264" rx="86.38" ry="18"/>
<text text-anchor="middle" x="243.68" y="-260.3" font-family="Times-Roman" font-size="14.00">LGPL&#45;2.0&#45;or&#45;later</text>
</g>
<!-- LGPLv2.0+(4) -->
<g id="node10" class="node">
<title>LGPLv2.0+(4)</title>
<ellipse fill="white" stroke="white" cx="243.68" cy="-210" rx="60.39" ry="18"/>
<text text-anchor="middle" x="243.68" y="-206.3" font-family="Times-Roman" font-size="14.00">LGPLv2.0+</text>
</g>
<!-- LGPL 2.0 or later(5) -->
<g id="node11" class="node">
<title>LGPL 2.0 or later(5)</title>
<ellipse fill="white" stroke="white" cx="243.68" cy="-150" rx="85.59" ry="18"/>
<text text-anchor="middle" x="243.68" y="-146.3" font-family="Times-Roman" font-size="14.00">LGPL 2.0 or later</text>
</g>
<!-- LGPL&#45;2.0&#45;or&#45;later(5) -->
<g id="node12" class="node">
<title>LGPL&#45;2.0&#45;or&#45;later(5)</title>
<ellipse fill="springgreen" stroke="springgreen" cx="243.68" cy="-96" rx="86.38" ry="18"/>
<text text-anchor="middle" x="243.68" y="-92.3" font-family="Times-Roman" font-size="14.00">LGPL&#45;2.0&#45;or&#45;later</text>
</g>
<!-- scancode://lgpl&#45;2.0&#45;plus(5) -->
<g id="node13" class="node">
<title>scancode://lgpl&#45;2.0&#45;plus(5)</title>
<ellipse fill="white" stroke="white" cx="243.68" cy="-42" rx="118.88" ry="18"/>
<text text-anchor="middle" x="243.68" y="-38.3" font-family="Times-Roman" font-size="14.00">scancode://lgpl&#45;2.0&#45;plus</text>
</g>
</g>
</svg>
