<?xml version="1.0" encoding="UTF-8" standalone="no"?>
<!DOCTYPE svg PUBLIC "-//W3C//DTD SVG 1.1//EN"
 "http://www.w3.org/Graphics/SVG/1.1/DTD/svg11.dtd">
<!-- Generated by graphviz version 2.43.0 (0)
 -->
<!-- Title: LGPL&#45;2.0&#45;only Pages: 1 -->
<svg width="500pt" height="916pt"
 viewBox="0.00 0.00 500.06 916.00" xmlns="http://www.w3.org/2000/svg" xmlns:xlink="http://www.w3.org/1999/xlink">
<g id="graph0" class="graph" transform="scale(1 1) rotate(0) translate(4 912)">
<title>LGPL&#45;2.0&#45;only</title>
<polygon fill="white" stroke="transparent" points="-4,4 -4,-912 496.06,-912 496.06,4 -4,4"/>
<g id="clust1" class="cluster">
<title>cluster_0</title>
<polygon fill="none" stroke="black" points="8,-8 8,-900 484.06,-900 484.06,-8 8,-8"/>
</g>
<g id="clust2" class="cluster">
<title>cluster_1</title>
<polygon fill="none" stroke="black" points="16,-298 16,-892 476.06,-892 476.06,-298 16,-298"/>
</g>
<g id="clust3" class="cluster">
<title>cluster_2</title>
<polygon fill="none" stroke="black" points="24,-420 24,-884 468.06,-884 468.06,-420 24,-420"/>
</g>
<g id="clust4" class="cluster">
<title>cluster_3</title>
<polygon fill="lightgray" stroke="lightgray" points="164.59,-824 164.59,-876 327.48,-876 327.48,-824 164.59,-824"/>
</g>
<g id="clust5" class="cluster">
<title>cluster_4</title>
<polygon fill="lightgray" stroke="lightgray" points="32,-710 32,-816 460.06,-816 460.06,-710 32,-710"/>
</g>
<g id="clust6" class="cluster">
<title>cluster_5</title>
<polygon fill="lightgray" stroke="lightgray" points="141.19,-542 141.19,-702 350.87,-702 350.87,-542 141.19,-542"/>
</g>
<g id="clust7" class="cluster">
<title>cluster_6</title>
<polygon fill="lightgray" stroke="lightgray" points="50.2,-428 50.2,-534 441.87,-534 441.87,-428 50.2,-428"/>
</g>
<g id="clust8" class="cluster">
<title>cluster_7</title>
<polygon fill="lightgray" stroke="lightgray" points="50.2,-306 50.2,-412 441.87,-412 441.87,-306 50.2,-306"/>
</g>
<g id="clust9" class="cluster">
<title>cluster_8</title>
<polygon fill="lightgray" stroke="lightgray" points="18.35,-184 18.35,-290 473.71,-290 473.71,-184 18.35,-184"/>
</g>
<g id="clust10" class="cluster">
<title>cluster_9</title>
<polygon fill="lightgray" stroke="lightgray" points="119.09,-16 119.09,-176 372.97,-176 372.97,-16 119.09,-16"/>
</g>
<!-- LGPL&#45;2.0&#45;only(3) -->
<g id="node1" class="node">
<title>LGPL&#45;2.0&#45;only(3)</title>
<ellipse fill="springgreen" stroke="springgreen" cx="246.03" cy="-850" rx="73.39" ry="18"/>
<text text-anchor="middle" x="246.03" y="-846.3" font-family="Times-Roman" font-size="14.00">LGPL&#45;2.0&#45;only</text>
</g>
<!-- GNU Library General Public License v2 only(4) -->
<g id="node2" class="node">
<title>GNU Library General Public License v2 only(4)</title>
<ellipse fill="white" stroke="white" cx="246.03" cy="-790" rx="206.06" ry="18"/>
<text text-anchor="middle" x="246.03" y="-786.3" font-family="Times-Roman" font-size="14.00">GNU Library General Public License v2 only</text>
</g>
<!-- LGPL&#45;2.0&#45;only(4) -->
<g id="node3" class="node">
<title>LGPL&#45;2.0&#45;only(4)</title>
<ellipse fill="springgreen" stroke="springgreen" cx="246.03" cy="-736" rx="73.39" ry="18"/>
<text text-anchor="middle" x="246.03" y="-732.3" font-family="Times-Roman" font-size="14.00">LGPL&#45;2.0&#45;only</text>
</g>
<!-- LGPL 2.0(5) -->
<g id="node4" class="node">
<title>LGPL 2.0(5)</title>
<ellipse fill="white" stroke="white" cx="246.03" cy="-676" rx="50.09" ry="18"/>
<text text-anchor="middle" x="246.03" y="-672.3" font-family="Times-Roman" font-size="14.00">LGPL 2.0</text>
</g>
<!-- LGPL&#45;2.0&#45;only(5) -->
<g id="node5" class="node">
<title>LGPL&#45;2.0&#45;only(5)</title>
<ellipse fill="springgreen" stroke="springgreen" cx="246.03" cy="-622" rx="73.39" ry="18"/>
<text text-anchor="middle" x="246.03" y="-618.3" font-family="Times-Roman" font-size="14.00">LGPL&#45;2.0&#45;only</text>
</g>
<!-- scancode://lgpl&#45;2.0(5) -->
<g id="node6" class="node">
<title>scancode://lgpl&#45;2.0(5)</title>
<ellipse fill="white" stroke="white" cx="246.03" cy="-568" rx="96.68" ry="18"/>
<text text-anchor="middle" x="246.03" y="-564.3" font-family="Times-Roman" font-size="14.00">scancode://lgpl&#45;2.0</text>
</g>
<!-- GNU Library General Public License 2.0(6) -->
<g id="node7" class="node">
<title>GNU Library General Public License 2.0(6)</title>
<ellipse fill="white" stroke="white" cx="246.03" cy="-508" rx="187.67" ry="18"/>
<text text-anchor="middle" x="246.03" y="-504.3" font-family="Times-Roman" font-size="14.00">GNU Library General Public License 2.0</text>
</g>
<!-- LGPL&#45;2.0&#45;only(6) -->
<g id="node8" class="node">
<title>LGPL&#45;2.0&#45;only(6)</title>
<ellipse fill="springgreen" stroke="springgreen" cx="246.03" cy="-454" rx="73.39" ry="18"/>
<text text-anchor="middle" x="246.03" y="-450.3" font-family="Times-Roman" font-size="14.00">LGPL&#45;2.0&#45;only</text>
</g>
<!-- GNU Library General Public License 2.0(7) -->
<g id="node9" class="node">
<title>GNU Library General Public License 2.0(7)</title>
<ellipse fill="lightgray" stroke="lightgray" cx="246.03" cy="-386" rx="187.67" ry="18"/>
<text text-anchor="middle" x="246.03" y="-382.3" font-family="Times-Roman" font-size="14.00">GNU Library General Public License 2.0</text>
</g>
<!-- LGPL&#45;2.0&#45;or&#45;later(7) -->
<g id="node10" class="node">
<title>LGPL&#45;2.0&#45;or&#45;later(7)</title>
<ellipse fill="orange" stroke="orange" cx="246.03" cy="-332" rx="86.38" ry="18"/>
<text text-anchor="middle" x="246.03" y="-328.3" font-family="Times-Roman" font-size="14.00">LGPL&#45;2.0&#45;or&#45;later</text>
</g>
<!-- GNU Library General Public License v2 or later(8) -->
<g id="node11" class="node">
<title>GNU Library General Public License v2 or later(8)</title>
<ellipse fill="white" stroke="white" cx="246.03" cy="-264" rx="219.86" ry="18"/>
<text text-anchor="middle" x="246.03" y="-260.3" font-family="Times-Roman" font-size="14.00">GNU Library General Public License v2 or later</text>
</g>
<!-- LGPL&#45;2.0&#45;or&#45;later(8) -->
<g id="node12" class="node">
<title>LGPL&#45;2.0&#45;or&#45;later(8)</title>
<ellipse fill="orange" stroke="orange" cx="246.03" cy="-210" rx="86.38" ry="18"/>
<text text-anchor="middle" x="246.03" y="-206.3" font-family="Times-Roman" font-size="14.00">LGPL&#45;2.0&#45;or&#45;later</text>
</g>
<!-- LGPL 2.0 or later(9) -->
<g id="node13" class="node">
<title>LGPL 2.0 or later(9)</title>
<ellipse fill="white" stroke="white" cx="246.03" cy="-150" rx="85.59" ry="18"/>
<text text-anchor="middle" x="246.03" y="-146.3" font-family="Times-Roman" font-size="14.00">LGPL 2.0 or later</text>
</g>
<!-- LGPL&#45;2.0&#45;or&#45;later(9) -->
<g id="node14" class="node">
<title>LGPL&#45;2.0&#45;or&#45;later(9)</title>
<ellipse fill="orange" stroke="orange" cx="246.03" cy="-96" rx="86.38" ry="18"/>
<text text-anchor="middle" x="246.03" y="-92.3" font-family="Times-Roman" font-size="14.00">LGPL&#45;2.0&#45;or&#45;later</text>
</g>
<!-- scancode://lgpl&#45;2.0&#45;plus(9) -->
<g id="node15" class="node">
<title>scancode://lgpl&#45;2.0&#45;plus(9)</title>
<ellipse fill="white" stroke="white" cx="246.03" cy="-42" rx="118.88" ry="18"/>
<text text-anchor="middle" x="246.03" y="-38.3" font-family="Times-Roman" font-size="14.00">scancode://lgpl&#45;2.0&#45;plus</text>
</g>
</g>
</svg>
