<?xml version="1.0" encoding="UTF-8" standalone="no"?>
<!DOCTYPE svg PUBLIC "-//W3C//DTD SVG 1.1//EN"
 "http://www.w3.org/Graphics/SVG/1.1/DTD/svg11.dtd">
<!-- Generated by graphviz version 2.43.0 (0)
 -->
<!-- Title: Libpng Pages: 1 -->
<svg width="1448pt" height="115pt"
 viewBox="0.00 0.00 1448.00 115.00" xmlns="http://www.w3.org/2000/svg" xmlns:xlink="http://www.w3.org/1999/xlink">
<g id="graph0" class="graph" transform="scale(1 1) rotate(0) translate(4 111)">
<title>Libpng</title>
<polygon fill="white" stroke="transparent" points="-4,4 -4,-111 1444,-111 1444,4 -4,4"/>
<g id="clust1" class="cluster">
<title>cluster_0</title>
<polygon fill="none" stroke="black" points="8,-8 8,-99 1432,-99 1432,-8 8,-8"/>
</g>
<g id="clust2" class="cluster">
<title>cluster_1</title>
<polygon fill="lightgray" stroke="lightgray" points="1324,-16 1324,-91 1424,-91 1424,-16 1324,-16"/>
<text text-anchor="middle" x="1374" y="-75.8" font-family="Times-Roman" font-size="14.00">prev</text>
</g>
<g id="clust3" class="cluster">
<title>cluster_2</title>
<polygon fill="lightgray" stroke="lightgray" points="1048,-16 1048,-68 1316,-68 1316,-16 1048,-16"/>
</g>
<g id="clust4" class="cluster">
<title>cluster_3</title>
<polygon fill="lightgray" stroke="lightgray" points="772,-16 772,-68 1040,-68 1040,-16 772,-16"/>
</g>
<g id="clust5" class="cluster">
<title>cluster_4</title>
<polygon fill="lightgray" stroke="lightgray" points="292,-16 292,-68 764,-68 764,-16 292,-16"/>
</g>
<g id="clust6" class="cluster">
<title>cluster_5</title>
<polygon fill="lightgray" stroke="lightgray" points="16,-16 16,-68 284,-68 284,-16 16,-16"/>
</g>
<!-- Libpng(1) -->
<g id="node1" class="node">
<title>Libpng(1)</title>
<ellipse fill="springgreen" stroke="springgreen" cx="1374" cy="-42" rx="41.69" ry="18"/>
<text text-anchor="middle" x="1374" y="-38.3" font-family="Times-Roman" font-size="14.00">Libpng</text>
</g>
<!-- Libpng(2) -->
<g id="node2" class="node">
<title>Libpng(2)</title>
<ellipse fill="springgreen" stroke="springgreen" cx="1266" cy="-42" rx="41.69" ry="18"/>
<text text-anchor="middle" x="1266" y="-38.3" font-family="Times-Roman" font-size="14.00">Libpng</text>
</g>
<!-- libpng License(2) -->
<g id="node3" class="node">
<title>libpng License(2)</title>
<ellipse fill="white" stroke="white" cx="1131" cy="-42" rx="75.29" ry="18"/>
<text text-anchor="middle" x="1131" y="-38.3" font-family="Times-Roman" font-size="14.00">libpng License</text>
</g>
<!-- Libpng(3) -->
<g id="node4" class="node">
<title>Libpng(3)</title>
<ellipse fill="springgreen" stroke="springgreen" cx="990" cy="-42" rx="41.69" ry="18"/>
<text text-anchor="middle" x="990" y="-38.3" font-family="Times-Roman" font-size="14.00">Libpng</text>
</g>
<!-- libpng License(3) -->
<g id="node5" class="node">
<title>libpng License(3)</title>
<ellipse fill="white" stroke="white" cx="855" cy="-42" rx="75.29" ry="18"/>
<text text-anchor="middle" x="855" y="-38.3" font-family="Times-Roman" font-size="14.00">libpng License</text>
</g>
<!-- Libpng(4) -->
<g id="node6" class="node">
<title>Libpng(4)</title>
<ellipse fill="springgreen" stroke="springgreen" cx="714" cy="-42" rx="41.69" ry="18"/>
<text text-anchor="middle" x="714" y="-38.3" font-family="Times-Roman" font-size="14.00">Libpng</text>
</g>
<!-- Libpng License(4) -->
<g id="node7" class="node">
<title>Libpng License(4)</title>
<ellipse fill="white" stroke="white" cx="576" cy="-42" rx="77.99" ry="18"/>
<text text-anchor="middle" x="576" y="-38.3" font-family="Times-Roman" font-size="14.00">Libpng License</text>
</g>
<!-- scancode://libpng(4) -->
<g id="node8" class="node">
<title>scancode://libpng(4)</title>
<ellipse fill="white" stroke="white" cx="390" cy="-42" rx="90.18" ry="18"/>
<text text-anchor="middle" x="390" y="-38.3" font-family="Times-Roman" font-size="14.00">scancode://libpng</text>
</g>
<!-- Libpng(5) -->
<g id="node9" class="node">
<title>Libpng(5)</title>
<ellipse fill="springgreen" stroke="springgreen" cx="234" cy="-42" rx="41.69" ry="18"/>
<text text-anchor="middle" x="234" y="-38.3" font-family="Times-Roman" font-size="14.00">Libpng</text>
</g>
<!-- libpng License(5) -->
<g id="node10" class="node">
<title>libpng License(5)</title>
<ellipse fill="white" stroke="white" cx="99" cy="-42" rx="75.29" ry="18"/>
<text text-anchor="middle" x="99" y="-38.3" font-family="Times-Roman" font-size="14.00">libpng License</text>
</g>
</g>
</svg>
