<?xml version="1.0" encoding="UTF-8" standalone="no"?>
<!DOCTYPE svg PUBLIC "-//W3C//DTD SVG 1.1//EN"
 "http://www.w3.org/Graphics/SVG/1.1/DTD/svg11.dtd">
<!-- Generated by graphviz version 2.43.0 (0)
 -->
<!-- Title: libtiff Pages: 1 -->
<svg width="678pt" height="92pt"
 viewBox="0.00 0.00 678.00 92.00" xmlns="http://www.w3.org/2000/svg" xmlns:xlink="http://www.w3.org/1999/xlink">
<g id="graph0" class="graph" transform="scale(1 1) rotate(0) translate(4 88)">
<title>libtiff</title>
<polygon fill="white" stroke="transparent" points="-4,4 -4,-88 674,-88 674,4 -4,4"/>
<g id="clust1" class="cluster">
<title>cluster_0</title>
<polygon fill="none" stroke="black" points="8,-8 8,-76 662,-76 662,-8 8,-8"/>
</g>
<g id="clust2" class="cluster">
<title>cluster_1</title>
<polygon fill="lightgray" stroke="lightgray" points="570,-16 570,-68 654,-68 654,-16 570,-16"/>
</g>
<g id="clust3" class="cluster">
<title>cluster_2</title>
<polygon fill="lightgray" stroke="lightgray" points="406,-16 406,-68 562,-68 562,-16 406,-16"/>
</g>
<g id="clust5" class="cluster">
<title>cluster_4</title>
<polygon fill="lightgray" stroke="lightgray" points="16,-16 16,-68 398,-68 398,-16 16,-16"/>
</g>
<!-- libtiff -->
<g id="node1" class="node">
<title>libtiff</title>
<ellipse fill="white" stroke="white" cx="612" cy="-42" rx="33.6" ry="18"/>
<text text-anchor="middle" x="612" y="-38.3" font-family="Times-Roman" font-size="14.00">libtiff</text>
</g>
<!-- libtiff License -->
<g id="node2" class="node">
<title>libtiff License</title>
<ellipse fill="white" stroke="white" cx="484" cy="-42" rx="70.39" ry="18"/>
<text text-anchor="middle" x="484" y="-38.3" font-family="Times-Roman" font-size="14.00">libtiff License</text>
</g>
<!-- X11&#45;Style (Tiff) -->
<g id="node3" class="node">
<title>X11&#45;Style (Tiff)</title>
<ellipse fill="white" stroke="white" cx="311" cy="-42" rx="78.79" ry="18"/>
<text text-anchor="middle" x="311" y="-38.3" font-family="Times-Roman" font-size="14.00">X11&#45;Style (Tiff)</text>
</g>
<!-- scancode://x11&#45;tiff -->
<g id="node4" class="node">
<title>scancode://x11&#45;tiff</title>
<ellipse fill="white" stroke="white" cx="119" cy="-42" rx="94.78" ry="18"/>
<text text-anchor="middle" x="119" y="-38.3" font-family="Times-Roman" font-size="14.00">scancode://x11&#45;tiff</text>
</g>
</g>
</svg>
