<?xml version="1.0" encoding="UTF-8" standalone="no"?>
<!DOCTYPE svg PUBLIC "-//W3C//DTD SVG 1.1//EN"
 "http://www.w3.org/Graphics/SVG/1.1/DTD/svg11.dtd">
<!-- Generated by graphviz version 2.43.0 (0)
 -->
<!-- Title: LiLiQ&#45;P&#45;1.1 Pages: 1 -->
<svg width="529pt" height="434pt"
 viewBox="0.00 0.00 529.16 434.00" xmlns="http://www.w3.org/2000/svg" xmlns:xlink="http://www.w3.org/1999/xlink">
<g id="graph0" class="graph" transform="scale(1 1) rotate(0) translate(4 430)">
<title>LiLiQ&#45;P&#45;1.1</title>
<polygon fill="white" stroke="transparent" points="-4,4 -4,-430 525.16,-430 525.16,4 -4,4"/>
<g id="clust1" class="cluster">
<title>cluster_0</title>
<polygon fill="none" stroke="black" points="8,-8 8,-418 513.16,-418 513.16,-8 8,-8"/>
</g>
<g id="clust2" class="cluster">
<title>cluster_1</title>
<polygon fill="lightgray" stroke="lightgray" points="192.78,-358 192.78,-410 328.37,-410 328.37,-358 192.78,-358"/>
</g>
<g id="clust3" class="cluster">
<title>cluster_2</title>
<polygon fill="lightgray" stroke="lightgray" points="192.78,-244 192.78,-350 328.37,-350 328.37,-244 192.78,-244"/>
</g>
<g id="clust4" class="cluster">
<title>cluster_3</title>
<polygon fill="lightgray" stroke="lightgray" points="19.25,-130 19.25,-236 501.91,-236 501.91,-130 19.25,-130"/>
</g>
<g id="clust5" class="cluster">
<title>cluster_4</title>
<polygon fill="lightgray" stroke="lightgray" points="16,-16 16,-122 505.16,-122 505.16,-16 16,-16"/>
</g>
<!-- LiLiQ&#45;P&#45;1.1(1) -->
<g id="node1" class="node">
<title>LiLiQ&#45;P&#45;1.1(1)</title>
<ellipse fill="springgreen" stroke="springgreen" cx="260.58" cy="-384" rx="59.59" ry="18"/>
<text text-anchor="middle" x="260.58" y="-380.3" font-family="Times-Roman" font-size="14.00">LiLiQ&#45;P&#45;1.1</text>
</g>
<!-- LiLiQ&#45;P(2) -->
<g id="node2" class="node">
<title>LiLiQ&#45;P(2)</title>
<ellipse fill="white" stroke="white" cx="260.58" cy="-324" rx="41.69" ry="18"/>
<text text-anchor="middle" x="260.58" y="-320.3" font-family="Times-Roman" font-size="14.00">LiLiQ&#45;P</text>
</g>
<!-- LiLiQ&#45;P&#45;1.1(2) -->
<g id="node3" class="node">
<title>LiLiQ&#45;P&#45;1.1(2)</title>
<ellipse fill="springgreen" stroke="springgreen" cx="260.58" cy="-270" rx="59.59" ry="18"/>
<text text-anchor="middle" x="260.58" y="-266.3" font-family="Times-Roman" font-size="14.00">LiLiQ&#45;P&#45;1.1</text>
</g>
<!-- LiLiQ&#45;P&#45;1.1(3) -->
<g id="node4" class="node">
<title>LiLiQ&#45;P&#45;1.1(3)</title>
<ellipse fill="springgreen" stroke="springgreen" cx="260.58" cy="-210" rx="59.59" ry="18"/>
<text text-anchor="middle" x="260.58" y="-206.3" font-family="Times-Roman" font-size="14.00">LiLiQ&#45;P&#45;1.1</text>
</g>
<!-- Licence Libre du Québec – Permissive version 1.1(3) -->
<g id="node5" class="node">
<title>Licence Libre du Québec – Permissive version 1.1(3)</title>
<ellipse fill="white" stroke="white" cx="260.58" cy="-156" rx="233.16" ry="18"/>
<text text-anchor="middle" x="260.58" y="-152.3" font-family="Times-Roman" font-size="14.00">Licence Libre du Québec – Permissive version 1.1</text>
</g>
<!-- LiLiQ&#45;P&#45;1.1(4) -->
<g id="node6" class="node">
<title>LiLiQ&#45;P&#45;1.1(4)</title>
<ellipse fill="springgreen" stroke="springgreen" cx="260.58" cy="-96" rx="59.59" ry="18"/>
<text text-anchor="middle" x="260.58" y="-92.3" font-family="Times-Roman" font-size="14.00">LiLiQ&#45;P&#45;1.1</text>
</g>
<!-- Licence Libre du Québec – Permissive, Version 1.1(4) -->
<g id="node7" class="node">
<title>Licence Libre du Québec – Permissive, Version 1.1(4)</title>
<ellipse fill="white" stroke="white" cx="260.58" cy="-42" rx="236.66" ry="18"/>
<text text-anchor="middle" x="260.58" y="-38.3" font-family="Times-Roman" font-size="14.00">Licence Libre du Québec – Permissive, Version 1.1</text>
</g>
</g>
</svg>
