<?xml version="1.0" encoding="UTF-8" standalone="no"?>
<!DOCTYPE svg PUBLIC "-//W3C//DTD SVG 1.1//EN"
 "http://www.w3.org/Graphics/SVG/1.1/DTD/svg11.dtd">
<!-- Generated by graphviz version 2.43.0 (0)
 -->
<!-- Title: LiLiQ&#45;Rplus&#45;1.1 Pages: 1 -->
<svg width="1376pt" height="115pt"
 viewBox="0.00 0.00 1376.00 115.00" xmlns="http://www.w3.org/2000/svg" xmlns:xlink="http://www.w3.org/1999/xlink">
<g id="graph0" class="graph" transform="scale(1 1) rotate(0) translate(4 111)">
<title>LiLiQ&#45;Rplus&#45;1.1</title>
<polygon fill="white" stroke="transparent" points="-4,4 -4,-111 1372,-111 1372,4 -4,4"/>
<g id="clust1" class="cluster">
<title>cluster_0</title>
<polygon fill="none" stroke="black" points="8,-8 8,-99 1360,-99 1360,-8 8,-8"/>
</g>
<g id="clust2" class="cluster">
<title>cluster_1</title>
<polygon fill="lightgray" stroke="lightgray" points="1178,-16 1178,-91 1352,-91 1352,-16 1178,-16"/>
<text text-anchor="middle" x="1265" y="-75.8" font-family="Times-Roman" font-size="14.00">prev</text>
</g>
<g id="clust3" class="cluster">
<title>cluster_2</title>
<polygon fill="lightgray" stroke="lightgray" points="460,-16 460,-68 1170,-68 1170,-16 460,-16"/>
</g>
<g id="clust4" class="cluster">
<title>cluster_3</title>
<polygon fill="lightgray" stroke="lightgray" points="16,-16 16,-68 452,-68 452,-16 16,-16"/>
</g>
<!-- LiLiQ&#45;Rplus&#45;1.1(1) -->
<g id="node1" class="node">
<title>LiLiQ&#45;Rplus&#45;1.1(1)</title>
<ellipse fill="springgreen" stroke="springgreen" cx="1265" cy="-42" rx="79.09" ry="18"/>
<text text-anchor="middle" x="1265" y="-38.3" font-family="Times-Roman" font-size="14.00">LiLiQ&#45;Rplus&#45;1.1</text>
</g>
<!-- LiLiQ&#45;Rplus&#45;1.1(2) -->
<g id="node2" class="node">
<title>LiLiQ&#45;Rplus&#45;1.1(2)</title>
<ellipse fill="springgreen" stroke="springgreen" cx="1083" cy="-42" rx="79.09" ry="18"/>
<text text-anchor="middle" x="1083" y="-38.3" font-family="Times-Roman" font-size="14.00">LiLiQ&#45;Rplus&#45;1.1</text>
</g>
<!-- Licence Libre du Québec – Réciprocité forte version 1.1(2) -->
<g id="node3" class="node">
<title>Licence Libre du Québec – Réciprocité forte version 1.1(2)</title>
<ellipse fill="white" stroke="white" cx="727" cy="-42" rx="258.85" ry="18"/>
<text text-anchor="middle" x="727" y="-38.3" font-family="Times-Roman" font-size="14.00">Licence Libre du Québec – Réciprocité forte version 1.1</text>
</g>
<!-- LiLiQ&#45;Rplus&#45;1.1(3) -->
<g id="node4" class="node">
<title>LiLiQ&#45;Rplus&#45;1.1(3)</title>
<ellipse fill="springgreen" stroke="springgreen" cx="365" cy="-42" rx="79.09" ry="18"/>
<text text-anchor="middle" x="365" y="-38.3" font-family="Times-Roman" font-size="14.00">LiLiQ&#45;Rplus&#45;1.1</text>
</g>
<!-- scancode://liliq&#45;rplus&#45;1.1(3) -->
<g id="node5" class="node">
<title>scancode://liliq&#45;rplus&#45;1.1(3)</title>
<ellipse fill="white" stroke="white" cx="146" cy="-42" rx="122.38" ry="18"/>
<text text-anchor="middle" x="146" y="-38.3" font-family="Times-Roman" font-size="14.00">scancode://liliq&#45;rplus&#45;1.1</text>
</g>
</g>
</svg>
