<?xml version="1.0" encoding="UTF-8" standalone="no"?>
<!DOCTYPE svg PUBLIC "-//W3C//DTD SVG 1.1//EN"
 "http://www.w3.org/Graphics/SVG/1.1/DTD/svg11.dtd">
<!-- Generated by graphviz version 2.43.0 (0)
 -->
<!-- Title: Linux&#45;OpenIB Pages: 1 -->
<svg width="456pt" height="320pt"
 viewBox="0.00 0.00 456.36 320.00" xmlns="http://www.w3.org/2000/svg" xmlns:xlink="http://www.w3.org/1999/xlink">
<g id="graph0" class="graph" transform="scale(1 1) rotate(0) translate(4 316)">
<title>Linux&#45;OpenIB</title>
<polygon fill="white" stroke="transparent" points="-4,4 -4,-316 452.36,-316 452.36,4 -4,4"/>
<g id="clust1" class="cluster">
<title>cluster_0</title>
<polygon fill="none" stroke="black" points="8,-8 8,-304 440.36,-304 440.36,-8 8,-8"/>
</g>
<g id="clust2" class="cluster">
<title>cluster_1</title>
<polygon fill="lightgray" stroke="lightgray" points="144.04,-244 144.04,-296 304.33,-296 304.33,-244 144.04,-244"/>
</g>
<g id="clust3" class="cluster">
<title>cluster_2</title>
<polygon fill="lightgray" stroke="lightgray" points="16,-130 16,-236 432.36,-236 432.36,-130 16,-130"/>
</g>
<g id="clust4" class="cluster">
<title>cluster_3</title>
<polygon fill="lightgray" stroke="lightgray" points="16,-16 16,-122 432.36,-122 432.36,-16 16,-16"/>
</g>
<!-- Linux&#45;OpenIB(1) -->
<g id="node1" class="node">
<title>Linux&#45;OpenIB(1)</title>
<ellipse fill="springgreen" stroke="springgreen" cx="224.18" cy="-270" rx="72.29" ry="18"/>
<text text-anchor="middle" x="224.18" y="-266.3" font-family="Times-Roman" font-size="14.00">Linux&#45;OpenIB</text>
</g>
<!-- Linux Kernel Variant of OpenIB.org license(2) -->
<g id="node2" class="node">
<title>Linux Kernel Variant of OpenIB.org license(2)</title>
<ellipse fill="white" stroke="white" cx="224.18" cy="-210" rx="200.36" ry="18"/>
<text text-anchor="middle" x="224.18" y="-206.3" font-family="Times-Roman" font-size="14.00">Linux Kernel Variant of OpenIB.org license</text>
</g>
<!-- Linux&#45;OpenIB(2) -->
<g id="node3" class="node">
<title>Linux&#45;OpenIB(2)</title>
<ellipse fill="springgreen" stroke="springgreen" cx="224.18" cy="-156" rx="72.29" ry="18"/>
<text text-anchor="middle" x="224.18" y="-152.3" font-family="Times-Roman" font-size="14.00">Linux&#45;OpenIB</text>
</g>
<!-- Linux Kernel Variant of OpenIB.org license(3) -->
<g id="node4" class="node">
<title>Linux Kernel Variant of OpenIB.org license(3)</title>
<ellipse fill="white" stroke="white" cx="224.18" cy="-96" rx="200.36" ry="18"/>
<text text-anchor="middle" x="224.18" y="-92.3" font-family="Times-Roman" font-size="14.00">Linux Kernel Variant of OpenIB.org license</text>
</g>
<!-- Linux&#45;OpenIB(3) -->
<g id="node5" class="node">
<title>Linux&#45;OpenIB(3)</title>
<ellipse fill="springgreen" stroke="springgreen" cx="224.18" cy="-42" rx="72.29" ry="18"/>
<text text-anchor="middle" x="224.18" y="-38.3" font-family="Times-Roman" font-size="14.00">Linux&#45;OpenIB</text>
</g>
</g>
</svg>
