<?xml version="1.0" encoding="UTF-8" standalone="no"?>
<!DOCTYPE svg PUBLIC "-//W3C//DTD SVG 1.1//EN"
 "http://www.w3.org/Graphics/SVG/1.1/DTD/svg11.dtd">
<!-- Generated by graphviz version 2.43.0 (0)
 -->
<!-- Title: Linux&#45;OpenIB Pages: 1 -->
<svg width="456pt" height="434pt"
 viewBox="0.00 0.00 456.36 434.00" xmlns="http://www.w3.org/2000/svg" xmlns:xlink="http://www.w3.org/1999/xlink">
<g id="graph0" class="graph" transform="scale(1 1) rotate(0) translate(4 430)">
<title>Linux&#45;OpenIB</title>
<polygon fill="white" stroke="transparent" points="-4,4 -4,-430 452.36,-430 452.36,4 -4,4"/>
<g id="clust1" class="cluster">
<title>cluster_0</title>
<polygon fill="none" stroke="black" points="8,-8 8,-418 440.36,-418 440.36,-8 8,-8"/>
</g>
<g id="clust2" class="cluster">
<title>cluster_1</title>
<polygon fill="lightgray" stroke="lightgray" points="144.04,-358 144.04,-410 304.33,-410 304.33,-358 144.04,-358"/>
</g>
<g id="clust3" class="cluster">
<title>cluster_2</title>
<polygon fill="lightgray" stroke="lightgray" points="16,-244 16,-350 432.36,-350 432.36,-244 16,-244"/>
</g>
<g id="clust4" class="cluster">
<title>cluster_3</title>
<polygon fill="lightgray" stroke="lightgray" points="16,-130 16,-236 432.36,-236 432.36,-130 16,-130"/>
</g>
<g id="clust5" class="cluster">
<title>cluster_4</title>
<polygon fill="lightgray" stroke="lightgray" points="97.89,-16 97.89,-122 350.47,-122 350.47,-16 97.89,-16"/>
</g>
<!-- Linux&#45;OpenIB(1) -->
<g id="node1" class="node">
<title>Linux&#45;OpenIB(1)</title>
<ellipse fill="springgreen" stroke="springgreen" cx="224.18" cy="-384" rx="72.29" ry="18"/>
<text text-anchor="middle" x="224.18" y="-380.3" font-family="Times-Roman" font-size="14.00">Linux&#45;OpenIB</text>
</g>
<!-- Linux Kernel Variant of OpenIB.org license(2) -->
<g id="node2" class="node">
<title>Linux Kernel Variant of OpenIB.org license(2)</title>
<ellipse fill="white" stroke="white" cx="224.18" cy="-324" rx="200.36" ry="18"/>
<text text-anchor="middle" x="224.18" y="-320.3" font-family="Times-Roman" font-size="14.00">Linux Kernel Variant of OpenIB.org license</text>
</g>
<!-- Linux&#45;OpenIB(2) -->
<g id="node3" class="node">
<title>Linux&#45;OpenIB(2)</title>
<ellipse fill="springgreen" stroke="springgreen" cx="224.18" cy="-270" rx="72.29" ry="18"/>
<text text-anchor="middle" x="224.18" y="-266.3" font-family="Times-Roman" font-size="14.00">Linux&#45;OpenIB</text>
</g>
<!-- Linux Kernel Variant of OpenIB.org license(3) -->
<g id="node4" class="node">
<title>Linux Kernel Variant of OpenIB.org license(3)</title>
<ellipse fill="white" stroke="white" cx="224.18" cy="-210" rx="200.36" ry="18"/>
<text text-anchor="middle" x="224.18" y="-206.3" font-family="Times-Roman" font-size="14.00">Linux Kernel Variant of OpenIB.org license</text>
</g>
<!-- Linux&#45;OpenIB(3) -->
<g id="node5" class="node">
<title>Linux&#45;OpenIB(3)</title>
<ellipse fill="springgreen" stroke="springgreen" cx="224.18" cy="-156" rx="72.29" ry="18"/>
<text text-anchor="middle" x="224.18" y="-152.3" font-family="Times-Roman" font-size="14.00">Linux&#45;OpenIB</text>
</g>
<!-- Linux&#45;OpenIB(4) -->
<g id="node6" class="node">
<title>Linux&#45;OpenIB(4)</title>
<ellipse fill="springgreen" stroke="springgreen" cx="224.18" cy="-96" rx="72.29" ry="18"/>
<text text-anchor="middle" x="224.18" y="-92.3" font-family="Times-Roman" font-size="14.00">Linux&#45;OpenIB</text>
</g>
<!-- scancode://linux&#45;openib(4) -->
<g id="node7" class="node">
<title>scancode://linux&#45;openib(4)</title>
<ellipse fill="white" stroke="white" cx="224.18" cy="-42" rx="118.08" ry="18"/>
<text text-anchor="middle" x="224.18" y="-38.3" font-family="Times-Roman" font-size="14.00">scancode://linux&#45;openib</text>
</g>
</g>
</svg>
