<?xml version="1.0" encoding="UTF-8" standalone="no"?>
<!DOCTYPE svg PUBLIC "-//W3C//DTD SVG 1.1//EN"
 "http://www.w3.org/Graphics/SVG/1.1/DTD/svg11.dtd">
<!-- Generated by graphviz version 2.43.0 (0)
 -->
<!-- Title: Linux&#45;OpenIB Pages: 1 -->
<svg width="954pt" height="98pt"
 viewBox="0.00 0.00 954.00 98.43" xmlns="http://www.w3.org/2000/svg" xmlns:xlink="http://www.w3.org/1999/xlink">
<g id="graph0" class="graph" transform="scale(1 1) rotate(0) translate(4 94.43)">
<title>Linux&#45;OpenIB</title>
<polygon fill="white" stroke="transparent" points="-4,4 -4,-94.43 950,-94.43 950,4 -4,4"/>
<g id="clust1" class="cluster">
<title>cluster_0</title>
<polygon fill="none" stroke="black" points="8,-8 8,-82.43 938,-82.43 938,-8 8,-8"/>
</g>
<g id="clust2" class="cluster">
<title>cluster_1</title>
<polygon fill="lightgray" stroke="lightgray" points="700,-16 700,-74.43 930,-74.43 930,-16 700,-16"/>
</g>
<g id="clust3" class="cluster">
<title>cluster_2</title>
<polygon fill="lightgray" stroke="lightgray" points="276,-19.21 276,-71.21 692,-71.21 692,-19.21 276,-19.21"/>
</g>
<g id="clust5" class="cluster">
<title>cluster_4</title>
<polygon fill="lightgray" stroke="lightgray" points="16,-19.21 16,-71.21 268,-71.21 268,-19.21 16,-19.21"/>
</g>
<!-- Linux&#45;OpenIB -->
<g id="node1" class="node">
<title>Linux&#45;OpenIB</title>
<ellipse fill="springgreen" stroke="springgreen" cx="815" cy="-45.21" rx="106.55" ry="21.43"/>
<text text-anchor="middle" x="815" y="-40.21" font-family="Times-Roman" font-size="20.00">Linux&#45;OpenIB</text>
</g>
<!-- Linux Kernel Variant of OpenIB.org license -->
<g id="node2" class="node">
<title>Linux Kernel Variant of OpenIB.org license</title>
<ellipse fill="white" stroke="white" cx="484" cy="-45.21" rx="200.36" ry="18"/>
<text text-anchor="middle" x="484" y="-41.51" font-family="Times-Roman" font-size="14.00">Linux Kernel Variant of OpenIB.org license</text>
</g>
<!-- scancode://linux&#45;openib -->
<g id="node3" class="node">
<title>scancode://linux&#45;openib</title>
<ellipse fill="white" stroke="white" cx="142" cy="-45.21" rx="118.08" ry="18"/>
<text text-anchor="middle" x="142" y="-41.51" font-family="Times-Roman" font-size="14.00">scancode://linux&#45;openib</text>
</g>
</g>
</svg>
