<?xml version="1.0" encoding="UTF-8" standalone="no"?>
<!DOCTYPE svg PUBLIC "-//W3C//DTD SVG 1.1//EN"
 "http://www.w3.org/Graphics/SVG/1.1/DTD/svg11.dtd">
<!-- Generated by graphviz version 2.43.0 (0)
 -->
<!-- Title: LPL&#45;1.0 Pages: 1 -->
<svg width="451pt" height="548pt"
 viewBox="0.00 0.00 451.16 548.00" xmlns="http://www.w3.org/2000/svg" xmlns:xlink="http://www.w3.org/1999/xlink">
<g id="graph0" class="graph" transform="scale(1 1) rotate(0) translate(4 544)">
<title>LPL&#45;1.0</title>
<polygon fill="white" stroke="transparent" points="-4,4 -4,-544 447.16,-544 447.16,4 -4,4"/>
<g id="clust1" class="cluster">
<title>cluster_0</title>
<polygon fill="none" stroke="black" points="8,-8 8,-532 435.16,-532 435.16,-8 8,-8"/>
</g>
<g id="clust2" class="cluster">
<title>cluster_1</title>
<polygon fill="lightgray" stroke="lightgray" points="169.39,-472 169.39,-524 273.78,-524 273.78,-472 169.39,-472"/>
</g>
<g id="clust3" class="cluster">
<title>cluster_2</title>
<polygon fill="lightgray" stroke="lightgray" points="52.4,-358 52.4,-464 390.77,-464 390.77,-358 52.4,-358"/>
</g>
<g id="clust4" class="cluster">
<title>cluster_3</title>
<polygon fill="lightgray" stroke="lightgray" points="45.25,-244 45.25,-350 397.92,-350 397.92,-244 45.25,-244"/>
</g>
<g id="clust5" class="cluster">
<title>cluster_4</title>
<polygon fill="lightgray" stroke="lightgray" points="16,-130 16,-236 427.16,-236 427.16,-130 16,-130"/>
</g>
<g id="clust6" class="cluster">
<title>cluster_5</title>
<polygon fill="lightgray" stroke="lightgray" points="52.4,-16 52.4,-122 390.77,-122 390.77,-16 52.4,-16"/>
</g>
<!-- LPL&#45;1.0(1) -->
<g id="node1" class="node">
<title>LPL&#45;1.0(1)</title>
<ellipse fill="springgreen" stroke="springgreen" cx="221.58" cy="-498" rx="44.39" ry="18"/>
<text text-anchor="middle" x="221.58" y="-494.3" font-family="Times-Roman" font-size="14.00">LPL&#45;1.0</text>
</g>
<!-- LPL&#45;1.0(2) -->
<g id="node2" class="node">
<title>LPL&#45;1.0(2)</title>
<ellipse fill="springgreen" stroke="springgreen" cx="221.58" cy="-438" rx="44.39" ry="18"/>
<text text-anchor="middle" x="221.58" y="-434.3" font-family="Times-Roman" font-size="14.00">LPL&#45;1.0</text>
</g>
<!-- Lucent Public License Version 1.0(2) -->
<g id="node3" class="node">
<title>Lucent Public License Version 1.0(2)</title>
<ellipse fill="white" stroke="white" cx="221.58" cy="-384" rx="161.37" ry="18"/>
<text text-anchor="middle" x="221.58" y="-380.3" font-family="Times-Roman" font-size="14.00">Lucent Public License Version 1.0</text>
</g>
<!-- LPL&#45;1.0(3) -->
<g id="node4" class="node">
<title>LPL&#45;1.0(3)</title>
<ellipse fill="springgreen" stroke="springgreen" cx="221.58" cy="-324" rx="44.39" ry="18"/>
<text text-anchor="middle" x="221.58" y="-320.3" font-family="Times-Roman" font-size="14.00">LPL&#45;1.0</text>
</g>
<!-- Lucent Public License (&quot;Plan9&quot;) 1.0(3) -->
<g id="node5" class="node">
<title>Lucent Public License (&quot;Plan9&quot;) 1.0(3)</title>
<ellipse fill="white" stroke="white" cx="221.58" cy="-270" rx="168.17" ry="18"/>
<text text-anchor="middle" x="221.58" y="-266.3" font-family="Times-Roman" font-size="14.00">Lucent Public License (&quot;Plan9&quot;) 1.0</text>
</g>
<!-- LPL&#45;1.0(4) -->
<g id="node6" class="node">
<title>LPL&#45;1.0(4)</title>
<ellipse fill="springgreen" stroke="springgreen" cx="221.58" cy="-210" rx="44.39" ry="18"/>
<text text-anchor="middle" x="221.58" y="-206.3" font-family="Times-Roman" font-size="14.00">LPL&#45;1.0</text>
</g>
<!-- Lucent Public License, Plan 9, Version 1.0(4) -->
<g id="node7" class="node">
<title>Lucent Public License, Plan 9, Version 1.0(4)</title>
<ellipse fill="white" stroke="white" cx="221.58" cy="-156" rx="197.66" ry="18"/>
<text text-anchor="middle" x="221.58" y="-152.3" font-family="Times-Roman" font-size="14.00">Lucent Public License, Plan 9, Version 1.0</text>
</g>
<!-- LPL&#45;1.0(5) -->
<g id="node8" class="node">
<title>LPL&#45;1.0(5)</title>
<ellipse fill="springgreen" stroke="springgreen" cx="221.58" cy="-96" rx="44.39" ry="18"/>
<text text-anchor="middle" x="221.58" y="-92.3" font-family="Times-Roman" font-size="14.00">LPL&#45;1.0</text>
</g>
<!-- Lucent Public License Version 1.0(5) -->
<g id="node9" class="node">
<title>Lucent Public License Version 1.0(5)</title>
<ellipse fill="white" stroke="white" cx="221.58" cy="-42" rx="161.37" ry="18"/>
<text text-anchor="middle" x="221.58" y="-38.3" font-family="Times-Roman" font-size="14.00">Lucent Public License Version 1.0</text>
</g>
</g>
</svg>
