<?xml version="1.0" encoding="UTF-8" standalone="no"?>
<!DOCTYPE svg PUBLIC "-//W3C//DTD SVG 1.1//EN"
 "http://www.w3.org/Graphics/SVG/1.1/DTD/svg11.dtd">
<!-- Generated by graphviz version 2.43.0 (0)
 -->
<!-- Title: LPL&#45;1.02 Pages: 1 -->
<svg width="328pt" height="602pt"
 viewBox="0.00 0.00 327.68 602.00" xmlns="http://www.w3.org/2000/svg" xmlns:xlink="http://www.w3.org/1999/xlink">
<g id="graph0" class="graph" transform="scale(1 1) rotate(0) translate(4 598)">
<title>LPL&#45;1.02</title>
<polygon fill="white" stroke="transparent" points="-4,4 -4,-598 323.68,-598 323.68,4 -4,4"/>
<g id="clust1" class="cluster">
<title>cluster_0</title>
<polygon fill="none" stroke="black" points="8,-8 8,-586 311.68,-586 311.68,-8 8,-8"/>
</g>
<g id="clust2" class="cluster">
<title>cluster_1</title>
<polygon fill="lightgray" stroke="lightgray" points="101.79,-526 101.79,-578 217.88,-578 217.88,-526 101.79,-526"/>
</g>
<g id="clust3" class="cluster">
<title>cluster_2</title>
<polygon fill="lightgray" stroke="lightgray" points="16,-412 16,-518 303.68,-518 303.68,-412 16,-412"/>
</g>
<g id="clust4" class="cluster">
<title>cluster_3</title>
<polygon fill="lightgray" stroke="lightgray" points="16,-298 16,-404 303.68,-404 303.68,-298 16,-298"/>
</g>
<g id="clust5" class="cluster">
<title>cluster_4</title>
<polygon fill="lightgray" stroke="lightgray" points="21.2,-130 21.2,-290 298.48,-290 298.48,-130 21.2,-130"/>
</g>
<g id="clust6" class="cluster">
<title>cluster_5</title>
<polygon fill="lightgray" stroke="lightgray" points="21.2,-16 21.2,-122 298.48,-122 298.48,-16 21.2,-16"/>
</g>
<!-- LPL&#45;1.02(1) -->
<g id="node1" class="node">
<title>LPL&#45;1.02(1)</title>
<ellipse fill="springgreen" stroke="springgreen" cx="159.84" cy="-552" rx="50.09" ry="18"/>
<text text-anchor="middle" x="159.84" y="-548.3" font-family="Times-Roman" font-size="14.00">LPL&#45;1.02</text>
</g>
<!-- LPL&#45;1.02(2) -->
<g id="node2" class="node">
<title>LPL&#45;1.02(2)</title>
<ellipse fill="springgreen" stroke="springgreen" cx="159.84" cy="-492" rx="50.09" ry="18"/>
<text text-anchor="middle" x="159.84" y="-488.3" font-family="Times-Roman" font-size="14.00">LPL&#45;1.02</text>
</g>
<!-- Lucent Public License v1.02(2) -->
<g id="node3" class="node">
<title>Lucent Public License v1.02(2)</title>
<ellipse fill="white" stroke="white" cx="159.84" cy="-438" rx="135.68" ry="18"/>
<text text-anchor="middle" x="159.84" y="-434.3" font-family="Times-Roman" font-size="14.00">Lucent Public License v1.02</text>
</g>
<!-- LPL&#45;1.02(3) -->
<g id="node4" class="node">
<title>LPL&#45;1.02(3)</title>
<ellipse fill="springgreen" stroke="springgreen" cx="159.84" cy="-378" rx="50.09" ry="18"/>
<text text-anchor="middle" x="159.84" y="-374.3" font-family="Times-Roman" font-size="14.00">LPL&#45;1.02</text>
</g>
<!-- Lucent Public License v1.02(3) -->
<g id="node5" class="node">
<title>Lucent Public License v1.02(3)</title>
<ellipse fill="white" stroke="white" cx="159.84" cy="-324" rx="135.68" ry="18"/>
<text text-anchor="middle" x="159.84" y="-320.3" font-family="Times-Roman" font-size="14.00">Lucent Public License v1.02</text>
</g>
<!-- LPL&#45;1.02(4) -->
<g id="node6" class="node">
<title>LPL&#45;1.02(4)</title>
<ellipse fill="springgreen" stroke="springgreen" cx="159.84" cy="-264" rx="50.09" ry="18"/>
<text text-anchor="middle" x="159.84" y="-260.3" font-family="Times-Roman" font-size="14.00">LPL&#45;1.02</text>
</g>
<!-- Lucent Public License 1.02(4) -->
<g id="node7" class="node">
<title>Lucent Public License 1.02(4)</title>
<ellipse fill="white" stroke="white" cx="159.84" cy="-210" rx="130.78" ry="18"/>
<text text-anchor="middle" x="159.84" y="-206.3" font-family="Times-Roman" font-size="14.00">Lucent Public License 1.02</text>
</g>
<!-- scancode://lucent&#45;pl&#45;1.02(4) -->
<g id="node8" class="node">
<title>scancode://lucent&#45;pl&#45;1.02(4)</title>
<ellipse fill="white" stroke="white" cx="159.84" cy="-156" rx="125.38" ry="18"/>
<text text-anchor="middle" x="159.84" y="-152.3" font-family="Times-Roman" font-size="14.00">scancode://lucent&#45;pl&#45;1.02</text>
</g>
<!-- LPL&#45;1.02(5) -->
<g id="node9" class="node">
<title>LPL&#45;1.02(5)</title>
<ellipse fill="springgreen" stroke="springgreen" cx="159.84" cy="-96" rx="50.09" ry="18"/>
<text text-anchor="middle" x="159.84" y="-92.3" font-family="Times-Roman" font-size="14.00">LPL&#45;1.02</text>
</g>
<!-- Lucent Public License 1.02(5) -->
<g id="node10" class="node">
<title>Lucent Public License 1.02(5)</title>
<ellipse fill="white" stroke="white" cx="159.84" cy="-42" rx="130.78" ry="18"/>
<text text-anchor="middle" x="159.84" y="-38.3" font-family="Times-Roman" font-size="14.00">Lucent Public License 1.02</text>
</g>
</g>
</svg>
