<?xml version="1.0" encoding="UTF-8" standalone="no"?>
<!DOCTYPE svg PUBLIC "-//W3C//DTD SVG 1.1//EN"
 "http://www.w3.org/Graphics/SVG/1.1/DTD/svg11.dtd">
<!-- Generated by graphviz version 2.43.0 (0)
 -->
<!-- Title: LPPL&#45;1.3c Pages: 1 -->
<svg width="3668pt" height="98pt"
 viewBox="0.00 0.00 3668.00 98.43" xmlns="http://www.w3.org/2000/svg" xmlns:xlink="http://www.w3.org/1999/xlink">
<g id="graph0" class="graph" transform="scale(1 1) rotate(0) translate(4 94.43)">
<title>LPPL&#45;1.3c</title>
<polygon fill="white" stroke="transparent" points="-4,4 -4,-94.43 3664,-94.43 3664,4 -4,4"/>
<g id="clust1" class="cluster">
<title>cluster_0</title>
<polygon fill="none" stroke="black" points="8,-8 8,-82.43 3652,-82.43 3652,-8 8,-8"/>
</g>
<g id="clust2" class="cluster">
<title>cluster_1</title>
<polygon fill="lightgray" stroke="lightgray" points="3430,-16 3430,-74.43 3644,-74.43 3644,-16 3430,-16"/>
</g>
<g id="clust3" class="cluster">
<title>cluster_2</title>
<polygon fill="lightgray" stroke="lightgray" points="2836,-16 2836,-74.43 3422,-74.43 3422,-16 2836,-16"/>
</g>
<g id="clust4" class="cluster">
<title>cluster_3</title>
<polygon fill="lightgray" stroke="lightgray" points="2242,-16 2242,-74.43 2828,-74.43 2828,-16 2242,-16"/>
</g>
<g id="clust5" class="cluster">
<title>cluster_4</title>
<polygon fill="lightgray" stroke="lightgray" points="1624,-16 1624,-74.43 2234,-74.43 2234,-16 1624,-16"/>
</g>
<g id="clust6" class="cluster">
<title>cluster_5</title>
<polygon fill="lightgray" stroke="lightgray" points="1258,-16 1258,-74.43 1616,-74.43 1616,-16 1258,-16"/>
</g>
<g id="clust7" class="cluster">
<title>cluster_6</title>
<polygon fill="lightgray" stroke="lightgray" points="598,-16 598,-74.43 1250,-74.43 1250,-16 598,-16"/>
</g>
<g id="clust8" class="cluster">
<title>cluster_7</title>
<polygon fill="lightgray" stroke="lightgray" points="16,-16 16,-74.43 590,-74.43 590,-16 16,-16"/>
</g>
<!-- LPPL&#45;1.3c(1) -->
<g id="node1" class="node">
<title>LPPL&#45;1.3c(1)</title>
<ellipse fill="springgreen" stroke="springgreen" cx="3537" cy="-45.21" rx="98.99" ry="21.43"/>
<text text-anchor="middle" x="3537" y="-40.21" font-family="Times-Roman" font-size="20.00">LPPL&#45;1.3c(1)</text>
</g>
<!-- LPPL&#45;1.3c(2) -->
<g id="node2" class="node">
<title>LPPL&#45;1.3c(2)</title>
<ellipse fill="springgreen" stroke="springgreen" cx="3315" cy="-45.21" rx="98.99" ry="21.43"/>
<text text-anchor="middle" x="3315" y="-40.21" font-family="Times-Roman" font-size="20.00">LPPL&#45;1.3c(2)</text>
</g>
<!-- LaTeX Project Public License v1.3c(2) -->
<g id="node3" class="node">
<title>LaTeX Project Public License v1.3c(2)</title>
<ellipse fill="white" stroke="white" cx="3021" cy="-45.21" rx="176.57" ry="18"/>
<text text-anchor="middle" x="3021" y="-41.51" font-family="Times-Roman" font-size="14.00">LaTeX Project Public License v1.3c(2)</text>
</g>
<!-- LPPL&#45;1.3c(3) -->
<g id="node4" class="node">
<title>LPPL&#45;1.3c(3)</title>
<ellipse fill="springgreen" stroke="springgreen" cx="2721" cy="-45.21" rx="98.99" ry="21.43"/>
<text text-anchor="middle" x="2721" y="-40.21" font-family="Times-Roman" font-size="20.00">LPPL&#45;1.3c(3)</text>
</g>
<!-- LaTeX Project Public License v1.3c(3) -->
<g id="node5" class="node">
<title>LaTeX Project Public License v1.3c(3)</title>
<ellipse fill="white" stroke="white" cx="2427" cy="-45.21" rx="176.57" ry="18"/>
<text text-anchor="middle" x="2427" y="-41.51" font-family="Times-Roman" font-size="14.00">LaTeX Project Public License v1.3c(3)</text>
</g>
<!-- LPPL 1.3c(4) -->
<g id="node6" class="node">
<title>LPPL 1.3c(4)</title>
<ellipse fill="white" stroke="white" cx="2160" cy="-45.21" rx="66.09" ry="18"/>
<text text-anchor="middle" x="2160" y="-41.51" font-family="Times-Roman" font-size="14.00">LPPL 1.3c(4)</text>
</g>
<!-- LPPL&#45;1.3c(4) -->
<g id="node7" class="node">
<title>LPPL&#45;1.3c(4)</title>
<ellipse fill="springgreen" stroke="springgreen" cx="1977" cy="-45.21" rx="98.99" ry="21.43"/>
<text text-anchor="middle" x="1977" y="-40.21" font-family="Times-Roman" font-size="20.00">LPPL&#45;1.3c(4)</text>
</g>
<!-- scancode://lppl&#45;1.3c(4) -->
<g id="node8" class="node">
<title>scancode://lppl&#45;1.3c(4)</title>
<ellipse fill="white" stroke="white" cx="1746" cy="-45.21" rx="114.28" ry="18"/>
<text text-anchor="middle" x="1746" y="-41.51" font-family="Times-Roman" font-size="14.00">scancode://lppl&#45;1.3c(4)</text>
</g>
<!-- LPPL&#45;1.3c(5) -->
<g id="node9" class="node">
<title>LPPL&#45;1.3c(5)</title>
<ellipse fill="springgreen" stroke="springgreen" cx="1509" cy="-45.21" rx="98.99" ry="21.43"/>
<text text-anchor="middle" x="1509" y="-40.21" font-family="Times-Roman" font-size="20.00">LPPL&#45;1.3c(5)</text>
</g>
<!-- lppl&#45;1.3c(5) -->
<g id="node10" class="node">
<title>lppl&#45;1.3c(5)</title>
<ellipse fill="white" stroke="white" cx="1329" cy="-45.21" rx="63.09" ry="18"/>
<text text-anchor="middle" x="1329" y="-41.51" font-family="Times-Roman" font-size="14.00">lppl&#45;1.3c(5)</text>
</g>
<!-- LPPL&#45;1.3c(6) -->
<g id="node11" class="node">
<title>LPPL&#45;1.3c(6)</title>
<ellipse fill="springgreen" stroke="springgreen" cx="1143" cy="-45.21" rx="98.99" ry="21.43"/>
<text text-anchor="middle" x="1143" y="-40.21" font-family="Times-Roman" font-size="20.00">LPPL&#45;1.3c(6)</text>
</g>
<!-- LaTeX Project Public License, Version 1.3c(6) -->
<g id="node12" class="node">
<title>LaTeX Project Public License, Version 1.3c(6)</title>
<ellipse fill="white" stroke="white" cx="816" cy="-45.21" rx="209.86" ry="18"/>
<text text-anchor="middle" x="816" y="-41.51" font-family="Times-Roman" font-size="14.00">LaTeX Project Public License, Version 1.3c(6)</text>
</g>
<!-- LPPL&#45;1.3c(7) -->
<g id="node13" class="node">
<title>LPPL&#45;1.3c(7)</title>
<ellipse fill="springgreen" stroke="springgreen" cx="483" cy="-45.21" rx="98.99" ry="21.43"/>
<text text-anchor="middle" x="483" y="-40.21" font-family="Times-Roman" font-size="20.00">LPPL&#45;1.3c(7)</text>
</g>
<!-- LaTeX Project Public License 1.3c(7) -->
<g id="node14" class="node">
<title>LaTeX Project Public License 1.3c(7)</title>
<ellipse fill="white" stroke="white" cx="195" cy="-45.21" rx="170.87" ry="18"/>
<text text-anchor="middle" x="195" y="-41.51" font-family="Times-Roman" font-size="14.00">LaTeX Project Public License 1.3c(7)</text>
</g>
</g>
</svg>
