<?xml version="1.0" encoding="UTF-8" standalone="no"?>
<!DOCTYPE svg PUBLIC "-//W3C//DTD SVG 1.1//EN"
 "http://www.w3.org/Graphics/SVG/1.1/DTD/svg11.dtd">
<!-- Generated by graphviz version 2.43.0 (0)
 -->
<!-- Title: MirOS Pages: 1 -->
<svg width="1002pt" height="98pt"
 viewBox="0.00 0.00 1002.00 98.43" xmlns="http://www.w3.org/2000/svg" xmlns:xlink="http://www.w3.org/1999/xlink">
<g id="graph0" class="graph" transform="scale(1 1) rotate(0) translate(4 94.43)">
<title>MirOS</title>
<polygon fill="white" stroke="transparent" points="-4,4 -4,-94.43 998,-94.43 998,4 -4,4"/>
<g id="clust1" class="cluster">
<title>cluster_0</title>
<polygon fill="none" stroke="black" points="8,-8 8,-82.43 986,-82.43 986,-8 8,-8"/>
</g>
<g id="clust2" class="cluster">
<title>cluster_1</title>
<polygon fill="lightgray" stroke="lightgray" points="854,-16 854,-74.43 978,-74.43 978,-16 854,-16"/>
</g>
<g id="clust3" class="cluster">
<title>cluster_2</title>
<polygon fill="lightgray" stroke="lightgray" points="680,-19.21 680,-71.21 846,-71.21 846,-19.21 680,-19.21"/>
</g>
<g id="clust5" class="cluster">
<title>cluster_4</title>
<polygon fill="lightgray" stroke="lightgray" points="476,-19.21 476,-71.21 672,-71.21 672,-19.21 476,-19.21"/>
</g>
<g id="clust6" class="cluster">
<title>cluster_5</title>
<polygon fill="lightgray" stroke="lightgray" points="190,-19.21 190,-71.21 468,-71.21 468,-19.21 190,-19.21"/>
</g>
<g id="clust7" class="cluster">
<title>cluster_6</title>
<polygon fill="lightgray" stroke="lightgray" points="16,-19.21 16,-71.21 182,-71.21 182,-19.21 16,-19.21"/>
</g>
<!-- MirOS -->
<g id="node1" class="node">
<title>MirOS</title>
<ellipse fill="white" stroke="white" cx="916" cy="-45.21" rx="53.98" ry="21.43"/>
<text text-anchor="middle" x="916" y="-40.21" font-family="Times-Roman" font-size="20.00" fill="#00ff00">MirOS</text>
</g>
<!-- MirOS License -->
<g id="node2" class="node">
<title>MirOS License</title>
<ellipse fill="white" stroke="white" cx="763" cy="-45.21" rx="74.99" ry="18"/>
<text text-anchor="middle" x="763" y="-41.51" font-family="Times-Roman" font-size="14.00">MirOS License</text>
</g>
<!-- scancode://mir&#45;os -->
<g id="node3" class="node">
<title>scancode://mir&#45;os</title>
<ellipse fill="white" stroke="white" cx="574" cy="-45.21" rx="89.88" ry="18"/>
<text text-anchor="middle" x="574" y="-41.51" font-family="Times-Roman" font-size="14.00">scancode://mir&#45;os</text>
</g>
<!-- The MirOS Licence (MirOS) -->
<g id="node4" class="node">
<title>The MirOS Licence (MirOS)</title>
<ellipse fill="white" stroke="white" cx="329" cy="-45.21" rx="131.08" ry="18"/>
<text text-anchor="middle" x="329" y="-41.51" font-family="Times-Roman" font-size="14.00">The MirOS Licence (MirOS)</text>
</g>
<!-- MirOS Licence -->
<g id="node5" class="node">
<title>MirOS Licence</title>
<ellipse fill="white" stroke="white" cx="99" cy="-45.21" rx="74.99" ry="18"/>
<text text-anchor="middle" x="99" y="-41.51" font-family="Times-Roman" font-size="14.00">MirOS Licence</text>
</g>
</g>
</svg>
