<?xml version="1.0" encoding="UTF-8" standalone="no"?>
<!DOCTYPE svg PUBLIC "-//W3C//DTD SVG 1.1//EN"
 "http://www.w3.org/Graphics/SVG/1.1/DTD/svg11.dtd">
<!-- Generated by graphviz version 2.43.0 (0)
 -->
<!-- Title: MIT&#45;0 Pages: 1 -->
<svg width="691pt" height="92pt"
 viewBox="0.00 0.00 691.00 92.00" xmlns="http://www.w3.org/2000/svg" xmlns:xlink="http://www.w3.org/1999/xlink">
<g id="graph0" class="graph" transform="scale(1 1) rotate(0) translate(4 88)">
<title>MIT&#45;0</title>
<polygon fill="white" stroke="transparent" points="-4,4 -4,-88 687,-88 687,4 -4,4"/>
<g id="clust1" class="cluster">
<title>cluster_0</title>
<polygon fill="none" stroke="black" points="8,-8 8,-76 675,-76 675,-8 8,-8"/>
</g>
<g id="clust2" class="cluster">
<title>cluster_1</title>
<polygon fill="lightgray" stroke="lightgray" points="579,-16 579,-68 667,-68 667,-16 579,-16"/>
</g>
<g id="clust3" class="cluster">
<title>cluster_2</title>
<polygon fill="lightgray" stroke="lightgray" points="369,-16 369,-68 571,-68 571,-16 369,-16"/>
</g>
<g id="clust5" class="cluster">
<title>cluster_4</title>
<polygon fill="lightgray" stroke="lightgray" points="16,-16 16,-68 361,-68 361,-16 16,-16"/>
</g>
<!-- MIT&#45;0 -->
<g id="node1" class="node">
<title>MIT&#45;0</title>
<ellipse fill="white" stroke="white" cx="623" cy="-42" rx="36" ry="18"/>
<text text-anchor="middle" x="623" y="-38.3" font-family="Times-Roman" font-size="14.00">MIT&#45;0</text>
</g>
<!-- MIT No Attribution -->
<g id="node2" class="node">
<title>MIT No Attribution</title>
<ellipse fill="white" stroke="white" cx="470" cy="-42" rx="92.88" ry="18"/>
<text text-anchor="middle" x="470" y="-38.3" font-family="Times-Roman" font-size="14.00">MIT No Attribution</text>
</g>
<!-- MIT&#45;0&#45;Clause -->
<g id="node3" class="node">
<title>MIT&#45;0&#45;Clause</title>
<ellipse fill="white" stroke="white" cx="283" cy="-42" rx="69.59" ry="18"/>
<text text-anchor="middle" x="283" y="-38.3" font-family="Times-Roman" font-size="14.00">MIT&#45;0&#45;Clause</text>
</g>
<!-- scancode://mit&#45;0 -->
<g id="node4" class="node">
<title>scancode://mit&#45;0</title>
<ellipse fill="white" stroke="white" cx="110" cy="-42" rx="85.59" ry="18"/>
<text text-anchor="middle" x="110" y="-38.3" font-family="Times-Roman" font-size="14.00">scancode://mit&#45;0</text>
</g>
</g>
</svg>
