<?xml version="1.0" encoding="UTF-8" standalone="no"?>
<!DOCTYPE svg PUBLIC "-//W3C//DTD SVG 1.1//EN"
 "http://www.w3.org/Graphics/SVG/1.1/DTD/svg11.dtd">
<!-- Generated by graphviz version 2.43.0 (0)
 -->
<!-- Title: MIT&#45;advertising Pages: 1 -->
<svg width="337pt" height="320pt"
 viewBox="0.00 0.00 336.78 320.00" xmlns="http://www.w3.org/2000/svg" xmlns:xlink="http://www.w3.org/1999/xlink">
<g id="graph0" class="graph" transform="scale(1 1) rotate(0) translate(4 316)">
<title>MIT&#45;advertising</title>
<polygon fill="white" stroke="transparent" points="-4,4 -4,-316 332.78,-316 332.78,4 -4,4"/>
<g id="clust1" class="cluster">
<title>cluster_0</title>
<polygon fill="none" stroke="black" points="8,-8 8,-304 320.78,-304 320.78,-8 8,-8"/>
</g>
<g id="clust2" class="cluster">
<title>cluster_1</title>
<polygon fill="lightgray" stroke="lightgray" points="75.79,-244 75.79,-296 252.98,-296 252.98,-244 75.79,-244"/>
</g>
<g id="clust3" class="cluster">
<title>cluster_2</title>
<polygon fill="lightgray" stroke="lightgray" points="16,-130 16,-236 312.78,-236 312.78,-130 16,-130"/>
</g>
<g id="clust4" class="cluster">
<title>cluster_3</title>
<polygon fill="lightgray" stroke="lightgray" points="16,-16 16,-122 312.78,-122 312.78,-16 16,-16"/>
</g>
<!-- MIT&#45;advertising(1) -->
<g id="node1" class="node">
<title>MIT&#45;advertising(1)</title>
<ellipse fill="springgreen" stroke="springgreen" cx="164.39" cy="-270" rx="80.69" ry="18"/>
<text text-anchor="middle" x="164.39" y="-266.3" font-family="Times-Roman" font-size="14.00">MIT&#45;advertising</text>
</g>
<!-- Enlightenment License (e16)(2) -->
<g id="node2" class="node">
<title>Enlightenment License (e16)(2)</title>
<ellipse fill="white" stroke="white" cx="164.39" cy="-210" rx="140.28" ry="18"/>
<text text-anchor="middle" x="164.39" y="-206.3" font-family="Times-Roman" font-size="14.00">Enlightenment License (e16)</text>
</g>
<!-- MIT&#45;advertising(2) -->
<g id="node3" class="node">
<title>MIT&#45;advertising(2)</title>
<ellipse fill="springgreen" stroke="springgreen" cx="164.39" cy="-156" rx="80.69" ry="18"/>
<text text-anchor="middle" x="164.39" y="-152.3" font-family="Times-Roman" font-size="14.00">MIT&#45;advertising</text>
</g>
<!-- Enlightenment License (e16)(3) -->
<g id="node4" class="node">
<title>Enlightenment License (e16)(3)</title>
<ellipse fill="white" stroke="white" cx="164.39" cy="-96" rx="140.28" ry="18"/>
<text text-anchor="middle" x="164.39" y="-92.3" font-family="Times-Roman" font-size="14.00">Enlightenment License (e16)</text>
</g>
<!-- MIT&#45;advertising(3) -->
<g id="node5" class="node">
<title>MIT&#45;advertising(3)</title>
<ellipse fill="springgreen" stroke="springgreen" cx="164.39" cy="-42" rx="80.69" ry="18"/>
<text text-anchor="middle" x="164.39" y="-38.3" font-family="Times-Roman" font-size="14.00">MIT&#45;advertising</text>
</g>
</g>
</svg>
