<?xml version="1.0" encoding="UTF-8" standalone="no"?>
<!DOCTYPE svg PUBLIC "-//W3C//DTD SVG 1.1//EN"
 "http://www.w3.org/Graphics/SVG/1.1/DTD/svg11.dtd">
<!-- Generated by graphviz version 2.43.0 (0)
 -->
<!-- Title: MIT&#45;feh Pages: 1 -->
<svg width="813pt" height="92pt"
 viewBox="0.00 0.00 813.00 92.00" xmlns="http://www.w3.org/2000/svg" xmlns:xlink="http://www.w3.org/1999/xlink">
<g id="graph0" class="graph" transform="scale(1 1) rotate(0) translate(4 88)">
<title>MIT&#45;feh</title>
<polygon fill="white" stroke="transparent" points="-4,4 -4,-88 809,-88 809,4 -4,4"/>
<g id="clust1" class="cluster">
<title>cluster_0</title>
<polygon fill="none" stroke="black" points="8,-8 8,-76 797,-76 797,-8 8,-8"/>
</g>
<g id="clust2" class="cluster">
<title>cluster_1</title>
<polygon fill="lightgray" stroke="lightgray" points="685,-16 685,-68 789,-68 789,-16 685,-16"/>
</g>
<g id="clust3" class="cluster">
<title>cluster_2</title>
<polygon fill="lightgray" stroke="lightgray" points="537,-16 537,-68 677,-68 677,-16 537,-16"/>
</g>
<g id="clust5" class="cluster">
<title>cluster_4</title>
<polygon fill="lightgray" stroke="lightgray" points="16,-16 16,-68 529,-68 529,-16 16,-16"/>
</g>
<!-- MIT&#45;feh -->
<g id="node1" class="node">
<title>MIT&#45;feh</title>
<ellipse fill="white" stroke="white" cx="737" cy="-42" rx="44.39" ry="18"/>
<text text-anchor="middle" x="737" y="-38.3" font-family="Times-Roman" font-size="14.00">MIT&#45;feh</text>
</g>
<!-- feh License -->
<g id="node2" class="node">
<title>feh License</title>
<ellipse fill="white" stroke="white" cx="607" cy="-42" rx="61.99" ry="18"/>
<text text-anchor="middle" x="607" y="-38.3" font-family="Times-Roman" font-size="14.00">feh License</text>
</g>
<!-- MIT Acknowledgment License -->
<g id="node3" class="node">
<title>MIT Acknowledgment License</title>
<ellipse fill="white" stroke="white" cx="377" cy="-42" rx="143.77" ry="18"/>
<text text-anchor="middle" x="377" y="-38.3" font-family="Times-Roman" font-size="14.00">MIT Acknowledgment License</text>
</g>
<!-- scancode://mit&#45;ack -->
<g id="node4" class="node">
<title>scancode://mit&#45;ack</title>
<ellipse fill="white" stroke="white" cx="120" cy="-42" rx="95.58" ry="18"/>
<text text-anchor="middle" x="120" y="-38.3" font-family="Times-Roman" font-size="14.00">scancode://mit&#45;ack</text>
</g>
</g>
</svg>
