<?xml version="1.0" encoding="UTF-8" standalone="no"?>
<!DOCTYPE svg PUBLIC "-//W3C//DTD SVG 1.1//EN"
 "http://www.w3.org/Graphics/SVG/1.1/DTD/svg11.dtd">
<!-- Generated by graphviz version 2.49.3 (0)
 -->
<!-- Title: MIT&#45;feh Pages: 1 -->
<svg width="300pt" height="602pt"
 viewBox="0.00 0.00 300.38 602.00" xmlns="http://www.w3.org/2000/svg" xmlns:xlink="http://www.w3.org/1999/xlink">
<g id="graph0" class="graph" transform="scale(1 1) rotate(0) translate(4 598)">
<title>MIT&#45;feh</title>
<polygon fill="white" stroke="transparent" points="-4,4 -4,-598 296.38,-598 296.38,4 -4,4"/>
<g id="clust1" class="cluster">
<title>cluster_0</title>
<polygon fill="none" stroke="black" points="8,-8 8,-586 284.38,-586 284.38,-8 8,-8"/>
</g>
<g id="clust2" class="cluster">
<title>cluster_1</title>
<polygon fill="lightgray" stroke="lightgray" points="97.24,-526 97.24,-578 195.14,-578 195.14,-526 97.24,-526"/>
</g>
<g id="clust3" class="cluster">
<title>cluster_2</title>
<polygon fill="lightgray" stroke="lightgray" points="86.19,-412 86.19,-518 206.18,-518 206.18,-412 86.19,-412"/>
</g>
<g id="clust4" class="cluster">
<title>cluster_3</title>
<polygon fill="lightgray" stroke="lightgray" points="20.55,-298 20.55,-404 271.83,-404 271.83,-298 20.55,-298"/>
</g>
<g id="clust5" class="cluster">
<title>cluster_4</title>
<polygon fill="lightgray" stroke="lightgray" points="86.19,-184 86.19,-290 206.18,-290 206.18,-184 86.19,-184"/>
</g>
<g id="clust6" class="cluster">
<title>cluster_5</title>
<polygon fill="lightgray" stroke="lightgray" points="16,-16 16,-176 276.38,-176 276.38,-16 16,-16"/>
</g>
<!-- MIT&#45;feh(1) -->
<g id="node1" class="node">
<title>MIT&#45;feh(1)</title>
<ellipse fill="springgreen" stroke="springgreen" cx="146.19" cy="-552" rx="40.89" ry="18"/>
<text text-anchor="middle" x="146.19" y="-548.3" font-family="Times,serif" font-size="14.00">MIT&#45;feh</text>
</g>
<!-- MIT&#45;feh(2) -->
<g id="node2" class="node">
<title>MIT&#45;feh(2)</title>
<ellipse fill="springgreen" stroke="springgreen" cx="146.19" cy="-492" rx="40.89" ry="18"/>
<text text-anchor="middle" x="146.19" y="-488.3" font-family="Times,serif" font-size="14.00">MIT&#45;feh</text>
</g>
<!-- feh License(2) -->
<g id="node3" class="node">
<title>feh License(2)</title>
<ellipse fill="white" stroke="white" cx="146.19" cy="-438" rx="51.99" ry="18"/>
<text text-anchor="middle" x="146.19" y="-434.3" font-family="Times,serif" font-size="14.00">feh License</text>
</g>
<!-- MIT License (feh advertising)(3) -->
<g id="node4" class="node">
<title>MIT License (feh advertising)(3)</title>
<ellipse fill="white" stroke="white" cx="146.19" cy="-378" rx="117.78" ry="18"/>
<text text-anchor="middle" x="146.19" y="-374.3" font-family="Times,serif" font-size="14.00">MIT License (feh advertising)</text>
</g>
<!-- MIT&#45;feh(3) -->
<g id="node5" class="node">
<title>MIT&#45;feh(3)</title>
<ellipse fill="springgreen" stroke="springgreen" cx="146.19" cy="-324" rx="40.89" ry="18"/>
<text text-anchor="middle" x="146.19" y="-320.3" font-family="Times,serif" font-size="14.00">MIT&#45;feh</text>
</g>
<!-- MIT&#45;feh(4) -->
<g id="node6" class="node">
<title>MIT&#45;feh(4)</title>
<ellipse fill="springgreen" stroke="springgreen" cx="146.19" cy="-264" rx="40.89" ry="18"/>
<text text-anchor="middle" x="146.19" y="-260.3" font-family="Times,serif" font-size="14.00">MIT&#45;feh</text>
</g>
<!-- feh License(4) -->
<g id="node7" class="node">
<title>feh License(4)</title>
<ellipse fill="white" stroke="white" cx="146.19" cy="-210" rx="51.99" ry="18"/>
<text text-anchor="middle" x="146.19" y="-206.3" font-family="Times,serif" font-size="14.00">feh License</text>
</g>
<!-- MIT Acknowledgment License(5) -->
<g id="node8" class="node">
<title>MIT Acknowledgment License(5)</title>
<ellipse fill="white" stroke="white" cx="146.19" cy="-150" rx="122.38" ry="18"/>
<text text-anchor="middle" x="146.19" y="-146.3" font-family="Times,serif" font-size="14.00">MIT Acknowledgment License</text>
</g>
<!-- MIT&#45;feh(5) -->
<g id="node9" class="node">
<title>MIT&#45;feh(5)</title>
<ellipse fill="springgreen" stroke="springgreen" cx="146.19" cy="-96" rx="40.89" ry="18"/>
<text text-anchor="middle" x="146.19" y="-92.3" font-family="Times,serif" font-size="14.00">MIT&#45;feh</text>
</g>
<!-- scancode://mit&#45;ack(5) -->
<g id="node10" class="node">
<title>scancode://mit&#45;ack(5)</title>
<ellipse fill="white" stroke="white" cx="146.19" cy="-42" rx="77.19" ry="18"/>
<text text-anchor="middle" x="146.19" y="-38.3" font-family="Times,serif" font-size="14.00">scancode://mit&#45;ack</text>
</g>
</g>
</svg>
