<?xml version="1.0" encoding="UTF-8" standalone="no"?>
<!DOCTYPE svg PUBLIC "-//W3C//DTD SVG 1.1//EN"
 "http://www.w3.org/Graphics/SVG/1.1/DTD/svg11.dtd">
<!-- Generated by graphviz version 2.43.0 (0)
 -->
<!-- Title: mpich2 Pages: 1 -->
<svg width="1210pt" height="115pt"
 viewBox="0.00 0.00 1210.00 115.00" xmlns="http://www.w3.org/2000/svg" xmlns:xlink="http://www.w3.org/1999/xlink">
<g id="graph0" class="graph" transform="scale(1 1) rotate(0) translate(4 111)">
<title>mpich2</title>
<polygon fill="white" stroke="transparent" points="-4,4 -4,-111 1206,-111 1206,4 -4,4"/>
<g id="clust1" class="cluster">
<title>cluster_0</title>
<polygon fill="none" stroke="black" points="8,-8 8,-99 1194,-99 1194,-8 8,-8"/>
</g>
<g id="clust2" class="cluster">
<title>cluster_1</title>
<polygon fill="lightgray" stroke="lightgray" points="1082,-16 1082,-91 1186,-91 1186,-16 1082,-16"/>
<text text-anchor="middle" x="1134" y="-75.8" font-family="Times-Roman" font-size="14.00">prev</text>
</g>
<g id="clust3" class="cluster">
<title>cluster_2</title>
<polygon fill="lightgray" stroke="lightgray" points="790,-16 790,-68 1074,-68 1074,-16 790,-16"/>
</g>
<g id="clust4" class="cluster">
<title>cluster_3</title>
<polygon fill="lightgray" stroke="lightgray" points="498,-16 498,-68 782,-68 782,-16 498,-16"/>
</g>
<g id="clust5" class="cluster">
<title>cluster_4</title>
<polygon fill="lightgray" stroke="lightgray" points="16,-16 16,-68 490,-68 490,-16 16,-16"/>
</g>
<!-- mpich2(1) -->
<g id="node1" class="node">
<title>mpich2(1)</title>
<ellipse fill="springgreen" stroke="springgreen" cx="1134" cy="-42" rx="44.39" ry="18"/>
<text text-anchor="middle" x="1134" y="-38.3" font-family="Times-Roman" font-size="14.00">mpich2</text>
</g>
<!-- mpich2(2) -->
<g id="node2" class="node">
<title>mpich2(2)</title>
<ellipse fill="springgreen" stroke="springgreen" cx="1022" cy="-42" rx="44.39" ry="18"/>
<text text-anchor="middle" x="1022" y="-38.3" font-family="Times-Roman" font-size="14.00">mpich2</text>
</g>
<!-- mpich2 License(2) -->
<g id="node3" class="node">
<title>mpich2 License(2)</title>
<ellipse fill="white" stroke="white" cx="879" cy="-42" rx="81.49" ry="18"/>
<text text-anchor="middle" x="879" y="-38.3" font-family="Times-Roman" font-size="14.00">mpich2 License</text>
</g>
<!-- mpich2(3) -->
<g id="node4" class="node">
<title>mpich2(3)</title>
<ellipse fill="springgreen" stroke="springgreen" cx="730" cy="-42" rx="44.39" ry="18"/>
<text text-anchor="middle" x="730" y="-38.3" font-family="Times-Roman" font-size="14.00">mpich2</text>
</g>
<!-- mpich2 License(3) -->
<g id="node5" class="node">
<title>mpich2 License(3)</title>
<ellipse fill="white" stroke="white" cx="587" cy="-42" rx="81.49" ry="18"/>
<text text-anchor="middle" x="587" y="-38.3" font-family="Times-Roman" font-size="14.00">mpich2 License</text>
</g>
<!-- MPICH License(4) -->
<g id="node6" class="node">
<title>MPICH License(4)</title>
<ellipse fill="white" stroke="white" cx="405" cy="-42" rx="76.89" ry="18"/>
<text text-anchor="middle" x="405" y="-38.3" font-family="Times-Roman" font-size="14.00">MPICH License</text>
</g>
<!-- mpich2(4) -->
<g id="node7" class="node">
<title>mpich2(4)</title>
<ellipse fill="springgreen" stroke="springgreen" cx="266" cy="-42" rx="44.39" ry="18"/>
<text text-anchor="middle" x="266" y="-38.3" font-family="Times-Roman" font-size="14.00">mpich2</text>
</g>
<!-- scancode://mpich(4) -->
<g id="node8" class="node">
<title>scancode://mpich(4)</title>
<ellipse fill="white" stroke="white" cx="114" cy="-42" rx="89.88" ry="18"/>
<text text-anchor="middle" x="114" y="-38.3" font-family="Times-Roman" font-size="14.00">scancode://mpich</text>
</g>
</g>
</svg>
