<?xml version="1.0" encoding="UTF-8" standalone="no"?>
<!DOCTYPE svg PUBLIC "-//W3C//DTD SVG 1.1//EN"
 "http://www.w3.org/Graphics/SVG/1.1/DTD/svg11.dtd">
<!-- Generated by graphviz version 2.43.0 (0)
 -->
<!-- Title: MPL&#45;2.0 Pages: 1 -->
<svg width="307pt" height="998pt"
 viewBox="0.00 0.00 306.88 998.00" xmlns="http://www.w3.org/2000/svg" xmlns:xlink="http://www.w3.org/1999/xlink">
<g id="graph0" class="graph" transform="scale(1 1) rotate(0) translate(4 994)">
<title>MPL&#45;2.0</title>
<polygon fill="white" stroke="transparent" points="-4,4 -4,-994 302.88,-994 302.88,4 -4,4"/>
<g id="clust1" class="cluster">
<title>cluster_0</title>
<polygon fill="none" stroke="black" points="8,-8 8,-982 290.88,-982 290.88,-8 8,-8"/>
</g>
<g id="clust2" class="cluster">
<title>cluster_1</title>
<polygon fill="lightgray" stroke="lightgray" points="94.64,-922 94.64,-974 204.23,-974 204.23,-922 94.64,-922"/>
</g>
<g id="clust3" class="cluster">
<title>cluster_2</title>
<polygon fill="lightgray" stroke="lightgray" points="16,-808 16,-914 282.88,-914 282.88,-808 16,-808"/>
</g>
<g id="clust4" class="cluster">
<title>cluster_3</title>
<polygon fill="lightgray" stroke="lightgray" points="16,-694 16,-800 282.88,-800 282.88,-694 16,-694"/>
</g>
<g id="clust5" class="cluster">
<title>cluster_4</title>
<polygon fill="lightgray" stroke="lightgray" points="44.6,-526 44.6,-686 254.28,-686 254.28,-526 44.6,-526"/>
</g>
<g id="clust6" class="cluster">
<title>cluster_5</title>
<polygon fill="lightgray" stroke="lightgray" points="94.64,-412 94.64,-518 204.23,-518 204.23,-412 94.64,-412"/>
</g>
<g id="clust7" class="cluster">
<title>cluster_6</title>
<polygon fill="lightgray" stroke="lightgray" points="16,-298 16,-404 282.88,-404 282.88,-298 16,-298"/>
</g>
<g id="clust8" class="cluster">
<title>cluster_7</title>
<polygon fill="lightgray" stroke="lightgray" points="16,-184 16,-290 282.88,-290 282.88,-184 16,-184"/>
</g>
<g id="clust9" class="cluster">
<title>cluster_8</title>
<polygon fill="lightgray" stroke="lightgray" points="16,-16 16,-176 282.88,-176 282.88,-16 16,-16"/>
</g>
<!-- MPL&#45;2.0(1) -->
<g id="node1" class="node">
<title>MPL&#45;2.0(1)</title>
<ellipse fill="springgreen" stroke="springgreen" cx="149.44" cy="-948" rx="46.59" ry="18"/>
<text text-anchor="middle" x="149.44" y="-944.3" font-family="Times-Roman" font-size="14.00">MPL&#45;2.0</text>
</g>
<!-- MPL&#45;2.0(2) -->
<g id="node2" class="node">
<title>MPL&#45;2.0(2)</title>
<ellipse fill="springgreen" stroke="springgreen" cx="149.44" cy="-888" rx="46.59" ry="18"/>
<text text-anchor="middle" x="149.44" y="-884.3" font-family="Times-Roman" font-size="14.00">MPL&#45;2.0</text>
</g>
<!-- Mozilla Public License 2.0(2) -->
<g id="node3" class="node">
<title>Mozilla Public License 2.0(2)</title>
<ellipse fill="white" stroke="white" cx="149.44" cy="-834" rx="125.38" ry="18"/>
<text text-anchor="middle" x="149.44" y="-830.3" font-family="Times-Roman" font-size="14.00">Mozilla Public License 2.0</text>
</g>
<!-- MPL&#45;2.0(3) -->
<g id="node4" class="node">
<title>MPL&#45;2.0(3)</title>
<ellipse fill="springgreen" stroke="springgreen" cx="149.44" cy="-774" rx="46.59" ry="18"/>
<text text-anchor="middle" x="149.44" y="-770.3" font-family="Times-Roman" font-size="14.00">MPL&#45;2.0</text>
</g>
<!-- Mozilla Public License 2.0(3) -->
<g id="node5" class="node">
<title>Mozilla Public License 2.0(3)</title>
<ellipse fill="white" stroke="white" cx="149.44" cy="-720" rx="125.38" ry="18"/>
<text text-anchor="middle" x="149.44" y="-716.3" font-family="Times-Roman" font-size="14.00">Mozilla Public License 2.0</text>
</g>
<!-- MPL 2.0(4) -->
<g id="node6" class="node">
<title>MPL 2.0(4)</title>
<ellipse fill="white" stroke="white" cx="149.44" cy="-660" rx="46.29" ry="18"/>
<text text-anchor="middle" x="149.44" y="-656.3" font-family="Times-Roman" font-size="14.00">MPL 2.0</text>
</g>
<!-- MPL&#45;2.0(4) -->
<g id="node7" class="node">
<title>MPL&#45;2.0(4)</title>
<ellipse fill="springgreen" stroke="springgreen" cx="149.44" cy="-606" rx="46.59" ry="18"/>
<text text-anchor="middle" x="149.44" y="-602.3" font-family="Times-Roman" font-size="14.00">MPL&#45;2.0</text>
</g>
<!-- scancode://mpl&#45;2.0(4) -->
<g id="node8" class="node">
<title>scancode://mpl&#45;2.0(4)</title>
<ellipse fill="white" stroke="white" cx="149.44" cy="-552" rx="96.68" ry="18"/>
<text text-anchor="middle" x="149.44" y="-548.3" font-family="Times-Roman" font-size="14.00">scancode://mpl&#45;2.0</text>
</g>
<!-- MPL&#45;2.0(5) -->
<g id="node9" class="node">
<title>MPL&#45;2.0(5)</title>
<ellipse fill="springgreen" stroke="springgreen" cx="149.44" cy="-492" rx="46.59" ry="18"/>
<text text-anchor="middle" x="149.44" y="-488.3" font-family="Times-Roman" font-size="14.00">MPL&#45;2.0</text>
</g>
<!-- mpl&#45;2.0(5) -->
<g id="node10" class="node">
<title>mpl&#45;2.0(5)</title>
<ellipse fill="white" stroke="white" cx="149.44" cy="-438" rx="46.29" ry="18"/>
<text text-anchor="middle" x="149.44" y="-434.3" font-family="Times-Roman" font-size="14.00">mpl&#45;2.0</text>
</g>
<!-- MPL&#45;2.0(6) -->
<g id="node11" class="node">
<title>MPL&#45;2.0(6)</title>
<ellipse fill="springgreen" stroke="springgreen" cx="149.44" cy="-378" rx="46.59" ry="18"/>
<text text-anchor="middle" x="149.44" y="-374.3" font-family="Times-Roman" font-size="14.00">MPL&#45;2.0</text>
</g>
<!-- Mozilla Public License 2.0(6) -->
<g id="node12" class="node">
<title>Mozilla Public License 2.0(6)</title>
<ellipse fill="white" stroke="white" cx="149.44" cy="-324" rx="125.38" ry="18"/>
<text text-anchor="middle" x="149.44" y="-320.3" font-family="Times-Roman" font-size="14.00">Mozilla Public License 2.0</text>
</g>
<!-- MPL&#45;2.0(7) -->
<g id="node13" class="node">
<title>MPL&#45;2.0(7)</title>
<ellipse fill="springgreen" stroke="springgreen" cx="149.44" cy="-264" rx="46.59" ry="18"/>
<text text-anchor="middle" x="149.44" y="-260.3" font-family="Times-Roman" font-size="14.00">MPL&#45;2.0</text>
</g>
<!-- Mozilla Public License 2.0(7) -->
<g id="node14" class="node">
<title>Mozilla Public License 2.0(7)</title>
<ellipse fill="white" stroke="white" cx="149.44" cy="-210" rx="125.38" ry="18"/>
<text text-anchor="middle" x="149.44" y="-206.3" font-family="Times-Roman" font-size="14.00">Mozilla Public License 2.0</text>
</g>
<!-- MPL&#45;2.0(8) -->
<g id="node15" class="node">
<title>MPL&#45;2.0(8)</title>
<ellipse fill="springgreen" stroke="springgreen" cx="149.44" cy="-150" rx="46.59" ry="18"/>
<text text-anchor="middle" x="149.44" y="-146.3" font-family="Times-Roman" font-size="14.00">MPL&#45;2.0</text>
</g>
<!-- Mozilla Public License 2.0(8) -->
<g id="node16" class="node">
<title>Mozilla Public License 2.0(8)</title>
<ellipse fill="white" stroke="white" cx="149.44" cy="-96" rx="125.38" ry="18"/>
<text text-anchor="middle" x="149.44" y="-92.3" font-family="Times-Roman" font-size="14.00">Mozilla Public License 2.0</text>
</g>
<!-- mozilla2.0(8) -->
<g id="node17" class="node">
<title>mozilla2.0(8)</title>
<ellipse fill="white" stroke="white" cx="149.44" cy="-42" rx="57.39" ry="18"/>
<text text-anchor="middle" x="149.44" y="-38.3" font-family="Times-Roman" font-size="14.00">mozilla2.0</text>
</g>
</g>
</svg>
