<?xml version="1.0" encoding="UTF-8" standalone="no"?>
<!DOCTYPE svg PUBLIC "-//W3C//DTD SVG 1.1//EN"
 "http://www.w3.org/Graphics/SVG/1.1/DTD/svg11.dtd">
<!-- Generated by graphviz version 2.43.0 (0)
 -->
<!-- Title: MPL&#45;1.1 Pages: 1 -->
<svg width="2810pt" height="92pt"
 viewBox="0.00 0.00 2810.00 92.00" xmlns="http://www.w3.org/2000/svg" xmlns:xlink="http://www.w3.org/1999/xlink">
<g id="graph0" class="graph" transform="scale(1 1) rotate(0) translate(4 88)">
<title>MPL&#45;1.1</title>
<polygon fill="white" stroke="transparent" points="-4,4 -4,-88 2806,-88 2806,4 -4,4"/>
<g id="clust1" class="cluster">
<title>cluster_0</title>
<polygon fill="none" stroke="black" points="8,-8 8,-76 2794,-76 2794,-8 8,-8"/>
</g>
<g id="clust2" class="cluster">
<title>cluster_1</title>
<polygon fill="lightgray" stroke="lightgray" points="2676,-16 2676,-68 2786,-68 2786,-16 2676,-16"/>
</g>
<g id="clust3" class="cluster">
<title>cluster_2</title>
<polygon fill="lightgray" stroke="lightgray" points="2290,-16 2290,-68 2668,-68 2668,-16 2290,-16"/>
</g>
<g id="clust4" class="cluster">
<title>cluster_3</title>
<polygon fill="lightgray" stroke="lightgray" points="1850,-16 1850,-68 2282,-68 2282,-16 1850,-16"/>
</g>
<g id="clust5" class="cluster">
<title>cluster_4</title>
<polygon fill="lightgray" stroke="lightgray" points="788,-16 788,-68 1842,-68 1842,-16 788,-16"/>
</g>
<g id="clust6" class="cluster">
<title>cluster_5</title>
<polygon fill="lightgray" stroke="lightgray" points="402,-16 402,-68 780,-68 780,-16 402,-16"/>
</g>
<g id="clust7" class="cluster">
<title>cluster_6</title>
<polygon fill="lightgray" stroke="lightgray" points="16,-16 16,-68 394,-68 394,-16 16,-16"/>
</g>
<!-- MPL&#45;1.1(1) -->
<g id="node1" class="node">
<title>MPL&#45;1.1(1)</title>
<ellipse fill="springgreen" stroke="springgreen" cx="2731" cy="-42" rx="46.59" ry="18"/>
<text text-anchor="middle" x="2731" y="-38.3" font-family="Times-Roman" font-size="14.00">MPL&#45;1.1</text>
</g>
<!-- MPL&#45;1.1(2) -->
<g id="node2" class="node">
<title>MPL&#45;1.1(2)</title>
<ellipse fill="springgreen" stroke="springgreen" cx="2613" cy="-42" rx="46.59" ry="18"/>
<text text-anchor="middle" x="2613" y="-38.3" font-family="Times-Roman" font-size="14.00">MPL&#45;1.1</text>
</g>
<!-- Mozilla Public License 1.1(2) -->
<g id="node3" class="node">
<title>Mozilla Public License 1.1(2)</title>
<ellipse fill="white" stroke="white" cx="2423" cy="-42" rx="125.38" ry="18"/>
<text text-anchor="middle" x="2423" y="-38.3" font-family="Times-Roman" font-size="14.00">Mozilla Public License 1.1</text>
</g>
<!-- MPL 1.1(3) -->
<g id="node4" class="node">
<title>MPL 1.1(3)</title>
<ellipse fill="white" stroke="white" cx="2228" cy="-42" rx="46.29" ry="18"/>
<text text-anchor="middle" x="2228" y="-38.3" font-family="Times-Roman" font-size="14.00">MPL 1.1</text>
</g>
<!-- MPL&#45;1.1(3) -->
<g id="node5" class="node">
<title>MPL&#45;1.1(3)</title>
<ellipse fill="springgreen" stroke="springgreen" cx="2117" cy="-42" rx="46.59" ry="18"/>
<text text-anchor="middle" x="2117" y="-38.3" font-family="Times-Roman" font-size="14.00">MPL&#45;1.1</text>
</g>
<!-- scancode://mpl&#45;1.1(3) -->
<g id="node6" class="node">
<title>scancode://mpl&#45;1.1(3)</title>
<ellipse fill="white" stroke="white" cx="1955" cy="-42" rx="96.68" ry="18"/>
<text text-anchor="middle" x="1955" y="-38.3" font-family="Times-Roman" font-size="14.00">scancode://mpl&#45;1.1</text>
</g>
<!-- License :: OSI Approved :: Mozilla Public License 1.1 (MPL 1.1)(4) -->
<g id="node7" class="node">
<title>License :: OSI Approved :: Mozilla Public License 1.1 (MPL 1.1)(4)</title>
<ellipse fill="white" stroke="white" cx="1544" cy="-42" rx="289.75" ry="18"/>
<text text-anchor="middle" x="1544" y="-38.3" font-family="Times-Roman" font-size="14.00">License :: OSI Approved :: Mozilla Public License 1.1 (MPL 1.1)</text>
</g>
<!-- MPL&#45;1.1(4) -->
<g id="node8" class="node">
<title>MPL&#45;1.1(4)</title>
<ellipse fill="springgreen" stroke="springgreen" cx="1189" cy="-42" rx="46.59" ry="18"/>
<text text-anchor="middle" x="1189" y="-38.3" font-family="Times-Roman" font-size="14.00">MPL&#45;1.1</text>
</g>
<!-- Mozilla Public License, Version 1.1(4) -->
<g id="node9" class="node">
<title>Mozilla Public License, Version 1.1(4)</title>
<ellipse fill="white" stroke="white" cx="960" cy="-42" rx="164.37" ry="18"/>
<text text-anchor="middle" x="960" y="-38.3" font-family="Times-Roman" font-size="14.00">Mozilla Public License, Version 1.1</text>
</g>
<!-- MPL&#45;1.1(5) -->
<g id="node10" class="node">
<title>MPL&#45;1.1(5)</title>
<ellipse fill="springgreen" stroke="springgreen" cx="725" cy="-42" rx="46.59" ry="18"/>
<text text-anchor="middle" x="725" y="-38.3" font-family="Times-Roman" font-size="14.00">MPL&#45;1.1</text>
</g>
<!-- Mozilla Public License 1.1(5) -->
<g id="node11" class="node">
<title>Mozilla Public License 1.1(5)</title>
<ellipse fill="white" stroke="white" cx="535" cy="-42" rx="125.38" ry="18"/>
<text text-anchor="middle" x="535" y="-38.3" font-family="Times-Roman" font-size="14.00">Mozilla Public License 1.1</text>
</g>
<!-- MPL&#45;1.1(6) -->
<g id="node12" class="node">
<title>MPL&#45;1.1(6)</title>
<ellipse fill="springgreen" stroke="springgreen" cx="339" cy="-42" rx="46.59" ry="18"/>
<text text-anchor="middle" x="339" y="-38.3" font-family="Times-Roman" font-size="14.00">MPL&#45;1.1</text>
</g>
<!-- Mozilla Public License 1.1(6) -->
<g id="node13" class="node">
<title>Mozilla Public License 1.1(6)</title>
<ellipse fill="white" stroke="white" cx="149" cy="-42" rx="125.38" ry="18"/>
<text text-anchor="middle" x="149" y="-38.3" font-family="Times-Roman" font-size="14.00">Mozilla Public License 1.1</text>
</g>
</g>
</svg>
