<?xml version="1.0" encoding="UTF-8" standalone="no"?>
<!DOCTYPE svg PUBLIC "-//W3C//DTD SVG 1.1//EN"
 "http://www.w3.org/Graphics/SVG/1.1/DTD/svg11.dtd">
<!-- Generated by graphviz version 2.43.0 (0)
 -->
<!-- Title: MS&#45;PL Pages: 1 -->
<svg width="4022pt" height="114pt"
 viewBox="0.00 0.00 4022.00 114.43" xmlns="http://www.w3.org/2000/svg" xmlns:xlink="http://www.w3.org/1999/xlink">
<g id="graph0" class="graph" transform="scale(1 1) rotate(0) translate(4 110.43)">
<title>MS&#45;PL</title>
<polygon fill="white" stroke="transparent" points="-4,4 -4,-110.43 4018,-110.43 4018,4 -4,4"/>
<g id="clust1" class="cluster">
<title>cluster_0</title>
<polygon fill="none" stroke="black" points="8,-8 8,-98.43 4006,-98.43 4006,-8 8,-8"/>
</g>
<g id="clust2" class="cluster">
<title>cluster_1</title>
<polygon fill="none" stroke="black" points="384,-16 384,-90.43 3998,-90.43 3998,-16 384,-16"/>
</g>
<g id="clust3" class="cluster">
<title>cluster_2</title>
<polygon fill="lightgray" stroke="lightgray" points="3826,-24 3826,-82.43 3990,-82.43 3990,-24 3826,-24"/>
</g>
<g id="clust4" class="cluster">
<title>cluster_3</title>
<polygon fill="lightgray" stroke="lightgray" points="3376,-24 3376,-82.43 3818,-82.43 3818,-24 3376,-24"/>
</g>
<g id="clust5" class="cluster">
<title>cluster_4</title>
<polygon fill="lightgray" stroke="lightgray" points="2926,-24 2926,-82.43 3368,-82.43 3368,-24 2926,-24"/>
</g>
<g id="clust6" class="cluster">
<title>cluster_5</title>
<polygon fill="lightgray" stroke="lightgray" points="2536,-24 2536,-82.43 2918,-82.43 2918,-24 2536,-24"/>
</g>
<g id="clust7" class="cluster">
<title>cluster_6</title>
<polygon fill="lightgray" stroke="lightgray" points="2248,-24 2248,-82.43 2528,-82.43 2528,-24 2248,-24"/>
</g>
<g id="clust8" class="cluster">
<title>cluster_7</title>
<polygon fill="lightgray" stroke="lightgray" points="1724,-24 1724,-82.43 2240,-82.43 2240,-24 1724,-24"/>
</g>
<g id="clust9" class="cluster">
<title>cluster_8</title>
<polygon fill="lightgray" stroke="lightgray" points="1322,-27.21 1322,-79.21 1716,-79.21 1716,-27.21 1322,-27.21"/>
</g>
<g id="clust10" class="cluster">
<title>cluster_9</title>
<polygon fill="lightgray" stroke="lightgray" points="872,-24 872,-82.43 1314,-82.43 1314,-24 872,-24"/>
</g>
<g id="clust11" class="cluster">
<title>cluster_10</title>
<polygon fill="lightgray" stroke="lightgray" points="392,-24 392,-82.43 864,-82.43 864,-24 392,-24"/>
</g>
<g id="clust12" class="cluster">
<title>cluster_11</title>
<polygon fill="lightgray" stroke="lightgray" points="16,-27.21 16,-79.21 376,-79.21 376,-27.21 16,-27.21"/>
</g>
<!-- MS&#45;PL(2) -->
<g id="node1" class="node">
<title>MS&#45;PL(2)</title>
<ellipse fill="springgreen" stroke="springgreen" cx="3908" cy="-53.21" rx="74.49" ry="21.43"/>
<text text-anchor="middle" x="3908" y="-48.21" font-family="Times-Roman" font-size="20.00">MS&#45;PL(2)</text>
</g>
<!-- MS&#45;PL(3) -->
<g id="node2" class="node">
<title>MS&#45;PL(3)</title>
<ellipse fill="springgreen" stroke="springgreen" cx="3736" cy="-53.21" rx="74.49" ry="21.43"/>
<text text-anchor="middle" x="3736" y="-48.21" font-family="Times-Roman" font-size="20.00">MS&#45;PL(3)</text>
</g>
<!-- Microsoft Public License(3) -->
<g id="node3" class="node">
<title>Microsoft Public License(3)</title>
<ellipse fill="white" stroke="white" cx="3514" cy="-53.21" rx="129.98" ry="18"/>
<text text-anchor="middle" x="3514" y="-49.51" font-family="Times-Roman" font-size="14.00">Microsoft Public License(3)</text>
</g>
<!-- MS&#45;PL(4) -->
<g id="node4" class="node">
<title>MS&#45;PL(4)</title>
<ellipse fill="springgreen" stroke="springgreen" cx="3286" cy="-53.21" rx="74.49" ry="21.43"/>
<text text-anchor="middle" x="3286" y="-48.21" font-family="Times-Roman" font-size="20.00">MS&#45;PL(4)</text>
</g>
<!-- Microsoft Public License(4) -->
<g id="node5" class="node">
<title>Microsoft Public License(4)</title>
<ellipse fill="white" stroke="white" cx="3064" cy="-53.21" rx="129.98" ry="18"/>
<text text-anchor="middle" x="3064" y="-49.51" font-family="Times-Roman" font-size="14.00">Microsoft Public License(4)</text>
</g>
<!-- MS&#45;PL(5) -->
<g id="node6" class="node">
<title>MS&#45;PL(5)</title>
<ellipse fill="springgreen" stroke="springgreen" cx="2836" cy="-53.21" rx="74.49" ry="21.43"/>
<text text-anchor="middle" x="2836" y="-48.21" font-family="Times-Roman" font-size="20.00">MS&#45;PL(5)</text>
</g>
<!-- scancode://ms&#45;pl(5) -->
<g id="node7" class="node">
<title>scancode://ms&#45;pl(5)</title>
<ellipse fill="white" stroke="white" cx="2644" cy="-53.21" rx="100.18" ry="18"/>
<text text-anchor="middle" x="2644" y="-49.51" font-family="Times-Roman" font-size="14.00">scancode://ms&#45;pl(5)</text>
</g>
<!-- MS&#45;PL(6) -->
<g id="node8" class="node">
<title>MS&#45;PL(6)</title>
<ellipse fill="springgreen" stroke="springgreen" cx="2446" cy="-53.21" rx="74.49" ry="21.43"/>
<text text-anchor="middle" x="2446" y="-48.21" font-family="Times-Roman" font-size="20.00">MS&#45;PL(6)</text>
</g>
<!-- ms&#45;pl(6) -->
<g id="node9" class="node">
<title>ms&#45;pl(6)</title>
<ellipse fill="white" stroke="white" cx="2305" cy="-53.21" rx="48.99" ry="18"/>
<text text-anchor="middle" x="2305" y="-49.51" font-family="Times-Roman" font-size="14.00">ms&#45;pl(6)</text>
</g>
<!-- MS&#45;PL(7) -->
<g id="node10" class="node">
<title>MS&#45;PL(7)</title>
<ellipse fill="springgreen" stroke="springgreen" cx="2158" cy="-53.21" rx="74.49" ry="21.43"/>
<text text-anchor="middle" x="2158" y="-48.21" font-family="Times-Roman" font-size="20.00">MS&#45;PL(7)</text>
</g>
<!-- Microsoft Public License (MS&#45;PL)(7) -->
<g id="node11" class="node">
<title>Microsoft Public License (MS&#45;PL)(7)</title>
<ellipse fill="white" stroke="white" cx="1899" cy="-53.21" rx="167.07" ry="18"/>
<text text-anchor="middle" x="1899" y="-49.51" font-family="Times-Roman" font-size="14.00">Microsoft Public License (MS&#45;PL)(7)</text>
</g>
<!-- Microsoft Public License(8) -->
<g id="node12" class="node">
<title>Microsoft Public License(8)</title>
<ellipse fill="white" stroke="white" cx="1578" cy="-53.21" rx="129.98" ry="18"/>
<text text-anchor="middle" x="1578" y="-49.51" font-family="Times-Roman" font-size="14.00">Microsoft Public License(8)</text>
</g>
<!-- Ms&#45;PL(8) -->
<g id="node13" class="node">
<title>Ms&#45;PL(8)</title>
<ellipse fill="white" stroke="white" cx="1380" cy="-53.21" rx="50.09" ry="18"/>
<text text-anchor="middle" x="1380" y="-49.51" font-family="Times-Roman" font-size="14.00">Ms&#45;PL(8)</text>
</g>
<!-- MS&#45;PL(9) -->
<g id="node14" class="node">
<title>MS&#45;PL(9)</title>
<ellipse fill="springgreen" stroke="springgreen" cx="1232" cy="-53.21" rx="74.49" ry="21.43"/>
<text text-anchor="middle" x="1232" y="-48.21" font-family="Times-Roman" font-size="20.00">MS&#45;PL(9)</text>
</g>
<!-- Microsoft Public License(9) -->
<g id="node15" class="node">
<title>Microsoft Public License(9)</title>
<ellipse fill="white" stroke="white" cx="1010" cy="-53.21" rx="129.98" ry="18"/>
<text text-anchor="middle" x="1010" y="-49.51" font-family="Times-Roman" font-size="14.00">Microsoft Public License(9)</text>
</g>
<!-- MS&#45;PL(10) -->
<g id="node16" class="node">
<title>MS&#45;PL(10)</title>
<ellipse fill="springgreen" stroke="springgreen" cx="773" cy="-53.21" rx="83.38" ry="21.43"/>
<text text-anchor="middle" x="773" y="-48.21" font-family="Times-Roman" font-size="20.00">MS&#45;PL(10)</text>
</g>
<!-- Microsoft Public License(10) -->
<g id="node17" class="node">
<title>Microsoft Public License(10)</title>
<ellipse fill="white" stroke="white" cx="536" cy="-53.21" rx="135.68" ry="18"/>
<text text-anchor="middle" x="536" y="-49.51" font-family="Times-Roman" font-size="14.00">Microsoft Public License(10)</text>
</g>
<!-- Microsoft Public License (Ms&#45;PL)(11) -->
<g id="node18" class="node">
<title>Microsoft Public License (Ms&#45;PL)(11)</title>
<ellipse fill="white" stroke="white" cx="196" cy="-53.21" rx="172.47" ry="18"/>
<text text-anchor="middle" x="196" y="-49.51" font-family="Times-Roman" font-size="14.00">Microsoft Public License (Ms&#45;PL)(11)</text>
</g>
</g>
</svg>
