<?xml version="1.0" encoding="UTF-8" standalone="no"?>
<!DOCTYPE svg PUBLIC "-//W3C//DTD SVG 1.1//EN"
 "http://www.w3.org/Graphics/SVG/1.1/DTD/svg11.dtd">
<!-- Generated by graphviz version 2.43.0 (0)
 -->
<!-- Title: MS&#45;PL Pages: 1 -->
<svg width="291pt" height="890pt"
 viewBox="0.00 0.00 291.28 890.00" xmlns="http://www.w3.org/2000/svg" xmlns:xlink="http://www.w3.org/1999/xlink">
<g id="graph0" class="graph" transform="scale(1 1) rotate(0) translate(4 886)">
<title>MS&#45;PL</title>
<polygon fill="white" stroke="transparent" points="-4,4 -4,-886 287.28,-886 287.28,4 -4,4"/>
<g id="clust1" class="cluster">
<title>cluster_0</title>
<polygon fill="none" stroke="black" points="8,-8 8,-874 275.28,-874 275.28,-8 8,-8"/>
</g>
<g id="clust2" class="cluster">
<title>cluster_1</title>
<polygon fill="lightgray" stroke="lightgray" points="95.29,-814 95.29,-866 187.99,-866 187.99,-814 95.29,-814"/>
</g>
<g id="clust3" class="cluster">
<title>cluster_2</title>
<polygon fill="lightgray" stroke="lightgray" points="16,-700 16,-806 267.28,-806 267.28,-700 16,-700"/>
</g>
<g id="clust4" class="cluster">
<title>cluster_3</title>
<polygon fill="lightgray" stroke="lightgray" points="16,-586 16,-692 267.28,-692 267.28,-586 16,-586"/>
</g>
<g id="clust5" class="cluster">
<title>cluster_4</title>
<polygon fill="lightgray" stroke="lightgray" points="46.55,-472 46.55,-578 236.73,-578 236.73,-472 46.55,-472"/>
</g>
<g id="clust6" class="cluster">
<title>cluster_5</title>
<polygon fill="lightgray" stroke="lightgray" points="95.29,-358 95.29,-464 187.99,-464 187.99,-358 95.29,-358"/>
</g>
<g id="clust7" class="cluster">
<title>cluster_6</title>
<polygon fill="lightgray" stroke="lightgray" points="16,-244 16,-350 267.28,-350 267.28,-244 16,-244"/>
</g>
<g id="clust8" class="cluster">
<title>cluster_7</title>
<polygon fill="lightgray" stroke="lightgray" points="16,-130 16,-236 267.28,-236 267.28,-130 16,-130"/>
</g>
<g id="clust9" class="cluster">
<title>cluster_8</title>
<polygon fill="lightgray" stroke="lightgray" points="16,-16 16,-122 267.28,-122 267.28,-16 16,-16"/>
</g>
<!-- MS&#45;PL(1) -->
<g id="node1" class="node">
<title>MS&#45;PL(1)</title>
<ellipse fill="springgreen" stroke="springgreen" cx="141.64" cy="-840" rx="38.19" ry="18"/>
<text text-anchor="middle" x="141.64" y="-836.3" font-family="Times-Roman" font-size="14.00">MS&#45;PL</text>
</g>
<!-- MS&#45;PL(2) -->
<g id="node2" class="node">
<title>MS&#45;PL(2)</title>
<ellipse fill="springgreen" stroke="springgreen" cx="141.64" cy="-780" rx="38.19" ry="18"/>
<text text-anchor="middle" x="141.64" y="-776.3" font-family="Times-Roman" font-size="14.00">MS&#45;PL</text>
</g>
<!-- Microsoft Public License(2) -->
<g id="node3" class="node">
<title>Microsoft Public License(2)</title>
<ellipse fill="white" stroke="white" cx="141.64" cy="-726" rx="117.78" ry="18"/>
<text text-anchor="middle" x="141.64" y="-722.3" font-family="Times-Roman" font-size="14.00">Microsoft Public License</text>
</g>
<!-- MS&#45;PL(3) -->
<g id="node4" class="node">
<title>MS&#45;PL(3)</title>
<ellipse fill="springgreen" stroke="springgreen" cx="141.64" cy="-666" rx="38.19" ry="18"/>
<text text-anchor="middle" x="141.64" y="-662.3" font-family="Times-Roman" font-size="14.00">MS&#45;PL</text>
</g>
<!-- Microsoft Public License(3) -->
<g id="node5" class="node">
<title>Microsoft Public License(3)</title>
<ellipse fill="white" stroke="white" cx="141.64" cy="-612" rx="117.78" ry="18"/>
<text text-anchor="middle" x="141.64" y="-608.3" font-family="Times-Roman" font-size="14.00">Microsoft Public License</text>
</g>
<!-- MS&#45;PL(4) -->
<g id="node6" class="node">
<title>MS&#45;PL(4)</title>
<ellipse fill="springgreen" stroke="springgreen" cx="141.64" cy="-552" rx="38.19" ry="18"/>
<text text-anchor="middle" x="141.64" y="-548.3" font-family="Times-Roman" font-size="14.00">MS&#45;PL</text>
</g>
<!-- scancode://ms&#45;pl(4) -->
<g id="node7" class="node">
<title>scancode://ms&#45;pl(4)</title>
<ellipse fill="white" stroke="white" cx="141.64" cy="-498" rx="87.18" ry="18"/>
<text text-anchor="middle" x="141.64" y="-494.3" font-family="Times-Roman" font-size="14.00">scancode://ms&#45;pl</text>
</g>
<!-- MS&#45;PL(5) -->
<g id="node8" class="node">
<title>MS&#45;PL(5)</title>
<ellipse fill="springgreen" stroke="springgreen" cx="141.64" cy="-438" rx="38.19" ry="18"/>
<text text-anchor="middle" x="141.64" y="-434.3" font-family="Times-Roman" font-size="14.00">MS&#45;PL</text>
</g>
<!-- ms&#45;pl(5) -->
<g id="node9" class="node">
<title>ms&#45;pl(5)</title>
<ellipse fill="white" stroke="white" cx="141.64" cy="-384" rx="36.29" ry="18"/>
<text text-anchor="middle" x="141.64" y="-380.3" font-family="Times-Roman" font-size="14.00">ms&#45;pl</text>
</g>
<!-- Microsoft Public License(6) -->
<g id="node10" class="node">
<title>Microsoft Public License(6)</title>
<ellipse fill="white" stroke="white" cx="141.64" cy="-324" rx="117.78" ry="18"/>
<text text-anchor="middle" x="141.64" y="-320.3" font-family="Times-Roman" font-size="14.00">Microsoft Public License</text>
</g>
<!-- Ms&#45;PL(6) -->
<g id="node11" class="node">
<title>Ms&#45;PL(6)</title>
<ellipse fill="white" stroke="white" cx="141.64" cy="-270" rx="37.09" ry="18"/>
<text text-anchor="middle" x="141.64" y="-266.3" font-family="Times-Roman" font-size="14.00">Ms&#45;PL</text>
</g>
<!-- MS&#45;PL(7) -->
<g id="node12" class="node">
<title>MS&#45;PL(7)</title>
<ellipse fill="springgreen" stroke="springgreen" cx="141.64" cy="-210" rx="38.19" ry="18"/>
<text text-anchor="middle" x="141.64" y="-206.3" font-family="Times-Roman" font-size="14.00">MS&#45;PL</text>
</g>
<!-- Microsoft Public License(7) -->
<g id="node13" class="node">
<title>Microsoft Public License(7)</title>
<ellipse fill="white" stroke="white" cx="141.64" cy="-156" rx="117.78" ry="18"/>
<text text-anchor="middle" x="141.64" y="-152.3" font-family="Times-Roman" font-size="14.00">Microsoft Public License</text>
</g>
<!-- MS&#45;PL(8) -->
<g id="node14" class="node">
<title>MS&#45;PL(8)</title>
<ellipse fill="springgreen" stroke="springgreen" cx="141.64" cy="-96" rx="38.19" ry="18"/>
<text text-anchor="middle" x="141.64" y="-92.3" font-family="Times-Roman" font-size="14.00">MS&#45;PL</text>
</g>
<!-- Microsoft Public License(8) -->
<g id="node15" class="node">
<title>Microsoft Public License(8)</title>
<ellipse fill="white" stroke="white" cx="141.64" cy="-42" rx="117.78" ry="18"/>
<text text-anchor="middle" x="141.64" y="-38.3" font-family="Times-Roman" font-size="14.00">Microsoft Public License</text>
</g>
</g>
</svg>
