<?xml version="1.0" encoding="UTF-8" standalone="no"?>
<!DOCTYPE svg PUBLIC "-//W3C//DTD SVG 1.1//EN"
 "http://www.w3.org/Graphics/SVG/1.1/DTD/svg11.dtd">
<!-- Generated by graphviz version 7.0.0 (0)
 -->
<!-- Title: MTLL Pages: 1 -->
<svg width="315pt" height="488pt"
 viewBox="0.00 0.00 314.68 488.00" xmlns="http://www.w3.org/2000/svg" xmlns:xlink="http://www.w3.org/1999/xlink">
<g id="graph0" class="graph" transform="scale(1 1) rotate(0) translate(4 484)">
<title>MTLL</title>
<polygon fill="white" stroke="none" points="-4,4 -4,-484 310.68,-484 310.68,4 -4,4"/>
<g id="clust1" class="cluster">
<title>cluster_0</title>
<polygon fill="none" stroke="black" points="8,-8 8,-472 298.68,-472 298.68,-8 8,-8"/>
</g>
<g id="clust2" class="cluster">
<title>cluster_1</title>
<polygon fill="lightgray" stroke="lightgray" points="110.24,-412 110.24,-464 196.44,-464 196.44,-412 110.24,-412"/>
</g>
<g id="clust3" class="cluster">
<title>cluster_2</title>
<polygon fill="lightgray" stroke="lightgray" points="16,-298 16,-404 290.68,-404 290.68,-298 16,-298"/>
</g>
<g id="clust4" class="cluster">
<title>cluster_3</title>
<polygon fill="lightgray" stroke="lightgray" points="16,-184 16,-290 290.68,-290 290.68,-184 16,-184"/>
</g>
<g id="clust5" class="cluster">
<title>cluster_4</title>
<polygon fill="lightgray" stroke="lightgray" points="16,-16 16,-176 290.68,-176 290.68,-16 16,-16"/>
</g>
<!-- MTLL(1) -->
<g id="node1" class="node">
<title>MTLL(1)</title>
<ellipse fill="springgreen" stroke="springgreen" cx="153.34" cy="-438" rx="35.19" ry="18"/>
<text text-anchor="middle" x="153.34" y="-434.3" font-family="Times,serif" font-size="14.00">MTLL</text>
</g>
<!-- MTLL(2) -->
<g id="node2" class="node">
<title>MTLL(2)</title>
<ellipse fill="springgreen" stroke="springgreen" cx="153.34" cy="-378" rx="35.19" ry="18"/>
<text text-anchor="middle" x="153.34" y="-374.3" font-family="Times,serif" font-size="14.00">MTLL</text>
</g>
<!-- Matrix Template Library License(2) -->
<g id="node3" class="node">
<title>Matrix Template Library License(2)</title>
<ellipse fill="white" stroke="white" cx="153.34" cy="-324" rx="129.18" ry="18"/>
<text text-anchor="middle" x="153.34" y="-320.3" font-family="Times,serif" font-size="14.00">Matrix Template Library License</text>
</g>
<!-- MTLL(3) -->
<g id="node4" class="node">
<title>MTLL(3)</title>
<ellipse fill="springgreen" stroke="springgreen" cx="153.34" cy="-264" rx="35.19" ry="18"/>
<text text-anchor="middle" x="153.34" y="-260.3" font-family="Times,serif" font-size="14.00">MTLL</text>
</g>
<!-- Matrix Template Library License(3) -->
<g id="node5" class="node">
<title>Matrix Template Library License(3)</title>
<ellipse fill="white" stroke="white" cx="153.34" cy="-210" rx="129.18" ry="18"/>
<text text-anchor="middle" x="153.34" y="-206.3" font-family="Times,serif" font-size="14.00">Matrix Template Library License</text>
</g>
<!-- MTLL(4) -->
<g id="node6" class="node">
<title>MTLL(4)</title>
<ellipse fill="springgreen" stroke="springgreen" cx="153.34" cy="-150" rx="35.19" ry="18"/>
<text text-anchor="middle" x="153.34" y="-146.3" font-family="Times,serif" font-size="14.00">MTLL</text>
</g>
<!-- Matrix Template Library License(4) -->
<g id="node7" class="node">
<title>Matrix Template Library License(4)</title>
<ellipse fill="white" stroke="white" cx="153.34" cy="-96" rx="129.18" ry="18"/>
<text text-anchor="middle" x="153.34" y="-92.3" font-family="Times,serif" font-size="14.00">Matrix Template Library License</text>
</g>
<!-- scancode://mtll(4) -->
<g id="node8" class="node">
<title>scancode://mtll(4)</title>
<ellipse fill="white" stroke="white" cx="153.34" cy="-42" rx="64.99" ry="18"/>
<text text-anchor="middle" x="153.34" y="-38.3" font-family="Times,serif" font-size="14.00">scancode://mtll</text>
</g>
</g>
</svg>
