<?xml version="1.0" encoding="UTF-8" standalone="no"?>
<!DOCTYPE svg PUBLIC "-//W3C//DTD SVG 1.1//EN"
 "http://www.w3.org/Graphics/SVG/1.1/DTD/svg11.dtd">
<!-- Generated by graphviz version 2.43.0 (0)
 -->
<!-- Title: MulanPSL&#45;1.0 Pages: 1 -->
<svg width="488pt" height="374pt"
 viewBox="0.00 0.00 487.56 374.00" xmlns="http://www.w3.org/2000/svg" xmlns:xlink="http://www.w3.org/1999/xlink">
<g id="graph0" class="graph" transform="scale(1 1) rotate(0) translate(4 370)">
<title>MulanPSL&#45;1.0</title>
<polygon fill="white" stroke="transparent" points="-4,4 -4,-370 483.56,-370 483.56,4 -4,4"/>
<g id="clust1" class="cluster">
<title>cluster_0</title>
<polygon fill="none" stroke="black" points="8,-8 8,-358 471.56,-358 471.56,-8 8,-8"/>
</g>
<g id="clust2" class="cluster">
<title>cluster_1</title>
<polygon fill="lightgray" stroke="lightgray" points="159.64,-298 159.64,-350 319.92,-350 319.92,-298 159.64,-298"/>
</g>
<g id="clust3" class="cluster">
<title>cluster_2</title>
<polygon fill="lightgray" stroke="lightgray" points="16,-184 16,-290 463.56,-290 463.56,-184 16,-184"/>
</g>
<g id="clust4" class="cluster">
<title>cluster_3</title>
<polygon fill="lightgray" stroke="lightgray" points="110.24,-16 110.24,-176 369.32,-176 369.32,-16 110.24,-16"/>
</g>
<!-- MulanPSL&#45;1.0(1) -->
<g id="node1" class="node">
<title>MulanPSL&#45;1.0(1)</title>
<ellipse fill="springgreen" stroke="springgreen" cx="239.78" cy="-324" rx="72.29" ry="18"/>
<text text-anchor="middle" x="239.78" y="-320.3" font-family="Times-Roman" font-size="14.00">MulanPSL&#45;1.0</text>
</g>
<!-- Mulan Permissive Software License, Version 1(2) -->
<g id="node2" class="node">
<title>Mulan Permissive Software License, Version 1(2)</title>
<ellipse fill="white" stroke="white" cx="239.78" cy="-264" rx="215.56" ry="18"/>
<text text-anchor="middle" x="239.78" y="-260.3" font-family="Times-Roman" font-size="14.00">Mulan Permissive Software License, Version 1</text>
</g>
<!-- MulanPSL&#45;1.0(2) -->
<g id="node3" class="node">
<title>MulanPSL&#45;1.0(2)</title>
<ellipse fill="springgreen" stroke="springgreen" cx="239.78" cy="-210" rx="72.29" ry="18"/>
<text text-anchor="middle" x="239.78" y="-206.3" font-family="Times-Roman" font-size="14.00">MulanPSL&#45;1.0</text>
</g>
<!-- Mulan PSL v1(3) -->
<g id="node4" class="node">
<title>Mulan PSL v1(3)</title>
<ellipse fill="white" stroke="white" cx="239.78" cy="-150" rx="71.49" ry="18"/>
<text text-anchor="middle" x="239.78" y="-146.3" font-family="Times-Roman" font-size="14.00">Mulan PSL v1</text>
</g>
<!-- MulanPSL&#45;1.0(3) -->
<g id="node5" class="node">
<title>MulanPSL&#45;1.0(3)</title>
<ellipse fill="springgreen" stroke="springgreen" cx="239.78" cy="-96" rx="72.29" ry="18"/>
<text text-anchor="middle" x="239.78" y="-92.3" font-family="Times-Roman" font-size="14.00">MulanPSL&#45;1.0</text>
</g>
<!-- scancode://mulanpsl&#45;1.0(3) -->
<g id="node6" class="node">
<title>scancode://mulanpsl&#45;1.0(3)</title>
<ellipse fill="white" stroke="white" cx="239.78" cy="-42" rx="121.58" ry="18"/>
<text text-anchor="middle" x="239.78" y="-38.3" font-family="Times-Roman" font-size="14.00">scancode://mulanpsl&#45;1.0</text>
</g>
</g>
</svg>
