<?xml version="1.0" encoding="UTF-8" standalone="no"?>
<!DOCTYPE svg PUBLIC "-//W3C//DTD SVG 1.1//EN"
 "http://www.w3.org/Graphics/SVG/1.1/DTD/svg11.dtd">
<!-- Generated by graphviz version 2.43.0 (0)
 -->
<!-- Title: Multics Pages: 1 -->
<svg width="2385pt" height="98pt"
 viewBox="0.00 0.00 2385.00 98.43" xmlns="http://www.w3.org/2000/svg" xmlns:xlink="http://www.w3.org/1999/xlink">
<g id="graph0" class="graph" transform="scale(1 1) rotate(0) translate(4 94.43)">
<title>Multics</title>
<polygon fill="white" stroke="transparent" points="-4,4 -4,-94.43 2381,-94.43 2381,4 -4,4"/>
<g id="clust1" class="cluster">
<title>cluster_0</title>
<polygon fill="none" stroke="black" points="8,-8 8,-82.43 2369,-82.43 2369,-8 8,-8"/>
</g>
<g id="clust2" class="cluster">
<title>cluster_1</title>
<polygon fill="lightgray" stroke="lightgray" points="2183,-16 2183,-74.43 2361,-74.43 2361,-16 2183,-16"/>
</g>
<g id="clust3" class="cluster">
<title>cluster_2</title>
<polygon fill="lightgray" stroke="lightgray" points="1796,-16 1796,-74.43 2175,-74.43 2175,-16 1796,-16"/>
</g>
<g id="clust4" class="cluster">
<title>cluster_3</title>
<polygon fill="lightgray" stroke="lightgray" points="1409,-16 1409,-74.43 1788,-74.43 1788,-16 1409,-16"/>
</g>
<g id="clust5" class="cluster">
<title>cluster_4</title>
<polygon fill="lightgray" stroke="lightgray" points="790,-16 790,-74.43 1401,-74.43 1401,-16 790,-16"/>
</g>
<g id="clust6" class="cluster">
<title>cluster_5</title>
<polygon fill="lightgray" stroke="lightgray" points="403,-16 403,-74.43 782,-74.43 782,-16 403,-16"/>
</g>
<g id="clust7" class="cluster">
<title>cluster_6</title>
<polygon fill="lightgray" stroke="lightgray" points="16,-16 16,-74.43 395,-74.43 395,-16 16,-16"/>
</g>
<!-- Multics(1) -->
<g id="node1" class="node">
<title>Multics(1)</title>
<ellipse fill="springgreen" stroke="springgreen" cx="2272" cy="-45.21" rx="80.72" ry="21.43"/>
<text text-anchor="middle" x="2272" y="-40.21" font-family="Times-Roman" font-size="20.00">Multics(1)</text>
</g>
<!-- Multics(2) -->
<g id="node2" class="node">
<title>Multics(2)</title>
<ellipse fill="springgreen" stroke="springgreen" cx="2086" cy="-45.21" rx="80.72" ry="21.43"/>
<text text-anchor="middle" x="2086" y="-40.21" font-family="Times-Roman" font-size="20.00">Multics(2)</text>
</g>
<!-- Multics License(2) -->
<g id="node3" class="node">
<title>Multics License(2)</title>
<ellipse fill="white" stroke="white" cx="1896" cy="-45.21" rx="91.78" ry="18"/>
<text text-anchor="middle" x="1896" y="-41.51" font-family="Times-Roman" font-size="14.00">Multics License(2)</text>
</g>
<!-- Multics(3) -->
<g id="node4" class="node">
<title>Multics(3)</title>
<ellipse fill="springgreen" stroke="springgreen" cx="1699" cy="-45.21" rx="80.72" ry="21.43"/>
<text text-anchor="middle" x="1699" y="-40.21" font-family="Times-Roman" font-size="20.00">Multics(3)</text>
</g>
<!-- Multics License(3) -->
<g id="node5" class="node">
<title>Multics License(3)</title>
<ellipse fill="white" stroke="white" cx="1509" cy="-45.21" rx="91.78" ry="18"/>
<text text-anchor="middle" x="1509" y="-41.51" font-family="Times-Roman" font-size="14.00">Multics License(3)</text>
</g>
<!-- Multics(4) -->
<g id="node6" class="node">
<title>Multics(4)</title>
<ellipse fill="springgreen" stroke="springgreen" cx="1312" cy="-45.21" rx="80.72" ry="21.43"/>
<text text-anchor="middle" x="1312" y="-40.21" font-family="Times-Roman" font-size="20.00">Multics(4)</text>
</g>
<!-- Multics License(4) -->
<g id="node7" class="node">
<title>Multics License(4)</title>
<ellipse fill="white" stroke="white" cx="1122" cy="-45.21" rx="91.78" ry="18"/>
<text text-anchor="middle" x="1122" y="-41.51" font-family="Times-Roman" font-size="14.00">Multics License(4)</text>
</g>
<!-- scancode://multics(4) -->
<g id="node8" class="node">
<title>scancode://multics(4)</title>
<ellipse fill="white" stroke="white" cx="905" cy="-45.21" rx="107.48" ry="18"/>
<text text-anchor="middle" x="905" y="-41.51" font-family="Times-Roman" font-size="14.00">scancode://multics(4)</text>
</g>
<!-- Multics(5) -->
<g id="node9" class="node">
<title>Multics(5)</title>
<ellipse fill="springgreen" stroke="springgreen" cx="693" cy="-45.21" rx="80.72" ry="21.43"/>
<text text-anchor="middle" x="693" y="-40.21" font-family="Times-Roman" font-size="20.00">Multics(5)</text>
</g>
<!-- Multics License(5) -->
<g id="node10" class="node">
<title>Multics License(5)</title>
<ellipse fill="white" stroke="white" cx="503" cy="-45.21" rx="91.78" ry="18"/>
<text text-anchor="middle" x="503" y="-41.51" font-family="Times-Roman" font-size="14.00">Multics License(5)</text>
</g>
<!-- Multics(6) -->
<g id="node11" class="node">
<title>Multics(6)</title>
<ellipse fill="springgreen" stroke="springgreen" cx="306" cy="-45.21" rx="80.72" ry="21.43"/>
<text text-anchor="middle" x="306" y="-40.21" font-family="Times-Roman" font-size="20.00">Multics(6)</text>
</g>
<!-- Multics License(6) -->
<g id="node12" class="node">
<title>Multics License(6)</title>
<ellipse fill="white" stroke="white" cx="116" cy="-45.21" rx="91.78" ry="18"/>
<text text-anchor="middle" x="116" y="-41.51" font-family="Times-Roman" font-size="14.00">Multics License(6)</text>
</g>
</g>
</svg>
