<?xml version="1.0" encoding="UTF-8" standalone="no"?>
<!DOCTYPE svg PUBLIC "-//W3C//DTD SVG 1.1//EN"
 "http://www.w3.org/Graphics/SVG/1.1/DTD/svg11.dtd">
<!-- Generated by graphviz version 2.47.3 (0)
 -->
<!-- Title: Mup Pages: 1 -->
<svg width="189pt" height="488pt"
 viewBox="0.00 0.00 188.59 488.00" xmlns="http://www.w3.org/2000/svg" xmlns:xlink="http://www.w3.org/1999/xlink">
<g id="graph0" class="graph" transform="scale(1 1) rotate(0) translate(4 484)">
<title>Mup</title>
<polygon fill="white" stroke="transparent" points="-4,4 -4,-484 184.59,-484 184.59,4 -4,4"/>
<g id="clust1" class="cluster">
<title>cluster_0</title>
<polygon fill="none" stroke="black" points="8,-8 8,-472 172.59,-472 172.59,-8 8,-8"/>
</g>
<g id="clust2" class="cluster">
<title>cluster_1</title>
<polygon fill="lightgray" stroke="lightgray" points="54.35,-412 54.35,-464 126.24,-464 126.24,-412 54.35,-412"/>
</g>
<g id="clust3" class="cluster">
<title>cluster_2</title>
<polygon fill="lightgray" stroke="lightgray" points="24.45,-298 24.45,-404 156.14,-404 156.14,-298 24.45,-298"/>
</g>
<g id="clust4" class="cluster">
<title>cluster_3</title>
<polygon fill="lightgray" stroke="lightgray" points="24.45,-184 24.45,-290 156.14,-290 156.14,-184 24.45,-184"/>
</g>
<g id="clust5" class="cluster">
<title>cluster_4</title>
<polygon fill="lightgray" stroke="lightgray" points="16,-16 16,-176 164.59,-176 164.59,-16 16,-16"/>
</g>
<!-- Mup(1) -->
<g id="node1" class="node">
<title>Mup(1)</title>
<ellipse fill="springgreen" stroke="springgreen" cx="90.29" cy="-438" rx="27.9" ry="18"/>
<text text-anchor="middle" x="90.29" y="-434.3" font-family="Times,serif" font-size="14.00">Mup</text>
</g>
<!-- Mup(2) -->
<g id="node2" class="node">
<title>Mup(2)</title>
<ellipse fill="springgreen" stroke="springgreen" cx="90.29" cy="-378" rx="27.9" ry="18"/>
<text text-anchor="middle" x="90.29" y="-374.3" font-family="Times,serif" font-size="14.00">Mup</text>
</g>
<!-- Mup License(2) -->
<g id="node3" class="node">
<title>Mup License(2)</title>
<ellipse fill="white" stroke="white" cx="90.29" cy="-324" rx="57.69" ry="18"/>
<text text-anchor="middle" x="90.29" y="-320.3" font-family="Times,serif" font-size="14.00">Mup License</text>
</g>
<!-- Mup(3) -->
<g id="node4" class="node">
<title>Mup(3)</title>
<ellipse fill="springgreen" stroke="springgreen" cx="90.29" cy="-264" rx="27.9" ry="18"/>
<text text-anchor="middle" x="90.29" y="-260.3" font-family="Times,serif" font-size="14.00">Mup</text>
</g>
<!-- Mup License(3) -->
<g id="node5" class="node">
<title>Mup License(3)</title>
<ellipse fill="white" stroke="white" cx="90.29" cy="-210" rx="57.69" ry="18"/>
<text text-anchor="middle" x="90.29" y="-206.3" font-family="Times,serif" font-size="14.00">Mup License</text>
</g>
<!-- Mup(4) -->
<g id="node6" class="node">
<title>Mup(4)</title>
<ellipse fill="springgreen" stroke="springgreen" cx="90.29" cy="-150" rx="27.9" ry="18"/>
<text text-anchor="middle" x="90.29" y="-146.3" font-family="Times,serif" font-size="14.00">Mup</text>
</g>
<!-- Mup License(4) -->
<g id="node7" class="node">
<title>Mup License(4)</title>
<ellipse fill="white" stroke="white" cx="90.29" cy="-96" rx="57.69" ry="18"/>
<text text-anchor="middle" x="90.29" y="-92.3" font-family="Times,serif" font-size="14.00">Mup License</text>
</g>
<!-- scancode://mup(4) -->
<g id="node8" class="node">
<title>scancode://mup(4)</title>
<ellipse fill="white" stroke="white" cx="90.29" cy="-42" rx="66.09" ry="18"/>
<text text-anchor="middle" x="90.29" y="-38.3" font-family="Times,serif" font-size="14.00">scancode://mup</text>
</g>
</g>
</svg>
