<?xml version="1.0" encoding="UTF-8" standalone="no"?>
<!DOCTYPE svg PUBLIC "-//W3C//DTD SVG 1.1//EN"
 "http://www.w3.org/Graphics/SVG/1.1/DTD/svg11.dtd">
<!-- Generated by graphviz version 2.43.0 (0)
 -->
<!-- Title: Naumen Pages: 1 -->
<svg width="291pt" height="548pt"
 viewBox="0.00 0.00 291.28 548.00" xmlns="http://www.w3.org/2000/svg" xmlns:xlink="http://www.w3.org/1999/xlink">
<g id="graph0" class="graph" transform="scale(1 1) rotate(0) translate(4 544)">
<title>Naumen</title>
<polygon fill="white" stroke="transparent" points="-4,4 -4,-544 287.28,-544 287.28,4 -4,4"/>
<g id="clust1" class="cluster">
<title>cluster_0</title>
<polygon fill="none" stroke="black" points="8,-8 8,-532 275.28,-532 275.28,-8 8,-8"/>
</g>
<g id="clust2" class="cluster">
<title>cluster_1</title>
<polygon fill="lightgray" stroke="lightgray" points="84.89,-472 84.89,-524 198.39,-524 198.39,-472 84.89,-472"/>
</g>
<g id="clust3" class="cluster">
<title>cluster_2</title>
<polygon fill="lightgray" stroke="lightgray" points="18.6,-358 18.6,-464 264.68,-464 264.68,-358 18.6,-358"/>
</g>
<g id="clust4" class="cluster">
<title>cluster_3</title>
<polygon fill="lightgray" stroke="lightgray" points="18.6,-244 18.6,-350 264.68,-350 264.68,-244 18.6,-244"/>
</g>
<g id="clust5" class="cluster">
<title>cluster_4</title>
<polygon fill="lightgray" stroke="lightgray" points="16,-130 16,-236 267.28,-236 267.28,-130 16,-130"/>
</g>
<g id="clust6" class="cluster">
<title>cluster_5</title>
<polygon fill="lightgray" stroke="lightgray" points="18.6,-16 18.6,-122 264.68,-122 264.68,-16 18.6,-16"/>
</g>
<!-- Naumen(1) -->
<g id="node1" class="node">
<title>Naumen(1)</title>
<ellipse fill="springgreen" stroke="springgreen" cx="141.64" cy="-498" rx="48.99" ry="18"/>
<text text-anchor="middle" x="141.64" y="-494.3" font-family="Times-Roman" font-size="14.00">Naumen</text>
</g>
<!-- Naumen(2) -->
<g id="node2" class="node">
<title>Naumen(2)</title>
<ellipse fill="springgreen" stroke="springgreen" cx="141.64" cy="-438" rx="48.99" ry="18"/>
<text text-anchor="middle" x="141.64" y="-434.3" font-family="Times-Roman" font-size="14.00">Naumen</text>
</g>
<!-- Naumen Public License(2) -->
<g id="node3" class="node">
<title>Naumen Public License(2)</title>
<ellipse fill="white" stroke="white" cx="141.64" cy="-384" rx="115.08" ry="18"/>
<text text-anchor="middle" x="141.64" y="-380.3" font-family="Times-Roman" font-size="14.00">Naumen Public License</text>
</g>
<!-- Naumen(3) -->
<g id="node4" class="node">
<title>Naumen(3)</title>
<ellipse fill="springgreen" stroke="springgreen" cx="141.64" cy="-324" rx="48.99" ry="18"/>
<text text-anchor="middle" x="141.64" y="-320.3" font-family="Times-Roman" font-size="14.00">Naumen</text>
</g>
<!-- Naumen Public License(3) -->
<g id="node5" class="node">
<title>Naumen Public License(3)</title>
<ellipse fill="white" stroke="white" cx="141.64" cy="-270" rx="115.08" ry="18"/>
<text text-anchor="middle" x="141.64" y="-266.3" font-family="Times-Roman" font-size="14.00">Naumen Public License</text>
</g>
<!-- NAUMEN Public License(4) -->
<g id="node6" class="node">
<title>NAUMEN Public License(4)</title>
<ellipse fill="white" stroke="white" cx="141.64" cy="-210" rx="117.78" ry="18"/>
<text text-anchor="middle" x="141.64" y="-206.3" font-family="Times-Roman" font-size="14.00">NAUMEN Public License</text>
</g>
<!-- Naumen(4) -->
<g id="node7" class="node">
<title>Naumen(4)</title>
<ellipse fill="springgreen" stroke="springgreen" cx="141.64" cy="-156" rx="48.99" ry="18"/>
<text text-anchor="middle" x="141.64" y="-152.3" font-family="Times-Roman" font-size="14.00">Naumen</text>
</g>
<!-- Naumen(5) -->
<g id="node8" class="node">
<title>Naumen(5)</title>
<ellipse fill="springgreen" stroke="springgreen" cx="141.64" cy="-96" rx="48.99" ry="18"/>
<text text-anchor="middle" x="141.64" y="-92.3" font-family="Times-Roman" font-size="14.00">Naumen</text>
</g>
<!-- Naumen Public License(5) -->
<g id="node9" class="node">
<title>Naumen Public License(5)</title>
<ellipse fill="white" stroke="white" cx="141.64" cy="-42" rx="115.08" ry="18"/>
<text text-anchor="middle" x="141.64" y="-38.3" font-family="Times-Roman" font-size="14.00">Naumen Public License</text>
</g>
</g>
</svg>
