<?xml version="1.0" encoding="UTF-8" standalone="no"?>
<!DOCTYPE svg PUBLIC "-//W3C//DTD SVG 1.1//EN"
 "http://www.w3.org/Graphics/SVG/1.1/DTD/svg11.dtd">
<!-- Generated by graphviz version 2.49.3 (0)
 -->
<!-- Title: Naumen Pages: 1 -->
<svg width="265pt" height="830pt"
 viewBox="0.00 0.00 265.28 830.00" xmlns="http://www.w3.org/2000/svg" xmlns:xlink="http://www.w3.org/1999/xlink">
<g id="graph0" class="graph" transform="scale(1 1) rotate(0) translate(4 826)">
<title>Naumen</title>
<polygon fill="white" stroke="transparent" points="-4,4 -4,-826 261.28,-826 261.28,4 -4,4"/>
<g id="clust1" class="cluster">
<title>cluster_0</title>
<polygon fill="none" stroke="black" points="8,-8 8,-814 249.28,-814 249.28,-8 8,-8"/>
</g>
<g id="clust2" class="cluster">
<title>cluster_1</title>
<polygon fill="lightgray" stroke="lightgray" points="79.69,-754 79.69,-806 177.59,-806 177.59,-754 79.69,-754"/>
</g>
<g id="clust3" class="cluster">
<title>cluster_2</title>
<polygon fill="lightgray" stroke="lightgray" points="25.1,-640 25.1,-746 232.18,-746 232.18,-640 25.1,-640"/>
</g>
<g id="clust4" class="cluster">
<title>cluster_3</title>
<polygon fill="lightgray" stroke="lightgray" points="49.8,-526 49.8,-632 207.48,-632 207.48,-526 49.8,-526"/>
</g>
<g id="clust5" class="cluster">
<title>cluster_4</title>
<polygon fill="lightgray" stroke="lightgray" points="25.1,-412 25.1,-518 232.18,-518 232.18,-412 25.1,-412"/>
</g>
<g id="clust6" class="cluster">
<title>cluster_5</title>
<polygon fill="lightgray" stroke="lightgray" points="16,-298 16,-404 241.28,-404 241.28,-298 16,-298"/>
</g>
<g id="clust7" class="cluster">
<title>cluster_6</title>
<polygon fill="lightgray" stroke="lightgray" points="25.1,-184 25.1,-290 232.18,-290 232.18,-184 25.1,-184"/>
</g>
<g id="clust8" class="cluster">
<title>cluster_7</title>
<polygon fill="lightgray" stroke="lightgray" points="16,-16 16,-176 241.28,-176 241.28,-16 16,-16"/>
</g>
<!-- Naumen(1) -->
<g id="node1" class="node">
<title>Naumen(1)</title>
<ellipse fill="springgreen" stroke="springgreen" cx="128.64" cy="-780" rx="40.89" ry="18"/>
<text text-anchor="middle" x="128.64" y="-776.3" font-family="Times,serif" font-size="14.00">Naumen</text>
</g>
<!-- Naumen(2) -->
<g id="node2" class="node">
<title>Naumen(2)</title>
<ellipse fill="springgreen" stroke="springgreen" cx="128.64" cy="-720" rx="40.89" ry="18"/>
<text text-anchor="middle" x="128.64" y="-716.3" font-family="Times,serif" font-size="14.00">Naumen</text>
</g>
<!-- Naumen Public License(2) -->
<g id="node3" class="node">
<title>Naumen Public License(2)</title>
<ellipse fill="white" stroke="white" cx="128.64" cy="-666" rx="95.58" ry="18"/>
<text text-anchor="middle" x="128.64" y="-662.3" font-family="Times,serif" font-size="14.00">Naumen Public License</text>
</g>
<!-- Naumen(3) -->
<g id="node4" class="node">
<title>Naumen(3)</title>
<ellipse fill="springgreen" stroke="springgreen" cx="128.64" cy="-606" rx="40.89" ry="18"/>
<text text-anchor="middle" x="128.64" y="-602.3" font-family="Times,serif" font-size="14.00">Naumen</text>
</g>
<!-- Naumen License(3) -->
<g id="node5" class="node">
<title>Naumen License(3)</title>
<ellipse fill="white" stroke="white" cx="128.64" cy="-552" rx="70.69" ry="18"/>
<text text-anchor="middle" x="128.64" y="-548.3" font-family="Times,serif" font-size="14.00">Naumen License</text>
</g>
<!-- Naumen(4) -->
<g id="node6" class="node">
<title>Naumen(4)</title>
<ellipse fill="springgreen" stroke="springgreen" cx="128.64" cy="-492" rx="40.89" ry="18"/>
<text text-anchor="middle" x="128.64" y="-488.3" font-family="Times,serif" font-size="14.00">Naumen</text>
</g>
<!-- Naumen Public License(4) -->
<g id="node7" class="node">
<title>Naumen Public License(4)</title>
<ellipse fill="white" stroke="white" cx="128.64" cy="-438" rx="95.58" ry="18"/>
<text text-anchor="middle" x="128.64" y="-434.3" font-family="Times,serif" font-size="14.00">Naumen Public License</text>
</g>
<!-- NAUMEN Public License(5) -->
<g id="node8" class="node">
<title>NAUMEN Public License(5)</title>
<ellipse fill="white" stroke="white" cx="128.64" cy="-378" rx="104.78" ry="18"/>
<text text-anchor="middle" x="128.64" y="-374.3" font-family="Times,serif" font-size="14.00">NAUMEN Public License</text>
</g>
<!-- Naumen(5) -->
<g id="node9" class="node">
<title>Naumen(5)</title>
<ellipse fill="springgreen" stroke="springgreen" cx="128.64" cy="-324" rx="40.89" ry="18"/>
<text text-anchor="middle" x="128.64" y="-320.3" font-family="Times,serif" font-size="14.00">Naumen</text>
</g>
<!-- Naumen(6) -->
<g id="node10" class="node">
<title>Naumen(6)</title>
<ellipse fill="springgreen" stroke="springgreen" cx="128.64" cy="-264" rx="40.89" ry="18"/>
<text text-anchor="middle" x="128.64" y="-260.3" font-family="Times,serif" font-size="14.00">Naumen</text>
</g>
<!-- Naumen Public License(6) -->
<g id="node11" class="node">
<title>Naumen Public License(6)</title>
<ellipse fill="white" stroke="white" cx="128.64" cy="-210" rx="95.58" ry="18"/>
<text text-anchor="middle" x="128.64" y="-206.3" font-family="Times,serif" font-size="14.00">Naumen Public License</text>
</g>
<!-- NAUMEN Public License(7) -->
<g id="node12" class="node">
<title>NAUMEN Public License(7)</title>
<ellipse fill="white" stroke="white" cx="128.64" cy="-150" rx="104.78" ry="18"/>
<text text-anchor="middle" x="128.64" y="-146.3" font-family="Times,serif" font-size="14.00">NAUMEN Public License</text>
</g>
<!-- Naumen(7) -->
<g id="node13" class="node">
<title>Naumen(7)</title>
<ellipse fill="springgreen" stroke="springgreen" cx="128.64" cy="-96" rx="40.89" ry="18"/>
<text text-anchor="middle" x="128.64" y="-92.3" font-family="Times,serif" font-size="14.00">Naumen</text>
</g>
<!-- scancode://naumen(7) -->
<g id="node14" class="node">
<title>scancode://naumen(7)</title>
<ellipse fill="white" stroke="white" cx="128.64" cy="-42" rx="78.79" ry="18"/>
<text text-anchor="middle" x="128.64" y="-38.3" font-family="Times,serif" font-size="14.00">scancode://naumen</text>
</g>
</g>
</svg>
