<?xml version="1.0" encoding="UTF-8" standalone="no"?>
<!DOCTYPE svg PUBLIC "-//W3C//DTD SVG 1.1//EN"
 "http://www.w3.org/Graphics/SVG/1.1/DTD/svg11.dtd">
<!-- Generated by graphviz version 2.43.0 (0)
 -->
<!-- Title: Net&#45;SNMP Pages: 1 -->
<svg width="1410pt" height="115pt"
 viewBox="0.00 0.00 1410.00 115.00" xmlns="http://www.w3.org/2000/svg" xmlns:xlink="http://www.w3.org/1999/xlink">
<g id="graph0" class="graph" transform="scale(1 1) rotate(0) translate(4 111)">
<title>Net&#45;SNMP</title>
<polygon fill="white" stroke="transparent" points="-4,4 -4,-111 1406,-111 1406,4 -4,4"/>
<g id="clust1" class="cluster">
<title>cluster_0</title>
<polygon fill="none" stroke="black" points="8,-8 8,-99 1394,-99 1394,-8 8,-8"/>
</g>
<g id="clust2" class="cluster">
<title>cluster_1</title>
<polygon fill="lightgray" stroke="lightgray" points="1258,-16 1258,-91 1386,-91 1386,-16 1258,-16"/>
<text text-anchor="middle" x="1322" y="-75.8" font-family="Times-Roman" font-size="14.00">prev</text>
</g>
<g id="clust3" class="cluster">
<title>cluster_2</title>
<polygon fill="lightgray" stroke="lightgray" points="920,-16 920,-68 1250,-68 1250,-16 920,-16"/>
</g>
<g id="clust4" class="cluster">
<title>cluster_3</title>
<polygon fill="lightgray" stroke="lightgray" points="582,-16 582,-68 912,-68 912,-16 582,-16"/>
</g>
<g id="clust5" class="cluster">
<title>cluster_4</title>
<polygon fill="lightgray" stroke="lightgray" points="16,-16 16,-68 574,-68 574,-16 16,-16"/>
</g>
<!-- Net&#45;SNMP(1) -->
<g id="node1" class="node">
<title>Net&#45;SNMP(1)</title>
<ellipse fill="springgreen" stroke="springgreen" cx="1322" cy="-42" rx="55.79" ry="18"/>
<text text-anchor="middle" x="1322" y="-38.3" font-family="Times-Roman" font-size="14.00">Net&#45;SNMP</text>
</g>
<!-- Net&#45;SNMP(2) -->
<g id="node2" class="node">
<title>Net&#45;SNMP(2)</title>
<ellipse fill="springgreen" stroke="springgreen" cx="1186" cy="-42" rx="55.79" ry="18"/>
<text text-anchor="middle" x="1186" y="-38.3" font-family="Times-Roman" font-size="14.00">Net&#45;SNMP</text>
</g>
<!-- Net&#45;SNMP License(2) -->
<g id="node3" class="node">
<title>Net&#45;SNMP License(2)</title>
<ellipse fill="white" stroke="white" cx="1020" cy="-42" rx="92.08" ry="18"/>
<text text-anchor="middle" x="1020" y="-38.3" font-family="Times-Roman" font-size="14.00">Net&#45;SNMP License</text>
</g>
<!-- Net&#45;SNMP(3) -->
<g id="node4" class="node">
<title>Net&#45;SNMP(3)</title>
<ellipse fill="springgreen" stroke="springgreen" cx="848" cy="-42" rx="55.79" ry="18"/>
<text text-anchor="middle" x="848" y="-38.3" font-family="Times-Roman" font-size="14.00">Net&#45;SNMP</text>
</g>
<!-- Net&#45;SNMP License(3) -->
<g id="node5" class="node">
<title>Net&#45;SNMP License(3)</title>
<ellipse fill="white" stroke="white" cx="682" cy="-42" rx="92.08" ry="18"/>
<text text-anchor="middle" x="682" y="-38.3" font-family="Times-Roman" font-size="14.00">Net&#45;SNMP License</text>
</g>
<!-- Net SNMP License(4) -->
<g id="node6" class="node">
<title>Net SNMP License(4)</title>
<ellipse fill="white" stroke="white" cx="474" cy="-42" rx="91.78" ry="18"/>
<text text-anchor="middle" x="474" y="-38.3" font-family="Times-Roman" font-size="14.00">Net SNMP License</text>
</g>
<!-- Net&#45;SNMP(4) -->
<g id="node7" class="node">
<title>Net&#45;SNMP(4)</title>
<ellipse fill="springgreen" stroke="springgreen" cx="308" cy="-42" rx="55.79" ry="18"/>
<text text-anchor="middle" x="308" y="-38.3" font-family="Times-Roman" font-size="14.00">Net&#45;SNMP</text>
</g>
<!-- scancode://net&#45;snmp(4) -->
<g id="node8" class="node">
<title>scancode://net&#45;snmp(4)</title>
<ellipse fill="white" stroke="white" cx="129" cy="-42" rx="105.08" ry="18"/>
<text text-anchor="middle" x="129" y="-38.3" font-family="Times-Roman" font-size="14.00">scancode://net&#45;snmp</text>
</g>
</g>
</svg>
