<?xml version="1.0" encoding="UTF-8" standalone="no"?>
<!DOCTYPE svg PUBLIC "-//W3C//DTD SVG 1.1//EN"
 "http://www.w3.org/Graphics/SVG/1.1/DTD/svg11.dtd">
<!-- Generated by graphviz version 2.43.0 (0)
 -->
<!-- Title: Nokia Pages: 1 -->
<svg width="2484pt" height="115pt"
 viewBox="0.00 0.00 2484.00 115.00" xmlns="http://www.w3.org/2000/svg" xmlns:xlink="http://www.w3.org/1999/xlink">
<g id="graph0" class="graph" transform="scale(1 1) rotate(0) translate(4 111)">
<title>Nokia</title>
<polygon fill="white" stroke="transparent" points="-4,4 -4,-111 2480,-111 2480,4 -4,4"/>
<g id="clust1" class="cluster">
<title>cluster_0</title>
<polygon fill="none" stroke="black" points="8,-8 8,-99 2468,-99 2468,-8 8,-8"/>
</g>
<g id="clust2" class="cluster">
<title>cluster_1</title>
<polygon fill="lightgray" stroke="lightgray" points="2372,-16 2372,-91 2460,-91 2460,-16 2372,-16"/>
<text text-anchor="middle" x="2416" y="-75.8" font-family="Times-Roman" font-size="14.00">prev</text>
</g>
<g id="clust3" class="cluster">
<title>cluster_2</title>
<polygon fill="lightgray" stroke="lightgray" points="1990,-16 1990,-68 2364,-68 2364,-16 1990,-16"/>
</g>
<g id="clust4" class="cluster">
<title>cluster_3</title>
<polygon fill="lightgray" stroke="lightgray" points="1428,-16 1428,-68 1982,-68 1982,-16 1428,-16"/>
</g>
<g id="clust5" class="cluster">
<title>cluster_4</title>
<polygon fill="lightgray" stroke="lightgray" points="398,-16 398,-68 1420,-68 1420,-16 398,-16"/>
</g>
<g id="clust6" class="cluster">
<title>cluster_5</title>
<polygon fill="lightgray" stroke="lightgray" points="16,-16 16,-68 390,-68 390,-16 16,-16"/>
</g>
<!-- Nokia(1) -->
<g id="node1" class="node">
<title>Nokia(1)</title>
<ellipse fill="springgreen" stroke="springgreen" cx="2416" cy="-42" rx="36.29" ry="18"/>
<text text-anchor="middle" x="2416" y="-38.3" font-family="Times-Roman" font-size="14.00">Nokia</text>
</g>
<!-- Nokia(2) -->
<g id="node2" class="node">
<title>Nokia(2)</title>
<ellipse fill="springgreen" stroke="springgreen" cx="2320" cy="-42" rx="36.29" ry="18"/>
<text text-anchor="middle" x="2320" y="-38.3" font-family="Times-Roman" font-size="14.00">Nokia</text>
</g>
<!-- Nokia Open Source License(2) -->
<g id="node3" class="node">
<title>Nokia Open Source License(2)</title>
<ellipse fill="white" stroke="white" cx="2132" cy="-42" rx="133.78" ry="18"/>
<text text-anchor="middle" x="2132" y="-38.3" font-family="Times-Roman" font-size="14.00">Nokia Open Source License</text>
</g>
<!-- NOKOS License 1.0a(3) -->
<g id="node4" class="node">
<title>NOKOS License 1.0a(3)</title>
<ellipse fill="white" stroke="white" cx="1871" cy="-42" rx="102.88" ry="18"/>
<text text-anchor="middle" x="1871" y="-38.3" font-family="Times-Roman" font-size="14.00">NOKOS License 1.0a</text>
</g>
<!-- Nokia(3) -->
<g id="node5" class="node">
<title>Nokia(3)</title>
<ellipse fill="springgreen" stroke="springgreen" cx="1714" cy="-42" rx="36.29" ry="18"/>
<text text-anchor="middle" x="1714" y="-38.3" font-family="Times-Roman" font-size="14.00">Nokia</text>
</g>
<!-- scancode://nokos&#45;1.0a(3) -->
<g id="node6" class="node">
<title>scancode://nokos&#45;1.0a(3)</title>
<ellipse fill="white" stroke="white" cx="1548" cy="-42" rx="111.58" ry="18"/>
<text text-anchor="middle" x="1548" y="-38.3" font-family="Times-Roman" font-size="14.00">scancode://nokos&#45;1.0a</text>
</g>
<!-- License :: OSI Approved :: Nokia Open Source License(4) -->
<g id="node7" class="node">
<title>License :: OSI Approved :: Nokia Open Source License(4)</title>
<ellipse fill="white" stroke="white" cx="1159" cy="-42" rx="252.66" ry="18"/>
<text text-anchor="middle" x="1159" y="-38.3" font-family="Times-Roman" font-size="14.00">License :: OSI Approved :: Nokia Open Source License</text>
</g>
<!-- Nokia(4) -->
<g id="node8" class="node">
<title>Nokia(4)</title>
<ellipse fill="springgreen" stroke="springgreen" cx="852" cy="-42" rx="36.29" ry="18"/>
<text text-anchor="middle" x="852" y="-38.3" font-family="Times-Roman" font-size="14.00">Nokia</text>
</g>
<!-- Nokia Open Source License, Version 1.0a(4) -->
<g id="node9" class="node">
<title>Nokia Open Source License, Version 1.0a(4)</title>
<ellipse fill="white" stroke="white" cx="602" cy="-42" rx="195.77" ry="18"/>
<text text-anchor="middle" x="602" y="-38.3" font-family="Times-Roman" font-size="14.00">Nokia Open Source License, Version 1.0a</text>
</g>
<!-- Nokia(5) -->
<g id="node10" class="node">
<title>Nokia(5)</title>
<ellipse fill="springgreen" stroke="springgreen" cx="346" cy="-42" rx="36.29" ry="18"/>
<text text-anchor="middle" x="346" y="-38.3" font-family="Times-Roman" font-size="14.00">Nokia</text>
</g>
<!-- Nokia Open Source License(5) -->
<g id="node11" class="node">
<title>Nokia Open Source License(5)</title>
<ellipse fill="white" stroke="white" cx="158" cy="-42" rx="133.78" ry="18"/>
<text text-anchor="middle" x="158" y="-38.3" font-family="Times-Roman" font-size="14.00">Nokia Open Source License</text>
</g>
</g>
</svg>
