<?xml version="1.0" encoding="UTF-8" standalone="no"?>
<!DOCTYPE svg PUBLIC "-//W3C//DTD SVG 1.1//EN"
 "http://www.w3.org/Graphics/SVG/1.1/DTD/svg11.dtd">
<!-- Generated by graphviz version 7.0.0 (0)
 -->
<!-- Title: Nokia Pages: 1 -->
<svg width="472pt" height="770pt"
 viewBox="0.00 0.00 471.96 770.00" xmlns="http://www.w3.org/2000/svg" xmlns:xlink="http://www.w3.org/1999/xlink">
<g id="graph0" class="graph" transform="scale(1 1) rotate(0) translate(4 766)">
<title>Nokia</title>
<polygon fill="white" stroke="none" points="-4,4 -4,-766 467.96,-766 467.96,4 -4,4"/>
<g id="clust1" class="cluster">
<title>cluster_0</title>
<polygon fill="none" stroke="black" points="8,-8 8,-754 455.96,-754 455.96,-8 8,-8"/>
</g>
<g id="clust2" class="cluster">
<title>cluster_1</title>
<polygon fill="lightgray" stroke="lightgray" points="191.48,-694 191.48,-746 272.48,-746 272.48,-694 191.48,-694"/>
</g>
<g id="clust3" class="cluster">
<title>cluster_2</title>
<polygon fill="lightgray" stroke="lightgray" points="113.49,-580 113.49,-686 350.47,-686 350.47,-580 113.49,-580"/>
</g>
<g id="clust4" class="cluster">
<title>cluster_3</title>
<polygon fill="lightgray" stroke="lightgray" points="113.49,-466 113.49,-572 350.47,-572 350.47,-466 113.49,-466"/>
</g>
<g id="clust5" class="cluster">
<title>cluster_4</title>
<polygon fill="lightgray" stroke="lightgray" points="16,-298 16,-458 447.96,-458 447.96,-298 16,-298"/>
</g>
<g id="clust6" class="cluster">
<title>cluster_5</title>
<polygon fill="lightgray" stroke="lightgray" points="113.49,-184 113.49,-290 350.47,-290 350.47,-184 113.49,-184"/>
</g>
<g id="clust7" class="cluster">
<title>cluster_6</title>
<polygon fill="lightgray" stroke="lightgray" points="134.94,-16 134.94,-176 329.02,-176 329.02,-16 134.94,-16"/>
</g>
<!-- Nokia(1) -->
<g id="node1" class="node">
<title>Nokia(1)</title>
<ellipse fill="springgreen" stroke="springgreen" cx="231.98" cy="-720" rx="32.49" ry="18"/>
<text text-anchor="middle" x="231.98" y="-716.3" font-family="Times,serif" font-size="14.00">Nokia</text>
</g>
<!-- Nokia(2) -->
<g id="node2" class="node">
<title>Nokia(2)</title>
<ellipse fill="springgreen" stroke="springgreen" cx="231.98" cy="-660" rx="32.49" ry="18"/>
<text text-anchor="middle" x="231.98" y="-656.3" font-family="Times,serif" font-size="14.00">Nokia</text>
</g>
<!-- Nokia Open Source License(2) -->
<g id="node3" class="node">
<title>Nokia Open Source License(2)</title>
<ellipse fill="white" stroke="white" cx="231.98" cy="-606" rx="110.48" ry="18"/>
<text text-anchor="middle" x="231.98" y="-602.3" font-family="Times,serif" font-size="14.00">Nokia Open Source License</text>
</g>
<!-- Nokia(3) -->
<g id="node4" class="node">
<title>Nokia(3)</title>
<ellipse fill="springgreen" stroke="springgreen" cx="231.98" cy="-546" rx="32.49" ry="18"/>
<text text-anchor="middle" x="231.98" y="-542.3" font-family="Times,serif" font-size="14.00">Nokia</text>
</g>
<!-- Nokia Open Source License(3) -->
<g id="node5" class="node">
<title>Nokia Open Source License(3)</title>
<ellipse fill="white" stroke="white" cx="231.98" cy="-492" rx="110.48" ry="18"/>
<text text-anchor="middle" x="231.98" y="-488.3" font-family="Times,serif" font-size="14.00">Nokia Open Source License</text>
</g>
<!-- License :: OSI Approved :: Nokia Open Source License(4) -->
<g id="node6" class="node">
<title>License :: OSI Approved :: Nokia Open Source License(4)</title>
<ellipse fill="white" stroke="white" cx="231.98" cy="-432" rx="207.96" ry="18"/>
<text text-anchor="middle" x="231.98" y="-428.3" font-family="Times,serif" font-size="14.00">License :: OSI Approved :: Nokia Open Source License</text>
</g>
<!-- Nokia(4) -->
<g id="node7" class="node">
<title>Nokia(4)</title>
<ellipse fill="springgreen" stroke="springgreen" cx="231.98" cy="-378" rx="32.49" ry="18"/>
<text text-anchor="middle" x="231.98" y="-374.3" font-family="Times,serif" font-size="14.00">Nokia</text>
</g>
<!-- Nokia Open Source License, Version 1.0a(4) -->
<g id="node8" class="node">
<title>Nokia Open Source License, Version 1.0a(4)</title>
<ellipse fill="white" stroke="white" cx="231.98" cy="-324" rx="159.47" ry="18"/>
<text text-anchor="middle" x="231.98" y="-320.3" font-family="Times,serif" font-size="14.00">Nokia Open Source License, Version 1.0a</text>
</g>
<!-- Nokia(5) -->
<g id="node9" class="node">
<title>Nokia(5)</title>
<ellipse fill="springgreen" stroke="springgreen" cx="231.98" cy="-264" rx="32.49" ry="18"/>
<text text-anchor="middle" x="231.98" y="-260.3" font-family="Times,serif" font-size="14.00">Nokia</text>
</g>
<!-- Nokia Open Source License(5) -->
<g id="node10" class="node">
<title>Nokia Open Source License(5)</title>
<ellipse fill="white" stroke="white" cx="231.98" cy="-210" rx="110.48" ry="18"/>
<text text-anchor="middle" x="231.98" y="-206.3" font-family="Times,serif" font-size="14.00">Nokia Open Source License</text>
</g>
<!-- NOKOS License 1.0a(6) -->
<g id="node11" class="node">
<title>NOKOS License 1.0a(6)</title>
<ellipse fill="white" stroke="white" cx="231.98" cy="-150" rx="88.28" ry="18"/>
<text text-anchor="middle" x="231.98" y="-146.3" font-family="Times,serif" font-size="14.00">NOKOS License 1.0a</text>
</g>
<!-- Nokia(6) -->
<g id="node12" class="node">
<title>Nokia(6)</title>
<ellipse fill="springgreen" stroke="springgreen" cx="231.98" cy="-96" rx="32.49" ry="18"/>
<text text-anchor="middle" x="231.98" y="-92.3" font-family="Times,serif" font-size="14.00">Nokia</text>
</g>
<!-- scancode://nokos&#45;1.0a(6) -->
<g id="node13" class="node">
<title>scancode://nokos&#45;1.0a(6)</title>
<ellipse fill="white" stroke="white" cx="231.98" cy="-42" rx="89.08" ry="18"/>
<text text-anchor="middle" x="231.98" y="-38.3" font-family="Times,serif" font-size="14.00">scancode://nokos&#45;1.0a</text>
</g>
</g>
</svg>
