<?xml version="1.0" encoding="UTF-8" standalone="no"?>
<!DOCTYPE svg PUBLIC "-//W3C//DTD SVG 1.1//EN"
 "http://www.w3.org/Graphics/SVG/1.1/DTD/svg11.dtd">
<!-- Generated by graphviz version 2.43.0 (0)
 -->
<!-- Title: NOSL Pages: 1 -->
<svg width="962pt" height="92pt"
 viewBox="0.00 0.00 962.00 92.00" xmlns="http://www.w3.org/2000/svg" xmlns:xlink="http://www.w3.org/1999/xlink">
<g id="graph0" class="graph" transform="scale(1 1) rotate(0) translate(4 88)">
<title>NOSL</title>
<polygon fill="white" stroke="transparent" points="-4,4 -4,-88 958,-88 958,4 -4,4"/>
<g id="clust1" class="cluster">
<title>cluster_0</title>
<polygon fill="none" stroke="black" points="8,-8 8,-76 946,-76 946,-8 8,-8"/>
</g>
<g id="clust2" class="cluster">
<title>cluster_1</title>
<polygon fill="lightgray" stroke="lightgray" points="850,-16 850,-68 938,-68 938,-16 850,-16"/>
</g>
<g id="clust3" class="cluster">
<title>cluster_2</title>
<polygon fill="lightgray" stroke="lightgray" points="452,-16 452,-68 842,-68 842,-16 452,-16"/>
</g>
<g id="clust4" class="cluster">
<title>cluster_3</title>
<polygon fill="lightgray" stroke="lightgray" points="16,-16 16,-68 444,-68 444,-16 16,-16"/>
</g>
<!-- NOSL(1) -->
<g id="node1" class="node">
<title>NOSL(1)</title>
<ellipse fill="springgreen" stroke="springgreen" cx="894" cy="-42" rx="36" ry="18"/>
<text text-anchor="middle" x="894" y="-38.3" font-family="Times-Roman" font-size="14.00">NOSL</text>
</g>
<!-- NOSL(2) -->
<g id="node2" class="node">
<title>NOSL(2)</title>
<ellipse fill="springgreen" stroke="springgreen" cx="798" cy="-42" rx="36" ry="18"/>
<text text-anchor="middle" x="798" y="-38.3" font-family="Times-Roman" font-size="14.00">NOSL</text>
</g>
<!-- Netizen Open Source License(2) -->
<g id="node3" class="node">
<title>Netizen Open Source License(2)</title>
<ellipse fill="white" stroke="white" cx="602" cy="-42" rx="142.17" ry="18"/>
<text text-anchor="middle" x="602" y="-38.3" font-family="Times-Roman" font-size="14.00">Netizen Open Source License</text>
</g>
<!-- NOSL(3) -->
<g id="node4" class="node">
<title>NOSL(3)</title>
<ellipse fill="springgreen" stroke="springgreen" cx="400" cy="-42" rx="36" ry="18"/>
<text text-anchor="middle" x="400" y="-38.3" font-family="Times-Roman" font-size="14.00">NOSL</text>
</g>
<!-- NOSL 1.0(3) -->
<g id="node5" class="node">
<title>NOSL 1.0(3)</title>
<ellipse fill="white" stroke="white" cx="293" cy="-42" rx="53.09" ry="18"/>
<text text-anchor="middle" x="293" y="-38.3" font-family="Times-Roman" font-size="14.00">NOSL 1.0</text>
</g>
<!-- scancode://nosl&#45;1.0(3) -->
<g id="node6" class="node">
<title>scancode://nosl&#45;1.0(3)</title>
<ellipse fill="white" stroke="white" cx="123" cy="-42" rx="98.58" ry="18"/>
<text text-anchor="middle" x="123" y="-38.3" font-family="Times-Roman" font-size="14.00">scancode://nosl&#45;1.0</text>
</g>
</g>
</svg>
