<?xml version="1.0" encoding="UTF-8" standalone="no"?>
<!DOCTYPE svg PUBLIC "-//W3C//DTD SVG 1.1//EN"
 "http://www.w3.org/Graphics/SVG/1.1/DTD/svg11.dtd">
<!-- Generated by graphviz version 5.0.1 (0)
 -->
<!-- Title: Noweb Pages: 1 -->
<svg width="203pt" height="488pt"
 viewBox="0.00 0.00 202.89 488.00" xmlns="http://www.w3.org/2000/svg" xmlns:xlink="http://www.w3.org/1999/xlink">
<g id="graph0" class="graph" transform="scale(1 1) rotate(0) translate(4 484)">
<title>Noweb</title>
<polygon fill="white" stroke="none" points="-4,4 -4,-484 198.89,-484 198.89,4 -4,4"/>
<g id="clust1" class="cluster">
<title>cluster_0</title>
<polygon fill="none" stroke="black" points="8,-8 8,-472 186.89,-472 186.89,-8 8,-8"/>
</g>
<g id="clust2" class="cluster">
<title>cluster_1</title>
<polygon fill="lightgray" stroke="lightgray" points="53.05,-412 53.05,-464 141.84,-464 141.84,-412 53.05,-412"/>
</g>
<g id="clust3" class="cluster">
<title>cluster_2</title>
<polygon fill="lightgray" stroke="lightgray" points="23.8,-298 23.8,-404 171.09,-404 171.09,-298 23.8,-298"/>
</g>
<g id="clust4" class="cluster">
<title>cluster_3</title>
<polygon fill="lightgray" stroke="lightgray" points="23.8,-184 23.8,-290 171.09,-290 171.09,-184 23.8,-184"/>
</g>
<g id="clust5" class="cluster">
<title>cluster_4</title>
<polygon fill="lightgray" stroke="lightgray" points="16,-16 16,-176 178.89,-176 178.89,-16 16,-16"/>
</g>
<!-- Noweb(1) -->
<g id="node1" class="node">
<title>Noweb(1)</title>
<ellipse fill="springgreen" stroke="springgreen" cx="97.44" cy="-438" rx="36.29" ry="18"/>
<text text-anchor="middle" x="97.44" y="-434.3" font-family="Times,serif" font-size="14.00">Noweb</text>
</g>
<!-- Noweb(2) -->
<g id="node2" class="node">
<title>Noweb(2)</title>
<ellipse fill="springgreen" stroke="springgreen" cx="97.44" cy="-378" rx="36.29" ry="18"/>
<text text-anchor="middle" x="97.44" y="-374.3" font-family="Times,serif" font-size="14.00">Noweb</text>
</g>
<!-- Noweb License(2) -->
<g id="node3" class="node">
<title>Noweb License(2)</title>
<ellipse fill="white" stroke="white" cx="97.44" cy="-324" rx="65.79" ry="18"/>
<text text-anchor="middle" x="97.44" y="-320.3" font-family="Times,serif" font-size="14.00">Noweb License</text>
</g>
<!-- Noweb(3) -->
<g id="node4" class="node">
<title>Noweb(3)</title>
<ellipse fill="springgreen" stroke="springgreen" cx="97.44" cy="-264" rx="36.29" ry="18"/>
<text text-anchor="middle" x="97.44" y="-260.3" font-family="Times,serif" font-size="14.00">Noweb</text>
</g>
<!-- Noweb License(3) -->
<g id="node5" class="node">
<title>Noweb License(3)</title>
<ellipse fill="white" stroke="white" cx="97.44" cy="-210" rx="65.79" ry="18"/>
<text text-anchor="middle" x="97.44" y="-206.3" font-family="Times,serif" font-size="14.00">Noweb License</text>
</g>
<!-- Noweb(4) -->
<g id="node6" class="node">
<title>Noweb(4)</title>
<ellipse fill="springgreen" stroke="springgreen" cx="97.44" cy="-150" rx="36.29" ry="18"/>
<text text-anchor="middle" x="97.44" y="-146.3" font-family="Times,serif" font-size="14.00">Noweb</text>
</g>
<!-- Noweb License(4) -->
<g id="node7" class="node">
<title>Noweb License(4)</title>
<ellipse fill="white" stroke="white" cx="97.44" cy="-96" rx="65.79" ry="18"/>
<text text-anchor="middle" x="97.44" y="-92.3" font-family="Times,serif" font-size="14.00">Noweb License</text>
</g>
<!-- scancode://noweb(4) -->
<g id="node8" class="node">
<title>scancode://noweb(4)</title>
<ellipse fill="white" stroke="white" cx="97.44" cy="-42" rx="73.39" ry="18"/>
<text text-anchor="middle" x="97.44" y="-38.3" font-family="Times,serif" font-size="14.00">scancode://noweb</text>
</g>
</g>
</svg>
