<?xml version="1.0" encoding="UTF-8" standalone="no"?>
<!DOCTYPE svg PUBLIC "-//W3C//DTD SVG 1.1//EN"
 "http://www.w3.org/Graphics/SVG/1.1/DTD/svg11.dtd">
<!-- Generated by graphviz version 2.49.3 (0)
 -->
<!-- Title: NPOSL&#45;3.0 Pages: 1 -->
<svg width="446pt" height="1046pt"
 viewBox="0.00 0.00 445.97 1046.00" xmlns="http://www.w3.org/2000/svg" xmlns:xlink="http://www.w3.org/1999/xlink">
<g id="graph0" class="graph" transform="scale(1 1) rotate(0) translate(4 1042)">
<title>NPOSL&#45;3.0</title>
<polygon fill="white" stroke="transparent" points="-4,4 -4,-1042 441.97,-1042 441.97,4 -4,4"/>
<g id="clust1" class="cluster">
<title>cluster_0</title>
<polygon fill="none" stroke="black" points="8,-8 8,-1030 429.97,-1030 429.97,-8 8,-8"/>
</g>
<g id="clust2" class="cluster">
<title>cluster_1</title>
<polygon fill="lightgray" stroke="lightgray" points="158.34,-970 158.34,-1022 279.63,-1022 279.63,-970 158.34,-970"/>
</g>
<g id="clust3" class="cluster">
<title>cluster_2</title>
<polygon fill="lightgray" stroke="lightgray" points="63.45,-856 63.45,-962 374.52,-962 374.52,-856 63.45,-856"/>
</g>
<g id="clust4" class="cluster">
<title>cluster_3</title>
<polygon fill="lightgray" stroke="lightgray" points="136.89,-580 136.89,-848 301.08,-848 301.08,-580 136.89,-580"/>
</g>
<g id="clust5" class="cluster">
<title>cluster_4</title>
<polygon fill="lightgray" stroke="lightgray" points="63.45,-412 63.45,-572 374.52,-572 374.52,-412 63.45,-412"/>
</g>
<g id="clust6" class="cluster">
<title>cluster_5</title>
<polygon fill="lightgray" stroke="lightgray" points="16,-298 16,-404 421.97,-404 421.97,-298 16,-298"/>
</g>
<g id="clust7" class="cluster">
<title>cluster_6</title>
<polygon fill="lightgray" stroke="lightgray" points="63.45,-184 63.45,-290 374.52,-290 374.52,-184 63.45,-184"/>
</g>
<g id="clust8" class="cluster">
<title>cluster_7</title>
<polygon fill="lightgray" stroke="lightgray" points="129.74,-16 129.74,-176 308.23,-176 308.23,-16 129.74,-16"/>
</g>
<!-- NPOSL&#45;3.0(1) -->
<g id="node1" class="node">
<title>NPOSL&#45;3.0(1)</title>
<ellipse fill="springgreen" stroke="springgreen" cx="218.98" cy="-996" rx="52.79" ry="18"/>
<text text-anchor="middle" x="218.98" y="-992.3" font-family="Times,serif" font-size="14.00">NPOSL&#45;3.0</text>
</g>
<!-- NPOSL&#45;3.0(2) -->
<g id="node2" class="node">
<title>NPOSL&#45;3.0(2)</title>
<ellipse fill="springgreen" stroke="springgreen" cx="218.98" cy="-936" rx="52.79" ry="18"/>
<text text-anchor="middle" x="218.98" y="-932.3" font-family="Times,serif" font-size="14.00">NPOSL&#45;3.0</text>
</g>
<!-- Non&#45;Profit Open Software License 3.0(2) -->
<g id="node3" class="node">
<title>Non&#45;Profit Open Software License 3.0(2)</title>
<ellipse fill="white" stroke="white" cx="218.98" cy="-882" rx="147.57" ry="18"/>
<text text-anchor="middle" x="218.98" y="-878.3" font-family="Times,serif" font-size="14.00">Non&#45;Profit Open Software License 3.0</text>
</g>
<!-- NPOSL 3.0(3) -->
<g id="node4" class="node">
<title>NPOSL 3.0(3)</title>
<ellipse fill="white" stroke="white" cx="218.98" cy="-822" rx="51.99" ry="18"/>
<text text-anchor="middle" x="218.98" y="-818.3" font-family="Times,serif" font-size="14.00">NPOSL 3.0</text>
</g>
<!-- NPOSL&#45;3.0(3) -->
<g id="node5" class="node">
<title>NPOSL&#45;3.0(3)</title>
<ellipse fill="springgreen" stroke="springgreen" cx="218.98" cy="-768" rx="52.79" ry="18"/>
<text text-anchor="middle" x="218.98" y="-764.3" font-family="Times,serif" font-size="14.00">NPOSL&#45;3.0</text>
</g>
<!-- osi:NOSL3.0(3) -->
<g id="node6" class="node">
<title>osi:NOSL3.0(3)</title>
<ellipse fill="white" stroke="white" cx="218.98" cy="-714" rx="57.69" ry="18"/>
<text text-anchor="middle" x="218.98" y="-710.3" font-family="Times,serif" font-size="14.00">osi:NOSL3.0</text>
</g>
<!-- osi:NPOSL&#45;3.0(3) -->
<g id="node7" class="node">
<title>osi:NPOSL&#45;3.0(3)</title>
<ellipse fill="white" stroke="white" cx="218.98" cy="-660" rx="65.79" ry="18"/>
<text text-anchor="middle" x="218.98" y="-656.3" font-family="Times,serif" font-size="14.00">osi:NPOSL&#45;3.0</text>
</g>
<!-- scancode:nosl&#45;3.0(3) -->
<g id="node8" class="node">
<title>scancode:nosl&#45;3.0(3)</title>
<ellipse fill="white" stroke="white" cx="218.98" cy="-606" rx="74.19" ry="18"/>
<text text-anchor="middle" x="218.98" y="-602.3" font-family="Times,serif" font-size="14.00">scancode:nosl&#45;3.0</text>
</g>
<!-- NPOSL&#45;3.0(4) -->
<g id="node9" class="node">
<title>NPOSL&#45;3.0(4)</title>
<ellipse fill="springgreen" stroke="springgreen" cx="218.98" cy="-546" rx="52.79" ry="18"/>
<text text-anchor="middle" x="218.98" y="-542.3" font-family="Times,serif" font-size="14.00">NPOSL&#45;3.0</text>
</g>
<!-- Non&#45;Profit Open Software License 3.0(4) -->
<g id="node10" class="node">
<title>Non&#45;Profit Open Software License 3.0(4)</title>
<ellipse fill="white" stroke="white" cx="218.98" cy="-492" rx="147.57" ry="18"/>
<text text-anchor="middle" x="218.98" y="-488.3" font-family="Times,serif" font-size="14.00">Non&#45;Profit Open Software License 3.0</text>
</g>
<!-- nosl3.0(4) -->
<g id="node11" class="node">
<title>nosl3.0(4)</title>
<ellipse fill="white" stroke="white" cx="218.98" cy="-438" rx="36.29" ry="18"/>
<text text-anchor="middle" x="218.98" y="-434.3" font-family="Times,serif" font-size="14.00">nosl3.0</text>
</g>
<!-- NPOSL&#45;3.0(5) -->
<g id="node12" class="node">
<title>NPOSL&#45;3.0(5)</title>
<ellipse fill="springgreen" stroke="springgreen" cx="218.98" cy="-378" rx="52.79" ry="18"/>
<text text-anchor="middle" x="218.98" y="-374.3" font-family="Times,serif" font-size="14.00">NPOSL&#45;3.0</text>
</g>
<!-- The Non&#45;Profit Open Software License, Version 3.0(5) -->
<g id="node13" class="node">
<title>The Non&#45;Profit Open Software License, Version 3.0(5)</title>
<ellipse fill="white" stroke="white" cx="218.98" cy="-324" rx="194.97" ry="18"/>
<text text-anchor="middle" x="218.98" y="-320.3" font-family="Times,serif" font-size="14.00">The Non&#45;Profit Open Software License, Version 3.0</text>
</g>
<!-- NPOSL&#45;3.0(6) -->
<g id="node14" class="node">
<title>NPOSL&#45;3.0(6)</title>
<ellipse fill="springgreen" stroke="springgreen" cx="218.98" cy="-264" rx="52.79" ry="18"/>
<text text-anchor="middle" x="218.98" y="-260.3" font-family="Times,serif" font-size="14.00">NPOSL&#45;3.0</text>
</g>
<!-- Non&#45;Profit Open Software License 3.0(6) -->
<g id="node15" class="node">
<title>Non&#45;Profit Open Software License 3.0(6)</title>
<ellipse fill="white" stroke="white" cx="218.98" cy="-210" rx="147.57" ry="18"/>
<text text-anchor="middle" x="218.98" y="-206.3" font-family="Times,serif" font-size="14.00">Non&#45;Profit Open Software License 3.0</text>
</g>
<!-- NPOSL&#45;3.0(7) -->
<g id="node16" class="node">
<title>NPOSL&#45;3.0(7)</title>
<ellipse fill="springgreen" stroke="springgreen" cx="218.98" cy="-150" rx="52.79" ry="18"/>
<text text-anchor="middle" x="218.98" y="-146.3" font-family="Times,serif" font-size="14.00">NPOSL&#45;3.0</text>
</g>
<!-- Non&#45;Profit OSL 3.0(7) -->
<g id="node17" class="node">
<title>Non&#45;Profit OSL 3.0(7)</title>
<ellipse fill="white" stroke="white" cx="218.98" cy="-96" rx="81.49" ry="18"/>
<text text-anchor="middle" x="218.98" y="-92.3" font-family="Times,serif" font-size="14.00">Non&#45;Profit OSL 3.0</text>
</g>
<!-- scancode://nosl&#45;3.0(7) -->
<g id="node18" class="node">
<title>scancode://nosl&#45;3.0(7)</title>
<ellipse fill="white" stroke="white" cx="218.98" cy="-42" rx="79.09" ry="18"/>
<text text-anchor="middle" x="218.98" y="-38.3" font-family="Times,serif" font-size="14.00">scancode://nosl&#45;3.0</text>
</g>
</g>
</svg>
