<?xml version="1.0" encoding="UTF-8" standalone="no"?>
<!DOCTYPE svg PUBLIC "-//W3C//DTD SVG 1.1//EN"
 "http://www.w3.org/Graphics/SVG/1.1/DTD/svg11.dtd">
<!-- Generated by graphviz version 2.43.0 (0)
 -->
<!-- Title: NTP Pages: 1 -->
<svg width="1347pt" height="114pt"
 viewBox="0.00 0.00 1347.00 114.43" xmlns="http://www.w3.org/2000/svg" xmlns:xlink="http://www.w3.org/1999/xlink">
<g id="graph0" class="graph" transform="scale(1 1) rotate(0) translate(4 110.43)">
<title>NTP</title>
<polygon fill="white" stroke="transparent" points="-4,4 -4,-110.43 1343,-110.43 1343,4 -4,4"/>
<g id="clust1" class="cluster">
<title>cluster_0</title>
<polygon fill="none" stroke="black" points="8,-8 8,-98.43 1331,-98.43 1331,-8 8,-8"/>
</g>
<g id="clust2" class="cluster">
<title>cluster_1</title>
<polygon fill="none" stroke="black" points="198,-16 198,-90.43 1323,-90.43 1323,-16 198,-16"/>
</g>
<g id="clust3" class="cluster">
<title>cluster_2</title>
<polygon fill="lightgray" stroke="lightgray" points="1219,-24 1219,-82.43 1315,-82.43 1315,-24 1219,-24"/>
</g>
<g id="clust4" class="cluster">
<title>cluster_3</title>
<polygon fill="lightgray" stroke="lightgray" points="1065,-27.21 1065,-79.21 1211,-79.21 1211,-27.21 1065,-27.21"/>
</g>
<g id="clust6" class="cluster">
<title>cluster_5</title>
<polygon fill="lightgray" stroke="lightgray" points="414,-27.21 414,-79.21 1057,-79.21 1057,-27.21 414,-27.21"/>
</g>
<g id="clust7" class="cluster">
<title>cluster_6</title>
<polygon fill="lightgray" stroke="lightgray" points="206,-27.21 206,-79.21 406,-79.21 406,-27.21 206,-27.21"/>
</g>
<g id="clust9" class="cluster">
<title>cluster_8</title>
<polygon fill="lightgray" stroke="lightgray" points="16,-27.21 16,-79.21 190,-79.21 190,-27.21 16,-27.21"/>
</g>
<!-- NTP -->
<g id="node1" class="node">
<title>NTP</title>
<ellipse fill="springgreen" stroke="springgreen" cx="1267" cy="-53.21" rx="39.7" ry="21.43"/>
<text text-anchor="middle" x="1267" y="-48.21" font-family="Times-Roman" font-size="20.00">NTP</text>
</g>
<!-- NTP License -->
<g id="node2" class="node">
<title>NTP License</title>
<ellipse fill="white" stroke="white" cx="1138" cy="-53.21" rx="64.99" ry="18"/>
<text text-anchor="middle" x="1138" y="-49.51" font-family="Times-Roman" font-size="14.00">NTP License</text>
</g>
<!-- MIT Old Style no advertising -->
<g id="node3" class="node">
<title>MIT Old Style no advertising</title>
<ellipse fill="white" stroke="white" cx="911" cy="-53.21" rx="138.38" ry="18"/>
<text text-anchor="middle" x="911" y="-49.51" font-family="Times-Roman" font-size="14.00">MIT Old Style no advertising</text>
</g>
<!-- scancode://mit&#45;old&#45;style&#45;no&#45;advert -->
<g id="node4" class="node">
<title>scancode://mit&#45;old&#45;style&#45;no&#45;advert</title>
<ellipse fill="white" stroke="white" cx="588" cy="-53.21" rx="166.27" ry="18"/>
<text text-anchor="middle" x="588" y="-49.51" font-family="Times-Roman" font-size="14.00">scancode://mit&#45;old&#45;style&#45;no&#45;advert</text>
</g>
<!-- NTP License (NTP) -->
<g id="node5" class="node">
<title>NTP License (NTP)</title>
<ellipse fill="white" stroke="white" cx="306" cy="-53.21" rx="92.08" ry="18"/>
<text text-anchor="middle" x="306" y="-49.51" font-family="Times-Roman" font-size="14.00">NTP License (NTP)</text>
</g>
<!-- scancode://ntpl -->
<g id="node6" class="node">
<title>scancode://ntpl</title>
<ellipse fill="white" stroke="white" cx="103" cy="-53.21" rx="79.09" ry="18"/>
<text text-anchor="middle" x="103" y="-49.51" font-family="Times-Roman" font-size="14.00">scancode://ntpl</text>
</g>
</g>
</svg>
