<?xml version="1.0" encoding="UTF-8" standalone="no"?>
<!DOCTYPE svg PUBLIC "-//W3C//DTD SVG 1.1//EN"
 "http://www.w3.org/Graphics/SVG/1.1/DTD/svg11.dtd">
<!-- Generated by graphviz version 2.43.0 (0)
 -->
<!-- Title: NTP Pages: 1 -->
<svg width="2160pt" height="131pt"
 viewBox="0.00 0.00 2160.00 131.00" xmlns="http://www.w3.org/2000/svg" xmlns:xlink="http://www.w3.org/1999/xlink">
<g id="graph0" class="graph" transform="scale(1 1) rotate(0) translate(4 127)">
<title>NTP</title>
<polygon fill="white" stroke="transparent" points="-4,4 -4,-127 2156,-127 2156,4 -4,4"/>
<g id="clust1" class="cluster">
<title>cluster_0</title>
<polygon fill="none" stroke="black" points="8,-8 8,-115 2144,-115 2144,-8 8,-8"/>
</g>
<g id="clust2" class="cluster">
<title>cluster_1</title>
<polygon fill="none" stroke="black" points="346,-16 346,-107 2136,-107 2136,-16 346,-16"/>
</g>
<g id="clust3" class="cluster">
<title>cluster_2</title>
<polygon fill="lightgray" stroke="lightgray" points="2054,-24 2054,-99 2128,-99 2128,-24 2054,-24"/>
<text text-anchor="middle" x="2091" y="-83.8" font-family="Times-Roman" font-size="14.00">prev</text>
</g>
<g id="clust4" class="cluster">
<title>cluster_3</title>
<polygon fill="lightgray" stroke="lightgray" points="1824,-24 1824,-76 2046,-76 2046,-24 1824,-24"/>
</g>
<g id="clust5" class="cluster">
<title>cluster_4</title>
<polygon fill="lightgray" stroke="lightgray" points="1594,-24 1594,-76 1816,-76 1816,-24 1594,-24"/>
</g>
<g id="clust6" class="cluster">
<title>cluster_5</title>
<polygon fill="lightgray" stroke="lightgray" points="868,-24 868,-76 1586,-76 1586,-24 868,-24"/>
</g>
<g id="clust7" class="cluster">
<title>cluster_6</title>
<polygon fill="lightgray" stroke="lightgray" points="584,-24 584,-76 860,-76 860,-24 584,-24"/>
</g>
<g id="clust8" class="cluster">
<title>cluster_7</title>
<polygon fill="lightgray" stroke="lightgray" points="354,-24 354,-76 576,-76 576,-24 354,-24"/>
</g>
<g id="clust9" class="cluster">
<title>cluster_8</title>
<polygon fill="lightgray" stroke="lightgray" points="16,-24 16,-76 338,-76 338,-24 16,-24"/>
</g>
<!-- NTP(2) -->
<g id="node1" class="node">
<title>NTP(2)</title>
<ellipse fill="springgreen" stroke="springgreen" cx="2091" cy="-50" rx="28.7" ry="18"/>
<text text-anchor="middle" x="2091" y="-46.3" font-family="Times-Roman" font-size="14.00">NTP</text>
</g>
<!-- NTP(3) -->
<g id="node2" class="node">
<title>NTP(3)</title>
<ellipse fill="springgreen" stroke="springgreen" cx="2009" cy="-50" rx="28.7" ry="18"/>
<text text-anchor="middle" x="2009" y="-46.3" font-family="Times-Roman" font-size="14.00">NTP</text>
</g>
<!-- NTP License(3) -->
<g id="node3" class="node">
<title>NTP License(3)</title>
<ellipse fill="white" stroke="white" cx="1897" cy="-50" rx="64.99" ry="18"/>
<text text-anchor="middle" x="1897" y="-46.3" font-family="Times-Roman" font-size="14.00">NTP License</text>
</g>
<!-- NTP(4) -->
<g id="node4" class="node">
<title>NTP(4)</title>
<ellipse fill="springgreen" stroke="springgreen" cx="1779" cy="-50" rx="28.7" ry="18"/>
<text text-anchor="middle" x="1779" y="-46.3" font-family="Times-Roman" font-size="14.00">NTP</text>
</g>
<!-- NTP License(4) -->
<g id="node5" class="node">
<title>NTP License(4)</title>
<ellipse fill="white" stroke="white" cx="1667" cy="-50" rx="64.99" ry="18"/>
<text text-anchor="middle" x="1667" y="-46.3" font-family="Times-Roman" font-size="14.00">NTP License</text>
</g>
<!-- MIT Old Style no advertising(5) -->
<g id="node6" class="node">
<title>MIT Old Style no advertising(5)</title>
<ellipse fill="white" stroke="white" cx="1440" cy="-50" rx="138.38" ry="18"/>
<text text-anchor="middle" x="1440" y="-46.3" font-family="Times-Roman" font-size="14.00">MIT Old Style no advertising</text>
</g>
<!-- NTP(5) -->
<g id="node7" class="node">
<title>NTP(5)</title>
<ellipse fill="springgreen" stroke="springgreen" cx="1255" cy="-50" rx="28.7" ry="18"/>
<text text-anchor="middle" x="1255" y="-46.3" font-family="Times-Roman" font-size="14.00">NTP</text>
</g>
<!-- scancode://mit&#45;old&#45;style&#45;no&#45;advert(5) -->
<g id="node8" class="node">
<title>scancode://mit&#45;old&#45;style&#45;no&#45;advert(5)</title>
<ellipse fill="white" stroke="white" cx="1042" cy="-50" rx="166.27" ry="18"/>
<text text-anchor="middle" x="1042" y="-46.3" font-family="Times-Roman" font-size="14.00">scancode://mit&#45;old&#45;style&#45;no&#45;advert</text>
</g>
<!-- NTP(6) -->
<g id="node9" class="node">
<title>NTP(6)</title>
<ellipse fill="springgreen" stroke="springgreen" cx="823" cy="-50" rx="28.7" ry="18"/>
<text text-anchor="middle" x="823" y="-46.3" font-family="Times-Roman" font-size="14.00">NTP</text>
</g>
<!-- NTP License (NTP)(6) -->
<g id="node10" class="node">
<title>NTP License (NTP)(6)</title>
<ellipse fill="white" stroke="white" cx="684" cy="-50" rx="92.08" ry="18"/>
<text text-anchor="middle" x="684" y="-46.3" font-family="Times-Roman" font-size="14.00">NTP License (NTP)</text>
</g>
<!-- NTP(7) -->
<g id="node11" class="node">
<title>NTP(7)</title>
<ellipse fill="springgreen" stroke="springgreen" cx="539" cy="-50" rx="28.7" ry="18"/>
<text text-anchor="middle" x="539" y="-46.3" font-family="Times-Roman" font-size="14.00">NTP</text>
</g>
<!-- NTP License(7) -->
<g id="node12" class="node">
<title>NTP License(7)</title>
<ellipse fill="white" stroke="white" cx="427" cy="-50" rx="64.99" ry="18"/>
<text text-anchor="middle" x="427" y="-46.3" font-family="Times-Roman" font-size="14.00">NTP License</text>
</g>
<!-- NTP License(8) -->
<g id="node13" class="node">
<title>NTP License(8)</title>
<ellipse fill="white" stroke="white" cx="265" cy="-50" rx="64.99" ry="18"/>
<text text-anchor="middle" x="265" y="-46.3" font-family="Times-Roman" font-size="14.00">NTP License</text>
</g>
<!-- scancode://ntpl(8) -->
<g id="node14" class="node">
<title>scancode://ntpl(8)</title>
<ellipse fill="white" stroke="white" cx="103" cy="-50" rx="79.09" ry="18"/>
<text text-anchor="middle" x="103" y="-46.3" font-family="Times-Roman" font-size="14.00">scancode://ntpl</text>
</g>
</g>
</svg>
