<?xml version="1.0" encoding="UTF-8" standalone="no"?>
<!DOCTYPE svg PUBLIC "-//W3C//DTD SVG 1.1//EN"
 "http://www.w3.org/Graphics/SVG/1.1/DTD/svg11.dtd">
<!-- Generated by graphviz version 2.43.0 (0)
 -->
<!-- Title: O&#45;UDA&#45;1.0 Pages: 1 -->
<svg width="389pt" height="320pt"
 viewBox="0.00 0.00 388.77 320.00" xmlns="http://www.w3.org/2000/svg" xmlns:xlink="http://www.w3.org/1999/xlink">
<g id="graph0" class="graph" transform="scale(1 1) rotate(0) translate(4 316)">
<title>O&#45;UDA&#45;1.0</title>
<polygon fill="white" stroke="transparent" points="-4,4 -4,-316 384.77,-316 384.77,4 -4,4"/>
<g id="clust1" class="cluster">
<title>cluster_0</title>
<polygon fill="none" stroke="black" points="8,-8 8,-304 372.77,-304 372.77,-8 8,-8"/>
</g>
<g id="clust2" class="cluster">
<title>cluster_1</title>
<polygon fill="lightgray" stroke="lightgray" points="123.24,-244 123.24,-296 257.53,-296 257.53,-244 123.24,-244"/>
</g>
<g id="clust3" class="cluster">
<title>cluster_2</title>
<polygon fill="lightgray" stroke="lightgray" points="16,-130 16,-236 364.77,-236 364.77,-130 16,-130"/>
</g>
<g id="clust4" class="cluster">
<title>cluster_3</title>
<polygon fill="lightgray" stroke="lightgray" points="75.79,-16 75.79,-122 304.98,-122 304.98,-16 75.79,-16"/>
</g>
<!-- O&#45;UDA&#45;1.0(1) -->
<g id="node1" class="node">
<title>O&#45;UDA&#45;1.0(1)</title>
<ellipse fill="springgreen" stroke="springgreen" cx="190.39" cy="-270" rx="59.29" ry="18"/>
<text text-anchor="middle" x="190.39" y="-266.3" font-family="Times-Roman" font-size="14.00">O&#45;UDA&#45;1.0</text>
</g>
<!-- O&#45;UDA&#45;1.0(2) -->
<g id="node2" class="node">
<title>O&#45;UDA&#45;1.0(2)</title>
<ellipse fill="springgreen" stroke="springgreen" cx="190.39" cy="-210" rx="59.29" ry="18"/>
<text text-anchor="middle" x="190.39" y="-206.3" font-family="Times-Roman" font-size="14.00">O&#45;UDA&#45;1.0</text>
</g>
<!-- Open Use of Data Agreement v1.0(2) -->
<g id="node3" class="node">
<title>Open Use of Data Agreement v1.0(2)</title>
<ellipse fill="white" stroke="white" cx="190.39" cy="-156" rx="166.27" ry="18"/>
<text text-anchor="middle" x="190.39" y="-152.3" font-family="Times-Roman" font-size="14.00">Open Use of Data Agreement v1.0</text>
</g>
<!-- O&#45;UDA&#45;1.0(3) -->
<g id="node4" class="node">
<title>O&#45;UDA&#45;1.0(3)</title>
<ellipse fill="springgreen" stroke="springgreen" cx="190.39" cy="-96" rx="59.29" ry="18"/>
<text text-anchor="middle" x="190.39" y="-92.3" font-family="Times-Roman" font-size="14.00">O&#45;UDA&#45;1.0</text>
</g>
<!-- scancode://o&#45;uda&#45;1.0(3) -->
<g id="node5" class="node">
<title>scancode://o&#45;uda&#45;1.0(3)</title>
<ellipse fill="white" stroke="white" cx="190.39" cy="-42" rx="106.68" ry="18"/>
<text text-anchor="middle" x="190.39" y="-38.3" font-family="Times-Roman" font-size="14.00">scancode://o&#45;uda&#45;1.0</text>
</g>
</g>
</svg>
