<?xml version="1.0" encoding="UTF-8" standalone="no"?>
<!DOCTYPE svg PUBLIC "-//W3C//DTD SVG 1.1//EN"
 "http://www.w3.org/Graphics/SVG/1.1/DTD/svg11.dtd">
<!-- Generated by graphviz version 2.43.0 (0)
 -->
<!-- Title: OCLC&#45;2.0 Pages: 1 -->
<svg width="382pt" height="542pt"
 viewBox="0.00 0.00 382.27 542.00" xmlns="http://www.w3.org/2000/svg" xmlns:xlink="http://www.w3.org/1999/xlink">
<g id="graph0" class="graph" transform="scale(1 1) rotate(0) translate(4 538)">
<title>OCLC&#45;2.0</title>
<polygon fill="white" stroke="transparent" points="-4,4 -4,-538 378.27,-538 378.27,4 -4,4"/>
<g id="clust1" class="cluster">
<title>cluster_0</title>
<polygon fill="none" stroke="black" points="8,-8 8,-526 366.27,-526 366.27,-8 8,-8"/>
</g>
<g id="clust2" class="cluster">
<title>cluster_1</title>
<polygon fill="lightgray" stroke="lightgray" points="125.19,-466 125.19,-518 249.08,-518 249.08,-466 125.19,-466"/>
</g>
<g id="clust3" class="cluster">
<title>cluster_2</title>
<polygon fill="lightgray" stroke="lightgray" points="16,-352 16,-458 358.27,-458 358.27,-352 16,-352"/>
</g>
<g id="clust4" class="cluster">
<title>cluster_3</title>
<polygon fill="lightgray" stroke="lightgray" points="16,-184 16,-344 358.27,-344 358.27,-184 16,-184"/>
</g>
<g id="clust5" class="cluster">
<title>cluster_4</title>
<polygon fill="lightgray" stroke="lightgray" points="16,-16 16,-176 358.27,-176 358.27,-16 16,-16"/>
</g>
<!-- OCLC&#45;2.0(1) -->
<g id="node1" class="node">
<title>OCLC&#45;2.0(1)</title>
<ellipse fill="springgreen" stroke="springgreen" cx="187.14" cy="-492" rx="53.89" ry="18"/>
<text text-anchor="middle" x="187.14" y="-488.3" font-family="Times-Roman" font-size="14.00">OCLC&#45;2.0</text>
</g>
<!-- OCLC Research Public License 2.0(2) -->
<g id="node2" class="node">
<title>OCLC Research Public License 2.0(2)</title>
<ellipse fill="white" stroke="white" cx="187.14" cy="-432" rx="163.27" ry="18"/>
<text text-anchor="middle" x="187.14" y="-428.3" font-family="Times-Roman" font-size="14.00">OCLC Research Public License 2.0</text>
</g>
<!-- OCLC&#45;2.0(2) -->
<g id="node3" class="node">
<title>OCLC&#45;2.0(2)</title>
<ellipse fill="springgreen" stroke="springgreen" cx="187.14" cy="-378" rx="53.89" ry="18"/>
<text text-anchor="middle" x="187.14" y="-374.3" font-family="Times-Roman" font-size="14.00">OCLC&#45;2.0</text>
</g>
<!-- OCLC Research Public License 2.0(3) -->
<g id="node4" class="node">
<title>OCLC Research Public License 2.0(3)</title>
<ellipse fill="white" stroke="white" cx="187.14" cy="-318" rx="163.27" ry="18"/>
<text text-anchor="middle" x="187.14" y="-314.3" font-family="Times-Roman" font-size="14.00">OCLC Research Public License 2.0</text>
</g>
<!-- OCLC&#45;2.0(3) -->
<g id="node5" class="node">
<title>OCLC&#45;2.0(3)</title>
<ellipse fill="springgreen" stroke="springgreen" cx="187.14" cy="-264" rx="53.89" ry="18"/>
<text text-anchor="middle" x="187.14" y="-260.3" font-family="Times-Roman" font-size="14.00">OCLC&#45;2.0</text>
</g>
<!-- scancode://oclc&#45;2.0(3) -->
<g id="node6" class="node">
<title>scancode://oclc&#45;2.0(3)</title>
<ellipse fill="white" stroke="white" cx="187.14" cy="-210" rx="97.48" ry="18"/>
<text text-anchor="middle" x="187.14" y="-206.3" font-family="Times-Roman" font-size="14.00">scancode://oclc&#45;2.0</text>
</g>
<!-- OCLC Research Public License 2.0(4) -->
<g id="node7" class="node">
<title>OCLC Research Public License 2.0(4)</title>
<ellipse fill="white" stroke="white" cx="187.14" cy="-150" rx="163.27" ry="18"/>
<text text-anchor="middle" x="187.14" y="-146.3" font-family="Times-Roman" font-size="14.00">OCLC Research Public License 2.0</text>
</g>
<!-- OCLC&#45;2.0(4) -->
<g id="node8" class="node">
<title>OCLC&#45;2.0(4)</title>
<ellipse fill="springgreen" stroke="springgreen" cx="187.14" cy="-96" rx="53.89" ry="18"/>
<text text-anchor="middle" x="187.14" y="-92.3" font-family="Times-Roman" font-size="14.00">OCLC&#45;2.0</text>
</g>
<!-- oclc2(4) -->
<g id="node9" class="node">
<title>oclc2(4)</title>
<ellipse fill="white" stroke="white" cx="187.14" cy="-42" rx="34.39" ry="18"/>
<text text-anchor="middle" x="187.14" y="-38.3" font-family="Times-Roman" font-size="14.00">oclc2</text>
</g>
</g>
</svg>
