<?xml version="1.0" encoding="UTF-8" standalone="no"?>
<!DOCTYPE svg PUBLIC "-//W3C//DTD SVG 1.1//EN"
 "http://www.w3.org/Graphics/SVG/1.1/DTD/svg11.dtd">
<!-- Generated by graphviz version 2.43.0 (0)
 -->
<!-- Title: OCLC&#45;2.0 Pages: 1 -->
<svg width="1248pt" height="98pt"
 viewBox="0.00 0.00 1248.00 98.43" xmlns="http://www.w3.org/2000/svg" xmlns:xlink="http://www.w3.org/1999/xlink">
<g id="graph0" class="graph" transform="scale(1 1) rotate(0) translate(4 94.43)">
<title>OCLC&#45;2.0</title>
<polygon fill="white" stroke="transparent" points="-4,4 -4,-94.43 1244,-94.43 1244,4 -4,4"/>
<g id="clust1" class="cluster">
<title>cluster_0</title>
<polygon fill="none" stroke="black" points="8,-8 8,-82.43 1232,-82.43 1232,-8 8,-8"/>
</g>
<g id="clust2" class="cluster">
<title>cluster_1</title>
<polygon fill="lightgray" stroke="lightgray" points="1052,-16 1052,-74.43 1224,-74.43 1224,-16 1052,-16"/>
</g>
<g id="clust3" class="cluster">
<title>cluster_2</title>
<polygon fill="lightgray" stroke="lightgray" points="702,-19.21 702,-71.21 1044,-71.21 1044,-19.21 702,-19.21"/>
</g>
<g id="clust4" class="cluster">
<title>cluster_3</title>
<polygon fill="lightgray" stroke="lightgray" points="484,-19.21 484,-71.21 694,-71.21 694,-19.21 484,-19.21"/>
</g>
<g id="clust5" class="cluster">
<title>cluster_4</title>
<polygon fill="lightgray" stroke="lightgray" points="16,-19.21 16,-71.21 476,-71.21 476,-19.21 16,-19.21"/>
</g>
<!-- OCLC&#45;2.0 -->
<g id="node1" class="node">
<title>OCLC&#45;2.0</title>
<ellipse fill="white" stroke="white" cx="1138" cy="-45.21" rx="78.48" ry="21.43"/>
<text text-anchor="middle" x="1138" y="-40.21" font-family="Times-Roman" font-size="20.00" fill="#00ff00">OCLC&#45;2.0</text>
</g>
<!-- OCLC Research Public License 2.0 -->
<g id="node2" class="node">
<title>OCLC Research Public License 2.0</title>
<ellipse fill="white" stroke="white" cx="873" cy="-45.21" rx="163.27" ry="18"/>
<text text-anchor="middle" x="873" y="-41.51" font-family="Times-Roman" font-size="14.00">OCLC Research Public License 2.0</text>
</g>
<!-- scancode://oclc&#45;2.0 -->
<g id="node3" class="node">
<title>scancode://oclc&#45;2.0</title>
<ellipse fill="white" stroke="white" cx="589" cy="-45.21" rx="97.48" ry="18"/>
<text text-anchor="middle" x="589" y="-41.51" font-family="Times-Roman" font-size="14.00">scancode://oclc&#45;2.0</text>
</g>
<!-- The OCLC Research Public License, Version 2.0 -->
<g id="node4" class="node">
<title>The OCLC Research Public License, Version 2.0</title>
<ellipse fill="white" stroke="white" cx="246" cy="-45.21" rx="221.76" ry="18"/>
<text text-anchor="middle" x="246" y="-41.51" font-family="Times-Roman" font-size="14.00">The OCLC Research Public License, Version 2.0</text>
</g>
</g>
</svg>
