<?xml version="1.0" encoding="UTF-8" standalone="no"?>
<!DOCTYPE svg PUBLIC "-//W3C//DTD SVG 1.1//EN"
 "http://www.w3.org/Graphics/SVG/1.1/DTD/svg11.dtd">
<!-- Generated by graphviz version 2.47.3 (0)
 -->
<!-- Title: OCLC&#45;2.0 Pages: 1 -->
<svg width="425pt" height="656pt"
 viewBox="0.00 0.00 425.17 656.00" xmlns="http://www.w3.org/2000/svg" xmlns:xlink="http://www.w3.org/1999/xlink">
<g id="graph0" class="graph" transform="scale(1 1) rotate(0) translate(4 652)">
<title>OCLC&#45;2.0</title>
<polygon fill="white" stroke="transparent" points="-4,4 -4,-652 421.17,-652 421.17,4 -4,4"/>
<g id="clust1" class="cluster">
<title>cluster_0</title>
<polygon fill="none" stroke="black" points="8,-8 8,-640 409.17,-640 409.17,-8 8,-8"/>
</g>
<g id="clust2" class="cluster">
<title>cluster_1</title>
<polygon fill="lightgray" stroke="lightgray" points="152.49,-580 152.49,-632 264.68,-632 264.68,-580 152.49,-580"/>
</g>
<g id="clust3" class="cluster">
<title>cluster_2</title>
<polygon fill="lightgray" stroke="lightgray" points="63.45,-412 63.45,-572 353.72,-572 353.72,-412 63.45,-412"/>
</g>
<g id="clust4" class="cluster">
<title>cluster_3</title>
<polygon fill="lightgray" stroke="lightgray" points="16,-298 16,-404 401.17,-404 401.17,-298 16,-298"/>
</g>
<g id="clust5" class="cluster">
<title>cluster_4</title>
<polygon fill="lightgray" stroke="lightgray" points="63.45,-184 63.45,-290 353.72,-290 353.72,-184 63.45,-184"/>
</g>
<g id="clust6" class="cluster">
<title>cluster_5</title>
<polygon fill="lightgray" stroke="lightgray" points="63.45,-16 63.45,-176 353.72,-176 353.72,-16 63.45,-16"/>
</g>
<!-- OCLC&#45;2.0(1) -->
<g id="node1" class="node">
<title>OCLC&#45;2.0(1)</title>
<ellipse fill="springgreen" stroke="springgreen" cx="208.58" cy="-606" rx="48.19" ry="18"/>
<text text-anchor="middle" x="208.58" y="-602.3" font-family="Times,serif" font-size="14.00">OCLC&#45;2.0</text>
</g>
<!-- OCLC Research Public License 2.0(2) -->
<g id="node2" class="node">
<title>OCLC Research Public License 2.0(2)</title>
<ellipse fill="white" stroke="white" cx="208.58" cy="-546" rx="137.28" ry="18"/>
<text text-anchor="middle" x="208.58" y="-542.3" font-family="Times,serif" font-size="14.00">OCLC Research Public License 2.0</text>
</g>
<!-- OCLC&#45;2.0(2) -->
<g id="node3" class="node">
<title>OCLC&#45;2.0(2)</title>
<ellipse fill="springgreen" stroke="springgreen" cx="208.58" cy="-492" rx="48.19" ry="18"/>
<text text-anchor="middle" x="208.58" y="-488.3" font-family="Times,serif" font-size="14.00">OCLC&#45;2.0</text>
</g>
<!-- oclc2(2) -->
<g id="node4" class="node">
<title>oclc2(2)</title>
<ellipse fill="white" stroke="white" cx="208.58" cy="-438" rx="29.8" ry="18"/>
<text text-anchor="middle" x="208.58" y="-434.3" font-family="Times,serif" font-size="14.00">oclc2</text>
</g>
<!-- OCLC&#45;2.0(3) -->
<g id="node5" class="node">
<title>OCLC&#45;2.0(3)</title>
<ellipse fill="springgreen" stroke="springgreen" cx="208.58" cy="-378" rx="48.19" ry="18"/>
<text text-anchor="middle" x="208.58" y="-374.3" font-family="Times,serif" font-size="14.00">OCLC&#45;2.0</text>
</g>
<!-- The OCLC Research Public License, Version 2.0(3) -->
<g id="node6" class="node">
<title>The OCLC Research Public License, Version 2.0(3)</title>
<ellipse fill="white" stroke="white" cx="208.58" cy="-324" rx="184.67" ry="18"/>
<text text-anchor="middle" x="208.58" y="-320.3" font-family="Times,serif" font-size="14.00">The OCLC Research Public License, Version 2.0</text>
</g>
<!-- OCLC Research Public License 2.0(4) -->
<g id="node7" class="node">
<title>OCLC Research Public License 2.0(4)</title>
<ellipse fill="white" stroke="white" cx="208.58" cy="-264" rx="137.28" ry="18"/>
<text text-anchor="middle" x="208.58" y="-260.3" font-family="Times,serif" font-size="14.00">OCLC Research Public License 2.0</text>
</g>
<!-- OCLC&#45;2.0(4) -->
<g id="node8" class="node">
<title>OCLC&#45;2.0(4)</title>
<ellipse fill="springgreen" stroke="springgreen" cx="208.58" cy="-210" rx="48.19" ry="18"/>
<text text-anchor="middle" x="208.58" y="-206.3" font-family="Times,serif" font-size="14.00">OCLC&#45;2.0</text>
</g>
<!-- OCLC Research Public License 2.0(5) -->
<g id="node9" class="node">
<title>OCLC Research Public License 2.0(5)</title>
<ellipse fill="white" stroke="white" cx="208.58" cy="-150" rx="137.28" ry="18"/>
<text text-anchor="middle" x="208.58" y="-146.3" font-family="Times,serif" font-size="14.00">OCLC Research Public License 2.0</text>
</g>
<!-- OCLC&#45;2.0(5) -->
<g id="node10" class="node">
<title>OCLC&#45;2.0(5)</title>
<ellipse fill="springgreen" stroke="springgreen" cx="208.58" cy="-96" rx="48.19" ry="18"/>
<text text-anchor="middle" x="208.58" y="-92.3" font-family="Times,serif" font-size="14.00">OCLC&#45;2.0</text>
</g>
<!-- scancode://oclc&#45;2.0(5) -->
<g id="node11" class="node">
<title>scancode://oclc&#45;2.0(5)</title>
<ellipse fill="white" stroke="white" cx="208.58" cy="-42" rx="79.09" ry="18"/>
<text text-anchor="middle" x="208.58" y="-38.3" font-family="Times,serif" font-size="14.00">scancode://oclc&#45;2.0</text>
</g>
</g>
</svg>
