<?xml version="1.0" encoding="UTF-8" standalone="no"?>
<!DOCTYPE svg PUBLIC "-//W3C//DTD SVG 1.1//EN"
 "http://www.w3.org/Graphics/SVG/1.1/DTD/svg11.dtd">
<!-- Generated by graphviz version 2.43.0 (0)
 -->
<!-- Title: OFL&#45;1.0 Pages: 1 -->
<svg width="784pt" height="98pt"
 viewBox="0.00 0.00 784.00 98.43" xmlns="http://www.w3.org/2000/svg" xmlns:xlink="http://www.w3.org/1999/xlink">
<g id="graph0" class="graph" transform="scale(1 1) rotate(0) translate(4 94.43)">
<title>OFL&#45;1.0</title>
<polygon fill="white" stroke="transparent" points="-4,4 -4,-94.43 780,-94.43 780,4 -4,4"/>
<g id="clust1" class="cluster">
<title>cluster_0</title>
<polygon fill="none" stroke="black" points="8,-8 8,-82.43 768,-82.43 768,-8 8,-8"/>
</g>
<g id="clust2" class="cluster">
<title>cluster_1</title>
<polygon fill="lightgray" stroke="lightgray" points="612,-16 612,-74.43 760,-74.43 760,-16 612,-16"/>
</g>
<g id="clust3" class="cluster">
<title>cluster_2</title>
<polygon fill="lightgray" stroke="lightgray" points="332,-19.21 332,-71.21 604,-71.21 604,-19.21 332,-19.21"/>
</g>
<g id="clust4" class="cluster">
<title>cluster_3</title>
<polygon fill="lightgray" stroke="lightgray" points="16,-19.21 16,-71.21 324,-71.21 324,-19.21 16,-19.21"/>
</g>
<!-- OFL&#45;1.0 -->
<g id="node1" class="node">
<title>OFL&#45;1.0</title>
<ellipse fill="springgreen" stroke="springgreen" cx="686" cy="-45.21" rx="65.52" ry="21.43"/>
<text text-anchor="middle" x="686" y="-40.21" font-family="Times-Roman" font-size="20.00">OFL&#45;1.0</text>
</g>
<!-- SIL Open Font License 1.0 -->
<g id="node2" class="node">
<title>SIL Open Font License 1.0</title>
<ellipse fill="white" stroke="white" cx="468" cy="-45.21" rx="128.08" ry="18"/>
<text text-anchor="middle" x="468" y="-41.51" font-family="Times-Roman" font-size="14.00">SIL Open Font License 1.0</text>
</g>
<!-- OFL 1.0 -->
<g id="node3" class="node">
<title>OFL 1.0</title>
<ellipse fill="white" stroke="white" cx="270" cy="-45.21" rx="46.29" ry="18"/>
<text text-anchor="middle" x="270" y="-41.51" font-family="Times-Roman" font-size="14.00">OFL 1.0</text>
</g>
<!-- scancode://ofl&#45;1.0 -->
<g id="node4" class="node">
<title>scancode://ofl&#45;1.0</title>
<ellipse fill="white" stroke="white" cx="115" cy="-45.21" rx="90.98" ry="18"/>
<text text-anchor="middle" x="115" y="-41.51" font-family="Times-Roman" font-size="14.00">scancode://ofl&#45;1.0</text>
</g>
</g>
</svg>
