<?xml version="1.0" encoding="UTF-8" standalone="no"?>
<!DOCTYPE svg PUBLIC "-//W3C//DTD SVG 1.1//EN"
 "http://www.w3.org/Graphics/SVG/1.1/DTD/svg11.dtd">
<!-- Generated by graphviz version 2.43.0 (0)
 -->
<!-- Title: OFL&#45;1.0 Pages: 1 -->
<svg width="601pt" height="488pt"
 viewBox="0.00 0.00 600.65 488.00" xmlns="http://www.w3.org/2000/svg" xmlns:xlink="http://www.w3.org/1999/xlink">
<g id="graph0" class="graph" transform="scale(1 1) rotate(0) translate(4 484)">
<title>OFL&#45;1.0</title>
<polygon fill="white" stroke="transparent" points="-4,4 -4,-484 596.65,-484 596.65,4 -4,4"/>
<g id="clust1" class="cluster">
<title>cluster_0</title>
<polygon fill="none" stroke="black" points="8,-8 8,-472 584.65,-472 584.65,-8 8,-8"/>
</g>
<g id="clust2" class="cluster">
<title>cluster_1</title>
<polygon fill="lightgray" stroke="lightgray" points="242.18,-412 242.18,-464 350.47,-464 350.47,-412 242.18,-412"/>
</g>
<g id="clust3" class="cluster">
<title>cluster_2</title>
<polygon fill="lightgray" stroke="lightgray" points="16,-298 16,-404 576.65,-404 576.65,-298 16,-298"/>
</g>
<g id="clust4" class="cluster">
<title>cluster_3</title>
<polygon fill="lightgray" stroke="lightgray" points="160.29,-184 160.29,-290 432.36,-290 432.36,-184 160.29,-184"/>
</g>
<g id="clust5" class="cluster">
<title>cluster_4</title>
<polygon fill="lightgray" stroke="lightgray" points="197.33,-16 197.33,-176 395.32,-176 395.32,-16 197.33,-16"/>
</g>
<!-- OFL&#45;1.0(1) -->
<g id="node1" class="node">
<title>OFL&#45;1.0(1)</title>
<ellipse fill="springgreen" stroke="springgreen" cx="296.33" cy="-438" rx="46.29" ry="18"/>
<text text-anchor="middle" x="296.33" y="-434.3" font-family="Times-Roman" font-size="14.00">OFL&#45;1.0</text>
</g>
<!-- OFL&#45;1.0(2) -->
<g id="node2" class="node">
<title>OFL&#45;1.0(2)</title>
<ellipse fill="springgreen" stroke="springgreen" cx="296.33" cy="-378" rx="46.29" ry="18"/>
<text text-anchor="middle" x="296.33" y="-374.3" font-family="Times-Roman" font-size="14.00">OFL&#45;1.0</text>
</g>
<!-- SIL OPEN FONT LICENSE Version 1.0 &#45; 22 November 2005(2) -->
<g id="node3" class="node">
<title>SIL OPEN FONT LICENSE Version 1.0 &#45; 22 November 2005(2)</title>
<ellipse fill="white" stroke="white" cx="296.33" cy="-324" rx="272.15" ry="18"/>
<text text-anchor="middle" x="296.33" y="-320.3" font-family="Times-Roman" font-size="14.00">SIL OPEN FONT LICENSE Version 1.0 &#45; 22 November 2005</text>
</g>
<!-- OFL&#45;1.0(3) -->
<g id="node4" class="node">
<title>OFL&#45;1.0(3)</title>
<ellipse fill="springgreen" stroke="springgreen" cx="296.33" cy="-264" rx="46.29" ry="18"/>
<text text-anchor="middle" x="296.33" y="-260.3" font-family="Times-Roman" font-size="14.00">OFL&#45;1.0</text>
</g>
<!-- SIL Open Font License 1.0(3) -->
<g id="node5" class="node">
<title>SIL Open Font License 1.0(3)</title>
<ellipse fill="white" stroke="white" cx="296.33" cy="-210" rx="128.08" ry="18"/>
<text text-anchor="middle" x="296.33" y="-206.3" font-family="Times-Roman" font-size="14.00">SIL Open Font License 1.0</text>
</g>
<!-- OFL 1.0(4) -->
<g id="node6" class="node">
<title>OFL 1.0(4)</title>
<ellipse fill="white" stroke="white" cx="296.33" cy="-150" rx="46.29" ry="18"/>
<text text-anchor="middle" x="296.33" y="-146.3" font-family="Times-Roman" font-size="14.00">OFL 1.0</text>
</g>
<!-- OFL&#45;1.0(4) -->
<g id="node7" class="node">
<title>OFL&#45;1.0(4)</title>
<ellipse fill="springgreen" stroke="springgreen" cx="296.33" cy="-96" rx="46.29" ry="18"/>
<text text-anchor="middle" x="296.33" y="-92.3" font-family="Times-Roman" font-size="14.00">OFL&#45;1.0</text>
</g>
<!-- scancode://ofl&#45;1.0(4) -->
<g id="node8" class="node">
<title>scancode://ofl&#45;1.0(4)</title>
<ellipse fill="white" stroke="white" cx="296.33" cy="-42" rx="90.98" ry="18"/>
<text text-anchor="middle" x="296.33" y="-38.3" font-family="Times-Roman" font-size="14.00">scancode://ofl&#45;1.0</text>
</g>
</g>
</svg>
