<?xml version="1.0" encoding="UTF-8" standalone="no"?>
<!DOCTYPE svg PUBLIC "-//W3C//DTD SVG 1.1//EN"
 "http://www.w3.org/Graphics/SVG/1.1/DTD/svg11.dtd">
<!-- Generated by graphviz version 2.43.0 (0)
 -->
<!-- Title: OFL&#45;1.1 Pages: 1 -->
<svg width="390pt" height="992pt"
 viewBox="0.00 0.00 390.07 992.00" xmlns="http://www.w3.org/2000/svg" xmlns:xlink="http://www.w3.org/1999/xlink">
<g id="graph0" class="graph" transform="scale(1 1) rotate(0) translate(4 988)">
<title>OFL&#45;1.1</title>
<polygon fill="white" stroke="transparent" points="-4,4 -4,-988 386.07,-988 386.07,4 -4,4"/>
<g id="clust1" class="cluster">
<title>cluster_0</title>
<polygon fill="none" stroke="black" points="8,-8 8,-976 374.07,-976 374.07,-8 8,-8"/>
</g>
<g id="clust2" class="cluster">
<title>cluster_1</title>
<polygon fill="lightgray" stroke="lightgray" points="136.89,-916 136.89,-968 245.18,-968 245.18,-916 136.89,-916"/>
</g>
<g id="clust3" class="cluster">
<title>cluster_2</title>
<polygon fill="lightgray" stroke="lightgray" points="55,-802 55,-908 327.07,-908 327.07,-802 55,-802"/>
</g>
<g id="clust4" class="cluster">
<title>cluster_3</title>
<polygon fill="lightgray" stroke="lightgray" points="55,-526 55,-794 327.07,-794 327.07,-526 55,-526"/>
</g>
<g id="clust5" class="cluster">
<title>cluster_4</title>
<polygon fill="lightgray" stroke="lightgray" points="92.04,-358 92.04,-518 290.03,-518 290.03,-358 92.04,-358"/>
</g>
<g id="clust6" class="cluster">
<title>cluster_5</title>
<polygon fill="lightgray" stroke="lightgray" points="136.89,-244 136.89,-350 245.18,-350 245.18,-244 136.89,-244"/>
</g>
<g id="clust7" class="cluster">
<title>cluster_6</title>
<polygon fill="lightgray" stroke="lightgray" points="16,-130 16,-236 366.07,-236 366.07,-130 16,-130"/>
</g>
<g id="clust8" class="cluster">
<title>cluster_7</title>
<polygon fill="lightgray" stroke="lightgray" points="71.25,-16 71.25,-122 310.83,-122 310.83,-16 71.25,-16"/>
</g>
<!-- OFL&#45;1.1(1) -->
<g id="node1" class="node">
<title>OFL&#45;1.1(1)</title>
<ellipse fill="springgreen" stroke="springgreen" cx="191.04" cy="-942" rx="46.29" ry="18"/>
<text text-anchor="middle" x="191.04" y="-938.3" font-family="Times-Roman" font-size="14.00">OFL&#45;1.1</text>
</g>
<!-- OFL&#45;1.1(2) -->
<g id="node2" class="node">
<title>OFL&#45;1.1(2)</title>
<ellipse fill="springgreen" stroke="springgreen" cx="191.04" cy="-882" rx="46.29" ry="18"/>
<text text-anchor="middle" x="191.04" y="-878.3" font-family="Times-Roman" font-size="14.00">OFL&#45;1.1</text>
</g>
<!-- SIL Open Font License 1.1(2) -->
<g id="node3" class="node">
<title>SIL Open Font License 1.1(2)</title>
<ellipse fill="white" stroke="white" cx="191.04" cy="-828" rx="128.08" ry="18"/>
<text text-anchor="middle" x="191.04" y="-824.3" font-family="Times-Roman" font-size="14.00">SIL Open Font License 1.1</text>
</g>
<!-- OFL(3) -->
<g id="node4" class="node">
<title>OFL(3)</title>
<ellipse fill="white" stroke="white" cx="191.04" cy="-768" rx="28.7" ry="18"/>
<text text-anchor="middle" x="191.04" y="-764.3" font-family="Times-Roman" font-size="14.00">OFL</text>
</g>
<!-- OFL&#45;1.1(3) -->
<g id="node5" class="node">
<title>OFL&#45;1.1(3)</title>
<ellipse fill="springgreen" stroke="springgreen" cx="191.04" cy="-714" rx="46.29" ry="18"/>
<text text-anchor="middle" x="191.04" y="-710.3" font-family="Times-Roman" font-size="14.00">OFL&#45;1.1</text>
</g>
<!-- Open Font License(3) -->
<g id="node6" class="node">
<title>Open Font License(3)</title>
<ellipse fill="white" stroke="white" cx="191.04" cy="-660" rx="94.48" ry="18"/>
<text text-anchor="middle" x="191.04" y="-656.3" font-family="Times-Roman" font-size="14.00">Open Font License</text>
</g>
<!-- SIL Open Font License(3) -->
<g id="node7" class="node">
<title>SIL Open Font License(3)</title>
<ellipse fill="white" stroke="white" cx="191.04" cy="-606" rx="110.48" ry="18"/>
<text text-anchor="middle" x="191.04" y="-602.3" font-family="Times-Roman" font-size="14.00">SIL Open Font License</text>
</g>
<!-- SIL Open Font License 1.1(3) -->
<g id="node8" class="node">
<title>SIL Open Font License 1.1(3)</title>
<ellipse fill="white" stroke="white" cx="191.04" cy="-552" rx="128.08" ry="18"/>
<text text-anchor="middle" x="191.04" y="-548.3" font-family="Times-Roman" font-size="14.00">SIL Open Font License 1.1</text>
</g>
<!-- OFL 1.1(4) -->
<g id="node9" class="node">
<title>OFL 1.1(4)</title>
<ellipse fill="white" stroke="white" cx="191.04" cy="-492" rx="46.29" ry="18"/>
<text text-anchor="middle" x="191.04" y="-488.3" font-family="Times-Roman" font-size="14.00">OFL 1.1</text>
</g>
<!-- OFL&#45;1.1(4) -->
<g id="node10" class="node">
<title>OFL&#45;1.1(4)</title>
<ellipse fill="springgreen" stroke="springgreen" cx="191.04" cy="-438" rx="46.29" ry="18"/>
<text text-anchor="middle" x="191.04" y="-434.3" font-family="Times-Roman" font-size="14.00">OFL&#45;1.1</text>
</g>
<!-- scancode://ofl&#45;1.1(4) -->
<g id="node11" class="node">
<title>scancode://ofl&#45;1.1(4)</title>
<ellipse fill="white" stroke="white" cx="191.04" cy="-384" rx="90.98" ry="18"/>
<text text-anchor="middle" x="191.04" y="-380.3" font-family="Times-Roman" font-size="14.00">scancode://ofl&#45;1.1</text>
</g>
<!-- OFL&#45;1.1(5) -->
<g id="node12" class="node">
<title>OFL&#45;1.1(5)</title>
<ellipse fill="springgreen" stroke="springgreen" cx="191.04" cy="-324" rx="46.29" ry="18"/>
<text text-anchor="middle" x="191.04" y="-320.3" font-family="Times-Roman" font-size="14.00">OFL&#45;1.1</text>
</g>
<!-- ofl&#45;1.1(5) -->
<g id="node13" class="node">
<title>ofl&#45;1.1(5)</title>
<ellipse fill="white" stroke="white" cx="191.04" cy="-270" rx="40.09" ry="18"/>
<text text-anchor="middle" x="191.04" y="-266.3" font-family="Times-Roman" font-size="14.00">ofl&#45;1.1</text>
</g>
<!-- OFL&#45;1.1(6) -->
<g id="node14" class="node">
<title>OFL&#45;1.1(6)</title>
<ellipse fill="springgreen" stroke="springgreen" cx="191.04" cy="-210" rx="46.29" ry="18"/>
<text text-anchor="middle" x="191.04" y="-206.3" font-family="Times-Roman" font-size="14.00">OFL&#45;1.1</text>
</g>
<!-- SIL Open Font License, Version 1.1(6) -->
<g id="node15" class="node">
<title>SIL Open Font License, Version 1.1(6)</title>
<ellipse fill="white" stroke="white" cx="191.04" cy="-156" rx="167.07" ry="18"/>
<text text-anchor="middle" x="191.04" y="-152.3" font-family="Times-Roman" font-size="14.00">SIL Open Font License, Version 1.1</text>
</g>
<!-- OFL&#45;1.1(7) -->
<g id="node16" class="node">
<title>OFL&#45;1.1(7)</title>
<ellipse fill="springgreen" stroke="springgreen" cx="191.04" cy="-96" rx="46.29" ry="18"/>
<text text-anchor="middle" x="191.04" y="-92.3" font-family="Times-Roman" font-size="14.00">OFL&#45;1.1</text>
</g>
<!-- Open Font License 1.1(7) -->
<g id="node17" class="node">
<title>Open Font License 1.1(7)</title>
<ellipse fill="white" stroke="white" cx="191.04" cy="-42" rx="111.58" ry="18"/>
<text text-anchor="middle" x="191.04" y="-38.3" font-family="Times-Roman" font-size="14.00">Open Font License 1.1</text>
</g>
</g>
</svg>
