<?xml version="1.0" encoding="UTF-8" standalone="no"?>
<!DOCTYPE svg PUBLIC "-//W3C//DTD SVG 1.1//EN"
 "http://www.w3.org/Graphics/SVG/1.1/DTD/svg11.dtd">
<!-- Generated by graphviz version 2.43.0 (0)
 -->
<!-- Title: OFL&#45;1.1 Pages: 1 -->
<svg width="312pt" height="602pt"
 viewBox="0.00 0.00 312.08 602.00" xmlns="http://www.w3.org/2000/svg" xmlns:xlink="http://www.w3.org/1999/xlink">
<g id="graph0" class="graph" transform="scale(1 1) rotate(0) translate(4 598)">
<title>OFL&#45;1.1</title>
<polygon fill="white" stroke="transparent" points="-4,4 -4,-598 308.08,-598 308.08,4 -4,4"/>
<g id="clust1" class="cluster">
<title>cluster_0</title>
<polygon fill="none" stroke="black" points="8,-8 8,-586 296.08,-586 296.08,-8 8,-8"/>
</g>
<g id="clust2" class="cluster">
<title>cluster_1</title>
<polygon fill="lightgray" stroke="lightgray" points="97.89,-526 97.89,-578 206.18,-578 206.18,-526 97.89,-526"/>
</g>
<g id="clust3" class="cluster">
<title>cluster_2</title>
<polygon fill="lightgray" stroke="lightgray" points="16,-412 16,-518 288.08,-518 288.08,-412 16,-412"/>
</g>
<g id="clust4" class="cluster">
<title>cluster_3</title>
<polygon fill="lightgray" stroke="lightgray" points="53.05,-244 53.05,-404 251.03,-404 251.03,-244 53.05,-244"/>
</g>
<g id="clust5" class="cluster">
<title>cluster_4</title>
<polygon fill="lightgray" stroke="lightgray" points="97.89,-130 97.89,-236 206.18,-236 206.18,-130 97.89,-130"/>
</g>
<g id="clust6" class="cluster">
<title>cluster_5</title>
<polygon fill="lightgray" stroke="lightgray" points="32.25,-16 32.25,-122 271.83,-122 271.83,-16 32.25,-16"/>
</g>
<!-- OFL&#45;1.1(1) -->
<g id="node1" class="node">
<title>OFL&#45;1.1(1)</title>
<ellipse fill="springgreen" stroke="springgreen" cx="152.04" cy="-552" rx="46.29" ry="18"/>
<text text-anchor="middle" x="152.04" y="-548.3" font-family="Times-Roman" font-size="14.00">OFL&#45;1.1</text>
</g>
<!-- OFL&#45;1.1(2) -->
<g id="node2" class="node">
<title>OFL&#45;1.1(2)</title>
<ellipse fill="springgreen" stroke="springgreen" cx="152.04" cy="-492" rx="46.29" ry="18"/>
<text text-anchor="middle" x="152.04" y="-488.3" font-family="Times-Roman" font-size="14.00">OFL&#45;1.1</text>
</g>
<!-- SIL Open Font License 1.1(2) -->
<g id="node3" class="node">
<title>SIL Open Font License 1.1(2)</title>
<ellipse fill="white" stroke="white" cx="152.04" cy="-438" rx="128.08" ry="18"/>
<text text-anchor="middle" x="152.04" y="-434.3" font-family="Times-Roman" font-size="14.00">SIL Open Font License 1.1</text>
</g>
<!-- OFL 1.1(3) -->
<g id="node4" class="node">
<title>OFL 1.1(3)</title>
<ellipse fill="white" stroke="white" cx="152.04" cy="-378" rx="46.29" ry="18"/>
<text text-anchor="middle" x="152.04" y="-374.3" font-family="Times-Roman" font-size="14.00">OFL 1.1</text>
</g>
<!-- OFL&#45;1.1(3) -->
<g id="node5" class="node">
<title>OFL&#45;1.1(3)</title>
<ellipse fill="springgreen" stroke="springgreen" cx="152.04" cy="-324" rx="46.29" ry="18"/>
<text text-anchor="middle" x="152.04" y="-320.3" font-family="Times-Roman" font-size="14.00">OFL&#45;1.1</text>
</g>
<!-- scancode://ofl&#45;1.1(3) -->
<g id="node6" class="node">
<title>scancode://ofl&#45;1.1(3)</title>
<ellipse fill="white" stroke="white" cx="152.04" cy="-270" rx="90.98" ry="18"/>
<text text-anchor="middle" x="152.04" y="-266.3" font-family="Times-Roman" font-size="14.00">scancode://ofl&#45;1.1</text>
</g>
<!-- OFL&#45;1.1(4) -->
<g id="node7" class="node">
<title>OFL&#45;1.1(4)</title>
<ellipse fill="springgreen" stroke="springgreen" cx="152.04" cy="-210" rx="46.29" ry="18"/>
<text text-anchor="middle" x="152.04" y="-206.3" font-family="Times-Roman" font-size="14.00">OFL&#45;1.1</text>
</g>
<!-- ofl&#45;1.1(4) -->
<g id="node8" class="node">
<title>ofl&#45;1.1(4)</title>
<ellipse fill="white" stroke="white" cx="152.04" cy="-156" rx="40.09" ry="18"/>
<text text-anchor="middle" x="152.04" y="-152.3" font-family="Times-Roman" font-size="14.00">ofl&#45;1.1</text>
</g>
<!-- OFL&#45;1.1(5) -->
<g id="node9" class="node">
<title>OFL&#45;1.1(5)</title>
<ellipse fill="springgreen" stroke="springgreen" cx="152.04" cy="-96" rx="46.29" ry="18"/>
<text text-anchor="middle" x="152.04" y="-92.3" font-family="Times-Roman" font-size="14.00">OFL&#45;1.1</text>
</g>
<!-- Open Font License 1.1(5) -->
<g id="node10" class="node">
<title>Open Font License 1.1(5)</title>
<ellipse fill="white" stroke="white" cx="152.04" cy="-42" rx="111.58" ry="18"/>
<text text-anchor="middle" x="152.04" y="-38.3" font-family="Times-Roman" font-size="14.00">Open Font License 1.1</text>
</g>
</g>
</svg>
