<?xml version="1.0" encoding="UTF-8" standalone="no"?>
<!DOCTYPE svg PUBLIC "-//W3C//DTD SVG 1.1//EN"
 "http://www.w3.org/Graphics/SVG/1.1/DTD/svg11.dtd">
<!-- Generated by graphviz version 2.43.0 (0)
 -->
<!-- Title: OFL&#45;1.0 Pages: 1 -->
<svg width="964pt" height="115pt"
 viewBox="0.00 0.00 964.00 115.00" xmlns="http://www.w3.org/2000/svg" xmlns:xlink="http://www.w3.org/1999/xlink">
<g id="graph0" class="graph" transform="scale(1 1) rotate(0) translate(4 111)">
<title>OFL&#45;1.0</title>
<polygon fill="white" stroke="transparent" points="-4,4 -4,-111 960,-111 960,4 -4,4"/>
<g id="clust1" class="cluster">
<title>cluster_0</title>
<polygon fill="none" stroke="black" points="8,-8 8,-99 948,-99 948,-8 8,-8"/>
</g>
<g id="clust2" class="cluster">
<title>cluster_1</title>
<polygon fill="lightgray" stroke="lightgray" points="832,-16 832,-91 940,-91 940,-16 832,-16"/>
<text text-anchor="middle" x="886" y="-75.8" font-family="Times-Roman" font-size="14.00">prev</text>
</g>
<g id="clust3" class="cluster">
<title>cluster_2</title>
<polygon fill="lightgray" stroke="lightgray" points="442,-16 442,-68 824,-68 824,-16 442,-16"/>
</g>
<g id="clust4" class="cluster">
<title>cluster_3</title>
<polygon fill="lightgray" stroke="lightgray" points="16,-16 16,-68 434,-68 434,-16 16,-16"/>
</g>
<!-- OFL&#45;1.0(1) -->
<g id="node1" class="node">
<title>OFL&#45;1.0(1)</title>
<ellipse fill="springgreen" stroke="springgreen" cx="886" cy="-42" rx="46.29" ry="18"/>
<text text-anchor="middle" x="886" y="-38.3" font-family="Times-Roman" font-size="14.00">OFL&#45;1.0</text>
</g>
<!-- OFL&#45;1.0(2) -->
<g id="node2" class="node">
<title>OFL&#45;1.0(2)</title>
<ellipse fill="springgreen" stroke="springgreen" cx="770" cy="-42" rx="46.29" ry="18"/>
<text text-anchor="middle" x="770" y="-38.3" font-family="Times-Roman" font-size="14.00">OFL&#45;1.0</text>
</g>
<!-- SIL Open Font License 1.0(2) -->
<g id="node3" class="node">
<title>SIL Open Font License 1.0(2)</title>
<ellipse fill="white" stroke="white" cx="578" cy="-42" rx="128.08" ry="18"/>
<text text-anchor="middle" x="578" y="-38.3" font-family="Times-Roman" font-size="14.00">SIL Open Font License 1.0</text>
</g>
<!-- OFL 1.0(3) -->
<g id="node4" class="node">
<title>OFL 1.0(3)</title>
<ellipse fill="white" stroke="white" cx="380" cy="-42" rx="46.29" ry="18"/>
<text text-anchor="middle" x="380" y="-38.3" font-family="Times-Roman" font-size="14.00">OFL 1.0</text>
</g>
<!-- OFL&#45;1.0(3) -->
<g id="node5" class="node">
<title>OFL&#45;1.0(3)</title>
<ellipse fill="springgreen" stroke="springgreen" cx="270" cy="-42" rx="46.29" ry="18"/>
<text text-anchor="middle" x="270" y="-38.3" font-family="Times-Roman" font-size="14.00">OFL&#45;1.0</text>
</g>
<!-- scancode://ofl&#45;1.0(3) -->
<g id="node6" class="node">
<title>scancode://ofl&#45;1.0(3)</title>
<ellipse fill="white" stroke="white" cx="115" cy="-42" rx="90.98" ry="18"/>
<text text-anchor="middle" x="115" y="-38.3" font-family="Times-Roman" font-size="14.00">scancode://ofl&#45;1.0</text>
</g>
</g>
</svg>
