<?xml version="1.0" encoding="UTF-8" standalone="no"?>
<!DOCTYPE svg PUBLIC "-//W3C//DTD SVG 1.1//EN"
 "http://www.w3.org/Graphics/SVG/1.1/DTD/svg11.dtd">
<!-- Generated by graphviz version 5.0.1 (0)
 -->
<!-- Title: OFL&#45;1.0 Pages: 1 -->
<svg width="519pt" height="602pt"
 viewBox="0.00 0.00 518.76 602.00" xmlns="http://www.w3.org/2000/svg" xmlns:xlink="http://www.w3.org/1999/xlink">
<g id="graph0" class="graph" transform="scale(1 1) rotate(0) translate(4 598)">
<title>OFL&#45;1.0</title>
<polygon fill="white" stroke="none" points="-4,4 -4,-598 514.76,-598 514.76,4 -4,4"/>
<g id="clust1" class="cluster">
<title>cluster_0</title>
<polygon fill="none" stroke="black" points="8,-8 8,-586 502.76,-586 502.76,-8 8,-8"/>
</g>
<g id="clust2" class="cluster">
<title>cluster_1</title>
<polygon fill="lightgray" stroke="lightgray" points="205.78,-526 205.78,-578 304.98,-578 304.98,-526 205.78,-526"/>
</g>
<g id="clust3" class="cluster">
<title>cluster_2</title>
<polygon fill="lightgray" stroke="lightgray" points="140.79,-412 140.79,-518 369.97,-518 369.97,-412 140.79,-412"/>
</g>
<g id="clust4" class="cluster">
<title>cluster_3</title>
<polygon fill="lightgray" stroke="lightgray" points="16,-298 16,-404 494.76,-404 494.76,-298 16,-298"/>
</g>
<g id="clust5" class="cluster">
<title>cluster_4</title>
<polygon fill="lightgray" stroke="lightgray" points="140.79,-184 140.79,-290 369.97,-290 369.97,-184 140.79,-184"/>
</g>
<g id="clust6" class="cluster">
<title>cluster_5</title>
<polygon fill="lightgray" stroke="lightgray" points="173.29,-16 173.29,-176 337.47,-176 337.47,-16 173.29,-16"/>
</g>
<!-- OFL&#45;1.0(1) -->
<g id="node1" class="node">
<title>OFL&#45;1.0(1)</title>
<ellipse fill="springgreen" stroke="springgreen" cx="255.38" cy="-552" rx="41.69" ry="18"/>
<text text-anchor="middle" x="255.38" y="-548.3" font-family="Times,serif" font-size="14.00">OFL&#45;1.0</text>
</g>
<!-- OFL&#45;1.0(2) -->
<g id="node2" class="node">
<title>OFL&#45;1.0(2)</title>
<ellipse fill="springgreen" stroke="springgreen" cx="255.38" cy="-492" rx="41.69" ry="18"/>
<text text-anchor="middle" x="255.38" y="-488.3" font-family="Times,serif" font-size="14.00">OFL&#45;1.0</text>
</g>
<!-- SIL Open Font License 1.0(2) -->
<g id="node3" class="node">
<title>SIL Open Font License 1.0(2)</title>
<ellipse fill="white" stroke="white" cx="255.38" cy="-438" rx="106.68" ry="18"/>
<text text-anchor="middle" x="255.38" y="-434.3" font-family="Times,serif" font-size="14.00">SIL Open Font License 1.0</text>
</g>
<!-- OFL&#45;1.0(3) -->
<g id="node4" class="node">
<title>OFL&#45;1.0(3)</title>
<ellipse fill="springgreen" stroke="springgreen" cx="255.38" cy="-378" rx="41.69" ry="18"/>
<text text-anchor="middle" x="255.38" y="-374.3" font-family="Times,serif" font-size="14.00">OFL&#45;1.0</text>
</g>
<!-- SIL OPEN FONT LICENSE Version 1.0 &#45; 22 November 2005(3) -->
<g id="node5" class="node">
<title>SIL OPEN FONT LICENSE Version 1.0 &#45; 22 November 2005(3)</title>
<ellipse fill="white" stroke="white" cx="255.38" cy="-324" rx="231.26" ry="18"/>
<text text-anchor="middle" x="255.38" y="-320.3" font-family="Times,serif" font-size="14.00">SIL OPEN FONT LICENSE Version 1.0 &#45; 22 November 2005</text>
</g>
<!-- OFL&#45;1.0(4) -->
<g id="node6" class="node">
<title>OFL&#45;1.0(4)</title>
<ellipse fill="springgreen" stroke="springgreen" cx="255.38" cy="-264" rx="41.69" ry="18"/>
<text text-anchor="middle" x="255.38" y="-260.3" font-family="Times,serif" font-size="14.00">OFL&#45;1.0</text>
</g>
<!-- SIL Open Font License 1.0(4) -->
<g id="node7" class="node">
<title>SIL Open Font License 1.0(4)</title>
<ellipse fill="white" stroke="white" cx="255.38" cy="-210" rx="106.68" ry="18"/>
<text text-anchor="middle" x="255.38" y="-206.3" font-family="Times,serif" font-size="14.00">SIL Open Font License 1.0</text>
</g>
<!-- OFL 1.0(5) -->
<g id="node8" class="node">
<title>OFL 1.0(5)</title>
<ellipse fill="white" stroke="white" cx="255.38" cy="-150" rx="40.09" ry="18"/>
<text text-anchor="middle" x="255.38" y="-146.3" font-family="Times,serif" font-size="14.00">OFL 1.0</text>
</g>
<!-- OFL&#45;1.0(5) -->
<g id="node9" class="node">
<title>OFL&#45;1.0(5)</title>
<ellipse fill="springgreen" stroke="springgreen" cx="255.38" cy="-96" rx="41.69" ry="18"/>
<text text-anchor="middle" x="255.38" y="-92.3" font-family="Times,serif" font-size="14.00">OFL&#45;1.0</text>
</g>
<!-- scancode://ofl&#45;1.0(5) -->
<g id="node10" class="node">
<title>scancode://ofl&#45;1.0(5)</title>
<ellipse fill="white" stroke="white" cx="255.38" cy="-42" rx="74.19" ry="18"/>
<text text-anchor="middle" x="255.38" y="-38.3" font-family="Times,serif" font-size="14.00">scancode://ofl&#45;1.0</text>
</g>
</g>
</svg>
