<?xml version="1.0" encoding="UTF-8" standalone="no"?>
<!DOCTYPE svg PUBLIC "-//W3C//DTD SVG 1.1//EN"
 "http://www.w3.org/Graphics/SVG/1.1/DTD/svg11.dtd">
<!-- Generated by graphviz version 2.43.0 (0)
 -->
<!-- Title: OLDAP&#45;2.3 Pages: 1 -->
<svg width="358pt" height="320pt"
 viewBox="0.00 0.00 357.57 320.00" xmlns="http://www.w3.org/2000/svg" xmlns:xlink="http://www.w3.org/1999/xlink">
<g id="graph0" class="graph" transform="scale(1 1) rotate(0) translate(4 316)">
<title>OLDAP&#45;2.3</title>
<polygon fill="white" stroke="transparent" points="-4,4 -4,-316 353.57,-316 353.57,4 -4,4"/>
<g id="clust1" class="cluster">
<title>cluster_0</title>
<polygon fill="none" stroke="black" points="8,-8 8,-304 341.57,-304 341.57,-8 8,-8"/>
</g>
<g id="clust2" class="cluster">
<title>cluster_1</title>
<polygon fill="lightgray" stroke="lightgray" points="106.99,-244 106.99,-296 242.58,-296 242.58,-244 106.99,-244"/>
</g>
<g id="clust3" class="cluster">
<title>cluster_2</title>
<polygon fill="lightgray" stroke="lightgray" points="16,-130 16,-236 333.57,-236 333.57,-130 16,-130"/>
</g>
<g id="clust4" class="cluster">
<title>cluster_3</title>
<polygon fill="lightgray" stroke="lightgray" points="16,-16 16,-122 333.57,-122 333.57,-16 16,-16"/>
</g>
<!-- OLDAP&#45;2.3(1) -->
<g id="node1" class="node">
<title>OLDAP&#45;2.3(1)</title>
<ellipse fill="springgreen" stroke="springgreen" cx="174.79" cy="-270" rx="59.59" ry="18"/>
<text text-anchor="middle" x="174.79" y="-266.3" font-family="Times-Roman" font-size="14.00">OLDAP&#45;2.3</text>
</g>
<!-- OLDAP&#45;2.3(2) -->
<g id="node2" class="node">
<title>OLDAP&#45;2.3(2)</title>
<ellipse fill="springgreen" stroke="springgreen" cx="174.79" cy="-210" rx="59.59" ry="18"/>
<text text-anchor="middle" x="174.79" y="-206.3" font-family="Times-Roman" font-size="14.00">OLDAP&#45;2.3</text>
</g>
<!-- Open LDAP Public License v2.3(2) -->
<g id="node3" class="node">
<title>Open LDAP Public License v2.3(2)</title>
<ellipse fill="white" stroke="white" cx="174.79" cy="-156" rx="150.57" ry="18"/>
<text text-anchor="middle" x="174.79" y="-152.3" font-family="Times-Roman" font-size="14.00">Open LDAP Public License v2.3</text>
</g>
<!-- OLDAP&#45;2.3(3) -->
<g id="node4" class="node">
<title>OLDAP&#45;2.3(3)</title>
<ellipse fill="springgreen" stroke="springgreen" cx="174.79" cy="-96" rx="59.59" ry="18"/>
<text text-anchor="middle" x="174.79" y="-92.3" font-family="Times-Roman" font-size="14.00">OLDAP&#45;2.3</text>
</g>
<!-- Open LDAP Public License v2.3(3) -->
<g id="node5" class="node">
<title>Open LDAP Public License v2.3(3)</title>
<ellipse fill="white" stroke="white" cx="174.79" cy="-42" rx="150.57" ry="18"/>
<text text-anchor="middle" x="174.79" y="-38.3" font-family="Times-Roman" font-size="14.00">Open LDAP Public License v2.3</text>
</g>
</g>
</svg>
