<?xml version="1.0" encoding="UTF-8" standalone="no"?>
<!DOCTYPE svg PUBLIC "-//W3C//DTD SVG 1.1//EN"
 "http://www.w3.org/Graphics/SVG/1.1/DTD/svg11.dtd">
<!-- Generated by graphviz version 2.43.0 (0)
 -->
<!-- Title: OpenSSL Pages: 1 -->
<svg width="2540pt" height="108pt"
 viewBox="0.00 0.00 2540.00 108.00" xmlns="http://www.w3.org/2000/svg" xmlns:xlink="http://www.w3.org/1999/xlink">
<g id="graph0" class="graph" transform="scale(1 1) rotate(0) translate(4 104)">
<title>OpenSSL</title>
<polygon fill="white" stroke="transparent" points="-4,4 -4,-104 2536,-104 2536,4 -4,4"/>
<g id="clust1" class="cluster">
<title>cluster_0</title>
<polygon fill="none" stroke="black" points="8,-8 8,-92 2524,-92 2524,-8 8,-8"/>
</g>
<g id="clust2" class="cluster">
<title>cluster_1</title>
<polygon fill="none" stroke="black" points="428,-16 428,-84 2516,-84 2516,-16 428,-16"/>
</g>
<g id="clust3" class="cluster">
<title>cluster_2</title>
<polygon fill="lightgray" stroke="lightgray" points="2388,-24 2388,-76 2508,-76 2508,-24 2388,-24"/>
</g>
<g id="clust4" class="cluster">
<title>cluster_3</title>
<polygon fill="lightgray" stroke="lightgray" points="2066,-24 2066,-76 2380,-76 2380,-24 2066,-24"/>
</g>
<g id="clust5" class="cluster">
<title>cluster_4</title>
<polygon fill="lightgray" stroke="lightgray" points="1744,-24 1744,-76 2058,-76 2058,-24 1744,-24"/>
</g>
<g id="clust6" class="cluster">
<title>cluster_5</title>
<polygon fill="lightgray" stroke="lightgray" points="1076,-24 1076,-76 1736,-76 1736,-24 1076,-24"/>
</g>
<g id="clust7" class="cluster">
<title>cluster_6</title>
<polygon fill="lightgray" stroke="lightgray" points="754,-24 754,-76 1068,-76 1068,-24 754,-24"/>
</g>
<g id="clust8" class="cluster">
<title>cluster_7</title>
<polygon fill="lightgray" stroke="lightgray" points="436,-24 436,-76 746,-76 746,-24 436,-24"/>
</g>
<g id="clust9" class="cluster">
<title>cluster_8</title>
<polygon fill="lightgray" stroke="lightgray" points="16,-24 16,-76 420,-76 420,-24 16,-24"/>
</g>
<!-- OpenSSL(2) -->
<g id="node1" class="node">
<title>OpenSSL(2)</title>
<ellipse fill="springgreen" stroke="springgreen" cx="2448" cy="-50" rx="51.99" ry="18"/>
<text text-anchor="middle" x="2448" y="-46.3" font-family="Times-Roman" font-size="14.00">OpenSSL</text>
</g>
<!-- OpenSSL(3) -->
<g id="node2" class="node">
<title>OpenSSL(3)</title>
<ellipse fill="springgreen" stroke="springgreen" cx="2320" cy="-50" rx="51.99" ry="18"/>
<text text-anchor="middle" x="2320" y="-46.3" font-family="Times-Roman" font-size="14.00">OpenSSL</text>
</g>
<!-- OpenSSL License(3) -->
<g id="node3" class="node">
<title>OpenSSL License(3)</title>
<ellipse fill="white" stroke="white" cx="2162" cy="-50" rx="88.28" ry="18"/>
<text text-anchor="middle" x="2162" y="-46.3" font-family="Times-Roman" font-size="14.00">OpenSSL License</text>
</g>
<!-- OpenSSL(4) -->
<g id="node4" class="node">
<title>OpenSSL(4)</title>
<ellipse fill="springgreen" stroke="springgreen" cx="1998" cy="-50" rx="51.99" ry="18"/>
<text text-anchor="middle" x="1998" y="-46.3" font-family="Times-Roman" font-size="14.00">OpenSSL</text>
</g>
<!-- OpenSSL License(4) -->
<g id="node5" class="node">
<title>OpenSSL License(4)</title>
<ellipse fill="white" stroke="white" cx="1840" cy="-50" rx="88.28" ry="18"/>
<text text-anchor="middle" x="1840" y="-46.3" font-family="Times-Roman" font-size="14.00">OpenSSL License</text>
</g>
<!-- OpenSSL(5) -->
<g id="node6" class="node">
<title>OpenSSL(5)</title>
<ellipse fill="springgreen" stroke="springgreen" cx="1676" cy="-50" rx="51.99" ry="18"/>
<text text-anchor="middle" x="1676" y="-46.3" font-family="Times-Roman" font-size="14.00">OpenSSL</text>
</g>
<!-- OpenSSL/SSLeay License(5) -->
<g id="node7" class="node">
<title>OpenSSL/SSLeay License(5)</title>
<ellipse fill="white" stroke="white" cx="1482" cy="-50" rx="124.28" ry="18"/>
<text text-anchor="middle" x="1482" y="-46.3" font-family="Times-Roman" font-size="14.00">OpenSSL/SSLeay License</text>
</g>
<!-- scancode://openssl&#45;ssleay(5) -->
<g id="node8" class="node">
<title>scancode://openssl&#45;ssleay(5)</title>
<ellipse fill="white" stroke="white" cx="1212" cy="-50" rx="128.08" ry="18"/>
<text text-anchor="middle" x="1212" y="-46.3" font-family="Times-Roman" font-size="14.00">scancode://openssl&#45;ssleay</text>
</g>
<!-- OpenSSL(6) -->
<g id="node9" class="node">
<title>OpenSSL(6)</title>
<ellipse fill="springgreen" stroke="springgreen" cx="1008" cy="-50" rx="51.99" ry="18"/>
<text text-anchor="middle" x="1008" y="-46.3" font-family="Times-Roman" font-size="14.00">OpenSSL</text>
</g>
<!-- OpenSSL License(6) -->
<g id="node10" class="node">
<title>OpenSSL License(6)</title>
<ellipse fill="white" stroke="white" cx="850" cy="-50" rx="88.28" ry="18"/>
<text text-anchor="middle" x="850" y="-46.3" font-family="Times-Roman" font-size="14.00">OpenSSL License</text>
</g>
<!-- OpenSSL(7) -->
<g id="node11" class="node">
<title>OpenSSL(7)</title>
<ellipse fill="springgreen" stroke="springgreen" cx="686" cy="-50" rx="51.99" ry="18"/>
<text text-anchor="middle" x="686" y="-46.3" font-family="Times-Roman" font-size="14.00">OpenSSL</text>
</g>
<!-- OpenSSL license(7) -->
<g id="node12" class="node">
<title>OpenSSL license(7)</title>
<ellipse fill="white" stroke="white" cx="530" cy="-50" rx="85.59" ry="18"/>
<text text-anchor="middle" x="530" y="-46.3" font-family="Times-Roman" font-size="14.00">OpenSSL license</text>
</g>
<!-- OpenSSL License(8) -->
<g id="node13" class="node">
<title>OpenSSL License(8)</title>
<ellipse fill="gray" stroke="gray" cx="324" cy="-50" rx="88.28" ry="18"/>
<text text-anchor="middle" x="324" y="-46.3" font-family="Times-Roman" font-size="14.00">OpenSSL License</text>
</g>
<!-- scancode://openssl(8) -->
<g id="node14" class="node">
<title>scancode://openssl(8)</title>
<ellipse fill="white" stroke="white" cx="121" cy="-50" rx="96.68" ry="18"/>
<text text-anchor="middle" x="121" y="-46.3" font-family="Times-Roman" font-size="14.00">scancode://openssl</text>
</g>
</g>
</svg>
