<?xml version="1.0" encoding="UTF-8" standalone="no"?>
<!DOCTYPE svg PUBLIC "-//W3C//DTD SVG 1.1//EN"
 "http://www.w3.org/Graphics/SVG/1.1/DTD/svg11.dtd">
<!-- Generated by graphviz version 2.43.0 (0)
 -->
<!-- Title: OPL&#45;1.0 Pages: 1 -->
<svg width="1150pt" height="115pt"
 viewBox="0.00 0.00 1150.00 115.00" xmlns="http://www.w3.org/2000/svg" xmlns:xlink="http://www.w3.org/1999/xlink">
<g id="graph0" class="graph" transform="scale(1 1) rotate(0) translate(4 111)">
<title>OPL&#45;1.0</title>
<polygon fill="white" stroke="transparent" points="-4,4 -4,-111 1146,-111 1146,4 -4,4"/>
<g id="clust1" class="cluster">
<title>cluster_0</title>
<polygon fill="none" stroke="black" points="8,-8 8,-99 1134,-99 1134,-8 8,-8"/>
</g>
<g id="clust2" class="cluster">
<title>cluster_1</title>
<polygon fill="lightgray" stroke="lightgray" points="1018,-16 1018,-91 1126,-91 1126,-16 1018,-16"/>
<text text-anchor="middle" x="1072" y="-75.8" font-family="Times-Roman" font-size="14.00">prev</text>
</g>
<g id="clust3" class="cluster">
<title>cluster_2</title>
<polygon fill="lightgray" stroke="lightgray" points="636,-16 636,-68 1010,-68 1010,-16 636,-16"/>
</g>
<g id="clust4" class="cluster">
<title>cluster_3</title>
<polygon fill="lightgray" stroke="lightgray" points="16,-16 16,-68 628,-68 628,-16 16,-16"/>
</g>
<!-- OPL&#45;1.0(1) -->
<g id="node1" class="node">
<title>OPL&#45;1.0(1)</title>
<ellipse fill="springgreen" stroke="springgreen" cx="1072" cy="-42" rx="46.29" ry="18"/>
<text text-anchor="middle" x="1072" y="-38.3" font-family="Times-Roman" font-size="14.00">OPL&#45;1.0</text>
</g>
<!-- OPL&#45;1.0(2) -->
<g id="node2" class="node">
<title>OPL&#45;1.0(2)</title>
<ellipse fill="springgreen" stroke="springgreen" cx="956" cy="-42" rx="46.29" ry="18"/>
<text text-anchor="middle" x="956" y="-38.3" font-family="Times-Roman" font-size="14.00">OPL&#45;1.0</text>
</g>
<!-- Open Public License v1.0(2) -->
<g id="node3" class="node">
<title>Open Public License v1.0(2)</title>
<ellipse fill="white" stroke="white" cx="768" cy="-42" rx="124.28" ry="18"/>
<text text-anchor="middle" x="768" y="-38.3" font-family="Times-Roman" font-size="14.00">Open Public License v1.0</text>
</g>
<!-- OPL&#45;1.0(3) -->
<g id="node4" class="node">
<title>OPL&#45;1.0(3)</title>
<ellipse fill="springgreen" stroke="springgreen" cx="574" cy="-42" rx="46.29" ry="18"/>
<text text-anchor="middle" x="574" y="-38.3" font-family="Times-Roman" font-size="14.00">OPL&#45;1.0</text>
</g>
<!-- Open Public License 1.0(3) -->
<g id="node5" class="node">
<title>Open Public License 1.0(3)</title>
<ellipse fill="white" stroke="white" cx="391" cy="-42" rx="118.88" ry="18"/>
<text text-anchor="middle" x="391" y="-38.3" font-family="Times-Roman" font-size="14.00">Open Public License 1.0</text>
</g>
<!-- scancode://open&#45;public(3) -->
<g id="node6" class="node">
<title>scancode://open&#45;public(3)</title>
<ellipse fill="white" stroke="white" cx="139" cy="-42" rx="115.08" ry="18"/>
<text text-anchor="middle" x="139" y="-38.3" font-family="Times-Roman" font-size="14.00">scancode://open&#45;public</text>
</g>
</g>
</svg>
