<?xml version="1.0" encoding="UTF-8" standalone="no"?>
<!DOCTYPE svg PUBLIC "-//W3C//DTD SVG 1.1//EN"
 "http://www.w3.org/Graphics/SVG/1.1/DTD/svg11.dtd">
<!-- Generated by graphviz version 5.0.1 (0)
 -->
<!-- Title: OSL&#45;2.1 Pages: 1 -->
<svg width="349pt" height="792pt"
 viewBox="0.00 0.00 348.88 792.00" xmlns="http://www.w3.org/2000/svg" xmlns:xlink="http://www.w3.org/1999/xlink">
<g id="graph0" class="graph" transform="scale(1 1) rotate(0) translate(4 788)">
<title>OSL&#45;2.1</title>
<polygon fill="white" stroke="none" points="-4,4 -4,-788 344.88,-788 344.88,4 -4,4"/>
<g id="clust1" class="cluster">
<title>cluster_0</title>
<polygon fill="none" stroke="black" points="8,-8 8,-776 332.88,-776 332.88,-8 8,-8"/>
</g>
<g id="clust2" class="cluster">
<title>cluster_1</title>
<polygon fill="none" stroke="black" points="16,-76 16,-768 324.88,-768 324.88,-76 16,-76"/>
</g>
<g id="clust3" class="cluster">
<title>cluster_2</title>
<polygon fill="lightgray" stroke="lightgray" points="120.84,-708 120.84,-760 220.03,-760 220.03,-708 120.84,-708"/>
</g>
<g id="clust4" class="cluster">
<title>cluster_3</title>
<polygon fill="lightgray" stroke="lightgray" points="55.2,-594 55.2,-700 285.68,-700 285.68,-594 55.2,-594"/>
</g>
<g id="clust5" class="cluster">
<title>cluster_4</title>
<polygon fill="lightgray" stroke="lightgray" points="55.2,-480 55.2,-586 285.68,-586 285.68,-480 55.2,-480"/>
</g>
<g id="clust6" class="cluster">
<title>cluster_5</title>
<polygon fill="lightgray" stroke="lightgray" points="24,-366 24,-472 316.88,-472 316.88,-366 24,-366"/>
</g>
<g id="clust7" class="cluster">
<title>cluster_6</title>
<polygon fill="lightgray" stroke="lightgray" points="55.2,-252 55.2,-358 285.68,-358 285.68,-252 55.2,-252"/>
</g>
<g id="clust8" class="cluster">
<title>cluster_7</title>
<polygon fill="lightgray" stroke="lightgray" points="87.69,-84 87.69,-244 253.18,-244 253.18,-84 87.69,-84"/>
</g>
<g id="clust9" class="cluster">
<title>cluster_8</title>
<polygon fill="lightgray" stroke="lightgray" points="24.65,-16 24.65,-68 316.23,-68 316.23,-16 24.65,-16"/>
</g>
<!-- OSL&#45;2.1(2) -->
<g id="node1" class="node">
<title>OSL&#45;2.1(2)</title>
<ellipse fill="springgreen" stroke="springgreen" cx="170.44" cy="-734" rx="41.69" ry="18"/>
<text text-anchor="middle" x="170.44" y="-730.3" font-family="Times,serif" font-size="14.00">OSL&#45;2.1</text>
</g>
<!-- OSL&#45;2.1(3) -->
<g id="node2" class="node">
<title>OSL&#45;2.1(3)</title>
<ellipse fill="springgreen" stroke="springgreen" cx="170.44" cy="-674" rx="41.69" ry="18"/>
<text text-anchor="middle" x="170.44" y="-670.3" font-family="Times,serif" font-size="14.00">OSL&#45;2.1</text>
</g>
<!-- Open Software License 2.1(3) -->
<g id="node3" class="node">
<title>Open Software License 2.1(3)</title>
<ellipse fill="white" stroke="white" cx="170.44" cy="-620" rx="107.48" ry="18"/>
<text text-anchor="middle" x="170.44" y="-616.3" font-family="Times,serif" font-size="14.00">Open Software License 2.1</text>
</g>
<!-- OSL&#45;2.1(4) -->
<g id="node4" class="node">
<title>OSL&#45;2.1(4)</title>
<ellipse fill="springgreen" stroke="springgreen" cx="170.44" cy="-560" rx="41.69" ry="18"/>
<text text-anchor="middle" x="170.44" y="-556.3" font-family="Times,serif" font-size="14.00">OSL&#45;2.1</text>
</g>
<!-- Open Software License 2.1(4) -->
<g id="node5" class="node">
<title>Open Software License 2.1(4)</title>
<ellipse fill="white" stroke="white" cx="170.44" cy="-506" rx="107.48" ry="18"/>
<text text-anchor="middle" x="170.44" y="-502.3" font-family="Times,serif" font-size="14.00">Open Software License 2.1</text>
</g>
<!-- OSL&#45;2.1(5) -->
<g id="node6" class="node">
<title>OSL&#45;2.1(5)</title>
<ellipse fill="springgreen" stroke="springgreen" cx="170.44" cy="-446" rx="41.69" ry="18"/>
<text text-anchor="middle" x="170.44" y="-442.3" font-family="Times,serif" font-size="14.00">OSL&#45;2.1</text>
</g>
<!-- Open Software License, Version 2.1(5) -->
<g id="node7" class="node">
<title>Open Software License, Version 2.1(5)</title>
<ellipse fill="white" stroke="white" cx="170.44" cy="-392" rx="138.38" ry="18"/>
<text text-anchor="middle" x="170.44" y="-388.3" font-family="Times,serif" font-size="14.00">Open Software License, Version 2.1</text>
</g>
<!-- OSL&#45;2.1(6) -->
<g id="node8" class="node">
<title>OSL&#45;2.1(6)</title>
<ellipse fill="springgreen" stroke="springgreen" cx="170.44" cy="-332" rx="41.69" ry="18"/>
<text text-anchor="middle" x="170.44" y="-328.3" font-family="Times,serif" font-size="14.00">OSL&#45;2.1</text>
</g>
<!-- Open Software License 2.1(6) -->
<g id="node9" class="node">
<title>Open Software License 2.1(6)</title>
<ellipse fill="white" stroke="white" cx="170.44" cy="-278" rx="107.48" ry="18"/>
<text text-anchor="middle" x="170.44" y="-274.3" font-family="Times,serif" font-size="14.00">Open Software License 2.1</text>
</g>
<!-- OSL 2.1(7) -->
<g id="node10" class="node">
<title>OSL 2.1(7)</title>
<ellipse fill="white" stroke="white" cx="170.44" cy="-218" rx="40.09" ry="18"/>
<text text-anchor="middle" x="170.44" y="-214.3" font-family="Times,serif" font-size="14.00">OSL 2.1</text>
</g>
<!-- OSL&#45;2.1(7) -->
<g id="node11" class="node">
<title>OSL&#45;2.1(7)</title>
<ellipse fill="springgreen" stroke="springgreen" cx="170.44" cy="-164" rx="41.69" ry="18"/>
<text text-anchor="middle" x="170.44" y="-160.3" font-family="Times,serif" font-size="14.00">OSL&#45;2.1</text>
</g>
<!-- scancode://osl&#45;2.1(7) -->
<g id="node12" class="node">
<title>scancode://osl&#45;2.1(7)</title>
<ellipse fill="white" stroke="white" cx="170.44" cy="-110" rx="74.99" ry="18"/>
<text text-anchor="middle" x="170.44" y="-106.3" font-family="Times,serif" font-size="14.00">scancode://osl&#45;2.1</text>
</g>
<!-- Open Software License, version 2.1(8) -->
<g id="node13" class="node">
<title>Open Software License, version 2.1(8)</title>
<ellipse fill="white" stroke="white" cx="170.44" cy="-42" rx="137.58" ry="18"/>
<text text-anchor="middle" x="170.44" y="-38.3" font-family="Times,serif" font-size="14.00">Open Software License, version 2.1</text>
</g>
</g>
</svg>
