<?xml version="1.0" encoding="UTF-8" standalone="no"?>
<!DOCTYPE svg PUBLIC "-//W3C//DTD SVG 1.1//EN"
 "http://www.w3.org/Graphics/SVG/1.1/DTD/svg11.dtd">
<!-- Generated by graphviz version 2.43.0 (0)
 -->
<!-- Title: OSL&#45;1.1 Pages: 1 -->
<svg width="796pt" height="98pt"
 viewBox="0.00 0.00 796.00 98.43" xmlns="http://www.w3.org/2000/svg" xmlns:xlink="http://www.w3.org/1999/xlink">
<g id="graph0" class="graph" transform="scale(1 1) rotate(0) translate(4 94.43)">
<title>OSL&#45;1.1</title>
<polygon fill="white" stroke="transparent" points="-4,4 -4,-94.43 792,-94.43 792,4 -4,4"/>
<g id="clust1" class="cluster">
<title>cluster_0</title>
<polygon fill="none" stroke="black" points="8,-8 8,-82.43 780,-82.43 780,-8 8,-8"/>
</g>
<g id="clust2" class="cluster">
<title>cluster_1</title>
<polygon fill="lightgray" stroke="lightgray" points="622,-16 622,-74.43 772,-74.43 772,-16 622,-16"/>
</g>
<g id="clust3" class="cluster">
<title>cluster_2</title>
<polygon fill="lightgray" stroke="lightgray" points="336,-19.21 336,-71.21 614,-71.21 614,-19.21 336,-19.21"/>
</g>
<g id="clust4" class="cluster">
<title>cluster_3</title>
<polygon fill="lightgray" stroke="lightgray" points="16,-19.21 16,-71.21 328,-71.21 328,-19.21 16,-19.21"/>
</g>
<!-- OSL&#45;1.1 -->
<g id="node1" class="node">
<title>OSL&#45;1.1</title>
<ellipse fill="white" stroke="white" cx="697" cy="-45.21" rx="67.35" ry="21.43"/>
<text text-anchor="middle" x="697" y="-40.21" font-family="Times-Roman" font-size="20.00" fill="#00ff00">OSL&#45;1.1</text>
</g>
<!-- Open Software License 1.1 -->
<g id="node2" class="node">
<title>Open Software License 1.1</title>
<ellipse fill="white" stroke="white" cx="475" cy="-45.21" rx="131.08" ry="18"/>
<text text-anchor="middle" x="475" y="-41.51" font-family="Times-Roman" font-size="14.00">Open Software License 1.1</text>
</g>
<!-- OSL 1.1 -->
<g id="node3" class="node">
<title>OSL 1.1</title>
<ellipse fill="white" stroke="white" cx="274" cy="-45.21" rx="46.29" ry="18"/>
<text text-anchor="middle" x="274" y="-41.51" font-family="Times-Roman" font-size="14.00">OSL 1.1</text>
</g>
<!-- scancode://osl&#45;1.1 -->
<g id="node4" class="node">
<title>scancode://osl&#45;1.1</title>
<ellipse fill="white" stroke="white" cx="117" cy="-45.21" rx="92.88" ry="18"/>
<text text-anchor="middle" x="117" y="-41.51" font-family="Times-Roman" font-size="14.00">scancode://osl&#45;1.1</text>
</g>
</g>
</svg>
