<?xml version="1.0" encoding="UTF-8" standalone="no"?>
<!DOCTYPE svg PUBLIC "-//W3C//DTD SVG 1.1//EN"
 "http://www.w3.org/Graphics/SVG/1.1/DTD/svg11.dtd">
<!-- Generated by graphviz version 2.43.0 (0)
 -->
<!-- Title: PDDL&#45;1.0 Pages: 1 -->
<svg width="655pt" height="656pt"
 viewBox="0.00 0.00 655.25 656.00" xmlns="http://www.w3.org/2000/svg" xmlns:xlink="http://www.w3.org/1999/xlink">
<g id="graph0" class="graph" transform="scale(1 1) rotate(0) translate(4 652)">
<title>PDDL&#45;1.0</title>
<polygon fill="white" stroke="transparent" points="-4,4 -4,-652 651.25,-652 651.25,4 -4,4"/>
<g id="clust1" class="cluster">
<title>cluster_0</title>
<polygon fill="none" stroke="black" points="8,-8 8,-640 639.25,-640 639.25,-8 8,-8"/>
</g>
<g id="clust2" class="cluster">
<title>cluster_1</title>
<polygon fill="lightgray" stroke="lightgray" points="262.98,-580 262.98,-632 384.27,-632 384.27,-580 262.98,-580"/>
</g>
<g id="clust3" class="cluster">
<title>cluster_2</title>
<polygon fill="lightgray" stroke="lightgray" points="101.79,-466 101.79,-572 545.45,-572 545.45,-466 101.79,-466"/>
</g>
<g id="clust4" class="cluster">
<title>cluster_3</title>
<polygon fill="lightgray" stroke="lightgray" points="215.53,-298 215.53,-458 431.71,-458 431.71,-298 215.53,-298"/>
</g>
<g id="clust5" class="cluster">
<title>cluster_4</title>
<polygon fill="lightgray" stroke="lightgray" points="33.55,-184 33.55,-290 613.7,-290 613.7,-184 33.55,-184"/>
</g>
<g id="clust6" class="cluster">
<title>cluster_5</title>
<polygon fill="lightgray" stroke="lightgray" points="16,-16 16,-176 631.25,-176 631.25,-16 16,-16"/>
</g>
<!-- PDDL&#45;1.0(1) -->
<g id="node1" class="node">
<title>PDDL&#45;1.0(1)</title>
<ellipse fill="springgreen" stroke="springgreen" cx="323.62" cy="-606" rx="52.79" ry="18"/>
<text text-anchor="middle" x="323.62" y="-602.3" font-family="Times-Roman" font-size="14.00">PDDL&#45;1.0</text>
</g>
<!-- ODC Public Domain Dedication &amp; License 1.0(2) -->
<g id="node2" class="node">
<title>ODC Public Domain Dedication &amp; License 1.0(2)</title>
<ellipse fill="white" stroke="white" cx="323.62" cy="-546" rx="213.66" ry="18"/>
<text text-anchor="middle" x="323.62" y="-542.3" font-family="Times-Roman" font-size="14.00">ODC Public Domain Dedication &amp; License 1.0</text>
</g>
<!-- PDDL&#45;1.0(2) -->
<g id="node3" class="node">
<title>PDDL&#45;1.0(2)</title>
<ellipse fill="springgreen" stroke="springgreen" cx="323.62" cy="-492" rx="52.79" ry="18"/>
<text text-anchor="middle" x="323.62" y="-488.3" font-family="Times-Roman" font-size="14.00">PDDL&#45;1.0</text>
</g>
<!-- PDDL 1.0(3) -->
<g id="node4" class="node">
<title>PDDL 1.0(3)</title>
<ellipse fill="white" stroke="white" cx="323.62" cy="-432" rx="51.99" ry="18"/>
<text text-anchor="middle" x="323.62" y="-428.3" font-family="Times-Roman" font-size="14.00">PDDL 1.0</text>
</g>
<!-- PDDL&#45;1.0(3) -->
<g id="node5" class="node">
<title>PDDL&#45;1.0(3)</title>
<ellipse fill="springgreen" stroke="springgreen" cx="323.62" cy="-378" rx="52.79" ry="18"/>
<text text-anchor="middle" x="323.62" y="-374.3" font-family="Times-Roman" font-size="14.00">PDDL&#45;1.0</text>
</g>
<!-- scancode://pddl&#45;1.0(3) -->
<g id="node6" class="node">
<title>scancode://pddl&#45;1.0(3)</title>
<ellipse fill="white" stroke="white" cx="323.62" cy="-324" rx="100.18" ry="18"/>
<text text-anchor="middle" x="323.62" y="-320.3" font-family="Times-Roman" font-size="14.00">scancode://pddl&#45;1.0</text>
</g>
<!-- Open Data Commons Public Domain Dedication and Licence(4) -->
<g id="node7" class="node">
<title>Open Data Commons Public Domain Dedication and Licence(4)</title>
<ellipse fill="white" stroke="white" cx="323.62" cy="-264" rx="282.15" ry="18"/>
<text text-anchor="middle" x="323.62" y="-260.3" font-family="Times-Roman" font-size="14.00">Open Data Commons Public Domain Dedication and Licence</text>
</g>
<!-- PDDL&#45;1.0(4) -->
<g id="node8" class="node">
<title>PDDL&#45;1.0(4)</title>
<ellipse fill="springgreen" stroke="springgreen" cx="323.62" cy="-210" rx="52.79" ry="18"/>
<text text-anchor="middle" x="323.62" y="-206.3" font-family="Times-Roman" font-size="14.00">PDDL&#45;1.0</text>
</g>
<!-- ODC&#45;PDDL&#45;1.0(5) -->
<g id="node9" class="node">
<title>ODC&#45;PDDL&#45;1.0(5)</title>
<ellipse fill="white" stroke="white" cx="323.62" cy="-150" rx="76.89" ry="18"/>
<text text-anchor="middle" x="323.62" y="-146.3" font-family="Times-Roman" font-size="14.00">ODC&#45;PDDL&#45;1.0</text>
</g>
<!-- Open Data Commons Public Domain Dedication and Licence 1.0(5) -->
<g id="node10" class="node">
<title>Open Data Commons Public Domain Dedication and Licence 1.0(5)</title>
<ellipse fill="white" stroke="white" cx="323.62" cy="-96" rx="299.75" ry="18"/>
<text text-anchor="middle" x="323.62" y="-92.3" font-family="Times-Roman" font-size="14.00">Open Data Commons Public Domain Dedication and Licence 1.0</text>
</g>
<!-- PDDL&#45;1.0(5) -->
<g id="node11" class="node">
<title>PDDL&#45;1.0(5)</title>
<ellipse fill="springgreen" stroke="springgreen" cx="323.62" cy="-42" rx="52.79" ry="18"/>
<text text-anchor="middle" x="323.62" y="-38.3" font-family="Times-Roman" font-size="14.00">PDDL&#45;1.0</text>
</g>
</g>
</svg>
