<?xml version="1.0" encoding="UTF-8" standalone="no"?>
<!DOCTYPE svg PUBLIC "-//W3C//DTD SVG 1.1//EN"
 "http://www.w3.org/Graphics/SVG/1.1/DTD/svg11.dtd">
<!-- Generated by graphviz version 2.43.0 (0)
 -->
<!-- Title: PHP&#45;3.01 Pages: 1 -->
<svg width="2264pt" height="98pt"
 viewBox="0.00 0.00 2264.00 98.43" xmlns="http://www.w3.org/2000/svg" xmlns:xlink="http://www.w3.org/1999/xlink">
<g id="graph0" class="graph" transform="scale(1 1) rotate(0) translate(4 94.43)">
<title>PHP&#45;3.01</title>
<polygon fill="white" stroke="transparent" points="-4,4 -4,-94.43 2260,-94.43 2260,4 -4,4"/>
<g id="clust1" class="cluster">
<title>cluster_0</title>
<polygon fill="none" stroke="black" points="8,-8 8,-82.43 2248,-82.43 2248,-8 8,-8"/>
</g>
<g id="clust2" class="cluster">
<title>cluster_1</title>
<polygon fill="lightgray" stroke="lightgray" points="2034,-16 2034,-74.43 2240,-74.43 2240,-16 2034,-16"/>
</g>
<g id="clust3" class="cluster">
<title>cluster_2</title>
<polygon fill="lightgray" stroke="lightgray" points="1589,-16 1589,-74.43 2026,-74.43 2026,-16 1589,-16"/>
</g>
<g id="clust4" class="cluster">
<title>cluster_3</title>
<polygon fill="lightgray" stroke="lightgray" points="1144,-16 1144,-74.43 1581,-74.43 1581,-16 1144,-16"/>
</g>
<g id="clust5" class="cluster">
<title>cluster_4</title>
<polygon fill="lightgray" stroke="lightgray" points="461,-16 461,-74.43 1136,-74.43 1136,-16 461,-16"/>
</g>
<g id="clust6" class="cluster">
<title>cluster_5</title>
<polygon fill="lightgray" stroke="lightgray" points="16,-16 16,-74.43 453,-74.43 453,-16 16,-16"/>
</g>
<!-- PHP&#45;3.01(1) -->
<g id="node1" class="node">
<title>PHP&#45;3.01(1)</title>
<ellipse fill="springgreen" stroke="springgreen" cx="2137" cy="-45.21" rx="94.51" ry="21.43"/>
<text text-anchor="middle" x="2137" y="-40.21" font-family="Times-Roman" font-size="20.00">PHP&#45;3.01(1)</text>
</g>
<!-- PHP License v3.01(2) -->
<g id="node2" class="node">
<title>PHP License v3.01(2)</title>
<ellipse fill="white" stroke="white" cx="1911" cy="-45.21" rx="106.68" ry="18"/>
<text text-anchor="middle" x="1911" y="-41.51" font-family="Times-Roman" font-size="14.00">PHP License v3.01(2)</text>
</g>
<!-- PHP&#45;3.01(2) -->
<g id="node3" class="node">
<title>PHP&#45;3.01(2)</title>
<ellipse fill="springgreen" stroke="springgreen" cx="1692" cy="-45.21" rx="94.51" ry="21.43"/>
<text text-anchor="middle" x="1692" y="-40.21" font-family="Times-Roman" font-size="20.00">PHP&#45;3.01(2)</text>
</g>
<!-- PHP License v3.01(3) -->
<g id="node4" class="node">
<title>PHP License v3.01(3)</title>
<ellipse fill="white" stroke="white" cx="1466" cy="-45.21" rx="106.68" ry="18"/>
<text text-anchor="middle" x="1466" y="-41.51" font-family="Times-Roman" font-size="14.00">PHP License v3.01(3)</text>
</g>
<!-- PHP&#45;3.01(3) -->
<g id="node5" class="node">
<title>PHP&#45;3.01(3)</title>
<ellipse fill="springgreen" stroke="springgreen" cx="1247" cy="-45.21" rx="94.51" ry="21.43"/>
<text text-anchor="middle" x="1247" y="-40.21" font-family="Times-Roman" font-size="20.00">PHP&#45;3.01(3)</text>
</g>
<!-- PHP License 3.01(4) -->
<g id="node6" class="node">
<title>PHP License 3.01(4)</title>
<ellipse fill="white" stroke="white" cx="1027" cy="-45.21" rx="100.98" ry="18"/>
<text text-anchor="middle" x="1027" y="-41.51" font-family="Times-Roman" font-size="14.00">PHP License 3.01(4)</text>
</g>
<!-- PHP&#45;3.01(4) -->
<g id="node7" class="node">
<title>PHP&#45;3.01(4)</title>
<ellipse fill="springgreen" stroke="springgreen" cx="814" cy="-45.21" rx="94.51" ry="21.43"/>
<text text-anchor="middle" x="814" y="-40.21" font-family="Times-Roman" font-size="20.00">PHP&#45;3.01(4)</text>
</g>
<!-- scancode://php&#45;3.01(4) -->
<g id="node8" class="node">
<title>scancode://php&#45;3.01(4)</title>
<ellipse fill="white" stroke="white" cx="585" cy="-45.21" rx="116.18" ry="18"/>
<text text-anchor="middle" x="585" y="-41.51" font-family="Times-Roman" font-size="14.00">scancode://php&#45;3.01(4)</text>
</g>
<!-- PHP License v3.01(5) -->
<g id="node9" class="node">
<title>PHP License v3.01(5)</title>
<ellipse fill="white" stroke="white" cx="338" cy="-45.21" rx="106.68" ry="18"/>
<text text-anchor="middle" x="338" y="-41.51" font-family="Times-Roman" font-size="14.00">PHP License v3.01(5)</text>
</g>
<!-- PHP&#45;3.01(5) -->
<g id="node10" class="node">
<title>PHP&#45;3.01(5)</title>
<ellipse fill="springgreen" stroke="springgreen" cx="119" cy="-45.21" rx="94.51" ry="21.43"/>
<text text-anchor="middle" x="119" y="-40.21" font-family="Times-Roman" font-size="20.00">PHP&#45;3.01(5)</text>
</g>
</g>
</svg>
