<?xml version="1.0" encoding="UTF-8" standalone="no"?>
<!DOCTYPE svg PUBLIC "-//W3C//DTD SVG 1.1//EN"
 "http://www.w3.org/Graphics/SVG/1.1/DTD/svg11.dtd">
<!-- Generated by graphviz version 2.43.0 (0)
 -->
<!-- Title: PHP&#45;3.01 Pages: 1 -->
<svg width="797pt" height="92pt"
 viewBox="0.00 0.00 797.00 92.00" xmlns="http://www.w3.org/2000/svg" xmlns:xlink="http://www.w3.org/1999/xlink">
<g id="graph0" class="graph" transform="scale(1 1) rotate(0) translate(4 88)">
<title>PHP&#45;3.01</title>
<polygon fill="white" stroke="transparent" points="-4,4 -4,-88 793,-88 793,4 -4,4"/>
<g id="clust1" class="cluster">
<title>cluster_0</title>
<polygon fill="none" stroke="black" points="8,-8 8,-76 781,-76 781,-8 8,-8"/>
</g>
<g id="clust2" class="cluster">
<title>cluster_1</title>
<polygon fill="lightgray" stroke="lightgray" points="653,-16 653,-68 773,-68 773,-16 653,-16"/>
</g>
<g id="clust3" class="cluster">
<title>cluster_2</title>
<polygon fill="lightgray" stroke="lightgray" points="441,-16 441,-68 645,-68 645,-16 441,-16"/>
</g>
<g id="clust5" class="cluster">
<title>cluster_4</title>
<polygon fill="lightgray" stroke="lightgray" points="16,-16 16,-68 433,-68 433,-16 16,-16"/>
</g>
<!-- PHP&#45;3.01 -->
<g id="node1" class="node">
<title>PHP&#45;3.01</title>
<ellipse fill="white" stroke="white" cx="713" cy="-42" rx="51.99" ry="18"/>
<text text-anchor="middle" x="713" y="-38.3" font-family="Times-Roman" font-size="14.00">PHP&#45;3.01</text>
</g>
<!-- PHP License v3.01 -->
<g id="node2" class="node">
<title>PHP License v3.01</title>
<ellipse fill="white" stroke="white" cx="543" cy="-42" rx="93.68" ry="18"/>
<text text-anchor="middle" x="543" y="-38.3" font-family="Times-Roman" font-size="14.00">PHP License v3.01</text>
</g>
<!-- PHP License 3.01 -->
<g id="node3" class="node">
<title>PHP License 3.01</title>
<ellipse fill="white" stroke="white" cx="337" cy="-42" rx="88.28" ry="18"/>
<text text-anchor="middle" x="337" y="-38.3" font-family="Times-Roman" font-size="14.00">PHP License 3.01</text>
</g>
<!-- scancode://php&#45;3.01 -->
<g id="node4" class="node">
<title>scancode://php&#45;3.01</title>
<ellipse fill="white" stroke="white" cx="127" cy="-42" rx="103.18" ry="18"/>
<text text-anchor="middle" x="127" y="-38.3" font-family="Times-Roman" font-size="14.00">scancode://php&#45;3.01</text>
</g>
</g>
</svg>
