<?xml version="1.0" encoding="UTF-8" standalone="no"?>
<!DOCTYPE svg PUBLIC "-//W3C//DTD SVG 1.1//EN"
 "http://www.w3.org/Graphics/SVG/1.1/DTD/svg11.dtd">
<!-- Generated by graphviz version 2.43.0 (0)
 -->
<!-- Title: Plexus Pages: 1 -->
<svg width="338pt" height="678pt"
 viewBox="0.00 0.00 338.48 678.00" xmlns="http://www.w3.org/2000/svg" xmlns:xlink="http://www.w3.org/1999/xlink">
<g id="graph0" class="graph" transform="scale(1 1) rotate(0) translate(4 674)">
<title>Plexus</title>
<polygon fill="white" stroke="transparent" points="-4,4 -4,-674 334.48,-674 334.48,4 -4,4"/>
<g id="clust1" class="cluster">
<title>cluster_0</title>
<polygon fill="none" stroke="black" points="8,-8 8,-662 322.48,-662 322.48,-8 8,-8"/>
</g>
<g id="clust2" class="cluster">
<title>cluster_1</title>
<polygon fill="none" stroke="black" points="16,-76 16,-654 314.48,-654 314.48,-76 16,-76"/>
</g>
<g id="clust3" class="cluster">
<title>cluster_2</title>
<polygon fill="lightgray" stroke="lightgray" points="116.94,-594 116.94,-646 213.53,-646 213.53,-594 116.94,-594"/>
</g>
<g id="clust4" class="cluster">
<title>cluster_3</title>
<polygon fill="lightgray" stroke="lightgray" points="24,-480 24,-586 306.48,-586 306.48,-480 24,-480"/>
</g>
<g id="clust5" class="cluster">
<title>cluster_4</title>
<polygon fill="lightgray" stroke="lightgray" points="24,-366 24,-472 306.48,-472 306.48,-366 24,-366"/>
</g>
<g id="clust6" class="cluster">
<title>cluster_5</title>
<polygon fill="lightgray" stroke="lightgray" points="66.9,-198 66.9,-358 263.58,-358 263.58,-198 66.9,-198"/>
</g>
<g id="clust7" class="cluster">
<title>cluster_6</title>
<polygon fill="lightgray" stroke="lightgray" points="24,-84 24,-190 306.48,-190 306.48,-84 24,-84"/>
</g>
<g id="clust8" class="cluster">
<title>cluster_7</title>
<polygon fill="lightgray" stroke="lightgray" points="79.25,-16 79.25,-68 251.23,-68 251.23,-16 79.25,-16"/>
</g>
<!-- Plexus(2) -->
<g id="node1" class="node">
<title>Plexus(2)</title>
<ellipse fill="springgreen" stroke="springgreen" cx="165.24" cy="-620" rx="40.09" ry="18"/>
<text text-anchor="middle" x="165.24" y="-616.3" font-family="Times-Roman" font-size="14.00">Plexus</text>
</g>
<!-- Plexus(3) -->
<g id="node2" class="node">
<title>Plexus(3)</title>
<ellipse fill="springgreen" stroke="springgreen" cx="165.24" cy="-560" rx="40.09" ry="18"/>
<text text-anchor="middle" x="165.24" y="-556.3" font-family="Times-Roman" font-size="14.00">Plexus</text>
</g>
<!-- Plexus Classworlds License(3) -->
<g id="node3" class="node">
<title>Plexus Classworlds License(3)</title>
<ellipse fill="white" stroke="white" cx="165.24" cy="-506" rx="133.48" ry="18"/>
<text text-anchor="middle" x="165.24" y="-502.3" font-family="Times-Roman" font-size="14.00">Plexus Classworlds License</text>
</g>
<!-- Plexus(4) -->
<g id="node4" class="node">
<title>Plexus(4)</title>
<ellipse fill="springgreen" stroke="springgreen" cx="165.24" cy="-446" rx="40.09" ry="18"/>
<text text-anchor="middle" x="165.24" y="-442.3" font-family="Times-Roman" font-size="14.00">Plexus</text>
</g>
<!-- Plexus Classworlds License(4) -->
<g id="node5" class="node">
<title>Plexus Classworlds License(4)</title>
<ellipse fill="white" stroke="white" cx="165.24" cy="-392" rx="133.48" ry="18"/>
<text text-anchor="middle" x="165.24" y="-388.3" font-family="Times-Roman" font-size="14.00">Plexus Classworlds License</text>
</g>
<!-- Dom4j License(5) -->
<g id="node6" class="node">
<title>Dom4j License(5)</title>
<ellipse fill="white" stroke="white" cx="165.24" cy="-332" rx="76.89" ry="18"/>
<text text-anchor="middle" x="165.24" y="-328.3" font-family="Times-Roman" font-size="14.00">Dom4j License</text>
</g>
<!-- Plexus(5) -->
<g id="node7" class="node">
<title>Plexus(5)</title>
<ellipse fill="springgreen" stroke="springgreen" cx="165.24" cy="-278" rx="40.09" ry="18"/>
<text text-anchor="middle" x="165.24" y="-274.3" font-family="Times-Roman" font-size="14.00">Plexus</text>
</g>
<!-- scancode://dom4j(5) -->
<g id="node8" class="node">
<title>scancode://dom4j(5)</title>
<ellipse fill="white" stroke="white" cx="165.24" cy="-224" rx="90.18" ry="18"/>
<text text-anchor="middle" x="165.24" y="-220.3" font-family="Times-Roman" font-size="14.00">scancode://dom4j</text>
</g>
<!-- Plexus(6) -->
<g id="node9" class="node">
<title>Plexus(6)</title>
<ellipse fill="springgreen" stroke="springgreen" cx="165.24" cy="-164" rx="40.09" ry="18"/>
<text text-anchor="middle" x="165.24" y="-160.3" font-family="Times-Roman" font-size="14.00">Plexus</text>
</g>
<!-- Plexus Classworlds License(6) -->
<g id="node10" class="node">
<title>Plexus Classworlds License(6)</title>
<ellipse fill="white" stroke="white" cx="165.24" cy="-110" rx="133.48" ry="18"/>
<text text-anchor="middle" x="165.24" y="-106.3" font-family="Times-Roman" font-size="14.00">Plexus Classworlds License</text>
</g>
<!-- DOM4J License(7) -->
<g id="node11" class="node">
<title>DOM4J License(7)</title>
<ellipse fill="white" stroke="white" cx="165.24" cy="-42" rx="77.99" ry="18"/>
<text text-anchor="middle" x="165.24" y="-38.3" font-family="Times-Roman" font-size="14.00">DOM4J License</text>
</g>
</g>
</svg>
