<?xml version="1.0" encoding="UTF-8" standalone="no"?>
<!DOCTYPE svg PUBLIC "-//W3C//DTD SVG 1.1//EN"
 "http://www.w3.org/Graphics/SVG/1.1/DTD/svg11.dtd">
<!-- Generated by graphviz version 2.43.0 (0)
 -->
<!-- Title: PolyForm&#45;Small&#45;Business&#45;1.0.0 Pages: 1 -->
<svg width="455pt" height="336pt"
 viewBox="0.00 0.00 455.06 336.00" xmlns="http://www.w3.org/2000/svg" xmlns:xlink="http://www.w3.org/1999/xlink">
<g id="graph0" class="graph" transform="scale(1 1) rotate(0) translate(4 332)">
<title>PolyForm&#45;Small&#45;Business&#45;1.0.0</title>
<polygon fill="white" stroke="transparent" points="-4,4 -4,-332 451.06,-332 451.06,4 -4,4"/>
<g id="clust1" class="cluster">
<title>cluster_0</title>
<polygon fill="none" stroke="black" points="8,-8 8,-320 439.06,-320 439.06,-8 8,-8"/>
</g>
<g id="clust2" class="cluster">
<title>cluster_1</title>
<polygon fill="none" stroke="black" points="21.65,-130 21.65,-312 425.42,-312 425.42,-130 21.65,-130"/>
</g>
<g id="clust3" class="cluster">
<title>cluster_2</title>
<polygon fill="lightgray" stroke="lightgray" points="65.4,-252 65.4,-304 381.67,-304 381.67,-252 65.4,-252"/>
</g>
<g id="clust4" class="cluster">
<title>cluster_3</title>
<polygon fill="lightgray" stroke="lightgray" points="29.65,-138 29.65,-244 417.42,-244 417.42,-138 29.65,-138"/>
</g>
<g id="clust5" class="cluster">
<title>cluster_4</title>
<polygon fill="lightgray" stroke="lightgray" points="16,-16 16,-122 431.06,-122 431.06,-16 16,-16"/>
</g>
<!-- PolyForm&#45;Small&#45;Business&#45;1.0.0(2) -->
<g id="node1" class="node">
<title>PolyForm&#45;Small&#45;Business&#45;1.0.0(2)</title>
<ellipse fill="springgreen" stroke="springgreen" cx="223.53" cy="-278" rx="150.27" ry="18"/>
<text text-anchor="middle" x="223.53" y="-274.3" font-family="Times-Roman" font-size="14.00">PolyForm&#45;Small&#45;Business&#45;1.0.0</text>
</g>
<!-- PolyForm Small Business License 1.0.0(3) -->
<g id="node2" class="node">
<title>PolyForm Small Business License 1.0.0(3)</title>
<ellipse fill="white" stroke="white" cx="223.53" cy="-218" rx="185.77" ry="18"/>
<text text-anchor="middle" x="223.53" y="-214.3" font-family="Times-Roman" font-size="14.00">PolyForm Small Business License 1.0.0</text>
</g>
<!-- PolyForm&#45;Small&#45;Business&#45;1.0.0(3) -->
<g id="node3" class="node">
<title>PolyForm&#45;Small&#45;Business&#45;1.0.0(3)</title>
<ellipse fill="springgreen" stroke="springgreen" cx="223.53" cy="-164" rx="150.27" ry="18"/>
<text text-anchor="middle" x="223.53" y="-160.3" font-family="Times-Roman" font-size="14.00">PolyForm&#45;Small&#45;Business&#45;1.0.0</text>
</g>
<!-- Polyform Small Business License 1.0.0(4) -->
<g id="node4" class="node">
<title>Polyform Small Business License 1.0.0(4)</title>
<ellipse fill="white" stroke="white" cx="223.53" cy="-96" rx="184.67" ry="18"/>
<text text-anchor="middle" x="223.53" y="-92.3" font-family="Times-Roman" font-size="14.00">Polyform Small Business License 1.0.0</text>
</g>
<!-- scancode://polyform&#45;small&#45;business&#45;1.0.0(4) -->
<g id="node5" class="node">
<title>scancode://polyform&#45;small&#45;business&#45;1.0.0(4)</title>
<ellipse fill="white" stroke="white" cx="223.53" cy="-42" rx="199.56" ry="18"/>
<text text-anchor="middle" x="223.53" y="-38.3" font-family="Times-Roman" font-size="14.00">scancode://polyform&#45;small&#45;business&#45;1.0.0</text>
</g>
</g>
</svg>
