<?xml version="1.0" encoding="UTF-8" standalone="no"?>
<!DOCTYPE svg PUBLIC "-//W3C//DTD SVG 1.1//EN"
 "http://www.w3.org/Graphics/SVG/1.1/DTD/svg11.dtd">
<!-- Generated by graphviz version 7.0.0 (0)
 -->
<!-- Title: PolyForm&#45;Small&#45;Business&#45;1.0.0 Pages: 1 -->
<svg width="374pt" height="488pt"
 viewBox="0.00 0.00 374.47 488.00" xmlns="http://www.w3.org/2000/svg" xmlns:xlink="http://www.w3.org/1999/xlink">
<g id="graph0" class="graph" transform="scale(1 1) rotate(0) translate(4 484)">
<title>PolyForm&#45;Small&#45;Business&#45;1.0.0</title>
<polygon fill="white" stroke="none" points="-4,4 -4,-484 370.47,-484 370.47,4 -4,4"/>
<g id="clust1" class="cluster">
<title>cluster_0</title>
<polygon fill="none" stroke="black" points="8,-8 8,-472 358.47,-472 358.47,-8 8,-8"/>
</g>
<g id="clust2" class="cluster">
<title>cluster_1</title>
<polygon fill="lightgray" stroke="lightgray" points="49.8,-412 49.8,-464 316.67,-464 316.67,-412 49.8,-412"/>
</g>
<g id="clust3" class="cluster">
<title>cluster_2</title>
<polygon fill="lightgray" stroke="lightgray" points="23.8,-298 23.8,-404 342.67,-404 342.67,-298 23.8,-298"/>
</g>
<g id="clust4" class="cluster">
<title>cluster_3</title>
<polygon fill="lightgray" stroke="lightgray" points="21.85,-184 21.85,-290 344.62,-290 344.62,-184 21.85,-184"/>
</g>
<g id="clust5" class="cluster">
<title>cluster_4</title>
<polygon fill="lightgray" stroke="lightgray" points="16,-16 16,-176 350.47,-176 350.47,-16 16,-16"/>
</g>
<!-- PolyForm&#45;Small&#45;Business&#45;1.0.0(1) -->
<g id="node1" class="node">
<title>PolyForm&#45;Small&#45;Business&#45;1.0.0(1)</title>
<ellipse fill="springgreen" stroke="springgreen" cx="183.24" cy="-438" rx="125.38" ry="18"/>
<text text-anchor="middle" x="183.24" y="-434.3" font-family="Times,serif" font-size="14.00">PolyForm&#45;Small&#45;Business&#45;1.0.0</text>
</g>
<!-- PolyForm&#45;Small&#45;Business&#45;1.0.0(2) -->
<g id="node2" class="node">
<title>PolyForm&#45;Small&#45;Business&#45;1.0.0(2)</title>
<ellipse fill="springgreen" stroke="springgreen" cx="183.24" cy="-378" rx="125.38" ry="18"/>
<text text-anchor="middle" x="183.24" y="-374.3" font-family="Times,serif" font-size="14.00">PolyForm&#45;Small&#45;Business&#45;1.0.0</text>
</g>
<!-- Polyform Small Business License 1.0.0(2) -->
<g id="node3" class="node">
<title>Polyform Small Business License 1.0.0(2)</title>
<ellipse fill="white" stroke="white" cx="183.24" cy="-324" rx="151.37" ry="18"/>
<text text-anchor="middle" x="183.24" y="-320.3" font-family="Times,serif" font-size="14.00">Polyform Small Business License 1.0.0</text>
</g>
<!-- PolyForm Small Business License 1.0.0(3) -->
<g id="node4" class="node">
<title>PolyForm Small Business License 1.0.0(3)</title>
<ellipse fill="white" stroke="white" cx="183.24" cy="-264" rx="153.27" ry="18"/>
<text text-anchor="middle" x="183.24" y="-260.3" font-family="Times,serif" font-size="14.00">PolyForm Small Business License 1.0.0</text>
</g>
<!-- PolyForm&#45;Small&#45;Business&#45;1.0.0(3) -->
<g id="node5" class="node">
<title>PolyForm&#45;Small&#45;Business&#45;1.0.0(3)</title>
<ellipse fill="springgreen" stroke="springgreen" cx="183.24" cy="-210" rx="125.38" ry="18"/>
<text text-anchor="middle" x="183.24" y="-206.3" font-family="Times,serif" font-size="14.00">PolyForm&#45;Small&#45;Business&#45;1.0.0</text>
</g>
<!-- PolyForm&#45;Small&#45;Business&#45;1.0.0(4) -->
<g id="node6" class="node">
<title>PolyForm&#45;Small&#45;Business&#45;1.0.0(4)</title>
<ellipse fill="springgreen" stroke="springgreen" cx="183.24" cy="-150" rx="125.38" ry="18"/>
<text text-anchor="middle" x="183.24" y="-146.3" font-family="Times,serif" font-size="14.00">PolyForm&#45;Small&#45;Business&#45;1.0.0</text>
</g>
<!-- Polyform Small Business License 1.0.0(4) -->
<g id="node7" class="node">
<title>Polyform Small Business License 1.0.0(4)</title>
<ellipse fill="white" stroke="white" cx="183.24" cy="-96" rx="151.37" ry="18"/>
<text text-anchor="middle" x="183.24" y="-92.3" font-family="Times,serif" font-size="14.00">Polyform Small Business License 1.0.0</text>
</g>
<!-- scancode://polyform&#45;small&#45;business&#45;1.0.0(4) -->
<g id="node8" class="node">
<title>scancode://polyform&#45;small&#45;business&#45;1.0.0(4)</title>
<ellipse fill="white" stroke="white" cx="183.24" cy="-42" rx="159.47" ry="18"/>
<text text-anchor="middle" x="183.24" y="-38.3" font-family="Times,serif" font-size="14.00">scancode://polyform&#45;small&#45;business&#45;1.0.0</text>
</g>
</g>
</svg>
