<?xml version="1.0" encoding="UTF-8" standalone="no"?>
<!DOCTYPE svg PUBLIC "-//W3C//DTD SVG 1.1//EN"
 "http://www.w3.org/Graphics/SVG/1.1/DTD/svg11.dtd">
<!-- Generated by graphviz version 2.49.3 (0)
 -->
<!-- Title: PostgreSQL Pages: 1 -->
<svg width="255pt" height="1052pt"
 viewBox="0.00 0.00 254.88 1052.00" xmlns="http://www.w3.org/2000/svg" xmlns:xlink="http://www.w3.org/1999/xlink">
<g id="graph0" class="graph" transform="scale(1 1) rotate(0) translate(4 1048)">
<title>PostgreSQL</title>
<polygon fill="white" stroke="transparent" points="-4,4 -4,-1048 250.88,-1048 250.88,4 -4,4"/>
<g id="clust1" class="cluster">
<title>cluster_0</title>
<polygon fill="none" stroke="black" points="8,-8 8,-1036 238.88,-1036 238.88,-8 8,-8"/>
</g>
<g id="clust2" class="cluster">
<title>cluster_1</title>
<polygon fill="lightgray" stroke="lightgray" points="61.5,-976 61.5,-1028 185.39,-1028 185.39,-976 61.5,-976"/>
</g>
<g id="clust3" class="cluster">
<title>cluster_2</title>
<polygon fill="lightgray" stroke="lightgray" points="32.25,-862 32.25,-968 214.63,-968 214.63,-862 32.25,-862"/>
</g>
<g id="clust4" class="cluster">
<title>cluster_3</title>
<polygon fill="lightgray" stroke="lightgray" points="61.5,-748 61.5,-854 185.39,-854 185.39,-748 61.5,-748"/>
</g>
<g id="clust5" class="cluster">
<title>cluster_4</title>
<polygon fill="lightgray" stroke="lightgray" points="32.25,-526 32.25,-740 214.63,-740 214.63,-526 32.25,-526"/>
</g>
<g id="clust6" class="cluster">
<title>cluster_5</title>
<polygon fill="lightgray" stroke="lightgray" points="32.25,-412 32.25,-518 214.63,-518 214.63,-412 32.25,-412"/>
</g>
<g id="clust7" class="cluster">
<title>cluster_6</title>
<polygon fill="lightgray" stroke="lightgray" points="16,-298 16,-404 230.88,-404 230.88,-298 16,-298"/>
</g>
<g id="clust8" class="cluster">
<title>cluster_7</title>
<polygon fill="lightgray" stroke="lightgray" points="32.25,-184 32.25,-290 214.63,-290 214.63,-184 32.25,-184"/>
</g>
<g id="clust9" class="cluster">
<title>cluster_8</title>
<polygon fill="lightgray" stroke="lightgray" points="29,-16 29,-176 217.88,-176 217.88,-16 29,-16"/>
</g>
<!-- PostgreSQL(1) -->
<g id="node1" class="node">
<title>PostgreSQL(1)</title>
<ellipse fill="springgreen" stroke="springgreen" cx="123.44" cy="-1002" rx="53.89" ry="18"/>
<text text-anchor="middle" x="123.44" y="-998.3" font-family="Times,serif" font-size="14.00">PostgreSQL</text>
</g>
<!-- PostgreSQL(2) -->
<g id="node2" class="node">
<title>PostgreSQL(2)</title>
<ellipse fill="springgreen" stroke="springgreen" cx="123.44" cy="-942" rx="53.89" ry="18"/>
<text text-anchor="middle" x="123.44" y="-938.3" font-family="Times,serif" font-size="14.00">PostgreSQL</text>
</g>
<!-- PostgreSQL License(2) -->
<g id="node3" class="node">
<title>PostgreSQL License(2)</title>
<ellipse fill="white" stroke="white" cx="123.44" cy="-888" rx="83.39" ry="18"/>
<text text-anchor="middle" x="123.44" y="-884.3" font-family="Times,serif" font-size="14.00">PostgreSQL License</text>
</g>
<!-- PostgreSQL(3) -->
<g id="node4" class="node">
<title>PostgreSQL(3)</title>
<ellipse fill="springgreen" stroke="springgreen" cx="123.44" cy="-828" rx="53.89" ry="18"/>
<text text-anchor="middle" x="123.44" y="-824.3" font-family="Times,serif" font-size="14.00">PostgreSQL</text>
</g>
<!-- postgresql(3) -->
<g id="node5" class="node">
<title>postgresql(3)</title>
<ellipse fill="white" stroke="white" cx="123.44" cy="-774" rx="46.59" ry="18"/>
<text text-anchor="middle" x="123.44" y="-770.3" font-family="Times,serif" font-size="14.00">postgresql</text>
</g>
<!-- PostgreSQL(4) -->
<g id="node6" class="node">
<title>PostgreSQL(4)</title>
<ellipse fill="springgreen" stroke="springgreen" cx="123.44" cy="-714" rx="53.89" ry="18"/>
<text text-anchor="middle" x="123.44" y="-710.3" font-family="Times,serif" font-size="14.00">PostgreSQL</text>
</g>
<!-- PostgreSQL License(4) -->
<g id="node7" class="node">
<title>PostgreSQL License(4)</title>
<ellipse fill="white" stroke="white" cx="123.44" cy="-660" rx="83.39" ry="18"/>
<text text-anchor="middle" x="123.44" y="-656.3" font-family="Times,serif" font-size="14.00">PostgreSQL License</text>
</g>
<!-- osi:PostgreSQL(4) -->
<g id="node8" class="node">
<title>osi:PostgreSQL(4)</title>
<ellipse fill="white" stroke="white" cx="123.44" cy="-606" rx="66.09" ry="18"/>
<text text-anchor="middle" x="123.44" y="-602.3" font-family="Times,serif" font-size="14.00">osi:PostgreSQL</text>
</g>
<!-- scancode:postgresql(4) -->
<g id="node9" class="node">
<title>scancode:postgresql(4)</title>
<ellipse fill="white" stroke="white" cx="123.44" cy="-552" rx="81.49" ry="18"/>
<text text-anchor="middle" x="123.44" y="-548.3" font-family="Times,serif" font-size="14.00">scancode:postgresql</text>
</g>
<!-- PostgreSQL(5) -->
<g id="node10" class="node">
<title>PostgreSQL(5)</title>
<ellipse fill="springgreen" stroke="springgreen" cx="123.44" cy="-492" rx="53.89" ry="18"/>
<text text-anchor="middle" x="123.44" y="-488.3" font-family="Times,serif" font-size="14.00">PostgreSQL</text>
</g>
<!-- PostgreSQL License(5) -->
<g id="node11" class="node">
<title>PostgreSQL License(5)</title>
<ellipse fill="white" stroke="white" cx="123.44" cy="-438" rx="83.39" ry="18"/>
<text text-anchor="middle" x="123.44" y="-434.3" font-family="Times,serif" font-size="14.00">PostgreSQL License</text>
</g>
<!-- PostgreSQL(6) -->
<g id="node12" class="node">
<title>PostgreSQL(6)</title>
<ellipse fill="springgreen" stroke="springgreen" cx="123.44" cy="-378" rx="53.89" ry="18"/>
<text text-anchor="middle" x="123.44" y="-374.3" font-family="Times,serif" font-size="14.00">PostgreSQL</text>
</g>
<!-- The PostgreSQL Licence(6) -->
<g id="node13" class="node">
<title>The PostgreSQL Licence(6)</title>
<ellipse fill="white" stroke="white" cx="123.44" cy="-324" rx="99.38" ry="18"/>
<text text-anchor="middle" x="123.44" y="-320.3" font-family="Times,serif" font-size="14.00">The PostgreSQL Licence</text>
</g>
<!-- PostgreSQL(7) -->
<g id="node14" class="node">
<title>PostgreSQL(7)</title>
<ellipse fill="springgreen" stroke="springgreen" cx="123.44" cy="-264" rx="53.89" ry="18"/>
<text text-anchor="middle" x="123.44" y="-260.3" font-family="Times,serif" font-size="14.00">PostgreSQL</text>
</g>
<!-- PostgreSQL License(7) -->
<g id="node15" class="node">
<title>PostgreSQL License(7)</title>
<ellipse fill="white" stroke="white" cx="123.44" cy="-210" rx="83.39" ry="18"/>
<text text-anchor="middle" x="123.44" y="-206.3" font-family="Times,serif" font-size="14.00">PostgreSQL License</text>
</g>
<!-- PostgreSQL(8) -->
<g id="node16" class="node">
<title>PostgreSQL(8)</title>
<ellipse fill="springgreen" stroke="springgreen" cx="123.44" cy="-150" rx="53.89" ry="18"/>
<text text-anchor="middle" x="123.44" y="-146.3" font-family="Times,serif" font-size="14.00">PostgreSQL</text>
</g>
<!-- PostgreSQL License(8) -->
<g id="node17" class="node">
<title>PostgreSQL License(8)</title>
<ellipse fill="white" stroke="white" cx="123.44" cy="-96" rx="83.39" ry="18"/>
<text text-anchor="middle" x="123.44" y="-92.3" font-family="Times,serif" font-size="14.00">PostgreSQL License</text>
</g>
<!-- scancode://postgresql(8) -->
<g id="node18" class="node">
<title>scancode://postgresql(8)</title>
<ellipse fill="white" stroke="white" cx="123.44" cy="-42" rx="86.38" ry="18"/>
<text text-anchor="middle" x="123.44" y="-38.3" font-family="Times,serif" font-size="14.00">scancode://postgresql</text>
</g>
</g>
</svg>
