<?xml version="1.0" encoding="UTF-8" standalone="no"?>
<!DOCTYPE svg PUBLIC "-//W3C//DTD SVG 1.1//EN"
 "http://www.w3.org/Graphics/SVG/1.1/DTD/svg11.dtd">
<!-- Generated by graphviz version 2.43.0 (0)
 -->
<!-- Title: PSF&#45;2.0 Pages: 1 -->
<svg width="438pt" height="320pt"
 viewBox="0.00 0.00 438.17 320.00" xmlns="http://www.w3.org/2000/svg" xmlns:xlink="http://www.w3.org/1999/xlink">
<g id="graph0" class="graph" transform="scale(1 1) rotate(0) translate(4 316)">
<title>PSF&#45;2.0</title>
<polygon fill="white" stroke="transparent" points="-4,4 -4,-316 434.17,-316 434.17,4 -4,4"/>
<g id="clust1" class="cluster">
<title>cluster_0</title>
<polygon fill="none" stroke="black" points="8,-8 8,-304 422.17,-304 422.17,-8 8,-8"/>
</g>
<g id="clust2" class="cluster">
<title>cluster_1</title>
<polygon fill="lightgray" stroke="lightgray" points="161.59,-244 161.59,-296 268.58,-296 268.58,-244 161.59,-244"/>
</g>
<g id="clust3" class="cluster">
<title>cluster_2</title>
<polygon fill="lightgray" stroke="lightgray" points="16,-130 16,-236 414.17,-236 414.17,-130 16,-130"/>
</g>
<g id="clust4" class="cluster">
<title>cluster_3</title>
<polygon fill="lightgray" stroke="lightgray" points="113.49,-16 113.49,-122 316.67,-122 316.67,-16 113.49,-16"/>
</g>
<!-- PSF&#45;2.0(1) -->
<g id="node1" class="node">
<title>PSF&#45;2.0(1)</title>
<ellipse fill="springgreen" stroke="springgreen" cx="215.08" cy="-270" rx="45.49" ry="18"/>
<text text-anchor="middle" x="215.08" y="-266.3" font-family="Times-Roman" font-size="14.00">PSF&#45;2.0</text>
</g>
<!-- PSF&#45;2.0(2) -->
<g id="node2" class="node">
<title>PSF&#45;2.0(2)</title>
<ellipse fill="springgreen" stroke="springgreen" cx="215.08" cy="-210" rx="45.49" ry="18"/>
<text text-anchor="middle" x="215.08" y="-206.3" font-family="Times-Roman" font-size="14.00">PSF&#45;2.0</text>
</g>
<!-- Python Software Foundation License 2.0(2) -->
<g id="node3" class="node">
<title>Python Software Foundation License 2.0(2)</title>
<ellipse fill="white" stroke="white" cx="215.08" cy="-156" rx="191.17" ry="18"/>
<text text-anchor="middle" x="215.08" y="-152.3" font-family="Times-Roman" font-size="14.00">Python Software Foundation License 2.0</text>
</g>
<!-- PSF&#45;2.0(3) -->
<g id="node4" class="node">
<title>PSF&#45;2.0(3)</title>
<ellipse fill="springgreen" stroke="springgreen" cx="215.08" cy="-96" rx="45.49" ry="18"/>
<text text-anchor="middle" x="215.08" y="-92.3" font-family="Times-Roman" font-size="14.00">PSF&#45;2.0</text>
</g>
<!-- scancode://psf&#45;2.0(3) -->
<g id="node5" class="node">
<title>scancode://psf&#45;2.0(3)</title>
<ellipse fill="white" stroke="white" cx="215.08" cy="-42" rx="93.68" ry="18"/>
<text text-anchor="middle" x="215.08" y="-38.3" font-family="Times-Roman" font-size="14.00">scancode://psf&#45;2.0</text>
</g>
</g>
</svg>
