<?xml version="1.0" encoding="UTF-8" standalone="no"?>
<!DOCTYPE svg PUBLIC "-//W3C//DTD SVG 1.1//EN"
 "http://www.w3.org/Graphics/SVG/1.1/DTD/svg11.dtd">
<!-- Generated by graphviz version 2.43.0 (0)
 -->
<!-- Title: psfrag Pages: 1 -->
<svg width="888pt" height="115pt"
 viewBox="0.00 0.00 888.00 115.00" xmlns="http://www.w3.org/2000/svg" xmlns:xlink="http://www.w3.org/1999/xlink">
<g id="graph0" class="graph" transform="scale(1 1) rotate(0) translate(4 111)">
<title>psfrag</title>
<polygon fill="white" stroke="transparent" points="-4,4 -4,-111 884,-111 884,4 -4,4"/>
<g id="clust1" class="cluster">
<title>cluster_0</title>
<polygon fill="none" stroke="black" points="8,-8 8,-99 872,-99 872,-8 8,-8"/>
</g>
<g id="clust2" class="cluster">
<title>cluster_1</title>
<polygon fill="lightgray" stroke="lightgray" points="768,-16 768,-91 864,-91 864,-16 768,-16"/>
<text text-anchor="middle" x="816" y="-75.8" font-family="Times-Roman" font-size="14.00">prev</text>
</g>
<g id="clust3" class="cluster">
<title>cluster_2</title>
<polygon fill="lightgray" stroke="lightgray" points="492,-16 492,-68 760,-68 760,-16 492,-16"/>
</g>
<g id="clust4" class="cluster">
<title>cluster_3</title>
<polygon fill="lightgray" stroke="lightgray" points="16,-16 16,-68 484,-68 484,-16 16,-16"/>
</g>
<!-- psfrag(1) -->
<g id="node1" class="node">
<title>psfrag(1)</title>
<ellipse fill="springgreen" stroke="springgreen" cx="816" cy="-42" rx="40.09" ry="18"/>
<text text-anchor="middle" x="816" y="-38.3" font-family="Times-Roman" font-size="14.00">psfrag</text>
</g>
<!-- psfrag(2) -->
<g id="node2" class="node">
<title>psfrag(2)</title>
<ellipse fill="springgreen" stroke="springgreen" cx="712" cy="-42" rx="40.09" ry="18"/>
<text text-anchor="middle" x="712" y="-38.3" font-family="Times-Roman" font-size="14.00">psfrag</text>
</g>
<!-- psfrag License(2) -->
<g id="node3" class="node">
<title>psfrag License(2)</title>
<ellipse fill="white" stroke="white" cx="577" cy="-42" rx="76.89" ry="18"/>
<text text-anchor="middle" x="577" y="-38.3" font-family="Times-Roman" font-size="14.00">psfrag License</text>
</g>
<!-- psfrag(3) -->
<g id="node4" class="node">
<title>psfrag(3)</title>
<ellipse fill="springgreen" stroke="springgreen" cx="436" cy="-42" rx="40.09" ry="18"/>
<text text-anchor="middle" x="436" y="-38.3" font-family="Times-Roman" font-size="14.00">psfrag</text>
</g>
<!-- psfrag License(3) -->
<g id="node5" class="node">
<title>psfrag License(3)</title>
<ellipse fill="white" stroke="white" cx="301" cy="-42" rx="76.89" ry="18"/>
<text text-anchor="middle" x="301" y="-38.3" font-family="Times-Roman" font-size="14.00">psfrag License</text>
</g>
<!-- scancode://psfrag(3) -->
<g id="node6" class="node">
<title>scancode://psfrag(3)</title>
<ellipse fill="white" stroke="white" cx="115" cy="-42" rx="90.98" ry="18"/>
<text text-anchor="middle" x="115" y="-38.3" font-family="Times-Roman" font-size="14.00">scancode://psfrag</text>
</g>
</g>
</svg>
