<?xml version="1.0" encoding="UTF-8" standalone="no"?>
<!DOCTYPE svg PUBLIC "-//W3C//DTD SVG 1.1//EN"
 "http://www.w3.org/Graphics/SVG/1.1/DTD/svg11.dtd">
<!-- Generated by graphviz version 2.43.0 (0)
 -->
<!-- Title: psfrag Pages: 1 -->
<svg width="520pt" height="115pt"
 viewBox="0.00 0.00 520.00 115.00" xmlns="http://www.w3.org/2000/svg" xmlns:xlink="http://www.w3.org/1999/xlink">
<g id="graph0" class="graph" transform="scale(1 1) rotate(0) translate(4 111)">
<title>psfrag</title>
<polygon fill="white" stroke="transparent" points="-4,4 -4,-111 516,-111 516,4 -4,4"/>
<g id="clust1" class="cluster">
<title>cluster_0</title>
<polygon fill="none" stroke="black" points="8,-8 8,-99 504,-99 504,-8 8,-8"/>
</g>
<g id="clust2" class="cluster">
<title>cluster_1</title>
<polygon fill="lightgray" stroke="lightgray" points="400,-16 400,-91 496,-91 496,-16 400,-16"/>
<text text-anchor="middle" x="448" y="-75.8" font-family="Times-Roman" font-size="14.00">process #1</text>
</g>
<g id="clust3" class="cluster">
<title>cluster_2</title>
<polygon fill="lightgray" stroke="lightgray" points="222,-16 222,-91 392,-91 392,-16 222,-16"/>
<text text-anchor="middle" x="307" y="-75.8" font-family="Times-Roman" font-size="14.00">process #1</text>
</g>
<g id="clust4" class="cluster">
<title>cluster_3</title>
<polygon fill="lightgray" stroke="lightgray" points="16,-16 16,-91 214,-91 214,-16 16,-16"/>
<text text-anchor="middle" x="115" y="-75.8" font-family="Times-Roman" font-size="14.00">process #1</text>
</g>
<!-- psfrag -->
<g id="node1" class="node">
<title>psfrag</title>
<ellipse fill="white" stroke="white" cx="448" cy="-42" rx="40.09" ry="18"/>
<text text-anchor="middle" x="448" y="-38.3" font-family="Times-Roman" font-size="14.00">psfrag</text>
</g>
<!-- psfrag License -->
<g id="node2" class="node">
<title>psfrag License</title>
<ellipse fill="white" stroke="white" cx="307" cy="-42" rx="76.89" ry="18"/>
<text text-anchor="middle" x="307" y="-38.3" font-family="Times-Roman" font-size="14.00">psfrag License</text>
</g>
<!-- scancode://psfrag -->
<g id="node3" class="node">
<title>scancode://psfrag</title>
<ellipse fill="white" stroke="white" cx="115" cy="-42" rx="90.98" ry="18"/>
<text text-anchor="middle" x="115" y="-38.3" font-family="Times-Roman" font-size="14.00">scancode://psfrag</text>
</g>
</g>
</svg>
