<?xml version="1.0" encoding="UTF-8" standalone="no"?>
<!DOCTYPE svg PUBLIC "-//W3C//DTD SVG 1.1//EN"
 "http://www.w3.org/Graphics/SVG/1.1/DTD/svg11.dtd">
<!-- Generated by graphviz version 2.43.0 (0)
 -->
<!-- Title: psutils Pages: 1 -->
<svg width="764pt" height="98pt"
 viewBox="0.00 0.00 764.00 98.43" xmlns="http://www.w3.org/2000/svg" xmlns:xlink="http://www.w3.org/1999/xlink">
<g id="graph0" class="graph" transform="scale(1 1) rotate(0) translate(4 94.43)">
<title>psutils</title>
<polygon fill="white" stroke="transparent" points="-4,4 -4,-94.43 760,-94.43 760,4 -4,4"/>
<g id="clust1" class="cluster">
<title>cluster_0</title>
<polygon fill="none" stroke="black" points="8,-8 8,-82.43 748,-82.43 748,-8 8,-8"/>
</g>
<g id="clust2" class="cluster">
<title>cluster_1</title>
<polygon fill="lightgray" stroke="lightgray" points="610,-16 610,-74.43 740,-74.43 740,-16 610,-16"/>
</g>
<g id="clust3" class="cluster">
<title>cluster_2</title>
<polygon fill="lightgray" stroke="lightgray" points="432,-19.21 432,-71.21 602,-71.21 602,-19.21 432,-19.21"/>
</g>
<g id="clust5" class="cluster">
<title>cluster_4</title>
<polygon fill="lightgray" stroke="lightgray" points="16,-19.21 16,-71.21 424,-71.21 424,-19.21 16,-19.21"/>
</g>
<!-- psutils -->
<g id="node1" class="node">
<title>psutils</title>
<ellipse fill="springgreen" stroke="springgreen" cx="675" cy="-45.21" rx="57.05" ry="21.43"/>
<text text-anchor="middle" x="675" y="-40.21" font-family="Times-Roman" font-size="20.00">psutils</text>
</g>
<!-- psutils License -->
<g id="node2" class="node">
<title>psutils License</title>
<ellipse fill="white" stroke="white" cx="517" cy="-45.21" rx="77.19" ry="18"/>
<text text-anchor="middle" x="517" y="-41.51" font-family="Times-Roman" font-size="14.00">psutils License</text>
</g>
<!-- PS Utilities License -->
<g id="node3" class="node">
<title>PS Utilities License</title>
<ellipse fill="white" stroke="white" cx="321" cy="-45.21" rx="94.78" ry="18"/>
<text text-anchor="middle" x="321" y="-41.51" font-family="Times-Roman" font-size="14.00">PS Utilities License</text>
</g>
<!-- scancode://psutils -->
<g id="node4" class="node">
<title>scancode://psutils</title>
<ellipse fill="white" stroke="white" cx="116" cy="-45.21" rx="91.78" ry="18"/>
<text text-anchor="middle" x="116" y="-41.51" font-family="Times-Roman" font-size="14.00">scancode://psutils</text>
</g>
</g>
</svg>
