<?xml version="1.0" encoding="UTF-8" standalone="no"?>
<!DOCTYPE svg PUBLIC "-//W3C//DTD SVG 1.1//EN"
 "http://www.w3.org/Graphics/SVG/1.1/DTD/svg11.dtd">
<!-- Generated by graphviz version 2.49.3 (0)
 -->
<!-- Title: Python&#45;2.0 Pages: 1 -->
<svg width="536pt" height="1112pt"
 viewBox="0.00 0.00 535.66 1112.00" xmlns="http://www.w3.org/2000/svg" xmlns:xlink="http://www.w3.org/1999/xlink">
<g id="graph0" class="graph" transform="scale(1 1) rotate(0) translate(4 1108)">
<title>Python&#45;2.0</title>
<polygon fill="white" stroke="transparent" points="-4,4 -4,-1108 531.66,-1108 531.66,4 -4,4"/>
<g id="clust1" class="cluster">
<title>cluster_0</title>
<polygon fill="none" stroke="black" points="8,-8 8,-1096 519.66,-1096 519.66,-8 8,-8"/>
</g>
<g id="clust2" class="cluster">
<title>cluster_1</title>
<polygon fill="lightgray" stroke="lightgray" points="205.78,-1036 205.78,-1088 321.87,-1088 321.87,-1036 205.78,-1036"/>
</g>
<g id="clust3" class="cluster">
<title>cluster_2</title>
<polygon fill="lightgray" stroke="lightgray" points="176.54,-922 176.54,-1028 351.12,-1028 351.12,-922 176.54,-922"/>
</g>
<g id="clust4" class="cluster">
<title>cluster_3</title>
<polygon fill="lightgray" stroke="lightgray" points="176.54,-808 176.54,-914 351.12,-914 351.12,-808 176.54,-808"/>
</g>
<g id="clust5" class="cluster">
<title>cluster_4</title>
<polygon fill="lightgray" stroke="lightgray" points="16,-640 16,-800 511.66,-800 511.66,-640 16,-640"/>
</g>
<g id="clust6" class="cluster">
<title>cluster_5</title>
<polygon fill="lightgray" stroke="lightgray" points="176.54,-526 176.54,-632 351.12,-632 351.12,-526 176.54,-526"/>
</g>
<g id="clust7" class="cluster">
<title>cluster_6</title>
<polygon fill="lightgray" stroke="lightgray" points="16,-412 16,-518 511.66,-518 511.66,-412 16,-412"/>
</g>
<g id="clust8" class="cluster">
<title>cluster_7</title>
<polygon fill="lightgray" stroke="lightgray" points="176.54,-298 176.54,-404 351.12,-404 351.12,-298 176.54,-298"/>
</g>
<g id="clust9" class="cluster">
<title>cluster_8</title>
<polygon fill="lightgray" stroke="lightgray" points="176.54,-130 176.54,-290 351.12,-290 351.12,-130 176.54,-130"/>
</g>
<g id="clust10" class="cluster">
<title>cluster_9</title>
<polygon fill="lightgray" stroke="lightgray" points="106.99,-16 106.99,-122 420.67,-122 420.67,-16 106.99,-16"/>
</g>
<!-- Python&#45;2.0(1) -->
<g id="node1" class="node">
<title>Python&#45;2.0(1)</title>
<ellipse fill="springgreen" stroke="springgreen" cx="263.83" cy="-1062" rx="50.09" ry="18"/>
<text text-anchor="middle" x="263.83" y="-1058.3" font-family="Times,serif" font-size="14.00">Python&#45;2.0</text>
</g>
<!-- Python License 2.0(2) -->
<g id="node2" class="node">
<title>Python License 2.0(2)</title>
<ellipse fill="white" stroke="white" cx="263.83" cy="-1002" rx="79.09" ry="18"/>
<text text-anchor="middle" x="263.83" y="-998.3" font-family="Times,serif" font-size="14.00">Python License 2.0</text>
</g>
<!-- Python&#45;2.0(2) -->
<g id="node3" class="node">
<title>Python&#45;2.0(2)</title>
<ellipse fill="springgreen" stroke="springgreen" cx="263.83" cy="-948" rx="50.09" ry="18"/>
<text text-anchor="middle" x="263.83" y="-944.3" font-family="Times,serif" font-size="14.00">Python&#45;2.0</text>
</g>
<!-- Python License 2.0(3) -->
<g id="node4" class="node">
<title>Python License 2.0(3)</title>
<ellipse fill="white" stroke="white" cx="263.83" cy="-888" rx="79.09" ry="18"/>
<text text-anchor="middle" x="263.83" y="-884.3" font-family="Times,serif" font-size="14.00">Python License 2.0</text>
</g>
<!-- Python&#45;2.0(3) -->
<g id="node5" class="node">
<title>Python&#45;2.0(3)</title>
<ellipse fill="springgreen" stroke="springgreen" cx="263.83" cy="-834" rx="50.09" ry="18"/>
<text text-anchor="middle" x="263.83" y="-830.3" font-family="Times,serif" font-size="14.00">Python&#45;2.0</text>
</g>
<!-- License :: OSI Approved :: Python Software Foundation License(4) -->
<g id="node6" class="node">
<title>License :: OSI Approved :: Python Software Foundation License(4)</title>
<ellipse fill="white" stroke="white" cx="263.83" cy="-774" rx="239.66" ry="18"/>
<text text-anchor="middle" x="263.83" y="-770.3" font-family="Times,serif" font-size="14.00">License :: OSI Approved :: Python Software Foundation License</text>
</g>
<!-- Python License, Version 2.0(4) -->
<g id="node7" class="node">
<title>Python License, Version 2.0(4)</title>
<ellipse fill="white" stroke="white" cx="263.83" cy="-720" rx="110.48" ry="18"/>
<text text-anchor="middle" x="263.83" y="-716.3" font-family="Times,serif" font-size="14.00">Python License, Version 2.0</text>
</g>
<!-- Python&#45;2.0(4) -->
<g id="node8" class="node">
<title>Python&#45;2.0(4)</title>
<ellipse fill="springgreen" stroke="springgreen" cx="263.83" cy="-666" rx="50.09" ry="18"/>
<text text-anchor="middle" x="263.83" y="-662.3" font-family="Times,serif" font-size="14.00">Python&#45;2.0</text>
</g>
<!-- Python License 2.0(5) -->
<g id="node9" class="node">
<title>Python License 2.0(5)</title>
<ellipse fill="white" stroke="white" cx="263.83" cy="-606" rx="79.09" ry="18"/>
<text text-anchor="middle" x="263.83" y="-602.3" font-family="Times,serif" font-size="14.00">Python License 2.0</text>
</g>
<!-- Python&#45;2.0(5) -->
<g id="node10" class="node">
<title>Python&#45;2.0(5)</title>
<ellipse fill="springgreen" stroke="springgreen" cx="263.83" cy="-552" rx="50.09" ry="18"/>
<text text-anchor="middle" x="263.83" y="-548.3" font-family="Times,serif" font-size="14.00">Python&#45;2.0</text>
</g>
<!-- PYTHON SOFTWARE FOUNDATION LICENSE VERSION 2(6) -->
<g id="node11" class="node">
<title>PYTHON SOFTWARE FOUNDATION LICENSE VERSION 2(6)</title>
<ellipse fill="white" stroke="white" cx="263.83" cy="-492" rx="239.66" ry="18"/>
<text text-anchor="middle" x="263.83" y="-488.3" font-family="Times,serif" font-size="14.00">PYTHON SOFTWARE FOUNDATION LICENSE VERSION 2</text>
</g>
<!-- Python&#45;2.0(6) -->
<g id="node12" class="node">
<title>Python&#45;2.0(6)</title>
<ellipse fill="springgreen" stroke="springgreen" cx="263.83" cy="-438" rx="50.09" ry="18"/>
<text text-anchor="middle" x="263.83" y="-434.3" font-family="Times,serif" font-size="14.00">Python&#45;2.0</text>
</g>
<!-- Python License 2.0(7) -->
<g id="node13" class="node">
<title>Python License 2.0(7)</title>
<ellipse fill="white" stroke="white" cx="263.83" cy="-378" rx="79.09" ry="18"/>
<text text-anchor="middle" x="263.83" y="-374.3" font-family="Times,serif" font-size="14.00">Python License 2.0</text>
</g>
<!-- Python&#45;2.0(7) -->
<g id="node14" class="node">
<title>Python&#45;2.0(7)</title>
<ellipse fill="springgreen" stroke="springgreen" cx="263.83" cy="-324" rx="50.09" ry="18"/>
<text text-anchor="middle" x="263.83" y="-320.3" font-family="Times,serif" font-size="14.00">Python&#45;2.0</text>
</g>
<!-- Python License 2.0(8) -->
<g id="node15" class="node">
<title>Python License 2.0(8)</title>
<ellipse fill="white" stroke="white" cx="263.83" cy="-264" rx="79.09" ry="18"/>
<text text-anchor="middle" x="263.83" y="-260.3" font-family="Times,serif" font-size="14.00">Python License 2.0</text>
</g>
<!-- Python&#45;2.0(8) -->
<g id="node16" class="node">
<title>Python&#45;2.0(8)</title>
<ellipse fill="springgreen" stroke="springgreen" cx="263.83" cy="-210" rx="50.09" ry="18"/>
<text text-anchor="middle" x="263.83" y="-206.3" font-family="Times,serif" font-size="14.00">Python&#45;2.0</text>
</g>
<!-- scancode://python(8) -->
<g id="node17" class="node">
<title>scancode://python(8)</title>
<ellipse fill="white" stroke="white" cx="263.83" cy="-156" rx="74.99" ry="18"/>
<text text-anchor="middle" x="263.83" y="-152.3" font-family="Times,serif" font-size="14.00">scancode://python</text>
</g>
<!-- Python Software Foundation License 2(9) -->
<g id="node18" class="node">
<title>Python Software Foundation License 2(9)</title>
<ellipse fill="white" stroke="white" cx="263.83" cy="-96" rx="148.67" ry="18"/>
<text text-anchor="middle" x="263.83" y="-92.3" font-family="Times,serif" font-size="14.00">Python Software Foundation License 2</text>
</g>
<!-- Python&#45;2.0(9) -->
<g id="node19" class="node">
<title>Python&#45;2.0(9)</title>
<ellipse fill="springgreen" stroke="springgreen" cx="263.83" cy="-42" rx="50.09" ry="18"/>
<text text-anchor="middle" x="263.83" y="-38.3" font-family="Times,serif" font-size="14.00">Python&#45;2.0</text>
</g>
</g>
</svg>
