<?xml version="1.0" encoding="UTF-8" standalone="no"?>
<!DOCTYPE svg PUBLIC "-//W3C//DTD SVG 1.1//EN"
 "http://www.w3.org/Graphics/SVG/1.1/DTD/svg11.dtd">
<!-- Generated by graphviz version 2.43.0 (0)
 -->
<!-- Title: RPL&#45;1.5 Pages: 1 -->
<svg width="2413pt" height="98pt"
 viewBox="0.00 0.00 2413.00 98.43" xmlns="http://www.w3.org/2000/svg" xmlns:xlink="http://www.w3.org/1999/xlink">
<g id="graph0" class="graph" transform="scale(1 1) rotate(0) translate(4 94.43)">
<title>RPL&#45;1.5</title>
<polygon fill="white" stroke="transparent" points="-4,4 -4,-94.43 2409,-94.43 2409,4 -4,4"/>
<g id="clust1" class="cluster">
<title>cluster_0</title>
<polygon fill="none" stroke="black" points="8,-8 8,-82.43 2397,-82.43 2397,-8 8,-8"/>
</g>
<g id="clust2" class="cluster">
<title>cluster_1</title>
<polygon fill="lightgray" stroke="lightgray" points="2203,-16 2203,-74.43 2389,-74.43 2389,-16 2203,-16"/>
</g>
<g id="clust3" class="cluster">
<title>cluster_2</title>
<polygon fill="lightgray" stroke="lightgray" points="1685,-16 1685,-74.43 2195,-74.43 2195,-16 1685,-16"/>
</g>
<g id="clust4" class="cluster">
<title>cluster_3</title>
<polygon fill="lightgray" stroke="lightgray" points="1130,-16 1130,-74.43 1677,-74.43 1677,-16 1130,-16"/>
</g>
<g id="clust5" class="cluster">
<title>cluster_4</title>
<polygon fill="lightgray" stroke="lightgray" points="534,-16 534,-74.43 1122,-74.43 1122,-16 534,-16"/>
</g>
<g id="clust6" class="cluster">
<title>cluster_5</title>
<polygon fill="lightgray" stroke="lightgray" points="16,-16 16,-74.43 526,-74.43 526,-16 16,-16"/>
</g>
<!-- RPL&#45;1.5(1) -->
<g id="node1" class="node">
<title>RPL&#45;1.5(1)</title>
<ellipse fill="springgreen" stroke="springgreen" cx="2296" cy="-45.21" rx="84.71" ry="21.43"/>
<text text-anchor="middle" x="2296" y="-40.21" font-family="Times-Roman" font-size="20.00">RPL&#45;1.5(1)</text>
</g>
<!-- RPL&#45;1.5(2) -->
<g id="node2" class="node">
<title>RPL&#45;1.5(2)</title>
<ellipse fill="springgreen" stroke="springgreen" cx="2102" cy="-45.21" rx="84.71" ry="21.43"/>
<text text-anchor="middle" x="2102" y="-40.21" font-family="Times-Roman" font-size="20.00">RPL&#45;1.5(2)</text>
</g>
<!-- Reciprocal Public License 1.5(2) -->
<g id="node3" class="node">
<title>Reciprocal Public License 1.5(2)</title>
<ellipse fill="white" stroke="white" cx="1846" cy="-45.21" rx="153.27" ry="18"/>
<text text-anchor="middle" x="1846" y="-41.51" font-family="Times-Roman" font-size="14.00">Reciprocal Public License 1.5(2)</text>
</g>
<!-- RPL 1.5(3) -->
<g id="node4" class="node">
<title>RPL 1.5(3)</title>
<ellipse fill="white" stroke="white" cx="1611" cy="-45.21" rx="57.69" ry="18"/>
<text text-anchor="middle" x="1611" y="-41.51" font-family="Times-Roman" font-size="14.00">RPL 1.5(3)</text>
</g>
<!-- RPL&#45;1.5(3) -->
<g id="node5" class="node">
<title>RPL&#45;1.5(3)</title>
<ellipse fill="springgreen" stroke="springgreen" cx="1450" cy="-45.21" rx="84.71" ry="21.43"/>
<text text-anchor="middle" x="1450" y="-40.21" font-family="Times-Roman" font-size="20.00">RPL&#45;1.5(3)</text>
</g>
<!-- scancode://rpl&#45;1.5(3) -->
<g id="node6" class="node">
<title>scancode://rpl&#45;1.5(3)</title>
<ellipse fill="white" stroke="white" cx="1243" cy="-45.21" rx="104.78" ry="18"/>
<text text-anchor="middle" x="1243" y="-41.51" font-family="Times-Roman" font-size="14.00">scancode://rpl&#45;1.5(3)</text>
</g>
<!-- RPL&#45;1.5(4) -->
<g id="node7" class="node">
<title>RPL&#45;1.5(4)</title>
<ellipse fill="springgreen" stroke="springgreen" cx="1029" cy="-45.21" rx="84.71" ry="21.43"/>
<text text-anchor="middle" x="1029" y="-40.21" font-family="Times-Roman" font-size="20.00">RPL&#45;1.5(4)</text>
</g>
<!-- Reciprocal Public License, Version 1.5(4) -->
<g id="node8" class="node">
<title>Reciprocal Public License, Version 1.5(4)</title>
<ellipse fill="white" stroke="white" cx="734" cy="-45.21" rx="192.27" ry="18"/>
<text text-anchor="middle" x="734" y="-41.51" font-family="Times-Roman" font-size="14.00">Reciprocal Public License, Version 1.5(4)</text>
</g>
<!-- RPL&#45;1.5(5) -->
<g id="node9" class="node">
<title>RPL&#45;1.5(5)</title>
<ellipse fill="springgreen" stroke="springgreen" cx="433" cy="-45.21" rx="84.71" ry="21.43"/>
<text text-anchor="middle" x="433" y="-40.21" font-family="Times-Roman" font-size="20.00">RPL&#45;1.5(5)</text>
</g>
<!-- Reciprocal Public License 1.5(5) -->
<g id="node10" class="node">
<title>Reciprocal Public License 1.5(5)</title>
<ellipse fill="white" stroke="white" cx="177" cy="-45.21" rx="153.27" ry="18"/>
<text text-anchor="middle" x="177" y="-41.51" font-family="Times-Roman" font-size="14.00">Reciprocal Public License 1.5(5)</text>
</g>
</g>
</svg>
