<?xml version="1.0" encoding="UTF-8" standalone="no"?>
<!DOCTYPE svg PUBLIC "-//W3C//DTD SVG 1.1//EN"
 "http://www.w3.org/Graphics/SVG/1.1/DTD/svg11.dtd">
<!-- Generated by graphviz version 2.43.0 (0)
 -->
<!-- Title: RPSL&#45;1.0 Pages: 1 -->
<svg width="2102pt" height="108pt"
 viewBox="0.00 0.00 2102.00 108.00" xmlns="http://www.w3.org/2000/svg" xmlns:xlink="http://www.w3.org/1999/xlink">
<g id="graph0" class="graph" transform="scale(1 1) rotate(0) translate(4 104)">
<title>RPSL&#45;1.0</title>
<polygon fill="white" stroke="transparent" points="-4,4 -4,-104 2098,-104 2098,4 -4,4"/>
<g id="clust1" class="cluster">
<title>cluster_0</title>
<polygon fill="none" stroke="black" points="8,-8 8,-92 2086,-92 2086,-8 8,-8"/>
</g>
<g id="clust2" class="cluster">
<title>cluster_1</title>
<polygon fill="none" stroke="black" points="432,-16 432,-84 2078,-84 2078,-16 432,-16"/>
</g>
<g id="clust3" class="cluster">
<title>cluster_2</title>
<polygon fill="lightgray" stroke="lightgray" points="1952,-24 1952,-76 2070,-76 2070,-24 1952,-24"/>
</g>
<g id="clust4" class="cluster">
<title>cluster_3</title>
<polygon fill="lightgray" stroke="lightgray" points="1538,-24 1538,-76 1944,-76 1944,-24 1538,-24"/>
</g>
<g id="clust5" class="cluster">
<title>cluster_4</title>
<polygon fill="lightgray" stroke="lightgray" points="922,-24 922,-76 1530,-76 1530,-24 922,-24"/>
</g>
<g id="clust6" class="cluster">
<title>cluster_5</title>
<polygon fill="lightgray" stroke="lightgray" points="440,-24 440,-76 914,-76 914,-24 440,-24"/>
</g>
<g id="clust8" class="cluster">
<title>cluster_7</title>
<polygon fill="lightgray" stroke="lightgray" points="16,-24 16,-76 424,-76 424,-24 16,-24"/>
</g>
<!-- RPSL&#45;1.0 -->
<g id="node1" class="node">
<title>RPSL&#45;1.0</title>
<ellipse fill="white" stroke="white" cx="2011" cy="-50" rx="51.19" ry="18"/>
<text text-anchor="middle" x="2011" y="-46.3" font-family="Times-Roman" font-size="14.00">RPSL&#45;1.0</text>
</g>
<!-- RealNetworks Public Source License v1.0 -->
<g id="node2" class="node">
<title>RealNetworks Public Source License v1.0</title>
<ellipse fill="white" stroke="white" cx="1741" cy="-50" rx="194.97" ry="18"/>
<text text-anchor="middle" x="1741" y="-46.3" font-family="Times-Roman" font-size="14.00">RealNetworks Public Source License v1.0</text>
</g>
<!-- RealNetworks Public Source License 1.0 -->
<g id="node3" class="node">
<title>RealNetworks Public Source License 1.0</title>
<ellipse fill="white" stroke="white" cx="1332" cy="-50" rx="189.57" ry="18"/>
<text text-anchor="middle" x="1332" y="-46.3" font-family="Times-Roman" font-size="14.00">RealNetworks Public Source License 1.0</text>
</g>
<!-- scancode://rpsl&#45;1.0 -->
<g id="node4" class="node">
<title>scancode://rpsl&#45;1.0</title>
<ellipse fill="white" stroke="white" cx="1027" cy="-50" rx="96.68" ry="18"/>
<text text-anchor="middle" x="1027" y="-46.3" font-family="Times-Roman" font-size="14.00">scancode://rpsl&#45;1.0</text>
</g>
<!-- RealNetworks Public Source License, Version 1.0 -->
<g id="node5" class="node">
<title>RealNetworks Public Source License, Version 1.0</title>
<ellipse fill="white" stroke="white" cx="677" cy="-50" rx="228.56" ry="18"/>
<text text-anchor="middle" x="677" y="-46.3" font-family="Times-Roman" font-size="14.00">RealNetworks Public Source License, Version 1.0</text>
</g>
<!-- RealNetworks Public Source License V1.0 -->
<g id="node6" class="node">
<title>RealNetworks Public Source License V1.0</title>
<ellipse fill="white" stroke="white" cx="220" cy="-50" rx="196.07" ry="18"/>
<text text-anchor="middle" x="220" y="-46.3" font-family="Times-Roman" font-size="14.00">RealNetworks Public Source License V1.0</text>
</g>
</g>
</svg>
