<?xml version="1.0" encoding="UTF-8" standalone="no"?>
<!DOCTYPE svg PUBLIC "-//W3C//DTD SVG 1.1//EN"
 "http://www.w3.org/Graphics/SVG/1.1/DTD/svg11.dtd">
<!-- Generated by graphviz version 2.43.0 (0)
 -->
<!-- Title: RSA&#45;MD Pages: 1 -->
<svg width="882pt" height="115pt"
 viewBox="0.00 0.00 882.00 115.00" xmlns="http://www.w3.org/2000/svg" xmlns:xlink="http://www.w3.org/1999/xlink">
<g id="graph0" class="graph" transform="scale(1 1) rotate(0) translate(4 111)">
<title>RSA&#45;MD</title>
<polygon fill="white" stroke="transparent" points="-4,4 -4,-111 878,-111 878,4 -4,4"/>
<g id="clust1" class="cluster">
<title>cluster_0</title>
<polygon fill="none" stroke="black" points="8,-8 8,-99 866,-99 866,-8 8,-8"/>
</g>
<g id="clust2" class="cluster">
<title>cluster_1</title>
<polygon fill="lightgray" stroke="lightgray" points="748,-16 748,-91 858,-91 858,-16 748,-16"/>
<text text-anchor="middle" x="803" y="-75.8" font-family="Times-Roman" font-size="14.00">process #1</text>
</g>
<g id="clust3" class="cluster">
<title>cluster_2</title>
<polygon fill="lightgray" stroke="lightgray" points="436,-16 436,-91 740,-91 740,-16 436,-16"/>
<text text-anchor="middle" x="588" y="-75.8" font-family="Times-Roman" font-size="14.00">process #1</text>
</g>
<g id="clust5" class="cluster">
<title>cluster_4</title>
<polygon fill="lightgray" stroke="lightgray" points="16,-16 16,-91 428,-91 428,-16 16,-16"/>
<text text-anchor="middle" x="222" y="-75.8" font-family="Times-Roman" font-size="14.00">process #1</text>
</g>
<!-- RSA&#45;MD -->
<g id="node1" class="node">
<title>RSA&#45;MD</title>
<ellipse fill="white" stroke="white" cx="803" cy="-42" rx="46.59" ry="18"/>
<text text-anchor="middle" x="803" y="-38.3" font-family="Times-Roman" font-size="14.00">RSA&#45;MD</text>
</g>
<!-- RSA Message&#45;Digest License  -->
<g id="node2" class="node">
<title>RSA Message&#45;Digest License </title>
<ellipse fill="white" stroke="white" cx="588" cy="-42" rx="143.77" ry="18"/>
<text text-anchor="middle" x="588" y="-38.3" font-family="Times-Roman" font-size="14.00">RSA Message&#45;Digest License </text>
</g>
<!-- RSA&#45;MD5 License -->
<g id="node3" class="node">
<title>RSA&#45;MD5 License</title>
<ellipse fill="white" stroke="white" cx="331" cy="-42" rx="89.08" ry="18"/>
<text text-anchor="middle" x="331" y="-38.3" font-family="Times-Roman" font-size="14.00">RSA&#45;MD5 License</text>
</g>
<!-- scancode://rsa&#45;md5 -->
<g id="node4" class="node">
<title>scancode://rsa&#45;md5</title>
<ellipse fill="white" stroke="white" cx="124" cy="-42" rx="100.18" ry="18"/>
<text text-anchor="middle" x="124" y="-38.3" font-family="Times-Roman" font-size="14.00">scancode://rsa&#45;md5</text>
</g>
</g>
</svg>
