<?xml version="1.0" encoding="UTF-8" standalone="no"?>
<!DOCTYPE svg PUBLIC "-//W3C//DTD SVG 1.1//EN"
 "http://www.w3.org/Graphics/SVG/1.1/DTD/svg11.dtd">
<!-- Generated by graphviz version 2.43.0 (0)
 -->
<!-- Title: SCEA Pages: 1 -->
<svg width="335pt" height="206pt"
 viewBox="0.00 0.00 335.48 206.00" xmlns="http://www.w3.org/2000/svg" xmlns:xlink="http://www.w3.org/1999/xlink">
<g id="graph0" class="graph" transform="scale(1 1) rotate(0) translate(4 202)">
<title>SCEA</title>
<polygon fill="white" stroke="transparent" points="-4,4 -4,-202 331.48,-202 331.48,4 -4,4"/>
<g id="clust1" class="cluster">
<title>cluster_0</title>
<polygon fill="none" stroke="black" points="8,-8 8,-190 319.48,-190 319.48,-8 8,-8"/>
</g>
<g id="clust2" class="cluster">
<title>cluster_1</title>
<polygon fill="lightgray" stroke="lightgray" points="120.64,-130 120.64,-182 206.83,-182 206.83,-130 120.64,-130"/>
</g>
<g id="clust3" class="cluster">
<title>cluster_2</title>
<polygon fill="lightgray" stroke="lightgray" points="16,-16 16,-122 311.48,-122 311.48,-16 16,-16"/>
</g>
<!-- SCEA(1) -->
<g id="node1" class="node">
<title>SCEA(1)</title>
<ellipse fill="springgreen" stroke="springgreen" cx="163.74" cy="-156" rx="35.19" ry="18"/>
<text text-anchor="middle" x="163.74" y="-152.3" font-family="Times-Roman" font-size="14.00">SCEA</text>
</g>
<!-- SCEA(2) -->
<g id="node2" class="node">
<title>SCEA(2)</title>
<ellipse fill="springgreen" stroke="springgreen" cx="163.74" cy="-96" rx="35.19" ry="18"/>
<text text-anchor="middle" x="163.74" y="-92.3" font-family="Times-Roman" font-size="14.00">SCEA</text>
</g>
<!-- SCEA Shared Source License(2) -->
<g id="node3" class="node">
<title>SCEA Shared Source License(2)</title>
<ellipse fill="white" stroke="white" cx="163.74" cy="-42" rx="139.98" ry="18"/>
<text text-anchor="middle" x="163.74" y="-38.3" font-family="Times-Roman" font-size="14.00">SCEA Shared Source License</text>
</g>
</g>
</svg>
