<?xml version="1.0" encoding="UTF-8" standalone="no"?>
<!DOCTYPE svg PUBLIC "-//W3C//DTD SVG 1.1//EN"
 "http://www.w3.org/Graphics/SVG/1.1/DTD/svg11.dtd">
<!-- Generated by graphviz version 2.43.0 (0)
 -->
<!-- Title: Sendmail&#45;8.23 Pages: 1 -->
<svg width="736pt" height="92pt"
 viewBox="0.00 0.00 736.00 92.00" xmlns="http://www.w3.org/2000/svg" xmlns:xlink="http://www.w3.org/1999/xlink">
<g id="graph0" class="graph" transform="scale(1 1) rotate(0) translate(4 88)">
<title>Sendmail&#45;8.23</title>
<polygon fill="white" stroke="transparent" points="-4,4 -4,-88 732,-88 732,4 -4,4"/>
<g id="clust1" class="cluster">
<title>cluster_0</title>
<polygon fill="none" stroke="black" points="8,-8 8,-76 720,-76 720,-8 8,-8"/>
</g>
<g id="clust2" class="cluster">
<title>cluster_1</title>
<polygon fill="lightgray" stroke="lightgray" points="542,-16 542,-68 712,-68 712,-16 542,-16"/>
</g>
<g id="clust3" class="cluster">
<title>cluster_2</title>
<polygon fill="lightgray" stroke="lightgray" points="294,-16 294,-68 534,-68 534,-16 294,-16"/>
</g>
<g id="clust4" class="cluster">
<title>cluster_3</title>
<polygon fill="lightgray" stroke="lightgray" points="16,-16 16,-68 286,-68 286,-16 16,-16"/>
</g>
<!-- Sendmail&#45;8.23 -->
<g id="node1" class="node">
<title>Sendmail&#45;8.23</title>
<ellipse fill="white" stroke="white" cx="627" cy="-42" rx="76.89" ry="18"/>
<text text-anchor="middle" x="627" y="-38.3" font-family="Times-Roman" font-size="14.00">Sendmail&#45;8.23</text>
</g>
<!-- Sendmail License 8.23 -->
<g id="node2" class="node">
<title>Sendmail License 8.23</title>
<ellipse fill="white" stroke="white" cx="414" cy="-42" rx="112.38" ry="18"/>
<text text-anchor="middle" x="414" y="-38.3" font-family="Times-Roman" font-size="14.00">Sendmail License 8.23</text>
</g>
<!-- scancode://sendmail&#45;8.23 -->
<g id="node3" class="node">
<title>scancode://sendmail&#45;8.23</title>
<ellipse fill="white" stroke="white" cx="151" cy="-42" rx="126.98" ry="18"/>
<text text-anchor="middle" x="151" y="-38.3" font-family="Times-Roman" font-size="14.00">scancode://sendmail&#45;8.23</text>
</g>
</g>
</svg>
