<?xml version="1.0" encoding="UTF-8" standalone="no"?>
<!DOCTYPE svg PUBLIC "-//W3C//DTD SVG 1.1//EN"
 "http://www.w3.org/Graphics/SVG/1.1/DTD/svg11.dtd">
<!-- Generated by graphviz version 2.43.0 (0)
 -->
<!-- Title: SGI&#45;B&#45;1.0 Pages: 1 -->
<svg width="373pt" height="206pt"
 viewBox="0.00 0.00 373.17 206.00" xmlns="http://www.w3.org/2000/svg" xmlns:xlink="http://www.w3.org/1999/xlink">
<g id="graph0" class="graph" transform="scale(1 1) rotate(0) translate(4 202)">
<title>SGI&#45;B&#45;1.0</title>
<polygon fill="white" stroke="transparent" points="-4,4 -4,-202 369.17,-202 369.17,4 -4,4"/>
<g id="clust1" class="cluster">
<title>cluster_0</title>
<polygon fill="none" stroke="black" points="8,-8 8,-190 357.17,-190 357.17,-8 8,-8"/>
</g>
<g id="clust2" class="cluster">
<title>cluster_1</title>
<polygon fill="lightgray" stroke="lightgray" points="120.64,-130 120.64,-182 244.53,-182 244.53,-130 120.64,-130"/>
</g>
<g id="clust3" class="cluster">
<title>cluster_2</title>
<polygon fill="lightgray" stroke="lightgray" points="16,-16 16,-122 349.17,-122 349.17,-16 16,-16"/>
</g>
<!-- SGI&#45;B&#45;1.0(1) -->
<g id="node1" class="node">
<title>SGI&#45;B&#45;1.0(1)</title>
<ellipse fill="springgreen" stroke="springgreen" cx="182.59" cy="-156" rx="53.89" ry="18"/>
<text text-anchor="middle" x="182.59" y="-152.3" font-family="Times-Roman" font-size="14.00">SGI&#45;B&#45;1.0</text>
</g>
<!-- SGI Free Software License B v1.0(2) -->
<g id="node2" class="node">
<title>SGI Free Software License B v1.0(2)</title>
<ellipse fill="white" stroke="white" cx="182.59" cy="-96" rx="158.67" ry="18"/>
<text text-anchor="middle" x="182.59" y="-92.3" font-family="Times-Roman" font-size="14.00">SGI Free Software License B v1.0</text>
</g>
<!-- SGI&#45;B&#45;1.0(2) -->
<g id="node3" class="node">
<title>SGI&#45;B&#45;1.0(2)</title>
<ellipse fill="springgreen" stroke="springgreen" cx="182.59" cy="-42" rx="53.89" ry="18"/>
<text text-anchor="middle" x="182.59" y="-38.3" font-family="Times-Roman" font-size="14.00">SGI&#45;B&#45;1.0</text>
</g>
</g>
</svg>
