<?xml version="1.0" encoding="UTF-8" standalone="no"?>
<!DOCTYPE svg PUBLIC "-//W3C//DTD SVG 1.1//EN"
 "http://www.w3.org/Graphics/SVG/1.1/DTD/svg11.dtd">
<!-- Generated by graphviz version 2.43.0 (0)
 -->
<!-- Title: SGI&#45;B&#45;2.0 Pages: 1 -->
<svg width="2264pt" height="98pt"
 viewBox="0.00 0.00 2264.00 98.43" xmlns="http://www.w3.org/2000/svg" xmlns:xlink="http://www.w3.org/1999/xlink">
<g id="graph0" class="graph" transform="scale(1 1) rotate(0) translate(4 94.43)">
<title>SGI&#45;B&#45;2.0</title>
<polygon fill="white" stroke="transparent" points="-4,4 -4,-94.43 2260,-94.43 2260,4 -4,4"/>
<g id="clust1" class="cluster">
<title>cluster_0</title>
<polygon fill="none" stroke="black" points="8,-8 8,-82.43 2248,-82.43 2248,-8 8,-8"/>
</g>
<g id="clust2" class="cluster">
<title>cluster_1</title>
<polygon fill="lightgray" stroke="lightgray" points="2028,-16 2028,-74.43 2240,-74.43 2240,-16 2028,-16"/>
</g>
<g id="clust3" class="cluster">
<title>cluster_2</title>
<polygon fill="lightgray" stroke="lightgray" points="1448,-16 1448,-74.43 2020,-74.43 2020,-16 1448,-16"/>
</g>
<g id="clust4" class="cluster">
<title>cluster_3</title>
<polygon fill="lightgray" stroke="lightgray" points="868,-16 868,-74.43 1440,-74.43 1440,-16 868,-16"/>
</g>
<g id="clust5" class="cluster">
<title>cluster_4</title>
<polygon fill="lightgray" stroke="lightgray" points="16,-16 16,-74.43 860,-74.43 860,-16 16,-16"/>
</g>
<!-- SGI&#45;B&#45;2.0(1) -->
<g id="node1" class="node">
<title>SGI&#45;B&#45;2.0(1)</title>
<ellipse fill="springgreen" stroke="springgreen" cx="2134" cy="-45.21" rx="97.66" ry="21.43"/>
<text text-anchor="middle" x="2134" y="-40.21" font-family="Times-Roman" font-size="20.00">SGI&#45;B&#45;2.0(1)</text>
</g>
<!-- SGI Free Software License B v2.0(2) -->
<g id="node2" class="node">
<title>SGI Free Software License B v2.0(2)</title>
<ellipse fill="white" stroke="white" cx="1841" cy="-45.21" rx="170.87" ry="18"/>
<text text-anchor="middle" x="1841" y="-41.51" font-family="Times-Roman" font-size="14.00">SGI Free Software License B v2.0(2)</text>
</g>
<!-- SGI&#45;B&#45;2.0(2) -->
<g id="node3" class="node">
<title>SGI&#45;B&#45;2.0(2)</title>
<ellipse fill="springgreen" stroke="springgreen" cx="1554" cy="-45.21" rx="97.66" ry="21.43"/>
<text text-anchor="middle" x="1554" y="-40.21" font-family="Times-Roman" font-size="20.00">SGI&#45;B&#45;2.0(2)</text>
</g>
<!-- SGI Free Software License B v2.0(3) -->
<g id="node4" class="node">
<title>SGI Free Software License B v2.0(3)</title>
<ellipse fill="white" stroke="white" cx="1261" cy="-45.21" rx="170.87" ry="18"/>
<text text-anchor="middle" x="1261" y="-41.51" font-family="Times-Roman" font-size="14.00">SGI Free Software License B v2.0(3)</text>
</g>
<!-- SGI&#45;B&#45;2.0(3) -->
<g id="node5" class="node">
<title>SGI&#45;B&#45;2.0(3)</title>
<ellipse fill="springgreen" stroke="springgreen" cx="974" cy="-45.21" rx="97.66" ry="21.43"/>
<text text-anchor="middle" x="974" y="-40.21" font-family="Times-Roman" font-size="20.00">SGI&#45;B&#45;2.0(3)</text>
</g>
<!-- SGI Free Software License B 2.0(4) -->
<g id="node6" class="node">
<title>SGI Free Software License B 2.0(4)</title>
<ellipse fill="white" stroke="white" cx="686" cy="-45.21" rx="165.97" ry="18"/>
<text text-anchor="middle" x="686" y="-41.51" font-family="Times-Roman" font-size="14.00">SGI Free Software License B 2.0(4)</text>
</g>
<!-- SGI&#45;B&#45;2.0(4) -->
<g id="node7" class="node">
<title>SGI&#45;B&#45;2.0(4)</title>
<ellipse fill="springgreen" stroke="springgreen" cx="405" cy="-45.21" rx="97.66" ry="21.43"/>
<text text-anchor="middle" x="405" y="-40.21" font-family="Times-Roman" font-size="20.00">SGI&#45;B&#45;2.0(4)</text>
</g>
<!-- scancode://sgi&#45;freeb&#45;2.0(4) -->
<g id="node8" class="node">
<title>scancode://sgi&#45;freeb&#45;2.0(4)</title>
<ellipse fill="white" stroke="white" cx="157" cy="-45.21" rx="132.68" ry="18"/>
<text text-anchor="middle" x="157" y="-41.51" font-family="Times-Roman" font-size="14.00">scancode://sgi&#45;freeb&#45;2.0(4)</text>
</g>
</g>
</svg>
