<?xml version="1.0" encoding="UTF-8" standalone="no"?>
<!DOCTYPE svg PUBLIC "-//W3C//DTD SVG 1.1//EN"
 "http://www.w3.org/Graphics/SVG/1.1/DTD/svg11.dtd">
<!-- Generated by graphviz version 5.0.1 (0)
 -->
<!-- Title: SISSL&#45;1.2 Pages: 1 -->
<svg width="451pt" height="602pt"
 viewBox="0.00 0.00 451.16 602.00" xmlns="http://www.w3.org/2000/svg" xmlns:xlink="http://www.w3.org/1999/xlink">
<g id="graph0" class="graph" transform="scale(1 1) rotate(0) translate(4 598)">
<title>SISSL&#45;1.2</title>
<polygon fill="white" stroke="none" points="-4,4 -4,-598 447.16,-598 447.16,4 -4,4"/>
<g id="clust1" class="cluster">
<title>cluster_0</title>
<polygon fill="none" stroke="black" points="8,-8 8,-586 435.16,-586 435.16,-8 8,-8"/>
</g>
<g id="clust2" class="cluster">
<title>cluster_1</title>
<polygon fill="lightgray" stroke="lightgray" points="165.49,-526 165.49,-578 277.68,-578 277.68,-526 165.49,-526"/>
</g>
<g id="clust3" class="cluster">
<title>cluster_2</title>
<polygon fill="lightgray" stroke="lightgray" points="165.49,-412 165.49,-518 277.68,-518 277.68,-412 165.49,-412"/>
</g>
<g id="clust4" class="cluster">
<title>cluster_3</title>
<polygon fill="lightgray" stroke="lightgray" points="16,-298 16,-404 427.16,-404 427.16,-298 16,-298"/>
</g>
<g id="clust5" class="cluster">
<title>cluster_4</title>
<polygon fill="lightgray" stroke="lightgray" points="45.9,-184 45.9,-290 397.27,-290 397.27,-184 45.9,-184"/>
</g>
<g id="clust6" class="cluster">
<title>cluster_5</title>
<polygon fill="lightgray" stroke="lightgray" points="50.45,-16 50.45,-176 392.72,-176 392.72,-16 50.45,-16"/>
</g>
<!-- SISSL&#45;1.2(1) -->
<g id="node1" class="node">
<title>SISSL&#45;1.2(1)</title>
<ellipse fill="springgreen" stroke="springgreen" cx="221.58" cy="-552" rx="48.19" ry="18"/>
<text text-anchor="middle" x="221.58" y="-548.3" font-family="Times,serif" font-size="14.00">SISSL&#45;1.2</text>
</g>
<!-- SISSL 1.2(2) -->
<g id="node2" class="node">
<title>SISSL 1.2(2)</title>
<ellipse fill="white" stroke="white" cx="221.58" cy="-492" rx="46.59" ry="18"/>
<text text-anchor="middle" x="221.58" y="-488.3" font-family="Times,serif" font-size="14.00">SISSL 1.2</text>
</g>
<!-- SISSL&#45;1.2(2) -->
<g id="node3" class="node">
<title>SISSL&#45;1.2(2)</title>
<ellipse fill="springgreen" stroke="springgreen" cx="221.58" cy="-438" rx="48.19" ry="18"/>
<text text-anchor="middle" x="221.58" y="-434.3" font-family="Times,serif" font-size="14.00">SISSL&#45;1.2</text>
</g>
<!-- SISSL&#45;1.2(3) -->
<g id="node4" class="node">
<title>SISSL&#45;1.2(3)</title>
<ellipse fill="springgreen" stroke="springgreen" cx="221.58" cy="-378" rx="48.19" ry="18"/>
<text text-anchor="middle" x="221.58" y="-374.3" font-family="Times,serif" font-size="14.00">SISSL&#45;1.2</text>
</g>
<!-- Sun Industry Standards Source License &#45; Version 1.2(3) -->
<g id="node5" class="node">
<title>Sun Industry Standards Source License &#45; Version 1.2(3)</title>
<ellipse fill="white" stroke="white" cx="221.58" cy="-324" rx="197.66" ry="18"/>
<text text-anchor="middle" x="221.58" y="-320.3" font-family="Times,serif" font-size="14.00">Sun Industry Standards Source License &#45; Version 1.2</text>
</g>
<!-- SISSL&#45;1.2(4) -->
<g id="node6" class="node">
<title>SISSL&#45;1.2(4)</title>
<ellipse fill="springgreen" stroke="springgreen" cx="221.58" cy="-264" rx="48.19" ry="18"/>
<text text-anchor="middle" x="221.58" y="-260.3" font-family="Times,serif" font-size="14.00">SISSL&#45;1.2</text>
</g>
<!-- Sun Industry Standards Source License v1.2(4) -->
<g id="node7" class="node">
<title>Sun Industry Standards Source License v1.2(4)</title>
<ellipse fill="white" stroke="white" cx="221.58" cy="-210" rx="167.87" ry="18"/>
<text text-anchor="middle" x="221.58" y="-206.3" font-family="Times,serif" font-size="14.00">Sun Industry Standards Source License v1.2</text>
</g>
<!-- SISSL&#45;1.2(5) -->
<g id="node8" class="node">
<title>SISSL&#45;1.2(5)</title>
<ellipse fill="springgreen" stroke="springgreen" cx="221.58" cy="-150" rx="48.19" ry="18"/>
<text text-anchor="middle" x="221.58" y="-146.3" font-family="Times,serif" font-size="14.00">SISSL&#45;1.2</text>
</g>
<!-- Sun Industry Standards Source License 1.2(5) -->
<g id="node9" class="node">
<title>Sun Industry Standards Source License 1.2(5)</title>
<ellipse fill="white" stroke="white" cx="221.58" cy="-96" rx="163.27" ry="18"/>
<text text-anchor="middle" x="221.58" y="-92.3" font-family="Times,serif" font-size="14.00">Sun Industry Standards Source License 1.2</text>
</g>
<!-- scancode://sun&#45;sissl&#45;1.2(5) -->
<g id="node10" class="node">
<title>scancode://sun&#45;sissl&#45;1.2(5)</title>
<ellipse fill="white" stroke="white" cx="221.58" cy="-42" rx="94.78" ry="18"/>
<text text-anchor="middle" x="221.58" y="-38.3" font-family="Times,serif" font-size="14.00">scancode://sun&#45;sissl&#45;1.2</text>
</g>
</g>
</svg>
