<?xml version="1.0" encoding="UTF-8" standalone="no"?>
<!DOCTYPE svg PUBLIC "-//W3C//DTD SVG 1.1//EN"
 "http://www.w3.org/Graphics/SVG/1.1/DTD/svg11.dtd">
<!-- Generated by graphviz version 2.43.0 (0)
 -->
<!-- Title: SISSL&#45;1.2 Pages: 1 -->
<svg width="553pt" height="488pt"
 viewBox="0.00 0.00 552.56 488.00" xmlns="http://www.w3.org/2000/svg" xmlns:xlink="http://www.w3.org/1999/xlink">
<g id="graph0" class="graph" transform="scale(1 1) rotate(0) translate(4 484)">
<title>SISSL&#45;1.2</title>
<polygon fill="white" stroke="transparent" points="-4,4 -4,-484 548.56,-484 548.56,4 -4,4"/>
<g id="clust1" class="cluster">
<title>cluster_0</title>
<polygon fill="none" stroke="black" points="8,-8 8,-472 536.56,-472 536.56,-8 8,-8"/>
</g>
<g id="clust2" class="cluster">
<title>cluster_1</title>
<polygon fill="lightgray" stroke="lightgray" points="210.33,-412 210.33,-464 334.22,-464 334.22,-412 210.33,-412"/>
</g>
<g id="clust3" class="cluster">
<title>cluster_2</title>
<polygon fill="lightgray" stroke="lightgray" points="53.05,-298 53.05,-404 491.51,-404 491.51,-298 53.05,-298"/>
</g>
<g id="clust4" class="cluster">
<title>cluster_3</title>
<polygon fill="lightgray" stroke="lightgray" points="58.25,-130 58.25,-290 486.31,-290 486.31,-130 58.25,-130"/>
</g>
<g id="clust5" class="cluster">
<title>cluster_4</title>
<polygon fill="lightgray" stroke="lightgray" points="16,-16 16,-122 528.56,-122 528.56,-16 16,-16"/>
</g>
<!-- SISSL&#45;1.2(1) -->
<g id="node1" class="node">
<title>SISSL&#45;1.2(1)</title>
<ellipse fill="springgreen" stroke="springgreen" cx="272.28" cy="-438" rx="53.89" ry="18"/>
<text text-anchor="middle" x="272.28" y="-434.3" font-family="Times-Roman" font-size="14.00">SISSL&#45;1.2</text>
</g>
<!-- SISSL&#45;1.2(2) -->
<g id="node2" class="node">
<title>SISSL&#45;1.2(2)</title>
<ellipse fill="springgreen" stroke="springgreen" cx="272.28" cy="-378" rx="53.89" ry="18"/>
<text text-anchor="middle" x="272.28" y="-374.3" font-family="Times-Roman" font-size="14.00">SISSL&#45;1.2</text>
</g>
<!-- Sun Industry Standards Source License v1.2(2) -->
<g id="node3" class="node">
<title>Sun Industry Standards Source License v1.2(2)</title>
<ellipse fill="white" stroke="white" cx="272.28" cy="-324" rx="211.46" ry="18"/>
<text text-anchor="middle" x="272.28" y="-320.3" font-family="Times-Roman" font-size="14.00">Sun Industry Standards Source License v1.2</text>
</g>
<!-- SISSL&#45;1.2(3) -->
<g id="node4" class="node">
<title>SISSL&#45;1.2(3)</title>
<ellipse fill="springgreen" stroke="springgreen" cx="272.28" cy="-264" rx="53.89" ry="18"/>
<text text-anchor="middle" x="272.28" y="-260.3" font-family="Times-Roman" font-size="14.00">SISSL&#45;1.2</text>
</g>
<!-- Sun Industry Standards Source License 1.2(3) -->
<g id="node5" class="node">
<title>Sun Industry Standards Source License 1.2(3)</title>
<ellipse fill="white" stroke="white" cx="272.28" cy="-210" rx="206.06" ry="18"/>
<text text-anchor="middle" x="272.28" y="-206.3" font-family="Times-Roman" font-size="14.00">Sun Industry Standards Source License 1.2</text>
</g>
<!-- scancode://sun&#45;sissl&#45;1.2(3) -->
<g id="node6" class="node">
<title>scancode://sun&#45;sissl&#45;1.2(3)</title>
<ellipse fill="white" stroke="white" cx="272.28" cy="-156" rx="119.68" ry="18"/>
<text text-anchor="middle" x="272.28" y="-152.3" font-family="Times-Roman" font-size="14.00">scancode://sun&#45;sissl&#45;1.2</text>
</g>
<!-- SISSL&#45;1.2(4) -->
<g id="node7" class="node">
<title>SISSL&#45;1.2(4)</title>
<ellipse fill="springgreen" stroke="springgreen" cx="272.28" cy="-96" rx="53.89" ry="18"/>
<text text-anchor="middle" x="272.28" y="-92.3" font-family="Times-Roman" font-size="14.00">SISSL&#45;1.2</text>
</g>
<!-- Sun Industry Standards Source License &#45; Version 1.2(4) -->
<g id="node8" class="node">
<title>Sun Industry Standards Source License &#45; Version 1.2(4)</title>
<ellipse fill="white" stroke="white" cx="272.28" cy="-42" rx="248.06" ry="18"/>
<text text-anchor="middle" x="272.28" y="-38.3" font-family="Times-Roman" font-size="14.00">Sun Industry Standards Source License &#45; Version 1.2</text>
</g>
</g>
</svg>
