<?xml version="1.0" encoding="UTF-8" standalone="no"?>
<!DOCTYPE svg PUBLIC "-//W3C//DTD SVG 1.1//EN"
 "http://www.w3.org/Graphics/SVG/1.1/DTD/svg11.dtd">
<!-- Generated by graphviz version 2.43.0 (0)
 -->
<!-- Title: Sleepycat Pages: 1 -->
<svg width="1988pt" height="98pt"
 viewBox="0.00 0.00 1988.00 98.43" xmlns="http://www.w3.org/2000/svg" xmlns:xlink="http://www.w3.org/1999/xlink">
<g id="graph0" class="graph" transform="scale(1 1) rotate(0) translate(4 94.43)">
<title>Sleepycat</title>
<polygon fill="white" stroke="transparent" points="-4,4 -4,-94.43 1984,-94.43 1984,4 -4,4"/>
<g id="clust1" class="cluster">
<title>cluster_0</title>
<polygon fill="none" stroke="black" points="8,-8 8,-82.43 1972,-82.43 1972,-8 8,-8"/>
</g>
<g id="clust2" class="cluster">
<title>cluster_1</title>
<polygon fill="lightgray" stroke="lightgray" points="1786,-16 1786,-74.43 1964,-74.43 1964,-16 1786,-16"/>
</g>
<g id="clust3" class="cluster">
<title>cluster_2</title>
<polygon fill="lightgray" stroke="lightgray" points="1580,-19.21 1580,-71.21 1778,-71.21 1778,-19.21 1580,-19.21"/>
</g>
<g id="clust4" class="cluster">
<title>cluster_3</title>
<polygon fill="lightgray" stroke="lightgray" points="1346,-19.21 1346,-71.21 1572,-71.21 1572,-19.21 1346,-19.21"/>
</g>
<g id="clust5" class="cluster">
<title>cluster_4</title>
<polygon fill="lightgray" stroke="lightgray" points="662,-19.21 662,-71.21 1338,-71.21 1338,-19.21 662,-19.21"/>
</g>
<g id="clust8" class="cluster">
<title>cluster_7</title>
<polygon fill="lightgray" stroke="lightgray" points="16,-19.21 16,-71.21 654,-71.21 654,-19.21 16,-19.21"/>
</g>
<!-- Sleepycat -->
<g id="node1" class="node">
<title>Sleepycat</title>
<ellipse fill="darkgreen" stroke="darkgreen" cx="1875" cy="-45.21" rx="80.72" ry="21.43"/>
<text text-anchor="middle" x="1875" y="-40.21" font-family="Times-Roman" font-size="20.00">Sleepycat</text>
</g>
<!-- Sleepycat License -->
<g id="node2" class="node">
<title>Sleepycat License</title>
<ellipse fill="white" stroke="white" cx="1679" cy="-45.21" rx="90.98" ry="18"/>
<text text-anchor="middle" x="1679" y="-41.51" font-family="Times-Roman" font-size="14.00">Sleepycat License</text>
</g>
<!-- scancode://sleepycat -->
<g id="node3" class="node">
<title>scancode://sleepycat</title>
<ellipse fill="white" stroke="white" cx="1459" cy="-45.21" rx="104.78" ry="18"/>
<text text-anchor="middle" x="1459" y="-41.51" font-family="Times-Roman" font-size="14.00">scancode://sleepycat</text>
</g>
<!-- License :: OSI Approved :: Sleepycat License -->
<g id="node4" class="node">
<title>License :: OSI Approved :: Sleepycat License</title>
<ellipse fill="white" stroke="white" cx="1119" cy="-45.21" rx="210.66" ry="18"/>
<text text-anchor="middle" x="1119" y="-41.51" font-family="Times-Roman" font-size="14.00">License :: OSI Approved :: Sleepycat License</text>
</g>
<!-- The Sleepycat License -->
<g id="node5" class="node">
<title>The Sleepycat License</title>
<ellipse fill="white" stroke="white" cx="780" cy="-45.21" rx="110.48" ry="18"/>
<text text-anchor="middle" x="780" y="-41.51" font-family="Times-Roman" font-size="14.00">The Sleepycat License</text>
</g>
<!-- Berkeley Database License -->
<g id="node6" class="node">
<title>Berkeley Database License</title>
<ellipse fill="white" stroke="white" cx="514" cy="-45.21" rx="131.88" ry="18"/>
<text text-anchor="middle" x="514" y="-41.51" font-family="Times-Roman" font-size="14.00">Berkeley Database License</text>
</g>
<!-- Sleepycat Software Product License -->
<g id="node7" class="node">
<title>Sleepycat Software Product License</title>
<ellipse fill="white" stroke="white" cx="194" cy="-45.21" rx="170.07" ry="18"/>
<text text-anchor="middle" x="194" y="-41.51" font-family="Times-Roman" font-size="14.00">Sleepycat Software Product License</text>
</g>
</g>
</svg>
