<?xml version="1.0" encoding="UTF-8" standalone="no"?>
<!DOCTYPE svg PUBLIC "-//W3C//DTD SVG 1.1//EN"
 "http://www.w3.org/Graphics/SVG/1.1/DTD/svg11.dtd">
<!-- Generated by graphviz version 2.43.0 (0)
 -->
<!-- Title: SMPPL Pages: 1 -->
<svg width="1233pt" height="98pt"
 viewBox="0.00 0.00 1233.00 98.43" xmlns="http://www.w3.org/2000/svg" xmlns:xlink="http://www.w3.org/1999/xlink">
<g id="graph0" class="graph" transform="scale(1 1) rotate(0) translate(4 94.43)">
<title>SMPPL</title>
<polygon fill="white" stroke="transparent" points="-4,4 -4,-94.43 1229,-94.43 1229,4 -4,4"/>
<g id="clust1" class="cluster">
<title>cluster_0</title>
<polygon fill="none" stroke="black" points="8,-8 8,-82.43 1217,-82.43 1217,-8 8,-8"/>
</g>
<g id="clust2" class="cluster">
<title>cluster_1</title>
<polygon fill="lightgray" stroke="lightgray" points="1037,-16 1037,-74.43 1209,-74.43 1209,-16 1037,-16"/>
</g>
<g id="clust3" class="cluster">
<title>cluster_2</title>
<polygon fill="lightgray" stroke="lightgray" points="419,-16 419,-74.43 1029,-74.43 1029,-16 419,-16"/>
</g>
<g id="clust4" class="cluster">
<title>cluster_3</title>
<polygon fill="lightgray" stroke="lightgray" points="16,-16 16,-74.43 411,-74.43 411,-16 16,-16"/>
</g>
<!-- SMPPL(1) -->
<g id="node1" class="node">
<title>SMPPL(1)</title>
<ellipse fill="springgreen" stroke="springgreen" cx="1123" cy="-45.21" rx="77.56" ry="21.43"/>
<text text-anchor="middle" x="1123" y="-40.21" font-family="Times-Roman" font-size="20.00">SMPPL(1)</text>
</g>
<!-- SMPPL(2) -->
<g id="node2" class="node">
<title>SMPPL(2)</title>
<ellipse fill="springgreen" stroke="springgreen" cx="943" cy="-45.21" rx="77.56" ry="21.43"/>
<text text-anchor="middle" x="943" y="-40.21" font-family="Times-Roman" font-size="20.00">SMPPL(2)</text>
</g>
<!-- Secure Messaging Protocol Public License(2) -->
<g id="node3" class="node">
<title>Secure Messaging Protocol Public License(2)</title>
<ellipse fill="white" stroke="white" cx="637" cy="-45.21" rx="209.86" ry="18"/>
<text text-anchor="middle" x="637" y="-41.51" font-family="Times-Roman" font-size="14.00">Secure Messaging Protocol Public License(2)</text>
</g>
<!-- SMPPL(3) -->
<g id="node4" class="node">
<title>SMPPL(3)</title>
<ellipse fill="springgreen" stroke="springgreen" cx="325" cy="-45.21" rx="77.56" ry="21.43"/>
<text text-anchor="middle" x="325" y="-40.21" font-family="Times-Roman" font-size="20.00">SMPPL(3)</text>
</g>
<!-- scancode://smppl(3) -->
<g id="node5" class="node">
<title>scancode://smppl(3)</title>
<ellipse fill="white" stroke="white" cx="127" cy="-45.21" rx="102.88" ry="18"/>
<text text-anchor="middle" x="127" y="-41.51" font-family="Times-Roman" font-size="14.00">scancode://smppl(3)</text>
</g>
</g>
</svg>
