<?xml version="1.0" encoding="UTF-8" standalone="no"?>
<!DOCTYPE svg PUBLIC "-//W3C//DTD SVG 1.1//EN"
 "http://www.w3.org/Graphics/SVG/1.1/DTD/svg11.dtd">
<!-- Generated by graphviz version 2.49.3 (0)
 -->
<!-- Title: SPL&#45;1.0 Pages: 1 -->
<svg width="426pt" height="1068pt"
 viewBox="0.00 0.00 425.57 1068.00" xmlns="http://www.w3.org/2000/svg" xmlns:xlink="http://www.w3.org/1999/xlink">
<g id="graph0" class="graph" transform="scale(1 1) rotate(0) translate(4 1064)">
<title>SPL&#45;1.0</title>
<polygon fill="white" stroke="transparent" points="-4,4 -4,-1064 421.57,-1064 421.57,4 -4,4"/>
<g id="clust1" class="cluster">
<title>cluster_0</title>
<polygon fill="none" stroke="black" points="8,-8 8,-1052 409.57,-1052 409.57,-8 8,-8"/>
</g>
<g id="clust2" class="cluster">
<title>cluster_1</title>
<polygon fill="none" stroke="black" points="16,-76 16,-1044 401.57,-1044 401.57,-76 16,-76"/>
</g>
<g id="clust3" class="cluster">
<title>cluster_2</title>
<polygon fill="lightgray" stroke="lightgray" points="160.49,-984 160.49,-1036 257.08,-1036 257.08,-984 160.49,-984"/>
</g>
<g id="clust4" class="cluster">
<title>cluster_3</title>
<polygon fill="lightgray" stroke="lightgray" points="103.94,-870 103.94,-976 313.63,-976 313.63,-870 103.94,-870"/>
</g>
<g id="clust5" class="cluster">
<title>cluster_4</title>
<polygon fill="lightgray" stroke="lightgray" points="107.84,-648 107.84,-862 309.73,-862 309.73,-648 107.84,-648"/>
</g>
<g id="clust6" class="cluster">
<title>cluster_5</title>
<polygon fill="lightgray" stroke="lightgray" points="107.84,-534 107.84,-640 309.73,-640 309.73,-534 107.84,-534"/>
</g>
<g id="clust7" class="cluster">
<title>cluster_6</title>
<polygon fill="lightgray" stroke="lightgray" points="24,-366 24,-526 393.57,-526 393.57,-366 24,-366"/>
</g>
<g id="clust8" class="cluster">
<title>cluster_7</title>
<polygon fill="lightgray" stroke="lightgray" points="103.94,-252 103.94,-358 313.63,-358 313.63,-252 103.94,-252"/>
</g>
<g id="clust9" class="cluster">
<title>cluster_8</title>
<polygon fill="lightgray" stroke="lightgray" points="126.04,-84 126.04,-244 291.53,-244 291.53,-84 126.04,-84"/>
</g>
<g id="clust10" class="cluster">
<title>cluster_9</title>
<polygon fill="lightgray" stroke="lightgray" points="57.8,-16 57.8,-68 359.77,-68 359.77,-16 57.8,-16"/>
</g>
<!-- SPL&#45;1.0(2) -->
<g id="node1" class="node">
<title>SPL&#45;1.0(2)</title>
<ellipse fill="springgreen" stroke="springgreen" cx="208.78" cy="-1010" rx="40.09" ry="18"/>
<text text-anchor="middle" x="208.78" y="-1006.3" font-family="Times,serif" font-size="14.00">SPL&#45;1.0</text>
</g>
<!-- SPL&#45;1.0(3) -->
<g id="node2" class="node">
<title>SPL&#45;1.0(3)</title>
<ellipse fill="springgreen" stroke="springgreen" cx="208.78" cy="-950" rx="40.09" ry="18"/>
<text text-anchor="middle" x="208.78" y="-946.3" font-family="Times,serif" font-size="14.00">SPL&#45;1.0</text>
</g>
<!-- Sun Public License v1.0(3) -->
<g id="node3" class="node">
<title>Sun Public License v1.0(3)</title>
<ellipse fill="white" stroke="white" cx="208.78" cy="-896" rx="96.68" ry="18"/>
<text text-anchor="middle" x="208.78" y="-892.3" font-family="Times,serif" font-size="14.00">Sun Public License v1.0</text>
</g>
<!-- SPL&#45;1.0(4) -->
<g id="node4" class="node">
<title>SPL&#45;1.0(4)</title>
<ellipse fill="springgreen" stroke="springgreen" cx="208.78" cy="-836" rx="40.09" ry="18"/>
<text text-anchor="middle" x="208.78" y="-832.3" font-family="Times,serif" font-size="14.00">SPL&#45;1.0</text>
</g>
<!-- Sun Public License 1.0(4) -->
<g id="node5" class="node">
<title>Sun Public License 1.0(4)</title>
<ellipse fill="white" stroke="white" cx="208.78" cy="-782" rx="92.88" ry="18"/>
<text text-anchor="middle" x="208.78" y="-778.3" font-family="Times,serif" font-size="14.00">Sun Public License 1.0</text>
</g>
<!-- osi:SPL&#45;1.0(4) -->
<g id="node6" class="node">
<title>osi:SPL&#45;1.0(4)</title>
<ellipse fill="white" stroke="white" cx="208.78" cy="-728" rx="52.79" ry="18"/>
<text text-anchor="middle" x="208.78" y="-724.3" font-family="Times,serif" font-size="14.00">osi:SPL&#45;1.0</text>
</g>
<!-- scancode:spl&#45;1.0(4) -->
<g id="node7" class="node">
<title>scancode:spl&#45;1.0(4)</title>
<ellipse fill="white" stroke="white" cx="208.78" cy="-674" rx="69.59" ry="18"/>
<text text-anchor="middle" x="208.78" y="-670.3" font-family="Times,serif" font-size="14.00">scancode:spl&#45;1.0</text>
</g>
<!-- SPL&#45;1.0(5) -->
<g id="node8" class="node">
<title>SPL&#45;1.0(5)</title>
<ellipse fill="springgreen" stroke="springgreen" cx="208.78" cy="-614" rx="40.09" ry="18"/>
<text text-anchor="middle" x="208.78" y="-610.3" font-family="Times,serif" font-size="14.00">SPL&#45;1.0</text>
</g>
<!-- Sun Public License 1.0(5) -->
<g id="node9" class="node">
<title>Sun Public License 1.0(5)</title>
<ellipse fill="white" stroke="white" cx="208.78" cy="-560" rx="92.88" ry="18"/>
<text text-anchor="middle" x="208.78" y="-556.3" font-family="Times,serif" font-size="14.00">Sun Public License 1.0</text>
</g>
<!-- License :: OSI Approved :: Sun Public License(6) -->
<g id="node10" class="node">
<title>License :: OSI Approved :: Sun Public License(6)</title>
<ellipse fill="white" stroke="white" cx="208.78" cy="-500" rx="176.57" ry="18"/>
<text text-anchor="middle" x="208.78" y="-496.3" font-family="Times,serif" font-size="14.00">License :: OSI Approved :: Sun Public License</text>
</g>
<!-- SPL&#45;1.0(6) -->
<g id="node11" class="node">
<title>SPL&#45;1.0(6)</title>
<ellipse fill="springgreen" stroke="springgreen" cx="208.78" cy="-446" rx="40.09" ry="18"/>
<text text-anchor="middle" x="208.78" y="-442.3" font-family="Times,serif" font-size="14.00">SPL&#45;1.0</text>
</g>
<!-- Sun Public License, Version 1.0(6) -->
<g id="node12" class="node">
<title>Sun Public License, Version 1.0(6)</title>
<ellipse fill="white" stroke="white" cx="208.78" cy="-392" rx="124.28" ry="18"/>
<text text-anchor="middle" x="208.78" y="-388.3" font-family="Times,serif" font-size="14.00">Sun Public License, Version 1.0</text>
</g>
<!-- SPL&#45;1.0(7) -->
<g id="node13" class="node">
<title>SPL&#45;1.0(7)</title>
<ellipse fill="springgreen" stroke="springgreen" cx="208.78" cy="-332" rx="40.09" ry="18"/>
<text text-anchor="middle" x="208.78" y="-328.3" font-family="Times,serif" font-size="14.00">SPL&#45;1.0</text>
</g>
<!-- Sun Public License v1.0(7) -->
<g id="node14" class="node">
<title>Sun Public License v1.0(7)</title>
<ellipse fill="white" stroke="white" cx="208.78" cy="-278" rx="96.68" ry="18"/>
<text text-anchor="middle" x="208.78" y="-274.3" font-family="Times,serif" font-size="14.00">Sun Public License v1.0</text>
</g>
<!-- SPL 1.0(8) -->
<g id="node15" class="node">
<title>SPL 1.0(8)</title>
<ellipse fill="white" stroke="white" cx="208.78" cy="-218" rx="38.99" ry="18"/>
<text text-anchor="middle" x="208.78" y="-214.3" font-family="Times,serif" font-size="14.00">SPL 1.0</text>
</g>
<!-- SPL&#45;1.0(8) -->
<g id="node16" class="node">
<title>SPL&#45;1.0(8)</title>
<ellipse fill="springgreen" stroke="springgreen" cx="208.78" cy="-164" rx="40.09" ry="18"/>
<text text-anchor="middle" x="208.78" y="-160.3" font-family="Times,serif" font-size="14.00">SPL&#45;1.0</text>
</g>
<!-- scancode://spl&#45;1.0(8) -->
<g id="node17" class="node">
<title>scancode://spl&#45;1.0(8)</title>
<ellipse fill="white" stroke="white" cx="208.78" cy="-110" rx="74.99" ry="18"/>
<text text-anchor="middle" x="208.78" y="-106.3" font-family="Times,serif" font-size="14.00">scancode://spl&#45;1.0</text>
</g>
<!-- SUN PUBLIC LICENSE Version 1.0(9) -->
<g id="node18" class="node">
<title>SUN PUBLIC LICENSE Version 1.0(9)</title>
<ellipse fill="white" stroke="white" cx="208.78" cy="-42" rx="142.97" ry="18"/>
<text text-anchor="middle" x="208.78" y="-38.3" font-family="Times,serif" font-size="14.00">SUN PUBLIC LICENSE Version 1.0</text>
</g>
</g>
</svg>
