<?xml version="1.0" encoding="UTF-8" standalone="no"?>
<!DOCTYPE svg PUBLIC "-//W3C//DTD SVG 1.1//EN"
 "http://www.w3.org/Graphics/SVG/1.1/DTD/svg11.dtd">
<!-- Generated by graphviz version 2.43.0 (0)
 -->
<!-- Title: SPL&#45;1.0 Pages: 1 -->
<svg width="500pt" height="846pt"
 viewBox="0.00 0.00 499.66 846.00" xmlns="http://www.w3.org/2000/svg" xmlns:xlink="http://www.w3.org/1999/xlink">
<g id="graph0" class="graph" transform="scale(1 1) rotate(0) translate(4 842)">
<title>SPL&#45;1.0</title>
<polygon fill="white" stroke="transparent" points="-4,4 -4,-842 495.66,-842 495.66,4 -4,4"/>
<g id="clust1" class="cluster">
<title>cluster_0</title>
<polygon fill="none" stroke="black" points="8,-8 8,-830 483.66,-830 483.66,-8 8,-8"/>
</g>
<g id="clust2" class="cluster">
<title>cluster_1</title>
<polygon fill="none" stroke="black" points="16,-76 16,-822 475.66,-822 475.66,-76 16,-76"/>
</g>
<g id="clust3" class="cluster">
<title>cluster_2</title>
<polygon fill="lightgray" stroke="lightgray" points="192.99,-762 192.99,-814 298.68,-814 298.68,-762 192.99,-762"/>
</g>
<g id="clust4" class="cluster">
<title>cluster_3</title>
<polygon fill="lightgray" stroke="lightgray" points="120.19,-648 120.19,-754 371.47,-754 371.47,-648 120.19,-648"/>
</g>
<g id="clust5" class="cluster">
<title>cluster_4</title>
<polygon fill="lightgray" stroke="lightgray" points="120.19,-534 120.19,-640 371.47,-640 371.47,-534 120.19,-534"/>
</g>
<g id="clust6" class="cluster">
<title>cluster_5</title>
<polygon fill="lightgray" stroke="lightgray" points="144.89,-366 144.89,-526 346.77,-526 346.77,-366 144.89,-366"/>
</g>
<g id="clust7" class="cluster">
<title>cluster_6</title>
<polygon fill="lightgray" stroke="lightgray" points="24,-198 24,-358 467.66,-358 467.66,-198 24,-198"/>
</g>
<g id="clust8" class="cluster">
<title>cluster_7</title>
<polygon fill="lightgray" stroke="lightgray" points="125.39,-84 125.39,-190 366.27,-190 366.27,-84 125.39,-84"/>
</g>
<g id="clust9" class="cluster">
<title>cluster_8</title>
<polygon fill="lightgray" stroke="lightgray" points="76.65,-16 76.65,-68 415.02,-68 415.02,-16 76.65,-16"/>
</g>
<!-- SPL&#45;1.0(2) -->
<g id="node1" class="node">
<title>SPL&#45;1.0(2)</title>
<ellipse fill="springgreen" stroke="springgreen" cx="245.83" cy="-788" rx="44.69" ry="18"/>
<text text-anchor="middle" x="245.83" y="-784.3" font-family="Times-Roman" font-size="14.00">SPL&#45;1.0</text>
</g>
<!-- SPL&#45;1.0(3) -->
<g id="node2" class="node">
<title>SPL&#45;1.0(3)</title>
<ellipse fill="springgreen" stroke="springgreen" cx="245.83" cy="-728" rx="44.69" ry="18"/>
<text text-anchor="middle" x="245.83" y="-724.3" font-family="Times-Roman" font-size="14.00">SPL&#45;1.0</text>
</g>
<!-- Sun Public License v1.0(3) -->
<g id="node3" class="node">
<title>Sun Public License v1.0(3)</title>
<ellipse fill="white" stroke="white" cx="245.83" cy="-674" rx="117.78" ry="18"/>
<text text-anchor="middle" x="245.83" y="-670.3" font-family="Times-Roman" font-size="14.00">Sun Public License v1.0</text>
</g>
<!-- SPL&#45;1.0(4) -->
<g id="node4" class="node">
<title>SPL&#45;1.0(4)</title>
<ellipse fill="springgreen" stroke="springgreen" cx="245.83" cy="-614" rx="44.69" ry="18"/>
<text text-anchor="middle" x="245.83" y="-610.3" font-family="Times-Roman" font-size="14.00">SPL&#45;1.0</text>
</g>
<!-- Sun Public License v1.0(4) -->
<g id="node5" class="node">
<title>Sun Public License v1.0(4)</title>
<ellipse fill="white" stroke="white" cx="245.83" cy="-560" rx="117.78" ry="18"/>
<text text-anchor="middle" x="245.83" y="-556.3" font-family="Times-Roman" font-size="14.00">Sun Public License v1.0</text>
</g>
<!-- SPL 1.0(5) -->
<g id="node6" class="node">
<title>SPL 1.0(5)</title>
<ellipse fill="white" stroke="white" cx="245.83" cy="-500" rx="44.39" ry="18"/>
<text text-anchor="middle" x="245.83" y="-496.3" font-family="Times-Roman" font-size="14.00">SPL 1.0</text>
</g>
<!-- SPL&#45;1.0(5) -->
<g id="node7" class="node">
<title>SPL&#45;1.0(5)</title>
<ellipse fill="springgreen" stroke="springgreen" cx="245.83" cy="-446" rx="44.69" ry="18"/>
<text text-anchor="middle" x="245.83" y="-442.3" font-family="Times-Roman" font-size="14.00">SPL&#45;1.0</text>
</g>
<!-- scancode://spl&#45;1.0(5) -->
<g id="node8" class="node">
<title>scancode://spl&#45;1.0(5)</title>
<ellipse fill="white" stroke="white" cx="245.83" cy="-392" rx="92.88" ry="18"/>
<text text-anchor="middle" x="245.83" y="-388.3" font-family="Times-Roman" font-size="14.00">scancode://spl&#45;1.0</text>
</g>
<!-- License :: OSI Approved :: Sun Public License(6) -->
<g id="node9" class="node">
<title>License :: OSI Approved :: Sun Public License(6)</title>
<ellipse fill="white" stroke="white" cx="245.83" cy="-332" rx="213.66" ry="18"/>
<text text-anchor="middle" x="245.83" y="-328.3" font-family="Times-Roman" font-size="14.00">License :: OSI Approved :: Sun Public License</text>
</g>
<!-- SPL&#45;1.0(6) -->
<g id="node10" class="node">
<title>SPL&#45;1.0(6)</title>
<ellipse fill="springgreen" stroke="springgreen" cx="245.83" cy="-278" rx="44.69" ry="18"/>
<text text-anchor="middle" x="245.83" y="-274.3" font-family="Times-Roman" font-size="14.00">SPL&#45;1.0</text>
</g>
<!-- Sun Public License, Version 1.0(6) -->
<g id="node11" class="node">
<title>Sun Public License, Version 1.0(6)</title>
<ellipse fill="white" stroke="white" cx="245.83" cy="-224" rx="151.37" ry="18"/>
<text text-anchor="middle" x="245.83" y="-220.3" font-family="Times-Roman" font-size="14.00">Sun Public License, Version 1.0</text>
</g>
<!-- SPL&#45;1.0(7) -->
<g id="node12" class="node">
<title>SPL&#45;1.0(7)</title>
<ellipse fill="springgreen" stroke="springgreen" cx="245.83" cy="-164" rx="44.69" ry="18"/>
<text text-anchor="middle" x="245.83" y="-160.3" font-family="Times-Roman" font-size="14.00">SPL&#45;1.0</text>
</g>
<!-- Sun Public License 1.0(7) -->
<g id="node13" class="node">
<title>Sun Public License 1.0(7)</title>
<ellipse fill="white" stroke="white" cx="245.83" cy="-110" rx="112.38" ry="18"/>
<text text-anchor="middle" x="245.83" y="-106.3" font-family="Times-Roman" font-size="14.00">Sun Public License 1.0</text>
</g>
<!-- SUN PUBLIC LICENSE Version 1.0(8) -->
<g id="node14" class="node">
<title>SUN PUBLIC LICENSE Version 1.0(8)</title>
<ellipse fill="white" stroke="white" cx="245.83" cy="-42" rx="161.37" ry="18"/>
<text text-anchor="middle" x="245.83" y="-38.3" font-family="Times-Roman" font-size="14.00">SUN PUBLIC LICENSE Version 1.0</text>
</g>
</g>
</svg>
