<?xml version="1.0" encoding="UTF-8" standalone="no"?>
<!DOCTYPE svg PUBLIC "-//W3C//DTD SVG 1.1//EN"
 "http://www.w3.org/Graphics/SVG/1.1/DTD/svg11.dtd">
<!-- Generated by graphviz version 2.49.3 (0)
 -->
<!-- Title: SSPL&#45;1.0 Pages: 1 -->
<svg width="339pt" height="602pt"
 viewBox="0.00 0.00 339.37 602.00" xmlns="http://www.w3.org/2000/svg" xmlns:xlink="http://www.w3.org/1999/xlink">
<g id="graph0" class="graph" transform="scale(1 1) rotate(0) translate(4 598)">
<title>SSPL&#45;1.0</title>
<polygon fill="white" stroke="transparent" points="-4,4 -4,-598 335.37,-598 335.37,4 -4,4"/>
<g id="clust1" class="cluster">
<title>cluster_0</title>
<polygon fill="none" stroke="black" points="8,-8 8,-586 323.37,-586 323.37,-8 8,-8"/>
</g>
<g id="clust2" class="cluster">
<title>cluster_1</title>
<polygon fill="lightgray" stroke="lightgray" points="112.84,-526 112.84,-578 218.53,-578 218.53,-526 112.84,-526"/>
</g>
<g id="clust3" class="cluster">
<title>cluster_2</title>
<polygon fill="lightgray" stroke="lightgray" points="16,-412 16,-518 315.37,-518 315.37,-412 16,-412"/>
</g>
<g id="clust4" class="cluster">
<title>cluster_3</title>
<polygon fill="lightgray" stroke="lightgray" points="37.45,-298 37.45,-404 293.93,-404 293.93,-298 37.45,-298"/>
</g>
<g id="clust5" class="cluster">
<title>cluster_4</title>
<polygon fill="lightgray" stroke="lightgray" points="35.5,-184 35.5,-290 295.88,-290 295.88,-184 35.5,-184"/>
</g>
<g id="clust6" class="cluster">
<title>cluster_5</title>
<polygon fill="lightgray" stroke="lightgray" points="43.3,-16 43.3,-176 288.08,-176 288.08,-16 43.3,-16"/>
</g>
<!-- SSPL&#45;1.0(1) -->
<g id="node1" class="node">
<title>SSPL&#45;1.0(1)</title>
<ellipse fill="springgreen" stroke="springgreen" cx="165.69" cy="-552" rx="44.69" ry="18"/>
<text text-anchor="middle" x="165.69" y="-548.3" font-family="Times,serif" font-size="14.00">SSPL&#45;1.0</text>
</g>
<!-- SSPL&#45;1.0(2) -->
<g id="node2" class="node">
<title>SSPL&#45;1.0(2)</title>
<ellipse fill="springgreen" stroke="springgreen" cx="165.69" cy="-492" rx="44.69" ry="18"/>
<text text-anchor="middle" x="165.69" y="-488.3" font-family="Times,serif" font-size="14.00">SSPL&#45;1.0</text>
</g>
<!-- Server Side Public License Version 1(2) -->
<g id="node3" class="node">
<title>Server Side Public License Version 1(2)</title>
<ellipse fill="white" stroke="white" cx="165.69" cy="-438" rx="141.88" ry="18"/>
<text text-anchor="middle" x="165.69" y="-434.3" font-family="Times,serif" font-size="14.00">Server Side Public License Version 1</text>
</g>
<!-- SSPL&#45;1.0(3) -->
<g id="node4" class="node">
<title>SSPL&#45;1.0(3)</title>
<ellipse fill="springgreen" stroke="springgreen" cx="165.69" cy="-378" rx="44.69" ry="18"/>
<text text-anchor="middle" x="165.69" y="-374.3" font-family="Times,serif" font-size="14.00">SSPL&#45;1.0</text>
</g>
<!-- Server Side Public License 1.0(3) -->
<g id="node5" class="node">
<title>Server Side Public License 1.0(3)</title>
<ellipse fill="white" stroke="white" cx="165.69" cy="-324" rx="120.48" ry="18"/>
<text text-anchor="middle" x="165.69" y="-320.3" font-family="Times,serif" font-size="14.00">Server Side Public License 1.0</text>
</g>
<!-- SSPL&#45;1.0(4) -->
<g id="node6" class="node">
<title>SSPL&#45;1.0(4)</title>
<ellipse fill="springgreen" stroke="springgreen" cx="165.69" cy="-264" rx="44.69" ry="18"/>
<text text-anchor="middle" x="165.69" y="-260.3" font-family="Times,serif" font-size="14.00">SSPL&#45;1.0</text>
</g>
<!-- Server Side Public License, v 1(4) -->
<g id="node7" class="node">
<title>Server Side Public License, v 1(4)</title>
<ellipse fill="white" stroke="white" cx="165.69" cy="-210" rx="122.38" ry="18"/>
<text text-anchor="middle" x="165.69" y="-206.3" font-family="Times,serif" font-size="14.00">Server Side Public License, v 1</text>
</g>
<!-- SSPL 1.0(5) -->
<g id="node8" class="node">
<title>SSPL 1.0(5)</title>
<ellipse fill="white" stroke="white" cx="165.69" cy="-150" rx="44.39" ry="18"/>
<text text-anchor="middle" x="165.69" y="-146.3" font-family="Times,serif" font-size="14.00">SSPL 1.0</text>
</g>
<!-- SSPL&#45;1.0(5) -->
<g id="node9" class="node">
<title>SSPL&#45;1.0(5)</title>
<ellipse fill="springgreen" stroke="springgreen" cx="165.69" cy="-96" rx="44.69" ry="18"/>
<text text-anchor="middle" x="165.69" y="-92.3" font-family="Times,serif" font-size="14.00">SSPL&#45;1.0</text>
</g>
<!-- scancode://mongodb&#45;sspl&#45;1.0(5) -->
<g id="node10" class="node">
<title>scancode://mongodb&#45;sspl&#45;1.0(5)</title>
<ellipse fill="white" stroke="white" cx="165.69" cy="-42" rx="114.28" ry="18"/>
<text text-anchor="middle" x="165.69" y="-38.3" font-family="Times,serif" font-size="14.00">scancode://mongodb&#45;sspl&#45;1.0</text>
</g>
</g>
</svg>
