<?xml version="1.0" encoding="UTF-8" standalone="no"?>
<!DOCTYPE svg PUBLIC "-//W3C//DTD SVG 1.1//EN"
 "http://www.w3.org/Graphics/SVG/1.1/DTD/svg11.dtd">
<!-- Generated by graphviz version 2.43.0 (0)
 -->
<!-- Title: SugarCRM&#45;1.1.3 Pages: 1 -->
<svg width="1168pt" height="92pt"
 viewBox="0.00 0.00 1168.00 92.00" xmlns="http://www.w3.org/2000/svg" xmlns:xlink="http://www.w3.org/1999/xlink">
<g id="graph0" class="graph" transform="scale(1 1) rotate(0) translate(4 88)">
<title>SugarCRM&#45;1.1.3</title>
<polygon fill="white" stroke="transparent" points="-4,4 -4,-88 1164,-88 1164,4 -4,4"/>
<g id="clust1" class="cluster">
<title>cluster_0</title>
<polygon fill="none" stroke="black" points="8,-8 8,-76 1152,-76 1152,-8 8,-8"/>
</g>
<g id="clust2" class="cluster">
<title>cluster_1</title>
<polygon fill="lightgray" stroke="lightgray" points="958,-16 958,-68 1144,-68 1144,-16 958,-16"/>
</g>
<g id="clust3" class="cluster">
<title>cluster_2</title>
<polygon fill="lightgray" stroke="lightgray" points="622,-16 622,-68 950,-68 950,-16 622,-16"/>
</g>
<g id="clust4" class="cluster">
<title>cluster_3</title>
<polygon fill="lightgray" stroke="lightgray" points="16,-16 16,-68 614,-68 614,-16 16,-16"/>
</g>
<!-- SugarCRM&#45;1.1.3 -->
<g id="node1" class="node">
<title>SugarCRM&#45;1.1.3</title>
<ellipse fill="white" stroke="white" cx="1051" cy="-42" rx="85.29" ry="18"/>
<text text-anchor="middle" x="1051" y="-38.3" font-family="Times-Roman" font-size="14.00">SugarCRM&#45;1.1.3</text>
</g>
<!-- SugarCRM Public License v1.1.3 -->
<g id="node2" class="node">
<title>SugarCRM Public License v1.1.3</title>
<ellipse fill="white" stroke="white" cx="786" cy="-42" rx="155.97" ry="18"/>
<text text-anchor="middle" x="786" y="-38.3" font-family="Times-Roman" font-size="14.00">SugarCRM Public License v1.1.3</text>
</g>
<!-- SugarCRM Public License 1.1.3 -->
<g id="node3" class="node">
<title>SugarCRM Public License 1.1.3</title>
<ellipse fill="white" stroke="white" cx="455" cy="-42" rx="150.57" ry="18"/>
<text text-anchor="middle" x="455" y="-38.3" font-family="Times-Roman" font-size="14.00">SugarCRM Public License 1.1.3</text>
</g>
<!-- scancode://sugarcrm&#45;1.1.3 -->
<g id="node4" class="node">
<title>scancode://sugarcrm&#45;1.1.3</title>
<ellipse fill="white" stroke="white" cx="155" cy="-42" rx="131.08" ry="18"/>
<text text-anchor="middle" x="155" y="-38.3" font-family="Times-Roman" font-size="14.00">scancode://sugarcrm&#45;1.1.3</text>
</g>
</g>
</svg>
