<?xml version="1.0" encoding="UTF-8" standalone="no"?>
<!DOCTYPE svg PUBLIC "-//W3C//DTD SVG 1.1//EN"
 "http://www.w3.org/Graphics/SVG/1.1/DTD/svg11.dtd">
<!-- Generated by graphviz version 2.43.0 (0)
 -->
<!-- Title: SWL Pages: 1 -->
<svg width="1359pt" height="98pt"
 viewBox="0.00 0.00 1359.00 98.43" xmlns="http://www.w3.org/2000/svg" xmlns:xlink="http://www.w3.org/1999/xlink">
<g id="graph0" class="graph" transform="scale(1 1) rotate(0) translate(4 94.43)">
<title>SWL</title>
<polygon fill="white" stroke="transparent" points="-4,4 -4,-94.43 1355,-94.43 1355,4 -4,4"/>
<g id="clust1" class="cluster">
<title>cluster_0</title>
<polygon fill="none" stroke="black" points="8,-8 8,-82.43 1343,-82.43 1343,-8 8,-8"/>
</g>
<g id="clust2" class="cluster">
<title>cluster_1</title>
<polygon fill="lightgray" stroke="lightgray" points="1235,-16 1235,-74.43 1335,-74.43 1335,-16 1235,-16"/>
</g>
<g id="clust3" class="cluster">
<title>cluster_2</title>
<polygon fill="lightgray" stroke="lightgray" points="659,-19.21 659,-71.21 1227,-71.21 1227,-19.21 659,-19.21"/>
</g>
<g id="clust5" class="cluster">
<title>cluster_4</title>
<polygon fill="lightgray" stroke="lightgray" points="16,-19.21 16,-71.21 651,-71.21 651,-19.21 16,-19.21"/>
</g>
<!-- SWL -->
<g id="node1" class="node">
<title>SWL</title>
<ellipse fill="lightseagreen" stroke="lightseagreen" cx="1285" cy="-45.21" rx="42.35" ry="21.43"/>
<text text-anchor="middle" x="1285" y="-40.21" font-family="Times-Roman" font-size="20.00">SWL</text>
</g>
<!-- Scheme Widget Library (SWL) Software License Agreement -->
<g id="node2" class="node">
<title>Scheme Widget Library (SWL) Software License Agreement</title>
<ellipse fill="white" stroke="white" cx="943" cy="-45.21" rx="276.45" ry="18"/>
<text text-anchor="middle" x="943" y="-41.51" font-family="Times-Roman" font-size="14.00">Scheme Widget Library (SWL) Software License Agreement</text>
</g>
<!-- Scheme Widget Library (SWL) Software License -->
<g id="node3" class="node">
<title>Scheme Widget Library (SWL) Software License</title>
<ellipse fill="white" stroke="white" cx="419" cy="-45.21" rx="223.66" ry="18"/>
<text text-anchor="middle" x="419" y="-41.51" font-family="Times-Roman" font-size="14.00">Scheme Widget Library (SWL) Software License</text>
</g>
<!-- scancode://swl -->
<g id="node4" class="node">
<title>scancode://swl</title>
<ellipse fill="white" stroke="white" cx="101" cy="-45.21" rx="76.89" ry="18"/>
<text text-anchor="middle" x="101" y="-41.51" font-family="Times-Roman" font-size="14.00">scancode://swl</text>
</g>
</g>
</svg>
