<?xml version="1.0" encoding="UTF-8" standalone="no"?>
<!DOCTYPE svg PUBLIC "-//W3C//DTD SVG 1.1//EN"
 "http://www.w3.org/Graphics/SVG/1.1/DTD/svg11.dtd">
<!-- Generated by graphviz version 2.43.0 (0)
 -->
<!-- Title: TAPR&#45;OHL&#45;1.0 Pages: 1 -->
<svg width="880pt" height="98pt"
 viewBox="0.00 0.00 880.00 98.43" xmlns="http://www.w3.org/2000/svg" xmlns:xlink="http://www.w3.org/1999/xlink">
<g id="graph0" class="graph" transform="scale(1 1) rotate(0) translate(4 94.43)">
<title>TAPR&#45;OHL&#45;1.0</title>
<polygon fill="white" stroke="transparent" points="-4,4 -4,-94.43 876,-94.43 876,4 -4,4"/>
<g id="clust1" class="cluster">
<title>cluster_0</title>
<polygon fill="none" stroke="black" points="8,-8 8,-82.43 864,-82.43 864,-8 8,-8"/>
</g>
<g id="clust2" class="cluster">
<title>cluster_1</title>
<polygon fill="lightgray" stroke="lightgray" points="624,-16 624,-74.43 856,-74.43 856,-16 624,-16"/>
</g>
<g id="clust3" class="cluster">
<title>cluster_2</title>
<polygon fill="lightgray" stroke="lightgray" points="268,-19.21 268,-71.21 616,-71.21 616,-19.21 268,-19.21"/>
</g>
<g id="clust4" class="cluster">
<title>cluster_3</title>
<polygon fill="lightgray" stroke="lightgray" points="16,-19.21 16,-71.21 260,-71.21 260,-19.21 16,-19.21"/>
</g>
<!-- TAPR&#45;OHL&#45;1.0 -->
<g id="node1" class="node">
<title>TAPR&#45;OHL&#45;1.0</title>
<ellipse fill="springgreen" stroke="springgreen" cx="740" cy="-45.21" rx="108.38" ry="21.43"/>
<text text-anchor="middle" x="740" y="-40.21" font-family="Times-Roman" font-size="20.00">TAPR&#45;OHL&#45;1.0</text>
</g>
<!-- TAPR Open Hardware License v1.0 -->
<g id="node2" class="node">
<title>TAPR Open Hardware License v1.0</title>
<ellipse fill="white" stroke="white" cx="442" cy="-45.21" rx="166.27" ry="18"/>
<text text-anchor="middle" x="442" y="-41.51" font-family="Times-Roman" font-size="14.00">TAPR Open Hardware License v1.0</text>
</g>
<!-- scancode://tapr&#45;ohl&#45;1.0 -->
<g id="node3" class="node">
<title>scancode://tapr&#45;ohl&#45;1.0</title>
<ellipse fill="white" stroke="white" cx="138" cy="-45.21" rx="114.28" ry="18"/>
<text text-anchor="middle" x="138" y="-41.51" font-family="Times-Roman" font-size="14.00">scancode://tapr&#45;ohl&#45;1.0</text>
</g>
</g>
</svg>
