<?xml version="1.0" encoding="UTF-8" standalone="no"?>
<!DOCTYPE svg PUBLIC "-//W3C//DTD SVG 1.1//EN"
 "http://www.w3.org/Graphics/SVG/1.1/DTD/svg11.dtd">
<!-- Generated by graphviz version 2.43.0 (0)
 -->
<!-- Title: TCP&#45;wrappers Pages: 1 -->
<svg width="714pt" height="92pt"
 viewBox="0.00 0.00 714.00 92.00" xmlns="http://www.w3.org/2000/svg" xmlns:xlink="http://www.w3.org/1999/xlink">
<g id="graph0" class="graph" transform="scale(1 1) rotate(0) translate(4 88)">
<title>TCP&#45;wrappers</title>
<polygon fill="white" stroke="transparent" points="-4,4 -4,-88 710,-88 710,4 -4,4"/>
<g id="clust1" class="cluster">
<title>cluster_0</title>
<polygon fill="none" stroke="black" points="8,-8 8,-76 698,-76 698,-8 8,-8"/>
</g>
<g id="clust2" class="cluster">
<title>cluster_1</title>
<polygon fill="lightgray" stroke="lightgray" points="528,-16 528,-68 690,-68 690,-16 528,-16"/>
</g>
<g id="clust3" class="cluster">
<title>cluster_2</title>
<polygon fill="lightgray" stroke="lightgray" points="284,-16 284,-68 520,-68 520,-16 284,-16"/>
</g>
<g id="clust5" class="cluster">
<title>cluster_4</title>
<polygon fill="lightgray" stroke="lightgray" points="16,-16 16,-68 276,-68 276,-16 16,-16"/>
</g>
<!-- TCP&#45;wrappers -->
<g id="node1" class="node">
<title>TCP&#45;wrappers</title>
<ellipse fill="white" stroke="white" cx="609" cy="-42" rx="73.39" ry="18"/>
<text text-anchor="middle" x="609" y="-38.3" font-family="Times-Roman" font-size="14.00">TCP&#45;wrappers</text>
</g>
<!-- TCP Wrappers License -->
<g id="node2" class="node">
<title>TCP Wrappers License</title>
<ellipse fill="white" stroke="white" cx="402" cy="-42" rx="110.48" ry="18"/>
<text text-anchor="middle" x="402" y="-38.3" font-family="Times-Roman" font-size="14.00">TCP Wrappers License</text>
</g>
<!-- scancode://tcp&#45;wrappers -->
<g id="node3" class="node">
<title>scancode://tcp&#45;wrappers</title>
<ellipse fill="white" stroke="white" cx="146" cy="-42" rx="122.38" ry="18"/>
<text text-anchor="middle" x="146" y="-38.3" font-family="Times-Roman" font-size="14.00">scancode://tcp&#45;wrappers</text>
</g>
</g>
</svg>
