<?xml version="1.0" encoding="UTF-8" standalone="no"?>
<!DOCTYPE svg PUBLIC "-//W3C//DTD SVG 1.1//EN"
 "http://www.w3.org/Graphics/SVG/1.1/DTD/svg11.dtd">
<!-- Generated by graphviz version 2.43.0 (0)
 -->
<!-- Title: TCP&#45;wrappers Pages: 1 -->
<svg width="300pt" height="488pt"
 viewBox="0.00 0.00 300.38 488.00" xmlns="http://www.w3.org/2000/svg" xmlns:xlink="http://www.w3.org/1999/xlink">
<g id="graph0" class="graph" transform="scale(1 1) rotate(0) translate(4 484)">
<title>TCP&#45;wrappers</title>
<polygon fill="white" stroke="transparent" points="-4,4 -4,-484 296.38,-484 296.38,4 -4,4"/>
<g id="clust1" class="cluster">
<title>cluster_0</title>
<polygon fill="none" stroke="black" points="8,-8 8,-472 284.38,-472 284.38,-8 8,-8"/>
</g>
<g id="clust2" class="cluster">
<title>cluster_1</title>
<polygon fill="lightgray" stroke="lightgray" points="64.75,-412 64.75,-464 227.63,-464 227.63,-412 64.75,-412"/>
</g>
<g id="clust3" class="cluster">
<title>cluster_2</title>
<polygon fill="lightgray" stroke="lightgray" points="27.7,-298 27.7,-404 264.68,-404 264.68,-298 27.7,-298"/>
</g>
<g id="clust4" class="cluster">
<title>cluster_3</title>
<polygon fill="lightgray" stroke="lightgray" points="27.7,-184 27.7,-290 264.68,-290 264.68,-184 27.7,-184"/>
</g>
<g id="clust5" class="cluster">
<title>cluster_4</title>
<polygon fill="lightgray" stroke="lightgray" points="16,-16 16,-176 276.38,-176 276.38,-16 16,-16"/>
</g>
<!-- TCP&#45;wrappers(1) -->
<g id="node1" class="node">
<title>TCP&#45;wrappers(1)</title>
<ellipse fill="springgreen" stroke="springgreen" cx="146.19" cy="-438" rx="73.39" ry="18"/>
<text text-anchor="middle" x="146.19" y="-434.3" font-family="Times-Roman" font-size="14.00">TCP&#45;wrappers</text>
</g>
<!-- TCP Wrappers License(2) -->
<g id="node2" class="node">
<title>TCP Wrappers License(2)</title>
<ellipse fill="white" stroke="white" cx="146.19" cy="-378" rx="110.48" ry="18"/>
<text text-anchor="middle" x="146.19" y="-374.3" font-family="Times-Roman" font-size="14.00">TCP Wrappers License</text>
</g>
<!-- TCP&#45;wrappers(2) -->
<g id="node3" class="node">
<title>TCP&#45;wrappers(2)</title>
<ellipse fill="springgreen" stroke="springgreen" cx="146.19" cy="-324" rx="73.39" ry="18"/>
<text text-anchor="middle" x="146.19" y="-320.3" font-family="Times-Roman" font-size="14.00">TCP&#45;wrappers</text>
</g>
<!-- TCP Wrappers License(3) -->
<g id="node4" class="node">
<title>TCP Wrappers License(3)</title>
<ellipse fill="white" stroke="white" cx="146.19" cy="-264" rx="110.48" ry="18"/>
<text text-anchor="middle" x="146.19" y="-260.3" font-family="Times-Roman" font-size="14.00">TCP Wrappers License</text>
</g>
<!-- TCP&#45;wrappers(3) -->
<g id="node5" class="node">
<title>TCP&#45;wrappers(3)</title>
<ellipse fill="springgreen" stroke="springgreen" cx="146.19" cy="-210" rx="73.39" ry="18"/>
<text text-anchor="middle" x="146.19" y="-206.3" font-family="Times-Roman" font-size="14.00">TCP&#45;wrappers</text>
</g>
<!-- TCP Wrappers License(4) -->
<g id="node6" class="node">
<title>TCP Wrappers License(4)</title>
<ellipse fill="white" stroke="white" cx="146.19" cy="-150" rx="110.48" ry="18"/>
<text text-anchor="middle" x="146.19" y="-146.3" font-family="Times-Roman" font-size="14.00">TCP Wrappers License</text>
</g>
<!-- TCP&#45;wrappers(4) -->
<g id="node7" class="node">
<title>TCP&#45;wrappers(4)</title>
<ellipse fill="springgreen" stroke="springgreen" cx="146.19" cy="-96" rx="73.39" ry="18"/>
<text text-anchor="middle" x="146.19" y="-92.3" font-family="Times-Roman" font-size="14.00">TCP&#45;wrappers</text>
</g>
<!-- scancode://tcp&#45;wrappers(4) -->
<g id="node8" class="node">
<title>scancode://tcp&#45;wrappers(4)</title>
<ellipse fill="white" stroke="white" cx="146.19" cy="-42" rx="122.38" ry="18"/>
<text text-anchor="middle" x="146.19" y="-38.3" font-family="Times-Roman" font-size="14.00">scancode://tcp&#45;wrappers</text>
</g>
</g>
</svg>
