<?xml version="1.0" encoding="UTF-8" standalone="no"?>
<!DOCTYPE svg PUBLIC "-//W3C//DTD SVG 1.1//EN"
 "http://www.w3.org/Graphics/SVG/1.1/DTD/svg11.dtd">
<!-- Generated by graphviz version 2.43.0 (0)
 -->
<!-- Title: TMate Pages: 1 -->
<svg width="628pt" height="92pt"
 viewBox="0.00 0.00 628.00 92.00" xmlns="http://www.w3.org/2000/svg" xmlns:xlink="http://www.w3.org/1999/xlink">
<g id="graph0" class="graph" transform="scale(1 1) rotate(0) translate(4 88)">
<title>TMate</title>
<polygon fill="white" stroke="transparent" points="-4,4 -4,-88 624,-88 624,4 -4,4"/>
<g id="clust1" class="cluster">
<title>cluster_0</title>
<polygon fill="none" stroke="black" points="8,-8 8,-76 612,-76 612,-8 8,-8"/>
</g>
<g id="clust2" class="cluster">
<title>cluster_1</title>
<polygon fill="lightgray" stroke="lightgray" points="512,-16 512,-68 604,-68 604,-16 512,-16"/>
</g>
<g id="clust3" class="cluster">
<title>cluster_2</title>
<polygon fill="lightgray" stroke="lightgray" points="216,-16 216,-68 504,-68 504,-16 216,-16"/>
</g>
<g id="clust4" class="cluster">
<title>cluster_3</title>
<polygon fill="lightgray" stroke="lightgray" points="16,-16 16,-68 208,-68 208,-16 16,-16"/>
</g>
<!-- TMate -->
<g id="node1" class="node">
<title>TMate</title>
<ellipse fill="white" stroke="white" cx="558" cy="-42" rx="38.19" ry="18"/>
<text text-anchor="middle" x="558" y="-38.3" font-family="Times-Roman" font-size="14.00">TMate</text>
</g>
<!-- TMate Open Source License -->
<g id="node2" class="node">
<title>TMate Open Source License</title>
<ellipse fill="white" stroke="white" cx="360" cy="-42" rx="135.68" ry="18"/>
<text text-anchor="middle" x="360" y="-38.3" font-family="Times-Roman" font-size="14.00">TMate Open Source License</text>
</g>
<!-- scancode://tmate -->
<g id="node3" class="node">
<title>scancode://tmate</title>
<ellipse fill="white" stroke="white" cx="112" cy="-42" rx="88.28" ry="18"/>
<text text-anchor="middle" x="112" y="-38.3" font-family="Times-Roman" font-size="14.00">scancode://tmate</text>
</g>
</g>
</svg>
