<?xml version="1.0" encoding="UTF-8" standalone="no"?>
<!DOCTYPE svg PUBLIC "-//W3C//DTD SVG 1.1//EN"
 "http://www.w3.org/Graphics/SVG/1.1/DTD/svg11.dtd">
<!-- Generated by graphviz version 2.43.0 (0)
 -->
<!-- Title: TORQUE&#45;1.1 Pages: 1 -->
<svg width="1283pt" height="115pt"
 viewBox="0.00 0.00 1283.00 115.00" xmlns="http://www.w3.org/2000/svg" xmlns:xlink="http://www.w3.org/1999/xlink">
<g id="graph0" class="graph" transform="scale(1 1) rotate(0) translate(4 111)">
<title>TORQUE&#45;1.1</title>
<polygon fill="white" stroke="transparent" points="-4,4 -4,-111 1279,-111 1279,4 -4,4"/>
<g id="clust1" class="cluster">
<title>cluster_0</title>
<polygon fill="none" stroke="black" points="8,-8 8,-99 1267,-99 1267,-8 8,-8"/>
</g>
<g id="clust2" class="cluster">
<title>cluster_1</title>
<polygon fill="lightgray" stroke="lightgray" points="1107,-16 1107,-91 1259,-91 1259,-16 1107,-16"/>
<text text-anchor="middle" x="1183" y="-75.8" font-family="Times-Roman" font-size="14.00">prev</text>
</g>
<g id="clust3" class="cluster">
<title>cluster_2</title>
<polygon fill="lightgray" stroke="lightgray" points="565,-16 565,-68 1099,-68 1099,-16 565,-16"/>
</g>
<g id="clust4" class="cluster">
<title>cluster_3</title>
<polygon fill="lightgray" stroke="lightgray" points="16,-16 16,-68 557,-68 557,-16 16,-16"/>
</g>
<!-- TORQUE&#45;1.1(1) -->
<g id="node1" class="node">
<title>TORQUE&#45;1.1(1)</title>
<ellipse fill="springgreen" stroke="springgreen" cx="1183" cy="-42" rx="67.69" ry="18"/>
<text text-anchor="middle" x="1183" y="-38.3" font-family="Times-Roman" font-size="14.00">TORQUE&#45;1.1</text>
</g>
<!-- TORQUE v2.5+ Software License v1.1(2) -->
<g id="node2" class="node">
<title>TORQUE v2.5+ Software License v1.1(2)</title>
<ellipse fill="white" stroke="white" cx="909" cy="-42" rx="181.97" ry="18"/>
<text text-anchor="middle" x="909" y="-38.3" font-family="Times-Roman" font-size="14.00">TORQUE v2.5+ Software License v1.1</text>
</g>
<!-- TORQUE&#45;1.1(2) -->
<g id="node3" class="node">
<title>TORQUE&#45;1.1(2)</title>
<ellipse fill="springgreen" stroke="springgreen" cx="641" cy="-42" rx="67.69" ry="18"/>
<text text-anchor="middle" x="641" y="-38.3" font-family="Times-Roman" font-size="14.00">TORQUE&#45;1.1</text>
</g>
<!-- TORQUE 1.1(3) -->
<g id="node4" class="node">
<title>TORQUE 1.1(3)</title>
<ellipse fill="white" stroke="white" cx="481" cy="-42" rx="67.69" ry="18"/>
<text text-anchor="middle" x="481" y="-38.3" font-family="Times-Roman" font-size="14.00">TORQUE 1.1</text>
</g>
<!-- TORQUE&#45;1.1(3) -->
<g id="node5" class="node">
<title>TORQUE&#45;1.1(3)</title>
<ellipse fill="springgreen" stroke="springgreen" cx="328" cy="-42" rx="67.69" ry="18"/>
<text text-anchor="middle" x="328" y="-38.3" font-family="Times-Roman" font-size="14.00">TORQUE&#45;1.1</text>
</g>
<!-- scancode://torque&#45;1.1(3) -->
<g id="node6" class="node">
<title>scancode://torque&#45;1.1(3)</title>
<ellipse fill="white" stroke="white" cx="133" cy="-42" rx="109.38" ry="18"/>
<text text-anchor="middle" x="133" y="-38.3" font-family="Times-Roman" font-size="14.00">scancode://torque&#45;1.1</text>
</g>
</g>
</svg>
