<?xml version="1.0" encoding="UTF-8" standalone="no"?>
<!DOCTYPE svg PUBLIC "-//W3C//DTD SVG 1.1//EN"
 "http://www.w3.org/Graphics/SVG/1.1/DTD/svg11.dtd">
<!-- Generated by graphviz version 2.43.0 (0)
 -->
<!-- Title: TOSL Pages: 1 -->
<svg width="923pt" height="92pt"
 viewBox="0.00 0.00 923.00 92.00" xmlns="http://www.w3.org/2000/svg" xmlns:xlink="http://www.w3.org/1999/xlink">
<g id="graph0" class="graph" transform="scale(1 1) rotate(0) translate(4 88)">
<title>TOSL</title>
<polygon fill="white" stroke="transparent" points="-4,4 -4,-88 919,-88 919,4 -4,4"/>
<g id="clust1" class="cluster">
<title>cluster_0</title>
<polygon fill="none" stroke="black" points="8,-8 8,-76 907,-76 907,-8 8,-8"/>
</g>
<g id="clust2" class="cluster">
<title>cluster_1</title>
<polygon fill="lightgray" stroke="lightgray" points="815,-16 815,-68 899,-68 899,-16 815,-16"/>
</g>
<g id="clust3" class="cluster">
<title>cluster_2</title>
<polygon fill="lightgray" stroke="lightgray" points="415,-16 415,-68 807,-68 807,-16 415,-16"/>
</g>
<g id="clust4" class="cluster">
<title>cluster_3</title>
<polygon fill="lightgray" stroke="lightgray" points="16,-16 16,-68 407,-68 407,-16 16,-16"/>
</g>
<!-- TOSL(1) -->
<g id="node1" class="node">
<title>TOSL(1)</title>
<ellipse fill="springgreen" stroke="springgreen" cx="857" cy="-42" rx="34.39" ry="18"/>
<text text-anchor="middle" x="857" y="-38.3" font-family="Times-Roman" font-size="14.00">TOSL</text>
</g>
<!-- TOSL(2) -->
<g id="node2" class="node">
<title>TOSL(2)</title>
<ellipse fill="springgreen" stroke="springgreen" cx="765" cy="-42" rx="34.39" ry="18"/>
<text text-anchor="middle" x="765" y="-38.3" font-family="Times-Roman" font-size="14.00">TOSL</text>
</g>
<!-- Trusster Open Source License(2) -->
<g id="node3" class="node">
<title>Trusster Open Source License(2)</title>
<ellipse fill="white" stroke="white" cx="568" cy="-42" rx="144.87" ry="18"/>
<text text-anchor="middle" x="568" y="-38.3" font-family="Times-Roman" font-size="14.00">Trusster Open Source License</text>
</g>
<!-- TOSL(3) -->
<g id="node4" class="node">
<title>TOSL(3)</title>
<ellipse fill="springgreen" stroke="springgreen" cx="365" cy="-42" rx="34.39" ry="18"/>
<text text-anchor="middle" x="365" y="-38.3" font-family="Times-Roman" font-size="14.00">TOSL</text>
</g>
<!-- TOSL 1.0a(3) -->
<g id="node5" class="node">
<title>TOSL 1.0a(3)</title>
<ellipse fill="white" stroke="white" cx="255" cy="-42" rx="57.39" ry="18"/>
<text text-anchor="middle" x="255" y="-38.3" font-family="Times-Roman" font-size="14.00">TOSL 1.0a</text>
</g>
<!-- scancode://tosl(3) -->
<g id="node6" class="node">
<title>scancode://tosl(3)</title>
<ellipse fill="white" stroke="white" cx="102" cy="-42" rx="77.99" ry="18"/>
<text text-anchor="middle" x="102" y="-38.3" font-family="Times-Roman" font-size="14.00">scancode://tosl</text>
</g>
</g>
</svg>
