<?xml version="1.0" encoding="UTF-8" standalone="no"?>
<!DOCTYPE svg PUBLIC "-//W3C//DTD SVG 1.1//EN"
 "http://www.w3.org/Graphics/SVG/1.1/DTD/svg11.dtd">
<!-- Generated by graphviz version 2.43.0 (0)
 -->
<!-- Title: TOSL Pages: 1 -->
<svg width="761pt" height="115pt"
 viewBox="0.00 0.00 761.00 115.00" xmlns="http://www.w3.org/2000/svg" xmlns:xlink="http://www.w3.org/1999/xlink">
<g id="graph0" class="graph" transform="scale(1 1) rotate(0) translate(4 111)">
<title>TOSL</title>
<polygon fill="white" stroke="transparent" points="-4,4 -4,-111 757,-111 757,4 -4,4"/>
<g id="clust1" class="cluster">
<title>cluster_0</title>
<polygon fill="none" stroke="black" points="8,-8 8,-99 745,-99 745,-8 8,-8"/>
</g>
<g id="clust2" class="cluster">
<title>cluster_1</title>
<polygon fill="lightgray" stroke="lightgray" points="642,-16 642,-91 737,-91 737,-16 642,-16"/>
<text text-anchor="middle" x="689.5" y="-75.8" font-family="Times-Roman" font-size="14.00">process #1</text>
</g>
<g id="clust3" class="cluster">
<title>cluster_2</title>
<polygon fill="lightgray" stroke="lightgray" points="328,-16 328,-91 634,-91 634,-16 328,-16"/>
<text text-anchor="middle" x="481" y="-75.8" font-family="Times-Roman" font-size="14.00">process #1</text>
</g>
<g id="clust4" class="cluster">
<title>cluster_3</title>
<polygon fill="lightgray" stroke="lightgray" points="16,-16 16,-91 320,-91 320,-16 16,-16"/>
<text text-anchor="middle" x="168" y="-75.8" font-family="Times-Roman" font-size="14.00">process #1</text>
</g>
<!-- TOSL -->
<g id="node1" class="node">
<title>TOSL</title>
<ellipse fill="white" stroke="white" cx="689" cy="-42" rx="34.39" ry="18"/>
<text text-anchor="middle" x="689" y="-38.3" font-family="Times-Roman" font-size="14.00">TOSL</text>
</g>
<!-- Trusster Open Source License -->
<g id="node2" class="node">
<title>Trusster Open Source License</title>
<ellipse fill="white" stroke="white" cx="481" cy="-42" rx="144.87" ry="18"/>
<text text-anchor="middle" x="481" y="-38.3" font-family="Times-Roman" font-size="14.00">Trusster Open Source License</text>
</g>
<!-- TOSL 1.0a -->
<g id="node3" class="node">
<title>TOSL 1.0a</title>
<ellipse fill="white" stroke="white" cx="255" cy="-42" rx="57.39" ry="18"/>
<text text-anchor="middle" x="255" y="-38.3" font-family="Times-Roman" font-size="14.00">TOSL 1.0a</text>
</g>
<!-- scancode://tosl -->
<g id="node4" class="node">
<title>scancode://tosl</title>
<ellipse fill="white" stroke="white" cx="102" cy="-42" rx="77.99" ry="18"/>
<text text-anchor="middle" x="102" y="-38.3" font-family="Times-Roman" font-size="14.00">scancode://tosl</text>
</g>
</g>
</svg>
