<?xml version="1.0" encoding="UTF-8" standalone="no"?>
<!DOCTYPE svg PUBLIC "-//W3C//DTD SVG 1.1//EN"
 "http://www.w3.org/Graphics/SVG/1.1/DTD/svg11.dtd">
<!-- Generated by graphviz version 2.43.0 (0)
 -->
<!-- Title: TU&#45;Berlin&#45;2.0 Pages: 1 -->
<svg width="458pt" height="488pt"
 viewBox="0.00 0.00 457.66 488.00" xmlns="http://www.w3.org/2000/svg" xmlns:xlink="http://www.w3.org/1999/xlink">
<g id="graph0" class="graph" transform="scale(1 1) rotate(0) translate(4 484)">
<title>TU&#45;Berlin&#45;2.0</title>
<polygon fill="white" stroke="transparent" points="-4,4 -4,-484 453.66,-484 453.66,4 -4,4"/>
<g id="clust1" class="cluster">
<title>cluster_0</title>
<polygon fill="none" stroke="black" points="8,-8 8,-472 441.66,-472 441.66,-8 8,-8"/>
</g>
<g id="clust2" class="cluster">
<title>cluster_1</title>
<polygon fill="lightgray" stroke="lightgray" points="146.64,-412 146.64,-464 303.03,-464 303.03,-412 146.64,-412"/>
</g>
<g id="clust3" class="cluster">
<title>cluster_2</title>
<polygon fill="lightgray" stroke="lightgray" points="16,-298 16,-404 433.66,-404 433.66,-298 16,-298"/>
</g>
<g id="clust4" class="cluster">
<title>cluster_3</title>
<polygon fill="lightgray" stroke="lightgray" points="16,-184 16,-290 433.66,-290 433.66,-184 16,-184"/>
</g>
<g id="clust5" class="cluster">
<title>cluster_4</title>
<polygon fill="lightgray" stroke="lightgray" points="98.54,-16 98.54,-176 351.12,-176 351.12,-16 98.54,-16"/>
</g>
<!-- TU&#45;Berlin&#45;2.0(1) -->
<g id="node1" class="node">
<title>TU&#45;Berlin&#45;2.0(1)</title>
<ellipse fill="springgreen" stroke="springgreen" cx="224.83" cy="-438" rx="70.39" ry="18"/>
<text text-anchor="middle" x="224.83" y="-434.3" font-family="Times-Roman" font-size="14.00">TU&#45;Berlin&#45;2.0</text>
</g>
<!-- TU&#45;Berlin&#45;2.0(2) -->
<g id="node2" class="node">
<title>TU&#45;Berlin&#45;2.0(2)</title>
<ellipse fill="springgreen" stroke="springgreen" cx="224.83" cy="-378" rx="70.39" ry="18"/>
<text text-anchor="middle" x="224.83" y="-374.3" font-family="Times-Roman" font-size="14.00">TU&#45;Berlin&#45;2.0</text>
</g>
<!-- Technische Universitaet Berlin License 2.0(2) -->
<g id="node3" class="node">
<title>Technische Universitaet Berlin License 2.0(2)</title>
<ellipse fill="white" stroke="white" cx="224.83" cy="-324" rx="200.66" ry="18"/>
<text text-anchor="middle" x="224.83" y="-320.3" font-family="Times-Roman" font-size="14.00">Technische Universitaet Berlin License 2.0</text>
</g>
<!-- TU&#45;Berlin&#45;2.0(3) -->
<g id="node4" class="node">
<title>TU&#45;Berlin&#45;2.0(3)</title>
<ellipse fill="springgreen" stroke="springgreen" cx="224.83" cy="-264" rx="70.39" ry="18"/>
<text text-anchor="middle" x="224.83" y="-260.3" font-family="Times-Roman" font-size="14.00">TU&#45;Berlin&#45;2.0</text>
</g>
<!-- Technische Universitaet Berlin License 2.0(3) -->
<g id="node5" class="node">
<title>Technische Universitaet Berlin License 2.0(3)</title>
<ellipse fill="white" stroke="white" cx="224.83" cy="-210" rx="200.66" ry="18"/>
<text text-anchor="middle" x="224.83" y="-206.3" font-family="Times-Roman" font-size="14.00">Technische Universitaet Berlin License 2.0</text>
</g>
<!-- TU Berlin License 2.0(4) -->
<g id="node6" class="node">
<title>TU Berlin License 2.0(4)</title>
<ellipse fill="white" stroke="white" cx="224.83" cy="-150" rx="106.68" ry="18"/>
<text text-anchor="middle" x="224.83" y="-146.3" font-family="Times-Roman" font-size="14.00">TU Berlin License 2.0</text>
</g>
<!-- TU&#45;Berlin&#45;2.0(4) -->
<g id="node7" class="node">
<title>TU&#45;Berlin&#45;2.0(4)</title>
<ellipse fill="springgreen" stroke="springgreen" cx="224.83" cy="-96" rx="70.39" ry="18"/>
<text text-anchor="middle" x="224.83" y="-92.3" font-family="Times-Roman" font-size="14.00">TU&#45;Berlin&#45;2.0</text>
</g>
<!-- scancode://tu&#45;berlin&#45;2.0(4) -->
<g id="node8" class="node">
<title>scancode://tu&#45;berlin&#45;2.0(4)</title>
<ellipse fill="white" stroke="white" cx="224.83" cy="-42" rx="118.08" ry="18"/>
<text text-anchor="middle" x="224.83" y="-38.3" font-family="Times-Roman" font-size="14.00">scancode://tu&#45;berlin&#45;2.0</text>
</g>
</g>
</svg>
