<?xml version="1.0" encoding="UTF-8" standalone="no"?>
<!DOCTYPE svg PUBLIC "-//W3C//DTD SVG 1.1//EN"
 "http://www.w3.org/Graphics/SVG/1.1/DTD/svg11.dtd">
<!-- Generated by graphviz version 2.43.0 (0)
 -->
<!-- Title: Unicode&#45;DFS&#45;2016 Pages: 1 -->
<svg width="688pt" height="602pt"
 viewBox="0.00 0.00 687.74 602.00" xmlns="http://www.w3.org/2000/svg" xmlns:xlink="http://www.w3.org/1999/xlink">
<g id="graph0" class="graph" transform="scale(1 1) rotate(0) translate(4 598)">
<title>Unicode&#45;DFS&#45;2016</title>
<polygon fill="white" stroke="transparent" points="-4,4 -4,-598 683.74,-598 683.74,4 -4,4"/>
<g id="clust1" class="cluster">
<title>cluster_0</title>
<polygon fill="none" stroke="black" points="8,-8 8,-586 671.74,-586 671.74,-8 8,-8"/>
</g>
<g id="clust2" class="cluster">
<title>cluster_1</title>
<polygon fill="lightgray" stroke="lightgray" points="236.98,-526 236.98,-578 442.76,-578 442.76,-526 236.98,-526"/>
</g>
<g id="clust3" class="cluster">
<title>cluster_2</title>
<polygon fill="lightgray" stroke="lightgray" points="16,-412 16,-518 663.74,-518 663.74,-412 16,-412"/>
</g>
<g id="clust4" class="cluster">
<title>cluster_3</title>
<polygon fill="lightgray" stroke="lightgray" points="47.85,-298 47.85,-404 631.9,-404 631.9,-298 47.85,-298"/>
</g>
<g id="clust5" class="cluster">
<title>cluster_4</title>
<polygon fill="lightgray" stroke="lightgray" points="47.85,-184 47.85,-290 631.9,-290 631.9,-184 47.85,-184"/>
</g>
<g id="clust6" class="cluster">
<title>cluster_5</title>
<polygon fill="lightgray" stroke="lightgray" points="190.18,-16 190.18,-176 489.56,-176 489.56,-16 190.18,-16"/>
</g>
<!-- Unicode&#45;DFS&#45;2016(1) -->
<g id="node1" class="node">
<title>Unicode&#45;DFS&#45;2016(1)</title>
<ellipse fill="springgreen" stroke="springgreen" cx="339.87" cy="-552" rx="94.78" ry="18"/>
<text text-anchor="middle" x="339.87" y="-548.3" font-family="Times-Roman" font-size="14.00">Unicode&#45;DFS&#45;2016</text>
</g>
<!-- UNICODE, INC. LICENSE AGREEMENT &#45; DATA FILES AND SOFTWARE(2) -->
<g id="node2" class="node">
<title>UNICODE, INC. LICENSE AGREEMENT &#45; DATA FILES AND SOFTWARE(2)</title>
<ellipse fill="white" stroke="white" cx="339.87" cy="-492" rx="315.74" ry="18"/>
<text text-anchor="middle" x="339.87" y="-488.3" font-family="Times-Roman" font-size="14.00">UNICODE, INC. LICENSE AGREEMENT &#45; DATA FILES AND SOFTWARE</text>
</g>
<!-- Unicode&#45;DFS&#45;2016(2) -->
<g id="node3" class="node">
<title>Unicode&#45;DFS&#45;2016(2)</title>
<ellipse fill="springgreen" stroke="springgreen" cx="339.87" cy="-438" rx="94.78" ry="18"/>
<text text-anchor="middle" x="339.87" y="-434.3" font-family="Times-Roman" font-size="14.00">Unicode&#45;DFS&#45;2016</text>
</g>
<!-- Unicode License Agreement &#45; Data Files and Software (2016)(3) -->
<g id="node4" class="node">
<title>Unicode License Agreement &#45; Data Files and Software (2016)(3)</title>
<ellipse fill="white" stroke="white" cx="339.87" cy="-378" rx="284.05" ry="18"/>
<text text-anchor="middle" x="339.87" y="-374.3" font-family="Times-Roman" font-size="14.00">Unicode License Agreement &#45; Data Files and Software (2016)</text>
</g>
<!-- Unicode&#45;DFS&#45;2016(3) -->
<g id="node5" class="node">
<title>Unicode&#45;DFS&#45;2016(3)</title>
<ellipse fill="springgreen" stroke="springgreen" cx="339.87" cy="-324" rx="94.78" ry="18"/>
<text text-anchor="middle" x="339.87" y="-320.3" font-family="Times-Roman" font-size="14.00">Unicode&#45;DFS&#45;2016</text>
</g>
<!-- Unicode License Agreement &#45; Data Files and Software (2016)(4) -->
<g id="node6" class="node">
<title>Unicode License Agreement &#45; Data Files and Software (2016)(4)</title>
<ellipse fill="white" stroke="white" cx="339.87" cy="-264" rx="284.05" ry="18"/>
<text text-anchor="middle" x="339.87" y="-260.3" font-family="Times-Roman" font-size="14.00">Unicode License Agreement &#45; Data Files and Software (2016)</text>
</g>
<!-- Unicode&#45;DFS&#45;2016(4) -->
<g id="node7" class="node">
<title>Unicode&#45;DFS&#45;2016(4)</title>
<ellipse fill="springgreen" stroke="springgreen" cx="339.87" cy="-210" rx="94.78" ry="18"/>
<text text-anchor="middle" x="339.87" y="-206.3" font-family="Times-Roman" font-size="14.00">Unicode&#45;DFS&#45;2016</text>
</g>
<!-- Unicode DFS 2016(5) -->
<g id="node8" class="node">
<title>Unicode DFS 2016(5)</title>
<ellipse fill="white" stroke="white" cx="339.87" cy="-150" rx="94.48" ry="18"/>
<text text-anchor="middle" x="339.87" y="-146.3" font-family="Times-Roman" font-size="14.00">Unicode DFS 2016</text>
</g>
<!-- Unicode&#45;DFS&#45;2016(5) -->
<g id="node9" class="node">
<title>Unicode&#45;DFS&#45;2016(5)</title>
<ellipse fill="springgreen" stroke="springgreen" cx="339.87" cy="-96" rx="94.78" ry="18"/>
<text text-anchor="middle" x="339.87" y="-92.3" font-family="Times-Roman" font-size="14.00">Unicode&#45;DFS&#45;2016</text>
</g>
<!-- scancode://unicode&#45;dfs&#45;2016(5) -->
<g id="node10" class="node">
<title>scancode://unicode&#45;dfs&#45;2016(5)</title>
<ellipse fill="white" stroke="white" cx="339.87" cy="-42" rx="141.88" ry="18"/>
<text text-anchor="middle" x="339.87" y="-38.3" font-family="Times-Roman" font-size="14.00">scancode://unicode&#45;dfs&#45;2016</text>
</g>
</g>
</svg>
