<?xml version="1.0" encoding="UTF-8" standalone="no"?>
<!DOCTYPE svg PUBLIC "-//W3C//DTD SVG 1.1//EN"
 "http://www.w3.org/Graphics/SVG/1.1/DTD/svg11.dtd">
<!-- Generated by graphviz version 2.43.0 (0)
 -->
<!-- Title: Unicode&#45;TOU Pages: 1 -->
<svg width="760pt" height="98pt"
 viewBox="0.00 0.00 760.00 98.43" xmlns="http://www.w3.org/2000/svg" xmlns:xlink="http://www.w3.org/1999/xlink">
<g id="graph0" class="graph" transform="scale(1 1) rotate(0) translate(4 94.43)">
<title>Unicode&#45;TOU</title>
<polygon fill="white" stroke="transparent" points="-4,4 -4,-94.43 756,-94.43 756,4 -4,4"/>
<g id="clust1" class="cluster">
<title>cluster_0</title>
<polygon fill="none" stroke="black" points="8,-8 8,-82.43 744,-82.43 744,-8 8,-8"/>
</g>
<g id="clust2" class="cluster">
<title>cluster_1</title>
<polygon fill="lightgray" stroke="lightgray" points="514,-16 514,-74.43 736,-74.43 736,-16 514,-16"/>
</g>
<g id="clust3" class="cluster">
<title>cluster_2</title>
<polygon fill="lightgray" stroke="lightgray" points="272,-19.21 272,-71.21 506,-71.21 506,-19.21 272,-19.21"/>
</g>
<g id="clust4" class="cluster">
<title>cluster_3</title>
<polygon fill="lightgray" stroke="lightgray" points="16,-19.21 16,-71.21 264,-71.21 264,-19.21 16,-19.21"/>
</g>
<!-- Unicode&#45;TOU -->
<g id="node1" class="node">
<title>Unicode&#45;TOU</title>
<ellipse fill="springgreen" stroke="springgreen" cx="625" cy="-45.21" rx="103.48" ry="21.43"/>
<text text-anchor="middle" x="625" y="-40.21" font-family="Times-Roman" font-size="20.00">Unicode&#45;TOU</text>
</g>
<!-- Unicode Terms of Use -->
<g id="node2" class="node">
<title>Unicode Terms of Use</title>
<ellipse fill="white" stroke="white" cx="389" cy="-45.21" rx="108.58" ry="18"/>
<text text-anchor="middle" x="389" y="-41.51" font-family="Times-Roman" font-size="14.00">Unicode Terms of Use</text>
</g>
<!-- scancode://unicode&#45;tou -->
<g id="node3" class="node">
<title>scancode://unicode&#45;tou</title>
<ellipse fill="white" stroke="white" cx="140" cy="-45.21" rx="115.88" ry="18"/>
<text text-anchor="middle" x="140" y="-41.51" font-family="Times-Roman" font-size="14.00">scancode://unicode&#45;tou</text>
</g>
</g>
</svg>
