<?xml version="1.0" encoding="UTF-8" standalone="no"?>
<!DOCTYPE svg PUBLIC "-//W3C//DTD SVG 1.1//EN"
 "http://www.w3.org/Graphics/SVG/1.1/DTD/svg11.dtd">
<!-- Generated by graphviz version 2.43.0 (0)
 -->
<!-- Title: UPL&#45;1.0 Pages: 1 -->
<svg width="543pt" height="678pt"
 viewBox="0.00 0.00 543.46 678.00" xmlns="http://www.w3.org/2000/svg" xmlns:xlink="http://www.w3.org/1999/xlink">
<g id="graph0" class="graph" transform="scale(1 1) rotate(0) translate(4 674)">
<title>UPL&#45;1.0</title>
<polygon fill="white" stroke="transparent" points="-4,4 -4,-674 539.46,-674 539.46,4 -4,4"/>
<g id="clust1" class="cluster">
<title>cluster_0</title>
<polygon fill="none" stroke="black" points="8,-8 8,-662 527.46,-662 527.46,-8 8,-8"/>
</g>
<g id="clust2" class="cluster">
<title>cluster_1</title>
<polygon fill="none" stroke="black" points="87.94,-130 87.94,-654 447.51,-654 447.51,-130 87.94,-130"/>
</g>
<g id="clust3" class="cluster">
<title>cluster_2</title>
<polygon fill="lightgray" stroke="lightgray" points="213.58,-594 213.58,-646 321.87,-646 321.87,-594 213.58,-594"/>
</g>
<g id="clust4" class="cluster">
<title>cluster_3</title>
<polygon fill="lightgray" stroke="lightgray" points="213.58,-480 213.58,-586 321.87,-586 321.87,-480 213.58,-480"/>
</g>
<g id="clust5" class="cluster">
<title>cluster_4</title>
<polygon fill="lightgray" stroke="lightgray" points="95.94,-366 95.94,-472 439.51,-472 439.51,-366 95.94,-366"/>
</g>
<g id="clust6" class="cluster">
<title>cluster_5</title>
<polygon fill="lightgray" stroke="lightgray" points="213.58,-252 213.58,-358 321.87,-358 321.87,-252 213.58,-252"/>
</g>
<g id="clust7" class="cluster">
<title>cluster_6</title>
<polygon fill="lightgray" stroke="lightgray" points="95.94,-138 95.94,-244 439.51,-244 439.51,-138 95.94,-138"/>
</g>
<g id="clust8" class="cluster">
<title>cluster_7</title>
<polygon fill="lightgray" stroke="lightgray" points="16,-16 16,-122 519.46,-122 519.46,-16 16,-16"/>
</g>
<!-- UPL&#45;1.0(2) -->
<g id="node1" class="node">
<title>UPL&#45;1.0(2)</title>
<ellipse fill="springgreen" stroke="springgreen" cx="267.73" cy="-620" rx="46.29" ry="18"/>
<text text-anchor="middle" x="267.73" y="-616.3" font-family="Times-Roman" font-size="14.00">UPL&#45;1.0</text>
</g>
<!-- UPL(3) -->
<g id="node2" class="node">
<title>UPL(3)</title>
<ellipse fill="white" stroke="white" cx="267.73" cy="-560" rx="27.9" ry="18"/>
<text text-anchor="middle" x="267.73" y="-556.3" font-family="Times-Roman" font-size="14.00">UPL</text>
</g>
<!-- UPL&#45;1.0(3) -->
<g id="node3" class="node">
<title>UPL&#45;1.0(3)</title>
<ellipse fill="springgreen" stroke="springgreen" cx="267.73" cy="-506" rx="46.29" ry="18"/>
<text text-anchor="middle" x="267.73" y="-502.3" font-family="Times-Roman" font-size="14.00">UPL&#45;1.0</text>
</g>
<!-- UPL&#45;1.0(4) -->
<g id="node4" class="node">
<title>UPL&#45;1.0(4)</title>
<ellipse fill="springgreen" stroke="springgreen" cx="267.73" cy="-446" rx="46.29" ry="18"/>
<text text-anchor="middle" x="267.73" y="-442.3" font-family="Times-Roman" font-size="14.00">UPL&#45;1.0</text>
</g>
<!-- Universal Permissive License v1.0(4) -->
<g id="node5" class="node">
<title>Universal Permissive License v1.0(4)</title>
<ellipse fill="white" stroke="white" cx="267.73" cy="-392" rx="163.57" ry="18"/>
<text text-anchor="middle" x="267.73" y="-388.3" font-family="Times-Roman" font-size="14.00">Universal Permissive License v1.0</text>
</g>
<!-- UPL&#45;1.0(5) -->
<g id="node6" class="node">
<title>UPL&#45;1.0(5)</title>
<ellipse fill="springgreen" stroke="springgreen" cx="267.73" cy="-332" rx="46.29" ry="18"/>
<text text-anchor="middle" x="267.73" y="-328.3" font-family="Times-Roman" font-size="14.00">UPL&#45;1.0</text>
</g>
<!-- upl&#45;1.0(5) -->
<g id="node7" class="node">
<title>upl&#45;1.0(5)</title>
<ellipse fill="white" stroke="white" cx="267.73" cy="-278" rx="42.79" ry="18"/>
<text text-anchor="middle" x="267.73" y="-274.3" font-family="Times-Roman" font-size="14.00">upl&#45;1.0</text>
</g>
<!-- UPL&#45;1.0(6) -->
<g id="node8" class="node">
<title>UPL&#45;1.0(6)</title>
<ellipse fill="springgreen" stroke="springgreen" cx="267.73" cy="-218" rx="46.29" ry="18"/>
<text text-anchor="middle" x="267.73" y="-214.3" font-family="Times-Roman" font-size="14.00">UPL&#45;1.0</text>
</g>
<!-- Universal Permissive License v1.0(6) -->
<g id="node9" class="node">
<title>Universal Permissive License v1.0(6)</title>
<ellipse fill="white" stroke="white" cx="267.73" cy="-164" rx="163.57" ry="18"/>
<text text-anchor="middle" x="267.73" y="-160.3" font-family="Times-Roman" font-size="14.00">Universal Permissive License v1.0</text>
</g>
<!-- The Universal Permissive License (UPL), Version 1.0(7) -->
<g id="node10" class="node">
<title>The Universal Permissive License (UPL), Version 1.0(7)</title>
<ellipse fill="white" stroke="white" cx="267.73" cy="-96" rx="243.96" ry="18"/>
<text text-anchor="middle" x="267.73" y="-92.3" font-family="Times-Roman" font-size="14.00">The Universal Permissive License (UPL), Version 1.0</text>
</g>
<!-- UPL(7) -->
<g id="node11" class="node">
<title>UPL(7)</title>
<ellipse fill="lightgray" stroke="lightgray" cx="267.73" cy="-42" rx="27.9" ry="18"/>
<text text-anchor="middle" x="267.73" y="-38.3" font-family="Times-Roman" font-size="14.00">UPL</text>
</g>
</g>
</svg>
