<?xml version="1.0" encoding="UTF-8" standalone="no"?>
<!DOCTYPE svg PUBLIC "-//W3C//DTD SVG 1.1//EN"
 "http://www.w3.org/Graphics/SVG/1.1/DTD/svg11.dtd">
<!-- Generated by graphviz version 2.49.3 (0)
 -->
<!-- Title: VOSTROM Pages: 1 -->
<svg width="395pt" height="374pt"
 viewBox="0.00 0.00 395.27 374.00" xmlns="http://www.w3.org/2000/svg" xmlns:xlink="http://www.w3.org/1999/xlink">
<g id="graph0" class="graph" transform="scale(1 1) rotate(0) translate(4 370)">
<title>VOSTROM</title>
<polygon fill="white" stroke="transparent" points="-4,4 -4,-370 391.27,-370 391.27,4 -4,4"/>
<g id="clust1" class="cluster">
<title>cluster_0</title>
<polygon fill="none" stroke="black" points="8,-8 8,-358 379.27,-358 379.27,-8 8,-8"/>
</g>
<g id="clust2" class="cluster">
<title>cluster_1</title>
<polygon fill="lightgray" stroke="lightgray" points="131.69,-298 131.69,-350 255.58,-350 255.58,-298 131.69,-298"/>
</g>
<g id="clust3" class="cluster">
<title>cluster_2</title>
<polygon fill="lightgray" stroke="lightgray" points="16,-184 16,-290 371.27,-290 371.27,-184 16,-184"/>
</g>
<g id="clust4" class="cluster">
<title>cluster_3</title>
<polygon fill="lightgray" stroke="lightgray" points="77.09,-16 77.09,-176 310.18,-176 310.18,-16 77.09,-16"/>
</g>
<!-- VOSTROM(1) -->
<g id="node1" class="node">
<title>VOSTROM(1)</title>
<ellipse fill="springgreen" stroke="springgreen" cx="193.63" cy="-324" rx="53.89" ry="18"/>
<text text-anchor="middle" x="193.63" y="-320.3" font-family="Times,serif" font-size="14.00">VOSTROM</text>
</g>
<!-- VOSTROM(2) -->
<g id="node2" class="node">
<title>VOSTROM(2)</title>
<ellipse fill="springgreen" stroke="springgreen" cx="193.63" cy="-264" rx="53.89" ry="18"/>
<text text-anchor="middle" x="193.63" y="-260.3" font-family="Times,serif" font-size="14.00">VOSTROM</text>
</g>
<!-- VOSTROM Public License for Open Source(2) -->
<g id="node3" class="node">
<title>VOSTROM Public License for Open Source(2)</title>
<ellipse fill="white" stroke="white" cx="193.63" cy="-210" rx="169.77" ry="18"/>
<text text-anchor="middle" x="193.63" y="-206.3" font-family="Times,serif" font-size="14.00">VOSTROM Public License for Open Source</text>
</g>
<!-- VOSTROM(3) -->
<g id="node4" class="node">
<title>VOSTROM(3)</title>
<ellipse fill="springgreen" stroke="springgreen" cx="193.63" cy="-150" rx="53.89" ry="18"/>
<text text-anchor="middle" x="193.63" y="-146.3" font-family="Times,serif" font-size="14.00">VOSTROM</text>
</g>
<!-- VOSTROM Public License(3) -->
<g id="node5" class="node">
<title>VOSTROM Public License(3)</title>
<ellipse fill="white" stroke="white" cx="193.63" cy="-96" rx="108.58" ry="18"/>
<text text-anchor="middle" x="193.63" y="-92.3" font-family="Times,serif" font-size="14.00">VOSTROM Public License</text>
</g>
<!-- scancode://vostrom(3) -->
<g id="node6" class="node">
<title>scancode://vostrom(3)</title>
<ellipse fill="white" stroke="white" cx="193.63" cy="-42" rx="79.09" ry="18"/>
<text text-anchor="middle" x="193.63" y="-38.3" font-family="Times,serif" font-size="14.00">scancode://vostrom</text>
</g>
</g>
</svg>
