<?xml version="1.0" encoding="UTF-8" standalone="no"?>
<!DOCTYPE svg PUBLIC "-//W3C//DTD SVG 1.1//EN"
 "http://www.w3.org/Graphics/SVG/1.1/DTD/svg11.dtd">
<!-- Generated by graphviz version 2.43.0 (0)
 -->
<!-- Title: VSL&#45;1.0 Pages: 1 -->
<svg width="568pt" height="884pt"
 viewBox="0.00 0.00 568.15 884.00" xmlns="http://www.w3.org/2000/svg" xmlns:xlink="http://www.w3.org/1999/xlink">
<g id="graph0" class="graph" transform="scale(1 1) rotate(0) translate(4 880)">
<title>VSL&#45;1.0</title>
<polygon fill="white" stroke="transparent" points="-4,4 -4,-880 564.15,-880 564.15,4 -4,4"/>
<g id="clust1" class="cluster">
<title>cluster_0</title>
<polygon fill="none" stroke="black" points="8,-8 8,-868 552.15,-868 552.15,-8 8,-8"/>
</g>
<g id="clust2" class="cluster">
<title>cluster_1</title>
<polygon fill="lightgray" stroke="lightgray" points="225.93,-808 225.93,-860 334.22,-860 334.22,-808 225.93,-808"/>
</g>
<g id="clust3" class="cluster">
<title>cluster_2</title>
<polygon fill="lightgray" stroke="lightgray" points="96.59,-694 96.59,-800 463.56,-800 463.56,-694 96.59,-694"/>
</g>
<g id="clust4" class="cluster">
<title>cluster_3</title>
<polygon fill="lightgray" stroke="lightgray" points="130.39,-580 130.39,-686 429.76,-686 429.76,-580 130.39,-580"/>
</g>
<g id="clust5" class="cluster">
<title>cluster_4</title>
<polygon fill="lightgray" stroke="lightgray" points="130.39,-466 130.39,-572 429.76,-572 429.76,-466 130.39,-466"/>
</g>
<g id="clust6" class="cluster">
<title>cluster_5</title>
<polygon fill="lightgray" stroke="lightgray" points="135.59,-298 135.59,-458 424.57,-458 424.57,-298 135.59,-298"/>
</g>
<g id="clust7" class="cluster">
<title>cluster_6</title>
<polygon fill="lightgray" stroke="lightgray" points="16,-130 16,-290 544.15,-290 544.15,-130 16,-130"/>
</g>
<g id="clust8" class="cluster">
<title>cluster_7</title>
<polygon fill="lightgray" stroke="lightgray" points="135.59,-16 135.59,-122 424.57,-122 424.57,-16 135.59,-16"/>
</g>
<!-- VSL&#45;1.0(1) -->
<g id="node1" class="node">
<title>VSL&#45;1.0(1)</title>
<ellipse fill="springgreen" stroke="springgreen" cx="280.08" cy="-834" rx="46.29" ry="18"/>
<text text-anchor="middle" x="280.08" y="-830.3" font-family="Times-Roman" font-size="14.00">VSL&#45;1.0</text>
</g>
<!-- VSL&#45;1.0(2) -->
<g id="node2" class="node">
<title>VSL&#45;1.0(2)</title>
<ellipse fill="springgreen" stroke="springgreen" cx="280.08" cy="-774" rx="46.29" ry="18"/>
<text text-anchor="middle" x="280.08" y="-770.3" font-family="Times-Roman" font-size="14.00">VSL&#45;1.0</text>
</g>
<!-- Vovida Software License, Version 1.0(2) -->
<g id="node3" class="node">
<title>Vovida Software License, Version 1.0(2)</title>
<ellipse fill="white" stroke="white" cx="280.08" cy="-720" rx="175.47" ry="18"/>
<text text-anchor="middle" x="280.08" y="-716.3" font-family="Times-Roman" font-size="14.00">Vovida Software License, Version 1.0</text>
</g>
<!-- VSL&#45;1.0(3) -->
<g id="node4" class="node">
<title>VSL&#45;1.0(3)</title>
<ellipse fill="springgreen" stroke="springgreen" cx="280.08" cy="-660" rx="46.29" ry="18"/>
<text text-anchor="middle" x="280.08" y="-656.3" font-family="Times-Roman" font-size="14.00">VSL&#45;1.0</text>
</g>
<!-- Vovida Software License v1.0(3) -->
<g id="node5" class="node">
<title>Vovida Software License v1.0(3)</title>
<ellipse fill="white" stroke="white" cx="280.08" cy="-606" rx="141.88" ry="18"/>
<text text-anchor="middle" x="280.08" y="-602.3" font-family="Times-Roman" font-size="14.00">Vovida Software License v1.0</text>
</g>
<!-- VSL&#45;1.0(4) -->
<g id="node6" class="node">
<title>VSL&#45;1.0(4)</title>
<ellipse fill="springgreen" stroke="springgreen" cx="280.08" cy="-546" rx="46.29" ry="18"/>
<text text-anchor="middle" x="280.08" y="-542.3" font-family="Times-Roman" font-size="14.00">VSL&#45;1.0</text>
</g>
<!-- Vovida Software License v1.0(4) -->
<g id="node7" class="node">
<title>Vovida Software License v1.0(4)</title>
<ellipse fill="white" stroke="white" cx="280.08" cy="-492" rx="141.88" ry="18"/>
<text text-anchor="middle" x="280.08" y="-488.3" font-family="Times-Roman" font-size="14.00">Vovida Software License v1.0</text>
</g>
<!-- VSL&#45;1.0(5) -->
<g id="node8" class="node">
<title>VSL&#45;1.0(5)</title>
<ellipse fill="springgreen" stroke="springgreen" cx="280.08" cy="-432" rx="46.29" ry="18"/>
<text text-anchor="middle" x="280.08" y="-428.3" font-family="Times-Roman" font-size="14.00">VSL&#45;1.0</text>
</g>
<!-- Vovida Software License 1.0(5) -->
<g id="node9" class="node">
<title>Vovida Software License 1.0(5)</title>
<ellipse fill="white" stroke="white" cx="280.08" cy="-378" rx="136.48" ry="18"/>
<text text-anchor="middle" x="280.08" y="-374.3" font-family="Times-Roman" font-size="14.00">Vovida Software License 1.0</text>
</g>
<!-- scancode://vsl&#45;1.0(5) -->
<g id="node10" class="node">
<title>scancode://vsl&#45;1.0(5)</title>
<ellipse fill="white" stroke="white" cx="280.08" cy="-324" rx="92.88" ry="18"/>
<text text-anchor="middle" x="280.08" y="-320.3" font-family="Times-Roman" font-size="14.00">scancode://vsl&#45;1.0</text>
</g>
<!-- License :: OSI Approved :: Vovida Software License 1.0(6) -->
<g id="node11" class="node">
<title>License :: OSI Approved :: Vovida Software License 1.0(6)</title>
<ellipse fill="white" stroke="white" cx="280.08" cy="-264" rx="256.15" ry="18"/>
<text text-anchor="middle" x="280.08" y="-260.3" font-family="Times-Roman" font-size="14.00">License :: OSI Approved :: Vovida Software License 1.0</text>
</g>
<!-- The Vovida Software License, Version 1.0(6) -->
<g id="node12" class="node">
<title>The Vovida Software License, Version 1.0(6)</title>
<ellipse fill="white" stroke="white" cx="280.08" cy="-210" rx="194.97" ry="18"/>
<text text-anchor="middle" x="280.08" y="-206.3" font-family="Times-Roman" font-size="14.00">The Vovida Software License, Version 1.0</text>
</g>
<!-- VSL&#45;1.0(6) -->
<g id="node13" class="node">
<title>VSL&#45;1.0(6)</title>
<ellipse fill="springgreen" stroke="springgreen" cx="280.08" cy="-156" rx="46.29" ry="18"/>
<text text-anchor="middle" x="280.08" y="-152.3" font-family="Times-Roman" font-size="14.00">VSL&#45;1.0</text>
</g>
<!-- VSL&#45;1.0(7) -->
<g id="node14" class="node">
<title>VSL&#45;1.0(7)</title>
<ellipse fill="springgreen" stroke="springgreen" cx="280.08" cy="-96" rx="46.29" ry="18"/>
<text text-anchor="middle" x="280.08" y="-92.3" font-family="Times-Roman" font-size="14.00">VSL&#45;1.0</text>
</g>
<!-- Vovida Software License 1.0(7) -->
<g id="node15" class="node">
<title>Vovida Software License 1.0(7)</title>
<ellipse fill="white" stroke="white" cx="280.08" cy="-42" rx="136.48" ry="18"/>
<text text-anchor="middle" x="280.08" y="-38.3" font-family="Times-Roman" font-size="14.00">Vovida Software License 1.0</text>
</g>
</g>
</svg>
