<?xml version="1.0" encoding="UTF-8" standalone="no"?>
<!DOCTYPE svg PUBLIC "-//W3C//DTD SVG 1.1//EN"
 "http://www.w3.org/Graphics/SVG/1.1/DTD/svg11.dtd">
<!-- Generated by graphviz version 2.43.0 (0)
 -->
<!-- Title: VSL&#45;1.0 Pages: 1 -->
<svg width="1900pt" height="92pt"
 viewBox="0.00 0.00 1900.00 92.00" xmlns="http://www.w3.org/2000/svg" xmlns:xlink="http://www.w3.org/1999/xlink">
<g id="graph0" class="graph" transform="scale(1 1) rotate(0) translate(4 88)">
<title>VSL&#45;1.0</title>
<polygon fill="white" stroke="transparent" points="-4,4 -4,-88 1896,-88 1896,4 -4,4"/>
<g id="clust1" class="cluster">
<title>cluster_0</title>
<polygon fill="none" stroke="black" points="8,-8 8,-76 1884,-76 1884,-8 8,-8"/>
</g>
<g id="clust2" class="cluster">
<title>cluster_1</title>
<polygon fill="lightgray" stroke="lightgray" points="1768,-16 1768,-68 1876,-68 1876,-16 1768,-16"/>
</g>
<g id="clust3" class="cluster">
<title>cluster_2</title>
<polygon fill="lightgray" stroke="lightgray" points="1460,-16 1460,-68 1760,-68 1760,-16 1460,-16"/>
</g>
<g id="clust5" class="cluster">
<title>cluster_4</title>
<polygon fill="lightgray" stroke="lightgray" points="960,-16 960,-68 1452,-68 1452,-16 960,-16"/>
</g>
<g id="clust6" class="cluster">
<title>cluster_5</title>
<polygon fill="lightgray" stroke="lightgray" points="16,-16 16,-68 952,-68 952,-16 16,-16"/>
</g>
<!-- VSL&#45;1.0 -->
<g id="node1" class="node">
<title>VSL&#45;1.0</title>
<ellipse fill="white" stroke="white" cx="1822" cy="-42" rx="46.29" ry="18"/>
<text text-anchor="middle" x="1822" y="-38.3" font-family="Times-Roman" font-size="14.00">VSL&#45;1.0</text>
</g>
<!-- Vovida Software License v1.0 -->
<g id="node2" class="node">
<title>Vovida Software License v1.0</title>
<ellipse fill="white" stroke="white" cx="1610" cy="-42" rx="141.88" ry="18"/>
<text text-anchor="middle" x="1610" y="-38.3" font-family="Times-Roman" font-size="14.00">Vovida Software License v1.0</text>
</g>
<!-- Vovida Software License 1.0 -->
<g id="node3" class="node">
<title>Vovida Software License 1.0</title>
<ellipse fill="white" stroke="white" cx="1308" cy="-42" rx="136.48" ry="18"/>
<text text-anchor="middle" x="1308" y="-38.3" font-family="Times-Roman" font-size="14.00">Vovida Software License 1.0</text>
</g>
<!-- scancode://vsl&#45;1.0 -->
<g id="node4" class="node">
<title>scancode://vsl&#45;1.0</title>
<ellipse fill="white" stroke="white" cx="1061" cy="-42" rx="92.88" ry="18"/>
<text text-anchor="middle" x="1061" y="-38.3" font-family="Times-Roman" font-size="14.00">scancode://vsl&#45;1.0</text>
</g>
<!-- License :: OSI Approved :: Vovida Software License 1.0 -->
<g id="node5" class="node">
<title>License :: OSI Approved :: Vovida Software License 1.0</title>
<ellipse fill="white" stroke="white" cx="688" cy="-42" rx="256.15" ry="18"/>
<text text-anchor="middle" x="688" y="-38.3" font-family="Times-Roman" font-size="14.00">License :: OSI Approved :: Vovida Software License 1.0</text>
</g>
<!-- The Vovida Software License, Version 1.0 -->
<g id="node6" class="node">
<title>The Vovida Software License, Version 1.0</title>
<ellipse fill="white" stroke="white" cx="219" cy="-42" rx="194.97" ry="18"/>
<text text-anchor="middle" x="219" y="-38.3" font-family="Times-Roman" font-size="14.00">The Vovida Software License, Version 1.0</text>
</g>
</g>
</svg>
