<?xml version="1.0" encoding="UTF-8" standalone="no"?>
<!DOCTYPE svg PUBLIC "-//W3C//DTD SVG 1.1//EN"
 "http://www.w3.org/Graphics/SVG/1.1/DTD/svg11.dtd">
<!-- Generated by graphviz version 2.43.0 (0)
 -->
<!-- Title: W3C&#45;19980720 Pages: 1 -->
<svg width="2371pt" height="115pt"
 viewBox="0.00 0.00 2371.00 115.00" xmlns="http://www.w3.org/2000/svg" xmlns:xlink="http://www.w3.org/1999/xlink">
<g id="graph0" class="graph" transform="scale(1 1) rotate(0) translate(4 111)">
<title>W3C&#45;19980720</title>
<polygon fill="white" stroke="transparent" points="-4,4 -4,-111 2367,-111 2367,4 -4,4"/>
<g id="clust1" class="cluster">
<title>cluster_0</title>
<polygon fill="none" stroke="black" points="8,-8 8,-99 2355,-99 2355,-8 8,-8"/>
</g>
<g id="clust2" class="cluster">
<title>cluster_1</title>
<polygon fill="lightgray" stroke="lightgray" points="2167,-16 2167,-91 2347,-91 2347,-16 2167,-16"/>
<text text-anchor="middle" x="2257" y="-75.8" font-family="Times-Roman" font-size="14.00">prev</text>
</g>
<g id="clust3" class="cluster">
<title>cluster_2</title>
<polygon fill="lightgray" stroke="lightgray" points="1511,-16 1511,-68 2159,-68 2159,-16 1511,-16"/>
</g>
<g id="clust4" class="cluster">
<title>cluster_3</title>
<polygon fill="lightgray" stroke="lightgray" points="855,-16 855,-68 1503,-68 1503,-16 855,-16"/>
</g>
<g id="clust5" class="cluster">
<title>cluster_4</title>
<polygon fill="lightgray" stroke="lightgray" points="16,-16 16,-68 847,-68 847,-16 16,-16"/>
</g>
<!-- W3C&#45;19980720(1) -->
<g id="node1" class="node">
<title>W3C&#45;19980720(1)</title>
<ellipse fill="springgreen" stroke="springgreen" cx="2257" cy="-42" rx="81.79" ry="18"/>
<text text-anchor="middle" x="2257" y="-38.3" font-family="Times-Roman" font-size="14.00">W3C&#45;19980720</text>
</g>
<!-- W3C Software Notice and License (1998&#45;07&#45;20)(2) -->
<g id="node2" class="node">
<title>W3C Software Notice and License (1998&#45;07&#45;20)(2)</title>
<ellipse fill="white" stroke="white" cx="1926" cy="-42" rx="224.76" ry="18"/>
<text text-anchor="middle" x="1926" y="-38.3" font-family="Times-Roman" font-size="14.00">W3C Software Notice and License (1998&#45;07&#45;20)</text>
</g>
<!-- W3C&#45;19980720(2) -->
<g id="node3" class="node">
<title>W3C&#45;19980720(2)</title>
<ellipse fill="springgreen" stroke="springgreen" cx="1601" cy="-42" rx="81.79" ry="18"/>
<text text-anchor="middle" x="1601" y="-38.3" font-family="Times-Roman" font-size="14.00">W3C&#45;19980720</text>
</g>
<!-- W3C Software Notice and License (1998&#45;07&#45;20)(3) -->
<g id="node4" class="node">
<title>W3C Software Notice and License (1998&#45;07&#45;20)(3)</title>
<ellipse fill="white" stroke="white" cx="1270" cy="-42" rx="224.76" ry="18"/>
<text text-anchor="middle" x="1270" y="-38.3" font-family="Times-Roman" font-size="14.00">W3C Software Notice and License (1998&#45;07&#45;20)</text>
</g>
<!-- W3C&#45;19980720(3) -->
<g id="node5" class="node">
<title>W3C&#45;19980720(3)</title>
<ellipse fill="springgreen" stroke="springgreen" cx="945" cy="-42" rx="81.79" ry="18"/>
<text text-anchor="middle" x="945" y="-38.3" font-family="Times-Roman" font-size="14.00">W3C&#45;19980720</text>
</g>
<!-- W3C&#45;19980720(4) -->
<g id="node6" class="node">
<title>W3C&#45;19980720(4)</title>
<ellipse fill="springgreen" stroke="springgreen" cx="757" cy="-42" rx="81.79" ry="18"/>
<text text-anchor="middle" x="757" y="-38.3" font-family="Times-Roman" font-size="14.00">W3C&#45;19980720</text>
</g>
<!-- W3C&#45;SOFTWARE&#45;19980720(4) -->
<g id="node7" class="node">
<title>W3C&#45;SOFTWARE&#45;19980720(4)</title>
<ellipse fill="white" stroke="white" cx="521" cy="-42" rx="135.68" ry="18"/>
<text text-anchor="middle" x="521" y="-38.3" font-family="Times-Roman" font-size="14.00">W3C&#45;SOFTWARE&#45;19980720</text>
</g>
<!-- scancode://w3c&#45;software&#45;19980720(4) -->
<g id="node8" class="node">
<title>scancode://w3c&#45;software&#45;19980720(4)</title>
<ellipse fill="white" stroke="white" cx="196" cy="-42" rx="171.67" ry="18"/>
<text text-anchor="middle" x="196" y="-38.3" font-family="Times-Roman" font-size="14.00">scancode://w3c&#45;software&#45;19980720</text>
</g>
</g>
</svg>
