<?xml version="1.0" encoding="UTF-8" standalone="no"?>
<!DOCTYPE svg PUBLIC "-//W3C//DTD SVG 1.1//EN"
 "http://www.w3.org/Graphics/SVG/1.1/DTD/svg11.dtd">
<!-- Generated by graphviz version 2.43.0 (0)
 -->
<!-- Title: Watcom&#45;1.0 Pages: 1 -->
<svg width="443pt" height="602pt"
 viewBox="0.00 0.00 443.37 602.00" xmlns="http://www.w3.org/2000/svg" xmlns:xlink="http://www.w3.org/1999/xlink">
<g id="graph0" class="graph" transform="scale(1 1) rotate(0) translate(4 598)">
<title>Watcom&#45;1.0</title>
<polygon fill="white" stroke="transparent" points="-4,4 -4,-598 439.37,-598 439.37,4 -4,4"/>
<g id="clust1" class="cluster">
<title>cluster_0</title>
<polygon fill="none" stroke="black" points="8,-8 8,-586 427.37,-586 427.37,-8 8,-8"/>
</g>
<g id="clust2" class="cluster">
<title>cluster_1</title>
<polygon fill="lightgray" stroke="lightgray" points="144.69,-526 144.69,-578 290.68,-578 290.68,-526 144.69,-526"/>
</g>
<g id="clust3" class="cluster">
<title>cluster_2</title>
<polygon fill="lightgray" stroke="lightgray" points="16,-412 16,-518 419.37,-518 419.37,-412 16,-412"/>
</g>
<g id="clust4" class="cluster">
<title>cluster_3</title>
<polygon fill="lightgray" stroke="lightgray" points="49.15,-298 49.15,-404 386.22,-404 386.22,-298 49.15,-298"/>
</g>
<g id="clust5" class="cluster">
<title>cluster_4</title>
<polygon fill="lightgray" stroke="lightgray" points="16,-184 16,-290 419.37,-290 419.37,-184 16,-184"/>
</g>
<g id="clust6" class="cluster">
<title>cluster_5</title>
<polygon fill="lightgray" stroke="lightgray" points="116.09,-16 116.09,-176 319.27,-176 319.27,-16 116.09,-16"/>
</g>
<!-- Watcom&#45;1.0(1) -->
<g id="node1" class="node">
<title>Watcom&#45;1.0(1)</title>
<ellipse fill="springgreen" stroke="springgreen" cx="217.68" cy="-552" rx="64.99" ry="18"/>
<text text-anchor="middle" x="217.68" y="-548.3" font-family="Times-Roman" font-size="14.00">Watcom&#45;1.0</text>
</g>
<!-- Sybase Open Watcom Public License 1.0(2) -->
<g id="node2" class="node">
<title>Sybase Open Watcom Public License 1.0(2)</title>
<ellipse fill="white" stroke="white" cx="217.68" cy="-492" rx="193.87" ry="18"/>
<text text-anchor="middle" x="217.68" y="-488.3" font-family="Times-Roman" font-size="14.00">Sybase Open Watcom Public License 1.0</text>
</g>
<!-- Watcom&#45;1.0(2) -->
<g id="node3" class="node">
<title>Watcom&#45;1.0(2)</title>
<ellipse fill="springgreen" stroke="springgreen" cx="217.68" cy="-438" rx="64.99" ry="18"/>
<text text-anchor="middle" x="217.68" y="-434.3" font-family="Times-Roman" font-size="14.00">Watcom&#45;1.0</text>
</g>
<!-- The Sybase Open Source Licence(3) -->
<g id="node4" class="node">
<title>The Sybase Open Source Licence(3)</title>
<ellipse fill="white" stroke="white" cx="217.68" cy="-378" rx="160.57" ry="18"/>
<text text-anchor="middle" x="217.68" y="-374.3" font-family="Times-Roman" font-size="14.00">The Sybase Open Source Licence</text>
</g>
<!-- Watcom&#45;1.0(3) -->
<g id="node5" class="node">
<title>Watcom&#45;1.0(3)</title>
<ellipse fill="springgreen" stroke="springgreen" cx="217.68" cy="-324" rx="64.99" ry="18"/>
<text text-anchor="middle" x="217.68" y="-320.3" font-family="Times-Roman" font-size="14.00">Watcom&#45;1.0</text>
</g>
<!-- Sybase Open Watcom Public License 1.0(4) -->
<g id="node6" class="node">
<title>Sybase Open Watcom Public License 1.0(4)</title>
<ellipse fill="white" stroke="white" cx="217.68" cy="-264" rx="193.87" ry="18"/>
<text text-anchor="middle" x="217.68" y="-260.3" font-family="Times-Roman" font-size="14.00">Sybase Open Watcom Public License 1.0</text>
</g>
<!-- Watcom&#45;1.0(4) -->
<g id="node7" class="node">
<title>Watcom&#45;1.0(4)</title>
<ellipse fill="springgreen" stroke="springgreen" cx="217.68" cy="-210" rx="64.99" ry="18"/>
<text text-anchor="middle" x="217.68" y="-206.3" font-family="Times-Roman" font-size="14.00">Watcom&#45;1.0</text>
</g>
<!-- Open Watcom 1.0(5) -->
<g id="node8" class="node">
<title>Open Watcom 1.0(5)</title>
<ellipse fill="white" stroke="white" cx="217.68" cy="-150" rx="91.78" ry="18"/>
<text text-anchor="middle" x="217.68" y="-146.3" font-family="Times-Roman" font-size="14.00">Open Watcom 1.0</text>
</g>
<!-- Watcom&#45;1.0(5) -->
<g id="node9" class="node">
<title>Watcom&#45;1.0(5)</title>
<ellipse fill="springgreen" stroke="springgreen" cx="217.68" cy="-96" rx="64.99" ry="18"/>
<text text-anchor="middle" x="217.68" y="-92.3" font-family="Times-Roman" font-size="14.00">Watcom&#45;1.0</text>
</g>
<!-- scancode://sybase(5) -->
<g id="node10" class="node">
<title>scancode://sybase(5)</title>
<ellipse fill="white" stroke="white" cx="217.68" cy="-42" rx="93.68" ry="18"/>
<text text-anchor="middle" x="217.68" y="-38.3" font-family="Times-Roman" font-size="14.00">scancode://sybase</text>
</g>
</g>
</svg>
