<?xml version="1.0" encoding="UTF-8" standalone="no"?>
<!DOCTYPE svg PUBLIC "-//W3C//DTD SVG 1.1//EN"
 "http://www.w3.org/Graphics/SVG/1.1/DTD/svg11.dtd">
<!-- Generated by graphviz version 2.43.0 (0)
 -->
<!-- Title: Xerox Pages: 1 -->
<svg width="1301pt" height="115pt"
 viewBox="0.00 0.00 1301.00 115.00" xmlns="http://www.w3.org/2000/svg" xmlns:xlink="http://www.w3.org/1999/xlink">
<g id="graph0" class="graph" transform="scale(1 1) rotate(0) translate(4 111)">
<title>Xerox</title>
<polygon fill="white" stroke="transparent" points="-4,4 -4,-111 1297,-111 1297,4 -4,4"/>
<g id="clust1" class="cluster">
<title>cluster_0</title>
<polygon fill="none" stroke="black" points="8,-8 8,-99 1285,-99 1285,-8 8,-8"/>
</g>
<g id="clust2" class="cluster">
<title>cluster_1</title>
<polygon fill="lightgray" stroke="lightgray" points="1189,-16 1189,-91 1277,-91 1277,-16 1189,-16"/>
<text text-anchor="middle" x="1233" y="-75.8" font-family="Times-Roman" font-size="14.00">prev</text>
</g>
<g id="clust3" class="cluster">
<title>cluster_2</title>
<polygon fill="lightgray" stroke="lightgray" points="929,-16 929,-68 1181,-68 1181,-16 929,-16"/>
</g>
<g id="clust4" class="cluster">
<title>cluster_3</title>
<polygon fill="lightgray" stroke="lightgray" points="669,-16 669,-68 921,-68 921,-16 669,-16"/>
</g>
<g id="clust5" class="cluster">
<title>cluster_4</title>
<polygon fill="lightgray" stroke="lightgray" points="16,-16 16,-68 661,-68 661,-16 16,-16"/>
</g>
<!-- Xerox(1) -->
<g id="node1" class="node">
<title>Xerox(1)</title>
<ellipse fill="springgreen" stroke="springgreen" cx="1233" cy="-42" rx="36.29" ry="18"/>
<text text-anchor="middle" x="1233" y="-38.3" font-family="Times-Roman" font-size="14.00">Xerox</text>
</g>
<!-- Xerox(2) -->
<g id="node2" class="node">
<title>Xerox(2)</title>
<ellipse fill="springgreen" stroke="springgreen" cx="1137" cy="-42" rx="36.29" ry="18"/>
<text text-anchor="middle" x="1137" y="-38.3" font-family="Times-Roman" font-size="14.00">Xerox</text>
</g>
<!-- Xerox License(2) -->
<g id="node3" class="node">
<title>Xerox License(2)</title>
<ellipse fill="white" stroke="white" cx="1010" cy="-42" rx="72.59" ry="18"/>
<text text-anchor="middle" x="1010" y="-38.3" font-family="Times-Roman" font-size="14.00">Xerox License</text>
</g>
<!-- Xerox(3) -->
<g id="node4" class="node">
<title>Xerox(3)</title>
<ellipse fill="springgreen" stroke="springgreen" cx="877" cy="-42" rx="36.29" ry="18"/>
<text text-anchor="middle" x="877" y="-38.3" font-family="Times-Roman" font-size="14.00">Xerox</text>
</g>
<!-- Xerox License(3) -->
<g id="node5" class="node">
<title>Xerox License(3)</title>
<ellipse fill="white" stroke="white" cx="750" cy="-42" rx="72.59" ry="18"/>
<text text-anchor="middle" x="750" y="-38.3" font-family="Times-Roman" font-size="14.00">Xerox License</text>
</g>
<!-- MIT with Export Control(4) -->
<g id="node6" class="node">
<title>MIT with Export Control(4)</title>
<ellipse fill="white" stroke="white" cx="537" cy="-42" rx="116.18" ry="18"/>
<text text-anchor="middle" x="537" y="-38.3" font-family="Times-Roman" font-size="14.00">MIT with Export Control</text>
</g>
<!-- Xerox(4) -->
<g id="node7" class="node">
<title>Xerox(4)</title>
<ellipse fill="springgreen" stroke="springgreen" cx="366" cy="-42" rx="36.29" ry="18"/>
<text text-anchor="middle" x="366" y="-38.3" font-family="Times-Roman" font-size="14.00">Xerox</text>
</g>
<!-- scancode://mit&#45;export&#45;control(4) -->
<g id="node8" class="node">
<title>scancode://mit&#45;export&#45;control(4)</title>
<ellipse fill="white" stroke="white" cx="168" cy="-42" rx="143.77" ry="18"/>
<text text-anchor="middle" x="168" y="-38.3" font-family="Times-Roman" font-size="14.00">scancode://mit&#45;export&#45;control</text>
</g>
</g>
</svg>
