<?xml version="1.0" encoding="UTF-8" standalone="no"?>
<!DOCTYPE svg PUBLIC "-//W3C//DTD SVG 1.1//EN"
 "http://www.w3.org/Graphics/SVG/1.1/DTD/svg11.dtd">
<!-- Generated by graphviz version 2.43.0 (0)
 -->
<!-- Title: XFree86&#45;1.1 Pages: 1 -->
<svg width="2568pt" height="98pt"
 viewBox="0.00 0.00 2568.00 98.43" xmlns="http://www.w3.org/2000/svg" xmlns:xlink="http://www.w3.org/1999/xlink">
<g id="graph0" class="graph" transform="scale(1 1) rotate(0) translate(4 94.43)">
<title>XFree86&#45;1.1</title>
<polygon fill="white" stroke="transparent" points="-4,4 -4,-94.43 2564,-94.43 2564,4 -4,4"/>
<g id="clust1" class="cluster">
<title>cluster_0</title>
<polygon fill="none" stroke="black" points="8,-8 8,-82.43 2552,-82.43 2552,-8 8,-8"/>
</g>
<g id="clust2" class="cluster">
<title>cluster_1</title>
<polygon fill="lightgray" stroke="lightgray" points="2296,-16 2296,-74.43 2544,-74.43 2544,-16 2296,-16"/>
</g>
<g id="clust3" class="cluster">
<title>cluster_2</title>
<polygon fill="lightgray" stroke="lightgray" points="1794,-16 1794,-74.43 2288,-74.43 2288,-16 1794,-16"/>
</g>
<g id="clust4" class="cluster">
<title>cluster_3</title>
<polygon fill="lightgray" stroke="lightgray" points="1292,-16 1292,-74.43 1786,-74.43 1786,-16 1292,-16"/>
</g>
<g id="clust5" class="cluster">
<title>cluster_4</title>
<polygon fill="lightgray" stroke="lightgray" points="518,-16 518,-74.43 1284,-74.43 1284,-16 518,-16"/>
</g>
<g id="clust6" class="cluster">
<title>cluster_5</title>
<polygon fill="lightgray" stroke="lightgray" points="16,-16 16,-74.43 510,-74.43 510,-16 16,-16"/>
</g>
<!-- XFree86&#45;1.1(1) -->
<g id="node1" class="node">
<title>XFree86&#45;1.1(1)</title>
<ellipse fill="springgreen" stroke="springgreen" cx="2420" cy="-45.21" rx="115.93" ry="21.43"/>
<text text-anchor="middle" x="2420" y="-40.21" font-family="Times-Roman" font-size="20.00">XFree86&#45;1.1(1)</text>
</g>
<!-- XFree86 License 1.1(2) -->
<g id="node2" class="node">
<title>XFree86 License 1.1(2)</title>
<ellipse fill="white" stroke="white" cx="2166" cy="-45.21" rx="114.28" ry="18"/>
<text text-anchor="middle" x="2166" y="-41.51" font-family="Times-Roman" font-size="14.00">XFree86 License 1.1(2)</text>
</g>
<!-- XFree86&#45;1.1(2) -->
<g id="node3" class="node">
<title>XFree86&#45;1.1(2)</title>
<ellipse fill="springgreen" stroke="springgreen" cx="1918" cy="-45.21" rx="115.93" ry="21.43"/>
<text text-anchor="middle" x="1918" y="-40.21" font-family="Times-Roman" font-size="20.00">XFree86&#45;1.1(2)</text>
</g>
<!-- XFree86 License 1.1(3) -->
<g id="node4" class="node">
<title>XFree86 License 1.1(3)</title>
<ellipse fill="white" stroke="white" cx="1664" cy="-45.21" rx="114.28" ry="18"/>
<text text-anchor="middle" x="1664" y="-41.51" font-family="Times-Roman" font-size="14.00">XFree86 License 1.1(3)</text>
</g>
<!-- XFree86&#45;1.1(3) -->
<g id="node5" class="node">
<title>XFree86&#45;1.1(3)</title>
<ellipse fill="springgreen" stroke="springgreen" cx="1416" cy="-45.21" rx="115.93" ry="21.43"/>
<text text-anchor="middle" x="1416" y="-40.21" font-family="Times-Roman" font-size="20.00">XFree86&#45;1.1(3)</text>
</g>
<!-- XFree86 License 1.1(4) -->
<g id="node6" class="node">
<title>XFree86 License 1.1(4)</title>
<ellipse fill="white" stroke="white" cx="1162" cy="-45.21" rx="114.28" ry="18"/>
<text text-anchor="middle" x="1162" y="-41.51" font-family="Times-Roman" font-size="14.00">XFree86 License 1.1(4)</text>
</g>
<!-- XFree86&#45;1.1(4) -->
<g id="node7" class="node">
<title>XFree86&#45;1.1(4)</title>
<ellipse fill="springgreen" stroke="springgreen" cx="914" cy="-45.21" rx="115.93" ry="21.43"/>
<text text-anchor="middle" x="914" y="-40.21" font-family="Times-Roman" font-size="20.00">XFree86&#45;1.1(4)</text>
</g>
<!-- scancode://xfree86&#45;1.1(4) -->
<g id="node8" class="node">
<title>scancode://xfree86&#45;1.1(4)</title>
<ellipse fill="white" stroke="white" cx="653" cy="-45.21" rx="127.28" ry="18"/>
<text text-anchor="middle" x="653" y="-41.51" font-family="Times-Roman" font-size="14.00">scancode://xfree86&#45;1.1(4)</text>
</g>
<!-- XFree86 1.1 License(5) -->
<g id="node9" class="node">
<title>XFree86 1.1 License(5)</title>
<ellipse fill="white" stroke="white" cx="388" cy="-45.21" rx="114.28" ry="18"/>
<text text-anchor="middle" x="388" y="-41.51" font-family="Times-Roman" font-size="14.00">XFree86 1.1 License(5)</text>
</g>
<!-- XFree86&#45;1.1(5) -->
<g id="node10" class="node">
<title>XFree86&#45;1.1(5)</title>
<ellipse fill="springgreen" stroke="springgreen" cx="140" cy="-45.21" rx="115.93" ry="21.43"/>
<text text-anchor="middle" x="140" y="-40.21" font-family="Times-Roman" font-size="20.00">XFree86&#45;1.1(5)</text>
</g>
</g>
</svg>
