<?xml version="1.0" encoding="UTF-8" standalone="no"?>
<!DOCTYPE svg PUBLIC "-//W3C//DTD SVG 1.1//EN"
 "http://www.w3.org/Graphics/SVG/1.1/DTD/svg11.dtd">
<!-- Generated by graphviz version 2.43.0 (0)
 -->
<!-- Title: XFree86&#45;1.1 Pages: 1 -->
<svg width="892pt" height="115pt"
 viewBox="0.00 0.00 892.00 115.00" xmlns="http://www.w3.org/2000/svg" xmlns:xlink="http://www.w3.org/1999/xlink">
<g id="graph0" class="graph" transform="scale(1 1) rotate(0) translate(4 111)">
<title>XFree86&#45;1.1</title>
<polygon fill="white" stroke="transparent" points="-4,4 -4,-111 888,-111 888,4 -4,4"/>
<g id="clust1" class="cluster">
<title>cluster_0</title>
<polygon fill="none" stroke="black" points="8,-8 8,-99 876,-99 876,-8 8,-8"/>
</g>
<g id="clust2" class="cluster">
<title>cluster_1</title>
<polygon fill="lightgray" stroke="lightgray" points="720,-16 720,-91 868,-91 868,-16 720,-16"/>
<text text-anchor="middle" x="794" y="-75.8" font-family="Times-Roman" font-size="14.00">process #1</text>
</g>
<g id="clust3" class="cluster">
<title>cluster_2</title>
<polygon fill="lightgray" stroke="lightgray" points="494,-16 494,-91 712,-91 712,-16 494,-16"/>
<text text-anchor="middle" x="603" y="-75.8" font-family="Times-Roman" font-size="14.00">process #1</text>
</g>
<g id="clust5" class="cluster">
<title>cluster_4</title>
<polygon fill="lightgray" stroke="lightgray" points="242,-16 242,-91 486,-91 486,-16 242,-16"/>
<text text-anchor="middle" x="364" y="-75.8" font-family="Times-Roman" font-size="14.00">process #1</text>
</g>
<g id="clust6" class="cluster">
<title>cluster_5</title>
<polygon fill="lightgray" stroke="lightgray" points="16,-16 16,-91 234,-91 234,-16 16,-16"/>
<text text-anchor="middle" x="125" y="-75.8" font-family="Times-Roman" font-size="14.00">process #1</text>
</g>
<!-- XFree86&#45;1.1 -->
<g id="node1" class="node">
<title>XFree86&#45;1.1</title>
<ellipse fill="white" stroke="white" cx="794" cy="-42" rx="65.79" ry="18"/>
<text text-anchor="middle" x="794" y="-38.3" font-family="Times-Roman" font-size="14.00">XFree86&#45;1.1</text>
</g>
<!-- XFree86 License 1.1 -->
<g id="node2" class="node">
<title>XFree86 License 1.1</title>
<ellipse fill="white" stroke="white" cx="603" cy="-42" rx="101.28" ry="18"/>
<text text-anchor="middle" x="603" y="-38.3" font-family="Times-Roman" font-size="14.00">XFree86 License 1.1</text>
</g>
<!-- scancode://xfree86&#45;1.1 -->
<g id="node3" class="node">
<title>scancode://xfree86&#45;1.1</title>
<ellipse fill="white" stroke="white" cx="364" cy="-42" rx="114.28" ry="18"/>
<text text-anchor="middle" x="364" y="-38.3" font-family="Times-Roman" font-size="14.00">scancode://xfree86&#45;1.1</text>
</g>
<!-- XFree86 1.1 License -->
<g id="node4" class="node">
<title>XFree86 1.1 License</title>
<ellipse fill="white" stroke="white" cx="125" cy="-42" rx="101.28" ry="18"/>
<text text-anchor="middle" x="125" y="-38.3" font-family="Times-Roman" font-size="14.00">XFree86 1.1 License</text>
</g>
</g>
</svg>
