<?xml version="1.0" encoding="UTF-8" standalone="no"?>
<!DOCTYPE svg PUBLIC "-//W3C//DTD SVG 1.1//EN"
 "http://www.w3.org/Graphics/SVG/1.1/DTD/svg11.dtd">
<!-- Generated by graphviz version 2.43.0 (0)
 -->
<!-- Title: Xnet Pages: 1 -->
<svg width="2605pt" height="98pt"
 viewBox="0.00 0.00 2605.00 98.43" xmlns="http://www.w3.org/2000/svg" xmlns:xlink="http://www.w3.org/1999/xlink">
<g id="graph0" class="graph" transform="scale(1 1) rotate(0) translate(4 94.43)">
<title>Xnet</title>
<polygon fill="white" stroke="transparent" points="-4,4 -4,-94.43 2601,-94.43 2601,4 -4,4"/>
<g id="clust1" class="cluster">
<title>cluster_0</title>
<polygon fill="none" stroke="black" points="8,-8 8,-82.43 2589,-82.43 2589,-8 8,-8"/>
</g>
<g id="clust2" class="cluster">
<title>cluster_1</title>
<polygon fill="lightgray" stroke="lightgray" points="2437,-16 2437,-74.43 2581,-74.43 2581,-16 2437,-16"/>
</g>
<g id="clust3" class="cluster">
<title>cluster_2</title>
<polygon fill="lightgray" stroke="lightgray" points="2097,-16 2097,-74.43 2429,-74.43 2429,-16 2097,-16"/>
</g>
<g id="clust4" class="cluster">
<title>cluster_3</title>
<polygon fill="lightgray" stroke="lightgray" points="1757,-16 1757,-74.43 2089,-74.43 2089,-16 1757,-16"/>
</g>
<g id="clust5" class="cluster">
<title>cluster_4</title>
<polygon fill="lightgray" stroke="lightgray" points="1205,-16 1205,-74.43 1749,-74.43 1749,-16 1205,-16"/>
</g>
<g id="clust6" class="cluster">
<title>cluster_5</title>
<polygon fill="lightgray" stroke="lightgray" points="356,-16 356,-74.43 1197,-74.43 1197,-16 356,-16"/>
</g>
<g id="clust7" class="cluster">
<title>cluster_6</title>
<polygon fill="lightgray" stroke="lightgray" points="16,-16 16,-74.43 348,-74.43 348,-16 16,-16"/>
</g>
<!-- Xnet(1) -->
<g id="node1" class="node">
<title>Xnet(1)</title>
<ellipse fill="springgreen" stroke="springgreen" cx="2509" cy="-45.21" rx="63.78" ry="21.43"/>
<text text-anchor="middle" x="2509" y="-40.21" font-family="Times-Roman" font-size="20.00">Xnet(1)</text>
</g>
<!-- X.Net License(2) -->
<g id="node2" class="node">
<title>X.Net License(2)</title>
<ellipse fill="white" stroke="white" cx="2336" cy="-45.21" rx="85.29" ry="18"/>
<text text-anchor="middle" x="2336" y="-41.51" font-family="Times-Roman" font-size="14.00">X.Net License(2)</text>
</g>
<!-- Xnet(2) -->
<g id="node3" class="node">
<title>Xnet(2)</title>
<ellipse fill="springgreen" stroke="springgreen" cx="2169" cy="-45.21" rx="63.78" ry="21.43"/>
<text text-anchor="middle" x="2169" y="-40.21" font-family="Times-Roman" font-size="20.00">Xnet(2)</text>
</g>
<!-- X.Net License(3) -->
<g id="node4" class="node">
<title>X.Net License(3)</title>
<ellipse fill="white" stroke="white" cx="1996" cy="-45.21" rx="85.29" ry="18"/>
<text text-anchor="middle" x="1996" y="-41.51" font-family="Times-Roman" font-size="14.00">X.Net License(3)</text>
</g>
<!-- Xnet(3) -->
<g id="node5" class="node">
<title>Xnet(3)</title>
<ellipse fill="springgreen" stroke="springgreen" cx="1829" cy="-45.21" rx="63.78" ry="21.43"/>
<text text-anchor="middle" x="1829" y="-40.21" font-family="Times-Roman" font-size="20.00">Xnet(3)</text>
</g>
<!-- Altera License(4) -->
<g id="node6" class="node">
<title>Altera License(4)</title>
<ellipse fill="white" stroke="white" cx="1654" cy="-45.21" rx="87.18" ry="18"/>
<text text-anchor="middle" x="1654" y="-41.51" font-family="Times-Roman" font-size="14.00">Altera License(4)</text>
</g>
<!-- Xnet(4) -->
<g id="node7" class="node">
<title>Xnet(4)</title>
<ellipse fill="springgreen" stroke="springgreen" cx="1485" cy="-45.21" rx="63.78" ry="21.43"/>
<text text-anchor="middle" x="1485" y="-40.21" font-family="Times-Roman" font-size="20.00">Xnet(4)</text>
</g>
<!-- scancode://xnet(4) -->
<g id="node8" class="node">
<title>scancode://xnet(4)</title>
<ellipse fill="white" stroke="white" cx="1308" cy="-45.21" rx="94.78" ry="18"/>
<text text-anchor="middle" x="1308" y="-41.51" font-family="Times-Roman" font-size="14.00">scancode://xnet(4)</text>
</g>
<!-- License :: OSI Approved :: X.Net License(5) -->
<g id="node9" class="node">
<title>License :: OSI Approved :: X.Net License(5)</title>
<ellipse fill="white" stroke="white" cx="985" cy="-45.21" rx="204.16" ry="18"/>
<text text-anchor="middle" x="985" y="-41.51" font-family="Times-Roman" font-size="14.00">License :: OSI Approved :: X.Net License(5)</text>
</g>
<!-- The X.Net, Inc. License(5) -->
<g id="node10" class="node">
<title>The X.Net, Inc. License(5)</title>
<ellipse fill="white" stroke="white" cx="636" cy="-45.21" rx="126.98" ry="18"/>
<text text-anchor="middle" x="636" y="-41.51" font-family="Times-Roman" font-size="14.00">The X.Net, Inc. License(5)</text>
</g>
<!-- Xnet(5) -->
<g id="node11" class="node">
<title>Xnet(5)</title>
<ellipse fill="springgreen" stroke="springgreen" cx="428" cy="-45.21" rx="63.78" ry="21.43"/>
<text text-anchor="middle" x="428" y="-40.21" font-family="Times-Roman" font-size="20.00">Xnet(5)</text>
</g>
<!-- X.Net License(6) -->
<g id="node12" class="node">
<title>X.Net License(6)</title>
<ellipse fill="white" stroke="white" cx="255" cy="-45.21" rx="85.29" ry="18"/>
<text text-anchor="middle" x="255" y="-41.51" font-family="Times-Roman" font-size="14.00">X.Net License(6)</text>
</g>
<!-- Xnet(6) -->
<g id="node13" class="node">
<title>Xnet(6)</title>
<ellipse fill="springgreen" stroke="springgreen" cx="88" cy="-45.21" rx="63.78" ry="21.43"/>
<text text-anchor="middle" x="88" y="-40.21" font-family="Times-Roman" font-size="20.00">Xnet(6)</text>
</g>
</g>
</svg>
