<?xml version="1.0" encoding="UTF-8" standalone="no"?>
<!DOCTYPE svg PUBLIC "-//W3C//DTD SVG 1.1//EN"
 "http://www.w3.org/Graphics/SVG/1.1/DTD/svg11.dtd">
<!-- Generated by graphviz version 2.43.0 (0)
 -->
<!-- Title: xpp Pages: 1 -->
<svg width="910pt" height="98pt"
 viewBox="0.00 0.00 910.00 98.43" xmlns="http://www.w3.org/2000/svg" xmlns:xlink="http://www.w3.org/1999/xlink">
<g id="graph0" class="graph" transform="scale(1 1) rotate(0) translate(4 94.43)">
<title>xpp</title>
<polygon fill="white" stroke="transparent" points="-4,4 -4,-94.43 906,-94.43 906,4 -4,4"/>
<g id="clust1" class="cluster">
<title>cluster_0</title>
<polygon fill="none" stroke="black" points="8,-8 8,-82.43 894,-82.43 894,-8 8,-8"/>
</g>
<g id="clust2" class="cluster">
<title>cluster_1</title>
<polygon fill="lightgray" stroke="lightgray" points="794,-16 794,-74.43 886,-74.43 886,-16 794,-16"/>
</g>
<g id="clust3" class="cluster">
<title>cluster_2</title>
<polygon fill="lightgray" stroke="lightgray" points="642,-19.21 642,-71.21 786,-71.21 786,-19.21 642,-19.21"/>
</g>
<g id="clust5" class="cluster">
<title>cluster_4</title>
<polygon fill="lightgray" stroke="lightgray" points="16,-19.21 16,-71.21 634,-71.21 634,-19.21 16,-19.21"/>
</g>
<!-- xpp -->
<g id="node1" class="node">
<title>xpp</title>
<ellipse fill="lightseagreen" stroke="lightseagreen" cx="840" cy="-45.21" rx="38.37" ry="21.43"/>
<text text-anchor="middle" x="840" y="-40.21" font-family="Times-Roman" font-size="20.00">xpp</text>
</g>
<!-- XPP License -->
<g id="node2" class="node">
<title>XPP License</title>
<ellipse fill="white" stroke="white" cx="714" cy="-45.21" rx="64.19" ry="18"/>
<text text-anchor="middle" x="714" y="-41.51" font-family="Times-Roman" font-size="14.00">XPP License</text>
</g>
<!-- Indiana Extreme License 1.2 -->
<g id="node3" class="node">
<title>Indiana Extreme License 1.2</title>
<ellipse fill="white" stroke="white" cx="487" cy="-45.21" rx="139.18" ry="18"/>
<text text-anchor="middle" x="487" y="-41.51" font-family="Times-Roman" font-size="14.00">Indiana Extreme License 1.2</text>
</g>
<!-- scancode://indiana&#45;extreme&#45;1.2 -->
<g id="node4" class="node">
<title>scancode://indiana&#45;extreme&#45;1.2</title>
<ellipse fill="white" stroke="white" cx="177" cy="-45.21" rx="153.27" ry="18"/>
<text text-anchor="middle" x="177" y="-41.51" font-family="Times-Roman" font-size="14.00">scancode://indiana&#45;extreme&#45;1.2</text>
</g>
</g>
</svg>
