<?xml version="1.0" encoding="UTF-8" standalone="no"?>
<!DOCTYPE svg PUBLIC "-//W3C//DTD SVG 1.1//EN"
 "http://www.w3.org/Graphics/SVG/1.1/DTD/svg11.dtd">
<!-- Generated by graphviz version 2.43.0 (0)
 -->
<!-- Title: xpp Pages: 1 -->
<svg width="890pt" height="92pt"
 viewBox="0.00 0.00 890.00 92.00" xmlns="http://www.w3.org/2000/svg" xmlns:xlink="http://www.w3.org/1999/xlink">
<g id="graph0" class="graph" transform="scale(1 1) rotate(0) translate(4 88)">
<title>xpp</title>
<polygon fill="white" stroke="transparent" points="-4,4 -4,-88 886,-88 886,4 -4,4"/>
<g id="clust1" class="cluster">
<title>cluster_0</title>
<polygon fill="none" stroke="black" points="8,-8 8,-76 874,-76 874,-8 8,-8"/>
</g>
<g id="clust2" class="cluster">
<title>cluster_1</title>
<polygon fill="lightgray" stroke="lightgray" points="794,-16 794,-68 866,-68 866,-16 794,-16"/>
</g>
<g id="clust3" class="cluster">
<title>cluster_2</title>
<polygon fill="lightgray" stroke="lightgray" points="642,-16 642,-68 786,-68 786,-16 642,-16"/>
</g>
<g id="clust5" class="cluster">
<title>cluster_4</title>
<polygon fill="lightgray" stroke="lightgray" points="16,-16 16,-68 634,-68 634,-16 16,-16"/>
</g>
<!-- xpp -->
<g id="node1" class="node">
<title>xpp</title>
<ellipse fill="white" stroke="white" cx="830" cy="-42" rx="27.9" ry="18"/>
<text text-anchor="middle" x="830" y="-38.3" font-family="Times-Roman" font-size="14.00">xpp</text>
</g>
<!-- XPP License -->
<g id="node2" class="node">
<title>XPP License</title>
<ellipse fill="white" stroke="white" cx="714" cy="-42" rx="64.19" ry="18"/>
<text text-anchor="middle" x="714" y="-38.3" font-family="Times-Roman" font-size="14.00">XPP License</text>
</g>
<!-- Indiana Extreme License 1.2 -->
<g id="node3" class="node">
<title>Indiana Extreme License 1.2</title>
<ellipse fill="white" stroke="white" cx="487" cy="-42" rx="139.18" ry="18"/>
<text text-anchor="middle" x="487" y="-38.3" font-family="Times-Roman" font-size="14.00">Indiana Extreme License 1.2</text>
</g>
<!-- scancode://indiana&#45;extreme&#45;1.2 -->
<g id="node4" class="node">
<title>scancode://indiana&#45;extreme&#45;1.2</title>
<ellipse fill="white" stroke="white" cx="177" cy="-42" rx="153.27" ry="18"/>
<text text-anchor="middle" x="177" y="-38.3" font-family="Times-Roman" font-size="14.00">scancode://indiana&#45;extreme&#45;1.2</text>
</g>
</g>
</svg>
