<?xml version="1.0" encoding="UTF-8" standalone="no"?>
<!DOCTYPE svg PUBLIC "-//W3C//DTD SVG 1.1//EN"
 "http://www.w3.org/Graphics/SVG/1.1/DTD/svg11.dtd">
<!-- Generated by graphviz version 2.43.0 (0)
 -->
<!-- Title: YPL&#45;1.1 Pages: 1 -->
<svg width="316pt" height="206pt"
 viewBox="0.00 0.00 315.98 206.00" xmlns="http://www.w3.org/2000/svg" xmlns:xlink="http://www.w3.org/1999/xlink">
<g id="graph0" class="graph" transform="scale(1 1) rotate(0) translate(4 202)">
<title>YPL&#45;1.1</title>
<polygon fill="white" stroke="transparent" points="-4,4 -4,-202 311.98,-202 311.98,4 -4,4"/>
<g id="clust1" class="cluster">
<title>cluster_0</title>
<polygon fill="none" stroke="black" points="8,-8 8,-190 299.98,-190 299.98,-8 8,-8"/>
</g>
<g id="clust2" class="cluster">
<title>cluster_1</title>
<polygon fill="lightgray" stroke="lightgray" points="101.79,-130 101.79,-182 206.18,-182 206.18,-130 101.79,-130"/>
</g>
<g id="clust3" class="cluster">
<title>cluster_2</title>
<polygon fill="lightgray" stroke="lightgray" points="16,-16 16,-122 291.98,-122 291.98,-16 16,-16"/>
</g>
<!-- YPL&#45;1.1(1) -->
<g id="node1" class="node">
<title>YPL&#45;1.1(1)</title>
<ellipse fill="springgreen" stroke="springgreen" cx="153.99" cy="-156" rx="44.39" ry="18"/>
<text text-anchor="middle" x="153.99" y="-152.3" font-family="Times-Roman" font-size="14.00">YPL&#45;1.1</text>
</g>
<!-- YPL&#45;1.1(2) -->
<g id="node2" class="node">
<title>YPL&#45;1.1(2)</title>
<ellipse fill="springgreen" stroke="springgreen" cx="153.99" cy="-96" rx="44.39" ry="18"/>
<text text-anchor="middle" x="153.99" y="-92.3" font-family="Times-Roman" font-size="14.00">YPL&#45;1.1</text>
</g>
<!-- Yahoo! Public License v1.1(2) -->
<g id="node3" class="node">
<title>Yahoo! Public License v1.1(2)</title>
<ellipse fill="white" stroke="white" cx="153.99" cy="-42" rx="129.98" ry="18"/>
<text text-anchor="middle" x="153.99" y="-38.3" font-family="Times-Roman" font-size="14.00">Yahoo! Public License v1.1</text>
</g>
</g>
</svg>
