<?xml version="1.0" encoding="UTF-8" standalone="no"?>
<!DOCTYPE svg PUBLIC "-//W3C//DTD SVG 1.1//EN"
 "http://www.w3.org/Graphics/SVG/1.1/DTD/svg11.dtd">
<!-- Generated by graphviz version 2.43.0 (0)
 -->
<!-- Title: Zed Pages: 1 -->
<svg width="468pt" height="98pt"
 viewBox="0.00 0.00 468.00 98.43" xmlns="http://www.w3.org/2000/svg" xmlns:xlink="http://www.w3.org/1999/xlink">
<g id="graph0" class="graph" transform="scale(1 1) rotate(0) translate(4 94.43)">
<title>Zed</title>
<polygon fill="white" stroke="transparent" points="-4,4 -4,-94.43 464,-94.43 464,4 -4,4"/>
<g id="clust1" class="cluster">
<title>cluster_0</title>
<polygon fill="none" stroke="black" points="8,-8 8,-82.43 452,-82.43 452,-8 8,-8"/>
</g>
<g id="clust2" class="cluster">
<title>cluster_1</title>
<polygon fill="lightgray" stroke="lightgray" points="350,-16 350,-74.43 444,-74.43 444,-16 350,-16"/>
</g>
<g id="clust3" class="cluster">
<title>cluster_2</title>
<polygon fill="lightgray" stroke="lightgray" points="196,-19.21 196,-71.21 342,-71.21 342,-19.21 196,-19.21"/>
</g>
<g id="clust5" class="cluster">
<title>cluster_4</title>
<polygon fill="lightgray" stroke="lightgray" points="16,-19.21 16,-71.21 188,-71.21 188,-19.21 16,-19.21"/>
</g>
<!-- Zed -->
<g id="node1" class="node">
<title>Zed</title>
<ellipse fill="darkgreen" stroke="darkgreen" cx="397" cy="-45.21" rx="38.78" ry="21.43"/>
<text text-anchor="middle" x="397" y="-40.21" font-family="Times-Roman" font-size="20.00">Zed</text>
</g>
<!-- Zed License -->
<g id="node2" class="node">
<title>Zed License</title>
<ellipse fill="white" stroke="white" cx="269" cy="-45.21" rx="64.99" ry="18"/>
<text text-anchor="middle" x="269" y="-41.51" font-family="Times-Roman" font-size="14.00">Zed License</text>
</g>
<!-- scancode://zed -->
<g id="node3" class="node">
<title>scancode://zed</title>
<ellipse fill="white" stroke="white" cx="102" cy="-45.21" rx="77.99" ry="18"/>
<text text-anchor="middle" x="102" y="-41.51" font-family="Times-Roman" font-size="14.00">scancode://zed</text>
</g>
</g>
</svg>
