<?xml version="1.0" encoding="UTF-8" standalone="no"?>
<!DOCTYPE svg PUBLIC "-//W3C//DTD SVG 1.1//EN"
 "http://www.w3.org/Graphics/SVG/1.1/DTD/svg11.dtd">
<!-- Generated by graphviz version 2.49.3 (0)
 -->
<!-- Title: Zlib Pages: 1 -->
<svg width="426pt" height="1470pt"
 viewBox="0.00 0.00 425.57 1470.00" xmlns="http://www.w3.org/2000/svg" xmlns:xlink="http://www.w3.org/1999/xlink">
<g id="graph0" class="graph" transform="scale(1 1) rotate(0) translate(4 1466)">
<title>Zlib</title>
<polygon fill="white" stroke="transparent" points="-4,4 -4,-1466 421.57,-1466 421.57,4 -4,4"/>
<g id="clust1" class="cluster">
<title>cluster_0</title>
<polygon fill="none" stroke="black" points="8,-8 8,-1454 409.57,-1454 409.57,-8 8,-8"/>
</g>
<g id="clust2" class="cluster">
<title>cluster_1</title>
<polygon fill="none" stroke="black" points="16,-76 16,-1446 401.57,-1446 401.57,-76 16,-76"/>
</g>
<g id="clust3" class="cluster">
<title>cluster_2</title>
<polygon fill="lightgray" stroke="lightgray" points="173.78,-1386 173.78,-1438 243.78,-1438 243.78,-1386 173.78,-1386"/>
</g>
<g id="clust4" class="cluster">
<title>cluster_3</title>
<polygon fill="lightgray" stroke="lightgray" points="152.04,-1272 152.04,-1378 265.53,-1378 265.53,-1272 152.04,-1272"/>
</g>
<g id="clust5" class="cluster">
<title>cluster_4</title>
<polygon fill="lightgray" stroke="lightgray" points="146.84,-1158 146.84,-1264 270.73,-1264 270.73,-1158 146.84,-1158"/>
</g>
<g id="clust6" class="cluster">
<title>cluster_5</title>
<polygon fill="lightgray" stroke="lightgray" points="173.78,-1044 173.78,-1150 243.78,-1150 243.78,-1044 173.78,-1044"/>
</g>
<g id="clust7" class="cluster">
<title>cluster_6</title>
<polygon fill="lightgray" stroke="lightgray" points="146.84,-930 146.84,-1036 270.73,-1036 270.73,-930 146.84,-930"/>
</g>
<g id="clust8" class="cluster">
<title>cluster_7</title>
<polygon fill="lightgray" stroke="lightgray" points="125.39,-762 125.39,-922 292.18,-922 292.18,-762 125.39,-762"/>
</g>
<g id="clust9" class="cluster">
<title>cluster_8</title>
<polygon fill="lightgray" stroke="lightgray" points="24,-594 24,-754 393.57,-754 393.57,-594 24,-594"/>
</g>
<g id="clust10" class="cluster">
<title>cluster_9</title>
<polygon fill="lightgray" stroke="lightgray" points="146.84,-480 146.84,-586 270.73,-586 270.73,-480 146.84,-480"/>
</g>
<g id="clust11" class="cluster">
<title>cluster_10</title>
<polygon fill="lightgray" stroke="lightgray" points="146.84,-366 146.84,-472 270.73,-472 270.73,-366 146.84,-366"/>
</g>
<g id="clust12" class="cluster">
<title>cluster_11</title>
<polygon fill="lightgray" stroke="lightgray" points="137.09,-198 137.09,-358 280.48,-358 280.48,-198 137.09,-198"/>
</g>
<g id="clust13" class="cluster">
<title>cluster_12</title>
<polygon fill="lightgray" stroke="lightgray" points="125.39,-84 125.39,-190 292.18,-190 292.18,-84 125.39,-84"/>
</g>
<g id="clust14" class="cluster">
<title>cluster_13</title>
<polygon fill="lightgray" stroke="lightgray" points="122.14,-16 122.14,-68 295.43,-68 295.43,-16 122.14,-16"/>
</g>
<!-- Zlib(2) -->
<g id="node1" class="node">
<title>Zlib(2)</title>
<ellipse fill="springgreen" stroke="springgreen" cx="208.78" cy="-1412" rx="27" ry="18"/>
<text text-anchor="middle" x="208.78" y="-1408.3" font-family="Times,serif" font-size="14.00">Zlib</text>
</g>
<!-- Zlib(3) -->
<g id="node2" class="node">
<title>Zlib(3)</title>
<ellipse fill="springgreen" stroke="springgreen" cx="208.78" cy="-1352" rx="27" ry="18"/>
<text text-anchor="middle" x="208.78" y="-1348.3" font-family="Times,serif" font-size="14.00">Zlib</text>
</g>
<!-- zlib/libpng(3) -->
<g id="node3" class="node">
<title>zlib/libpng(3)</title>
<ellipse fill="white" stroke="white" cx="208.78" cy="-1298" rx="48.99" ry="18"/>
<text text-anchor="middle" x="208.78" y="-1294.3" font-family="Times,serif" font-size="14.00">zlib/libpng</text>
</g>
<!-- Zlib(4) -->
<g id="node4" class="node">
<title>Zlib(4)</title>
<ellipse fill="springgreen" stroke="springgreen" cx="208.78" cy="-1238" rx="27" ry="18"/>
<text text-anchor="middle" x="208.78" y="-1234.3" font-family="Times,serif" font-size="14.00">Zlib</text>
</g>
<!-- zlib License(4) -->
<g id="node5" class="node">
<title>zlib License(4)</title>
<ellipse fill="white" stroke="white" cx="208.78" cy="-1184" rx="53.89" ry="18"/>
<text text-anchor="middle" x="208.78" y="-1180.3" font-family="Times,serif" font-size="14.00">zlib License</text>
</g>
<!-- Zlib(5) -->
<g id="node6" class="node">
<title>Zlib(5)</title>
<ellipse fill="springgreen" stroke="springgreen" cx="208.78" cy="-1124" rx="27" ry="18"/>
<text text-anchor="middle" x="208.78" y="-1120.3" font-family="Times,serif" font-size="14.00">Zlib</text>
</g>
<!-- zlib(5) -->
<g id="node7" class="node">
<title>zlib(5)</title>
<ellipse fill="white" stroke="white" cx="208.78" cy="-1070" rx="27" ry="18"/>
<text text-anchor="middle" x="208.78" y="-1066.3" font-family="Times,serif" font-size="14.00">zlib</text>
</g>
<!-- Zlib(6) -->
<g id="node8" class="node">
<title>Zlib(6)</title>
<ellipse fill="springgreen" stroke="springgreen" cx="208.78" cy="-1010" rx="27" ry="18"/>
<text text-anchor="middle" x="208.78" y="-1006.3" font-family="Times,serif" font-size="14.00">Zlib</text>
</g>
<!-- zlib License(6) -->
<g id="node9" class="node">
<title>zlib License(6)</title>
<ellipse fill="white" stroke="white" cx="208.78" cy="-956" rx="53.89" ry="18"/>
<text text-anchor="middle" x="208.78" y="-952.3" font-family="Times,serif" font-size="14.00">zlib License</text>
</g>
<!-- Zlib(7) -->
<g id="node10" class="node">
<title>Zlib(7)</title>
<ellipse fill="springgreen" stroke="springgreen" cx="208.78" cy="-896" rx="27" ry="18"/>
<text text-anchor="middle" x="208.78" y="-892.3" font-family="Times,serif" font-size="14.00">Zlib</text>
</g>
<!-- zlib&#45;license(7) -->
<g id="node11" class="node">
<title>zlib&#45;license(7)</title>
<ellipse fill="white" stroke="white" cx="208.78" cy="-842" rx="51.19" ry="18"/>
<text text-anchor="middle" x="208.78" y="-838.3" font-family="Times,serif" font-size="14.00">zlib&#45;license</text>
</g>
<!-- zlib/libpng license(7) -->
<g id="node12" class="node">
<title>zlib/libpng license(7)</title>
<ellipse fill="white" stroke="white" cx="208.78" cy="-788" rx="75.29" ry="18"/>
<text text-anchor="middle" x="208.78" y="-784.3" font-family="Times,serif" font-size="14.00">zlib/libpng license</text>
</g>
<!-- License :: OSI Approved :: zlib/libpng License(8) -->
<g id="node13" class="node">
<title>License :: OSI Approved :: zlib/libpng License(8)</title>
<ellipse fill="white" stroke="white" cx="208.78" cy="-728" rx="176.57" ry="18"/>
<text text-anchor="middle" x="208.78" y="-724.3" font-family="Times,serif" font-size="14.00">License :: OSI Approved :: zlib/libpng License</text>
</g>
<!-- The zlib/libpng License (Zlib)(8) -->
<g id="node14" class="node">
<title>The zlib/libpng License (Zlib)(8)</title>
<ellipse fill="white" stroke="white" cx="208.78" cy="-674" rx="117.78" ry="18"/>
<text text-anchor="middle" x="208.78" y="-670.3" font-family="Times,serif" font-size="14.00">The zlib/libpng License (Zlib)</text>
</g>
<!-- Zlib(8) -->
<g id="node15" class="node">
<title>Zlib(8)</title>
<ellipse fill="springgreen" stroke="springgreen" cx="208.78" cy="-620" rx="27" ry="18"/>
<text text-anchor="middle" x="208.78" y="-616.3" font-family="Times,serif" font-size="14.00">Zlib</text>
</g>
<!-- Zlib(9) -->
<g id="node16" class="node">
<title>Zlib(9)</title>
<ellipse fill="springgreen" stroke="springgreen" cx="208.78" cy="-560" rx="27" ry="18"/>
<text text-anchor="middle" x="208.78" y="-556.3" font-family="Times,serif" font-size="14.00">Zlib</text>
</g>
<!-- zlib License(9) -->
<g id="node17" class="node">
<title>zlib License(9)</title>
<ellipse fill="white" stroke="white" cx="208.78" cy="-506" rx="53.89" ry="18"/>
<text text-anchor="middle" x="208.78" y="-502.3" font-family="Times,serif" font-size="14.00">zlib License</text>
</g>
<!-- Zlib(10) -->
<g id="node18" class="node">
<title>Zlib(10)</title>
<ellipse fill="springgreen" stroke="springgreen" cx="208.78" cy="-446" rx="27" ry="18"/>
<text text-anchor="middle" x="208.78" y="-442.3" font-family="Times,serif" font-size="14.00">Zlib</text>
</g>
<!-- zlib License(10) -->
<g id="node19" class="node">
<title>zlib License(10)</title>
<ellipse fill="white" stroke="white" cx="208.78" cy="-392" rx="53.89" ry="18"/>
<text text-anchor="middle" x="208.78" y="-388.3" font-family="Times,serif" font-size="14.00">zlib License</text>
</g>
<!-- ZLIB License(11) -->
<g id="node20" class="node">
<title>ZLIB License(11)</title>
<ellipse fill="white" stroke="white" cx="208.78" cy="-332" rx="59.59" ry="18"/>
<text text-anchor="middle" x="208.78" y="-328.3" font-family="Times,serif" font-size="14.00">ZLIB License</text>
</g>
<!-- Zlib(11) -->
<g id="node21" class="node">
<title>Zlib(11)</title>
<ellipse fill="springgreen" stroke="springgreen" cx="208.78" cy="-278" rx="27" ry="18"/>
<text text-anchor="middle" x="208.78" y="-274.3" font-family="Times,serif" font-size="14.00">Zlib</text>
</g>
<!-- scancode://zlib(11) -->
<g id="node22" class="node">
<title>scancode://zlib(11)</title>
<ellipse fill="white" stroke="white" cx="208.78" cy="-224" rx="63.89" ry="18"/>
<text text-anchor="middle" x="208.78" y="-220.3" font-family="Times,serif" font-size="14.00">scancode://zlib</text>
</g>
<!-- Zlib(12) -->
<g id="node23" class="node">
<title>Zlib(12)</title>
<ellipse fill="springgreen" stroke="springgreen" cx="208.78" cy="-164" rx="27" ry="18"/>
<text text-anchor="middle" x="208.78" y="-160.3" font-family="Times,serif" font-size="14.00">Zlib</text>
</g>
<!-- zlib/libpng license(12) -->
<g id="node24" class="node">
<title>zlib/libpng license(12)</title>
<ellipse fill="white" stroke="white" cx="208.78" cy="-110" rx="75.29" ry="18"/>
<text text-anchor="middle" x="208.78" y="-106.3" font-family="Times,serif" font-size="14.00">zlib/libpng license</text>
</g>
<!-- zlib/libpng License(13) -->
<g id="node25" class="node">
<title>zlib/libpng License(13)</title>
<ellipse fill="white" stroke="white" cx="208.78" cy="-42" rx="78.79" ry="18"/>
<text text-anchor="middle" x="208.78" y="-38.3" font-family="Times,serif" font-size="14.00">zlib/libpng License</text>
</g>
</g>
</svg>
