<?xml version="1.0" encoding="UTF-8" standalone="no"?>
<!DOCTYPE svg PUBLIC "-//W3C//DTD SVG 1.1//EN"
 "http://www.w3.org/Graphics/SVG/1.1/DTD/svg11.dtd">
<!-- Generated by graphviz version 2.43.0 (0)
 -->
<!-- Title: Zlib Pages: 1 -->
<svg width="500pt" height="1356pt"
 viewBox="0.00 0.00 499.66 1356.00" xmlns="http://www.w3.org/2000/svg" xmlns:xlink="http://www.w3.org/1999/xlink">
<g id="graph0" class="graph" transform="scale(1 1) rotate(0) translate(4 1352)">
<title>Zlib</title>
<polygon fill="white" stroke="transparent" points="-4,4 -4,-1352 495.66,-1352 495.66,4 -4,4"/>
<g id="clust1" class="cluster">
<title>cluster_0</title>
<polygon fill="none" stroke="black" points="8,-8 8,-1340 483.66,-1340 483.66,-8 8,-8"/>
</g>
<g id="clust2" class="cluster">
<title>cluster_1</title>
<polygon fill="none" stroke="black" points="16,-76 16,-1332 475.66,-1332 475.66,-76 16,-76"/>
</g>
<g id="clust3" class="cluster">
<title>cluster_2</title>
<polygon fill="lightgray" stroke="lightgray" points="209.88,-1272 209.88,-1324 281.78,-1324 281.78,-1272 209.88,-1272"/>
</g>
<g id="clust4" class="cluster">
<title>cluster_3</title>
<polygon fill="lightgray" stroke="lightgray" points="179.99,-1158 179.99,-1264 311.68,-1264 311.68,-1158 179.99,-1158"/>
</g>
<g id="clust5" class="cluster">
<title>cluster_4</title>
<polygon fill="lightgray" stroke="lightgray" points="174.79,-1044 174.79,-1150 316.88,-1150 316.88,-1044 174.79,-1044"/>
</g>
<g id="clust6" class="cluster">
<title>cluster_5</title>
<polygon fill="lightgray" stroke="lightgray" points="174.79,-930 174.79,-1036 316.88,-1036 316.88,-930 174.79,-930"/>
</g>
<g id="clust7" class="cluster">
<title>cluster_6</title>
<polygon fill="lightgray" stroke="lightgray" points="160.49,-762 160.49,-922 331.17,-922 331.17,-762 160.49,-762"/>
</g>
<g id="clust8" class="cluster">
<title>cluster_7</title>
<polygon fill="lightgray" stroke="lightgray" points="209.88,-648 209.88,-754 281.78,-754 281.78,-648 209.88,-648"/>
</g>
<g id="clust9" class="cluster">
<title>cluster_8</title>
<polygon fill="lightgray" stroke="lightgray" points="24,-480 24,-640 467.66,-640 467.66,-480 24,-480"/>
</g>
<g id="clust10" class="cluster">
<title>cluster_9</title>
<polygon fill="lightgray" stroke="lightgray" points="174.79,-366 174.79,-472 316.88,-472 316.88,-366 174.79,-366"/>
</g>
<g id="clust11" class="cluster">
<title>cluster_10</title>
<polygon fill="lightgray" stroke="lightgray" points="146.19,-252 146.19,-358 345.47,-358 345.47,-252 146.19,-252"/>
</g>
<g id="clust12" class="cluster">
<title>cluster_11</title>
<polygon fill="lightgray" stroke="lightgray" points="146.19,-84 146.19,-244 345.47,-244 345.47,-84 146.19,-84"/>
</g>
<g id="clust13" class="cluster">
<title>cluster_12</title>
<polygon fill="lightgray" stroke="lightgray" points="143.59,-16 143.59,-68 348.07,-68 348.07,-16 143.59,-16"/>
</g>
<!-- Zlib(2) -->
<g id="node1" class="node">
<title>Zlib(2)</title>
<ellipse fill="springgreen" stroke="springgreen" cx="245.83" cy="-1298" rx="27.9" ry="18"/>
<text text-anchor="middle" x="245.83" y="-1294.3" font-family="Times-Roman" font-size="14.00">Zlib</text>
</g>
<!-- Zlib(3) -->
<g id="node2" class="node">
<title>Zlib(3)</title>
<ellipse fill="springgreen" stroke="springgreen" cx="245.83" cy="-1238" rx="27.9" ry="18"/>
<text text-anchor="middle" x="245.83" y="-1234.3" font-family="Times-Roman" font-size="14.00">Zlib</text>
</g>
<!-- zlib/libpng(3) -->
<g id="node3" class="node">
<title>zlib/libpng(3)</title>
<ellipse fill="white" stroke="white" cx="245.83" cy="-1184" rx="57.69" ry="18"/>
<text text-anchor="middle" x="245.83" y="-1180.3" font-family="Times-Roman" font-size="14.00">zlib/libpng</text>
</g>
<!-- Zlib(4) -->
<g id="node4" class="node">
<title>Zlib(4)</title>
<ellipse fill="springgreen" stroke="springgreen" cx="245.83" cy="-1124" rx="27.9" ry="18"/>
<text text-anchor="middle" x="245.83" y="-1120.3" font-family="Times-Roman" font-size="14.00">Zlib</text>
</g>
<!-- zlib License(4) -->
<g id="node5" class="node">
<title>zlib License(4)</title>
<ellipse fill="white" stroke="white" cx="245.83" cy="-1070" rx="63.09" ry="18"/>
<text text-anchor="middle" x="245.83" y="-1066.3" font-family="Times-Roman" font-size="14.00">zlib License</text>
</g>
<!-- Zlib(5) -->
<g id="node6" class="node">
<title>Zlib(5)</title>
<ellipse fill="springgreen" stroke="springgreen" cx="245.83" cy="-1010" rx="27.9" ry="18"/>
<text text-anchor="middle" x="245.83" y="-1006.3" font-family="Times-Roman" font-size="14.00">Zlib</text>
</g>
<!-- zlib License(5) -->
<g id="node7" class="node">
<title>zlib License(5)</title>
<ellipse fill="white" stroke="white" cx="245.83" cy="-956" rx="63.09" ry="18"/>
<text text-anchor="middle" x="245.83" y="-952.3" font-family="Times-Roman" font-size="14.00">zlib License</text>
</g>
<!-- ZLIB License(6) -->
<g id="node8" class="node">
<title>ZLIB License(6)</title>
<ellipse fill="white" stroke="white" cx="245.83" cy="-896" rx="67.69" ry="18"/>
<text text-anchor="middle" x="245.83" y="-892.3" font-family="Times-Roman" font-size="14.00">ZLIB License</text>
</g>
<!-- Zlib(6) -->
<g id="node9" class="node">
<title>Zlib(6)</title>
<ellipse fill="springgreen" stroke="springgreen" cx="245.83" cy="-842" rx="27.9" ry="18"/>
<text text-anchor="middle" x="245.83" y="-838.3" font-family="Times-Roman" font-size="14.00">Zlib</text>
</g>
<!-- scancode://zlib(6) -->
<g id="node10" class="node">
<title>scancode://zlib(6)</title>
<ellipse fill="white" stroke="white" cx="245.83" cy="-788" rx="77.19" ry="18"/>
<text text-anchor="middle" x="245.83" y="-784.3" font-family="Times-Roman" font-size="14.00">scancode://zlib</text>
</g>
<!-- Zlib(7) -->
<g id="node11" class="node">
<title>Zlib(7)</title>
<ellipse fill="springgreen" stroke="springgreen" cx="245.83" cy="-728" rx="27.9" ry="18"/>
<text text-anchor="middle" x="245.83" y="-724.3" font-family="Times-Roman" font-size="14.00">Zlib</text>
</g>
<!-- zlib(7) -->
<g id="node12" class="node">
<title>zlib(7)</title>
<ellipse fill="white" stroke="white" cx="245.83" cy="-674" rx="27" ry="18"/>
<text text-anchor="middle" x="245.83" y="-670.3" font-family="Times-Roman" font-size="14.00">zlib</text>
</g>
<!-- License :: OSI Approved :: zlib/libpng License(8) -->
<g id="node13" class="node">
<title>License :: OSI Approved :: zlib/libpng License(8)</title>
<ellipse fill="white" stroke="white" cx="245.83" cy="-614" rx="213.66" ry="18"/>
<text text-anchor="middle" x="245.83" y="-610.3" font-family="Times-Roman" font-size="14.00">License :: OSI Approved :: zlib/libpng License</text>
</g>
<!-- The zlib/libpng License (Zlib)(8) -->
<g id="node14" class="node">
<title>The zlib/libpng License (Zlib)(8)</title>
<ellipse fill="white" stroke="white" cx="245.83" cy="-560" rx="140.28" ry="18"/>
<text text-anchor="middle" x="245.83" y="-556.3" font-family="Times-Roman" font-size="14.00">The zlib/libpng License (Zlib)</text>
</g>
<!-- Zlib(8) -->
<g id="node15" class="node">
<title>Zlib(8)</title>
<ellipse fill="springgreen" stroke="springgreen" cx="245.83" cy="-506" rx="27.9" ry="18"/>
<text text-anchor="middle" x="245.83" y="-502.3" font-family="Times-Roman" font-size="14.00">Zlib</text>
</g>
<!-- zlib(9) -->
<g id="node16" class="node">
<title>zlib(9)</title>
<ellipse fill="white" stroke="white" cx="245.83" cy="-446" rx="27" ry="18"/>
<text text-anchor="middle" x="245.83" y="-442.3" font-family="Times-Roman" font-size="14.00">zlib</text>
</g>
<!-- zlib License(9) -->
<g id="node17" class="node">
<title>zlib License(9)</title>
<ellipse fill="white" stroke="white" cx="245.83" cy="-392" rx="63.09" ry="18"/>
<text text-anchor="middle" x="245.83" y="-388.3" font-family="Times-Roman" font-size="14.00">zlib License</text>
</g>
<!-- Zlib(10) -->
<g id="node18" class="node">
<title>Zlib(10)</title>
<ellipse fill="springgreen" stroke="springgreen" cx="245.83" cy="-332" rx="27.9" ry="18"/>
<text text-anchor="middle" x="245.83" y="-328.3" font-family="Times-Roman" font-size="14.00">Zlib</text>
</g>
<!-- zlib/libpng license(10) -->
<g id="node19" class="node">
<title>zlib/libpng license(10)</title>
<ellipse fill="white" stroke="white" cx="245.83" cy="-278" rx="91.78" ry="18"/>
<text text-anchor="middle" x="245.83" y="-274.3" font-family="Times-Roman" font-size="14.00">zlib/libpng license</text>
</g>
<!-- Zlib(11) -->
<g id="node20" class="node">
<title>Zlib(11)</title>
<ellipse fill="springgreen" stroke="springgreen" cx="245.83" cy="-218" rx="27.9" ry="18"/>
<text text-anchor="middle" x="245.83" y="-214.3" font-family="Times-Roman" font-size="14.00">Zlib</text>
</g>
<!-- zlib&#45;license(11) -->
<g id="node21" class="node">
<title>zlib&#45;license(11)</title>
<ellipse fill="white" stroke="white" cx="245.83" cy="-164" rx="61.19" ry="18"/>
<text text-anchor="middle" x="245.83" y="-160.3" font-family="Times-Roman" font-size="14.00">zlib&#45;license</text>
</g>
<!-- zlib/libpng license(11) -->
<g id="node22" class="node">
<title>zlib/libpng license(11)</title>
<ellipse fill="white" stroke="white" cx="245.83" cy="-110" rx="91.78" ry="18"/>
<text text-anchor="middle" x="245.83" y="-106.3" font-family="Times-Roman" font-size="14.00">zlib/libpng license</text>
</g>
<!-- zlib/libpng License(12) -->
<g id="node23" class="node">
<title>zlib/libpng License(12)</title>
<ellipse fill="white" stroke="white" cx="245.83" cy="-42" rx="94.48" ry="18"/>
<text text-anchor="middle" x="245.83" y="-38.3" font-family="Times-Roman" font-size="14.00">zlib/libpng License</text>
</g>
</g>
</svg>
