<?xml version="1.0" encoding="UTF-8" standalone="no"?>
<!DOCTYPE svg PUBLIC "-//W3C//DTD SVG 1.1//EN"
 "http://www.w3.org/Graphics/SVG/1.1/DTD/svg11.dtd">
<!-- Generated by graphviz version 2.43.0 (0)
 -->
<!-- Title: ZPL&#45;2.0 Pages: 1 -->
<svg width="3406pt" height="98pt"
 viewBox="0.00 0.00 3406.00 98.43" xmlns="http://www.w3.org/2000/svg" xmlns:xlink="http://www.w3.org/1999/xlink">
<g id="graph0" class="graph" transform="scale(1 1) rotate(0) translate(4 94.43)">
<title>ZPL&#45;2.0</title>
<polygon fill="white" stroke="transparent" points="-4,4 -4,-94.43 3402,-94.43 3402,4 -4,4"/>
<g id="clust1" class="cluster">
<title>cluster_0</title>
<polygon fill="none" stroke="black" points="8,-8 8,-82.43 3390,-82.43 3390,-8 8,-8"/>
</g>
<g id="clust2" class="cluster">
<title>cluster_1</title>
<polygon fill="lightgray" stroke="lightgray" points="3198,-16 3198,-74.43 3382,-74.43 3382,-16 3198,-16"/>
</g>
<g id="clust3" class="cluster">
<title>cluster_2</title>
<polygon fill="lightgray" stroke="lightgray" points="2728,-16 2728,-74.43 3190,-74.43 3190,-16 2728,-16"/>
</g>
<g id="clust4" class="cluster">
<title>cluster_3</title>
<polygon fill="lightgray" stroke="lightgray" points="2258,-16 2258,-74.43 2720,-74.43 2720,-16 2258,-16"/>
</g>
<g id="clust5" class="cluster">
<title>cluster_4</title>
<polygon fill="lightgray" stroke="lightgray" points="1702,-16 1702,-74.43 2250,-74.43 2250,-16 1702,-16"/>
</g>
<g id="clust6" class="cluster">
<title>cluster_5</title>
<polygon fill="lightgray" stroke="lightgray" points="486,-16 486,-74.43 1694,-74.43 1694,-16 486,-16"/>
</g>
<g id="clust7" class="cluster">
<title>cluster_6</title>
<polygon fill="lightgray" stroke="lightgray" points="16,-16 16,-74.43 478,-74.43 478,-16 16,-16"/>
</g>
<!-- ZPL&#45;2.0(1) -->
<g id="node1" class="node">
<title>ZPL&#45;2.0(1)</title>
<ellipse fill="springgreen" stroke="springgreen" cx="3290" cy="-45.21" rx="84.29" ry="21.43"/>
<text text-anchor="middle" x="3290" y="-40.21" font-family="Times-Roman" font-size="20.00">ZPL&#45;2.0(1)</text>
</g>
<!-- ZPL&#45;2.0(2) -->
<g id="node2" class="node">
<title>ZPL&#45;2.0(2)</title>
<ellipse fill="springgreen" stroke="springgreen" cx="3098" cy="-45.21" rx="84.29" ry="21.43"/>
<text text-anchor="middle" x="3098" y="-40.21" font-family="Times-Roman" font-size="20.00">ZPL&#45;2.0(2)</text>
</g>
<!-- Zope Public License 2.0(2) -->
<g id="node3" class="node">
<title>Zope Public License 2.0(2)</title>
<ellipse fill="white" stroke="white" cx="2866" cy="-45.21" rx="129.98" ry="18"/>
<text text-anchor="middle" x="2866" y="-41.51" font-family="Times-Roman" font-size="14.00">Zope Public License 2.0(2)</text>
</g>
<!-- ZPL&#45;2.0(3) -->
<g id="node4" class="node">
<title>ZPL&#45;2.0(3)</title>
<ellipse fill="springgreen" stroke="springgreen" cx="2628" cy="-45.21" rx="84.29" ry="21.43"/>
<text text-anchor="middle" x="2628" y="-40.21" font-family="Times-Roman" font-size="20.00">ZPL&#45;2.0(3)</text>
</g>
<!-- Zope Public License 2.0(3) -->
<g id="node5" class="node">
<title>Zope Public License 2.0(3)</title>
<ellipse fill="white" stroke="white" cx="2396" cy="-45.21" rx="129.98" ry="18"/>
<text text-anchor="middle" x="2396" y="-41.51" font-family="Times-Roman" font-size="14.00">Zope Public License 2.0(3)</text>
</g>
<!-- ZPL 2.0(4) -->
<g id="node6" class="node">
<title>ZPL 2.0(4)</title>
<ellipse fill="white" stroke="white" cx="2184" cy="-45.21" rx="57.69" ry="18"/>
<text text-anchor="middle" x="2184" y="-41.51" font-family="Times-Roman" font-size="14.00">ZPL 2.0(4)</text>
</g>
<!-- ZPL&#45;2.0(4) -->
<g id="node7" class="node">
<title>ZPL&#45;2.0(4)</title>
<ellipse fill="springgreen" stroke="springgreen" cx="2024" cy="-45.21" rx="84.29" ry="21.43"/>
<text text-anchor="middle" x="2024" y="-40.21" font-family="Times-Roman" font-size="20.00">ZPL&#45;2.0(4)</text>
</g>
<!-- scancode://zpl&#45;2.0(4) -->
<g id="node8" class="node">
<title>scancode://zpl&#45;2.0(4)</title>
<ellipse fill="white" stroke="white" cx="1816" cy="-45.21" rx="105.88" ry="18"/>
<text text-anchor="middle" x="1816" y="-41.51" font-family="Times-Roman" font-size="14.00">scancode://zpl&#45;2.0(4)</text>
</g>
<!-- License :: OSI Approved :: Zope Public License(5) -->
<g id="node9" class="node">
<title>License :: OSI Approved :: Zope Public License(5)</title>
<ellipse fill="white" stroke="white" cx="1454" cy="-45.21" rx="232.06" ry="18"/>
<text text-anchor="middle" x="1454" y="-41.51" font-family="Times-Roman" font-size="14.00">License :: OSI Approved :: Zope Public License(5)</text>
</g>
<!-- The Zope Public License, Version 2.0(5) -->
<g id="node10" class="node">
<title>The Zope Public License, Version 2.0(5)</title>
<ellipse fill="white" stroke="white" cx="1015" cy="-45.21" rx="188.47" ry="18"/>
<text text-anchor="middle" x="1015" y="-41.51" font-family="Times-Roman" font-size="14.00">The Zope Public License, Version 2.0(5)</text>
</g>
<!-- ZPL&#45;2.0(5) -->
<g id="node11" class="node">
<title>ZPL&#45;2.0(5)</title>
<ellipse fill="springgreen" stroke="springgreen" cx="724" cy="-45.21" rx="84.29" ry="21.43"/>
<text text-anchor="middle" x="724" y="-40.21" font-family="Times-Roman" font-size="20.00">ZPL&#45;2.0(5)</text>
</g>
<!-- Zope&#45;2.0(5) -->
<g id="node12" class="node">
<title>Zope&#45;2.0(5)</title>
<ellipse fill="white" stroke="white" cx="558" cy="-45.21" rx="64.19" ry="18"/>
<text text-anchor="middle" x="558" y="-41.51" font-family="Times-Roman" font-size="14.00">Zope&#45;2.0(5)</text>
</g>
<!-- ZPL&#45;2.0(6) -->
<g id="node13" class="node">
<title>ZPL&#45;2.0(6)</title>
<ellipse fill="springgreen" stroke="springgreen" cx="386" cy="-45.21" rx="84.29" ry="21.43"/>
<text text-anchor="middle" x="386" y="-40.21" font-family="Times-Roman" font-size="20.00">ZPL&#45;2.0(6)</text>
</g>
<!-- Zope Public License 2.0(6) -->
<g id="node14" class="node">
<title>Zope Public License 2.0(6)</title>
<ellipse fill="white" stroke="white" cx="154" cy="-45.21" rx="129.98" ry="18"/>
<text text-anchor="middle" x="154" y="-41.51" font-family="Times-Roman" font-size="14.00">Zope Public License 2.0(6)</text>
</g>
</g>
</svg>
