<?xml version="1.0" encoding="UTF-8" standalone="no"?>
<!DOCTYPE svg PUBLIC "-//W3C//DTD SVG 1.1//EN"
 "http://www.w3.org/Graphics/SVG/1.1/DTD/svg11.dtd">
<!-- Generated by graphviz version 2.43.0 (0)
 -->
<!-- Title: ZPL&#45;2.0 Pages: 1 -->
<svg width="1720pt" height="98pt"
 viewBox="0.00 0.00 1720.00 98.43" xmlns="http://www.w3.org/2000/svg" xmlns:xlink="http://www.w3.org/1999/xlink">
<g id="graph0" class="graph" transform="scale(1 1) rotate(0) translate(4 94.43)">
<title>ZPL&#45;2.0</title>
<polygon fill="white" stroke="transparent" points="-4,4 -4,-94.43 1716,-94.43 1716,4 -4,4"/>
<g id="clust1" class="cluster">
<title>cluster_0</title>
<polygon fill="none" stroke="black" points="8,-8 8,-82.43 1704,-82.43 1704,-8 8,-8"/>
</g>
<g id="clust2" class="cluster">
<title>cluster_1</title>
<polygon fill="lightgray" stroke="lightgray" points="1550,-16 1550,-74.43 1696,-74.43 1696,-16 1550,-16"/>
</g>
<g id="clust3" class="cluster">
<title>cluster_2</title>
<polygon fill="lightgray" stroke="lightgray" points="1290,-19.21 1290,-71.21 1542,-71.21 1542,-19.21 1290,-19.21"/>
</g>
<g id="clust5" class="cluster">
<title>cluster_4</title>
<polygon fill="lightgray" stroke="lightgray" points="972,-19.21 972,-71.21 1282,-71.21 1282,-19.21 972,-19.21"/>
</g>
<g id="clust6" class="cluster">
<title>cluster_5</title>
<polygon fill="lightgray" stroke="lightgray" points="16,-19.21 16,-71.21 964,-71.21 964,-19.21 16,-19.21"/>
</g>
<!-- ZPL&#45;2.0 -->
<g id="node1" class="node">
<title>ZPL&#45;2.0</title>
<ellipse fill="lightseagreen" stroke="lightseagreen" cx="1623" cy="-45.21" rx="65.11" ry="21.43"/>
<text text-anchor="middle" x="1623" y="-40.21" font-family="Times-Roman" font-size="20.00">ZPL&#45;2.0</text>
</g>
<!-- Zope Public License 2.0 -->
<g id="node2" class="node">
<title>Zope Public License 2.0</title>
<ellipse fill="white" stroke="white" cx="1416" cy="-45.21" rx="117.78" ry="18"/>
<text text-anchor="middle" x="1416" y="-41.51" font-family="Times-Roman" font-size="14.00">Zope Public License 2.0</text>
</g>
<!-- ZPL 2.0 -->
<g id="node3" class="node">
<title>ZPL 2.0</title>
<ellipse fill="white" stroke="white" cx="1229" cy="-45.21" rx="44.69" ry="18"/>
<text text-anchor="middle" x="1229" y="-41.51" font-family="Times-Roman" font-size="14.00">ZPL 2.0</text>
</g>
<!-- scancode://zpl&#45;2.0 -->
<g id="node4" class="node">
<title>scancode://zpl&#45;2.0</title>
<ellipse fill="white" stroke="white" cx="1073" cy="-45.21" rx="92.88" ry="18"/>
<text text-anchor="middle" x="1073" y="-41.51" font-family="Times-Roman" font-size="14.00">scancode://zpl&#45;2.0</text>
</g>
<!-- License :: OSI Approved :: Zope Public License -->
<g id="node5" class="node">
<title>License :: OSI Approved :: Zope Public License</title>
<ellipse fill="white" stroke="white" cx="736" cy="-45.21" rx="219.86" ry="18"/>
<text text-anchor="middle" x="736" y="-41.51" font-family="Times-Roman" font-size="14.00">License :: OSI Approved :: Zope Public License</text>
</g>
<!-- The Zope Public License, Version 2.0 -->
<g id="node6" class="node">
<title>The Zope Public License, Version 2.0</title>
<ellipse fill="white" stroke="white" cx="322" cy="-45.21" rx="176.27" ry="18"/>
<text text-anchor="middle" x="322" y="-41.51" font-family="Times-Roman" font-size="14.00">The Zope Public License, Version 2.0</text>
</g>
<!-- Zope&#45;2.0 -->
<g id="node7" class="node">
<title>Zope&#45;2.0</title>
<ellipse fill="white" stroke="white" cx="76" cy="-45.21" rx="51.99" ry="18"/>
<text text-anchor="middle" x="76" y="-41.51" font-family="Times-Roman" font-size="14.00">Zope&#45;2.0</text>
</g>
</g>
</svg>
