<?xml version="1.0" encoding="UTF-8" standalone="no"?>
<!DOCTYPE svg PUBLIC "-//W3C//DTD SVG 1.1//EN"
 "http://www.w3.org/Graphics/SVG/1.1/DTD/svg11.dtd">
<!-- Generated by graphviz version 2.43.0 (0)
 -->
<!-- Title: ZPL&#45;1.1 Pages: 1 -->
<svg width="764pt" height="98pt"
 viewBox="0.00 0.00 764.00 98.43" xmlns="http://www.w3.org/2000/svg" xmlns:xlink="http://www.w3.org/1999/xlink">
<g id="graph0" class="graph" transform="scale(1 1) rotate(0) translate(4 94.43)">
<title>ZPL&#45;1.1</title>
<polygon fill="white" stroke="transparent" points="-4,4 -4,-94.43 760,-94.43 760,4 -4,4"/>
<g id="clust1" class="cluster">
<title>cluster_0</title>
<polygon fill="none" stroke="black" points="8,-8 8,-82.43 748,-82.43 748,-8 8,-8"/>
</g>
<g id="clust2" class="cluster">
<title>cluster_1</title>
<polygon fill="lightgray" stroke="lightgray" points="594,-16 594,-74.43 740,-74.43 740,-16 594,-16"/>
</g>
<g id="clust3" class="cluster">
<title>cluster_2</title>
<polygon fill="lightgray" stroke="lightgray" points="334,-19.21 334,-71.21 586,-71.21 586,-19.21 334,-19.21"/>
</g>
<g id="clust5" class="cluster">
<title>cluster_4</title>
<polygon fill="lightgray" stroke="lightgray" points="16,-19.21 16,-71.21 326,-71.21 326,-19.21 16,-19.21"/>
</g>
<!-- ZPL&#45;1.1 -->
<g id="node1" class="node">
<title>ZPL&#45;1.1</title>
<ellipse fill="darkgreen" stroke="darkgreen" cx="667" cy="-45.21" rx="65.11" ry="21.43"/>
<text text-anchor="middle" x="667" y="-40.21" font-family="Times-Roman" font-size="20.00">ZPL&#45;1.1</text>
</g>
<!-- Zope Public License 1.1 -->
<g id="node2" class="node">
<title>Zope Public License 1.1</title>
<ellipse fill="white" stroke="white" cx="460" cy="-45.21" rx="117.78" ry="18"/>
<text text-anchor="middle" x="460" y="-41.51" font-family="Times-Roman" font-size="14.00">Zope Public License 1.1</text>
</g>
<!-- ZPL 1.1 -->
<g id="node3" class="node">
<title>ZPL 1.1</title>
<ellipse fill="white" stroke="white" cx="273" cy="-45.21" rx="44.69" ry="18"/>
<text text-anchor="middle" x="273" y="-41.51" font-family="Times-Roman" font-size="14.00">ZPL 1.1</text>
</g>
<!-- scancode://zpl&#45;1.1 -->
<g id="node4" class="node">
<title>scancode://zpl&#45;1.1</title>
<ellipse fill="white" stroke="white" cx="117" cy="-45.21" rx="92.88" ry="18"/>
<text text-anchor="middle" x="117" y="-41.51" font-family="Times-Roman" font-size="14.00">scancode://zpl&#45;1.1</text>
</g>
</g>
</svg>
