<?xml version="1.0" encoding="UTF-8" standalone="no"?>
<!DOCTYPE svg PUBLIC "-//W3C//DTD SVG 1.1//EN"
 "http://www.w3.org/Graphics/SVG/1.1/DTD/svg11.dtd">
<!-- Generated by graphviz version 10.0.1 (0)
 -->
<!-- Pages: 1 -->
<svg width="2447pt" height="2888pt"
 viewBox="0.00 0.00 2447.00 2888.00" xmlns="http://www.w3.org/2000/svg" xmlns:xlink="http://www.w3.org/1999/xlink">
<g id="graph0" class="graph" transform="scale(1 1) rotate(0) translate(4 2884)">
<polygon fill="white" stroke="none" points="-4,4 -4,-2884 2443,-2884 2443,4 -4,4"/>
<!-- 284 -->
<g id="node1" class="node">
<title>284</title>
<ellipse fill="none" stroke="#b8bf62" cx="552.95" cy="-605.71" rx="159.81" ry="28.99"/>
<text text-anchor="middle" x="552.95" y="-608.91" font-family="Times,serif" font-size="14.00" fill="gray">SPDXLicense</text>
<text text-anchor="middle" x="552.95" y="-592.41" font-family="Times,serif" font-size="14.00" fill="gray">e4d5c16e9666e65ad31c91516e7738a8</text>
</g>
<!-- 285 -->
<g id="node2" class="node">
<title>285</title>
<polygon fill="none" stroke="black" points="1056.12,-829.74 1056.12,-844.65 1009.29,-855.2 943.05,-855.2 896.21,-844.65 896.21,-829.74 943.05,-819.2 1009.29,-819.2 1056.12,-829.74"/>
<polygon fill="none" stroke="black" points="1060.12,-826.54 1060.12,-847.85 1009.73,-859.2 942.6,-859.2 892.21,-847.85 892.21,-826.54 942.6,-815.2 1009.73,-815.2 1060.12,-826.54"/>
<text text-anchor="middle" x="976.17" y="-832.15" font-family="Times,serif" font-size="14.00">spdx:Apache&#45;1.1</text>
</g>
<!-- 284&#45;&gt;285 -->
<g id="edge1" class="edge">
<title>284&#45;&gt;285</title>
<path fill="none" stroke="#b8bf62" d="M650.81,-628.95C724.43,-651.01 772.72,-684.9 937.35,-808.11"/>
<polygon fill="#b8bf62" stroke="#b8bf62" points="934.98,-810.72 945.08,-813.91 939.18,-805.11 934.98,-810.72"/>
</g>
<!-- 4892 -->
<g id="node6" class="node">
<title>4892</title>
<polygon fill="none" stroke="black" points="1215.81,-1230.77 1215.81,-1245.69 1173.19,-1256.23 1112.92,-1256.23 1070.3,-1245.69 1070.3,-1230.77 1112.92,-1220.23 1173.19,-1220.23 1215.81,-1230.77"/>
<polygon fill="none" stroke="black" points="1219.81,-1227.64 1219.81,-1248.82 1173.68,-1260.23 1112.43,-1260.23 1066.3,-1248.82 1066.3,-1227.64 1112.43,-1216.23 1173.68,-1216.23 1219.81,-1227.64"/>
<polygon fill="none" stroke="black" points="1223.81,-1224.51 1223.81,-1251.95 1174.17,-1264.23 1111.95,-1264.23 1062.3,-1251.95 1062.3,-1224.51 1111.95,-1212.23 1174.17,-1212.23 1223.81,-1224.51"/>
<text text-anchor="middle" x="1143.06" y="-1233.18" font-family="Times,serif" font-size="14.00">osi:Apache&#45;1.1</text>
</g>
<!-- 285&#45;&gt;4892 -->
<g id="edge2" class="edge">
<title>285&#45;&gt;4892</title>
<path fill="none" stroke="#78ab63" stroke-width="2" d="M985.77,-859.59C1025.97,-953.41 1034.41,-973.76 1127.97,-1201.5"/>
<polygon fill="#78ab63" stroke="#78ab63" stroke-width="2" points="1131.27,-1209.54 1123.31,-1202 1129.83,-1207.36 1127.01,-1200.48 1127.47,-1200.29 1127.93,-1200.1 1130.76,-1206.98 1131.63,-1198.58 1131.27,-1209.54"/>
</g>
<!-- 5462 -->
<g id="node9" class="node">
<title>5462</title>
<polygon fill="none" stroke="#e06f45" points="730.32,-365.96 730.32,-380.87 682.18,-391.41 614.1,-391.41 565.97,-380.87 565.97,-365.96 614.1,-355.41 682.18,-355.41 730.32,-365.96"/>
<polygon fill="none" stroke="#e06f45" points="734.32,-362.74 734.32,-384.09 682.61,-395.41 613.67,-395.41 561.97,-384.09 561.97,-362.74 613.67,-351.41 682.61,-351.41 734.32,-362.74"/>
<text text-anchor="middle" x="648.14" y="-368.36" font-family="Times,serif" font-size="14.00">google:Apache11</text>
</g>
<!-- 285&#45;&gt;5462 -->
<g id="edge3" class="edge">
<title>285&#45;&gt;5462</title>
<path fill="none" stroke="#e06f45" stroke-width="2" d="M961.78,-814.72C779.67,-530.31 761.65,-503.08 675.05,-404.05"/>
<polygon fill="#e06f45" stroke="#e06f45" stroke-width="2" points="669.46,-397.68 679.44,-402.23 671.53,-399.27 676.43,-404.87 676.05,-405.2 675.68,-405.53 670.78,-399.93 672.67,-408.16 669.46,-397.68"/>
</g>
<!-- 5883 -->
<g id="node12" class="node">
<title>5883</title>
<polygon fill="none" stroke="#e09d4b" points="1458.69,-692.89 1458.69,-707.8 1406.66,-718.34 1333.08,-718.34 1281.05,-707.8 1281.05,-692.89 1333.08,-682.34 1406.66,-682.34 1458.69,-692.89"/>
<polygon fill="none" stroke="#e09d4b" points="1462.69,-689.62 1462.69,-711.07 1407.06,-722.34 1332.67,-722.34 1277.05,-711.07 1277.05,-689.62 1332.67,-678.34 1407.06,-678.34 1462.69,-689.62"/>
<text text-anchor="middle" x="1369.87" y="-695.29" font-family="Times,serif" font-size="14.00">Fedora:Apache&#45;1.1</text>
</g>
<!-- 285&#45;&gt;5883 -->
<g id="edge4" class="edge">
<title>285&#45;&gt;5883</title>
<path fill="none" stroke="#e09d4b" stroke-width="2" d="M1004.36,-814.86C1131.72,-714.17 1165.87,-692.38 1265.65,-694.28"/>
<polygon fill="#e09d4b" stroke="#e09d4b" stroke-width="2" points="1274.38,-694.52 1264.27,-698.75 1271.81,-694.95 1264.37,-694.75 1264.39,-694.25 1264.4,-693.75 1271.84,-693.95 1264.51,-689.75 1274.38,-694.52"/>
</g>
<!-- 9462 -->
<g id="node26" class="node">
<title>9462</title>
<polygon fill="none" stroke="#58a066" points="724.89,-920.97 724.89,-935.88 676.75,-946.42 608.68,-946.42 560.54,-935.88 560.54,-920.97 608.68,-910.42 676.75,-910.42 724.89,-920.97"/>
<polygon fill="none" stroke="#58a066" points="728.89,-917.75 728.89,-939.1 677.19,-950.42 608.24,-950.42 556.54,-939.1 556.54,-917.75 608.24,-906.42 677.19,-906.42 728.89,-917.75"/>
<text text-anchor="middle" x="642.72" y="-923.37" font-family="Times,serif" font-size="14.00">osadl:Apache&#45;1.1</text>
</g>
<!-- 285&#45;&gt;9462 -->
<g id="edge5" class="edge">
<title>285&#45;&gt;9462</title>
<path fill="none" stroke="#58a066" stroke-width="2" d="M891.86,-833.53C781.33,-830.15 754.56,-840.01 679.02,-899.39"/>
<polygon fill="#58a066" stroke="#58a066" stroke-width="2" points="672.48,-904.57 677.53,-894.83 674.18,-902.58 680.01,-897.97 680.32,-898.36 680.63,-898.75 674.8,-903.37 683.11,-901.89 672.48,-904.57"/>
</g>
<!-- 10664 -->
<g id="node28" class="node">
<title>10664</title>
<polygon fill="none" stroke="#deb256" points="857.47,-515.07 857.47,-529.99 819.07,-540.53 764.76,-540.53 726.36,-529.99 726.36,-515.07 764.76,-504.53 819.07,-504.53 857.47,-515.07"/>
<text text-anchor="middle" x="791.92" y="-517.48" font-family="Times,serif" font-size="14.00">fsf:apache1.1</text>
</g>
<!-- 285&#45;&gt;10664 -->
<g id="edge6" class="edge">
<title>285&#45;&gt;10664</title>
<path fill="none" stroke="#deb256" stroke-dasharray="5,2" d="M964.12,-814.99C867.22,-636.43 854.38,-613.41 810.85,-549.97"/>
<polygon fill="#deb256" stroke="#deb256" points="805.19,-541.74 814.56,-547.43 807.33,-544.85 810.86,-549.98 810.86,-549.98 810.86,-549.98 807.33,-544.85 807.15,-552.53 805.19,-541.74"/>
</g>
<!-- 38643 -->
<g id="node42" class="node">
<title>38643</title>
<polygon fill="none" stroke="#00876c" points="1711.7,-1242.78 1711.7,-1257.69 1631.11,-1268.24 1517.14,-1268.24 1436.56,-1257.69 1436.56,-1242.78 1517.14,-1232.24 1631.11,-1232.24 1711.7,-1242.78"/>
<polygon fill="none" stroke="#00876c" points="1715.7,-1239.27 1715.7,-1261.2 1631.37,-1272.24 1516.88,-1272.24 1432.56,-1261.2 1432.56,-1239.27 1516.88,-1228.24 1631.37,-1228.24 1715.7,-1239.27"/>
<text text-anchor="middle" x="1574.13" y="-1245.19" font-family="Times,serif" font-size="14.00">metaeffekt:Apache License 1.1</text>
</g>
<!-- 285&#45;&gt;38643 -->
<g id="edge7" class="edge">
<title>285&#45;&gt;38643</title>
<path fill="none" stroke="#00876c" stroke-width="2" d="M1047.01,-851.24C1288.9,-900.35 1316.08,-926.11 1549.51,-1219.3"/>
<polygon fill="#00876c" stroke="#00876c" stroke-width="2" points="1554.96,-1226.15 1545.21,-1221.12 1552.97,-1224.45 1548.34,-1218.63 1548.73,-1218.32 1549.12,-1218.01 1553.76,-1223.83 1552.25,-1215.52 1554.96,-1226.15"/>
</g>
<!-- 286 -->
<g id="node3" class="node">
<title>286</title>
<polygon fill="none" stroke="black" points="1093.73,-1173.12 1093.73,-1188.03 1059.55,-1198.58 1011.21,-1198.58 977.02,-1188.03 977.02,-1173.12 1011.21,-1162.58 1059.55,-1162.58 1093.73,-1173.12"/>
<polygon fill="none" stroke="black" points="1097.73,-1170.17 1097.73,-1190.98 1060.15,-1202.58 1010.6,-1202.58 973.02,-1190.98 973.02,-1170.17 1010.6,-1158.58 1060.15,-1158.58 1097.73,-1170.17"/>
<text text-anchor="middle" x="1035.38" y="-1175.53" font-family="Times,serif" font-size="14.00">Apache&#45;1.1</text>
</g>
<!-- 286&#45;&gt;285 -->
<g id="edge8" class="edge">
<title>286&#45;&gt;285</title>
<path fill="none" stroke="black" stroke-width="2" d="M1029.63,-1158.34C981.22,-971.08 975.6,-946.52 975.85,-870.52"/>
<polygon fill="black" stroke="black" stroke-width="2" points="975.9,-861.87 980.34,-871.9 976.38,-864.44 976.34,-871.87 975.84,-871.87 975.34,-871.87 975.38,-864.43 971.34,-871.84 975.9,-861.87"/>
</g>
<!-- 286&#45;&gt;4892 -->
<g id="edge9" class="edge">
<title>286&#45;&gt;4892</title>
<path fill="none" stroke="black" stroke-width="2" d="M1084.08,-1195.62C1088.76,-1198.36 1093.91,-1201.75 1100.01,-1206.06"/>
<polygon fill="black" stroke="black" stroke-width="2" points="1107,-1211.11 1096.26,-1208.9 1104.63,-1210.01 1098.6,-1205.66 1098.89,-1205.25 1099.18,-1204.85 1105.21,-1209.2 1101.53,-1201.61 1107,-1211.11"/>
</g>
<!-- 286&#45;&gt;5883 -->
<g id="edge10" class="edge">
<title>286&#45;&gt;5883</title>
<path fill="none" stroke="#e09d4b" stroke-width="2" d="M1045.56,-1158.3C1185.65,-852.06 1200.6,-823.73 1330.28,-728.95"/>
<polygon fill="#e09d4b" stroke="#e09d4b" stroke-width="2" points="1337.02,-724.05 1331.59,-733.57 1335.25,-725.96 1329.23,-730.34 1328.94,-729.93 1328.65,-729.53 1334.66,-725.15 1326.29,-726.3 1337.02,-724.05"/>
</g>
<!-- 8747 -->
<g id="node24" class="node">
<title>8747</title>
<polygon fill="none" stroke="#00876c" points="1491.12,-1053.01 1491.12,-1067.92 1434.55,-1078.47 1354.54,-1078.47 1297.97,-1067.92 1297.97,-1053.01 1354.54,-1042.47 1434.55,-1042.47 1491.12,-1053.01"/>
<polygon fill="none" stroke="#00876c" points="1495.12,-1049.69 1495.12,-1071.25 1434.92,-1082.47 1354.18,-1082.47 1293.97,-1071.25 1293.97,-1049.69 1354.18,-1038.47 1434.92,-1038.47 1495.12,-1049.69"/>
<text text-anchor="middle" x="1394.55" y="-1055.42" font-family="Times,serif" font-size="14.00">BlueOak:Apache&#45;1.1</text>
</g>
<!-- 286&#45;&gt;8747 -->
<g id="edge11" class="edge">
<title>286&#45;&gt;8747</title>
<path fill="none" stroke="#00876c" stroke-width="2" d="M1063.59,-1159.14C1172.35,-1076.73 1207.64,-1054.16 1282.8,-1053.53"/>
<polygon fill="#00876c" stroke="#00876c" stroke-width="2" points="1291.24,-1053.58 1281.22,-1058.03 1288.68,-1054.06 1281.24,-1054.03 1281.24,-1053.53 1281.24,-1053.03 1288.68,-1053.06 1281.26,-1049.03 1291.24,-1053.58"/>
</g>
<!-- 286&#45;&gt;9462 -->
<g id="edge12" class="edge">
<title>286&#45;&gt;9462</title>
<path fill="none" stroke="#58a066" stroke-width="2" d="M1006.57,-1159.4C811.96,-1016.4 776.37,-991.17 696.88,-953.43"/>
<polygon fill="#58a066" stroke="#58a066" stroke-width="2" points="689.16,-949.79 700.13,-949.98 691.69,-950.43 698.42,-953.6 698.21,-954.05 698,-954.5 691.27,-951.34 696.29,-958.12 689.16,-949.79"/>
</g>
<!-- 11734 -->
<g id="node30" class="node">
<title>11734</title>
<polygon fill="none" stroke="black" points="1285.74,-1598.73 1285.74,-1613.64 1230.14,-1624.18 1151.51,-1624.18 1095.91,-1613.64 1095.91,-1598.73 1151.51,-1588.18 1230.14,-1588.18 1285.74,-1598.73"/>
<polygon fill="none" stroke="black" points="1289.74,-1595.41 1289.74,-1616.95 1230.51,-1628.18 1151.13,-1628.18 1091.91,-1616.95 1091.91,-1595.41 1151.13,-1584.18 1230.51,-1584.18 1289.74,-1595.41"/>
<text text-anchor="middle" x="1190.82" y="-1601.13" font-family="Times,serif" font-size="14.00">scancode:apache&#45;1.1</text>
</g>
<!-- 286&#45;&gt;11734 -->
<g id="edge13" class="edge">
<title>286&#45;&gt;11734</title>
<path fill="none" stroke="black" stroke-width="2" d="M1034.72,-1202.85C1030.61,-1350.32 1036.56,-1366.68 1170.37,-1574.45"/>
<polygon fill="black" stroke="black" stroke-width="2" points="1175.1,-1581.8 1165.9,-1575.83 1173.29,-1579.92 1169.26,-1573.66 1169.68,-1573.39 1170.1,-1573.12 1174.13,-1579.37 1173.47,-1570.96 1175.1,-1581.8"/>
</g>
<!-- 26030 -->
<g id="node33" class="node">
<title>26030</title>
<polygon fill="none" stroke="#e18745" points="915.76,-1532.77 915.76,-1547.69 857.23,-1558.23 774.47,-1558.23 715.95,-1547.69 715.95,-1532.77 774.47,-1522.23 857.23,-1522.23 915.76,-1532.77"/>
<polygon fill="none" stroke="#e18745" points="919.76,-1529.43 919.76,-1551.03 857.59,-1562.23 774.12,-1562.23 711.95,-1551.03 711.95,-1529.43 774.12,-1518.23 857.59,-1518.23 919.76,-1529.43"/>
<text text-anchor="middle" x="815.85" y="-1535.18" font-family="Times,serif" font-size="14.00">fossology:Apache&#45;1.1</text>
</g>
<!-- 286&#45;&gt;26030 -->
<g id="edge14" class="edge">
<title>286&#45;&gt;26030</title>
<path fill="none" stroke="#e18745" stroke-width="2" d="M1008.98,-1202.39C854.28,-1330.5 843.67,-1346.52 820.57,-1506.97"/>
<polygon fill="#e18745" stroke="#e18745" stroke-width="2" points="819.37,-1515.34 816.33,-1504.8 819.24,-1512.73 820.29,-1505.37 820.79,-1505.44 821.28,-1505.51 820.23,-1512.87 825.24,-1506.08 819.37,-1515.34"/>
</g>
<!-- 36356 -->
<g id="node38" class="node">
<title>36356</title>
<polygon fill="none" stroke="#379469" points="842.36,-1175.97 842.36,-1190.88 795.2,-1201.42 728.5,-1201.42 681.34,-1190.88 681.34,-1175.97 728.5,-1165.42 795.2,-1165.42 842.36,-1175.97"/>
<polygon fill="none" stroke="#379469" points="846.36,-1172.76 846.36,-1194.08 795.64,-1205.42 728.06,-1205.42 677.34,-1194.08 677.34,-1172.76 728.06,-1161.42 795.64,-1161.42 846.36,-1172.76"/>
<text text-anchor="middle" x="761.85" y="-1178.37" font-family="Times,serif" font-size="14.00">cavil:Apache&#45;1.1</text>
</g>
<!-- 286&#45;&gt;36356 -->
<g id="edge15" class="edge">
<title>286&#45;&gt;36356</title>
<path fill="none" stroke="#379469" stroke-width="2" d="M973.95,-1169.44C892.41,-1155.04 861.53,-1152.33 824.16,-1161.92"/>
<polygon fill="#379469" stroke="#379469" stroke-width="2" points="815.75,-1164.3 824.15,-1157.25 818.08,-1163.12 825.24,-1161.1 825.37,-1161.58 825.51,-1162.06 818.35,-1164.08 826.59,-1165.91 815.75,-1164.3"/>
</g>
<!-- 286&#45;&gt;38643 -->
<g id="edge16" class="edge">
<title>286&#45;&gt;38643</title>
<path fill="none" stroke="#00876c" stroke-dasharray="5,2" d="M1092.81,-1168.18C1324.35,-1118.7 1354.87,-1121.94 1526.36,-1222.11"/>
<polygon fill="#00876c" stroke="#00876c" points="1534.92,-1227.12 1524.02,-1225.95 1531.66,-1225.21 1526.29,-1222.07 1526.29,-1222.07 1526.29,-1222.07 1531.66,-1225.21 1528.57,-1218.19 1534.92,-1227.12"/>
</g>
<!-- 50931 -->
<g id="node61" class="node">
<title>50931</title>
<polygon fill="none" stroke="#dac767" points="832.59,-1477.17 832.59,-1492.09 757.2,-1502.63 650.57,-1502.63 575.18,-1492.09 575.18,-1477.17 650.57,-1466.63 757.2,-1466.63 832.59,-1477.17"/>
<polygon fill="none" stroke="#dac767" points="836.59,-1473.69 836.59,-1495.57 757.48,-1506.63 650.3,-1506.63 571.18,-1495.57 571.18,-1473.69 650.3,-1462.63 757.48,-1462.63 836.59,-1473.69"/>
<text text-anchor="middle" x="703.89" y="-1479.58" font-family="Times,serif" font-size="14.00">fosslight:Apache License 1.1</text>
</g>
<!-- 286&#45;&gt;50931 -->
<g id="edge17" class="edge">
<title>286&#45;&gt;50931</title>
<path fill="none" stroke="#dac767" stroke-width="2" d="M998.26,-1199.11C798.08,-1299.34 781.02,-1313.78 718.46,-1452.14"/>
<polygon fill="#dac767" stroke="#dac767" stroke-width="2" points="714.87,-1460.1 714.88,-1449.13 715.47,-1457.56 718.53,-1450.78 718.98,-1450.98 719.44,-1451.19 716.38,-1457.97 723.08,-1452.83 714.87,-1460.1"/>
</g>
<!-- 54230 -->
<g id="node65" class="node">
<title>54230</title>
<polygon fill="none" stroke="#98b561" points="1044.18,-1226.74 1044.18,-1241.65 992.15,-1252.19 918.57,-1252.19 866.54,-1241.65 866.54,-1226.74 918.57,-1216.19 992.15,-1216.19 1044.18,-1226.74"/>
<polygon fill="none" stroke="#98b561" points="1048.18,-1223.47 1048.18,-1244.92 992.55,-1256.19 918.16,-1256.19 862.54,-1244.92 862.54,-1223.47 918.16,-1212.19 992.55,-1212.19 1048.18,-1223.47"/>
<text text-anchor="middle" x="955.36" y="-1229.14" font-family="Times,serif" font-size="14.00">eclipse:Apache&#45;1.1</text>
</g>
<!-- 286&#45;&gt;54230 -->
<g id="edge18" class="edge">
<title>286&#45;&gt;54230</title>
<path fill="none" stroke="#98b561" stroke-width="2" d="M987.26,-1195.76C983.74,-1197.88 980.67,-1200.34 977.68,-1203.4"/>
<polygon fill="#98b561" stroke="#98b561" stroke-width="2" points="972.19,-1209.89 975.21,-1199.34 973.47,-1207.61 978.27,-1201.93 978.65,-1202.25 979.03,-1202.57 974.23,-1208.25 982.09,-1205.15 972.19,-1209.89"/>
</g>
<!-- 287 -->
<g id="node4" class="node">
<title>287</title>
<polygon fill="none" stroke="black" points="1225.24,-1316.01 1225.24,-1330.92 1171.59,-1341.47 1095.71,-1341.47 1042.06,-1330.92 1042.06,-1316.01 1095.71,-1305.47 1171.59,-1305.47 1225.24,-1316.01"/>
<polygon fill="none" stroke="black" points="1229.24,-1312.72 1229.24,-1334.21 1171.98,-1345.47 1095.32,-1345.47 1038.06,-1334.21 1038.06,-1312.72 1095.32,-1301.47 1171.98,-1301.47 1229.24,-1312.72"/>
<text text-anchor="middle" x="1133.65" y="-1318.42" font-family="Times,serif" font-size="14.00">Apache License 1.1</text>
</g>
<!-- 287&#45;&gt;285 -->
<g id="edge19" class="edge">
<title>287&#45;&gt;285</title>
<path fill="none" stroke="black" stroke-width="2" d="M1125.66,-1301.32C1021.58,-1012.87 1012.43,-986.6 984.2,-870.45"/>
<polygon fill="black" stroke="black" stroke-width="2" points="982.17,-862.05 988.9,-870.71 983.26,-864.42 985.01,-871.65 984.52,-871.77 984.04,-871.88 982.28,-864.66 980.15,-872.83 982.17,-862.05"/>
</g>
<!-- 287&#45;&gt;8747 -->
<g id="edge20" class="edge">
<title>287&#45;&gt;8747</title>
<path fill="none" stroke="#00876c" stroke-width="2" d="M1149.44,-1300.98C1253.85,-1152.43 1275.92,-1123.69 1341.85,-1087.51"/>
<polygon fill="#00876c" stroke="#00876c" stroke-width="2" points="1349.31,-1083.5 1342.64,-1092.2 1347.29,-1085.15 1340.74,-1088.67 1340.51,-1088.23 1340.27,-1087.79 1346.82,-1084.27 1338.37,-1084.27 1349.31,-1083.5"/>
</g>
<!-- 287&#45;&gt;11734 -->
<g id="edge21" class="edge">
<title>287&#45;&gt;11734</title>
<path fill="none" stroke="#dac767" stroke-width="2" d="M1130.33,-1345.95C1111.62,-1473.53 1112.71,-1490.91 1169.31,-1574.75"/>
<polygon fill="#dac767" stroke="#dac767" stroke-width="2" points="1174.16,-1581.89 1164.82,-1576.15 1172.31,-1580.05 1168.13,-1573.9 1168.54,-1573.62 1168.96,-1573.34 1173.13,-1579.49 1172.26,-1571.09 1174.16,-1581.89"/>
</g>
<!-- 287&#45;&gt;26030 -->
<g id="edge22" class="edge">
<title>287&#45;&gt;26030</title>
<path fill="none" stroke="#e18745" stroke-width="2" d="M1087.3,-1344.29C918.6,-1420.31 895.58,-1434.5 839.05,-1509.09"/>
<polygon fill="#e18745" stroke="#e18745" stroke-width="2" points="833.82,-1516.04 836.23,-1505.35 834.96,-1513.69 839.43,-1507.75 839.83,-1508.05 840.23,-1508.35 835.76,-1514.29 843.42,-1510.76 833.82,-1516.04"/>
</g>
<!-- 287&#45;&gt;38643 -->
<g id="edge23" class="edge">
<title>287&#45;&gt;38643</title>
<path fill="none" stroke="#00876c" stroke-width="2" d="M1186.41,-1303.89C1340.2,-1246.99 1394.5,-1229.5 1460.25,-1232.97"/>
<polygon fill="#00876c" stroke="#00876c" stroke-width="2" points="1468.92,-1233.58 1458.64,-1237.37 1466.33,-1233.9 1458.91,-1233.38 1458.95,-1232.88 1458.98,-1232.38 1466.4,-1232.9 1459.26,-1228.39 1468.92,-1233.58"/>
</g>
<!-- 50276 -->
<g id="node53" class="node">
<title>50276</title>
<polygon fill="none" stroke="#b8bf62" points="1616.06,-1728.7 1616.06,-1743.61 1533.2,-1754.16 1416.02,-1754.16 1333.16,-1743.61 1333.16,-1728.7 1416.02,-1718.16 1533.2,-1718.16 1616.06,-1728.7"/>
<polygon fill="none" stroke="#b8bf62" points="1620.06,-1725.18 1620.06,-1747.14 1533.46,-1758.16 1415.77,-1758.16 1329.16,-1747.14 1329.16,-1725.18 1415.77,-1714.16 1533.46,-1714.16 1620.06,-1725.18"/>
<text text-anchor="middle" x="1474.61" y="-1731.11" font-family="Times,serif" font-size="14.00">foss&#45;license:Apache License 1.1</text>
</g>
<!-- 287&#45;&gt;50276 -->
<g id="edge24" class="edge">
<title>287&#45;&gt;50276</title>
<path fill="none" stroke="#b8bf62" stroke-width="2" d="M1152.78,-1345.76C1357.18,-1584 1377.86,-1608.43 1450.89,-1704.8"/>
<polygon fill="#b8bf62" stroke="#b8bf62" stroke-width="2" points="1456.19,-1711.79 1446.56,-1706.53 1454.24,-1710.05 1449.75,-1704.12 1450.15,-1703.82 1450.55,-1703.52 1455.04,-1709.44 1453.74,-1701.1 1456.19,-1711.79"/>
</g>
<!-- 287&#45;&gt;50931 -->
<g id="edge25" class="edge">
<title>287&#45;&gt;50931</title>
<path fill="none" stroke="#dac767" stroke-width="2" d="M1063.14,-1339.56C857.34,-1386.77 823.54,-1398.19 743.4,-1455.68"/>
<polygon fill="#dac767" stroke="#dac767" stroke-width="2" points="736.42,-1460.72 741.89,-1451.22 738.2,-1458.82 744.23,-1454.46 744.52,-1454.87 744.82,-1455.27 738.79,-1459.63 747.16,-1458.51 736.42,-1460.72"/>
</g>
<!-- 4891 -->
<g id="node5" class="node">
<title>4891</title>
<ellipse fill="none" stroke="#78ab63" cx="901.84" cy="-965.07" rx="157.68" ry="28.99"/>
<text text-anchor="middle" x="901.84" y="-968.27" font-family="Times,serif" font-size="14.00" fill="gray">OSILicense</text>
<text text-anchor="middle" x="901.84" y="-951.77" font-family="Times,serif" font-size="14.00" fill="gray">918092478cf0a1d1ec3f9738da63b18a</text>
</g>
<!-- 4891&#45;&gt;4892 -->
<g id="edge26" class="edge">
<title>4891&#45;&gt;4892</title>
<path fill="none" stroke="#78ab63" d="M934.46,-993.87C985.23,-1039.47 1006.02,-1064.47 1115.45,-1203.21"/>
<polygon fill="#78ab63" stroke="#78ab63" points="1112.56,-1205.2 1121.5,-1210.88 1118.06,-1200.86 1112.56,-1205.2"/>
</g>
<!-- 4892&#45;&gt;38643 -->
<g id="edge27" class="edge">
<title>4892&#45;&gt;38643</title>
<path fill="none" stroke="#00876c" stroke-dasharray="5,2" d="M1213,-1221.39C1380.46,-1181.67 1416.08,-1180.51 1514.74,-1223.33"/>
<polygon fill="#00876c" stroke="#00876c" points="1523.7,-1227.27 1512.73,-1227.37 1520.24,-1225.75 1514.54,-1223.25 1514.54,-1223.25 1514.54,-1223.25 1520.24,-1225.75 1516.35,-1219.13 1523.7,-1227.27"/>
</g>
<!-- 4893 -->
<g id="node7" class="node">
<title>4893</title>
<polygon fill="none" stroke="black" points="1115.28,-1692.63 1115.28,-1707.54 1018.14,-1718.08 880.77,-1718.08 783.63,-1707.54 783.63,-1692.63 880.77,-1682.08 1018.14,-1682.08 1115.28,-1692.63"/>
<polygon fill="none" stroke="black" points="1119.28,-1689.04 1119.28,-1711.13 1018.36,-1722.08 880.55,-1722.08 779.63,-1711.13 779.63,-1689.04 880.55,-1678.08 1018.36,-1678.08 1119.28,-1689.04"/>
<text text-anchor="middle" x="949.46" y="-1695.03" font-family="Times,serif" font-size="14.00">Apache Software License, Version 1.1</text>
</g>
<!-- 4893&#45;&gt;286 -->
<g id="edge28" class="edge">
<title>4893&#45;&gt;286</title>
<path fill="none" stroke="#78ab63" stroke-width="2" d="M944.14,-1677.92C889.73,-1450.72 891.19,-1433.96 1017.18,-1212.5"/>
<polygon fill="#78ab63" stroke="#78ab63" stroke-width="2" points="1021.48,-1204.95 1020.44,-1215.86 1020.65,-1207.42 1016.97,-1213.88 1016.53,-1213.64 1016.1,-1213.39 1019.78,-1206.93 1012.62,-1211.41 1021.48,-1204.95"/>
</g>
<!-- 4893&#45;&gt;4892 -->
<g id="edge29" class="edge">
<title>4893&#45;&gt;4892</title>
<path fill="none" stroke="#78ab63" stroke-width="2" d="M949.26,-1677.67C947.82,-1495.31 953.88,-1478.2 1115.49,-1273.15"/>
<polygon fill="#78ab63" stroke="#78ab63" stroke-width="2" points="1120.79,-1266.43 1118.13,-1277.07 1119.6,-1268.75 1114.99,-1274.59 1114.6,-1274.28 1114.21,-1273.97 1118.81,-1268.13 1111.07,-1271.49 1120.79,-1266.43"/>
</g>
<!-- 4893&#45;&gt;50276 -->
<g id="edge30" class="edge">
<title>4893&#45;&gt;50276</title>
<path fill="none" stroke="#b8bf62" stroke-width="2" d="M996.92,-1722.55C1186.02,-1811.56 1220.21,-1817.53 1398.22,-1761.01"/>
<polygon fill="#b8bf62" stroke="#b8bf62" stroke-width="2" points="1406.43,-1758.39 1398.27,-1765.71 1404.14,-1759.64 1397.06,-1761.9 1396.9,-1761.43 1396.75,-1760.95 1403.84,-1758.69 1395.54,-1757.14 1406.43,-1758.39"/>
</g>
<!-- 51246 -->
<g id="node63" class="node">
<title>51246</title>
<polygon fill="none" stroke="#d43d51" points="780.72,-2321.64 780.72,-2336.56 666.06,-2347.1 503.91,-2347.1 389.24,-2336.56 389.24,-2321.64 503.91,-2311.1 666.06,-2311.1 780.72,-2321.64"/>
<polygon fill="none" stroke="#d43d51" points="784.72,-2318 784.72,-2340.21 666.24,-2351.1 503.72,-2351.1 385.24,-2340.21 385.24,-2318 503.72,-2307.1 666.24,-2307.1 784.72,-2318"/>
<text text-anchor="middle" x="584.98" y="-2324.05" font-family="Times,serif" font-size="14.00">hitachi:Apache Software License, Version 1.1</text>
</g>
<!-- 4893&#45;&gt;51246 -->
<g id="edge31" class="edge">
<title>4893&#45;&gt;51246</title>
<path fill="none" stroke="#d43d51" stroke-width="2" d="M935.35,-1722.3C692.31,-2105.19 676.73,-2130.59 600.01,-2296.54"/>
<polygon fill="#d43d51" stroke="#d43d51" stroke-width="2" points="596.37,-2304.41 596.48,-2293.45 596.99,-2301.88 600.11,-2295.13 600.56,-2295.34 601.02,-2295.55 597.9,-2302.3 604.65,-2297.22 596.37,-2304.41"/>
</g>
<!-- 5461 -->
<g id="node8" class="node">
<title>5461</title>
<ellipse fill="none" stroke="#e06f45" cx="273.2" cy="-29.47" rx="159.28" ry="28.99"/>
<text text-anchor="middle" x="273.2" y="-32.67" font-family="Times,serif" font-size="14.00" fill="gray">GoogleLicense</text>
<text text-anchor="middle" x="273.2" y="-16.17" font-family="Times,serif" font-size="14.00" fill="gray">090d43adc2a930038a30de0b5bf4342c</text>
</g>
<!-- 5461&#45;&gt;5462 -->
<g id="edge32" class="edge">
<title>5461&#45;&gt;5462</title>
<path fill="none" stroke="#e06f45" d="M317.37,-57.69C406.75,-115.73 434.53,-143.82 619.64,-342.77"/>
<polygon fill="#e06f45" stroke="#e06f45" points="617.03,-345.1 626.4,-350.04 622.15,-340.33 617.03,-345.1"/>
</g>
<!-- 5463 -->
<g id="node10" class="node">
<title>5463</title>
<polygon fill="none" stroke="#e06f45" points="555.34,-30.88 555.34,-45.79 524.72,-56.33 481.43,-56.33 450.82,-45.79 450.82,-30.88 481.43,-20.33 524.72,-20.33 555.34,-30.88"/>
<polygon fill="none" stroke="#e06f45" points="559.34,-28.03 559.34,-48.64 525.39,-60.33 480.76,-60.33 446.82,-48.64 446.82,-28.03 480.76,-16.33 525.39,-16.33 559.34,-28.03"/>
<text text-anchor="middle" x="503.08" y="-33.28" font-family="Times,serif" font-size="14.00">Apache11</text>
</g>
<!-- 5463&#45;&gt;5462 -->
<g id="edge33" class="edge">
<title>5463&#45;&gt;5462</title>
<path fill="none" stroke="#e06f45" stroke-width="2" d="M511.52,-60.7C540.84,-138.2 549.26,-157.32 633.28,-340.95"/>
<polygon fill="#e06f45" stroke="#e06f45" stroke-width="2" points="636.85,-348.75 628.6,-341.53 635.33,-346.62 632.24,-339.86 632.69,-339.65 633.15,-339.44 636.24,-346.21 636.78,-337.78 636.85,-348.75"/>
</g>
<!-- 5882 -->
<g id="node11" class="node">
<title>5882</title>
<ellipse fill="none" stroke="#e09d4b" cx="1486.02" cy="-423.11" rx="157.15" ry="28.99"/>
<text text-anchor="middle" x="1486.02" y="-426.31" font-family="Times,serif" font-size="14.00" fill="gray">FedoraEntry</text>
<text text-anchor="middle" x="1486.02" y="-409.81" font-family="Times,serif" font-size="14.00" fill="gray">a235f00487515ae15cc5bd52f5d251ec</text>
</g>
<!-- 5882&#45;&gt;5883 -->
<g id="edge34" class="edge">
<title>5882&#45;&gt;5883</title>
<path fill="none" stroke="#e09d4b" d="M1470.07,-452.19C1442.5,-503.19 1433.24,-526.87 1381.86,-667.51"/>
<polygon fill="#e09d4b" stroke="#e09d4b" points="1378.58,-666.27 1378.44,-676.86 1385.16,-668.67 1378.58,-666.27"/>
</g>
<!-- 5884 -->
<g id="node13" class="node">
<title>5884</title>
<polygon fill="none" stroke="#e09d4b" points="1502.44,-208.53 1502.44,-223.45 1435.48,-233.99 1340.79,-233.99 1273.83,-223.45 1273.83,-208.53 1340.79,-197.99 1435.48,-197.99 1502.44,-208.53"/>
<text text-anchor="middle" x="1388.13" y="-210.94" font-family="Times,serif" font-size="14.00">4Suite Copyright License</text>
</g>
<!-- 5884&#45;&gt;5883 -->
<g id="edge35" class="edge">
<title>5884&#45;&gt;5883</title>
<path fill="none" stroke="#e09d4b" stroke-dasharray="5,2" d="M1388.92,-234.1C1394.3,-358.54 1393.55,-375.87 1372.29,-667.19"/>
<polygon fill="#e09d4b" stroke="#e09d4b" points="1371.58,-676.9 1367.82,-666.6 1371.85,-673.13 1372.31,-666.93 1372.31,-666.93 1372.31,-666.93 1371.85,-673.13 1376.79,-667.25 1371.58,-676.9"/>
</g>
<!-- 5885 -->
<g id="node14" class="node">
<title>5885</title>
<polygon fill="none" stroke="black" points="1503.91,-1189.32 1503.91,-1204.23 1427.54,-1214.78 1319.54,-1214.78 1243.17,-1204.23 1243.17,-1189.32 1319.54,-1178.78 1427.54,-1178.78 1503.91,-1189.32"/>
<polygon fill="none" stroke="black" points="1507.91,-1185.84 1507.91,-1207.72 1427.82,-1218.78 1319.26,-1218.78 1239.17,-1207.72 1239.17,-1185.84 1319.26,-1174.78 1427.82,-1174.78 1507.91,-1185.84"/>
<text text-anchor="middle" x="1373.54" y="-1191.73" font-family="Times,serif" font-size="14.00">Apache Software License 1.1</text>
</g>
<!-- 5885&#45;&gt;286 -->
<g id="edge36" class="edge">
<title>5885&#45;&gt;286</title>
<path fill="none" stroke="black" stroke-width="2" d="M1321.69,-1174.29C1215.97,-1129.31 1188.88,-1127.22 1090.9,-1160.84"/>
<polygon fill="black" stroke="black" stroke-width="2" points="1082.85,-1163.64 1090.82,-1156.11 1085.11,-1162.32 1092.13,-1159.89 1092.3,-1160.36 1092.46,-1160.83 1085.43,-1163.27 1093.77,-1164.61 1082.85,-1163.64"/>
</g>
<!-- 5885&#45;&gt;5883 -->
<g id="edge37" class="edge">
<title>5885&#45;&gt;5883</title>
<path fill="none" stroke="#e09d4b" stroke-dasharray="5,2" d="M1375.32,-1174.65C1399.04,-878.88 1400.33,-852.83 1376.51,-733.23"/>
<polygon fill="#e09d4b" stroke="#e09d4b" points="1374.61,-723.72 1380.98,-732.64 1375.35,-727.42 1376.57,-733.52 1376.57,-733.52 1376.57,-733.52 1375.35,-727.42 1372.16,-734.41 1374.61,-723.72"/>
</g>
<!-- 5885&#45;&gt;38643 -->
<g id="edge38" class="edge">
<title>5885&#45;&gt;38643</title>
<path fill="none" stroke="#00876c" stroke-dasharray="5,2" d="M1508.27,-1206.77C1517.58,-1210.3 1526.22,-1215.06 1535.79,-1221.48"/>
<polygon fill="#00876c" stroke="#00876c" points="1543.89,-1227.16 1533.12,-1225.11 1540.8,-1224.99 1535.71,-1221.42 1535.71,-1221.42 1535.71,-1221.42 1540.8,-1224.99 1538.29,-1217.74 1543.89,-1227.16"/>
</g>
<!-- 5885&#45;&gt;50276 -->
<g id="edge39" class="edge">
<title>5885&#45;&gt;50276</title>
<path fill="none" stroke="#b8bf62" stroke-width="2" d="M1386.04,-1219.04C1526.07,-1468.6 1531.18,-1486.25 1482.14,-1703.06"/>
<polygon fill="#b8bf62" stroke="#b8bf62" stroke-width="2" points="1480.23,-1711.5 1478.05,-1700.75 1480.31,-1708.89 1481.95,-1701.64 1482.44,-1701.75 1482.93,-1701.86 1481.28,-1709.11 1486.83,-1702.74 1480.23,-1711.5"/>
</g>
<!-- 5885&#45;&gt;54230 -->
<g id="edge40" class="edge">
<title>5885&#45;&gt;54230</title>
<path fill="none" stroke="#98b561" stroke-width="2" d="M1300.18,-1176.92C1159.47,-1140.03 1127.95,-1144.25 1006.15,-1207.44"/>
<polygon fill="#98b561" stroke="#98b561" stroke-width="2" points="998.61,-1211.37 1005.4,-1202.76 1000.65,-1209.74 1007.24,-1206.3 1007.48,-1206.75 1007.71,-1207.19 1001.11,-1210.63 1009.55,-1210.74 998.61,-1211.37"/>
</g>
<!-- 5886 -->
<g id="node15" class="node">
<title>5886</title>
<polygon fill="none" stroke="#e09d4b" points="1677.86,-359.12 1677.86,-374.03 1636.22,-384.57 1577.32,-384.57 1535.68,-374.03 1535.68,-359.12 1577.32,-348.57 1636.22,-348.57 1677.86,-359.12"/>
<text text-anchor="middle" x="1606.77" y="-361.52" font-family="Times,serif" font-size="14.00">MX4J License</text>
</g>
<!-- 5886&#45;&gt;5883 -->
<g id="edge41" class="edge">
<title>5886&#45;&gt;5883</title>
<path fill="none" stroke="#e09d4b" stroke-dasharray="5,2" d="M1587.05,-384.93C1514.53,-452.84 1502.18,-471.41 1388.23,-668.57"/>
<polygon fill="#e09d4b" stroke="#e09d4b" points="1383.33,-677.04 1384.44,-666.13 1385.22,-673.76 1388.33,-668.38 1388.33,-668.38 1388.33,-668.38 1385.22,-673.76 1392.23,-670.63 1383.33,-677.04"/>
</g>
<!-- 5887 -->
<g id="node16" class="node">
<title>5887</title>
<polygon fill="none" stroke="#e09d4b" points="1932.64,-449.82 1932.64,-464.73 1857.25,-475.27 1750.62,-475.27 1675.23,-464.73 1675.23,-449.82 1750.62,-439.27 1857.25,-439.27 1932.64,-449.82"/>
<text text-anchor="middle" x="1803.94" y="-452.22" font-family="Times,serif" font-size="14.00">Neotonic Clearsilver License</text>
</g>
<!-- 5887&#45;&gt;5883 -->
<g id="edge42" class="edge">
<title>5887&#45;&gt;5883</title>
<path fill="none" stroke="#e09d4b" stroke-dasharray="5,2" d="M1723.09,-471.88C1623.97,-492.79 1584.84,-521.71 1405.28,-670.9"/>
<polygon fill="#e09d4b" stroke="#e09d4b" points="1397.84,-677.08 1402.65,-667.23 1400.74,-674.66 1405.53,-670.69 1405.53,-670.69 1405.53,-670.69 1400.74,-674.66 1408.4,-674.15 1397.84,-677.08"/>
</g>
<!-- 5888 -->
<g id="node17" class="node">
<title>5888</title>
<polygon fill="none" stroke="#e09d4b" points="1825.23,-404.53 1825.23,-419.44 1776.45,-429.99 1707.45,-429.99 1658.67,-419.44 1658.67,-404.53 1707.45,-393.99 1776.45,-393.99 1825.23,-404.53"/>
<text text-anchor="middle" x="1741.95" y="-406.94" font-family="Times,serif" font-size="14.00">QuickFix License</text>
</g>
<!-- 5888&#45;&gt;5883 -->
<g id="edge43" class="edge">
<title>5888&#45;&gt;5883</title>
<path fill="none" stroke="#e09d4b" stroke-dasharray="5,2" d="M1697.97,-428.37C1592.6,-468.63 1568.41,-490.57 1398.66,-669.9"/>
<polygon fill="#e09d4b" stroke="#e09d4b" points="1391.83,-677.12 1395.44,-666.76 1394.43,-674.37 1398.71,-669.86 1398.71,-669.86 1398.71,-669.86 1394.43,-674.37 1401.97,-672.95 1391.83,-677.12"/>
</g>
<!-- 5889 -->
<g id="node18" class="node">
<title>5889</title>
<polygon fill="none" stroke="#e09d4b" points="1587.99,-287.59 1587.99,-302.5 1542.45,-313.04 1478.04,-313.04 1432.5,-302.5 1432.5,-287.59 1478.04,-277.04 1542.45,-277.04 1587.99,-287.59"/>
<text text-anchor="middle" x="1510.25" y="-289.99" font-family="Times,serif" font-size="14.00">Phorum License</text>
</g>
<!-- 5889&#45;&gt;5883 -->
<g id="edge44" class="edge">
<title>5889&#45;&gt;5883</title>
<path fill="none" stroke="#e09d4b" stroke-dasharray="5,2" d="M1502.5,-313.27C1461.16,-410.71 1455.24,-428.16 1380.17,-667.49"/>
<polygon fill="#e09d4b" stroke="#e09d4b" points="1377.26,-676.78 1375.95,-665.89 1378.39,-673.17 1380.25,-667.24 1380.25,-667.24 1380.25,-667.24 1378.39,-673.17 1384.54,-668.59 1377.26,-676.78"/>
</g>
<!-- 5890 -->
<g id="node19" class="node">
<title>5890</title>
<polygon fill="none" stroke="black" points="1891.7,-558.31 1891.7,-573.22 1823.45,-583.76 1726.92,-583.76 1658.66,-573.22 1658.66,-558.31 1726.92,-547.76 1823.45,-547.76 1891.7,-558.31"/>
<text text-anchor="middle" x="1775.18" y="-560.71" font-family="Times,serif" font-size="14.00">Sequence Library License</text>
</g>
<!-- 5890&#45;&gt;5883 -->
<g id="edge45" class="edge">
<title>5890&#45;&gt;5883</title>
<path fill="none" stroke="#e09d4b" stroke-dasharray="5,2" d="M1658.19,-562.49C1592.65,-567.35 1545.79,-592.65 1415.75,-672.19"/>
<polygon fill="#e09d4b" stroke="#e09d4b" points="1407.29,-677.37 1413.46,-668.32 1410.51,-675.4 1415.81,-672.15 1415.81,-672.15 1415.81,-672.15 1410.51,-675.4 1418.16,-675.99 1407.29,-677.37"/>
</g>
<!-- 5891 -->
<g id="node20" class="node">
<title>5891</title>
<polygon fill="none" stroke="black" points="1221.71,-1172.59 1221.71,-1187.5 1194.99,-1198.04 1157.21,-1198.04 1130.49,-1187.5 1130.49,-1172.59 1157.21,-1162.04 1194.99,-1162.04 1221.71,-1172.59"/>
<polygon fill="none" stroke="black" points="1225.71,-1169.87 1225.71,-1190.22 1195.75,-1202.04 1156.44,-1202.04 1126.49,-1190.22 1126.49,-1169.87 1156.44,-1158.04 1195.75,-1158.04 1225.71,-1169.87"/>
<text text-anchor="middle" x="1176.1" y="-1174.99" font-family="Times,serif" font-size="14.00">ASL 1.1</text>
</g>
<!-- 5891&#45;&gt;286 -->
<g id="edge46" class="edge">
<title>5891&#45;&gt;286</title>
<path fill="none" stroke="#78ab63" stroke-width="2" d="M1132.76,-1166.97C1113.55,-1161.74 1101.11,-1159.93 1088.61,-1161.55"/>
<polygon fill="#78ab63" stroke="#78ab63" stroke-width="2" points="1080.33,-1163.23 1089.23,-1156.83 1082.74,-1162.23 1090.03,-1160.75 1090.13,-1161.24 1090.23,-1161.73 1082.94,-1163.21 1091.02,-1165.65 1080.33,-1163.23"/>
</g>
<!-- 5891&#45;&gt;5883 -->
<g id="edge47" class="edge">
<title>5891&#45;&gt;5883</title>
<path fill="none" stroke="#e09d4b" stroke-dasharray="5,2" d="M1183.06,-1157.94C1275.42,-864.58 1284.84,-837.11 1350.06,-732.03"/>
<polygon fill="#e09d4b" stroke="#e09d4b" points="1355.27,-723.67 1353.8,-734.53 1353.27,-726.88 1349.98,-732.16 1349.98,-732.16 1349.98,-732.16 1353.27,-726.88 1346.16,-729.78 1355.27,-723.67"/>
</g>
<!-- 5891&#45;&gt;36356 -->
<g id="edge48" class="edge">
<title>5891&#45;&gt;36356</title>
<path fill="none" stroke="#379469" stroke-dasharray="5,2" d="M1126.72,-1169.3C945.08,-1129.99 909.57,-1126.4 820.01,-1160.17"/>
<polygon fill="#379469" stroke="#379469" points="810.84,-1163.68 818.56,-1155.9 814.37,-1162.33 820.18,-1160.1 820.18,-1160.1 820.18,-1160.1 814.37,-1162.33 821.79,-1164.3 810.84,-1163.68"/>
</g>
<!-- 5891&#45;&gt;38643 -->
<g id="edge49" class="edge">
<title>5891&#45;&gt;38643</title>
<path fill="none" stroke="#00876c" stroke-dasharray="5,2" d="M1226.15,-1173.68C1400.04,-1151.95 1427.68,-1154.96 1531.04,-1221.85"/>
<polygon fill="#00876c" stroke="#00876c" points="1539.26,-1227.2 1528.42,-1225.52 1536.09,-1225.14 1530.88,-1221.75 1530.88,-1221.75 1530.88,-1221.75 1536.09,-1225.14 1533.33,-1217.97 1539.26,-1227.2"/>
</g>
<!-- 5891&#45;&gt;50276 -->
<g id="edge50" class="edge">
<title>5891&#45;&gt;50276</title>
<path fill="none" stroke="#b8bf62" stroke-width="2" d="M1196.42,-1202.27C1438.05,-1466.68 1449.81,-1484.73 1471.37,-1702.86"/>
<polygon fill="#b8bf62" stroke="#b8bf62" stroke-width="2" points="1472.2,-1711.32 1466.74,-1701.8 1471.45,-1708.81 1470.72,-1701.41 1471.22,-1701.36 1471.72,-1701.31 1472.45,-1708.72 1475.7,-1700.92 1472.2,-1711.32"/>
</g>
<!-- 5892 -->
<g id="node21" class="node">
<title>5892</title>
<polygon fill="none" stroke="black" points="1414.81,-356.73 1414.81,-371.64 1389.06,-382.18 1352.65,-382.18 1326.91,-371.64 1326.91,-356.73 1352.65,-346.18 1389.06,-346.18 1414.81,-356.73"/>
<text text-anchor="middle" x="1370.86" y="-359.13" font-family="Times,serif" font-size="14.00">Phorum</text>
</g>
<!-- 5892&#45;&gt;5883 -->
<g id="edge51" class="edge">
<title>5892&#45;&gt;5883</title>
<path fill="none" stroke="#e09d4b" stroke-dasharray="5,2" d="M1372.76,-382.68C1380.88,-462.41 1380.69,-479.33 1371.51,-666.85"/>
<polygon fill="#e09d4b" stroke="#e09d4b" points="1371.03,-676.75 1367.02,-666.54 1371.21,-672.97 1371.51,-666.76 1371.51,-666.76 1371.51,-666.76 1371.21,-672.97 1376.01,-666.98 1371.03,-676.75"/>
</g>
<!-- 5893 -->
<g id="node22" class="node">
<title>5893</title>
<polygon fill="none" stroke="#e09d4b" points="1304.02,-356.55 1304.02,-371.46 1274.71,-382 1233.25,-382 1203.94,-371.46 1203.94,-356.55 1233.25,-346 1274.71,-346 1304.02,-356.55"/>
<text text-anchor="middle" x="1253.98" y="-358.95" font-family="Times,serif" font-size="14.00">Sequence</text>
</g>
<!-- 5893&#45;&gt;5883 -->
<g id="edge52" class="edge">
<title>5893&#45;&gt;5883</title>
<path fill="none" stroke="#e09d4b" stroke-dasharray="5,2" d="M1266.3,-382.47C1316.6,-458.31 1322.08,-475.75 1362.82,-667.16"/>
<polygon fill="#e09d4b" stroke="#e09d4b" points="1364.85,-676.71 1358.37,-667.87 1364.06,-673.01 1362.77,-666.93 1362.77,-666.93 1362.77,-666.93 1364.06,-673.01 1367.17,-666 1364.85,-676.71"/>
</g>
<!-- 8746 -->
<g id="node23" class="node">
<title>8746</title>
<ellipse fill="none" stroke="#00876c" cx="1830.97" cy="-854.11" rx="157.68" ry="28.99"/>
<text text-anchor="middle" x="1830.97" y="-857.31" font-family="Times,serif" font-size="14.00" fill="gray">BlueOakCouncil</text>
<text text-anchor="middle" x="1830.97" y="-840.81" font-family="Times,serif" font-size="14.00" fill="gray">a5380ce48ed68df8036fbe1985a01056</text>
</g>
<!-- 8746&#45;&gt;8747 -->
<g id="edge53" class="edge">
<title>8746&#45;&gt;8747</title>
<path fill="none" stroke="#00876c" d="M1725.31,-876.05C1657.15,-895.1 1603.67,-927.28 1439.08,-1032.08"/>
<polygon fill="#00876c" stroke="#00876c" points="1437.46,-1028.97 1430.9,-1037.29 1441.22,-1034.87 1437.46,-1028.97"/>
</g>
<!-- 9461 -->
<g id="node25" class="node">
<title>9461</title>
<ellipse fill="none" stroke="#58a066" cx="154.79" cy="-801.25" rx="155.03" ry="28.99"/>
<text text-anchor="middle" x="154.79" y="-804.45" font-family="Times,serif" font-size="14.00" fill="gray">OSADLRule</text>
<text text-anchor="middle" x="154.79" y="-787.95" font-family="Times,serif" font-size="14.00" fill="gray">4aec37544dfa0bccd5acd39f7f158231</text>
</g>
<!-- 9461&#45;&gt;9462 -->
<g id="edge54" class="edge">
<title>9461&#45;&gt;9462</title>
<path fill="none" stroke="#58a066" d="M297.83,-812.67C357.68,-823.77 425.7,-847.85 581.5,-905.67"/>
<polygon fill="#58a066" stroke="#58a066" points="579.88,-908.8 590.47,-909 582.32,-902.24 579.88,-908.8"/>
</g>
<!-- 9792 -->
<g id="node27" class="node">
<title>9792</title>
<ellipse fill="none" stroke="#58a066" cx="892.4" cy="-579.18" rx="159.81" ry="28.99"/>
<text text-anchor="middle" x="892.4" y="-582.38" font-family="Times,serif" font-size="14.00" fill="gray">OSADLMatrix</text>
<text text-anchor="middle" x="892.4" y="-565.88" font-family="Times,serif" font-size="14.00" fill="gray">58e59ba244d7732d49865f76c0c7be39</text>
</g>
<!-- 9792&#45;&gt;9462 -->
<g id="edge55" class="edge">
<title>9792&#45;&gt;9462</title>
<path fill="none" stroke="#58a066" d="M845.85,-607.22C726.14,-680.51 713.65,-704.18 653.15,-895.34"/>
<polygon fill="#58a066" stroke="#58a066" points="649.9,-894.03 650.22,-904.62 656.57,-896.14 649.9,-894.03"/>
</g>
<!-- 11733 -->
<g id="node29" class="node">
<title>11733</title>
<ellipse fill="none" stroke="#dac767" cx="1009.57" cy="-2087.3" rx="158.22" ry="28.99"/>
<text text-anchor="middle" x="1009.57" y="-2090.5" font-family="Times,serif" font-size="14.00" fill="gray">ScancodeData</text>
<text text-anchor="middle" x="1009.57" y="-2074" font-family="Times,serif" font-size="14.00" fill="gray">69ba2f08e73e6b630159bf0e67d426a2</text>
</g>
<!-- 11733&#45;&gt;11734 -->
<g id="edge56" class="edge">
<title>11733&#45;&gt;11734</title>
<path fill="none" stroke="#dac767" d="M1022.2,-2058.22C1070.11,-1947.7 1079.37,-1922.33 1179.3,-1638.88"/>
<polygon fill="#dac767" stroke="#dac767" points="1182.52,-1640.28 1182.54,-1629.68 1175.91,-1637.95 1182.52,-1640.28"/>
</g>
<!-- 11734&#45;&gt;38643 -->
<g id="edge57" class="edge">
<title>11734&#45;&gt;38643</title>
<path fill="none" stroke="#00876c" stroke-dasharray="5,2" d="M1226.57,-1583.77C1468.7,-1431.83 1488.73,-1415.24 1557.59,-1282.4"/>
<polygon fill="#00876c" stroke="#00876c" points="1562.07,-1273.72 1561.48,-1284.67 1560.34,-1277.08 1557.48,-1282.6 1557.48,-1282.6 1557.48,-1282.6 1560.34,-1277.08 1553.49,-1280.54 1562.07,-1273.72"/>
</g>
<!-- 11734&#45;&gt;50276 -->
<g id="edge58" class="edge">
<title>11734&#45;&gt;50276</title>
<path fill="none" stroke="#b8bf62" stroke-width="2" d="M1221.97,-1628.43C1290.41,-1677.2 1326.78,-1702.04 1358.92,-1715.7"/>
<polygon fill="#b8bf62" stroke="#b8bf62" stroke-width="2" points="1366.97,-1718.86 1356.02,-1719.39 1364.41,-1718.39 1357.48,-1715.67 1357.67,-1715.2 1357.85,-1714.74 1364.77,-1717.46 1359.31,-1711.02 1366.97,-1718.86"/>
</g>
<!-- 11735 -->
<g id="node31" class="node">
<title>11735</title>
<polygon fill="none" stroke="#dac767" points="1208.75,-1965.14 1208.75,-1980.05 1174.89,-1990.6 1127.01,-1990.6 1093.16,-1980.05 1093.16,-1965.14 1127.01,-1954.6 1174.89,-1954.6 1208.75,-1965.14"/>
<polygon fill="none" stroke="#dac767" points="1212.75,-1962.2 1212.75,-1982.99 1175.5,-1994.6 1126.4,-1994.6 1089.16,-1982.99 1089.16,-1962.2 1126.4,-1950.6 1175.5,-1950.6 1212.75,-1962.2"/>
<text text-anchor="middle" x="1150.95" y="-1967.55" font-family="Times,serif" font-size="14.00">Apache 1.1</text>
</g>
<!-- 11735&#45;&gt;11734 -->
<g id="edge59" class="edge">
<title>11735&#45;&gt;11734</title>
<path fill="none" stroke="#dac767" stroke-width="2" d="M1152.93,-1950.29C1160.5,-1865.41 1162.69,-1845.73 1186.92,-1639.42"/>
<polygon fill="#dac767" stroke="#dac767" stroke-width="2" points="1187.92,-1630.91 1191.22,-1641.36 1188.12,-1633.51 1187.25,-1640.9 1186.75,-1640.84 1186.26,-1640.78 1187.12,-1633.39 1182.28,-1640.31 1187.92,-1630.91"/>
</g>
<!-- 26029 -->
<g id="node32" class="node">
<title>26029</title>
<ellipse fill="none" stroke="#e18745" cx="455.71" cy="-1913.74" rx="161.4" ry="28.99"/>
<text text-anchor="middle" x="455.71" y="-1916.94" font-family="Times,serif" font-size="14.00" fill="gray">Fossology</text>
<text text-anchor="middle" x="455.71" y="-1900.44" font-family="Times,serif" font-size="14.00" fill="gray">f90d13ac19d333987306652451615638</text>
</g>
<!-- 26029&#45;&gt;26030 -->
<g id="edge60" class="edge">
<title>26029&#45;&gt;26030</title>
<path fill="none" stroke="#e18745" d="M473.78,-1884.53C540.79,-1776.9 561.02,-1757.27 781.1,-1569.82"/>
<polygon fill="#e18745" stroke="#e18745" points="783.19,-1572.63 788.54,-1563.49 778.65,-1567.3 783.19,-1572.63"/>
</g>
<!-- 28232 -->
<g id="node34" class="node">
<title>28232</title>
<ellipse fill="none" stroke="#379469" cx="616.43" cy="-1364.97" rx="156.62" ry="28.99"/>
<text text-anchor="middle" x="616.43" y="-1368.17" font-family="Times,serif" font-size="14.00" fill="gray">OKFN</text>
<text text-anchor="middle" x="616.43" y="-1351.67" font-family="Times,serif" font-size="14.00" fill="gray">c976f7cf38b57673ea8afd093dd29166</text>
</g>
<!-- 28232&#45;&gt;286 -->
<g id="edge61" class="edge">
<title>28232&#45;&gt;286</title>
<path fill="none" stroke="#379469" d="M644.63,-1336.27C734.1,-1246.15 760.56,-1234.08 964.37,-1194.28"/>
<polygon fill="#379469" stroke="#379469" points="964.85,-1197.75 973.99,-1192.41 963.51,-1190.88 964.85,-1197.75"/>
</g>
<!-- 28500 -->
<g id="node35" class="node">
<title>28500</title>
<ellipse fill="none" stroke="#e06f45" cx="498.67" cy="-721.17" rx="156.62" ry="28.99"/>
<text text-anchor="middle" x="498.67" y="-724.37" font-family="Times,serif" font-size="14.00" fill="gray">OrtLicenseCategorization</text>
<text text-anchor="middle" x="498.67" y="-707.87" font-family="Times,serif" font-size="14.00" fill="gray">e597ccca26c7332bbf999daf416bc47b</text>
</g>
<!-- 28500&#45;&gt;285 -->
<g id="edge62" class="edge">
<title>28500&#45;&gt;285</title>
<path fill="none" stroke="#e06f45" d="M647.7,-711.95C711.81,-717.49 773.83,-743.76 922.29,-812.27"/>
<polygon fill="#e06f45" stroke="#e06f45" points="920.75,-815.41 931.29,-816.43 923.68,-809.06 920.75,-815.41"/>
</g>
<!-- 35357 -->
<g id="node36" class="node">
<title>35357</title>
<ellipse fill="none" stroke="#e09d4b" cx="905.68" cy="-344.18" rx="156.09" ry="28.99"/>
<text text-anchor="middle" x="905.68" y="-347.38" font-family="Times,serif" font-size="14.00" fill="gray">OrtLicenseCategorization</text>
<text text-anchor="middle" x="905.68" y="-330.88" font-family="Times,serif" font-size="14.00" fill="gray">802bc7248aed3cb4f0d7a60fc9e0ae21</text>
</g>
<!-- 35357&#45;&gt;285 -->
<g id="edge63" class="edge">
<title>35357&#45;&gt;285</title>
<path fill="none" stroke="#e09d4b" d="M906.51,-373.36C910.06,-493.13 914.11,-517.65 969.66,-803.72"/>
<polygon fill="#e09d4b" stroke="#e09d4b" points="966.2,-804.25 971.54,-813.4 973.07,-802.92 966.2,-804.25"/>
</g>
<!-- 36355 -->
<g id="node37" class="node">
<title>36355</title>
<ellipse fill="none" stroke="#379469" cx="271.89" cy="-1325.66" rx="158.75" ry="28.99"/>
<text text-anchor="middle" x="271.89" y="-1328.86" font-family="Times,serif" font-size="14.00" fill="gray">CavilLicenseChange</text>
<text text-anchor="middle" x="271.89" y="-1312.36" font-family="Times,serif" font-size="14.00" fill="gray">5b3ec73fa3651460d9070446b3e2f48b</text>
</g>
<!-- 36355&#45;&gt;36356 -->
<g id="edge64" class="edge">
<title>36355&#45;&gt;36356</title>
<path fill="none" stroke="#379469" d="M314.94,-1297.31C409.85,-1235.98 446.8,-1225.49 666.07,-1196.07"/>
<polygon fill="#379469" stroke="#379469" points="666.38,-1199.56 675.83,-1194.77 665.45,-1192.62 666.38,-1199.56"/>
</g>
<!-- 36357 -->
<g id="node39" class="node">
<title>36357</title>
<polygon fill="none" stroke="#379469" points="423.23,-1148.42 423.23,-1163.33 340.05,-1173.87 222.41,-1173.87 139.23,-1163.33 139.23,-1148.42 222.41,-1137.87 340.05,-1137.87 423.23,-1148.42"/>
<text text-anchor="middle" x="281.23" y="-1150.82" font-family="Times,serif" font-size="14.00">Apache 1.1 (Indiana University)</text>
</g>
<!-- 36357&#45;&gt;36356 -->
<g id="edge65" class="edge">
<title>36357&#45;&gt;36356</title>
<path fill="none" stroke="#379469" stroke-dasharray="5,2" d="M387.76,-1143.46C450.04,-1139.75 509.3,-1146.6 670.15,-1169.98"/>
<polygon fill="#379469" stroke="#379469" points="679.69,-1171.37 669.15,-1174.38 675.95,-1170.83 669.8,-1169.93 669.8,-1169.93 669.8,-1169.93 675.95,-1170.83 670.44,-1165.48 679.69,-1171.37"/>
</g>
<!-- 36364 -->
<g id="node40" class="node">
<title>36364</title>
<polygon fill="none" stroke="black" points="2039.18,-1316.76 2039.18,-1331.67 1994.62,-1342.21 1931.59,-1342.21 1887.02,-1331.67 1887.02,-1316.76 1931.59,-1306.21 1994.62,-1306.21 2039.18,-1316.76"/>
<text text-anchor="middle" x="1963.1" y="-1319.16" font-family="Times,serif" font-size="14.00">Apache License</text>
</g>
<!-- 36364&#45;&gt;38643 -->
<g id="edge66" class="edge">
<title>36364&#45;&gt;38643</title>
<path fill="none" stroke="#00876c" stroke-dasharray="5,2" d="M1927.49,-1306.83C1864.62,-1276.82 1833.41,-1267.93 1726.99,-1259.83"/>
<polygon fill="#00876c" stroke="#00876c" points="1717.32,-1259.12 1727.63,-1255.37 1721.09,-1259.4 1727.29,-1259.85 1727.29,-1259.85 1727.29,-1259.85 1721.09,-1259.4 1726.96,-1264.34 1717.32,-1259.12"/>
</g>
<!-- 38642 -->
<g id="node41" class="node">
<title>38642</title>
<ellipse fill="none" stroke="#00876c" cx="2098.75" cy="-1159.8" rx="155.03" ry="28.99"/>
<text text-anchor="middle" x="2098.75" y="-1163" font-family="Times,serif" font-size="14.00" fill="gray">MetaeffektLicense</text>
<text text-anchor="middle" x="2098.75" y="-1146.5" font-family="Times,serif" font-size="14.00" fill="gray">6b3f3a0bdf440b1ea0eda23279cc6e5f</text>
</g>
<!-- 38642&#45;&gt;38643 -->
<g id="edge67" class="edge">
<title>38642&#45;&gt;38643</title>
<path fill="none" stroke="#00876c" d="M1953.24,-1170.15C1893.33,-1177.99 1822.87,-1193.26 1668.04,-1228.69"/>
<polygon fill="#00876c" stroke="#00876c" points="1667.68,-1225.18 1658.71,-1230.82 1669.24,-1232 1667.68,-1225.18"/>
</g>
<!-- 38644 -->
<g id="node43" class="node">
<title>38644</title>
<polygon fill="none" stroke="black" points="1955.91,-1690.35 1955.91,-1705.26 1883.11,-1715.8 1780.15,-1715.8 1707.36,-1705.26 1707.36,-1690.35 1780.15,-1679.8 1883.11,-1679.8 1955.91,-1690.35"/>
<polygon fill="none" stroke="black" points="1959.91,-1686.88 1959.91,-1708.72 1883.4,-1719.8 1779.87,-1719.8 1703.36,-1708.72 1703.36,-1686.88 1779.87,-1675.8 1883.4,-1675.8 1959.91,-1686.88"/>
<text text-anchor="middle" x="1831.63" y="-1692.75" font-family="Times,serif" font-size="14.00">Apache License Version 1.1</text>
</g>
<!-- 38644&#45;&gt;38643 -->
<g id="edge68" class="edge">
<title>38644&#45;&gt;38643</title>
<path fill="none" stroke="#00876c" stroke-dasharray="5,2" d="M1828.97,-1675.45C1806.71,-1490.19 1798.42,-1474.21 1604.48,-1280.51"/>
<polygon fill="#00876c" stroke="#00876c" points="1597.47,-1273.51 1607.72,-1277.39 1600.14,-1276.18 1604.54,-1280.58 1604.54,-1280.58 1604.54,-1280.58 1600.14,-1276.18 1601.37,-1283.76 1597.47,-1273.51"/>
</g>
<!-- 38644&#45;&gt;50276 -->
<g id="edge69" class="edge">
<title>38644&#45;&gt;50276</title>
<path fill="none" stroke="#b8bf62" stroke-width="2" d="M1784.92,-1720.22C1734.48,-1743.2 1703.93,-1750 1631.35,-1747.27"/>
<polygon fill="#b8bf62" stroke="#b8bf62" stroke-width="2" points="1622.76,-1746.9 1632.94,-1742.83 1625.34,-1746.51 1632.77,-1746.83 1632.75,-1747.33 1632.73,-1747.83 1625.3,-1747.51 1632.56,-1751.83 1622.76,-1746.9"/>
</g>
<!-- 38645 -->
<g id="node44" class="node">
<title>38645</title>
<polygon fill="none" stroke="black" points="1890.94,-1630.07 1890.94,-1644.98 1795.43,-1655.53 1660.35,-1655.53 1564.83,-1644.98 1564.83,-1630.07 1660.35,-1619.53 1795.43,-1619.53 1890.94,-1630.07"/>
<polygon fill="none" stroke="black" points="1894.94,-1626.49 1894.94,-1648.56 1795.65,-1659.53 1660.13,-1659.53 1560.83,-1648.56 1560.83,-1626.49 1660.13,-1615.53 1795.65,-1615.53 1894.94,-1626.49"/>
<text text-anchor="middle" x="1727.89" y="-1632.48" font-family="Times,serif" font-size="14.00">Apache Software License Version 1.1</text>
</g>
<!-- 38645&#45;&gt;38643 -->
<g id="edge70" class="edge">
<title>38645&#45;&gt;38643</title>
<path fill="none" stroke="#00876c" stroke-dasharray="5,2" d="M1728.62,-1615.26C1733.77,-1454.29 1728.61,-1438.28 1599.57,-1281.14"/>
<polygon fill="#00876c" stroke="#00876c" points="1593.3,-1273.51 1603.12,-1278.38 1595.7,-1276.43 1599.65,-1281.24 1599.65,-1281.24 1599.65,-1281.24 1595.7,-1276.43 1596.17,-1284.09 1593.3,-1273.51"/>
</g>
<!-- 38645&#45;&gt;50276 -->
<g id="edge71" class="edge">
<title>38645&#45;&gt;50276</title>
<path fill="none" stroke="#b8bf62" stroke-width="2" d="M1704.67,-1659.95C1667.82,-1694.91 1647.52,-1709 1601.12,-1718.83"/>
<polygon fill="#b8bf62" stroke="#b8bf62" stroke-width="2" points="1592.52,-1720.53 1601.46,-1714.18 1594.94,-1719.54 1602.24,-1718.1 1602.33,-1718.59 1602.43,-1719.08 1595.13,-1720.52 1603.2,-1723.01 1592.52,-1720.53"/>
</g>
<!-- 38646 -->
<g id="node45" class="node">
<title>38646</title>
<polygon fill="none" stroke="black" points="2177.67,-1601.93 2177.67,-1616.84 2098.38,-1627.39 1986.25,-1627.39 1906.96,-1616.84 1906.96,-1601.93 1986.25,-1591.39 2098.38,-1591.39 2177.67,-1601.93"/>
<polygon fill="none" stroke="black" points="2181.67,-1598.43 2181.67,-1620.35 2098.64,-1631.39 1985.98,-1631.39 1902.96,-1620.35 1902.96,-1598.43 1985.98,-1587.39 2098.64,-1587.39 2181.67,-1598.43"/>
<text text-anchor="middle" x="2042.31" y="-1604.34" font-family="Times,serif" font-size="14.00">Apache Software License v1.1</text>
</g>
<!-- 38646&#45;&gt;38643 -->
<g id="edge72" class="edge">
<title>38646&#45;&gt;38643</title>
<path fill="none" stroke="#00876c" stroke-dasharray="5,2" d="M2027.95,-1586.95C1931.36,-1436.47 1913.01,-1421.46 1628.33,-1277.59"/>
<polygon fill="#00876c" stroke="#00876c" points="1619.61,-1273.18 1630.57,-1273.68 1622.99,-1274.89 1628.54,-1277.69 1628.54,-1277.69 1628.54,-1277.69 1622.99,-1274.89 1626.51,-1281.71 1619.61,-1273.18"/>
</g>
<!-- 38646&#45;&gt;50276 -->
<g id="edge73" class="edge">
<title>38646&#45;&gt;50276</title>
<path fill="none" stroke="#b8bf62" stroke-width="2" d="M2006.04,-1631.74C1887.29,-1704.26 1848.92,-1717.32 1631.46,-1728.84"/>
<polygon fill="#b8bf62" stroke="#b8bf62" stroke-width="2" points="1622.72,-1729.3 1632.47,-1724.28 1625.25,-1728.66 1632.68,-1728.28 1632.71,-1728.77 1632.73,-1729.27 1625.31,-1729.66 1632.94,-1733.27 1622.72,-1729.3"/>
</g>
<!-- 38647 -->
<g id="node46" class="node">
<title>38647</title>
<polygon fill="none" stroke="#00876c" points="2248.51,-953.95 2248.51,-968.86 2146.83,-979.41 2003.04,-979.41 1901.35,-968.86 1901.35,-953.95 2003.04,-943.41 2146.83,-943.41 2248.51,-953.95"/>
<text text-anchor="middle" x="2074.93" y="-956.36" font-family="Times,serif" font-size="14.00">http://apache.org/licenses/LICENSE&#45;1.1</text>
</g>
<!-- 38647&#45;&gt;38643 -->
<g id="edge74" class="edge">
<title>38647&#45;&gt;38643</title>
<path fill="none" stroke="#00876c" stroke-dasharray="5,2" d="M2043.98,-979.77C1930.15,-1047.26 1902.46,-1063.17 1623.18,-1222.29"/>
<polygon fill="#00876c" stroke="#00876c" points="1614.63,-1227.16 1621.09,-1218.3 1617.91,-1225.29 1623.32,-1222.21 1623.32,-1222.21 1623.32,-1222.21 1617.91,-1225.29 1625.54,-1226.12 1614.63,-1227.16"/>
</g>
<!-- 38649 -->
<g id="node47" class="node">
<title>38649</title>
<polygon fill="none" stroke="#00876c" points="2439.42,-1426.42 2439.42,-1441.33 2311.13,-1451.88 2129.7,-1451.88 2001.41,-1441.33 2001.41,-1426.42 2129.7,-1415.88 2311.13,-1415.88 2439.42,-1426.42"/>
<text text-anchor="middle" x="2220.42" y="-1428.83" font-family="Times,serif" font-size="14.00">The OpenSymphony Software License, Version 1.1</text>
</g>
<!-- 38649&#45;&gt;38643 -->
<g id="edge75" class="edge">
<title>38649&#45;&gt;38643</title>
<path fill="none" stroke="#00876c" stroke-dasharray="5,2" d="M2188.82,-1415.47C2044.26,-1331.61 2009.7,-1320.2 1688.35,-1268.48"/>
<polygon fill="#00876c" stroke="#00876c" points="1678.49,-1266.89 1689.08,-1264.04 1682.22,-1267.49 1688.36,-1268.48 1688.36,-1268.48 1688.36,-1268.48 1682.22,-1267.49 1687.65,-1272.92 1678.49,-1266.89"/>
</g>
<!-- 38650 -->
<g id="node48" class="node">
<title>38650</title>
<polygon fill="none" stroke="#00876c" points="2368.65,-1271.49 2368.65,-1286.4 2263.4,-1296.95 2114.56,-1296.95 2009.31,-1286.4 2009.31,-1271.49 2114.56,-1260.95 2263.4,-1260.95 2368.65,-1271.49"/>
<text text-anchor="middle" x="2188.98" y="-1273.9" font-family="Times,serif" font-size="14.00">The P6Spy Software License, Version 1.1</text>
</g>
<!-- 38650&#45;&gt;38643 -->
<g id="edge76" class="edge">
<title>38650&#45;&gt;38643</title>
<path fill="none" stroke="#00876c" stroke-dasharray="5,2" d="M2112.11,-1260.69C2009.93,-1237.9 1953.89,-1235.79 1726.84,-1244.22"/>
<polygon fill="#00876c" stroke="#00876c" points="1717.11,-1244.59 1726.94,-1239.72 1720.89,-1244.45 1727.11,-1244.21 1727.11,-1244.21 1727.11,-1244.21 1720.89,-1244.45 1727.28,-1248.71 1717.11,-1244.59"/>
</g>
<!-- 38651 -->
<g id="node49" class="node">
<title>38651</title>
<polygon fill="none" stroke="black" points="2392.77,-1064.06 2392.77,-1078.97 2275.84,-1089.52 2110.47,-1089.52 1993.54,-1078.97 1993.54,-1064.06 2110.47,-1053.52 2275.84,-1053.52 2392.77,-1064.06"/>
<text text-anchor="middle" x="2193.15" y="-1066.47" font-family="Times,serif" font-size="14.00">The CyberNeko Software License, Version 1.0</text>
</g>
<!-- 38651&#45;&gt;38643 -->
<g id="edge77" class="edge">
<title>38651&#45;&gt;38643</title>
<path fill="none" stroke="#00876c" stroke-dasharray="5,2" d="M2106.9,-1089.63C1998.19,-1113.3 1936.95,-1132.32 1650.08,-1225.54"/>
<polygon fill="#00876c" stroke="#00876c" points="1640.94,-1228.51 1649.06,-1221.14 1644.54,-1227.34 1650.45,-1225.42 1650.45,-1225.42 1650.45,-1225.42 1644.54,-1227.34 1651.84,-1229.7 1640.94,-1228.51"/>
</g>
<!-- 38652 -->
<g id="node50" class="node">
<title>38652</title>
<polygon fill="none" stroke="#00876c" points="2217.96,-1471.72 2217.96,-1486.63 2126.99,-1497.18 1998.34,-1497.18 1907.37,-1486.63 1907.37,-1471.72 1998.34,-1461.18 2126.99,-1461.18 2217.96,-1471.72"/>
<text text-anchor="middle" x="2062.66" y="-1474.13" font-family="Times,serif" font-size="14.00">https://spdx.org/licenses/apache&#45;1.1</text>
</g>
<!-- 38652&#45;&gt;38643 -->
<g id="edge78" class="edge">
<title>38652&#45;&gt;38643</title>
<path fill="none" stroke="#00876c" stroke-dasharray="5,2" d="M2043.12,-1460.99C1935.17,-1360.82 1911.74,-1347.91 1656.26,-1273.9"/>
<polygon fill="#00876c" stroke="#00876c" points="1646.67,-1271.13 1657.53,-1269.59 1650.3,-1272.18 1656.27,-1273.91 1656.27,-1273.91 1656.27,-1273.91 1650.3,-1272.18 1655.02,-1278.23 1646.67,-1271.13"/>
</g>
<!-- 49940 -->
<g id="node51" class="node">
<title>49940</title>
<ellipse fill="none" stroke="#dc574a" cx="550.73" cy="-510.82" rx="160.87" ry="28.99"/>
<text text-anchor="middle" x="550.73" y="-514.02" font-family="Times,serif" font-size="14.00" fill="gray">HermineLicense</text>
<text text-anchor="middle" x="550.73" y="-497.52" font-family="Times,serif" font-size="14.00" fill="gray">0219e9fdb70679626a30a09d82253927</text>
</g>
<!-- 49940&#45;&gt;285 -->
<g id="edge79" class="edge">
<title>49940&#45;&gt;285</title>
<path fill="none" stroke="#dc574a" d="M610.57,-538.15C709.22,-584.84 743.93,-615.7 944.61,-807.08"/>
<polygon fill="#dc574a" stroke="#dc574a" points="941.99,-809.43 951.64,-813.8 946.82,-804.36 941.99,-809.43"/>
</g>
<!-- 50275 -->
<g id="node52" class="node">
<title>50275</title>
<ellipse fill="none" stroke="#b8bf62" cx="1358.96" cy="-2310.21" rx="158.75" ry="28.99"/>
<text text-anchor="middle" x="1358.96" y="-2313.41" font-family="Times,serif" font-size="14.00" fill="gray">FossLicense</text>
<text text-anchor="middle" x="1358.96" y="-2296.91" font-family="Times,serif" font-size="14.00" fill="gray">e6685632c0cac7e585d405ee02156ea9</text>
</g>
<!-- 50275&#45;&gt;50276 -->
<g id="edge80" class="edge">
<title>50275&#45;&gt;50276</title>
<path fill="none" stroke="#b8bf62" d="M1374.76,-2280.95C1451.93,-2137.32 1455.36,-2112.28 1472.9,-1769.77"/>
<polygon fill="#b8bf62" stroke="#b8bf62" points="1476.38,-1770.18 1473.39,-1760.01 1469.39,-1769.82 1476.38,-1770.18"/>
</g>
<!-- 50277 -->
<g id="node54" class="node">
<title>50277</title>
<polygon fill="none" stroke="black" points="1260.13,-1480.94 1260.13,-1495.85 1219.46,-1506.39 1161.94,-1506.39 1121.26,-1495.85 1121.26,-1480.94 1161.94,-1470.39 1219.46,-1470.39 1260.13,-1480.94"/>
<polygon fill="none" stroke="black" points="1264.13,-1477.84 1264.13,-1498.94 1219.97,-1510.39 1161.43,-1510.39 1117.26,-1498.94 1117.26,-1477.84 1161.43,-1466.39 1219.97,-1466.39 1264.13,-1477.84"/>
<text text-anchor="middle" x="1190.7" y="-1483.34" font-family="Times,serif" font-size="14.00">Apache (v1.1)</text>
</g>
<!-- 50277&#45;&gt;286 -->
<g id="edge81" class="edge">
<title>50277&#45;&gt;286</title>
<path fill="none" stroke="#78ab63" stroke-width="2" d="M1176.77,-1466.13C1077.6,-1307.51 1064.84,-1285.42 1044.43,-1213.44"/>
<polygon fill="#78ab63" stroke="#78ab63" stroke-width="2" points="1042.15,-1205.28 1049.18,-1213.7 1043.32,-1207.61 1045.33,-1214.77 1044.85,-1214.91 1044.36,-1215.04 1042.36,-1207.88 1040.51,-1216.12 1042.15,-1205.28"/>
</g>
<!-- 50277&#45;&gt;50276 -->
<g id="edge82" class="edge">
<title>50277&#45;&gt;50276</title>
<path fill="none" stroke="#b8bf62" stroke-width="2" d="M1212.6,-1510.71C1343.82,-1644.42 1371.13,-1671.15 1428.38,-1707.73"/>
<polygon fill="#b8bf62" stroke="#b8bf62" stroke-width="2" points="1435.78,-1712.4 1424.93,-1710.87 1433.35,-1711.45 1427.06,-1707.49 1427.33,-1707.06 1427.59,-1706.64 1433.88,-1710.61 1429.73,-1703.26 1435.78,-1712.4"/>
</g>
<!-- 50278 -->
<g id="node55" class="node">
<title>50278</title>
<polygon fill="none" stroke="#b8bf62" points="1869.25,-2117.92 1869.25,-2132.83 1810.41,-2143.37 1727.19,-2143.37 1668.34,-2132.83 1668.34,-2117.92 1727.19,-2107.37 1810.41,-2107.37 1869.25,-2117.92"/>
<polygon fill="none" stroke="#b8bf62" points="1873.25,-2114.57 1873.25,-2136.17 1810.76,-2147.37 1726.83,-2147.37 1664.34,-2136.17 1664.34,-2114.57 1726.83,-2103.37 1810.76,-2103.37 1873.25,-2114.57"/>
<text text-anchor="middle" x="1768.8" y="-2120.32" font-family="Times,serif" font-size="14.00">scancode://apache&#45;1.1</text>
</g>
<!-- 50278&#45;&gt;50276 -->
<g id="edge83" class="edge">
<title>50278&#45;&gt;50276</title>
<path fill="none" stroke="#b8bf62" stroke-width="2" d="M1752.86,-2103.1C1685.62,-2009.22 1670.89,-1989.87 1498.56,-1767.11"/>
<polygon fill="#b8bf62" stroke="#b8bf62" stroke-width="2" points="1493.33,-1760.35 1503,-1765.5 1495.29,-1762.07 1499.84,-1767.95 1499.44,-1768.26 1499.05,-1768.56 1494.5,-1762.68 1495.88,-1771.01 1493.33,-1760.35"/>
</g>
<!-- 50279 -->
<g id="node56" class="node">
<title>50279</title>
<polygon fill="none" stroke="#b8bf62" points="2173.08,-2064.42 2173.08,-2079.33 2071.4,-2089.88 1927.6,-2089.88 1825.92,-2079.33 1825.92,-2064.42 1927.6,-2053.88 2071.4,-2053.88 2173.08,-2064.42"/>
<polygon fill="none" stroke="#b8bf62" points="2177.08,-2060.81 2177.08,-2082.94 2071.61,-2093.88 1927.4,-2093.88 1821.92,-2082.94 1821.92,-2060.81 1927.4,-2049.88 2071.61,-2049.88 2177.08,-2060.81"/>
<text text-anchor="middle" x="1999.5" y="-2066.83" font-family="Times,serif" font-size="14.00">http://apache.org/licenses/LICENSE&#45;1.1</text>
</g>
<!-- 50279&#45;&gt;50276 -->
<g id="edge84" class="edge">
<title>50279&#45;&gt;50276</title>
<path fill="none" stroke="#b8bf62" stroke-width="2" d="M1954.58,-2049.39C1832.1,-1987.67 1798.39,-1964.93 1514.96,-1764.67"/>
<polygon fill="#b8bf62" stroke="#b8bf62" stroke-width="2" points="1508.06,-1759.8 1518.83,-1761.89 1510.44,-1760.87 1516.52,-1765.16 1516.23,-1765.57 1515.94,-1765.98 1509.87,-1761.69 1513.63,-1769.24 1508.06,-1759.8"/>
</g>
<!-- 50280 -->
<g id="node57" class="node">
<title>50280</title>
<polygon fill="none" stroke="#b8bf62" points="1888.73,-2264 1888.73,-2278.91 1797.76,-2289.46 1669.11,-2289.46 1578.14,-2278.91 1578.14,-2264 1669.11,-2253.46 1797.76,-2253.46 1888.73,-2264"/>
<polygon fill="none" stroke="#b8bf62" points="1892.73,-2260.44 1892.73,-2282.48 1797.99,-2293.46 1668.88,-2293.46 1574.14,-2282.48 1574.14,-2260.44 1668.88,-2249.46 1797.99,-2249.46 1892.73,-2260.44"/>
<text text-anchor="middle" x="1733.43" y="-2266.41" font-family="Times,serif" font-size="14.00">https://spdx.org/licenses/apache&#45;1.1</text>
</g>
<!-- 50280&#45;&gt;50276 -->
<g id="edge85" class="edge">
<title>50280&#45;&gt;50276</title>
<path fill="none" stroke="#b8bf62" stroke-width="2" d="M1725.21,-2249.15C1672.31,-2105.87 1662.59,-2086.38 1491.55,-1767.72"/>
<polygon fill="#b8bf62" stroke="#b8bf62" stroke-width="2" points="1487.6,-1760.35 1496.29,-1767.03 1489.25,-1762.37 1492.77,-1768.92 1492.33,-1769.16 1491.89,-1769.4 1488.37,-1762.84 1488.36,-1771.29 1487.6,-1760.35"/>
</g>
<!-- 50281 -->
<g id="node58" class="node">
<title>50281</title>
<polygon fill="none" stroke="#b8bf62" points="1554.48,-2219.15 1554.48,-2234.07 1498.88,-2244.61 1420.25,-2244.61 1364.65,-2234.07 1364.65,-2219.15 1420.25,-2208.61 1498.88,-2208.61 1554.48,-2219.15"/>
<polygon fill="none" stroke="#b8bf62" points="1558.48,-2215.84 1558.48,-2237.38 1499.25,-2248.61 1419.87,-2248.61 1360.65,-2237.38 1360.65,-2215.84 1419.87,-2204.61 1499.25,-2204.61 1558.48,-2215.84"/>
<text text-anchor="middle" x="1459.56" y="-2221.56" font-family="Times,serif" font-size="14.00">scancode:apache&#45;1.1</text>
</g>
<!-- 50281&#45;&gt;50276 -->
<g id="edge86" class="edge">
<title>50281&#45;&gt;50276</title>
<path fill="none" stroke="#b8bf62" stroke-width="2" d="M1466.43,-2204.4C1506.31,-2074.69 1506.3,-2055.28 1477.94,-1769.61"/>
<polygon fill="#b8bf62" stroke="#b8bf62" stroke-width="2" points="1477.07,-1760.88 1482.54,-1770.39 1477.82,-1763.38 1478.56,-1770.78 1478.06,-1770.83 1477.56,-1770.88 1476.83,-1763.48 1473.58,-1771.28 1477.07,-1760.88"/>
</g>
<!-- 50282 -->
<g id="node59" class="node">
<title>50282</title>
<polygon fill="none" stroke="#b8bf62" points="1646.95,-2165.63 1646.95,-2180.54 1604.33,-2191.09 1544.05,-2191.09 1501.44,-2180.54 1501.44,-2165.63 1544.05,-2155.09 1604.33,-2155.09 1646.95,-2165.63"/>
<polygon fill="none" stroke="#b8bf62" points="1650.95,-2162.5 1650.95,-2183.68 1604.81,-2195.09 1543.57,-2195.09 1497.44,-2183.68 1497.44,-2162.5 1543.57,-2151.09 1604.81,-2151.09 1650.95,-2162.5"/>
<text text-anchor="middle" x="1574.19" y="-2168.04" font-family="Times,serif" font-size="14.00">osi:Apache&#45;1.1</text>
</g>
<!-- 50282&#45;&gt;50276 -->
<g id="edge87" class="edge">
<title>50282&#45;&gt;50276</title>
<path fill="none" stroke="#b8bf62" stroke-width="2" d="M1573.53,-2150.72C1569.94,-2035.69 1565.18,-2016.71 1485.19,-1768.91"/>
<polygon fill="#b8bf62" stroke="#b8bf62" stroke-width="2" points="1482.57,-1760.79 1489.92,-1768.92 1483.83,-1763.08 1486.12,-1770.15 1485.64,-1770.31 1485.16,-1770.46 1482.88,-1763.38 1481.36,-1771.69 1482.57,-1760.79"/>
</g>
<!-- 50930 -->
<g id="node60" class="node">
<title>50930</title>
<ellipse fill="none" stroke="#dac767" cx="213.17" cy="-1752.99" rx="159.28" ry="28.99"/>
<text text-anchor="middle" x="213.17" y="-1756.19" font-family="Times,serif" font-size="14.00" fill="gray">FOSSLight</text>
<text text-anchor="middle" x="213.17" y="-1739.69" font-family="Times,serif" font-size="14.00" fill="gray">c845dcdd79d3dda7470df4591a8e762c</text>
</g>
<!-- 50930&#45;&gt;50931 -->
<g id="edge88" class="edge">
<title>50930&#45;&gt;50931</title>
<path fill="none" stroke="#dac767" d="M249.37,-1724.3C346.09,-1648.29 379.47,-1631.1 644.02,-1511.64"/>
<polygon fill="#dac767" stroke="#dac767" points="645.29,-1514.91 652.96,-1507.6 642.41,-1508.53 645.29,-1514.91"/>
</g>
<!-- 51245 -->
<g id="node62" class="node">
<title>51245</title>
<ellipse fill="none" stroke="#d43d51" cx="276.51" cy="-2850.51" rx="159.81" ry="28.99"/>
<text text-anchor="middle" x="276.51" y="-2853.71" font-family="Times,serif" font-size="14.00" fill="gray">HitachiOpenLicense</text>
<text text-anchor="middle" x="276.51" y="-2837.21" font-family="Times,serif" font-size="14.00" fill="gray">30cfec8573927c03a87664182214d0b0</text>
</g>
<!-- 51245&#45;&gt;51246 -->
<g id="edge89" class="edge">
<title>51245&#45;&gt;51246</title>
<path fill="none" stroke="#d43d51" d="M292.09,-2821.29C360.82,-2692.55 375.63,-2668.01 565.28,-2360.99"/>
<polygon fill="#d43d51" stroke="#d43d51" points="568.16,-2363 570.44,-2352.65 562.2,-2359.32 568.16,-2363"/>
</g>
<!-- 54229 -->
<g id="node64" class="node">
<title>54229</title>
<ellipse fill="none" stroke="#98b561" cx="1231.35" cy="-896.82" rx="156.09" ry="28.99"/>
<text text-anchor="middle" x="1231.35" y="-900.02" font-family="Times,serif" font-size="14.00" fill="gray">EclipseLicense</text>
<text text-anchor="middle" x="1231.35" y="-883.52" font-family="Times,serif" font-size="14.00" fill="gray">784ad9f99617f95b3fe6f232048483c0</text>
</g>
<!-- 54229&#45;&gt;54230 -->
<g id="edge90" class="edge">
<title>54229&#45;&gt;54230</title>
<path fill="none" stroke="#98b561" d="M1178.68,-924.48C1069.89,-983.26 1053.87,-1010.01 969.73,-1201.43"/>
<polygon fill="#98b561" stroke="#98b561" points="966.58,-1199.92 965.76,-1210.48 972.98,-1202.73 966.58,-1199.92"/>
</g>
<!-- 56008 -->
<g id="node66" class="node">
<title>56008</title>
<ellipse fill="none" stroke="#78ab63" cx="538.31" cy="-1244.14" rx="158.75" ry="28.99"/>
<text text-anchor="middle" x="538.31" y="-1247.34" font-family="Times,serif" font-size="14.00" fill="gray">Curation</text>
<text text-anchor="middle" x="538.31" y="-1230.84" font-family="Times,serif" font-size="14.00" fill="gray">d601ae313cda0a0d14c5f158004ed383</text>
</g>
<!-- 56008&#45;&gt;286 -->
<g id="edge91" class="edge">
<title>56008&#45;&gt;286</title>
<path fill="none" stroke="#78ab63" d="M595.07,-1216.72C694.25,-1170.58 735.57,-1167.8 961.63,-1177.36"/>
<polygon fill="#78ab63" stroke="#78ab63" points="961.23,-1180.85 971.37,-1177.78 961.53,-1173.86 961.23,-1180.85"/>
</g>
</g>
</svg>
