<?xml version="1.0" encoding="UTF-8" standalone="no"?>
<!DOCTYPE svg PUBLIC "-//W3C//DTD SVG 1.1//EN"
 "http://www.w3.org/Graphics/SVG/1.1/DTD/svg11.dtd">
<!-- Generated by graphviz version 10.0.1 (0)
 -->
<!-- Pages: 1 -->
<svg width="1576pt" height="1366pt"
 viewBox="0.00 0.00 1576.00 1366.00" xmlns="http://www.w3.org/2000/svg" xmlns:xlink="http://www.w3.org/1999/xlink">
<g id="graph0" class="graph" transform="scale(1 1) rotate(0) translate(4 1362)">
<polygon fill="white" stroke="none" points="-4,4 -4,-1362 1572,-1362 1572,4 -4,4"/>
<!-- 1618 -->
<g id="node1" class="node">
<title>1618</title>
<ellipse fill="none" stroke="#b8bf62" cx="355.93" cy="-140.32" rx="159.28" ry="28.99"/>
<text text-anchor="middle" x="355.93" y="-143.52" font-family="Times,serif" font-size="14.00" fill="gray">SPDXLicense</text>
<text text-anchor="middle" x="355.93" y="-127.02" font-family="Times,serif" font-size="14.00" fill="gray">9afbe9b01d3fdd3853095db6b1c75933</text>
</g>
<!-- 1619 -->
<g id="node2" class="node">
<title>1619</title>
<polygon fill="none" stroke="black" points="691.83,-356.51 691.83,-371.42 654.41,-381.96 601.48,-381.96 564.05,-371.42 564.05,-356.51 601.48,-345.96 654.41,-345.96 691.83,-356.51"/>
<polygon fill="none" stroke="black" points="695.83,-353.48 695.83,-374.45 654.96,-385.96 600.92,-385.96 560.05,-374.45 560.05,-353.48 600.92,-341.96 654.96,-341.96 695.83,-353.48"/>
<text text-anchor="middle" x="627.94" y="-358.91" font-family="Times,serif" font-size="14.00">spdx:Entessa</text>
</g>
<!-- 1618&#45;&gt;1619 -->
<g id="edge1" class="edge">
<title>1618&#45;&gt;1619</title>
<path fill="none" stroke="#b8bf62" d="M404.94,-168.27C455.13,-198.45 483.23,-224.17 596.85,-333.91"/>
<polygon fill="#b8bf62" stroke="#b8bf62" points="594.1,-336.12 603.73,-340.56 598.97,-331.09 594.1,-336.12"/>
</g>
<!-- 5026 -->
<g id="node6" class="node">
<title>5026</title>
<polygon fill="none" stroke="black" points="666.32,-589.5 666.32,-604.41 633.11,-614.95 586.15,-614.95 552.94,-604.41 552.94,-589.5 586.15,-578.95 633.11,-578.95 666.32,-589.5"/>
<polygon fill="none" stroke="black" points="670.32,-586.57 670.32,-607.34 633.73,-618.95 585.53,-618.95 548.94,-607.34 548.94,-586.57 585.53,-574.95 633.73,-574.95 670.32,-586.57"/>
<polygon fill="none" stroke="black" points="674.32,-583.65 674.32,-610.26 634.35,-622.95 584.91,-622.95 544.94,-610.26 544.94,-583.65 584.91,-570.95 634.35,-570.95 674.32,-583.65"/>
<text text-anchor="middle" x="609.63" y="-591.9" font-family="Times,serif" font-size="14.00">osi:Entessa</text>
</g>
<!-- 1619&#45;&gt;5026 -->
<g id="edge2" class="edge">
<title>1619&#45;&gt;5026</title>
<path fill="none" stroke="#78ab63" stroke-width="2" d="M617.23,-386.26C591.9,-440.16 590.92,-456.8 604.59,-559.64"/>
<polygon fill="#78ab63" stroke="#78ab63" stroke-width="2" points="605.73,-568.13 599.94,-558.81 604.89,-565.65 603.9,-558.28 604.4,-558.21 604.89,-558.15 605.88,-565.52 608.86,-557.62 605.73,-568.13"/>
</g>
<!-- 6343 -->
<g id="node9" class="node">
<title>6343</title>
<polygon fill="none" stroke="#e09d4b" points="900.34,-290.57 900.34,-305.48 857.72,-316.03 797.44,-316.03 754.82,-305.48 754.82,-290.57 797.44,-280.03 857.72,-280.03 900.34,-290.57"/>
<polygon fill="none" stroke="#e09d4b" points="904.34,-287.44 904.34,-308.62 858.2,-320.03 796.96,-320.03 750.82,-308.62 750.82,-287.44 796.96,-276.03 858.2,-276.03 904.34,-287.44"/>
<text text-anchor="middle" x="827.58" y="-292.98" font-family="Times,serif" font-size="14.00">Fedora:Entessa</text>
</g>
<!-- 1619&#45;&gt;6343 -->
<g id="edge3" class="edge">
<title>1619&#45;&gt;6343</title>
<path fill="none" stroke="#e09d4b" stroke-width="2" d="M655.85,-341.77C693.01,-312.62 712.7,-300.02 739.35,-295.9"/>
<polygon fill="#e09d4b" stroke="#e09d4b" stroke-width="2" points="747.97,-294.95 738.52,-300.52 745.47,-295.73 738.08,-296.54 738.03,-296.04 737.97,-295.55 745.36,-294.73 737.53,-291.57 747.97,-294.95"/>
</g>
<!-- 41623 -->
<g id="node23" class="node">
<title>41623</title>
<polygon fill="none" stroke="#00876c" points="710.67,-662.89 710.67,-677.8 639.17,-688.35 538.06,-688.35 466.56,-677.8 466.56,-662.89 538.06,-652.35 639.17,-652.35 710.67,-662.89"/>
<polygon fill="none" stroke="#00876c" points="714.67,-659.44 714.67,-681.26 639.47,-692.35 537.76,-692.35 462.56,-681.26 462.56,-659.44 537.76,-648.35 639.47,-648.35 714.67,-659.44"/>
<text text-anchor="middle" x="588.61" y="-665.3" font-family="Times,serif" font-size="14.00">metaeffekt:Entessa License</text>
</g>
<!-- 1619&#45;&gt;41623 -->
<g id="edge4" class="edge">
<title>1619&#45;&gt;41623</title>
<path fill="none" stroke="#00876c" stroke-width="2" d="M615,-386.19C566.37,-470.4 564.68,-487.19 584.21,-636.9"/>
<polygon fill="#00876c" stroke="#00876c" stroke-width="2" points="585.34,-645.49 579.58,-636.16 584.51,-643.02 583.54,-635.64 584.04,-635.58 584.53,-635.51 585.5,-642.89 588.5,-634.99 585.34,-645.49"/>
</g>
<!-- 1620 -->
<g id="node3" class="node">
<title>1620</title>
<polygon fill="none" stroke="black" points="791.76,-429.27 791.76,-444.18 766.99,-454.72 731.96,-454.72 707.19,-444.18 707.19,-429.27 731.96,-418.72 766.99,-418.72 791.76,-429.27"/>
<polygon fill="none" stroke="black" points="795.76,-426.62 795.76,-446.82 767.81,-458.72 731.15,-458.72 703.19,-446.82 703.19,-426.62 731.15,-414.72 767.81,-414.72 795.76,-426.62"/>
<text text-anchor="middle" x="749.48" y="-431.67" font-family="Times,serif" font-size="14.00">Entessa</text>
</g>
<!-- 1620&#45;&gt;1619 -->
<g id="edge5" class="edge">
<title>1620&#45;&gt;1619</title>
<path fill="none" stroke="black" stroke-width="2" d="M726.61,-416.13C710.49,-401.73 699.17,-392.07 689.51,-385.26"/>
<polygon fill="black" stroke="black" stroke-width="2" points="682.34,-380.65 693.19,-382.27 684.77,-381.62 691.03,-385.64 690.75,-386.06 690.48,-386.48 684.23,-382.46 688.32,-389.84 682.34,-380.65"/>
</g>
<!-- 1620&#45;&gt;5026 -->
<g id="edge6" class="edge">
<title>1620&#45;&gt;5026</title>
<path fill="none" stroke="black" stroke-width="2" d="M716.21,-452.84C664.01,-479.05 652.69,-492.82 624.64,-560.18"/>
<polygon fill="black" stroke="black" stroke-width="2" points="621.3,-568.26 620.96,-557.3 621.82,-565.7 624.66,-558.83 625.12,-559.02 625.58,-559.21 622.74,-566.09 629.28,-560.74 621.3,-568.26"/>
</g>
<!-- 1620&#45;&gt;6343 -->
<g id="edge7" class="edge">
<title>1620&#45;&gt;6343</title>
<path fill="none" stroke="#e09d4b" stroke-width="2" d="M758.25,-414.29C777.84,-364.37 786.18,-344.9 798.63,-328.61"/>
<polygon fill="#e09d4b" stroke="#e09d4b" stroke-width="2" points="804.03,-322.11 801.1,-332.68 802.78,-324.4 798.02,-330.12 797.64,-329.8 797.25,-329.48 802.01,-323.76 794.18,-326.92 804.03,-322.11"/>
</g>
<!-- 8829 -->
<g id="node11" class="node">
<title>8829</title>
<polygon fill="none" stroke="#00876c" points="1017.64,-504.41 1017.64,-519.32 970.48,-529.86 903.78,-529.86 856.62,-519.32 856.62,-504.41 903.78,-493.86 970.48,-493.86 1017.64,-504.41"/>
<polygon fill="none" stroke="#00876c" points="1021.64,-501.2 1021.64,-522.52 970.92,-533.86 903.34,-533.86 852.62,-522.52 852.62,-501.2 903.34,-489.86 970.92,-489.86 1021.64,-501.2"/>
<text text-anchor="middle" x="937.13" y="-506.81" font-family="Times,serif" font-size="14.00">BlueOak:Entessa</text>
</g>
<!-- 1620&#45;&gt;8829 -->
<g id="edge8" class="edge">
<title>1620&#45;&gt;8829</title>
<path fill="none" stroke="#00876c" stroke-width="2" d="M796.17,-436.58C845.81,-437.59 862.95,-445.13 904.4,-481.93"/>
<polygon fill="#00876c" stroke="#00876c" stroke-width="2" points="910.92,-487.79 900.47,-484.46 908.68,-486.45 903.15,-481.48 903.48,-481.11 903.82,-480.74 909.35,-485.71 906.49,-477.76 910.92,-487.79"/>
</g>
<!-- 26679 -->
<g id="node17" class="node">
<title>26679</title>
<polygon fill="none" stroke="#e18745" points="1121.88,-440.47 1121.88,-455.38 1072.77,-465.92 1003.32,-465.92 954.21,-455.38 954.21,-440.47 1003.32,-429.92 1072.77,-429.92 1121.88,-440.47"/>
<polygon fill="none" stroke="#e18745" points="1125.88,-437.24 1125.88,-458.61 1073.2,-469.92 1002.9,-469.92 950.21,-458.61 950.21,-437.24 1002.9,-425.92 1073.2,-425.92 1125.88,-437.24"/>
<text text-anchor="middle" x="1038.05" y="-442.87" font-family="Times,serif" font-size="14.00">fossology:Entessa</text>
</g>
<!-- 1620&#45;&gt;26679 -->
<g id="edge9" class="edge">
<title>1620&#45;&gt;26679</title>
<path fill="none" stroke="#e18745" stroke-width="2" d="M792.68,-424.8C894.86,-397.03 921.12,-394.92 984.82,-422.87"/>
<polygon fill="#e18745" stroke="#e18745" stroke-width="2" points="992.72,-426.42 981.76,-426.43 990.18,-425.82 983.39,-422.78 983.6,-422.32 983.8,-421.87 990.59,-424.91 985.44,-418.22 992.72,-426.42"/>
</g>
<!-- 36765 -->
<g id="node21" class="node">
<title>36765</title>
<polygon fill="none" stroke="#379469" points="549.79,-468.94 549.79,-483.85 512.04,-494.39 458.65,-494.39 420.89,-483.85 420.89,-468.94 458.65,-458.39 512.04,-458.39 549.79,-468.94"/>
<polygon fill="none" stroke="#379469" points="553.79,-465.9 553.79,-486.88 512.58,-498.39 458.1,-498.39 416.89,-486.88 416.89,-465.9 458.1,-454.39 512.58,-454.39 553.79,-465.9"/>
<text text-anchor="middle" x="485.34" y="-471.34" font-family="Times,serif" font-size="14.00">cavil:Entessa</text>
</g>
<!-- 1620&#45;&gt;36765 -->
<g id="edge10" class="edge">
<title>1620&#45;&gt;36765</title>
<path fill="none" stroke="#379469" stroke-width="2" d="M702.72,-430.28C606.5,-417.46 582.21,-418.95 528.51,-449.98"/>
<polygon fill="#379469" stroke="#379469" stroke-width="2" points="520.97,-454.42 527.3,-445.47 522.93,-452.69 529.33,-448.91 529.58,-449.34 529.84,-449.77 523.43,-453.55 531.87,-453.22 520.97,-454.42"/>
</g>
<!-- 1620&#45;&gt;41623 -->
<g id="edge11" class="edge">
<title>1620&#45;&gt;41623</title>
<path fill="none" stroke="#00876c" stroke-dasharray="5,2" d="M721.1,-454.73C637.79,-508.17 628.19,-523.14 597.38,-637.5"/>
<polygon fill="#00876c" stroke="#00876c" points="594.84,-646.95 593.08,-636.12 595.82,-643.3 597.43,-637.29 597.43,-637.29 597.43,-637.29 595.82,-643.3 601.78,-638.45 594.84,-646.95"/>
</g>
<!-- 1621 -->
<g id="node4" class="node">
<title>1621</title>
<polygon fill="none" stroke="black" points="1046.75,-558.32 1046.75,-573.23 973.62,-583.78 870.21,-583.78 797.09,-573.23 797.09,-558.32 870.21,-547.78 973.62,-547.78 1046.75,-558.32"/>
<polygon fill="none" stroke="black" points="1050.75,-554.86 1050.75,-576.7 973.91,-587.78 869.92,-587.78 793.09,-576.7 793.09,-554.86 869.92,-543.78 973.91,-543.78 1050.75,-554.86"/>
<text text-anchor="middle" x="921.92" y="-560.73" font-family="Times,serif" font-size="14.00">Entessa Public License v1.0</text>
</g>
<!-- 1621&#45;&gt;1619 -->
<g id="edge12" class="edge">
<title>1621&#45;&gt;1619</title>
<path fill="none" stroke="#b8bf62" stroke-width="2" d="M902.58,-543.6C798.88,-424.79 773.42,-399.26 699.04,-379.72"/>
<polygon fill="#b8bf62" stroke="#b8bf62" stroke-width="2" points="690.57,-377.59 701.37,-375.66 693.18,-377.73 700.39,-379.54 700.27,-380.03 700.15,-380.51 692.94,-378.7 699.17,-384.39 690.57,-377.59"/>
</g>
<!-- 1621&#45;&gt;8829 -->
<g id="edge13" class="edge">
<title>1621&#45;&gt;8829</title>
<path fill="none" stroke="#00876c" stroke-width="2" d="M931.76,-543.52C931.81,-543.4 931.86,-543.28 931.9,-543.17"/>
<polygon fill="#00876c" stroke="#00876c" stroke-width="2" points="934.39,-536.42 935.15,-547.36 933.98,-539 931.4,-545.98 930.93,-545.8 930.46,-545.63 933.04,-538.65 926.71,-544.25 934.39,-536.42"/>
</g>
<!-- 15170 -->
<g id="node13" class="node">
<title>15170</title>
<polygon fill="none" stroke="black" points="967.5,-936.92 967.5,-951.83 911.25,-962.37 831.7,-962.37 775.46,-951.83 775.46,-936.92 831.7,-926.37 911.25,-926.37 967.5,-936.92"/>
<polygon fill="none" stroke="black" points="971.5,-933.6 971.5,-955.15 911.62,-966.37 831.33,-966.37 771.46,-955.15 771.46,-933.6 831.33,-922.37 911.62,-922.37 971.5,-933.6"/>
<text text-anchor="middle" x="871.48" y="-939.32" font-family="Times,serif" font-size="14.00">scancode:entessa&#45;1.0</text>
</g>
<!-- 1621&#45;&gt;15170 -->
<g id="edge14" class="edge">
<title>1621&#45;&gt;15170</title>
<path fill="none" stroke="#dac767" stroke-width="2" d="M925.58,-588.14C957.15,-781.07 957.29,-800.59 890.58,-912.62"/>
<polygon fill="#dac767" stroke="#dac767" stroke-width="2" points="886.26,-919.83 887.53,-908.94 887.15,-917.38 890.96,-911 891.39,-911.25 891.82,-911.51 888.01,-917.89 895.26,-913.56 886.26,-919.83"/>
</g>
<!-- 1621&#45;&gt;26679 -->
<g id="edge15" class="edge">
<title>1621&#45;&gt;26679</title>
<path fill="none" stroke="#e18745" stroke-width="2" d="M944.74,-543.54C981.8,-507.43 997.27,-492.18 1010.58,-478.11"/>
<polygon fill="#e18745" stroke="#e18745" stroke-width="2" points="1016.21,-472.07 1012.68,-482.46 1014.82,-474.29 1009.75,-479.73 1009.39,-479.39 1009.02,-479.05 1014.09,-473.61 1006.1,-476.32 1016.21,-472.07"/>
</g>
<!-- 5025 -->
<g id="node5" class="node">
<title>5025</title>
<ellipse fill="none" stroke="#78ab63" cx="543.26" cy="-942.64" rx="155.56" ry="28.99"/>
<text text-anchor="middle" x="543.26" y="-945.84" font-family="Times,serif" font-size="14.00" fill="gray">OSILicense</text>
<text text-anchor="middle" x="543.26" y="-929.34" font-family="Times,serif" font-size="14.00" fill="gray">20d6d71af5d871faa8b2bbffe3709621</text>
</g>
<!-- 5025&#45;&gt;5026 -->
<g id="edge16" class="edge">
<title>5025&#45;&gt;5026</title>
<path fill="none" stroke="#78ab63" d="M536.99,-913.42C514.16,-805.03 518.25,-785.84 591.99,-633.31"/>
<polygon fill="#78ab63" stroke="#78ab63" points="595.09,-634.96 596.29,-624.43 588.79,-631.91 595.09,-634.96"/>
</g>
<!-- 5026&#45;&gt;41623 -->
<g id="edge17" class="edge">
<title>5026&#45;&gt;41623</title>
<path fill="none" stroke="#00876c" stroke-dasharray="5,2" d="M591.16,-623.19C588.7,-627.89 587.35,-632.17 586.78,-637.18"/>
<polygon fill="#00876c" stroke="#00876c" points="586.6,-646.79 582.29,-636.71 586.67,-643.01 586.79,-636.79 586.79,-636.79 586.79,-636.79 586.67,-643.01 591.29,-636.88 586.6,-646.79"/>
</g>
<!-- 5027 -->
<g id="node7" class="node">
<title>5027</title>
<polygon fill="none" stroke="black" points="814.91,-496.14 814.91,-511.05 753.79,-521.59 667.36,-521.59 606.24,-511.05 606.24,-496.14 667.36,-485.59 753.79,-485.59 814.91,-496.14"/>
<polygon fill="none" stroke="black" points="818.91,-492.77 818.91,-514.42 754.13,-525.59 667.01,-525.59 602.24,-514.42 602.24,-492.77 667.01,-481.59 754.13,-481.59 818.91,-492.77"/>
<text text-anchor="middle" x="710.57" y="-498.54" font-family="Times,serif" font-size="14.00">Entessa Public License</text>
</g>
<!-- 5027&#45;&gt;1620 -->
<g id="edge18" class="edge">
<title>5027&#45;&gt;1620</title>
<path fill="none" stroke="#379469" stroke-width="2" d="M717.82,-481.41C719.74,-475.74 721.42,-471.15 723.04,-467.29"/>
<polygon fill="#379469" stroke="#379469" stroke-width="2" points="726.85,-459.73 726.37,-470.68 726.14,-462.24 722.8,-468.88 722.35,-468.66 721.9,-468.43 725.25,-461.79 718.33,-466.63 726.85,-459.73"/>
</g>
<!-- 5027&#45;&gt;5026 -->
<g id="edge19" class="edge">
<title>5027&#45;&gt;5026</title>
<path fill="none" stroke="#78ab63" stroke-width="2" d="M660.61,-524.89C645.37,-533.42 637.17,-542.76 627.29,-560.95"/>
<polygon fill="#78ab63" stroke="#78ab63" stroke-width="2" points="623.39,-568.47 624,-557.52 624.13,-565.96 627.55,-559.36 628,-559.59 628.44,-559.82 625.02,-566.42 631.99,-561.66 623.39,-568.47"/>
</g>
<!-- 5027&#45;&gt;6343 -->
<g id="edge20" class="edge">
<title>5027&#45;&gt;6343</title>
<path fill="none" stroke="#e09d4b" stroke-dasharray="5,2" d="M718.83,-481.47C755.81,-382.56 766.01,-358.43 795.42,-328.29"/>
<polygon fill="#e09d4b" stroke="#e09d4b" points="802.47,-321.31 798.53,-331.54 799.78,-323.97 795.36,-328.35 795.36,-328.35 795.36,-328.35 799.78,-323.97 792.2,-325.15 802.47,-321.31"/>
</g>
<!-- 5027&#45;&gt;41623 -->
<g id="edge21" class="edge">
<title>5027&#45;&gt;41623</title>
<path fill="none" stroke="#00876c" stroke-dasharray="5,2" d="M675.77,-525.82C623.13,-560.38 613.63,-574.69 597.03,-637.42"/>
<polygon fill="#00876c" stroke="#00876c" points="594.61,-646.74 592.77,-635.93 595.56,-643.08 597.13,-637.06 597.13,-637.06 597.13,-637.06 595.56,-643.08 601.48,-638.2 594.61,-646.74"/>
</g>
<!-- 6342 -->
<g id="node8" class="node">
<title>6342</title>
<ellipse fill="none" stroke="#e09d4b" cx="884.32" cy="-223.91" rx="156.09" ry="28.99"/>
<text text-anchor="middle" x="884.32" y="-227.11" font-family="Times,serif" font-size="14.00" fill="gray">FedoraEntry</text>
<text text-anchor="middle" x="884.32" y="-210.61" font-family="Times,serif" font-size="14.00" fill="gray">82d94f9b8ac872e8faac1d98250396bf</text>
</g>
<!-- 6342&#45;&gt;6343 -->
<g id="edge22" class="edge">
<title>6342&#45;&gt;6343</title>
<path fill="none" stroke="#e09d4b" d="M854.38,-252.66C851.92,-256.3 849.23,-260.6 846.09,-265.87"/>
<polygon fill="#e09d4b" stroke="#e09d4b" points="843.12,-264.02 841.09,-274.41 849.16,-267.55 843.12,-264.02"/>
</g>
<!-- 8828 -->
<g id="node10" class="node">
<title>8828</title>
<ellipse fill="none" stroke="#00876c" cx="1265.58" cy="-336.72" rx="159.81" ry="28.99"/>
<text text-anchor="middle" x="1265.58" y="-339.92" font-family="Times,serif" font-size="14.00" fill="gray">BlueOakCouncil</text>
<text text-anchor="middle" x="1265.58" y="-323.42" font-family="Times,serif" font-size="14.00" fill="gray">98a8130b3260d4a4e27c0cfb039bb506</text>
</g>
<!-- 8828&#45;&gt;8829 -->
<g id="edge23" class="edge">
<title>8828&#45;&gt;8829</title>
<path fill="none" stroke="#00876c" d="M1198.58,-363.42C1149.81,-384.42 1110.31,-407.43 982.83,-484.28"/>
<polygon fill="#00876c" stroke="#00876c" points="981.15,-481.21 974.39,-489.38 984.76,-487.21 981.15,-481.21"/>
</g>
<!-- 15169 -->
<g id="node12" class="node">
<title>15169</title>
<ellipse fill="none" stroke="#dac767" cx="840.33" cy="-1328.91" rx="160.34" ry="28.99"/>
<text text-anchor="middle" x="840.33" y="-1332.11" font-family="Times,serif" font-size="14.00" fill="gray">ScancodeData</text>
<text text-anchor="middle" x="840.33" y="-1315.61" font-family="Times,serif" font-size="14.00" fill="gray">cbb82197542c658771eabc589aed2783</text>
</g>
<!-- 15169&#45;&gt;15170 -->
<g id="edge24" class="edge">
<title>15169&#45;&gt;15170</title>
<path fill="none" stroke="#dac767" d="M847.24,-1299.59C866.92,-1214.86 868.13,-1190.51 871.03,-977.86"/>
<polygon fill="#dac767" stroke="#dac767" points="874.52,-978.15 871.16,-968.11 867.52,-978.06 874.52,-978.15"/>
</g>
<!-- 15170&#45;&gt;41623 -->
<g id="edge25" class="edge">
<title>15170&#45;&gt;41623</title>
<path fill="none" stroke="#00876c" stroke-dasharray="5,2" d="M818.85,-924.41C705.35,-880.08 688.6,-858.67 605.46,-702.15"/>
<polygon fill="#00876c" stroke="#00876c" points="600.98,-693.71 609.64,-700.43 602.75,-697.05 605.67,-702.54 605.67,-702.54 605.67,-702.54 602.75,-697.05 601.69,-704.65 600.98,-693.71"/>
</g>
<!-- 15171 -->
<g id="node14" class="node">
<title>15171</title>
<polygon fill="none" stroke="black" points="1015.08,-1184.87 1015.08,-1199.78 981.88,-1210.32 934.91,-1210.32 901.7,-1199.78 901.7,-1184.87 934.91,-1174.32 981.88,-1174.32 1015.08,-1184.87"/>
<polygon fill="none" stroke="black" points="1019.08,-1181.94 1019.08,-1202.7 982.5,-1214.32 934.29,-1214.32 897.7,-1202.7 897.7,-1181.94 934.29,-1170.32 982.5,-1170.32 1019.08,-1181.94"/>
<text text-anchor="middle" x="958.39" y="-1187.27" font-family="Times,serif" font-size="14.00">entessa&#45;1.0</text>
</g>
<!-- 15171&#45;&gt;15170 -->
<g id="edge26" class="edge">
<title>15171&#45;&gt;15170</title>
<path fill="none" stroke="black" stroke-width="2" d="M950.35,-1169.97C932.41,-1120.09 925.96,-1101.63 882.85,-977.21"/>
<polygon fill="black" stroke="black" stroke-width="2" points="880.07,-969.16 887.59,-977.14 881.38,-971.42 883.81,-978.45 883.34,-978.61 882.87,-978.78 880.43,-971.75 879.09,-980.09 880.07,-969.16"/>
</g>
<!-- 15172 -->
<g id="node15" class="node">
<title>15172</title>
<polygon fill="none" stroke="#dac767" points="1148.2,-1093.93 1148.2,-1108.84 1114.34,-1119.39 1066.46,-1119.39 1032.6,-1108.84 1032.6,-1093.93 1066.46,-1083.39 1114.34,-1083.39 1148.2,-1093.93"/>
<polygon fill="none" stroke="#dac767" points="1152.2,-1090.99 1152.2,-1111.79 1114.95,-1123.39 1065.85,-1123.39 1028.6,-1111.79 1028.6,-1090.99 1065.85,-1079.39 1114.95,-1079.39 1152.2,-1090.99"/>
<text text-anchor="middle" x="1090.4" y="-1096.34" font-family="Times,serif" font-size="14.00">Entessa 1.0</text>
</g>
<!-- 15172&#45;&gt;15170 -->
<g id="edge27" class="edge">
<title>15172&#45;&gt;15170</title>
<path fill="none" stroke="#dac767" stroke-width="2" d="M1048.08,-1084.5C1007,-1066.56 984.89,-1048.39 903.92,-974.17"/>
<polygon fill="#dac767" stroke="#dac767" stroke-width="2" points="897.69,-968.46 908.1,-971.9 899.92,-969.82 905.4,-974.85 905.06,-975.22 904.72,-975.59 899.24,-970.56 902.02,-978.54 897.69,-968.46"/>
</g>
<!-- 26678 -->
<g id="node16" class="node">
<title>26678</title>
<ellipse fill="none" stroke="#e18745" cx="1413.07" cy="-450.43" rx="154.5" ry="28.99"/>
<text text-anchor="middle" x="1413.07" y="-453.63" font-family="Times,serif" font-size="14.00" fill="gray">Fossology</text>
<text text-anchor="middle" x="1413.07" y="-437.13" font-family="Times,serif" font-size="14.00" fill="gray">ef1e866f627a56557f6be5951eb4fc38</text>
</g>
<!-- 26678&#45;&gt;26679 -->
<g id="edge28" class="edge">
<title>26678&#45;&gt;26679</title>
<path fill="none" stroke="#e18745" d="M1320.77,-426.76C1277.66,-419.99 1234.38,-422.92 1136.33,-435.19"/>
<polygon fill="#e18745" stroke="#e18745" points="1136.06,-431.69 1126.58,-436.42 1136.94,-438.64 1136.06,-431.69"/>
</g>
<!-- 28295 -->
<g id="node18" class="node">
<title>28295</title>
<ellipse fill="none" stroke="#379469" cx="758.44" cy="-100.44" rx="158.22" ry="28.99"/>
<text text-anchor="middle" x="758.44" y="-103.64" font-family="Times,serif" font-size="14.00" fill="gray">OKFN</text>
<text text-anchor="middle" x="758.44" y="-87.14" font-family="Times,serif" font-size="14.00" fill="gray">dea9178fc549877239f58390807e6b8c</text>
</g>
<!-- 28295&#45;&gt;1620 -->
<g id="edge29" class="edge">
<title>28295&#45;&gt;1620</title>
<path fill="none" stroke="#379469" d="M755.72,-129.92C749.43,-200 749.11,-224.04 749.42,-402.95"/>
<polygon fill="#379469" stroke="#379469" points="745.92,-402.89 749.43,-412.88 752.92,-402.88 745.92,-402.89"/>
</g>
<!-- 28674 -->
<g id="node19" class="node">
<title>28674</title>
<ellipse fill="none" stroke="#e06f45" cx="510.31" cy="-29.45" rx="158.75" ry="28.99"/>
<text text-anchor="middle" x="510.31" y="-32.65" font-family="Times,serif" font-size="14.00" fill="gray">OrtLicenseCategorization</text>
<text text-anchor="middle" x="510.31" y="-16.15" font-family="Times,serif" font-size="14.00" fill="gray">ab549e982a4fede12570ab52754be7d0</text>
</g>
<!-- 28674&#45;&gt;1619 -->
<g id="edge30" class="edge">
<title>28674&#45;&gt;1619</title>
<path fill="none" stroke="#e06f45" d="M518.93,-58.85C539.99,-130.28 548.54,-153.79 615.43,-330.85"/>
<polygon fill="#e06f45" stroke="#e06f45" points="612.15,-332.08 618.96,-340.19 618.7,-329.6 612.15,-332.08"/>
</g>
<!-- 36764 -->
<g id="node20" class="node">
<title>36764</title>
<ellipse fill="none" stroke="#379469" cx="159.47" cy="-625.68" rx="159.81" ry="28.99"/>
<text text-anchor="middle" x="159.47" y="-628.88" font-family="Times,serif" font-size="14.00" fill="gray">CavilLicenseChange</text>
<text text-anchor="middle" x="159.47" y="-612.38" font-family="Times,serif" font-size="14.00" fill="gray">f1a0a05693e2e8d3751822991b685d1e</text>
</g>
<!-- 36764&#45;&gt;36765 -->
<g id="edge31" class="edge">
<title>36764&#45;&gt;36765</title>
<path fill="none" stroke="#379469" d="M188.68,-596.76C247.98,-539.31 273.49,-527.83 416.7,-492.9"/>
<polygon fill="#379469" stroke="#379469" points="417.32,-496.36 426.21,-490.59 415.66,-489.55 417.32,-496.36"/>
</g>
<!-- 41622 -->
<g id="node22" class="node">
<title>41622</title>
<ellipse fill="none" stroke="#00876c" cx="190.88" cy="-535.49" rx="157.15" ry="28.99"/>
<text text-anchor="middle" x="190.88" y="-538.69" font-family="Times,serif" font-size="14.00" fill="gray">MetaeffektLicense</text>
<text text-anchor="middle" x="190.88" y="-522.19" font-family="Times,serif" font-size="14.00" fill="gray">88ade05bdb292d3f008ed30494fe107f</text>
</g>
<!-- 41622&#45;&gt;41623 -->
<g id="edge32" class="edge">
<title>41622&#45;&gt;41623</title>
<path fill="none" stroke="#00876c" d="M252.74,-562.48C311.05,-587.03 354.07,-600.73 510.31,-647.13"/>
<polygon fill="#00876c" stroke="#00876c" points="509.23,-650.46 519.81,-649.95 511.22,-643.75 509.23,-650.46"/>
</g>
<!-- 41624 -->
<g id="node24" class="node">
<title>41624</title>
<polygon fill="none" stroke="#00876c" points="412.39,-868.29 412.39,-883.21 367.83,-893.75 304.8,-893.75 260.23,-883.21 260.23,-868.29 304.8,-857.75 367.83,-857.75 412.39,-868.29"/>
<polygon fill="none" stroke="#00876c" points="416.39,-865.13 416.39,-886.37 368.29,-897.75 304.33,-897.75 256.23,-886.37 256.23,-865.13 304.33,-853.75 368.29,-853.75 416.39,-865.13"/>
<text text-anchor="middle" x="336.31" y="-870.7" font-family="Times,serif" font-size="14.00">Entessa License</text>
</g>
<!-- 41624&#45;&gt;41623 -->
<g id="edge33" class="edge">
<title>41624&#45;&gt;41623</title>
<path fill="none" stroke="#00876c" stroke-width="2" d="M353.07,-853.65C397.21,-796.11 414.74,-782.15 544.84,-698.45"/>
<polygon fill="#00876c" stroke="#00876c" stroke-width="2" points="551.94,-693.89 545.96,-703.08 550.05,-695.7 543.79,-699.72 543.52,-699.3 543.25,-698.88 549.51,-694.85 541.09,-695.51 551.94,-693.89"/>
</g>
</g>
</svg>
