<?xml version="1.0" encoding="UTF-8" standalone="no"?>
<!DOCTYPE svg PUBLIC "-//W3C//DTD SVG 1.1//EN"
 "http://www.w3.org/Graphics/SVG/1.1/DTD/svg11.dtd">
<!-- Generated by graphviz version 10.0.1 (0)
 -->
<!-- Pages: 1 -->
<svg width="3470pt" height="2521pt"
 viewBox="0.00 0.00 3470.00 2521.00" xmlns="http://www.w3.org/2000/svg" xmlns:xlink="http://www.w3.org/1999/xlink">
<g id="graph0" class="graph" transform="scale(1 1) rotate(0) translate(4 2517)">
<polygon fill="white" stroke="none" points="-4,4 -4,-2517 3466,-2517 3466,4 -4,4"/>
<!-- 1551 -->
<g id="node1" class="node">
<title>1551</title>
<ellipse fill="none" stroke="#b8bf62" cx="1951.24" cy="-859.54" rx="159.81" ry="28.99"/>
<text text-anchor="middle" x="1951.24" y="-862.74" font-family="Times,serif" font-size="14.00" fill="gray">SPDXLicense</text>
<text text-anchor="middle" x="1951.24" y="-846.24" font-family="Times,serif" font-size="14.00" fill="gray">c8f4d0d176a21626edbe49350c0247d5</text>
</g>
<!-- 1552 -->
<g id="node2" class="node">
<title>1552</title>
<polygon fill="none" stroke="black" points="1747.19,-1217.84 1747.19,-1232.75 1707.82,-1243.29 1652.13,-1243.29 1612.76,-1232.75 1612.76,-1217.84 1652.13,-1207.29 1707.82,-1207.29 1747.19,-1217.84"/>
<polygon fill="none" stroke="black" points="1751.19,-1214.77 1751.19,-1235.82 1708.34,-1247.29 1651.61,-1247.29 1608.76,-1235.82 1608.76,-1214.77 1651.61,-1203.29 1708.34,-1203.29 1751.19,-1214.77"/>
<text text-anchor="middle" x="1679.97" y="-1220.24" font-family="Times,serif" font-size="14.00">spdx:EPL&#45;1.0</text>
</g>
<!-- 1551&#45;&gt;1552 -->
<g id="edge1" class="edge">
<title>1551&#45;&gt;1552</title>
<path fill="none" stroke="#b8bf62" d="M1921.51,-888.24C1850.58,-957.44 1832.54,-983.98 1700.14,-1193.4"/>
<polygon fill="#b8bf62" stroke="#b8bf62" points="1697.35,-1191.26 1694.96,-1201.58 1703.26,-1195 1697.35,-1191.26"/>
</g>
<!-- 5012 -->
<g id="node6" class="node">
<title>5012</title>
<polygon fill="none" stroke="black" points="2137.31,-1313.15 2137.31,-1328.06 2102.15,-1338.6 2052.43,-1338.6 2017.28,-1328.06 2017.28,-1313.15 2052.43,-1302.6 2102.15,-1302.6 2137.31,-1313.15"/>
<polygon fill="none" stroke="black" points="2141.31,-1310.17 2141.31,-1331.03 2102.74,-1342.6 2051.85,-1342.6 2013.28,-1331.03 2013.28,-1310.17 2051.85,-1298.6 2102.74,-1298.6 2141.31,-1310.17"/>
<polygon fill="none" stroke="black" points="2145.31,-1307.19 2145.31,-1334.01 2103.32,-1346.6 2051.26,-1346.6 2009.28,-1334.01 2009.28,-1307.19 2051.26,-1294.6 2103.32,-1294.6 2145.31,-1307.19"/>
<text text-anchor="middle" x="2077.29" y="-1315.55" font-family="Times,serif" font-size="14.00">osi:EPL&#45;1.0</text>
</g>
<!-- 1552&#45;&gt;5012 -->
<g id="edge2" class="edge">
<title>1552&#45;&gt;5012</title>
<path fill="none" stroke="#78ab63" stroke-width="2" d="M1743.77,-1238.23C1908.34,-1271.64 1953.15,-1281.38 2012.28,-1299.61"/>
<polygon fill="#78ab63" stroke="#78ab63" stroke-width="2" points="2020.38,-1302.14 2009.5,-1303.46 2017.79,-1301.86 2010.69,-1299.64 2010.84,-1299.16 2010.99,-1298.69 2018.09,-1300.9 2012.18,-1294.87 2020.38,-1302.14"/>
</g>
<!-- 5651 -->
<g id="node9" class="node">
<title>5651</title>
<polygon fill="none" stroke="#e06f45" points="1297.54,-847.02 1297.54,-861.93 1256.86,-872.47 1199.34,-872.47 1158.67,-861.93 1158.67,-847.02 1199.34,-836.47 1256.86,-836.47 1297.54,-847.02"/>
<polygon fill="none" stroke="#e06f45" points="1301.54,-843.92 1301.54,-865.03 1257.37,-876.47 1198.83,-876.47 1154.67,-865.03 1154.67,-843.92 1198.83,-832.47 1257.37,-832.47 1301.54,-843.92"/>
<text text-anchor="middle" x="1228.1" y="-849.42" font-family="Times,serif" font-size="14.00">google:EPL10</text>
</g>
<!-- 1552&#45;&gt;5651 -->
<g id="edge3" class="edge">
<title>1552&#45;&gt;5651</title>
<path fill="none" stroke="#e06f45" stroke-width="2" d="M1652.39,-1202.97C1390.2,-990.72 1361.45,-967.33 1262.92,-883.96"/>
<polygon fill="#e06f45" stroke="#e06f45" stroke-width="2" points="1256.3,-878.35 1266.84,-881.38 1258.58,-879.63 1264.25,-884.43 1263.93,-884.81 1263.61,-885.2 1257.93,-880.39 1261.02,-888.25 1256.3,-878.35"/>
</g>
<!-- 6322 -->
<g id="node12" class="node">
<title>6322</title>
<polygon fill="none" stroke="#e09d4b" points="1754.02,-906.4 1754.02,-921.31 1709.46,-931.85 1646.43,-931.85 1601.86,-921.31 1601.86,-906.4 1646.43,-895.85 1709.46,-895.85 1754.02,-906.4"/>
<polygon fill="none" stroke="#e09d4b" points="1758.02,-903.23 1758.02,-924.47 1709.92,-935.85 1645.96,-935.85 1597.86,-924.47 1597.86,-903.23 1645.96,-891.85 1709.92,-891.85 1758.02,-903.23"/>
<text text-anchor="middle" x="1677.94" y="-908.8" font-family="Times,serif" font-size="14.00">Fedora:EPL&#45;1.0</text>
</g>
<!-- 1552&#45;&gt;6322 -->
<g id="edge4" class="edge">
<title>1552&#45;&gt;6322</title>
<path fill="none" stroke="#e09d4b" stroke-width="2" d="M1678.15,-1203.03C1664.43,-1035.77 1662.97,-1010.57 1672.58,-947.27"/>
<polygon fill="#e09d4b" stroke="#e09d4b" stroke-width="2" points="1673.92,-938.73 1676.82,-949.3 1674.02,-941.33 1672.87,-948.68 1672.38,-948.61 1671.88,-948.53 1673.03,-941.18 1667.93,-947.91 1673.92,-938.73"/>
</g>
<!-- 9537 -->
<g id="node17" class="node">
<title>9537</title>
<polygon fill="none" stroke="#58a066" points="1837.96,-787.1 1837.96,-802.01 1797.29,-812.56 1739.77,-812.56 1699.1,-802.01 1699.1,-787.1 1739.77,-776.56 1797.29,-776.56 1837.96,-787.1"/>
<polygon fill="none" stroke="#58a066" points="1841.96,-784 1841.96,-805.11 1797.8,-816.56 1739.26,-816.56 1695.1,-805.11 1695.1,-784 1739.26,-772.56 1797.8,-772.56 1841.96,-784"/>
<text text-anchor="middle" x="1768.53" y="-789.51" font-family="Times,serif" font-size="14.00">osadl:EPL&#45;1.0</text>
</g>
<!-- 1552&#45;&gt;9537 -->
<g id="edge5" class="edge">
<title>1552&#45;&gt;9537</title>
<path fill="none" stroke="#58a066" stroke-width="2" d="M1683.03,-1203.19C1718.16,-948.79 1722.45,-921.96 1756.63,-827.19"/>
<polygon fill="#58a066" stroke="#58a066" stroke-width="2" points="1759.54,-819.15 1760.37,-830.09 1759.14,-821.73 1756.61,-828.72 1756.14,-828.55 1755.67,-828.38 1758.2,-821.39 1751.91,-827.02 1759.54,-819.15"/>
</g>
<!-- 10152 -->
<g id="node20" class="node">
<title>10152</title>
<polygon fill="none" stroke="#deb256" points="1572.16,-1661.96 1572.16,-1676.88 1547.06,-1687.42 1511.57,-1687.42 1486.47,-1676.88 1486.47,-1661.96 1511.57,-1651.42 1547.06,-1651.42 1572.16,-1661.96"/>
<polygon fill="none" stroke="#deb256" points="1576.16,-1659.31 1576.16,-1679.53 1547.87,-1691.42 1510.76,-1691.42 1482.47,-1679.53 1482.47,-1659.31 1510.76,-1647.42 1547.87,-1647.42 1576.16,-1659.31"/>
<text text-anchor="middle" x="1529.32" y="-1664.37" font-family="Times,serif" font-size="14.00">fsf:EPL</text>
</g>
<!-- 1552&#45;&gt;10152 -->
<g id="edge6" class="edge">
<title>1552&#45;&gt;10152</title>
<path fill="none" stroke="#deb256" stroke-dasharray="5,2" d="M1670.54,-1247.59C1562.88,-1501.98 1553.22,-1526.62 1534.78,-1636.32"/>
<polygon fill="#deb256" stroke="#deb256" points="1533.16,-1646 1530.37,-1635.4 1533.79,-1642.27 1534.81,-1636.14 1534.81,-1636.14 1534.81,-1636.14 1533.79,-1642.27 1539.25,-1636.88 1533.16,-1646"/>
</g>
<!-- 10922 -->
<g id="node24" class="node">
<title>10922</title>
<polygon fill="none" stroke="#58a066" points="1442.57,-1328.02 1442.57,-1342.94 1415.2,-1353.48 1376.5,-1353.48 1349.13,-1342.94 1349.13,-1328.02 1376.5,-1317.48 1415.2,-1317.48 1442.57,-1328.02"/>
<polygon fill="none" stroke="#58a066" points="1446.57,-1325.28 1446.57,-1345.68 1415.95,-1357.48 1375.75,-1357.48 1345.13,-1345.68 1345.13,-1325.28 1375.75,-1313.48 1415.95,-1313.48 1446.57,-1325.28"/>
<text text-anchor="middle" x="1395.85" y="-1330.43" font-family="Times,serif" font-size="14.00">cal:epl&#45;1</text>
</g>
<!-- 1552&#45;&gt;10922 -->
<g id="edge7" class="edge">
<title>1552&#45;&gt;10922</title>
<path fill="none" stroke="#58a066" stroke-width="2" d="M1628.11,-1241.34C1509.65,-1278.07 1479.63,-1288.54 1436.77,-1312.03"/>
<polygon fill="#58a066" stroke="#58a066" stroke-width="2" points="1429.21,-1316.24 1435.76,-1307.44 1431.21,-1314.55 1437.7,-1310.93 1437.95,-1311.37 1438.19,-1311.81 1431.69,-1315.43 1440.14,-1315.3 1429.21,-1316.24"/>
</g>
<!-- 25876 -->
<g id="node30" class="node">
<title>25876</title>
<polygon fill="none" stroke="#98b561" points="1413.29,-1219.17 1413.29,-1234.09 1380.08,-1244.63 1333.11,-1244.63 1299.9,-1234.09 1299.9,-1219.17 1333.11,-1208.63 1380.08,-1208.63 1413.29,-1219.17"/>
<polygon fill="none" stroke="#98b561" points="1417.29,-1216.25 1417.29,-1237.01 1380.7,-1248.63 1332.49,-1248.63 1295.9,-1237.01 1295.9,-1216.25 1332.49,-1204.63 1380.7,-1204.63 1417.29,-1216.25"/>
<text text-anchor="middle" x="1356.6" y="-1221.58" font-family="Times,serif" font-size="14.00">oslc:EPL&#45;1</text>
</g>
<!-- 1552&#45;&gt;25876 -->
<g id="edge8" class="edge">
<title>1552&#45;&gt;25876</title>
<path fill="none" stroke="#98b561" stroke-width="2" d="M1608.37,-1222.61C1507.32,-1218.91 1467.61,-1218.05 1428.58,-1220.28"/>
<polygon fill="#98b561" stroke="#98b561" stroke-width="2" points="1419.98,-1220.84 1429.66,-1215.7 1422.5,-1220.17 1429.92,-1219.69 1429.95,-1220.19 1429.99,-1220.69 1422.57,-1221.17 1430.24,-1224.68 1419.98,-1220.84"/>
</g>
<!-- 41766 -->
<g id="node43" class="node">
<title>41766</title>
<polygon fill="none" stroke="#00876c" points="2410.24,-1774.09 2410.24,-1789 2313.75,-1799.54 2177.29,-1799.54 2080.81,-1789 2080.81,-1774.09 2177.29,-1763.54 2313.75,-1763.54 2410.24,-1774.09"/>
<polygon fill="none" stroke="#00876c" points="2414.24,-1770.5 2414.24,-1792.58 2313.97,-1803.54 2177.08,-1803.54 2076.81,-1792.58 2076.81,-1770.5 2177.08,-1759.54 2313.97,-1759.54 2414.24,-1770.5"/>
<text text-anchor="middle" x="2245.52" y="-1776.49" font-family="Times,serif" font-size="14.00">metaeffekt:Eclipse Public License 1.0</text>
</g>
<!-- 1552&#45;&gt;41766 -->
<g id="edge9" class="edge">
<title>1552&#45;&gt;41766</title>
<path fill="none" stroke="#00876c" stroke-width="2" d="M1702.19,-1247.65C2046.84,-1594.46 2072.63,-1620.2 2213.52,-1751.69"/>
<polygon fill="#00876c" stroke="#00876c" stroke-width="2" points="2219.85,-1757.6 2209.47,-1754.07 2217.64,-1756.22 2212.2,-1751.14 2212.54,-1750.78 2212.88,-1750.41 2218.32,-1755.49 2215.61,-1747.49 2219.85,-1757.6"/>
</g>
<!-- 1553 -->
<g id="node3" class="node">
<title>1553</title>
<polygon fill="none" stroke="black" points="2028.39,-1164.83 2028.39,-1179.75 2001.68,-1190.29 1963.89,-1190.29 1937.17,-1179.75 1937.17,-1164.83 1963.89,-1154.29 2001.68,-1154.29 2028.39,-1164.83"/>
<polygon fill="none" stroke="black" points="2032.39,-1162.11 2032.39,-1182.47 2002.44,-1194.29 1963.13,-1194.29 1933.17,-1182.47 1933.17,-1162.11 1963.13,-1150.29 2002.44,-1150.29 2032.39,-1162.11"/>
<text text-anchor="middle" x="1982.78" y="-1167.24" font-family="Times,serif" font-size="14.00">EPL&#45;1.0</text>
</g>
<!-- 1553&#45;&gt;1552 -->
<g id="edge10" class="edge">
<title>1553&#45;&gt;1552</title>
<path fill="none" stroke="black" stroke-width="2" d="M1933.02,-1170.73C1884.97,-1170.5 1854.01,-1177.08 1745.8,-1206.98"/>
<polygon fill="black" stroke="black" stroke-width="2" points="1737.43,-1209.29 1745.87,-1202.29 1739.77,-1208.13 1746.94,-1206.14 1747.07,-1206.62 1747.2,-1207.11 1740.04,-1209.09 1748.27,-1210.96 1737.43,-1209.29"/>
</g>
<!-- 1553&#45;&gt;5012 -->
<g id="edge11" class="edge">
<title>1553&#45;&gt;5012</title>
<path fill="none" stroke="black" stroke-width="2" d="M2006.22,-1193.12C2052.23,-1234.36 2063.11,-1247.81 2070.79,-1283.52"/>
<polygon fill="black" stroke="black" stroke-width="2" points="2072.42,-1291.84 2066.08,-1282.89 2071.43,-1289.42 2070,-1282.12 2070.49,-1282.03 2070.98,-1281.93 2072.42,-1289.23 2074.91,-1281.16 2072.42,-1291.84"/>
</g>
<!-- 1553&#45;&gt;6322 -->
<g id="edge12" class="edge">
<title>1553&#45;&gt;6322</title>
<path fill="none" stroke="#e09d4b" stroke-width="2" d="M1969.56,-1149.84C1878.56,-995.51 1860.76,-972.45 1743.47,-934.23"/>
<polygon fill="#e09d4b" stroke="#e09d4b" stroke-width="2" points="1735.27,-931.59 1746.17,-930.37 1737.87,-931.9 1744.95,-934.18 1744.79,-934.66 1744.64,-935.13 1737.56,-932.85 1743.41,-938.94 1735.27,-931.59"/>
</g>
<!-- 9389 -->
<g id="node14" class="node">
<title>9389</title>
<polygon fill="none" stroke="#00876c" points="1579.71,-1161.88 1579.71,-1176.79 1530.6,-1187.33 1461.14,-1187.33 1412.03,-1176.79 1412.03,-1161.88 1461.14,-1151.33 1530.6,-1151.33 1579.71,-1161.88"/>
<polygon fill="none" stroke="#00876c" points="1583.71,-1158.64 1583.71,-1180.02 1531.02,-1191.33 1460.72,-1191.33 1408.03,-1180.02 1408.03,-1158.64 1460.72,-1147.33 1531.02,-1147.33 1583.71,-1158.64"/>
<text text-anchor="middle" x="1495.87" y="-1164.28" font-family="Times,serif" font-size="14.00">BlueOak:EPL&#45;1.0</text>
</g>
<!-- 1553&#45;&gt;9389 -->
<g id="edge13" class="edge">
<title>1553&#45;&gt;9389</title>
<path fill="none" stroke="#00876c" stroke-width="2" d="M1945.79,-1156.77C1766.42,-1081.89 1738.76,-1079.02 1557.16,-1146.33"/>
<polygon fill="#00876c" stroke="#00876c" stroke-width="2" points="1548.98,-1149.37 1556.78,-1141.67 1551.21,-1148.01 1558.18,-1145.41 1558.35,-1145.88 1558.53,-1146.35 1551.56,-1148.94 1559.92,-1150.1 1548.98,-1149.37"/>
</g>
<!-- 1553&#45;&gt;9537 -->
<g id="edge14" class="edge">
<title>1553&#45;&gt;9537</title>
<path fill="none" stroke="#58a066" stroke-width="2" d="M1977.2,-1149.99C1922.15,-930.36 1913.41,-906.35 1806.78,-823.76"/>
<polygon fill="#58a066" stroke="#58a066" stroke-width="2" points="1799.83,-818.4 1810.5,-820.94 1802.16,-819.57 1808.05,-824.11 1807.75,-824.51 1807.44,-824.9 1801.55,-820.36 1805,-828.07 1799.83,-818.4"/>
</g>
<!-- 15192 -->
<g id="node27" class="node">
<title>15192</title>
<polygon fill="none" stroke="black" points="2290.43,-1423.52 2290.43,-1438.43 2243.92,-1448.97 2178.14,-1448.97 2131.62,-1438.43 2131.62,-1423.52 2178.14,-1412.97 2243.92,-1412.97 2290.43,-1423.52"/>
<polygon fill="none" stroke="black" points="2294.43,-1420.32 2294.43,-1441.62 2244.36,-1452.97 2177.69,-1452.97 2127.62,-1441.62 2127.62,-1420.32 2177.69,-1408.97 2244.36,-1408.97 2294.43,-1420.32"/>
<text text-anchor="middle" x="2211.03" y="-1425.92" font-family="Times,serif" font-size="14.00">scancode:epl&#45;1.0</text>
</g>
<!-- 1553&#45;&gt;15192 -->
<g id="edge15" class="edge">
<title>1553&#45;&gt;15192</title>
<path fill="none" stroke="black" stroke-width="2" d="M2008.74,-1191.88C2149.07,-1297.96 2165.51,-1313.66 2198.53,-1398.2"/>
<polygon fill="black" stroke="black" stroke-width="2" points="2201.66,-1406.31 2193.85,-1398.6 2200.27,-1404.1 2197.59,-1397.16 2198.05,-1396.98 2198.52,-1396.8 2201.2,-1403.74 2202.25,-1395.36 2201.66,-1406.31"/>
</g>
<!-- 26613 -->
<g id="node32" class="node">
<title>26613</title>
<polygon fill="none" stroke="#e18745" points="2323.21,-809.89 2323.21,-824.8 2272.16,-835.35 2199.95,-835.35 2148.9,-824.8 2148.9,-809.89 2199.95,-799.35 2272.16,-799.35 2323.21,-809.89"/>
<polygon fill="none" stroke="#e18745" points="2327.21,-806.63 2327.21,-828.06 2272.57,-839.35 2199.54,-839.35 2144.9,-828.06 2144.9,-806.63 2199.54,-795.35 2272.57,-795.35 2327.21,-806.63"/>
<text text-anchor="middle" x="2236.06" y="-812.3" font-family="Times,serif" font-size="14.00">fossology:EPL&#45;1.0</text>
</g>
<!-- 1553&#45;&gt;26613 -->
<g id="edge16" class="edge">
<title>1553&#45;&gt;26613</title>
<path fill="none" stroke="#e18745" stroke-width="2" d="M2002.17,-1150.1C2163.95,-964.84 2181.01,-943.58 2221.93,-850.05"/>
<polygon fill="#e18745" stroke="#e18745" stroke-width="2" points="2225.4,-842.07 2225.54,-853.04 2224.84,-844.62 2221.87,-851.44 2221.41,-851.24 2220.95,-851.04 2223.92,-844.22 2217.29,-849.45 2225.4,-842.07"/>
</g>
<!-- 36769 -->
<g id="node38" class="node">
<title>36769</title>
<polygon fill="none" stroke="#379469" points="1678.93,-1548.07 1678.93,-1562.98 1639.24,-1573.52 1583.09,-1573.52 1543.39,-1562.98 1543.39,-1548.07 1583.09,-1537.52 1639.24,-1537.52 1678.93,-1548.07"/>
<polygon fill="none" stroke="#379469" points="1682.93,-1544.99 1682.93,-1566.06 1639.76,-1577.52 1582.57,-1577.52 1539.39,-1566.06 1539.39,-1544.99 1582.57,-1533.52 1639.76,-1533.52 1682.93,-1544.99"/>
<text text-anchor="middle" x="1611.16" y="-1550.47" font-family="Times,serif" font-size="14.00">cavil:EPL&#45;1.0</text>
</g>
<!-- 1553&#45;&gt;36769 -->
<g id="edge17" class="edge">
<title>1553&#45;&gt;36769</title>
<path fill="none" stroke="#379469" stroke-width="2" d="M1972.59,-1194.45C1862.66,-1433.26 1848.2,-1455.36 1665.36,-1532.84"/>
<polygon fill="#379469" stroke="#379469" stroke-width="2" points="1657.34,-1536.22 1664.8,-1528.19 1659.5,-1534.76 1666.36,-1531.87 1666.55,-1532.33 1666.74,-1532.79 1659.89,-1535.69 1668.3,-1536.48 1657.34,-1536.22"/>
</g>
<!-- 1553&#45;&gt;41766 -->
<g id="edge18" class="edge">
<title>1553&#45;&gt;41766</title>
<path fill="none" stroke="#00876c" stroke-dasharray="5,2" d="M1997.63,-1194.64C2217.67,-1525.86 2228.91,-1546.65 2243.22,-1748.33"/>
<polygon fill="#00876c" stroke="#00876c" points="2243.91,-1758.12 2238.72,-1748.46 2243.64,-1754.35 2243.21,-1748.14 2243.21,-1748.14 2243.21,-1748.14 2243.64,-1754.35 2247.69,-1747.83 2243.91,-1758.12"/>
</g>
<!-- 50469 -->
<g id="node65" class="node">
<title>50469</title>
<polygon fill="none" stroke="#b8bf62" points="2710.78,-1674.22 2710.78,-1689.13 2612.02,-1699.68 2472.35,-1699.68 2373.59,-1689.13 2373.59,-1674.22 2472.35,-1663.68 2612.02,-1663.68 2710.78,-1674.22"/>
<polygon fill="none" stroke="#b8bf62" points="2714.78,-1670.63 2714.78,-1692.73 2612.23,-1703.68 2472.14,-1703.68 2369.59,-1692.73 2369.59,-1670.63 2472.14,-1659.68 2612.23,-1659.68 2714.78,-1670.63"/>
<text text-anchor="middle" x="2542.18" y="-1676.63" font-family="Times,serif" font-size="14.00">foss&#45;license:Eclipse Public License 1.0</text>
</g>
<!-- 1553&#45;&gt;50469 -->
<g id="edge19" class="edge">
<title>1553&#45;&gt;50469</title>
<path fill="none" stroke="#b8bf62" stroke-width="2" d="M2010.11,-1191.7C2385.01,-1457.95 2408.06,-1476.47 2521.56,-1650.03"/>
<polygon fill="#b8bf62" stroke="#b8bf62" stroke-width="2" points="2526.23,-1657.18 2517,-1651.27 2524.41,-1655.31 2520.35,-1649.08 2520.76,-1648.81 2521.18,-1648.54 2525.25,-1654.76 2524.53,-1646.35 2526.23,-1657.18"/>
</g>
<!-- 50967 -->
<g id="node75" class="node">
<title>50967</title>
<polygon fill="none" stroke="#dac767" points="1981.4,-662.6 1981.4,-677.51 1890.1,-688.06 1760.99,-688.06 1669.69,-677.51 1669.69,-662.6 1760.99,-652.06 1890.1,-652.06 1981.4,-662.6"/>
<polygon fill="none" stroke="#dac767" points="1985.4,-659.03 1985.4,-681.08 1890.33,-692.06 1760.76,-692.06 1665.69,-681.08 1665.69,-659.03 1760.76,-648.06 1890.33,-648.06 1985.4,-659.03"/>
<text text-anchor="middle" x="1825.54" y="-665.01" font-family="Times,serif" font-size="14.00">fosslight:Eclipse Public License 1.0</text>
</g>
<!-- 1553&#45;&gt;50967 -->
<g id="edge20" class="edge">
<title>1553&#45;&gt;50967</title>
<path fill="none" stroke="#dac767" stroke-width="2" d="M1980.83,-1150.07C1954.42,-850.53 1950.19,-826.29 1850.26,-700.84"/>
<polygon fill="#dac767" stroke="#dac767" stroke-width="2" points="1845.06,-694.34 1854.81,-699.34 1847.05,-696.03 1851.69,-701.84 1851.3,-702.15 1850.91,-702.46 1846.27,-696.65 1847.78,-704.96 1845.06,-694.34"/>
</g>
<!-- 54271 -->
<g id="node79" class="node">
<title>54271</title>
<polygon fill="none" stroke="#98b561" points="2174.97,-617.43 2174.97,-632.35 2130.41,-642.89 2067.38,-642.89 2022.81,-632.35 2022.81,-617.43 2067.38,-606.89 2130.41,-606.89 2174.97,-617.43"/>
<polygon fill="none" stroke="#98b561" points="2178.97,-614.27 2178.97,-635.51 2130.87,-646.89 2066.91,-646.89 2018.81,-635.51 2018.81,-614.27 2066.91,-602.89 2130.87,-602.89 2178.97,-614.27"/>
<text text-anchor="middle" x="2098.89" y="-619.84" font-family="Times,serif" font-size="14.00">eclipse:EPL&#45;1.0</text>
</g>
<!-- 1553&#45;&gt;54271 -->
<g id="edge21" class="edge">
<title>1553&#45;&gt;54271</title>
<path fill="none" stroke="#98b561" stroke-width="2" d="M1990.97,-1149.94C2106.26,-835.23 2113.31,-811.8 2101.52,-658.09"/>
<polygon fill="#98b561" stroke="#98b561" stroke-width="2" points="2100.87,-649.71 2106.13,-659.33 2101.57,-652.23 2102.14,-659.64 2101.65,-659.68 2101.15,-659.72 2100.57,-652.31 2097.16,-660.03 2100.87,-649.71"/>
</g>
<!-- 1554 -->
<g id="node4" class="node">
<title>1554</title>
<polygon fill="none" stroke="black" points="2022.6,-1222.08 2022.6,-1237 1953.05,-1247.54 1854.69,-1247.54 1785.13,-1237 1785.13,-1222.08 1854.69,-1211.54 1953.05,-1211.54 2022.6,-1222.08"/>
<polygon fill="none" stroke="black" points="2026.6,-1218.64 2026.6,-1240.43 1953.35,-1251.54 1854.38,-1251.54 1781.13,-1240.43 1781.13,-1218.64 1854.38,-1207.54 1953.35,-1207.54 2026.6,-1218.64"/>
<text text-anchor="middle" x="1903.87" y="-1224.49" font-family="Times,serif" font-size="14.00">Eclipse Public License 1.0</text>
</g>
<!-- 1554&#45;&gt;1552 -->
<g id="edge22" class="edge">
<title>1554&#45;&gt;1552</title>
<path fill="none" stroke="#b8bf62" stroke-width="2" d="M1815.82,-1212.91C1801.81,-1212.99 1785.06,-1214.15 1762.63,-1216.32"/>
<polygon fill="#b8bf62" stroke="#b8bf62" stroke-width="2" points="1753.96,-1217.19 1763.46,-1211.72 1756.46,-1216.43 1763.86,-1215.7 1763.91,-1216.19 1763.96,-1216.69 1756.56,-1217.43 1764.36,-1220.67 1753.96,-1217.19"/>
</g>
<!-- 1554&#45;&gt;1553 -->
<g id="edge23" class="edge">
<title>1554&#45;&gt;1553</title>
<path fill="none" stroke="#379469" stroke-width="2" d="M1942.09,-1207.24C1946.18,-1204.76 1949.65,-1202.57 1952.68,-1200.54"/>
<polygon fill="#379469" stroke="#379469" stroke-width="2" points="1959.64,-1195.49 1954.18,-1205.01 1957.86,-1197.4 1951.84,-1201.77 1951.54,-1201.37 1951.25,-1200.96 1957.27,-1196.59 1948.9,-1197.72 1959.64,-1195.49"/>
</g>
<!-- 1554&#45;&gt;6322 -->
<g id="edge24" class="edge">
<title>1554&#45;&gt;6322</title>
<path fill="none" stroke="#e09d4b" stroke-dasharray="5,2" d="M1895.29,-1207.21C1824.83,-1024.1 1812.61,-999 1722.22,-941.34"/>
<polygon fill="#e09d4b" stroke="#e09d4b" points="1713.96,-936.11 1724.81,-937.65 1717.15,-938.13 1722.41,-941.46 1722.41,-941.46 1722.41,-941.46 1717.15,-938.13 1720.01,-945.26 1713.96,-936.11"/>
</g>
<!-- 1554&#45;&gt;9389 -->
<g id="edge25" class="edge">
<title>1554&#45;&gt;9389</title>
<path fill="none" stroke="#00876c" stroke-width="2" d="M1851.67,-1207.62C1697.21,-1143.08 1659.27,-1132.33 1571.64,-1150.84"/>
<polygon fill="#00876c" stroke="#00876c" stroke-width="2" points="1563.07,-1152.71 1571.87,-1146.18 1565.47,-1151.68 1572.73,-1150.08 1572.84,-1150.57 1572.95,-1151.06 1565.68,-1152.65 1573.8,-1154.97 1563.07,-1152.71"/>
</g>
<!-- 1554&#45;&gt;10922 -->
<g id="edge26" class="edge">
<title>1554&#45;&gt;10922</title>
<path fill="none" stroke="#58a066" stroke-width="2" d="M1827.39,-1247.88C1595.83,-1303.36 1549.83,-1313.58 1457.67,-1326.87"/>
<polygon fill="#58a066" stroke="#58a066" stroke-width="2" points="1449.21,-1328.08 1458.48,-1322.21 1451.68,-1327.22 1459.04,-1326.17 1459.11,-1326.67 1459.18,-1327.16 1451.82,-1328.21 1459.75,-1331.12 1449.21,-1328.08"/>
</g>
<!-- 1554&#45;&gt;15192 -->
<g id="edge27" class="edge">
<title>1554&#45;&gt;15192</title>
<path fill="none" stroke="#dac767" stroke-width="2" d="M1947,-1251.94C2102.93,-1333.03 2129.43,-1348.76 2181.46,-1400.75"/>
<polygon fill="#dac767" stroke="#dac767" stroke-width="2" points="2187.62,-1406.97 2177.38,-1403.03 2185.46,-1405.5 2180.22,-1400.22 2180.58,-1399.87 2180.93,-1399.51 2186.17,-1404.79 2183.77,-1396.7 2187.62,-1406.97"/>
</g>
<!-- 1554&#45;&gt;25876 -->
<g id="edge28" class="edge">
<title>1554&#45;&gt;25876</title>
<path fill="none" stroke="#98b561" stroke-width="2" d="M1781.03,-1219.52C1571.1,-1202.7 1519.68,-1201.53 1428.76,-1214.94"/>
<polygon fill="#98b561" stroke="#98b561" stroke-width="2" points="1420.17,-1216.24 1429.39,-1210.3 1422.63,-1215.36 1429.99,-1214.25 1430.06,-1214.75 1430.14,-1215.24 1422.78,-1216.35 1430.73,-1219.2 1420.17,-1216.24"/>
</g>
<!-- 1554&#45;&gt;26613 -->
<g id="edge29" class="edge">
<title>1554&#45;&gt;26613</title>
<path fill="none" stroke="#e18745" stroke-width="2" d="M1925.14,-1207.2C2138.36,-983.21 2157.59,-961.51 2218.65,-849.5"/>
<polygon fill="#e18745" stroke="#e18745" stroke-width="2" points="2222.74,-841.97 2221.92,-852.9 2221.96,-844.46 2218.41,-850.99 2217.97,-850.76 2217.53,-850.52 2221.08,-843.98 2214.01,-848.61 2222.74,-841.97"/>
</g>
<!-- 1554&#45;&gt;36769 -->
<g id="edge30" class="edge">
<title>1554&#45;&gt;36769</title>
<path fill="none" stroke="#379469" stroke-dasharray="5,2" d="M1892.27,-1251.82C1788.12,-1451.74 1772,-1477.21 1661.34,-1531.56"/>
<polygon fill="#379469" stroke="#379469" points="1652.52,-1535.85 1659.54,-1527.43 1655.92,-1534.2 1661.51,-1531.48 1661.51,-1531.48 1661.51,-1531.48 1655.92,-1534.2 1663.48,-1535.52 1652.52,-1535.85"/>
</g>
<!-- 1554&#45;&gt;41766 -->
<g id="edge31" class="edge">
<title>1554&#45;&gt;41766</title>
<path fill="none" stroke="#00876c" stroke-width="2" d="M1921.28,-1251.76C2164.54,-1562.26 2180.18,-1584.37 2234.69,-1748.7"/>
<polygon fill="#00876c" stroke="#00876c" stroke-width="2" points="2237.4,-1756.89 2229.99,-1748.81 2236.12,-1754.62 2233.79,-1747.56 2234.26,-1747.4 2234.74,-1747.24 2237.07,-1754.3 2238.54,-1745.99 2237.4,-1756.89"/>
</g>
<!-- 1554&#45;&gt;50469 -->
<g id="edge32" class="edge">
<title>1554&#45;&gt;50469</title>
<path fill="none" stroke="#b8bf62" stroke-width="2" d="M1940.27,-1251.87C2340.14,-1497.21 2370.31,-1517.11 2510.83,-1651.59"/>
<polygon fill="#b8bf62" stroke="#b8bf62" stroke-width="2" points="2517.17,-1657.65 2506.83,-1653.98 2514.97,-1656.24 2509.6,-1651.1 2509.94,-1650.73 2510.29,-1650.37 2515.66,-1655.52 2513.06,-1647.48 2517.17,-1657.65"/>
</g>
<!-- 1554&#45;&gt;50967 -->
<g id="edge33" class="edge">
<title>1554&#45;&gt;50967</title>
<path fill="none" stroke="#dac767" stroke-width="2" d="M1904.22,-1207.24C1909.45,-870.12 1908.38,-844.77 1840.95,-702.36"/>
<polygon fill="#dac767" stroke="#dac767" stroke-width="2" points="1837.24,-694.55 1845.6,-701.65 1838.8,-696.65 1841.99,-703.37 1841.54,-703.58 1841.08,-703.8 1837.89,-697.08 1837.47,-705.51 1837.24,-694.55"/>
</g>
<!-- 51264 -->
<g id="node77" class="node">
<title>51264</title>
<polygon fill="none" stroke="#d43d51" points="2495.29,-674.7 2495.29,-689.61 2408.22,-700.16 2285.07,-700.16 2197.99,-689.61 2197.99,-674.7 2285.07,-664.16 2408.22,-664.16 2495.29,-674.7"/>
<polygon fill="none" stroke="#d43d51" points="2499.29,-671.16 2499.29,-693.16 2408.46,-704.16 2284.83,-704.16 2193.99,-693.16 2193.99,-671.16 2284.83,-660.16 2408.46,-660.16 2499.29,-671.16"/>
<text text-anchor="middle" x="2346.64" y="-677.11" font-family="Times,serif" font-size="14.00">hitachi:Eclipse Public License 1.0</text>
</g>
<!-- 1554&#45;&gt;51264 -->
<g id="edge34" class="edge">
<title>1554&#45;&gt;51264</title>
<path fill="none" stroke="#d43d51" stroke-width="2" d="M1924.66,-1207.14C2218.3,-890.82 2238.13,-868.17 2328.21,-713.84"/>
<polygon fill="#d43d51" stroke="#d43d51" stroke-width="2" points="2332.45,-706.56 2331.3,-717.47 2331.59,-709.03 2327.84,-715.46 2327.41,-715.2 2326.98,-714.95 2330.73,-708.53 2323.52,-712.94 2332.45,-706.56"/>
</g>
<!-- 5011 -->
<g id="node5" class="node">
<title>5011</title>
<ellipse fill="none" stroke="#78ab63" cx="2485.97" cy="-1038.41" rx="157.68" ry="28.99"/>
<text text-anchor="middle" x="2485.97" y="-1041.61" font-family="Times,serif" font-size="14.00" fill="gray">OSILicense</text>
<text text-anchor="middle" x="2485.97" y="-1025.11" font-family="Times,serif" font-size="14.00" fill="gray">8c3e3a8ba672dc61b2c2847c0aaa0a5a</text>
</g>
<!-- 5011&#45;&gt;5012 -->
<g id="edge35" class="edge">
<title>5011&#45;&gt;5012</title>
<path fill="none" stroke="#78ab63" d="M2461.8,-1067.33C2383.55,-1160.17 2358.48,-1176.51 2129.53,-1293.86"/>
<polygon fill="#78ab63" stroke="#78ab63" points="2128.19,-1290.62 2120.89,-1298.29 2131.38,-1296.85 2128.19,-1290.62"/>
</g>
<!-- 5012&#45;&gt;41766 -->
<g id="edge36" class="edge">
<title>5012&#45;&gt;41766</title>
<path fill="none" stroke="#00876c" stroke-dasharray="5,2" d="M2092.52,-1346.97C2231.88,-1588.46 2241.74,-1610.05 2244.87,-1748.16"/>
<polygon fill="#00876c" stroke="#00876c" points="2245.08,-1757.98 2240.37,-1748.08 2245,-1754.2 2244.87,-1747.99 2244.87,-1747.99 2244.87,-1747.99 2245,-1754.2 2249.37,-1747.89 2245.08,-1757.98"/>
</g>
<!-- 5013 -->
<g id="node7" class="node">
<title>5013</title>
<polygon fill="none" stroke="black" points="2120,-1716.69 2120,-1731.6 2029.68,-1742.14 1901.94,-1742.14 1811.62,-1731.6 1811.62,-1716.69 1901.94,-1706.14 2029.68,-1706.14 2120,-1716.69"/>
<polygon fill="none" stroke="black" points="2124,-1713.13 2124,-1735.16 2029.91,-1746.14 1901.71,-1746.14 1807.62,-1735.16 1807.62,-1713.13 1901.71,-1702.14 2029.91,-1702.14 2124,-1713.13"/>
<text text-anchor="middle" x="1965.81" y="-1719.09" font-family="Times,serif" font-size="14.00">Eclipse Public License, Version 1.0</text>
</g>
<!-- 5013&#45;&gt;5012 -->
<g id="edge37" class="edge">
<title>5013&#45;&gt;5012</title>
<path fill="none" stroke="#78ab63" stroke-width="2" d="M1983.74,-1701.93C2077.97,-1584.78 2082.74,-1566.75 2078.15,-1357.94"/>
<polygon fill="#78ab63" stroke="#78ab63" stroke-width="2" points="2077.95,-1349.31 2082.68,-1359.21 2078.51,-1351.86 2078.68,-1359.3 2078.18,-1359.31 2077.68,-1359.32 2077.51,-1351.88 2073.68,-1359.41 2077.95,-1349.31"/>
</g>
<!-- 5013&#45;&gt;41766 -->
<g id="edge38" class="edge">
<title>5013&#45;&gt;41766</title>
<path fill="none" stroke="#00876c" stroke-dasharray="5,2" d="M2018.73,-1746.61C2036.87,-1754.24 2052.56,-1760.7 2066.43,-1766.13"/>
<polygon fill="#00876c" stroke="#00876c" points="2075.56,-1769.64 2064.61,-1770.25 2072.03,-1768.29 2066.22,-1766.05 2066.22,-1766.05 2066.22,-1766.05 2072.03,-1768.29 2067.84,-1761.85 2075.56,-1769.64"/>
</g>
<!-- 5013&#45;&gt;50469 -->
<g id="edge39" class="edge">
<title>5013&#45;&gt;50469</title>
<path fill="none" stroke="#b8bf62" stroke-width="2" d="M2081.73,-1740.54C2313.61,-1772.42 2356.82,-1768.53 2485.45,-1708.69"/>
<polygon fill="#b8bf62" stroke="#b8bf62" stroke-width="2" points="2493.06,-1705.12 2485.91,-1713.44 2490.95,-1706.66 2484.22,-1709.82 2484,-1709.36 2483.79,-1708.91 2490.53,-1705.76 2482.1,-1705.29 2493.06,-1705.12"/>
</g>
<!-- 5650 -->
<g id="node8" class="node">
<title>5650</title>
<ellipse fill="none" stroke="#e06f45" cx="764.67" cy="-559.49" rx="161.4" ry="28.99"/>
<text text-anchor="middle" x="764.67" y="-562.69" font-family="Times,serif" font-size="14.00" fill="gray">GoogleLicense</text>
<text text-anchor="middle" x="764.67" y="-546.19" font-family="Times,serif" font-size="14.00" fill="gray">50027942e92b3906a4e9826e60a374b7</text>
</g>
<!-- 5650&#45;&gt;5651 -->
<g id="edge40" class="edge">
<title>5650&#45;&gt;5651</title>
<path fill="none" stroke="#e06f45" d="M813.74,-587.44C908.42,-641.67 945.4,-665.88 1186.37,-826.63"/>
<polygon fill="#e06f45" stroke="#e06f45" points="1184.24,-829.42 1194.51,-832.06 1188.13,-823.6 1184.24,-829.42"/>
</g>
<!-- 5652 -->
<g id="node10" class="node">
<title>5652</title>
<polygon fill="none" stroke="#e06f45" points="1039.03,-566.76 1039.03,-581.67 1015.88,-592.21 983.15,-592.21 960,-581.67 960,-566.76 983.15,-556.21 1015.88,-556.21 1039.03,-566.76"/>
<polygon fill="none" stroke="#e06f45" points="1043.03,-564.18 1043.03,-584.24 1016.75,-596.21 982.28,-596.21 956,-584.24 956,-564.18 982.28,-552.21 1016.75,-552.21 1043.03,-564.18"/>
<text text-anchor="middle" x="999.52" y="-569.16" font-family="Times,serif" font-size="14.00">EPL10</text>
</g>
<!-- 5652&#45;&gt;5651 -->
<g id="edge41" class="edge">
<title>5652&#45;&gt;5651</title>
<path fill="none" stroke="#e06f45" stroke-width="2" d="M1014.09,-596.62C1057.85,-663.58 1072.46,-681.01 1200.81,-824.06"/>
<polygon fill="#e06f45" stroke="#e06f45" stroke-width="2" points="1206.58,-830.49 1196.55,-826.06 1204.5,-828.92 1199.53,-823.39 1199.9,-823.05 1200.27,-822.72 1205.24,-828.25 1203.25,-820.05 1206.58,-830.49"/>
</g>
<!-- 6321 -->
<g id="node11" class="node">
<title>6321</title>
<ellipse fill="none" stroke="#e09d4b" cx="1392.02" cy="-460.28" rx="157.15" ry="28.99"/>
<text text-anchor="middle" x="1392.02" y="-463.48" font-family="Times,serif" font-size="14.00" fill="gray">FedoraEntry</text>
<text text-anchor="middle" x="1392.02" y="-446.98" font-family="Times,serif" font-size="14.00" fill="gray">e21a5f06753be57bab9feb94529dea9b</text>
</g>
<!-- 6321&#45;&gt;6322 -->
<g id="edge42" class="edge">
<title>6321&#45;&gt;6322</title>
<path fill="none" stroke="#e09d4b" d="M1416.86,-489.17C1498.19,-584.3 1513.75,-610.97 1660.53,-881.72"/>
<polygon fill="#e09d4b" stroke="#e09d4b" points="1657.24,-883 1665.08,-890.13 1663.39,-879.67 1657.24,-883"/>
</g>
<!-- 9388 -->
<g id="node13" class="node">
<title>9388</title>
<ellipse fill="none" stroke="#00876c" cx="911.62" cy="-1023.77" rx="157.68" ry="28.99"/>
<text text-anchor="middle" x="911.62" y="-1026.97" font-family="Times,serif" font-size="14.00" fill="gray">BlueOakCouncil</text>
<text text-anchor="middle" x="911.62" y="-1010.47" font-family="Times,serif" font-size="14.00" fill="gray">37317d874d5309df6fe54160cf09be4d</text>
</g>
<!-- 9388&#45;&gt;9389 -->
<g id="edge43" class="edge">
<title>9388&#45;&gt;9389</title>
<path fill="none" stroke="#00876c" d="M1014.73,-1046.09C1102.98,-1065.76 1171.91,-1083.68 1422.3,-1149.88"/>
<polygon fill="#00876c" stroke="#00876c" points="1421.17,-1153.2 1431.73,-1152.37 1422.96,-1146.43 1421.17,-1153.2"/>
</g>
<!-- 9390 -->
<g id="node15" class="node">
<title>9390</title>
<polygon fill="none" stroke="black" points="1365.58,-1545 1365.58,-1559.91 1305.12,-1570.46 1219.6,-1570.46 1159.13,-1559.91 1159.13,-1545 1219.6,-1534.46 1305.12,-1534.46 1365.58,-1545"/>
<text text-anchor="middle" x="1262.36" y="-1547.41" font-family="Times,serif" font-size="14.00">Eclipse Public License</text>
</g>
<!-- 9390&#45;&gt;9389 -->
<g id="edge44" class="edge">
<title>9390&#45;&gt;9389</title>
<path fill="none" stroke="#00876c" stroke-dasharray="5,2" d="M1265.75,-1534.19C1291.96,-1393.69 1299.99,-1379.33 1467.35,-1199.88"/>
<polygon fill="#00876c" stroke="#00876c" points="1474.09,-1192.66 1470.56,-1203.04 1471.51,-1195.42 1467.27,-1199.97 1467.27,-1199.97 1467.27,-1199.97 1471.51,-1195.42 1463.98,-1196.9 1474.09,-1192.66"/>
</g>
<!-- 9390&#45;&gt;36769 -->
<g id="edge45" class="edge">
<title>9390&#45;&gt;36769</title>
<path fill="none" stroke="#379469" stroke-dasharray="5,2" d="M1307.35,-1570.46C1379.71,-1598.08 1409.33,-1597.9 1537.75,-1571.17"/>
<polygon fill="#379469" stroke="#379469" points="1547.21,-1569.19 1538.35,-1575.64 1543.51,-1569.96 1537.42,-1571.24 1537.42,-1571.24 1537.42,-1571.24 1543.51,-1569.96 1536.5,-1566.83 1547.21,-1569.19"/>
</g>
<!-- 41791 -->
<g id="node61" class="node">
<title>41791</title>
<polygon fill="none" stroke="#00876c" points="1337.12,-1950.25 1337.12,-1965.16 1288.34,-1975.71 1219.35,-1975.71 1170.56,-1965.16 1170.56,-1950.25 1219.35,-1939.71 1288.34,-1939.71 1337.12,-1950.25"/>
<text text-anchor="middle" x="1253.84" y="-1952.66" font-family="Times,serif" font-size="14.00">metaeffekt:EPL&#45;?</text>
</g>
<!-- 9390&#45;&gt;41791 -->
<g id="edge46" class="edge">
<title>9390&#45;&gt;41791</title>
<path fill="none" stroke="#00876c" stroke-dasharray="5,2" d="M1258.15,-1570.78C1206.46,-1796.02 1203.68,-1815.54 1243.5,-1928.7"/>
<polygon fill="#00876c" stroke="#00876c" points="1246.82,-1938.06 1239.24,-1930.14 1245.56,-1934.49 1243.48,-1928.63 1243.48,-1928.63 1243.48,-1928.63 1245.56,-1934.49 1247.72,-1927.13 1246.82,-1938.06"/>
</g>
<!-- 9536 -->
<g id="node16" class="node">
<title>9536</title>
<ellipse fill="none" stroke="#58a066" cx="1881.63" cy="-282.21" rx="157.15" ry="28.99"/>
<text text-anchor="middle" x="1881.63" y="-285.41" font-family="Times,serif" font-size="14.00" fill="gray">OSADLRule</text>
<text text-anchor="middle" x="1881.63" y="-268.91" font-family="Times,serif" font-size="14.00" fill="gray">0e6596cf04bcd66926d55351f538f16c</text>
</g>
<!-- 9536&#45;&gt;9537 -->
<g id="edge47" class="edge">
<title>9536&#45;&gt;9537</title>
<path fill="none" stroke="#58a066" d="M1873.39,-311.44C1839.57,-431.79 1834.25,-457.29 1774.97,-761.47"/>
<polygon fill="#58a066" stroke="#58a066" points="1771.61,-760.44 1773.13,-770.93 1778.48,-761.78 1771.61,-760.44"/>
</g>
<!-- 9848 -->
<g id="node18" class="node">
<title>9848</title>
<ellipse fill="none" stroke="#58a066" cx="1526.89" cy="-315.48" rx="156.62" ry="28.99"/>
<text text-anchor="middle" x="1526.89" y="-318.68" font-family="Times,serif" font-size="14.00" fill="gray">OSADLMatrix</text>
<text text-anchor="middle" x="1526.89" y="-302.18" font-family="Times,serif" font-size="14.00" fill="gray">d6370f5bae7cc8f1cb8e296364505edc</text>
</g>
<!-- 9848&#45;&gt;9537 -->
<g id="edge48" class="edge">
<title>9848&#45;&gt;9537</title>
<path fill="none" stroke="#58a066" d="M1550.38,-344.44C1632.85,-446.81 1644.71,-473.63 1755.89,-761.79"/>
<polygon fill="#58a066" stroke="#58a066" points="1752.48,-762.67 1759.34,-770.74 1759.01,-760.15 1752.48,-762.67"/>
</g>
<!-- 10151 -->
<g id="node19" class="node">
<title>10151</title>
<ellipse fill="none" stroke="#deb256" cx="1065.66" cy="-1897.18" rx="152.91" ry="28.99"/>
<text text-anchor="middle" x="1065.66" y="-1900.38" font-family="Times,serif" font-size="14.00" fill="gray">FSF</text>
<text text-anchor="middle" x="1065.66" y="-1883.88" font-family="Times,serif" font-size="14.00" fill="gray">b2703eff8bd23f7ea99fe93d7dc633cf</text>
</g>
<!-- 10151&#45;&gt;10152 -->
<g id="edge49" class="edge">
<title>10151&#45;&gt;10152</title>
<path fill="none" stroke="#deb256" d="M1165.06,-1874.81C1244.86,-1852.73 1298.44,-1819.61 1491.42,-1694.08"/>
<polygon fill="#deb256" stroke="#deb256" points="1493.28,-1697.05 1499.75,-1688.66 1489.46,-1691.18 1493.28,-1697.05"/>
</g>
<!-- 10153 -->
<g id="node21" class="node">
<title>10153</title>
<polygon fill="none" stroke="black" points="1645.1,-1937.27 1645.1,-1952.18 1627.79,-1962.73 1603.31,-1962.73 1586.01,-1952.18 1586.01,-1937.27 1603.31,-1926.73 1627.79,-1926.73 1645.1,-1937.27"/>
<polygon fill="none" stroke="black" points="1649.1,-1935.02 1649.1,-1954.43 1628.91,-1966.73 1602.19,-1966.73 1582.01,-1954.43 1582.01,-1935.02 1602.19,-1922.73 1628.91,-1922.73 1649.1,-1935.02"/>
<text text-anchor="middle" x="1615.55" y="-1939.68" font-family="Times,serif" font-size="14.00">EPL</text>
</g>
<!-- 10153&#45;&gt;10152 -->
<g id="edge50" class="edge">
<title>10153&#45;&gt;10152</title>
<path fill="none" stroke="#deb256" stroke-width="2" d="M1600.42,-1923.55C1559.2,-1865.04 1554.42,-1846.83 1534,-1702.65"/>
<polygon fill="#deb256" stroke="#deb256" stroke-width="2" points="1532.78,-1694 1538.63,-1703.27 1533.63,-1696.47 1534.67,-1703.83 1534.18,-1703.9 1533.68,-1703.97 1532.64,-1696.61 1529.72,-1704.53 1532.78,-1694"/>
</g>
<!-- 10153&#45;&gt;36769 -->
<g id="edge51" class="edge">
<title>10153&#45;&gt;36769</title>
<path fill="none" stroke="#379469" stroke-dasharray="5,2" d="M1611.78,-1922.5C1596.13,-1829.15 1596.31,-1809.61 1609.21,-1588.82"/>
<polygon fill="#379469" stroke="#379469" points="1609.79,-1579.02 1613.7,-1589.27 1609.57,-1582.8 1609.2,-1589.01 1609.2,-1589.01 1609.2,-1589.01 1609.57,-1582.8 1604.71,-1588.74 1609.79,-1579.02"/>
</g>
<!-- 41746 -->
<g id="node41" class="node">
<title>41746</title>
<polygon fill="none" stroke="#00876c" points="1404.99,-2299.43 1404.99,-2314.34 1308.5,-2324.89 1172.05,-2324.89 1075.56,-2314.34 1075.56,-2299.43 1172.05,-2288.89 1308.5,-2288.89 1404.99,-2299.43"/>
<text text-anchor="middle" x="1240.28" y="-2301.84" font-family="Times,serif" font-size="14.00">metaeffekt:Eclipse Public License 2.0</text>
</g>
<!-- 10153&#45;&gt;41746 -->
<g id="edge52" class="edge">
<title>10153&#45;&gt;41746</title>
<path fill="none" stroke="#00876c" stroke-dasharray="5,2" d="M1599.37,-1965.1C1415.72,-2196.34 1392.92,-2222.92 1284.06,-2283.11"/>
<polygon fill="#00876c" stroke="#00876c" points="1275.38,-2287.88 1281.98,-2279.12 1278.69,-2286.06 1284.14,-2283.06 1284.14,-2283.06 1284.14,-2283.06 1278.69,-2286.06 1286.31,-2287.01 1275.38,-2287.88"/>
</g>
<!-- 10153&#45;&gt;41766 -->
<g id="edge53" class="edge">
<title>10153&#45;&gt;41766</title>
<path fill="none" stroke="#00876c" stroke-dasharray="5,2" d="M1649.34,-1948.71C1954.98,-1984.61 1978.46,-1980.61 2206.66,-1810.58"/>
<polygon fill="#00876c" stroke="#00876c" points="2214.59,-1804.66 2209.26,-1814.25 2211.56,-1806.92 2206.57,-1810.64 2206.57,-1810.64 2206.57,-1810.64 2211.56,-1806.92 2203.88,-1807.03 2214.59,-1804.66"/>
</g>
<!-- 41785 -->
<g id="node60" class="node">
<title>41785</title>
<polygon fill="none" stroke="#00876c" points="1636.15,-2322.58 1636.15,-2337.49 1578.93,-2348.03 1498.01,-2348.03 1440.78,-2337.49 1440.78,-2322.58 1498.01,-2312.03 1578.93,-2312.03 1636.15,-2322.58"/>
<text text-anchor="middle" x="1538.47" y="-2324.98" font-family="Times,serif" font-size="14.00">metaeffekt:EPL&#45;1.0+</text>
</g>
<!-- 10153&#45;&gt;41785 -->
<g id="edge54" class="edge">
<title>10153&#45;&gt;41785</title>
<path fill="none" stroke="#00876c" stroke-dasharray="5,2" d="M1611.25,-1967.03C1567.97,-2191.48 1563.32,-2215.28 1544.78,-2300.92"/>
<polygon fill="#00876c" stroke="#00876c" points="1542.7,-2310.5 1540.42,-2299.78 1543.51,-2306.81 1544.82,-2300.73 1544.82,-2300.73 1544.82,-2300.73 1543.51,-2306.81 1549.22,-2301.68 1542.7,-2310.5"/>
</g>
<!-- 10153&#45;&gt;41791 -->
<g id="edge55" class="edge">
<title>10153&#45;&gt;41791</title>
<path fill="none" stroke="#00876c" stroke-dasharray="5,2" d="M1583.59,-1955.87C1430.38,-2009.1 1403.48,-2014.18 1306.58,-1978.15"/>
<polygon fill="#00876c" stroke="#00876c" points="1297.47,-1974.72 1308.42,-1974.03 1301.01,-1976.05 1306.83,-1978.24 1306.83,-1978.24 1306.83,-1978.24 1301.01,-1976.05 1305.25,-1982.45 1297.47,-1974.72"/>
</g>
<!-- 10154 -->
<g id="node22" class="node">
<title>10154</title>
<polygon fill="none" stroke="black" points="2081.29,-1879.06 2081.29,-1893.97 1992.59,-1904.52 1867.15,-1904.52 1778.45,-1893.97 1778.45,-1879.06 1867.15,-1868.52 1992.59,-1868.52 2081.29,-1879.06"/>
<polygon fill="none" stroke="black" points="2085.29,-1875.51 2085.29,-1897.53 1992.83,-1908.52 1866.92,-1908.52 1774.45,-1897.53 1774.45,-1875.51 1866.92,-1864.52 1992.83,-1864.52 2085.29,-1875.51"/>
<text text-anchor="middle" x="1929.87" y="-1881.47" font-family="Times,serif" font-size="14.00">Eclipse Public License Version 1.0</text>
</g>
<!-- 10154&#45;&gt;10152 -->
<g id="edge56" class="edge">
<title>10154&#45;&gt;10152</title>
<path fill="none" stroke="#deb256" stroke-width="2" d="M1802.52,-1871.76C1720.68,-1855.5 1680.66,-1820.14 1558.47,-1698.5"/>
<polygon fill="#deb256" stroke="#deb256" stroke-width="2" points="1552.41,-1692.46 1562.67,-1696.33 1554.58,-1693.92 1559.85,-1699.17 1559.5,-1699.52 1559.15,-1699.88 1553.88,-1694.63 1556.32,-1702.71 1552.41,-1692.46"/>
</g>
<!-- 10154&#45;&gt;41766 -->
<g id="edge57" class="edge">
<title>10154&#45;&gt;41766</title>
<path fill="none" stroke="#00876c" stroke-dasharray="5,2" d="M2085.56,-1883.33C2132.11,-1875.71 2160.14,-1856.3 2212.25,-1810.91"/>
<polygon fill="#00876c" stroke="#00876c" points="2219.55,-1804.52 2214.99,-1814.49 2216.71,-1807.01 2212.03,-1811.1 2212.03,-1811.1 2212.03,-1811.1 2216.71,-1807.01 2209.07,-1807.72 2219.55,-1804.52"/>
</g>
<!-- 10154&#45;&gt;50469 -->
<g id="edge58" class="edge">
<title>10154&#45;&gt;50469</title>
<path fill="none" stroke="#b8bf62" stroke-width="2" d="M2085.66,-1882.24C2315.04,-1873.4 2354.09,-1850.59 2509.37,-1711.24"/>
<polygon fill="#b8bf62" stroke="#b8bf62" stroke-width="2" points="2515.52,-1705.71 2511.09,-1715.74 2513.95,-1707.79 2508.42,-1712.76 2508.09,-1712.39 2507.75,-1712.02 2513.28,-1707.05 2505.08,-1709.05 2515.52,-1705.71"/>
</g>
<!-- 10921 -->
<g id="node23" class="node">
<title>10921</title>
<ellipse fill="none" stroke="#58a066" cx="913.21" cy="-1456.6" rx="156.62" ry="28.99"/>
<text text-anchor="middle" x="913.21" y="-1459.8" font-family="Times,serif" font-size="14.00" fill="gray">ChooseALicense</text>
<text text-anchor="middle" x="913.21" y="-1443.3" font-family="Times,serif" font-size="14.00" fill="gray">a684400ab1d7563ad26279a16fd4ff1c</text>
</g>
<!-- 10921&#45;&gt;10922 -->
<g id="edge59" class="edge">
<title>10921&#45;&gt;10922</title>
<path fill="none" stroke="#58a066" d="M1005.98,-1432.82C1074.87,-1415.26 1135.63,-1400.13 1337.28,-1350.03"/>
<polygon fill="#58a066" stroke="#58a066" points="1337.91,-1353.48 1346.77,-1347.67 1336.22,-1346.69 1337.91,-1353.48"/>
</g>
<!-- 10923 -->
<g id="node25" class="node">
<title>10923</title>
<polygon fill="none" stroke="black" points="1169.21,-1431.58 1169.21,-1446.5 1150.28,-1457.04 1123.51,-1457.04 1104.58,-1446.5 1104.58,-1431.58 1123.51,-1421.04 1150.28,-1421.04 1169.21,-1431.58"/>
<polygon fill="none" stroke="black" points="1173.21,-1429.23 1173.21,-1448.85 1151.32,-1461.04 1122.47,-1461.04 1100.58,-1448.85 1100.58,-1429.23 1122.47,-1417.04 1151.32,-1417.04 1173.21,-1429.23"/>
<text text-anchor="middle" x="1136.89" y="-1433.99" font-family="Times,serif" font-size="14.00">epl&#45;1</text>
</g>
<!-- 10923&#45;&gt;10922 -->
<g id="edge60" class="edge">
<title>10923&#45;&gt;10922</title>
<path fill="none" stroke="#58a066" stroke-width="2" d="M1166.13,-1424.96C1210.58,-1403.8 1233.65,-1394.79 1345.3,-1353.95"/>
<polygon fill="#58a066" stroke="#58a066" stroke-width="2" points="1353.37,-1351 1345.52,-1358.66 1351.13,-1352.35 1344.15,-1354.9 1343.97,-1354.44 1343.8,-1353.97 1350.79,-1351.41 1342.43,-1350.21 1353.37,-1351"/>
</g>
<!-- 10923&#45;&gt;25876 -->
<g id="edge61" class="edge">
<title>10923&#45;&gt;25876</title>
<path fill="none" stroke="#98b561" stroke-width="2" d="M1148.44,-1416.6C1184.01,-1348.37 1198.06,-1334.8 1317.41,-1253.31"/>
<polygon fill="#98b561" stroke="#98b561" stroke-width="2" points="1324.55,-1248.43 1318.83,-1257.79 1322.72,-1250.29 1316.57,-1254.48 1316.29,-1254.07 1316.01,-1253.65 1322.15,-1249.46 1313.76,-1250.35 1324.55,-1248.43"/>
</g>
<!-- 10923&#45;&gt;36769 -->
<g id="edge62" class="edge">
<title>10923&#45;&gt;36769</title>
<path fill="none" stroke="#379469" stroke-dasharray="5,2" d="M1160.78,-1456.27C1280.5,-1542.24 1305.67,-1551.08 1528.15,-1554.48"/>
<polygon fill="#379469" stroke="#379469" points="1538.02,-1554.63 1527.96,-1558.98 1534.24,-1554.57 1528.02,-1554.48 1528.02,-1554.48 1528.02,-1554.48 1534.24,-1554.57 1528.09,-1549.98 1538.02,-1554.63"/>
</g>
<!-- 50144 -->
<g id="node63" class="node">
<title>50144</title>
<polygon fill="none" stroke="#deb256" points="720.61,-1447.39 720.61,-1462.3 683.19,-1472.85 630.26,-1472.85 592.83,-1462.3 592.83,-1447.39 630.26,-1436.85 683.19,-1436.85 720.61,-1447.39"/>
<polygon fill="none" stroke="#deb256" points="724.61,-1444.36 724.61,-1465.33 683.74,-1476.85 629.7,-1476.85 588.83,-1465.33 588.83,-1444.36 629.7,-1432.85 683.74,-1432.85 724.61,-1444.36"/>
<text text-anchor="middle" x="656.72" y="-1449.8" font-family="Times,serif" font-size="14.00">warpr:EPL&#45;1</text>
</g>
<!-- 10923&#45;&gt;50144 -->
<g id="edge63" class="edge">
<title>10923&#45;&gt;50144</title>
<path fill="none" stroke="#deb256" stroke-width="2" d="M1100.18,-1442.26C869.59,-1462.47 814.64,-1466.7 735.86,-1461.53"/>
<polygon fill="#deb256" stroke="#deb256" stroke-width="2" points="727.52,-1460.95 737.81,-1457.16 730.11,-1460.63 737.53,-1461.15 737.49,-1461.65 737.46,-1462.15 730.04,-1461.63 737.18,-1466.14 727.52,-1460.95"/>
</g>
<!-- 15191 -->
<g id="node26" class="node">
<title>15191</title>
<ellipse fill="none" stroke="#dac767" cx="2407.74" cy="-1846.61" rx="157.15" ry="28.99"/>
<text text-anchor="middle" x="2407.74" y="-1849.81" font-family="Times,serif" font-size="14.00" fill="gray">ScancodeData</text>
<text text-anchor="middle" x="2407.74" y="-1833.31" font-family="Times,serif" font-size="14.00" fill="gray">60a934559aea83f578bb424a9f820ccd</text>
</g>
<!-- 15191&#45;&gt;15192 -->
<g id="edge64" class="edge">
<title>15191&#45;&gt;15192</title>
<path fill="none" stroke="#dac767" d="M2403.66,-1817.27C2386.17,-1694.22 2375.48,-1674.03 2232.38,-1462.52"/>
<polygon fill="#dac767" stroke="#dac767" points="2235.49,-1460.86 2226.98,-1454.54 2229.69,-1464.78 2235.49,-1460.86"/>
</g>
<!-- 15192&#45;&gt;41766 -->
<g id="edge65" class="edge">
<title>15192&#45;&gt;41766</title>
<path fill="none" stroke="#00876c" stroke-dasharray="5,2" d="M2218.75,-1453.25C2279.69,-1629.19 2284.14,-1649.15 2255.27,-1748.7"/>
<polygon fill="#00876c" stroke="#00876c" points="2252.52,-1758.08 2251.01,-1747.22 2253.58,-1754.45 2255.33,-1748.48 2255.33,-1748.48 2255.33,-1748.48 2253.58,-1754.45 2259.65,-1749.75 2252.52,-1758.08"/>
</g>
<!-- 15192&#45;&gt;50469 -->
<g id="edge66" class="edge">
<title>15192&#45;&gt;50469</title>
<path fill="none" stroke="#b8bf62" stroke-width="2" d="M2244.63,-1453.34C2424.99,-1573.44 2451.77,-1592.33 2512.03,-1651.64"/>
<polygon fill="#b8bf62" stroke="#b8bf62" stroke-width="2" points="2518.23,-1657.77 2507.95,-1653.94 2516.06,-1656.32 2510.77,-1651.09 2511.12,-1650.74 2511.47,-1650.38 2516.76,-1655.61 2514.28,-1647.54 2518.23,-1657.77"/>
</g>
<!-- 15193 -->
<g id="node28" class="node">
<title>15193</title>
<polygon fill="none" stroke="black" points="2058.41,-1608.95 2058.41,-1623.86 2032.34,-1634.4 1995.48,-1634.4 1969.41,-1623.86 1969.41,-1608.95 1995.48,-1598.4 2032.34,-1598.4 2058.41,-1608.95"/>
<polygon fill="none" stroke="black" points="2062.41,-1606.25 2062.41,-1626.55 2033.12,-1638.4 1994.7,-1638.4 1965.41,-1626.55 1965.41,-1606.25 1994.7,-1594.4 2033.12,-1594.4 2062.41,-1606.25"/>
<text text-anchor="middle" x="2013.91" y="-1611.35" font-family="Times,serif" font-size="14.00">EPL 1.0</text>
</g>
<!-- 15193&#45;&gt;15192 -->
<g id="edge67" class="edge">
<title>15193&#45;&gt;15192</title>
<path fill="none" stroke="#dac767" stroke-width="2" d="M2049.8,-1600.84C2145.9,-1558.68 2159.67,-1545.97 2196.73,-1463.37"/>
<polygon fill="#dac767" stroke="#dac767" stroke-width="2" points="2200.26,-1455.44 2200.3,-1466.41 2199.67,-1457.99 2196.65,-1464.78 2196.19,-1464.58 2195.73,-1464.38 2198.76,-1457.58 2192.08,-1462.75 2200.26,-1455.44"/>
</g>
<!-- 15193&#45;&gt;36769 -->
<g id="edge68" class="edge">
<title>15193&#45;&gt;36769</title>
<path fill="none" stroke="#379469" stroke-dasharray="5,2" d="M1969.02,-1628.29C1842.65,-1660.97 1816.42,-1656.44 1660.67,-1579.99"/>
<polygon fill="#379469" stroke="#379469" points="1651.81,-1575.63 1662.77,-1576.01 1655.2,-1577.3 1660.78,-1580.04 1660.78,-1580.04 1660.78,-1580.04 1655.2,-1577.3 1658.79,-1584.08 1651.81,-1575.63"/>
</g>
<!-- 15193&#45;&gt;41766 -->
<g id="edge69" class="edge">
<title>15193&#45;&gt;41766</title>
<path fill="none" stroke="#00876c" stroke-dasharray="5,2" d="M2038.62,-1636.44C2129.82,-1710.37 2158.82,-1733.28 2193.64,-1753.66"/>
<polygon fill="#00876c" stroke="#00876c" points="2202.11,-1758.5 2191.19,-1757.45 2198.82,-1756.62 2193.42,-1753.54 2193.42,-1753.54 2193.42,-1753.54 2198.82,-1756.62 2195.66,-1749.63 2202.11,-1758.5"/>
</g>
<!-- 15193&#45;&gt;50469 -->
<g id="edge70" class="edge">
<title>15193&#45;&gt;50469</title>
<path fill="none" stroke="#b8bf62" stroke-width="2" d="M2058.62,-1628.47C2260.45,-1682.89 2332.55,-1700.9 2406.84,-1698.81"/>
<polygon fill="#b8bf62" stroke="#b8bf62" stroke-width="2" points="2415.39,-1698.46 2405.59,-1703.37 2412.85,-1699.07 2405.42,-1699.37 2405.4,-1698.87 2405.38,-1698.37 2412.81,-1698.07 2405.22,-1694.38 2415.39,-1698.46"/>
</g>
<!-- 25875 -->
<g id="node29" class="node">
<title>25875</title>
<ellipse fill="none" stroke="#98b561" cx="835.66" cy="-1148.62" rx="161.4" ry="28.99"/>
<text text-anchor="middle" x="835.66" y="-1151.82" font-family="Times,serif" font-size="14.00" fill="gray">OSLC</text>
<text text-anchor="middle" x="835.66" y="-1135.32" font-family="Times,serif" font-size="14.00" fill="gray">469d92784d43946ce3445ae29204d0e1</text>
</g>
<!-- 25875&#45;&gt;25876 -->
<g id="edge71" class="edge">
<title>25875&#45;&gt;25876</title>
<path fill="none" stroke="#98b561" d="M952.58,-1168.92C1019.76,-1179.97 1090,-1189.84 1284.27,-1216.65"/>
<polygon fill="#98b561" stroke="#98b561" points="1283.54,-1220.08 1293.92,-1217.98 1284.49,-1213.15 1283.54,-1220.08"/>
</g>
<!-- 26612 -->
<g id="node31" class="node">
<title>26612</title>
<ellipse fill="none" stroke="#e18745" cx="2564.33" cy="-386.28" rx="157.15" ry="28.99"/>
<text text-anchor="middle" x="2564.33" y="-389.48" font-family="Times,serif" font-size="14.00" fill="gray">Fossology</text>
<text text-anchor="middle" x="2564.33" y="-372.98" font-family="Times,serif" font-size="14.00" fill="gray">6101c6997a82e95b52e386fefe81a4bd</text>
</g>
<!-- 26612&#45;&gt;26613 -->
<g id="edge72" class="edge">
<title>26612&#45;&gt;26613</title>
<path fill="none" stroke="#e18745" d="M2546.33,-415.26C2479.1,-523.17 2461.13,-545.91 2261.74,-786.38"/>
<polygon fill="#e18745" stroke="#e18745" points="2259.22,-783.93 2255.53,-793.86 2264.61,-788.4 2259.22,-783.93"/>
</g>
<!-- 28288 -->
<g id="node33" class="node">
<title>28288</title>
<ellipse fill="none" stroke="#379469" cx="2357.54" cy="-882.45" rx="159.28" ry="28.99"/>
<text text-anchor="middle" x="2357.54" y="-885.65" font-family="Times,serif" font-size="14.00" fill="gray">OKFN</text>
<text text-anchor="middle" x="2357.54" y="-869.15" font-family="Times,serif" font-size="14.00" fill="gray">14535e8865a193708a341fa77ebbe7b6</text>
</g>
<!-- 28288&#45;&gt;1553 -->
<g id="edge73" class="edge">
<title>28288&#45;&gt;1553</title>
<path fill="none" stroke="#379469" d="M2327.84,-911.4C2255.22,-981.69 2228.41,-1001.39 2019.68,-1146.62"/>
<polygon fill="#379469" stroke="#379469" points="2017.71,-1143.73 2011.5,-1152.32 2021.7,-1149.48 2017.71,-1143.73"/>
</g>
<!-- 28289 -->
<g id="node34" class="node">
<title>28289</title>
<polygon fill="none" stroke="black" points="2071.36,-1485.37 2071.36,-1500.28 2038.8,-1510.83 1992.75,-1510.83 1960.19,-1500.28 1960.19,-1485.37 1992.75,-1474.83 2038.8,-1474.83 2071.36,-1485.37"/>
<polygon fill="none" stroke="black" points="2075.36,-1482.46 2075.36,-1503.19 2039.43,-1514.83 1992.12,-1514.83 1956.19,-1503.19 1956.19,-1482.46 1992.12,-1470.83 2039.43,-1470.83 2075.36,-1482.46"/>
<text text-anchor="middle" x="2015.78" y="-1487.78" font-family="Times,serif" font-size="14.00">eclipse&#45;1.0</text>
</g>
<!-- 28289&#45;&gt;1553 -->
<g id="edge74" class="edge">
<title>28289&#45;&gt;1553</title>
<path fill="none" stroke="#379469" stroke-dasharray="5,2" d="M2022.83,-1470.64C2058.44,-1357.87 2057.35,-1342.19 1997.01,-1204.58"/>
<polygon fill="#379469" stroke="#379469" points="1993.05,-1195.58 2001.19,-1202.92 1994.57,-1199.04 1997.07,-1204.73 1997.07,-1204.73 1997.07,-1204.73 1994.57,-1199.04 1992.95,-1206.54 1993.05,-1195.58"/>
</g>
<!-- 28289&#45;&gt;36769 -->
<g id="edge75" class="edge">
<title>28289&#45;&gt;36769</title>
<path fill="none" stroke="#379469" stroke-dasharray="5,2" d="M1983.89,-1512.39C1856.25,-1590.29 1829.16,-1598.56 1686.03,-1570.75"/>
<polygon fill="#379469" stroke="#379469" points="1676.25,-1568.83 1686.93,-1566.34 1679.96,-1569.56 1686.07,-1570.76 1686.07,-1570.76 1686.07,-1570.76 1679.96,-1569.56 1685.2,-1575.17 1676.25,-1568.83"/>
</g>
<!-- 28289&#45;&gt;41766 -->
<g id="edge76" class="edge">
<title>28289&#45;&gt;41766</title>
<path fill="none" stroke="#00876c" stroke-dasharray="5,2" d="M2034.97,-1515.1C2164.67,-1665.59 2183.39,-1687.95 2224.83,-1750.19"/>
<polygon fill="#00876c" stroke="#00876c" points="2230.17,-1758.23 2220.89,-1752.39 2228.08,-1755.08 2224.64,-1749.9 2224.64,-1749.9 2224.64,-1749.9 2228.08,-1755.08 2228.39,-1747.41 2230.17,-1758.23"/>
</g>
<!-- 28289&#45;&gt;50469 -->
<g id="edge77" class="edge">
<title>28289&#45;&gt;50469</title>
<path fill="none" stroke="#b8bf62" stroke-width="2" d="M2055.74,-1509.77C2293.97,-1610.76 2357.89,-1637.15 2441.88,-1658.67"/>
<polygon fill="#b8bf62" stroke="#b8bf62" stroke-width="2" points="2450.14,-1660.75 2439.35,-1662.67 2447.54,-1660.61 2440.32,-1658.79 2440.44,-1658.31 2440.57,-1657.82 2447.78,-1659.64 2441.54,-1653.94 2450.14,-1660.75"/>
</g>
<!-- 28667 -->
<g id="node35" class="node">
<title>28667</title>
<ellipse fill="none" stroke="#e06f45" cx="1418.45" cy="-789.45" rx="158.22" ry="28.99"/>
<text text-anchor="middle" x="1418.45" y="-792.65" font-family="Times,serif" font-size="14.00" fill="gray">OrtLicenseCategorization</text>
<text text-anchor="middle" x="1418.45" y="-776.15" font-family="Times,serif" font-size="14.00" fill="gray">00feb2ceb77a23e9900a0b025814c4bc</text>
</g>
<!-- 28667&#45;&gt;1552 -->
<g id="edge78" class="edge">
<title>28667&#45;&gt;1552</title>
<path fill="none" stroke="#e06f45" d="M1433.7,-818.66C1488.18,-922.74 1502.86,-946.57 1659.78,-1193.51"/>
<polygon fill="#e06f45" stroke="#e06f45" points="1656.77,-1195.31 1665.09,-1201.87 1662.68,-1191.55 1656.77,-1195.31"/>
</g>
<!-- 35442 -->
<g id="node36" class="node">
<title>35442</title>
<ellipse fill="none" stroke="#e09d4b" cx="1267.07" cy="-970.06" rx="156.62" ry="28.99"/>
<text text-anchor="middle" x="1267.07" y="-973.26" font-family="Times,serif" font-size="14.00" fill="gray">OrtLicenseCategorization</text>
<text text-anchor="middle" x="1267.07" y="-956.76" font-family="Times,serif" font-size="14.00" fill="gray">8eb8ae1284f673c8ea6c32bbe0aba6c4</text>
</g>
<!-- 35442&#45;&gt;1552 -->
<g id="edge79" class="edge">
<title>35442&#45;&gt;1552</title>
<path fill="none" stroke="#e09d4b" d="M1312.54,-998.21C1391.27,-1046.94 1426.52,-1068.72 1636.22,-1198.26"/>
<polygon fill="#e09d4b" stroke="#e09d4b" points="1634.38,-1201.24 1644.72,-1203.52 1638.05,-1195.28 1634.38,-1201.24"/>
</g>
<!-- 36768 -->
<g id="node37" class="node">
<title>36768</title>
<ellipse fill="none" stroke="#379469" cx="1354.2" cy="-2018.41" rx="158.22" ry="28.99"/>
<text text-anchor="middle" x="1354.2" y="-2021.61" font-family="Times,serif" font-size="14.00" fill="gray">CavilLicenseChange</text>
<text text-anchor="middle" x="1354.2" y="-2005.11" font-family="Times,serif" font-size="14.00" fill="gray">0d2dc89c7d0ddf73bcecc6735590a41c</text>
</g>
<!-- 36768&#45;&gt;36769 -->
<g id="edge80" class="edge">
<title>36768&#45;&gt;36769</title>
<path fill="none" stroke="#379469" d="M1372.17,-1989.25C1436.34,-1884.96 1450.17,-1859.47 1593.87,-1588.17"/>
<polygon fill="#379469" stroke="#379469" points="1596.96,-1589.81 1598.55,-1579.34 1590.78,-1586.54 1596.96,-1589.81"/>
</g>
<!-- 36770 -->
<g id="node39" class="node">
<title>36770</title>
<polygon fill="none" stroke="#379469" points="1319.98,-1691.38 1319.98,-1706.29 1287.42,-1716.83 1241.37,-1716.83 1208.81,-1706.29 1208.81,-1691.38 1241.37,-1680.83 1287.42,-1680.83 1319.98,-1691.38"/>
<text text-anchor="middle" x="1264.39" y="-1693.78" font-family="Times,serif" font-size="14.00">EPL 1.0 ...</text>
</g>
<!-- 36770&#45;&gt;36769 -->
<g id="edge81" class="edge">
<title>36770&#45;&gt;36769</title>
<path fill="none" stroke="#379469" stroke-dasharray="5,2" d="M1320.31,-1692.64C1390.95,-1683.09 1423.2,-1666.79 1566.72,-1581.87"/>
<polygon fill="#379469" stroke="#379469" points="1575.29,-1576.8 1568.98,-1585.77 1572.04,-1578.73 1566.69,-1581.89 1566.69,-1581.89 1566.69,-1581.89 1572.04,-1578.73 1564.39,-1578.02 1575.29,-1576.8"/>
</g>
<!-- 36771 -->
<g id="node40" class="node">
<title>36771</title>
<polygon fill="none" stroke="#379469" points="1411.18,-1788.99 1411.18,-1803.9 1382.19,-1814.44 1341.2,-1814.44 1312.21,-1803.9 1312.21,-1788.99 1341.2,-1778.44 1382.19,-1778.44 1411.18,-1788.99"/>
<text text-anchor="middle" x="1361.7" y="-1791.39" font-family="Times,serif" font-size="14.00">EPL v1.0</text>
</g>
<!-- 36771&#45;&gt;36769 -->
<g id="edge82" class="edge">
<title>36771&#45;&gt;36769</title>
<path fill="none" stroke="#379469" stroke-dasharray="5,2" d="M1386.54,-1779.62C1448.72,-1737.07 1465.54,-1719.9 1584.22,-1585.95"/>
<polygon fill="#379469" stroke="#379469" points="1590.63,-1578.72 1587.37,-1589.19 1588.12,-1581.55 1584,-1586.21 1584,-1586.21 1584,-1586.21 1588.12,-1581.55 1580.63,-1583.22 1590.63,-1578.72"/>
</g>
<!-- 41765 -->
<g id="node42" class="node">
<title>41765</title>
<ellipse fill="none" stroke="#00876c" cx="2481.6" cy="-2440.68" rx="159.28" ry="28.99"/>
<text text-anchor="middle" x="2481.6" y="-2443.88" font-family="Times,serif" font-size="14.00" fill="gray">MetaeffektLicense</text>
<text text-anchor="middle" x="2481.6" y="-2427.38" font-family="Times,serif" font-size="14.00" fill="gray">c3d86fb6a420a926cb80d8613e61460a</text>
</g>
<!-- 41765&#45;&gt;41766 -->
<g id="edge83" class="edge">
<title>41765&#45;&gt;41766</title>
<path fill="none" stroke="#00876c" d="M2476.87,-2411.24C2447.23,-2227.71 2437.83,-2203.91 2260.5,-1814.43"/>
<polygon fill="#00876c" stroke="#00876c" points="2263.7,-1813.01 2256.37,-1805.36 2257.33,-1815.91 2263.7,-1813.01"/>
</g>
<!-- 41767 -->
<g id="node44" class="node">
<title>41767</title>
<polygon fill="none" stroke="black" points="2917.61,-2150.48 2917.61,-2165.39 2829.23,-2175.93 2704.25,-2175.93 2615.88,-2165.39 2615.88,-2150.48 2704.25,-2139.93 2829.23,-2139.93 2917.61,-2150.48"/>
<polygon fill="none" stroke="black" points="2921.61,-2146.93 2921.61,-2168.94 2829.47,-2179.93 2704.01,-2179.93 2611.88,-2168.94 2611.88,-2146.93 2704.01,-2135.93 2829.47,-2135.93 2921.61,-2146.93"/>
<text text-anchor="middle" x="2766.74" y="-2152.88" font-family="Times,serif" font-size="14.00">Eclipse Public License (EPL) v1.0</text>
</g>
<!-- 41767&#45;&gt;41766 -->
<g id="edge84" class="edge">
<title>41767&#45;&gt;41766</title>
<path fill="none" stroke="#00876c" stroke-dasharray="5,2" d="M2730.21,-2135.65C2603.76,-2058.28 2574.88,-2036.72 2283.12,-1810.68"/>
<polygon fill="#00876c" stroke="#00876c" points="2275.38,-1804.68 2286.04,-1807.24 2278.37,-1806.99 2283.28,-1810.8 2283.28,-1810.8 2283.28,-1810.8 2278.37,-1806.99 2280.53,-1814.36 2275.38,-1804.68"/>
</g>
<!-- 41767&#45;&gt;50469 -->
<g id="edge85" class="edge">
<title>41767&#45;&gt;50469</title>
<path fill="none" stroke="#b8bf62" stroke-width="2" d="M2763.35,-2135.62C2740.52,-1986.59 2731.96,-1969.25 2563.11,-1713.37"/>
<polygon fill="#b8bf62" stroke="#b8bf62" stroke-width="2" points="2558.38,-1706.2 2567.64,-1712.07 2560.2,-1708.07 2564.3,-1714.27 2563.88,-1714.55 2563.47,-1714.82 2559.37,-1708.62 2560.13,-1717.03 2558.38,-1706.2"/>
</g>
<!-- 41768 -->
<g id="node45" class="node">
<title>41768</title>
<polygon fill="none" stroke="black" points="2369.63,-2207.13 2369.63,-2222.05 2277.36,-2232.59 2146.87,-2232.59 2054.6,-2222.05 2054.6,-2207.13 2146.87,-2196.59 2277.36,-2196.59 2369.63,-2207.13"/>
<polygon fill="none" stroke="black" points="2373.63,-2203.57 2373.63,-2225.61 2277.58,-2236.59 2146.64,-2236.59 2050.6,-2225.61 2050.6,-2203.57 2146.64,-2192.59 2277.58,-2192.59 2373.63,-2203.57"/>
<text text-anchor="middle" x="2212.11" y="-2209.54" font-family="Times,serif" font-size="14.00">Eclipse Public License &#45; Version 1.0</text>
</g>
<!-- 41768&#45;&gt;41766 -->
<g id="edge86" class="edge">
<title>41768&#45;&gt;41766</title>
<path fill="none" stroke="#00876c" stroke-dasharray="5,2" d="M2222.22,-2192.12C2274.83,-2074.49 2275.54,-2055.85 2249.15,-1814.64"/>
<polygon fill="#00876c" stroke="#00876c" points="2248.09,-1804.94 2253.65,-1814.4 2248.5,-1808.7 2249.18,-1814.89 2249.18,-1814.89 2249.18,-1814.89 2248.5,-1808.7 2244.71,-1815.38 2248.09,-1804.94"/>
</g>
<!-- 41768&#45;&gt;50469 -->
<g id="edge87" class="edge">
<title>41768&#45;&gt;50469</title>
<path fill="none" stroke="#b8bf62" stroke-width="2" d="M2244.06,-2192.27C2455.68,-2044.09 2465.81,-2024.99 2534.9,-1714.46"/>
<polygon fill="#b8bf62" stroke="#b8bf62" stroke-width="2" points="2536.75,-1706.14 2538.97,-1716.88 2536.68,-1708.75 2535.07,-1716.01 2534.58,-1715.9 2534.09,-1715.8 2535.71,-1708.54 2530.19,-1714.93 2536.75,-1706.14"/>
</g>
<!-- 41769 -->
<g id="node46" class="node">
<title>41769</title>
<polygon fill="none" stroke="black" points="2788.78,-1393.25 2788.78,-1408.16 2716.31,-1418.7 2613.82,-1418.7 2541.34,-1408.16 2541.34,-1393.25 2613.82,-1382.7 2716.31,-1382.7 2788.78,-1393.25"/>
<polygon fill="none" stroke="black" points="2792.78,-1389.79 2792.78,-1411.62 2716.6,-1422.7 2613.53,-1422.7 2537.34,-1411.62 2537.34,-1389.79 2613.53,-1378.7 2716.6,-1378.7 2792.78,-1389.79"/>
<text text-anchor="middle" x="2665.06" y="-1395.65" font-family="Times,serif" font-size="14.00">Eclipse Public License v1.0</text>
</g>
<!-- 41769&#45;&gt;41766 -->
<g id="edge88" class="edge">
<title>41769&#45;&gt;41766</title>
<path fill="none" stroke="#00876c" stroke-dasharray="5,2" d="M2655.05,-1422.98C2564.6,-1623.79 2549.87,-1641.61 2304.54,-1754.51"/>
<polygon fill="#00876c" stroke="#00876c" points="2295.69,-1758.58 2302.9,-1750.31 2299.12,-1757 2304.77,-1754.4 2304.77,-1754.4 2304.77,-1754.4 2299.12,-1757 2306.65,-1758.49 2295.69,-1758.58"/>
</g>
<!-- 41769&#45;&gt;50469 -->
<g id="edge89" class="edge">
<title>41769&#45;&gt;50469</title>
<path fill="none" stroke="#b8bf62" stroke-width="2" d="M2664.61,-1422.96C2661.93,-1547.47 2657.12,-1563.89 2571.73,-1651.59"/>
<polygon fill="#b8bf62" stroke="#b8bf62" stroke-width="2" points="2565.76,-1657.71 2569.53,-1647.41 2567.19,-1655.52 2572.39,-1650.2 2572.75,-1650.55 2573.11,-1650.9 2567.91,-1656.22 2575.97,-1653.7 2565.76,-1657.71"/>
</g>
<!-- 41770 -->
<g id="node47" class="node">
<title>41770</title>
<polygon fill="none" stroke="black" points="3052.23,-1672.28 3052.23,-1687.19 2966.77,-1697.73 2845.92,-1697.73 2760.46,-1687.19 2760.46,-1672.28 2845.92,-1661.73 2966.77,-1661.73 3052.23,-1672.28"/>
<polygon fill="none" stroke="black" points="3056.23,-1668.74 3056.23,-1690.73 2967.02,-1701.73 2845.67,-1701.73 2756.46,-1690.73 2756.46,-1668.74 2845.67,-1657.73 2967.02,-1657.73 3056.23,-1668.74"/>
<text text-anchor="middle" x="2906.35" y="-1674.68" font-family="Times,serif" font-size="14.00">Eclipse Public License (EPL) 1.0</text>
</g>
<!-- 41770&#45;&gt;41766 -->
<g id="edge90" class="edge">
<title>41770&#45;&gt;41766</title>
<path fill="none" stroke="#00876c" stroke-dasharray="5,2" d="M2865.01,-1702.14C2719.8,-1780.22 2675.54,-1792.71 2425.2,-1786.91"/>
<polygon fill="#00876c" stroke="#00876c" points="2415.5,-1786.68 2425.61,-1782.42 2419.29,-1786.77 2425.5,-1786.92 2425.5,-1786.92 2425.5,-1786.92 2419.29,-1786.77 2425.39,-1791.42 2415.5,-1786.68"/>
</g>
<!-- 41770&#45;&gt;50469 -->
<g id="edge91" class="edge">
<title>41770&#45;&gt;50469</title>
<path fill="none" stroke="#b8bf62" stroke-width="2" d="M2820.12,-1698.99C2787.01,-1703.64 2753.87,-1703.16 2693.6,-1697.71"/>
<polygon fill="#b8bf62" stroke="#b8bf62" stroke-width="2" points="2684.87,-1696.9 2695.24,-1693.34 2687.47,-1696.64 2694.87,-1697.33 2694.83,-1697.82 2694.78,-1698.32 2687.38,-1697.63 2694.41,-1702.3 2684.87,-1696.9"/>
</g>
<!-- 41771 -->
<g id="node48" class="node">
<title>41771</title>
<polygon fill="none" stroke="black" points="2733.46,-1616.77 2733.46,-1631.69 2627.23,-1642.23 2477.01,-1642.23 2370.79,-1631.69 2370.79,-1616.77 2477.01,-1606.23 2627.23,-1606.23 2733.46,-1616.77"/>
<polygon fill="none" stroke="black" points="2737.46,-1613.15 2737.46,-1635.31 2627.43,-1646.23 2476.81,-1646.23 2366.79,-1635.31 2366.79,-1613.15 2476.81,-1602.23 2627.43,-1602.23 2737.46,-1613.15"/>
<text text-anchor="middle" x="2552.12" y="-1619.18" font-family="Times,serif" font-size="14.00">Eclipse Public License (EPL), Version 1.0</text>
</g>
<!-- 41771&#45;&gt;41766 -->
<g id="edge92" class="edge">
<title>41771&#45;&gt;41766</title>
<path fill="none" stroke="#00876c" stroke-dasharray="5,2" d="M2533.68,-1646.63C2473,-1719.83 2451.19,-1738.01 2353.92,-1759.83"/>
<polygon fill="#00876c" stroke="#00876c" points="2344.17,-1761.98 2352.97,-1755.43 2347.86,-1761.16 2353.94,-1759.83 2353.94,-1759.83 2353.94,-1759.83 2347.86,-1761.16 2354.9,-1764.23 2344.17,-1761.98"/>
</g>
<!-- 41771&#45;&gt;50469 -->
<g id="edge93" class="edge">
<title>41771&#45;&gt;50469</title>
<path fill="none" stroke="#b8bf62" stroke-width="2" d="M2555.29,-1646.47C2555.35,-1647.3 2555.4,-1648.09 2555.43,-1648.86"/>
<polygon fill="#b8bf62" stroke="#b8bf62" stroke-width="2" points="2554.62,-1657.18 2551.11,-1646.78 2554.37,-1654.58 2555.09,-1647.18 2555.59,-1647.22 2556.09,-1647.27 2555.36,-1654.67 2560.07,-1647.66 2554.62,-1657.18"/>
</g>
<!-- 41772 -->
<g id="node49" class="node">
<title>41772</title>
<polygon fill="none" stroke="black" points="3009.32,-2214.71 3009.32,-2229.62 2921.91,-2240.17 2798.31,-2240.17 2710.91,-2229.62 2710.91,-2214.71 2798.31,-2204.17 2921.91,-2204.17 3009.32,-2214.71"/>
<polygon fill="none" stroke="black" points="3013.32,-2211.16 3013.32,-2233.17 2922.15,-2244.17 2798.07,-2244.17 2706.91,-2233.17 2706.91,-2211.16 2798.07,-2200.17 2922.15,-2200.17 3013.32,-2211.16"/>
<text text-anchor="middle" x="2860.11" y="-2217.12" font-family="Times,serif" font-size="14.00">Eclise Public License, Version 1.0</text>
</g>
<!-- 41772&#45;&gt;41766 -->
<g id="edge94" class="edge">
<title>41772&#45;&gt;41766</title>
<path fill="none" stroke="#00876c" stroke-dasharray="5,2" d="M2823.36,-2199.81C2668.3,-2105.27 2638.68,-2083.35 2283.35,-1810.58"/>
<polygon fill="#00876c" stroke="#00876c" points="2275.59,-1804.63 2286.27,-1807.15 2278.59,-1806.93 2283.53,-1810.72 2283.53,-1810.72 2283.53,-1810.72 2278.59,-1806.93 2280.79,-1814.29 2275.59,-1804.63"/>
</g>
<!-- 41772&#45;&gt;50469 -->
<g id="edge95" class="edge">
<title>41772&#45;&gt;50469</title>
<path fill="none" stroke="#b8bf62" stroke-width="2" d="M2853.67,-2199.93C2804.31,-2030.08 2793.56,-2012.57 2565.53,-1712.4"/>
<polygon fill="#b8bf62" stroke="#b8bf62" stroke-width="2" points="2560.54,-1705.84 2570.17,-1711.08 2562.49,-1707.57 2566.99,-1713.5 2566.59,-1713.8 2566.19,-1714.1 2561.69,-1708.18 2563.01,-1716.52 2560.54,-1705.84"/>
</g>
<!-- 41773 -->
<g id="node50" class="node">
<title>41773</title>
<polygon fill="none" stroke="black" points="3005.82,-1450.7 3005.82,-1465.61 2896.67,-1476.16 2742.32,-1476.16 2633.18,-1465.61 2633.18,-1450.7 2742.32,-1440.16 2896.67,-1440.16 3005.82,-1450.7"/>
<polygon fill="none" stroke="black" points="3009.82,-1447.07 3009.82,-1469.24 2896.87,-1480.16 2742.13,-1480.16 2629.18,-1469.24 2629.18,-1447.07 2742.13,-1436.16 2896.87,-1436.16 3009.82,-1447.07"/>
<text text-anchor="middle" x="2819.5" y="-1453.11" font-family="Times,serif" font-size="14.00">EPL (Eclipse Public License), V1.0 or later</text>
</g>
<!-- 41773&#45;&gt;41766 -->
<g id="edge96" class="edge">
<title>41773&#45;&gt;41766</title>
<path fill="none" stroke="#00876c" stroke-dasharray="5,2" d="M2802.25,-1480.45C2664.5,-1658.26 2641.28,-1676.15 2335.89,-1757.63"/>
<polygon fill="#00876c" stroke="#00876c" points="2326.55,-1760.12 2335.06,-1753.2 2330.21,-1759.15 2336.21,-1757.54 2336.21,-1757.54 2336.21,-1757.54 2330.21,-1759.15 2337.37,-1761.89 2326.55,-1760.12"/>
</g>
<!-- 41773&#45;&gt;50469 -->
<g id="edge97" class="edge">
<title>41773&#45;&gt;50469</title>
<path fill="none" stroke="#b8bf62" stroke-width="2" d="M2807.69,-1480.39C2754.84,-1579.33 2739.76,-1594.83 2603.61,-1654.91"/>
<polygon fill="#b8bf62" stroke="#b8bf62" stroke-width="2" points="2595.83,-1658.33 2603.17,-1650.19 2597.97,-1656.84 2604.78,-1653.85 2604.98,-1654.3 2605.18,-1654.76 2598.37,-1657.76 2606.79,-1658.42 2595.83,-1658.33"/>
</g>
<!-- 41774 -->
<g id="node51" class="node">
<title>41774</title>
<polygon fill="none" stroke="black" points="2497.61,-2075.01 2497.61,-2089.92 2474.47,-2100.46 2441.73,-2100.46 2418.58,-2089.92 2418.58,-2075.01 2441.73,-2064.46 2474.47,-2064.46 2497.61,-2075.01"/>
<polygon fill="none" stroke="black" points="2501.61,-2072.43 2501.61,-2092.49 2475.33,-2104.46 2440.86,-2104.46 2414.58,-2092.49 2414.58,-2072.43 2440.86,-2060.46 2475.33,-2060.46 2501.61,-2072.43"/>
<text text-anchor="middle" x="2458.1" y="-2077.41" font-family="Times,serif" font-size="14.00">EPLv1</text>
</g>
<!-- 41774&#45;&gt;41766 -->
<g id="edge98" class="edge">
<title>41774&#45;&gt;41766</title>
<path fill="none" stroke="#00876c" stroke-dasharray="5,2" d="M2444.95,-2060.08C2403.16,-1989.2 2390.07,-1971.1 2269.25,-1812.66"/>
<polygon fill="#00876c" stroke="#00876c" points="2263.4,-1804.99 2273.05,-1810.21 2265.7,-1808 2269.47,-1812.94 2269.47,-1812.94 2269.47,-1812.94 2265.7,-1808 2265.89,-1815.67 2263.4,-1804.99"/>
</g>
<!-- 41774&#45;&gt;50469 -->
<g id="edge99" class="edge">
<title>41774&#45;&gt;50469</title>
<path fill="none" stroke="#b8bf62" stroke-width="2" d="M2473.93,-2060.12C2559.25,-1939.24 2562.43,-1921.96 2545.02,-1715.04"/>
<polygon fill="#b8bf62" stroke="#b8bf62" stroke-width="2" points="2544.3,-1706.5 2549.62,-1716.08 2545.01,-1709.01 2545.64,-1716.42 2545.14,-1716.46 2544.64,-1716.5 2544.01,-1709.09 2540.65,-1716.84 2544.3,-1706.5"/>
</g>
<!-- 41775 -->
<g id="node52" class="node">
<title>41775</title>
<polygon fill="none" stroke="black" points="2694.88,-2207.02 2694.88,-2221.93 2607.47,-2232.47 2483.87,-2232.47 2396.47,-2221.93 2396.47,-2207.02 2483.87,-2196.47 2607.47,-2196.47 2694.88,-2207.02"/>
<polygon fill="none" stroke="black" points="2698.88,-2203.47 2698.88,-2225.47 2607.71,-2236.47 2483.63,-2236.47 2392.47,-2225.47 2392.47,-2203.47 2483.63,-2192.47 2607.71,-2192.47 2698.88,-2203.47"/>
<text text-anchor="middle" x="2545.67" y="-2209.42" font-family="Times,serif" font-size="14.00">Eclipse Public License v1.0&amp;#xD</text>
</g>
<!-- 41775&#45;&gt;41766 -->
<g id="edge100" class="edge">
<title>41775&#45;&gt;41766</title>
<path fill="none" stroke="#00876c" stroke-dasharray="5,2" d="M2532.83,-2192.27C2467.83,-2080.04 2454.43,-2061.13 2268.82,-1812.72"/>
<polygon fill="#00876c" stroke="#00876c" points="2262.87,-1804.76 2272.46,-1810.08 2265.13,-1807.79 2268.86,-1812.77 2268.86,-1812.77 2268.86,-1812.77 2265.13,-1807.79 2265.25,-1815.46 2262.87,-1804.76"/>
</g>
<!-- 41775&#45;&gt;50469 -->
<g id="edge101" class="edge">
<title>41775&#45;&gt;50469</title>
<path fill="none" stroke="#b8bf62" stroke-width="2" d="M2554.61,-2192.22C2622.48,-2022.82 2621.98,-2005.11 2550.35,-1714.73"/>
<polygon fill="#b8bf62" stroke="#b8bf62" stroke-width="2" points="2548.24,-1706.2 2555.01,-1714.83 2549.34,-1708.57 2551.13,-1715.79 2550.64,-1715.91 2550.15,-1716.03 2548.37,-1708.81 2546.27,-1716.99 2548.24,-1706.2"/>
</g>
<!-- 41776 -->
<g id="node53" class="node">
<title>41776</title>
<polygon fill="none" stroke="#00876c" points="2190.82,-2422.95 2190.82,-2437.86 2085.24,-2448.4 1935.94,-2448.4 1830.36,-2437.86 1830.36,-2422.95 1935.94,-2412.4 2085.24,-2412.4 2190.82,-2422.95"/>
<text text-anchor="middle" x="2010.59" y="-2425.35" font-family="Times,serif" font-size="14.00">http://www.eclipse.org/legal/epl&#45;v10.html</text>
</g>
<!-- 41776&#45;&gt;41766 -->
<g id="edge102" class="edge">
<title>41776&#45;&gt;41766</title>
<path fill="none" stroke="#00876c" stroke-dasharray="5,2" d="M2026.81,-2412C2182.37,-2235.31 2188.17,-2217.58 2241.14,-1814.9"/>
<polygon fill="#00876c" stroke="#00876c" points="2242.44,-1805 2245.6,-1815.51 2241.95,-1808.75 2241.14,-1814.92 2241.14,-1814.92 2241.14,-1814.92 2241.95,-1808.75 2236.67,-1814.33 2242.44,-1805"/>
</g>
<!-- 41778 -->
<g id="node54" class="node">
<title>41778</title>
<polygon fill="none" stroke="#00876c" points="2280.83,-2487.64 2280.83,-2502.55 2172.98,-2513.09 2020.47,-2513.09 1912.62,-2502.55 1912.62,-2487.64 2020.47,-2477.09 2172.98,-2477.09 2280.83,-2487.64"/>
<text text-anchor="middle" x="2096.73" y="-2490.04" font-family="Times,serif" font-size="14.00">https://www.eclipse.org/legal/epl&#45;v10.html</text>
</g>
<!-- 41778&#45;&gt;41766 -->
<g id="edge103" class="edge">
<title>41778&#45;&gt;41766</title>
<path fill="none" stroke="#00876c" stroke-dasharray="5,2" d="M2108.05,-2476.7C2233.15,-2273.38 2236.4,-2255.94 2244.88,-1814.91"/>
<polygon fill="#00876c" stroke="#00876c" points="2245.07,-1804.96 2249.38,-1815.05 2245,-1808.75 2244.88,-1814.96 2244.88,-1814.96 2244.88,-1814.96 2245,-1808.75 2240.38,-1814.88 2245.07,-1804.96"/>
</g>
<!-- 41779 -->
<g id="node55" class="node">
<title>41779</title>
<polygon fill="none" stroke="black" points="3145.32,-2056.77 3145.32,-2071.69 3054.67,-2082.23 2926.48,-2082.23 2835.83,-2071.69 2835.83,-2056.77 2926.48,-2046.23 3054.67,-2046.23 3145.32,-2056.77"/>
<polygon fill="none" stroke="black" points="3149.32,-2053.21 3149.32,-2075.25 3054.9,-2086.23 2926.24,-2086.23 2831.83,-2075.25 2831.83,-2053.21 2926.24,-2042.23 3054.9,-2042.23 3149.32,-2053.21"/>
<text text-anchor="middle" x="2990.57" y="-2059.18" font-family="Times,serif" font-size="14.00">Eclipse Public Licence, Version 1.0</text>
</g>
<!-- 41779&#45;&gt;41766 -->
<g id="edge104" class="edge">
<title>41779&#45;&gt;41766</title>
<path fill="none" stroke="#00876c" stroke-dasharray="5,2" d="M2893.26,-2045.61C2741.4,-2014.66 2675.78,-1985.47 2302.72,-1808.66"/>
<polygon fill="#00876c" stroke="#00876c" points="2293.82,-1804.44 2304.79,-1804.66 2297.24,-1806.06 2302.86,-1808.73 2302.86,-1808.73 2302.86,-1808.73 2297.24,-1806.06 2300.93,-1812.79 2293.82,-1804.44"/>
</g>
<!-- 41779&#45;&gt;50469 -->
<g id="edge105" class="edge">
<title>41779&#45;&gt;50469</title>
<path fill="none" stroke="#b8bf62" stroke-width="2" d="M2969.5,-2041.8C2870.91,-1937.06 2849.71,-1919.44 2580.15,-1711.03"/>
<polygon fill="#b8bf62" stroke="#b8bf62" stroke-width="2" points="2573.21,-1705.66 2583.88,-1708.22 2575.55,-1706.84 2581.43,-1711.38 2581.12,-1711.78 2580.82,-1712.18 2574.93,-1707.63 2578.37,-1715.34 2573.21,-1705.66"/>
</g>
<!-- 41780 -->
<g id="node56" class="node">
<title>41780</title>
<polygon fill="none" stroke="black" points="2868.11,-1826.09 2868.11,-1841 2792.06,-1851.54 2684.52,-1851.54 2608.48,-1841 2608.48,-1826.09 2684.52,-1815.54 2792.06,-1815.54 2868.11,-1826.09"/>
<polygon fill="none" stroke="black" points="2872.11,-1822.6 2872.11,-1844.48 2792.34,-1855.54 2684.24,-1855.54 2604.48,-1844.48 2604.48,-1822.6 2684.24,-1811.54 2792.34,-1811.54 2872.11,-1822.6"/>
<text text-anchor="middle" x="2738.29" y="-1828.49" font-family="Times,serif" font-size="14.00">Eclipse Public License &#45; v1.0</text>
</g>
<!-- 41780&#45;&gt;41766 -->
<g id="edge106" class="edge">
<title>41780&#45;&gt;41766</title>
<path fill="none" stroke="#00876c" stroke-dasharray="5,2" d="M2642.18,-1850.21C2566.17,-1859.53 2511.98,-1849.54 2338.14,-1805.31"/>
<polygon fill="#00876c" stroke="#00876c" points="2328.52,-1802.86 2339.32,-1800.97 2332.18,-1803.79 2338.21,-1805.33 2338.21,-1805.33 2338.21,-1805.33 2332.18,-1803.79 2337.1,-1809.69 2328.52,-1802.86"/>
</g>
<!-- 41780&#45;&gt;50469 -->
<g id="edge107" class="edge">
<title>41780&#45;&gt;50469</title>
<path fill="none" stroke="#b8bf62" stroke-width="2" d="M2714.96,-1811.48C2684.35,-1783.03 2665.67,-1768.97 2582.86,-1710.4"/>
<polygon fill="#b8bf62" stroke="#b8bf62" stroke-width="2" points="2575.81,-1705.42 2586.58,-1707.52 2578.19,-1706.49 2584.27,-1710.79 2583.98,-1711.2 2583.69,-1711.6 2577.62,-1707.31 2581.38,-1714.87 2575.81,-1705.42"/>
</g>
<!-- 41781 -->
<g id="node57" class="node">
<title>41781</title>
<polygon fill="none" stroke="black" points="2177.85,-2125.45 2177.85,-2140.36 2101.81,-2150.9 1994.27,-2150.9 1918.22,-2140.36 1918.22,-2125.45 1994.27,-2114.9 2101.81,-2114.9 2177.85,-2125.45"/>
<polygon fill="none" stroke="black" points="2181.85,-2121.97 2181.85,-2143.84 2102.09,-2154.9 1993.99,-2154.9 1914.22,-2143.84 1914.22,-2121.97 1993.99,-2110.9 2102.09,-2110.9 2181.85,-2121.97"/>
<text text-anchor="middle" x="2048.04" y="-2127.85" font-family="Times,serif" font-size="14.00">Eclipse Public License &#45;v 1.0</text>
</g>
<!-- 41781&#45;&gt;41766 -->
<g id="edge108" class="edge">
<title>41781&#45;&gt;41766</title>
<path fill="none" stroke="#00876c" stroke-dasharray="5,2" d="M2077.3,-2110.57C2182.62,-2029.49 2191.57,-2010.03 2237.78,-1814.41"/>
<polygon fill="#00876c" stroke="#00876c" points="2240.02,-1804.93 2242.1,-1815.69 2239.15,-1808.61 2237.72,-1814.66 2237.72,-1814.66 2237.72,-1814.66 2239.15,-1808.61 2233.34,-1813.63 2240.02,-1804.93"/>
</g>
<!-- 41781&#45;&gt;50469 -->
<g id="edge109" class="edge">
<title>41781&#45;&gt;50469</title>
<path fill="none" stroke="#b8bf62" stroke-width="2" d="M2106.57,-2111.07C2373.33,-2010.94 2391.63,-1989.65 2526.42,-1713.96"/>
<polygon fill="#b8bf62" stroke="#b8bf62" stroke-width="2" points="2530.2,-1706.24 2529.85,-1717.2 2529.52,-1708.76 2526.26,-1715.44 2525.81,-1715.22 2525.36,-1715 2528.62,-1708.32 2521.76,-1713.24 2530.2,-1706.24"/>
</g>
<!-- 41782 -->
<g id="node58" class="node">
<title>41782</title>
<polygon fill="none" stroke="black" points="2787.57,-2093.05 2787.57,-2107.97 2713.47,-2118.51 2608.68,-2118.51 2534.58,-2107.97 2534.58,-2093.05 2608.68,-2082.51 2713.47,-2082.51 2787.57,-2093.05"/>
<polygon fill="none" stroke="black" points="2791.57,-2089.58 2791.57,-2111.44 2713.75,-2122.51 2608.4,-2122.51 2530.58,-2111.44 2530.58,-2089.58 2608.4,-2078.51 2713.75,-2078.51 2791.57,-2089.58"/>
<text text-anchor="middle" x="2661.08" y="-2095.46" font-family="Times,serif" font-size="14.00">Eclipse Public License v 1.0</text>
</g>
<!-- 41782&#45;&gt;41766 -->
<g id="edge110" class="edge">
<title>41782&#45;&gt;41766</title>
<path fill="none" stroke="#00876c" stroke-dasharray="5,2" d="M2627.48,-2078.18C2531.77,-2014.35 2505.5,-1993.61 2281.29,-1810.72"/>
<polygon fill="#00876c" stroke="#00876c" points="2273.83,-1804.64 2284.42,-1807.47 2276.76,-1807.03 2281.58,-1810.96 2281.58,-1810.96 2281.58,-1810.96 2276.76,-1807.03 2278.73,-1814.44 2273.83,-1804.64"/>
</g>
<!-- 41782&#45;&gt;50469 -->
<g id="edge111" class="edge">
<title>41782&#45;&gt;50469</title>
<path fill="none" stroke="#b8bf62" stroke-width="2" d="M2662.58,-2078.43C2671.28,-1947.91 2666.17,-1930.99 2558.13,-1713.73"/>
<polygon fill="#b8bf62" stroke="#b8bf62" stroke-width="2" points="2554.33,-1706.09 2562.82,-1713.03 2555.92,-1708.16 2559.24,-1714.82 2558.79,-1715.04 2558.34,-1715.26 2555.03,-1708.6 2554.76,-1717.04 2554.33,-1706.09"/>
</g>
<!-- 41783 -->
<g id="node59" class="node">
<title>41783</title>
<polygon fill="none" stroke="black" points="2578.27,-2264.4 2578.27,-2279.31 2501.9,-2289.85 2393.9,-2289.85 2317.53,-2279.31 2317.53,-2264.4 2393.9,-2253.85 2501.9,-2253.85 2578.27,-2264.4"/>
<polygon fill="none" stroke="black" points="2582.27,-2260.91 2582.27,-2282.8 2502.18,-2293.85 2393.63,-2293.85 2313.53,-2282.8 2313.53,-2260.91 2393.63,-2249.85 2502.18,-2249.85 2582.27,-2260.91"/>
<text text-anchor="middle" x="2447.9" y="-2266.8" font-family="Times,serif" font-size="14.00">Eclipse Public License, V 1.0</text>
</g>
<!-- 41783&#45;&gt;41766 -->
<g id="edge112" class="edge">
<title>41783&#45;&gt;41766</title>
<path fill="none" stroke="#00876c" stroke-dasharray="5,2" d="M2443.1,-2249.62C2413.65,-2113.79 2405.51,-2095.08 2261.88,-1813.59"/>
<polygon fill="#00876c" stroke="#00876c" points="2257.48,-1804.98 2266.04,-1811.84 2259.2,-1808.35 2262.03,-1813.88 2262.03,-1813.88 2262.03,-1813.88 2259.2,-1808.35 2258.02,-1815.93 2257.48,-1804.98"/>
</g>
<!-- 41783&#45;&gt;50469 -->
<g id="edge113" class="edge">
<title>41783&#45;&gt;50469</title>
<path fill="none" stroke="#b8bf62" stroke-width="2" d="M2461.92,-2249.56C2578.18,-2064.3 2580.55,-2046.14 2545.7,-1715.01"/>
<polygon fill="#b8bf62" stroke="#b8bf62" stroke-width="2" points="2544.81,-1706.54 2550.33,-1716.01 2545.57,-1709.03 2546.35,-1716.43 2545.86,-1716.48 2545.36,-1716.53 2544.58,-1709.14 2541.38,-1716.95 2544.81,-1706.54"/>
</g>
<!-- 50143 -->
<g id="node62" class="node">
<title>50143</title>
<ellipse fill="none" stroke="#deb256" cx="155.96" cy="-1496.55" rx="155.56" ry="28.99"/>
<text text-anchor="middle" x="155.96" y="-1499.75" font-family="Times,serif" font-size="14.00" fill="gray">WarprLicense</text>
<text text-anchor="middle" x="155.96" y="-1483.25" font-family="Times,serif" font-size="14.00" fill="gray">c10e605f4bcee8713a5df589cb599ecc</text>
</g>
<!-- 50143&#45;&gt;50144 -->
<g id="edge114" class="edge">
<title>50143&#45;&gt;50144</title>
<path fill="none" stroke="#deb256" d="M307.87,-1489.9C363.2,-1485.83 433.92,-1478.55 577.12,-1463.33"/>
<polygon fill="#deb256" stroke="#deb256" points="577.38,-1466.82 586.95,-1462.28 576.64,-1459.86 577.38,-1466.82"/>
</g>
<!-- 50468 -->
<g id="node64" class="node">
<title>50468</title>
<ellipse fill="none" stroke="#b8bf62" cx="3206.24" cy="-1453.61" rx="152.38" ry="28.99"/>
<text text-anchor="middle" x="3206.24" y="-1456.81" font-family="Times,serif" font-size="14.00" fill="gray">FossLicense</text>
<text text-anchor="middle" x="3206.24" y="-1440.31" font-family="Times,serif" font-size="14.00" fill="gray">2619d0cff2eb3afde0f0524dfdcaa748</text>
</g>
<!-- 50468&#45;&gt;50469 -->
<g id="edge115" class="edge">
<title>50468&#45;&gt;50469</title>
<path fill="none" stroke="#b8bf62" d="M3168.98,-1482.13C3024.01,-1592.38 2985.55,-1607.51 2663.22,-1661.6"/>
<polygon fill="#b8bf62" stroke="#b8bf62" points="2662.91,-1658.11 2653.62,-1663.21 2664.06,-1665.01 2662.91,-1658.11"/>
</g>
<!-- 50470 -->
<g id="node66" class="node">
<title>50470</title>
<polygon fill="none" stroke="#b8bf62" points="3044.36,-1883.36 3044.36,-1898.27 2994.6,-1908.82 2924.23,-1908.82 2874.47,-1898.27 2874.47,-1883.36 2924.23,-1872.82 2994.6,-1872.82 3044.36,-1883.36"/>
<polygon fill="none" stroke="#b8bf62" points="3048.36,-1880.12 3048.36,-1901.51 2995.02,-1912.82 2923.81,-1912.82 2870.47,-1901.51 2870.47,-1880.12 2923.81,-1868.82 2995.02,-1868.82 3048.36,-1880.12"/>
<text text-anchor="middle" x="2959.41" y="-1885.77" font-family="Times,serif" font-size="14.00">scancode://epl&#45;1.0</text>
</g>
<!-- 50470&#45;&gt;50469 -->
<g id="edge116" class="edge">
<title>50470&#45;&gt;50469</title>
<path fill="none" stroke="#b8bf62" stroke-width="2" d="M2916.74,-1869.93C2835.58,-1830.16 2801.84,-1813.17 2596.27,-1709.07"/>
<polygon fill="#b8bf62" stroke="#b8bf62" stroke-width="2" points="2588.53,-1705.15 2599.48,-1705.65 2591.04,-1705.86 2597.68,-1709.22 2597.45,-1709.67 2597.22,-1710.11 2590.59,-1706.75 2595.42,-1713.68 2588.53,-1705.15"/>
</g>
<!-- 50471 -->
<g id="node67" class="node">
<title>50471</title>
<polygon fill="none" stroke="#b8bf62" points="3347.04,-1672.23 3347.04,-1687.14 3273.91,-1697.68 3170.5,-1697.68 3097.38,-1687.14 3097.38,-1672.23 3170.5,-1661.68 3273.91,-1661.68 3347.04,-1672.23"/>
<polygon fill="none" stroke="#b8bf62" points="3351.04,-1668.76 3351.04,-1690.6 3274.2,-1701.68 3170.21,-1701.68 3093.38,-1690.6 3093.38,-1668.76 3170.21,-1657.68 3274.2,-1657.68 3351.04,-1668.76"/>
<text text-anchor="middle" x="3222.21" y="-1674.63" font-family="Times,serif" font-size="14.00">Eclipse Public License &#45; 1.0</text>
</g>
<!-- 50471&#45;&gt;50469 -->
<g id="edge117" class="edge">
<title>50471&#45;&gt;50469</title>
<path fill="none" stroke="#b8bf62" stroke-width="2" d="M3139.92,-1697.8C3020.61,-1722.38 2960.25,-1721.87 2699.59,-1697.03"/>
<polygon fill="#b8bf62" stroke="#b8bf62" stroke-width="2" points="2691.06,-1696.21 2701.45,-1692.69 2693.66,-1695.96 2701.07,-1696.67 2701.02,-1697.16 2700.97,-1697.66 2693.57,-1696.96 2700.59,-1701.64 2691.06,-1696.21"/>
</g>
<!-- 50472 -->
<g id="node68" class="node">
<title>50472</title>
<polygon fill="none" stroke="#b8bf62" points="3447.98,-1550.08 3447.98,-1564.99 3342.41,-1575.54 3193.1,-1575.54 3087.53,-1564.99 3087.53,-1550.08 3193.1,-1539.54 3342.41,-1539.54 3447.98,-1550.08"/>
<polygon fill="none" stroke="#b8bf62" points="3451.98,-1546.46 3451.98,-1568.61 3342.61,-1579.54 3192.9,-1579.54 3083.53,-1568.61 3083.53,-1546.46 3192.9,-1535.54 3342.61,-1535.54 3451.98,-1546.46"/>
<text text-anchor="middle" x="3267.76" y="-1552.49" font-family="Times,serif" font-size="14.00">http://www.eclipse.org/legal/epl&#45;v10.html</text>
</g>
<!-- 50472&#45;&gt;50469 -->
<g id="edge118" class="edge">
<title>50472&#45;&gt;50469</title>
<path fill="none" stroke="#b8bf62" stroke-width="2" d="M3220.26,-1580.01C3069.63,-1650.58 3021.12,-1662.25 2726.24,-1674.62"/>
<polygon fill="#b8bf62" stroke="#b8bf62" stroke-width="2" points="2717.63,-1674.98 2727.43,-1670.07 2720.17,-1674.37 2727.6,-1674.06 2727.62,-1674.56 2727.64,-1675.06 2720.21,-1675.37 2727.81,-1679.06 2717.63,-1674.98"/>
</g>
<!-- 50473 -->
<g id="node69" class="node">
<title>50473</title>
<polygon fill="none" stroke="#b8bf62" points="3458.02,-1882.77 3458.02,-1897.69 3350.17,-1908.23 3197.66,-1908.23 3089.81,-1897.69 3089.81,-1882.77 3197.66,-1872.23 3350.17,-1872.23 3458.02,-1882.77"/>
<polygon fill="none" stroke="#b8bf62" points="3462.02,-1879.15 3462.02,-1901.31 3350.37,-1912.23 3197.46,-1912.23 3085.81,-1901.31 3085.81,-1879.15 3197.46,-1868.23 3350.37,-1868.23 3462.02,-1879.15"/>
<text text-anchor="middle" x="3273.92" y="-1885.18" font-family="Times,serif" font-size="14.00">https://www.eclipse.org/legal/epl&#45;v10.html</text>
</g>
<!-- 50473&#45;&gt;50469 -->
<g id="edge119" class="edge">
<title>50473&#45;&gt;50469</title>
<path fill="none" stroke="#b8bf62" stroke-width="2" d="M3169.25,-1870.51C3039.8,-1844.84 2966.38,-1821.72 2620.73,-1707.62"/>
<polygon fill="#b8bf62" stroke="#b8bf62" stroke-width="2" points="2612.47,-1704.89 2623.38,-1703.76 2615.06,-1705.22 2622.13,-1707.55 2621.97,-1708.03 2621.81,-1708.5 2614.75,-1706.17 2620.56,-1712.3 2612.47,-1704.89"/>
</g>
<!-- 50474 -->
<g id="node70" class="node">
<title>50474</title>
<polygon fill="none" stroke="#b8bf62" points="3168.72,-1729.65 3168.72,-1744.56 3122.21,-1755.1 3056.43,-1755.1 3009.92,-1744.56 3009.92,-1729.65 3056.43,-1719.1 3122.21,-1719.1 3168.72,-1729.65"/>
<polygon fill="none" stroke="#b8bf62" points="3172.72,-1726.45 3172.72,-1747.75 3122.66,-1759.1 3055.98,-1759.1 3005.92,-1747.75 3005.92,-1726.45 3055.98,-1715.1 3122.66,-1715.1 3172.72,-1726.45"/>
<text text-anchor="middle" x="3089.32" y="-1732.05" font-family="Times,serif" font-size="14.00">scancode:epl&#45;1.0</text>
</g>
<!-- 50474&#45;&gt;50469 -->
<g id="edge120" class="edge">
<title>50474&#45;&gt;50469</title>
<path fill="none" stroke="#b8bf62" stroke-width="2" d="M3005.59,-1743.52C2917.7,-1748.41 2862.45,-1741.05 2655.21,-1702.73"/>
<polygon fill="#b8bf62" stroke="#b8bf62" stroke-width="2" points="2646.66,-1701.15 2657.31,-1698.54 2649.27,-1701.12 2656.58,-1702.48 2656.49,-1702.97 2656.4,-1703.46 2649.08,-1702.11 2655.67,-1707.39 2646.66,-1701.15"/>
</g>
<!-- 50475 -->
<g id="node71" class="node">
<title>50475</title>
<polygon fill="none" stroke="#b8bf62" points="3183.56,-1940.73 3183.56,-1955.64 3148.41,-1966.19 3098.69,-1966.19 3063.53,-1955.64 3063.53,-1940.73 3098.69,-1930.19 3148.41,-1930.19 3183.56,-1940.73"/>
<polygon fill="none" stroke="#b8bf62" points="3187.56,-1937.76 3187.56,-1958.62 3148.99,-1970.19 3098.1,-1970.19 3059.53,-1958.62 3059.53,-1937.76 3098.1,-1926.19 3148.99,-1926.19 3187.56,-1937.76"/>
<text text-anchor="middle" x="3123.55" y="-1943.14" font-family="Times,serif" font-size="14.00">osi:EPL&#45;1.0</text>
</g>
<!-- 50475&#45;&gt;50469 -->
<g id="edge121" class="edge">
<title>50475&#45;&gt;50469</title>
<path fill="none" stroke="#b8bf62" stroke-width="2" d="M3082.45,-1930.62C2951.61,-1874.62 2916.66,-1858.43 2599.58,-1708.77"/>
<polygon fill="#b8bf62" stroke="#b8bf62" stroke-width="2" points="2591.84,-1705.12 2602.8,-1705.32 2594.37,-1705.76 2601.1,-1708.94 2600.88,-1709.39 2600.67,-1709.84 2593.94,-1706.66 2598.96,-1713.46 2591.84,-1705.12"/>
</g>
<!-- 50476 -->
<g id="node72" class="node">
<title>50476</title>
<polygon fill="none" stroke="#b8bf62" points="3260.64,-1284.71 3260.64,-1299.62 3165.77,-1310.17 3031.61,-1310.17 2936.74,-1299.62 2936.74,-1284.71 3031.61,-1274.17 3165.77,-1274.17 3260.64,-1284.71"/>
<polygon fill="none" stroke="#b8bf62" points="3264.64,-1281.13 3264.64,-1303.2 3165.99,-1314.17 3031.39,-1314.17 2932.74,-1303.2 2932.74,-1281.13 3031.39,-1270.17 3165.99,-1270.17 3264.64,-1281.13"/>
<text text-anchor="middle" x="3098.69" y="-1287.12" font-family="Times,serif" font-size="14.00">Eclipse Public License 1.0 (EPL&#45;1.0)</text>
</g>
<!-- 50476&#45;&gt;50469 -->
<g id="edge122" class="edge">
<title>50476&#45;&gt;50469</title>
<path fill="none" stroke="#b8bf62" stroke-width="2" d="M3084.08,-1314.56C2960.48,-1503.57 2941.09,-1519.51 2607.6,-1655.14"/>
<polygon fill="#b8bf62" stroke="#b8bf62" stroke-width="2" points="2599.9,-1658.27 2607.47,-1650.33 2602.09,-1656.84 2608.98,-1654.04 2609.16,-1654.5 2609.35,-1654.96 2602.46,-1657.76 2610.86,-1658.67 2599.9,-1658.27"/>
</g>
<!-- 50477 -->
<g id="node73" class="node">
<title>50477</title>
<polygon fill="none" stroke="#b8bf62" points="2964.58,-1998.92 2964.58,-2013.83 2936.89,-2024.37 2897.73,-2024.37 2870.04,-2013.83 2870.04,-1998.92 2897.73,-1988.37 2936.89,-1988.37 2964.58,-1998.92"/>
<polygon fill="none" stroke="#b8bf62" points="2968.58,-1996.16 2968.58,-2016.59 2937.63,-2028.37 2896.99,-2028.37 2866.04,-2016.59 2866.04,-1996.16 2896.99,-1984.37 2937.63,-1984.37 2968.58,-1996.16"/>
<text text-anchor="middle" x="2917.31" y="-2001.32" font-family="Times,serif" font-size="14.00">EPLv1.0</text>
</g>
<!-- 50477&#45;&gt;50469 -->
<g id="edge123" class="edge">
<title>50477&#45;&gt;50469</title>
<path fill="none" stroke="#b8bf62" stroke-width="2" d="M2896.91,-1984C2818.18,-1897.95 2797.85,-1880.84 2579.69,-1710.89"/>
<polygon fill="#b8bf62" stroke="#b8bf62" stroke-width="2" points="2572.77,-1705.5 2583.42,-1708.09 2575.1,-1706.68 2580.96,-1711.25 2580.66,-1711.64 2580.35,-1712.04 2574.48,-1707.47 2577.89,-1715.19 2572.77,-1705.5"/>
</g>
<!-- 50966 -->
<g id="node74" class="node">
<title>50966</title>
<ellipse fill="none" stroke="#dac767" cx="1702.73" cy="-28.52" rx="159.28" ry="28.99"/>
<text text-anchor="middle" x="1702.73" y="-31.72" font-family="Times,serif" font-size="14.00" fill="gray">FOSSLight</text>
<text text-anchor="middle" x="1702.73" y="-15.22" font-family="Times,serif" font-size="14.00" fill="gray">c9f40cd1918b3604436a317c6c5c7d13</text>
</g>
<!-- 50966&#45;&gt;50967 -->
<g id="edge124" class="edge">
<title>50966&#45;&gt;50967</title>
<path fill="none" stroke="#dac767" d="M1712.93,-57.87C1767.56,-215.69 1771.78,-241.85 1821.32,-636.43"/>
<polygon fill="#dac767" stroke="#dac767" points="1817.82,-636.63 1822.54,-646.11 1824.77,-635.75 1817.82,-636.63"/>
</g>
<!-- 51263 -->
<g id="node76" class="node">
<title>51263</title>
<ellipse fill="none" stroke="#d43d51" cx="2713.48" cy="-169.94" rx="153.97" ry="28.99"/>
<text text-anchor="middle" x="2713.48" y="-173.14" font-family="Times,serif" font-size="14.00" fill="gray">HitachiOpenLicense</text>
<text text-anchor="middle" x="2713.48" y="-156.64" font-family="Times,serif" font-size="14.00" fill="gray">5ed81aac3afc320128c16f7f2f9bbd02</text>
</g>
<!-- 51263&#45;&gt;51264 -->
<g id="edge125" class="edge">
<title>51263&#45;&gt;51264</title>
<path fill="none" stroke="#d43d51" d="M2696.51,-199.12C2619.01,-332.07 2601.62,-355.46 2370.99,-650.96"/>
<polygon fill="#d43d51" stroke="#d43d51" points="2368.43,-648.56 2365.04,-658.59 2373.95,-652.86 2368.43,-648.56"/>
</g>
<!-- 54270 -->
<g id="node78" class="node">
<title>54270</title>
<ellipse fill="none" stroke="#98b561" cx="2151.51" cy="-80.1" rx="160.87" ry="28.99"/>
<text text-anchor="middle" x="2151.51" y="-83.3" font-family="Times,serif" font-size="14.00" fill="gray">EclipseLicense</text>
<text text-anchor="middle" x="2151.51" y="-66.8" font-family="Times,serif" font-size="14.00" fill="gray">9351bd5db76c2e07616bf44334878e43</text>
</g>
<!-- 54270&#45;&gt;54271 -->
<g id="edge126" class="edge">
<title>54270&#45;&gt;54271</title>
<path fill="none" stroke="#98b561" d="M2154.47,-109.58C2168.23,-248.85 2164.95,-273.22 2105.11,-591.8"/>
<polygon fill="#98b561" stroke="#98b561" points="2101.74,-590.81 2103.33,-601.28 2108.62,-592.1 2101.74,-590.81"/>
</g>
<!-- 54272 -->
<g id="node80" class="node">
<title>54272</title>
<polygon fill="none" stroke="#98b561" points="2410.68,-161.12 2410.68,-176.03 2336.58,-186.58 2231.79,-186.58 2157.7,-176.03 2157.7,-161.12 2231.79,-150.58 2336.58,-150.58 2410.68,-161.12"/>
<polygon fill="none" stroke="#98b561" points="2414.68,-157.65 2414.68,-179.5 2336.87,-190.58 2231.51,-190.58 2153.7,-179.5 2153.7,-157.65 2231.51,-146.58 2336.87,-146.58 2414.68,-157.65"/>
<text text-anchor="middle" x="2284.19" y="-163.53" font-family="Times,serif" font-size="14.00">Eclipse Public License, v1.0</text>
</g>
<!-- 54272&#45;&gt;54271 -->
<g id="edge127" class="edge">
<title>54272&#45;&gt;54271</title>
<path fill="none" stroke="#98b561" stroke-width="2" d="M2276.88,-190.94C2239.08,-306.41 2230.89,-326.06 2113.08,-592.77"/>
<polygon fill="#98b561" stroke="#98b561" stroke-width="2" points="2109.65,-600.54 2109.57,-589.57 2110.23,-597.99 2113.23,-591.19 2113.69,-591.39 2114.15,-591.59 2111.14,-598.4 2117.81,-593.21 2109.65,-600.54"/>
</g>
</g>
</svg>
