<?xml version="1.0" encoding="UTF-8" standalone="no"?>
<!DOCTYPE svg PUBLIC "-//W3C//DTD SVG 1.1//EN"
 "http://www.w3.org/Graphics/SVG/1.1/DTD/svg11.dtd">
<!-- Generated by graphviz version 10.0.1 (0)
 -->
<!-- Pages: 1 -->
<svg width="2195pt" height="2098pt"
 viewBox="0.00 0.00 2195.00 2098.00" xmlns="http://www.w3.org/2000/svg" xmlns:xlink="http://www.w3.org/1999/xlink">
<g id="graph0" class="graph" transform="scale(1 1) rotate(0) translate(4 2094)">
<polygon fill="white" stroke="none" points="-4,4 -4,-2094 2191,-2094 2191,4 -4,4"/>
<!-- 1596 -->
<g id="node1" class="node">
<title>1596</title>
<ellipse fill="none" stroke="#b8bf62" cx="779.66" cy="-304.69" rx="159.28" ry="28.99"/>
<text text-anchor="middle" x="779.66" y="-307.89" font-family="Times,serif" font-size="14.00" fill="gray">SPDXLicense</text>
<text text-anchor="middle" x="779.66" y="-291.39" font-family="Times,serif" font-size="14.00" fill="gray">9c59c2053c4a3c06e77a4c1a56898222</text>
</g>
<!-- 1597 -->
<g id="node2" class="node">
<title>1597</title>
<polygon fill="none" stroke="black" points="1119.49,-689.17 1119.49,-704.08 1075.89,-714.62 1014.24,-714.62 970.65,-704.08 970.65,-689.17 1014.24,-678.62 1075.89,-678.62 1119.49,-689.17"/>
<polygon fill="none" stroke="black" points="1123.49,-686.02 1123.49,-707.23 1076.37,-718.62 1013.77,-718.62 966.65,-707.23 966.65,-686.02 1013.77,-674.62 1076.37,-674.62 1123.49,-686.02"/>
<text text-anchor="middle" x="1045.07" y="-691.57" font-family="Times,serif" font-size="14.00">spdx:EUPL&#45;1.2</text>
</g>
<!-- 1596&#45;&gt;1597 -->
<g id="edge1" class="edge">
<title>1596&#45;&gt;1597</title>
<path fill="none" stroke="#b8bf62" d="M807.59,-333.64C880.76,-410.18 897.29,-436.97 1026.69,-664.32"/>
<polygon fill="#b8bf62" stroke="#b8bf62" points="1023.6,-665.96 1031.58,-672.93 1029.68,-662.5 1023.6,-665.96"/>
</g>
<!-- 6340 -->
<g id="node6" class="node">
<title>6340</title>
<polygon fill="none" stroke="#e09d4b" points="1397.38,-889.44 1397.38,-904.35 1348.59,-914.9 1279.6,-914.9 1230.81,-904.35 1230.81,-889.44 1279.6,-878.9 1348.59,-878.9 1397.38,-889.44"/>
<polygon fill="none" stroke="#e09d4b" points="1401.38,-886.21 1401.38,-907.58 1349.02,-918.9 1279.17,-918.9 1226.81,-907.58 1226.81,-886.21 1279.17,-874.9 1349.02,-874.9 1401.38,-886.21"/>
<text text-anchor="middle" x="1314.1" y="-891.85" font-family="Times,serif" font-size="14.00">Fedora:EUPL&#45;1.2</text>
</g>
<!-- 1597&#45;&gt;6340 -->
<g id="edge2" class="edge">
<title>1597&#45;&gt;6340</title>
<path fill="none" stroke="#e09d4b" stroke-width="2" d="M1106.98,-711.66C1196.28,-735.15 1215.88,-754.97 1292.32,-865.31"/>
<polygon fill="#e09d4b" stroke="#e09d4b" stroke-width="2" points="1297.27,-872.47 1287.88,-866.81 1295.4,-870.65 1291.17,-864.53 1291.58,-864.25 1291.99,-863.96 1296.22,-870.08 1295.28,-861.69 1297.27,-872.47"/>
</g>
<!-- 9546 -->
<g id="node12" class="node">
<title>9546</title>
<polygon fill="none" stroke="#58a066" points="1275.4,-480.27 1275.4,-495.18 1230.51,-505.72 1167.03,-505.72 1122.14,-495.18 1122.14,-480.27 1167.03,-469.72 1230.51,-469.72 1275.4,-480.27"/>
<polygon fill="none" stroke="#58a066" points="1279.4,-477.1 1279.4,-498.35 1230.98,-509.72 1166.56,-509.72 1118.14,-498.35 1118.14,-477.1 1166.56,-465.72 1230.98,-465.72 1279.4,-477.1"/>
<text text-anchor="middle" x="1198.77" y="-482.67" font-family="Times,serif" font-size="14.00">osadl:EUPL&#45;1.2</text>
</g>
<!-- 1597&#45;&gt;9546 -->
<g id="edge3" class="edge">
<title>1597&#45;&gt;9546</title>
<path fill="none" stroke="#58a066" stroke-width="2" d="M1056.46,-674.42C1109.62,-570.9 1123.83,-545.78 1159.69,-516.7"/>
<polygon fill="#58a066" stroke="#58a066" stroke-width="2" points="1166.31,-511.51 1161.23,-521.22 1164.6,-513.48 1158.75,-518.07 1158.45,-517.68 1158.14,-517.29 1163.99,-512.7 1155.67,-514.14 1166.31,-511.51"/>
</g>
<!-- 10173 -->
<g id="node15" class="node">
<title>10173</title>
<polygon fill="none" stroke="#deb256" points="1486.44,-798.93 1486.44,-813.85 1447.72,-824.39 1392.95,-824.39 1354.23,-813.85 1354.23,-798.93 1392.95,-788.39 1447.72,-788.39 1486.44,-798.93"/>
<polygon fill="none" stroke="#deb256" points="1490.44,-795.88 1490.44,-816.9 1448.25,-828.39 1392.42,-828.39 1350.23,-816.9 1350.23,-795.88 1392.42,-784.39 1448.25,-784.39 1490.44,-795.88"/>
<text text-anchor="middle" x="1420.34" y="-801.34" font-family="Times,serif" font-size="14.00">fsf:EUPL&#45;1.2</text>
</g>
<!-- 1597&#45;&gt;10173 -->
<g id="edge4" class="edge">
<title>1597&#45;&gt;10173</title>
<path fill="none" stroke="#deb256" stroke-dasharray="5,2" d="M1123.84,-691.35C1254.87,-683.97 1282.39,-695.24 1384.37,-777.21"/>
<polygon fill="#deb256" stroke="#deb256" points="1391.88,-783.27 1381.27,-780.49 1388.93,-780.89 1384.09,-776.99 1384.09,-776.99 1384.09,-776.99 1388.93,-780.89 1386.92,-773.49 1391.88,-783.27"/>
</g>
<!-- 41267 -->
<g id="node27" class="node">
<title>41267</title>
<polygon fill="none" stroke="#00876c" points="963.96,-1231.86 963.96,-1246.77 846.06,-1257.31 679.31,-1257.31 561.4,-1246.77 561.4,-1231.86 679.31,-1221.31 846.06,-1221.31 963.96,-1231.86"/>
<polygon fill="none" stroke="#00876c" points="967.96,-1228.2 967.96,-1250.43 846.23,-1261.31 679.13,-1261.31 557.4,-1250.43 557.4,-1228.2 679.13,-1217.31 846.23,-1217.31 967.96,-1228.2"/>
<text text-anchor="middle" x="762.68" y="-1234.26" font-family="Times,serif" font-size="14.00">metaeffekt:European Union Public License 1.2</text>
</g>
<!-- 1597&#45;&gt;41267 -->
<g id="edge5" class="edge">
<title>1597&#45;&gt;41267</title>
<path fill="none" stroke="#00876c" stroke-width="2" d="M1019.85,-718.96C799.15,-914.61 789.96,-931.7 765.63,-1205.83"/>
<polygon fill="#00876c" stroke="#00876c" stroke-width="2" points="764.86,-1214.53 761.26,-1204.17 764.59,-1211.93 765.24,-1204.52 765.74,-1204.57 766.24,-1204.61 765.59,-1212.02 770.23,-1204.96 764.86,-1214.53"/>
</g>
<!-- 1598 -->
<g id="node3" class="node">
<title>1598</title>
<polygon fill="none" stroke="black" points="1242.43,-946.53 1242.43,-961.44 1211.49,-971.99 1167.74,-971.99 1136.8,-961.44 1136.8,-946.53 1167.74,-935.99 1211.49,-935.99 1242.43,-946.53"/>
<polygon fill="none" stroke="black" points="1246.43,-943.67 1246.43,-964.3 1212.16,-975.99 1167.08,-975.99 1132.8,-964.3 1132.8,-943.67 1167.08,-931.99 1212.16,-931.99 1246.43,-943.67"/>
<text text-anchor="middle" x="1189.62" y="-948.94" font-family="Times,serif" font-size="14.00">EUPL&#45;1.2</text>
</g>
<!-- 1598&#45;&gt;1597 -->
<g id="edge6" class="edge">
<title>1598&#45;&gt;1597</title>
<path fill="none" stroke="black" stroke-width="2" d="M1181.74,-931.61C1133.52,-794.73 1123.13,-769.41 1078.04,-726.53"/>
<polygon fill="black" stroke="black" stroke-width="2" points="1071.63,-720.55 1082.01,-724.09 1073.85,-721.94 1079.28,-727.01 1078.94,-727.38 1078.6,-727.74 1073.16,-722.67 1075.87,-730.67 1071.63,-720.55"/>
</g>
<!-- 1598&#45;&gt;6340 -->
<g id="edge7" class="edge">
<title>1598&#45;&gt;6340</title>
<path fill="none" stroke="#e09d4b" stroke-width="2" d="M1224.06,-935.57C1235.64,-929.42 1244.85,-924.59 1252.58,-920.67"/>
<polygon fill="#e09d4b" stroke="#e09d4b" stroke-width="2" points="1260.44,-916.79 1253.47,-925.26 1258.36,-918.38 1251.69,-921.67 1251.47,-921.22 1251.25,-920.78 1257.92,-917.48 1249.48,-917.19 1260.44,-916.79"/>
</g>
<!-- 9299 -->
<g id="node10" class="node">
<title>9299</title>
<polygon fill="none" stroke="#00876c" points="1490.24,-605.05 1490.24,-619.96 1436.91,-630.5 1361.5,-630.5 1308.17,-619.96 1308.17,-605.05 1361.5,-594.5 1436.91,-594.5 1490.24,-605.05"/>
<polygon fill="none" stroke="#00876c" points="1494.24,-601.76 1494.24,-623.25 1437.31,-634.5 1361.11,-634.5 1304.17,-623.25 1304.17,-601.76 1361.11,-590.5 1437.31,-590.5 1494.24,-601.76"/>
<text text-anchor="middle" x="1399.21" y="-607.45" font-family="Times,serif" font-size="14.00">BlueOak:EUPL&#45;1.2</text>
</g>
<!-- 1598&#45;&gt;9299 -->
<g id="edge8" class="edge">
<title>1598&#45;&gt;9299</title>
<path fill="none" stroke="#00876c" stroke-width="2" d="M1204.2,-931.73C1327.27,-743.96 1342.81,-719.71 1382.31,-644.76"/>
<polygon fill="#00876c" stroke="#00876c" stroke-width="2" points="1386.38,-637.01 1385.71,-647.95 1385.63,-639.51 1382.17,-646.09 1381.73,-645.86 1381.29,-645.63 1384.75,-639.04 1377.75,-643.76 1386.38,-637.01"/>
</g>
<!-- 1598&#45;&gt;9546 -->
<g id="edge9" class="edge">
<title>1598&#45;&gt;9546</title>
<path fill="none" stroke="#58a066" stroke-width="2" d="M1191.83,-931.86C1219.29,-657.27 1221.19,-631.12 1204.05,-520.95"/>
<polygon fill="#58a066" stroke="#58a066" stroke-width="2" points="1202.71,-512.42 1208.7,-521.6 1203.6,-514.88 1204.75,-522.22 1204.26,-522.3 1203.77,-522.38 1202.61,-515.03 1199.81,-523 1202.71,-512.42"/>
</g>
<!-- 1598&#45;&gt;10173 -->
<g id="edge10" class="edge">
<title>1598&#45;&gt;10173</title>
<path fill="none" stroke="#deb256" stroke-width="2" d="M1219.18,-933.95C1312.85,-870.49 1341.02,-851.69 1375.03,-831.91"/>
<polygon fill="#deb256" stroke="#deb256" stroke-width="2" points="1382.23,-827.77 1375.81,-836.66 1380.26,-829.48 1373.81,-833.19 1373.56,-832.76 1373.31,-832.33 1379.76,-828.62 1371.32,-828.86 1382.23,-827.77"/>
</g>
<!-- 15287 -->
<g id="node18" class="node">
<title>15287</title>
<polygon fill="none" stroke="black" points="1331.31,-1347.45 1331.31,-1362.36 1281.88,-1372.91 1211.97,-1372.91 1162.53,-1362.36 1162.53,-1347.45 1211.97,-1336.91 1281.88,-1336.91 1331.31,-1347.45"/>
<polygon fill="none" stroke="black" points="1335.31,-1344.21 1335.31,-1365.6 1282.3,-1376.91 1211.55,-1376.91 1158.53,-1365.6 1158.53,-1344.21 1211.55,-1332.91 1282.3,-1332.91 1335.31,-1344.21"/>
<text text-anchor="middle" x="1246.92" y="-1349.86" font-family="Times,serif" font-size="14.00">scancode:eupl&#45;1.2</text>
</g>
<!-- 1598&#45;&gt;15287 -->
<g id="edge11" class="edge">
<title>1598&#45;&gt;15287</title>
<path fill="none" stroke="black" stroke-width="2" d="M1197.5,-976.36C1272.33,-1188.7 1277.77,-1210.01 1254.07,-1321.94"/>
<polygon fill="black" stroke="black" stroke-width="2" points="1252.28,-1330.31 1249.97,-1319.59 1252.33,-1327.7 1253.89,-1320.43 1254.38,-1320.53 1254.86,-1320.64 1253.31,-1327.91 1258.78,-1321.47 1252.28,-1330.31"/>
</g>
<!-- 27786 -->
<g id="node21" class="node">
<title>27786</title>
<polygon fill="none" stroke="#e18745" points="917.07,-695.75 917.07,-710.66 861.79,-721.2 783.62,-721.2 728.35,-710.66 728.35,-695.75 783.62,-685.2 861.79,-685.2 917.07,-695.75"/>
<polygon fill="none" stroke="#e18745" points="921.07,-692.44 921.07,-713.97 862.17,-725.2 783.24,-725.2 724.35,-713.97 724.35,-692.44 783.24,-681.2 862.17,-681.2 921.07,-692.44"/>
<text text-anchor="middle" x="822.71" y="-698.15" font-family="Times,serif" font-size="14.00">fossology:EUPL&#45;1.2</text>
</g>
<!-- 1598&#45;&gt;27786 -->
<g id="edge12" class="edge">
<title>1598&#45;&gt;27786</title>
<path fill="none" stroke="#e18745" stroke-width="2" d="M1166.66,-931.98C1011.03,-782.85 976.86,-752.4 894.7,-724.8"/>
<polygon fill="#e18745" stroke="#e18745" stroke-width="2" points="886.75,-722.2 897.65,-721.03 889.34,-722.52 896.41,-724.84 896.25,-725.31 896.09,-725.79 889.03,-723.47 894.85,-729.59 886.75,-722.2"/>
</g>
<!-- 36785 -->
<g id="node25" class="node">
<title>36785</title>
<polygon fill="none" stroke="#379469" points="1662.9,-1036.74 1662.9,-1051.66 1618.98,-1062.2 1556.87,-1062.2 1512.96,-1051.66 1512.96,-1036.74 1556.87,-1026.2 1618.98,-1026.2 1662.9,-1036.74"/>
<polygon fill="none" stroke="#379469" points="1666.9,-1033.59 1666.9,-1054.81 1619.46,-1066.2 1556.4,-1066.2 1508.96,-1054.81 1508.96,-1033.59 1556.4,-1022.2 1619.46,-1022.2 1666.9,-1033.59"/>
<text text-anchor="middle" x="1587.93" y="-1039.15" font-family="Times,serif" font-size="14.00">cavil:EUPL&#45;1.2</text>
</g>
<!-- 1598&#45;&gt;36785 -->
<g id="edge13" class="edge">
<title>1598&#45;&gt;36785</title>
<path fill="none" stroke="#379469" stroke-width="2" d="M1246.76,-960.65C1429.67,-982.11 1468.18,-988.62 1536.42,-1019.62"/>
<polygon fill="#379469" stroke="#379469" stroke-width="2" points="1544.05,-1023.14 1533.08,-1023.03 1541.51,-1022.52 1534.76,-1019.4 1534.97,-1018.95 1535.18,-1018.49 1541.93,-1021.61 1536.85,-1014.86 1544.05,-1023.14"/>
</g>
<!-- 1598&#45;&gt;41267 -->
<g id="edge14" class="edge">
<title>1598&#45;&gt;41267</title>
<path fill="none" stroke="#00876c" stroke-dasharray="5,2" d="M1157.47,-973.23C912.5,-1119.89 882.08,-1138.92 797.37,-1210"/>
<polygon fill="#00876c" stroke="#00876c" points="789.92,-1216.26 794.68,-1206.38 792.82,-1213.83 797.58,-1209.82 797.58,-1209.82 797.58,-1209.82 792.82,-1213.83 800.47,-1213.27 789.92,-1216.26"/>
</g>
<!-- 41276 -->
<g id="node36" class="node">
<title>41276</title>
<polygon fill="none" stroke="#00876c" points="951.94,-966.58 951.94,-981.49 912.57,-992.03 856.88,-992.03 817.51,-981.49 817.51,-966.58 856.88,-956.03 912.57,-956.03 951.94,-966.58"/>
<polygon fill="none" stroke="#00876c" points="955.94,-963.51 955.94,-984.56 913.09,-996.03 856.36,-996.03 813.51,-984.56 813.51,-963.51 856.36,-952.03 913.09,-952.03 955.94,-963.51"/>
<polygon fill="none" stroke="#00876c" points="959.94,-960.44 959.94,-987.63 913.62,-1000.03 855.83,-1000.03 809.51,-987.63 809.51,-960.44 855.83,-948.03 913.62,-948.03 959.94,-960.44"/>
<text text-anchor="middle" x="884.72" y="-968.98" font-family="Times,serif" font-size="14.00">osi:EUPL&#45;1.2</text>
</g>
<!-- 1598&#45;&gt;41276 -->
<g id="edge15" class="edge">
<title>1598&#45;&gt;41276</title>
<path fill="none" stroke="#00876c" stroke-width="2" d="M1135.35,-942.46C1028.18,-920.2 999.29,-919.35 938.82,-947.14"/>
<polygon fill="#00876c" stroke="#00876c" stroke-width="2" points="931.03,-950.81 938.16,-942.48 933.13,-949.27 939.86,-946.1 940.07,-946.55 940.29,-947 933.56,-950.17 941.99,-950.62 931.03,-950.81"/>
</g>
<!-- 50498 -->
<g id="node38" class="node">
<title>50498</title>
<polygon fill="none" stroke="#b8bf62" points="1065.5,-1517.3 1065.5,-1532.21 945,-1542.76 774.58,-1542.76 654.08,-1532.21 654.08,-1517.3 774.58,-1506.76 945,-1506.76 1065.5,-1517.3"/>
<polygon fill="none" stroke="#b8bf62" points="1069.5,-1513.64 1069.5,-1535.88 945.17,-1546.76 774.41,-1546.76 650.08,-1535.88 650.08,-1513.64 774.41,-1502.76 945.17,-1502.76 1069.5,-1513.64"/>
<text text-anchor="middle" x="859.79" y="-1519.71" font-family="Times,serif" font-size="14.00">foss&#45;license:European Union Public Licence 1.2</text>
</g>
<!-- 1598&#45;&gt;50498 -->
<g id="edge16" class="edge">
<title>1598&#45;&gt;50498</title>
<path fill="none" stroke="#b8bf62" stroke-width="2" d="M1178.2,-976.37C994.35,-1336.89 979.71,-1364.4 882.88,-1493.96"/>
<polygon fill="#b8bf62" stroke="#b8bf62" stroke-width="2" points="877.84,-1500.69 880.23,-1489.99 878.97,-1498.34 883.43,-1492.39 883.83,-1492.69 884.23,-1492.99 879.77,-1498.94 887.43,-1495.38 877.84,-1500.69"/>
</g>
<!-- 1599 -->
<g id="node4" class="node">
<title>1599</title>
<polygon fill="none" stroke="black" points="1124.03,-894.48 1124.03,-909.39 1033.06,-919.94 904.4,-919.94 813.43,-909.39 813.43,-894.48 904.4,-883.94 1033.06,-883.94 1124.03,-894.48"/>
<polygon fill="none" stroke="black" points="1128.03,-890.92 1128.03,-912.95 1033.29,-923.94 904.17,-923.94 809.43,-912.95 809.43,-890.92 904.17,-879.94 1033.29,-879.94 1128.03,-890.92"/>
<text text-anchor="middle" x="968.73" y="-896.89" font-family="Times,serif" font-size="14.00">European Union Public License 1.2</text>
</g>
<!-- 1599&#45;&gt;1597 -->
<g id="edge17" class="edge">
<title>1599&#45;&gt;1597</title>
<path fill="none" stroke="#b8bf62" stroke-width="2" d="M972.4,-879.57C988.28,-783.34 993.31,-761.16 1019.32,-727.49"/>
<polygon fill="#b8bf62" stroke="#b8bf62" stroke-width="2" points="1024.47,-721.03 1021.75,-731.65 1023.27,-723.34 1018.63,-729.16 1018.24,-728.84 1017.85,-728.53 1022.48,-722.72 1014.72,-726.04 1024.47,-721.03"/>
</g>
<!-- 1599&#45;&gt;6340 -->
<g id="edge18" class="edge">
<title>1599&#45;&gt;6340</title>
<path fill="none" stroke="#e09d4b" stroke-dasharray="5,2" d="M1033.15,-879.57C1143.08,-842.33 1173.04,-840.83 1255.99,-873.11"/>
<polygon fill="#e09d4b" stroke="#e09d4b" points="1265.25,-876.77 1254.3,-877.28 1261.73,-875.38 1255.95,-873.09 1255.95,-873.09 1255.95,-873.09 1261.73,-875.38 1257.6,-868.91 1265.25,-876.77"/>
</g>
<!-- 1599&#45;&gt;9299 -->
<g id="edge19" class="edge">
<title>1599&#45;&gt;9299</title>
<path fill="none" stroke="#00876c" stroke-width="2" d="M991.45,-879.46C1177.97,-695.07 1212.98,-663.37 1322.65,-632.29"/>
<polygon fill="#00876c" stroke="#00876c" stroke-width="2" points="1330.8,-630.03 1322.37,-637.04 1328.46,-631.2 1321.3,-633.19 1321.16,-632.7 1321.03,-632.22 1328.2,-630.23 1319.96,-628.37 1330.8,-630.03"/>
</g>
<!-- 1599&#45;&gt;27786 -->
<g id="edge20" class="edge">
<title>1599&#45;&gt;27786</title>
<path fill="none" stroke="#e18745" stroke-width="2" d="M951.73,-879.49C883.31,-789.12 867.1,-767.52 844.33,-734.68"/>
<polygon fill="#e18745" stroke="#e18745" stroke-width="2" points="839.41,-727.56 848.79,-733.23 841.28,-729.38 845.5,-735.5 845.09,-735.79 844.68,-736.07 840.45,-729.95 841.39,-738.34 839.41,-727.56"/>
</g>
<!-- 1599&#45;&gt;41267 -->
<g id="edge21" class="edge">
<title>1599&#45;&gt;41267</title>
<path fill="none" stroke="#00876c" stroke-width="2" d="M945.82,-924.34C799.42,-1067.7 787.17,-1084.55 767.81,-1206.21"/>
<polygon fill="#00876c" stroke="#00876c" stroke-width="2" points="766.47,-1214.72 763.58,-1204.14 766.38,-1212.11 767.53,-1204.76 768.03,-1204.84 768.52,-1204.91 767.37,-1212.26 772.47,-1205.54 766.47,-1214.72"/>
</g>
<!-- 1599&#45;&gt;50498 -->
<g id="edge22" class="edge">
<title>1599&#45;&gt;50498</title>
<path fill="none" stroke="#b8bf62" stroke-width="2" d="M960.51,-924.24C829.44,-1280.06 823.12,-1302.71 854.22,-1491.39"/>
<polygon fill="#b8bf62" stroke="#b8bf62" stroke-width="2" points="855.63,-1499.87 849.56,-1490.74 854.72,-1497.42 853.5,-1490.09 853.99,-1490 854.49,-1489.92 855.7,-1497.26 858.43,-1489.27 855.63,-1499.87"/>
</g>
<!-- 6339 -->
<g id="node5" class="node">
<title>6339</title>
<ellipse fill="none" stroke="#e09d4b" cx="1699.76" cy="-693.51" rx="160.34" ry="28.99"/>
<text text-anchor="middle" x="1699.76" y="-696.71" font-family="Times,serif" font-size="14.00" fill="gray">FedoraEntry</text>
<text text-anchor="middle" x="1699.76" y="-680.21" font-family="Times,serif" font-size="14.00" fill="gray">d966fb5354c8050102302601a7c7321e</text>
</g>
<!-- 6339&#45;&gt;6340 -->
<g id="edge23" class="edge">
<title>6339&#45;&gt;6340</title>
<path fill="none" stroke="#e09d4b" d="M1642.69,-720.96C1577.68,-752.59 1537.73,-774.19 1363.34,-869.87"/>
<polygon fill="#e09d4b" stroke="#e09d4b" points="1361.72,-866.77 1354.64,-874.65 1365.09,-872.91 1361.72,-866.77"/>
</g>
<!-- 6341 -->
<g id="node7" class="node">
<title>6341</title>
<polygon fill="none" stroke="black" points="1183.11,-1178.55 1183.11,-1193.46 1152.82,-1204 1109.99,-1204 1079.7,-1193.46 1079.7,-1178.55 1109.99,-1168 1152.82,-1168 1183.11,-1178.55"/>
<polygon fill="none" stroke="black" points="1187.11,-1175.71 1187.11,-1196.3 1153.5,-1208 1109.31,-1208 1075.7,-1196.3 1075.7,-1175.71 1109.31,-1164 1153.5,-1164 1187.11,-1175.71"/>
<text text-anchor="middle" x="1131.4" y="-1180.95" font-family="Times,serif" font-size="14.00">EUPL 1.2</text>
</g>
<!-- 6341&#45;&gt;6340 -->
<g id="edge24" class="edge">
<title>6341&#45;&gt;6340</title>
<path fill="none" stroke="#e09d4b" stroke-dasharray="5,2" d="M1154.95,-1164.4C1279.07,-1050.32 1291.04,-1034.37 1308.67,-930.11"/>
<polygon fill="#e09d4b" stroke="#e09d4b" points="1310.31,-920.25 1313.1,-930.86 1309.69,-923.98 1308.67,-930.12 1308.67,-930.12 1308.67,-930.12 1309.69,-923.98 1304.23,-929.38 1310.31,-920.25"/>
</g>
<!-- 6341&#45;&gt;15287 -->
<g id="edge25" class="edge">
<title>6341&#45;&gt;15287</title>
<path fill="none" stroke="#dac767" stroke-width="2" d="M1144.96,-1208.45C1188.01,-1279.69 1201.66,-1301.57 1220.11,-1324.12"/>
<polygon fill="#dac767" stroke="#dac767" stroke-width="2" points="1225.62,-1330.69 1215.75,-1325.92 1223.59,-1329.05 1218.81,-1323.35 1219.19,-1323.03 1219.57,-1322.71 1224.36,-1328.4 1222.64,-1320.13 1225.62,-1330.69"/>
</g>
<!-- 6341&#45;&gt;41267 -->
<g id="edge26" class="edge">
<title>6341&#45;&gt;41267</title>
<path fill="none" stroke="#00876c" stroke-dasharray="5,2" d="M1088.49,-1201.2C1042.99,-1217.26 1007.86,-1229.4 979.04,-1238.19"/>
<polygon fill="#00876c" stroke="#00876c" points="969.45,-1241.05 977.75,-1233.88 973.08,-1239.97 979.04,-1238.19 979.04,-1238.19 979.04,-1238.19 973.08,-1239.97 980.32,-1242.5 969.45,-1241.05"/>
</g>
<!-- 6341&#45;&gt;50498 -->
<g id="edge27" class="edge">
<title>6341&#45;&gt;50498</title>
<path fill="none" stroke="#b8bf62" stroke-width="2" d="M1117.13,-1208.22C988.61,-1408.33 969.44,-1436.3 896.64,-1495.43"/>
<polygon fill="#b8bf62" stroke="#b8bf62" stroke-width="2" points="889.87,-1500.89 894.83,-1491.11 891.55,-1498.89 897.34,-1494.22 897.65,-1494.61 897.97,-1495 892.18,-1499.67 900.48,-1498.11 889.87,-1500.89"/>
</g>
<!-- 9293 -->
<g id="node8" class="node">
<title>9293</title>
<polygon fill="none" stroke="#00876c" points="1787.22,-231.47 1787.22,-246.38 1705.33,-256.92 1589.53,-256.92 1507.65,-246.38 1507.65,-231.47 1589.53,-220.92 1705.33,-220.92 1787.22,-231.47"/>
<text text-anchor="middle" x="1647.43" y="-233.87" font-family="Times,serif" font-size="14.00">European Union Public License</text>
</g>
<!-- 9293&#45;&gt;9299 -->
<g id="edge28" class="edge">
<title>9293&#45;&gt;9299</title>
<path fill="none" stroke="#00876c" stroke-dasharray="5,2" d="M1635.5,-257.42C1576.63,-348.64 1565.32,-365.61 1420.35,-581.08"/>
<polygon fill="#00876c" stroke="#00876c" points="1414.92,-589.15 1416.77,-578.34 1417.03,-586.01 1420.5,-580.85 1420.5,-580.85 1420.5,-580.85 1417.03,-586.01 1424.24,-583.36 1414.92,-589.15"/>
</g>
<!-- 9298 -->
<g id="node9" class="node">
<title>9298</title>
<ellipse fill="none" stroke="#00876c" cx="1802.07" cy="-344.68" rx="161.93" ry="28.99"/>
<text text-anchor="middle" x="1802.07" y="-347.88" font-family="Times,serif" font-size="14.00" fill="gray">BlueOakCouncil</text>
<text text-anchor="middle" x="1802.07" y="-331.38" font-family="Times,serif" font-size="14.00" fill="gray">9b78e533068c5cb134978db69be87769</text>
</g>
<!-- 9298&#45;&gt;9299 -->
<g id="edge29" class="edge">
<title>9298&#45;&gt;9299</title>
<path fill="none" stroke="#00876c" d="M1742.47,-372.01C1662.71,-409.95 1624.92,-437.78 1437.25,-583.04"/>
<polygon fill="#00876c" stroke="#00876c" points="1435.17,-580.23 1429.4,-589.12 1439.45,-585.77 1435.17,-580.23"/>
</g>
<!-- 9545 -->
<g id="node11" class="node">
<title>9545</title>
<ellipse fill="none" stroke="#58a066" cx="1049.66" cy="-28.67" rx="160.87" ry="28.99"/>
<text text-anchor="middle" x="1049.66" y="-31.87" font-family="Times,serif" font-size="14.00" fill="gray">OSADLRule</text>
<text text-anchor="middle" x="1049.66" y="-15.37" font-family="Times,serif" font-size="14.00" fill="gray">2132e20a6694c3a6b5501a8121cddbdb</text>
</g>
<!-- 9545&#45;&gt;9546 -->
<g id="edge30" class="edge">
<title>9545&#45;&gt;9546</title>
<path fill="none" stroke="#58a066" d="M1066.85,-57.98C1126.07,-159.73 1133.1,-185.59 1191.55,-454.48"/>
<polygon fill="#58a066" stroke="#58a066" points="1188.05,-454.88 1193.6,-463.91 1194.89,-453.39 1188.05,-454.88"/>
</g>
<!-- 9854 -->
<g id="node13" class="node">
<title>9854</title>
<ellipse fill="none" stroke="#58a066" cx="1375.16" cy="-61.11" rx="156.62" ry="28.99"/>
<text text-anchor="middle" x="1375.16" y="-64.31" font-family="Times,serif" font-size="14.00" fill="gray">OSADLMatrix</text>
<text text-anchor="middle" x="1375.16" y="-47.81" font-family="Times,serif" font-size="14.00" fill="gray">229a23f5990266b7c4014e9c0acf9c0c</text>
</g>
<!-- 9854&#45;&gt;9546 -->
<g id="edge31" class="edge">
<title>9854&#45;&gt;9546</title>
<path fill="none" stroke="#58a066" d="M1359.72,-90.23C1310.75,-183.07 1300.82,-208.54 1210.8,-454.8"/>
<polygon fill="#58a066" stroke="#58a066" points="1207.54,-453.54 1207.39,-464.13 1214.11,-455.94 1207.54,-453.54"/>
</g>
<!-- 10172 -->
<g id="node14" class="node">
<title>10172</title>
<ellipse fill="none" stroke="#deb256" cx="1880.27" cy="-759.51" rx="153.97" ry="28.99"/>
<text text-anchor="middle" x="1880.27" y="-762.71" font-family="Times,serif" font-size="14.00" fill="gray">FSF</text>
<text text-anchor="middle" x="1880.27" y="-746.21" font-family="Times,serif" font-size="14.00" fill="gray">e24888dcfe3fea0de93dcdbdd04f2df3</text>
</g>
<!-- 10172&#45;&gt;10173 -->
<g id="edge32" class="edge">
<title>10172&#45;&gt;10173</title>
<path fill="none" stroke="#deb256" d="M1731.24,-751.84C1681.02,-755.38 1617.96,-767 1494.77,-791.51"/>
<polygon fill="#deb256" stroke="#deb256" points="1494.46,-788 1485.33,-793.39 1495.83,-794.87 1494.46,-788"/>
</g>
<!-- 10174 -->
<g id="node16" class="node">
<title>10174</title>
<polygon fill="none" stroke="black" points="1584.93,-1248.2 1584.93,-1263.11 1455.02,-1273.65 1271.29,-1273.65 1141.38,-1263.11 1141.38,-1248.2 1271.29,-1237.65 1455.02,-1237.65 1584.93,-1248.2"/>
<polygon fill="none" stroke="black" points="1588.93,-1244.51 1588.93,-1266.8 1455.18,-1277.65 1271.13,-1277.65 1137.38,-1266.8 1137.38,-1244.51 1271.13,-1233.65 1455.18,-1233.65 1588.93,-1244.51"/>
<text text-anchor="middle" x="1363.16" y="-1250.6" font-family="Times,serif" font-size="14.00">European Union Public License (EUPL) version 1.2</text>
</g>
<!-- 10174&#45;&gt;10173 -->
<g id="edge33" class="edge">
<title>10174&#45;&gt;10173</title>
<path fill="none" stroke="#deb256" stroke-width="2" d="M1374.79,-1233.28C1476.3,-1037.79 1480.03,-1020.73 1429.59,-839.43"/>
<polygon fill="#deb256" stroke="#deb256" stroke-width="2" points="1427.24,-831.03 1434.27,-839.46 1428.42,-833.37 1430.41,-840.53 1429.93,-840.67 1429.45,-840.8 1427.45,-833.64 1425.6,-841.88 1427.24,-831.03"/>
</g>
<!-- 10174&#45;&gt;41267 -->
<g id="edge34" class="edge">
<title>10174&#45;&gt;41267</title>
<path fill="none" stroke="#00876c" stroke-dasharray="5,2" d="M1298.53,-1278.03C1064.51,-1358.38 1029.18,-1357.8 822.74,-1266.21"/>
<polygon fill="#00876c" stroke="#00876c" points="813.89,-1262.27 824.85,-1262.23 817.34,-1263.81 823.03,-1266.34 823.03,-1266.34 823.03,-1266.34 817.34,-1263.81 821.2,-1270.45 813.89,-1262.27"/>
</g>
<!-- 10174&#45;&gt;50498 -->
<g id="edge35" class="edge">
<title>10174&#45;&gt;50498</title>
<path fill="none" stroke="#b8bf62" stroke-width="2" d="M1341.16,-1277.89C1181.75,-1438.96 1131.9,-1485.72 1026.41,-1506.47"/>
<polygon fill="#b8bf62" stroke="#b8bf62" stroke-width="2" points="1018.07,-1508.01 1027.09,-1501.77 1020.5,-1507.06 1027.81,-1505.7 1027.91,-1506.19 1028,-1506.68 1020.68,-1508.04 1028.73,-1510.62 1018.07,-1508.01"/>
</g>
<!-- 15286 -->
<g id="node17" class="node">
<title>15286</title>
<ellipse fill="none" stroke="#dac767" cx="1626.64" cy="-1632.3" rx="153.97" ry="28.99"/>
<text text-anchor="middle" x="1626.64" y="-1635.5" font-family="Times,serif" font-size="14.00" fill="gray">ScancodeData</text>
<text text-anchor="middle" x="1626.64" y="-1619" font-family="Times,serif" font-size="14.00" fill="gray">888f34ff9b2b0e5069e2cd4f502fa859</text>
</g>
<!-- 15286&#45;&gt;15287 -->
<g id="edge36" class="edge">
<title>15286&#45;&gt;15287</title>
<path fill="none" stroke="#dac767" d="M1570.65,-1604.89C1492.23,-1565.08 1457.76,-1536.94 1281.42,-1384.7"/>
<polygon fill="#dac767" stroke="#dac767" points="1283.91,-1382.23 1274.06,-1378.34 1279.34,-1387.53 1283.91,-1382.23"/>
</g>
<!-- 15287&#45;&gt;41267 -->
<g id="edge37" class="edge">
<title>15287&#45;&gt;41267</title>
<path fill="none" stroke="#00876c" stroke-dasharray="5,2" d="M1158.84,-1366.16C983.37,-1387.1 951.04,-1375.05 802.44,-1268.09"/>
<polygon fill="#00876c" stroke="#00876c" points="794.41,-1262.3 805.15,-1264.5 797.47,-1264.51 802.52,-1268.15 802.52,-1268.15 802.52,-1268.15 797.47,-1264.51 799.89,-1271.8 794.41,-1262.3"/>
</g>
<!-- 15287&#45;&gt;50498 -->
<g id="edge38" class="edge">
<title>15287&#45;&gt;50498</title>
<path fill="none" stroke="#b8bf62" stroke-width="2" d="M1220.06,-1377.36C1132.03,-1450.82 1086.06,-1487.48 1039.9,-1505.87"/>
<polygon fill="#b8bf62" stroke="#b8bf62" stroke-width="2" points="1031.69,-1508.89 1039.51,-1501.21 1033.92,-1507.54 1040.9,-1504.97 1041.07,-1505.44 1041.24,-1505.91 1034.26,-1508.48 1042.63,-1509.66 1031.69,-1508.89"/>
</g>
<!-- 15288 -->
<g id="node19" class="node">
<title>15288</title>
<polygon fill="none" stroke="black" points="1523.74,-1744.78 1523.74,-1759.69 1432.44,-1770.23 1303.33,-1770.23 1212.04,-1759.69 1212.04,-1744.78 1303.33,-1734.23 1432.44,-1734.23 1523.74,-1744.78"/>
<polygon fill="none" stroke="black" points="1527.74,-1741.21 1527.74,-1763.25 1432.67,-1774.23 1303.1,-1774.23 1208.04,-1763.25 1208.04,-1741.21 1303.1,-1730.23 1432.67,-1730.23 1527.74,-1741.21"/>
<text text-anchor="middle" x="1367.89" y="-1747.18" font-family="Times,serif" font-size="14.00">European Union Public Licence 1.2</text>
</g>
<!-- 15288&#45;&gt;15287 -->
<g id="edge39" class="edge">
<title>15288&#45;&gt;15287</title>
<path fill="none" stroke="#dac767" stroke-width="2" d="M1362.74,-1730.04C1340.27,-1633.49 1334.17,-1614.04 1258.02,-1387.86"/>
<polygon fill="#dac767" stroke="#dac767" stroke-width="2" points="1255.23,-1379.59 1262.69,-1387.63 1256.53,-1381.86 1258.9,-1388.91 1258.43,-1389.07 1257.95,-1389.23 1255.58,-1382.18 1254.16,-1390.5 1255.23,-1379.59"/>
</g>
<!-- 15288&#45;&gt;50498 -->
<g id="edge40" class="edge">
<title>15288&#45;&gt;50498</title>
<path fill="none" stroke="#b8bf62" stroke-width="2" d="M1207.91,-1746.06C1105.16,-1733.66 1053.61,-1693.56 893.68,-1554.31"/>
<polygon fill="#b8bf62" stroke="#b8bf62" stroke-width="2" points="887.32,-1548.77 897.82,-1551.95 889.58,-1550.08 895.19,-1554.96 894.86,-1555.34 894.53,-1555.72 888.92,-1550.83 891.9,-1558.73 887.32,-1548.77"/>
</g>
<!-- 27785 -->
<g id="node20" class="node">
<title>27785</title>
<ellipse fill="none" stroke="#e18745" cx="396.19" cy="-450.4" rx="158.75" ry="28.99"/>
<text text-anchor="middle" x="396.19" y="-453.6" font-family="Times,serif" font-size="14.00" fill="gray">Fossology</text>
<text text-anchor="middle" x="396.19" y="-437.1" font-family="Times,serif" font-size="14.00" fill="gray">854195964448311ae333227c18af2fb9</text>
</g>
<!-- 27785&#45;&gt;27786 -->
<g id="edge41" class="edge">
<title>27785&#45;&gt;27786</title>
<path fill="none" stroke="#e18745" d="M461.45,-477.27C541.93,-511.83 583.82,-539.29 780.68,-674.35"/>
<polygon fill="#e18745" stroke="#e18745" points="778.7,-677.24 788.93,-680.01 782.66,-671.47 778.7,-677.24"/>
</g>
<!-- 28672 -->
<g id="node22" class="node">
<title>28672</title>
<ellipse fill="none" stroke="#e06f45" cx="1105.99" cy="-255.71" rx="158.75" ry="28.99"/>
<text text-anchor="middle" x="1105.99" y="-258.91" font-family="Times,serif" font-size="14.00" fill="gray">OrtLicenseCategorization</text>
<text text-anchor="middle" x="1105.99" y="-242.41" font-family="Times,serif" font-size="14.00" fill="gray">eddfd83a939c189dd129fc831002313d</text>
</g>
<!-- 28672&#45;&gt;1597 -->
<g id="edge42" class="edge">
<title>28672&#45;&gt;1597</title>
<path fill="none" stroke="#e06f45" d="M1098.61,-284.99C1073.61,-384.89 1070.71,-409.96 1048.09,-662.82"/>
<polygon fill="#e06f45" stroke="#e06f45" points="1044.61,-662.47 1047.2,-672.74 1051.58,-663.09 1044.61,-662.47"/>
</g>
<!-- 35445 -->
<g id="node23" class="node">
<title>35445</title>
<ellipse fill="none" stroke="#e09d4b" cx="723.58" cy="-401.72" rx="160.34" ry="28.99"/>
<text text-anchor="middle" x="723.58" y="-404.92" font-family="Times,serif" font-size="14.00" fill="gray">OrtLicenseCategorization</text>
<text text-anchor="middle" x="723.58" y="-388.42" font-family="Times,serif" font-size="14.00" fill="gray">c7bd66db02952ecf622843b4512e27d5</text>
</g>
<!-- 35445&#45;&gt;1597 -->
<g id="edge43" class="edge">
<title>35445&#45;&gt;1597</title>
<path fill="none" stroke="#e09d4b" d="M775.25,-429.52C850.75,-471.9 877.96,-501.18 1018.79,-665.87"/>
<polygon fill="#e09d4b" stroke="#e09d4b" points="1015.87,-667.85 1025.03,-673.18 1021.2,-663.3 1015.87,-667.85"/>
</g>
<!-- 36784 -->
<g id="node24" class="node">
<title>36784</title>
<ellipse fill="none" stroke="#379469" cx="2031.4" cy="-1143.52" rx="156.09" ry="28.99"/>
<text text-anchor="middle" x="2031.4" y="-1146.72" font-family="Times,serif" font-size="14.00" fill="gray">CavilLicenseChange</text>
<text text-anchor="middle" x="2031.4" y="-1130.22" font-family="Times,serif" font-size="14.00" fill="gray">614b1a2a325e41fa704f3179b39fa2da</text>
</g>
<!-- 36784&#45;&gt;36785 -->
<g id="edge44" class="edge">
<title>36784&#45;&gt;36785</title>
<path fill="none" stroke="#379469" d="M1952.67,-1118.09C1891.01,-1099.5 1839.43,-1089.3 1670.91,-1059.05"/>
<polygon fill="#379469" stroke="#379469" points="1671.59,-1055.62 1661.12,-1057.3 1670.35,-1062.51 1671.59,-1055.62"/>
</g>
<!-- 41266 -->
<g id="node26" class="node">
<title>41266</title>
<ellipse fill="none" stroke="#00876c" cx="155.43" cy="-1137.73" rx="155.56" ry="28.99"/>
<text text-anchor="middle" x="155.43" y="-1140.93" font-family="Times,serif" font-size="14.00" fill="gray">MetaeffektLicense</text>
<text text-anchor="middle" x="155.43" y="-1124.43" font-family="Times,serif" font-size="14.00" fill="gray">dfaa045689610f036e3c3f1f9d664088</text>
</g>
<!-- 41266&#45;&gt;41267 -->
<g id="edge45" class="edge">
<title>41266&#45;&gt;41267</title>
<path fill="none" stroke="#00876c" d="M219.41,-1164.56C316,-1203.82 366.98,-1214.73 548.59,-1226.78"/>
<polygon fill="#00876c" stroke="#00876c" points="548.17,-1230.26 558.38,-1227.42 548.63,-1223.27 548.17,-1230.26"/>
</g>
<!-- 41268 -->
<g id="node28" class="node">
<title>41268</title>
<polygon fill="none" stroke="#00876c" points="389.97,-1062.03 389.97,-1076.95 368.44,-1087.49 338,-1087.49 316.47,-1076.95 316.47,-1062.03 338,-1051.49 368.44,-1051.49 389.97,-1062.03"/>
<text text-anchor="middle" x="353.22" y="-1064.44" font-family="Times,serif" font-size="14.00">EUPL</text>
</g>
<!-- 41268&#45;&gt;41267 -->
<g id="edge46" class="edge">
<title>41268&#45;&gt;41267</title>
<path fill="none" stroke="#00876c" stroke-dasharray="5,2" d="M372.19,-1085.98C457.6,-1159.88 481.34,-1173.18 658.66,-1215.16"/>
<polygon fill="#00876c" stroke="#00876c" points="668.26,-1217.43 657.49,-1219.51 664.58,-1216.56 658.53,-1215.13 658.53,-1215.13 658.53,-1215.13 664.58,-1216.56 659.56,-1210.75 668.26,-1217.43"/>
</g>
<!-- 41269 -->
<g id="node29" class="node">
<title>41269</title>
<polygon fill="none" stroke="black" points="529.98,-1461.34 529.98,-1476.25 480.22,-1486.8 409.85,-1486.8 360.09,-1476.25 360.09,-1461.34 409.85,-1450.8 480.22,-1450.8 529.98,-1461.34"/>
<polygon fill="none" stroke="black" points="533.98,-1458.1 533.98,-1479.49 480.64,-1490.8 409.43,-1490.8 356.09,-1479.49 356.09,-1458.1 409.43,-1446.8 480.64,-1446.8 533.98,-1458.1"/>
<text text-anchor="middle" x="445.04" y="-1463.75" font-family="Times,serif" font-size="14.00">EUPL Version 1.2</text>
</g>
<!-- 41269&#45;&gt;41267 -->
<g id="edge47" class="edge">
<title>41269&#45;&gt;41267</title>
<path fill="none" stroke="#00876c" stroke-dasharray="5,2" d="M473.39,-1446.49C535.56,-1397.73 559.53,-1380.65 721.6,-1267.89"/>
<polygon fill="#00876c" stroke="#00876c" points="729.43,-1262.44 723.79,-1271.85 726.33,-1264.6 721.22,-1268.16 721.22,-1268.16 721.22,-1268.16 726.33,-1264.6 718.65,-1264.46 729.43,-1262.44"/>
</g>
<!-- 41269&#45;&gt;50498 -->
<g id="edge48" class="edge">
<title>41269&#45;&gt;50498</title>
<path fill="none" stroke="#b8bf62" stroke-width="2" d="M482.6,-1490.82C563.19,-1537.35 597.75,-1549.53 697.27,-1542.32"/>
<polygon fill="#b8bf62" stroke="#b8bf62" stroke-width="2" points="705.98,-1541.65 696.36,-1546.91 703.46,-1542.35 696.05,-1542.92 696.01,-1542.42 695.97,-1541.92 703.39,-1541.35 695.66,-1537.93 705.98,-1541.65"/>
</g>
<!-- 41270 -->
<g id="node30" class="node">
<title>41270</title>
<polygon fill="none" stroke="black" points="897.58,-1574.01 897.58,-1588.93 863.08,-1599.47 814.28,-1599.47 779.77,-1588.93 779.77,-1574.01 814.28,-1563.47 863.08,-1563.47 897.58,-1574.01"/>
<polygon fill="none" stroke="black" points="901.58,-1571.05 901.58,-1591.89 863.67,-1603.47 813.68,-1603.47 775.77,-1591.89 775.77,-1571.05 813.68,-1559.47 863.67,-1559.47 901.58,-1571.05"/>
<text text-anchor="middle" x="838.68" y="-1576.42" font-family="Times,serif" font-size="14.00">EUPL v.1.2</text>
</g>
<!-- 41270&#45;&gt;41267 -->
<g id="edge49" class="edge">
<title>41270&#45;&gt;41267</title>
<path fill="none" stroke="#00876c" stroke-dasharray="5,2" d="M823.02,-1559.13C760.57,-1469.35 757.41,-1451.52 761.83,-1272.8"/>
<polygon fill="#00876c" stroke="#00876c" points="762.08,-1262.87 766.33,-1272.98 761.98,-1266.65 761.83,-1272.86 761.83,-1272.86 761.83,-1272.86 761.98,-1266.65 757.33,-1272.75 762.08,-1262.87"/>
</g>
<!-- 41270&#45;&gt;50498 -->
<g id="edge50" class="edge">
<title>41270&#45;&gt;50498</title>
<path fill="none" stroke="#b8bf62" stroke-width="2" d="M846.08,-1559.22C846.31,-1558.61 846.55,-1557.98 846.81,-1557.32"/>
<polygon fill="#b8bf62" stroke="#b8bf62" stroke-width="2" points="849.94,-1549.35 850.47,-1560.3 849.47,-1551.92 846.75,-1558.84 846.28,-1558.65 845.82,-1558.47 848.54,-1551.55 842.09,-1557.01 849.94,-1549.35"/>
</g>
<!-- 41271 -->
<g id="node31" class="node">
<title>41271</title>
<polygon fill="none" stroke="black" points="442.63,-1409.33 442.63,-1424.24 345.49,-1434.78 208.12,-1434.78 110.98,-1424.24 110.98,-1409.33 208.12,-1398.78 345.49,-1398.78 442.63,-1409.33"/>
<polygon fill="none" stroke="black" points="446.63,-1405.74 446.63,-1427.83 345.71,-1438.78 207.9,-1438.78 106.98,-1427.83 106.98,-1405.74 207.9,-1394.78 345.71,-1394.78 446.63,-1405.74"/>
<text text-anchor="middle" x="276.8" y="-1411.73" font-family="Times,serif" font-size="14.00">European Union Public License V. 1.2</text>
</g>
<!-- 41271&#45;&gt;41267 -->
<g id="edge51" class="edge">
<title>41271&#45;&gt;41267</title>
<path fill="none" stroke="#00876c" stroke-dasharray="5,2" d="M351.87,-1395.01C432.29,-1370.9 483.59,-1351.06 696.59,-1265.79"/>
<polygon fill="#00876c" stroke="#00876c" points="705.72,-1262.13 698.11,-1270.03 702.21,-1263.54 696.44,-1265.85 696.44,-1265.85 696.44,-1265.85 702.21,-1263.54 694.76,-1261.67 705.72,-1262.13"/>
</g>
<!-- 41271&#45;&gt;50498 -->
<g id="edge52" class="edge">
<title>41271&#45;&gt;50498</title>
<path fill="none" stroke="#b8bf62" stroke-width="2" d="M311.73,-1439.26C434.33,-1517.66 478.53,-1537.47 638.39,-1534.65"/>
<polygon fill="#b8bf62" stroke="#b8bf62" stroke-width="2" points="647.16,-1534.47 637.26,-1539.17 644.61,-1535.02 637.18,-1535.17 637.17,-1534.67 637.16,-1534.17 644.59,-1534.02 637.07,-1530.18 647.16,-1534.47"/>
</g>
<!-- 41272 -->
<g id="node32" class="node">
<title>41272</title>
<polygon fill="none" stroke="black" points="621.43,-1801.74 621.43,-1816.65 509.69,-1827.19 351.67,-1827.19 239.93,-1816.65 239.93,-1801.74 351.67,-1791.19 509.69,-1791.19 621.43,-1801.74"/>
<polygon fill="none" stroke="black" points="625.43,-1798.1 625.43,-1820.29 509.88,-1831.19 351.48,-1831.19 235.93,-1820.29 235.93,-1798.1 351.48,-1787.19 509.88,-1787.19 625.43,-1798.1"/>
<text text-anchor="middle" x="430.68" y="-1804.14" font-family="Times,serif" font-size="14.00">European Union Public License, Version 1.2</text>
</g>
<!-- 41272&#45;&gt;41267 -->
<g id="edge53" class="edge">
<title>41272&#45;&gt;41267</title>
<path fill="none" stroke="#00876c" stroke-dasharray="5,2" d="M438.89,-1786.86C500.29,-1620.31 511.55,-1601.75 741.06,-1270.51"/>
<polygon fill="#00876c" stroke="#00876c" points="746.53,-1262.63 744.53,-1273.41 744.37,-1265.74 740.83,-1270.85 740.83,-1270.85 740.83,-1270.85 744.37,-1265.74 737.13,-1268.28 746.53,-1262.63"/>
</g>
<!-- 41272&#45;&gt;50498 -->
<g id="edge54" class="edge">
<title>41272&#45;&gt;50498</title>
<path fill="none" stroke="#b8bf62" stroke-width="2" d="M488.88,-1786.71C585.28,-1748.03 620.69,-1721.09 823.93,-1554.22"/>
<polygon fill="#b8bf62" stroke="#b8bf62" stroke-width="2" points="830.59,-1548.74 825.72,-1558.57 828.93,-1550.76 823.18,-1555.48 822.87,-1555.09 822.55,-1554.7 828.3,-1549.98 820.01,-1551.61 830.59,-1548.74"/>
</g>
<!-- 41273 -->
<g id="node33" class="node">
<title>41273</title>
<polygon fill="none" stroke="black" points="498.5,-1590.33 498.5,-1605.24 404.61,-1615.78 271.83,-1615.78 177.93,-1605.24 177.93,-1590.33 271.83,-1579.78 404.61,-1579.78 498.5,-1590.33"/>
<polygon fill="none" stroke="black" points="502.5,-1586.75 502.5,-1608.82 404.83,-1619.78 271.6,-1619.78 173.93,-1608.82 173.93,-1586.75 271.6,-1575.78 404.83,-1575.78 502.5,-1586.75"/>
<text text-anchor="middle" x="338.22" y="-1592.73" font-family="Times,serif" font-size="14.00">European Union Public License v1.2</text>
</g>
<!-- 41273&#45;&gt;41267 -->
<g id="edge55" class="edge">
<title>41273&#45;&gt;41267</title>
<path fill="none" stroke="#00876c" stroke-dasharray="5,2" d="M361.41,-1575.46C455.87,-1484.67 477.76,-1466.52 726.03,-1268.54"/>
<polygon fill="#00876c" stroke="#00876c" points="733.62,-1262.49 728.61,-1272.24 730.66,-1264.84 725.8,-1268.72 725.8,-1268.72 725.8,-1268.72 730.66,-1264.84 723,-1265.2 733.62,-1262.49"/>
</g>
<!-- 41273&#45;&gt;50498 -->
<g id="edge56" class="edge">
<title>41273&#45;&gt;50498</title>
<path fill="none" stroke="#b8bf62" stroke-width="2" d="M436.18,-1616.73C529.65,-1630.76 583.64,-1617.37 782.67,-1550.72"/>
<polygon fill="#b8bf62" stroke="#b8bf62" stroke-width="2" points="790.88,-1547.97 782.83,-1555.41 788.61,-1549.26 781.56,-1551.62 781.4,-1551.15 781.24,-1550.67 788.29,-1548.31 779.97,-1546.88 790.88,-1547.97"/>
</g>
<!-- 41274 -->
<g id="node34" class="node">
<title>41274</title>
<polygon fill="none" stroke="black" points="803.28,-1749.56 803.28,-1764.47 705.82,-1775.02 567.99,-1775.02 470.53,-1764.47 470.53,-1749.56 567.99,-1739.02 705.82,-1739.02 803.28,-1749.56"/>
<polygon fill="none" stroke="black" points="807.28,-1745.97 807.28,-1768.06 706.04,-1779.02 567.77,-1779.02 466.53,-1768.06 466.53,-1745.97 567.77,-1735.02 706.04,-1735.02 807.28,-1745.97"/>
<text text-anchor="middle" x="636.91" y="-1751.97" font-family="Times,serif" font-size="14.00">European Union Public Licence V. 1.2</text>
</g>
<!-- 41274&#45;&gt;41267 -->
<g id="edge57" class="edge">
<title>41274&#45;&gt;41267</title>
<path fill="none" stroke="#00876c" stroke-dasharray="5,2" d="M636.05,-1734.96C630.36,-1583.37 635.26,-1565.15 750,-1271.74"/>
<polygon fill="#00876c" stroke="#00876c" points="753.5,-1262.77 754.05,-1273.72 752.13,-1266.29 749.86,-1272.09 749.86,-1272.09 749.86,-1272.09 752.13,-1266.29 745.67,-1270.45 753.5,-1262.77"/>
</g>
<!-- 41274&#45;&gt;50498 -->
<g id="edge58" class="edge">
<title>41274&#45;&gt;50498</title>
<path fill="none" stroke="#b8bf62" stroke-width="2" d="M665.87,-1734.75C714.92,-1696.36 733.27,-1675.92 834,-1555.59"/>
<polygon fill="#b8bf62" stroke="#b8bf62" stroke-width="2" points="839.51,-1549 836.55,-1559.56 838.25,-1551.29 833.48,-1556.99 833.09,-1556.67 832.71,-1556.35 837.48,-1550.65 829.64,-1553.78 839.51,-1549"/>
</g>
<!-- 41275 -->
<g id="node35" class="node">
<title>41275</title>
<polygon fill="none" stroke="black" points="1228.78,-1796.98 1228.78,-1811.89 1108.93,-1822.43 939.43,-1822.43 819.57,-1811.89 819.57,-1796.98 939.43,-1786.43 1108.93,-1786.43 1228.78,-1796.98"/>
<polygon fill="none" stroke="black" points="1232.78,-1793.32 1232.78,-1815.55 1109.1,-1826.43 939.25,-1826.43 815.57,-1815.55 815.57,-1793.32 939.25,-1782.43 1109.1,-1782.43 1232.78,-1793.32"/>
<text text-anchor="middle" x="1024.18" y="-1799.38" font-family="Times,serif" font-size="14.00">EUROPEAN UNION PUBLIC LICENSE v.1.2</text>
</g>
<!-- 41275&#45;&gt;41267 -->
<g id="edge59" class="edge">
<title>41275&#45;&gt;41267</title>
<path fill="none" stroke="#00876c" stroke-dasharray="5,2" d="M1000.64,-1782.35C849.75,-1640.28 841.81,-1619.64 769.59,-1272.55"/>
<polygon fill="#00876c" stroke="#00876c" points="767.57,-1262.85 774.02,-1271.72 768.34,-1266.55 769.61,-1272.64 769.61,-1272.64 769.61,-1272.64 768.34,-1266.55 765.2,-1273.55 767.57,-1262.85"/>
</g>
<!-- 41275&#45;&gt;50498 -->
<g id="edge60" class="edge">
<title>41275&#45;&gt;50498</title>
<path fill="none" stroke="#b8bf62" stroke-width="2" d="M995.9,-1781.99C930.32,-1728.94 920.49,-1708.49 870.69,-1557.82"/>
<polygon fill="#b8bf62" stroke="#b8bf62" stroke-width="2" points="867.95,-1549.53 875.36,-1557.62 869.23,-1551.81 871.56,-1558.87 871.09,-1559.03 870.61,-1559.19 868.28,-1552.13 866.81,-1560.44 867.95,-1549.53"/>
</g>
<!-- 41276&#45;&gt;41267 -->
<g id="edge61" class="edge">
<title>41276&#45;&gt;41267</title>
<path fill="none" stroke="#00876c" stroke-dasharray="5,2" d="M863.35,-1000.45C777.32,-1107.09 767.71,-1124.47 763.94,-1206.06"/>
<polygon fill="#00876c" stroke="#00876c" points="763.53,-1215.68 759.46,-1205.5 763.69,-1211.9 763.96,-1205.69 763.96,-1205.69 763.96,-1205.69 763.69,-1211.9 768.45,-1205.88 763.53,-1215.68"/>
</g>
<!-- 50497 -->
<g id="node37" class="node">
<title>50497</title>
<ellipse fill="none" stroke="#b8bf62" cx="185.85" cy="-1750.15" rx="156.62" ry="28.99"/>
<text text-anchor="middle" x="185.85" y="-1753.35" font-family="Times,serif" font-size="14.00" fill="gray">FossLicense</text>
<text text-anchor="middle" x="185.85" y="-1736.85" font-family="Times,serif" font-size="14.00" fill="gray">5df725ac72245c17276303b9fbfe409c</text>
</g>
<!-- 50497&#45;&gt;50498 -->
<g id="edge62" class="edge">
<title>50497&#45;&gt;50498</title>
<path fill="none" stroke="#b8bf62" d="M333.76,-1740.41C445.86,-1726.51 526.07,-1689.37 804.51,-1552.04"/>
<polygon fill="#b8bf62" stroke="#b8bf62" points="805.73,-1555.35 813.14,-1547.78 802.63,-1549.07 805.73,-1555.35"/>
</g>
<!-- 50499 -->
<g id="node39" class="node">
<title>50499</title>
<polygon fill="none" stroke="#b8bf62" points="956.02,-2060.17 956.02,-2075.09 903.34,-2085.63 828.84,-2085.63 776.16,-2075.09 776.16,-2060.17 828.84,-2049.63 903.34,-2049.63 956.02,-2060.17"/>
<polygon fill="none" stroke="#b8bf62" points="960.02,-2056.9 960.02,-2078.36 903.74,-2089.63 828.44,-2089.63 772.16,-2078.36 772.16,-2056.9 828.44,-2045.63 903.74,-2045.63 960.02,-2056.9"/>
<text text-anchor="middle" x="866.09" y="-2062.58" font-family="Times,serif" font-size="14.00">scancode://eupl&#45;1.2</text>
</g>
<!-- 50499&#45;&gt;50498 -->
<g id="edge63" class="edge">
<title>50499&#45;&gt;50498</title>
<path fill="none" stroke="#b8bf62" stroke-width="2" d="M861.49,-2045.56C832.11,-1903.85 832.35,-1883.95 857.26,-1557.85"/>
<polygon fill="#b8bf62" stroke="#b8bf62" stroke-width="2" points="857.89,-1549.54 861.62,-1559.86 858.2,-1552.14 857.63,-1559.55 857.13,-1559.51 856.63,-1559.48 857.2,-1552.06 852.65,-1559.17 857.89,-1549.54"/>
</g>
<!-- 50500 -->
<g id="node40" class="node">
<title>50500</title>
<polygon fill="none" stroke="#b8bf62" points="1152.27,-2018.96 1152.27,-2033.87 1102.83,-2044.41 1032.92,-2044.41 983.49,-2033.87 983.49,-2018.96 1032.92,-2008.41 1102.83,-2008.41 1152.27,-2018.96"/>
<polygon fill="none" stroke="#b8bf62" points="1156.27,-2015.72 1156.27,-2037.11 1103.25,-2048.41 1032.5,-2048.41 979.49,-2037.11 979.49,-2015.72 1032.5,-2004.41 1103.25,-2004.41 1156.27,-2015.72"/>
<text text-anchor="middle" x="1067.88" y="-2021.36" font-family="Times,serif" font-size="14.00">scancode:eupl&#45;1.2</text>
</g>
<!-- 50500&#45;&gt;50498 -->
<g id="edge64" class="edge">
<title>50500&#45;&gt;50498</title>
<path fill="none" stroke="#b8bf62" stroke-width="2" d="M1048.76,-2004.02C948.08,-1885.56 940.61,-1864.32 867.61,-1557.63"/>
<polygon fill="#b8bf62" stroke="#b8bf62" stroke-width="2" points="865.66,-1549.44 872.35,-1558.13 866.74,-1551.82 868.46,-1559.05 867.97,-1559.17 867.49,-1559.28 865.77,-1552.05 863.6,-1560.21 865.66,-1549.44"/>
</g>
<!-- 50501 -->
<g id="node41" class="node">
<title>50501</title>
<polygon fill="none" stroke="#b8bf62" points="746.98,-1997.86 746.98,-2012.77 707.61,-2023.31 651.93,-2023.31 612.55,-2012.77 612.55,-1997.86 651.93,-1987.31 707.61,-1987.31 746.98,-1997.86"/>
<polygon fill="none" stroke="#b8bf62" points="750.98,-1994.79 750.98,-2015.84 708.14,-2027.31 651.4,-2027.31 608.55,-2015.84 608.55,-1994.79 651.4,-1983.31 708.14,-1983.31 750.98,-1994.79"/>
<text text-anchor="middle" x="679.77" y="-2000.26" font-family="Times,serif" font-size="14.00">osi:EUPL&#45;1.2</text>
</g>
<!-- 50501&#45;&gt;50498 -->
<g id="edge65" class="edge">
<title>50501&#45;&gt;50498</title>
<path fill="none" stroke="#b8bf62" stroke-width="2" d="M687.1,-1982.87C726.63,-1862.11 734.27,-1842.05 846.97,-1557.18"/>
<polygon fill="#b8bf62" stroke="#b8bf62" stroke-width="2" points="850.12,-1549.2 850.63,-1560.15 849.64,-1551.76 846.91,-1558.68 846.44,-1558.49 845.98,-1558.31 848.71,-1551.39 842.26,-1556.84 850.12,-1549.2"/>
</g>
</g>
</svg>
