<?xml version="1.0" encoding="UTF-8" standalone="no"?>
<!DOCTYPE svg PUBLIC "-//W3C//DTD SVG 1.1//EN"
 "http://www.w3.org/Graphics/SVG/1.1/DTD/svg11.dtd">
<!-- Generated by graphviz version 10.0.1 (0)
 -->
<!-- Pages: 1 -->
<svg width="1835pt" height="1782pt"
 viewBox="0.00 0.00 1835.00 1782.00" xmlns="http://www.w3.org/2000/svg" xmlns:xlink="http://www.w3.org/1999/xlink">
<g id="graph0" class="graph" transform="scale(1 1) rotate(0) translate(4 1778)">
<polygon fill="white" stroke="none" points="-4,4 -4,-1778 1831,-1778 1831,4 -4,4"/>
<!-- 1716 -->
<g id="node1" class="node">
<title>1716</title>
<ellipse fill="none" stroke="#b8bf62" cx="218.25" cy="-772.52" rx="153.97" ry="28.99"/>
<text text-anchor="middle" x="218.25" y="-775.72" font-family="Times,serif" font-size="14.00" fill="gray">SPDXLicense</text>
<text text-anchor="middle" x="218.25" y="-759.22" font-family="Times,serif" font-size="14.00" fill="gray">ed718f1ffb70bc74bddde958f0b60f4c</text>
</g>
<!-- 1717 -->
<g id="node2" class="node">
<title>1717</title>
<polygon fill="none" stroke="black" points="732.85,-848.02 732.85,-862.93 676.6,-873.47 597.05,-873.47 540.8,-862.93 540.8,-848.02 597.05,-837.47 676.6,-837.47 732.85,-848.02"/>
<polygon fill="none" stroke="black" points="736.85,-844.7 736.85,-866.25 676.97,-877.47 596.68,-877.47 536.8,-866.25 536.8,-844.7 596.68,-833.47 676.97,-833.47 736.85,-844.7"/>
<text text-anchor="middle" x="636.83" y="-850.42" font-family="Times,serif" font-size="14.00">spdx:Frameworx&#45;1.0</text>
</g>
<!-- 1716&#45;&gt;1717 -->
<g id="edge1" class="edge">
<title>1716&#45;&gt;1717</title>
<path fill="none" stroke="#b8bf62" d="M317.96,-794.99C366.16,-805.26 419.17,-815.28 545.18,-838.56"/>
<polygon fill="#b8bf62" stroke="#b8bf62" points="544.43,-841.98 554.9,-840.36 545.7,-835.1 544.43,-841.98"/>
</g>
<!-- 5034 -->
<g id="node6" class="node">
<title>5034</title>
<polygon fill="none" stroke="black" points="672.74,-1051.89 672.74,-1066.8 620.71,-1077.34 547.13,-1077.34 495.1,-1066.8 495.1,-1051.89 547.13,-1041.34 620.71,-1041.34 672.74,-1051.89"/>
<polygon fill="none" stroke="black" points="676.74,-1048.62 676.74,-1070.07 621.11,-1081.34 546.73,-1081.34 491.1,-1070.07 491.1,-1048.62 546.73,-1037.34 621.11,-1037.34 676.74,-1048.62"/>
<polygon fill="none" stroke="black" points="680.74,-1045.35 680.74,-1073.34 621.52,-1085.34 546.33,-1085.34 487.1,-1073.34 487.1,-1045.35 546.33,-1033.34 621.52,-1033.34 680.74,-1045.35"/>
<text text-anchor="middle" x="583.92" y="-1054.29" font-family="Times,serif" font-size="14.00">osi:Frameworx&#45;1.0</text>
</g>
<!-- 1717&#45;&gt;5034 -->
<g id="edge2" class="edge">
<title>1717&#45;&gt;5034</title>
<path fill="none" stroke="#78ab63" stroke-width="2" d="M623.23,-877.97C578.5,-952.33 571.63,-969.16 578.35,-1021.96"/>
<polygon fill="#78ab63" stroke="#78ab63" stroke-width="2" points="579.54,-1030.62 573.72,-1021.32 578.7,-1028.15 577.68,-1020.78 578.18,-1020.71 578.67,-1020.64 579.69,-1028.01 582.64,-1020.1 579.54,-1030.62"/>
</g>
<!-- 6380 -->
<g id="node9" class="node">
<title>6380</title>
<polygon fill="none" stroke="#e09d4b" points="942.32,-460.32 942.32,-475.24 880.88,-485.78 793.98,-485.78 732.54,-475.24 732.54,-460.32 793.98,-449.78 880.88,-449.78 942.32,-460.32"/>
<polygon fill="none" stroke="#e09d4b" points="946.32,-456.95 946.32,-478.61 881.22,-489.78 793.64,-489.78 728.54,-478.61 728.54,-456.95 793.64,-445.78 881.22,-445.78 946.32,-456.95"/>
<text text-anchor="middle" x="837.43" y="-462.73" font-family="Times,serif" font-size="14.00">Fedora:Frameworx&#45;1.0</text>
</g>
<!-- 1717&#45;&gt;6380 -->
<g id="edge3" class="edge">
<title>1717&#45;&gt;6380</title>
<path fill="none" stroke="#e09d4b" stroke-width="2" d="M640.8,-833.06C679.73,-613.75 686.78,-591.64 801.44,-497.13"/>
<polygon fill="#e09d4b" stroke="#e09d4b" stroke-width="2" points="808,-491.75 803.12,-501.57 806.33,-493.76 800.59,-498.48 800.27,-498.09 799.95,-497.71 805.7,-492.99 797.41,-494.62 808,-491.75"/>
</g>
<!-- 42024 -->
<g id="node23" class="node">
<title>42024</title>
<polygon fill="none" stroke="#00876c" points="1099.63,-1279.01 1099.63,-1293.92 1009.63,-1304.46 882.36,-1304.46 792.36,-1293.92 792.36,-1279.01 882.36,-1268.46 1009.63,-1268.46 1099.63,-1279.01"/>
<polygon fill="none" stroke="#00876c" points="1103.63,-1275.45 1103.63,-1297.48 1009.87,-1308.46 882.12,-1308.46 788.36,-1297.48 788.36,-1275.45 882.12,-1264.46 1009.87,-1264.46 1103.63,-1275.45"/>
<text text-anchor="middle" x="945.99" y="-1281.41" font-family="Times,serif" font-size="14.00">metaeffekt:Frameworx License 1.0</text>
</g>
<!-- 1717&#45;&gt;42024 -->
<g id="edge4" class="edge">
<title>1717&#45;&gt;42024</title>
<path fill="none" stroke="#00876c" stroke-width="2" d="M643.82,-877.62C725.64,-1136.52 736.66,-1160.18 899.13,-1258.41"/>
<polygon fill="#00876c" stroke="#00876c" stroke-width="2" points="906.42,-1262.8 895.53,-1261.49 903.97,-1261.91 897.6,-1258.07 897.86,-1257.64 898.11,-1257.21 904.48,-1261.05 900.18,-1253.78 906.42,-1262.8"/>
</g>
<!-- 1718 -->
<g id="node3" class="node">
<title>1718</title>
<polygon fill="none" stroke="black" points="930.93,-786.97 930.93,-801.88 887.34,-812.42 825.69,-812.42 782.1,-801.88 782.1,-786.97 825.69,-776.42 887.34,-776.42 930.93,-786.97"/>
<polygon fill="none" stroke="black" points="934.93,-783.82 934.93,-805.03 887.81,-816.42 825.21,-816.42 778.1,-805.03 778.1,-783.82 825.21,-772.42 887.81,-772.42 934.93,-783.82"/>
<text text-anchor="middle" x="856.51" y="-789.37" font-family="Times,serif" font-size="14.00">Frameworx&#45;1.0</text>
</g>
<!-- 1718&#45;&gt;1717 -->
<g id="edge5" class="edge">
<title>1718&#45;&gt;1717</title>
<path fill="none" stroke="black" stroke-width="2" d="M777.69,-802.36C726.61,-808.21 704.53,-813.61 679.93,-827.32"/>
<polygon fill="black" stroke="black" stroke-width="2" points="672.42,-831.76 678.74,-822.8 674.37,-830.02 680.77,-826.24 681.03,-826.67 681.28,-827.1 674.88,-830.88 683.32,-830.55 672.42,-831.76"/>
</g>
<!-- 1718&#45;&gt;5034 -->
<g id="edge6" class="edge">
<title>1718&#45;&gt;5034</title>
<path fill="none" stroke="black" stroke-width="2" d="M824.89,-816.61C667.4,-927.25 645.86,-945.22 603.25,-1023.12"/>
<polygon fill="black" stroke="black" stroke-width="2" points="599.1,-1030.79 599.91,-1019.85 599.88,-1028.3 603.43,-1021.76 603.87,-1021.99 604.3,-1022.23 600.76,-1028.77 607.82,-1024.14 599.1,-1030.79"/>
</g>
<!-- 1718&#45;&gt;6380 -->
<g id="edge7" class="edge">
<title>1718&#45;&gt;6380</title>
<path fill="none" stroke="#e09d4b" stroke-width="2" d="M853.94,-771.96C833.49,-593.57 831.06,-568.42 835.23,-500.63"/>
<polygon fill="#e09d4b" stroke="#e09d4b" stroke-width="2" points="835.77,-492.26 839.62,-502.52 836.1,-494.85 835.63,-502.27 835.13,-502.24 834.63,-502.2 835.11,-494.78 830.64,-501.95 835.77,-492.26"/>
</g>
<!-- 15507 -->
<g id="node12" class="node">
<title>15507</title>
<polygon fill="none" stroke="black" points="1376.06,-909.71 1376.06,-924.62 1310.73,-935.16 1218.33,-935.16 1153,-924.62 1153,-909.71 1218.33,-899.16 1310.73,-899.16 1376.06,-909.71"/>
<polygon fill="none" stroke="black" points="1380.06,-906.3 1380.06,-928.03 1311.05,-939.16 1218.01,-939.16 1149,-928.03 1149,-906.3 1218.01,-895.16 1311.05,-895.16 1380.06,-906.3"/>
<text text-anchor="middle" x="1264.53" y="-912.11" font-family="Times,serif" font-size="14.00">scancode:frameworx&#45;1.0</text>
</g>
<!-- 1718&#45;&gt;15507 -->
<g id="edge8" class="edge">
<title>1718&#45;&gt;15507</title>
<path fill="none" stroke="black" stroke-width="2" d="M932.52,-806.03C1112.99,-833.9 1147.83,-843.1 1220.95,-888.97"/>
<polygon fill="black" stroke="black" stroke-width="2" points="1228.01,-893.44 1217.15,-891.89 1225.58,-892.49 1219.3,-888.51 1219.56,-888.09 1219.83,-887.67 1226.11,-891.65 1221.97,-884.29 1228.01,-893.44"/>
</g>
<!-- 26049 -->
<g id="node16" class="node">
<title>26049</title>
<polygon fill="none" stroke="#e18745" points="885.93,-1153.08 885.93,-1167.99 817.99,-1178.54 721.92,-1178.54 653.99,-1167.99 653.99,-1153.08 721.92,-1142.54 817.99,-1142.54 885.93,-1153.08"/>
<polygon fill="none" stroke="#e18745" points="889.93,-1149.65 889.93,-1171.42 818.3,-1182.54 721.62,-1182.54 649.99,-1171.42 649.99,-1149.65 721.62,-1138.54 818.3,-1138.54 889.93,-1149.65"/>
<text text-anchor="middle" x="769.96" y="-1155.49" font-family="Times,serif" font-size="14.00">fossology:Frameworx&#45;1.0</text>
</g>
<!-- 1718&#45;&gt;26049 -->
<g id="edge9" class="edge">
<title>1718&#45;&gt;26049</title>
<path fill="none" stroke="#e18745" stroke-width="2" d="M846.96,-816.92C765.86,-1008.08 758.52,-1029.64 766.89,-1127.22"/>
<polygon fill="#e18745" stroke="#e18745" stroke-width="2" points="767.65,-1135.77 762.28,-1126.21 766.93,-1133.26 766.27,-1125.85 766.77,-1125.81 767.26,-1125.77 767.92,-1133.17 771.25,-1125.41 767.65,-1135.77"/>
</g>
<!-- 36797 -->
<g id="node21" class="node">
<title>36797</title>
<polygon fill="none" stroke="#379469" points="716.25,-475.5 716.25,-490.42 659.67,-500.96 579.67,-500.96 523.09,-490.42 523.09,-475.5 579.67,-464.96 659.67,-464.96 716.25,-475.5"/>
<polygon fill="none" stroke="#379469" points="720.25,-472.18 720.25,-493.74 660.04,-504.96 579.3,-504.96 519.09,-493.74 519.09,-472.18 579.3,-460.96 660.04,-460.96 720.25,-472.18"/>
<text text-anchor="middle" x="619.67" y="-477.91" font-family="Times,serif" font-size="14.00">cavil:Frameworx&#45;1.0</text>
</g>
<!-- 1718&#45;&gt;36797 -->
<g id="edge10" class="edge">
<title>1718&#45;&gt;36797</title>
<path fill="none" stroke="#379469" stroke-width="2" d="M839.86,-772.06C712.08,-600.48 693.49,-575.69 644.39,-513.96"/>
<polygon fill="#379469" stroke="#379469" stroke-width="2" points="639.1,-507.32 648.85,-512.34 641.08,-509.01 645.72,-514.83 645.32,-515.14 644.93,-515.45 640.3,-509.63 641.8,-517.94 639.1,-507.32"/>
</g>
<!-- 1719 -->
<g id="node4" class="node">
<title>1719</title>
<polygon fill="none" stroke="black" points="591.98,-1205.54 591.98,-1220.45 514.64,-1231 405.26,-1231 327.92,-1220.45 327.92,-1205.54 405.26,-1195 514.64,-1195 591.98,-1205.54"/>
<polygon fill="none" stroke="black" points="595.98,-1202.05 595.98,-1223.94 514.91,-1235 404.99,-1235 323.92,-1223.94 323.92,-1202.05 404.99,-1191 514.91,-1191 595.98,-1202.05"/>
<text text-anchor="middle" x="459.95" y="-1207.95" font-family="Times,serif" font-size="14.00">Frameworx Open License 1.0</text>
</g>
<!-- 1719&#45;&gt;1717 -->
<g id="edge11" class="edge">
<title>1719&#45;&gt;1717</title>
<path fill="none" stroke="#b8bf62" stroke-width="2" d="M462.14,-1190.63C474.15,-1070.48 482.06,-1054.57 612.73,-886.44"/>
<polygon fill="#b8bf62" stroke="#b8bf62" stroke-width="2" points="617.96,-879.71 615.37,-890.37 616.78,-882.04 612.22,-887.92 611.82,-887.61 611.43,-887.3 615.99,-881.43 608.27,-884.85 617.96,-879.71"/>
</g>
<!-- 1719&#45;&gt;26049 -->
<g id="edge12" class="edge">
<title>1719&#45;&gt;26049</title>
<path fill="none" stroke="#e18745" stroke-width="2" d="M596.31,-1217.3C622.11,-1211.56 653.86,-1201.31 700.53,-1185.05"/>
<polygon fill="#e18745" stroke="#e18745" stroke-width="2" points="708.75,-1182.18 700.8,-1189.73 706.5,-1183.5 699.48,-1185.95 699.31,-1185.48 699.15,-1185.01 706.17,-1182.55 697.83,-1181.23 708.75,-1182.18"/>
</g>
<!-- 5033 -->
<g id="node5" class="node">
<title>5033</title>
<ellipse fill="none" stroke="#78ab63" cx="158.18" cy="-1164.32" rx="157.68" ry="28.99"/>
<text text-anchor="middle" x="158.18" y="-1167.52" font-family="Times,serif" font-size="14.00" fill="gray">OSILicense</text>
<text text-anchor="middle" x="158.18" y="-1151.02" font-family="Times,serif" font-size="14.00" fill="gray">e9975f9191574c7e5859f764e1a6d3cd</text>
</g>
<!-- 5033&#45;&gt;5034 -->
<g id="edge13" class="edge">
<title>5033&#45;&gt;5034</title>
<path fill="none" stroke="#78ab63" d="M276.62,-1144.79C324.63,-1134.53 381.29,-1118.56 504.14,-1082.69"/>
<polygon fill="#78ab63" stroke="#78ab63" points="504.99,-1086.09 513.6,-1079.92 503.02,-1079.37 504.99,-1086.09"/>
</g>
<!-- 5034&#45;&gt;42024 -->
<g id="edge14" class="edge">
<title>5034&#45;&gt;42024</title>
<path fill="none" stroke="#00876c" stroke-dasharray="5,2" d="M603.7,-1085.76C699.67,-1213.67 726.68,-1242.34 835.01,-1266.05"/>
<polygon fill="#00876c" stroke="#00876c" points="844.56,-1268.08 833.84,-1270.41 840.86,-1267.3 834.78,-1266 834.78,-1266 834.78,-1266 840.86,-1267.3 835.71,-1261.6 844.56,-1268.08"/>
</g>
<!-- 5035 -->
<g id="node7" class="node">
<title>5035</title>
<polygon fill="none" stroke="black" points="637.9,-1107.98 637.9,-1122.89 554.07,-1133.44 435.51,-1133.44 351.68,-1122.89 351.68,-1107.98 435.51,-1097.44 554.07,-1097.44 637.9,-1107.98"/>
<polygon fill="none" stroke="black" points="641.9,-1104.45 641.9,-1126.42 554.32,-1137.44 435.26,-1137.44 347.68,-1126.42 347.68,-1104.45 435.26,-1093.44 554.32,-1093.44 641.9,-1104.45"/>
<text text-anchor="middle" x="494.79" y="-1110.39" font-family="Times,serif" font-size="14.00">Frameworx License, Version 1.0</text>
</g>
<!-- 5035&#45;&gt;5034 -->
<g id="edge15" class="edge">
<title>5035&#45;&gt;5034</title>
<path fill="none" stroke="#78ab63" stroke-width="2" d="M528.41,-1092.98C529.71,-1092.17 531.07,-1091.33 532.52,-1090.44"/>
<polygon fill="#78ab63" stroke="#78ab63" stroke-width="2" points="539.67,-1086.06 533.49,-1095.12 537.74,-1087.82 531.4,-1091.71 531.14,-1091.28 530.88,-1090.85 537.22,-1086.97 528.79,-1087.44 539.67,-1086.06"/>
</g>
<!-- 5035&#45;&gt;42024 -->
<g id="edge16" class="edge">
<title>5035&#45;&gt;42024</title>
<path fill="none" stroke="#00876c" stroke-dasharray="5,2" d="M518.3,-1137.94C628.4,-1243.04 665.29,-1272.15 777.04,-1281.41"/>
<polygon fill="#00876c" stroke="#00876c" points="786.88,-1282.16 776.57,-1285.89 783.11,-1281.87 776.91,-1281.4 776.91,-1281.4 776.91,-1281.4 783.11,-1281.87 777.25,-1276.92 786.88,-1282.16"/>
</g>
<!-- 6379 -->
<g id="node8" class="node">
<title>6379</title>
<ellipse fill="none" stroke="#e09d4b" cx="828.11" cy="-29.24" rx="157.15" ry="28.99"/>
<text text-anchor="middle" x="828.11" y="-32.44" font-family="Times,serif" font-size="14.00" fill="gray">FedoraEntry</text>
<text text-anchor="middle" x="828.11" y="-15.94" font-family="Times,serif" font-size="14.00" fill="gray">389e121069eb548f87227ef382cf5d25</text>
</g>
<!-- 6379&#45;&gt;6380 -->
<g id="edge17" class="edge">
<title>6379&#45;&gt;6380</title>
<path fill="none" stroke="#e09d4b" d="M826.71,-58.69C822.06,-159.13 822.93,-184.01 835.72,-434.32"/>
<polygon fill="#e09d4b" stroke="#e09d4b" points="832.21,-434.31 836.22,-444.12 839.2,-433.96 832.21,-434.31"/>
</g>
<!-- 6381 -->
<g id="node10" class="node">
<title>6381</title>
<polygon fill="none" stroke="#e09d4b" points="1099.79,-150.97 1099.79,-165.88 1045.81,-176.42 969.47,-176.42 915.5,-165.88 915.5,-150.97 969.47,-140.42 1045.81,-140.42 1099.79,-150.97"/>
<text text-anchor="middle" x="1007.64" y="-153.37" font-family="Times,serif" font-size="14.00">Frameworx License</text>
</g>
<!-- 6381&#45;&gt;6380 -->
<g id="edge18" class="edge">
<title>6381&#45;&gt;6380</title>
<path fill="none" stroke="#e09d4b" stroke-dasharray="5,2" d="M989.41,-176.74C926.77,-240.18 917.78,-258.16 849.9,-435.22"/>
<polygon fill="#e09d4b" stroke="#e09d4b" points="846.42,-444.3 845.79,-433.35 847.77,-440.77 850,-434.96 850,-434.96 850,-434.96 847.77,-440.77 854.2,-436.57 846.42,-444.3"/>
</g>
<!-- 15506 -->
<g id="node11" class="node">
<title>15506</title>
<ellipse fill="none" stroke="#dac767" cx="1638.98" cy="-686.99" rx="155.56" ry="28.99"/>
<text text-anchor="middle" x="1638.98" y="-690.19" font-family="Times,serif" font-size="14.00" fill="gray">ScancodeData</text>
<text text-anchor="middle" x="1638.98" y="-673.69" font-family="Times,serif" font-size="14.00" fill="gray">7929e5449d913bf9e922fc7c82fee5de</text>
</g>
<!-- 15506&#45;&gt;15507 -->
<g id="edge19" class="edge">
<title>15506&#45;&gt;15507</title>
<path fill="none" stroke="#dac767" d="M1610.13,-715.96C1541.83,-783.59 1514.39,-799.48 1322,-890.13"/>
<polygon fill="#dac767" stroke="#dac767" points="1320.74,-886.86 1313.19,-894.29 1323.72,-893.19 1320.74,-886.86"/>
</g>
<!-- 15507&#45;&gt;42024 -->
<g id="edge20" class="edge">
<title>15507&#45;&gt;42024</title>
<path fill="none" stroke="#00876c" stroke-dasharray="5,2" d="M1256.35,-939.49C1177.87,-1153.29 1165.38,-1175.41 1000.31,-1259.21"/>
<polygon fill="#00876c" stroke="#00876c" points="991.87,-1263.48 998.77,-1254.95 995.25,-1261.78 1000.8,-1258.97 1000.8,-1258.97 1000.8,-1258.97 995.25,-1261.78 1002.83,-1262.98 991.87,-1263.48"/>
</g>
<!-- 15508 -->
<g id="node13" class="node">
<title>15508</title>
<polygon fill="none" stroke="black" points="1393.29,-1202.85 1393.29,-1217.76 1350.02,-1228.31 1288.83,-1228.31 1245.57,-1217.76 1245.57,-1202.85 1288.83,-1192.31 1350.02,-1192.31 1393.29,-1202.85"/>
<polygon fill="none" stroke="black" points="1397.29,-1199.71 1397.29,-1220.9 1350.5,-1232.31 1288.35,-1232.31 1241.57,-1220.9 1241.57,-1199.71 1288.35,-1188.31 1350.5,-1188.31 1397.29,-1199.71"/>
<text text-anchor="middle" x="1319.43" y="-1205.26" font-family="Times,serif" font-size="14.00">Frameworx 1.0</text>
</g>
<!-- 15508&#45;&gt;15507 -->
<g id="edge21" class="edge">
<title>15508&#45;&gt;15507</title>
<path fill="none" stroke="#dac767" stroke-width="2" d="M1324.29,-1187.97C1344.14,-1095.42 1341.27,-1079.71 1279.9,-949.62"/>
<polygon fill="#dac767" stroke="#dac767" stroke-width="2" points="1276.22,-941.84 1284.57,-948.96 1277.77,-943.95 1280.95,-950.67 1280.5,-950.88 1280.04,-951.1 1276.87,-944.37 1276.43,-952.81 1276.22,-941.84"/>
</g>
<!-- 15508&#45;&gt;42024 -->
<g id="edge22" class="edge">
<title>15508&#45;&gt;42024</title>
<path fill="none" stroke="#00876c" stroke-dasharray="5,2" d="M1287.82,-1232.39C1206.65,-1288.62 1174.07,-1304.89 1091.89,-1301.22"/>
<polygon fill="#00876c" stroke="#00876c" points="1082,-1300.69 1092.23,-1296.73 1085.78,-1300.89 1091.99,-1301.22 1091.99,-1301.22 1091.99,-1301.22 1085.78,-1300.89 1091.75,-1305.72 1082,-1300.69"/>
</g>
<!-- 15509 -->
<g id="node14" class="node">
<title>15509</title>
<polygon fill="none" stroke="#dac767" points="1823.11,-908.63 1823.11,-923.54 1742.84,-934.08 1629.34,-934.08 1549.07,-923.54 1549.07,-908.63 1629.34,-898.08 1742.84,-898.08 1823.11,-908.63"/>
<polygon fill="none" stroke="#dac767" points="1827.11,-905.12 1827.11,-927.05 1743.11,-938.08 1629.07,-938.08 1545.07,-927.05 1545.07,-905.12 1629.07,-894.08 1743.11,-894.08 1827.11,-905.12"/>
<text text-anchor="middle" x="1686.09" y="-911.03" font-family="Times,serif" font-size="14.00">Frameworx Open License v1.0</text>
</g>
<!-- 15509&#45;&gt;15507 -->
<g id="edge23" class="edge">
<title>15509&#45;&gt;15507</title>
<path fill="none" stroke="#dac767" stroke-width="2" d="M1544.84,-919.93C1509.02,-920.09 1463.91,-919.7 1391.3,-918.81"/>
<polygon fill="#dac767" stroke="#dac767" stroke-width="2" points="1382.83,-918.7 1392.88,-914.33 1385.4,-918.23 1392.83,-918.33 1392.83,-918.83 1392.82,-919.33 1385.39,-919.23 1392.77,-923.33 1382.83,-918.7"/>
</g>
<!-- 26048 -->
<g id="node15" class="node">
<title>26048</title>
<ellipse fill="none" stroke="#e18745" cx="497.84" cy="-1523.53" rx="158.75" ry="28.99"/>
<text text-anchor="middle" x="497.84" y="-1526.73" font-family="Times,serif" font-size="14.00" fill="gray">Fossology</text>
<text text-anchor="middle" x="497.84" y="-1510.23" font-family="Times,serif" font-size="14.00" fill="gray">a7c0e49b4920f241bb40ab7ca40be894</text>
</g>
<!-- 26048&#45;&gt;26049 -->
<g id="edge24" class="edge">
<title>26048&#45;&gt;26049</title>
<path fill="none" stroke="#e18745" d="M522.36,-1494.62C585.17,-1420.36 603.34,-1395.41 747.5,-1192.2"/>
<polygon fill="#e18745" stroke="#e18745" points="750.21,-1194.43 753.14,-1184.25 744.5,-1190.38 750.21,-1194.43"/>
</g>
<!-- 28299 -->
<g id="node17" class="node">
<title>28299</title>
<ellipse fill="none" stroke="#379469" cx="889.77" cy="-735.17" rx="151.85" ry="28.99"/>
<text text-anchor="middle" x="889.77" y="-738.37" font-family="Times,serif" font-size="14.00" fill="gray">OKFN</text>
<text text-anchor="middle" x="889.77" y="-721.87" font-family="Times,serif" font-size="14.00" fill="gray">92a6c31706ef6ffe7a203f54cfab7e5b</text>
</g>
<!-- 28299&#45;&gt;1718 -->
<g id="edge25" class="edge">
<title>28299&#45;&gt;1718</title>
<path fill="none" stroke="#379469" d="M865.87,-764.2C865.81,-764.35 865.76,-764.5 865.7,-764.65"/>
<polygon fill="#379469" stroke="#379469" points="863.5,-760.24 863.6,-770.84 870.13,-762.49 863.5,-760.24"/>
</g>
<!-- 28300 -->
<g id="node18" class="node">
<title>28300</title>
<polygon fill="none" stroke="black" points="1170.89,-961.77 1170.89,-976.68 1107.83,-987.22 1018.64,-987.22 955.58,-976.68 955.58,-961.77 1018.64,-951.22 1107.83,-951.22 1170.89,-961.77"/>
<polygon fill="none" stroke="black" points="1174.89,-958.38 1174.89,-980.07 1108.16,-991.22 1018.31,-991.22 951.58,-980.07 951.58,-958.38 1018.31,-947.22 1108.16,-947.22 1174.89,-958.38"/>
<text text-anchor="middle" x="1063.23" y="-964.17" font-family="Times,serif" font-size="14.00">Frameworx License 1.0</text>
</g>
<!-- 28300&#45;&gt;1718 -->
<g id="edge26" class="edge">
<title>28300&#45;&gt;1718</title>
<path fill="none" stroke="#379469" stroke-width="2" d="M1051.42,-947.1C1017.53,-884.46 1003.79,-871.55 905.79,-820.05"/>
<polygon fill="#379469" stroke="#379469" stroke-width="2" points="898.2,-816.07 909.14,-816.73 900.7,-816.82 907.29,-820.27 907.06,-820.71 906.82,-821.16 900.24,-817.71 904.97,-824.7 898.2,-816.07"/>
</g>
<!-- 28300&#45;&gt;42024 -->
<g id="edge27" class="edge">
<title>28300&#45;&gt;42024</title>
<path fill="none" stroke="#00876c" stroke-width="2" d="M1059.75,-991.51C1032.31,-1166.56 1026.8,-1190.63 972.2,-1255.88"/>
<polygon fill="#00876c" stroke="#00876c" stroke-width="2" points="966.87,-1262.2 969.88,-1251.65 968.14,-1259.92 972.94,-1254.24 973.32,-1254.56 973.7,-1254.88 968.9,-1260.56 976.76,-1257.46 966.87,-1262.2"/>
</g>
<!-- 28687 -->
<g id="node19" class="node">
<title>28687</title>
<ellipse fill="none" stroke="#e06f45" cx="299.9" cy="-583.75" rx="160.87" ry="28.99"/>
<text text-anchor="middle" x="299.9" y="-586.95" font-family="Times,serif" font-size="14.00" fill="gray">OrtLicenseCategorization</text>
<text text-anchor="middle" x="299.9" y="-570.45" font-family="Times,serif" font-size="14.00" fill="gray">c0921637058f84230c76498d4d24637e</text>
</g>
<!-- 28687&#45;&gt;1717 -->
<g id="edge28" class="edge">
<title>28687&#45;&gt;1717</title>
<path fill="none" stroke="#e06f45" d="M324.19,-612.88C385.44,-685.56 409.38,-703.68 593.83,-826.8"/>
<polygon fill="#e06f45" stroke="#e06f45" points="591.79,-829.64 602.05,-832.28 595.67,-823.82 591.79,-829.64"/>
</g>
<!-- 36796 -->
<g id="node20" class="node">
<title>36796</title>
<ellipse fill="none" stroke="#379469" cx="400.33" cy="-112.85" rx="160.87" ry="28.99"/>
<text text-anchor="middle" x="400.33" y="-116.05" font-family="Times,serif" font-size="14.00" fill="gray">CavilLicenseChange</text>
<text text-anchor="middle" x="400.33" y="-99.55" font-family="Times,serif" font-size="14.00" fill="gray">688a150d4a73f28332885522e0993735</text>
</g>
<!-- 36796&#45;&gt;36797 -->
<g id="edge29" class="edge">
<title>36796&#45;&gt;36797</title>
<path fill="none" stroke="#379469" d="M415.92,-141.95C460.47,-224.91 474.69,-248.43 599.75,-450.74"/>
<polygon fill="#379469" stroke="#379469" points="596.76,-452.56 604.99,-459.22 602.71,-448.87 596.76,-452.56"/>
</g>
<!-- 42023 -->
<g id="node22" class="node">
<title>42023</title>
<ellipse fill="none" stroke="#00876c" cx="1385.52" cy="-1529.32" rx="157.68" ry="28.99"/>
<text text-anchor="middle" x="1385.52" y="-1532.52" font-family="Times,serif" font-size="14.00" fill="gray">MetaeffektLicense</text>
<text text-anchor="middle" x="1385.52" y="-1516.02" font-family="Times,serif" font-size="14.00" fill="gray">afb8febdd55c286e7a5679b3472ad25d</text>
</g>
<!-- 42023&#45;&gt;42024 -->
<g id="edge30" class="edge">
<title>42023&#45;&gt;42024</title>
<path fill="none" stroke="#00876c" d="M1278.3,-1507.7C1198.08,-1486.11 1149.22,-1449.61 982.32,-1315.65"/>
<polygon fill="#00876c" stroke="#00876c" points="984.94,-1313.26 974.95,-1309.73 980.55,-1318.72 984.94,-1313.26"/>
</g>
<!-- 42025 -->
<g id="node24" class="node">
<title>42025</title>
<polygon fill="none" stroke="#00876c" points="1107.89,-1610.77 1107.89,-1625.68 1073.71,-1636.22 1025.37,-1636.22 991.19,-1625.68 991.19,-1610.77 1025.37,-1600.22 1073.71,-1600.22 1107.89,-1610.77"/>
<text text-anchor="middle" x="1049.54" y="-1613.17" font-family="Times,serif" font-size="14.00">Frameworx</text>
</g>
<!-- 42025&#45;&gt;42024 -->
<g id="edge31" class="edge">
<title>42025&#45;&gt;42024</title>
<path fill="none" stroke="#00876c" stroke-dasharray="5,2" d="M1041.68,-1599.81C1009.53,-1524.26 1004.33,-1507.03 954.76,-1319.61"/>
<polygon fill="#00876c" stroke="#00876c" points="952.21,-1309.98 959.12,-1318.49 953.18,-1313.63 954.77,-1319.64 954.77,-1319.64 954.77,-1319.64 953.18,-1313.63 950.42,-1320.79 952.21,-1309.98"/>
</g>
<!-- 42026 -->
<g id="node25" class="node">
<title>42026</title>
<polygon fill="none" stroke="#00876c" points="1334.82,-1622.64 1334.82,-1637.55 1270.78,-1648.1 1180.22,-1648.1 1116.18,-1637.55 1116.18,-1622.64 1180.22,-1612.1 1270.78,-1612.1 1334.82,-1622.64"/>
<text text-anchor="middle" x="1225.5" y="-1625.05" font-family="Times,serif" font-size="14.00">Frameworx, Version 1.0</text>
</g>
<!-- 42026&#45;&gt;42024 -->
<g id="edge32" class="edge">
<title>42026&#45;&gt;42024</title>
<path fill="none" stroke="#00876c" stroke-dasharray="5,2" d="M1201.56,-1611.8C1114.62,-1544.9 1100.13,-1525.57 966.39,-1318.11"/>
<polygon fill="#00876c" stroke="#00876c" points="961,-1309.76 970.2,-1315.73 963.05,-1312.94 966.42,-1318.16 966.42,-1318.16 966.42,-1318.16 963.05,-1312.94 962.64,-1320.6 961,-1309.76"/>
</g>
<!-- 42027 -->
<g id="node26" class="node">
<title>42027</title>
<polygon fill="none" stroke="#00876c" points="1093.06,-1729.58 1093.06,-1744.49 1028.37,-1755.03 936.89,-1755.03 872.21,-1744.49 872.21,-1729.58 936.89,-1719.03 1028.37,-1719.03 1093.06,-1729.58"/>
<text text-anchor="middle" x="982.63" y="-1731.98" font-family="Times,serif" font-size="14.00">Frameworx License, 1.0</text>
</g>
<!-- 42027&#45;&gt;42024 -->
<g id="edge33" class="edge">
<title>42027&#45;&gt;42024</title>
<path fill="none" stroke="#00876c" stroke-dasharray="5,2" d="M981.16,-1718.87C971.95,-1605.67 970.54,-1588.31 948.7,-1319.71"/>
<polygon fill="#00876c" stroke="#00876c" points="947.91,-1310.03 953.21,-1319.63 948.22,-1313.8 948.72,-1320 948.72,-1320 948.72,-1320 948.22,-1313.8 944.24,-1320.36 947.91,-1310.03"/>
</g>
<!-- 42028 -->
<g id="node27" class="node">
<title>42028</title>
<polygon fill="none" stroke="#00876c" points="864.17,-1748.95 864.17,-1763.86 754.05,-1774.41 598.32,-1774.41 488.21,-1763.86 488.21,-1748.95 598.32,-1738.41 754.05,-1738.41 864.17,-1748.95"/>
<text text-anchor="middle" x="676.19" y="-1751.36" font-family="Times,serif" font-size="14.00">THE FRAMEWORX OPEN LICENSE 1.0</text>
</g>
<!-- 42028&#45;&gt;42024 -->
<g id="edge34" class="edge">
<title>42028&#45;&gt;42024</title>
<path fill="none" stroke="#00876c" stroke-dasharray="5,2" d="M692.92,-1738.18C790.71,-1631.39 800.79,-1612.62 931.55,-1318.92"/>
<polygon fill="#00876c" stroke="#00876c" points="935.55,-1309.92 935.6,-1320.89 934.02,-1313.37 931.49,-1319.06 931.49,-1319.06 931.49,-1319.06 934.02,-1313.37 927.38,-1317.23 935.55,-1309.92"/>
</g>
</g>
</svg>
