<?xml version="1.0" encoding="UTF-8" standalone="no"?>
<!DOCTYPE svg PUBLIC "-//W3C//DTD SVG 1.1//EN"
 "http://www.w3.org/Graphics/SVG/1.1/DTD/svg11.dtd">
<!-- Generated by graphviz version 10.0.1 (0)
 -->
<!-- Pages: 1 -->
<svg width="3014pt" height="2889pt"
 viewBox="0.00 0.00 3014.00 2889.00" xmlns="http://www.w3.org/2000/svg" xmlns:xlink="http://www.w3.org/1999/xlink">
<g id="graph0" class="graph" transform="scale(1 1) rotate(0) translate(4 2885)">
<polygon fill="white" stroke="none" points="-4,4 -4,-2885 3010,-2885 3010,4 -4,4"/>
<!-- 2868 -->
<g id="node1" class="node">
<title>2868</title>
<ellipse fill="none" stroke="#b8bf62" cx="1736.2" cy="-394.95" rx="154.5" ry="28.99"/>
<text text-anchor="middle" x="1736.2" y="-398.15" font-family="Times,serif" font-size="14.00" fill="gray">SPDXLicense</text>
<text text-anchor="middle" x="1736.2" y="-381.65" font-family="Times,serif" font-size="14.00" fill="gray">a5618485e9f93ef93fea9d4a06c9de3c</text>
</g>
<!-- 2869 -->
<g id="node2" class="node">
<title>2869</title>
<polygon fill="none" stroke="black" points="1979.09,-715.28 1979.09,-730.19 1937.77,-740.74 1879.33,-740.74 1838.01,-730.19 1838.01,-715.28 1879.33,-704.74 1937.77,-704.74 1979.09,-715.28"/>
<polygon fill="none" stroke="black" points="1983.09,-712.18 1983.09,-733.3 1938.27,-744.74 1878.83,-744.74 1834.01,-733.3 1834.01,-712.18 1878.83,-700.74 1938.27,-700.74 1983.09,-712.18"/>
<text text-anchor="middle" x="1908.55" y="-717.69" font-family="Times,serif" font-size="14.00">spdx:MPL&#45;2.0</text>
</g>
<!-- 2868&#45;&gt;2869 -->
<g id="edge1" class="edge">
<title>2868&#45;&gt;2869</title>
<path fill="none" stroke="#b8bf62" d="M1769.77,-423.61C1843.94,-488.29 1853.53,-512.67 1899.84,-689.39"/>
<polygon fill="#b8bf62" stroke="#b8bf62" points="1896.42,-690.16 1902.34,-698.94 1903.19,-688.38 1896.42,-690.16"/>
</g>
<!-- 5152 -->
<g id="node6" class="node">
<title>5152</title>
<polygon fill="none" stroke="black" points="2102.16,-1027.32 2102.16,-1042.23 2065.06,-1052.77 2012.58,-1052.77 1975.48,-1042.23 1975.48,-1027.32 2012.58,-1016.77 2065.06,-1016.77 2102.16,-1027.32"/>
<polygon fill="none" stroke="black" points="2106.16,-1024.3 2106.16,-1045.25 2065.61,-1056.77 2012.03,-1056.77 1971.48,-1045.25 1971.48,-1024.3 2012.03,-1012.77 2065.61,-1012.77 2106.16,-1024.3"/>
<polygon fill="none" stroke="black" points="2110.16,-1021.28 2110.16,-1048.27 2066.17,-1060.77 2011.47,-1060.77 1967.48,-1048.27 1967.48,-1021.28 2011.47,-1008.77 2066.17,-1008.77 2110.16,-1021.28"/>
<text text-anchor="middle" x="2038.82" y="-1029.72" font-family="Times,serif" font-size="14.00">osi:MPL&#45;2.0</text>
</g>
<!-- 2869&#45;&gt;5152 -->
<g id="edge2" class="edge">
<title>2869&#45;&gt;5152</title>
<path fill="none" stroke="#78ab63" stroke-width="2" d="M1931.8,-745.13C2011.33,-822.41 2018.18,-840.58 2034.89,-997.4"/>
<polygon fill="#78ab63" stroke="#78ab63" stroke-width="2" points="2035.8,-1006 2030.28,-996.53 2035.04,-1003.51 2034.25,-996.11 2034.75,-996.06 2035.25,-996.01 2036.03,-1003.4 2039.23,-995.59 2035.8,-1006"/>
</g>
<!-- 5668 -->
<g id="node11" class="node">
<title>5668</title>
<polygon fill="none" stroke="#e06f45" points="2370.52,-378.46 2370.52,-393.38 2327.9,-403.92 2267.63,-403.92 2225.01,-393.38 2225.01,-378.46 2267.63,-367.92 2327.9,-367.92 2370.52,-378.46"/>
<polygon fill="none" stroke="#e06f45" points="2374.52,-375.33 2374.52,-396.51 2328.39,-407.92 2267.14,-407.92 2221.01,-396.51 2221.01,-375.33 2267.14,-363.92 2328.39,-363.92 2374.52,-375.33"/>
<text text-anchor="middle" x="2297.77" y="-380.87" font-family="Times,serif" font-size="14.00">google:MPL20</text>
</g>
<!-- 2869&#45;&gt;5668 -->
<g id="edge3" class="edge">
<title>2869&#45;&gt;5668</title>
<path fill="none" stroke="#e06f45" stroke-width="2" d="M1930.79,-700.39C2132.27,-497.9 2160.5,-470.75 2253.38,-413.07"/>
<polygon fill="#e06f45" stroke="#e06f45" stroke-width="2" points="2260.81,-408.48 2254.67,-417.56 2258.89,-410.25 2252.56,-414.16 2252.3,-413.74 2252.04,-413.31 2258.36,-409.4 2249.94,-409.91 2260.81,-408.48"/>
</g>
<!-- 8127 -->
<g id="node18" class="node">
<title>8127</title>
<polygon fill="none" stroke="#e09d4b" points="1637.97,-892.66 1637.97,-907.57 1591.46,-918.11 1525.68,-918.11 1479.16,-907.57 1479.16,-892.66 1525.68,-882.11 1591.46,-882.11 1637.97,-892.66"/>
<polygon fill="none" stroke="#e09d4b" points="1641.97,-889.46 1641.97,-910.76 1591.9,-922.11 1525.23,-922.11 1475.16,-910.76 1475.16,-889.46 1525.23,-878.11 1591.9,-878.11 1641.97,-889.46"/>
<text text-anchor="middle" x="1558.57" y="-895.06" font-family="Times,serif" font-size="14.00">Fedora:MPL&#45;2.0</text>
</g>
<!-- 2869&#45;&gt;8127 -->
<g id="edge4" class="edge">
<title>2869&#45;&gt;8127</title>
<path fill="none" stroke="#e09d4b" stroke-width="2" d="M1833.76,-731.51C1758.81,-743.4 1725.13,-766.57 1595.14,-870.75"/>
<polygon fill="#e09d4b" stroke="#e09d4b" stroke-width="2" points="1588.33,-876.2 1593.32,-866.43 1590.02,-874.21 1595.82,-869.55 1596.13,-869.94 1596.45,-870.33 1590.65,-874.99 1598.95,-873.46 1588.33,-876.2"/>
</g>
<!-- 9659 -->
<g id="node25" class="node">
<title>9659</title>
<polygon fill="none" stroke="#58a066" points="2141.63,-718 2141.63,-732.91 2099.01,-743.46 2038.74,-743.46 1996.12,-732.91 1996.12,-718 2038.74,-707.46 2099.01,-707.46 2141.63,-718"/>
<polygon fill="none" stroke="#58a066" points="2145.63,-714.87 2145.63,-736.04 2099.5,-747.46 2038.25,-747.46 1992.12,-736.04 1992.12,-714.87 2038.25,-703.46 2099.5,-703.46 2145.63,-714.87"/>
<text text-anchor="middle" x="2068.88" y="-720.41" font-family="Times,serif" font-size="14.00">osadl:MPL&#45;2.0</text>
</g>
<!-- 2869&#45;&gt;9659 -->
<g id="edge5" class="edge">
<title>2869&#45;&gt;9659</title>
<path fill="none" stroke="#58a066" stroke-width="2" d="M1968.66,-708.12C1986.97,-704.39 1999.62,-703.29 2011.77,-704.89"/>
<polygon fill="#58a066" stroke="#58a066" stroke-width="2" points="2020.07,-706.53 2009.39,-709.01 2017.46,-706.52 2010.16,-705.08 2010.26,-704.59 2010.35,-704.1 2017.65,-705.54 2011.13,-700.18 2020.07,-706.53"/>
</g>
<!-- 10310 -->
<g id="node28" class="node">
<title>10310</title>
<polygon fill="none" stroke="#deb256" points="1753.43,-555.72 1753.43,-570.63 1716.97,-581.17 1665.42,-581.17 1628.97,-570.63 1628.97,-555.72 1665.42,-545.17 1716.97,-545.17 1753.43,-555.72"/>
<polygon fill="none" stroke="#deb256" points="1757.43,-552.71 1757.43,-573.64 1717.54,-585.17 1664.85,-585.17 1624.97,-573.64 1624.97,-552.71 1664.85,-541.17 1717.54,-541.17 1757.43,-552.71"/>
<text text-anchor="middle" x="1691.2" y="-558.12" font-family="Times,serif" font-size="14.00">fsf:MPL&#45;2.0</text>
</g>
<!-- 2869&#45;&gt;10310 -->
<g id="edge6" class="edge">
<title>2869&#45;&gt;10310</title>
<path fill="none" stroke="#deb256" stroke-dasharray="5,2" d="M1893.17,-700.47C1835.6,-617.39 1817.97,-597.15 1758.62,-579.77"/>
<polygon fill="#deb256" stroke="#deb256" points="1749.06,-577.1 1759.9,-575.46 1752.7,-578.12 1758.69,-579.79 1758.69,-579.79 1758.69,-579.79 1752.7,-578.12 1757.48,-584.13 1749.06,-577.1"/>
</g>
<!-- 10974 -->
<g id="node32" class="node">
<title>10974</title>
<polygon fill="none" stroke="#58a066" points="2065.09,-889.48 2065.09,-904.39 2035.45,-914.94 1993.53,-914.94 1963.89,-904.39 1963.89,-889.48 1993.53,-878.94 2035.45,-878.94 2065.09,-889.48"/>
<polygon fill="none" stroke="#58a066" points="2069.09,-886.66 2069.09,-907.22 2036.14,-918.94 1992.84,-918.94 1959.89,-907.22 1959.89,-886.66 1992.84,-874.94 2036.14,-874.94 2069.09,-886.66"/>
<text text-anchor="middle" x="2014.49" y="-891.89" font-family="Times,serif" font-size="14.00">cal:mpl&#45;2</text>
</g>
<!-- 2869&#45;&gt;10974 -->
<g id="edge7" class="edge">
<title>2869&#45;&gt;10974</title>
<path fill="none" stroke="#58a066" stroke-width="2" d="M1939.39,-744.81C1980.57,-775.57 1988.48,-791.53 2006.44,-863.86"/>
<polygon fill="#58a066" stroke="#58a066" stroke-width="2" points="2008.46,-872.08 2001.7,-863.44 2007.36,-869.71 2005.59,-862.49 2006.07,-862.37 2006.56,-862.25 2008.33,-869.47 2010.44,-861.29 2008.46,-872.08"/>
</g>
<!-- 25894 -->
<g id="node38" class="node">
<title>25894</title>
<polygon fill="none" stroke="#98b561" points="1947.77,-888.95 1947.77,-903.86 1912.62,-914.41 1862.9,-914.41 1827.75,-903.86 1827.75,-888.95 1862.9,-878.41 1912.62,-878.41 1947.77,-888.95"/>
<polygon fill="none" stroke="#98b561" points="1951.77,-885.98 1951.77,-906.84 1913.21,-918.41 1862.31,-918.41 1823.75,-906.84 1823.75,-885.98 1862.31,-874.41 1913.21,-874.41 1951.77,-885.98"/>
<text text-anchor="middle" x="1887.76" y="-891.36" font-family="Times,serif" font-size="14.00">oslc:MPL&#45;2</text>
</g>
<!-- 2869&#45;&gt;25894 -->
<g id="edge8" class="edge">
<title>2869&#45;&gt;25894</title>
<path fill="none" stroke="#98b561" stroke-width="2" d="M1911.58,-744.99C1915.53,-777.87 1913.2,-793.24 1895.94,-863.39"/>
<polygon fill="#98b561" stroke="#98b561" stroke-width="2" points="1893.87,-871.78 1891.9,-861 1894,-869.18 1895.78,-861.96 1896.27,-862.07 1896.75,-862.19 1894.97,-869.41 1900.64,-863.15 1893.87,-871.78"/>
</g>
<!-- 44816 -->
<g id="node48" class="node">
<title>44816</title>
<polygon fill="none" stroke="#00876c" points="2259.24,-1274.42 2259.24,-1289.33 2161.46,-1299.87 2023.17,-1299.87 1925.38,-1289.33 1925.38,-1274.42 2023.17,-1263.87 2161.46,-1263.87 2259.24,-1274.42"/>
<polygon fill="none" stroke="#00876c" points="2263.24,-1270.83 2263.24,-1292.92 2161.67,-1303.87 2022.95,-1303.87 1921.38,-1292.92 1921.38,-1270.83 2022.95,-1259.87 2161.67,-1259.87 2263.24,-1270.83"/>
<text text-anchor="middle" x="2092.31" y="-1276.82" font-family="Times,serif" font-size="14.00">metaeffekt:Mozilla Public License 2.0</text>
</g>
<!-- 2869&#45;&gt;44816 -->
<g id="edge9" class="edge">
<title>2869&#45;&gt;44816</title>
<path fill="none" stroke="#00876c" stroke-width="2" d="M1928.61,-745.22C2083.41,-919.02 2088.71,-937.21 2091.98,-1248.5"/>
<polygon fill="#00876c" stroke="#00876c" stroke-width="2" points="2092.07,-1257.26 2087.46,-1247.31 2091.54,-1254.7 2091.46,-1247.27 2091.96,-1247.26 2092.46,-1247.26 2092.54,-1254.69 2096.46,-1247.22 2092.07,-1257.26"/>
</g>
<!-- 2870 -->
<g id="node3" class="node">
<title>2870</title>
<polygon fill="none" stroke="black" points="1751.9,-940.26 1751.9,-955.17 1723.23,-965.72 1682.69,-965.72 1654.03,-955.17 1654.03,-940.26 1682.69,-929.72 1723.23,-929.72 1751.9,-940.26"/>
<polygon fill="none" stroke="black" points="1755.9,-937.47 1755.9,-957.96 1723.94,-969.72 1681.98,-969.72 1650.03,-957.96 1650.03,-937.47 1681.98,-925.72 1723.94,-925.72 1755.9,-937.47"/>
<text text-anchor="middle" x="1702.96" y="-942.67" font-family="Times,serif" font-size="14.00">MPL&#45;2.0</text>
</g>
<!-- 2870&#45;&gt;2869 -->
<g id="edge10" class="edge">
<title>2870&#45;&gt;2869</title>
<path fill="none" stroke="black" stroke-width="2" d="M1720.42,-925.31C1809.85,-810.54 1830.48,-785.16 1871.09,-752.01"/>
<polygon fill="black" stroke="black" stroke-width="2" points="1877.9,-746.54 1872.92,-756.31 1876.21,-748.54 1870.42,-753.19 1870.1,-752.8 1869.79,-752.41 1875.59,-747.76 1867.29,-749.29 1877.9,-746.54"/>
</g>
<!-- 2870&#45;&gt;5152 -->
<g id="edge11" class="edge">
<title>2870&#45;&gt;5152</title>
<path fill="none" stroke="black" stroke-width="2" d="M1756.22,-945.24C1894.19,-939.31 1920.66,-944.55 1997.93,-1003.04"/>
<polygon fill="black" stroke="black" stroke-width="2" points="2004.65,-1008.17 1993.97,-1005.68 2002.31,-1007.01 1996.4,-1002.5 1996.7,-1002.1 1997.01,-1001.71 2002.92,-1006.22 1999.43,-998.53 2004.65,-1008.17"/>
</g>
<!-- 2870&#45;&gt;8127 -->
<g id="edge12" class="edge">
<title>2870&#45;&gt;8127</title>
<path fill="none" stroke="#e09d4b" stroke-width="2" d="M1677.59,-927.12C1667.83,-919.41 1659.8,-913.57 1652.35,-909.21"/>
<polygon fill="#e09d4b" stroke="#e09d4b" stroke-width="2" points="1644.6,-905.24 1655.55,-905.79 1647.11,-905.96 1653.73,-909.35 1653.5,-909.8 1653.27,-910.24 1646.65,-906.86 1651.45,-913.8 1644.6,-905.24"/>
</g>
<!-- 9432 -->
<g id="node23" class="node">
<title>9432</title>
<polygon fill="none" stroke="#00876c" points="1509.05,-717.17 1509.05,-732.08 1458,-742.63 1385.79,-742.63 1334.74,-732.08 1334.74,-717.17 1385.79,-706.63 1458,-706.63 1509.05,-717.17"/>
<polygon fill="none" stroke="#00876c" points="1513.05,-713.91 1513.05,-735.34 1458.41,-746.63 1385.38,-746.63 1330.74,-735.34 1330.74,-713.91 1385.38,-702.63 1458.41,-702.63 1513.05,-713.91"/>
<text text-anchor="middle" x="1421.9" y="-719.58" font-family="Times,serif" font-size="14.00">BlueOak:MPL&#45;2.0</text>
</g>
<!-- 2870&#45;&gt;9432 -->
<g id="edge13" class="edge">
<title>2870&#45;&gt;9432</title>
<path fill="none" stroke="#00876c" stroke-width="2" d="M1686.83,-925.62C1593.27,-797.61 1570.36,-770.4 1493.79,-745.28"/>
<polygon fill="#00876c" stroke="#00876c" stroke-width="2" points="1485.46,-742.64 1496.35,-741.37 1488.05,-742.94 1495.14,-745.19 1494.99,-745.66 1494.84,-746.14 1487.75,-743.89 1493.63,-749.95 1485.46,-742.64"/>
</g>
<!-- 2870&#45;&gt;9659 -->
<g id="edge14" class="edge">
<title>2870&#45;&gt;9659</title>
<path fill="none" stroke="#58a066" stroke-width="2" d="M1728.75,-927.04C1891.53,-796.62 1927.23,-769.73 2002.69,-745.02"/>
<polygon fill="#58a066" stroke="#58a066" stroke-width="2" points="2010.79,-742.44 2002.63,-749.77 2008.5,-743.7 2001.42,-745.96 2001.26,-745.48 2001.11,-745 2008.2,-742.74 1999.9,-741.19 2010.79,-742.44"/>
</g>
<!-- 2870&#45;&gt;10310 -->
<g id="edge15" class="edge">
<title>2870&#45;&gt;10310</title>
<path fill="none" stroke="#deb256" stroke-width="2" d="M1704.23,-925.35C1716.57,-707.11 1717.27,-681.4 1698.63,-596.26"/>
<polygon fill="#deb256" stroke="#deb256" stroke-width="2" points="1696.79,-587.95 1703.34,-596.74 1697.83,-590.34 1699.44,-597.6 1698.95,-597.71 1698.46,-597.82 1696.85,-590.56 1694.56,-598.68 1696.79,-587.95"/>
</g>
<!-- 19536 -->
<g id="node35" class="node">
<title>19536</title>
<polygon fill="none" stroke="black" points="1857.16,-1271.58 1857.16,-1286.49 1808.37,-1297.03 1739.38,-1297.03 1690.6,-1286.49 1690.6,-1271.58 1739.38,-1261.03 1808.37,-1261.03 1857.16,-1271.58"/>
<polygon fill="none" stroke="black" points="1861.16,-1268.35 1861.16,-1289.72 1808.8,-1301.03 1738.95,-1301.03 1686.6,-1289.72 1686.6,-1268.35 1738.95,-1257.03 1808.8,-1257.03 1861.16,-1268.35"/>
<text text-anchor="middle" x="1773.88" y="-1273.98" font-family="Times,serif" font-size="14.00">scancode:mpl&#45;2.0</text>
</g>
<!-- 2870&#45;&gt;19536 -->
<g id="edge16" class="edge">
<title>2870&#45;&gt;19536</title>
<path fill="none" stroke="black" stroke-width="2" d="M1718.08,-970.1C1774.55,-1054.4 1777.54,-1072.38 1774.49,-1245.65"/>
<polygon fill="black" stroke="black" stroke-width="2" points="1774.33,-1254.3 1770.02,-1244.22 1773.88,-1251.73 1774.01,-1244.29 1774.51,-1244.3 1775.01,-1244.31 1774.88,-1251.74 1779.01,-1244.38 1774.33,-1254.3"/>
</g>
<!-- 25933 -->
<g id="node40" class="node">
<title>25933</title>
<polygon fill="none" stroke="#e18745" points="1461.89,-985.15 1461.89,-1000.06 1408.89,-1010.61 1333.93,-1010.61 1280.92,-1000.06 1280.92,-985.15 1333.93,-974.61 1408.89,-974.61 1461.89,-985.15"/>
<polygon fill="none" stroke="#e18745" points="1465.89,-981.87 1465.89,-1003.34 1409.28,-1014.61 1333.53,-1014.61 1276.92,-1003.34 1276.92,-981.87 1333.53,-970.61 1409.28,-970.61 1465.89,-981.87"/>
<text text-anchor="middle" x="1371.41" y="-987.56" font-family="Times,serif" font-size="14.00">fossology:MPL&#45;2.0</text>
</g>
<!-- 2870&#45;&gt;25933 -->
<g id="edge17" class="edge">
<title>2870&#45;&gt;25933</title>
<path fill="none" stroke="#e18745" stroke-width="2" d="M1655.88,-934.93C1554.63,-908.31 1529.27,-911.54 1422.92,-965.86"/>
<polygon fill="#e18745" stroke="#e18745" stroke-width="2" points="1415.23,-969.81 1422.07,-961.24 1417.28,-968.19 1423.9,-964.8 1424.13,-965.24 1424.36,-965.69 1417.74,-969.08 1426.18,-969.25 1415.23,-969.81"/>
</g>
<!-- 37205 -->
<g id="node46" class="node">
<title>37205</title>
<polygon fill="none" stroke="#379469" points="1572.07,-630.17 1572.07,-645.08 1530.42,-655.62 1471.52,-655.62 1429.88,-645.08 1429.88,-630.17 1471.52,-619.62 1530.42,-619.62 1572.07,-630.17"/>
<polygon fill="none" stroke="#379469" points="1576.07,-627.05 1576.07,-648.19 1530.92,-659.62 1471.03,-659.62 1425.88,-648.19 1425.88,-627.05 1471.03,-615.62 1530.92,-615.62 1576.07,-627.05"/>
<text text-anchor="middle" x="1500.97" y="-632.57" font-family="Times,serif" font-size="14.00">cavil:MPL&#45;2.0</text>
</g>
<!-- 2870&#45;&gt;37205 -->
<g id="edge18" class="edge">
<title>2870&#45;&gt;37205</title>
<path fill="none" stroke="#379469" stroke-width="2" d="M1694.18,-925.41C1624.04,-747.39 1611.79,-721.22 1539.8,-666.33"/>
<polygon fill="#379469" stroke="#379469" stroke-width="2" points="1533.15,-661.32 1543.85,-663.75 1535.5,-662.46 1541.44,-666.94 1541.14,-667.34 1540.84,-667.74 1534.9,-663.26 1538.43,-670.93 1533.15,-661.32"/>
</g>
<!-- 50728 -->
<g id="node60" class="node">
<title>50728</title>
<polygon fill="none" stroke="#b8bf62" points="1819.08,-1522.7 1819.08,-1537.61 1719.03,-1548.16 1577.52,-1548.16 1477.46,-1537.61 1477.46,-1522.7 1577.52,-1512.16 1719.03,-1512.16 1819.08,-1522.7"/>
<polygon fill="none" stroke="#b8bf62" points="1823.08,-1519.1 1823.08,-1541.21 1719.24,-1552.16 1577.31,-1552.16 1473.46,-1541.21 1473.46,-1519.1 1577.31,-1508.16 1719.24,-1508.16 1823.08,-1519.1"/>
<text text-anchor="middle" x="1648.27" y="-1525.11" font-family="Times,serif" font-size="14.00">foss&#45;license:Mozilla Public License 2.0</text>
</g>
<!-- 2870&#45;&gt;50728 -->
<g id="edge19" class="edge">
<title>2870&#45;&gt;50728</title>
<path fill="none" stroke="#b8bf62" stroke-width="2" d="M1708.32,-969.99C1750.24,-1145.06 1747.97,-1163.53 1657.2,-1497.37"/>
<polygon fill="#b8bf62" stroke="#b8bf62" stroke-width="2" points="1654.99,-1505.49 1653.27,-1494.66 1655.18,-1502.89 1657.13,-1495.71 1657.61,-1495.84 1658.09,-1495.98 1656.14,-1503.15 1661.95,-1497.03 1654.99,-1505.49"/>
</g>
<!-- 51013 -->
<g id="node68" class="node">
<title>51013</title>
<polygon fill="none" stroke="#dac767" points="1501.98,-784.48 1501.98,-799.39 1409.38,-809.93 1278.44,-809.93 1185.84,-799.39 1185.84,-784.48 1278.44,-773.93 1409.38,-773.93 1501.98,-784.48"/>
<polygon fill="none" stroke="#dac767" points="1505.98,-780.91 1505.98,-802.96 1409.61,-813.93 1278.21,-813.93 1181.84,-802.96 1181.84,-780.91 1278.21,-769.93 1409.61,-769.93 1505.98,-780.91"/>
<text text-anchor="middle" x="1343.91" y="-786.88" font-family="Times,serif" font-size="14.00">fosslight:Mozilla Public License 2.0</text>
</g>
<!-- 2870&#45;&gt;51013 -->
<g id="edge20" class="edge">
<title>2870&#45;&gt;51013</title>
<path fill="none" stroke="#dac767" stroke-width="2" d="M1679.24,-926.77C1600.16,-857.09 1559.68,-823.33 1515.21,-807.02"/>
<polygon fill="#dac767" stroke="#dac767" stroke-width="2" points="1507.04,-804.29 1517.95,-803.19 1509.63,-804.63 1516.68,-806.99 1516.52,-807.46 1516.37,-807.93 1509.31,-805.58 1515.1,-811.73 1507.04,-804.29"/>
</g>
<!-- 54303 -->
<g id="node72" class="node">
<title>54303</title>
<polygon fill="none" stroke="#98b561" points="1346.26,-1096.5 1346.26,-1111.41 1299.74,-1121.95 1233.96,-1121.95 1187.45,-1111.41 1187.45,-1096.5 1233.96,-1085.95 1299.74,-1085.95 1346.26,-1096.5"/>
<polygon fill="none" stroke="#98b561" points="1350.26,-1093.3 1350.26,-1114.6 1300.19,-1125.95 1233.52,-1125.95 1183.45,-1114.6 1183.45,-1093.3 1233.52,-1081.95 1300.19,-1081.95 1350.26,-1093.3"/>
<text text-anchor="middle" x="1266.85" y="-1098.9" font-family="Times,serif" font-size="14.00">eclipse:MPL&#45;2.0</text>
</g>
<!-- 2870&#45;&gt;54303 -->
<g id="edge21" class="edge">
<title>2870&#45;&gt;54303</title>
<path fill="none" stroke="#98b561" stroke-width="2" d="M1649.8,-944.38C1490.52,-935.21 1465.18,-946.42 1303.34,-1074.9"/>
<polygon fill="#98b561" stroke="#98b561" stroke-width="2" points="1296.93,-1079.99 1301.96,-1070.24 1298.63,-1078 1304.45,-1073.37 1304.76,-1073.76 1305.07,-1074.16 1299.25,-1078.78 1307.56,-1077.29 1296.93,-1079.99"/>
</g>
<!-- 2871 -->
<g id="node4" class="node">
<title>2871</title>
<polygon fill="none" stroke="black" points="1832.29,-1000.13 1832.29,-1015.04 1761.44,-1025.58 1661.24,-1025.58 1590.38,-1015.04 1590.38,-1000.13 1661.24,-989.58 1761.44,-989.58 1832.29,-1000.13"/>
<polygon fill="none" stroke="black" points="1836.29,-996.68 1836.29,-1018.49 1761.73,-1029.58 1660.94,-1029.58 1586.38,-1018.49 1586.38,-996.68 1660.94,-985.58 1761.73,-985.58 1836.29,-996.68"/>
<text text-anchor="middle" x="1711.34" y="-1002.53" font-family="Times,serif" font-size="14.00">Mozilla Public License 2.0</text>
</g>
<!-- 2871&#45;&gt;2869 -->
<g id="edge22" class="edge">
<title>2871&#45;&gt;2869</title>
<path fill="none" stroke="black" stroke-width="2" d="M1725.77,-985.2C1825.23,-830.93 1841.81,-805.78 1883.66,-753.53"/>
<polygon fill="black" stroke="black" stroke-width="2" points="1889.08,-746.78 1886.32,-757.4 1887.86,-749.09 1883.2,-754.89 1882.81,-754.58 1882.42,-754.26 1887.08,-748.47 1879.31,-751.76 1889.08,-746.78"/>
</g>
<!-- 2871&#45;&gt;2870 -->
<g id="edge23" class="edge">
<title>2871&#45;&gt;2870</title>
<path fill="none" stroke="#379469" stroke-width="2" d="M1711.6,-985.34C1711.6,-983.78 1711.59,-982.33 1711.56,-980.97"/>
<polygon fill="#379469" stroke="#379469" stroke-width="2" points="1711.04,-972.4 1716.14,-982.11 1711.69,-974.93 1712.15,-982.35 1711.65,-982.38 1711.15,-982.42 1710.7,-974.99 1707.16,-982.66 1711.04,-972.4"/>
</g>
<!-- 2871&#45;&gt;9432 -->
<g id="edge24" class="edge">
<title>2871&#45;&gt;9432</title>
<path fill="none" stroke="#00876c" stroke-width="2" d="M1697.69,-985.29C1594.18,-816.32 1574.56,-788.84 1481.17,-748.72"/>
<polygon fill="#00876c" stroke="#00876c" stroke-width="2" points="1473.21,-745.35 1484.17,-745.1 1475.77,-745.89 1482.61,-748.79 1482.42,-749.25 1482.23,-749.71 1475.38,-746.81 1480.67,-753.39 1473.21,-745.35"/>
</g>
<!-- 2871&#45;&gt;10974 -->
<g id="edge25" class="edge">
<title>2871&#45;&gt;10974</title>
<path fill="none" stroke="#58a066" stroke-width="2" d="M1751.08,-985.16C1862.93,-922.2 1896.14,-905.81 1948.6,-900.28"/>
<polygon fill="#58a066" stroke="#58a066" stroke-width="2" points="1957.33,-899.5 1947.77,-904.87 1954.82,-900.22 1947.41,-900.89 1947.37,-900.39 1947.32,-899.89 1954.73,-899.23 1946.96,-895.91 1957.33,-899.5"/>
</g>
<!-- 2871&#45;&gt;19536 -->
<g id="edge26" class="edge">
<title>2871&#45;&gt;19536</title>
<path fill="none" stroke="#dac767" stroke-width="2" d="M1727.31,-1029.98C1773.88,-1096.12 1777.02,-1113.28 1774.55,-1245.58"/>
<polygon fill="#dac767" stroke="#dac767" stroke-width="2" points="1774.38,-1254.15 1770.08,-1244.06 1773.93,-1251.58 1774.08,-1244.14 1774.58,-1244.15 1775.08,-1244.16 1774.93,-1251.6 1779.07,-1244.24 1774.38,-1254.15"/>
</g>
<!-- 2871&#45;&gt;25894 -->
<g id="edge27" class="edge">
<title>2871&#45;&gt;25894</title>
<path fill="none" stroke="#98b561" stroke-width="2" d="M1738.41,-985.12C1786.39,-945.42 1808.54,-928.04 1830.28,-916.98"/>
<polygon fill="#98b561" stroke="#98b561" stroke-width="2" points="1838.12,-913.31 1830.96,-921.63 1836.01,-914.85 1829.27,-918 1829.06,-917.55 1828.85,-917.1 1835.58,-913.95 1827.15,-913.47 1838.12,-913.31"/>
</g>
<!-- 2871&#45;&gt;25933 -->
<g id="edge28" class="edge">
<title>2871&#45;&gt;25933</title>
<path fill="none" stroke="#e18745" stroke-width="2" d="M1662.17,-985.22C1564.13,-941.53 1535.99,-938.61 1437.64,-970.29"/>
<polygon fill="#e18745" stroke="#e18745" stroke-width="2" points="1429.57,-972.92 1437.68,-965.54 1431.85,-971.65 1438.92,-969.35 1439.07,-969.82 1439.23,-970.3 1432.16,-972.6 1440.47,-974.1 1429.57,-972.92"/>
</g>
<!-- 2871&#45;&gt;44816 -->
<g id="edge29" class="edge">
<title>2871&#45;&gt;44816</title>
<path fill="none" stroke="#00876c" stroke-width="2" d="M1776.84,-1027.71C1965.37,-1086.38 1985.61,-1103.95 2073.43,-1250.26"/>
<polygon fill="#00876c" stroke="#00876c" stroke-width="2" points="2077.78,-1257.53 2068.78,-1251.26 2076.03,-1255.58 2072.21,-1249.2 2072.64,-1248.95 2073.07,-1248.69 2076.89,-1255.07 2076.5,-1246.64 2077.78,-1257.53"/>
</g>
<!-- 2871&#45;&gt;50728 -->
<g id="edge30" class="edge">
<title>2871&#45;&gt;50728</title>
<path fill="none" stroke="#b8bf62" stroke-width="2" d="M1716.58,-1030.05C1753.79,-1190.25 1751.15,-1208.3 1658.8,-1497.26"/>
<polygon fill="#b8bf62" stroke="#b8bf62" stroke-width="2" points="1656.21,-1505.34 1654.97,-1494.44 1656.52,-1502.74 1658.78,-1495.66 1659.26,-1495.81 1659.74,-1495.96 1657.47,-1503.05 1663.55,-1497.18 1656.21,-1505.34"/>
</g>
<!-- 2871&#45;&gt;51013 -->
<g id="edge31" class="edge">
<title>2871&#45;&gt;51013</title>
<path fill="none" stroke="#dac767" stroke-width="2" d="M1690.58,-985.32C1579.53,-866.38 1542.36,-829.88 1469.12,-811.31"/>
<polygon fill="#dac767" stroke="#dac767" stroke-width="2" points="1460.9,-809.37 1471.67,-807.29 1463.51,-809.47 1470.75,-811.19 1470.63,-811.67 1470.52,-812.16 1463.28,-810.44 1469.6,-816.05 1460.9,-809.37"/>
</g>
<!-- 5151 -->
<g id="node5" class="node">
<title>5151</title>
<ellipse fill="none" stroke="#78ab63" cx="2464.44" cy="-916.96" rx="159.28" ry="28.99"/>
<text text-anchor="middle" x="2464.44" y="-920.16" font-family="Times,serif" font-size="14.00" fill="gray">OSILicense</text>
<text text-anchor="middle" x="2464.44" y="-903.66" font-family="Times,serif" font-size="14.00" fill="gray">238b1190cb14346c7f957411830c2f74</text>
</g>
<!-- 5151&#45;&gt;5152 -->
<g id="edge32" class="edge">
<title>5151&#45;&gt;5152</title>
<path fill="none" stroke="#78ab63" d="M2334.8,-934.1C2285.67,-945.37 2226.87,-966.01 2102.09,-1011.61"/>
<polygon fill="#78ab63" stroke="#78ab63" points="2101.02,-1008.27 2092.83,-1015 2103.42,-1014.85 2101.02,-1008.27"/>
</g>
<!-- 5152&#45;&gt;44816 -->
<g id="edge33" class="edge">
<title>5152&#45;&gt;44816</title>
<path fill="none" stroke="#00876c" stroke-dasharray="5,2" d="M2057.55,-1061.18C2105.73,-1130.04 2108.83,-1146.8 2096.49,-1248.37"/>
<polygon fill="#00876c" stroke="#00876c" points="2095.27,-1258.27 2092.03,-1247.79 2095.74,-1254.52 2096.5,-1248.34 2096.5,-1248.34 2096.5,-1248.34 2095.74,-1254.52 2100.96,-1248.89 2095.27,-1258.27"/>
</g>
<!-- 44824 -->
<g id="node55" class="node">
<title>44824</title>
<polygon fill="none" stroke="#00876c" points="2925.69,-1255.1 2925.69,-1270.01 2734.12,-1280.55 2463.2,-1280.55 2271.63,-1270.01 2271.63,-1255.1 2463.2,-1244.55 2734.12,-1244.55 2925.69,-1255.1"/>
<text text-anchor="middle" x="2598.66" y="-1257.5" font-family="Times,serif" font-size="14.00">metaeffekt:Mozilla Public License 2.0 (incompatible with secondary licenses)</text>
</g>
<!-- 5152&#45;&gt;44824 -->
<g id="edge34" class="edge">
<title>5152&#45;&gt;44824</title>
<path fill="none" stroke="#00876c" stroke-dasharray="5,2" d="M2110.45,-1048.12C2413.04,-1104.81 2440.82,-1116.58 2571.07,-1236.93"/>
<polygon fill="#00876c" stroke="#00876c" points="2578.09,-1243.43 2567.7,-1239.94 2575.32,-1240.86 2570.75,-1236.64 2570.75,-1236.64 2570.75,-1236.64 2575.32,-1240.86 2573.81,-1233.33 2578.09,-1243.43"/>
</g>
<!-- 5153 -->
<g id="node7" class="node">
<title>5153</title>
<polygon fill="none" stroke="black" points="2004.49,-1378.46 2004.49,-1393.37 1912.87,-1403.91 1783.3,-1403.91 1691.68,-1393.37 1691.68,-1378.46 1783.3,-1367.91 1912.87,-1367.91 2004.49,-1378.46"/>
<polygon fill="none" stroke="black" points="2008.49,-1374.89 2008.49,-1396.93 1913.1,-1407.91 1783.07,-1407.91 1687.68,-1396.93 1687.68,-1374.89 1783.07,-1363.91 1913.1,-1363.91 2008.49,-1374.89"/>
<text text-anchor="middle" x="1848.08" y="-1380.86" font-family="Times,serif" font-size="14.00">Mozilla Public License, Version 2.0</text>
</g>
<!-- 5153&#45;&gt;5152 -->
<g id="edge35" class="edge">
<title>5153&#45;&gt;5152</title>
<path fill="none" stroke="#78ab63" stroke-width="2" d="M1865.46,-1363.68C1999.12,-1192.6 2013.45,-1171.24 2032.11,-1071.99"/>
<polygon fill="#78ab63" stroke="#78ab63" stroke-width="2" points="2033.67,-1063.54 2036.28,-1074.19 2033.69,-1066.15 2032.34,-1073.47 2031.85,-1073.38 2031.36,-1073.28 2032.71,-1065.97 2027.43,-1072.56 2033.67,-1063.54"/>
</g>
<!-- 5153&#45;&gt;44816 -->
<g id="edge36" class="edge">
<title>5153&#45;&gt;44816</title>
<path fill="none" stroke="#00876c" stroke-dasharray="5,2" d="M1909.12,-1363.47C1984.6,-1335.61 2013.72,-1324.15 2042.42,-1309.49"/>
<polygon fill="#00876c" stroke="#00876c" points="2051.13,-1304.94 2044.35,-1313.56 2047.78,-1306.69 2042.27,-1309.57 2042.27,-1309.57 2042.27,-1309.57 2047.78,-1306.69 2040.18,-1305.59 2051.13,-1304.94"/>
</g>
<!-- 5153&#45;&gt;50728 -->
<g id="edge37" class="edge">
<title>5153&#45;&gt;50728</title>
<path fill="none" stroke="#b8bf62" stroke-width="2" d="M1832.99,-1408.2C1801.97,-1453.09 1786.69,-1465.37 1706.82,-1503.02"/>
<polygon fill="#b8bf62" stroke="#b8bf62" stroke-width="2" points="1698.97,-1506.71 1706.11,-1498.39 1701.07,-1505.17 1707.81,-1502.01 1708.02,-1502.46 1708.23,-1502.92 1701.5,-1506.07 1709.93,-1506.54 1698.97,-1506.71"/>
</g>
<!-- 5154 -->
<g id="node8" class="node">
<title>5154</title>
<polygon fill="none" stroke="#78ab63" points="2555.55,-1514.37 2555.55,-1529.28 2377.29,-1539.82 2125.18,-1539.82 1946.92,-1529.28 1946.92,-1514.37 2125.18,-1503.82 2377.29,-1503.82 2555.55,-1514.37"/>
<polygon fill="none" stroke="#78ab63" points="2559.55,-1510.6 2559.55,-1533.05 2377.41,-1543.82 2125.07,-1543.82 1942.92,-1533.05 1942.92,-1510.6 2125.07,-1499.82 2377.41,-1499.82 2559.55,-1510.6"/>
<text text-anchor="middle" x="2251.24" y="-1516.77" font-family="Times,serif" font-size="14.00">Trove:License :: OSI Approved :: Mozilla Public License 2.0 (MPL 2.0)</text>
</g>
<!-- 5154&#45;&gt;5152 -->
<g id="edge38" class="edge">
<title>5154&#45;&gt;5152</title>
<path fill="none" stroke="#78ab63" stroke-width="2" d="M2250.97,-1499.56C2248.07,-1266.32 2242.79,-1247.59 2071.95,-1069.26"/>
<polygon fill="#78ab63" stroke="#78ab63" stroke-width="2" points="2065.91,-1062.96 2076.08,-1067.06 2068.04,-1064.46 2073.19,-1069.83 2072.83,-1070.18 2072.47,-1070.52 2067.32,-1065.16 2069.58,-1073.29 2065.91,-1062.96"/>
</g>
<!-- 5155 -->
<g id="node9" class="node">
<title>5155</title>
<polygon fill="none" stroke="black" points="2551.67,-1566.41 2551.67,-1581.33 2388.98,-1591.87 2158.9,-1591.87 1996.21,-1581.33 1996.21,-1566.41 2158.9,-1555.87 2388.98,-1555.87 2551.67,-1566.41"/>
<polygon fill="none" stroke="black" points="2555.67,-1562.66 2555.67,-1585.07 2389.11,-1595.87 2158.77,-1595.87 1992.21,-1585.07 1992.21,-1562.66 2158.77,-1551.87 2389.11,-1551.87 2555.67,-1562.66"/>
<text text-anchor="middle" x="2273.94" y="-1568.82" font-family="Times,serif" font-size="14.00">License :: OSI Approved :: Mozilla Public License 2.0 (MPL 2.0)</text>
</g>
<!-- 5155&#45;&gt;5154 -->
<g id="edge39" class="edge">
<title>5155&#45;&gt;5154</title>
<path fill="none" stroke="#78ab63" stroke-width="2" d="M2271.96,-1551.47C2271.91,-1551.32 2271.86,-1551.17 2271.81,-1551.02"/>
<polygon fill="#78ab63" stroke="#78ab63" stroke-width="2" points="2269.48,-1546.29 2277.93,-1553.28 2271.06,-1548.37 2274.34,-1555.04 2273.9,-1555.26 2273.45,-1555.49 2270.16,-1548.81 2269.86,-1557.25 2269.48,-1546.29"/>
</g>
<!-- 5155&#45;&gt;50728 -->
<g id="edge40" class="edge">
<title>5155&#45;&gt;50728</title>
<path fill="none" stroke="#b8bf62" stroke-width="2" d="M1991.78,-1569.16C1942.03,-1564.41 1879.37,-1557.36 1793.16,-1547.27"/>
<polygon fill="#b8bf62" stroke="#b8bf62" stroke-width="2" points="1784.67,-1546.27 1795.13,-1542.97 1787.28,-1546.08 1794.66,-1546.94 1794.6,-1547.44 1794.55,-1547.93 1787.16,-1547.07 1794.08,-1551.91 1784.67,-1546.27"/>
</g>
<!-- 5667 -->
<g id="node10" class="node">
<title>5667</title>
<ellipse fill="none" stroke="#e06f45" cx="2492.8" cy="-29.07" rx="153.97" ry="28.99"/>
<text text-anchor="middle" x="2492.8" y="-32.27" font-family="Times,serif" font-size="14.00" fill="gray">GoogleLicense</text>
<text text-anchor="middle" x="2492.8" y="-15.77" font-family="Times,serif" font-size="14.00" fill="gray">fc34af44c1680703f73168164faf0736</text>
</g>
<!-- 5667&#45;&gt;5668 -->
<g id="edge41" class="edge">
<title>5667&#45;&gt;5668</title>
<path fill="none" stroke="#e06f45" d="M2479.81,-58.33C2443.59,-139.47 2430.54,-162.46 2316.86,-353.79"/>
<polygon fill="#e06f45" stroke="#e06f45" points="2313.89,-351.94 2311.79,-362.33 2319.9,-355.52 2313.89,-351.94"/>
</g>
<!-- 5669 -->
<g id="node12" class="node">
<title>5669</title>
<polygon fill="none" stroke="#e06f45" points="2492.96,-144.56 2492.96,-159.47 2467.86,-170.02 2432.37,-170.02 2407.28,-159.47 2407.28,-144.56 2432.37,-134.02 2467.86,-134.02 2492.96,-144.56"/>
<polygon fill="none" stroke="#e06f45" points="2496.96,-141.9 2496.96,-162.13 2468.67,-174.02 2431.56,-174.02 2403.28,-162.13 2403.28,-141.9 2431.56,-130.02 2468.67,-130.02 2496.96,-141.9"/>
<text text-anchor="middle" x="2450.12" y="-146.97" font-family="Times,serif" font-size="14.00">MPL20</text>
</g>
<!-- 5669&#45;&gt;5668 -->
<g id="edge42" class="edge">
<title>5669&#45;&gt;5668</title>
<path fill="none" stroke="#e06f45" stroke-width="2" d="M2436.77,-174.44C2408.23,-222.23 2396.51,-239.99 2319.09,-354.41"/>
<polygon fill="#e06f45" stroke="#e06f45" stroke-width="2" points="2314.27,-361.53 2316.15,-350.73 2315.29,-359.13 2319.46,-352.97 2319.88,-353.25 2320.29,-353.53 2316.12,-359.69 2323.6,-355.77 2314.27,-361.53"/>
</g>
<!-- 8122 -->
<g id="node13" class="node">
<title>8122</title>
<ellipse fill="none" stroke="#e09d4b" cx="1478.18" cy="-2851.73" rx="160.87" ry="28.99"/>
<text text-anchor="middle" x="1478.18" y="-2854.93" font-family="Times,serif" font-size="14.00" fill="gray">FedoraEntry</text>
<text text-anchor="middle" x="1478.18" y="-2838.43" font-family="Times,serif" font-size="14.00" fill="gray">c5b162923a2c5101e957ab6006a9d379</text>
</g>
<!-- 8123 -->
<g id="node14" class="node">
<title>8123</title>
<polygon fill="none" stroke="#e09d4b" points="1628.35,-2450.49 1628.35,-2465.41 1578.27,-2475.95 1507.44,-2475.95 1457.36,-2465.41 1457.36,-2450.49 1507.44,-2439.95 1578.27,-2439.95 1628.35,-2450.49"/>
<polygon fill="none" stroke="#e09d4b" points="1632.35,-2447.25 1632.35,-2468.65 1578.69,-2479.95 1507.03,-2479.95 1453.36,-2468.65 1453.36,-2447.25 1507.03,-2435.95 1578.69,-2435.95 1632.35,-2447.25"/>
<text text-anchor="middle" x="1542.86" y="-2452.9" font-family="Times,serif" font-size="14.00">Fedora:MPL&#45;2.0+</text>
</g>
<!-- 8122&#45;&gt;8123 -->
<g id="edge43" class="edge">
<title>8122&#45;&gt;8123</title>
<path fill="none" stroke="#e09d4b" d="M1486.36,-2822.44C1510.12,-2736.55 1513.61,-2711.79 1538.99,-2491.5"/>
<polygon fill="#e09d4b" stroke="#e09d4b" points="1542.46,-2492.02 1540.12,-2481.68 1535.5,-2491.21 1542.46,-2492.02"/>
</g>
<!-- 8124 -->
<g id="node15" class="node">
<title>8124</title>
<polygon fill="none" stroke="black" points="1663.89,-2097.63 1663.89,-2112.54 1631.65,-2123.08 1586.07,-2123.08 1553.83,-2112.54 1553.83,-2097.63 1586.07,-2087.08 1631.65,-2087.08 1663.89,-2097.63"/>
<polygon fill="none" stroke="black" points="1667.89,-2094.73 1667.89,-2115.44 1632.29,-2127.08 1585.43,-2127.08 1549.83,-2115.44 1549.83,-2094.73 1585.43,-2083.08 1632.29,-2083.08 1667.89,-2094.73"/>
<text text-anchor="middle" x="1608.86" y="-2100.03" font-family="Times,serif" font-size="14.00">MPL&#45;2.0+</text>
</g>
<!-- 8124&#45;&gt;8123 -->
<g id="edge44" class="edge">
<title>8124&#45;&gt;8123</title>
<path fill="none" stroke="#e09d4b" stroke-width="2" d="M1606.46,-2127.27C1584.92,-2326.34 1581.45,-2352.39 1554.93,-2425.38"/>
<polygon fill="#e09d4b" stroke="#e09d4b" stroke-width="2" points="1552.05,-2433.22 1551.27,-2422.29 1552.46,-2430.65 1555.02,-2423.66 1555.49,-2423.84 1555.96,-2424.01 1553.4,-2430.99 1559.72,-2425.38 1552.05,-2433.22"/>
</g>
<!-- 8125 -->
<g id="node16" class="node">
<title>8125</title>
<polygon fill="none" stroke="#e09d4b" points="1629.49,-2387.55 1629.49,-2402.46 1584.6,-2413 1521.11,-2413 1476.22,-2402.46 1476.22,-2387.55 1521.11,-2377 1584.6,-2377 1629.49,-2387.55"/>
<polygon fill="none" stroke="#e09d4b" points="1633.49,-2384.38 1633.49,-2405.63 1585.06,-2417 1520.65,-2417 1472.22,-2405.63 1472.22,-2384.38 1520.65,-2373 1585.06,-2373 1633.49,-2384.38"/>
<text text-anchor="middle" x="1552.86" y="-2389.95" font-family="Times,serif" font-size="14.00">spdx:MPL&#45;2.0+</text>
</g>
<!-- 8124&#45;&gt;8125 -->
<g id="edge45" class="edge">
<title>8124&#45;&gt;8125</title>
<path fill="none" stroke="#e09d4b" stroke-width="2" d="M1606.4,-2127.49C1589.43,-2281.96 1586.01,-2307.22 1565.4,-2362.45"/>
<polygon fill="#e09d4b" stroke="#e09d4b" stroke-width="2" points="1562.36,-2370.48 1561.7,-2359.53 1562.8,-2367.9 1565.44,-2360.95 1565.9,-2361.13 1566.37,-2361.3 1563.74,-2368.26 1570.11,-2362.72 1562.36,-2370.48"/>
</g>
<!-- 8124&#45;&gt;50728 -->
<g id="edge46" class="edge">
<title>8124&#45;&gt;50728</title>
<path fill="none" stroke="#b8bf62" stroke-width="2" d="M1615.94,-2082.59C1663.46,-1930.95 1664.24,-1910.67 1649.68,-1563.67"/>
<polygon fill="#b8bf62" stroke="#b8bf62" stroke-width="2" points="1649.32,-1554.94 1654.23,-1564.75 1649.92,-1557.48 1650.24,-1564.91 1649.74,-1564.94 1649.24,-1564.96 1648.93,-1557.53 1645.24,-1565.12 1649.32,-1554.94"/>
</g>
<!-- 8125&#45;&gt;8123 -->
<g id="edge47" class="edge">
<title>8125&#45;&gt;8123</title>
<path fill="none" stroke="#e09d4b" stroke-width="2" d="M1550.59,-2417.33C1550.31,-2420.01 1550.05,-2422.41 1549.8,-2424.59"/>
<polygon fill="#e09d4b" stroke="#e09d4b" stroke-width="2" points="1548.67,-2433.23 1545.5,-2422.73 1548.5,-2430.62 1549.47,-2423.25 1549.96,-2423.31 1550.46,-2423.38 1549.49,-2430.75 1554.43,-2423.9 1548.67,-2433.23"/>
</g>
<!-- 8126 -->
<g id="node17" class="node">
<title>8126</title>
<ellipse fill="none" stroke="#e09d4b" cx="1111.65" cy="-850.98" rx="161.4" ry="28.99"/>
<text text-anchor="middle" x="1111.65" y="-854.18" font-family="Times,serif" font-size="14.00" fill="gray">FedoraEntry</text>
<text text-anchor="middle" x="1111.65" y="-837.68" font-family="Times,serif" font-size="14.00" fill="gray">7b1249818d1567eb6033f158064491a5</text>
</g>
<!-- 8126&#45;&gt;8127 -->
<g id="edge48" class="edge">
<title>8126&#45;&gt;8127</title>
<path fill="none" stroke="#e09d4b" d="M1195.02,-825.84C1304.67,-795.52 1343.07,-805.08 1503.65,-875.77"/>
<polygon fill="#e09d4b" stroke="#e09d4b" points="1501.95,-878.85 1512.52,-879.68 1504.78,-872.44 1501.95,-878.85"/>
</g>
<!-- 8128 -->
<g id="node19" class="node">
<title>8128</title>
<polygon fill="none" stroke="black" points="1674.4,-1232.6 1674.4,-1247.51 1600.62,-1258.06 1496.29,-1258.06 1422.52,-1247.51 1422.52,-1232.6 1496.29,-1222.06 1600.62,-1222.06 1674.4,-1232.6"/>
<polygon fill="none" stroke="black" points="1678.4,-1229.13 1678.4,-1250.98 1600.91,-1262.06 1496.01,-1262.06 1418.52,-1250.98 1418.52,-1229.13 1496.01,-1218.06 1600.91,-1218.06 1678.4,-1229.13"/>
<text text-anchor="middle" x="1548.46" y="-1235.01" font-family="Times,serif" font-size="14.00">Mozilla Public License v2.0</text>
</g>
<!-- 8128&#45;&gt;8127 -->
<g id="edge49" class="edge">
<title>8128&#45;&gt;8127</title>
<path fill="none" stroke="#e09d4b" stroke-dasharray="5,2" d="M1549.79,-1217.84C1561.07,-1029.69 1562.4,-1003.55 1559.88,-933.66"/>
<polygon fill="#e09d4b" stroke="#e09d4b" points="1559.5,-923.74 1564.38,-933.57 1559.65,-927.52 1559.88,-933.73 1559.88,-933.73 1559.88,-933.73 1559.65,-927.52 1555.38,-933.9 1559.5,-923.74"/>
</g>
<!-- 8128&#45;&gt;44816 -->
<g id="edge50" class="edge">
<title>8128&#45;&gt;44816</title>
<path fill="none" stroke="#00876c" stroke-dasharray="5,2" d="M1678.54,-1228.65C1880.67,-1211.78 1927.27,-1215.31 2028.32,-1255.37"/>
<polygon fill="#00876c" stroke="#00876c" points="2037.48,-1259.04 2026.52,-1259.5 2033.97,-1257.64 2028.2,-1255.32 2028.2,-1255.32 2028.2,-1255.32 2033.97,-1257.64 2029.87,-1251.14 2037.48,-1259.04"/>
</g>
<!-- 8128&#45;&gt;50728 -->
<g id="edge51" class="edge">
<title>8128&#45;&gt;50728</title>
<path fill="none" stroke="#b8bf62" stroke-width="2" d="M1568.42,-1262.27C1645.35,-1348.36 1650.79,-1364.39 1648.84,-1496.68"/>
<polygon fill="#b8bf62" stroke="#b8bf62" stroke-width="2" points="1648.71,-1505.25 1644.36,-1495.18 1648.25,-1502.67 1648.36,-1495.24 1648.86,-1495.25 1649.36,-1495.25 1649.25,-1502.69 1653.36,-1495.32 1648.71,-1505.25"/>
</g>
<!-- 8129 -->
<g id="node20" class="node">
<title>8129</title>
<polygon fill="none" stroke="black" points="1782.07,-1164.22 1782.07,-1179.14 1752.43,-1189.68 1710.51,-1189.68 1680.87,-1179.14 1680.87,-1164.22 1710.51,-1153.68 1752.43,-1153.68 1782.07,-1164.22"/>
<polygon fill="none" stroke="black" points="1786.07,-1161.4 1786.07,-1181.96 1753.12,-1193.68 1709.82,-1193.68 1676.87,-1181.96 1676.87,-1161.4 1709.82,-1149.68 1753.12,-1149.68 1786.07,-1161.4"/>
<text text-anchor="middle" x="1731.47" y="-1166.63" font-family="Times,serif" font-size="14.00">MPLv2.0</text>
</g>
<!-- 8129&#45;&gt;8127 -->
<g id="edge52" class="edge">
<title>8129&#45;&gt;8127</title>
<path fill="none" stroke="#e09d4b" stroke-dasharray="5,2" d="M1724.04,-1149.27C1674.83,-1001.1 1664.51,-976.87 1598.87,-928.62"/>
<polygon fill="#e09d4b" stroke="#e09d4b" points="1591.13,-923 1601.86,-925.23 1594.19,-925.22 1599.22,-928.87 1599.22,-928.87 1599.22,-928.87 1594.19,-925.22 1596.58,-932.52 1591.13,-923"/>
</g>
<!-- 8129&#45;&gt;44816 -->
<g id="edge53" class="edge">
<title>8129&#45;&gt;44816</title>
<path fill="none" stroke="#00876c" stroke-dasharray="5,2" d="M1786.31,-1176.19C1953.98,-1190.26 1982.42,-1197.11 2055.31,-1252.84"/>
<polygon fill="#00876c" stroke="#00876c" points="2062.98,-1258.76 2052.31,-1256.21 2059.98,-1256.45 2055.06,-1252.65 2055.06,-1252.65 2055.06,-1252.65 2059.98,-1256.45 2057.81,-1249.09 2062.98,-1258.76"/>
</g>
<!-- 8129&#45;&gt;50728 -->
<g id="edge54" class="edge">
<title>8129&#45;&gt;50728</title>
<path fill="none" stroke="#b8bf62" stroke-width="2" d="M1735.17,-1193.82C1754.77,-1312.59 1751.07,-1328.68 1664.67,-1498.08"/>
<polygon fill="#b8bf62" stroke="#b8bf62" stroke-width="2" points="1660.79,-1505.68 1661.33,-1494.73 1661.51,-1503.17 1664.89,-1496.54 1665.34,-1496.77 1665.78,-1497 1662.4,-1503.62 1669.34,-1498.82 1660.79,-1505.68"/>
</g>
<!-- 9426 -->
<g id="node21" class="node">
<title>9426</title>
<polygon fill="none" stroke="black" points="1285.17,-451.04 1285.17,-465.95 1223.41,-476.49 1136.06,-476.49 1074.29,-465.95 1074.29,-451.04 1136.06,-440.49 1223.41,-440.49 1285.17,-451.04"/>
<text text-anchor="middle" x="1179.73" y="-453.44" font-family="Times,serif" font-size="14.00">Mozilla Public License</text>
</g>
<!-- 9426&#45;&gt;9432 -->
<g id="edge55" class="edge">
<title>9426&#45;&gt;9432</title>
<path fill="none" stroke="#00876c" stroke-dasharray="5,2" d="M1210.07,-476.96C1281.07,-521 1297.07,-540.86 1400.36,-692.9"/>
<polygon fill="#00876c" stroke="#00876c" points="1405.96,-701.14 1396.61,-695.39 1403.83,-698.01 1400.34,-692.86 1400.34,-692.86 1400.34,-692.86 1403.83,-698.01 1404.06,-690.33 1405.96,-701.14"/>
</g>
<!-- 9431 -->
<g id="node22" class="node">
<title>9431</title>
<ellipse fill="none" stroke="#00876c" cx="1031.14" cy="-513.51" rx="157.15" ry="28.99"/>
<text text-anchor="middle" x="1031.14" y="-516.71" font-family="Times,serif" font-size="14.00" fill="gray">BlueOakCouncil</text>
<text text-anchor="middle" x="1031.14" y="-500.21" font-family="Times,serif" font-size="14.00" fill="gray">5132a9c25bf138ebd8c02b82cba574af</text>
</g>
<!-- 9431&#45;&gt;9432 -->
<g id="edge56" class="edge">
<title>9431&#45;&gt;9432</title>
<path fill="none" stroke="#00876c" d="M1148.66,-533.14C1213.53,-551.07 1258.94,-586.66 1387.11,-695.14"/>
<polygon fill="#00876c" stroke="#00876c" points="1384.63,-697.63 1394.52,-701.42 1389.15,-692.28 1384.63,-697.63"/>
</g>
<!-- 9658 -->
<g id="node24" class="node">
<title>9658</title>
<ellipse fill="none" stroke="#58a066" cx="2533.72" cy="-591.89" rx="152.91" ry="28.99"/>
<text text-anchor="middle" x="2533.72" y="-595.09" font-family="Times,serif" font-size="14.00" fill="gray">OSADLRule</text>
<text text-anchor="middle" x="2533.72" y="-578.59" font-family="Times,serif" font-size="14.00" fill="gray">0c1fe9a3fb4fe63990a77aa772cb86fe</text>
</g>
<!-- 9658&#45;&gt;9659 -->
<g id="edge57" class="edge">
<title>9658&#45;&gt;9659</title>
<path fill="none" stroke="#58a066" d="M2386.26,-599.82C2328.83,-611.21 2264.85,-638.24 2122.58,-701.53"/>
<polygon fill="#58a066" stroke="#58a066" points="2121.29,-698.27 2113.58,-705.53 2124.14,-704.66 2121.29,-698.27"/>
</g>
<!-- 9930 -->
<g id="node26" class="node">
<title>9930</title>
<ellipse fill="none" stroke="#58a066" cx="2432.41" cy="-468.57" rx="155.56" ry="28.99"/>
<text text-anchor="middle" x="2432.41" y="-471.77" font-family="Times,serif" font-size="14.00" fill="gray">OSADLMatrix</text>
<text text-anchor="middle" x="2432.41" y="-455.27" font-family="Times,serif" font-size="14.00" fill="gray">9930f4c2efaab696874ad5c65e171f62</text>
</g>
<!-- 9930&#45;&gt;9659 -->
<g id="edge58" class="edge">
<title>9930&#45;&gt;9659</title>
<path fill="none" stroke="#58a066" d="M2378.43,-496.13C2307.52,-533.52 2273.09,-560.13 2105.3,-695.96"/>
<polygon fill="#58a066" stroke="#58a066" points="2103.17,-693.18 2097.6,-702.19 2107.58,-698.62 2103.17,-693.18"/>
</g>
<!-- 10309 -->
<g id="node27" class="node">
<title>10309</title>
<ellipse fill="none" stroke="#deb256" cx="1482.47" cy="-203.35" rx="159.81" ry="28.99"/>
<text text-anchor="middle" x="1482.47" y="-206.55" font-family="Times,serif" font-size="14.00" fill="gray">FSF</text>
<text text-anchor="middle" x="1482.47" y="-190.05" font-family="Times,serif" font-size="14.00" fill="gray">c5556d5322342d54946d083a8976b1ff</text>
</g>
<!-- 10309&#45;&gt;10310 -->
<g id="edge59" class="edge">
<title>10309&#45;&gt;10310</title>
<path fill="none" stroke="#deb256" d="M1515.17,-232.16C1590.67,-299.96 1603,-326.44 1678.88,-530.07"/>
<polygon fill="#deb256" stroke="#deb256" points="1675.59,-531.29 1682.36,-539.44 1682.15,-528.85 1675.59,-531.29"/>
</g>
<!-- 10311 -->
<g id="node29" class="node">
<title>10311</title>
<polygon fill="none" stroke="#deb256" points="1945.92,-143.18 1945.92,-169.17 1860.74,-187.56 1740.27,-187.56 1655.08,-169.17 1655.08,-143.18 1740.27,-124.8 1860.74,-124.8 1945.92,-143.18"/>
<polygon fill="none" stroke="#deb256" points="1949.92,-139.95 1949.92,-172.4 1861.16,-191.56 1739.84,-191.56 1651.08,-172.4 1651.08,-139.95 1739.84,-120.8 1861.16,-120.8 1949.92,-139.95"/>
<text text-anchor="middle" x="1800.5" y="-159.38" font-family="Times,serif" font-size="14.00">Mozilla Public</text>
<text text-anchor="middle" x="1800.5" y="-142.88" font-family="Times,serif" font-size="14.00"> &#160;&#160;&#160;&#160;&#160;&#160;License (MPL) version 2.0</text>
</g>
<!-- 10311&#45;&gt;10310 -->
<g id="edge60" class="edge">
<title>10311&#45;&gt;10310</title>
<path fill="none" stroke="#deb256" stroke-width="2" d="M1789.88,-191.85C1764.65,-276.8 1757.07,-305.81 1699.64,-530.17"/>
<polygon fill="#deb256" stroke="#deb256" stroke-width="2" points="1697.47,-538.65 1695.59,-527.84 1697.63,-536.04 1699.47,-528.83 1699.95,-528.96 1700.44,-529.08 1698.59,-536.29 1704.31,-530.07 1697.47,-538.65"/>
</g>
<!-- 10316 -->
<g id="node30" class="node">
<title>10316</title>
<polygon fill="none" stroke="black" points="2568.13,-1299.51 2568.13,-1314.42 2548.88,-1324.97 2521.65,-1324.97 2502.39,-1314.42 2502.39,-1299.51 2521.65,-1288.97 2548.88,-1288.97 2568.13,-1299.51"/>
<text text-anchor="middle" x="2535.26" y="-1301.92" font-family="Times,serif" font-size="14.00">MPL</text>
</g>
<!-- 10316&#45;&gt;44816 -->
<g id="edge61" class="edge">
<title>10316&#45;&gt;44816</title>
<path fill="none" stroke="#00876c" stroke-dasharray="5,2" d="M2502.03,-1300.01C2427.38,-1284.64 2393.46,-1280.5 2274.65,-1280.47"/>
<polygon fill="#00876c" stroke="#00876c" points="2264.87,-1280.48 2274.87,-1275.97 2268.65,-1280.48 2274.87,-1280.47 2274.87,-1280.47 2274.87,-1280.47 2268.65,-1280.48 2274.88,-1284.97 2264.87,-1280.48"/>
</g>
<!-- 10316&#45;&gt;44824 -->
<g id="edge62" class="edge">
<title>10316&#45;&gt;44824</title>
<path fill="none" stroke="#00876c" stroke-dasharray="5,2" d="M2559.34,-1294.34C2564.44,-1291.6 2568.57,-1289.3 2572.04,-1287.21"/>
<polygon fill="#00876c" stroke="#00876c" points="2580.24,-1281.7 2574.45,-1291.01 2577.1,-1283.81 2571.94,-1287.28 2571.94,-1287.28 2571.94,-1287.28 2577.1,-1283.81 2569.43,-1283.54 2580.24,-1281.7"/>
</g>
<!-- 10973 -->
<g id="node31" class="node">
<title>10973</title>
<ellipse fill="none" stroke="#58a066" cx="2211.4" cy="-620.85" rx="153.97" ry="28.99"/>
<text text-anchor="middle" x="2211.4" y="-624.05" font-family="Times,serif" font-size="14.00" fill="gray">ChooseALicense</text>
<text text-anchor="middle" x="2211.4" y="-607.55" font-family="Times,serif" font-size="14.00" fill="gray">4b9439dff345d556ffb0832df7fde344</text>
</g>
<!-- 10973&#45;&gt;10974 -->
<g id="edge63" class="edge">
<title>10973&#45;&gt;10974</title>
<path fill="none" stroke="#58a066" d="M2193.55,-650.1C2158.42,-707.24 2142.39,-729.01 2038.12,-865.91"/>
<polygon fill="#58a066" stroke="#58a066" points="2035.65,-863.38 2032.38,-873.46 2041.22,-867.63 2035.65,-863.38"/>
</g>
<!-- 10975 -->
<g id="node33" class="node">
<title>10975</title>
<polygon fill="none" stroke="black" points="2080.89,-1145.62 2080.89,-1160.53 2059.69,-1171.08 2029.71,-1171.08 2008.51,-1160.53 2008.51,-1145.62 2029.71,-1135.08 2059.69,-1135.08 2080.89,-1145.62"/>
<polygon fill="none" stroke="black" points="2084.89,-1143.14 2084.89,-1163.01 2060.63,-1175.08 2028.77,-1175.08 2004.51,-1163.01 2004.51,-1143.14 2028.77,-1131.08 2060.63,-1131.08 2084.89,-1143.14"/>
<text text-anchor="middle" x="2044.7" y="-1148.03" font-family="Times,serif" font-size="14.00">mpl&#45;2</text>
</g>
<!-- 10975&#45;&gt;10974 -->
<g id="edge64" class="edge">
<title>10975&#45;&gt;10974</title>
<path fill="none" stroke="#58a066" stroke-width="2" d="M2048.24,-1130.75C2067.12,-1010.84 2067.64,-991.81 2032.7,-928.81"/>
<polygon fill="#58a066" stroke="#58a066" stroke-width="2" points="2028.48,-921.3 2037.3,-927.81 2030.17,-923.29 2033.82,-929.77 2033.38,-930.02 2032.94,-930.26 2029.3,-923.78 2029.46,-932.22 2028.48,-921.3"/>
</g>
<!-- 10975&#45;&gt;25894 -->
<g id="edge65" class="edge">
<title>10975&#45;&gt;25894</title>
<path fill="none" stroke="#98b561" stroke-width="2" d="M2040.26,-1130.91C2014.32,-1002.1 2007.01,-983.53 1925.76,-923.81"/>
<polygon fill="#98b561" stroke="#98b561" stroke-width="2" points="1919.09,-918.94 1929.82,-921.2 1921.46,-920.05 1927.46,-924.43 1927.17,-924.84 1926.87,-925.24 1920.87,-920.86 1924.52,-928.47 1919.09,-918.94"/>
</g>
<!-- 10975&#45;&gt;44816 -->
<g id="edge66" class="edge">
<title>10975&#45;&gt;44816</title>
<path fill="none" stroke="#00876c" stroke-dasharray="5,2" d="M2063.57,-1174.1C2087.66,-1201.74 2092.55,-1213.41 2092.81,-1248.47"/>
<polygon fill="#00876c" stroke="#00876c" points="2092.77,-1258.36 2088.31,-1248.34 2092.79,-1254.57 2092.81,-1248.36 2092.81,-1248.36 2092.81,-1248.36 2092.79,-1254.57 2097.31,-1248.37 2092.77,-1258.36"/>
</g>
<!-- 50176 -->
<g id="node58" class="node">
<title>50176</title>
<polygon fill="none" stroke="#deb256" points="2484.28,-1118.44 2484.28,-1133.35 2444.91,-1143.89 2389.22,-1143.89 2349.85,-1133.35 2349.85,-1118.44 2389.22,-1107.89 2444.91,-1107.89 2484.28,-1118.44"/>
<polygon fill="none" stroke="#deb256" points="2488.28,-1115.37 2488.28,-1136.42 2445.43,-1147.89 2388.7,-1147.89 2345.85,-1136.42 2345.85,-1115.37 2388.7,-1103.89 2445.43,-1103.89 2488.28,-1115.37"/>
<text text-anchor="middle" x="2417.06" y="-1120.84" font-family="Times,serif" font-size="14.00">warpr:MPL&#45;2</text>
</g>
<!-- 10975&#45;&gt;50176 -->
<g id="edge67" class="edge">
<title>10975&#45;&gt;50176</title>
<path fill="none" stroke="#deb256" stroke-width="2" d="M2085.34,-1146.37C2233.39,-1122 2282.4,-1114.8 2334.72,-1117.28"/>
<polygon fill="#deb256" stroke="#deb256" stroke-width="2" points="2343.18,-1117.79 2332.93,-1121.68 2340.59,-1118.13 2333.17,-1117.69 2333.2,-1117.19 2333.23,-1116.69 2340.65,-1117.13 2333.46,-1112.7 2343.18,-1117.79"/>
</g>
<!-- 10975&#45;&gt;50728 -->
<g id="edge68" class="edge">
<title>10975&#45;&gt;50728</title>
<path fill="none" stroke="#b8bf62" stroke-width="2" d="M2031.69,-1175.17C1954.83,-1305.25 1938.35,-1320.75 1688.28,-1501.29"/>
<polygon fill="#b8bf62" stroke="#b8bf62" stroke-width="2" points="1681.26,-1506.36 1686.73,-1496.86 1683.04,-1504.46 1689.07,-1500.1 1689.37,-1500.51 1689.66,-1500.91 1683.63,-1505.27 1692,-1504.16 1681.26,-1506.36"/>
</g>
<!-- 19535 -->
<g id="node34" class="node">
<title>19535</title>
<ellipse fill="none" stroke="#dac767" cx="1352.31" cy="-1470.64" rx="155.56" ry="28.99"/>
<text text-anchor="middle" x="1352.31" y="-1473.84" font-family="Times,serif" font-size="14.00" fill="gray">ScancodeData</text>
<text text-anchor="middle" x="1352.31" y="-1457.34" font-family="Times,serif" font-size="14.00" fill="gray">23ed72c032ac63bf884981224ff4f286</text>
</g>
<!-- 19535&#45;&gt;19536 -->
<g id="edge69" class="edge">
<title>19535&#45;&gt;19536</title>
<path fill="none" stroke="#dac767" d="M1399.04,-1442.59C1570.7,-1339.67 1617.44,-1313.64 1690.16,-1295.92"/>
<polygon fill="#dac767" stroke="#dac767" points="1690.68,-1299.39 1699.62,-1293.71 1689.09,-1292.58 1690.68,-1299.39"/>
</g>
<!-- 19536&#45;&gt;44816 -->
<g id="edge70" class="edge">
<title>19536&#45;&gt;44816</title>
<path fill="none" stroke="#00876c" stroke-dasharray="5,2" d="M1861.21,-1270.86C1911.35,-1266.35 1944.56,-1263.97 1970.89,-1263.79"/>
<polygon fill="#00876c" stroke="#00876c" points="1980.56,-1263.84 1970.54,-1268.29 1976.78,-1263.82 1970.56,-1263.79 1970.56,-1263.79 1970.56,-1263.79 1976.78,-1263.82 1970.58,-1259.29 1980.56,-1263.84"/>
</g>
<!-- 19536&#45;&gt;50728 -->
<g id="edge71" class="edge">
<title>19536&#45;&gt;50728</title>
<path fill="none" stroke="#b8bf62" stroke-width="2" d="M1772.41,-1301.28C1766.44,-1387.36 1759.66,-1402.1 1675.06,-1499.47"/>
<polygon fill="#b8bf62" stroke="#b8bf62" stroke-width="2" points="1669.33,-1506.04 1672.51,-1495.54 1670.64,-1503.78 1675.52,-1498.17 1675.9,-1498.5 1676.28,-1498.83 1671.39,-1504.44 1679.29,-1501.45 1669.33,-1506.04"/>
</g>
<!-- 19537 -->
<g id="node36" class="node">
<title>19537</title>
<polygon fill="none" stroke="black" points="1930.89,-1501.23 1930.89,-1516.14 1902.87,-1526.68 1863.25,-1526.68 1835.23,-1516.14 1835.23,-1501.23 1863.25,-1490.68 1902.87,-1490.68 1930.89,-1501.23"/>
<polygon fill="none" stroke="black" points="1934.89,-1498.46 1934.89,-1518.91 1903.6,-1530.68 1862.52,-1530.68 1831.23,-1518.91 1831.23,-1498.46 1862.52,-1486.68 1903.6,-1486.68 1934.89,-1498.46"/>
<text text-anchor="middle" x="1883.06" y="-1503.63" font-family="Times,serif" font-size="14.00">MPL 2.0</text>
</g>
<!-- 19537&#45;&gt;19536 -->
<g id="edge72" class="edge">
<title>19537&#45;&gt;19536</title>
<path fill="none" stroke="#dac767" stroke-width="2" d="M1882.25,-1486.23C1878.79,-1397.25 1873.33,-1382.2 1803.18,-1309.21"/>
<polygon fill="#dac767" stroke="#dac767" stroke-width="2" points="1797.41,-1303.24 1807.59,-1307.31 1799.55,-1304.73 1804.72,-1310.08 1804.36,-1310.43 1804,-1310.78 1798.83,-1305.43 1801.12,-1313.56 1797.41,-1303.24"/>
</g>
<!-- 19537&#45;&gt;44816 -->
<g id="edge73" class="edge">
<title>19537&#45;&gt;44816</title>
<path fill="none" stroke="#00876c" stroke-dasharray="5,2" d="M1910.58,-1488.92C2032.83,-1401.01 2049.18,-1385.97 2079.17,-1314.25"/>
<polygon fill="#00876c" stroke="#00876c" points="2082.83,-1305.36 2083.18,-1316.32 2081.39,-1308.85 2079.02,-1314.6 2079.02,-1314.6 2079.02,-1314.6 2081.39,-1308.85 2074.86,-1312.88 2082.83,-1305.36"/>
</g>
<!-- 19537&#45;&gt;50728 -->
<g id="edge74" class="edge">
<title>19537&#45;&gt;50728</title>
<path fill="none" stroke="#b8bf62" stroke-width="2" d="M1839.65,-1522.45C1837.74,-1522.96 1835.85,-1523.45 1833.96,-1523.92"/>
<polygon fill="#b8bf62" stroke="#b8bf62" stroke-width="2" points="1825.56,-1525.77 1834.36,-1519.22 1827.96,-1524.73 1835.22,-1523.13 1835.33,-1523.62 1835.43,-1524.1 1828.17,-1525.7 1836.29,-1528.01 1825.56,-1525.77"/>
</g>
<!-- 25893 -->
<g id="node37" class="node">
<title>25893</title>
<ellipse fill="none" stroke="#98b561" cx="2045.04" cy="-554.83" rx="155.03" ry="28.99"/>
<text text-anchor="middle" x="2045.04" y="-558.03" font-family="Times,serif" font-size="14.00" fill="gray">OSLC</text>
<text text-anchor="middle" x="2045.04" y="-541.53" font-family="Times,serif" font-size="14.00" fill="gray">3fb453a25db71e39dfa5e1f439f16e68</text>
</g>
<!-- 25893&#45;&gt;25894 -->
<g id="edge75" class="edge">
<title>25893&#45;&gt;25894</title>
<path fill="none" stroke="#98b561" d="M2034.73,-584.14C2007.67,-660.47 1996.61,-683.37 1904.38,-863.9"/>
<polygon fill="#98b561" stroke="#98b561" points="1901.32,-862.18 1899.89,-872.67 1907.56,-865.36 1901.32,-862.18"/>
</g>
<!-- 25932 -->
<g id="node39" class="node">
<title>25932</title>
<ellipse fill="none" stroke="#e18745" cx="1012.53" cy="-1122.56" rx="160.34" ry="28.99"/>
<text text-anchor="middle" x="1012.53" y="-1125.76" font-family="Times,serif" font-size="14.00" fill="gray">Fossology</text>
<text text-anchor="middle" x="1012.53" y="-1109.26" font-family="Times,serif" font-size="14.00" fill="gray">deb5de04178c2db879598edf21b95799</text>
</g>
<!-- 25932&#45;&gt;25933 -->
<g id="edge76" class="edge">
<title>25932&#45;&gt;25933</title>
<path fill="none" stroke="#e18745" d="M1043.05,-1093.81C1124.62,-1017.72 1152.32,-1001.96 1265.57,-996.05"/>
<polygon fill="#e18745" stroke="#e18745" points="1265.48,-999.56 1275.29,-995.58 1265.14,-992.57 1265.48,-999.56"/>
</g>
<!-- 28331 -->
<g id="node41" class="node">
<title>28331</title>
<ellipse fill="none" stroke="#379469" cx="2101.82" cy="-955.98" rx="156.09" ry="28.99"/>
<text text-anchor="middle" x="2101.82" y="-959.18" font-family="Times,serif" font-size="14.00" fill="gray">OKFN</text>
<text text-anchor="middle" x="2101.82" y="-942.68" font-family="Times,serif" font-size="14.00" fill="gray">6476304feabcca8115a98ed8ec4c3ec0</text>
</g>
<!-- 28331&#45;&gt;2870 -->
<g id="edge77" class="edge">
<title>28331&#45;&gt;2870</title>
<path fill="none" stroke="#379469" d="M2039.43,-929.08C1956.28,-895.59 1920.31,-898.26 1764.41,-933.61"/>
<polygon fill="#379469" stroke="#379469" points="1763.93,-930.13 1754.95,-935.77 1765.48,-936.96 1763.93,-930.13"/>
</g>
<!-- 28332 -->
<g id="node42" class="node">
<title>28332</title>
<polygon fill="none" stroke="black" points="1593.94,-1164.02 1593.94,-1178.93 1561.71,-1189.48 1516.12,-1189.48 1483.89,-1178.93 1483.89,-1164.02 1516.12,-1153.48 1561.71,-1153.48 1593.94,-1164.02"/>
<polygon fill="none" stroke="black" points="1597.94,-1161.12 1597.94,-1181.83 1562.35,-1193.48 1515.48,-1193.48 1479.89,-1181.83 1479.89,-1161.12 1515.48,-1149.48 1562.35,-1149.48 1597.94,-1161.12"/>
<text text-anchor="middle" x="1538.91" y="-1166.43" font-family="Times,serif" font-size="14.00">mozilla2.0</text>
</g>
<!-- 28332&#45;&gt;2870 -->
<g id="edge78" class="edge">
<title>28332&#45;&gt;2870</title>
<path fill="none" stroke="#379469" stroke-dasharray="5,2" d="M1552.12,-1149.35C1620.46,-1034.97 1635.97,-1010.46 1671.52,-976.45"/>
<polygon fill="#379469" stroke="#379469" points="1678.55,-969.85 1674.34,-979.98 1675.79,-972.44 1671.26,-976.7 1671.26,-976.7 1671.26,-976.7 1675.79,-972.44 1668.18,-973.42 1678.55,-969.85"/>
</g>
<!-- 28332&#45;&gt;50728 -->
<g id="edge79" class="edge">
<title>28332&#45;&gt;50728</title>
<path fill="none" stroke="#b8bf62" stroke-width="2" d="M1557.92,-1193.82C1642.13,-1293.33 1646.72,-1310.84 1648.06,-1496.92"/>
<polygon fill="#b8bf62" stroke="#b8bf62" stroke-width="2" points="1648.12,-1505.51 1643.55,-1495.55 1647.6,-1502.95 1647.55,-1495.52 1648.05,-1495.51 1648.55,-1495.51 1648.6,-1502.95 1652.55,-1495.48 1648.12,-1505.51"/>
</g>
<!-- 35070 -->
<g id="node43" class="node">
<title>35070</title>
<ellipse fill="none" stroke="#e06f45" cx="2063.79" cy="-295.65" rx="161.93" ry="28.99"/>
<text text-anchor="middle" x="2063.79" y="-298.85" font-family="Times,serif" font-size="14.00" fill="gray">OrtLicenseCategorization</text>
<text text-anchor="middle" x="2063.79" y="-282.35" font-family="Times,serif" font-size="14.00" fill="gray">b3dbbd0a30c3426b8d9687b7a92163a1</text>
</g>
<!-- 35070&#45;&gt;2869 -->
<g id="edge80" class="edge">
<title>35070&#45;&gt;2869</title>
<path fill="none" stroke="#e06f45" d="M2055.9,-324.9C2028.48,-425.92 2019.34,-449.84 1921.91,-689.84"/>
<polygon fill="#e06f45" stroke="#e06f45" points="1918.75,-688.33 1918.23,-698.91 1925.23,-690.96 1918.75,-688.33"/>
</g>
<!-- 36209 -->
<g id="node44" class="node">
<title>36209</title>
<ellipse fill="none" stroke="#e09d4b" cx="2056.54" cy="-361.74" rx="152.91" ry="28.99"/>
<text text-anchor="middle" x="2056.54" y="-364.94" font-family="Times,serif" font-size="14.00" fill="gray">OrtLicenseCategorization</text>
<text text-anchor="middle" x="2056.54" y="-348.44" font-family="Times,serif" font-size="14.00" fill="gray">a16fff46c2d81b53fe7a2ed53865e0bf</text>
</g>
<!-- 36209&#45;&gt;2869 -->
<g id="edge81" class="edge">
<title>36209&#45;&gt;2869</title>
<path fill="none" stroke="#e09d4b" d="M2046.74,-391.05C2019.72,-471.4 2009.72,-494.92 1923.1,-689.99"/>
<polygon fill="#e09d4b" stroke="#e09d4b" points="1919.98,-688.38 1919.12,-698.94 1926.38,-691.22 1919.98,-688.38"/>
</g>
<!-- 37204 -->
<g id="node45" class="node">
<title>37204</title>
<ellipse fill="none" stroke="#379469" cx="1273.36" cy="-291.18" rx="162.46" ry="28.99"/>
<text text-anchor="middle" x="1273.36" y="-294.38" font-family="Times,serif" font-size="14.00" fill="gray">CavilLicenseChange</text>
<text text-anchor="middle" x="1273.36" y="-277.88" font-family="Times,serif" font-size="14.00" fill="gray">07dd846a61d7b47c5d73d40c0b36d816</text>
</g>
<!-- 37204&#45;&gt;37205 -->
<g id="edge82" class="edge">
<title>37204&#45;&gt;37205</title>
<path fill="none" stroke="#379469" d="M1306.02,-319.95C1375.39,-382.26 1390.43,-409.24 1485.11,-604.82"/>
<polygon fill="#379469" stroke="#379469" points="1481.95,-606.34 1489.46,-613.81 1488.25,-603.29 1481.95,-606.34"/>
</g>
<!-- 44815 -->
<g id="node47" class="node">
<title>44815</title>
<ellipse fill="none" stroke="#00876c" cx="2727.67" cy="-1509.53" rx="159.81" ry="28.99"/>
<text text-anchor="middle" x="2727.67" y="-1512.73" font-family="Times,serif" font-size="14.00" fill="gray">MetaeffektLicense</text>
<text text-anchor="middle" x="2727.67" y="-1496.23" font-family="Times,serif" font-size="14.00" fill="gray">db8e012043d3cd7c784c96dc088fd356</text>
</g>
<!-- 44815&#45;&gt;44816 -->
<g id="edge83" class="edge">
<title>44815&#45;&gt;44816</title>
<path fill="none" stroke="#00876c" d="M2684.64,-1481.29C2553.72,-1396.19 2513.14,-1381.97 2190.09,-1305.07"/>
<polygon fill="#00876c" stroke="#00876c" points="2190.98,-1301.68 2180.44,-1302.77 2189.36,-1308.49 2190.98,-1301.68"/>
</g>
<!-- 44817 -->
<g id="node49" class="node">
<title>44817</title>
<polygon fill="none" stroke="black" points="2054.77,-1326.42 2054.77,-1341.33 1976.45,-1351.88 1865.7,-1351.88 1787.38,-1341.33 1787.38,-1326.42 1865.7,-1315.88 1976.45,-1315.88 2054.77,-1326.42"/>
<polygon fill="none" stroke="black" points="2058.77,-1322.92 2058.77,-1344.83 1976.72,-1355.88 1865.43,-1355.88 1783.38,-1344.83 1783.38,-1322.92 1865.43,-1311.88 1976.72,-1311.88 2058.77,-1322.92"/>
<text text-anchor="middle" x="1921.08" y="-1328.83" font-family="Times,serif" font-size="14.00">Mozilla Public License, v. 2.0</text>
</g>
<!-- 44817&#45;&gt;44816 -->
<g id="edge84" class="edge">
<title>44817&#45;&gt;44816</title>
<path fill="none" stroke="#00876c" stroke-dasharray="5,2" d="M1990.97,-1313.43C1998.8,-1311.13 2005.69,-1309.1 2011.87,-1307.27"/>
<polygon fill="#00876c" stroke="#00876c" points="2021.09,-1304.52 2012.79,-1311.69 2017.47,-1305.6 2011.51,-1307.38 2011.51,-1307.38 2011.51,-1307.38 2017.47,-1305.6 2010.22,-1303.06 2021.09,-1304.52"/>
</g>
<!-- 44817&#45;&gt;50728 -->
<g id="edge85" class="edge">
<title>44817&#45;&gt;50728</title>
<path fill="none" stroke="#b8bf62" stroke-width="2" d="M1904.94,-1356.18C1856.38,-1422.56 1838.65,-1435.92 1703.56,-1502.89"/>
<polygon fill="#b8bf62" stroke="#b8bf62" stroke-width="2" points="1695.81,-1506.73 1702.78,-1498.26 1697.89,-1505.14 1704.55,-1501.84 1704.78,-1502.29 1705,-1502.74 1698.33,-1506.04 1706.77,-1506.33 1695.81,-1506.73"/>
</g>
<!-- 44818 -->
<g id="node50" class="node">
<title>44818</title>
<polygon fill="none" stroke="black" points="2342.37,-1378.49 2342.37,-1393.4 2248.15,-1403.95 2114.91,-1403.95 2020.69,-1393.4 2020.69,-1378.49 2114.91,-1367.95 2248.15,-1367.95 2342.37,-1378.49"/>
<polygon fill="none" stroke="black" points="2346.37,-1374.92 2346.37,-1396.98 2248.38,-1407.95 2114.69,-1407.95 2016.69,-1396.98 2016.69,-1374.92 2114.69,-1363.95 2248.38,-1363.95 2346.37,-1374.92"/>
<text text-anchor="middle" x="2181.53" y="-1380.9" font-family="Times,serif" font-size="14.00">Mozilla Public License (Version 2.0)</text>
</g>
<!-- 44818&#45;&gt;44816 -->
<g id="edge86" class="edge">
<title>44818&#45;&gt;44816</title>
<path fill="none" stroke="#00876c" stroke-dasharray="5,2" d="M2174.41,-1363.66C2165.91,-1338.81 2158.81,-1328.39 2134.34,-1310.46"/>
<polygon fill="#00876c" stroke="#00876c" points="2126.34,-1304.76 2137.1,-1306.9 2129.42,-1306.96 2134.49,-1310.56 2134.49,-1310.56 2134.49,-1310.56 2129.42,-1306.96 2131.88,-1314.23 2126.34,-1304.76"/>
</g>
<!-- 44818&#45;&gt;50728 -->
<g id="edge87" class="edge">
<title>44818&#45;&gt;50728</title>
<path fill="none" stroke="#b8bf62" stroke-width="2" d="M2135.55,-1408.4C2035.66,-1456.43 1995.13,-1467.57 1764.3,-1509.34"/>
<polygon fill="#b8bf62" stroke="#b8bf62" stroke-width="2" points="1755.92,-1510.85 1764.96,-1504.65 1758.35,-1509.91 1765.67,-1508.58 1765.76,-1509.08 1765.85,-1509.57 1758.53,-1510.89 1766.56,-1513.5 1755.92,-1510.85"/>
</g>
<!-- 44819 -->
<g id="node51" class="node">
<title>44819</title>
<polygon fill="none" stroke="black" points="1969.76,-1693.65 1969.76,-1708.56 1896.31,-1719.11 1792.44,-1719.11 1718.99,-1708.56 1718.99,-1693.65 1792.44,-1683.11 1896.31,-1683.11 1969.76,-1693.65"/>
<polygon fill="none" stroke="black" points="1973.76,-1690.18 1973.76,-1712.03 1896.6,-1723.11 1792.16,-1723.11 1714.99,-1712.03 1714.99,-1690.18 1792.16,-1679.11 1896.6,-1679.11 1973.76,-1690.18"/>
<text text-anchor="middle" x="1844.38" y="-1696.06" font-family="Times,serif" font-size="14.00">Mozilla License Version 2.0</text>
</g>
<!-- 44819&#45;&gt;44816 -->
<g id="edge88" class="edge">
<title>44819&#45;&gt;44816</title>
<path fill="none" stroke="#00876c" stroke-dasharray="5,2" d="M1869.26,-1678.67C2054.36,-1511.57 2065.53,-1494.93 2088.17,-1315.26"/>
<polygon fill="#00876c" stroke="#00876c" points="2089.39,-1305.53 2092.61,-1316.02 2088.92,-1309.29 2088.15,-1315.46 2088.15,-1315.46 2088.15,-1315.46 2088.92,-1309.29 2083.68,-1314.9 2089.39,-1305.53"/>
</g>
<!-- 44819&#45;&gt;50728 -->
<g id="edge89" class="edge">
<title>44819&#45;&gt;50728</title>
<path fill="none" stroke="#b8bf62" stroke-width="2" d="M1821.55,-1678.67C1789.16,-1647.13 1770.95,-1631.55 1684.08,-1559.74"/>
<polygon fill="#b8bf62" stroke="#b8bf62" stroke-width="2" points="1677.33,-1554.16 1687.91,-1557.06 1679.62,-1555.41 1685.36,-1560.15 1685.04,-1560.53 1684.72,-1560.92 1678.99,-1556.18 1682.17,-1564 1677.33,-1554.16"/>
</g>
<!-- 44820 -->
<g id="node52" class="node">
<title>44820</title>
<polygon fill="none" stroke="black" points="2230.48,-1718.82 2230.48,-1733.74 2159.3,-1744.28 2058.65,-1744.28 1987.47,-1733.74 1987.47,-1718.82 2058.65,-1708.28 2159.3,-1708.28 2230.48,-1718.82"/>
<polygon fill="none" stroke="black" points="2234.48,-1715.37 2234.48,-1737.19 2159.6,-1748.28 2058.35,-1748.28 1983.47,-1737.19 1983.47,-1715.37 2058.35,-1704.28 2159.6,-1704.28 2234.48,-1715.37"/>
<text text-anchor="middle" x="2108.98" y="-1721.23" font-family="Times,serif" font-size="14.00">Mozilla Public Licence 2.0</text>
</g>
<!-- 44820&#45;&gt;44816 -->
<g id="edge90" class="edge">
<title>44820&#45;&gt;44816</title>
<path fill="none" stroke="#00876c" stroke-dasharray="5,2" d="M2117.34,-1704.03C2185.3,-1522.95 2185.74,-1506.42 2105.93,-1314.51"/>
<polygon fill="#00876c" stroke="#00876c" points="2102.16,-1305.46 2110.16,-1312.96 2103.61,-1308.95 2106,-1314.69 2106,-1314.69 2106,-1314.69 2103.61,-1308.95 2101.85,-1316.42 2102.16,-1305.46"/>
</g>
<!-- 44820&#45;&gt;50728 -->
<g id="edge91" class="edge">
<title>44820&#45;&gt;50728</title>
<path fill="none" stroke="#b8bf62" stroke-width="2" d="M2052.18,-1704.7C1967.87,-1672.38 1925.8,-1654.02 1708.66,-1557.11"/>
<polygon fill="#b8bf62" stroke="#b8bf62" stroke-width="2" points="1700.75,-1553.58 1711.71,-1553.55 1703.29,-1554.17 1710.08,-1557.2 1709.88,-1557.66 1709.68,-1558.11 1702.88,-1555.08 1708.05,-1561.77 1700.75,-1553.58"/>
</g>
<!-- 44821 -->
<g id="node53" class="node">
<title>44821</title>
<polygon fill="none" stroke="#00876c" points="2650.73,-1633.63 2650.73,-1648.54 2565.6,-1659.09 2445.21,-1659.09 2360.08,-1648.54 2360.08,-1633.63 2445.21,-1623.09 2565.6,-1623.09 2650.73,-1633.63"/>
<text text-anchor="middle" x="2505.41" y="-1636.04" font-family="Times,serif" font-size="14.00">Mozilla Public License version 2</text>
</g>
<!-- 44821&#45;&gt;44816 -->
<g id="edge92" class="edge">
<title>44821&#45;&gt;44816</title>
<path fill="none" stroke="#00876c" stroke-dasharray="5,2" d="M2495.24,-1622.61C2412.8,-1473.02 2398.37,-1458.96 2140.87,-1309.93"/>
<polygon fill="#00876c" stroke="#00876c" points="2132.26,-1304.96 2143.17,-1306.07 2135.54,-1306.85 2140.92,-1309.96 2140.92,-1309.96 2140.92,-1309.96 2135.54,-1306.85 2138.66,-1313.86 2132.26,-1304.96"/>
</g>
<!-- 44822 -->
<g id="node54" class="node">
<title>44822</title>
<polygon fill="none" stroke="#00876c" points="2881.31,-1413.36 2881.31,-1428.28 2773.79,-1438.82 2621.73,-1438.82 2514.21,-1428.28 2514.21,-1413.36 2621.73,-1402.82 2773.79,-1402.82 2881.31,-1413.36"/>
<text text-anchor="middle" x="2697.76" y="-1415.77" font-family="Times,serif" font-size="14.00">Mozilla Public License (MPL) version 2.0</text>
</g>
<!-- 44822&#45;&gt;44816 -->
<g id="edge93" class="edge">
<title>44822&#45;&gt;44816</title>
<path fill="none" stroke="#00876c" stroke-dasharray="5,2" d="M2657.42,-1402.46C2534.09,-1346.84 2494.11,-1336.45 2226.81,-1299.99"/>
<polygon fill="#00876c" stroke="#00876c" points="2217.18,-1298.68 2227.7,-1295.57 2220.93,-1299.19 2227.09,-1300.03 2227.09,-1300.03 2227.09,-1300.03 2220.93,-1299.19 2226.48,-1304.49 2217.18,-1298.68"/>
</g>
<!-- 50028 -->
<g id="node56" class="node">
<title>50028</title>
<ellipse fill="none" stroke="#dc574a" cx="1732.34" cy="-328.84" rx="157.68" ry="28.99"/>
<text text-anchor="middle" x="1732.34" y="-332.04" font-family="Times,serif" font-size="14.00" fill="gray">HermineLicense</text>
<text text-anchor="middle" x="1732.34" y="-315.54" font-family="Times,serif" font-size="14.00" fill="gray">cc2a1ac590bc2a667ad99ae30d046cbe</text>
</g>
<!-- 50028&#45;&gt;2869 -->
<g id="edge94" class="edge">
<title>50028&#45;&gt;2869</title>
<path fill="none" stroke="#dc574a" d="M1761.3,-357.72C1845.2,-442.47 1853.54,-467.3 1901.36,-689.3"/>
<polygon fill="#dc574a" stroke="#dc574a" points="1897.9,-689.85 1903.43,-698.89 1904.75,-688.38 1897.9,-689.85"/>
</g>
<!-- 50175 -->
<g id="node57" class="node">
<title>50175</title>
<ellipse fill="none" stroke="#deb256" cx="2848.26" cy="-1088.73" rx="158.22" ry="28.99"/>
<text text-anchor="middle" x="2848.26" y="-1091.93" font-family="Times,serif" font-size="14.00" fill="gray">WarprLicense</text>
<text text-anchor="middle" x="2848.26" y="-1075.43" font-family="Times,serif" font-size="14.00" fill="gray">0ce706e661b372112205ef4b95f22b7c</text>
</g>
<!-- 50175&#45;&gt;50176 -->
<g id="edge95" class="edge">
<title>50175&#45;&gt;50176</title>
<path fill="none" stroke="#deb256" d="M2689.82,-1089.4C2647.58,-1093.25 2592.24,-1100.76 2499.7,-1114"/>
<polygon fill="#deb256" stroke="#deb256" points="2499.44,-1110.5 2490.03,-1115.39 2500.43,-1117.43 2499.44,-1110.5"/>
</g>
<!-- 50727 -->
<g id="node59" class="node">
<title>50727</title>
<ellipse fill="none" stroke="#b8bf62" cx="1228.75" cy="-1797.09" rx="157.15" ry="28.99"/>
<text text-anchor="middle" x="1228.75" y="-1800.29" font-family="Times,serif" font-size="14.00" fill="gray">FossLicense</text>
<text text-anchor="middle" x="1228.75" y="-1783.79" font-family="Times,serif" font-size="14.00" fill="gray">df754abd894245283ebf46ea5a13cc8d</text>
</g>
<!-- 50727&#45;&gt;50728 -->
<g id="edge96" class="edge">
<title>50727&#45;&gt;50728</title>
<path fill="none" stroke="#b8bf62" d="M1328.32,-1774.35C1417.17,-1749.29 1458.91,-1712.62 1616.94,-1560.37"/>
<polygon fill="#b8bf62" stroke="#b8bf62" points="1619.18,-1563.07 1623.95,-1553.61 1614.32,-1558.03 1619.18,-1563.07"/>
</g>
<!-- 50729 -->
<g id="node61" class="node">
<title>50729</title>
<polygon fill="none" stroke="black" points="1184.5,-1491.19 1184.5,-1506.11 1094.5,-1516.65 967.22,-1516.65 877.22,-1506.11 877.22,-1491.19 967.22,-1480.65 1094.5,-1480.65 1184.5,-1491.19"/>
<polygon fill="none" stroke="black" points="1188.5,-1487.64 1188.5,-1509.66 1094.73,-1520.65 966.99,-1520.65 873.22,-1509.66 873.22,-1487.64 966.99,-1476.65 1094.73,-1476.65 1188.5,-1487.64"/>
<text text-anchor="middle" x="1030.86" y="-1493.6" font-family="Times,serif" font-size="14.00">Mozilla Public License Version 2.0</text>
</g>
<!-- 50729&#45;&gt;50728 -->
<g id="edge97" class="edge">
<title>50729&#45;&gt;50728</title>
<path fill="none" stroke="#b8bf62" stroke-width="2" d="M1096.85,-1520.74C1208.8,-1556.8 1260.2,-1560.74 1477.25,-1544.11"/>
<polygon fill="#b8bf62" stroke="#b8bf62" stroke-width="2" points="1485.95,-1543.44 1476.33,-1548.69 1483.44,-1544.13 1476.02,-1544.71 1475.98,-1544.21 1475.94,-1543.71 1483.36,-1543.14 1475.64,-1539.72 1485.95,-1543.44"/>
</g>
<!-- 51328 -->
<g id="node70" class="node">
<title>51328</title>
<polygon fill="none" stroke="#d43d51" points="756.35,-1743.39 756.35,-1758.3 648.83,-1768.84 496.77,-1768.84 389.25,-1758.3 389.25,-1743.39 496.77,-1732.84 648.83,-1732.84 756.35,-1743.39"/>
<polygon fill="none" stroke="#d43d51" points="760.35,-1739.76 760.35,-1761.92 649.02,-1772.84 496.57,-1772.84 385.25,-1761.92 385.25,-1739.76 496.57,-1728.84 649.02,-1728.84 760.35,-1739.76"/>
<text text-anchor="middle" x="572.8" y="-1745.79" font-family="Times,serif" font-size="14.00">hitachi:Mozilla Public License Version 2.0</text>
</g>
<!-- 50729&#45;&gt;51328 -->
<g id="edge98" class="edge">
<title>50729&#45;&gt;51328</title>
<path fill="none" stroke="#d43d51" stroke-width="2" d="M982.62,-1520.96C732.67,-1636.63 699.17,-1653.67 610.53,-1721.61"/>
<polygon fill="#d43d51" stroke="#d43d51" stroke-width="2" points="603.71,-1726.86 608.89,-1717.2 605.43,-1724.9 611.33,-1720.37 611.63,-1720.76 611.94,-1721.16 606.04,-1725.7 614.38,-1724.33 603.71,-1726.86"/>
</g>
<!-- 50729&#45;&gt;54303 -->
<g id="edge99" class="edge">
<title>50729&#45;&gt;54303</title>
<path fill="none" stroke="#98b561" stroke-width="2" d="M1033.99,-1476.39C1061.56,-1281.08 1069.07,-1263.77 1230.77,-1133.01"/>
<polygon fill="#98b561" stroke="#98b561" stroke-width="2" points="1237.2,-1127.82 1232.25,-1137.61 1235.52,-1129.82 1229.73,-1134.5 1229.42,-1134.11 1229.1,-1133.72 1234.89,-1129.05 1226.59,-1130.61 1237.2,-1127.82"/>
</g>
<!-- 50730 -->
<g id="node62" class="node">
<title>50730</title>
<polygon fill="none" stroke="#b8bf62" points="1899.89,-1959.1 1899.89,-1974.01 1847.86,-1984.55 1774.28,-1984.55 1722.25,-1974.01 1722.25,-1959.1 1774.28,-1948.55 1847.86,-1948.55 1899.89,-1959.1"/>
<polygon fill="none" stroke="#b8bf62" points="1903.89,-1955.83 1903.89,-1977.28 1848.26,-1988.55 1773.88,-1988.55 1718.25,-1977.28 1718.25,-1955.83 1773.88,-1944.55 1848.26,-1944.55 1903.89,-1955.83"/>
<text text-anchor="middle" x="1811.07" y="-1961.5" font-family="Times,serif" font-size="14.00">scancode://mpl&#45;2.0</text>
</g>
<!-- 50730&#45;&gt;50728 -->
<g id="edge100" class="edge">
<title>50730&#45;&gt;50728</title>
<path fill="none" stroke="#b8bf62" stroke-width="2" d="M1806.99,-1944.27C1785.4,-1827.38 1778.03,-1808.72 1663.26,-1562.31"/>
<polygon fill="#b8bf62" stroke="#b8bf62" stroke-width="2" points="1659.63,-1554.52 1667.93,-1561.69 1661.16,-1556.64 1664.3,-1563.38 1663.85,-1563.59 1663.4,-1563.8 1660.26,-1557.06 1659.77,-1565.49 1659.63,-1554.52"/>
</g>
<!-- 50731 -->
<g id="node63" class="node">
<title>50731</title>
<polygon fill="none" stroke="#b8bf62" points="1791.74,-1574.73 1791.74,-1589.64 1694.28,-1600.19 1556.44,-1600.19 1458.98,-1589.64 1458.98,-1574.73 1556.44,-1564.19 1694.28,-1564.19 1791.74,-1574.73"/>
<polygon fill="none" stroke="#b8bf62" points="1795.74,-1571.14 1795.74,-1593.24 1694.49,-1604.19 1556.23,-1604.19 1454.98,-1593.24 1454.98,-1571.14 1556.23,-1560.19 1694.49,-1560.19 1795.74,-1571.14"/>
<text text-anchor="middle" x="1625.36" y="-1577.14" font-family="Times,serif" font-size="14.00">Mozilla Public License 2.0 (MPL 2.0)</text>
</g>
<!-- 50731&#45;&gt;50728 -->
<g id="edge101" class="edge">
<title>50731&#45;&gt;50728</title>
<path fill="none" stroke="#b8bf62" stroke-width="2" d="M1644.02,-1559.87C1644.07,-1559.73 1644.12,-1559.6 1644.16,-1559.46"/>
<polygon fill="#b8bf62" stroke="#b8bf62" stroke-width="2" points="1645.3,-1554.86 1647.27,-1565.65 1645.17,-1557.47 1643.39,-1564.69 1642.9,-1564.57 1642.42,-1564.45 1644.2,-1557.23 1638.53,-1563.49 1645.3,-1554.86"/>
</g>
<!-- 50732 -->
<g id="node64" class="node">
<title>50732</title>
<polygon fill="none" stroke="#b8bf62" points="1498.75,-1848.71 1498.75,-1863.62 1449.96,-1874.17 1380.97,-1874.17 1332.19,-1863.62 1332.19,-1848.71 1380.97,-1838.17 1449.96,-1838.17 1498.75,-1848.71"/>
<polygon fill="none" stroke="#b8bf62" points="1502.75,-1845.48 1502.75,-1866.85 1450.39,-1878.17 1380.54,-1878.17 1328.19,-1866.85 1328.19,-1845.48 1380.54,-1834.17 1450.39,-1834.17 1502.75,-1845.48"/>
<text text-anchor="middle" x="1415.47" y="-1851.12" font-family="Times,serif" font-size="14.00">scancode:mpl&#45;2.0</text>
</g>
<!-- 50732&#45;&gt;50728 -->
<g id="edge102" class="edge">
<title>50732&#45;&gt;50728</title>
<path fill="none" stroke="#b8bf62" stroke-width="2" d="M1448.86,-1833.82C1537.18,-1773.72 1550.25,-1751.39 1633.95,-1562.53"/>
<polygon fill="#b8bf62" stroke="#b8bf62" stroke-width="2" points="1637.39,-1554.75 1637.46,-1565.72 1636.81,-1557.3 1633.8,-1564.1 1633.34,-1563.89 1632.88,-1563.69 1635.9,-1556.89 1629.23,-1562.07 1637.39,-1554.75"/>
</g>
<!-- 50733 -->
<g id="node65" class="node">
<title>50733</title>
<polygon fill="none" stroke="#b8bf62" points="1611.9,-1900.75 1611.9,-1915.66 1574.79,-1926.21 1522.32,-1926.21 1485.22,-1915.66 1485.22,-1900.75 1522.32,-1890.21 1574.79,-1890.21 1611.9,-1900.75"/>
<polygon fill="none" stroke="#b8bf62" points="1615.9,-1897.73 1615.9,-1918.68 1575.35,-1930.21 1521.76,-1930.21 1481.22,-1918.68 1481.22,-1897.73 1521.76,-1886.21 1575.35,-1886.21 1615.9,-1897.73"/>
<text text-anchor="middle" x="1548.56" y="-1903.16" font-family="Times,serif" font-size="14.00">osi:MPL&#45;2.0</text>
</g>
<!-- 50733&#45;&gt;50728 -->
<g id="edge103" class="edge">
<title>50733&#45;&gt;50728</title>
<path fill="none" stroke="#b8bf62" stroke-width="2" d="M1563.15,-1885.81C1620.99,-1796.34 1625.16,-1776.7 1645.17,-1563.41"/>
<polygon fill="#b8bf62" stroke="#b8bf62" stroke-width="2" points="1645.97,-1554.87 1649.52,-1565.25 1646.23,-1557.47 1645.53,-1564.88 1645.03,-1564.83 1644.54,-1564.78 1645.23,-1557.38 1640.55,-1564.41 1645.97,-1554.87"/>
</g>
<!-- 50734 -->
<g id="node66" class="node">
<title>50734</title>
<polygon fill="none" stroke="#b8bf62" points="1713.65,-1906.76 1713.65,-1921.67 1688.55,-1932.21 1653.06,-1932.21 1627.97,-1921.67 1627.97,-1906.76 1653.06,-1896.21 1688.55,-1896.21 1713.65,-1906.76"/>
<polygon fill="none" stroke="#b8bf62" points="1717.65,-1904.1 1717.65,-1924.33 1689.36,-1936.21 1652.26,-1936.21 1623.97,-1924.33 1623.97,-1904.1 1652.26,-1892.21 1689.36,-1892.21 1717.65,-1904.1"/>
<text text-anchor="middle" x="1670.81" y="-1909.16" font-family="Times,serif" font-size="14.00">MPLv2</text>
</g>
<!-- 50734&#45;&gt;50728 -->
<g id="edge104" class="edge">
<title>50734&#45;&gt;50728</title>
<path fill="none" stroke="#b8bf62" stroke-width="2" d="M1675.46,-1891.86C1695.7,-1793.34 1694.05,-1774.66 1654.52,-1563.46"/>
<polygon fill="#b8bf62" stroke="#b8bf62" stroke-width="2" points="1652.93,-1555 1659.2,-1564 1653.9,-1557.42 1655.26,-1564.73 1654.77,-1564.82 1654.28,-1564.92 1652.91,-1557.61 1650.35,-1565.65 1652.93,-1555"/>
</g>
<!-- 51012 -->
<g id="node67" class="node">
<title>51012</title>
<ellipse fill="none" stroke="#dac767" cx="849.22" cy="-615.82" rx="158.22" ry="28.99"/>
<text text-anchor="middle" x="849.22" y="-619.02" font-family="Times,serif" font-size="14.00" fill="gray">FOSSLight</text>
<text text-anchor="middle" x="849.22" y="-602.52" font-family="Times,serif" font-size="14.00" fill="gray">34cf2497935e09983cd73fc25358c762</text>
</g>
<!-- 51012&#45;&gt;51013 -->
<g id="edge105" class="edge">
<title>51012&#45;&gt;51013</title>
<path fill="none" stroke="#dac767" d="M1005.53,-620.87C1076.29,-633.16 1139.26,-668.59 1297.26,-763.78"/>
<polygon fill="#dac767" stroke="#dac767" points="1295.15,-766.6 1305.52,-768.76 1298.76,-760.6 1295.15,-766.6"/>
</g>
<!-- 51327 -->
<g id="node69" class="node">
<title>51327</title>
<ellipse fill="none" stroke="#d43d51" cx="155.15" cy="-1965.68" rx="155.03" ry="28.99"/>
<text text-anchor="middle" x="155.15" y="-1968.88" font-family="Times,serif" font-size="14.00" fill="gray">HitachiOpenLicense</text>
<text text-anchor="middle" x="155.15" y="-1952.38" font-family="Times,serif" font-size="14.00" fill="gray">ea66147b63fb7f71d235b42a9deff85c</text>
</g>
<!-- 51327&#45;&gt;51328 -->
<g id="edge106" class="edge">
<title>51327&#45;&gt;51328</title>
<path fill="none" stroke="#d43d51" d="M200.6,-1937.52C275.25,-1891.79 311.96,-1873.66 515.09,-1778"/>
<polygon fill="#d43d51" stroke="#d43d51" points="516.28,-1781.31 523.84,-1773.88 513.3,-1774.98 516.28,-1781.31"/>
</g>
<!-- 54302 -->
<g id="node71" class="node">
<title>54302</title>
<ellipse fill="none" stroke="#98b561" cx="806.68" cy="-1056.51" rx="158.75" ry="28.99"/>
<text text-anchor="middle" x="806.68" y="-1059.71" font-family="Times,serif" font-size="14.00" fill="gray">EclipseLicense</text>
<text text-anchor="middle" x="806.68" y="-1043.21" font-family="Times,serif" font-size="14.00" fill="gray">aab5f73b364e784cb4bb6627ce8451a4</text>
</g>
<!-- 54302&#45;&gt;54303 -->
<g id="edge107" class="edge">
<title>54302&#45;&gt;54303</title>
<path fill="none" stroke="#98b561" d="M923.96,-1036.64C985.53,-1032.46 1043.6,-1045.23 1194.75,-1084.91"/>
<polygon fill="#98b561" stroke="#98b561" points="1193.76,-1088.27 1204.33,-1087.43 1195.54,-1081.5 1193.76,-1088.27"/>
</g>
</g>
</svg>
