<?xml version="1.0" encoding="UTF-8" standalone="no"?>
<!DOCTYPE svg PUBLIC "-//W3C//DTD SVG 1.1//EN"
 "http://www.w3.org/Graphics/SVG/1.1/DTD/svg11.dtd">
<!-- Generated by graphviz version 10.0.1 (0)
 -->
<!-- Pages: 1 -->
<svg width="2605pt" height="1508pt"
 viewBox="0.00 0.00 2605.00 1508.00" xmlns="http://www.w3.org/2000/svg" xmlns:xlink="http://www.w3.org/1999/xlink">
<g id="graph0" class="graph" transform="scale(1 1) rotate(0) translate(4 1504)">
<polygon fill="white" stroke="none" points="-4,4 -4,-1504 2601,-1504 2601,4 -4,4"/>
<!-- 3002 -->
<g id="node1" class="node">
<title>3002</title>
<ellipse fill="none" stroke="#b8bf62" cx="1374.29" cy="-147.77" rx="157.15" ry="28.99"/>
<text text-anchor="middle" x="1374.29" y="-150.97" font-family="Times,serif" font-size="14.00" fill="gray">SPDXLicense</text>
<text text-anchor="middle" x="1374.29" y="-134.47" font-family="Times,serif" font-size="14.00" fill="gray">25d627b6c7f16ea1ef36ac42e36545d2</text>
</g>
<!-- 3003 -->
<g id="node2" class="node">
<title>3003</title>
<polygon fill="none" stroke="black" points="1364.42,-561.65 1364.42,-576.56 1319.53,-587.11 1256.05,-587.11 1211.16,-576.56 1211.16,-561.65 1256.05,-551.11 1319.53,-551.11 1364.42,-561.65"/>
<polygon fill="none" stroke="black" points="1368.42,-558.48 1368.42,-579.73 1320,-591.11 1255.58,-591.11 1207.16,-579.73 1207.16,-558.48 1255.58,-547.11 1320,-547.11 1368.42,-558.48"/>
<text text-anchor="middle" x="1287.79" y="-564.06" font-family="Times,serif" font-size="14.00">spdx:NASA&#45;1.3</text>
</g>
<!-- 3002&#45;&gt;3003 -->
<g id="edge1" class="edge">
<title>3002&#45;&gt;3003</title>
<path fill="none" stroke="#b8bf62" d="M1365.81,-177.17C1339.01,-270.65 1334.27,-295.77 1293.51,-535.45"/>
<polygon fill="#b8bf62" stroke="#b8bf62" points="1290.09,-534.72 1291.86,-545.16 1296.99,-535.89 1290.09,-534.72"/>
</g>
<!-- 5181 -->
<g id="node6" class="node">
<title>5181</title>
<polygon fill="none" stroke="black" points="1375.44,-642.04 1375.44,-656.95 1334.77,-667.5 1277.25,-667.5 1236.58,-656.95 1236.58,-642.04 1277.25,-631.5 1334.77,-631.5 1375.44,-642.04"/>
<polygon fill="none" stroke="black" points="1379.44,-638.95 1379.44,-660.05 1335.28,-671.5 1276.74,-671.5 1232.58,-660.05 1232.58,-638.95 1276.74,-627.5 1335.28,-627.5 1379.44,-638.95"/>
<polygon fill="none" stroke="black" points="1383.44,-635.85 1383.44,-663.14 1335.79,-675.5 1276.23,-675.5 1228.58,-663.14 1228.58,-635.85 1276.23,-623.5 1335.79,-623.5 1383.44,-635.85"/>
<text text-anchor="middle" x="1306.01" y="-644.45" font-family="Times,serif" font-size="14.00">osi:NASA&#45;1.3</text>
</g>
<!-- 3003&#45;&gt;5181 -->
<g id="edge2" class="edge">
<title>3003&#45;&gt;5181</title>
<path fill="none" stroke="#78ab63" stroke-width="2" d="M1295.36,-591.24C1296.8,-596.64 1298.09,-602.82 1299.75,-612.1"/>
<polygon fill="#78ab63" stroke="#78ab63" stroke-width="2" points="1301.22,-620.61 1295.08,-611.52 1300.29,-618.17 1299.02,-610.84 1299.52,-610.75 1300.01,-610.67 1301.27,-617.99 1303.95,-609.99 1301.22,-620.61"/>
</g>
<!-- 8175 -->
<g id="node9" class="node">
<title>8175</title>
<polygon fill="none" stroke="#e09d4b" points="1017.81,-413.47 1017.81,-428.38 967.72,-438.93 896.9,-438.93 846.81,-428.38 846.81,-413.47 896.9,-402.93 967.72,-402.93 1017.81,-413.47"/>
<polygon fill="none" stroke="#e09d4b" points="1021.81,-410.23 1021.81,-431.63 968.14,-442.93 896.48,-442.93 842.81,-431.63 842.81,-410.23 896.48,-398.93 968.14,-398.93 1021.81,-410.23"/>
<text text-anchor="middle" x="932.31" y="-415.88" font-family="Times,serif" font-size="14.00">Fedora:NASA&#45;1.3</text>
</g>
<!-- 3003&#45;&gt;8175 -->
<g id="edge3" class="edge">
<title>3003&#45;&gt;8175</title>
<path fill="none" stroke="#e09d4b" stroke-width="2" d="M1252.19,-547.45C1129.68,-473.02 1083.9,-446.74 1032.58,-434.3"/>
<polygon fill="#e09d4b" stroke="#e09d4b" stroke-width="2" points="1024.25,-432.45 1034.99,-430.23 1026.86,-432.52 1034.12,-434.13 1034.01,-434.62 1033.9,-435.11 1026.64,-433.49 1033.03,-439.01 1024.25,-432.45"/>
</g>
<!-- 10332 -->
<g id="node13" class="node">
<title>10332</title>
<polygon fill="none" stroke="#deb256" points="1571.44,-373.03 1571.44,-387.94 1540.83,-398.48 1497.53,-398.48 1466.92,-387.94 1466.92,-373.03 1497.53,-362.48 1540.83,-362.48 1571.44,-373.03"/>
<text text-anchor="middle" x="1519.18" y="-375.43" font-family="Times,serif" font-size="14.00">fsf:NASA</text>
</g>
<!-- 3003&#45;&gt;10332 -->
<g id="edge4" class="edge">
<title>3003&#45;&gt;10332</title>
<path fill="none" stroke="#deb256" stroke-dasharray="5,2" d="M1307.99,-546.98C1402.24,-443.84 1423.59,-422.53 1475.09,-399.07"/>
<polygon fill="#deb256" stroke="#deb256" points="1483.97,-395.13 1476.65,-403.3 1480.51,-396.66 1474.83,-399.18 1474.83,-399.18 1474.83,-399.18 1480.51,-396.66 1473.01,-395.07 1483.97,-395.13"/>
</g>
<!-- 46034 -->
<g id="node27" class="node">
<title>46034</title>
<polygon fill="none" stroke="#00876c" points="1906.3,-722.8 1906.3,-737.71 1827.98,-748.26 1717.23,-748.26 1638.91,-737.71 1638.91,-722.8 1717.23,-712.26 1827.98,-712.26 1906.3,-722.8"/>
<polygon fill="none" stroke="#00876c" points="1910.3,-719.3 1910.3,-741.21 1828.25,-752.26 1716.96,-752.26 1634.91,-741.21 1634.91,-719.3 1716.96,-708.26 1828.25,-708.26 1910.3,-719.3"/>
<text text-anchor="middle" x="1772.6" y="-725.21" font-family="Times,serif" font-size="14.00">metaeffekt:NASA License 1.3</text>
</g>
<!-- 3003&#45;&gt;46034 -->
<g id="edge5" class="edge">
<title>3003&#45;&gt;46034</title>
<path fill="none" stroke="#00876c" stroke-width="2" d="M1368.56,-578.78C1600.29,-606.99 1632.37,-617.6 1736.38,-700.89"/>
<polygon fill="#00876c" stroke="#00876c" stroke-width="2" points="1743.1,-706.29 1732.49,-703.53 1740.79,-705.07 1734.99,-700.41 1735.31,-700.02 1735.62,-699.63 1741.41,-704.29 1738.13,-696.52 1743.1,-706.29"/>
</g>
<!-- 3004 -->
<g id="node3" class="node">
<title>3004</title>
<polygon fill="none" stroke="black" points="1020.95,-776.85 1020.95,-791.76 988.71,-802.3 943.13,-802.3 910.89,-791.76 910.89,-776.85 943.13,-766.3 988.71,-766.3 1020.95,-776.85"/>
<polygon fill="none" stroke="black" points="1024.95,-773.95 1024.95,-794.66 989.35,-806.3 942.49,-806.3 906.89,-794.66 906.89,-773.95 942.49,-762.3 989.35,-762.3 1024.95,-773.95"/>
<text text-anchor="middle" x="965.92" y="-779.25" font-family="Times,serif" font-size="14.00">NASA&#45;1.3</text>
</g>
<!-- 3004&#45;&gt;3003 -->
<g id="edge6" class="edge">
<title>3004&#45;&gt;3003</title>
<path fill="none" stroke="black" stroke-width="2" d="M980.36,-762.14C1048.32,-658.37 1065.44,-644.06 1224.73,-590.18"/>
<polygon fill="black" stroke="black" stroke-width="2" points="1232.61,-587.52 1224.57,-594.98 1230.34,-588.82 1223.3,-591.19 1223.14,-590.72 1222.98,-590.25 1230.02,-587.87 1221.7,-586.46 1232.61,-587.52"/>
</g>
<!-- 3004&#45;&gt;5181 -->
<g id="edge7" class="edge">
<title>3004&#45;&gt;5181</title>
<path fill="none" stroke="black" stroke-width="2" d="M991.75,-762.89C1055.86,-710.5 1080.37,-699.69 1224.04,-667.53"/>
<polygon fill="black" stroke="black" stroke-width="2" points="1232.21,-665.71 1223.43,-672.28 1229.82,-666.75 1222.56,-668.37 1222.45,-667.88 1222.34,-667.4 1229.6,-665.78 1221.47,-663.49 1232.21,-665.71"/>
</g>
<!-- 3004&#45;&gt;8175 -->
<g id="edge8" class="edge">
<title>3004&#45;&gt;8175</title>
<path fill="none" stroke="#e09d4b" stroke-width="2" d="M957.02,-762.05C887.91,-589 883.92,-570.65 921.62,-453.64"/>
<polygon fill="#e09d4b" stroke="#e09d4b" stroke-width="2" points="924.27,-445.47 925.46,-456.38 923.95,-448.07 921.66,-455.14 921.18,-454.99 920.7,-454.83 923,-447.76 916.9,-453.6 924.27,-445.47"/>
</g>
<!-- 9146 -->
<g id="node12" class="node">
<title>9146</title>
<polygon fill="none" stroke="#00876c" points="690.63,-674.51 690.63,-689.43 636.01,-699.97 558.75,-699.97 504.13,-689.43 504.13,-674.51 558.75,-663.97 636.01,-663.97 690.63,-674.51"/>
<polygon fill="none" stroke="#00876c" points="694.63,-671.21 694.63,-692.73 636.39,-703.97 558.37,-703.97 500.13,-692.73 500.13,-671.21 558.37,-659.97 636.39,-659.97 694.63,-671.21"/>
<text text-anchor="middle" x="597.38" y="-676.92" font-family="Times,serif" font-size="14.00">BlueOak:NASA&#45;1.3</text>
</g>
<!-- 3004&#45;&gt;9146 -->
<g id="edge9" class="edge">
<title>3004&#45;&gt;9146</title>
<path fill="none" stroke="#00876c" stroke-width="2" d="M909.41,-772.66C751.25,-739.99 710.56,-730.45 654.49,-707.16"/>
<polygon fill="#00876c" stroke="#00876c" stroke-width="2" points="646.45,-703.76 657.41,-703.51 649,-704.29 655.85,-707.19 655.66,-707.65 655.46,-708.11 648.61,-705.21 653.9,-711.8 646.45,-703.76"/>
</g>
<!-- 20439 -->
<g id="node16" class="node">
<title>20439</title>
<polygon fill="none" stroke="black" points="1411.46,-1005.82 1411.46,-1020.73 1361.71,-1031.28 1291.34,-1031.28 1241.58,-1020.73 1241.58,-1005.82 1291.34,-995.28 1361.71,-995.28 1411.46,-1005.82"/>
<polygon fill="none" stroke="black" points="1415.46,-1002.58 1415.46,-1023.97 1362.12,-1035.28 1290.92,-1035.28 1237.58,-1023.97 1237.58,-1002.58 1290.92,-991.28 1362.12,-991.28 1415.46,-1002.58"/>
<text text-anchor="middle" x="1326.52" y="-1008.23" font-family="Times,serif" font-size="14.00">scancode:nasa&#45;1.3</text>
</g>
<!-- 3004&#45;&gt;20439 -->
<g id="edge10" class="edge">
<title>3004&#45;&gt;20439</title>
<path fill="none" stroke="black" stroke-width="2" d="M981.3,-806.74C1072.25,-939.16 1091.77,-957.9 1248.13,-995.22"/>
<polygon fill="black" stroke="black" stroke-width="2" points="1256.26,-997.14 1245.49,-999.22 1253.65,-997.04 1246.42,-995.33 1246.53,-994.84 1246.65,-994.35 1253.88,-996.07 1247.57,-990.46 1256.26,-997.14"/>
</g>
<!-- 26670 -->
<g id="node20" class="node">
<title>26670</title>
<polygon fill="none" stroke="#e18745" points="755.21,-968.01 755.21,-982.92 698.63,-993.47 618.63,-993.47 562.05,-982.92 562.05,-968.01 618.63,-957.47 698.63,-957.47 755.21,-968.01"/>
<polygon fill="none" stroke="#e18745" points="759.21,-964.69 759.21,-986.25 699,-997.47 618.26,-997.47 558.05,-986.25 558.05,-964.69 618.26,-953.47 699,-953.47 759.21,-964.69"/>
<text text-anchor="middle" x="658.63" y="-970.42" font-family="Times,serif" font-size="14.00">fossology:NASA&#45;1.3</text>
</g>
<!-- 3004&#45;&gt;26670 -->
<g id="edge11" class="edge">
<title>3004&#45;&gt;26670</title>
<path fill="none" stroke="#e18745" stroke-width="2" d="M930.03,-802.65C771.51,-883.76 743.5,-899.38 691.24,-945.81"/>
<polygon fill="#e18745" stroke="#e18745" stroke-width="2" points="684.79,-951.59 689.23,-941.56 686.37,-949.5 691.9,-944.54 692.24,-944.91 692.57,-945.28 687.03,-950.25 695.24,-948.26 684.79,-951.59"/>
</g>
<!-- 37230 -->
<g id="node25" class="node">
<title>37230</title>
<polygon fill="none" stroke="#379469" points="875.02,-1095.46 875.02,-1110.37 829.81,-1120.92 765.86,-1120.92 720.65,-1110.37 720.65,-1095.46 765.86,-1084.92 829.81,-1084.92 875.02,-1095.46"/>
<polygon fill="none" stroke="#379469" points="879.02,-1092.29 879.02,-1113.55 830.27,-1124.92 765.4,-1124.92 716.65,-1113.55 716.65,-1092.29 765.4,-1080.92 830.27,-1080.92 879.02,-1092.29"/>
<text text-anchor="middle" x="797.83" y="-1097.87" font-family="Times,serif" font-size="14.00">cavil:NASA&#45;1.3</text>
</g>
<!-- 3004&#45;&gt;37230 -->
<g id="edge12" class="edge">
<title>3004&#45;&gt;37230</title>
<path fill="none" stroke="#379469" stroke-width="2" d="M948.28,-806.71C829.45,-957.74 817.18,-976.7 802.76,-1069.64"/>
<polygon fill="#379469" stroke="#379469" stroke-width="2" points="801.45,-1078.32 798.5,-1067.76 801.34,-1075.71 802.45,-1068.36 802.95,-1068.43 803.44,-1068.51 802.32,-1075.86 807.4,-1069.11 801.45,-1078.32"/>
</g>
<!-- 3005 -->
<g id="node4" class="node">
<title>3005</title>
<polygon fill="none" stroke="black" points="1114.56,-714.78 1114.56,-729.69 1023.26,-740.23 894.15,-740.23 802.85,-729.69 802.85,-714.78 894.15,-704.23 1023.26,-704.23 1114.56,-714.78"/>
<polygon fill="none" stroke="black" points="1118.56,-711.21 1118.56,-733.26 1023.49,-744.23 893.92,-744.23 798.85,-733.26 798.85,-711.21 893.92,-700.23 1023.49,-700.23 1118.56,-711.21"/>
<text text-anchor="middle" x="958.71" y="-717.18" font-family="Times,serif" font-size="14.00">NASA Open Source Agreement 1.3</text>
</g>
<!-- 3005&#45;&gt;3003 -->
<g id="edge13" class="edge">
<title>3005&#45;&gt;3003</title>
<path fill="none" stroke="#b8bf62" stroke-width="2" d="M978.86,-699.88C1049.36,-622.25 1070.74,-608.6 1204.27,-583.89"/>
<polygon fill="#b8bf62" stroke="#b8bf62" stroke-width="2" points="1212.54,-582.37 1203.51,-588.6 1210.11,-583.33 1202.79,-584.67 1202.7,-584.18 1202.61,-583.69 1209.93,-582.35 1201.89,-579.75 1212.54,-582.37"/>
</g>
<!-- 3005&#45;&gt;3004 -->
<g id="edge14" class="edge">
<title>3005&#45;&gt;3004</title>
<path fill="none" stroke="#379469" stroke-width="2" d="M953.14,-744.62C952.82,-746.87 952.69,-748.93 952.76,-750.94"/>
<polygon fill="#379469" stroke="#379469" stroke-width="2" points="954.59,-759.5 948.1,-750.66 953.56,-757.1 952.01,-749.83 952.5,-749.72 952.99,-749.62 954.54,-756.89 956.9,-748.78 954.59,-759.5"/>
</g>
<!-- 3005&#45;&gt;9146 -->
<g id="edge15" class="edge">
<title>3005&#45;&gt;9146</title>
<path fill="none" stroke="#00876c" stroke-width="2" d="M823.78,-707.93C767.12,-701.89 732.52,-698.14 703.53,-694.83"/>
<polygon fill="#00876c" stroke="#00876c" stroke-width="2" points="695.08,-693.85 705.53,-690.53 697.69,-693.65 705.08,-694.5 705.02,-695 704.96,-695.49 697.57,-694.64 704.51,-699.47 695.08,-693.85"/>
</g>
<!-- 3005&#45;&gt;26670 -->
<g id="edge16" class="edge">
<title>3005&#45;&gt;26670</title>
<path fill="none" stroke="#e18745" stroke-width="2" d="M922.85,-744.7C752.6,-851.47 730.76,-867.89 679.45,-944.05"/>
<polygon fill="#e18745" stroke="#e18745" stroke-width="2" points="674.73,-951.1 676.55,-940.29 675.74,-948.69 679.87,-942.51 680.29,-942.79 680.7,-943.07 676.57,-949.25 684.03,-945.29 674.73,-951.1"/>
</g>
<!-- 5180 -->
<g id="node5" class="node">
<title>5180</title>
<ellipse fill="none" stroke="#78ab63" cx="1464.53" cy="-713.04" rx="156.62" ry="28.99"/>
<text text-anchor="middle" x="1464.53" y="-716.24" font-family="Times,serif" font-size="14.00" fill="gray">OSILicense</text>
<text text-anchor="middle" x="1464.53" y="-699.74" font-family="Times,serif" font-size="14.00" fill="gray">4aa8f240270837f8e6f096285a6711c2</text>
</g>
<!-- 5180&#45;&gt;5181 -->
<g id="edge17" class="edge">
<title>5180&#45;&gt;5181</title>
<path fill="none" stroke="#78ab63" d="M1435.1,-684.45C1421.92,-672.91 1410.86,-666.32 1394.66,-661.76"/>
<polygon fill="#78ab63" stroke="#78ab63" points="1395.86,-658.44 1385.32,-659.5 1394.22,-665.25 1395.86,-658.44"/>
</g>
<!-- 5181&#45;&gt;46034 -->
<g id="edge18" class="edge">
<title>5181&#45;&gt;46034</title>
<path fill="none" stroke="#00876c" stroke-dasharray="5,2" d="M1383.74,-653.7C1587.1,-664.92 1631.57,-670.33 1711.77,-703.6"/>
<polygon fill="#00876c" stroke="#00876c" points="1720.61,-707.33 1709.65,-707.59 1717.13,-705.86 1711.4,-703.45 1711.4,-703.45 1711.4,-703.45 1717.13,-705.86 1713.14,-699.3 1720.61,-707.33"/>
</g>
<!-- 5182 -->
<g id="node7" class="node">
<title>5182</title>
<polygon fill="none" stroke="#78ab63" points="1362.35,-199.72 1362.35,-214.63 1250.29,-225.17 1091.8,-225.17 979.74,-214.63 979.74,-199.72 1091.8,-189.17 1250.29,-189.17 1362.35,-199.72"/>
<polygon fill="none" stroke="#78ab63" points="1366.35,-196.07 1366.35,-218.27 1250.47,-229.17 1091.62,-229.17 975.74,-218.27 975.74,-196.07 1091.62,-185.17 1250.47,-185.17 1366.35,-196.07"/>
<text text-anchor="middle" x="1171.04" y="-202.12" font-family="Times,serif" font-size="14.00">NASA Open Source Agreement, Version 1.3</text>
</g>
<!-- 5182&#45;&gt;5181 -->
<g id="edge19" class="edge">
<title>5182&#45;&gt;5181</title>
<path fill="none" stroke="#78ab63" stroke-width="2" d="M1179.7,-229.49C1220.05,-333.81 1226.2,-354.59 1296.07,-612.74"/>
<polygon fill="#78ab63" stroke="#78ab63" stroke-width="2" points="1298.26,-620.86 1291.31,-612.38 1297.11,-618.52 1295.17,-611.34 1295.65,-611.21 1296.13,-611.08 1298.08,-618.25 1299.99,-610.03 1298.26,-620.86"/>
</g>
<!-- 8174 -->
<g id="node8" class="node">
<title>8174</title>
<ellipse fill="none" stroke="#e09d4b" cx="608.38" cy="-143.17" rx="154.5" ry="28.99"/>
<text text-anchor="middle" x="608.38" y="-146.37" font-family="Times,serif" font-size="14.00" fill="gray">FedoraEntry</text>
<text text-anchor="middle" x="608.38" y="-129.87" font-family="Times,serif" font-size="14.00" fill="gray">49b4e03428d426fc1ffaa7efa47803b9</text>
</g>
<!-- 8174&#45;&gt;8175 -->
<g id="edge20" class="edge">
<title>8174&#45;&gt;8175</title>
<path fill="none" stroke="#e09d4b" d="M642.57,-171.87C706.15,-225.29 732.69,-248.16 897.86,-391.11"/>
<polygon fill="#e09d4b" stroke="#e09d4b" points="895.34,-393.56 905.2,-397.46 899.92,-388.27 895.34,-393.56"/>
</g>
<!-- 8176 -->
<g id="node10" class="node">
<title>8176</title>
<polygon fill="none" stroke="#e09d4b" points="934.81,-10.24 934.81,-25.15 840.6,-35.7 707.35,-35.7 613.14,-25.15 613.14,-10.24 707.35,0.3 840.6,0.3 934.81,-10.24"/>
<text text-anchor="middle" x="773.97" y="-12.65" font-family="Times,serif" font-size="14.00">NASA Open Source Agreement v1.3</text>
</g>
<!-- 8176&#45;&gt;8175 -->
<g id="edge21" class="edge">
<title>8176&#45;&gt;8175</title>
<path fill="none" stroke="#e09d4b" stroke-dasharray="5,2" d="M777.14,-35.87C796.85,-148.41 803.22,-164.26 916.21,-388.93"/>
<polygon fill="#e09d4b" stroke="#e09d4b" points="920.6,-397.66 912.09,-390.74 918.9,-394.28 916.11,-388.72 916.11,-388.72 916.11,-388.72 918.9,-394.28 920.13,-386.7 920.6,-397.66"/>
</g>
<!-- 9145 -->
<g id="node11" class="node">
<title>9145</title>
<ellipse fill="none" stroke="#00876c" cx="156.89" cy="-602.38" rx="156.62" ry="28.99"/>
<text text-anchor="middle" x="156.89" y="-605.58" font-family="Times,serif" font-size="14.00" fill="gray">BlueOakCouncil</text>
<text text-anchor="middle" x="156.89" y="-589.08" font-family="Times,serif" font-size="14.00" fill="gray">f03a274e3e4e537f794437c28a4ce74d</text>
</g>
<!-- 9145&#45;&gt;9146 -->
<g id="edge22" class="edge">
<title>9145&#45;&gt;9146</title>
<path fill="none" stroke="#00876c" d="M259.58,-624.68C311.03,-635.05 366.68,-644.44 502.1,-666.49"/>
<polygon fill="#00876c" stroke="#00876c" points="501.36,-669.91 511.79,-668.06 502.48,-663 501.36,-669.91"/>
</g>
<!-- 10333 -->
<g id="node14" class="node">
<title>10333</title>
<polygon fill="none" stroke="black" points="1778.57,-391.93 1778.57,-406.84 1755.75,-417.38 1723.47,-417.38 1700.64,-406.84 1700.64,-391.93 1723.47,-381.38 1755.75,-381.38 1778.57,-391.93"/>
<text text-anchor="middle" x="1739.61" y="-394.33" font-family="Times,serif" font-size="14.00">NASA</text>
</g>
<!-- 10333&#45;&gt;10332 -->
<g id="edge23" class="edge">
<title>10333&#45;&gt;10332</title>
<path fill="none" stroke="#deb256" stroke-width="2" d="M1713.21,-385.74C1668.42,-363.32 1649.78,-360.42 1581.24,-370.54"/>
<polygon fill="#deb256" stroke="#deb256" stroke-width="2" points="1572.69,-371.84 1581.9,-365.89 1575.15,-370.96 1582.5,-369.84 1582.58,-370.34 1582.65,-370.83 1575.3,-371.95 1583.25,-374.79 1572.69,-371.84"/>
</g>
<!-- 10333&#45;&gt;46034 -->
<g id="edge24" class="edge">
<title>10333&#45;&gt;46034</title>
<path fill="none" stroke="#00876c" stroke-dasharray="5,2" d="M1749.88,-417.87C1813.29,-532.38 1815.65,-547.06 1780.42,-697.21"/>
<polygon fill="#00876c" stroke="#00876c" points="1778.21,-706.59 1776.12,-695.83 1779.07,-702.91 1780.5,-696.86 1780.5,-696.86 1780.5,-696.86 1779.07,-702.91 1784.88,-697.89 1778.21,-706.59"/>
</g>
<!-- 20438 -->
<g id="node15" class="node">
<title>20438</title>
<ellipse fill="none" stroke="#dac767" cx="1331.83" cy="-1082.28" rx="157.68" ry="28.99"/>
<text text-anchor="middle" x="1331.83" y="-1085.48" font-family="Times,serif" font-size="14.00" fill="gray">ScancodeData</text>
<text text-anchor="middle" x="1331.83" y="-1068.98" font-family="Times,serif" font-size="14.00" fill="gray">307ae7b911a11617f6d11f139f179594</text>
</g>
<!-- 20438&#45;&gt;20439 -->
<g id="edge25" class="edge">
<title>20438&#45;&gt;20439</title>
<path fill="none" stroke="#dac767" d="M1329.83,-1052.83C1329.69,-1051.08 1329.53,-1049.19 1329.36,-1047.1"/>
<polygon fill="#dac767" stroke="#dac767" points="1332.86,-1046.95 1328.54,-1037.28 1325.88,-1047.53 1332.86,-1046.95"/>
</g>
<!-- 20439&#45;&gt;46034 -->
<g id="edge26" class="edge">
<title>20439&#45;&gt;46034</title>
<path fill="none" stroke="#00876c" stroke-dasharray="5,2" d="M1385,-995.7C1628.89,-921.99 1651.03,-907.3 1751.36,-761.32"/>
<polygon fill="#00876c" stroke="#00876c" points="1756.76,-753.45 1754.82,-764.24 1754.63,-756.57 1751.11,-761.7 1751.11,-761.7 1751.11,-761.7 1754.63,-756.57 1747.4,-759.15 1756.76,-753.45"/>
</g>
<!-- 20440 -->
<g id="node17" class="node">
<title>20440</title>
<polygon fill="none" stroke="#dac767" points="1343.76,-1321.97 1343.76,-1336.88 1312.17,-1347.42 1267.5,-1347.42 1235.92,-1336.88 1235.92,-1321.97 1267.5,-1311.42 1312.17,-1311.42 1343.76,-1321.97"/>
<polygon fill="none" stroke="#dac767" points="1347.76,-1319.08 1347.76,-1339.76 1312.82,-1351.42 1266.85,-1351.42 1231.92,-1339.76 1231.92,-1319.08 1266.85,-1307.42 1312.82,-1307.42 1347.76,-1319.08"/>
<text text-anchor="middle" x="1289.84" y="-1324.37" font-family="Times,serif" font-size="14.00">NASA 1.3</text>
</g>
<!-- 20440&#45;&gt;20439 -->
<g id="edge27" class="edge">
<title>20440&#45;&gt;20439</title>
<path fill="none" stroke="#dac767" stroke-width="2" d="M1294.53,-1306.97C1308.88,-1237.6 1310.89,-1218.13 1323.98,-1046.61"/>
<polygon fill="#dac767" stroke="#dac767" stroke-width="2" points="1324.63,-1038.07 1328.36,-1048.38 1324.94,-1040.66 1324.37,-1048.08 1323.87,-1048.04 1323.37,-1048 1323.94,-1040.59 1319.39,-1047.7 1324.63,-1038.07"/>
</g>
<!-- 20441 -->
<g id="node18" class="node">
<title>20441</title>
<polygon fill="none" stroke="#dac767" points="1601.23,-1426.83 1601.23,-1441.74 1514.8,-1452.29 1392.57,-1452.29 1306.15,-1441.74 1306.15,-1426.83 1392.57,-1416.29 1514.8,-1416.29 1601.23,-1426.83"/>
<polygon fill="none" stroke="#dac767" points="1605.23,-1423.29 1605.23,-1445.29 1515.04,-1456.29 1392.33,-1456.29 1302.15,-1445.29 1302.15,-1423.29 1392.33,-1412.29 1515.04,-1412.29 1605.23,-1423.29"/>
<text text-anchor="middle" x="1453.69" y="-1429.24" font-family="Times,serif" font-size="14.00">NASA Open Source License v1.3</text>
</g>
<!-- 20441&#45;&gt;20439 -->
<g id="edge28" class="edge">
<title>20441&#45;&gt;20439</title>
<path fill="none" stroke="#dac767" stroke-width="2" d="M1445.29,-1412.04C1408.07,-1313.19 1402.16,-1292.89 1335.45,-1046.27"/>
<polygon fill="#dac767" stroke="#dac767" stroke-width="2" points="1333.17,-1037.86 1340.12,-1046.34 1334.32,-1040.2 1336.26,-1047.38 1335.78,-1047.51 1335.3,-1047.64 1333.36,-1040.46 1331.44,-1048.69 1333.17,-1037.86"/>
</g>
<!-- 26669 -->
<g id="node19" class="node">
<title>26669</title>
<ellipse fill="none" stroke="#e18745" cx="259.61" cy="-1188.69" rx="157.15" ry="28.99"/>
<text text-anchor="middle" x="259.61" y="-1191.89" font-family="Times,serif" font-size="14.00" fill="gray">Fossology</text>
<text text-anchor="middle" x="259.61" y="-1175.39" font-family="Times,serif" font-size="14.00" fill="gray">f5067f32cbb3d72b571c830479cb9af8</text>
</g>
<!-- 26669&#45;&gt;26670 -->
<g id="edge29" class="edge">
<title>26669&#45;&gt;26670</title>
<path fill="none" stroke="#e18745" d="M304.14,-1160.51C374.92,-1116.21 410.6,-1097.86 604.39,-1002.22"/>
<polygon fill="#e18745" stroke="#e18745" points="605.87,-1005.4 613.29,-997.83 602.77,-999.12 605.87,-1005.4"/>
</g>
<!-- 28339 -->
<g id="node21" class="node">
<title>28339</title>
<ellipse fill="none" stroke="#379469" cx="564.06" cy="-858.09" rx="159.28" ry="28.99"/>
<text text-anchor="middle" x="564.06" y="-861.29" font-family="Times,serif" font-size="14.00" fill="gray">OKFN</text>
<text text-anchor="middle" x="564.06" y="-844.79" font-family="Times,serif" font-size="14.00" fill="gray">d4912b9d7c1390cf7b3c6b9e830163ae</text>
</g>
<!-- 28339&#45;&gt;3004 -->
<g id="edge30" class="edge">
<title>28339&#45;&gt;3004</title>
<path fill="none" stroke="#379469" d="M669.32,-835.91C715.53,-826.87 770.42,-817.41 895.39,-796.24"/>
<polygon fill="#379469" stroke="#379469" points="895.73,-799.73 905,-794.61 894.56,-792.83 895.73,-799.73"/>
</g>
<!-- 28340 -->
<g id="node22" class="node">
<title>28340</title>
<polygon fill="none" stroke="#379469" points="787.28,-679.31 787.28,-694.22 762.51,-704.77 727.48,-704.77 702.71,-694.22 702.71,-679.31 727.48,-668.77 762.51,-668.77 787.28,-679.31"/>
<text text-anchor="middle" x="745" y="-681.72" font-family="Times,serif" font-size="14.00">nasa1.3</text>
</g>
<!-- 28340&#45;&gt;3004 -->
<g id="edge31" class="edge">
<title>28340&#45;&gt;3004</title>
<path fill="none" stroke="#379469" stroke-dasharray="5,2" d="M767,-703.3C803.14,-729.82 821.82,-738.15 908.65,-766.07"/>
<polygon fill="#379469" stroke="#379469" points="918.13,-769.11 907.24,-770.34 914.53,-767.95 908.61,-766.05 908.61,-766.05 908.61,-766.05 914.53,-767.95 909.98,-761.77 918.13,-769.11"/>
</g>
<!-- 35088 -->
<g id="node23" class="node">
<title>35088</title>
<ellipse fill="none" stroke="#e06f45" cx="1573.19" cy="-833.29" rx="158.22" ry="28.99"/>
<text text-anchor="middle" x="1573.19" y="-836.49" font-family="Times,serif" font-size="14.00" fill="gray">OrtLicenseCategorization</text>
<text text-anchor="middle" x="1573.19" y="-819.99" font-family="Times,serif" font-size="14.00" fill="gray">8232cf314aec8e235bab20063cbb6cb7</text>
</g>
<!-- 35088&#45;&gt;3003 -->
<g id="edge32" class="edge">
<title>35088&#45;&gt;3003</title>
<path fill="none" stroke="#e06f45" d="M1560.32,-804.04C1507.91,-685.91 1492.18,-669.62 1339.4,-594.35"/>
<polygon fill="#e06f45" stroke="#e06f45" points="1341.01,-591.24 1330.49,-589.97 1337.92,-597.52 1341.01,-591.24"/>
</g>
<!-- 37229 -->
<g id="node24" class="node">
<title>37229</title>
<ellipse fill="none" stroke="#379469" cx="576.06" cy="-1470.68" rx="159.28" ry="28.99"/>
<text text-anchor="middle" x="576.06" y="-1473.88" font-family="Times,serif" font-size="14.00" fill="gray">CavilLicenseChange</text>
<text text-anchor="middle" x="576.06" y="-1457.38" font-family="Times,serif" font-size="14.00" fill="gray">5e2e30416628e92292d1e84b2c5e2f09</text>
</g>
<!-- 37229&#45;&gt;37230 -->
<g id="edge33" class="edge">
<title>37229&#45;&gt;37230</title>
<path fill="none" stroke="#379469" d="M586.77,-1441.42C621.77,-1346.76 635.57,-1325.52 774.9,-1134.37"/>
<polygon fill="#379469" stroke="#379469" points="777.67,-1136.51 780.74,-1126.36 772.02,-1132.38 777.67,-1136.51"/>
</g>
<!-- 46033 -->
<g id="node26" class="node">
<title>46033</title>
<ellipse fill="none" stroke="#00876c" cx="2261.91" cy="-618.16" rx="158.22" ry="28.99"/>
<text text-anchor="middle" x="2261.91" y="-621.36" font-family="Times,serif" font-size="14.00" fill="gray">MetaeffektLicense</text>
<text text-anchor="middle" x="2261.91" y="-604.86" font-family="Times,serif" font-size="14.00" fill="gray">7a71d06a6bb7d783b4e6af9fc9067d33</text>
</g>
<!-- 46033&#45;&gt;46034 -->
<g id="edge34" class="edge">
<title>46033&#45;&gt;46034</title>
<path fill="none" stroke="#00876c" d="M2180.09,-643.39C2110.99,-663.7 2056.79,-675.17 1875.23,-710.4"/>
<polygon fill="#00876c" stroke="#00876c" points="1874.58,-706.96 1865.43,-712.3 1875.91,-713.83 1874.58,-706.96"/>
</g>
<!-- 46035 -->
<g id="node28" class="node">
<title>46035</title>
<polygon fill="none" stroke="#00876c" points="2214.61,-527.11 2214.61,-542.02 2163.23,-552.56 2090.57,-552.56 2039.19,-542.02 2039.19,-527.11 2090.57,-516.56 2163.23,-516.56 2214.61,-527.11"/>
<polygon fill="none" stroke="#00876c" points="2218.61,-523.85 2218.61,-545.28 2163.64,-556.56 2090.16,-556.56 2035.19,-545.28 2035.19,-523.85 2090.16,-512.56 2163.64,-512.56 2218.61,-523.85"/>
<text text-anchor="middle" x="2126.9" y="-529.51" font-family="Times,serif" font-size="14.00">NASA License 1.3</text>
</g>
<!-- 46035&#45;&gt;46034 -->
<g id="edge35" class="edge">
<title>46035&#45;&gt;46034</title>
<path fill="none" stroke="#00876c" stroke-width="2" d="M2100.8,-556.81C2034.07,-613.11 2009.16,-626.6 1833.9,-703.44"/>
<polygon fill="#00876c" stroke="#00876c" stroke-width="2" points="1826.03,-706.89 1833.38,-698.76 1828.18,-705.4 1834.99,-702.42 1835.19,-702.88 1835.39,-703.34 1828.58,-706.32 1837,-707 1826.03,-706.89"/>
</g>
<!-- 46036 -->
<g id="node29" class="node">
<title>46036</title>
<polygon fill="none" stroke="#00876c" points="2203.45,-959.82 2203.45,-974.73 2150.77,-985.27 2076.27,-985.27 2023.59,-974.73 2023.59,-959.82 2076.27,-949.27 2150.77,-949.27 2203.45,-959.82"/>
<text text-anchor="middle" x="2113.52" y="-962.22" font-family="Times,serif" font-size="14.00">NASA, Version 1.3</text>
</g>
<!-- 46036&#45;&gt;46034 -->
<g id="edge36" class="edge">
<title>46036&#45;&gt;46034</title>
<path fill="none" stroke="#00876c" stroke-dasharray="5,2" d="M2098.13,-948.87C2030.14,-867.93 2012.34,-855.02 1825.63,-757.81"/>
<polygon fill="#00876c" stroke="#00876c" points="1816.82,-753.22 1827.76,-753.84 1820.17,-754.97 1825.69,-757.84 1825.69,-757.84 1825.69,-757.84 1820.17,-754.97 1823.61,-761.83 1816.82,-753.22"/>
</g>
<!-- 46037 -->
<g id="node30" class="node">
<title>46037</title>
<polygon fill="none" stroke="#00876c" points="2056.87,-440.01 2056.87,-454.92 2023.34,-465.47 1975.92,-465.47 1942.38,-454.92 1942.38,-440.01 1975.92,-429.47 2023.34,-429.47 2056.87,-440.01"/>
<text text-anchor="middle" x="1999.63" y="-442.42" font-family="Times,serif" font-size="14.00">NASA, 1.3</text>
</g>
<!-- 46037&#45;&gt;46034 -->
<g id="edge37" class="edge">
<title>46037&#45;&gt;46034</title>
<path fill="none" stroke="#00876c" stroke-dasharray="5,2" d="M1993.06,-465.82C1958.15,-562.89 1947.8,-576.57 1806.45,-700.61"/>
<polygon fill="#00876c" stroke="#00876c" points="1799.21,-706.96 1803.76,-696.98 1802.05,-704.47 1806.73,-700.37 1806.73,-700.37 1806.73,-700.37 1802.05,-704.47 1809.69,-703.75 1799.21,-706.96"/>
</g>
<!-- 46038 -->
<g id="node31" class="node">
<title>46038</title>
<polygon fill="none" stroke="#00876c" points="2127.57,-1105.3 2127.57,-1120.21 2055.42,-1130.75 1953.39,-1130.75 1881.24,-1120.21 1881.24,-1105.3 1953.39,-1094.75 2055.42,-1094.75 2127.57,-1105.3"/>
<text text-anchor="middle" x="2004.41" y="-1107.7" font-family="Times,serif" font-size="14.00">NASA License, Version 1.3</text>
</g>
<!-- 46038&#45;&gt;46034 -->
<g id="edge38" class="edge">
<title>46038&#45;&gt;46034</title>
<path fill="none" stroke="#00876c" stroke-dasharray="5,2" d="M2001.1,-1094.46C1975.49,-953.76 1967.52,-939.42 1800.99,-760.68"/>
<polygon fill="#00876c" stroke="#00876c" points="1794.28,-753.49 1804.39,-757.74 1796.86,-756.26 1801.1,-760.81 1801.1,-760.81 1801.1,-760.81 1796.86,-756.26 1797.81,-763.88 1794.28,-753.49"/>
</g>
<!-- 46039 -->
<g id="node32" class="node">
<title>46039</title>
<polygon fill="none" stroke="#00876c" points="2147.64,-851.85 2147.64,-866.76 2094.64,-877.3 2019.68,-877.3 1966.68,-866.76 1966.68,-851.85 2019.68,-841.3 2094.64,-841.3 2147.64,-851.85"/>
<text text-anchor="middle" x="2057.16" y="-854.25" font-family="Times,serif" font-size="14.00">NASA License, 1.3</text>
</g>
<!-- 46039&#45;&gt;46034 -->
<g id="edge39" class="edge">
<title>46039&#45;&gt;46034</title>
<path fill="none" stroke="#00876c" stroke-dasharray="5,2" d="M2032.65,-841.03C1983.61,-805.05 1961.33,-794.5 1846.31,-755.22"/>
<polygon fill="#00876c" stroke="#00876c" points="1837.16,-752.1 1848.08,-751.07 1840.74,-753.32 1846.63,-755.33 1846.63,-755.33 1846.63,-755.33 1840.74,-753.32 1845.18,-759.59 1837.16,-752.1"/>
</g>
<!-- 46040 -->
<g id="node33" class="node">
<title>46040</title>
<polygon fill="none" stroke="#00876c" points="2597.05,-807.09 2597.05,-822 2459.67,-832.54 2265.39,-832.54 2128.02,-822 2128.02,-807.09 2265.39,-796.54 2459.67,-796.54 2597.05,-807.09"/>
<text text-anchor="middle" x="2362.53" y="-809.49" font-family="Times,serif" font-size="14.00">NASA OPEN SOURCE AGREEMENT VERSION 1.3</text>
</g>
<!-- 46040&#45;&gt;46034 -->
<g id="edge40" class="edge">
<title>46040&#45;&gt;46034</title>
<path fill="none" stroke="#00876c" stroke-dasharray="5,2" d="M2277.14,-796.08C2187.47,-777.49 2127.89,-769.62 1905.94,-744.98"/>
<polygon fill="#00876c" stroke="#00876c" points="1896.11,-743.89 1906.55,-740.52 1899.87,-744.31 1906.05,-744.99 1906.05,-744.99 1906.05,-744.99 1899.87,-744.31 1905.56,-749.46 1896.11,-743.89"/>
</g>
</g>
</svg>
