<?xml version="1.0" encoding="UTF-8" standalone="no"?>
<!DOCTYPE svg PUBLIC "-//W3C//DTD SVG 1.1//EN"
 "http://www.w3.org/Graphics/SVG/1.1/DTD/svg11.dtd">
<!-- Generated by graphviz version 10.0.1 (0)
 -->
<!-- Pages: 1 -->
<svg width="3438pt" height="1977pt"
 viewBox="0.00 0.00 3438.00 1977.00" xmlns="http://www.w3.org/2000/svg" xmlns:xlink="http://www.w3.org/1999/xlink">
<g id="graph0" class="graph" transform="scale(1 1) rotate(0) translate(4 1973)">
<polygon fill="white" stroke="none" points="-4,4 -4,-1973 3434,-1973 3434,4 -4,4"/>
<!-- 3463 -->
<g id="node1" class="node">
<title>3463</title>
<ellipse fill="none" stroke="#b8bf62" cx="1030.79" cy="-665.52" rx="158.22" ry="28.99"/>
<text text-anchor="middle" x="1030.79" y="-668.72" font-family="Times,serif" font-size="14.00" fill="gray">SPDXLicense</text>
<text text-anchor="middle" x="1030.79" y="-652.22" font-family="Times,serif" font-size="14.00" fill="gray">67c711033250fae40716819ab84a248f</text>
</g>
<!-- 3464 -->
<g id="node2" class="node">
<title>3464</title>
<polygon fill="none" stroke="black" points="1549.11,-776.2 1549.11,-791.11 1500.65,-801.65 1432.11,-801.65 1383.65,-791.11 1383.65,-776.2 1432.11,-765.65 1500.65,-765.65 1549.11,-776.2"/>
<polygon fill="none" stroke="black" points="1553.11,-772.97 1553.11,-794.33 1501.08,-805.65 1431.68,-805.65 1379.65,-794.33 1379.65,-772.97 1431.68,-761.65 1501.08,-761.65 1553.11,-772.97"/>
<text text-anchor="middle" x="1466.38" y="-778.6" font-family="Times,serif" font-size="14.00">spdx:OLDAP&#45;2.8</text>
</g>
<!-- 3463&#45;&gt;3464 -->
<g id="edge1" class="edge">
<title>3463&#45;&gt;3464</title>
<path fill="none" stroke="#b8bf62" d="M1156.54,-683.49C1207.96,-694.87 1268.38,-715.02 1402.72,-761.56"/>
<polygon fill="#b8bf62" stroke="#b8bf62" points="1401.34,-764.79 1411.94,-764.76 1403.64,-758.18 1401.34,-764.79"/>
</g>
<!-- 8251 -->
<g id="node8" class="node">
<title>8251</title>
<polygon fill="none" stroke="#e09d4b" points="1168.71,-580.01 1168.71,-594.92 1115.06,-605.46 1039.18,-605.46 985.53,-594.92 985.53,-580.01 1039.18,-569.46 1115.06,-569.46 1168.71,-580.01"/>
<polygon fill="none" stroke="#e09d4b" points="1172.71,-576.72 1172.71,-598.21 1115.45,-609.46 1038.8,-609.46 981.53,-598.21 981.53,-576.72 1038.8,-565.46 1115.45,-565.46 1172.71,-576.72"/>
<text text-anchor="middle" x="1077.12" y="-582.41" font-family="Times,serif" font-size="14.00">Fedora:OLDAP&#45;2.8</text>
</g>
<!-- 3464&#45;&gt;8251 -->
<g id="edge2" class="edge">
<title>3464&#45;&gt;8251</title>
<path fill="none" stroke="#e09d4b" stroke-width="2" d="M1427.38,-762.2C1245.54,-662.19 1204.8,-640.34 1137.04,-611.91"/>
<polygon fill="#e09d4b" stroke="#e09d4b" stroke-width="2" points="1129.08,-608.6 1140.04,-608.29 1131.64,-609.12 1138.5,-611.98 1138.31,-612.44 1138.12,-612.9 1131.25,-610.04 1136.58,-616.59 1129.08,-608.6"/>
</g>
<!-- 9685 -->
<g id="node12" class="node">
<title>9685</title>
<polygon fill="none" stroke="#58a066" points="1581.33,-1210.81 1581.33,-1225.72 1531.57,-1236.26 1461.2,-1236.26 1411.45,-1225.72 1411.45,-1210.81 1461.2,-1200.26 1531.57,-1200.26 1581.33,-1210.81"/>
<polygon fill="none" stroke="#58a066" points="1585.33,-1207.57 1585.33,-1228.96 1531.99,-1240.26 1460.78,-1240.26 1407.45,-1228.96 1407.45,-1207.57 1460.78,-1196.26 1531.99,-1196.26 1585.33,-1207.57"/>
<text text-anchor="middle" x="1496.39" y="-1213.21" font-family="Times,serif" font-size="14.00">osadl:OLDAP&#45;2.8</text>
</g>
<!-- 3464&#45;&gt;9685 -->
<g id="edge3" class="edge">
<title>3464&#45;&gt;9685</title>
<path fill="none" stroke="#58a066" stroke-width="2" d="M1459.16,-806.1C1398.2,-996.08 1397.83,-1013 1480.77,-1185.83"/>
<polygon fill="#58a066" stroke="#58a066" stroke-width="2" points="1484.5,-1193.61 1476.12,-1186.54 1482.94,-1191.51 1479.72,-1184.81 1480.17,-1184.6 1480.62,-1184.38 1483.84,-1191.08 1484.23,-1182.65 1484.5,-1193.61"/>
</g>
<!-- 46365 -->
<g id="node27" class="node">
<title>46365</title>
<polygon fill="none" stroke="#00876c" points="2313.05,-499.1 2313.05,-514.01 2206.18,-524.56 2055.04,-524.56 1948.17,-514.01 1948.17,-499.1 2055.04,-488.56 2206.18,-488.56 2313.05,-499.1"/>
<polygon fill="none" stroke="#00876c" points="2317.05,-495.48 2317.05,-517.64 2206.38,-528.56 2054.84,-528.56 1944.17,-517.64 1944.17,-495.48 2054.84,-484.56 2206.38,-484.56 2317.05,-495.48"/>
<text text-anchor="middle" x="2130.61" y="-501.51" font-family="Times,serif" font-size="14.00">metaeffekt:OpenLDAP Public License 2.8</text>
</g>
<!-- 3464&#45;&gt;46365 -->
<g id="edge4" class="edge">
<title>3464&#45;&gt;46365</title>
<path fill="none" stroke="#00876c" stroke-width="2" d="M1495.89,-761.25C1733.96,-580.57 1807.94,-527.47 1932.73,-512.28"/>
<polygon fill="#00876c" stroke="#00876c" stroke-width="2" points="1941.36,-511.32 1931.92,-516.9 1938.86,-512.1 1931.47,-512.93 1931.42,-512.43 1931.36,-511.93 1938.75,-511.11 1930.92,-507.96 1941.36,-511.32"/>
</g>
<!-- 3465 -->
<g id="node3" class="node">
<title>3465</title>
<polygon fill="none" stroke="black" points="1250.12,-1049.85 1250.12,-1064.76 1214.32,-1075.3 1163.68,-1075.3 1127.88,-1064.76 1127.88,-1049.85 1163.68,-1039.3 1214.32,-1039.3 1250.12,-1049.85"/>
<polygon fill="none" stroke="black" points="1254.12,-1046.86 1254.12,-1067.75 1214.9,-1079.3 1163.11,-1079.3 1123.88,-1067.75 1123.88,-1046.86 1163.11,-1035.3 1214.9,-1035.3 1254.12,-1046.86"/>
<text text-anchor="middle" x="1189" y="-1052.25" font-family="Times,serif" font-size="14.00">OLDAP&#45;2.8</text>
</g>
<!-- 3465&#45;&gt;3464 -->
<g id="edge5" class="edge">
<title>3465&#45;&gt;3464</title>
<path fill="none" stroke="black" stroke-width="2" d="M1198.3,-1034.85C1246.96,-918.09 1260.07,-903.11 1419.04,-810.96"/>
<polygon fill="black" stroke="black" stroke-width="2" points="1426.6,-806.59 1420.2,-815.49 1424.64,-808.3 1418.2,-812.03 1417.95,-811.59 1417.7,-811.16 1424.14,-807.44 1415.7,-807.7 1426.6,-806.59"/>
</g>
<!-- 3465&#45;&gt;8251 -->
<g id="edge6" class="edge">
<title>3465&#45;&gt;8251</title>
<path fill="none" stroke="#e09d4b" stroke-width="2" d="M1176.29,-1035.04C1047.92,-810.08 1041.43,-791.8 1071.24,-620.76"/>
<polygon fill="#e09d4b" stroke="#e09d4b" stroke-width="2" points="1072.74,-612.21 1075.45,-622.84 1072.79,-614.82 1071.51,-622.15 1071.02,-622.06 1070.52,-621.97 1071.81,-614.65 1066.58,-621.28 1072.74,-612.21"/>
</g>
<!-- 8957 -->
<g id="node10" class="node">
<title>8957</title>
<polygon fill="none" stroke="#00876c" points="847.27,-1022.26 847.27,-1037.17 789.08,-1047.72 706.78,-1047.72 648.58,-1037.17 648.58,-1022.26 706.78,-1011.72 789.08,-1011.72 847.27,-1022.26"/>
<polygon fill="none" stroke="#00876c" points="851.27,-1018.92 851.27,-1040.51 789.44,-1051.72 706.42,-1051.72 644.58,-1040.51 644.58,-1018.92 706.42,-1007.72 789.44,-1007.72 851.27,-1018.92"/>
<text text-anchor="middle" x="747.93" y="-1024.67" font-family="Times,serif" font-size="14.00">BlueOak:OLDAP&#45;2.8</text>
</g>
<!-- 3465&#45;&gt;8957 -->
<g id="edge7" class="edge">
<title>3465&#45;&gt;8957</title>
<path fill="none" stroke="#00876c" stroke-width="2" d="M1123.65,-1055.85C965.89,-1052.3 906.21,-1050.43 850.7,-1044.38"/>
<polygon fill="#00876c" stroke="#00876c" stroke-width="2" points="842.04,-1043.38 852.49,-1040.05 844.64,-1043.18 852.03,-1044.03 851.98,-1044.52 851.92,-1045.02 844.53,-1044.17 851.46,-1048.99 842.04,-1043.38"/>
</g>
<!-- 3465&#45;&gt;9685 -->
<g id="edge8" class="edge">
<title>3465&#45;&gt;9685</title>
<path fill="none" stroke="#58a066" stroke-width="2" d="M1207.81,-1079.67C1269.51,-1152.42 1289.44,-1165.55 1420.92,-1199.34"/>
<polygon fill="#58a066" stroke="#58a066" stroke-width="2" points="1429.07,-1201.42 1418.26,-1203.31 1426.46,-1201.27 1419.25,-1199.43 1419.38,-1198.95 1419.5,-1198.46 1426.71,-1200.31 1420.49,-1194.59 1429.07,-1201.42"/>
</g>
<!-- 26467 -->
<g id="node19" class="node">
<title>26467</title>
<polygon fill="none" stroke="#e18745" points="998.28,-1330.03 998.28,-1344.94 938.13,-1355.48 853.08,-1355.48 792.93,-1344.94 792.93,-1330.03 853.08,-1319.48 938.13,-1319.48 998.28,-1330.03"/>
<polygon fill="none" stroke="#e18745" points="1002.28,-1326.67 1002.28,-1348.3 938.48,-1359.48 852.73,-1359.48 788.93,-1348.3 788.93,-1326.67 852.73,-1315.48 938.48,-1315.48 1002.28,-1326.67"/>
<text text-anchor="middle" x="895.61" y="-1332.43" font-family="Times,serif" font-size="14.00">fossology:OLDAP&#45;2.8</text>
</g>
<!-- 3465&#45;&gt;26467 -->
<g id="edge9" class="edge">
<title>3465&#45;&gt;26467</title>
<path fill="none" stroke="#e18745" stroke-width="2" d="M1159.84,-1078.73C985.26,-1207.08 964.54,-1224.55 914.64,-1305.96"/>
<polygon fill="#e18745" stroke="#e18745" stroke-width="2" points="910.33,-1313.04 911.69,-1302.15 911.24,-1310.59 915.1,-1304.24 915.53,-1304.5 915.96,-1304.76 912.09,-1311.11 919.37,-1306.84 910.33,-1313.04"/>
</g>
<!-- 37356 -->
<g id="node24" class="node">
<title>37356</title>
<polygon fill="none" stroke="#379469" points="1176.5,-1489.13 1176.5,-1504.05 1127.71,-1514.59 1058.72,-1514.59 1009.93,-1504.05 1009.93,-1489.13 1058.72,-1478.59 1127.71,-1478.59 1176.5,-1489.13"/>
<polygon fill="none" stroke="#379469" points="1180.5,-1485.91 1180.5,-1507.27 1128.14,-1518.59 1058.29,-1518.59 1005.93,-1507.27 1005.93,-1485.91 1058.29,-1474.59 1128.14,-1474.59 1180.5,-1485.91"/>
<text text-anchor="middle" x="1093.21" y="-1491.54" font-family="Times,serif" font-size="14.00">cavil:OLDAP&#45;2.8</text>
</g>
<!-- 3465&#45;&gt;37356 -->
<g id="edge10" class="edge">
<title>3465&#45;&gt;37356</title>
<path fill="none" stroke="#379469" stroke-width="2" d="M1178.08,-1079.54C1069,-1301.66 1062.36,-1321.23 1087.26,-1463.28"/>
<polygon fill="#379469" stroke="#379469" stroke-width="2" points="1088.77,-1471.78 1082.59,-1462.72 1087.83,-1469.35 1086.53,-1462.02 1087.02,-1461.94 1087.52,-1461.85 1088.81,-1469.17 1091.46,-1461.15 1088.77,-1471.78"/>
</g>
<!-- 46374 -->
<g id="node35" class="node">
<title>46374</title>
<polygon fill="none" stroke="#00876c" points="1686.56,-834.06 1686.56,-848.97 1642.32,-859.51 1579.75,-859.51 1535.51,-848.97 1535.51,-834.06 1579.75,-823.51 1642.32,-823.51 1686.56,-834.06"/>
<polygon fill="none" stroke="#00876c" points="1690.56,-830.9 1690.56,-852.13 1642.79,-863.51 1579.28,-863.51 1531.51,-852.13 1531.51,-830.9 1579.28,-819.51 1642.79,-819.51 1690.56,-830.9"/>
<polygon fill="none" stroke="#00876c" points="1694.56,-827.74 1694.56,-855.29 1643.26,-867.51 1578.81,-867.51 1527.51,-855.29 1527.51,-827.74 1578.81,-815.51 1643.26,-815.51 1694.56,-827.74"/>
<text text-anchor="middle" x="1611.03" y="-836.46" font-family="Times,serif" font-size="14.00">osi:OLDAP&#45;2.8</text>
</g>
<!-- 3465&#45;&gt;46374 -->
<g id="edge11" class="edge">
<title>3465&#45;&gt;46374</title>
<path fill="none" stroke="#00876c" stroke-width="2" d="M1211.15,-1034.92C1298.44,-947.26 1322.23,-934.21 1539.59,-864.36"/>
<polygon fill="#00876c" stroke="#00876c" stroke-width="2" points="1547.77,-861.73 1539.62,-869.08 1545.48,-862.99 1538.4,-865.27 1538.25,-864.79 1538.1,-864.31 1545.18,-862.04 1536.87,-860.51 1547.77,-861.73"/>
</g>
<!-- 51029 -->
<g id="node38" class="node">
<title>51029</title>
<polygon fill="none" stroke="#dac767" points="866.99,-1241.07 866.99,-1255.98 760.76,-1266.52 610.54,-1266.52 504.32,-1255.98 504.32,-1241.07 610.54,-1230.52 760.76,-1230.52 866.99,-1241.07"/>
<polygon fill="none" stroke="#dac767" points="870.99,-1237.44 870.99,-1259.6 760.96,-1270.52 610.34,-1270.52 500.32,-1259.6 500.32,-1237.44 610.34,-1226.52 760.96,-1226.52 870.99,-1237.44"/>
<text text-anchor="middle" x="685.65" y="-1243.47" font-family="Times,serif" font-size="14.00">fosslight:Open LDAP Public License v2.8</text>
</g>
<!-- 3465&#45;&gt;51029 -->
<g id="edge12" class="edge">
<title>3465&#45;&gt;51029</title>
<path fill="none" stroke="#dac767" stroke-width="2" d="M1141.11,-1073.19C878.22,-1160.45 834.01,-1175.9 741.01,-1221.17"/>
<polygon fill="#dac767" stroke="#dac767" stroke-width="2" points="733.13,-1225.02 740.14,-1216.58 735.21,-1223.44 741.89,-1220.18 742.11,-1220.63 742.33,-1221.08 735.65,-1224.34 744.09,-1224.67 733.13,-1225.02"/>
</g>
<!-- 3466 -->
<g id="node4" class="node">
<title>3466</title>
<polygon fill="none" stroke="black" points="1198.63,-990.59 1198.63,-1005.5 1114.15,-1016.05 994.67,-1016.05 910.19,-1005.5 910.19,-990.59 994.67,-980.05 1114.15,-980.05 1198.63,-990.59"/>
<polygon fill="none" stroke="black" points="1202.63,-987.06 1202.63,-1009.03 1114.4,-1020.05 994.43,-1020.05 906.19,-1009.03 906.19,-987.06 994.43,-976.05 1114.4,-976.05 1202.63,-987.06"/>
<text text-anchor="middle" x="1054.41" y="-993" font-family="Times,serif" font-size="14.00">Open LDAP Public License v2.8</text>
</g>
<!-- 3466&#45;&gt;3464 -->
<g id="edge13" class="edge">
<title>3466&#45;&gt;3464</title>
<path fill="none" stroke="black" stroke-width="2" d="M1074.73,-975.86C1161.99,-881.09 1184.23,-868.3 1397.58,-804.2"/>
<polygon fill="black" stroke="black" stroke-width="2" points="1405.88,-801.71 1397.59,-808.89 1403.57,-802.93 1396.44,-805.06 1396.3,-804.58 1396.16,-804.1 1403.28,-801.97 1395.01,-800.27 1405.88,-801.71"/>
</g>
<!-- 3466&#45;&gt;8957 -->
<g id="edge14" class="edge">
<title>3466&#45;&gt;8957</title>
<path fill="none" stroke="#00876c" stroke-width="2" d="M911.86,-1010.18C888,-1012.3 869.53,-1014.04 853.67,-1015.68"/>
<polygon fill="#00876c" stroke="#00876c" stroke-width="2" points="844.97,-1016.61 854.43,-1011.08 847.46,-1015.84 854.86,-1015.05 854.91,-1015.55 854.96,-1016.05 847.57,-1016.84 855.39,-1020.03 844.97,-1016.61"/>
</g>
<!-- 3466&#45;&gt;26467 -->
<g id="edge15" class="edge">
<title>3466&#45;&gt;26467</title>
<path fill="none" stroke="#e18745" stroke-width="2" d="M1036.24,-1020.48C913.28,-1172.41 902.93,-1190 897.13,-1304.23"/>
<polygon fill="#e18745" stroke="#e18745" stroke-width="2" points="896.72,-1312.78 892.71,-1302.57 896.34,-1310.2 896.7,-1302.77 897.2,-1302.79 897.7,-1302.82 897.34,-1310.25 901.7,-1303.01 896.72,-1312.78"/>
</g>
<!-- 3466&#45;&gt;51029 -->
<g id="edge16" class="edge">
<title>3466&#45;&gt;51029</title>
<path fill="none" stroke="#dac767" stroke-width="2" d="M1010.69,-1020.48C806.21,-1125.52 780.25,-1141.47 712.24,-1218.14"/>
<polygon fill="#dac767" stroke="#dac767" stroke-width="2" points="706.69,-1224.44 709.93,-1213.96 708.01,-1222.18 712.93,-1216.61 713.3,-1216.94 713.68,-1217.27 708.76,-1222.84 716.68,-1219.91 706.69,-1224.44"/>
</g>
<!-- 8248 -->
<g id="node5" class="node">
<title>8248</title>
<polygon fill="none" stroke="#e09d4b" points="921.6,-281.25 921.6,-296.16 867.3,-306.7 790.5,-306.7 736.2,-296.16 736.2,-281.25 790.5,-270.7 867.3,-270.7 921.6,-281.25"/>
<text text-anchor="middle" x="828.9" y="-283.65" font-family="Times,serif" font-size="14.00">OpenLDAP License</text>
</g>
<!-- 8248&#45;&gt;8251 -->
<g id="edge17" class="edge">
<title>8248&#45;&gt;8251</title>
<path fill="none" stroke="#e09d4b" stroke-dasharray="5,2" d="M839.68,-307.08C887.66,-388.57 900.18,-403.41 1048.25,-557.44"/>
<polygon fill="#e09d4b" stroke="#e09d4b" points="1055.02,-564.48 1044.85,-560.39 1052.4,-561.76 1048.09,-557.27 1048.09,-557.27 1048.09,-557.27 1052.4,-561.76 1051.33,-554.16 1055.02,-564.48"/>
</g>
<!-- 8249 -->
<g id="node6" class="node">
<title>8249</title>
<polygon fill="none" stroke="#e09d4b" points="1053,-241.98 1053,-256.89 1018.17,-267.43 968.91,-267.43 934.08,-256.89 934.08,-241.98 968.91,-231.43 1018.17,-231.43 1053,-241.98"/>
<text text-anchor="middle" x="993.54" y="-244.38" font-family="Times,serif" font-size="14.00">OpenLDAP</text>
</g>
<!-- 8249&#45;&gt;8251 -->
<g id="edge18" class="edge">
<title>8249&#45;&gt;8251</title>
<path fill="none" stroke="#e09d4b" stroke-dasharray="5,2" d="M991.83,-267.8C982.62,-368.44 986.27,-383.45 1062.64,-554.97"/>
<polygon fill="#e09d4b" stroke="#e09d4b" points="1066.67,-564.03 1058.49,-556.73 1065.13,-560.58 1062.6,-554.89 1062.6,-554.89 1062.6,-554.89 1065.13,-560.58 1066.71,-553.06 1066.67,-564.03"/>
</g>
<!-- 8250 -->
<g id="node7" class="node">
<title>8250</title>
<ellipse fill="none" stroke="#e09d4b" cx="657.11" cy="-355.08" rx="158.22" ry="28.99"/>
<text text-anchor="middle" x="657.11" y="-358.28" font-family="Times,serif" font-size="14.00" fill="gray">FedoraEntry</text>
<text text-anchor="middle" x="657.11" y="-341.78" font-family="Times,serif" font-size="14.00" fill="gray">bec85f8b73c358222b601ace4d73ea38</text>
</g>
<!-- 8250&#45;&gt;8251 -->
<g id="edge19" class="edge">
<title>8250&#45;&gt;8251</title>
<path fill="none" stroke="#e09d4b" d="M710.15,-382.71C786.6,-422.73 825.77,-444.74 1028.22,-559.69"/>
<polygon fill="#e09d4b" stroke="#e09d4b" points="1026.24,-562.59 1036.66,-564.49 1029.7,-556.51 1026.24,-562.59"/>
</g>
<!-- 8956 -->
<g id="node9" class="node">
<title>8956</title>
<ellipse fill="none" stroke="#00876c" cx="280.01" cy="-1000.3" rx="155.56" ry="28.99"/>
<text text-anchor="middle" x="280.01" y="-1003.5" font-family="Times,serif" font-size="14.00" fill="gray">BlueOakCouncil</text>
<text text-anchor="middle" x="280.01" y="-987" font-family="Times,serif" font-size="14.00" fill="gray">b030b0fc0b81fddb7bf130a53fbd7a9a</text>
</g>
<!-- 8956&#45;&gt;8957 -->
<g id="edge20" class="edge">
<title>8956&#45;&gt;8957</title>
<path fill="none" stroke="#00876c" d="M415.59,-1014.85C462.7,-1018.45 520.8,-1021.05 632.84,-1025.36"/>
<polygon fill="#00876c" stroke="#00876c" points="632.57,-1028.85 642.7,-1025.74 632.84,-1021.86 632.57,-1028.85"/>
</g>
<!-- 9684 -->
<g id="node11" class="node">
<title>9684</title>
<ellipse fill="none" stroke="#58a066" cx="1787.48" cy="-1578.79" rx="155.56" ry="28.99"/>
<text text-anchor="middle" x="1787.48" y="-1581.99" font-family="Times,serif" font-size="14.00" fill="gray">OSADLRule</text>
<text text-anchor="middle" x="1787.48" y="-1565.49" font-family="Times,serif" font-size="14.00" fill="gray">c9f6c28edf915e56a33e98e0d8b07f64</text>
</g>
<!-- 9684&#45;&gt;9685 -->
<g id="edge21" class="edge">
<title>9684&#45;&gt;9685</title>
<path fill="none" stroke="#58a066" d="M1737.59,-1551.01C1629.43,-1489.22 1612.37,-1461.18 1511.84,-1250.67"/>
<polygon fill="#58a066" stroke="#58a066" points="1515.11,-1249.39 1507.64,-1241.87 1508.79,-1252.4 1515.11,-1249.39"/>
</g>
<!-- 9944 -->
<g id="node13" class="node">
<title>9944</title>
<ellipse fill="none" stroke="#58a066" cx="1596.77" cy="-1677.4" rx="160.34" ry="28.99"/>
<text text-anchor="middle" x="1596.77" y="-1680.6" font-family="Times,serif" font-size="14.00" fill="gray">OSADLMatrix</text>
<text text-anchor="middle" x="1596.77" y="-1664.1" font-family="Times,serif" font-size="14.00" fill="gray">6cbd804e2b248cb1b8f34b3ab57543dd</text>
</g>
<!-- 9944&#45;&gt;9685 -->
<g id="edge22" class="edge">
<title>9944&#45;&gt;9685</title>
<path fill="none" stroke="#58a066" d="M1579.76,-1648.1C1516.96,-1538.93 1513.33,-1514.46 1498.31,-1252.03"/>
<polygon fill="#58a066" stroke="#58a066" points="1501.81,-1251.87 1497.74,-1242.08 1494.82,-1252.27 1501.81,-1251.87"/>
</g>
<!-- 21462 -->
<g id="node14" class="node">
<title>21462</title>
<ellipse fill="none" stroke="#dac767" cx="3270.01" cy="-659.94" rx="160.34" ry="28.99"/>
<text text-anchor="middle" x="3270.01" y="-663.14" font-family="Times,serif" font-size="14.00" fill="gray">ScancodeData</text>
<text text-anchor="middle" x="3270.01" y="-646.64" font-family="Times,serif" font-size="14.00" fill="gray">a202ab35c1b369bd89be80e2c3cb5368</text>
</g>
<!-- 21463 -->
<g id="node15" class="node">
<title>21463</title>
<polygon fill="none" stroke="black" points="2906.14,-544.52 2906.14,-559.43 2845.35,-569.98 2759.38,-569.98 2698.58,-559.43 2698.58,-544.52 2759.38,-533.98 2845.35,-533.98 2906.14,-544.52"/>
<polygon fill="none" stroke="black" points="2910.14,-541.15 2910.14,-562.8 2845.69,-573.98 2759.03,-573.98 2694.58,-562.8 2694.58,-541.15 2759.03,-529.98 2845.69,-529.98 2910.14,-541.15"/>
<text text-anchor="middle" x="2802.36" y="-546.93" font-family="Times,serif" font-size="14.00">scancode:openldap&#45;2.8</text>
</g>
<!-- 21462&#45;&gt;21463 -->
<g id="edge23" class="edge">
<title>21462&#45;&gt;21463</title>
<path fill="none" stroke="#dac767" d="M3220.33,-632.08C3138.6,-587.64 3099.15,-578.22 2921.95,-562.27"/>
<polygon fill="#dac767" stroke="#dac767" points="2922.42,-558.8 2912.14,-561.39 2921.79,-565.77 2922.42,-558.8"/>
</g>
<!-- 21463&#45;&gt;46365 -->
<g id="edge24" class="edge">
<title>21463&#45;&gt;46365</title>
<path fill="none" stroke="#00876c" stroke-dasharray="5,2" d="M2751.58,-530.83C2604.01,-470.27 2557.32,-463.97 2290.2,-490.19"/>
<polygon fill="#00876c" stroke="#00876c" points="2280.58,-491.14 2290.09,-485.68 2284.35,-490.77 2290.54,-490.16 2290.54,-490.16 2290.54,-490.16 2284.35,-490.77 2290.98,-494.64 2280.58,-491.14"/>
</g>
<!-- 21464 -->
<g id="node16" class="node">
<title>21464</title>
<polygon fill="none" stroke="black" points="3218.87,-460.24 3218.87,-475.15 3181.11,-485.7 3127.72,-485.7 3089.97,-475.15 3089.97,-460.24 3127.72,-449.7 3181.11,-449.7 3218.87,-460.24"/>
<polygon fill="none" stroke="black" points="3222.87,-457.2 3222.87,-478.19 3181.66,-489.7 3127.18,-489.7 3085.97,-478.19 3085.97,-457.2 3127.18,-445.7 3181.66,-445.7 3222.87,-457.2"/>
<text text-anchor="middle" x="3154.42" y="-462.65" font-family="Times,serif" font-size="14.00">openldap&#45;2.8</text>
</g>
<!-- 21464&#45;&gt;21463 -->
<g id="edge25" class="edge">
<title>21464&#45;&gt;21463</title>
<path fill="none" stroke="black" stroke-width="2" d="M3086.25,-478.71C3038.98,-487.24 2998.51,-497.73 2879.59,-530.59"/>
<polygon fill="black" stroke="black" stroke-width="2" points="2871.33,-532.87 2879.77,-525.86 2873.67,-531.7 2880.84,-529.72 2880.97,-530.2 2881.11,-530.68 2873.94,-532.67 2882.17,-534.54 2871.33,-532.87"/>
</g>
<!-- 21465 -->
<g id="node17" class="node">
<title>21465</title>
<polygon fill="none" stroke="black" points="2728.07,-806.43 2728.07,-821.35 2648.13,-831.89 2535.08,-831.89 2455.14,-821.35 2455.14,-806.43 2535.08,-795.89 2648.13,-795.89 2728.07,-806.43"/>
<polygon fill="none" stroke="black" points="2732.07,-802.93 2732.07,-824.85 2648.39,-835.89 2534.82,-835.89 2451.14,-824.85 2451.14,-802.93 2534.82,-791.89 2648.39,-791.89 2732.07,-802.93"/>
<text text-anchor="middle" x="2591.6" y="-808.84" font-family="Times,serif" font-size="14.00">OpenLDAP Public License 2.8</text>
</g>
<!-- 21465&#45;&gt;21463 -->
<g id="edge26" class="edge">
<title>21465&#45;&gt;21463</title>
<path fill="none" stroke="#dac767" stroke-width="2" d="M2616.61,-791.67C2744.86,-677.58 2761.07,-660.29 2790.2,-584.49"/>
<polygon fill="#dac767" stroke="#dac767" stroke-width="2" points="2793.15,-576.71 2793.81,-587.66 2792.71,-579.29 2790.07,-586.24 2789.6,-586.06 2789.14,-585.88 2791.78,-578.93 2785.4,-584.46 2793.15,-576.71"/>
</g>
<!-- 21465&#45;&gt;46365 -->
<g id="edge27" class="edge">
<title>21465&#45;&gt;46365</title>
<path fill="none" stroke="#00876c" stroke-width="2" d="M2577.13,-791.52C2470.66,-627.32 2450.77,-608.83 2211.93,-532.33"/>
<polygon fill="#00876c" stroke="#00876c" stroke-width="2" points="2203.82,-529.74 2214.72,-528.5 2206.42,-530.04 2213.5,-532.31 2213.35,-532.78 2213.2,-533.26 2206.11,-531 2211.98,-537.07 2203.82,-529.74"/>
</g>
<!-- 26466 -->
<g id="node18" class="node">
<title>26466</title>
<ellipse fill="none" stroke="#e18745" cx="546.53" cy="-1681.03" rx="154.5" ry="28.99"/>
<text text-anchor="middle" x="546.53" y="-1684.23" font-family="Times,serif" font-size="14.00" fill="gray">Fossology</text>
<text text-anchor="middle" x="546.53" y="-1667.73" font-family="Times,serif" font-size="14.00" fill="gray">22bcfe021463acb0abe2285a019ffa9e</text>
</g>
<!-- 26466&#45;&gt;26467 -->
<g id="edge28" class="edge">
<title>26466&#45;&gt;26467</title>
<path fill="none" stroke="#e18745" d="M566.81,-1652.05C632.66,-1558.59 653.94,-1538.87 860.17,-1367"/>
<polygon fill="#e18745" stroke="#e18745" points="862.25,-1369.82 867.69,-1360.73 857.77,-1364.45 862.25,-1369.82"/>
</g>
<!-- 27265 -->
<g id="node20" class="node">
<title>27265</title>
<polygon fill="none" stroke="black" points="2553.6,-625.59 2553.6,-640.5 2527.2,-651.05 2489.88,-651.05 2463.48,-640.5 2463.48,-625.59 2489.88,-615.05 2527.2,-615.05 2553.6,-625.59"/>
<text text-anchor="middle" x="2508.54" y="-628" font-family="Times,serif" font-size="14.00">OLDAP</text>
</g>
<!-- 27265&#45;&gt;46365 -->
<g id="edge29" class="edge">
<title>27265&#45;&gt;46365</title>
<path fill="none" stroke="#00876c" stroke-dasharray="5,2" d="M2488.39,-615.38C2418.44,-554.31 2389.3,-533.9 2304.53,-521.87"/>
<polygon fill="#00876c" stroke="#00876c" points="2294.84,-520.57 2305.35,-517.44 2298.58,-521.07 2304.75,-521.9 2304.75,-521.9 2304.75,-521.9 2298.58,-521.07 2304.15,-526.36 2294.84,-520.57"/>
</g>
<!-- 35147 -->
<g id="node21" class="node">
<title>35147</title>
<ellipse fill="none" stroke="#e06f45" cx="1085.42" cy="-798.63" rx="159.81" ry="28.99"/>
<text text-anchor="middle" x="1085.42" y="-801.83" font-family="Times,serif" font-size="14.00" fill="gray">OrtLicenseCategorization</text>
<text text-anchor="middle" x="1085.42" y="-785.33" font-family="Times,serif" font-size="14.00" fill="gray">3e9131c83d9f664e08de892334625e49</text>
</g>
<!-- 35147&#45;&gt;3464 -->
<g id="edge30" class="edge">
<title>35147&#45;&gt;3464</title>
<path fill="none" stroke="#e06f45" d="M1172.42,-774.01C1217.95,-764.94 1261.85,-766.11 1368.07,-775.02"/>
<polygon fill="#e06f45" stroke="#e06f45" points="1367.47,-778.49 1377.73,-775.84 1368.06,-771.51 1367.47,-778.49"/>
</g>
<!-- 36233 -->
<g id="node22" class="node">
<title>36233</title>
<ellipse fill="none" stroke="#e09d4b" cx="1232.15" cy="-373.26" rx="156.09" ry="28.99"/>
<text text-anchor="middle" x="1232.15" y="-376.46" font-family="Times,serif" font-size="14.00" fill="gray">OrtLicenseCategorization</text>
<text text-anchor="middle" x="1232.15" y="-359.96" font-family="Times,serif" font-size="14.00" fill="gray">177652c3d01e4fe7e4c95ec9dc6f45eb</text>
</g>
<!-- 36233&#45;&gt;3464 -->
<g id="edge31" class="edge">
<title>36233&#45;&gt;3464</title>
<path fill="none" stroke="#e09d4b" d="M1243.9,-402.62C1285.24,-505.24 1298.92,-527.86 1445.52,-751.8"/>
<polygon fill="#e09d4b" stroke="#e09d4b" points="1442.46,-753.51 1450.87,-759.96 1448.32,-749.68 1442.46,-753.51"/>
</g>
<!-- 37355 -->
<g id="node23" class="node">
<title>37355</title>
<ellipse fill="none" stroke="#379469" cx="912.23" cy="-1940" rx="155.56" ry="28.99"/>
<text text-anchor="middle" x="912.23" y="-1943.2" font-family="Times,serif" font-size="14.00" fill="gray">CavilLicenseChange</text>
<text text-anchor="middle" x="912.23" y="-1926.7" font-family="Times,serif" font-size="14.00" fill="gray">fb239a6bf24421c7c05304af326982fd</text>
</g>
<!-- 37355&#45;&gt;37356 -->
<g id="edge32" class="edge">
<title>37355&#45;&gt;37356</title>
<path fill="none" stroke="#379469" d="M916.83,-1910.63C935.91,-1790.87 945.9,-1768.89 1075.63,-1529.08"/>
<polygon fill="#379469" stroke="#379469" points="1078.7,-1530.77 1080.38,-1520.31 1072.54,-1527.44 1078.7,-1530.77"/>
</g>
<!-- 37357 -->
<g id="node25" class="node">
<title>37357</title>
<polygon fill="none" stroke="#379469" points="1155.35,-1836.7 1155.35,-1851.61 1117.92,-1862.15 1064.99,-1862.15 1027.56,-1851.61 1027.56,-1836.7 1064.99,-1826.15 1117.92,-1826.15 1155.35,-1836.7"/>
<text text-anchor="middle" x="1091.45" y="-1839.1" font-family="Times,serif" font-size="14.00">openldap 2.8</text>
</g>
<!-- 37357&#45;&gt;37356 -->
<g id="edge33" class="edge">
<title>37357&#45;&gt;37356</title>
<path fill="none" stroke="#379469" stroke-dasharray="5,2" d="M1084.58,-1825.77C1047.86,-1726.91 1047.98,-1711.46 1086.22,-1529.72"/>
<polygon fill="#379469" stroke="#379469" points="1088.24,-1520.13 1090.58,-1530.85 1087.46,-1523.83 1086.18,-1529.92 1086.18,-1529.92 1086.18,-1529.92 1087.46,-1523.83 1081.78,-1528.99 1088.24,-1520.13"/>
</g>
<!-- 46364 -->
<g id="node26" class="node">
<title>46364</title>
<ellipse fill="none" stroke="#00876c" cx="2675.81" cy="-343.23" rx="154.5" ry="28.99"/>
<text text-anchor="middle" x="2675.81" y="-346.43" font-family="Times,serif" font-size="14.00" fill="gray">MetaeffektLicense</text>
<text text-anchor="middle" x="2675.81" y="-329.93" font-family="Times,serif" font-size="14.00" fill="gray">81ab2d072fc77d5cb6ffbff575491919</text>
</g>
<!-- 46364&#45;&gt;46365 -->
<g id="edge34" class="edge">
<title>46364&#45;&gt;46365</title>
<path fill="none" stroke="#00876c" d="M2535.03,-355.45C2460.49,-368.21 2388.16,-397.21 2193.88,-479.67"/>
<polygon fill="#00876c" stroke="#00876c" points="2192.56,-476.43 2184.73,-483.56 2195.3,-482.87 2192.56,-476.43"/>
</g>
<!-- 46366 -->
<g id="node28" class="node">
<title>46366</title>
<polygon fill="none" stroke="#00876c" points="2418.75,-18.99 2418.75,-33.9 2363.15,-44.44 2284.52,-44.44 2228.92,-33.9 2228.92,-18.99 2284.52,-8.44 2363.15,-8.44 2418.75,-18.99"/>
<text text-anchor="middle" x="2323.84" y="-21.39" font-family="Times,serif" font-size="14.00">OLDAP, Version 2.8</text>
</g>
<!-- 46366&#45;&gt;46365 -->
<g id="edge35" class="edge">
<title>46366&#45;&gt;46365</title>
<path fill="none" stroke="#00876c" stroke-dasharray="5,2" d="M2319.52,-44.86C2288.24,-177.84 2281.39,-194.46 2146.22,-474.24"/>
<polygon fill="#00876c" stroke="#00876c" points="2141.89,-483.21 2142.19,-472.25 2143.54,-479.8 2146.24,-474.2 2146.24,-474.2 2146.24,-474.2 2143.54,-479.8 2150.29,-476.16 2141.89,-483.21"/>
</g>
<!-- 46367 -->
<g id="node29" class="node">
<title>46367</title>
<polygon fill="none" stroke="#00876c" points="2242.06,-66.07 2242.06,-80.98 2206.91,-91.53 2157.19,-91.53 2122.03,-80.98 2122.03,-66.07 2157.19,-55.53 2206.91,-55.53 2242.06,-66.07"/>
<text text-anchor="middle" x="2182.05" y="-68.48" font-family="Times,serif" font-size="14.00">OLDAP 2.8</text>
</g>
<!-- 46367&#45;&gt;46365 -->
<g id="edge36" class="edge">
<title>46367&#45;&gt;46365</title>
<path fill="none" stroke="#00876c" stroke-dasharray="5,2" d="M2184.75,-91.96C2202.21,-211.88 2200.07,-228.25 2138.82,-473.7"/>
<polygon fill="#00876c" stroke="#00876c" points="2136.44,-483.23 2134.49,-472.44 2137.35,-479.56 2138.86,-473.53 2138.86,-473.53 2138.86,-473.53 2137.35,-479.56 2143.23,-474.62 2136.44,-483.23"/>
</g>
<!-- 46368 -->
<g id="node30" class="node">
<title>46368</title>
<polygon fill="none" stroke="#00876c" points="2608.16,-67.03 2608.16,-81.95 2532.45,-92.49 2425.36,-92.49 2349.64,-81.95 2349.64,-67.03 2425.36,-56.49 2532.45,-56.49 2608.16,-67.03"/>
<text text-anchor="middle" x="2478.9" y="-69.44" font-family="Times,serif" font-size="14.00">OLDAP License, Version 2.8</text>
</g>
<!-- 46368&#45;&gt;46365 -->
<g id="edge37" class="edge">
<title>46368&#45;&gt;46365</title>
<path fill="none" stroke="#00876c" stroke-dasharray="5,2" d="M2464.61,-92.86C2379.35,-202.42 2365.58,-219.44 2155.89,-475.67"/>
<polygon fill="#00876c" stroke="#00876c" points="2149.76,-483.16 2152.61,-472.57 2152.15,-480.23 2156.09,-475.42 2156.09,-475.42 2156.09,-475.42 2152.15,-480.23 2159.57,-478.27 2149.76,-483.16"/>
</g>
<!-- 46369 -->
<g id="node31" class="node">
<title>46369</title>
<polygon fill="none" stroke="#00876c" points="2110.69,-10.54 2110.69,-25.45 2055.74,-36 1978.03,-36 1923.07,-25.45 1923.07,-10.54 1978.03,0 2055.74,0 2110.69,-10.54"/>
<text text-anchor="middle" x="2016.88" y="-12.95" font-family="Times,serif" font-size="14.00">OLDAP License 2.8</text>
</g>
<!-- 46369&#45;&gt;46365 -->
<g id="edge38" class="edge">
<title>46369&#45;&gt;46365</title>
<path fill="none" stroke="#00876c" stroke-dasharray="5,2" d="M2028.87,-36.25C2115.19,-168.09 2118.73,-185.03 2129.39,-473.27"/>
<polygon fill="#00876c" stroke="#00876c" points="2129.74,-482.86 2124.88,-473.04 2129.6,-479.08 2129.37,-472.87 2129.37,-472.87 2129.37,-472.87 2129.6,-479.08 2133.87,-472.7 2129.74,-482.86"/>
</g>
<!-- 46370 -->
<g id="node32" class="node">
<title>46370</title>
<polygon fill="none" stroke="#00876c" points="2437.41,-438.02 2437.41,-452.93 2297.77,-463.47 2100.27,-463.47 1960.62,-452.93 1960.62,-438.02 2100.27,-427.47 2297.77,-427.47 2437.41,-438.02"/>
<text text-anchor="middle" x="2199.02" y="-440.42" font-family="Times,serif" font-size="14.00">OpenLDAP Public License Version 2.8, 17 August 2003</text>
</g>
<!-- 46370&#45;&gt;46365 -->
<g id="edge39" class="edge">
<title>46370&#45;&gt;46365</title>
<path fill="none" stroke="#00876c" stroke-dasharray="5,2" d="M2176.26,-463.65C2172.3,-467.12 2167.8,-471.24 2161.75,-476.93"/>
<polygon fill="#00876c" stroke="#00876c" points="2154.76,-483.54 2158.93,-473.4 2157.51,-480.94 2162.02,-476.67 2162.02,-476.67 2162.02,-476.67 2157.51,-480.94 2165.12,-479.94 2154.76,-483.54"/>
</g>
<!-- 46371 -->
<g id="node33" class="node">
<title>46371</title>
<polygon fill="none" stroke="#00876c" points="2810.58,-134.87 2810.58,-149.78 2708.58,-160.33 2564.32,-160.33 2462.31,-149.78 2462.31,-134.87 2564.32,-124.33 2708.58,-124.33 2810.58,-134.87"/>
<text text-anchor="middle" x="2636.45" y="-137.28" font-family="Times,serif" font-size="14.00">http://www.OpenLDAP.org/license.html</text>
</g>
<!-- 46371&#45;&gt;46365 -->
<g id="edge40" class="edge">
<title>46371&#45;&gt;46365</title>
<path fill="none" stroke="#00876c" stroke-dasharray="5,2" d="M2604.49,-160.75C2475.92,-235.08 2450.48,-254.08 2167.14,-477.72"/>
<polygon fill="#00876c" stroke="#00876c" points="2159.64,-483.64 2164.7,-473.91 2162.61,-481.3 2167.49,-477.45 2167.49,-477.45 2167.49,-477.45 2162.61,-481.3 2170.28,-480.98 2159.64,-483.64"/>
</g>
<!-- 46373 -->
<g id="node34" class="node">
<title>46373</title>
<polygon fill="none" stroke="#00876c" points="2146.92,-342.87 2146.92,-357.79 1928.41,-368.33 1619.4,-368.33 1400.89,-357.79 1400.89,-342.87 1619.4,-332.33 1928.41,-332.33 2146.92,-342.87"/>
<text text-anchor="middle" x="1773.9" y="-345.28" font-family="Times,serif" font-size="14.00">THIS WORK IS SUBJECT TO VERSION 2.8 OF THE OPENLDAP PUBLIC LICENSE</text>
</g>
<!-- 46373&#45;&gt;46365 -->
<g id="edge41" class="edge">
<title>46373&#45;&gt;46365</title>
<path fill="none" stroke="#00876c" stroke-dasharray="5,2" d="M1955.79,-367.49C2003.29,-382.33 2036.95,-412.25 2101.02,-476.65"/>
<polygon fill="#00876c" stroke="#00876c" points="2107.7,-483.38 2097.46,-479.46 2105.04,-480.7 2100.66,-476.29 2100.66,-476.29 2100.66,-476.29 2105.04,-480.7 2103.85,-473.12 2107.7,-483.38"/>
</g>
<!-- 46374&#45;&gt;46365 -->
<g id="edge42" class="edge">
<title>46374&#45;&gt;46365</title>
<path fill="none" stroke="#00876c" stroke-dasharray="5,2" d="M1640.98,-815.11C1876.69,-607.37 1922.22,-569.9 2042.13,-532.14"/>
<polygon fill="#00876c" stroke="#00876c" points="2051.65,-529.2 2043.42,-536.45 2048.03,-530.32 2042.09,-532.16 2042.09,-532.16 2042.09,-532.16 2048.03,-530.32 2040.76,-527.86 2051.65,-529.2"/>
</g>
<!-- 50064 -->
<g id="node36" class="node">
<title>50064</title>
<ellipse fill="none" stroke="#dc574a" cx="1805.28" cy="-1036.13" rx="158.75" ry="28.99"/>
<text text-anchor="middle" x="1805.28" y="-1039.33" font-family="Times,serif" font-size="14.00" fill="gray">HermineLicense</text>
<text text-anchor="middle" x="1805.28" y="-1022.83" font-family="Times,serif" font-size="14.00" fill="gray">f6bbcca8ea2804932bc2342b3cd4b056</text>
</g>
<!-- 50064&#45;&gt;3464 -->
<g id="edge43" class="edge">
<title>50064&#45;&gt;3464</title>
<path fill="none" stroke="#dc574a" d="M1769.41,-1007.52C1606.83,-877.9 1575.65,-853.67 1511.01,-812.03"/>
<polygon fill="#dc574a" stroke="#dc574a" points="1513.22,-809.29 1502.92,-806.84 1509.45,-815.19 1513.22,-809.29"/>
</g>
<!-- 51028 -->
<g id="node37" class="node">
<title>51028</title>
<ellipse fill="none" stroke="#dac767" cx="157.58" cy="-1456.48" rx="157.15" ry="28.99"/>
<text text-anchor="middle" x="157.58" y="-1459.68" font-family="Times,serif" font-size="14.00" fill="gray">FOSSLight</text>
<text text-anchor="middle" x="157.58" y="-1443.18" font-family="Times,serif" font-size="14.00" fill="gray">ea4797f1b3ce13e9914eacbd38c3cd29</text>
</g>
<!-- 51028&#45;&gt;51029 -->
<g id="edge44" class="edge">
<title>51028&#45;&gt;51029</title>
<path fill="none" stroke="#dac767" d="M215.9,-1429.14C311.58,-1384.74 357.87,-1367.2 613.03,-1274.8"/>
<polygon fill="#dac767" stroke="#dac767" points="614.13,-1278.13 622.34,-1271.43 611.75,-1271.55 614.13,-1278.13"/>
</g>
</g>
</svg>
