<?xml version="1.0" encoding="UTF-8" standalone="no"?>
<!DOCTYPE svg PUBLIC "-//W3C//DTD SVG 1.1//EN"
 "http://www.w3.org/Graphics/SVG/1.1/DTD/svg11.dtd">
<!-- Generated by graphviz version 10.0.1 (0)
 -->
<!-- Pages: 1 -->
<svg width="1828pt" height="1390pt"
 viewBox="0.00 0.00 1828.00 1390.00" xmlns="http://www.w3.org/2000/svg" xmlns:xlink="http://www.w3.org/1999/xlink">
<g id="graph0" class="graph" transform="scale(1 1) rotate(0) translate(4 1386)">
<polygon fill="white" stroke="none" points="-4,4 -4,-1386 1824,-1386 1824,4 -4,4"/>
<!-- 3735 -->
<g id="node1" class="node">
<title>3735</title>
<ellipse fill="none" stroke="#b8bf62" cx="159.22" cy="-600.23" rx="159.28" ry="28.99"/>
<text text-anchor="middle" x="159.22" y="-603.43" font-family="Times,serif" font-size="14.00" fill="gray">SPDXLicense</text>
<text text-anchor="middle" x="159.22" y="-586.93" font-family="Times,serif" font-size="14.00" fill="gray">97b04c89c264c3a3f492da3e47552641</text>
</g>
<!-- 3736 -->
<g id="node2" class="node">
<title>3736</title>
<polygon fill="none" stroke="black" points="657.5,-634.98 657.5,-649.89 617.8,-660.43 561.66,-660.43 521.96,-649.89 521.96,-634.98 561.66,-624.43 617.8,-624.43 657.5,-634.98"/>
<polygon fill="none" stroke="black" points="661.5,-631.9 661.5,-652.96 618.33,-664.43 561.14,-664.43 517.96,-652.96 517.96,-631.9 561.14,-620.43 618.33,-620.43 661.5,-631.9"/>
<text text-anchor="middle" x="589.73" y="-637.38" font-family="Times,serif" font-size="14.00">spdx:RPL&#45;1.1</text>
</g>
<!-- 3735&#45;&gt;3736 -->
<g id="edge1" class="edge">
<title>3735&#45;&gt;3736</title>
<path fill="none" stroke="#b8bf62" d="M304.54,-612.41C348.06,-616.64 405.08,-622.66 506.5,-633.51"/>
<polygon fill="#b8bf62" stroke="#b8bf62" points="505.94,-636.98 516.26,-634.56 506.68,-630.02 505.94,-636.98"/>
</g>
<!-- 5268 -->
<g id="node6" class="node">
<title>5268</title>
<polygon fill="none" stroke="black" points="666.46,-574.27 666.46,-589.18 630.98,-599.73 580.81,-599.73 545.33,-589.18 545.33,-574.27 580.81,-563.73 630.98,-563.73 666.46,-574.27"/>
<polygon fill="none" stroke="black" points="670.46,-571.29 670.46,-592.17 631.56,-603.73 580.22,-603.73 541.33,-592.17 541.33,-571.29 580.22,-559.73 631.56,-559.73 670.46,-571.29"/>
<polygon fill="none" stroke="black" points="674.46,-568.3 674.46,-595.15 632.15,-607.73 579.64,-607.73 537.33,-595.15 537.33,-568.3 579.64,-555.73 632.15,-555.73 674.46,-568.3"/>
<text text-anchor="middle" x="605.89" y="-576.68" font-family="Times,serif" font-size="14.00">osi:RPL&#45;1.1</text>
</g>
<!-- 3736&#45;&gt;5268 -->
<g id="edge2" class="edge">
<title>3736&#45;&gt;5268</title>
<path fill="none" stroke="#78ab63" stroke-width="2" d="M587.6,-620.35C587.59,-619.91 587.58,-619.46 587.58,-619.03"/>
<polygon fill="#78ab63" stroke="#78ab63" stroke-width="2" points="588.85,-610.42 591.85,-620.97 588.97,-613.02 587.89,-620.38 587.4,-620.31 586.9,-620.24 587.98,-612.88 582.94,-619.65 588.85,-610.42"/>
</g>
<!-- 47825 -->
<g id="node21" class="node">
<title>47825</title>
<polygon fill="none" stroke="#00876c" points="564.48,-315.18 564.48,-330.09 511.15,-340.63 435.73,-340.63 382.4,-330.09 382.4,-315.18 435.73,-304.63 511.15,-304.63 564.48,-315.18"/>
<polygon fill="none" stroke="#00876c" points="568.48,-311.89 568.48,-333.37 511.54,-344.63 435.34,-344.63 378.4,-333.37 378.4,-311.89 435.34,-300.63 511.54,-300.63 568.48,-311.89"/>
<text text-anchor="middle" x="473.44" y="-317.58" font-family="Times,serif" font-size="14.00">metaeffekt:RPL 1.1</text>
</g>
<!-- 3736&#45;&gt;47825 -->
<g id="edge3" class="edge">
<title>3736&#45;&gt;47825</title>
<path fill="none" stroke="#00876c" stroke-width="2" d="M576.15,-620.19C482.4,-466.57 473.07,-447.24 473.16,-356.02"/>
<polygon fill="#00876c" stroke="#00876c" stroke-width="2" points="473.2,-347.27 477.66,-357.29 473.69,-349.84 473.66,-357.27 473.16,-357.27 472.66,-357.27 472.69,-349.83 468.66,-357.25 473.2,-347.27"/>
</g>
<!-- 3737 -->
<g id="node3" class="node">
<title>3737</title>
<polygon fill="none" stroke="black" points="926.82,-696.19 926.82,-711.1 899.78,-721.65 861.53,-721.65 834.49,-711.1 834.49,-696.19 861.53,-685.65 899.78,-685.65 926.82,-696.19"/>
<polygon fill="none" stroke="black" points="930.82,-693.46 930.82,-713.84 900.53,-725.65 860.78,-725.65 830.49,-713.84 830.49,-693.46 860.78,-681.65 900.53,-681.65 930.82,-693.46"/>
<text text-anchor="middle" x="880.66" y="-698.6" font-family="Times,serif" font-size="14.00">RPL&#45;1.1</text>
</g>
<!-- 3737&#45;&gt;3736 -->
<g id="edge4" class="edge">
<title>3737&#45;&gt;3736</title>
<path fill="none" stroke="black" stroke-width="2" d="M830.25,-694.6C729.75,-676.54 691.48,-669.35 655.54,-660.43"/>
<polygon fill="black" stroke="black" stroke-width="2" points="647.27,-658.33 658.07,-656.43 649.88,-658.48 657.08,-660.31 656.96,-660.79 656.84,-661.28 649.63,-659.45 655.85,-665.16 647.27,-658.33"/>
</g>
<!-- 3737&#45;&gt;5268 -->
<g id="edge5" class="edge">
<title>3737&#45;&gt;5268</title>
<path fill="none" stroke="black" stroke-width="2" d="M842.29,-688.37C728.54,-643.03 694.4,-629 656.14,-609.11"/>
<polygon fill="black" stroke="black" stroke-width="2" points="648.43,-605.04 659.37,-605.73 650.93,-605.8 657.51,-609.27 657.27,-609.71 657.04,-610.15 650.46,-606.68 655.17,-613.69 648.43,-605.04"/>
</g>
<!-- 9255 -->
<g id="node10" class="node">
<title>9255</title>
<polygon fill="none" stroke="#00876c" points="1304.16,-602.7 1304.16,-617.61 1254.72,-628.15 1184.81,-628.15 1135.38,-617.61 1135.38,-602.7 1184.81,-592.15 1254.72,-592.15 1304.16,-602.7"/>
<polygon fill="none" stroke="#00876c" points="1308.16,-599.46 1308.16,-620.85 1255.15,-632.15 1184.39,-632.15 1131.38,-620.85 1131.38,-599.46 1184.39,-588.15 1255.15,-588.15 1308.16,-599.46"/>
<text text-anchor="middle" x="1219.77" y="-605.1" font-family="Times,serif" font-size="14.00">BlueOak:RPL&#45;1.1</text>
</g>
<!-- 3737&#45;&gt;9255 -->
<g id="edge6" class="edge">
<title>3737&#45;&gt;9255</title>
<path fill="none" stroke="#00876c" stroke-width="2" d="M926.52,-691.43C1060.42,-655.75 1104.33,-643.96 1150.36,-630.64"/>
<polygon fill="#00876c" stroke="#00876c" stroke-width="2" points="1158.54,-628.27 1150.19,-635.38 1156.21,-629.46 1149.07,-631.54 1148.93,-631.06 1148.79,-630.58 1155.93,-628.5 1147.68,-626.74 1158.54,-628.27"/>
</g>
<!-- 22940 -->
<g id="node13" class="node">
<title>22940</title>
<polygon fill="none" stroke="black" points="875.68,-392.27 875.68,-407.18 829.81,-417.73 764.95,-417.73 719.08,-407.18 719.08,-392.27 764.95,-381.73 829.81,-381.73 875.68,-392.27"/>
<polygon fill="none" stroke="black" points="879.68,-389.09 879.68,-410.37 830.27,-421.73 764.5,-421.73 715.08,-410.37 715.08,-389.09 764.5,-377.73 830.27,-377.73 879.68,-389.09"/>
<text text-anchor="middle" x="797.38" y="-394.68" font-family="Times,serif" font-size="14.00">scancode:rpl&#45;1.1</text>
</g>
<!-- 3737&#45;&gt;22940 -->
<g id="edge7" class="edge">
<title>3737&#45;&gt;22940</title>
<path fill="none" stroke="black" stroke-width="2" d="M873.12,-681.32C818.92,-520.68 811.2,-496.28 802.01,-433.12"/>
<polygon fill="black" stroke="black" stroke-width="2" points="800.8,-424.59 806.66,-433.86 801.66,-427.06 802.7,-434.42 802.21,-434.49 801.71,-434.56 800.67,-427.2 797.75,-435.12 800.8,-424.59"/>
</g>
<!-- 26599 -->
<g id="node16" class="node">
<title>26599</title>
<polygon fill="none" stroke="#e18745" points="1114.28,-957.52 1114.28,-972.43 1062.9,-982.97 990.24,-982.97 938.85,-972.43 938.85,-957.52 990.24,-946.97 1062.9,-946.97 1114.28,-957.52"/>
<polygon fill="none" stroke="#e18745" points="1118.28,-954.26 1118.28,-975.69 1063.31,-986.97 989.83,-986.97 934.85,-975.69 934.85,-954.26 989.83,-942.97 1063.31,-942.97 1118.28,-954.26"/>
<text text-anchor="middle" x="1026.57" y="-959.92" font-family="Times,serif" font-size="14.00">fossology:RPL&#45;1.1</text>
</g>
<!-- 3737&#45;&gt;26599 -->
<g id="edge8" class="edge">
<title>3737&#45;&gt;26599</title>
<path fill="none" stroke="#e18745" stroke-width="2" d="M891.45,-726.09C957.54,-863.44 970.33,-888.89 1003.14,-933.71"/>
<polygon fill="#e18745" stroke="#e18745" stroke-width="2" points="1008.3,-940.69 998.74,-935.33 1006.38,-938.93 1001.95,-932.95 1002.36,-932.65 1002.76,-932.35 1007.18,-938.33 1005.97,-929.97 1008.3,-940.69"/>
</g>
<!-- 37442 -->
<g id="node19" class="node">
<title>37442</title>
<polygon fill="none" stroke="#379469" points="886.66,-981.36 886.66,-996.27 846.64,-1006.82 790.04,-1006.82 750.01,-996.27 750.01,-981.36 790.04,-970.82 846.64,-970.82 886.66,-981.36"/>
<polygon fill="none" stroke="#379469" points="890.66,-978.28 890.66,-999.36 847.16,-1010.82 789.52,-1010.82 746.01,-999.36 746.01,-978.28 789.52,-966.82 847.16,-966.82 890.66,-978.28"/>
<text text-anchor="middle" x="818.34" y="-983.77" font-family="Times,serif" font-size="14.00">cavil:RPL&#45;1.1</text>
</g>
<!-- 3737&#45;&gt;37442 -->
<g id="edge9" class="edge">
<title>3737&#45;&gt;37442</title>
<path fill="none" stroke="#379469" stroke-width="2" d="M874.68,-726.11C835.18,-874.8 829.03,-899.33 822.18,-955.6"/>
<polygon fill="#379469" stroke="#379469" stroke-width="2" points="821.17,-964.09 817.88,-953.63 820.97,-961.49 821.85,-954.1 822.35,-954.16 822.84,-954.22 821.97,-961.61 826.81,-954.69 821.17,-964.09"/>
</g>
<!-- 51134 -->
<g id="node24" class="node">
<title>51134</title>
<polygon fill="none" stroke="#dac767" points="1413.37,-902.26 1413.37,-917.17 1313.96,-927.72 1173.37,-927.72 1073.96,-917.17 1073.96,-902.26 1173.37,-891.72 1313.96,-891.72 1413.37,-902.26"/>
<polygon fill="none" stroke="#dac767" points="1417.37,-898.66 1417.37,-920.77 1314.17,-931.72 1173.16,-931.72 1069.96,-920.77 1069.96,-898.66 1173.16,-887.72 1314.17,-887.72 1417.37,-898.66"/>
<text text-anchor="middle" x="1243.67" y="-904.67" font-family="Times,serif" font-size="14.00">fosslight:Reciprocal Public License 1.1</text>
</g>
<!-- 3737&#45;&gt;51134 -->
<g id="edge10" class="edge">
<title>3737&#45;&gt;51134</title>
<path fill="none" stroke="#dac767" stroke-width="2" d="M910.61,-722.19C1082.9,-828.87 1122.04,-852.63 1185.14,-882.67"/>
<polygon fill="#dac767" stroke="#dac767" stroke-width="2" points="1192.86,-886.32 1181.89,-886.12 1190.33,-885.68 1183.6,-882.5 1183.82,-882.05 1184.03,-881.6 1190.75,-884.77 1185.74,-877.98 1192.86,-886.32"/>
</g>
<!-- 3738 -->
<g id="node4" class="node">
<title>3738</title>
<polygon fill="none" stroke="black" points="1105.38,-639.68 1105.38,-654.59 1027.71,-665.13 917.88,-665.13 840.21,-654.59 840.21,-639.68 917.88,-629.13 1027.71,-629.13 1105.38,-639.68"/>
<polygon fill="none" stroke="black" points="1109.38,-636.18 1109.38,-658.08 1027.98,-669.13 917.61,-669.13 836.21,-658.08 836.21,-636.18 917.61,-625.13 1027.98,-625.13 1109.38,-636.18"/>
<text text-anchor="middle" x="972.79" y="-642.08" font-family="Times,serif" font-size="14.00">Reciprocal Public License 1.1</text>
</g>
<!-- 3738&#45;&gt;3736 -->
<g id="edge11" class="edge">
<title>3738&#45;&gt;3736</title>
<path fill="none" stroke="#b8bf62" stroke-width="2" d="M848.47,-634.07C752.38,-624.48 712.35,-622.93 667.42,-628.67"/>
<polygon fill="#b8bf62" stroke="#b8bf62" stroke-width="2" points="658.9,-629.85 668.18,-624.02 661.37,-629 668.73,-627.98 668.8,-628.47 668.87,-628.97 661.5,-629.99 669.42,-632.93 658.9,-629.85"/>
</g>
<!-- 3738&#45;&gt;9255 -->
<g id="edge12" class="edge">
<title>3738&#45;&gt;9255</title>
<path fill="none" stroke="#00876c" stroke-width="2" d="M1062.02,-629.32C1086.52,-624.53 1105.03,-621.08 1120.4,-618.55"/>
<polygon fill="#00876c" stroke="#00876c" stroke-width="2" points="1128.67,-617.24 1119.5,-623.25 1126.22,-618.14 1118.87,-619.3 1118.79,-618.8 1118.72,-618.31 1126.06,-617.15 1118.09,-614.36 1128.67,-617.24"/>
</g>
<!-- 3738&#45;&gt;22940 -->
<g id="edge13" class="edge">
<title>3738&#45;&gt;22940</title>
<path fill="none" stroke="#dac767" stroke-width="2" d="M961.12,-624.94C891.97,-493.59 876.92,-467.3 833.2,-429.3"/>
<polygon fill="#dac767" stroke="#dac767" stroke-width="2" points="826.53,-423.62 837.06,-426.68 828.81,-424.9 834.47,-429.72 834.14,-430.1 833.82,-430.49 828.16,-425.66 831.22,-433.53 826.53,-423.62"/>
</g>
<!-- 3738&#45;&gt;26599 -->
<g id="edge14" class="edge">
<title>3738&#45;&gt;26599</title>
<path fill="none" stroke="#e18745" stroke-width="2" d="M979.84,-669.35C1032.25,-834.79 1038.11,-857.37 1030.36,-931.69"/>
<polygon fill="#e18745" stroke="#e18745" stroke-width="2" points="1029.44,-940.12 1026.05,-929.69 1029.22,-937.51 1030.03,-930.12 1030.52,-930.17 1031.02,-930.23 1030.21,-937.62 1035,-930.66 1029.44,-940.12"/>
</g>
<!-- 3738&#45;&gt;51134 -->
<g id="edge15" class="edge">
<title>3738&#45;&gt;51134</title>
<path fill="none" stroke="#dac767" stroke-width="2" d="M1001.04,-669.48C1155.98,-792.14 1177.17,-810.62 1222.87,-878.36"/>
<polygon fill="#dac767" stroke="#dac767" stroke-width="2" points="1227.52,-885.31 1218.22,-879.51 1225.68,-883.46 1221.54,-877.28 1221.96,-877 1222.37,-876.73 1226.51,-882.9 1225.7,-874.5 1227.52,-885.31"/>
</g>
<!-- 5267 -->
<g id="node5" class="node">
<title>5267</title>
<ellipse fill="none" stroke="#78ab63" cx="845.79" cy="-574.29" rx="161.4" ry="28.99"/>
<text text-anchor="middle" x="845.79" y="-577.49" font-family="Times,serif" font-size="14.00" fill="gray">OSILicense</text>
<text text-anchor="middle" x="845.79" y="-560.99" font-family="Times,serif" font-size="14.00" fill="gray">b06671f364c3866454cb2206b078714b</text>
</g>
<!-- 5267&#45;&gt;5268 -->
<g id="edge16" class="edge">
<title>5267&#45;&gt;5268</title>
<path fill="none" stroke="#78ab63" d="M706.94,-559.13C693.59,-558.87 682.52,-559.63 671.76,-561.45"/>
<polygon fill="#78ab63" stroke="#78ab63" points="671.15,-558 662.05,-563.44 672.55,-564.86 671.15,-558"/>
</g>
<!-- 5268&#45;&gt;47825 -->
<g id="edge17" class="edge">
<title>5268&#45;&gt;47825</title>
<path fill="none" stroke="#00876c" stroke-dasharray="5,2" d="M587.11,-555.44C503.81,-438.69 491.78,-418.84 479.52,-356.03"/>
<polygon fill="#00876c" stroke="#00876c" points="477.69,-346.31 483.97,-355.3 478.39,-350.03 479.54,-356.14 479.54,-356.14 479.54,-356.14 478.39,-350.03 475.12,-356.97 477.69,-346.31"/>
</g>
<!-- 5269 -->
<g id="node7" class="node">
<title>5269</title>
<polygon fill="none" stroke="black" points="480.35,-652.77 480.35,-667.68 381.92,-678.23 242.71,-678.23 144.27,-667.68 144.27,-652.77 242.71,-642.23 381.92,-642.23 480.35,-652.77"/>
<polygon fill="none" stroke="black" points="484.35,-649.18 484.35,-671.28 382.13,-682.23 242.5,-682.23 140.27,-671.28 140.27,-649.18 242.5,-638.23 382.13,-638.23 484.35,-649.18"/>
<text text-anchor="middle" x="312.31" y="-655.18" font-family="Times,serif" font-size="14.00">Reciprocal Public License, Version 1.1</text>
</g>
<!-- 5269&#45;&gt;5268 -->
<g id="edge18" class="edge">
<title>5269&#45;&gt;5268</title>
<path fill="none" stroke="#78ab63" stroke-width="2" d="M353.13,-637.9C396.33,-615.64 424.93,-608.57 525.98,-593.41"/>
<polygon fill="#78ab63" stroke="#78ab63" stroke-width="2" points="534.57,-592.13 525.35,-598.05 532.11,-593 524.76,-594.1 524.68,-593.6 524.61,-593.11 531.97,-592.01 524.02,-589.15 534.57,-592.13"/>
</g>
<!-- 5269&#45;&gt;47825 -->
<g id="edge19" class="edge">
<title>5269&#45;&gt;47825</title>
<path fill="none" stroke="#00876c" stroke-dasharray="5,2" d="M313.55,-637.9C322.55,-477.95 328.1,-460.78 441.82,-352.54"/>
<polygon fill="#00876c" stroke="#00876c" points="448.95,-345.78 444.8,-355.93 446.21,-348.38 441.7,-352.66 441.7,-352.66 441.7,-352.66 446.21,-348.38 438.6,-349.4 448.95,-345.78"/>
</g>
<!-- 8335 -->
<g id="node8" class="node">
<title>8335</title>
<polygon fill="none" stroke="black" points="1679.52,-604.1 1679.52,-619.01 1610.94,-629.56 1513.95,-629.56 1445.37,-619.01 1445.37,-604.1 1513.95,-593.56 1610.94,-593.56 1679.52,-604.1"/>
<text text-anchor="middle" x="1562.45" y="-606.51" font-family="Times,serif" font-size="14.00">Reciprocal Public License</text>
</g>
<!-- 8335&#45;&gt;9255 -->
<g id="edge20" class="edge">
<title>8335&#45;&gt;9255</title>
<path fill="none" stroke="#00876c" stroke-dasharray="5,2" d="M1452.51,-602.52C1421.98,-602.02 1383.85,-603.14 1319.43,-605.82"/>
<polygon fill="#00876c" stroke="#00876c" points="1309.64,-606.23 1319.44,-601.32 1313.42,-606.07 1319.63,-605.81 1319.63,-605.81 1319.63,-605.81 1313.42,-606.07 1319.82,-610.31 1309.64,-606.23"/>
</g>
<!-- 9254 -->
<g id="node9" class="node">
<title>9254</title>
<ellipse fill="none" stroke="#00876c" cx="1554.15" cy="-398.5" rx="157.15" ry="28.99"/>
<text text-anchor="middle" x="1554.15" y="-401.7" font-family="Times,serif" font-size="14.00" fill="gray">BlueOakCouncil</text>
<text text-anchor="middle" x="1554.15" y="-385.2" font-family="Times,serif" font-size="14.00" fill="gray">54fd4e3c3cfcde908c85342524718add</text>
</g>
<!-- 9254&#45;&gt;9255 -->
<g id="edge21" class="edge">
<title>9254&#45;&gt;9255</title>
<path fill="none" stroke="#00876c" d="M1519.33,-427C1461.24,-473.84 1431.93,-491.43 1268.38,-582.97"/>
<polygon fill="#00876c" stroke="#00876c" points="1266.79,-579.85 1259.77,-587.79 1270.21,-585.96 1266.79,-579.85"/>
</g>
<!-- 10481 -->
<g id="node11" class="node">
<title>10481</title>
<polygon fill="none" stroke="black" points="284.37,-207.81 284.37,-222.72 266.74,-233.26 241.81,-233.26 224.18,-222.72 224.18,-207.81 241.81,-197.26 266.74,-197.26 284.37,-207.81"/>
<text text-anchor="middle" x="254.28" y="-210.21" font-family="Times,serif" font-size="14.00">RPL</text>
</g>
<!-- 10481&#45;&gt;47825 -->
<g id="edge22" class="edge">
<title>10481&#45;&gt;47825</title>
<path fill="none" stroke="#00876c" stroke-dasharray="5,2" d="M281.9,-224.65C321.69,-238.56 341.16,-248.29 424.54,-295.1"/>
<polygon fill="#00876c" stroke="#00876c" points="433.13,-299.93 422.2,-298.95 429.83,-298.07 424.41,-295.03 424.41,-295.03 424.41,-295.03 429.83,-298.07 426.61,-291.1 433.13,-299.93"/>
</g>
<!-- 22939 -->
<g id="node12" class="node">
<title>22939</title>
<ellipse fill="none" stroke="#dac767" cx="971.3" cy="-47.36" rx="156.09" ry="28.99"/>
<text text-anchor="middle" x="971.3" y="-50.56" font-family="Times,serif" font-size="14.00" fill="gray">ScancodeData</text>
<text text-anchor="middle" x="971.3" y="-34.06" font-family="Times,serif" font-size="14.00" fill="gray">97f4a8498c06ef74f15a8b547a9842c4</text>
</g>
<!-- 22939&#45;&gt;22940 -->
<g id="edge23" class="edge">
<title>22939&#45;&gt;22940</title>
<path fill="none" stroke="#dac767" d="M944.4,-76.37C882.36,-144.48 871.96,-170.29 808.08,-366.77"/>
<polygon fill="#dac767" stroke="#dac767" points="804.83,-365.45 805.07,-376.04 811.49,-367.61 804.83,-365.45"/>
</g>
<!-- 22940&#45;&gt;47825 -->
<g id="edge24" class="edge">
<title>22940&#45;&gt;47825</title>
<path fill="none" stroke="#00876c" stroke-dasharray="5,2" d="M752.51,-380.08C661.7,-340.46 619.5,-323.56 580.05,-318.46"/>
<polygon fill="#00876c" stroke="#00876c" points="570.17,-317.45 580.58,-313.99 573.93,-317.84 580.12,-318.47 580.12,-318.47 580.12,-318.47 573.93,-317.84 579.66,-322.95 570.17,-317.45"/>
</g>
<!-- 22941 -->
<g id="node14" class="node">
<title>22941</title>
<polygon fill="none" stroke="black" points="719.31,-174.74 719.31,-189.65 692.91,-200.2 655.59,-200.2 629.19,-189.65 629.19,-174.74 655.59,-164.2 692.91,-164.2 719.31,-174.74"/>
<polygon fill="none" stroke="black" points="723.31,-172.03 723.31,-192.36 693.68,-204.2 654.82,-204.2 625.19,-192.36 625.19,-172.03 654.82,-160.2 693.68,-160.2 723.31,-172.03"/>
<text text-anchor="middle" x="674.25" y="-177.15" font-family="Times,serif" font-size="14.00">RPL 1.1</text>
</g>
<!-- 22941&#45;&gt;22940 -->
<g id="edge25" class="edge">
<title>22941&#45;&gt;22940</title>
<path fill="none" stroke="#dac767" stroke-width="2" d="M688.92,-204.45C714.85,-244.11 724.93,-262.4 780.42,-367.57"/>
<polygon fill="#dac767" stroke="#dac767" stroke-width="2" points="784.43,-375.17 775.79,-368.43 782.79,-373.14 779.32,-366.56 779.77,-366.33 780.21,-366.1 783.68,-372.67 783.75,-364.23 784.43,-375.17"/>
</g>
<!-- 22941&#45;&gt;47825 -->
<g id="edge26" class="edge">
<title>22941&#45;&gt;47825</title>
<path fill="none" stroke="#00876c" stroke-width="2" d="M627.34,-193.72C553.13,-212.89 537.54,-225.21 493.81,-291.35"/>
<polygon fill="#00876c" stroke="#00876c" stroke-width="2" points="489.08,-298.55 490.81,-287.72 490.07,-296.14 494.15,-289.92 494.57,-290.19 494.99,-290.47 490.91,-296.68 498.33,-292.66 489.08,-298.55"/>
</g>
<!-- 26598 -->
<g id="node15" class="node">
<title>26598</title>
<ellipse fill="none" stroke="#e18745" cx="1190.12" cy="-1329.08" rx="160.34" ry="28.99"/>
<text text-anchor="middle" x="1190.12" y="-1332.28" font-family="Times,serif" font-size="14.00" fill="gray">Fossology</text>
<text text-anchor="middle" x="1190.12" y="-1315.78" font-family="Times,serif" font-size="14.00" fill="gray">d6d80da1551a8c225db16835dad9ec4a</text>
</g>
<!-- 26598&#45;&gt;26599 -->
<g id="edge27" class="edge">
<title>26598&#45;&gt;26599</title>
<path fill="none" stroke="#e18745" d="M1176.64,-1299.7C1140.93,-1221.79 1130.04,-1197.44 1041.04,-997.49"/>
<polygon fill="#e18745" stroke="#e18745" points="1044.35,-996.31 1037.08,-988.6 1037.95,-999.16 1044.35,-996.31"/>
</g>
<!-- 35181 -->
<g id="node17" class="node">
<title>35181</title>
<ellipse fill="none" stroke="#e06f45" cx="321.92" cy="-911.51" rx="159.28" ry="28.99"/>
<text text-anchor="middle" x="321.92" y="-914.71" font-family="Times,serif" font-size="14.00" fill="gray">OrtLicenseCategorization</text>
<text text-anchor="middle" x="321.92" y="-898.21" font-family="Times,serif" font-size="14.00" fill="gray">cb98f47e073556179454ea9496b3e62c</text>
</g>
<!-- 35181&#45;&gt;3736 -->
<g id="edge28" class="edge">
<title>35181&#45;&gt;3736</title>
<path fill="none" stroke="#e06f45" d="M336.36,-882.36C379.35,-796.88 396.87,-780.27 549.75,-670.96"/>
<polygon fill="#e06f45" stroke="#e06f45" points="551.72,-673.86 557.82,-665.2 547.65,-668.16 551.72,-673.86"/>
</g>
<!-- 37441 -->
<g id="node18" class="node">
<title>37441</title>
<ellipse fill="none" stroke="#379469" cx="743.04" cy="-1352.62" rx="157.68" ry="28.99"/>
<text text-anchor="middle" x="743.04" y="-1355.82" font-family="Times,serif" font-size="14.00" fill="gray">CavilLicenseChange</text>
<text text-anchor="middle" x="743.04" y="-1339.32" font-family="Times,serif" font-size="14.00" fill="gray">0e8e5ca616aa1aebb5eb9284dfb94184</text>
</g>
<!-- 37441&#45;&gt;37442 -->
<g id="edge29" class="edge">
<title>37441&#45;&gt;37442</title>
<path fill="none" stroke="#379469" d="M747.95,-1323.16C761.18,-1244.29 766.38,-1220.13 810.8,-1022.35"/>
<polygon fill="#379469" stroke="#379469" points="814.19,-1023.26 812.96,-1012.74 807.36,-1021.72 814.19,-1023.26"/>
</g>
<!-- 47824 -->
<g id="node20" class="node">
<title>47824</title>
<ellipse fill="none" stroke="#00876c" cx="161.74" cy="-53.04" rx="157.15" ry="28.99"/>
<text text-anchor="middle" x="161.74" y="-56.24" font-family="Times,serif" font-size="14.00" fill="gray">MetaeffektLicense</text>
<text text-anchor="middle" x="161.74" y="-39.74" font-family="Times,serif" font-size="14.00" fill="gray">08db91a5858fa21cc9cd6bcbb88f7eb5</text>
</g>
<!-- 47824&#45;&gt;47825 -->
<g id="edge30" class="edge">
<title>47824&#45;&gt;47825</title>
<path fill="none" stroke="#00876c" d="M194.61,-81.81C254.49,-134.18 280.39,-156.53 438.7,-292.74"/>
<polygon fill="#00876c" stroke="#00876c" points="436.32,-295.31 446.18,-299.18 440.88,-290 436.32,-295.31"/>
</g>
<!-- 47826 -->
<g id="node22" class="node">
<title>47826</title>
<polygon fill="none" stroke="#00876c" points="489.44,-10.65 489.44,-25.56 441.96,-36.11 374.8,-36.11 327.31,-25.56 327.31,-10.65 374.8,-0.11 441.96,-0.11 489.44,-10.65"/>
<text text-anchor="middle" x="408.38" y="-13.06" font-family="Times,serif" font-size="14.00">RPL, Version 1.1</text>
</g>
<!-- 47826&#45;&gt;47825 -->
<g id="edge31" class="edge">
<title>47826&#45;&gt;47825</title>
<path fill="none" stroke="#00876c" stroke-dasharray="5,2" d="M406.81,-36.54C399.95,-119.37 403.3,-134.59 461.21,-289.89"/>
<polygon fill="#00876c" stroke="#00876c" points="464.68,-299.18 456.96,-291.38 463.35,-295.63 461.18,-289.81 461.18,-289.81 461.18,-289.81 463.35,-295.63 465.4,-288.24 464.68,-299.18"/>
</g>
<!-- 51133 -->
<g id="node23" class="node">
<title>51133</title>
<ellipse fill="none" stroke="#dac767" cx="1658.38" cy="-1163.11" rx="161.93" ry="28.99"/>
<text text-anchor="middle" x="1658.38" y="-1166.31" font-family="Times,serif" font-size="14.00" fill="gray">FOSSLight</text>
<text text-anchor="middle" x="1658.38" y="-1149.81" font-family="Times,serif" font-size="14.00" fill="gray">e96b38c303391b6594905bc70b4e9b72</text>
</g>
<!-- 51133&#45;&gt;51134 -->
<g id="edge32" class="edge">
<title>51133&#45;&gt;51134</title>
<path fill="none" stroke="#dac767" d="M1610.89,-1134.92C1532.45,-1088.28 1496.26,-1066.01 1289.46,-938.05"/>
<polygon fill="#dac767" stroke="#dac767" points="1291.44,-935.16 1281.09,-932.87 1287.75,-941.11 1291.44,-935.16"/>
</g>
</g>
</svg>
