<?xml version="1.0" encoding="UTF-8" standalone="no"?>
<!DOCTYPE svg PUBLIC "-//W3C//DTD SVG 1.1//EN"
 "http://www.w3.org/Graphics/SVG/1.1/DTD/svg11.dtd">
<!-- Generated by graphviz version 10.0.1 (0)
 -->
<!-- Pages: 1 -->
<svg width="2853pt" height="2596pt"
 viewBox="0.00 0.00 2853.00 2596.00" xmlns="http://www.w3.org/2000/svg" xmlns:xlink="http://www.w3.org/1999/xlink">
<g id="graph0" class="graph" transform="scale(1 1) rotate(0) translate(4 2592)">
<polygon fill="white" stroke="none" points="-4,4 -4,-2592 2849,-2592 2849,4 -4,4"/>
<!-- 4302 -->
<g id="node1" class="node">
<title>4302</title>
<ellipse fill="none" stroke="#b8bf62" cx="698.52" cy="-627.22" rx="159.81" ry="28.99"/>
<text text-anchor="middle" x="698.52" y="-630.42" font-family="Times,serif" font-size="14.00" fill="gray">SPDXLicense</text>
<text text-anchor="middle" x="698.52" y="-613.92" font-family="Times,serif" font-size="14.00" fill="gray">912c57655becacb05b75494ae542a113</text>
</g>
<!-- 4303 -->
<g id="node2" class="node">
<title>4303</title>
<polygon fill="none" stroke="black" points="1181.37,-867.92 1181.37,-882.84 1142.32,-893.38 1087.1,-893.38 1048.05,-882.84 1048.05,-867.92 1087.1,-857.38 1142.32,-857.38 1181.37,-867.92"/>
<polygon fill="none" stroke="black" points="1185.37,-864.86 1185.37,-885.9 1142.85,-897.38 1086.56,-897.38 1044.05,-885.9 1044.05,-864.86 1086.56,-853.38 1142.85,-853.38 1185.37,-864.86"/>
<text text-anchor="middle" x="1114.71" y="-870.33" font-family="Times,serif" font-size="14.00">spdx:WTFPL</text>
</g>
<!-- 4302&#45;&gt;4303 -->
<g id="edge1" class="edge">
<title>4302&#45;&gt;4303</title>
<path fill="none" stroke="#b8bf62" d="M766.76,-653.83C844.56,-685.94 886.67,-714.26 1074.62,-847.05"/>
<polygon fill="#b8bf62" stroke="#b8bf62" points="1072.55,-849.87 1082.74,-852.78 1076.59,-844.15 1072.55,-849.87"/>
</g>
<!-- 5441 -->
<g id="node6" class="node">
<title>5441</title>
<polygon fill="none" stroke="#e06f45" points="1078.06,-694.14 1078.06,-709.05 1034.14,-719.59 972.03,-719.59 928.11,-709.05 928.11,-694.14 972.03,-683.59 1034.14,-683.59 1078.06,-694.14"/>
<polygon fill="none" stroke="#e06f45" points="1082.06,-690.98 1082.06,-712.2 1034.61,-723.59 971.56,-723.59 924.11,-712.2 924.11,-690.98 971.56,-679.59 1034.61,-679.59 1082.06,-690.98"/>
<text text-anchor="middle" x="1003.08" y="-696.54" font-family="Times,serif" font-size="14.00">google:WTFPL</text>
</g>
<!-- 4303&#45;&gt;5441 -->
<g id="edge2" class="edge">
<title>4303&#45;&gt;5441</title>
<path fill="none" stroke="#e06f45" stroke-width="2" d="M1099.81,-852.93C1051.53,-780.17 1037.94,-759.5 1022.11,-733.42"/>
<polygon fill="#e06f45" stroke="#e06f45" stroke-width="2" points="1017.61,-725.96 1026.63,-732.2 1019.36,-727.9 1023.2,-734.27 1022.77,-734.53 1022.35,-734.78 1018.51,-728.41 1018.92,-736.85 1017.61,-725.96"/>
</g>
<!-- 8490 -->
<g id="node8" class="node">
<title>8490</title>
<polygon fill="none" stroke="#e09d4b" points="1556.02,-700.8 1556.02,-715.71 1511.78,-726.26 1449.21,-726.26 1404.97,-715.71 1404.97,-700.8 1449.21,-690.26 1511.78,-690.26 1556.02,-700.8"/>
<polygon fill="none" stroke="#e09d4b" points="1560.02,-697.64 1560.02,-718.87 1512.25,-730.26 1448.74,-730.26 1400.97,-718.87 1400.97,-697.64 1448.74,-686.26 1512.25,-686.26 1560.02,-697.64"/>
<text text-anchor="middle" x="1480.5" y="-703.21" font-family="Times,serif" font-size="14.00">Fedora:WTFPL</text>
</g>
<!-- 4303&#45;&gt;8490 -->
<g id="edge3" class="edge">
<title>4303&#45;&gt;8490</title>
<path fill="none" stroke="#e09d4b" stroke-width="2" d="M1137.09,-853.27C1252.27,-739.76 1279.84,-718.43 1389.85,-711.6"/>
<polygon fill="#e09d4b" stroke="#e09d4b" stroke-width="2" points="1398.33,-711.12 1388.6,-716.18 1395.8,-711.77 1388.37,-712.19 1388.35,-711.69 1388.32,-711.19 1395.74,-710.77 1388.09,-707.2 1398.33,-711.12"/>
</g>
<!-- 9747 -->
<g id="node12" class="node">
<title>9747</title>
<polygon fill="none" stroke="#58a066" points="1296,-537.19 1296,-552.1 1255.65,-562.65 1198.59,-562.65 1158.24,-552.1 1158.24,-537.19 1198.59,-526.65 1255.65,-526.65 1296,-537.19"/>
<polygon fill="none" stroke="#58a066" points="1300,-534.1 1300,-555.19 1256.17,-566.65 1198.08,-566.65 1154.24,-555.19 1154.24,-534.1 1198.08,-522.65 1256.17,-522.65 1300,-534.1"/>
<text text-anchor="middle" x="1227.12" y="-539.6" font-family="Times,serif" font-size="14.00">osadl:WTFPL</text>
</g>
<!-- 4303&#45;&gt;9747 -->
<g id="edge4" class="edge">
<title>4303&#45;&gt;9747</title>
<path fill="none" stroke="#58a066" stroke-width="2" d="M1117.5,-852.95C1140.37,-669.79 1145.15,-645.96 1201.91,-575.36"/>
<polygon fill="#58a066" stroke="#58a066" stroke-width="2" points="1207.17,-568.87 1204.37,-579.47 1205.95,-571.17 1201.26,-576.95 1200.87,-576.63 1200.49,-576.32 1205.17,-570.54 1197.38,-573.8 1207.17,-568.87"/>
</g>
<!-- 10596 -->
<g id="node15" class="node">
<title>10596</title>
<polygon fill="none" stroke="#deb256" points="950.16,-860.4 950.16,-875.31 915.98,-885.86 867.64,-885.86 833.46,-875.31 833.46,-860.4 867.64,-849.86 915.98,-849.86 950.16,-860.4"/>
<polygon fill="none" stroke="#deb256" points="954.16,-857.45 954.16,-878.26 916.59,-889.86 867.04,-889.86 829.46,-878.26 829.46,-857.45 867.04,-845.86 916.59,-845.86 954.16,-857.45"/>
<text text-anchor="middle" x="891.81" y="-862.81" font-family="Times,serif" font-size="14.00">fsf:WTFPL</text>
</g>
<!-- 4303&#45;&gt;10596 -->
<g id="edge5" class="edge">
<title>4303&#45;&gt;10596</title>
<path fill="none" stroke="#deb256" stroke-dasharray="5,2" d="M1056.44,-861.13C1001.98,-848.26 977.52,-844.96 950.15,-850.11"/>
<polygon fill="#deb256" stroke="#deb256" points="940.64,-852.23 949.42,-845.67 944.33,-851.41 950.4,-850.06 950.4,-850.06 950.4,-850.06 944.33,-851.41 951.38,-854.45 940.64,-852.23"/>
</g>
<!-- 11027 -->
<g id="node18" class="node">
<title>11027</title>
<polygon fill="none" stroke="#58a066" points="1378.8,-684.27 1378.8,-699.18 1351.11,-709.72 1311.95,-709.72 1284.26,-699.18 1284.26,-684.27 1311.95,-673.72 1351.11,-673.72 1378.8,-684.27"/>
<polygon fill="none" stroke="#58a066" points="1382.8,-681.51 1382.8,-701.93 1351.84,-713.72 1311.21,-713.72 1280.26,-701.93 1280.26,-681.51 1311.21,-669.72 1351.84,-669.72 1382.8,-681.51"/>
<text text-anchor="middle" x="1331.53" y="-686.67" font-family="Times,serif" font-size="14.00">cal:wtfpl</text>
</g>
<!-- 4303&#45;&gt;11027 -->
<g id="edge6" class="edge">
<title>4303&#45;&gt;11027</title>
<path fill="none" stroke="#58a066" stroke-width="2" d="M1128.35,-852.9C1189.83,-751.87 1205.1,-732.86 1277.19,-708.62"/>
<polygon fill="#58a066" stroke="#58a066" stroke-width="2" points="1285.44,-705.92 1277.34,-713.31 1283.16,-707.19 1276.09,-709.51 1275.94,-709.04 1275.78,-708.56 1282.85,-706.24 1274.53,-704.76 1285.44,-705.92"/>
</g>
<!-- 49453 -->
<g id="node31" class="node">
<title>49453</title>
<polygon fill="none" stroke="#00876c" points="1154.32,-1539.21 1154.32,-1554.12 1091.58,-1564.67 1002.86,-1564.67 940.12,-1554.12 940.12,-1539.21 1002.86,-1528.67 1091.58,-1528.67 1154.32,-1539.21"/>
<polygon fill="none" stroke="#00876c" points="1158.32,-1535.83 1158.32,-1557.51 1091.92,-1568.67 1002.52,-1568.67 936.12,-1557.51 936.12,-1535.83 1002.52,-1524.67 1091.92,-1524.67 1158.32,-1535.83"/>
<text text-anchor="middle" x="1047.22" y="-1541.62" font-family="Times,serif" font-size="14.00">metaeffekt:WTFPL&#45;2.0</text>
</g>
<!-- 4303&#45;&gt;49453 -->
<g id="edge7" class="edge">
<title>4303&#45;&gt;49453</title>
<path fill="none" stroke="#00876c" stroke-width="2" d="M1102.7,-897.52C954.76,-1170.45 952.27,-1187.48 1038.46,-1513.57"/>
<polygon fill="#00876c" stroke="#00876c" stroke-width="2" points="1040.67,-1521.94 1033.76,-1513.43 1039.53,-1519.59 1037.63,-1512.41 1038.11,-1512.28 1038.6,-1512.15 1040.5,-1519.34 1042.47,-1511.13 1040.67,-1521.94"/>
</g>
<!-- 4304 -->
<g id="node3" class="node">
<title>4304</title>
<polygon fill="none" stroke="black" points="1387.18,-992.94 1387.18,-1007.85 1360.79,-1018.39 1323.46,-1018.39 1297.07,-1007.85 1297.07,-992.94 1323.46,-982.39 1360.79,-982.39 1387.18,-992.94"/>
<polygon fill="none" stroke="black" points="1391.18,-990.23 1391.18,-1010.56 1361.55,-1022.39 1322.69,-1022.39 1293.07,-1010.56 1293.07,-990.23 1322.69,-978.39 1361.55,-978.39 1391.18,-990.23"/>
<text text-anchor="middle" x="1342.12" y="-995.34" font-family="Times,serif" font-size="14.00">WTFPL</text>
</g>
<!-- 4304&#45;&gt;4303 -->
<g id="edge8" class="edge">
<title>4304&#45;&gt;4303</title>
<path fill="none" stroke="black" stroke-width="2" d="M1316.64,-980.53C1246.27,-925.76 1217.46,-904.57 1185.9,-892.59"/>
<polygon fill="black" stroke="black" stroke-width="2" points="1177.8,-889.79 1188.72,-888.81 1180.38,-890.16 1187.41,-892.59 1187.25,-893.06 1187.09,-893.53 1180.06,-891.1 1185.78,-897.31 1177.8,-889.79"/>
</g>
<!-- 4304&#45;&gt;5441 -->
<g id="edge9" class="edge">
<title>4304&#45;&gt;5441</title>
<path fill="none" stroke="#e06f45" stroke-width="2" d="M1321.51,-978.42C1156.34,-802.34 1129.27,-774.95 1049.59,-728.17"/>
<polygon fill="#e06f45" stroke="#e06f45" stroke-width="2" points="1042.24,-723.89 1053.15,-725.03 1044.71,-724.75 1051.14,-728.49 1050.88,-728.92 1050.63,-729.35 1044.2,-725.61 1048.62,-732.81 1042.24,-723.89"/>
</g>
<!-- 4304&#45;&gt;8490 -->
<g id="edge10" class="edge">
<title>4304&#45;&gt;8490</title>
<path fill="none" stroke="#e09d4b" stroke-width="2" d="M1349.28,-978.08C1400.85,-817.35 1410.26,-791.59 1454.23,-738.84"/>
<polygon fill="#e09d4b" stroke="#e09d4b" stroke-width="2" points="1459.71,-732.35 1456.7,-742.89 1458.44,-734.63 1453.64,-740.31 1453.26,-739.99 1452.88,-739.67 1457.68,-733.98 1449.82,-737.09 1459.71,-732.35"/>
</g>
<!-- 9222 -->
<g id="node10" class="node">
<title>9222</title>
<polygon fill="none" stroke="#00876c" points="1759.52,-666.4 1759.52,-681.31 1710.73,-691.86 1641.74,-691.86 1592.95,-681.31 1592.95,-666.4 1641.74,-655.86 1710.73,-655.86 1759.52,-666.4"/>
<polygon fill="none" stroke="#00876c" points="1763.52,-663.17 1763.52,-684.54 1711.16,-695.86 1641.31,-695.86 1588.95,-684.54 1588.95,-663.17 1641.31,-651.86 1711.16,-651.86 1763.52,-663.17"/>
<text text-anchor="middle" x="1676.24" y="-668.81" font-family="Times,serif" font-size="14.00">BlueOak:WTFPL</text>
</g>
<!-- 4304&#45;&gt;9222 -->
<g id="edge11" class="edge">
<title>4304&#45;&gt;9222</title>
<path fill="none" stroke="#00876c" stroke-width="2" d="M1358.38,-977.92C1503.49,-777.39 1526.79,-748.14 1623.37,-699.51"/>
<polygon fill="#00876c" stroke="#00876c" stroke-width="2" points="1631.09,-695.66 1624.15,-704.15 1629.02,-697.25 1622.36,-700.57 1622.14,-700.12 1621.92,-699.67 1628.57,-696.36 1620.13,-696.09 1631.09,-695.66"/>
</g>
<!-- 4304&#45;&gt;9747 -->
<g id="edge12" class="edge">
<title>4304&#45;&gt;9747</title>
<path fill="none" stroke="#58a066" stroke-width="2" d="M1336.41,-978.06C1267.32,-707.93 1260.52,-681.25 1235.16,-577.52"/>
<polygon fill="#58a066" stroke="#58a066" stroke-width="2" points="1233.14,-569.26 1239.88,-577.91 1234.23,-571.63 1236,-578.86 1235.51,-578.97 1235.03,-579.09 1233.26,-571.87 1231.14,-580.04 1233.14,-569.26"/>
</g>
<!-- 4304&#45;&gt;10596 -->
<g id="edge13" class="edge">
<title>4304&#45;&gt;10596</title>
<path fill="none" stroke="#deb256" stroke-width="2" d="M1307.97,-983.94C1102.01,-884.76 1059.98,-866.77 965.53,-866.27"/>
<polygon fill="#deb256" stroke="#deb256" stroke-width="2" points="956.8,-866.28 966.79,-861.77 959.36,-865.78 966.8,-865.77 966.8,-866.27 966.8,-866.77 959.36,-866.78 966.8,-870.77 956.8,-866.28"/>
</g>
<!-- 4304&#45;&gt;11027 -->
<g id="edge14" class="edge">
<title>4304&#45;&gt;11027</title>
<path fill="none" stroke="#58a066" stroke-width="2" d="M1340.36,-977.92C1327.34,-812.16 1325.69,-786.61 1329.35,-725.2"/>
<polygon fill="#58a066" stroke="#58a066" stroke-width="2" points="1329.89,-716.58 1333.76,-726.84 1330.23,-719.17 1329.76,-726.59 1329.27,-726.56 1328.77,-726.53 1329.23,-719.11 1324.77,-726.28 1329.89,-716.58"/>
</g>
<!-- 27084 -->
<g id="node24" class="node">
<title>27084</title>
<polygon fill="none" stroke="#e18745" points="1857.37,-1024.18 1857.37,-1039.09 1806.64,-1049.63 1734.89,-1049.63 1684.16,-1039.09 1684.16,-1024.18 1734.89,-1013.63 1806.64,-1013.63 1857.37,-1024.18"/>
<polygon fill="none" stroke="#e18745" points="1861.37,-1020.92 1861.37,-1042.34 1807.05,-1053.63 1734.48,-1053.63 1680.16,-1042.34 1680.16,-1020.92 1734.48,-1009.63 1807.05,-1009.63 1861.37,-1020.92"/>
<text text-anchor="middle" x="1770.77" y="-1026.58" font-family="Times,serif" font-size="14.00">fossology:WTFPL</text>
</g>
<!-- 4304&#45;&gt;27084 -->
<g id="edge15" class="edge">
<title>4304&#45;&gt;27084</title>
<path fill="none" stroke="#e18745" stroke-width="2" d="M1389.05,-988.91C1571.14,-944.67 1600.49,-944.17 1719.81,-1005.08"/>
<polygon fill="#e18745" stroke="#e18745" stroke-width="2" points="1727.54,-1009.05 1716.59,-1008.48 1725.03,-1008.32 1718.42,-1004.93 1718.64,-1004.48 1718.87,-1004.04 1725.49,-1007.43 1720.7,-1000.48 1727.54,-1009.05"/>
</g>
<!-- 38126 -->
<g id="node28" class="node">
<title>38126</title>
<polygon fill="none" stroke="#379469" points="1842.76,-765.3 1842.76,-780.21 1803.39,-790.76 1747.71,-790.76 1708.33,-780.21 1708.33,-765.3 1747.71,-754.76 1803.39,-754.76 1842.76,-765.3"/>
<polygon fill="none" stroke="#379469" points="1846.76,-762.23 1846.76,-783.28 1803.92,-794.76 1747.18,-794.76 1704.33,-783.28 1704.33,-762.23 1747.18,-750.76 1803.92,-750.76 1846.76,-762.23"/>
<text text-anchor="middle" x="1775.55" y="-767.71" font-family="Times,serif" font-size="14.00">cavil:WTFPL</text>
</g>
<!-- 4304&#45;&gt;38126 -->
<g id="edge16" class="edge">
<title>4304&#45;&gt;38126</title>
<path fill="none" stroke="#379469" stroke-width="2" d="M1366.68,-979.92C1549.77,-827.33 1586.95,-799.31 1693.05,-783.02"/>
<polygon fill="#379469" stroke="#379469" stroke-width="2" points="1701.47,-781.79 1692.23,-787.69 1699.01,-782.65 1691.65,-783.73 1691.58,-783.24 1691.51,-782.74 1698.86,-781.66 1690.92,-778.79 1701.47,-781.79"/>
</g>
<!-- 4304&#45;&gt;49453 -->
<g id="edge17" class="edge">
<title>4304&#45;&gt;49453</title>
<path fill="none" stroke="#00876c" stroke-dasharray="5,2" d="M1320.11,-1021.68C1081.47,-1252.5 1070.84,-1269.27 1050.04,-1513.18"/>
<polygon fill="#00876c" stroke="#00876c" points="1049.21,-1522.99 1045.57,-1512.65 1049.53,-1519.23 1050.05,-1513.03 1050.05,-1513.03 1050.05,-1513.03 1049.53,-1519.23 1054.54,-1513.41 1049.21,-1522.99"/>
</g>
<!-- 50858 -->
<g id="node46" class="node">
<title>50858</title>
<polygon fill="none" stroke="#b8bf62" points="1695.46,-1663.76 1695.46,-1678.67 1631.1,-1689.22 1540.08,-1689.22 1475.72,-1678.67 1475.72,-1663.76 1540.08,-1653.22 1631.1,-1653.22 1695.46,-1663.76"/>
<polygon fill="none" stroke="#b8bf62" points="1699.46,-1660.36 1699.46,-1682.07 1631.42,-1693.22 1539.75,-1693.22 1471.72,-1682.07 1471.72,-1660.36 1539.75,-1649.22 1631.42,-1649.22 1699.46,-1660.36"/>
<text text-anchor="middle" x="1585.59" y="-1666.17" font-family="Times,serif" font-size="14.00">foss&#45;license:WTFPL 2.0</text>
</g>
<!-- 4304&#45;&gt;50858 -->
<g id="edge18" class="edge">
<title>4304&#45;&gt;50858</title>
<path fill="none" stroke="#b8bf62" stroke-width="2" d="M1353.47,-1022.72C1553.46,-1416.14 1564.01,-1439.85 1582.5,-1637.63"/>
<polygon fill="#b8bf62" stroke="#b8bf62" stroke-width="2" points="1583.3,-1646.3 1577.9,-1636.76 1582.57,-1643.79 1581.88,-1636.39 1582.38,-1636.34 1582.88,-1636.3 1583.56,-1643.7 1586.86,-1635.93 1583.3,-1646.3"/>
</g>
<!-- 51078 -->
<g id="node53" class="node">
<title>51078</title>
<polygon fill="none" stroke="#dac767" points="2248.03,-821.07 2248.03,-835.98 2105.79,-846.53 1904.62,-846.53 1762.38,-835.98 1762.38,-821.07 1904.62,-810.53 2105.79,-810.53 2248.03,-821.07"/>
<polygon fill="none" stroke="#dac767" points="2252.03,-817.36 2252.03,-839.7 2105.94,-850.53 1904.48,-850.53 1758.38,-839.7 1758.38,-817.36 1904.48,-806.53 2105.94,-806.53 2252.03,-817.36"/>
<text text-anchor="middle" x="2005.21" y="-823.48" font-family="Times,serif" font-size="14.00">fosslight:Do What The F*ck You Want To Public License</text>
</g>
<!-- 4304&#45;&gt;51078 -->
<g id="edge19" class="edge">
<title>4304&#45;&gt;51078</title>
<path fill="none" stroke="#dac767" stroke-width="2" d="M1376.03,-983.73C1570.44,-888.21 1665.57,-842.62 1747.17,-824.75"/>
<polygon fill="#dac767" stroke="#dac767" stroke-width="2" points="1755.7,-823 1746.81,-829.42 1753.29,-824.01 1746.01,-825.5 1745.91,-825.01 1745.8,-824.52 1753.09,-823.03 1745,-820.61 1755.7,-823"/>
</g>
<!-- 54334 -->
<g id="node55" class="node">
<title>54334</title>
<polygon fill="none" stroke="#98b561" points="916.95,-1030.93 916.95,-1045.84 872.71,-1056.38 810.14,-1056.38 765.9,-1045.84 765.9,-1030.93 810.14,-1020.38 872.71,-1020.38 916.95,-1030.93"/>
<polygon fill="none" stroke="#98b561" points="920.95,-1027.77 920.95,-1049 873.18,-1060.38 809.67,-1060.38 761.9,-1049 761.9,-1027.77 809.67,-1016.38 873.18,-1016.38 920.95,-1027.77"/>
<text text-anchor="middle" x="841.43" y="-1033.33" font-family="Times,serif" font-size="14.00">eclipse:WTFPL</text>
</g>
<!-- 4304&#45;&gt;54334 -->
<g id="edge20" class="edge">
<title>4304&#45;&gt;54334</title>
<path fill="none" stroke="#98b561" stroke-width="2" d="M1292.95,-993.63C1046.83,-959.95 1011.15,-959.23 893.51,-1013.64"/>
<polygon fill="#98b561" stroke="#98b561" stroke-width="2" points="885.6,-1017.33 892.76,-1009.03 887.71,-1015.79 894.45,-1012.65 894.66,-1013.11 894.87,-1013.56 888.13,-1016.7 896.56,-1017.18 885.6,-1017.33"/>
</g>
<!-- 4305 -->
<g id="node4" class="node">
<title>4305</title>
<polygon fill="none" stroke="black" points="1754.19,-1081.55 1754.19,-1096.47 1633.69,-1107.01 1463.28,-1107.01 1342.77,-1096.47 1342.77,-1081.55 1463.28,-1071.01 1633.69,-1071.01 1754.19,-1081.55"/>
<polygon fill="none" stroke="black" points="1758.19,-1077.89 1758.19,-1100.13 1633.87,-1111.01 1463.1,-1111.01 1338.77,-1100.13 1338.77,-1077.89 1463.1,-1067.01 1633.87,-1067.01 1758.19,-1077.89"/>
<text text-anchor="middle" x="1548.48" y="-1083.96" font-family="Times,serif" font-size="14.00">Do What The F*ck You Want To Public License</text>
</g>
<!-- 4305&#45;&gt;4303 -->
<g id="edge21" class="edge">
<title>4305&#45;&gt;4303</title>
<path fill="none" stroke="black" stroke-width="2" d="M1520.99,-1066.51C1342.18,-920.35 1306.03,-894.41 1196.45,-882.26"/>
<polygon fill="black" stroke="black" stroke-width="2" points="1188.03,-881.38 1198.45,-877.95 1190.63,-881.15 1198.03,-881.93 1197.98,-882.42 1197.92,-882.92 1190.53,-882.14 1197.51,-886.9 1188.03,-881.38"/>
</g>
<!-- 4305&#45;&gt;8490 -->
<g id="edge22" class="edge">
<title>4305&#45;&gt;8490</title>
<path fill="none" stroke="#e09d4b" stroke-dasharray="5,2" d="M1547.1,-1066.7C1533.59,-849.17 1531,-823.4 1494.93,-740.73"/>
<polygon fill="#e09d4b" stroke="#e09d4b" points="1490.97,-731.74 1499.12,-739.08 1492.49,-735.2 1495,-740.89 1495,-740.89 1495,-740.89 1492.49,-735.2 1490.88,-742.7 1490.97,-731.74"/>
</g>
<!-- 4305&#45;&gt;9222 -->
<g id="edge23" class="edge">
<title>4305&#45;&gt;9222</title>
<path fill="none" stroke="#00876c" stroke-width="2" d="M1556.34,-1066.54C1639.79,-827.89 1648.43,-802.13 1669.1,-707.01"/>
<polygon fill="#00876c" stroke="#00876c" stroke-width="2" points="1670.9,-698.71 1673.18,-709.43 1670.85,-701.32 1669.27,-708.59 1668.78,-708.48 1668.3,-708.38 1669.87,-701.11 1664.39,-707.53 1670.9,-698.71"/>
</g>
<!-- 4305&#45;&gt;11027 -->
<g id="edge24" class="edge">
<title>4305&#45;&gt;11027</title>
<path fill="none" stroke="#58a066" stroke-width="2" d="M1540.43,-1066.74C1453.72,-827.12 1442.53,-800.39 1361.96,-721.2"/>
<polygon fill="#58a066" stroke="#58a066" stroke-width="2" points="1355.68,-715.06 1365.98,-718.84 1357.86,-716.5 1363.18,-721.7 1362.83,-722.05 1362.48,-722.41 1357.16,-717.21 1359.69,-725.27 1355.68,-715.06"/>
</g>
<!-- 4305&#45;&gt;27084 -->
<g id="edge25" class="edge">
<title>4305&#45;&gt;27084</title>
<path fill="none" stroke="#e18745" stroke-width="2" d="M1601.57,-1066.63C1631.14,-1054.31 1652.21,-1045.98 1669.42,-1040.45"/>
<polygon fill="#e18745" stroke="#e18745" stroke-width="2" points="1677.34,-1038.06 1669.06,-1045.26 1675.03,-1039.28 1667.91,-1041.43 1667.76,-1040.95 1667.62,-1040.47 1674.74,-1038.32 1666.46,-1036.64 1677.34,-1038.06"/>
</g>
<!-- 4305&#45;&gt;50858 -->
<g id="edge26" class="edge">
<title>4305&#45;&gt;50858</title>
<path fill="none" stroke="#b8bf62" stroke-width="2" d="M1555.98,-1111.14C1661.59,-1423.27 1665.4,-1443.48 1597.13,-1638.42"/>
<polygon fill="#b8bf62" stroke="#b8bf62" stroke-width="2" points="1594.31,-1646.45 1593.38,-1635.53 1594.69,-1643.87 1597.16,-1636.85 1597.63,-1637.02 1598.1,-1637.18 1595.64,-1644.2 1601.87,-1638.51 1594.31,-1646.45"/>
</g>
<!-- 4305&#45;&gt;51078 -->
<g id="edge27" class="edge">
<title>4305&#45;&gt;51078</title>
<path fill="none" stroke="#dac767" stroke-width="2" d="M1582,-1066.74C1804.04,-919.24 1848.18,-890.97 1936.9,-855.05"/>
<polygon fill="#dac767" stroke="#dac767" stroke-width="2" points="1944.82,-851.87 1937.21,-859.77 1942.62,-853.29 1935.72,-856.06 1935.54,-855.6 1935.35,-855.13 1942.25,-852.36 1933.86,-851.42 1944.82,-851.87"/>
</g>
<!-- 5440 -->
<g id="node5" class="node">
<title>5440</title>
<ellipse fill="none" stroke="#e06f45" cx="553.06" cy="-365.26" rx="160.87" ry="28.99"/>
<text text-anchor="middle" x="553.06" y="-368.46" font-family="Times,serif" font-size="14.00" fill="gray">GoogleLicense</text>
<text text-anchor="middle" x="553.06" y="-351.96" font-family="Times,serif" font-size="14.00" fill="gray">ea0a495904373d7b41d6a2d8a87728e6</text>
</g>
<!-- 5440&#45;&gt;5441 -->
<g id="edge28" class="edge">
<title>5440&#45;&gt;5441</title>
<path fill="none" stroke="#e06f45" d="M604.29,-393.17C705.24,-449.01 739.73,-477.02 968.27,-671.9"/>
<polygon fill="#e06f45" stroke="#e06f45" points="965.8,-674.39 975.68,-678.22 970.35,-669.07 965.8,-674.39"/>
</g>
<!-- 8489 -->
<g id="node7" class="node">
<title>8489</title>
<ellipse fill="none" stroke="#e09d4b" cx="1746.52" cy="-295.71" rx="156.62" ry="28.99"/>
<text text-anchor="middle" x="1746.52" y="-298.91" font-family="Times,serif" font-size="14.00" fill="gray">FedoraEntry</text>
<text text-anchor="middle" x="1746.52" y="-282.41" font-family="Times,serif" font-size="14.00" fill="gray">0f78d88cec6e4a63034fab562e6116ab</text>
</g>
<!-- 8489&#45;&gt;8490 -->
<g id="edge29" class="edge">
<title>8489&#45;&gt;8490</title>
<path fill="none" stroke="#e09d4b" d="M1718,-324.58C1638.53,-405.77 1622.96,-432.9 1497.29,-675.8"/>
<polygon fill="#e09d4b" stroke="#e09d4b" points="1494.18,-674.19 1492.69,-684.68 1500.4,-677.4 1494.18,-674.19"/>
</g>
<!-- 9221 -->
<g id="node9" class="node">
<title>9221</title>
<ellipse fill="none" stroke="#00876c" cx="2095.44" cy="-288.67" rx="160.87" ry="28.99"/>
<text text-anchor="middle" x="2095.44" y="-291.87" font-family="Times,serif" font-size="14.00" fill="gray">BlueOakCouncil</text>
<text text-anchor="middle" x="2095.44" y="-275.37" font-family="Times,serif" font-size="14.00" fill="gray">31c2301045d845ed8e129e406c92a817</text>
</g>
<!-- 9221&#45;&gt;9222 -->
<g id="edge30" class="edge">
<title>9221&#45;&gt;9222</title>
<path fill="none" stroke="#00876c" d="M2049.75,-316.78C1943.49,-383.09 1915.14,-412.13 1704.09,-643.34"/>
<polygon fill="#00876c" stroke="#00876c" points="1701.68,-640.79 1697.52,-650.53 1706.85,-645.51 1701.68,-640.79"/>
</g>
<!-- 9746 -->
<g id="node11" class="node">
<title>9746</title>
<ellipse fill="none" stroke="#58a066" cx="995.81" cy="-76.48" rx="157.15" ry="28.99"/>
<text text-anchor="middle" x="995.81" y="-79.68" font-family="Times,serif" font-size="14.00" fill="gray">OSADLRule</text>
<text text-anchor="middle" x="995.81" y="-63.18" font-family="Times,serif" font-size="14.00" fill="gray">f9f65420a8d0876a860778f814d6cedb</text>
</g>
<!-- 9746&#45;&gt;9747 -->
<g id="edge31" class="edge">
<title>9746&#45;&gt;9747</title>
<path fill="none" stroke="#58a066" d="M1014.11,-105.77C1078.42,-209.08 1090.61,-235.17 1212.64,-511.82"/>
<polygon fill="#58a066" stroke="#58a066" points="1209.37,-513.07 1216.61,-520.81 1215.77,-510.24 1209.37,-513.07"/>
</g>
<!-- 9988 -->
<g id="node13" class="node">
<title>9988</title>
<ellipse fill="none" stroke="#58a066" cx="1340.29" cy="-29.48" rx="156.09" ry="28.99"/>
<text text-anchor="middle" x="1340.29" y="-32.68" font-family="Times,serif" font-size="14.00" fill="gray">OSADLMatrix</text>
<text text-anchor="middle" x="1340.29" y="-16.18" font-family="Times,serif" font-size="14.00" fill="gray">f3814edad2361fbad6183a9799e8f3e4</text>
</g>
<!-- 9988&#45;&gt;9747 -->
<g id="edge32" class="edge">
<title>9988&#45;&gt;9747</title>
<path fill="none" stroke="#58a066" d="M1326.87,-58.5C1271.07,-179.94 1266.7,-205.3 1231,-511.36"/>
<polygon fill="#58a066" stroke="#58a066" points="1227.58,-510.53 1229.89,-520.86 1234.53,-511.34 1227.58,-510.53"/>
</g>
<!-- 10595 -->
<g id="node14" class="node">
<title>10595</title>
<ellipse fill="none" stroke="#deb256" cx="387.74" cy="-767.06" rx="158.75" ry="28.99"/>
<text text-anchor="middle" x="387.74" y="-770.26" font-family="Times,serif" font-size="14.00" fill="gray">FSF</text>
<text text-anchor="middle" x="387.74" y="-753.76" font-family="Times,serif" font-size="14.00" fill="gray">87b7d3911a0ac3e99bd698fa2649a8c2</text>
</g>
<!-- 10595&#45;&gt;10596 -->
<g id="edge33" class="edge">
<title>10595&#45;&gt;10596</title>
<path fill="none" stroke="#deb256" d="M544.39,-772.18C604.14,-781.07 676.43,-802.15 831.93,-849.57"/>
<polygon fill="#deb256" stroke="#deb256" points="830.75,-852.87 841.33,-852.44 832.79,-846.17 830.75,-852.87"/>
</g>
<!-- 10597 -->
<g id="node16" class="node">
<title>10597</title>
<polygon fill="none" stroke="#deb256" points="628.63,-696.4 628.63,-711.31 576.93,-721.86 503.8,-721.86 452.1,-711.31 452.1,-696.4 503.8,-685.86 576.93,-685.86 628.63,-696.4"/>
<polygon fill="none" stroke="#deb256" points="632.63,-693.13 632.63,-714.58 577.33,-725.86 503.4,-725.86 448.1,-714.58 448.1,-693.13 503.4,-681.86 577.33,-681.86 632.63,-693.13"/>
<text text-anchor="middle" x="540.36" y="-698.81" font-family="Times,serif" font-size="14.00">WTFPL, Version 2</text>
</g>
<!-- 10597&#45;&gt;10596 -->
<g id="edge34" class="edge">
<title>10597&#45;&gt;10596</title>
<path fill="none" stroke="#deb256" stroke-width="2" d="M596.15,-722.38C656.64,-743.47 693.19,-762.02 846.27,-843.58"/>
<polygon fill="#deb256" stroke="#deb256" stroke-width="2" points="853.89,-847.64 842.95,-846.91 851.4,-846.87 844.83,-843.38 845.07,-842.93 845.3,-842.49 851.87,-845.99 847.18,-838.96 853.89,-847.64"/>
</g>
<!-- 11026 -->
<g id="node17" class="node">
<title>11026</title>
<ellipse fill="none" stroke="#58a066" cx="1429.75" cy="-224.93" rx="156.09" ry="28.99"/>
<text text-anchor="middle" x="1429.75" y="-228.13" font-family="Times,serif" font-size="14.00" fill="gray">ChooseALicense</text>
<text text-anchor="middle" x="1429.75" y="-211.63" font-family="Times,serif" font-size="14.00" fill="gray">eb8d08660724f539f9ef205766b21ef1</text>
</g>
<!-- 11026&#45;&gt;11027 -->
<g id="edge35" class="edge">
<title>11026&#45;&gt;11027</title>
<path fill="none" stroke="#58a066" d="M1418.33,-254.29C1377.22,-360.77 1372.78,-386.21 1336.01,-658.51"/>
<polygon fill="#58a066" stroke="#58a066" points="1332.59,-657.68 1334.72,-668.05 1339.53,-658.61 1332.59,-657.68"/>
</g>
<!-- 25366 -->
<g id="node19" class="node">
<title>25366</title>
<ellipse fill="none" stroke="#dac767" cx="1212.53" cy="-2558.64" rx="161.93" ry="28.99"/>
<text text-anchor="middle" x="1212.53" y="-2561.84" font-family="Times,serif" font-size="14.00" fill="gray">ScancodeData</text>
<text text-anchor="middle" x="1212.53" y="-2545.34" font-family="Times,serif" font-size="14.00" fill="gray">324b982413d9298ae51c4356711b65e8</text>
</g>
<!-- 25367 -->
<g id="node20" class="node">
<title>25367</title>
<polygon fill="none" stroke="black" points="1365.72,-2010.03 1365.72,-2024.94 1314.01,-2035.48 1240.89,-2035.48 1189.18,-2024.94 1189.18,-2010.03 1240.89,-1999.48 1314.01,-1999.48 1365.72,-2010.03"/>
<polygon fill="none" stroke="black" points="1369.72,-2006.76 1369.72,-2028.2 1314.42,-2039.48 1240.49,-2039.48 1185.18,-2028.2 1185.18,-2006.76 1240.49,-1995.48 1314.42,-1995.48 1369.72,-2006.76"/>
<text text-anchor="middle" x="1277.45" y="-2012.43" font-family="Times,serif" font-size="14.00">scancode:wtfpl&#45;2.0</text>
</g>
<!-- 25366&#45;&gt;25367 -->
<g id="edge36" class="edge">
<title>25366&#45;&gt;25367</title>
<path fill="none" stroke="#dac767" d="M1214.91,-2529.39C1225.67,-2398.25 1228.89,-2372.97 1272.88,-2050.93"/>
<polygon fill="#dac767" stroke="#dac767" points="1276.31,-2051.72 1274.19,-2041.34 1269.37,-2050.77 1276.31,-2051.72"/>
</g>
<!-- 25367&#45;&gt;49453 -->
<g id="edge37" class="edge">
<title>25367&#45;&gt;49453</title>
<path fill="none" stroke="#00876c" stroke-dasharray="5,2" d="M1251.91,-1995.24C1117.95,-1878.07 1109.87,-1858.03 1053.86,-1579.72"/>
<polygon fill="#00876c" stroke="#00876c" points="1051.91,-1570.05 1058.3,-1578.96 1052.66,-1573.75 1053.89,-1579.85 1053.89,-1579.85 1053.89,-1579.85 1052.66,-1573.75 1049.47,-1580.74 1051.91,-1570.05"/>
</g>
<!-- 25367&#45;&gt;50858 -->
<g id="edge38" class="edge">
<title>25367&#45;&gt;50858</title>
<path fill="none" stroke="#b8bf62" stroke-width="2" d="M1318.87,-1995.89C1429.18,-1937.32 1446.49,-1913.31 1567.39,-1702.92"/>
<polygon fill="#b8bf62" stroke="#b8bf62" stroke-width="2" points="1571.64,-1695.52 1570.56,-1706.43 1570.79,-1697.99 1567.09,-1704.44 1566.65,-1704.19 1566.22,-1703.94 1569.92,-1697.49 1562.75,-1701.95 1571.64,-1695.52"/>
</g>
<!-- 25368 -->
<g id="node21" class="node">
<title>25368</title>
<polygon fill="none" stroke="black" points="1281.22,-1841.6 1281.22,-1856.51 1252.55,-1867.06 1212.01,-1867.06 1183.35,-1856.51 1183.35,-1841.6 1212.01,-1831.06 1252.55,-1831.06 1281.22,-1841.6"/>
<polygon fill="none" stroke="black" points="1285.22,-1838.81 1285.22,-1859.3 1253.26,-1871.06 1211.3,-1871.06 1179.35,-1859.3 1179.35,-1838.81 1211.3,-1827.06 1253.26,-1827.06 1285.22,-1838.81"/>
<text text-anchor="middle" x="1232.28" y="-1844.01" font-family="Times,serif" font-size="14.00">wtfpl&#45;2.0</text>
</g>
<!-- 25368&#45;&gt;25367 -->
<g id="edge39" class="edge">
<title>25368&#45;&gt;25367</title>
<path fill="none" stroke="black" stroke-width="2" d="M1234.88,-1871.34C1243.01,-1940.45 1246.31,-1961.4 1258.49,-1985.34"/>
<polygon fill="black" stroke="black" stroke-width="2" points="1262.68,-1993.01 1253.94,-1986.38 1261.01,-1991 1257.45,-1984.47 1257.89,-1984.23 1258.33,-1983.99 1261.89,-1990.52 1261.84,-1982.07 1262.68,-1993.01"/>
</g>
<!-- 25368&#45;&gt;49453 -->
<g id="edge40" class="edge">
<title>25368&#45;&gt;49453</title>
<path fill="none" stroke="#00876c" stroke-width="2" d="M1204.08,-1829.27C1105.07,-1759.18 1095.93,-1741.98 1055.36,-1579.45"/>
<polygon fill="#00876c" stroke="#00876c" stroke-width="2" points="1053.36,-1571.41 1060.14,-1580.03 1054.46,-1573.78 1056.26,-1580.99 1055.78,-1581.12 1055.29,-1581.24 1053.49,-1574.02 1051.41,-1582.2 1053.36,-1571.41"/>
</g>
<!-- 49467 -->
<g id="node43" class="node">
<title>49467</title>
<polygon fill="none" stroke="#00876c" points="1024.54,-1940.2 1024.54,-1955.11 980.29,-1965.65 917.73,-1965.65 873.48,-1955.11 873.48,-1940.2 917.73,-1929.65 980.29,-1929.65 1024.54,-1940.2"/>
<polygon fill="none" stroke="#00876c" points="1028.54,-1937.04 1028.54,-1958.27 980.76,-1969.65 917.26,-1969.65 869.48,-1958.27 869.48,-1937.04 917.26,-1925.65 980.76,-1925.65 1028.54,-1937.04"/>
<polygon fill="none" stroke="#00876c" points="1032.54,-1933.88 1032.54,-1961.43 981.23,-1973.65 916.79,-1973.65 865.48,-1961.43 865.48,-1933.88 916.79,-1921.65 981.23,-1921.65 1032.54,-1933.88"/>
<text text-anchor="middle" x="949.01" y="-1942.6" font-family="Times,serif" font-size="14.00">osi:WTFPL&#45;2.0</text>
</g>
<!-- 25368&#45;&gt;49467 -->
<g id="edge41" class="edge">
<title>25368&#45;&gt;49467</title>
<path fill="none" stroke="#00876c" stroke-width="2" d="M1201.36,-1867.51C1117.85,-1917.25 1081.71,-1937.26 1043.78,-1944.66"/>
<polygon fill="#00876c" stroke="#00876c" stroke-width="2" points="1035.4,-1946.03 1044.54,-1939.97 1037.85,-1945.12 1045.19,-1943.92 1045.27,-1944.41 1045.35,-1944.91 1038.01,-1946.11 1046,-1948.85 1035.4,-1946.03"/>
</g>
<!-- 25368&#45;&gt;50858 -->
<g id="edge42" class="edge">
<title>25368&#45;&gt;50858</title>
<path fill="none" stroke="#b8bf62" stroke-width="2" d="M1285.33,-1845.83C1400.12,-1837.68 1423.81,-1822.54 1553.73,-1701.08"/>
<polygon fill="#b8bf62" stroke="#b8bf62" stroke-width="2" points="1559.84,-1695.36 1555.61,-1705.48 1558.31,-1697.48 1552.88,-1702.56 1552.54,-1702.2 1552.2,-1701.83 1557.63,-1696.75 1549.47,-1698.91 1559.84,-1695.36"/>
</g>
<!-- 25369 -->
<g id="node22" class="node">
<title>25369</title>
<polygon fill="none" stroke="black" points="1635.83,-2070.91 1635.83,-2085.83 1600.67,-2096.37 1550.96,-2096.37 1515.8,-2085.83 1515.8,-2070.91 1550.96,-2060.37 1600.67,-2060.37 1635.83,-2070.91"/>
<polygon fill="none" stroke="black" points="1639.83,-2067.94 1639.83,-2088.8 1601.26,-2100.37 1550.37,-2100.37 1511.8,-2088.8 1511.8,-2067.94 1550.37,-2056.37 1601.26,-2056.37 1639.83,-2067.94"/>
<text text-anchor="middle" x="1575.81" y="-2073.32" font-family="Times,serif" font-size="14.00">WTFPL 2.0</text>
</g>
<!-- 25369&#45;&gt;25367 -->
<g id="edge43" class="edge">
<title>25369&#45;&gt;25367</title>
<path fill="none" stroke="#dac767" stroke-width="2" d="M1515.16,-2090.3C1435.82,-2104.32 1410.12,-2097.18 1323.67,-2045.53"/>
<polygon fill="#dac767" stroke="#dac767" stroke-width="2" points="1316.35,-2041.13 1327.24,-2042.42 1318.8,-2042.03 1325.18,-2045.85 1324.92,-2046.28 1324.66,-2046.71 1318.29,-2042.88 1322.6,-2050.14 1316.35,-2041.13"/>
</g>
<!-- 25369&#45;&gt;50858 -->
<g id="edge44" class="edge">
<title>25369&#45;&gt;50858</title>
<path fill="none" stroke="#b8bf62" stroke-width="2" d="M1580.51,-2055.98C1601.1,-1956.76 1601.1,-1937.1 1587.52,-1704.33"/>
<polygon fill="#b8bf62" stroke="#b8bf62" stroke-width="2" points="1587.03,-1695.88 1592.11,-1705.6 1587.68,-1698.41 1588.11,-1705.83 1587.61,-1705.86 1587.11,-1705.89 1586.68,-1698.47 1583.12,-1706.12 1587.03,-1695.88"/>
</g>
<!-- 27083 -->
<g id="node23" class="node">
<title>27083</title>
<ellipse fill="none" stroke="#e18745" cx="2295.35" cy="-1037.35" rx="159.28" ry="28.99"/>
<text text-anchor="middle" x="2295.35" y="-1040.55" font-family="Times,serif" font-size="14.00" fill="gray">Fossology</text>
<text text-anchor="middle" x="2295.35" y="-1024.05" font-family="Times,serif" font-size="14.00" fill="gray">544d0f2c6b1931898d4dc71a19511f7b</text>
</g>
<!-- 27083&#45;&gt;27084 -->
<g id="edge45" class="edge">
<title>27083&#45;&gt;27084</title>
<path fill="none" stroke="#e18745" d="M2200.06,-1013.78C2122.57,-998.02 2064.29,-1000.93 1872.91,-1020.84"/>
<polygon fill="#e18745" stroke="#e18745" points="1872.7,-1017.34 1863.12,-1021.86 1873.43,-1024.3 1872.7,-1017.34"/>
</g>
<!-- 35255 -->
<g id="node25" class="node">
<title>35255</title>
<ellipse fill="none" stroke="#e06f45" cx="907.03" cy="-418.73" rx="161.4" ry="28.99"/>
<text text-anchor="middle" x="907.03" y="-421.93" font-family="Times,serif" font-size="14.00" fill="gray">OrtLicenseCategorization</text>
<text text-anchor="middle" x="907.03" y="-405.43" font-family="Times,serif" font-size="14.00" fill="gray">379b2c46a79db15bbcbb0adb27738de7</text>
</g>
<!-- 35255&#45;&gt;4303 -->
<g id="edge46" class="edge">
<title>35255&#45;&gt;4303</title>
<path fill="none" stroke="#e06f45" d="M917.16,-447.8C956.25,-559.54 967.54,-583.25 1098.31,-842.84"/>
<polygon fill="#e06f45" stroke="#e06f45" points="1095.11,-844.26 1102.73,-851.62 1101.36,-841.11 1095.11,-844.26"/>
</g>
<!-- 36268 -->
<g id="node26" class="node">
<title>36268</title>
<ellipse fill="none" stroke="#e09d4b" cx="1258.78" cy="-388.07" rx="158.75" ry="28.99"/>
<text text-anchor="middle" x="1258.78" y="-391.27" font-family="Times,serif" font-size="14.00" fill="gray">OrtLicenseCategorization</text>
<text text-anchor="middle" x="1258.78" y="-374.77" font-family="Times,serif" font-size="14.00" fill="gray">229c2e6a5d2044a20b7be0c44fb0eb1d</text>
</g>
<!-- 36268&#45;&gt;4303 -->
<g id="edge47" class="edge">
<title>36268&#45;&gt;4303</title>
<path fill="none" stroke="#e09d4b" d="M1237.92,-417.25C1155.58,-533.29 1150.28,-558.1 1118.43,-842.14"/>
<polygon fill="#e09d4b" stroke="#e09d4b" points="1114.99,-841.4 1117.35,-851.73 1121.95,-842.18 1114.99,-841.4"/>
</g>
<!-- 38125 -->
<g id="node27" class="node">
<title>38125</title>
<ellipse fill="none" stroke="#379469" cx="2248.35" cy="-584.94" rx="156.09" ry="28.99"/>
<text text-anchor="middle" x="2248.35" y="-588.14" font-family="Times,serif" font-size="14.00" fill="gray">CavilLicenseChange</text>
<text text-anchor="middle" x="2248.35" y="-571.64" font-family="Times,serif" font-size="14.00" fill="gray">2ec6a55d00e17e5707af65c51dc68c3f</text>
</g>
<!-- 38125&#45;&gt;38126 -->
<g id="edge48" class="edge">
<title>38125&#45;&gt;38126</title>
<path fill="none" stroke="#379469" d="M2127.56,-603.7C2058.59,-620.14 1997.37,-651.88 1822.44,-747.18"/>
<polygon fill="#379469" stroke="#379469" points="1820.83,-744.08 1813.73,-751.93 1824.18,-750.22 1820.83,-744.08"/>
</g>
<!-- 38127 -->
<g id="node29" class="node">
<title>38127</title>
<polygon fill="none" stroke="#379469" points="2168.36,-512.3 2168.36,-527.21 2116.33,-537.75 2042.75,-537.75 1990.72,-527.21 1990.72,-512.3 2042.75,-501.75 2116.33,-501.75 2168.36,-512.3"/>
<text text-anchor="middle" x="2079.54" y="-514.7" font-family="Times,serif" font-size="14.00">SUSE&#45;WTFPL&#45;2.0</text>
</g>
<!-- 38127&#45;&gt;38126 -->
<g id="edge49" class="edge">
<title>38127&#45;&gt;38126</title>
<path fill="none" stroke="#379469" stroke-dasharray="5,2" d="M2049.93,-538.2C1978.64,-583.03 1957.57,-601.48 1807,-743.15"/>
<polygon fill="#379469" stroke="#379469" points="1800.15,-749.59 1804.35,-739.46 1802.91,-747 1807.44,-742.74 1807.44,-742.74 1807.44,-742.74 1802.91,-747 1810.52,-746.02 1800.15,-749.59"/>
</g>
<!-- 49452 -->
<g id="node30" class="node">
<title>49452</title>
<ellipse fill="none" stroke="#00876c" cx="438.68" cy="-1594.62" rx="160.34" ry="28.99"/>
<text text-anchor="middle" x="438.68" y="-1597.82" font-family="Times,serif" font-size="14.00" fill="gray">MetaeffektLicense</text>
<text text-anchor="middle" x="438.68" y="-1581.32" font-family="Times,serif" font-size="14.00" fill="gray">454d97134e90b475a8aa1399b6aedde4</text>
</g>
<!-- 49452&#45;&gt;49453 -->
<g id="edge50" class="edge">
<title>49452&#45;&gt;49453</title>
<path fill="none" stroke="#00876c" d="M583.17,-1607.44C660.93,-1609.27 739.79,-1597.96 946.62,-1563.51"/>
<polygon fill="#00876c" stroke="#00876c" points="947.06,-1566.98 956.35,-1561.89 945.91,-1560.08 947.06,-1566.98"/>
</g>
<!-- 49454 -->
<g id="node32" class="node">
<title>49454</title>
<polygon fill="none" stroke="#00876c" points="1151.36,-2113.91 1151.36,-2128.82 1059.41,-2139.36 929.38,-2139.36 837.44,-2128.82 837.44,-2113.91 929.38,-2103.36 1059.41,-2103.36 1151.36,-2113.91"/>
<polygon fill="none" stroke="#00876c" points="1155.36,-2110.34 1155.36,-2132.39 1059.64,-2143.36 929.16,-2143.36 833.44,-2132.39 833.44,-2110.34 929.16,-2099.36 1059.64,-2099.36 1155.36,-2110.34"/>
<text text-anchor="middle" x="994.4" y="-2116.31" font-family="Times,serif" font-size="14.00">metaeffekt:WTF Public License 2.0</text>
</g>
<!-- 49454&#45;&gt;49453 -->
<g id="edge51" class="edge">
<title>49454&#45;&gt;49453</title>
<path fill="none" stroke="#00876c" stroke-width="2" d="M989.5,-2098.87C953.23,-1931.34 955.55,-1912.46 1039.02,-1579.38"/>
<polygon fill="#00876c" stroke="#00876c" stroke-width="2" points="1041.04,-1571.29 1042.98,-1582.09 1040.91,-1573.9 1039.1,-1581.11 1038.61,-1580.99 1038.13,-1580.87 1039.94,-1573.66 1034.25,-1579.9 1041.04,-1571.29"/>
</g>
<!-- 49455 -->
<g id="node33" class="node">
<title>49455</title>
<polygon fill="none" stroke="black" points="1557.99,-2163.8 1557.99,-2178.72 1492.98,-2189.26 1401.04,-2189.26 1336.03,-2178.72 1336.03,-2163.8 1401.04,-2153.26 1492.98,-2153.26 1557.99,-2163.8"/>
<polygon fill="none" stroke="black" points="1561.99,-2160.4 1561.99,-2182.12 1493.3,-2193.26 1400.72,-2193.26 1332.03,-2182.12 1332.03,-2160.4 1400.72,-2149.26 1493.3,-2149.26 1561.99,-2160.4"/>
<text text-anchor="middle" x="1447.01" y="-2166.21" font-family="Times,serif" font-size="14.00">WTF Public License 2.0</text>
</g>
<!-- 49455&#45;&gt;49454 -->
<g id="edge52" class="edge">
<title>49455&#45;&gt;49454</title>
<path fill="none" stroke="#00876c" stroke-width="2" d="M1375.03,-2189.59C1215.06,-2229.22 1183.08,-2224.31 1044.67,-2149.03"/>
<polygon fill="#00876c" stroke="#00876c" stroke-width="2" points="1037.1,-2144.89 1048.03,-2145.74 1039.59,-2145.68 1046.11,-2149.25 1045.87,-2149.69 1045.63,-2150.12 1039.11,-2146.56 1043.72,-2153.64 1037.1,-2144.89"/>
</g>
<!-- 49455&#45;&gt;50858 -->
<g id="edge53" class="edge">
<title>49455&#45;&gt;50858</title>
<path fill="none" stroke="#b8bf62" stroke-width="2" d="M1459.72,-2149.1C1529.35,-2027.17 1534.23,-2006.6 1580.55,-1704.13"/>
<polygon fill="#b8bf62" stroke="#b8bf62" stroke-width="2" points="1581.85,-1695.66 1584.78,-1706.23 1581.95,-1698.27 1580.83,-1705.62 1580.33,-1705.55 1579.84,-1705.47 1580.97,-1698.12 1575.89,-1704.86 1581.85,-1695.66"/>
</g>
<!-- 49456 -->
<g id="node34" class="node">
<title>49456</title>
<polygon fill="none" stroke="#00876c" points="601.87,-1701.76 601.87,-1716.67 545.95,-1727.21 466.86,-1727.21 410.93,-1716.67 410.93,-1701.76 466.86,-1691.21 545.95,-1691.21 601.87,-1701.76"/>
<text text-anchor="middle" x="506.4" y="-1704.16" font-family="Times,serif" font-size="14.00">WTF Public License</text>
</g>
<!-- 49456&#45;&gt;49453 -->
<g id="edge54" class="edge">
<title>49456&#45;&gt;49453</title>
<path fill="none" stroke="#00876c" stroke-dasharray="5,2" d="M577.26,-1696.69C677.7,-1677.96 727.91,-1661.25 980.37,-1570.67"/>
<polygon fill="#00876c" stroke="#00876c" points="989.45,-1567.41 981.56,-1575.02 985.89,-1568.69 980.04,-1570.79 980.04,-1570.79 980.04,-1570.79 985.89,-1568.69 978.52,-1566.55 989.45,-1567.41"/>
</g>
<!-- 49457 -->
<g id="node35" class="node">
<title>49457</title>
<polygon fill="none" stroke="black" points="1407.83,-1594.98 1407.83,-1609.89 1256.18,-1620.44 1041.7,-1620.44 890.05,-1609.89 890.05,-1594.98 1041.7,-1584.44 1256.18,-1584.44 1407.83,-1594.98"/>
<polygon fill="none" stroke="black" points="1411.83,-1591.25 1411.83,-1613.62 1256.32,-1624.44 1041.57,-1624.44 886.05,-1613.62 886.05,-1591.25 1041.57,-1580.44 1256.32,-1580.44 1411.83,-1591.25"/>
<text text-anchor="middle" x="1148.94" y="-1597.39" font-family="Times,serif" font-size="14.00">DO WHAT THE F#*@ YOU WANT TO PUBLIC LICENSE</text>
</g>
<!-- 49457&#45;&gt;49453 -->
<g id="edge55" class="edge">
<title>49457&#45;&gt;49453</title>
<path fill="none" stroke="#00876c" stroke-dasharray="5,2" d="M1076.27,-1580.1C1074.98,-1579.05 1073.7,-1577.93 1072.43,-1576.73"/>
<polygon fill="#00876c" stroke="#00876c" points="1065.8,-1569.76 1075.95,-1573.91 1068.41,-1572.5 1072.69,-1577.01 1072.69,-1577.01 1072.69,-1577.01 1068.41,-1572.5 1069.43,-1580.11 1065.8,-1569.76"/>
</g>
<!-- 49457&#45;&gt;50858 -->
<g id="edge56" class="edge">
<title>49457&#45;&gt;50858</title>
<path fill="none" stroke="#b8bf62" stroke-width="2" d="M1186.8,-1624.93C1328.13,-1708.46 1360.35,-1719.15 1497.56,-1690.73"/>
<polygon fill="#b8bf62" stroke="#b8bf62" stroke-width="2" points="1506.11,-1688.93 1497.25,-1695.4 1503.71,-1689.95 1496.43,-1691.48 1496.33,-1690.99 1496.23,-1690.5 1503.5,-1688.97 1495.4,-1686.59 1506.11,-1688.93"/>
</g>
<!-- 49458 -->
<g id="node36" class="node">
<title>49458</title>
<polygon fill="none" stroke="black" points="1161.05,-1650.75 1161.05,-1665.66 1008.42,-1676.2 792.57,-1676.2 639.94,-1665.66 639.94,-1650.75 792.57,-1640.2 1008.42,-1640.2 1161.05,-1650.75"/>
<polygon fill="none" stroke="black" points="1165.05,-1647.01 1165.05,-1669.39 1008.56,-1680.2 792.43,-1680.2 635.94,-1669.39 635.94,-1647.01 792.43,-1636.2 1008.56,-1636.2 1165.05,-1647.01"/>
<text text-anchor="middle" x="900.5" y="-1653.15" font-family="Times,serif" font-size="14.00">DO WHAT THE FUCK YOU WANT TO PUBLIC LICENSE</text>
</g>
<!-- 49458&#45;&gt;49453 -->
<g id="edge57" class="edge">
<title>49458&#45;&gt;49453</title>
<path fill="none" stroke="#00876c" stroke-dasharray="5,2" d="M928.04,-1635.98C946.16,-1621.59 962.66,-1609.2 1008.17,-1575.53"/>
<polygon fill="#00876c" stroke="#00876c" points="1016.04,-1569.71 1010.67,-1579.28 1013,-1571.96 1008,-1575.66 1008,-1575.66 1008,-1575.66 1013,-1571.96 1005.32,-1572.04 1016.04,-1569.71"/>
</g>
<!-- 49458&#45;&gt;50858 -->
<g id="edge58" class="edge">
<title>49458&#45;&gt;50858</title>
<path fill="none" stroke="#b8bf62" stroke-width="2" d="M949.65,-1680.7C1167.9,-1779.91 1203.63,-1781.25 1509.28,-1693.31"/>
<polygon fill="#b8bf62" stroke="#b8bf62" stroke-width="2" points="1517.46,-1690.96 1509.1,-1698.05 1515.13,-1692.15 1507.99,-1694.21 1507.85,-1693.73 1507.71,-1693.25 1514.86,-1691.19 1506.6,-1689.4 1517.46,-1690.96"/>
</g>
<!-- 49459 -->
<g id="node37" class="node">
<title>49459</title>
<polygon fill="none" stroke="black" points="1919.58,-1719.52 1919.58,-1734.43 1771.49,-1744.97 1562.07,-1744.97 1413.98,-1734.43 1413.98,-1719.52 1562.07,-1708.97 1771.49,-1708.97 1919.58,-1719.52"/>
<polygon fill="none" stroke="black" points="1923.58,-1715.79 1923.58,-1738.15 1771.64,-1748.97 1561.93,-1748.97 1409.98,-1738.15 1409.98,-1715.79 1561.93,-1704.97 1771.64,-1704.97 1923.58,-1715.79"/>
<text text-anchor="middle" x="1666.78" y="-1721.92" font-family="Times,serif" font-size="14.00">DO WHAT YOU WANT TO PUBLIC LICENSE, Version 1</text>
</g>
<!-- 49459&#45;&gt;49453 -->
<g id="edge59" class="edge">
<title>49459&#45;&gt;49453</title>
<path fill="none" stroke="#00876c" stroke-dasharray="5,2" d="M1485.88,-1744.02C1328.6,-1752.21 1275.33,-1719.45 1085.54,-1575.74"/>
<polygon fill="#00876c" stroke="#00876c" points="1077.66,-1569.77 1088.35,-1572.23 1080.67,-1572.06 1085.63,-1575.81 1085.63,-1575.81 1085.63,-1575.81 1080.67,-1572.06 1082.91,-1579.4 1077.66,-1569.77"/>
</g>
<!-- 49459&#45;&gt;50858 -->
<g id="edge60" class="edge">
<title>49459&#45;&gt;50858</title>
<path fill="none" stroke="#b8bf62" stroke-width="2" d="M1622.64,-1704.5C1621.27,-1703.37 1619.84,-1702.16 1618.33,-1700.86"/>
<polygon fill="#b8bf62" stroke="#b8bf62" stroke-width="2" points="1611.9,-1695.19 1622.38,-1698.42 1614.15,-1696.51 1619.73,-1701.42 1619.4,-1701.8 1619.07,-1702.17 1613.49,-1697.26 1616.43,-1705.18 1611.9,-1695.19"/>
</g>
<!-- 49460 -->
<g id="node38" class="node">
<title>49460</title>
<polygon fill="none" stroke="black" points="1397.98,-1707.92 1397.98,-1722.83 1245.35,-1733.38 1029.5,-1733.38 876.87,-1722.83 876.87,-1707.92 1029.5,-1697.38 1245.35,-1697.38 1397.98,-1707.92"/>
<polygon fill="none" stroke="black" points="1401.98,-1704.19 1401.98,-1726.57 1245.48,-1737.38 1029.36,-1737.38 872.87,-1726.57 872.87,-1704.19 1029.36,-1693.38 1245.48,-1693.38 1401.98,-1704.19"/>
<text text-anchor="middle" x="1137.42" y="-1710.33" font-family="Times,serif" font-size="14.00">DO WHAT YOU WANT TO PUBLIC LICENSE, Version 2.0</text>
</g>
<!-- 49460&#45;&gt;49453 -->
<g id="edge61" class="edge">
<title>49460&#45;&gt;49453</title>
<path fill="none" stroke="#00876c" stroke-dasharray="5,2" d="M1109.56,-1692.94C1070.93,-1660.67 1064.12,-1645.67 1052.76,-1579.93"/>
<polygon fill="#00876c" stroke="#00876c" points="1051.1,-1570.13 1057.21,-1579.24 1051.73,-1573.86 1052.77,-1579.99 1052.77,-1579.99 1052.77,-1579.99 1051.73,-1573.86 1048.34,-1580.74 1051.1,-1570.13"/>
</g>
<!-- 49460&#45;&gt;50858 -->
<g id="edge62" class="edge">
<title>49460&#45;&gt;50858</title>
<path fill="none" stroke="#b8bf62" stroke-width="2" d="M1209.29,-1737.84C1337.47,-1776.18 1371.98,-1769.96 1528.14,-1697.96"/>
<polygon fill="#b8bf62" stroke="#b8bf62" stroke-width="2" points="1535.9,-1694.37 1528.71,-1702.65 1533.78,-1695.9 1527.03,-1699.02 1526.82,-1698.57 1526.61,-1698.11 1533.36,-1694.99 1524.93,-1694.48 1535.9,-1694.37"/>
</g>
<!-- 49461 -->
<g id="node39" class="node">
<title>49461</title>
<polygon fill="none" stroke="black" points="1973.34,-1607.86 1973.34,-1622.77 1827.52,-1633.31 1621.31,-1633.31 1475.49,-1622.77 1475.49,-1607.86 1621.31,-1597.31 1827.52,-1597.31 1973.34,-1607.86"/>
<polygon fill="none" stroke="black" points="1977.34,-1604.14 1977.34,-1626.49 1827.67,-1637.31 1621.16,-1637.31 1471.49,-1626.49 1471.49,-1604.14 1621.16,-1593.31 1827.67,-1593.31 1977.34,-1604.14"/>
<text text-anchor="middle" x="1724.41" y="-1610.26" font-family="Times,serif" font-size="14.00">Do What The Fuck You Want To Public License, Version 2</text>
</g>
<!-- 49461&#45;&gt;49453 -->
<g id="edge63" class="edge">
<title>49461&#45;&gt;49453</title>
<path fill="none" stroke="#00876c" stroke-dasharray="5,2" d="M1644.54,-1637.78C1383.78,-1710.1 1346.48,-1703.52 1099.42,-1574.12"/>
<polygon fill="#00876c" stroke="#00876c" points="1090.86,-1569.64 1101.81,-1570.3 1094.21,-1571.39 1099.72,-1574.28 1099.72,-1574.28 1099.72,-1574.28 1094.21,-1571.39 1097.63,-1578.27 1090.86,-1569.64"/>
</g>
<!-- 49461&#45;&gt;50858 -->
<g id="edge64" class="edge">
<title>49461&#45;&gt;50858</title>
<path fill="none" stroke="#b8bf62" stroke-width="2" d="M1701.61,-1637.74C1696.42,-1642.63 1691.75,-1646.74 1687.27,-1650.22"/>
<polygon fill="#b8bf62" stroke="#b8bf62" stroke-width="2" points="1680.26,-1655.1 1685.89,-1645.69 1682.08,-1653.23 1688.18,-1648.98 1688.46,-1649.39 1688.75,-1649.8 1682.65,-1654.05 1691.04,-1653.08 1680.26,-1655.1"/>
</g>
<!-- 49462 -->
<g id="node40" class="node">
<title>49462</title>
<polygon fill="none" stroke="black" points="1502.38,-1539.28 1502.38,-1554.19 1450.03,-1564.73 1375.99,-1564.73 1323.63,-1554.19 1323.63,-1539.28 1375.99,-1528.73 1450.03,-1528.73 1502.38,-1539.28"/>
<polygon fill="none" stroke="black" points="1506.38,-1536 1506.38,-1557.46 1450.43,-1568.73 1375.59,-1568.73 1319.63,-1557.46 1319.63,-1536 1375.59,-1524.73 1450.43,-1524.73 1506.38,-1536"/>
<text text-anchor="middle" x="1413.01" y="-1541.68" font-family="Times,serif" font-size="14.00">Do What you Want</text>
</g>
<!-- 49462&#45;&gt;49453 -->
<g id="edge65" class="edge">
<title>49462&#45;&gt;49453</title>
<path fill="none" stroke="#00876c" stroke-dasharray="5,2" d="M1347.2,-1563.47C1216.03,-1596.27 1181.81,-1599.07 1109,-1571.82"/>
<polygon fill="#00876c" stroke="#00876c" points="1100.08,-1568.4 1111.03,-1567.78 1103.61,-1569.75 1109.42,-1571.98 1109.42,-1571.98 1109.42,-1571.98 1103.61,-1569.75 1107.81,-1576.18 1100.08,-1568.4"/>
</g>
<!-- 49462&#45;&gt;50858 -->
<g id="edge66" class="edge">
<title>49462&#45;&gt;50858</title>
<path fill="none" stroke="#b8bf62" stroke-width="2" d="M1433.91,-1569.17C1474.29,-1612.4 1494.75,-1633.06 1515.63,-1645.83"/>
<polygon fill="#b8bf62" stroke="#b8bf62" stroke-width="2" points="1523.19,-1650.02 1512.26,-1649.11 1520.7,-1649.21 1514.19,-1645.61 1514.44,-1645.17 1514.68,-1644.73 1521.19,-1648.34 1516.62,-1641.24 1523.19,-1650.02"/>
</g>
<!-- 49463 -->
<g id="node41" class="node">
<title>49463</title>
<polygon fill="none" stroke="#00876c" points="830.66,-1940.42 830.66,-1955.33 758.51,-1965.88 656.47,-1965.88 584.32,-1955.33 584.32,-1940.42 656.47,-1929.88 758.51,-1929.88 830.66,-1940.42"/>
<text text-anchor="middle" x="707.49" y="-1942.83" font-family="Times,serif" font-size="14.00">http://www.wtfpl.net/about/</text>
</g>
<!-- 49463&#45;&gt;49453 -->
<g id="edge67" class="edge">
<title>49463&#45;&gt;49453</title>
<path fill="none" stroke="#00876c" stroke-dasharray="5,2" d="M719.69,-1929.6C793.9,-1818.64 807.45,-1802.86 1018.88,-1576.94"/>
<polygon fill="#00876c" stroke="#00876c" points="1025.65,-1569.71 1022.11,-1580.08 1023.07,-1572.47 1018.82,-1577.01 1018.82,-1577.01 1018.82,-1577.01 1023.07,-1572.47 1015.53,-1573.93 1025.65,-1569.71"/>
</g>
<!-- 49465 -->
<g id="node42" class="node">
<title>49465</title>
<polygon fill="none" stroke="#00876c" points="749.51,-1801.57 749.51,-1816.48 684.17,-1827.02 591.78,-1827.02 526.44,-1816.48 526.44,-1801.57 591.78,-1791.02 684.17,-1791.02 749.51,-1801.57"/>
<text text-anchor="middle" x="637.98" y="-1803.97" font-family="Times,serif" font-size="14.00">http://sam.zoy.org/wtfpl/</text>
</g>
<!-- 49465&#45;&gt;49453 -->
<g id="edge68" class="edge">
<title>49465&#45;&gt;49453</title>
<path fill="none" stroke="#00876c" stroke-dasharray="5,2" d="M667.35,-1790.59C757.96,-1733.71 783.17,-1717.5 1003.47,-1574.98"/>
<polygon fill="#00876c" stroke="#00876c" points="1011.72,-1569.64 1005.76,-1578.85 1008.54,-1571.69 1003.32,-1575.07 1003.32,-1575.07 1003.32,-1575.07 1008.54,-1571.69 1000.88,-1571.29 1011.72,-1569.64"/>
</g>
<!-- 49467&#45;&gt;49453 -->
<g id="edge69" class="edge">
<title>49467&#45;&gt;49453</title>
<path fill="none" stroke="#00876c" stroke-dasharray="5,2" d="M947.67,-1921.45C942.4,-1811.62 948.1,-1791.82 1034.09,-1579.11"/>
<polygon fill="#00876c" stroke="#00876c" points="1037.79,-1569.96 1038.21,-1580.92 1036.37,-1573.47 1034.04,-1579.23 1034.04,-1579.23 1034.04,-1579.23 1036.37,-1573.47 1029.87,-1577.55 1037.79,-1569.96"/>
</g>
<!-- 50074 -->
<g id="node44" class="node">
<title>50074</title>
<ellipse fill="none" stroke="#dc574a" cx="789.23" cy="-489.56" rx="160.34" ry="28.99"/>
<text text-anchor="middle" x="789.23" y="-492.76" font-family="Times,serif" font-size="14.00" fill="gray">HermineLicense</text>
<text text-anchor="middle" x="789.23" y="-476.26" font-family="Times,serif" font-size="14.00" fill="gray">27908d4b41080998e4b38b6af9c95d4a</text>
</g>
<!-- 50074&#45;&gt;4303 -->
<g id="edge70" class="edge">
<title>50074&#45;&gt;4303</title>
<path fill="none" stroke="#dc574a" d="M815.28,-518.66C889.02,-601.11 909.66,-625.91 1089.18,-844.32"/>
<polygon fill="#dc574a" stroke="#dc574a" points="1086.45,-846.51 1095.5,-852.01 1091.86,-842.07 1086.45,-846.51"/>
</g>
<!-- 50857 -->
<g id="node45" class="node">
<title>50857</title>
<ellipse fill="none" stroke="#b8bf62" cx="2083.73" cy="-1945.28" rx="155.56" ry="28.99"/>
<text text-anchor="middle" x="2083.73" y="-1948.48" font-family="Times,serif" font-size="14.00" fill="gray">FossLicense</text>
<text text-anchor="middle" x="2083.73" y="-1931.98" font-family="Times,serif" font-size="14.00" fill="gray">b08299cff1169549c2d5021fa30fa923</text>
</g>
<!-- 50857&#45;&gt;50858 -->
<g id="edge71" class="edge">
<title>50857&#45;&gt;50858</title>
<path fill="none" stroke="#b8bf62" d="M1997.23,-1920.82C1899.66,-1890.41 1849.87,-1857.44 1626.81,-1700.27"/>
<polygon fill="#b8bf62" stroke="#b8bf62" points="1628.86,-1697.44 1618.67,-1694.54 1624.83,-1703.16 1628.86,-1697.44"/>
</g>
<!-- 50859 -->
<g id="node47" class="node">
<title>50859</title>
<polygon fill="none" stroke="#b8bf62" points="2061.69,-2001.05 2061.69,-2015.96 2006.74,-2026.51 1929.03,-2026.51 1874.08,-2015.96 1874.08,-2001.05 1929.03,-1990.51 2006.74,-1990.51 2061.69,-2001.05"/>
<polygon fill="none" stroke="#b8bf62" points="2065.69,-1997.75 2065.69,-2019.27 2007.12,-2030.51 1928.65,-2030.51 1870.08,-2019.27 1870.08,-1997.75 1928.65,-1986.51 2007.12,-1986.51 2065.69,-1997.75"/>
<text text-anchor="middle" x="1967.88" y="-2003.46" font-family="Times,serif" font-size="14.00">scancode://wtfpl&#45;2.0</text>
</g>
<!-- 50859&#45;&gt;50858 -->
<g id="edge72" class="edge">
<title>50859&#45;&gt;50858</title>
<path fill="none" stroke="#b8bf62" stroke-width="2" d="M1931.34,-1986.02C1834.51,-1925.82 1810.1,-1902.49 1615,-1701.52"/>
<polygon fill="#b8bf62" stroke="#b8bf62" stroke-width="2" points="1609.08,-1695.43 1619.28,-1699.47 1611.23,-1696.92 1616.41,-1702.25 1616.05,-1702.6 1615.69,-1702.95 1610.51,-1697.61 1612.82,-1705.74 1609.08,-1695.43"/>
</g>
<!-- 50860 -->
<g id="node48" class="node">
<title>50860</title>
<polygon fill="none" stroke="#b8bf62" points="2553.75,-1874.59 2553.75,-1889.5 2403.72,-1900.04 2191.54,-1900.04 2041.51,-1889.5 2041.51,-1874.59 2191.54,-1864.04 2403.72,-1864.04 2553.75,-1874.59"/>
<polygon fill="none" stroke="#b8bf62" points="2557.75,-1870.86 2557.75,-1893.23 2403.86,-1904.04 2191.4,-1904.04 2037.51,-1893.23 2037.51,-1870.86 2191.4,-1860.04 2403.86,-1860.04 2557.75,-1870.86"/>
<text text-anchor="middle" x="2297.63" y="-1876.99" font-family="Times,serif" font-size="14.00">Do What The Fuck You Want To Public License (WTFPL) 2</text>
</g>
<!-- 50860&#45;&gt;50858 -->
<g id="edge73" class="edge">
<title>50860&#45;&gt;50858</title>
<path fill="none" stroke="#b8bf62" stroke-width="2" d="M2082.91,-1867.27C1989.83,-1849.06 1888.64,-1805.76 1644.91,-1697.57"/>
<polygon fill="#b8bf62" stroke="#b8bf62" stroke-width="2" points="1636.92,-1694.02 1647.88,-1693.96 1639.46,-1694.6 1646.26,-1697.62 1646.05,-1698.08 1645.85,-1698.53 1639.05,-1695.52 1644.23,-1702.19 1636.92,-1694.02"/>
</g>
<!-- 50861 -->
<g id="node49" class="node">
<title>50861</title>
<polygon fill="none" stroke="#b8bf62" points="1948.29,-2165.09 1948.29,-2180 1876.14,-2190.54 1774.11,-2190.54 1701.96,-2180 1701.96,-2165.09 1774.11,-2154.54 1876.14,-2154.54 1948.29,-2165.09"/>
<polygon fill="none" stroke="#b8bf62" points="1952.29,-2161.63 1952.29,-2183.46 1876.43,-2194.54 1773.81,-2194.54 1697.96,-2183.46 1697.96,-2161.63 1773.81,-2150.54 1876.43,-2150.54 1952.29,-2161.63"/>
<text text-anchor="middle" x="1825.12" y="-2167.49" font-family="Times,serif" font-size="14.00">http://www.wtfpl.net/about/</text>
</g>
<!-- 50861&#45;&gt;50858 -->
<g id="edge74" class="edge">
<title>50861&#45;&gt;50858</title>
<path fill="none" stroke="#b8bf62" stroke-width="2" d="M1813.98,-2150.09C1752.66,-2026.49 1742.89,-2005.93 1600.82,-1703.63"/>
<polygon fill="#b8bf62" stroke="#b8bf62" stroke-width="2" points="1597.18,-1695.88 1605.51,-1703.02 1598.72,-1697.99 1601.88,-1704.72 1601.43,-1704.93 1600.98,-1705.15 1597.82,-1698.41 1597.36,-1706.85 1597.18,-1695.88"/>
</g>
<!-- 50862 -->
<g id="node50" class="node">
<title>50862</title>
<polygon fill="none" stroke="#b8bf62" points="2183.04,-1723.43 2183.04,-1738.34 2117.7,-1748.89 2025.3,-1748.89 1959.97,-1738.34 1959.97,-1723.43 2025.3,-1712.89 2117.7,-1712.89 2183.04,-1723.43"/>
<polygon fill="none" stroke="#b8bf62" points="2187.04,-1720.03 2187.04,-1741.75 2118.02,-1752.89 2024.98,-1752.89 1955.97,-1741.75 1955.97,-1720.03 2024.98,-1708.89 2118.02,-1708.89 2187.04,-1720.03"/>
<text text-anchor="middle" x="2071.5" y="-1725.84" font-family="Times,serif" font-size="14.00">http://sam.zoy.org/wtfpl/</text>
</g>
<!-- 50862&#45;&gt;50858 -->
<g id="edge75" class="edge">
<title>50862&#45;&gt;50858</title>
<path fill="none" stroke="#b8bf62" stroke-width="2" d="M1991.83,-1748C1898.35,-1765.2 1851.7,-1755.21 1658.28,-1694.25"/>
<polygon fill="#b8bf62" stroke="#b8bf62" stroke-width="2" points="1650.08,-1691.67 1660.98,-1690.38 1652.68,-1691.96 1659.77,-1694.2 1659.62,-1694.68 1659.47,-1695.15 1652.38,-1692.92 1658.27,-1698.97 1650.08,-1691.67"/>
</g>
<!-- 50863 -->
<g id="node51" class="node">
<title>50863</title>
<polygon fill="none" stroke="#b8bf62" points="1879.67,-2056.81 1879.67,-2071.72 1827.97,-2082.27 1754.84,-2082.27 1703.14,-2071.72 1703.14,-2056.81 1754.84,-2046.27 1827.97,-2046.27 1879.67,-2056.81"/>
<polygon fill="none" stroke="#b8bf62" points="1883.67,-2053.55 1883.67,-2074.99 1828.37,-2086.27 1754.44,-2086.27 1699.14,-2074.99 1699.14,-2053.55 1754.44,-2042.27 1828.37,-2042.27 1883.67,-2053.55"/>
<text text-anchor="middle" x="1791.41" y="-2059.22" font-family="Times,serif" font-size="14.00">scancode:wtfpl&#45;2.0</text>
</g>
<!-- 50863&#45;&gt;50858 -->
<g id="edge76" class="edge">
<title>50863&#45;&gt;50858</title>
<path fill="none" stroke="#b8bf62" stroke-width="2" d="M1778.81,-2041.98C1727.5,-1951.09 1717.1,-1930.99 1601.97,-1703.57"/>
<polygon fill="#b8bf62" stroke="#b8bf62" stroke-width="2" points="1598.04,-1695.82 1606.57,-1702.71 1599.65,-1697.88 1603,-1704.52 1602.56,-1704.74 1602.11,-1704.97 1598.75,-1698.33 1598.54,-1706.77 1598.04,-1695.82"/>
</g>
<!-- 51077 -->
<g id="node52" class="node">
<title>51077</title>
<ellipse fill="none" stroke="#dac767" cx="2688.64" cy="-596.16" rx="156.62" ry="28.99"/>
<text text-anchor="middle" x="2688.64" y="-599.36" font-family="Times,serif" font-size="14.00" fill="gray">FOSSLight</text>
<text text-anchor="middle" x="2688.64" y="-582.86" font-family="Times,serif" font-size="14.00" fill="gray">7827893443f53b171a800a1ecf639f0a</text>
</g>
<!-- 51077&#45;&gt;51078 -->
<g id="edge77" class="edge">
<title>51077&#45;&gt;51078</title>
<path fill="none" stroke="#dac767" d="M2577.71,-616.9C2458.25,-641.6 2385.47,-670.37 2069.61,-801.73"/>
<polygon fill="#dac767" stroke="#dac767" points="2068.52,-798.39 2060.63,-805.47 2071.21,-804.86 2068.52,-798.39"/>
</g>
<!-- 54333 -->
<g id="node54" class="node">
<title>54333</title>
<ellipse fill="none" stroke="#98b561" cx="347.24" cy="-1119.61" rx="157.68" ry="28.99"/>
<text text-anchor="middle" x="347.24" y="-1122.81" font-family="Times,serif" font-size="14.00" fill="gray">EclipseLicense</text>
<text text-anchor="middle" x="347.24" y="-1106.31" font-family="Times,serif" font-size="14.00" fill="gray">98638f68940942c84b06a63acdecdfb9</text>
</g>
<!-- 54333&#45;&gt;54334 -->
<g id="edge78" class="edge">
<title>54333&#45;&gt;54334</title>
<path fill="none" stroke="#98b561" d="M410.19,-1092.59C495.17,-1057.96 541.37,-1052.32 750.37,-1042.52"/>
<polygon fill="#98b561" stroke="#98b561" points="750.41,-1046.03 760.23,-1042.06 750.08,-1039.03 750.41,-1046.03"/>
</g>
<!-- 54335 -->
<g id="node56" class="node">
<title>54335</title>
<polygon fill="none" stroke="#98b561" points="448.33,-967.15 448.33,-982.06 318.09,-992.6 133.91,-992.6 3.67,-982.06 3.67,-967.15 133.91,-956.6 318.09,-956.6 448.33,-967.15"/>
<polygon fill="none" stroke="#98b561" points="452.33,-963.46 452.33,-985.75 318.26,-996.6 133.75,-996.6 -0.33,-985.75 -0.33,-963.46 133.75,-952.6 318.26,-952.6 452.33,-963.46"/>
<text text-anchor="middle" x="226" y="-969.55" font-family="Times,serif" font-size="14.00">Do What The Firetruck You Want To Public License</text>
</g>
<!-- 54335&#45;&gt;54334 -->
<g id="edge79" class="edge">
<title>54335&#45;&gt;54334</title>
<path fill="none" stroke="#98b561" stroke-width="2" d="M452.71,-978.7C517.72,-985.77 604.38,-999.49 755.81,-1024.31"/>
<polygon fill="#98b561" stroke="#98b561" stroke-width="2" points="764.42,-1025.73 753.83,-1028.55 761.81,-1025.81 754.47,-1024.6 754.55,-1024.11 754.63,-1023.61 761.97,-1024.82 755.28,-1019.67 764.42,-1025.73"/>
</g>
</g>
</svg>
